<?xml version="1.0" standalone="no"?>
<!DOCTYPE svg PUBLIC "-//W3C//DTD SVG 1.1//EN" "http://www.w3.org/Graphics/SVG/1.1/DTD/svg11.dtd" >
<svg xmlns="http://www.w3.org/2000/svg">
<metadata></metadata>
<defs>
<font id="bree_serifbold" horiz-adv-x="1024" >
<font-face units-per-em="2048" ascent="1579" descent="-469" />
<missing-glyph horiz-adv-x="376" />
<glyph unicode="&#xfb01;" horiz-adv-x="1282" d="M39 825v222h135v61q0 152 78 256q92 119 346 119q224 0 434 -88l-65 -217q-168 65 -299 65q-77 0 -114.5 -30.5t-37.5 -108.5v-57h627v-848l106 -9v-190h-534v188l49 7q23 1 31 13t8 44v573h-287v-624l96 -11v-190h-553v184l66 6q29 5 39 18t10 50v567h-135z" />
<glyph unicode="&#xfb02;" horiz-adv-x="1277" d="M39 825v222h135v49q0 146 66 256q39 63 121 97t202 34q167 0 283 -70l143 47h152v-1261l106 -9v-190h-534v188l41 7q31 4 40 17t9 50v563h-287v-624l96 -11v-190h-553v184l66 6q30 4 39.5 17.5t9.5 50.5v567h-135zM516 1047h287v147q-68 39 -160 39q-127 0 -127 -139v-47 z" />
<glyph unicode="&#xfb03;" horiz-adv-x="1910" d="M39 825v222h135v40q0 373 363 373q146 0 247 -55l-53 -219q-59 26 -110 26q-56 0 -80.5 -30t-24.5 -97v-38h295v61q0 152 78 256q92 119 346 119q224 0 434 -88l-65 -217q-168 65 -299 65q-77 0 -114.5 -30.5t-37.5 -108.5v-57h627v-848l106 -9v-190h-534v188l49 7 q23 1 31 13t8 44v573h-287v-624l96 -11v-190h-553v184l66 6q29 5 39 18t10 50v567h-295v-630l100 -9v-186h-557v184l66 6q30 4 39.5 17.5t9.5 50.5v567h-135z" />
<glyph unicode="&#xfb04;" horiz-adv-x="1904" d="M39 825v222h135v40q0 373 363 373q146 0 247 -55l-53 -219q-59 26 -110 26q-56 0 -80.5 -30t-24.5 -97v-38h295v49q0 146 66 256q39 63 121 97t202 34q167 0 283 -70l143 47h152v-1261l106 -9v-190h-534v188l41 7q31 4 40 17t9 50v563h-287v-624l96 -11v-190h-553v184 l66 6q30 4 39.5 17.5t9.5 50.5v567h-295v-630l100 -9v-186h-557v184l66 6q32 4 40.5 20.5t8.5 68.5v546h-135zM1153 1047h287v147q-68 39 -160 39q-127 0 -127 -139v-47z" />
<glyph horiz-adv-x="0" />
<glyph horiz-adv-x="682" />
<glyph horiz-adv-x="0" />
<glyph horiz-adv-x="0" />
<glyph unicode="&#xd;" horiz-adv-x="450" />
<glyph unicode=" "  horiz-adv-x="376" />
<glyph unicode="&#x09;" horiz-adv-x="376" />
<glyph unicode="&#xa0;" horiz-adv-x="376" />
<glyph unicode="!" horiz-adv-x="583" d="M119 135q0 67 47 113.5t121 46.5q83 0 128.5 -44t45.5 -118q0 -68 -46 -115t-122 -47q-80 0 -127 45.5t-47 118.5zM145 1049v217q0 57 37.5 90t110.5 33q151 0 151 -127v-213l-49 -662h-200z" />
<glyph unicode="&#x22;" horiz-adv-x="712" d="M92 1362h227l-20 -483h-186zM389 1362h232l-23 -483h-188z" />
<glyph unicode="#" horiz-adv-x="1083" d="M51 311v162h193l26 289h-180v162h193l28 315h178l-28 -315h194l29 315h176l-31 -315h187v-162h-199l-24 -289h184v-162h-199l-26 -311h-177l25 311h-192l-27 -311h-178l28 311h-180zM420 473h196l25 289h-192z" />
<glyph unicode="$" horiz-adv-x="1110" d="M80 92v330l256 14v-104q0 -45 29 -51q53 -15 120 -15q181 0 181 137q0 60 -43 90.5t-156 61.5q-146 35 -252 109q-127 88 -127 278q0 150 88.5 251t245.5 138v199h274v-189q179 -21 283 -73v-312l-252 -18v94q0 41 -29 51q-44 13 -108 13q-148 0 -148 -119q0 -43 31 -74 q34 -31 64 -41l118 -39q64 -22 107 -39q35 -13 96 -49q66 -39 90 -69q34 -39 57 -100t23 -130q0 -154 -86.5 -257.5t-245.5 -141.5v-258h-274v237q-198 9 -342 76z" />
<glyph unicode="%" horiz-adv-x="1677" d="M70 971q0 181 90.5 278t245.5 97q153 0 238 -93t85 -274q0 -189 -87 -284t-249 -95q-323 0 -323 371zM303 965q0 -207 92 -207q101 0 101 215q0 114 -23 162.5t-72 48.5q-52 0 -75 -49t-23 -170zM434 61l598 1282l215 -88l-602 -1286zM948 340q0 181 90 277t246 96 q153 0 238.5 -93t85.5 -274q0 -189 -87 -284t-249 -95q-324 0 -324 373zM1182 332q0 -205 92 -205q100 0 100 213q0 114 -22.5 162.5t-71.5 48.5q-52 0 -75 -49t-23 -170z" />
<glyph unicode="&#x26;" horiz-adv-x="1507" d="M72 381q0 278 270 416q-76 88 -76 207q0 165 127 274q129 111 352 111q230 0 400 -89v-317l-258 -20v98q0 30 -6.5 41.5t-28.5 17.5q-45 10 -102 10q-142 0 -142 -126q0 -92 89 -203.5t272 -268.5q24 82 12 279h379v-188l-90 -13q-12 -177 -58 -270q137 -107 230 -172 l-189 -252q-86 56 -241 182q-149 -125 -406 -125q-282 0 -407 119q-127 121 -127 289zM389 408q0 -88 55 -138.5t158 -50.5q124 0 189 53q-81 62 -173 154q-78 78 -145 168q-84 -78 -84 -186z" />
<glyph unicode="'" horiz-adv-x="413" d="M92 1362h227l-20 -483h-186z" />
<glyph unicode="(" horiz-adv-x="710" d="M100 537q0 499 291 985l266 -117q-217 -438 -217 -848q0 -211 53 -406.5t166 -424.5l-262 -134q-297 458 -297 945z" />
<glyph unicode=")" horiz-adv-x="710" d="M47 -272q219 436 219 831q0 411 -215 846l266 117q291 -484 291 -985q0 -481 -299 -945z" />
<glyph unicode="*" horiz-adv-x="919" d="M80 1186l14 102q10 66 56.5 82.5t93.5 -22.5l170 -131l-74 303l100 24q65 17 96 -16t19 -98l-55 -216l260 158l55 -80q36 -60 16 -101t-83 -46q-82 -6 -220 -6l244 -176l-65 -86q-30 -46 -76 -43.5t-80 57.5l-100 203l-134 -267l-98 47q-59 29 -62.5 76.5t46.5 77.5 l176 117z" />
<glyph unicode="+" horiz-adv-x="1095" d="M131 498v274h277v303h280v-303h277v-274h-277v-295h-280v295h-277z" />
<glyph unicode="," horiz-adv-x="569" d="M84 35l51 235q93 17 133 17q107 0 166.5 -46.5t59.5 -127.5q3 -75 -41 -148l-172 -317l-172 59l86 262q25 66 -39 66h-72z" />
<glyph unicode="-" horiz-adv-x="657" d="M59 455v252h537v-252h-537z" />
<glyph unicode="." horiz-adv-x="532" d="M86 143q0 75 47.5 121.5t130.5 46.5q89 0 135.5 -43.5t46.5 -122.5q0 -77 -46.5 -124.5t-129.5 -47.5q-89 0 -136.5 45.5t-47.5 124.5z" />
<glyph unicode="/" horiz-adv-x="944" d="M35 -139l598 1712l295 -103l-602 -1714z" />
<glyph unicode="0" horiz-adv-x="1120" d="M55 666q0 335 135.5 507.5t376.5 172.5q242 0 370 -167.5t128 -506.5q0 -690 -510 -690q-255 0 -377.5 165.5t-122.5 518.5zM399 643q0 -213 37 -302t123 -89q56 0 91.5 38.5t54 131t18.5 246.5q0 216 -39 307.5t-121 91.5q-88 0 -126 -95t-38 -329z" />
<glyph unicode="1" horiz-adv-x="997" d="M57 1067l414 252h264v-1106l211 -12v-201h-780v197l176 10q31 5 40 16.5t9 48.5v732l-233 -121z" />
<glyph unicode="2" horiz-adv-x="1052" d="M68 0v207l405 479q77 96 103 146.5t26 109.5q0 137 -141 137q-51 0 -96 -10q-31 -9 -31 -55v-115l-258 16v338q178 93 436 93q209 0 332 -105.5t123 -284.5q0 -104 -44.5 -191t-150.5 -210l-287 -324h525v-231h-942z" />
<glyph unicode="3" horiz-adv-x="1042" d="M33 90l96 252q163 -94 315 -94q80 0 126 40.5t46 114.5q0 85 -54 116.5t-177 31.5h-104l24 217h189q102 65 102 180q0 131 -135 131q-55 0 -96 -12q-31 -9 -31 -53v-101l-258 17v323q203 93 442 93q205 0 315.5 -90t110.5 -242q0 -202 -203 -322q222 -65 222 -307 q0 -171 -123 -291q-119 -119 -357 -119q-273 0 -450 115z" />
<glyph unicode="4" horiz-adv-x="1138" d="M70 350v191l393 819l258 -129l-307 -647h182l125 297h197v-297h167v-240h-170v-131l136 -12v-201h-611v197l92 8q33 5 44.5 17t11.5 48v80h-518z" />
<glyph unicode="5" horiz-adv-x="1052" d="M25 94l100 250q174 -98 313 -98q166 0 166 151q0 199 -457 199l89 723h403q30 0 41.5 12t11.5 43v80l258 -18v-353h-444l-35 -274q217 -18 350 -119q137 -98 137 -289q0 -177 -124 -301q-122 -125 -385 -125q-104 0 -232 35q-123 37 -192 84z" />
<glyph unicode="6" horiz-adv-x="1085" d="M76 571q0 288 143 514q80 121 227.5 199t346.5 98l65 -254q-386 -58 -444 -354q116 78 254 78q168 0 261 -104t93 -295q0 -222 -123 -347.5t-350 -125.5q-235 0 -354 154.5t-119 436.5zM410 563q-2 -185 30.5 -263.5t110.5 -78.5q139 0 139 215q0 187 -127 187 q-87 0 -153 -60z" />
<glyph unicode="7" horiz-adv-x="1087" d="M82 922v397h965v-193l-492 -1126h-365l500 1083h-299q-51 0 -51 -55v-125z" />
<glyph unicode="8" horiz-adv-x="1085" d="M51 334q0 223 244 356q-93 45 -149 123t-56 170q0 163 124 261.5t341 98.5q214 0 318 -84.5t104 -228.5q0 -177 -197 -315q254 -131 254 -344q0 -172 -125 -285t-381 -113q-110 0 -196 22.5t-138 57.5t-85 84t-45.5 97t-12.5 100zM362 362q0 -64 41 -105.5t119 -41.5 q72 0 111 40.5t39 104.5q0 42 -29 82q-28 42 -53 56q-14 11 -88 57q-140 -81 -140 -193zM422 1010q0 -96 153 -179q109 92 109 183q0 56 -35 86t-94 30q-60 0 -96.5 -33t-36.5 -87z" />
<glyph unicode="9" horiz-adv-x="1087" d="M68 874q0 219 123 345.5t348 126.5q237 0 356 -154.5t119 -437.5q0 -79 -9.5 -152t-33 -149t-60.5 -141t-95.5 -124.5t-132.5 -103t-176 -72.5t-224 -37l-66 254q204 20 317.5 94.5t143.5 227.5q-116 -78 -254 -78q-172 0 -264 102.5t-92 298.5zM399 889q0 -182 125 -182 q96 0 156 57q2 177 -32 258.5t-109 81.5q-140 0 -140 -215z" />
<glyph unicode=":" horiz-adv-x="532" d="M86 143q0 75 47.5 121.5t130.5 46.5q89 0 135.5 -43.5t46.5 -122.5q0 -77 -46.5 -124.5t-129.5 -47.5q-89 0 -136.5 45.5t-47.5 124.5zM86 895q0 75 47.5 121.5t130.5 46.5q89 0 135.5 -43.5t46.5 -122.5q0 -77 -46.5 -124.5t-129.5 -47.5q-89 0 -136.5 45.5t-47.5 124.5 z" />
<glyph unicode=";" horiz-adv-x="548" d="M74 35l51 235q94 17 133 17q108 0 166.5 -46.5t58.5 -127.5q3 -75 -41 -148l-172 -317l-172 59l86 262q25 66 -39 66h-71zM119 895q0 75 47.5 121.5t130.5 46.5q89 0 135.5 -43.5t46.5 -122.5q0 -77 -46.5 -124.5t-129.5 -47.5q-89 0 -136.5 45.5t-47.5 124.5z" />
<glyph unicode="&#x3c;" horiz-adv-x="1095" d="M121 551v201l768 387l117 -252l-496 -228l498 -245l-119 -256z" />
<glyph unicode="=" horiz-adv-x="1095" d="M133 264v273h830v-273h-830zM133 698v273h830v-273h-830z" />
<glyph unicode="&#x3e;" horiz-adv-x="1095" d="M121 883l119 256l768 -394v-200l-768 -387l-117 252l495 227z" />
<glyph unicode="?" horiz-adv-x="931" d="M82 981v322q186 86 403 86q202 0 299 -97q95 -95 95 -225q0 -116 -48 -200.5t-157 -157.5q-74 -53 -82 -60q-12 -10 -45 -43q-23 -27 -28 -52t-5 -83v-90h-248l-16 141q-11 80 4.5 137t53.5 98.5t112 92.5q80 54 108.5 89t28.5 89q0 105 -108 105q-52 0 -82 -9 q-27 -6 -27 -47v-112zM225 135q0 67 48 113.5t122 46.5q80 0 127 -45t47 -115q0 -69 -47 -116.5t-123 -47.5q-80 0 -127 46.5t-47 117.5z" />
<glyph unicode="@" horiz-adv-x="1945" d="M127 442q0 412 254 648q255 237 643 237q350 0 571 -194q224 -193 224 -549q0 -277 -140 -432q-140 -152 -360 -152h-168l-16 102h-5q-2 2 -6 2q-69 -106 -213 -106q-315 0 -315 410q0 224 115.5 352.5t328.5 128.5q140 0 320 -66v-633q104 5 164.5 99t60.5 278 q0 262 -143 404.5t-422 142.5q-317 0 -483 -184t-166 -479q0 -285 143 -465q145 -183 412 -183q161 0 288 56l64 -193q-152 -63 -358 -63q-200 0 -357.5 69.5t-251.5 192.5q-184 242 -184 577zM864 426q0 -229 121 -229q102 0 102 133v356q-27 12 -67 12q-77 0 -116.5 -73 t-39.5 -199z" />
<glyph unicode="A" horiz-adv-x="1409" d="M16 0v195l54 6q28 4 41.5 16.5t25.5 42.5l293 891l-108 10v201h567l403 -1151l101 -10v-201h-580v195l64 6q33 7 33 37q0 10 -3 22l-28 88h-383l-47 -141l102 -6v-201h-535zM539 569h297l-142 480h-10z" />
<glyph unicode="B" horiz-adv-x="1286" d="M61 0v195l64 6q29 5 38 16.5t9 48.5v887l-109 8v201h637q461 0 461 -326q0 -107 -54.5 -185.5t-152.5 -117.5q128 -26 201.5 -110t73.5 -205q0 -204 -142.5 -311t-412.5 -107h-613zM524 238h127q203 0 203 186q0 166 -199 166h-131v-352zM524 811h94q185 0 185 172 q0 152 -178 152h-101v-324z" />
<glyph unicode="C" horiz-adv-x="1257" d="M70 670q0 192 55 337t154 226q190 156 450 156q249 0 426 -86v-361l-258 -16v121q0 45 -29 55q-52 14 -118 14q-320 0 -320 -424q0 -210 81.5 -327t246.5 -117q72 0 110 12q35 9 35 55v134l258 -17v-375q-170 -84 -424 -84q-323 0 -495 178t-172 519z" />
<glyph unicode="D" horiz-adv-x="1390" d="M61 0v195l62 6q30 5 39.5 15.5t9.5 39.5v897l-109 8v201h586q320 0 494 -161t174 -474q0 -188 -53.5 -333t-149.5 -232q-186 -162 -457 -162h-596zM524 248h115q163 0 243.5 107.5t80.5 338.5q0 247 -86 336q-87 90 -238 90h-115v-872z" />
<glyph unicode="E" horiz-adv-x="1161" d="M61 0v195l64 8q30 4 38.5 16t8.5 49v885l-109 8v201h1004v-354l-258 -17v84q0 55 -51 55h-234v-309h461v-246h-461v-344h258q52 0 52 56v102l258 -18v-371h-1031z" />
<glyph unicode="F" horiz-adv-x="1159" d="M61 0v195l62 6q31 5 40 16.5t9 48.5v887l-109 8v201h1049v-354l-258 -17v82q0 57 -53 57h-277v-339h488v-248h-488v-334l160 -8v-201h-623z" />
<glyph unicode="G" horiz-adv-x="1366" d="M70 678q0 187 56.5 330.5t156.5 224.5q196 156 477 156q263 0 436 -89v-358l-258 -16v121q0 46 -31 55q-59 12 -135 12q-170 0 -256 -111t-86 -313q0 -448 291 -448q87 0 166 28v242l-125 8v199h553v-195l-53 -6q-50 -9 -50 -57v-348q-194 -138 -501 -138 q-306 0 -473.5 179t-167.5 524z" />
<glyph unicode="H" horiz-adv-x="1497" d="M61 0v195l62 6q31 5 40 16.5t9 48.5v887l-109 8v201h578v-197l-66 -6q-30 -5 -39.5 -16t-9.5 -43v-285h445v340l-101 8v199h566v-195l-62 -6q-31 -5 -40 -16.5t-9 -46.5v-889l107 -8v-201h-576v197l66 6q31 5 40 16.5t9 48.5v297h-445v-358l107 -8v-199h-572z" />
<glyph unicode="I" horiz-adv-x="698" d="M57 0v197l66 6q31 5 40 16.5t9 48.5v887l-111 8v199h580v-195l-66 -6q-31 -5 -40 -15.5t-9 -45.5v-891l111 -8v-201h-580z" />
<glyph unicode="J" horiz-adv-x="1064" d="M66 45v385l258 16v-149q0 -46 30 -55q33 -11 82 -11q70 0 96.5 39t26.5 125v758l-141 10v199h610v-195l-67 -6q-30 -5 -40 -16t-10 -43v-639q0 -144 -14 -221q-30 -138 -134.5 -203.5t-303.5 -65.5q-220 0 -393 72z" />
<glyph unicode="K" horiz-adv-x="1363" d="M61 0v195l64 8q47 3 47 55v895l-111 8v201h560v-197l-52 -4q-47 -3 -47 -55v-346l336 393v6l-84 6v197h496v-193l-58 -6q-39 -6 -79 -55l-242 -291l336 -610l114 -6v-201h-604v195l64 8q26 5 26 25q0 11 -8 28l-168 299l-129 -147v-203l76 -6v-199h-537z" />
<glyph unicode="L" horiz-adv-x="1155" d="M57 0v197l66 6q31 5 40 16.5t9 48.5v887l-111 8v199h594v-193l-80 -8q-31 -5 -41 -16.5t-10 -46.5v-867h248q31 1 42 13t11 43v137l258 -18v-406h-1026z" />
<glyph unicode="M" horiz-adv-x="1759" d="M27 0v197l65 6q29 4 39.5 18t15.5 51l70 883l-113 8v199h510l263 -807h8l270 807h510v-195l-63 -6q-53 -5 -53 -54q0 -5 1 -11l66 -889l102 -6v-201h-534v197l61 6q29 1 37 13.5t6 49.5l-31 578h-6l-252 -707h-247l-244 692h-8l-35 -622l98 -6v-201h-536z" />
<glyph unicode="N" horiz-adv-x="1472" d="M57 0v195l68 6q29 5 38 16t9 43v895l-109 8v199h439l479 -811h4v604l-117 8v199h559v-195l-67 -6q-29 -4 -38 -16t-9 -45v-1100h-312l-495 821h-6v-614l116 -8v-199h-559z" />
<glyph unicode="O" horiz-adv-x="1376" d="M70 678q0 186 54 329t150 224q186 158 435 158q264 0 430 -175q168 -171 168 -536q0 -341 -165.5 -523t-461.5 -182q-295 0 -452.5 180.5t-157.5 524.5zM430 692q0 -426 266 -426q250 0 250 406q0 151 -47 272q-25 69 -80 108.5t-131 39.5q-138 0 -199 -113 q-59 -115 -59 -287z" />
<glyph unicode="P" horiz-adv-x="1245" d="M61 0v195l64 6q29 5 38 16.5t9 48.5v887l-109 8v201h617q246 0 381 -111.5t135 -320.5q0 -231 -154 -355q-152 -122 -405 -122h-113v-244l187 -8v-201h-650zM524 688h88q222 0 222 219q0 116 -52.5 164.5t-167.5 48.5h-90v-432z" />
<glyph unicode="Q" horiz-adv-x="1376" d="M70 678q0 186 54 329t150 224q186 158 435 158q264 0 430 -175q168 -171 168 -536q0 -262 -119 -436q-118 -178 -311 -224v-8q84 -4 165 -25t132 -44t107.5 -41.5t98.5 -18.5q59 0 90 8l-38 -264q-66 -4 -74 -4h-12q-61 0 -133 19q-79 20 -152 50t-144 60.5t-143 51.5 q-66 18 -117 18h-10q-65 0 -121 -15l31 179q-237 36 -362 211.5t-125 482.5zM430 692q0 -426 266 -426q250 0 250 406q0 151 -47 272q-25 69 -80 108.5t-131 39.5q-138 0 -199 -113q-59 -115 -59 -287z" />
<glyph unicode="R" horiz-adv-x="1339" d="M61 0v195l64 6q29 5 38 16.5t9 48.5v887l-109 8v201h596q533 0 533 -375q0 -268 -268 -348q97 -34 149 -137l152 -295l96 -6v-201h-563v195l57 6q28 6 28 29q0 12 -7 28l-84 166q-25 51 -50 68.5t-75 17.5h-103v-305l82 -6v-199h-545zM524 733h119q188 0 188 205 q0 101 -48 141.5t-162 40.5h-97v-387z" />
<glyph unicode="S" horiz-adv-x="1132" d="M90 55v351l264 16v-115q0 -45 29 -55q49 -14 125 -14q186 0 186 149q0 64 -46.5 98.5t-158.5 65.5q-86 24 -142.5 49t-117.5 68q-129 93 -129 290q0 198 140 314q138 114 368 114q244 0 410 -81v-334l-258 -17v103q0 43 -29 53q-47 12 -115 12q-69 0 -110 -31t-41 -92 q0 -63 46 -97t171 -73q45 -13 113 -38q41 -15 100 -50q67 -38 92 -71q34 -41 57 -105.5t23 -140.5q0 -213 -142 -332t-393 -119q-259 0 -442 82z" />
<glyph unicode="T" horiz-adv-x="1249" d="M27 961v401h1196v-401l-258 -17v129q0 57 -54 57h-106v-921l145 -8v-201h-645v195l94 8q32 1 43 14.5t11 50.5v862h-117q-51 0 -51 -55v-131z" />
<glyph unicode="U" horiz-adv-x="1400" d="M47 1161v201h578v-197l-68 -6q-30 -5 -39.5 -16t-9.5 -43v-664q0 -113 53.5 -162t161.5 -49q199 0 199 203v727l-97 8v199h531v-195l-62 -6q-32 -5 -41.5 -16t-9.5 -45v-680q0 -205 -151 -326t-392 -121q-274 0 -409 116.5t-135 359.5v704z" />
<glyph unicode="V" horiz-adv-x="1361" d="M4 1161v201h586v-197l-64 -6q-45 -7 -45 -45q0 -12 4 -27l215 -741h7l237 809l-104 8v199h518v-195l-47 -4q-49 -3 -66 -65l-346 -1098h-414l-379 1149z" />
<glyph unicode="W" horiz-adv-x="1882" d="M16 1161v201h566v-197l-62 -6q-48 -5 -48 -51q0 -7 1 -16l129 -646h4l178 814h340l176 -787h9l135 680l-111 10v199h533v-195l-45 -4q-29 -2 -43.5 -15t-24.5 -50l-248 -1098h-368l-187 815h-10l-182 -815h-377l-268 1149z" />
<glyph unicode="X" horiz-adv-x="1347" d="M10 0v195l39 4q46 9 78 53l336 448l-324 451l-86 14v197h576v-193l-39 -4q-38 -6 -38 -28q0 -13 13 -31l140 -203h6l166 252l-76 8v199h485v-195l-43 -4q-34 -10 -40 -15t-34 -42l-284 -391l370 -508l91 -6v-201h-613v197l64 6q30 5 30 25q0 14 -14 34l-162 230h-6 l-194 -285l90 -8v-199h-531z" />
<glyph unicode="Y" horiz-adv-x="1228" d="M0 1161v201h590v-195l-51 -4q-40 -6 -40 -34q0 -13 9 -31l149 -310h7l186 367l-90 8v199h469v-195l-41 -4q-48 -6 -78 -61l-313 -584v-309l139 -8v-201h-637v193l88 8q34 5 45.5 17t11.5 48v242l-358 643z" />
<glyph unicode="Z" horiz-adv-x="1187" d="M74 952v410h1016v-221l-609 -910h328q31 0 43 12.5t12 43.5v139l258 -16v-410h-1044v223l604 907h-293q-32 0 -44.5 -12.5t-12.5 -44.5v-137z" />
<glyph unicode="[" horiz-adv-x="661" d="M137 -367v1856h488v-215h-176v-1426h176v-215h-488z" />
<glyph unicode="\" horiz-adv-x="944" d="M33 1466l291 105l600 -1714l-291 -101z" />
<glyph unicode="]" horiz-adv-x="661" d="M35 -152h178v1426h-178v215h487v-1856h-487v215z" />
<glyph unicode="^" horiz-adv-x="1177" d="M100 606l387 799h220l387 -801l-279 -41l-221 477l-219 -475z" />
<glyph unicode="_" d="M0 -152h1024v-184h-1024v184z" />
<glyph unicode="`" d="M287 1503q0 83 110 123l82 33l256 -422l-98 -82l-279 229q-71 53 -71 119z" />
<glyph unicode="a" horiz-adv-x="1155" d="M53 477q0 282 146 440t419 158q193 0 396 -78v-747q0 -33 9.5 -46t37.5 -14l53 -4v-186h-369l-14 96l-6 2q-79 -125 -262 -125q-219 0 -313 138q-97 142 -97 366zM395 502q0 -285 152 -285q59 0 94 34.5t35 86.5v477q-43 16 -94 16q-187 0 -187 -329z" />
<glyph unicode="b" horiz-adv-x="1153" d="M8 1268v192h461v-477q92 92 240 92q185 0 284 -127.5t99 -372.5q0 -298 -138 -450t-397 -152q-111 0 -242 25q-125 24 -188 61v1143q0 57 -49 60zM469 238q43 -21 104 -21q177 0 177 309q0 301 -168 301q-50 0 -81.5 -28.5t-31.5 -75.5v-485z" />
<glyph unicode="c" horiz-adv-x="997" d="M55 512q0 286 150 424q151 139 377 139q199 0 340 -78v-327l-242 -17v101q0 45 -29 55q-27 6 -61 6q-191 0 -191 -289q0 -286 205 -286q103 0 227 86l121 -222q-171 -131 -397 -131q-236 0 -368 139t-132 400z" />
<glyph unicode="d" horiz-adv-x="1157" d="M55 481q0 253 127 424q126 170 353 170q77 0 141 -20v147q0 54 -49 60l-68 6v192h455v-1208q0 -35 7.5 -44.5t37.5 -14.5l55 -7v-186h-369l-14 94l-8 2q-79 -123 -262 -123q-92 0 -163 27.5t-116 74t-74.5 113t-41 138t-11.5 155.5zM395 512q0 -295 158 -295 q61 0 92 31.5t31 83.5v479q-39 20 -96 20q-93 0 -139 -85.5t-46 -233.5z" />
<glyph unicode="e" horiz-adv-x="1013" d="M55 500q0 241 142 409q141 166 395 166q170 0 266 -80t96 -233q0 -361 -533 -361h-26q8 -80 60.5 -127t144.5 -47q135 0 260 82l90 -227q-15 -15 -55 -33q-50 -24 -141 -49q-94 -27 -201 -27q-250 0 -374 139t-124 388zM391 602q15 -1 30 0q241 0 241 141q0 88 -89 88 q-78 0 -127.5 -63t-54.5 -166z" />
<glyph unicode="f" horiz-adv-x="794" d="M39 825v222h135v49q0 163 68 268q80 119 303 119q185 0 332 -78l-78 -215q-90 43 -168 43q-115 0 -115 -129v-57h260v-222h-260v-624l160 -11v-190h-617v184l66 6q30 4 39.5 17.5t9.5 50.5v567h-135z" />
<glyph unicode="g" horiz-adv-x="1132" d="M57 518q0 259 145.5 408t407.5 149q204 0 408 -80v-874q0 -194 -55 -322q-101 -237 -461 -237q-110 0 -221 20q-116 18 -175 53v304l248 16v-82q0 -53 43 -68q43 -12 95 -12q116 0 163 66t47 211v77q-69 -112 -239 -112q-205 0 -305.5 127t-100.5 356zM397 545 q0 -138 34 -205.5t120 -67.5q129 0 129 138v405q-56 16 -102 16q-90 0 -135.5 -77.5t-45.5 -208.5z" />
<glyph unicode="h" horiz-adv-x="1208" d="M31 1268v192h452v-547q88 162 283 162q160 0 235.5 -86.5t75.5 -261.5v-530l101 -9v-188h-519v188l41 5q35 3 35 57v409q0 80 -24 114t-86 34t-99 -44.5t-37 -117.5v-448l86 -4v-193h-542v184l67 6q29 1 39.5 15.5t10.5 52.5v942q0 32 -10 43.5t-40 16.5z" />
<glyph unicode="i" horiz-adv-x="634" d="M37 0v184l72 6q29 5 38 17.5t9 50.5v528q0 32 -10.5 44.5t-39.5 17.5l-69 6v193h457v-848l108 -9v-190h-565zM100 1343q0 79 55 130t142 51q91 0 146 -48t55 -126q0 -82 -55.5 -133.5t-145.5 -51.5t-143.5 49t-53.5 129z" />
<glyph unicode="j" horiz-adv-x="616" d="M-172 -375l88 238q65 -35 129 -35q102 0 102 145v811q0 55 -49 64l-71 6v193h460v-1100q0 -78 -4.5 -122.5t-23.5 -96.5q-29 -88 -102.5 -132.5t-215.5 -48.5q-178 0 -313 78zM98 1343q0 79 55 130t142 51q91 0 146 -48t55 -126q0 -82 -55.5 -133.5t-145.5 -51.5 t-143.5 49t-53.5 129z" />
<glyph unicode="k" horiz-adv-x="1177" d="M29 1268v192h458v-811q89 3 172 56q82 52 82 112q0 28 -39 37l-51 8v185h471v-187l-90 -14q-27 -147 -143 -248l164 -399l110 -9v-190h-397l-168 446q-6 -3 -111 -18v-229l84 -9v-190h-540v184l69 6q29 1 38 14.5t9 51.5v944q0 33 -9.5 46t-37.5 14z" />
<glyph unicode="l" horiz-adv-x="624" d="M31 1268v192h456v-1261l107 -9v-190h-561v184l67 6q31 4 40.5 17.5t9.5 50.5v942q0 33 -10.5 46t-39.5 14z" />
<glyph unicode="m" horiz-adv-x="1761" d="M35 854v193h428v-136h4q99 164 301 164q191 0 264 -166q94 166 297 166q299 0 299 -350v-528l101 -9v-188h-519v188l41 5q35 3 35 57v409q0 82 -21 115t-81 33q-55 0 -89 -44t-34 -114v-452l78 -9v-188h-496v188l41 5q35 3 35 57v407q0 81 -22 115.5t-81 34.5 q-55 0 -89.5 -45t-34.5 -115v-448l88 -11v-188h-543v184l69 6q29 5 38.5 17.5t9.5 48.5v530q0 32 -10.5 44.5t-39.5 17.5z" />
<glyph unicode="n" horiz-adv-x="1214" d="M35 854v193h430v-134h4q101 162 303 162q309 0 309 -348v-530l101 -9v-188h-518v188l41 5q17 1 24.5 10.5t9.5 29.5v424q0 80 -24 115t-86 35t-98.5 -45.5t-36.5 -116.5v-448l86 -7v-190h-543v184l69 6q29 1 38.5 14t9.5 50v532q0 32 -10.5 44.5t-39.5 17.5z" />
<glyph unicode="o" horiz-adv-x="1107" d="M55 516q0 126 32 225.5t83.5 161t120.5 101.5t136.5 55.5t139.5 15.5q71 0 122.5 -8.5t117.5 -38.5q68 -29 123 -84q54 -57 88.5 -161t34.5 -234q0 -285 -135 -430.5t-381 -145.5q-482 0 -482 543zM408 555q0 -171 31.5 -251.5t113.5 -80.5q77 0 111 71.5t34 223.5 q0 171 -31 240t-114 69q-77 0 -111 -66.5t-34 -205.5z" />
<glyph unicode="p" horiz-adv-x="1165" d="M29 854v193h430v-117h6q83 145 280 145q178 0 272.5 -129.5t94.5 -380.5q0 -283 -113 -437.5t-333 -154.5q-101 0 -179 37v-231l187 -12v-191h-643v184l67 7q31 4 40 17t9 50v954q0 57 -49 60zM489 248q48 -31 109 -31q93 0 131.5 75.5t38.5 225.5q0 305 -154 305 q-58 0 -91.5 -34t-33.5 -84v-457z" />
<glyph unicode="q" horiz-adv-x="1138" d="M55 483q0 278 145 435t412 157q196 0 400 -80v-1222l102 -6v-191h-596v184l119 9q27 2 38 15.5t11 47.5v258q-76 -117 -252 -117q-379 0 -379 510zM395 518q0 -120 25 -207q37 -94 125 -94q58 0 93.5 32.5t35.5 78.5v487q-53 16 -88 16q-191 0 -191 -313z" />
<glyph unicode="r" horiz-adv-x="995" d="M35 854v193h428v-158h4q36 82 109 134t184 52q109 0 188 -31v-405l-268 -16v141q0 37 -16 43q-15 6 -43 6q-59 0 -94 -45t-35 -119v-448l178 -11v-190h-633v184l67 6q30 1 40 15t10 53v530q0 30 -10.5 42.5t-37.5 17.5z" />
<glyph unicode="s" horiz-adv-x="958" d="M72 43v283l229 16v-78q0 -41 29 -51q35 -14 100 -14q131 0 131 96q0 34 -29 57q-7 6 -14 10.5t-13 8t-15 7t-14.5 5.5t-19 5.5t-21.5 5.5t-28 6.5t-32 7.5q-74 21 -113.5 37t-87.5 49q-98 70 -98 227q0 165 123.5 259.5t330.5 94.5q189 0 340 -74v-274l-229 -16v73 q0 45 -27 54q-38 12 -86 12q-118 0 -118 -86q0 -10 2.5 -19t4.5 -15t9 -13.5t10.5 -10t14.5 -11t14 -11.5q6 -3 30 -11.5t29 -10.5q8 -3 37 -11.5t37 -11.5l88 -29q34 -11 80 -35q50 -26 76 -55q27 -29 46 -78.5t19 -107.5q0 -169 -123 -265t-335 -96q-240 0 -377 70z" />
<glyph unicode="t" horiz-adv-x="823" d="M10 821l27 199q193 43 266 266h189v-239h239l-16 -226h-223v-440q0 -86 22 -117q22 -28 94 -28t127 30l47 -229q-104 -64 -274 -64q-213 0 -291 88q-28 34 -41 60.5t-20 68.5q-9 66 -9 156v475h-137z" />
<glyph unicode="u" horiz-adv-x="1212" d="M35 852v195h446v-660q0 -80 23.5 -113.5t85.5 -33.5q63 0 101 44.5t38 118.5v383q0 32 -10 45t-39 17l-45 4v195h432v-791q0 -34 9 -46t36 -17l55 -7v-186h-411v131h-6q-90 -158 -299 -158q-160 0 -236 84t-76 262v469q0 51 -49 60z" />
<glyph unicode="v" horiz-adv-x="1191" d="M12 854v193h563v-197l-55 -6q-38 -5 -38 -35q0 -9 3 -21l138 -452h2l161 506l-84 6v199h476v-193l-52 -4q-51 -9 -65 -59l-273 -791h-378l-297 842z" />
<glyph unicode="w" horiz-adv-x="1689" d="M12 856v191h531v-193l-66 -6q-39 -5 -39 -37q0 -8 2 -18l111 -451h4l180 672h285l178 -676h4l109 504l-101 6v199h467v-191l-63 -6q-44 -3 -58 -59l-202 -791h-340l-152 623h-4l-156 -623h-360l-227 844z" />
<glyph unicode="x" horiz-adv-x="1130" d="M20 0v190l43 5q51 10 76 47l223 307l-231 297l-78 12v189h498v-189l-35 -4q-26 -5 -26 -22q0 -11 10 -27l96 -129h6l125 174l-59 8v189h432v-191l-45 -4q-41 -3 -74 -47l-215 -285l254 -317l82 -13v-190h-535v186l43 7q26 5 26 22q0 11 -11 27l-109 141h-2l-131 -188 l72 -7v-188h-435z" />
<glyph unicode="y" horiz-adv-x="1175" d="M-2 -375l78 242q87 -43 168 -43q102 0 149 117l27 65l-311 836l-97 12v193h547v-197l-45 -4q-37 -5 -37 -38q0 -11 4 -24l123 -422h6l146 480l-76 6v199h483v-193l-45 -4q-31 -4 -44.5 -17t-26.5 -47l-287 -788q-88 -245 -191 -348t-282 -103q-157 0 -289 78z" />
<glyph unicode="z" horiz-adv-x="1019" d="M68 0v186l497 650h-188q-36 0 -50 -11t-14 -43v-86l-243 19v332h864v-183l-496 -653h207q34 0 49 11.5t15 45.5v82l241 -16v-334h-882z" />
<glyph unicode="{" horiz-adv-x="733" d="M68 471v209q86 4 115 54.5t24 174.5q-17 236 -17 301q0 134 87 210.5t227 76.5q111 0 190 -20l-24 -203q-47 8 -80 8q-59 0 -78.5 -32.5t-19.5 -114.5q0 -28 10 -148t10 -160q0 -190 -145 -252q79 -26 110 -78.5t31 -160.5q0 -52 -12 -178q-13 -137 -13 -168 q0 -84 20 -118t79 -34q44 0 80 8l22 -206q-90 -19 -190 -19q-151 0 -232.5 76.5t-81.5 204.5q0 113 21 344q11 117 -18.5 169t-114.5 56z" />
<glyph unicode="|" horiz-adv-x="679" d="M195 -180v1710h290v-1710h-290z" />
<glyph unicode="}" horiz-adv-x="733" d="M33 1477q79 20 190 20q145 0 229.5 -72.5t84.5 -214.5q0 -44 -9 -149l-8 -152q-6 -124 23.5 -174.5t115.5 -54.5v-209q-85 -4 -114.5 -56t-18.5 -169q21 -231 21 -344q0 -127 -81.5 -204t-232.5 -77q-100 0 -190 19l23 206q36 -8 79 -8q59 0 79 34t20 118q0 42 -15 168 q-12 126 -12 178q0 108 31.5 160.5t111.5 78.5q-145 62 -145 252q0 40 10 160q11 132 11 148q0 82 -20 114.5t-79 32.5q-33 0 -80 -8z" />
<glyph unicode="~" horiz-adv-x="1378" d="M86 608q88 126 172 189t188 63q86 0 236 -78q144 -75 219 -75q101 0 195 137l196 -160q-127 -244 -362 -244q-104 0 -254 72t-195 72q-84 0 -198 -138z" />
<glyph unicode="&#xa1;" horiz-adv-x="583" d="M133 909q0 68 46 115t122 47q80 0 127 -45.5t47 -118.5q0 -67 -47 -113t-121 -46q-83 0 -128.5 43.5t-45.5 117.5zM150 -6l49 661h200l50 -661v-217q0 -57 -37.5 -90t-110.5 -33q-151 0 -151 127v213z" />
<glyph unicode="&#xa2;" horiz-adv-x="1062" d="M102 625q0 219 95.5 352.5t267.5 179.5v246h274v-234q142 -15 232 -67v-322l-242 -16v98q0 46 -29 56q-27 6 -61 6q-193 0 -193 -285q0 -281 207 -281q100 0 228 84l120 -217q-109 -81 -262 -116v-232h-274v234q-176 37 -269.5 167t-93.5 347z" />
<glyph unicode="&#xa3;" horiz-adv-x="1196" d="M63 -20v264q171 68 189 245l8 82h-160l27 207h143l9 117q17 230 141.5 340.5t333.5 110.5q208 0 391 -86v-320l-258 -27v105q0 35 -29 45q-23 10 -86 10q-160 0 -172 -190l-6 -105h328l-29 -205h-318q-17 -113 -53 -186q-35 -69 -123 -139l4 -6q115 47 211 47 q54 0 156 -21q97 -20 150 -20q85 0 161 28l-34 -280q-59 -16 -148 -16q-97 0 -268 36q-173 37 -266 37q-162 0 -302 -73z" />
<glyph unicode="&#xa5;" horiz-adv-x="1173" d="M27 1118v201h571v-195l-47 -4q-54 -9 -31 -63l105 -236h6l137 291l-82 8v199h461v-195l-41 -4q-47 -6 -82 -71l-178 -334h203v-258h-281v-248l141 -8v-201h-637v193l88 8q34 5 46 17.5t12 47.5v191h-277v258h191l-217 393z" />
<glyph unicode="&#xa6;" horiz-adv-x="679" d="M195 -180v762h290v-762h-290zM195 821v709h290v-709h-290z" />
<glyph unicode="&#xa7;" horiz-adv-x="1191" d="M98 477q0 181 185 307q-82 76 -82 201q0 150 112 262q113 113 346 113q85 0 203 -23q116 -22 170 -53v-295l-241 -18v98q0 32 -23 45q-23 10 -76 10q-61 0 -94 -29t-33 -79q0 -51 48 -92t135 -82q38 -17 64.5 -29t64 -33.5t63 -41.5t54 -49.5t45.5 -61.5t28.5 -73.5 t11.5 -88.5q0 -173 -194 -311q94 -94 94 -215q0 -144 -111 -252q-112 -109 -350 -109q-95 0 -203 21q-116 22 -170 53v297l242 16v-92q0 -42 27 -51q21 -8 71 -8q62 0 95.5 30.5t33.5 85.5q0 47 -48 87.5t-134 80.5q-54 25 -91.5 44.5t-88 55t-81 72.5t-52.5 91t-21 116z M381 559q0 -52 47 -96q40 -35 150 -98q100 -55 151 -93q49 49 49 97q0 51 -57 102q-53 48 -172 115l-121 69q-47 -47 -47 -96z" />
<glyph unicode="&#xa8;" d="M119 1341q0 73 48.5 119.5t129.5 46.5q79 0 128.5 -46.5t49.5 -119.5q0 -74 -49.5 -120.5t-128.5 -46.5q-81 0 -129.5 46.5t-48.5 120.5zM565 1341q0 73 49.5 119.5t130.5 46.5q77 0 128 -48t51 -118q0 -73 -50.5 -120t-130.5 -47q-81 0 -129.5 46.5t-48.5 120.5z" />
<glyph unicode="&#xa9;" horiz-adv-x="1669" d="M102 668q0 311 203 514q202 202 520 202q324 0 533 -200t209 -504q0 -315 -209 -518t-533 -203q-331 0 -528 197q-195 201 -195 512zM276 668q0 -249 154 -406q156 -156 397 -156q251 0 408 154q160 157 160 408t-162 409q-160 160 -406 160q-250 0 -401 -160 q-150 -156 -150 -409zM457 668q0 202 106 318t285 116q100 0 184.5 -48.5t128.5 -119.5l-147 -117q-87 96 -172 96q-75 0 -118.5 -64.5t-43.5 -174.5q0 -114 47 -179t123 -65q57 0 98.5 19.5t95.5 66.5l107 -135q-123 -135 -303 -135q-87 0 -156.5 26.5t-112.5 69 t-71.5 99.5t-39.5 113t-11 114z" />
<glyph unicode="&#xaa;" horiz-adv-x="903" d="M90 860q0 181 104 286t289 105q135 0 281 -51v-477q0 -25 7 -33.5t30 -9.5l35 -2v-137h-277v80h-10q-69 -97 -182 -97q-140 0 -208.5 90.5t-68.5 245.5zM338 879q0 -183 98 -183q36 0 58 19t22 49v307q-19 8 -61 8q-117 0 -117 -200z" />
<glyph unicode="&#xab;" horiz-adv-x="1202" d="M80 543q0 61 67 116l351 295l125 -116l-222 -299l222 -299l-127 -117l-363 319q-53 47 -53 101zM565 543q0 60 68 116l350 295l125 -116l-221 -299l221 -299l-127 -117l-363 319q-53 47 -53 101z" />
<glyph unicode="&#xac;" horiz-adv-x="1095" d="M106 594v270h879v-577h-262v307h-617z" />
<glyph unicode="&#xad;" horiz-adv-x="659" d="M70 457v252h520v-252h-520z" />
<glyph unicode="&#xae;" horiz-adv-x="948" d="M68 991q0 171 112 283t289 112q180 0 295 -112q117 -111 117 -279q0 -172 -117 -286q-113 -113 -295 -113t-293 111q-108 111 -108 284zM176 991q0 -134 81.5 -217.5t211.5 -83.5q134 0 218.5 83.5t84.5 217.5q0 130 -86 213q-86 86 -217 86q-130 0 -211.5 -84 t-81.5 -215zM332 780v432h157q142 0 142 -116q0 -84 -72 -119q12 -4 27 -31l76 -166h-107l-63 144q-12 28 -33 28h-33v-172h-94zM426 1026h27q73 0 73 61q0 29 -17.5 39.5t-57.5 10.5h-25v-111z" />
<glyph unicode="&#xaf;" d="M184 1243v230h652v-230h-652z" />
<glyph unicode="&#xb0;" horiz-adv-x="610" d="M55 1229q0 111 71 184.5t179 73.5q113 0 181.5 -70.5t68.5 -175.5q0 -118 -70.5 -193t-185.5 -75q-110 0 -177 72.5t-67 183.5zM207 1229q0 -52 26 -84.5t72 -32.5q44 0 71 33.5t27 83.5q0 54 -25.5 84t-72.5 30q-98 0 -98 -114z" />
<glyph unicode="&#xb1;" horiz-adv-x="1095" d="M133 33v272h273v203h-273v276h273v297h282v-297h275v-276h-275v-203h275v-272h-830z" />
<glyph unicode="&#xb2;" horiz-adv-x="735" d="M55 1217v217q153 75 310 75q140 0 212 -58t72 -163q0 -72 -29 -130.5t-96 -125.5l-133 -141h281v-193h-594v146l248 278q69 75 69 135q0 74 -78 74q-31 0 -55 -6q-26 -9 -26 -49v-70z" />
<glyph unicode="&#xb3;" horiz-adv-x="698" d="M45 758l59 166q109 -56 193 -56q104 0 104 80t-135 80h-63l14 146h109q61 40 61 98q0 65 -74 65q-32 0 -51 -8q-22 -6 -22 -35v-57l-170 12v203q139 59 276 59q123 0 197.5 -56.5t74.5 -145.5q0 -110 -118 -185q129 -50 129 -184q0 -109 -81 -180.5t-224 -71.5 q-157 0 -279 70z" />
<glyph unicode="&#xb4;" d="M287 1237l254 422l102 -41q90 -38 90 -109q0 -67 -78 -127l-272 -227z" />
<glyph unicode="&#xb5;" horiz-adv-x="1185" d="M129 -442v1489h313v-650q0 -192 144 -192q68 0 109.5 61.5t41.5 165.5v615h318v-785q0 -65 51 -65q22 0 59 12l29 -184q-95 -50 -205 -50q-146 0 -184 146q-56 -154 -203 -154q-108 0 -174 84v-493h-299z" />
<glyph unicode="&#xb6;" horiz-adv-x="1226" d="M82 887q0 235 139 355t381 120h559v-195l-63 -6q-30 -2 -39.5 -13t-9.5 -46v-912q0 -149 -20.5 -238.5t-78.5 -166.5q-59 -79 -170 -128.5t-293 -82.5l-67 285q178 38 237 100q64 64 64 195v968h-139v-690q-216 0 -359 113q-141 114 -141 342z" />
<glyph unicode="&#xb7;" horiz-adv-x="645" d="M154 629q0 73 44 117.5t121 44.5q83 0 128 -42.5t45 -117.5q0 -73 -44.5 -118.5t-121.5 -45.5q-84 0 -128 43t-44 119z" />
<glyph unicode="&#xb8;" d="M268 -432l41 139q77 -26 137 -26q103 0 103 57q0 42 -60 53q-43 6 -129 6l74 209h141l-32 -98q93 -5 146.5 -48t53.5 -120q0 -60 -25.5 -103.5t-68 -65t-86.5 -31t-92 -9.5q-128 0 -203 37z" />
<glyph unicode="&#xb9;" horiz-adv-x="724" d="M61 1341l273 156h184v-612l133 -11v-176h-514v176l99 9q47 9 47 51v321l-148 -61z" />
<glyph unicode="&#xba;" horiz-adv-x="866" d="M86 881q0 136 57 219q103 151 297 151q44 0 84.5 -6.5t89.5 -28.5t84.5 -58t59.5 -101t24 -152q0 -178 -102 -280q-101 -101 -256 -101q-160 0 -249 92.5t-89 264.5zM340 911q0 -109 20 -160t72 -51q50 0 72 43.5t22 141.5q0 106 -20.5 150t-73.5 44q-92 0 -92 -168z" />
<glyph unicode="&#xbb;" horiz-adv-x="1204" d="M84 838l129 116l360 -319q54 -48 54 -100q0 -57 -66 -117l-350 -295l-125 117l221 299zM569 838l129 116l361 -319q53 -47 53 -100q0 -58 -65 -117l-351 -295l-125 117l222 299z" />
<glyph unicode="&#xbc;" horiz-adv-x="1748" d="M23 1178l272 155h184v-612l133 -10v-176h-514v176l99 8q47 9 47 51v322l-148 -62zM467 10l651 1387l213 -88l-653 -1391zM1053 166v127l247 534l191 -88l-203 -409h101l81 202h136v-202h108v-168h-108v-162h-230v166h-323z" />
<glyph unicode="&#xbd;" horiz-adv-x="1748" d="M33 1178l272 155h184v-612l134 -10v-176h-514v176l98 8q47 9 47 51v322l-148 -62zM442 10l652 1387l213 -88l-654 -1391zM1090 518v217q155 76 309 76q140 0 212 -58t72 -163q0 -73 -28.5 -131t-95.5 -125l-134 -141h281v-193h-594v145l248 279q70 76 70 135q0 74 -78 74 q-32 0 -56 -6q-26 -9 -26 -49v-70z" />
<glyph unicode="&#xbe;" horiz-adv-x="1748" d="M53 594l60 166q107 -55 192 -55q105 0 105 79q0 80 -136 80h-63l14 146h109q61 40 61 98q0 66 -73 66q-31 0 -52 -9q-22 -6 -22 -35v-57l-170 12v203q142 60 276 60q123 0 198 -57t75 -146q0 -108 -119 -184q129 -49 129 -185q0 -109 -81 -180.5t-224 -71.5 q-157 0 -279 70zM453 10l651 1387l213 -88l-653 -1391zM1049 166v127l247 534l191 -88l-203 -409h100l82 202h136v-202h108v-168h-108v-162h-230v166h-323z" />
<glyph unicode="&#xbf;" horiz-adv-x="919" d="M66 -25q0 116 48 201t156 158q16 12 36 26t30.5 21.5t15.5 11.5q18 15 43 43q24 27 29.5 52t5.5 83v91h248l16 -142q11 -80 -4.5 -136.5t-53 -98t-112.5 -92.5q-80 -54 -108.5 -89.5t-28.5 -89.5q0 -104 109 -104q55 0 82 8q26 6 26 47v113l258 -17v-321 q-186 -86 -403 -86q-203 0 -299 96q-94 94 -94 225zM375 907q0 69 47 116.5t123 47.5q80 0 127 -46.5t47 -117.5q0 -67 -48 -113t-122 -46q-80 0 -127 44.5t-47 114.5z" />
<glyph unicode="&#xc0;" horiz-adv-x="1409" d="M16 0v195l54 6q28 4 41.5 16.5t25.5 42.5l293 891l-108 10v201h567l403 -1151l101 -10v-201h-580v195l64 6q44 9 30 59l-28 88h-383l-47 -141l102 -6v-201h-535zM356 1712q0 58 66 109l76 57l356 -342l-76 -102l-323 153q-99 43 -99 125zM539 569h297l-142 480h-10z" />
<glyph unicode="&#xc1;" horiz-adv-x="1409" d="M16 0v195l54 6q28 4 41.5 16.5t25.5 42.5l293 891l-108 10v201h567l403 -1151l101 -10v-201h-580v195l64 6q44 9 30 59l-28 88h-383l-47 -141l102 -6v-201h-535zM479 1538l357 344l88 -72q55 -49 55 -98q0 -76 -102 -123l-322 -153zM539 569h297l-142 480h-10z" />
<glyph unicode="&#xc2;" horiz-adv-x="1409" d="M16 0v195l54 6q28 4 41.5 16.5t25.5 42.5l293 891l-108 10v201h567l403 -1151l101 -10v-201h-580v195l64 6q44 9 30 59l-28 88h-383l-47 -141l102 -6v-201h-535zM303 1528l207 231q72 78 135 78q69 0 146 -86l200 -223l-102 -96l-244 176l-237 -176zM539 569h297 l-142 480h-10z" />
<glyph unicode="&#xc3;" horiz-adv-x="1409" d="M16 0v195l54 6q28 4 41.5 16.5t25.5 42.5l293 891l-108 10v201h567l403 -1151l101 -10v-201h-580v195l64 6q44 9 30 59l-28 88h-383l-47 -141l102 -6v-201h-535zM293 1548q82 205 219 205q44 0 145 -29q98 -28 129 -28q60 0 86 57l125 -67q-71 -195 -217 -195 q-46 0 -137 27q-95 28 -127 28q-57 0 -104 -59zM539 569h297l-142 480h-10z" />
<glyph unicode="&#xc4;" horiz-adv-x="1409" d="M16 0v195l54 6q28 4 41.5 16.5t25.5 42.5l293 891l-108 10v201h567l403 -1151l101 -10v-201h-580v195l64 6q44 9 30 59l-28 88h-383l-47 -141l102 -6v-201h-535zM242 1624q0 71 50 118.5t130 47.5q77 0 127.5 -48t50.5 -118q0 -74 -50.5 -121t-129.5 -47t-128.5 47 t-49.5 121zM539 569h297l-142 480h-10zM694 1624q0 71 50 118.5t130 47.5q77 0 128 -48t51 -118q0 -74 -51 -121t-130 -47q-81 0 -129.5 47t-48.5 121z" />
<glyph unicode="&#xc5;" horiz-adv-x="1409" d="M16 0v195l54 6q28 4 41.5 16.5t25.5 42.5l293 891l-108 10v201h567l403 -1151l101 -10v-201h-580v195l64 6q44 9 30 59l-28 88h-383l-47 -141l102 -6v-201h-535zM420 1630q0 100 68 167t171 67q110 0 175 -62.5t65 -161.5q0 -105 -68 -172t-176 -67q-111 0 -173 62.5 t-62 166.5zM539 569h297l-142 480h-10zM580 1630q0 -88 79 -88q80 0 80 88q0 92 -80 92q-79 0 -79 -92z" />
<glyph unicode="&#xc6;" horiz-adv-x="1759" d="M2 0v195l57 6q49 9 58 43l301 907l-107 10v201h1354v-354l-258 -17v86q0 30 -11 41.5t-40 11.5h-355l109 -309h473v-246h-432l115 -344h114q31 0 41.5 12t10.5 44v102l258 -18v-371h-887v195l53 6q50 3 35 49l-33 98h-375l-47 -141l103 -6v-201h-537zM526 569h297 l-145 482h-6z" />
<glyph unicode="&#xc7;" horiz-adv-x="1257" d="M70 670q0 192 55 337t154 226q190 156 450 156q249 0 426 -86v-361l-258 -16v121q0 45 -29 55q-52 14 -118 14q-320 0 -320 -424q0 -210 81.5 -327t246.5 -117q72 0 110 12q35 9 35 55v134l258 -17v-375q-141 -75 -387 -84l-20 -65q93 -5 146.5 -48t53.5 -120 q0 -60 -25.5 -103.5t-68 -65t-86.5 -31t-92 -9.5q-128 0 -203 37l41 139q77 -26 137 -26q103 0 103 57q0 42 -60 53q-43 6 -129 6l64 183q-276 26 -420.5 201t-144.5 489z" />
<glyph unicode="&#xc8;" horiz-adv-x="1161" d="M61 0v195l64 8q30 4 38.5 16t8.5 49v885l-109 8v201h1004v-354l-258 -17v84q0 55 -51 55h-234v-309h461v-246h-461v-344h258q52 0 52 56v102l258 -18v-371h-1031zM317 1712q0 58 66 109l76 57l356 -342l-76 -102l-323 153q-99 43 -99 125z" />
<glyph unicode="&#xc9;" horiz-adv-x="1161" d="M61 0v195l64 8q30 4 38.5 16t8.5 49v885l-109 8v201h1004v-354l-258 -17v84q0 55 -51 55h-234v-309h461v-246h-461v-344h258q52 0 52 56v102l258 -18v-371h-1031zM399 1538l357 344l88 -72q55 -49 55 -98q0 -76 -102 -123l-322 -153z" />
<glyph unicode="&#xca;" horiz-adv-x="1161" d="M61 0v195l64 8q30 4 38.5 16t8.5 49v885l-109 8v201h1004v-354l-258 -17v84q0 55 -51 55h-234v-309h461v-246h-461v-344h258q52 0 52 56v102l258 -18v-371h-1031zM260 1528l207 231q72 78 135 78q69 0 146 -86l200 -223l-102 -96l-244 176l-237 -176z" />
<glyph unicode="&#xcb;" horiz-adv-x="1161" d="M61 0v195l64 8q30 4 38.5 16t8.5 49v885l-109 8v201h1004v-354l-258 -17v84q0 55 -51 55h-234v-309h461v-246h-461v-344h258q52 0 52 56v102l258 -18v-371h-1031zM178 1624q0 71 50 118.5t130 47.5q77 0 128 -48t51 -118q0 -74 -51 -121t-130 -47t-128.5 47t-49.5 121z M631 1624q0 71 50 118.5t130 47.5q77 0 127.5 -48t50.5 -118q0 -74 -50.5 -121t-129.5 -47q-81 0 -129.5 47t-48.5 121z" />
<glyph unicode="&#xcc;" horiz-adv-x="698" d="M57 0v197l66 6q31 5 40 16.5t9 48.5v887l-111 8v199h580v-195l-66 -6q-31 -5 -40 -15.5t-9 -45.5v-891l111 -8v-201h-580zM74 1712q0 59 65 109l76 57l356 -342l-75 -102l-324 153q-98 43 -98 125z" />
<glyph unicode="&#xcd;" horiz-adv-x="698" d="M57 0v197l66 6q31 5 40 16.5t9 48.5v887l-111 8v199h580v-195l-66 -6q-31 -5 -40 -15.5t-9 -45.5v-891l111 -8v-201h-580zM139 1538l357 344l88 -72q55 -49 55 -98q0 -76 -102 -123l-322 -153z" />
<glyph unicode="&#xce;" horiz-adv-x="698" d="M10 1528l207 231q72 78 135 78q69 0 146 -86l200 -223l-102 -96l-244 176l-237 -176zM57 0v197l66 6q31 5 40 16.5t9 48.5v887l-111 8v199h580v-195l-66 -6q-31 -5 -40 -15.5t-9 -45.5v-891l111 -8v-201h-580z" />
<glyph unicode="&#xcf;" horiz-adv-x="698" d="M-55 1624q0 71 50 118.5t130 47.5q77 0 127.5 -48t50.5 -118q0 -74 -50.5 -121t-129.5 -47t-128.5 47t-49.5 121zM57 0v197l66 6q31 5 40 16.5t9 48.5v887l-111 8v199h580v-195l-66 -6q-31 -5 -40 -15.5t-9 -45.5v-891l111 -8v-201h-580zM397 1624q0 70 50.5 118 t130.5 48q77 0 127.5 -48t50.5 -118q0 -74 -51 -121t-130 -47q-81 0 -129.5 47t-48.5 121z" />
<glyph unicode="&#xd0;" horiz-adv-x="1421" d="M59 575v218h113v360l-109 8v201h586q320 0 494 -161t174 -474q0 -188 -53.5 -333t-149.5 -232q-186 -162 -457 -162h-596v195l62 6q30 5 39.5 15.5t9.5 39.5v319h-113zM524 248h115q163 0 243.5 107.5t80.5 338.5q0 247 -86 336q-87 90 -238 90h-115v-327h264v-218h-264 v-327z" />
<glyph unicode="&#xd1;" horiz-adv-x="1472" d="M57 0v195l68 6q29 5 38 16t9 43v895l-109 8v199h439l479 -811h4v604l-117 8v199h559v-195l-67 -6q-29 -4 -38 -16t-9 -45v-1100h-312l-495 821h-6v-614l116 -8v-199h-559zM387 1548q82 205 219 205q44 0 146 -29q98 -28 129 -28q60 0 86 57l125 -67q-71 -195 -218 -195 q-46 0 -137 27q-95 28 -127 28q-57 0 -104 -59z" />
<glyph unicode="&#xd2;" horiz-adv-x="1376" d="M70 678q0 186 54 329t150 224q186 158 435 158q264 0 430 -175q168 -171 168 -536q0 -341 -165.5 -523t-461.5 -182q-295 0 -452.5 180.5t-157.5 524.5zM430 692q0 -426 266 -426q250 0 250 406q0 151 -47 272q-25 69 -80 108.5t-131 39.5q-138 0 -199 -113 q-59 -115 -59 -287zM444 1712q0 58 66 109l76 57l356 -342l-76 -102l-323 153q-99 43 -99 125z" />
<glyph unicode="&#xd3;" horiz-adv-x="1376" d="M70 678q0 186 54 329t150 224q186 158 435 158q264 0 430 -175q168 -171 168 -536q0 -341 -165.5 -523t-461.5 -182q-295 0 -452.5 180.5t-157.5 524.5zM430 692q0 -426 266 -426q250 0 250 406q0 151 -47 272q-25 69 -80 108.5t-131 39.5q-138 0 -199 -113 q-59 -115 -59 -287zM461 1538l356 344l88 -72q56 -50 56 -98q0 -76 -103 -123l-321 -153z" />
<glyph unicode="&#xd4;" horiz-adv-x="1376" d="M70 678q0 186 54 329t150 224q186 158 435 158q264 0 430 -175q168 -171 168 -536q0 -341 -165.5 -523t-461.5 -182q-295 0 -452.5 180.5t-157.5 524.5zM352 1528l207 231q72 78 135 78q69 0 146 -86l200 -223l-102 -96l-244 176l-237 -176zM430 692q0 -426 266 -426 q250 0 250 406q0 151 -47 272q-25 69 -80 108.5t-131 39.5q-138 0 -199 -113q-59 -115 -59 -287z" />
<glyph unicode="&#xd5;" horiz-adv-x="1376" d="M70 678q0 186 54 329t150 224q186 158 435 158q264 0 430 -175q168 -171 168 -536q0 -341 -165.5 -523t-461.5 -182q-295 0 -452.5 180.5t-157.5 524.5zM340 1548q82 205 219 205q45 0 146 -29q98 -28 129 -28q60 0 86 57l124 -67q-71 -195 -217 -195q-45 0 -137 27 q-95 28 -127 28q-57 0 -104 -59zM430 692q0 -426 266 -426q250 0 250 406q0 151 -47 272q-25 69 -80 108.5t-131 39.5q-138 0 -199 -113q-59 -115 -59 -287z" />
<glyph unicode="&#xd6;" horiz-adv-x="1376" d="M70 678q0 186 54 329t150 224q186 158 435 158q264 0 430 -175q168 -171 168 -536q0 -341 -165.5 -523t-461.5 -182q-295 0 -452.5 180.5t-157.5 524.5zM297 1624q0 71 50 118.5t130 47.5q77 0 127.5 -48t50.5 -118q0 -74 -50.5 -121t-129.5 -47t-128.5 47t-49.5 121z M430 692q0 -426 266 -426q250 0 250 406q0 151 -47 272q-25 69 -80 108.5t-131 39.5q-138 0 -199 -113q-59 -115 -59 -287zM750 1624q0 71 50 118.5t130 47.5q77 0 127.5 -48t50.5 -118q0 -74 -50.5 -121t-129.5 -47q-81 0 -129.5 47t-48.5 121z" />
<glyph unicode="&#xd7;" horiz-adv-x="1095" d="M141 424l211 209l-211 215l197 196l213 -210l207 206l194 -194l-207 -209l209 -207l-198 -201l-209 209l-211 -211z" />
<glyph unicode="&#xd8;" horiz-adv-x="1376" d="M70 678q0 186 54 329t150 224q186 158 435 158q58 0 151 -17l84 166l277 -133l-88 -182q174 -186 174 -545q0 -341 -165.5 -523t-461.5 -182q-66 0 -160 17l-102 -191l-273 140l105 192q-180 180 -180 547zM430 692q0 -426 266 -426q250 0 250 406q0 151 -47 272 q-25 69 -80 108.5t-131 39.5q-138 0 -199 -113q-59 -115 -59 -287z" />
<glyph unicode="&#xd9;" horiz-adv-x="1400" d="M47 1161v201h578v-197l-68 -6q-30 -5 -39.5 -16t-9.5 -43v-664q0 -113 53.5 -162t161.5 -49q199 0 199 203v727l-97 8v199h531v-195l-62 -6q-32 -5 -41.5 -16t-9.5 -45v-680q0 -205 -151 -326t-392 -121q-274 0 -409 116.5t-135 359.5v704zM455 1712q0 59 65 109l76 57 l356 -342l-75 -102l-324 153q-98 43 -98 125z" />
<glyph unicode="&#xda;" horiz-adv-x="1400" d="M47 1161v201h578v-197l-68 -6q-30 -5 -39.5 -16t-9.5 -43v-664q0 -113 53.5 -162t161.5 -49q199 0 199 203v727l-97 8v199h531v-195l-62 -6q-32 -5 -41.5 -16t-9.5 -45v-680q0 -205 -151 -326t-392 -121q-274 0 -409 116.5t-135 359.5v704zM483 1538l357 344l88 -72 q55 -49 55 -98q0 -76 -102 -123l-322 -153z" />
<glyph unicode="&#xdb;" horiz-adv-x="1400" d="M47 1161v201h578v-197l-68 -6q-30 -5 -39.5 -16t-9.5 -43v-664q0 -113 53.5 -162t161.5 -49q199 0 199 203v727l-97 8v199h531v-195l-62 -6q-32 -5 -41.5 -16t-9.5 -45v-680q0 -205 -151 -326t-392 -121q-274 0 -409 116.5t-135 359.5v704zM371 1528l207 231 q72 78 135 78q68 0 145 -86l201 -223l-103 -96l-243 176l-238 -176z" />
<glyph unicode="&#xdc;" horiz-adv-x="1400" d="M47 1161v201h578v-197l-68 -6q-30 -5 -39.5 -16t-9.5 -43v-664q0 -113 53.5 -162t161.5 -49q199 0 199 203v727l-97 8v199h531v-195l-62 -6q-32 -5 -41.5 -16t-9.5 -45v-680q0 -205 -151 -326t-392 -121q-274 0 -409 116.5t-135 359.5v704zM301 1624q0 71 50 118.5 t130 47.5q77 0 127.5 -48t50.5 -118q0 -74 -50.5 -121t-129.5 -47t-128.5 47t-49.5 121zM754 1624q0 71 50 118.5t130 47.5q77 0 127.5 -48t50.5 -118q0 -74 -50.5 -121t-129.5 -47q-81 0 -129.5 47t-48.5 121z" />
<glyph unicode="&#xdd;" horiz-adv-x="1228" d="M0 1161v201h590v-195l-51 -4q-58 -9 -31 -65l149 -310h7l186 367l-90 8v199h469v-195l-41 -4q-48 -6 -78 -61l-313 -584v-309l139 -8v-201h-637v193l88 8q34 5 45.5 17t11.5 48v242l-358 643zM455 1538l356 344l88 -72q55 -49 55 -98q0 -76 -102 -123l-322 -153z" />
<glyph unicode="&#xde;" horiz-adv-x="1216" d="M53 0v197l68 6q31 5 40 17t9 50v885l-111 8v199h652v-195l-140 -6q-30 -5 -38.5 -13.5t-8.5 -37.5v-27h135q106 0 170 -6t132 -28q107 -29 163 -108t62 -224q-1 -106 -43.5 -187t-115.5 -129.5t-166 -72t-202 -21.5h-135v-98l183 -8v-201h-654zM524 543h78 q117 0 169 32.5t52 116.5q0 90 -49.5 121t-165.5 31h-84v-301z" />
<glyph unicode="&#xdf;" horiz-adv-x="1306" d="M37 0v184l69 6q29 5 38.5 17.5t9.5 48.5v817q0 434 538 434q240 0 368 -86t128 -235q0 -61 -26 -117t-63 -96.5t-74 -77.5t-63 -73.5t-26 -69.5q0 -75 166 -162q69 -35 118.5 -108.5t49.5 -164.5q0 -164 -101 -254t-280 -90q-186 0 -307 68l57 233q116 -45 190 -45 q101 0 101 80q0 27 -17 49t-44.5 39.5t-61 35.5t-67 40.5t-61 50.5t-44.5 71.5t-17 96.5q0 70 36.5 140t86.5 118q125 117 125 195q0 112 -180 112q-190 0 -190 -176v-1081h-459z" />
<glyph unicode="&#xe0;" horiz-adv-x="1155" d="M53 477q0 282 146 440t419 158q193 0 396 -78v-747q0 -33 9.5 -46t37.5 -14l53 -4v-186h-369l-14 96l-6 2q-79 -125 -262 -125q-219 0 -313 138q-97 142 -97 366zM332 1503q0 83 110 123l82 33l256 -422l-98 -82l-279 229q-71 53 -71 119zM395 502q0 -285 152 -285 q59 0 94 34.5t35 86.5v477q-43 16 -94 16q-187 0 -187 -329z" />
<glyph unicode="&#xe1;" horiz-adv-x="1155" d="M53 477q0 282 146 440t419 158q193 0 396 -78v-747q0 -33 9.5 -46t37.5 -14l53 -4v-186h-369l-14 96l-6 2q-79 -125 -262 -125q-219 0 -313 138q-97 142 -97 366zM395 502q0 -285 152 -285q59 0 94 34.5t35 86.5v477q-43 16 -94 16q-187 0 -187 -329zM410 1237l254 422 l102 -41q90 -38 90 -109q0 -67 -78 -127l-272 -227z" />
<glyph unicode="&#xe2;" horiz-adv-x="1155" d="M53 477q0 282 146 440t419 158q193 0 396 -78v-747q0 -33 9.5 -46t37.5 -14l53 -4v-186h-369l-14 96l-6 2q-79 -125 -262 -125q-219 0 -313 138q-97 142 -97 366zM229 1241l215 289q39 52 71.5 73t74.5 21q44 0 72.5 -17.5t66.5 -68.5l225 -295l-108 -90l-256 217 l-252 -215zM395 502q0 -285 152 -285q59 0 94 34.5t35 86.5v477q-43 16 -94 16q-187 0 -187 -329z" />
<glyph unicode="&#xe3;" horiz-adv-x="1155" d="M53 477q0 282 146 440t419 158q193 0 396 -78v-747q0 -33 9.5 -46t37.5 -14l53 -4v-186h-369l-14 96l-6 2q-79 -125 -262 -125q-219 0 -313 138q-97 142 -97 366zM260 1284q82 205 219 205q45 0 146 -29q98 -28 129 -28q60 0 86 57l125 -70q-67 -192 -217 -192 q-50 0 -138 26q-98 29 -127 29q-57 0 -104 -59zM395 502q0 -285 152 -285q59 0 94 34.5t35 86.5v477q-43 16 -94 16q-187 0 -187 -329z" />
<glyph unicode="&#xe4;" horiz-adv-x="1155" d="M53 477q0 282 146 440t419 158q193 0 396 -78v-747q0 -33 9.5 -46t37.5 -14l53 -4v-186h-369l-14 96l-6 2q-79 -125 -262 -125q-219 0 -313 138q-97 142 -97 366zM209 1341q0 73 48.5 119.5t129.5 46.5q79 0 128.5 -46.5t49.5 -119.5q0 -74 -49.5 -120.5t-128.5 -46.5 q-81 0 -129.5 46.5t-48.5 120.5zM395 502q0 -285 152 -285q59 0 94 34.5t35 86.5v477q-43 16 -94 16q-187 0 -187 -329zM655 1341q0 73 50 119.5t131 46.5q77 0 127.5 -48t50.5 -118q0 -74 -50.5 -120.5t-129.5 -46.5q-81 0 -130 46.5t-49 120.5z" />
<glyph unicode="&#xe5;" horiz-adv-x="1155" d="M53 477q0 282 146 440t419 158q193 0 396 -78v-747q0 -33 9.5 -46t37.5 -14l53 -4v-186h-369l-14 96l-6 2q-79 -125 -262 -125q-219 0 -313 138q-97 142 -97 366zM358 1401q0 100 68.5 166.5t171.5 66.5q111 0 175.5 -62t64.5 -161q0 -105 -68 -172.5t-176 -67.5 q-111 0 -173.5 63t-62.5 167zM395 502q0 -285 152 -285q59 0 94 34.5t35 86.5v477q-43 16 -94 16q-187 0 -187 -329zM518 1401q0 -88 80 -88t80 88q0 92 -80 92t-80 -92z" />
<glyph unicode="&#xe6;" horiz-adv-x="1574" d="M53 481q0 280 144 437t411 157q148 0 279 -67q116 67 264 67q171 0 268 -80.5t97 -232.5q0 -219 -168 -295q-147 -66 -390 -66q11 -83 65.5 -128.5t145.5 -45.5q127 0 252 82l92 -227q-16 -16 -55 -35q-51 -25 -139 -47q-95 -27 -197 -27q-248 0 -366 127 q-121 -127 -303 -127q-211 0 -306 142q-94 143 -94 366zM395 510q0 -293 156 -293q63 0 106 43q-41 90 -41 236q0 170 78 311q-52 24 -114 24q-93 0 -139 -87t-46 -234zM950 602q275 -12 275 139q0 90 -92 90q-77 0 -127.5 -64t-55.5 -165z" />
<glyph unicode="&#xe7;" horiz-adv-x="997" d="M55 512q0 286 150 424q151 139 377 139q199 0 340 -78v-327l-242 -17v101q0 45 -29 55q-27 6 -61 6q-191 0 -191 -289q0 -286 205 -286q103 0 227 86l121 -222q-150 -114 -348 -129l-22 -67q93 -5 146.5 -48t53.5 -120q0 -60 -25.5 -103.5t-68 -65t-86.5 -31t-92 -9.5 q-128 0 -203 37l41 139q77 -26 137 -26q103 0 103 57q0 42 -60 53q-43 6 -129 6l64 183q-197 23 -302.5 159t-105.5 373z" />
<glyph unicode="&#xe8;" horiz-adv-x="1013" d="M55 500q0 241 142 409q141 166 395 166q170 0 266 -80t96 -233q0 -370 -559 -361q8 -80 60.5 -127t144.5 -47q135 0 260 82l90 -227q-15 -15 -55 -33q-50 -24 -141 -49q-94 -27 -201 -27q-250 0 -374 139t-124 388zM276 1503q0 83 111 123l82 33l256 -422l-98 -82 l-279 229q-72 54 -72 119zM391 602q271 -9 271 141q0 88 -89 88q-78 0 -127.5 -63t-54.5 -166z" />
<glyph unicode="&#xe9;" horiz-adv-x="1013" d="M55 500q0 241 142 409q141 166 395 166q170 0 266 -80t96 -233q0 -370 -559 -361q8 -80 60.5 -127t144.5 -47q135 0 260 82l90 -227q-15 -15 -55 -33q-50 -24 -141 -49q-94 -27 -201 -27q-250 0 -374 139t-124 388zM383 1237l254 422l102 -41q90 -38 90 -109 q0 -68 -77 -127l-273 -227zM391 602q271 -9 271 141q0 88 -89 88q-78 0 -127.5 -63t-54.5 -166z" />
<glyph unicode="&#xea;" horiz-adv-x="1013" d="M55 500q0 241 142 409q141 166 395 166q170 0 266 -80t96 -233q0 -370 -559 -361q8 -80 60.5 -127t144.5 -47q135 0 260 82l90 -227q-15 -15 -55 -33q-50 -24 -141 -49q-94 -27 -201 -27q-250 0 -374 139t-124 388zM199 1241l215 289q70 94 145 94q44 0 72.5 -17.5 t66.5 -68.5l226 -295l-109 -90l-256 217l-252 -215zM391 602q271 -9 271 141q0 88 -89 88q-78 0 -127.5 -63t-54.5 -166z" />
<glyph unicode="&#xeb;" horiz-adv-x="1013" d="M55 500q0 241 142 409q141 166 395 166q170 0 266 -80t96 -233q0 -370 -559 -361q8 -80 60.5 -127t144.5 -47q135 0 260 82l90 -227q-15 -15 -55 -33q-50 -24 -141 -49q-94 -27 -201 -27q-250 0 -374 139t-124 388zM160 1341q0 73 48.5 119.5t129.5 46.5 q79 0 128.5 -46.5t49.5 -119.5q0 -74 -49.5 -120.5t-128.5 -46.5q-81 0 -129.5 46.5t-48.5 120.5zM391 602q271 -9 271 141q0 88 -89 88q-78 0 -127.5 -63t-54.5 -166zM606 1341q0 73 49.5 119.5t130.5 46.5q77 0 128 -48t51 -118q0 -73 -50.5 -120t-130.5 -47 q-81 0 -129.5 46.5t-48.5 120.5z" />
<glyph unicode="&#xec;" horiz-adv-x="634" d="M25 1503q0 83 110 123l82 33l256 -422l-98 -82l-279 229q-71 53 -71 119zM37 0v184l72 6q29 5 38 17.5t9 50.5v528q0 32 -10.5 44.5t-39.5 17.5l-69 6v193h457v-848l108 -9v-190h-565z" />
<glyph unicode="&#xed;" horiz-adv-x="634" d="M37 0v184l72 6q29 5 38 17.5t9 50.5v528q0 32 -10.5 44.5t-39.5 17.5l-69 6v193h457v-848l108 -9v-190h-565zM106 1237l254 422l103 -41q90 -38 90 -109q0 -67 -78 -127l-272 -227z" />
<glyph unicode="&#xee;" horiz-adv-x="634" d="M-74 1241l215 289q39 52 71.5 73t74.5 21q44 0 72.5 -17.5t66.5 -68.5l225 -295l-108 -90l-256 217l-252 -215zM37 0v184l72 6q29 5 38 17.5t9 50.5v528q0 32 -10.5 44.5t-39.5 17.5l-69 6v193h457v-848l108 -9v-190h-565z" />
<glyph unicode="&#xef;" horiz-adv-x="634" d="M-104 1341q0 73 48.5 119.5t129.5 46.5q79 0 128.5 -46.5t49.5 -119.5q0 -74 -49.5 -120.5t-128.5 -46.5q-81 0 -129.5 46.5t-48.5 120.5zM37 0v184l72 6q29 5 38 17.5t9 50.5v528q0 32 -10.5 44.5t-39.5 17.5l-69 6v193h457v-848l108 -9v-190h-565zM342 1341 q0 73 49.5 119.5t130.5 46.5q77 0 127.5 -48t50.5 -118q0 -74 -50.5 -120.5t-129.5 -46.5q-81 0 -129.5 46.5t-48.5 120.5z" />
<glyph unicode="&#xf0;" horiz-adv-x="1062" d="M41 426q0 230 121 360q120 129 301 129q116 0 190 -51q-52 297 -420 353l68 256q206 -24 344 -111l193 133l141 -207l-137 -94q172 -242 172 -623q0 -285 -126 -443.5t-374 -158.5q-235 0 -354 119.5t-119 337.5zM393 430q0 -197 127 -197q74 0 108 71.5t34 221.5 q0 66 -3 90q-68 39 -129 39q-137 0 -137 -225z" />
<glyph unicode="&#xf1;" horiz-adv-x="1214" d="M35 854v193h430v-134h4q101 162 303 162q309 0 309 -348v-530l101 -9v-188h-518v188l41 5q17 1 24.5 10.5t9.5 29.5v424q0 80 -24 115t-86 35t-98.5 -45.5t-36.5 -116.5v-448l86 -7v-190h-543v184l69 6q29 1 38.5 14t9.5 50v532q0 32 -10.5 44.5t-39.5 17.5zM254 1284 q82 205 219 205q43 0 145 -29q98 -28 130 -28q60 0 86 57l124 -70q-67 -192 -217 -192q-49 0 -137 26q-98 29 -127 29q-57 0 -104 -59z" />
<glyph unicode="&#xf2;" horiz-adv-x="1107" d="M55 516q0 126 32 225.5t83.5 161t120.5 101.5t136.5 55.5t139.5 15.5q71 0 122.5 -8.5t117.5 -38.5q68 -29 123 -84q54 -57 88.5 -161t34.5 -234q0 -285 -135 -430.5t-381 -145.5q-482 0 -482 543zM307 1503q0 83 111 123l82 33l256 -422l-99 -82l-278 229 q-72 54 -72 119zM408 555q0 -171 31.5 -251.5t113.5 -80.5q77 0 111 71.5t34 223.5q0 171 -31 240t-114 69q-77 0 -111 -66.5t-34 -205.5z" />
<glyph unicode="&#xf3;" horiz-adv-x="1107" d="M55 516q0 126 32 225.5t83.5 161t120.5 101.5t136.5 55.5t139.5 15.5q71 0 122.5 -8.5t117.5 -38.5q68 -29 123 -84q54 -57 88.5 -161t34.5 -234q0 -285 -135 -430.5t-381 -145.5q-482 0 -482 543zM383 1237l254 422l102 -41q90 -38 90 -109q0 -68 -77 -127l-273 -227z M408 555q0 -171 31.5 -251.5t113.5 -80.5q77 0 111 71.5t34 223.5q0 171 -31 240t-114 69q-77 0 -111 -66.5t-34 -205.5z" />
<glyph unicode="&#xf4;" horiz-adv-x="1107" d="M55 516q0 126 32 225.5t83.5 161t120.5 101.5t136.5 55.5t139.5 15.5q71 0 122.5 -8.5t117.5 -38.5q68 -29 123 -84q54 -57 88.5 -161t34.5 -234q0 -285 -135 -430.5t-381 -145.5q-482 0 -482 543zM203 1241l215 289q70 94 145 94q44 0 72.5 -17.5t66.5 -68.5l226 -295 l-109 -90l-256 217l-252 -215zM408 555q0 -171 31.5 -251.5t113.5 -80.5q77 0 111 71.5t34 223.5q0 171 -31 240t-114 69q-77 0 -111 -66.5t-34 -205.5z" />
<glyph unicode="&#xf5;" horiz-adv-x="1107" d="M55 516q0 126 32 225.5t83.5 161t120.5 101.5t136.5 55.5t139.5 15.5q71 0 122.5 -8.5t117.5 -38.5q68 -29 123 -84q54 -57 88.5 -161t34.5 -234q0 -285 -135 -430.5t-381 -145.5q-482 0 -482 543zM207 1284q82 205 219 205q44 0 145 -29q98 -28 129 -28q60 0 86 57 l125 -70q-67 -192 -217 -192q-49 0 -137 26q-98 29 -127 29q-57 0 -104 -59zM408 555q0 -171 31.5 -251.5t113.5 -80.5q77 0 111 71.5t34 223.5q0 171 -31 240t-114 69q-77 0 -111 -66.5t-34 -205.5z" />
<glyph unicode="&#xf6;" horiz-adv-x="1107" d="M55 516q0 126 32 225.5t83.5 161t120.5 101.5t136.5 55.5t139.5 15.5q71 0 122.5 -8.5t117.5 -38.5q68 -29 123 -84q54 -57 88.5 -161t34.5 -234q0 -285 -135 -430.5t-381 -145.5q-482 0 -482 543zM160 1341q0 73 48.5 119.5t129.5 46.5q79 0 128.5 -46.5t49.5 -119.5 q0 -74 -49.5 -120.5t-128.5 -46.5q-81 0 -129.5 46.5t-48.5 120.5zM408 555q0 -171 31.5 -251.5t113.5 -80.5q77 0 111 71.5t34 223.5q0 171 -31 240t-114 69q-77 0 -111 -66.5t-34 -205.5zM606 1341q0 73 49.5 119.5t130.5 46.5q77 0 128 -48t51 -118q0 -73 -50.5 -120 t-130.5 -47q-81 0 -129.5 46.5t-48.5 120.5z" />
<glyph unicode="&#xf7;" horiz-adv-x="1095" d="M133 498v272h830v-272h-830zM397 236q0 70 41 116.5t111 46.5q71 0 113.5 -44t42.5 -117q0 -70 -44 -117t-112 -47q-71 0 -111.5 44t-40.5 118zM397 1047q0 67 39 112q40 49 113 49q74 0 113 -45q43 -43 43 -114q0 -72 -43.5 -119t-112.5 -47q-71 0 -111.5 44.5 t-40.5 119.5z" />
<glyph unicode="&#xf8;" horiz-adv-x="1107" d="M55 516q0 126 32 225.5t83.5 161t120.5 101.5t136.5 55.5t139.5 15.5q39 0 92 -6l84 191l248 -109l-84 -188q146 -143 146 -414q0 -285 -135 -430.5t-381 -145.5q-59 0 -99 9l-90 -205l-246 108l91 207q-138 132 -138 424zM408 555q0 -171 31.5 -251.5t113.5 -80.5 q77 0 111 71.5t34 223.5q0 171 -31 240t-114 69q-77 0 -111 -66.5t-34 -205.5z" />
<glyph unicode="&#xf9;" horiz-adv-x="1212" d="M35 852v195h446v-660q0 -80 23.5 -113.5t85.5 -33.5q63 0 101 44.5t38 118.5v383q0 32 -10 45t-39 17l-45 4v195h432v-791q0 -34 9 -46t36 -17l55 -7v-186h-411v131h-6q-90 -158 -299 -158q-160 0 -236 84t-76 262v469q0 51 -49 60zM317 1503q0 83 111 123l82 33 l256 -422l-98 -82l-279 229q-72 54 -72 119z" />
<glyph unicode="&#xfa;" horiz-adv-x="1212" d="M35 852v195h446v-660q0 -80 23.5 -113.5t85.5 -33.5q63 0 101 44.5t38 118.5v383q0 32 -10 45t-39 17l-45 4v195h432v-791q0 -34 9 -46t36 -17l55 -7v-186h-411v131h-6q-90 -158 -299 -158q-160 0 -236 84t-76 262v469q0 51 -49 60zM414 1237l254 422l102 -41 q90 -38 90 -109q0 -67 -78 -127l-272 -227z" />
<glyph unicode="&#xfb;" horiz-adv-x="1212" d="M35 852v195h446v-660q0 -80 23.5 -113.5t85.5 -33.5q63 0 101 44.5t38 118.5v383q0 32 -10 45t-39 17l-45 4v195h432v-791q0 -34 9 -46t36 -17l55 -7v-186h-411v131h-6q-90 -158 -299 -158q-160 0 -236 84t-76 262v469q0 51 -49 60zM227 1241l215 289q70 94 146 94 q44 0 72.5 -17.5t66.5 -68.5l225 -295l-108 -90l-256 217l-252 -215z" />
<glyph unicode="&#xfc;" horiz-adv-x="1212" d="M35 852v195h446v-660q0 -80 23.5 -113.5t85.5 -33.5q63 0 101 44.5t38 118.5v383q0 32 -10 45t-39 17l-45 4v195h432v-791q0 -34 9 -46t36 -17l55 -7v-186h-411v131h-6q-90 -158 -299 -158q-160 0 -236 84t-76 262v469q0 51 -49 60zM176 1341q0 73 48.5 119.5t129.5 46.5 q79 0 128.5 -46.5t49.5 -119.5q0 -74 -49.5 -120.5t-128.5 -46.5q-81 0 -129.5 46.5t-48.5 120.5zM623 1341q0 73 49.5 119.5t130.5 46.5q77 0 127.5 -48t50.5 -118q0 -74 -50.5 -120.5t-129.5 -46.5q-81 0 -129.5 46.5t-48.5 120.5z" />
<glyph unicode="&#xfd;" horiz-adv-x="1175" d="M-2 -375l78 242q87 -43 168 -43q102 0 149 117l27 65l-311 836l-97 12v193h547v-197l-45 -4q-48 -6 -33 -62l123 -422h6l146 480l-76 6v199h483v-193l-45 -4q-31 -4 -44.5 -17t-26.5 -47l-287 -788q-88 -245 -191 -348t-282 -103q-157 0 -289 78zM471 1237l254 422 l102 -41q91 -39 91 -109q0 -67 -78 -127l-273 -227z" />
<glyph unicode="&#xfe;" horiz-adv-x="1142" d="M6 1268v192h445v-530h6q66 112 198 133q43 11 107 8q328 -21 328 -506q0 -282 -113.5 -437t-333.5 -155q-91 0 -178 37v-231l186 -12v-191h-643v184l70 7q29 5 38 17t9 50v1368q0 57 -49 60zM467 248q48 -31 108 -31q173 0 173 301q0 269 -123 299q-34 6 -64 0 q-43 -11 -68.5 -41t-25.5 -71v-457z" />
<glyph unicode="&#xff;" horiz-adv-x="1175" d="M-2 -375l78 242q87 -43 168 -43q102 0 149 117l27 65l-311 836l-97 12v193h547v-197l-45 -4q-48 -6 -33 -62l123 -422h6l146 480l-76 6v199h483v-193l-45 -4q-31 -4 -44.5 -17t-26.5 -47l-287 -788q-88 -245 -191 -348t-282 -103q-157 0 -289 78zM193 1341 q0 73 48.5 119.5t129.5 46.5q79 0 128.5 -46.5t49.5 -119.5q0 -74 -49.5 -120.5t-128.5 -46.5q-81 0 -129.5 46.5t-48.5 120.5zM639 1341q0 73 49.5 119.5t130.5 46.5q77 0 127.5 -48t50.5 -118q0 -74 -50.5 -120.5t-129.5 -46.5q-81 0 -129.5 46.5t-48.5 120.5z" />
<glyph unicode="&#x152;" horiz-adv-x="1873" d="M70 678q0 152 37 274t98 201.5t144 132.5t169.5 75.5t179.5 22.5q96 0 203 -22h879v-354l-258 -17v84q0 55 -52 55h-227v-309h459v-246h-459v-342h260q43 0 43 54v102l258 -18v-371h-905q-124 -31 -235 -31q-288 0 -441 181t-153 528zM430 692q0 -434 272 -434 q121 0 185 43v741q-77 50 -185 50q-94 0 -156.5 -53t-89 -140t-26.5 -207z" />
<glyph unicode="&#x153;" horiz-adv-x="1640" d="M55 516q0 152 46 269t126 178q146 112 324 112q225 0 334 -160q124 160 348 160q162 0 254 -80.5t92 -232.5q0 -195 -140 -278t-417 -83q15 -174 209 -174q126 0 254 84l92 -227q-13 -13 -53 -35q-49 -23 -138 -49q-92 -27 -188 -27q-224 0 -344 138q-126 -138 -340 -138 q-223 0 -341 135.5t-118 407.5zM408 555q0 -171 31.5 -251.5t113.5 -80.5q77 0 111 71.5t34 223.5q0 171 -31 240t-114 69q-77 0 -111 -66.5t-34 -205.5zM1014 602q274 -9 274 143q0 86 -92 86q-77 0 -126.5 -62.5t-55.5 -166.5z" />
<glyph unicode="&#x178;" horiz-adv-x="1228" d="M0 1161v201h590v-195l-51 -4q-58 -9 -31 -65l149 -310h7l186 367l-90 8v199h469v-195l-41 -4q-48 -6 -78 -61l-313 -584v-309l139 -8v-201h-637v193l88 8q34 5 45.5 17t11.5 48v242l-358 643zM231 1624q0 70 50.5 118t130.5 48q77 0 127.5 -48t50.5 -118 q0 -74 -50.5 -121t-129.5 -47t-129 47t-50 121zM684 1624q0 71 50 118.5t130 47.5q77 0 127.5 -48t50.5 -118q0 -74 -50.5 -121t-129.5 -47q-81 0 -129.5 47t-48.5 121z" />
<glyph unicode="&#x2c6;" d="M147 1241l215 289q39 52 71.5 73t74.5 21q44 0 72.5 -17.5t66.5 -68.5l225 -295l-108 -90l-256 217l-252 -215z" />
<glyph unicode="&#x2dc;" d="M162 1284q82 205 219 205q43 0 145 -29q98 -28 129 -28q60 0 86 57l125 -70q-67 -192 -217 -192q-49 0 -137 26q-98 29 -127 29q-57 0 -104 -59z" />
<glyph unicode="&#x2000;" horiz-adv-x="941" />
<glyph unicode="&#x2001;" horiz-adv-x="1882" />
<glyph unicode="&#x2002;" horiz-adv-x="941" />
<glyph unicode="&#x2003;" horiz-adv-x="1882" />
<glyph unicode="&#x2004;" horiz-adv-x="627" />
<glyph unicode="&#x2005;" horiz-adv-x="470" />
<glyph unicode="&#x2006;" horiz-adv-x="313" />
<glyph unicode="&#x2007;" horiz-adv-x="313" />
<glyph unicode="&#x2008;" horiz-adv-x="235" />
<glyph unicode="&#x2009;" horiz-adv-x="376" />
<glyph unicode="&#x200a;" horiz-adv-x="104" />
<glyph unicode="&#x2010;" horiz-adv-x="657" d="M59 455v252h537v-252h-537z" />
<glyph unicode="&#x2011;" horiz-adv-x="657" d="M59 455v252h537v-252h-537z" />
<glyph unicode="&#x2012;" horiz-adv-x="657" d="M59 455v252h537v-252h-537z" />
<glyph unicode="&#x2013;" d="M0 457v217h1024v-217h-1024z" />
<glyph unicode="&#x2014;" horiz-adv-x="2048" d="M0 457v217h2048v-217h-2048z" />
<glyph unicode="&#x2018;" horiz-adv-x="555" d="M175 1030.5q-54 88.5 20 229.5l133 264l180 -58l-74 -227q-10 -37 2.5 -51t55.5 -14h55l-49 -222q-72 -10 -109 -10q-160 0 -214 88.5z" />
<glyph unicode="&#x2019;" horiz-adv-x="555" d="M86 1251l49 222q68 10 125 10q146 0 199 -92t-19 -226l-135 -264l-180 57l74 228q10 37 -2.5 51t-55.5 14h-55z" />
<glyph unicode="&#x201a;" horiz-adv-x="548" d="M82 -6l49 221q72 10 105 10q163 1 217.5 -88.5t-19.5 -230.5l-133 -262l-180 57l74 227q11 36 -2.5 51t-55.5 15h-55z" />
<glyph unicode="&#x201c;" horiz-adv-x="997" d="M175 1030.5q-54 88.5 20 229.5l133 264l180 -58l-74 -227q-10 -37 2.5 -51t55.5 -14h55l-49 -222q-72 -10 -109 -10q-160 0 -214 88.5zM617 1030.5q-54 88.5 20 229.5l133 264l180 -58l-73 -227q-11 -37 1.5 -51t55.5 -14h55l-49 -222q-72 -10 -109 -10q-160 0 -214 88.5 z" />
<glyph unicode="&#x201d;" horiz-adv-x="997" d="M86 1251l49 222q68 10 125 10q146 0 199 -92t-19 -226l-135 -264l-180 57l74 228q10 37 -2.5 51t-55.5 14h-55zM528 1251l50 222q68 10 124 10q146 0 199 -92q53 -93 -18 -226l-135 -264l-181 57l74 228q11 37 -1.5 51t-55.5 14h-56z" />
<glyph unicode="&#x201e;" horiz-adv-x="1001" d="M82 -6l49 221q72 10 105 10q163 1 217.5 -88.5t-19.5 -230.5l-133 -262l-180 57l74 227q11 36 -2.5 51t-55.5 15h-55zM535 -6l49 221q72 10 104 10q163 1 218 -88.5t-19 -230.5l-133 -262l-181 57l74 227q11 36 -2 51t-55 15h-55z" />
<glyph unicode="&#x2022;" d="M242 641q0 124 76.5 203.5t193.5 79.5q118 0 194 -77.5t76 -201.5q0 -123 -76.5 -203t-193.5 -80q-119 0 -194.5 76.5t-75.5 202.5z" />
<glyph unicode="&#x2026;" horiz-adv-x="1673" d="M141 143q0 75 47.5 121.5t130.5 46.5q90 0 136.5 -43.5t46.5 -122.5q0 -77 -46.5 -124.5t-129.5 -47.5q-89 0 -137 45.5t-48 124.5zM649 143q0 75 47.5 121.5t130.5 46.5q90 0 136.5 -43.5t46.5 -122.5q0 -77 -46.5 -124.5t-129.5 -47.5q-89 0 -137 45.5t-48 124.5z M1151 143q0 75 47.5 121.5t130.5 46.5q89 0 135.5 -43.5t46.5 -122.5q0 -77 -46.5 -124.5t-129.5 -47.5q-89 0 -136.5 45.5t-47.5 124.5z" />
<glyph unicode="&#x202f;" horiz-adv-x="376" />
<glyph unicode="&#x2039;" horiz-adv-x="716" d="M80 543q0 61 67 116l351 295l125 -116l-222 -299l222 -299l-127 -117l-363 319q-53 47 -53 101z" />
<glyph unicode="&#x203a;" horiz-adv-x="718" d="M84 838l129 116l360 -319q54 -48 54 -100q0 -57 -66 -117l-350 -295l-125 117l221 299z" />
<glyph unicode="&#x205f;" horiz-adv-x="470" />
<glyph unicode="&#x20ac;" horiz-adv-x="1144" d="M35 541v260h123q35 275 190 409q157 136 375 136q210 0 364 -86v-340l-258 -17v101q0 44 -26 53q-35 12 -74 12q-201 0 -231 -268h311v-260h-311q15 -293 235 -293q118 0 234 94l137 -209q-171 -160 -404 -160q-238 0 -379 143.5t-165 424.5h-121z" />
<glyph unicode="&#x2122;" horiz-adv-x="1665" d="M49 1143v219h633v-219l-123 -8v41q0 20 -4.5 26t-26.5 6h-57v-403l80 -6v-125h-373v123l45 4q39 3 39 35v372h-67q-23 -3 -23 -32v-41zM709 674v123l34 6q28 0 31 33l23 385l-60 4v137h297l140 -410h2l153 410h283v-133l-41 -4q-26 -3 -23 -35l27 -385l63 -4v-127h-299 v123l35 6q33 3 33 35l-18 284h-3l-143 -389h-143l-146 385l-22 -313l67 -4v-127h-290z" />
<glyph unicode="&#x25fc;" horiz-adv-x="1044" d="M0 0v1044h1044v-1044h-1044z" />
</font>
</defs>
</svg>
