<?xml version="1.0" standalone="no"?>
<!DOCTYPE svg PUBLIC "-//W3C//DTD SVG 1.1//EN" "http://www.w3.org/Graphics/SVG/1.1/DTD/svg11.dtd" >
<svg xmlns="http://www.w3.org/2000/svg" xmlns:xlink="http://www.w3.org/1999/xlink" version="1.1">
<metadata>
Created by FontForge 20160407 at Tue Aug 30 15:32:09 2016
 By Jimmy Warting
Copyright (c) 2008 by TypeTogether. All rights reserved.
</metadata>
<defs>
<font id="Bree-Light" horiz-adv-x="535" >
  <font-face 
    font-family="Bree Lt"
    font-weight="300"
    font-stretch="normal"
    units-per-em="1000"
    panose-1="2 0 5 3 0 0 0 2 0 4"
    ascent="720"
    descent="-280"
    x-height="497"
    cap-height="665"
    bbox="-122 -275 1000 902"
    underline-thickness="50"
    underline-position="-100"
    stemh="64"
    stemv="78"
    unicode-range="U+000D-FB04"
  />
<missing-glyph horiz-adv-x="500" 
 />
    <glyph glyph-name="ff" unicode="ff" horiz-adv-x="600" 
d="M152 435v-645h-78v754c0 81 23 168 175 168c54 0 120 -19 157 -36c24 21 61 36 116 36c40 0 96 -14 122 -29l-21 -56c-27 13 -64 24 -98 24c-65 0 -86 -39 -86 -105v-49h157v-62h-157v-645h-77v645h-210zM152 546v-49h210v47c0 25 2 50 12 76c-35 17 -80 31 -122 31
c-75 0 -100 -34 -100 -105z" />
    <glyph glyph-name="fi" unicode="fi" horiz-adv-x="510" 
d="M152 435v-645h-78v754c0 81 24 168 176 168c62 0 133 -23 170 -40l-22 -56c-47 20 -96 35 -144 35c-75 0 -102 -34 -102 -105v-49h286v-497h-78v435h-208z" />
    <glyph glyph-name="fl" unicode="fl" horiz-adv-x="588" 
d="M484 -14c-117 0 -123 77 -123 143v306h-209v-645h-78v754c0 81 23 168 175 168c67 0 148 -23 189 -38v-534c0 -67 13 -92 63 -92c23 0 47 7 67 17l18 -54c-21 -14 -61 -25 -102 -25zM152 546v-49h209v131c-36 13 -72 23 -109 23c-75 0 -100 -34 -100 -105z" />
    <glyph glyph-name="ffi" unicode="ffi" horiz-adv-x="797" 
d="M439 435v-645h-78v645h-209v-645h-78v754c0 81 23 168 175 168c54 0 121 -20 158 -37c27 22 68 37 130 37s133 -23 170 -40l-22 -56c-47 20 -96 35 -144 35c-75 0 -102 -34 -102 -105v-49h286v-497h-78v435h-208zM152 546v-49h209v43c0 25 1 55 12 81
c-41 17 -79 30 -124 30c-72 0 -97 -34 -97 -105z" />
    <glyph glyph-name="ffl" unicode="ffl" horiz-adv-x="875" 
d="M772 -14c-117 0 -123 77 -123 143v306h-210v-645h-77v645h-210v-645h-78v754c0 81 23 168 175 168c54 0 121 -18 158 -37c26 22 67 37 130 37c62 0 137 -19 189 -38v-534c0 -67 13 -92 63 -92c23 0 47 7 67 17l18 -54c-21 -14 -61 -25 -102 -25zM362 497v47
c0 25 1 50 12 76c-37 17 -80 31 -122 31c-77 0 -100 -36 -100 -109v-45h210zM439 546v-49h209v130c-36 13 -72 24 -109 24c-75 0 -100 -34 -100 -105z" />
    <glyph glyph-name="tt" unicode="tt" horiz-adv-x="635" 
d="M376 695h78v-198h142v-67h-142v-296c0 -66 26 -87 73 -87c34 0 59 14 76 24l23 -52c-29 -20 -73 -33 -113 -33c-133 0 -137 77 -137 150v294h-224v-296c0 -66 26 -87 73 -87c34 0 59 14 76 24l23 -52c-29 -20 -73 -33 -113 -33c-133 0 -137 77 -137 150v559h78v-198h224
v198z" />
    <glyph glyph-name=".notdef" horiz-adv-x="500" 
 />
    <glyph glyph-name=".null" horiz-adv-x="0" 
 />
    <glyph glyph-name=".null" horiz-adv-x="0" 
 />
    <glyph glyph-name="CR" unicode="&#xd;" horiz-adv-x="220" 
 />
    <glyph glyph-name="space" unicode=" " horiz-adv-x="220" 
 />
    <glyph glyph-name="quotesingle" unicode="'" horiz-adv-x="209" 
d="M66 665h76l-8 -224h-58z" />
    <glyph glyph-name="quotedbl" unicode="&#x22;" horiz-adv-x="350" 
d="M66 665h76l-8 -224h-58zM207 665h77l-9 -224h-58z" />
    <glyph glyph-name="numbersign" unicode="#" horiz-adv-x="539" 
d="M296 0l14 161h-123l-14 -161h-62l14 161h-112v56h117l15 169h-113v54h118l14 165h62l-15 -165h123l15 165h62l-15 -165h109v-54h-114l-15 -169h110v-56h-114l-14 -161h-62zM207 386l-16 -169h124l15 169h-123z" />
    <glyph glyph-name="ampersand" unicode="&#x26;" horiz-adv-x="793" 
d="M352 53c114 0 218 67 242 215h154v-60h-95c-31 -112 -123 -221 -305 -221c-221 0 -276 159 -276 286c0 143 97 267 252 267c78 0 142 -41 142 -118c0 -38 -17 -74 -49 -103c127 48 188 166 218 273l77 -23c-40 -133 -103 -233 -233 -287c-75 -31 -199 -45 -328 -46
c14 -129 99 -183 201 -183zM312 478c-70 0 -150 -57 -163 -183c146 4 233 35 233 119c0 27 -14 64 -70 64z" />
    <glyph glyph-name="asterisk" unicode="*" horiz-adv-x="401" 
d="M219 556c28 -5 59 -18 79 -41c23 -28 30 -50 11 -67c-18 -15 -41 -6 -64 22c-11 14 -27 46 -26 86zM233 592c14 24 37 49 66 60c34 12 57 11 66 -12c8 -23 -8 -41 -42 -53c-17 -6 -53 -10 -90 5zM183 556c1 -40 -15 -72 -26 -86c-23 -28 -46 -37 -64 -22
c-19 17 -12 39 11 67c20 23 51 36 79 41zM169 592c-37 -15 -73 -11 -90 -5c-34 12 -50 30 -42 53c9 23 32 24 66 12c29 -11 52 -36 66 -60zM201 616c-27 30 -35 65 -35 83c0 36 11 57 35 57c25 0 34 -21 34 -57c0 -31 -16 -62 -34 -83z" />
    <glyph glyph-name="comma" unicode="," horiz-adv-x="217" 
d="M171 73l-93 -208l-42 13c9 71 17 129 27 175c8 35 18 52 41 52c27 0 55 -20 67 -32z" />
    <glyph glyph-name="hyphen" unicode="-" horiz-adv-x="322" 
d="M30 259v66h262v-66h-262z" />
    <glyph glyph-name="period" unicode="." horiz-adv-x="208" 
d="M46 45c0 34 24 58 57 58c36 0 59 -23 59 -57s-22 -59 -56 -59c-38 0 -60 23 -60 58z" />
    <glyph glyph-name="colon" unicode=":" horiz-adv-x="208" 
d="M46 45c0 34 24 58 57 58c36 0 59 -23 59 -57s-22 -59 -56 -59c-38 0 -60 23 -60 58zM46 430c0 34 24 58 57 58c36 0 59 -23 59 -57s-22 -59 -56 -59c-38 0 -60 23 -60 58z" />
    <glyph glyph-name="semicolon" unicode=";" horiz-adv-x="217" 
d="M60 430c0 34 24 58 57 58c36 0 59 -23 59 -57s-22 -59 -56 -59c-38 0 -60 23 -60 58zM170 73l-93 -208l-42 13c9 71 17 129 27 175c8 35 18 52 41 52c27 0 55 -20 67 -32z" />
    <glyph glyph-name="question" unicode="?" horiz-adv-x="362" 
d="M239 544c0 53 -33 81 -97 81c-25 0 -63 -8 -98 -21l-14 67c38 14 81 24 122 24c120 0 165 -67 165 -146c0 -91 -49 -132 -107 -175c-42 -31 -62 -46 -62 -94v-108h-66c-2 18 -6 79 -6 103c0 75 24 102 80 144c43 32 83 59 83 125zM63 40c0 30 24 55 54 55
c35 0 58 -23 58 -54s-22 -57 -55 -57c-35 0 -57 24 -57 56z" />
    <glyph glyph-name="exclam" unicode="!" horiz-adv-x="261" 
d="M93 530v129c0 19 8 36 40 36c35 0 42 -16 42 -37v-128l-17 -365h-49zM77 40c0 30 24 55 54 55c35 0 58 -23 58 -54s-22 -57 -55 -57c-35 0 -57 24 -57 56z" />
    <glyph glyph-name="exclamdown" unicode="&#xa1;" horiz-adv-x="261" 
d="M173 -35v-129c0 -19 -8 -36 -40 -36c-35 0 -42 16 -42 37v128l17 365h49zM189 455c0 -30 -24 -55 -54 -55c-35 0 -58 23 -58 54s22 57 55 57c35 0 57 -24 57 -56z" />
    <glyph glyph-name="questiondown" unicode="&#xbf;" horiz-adv-x="362" 
d="M108 -49c0 -53 33 -81 97 -81c25 0 63 8 98 21l14 -67c-38 -14 -81 -24 -122 -24c-120 0 -165 67 -165 146c0 91 49 132 107 175c42 31 62 46 62 94v108h66c2 -18 6 -79 6 -103c0 -75 -24 -102 -80 -144c-43 -32 -83 -59 -83 -125zM284 455c0 -30 -24 -55 -54 -55
c-35 0 -58 23 -58 54s22 57 55 57c35 0 57 -24 57 -56z" />
    <glyph glyph-name="at" unicode="@" horiz-adv-x="955" 
d="M818 291c0 171 -97 301 -316 301c-234 0 -362 -163 -362 -378c0 -209 119 -350 329 -350c59 0 122 12 173 36l19 -55c-50 -23 -117 -37 -195 -37c-279 0 -394 187 -394 402c0 289 187 439 440 439c226 0 371 -132 371 -360c0 -199 -106 -287 -253 -289h-37l-6 58l-3 1
c-21 -32 -59 -64 -130 -64c-129 0 -169 96 -169 209c0 152 79 242 217 242c29 0 89 -8 144 -26v-331l3 -35c94 8 169 57 169 237zM577 375c-15 8 -50 16 -84 16c-16 0 -30 -1 -43 -5c-68 -19 -96 -92 -96 -185c0 -70 20 -152 112 -152c77 0 111 52 111 106v220z" />
    <glyph glyph-name="A" unicode="A" horiz-adv-x="607" 
d="M98 0h-78l234 665h94l239 -665h-83l-73 205h-262zM299 594l-111 -325h224z" />
    <glyph glyph-name="B" unicode="B" horiz-adv-x="569" 
d="M82 665h201c105 0 208 -32 208 -163c0 -72 -43 -118 -107 -143c83 -14 141 -70 141 -164c0 -128 -85 -195 -243 -195h-200v665zM161 322v-258h120c122 0 161 56 161 130c0 82 -58 128 -156 128h-125zM161 603v-219h97c108 0 153 46 153 112c0 89 -63 107 -146 107h-104z
" />
    <glyph glyph-name="C" unicode="C" horiz-adv-x="588" 
d="M345 55c62 0 115 24 170 73l43 -52c-61 -58 -135 -88 -217 -88c-175 0 -287 111 -287 344c0 258 158 345 293 345c70 0 154 -23 216 -110l-56 -43c-43 51 -94 85 -163 85c-128 0 -209 -103 -209 -272c0 -175 67 -282 210 -282z" />
    <glyph glyph-name="D" unicode="D" horiz-adv-x="642" 
d="M82 0v665h203c185 0 303 -103 303 -308c0 -264 -141 -357 -297 -357h-209zM161 601v-537h132c132 0 215 95 215 274c0 204 -100 263 -229 263h-118z" />
    <glyph glyph-name="E" unicode="E" horiz-adv-x="493" 
d="M82 0v665h372v-68h-293v-224h252v-68h-252v-237h300v-68h-379z" />
    <glyph glyph-name="F" unicode="F" horiz-adv-x="498" 
d="M82 665h399v-68h-320v-224h265v-68h-265v-305h-79v665z" />
    <glyph glyph-name="G" unicode="G" horiz-adv-x="621" 
d="M558 354v-305c-55 -37 -134 -61 -221 -61c-175 0 -283 111 -283 343c0 259 150 346 283 346c68 0 155 -21 223 -108l-57 -45c-44 52 -96 85 -167 85c-126 0 -201 -103 -201 -271c0 -180 64 -285 209 -285c52 0 111 18 135 35v198h-151v68h230z" />
    <glyph glyph-name="H" unicode="H" horiz-adv-x="669" 
d="M508 665h79v-665h-79v312h-347v-312h-79v665h79v-284h347v284z" />
    <glyph glyph-name="I" unicode="I" horiz-adv-x="245" 
d="M162 0h-79v665h79v-665z" />
    <glyph glyph-name="J" unicode="J" horiz-adv-x="418" 
d="M11 45l40 56c31 -24 67 -46 115 -46c73 0 92 44 92 102v508h79v-414c0 -36 0 -75 -2 -111c-4 -96 -53 -152 -166 -152c-78 0 -135 32 -158 57z" />
    <glyph glyph-name="K" unicode="K" horiz-adv-x="566" 
d="M534 665l-191 -261l211 -404h-89l-177 339l-128 -169v-170h-78v665h78v-388l286 388h88z" />
    <glyph glyph-name="L" unicode="L" horiz-adv-x="487" 
d="M84 0v665h78v-597h297v-68h-375z" />
    <glyph glyph-name="M" unicode="M" horiz-adv-x="819" 
d="M409 177l199 488h96l37 -665h-76l-30 553h-1l-194 -472h-67l-188 470h-1l-30 -551h-76l39 665h98l193 -488h1z" />
    <glyph glyph-name="N" unicode="N" horiz-adv-x="668" 
d="M508 665h78v-665h-86l-339 556h-1v-556h-78v665h92l333 -548h1v548z" />
    <glyph glyph-name="O" unicode="O" horiz-adv-x="661" 
d="M607 331c0 -229 -108 -343 -279 -343s-274 115 -274 343c0 257 148 346 284 346c144 0 269 -91 269 -346zM135 334c0 -132 36 -279 201 -279c145 0 190 137 190 273c0 118 -39 281 -191 281c-146 0 -200 -139 -200 -275z" />
    <glyph glyph-name="P" unicode="P" horiz-adv-x="565" 
d="M161 245v-245h-79v665h216c140 0 224 -68 224 -198c0 -149 -102 -222 -247 -222h-114zM161 309h100c106 0 180 39 180 146c0 132 -80 145 -193 145h-87v-291z" />
    <glyph glyph-name="Q" unicode="Q" horiz-adv-x="649" 
d="M273 291l-15 -57c-94 13 -210 66 -210 211c0 137 103 232 252 232c152 0 280 -95 280 -313c0 -115 -35 -214 -87 -290c97 -89 161 -137 288 -157l-17 -63c-128 19 -207 73 -315 165c-62 -57 -138 -96 -221 -96c-123 0 -153 68 -153 122c0 88 76 134 159 134
c72 0 135 -25 199 -66c38 56 66 157 66 233c0 154 -51 264 -201 264c-94 0 -172 -61 -172 -162c0 -90 49 -131 147 -157zM392 61c-59 41 -112 55 -149 55c-57 0 -92 -24 -92 -68c0 -32 19 -62 81 -62c65 0 119 34 160 75z" />
    <glyph glyph-name="R" unicode="R" horiz-adv-x="585" 
d="M161 273v-273h-79v665h211c140 0 226 -49 226 -179c0 -114 -69 -164 -126 -183c35 -10 45 -26 64 -68l108 -235h-84l-98 209c-17 36 -36 64 -77 64h-145zM161 337h130c90 0 147 51 147 143c0 111 -68 121 -190 121h-87v-264z" />
    <glyph glyph-name="S" unicode="S" horiz-adv-x="532" 
d="M44 49l33 65c31 -21 102 -57 181 -57c67 0 140 21 140 123c0 80 -70 106 -150 128c-96 26 -190 62 -190 185c0 111 86 184 211 184c90 0 169 -42 216 -89l-44 -53c-52 45 -110 74 -173 74c-56 0 -128 -24 -128 -108c0 -79 68 -102 154 -128c92 -29 186 -64 186 -190
c0 -125 -84 -195 -224 -195c-96 0 -185 39 -212 61z" />
    <glyph glyph-name="T" unicode="T" horiz-adv-x="517" 
d="M19 665h479v-68h-202v-597h-79v597h-198v68z" />
    <glyph glyph-name="U" unicode="U" horiz-adv-x="629" 
d="M77 665h79v-458c0 -117 68 -152 162 -152c92 0 155 47 155 147v463h79v-478c0 -128 -97 -199 -239 -199c-155 0 -236 62 -236 217v460z" />
    <glyph glyph-name="V" unicode="V" horiz-adv-x="567" 
d="M326 0h-85l-225 665h83l187 -572l185 572h80z" />
    <glyph glyph-name="W" unicode="W" horiz-adv-x="819" 
d="M536 0l-127 499h-1l-124 -499h-100l-151 665h79l128 -569l126 514h88l128 -514h1l124 569h79l-151 -665h-99z" />
    <glyph glyph-name="X" unicode="X" horiz-adv-x="575" 
d="M452 665h93l-207 -311l235 -354h-93l-194 289l-191 -289h-93l235 353l-206 312h96l162 -253z" />
    <glyph glyph-name="Y" unicode="Y" horiz-adv-x="524" 
d="M434 665h84l-215 -412v-253h-79v253l-218 412h90l171 -331z" />
    <glyph glyph-name="Z" unicode="Z" horiz-adv-x="488" 
d="M450 600l-331 -536h342v-64h-429v64l330 537h-324v64h412v-65z" />
    <glyph glyph-name="a" unicode="a" 
d="M462 479v-392l8 -87h-70l-6 59l-3 1c-25 -36 -68 -74 -146 -74c-139 0 -198 96 -198 241c0 177 85 284 251 284c31 0 100 -8 164 -32zM385 158v275c-18 8 -58 17 -100 17c-120 0 -161 -98 -161 -226c0 -87 26 -180 131 -180c84 0 130 58 130 114z" />
    <glyph glyph-name="b" unicode="b" horiz-adv-x="533" 
d="M74 30v665h77v-242c34 38 83 58 137 58c125 0 199 -90 199 -236c0 -196 -82 -289 -222 -289c-66 0 -151 19 -191 44zM151 352v-279c24 -14 68 -28 115 -28c74 0 143 46 143 218c0 76 -24 188 -140 188c-62 0 -118 -41 -118 -99z" />
    <glyph glyph-name="c" unicode="c" horiz-adv-x="449" 
d="M275 50c42 0 83 14 123 46l33 -51c-32 -29 -89 -59 -162 -59c-144 0 -221 92 -221 263c0 203 124 262 218 262c58 0 127 -19 173 -88l-52 -41c-34 45 -73 65 -120 65c-81 0 -141 -60 -141 -195c0 -118 42 -202 149 -202z" />
    <glyph glyph-name="d" unicode="d" 
d="M282 511c40 0 71 -7 103 -18v202h77v-605l8 -90h-69l-7 60l-4 1c-39 -55 -94 -75 -147 -75c-146 0 -195 115 -195 248c0 168 84 277 234 277zM385 153v274c-23 12 -60 24 -106 24c-109 0 -154 -91 -154 -208c0 -103 28 -197 130 -197c82 0 130 57 130 107z" />
    <glyph glyph-name="e" unicode="e" horiz-adv-x="455" 
d="M280 511c93 0 146 -50 146 -124c0 -148 -178 -172 -275 -172c-10 0 -18 1 -26 1c4 -82 44 -168 150 -168c67 0 109 32 128 46l30 -51c-25 -21 -83 -57 -163 -57c-156 0 -222 106 -222 255c0 148 80 270 232 270zM353 378c0 47 -32 75 -77 75c-107 0 -148 -101 -151 -180
c6 0 12 -1 20 -1c68 0 208 16 208 106z" />
    <glyph glyph-name="f" unicode="f" horiz-adv-x="313" 
d="M152 430v-640h-78v754c0 70 17 168 161 168c39 0 95 -14 122 -29l-22 -58c-26 13 -64 24 -98 24c-65 0 -85 -37 -85 -103v-49h157v-67h-157z" />
    <glyph glyph-name="g" unicode="g" horiz-adv-x="536" 
d="M254 -263c-103 0 -157 48 -157 129c0 85 58 138 130 178c-91 7 -179 58 -179 217c0 168 98 250 233 250c54 0 128 -11 184 -35v-374c0 -43 -1 -94 -3 -137c-8 -141 -74 -228 -208 -228zM388 211v223c-30 10 -67 18 -116 18c-89 0 -147 -62 -147 -183
c0 -80 14 -178 136 -178c77 0 127 46 127 120zM172 -124c0 -57 35 -79 89 -79c99 0 126 92 126 204v77c-147 -69 -215 -124 -215 -202z" />
    <glyph glyph-name="h" unicode="h" horiz-adv-x="534" 
d="M150 0h-77v695h77v-259c44 53 98 75 154 75c104 0 159 -58 159 -172v-339h-78v318c0 70 -15 131 -102 131c-73 0 -133 -63 -133 -123v-326z" />
    <glyph glyph-name="i" unicode="i" horiz-adv-x="225" 
d="M153 0h-78v497h78v-497zM62 639c0 29 22 52 52 52c29 0 52 -23 52 -52c0 -31 -23 -53 -53 -53s-51 22 -51 53z" />
    <glyph glyph-name="j" unicode="j" horiz-adv-x="225" 
d="M75 -61v558h78v-540c0 -95 -7 -180 -135 -180c-35 0 -87 10 -117 30l25 57c26 -15 52 -24 83 -24c45 0 66 24 66 99zM64 639c0 29 22 52 52 52s52 -23 52 -52c0 -31 -23 -53 -53 -53s-51 22 -51 53z" />
    <glyph glyph-name="k" unicode="k" horiz-adv-x="480" 
d="M450 392c0 -55 -29 -141 -126 -188l124 -204h-91l-107 179c-29 -6 -61 -10 -98 -10v-169h-78v695h78v-324c26 68 90 140 180 140c65 0 118 -39 118 -119zM372 384c0 41 -23 62 -56 62c-76 0 -149 -120 -164 -220c136 -3 220 59 220 158z" />
    <glyph glyph-name="l" unicode="l" horiz-adv-x="302" 
d="M75 695h77v-555c0 -67 13 -92 63 -92c23 0 47 7 67 17l18 -54c-21 -14 -61 -25 -102 -25c-117 0 -123 77 -123 143v566z" />
    <glyph glyph-name="m" unicode="m" horiz-adv-x="825" 
d="M153 0h-77v422l-7 75h65l9 -71c35 55 92 85 153 85c66 0 116 -27 143 -93c32 62 92 93 155 93c103 0 160 -62 160 -176v-335h-77v314c0 71 -15 135 -103 135c-69 0 -120 -58 -120 -119v-330h-77v313c0 64 -10 136 -103 136c-71 0 -121 -61 -121 -124v-325z" />
    <glyph glyph-name="n" unicode="n" horiz-adv-x="536" 
d="M152 0h-78v422l-5 75h67l9 -72c38 56 96 86 161 86c103 0 159 -58 159 -172v-339h-78v315c0 74 -16 134 -100 134c-77 0 -135 -63 -135 -123v-326z" />
    <glyph glyph-name="o" unicode="o" horiz-adv-x="520" 
d="M258 46c95 0 136 91 136 200c0 120 -35 204 -132 204c-95 0 -138 -80 -138 -188c0 -99 20 -216 134 -216zM46 252c0 207 123 259 222 259c69 0 205 -22 205 -248c0 -195 -97 -277 -222 -277c-127 0 -205 86 -205 266z" />
    <glyph glyph-name="p" unicode="p" horiz-adv-x="529" 
d="M151 24v-234h-78v691c70 20 130 30 181 30c158 0 227 -88 227 -257c0 -174 -77 -268 -202 -268c-50 0 -96 16 -128 38zM403 244c0 116 -30 201 -158 201c-35 0 -68 -7 -94 -16v-334c29 -25 77 -44 122 -44c94 0 130 92 130 193z" />
    <glyph glyph-name="q" unicode="q" horiz-adv-x="528" 
d="M456 476v-686h-78v258h-2c-31 -35 -76 -62 -143 -62c-122 0 -185 87 -185 250c0 174 89 275 238 275c49 0 105 -9 170 -35zM379 148v284c-25 10 -56 17 -88 17c-112 0 -166 -75 -166 -197c0 -89 7 -207 124 -207c82 0 130 55 130 103z" />
    <glyph glyph-name="r" unicode="r" horiz-adv-x="346" 
d="M152 317v-317h-77v429l-6 68h67l9 -72c24 56 68 86 125 86c31 0 60 -7 79 -19l-24 -69c-17 9 -40 19 -65 19c-64 0 -105 -58 -108 -125z" />
    <glyph glyph-name="s" unicode="s" horiz-adv-x="405" 
d="M30 34l30 56c29 -20 78 -44 136 -44c56 0 99 26 99 85c0 58 -45 76 -103 90c-80 19 -151 44 -151 143c0 100 80 147 167 147c71 0 130 -31 166 -67l-45 -46c-33 31 -73 54 -124 54c-43 0 -91 -22 -91 -77c0 -59 49 -73 106 -90c72 -22 151 -46 151 -147
c0 -98 -72 -152 -174 -152c-81 0 -146 30 -167 48z" />
    <glyph glyph-name="t" unicode="t" horiz-adv-x="333" 
d="M74 695h78v-198h142v-67h-142v-296c0 -66 26 -87 73 -87c34 0 59 14 76 24l23 -52c-29 -20 -73 -33 -113 -33c-133 0 -137 77 -137 150v559z" />
    <glyph glyph-name="u" unicode="u" horiz-adv-x="537" 
d="M386 497h77v-424l7 -73h-69l-8 68h-2c-37 -57 -97 -82 -157 -82c-107 0 -161 56 -161 171v340h78v-318c0 -75 15 -132 103 -132c70 0 132 62 132 120v330z" />
    <glyph glyph-name="v" unicode="v" horiz-adv-x="514" 
d="M351 497h78c18 -61 33 -134 33 -212c0 -183 -74 -299 -229 -299c-106 0 -160 45 -160 168v343h78v-314c0 -73 4 -134 91 -134c108 0 143 116 143 225c0 91 -18 162 -34 223z" />
    <glyph glyph-name="w" unicode="w" horiz-adv-x="790" 
d="M627 497h76c18 -61 36 -130 36 -209c0 -179 -57 -302 -209 -302c-76 0 -118 39 -133 96c-45 -73 -103 -96 -167 -96c-108 0 -157 53 -157 168v343h78v-302c0 -79 3 -147 91 -147c70 0 123 59 123 123v326h78v-305c0 -75 5 -144 89 -144c117 0 131 145 131 236
c0 83 -19 151 -36 213z" />
    <glyph glyph-name="x" unicode="x" horiz-adv-x="444" 
d="M349 497h79l-161 -236l172 -261h-82l-133 203l-138 -203h-81l178 259l-157 238h83l117 -184z" />
    <glyph glyph-name="y" unicode="y" horiz-adv-x="534" 
d="M462 20c0 -44 -4 -103 -13 -138c-25 -97 -89 -148 -195 -148c-102 0 -151 49 -151 126c0 81 61 139 110 171c-85 9 -140 50 -140 164v302h78v-281c0 -76 7 -134 113 -134c76 0 122 48 122 117v298h76v-477zM178 -130c0 -49 29 -76 84 -76c91 0 123 79 123 188v87
c-120 -50 -207 -104 -207 -199z" />
    <glyph glyph-name="z" unicode="z" horiz-adv-x="394" 
d="M84 -102c0 -60 28 -103 94 -103c81 0 120 66 120 146c0 68 -26 109 -74 139c-100 -48 -140 -123 -140 -182zM370 497v-60l-230 -239l68 -32c106 -50 162 -114 162 -224c0 -127 -81 -207 -199 -207c-109 0 -160 61 -160 153c0 94 60 170 161 223c-33 16 -69 32 -102 48v58
l207 217h-254v63h347z" />
    <glyph glyph-name="bracketleft" unicode="[" horiz-adv-x="297" 
d="M98 -155v858h187v-60h-113v-738h113v-60h-187z" />
    <glyph glyph-name="bracketright" unicode="]" horiz-adv-x="297" 
d="M197 703v-858h-187v60h113v738h-113v60h187z" />
    <glyph glyph-name="parenleft" unicode="(" horiz-adv-x="308" 
d="M86 276c0 139 44 292 124 438l64 -32c-70 -138 -110 -265 -110 -406c0 -138 41 -268 108 -406l-64 -29c-78 144 -122 297 -122 435z" />
    <glyph glyph-name="parenright" unicode=")" horiz-adv-x="308" 
d="M217 279c0 -139 -44 -292 -124 -438l-64 32c70 138 110 265 110 406c0 138 -41 268 -108 406l64 29c78 -144 122 -297 122 -435z" />
    <glyph glyph-name="braceleft" unicode="{" horiz-adv-x="295" 
d="M125 281c52 -18 63 -51 63 -124c0 -43 -10 -134 -10 -181c0 -49 6 -77 50 -77c11 0 25 2 41 5l9 -53c-21 -5 -48 -9 -68 -9c-85 0 -105 53 -105 117c0 66 9 132 9 193c0 59 -11 94 -60 105v48c51 11 61 38 61 112c0 60 -9 116 -9 172c0 80 37 120 105 120
c21 0 49 -3 68 -9l-10 -54c-16 4 -29 6 -42 6c-42 0 -48 -19 -48 -68c0 -46 8 -131 8 -175c0 -67 -11 -109 -62 -128z" />
    <glyph glyph-name="braceright" unicode="}" horiz-adv-x="295" 
d="M160 281c-51 19 -62 61 -62 128c0 44 8 129 8 175c0 49 -6 68 -48 68c-13 0 -26 -2 -42 -6l-10 54c19 6 47 9 68 9c68 0 105 -40 105 -120c0 -56 -9 -112 -9 -172c0 -74 10 -101 61 -112v-48c-49 -11 -60 -46 -60 -105c0 -61 9 -127 9 -193c0 -64 -20 -117 -105 -117
c-20 0 -47 4 -68 9l9 53c16 -3 30 -5 41 -5c44 0 50 28 50 77c0 47 -10 138 -10 181c0 73 11 106 63 124z" />
    <glyph glyph-name="backslash" unicode="\" horiz-adv-x="400" 
d="M-3 719l70 26l319 -819l-69 -26z" />
    <glyph glyph-name="slash" unicode="/" horiz-adv-x="400" 
d="M76 -101l-68 26l318 819l70 -25z" />
    <glyph glyph-name="brokenbar" unicode="&#xa6;" horiz-adv-x="227" 
d="M76 -88v377h75v-377h-75zM76 406v341h75v-341h-75z" />
    <glyph glyph-name="bar" unicode="|" horiz-adv-x="225" 
d="M76 -88v835h73v-835h-73z" />
    <glyph glyph-name="asciicircum" unicode="^" 
d="M487 307l-69 -11l-150 296l-151 -297l-67 13l184 357h71z" />
    <glyph glyph-name="underscore" unicode="_" horiz-adv-x="500" 
d="M0 -132v58h500v-58h-500z" />
    <glyph glyph-name="asciitilde" unicode="~" horiz-adv-x="576" 
d="M385 221c-76 0 -135 76 -192 76c-26 0 -46 -18 -68 -56l-52 29c34 63 73 92 121 92c78 0 131 -77 193 -77c24 0 44 11 64 54l52 -27c-33 -78 -84 -91 -118 -91z" />
    <glyph glyph-name="uni00A0" unicode="&#xa0;" horiz-adv-x="199" 
 />
    <glyph glyph-name="zero" unicode="0" 
d="M273 657c133 0 217 -89 217 -329c0 -235 -77 -338 -225 -338c-145 0 -220 98 -220 333c0 229 88 334 228 334zM268 54c83 0 143 57 143 272c0 209 -57 266 -142 266c-89 0 -144 -66 -144 -279c0 -199 56 -259 143 -259z" />
    <glyph glyph-name="one" unicode="1" horiz-adv-x="422" 
d="M85 63h126v497l-155 -82l-29 50l189 116h77l-5 -70v-511h121v-63h-324v63z" />
    <glyph glyph-name="two" unicode="2" horiz-adv-x="506" 
d="M94 516l-45 50c52 53 128 91 208 91c112 0 174 -67 174 -167c0 -71 -33 -128 -84 -188l-205 -237h326v-65h-424v57l226 266c58 68 80 98 80 161c0 69 -46 105 -106 105c-61 0 -113 -39 -150 -73z" />
    <glyph glyph-name="three" unicode="3" horiz-adv-x="514" 
d="M81 512l-43 48c50 51 133 97 224 97c120 0 169 -70 169 -150c0 -62 -24 -111 -80 -151c58 -50 91 -111 91 -176c0 -97 -65 -191 -214 -191c-75 0 -155 25 -185 47l26 63c40 -23 101 -44 160 -44c83 0 133 50 133 117c0 53 -21 98 -73 143c-35 -17 -90 -31 -113 -37
l-21 60c128 32 196 66 196 157c0 60 -34 95 -101 95c-57 0 -114 -29 -169 -78z" />
    <glyph glyph-name="four" unicode="4" horiz-adv-x="519" 
d="M358 442h47v-212h96v-63h-96v-167h-79v167h-284v62l203 427l63 -32l-188 -394h209v71z" />
    <glyph glyph-name="five" unicode="5" horiz-adv-x="494" 
d="M76 323l41 321h313v-65h-249l-27 -196c136 -5 280 -54 280 -202c0 -90 -55 -192 -216 -192c-81 0 -165 31 -192 52l27 61c35 -20 96 -48 164 -48c101 0 138 58 138 124c0 129 -168 145 -279 145z" />
    <glyph glyph-name="six" unicode="6" 
d="M371 668l15 -61c-150 -24 -230 -129 -240 -253c46 31 105 51 159 51c110 0 175 -77 175 -193c0 -119 -70 -224 -210 -224c-154 0 -207 131 -207 286c0 195 77 352 308 394zM402 210c0 80 -41 136 -116 136c-50 0 -117 -29 -145 -55c-6 -125 29 -240 131 -240
c78 0 130 61 130 159z" />
    <glyph glyph-name="seven" unicode="7" horiz-adv-x="447" 
d="M32 579v65h407v-60c-197 -171 -230 -380 -230 -549v-35h-81v43c0 165 41 362 213 536h-309z" />
    <glyph glyph-name="eight" unicode="8" horiz-adv-x="532" 
d="M64 154c0 103 82 163 133 190c-49 28 -111 71 -111 154c0 88 75 159 183 159c127 0 177 -74 177 -144c0 -73 -51 -128 -105 -168c78 -41 128 -97 128 -172c0 -93 -58 -184 -205 -184c-150 0 -200 88 -200 165zM388 169c0 75 -70 117 -127 142c-59 -27 -120 -76 -120 -151
c0 -56 41 -109 126 -109c78 0 121 47 121 118zM266 597c-62 0 -103 -45 -103 -96c0 -55 45 -96 114 -128c43 27 94 76 94 134c0 50 -38 90 -105 90z" />
    <glyph glyph-name="nine" unicode="9" 
d="M161 -8l-15 60c152 29 234 112 244 237c-46 -32 -101 -49 -158 -49c-115 0 -180 76 -180 193c0 119 71 224 210 224c155 0 207 -131 207 -286c0 -195 -76 -340 -308 -379zM130 435c0 -80 39 -135 114 -135c64 0 118 28 147 53c5 126 -29 241 -131 241
c-78 0 -130 -62 -130 -159z" />
    <glyph glyph-name="dollar" unicode="$" 
d="M44 69l33 65c28 -19 89 -51 160 -56v232c-88 26 -179 56 -179 173c0 101 71 162 179 172v92h61v-92c78 -8 145 -45 187 -87l-44 -53c-44 38 -92 64 -143 72v-217c89 -27 182 -60 182 -177c0 -112 -67 -172 -182 -183v-118h-61v116c-89 5 -168 40 -193 61zM400 183
c0 62 -45 89 -102 109v-213c53 8 102 33 102 104zM140 491c0 -57 42 -83 97 -102v198c-49 -5 -97 -27 -97 -96z" />
    <glyph glyph-name="Euro" unicode="&#x20ac;" horiz-adv-x="545" 
d="M460 238v60h-431v-60h115c-36 -30 -51 -65 -51 -107c0 -74 52 -145 211 -145c76 0 158 21 223 81l-41 56c-56 -50 -113 -69 -174 -69c-89 0 -131 33 -131 88c0 62 40 96 109 96h170zM460 403v-60h-431v60h110c-31 28 -46 58 -46 97c0 74 59 157 205 157
c76 0 160 -26 234 -103l-50 -50c-52 51 -118 85 -184 85c-84 0 -117 -45 -117 -93c0 -69 50 -93 102 -93h177z" />
    <glyph glyph-name="cent" unicode="&#xa2;" 
d="M337 -60h-65v112c-119 16 -182 107 -182 262c0 178 95 245 182 259v112h65v-111c51 -6 105 -28 144 -86l-52 -41c-27 36 -57 56 -92 62v-394c35 4 69 18 103 45l33 -53c-28 -26 -77 -50 -136 -56v-111zM168 317c0 -100 30 -176 104 -197v387c-62 -16 -104 -77 -104 -190z
" />
    <glyph glyph-name="sterling" unicode="&#xa3;" horiz-adv-x="530" 
d="M31 156v60h113l56 258c32 149 105 183 190 183c63 0 115 -29 143 -50l-37 -51c-26 18 -65 38 -108 38c-74 0 -97 -46 -116 -131l-54 -247h180v-59h-191l-24 -106c-14 -66 -44 -103 -80 -133l2 -3c22 7 48 11 67 11c65 0 111 -25 189 -25c30 0 64 3 105 12l-8 -63
c-39 -8 -73 -11 -99 -11c-96 0 -145 28 -229 28c-33 0 -85 -9 -122 -25v63c52 28 81 65 97 134l27 117h-101z" />
    <glyph glyph-name="yen" unicode="&#xa5;" horiz-adv-x="517" 
d="M224 163h-170v57h170v86h-170v56h138l-155 282h83l144 -272l141 272h81l-153 -282h135v-56h-167v-86h167v-57h-167v-163h-77v163z" />
    <glyph glyph-name="florin" unicode="&#x192;" horiz-adv-x="513" 
d="M87 326l10 63h102l14 82c19 114 50 186 180 186c42 0 90 -12 126 -29l-26 -56c-31 14 -69 24 -99 24c-62 0 -86 -31 -97 -93l-21 -114h156l-11 -63h-156l-59 -340c-21 -123 -52 -196 -183 -196c-41 0 -89 12 -124 29l26 55c30 -14 69 -23 99 -23c59 0 87 33 98 93l66 382
h-101z" />
    <glyph glyph-name="section" unicode="&#xa7;" horiz-adv-x="543" 
d="M69 376l69 4c-10 -135 27 -175 116 -224c87 -48 179 -86 179 -202c0 -58 -33 -159 -178 -159c-64 0 -121 23 -147 38l26 58c27 -16 73 -36 124 -36c72 0 102 43 102 96c0 72 -60 101 -150 149c-99 53 -157 110 -141 276zM472 79l-66 -6c3 133 -45 188 -118 227
c-88 47 -179 86 -179 202c0 58 33 159 178 159c59 0 121 -23 147 -38l-20 -58c-27 16 -79 35 -120 35c-79 0 -112 -42 -112 -95c0 -72 74 -107 150 -149c97 -53 152 -118 140 -277z" />
    <glyph glyph-name="copyright" unicode="&#xa9;" horiz-adv-x="813" 
d="M753 332c0 -200 -145 -352 -351 -352c-212 0 -342 144 -342 346c0 195 141 350 342 350c207 0 351 -155 351 -344zM691 329c0 167 -124 293 -288 293c-168 0 -281 -129 -281 -296c0 -178 117 -292 281 -292c166 0 288 125 288 295zM409 182c41 0 73 14 102 39l31 -39
c-30 -26 -73 -52 -133 -52c-118 0 -177 79 -177 201c0 155 101 199 173 199c49 0 112 -25 145 -77l-42 -30c-28 31 -61 55 -102 55c-67 0 -114 -43 -114 -146c0 -87 30 -150 117 -150z" />
    <glyph glyph-name="registered" unicode="&#xae;" horiz-adv-x="463" 
d="M285 470l38 -83h-43l-32 71c-4 10 -8 14 -16 14h-33v-85h-37v211h78c41 0 67 -20 67 -56c0 -31 -16 -49 -35 -57c7 -3 11 -10 13 -15zM199 504h31c25 0 36 14 36 34c0 23 -18 29 -42 29h-25v-63zM423 492c0 -110 -80 -188 -194 -188c-117 0 -189 78 -189 186
c0 107 78 187 189 187c114 0 194 -80 194 -185zM379 490c0 87 -63 149 -150 149c-88 0 -144 -62 -144 -149c0 -88 60 -148 144 -148c88 0 150 58 150 148z" />
    <glyph glyph-name="trademark" unicode="&#x2122;" horiz-adv-x="680" 
d="M12 665h257v-53h-100v-283h-61v283h-96v53zM561 665h61l22 -336h-55l-13 242l-83 -222h-47l-79 219l-15 -239h-54l23 336h64l86 -248z" />
    <glyph glyph-name="ordfeminine" unicode="&#xaa;" horiz-adv-x="402" 
d="M344 587v-251l9 -73h-62l-6 39h-4c-24 -28 -55 -46 -96 -46c-95 0 -134 77 -134 163c0 117 62 190 174 190c26 0 75 -6 119 -22zM277 362v185c-13 5 -36 10 -61 10c-69 0 -99 -60 -99 -128c0 -71 25 -121 82 -121c48 0 78 33 78 54z" />
    <glyph glyph-name="ordmasculine" unicode="&#xba;" horiz-adv-x="399" 
d="M198 309c58 0 87 52 87 124c0 76 -21 126 -88 126c-60 0 -83 -58 -83 -112c0 -73 19 -138 84 -138zM47 431c0 143 87 180 156 180c79 0 149 -45 149 -167s-59 -188 -156 -188c-99 0 -149 72 -149 175z" />
    <glyph glyph-name="guillemotleft" unicode="&#xab;" horiz-adv-x="492" 
d="M270 408l-136 -144l128 -165l-33 -30c-49 44 -133 125 -160 163c-11 16 -14 25 -14 33c0 14 11 28 25 41c43 41 101 88 159 133zM454 408l-136 -144l128 -165l-33 -30c-49 44 -133 125 -160 163c-11 16 -14 25 -14 33c0 14 11 28 25 41c43 41 101 88 159 133z" />
    <glyph glyph-name="guillemotright" unicode="&#xbb;" horiz-adv-x="492" 
d="M174 264l-136 144l31 31c58 -45 116 -92 159 -133c14 -13 25 -27 25 -41c0 -8 -3 -17 -14 -33c-27 -38 -111 -119 -160 -163l-33 30zM358 264l-136 144l31 31c58 -45 116 -92 159 -133c14 -13 25 -27 25 -41c0 -8 -3 -17 -14 -33c-27 -38 -111 -119 -160 -163l-33 30z
" />
    <glyph glyph-name="guilsinglleft" unicode="&#x2039;" horiz-adv-x="308" 
d="M270 408l-136 -144l128 -165l-33 -30c-49 44 -133 125 -160 163c-11 16 -14 25 -14 33c0 14 11 28 25 41c43 41 101 88 159 133z" />
    <glyph glyph-name="guilsinglright" unicode="&#x203a;" horiz-adv-x="308" 
d="M174 264l-136 144l31 31c58 -45 116 -92 159 -133c14 -13 25 -27 25 -41c0 -8 -3 -17 -14 -33c-27 -38 -111 -119 -160 -163l-33 30z" />
    <glyph glyph-name="quoteleft" unicode="&#x2018;" horiz-adv-x="194" 
d="M118 492c-20 -1 -49 2 -64 11c-10 6 -14 16 -14 29c0 45 49 126 91 196l48 -16z" />
    <glyph glyph-name="quoteright" unicode="&#x2019;" horiz-adv-x="188" 
d="M88 722c7 1 19 2 27 2c28 0 53 -8 53 -40c0 -35 -37 -106 -90 -197l-47 14z" />
    <glyph glyph-name="quotesinglbase" unicode="&#x201a;" horiz-adv-x="200" 
d="M175 74l-97 -206l-45 15c12 77 21 121 32 164c10 38 21 55 44 55s53 -18 66 -28z" />
    <glyph glyph-name="quotedblleft" unicode="&#x201c;" horiz-adv-x="351" 
d="M118 492c-20 -1 -49 2 -64 11c-10 6 -14 16 -14 29c0 45 49 126 91 196l48 -16zM274 492c-20 -1 -49 2 -64 11c-10 6 -14 16 -14 29c0 45 49 126 91 196l48 -16z" />
    <glyph glyph-name="quotedblright" unicode="&#x201d;" horiz-adv-x="344" 
d="M88 722c7 1 19 2 27 2c28 0 53 -8 53 -40c0 -35 -37 -106 -90 -197l-47 14zM244 722c7 1 19 2 27 2c28 0 53 -8 53 -40c0 -35 -37 -106 -90 -197l-47 14z" />
    <glyph glyph-name="quotedblbase" unicode="&#x201e;" horiz-adv-x="356" 
d="M175 74l-97 -206l-45 15c12 77 21 121 32 164c10 38 21 55 44 55s53 -18 66 -28zM331 74l-97 -206l-45 15c12 77 21 121 32 164c10 38 21 55 44 55s53 -18 66 -28z" />
    <glyph glyph-name="dagger" unicode="&#x2020;" horiz-adv-x="414" 
d="M207 434c-24 -29 -35 -70 -35 -120v-363c0 -31 -2 -75 35 -121c23 29 35 64 35 116v368c0 39 0 73 -35 120zM208 504c-23 23 -36 62 -36 96c0 37 10 59 35 59s35 -22 35 -59c0 -27 -9 -66 -34 -96zM237 466c31 27 78 34 96 34c38 0 59 -10 59 -35s-21 -34 -59 -34
c-32 0 -70 11 -96 35zM177 467c-23 -23 -62 -36 -96 -36c-38 0 -59 10 -59 35s21 34 59 34c21 0 65 -7 96 -33z" />
    <glyph glyph-name="daggerdbl" unicode="&#x2021;" horiz-adv-x="416" 
d="M206 434c-24 -29 -34 -70 -34 -120v-153c0 -29 -2 -79 35 -121c25 31 35 64 35 116v161c0 25 1 72 -36 117zM207 504c-22 23 -35 62 -35 96c0 37 10 59 35 59s35 -22 35 -59c0 -21 -10 -66 -35 -96zM237 466c31 27 78 34 96 34c38 0 59 -10 59 -35s-21 -34 -59 -34
c-32 0 -70 11 -96 35zM239 4c30 27 77 34 96 34c37 0 59 -11 59 -36s-22 -34 -59 -34c-33 0 -70 12 -96 36zM177 467c-23 -23 -62 -36 -96 -36c-38 0 -59 10 -59 35s21 34 59 34c21 0 65 -7 96 -33zM179 4c-23 -18 -58 -36 -97 -36c-37 0 -58 10 -58 35s21 35 58 35
c21 0 66 -8 97 -34zM209 -34c-23 -23 -36 -63 -36 -97c0 -37 9 -58 34 -58s36 21 36 58c0 22 -7 66 -34 97z" />
    <glyph glyph-name="bullet" unicode="&#x2022;" horiz-adv-x="500" 
d="M145 306c0 68 45 112 105 112c61 0 105 -44 105 -112s-44 -112 -105 -112c-60 0 -105 44 -105 112z" />
    <glyph glyph-name="ellipsis" unicode="&#x2026;" horiz-adv-x="767" 
d="M70 45c0 34 24 58 57 58c36 0 59 -23 59 -57s-22 -59 -56 -59c-38 0 -60 23 -60 58zM330 45c0 34 24 58 57 58c36 0 59 -23 59 -57s-22 -59 -56 -59c-38 0 -60 23 -60 58zM581 45c0 34 24 58 57 58c36 0 59 -23 59 -57s-22 -59 -56 -59c-38 0 -60 23 -60 58z" />
    <glyph glyph-name="paragraph" unicode="&#xb6;" horiz-adv-x="494" 
d="M336 51v554h-75v-386c-108 5 -197 75 -197 216c0 171 102 230 229 230h119v-593c0 -167 -58 -236 -220 -275l-18 64c121 33 162 87 162 190z" />
    <glyph glyph-name="periodcentered" unicode="&#xb7;" horiz-adv-x="304" 
d="M94 308c0 33 24 57 57 57c36 0 59 -22 59 -56s-22 -60 -56 -60c-38 0 -60 24 -60 59z" />
    <glyph glyph-name="uni00AD" unicode="&#xad;" horiz-adv-x="322" 
d="M49 263v66h222v-66h-222z" />
    <glyph glyph-name="endash" unicode="&#x2013;" horiz-adv-x="500" 
d="M0 263v62h500v-62h-500z" />
    <glyph glyph-name="emdash" unicode="&#x2014;" horiz-adv-x="1000" 
d="M0 263v62h1000v-62h-1000z" />
    <glyph glyph-name="hyphen.case" horiz-adv-x="322" 
d="M30 300v66h262v-66h-262z" />
    <glyph glyph-name="Agrave" unicode="&#xc0;" horiz-adv-x="607" 
d="M98 0h-78l234 665h94l239 -665h-83l-73 205h-262zM299 594l-111 -325h224zM219 896l152 -147l-24 -33c-62 37 -115 66 -145 87c-18 13 -32 24 -32 42c0 21 26 38 49 51z" />
    <glyph glyph-name="Aacute" unicode="&#xc1;" horiz-adv-x="607" 
d="M98 0h-78l234 665h94l239 -665h-83l-73 205h-262zM299 594l-111 -325h224zM236 749l152 148c24 -13 49 -31 49 -52c0 -18 -17 -31 -33 -42c-30 -21 -81 -50 -144 -87z" />
    <glyph glyph-name="Acircumflex" unicode="&#xc2;" horiz-adv-x="607" 
d="M98 0h-78l234 665h94l239 -665h-83l-73 205h-262zM299 594l-111 -325h224zM177 716l-31 24c42 55 80 98 107 123c18 17 30 22 44 22c13 0 27 -3 44 -20c29 -29 70 -73 109 -124l-31 -25l-122 88z" />
    <glyph glyph-name="Atilde" unicode="&#xc3;" horiz-adv-x="607" 
d="M98 0h-78l234 665h94l239 -665h-83l-73 205h-262zM299 594l-111 -325h224zM168 739l-7 57c24 19 54 27 80 27c50 0 86 -25 130 -25c21 0 42 7 60 17l7 -60c-20 -11 -39 -18 -66 -18c-43 0 -95 22 -133 22c-25 0 -47 -7 -71 -20z" />
    <glyph glyph-name="Adieresis" unicode="&#xc4;" horiz-adv-x="607" 
d="M98 0h-78l234 665h94l239 -665h-83l-73 205h-262zM299 594l-111 -325h224zM342 781c0 29 21 51 52 51c29 0 51 -22 51 -51c0 -31 -23 -52 -52 -52c-31 0 -51 21 -51 52zM154 781c0 29 21 51 52 51c29 0 51 -22 51 -51c0 -31 -23 -52 -52 -52c-30 0 -51 21 -51 52z" />
    <glyph glyph-name="Aring" unicode="&#xc5;" horiz-adv-x="607" 
d="M218 735c0 50 33 86 86 86c54 0 86 -36 86 -81c0 -36 -15 -64 -41 -79l238 -661h-83l-73 205h-262l-71 -205h-78l233 663c-23 15 -35 41 -35 72zM299 594l-111 -325h224zM266 735c0 -27 11 -45 38 -45s38 19 38 45c0 28 -11 46 -38 46c-28 0 -38 -18 -38 -46z" />
    <glyph glyph-name="AE" unicode="&#xc6;" horiz-adv-x="805" 
d="M495 0l-74 209h-259l-72 -209h-78l234 665h522v-68h-397l79 -224h275v-68h-255l85 -237h219v-68h-279zM291 593l-109 -320h220l-111 320v0z" />
    <glyph glyph-name="Ccedilla" unicode="&#xc7;" horiz-adv-x="588" 
d="M345 55c62 0 115 24 170 73l43 -52c-60 -57 -132 -86 -211 -88l-16 -60c48 -3 84 -25 84 -74c0 -60 -51 -89 -106 -89c-26 0 -60 7 -82 18l13 42c15 -5 43 -13 66 -13c41 0 51 20 51 40c0 31 -31 40 -89 40l31 99c-151 16 -245 127 -245 341c0 258 158 345 293 345
c70 0 154 -23 216 -110l-56 -43c-43 51 -94 85 -163 85c-128 0 -209 -103 -209 -272c0 -175 67 -282 210 -282z" />
    <glyph glyph-name="Egrave" unicode="&#xc8;" horiz-adv-x="493" 
d="M82 0v665h372v-68h-293v-224h252v-68h-252v-237h300v-68h-379zM197 896l152 -147l-24 -33c-62 37 -115 66 -145 87c-18 13 -32 24 -32 42c0 21 26 38 49 51z" />
    <glyph glyph-name="Eacute" unicode="&#xc9;" horiz-adv-x="493" 
d="M82 0v665h372v-68h-293v-224h252v-68h-252v-237h300v-68h-379zM186 749l152 148c24 -13 49 -31 49 -52c0 -18 -17 -31 -33 -42c-30 -21 -81 -50 -144 -87z" />
    <glyph glyph-name="Ecircumflex" unicode="&#xca;" horiz-adv-x="493" 
d="M82 0v665h372v-68h-293v-224h252v-68h-252v-237h300v-68h-379zM144 716l-31 24c42 55 80 98 107 123c18 17 30 22 44 22c13 0 27 -3 44 -20c29 -29 70 -73 109 -124l-31 -25l-122 88z" />
    <glyph glyph-name="Edieresis" unicode="&#xcb;" horiz-adv-x="493" 
d="M82 0v665h372v-68h-293v-224h252v-68h-252v-237h300v-68h-379zM308 781c0 29 21 51 52 51c29 0 51 -22 51 -51c0 -31 -23 -52 -52 -52c-31 0 -51 21 -51 52zM120 781c0 29 21 51 52 51c29 0 51 -22 51 -51c0 -31 -23 -52 -52 -52c-30 0 -51 21 -51 52z" />
    <glyph glyph-name="Igrave" unicode="&#xcc;" horiz-adv-x="245" 
d="M162 0h-79v665h79v-665zM38 896l152 -147l-24 -33c-62 37 -115 66 -145 87c-18 13 -32 24 -32 42c0 21 26 38 49 51z" />
    <glyph glyph-name="Iacute" unicode="&#xcd;" horiz-adv-x="245" 
d="M162 0h-79v665h79v-665zM53 749l152 148c24 -13 49 -31 49 -52c0 -18 -17 -31 -33 -42c-30 -21 -81 -50 -144 -87z" />
    <glyph glyph-name="Icircumflex" unicode="&#xce;" horiz-adv-x="245" 
d="M162 0h-79v665h79v-665zM3 716l-31 24c42 55 80 98 107 123c18 17 30 22 44 22c13 0 27 -3 44 -20c29 -29 70 -73 109 -124l-31 -25l-122 88z" />
    <glyph glyph-name="Idieresis" unicode="&#xcf;" horiz-adv-x="245" 
d="M162 0h-79v665h79v-665zM164 781c0 29 21 51 52 51c29 0 51 -22 51 -51c0 -31 -23 -52 -52 -52c-31 0 -51 21 -51 52zM-24 781c0 29 21 51 52 51c29 0 51 -22 51 -51c0 -31 -23 -52 -52 -52c-30 0 -51 21 -51 52z" />
    <glyph glyph-name="Eth" unicode="&#xd0;" horiz-adv-x="642" 
d="M7 302v66h75v297h203c185 0 303 -103 303 -308c0 -264 -141 -357 -297 -357h-209v302h-75zM161 601v-233h190v-66h-190v-238h132c132 0 215 95 215 274c0 204 -100 263 -229 263h-118z" />
    <glyph glyph-name="Ntilde" unicode="&#xd1;" horiz-adv-x="668" 
d="M508 665h78v-665h-86l-339 556h-1v-556h-78v665h92l333 -548h1v548zM201 739l-7 57c24 19 54 27 80 27c50 0 86 -25 130 -25c21 0 42 7 60 17l7 -60c-20 -11 -39 -18 -66 -18c-43 0 -95 22 -133 22c-25 0 -47 -7 -71 -20z" />
    <glyph glyph-name="Ograve" unicode="&#xd2;" horiz-adv-x="661" 
d="M607 331c0 -229 -108 -343 -279 -343s-274 115 -274 343c0 257 148 346 284 346c144 0 269 -91 269 -346zM135 334c0 -132 36 -279 201 -279c145 0 190 137 190 273c0 118 -39 281 -191 281c-146 0 -200 -139 -200 -275zM269 896l152 -147l-24 -33
c-62 37 -115 66 -145 87c-18 13 -32 24 -32 42c0 21 26 38 49 51z" />
    <glyph glyph-name="Oacute" unicode="&#xd3;" horiz-adv-x="661" 
d="M607 331c0 -229 -108 -343 -279 -343s-274 115 -274 343c0 257 148 346 284 346c144 0 269 -91 269 -346zM135 334c0 -132 36 -279 201 -279c145 0 190 137 190 273c0 118 -39 281 -191 281c-146 0 -200 -139 -200 -275zM250 749l152 148c24 -13 49 -31 49 -52
c0 -18 -17 -31 -33 -42c-30 -21 -81 -50 -144 -87z" />
    <glyph glyph-name="Ocircumflex" unicode="&#xd4;" horiz-adv-x="661" 
d="M607 331c0 -229 -108 -343 -279 -343s-274 115 -274 343c0 257 148 346 284 346c144 0 269 -91 269 -346zM135 334c0 -132 36 -279 201 -279c145 0 190 137 190 273c0 118 -39 281 -191 281c-146 0 -200 -139 -200 -275zM214 716l-31 24c42 55 80 98 107 123
c18 17 30 22 44 22c13 0 27 -3 44 -20c29 -29 70 -73 109 -124l-31 -25l-122 88z" />
    <glyph glyph-name="Otilde" unicode="&#xd5;" horiz-adv-x="661" 
d="M607 331c0 -229 -108 -343 -279 -343s-274 115 -274 343c0 257 148 346 284 346c144 0 269 -91 269 -346zM135 334c0 -132 36 -279 201 -279c145 0 190 137 190 273c0 118 -39 281 -191 281c-146 0 -200 -139 -200 -275zM204 739l-7 57c24 19 54 27 80 27
c50 0 86 -25 130 -25c21 0 42 7 60 17l7 -60c-20 -11 -39 -18 -66 -18c-43 0 -95 22 -133 22c-25 0 -47 -7 -71 -20z" />
    <glyph glyph-name="Odieresis" unicode="&#xd6;" horiz-adv-x="661" 
d="M607 331c0 -229 -108 -343 -279 -343s-274 115 -274 343c0 257 148 346 284 346c144 0 269 -91 269 -346zM135 334c0 -132 36 -279 201 -279c145 0 190 137 190 273c0 118 -39 281 -191 281c-146 0 -200 -139 -200 -275zM378 781c0 29 21 51 52 51c29 0 51 -22 51 -51
c0 -31 -23 -52 -52 -52c-31 0 -51 21 -51 52zM190 781c0 29 21 51 52 51c29 0 51 -22 51 -51c0 -31 -23 -52 -52 -52c-30 0 -51 21 -51 52z" />
    <glyph glyph-name="Oslash" unicode="&#xd8;" horiz-adv-x="661" 
d="M162 -91l-59 29l52 107c-65 55 -101 151 -101 286c0 257 148 346 284 346c40 0 79 -7 114 -23l40 83l61 -28l-45 -92c59 -53 99 -144 99 -286c0 -229 -108 -343 -279 -343c-44 0 -83 7 -117 22zM135 334c0 -78 12 -160 56 -215l228 468c-23 14 -51 22 -84 22
c-146 0 -200 -139 -200 -275zM526 328c0 69 -14 154 -56 212l-227 -465c25 -13 56 -20 93 -20c145 0 190 137 190 273z" />
    <glyph glyph-name="Ugrave" unicode="&#xd9;" horiz-adv-x="629" 
d="M77 665h79v-458c0 -117 68 -152 162 -152c92 0 155 47 155 147v463h79v-478c0 -128 -97 -199 -239 -199c-155 0 -236 62 -236 217v460zM244 896l152 -147l-24 -33c-62 37 -115 66 -145 87c-18 13 -32 24 -32 42c0 21 26 38 49 51z" />
    <glyph glyph-name="Uacute" unicode="&#xda;" horiz-adv-x="629" 
d="M77 665h79v-458c0 -117 68 -152 162 -152c92 0 155 47 155 147v463h79v-478c0 -128 -97 -199 -239 -199c-155 0 -236 62 -236 217v460zM236 749l152 148c24 -13 49 -31 49 -52c0 -18 -17 -31 -33 -42c-30 -21 -81 -50 -144 -87z" />
    <glyph glyph-name="Ucircumflex" unicode="&#xdb;" horiz-adv-x="629" 
d="M77 665h79v-458c0 -117 68 -152 162 -152c92 0 155 47 155 147v463h79v-478c0 -128 -97 -199 -239 -199c-155 0 -236 62 -236 217v460zM192 716l-31 24c42 55 80 98 107 123c18 17 30 22 44 22c13 0 27 -3 44 -20c29 -29 70 -73 109 -124l-31 -25l-122 88z" />
    <glyph glyph-name="Udieresis" unicode="&#xdc;" horiz-adv-x="629" 
d="M77 665h79v-458c0 -117 68 -152 162 -152c92 0 155 47 155 147v463h79v-478c0 -128 -97 -199 -239 -199c-155 0 -236 62 -236 217v460zM355 781c0 29 21 51 52 51c29 0 51 -22 51 -51c0 -31 -23 -52 -52 -52c-31 0 -51 21 -51 52zM167 781c0 29 21 51 52 51
c29 0 51 -22 51 -51c0 -31 -23 -52 -52 -52c-30 0 -51 21 -51 52z" />
    <glyph glyph-name="Yacute" unicode="&#xdd;" horiz-adv-x="524" 
d="M434 665h84l-215 -412v-253h-79v253l-218 412h90l171 -331zM193 749l152 148c24 -13 49 -31 49 -52c0 -18 -17 -31 -33 -42c-30 -21 -81 -50 -144 -87z" />
    <glyph glyph-name="Thorn" unicode="&#xde;" horiz-adv-x="568" 
d="M159 139v-139h-79v665h79v-106h137c140 0 225 -68 225 -198c0 -149 -103 -222 -247 -222h-115zM159 203h100c107 0 180 39 180 146c0 132 -79 145 -207 145h-73v-291z" />
    <glyph glyph-name="germandbls" unicode="&#xdf;" horiz-adv-x="561" 
d="M363 -14c-50 0 -117 15 -152 40l28 57c31 -21 77 -37 121 -37c53 0 93 26 93 86c0 117 -177 108 -177 224c0 101 137 138 137 217c0 48 -45 78 -128 78c-85 0 -133 -41 -133 -127v-734h-78v727c0 111 52 195 220 195c143 0 194 -64 194 -134c0 -99 -138 -143 -138 -205
c0 -76 180 -89 180 -234c0 -104 -78 -153 -167 -153z" />
    <glyph glyph-name="agrave" unicode="&#xe0;" 
d="M462 479v-392l8 -87h-70l-6 59l-3 1c-25 -36 -68 -74 -146 -74c-139 0 -198 96 -198 241c0 177 85 284 251 284c31 0 100 -8 164 -32zM385 158v275c-18 8 -58 17 -100 17c-120 0 -161 -98 -161 -226c0 -87 26 -180 131 -180c84 0 130 58 130 114zM243 771l109 -181
l-31 -25c-53 48 -96 91 -120 118c-13 15 -22 29 -22 41c0 27 36 40 64 47z" />
    <glyph glyph-name="aacute" unicode="&#xe1;" 
d="M462 479v-392l8 -87h-70l-6 59l-3 1c-25 -36 -68 -74 -146 -74c-139 0 -198 96 -198 241c0 177 85 284 251 284c31 0 100 -8 164 -32zM385 158v275c-18 8 -58 17 -100 17c-120 0 -161 -98 -161 -226c0 -87 26 -180 131 -180c84 0 130 58 130 114zM216 590l110 181
c27 -7 62 -18 62 -45c0 -12 -9 -27 -22 -42c-24 -27 -67 -69 -119 -119z" />
    <glyph glyph-name="acircumflex" unicode="&#xe2;" 
d="M462 479v-392l8 -87h-70l-6 59l-3 1c-25 -36 -68 -74 -146 -74c-139 0 -198 96 -198 241c0 177 85 284 251 284c31 0 100 -8 164 -32zM385 158v275c-18 8 -58 17 -100 17c-120 0 -161 -98 -161 -226c0 -87 26 -180 131 -180c84 0 130 58 130 114zM171 585l-31 24
c41 60 75 106 97 134c13 17 25 27 45 27c19 0 32 -7 47 -26c24 -31 57 -74 96 -135l-31 -25l-112 102z" />
    <glyph glyph-name="atilde" unicode="&#xe3;" 
d="M462 479v-392l8 -87h-70l-6 59l-3 1c-25 -36 -68 -74 -146 -74c-139 0 -198 96 -198 241c0 177 85 284 251 284c31 0 100 -8 164 -32zM385 158v275c-18 8 -58 17 -100 17c-120 0 -161 -98 -161 -226c0 -87 26 -180 131 -180c84 0 130 58 130 114zM157 618l-7 57
c24 19 54 27 80 27c50 0 86 -25 130 -25c21 0 42 7 60 17l7 -60c-20 -11 -39 -18 -66 -18c-43 0 -95 22 -133 22c-25 0 -47 -6 -71 -20z" />
    <glyph glyph-name="adieresis" unicode="&#xe4;" 
d="M462 479v-392l8 -87h-70l-6 59l-3 1c-25 -36 -68 -74 -146 -74c-139 0 -198 96 -198 241c0 177 85 284 251 284c31 0 100 -8 164 -32zM385 158v275c-18 8 -58 17 -100 17c-120 0 -161 -98 -161 -226c0 -87 26 -180 131 -180c84 0 130 58 130 114zM327 652
c0 30 21 52 52 52c29 0 51 -22 51 -52c0 -31 -23 -52 -52 -52c-31 0 -51 21 -51 52zM147 652c0 30 21 52 52 52c29 0 51 -22 51 -52c0 -31 -23 -52 -52 -52c-30 0 -51 21 -51 52z" />
    <glyph glyph-name="aring" unicode="&#xe5;" 
d="M462 479v-392l8 -87h-70l-6 59l-3 1c-25 -36 -68 -74 -146 -74c-139 0 -198 96 -198 241c0 177 85 284 251 284c31 0 100 -8 164 -32zM385 158v275c-18 8 -58 17 -100 17c-120 0 -161 -98 -161 -226c0 -87 26 -180 131 -180c84 0 130 58 130 114zM199 660
c0 50 33 86 86 86c54 0 86 -36 86 -81c0 -53 -34 -90 -88 -90s-84 37 -84 85zM247 660c0 -27 11 -45 38 -45s38 19 38 45c0 28 -11 46 -38 46c-28 0 -38 -18 -38 -46z" />
    <glyph glyph-name="ae" unicode="&#xe6;" horiz-adv-x="736" 
d="M561 511c94 0 146 -50 146 -124c0 -163 -214 -175 -300 -171c2 -92 47 -168 148 -168c67 0 110 32 128 46l30 -53c-31 -26 -87 -55 -169 -55c-63 0 -113 22 -143 53c-35 -27 -91 -54 -148 -54c-151 0 -206 113 -206 247c0 175 85 279 243 279c43 0 102 -15 145 -38
c35 24 76 38 126 38zM277 451c-108 0 -153 -98 -153 -211c0 -102 35 -194 136 -194c43 0 80 15 107 38c-25 42 -38 95 -38 157c0 71 20 135 56 183c-26 13 -62 27 -108 27zM634 378c0 47 -31 75 -76 75c-107 0 -149 -103 -152 -182c54 -3 228 6 228 107z" />
    <glyph glyph-name="ccedilla" unicode="&#xe7;" horiz-adv-x="449" 
d="M275 50c42 0 83 14 123 46l33 -51c-32 -29 -87 -58 -158 -59l-15 -58c48 -3 84 -25 84 -74c0 -60 -51 -87 -106 -87c-26 0 -60 7 -82 18l13 42c15 -5 43 -13 66 -13c41 0 51 18 51 38c0 31 -31 40 -89 40l30 97c-116 17 -177 107 -177 260c0 203 124 262 218 262
c58 0 127 -19 173 -88l-52 -41c-34 45 -73 65 -120 65c-81 0 -141 -60 -141 -195c0 -118 42 -202 149 -202z" />
    <glyph glyph-name="egrave" unicode="&#xe8;" horiz-adv-x="455" 
d="M280 511c-152 0 -232 -122 -232 -270c0 -149 66 -255 222 -255c80 0 138 36 163 57l-30 51c-19 -14 -61 -46 -128 -46c-106 0 -146 86 -150 168c8 0 16 -1 26 -1c97 0 275 24 275 172c0 74 -53 124 -146 124zM353 378c0 -90 -140 -106 -208 -106c-8 0 -14 1 -20 1
c3 79 44 180 151 180c45 0 77 -28 77 -75zM222 771l109 -181l-31 -25c-53 48 -96 91 -120 118c-13 15 -22 29 -22 41c0 27 36 40 64 47z" />
    <glyph glyph-name="eacute" unicode="&#xe9;" horiz-adv-x="455" 
d="M280 511c93 0 146 -50 146 -124c0 -148 -178 -172 -275 -172c-10 0 -18 1 -26 1c4 -82 44 -168 150 -168c67 0 109 32 128 46l30 -51c-25 -21 -83 -57 -163 -57c-156 0 -222 106 -222 255c0 148 80 270 232 270zM353 378c0 47 -32 75 -77 75c-107 0 -148 -101 -151 -180
c6 0 12 -1 20 -1c68 0 208 16 208 106zM187 590l110 181c27 -7 62 -18 62 -45c0 -12 -9 -27 -22 -42c-24 -27 -67 -69 -119 -119z" />
    <glyph glyph-name="ecircumflex" unicode="&#xea;" horiz-adv-x="455" 
d="M280 511c-152 0 -232 -122 -232 -270c0 -149 66 -255 222 -255c80 0 138 36 163 57l-30 51c-19 -14 -61 -46 -128 -46c-106 0 -146 86 -150 168c8 0 16 -1 26 -1c97 0 275 24 275 172c0 74 -53 124 -146 124zM353 378c0 -90 -140 -106 -208 -106c-8 0 -14 1 -20 1
c3 79 44 180 151 180c45 0 77 -28 77 -75zM153 585l-31 24c41 60 75 106 97 134c13 17 25 27 45 27c19 0 32 -7 47 -26c24 -31 57 -74 96 -135l-31 -25l-112 102z" />
    <glyph glyph-name="edieresis" unicode="&#xeb;" horiz-adv-x="455" 
d="M280 511c-152 0 -232 -122 -232 -270c0 -149 66 -255 222 -255c80 0 138 36 163 57l-30 51c-19 -14 -61 -46 -128 -46c-106 0 -146 86 -150 168c8 0 16 -1 26 -1c97 0 275 24 275 172c0 74 -53 124 -146 124zM353 378c0 -90 -140 -106 -208 -106c-8 0 -14 1 -20 1
c3 79 44 180 151 180c45 0 77 -28 77 -75zM301 652c0 30 21 52 52 52c29 0 51 -22 51 -52c0 -31 -23 -52 -52 -52c-31 0 -51 21 -51 52zM121 652c0 30 21 52 52 52c29 0 51 -22 51 -52c0 -31 -23 -52 -52 -52c-30 0 -51 21 -51 52z" />
    <glyph glyph-name="igrave" unicode="&#xec;" horiz-adv-x="225" 
d="M153 0h-78v497h78v-497zM80 771l109 -181l-31 -25c-53 48 -96 91 -120 118c-13 15 -22 29 -22 41c0 27 36 40 64 47z" />
    <glyph glyph-name="iacute" unicode="&#xed;" horiz-adv-x="225" 
d="M153 0h-78v497h78v-497zM41 590l110 181c27 -7 62 -18 62 -45c0 -12 -9 -27 -22 -42c-24 -27 -67 -69 -119 -119z" />
    <glyph glyph-name="icircumflex" unicode="&#xee;" horiz-adv-x="225" 
d="M153 0h-78v497h78v-497zM2 585l-31 24c41 60 75 106 97 134c13 17 25 27 45 27c19 0 32 -7 47 -26c24 -31 57 -74 96 -135l-31 -25l-112 102z" />
    <glyph glyph-name="idieresis" unicode="&#xef;" horiz-adv-x="225" 
d="M153 0h-78v497h78v-497zM154 652c0 30 21 52 52 52c29 0 51 -22 51 -52c0 -31 -23 -52 -52 -52c-31 0 -51 21 -51 52zM-26 652c0 30 21 52 52 52c29 0 51 -22 51 -52c0 -31 -23 -52 -52 -52c-30 0 -51 21 -51 52z" />
    <glyph glyph-name="eth" unicode="&#xf0;" horiz-adv-x="507" 
d="M191 490l-31 45l93 64c-34 25 -76 43 -126 53l15 60c69 -12 125 -38 169 -74l105 72l31 -45l-96 -65c75 -85 106 -205 106 -322c0 -155 -58 -292 -213 -292c-139 0 -204 94 -204 222c0 133 79 236 204 236c47 0 93 -14 126 -36c-13 59 -31 104 -75 153zM118 206
c0 -97 46 -157 130 -157c85 0 137 84 137 224c0 18 -1 37 -3 56c-34 31 -86 52 -131 52c-99 0 -133 -78 -133 -175z" />
    <glyph glyph-name="ntilde" unicode="&#xf1;" horiz-adv-x="536" 
d="M152 0h-78v422l-5 75h67l9 -72c38 56 96 86 161 86c103 0 159 -58 159 -172v-339h-78v315c0 74 -16 134 -100 134c-77 0 -135 -63 -135 -123v-326zM148 618l-7 57c24 19 54 27 80 27c50 0 86 -25 130 -25c21 0 42 7 60 17l7 -60c-20 -11 -39 -18 -66 -18
c-43 0 -95 22 -133 22c-25 0 -47 -6 -71 -20z" />
    <glyph glyph-name="ograve" unicode="&#xf2;" horiz-adv-x="520" 
d="M258 46c-114 0 -134 117 -134 216c0 108 43 188 138 188c97 0 132 -84 132 -204c0 -109 -41 -200 -136 -200zM46 252c0 -180 78 -266 205 -266c125 0 222 82 222 277c0 226 -136 248 -205 248c-99 0 -222 -52 -222 -259zM226 771l109 -181l-31 -25
c-53 48 -96 91 -120 118c-13 15 -22 29 -22 41c0 27 36 40 64 47z" />
    <glyph glyph-name="oacute" unicode="&#xf3;" horiz-adv-x="520" 
d="M258 46c95 0 136 91 136 200c0 120 -35 204 -132 204c-95 0 -138 -80 -138 -188c0 -99 20 -216 134 -216zM46 252c0 207 123 259 222 259c69 0 205 -22 205 -248c0 -195 -97 -277 -222 -277c-127 0 -205 86 -205 266zM196 590l110 181c27 -7 62 -18 62 -45
c0 -12 -9 -27 -22 -42c-24 -27 -67 -69 -119 -119z" />
    <glyph glyph-name="ocircumflex" unicode="&#xf4;" horiz-adv-x="520" 
d="M258 46c-114 0 -134 117 -134 216c0 108 43 188 138 188c97 0 132 -84 132 -204c0 -109 -41 -200 -136 -200zM46 252c0 -180 78 -266 205 -266c125 0 222 82 222 277c0 226 -136 248 -205 248c-99 0 -222 -52 -222 -259zM151 585l-31 24c41 60 75 106 97 134
c13 17 25 27 45 27c19 0 32 -7 47 -26c24 -31 57 -74 96 -135l-31 -25l-112 102z" />
    <glyph glyph-name="otilde" unicode="&#xf5;" horiz-adv-x="520" 
d="M258 46c95 0 136 91 136 200c0 120 -35 204 -132 204c-95 0 -138 -80 -138 -188c0 -99 20 -216 134 -216zM46 252c0 207 123 259 222 259c69 0 205 -22 205 -248c0 -195 -97 -277 -222 -277c-127 0 -205 86 -205 266zM132 618l-7 57c24 19 54 27 80 27
c50 0 86 -25 130 -25c21 0 42 7 60 17l7 -60c-20 -11 -39 -18 -66 -18c-43 0 -95 22 -133 22c-25 0 -47 -6 -71 -20z" />
    <glyph glyph-name="odieresis" unicode="&#xf6;" horiz-adv-x="520" 
d="M258 46c-114 0 -134 117 -134 216c0 108 43 188 138 188c97 0 132 -84 132 -204c0 -109 -41 -200 -136 -200zM46 252c0 -180 78 -266 205 -266c125 0 222 82 222 277c0 226 -136 248 -205 248c-99 0 -222 -52 -222 -259zM302 652c0 30 21 52 52 52c29 0 51 -22 51 -52
c0 -31 -23 -52 -52 -52c-31 0 -51 21 -51 52zM122 652c0 30 21 52 52 52c29 0 51 -22 51 -52c0 -31 -23 -52 -52 -52c-30 0 -51 21 -51 52z" />
    <glyph glyph-name="oslash" unicode="&#xf8;" horiz-adv-x="520" 
d="M121 -77l-52 28l44 86c-43 44 -67 115 -67 215c0 207 123 259 222 259c23 0 53 -2 83 -14l41 79l53 -27l-43 -82c40 -35 71 -97 71 -204c0 -195 -97 -277 -222 -277c-33 0 -63 6 -89 17zM258 46c95 0 136 91 136 200c0 60 -9 111 -30 147l-171 -330c17 -11 38 -17 65 -17
zM262 450c-95 0 -138 -80 -138 -188c0 -52 5 -109 27 -152l169 327c-16 8 -36 13 -58 13z" />
    <glyph glyph-name="ugrave" unicode="&#xf9;" horiz-adv-x="537" 
d="M386 497h77v-424l7 -73h-69l-8 68h-2c-37 -57 -97 -82 -157 -82c-107 0 -161 56 -161 171v340h78v-318c0 -75 15 -132 103 -132c70 0 132 62 132 120v330zM221 771l109 -181l-31 -25c-53 48 -96 91 -120 118c-13 15 -22 29 -22 41c0 27 36 40 64 47z" />
    <glyph glyph-name="uacute" unicode="&#xfa;" horiz-adv-x="537" 
d="M386 497h77v-424l7 -73h-69l-8 68h-2c-37 -57 -97 -82 -157 -82c-107 0 -161 56 -161 171v340h78v-318c0 -75 15 -132 103 -132c70 0 132 62 132 120v330zM203 590l110 181c27 -7 62 -18 62 -45c0 -12 -9 -27 -22 -42c-24 -27 -67 -69 -119 -119z" />
    <glyph glyph-name="ucircumflex" unicode="&#xfb;" horiz-adv-x="537" 
d="M386 497h77v-424l7 -73h-69l-8 68h-2c-37 -57 -97 -82 -157 -82c-107 0 -161 56 -161 171v340h78v-318c0 -75 15 -132 103 -132c70 0 132 62 132 120v330zM154 585l-31 24c41 60 75 106 97 134c13 17 25 27 45 27c19 0 32 -7 47 -26c24 -31 57 -74 96 -135l-31 -25
l-112 102z" />
    <glyph glyph-name="udieresis" unicode="&#xfc;" horiz-adv-x="537" 
d="M386 497h77v-424l7 -73h-69l-8 68h-2c-37 -57 -97 -82 -157 -82c-107 0 -161 56 -161 171v340h78v-318c0 -75 15 -132 103 -132c70 0 132 62 132 120v330zM307 652c0 30 21 52 52 52c29 0 51 -22 51 -52c0 -31 -23 -52 -52 -52c-31 0 -51 21 -51 52zM127 652
c0 30 21 52 52 52c29 0 51 -22 51 -52c0 -31 -23 -52 -52 -52c-30 0 -51 21 -51 52z" />
    <glyph glyph-name="yacute" unicode="&#xfd;" horiz-adv-x="534" 
d="M462 20c0 -44 -4 -103 -13 -138c-25 -97 -89 -148 -195 -148c-102 0 -151 49 -151 126c0 81 61 139 110 171c-85 9 -140 50 -140 164v302h78v-281c0 -76 7 -134 113 -134c76 0 122 48 122 117v298h76v-477zM178 -130c0 -49 29 -76 84 -76c91 0 123 79 123 188v87
c-120 -50 -207 -104 -207 -199zM197 590l110 181c27 -7 62 -18 62 -45c0 -12 -9 -27 -22 -42c-24 -27 -67 -69 -119 -119z" />
    <glyph glyph-name="thorn" unicode="&#xfe;" horiz-adv-x="528" 
d="M150 22v-232h-78v905h78v-198c40 9 77 14 112 14c151 0 218 -91 218 -259c0 -173 -77 -269 -202 -269c-50 0 -96 17 -128 39zM402 242c0 108 -21 207 -150 207c-34 0 -74 -6 -102 -16v-341c28 -27 81 -48 123 -48c72 0 129 57 129 198z" />
    <glyph glyph-name="ydieresis" unicode="&#xff;" horiz-adv-x="534" 
d="M462 20c0 -44 -4 -103 -13 -138c-25 -97 -89 -148 -195 -148c-102 0 -151 49 -151 126c0 81 61 139 110 171c-85 9 -140 50 -140 164v302h78v-281c0 -76 7 -134 113 -134c76 0 122 48 122 117v298h76v-477zM178 -130c0 -49 29 -76 84 -76c91 0 123 79 123 188v87
c-120 -50 -207 -104 -207 -199zM310 652c0 30 21 52 52 52c29 0 51 -22 51 -52c0 -31 -23 -52 -52 -52c-31 0 -51 21 -51 52zM130 652c0 30 21 52 52 52c29 0 51 -22 51 -52c0 -31 -23 -52 -52 -52c-30 0 -51 21 -51 52z" />
    <glyph glyph-name="Amacron" unicode="&#x100;" horiz-adv-x="607" 
d="M98 0h-78l234 665h94l239 -665h-83l-73 205h-262zM299 594l-111 -325h224zM169 742v65h260v-65h-260z" />
    <glyph glyph-name="amacron" unicode="&#x101;" 
d="M462 479v-392l8 -87h-70l-6 59l-3 1c-25 -36 -68 -74 -146 -74c-139 0 -198 96 -198 241c0 177 85 284 251 284c31 0 100 -8 164 -32zM385 158v275c-18 8 -58 17 -100 17c-120 0 -161 -98 -161 -226c0 -87 26 -180 131 -180c84 0 130 58 130 114zM147 619v65h260v-65
h-260z" />
    <glyph glyph-name="Abreve" unicode="&#x102;" horiz-adv-x="607" 
d="M98 0h-78l234 665h94l239 -665h-83l-73 205h-262zM299 594l-111 -325h224zM400 856l57 -19c-22 -68 -66 -116 -162 -116c-88 0 -136 48 -154 116l58 19c19 -53 48 -78 100 -78s79 19 101 78z" />
    <glyph glyph-name="abreve" unicode="&#x103;" 
d="M462 479v-392l8 -87h-70l-6 59l-3 1c-25 -36 -68 -74 -146 -74c-139 0 -198 96 -198 241c0 177 85 284 251 284c31 0 100 -8 164 -32zM385 158v275c-18 8 -58 17 -100 17c-120 0 -161 -98 -161 -226c0 -87 26 -180 131 -180c84 0 130 58 130 114zM372 729l58 -11
c-24 -88 -77 -134 -154 -134c-89 0 -133 60 -149 134l60 11c19 -65 50 -87 92 -87c37 0 71 17 93 87z" />
    <glyph glyph-name="Aogonek" unicode="&#x104;" horiz-adv-x="607" 
d="M98 0h-78l234 665h94l239 -665c-48 -32 -88 -88 -88 -129c0 -31 11 -47 42 -47c20 0 36 5 51 11l15 -49c-19 -11 -51 -22 -85 -22c-73 0 -92 45 -92 88c0 60 43 114 74 148l-73 205h-262zM299 594l-111 -325h224z" />
    <glyph glyph-name="aogonek" unicode="&#x105;" 
d="M462 479v-392l8 -87c-40 -32 -72 -88 -72 -129c0 -31 11 -47 42 -47c20 0 36 5 51 11l15 -49c-19 -11 -51 -22 -85 -22c-73 0 -92 45 -92 88c0 60 39 115 71 148l-6 59l-3 1c-25 -36 -68 -74 -146 -74c-139 0 -198 96 -198 241c0 177 85 284 251 284c31 0 100 -8 164 -32
zM385 158v275c-18 8 -58 17 -100 17c-120 0 -161 -98 -161 -226c0 -87 26 -180 131 -180c84 0 130 58 130 114z" />
    <glyph glyph-name="Cacute" unicode="&#x106;" horiz-adv-x="588" 
d="M345 55c62 0 115 24 170 73l43 -52c-61 -58 -135 -88 -217 -88c-175 0 -287 111 -287 344c0 258 158 345 293 345c70 0 154 -23 216 -110l-56 -43c-43 51 -94 85 -163 85c-128 0 -209 -103 -209 -272c0 -175 67 -282 210 -282zM253 749l152 148c24 -13 49 -31 49 -52
c0 -18 -17 -31 -33 -42c-30 -21 -81 -50 -144 -87z" />
    <glyph glyph-name="cacute" unicode="&#x107;" horiz-adv-x="449" 
d="M275 50c42 0 83 14 123 46l33 -51c-32 -29 -89 -59 -162 -59c-144 0 -221 92 -221 263c0 203 124 262 218 262c58 0 127 -19 173 -88l-52 -41c-34 45 -73 65 -120 65c-81 0 -141 -60 -141 -195c0 -118 42 -202 149 -202zM193 590l110 181c27 -7 62 -18 62 -45
c0 -12 -9 -27 -22 -42c-24 -27 -67 -69 -119 -119z" />
    <glyph glyph-name="Ccircumflex" unicode="&#x108;" horiz-adv-x="588" 
d="M345 55c62 0 115 24 170 73l43 -52c-61 -58 -135 -88 -217 -88c-175 0 -287 111 -287 344c0 258 158 345 293 345c70 0 154 -23 216 -110l-56 -43c-43 51 -94 85 -163 85c-128 0 -209 -103 -209 -272c0 -175 67 -282 210 -282zM220 716l-31 24c42 55 80 98 107 123
c18 17 30 22 44 22c13 0 27 -3 44 -20c29 -29 70 -73 109 -124l-31 -25l-122 88z" />
    <glyph glyph-name="ccircumflex" unicode="&#x109;" horiz-adv-x="449" 
d="M275 50c42 0 83 14 123 46l33 -51c-32 -29 -89 -59 -162 -59c-144 0 -221 92 -221 263c0 203 124 262 218 262c58 0 127 -19 173 -88l-52 -41c-34 45 -73 65 -120 65c-81 0 -141 -60 -141 -195c0 -118 42 -202 149 -202zM153 585l-31 24c41 60 75 106 97 134
c13 17 25 27 45 27c19 0 32 -7 47 -26c24 -31 57 -74 96 -135l-31 -25l-112 102z" />
    <glyph glyph-name="Cdotaccent" unicode="&#x10a;" horiz-adv-x="588" 
d="M345 55c62 0 115 24 170 73l43 -52c-61 -58 -135 -88 -217 -88c-175 0 -287 111 -287 344c0 258 158 345 293 345c70 0 154 -23 216 -110l-56 -43c-43 51 -94 85 -163 85c-128 0 -209 -103 -209 -272c0 -175 67 -282 210 -282zM281 786c0 29 22 52 52 52
c29 0 52 -23 52 -52c0 -31 -23 -53 -53 -53s-51 22 -51 53z" />
    <glyph glyph-name="cdotaccent" unicode="&#x10b;" horiz-adv-x="449" 
d="M275 50c42 0 83 14 123 46l33 -51c-32 -29 -89 -59 -162 -59c-144 0 -221 92 -221 263c0 203 124 262 218 262c58 0 127 -19 173 -88l-52 -41c-34 45 -73 65 -120 65c-81 0 -141 -60 -141 -195c0 -118 42 -202 149 -202zM208 639c0 29 22 52 52 52c29 0 52 -23 52 -52
c0 -31 -23 -53 -53 -53s-51 22 -51 53z" />
    <glyph glyph-name="Ccaron" unicode="&#x10c;" horiz-adv-x="588" 
d="M345 55c62 0 115 24 170 73l43 -52c-61 -58 -135 -88 -217 -88c-175 0 -287 111 -287 344c0 258 158 345 293 345c70 0 154 -23 216 -110l-56 -43c-43 51 -94 85 -163 85c-128 0 -209 -103 -209 -272c0 -175 67 -282 210 -282zM452 885l31 -24c-42 -55 -80 -98 -107 -123
c-18 -17 -30 -22 -44 -22c-13 0 -27 3 -44 20c-29 29 -70 73 -109 124l31 25l122 -88z" />
    <glyph glyph-name="ccaron" unicode="&#x10d;" horiz-adv-x="449" 
d="M275 50c42 0 83 14 123 46l33 -51c-32 -29 -89 -59 -162 -59c-144 0 -221 92 -221 263c0 203 124 262 218 262c58 0 127 -19 173 -88l-52 -41c-34 45 -73 65 -120 65c-81 0 -141 -60 -141 -195c0 -118 42 -202 149 -202zM369 769l31 -23c-41 -61 -75 -107 -97 -135
c-14 -17 -26 -27 -46 -27c-19 0 -31 8 -46 26c-24 31 -57 75 -97 135l31 25l112 -102z" />
    <glyph glyph-name="Dcaron" unicode="&#x10e;" horiz-adv-x="642" 
d="M82 0v665h203c185 0 303 -103 303 -308c0 -264 -141 -357 -297 -357h-209zM161 601v-537h132c132 0 215 95 215 274c0 204 -100 263 -229 263h-118zM399 885l31 -24c-42 -55 -80 -98 -107 -123c-18 -17 -30 -22 -44 -22c-13 0 -27 3 -44 20c-29 29 -70 73 -109 124l31 25
l122 -88z" />
    <glyph glyph-name="dcaron" unicode="&#x10f;" horiz-adv-x="598" 
d="M282 511c40 0 71 -7 103 -18v202h77v-605l8 -90h-69l-7 60l-4 1c-39 -55 -94 -75 -147 -75c-146 0 -195 115 -195 248c0 168 84 277 234 277zM385 153v274c-23 12 -60 24 -106 24c-109 0 -154 -91 -154 -208c0 -103 28 -197 130 -197c82 0 130 57 130 107zM543 689
l1 -191l40 -7c14 44 32 112 38 159c1 5 1 11 1 17c0 23 -13 28 -36 28c-14 0 -31 -3 -44 -6z" />
    <glyph glyph-name="Dcroat" unicode="&#x110;" horiz-adv-x="642" 
d="M7 302v66h75v297h203c185 0 303 -103 303 -308c0 -264 -141 -357 -297 -357h-209v302h-75zM161 601v-233h190v-66h-190v-238h132c132 0 215 95 215 274c0 204 -100 263 -229 263h-118z" />
    <glyph glyph-name="dcroat" unicode="&#x111;" 
d="M207 571v56h178v68h77v-68h63v-56h-63v-481l8 -90h-69l-7 60l-4 1c-39 -55 -94 -75 -147 -75c-146 0 -195 115 -195 248c0 168 84 267 234 267c40 0 71 -7 103 -18v88h-178zM385 153v264c-23 12 -60 24 -106 24c-109 0 -154 -81 -154 -198c0 -103 28 -197 130 -197
c82 0 130 57 130 107z" />
    <glyph glyph-name="Emacron" unicode="&#x112;" horiz-adv-x="493" 
d="M82 0v665h372v-68h-293v-224h252v-68h-252v-237h300v-68h-379zM133 742v65h260v-65h-260z" />
    <glyph glyph-name="emacron" unicode="&#x113;" horiz-adv-x="455" 
d="M280 511c-152 0 -232 -122 -232 -270c0 -149 66 -255 222 -255c80 0 138 36 163 57l-30 51c-19 -14 -61 -46 -128 -46c-106 0 -146 86 -150 168c8 0 16 -1 26 -1c97 0 275 24 275 172c0 74 -53 124 -146 124zM353 378c0 -90 -140 -106 -208 -106c-8 0 -14 1 -20 1
c3 79 44 180 151 180c45 0 77 -28 77 -75zM131 619v65h260v-65h-260z" />
    <glyph glyph-name="Ebreve" unicode="&#x114;" horiz-adv-x="493" 
d="M82 0v665h372v-68h-293v-224h252v-68h-252v-237h300v-68h-379zM365 856l57 -19c-22 -68 -66 -116 -162 -116c-88 0 -136 48 -154 116l58 19c19 -53 48 -78 100 -78s79 19 101 78z" />
    <glyph glyph-name="ebreve" unicode="&#x115;" horiz-adv-x="455" 
d="M280 511c-152 0 -232 -122 -232 -270c0 -149 66 -255 222 -255c80 0 138 36 163 57l-30 51c-19 -14 -61 -46 -128 -46c-106 0 -146 86 -150 168c8 0 16 -1 26 -1c97 0 275 24 275 172c0 74 -53 124 -146 124zM353 378c0 -90 -140 -106 -208 -106c-8 0 -14 1 -20 1
c3 79 44 180 151 180c45 0 77 -28 77 -75zM353 729l58 -11c-24 -88 -77 -134 -154 -134c-89 0 -133 60 -149 134l60 11c19 -65 50 -87 92 -87c37 0 71 17 93 87z" />
    <glyph glyph-name="Edotaccent" unicode="&#x116;" horiz-adv-x="493" 
d="M82 0v665h372v-68h-293v-224h252v-68h-252v-237h300v-68h-379zM217 786c0 29 22 52 52 52c29 0 52 -23 52 -52c0 -31 -23 -53 -53 -53s-51 22 -51 53z" />
    <glyph glyph-name="edotaccent" unicode="&#x117;" horiz-adv-x="455" 
d="M280 511c-152 0 -232 -122 -232 -270c0 -149 66 -255 222 -255c80 0 138 36 163 57l-30 51c-19 -14 -61 -46 -128 -46c-106 0 -146 86 -150 168c8 0 16 -1 26 -1c97 0 275 24 275 172c0 74 -53 124 -146 124zM353 378c0 -90 -140 -106 -208 -106c-8 0 -14 1 -20 1
c3 79 44 180 151 180c45 0 77 -28 77 -75zM211 639c0 29 22 52 52 52c29 0 52 -23 52 -52c0 -31 -23 -53 -53 -53s-51 22 -51 53z" />
    <glyph glyph-name="Eogonek" unicode="&#x118;" horiz-adv-x="493" 
d="M82 0v665h372v-68h-293v-224h252v-68h-252v-237h300v-68c-81 -32 -112 -88 -112 -129c0 -31 11 -47 42 -47c20 0 36 5 51 11l15 -49c-19 -11 -51 -22 -85 -22c-73 0 -92 45 -92 88c0 60 42 114 85 148h-283z" />
    <glyph glyph-name="eogonek" unicode="&#x119;" horiz-adv-x="455" 
d="M280 511c93 0 146 -50 146 -124c0 -148 -178 -172 -275 -172c-10 0 -18 1 -26 1c4 -82 44 -168 150 -168c67 0 109 32 128 46l30 -51c-15 -13 -38 -28 -70 -49c-43 -28 -78 -78 -78 -123c0 -31 11 -47 42 -47c20 0 36 5 51 11l15 -49c-19 -11 -51 -22 -85 -22
c-73 0 -92 45 -92 88c0 52 30 101 60 134h-6c-156 0 -222 106 -222 255c0 148 80 270 232 270zM353 378c0 47 -32 75 -77 75c-107 0 -148 -101 -151 -180c6 0 12 -1 20 -1c68 0 208 16 208 106z" />
    <glyph glyph-name="Ecaron" unicode="&#x11a;" horiz-adv-x="493" 
d="M82 0v665h372v-68h-293v-224h252v-68h-252v-237h300v-68h-379zM385 885l31 -24c-42 -55 -80 -98 -107 -123c-18 -17 -30 -22 -44 -22c-13 0 -27 3 -44 20c-29 29 -70 73 -109 124l31 25l122 -88z" />
    <glyph glyph-name="ecaron" unicode="&#x11b;" horiz-adv-x="455" 
d="M280 511c-152 0 -232 -122 -232 -270c0 -149 66 -255 222 -255c80 0 138 36 163 57l-30 51c-19 -14 -61 -46 -128 -46c-106 0 -146 86 -150 168c8 0 16 -1 26 -1c97 0 275 24 275 172c0 74 -53 124 -146 124zM353 378c0 -90 -140 -106 -208 -106c-8 0 -14 1 -20 1
c3 79 44 180 151 180c45 0 77 -28 77 -75zM376 769l31 -23c-41 -61 -75 -107 -97 -135c-14 -17 -26 -27 -46 -27c-19 0 -31 8 -46 26c-24 31 -57 75 -97 135l31 25l112 -102z" />
    <glyph glyph-name="Gcircumflex" unicode="&#x11c;" horiz-adv-x="621" 
d="M558 354v-305c-55 -37 -134 -61 -221 -61c-175 0 -283 111 -283 343c0 259 150 346 283 346c68 0 155 -21 223 -108l-57 -45c-44 52 -96 85 -167 85c-126 0 -201 -103 -201 -271c0 -180 64 -285 209 -285c52 0 111 18 135 35v198h-151v68h230zM216 716l-31 24
c42 55 80 98 107 123c18 17 30 22 44 22c13 0 27 -3 44 -20c29 -29 70 -73 109 -124l-31 -25l-122 88z" />
    <glyph glyph-name="gcircumflex" unicode="&#x11d;" horiz-adv-x="536" 
d="M254 -263c-103 0 -157 48 -157 129c0 85 58 138 130 178c-91 7 -179 58 -179 217c0 168 98 250 233 250c54 0 128 -11 184 -35v-374c0 -43 -1 -94 -3 -137c-8 -141 -74 -228 -208 -228zM388 211v223c-30 10 -67 18 -116 18c-89 0 -147 -62 -147 -183
c0 -80 14 -178 136 -178c77 0 127 46 127 120zM172 -124c0 -57 35 -79 89 -79c99 0 126 92 126 204v77c-147 -69 -215 -124 -215 -202zM159 585l-31 24c41 60 75 106 97 134c13 17 25 27 45 27c19 0 32 -7 47 -26c24 -31 57 -74 96 -135l-31 -25l-112 102z" />
    <glyph glyph-name="Gbreve" unicode="&#x11e;" horiz-adv-x="621" 
d="M558 354v-305c-55 -37 -134 -61 -221 -61c-175 0 -283 111 -283 343c0 259 150 346 283 346c68 0 155 -21 223 -108l-57 -45c-44 52 -96 85 -167 85c-126 0 -201 -103 -201 -271c0 -180 64 -285 209 -285c52 0 111 18 135 35v198h-151v68h230zM435 856l57 -19
c-22 -68 -66 -116 -162 -116c-88 0 -136 48 -154 116l58 19c19 -53 48 -78 100 -78s79 19 101 78z" />
    <glyph glyph-name="gbreve" unicode="&#x11f;" horiz-adv-x="536" 
d="M254 -263c-103 0 -157 48 -157 129c0 85 58 138 130 178c-91 7 -179 58 -179 217c0 168 98 250 233 250c54 0 128 -11 184 -35v-374c0 -43 -1 -94 -3 -137c-8 -141 -74 -228 -208 -228zM388 211v223c-30 10 -67 18 -116 18c-89 0 -147 -62 -147 -183
c0 -80 14 -178 136 -178c77 0 127 46 127 120zM172 -124c0 -57 35 -79 89 -79c99 0 126 92 126 204v77c-147 -69 -215 -124 -215 -202zM372 729l58 -11c-24 -88 -77 -134 -154 -134c-89 0 -133 60 -149 134l60 11c19 -65 50 -87 92 -87c37 0 71 17 93 87z" />
    <glyph glyph-name="Gdotaccent" unicode="&#x120;" horiz-adv-x="621" 
d="M558 354v-305c-55 -37 -134 -61 -221 -61c-175 0 -283 111 -283 343c0 259 150 346 283 346c68 0 155 -21 223 -108l-57 -45c-44 52 -96 85 -167 85c-126 0 -201 -103 -201 -271c0 -180 64 -285 209 -285c52 0 111 18 135 35v198h-151v68h230zM281 786c0 29 22 52 52 52
c29 0 52 -23 52 -52c0 -31 -23 -53 -53 -53s-51 22 -51 53z" />
    <glyph glyph-name="gdotaccent" unicode="&#x121;" horiz-adv-x="536" 
d="M254 -263c-103 0 -157 48 -157 129c0 85 58 138 130 178c-91 7 -179 58 -179 217c0 168 98 250 233 250c54 0 128 -11 184 -35v-374c0 -43 -1 -94 -3 -137c-8 -141 -74 -228 -208 -228zM388 211v223c-30 10 -67 18 -116 18c-89 0 -147 -62 -147 -183
c0 -80 14 -178 136 -178c77 0 127 46 127 120zM172 -124c0 -57 35 -79 89 -79c99 0 126 92 126 204v77c-147 -69 -215 -124 -215 -202zM227 639c0 29 22 52 52 52c29 0 52 -23 52 -52c0 -31 -23 -53 -53 -53s-51 22 -51 53z" />
    <glyph glyph-name="Gcommaaccent" unicode="&#x122;" horiz-adv-x="621" 
d="M558 354v-305c-55 -37 -134 -61 -221 -61c-175 0 -283 111 -283 343c0 259 150 346 283 346c68 0 155 -21 223 -108l-57 -45c-44 52 -96 85 -167 85c-126 0 -201 -103 -201 -271c0 -180 64 -285 209 -285c52 0 111 18 135 35v198h-151v68h230zM304 -70l-58 -187l37 -18
c38 59 61 96 78 129c6 11 13 28 14 40c0 32 -41 35 -71 36z" />
    <glyph glyph-name="gcommaaccent" unicode="&#x123;" horiz-adv-x="536" 
d="M357 763l-58 -187c-30 1 -71 4 -71 36c1 12 8 29 14 40c17 33 40 70 78 129zM254 -263c-103 0 -157 48 -157 129c0 85 58 138 130 178c-91 7 -179 58 -179 217c0 168 98 250 233 250c54 0 128 -11 184 -35v-374c0 -43 -1 -94 -3 -137c-8 -141 -74 -228 -208 -228z
M388 211v223c-30 10 -67 18 -116 18c-89 0 -147 -62 -147 -183c0 -80 14 -178 136 -178c77 0 127 46 127 120zM172 -124c0 -57 35 -79 89 -79c99 0 126 92 126 204v77c-147 -69 -215 -124 -215 -202z" />
    <glyph glyph-name="Hcircumflex" unicode="&#x124;" horiz-adv-x="669" 
d="M508 665h79v-665h-79v312h-347v-312h-79v665h79v-284h347v284zM209 716l-31 24c42 55 80 98 107 123c18 17 30 22 44 22c13 0 27 -3 44 -20c29 -29 70 -73 109 -124l-31 -25l-122 88z" />
    <glyph glyph-name="hcircumflex" unicode="&#x125;" horiz-adv-x="534" 
d="M150 0h-77v695h77v-259c44 53 98 75 154 75c104 0 159 -58 159 -172v-339h-78v318c0 70 -15 131 -102 131c-73 0 -133 -63 -133 -123v-326zM108 716l-31 24c42 55 80 98 107 123c18 17 30 22 44 22c13 0 27 -3 44 -20c29 -29 70 -73 109 -124l-31 -25l-122 88z" />
    <glyph glyph-name="Hbar" unicode="&#x126;" horiz-adv-x="667" 
d="M506 665h79v-118h70v-56h-70v-491h-79v312h-347v-312h-79v491h-70v56h70v118h79v-118h347v118zM159 381h347v110h-347v-110z" />
    <glyph glyph-name="hbar" unicode="&#x127;" horiz-adv-x="533" 
d="M8 571v56h63v68h78v-68h178v-56h-178v-142c42 52 98 74 153 74c105 0 159 -58 159 -172v-331h-77v310c0 71 -15 132 -103 132c-73 0 -132 -63 -132 -124v-318h-78v571h-63z" />
    <glyph glyph-name="Itilde" unicode="&#x128;" horiz-adv-x="245" 
d="M162 0h-79v665h79v-665zM-7 739l-7 57c24 19 54 27 80 27c50 0 86 -25 130 -25c21 0 42 7 60 17l7 -60c-20 -11 -39 -18 -66 -18c-43 0 -95 22 -133 22c-25 0 -47 -7 -71 -20z" />
    <glyph glyph-name="itilde" unicode="&#x129;" horiz-adv-x="225" 
d="M153 0h-78v497h78v-497zM-17 618l-7 57c24 19 54 27 80 27c50 0 86 -25 130 -25c21 0 42 7 60 17l7 -60c-20 -11 -39 -18 -66 -18c-43 0 -95 22 -133 22c-25 0 -47 -6 -71 -20z" />
    <glyph glyph-name="Imacron" unicode="&#x12a;" horiz-adv-x="245" 
d="M162 0h-79v665h79v-665zM-7 742v65h260v-65h-260z" />
    <glyph glyph-name="imacron" unicode="&#x12b;" horiz-adv-x="225" 
d="M153 0h-78v497h78v-497zM-16 619v65h260v-65h-260z" />
    <glyph glyph-name="Ibreve" unicode="&#x12c;" horiz-adv-x="245" 
d="M162 0h-79v665h79v-665zM223 856l57 -19c-22 -68 -66 -116 -162 -116c-88 0 -136 48 -154 116l58 19c19 -53 48 -78 100 -78s79 19 101 78z" />
    <glyph glyph-name="ibreve" unicode="&#x12d;" horiz-adv-x="225" 
d="M153 0h-78v497h78v-497zM208 729l58 -11c-24 -88 -77 -134 -154 -134c-89 0 -133 60 -149 134l60 11c19 -65 50 -87 92 -87c37 0 71 17 93 87z" />
    <glyph glyph-name="Iogonek" unicode="&#x12e;" horiz-adv-x="245" 
d="M162 0c-44 -32 -80 -88 -80 -129c0 -31 11 -47 42 -47c20 0 36 5 51 11l15 -49c-19 -11 -51 -22 -85 -22c-73 0 -92 45 -92 88c0 60 40 113 70 148v665h79v-665z" />
    <glyph glyph-name="iogonek" unicode="&#x12f;" horiz-adv-x="225" 
d="M153 0c-44 -32 -80 -88 -80 -129c0 -31 11 -47 42 -47c20 0 36 5 51 11l15 -49c-19 -11 -51 -22 -85 -22c-73 0 -92 45 -92 88c0 60 37 114 71 148v497h78v-497zM62 639c0 29 22 52 52 52c29 0 52 -23 52 -52c0 -31 -23 -53 -53 -53s-51 22 -51 53z" />
    <glyph glyph-name="Idotaccent" unicode="&#x130;" horiz-adv-x="245" 
d="M162 0h-79v665h79v-665zM71 786c0 29 22 52 52 52c29 0 52 -23 52 -52c0 -31 -23 -53 -53 -53s-51 22 -51 53z" />
    <glyph glyph-name="dotlessi" unicode="&#x131;" horiz-adv-x="225" 
d="M153 0h-78v497h78v-497z" />
    <glyph glyph-name="IJ" unicode="&#x132;" horiz-adv-x="663" 
d="M162 0h-79v665h79v-665zM256 45l40 56c31 -24 67 -46 115 -46c73 0 92 44 92 102v508h79v-414c0 -36 0 -75 -2 -111c-4 -96 -53 -152 -166 -152c-78 0 -135 32 -158 57z" />
    <glyph glyph-name="ij" unicode="&#x133;" horiz-adv-x="450" 
d="M153 0h-78v497h78v-497zM62 639c0 29 22 52 52 52c29 0 52 -23 52 -52c0 -31 -23 -53 -53 -53s-51 22 -51 53zM300 -61v558h78v-540c0 -95 -7 -180 -135 -180c-35 0 -87 10 -117 30l25 57c26 -15 52 -24 83 -24c45 0 66 24 66 99zM289 639c0 29 22 52 52 52
s52 -23 52 -52c0 -31 -23 -53 -53 -53s-51 22 -51 53z" />
    <glyph glyph-name="Jcircumflex" unicode="&#x134;" horiz-adv-x="418" 
d="M11 45l40 56c31 -24 67 -46 115 -46c73 0 92 44 92 102v508h79v-414c0 -36 0 -75 -2 -111c-4 -96 -53 -152 -166 -152c-78 0 -135 32 -158 57zM178 716l-31 24c42 55 80 98 107 123c18 17 30 22 44 22c13 0 27 -3 44 -20c29 -29 70 -73 109 -124l-31 -25l-122 88z" />
    <glyph glyph-name="jcircumflex" unicode="&#x135;" horiz-adv-x="225" 
d="M75 -61v558h78v-540c0 -95 -7 -180 -135 -180c-35 0 -87 10 -117 30l25 57c26 -15 52 -24 83 -24c45 0 66 24 66 99zM2 585l-31 24c41 60 75 106 97 134c13 17 25 27 45 27c19 0 32 -7 47 -26c24 -31 57 -74 96 -135l-31 -25l-112 102z" />
    <glyph glyph-name="Kcommaaccent" unicode="&#x136;" horiz-adv-x="566" 
d="M534 665l-191 -261l211 -404h-89l-177 339l-128 -169v-170h-78v665h78v-388l286 388h88zM267 -70l-58 -187l37 -18c38 59 61 96 78 129c6 11 13 28 14 40c0 32 -41 35 -71 36z" />
    <glyph glyph-name="kcommaaccent" unicode="&#x137;" horiz-adv-x="480" 
d="M450 392c0 -55 -29 -141 -126 -188l124 -204h-91l-107 179c-29 -6 -61 -10 -98 -10v-169h-78v695h78v-324c26 68 90 140 180 140c65 0 118 -39 118 -119zM372 384c0 41 -23 62 -56 62c-76 0 -149 -120 -164 -220c136 -3 220 59 220 158zM215 -70l-58 -187l37 -18
c38 59 61 96 78 129c6 11 13 28 14 40c0 32 -41 35 -71 36z" />
    <glyph glyph-name="kgreenlandic" unicode="&#x138;" horiz-adv-x="469" 
d="M364 -8l-127 214c-25 -9 -54 -15 -85 -19v-187h-78v497h78v-126c26 68 85 140 175 140c60 0 111 -35 111 -106c0 -68 -47 -134 -127 -175l144 -238h-91zM360 396c0 33 -17 50 -50 50c-73 0 -139 -124 -158 -202c96 11 208 69 208 152z" />
    <glyph glyph-name="Lacute" unicode="&#x139;" horiz-adv-x="487" 
d="M84 0v665h78v-597h297v-68h-375zM60 749l152 148c24 -13 49 -31 49 -52c0 -18 -17 -31 -33 -42c-30 -21 -81 -50 -144 -87z" />
    <glyph glyph-name="lacute" unicode="&#x13a;" horiz-adv-x="302" 
d="M75 695h77v-555c0 -67 13 -92 63 -92c23 0 47 7 67 17l18 -54c-21 -14 -61 -25 -102 -25c-117 0 -123 77 -123 143v566zM50 754l152 148c24 -13 49 -31 49 -52c0 -18 -17 -31 -33 -42c-30 -21 -81 -50 -144 -87z" />
    <glyph glyph-name="Lcommaaccent" unicode="&#x13b;" horiz-adv-x="487" 
d="M84 0v665h78v-597h297v-68h-375zM232 -70l-58 -187l37 -18c38 59 61 96 78 129c6 11 13 28 14 40c0 32 -41 35 -71 36z" />
    <glyph glyph-name="lcommaaccent" unicode="&#x13c;" horiz-adv-x="302" 
d="M75 695h77v-555c0 -67 13 -92 63 -92c23 0 47 7 67 17l18 -54c-21 -14 -61 -25 -102 -25c-117 0 -123 77 -123 143v566zM153 -70l-58 -187l37 -18c38 59 61 96 78 129c6 11 13 28 14 40c0 32 -41 35 -71 36z" />
    <glyph glyph-name="Lcaron" unicode="&#x13d;" horiz-adv-x="487" 
d="M84 0v665h78v-597h297v-68h-375zM306 659l1 -191l40 -7c14 44 32 112 38 159c1 5 1 11 1 17c0 23 -13 28 -36 28c-14 0 -31 -3 -44 -6z" />
    <glyph glyph-name="lcaron" unicode="&#x13e;" horiz-adv-x="302" 
d="M75 695h77v-555c0 -67 13 -92 63 -92c23 0 47 7 67 17l18 -54c-21 -14 -61 -25 -102 -25c-117 0 -123 77 -123 143v566zM223 500l-1 191c13 3 30 6 44 6c23 0 36 -5 36 -28c0 -6 0 -12 -1 -17c-6 -47 -24 -115 -38 -159z" />
    <glyph glyph-name="Ldot" unicode="&#x13f;" horiz-adv-x="487" 
d="M84 0v665h78v-597h297v-68h-375zM298 357c0 29 22 52 52 52c29 0 52 -23 52 -52c0 -31 -23 -53 -53 -53s-51 22 -51 53z" />
    <glyph glyph-name="ldot" unicode="&#x140;" horiz-adv-x="338" 
d="M75 695h77v-555c0 -67 13 -92 63 -92c23 0 47 7 67 17l18 -54c-21 -14 -61 -25 -102 -25c-117 0 -123 77 -123 143v566zM238 355c0 29 22 52 52 52c29 0 52 -23 52 -52c0 -31 -23 -53 -53 -53s-51 22 -51 53z" />
    <glyph glyph-name="Lslash" unicode="&#x141;" horiz-adv-x="487" 
d="M11 220l-27 56l100 54v335h78v-298l194 100l27 -56l-221 -114v-229h297v-68h-375v259z" />
    <glyph glyph-name="lslash" unicode="&#x142;" horiz-adv-x="337" 
d="M110 695h77v-285l104 82l33 -48l-137 -107v-197c0 -67 13 -92 63 -92c23 0 47 7 67 17l18 -54c-21 -14 -61 -25 -102 -25c-117 0 -123 77 -123 143v154l-77 -61l-33 48l110 87v338z" />
    <glyph glyph-name="Nacute" unicode="&#x143;" horiz-adv-x="668" 
d="M508 665h78v-665h-86l-339 556h-1v-556h-78v665h92l333 -548h1v548zM254 749l152 148c24 -13 49 -31 49 -52c0 -18 -17 -31 -33 -42c-30 -21 -81 -50 -144 -87z" />
    <glyph glyph-name="nacute" unicode="&#x144;" horiz-adv-x="536" 
d="M152 0h-78v422l-5 75h67l9 -72c38 56 96 86 161 86c103 0 159 -58 159 -172v-339h-78v315c0 74 -16 134 -100 134c-77 0 -135 -63 -135 -123v-326zM204 590l110 181c27 -7 62 -18 62 -45c0 -12 -9 -27 -22 -42c-24 -27 -67 -69 -119 -119z" />
    <glyph glyph-name="Ncommaaccent" unicode="&#x145;" horiz-adv-x="668" 
d="M508 665h78v-665h-86l-339 556h-1v-556h-78v665h92l333 -548h1v548zM309 -70l-58 -187l37 -18c38 59 61 96 78 129c6 11 13 28 14 40c0 32 -41 35 -71 36z" />
    <glyph glyph-name="ncommaaccent" unicode="&#x146;" horiz-adv-x="536" 
d="M152 0h-78v422l-5 75h67l9 -72c38 56 96 86 161 86c103 0 159 -58 159 -172v-339h-78v315c0 74 -16 134 -100 134c-77 0 -135 -63 -135 -123v-326zM246 -70l-58 -187l37 -18c38 59 61 96 78 129c6 11 13 28 14 40c0 32 -41 35 -71 36z" />
    <glyph glyph-name="Ncaron" unicode="&#x147;" horiz-adv-x="668" 
d="M508 665h78v-665h-86l-339 556h-1v-556h-78v665h92l333 -548h1v548zM451 885l31 -24c-42 -55 -80 -98 -107 -123c-18 -17 -30 -22 -44 -22c-13 0 -27 3 -44 20c-29 29 -70 73 -109 124l31 25l122 -88z" />
    <glyph glyph-name="ncaron" unicode="&#x148;" horiz-adv-x="536" 
d="M152 0h-78v422l-5 75h67l9 -72c38 56 96 86 161 86c103 0 159 -58 159 -172v-339h-78v315c0 74 -16 134 -100 134c-77 0 -135 -63 -135 -123v-326zM386 769l31 -23c-41 -61 -75 -107 -97 -135c-14 -17 -26 -27 -46 -27c-19 0 -31 8 -46 26c-24 31 -57 75 -97 135l31 25
l112 -102z" />
    <glyph glyph-name="napostrophe" unicode="&#x149;" horiz-adv-x="536" 
d="M152 0h-78v422l-5 75h67l9 -72c38 56 96 86 161 86c103 0 159 -58 159 -172v-339h-78v315c0 74 -16 134 -100 134c-77 0 -135 -63 -135 -123v-326zM31 570l35 192c10 1 23 2 33 2c23 -1 41 -4 41 -26c0 -11 -3 -24 -8 -39c-14 -39 -38 -91 -65 -141z" />
    <glyph glyph-name="Eng" unicode="&#x14a;" horiz-adv-x="662" 
d="M504 665h78v-713c0 -98 -34 -165 -158 -165c-68 0 -129 31 -153 56l39 52c29 -24 64 -43 113 -43c63 0 82 44 82 101v34l-348 569h-1v-556h-78v665h92l333 -548h1v548z" />
    <glyph glyph-name="eng" unicode="&#x14b;" horiz-adv-x="529" 
d="M145 0h-78v422l-6 75h67l10 -72c38 56 99 86 161 86c103 0 158 -58 158 -172v-388c0 -95 -8 -174 -132 -174c-37 0 -89 10 -119 30l23 57c27 -15 58 -24 87 -24c44 0 64 20 64 95v380c0 75 -16 135 -103 135c-71 0 -132 -64 -132 -124v-326z" />
    <glyph glyph-name="Omacron" unicode="&#x14c;" horiz-adv-x="661" 
d="M607 331c0 -229 -108 -343 -279 -343s-274 115 -274 343c0 257 148 346 284 346c144 0 269 -91 269 -346zM135 334c0 -132 36 -279 201 -279c145 0 190 137 190 273c0 118 -39 281 -191 281c-146 0 -200 -139 -200 -275zM203 742v65h260v-65h-260z" />
    <glyph glyph-name="omacron" unicode="&#x14d;" horiz-adv-x="520" 
d="M258 46c-114 0 -134 117 -134 216c0 108 43 188 138 188c97 0 132 -84 132 -204c0 -109 -41 -200 -136 -200zM46 252c0 -180 78 -266 205 -266c125 0 222 82 222 277c0 226 -136 248 -205 248c-99 0 -222 -52 -222 -259zM133 619v65h260v-65h-260z" />
    <glyph glyph-name="Obreve" unicode="&#x14e;" horiz-adv-x="661" 
d="M607 331c0 -229 -108 -343 -279 -343s-274 115 -274 343c0 257 148 346 284 346c144 0 269 -91 269 -346zM135 334c0 -132 36 -279 201 -279c145 0 190 137 190 273c0 118 -39 281 -191 281c-146 0 -200 -139 -200 -275zM435 856l57 -19c-22 -68 -66 -116 -162 -116
c-88 0 -136 48 -154 116l58 19c19 -53 48 -78 100 -78s79 19 101 78z" />
    <glyph glyph-name="obreve" unicode="&#x14f;" horiz-adv-x="520" 
d="M258 46c-114 0 -134 117 -134 216c0 108 43 188 138 188c97 0 132 -84 132 -204c0 -109 -41 -200 -136 -200zM46 252c0 -180 78 -266 205 -266c125 0 222 82 222 277c0 226 -136 248 -205 248c-99 0 -222 -52 -222 -259zM356 729l58 -11c-24 -88 -77 -134 -154 -134
c-89 0 -133 60 -149 134l60 11c19 -65 50 -87 92 -87c37 0 71 17 93 87z" />
    <glyph glyph-name="Ohungarumlaut" unicode="&#x150;" horiz-adv-x="661" 
d="M607 331c0 -229 -108 -343 -279 -343s-274 115 -274 343c0 257 148 346 284 346c144 0 269 -91 269 -346zM135 334c0 -132 36 -279 201 -279c145 0 190 137 190 273c0 118 -39 281 -191 281c-146 0 -200 -139 -200 -275zM187 739l157 144c22 -14 47 -32 47 -53
c0 -18 -16 -29 -34 -41c-30 -20 -83 -48 -147 -83zM374 739l156 144c22 -14 47 -32 47 -53c0 -18 -16 -30 -34 -41c-31 -19 -82 -48 -146 -83z" />
    <glyph glyph-name="ohungarumlaut" unicode="&#x151;" horiz-adv-x="520" 
d="M258 46c95 0 136 91 136 200c0 120 -35 204 -132 204c-95 0 -138 -80 -138 -188c0 -99 20 -216 134 -216zM46 252c0 207 123 259 222 259c69 0 205 -22 205 -248c0 -195 -97 -277 -222 -277c-127 0 -205 86 -205 266zM137 590l110 181c28 -7 62 -18 62 -45
c0 -12 -9 -27 -22 -42c-24 -27 -66 -69 -118 -119zM288 590l109 181c28 -7 62 -18 62 -45c0 -12 -9 -27 -22 -42c-24 -27 -66 -69 -118 -119z" />
    <glyph glyph-name="OE" unicode="&#x152;" horiz-adv-x="857" 
d="M354 677c31 0 66 -5 96 -12h369v-68h-294v-224h252v-68h-252v-237h301v-68h-377c-31 -7 -68 -13 -105 -13c-180 0 -290 116 -290 344c0 257 156 346 300 346zM135 334c0 -133 44 -280 219 -280c36 0 68 6 92 16v520c-27 12 -58 19 -92 19c-157 0 -219 -139 -219 -275z
" />
    <glyph glyph-name="oe" unicode="&#x153;" horiz-adv-x="799" 
d="M624 511c93 0 145 -50 145 -124c0 -163 -214 -175 -300 -171c3 -82 44 -168 150 -168c67 0 109 32 127 46l30 -53c-25 -21 -82 -55 -162 -55c-93 0 -156 44 -186 111c-34 -74 -101 -111 -178 -111c-125 0 -202 85 -202 265c0 207 122 260 219 260c52 0 133 -16 171 -114
c35 72 102 114 186 114zM260 46c95 0 136 90 136 199c0 120 -35 205 -132 205c-95 0 -138 -81 -138 -189c0 -99 20 -215 134 -215zM696 378c0 47 -31 75 -76 75c-107 0 -149 -103 -152 -182c54 -3 228 6 228 107z" />
    <glyph glyph-name="Racute" unicode="&#x154;" horiz-adv-x="585" 
d="M161 273v-273h-79v665h211c140 0 226 -49 226 -179c0 -114 -69 -164 -126 -183c35 -10 45 -26 64 -68l108 -235h-84l-98 209c-17 36 -36 64 -77 64h-145zM161 337h130c90 0 147 51 147 143c0 111 -68 121 -190 121h-87v-264zM204 749l152 148c24 -13 49 -31 49 -52
c0 -18 -17 -31 -33 -42c-30 -21 -81 -50 -144 -87z" />
    <glyph glyph-name="racute" unicode="&#x155;" horiz-adv-x="346" 
d="M152 317v-317h-77v429l-6 68h67l9 -72c24 56 68 86 125 86c31 0 60 -7 79 -19l-24 -69c-17 9 -40 19 -65 19c-64 0 -105 -58 -108 -125zM146 590l110 181c27 -7 62 -18 62 -45c0 -12 -9 -27 -22 -42c-24 -27 -67 -69 -119 -119z" />
    <glyph glyph-name="Rcommaaccent" unicode="&#x156;" horiz-adv-x="585" 
d="M161 273v-273h-79v665h211c140 0 226 -49 226 -179c0 -114 -69 -164 -126 -183c35 -10 45 -26 64 -68l108 -235h-84l-98 209c-17 36 -36 64 -77 64h-145zM161 337h130c90 0 147 51 147 143c0 111 -68 121 -190 121h-87v-264zM263 -70l-58 -187l37 -18c38 59 61 96 78 129
c6 11 13 28 14 40c0 32 -41 35 -71 36z" />
    <glyph glyph-name="rcommaaccent" unicode="&#x157;" horiz-adv-x="346" 
d="M152 317v-317h-77v429l-6 68h67l9 -72c24 56 68 86 125 86c31 0 60 -7 79 -19l-24 -69c-17 9 -40 19 -65 19c-64 0 -105 -58 -108 -125zM103 -70l-58 -187l37 -18c38 59 61 96 78 129c6 11 13 28 14 40c0 32 -41 35 -71 36z" />
    <glyph glyph-name="Rcaron" unicode="&#x158;" horiz-adv-x="585" 
d="M161 273v-273h-79v665h211c140 0 226 -49 226 -179c0 -114 -69 -164 -126 -183c35 -10 45 -26 64 -68l108 -235h-84l-98 209c-17 36 -36 64 -77 64h-145zM161 337h130c90 0 147 51 147 143c0 111 -68 121 -190 121h-87v-264zM385 885l31 -24c-42 -55 -80 -98 -107 -123
c-18 -17 -30 -22 -44 -22c-13 0 -27 3 -44 20c-29 29 -70 73 -109 124l31 25l122 -88z" />
    <glyph glyph-name="rcaron" unicode="&#x159;" horiz-adv-x="346" 
d="M152 317v-317h-77v429l-6 68h67l9 -72c24 56 68 86 125 86c31 0 60 -7 79 -19l-24 -69c-17 9 -40 19 -65 19c-64 0 -105 -58 -108 -125zM307 769l31 -23c-41 -61 -75 -107 -97 -135c-14 -17 -26 -27 -46 -27c-19 0 -31 8 -46 26c-24 31 -57 75 -97 135l31 25l112 -102z
" />
    <glyph glyph-name="Sacute" unicode="&#x15a;" horiz-adv-x="532" 
d="M44 49l33 65c31 -21 102 -57 181 -57c67 0 140 21 140 123c0 80 -70 106 -150 128c-96 26 -190 62 -190 185c0 111 86 184 211 184c90 0 169 -42 216 -89l-44 -53c-52 45 -110 74 -173 74c-56 0 -128 -24 -128 -108c0 -79 68 -102 154 -128c92 -29 186 -64 186 -190
c0 -125 -84 -195 -224 -195c-96 0 -185 39 -212 61zM183 749l152 148c24 -13 49 -31 49 -52c0 -18 -17 -31 -33 -42c-30 -21 -81 -50 -144 -87z" />
    <glyph glyph-name="sacute" unicode="&#x15b;" horiz-adv-x="405" 
d="M30 34l30 56c29 -20 78 -44 136 -44c56 0 99 26 99 85c0 58 -45 76 -103 90c-80 19 -151 44 -151 143c0 100 80 147 167 147c71 0 130 -31 166 -67l-45 -46c-33 31 -73 54 -124 54c-43 0 -91 -22 -91 -77c0 -59 49 -73 106 -90c72 -22 151 -46 151 -147
c0 -98 -72 -152 -174 -152c-81 0 -146 30 -167 48zM146 590l110 181c27 -7 62 -18 62 -45c0 -12 -9 -27 -22 -42c-24 -27 -67 -69 -119 -119z" />
    <glyph glyph-name="Scircumflex" unicode="&#x15c;" horiz-adv-x="532" 
d="M44 49l33 65c31 -21 102 -57 181 -57c67 0 140 21 140 123c0 80 -70 106 -150 128c-96 26 -190 62 -190 185c0 111 86 184 211 184c90 0 169 -42 216 -89l-44 -53c-52 45 -110 74 -173 74c-56 0 -128 -24 -128 -108c0 -79 68 -102 154 -128c92 -29 186 -64 186 -190
c0 -125 -84 -195 -224 -195c-96 0 -185 39 -212 61zM154 716l-31 24c42 55 80 98 107 123c18 17 30 22 44 22c13 0 27 -3 44 -20c29 -29 70 -73 109 -124l-31 -25l-122 88z" />
    <glyph glyph-name="scircumflex" unicode="&#x15d;" horiz-adv-x="405" 
d="M30 34l30 56c29 -20 78 -44 136 -44c56 0 99 26 99 85c0 58 -45 76 -103 90c-80 19 -151 44 -151 143c0 100 80 147 167 147c71 0 130 -31 166 -67l-45 -46c-33 31 -73 54 -124 54c-43 0 -91 -22 -91 -77c0 -59 49 -73 106 -90c72 -22 151 -46 151 -147
c0 -98 -72 -152 -174 -152c-81 0 -146 30 -167 48zM102 585l-31 24c41 60 75 106 97 134c13 17 25 27 45 27c19 0 32 -7 47 -26c24 -31 57 -74 96 -135l-31 -25l-112 102z" />
    <glyph glyph-name="Scedilla" unicode="&#x15e;" horiz-adv-x="532" 
d="M44 49l33 65c31 -21 102 -57 181 -57c67 0 140 21 140 123c0 80 -70 106 -150 128c-96 26 -190 62 -190 185c0 111 86 184 211 184c90 0 169 -42 216 -89l-44 -53c-52 45 -110 74 -173 74c-56 0 -128 -24 -128 -108c0 -79 68 -102 154 -128c92 -29 186 -64 186 -190
c0 -116 -72 -184 -193 -194l-16 -61c48 -3 84 -25 84 -74c0 -60 -51 -89 -106 -89c-26 0 -60 7 -82 18l13 42c15 -5 43 -13 66 -13c41 0 51 20 51 40c0 31 -31 40 -89 40l30 97c-89 4 -169 39 -194 60z" />
    <glyph glyph-name="scedilla" unicode="&#x15f;" horiz-adv-x="405" 
d="M30 34l30 56c29 -20 78 -44 136 -44c56 0 99 26 99 85c0 58 -45 76 -103 90c-80 19 -151 44 -151 143c0 100 80 147 167 147c71 0 130 -31 166 -67l-45 -46c-33 31 -73 54 -124 54c-43 0 -91 -22 -91 -77c0 -59 49 -73 106 -90c72 -22 151 -46 151 -147
c0 -86 -56 -138 -138 -149l-16 -61c48 -3 84 -25 84 -74c0 -60 -51 -87 -106 -87c-26 0 -60 7 -82 18l13 42c15 -5 43 -13 66 -13c41 0 51 18 51 38c0 31 -31 40 -89 40l29 94c-74 3 -133 31 -153 48z" />
    <glyph glyph-name="Scaron" unicode="&#x160;" horiz-adv-x="532" 
d="M44 49l33 65c31 -21 102 -57 181 -57c67 0 140 21 140 123c0 80 -70 106 -150 128c-96 26 -190 62 -190 185c0 111 86 184 211 184c90 0 169 -42 216 -89l-44 -53c-52 45 -110 74 -173 74c-56 0 -128 -24 -128 -108c0 -79 68 -102 154 -128c92 -29 186 -64 186 -190
c0 -125 -84 -195 -224 -195c-96 0 -185 39 -212 61zM393 885l31 -24c-42 -55 -80 -98 -107 -123c-18 -17 -30 -22 -44 -22c-13 0 -27 3 -44 20c-29 29 -70 73 -109 124l31 25l122 -88z" />
    <glyph glyph-name="scaron" unicode="&#x161;" horiz-adv-x="405" 
d="M30 34l30 56c29 -20 78 -44 136 -44c56 0 99 26 99 85c0 58 -45 76 -103 90c-80 19 -151 44 -151 143c0 100 80 147 167 147c71 0 130 -31 166 -67l-45 -46c-33 31 -73 54 -124 54c-43 0 -91 -22 -91 -77c0 -59 49 -73 106 -90c72 -22 151 -46 151 -147
c0 -98 -72 -152 -174 -152c-81 0 -146 30 -167 48zM321 769l31 -23c-41 -61 -75 -107 -97 -135c-14 -17 -26 -27 -46 -27c-19 0 -31 8 -46 26c-24 31 -57 75 -97 135l31 25l112 -102z" />
    <glyph glyph-name="Scommaaccent" unicode="&#x218;" horiz-adv-x="532" 
d="M44 49l33 65c31 -21 102 -57 181 -57c67 0 140 21 140 123c0 80 -70 106 -150 128c-96 26 -190 62 -190 185c0 111 86 184 211 184c90 0 169 -42 216 -89l-44 -53c-52 45 -110 74 -173 74c-56 0 -128 -24 -128 -108c0 -79 68 -102 154 -128c92 -29 186 -64 186 -190
c0 -125 -84 -195 -224 -195c-96 0 -185 39 -212 61zM236 -70l-58 -187l37 -18c38 59 61 96 78 129c6 11 13 28 14 40c0 32 -41 35 -71 36z" />
    <glyph glyph-name="scommaaccent" unicode="&#x219;" horiz-adv-x="405" 
d="M30 34l30 56c29 -20 78 -44 136 -44c56 0 99 26 99 85c0 58 -45 76 -103 90c-80 19 -151 44 -151 143c0 100 80 147 167 147c71 0 130 -31 166 -67l-45 -46c-33 31 -73 54 -124 54c-43 0 -91 -22 -91 -77c0 -59 49 -73 106 -90c72 -22 151 -46 151 -147
c0 -98 -72 -152 -174 -152c-81 0 -146 30 -167 48zM189 -70l-58 -187l37 -18c38 59 61 96 78 129c6 11 13 28 14 40c0 32 -41 35 -71 36z" />
    <glyph glyph-name="uni021A" unicode="&#x21a;" horiz-adv-x="503" 
d="M19 665h479v-68h-202v-597h-79v597h-198v68zM217 -70l-58 -187l37 -18c38 59 61 96 78 129c6 11 13 28 14 40c0 32 -41 35 -71 36z" />
    <glyph glyph-name="uni021B" unicode="&#x21b;" horiz-adv-x="321" 
d="M74 695h78v-198h142v-67h-142v-296c0 -66 26 -87 73 -87c34 0 59 14 76 24l23 -52c-29 -20 -73 -33 -113 -33c-133 0 -137 77 -137 150v559zM157 -70l-58 -187l37 -18c38 59 61 96 78 129c6 11 13 28 14 40c0 32 -41 35 -71 36z" />
    <glyph glyph-name="Tcaron" unicode="&#x164;" horiz-adv-x="517" 
d="M19 665h479v-68h-202v-597h-79v597h-198v68zM376 885l31 -24c-42 -55 -80 -98 -107 -123c-18 -17 -30 -22 -44 -22c-13 0 -27 3 -44 20c-29 29 -70 73 -109 124l31 25l122 -88z" />
    <glyph glyph-name="tcaron" unicode="&#x165;" horiz-adv-x="333" 
d="M74 695h78v-198h142v-67h-142v-296c0 -66 26 -87 73 -87c34 0 59 14 76 24l23 -52c-29 -20 -73 -33 -113 -33c-133 0 -137 77 -137 150v559zM255 571l-1 191c13 3 30 6 44 6c23 0 36 -5 36 -28c0 -6 0 -12 -1 -17c-6 -47 -24 -115 -38 -159z" />
    <glyph glyph-name="Tbar" unicode="&#x166;" horiz-adv-x="495" 
d="M18 665h479v-68h-202v-229h135v-56h-135v-312h-78v312h-136v56h136v229h-199v68z" />
    <glyph glyph-name="tbar" unicode="&#x167;" horiz-adv-x="333" 
d="M74 695h78v-198h142v-67h-142v-120h142v-67h-142v-109c0 -66 26 -87 73 -87c34 0 59 14 76 24l23 -52c-29 -20 -73 -33 -113 -33c-133 0 -137 77 -137 150v559z" />
    <glyph glyph-name="uni0162" unicode="&#x162;" horiz-adv-x="503" 
d="M19 665h479v-68h-202v-597h-19l-19 -72c48 -3 84 -25 84 -74c0 -60 -51 -87 -106 -87c-26 0 -60 7 -82 18l13 42c15 -5 43 -13 66 -13c41 0 51 18 51 38c0 31 -31 40 -89 40l34 108h-12v597h-198v68z" />
    <glyph glyph-name="uni0163" unicode="&#x163;" horiz-adv-x="321" 
d="M74 695h78v-198h142v-67h-142v-296c0 -66 26 -87 73 -87c34 0 59 14 76 24l23 -52c-26 -18 -64 -30 -101 -32l-15 -59c48 -3 84 -25 84 -74c0 -60 -51 -87 -106 -87c-26 0 -60 7 -82 18l13 42c15 -5 43 -13 66 -13c41 0 51 18 51 38c0 31 -31 40 -89 40l30 96
c-98 13 -101 82 -101 148v559z" />
    <glyph glyph-name="Utilde" unicode="&#x168;" horiz-adv-x="629" 
d="M77 665h79v-458c0 -117 68 -152 162 -152c92 0 155 47 155 147v463h79v-478c0 -128 -97 -199 -239 -199c-155 0 -236 62 -236 217v460zM185 739l-7 57c24 19 54 27 80 27c50 0 86 -25 130 -25c21 0 42 7 60 17l7 -60c-20 -11 -39 -18 -66 -18c-43 0 -95 22 -133 22
c-25 0 -47 -7 -71 -20z" />
    <glyph glyph-name="utilde" unicode="&#x169;" horiz-adv-x="537" 
d="M386 497h77v-424l7 -73h-69l-8 68h-2c-37 -57 -97 -82 -157 -82c-107 0 -161 56 -161 171v340h78v-318c0 -75 15 -132 103 -132c70 0 132 62 132 120v330zM140 618l-7 57c24 19 54 27 80 27c50 0 86 -25 130 -25c21 0 42 7 60 17l7 -60c-20 -11 -39 -18 -66 -18
c-43 0 -95 22 -133 22c-25 0 -47 -6 -71 -20z" />
    <glyph glyph-name="Umacron" unicode="&#x16a;" horiz-adv-x="629" 
d="M77 665h79v-458c0 -117 68 -152 162 -152c92 0 155 47 155 147v463h79v-478c0 -128 -97 -199 -239 -199c-155 0 -236 62 -236 217v460zM187 742v65h260v-65h-260z" />
    <glyph glyph-name="umacron" unicode="&#x16b;" horiz-adv-x="537" 
d="M386 497h77v-424l7 -73h-69l-8 68h-2c-37 -57 -97 -82 -157 -82c-107 0 -161 56 -161 171v340h78v-318c0 -75 15 -132 103 -132c70 0 132 62 132 120v330zM141 619v65h260v-65h-260z" />
    <glyph glyph-name="Ubreve" unicode="&#x16c;" horiz-adv-x="629" 
d="M77 665h79v-458c0 -117 68 -152 162 -152c92 0 155 47 155 147v463h79v-478c0 -128 -97 -199 -239 -199c-155 0 -236 62 -236 217v460zM418 856l57 -19c-22 -68 -66 -116 -162 -116c-88 0 -136 48 -154 116l58 19c19 -53 48 -78 100 -78s79 19 101 78z" />
    <glyph glyph-name="ubreve" unicode="&#x16d;" horiz-adv-x="537" 
d="M386 497h77v-424l7 -73h-69l-8 68h-2c-37 -57 -97 -82 -157 -82c-107 0 -161 56 -161 171v340h78v-318c0 -75 15 -132 103 -132c70 0 132 62 132 120v330zM359 729l58 -11c-24 -88 -77 -134 -154 -134c-89 0 -133 60 -149 134l60 11c19 -65 50 -87 92 -87
c37 0 71 17 93 87z" />
    <glyph glyph-name="Uring" unicode="&#x16e;" horiz-adv-x="629" 
d="M77 665h79v-458c0 -117 68 -152 162 -152c92 0 155 47 155 147v463h79v-478c0 -128 -97 -199 -239 -199c-155 0 -236 62 -236 217v460zM230 784c0 50 33 86 86 86c54 0 86 -36 86 -81c0 -53 -34 -90 -88 -90s-84 37 -84 85zM278 784c0 -27 11 -45 38 -45s38 19 38 45
c0 28 -11 46 -38 46c-28 0 -38 -18 -38 -46z" />
    <glyph glyph-name="uring" unicode="&#x16f;" horiz-adv-x="537" 
d="M386 497h77v-424l7 -73h-69l-8 68h-2c-37 -57 -97 -82 -157 -82c-107 0 -161 56 -161 171v340h78v-318c0 -75 15 -132 103 -132c70 0 132 62 132 120v330zM190 660c0 50 33 86 86 86c54 0 86 -36 86 -81c0 -53 -34 -90 -88 -90s-84 37 -84 85zM238 660
c0 -27 11 -45 38 -45s38 19 38 45c0 28 -11 46 -38 46c-28 0 -38 -18 -38 -46z" />
    <glyph glyph-name="Uhungarumlaut" unicode="&#x170;" horiz-adv-x="629" 
d="M77 665h79v-458c0 -117 68 -152 162 -152c92 0 155 47 155 147v463h79v-478c0 -128 -97 -199 -239 -199c-155 0 -236 62 -236 217v460zM157 739l157 144c22 -14 47 -32 47 -53c0 -18 -16 -29 -34 -41c-30 -20 -83 -48 -147 -83zM344 739l156 144c22 -14 47 -32 47 -53
c0 -18 -16 -30 -34 -41c-31 -19 -82 -48 -146 -83z" />
    <glyph glyph-name="uhungarumlaut" unicode="&#x171;" horiz-adv-x="537" 
d="M386 497h77v-424l7 -73h-69l-8 68h-2c-37 -57 -97 -82 -157 -82c-107 0 -161 56 -161 171v340h78v-318c0 -75 15 -132 103 -132c70 0 132 62 132 120v330zM135 590l110 181c28 -7 62 -18 62 -45c0 -12 -9 -27 -22 -42c-24 -27 -66 -69 -118 -119zM286 590l109 181
c28 -7 62 -18 62 -45c0 -12 -9 -27 -22 -42c-24 -27 -66 -69 -118 -119z" />
    <glyph glyph-name="Uogonek" unicode="&#x172;" horiz-adv-x="629" 
d="M77 665h79v-458c0 -117 68 -152 162 -152c92 0 155 47 155 147v463h79v-478c0 -96 -55 -148 -133 -189c-45 -24 -78 -86 -78 -127c0 -31 11 -47 42 -47c20 0 36 5 51 11l15 -49c-19 -11 -51 -22 -85 -22c-73 0 -92 45 -92 88c0 59 31 103 62 137c-7 -1 -14 -1 -21 -1
c-155 0 -236 62 -236 217v460z" />
    <glyph glyph-name="uogonek" unicode="&#x173;" horiz-adv-x="537" 
d="M386 497h77v-424l8 -72c-40 -32 -72 -89 -72 -130c0 -31 11 -47 42 -47c20 0 36 5 51 11l15 -49c-19 -11 -51 -22 -85 -22c-73 0 -92 45 -92 88c0 60 39 115 71 148l-8 68h-2c-37 -57 -97 -82 -157 -82c-107 0 -161 56 -161 171v340h78v-318c0 -75 15 -132 103 -132
c70 0 132 62 132 120v330z" />
    <glyph glyph-name="Wcircumflex" unicode="&#x174;" horiz-adv-x="819" 
d="M536 0l-127 499h-1l-124 -499h-100l-151 665h79l128 -569l126 514h88l128 -514h1l124 569h79l-151 -665h-99zM287 716l-31 24c42 55 80 98 107 123c18 17 30 22 44 22c13 0 27 -3 44 -20c29 -29 70 -73 109 -124l-31 -25l-122 88z" />
    <glyph glyph-name="wcircumflex" unicode="&#x175;" horiz-adv-x="790" 
d="M627 497h76c18 -61 36 -130 36 -209c0 -179 -57 -302 -209 -302c-76 0 -118 39 -133 96c-45 -73 -103 -96 -167 -96c-108 0 -157 53 -157 168v343h78v-302c0 -79 3 -147 91 -147c70 0 123 59 123 123v326h78v-305c0 -75 5 -144 89 -144c117 0 131 145 131 236
c0 83 -19 151 -36 213zM295 585l-31 24c41 60 75 106 97 134c13 17 25 27 45 27c19 0 32 -7 47 -26c24 -31 57 -74 96 -135l-31 -25l-112 102z" />
    <glyph glyph-name="Wgrave" unicode="&#x1e80;" horiz-adv-x="819" 
d="M536 0l-127 499h-1l-124 -499h-100l-151 665h79l128 -569l126 514h88l128 -514h1l124 569h79l-151 -665h-99zM338 896l152 -147l-24 -33c-62 37 -115 66 -145 87c-18 13 -32 24 -32 42c0 21 26 38 49 51z" />
    <glyph glyph-name="wgrave" unicode="&#x1e81;" horiz-adv-x="790" 
d="M627 497h76c18 -61 36 -130 36 -209c0 -179 -57 -302 -209 -302c-76 0 -118 39 -133 96c-45 -73 -103 -96 -167 -96c-108 0 -157 53 -157 168v343h78v-302c0 -79 3 -147 91 -147c70 0 123 59 123 123v326h78v-305c0 -75 5 -144 89 -144c117 0 131 145 131 236
c0 83 -19 151 -36 213zM362 771l109 -181l-31 -25c-53 48 -96 91 -120 118c-13 15 -22 29 -22 41c0 27 36 40 64 47z" />
    <glyph glyph-name="Wacute" unicode="&#x1e82;" horiz-adv-x="819" 
d="M536 0l-127 499h-1l-124 -499h-100l-151 665h79l128 -569l126 514h88l128 -514h1l124 569h79l-151 -665h-99zM330 749l152 148c24 -13 49 -31 49 -52c0 -18 -17 -31 -33 -42c-30 -21 -81 -50 -144 -87z" />
    <glyph glyph-name="wacute" unicode="&#x1e83;" horiz-adv-x="790" 
d="M627 497h76c18 -61 36 -130 36 -209c0 -179 -57 -302 -209 -302c-76 0 -118 39 -133 96c-45 -73 -103 -96 -167 -96c-108 0 -157 53 -157 168v343h78v-302c0 -79 3 -147 91 -147c70 0 123 59 123 123v326h78v-305c0 -75 5 -144 89 -144c117 0 131 145 131 236
c0 83 -19 151 -36 213zM332 590l110 181c27 -7 62 -18 62 -45c0 -12 -9 -27 -22 -42c-24 -27 -67 -69 -119 -119z" />
    <glyph glyph-name="Wdieresis" unicode="&#x1e84;" horiz-adv-x="819" 
d="M536 0l-127 499h-1l-124 -499h-100l-151 665h79l128 -569l126 514h88l128 -514h1l124 569h79l-151 -665h-99zM452 781c0 29 21 51 52 51c29 0 51 -22 51 -51c0 -31 -23 -52 -52 -52c-31 0 -51 21 -51 52zM264 781c0 29 21 51 52 51c29 0 51 -22 51 -51
c0 -31 -23 -52 -52 -52c-30 0 -51 21 -51 52z" />
    <glyph glyph-name="wdieresis" unicode="&#x1e85;" horiz-adv-x="790" 
d="M627 497h76c18 -61 36 -130 36 -209c0 -179 -57 -302 -209 -302c-76 0 -118 39 -133 96c-45 -73 -103 -96 -167 -96c-108 0 -157 53 -157 168v343h78v-302c0 -79 3 -147 91 -147c70 0 123 59 123 123v326h78v-305c0 -75 5 -144 89 -144c117 0 131 145 131 236
c0 83 -19 151 -36 213zM444 652c0 30 21 52 52 52c29 0 51 -22 51 -52c0 -31 -23 -52 -52 -52c-31 0 -51 21 -51 52zM264 652c0 30 21 52 52 52c29 0 51 -22 51 -52c0 -31 -23 -52 -52 -52c-30 0 -51 21 -51 52z" />
    <glyph glyph-name="Ygrave" unicode="&#x1ef2;" horiz-adv-x="524" 
d="M518 665h-84l-167 -331l-171 331h-90l218 -412v-253h79v253zM190 896l152 -147l-24 -33c-62 37 -115 66 -145 87c-18 13 -32 24 -32 42c0 21 26 38 49 51z" />
    <glyph glyph-name="ygrave" unicode="&#x1ef3;" horiz-adv-x="534" 
d="M462 20c0 -44 -4 -103 -13 -138c-25 -97 -89 -148 -195 -148c-102 0 -151 49 -151 126c0 81 61 139 110 171c-85 9 -140 50 -140 164v302h78v-281c0 -76 7 -134 113 -134c76 0 122 48 122 117v298h76v-477zM178 -130c0 -49 29 -76 84 -76c91 0 123 79 123 188v87
c-120 -50 -207 -104 -207 -199zM218 771l109 -181l-31 -25c-53 48 -96 91 -120 118c-13 15 -22 29 -22 41c0 27 36 40 64 47z" />
    <glyph glyph-name="Ycircumflex" unicode="&#x176;" horiz-adv-x="524" 
d="M518 665h-84l-167 -331l-171 331h-90l218 -412v-253h79v253zM140 716l-31 24c42 55 80 98 107 123c18 17 30 22 44 22c13 0 27 -3 44 -20c29 -29 70 -73 109 -124l-31 -25l-122 88z" />
    <glyph glyph-name="ycircumflex" unicode="&#x177;" horiz-adv-x="534" 
d="M462 20c0 -44 -4 -103 -13 -138c-25 -97 -89 -148 -195 -148c-102 0 -151 49 -151 126c0 81 61 139 110 171c-85 9 -140 50 -140 164v302h78v-281c0 -76 7 -134 113 -134c76 0 122 48 122 117v298h76v-477zM178 -130c0 -49 29 -76 84 -76c91 0 123 79 123 188v87
c-120 -50 -207 -104 -207 -199zM157 585l-31 24c41 60 75 106 97 134c13 17 25 27 45 27c19 0 32 -7 47 -26c24 -31 57 -74 96 -135l-31 -25l-112 102z" />
    <glyph glyph-name="Ydieresis" unicode="&#x178;" horiz-adv-x="524" 
d="M518 665h-84l-167 -331l-171 331h-90l218 -412v-253h79v253zM308 781c0 29 21 51 52 51c29 0 51 -22 51 -51c0 -31 -23 -52 -52 -52c-31 0 -51 21 -51 52zM120 781c0 29 21 51 52 51c29 0 51 -22 51 -51c0 -31 -23 -52 -52 -52c-30 0 -51 21 -51 52z" />
    <glyph glyph-name="Zacute" unicode="&#x179;" horiz-adv-x="488" 
d="M450 600l-331 -536h342v-64h-429v64l330 537h-324v64h412v-65zM185 754l152 148c24 -13 49 -31 49 -52c0 -18 -17 -31 -33 -42c-30 -21 -81 -50 -144 -87z" />
    <glyph glyph-name="zacute" unicode="&#x17a;" horiz-adv-x="394" 
d="M84 -102c0 -60 28 -103 94 -103c81 0 120 66 120 146c0 68 -26 109 -74 139c-100 -48 -140 -123 -140 -182zM370 497v-60l-230 -239l68 -32c106 -50 162 -114 162 -224c0 -127 -81 -207 -199 -207c-109 0 -160 61 -160 153c0 94 60 170 161 223c-33 16 -69 32 -102 48v58
l207 217h-254v63h347zM153 590l110 181c27 -7 62 -18 62 -45c0 -12 -9 -27 -22 -42c-24 -27 -67 -69 -119 -119z" />
    <glyph glyph-name="Zdotaccent" unicode="&#x17b;" horiz-adv-x="488" 
d="M450 600l-331 -536h342v-64h-429v64l330 537h-324v64h412v-65zM201 786c0 29 22 52 52 52c29 0 52 -23 52 -52c0 -31 -23 -53 -53 -53s-51 22 -51 53z" />
    <glyph glyph-name="zdotaccent" unicode="&#x17c;" horiz-adv-x="394" 
d="M84 -102c0 59 40 134 140 182c48 -30 74 -71 74 -139c0 -80 -39 -146 -120 -146c-66 0 -94 43 -94 103zM370 437v60h-347v-63h254l-207 -217v-58c33 -16 69 -32 102 -48c-101 -53 -161 -129 -161 -223c0 -92 51 -153 160 -153c118 0 199 80 199 207
c0 110 -56 174 -162 224l-68 32zM153 639c0 29 22 52 52 52c29 0 52 -23 52 -52c0 -31 -23 -53 -53 -53s-51 22 -51 53z" />
    <glyph glyph-name="Zcaron" unicode="&#x17d;" horiz-adv-x="488" 
d="M450 600l-331 -536h342v-64h-429v64l330 537h-324v64h412v-65zM374 885l31 -24c-42 -55 -80 -98 -107 -123c-18 -17 -30 -22 -44 -22c-13 0 -27 3 -44 20c-29 29 -70 73 -109 124l31 25l122 -88z" />
    <glyph glyph-name="zcaron" unicode="&#x17e;" horiz-adv-x="394" 
d="M84 -102c0 59 40 134 140 182c48 -30 74 -71 74 -139c0 -80 -39 -146 -120 -146c-66 0 -94 43 -94 103zM370 437v60h-347v-63h254l-207 -217v-58c33 -16 69 -32 102 -48c-101 -53 -161 -129 -161 -223c0 -92 51 -153 160 -153c118 0 199 80 199 207
c0 110 -56 174 -162 224l-68 32zM315 769l31 -23c-41 -61 -75 -107 -97 -135c-14 -17 -26 -27 -46 -27c-19 0 -31 8 -46 26c-24 31 -57 75 -97 135l31 25l112 -102z" />
    <glyph glyph-name="longs" unicode="&#x17f;" horiz-adv-x="303" 
d="M145 546v-756h-78v754c0 70 17 168 161 168c39 0 95 -14 122 -29l-22 -56c-26 13 -64 24 -98 24c-65 0 -85 -39 -85 -105z" />
    <glyph glyph-name="dotlessj" unicode="&#x237;" horiz-adv-x="225" 
d="M75 -61v558h78v-540c0 -95 -7 -180 -135 -180c-35 0 -87 10 -117 30l25 57c26 -15 52 -24 83 -24c45 0 66 24 66 99z" />
    <glyph glyph-name="circumflex" unicode="&#x2c6;" horiz-adv-x="500" 
d="M137 585l-31 24c41 60 75 106 97 134c13 17 25 27 45 27c19 0 32 -7 47 -26c24 -31 57 -74 96 -135l-31 -25l-112 102z" />
    <glyph glyph-name="caron" unicode="&#x2c7;" horiz-adv-x="500" 
d="M356 769l31 -23c-41 -61 -75 -107 -97 -135c-14 -17 -26 -27 -46 -27c-19 0 -31 8 -46 26c-24 31 -57 75 -97 135l31 25l112 -102z" />
    <glyph glyph-name="uni02C9" unicode="&#x2c9;" horiz-adv-x="500" 
d="M117 619v65h260v-65h-260z" />
    <glyph glyph-name="breve" unicode="&#x2d8;" horiz-adv-x="500" 
d="M347 729l58 -11c-24 -88 -77 -134 -154 -134c-89 0 -133 60 -149 134l60 11c19 -65 50 -87 92 -87c37 0 71 17 93 87z" />
    <glyph glyph-name="dieresis" unicode="&#xa8;" horiz-adv-x="500" 
d="M293 652c0 30 21 52 52 52c29 0 51 -22 51 -52c0 -31 -23 -52 -52 -52c-31 0 -51 21 -51 52zM113 652c0 30 21 52 52 52c29 0 51 -22 51 -52c0 -31 -23 -52 -52 -52c-30 0 -51 21 -51 52z" />
    <glyph glyph-name="macron" unicode="&#xaf;" horiz-adv-x="500" 
d="M117 619v65h260v-65h-260z" />
    <glyph glyph-name="degree" unicode="&#xb0;" horiz-adv-x="298" 
d="M42 598c0 64 41 111 107 111c68 0 107 -48 107 -105c0 -66 -42 -113 -110 -113c-67 0 -104 47 -104 107zM94 598c0 -36 19 -61 55 -61s55 26 55 61c0 39 -18 65 -55 65c-38 0 -55 -26 -55 -65z" />
    <glyph glyph-name="acute" unicode="&#xb4;" horiz-adv-x="500" 
d="M155 590l110 181c27 -7 62 -18 62 -45c0 -12 -9 -27 -22 -42c-24 -27 -67 -69 -119 -119z" />
    <glyph glyph-name="grave" unicode="`" horiz-adv-x="500" 
d="M233 771l109 -181l-31 -25c-53 48 -96 91 -120 118c-13 15 -22 29 -22 41c0 27 36 40 64 47z" />
    <glyph glyph-name="cedilla" unicode="&#xb8;" horiz-adv-x="500" 
d="M212 3h48l-20 -75c48 -3 84 -25 84 -74c0 -60 -51 -87 -106 -87c-26 0 -60 7 -82 18l13 42c15 -5 43 -13 66 -13c41 0 51 18 51 38c0 31 -31 40 -89 40z" />
    <glyph glyph-name="dotaccent" unicode="&#x2d9;" horiz-adv-x="500" 
d="M201 639c0 29 22 52 52 52c29 0 52 -23 52 -52c0 -31 -23 -53 -53 -53s-51 22 -51 53z" />
    <glyph glyph-name="ring" unicode="&#x2da;" horiz-adv-x="500" 
d="M164 660c0 50 33 86 86 86c54 0 86 -36 86 -81c0 -53 -34 -90 -88 -90s-84 37 -84 85zM212 660c0 -27 11 -45 38 -45s38 19 38 45c0 28 -11 46 -38 46c-28 0 -38 -18 -38 -46z" />
    <glyph glyph-name="ogonek" unicode="&#x2db;" horiz-adv-x="500" 
d="M238 2l65 -1c-40 -32 -72 -89 -72 -130c0 -31 11 -47 42 -47c20 0 36 5 51 11l15 -49c-19 -11 -51 -22 -85 -22c-73 0 -92 45 -92 88c0 61 41 117 76 150z" />
    <glyph glyph-name="tilde" unicode="&#x2dc;" horiz-adv-x="500" 
d="M116 618l-7 57c24 19 54 27 80 27c50 0 86 -25 130 -25c21 0 42 7 60 17l7 -60c-20 -11 -39 -18 -66 -18c-43 0 -95 22 -133 22c-25 0 -47 -6 -71 -20z" />
    <glyph glyph-name="hungarumlaut" unicode="&#x2dd;" horiz-adv-x="500" 
d="M111 590l110 181c28 -7 62 -18 62 -45c0 -12 -9 -27 -22 -42c-24 -27 -66 -69 -118 -119zM262 590l109 181c28 -7 62 -18 62 -45c0 -12 -9 -27 -22 -42c-24 -27 -66 -69 -118 -119z" />
    <glyph glyph-name="perthousand" unicode="&#x2030;" horiz-adv-x="895" 
d="M736 302c78 0 129 -50 129 -154c0 -100 -51 -159 -136 -159c-83 0 -129 55 -129 155c0 98 53 158 136 158zM732 36c38 0 74 31 74 111c0 76 -33 107 -72 107c-43 0 -75 -36 -75 -112c0 -74 30 -106 73 -106zM426 302c78 0 130 -50 130 -154c0 -100 -52 -159 -137 -159
c-83 0 -129 55 -129 155c0 98 54 158 136 158zM422 36c38 0 75 31 75 111c0 76 -34 107 -73 107c-43 0 -75 -36 -75 -112c0 -74 30 -106 73 -106zM168 657c78 0 130 -50 130 -154c0 -100 -52 -159 -137 -159c-83 0 -129 55 -129 155c0 98 54 158 136 158zM164 391
c38 0 75 31 75 111c0 76 -34 107 -73 107c-43 0 -75 -36 -75 -112c0 -74 30 -106 73 -106zM101 123l-37 48l440 369l39 -48z" />
    <glyph glyph-name="percent" unicode="%" horiz-adv-x="786" 
d="M606 353c90 0 149 -56 149 -177c0 -117 -54 -187 -155 -187c-97 0 -151 64 -151 181c0 114 61 183 157 183zM602 40c47 0 88 36 88 132c0 93 -38 131 -86 131c-54 0 -90 -44 -90 -135c0 -90 39 -128 88 -128zM190 657c90 0 149 -57 149 -178c0 -116 -54 -187 -155 -187
c-97 0 -151 64 -151 181c0 115 61 184 157 184zM186 343c47 0 88 37 88 133c0 92 -38 130 -86 130c-54 0 -90 -44 -90 -134c0 -91 39 -129 88 -129zM275 -3l-58 27l292 627l60 -26z" />
    <glyph glyph-name="fraction" unicode="&#x2044;" horiz-adv-x="152" 
d="M-42 -3l-58 27l292 627l60 -26z" />
    <glyph glyph-name="zerosuperior" unicode="&#x2070;" horiz-adv-x="377" 
d="M192 737c92 0 150 -52 150 -198c0 -138 -52 -203 -155 -203c-100 0 -152 58 -152 200c0 137 59 201 157 201zM189 390c52 0 88 30 88 148c0 115 -34 146 -88 146c-56 0 -90 -36 -90 -153c0 -110 33 -141 90 -141z" />
    <glyph glyph-name="onesuperior" unicode="&#xb9;" horiz-adv-x="377" 
d="M95 394h78v269l-89 -42l-22 44l118 66h63l-5 -59v-278h74v-53h-217v53z" />
    <glyph glyph-name="twosuperior" unicode="&#xb2;" horiz-adv-x="377" 
d="M82 643l-31 44c41 28 85 50 144 50c78 0 113 -43 113 -93c0 -46 -18 -76 -52 -116l-112 -133h180v-54h-261v47l125 148c29 34 53 65 53 98c0 36 -24 48 -58 48c-31 0 -64 -14 -101 -39z" />
    <glyph glyph-name="threesuperior" unicode="&#xb3;" horiz-adv-x="377" 
d="M92 656l-24 43c31 16 79 38 137 38c74 0 107 -42 107 -91c0 -35 -10 -61 -42 -90c31 -42 48 -76 48 -111c0 -55 -39 -109 -135 -109c-47 0 -96 14 -120 26l19 49c26 -12 63 -23 97 -23c48 0 76 19 76 57c0 27 -16 53 -37 85c-30 -12 -60 -20 -80 -24l-14 45
c25 6 43 12 56 17c37 13 69 25 69 67c0 37 -28 48 -60 48c-26 0 -65 -12 -97 -27z" />
    <glyph glyph-name="foursuperior" unicode="&#x2074;" horiz-adv-x="377" 
d="M230 593h40v-113h68v-53h-68v-86h-61v88h-170v47l121 263l51 -23l-109 -236h109v34z" />
    <glyph glyph-name="fivesuperior" unicode="&#x2075;" horiz-adv-x="377" 
d="M89 535l28 197h201v-53h-156l-14 -98c106 -2 174 -29 174 -120c0 -58 -30 -125 -144 -125c-54 0 -110 21 -123 32l22 49c21 -12 56 -28 101 -28c58 0 79 30 79 70c0 72 -88 75 -168 76z" />
    <glyph glyph-name="sixsuperior" unicode="&#x2076;" horiz-adv-x="377" 
d="M249 749l15 -49c-99 -10 -141 -77 -147 -136c29 19 60 28 93 28c79 0 116 -49 116 -122s-42 -134 -135 -134c-96 0 -140 70 -140 177c0 108 50 213 198 236zM264 464c0 52 -21 77 -69 77c-25 0 -59 -11 -81 -28c0 -62 15 -125 77 -125c38 0 73 21 73 76z" />
    <glyph glyph-name="sevensuperior" unicode="&#x2077;" horiz-adv-x="377" 
d="M57 680v52h269v-46c-110 -96 -138 -210 -138 -324v-21h-64v26c0 102 24 214 123 313h-190z" />
    <glyph glyph-name="eightsuperior" unicode="&#x2078;" horiz-adv-x="377" 
d="M50 434c0 65 51 101 87 116c-33 15 -71 42 -71 93c0 50 47 94 124 94c92 0 123 -46 123 -86c0 -47 -32 -77 -66 -100c51 -25 81 -59 81 -105c0 -54 -36 -110 -140 -110c-105 0 -138 52 -138 98zM264 444c0 37 -39 64 -76 78c-40 -14 -74 -47 -74 -81c0 -28 21 -55 77 -55
c48 0 73 29 73 58zM188 689c-43 0 -60 -24 -60 -45c0 -24 20 -48 66 -69c28 16 56 45 56 73c0 19 -15 41 -62 41z" />
    <glyph glyph-name="ninesuperior" unicode="&#x2079;" horiz-adv-x="377" 
d="M126 324l-15 49c103 16 142 79 147 135c-31 -18 -58 -26 -91 -26c-79 0 -118 51 -118 123c0 74 47 132 138 132c93 0 137 -67 137 -177c0 -108 -45 -213 -198 -236zM111 606c0 -49 24 -73 72 -73c25 0 59 10 78 27c0 62 -15 125 -77 125c-38 0 -73 -21 -73 -79z" />
    <glyph glyph-name="zeroinferior" unicode="&#x2080;" horiz-adv-x="377" 
d="M192 316c92 0 150 -52 150 -198c0 -138 -52 -203 -155 -203c-100 0 -152 58 -152 200c0 137 59 201 157 201zM189 -31c52 0 88 30 88 148c0 115 -34 146 -88 146c-56 0 -90 -36 -90 -153c0 -110 33 -141 90 -141z" />
    <glyph glyph-name="oneinferior" unicode="&#x2081;" horiz-adv-x="377" 
d="M95 -27h78v269l-89 -42l-22 44l118 66h63l-5 -59v-278h74v-53h-217v53z" />
    <glyph glyph-name="twoinferior" unicode="&#x2082;" horiz-adv-x="377" 
d="M82 222l-31 44c41 28 85 50 144 50c78 0 113 -43 113 -93c0 -46 -18 -76 -52 -116l-112 -133h180v-54h-261v47l125 148c29 34 53 65 53 98c0 36 -24 48 -58 48c-31 0 -64 -14 -101 -39z" />
    <glyph glyph-name="threeinferior" unicode="&#x2083;" horiz-adv-x="377" 
d="M92 235l-24 43c31 16 79 38 137 38c74 0 107 -42 107 -91c0 -35 -10 -61 -42 -90c31 -42 48 -76 48 -111c0 -55 -39 -109 -135 -109c-47 0 -96 14 -120 26l19 49c26 -12 63 -23 97 -23c48 0 76 19 76 57c0 27 -16 53 -37 85c-30 -12 -60 -20 -80 -24l-14 45
c25 6 43 12 56 17c37 13 69 25 69 67c0 37 -28 48 -60 48c-26 0 -65 -12 -97 -27z" />
    <glyph glyph-name="fourinferior" unicode="&#x2084;" horiz-adv-x="377" 
d="M230 172h40v-113h68v-53h-68v-86h-61v88h-170v47l121 263l51 -23l-109 -236h109v34z" />
    <glyph glyph-name="fiveinferior" unicode="&#x2085;" horiz-adv-x="377" 
d="M89 114l28 197h201v-53h-156l-14 -98c106 -2 174 -29 174 -120c0 -58 -30 -125 -144 -125c-54 0 -110 21 -123 32l22 49c21 -12 56 -28 101 -28c58 0 79 30 79 70c0 72 -88 75 -168 76z" />
    <glyph glyph-name="sixinferior" unicode="&#x2086;" horiz-adv-x="377" 
d="M249 328l15 -49c-99 -10 -141 -77 -147 -136c29 19 60 28 93 28c79 0 116 -49 116 -122s-42 -134 -135 -134c-96 0 -140 70 -140 177c0 108 50 213 198 236zM264 43c0 52 -21 77 -69 77c-25 0 -59 -11 -81 -28c0 -62 15 -125 77 -125c38 0 73 21 73 76z" />
    <glyph glyph-name="seveninferior" unicode="&#x2087;" horiz-adv-x="377" 
d="M57 259v52h269v-46c-110 -96 -138 -210 -138 -324v-21h-64v26c0 102 24 214 123 313h-190z" />
    <glyph glyph-name="eightinferior" unicode="&#x2088;" horiz-adv-x="377" 
d="M50 13c0 65 51 101 87 116c-33 15 -71 42 -71 93c0 50 47 94 124 94c92 0 123 -46 123 -86c0 -47 -32 -77 -66 -100c51 -25 81 -59 81 -105c0 -54 -36 -110 -140 -110c-105 0 -138 52 -138 98zM264 23c0 37 -39 64 -76 78c-40 -14 -74 -47 -74 -81c0 -28 21 -55 77 -55
c48 0 73 29 73 58zM188 268c-43 0 -60 -24 -60 -45c0 -24 20 -48 66 -69c28 16 56 45 56 73c0 19 -15 41 -62 41z" />
    <glyph glyph-name="nineinferior" unicode="&#x2089;" horiz-adv-x="377" 
d="M126 -97l-15 49c103 16 142 79 147 135c-31 -18 -58 -26 -91 -26c-79 0 -118 51 -118 123c0 74 47 132 138 132c93 0 137 -67 137 -177c0 -108 -45 -213 -198 -236zM111 185c0 -49 24 -73 72 -73c25 0 59 10 78 27c0 62 -15 125 -77 125c-38 0 -73 -21 -73 -79z" />
    <glyph glyph-name="zero.num" horiz-adv-x="377" 
d="M192 657c92 0 150 -52 150 -198c0 -138 -52 -203 -155 -203c-100 0 -152 58 -152 200c0 137 59 201 157 201zM189 310c52 0 88 30 88 148c0 115 -34 146 -88 146c-56 0 -90 -36 -90 -153c0 -110 33 -141 90 -141z" />
    <glyph glyph-name="one.num" horiz-adv-x="377" 
d="M95 314h78v269l-89 -42l-22 44l118 66h63l-5 -59v-278h74v-53h-217v53z" />
    <glyph glyph-name="two.num" horiz-adv-x="377" 
d="M82 563l-31 44c41 28 85 50 144 50c78 0 113 -43 113 -93c0 -46 -18 -76 -52 -116l-112 -133h180v-54h-261v47l125 148c29 34 53 65 53 98c0 36 -24 48 -58 48c-31 0 -64 -14 -101 -39z" />
    <glyph glyph-name="three.num" horiz-adv-x="377" 
d="M92 576l-24 43c31 16 79 38 137 38c74 0 107 -42 107 -91c0 -35 -10 -61 -42 -90c31 -42 48 -76 48 -111c0 -55 -39 -109 -135 -109c-47 0 -96 14 -120 26l19 49c26 -12 63 -23 97 -23c48 0 76 19 76 57c0 27 -16 53 -37 85c-30 -12 -60 -20 -80 -24l-14 45
c25 6 43 12 56 17c37 13 69 25 69 67c0 37 -28 48 -60 48c-26 0 -65 -12 -97 -27z" />
    <glyph glyph-name="four.num" horiz-adv-x="377" 
d="M230 513h40v-113h68v-53h-68v-86h-61v88h-170v47l121 263l51 -23l-109 -236h109v34z" />
    <glyph glyph-name="five.num" horiz-adv-x="377" 
d="M89 455l28 197h201v-53h-156l-14 -98c106 -2 174 -29 174 -120c0 -58 -30 -125 -144 -125c-54 0 -110 21 -123 32l22 49c21 -12 56 -28 101 -28c58 0 79 30 79 70c0 72 -88 75 -168 76z" />
    <glyph glyph-name="six.num" horiz-adv-x="377" 
d="M249 669l15 -49c-99 -10 -141 -77 -147 -136c29 19 60 28 93 28c79 0 116 -49 116 -122s-42 -134 -135 -134c-96 0 -140 70 -140 177c0 108 50 213 198 236zM264 384c0 52 -21 77 -69 77c-25 0 -59 -11 -81 -28c0 -62 15 -125 77 -125c38 0 73 21 73 76z" />
    <glyph glyph-name="seven.num" horiz-adv-x="377" 
d="M57 600v52h269v-46c-110 -96 -138 -210 -138 -324v-21h-64v26c0 102 24 214 123 313h-190z" />
    <glyph glyph-name="eight.num" horiz-adv-x="377" 
d="M50 354c0 65 51 101 87 116c-33 15 -71 42 -71 93c0 50 47 94 124 94c92 0 123 -46 123 -86c0 -47 -32 -77 -66 -100c51 -25 81 -59 81 -105c0 -54 -36 -110 -140 -110c-105 0 -138 52 -138 98zM264 364c0 37 -39 64 -76 78c-40 -14 -74 -47 -74 -81c0 -28 21 -55 77 -55
c48 0 73 29 73 58zM188 609c-43 0 -60 -24 -60 -45c0 -24 20 -48 66 -69c28 16 56 45 56 73c0 19 -15 41 -62 41z" />
    <glyph glyph-name="nine.num" horiz-adv-x="377" 
d="M126 244l-15 49c103 16 142 79 147 135c-31 -18 -58 -26 -91 -26c-79 0 -118 51 -118 123c0 74 47 132 138 132c93 0 137 -67 137 -177c0 -108 -45 -213 -198 -236zM111 526c0 -49 24 -73 72 -73c25 0 59 10 78 27c0 62 -15 125 -77 125c-38 0 -73 -21 -73 -79z" />
    <glyph glyph-name="zero.denom" horiz-adv-x="377" 
d="M192 396c92 0 150 -52 150 -198c0 -138 -52 -203 -155 -203c-100 0 -152 58 -152 200c0 137 59 201 157 201zM189 49c52 0 88 30 88 148c0 115 -34 146 -88 146c-56 0 -90 -36 -90 -153c0 -110 33 -141 90 -141z" />
    <glyph glyph-name="one.denom" horiz-adv-x="377" 
d="M95 53h78v269l-89 -42l-22 44l118 66h63l-5 -59v-278h74v-53h-217v53z" />
    <glyph glyph-name="two.denom" horiz-adv-x="377" 
d="M82 302l-31 44c41 28 85 50 144 50c78 0 113 -43 113 -93c0 -46 -18 -76 -52 -116l-112 -133h180v-54h-261v47l125 148c29 34 53 65 53 98c0 36 -24 48 -58 48c-31 0 -64 -14 -101 -39z" />
    <glyph glyph-name="three.denom" horiz-adv-x="377" 
d="M92 315l-24 43c31 16 79 38 137 38c74 0 107 -42 107 -91c0 -35 -10 -61 -42 -90c31 -42 48 -76 48 -111c0 -55 -39 -109 -135 -109c-47 0 -96 14 -120 26l19 49c26 -12 63 -23 97 -23c48 0 76 19 76 57c0 27 -16 53 -37 85c-30 -12 -60 -20 -80 -24l-14 45
c25 6 43 12 56 17c37 13 69 25 69 67c0 37 -28 48 -60 48c-26 0 -65 -12 -97 -27z" />
    <glyph glyph-name="four.denom" horiz-adv-x="377" 
d="M230 252h40v-113h68v-53h-68v-86h-61v88h-170v47l121 263l51 -23l-109 -236h109v34z" />
    <glyph glyph-name="five.denom" horiz-adv-x="377" 
d="M89 194l28 197h201v-53h-156l-14 -98c106 -2 174 -29 174 -120c0 -58 -30 -125 -144 -125c-54 0 -110 21 -123 32l22 49c21 -12 56 -28 101 -28c58 0 79 30 79 70c0 72 -88 75 -168 76z" />
    <glyph glyph-name="six.denom" horiz-adv-x="377" 
d="M249 408l15 -49c-99 -10 -141 -77 -147 -136c29 19 60 28 93 28c79 0 116 -49 116 -122s-42 -134 -135 -134c-96 0 -140 70 -140 177c0 108 50 213 198 236zM264 123c0 52 -21 77 -69 77c-25 0 -59 -11 -81 -28c0 -62 15 -125 77 -125c38 0 73 21 73 76z" />
    <glyph glyph-name="seven.denom" horiz-adv-x="377" 
d="M57 339v52h269v-46c-110 -96 -138 -210 -138 -324v-21h-64v26c0 102 24 214 123 313h-190z" />
    <glyph glyph-name="eight.denom" horiz-adv-x="377" 
d="M50 93c0 65 51 101 87 116c-33 15 -71 42 -71 93c0 50 47 94 124 94c92 0 123 -46 123 -86c0 -47 -32 -77 -66 -100c51 -25 81 -59 81 -105c0 -54 -36 -110 -140 -110c-105 0 -138 52 -138 98zM264 103c0 37 -39 64 -76 78c-40 -14 -74 -47 -74 -81c0 -28 21 -55 77 -55
c48 0 73 29 73 58zM188 348c-43 0 -60 -24 -60 -45c0 -24 20 -48 66 -69c28 16 56 45 56 73c0 19 -15 41 -62 41z" />
    <glyph glyph-name="nine.denom" horiz-adv-x="377" 
d="M126 -17l-15 49c103 16 142 79 147 135c-31 -18 -58 -26 -91 -26c-79 0 -118 51 -118 123c0 74 47 132 138 132c93 0 137 -67 137 -177c0 -108 -45 -213 -198 -236zM111 265c0 -49 24 -73 72 -73c25 0 59 10 78 27c0 62 -15 125 -77 125c-38 0 -73 -21 -73 -79z" />
    <glyph glyph-name="onehalf" unicode="&#xbd;" horiz-adv-x="800" 
d="M56 314h78v269l-89 -42l-22 44l118 66h63l-5 -59v-278h74v-53h-217v53zM274 -3l-58 27l292 627l60 -26zM517 302l-31 44c41 28 85 50 144 50c78 0 113 -43 113 -93c0 -46 -18 -76 -52 -116l-112 -133h180v-54h-261v47l125 148c29 34 53 65 53 98c0 36 -24 48 -58 48
c-31 0 -64 -14 -101 -39z" />
    <glyph glyph-name="onequarter" unicode="&#xbc;" horiz-adv-x="800" 
d="M49 314h78v269l-89 -42l-22 44l118 66h63l-5 -59v-278h74v-53h-217v53zM287 -3l-58 27l292 627l60 -26zM657 252h40v-113h68v-53h-68v-86h-61v88h-170v47l121 263l51 -23l-109 -236h109v34z" />
    <glyph glyph-name="threequarters" unicode="&#xbe;" horiz-adv-x="800" 
d="M70 576l-24 43c31 16 79 38 137 38c74 0 107 -42 107 -91c0 -35 -10 -61 -42 -90c31 -42 48 -76 48 -111c0 -55 -39 -109 -135 -109c-47 0 -96 14 -120 26l19 49c26 -12 63 -23 97 -23c48 0 76 19 76 57c0 27 -16 53 -37 85c-30 -12 -60 -20 -80 -24l-14 45
c25 6 43 12 56 17c37 13 69 25 69 67c0 37 -28 48 -60 48c-26 0 -65 -12 -97 -27zM284 -3l-58 27l292 627l60 -26zM655 252h40v-113h68v-53h-68v-86h-61v88h-170v47l121 263l51 -23l-109 -236h109v34z" />
    <glyph glyph-name="onethird" unicode="&#x2153;" horiz-adv-x="800" 
d="M50 314h78v269l-89 -42l-22 44l118 66h63l-5 -59v-278h74v-53h-217v53zM276 -3l-58 27l292 627l60 -26zM528 315l-24 43c31 16 79 38 137 38c74 0 107 -42 107 -91c0 -35 -10 -61 -42 -90c31 -42 48 -76 48 -111c0 -55 -39 -109 -135 -109c-47 0 -96 14 -120 26l19 49
c26 -12 63 -23 97 -23c48 0 76 19 76 57c0 27 -16 53 -37 85c-30 -12 -60 -20 -80 -24l-14 45c25 6 43 12 56 17c37 13 69 25 69 67c0 37 -28 48 -60 48c-26 0 -65 -12 -97 -27z" />
    <glyph glyph-name="twothirds" unicode="&#x2154;" horiz-adv-x="800" 
d="M52 563l-31 44c41 28 85 50 144 50c78 0 113 -43 113 -93c0 -46 -18 -76 -52 -116l-112 -133h180v-54h-261v47l125 148c29 34 53 65 53 98c0 36 -24 48 -58 48c-31 0 -64 -14 -101 -39zM290 -3l-58 27l292 627l60 -26zM535 315l-24 43c31 16 79 38 137 38
c74 0 107 -42 107 -91c0 -35 -10 -61 -42 -90c31 -42 48 -76 48 -111c0 -55 -39 -109 -135 -109c-47 0 -96 14 -120 26l19 49c26 -12 63 -23 97 -23c48 0 76 19 76 57c0 27 -16 53 -37 85c-30 -12 -60 -20 -80 -24l-14 45c25 6 43 12 56 17c37 13 69 25 69 67
c0 37 -28 48 -60 48c-26 0 -65 -12 -97 -27z" />
    <glyph glyph-name="onefifth" unicode="&#xf500;" horiz-adv-x="800" 
d="M59 314h78v269l-89 -42l-22 44l118 66h63l-5 -59v-278h74v-53h-217v53zM281 -3l-58 27l292 627l60 -26zM521 194l28 197h201v-53h-156l-14 -98c106 -2 174 -29 174 -120c0 -58 -30 -125 -144 -125c-54 0 -110 21 -123 32l22 49c21 -12 56 -28 101 -28c58 0 79 30 79 70
c0 72 -88 75 -168 76z" />
    <glyph glyph-name="twofifths" unicode="&#xf501;" horiz-adv-x="800" 
d="M58 563l-31 44c41 28 85 50 144 50c78 0 113 -43 113 -93c0 -46 -18 -76 -52 -116l-112 -133h180v-54h-261v47l125 148c29 34 53 65 53 98c0 36 -24 48 -58 48c-31 0 -64 -14 -101 -39zM287 -3l-58 27l292 627l60 -26zM523 194l28 197h201v-53h-156l-14 -98
c106 -2 174 -29 174 -120c0 -58 -30 -125 -144 -125c-54 0 -110 21 -123 32l22 49c21 -12 56 -28 101 -28c58 0 79 30 79 70c0 72 -88 75 -168 76z" />
    <glyph glyph-name="threefifths" unicode="&#xf502;" horiz-adv-x="800" 
d="M66 576l-24 43c31 16 79 38 137 38c74 0 107 -42 107 -91c0 -35 -10 -61 -42 -90c31 -42 48 -76 48 -111c0 -55 -39 -109 -135 -109c-47 0 -96 14 -120 26l19 49c26 -12 63 -23 97 -23c48 0 76 19 76 57c0 27 -16 53 -37 85c-30 -12 -60 -20 -80 -24l-14 45
c25 6 43 12 56 17c37 13 69 25 69 67c0 37 -28 48 -60 48c-26 0 -65 -12 -97 -27zM283 -3l-58 27l292 627l60 -26zM521 194l28 197h201v-53h-156l-14 -98c106 -2 174 -29 174 -120c0 -58 -30 -125 -144 -125c-54 0 -110 21 -123 32l22 49c21 -12 56 -28 101 -28
c58 0 79 30 79 70c0 72 -88 75 -168 76z" />
    <glyph glyph-name="fourfifths" unicode="&#xf503;" horiz-adv-x="800" 
d="M208 513h40v-113h68v-53h-68v-86h-61v88h-170v47l121 263l51 -23l-109 -236h109v34zM293 -3l-58 27l292 627l60 -26zM531 194l28 197h201v-53h-156l-14 -98c106 -2 174 -29 174 -120c0 -58 -30 -125 -144 -125c-54 0 -110 21 -123 32l22 49c21 -12 56 -28 101 -28
c58 0 79 30 79 70c0 72 -88 75 -168 76z" />
    <glyph glyph-name="onesixth" unicode="&#xf504;" horiz-adv-x="800" 
d="M51 314h78v269l-89 -42l-22 44l118 66h63l-5 -59v-278h74v-53h-217v53zM274 -3l-58 27l292 627l60 -26zM688 408l15 -49c-99 -10 -141 -77 -147 -136c29 19 60 28 93 28c79 0 116 -49 116 -122s-42 -134 -135 -134c-96 0 -140 70 -140 177c0 108 50 213 198 236zM703 123
c0 52 -21 77 -69 77c-25 0 -59 -11 -81 -28c0 -62 15 -125 77 -125c38 0 73 21 73 76z" />
    <glyph glyph-name="fivesixths" unicode="&#xf505;" horiz-adv-x="800" 
d="M280 -3l-58 27l292 627l60 -26zM57 455l28 197h201v-53h-156l-14 -98c106 -2 174 -29 174 -120c0 -58 -30 -125 -144 -125c-54 0 -110 21 -123 32l22 49c21 -12 56 -28 101 -28c58 0 79 30 79 70c0 72 -88 75 -168 76zM683 408l15 -49c-99 -10 -141 -77 -147 -136
c29 19 60 28 93 28c79 0 116 -49 116 -122s-42 -134 -135 -134c-96 0 -140 70 -140 177c0 108 50 213 198 236zM698 123c0 52 -21 77 -69 77c-25 0 -59 -11 -81 -28c0 -62 15 -125 77 -125c38 0 73 21 73 76z" />
    <glyph glyph-name="oneeighth" unicode="&#x215b;" horiz-adv-x="800" 
d="M47 314h78v269l-89 -42l-22 44l118 66h63l-5 -59v-278h74v-53h-217v53zM268 -3l-58 27l292 627l60 -26zM485 93c0 65 51 101 87 116c-33 15 -71 42 -71 93c0 50 47 94 124 94c92 0 123 -46 123 -86c0 -47 -32 -77 -66 -100c51 -25 81 -59 81 -105
c0 -54 -36 -110 -140 -110c-105 0 -138 52 -138 98zM699 103c0 37 -39 64 -76 78c-40 -14 -74 -47 -74 -81c0 -28 21 -55 77 -55c48 0 73 29 73 58zM623 348c-43 0 -60 -24 -60 -45c0 -24 20 -48 66 -69c28 16 56 45 56 73c0 19 -15 41 -62 41z" />
    <glyph glyph-name="threeeighths" unicode="&#x215c;" horiz-adv-x="800" 
d="M59 576l-24 43c31 16 79 38 137 38c74 0 107 -42 107 -91c0 -35 -10 -61 -42 -90c31 -42 48 -76 48 -111c0 -55 -39 -109 -135 -109c-47 0 -96 14 -120 26l19 49c26 -12 63 -23 97 -23c48 0 76 19 76 57c0 27 -16 53 -37 85c-30 -12 -60 -20 -80 -24l-14 45
c25 6 43 12 56 17c37 13 69 25 69 67c0 37 -28 48 -60 48c-26 0 -65 -12 -97 -27zM281 -3l-58 27l292 627l60 -26zM495 93c0 65 51 101 87 116c-33 15 -71 42 -71 93c0 50 47 94 124 94c92 0 123 -46 123 -86c0 -47 -32 -77 -66 -100c51 -25 81 -59 81 -105
c0 -54 -36 -110 -140 -110c-105 0 -138 52 -138 98zM709 103c0 37 -39 64 -76 78c-40 -14 -74 -47 -74 -81c0 -28 21 -55 77 -55c48 0 73 29 73 58zM633 348c-43 0 -60 -24 -60 -45c0 -24 20 -48 66 -69c28 16 56 45 56 73c0 19 -15 41 -62 41z" />
    <glyph glyph-name="fiveeighths" unicode="&#x215d;" horiz-adv-x="800" 
d="M56 455l28 197h201v-53h-156l-14 -98c106 -2 174 -29 174 -120c0 -58 -30 -125 -144 -125c-54 0 -110 21 -123 32l22 49c21 -12 56 -28 101 -28c58 0 79 30 79 70c0 72 -88 75 -168 76zM276 -3l-58 27l292 627l60 -26zM494 93c0 65 51 101 87 116c-33 15 -71 42 -71 93
c0 50 47 94 124 94c92 0 123 -46 123 -86c0 -47 -32 -77 -66 -100c51 -25 81 -59 81 -105c0 -54 -36 -110 -140 -110c-105 0 -138 52 -138 98zM708 103c0 37 -39 64 -76 78c-40 -14 -74 -47 -74 -81c0 -28 21 -55 77 -55c48 0 73 29 73 58zM632 348c-43 0 -60 -24 -60 -45
c0 -24 20 -48 66 -69c28 16 56 45 56 73c0 19 -15 41 -62 41z" />
    <glyph glyph-name="seveneighths" unicode="&#x215e;" horiz-adv-x="800" 
d="M35 600v52h269v-46c-110 -96 -138 -210 -138 -324v-21h-64v26c0 102 24 214 123 313h-190zM234 -3l-58 27l292 627l60 -26zM466 93c0 65 51 101 87 116c-33 15 -71 42 -71 93c0 50 47 94 124 94c92 0 123 -46 123 -86c0 -47 -32 -77 -66 -100c51 -25 81 -59 81 -105
c0 -54 -36 -110 -140 -110c-105 0 -138 52 -138 98zM680 103c0 37 -39 64 -76 78c-40 -14 -74 -47 -74 -81c0 -28 21 -55 77 -55c48 0 73 29 73 58zM604 348c-43 0 -60 -24 -60 -45c0 -24 20 -48 66 -69c28 16 56 45 56 73c0 19 -15 41 -62 41z" />
    <glyph glyph-name="oneseventh" unicode="&#xf506;" horiz-adv-x="800" 
d="M63 314h78v269l-89 -42l-22 44l118 66h63l-5 -59v-278h74v-53h-217v53zM275 -3l-58 27l292 627l60 -26zM502 339v52h269v-46c-110 -96 -138 -210 -138 -324v-21h-64v26c0 102 24 214 123 313h-190z" />
    <glyph glyph-name="twosevenths" unicode="&#xf507;" horiz-adv-x="800" 
d="M50 563l-31 44c41 28 85 50 144 50c78 0 113 -43 113 -93c0 -46 -18 -76 -52 -116l-112 -133h180v-54h-261v47l125 148c29 34 53 65 53 98c0 36 -24 48 -58 48c-31 0 -64 -14 -101 -39zM286 -3l-58 27l292 627l60 -26zM511 339v52h269v-46c-110 -96 -138 -210 -138 -324
v-21h-64v26c0 102 24 214 123 313h-190z" />
    <glyph glyph-name="threesevenths" unicode="&#xf508;" horiz-adv-x="800" 
d="M59 576l-24 43c31 16 79 38 137 38c74 0 107 -42 107 -91c0 -35 -10 -61 -42 -90c31 -42 48 -76 48 -111c0 -55 -39 -109 -135 -109c-47 0 -96 14 -120 26l19 49c26 -12 63 -23 97 -23c48 0 76 19 76 57c0 27 -16 53 -37 85c-30 -12 -60 -20 -80 -24l-14 45
c25 6 43 12 56 17c37 13 69 25 69 67c0 37 -28 48 -60 48c-26 0 -65 -12 -97 -27zM275 -3l-58 27l292 627l60 -26zM507 339v52h269v-46c-110 -96 -138 -210 -138 -324v-21h-64v26c0 102 24 214 123 313h-190z" />
    <glyph glyph-name="foursevenths" unicode="&#xf509;" horiz-adv-x="800" 
d="M209 513h40v-113h68v-53h-68v-86h-61v88h-170v47l121 263l51 -23l-109 -236h109v34zM285 -3l-58 27l292 627l60 -26zM517 339v52h269v-46c-110 -96 -138 -210 -138 -324v-21h-64v26c0 102 24 214 123 313h-190z" />
    <glyph glyph-name="fivesevenths" unicode="&#xf50a;" horiz-adv-x="800" 
d="M65 455l28 197h201v-53h-156l-14 -98c106 -2 174 -29 174 -120c0 -58 -30 -125 -144 -125c-54 0 -110 21 -123 32l22 49c21 -12 56 -28 101 -28c58 0 79 30 79 70c0 72 -88 75 -168 76zM279 -3l-58 27l292 627l60 -26zM513 339v52h269v-46c-110 -96 -138 -210 -138 -324
v-21h-64v26c0 102 24 214 123 313h-190z" />
    <glyph glyph-name="sixsevenths" unicode="&#xf50b;" horiz-adv-x="800" 
d="M231 669l15 -49c-99 -10 -141 -77 -147 -136c29 19 60 28 93 28c79 0 116 -49 116 -122s-42 -134 -135 -134c-96 0 -140 70 -140 177c0 108 50 213 198 236zM246 384c0 52 -21 77 -69 77c-25 0 -59 -11 -81 -28c0 -62 15 -125 77 -125c38 0 73 21 73 76zM283 -3l-58 27
l292 627l60 -26zM519 339v52h269v-46c-110 -96 -138 -210 -138 -324v-21h-64v26c0 102 24 214 123 313h-190z" />
    <glyph glyph-name="oneninth" unicode="&#xf50c;" horiz-adv-x="800" 
d="M53 314h78v269l-89 -42l-22 44l118 66h63l-5 -59v-278h74v-53h-217v53zM270 -3l-58 27l292 627l60 -26zM564 -17l-15 49c103 16 142 79 147 135c-31 -18 -58 -26 -91 -26c-79 0 -118 51 -118 123c0 74 47 132 138 132c93 0 137 -67 137 -177c0 -108 -45 -213 -198 -236z
M549 265c0 -49 24 -73 72 -73c25 0 59 10 78 27c0 62 -15 125 -77 125c-38 0 -73 -21 -73 -79z" />
    <glyph glyph-name="twoninths" unicode="&#xf50d;" horiz-adv-x="800" 
d="M43 563l-31 44c41 28 85 50 144 50c78 0 113 -43 113 -93c0 -46 -18 -76 -52 -116l-112 -133h180v-54h-261v47l125 148c29 34 53 65 53 98c0 36 -24 48 -58 48c-31 0 -64 -14 -101 -39zM281 -3l-58 27l292 627l60 -26zM577 -17l-15 49c103 16 142 79 147 135
c-31 -18 -58 -26 -91 -26c-79 0 -118 51 -118 123c0 74 47 132 138 132c93 0 137 -67 137 -177c0 -108 -45 -213 -198 -236zM562 265c0 -49 24 -73 72 -73c25 0 59 10 78 27c0 62 -15 125 -77 125c-38 0 -73 -21 -73 -79z" />
    <glyph glyph-name="fourninths" unicode="&#xf50e;" horiz-adv-x="800" 
d="M203 513h40v-113h68v-53h-68v-86h-61v88h-170v47l121 263l51 -23l-109 -236h109v34zM283 -3l-58 27l292 627l60 -26zM579 -17l-15 49c103 16 142 79 147 135c-31 -18 -58 -26 -91 -26c-79 0 -118 51 -118 123c0 74 47 132 138 132c93 0 137 -67 137 -177
c0 -108 -45 -213 -198 -236zM564 265c0 -49 24 -73 72 -73c25 0 59 10 78 27c0 62 -15 125 -77 125c-38 0 -73 -21 -73 -79z" />
    <glyph glyph-name="fiveninths" unicode="&#xf50f;" horiz-adv-x="800" 
d="M56 455l28 197h201v-53h-156l-14 -98c106 -2 174 -29 174 -120c0 -58 -30 -125 -144 -125c-54 0 -110 21 -123 32l22 49c21 -12 56 -28 101 -28c58 0 79 30 79 70c0 72 -88 75 -168 76zM277 -3l-58 27l292 627l60 -26zM573 -17l-15 49c103 16 142 79 147 135
c-31 -18 -58 -26 -91 -26c-79 0 -118 51 -118 123c0 74 47 132 138 132c93 0 137 -67 137 -177c0 -108 -45 -213 -198 -236zM558 265c0 -49 24 -73 72 -73c25 0 59 10 78 27c0 62 -15 125 -77 125c-38 0 -73 -21 -73 -79z" />
    <glyph glyph-name="sevenninths" unicode="&#xf510;" horiz-adv-x="800" 
d="M42 600v52h269v-46c-110 -96 -138 -210 -138 -324v-21h-64v26c0 102 24 214 123 313h-190zM246 -3l-58 27l292 627l60 -26zM551 -17l-15 49c103 16 142 79 147 135c-31 -18 -58 -26 -91 -26c-79 0 -118 51 -118 123c0 74 47 132 138 132c93 0 137 -67 137 -177
c0 -108 -45 -213 -198 -236zM536 265c0 -49 24 -73 72 -73c25 0 59 10 78 27c0 62 -15 125 -77 125c-38 0 -73 -21 -73 -79z" />
    <glyph glyph-name="eightninths" unicode="&#xf511;" horiz-adv-x="800" 
d="M25 354c0 65 51 101 87 116c-33 15 -71 42 -71 93c0 50 47 94 124 94c92 0 123 -46 123 -86c0 -47 -32 -77 -66 -100c51 -25 81 -59 81 -105c0 -54 -36 -110 -140 -110c-105 0 -138 52 -138 98zM239 364c0 37 -39 64 -76 78c-40 -14 -74 -47 -74 -81c0 -28 21 -55 77 -55
c48 0 73 29 73 58zM163 609c-43 0 -60 -24 -60 -45c0 -24 20 -48 66 -69c28 16 56 45 56 73c0 19 -15 41 -62 41zM283 -3l-58 27l292 627l60 -26zM571 -17l-15 49c103 16 142 79 147 135c-31 -18 -58 -26 -91 -26c-79 0 -118 51 -118 123c0 74 47 132 138 132
c93 0 137 -67 137 -177c0 -108 -45 -213 -198 -236zM556 265c0 -49 24 -73 72 -73c25 0 59 10 78 27c0 62 -15 125 -77 125c-38 0 -73 -21 -73 -79z" />
    <glyph glyph-name="minus" unicode="&#x2212;" 
d="M470 351v-65h-405v65h405z" />
    <glyph glyph-name="uni2215" unicode="&#x2215;" horiz-adv-x="476" 
d="M114 -113l-69 23l291 810l70 -24z" />
    <glyph glyph-name="uni2219" unicode="&#x2219;" horiz-adv-x="315" 
d="M94 308c0 33 24 57 57 57c36 0 59 -22 59 -56s-22 -60 -56 -60c-38 0 -60 24 -60 59z" />
    <glyph glyph-name="approxequal" unicode="&#x2248;" horiz-adv-x="569" 
d="M379 172c-84 0 -134 67 -192 67c-36 0 -61 -28 -83 -61l-46 36c34 56 76 89 126 89c74 0 130 -68 191 -68c35 0 58 19 86 58l46 -39c-38 -56 -81 -82 -128 -82zM375 342c-84 0 -134 67 -192 67c-36 0 -61 -28 -83 -61l-46 36c34 56 76 88 126 88c74 0 130 -67 191 -67
c35 0 58 19 86 58l46 -39c-38 -56 -81 -82 -128 -82z" />
    <glyph glyph-name="notequal" unicode="&#x2260;" 
d="M470 257v-65h-208l-36 -130h-71l36 130h-126v65h144l31 108h-175v65h193l35 124h69l-34 -124h142v-65h-161l-30 -108h191z" />
    <glyph glyph-name="lessequal" unicode="&#x2264;" 
d="M459 96v-65h-381v65h381zM457 477l-296 -137l299 -139l-29 -61l-353 167v62l353 169z" />
    <glyph glyph-name="greaterequal" unicode="&#x2265;" 
d="M79 31v65h381v-65h-381zM377 340l-296 137l26 61l353 -169v-62l-353 -167l-29 61z" />
    <glyph glyph-name="less" unicode="&#x3c;" 
d="M433 522l27 -61l-300 -139l302 -141l-29 -61l-357 170v61z" />
    <glyph glyph-name="equal" unicode="=" 
d="M470 430v-65h-405v65h405zM470 257v-65h-405v65h405z" />
    <glyph glyph-name="greater" unicode="&#x3e;" 
d="M105 120l-27 61l300 139l-302 141l29 61l357 -170v-61z" />
    <glyph glyph-name="logicalnot" unicode="&#xac;" 
d="M413 199v138h-360v67h429v-205h-69z" />
    <glyph glyph-name="plus" unicode="+" 
d="M232 353v173h70v-173h171v-67h-171v-173h-70v173h-171v67h171z" />
    <glyph glyph-name="plusminus" unicode="&#xb1;" 
d="M229 353v165h70v-165h171v-67h-171v-163h171v-67h-405v67h164v163h-164v67h164z" />
    <glyph glyph-name="divide" unicode="&#xf7;" 
d="M213 139c0 32 23 57 55 57c35 0 58 -23 58 -56c0 -34 -23 -60 -56 -60c-36 0 -57 23 -57 59zM213 500c0 33 23 58 55 58c35 0 58 -23 58 -57s-23 -59 -56 -59c-36 0 -57 23 -57 58zM470 351v-65h-405v65h405z" />
    <glyph glyph-name="multiply" unicode="&#xd7;" 
d="M219 318l-123 123l50 50l122 -123l123 122l47 -47l-122 -123l123 -122l-51 -50l-122 123l-123 -123l-47 47z" />
    <glyph glyph-name="partialdiff" unicode="&#x2202;" horiz-adv-x="548" 
d="M157 610l14 57c228 -45 307 -192 307 -395c0 -150 -54 -286 -211 -286c-148 0 -205 105 -205 220c0 126 77 209 193 209c55 0 110 -19 152 -52c-13 142 -120 222 -250 247zM405 293c-29 32 -86 65 -144 65c-80 0 -126 -57 -126 -153c0 -100 49 -162 135 -162
c105 0 136 102 136 218c0 10 0 21 -1 32z" />
    <glyph glyph-name="Omega" unicode="&#x2126;" horiz-adv-x="795" 
d="M83 335c0 201 144 322 312 322c182 0 308 -113 308 -306c0 -124 -52 -223 -140 -287h168v-64h-264v57c57 35 160 120 160 289c0 177 -110 244 -230 244c-128 0 -237 -84 -237 -254c0 -145 94 -238 169 -281v-55h-265v64h159c-81 56 -140 148 -140 271z" />
    <glyph glyph-name="Delta" unicode="&#x2206;" horiz-adv-x="664" 
d="M638 0h-613l267 657h82zM540 59l-208 529l-208 -529h416z" />
    <glyph glyph-name="product" unicode="&#x220f;" horiz-adv-x="730" 
d="M646 -132h-76v725h-410v-725h-76v789h562v-789z" />
    <glyph glyph-name="summation" unicode="&#x2211;" horiz-adv-x="566" 
d="M548 -132h-510v64l280 332l-271 328v65h479v-65h-385l268 -329l-282 -331h421v-64z" />
    <glyph glyph-name="uni0394" unicode="&#x394;" horiz-adv-x="664" 
d="M638 0h-613l267 657h82zM540 59l-208 529l-208 -529h416z" />
    <glyph glyph-name="uni03A9" unicode="&#x3a9;" horiz-adv-x="795" 
d="M83 335c0 201 144 322 312 322c182 0 308 -113 308 -306c0 -124 -52 -223 -140 -287h168v-64h-264v57c57 35 160 120 160 289c0 177 -110 244 -230 244c-128 0 -237 -84 -237 -254c0 -145 94 -238 169 -281v-55h-265v64h159c-81 56 -140 148 -140 271z" />
    <glyph glyph-name="uni03BC" unicode="&#x3bc;" horiz-adv-x="589" 
d="M497 497v-419c0 -28 11 -34 28 -34c14 0 26 5 48 16l15 -47c-26 -16 -57 -24 -83 -24c-52 0 -72 31 -68 93c-29 -58 -78 -96 -148 -96c-50 0 -100 18 -132 63v-265h-68v713h69v-298c0 -89 36 -155 127 -155c86 0 141 74 141 174v279h71z" />
    <glyph glyph-name="pi" unicode="&#x3c0;" horiz-adv-x="623" 
d="M583 438h-82v-343c0 -38 3 -55 33 -55c20 0 38 5 48 9l12 -47c-16 -8 -50 -16 -77 -16c-68 0 -87 37 -87 89v363h-229v-438h-70v438h-83v59h535v-59z" />
    <glyph glyph-name="mu" unicode="&#xb5;" horiz-adv-x="589" 
d="M497 497v-419c0 -28 11 -34 28 -34c14 0 26 5 48 16l15 -47c-26 -16 -57 -24 -83 -24c-52 0 -72 31 -68 93c-29 -58 -78 -96 -148 -96c-50 0 -100 18 -132 63v-265h-68v713h69v-298c0 -89 36 -155 127 -155c86 0 141 74 141 174v279h71z" />
    <glyph glyph-name="radical" unicode="&#x221a;" horiz-adv-x="651" 
d="M649 731l-262 -745h-75l-155 442l-101 -54l-23 52l171 90l147 -433l224 648h74z" />
    <glyph glyph-name="infinity" unicode="&#x221e;" horiz-adv-x="764" 
d="M717 337c0 -101 -66 -158 -149 -158c-77 0 -141 52 -184 103c-48 -60 -110 -105 -182 -105c-95 0 -155 57 -155 148c0 87 66 155 160 155c77 0 126 -40 178 -113c60 70 111 114 189 114c94 0 143 -65 143 -144zM653 330c0 56 -29 95 -88 95c-57 0 -98 -43 -143 -99
c40 -53 93 -94 144 -94c57 0 87 49 87 98zM345 324c-45 71 -86 101 -137 101c-66 0 -99 -45 -99 -98c0 -55 34 -96 97 -96c48 0 95 30 139 93z" />
    <glyph glyph-name="integral" unicode="&#x222b;" horiz-adv-x="390" 
d="M341 618c-18 7 -44 13 -67 13c-34 0 -58 -11 -58 -70c0 -27 2 -48 3 -64l27 -439c2 -25 5 -58 5 -86c0 -72 -23 -128 -115 -128c-34 0 -64 5 -91 16l13 59c20 -6 42 -12 65 -12c39 0 57 10 57 61c0 21 -2 46 -3 62l-28 443c-2 27 -4 55 -4 85c0 71 21 130 114 130
c38 0 68 -7 92 -15z" />
    <glyph glyph-name="lozenge" unicode="&#x25ca;" horiz-adv-x="580" 
d="M520 332l-193 -332h-74l-193 330l193 327h74zM449 331l-160 271l-157 -270l161 -280z" />
    <glyph glyph-name="commaaccent" horiz-adv-x="500" 
d="M149 -257l58 187c30 -1 71 -4 71 -36c-1 -12 -8 -29 -14 -40c-17 -33 -40 -70 -78 -129z" />
    <glyph glyph-name="revcommaaccent" horiz-adv-x="500" 
d="M319 769l-57 -188c-34 3 -72 7 -72 38c0 12 7 28 13 40c17 33 41 68 79 127z" />
    <glyph glyph-name="tilde.cap" horiz-adv-x="500" 
d="M116 739l-7 57c24 19 54 27 80 27c50 0 86 -25 130 -25c21 0 42 7 60 17l7 -60c-20 -11 -39 -18 -66 -18c-43 0 -95 22 -133 22c-25 0 -47 -7 -71 -20z" />
    <glyph glyph-name="ring.cap" horiz-adv-x="500" 
d="M164 767c0 50 33 86 86 86c54 0 86 -36 86 -81c0 -53 -34 -90 -88 -90s-84 37 -84 85zM212 767c0 -27 11 -45 38 -45s38 19 38 45c0 28 -11 46 -38 46c-28 0 -38 -18 -38 -46z" />
    <glyph glyph-name="circumflex.cap" horiz-adv-x="500" 
d="M128 716l-31 24c42 55 80 98 107 123c18 17 30 22 44 22c13 0 27 -3 44 -20c29 -29 70 -73 109 -124l-31 -25l-122 88z" />
    <glyph glyph-name="acute.cap" horiz-adv-x="500" 
d="M159 749l152 148c24 -13 49 -31 49 -52c0 -18 -17 -31 -33 -42c-30 -21 -81 -50 -144 -87z" />
    <glyph glyph-name="grave.cap" horiz-adv-x="500" 
d="M208 896l152 -147l-24 -33c-62 37 -115 66 -145 87c-18 13 -32 24 -32 42c0 21 26 38 49 51z" />
    <glyph glyph-name="dieresis.cap" horiz-adv-x="500" 
d="M293 781c0 29 21 51 52 51c29 0 51 -22 51 -51c0 -31 -23 -52 -52 -52c-31 0 -51 21 -51 52zM105 781c0 29 21 51 52 51c29 0 51 -22 51 -51c0 -31 -23 -52 -52 -52c-30 0 -51 21 -51 52z" />
    <glyph glyph-name="caron.cap" horiz-adv-x="500" 
d="M370 885l31 -24c-42 -55 -80 -98 -107 -123c-18 -17 -30 -22 -44 -22c-13 0 -27 3 -44 20c-29 29 -70 73 -109 124l31 25l122 -88z" />
    <glyph glyph-name="macron.cap" horiz-adv-x="500" 
d="M117 742v65h260v-65h-260z" />
    <glyph glyph-name="dotaccent.cap" horiz-adv-x="500" 
d="M201 786c0 29 22 52 52 52c29 0 52 -23 52 -52c0 -31 -23 -53 -53 -53s-51 22 -51 53z" />
    <glyph glyph-name="cedilla.cap" horiz-adv-x="500" 
d="M212 3h48l-20 -75c48 -3 84 -25 84 -74c0 -60 -51 -89 -106 -89c-26 0 -60 7 -82 18l13 42c15 -5 43 -13 66 -13c41 0 51 20 51 40c0 31 -31 40 -89 40z" />
    <glyph glyph-name="hungarumlaut.cap" horiz-adv-x="500" 
d="M72 739l157 144c22 -14 47 -32 47 -53c0 -18 -16 -29 -34 -41c-30 -20 -83 -48 -147 -83zM259 739l156 144c22 -14 47 -32 47 -53c0 -18 -16 -30 -34 -41c-31 -19 -82 -48 -146 -83z" />
    <glyph glyph-name="apostrophe" unicode="&#x2bc;" horiz-adv-x="252" 
d="M87 577l35 192c10 1 23 2 33 2c23 -1 41 -4 41 -26c0 -11 -3 -24 -8 -39c-14 -39 -38 -91 -65 -141z" />
    <glyph glyph-name="commaaccent.cap" horiz-adv-x="500" 
d="M149 -257l58 187c30 -1 71 -4 71 -36c-1 -12 -8 -29 -14 -40c-17 -33 -40 -70 -78 -129z" />
    <glyph glyph-name="breve.cap" horiz-adv-x="500" 
d="M355 856l57 -19c-22 -68 -66 -116 -162 -116c-88 0 -136 48 -154 116l58 19c19 -53 48 -78 100 -78s79 19 101 78z" />
    <glyph glyph-name="caron.alt" horiz-adv-x="252" 
d="M94 498l-1 191c13 3 30 6 44 6c23 0 36 -5 36 -28c0 -6 0 -12 -1 -17c-6 -47 -24 -115 -38 -159z" />
    <glyph glyph-name="ogonek.cap" horiz-adv-x="500" 
d="M238 2l65 -1c-40 -32 -72 -89 -72 -130c0 -31 11 -47 42 -47c20 0 36 5 51 11l15 -49c-19 -11 -51 -22 -85 -22c-73 0 -92 45 -92 88c0 61 41 117 76 150z" />
    <glyph glyph-name="zero.tf" 
d="M273 657c133 0 217 -89 217 -329c0 -235 -77 -338 -225 -338c-145 0 -220 98 -220 333c0 229 88 334 228 334zM268 54c83 0 143 57 143 272c0 209 -57 266 -142 266c-89 0 -144 -66 -144 -279c0 -199 56 -259 143 -259z" />
    <glyph glyph-name="one.tf" 
d="M134 63h126v497l-155 -82l-29 50l189 116h77l-5 -70v-511h121v-63h-324v63z" />
    <glyph glyph-name="two.tf" 
d="M106 516l-45 50c52 53 128 91 208 91c112 0 174 -67 174 -167c0 -71 -33 -128 -84 -188l-205 -237h326v-65h-424v57l226 266c58 68 80 98 80 161c0 69 -46 105 -106 105c-61 0 -113 -39 -150 -73z" />
    <glyph glyph-name="three.tf" 
d="M95 512l-43 48c50 51 133 97 224 97c120 0 169 -70 169 -150c0 -62 -24 -111 -80 -151c58 -50 91 -111 91 -176c0 -97 -65 -191 -214 -191c-75 0 -155 25 -185 47l26 63c40 -23 101 -44 160 -44c83 0 133 50 133 117c0 53 -21 98 -73 143c-35 -17 -90 -31 -113 -37
l-21 60c128 32 196 66 196 157c0 60 -34 95 -101 95c-57 0 -114 -29 -169 -78z" />
    <glyph glyph-name="four.tf" 
d="M360 442h47v-212h96v-63h-96v-167h-79v167h-284v62l203 427l63 -32l-188 -394h209v71z" />
    <glyph glyph-name="five.tf" 
d="M99 323l41 321h313v-65h-249l-27 -196c136 -5 280 -54 280 -202c0 -90 -55 -192 -216 -192c-81 0 -165 31 -192 52l27 61c35 -20 96 -48 164 -48c101 0 138 58 138 124c0 129 -168 145 -279 145z" />
    <glyph glyph-name="six.tf" 
d="M372 668l15 -61c-150 -24 -230 -129 -240 -253c46 31 105 51 159 51c110 0 175 -77 175 -193c0 -119 -70 -224 -210 -224c-154 0 -207 131 -207 286c0 195 77 352 308 394zM403 210c0 80 -41 136 -116 136c-50 0 -117 -29 -145 -55c-6 -125 29 -240 131 -240
c78 0 130 61 130 159z" />
    <glyph glyph-name="seven.tf" 
d="M75 579v65h407v-60c-197 -171 -230 -380 -230 -549v-35h-81v43c0 165 41 362 213 536h-309z" />
    <glyph glyph-name="eight.tf" 
d="M64 154c0 103 82 163 133 190c-49 28 -111 71 -111 154c0 88 75 159 183 159c127 0 177 -74 177 -144c0 -73 -51 -128 -105 -168c78 -41 128 -97 128 -172c0 -93 -58 -184 -205 -184c-150 0 -200 88 -200 165zM388 169c0 75 -70 117 -127 142c-59 -27 -120 -76 -120 -151
c0 -56 41 -109 126 -109c78 0 121 47 121 118zM266 597c-62 0 -103 -45 -103 -96c0 -55 45 -96 114 -128c43 27 94 76 94 134c0 50 -38 90 -105 90z" />
    <glyph glyph-name="nine.tf" 
d="M166 -8l-15 60c152 29 234 112 244 237c-46 -32 -101 -49 -158 -49c-115 0 -180 76 -180 193c0 119 71 224 210 224c155 0 207 -131 207 -286c0 -195 -76 -340 -308 -379zM135 435c0 -80 39 -135 114 -135c64 0 118 28 147 53c5 126 -29 241 -131 241
c-78 0 -130 -62 -130 -159z" />
    <glyph glyph-name="dollar.tf" 
d="M44 69l33 65c28 -19 89 -51 160 -56v232c-88 26 -179 56 -179 173c0 101 71 162 179 172v92h61v-92c78 -8 145 -45 187 -87l-44 -53c-44 38 -92 64 -143 72v-217c89 -27 182 -60 182 -177c0 -112 -67 -172 -182 -183v-118h-61v116c-89 5 -168 40 -193 61zM400 183
c0 62 -45 89 -102 109v-213c53 8 102 33 102 104zM140 491c0 -57 42 -83 97 -102v198c-49 -5 -97 -27 -97 -96z" />
    <glyph glyph-name="Euro.tf" 
d="M458 238v60h-431v-60h115c-36 -30 -51 -65 -51 -107c0 -74 52 -145 211 -145c76 0 158 21 223 81l-41 56c-56 -50 -113 -69 -174 -69c-89 0 -131 33 -131 88c0 62 40 96 109 96h170zM458 403v-60h-431v60h110c-31 28 -46 58 -46 97c0 74 59 157 205 157
c76 0 160 -26 234 -103l-50 -50c-52 51 -118 85 -184 85c-84 0 -117 -45 -117 -93c0 -69 50 -93 102 -93h177z" />
    <glyph glyph-name="cent.tf" 
d="M334 -60h-65v112c-119 16 -182 107 -182 262c0 178 95 245 182 259v112h65v-111c51 -6 105 -28 144 -86l-52 -41c-27 36 -57 56 -92 62v-394c35 4 69 18 103 45l33 -53c-28 -26 -77 -50 -136 -56v-111zM165 317c0 -100 30 -176 104 -197v387c-62 -16 -104 -77 -104 -190z
" />
    <glyph glyph-name="sterling.tf" 
d="M34 156v60h113l56 258c32 149 105 183 190 183c63 0 115 -29 143 -50l-37 -51c-26 18 -65 38 -108 38c-74 0 -97 -46 -116 -131l-54 -247h180v-59h-191l-24 -106c-14 -66 -44 -103 -80 -133l2 -3c22 7 48 11 67 11c65 0 111 -25 189 -25c30 0 64 3 105 12l-8 -63
c-39 -8 -73 -11 -99 -11c-96 0 -145 28 -229 28c-33 0 -85 -9 -122 -25v63c52 28 81 65 97 134l27 117h-101z" />
    <glyph glyph-name="yen.tf" 
d="M234 163h-170v57h170v86h-170v56h138l-155 282h83l144 -272l141 272h81l-153 -282h135v-56h-167v-86h167v-57h-167v-163h-77v163z" />
    <glyph glyph-name="florin.tf" horiz-adv-x="484" 
d="M66 326l10 63h102l14 82c19 114 50 186 180 186c42 0 90 -12 126 -29l-26 -56c-31 14 -69 24 -99 24c-62 0 -86 -31 -97 -93l-21 -114h156l-11 -63h-156l-59 -340c-21 -123 -52 -196 -183 -196c-41 0 -89 12 -124 29l26 55c30 -14 69 -23 99 -23c59 0 87 33 98 93l66 382
h-101z" />
    <glyph glyph-name="zero.osf" horiz-adv-x="508" 
d="M257 511c136 0 223 -75 223 -250c0 -178 -88 -276 -230 -276c-146 0 -222 105 -222 260c0 181 97 266 229 266zM252 47c85 0 149 65 149 212c0 133 -61 190 -147 190c-91 0 -148 -63 -148 -206c0 -122 57 -196 146 -196z" />
    <glyph glyph-name="one.osf" horiz-adv-x="439" 
d="M95 63h125v348l-152 -80l-29 50l189 116h77l-6 -71v-363h124v-63h-328v63z" />
    <glyph glyph-name="two.osf" horiz-adv-x="480" 
d="M68 364l-44 49c64 63 138 98 217 98c120 0 177 -65 177 -155c0 -80 -43 -130 -112 -182l-150 -112h287v-62h-407v51l188 144c82 62 113 94 113 154c0 59 -33 96 -100 96c-68 0 -125 -40 -169 -81z" />
    <glyph glyph-name="three.osf" horiz-adv-x="467" 
d="M327 215c58 -53 96 -109 96 -174c0 -149 -160 -198 -351 -218l-15 61c132 15 287 45 287 154c0 51 -29 96 -81 140c-34 -15 -89 -35 -112 -40l-21 59c128 35 197 71 197 158c0 55 -34 89 -101 89c-54 0 -108 -26 -159 -67l-37 52c48 42 124 82 207 82
c119 0 169 -69 169 -145c0 -56 -22 -110 -79 -151z" />
    <glyph glyph-name="four.osf" horiz-adv-x="491" 
d="M350 294h48v-230h96v-64h-96v-153h-79v154h-285v54l200 445l64 -31l-184 -405h207v77z" />
    <glyph glyph-name="five.osf" horiz-adv-x="456" 
d="M69 192l40 305h300v-64h-237l-24 -180c138 -5 269 -39 269 -188c0 -154 -157 -229 -359 -243l-11 61c166 16 289 66 289 179c0 131 -168 134 -267 130z" />
    <glyph glyph-name="six.osf" horiz-adv-x="516" 
d="M358 668l15 -61c-150 -24 -230 -129 -240 -253c46 31 105 51 159 51c110 0 175 -77 175 -193c0 -119 -70 -224 -210 -224c-154 0 -207 131 -207 286c0 195 77 352 308 394zM389 210c0 80 -41 136 -116 136c-50 0 -117 -29 -145 -55c-6 -125 29 -240 131 -240
c78 0 130 61 130 159z" />
    <glyph glyph-name="seven.osf" horiz-adv-x="449" 
d="M18 431v66h406v-60l-294 -591h-80l288 585h-320z" />
    <glyph glyph-name="eight.osf" horiz-adv-x="521" 
d="M58 154c0 103 82 163 133 190c-49 28 -111 71 -111 154c0 88 75 159 183 159c127 0 177 -74 177 -144c0 -73 -51 -128 -105 -168c78 -41 128 -97 128 -172c0 -93 -58 -184 -205 -184c-150 0 -200 88 -200 165zM382 169c0 75 -70 117 -127 142c-59 -27 -120 -76 -120 -151
c0 -56 41 -109 126 -109c78 0 121 47 121 118zM260 597c-62 0 -103 -45 -103 -96c0 -55 45 -96 114 -128c43 27 94 76 94 134c0 50 -38 90 -105 90z" />
    <glyph glyph-name="nine.osf" horiz-adv-x="514" 
d="M158 -154l-15 60c152 29 234 112 244 237c-46 -32 -101 -49 -158 -49c-115 0 -180 76 -180 193c0 119 71 224 210 224c155 0 207 -131 207 -286c0 -195 -76 -340 -308 -379zM127 289c0 -80 39 -135 114 -135c64 0 118 28 147 53c5 126 -29 241 -131 241
c-78 0 -130 -62 -130 -159z" />
    <glyph glyph-name="dollar.osf" 
d="M44 69l33 65c28 -19 89 -51 160 -56v232c-88 26 -179 56 -179 173c0 101 71 162 179 172v92h61v-92c78 -8 145 -45 187 -87l-44 -53c-44 38 -92 64 -143 72v-217c89 -27 182 -60 182 -177c0 -112 -67 -172 -182 -183v-118h-61v116c-89 5 -168 40 -193 61zM400 183
c0 62 -45 89 -102 109v-213c53 8 102 33 102 104zM140 491c0 -57 42 -83 97 -102v198c-49 -5 -97 -27 -97 -96z" />
    <glyph glyph-name="Euro.osf" horiz-adv-x="543" 
d="M458 238v60h-431v-60h115c-36 -30 -51 -65 -51 -107c0 -74 52 -145 211 -145c76 0 158 21 223 81l-41 56c-56 -50 -113 -69 -174 -69c-89 0 -131 33 -131 88c0 62 40 96 109 96h170zM458 403v-60h-431v60h110c-31 28 -46 58 -46 97c0 74 59 157 205 157
c76 0 160 -26 234 -103l-50 -50c-52 51 -118 85 -184 85c-84 0 -117 -45 -117 -93c0 -69 50 -93 102 -93h177z" />
    <glyph glyph-name="cent.osf" 
d="M338 -130h-65v112c-119 16 -182 107 -182 262c0 178 95 245 182 259v112h65v-111c51 -6 105 -28 144 -86l-52 -41c-27 36 -57 56 -92 62v-394c35 4 69 18 103 45l33 -53c-28 -26 -77 -50 -136 -56v-111zM169 247c0 -100 30 -176 104 -197v387c-62 -16 -104 -77 -104 -190
z" />
    <glyph glyph-name="sterling.osf" horiz-adv-x="544" 
d="M67 156v60h113l56 258c32 149 105 183 190 183c63 0 115 -29 143 -50l-37 -51c-26 18 -65 38 -108 38c-74 0 -97 -46 -116 -131l-54 -247h180v-59h-191l-24 -106c-14 -66 -44 -103 -80 -133l2 -3c22 7 48 11 67 11c65 0 111 -25 189 -25c30 0 64 3 105 12l-8 -63
c-39 -8 -73 -11 -99 -11c-96 0 -145 28 -229 28c-33 0 -85 -9 -122 -25v63c52 28 81 65 97 134l27 117h-101z" />
    <glyph glyph-name="yen.osf" horiz-adv-x="517" 
d="M224 163h-170v57h170v86h-170v56h138l-155 282h83l144 -272l141 272h81l-153 -282h135v-56h-167v-86h167v-57h-167v-163h-77v163z" />
    <glyph glyph-name="florin.osf" horiz-adv-x="515" 
d="M104 326l10 63h102l14 82c19 114 50 186 180 186c42 0 90 -12 126 -29l-26 -56c-31 14 -69 24 -99 24c-62 0 -86 -31 -97 -93l-21 -114h156l-11 -63h-156l-59 -340c-21 -123 -52 -196 -183 -196c-41 0 -89 12 -124 29l26 55c30 -14 69 -23 99 -23c59 0 87 33 98 93
l66 382h-101z" />
    <glyph glyph-name="zero.tosf" unicode="&#xf81e;" 
d="M270 511c136 0 223 -75 223 -250c0 -178 -88 -276 -230 -276c-146 0 -222 105 -222 260c0 181 97 266 229 266zM265 47c85 0 149 65 149 212c0 133 -61 190 -147 190c-91 0 -148 -63 -148 -206c0 -122 57 -196 146 -196z" />
    <glyph glyph-name="one.tosf" unicode="&#xf81f;" 
d="M144 63h125v348l-152 -80l-29 50l189 116h77l-6 -71v-363h124v-63h-328v63z" />
    <glyph glyph-name="two.tosf" unicode="&#xf820;" 
d="M82 364l-44 49c64 63 138 98 217 98c120 0 177 -65 177 -155c0 -80 -43 -130 -112 -182l-150 -112h287v-62h-407v51l188 144c82 62 113 94 113 154c0 59 -33 96 -100 96c-68 0 -125 -40 -169 -81z" />
    <glyph glyph-name="three.tosf" unicode="&#xf821;" 
d="M347 215c58 -53 96 -109 96 -174c0 -149 -160 -198 -351 -218l-15 61c132 15 287 45 287 154c0 51 -29 96 -81 140c-34 -15 -89 -35 -112 -40l-21 59c128 35 197 71 197 158c0 55 -34 89 -101 89c-54 0 -108 -26 -159 -67l-37 52c48 42 124 82 207 82
c119 0 169 -69 169 -145c0 -56 -22 -110 -79 -151z" />
    <glyph glyph-name="four.tosf" unicode="&#xf822;" 
d="M355 294h48v-230h96v-64h-96v-153h-79v154h-285v54l200 445l64 -31l-184 -405h207v77z" />
    <glyph glyph-name="five.tosf" unicode="&#xf823;" 
d="M104 192l40 305h300v-64h-237l-24 -180c138 -5 269 -39 269 -188c0 -154 -157 -229 -359 -243l-11 61c166 16 289 66 289 179c0 131 -168 134 -267 130z" />
    <glyph glyph-name="six.tosf" unicode="&#xf824;" 
d="M376 668l15 -61c-150 -24 -230 -129 -240 -253c46 31 105 51 159 51c110 0 175 -77 175 -193c0 -119 -70 -224 -210 -224c-154 0 -207 131 -207 286c0 195 77 352 308 394zM407 210c0 80 -41 136 -116 136c-50 0 -117 -29 -145 -55c-6 -125 29 -240 131 -240
c78 0 130 61 130 159z" />
    <glyph glyph-name="seven.tosf" unicode="&#xf825;" 
d="M60 431v66h406v-60l-294 -591h-80l288 585h-320z" />
    <glyph glyph-name="eight.tosf" unicode="&#xf826;" 
d="M64 154c0 103 82 163 133 190c-49 28 -111 71 -111 154c0 88 75 159 183 159c127 0 177 -74 177 -144c0 -73 -51 -128 -105 -168c78 -41 128 -97 128 -172c0 -93 -58 -184 -205 -184c-150 0 -200 88 -200 165zM388 169c0 75 -70 117 -127 142c-59 -27 -120 -76 -120 -151
c0 -56 41 -109 126 -109c78 0 121 47 121 118zM266 597c-62 0 -103 -45 -103 -96c0 -55 45 -96 114 -128c43 27 94 76 94 134c0 50 -38 90 -105 90z" />
    <glyph glyph-name="nine.tosf" unicode="&#xf827;" 
d="M166 -154l-15 60c152 29 234 112 244 237c-46 -32 -101 -49 -158 -49c-115 0 -180 76 -180 193c0 119 71 224 210 224c155 0 207 -131 207 -286c0 -195 -76 -340 -308 -379zM135 289c0 -80 39 -135 114 -135c64 0 118 28 147 53c5 126 -29 241 -131 241
c-78 0 -130 -62 -130 -159z" />
    <glyph glyph-name="dollar.tosf" 
d="M34 69l33 65c28 -19 89 -51 160 -56v232c-88 26 -179 56 -179 173c0 101 71 162 179 172v92h61v-92c78 -8 145 -45 187 -87l-44 -53c-44 38 -92 64 -143 72v-217c89 -27 182 -60 182 -177c0 -112 -67 -172 -182 -183v-118h-61v116c-89 5 -168 40 -193 61zM390 183
c0 62 -45 89 -102 109v-213c53 8 102 33 102 104zM130 491c0 -57 42 -83 97 -102v198c-49 -5 -97 -27 -97 -96z" />
    <glyph glyph-name="Euro.tosf" 
d="M458 238v60h-431v-60h115c-36 -30 -51 -65 -51 -107c0 -74 52 -145 211 -145c76 0 158 21 223 81l-41 56c-56 -50 -113 -69 -174 -69c-89 0 -131 33 -131 88c0 62 40 96 109 96h170zM458 403v-60h-431v60h110c-31 28 -46 58 -46 97c0 74 59 157 205 157
c76 0 160 -26 234 -103l-50 -50c-52 51 -118 85 -184 85c-84 0 -117 -45 -117 -93c0 -69 50 -93 102 -93h177z" />
    <glyph glyph-name="cent.tosf" 
d="M334 -130h-65v112c-119 16 -182 107 -182 262c0 178 95 245 182 259v112h65v-111c51 -6 105 -28 144 -86l-52 -41c-27 36 -57 56 -92 62v-394c35 4 69 18 103 45l33 -53c-28 -26 -77 -50 -136 -56v-111zM165 247c0 -100 30 -176 104 -197v387c-62 -16 -104 -77 -104 -190
z" />
    <glyph glyph-name="sterling.tosf" 
d="M61 156v60h113l56 258c32 149 105 183 190 183c63 0 115 -29 143 -50l-37 -51c-26 18 -65 38 -108 38c-74 0 -97 -46 -116 -131l-54 -247h180v-59h-191l-24 -106c-14 -66 -44 -103 -80 -133l2 -3c22 7 48 11 67 11c65 0 111 -25 189 -25c30 0 64 3 105 12l-8 -63
c-39 -8 -73 -11 -99 -11c-96 0 -145 28 -229 28c-33 0 -85 -9 -122 -25v63c52 28 81 65 97 134l27 117h-101z" />
    <glyph glyph-name="yen.tosf" 
d="M235 163h-170v57h170v86h-170v56h138l-155 282h83l144 -272l141 272h81l-153 -282h135v-56h-167v-86h167v-57h-167v-163h-77v163z" />
    <glyph glyph-name="florin.tosf" 
d="M107 326l10 63h102l14 82c19 114 50 186 180 186c42 0 90 -12 126 -29l-26 -56c-31 14 -69 24 -99 24c-62 0 -86 -31 -97 -93l-21 -114h156l-11 -63h-156l-59 -340c-21 -123 -52 -196 -183 -196c-41 0 -89 12 -124 29l26 55c30 -14 69 -23 99 -23c59 0 87 33 98 93
l66 382h-101z" />
    <glyph glyph-name="a.alt" horiz-adv-x="501" 
d="M87 417l-18 60c32 13 113 34 178 34c113 0 160 -47 160 -172v-258c0 -27 11 -35 28 -35c14 0 26 6 47 17l15 -50c-26 -17 -58 -24 -84 -24c-39 0 -66 21 -70 63c-37 -37 -92 -66 -156 -66c-87 0 -143 52 -143 150c0 116 73 161 189 161c34 0 65 -3 98 -8v53
c0 84 -36 108 -96 108c-46 0 -110 -16 -148 -33zM331 109v122c-20 6 -65 11 -89 11c-67 0 -120 -16 -120 -97c0 -70 29 -98 85 -98c48 0 97 30 124 62z" />
    <glyph glyph-name="e.alt" horiz-adv-x="471" 
d="M274 511c115 0 164 -80 164 -177c0 -38 -7 -77 -17 -107h-297c4 -99 46 -179 155 -179c50 0 97 21 127 46l30 -54c-1 -1 -62 -54 -164 -54c-151 0 -224 104 -224 259c0 146 77 266 226 266zM269 453c-102 0 -142 -94 -145 -173h239c5 18 7 37 7 56c0 60 -27 117 -101 117
z" />
    <glyph glyph-name="g.alt" horiz-adv-x="470" 
d="M401 332c0 -123 -98 -182 -222 -162l-23 -68l108 -17c113 -18 212 -31 212 -142c0 -89 -74 -166 -234 -166c-154 0 -204 53 -204 127c0 67 51 114 90 140c-32 8 -46 18 -46 37c0 10 4 21 10 34l32 74c-44 24 -73 74 -73 145c0 111 77 177 176 177c50 0 85 -14 109 -30
l129 20v-71l-92 -1l-1 -2c24 -32 29 -68 29 -95zM272 23l-77 10c-39 -25 -86 -69 -86 -118c0 -41 20 -81 143 -81c87 0 143 42 143 105c0 39 -20 70 -123 84zM227 219c58 0 100 44 100 112c0 77 -37 126 -101 126c-59 0 -99 -49 -99 -118c0 -66 26 -120 100 -120z" />
    <glyph glyph-name="k.alt" horiz-adv-x="479" 
d="M150 695v-567l226 369h83l-136 -221l135 -276h-81l-106 215l-135 -215h-62v695h76z" />
    <glyph glyph-name="v.alt" horiz-adv-x="465" 
d="M376 497h81l-172 -497h-100l-177 497h85l141 -425h1z" />
    <glyph glyph-name="w.alt" horiz-adv-x="704" 
d="M604 497h83l-136 -497h-93l-106 401v0l-108 -401h-91l-136 497h84l105 -413h1l108 413h76l109 -414h1z" />
    <glyph glyph-name="y.alt" horiz-adv-x="452" 
d="M364 497h80l-177 -504c-48 -138 -78 -216 -191 -216c-47 0 -96 16 -123 33l23 60c26 -14 60 -29 95 -29c40 0 63 11 94 90l28 72l-176 494h83l131 -394h3z" />
    <glyph glyph-name="z.alt" horiz-adv-x="422" 
d="M410 0h-384v52l280 383h-259v62h355v-47l-284 -388h292v-62z" />
    <glyph glyph-name="ae.alt" horiz-adv-x="752" 
d="M209 47c62 0 110 40 139 72c-12 33 -19 71 -19 114c-24 4 -49 9 -87 9c-67 0 -120 -16 -120 -97c0 -70 29 -98 87 -98zM550 453c-102 0 -142 -94 -145 -173h239c5 18 7 37 7 56c0 60 -27 117 -101 117zM554 511c116 0 165 -80 165 -177c0 -38 -8 -77 -17 -107h-297
c4 -100 46 -179 155 -179c50 0 97 21 127 46l30 -54c-1 -1 -62 -54 -164 -54c-82 0 -142 30 -177 83c-39 -37 -107 -83 -189 -83c-87 0 -143 52 -143 150c0 116 73 161 189 161c34 0 65 -3 98 -8v53c0 83 -34 108 -96 108c-46 0 -110 -16 -148 -33l-18 60
c32 13 113 34 178 34c82 0 125 -31 140 -94c35 56 91 94 167 94z" />
    <glyph glyph-name="oe.alt" horiz-adv-x="813" 
d="M616 511c115 0 164 -80 164 -177c0 -38 -7 -77 -17 -107h-297c4 -99 46 -179 155 -179c50 0 97 21 127 46l30 -54c-1 -1 -62 -54 -164 -54c-94 0 -154 40 -185 108c-35 -75 -99 -108 -178 -108c-127 0 -205 86 -205 266c0 207 123 259 222 259c50 0 128 -12 168 -105
c33 64 92 105 180 105zM258 46c95 0 136 91 136 200c0 120 -35 204 -132 204c-95 0 -138 -80 -138 -188c0 -99 20 -216 134 -216zM611 453c-102 0 -142 -94 -145 -173h239c5 18 7 37 7 56c0 60 -27 117 -101 117z" />
    <glyph glyph-name="ampersand.alt" horiz-adv-x="684" 
d="M519 350h69c5 -73 -8 -154 -48 -221c53 -43 103 -79 129 -98l-42 -53c-34 24 -79 59 -128 98c-50 -56 -123 -90 -218 -90c-154 0 -221 94 -221 203c0 96 53 167 130 212c-22 39 -33 78 -33 114c0 93 64 162 175 162c85 0 137 -45 166 -88l-53 -41c-23 36 -64 69 -112 69
c-72 0 -104 -41 -104 -101c0 -109 138 -240 259 -342c27 49 35 108 31 176zM449 119c-82 68 -171 151 -226 230c-50 -30 -91 -87 -91 -156c0 -84 53 -146 156 -146c68 0 123 27 161 72z" />
    <glyph glyph-name="Q.alt" horiz-adv-x="661" 
d="M607 331c0 -187 -78 -298 -198 -332c93 -13 150 -83 261 -83c9 0 18 0 28 1l-8 -64c-8 -1 -16 -1 -23 -1c-135 0 -223 97 -353 97c-15 0 -30 -1 -46 -4l8 47c-142 26 -222 139 -222 339c0 257 148 346 284 346c144 0 269 -91 269 -346zM135 334c0 -132 36 -284 201 -284
c145 0 190 142 190 278c0 118 -39 281 -191 281c-146 0 -200 -139 -200 -275z" />
    <glyph glyph-name="Euro.alt" horiz-adv-x="545" 
d="M356 589c-94 0 -151 -59 -169 -176h247v-60h-406v60h82c27 188 140 244 249 244c58 0 125 -20 180 -90l-46 -45c-40 44 -84 67 -137 67zM434 228h-246c10 -111 63 -173 163 -173c49 0 98 16 143 54l37 -54c-52 -46 -118 -67 -184 -67c-134 0 -221 76 -237 240h-82v60h406
v-60z" />
    <glyph glyph-name="Euro_tf.alt" 
d="M356 589c-94 0 -151 -59 -169 -176h247v-60h-406v60h82c27 188 140 244 249 244c58 0 125 -20 180 -90l-46 -45c-40 44 -84 67 -137 67zM434 228h-246c10 -111 63 -173 163 -173c49 0 98 16 143 54l37 -54c-52 -46 -118 -67 -184 -67c-134 0 -221 76 -237 240h-82v60h406
v-60z" />
    <glyph glyph-name="agrave.alt" horiz-adv-x="501" 
d="M87 417l-18 60c32 13 113 34 178 34c113 0 160 -47 160 -172v-258c0 -27 11 -35 28 -35c14 0 26 6 47 17l15 -50c-26 -17 -58 -24 -84 -24c-39 0 -66 21 -70 63c-37 -37 -92 -66 -156 -66c-87 0 -143 52 -143 150c0 116 73 161 189 161c34 0 65 -3 98 -8v53
c0 84 -36 108 -96 108c-46 0 -110 -16 -148 -33zM331 109v122c-20 6 -65 11 -89 11c-67 0 -120 -16 -120 -97c0 -70 29 -98 85 -98c48 0 97 30 124 62zM207 771l109 -181l-31 -25c-53 48 -96 91 -120 118c-13 15 -22 29 -22 41c0 27 36 40 64 47z" />
    <glyph glyph-name="aacute.alt" horiz-adv-x="501" 
d="M87 417l-18 60c32 13 113 34 178 34c113 0 160 -47 160 -172v-258c0 -27 11 -35 28 -35c14 0 26 6 47 17l15 -50c-26 -17 -58 -24 -84 -24c-39 0 -66 21 -70 63c-37 -37 -92 -66 -156 -66c-87 0 -143 52 -143 150c0 116 73 161 189 161c34 0 65 -3 98 -8v53
c0 84 -36 108 -96 108c-46 0 -110 -16 -148 -33zM331 109v122c-20 6 -65 11 -89 11c-67 0 -120 -16 -120 -97c0 -70 29 -98 85 -98c48 0 97 30 124 62zM167 590l110 181c27 -7 62 -18 62 -45c0 -12 -9 -27 -22 -42c-24 -27 -67 -69 -119 -119z" />
    <glyph glyph-name="acircumflex.alt" horiz-adv-x="501" 
d="M87 417l-18 60c32 13 113 34 178 34c113 0 160 -47 160 -172v-258c0 -27 11 -35 28 -35c14 0 26 6 47 17l15 -50c-26 -17 -58 -24 -84 -24c-39 0 -66 21 -70 63c-37 -37 -92 -66 -156 -66c-87 0 -143 52 -143 150c0 116 73 161 189 161c34 0 65 -3 98 -8v53
c0 84 -36 108 -96 108c-46 0 -110 -16 -148 -33zM331 109v122c-20 6 -65 11 -89 11c-67 0 -120 -16 -120 -97c0 -70 29 -98 85 -98c48 0 97 30 124 62zM121 585l-31 24c41 60 75 106 97 134c13 17 25 27 45 27c19 0 32 -7 47 -26c24 -31 57 -74 96 -135l-31 -25l-112 102z
" />
    <glyph glyph-name="atilde.alt" horiz-adv-x="501" 
d="M87 417l-18 60c32 13 113 34 178 34c113 0 160 -47 160 -172v-258c0 -27 11 -35 28 -35c14 0 26 6 47 17l15 -50c-26 -17 -58 -24 -84 -24c-39 0 -66 21 -70 63c-37 -37 -92 -66 -156 -66c-87 0 -143 52 -143 150c0 116 73 161 189 161c34 0 65 -3 98 -8v53
c0 84 -36 108 -96 108c-46 0 -110 -16 -148 -33zM331 109v122c-20 6 -65 11 -89 11c-67 0 -120 -16 -120 -97c0 -70 29 -98 85 -98c48 0 97 30 124 62zM96 618l-7 57c24 19 54 27 80 27c50 0 86 -25 130 -25c21 0 42 7 60 17l7 -60c-20 -11 -39 -18 -66 -18
c-43 0 -95 22 -133 22c-25 0 -47 -6 -71 -20z" />
    <glyph glyph-name="adieresis.alt" horiz-adv-x="501" 
d="M87 417l-18 60c32 13 113 34 178 34c113 0 160 -47 160 -172v-258c0 -27 11 -35 28 -35c14 0 26 6 47 17l15 -50c-26 -17 -58 -24 -84 -24c-39 0 -66 21 -70 63c-37 -37 -92 -66 -156 -66c-87 0 -143 52 -143 150c0 116 73 161 189 161c34 0 65 -3 98 -8v53
c0 84 -36 108 -96 108c-46 0 -110 -16 -148 -33zM331 109v122c-20 6 -65 11 -89 11c-67 0 -120 -16 -120 -97c0 -70 29 -98 85 -98c48 0 97 30 124 62zM273 652c0 30 21 52 52 52c29 0 51 -22 51 -52c0 -31 -23 -52 -52 -52c-31 0 -51 21 -51 52zM93 652c0 30 21 52 52 52
c29 0 51 -22 51 -52c0 -31 -23 -52 -52 -52c-30 0 -51 21 -51 52z" />
    <glyph glyph-name="aring.alt" horiz-adv-x="501" 
d="M87 417l-18 60c32 13 113 34 178 34c113 0 160 -47 160 -172v-258c0 -27 11 -35 28 -35c14 0 26 6 47 17l15 -50c-26 -17 -58 -24 -84 -24c-39 0 -66 21 -70 63c-37 -37 -92 -66 -156 -66c-87 0 -143 52 -143 150c0 116 73 161 189 161c34 0 65 -3 98 -8v53
c0 84 -36 108 -96 108c-46 0 -110 -16 -148 -33zM331 109v122c-20 6 -65 11 -89 11c-67 0 -120 -16 -120 -97c0 -70 29 -98 85 -98c48 0 97 30 124 62zM149 660c0 50 33 86 86 86c54 0 86 -36 86 -81c0 -53 -34 -90 -88 -90s-84 37 -84 85zM197 660c0 -27 11 -45 38 -45
s38 19 38 45c0 28 -11 46 -38 46c-28 0 -38 -18 -38 -46z" />
    <glyph glyph-name="egrave.alt" horiz-adv-x="471" 
d="M274 511c-149 0 -226 -120 -226 -266c0 -155 73 -259 224 -259c102 0 163 53 164 54l-30 54c-30 -25 -77 -46 -127 -46c-109 0 -151 80 -155 179h297c10 30 17 69 17 107c0 97 -49 177 -164 177zM269 453c74 0 101 -57 101 -117c0 -19 -2 -38 -7 -56h-239
c3 79 43 173 145 173zM233 771l109 -181l-31 -25c-53 48 -96 91 -120 118c-13 15 -22 29 -22 41c0 27 36 40 64 47z" />
    <glyph glyph-name="eacute.alt" horiz-adv-x="471" 
d="M274 511c115 0 164 -80 164 -177c0 -38 -7 -77 -17 -107h-297c4 -99 46 -179 155 -179c50 0 97 21 127 46l30 -54c-1 -1 -62 -54 -164 -54c-151 0 -224 104 -224 259c0 146 77 266 226 266zM269 453c-102 0 -142 -94 -145 -173h239c5 18 7 37 7 56c0 60 -27 117 -101 117
zM195 590l110 181c27 -7 62 -18 62 -45c0 -12 -9 -27 -22 -42c-24 -27 -67 -69 -119 -119z" />
    <glyph glyph-name="ecircumflex.alt" horiz-adv-x="471" 
d="M274 511c-149 0 -226 -120 -226 -266c0 -155 73 -259 224 -259c102 0 163 53 164 54l-30 54c-30 -25 -77 -46 -127 -46c-109 0 -151 80 -155 179h297c10 30 17 69 17 107c0 97 -49 177 -164 177zM269 453c74 0 101 -57 101 -117c0 -19 -2 -38 -7 -56h-239
c3 79 43 173 145 173zM160 585l-31 24c41 60 75 106 97 134c13 17 25 27 45 27c19 0 32 -7 47 -26c24 -31 57 -74 96 -135l-31 -25l-112 102z" />
    <glyph glyph-name="edieresis.alt" horiz-adv-x="471" 
d="M274 511c-149 0 -226 -120 -226 -266c0 -155 73 -259 224 -259c102 0 163 53 164 54l-30 54c-30 -25 -77 -46 -127 -46c-109 0 -151 80 -155 179h297c10 30 17 69 17 107c0 97 -49 177 -164 177zM269 453c74 0 101 -57 101 -117c0 -19 -2 -38 -7 -56h-239
c3 79 43 173 145 173zM306 652c0 30 21 52 52 52c29 0 51 -22 51 -52c0 -31 -23 -52 -52 -52c-31 0 -51 21 -51 52zM126 652c0 30 21 52 52 52c29 0 51 -22 51 -52c0 -31 -23 -52 -52 -52c-30 0 -51 21 -51 52z" />
    <glyph glyph-name="yacute.alt" horiz-adv-x="452" 
d="M364 497h80l-177 -504c-48 -138 -78 -216 -191 -216c-47 0 -96 16 -123 33l23 60c26 -14 60 -29 95 -29c40 0 63 11 94 90l28 72l-176 494h83l131 -394h3zM175 590l110 181c27 -7 62 -18 62 -45c0 -12 -9 -27 -22 -42c-24 -27 -67 -69 -119 -119z" />
    <glyph glyph-name="ydieresis.alt" horiz-adv-x="452" 
d="M364 497h80l-177 -504c-48 -138 -78 -216 -191 -216c-47 0 -96 16 -123 33l23 60c26 -14 60 -29 95 -29c40 0 63 11 94 90l28 72l-176 494h83l131 -394h3zM266 652c0 30 21 52 52 52c29 0 51 -22 51 -52c0 -31 -23 -52 -52 -52c-31 0 -51 21 -51 52zM86 652
c0 30 21 52 52 52c29 0 51 -22 51 -52c0 -31 -23 -52 -52 -52c-30 0 -51 21 -51 52z" />
    <glyph glyph-name="amacron.alt" horiz-adv-x="501" 
d="M87 417l-18 60c32 13 113 34 178 34c113 0 160 -47 160 -172v-258c0 -27 11 -35 28 -35c14 0 26 6 47 17l15 -50c-26 -17 -58 -24 -84 -24c-39 0 -66 21 -70 63c-37 -37 -92 -66 -156 -66c-87 0 -143 52 -143 150c0 116 73 161 189 161c34 0 65 -3 98 -8v53
c0 84 -36 108 -96 108c-46 0 -110 -16 -148 -33zM331 109v122c-20 6 -65 11 -89 11c-67 0 -120 -16 -120 -97c0 -70 29 -98 85 -98c48 0 97 30 124 62zM107 619v65h260v-65h-260z" />
    <glyph glyph-name="abreve.alt" horiz-adv-x="501" 
d="M87 417l-18 60c32 13 113 34 178 34c113 0 160 -47 160 -172v-258c0 -27 11 -35 28 -35c14 0 26 6 47 17l15 -50c-26 -17 -58 -24 -84 -24c-39 0 -66 21 -70 63c-37 -37 -92 -66 -156 -66c-87 0 -143 52 -143 150c0 116 73 161 189 161c34 0 65 -3 98 -8v53
c0 84 -36 108 -96 108c-46 0 -110 -16 -148 -33zM331 109v122c-20 6 -65 11 -89 11c-67 0 -120 -16 -120 -97c0 -70 29 -98 85 -98c48 0 97 30 124 62zM333 729l58 -11c-24 -88 -77 -134 -154 -134c-89 0 -133 60 -149 134l60 11c19 -65 50 -87 92 -87c37 0 71 17 93 87z
" />
    <glyph glyph-name="aogonek.alt" horiz-adv-x="501" 
d="M87 417l-18 60c32 13 113 34 178 34c113 0 160 -47 160 -172v-258c0 -27 11 -35 28 -35c14 0 26 6 47 17l15 -50c-56 -31 -95 -94 -95 -142c0 -31 11 -47 42 -47c20 0 36 5 51 11l15 -49c-19 -11 -51 -22 -85 -22c-73 0 -92 45 -92 88c0 55 32 105 64 139
c-31 5 -51 25 -54 61c-37 -37 -92 -66 -156 -66c-87 0 -143 52 -143 150c0 116 73 161 189 161c34 0 65 -3 98 -8v53c0 84 -36 108 -96 108c-46 0 -110 -16 -148 -33zM331 109v122c-20 6 -65 11 -89 11c-67 0 -120 -16 -120 -97c0 -70 29 -98 85 -98c48 0 97 30 124 62z" />
    <glyph glyph-name="emacron.alt" horiz-adv-x="471" 
d="M274 511c-149 0 -226 -120 -226 -266c0 -155 73 -259 224 -259c102 0 163 53 164 54l-30 54c-30 -25 -77 -46 -127 -46c-109 0 -151 80 -155 179h297c10 30 17 69 17 107c0 97 -49 177 -164 177zM269 453c74 0 101 -57 101 -117c0 -19 -2 -38 -7 -56h-239
c3 79 43 173 145 173zM137 619v65h260v-65h-260z" />
    <glyph glyph-name="ebreve.alt" horiz-adv-x="471" 
d="M274 511c-149 0 -226 -120 -226 -266c0 -155 73 -259 224 -259c102 0 163 53 164 54l-30 54c-30 -25 -77 -46 -127 -46c-109 0 -151 80 -155 179h297c10 30 17 69 17 107c0 97 -49 177 -164 177zM269 453c74 0 101 -57 101 -117c0 -19 -2 -38 -7 -56h-239
c3 79 43 173 145 173zM367 729l58 -11c-24 -88 -77 -134 -154 -134c-89 0 -133 60 -149 134l60 11c19 -65 50 -87 92 -87c37 0 71 17 93 87z" />
    <glyph glyph-name="edotaccent.alt" horiz-adv-x="471" 
d="M274 511c-149 0 -226 -120 -226 -266c0 -155 73 -259 224 -259c102 0 163 53 164 54l-30 54c-30 -25 -77 -46 -127 -46c-109 0 -151 80 -155 179h297c10 30 17 69 17 107c0 97 -49 177 -164 177zM269 453c74 0 101 -57 101 -117c0 -19 -2 -38 -7 -56h-239
c3 79 43 173 145 173zM220 639c0 29 22 52 52 52c29 0 52 -23 52 -52c0 -31 -23 -53 -53 -53s-51 22 -51 53z" />
    <glyph glyph-name="eogonek.alt" horiz-adv-x="471" 
d="M274 511c115 0 164 -80 164 -177c0 -38 -7 -77 -17 -107h-297c4 -99 46 -179 155 -179c50 0 97 21 127 46l30 -54c-1 -1 -31 -20 -76 -47c-46 -28 -72 -82 -72 -122c0 -31 11 -47 42 -47c20 0 36 5 51 11l15 -49c-19 -11 -51 -22 -85 -22c-73 0 -92 45 -92 88
c0 52 30 101 60 134h-7c-151 0 -224 104 -224 259c0 146 77 266 226 266zM269 453c-102 0 -142 -94 -145 -173h239c5 18 7 37 7 56c0 60 -27 117 -101 117z" />
    <glyph glyph-name="ecaron.alt" horiz-adv-x="471" 
d="M274 511c-149 0 -226 -120 -226 -266c0 -155 73 -259 224 -259c102 0 163 53 164 54l-30 54c-30 -25 -77 -46 -127 -46c-109 0 -151 80 -155 179h297c10 30 17 69 17 107c0 97 -49 177 -164 177zM269 453c74 0 101 -57 101 -117c0 -19 -2 -38 -7 -56h-239
c3 79 43 173 145 173zM376 769l31 -23c-41 -61 -75 -107 -97 -135c-14 -17 -26 -27 -46 -27c-19 0 -31 8 -46 26c-24 31 -57 75 -97 135l31 25l112 -102z" />
    <glyph glyph-name="gcircumflex.alt" horiz-adv-x="470" 
d="M401 332c0 -123 -98 -182 -222 -162l-23 -68l108 -17c113 -18 212 -31 212 -142c0 -89 -74 -166 -234 -166c-154 0 -204 53 -204 127c0 67 51 114 90 140c-32 8 -46 18 -46 37c0 10 4 21 10 34l32 74c-44 24 -73 74 -73 145c0 111 77 177 176 177c50 0 85 -14 109 -30
l129 20v-71l-92 -1l-1 -2c24 -32 29 -68 29 -95zM272 23l-77 10c-39 -25 -86 -69 -86 -118c0 -41 20 -81 143 -81c87 0 143 42 143 105c0 39 -20 70 -123 84zM227 219c58 0 100 44 100 112c0 77 -37 126 -101 126c-59 0 -99 -49 -99 -118c0 -66 26 -120 100 -120zM123 585
l-31 24c41 60 75 106 97 134c13 17 25 27 45 27c19 0 32 -7 47 -26c24 -31 57 -74 96 -135l-31 -25l-112 102z" />
    <glyph glyph-name="gbreve.alt" horiz-adv-x="470" 
d="M401 332c0 -123 -98 -182 -222 -162l-23 -68l108 -17c113 -18 212 -31 212 -142c0 -89 -74 -166 -234 -166c-154 0 -204 53 -204 127c0 67 51 114 90 140c-32 8 -46 18 -46 37c0 10 4 21 10 34l32 74c-44 24 -73 74 -73 145c0 111 77 177 176 177c50 0 85 -14 109 -30
l129 20v-71l-92 -1l-1 -2c24 -32 29 -68 29 -95zM272 23l-77 10c-39 -25 -86 -69 -86 -118c0 -41 20 -81 143 -81c87 0 143 42 143 105c0 39 -20 70 -123 84zM227 219c58 0 100 44 100 112c0 77 -37 126 -101 126c-59 0 -99 -49 -99 -118c0 -66 26 -120 100 -120zM327 729
l58 -11c-24 -88 -77 -134 -154 -134c-89 0 -133 60 -149 134l60 11c19 -65 50 -87 92 -87c37 0 71 17 93 87z" />
    <glyph glyph-name="gdotaccent.alt" horiz-adv-x="470" 
d="M401 332c0 -123 -98 -182 -222 -162l-23 -68l108 -17c113 -18 212 -31 212 -142c0 -89 -74 -166 -234 -166c-154 0 -204 53 -204 127c0 67 51 114 90 140c-32 8 -46 18 -46 37c0 10 4 21 10 34l32 74c-44 24 -73 74 -73 145c0 111 77 177 176 177c50 0 85 -14 109 -30
l129 20v-71l-92 -1l-1 -2c24 -32 29 -68 29 -95zM272 23l-77 10c-39 -25 -86 -69 -86 -118c0 -41 20 -81 143 -81c87 0 143 42 143 105c0 39 -20 70 -123 84zM227 219c58 0 100 44 100 112c0 77 -37 126 -101 126c-59 0 -99 -49 -99 -118c0 -66 26 -120 100 -120zM179 639
c0 29 22 52 52 52c29 0 52 -23 52 -52c0 -31 -23 -53 -53 -53s-51 22 -51 53z" />
    <glyph glyph-name="gcommaaccent.alt" horiz-adv-x="470" 
d="M401 332c0 -123 -98 -182 -222 -162l-23 -68l108 -17c113 -18 212 -31 212 -142c0 -89 -74 -166 -234 -166c-154 0 -204 53 -204 127c0 67 51 114 90 140c-32 8 -46 18 -46 37c0 10 4 21 10 34l32 74c-44 24 -73 74 -73 145c0 111 77 177 176 177c50 0 85 -14 109 -30
l129 20v-71l-92 -1l-1 -2c24 -32 29 -68 29 -95zM272 23l-77 10c-39 -25 -86 -69 -86 -118c0 -41 20 -81 143 -81c87 0 143 42 143 105c0 39 -20 70 -123 84zM227 219c58 0 100 44 100 112c0 77 -37 126 -101 126c-59 0 -99 -49 -99 -118c0 -66 26 -120 100 -120zM311 769
l-57 -188c-34 3 -72 7 -72 38c0 12 7 28 13 40c17 33 41 68 79 127z" />
    <glyph glyph-name="kcommaaccent.alt" horiz-adv-x="479" 
d="M150 695v-567l226 369h83l-136 -221l135 -276h-81l-106 215l-135 -215h-62v695h76zM217 -70l-58 -187l37 -18c38 59 61 96 78 129c6 11 13 28 14 40c0 32 -41 35 -71 36z" />
    <glyph glyph-name="wcircumflex.alt" horiz-adv-x="704" 
d="M604 497h83l-136 -497h-93l-106 401v0l-108 -401h-91l-136 497h84l105 -413h1l108 413h76l109 -414h1zM237 585l-31 24c41 60 75 106 97 134c13 17 25 27 45 27c19 0 32 -7 47 -26c24 -31 57 -74 96 -135l-31 -25l-112 102z" />
    <glyph glyph-name="wgrave.alt" horiz-adv-x="704" 
d="M604 497h83l-136 -497h-93l-106 401v0l-108 -401h-91l-136 497h84l105 -413h1l108 413h76l109 -414h1zM313 771l109 -181l-31 -25c-53 48 -96 91 -120 118c-13 15 -22 29 -22 41c0 27 36 40 64 47z" />
    <glyph glyph-name="wacute.alt" horiz-adv-x="704" 
d="M604 497h83l-136 -497h-93l-106 401v0l-108 -401h-91l-136 497h84l105 -413h1l108 413h76l109 -414h1zM265 590l110 181c27 -7 62 -18 62 -45c0 -12 -9 -27 -22 -42c-24 -27 -67 -69 -119 -119z" />
    <glyph glyph-name="wdieresis.alt" horiz-adv-x="704" 
d="M604 497h83l-136 -497h-93l-106 401v0l-108 -401h-91l-136 497h84l105 -413h1l108 413h76l109 -414h1zM386 652c0 30 21 52 52 52c29 0 51 -22 51 -52c0 -31 -23 -52 -52 -52c-31 0 -51 21 -51 52zM206 652c0 30 21 52 52 52c29 0 51 -22 51 -52c0 -31 -23 -52 -52 -52
c-30 0 -51 21 -51 52z" />
    <glyph glyph-name="ygrave.alt" horiz-adv-x="452" 
d="M364 497h80l-177 -504c-48 -138 -78 -216 -191 -216c-47 0 -96 16 -123 33l23 60c26 -14 60 -29 95 -29c40 0 63 11 94 90l28 72l-176 494h83l131 -394h3zM173 771l109 -181l-31 -25c-53 48 -96 91 -120 118c-13 15 -22 29 -22 41c0 27 36 40 64 47z" />
    <glyph glyph-name="ycircumflex.alt" horiz-adv-x="452" 
d="M364 497h80l-177 -504c-48 -138 -78 -216 -191 -216c-47 0 -96 16 -123 33l23 60c26 -14 60 -29 95 -29c40 0 63 11 94 90l28 72l-176 494h83l131 -394h3zM121 585l-31 24c41 60 75 106 97 134c13 17 25 27 45 27c19 0 32 -7 47 -26c24 -31 57 -74 96 -135l-31 -25
l-112 102z" />
    <glyph glyph-name="zacute.alt" horiz-adv-x="422" 
d="M410 0h-384v52l280 383h-259v62h355v-47l-284 -388h292v-62zM175 590l110 181c27 -7 62 -18 62 -45c0 -12 -9 -27 -22 -42c-24 -27 -67 -69 -119 -119z" />
    <glyph glyph-name="zdotaccent.alt" horiz-adv-x="422" 
d="M410 0h-384v52l280 383h-259v62h355v-47l-284 -388h292v-62zM172 639c0 29 22 52 52 52c29 0 52 -23 52 -52c0 -31 -23 -53 -53 -53s-51 22 -51 53z" />
    <glyph glyph-name="zcaron.alt" horiz-adv-x="422" 
d="M410 0h-384v52l280 383h-259v62h355v-47l-284 -388h292v-62zM335 769l31 -23c-41 -61 -75 -107 -97 -135c-14 -17 -26 -27 -46 -27c-19 0 -31 8 -46 26c-24 31 -57 75 -97 135l31 25l112 -102z" />
    </font>
</defs>
</svg>
