<?xml version="1.0" standalone="no"?>
<!DOCTYPE svg PUBLIC "-//W3C//DTD SVG 1.1//EN" "http://www.w3.org/Graphics/SVG/1.1/DTD/svg11.dtd" >
<svg xmlns="http://www.w3.org/2000/svg">
<metadata></metadata>
<defs>
<font id="bree_serifregular" horiz-adv-x="1095" >
<font-face units-per-em="2048" ascent="1638" descent="-410" />
<missing-glyph horiz-adv-x="409" />
<glyph horiz-adv-x="0" />
<glyph horiz-adv-x="0" />
<glyph horiz-adv-x="682" />
<glyph unicode="&#xd;" horiz-adv-x="681" />
<glyph unicode=" "  horiz-adv-x="409" />
<glyph unicode="&#x09;" horiz-adv-x="409" />
<glyph unicode="&#xa0;" horiz-adv-x="409" />
<glyph unicode="!" horiz-adv-x="567" d="M143 100.5q0 57.5 39 97.5t101.5 40t101.5 -38t39 -95.5t-38 -98.5t-102.5 -41t-102.5 39t-38 96.5zM172 1083v244q0 96 114.5 96t114.5 -100v-240l-41 -714h-145z" />
<glyph unicode="&#x22;" horiz-adv-x="714" d="M115 1362h190l-20 -471h-150zM408 1362h190l-18 -471h-152z" />
<glyph unicode="#" horiz-adv-x="1093" d="M37 322v135h219l29 319h-209v135h219l31 328h149l-31 -328h226l30 328h150l-31 -328h207v-135h-217l-29 -319h207v-135h-219l-27 -322h-149l26 322h-225l-26 -322h-150l27 322h-207zM406 457h225l28 319h-225z" />
<glyph unicode="$" d="M113 969q0 152 97 251t261 121v189h154v-184q172 -10 317 -78v-289l-201 -12v110q0 29 -8 42.5t-42 23.5t-66 12v-360h2q156 -47 250 -119q119 -86 118.5 -256t-101.5 -270.5t-269 -124.5v-211h-154v204q-197 6 -352 78v305l203 15v-119q0 -29 8 -42t43 -25.5t98 -12.5 v383q-160 45 -231.5 100.5t-99 119t-27.5 149.5zM365 1001.5q0 -104.5 106 -153.5v295q-106 -37 -106 -141.5zM625 231q116 37 116 170q0 102 -116 150v-320z" />
<glyph unicode="%" horiz-adv-x="1640" d="M70 968.5q0 182.5 88 280t236.5 97.5t232.5 -92.5t84 -276.5t-85 -281.5t-240 -97.5t-235.5 94t-80.5 276.5zM248 971.5q0 -232.5 139 -232.5q143 0 143 232.5t-139 232.5q-143 0 -143 -232.5zM438 55l598 1282l166 -69l-602 -1286zM934 342q0 182 88 279.5t236.5 97.5 t232.5 -92t84 -276.5t-85 -282t-239.5 -97.5t-235.5 94.5t-81 276.5zM1112 345.5q0 -232.5 139 -232.5q143 0 143.5 232.5t-139.5 232.5q-143 0 -143 -232.5z" />
<glyph unicode="&#x26;" horiz-adv-x="1462" d="M102 387q0 270 250 426q-63 104 -63 225q0 156 104.5 252t294 96t369.5 -83v-310l-209 -14v125q0 57 -43 72q-55 16 -109 16q-166 0 -166 -158q1 -208 443 -583q39 98 39 188q0 29 -37 33l-66 4v160h432v-166l-112 -4q0 -197 -86 -361q92 -78 258 -196l-135 -179 q-123 82 -258 193q-152 -152 -410 -152t-377 121t-119 295zM340 403q0 -104 64.5 -168.5t205 -64.5t226.5 96q-246 209 -371 377q-125 -88 -125 -240z" />
<glyph unicode="'" horiz-adv-x="419" d="M115 1362h190l-20 -471h-150z" />
<glyph unicode="(" horiz-adv-x="677" d="M141.5 559.5q-0.5 460.5 270.5 933.5l194 -90q-223 -440 -223 -831.5t221 -839.5l-192 -92q-270 459 -270.5 919.5z" />
<glyph unicode=")" horiz-adv-x="677" d="M72 -266q223 440 223 831t-221 840l192 92q270 -459 270.5 -919.5t-270.5 -933.5z" />
<glyph unicode="*" horiz-adv-x="925" d="M92 1186l14 90q10 66 58 82q14 4 29 4l65 -25l158 -110l-66 291l86 22q23 6 49.5 6t50 -24.5t23.5 -52t-4 -44.5l-37 -202l240 151l51 -74q23 -37 22 -61q0 -82 -90 -88l-190 -16l221 -164l-51 -74q-37 -49 -78 -49q-53 0 -86 61l-98 183l-140 -252l-81 39 q-61 29 -61.5 80t48.5 81l142 101z" />
<glyph unicode="+" d="M127 545v200h315v330h209v-330h316v-200h-316v-328h-209v328h-315z" />
<glyph unicode="," horiz-adv-x="493" d="M74 -279l63 416q14 102 101 103q43 0 66.5 -13.5t38.5 -21.5t21.5 -12.5t25 -15.5t24.5 -15l-211 -479z" />
<glyph unicode="-" horiz-adv-x="659" d="M61 496v188h537v-188h-537z" />
<glyph unicode="." horiz-adv-x="462" d="M82 113.5q0 64.5 40 106.5t108.5 42t109.5 -40t41 -104.5t-39 -106.5t-110.5 -42t-110.5 40t-39 104.5z" />
<glyph unicode="/" horiz-adv-x="876" d="M16 -147l627 1693l213 -76l-631 -1695z" />
<glyph unicode="0" d="M72 657.5q0 348.5 129 518.5t356 170q465 0 465 -674q0 -358 -121 -525t-358.5 -167t-354 164.5t-116.5 513zM319 652.5q0 -265.5 58.5 -371t169 -105.5t171 108.5t60.5 378t-58 376t-171 106.5t-171.5 -113.5t-58.5 -379z" />
<glyph unicode="1" horiz-adv-x="929" d="M90 1087l373 232h201v-1135l213 -10v-174h-713v168l196 12q31 2 45.5 16.5t14.5 51.5v805l-240 -123z" />
<glyph unicode="2" horiz-adv-x="1050" d="M121 0v158l407 514q63 82 84 109.5t40.5 77.5t19.5 121t-48.5 116t-123 45t-112.5 -12.5t-45 -28t-7 -47.5v-146l-209 15v327q193 96 395.5 96.5t305 -99t102.5 -271.5t-174 -383l-330 -389h512v-203h-817z" />
<glyph unicode="3" horiz-adv-x="1069" d="M82 76l72 194q162 -90 321 -90q223 0 223 199q0 102 -67.5 150.5t-229.5 48.5h-77l18 186h211q123 78 123 219q0 158 -178 158q-66 0 -110 -14.5t-51 -30t-7 -47.5v-148l-209 14v328q205 102 405.5 102.5t300 -91t99.5 -236.5q0 -106 -51.5 -193.5t-135.5 -140.5 q207 -66 207 -291q0 -188 -116.5 -304t-346.5 -116q-113 0 -224.5 31t-176.5 72z" />
<glyph unicode="4" horiz-adv-x="1097" d="M82 371v170l385 809l195 -97l-330 -690h293v111l86 272h143v-383h182v-194h-184v-185l170 -10v-174h-602v168l127 10q59 4 59 58v135h-524z" />
<glyph unicode="5" horiz-adv-x="1038" d="M59 80l82 188q160 -88 308 -88q209 0 208 201q0 250 -489 250l88 688h408q47 0 47 57v88l194 -14v-326h-469l-41 -313q229 -16 373.5 -119.5t144.5 -306.5q0 -166 -110.5 -287t-343.5 -121q-115 0 -224.5 31t-175.5 72z" />
<glyph unicode="6" horiz-adv-x="1093" d="M111 565q0 731 698 809l47 -184q-438 -55 -489 -434q129 84 287.5 84t252.5 -106.5t94 -302t-115.5 -325t-337.5 -129.5t-329.5 160t-107.5 428zM352 545q0 -162 47 -270.5t164 -108.5q88 0 143.5 70.5t55.5 195.5q0 233 -182 234q-53 0 -122 -25t-106 -55v-41z" />
<glyph unicode="7" horiz-adv-x="972" d="M47 985v334h885v-170l-469 -1149h-256l481 1116h-387q-45 0 -45 -63v-82z" />
<glyph unicode="8" d="M96 326q0 227 250 372q-207 127 -207 306q0 147 115 244.5t307.5 97.5t289.5 -89.5t97 -218.5q0 -164 -194 -327q250 -145 250 -357q0 -162 -117 -269.5t-349.5 -107.5t-337 104t-104.5 245zM336 347q0 -79 52 -131t148.5 -52t150.5 49t54 133t-57 140.5t-170 113.5 q-86 -57 -132 -115.5t-46 -137.5zM377 1018q0 -123 194 -221q61 41 105.5 103.5t44.5 128t-48 104t-123 38.5t-124 -44t-49 -109z" />
<glyph unicode="9" d="M102 890.5q0 194.5 117 325t340 130.5t327.5 -160t104.5 -428q1 -720 -706 -783l-49 191q236 27 358.5 125t144.5 270q-119 -78 -284.5 -78t-259 106.5t-93.5 301zM342 899q0 -117 47 -177t118 -60t139.5 23.5t105.5 51.5v37q0 381 -207 381q-92 0 -147.5 -69.5 t-55.5 -186.5z" />
<glyph unicode=":" horiz-adv-x="462" d="M82 113.5q0 64.5 40 106.5t108.5 42t109.5 -40t41 -104.5t-39 -106.5t-110.5 -42t-110.5 40t-39 104.5zM82 867.5q0 64.5 40 106.5t108.5 42t109.5 -40t41 -104.5t-39 -106.5t-110.5 -42t-110.5 40t-39 104.5z" />
<glyph unicode=";" horiz-adv-x="493" d="M74 -279l63 416q14 102 101 103q43 0 66.5 -13.5t38.5 -21.5t21.5 -12.5t25 -15.5t24.5 -15l-211 -479zM139 867.5q0 64.5 40 106.5t108.5 42t109.5 -40t41 -104.5t-39 -106.5t-110.5 -42t-110.5 40t-39 104.5z" />
<glyph unicode="&#x3c;" d="M139 573v160l750 367l82 -182l-559 -259l563 -270l-86 -184z" />
<glyph unicode="=" d="M133 332v198h830v-198h-830zM133 725v197h830v-197h-830z" />
<glyph unicode="&#x3e;" d="M139 389l563 270l-559 259l82 182l750 -367v-160l-750 -368z" />
<glyph unicode="?" horiz-adv-x="886" d="M82 1049v280q197 94 376 94t267 -84t88 -218t-54 -210.5t-140.5 -139t-109 -91.5t-24.5 -86l-10 -225h-196l-11 215v30q0 90 33 150q37 66 162 156q68 49 78 66.5t20 33.5q14 31 14 82q0 129 -141 129q-47 0 -88 -11.5t-48 -27.5t-7 -49v-109zM238 100.5 q0 57.5 38.5 97.5t101 40t101.5 -38t39 -95.5t-38 -98.5t-102.5 -41t-102 39t-37.5 96.5z" />
<glyph unicode="@" horiz-adv-x="1951" d="M137 434q0 422 252 657.5t647 235.5q350 0 563 -193.5t213 -545.5q0 -287 -139 -436.5t-370 -151.5h-117l-17 111l-6 2q-80 -119 -241 -119q-334 0 -334 418q0 238 115.5 368.5t328.5 130.5q147 0 307 -59v-600l9 -109q286 19 286 439q0 268 -153.5 426.5t-473 158.5 t-500.5 -202.5t-181 -515t162.5 -501t455.5 -188.5q182 0 324 64l51 -150q-162 -70 -374 -69.5t-369.5 69t-251.5 187.5q-186 231 -187 573zM788 418q0 -272 181 -273q168 0 168 197v397q-49 23 -117 23q-231 -2 -232 -344z" />
<glyph unicode="A" horiz-adv-x="1355" d="M10 0v166l68 6q43 4 61 57l330 955l-129 12v166h469l418 -1182h2l117 -6v-174h-529v166l78 6q35 4 47 16.5t2 44.5l-43 127h-479l-62 -180l123 -6v-174h-473zM471 549h381l-184 584h-6z" />
<glyph unicode="B" horiz-adv-x="1232" d="M70 0v166l67 6q59 6 60 57v953l-117 6v174h577q442 0 443 -342q0 -188 -189 -287q121 -31 189.5 -112.5t68.5 -212.5q0 -199 -134 -303.5t-390 -104.5h-575zM446 193h193q266 0 266 217q0 102 -66.5 156.5t-189.5 54.5h-203v-428zM446 803h152q127 0 187.5 52t60.5 146.5 t-60.5 133.5t-173.5 39h-166v-371z" />
<glyph unicode="C" horiz-adv-x="1232" d="M82 674q0 193 55.5 336t149.5 223q183 153 435 153h3q205 0 385 -83v-349l-209 -14v160q0 31 -8 45q-23 39 -168 39q-190 0 -288.5 -129t-98.5 -373q0 -506 379 -506h54t91 13.5t51.5 27.5t8.5 45v164l208 -14v-355q-160 -84 -405 -84q-313 0 -478 176.5t-165 524.5z" />
<glyph unicode="D" horiz-adv-x="1361" d="M70 0v166l67 6q59 6 60 57v953l-117 6v174h561q301 0 470 -160t169 -473q0 -195 -51 -339t-139 -226q-176 -164 -439 -164h-581zM446 197h209q176 0 274.5 127t98.5 368q0 471 -399 471h-183v-966z" />
<glyph unicode="E" horiz-adv-x="1124" d="M70 0v166l67 6q59 6 60 57v953l-117 6v174h938v-340l-209 -14v82q0 35 -10.5 49t-48.5 14h-304v-350h474v-209h-474v-383h330q37 0 47.5 15.5t10.5 49.5v103l208 -14v-365h-972z" />
<glyph unicode="F" horiz-adv-x="1112" d="M70 0v166l67 6q59 6 60 57v953l-117 6v174h989v-340l-209 -14v82q0 35 -10 49t-49 14h-355v-362h504v-209h-504v-402l183 -6v-174h-559z" />
<glyph unicode="G" horiz-adv-x="1312" d="M82 678q0 154 40 276.5t104.5 202.5t150.5 133q164 96 371.5 96t388.5 -83v-349l-209 -14v160q0 31 -8 45q-23 39 -187 39q-395 0 -395 -490q0 -516 356 -516q141 0 217 49v305h-2l-157 7v174h510v-164l-48 -4q-33 -4 -46 -17.5t-13 -50.5v-371q-190 -131 -473 -131 t-441.5 177.5t-158.5 525.5z" />
<glyph unicode="H" horiz-adv-x="1458" d="M66 0v166l67 6q59 6 60 57v953l-117 6v174h495v-166l-67 -6q-33 -4 -47.5 -17.5t-14.5 -50.5v-317h580v377l-117 6v174h496v-166l-68 -6q-59 -6 -59 -66v-944l117 -6v-174h-496v166l68 6q31 4 45 17.5t14 50.5v354h-580v-414l119 -6v-174h-495z" />
<glyph unicode="I" horiz-adv-x="628" d="M66 0v166l67 6q31 4 45.5 17.5t14.5 50.5v942l-117 6v174h495v-166l-67 -6q-59 -6 -60 -66v-944l117 -6v-174h-495z" />
<glyph unicode="J" horiz-adv-x="970" d="M57 59v359l209 14v-162q0 -31 8.5 -45t43 -27.5t107.5 -13.5t105.5 44t32.5 143v809l-160 8v174h537v-166l-68 -6q-59 -6 -59 -64v-637q0 -145 -8 -215q-35 -301 -404 -301q-193 0 -344 86z" />
<glyph unicode="K" horiz-adv-x="1273" d="M66 0v166l67 6q31 4 45.5 17.5t14.5 50.5v942l-117 6v174h491v-166l-67 -6q-59 -6 -60 -66v-450l418 508l-115 6v174h480v-166l-68 -6q-39 -4 -82 -57l-291 -357l363 -596l108 -6v-174h-524v166l64 6q41 4 41 33q0 12 -11 33l-202 350l-181 -217v-191l117 -6v-174h-491z " />
<glyph unicode="L" horiz-adv-x="1099" d="M66 0v166l67 6q59 6 60 57v953l-117 6v174h493v-166l-67 -6q-59 -6 -60 -66v-913h340q29 0 38 15.5t9 49.5v144l209 -14v-406h-972z" />
<glyph unicode="M" horiz-adv-x="1708" d="M41 0v166l74 6q47 4 51 55l55 953l-125 8v174h412l348 -926h4l350 926h406v-166l-68 -6q-61 -6 -59 -72l51 -938l127 -6v-174h-493v166l73 6q55 4 53 53l-38 723h-5l-315 -817h-194l-312 809h-4l-41 -760l133 -6v-174h-483z" />
<glyph unicode="N" horiz-adv-x="1443" d="M66 0v166l73 6q53 4 54 57v953l-117 6v174h368l580 -940h4v760l-135 6v174h500v-166l-74 -6q-49 -4 -49 -64v-1126h-240l-592 954h-4v-774l133 -6v-174h-501z" />
<glyph unicode="O" horiz-adv-x="1359" d="M82 678q0 188 55.5 330.5t145.5 220.5q181 158 423 158h2q242 0 406 -172.5t164 -525.5t-163 -534.5t-440.5 -181.5t-435 180.5t-157.5 524.5zM338 688q0 -508 352 -508q188 0 264 156q70 137 70 336q0 178 -61 327q-35 82 -106 129.5t-183.5 47.5t-193.5 -74 t-111.5 -178.5t-30.5 -235.5z" />
<glyph unicode="P" horiz-adv-x="1208" d="M66 0v166l67 6q59 6 60 57v953l-117 6v174h586q229 0 357 -107.5t128 -322.5t-145.5 -335t-385.5 -120h-174v-297l197 -6v-174h-573zM442 676h148q299 0 299 244q0 147 -77 195t-245 48h-125v-487z" />
<glyph unicode="Q" horiz-adv-x="1359" d="M80 678q0 188 55 330.5t148 220.5q179 158 421 158l2 -1q242 0 406 -171.5t164 -536.5q0 -264 -111.5 -434t-322.5 -226v-6q158 -8 301 -94q102 -63 239 -63q31 0 64 4l-25 -197q-29 -2 -55 -2l-203 35q-129 45 -252 102q-139 66 -258 66q-57 0 -114 -13l28 148 q-487 63 -487 680zM336 688q0 -508 352 -508q188 0 266 156q68 137 68 336q0 178 -64 327q-33 82 -103.5 129.5t-183 47.5t-193.5 -74t-111.5 -178.5t-30.5 -235.5z" />
<glyph unicode="R" horiz-adv-x="1282" d="M66 0v166l67 6q59 6 60 57v953l-117 6v174h559q238 0 364.5 -88t126.5 -289q0 -139 -72.5 -229t-172.5 -131q74 -27 116 -125l148 -322l117 -4v-174h-506v166l59 6q47 6 47 37q0 12 -8 29l-96 204q-23 51 -50.5 73t-78.5 22h-187v-357l133 -6v-174h-509zM442 731h179 q251 0 251 223q0 131 -66 170t-214 39h-150v-432z" />
<glyph unicode="S" horiz-adv-x="1069" d="M88 984q0 187 130 294.5t340 107.5t390 -83v-308l-209 -14v119q0 31 -8 45q-23 39 -144.5 39t-180 -43t-58.5 -133q0 -66 49 -115q33 -33 97.5 -54.5t137.5 -44t129 -49t118 -73.5q125 -92 125 -284.5t-138.5 -303.5t-365 -111t-406.5 84v324l209 14v-125q0 -31 8 -45 t50.5 -27.5t132.5 -13.5q245 0 245 195q0 104 -108 153q-57 29 -148.5 53.5t-152 50.5t-121.5 71q-121 90 -121 277z" />
<glyph unicode="T" horiz-adv-x="1132" d="M31 1014v348h1071v-348l-209 -15v97q0 35 -10.5 49t-48.5 14h-140v-979l162 -6v-174h-577v166l108 6q59 6 59 57v930h-159q-47 0 -47 -63v-97z" />
<glyph unicode="U" horiz-adv-x="1349" d="M45 1188v174h496v-166l-68 -6q-33 -4 -47 -17.5t-14 -50.5v-680q0 -143 68.5 -201.5t196.5 -58.5t198.5 63.5t70.5 186.5v750l-119 6v174h486v-166l-68 -6q-59 -6 -59 -62v-731q0 -199 -139.5 -311.5t-385 -112.5t-371.5 110t-126 347v752z" />
<glyph unicode="V" horiz-adv-x="1339" d="M10 1188v174h529v-166l-68 -6q-63 -4 -63 -49q0 -11 4 -23l274 -825h10l287 887l-125 8v174h471v-166l-67 -6q-27 -2 -39.5 -15.5t-24.5 -46.5l-387 -1128h-266l-418 1182z" />
<glyph unicode="W" horiz-adv-x="1812" d="M10 1188v174h508v-166l-67 -6q-63 -6 -64 -53q0 -8 2 -19l178 -790h8l213 925h265l221 -929h4l174 856l-111 8v174h461v-166l-67 -6q-53 -4 -68 -74l-258 -1116h-281l-215 911h-6l-209 -911h-288l-283 1182z" />
<glyph unicode="X" horiz-adv-x="1271" d="M10 0v166l64 6q39 6 78 66l331 475l-311 458l-113 11v180h543v-168l-51 -6q-43 -4 -54.5 -28.5t9.5 -55.5l137 -215l199 293l-103 6v174h469v-166l-63 -6q-39 -7 -78 -66l-293 -395l359 -541l129 -8v-180h-570v168l62 6q39 4 53 27.5t-4 50.5l-185 285l-235 -357l98 -6 v-174h-471z" />
<glyph unicode="Y" horiz-adv-x="1167" d="M10 1188v174h500v-166l-61 -6q-33 -2 -42.5 -24.5t7.5 -55.5l174 -356h8l223 426l-102 8v174h440v-166l-61 -6q-39 -4 -70 -62l-321 -608v-340l159 -6v-174h-577v166l108 6q60 4 60 57v291l-349 662z" />
<glyph unicode="Z" horiz-adv-x="1091" d="M68 0v170l618 997h-340q-55 0 -55 -63v-82l-209 14v326h895v-166l-625 -1001h398q51 0 51 65v143l209 -14v-389h-942z" />
<glyph unicode="[" horiz-adv-x="665" d="M164 -340v1802h430v-166h-205v-1470h205v-166h-430z" />
<glyph unicode="\" horiz-adv-x="901" d="M31 1470l211 78l628 -1695l-211 -76z" />
<glyph unicode="]" horiz-adv-x="665" d="M72 -174h204v1470h-204v166h430v-1802h-430v166z" />
<glyph unicode="^" horiz-adv-x="1132" d="M100 618l383 762h179l380 -764l-206 -32l-267 546l-268 -546z" />
<glyph unicode="_" horiz-adv-x="1024" d="M0 -152h1024v-149h-1024v149z" />
<glyph unicode="`" horiz-adv-x="1024" d="M324 1491q0 41 59 74l96 45l238 -393l-80 -68l-262 254q-51 47 -51 88z" />
<glyph unicode="a" horiz-adv-x="1161" d="M82 471q0 279 135 434.5t406 155.5q174 0 364 -72v-762q0 -33 11.5 -45t39.5 -14l66 -4v-164h-326v119l-6 2q-102 -147 -280 -148q-209 0 -309.5 133.5t-100.5 364.5zM332 479q0 -332 213 -332q90 0 147.5 54.5t57.5 124.5v530q-57 27 -158 27q-137 0 -198.5 -110.5 t-61.5 -293.5z" />
<glyph unicode="b" horiz-adv-x="1138" d="M35 1290v170h360v-485q92 86 248 86q193 0 305.5 -130t112.5 -366q0 -592 -496 -592q-106 0 -223.5 25.5t-183.5 62.5v1176q0 47 -52 49zM395 195q78 -41 180 -41q233 0 234 378q0 346 -229 347q-74 0 -129.5 -43t-55.5 -111v-530z" />
<glyph unicode="c" horiz-adv-x="964" d="M68 518q0 270 144 406.5t325.5 136.5t336.5 -84v-266l-188 -15v99q0 55 -40 68.5t-83 13.5q-248 0 -248 -351q0 -174 65.5 -270t189.5 -96t245 88l88 -158q-145 -119 -364.5 -119t-345 138.5t-125.5 408.5z" />
<glyph unicode="d" horiz-adv-x="1163" d="M82 475q0 266 132 426t368 160q88 0 168 -25v207q0 45 -54 49l-88 6v162h381v-1245q2 -47 51 -47l72 -4v-164h-332v121l-6 2q-92 -150 -278 -150q-233 0 -328 156q-86 141 -86 346zM334 498q0 -344 221 -344q84 0 139.5 47.5t55.5 117.5v531q-74 33 -156 33 q-135 0 -197.5 -108.5t-62.5 -276.5z" />
<glyph unicode="e" horiz-adv-x="991" d="M76 491.5q0 241.5 133 405.5t373 164q154 0 243.5 -75t89.5 -210q0 -90 -38.5 -158.5t-96 -107.5t-139.5 -64q-134 -40 -301 -40h-8q6 -109 67.5 -175.5t188.5 -66.5t254 90l78 -166q-41 -37 -138.5 -76t-222.5 -39q-250 0 -366.5 138.5t-116.5 380zM324 578 q90 2 164.5 15t138 59t63.5 110q0 125 -123 125q-115 0 -176 -91t-67 -218z" />
<glyph unicode="f" horiz-adv-x="757" d="M20 858v172h177v78q0 201 92 289q86 84 252 84t295 -72l-60 -164q-98 51 -184 51t-119 -42t-33 -128v-96h303v-172h-303v-686l172 -8v-164h-542v156l67 6q31 4 45.5 17t14.5 50v629h-177z" />
<glyph unicode="g" horiz-adv-x="1114" d="M72 516q0 268 145 406.5t387 138.5q201 0 379 -76v-760q0 -174 -4 -223q-18 -227 -131 -333.5t-352.5 -106.5t-374.5 67v285l194 16v-98q0 -55 51.5 -74.5t141.5 -19.5q131 0 184 79t53 222v113q-98 -115 -272 -115q-106 0 -187 41t-126 110q-88 139 -88 328zM324 541 q0 -324 213 -324q88 0 148 54.5t60 146.5v440q-72 25 -163 25q-125 0 -191.5 -92.5t-66.5 -249.5z" />
<glyph unicode="h" horiz-adv-x="1228" d="M66 0v156l67 6q31 4 45.5 17t14.5 50v998q0 33 -11.5 45t-40.5 14l-71 4v170h364v-551q106 152 299 152q156 0 241 -89t85 -267v-535l117 -6v-164h-488v156l68 6q31 4 45 17.5t14 49.5v422q0 106 -33.5 163.5t-131 57.5t-156 -60t-58.5 -146v-496l117 -6v-164h-487z" />
<glyph unicode="i" horiz-adv-x="606" d="M68 0v156l67 6q59 6 60 65v570q0 35 -11.5 47t-40.5 12l-71 4v170h366v-860l117 -6v-164h-487zM137 1314.5q0 65.5 43 109.5t112.5 44t114 -44t44.5 -109.5t-44.5 -107.5t-114 -42t-112.5 42t-43 107.5z" />
<glyph unicode="j" horiz-adv-x="579" d="M-164 -367l74 170q80 -43 146.5 -43t96 41t29.5 140v856q0 33 -11 45t-40 14l-72 4v170h367v-1079q0 -164 -53 -266q-68 -123 -275 -123q-147 0 -262 71zM125 1314.5q0 65.5 43 109.5t112.5 44t113.5 -44t44 -109.5t-44 -107.5t-113.5 -42t-112.5 42t-43 107.5z" />
<glyph unicode="k" horiz-adv-x="1138" d="M68 0v156l67 6q31 4 45.5 17t14.5 50v998q0 33 -11.5 45t-40.5 14l-71 4v170h364v-887q113 10 197 69.5t115 156.5q6 20 6 32q0 35 -39 35l-78 4v160h424v-166l-98 -4q-27 -209 -181 -330l201 -360l125 -6v-164h-299l-234 426q-68 -18 -139 -29v-227h2l117 -6v-164h-487z " />
<glyph unicode="l" horiz-adv-x="610" d="M63 0v156l68 6q59 6 59 65v1010q0 45 -51 49l-71 4v170h366v-1290l117 -6v-164h-488z" />
<glyph unicode="m" horiz-adv-x="1773" d="M55 864v166h346v-133q115 164 314.5 164t269.5 -164q115 164 311 164q147 0 227.5 -89t80.5 -267v-535l116 -6v-164h-487v156l67 6q31 4 44.5 17.5t15.5 47.5v424q0 113 -25.5 167t-120 54t-144.5 -57t-50 -153v-492l113 -6v-164h-484v156l68 6q31 4 45 17.5t14 49.5v422 q0 113 -25.5 167t-120.5 54t-144.5 -59t-49.5 -147v-496l111 -6v-164h-484v156l68 6q31 4 45 17.5t14 49.5h3v566q0 35 -11.5 48t-40.5 15z" />
<glyph unicode="n" horiz-adv-x="1228" d="M55 866v164h346v-133q53 76 141.5 120t190.5 44q156 0 241 -89t85 -267v-535l117 -6v-164h-488v156l68 6q31 4 45 17.5t14 49.5v422q0 113 -35 167t-132 54t-154.5 -61t-57.5 -145v-496l117 -6v-164h-487v156l67 6q31 4 45.5 17.5t14.5 49.5v568q0 61 -52 63z" />
<glyph unicode="o" horiz-adv-x="1081" d="M68 516q0 152 45 263.5t120 170.5q145 111 322 111q123 0 208 -40t133 -92t82 -151.5t34 -234.5q0 -283 -137.5 -428.5t-351.5 -145.5t-334.5 138.5t-120.5 408.5zM315 545q0 -289 107 -363q47 -32 117 -32q223 0 223 360q0 182 -50 276.5t-168 94.5t-173.5 -90.5 t-55.5 -245.5z" />
<glyph unicode="p" horiz-adv-x="1163" d="M45 864v166h346v-133q33 61 119 112.5t205 51.5q370 0 370 -517q0 -279 -121 -427q-120 -148 -327 -148q-123 0 -219 60v-283l166 -8v-162h-529v156l68 6q31 4 45 17t14 50v992q0 35 -11 48t-40 13zM418 215q78 -51 189.5 -51t167.5 102t56 254q0 342 -206 342 q-86 0 -146.5 -52t-60.5 -124v-471z" />
<glyph unicode="q" horiz-adv-x="1128" d="M82 471q0 299 142.5 444.5t385.5 145.5q201 0 379 -76v-1239l119 -6v-164h-539v156l121 6q31 2 46.5 16t15.5 51v283q-98 -115 -256 -115t-251 79t-128 185.5t-35 233.5zM334 504q0 -250 100 -320q44 -31 122 -31q2 0 3 1q80 0 135.5 47t55.5 135v522q-70 25 -162 25 q-123 0 -188.5 -105.5t-65.5 -273.5z" />
<glyph unicode="r" horiz-adv-x="946" d="M57 864v166h346v-153q37 80 115 132t179.5 52t193.5 -45v-305l-191 -15v95q0 41 -20 51q-23 10 -55 10q-82 0 -134.5 -58.5t-52.5 -148.5v-475l178 -8v-162h-548v156l67 6q31 4 45.5 17t14.5 50v568q0 33 -11.5 46t-40.5 15z" />
<glyph unicode="s" horiz-adv-x="923" d="M90 37v285l184 14v-98q0 -90 172 -91h1q171 0 171 125q0 45 -29.5 74t-58 39t-68.5 20.5t-78 20.5t-82 27.5t-97 50.5q-105 68 -105 228q0 157 113 243t284 86t339 -82v-246l-185 -14v86q0 51 -47 69q-48 18 -118 18l-3 1q-68 0 -109 -32q-42 -32 -42 -78t15 -71.5 t48 -43.5q51 -27 123 -46.5t106.5 -30.5t87 -38t79.5 -57q72 -76 71 -195q0 -154 -111.5 -241t-283.5 -87q-250 0 -377 64z" />
<glyph unicode="t" horiz-adv-x="772" d="M39 858l20 150q96 8 145.5 68t90.5 171h133v-217h272l-20 -172h-252v-539q0 -90 33 -125.5t101.5 -35.5t137.5 43l62 -158q-102 -72 -260 -72q-92 0 -155.5 23.5t-94.5 52.5t-47.5 84t-18.5 87t-2 93v547h-145z" />
<glyph unicode="u" horiz-adv-x="1210" d="M55 862v168h361v-649q0 -109 30.5 -164t127 -55t154.5 59.5t58 143.5v432q0 33 -11 46t-40 15l-65 4v168h360v-803q0 -33 10.5 -44t40.5 -15l72 -6v-162h-332v133q-113 -160 -332 -160q-317 0 -317 355v473q0 55 -51 57z" />
<glyph unicode="v" horiz-adv-x="1142" d="M20 870v160h482v-164l-125 -6l211 -674h4l205 674l-107 6v164h432v-160l-63 -4q-41 -4 -55 -49l-265 -817h-313l-287 815q-10 29 -21.5 39t-37.5 12z" />
<glyph unicode="w" horiz-adv-x="1628" d="M20 872v158h469v-164l-114 -6l141 -629h4l225 758h199l213 -762h4l139 633l-104 6v164h412v-158l-68 -4q-41 -4 -55 -49l-195 -819h-295l-168 610h-6l-174 -610h-301l-207 817q-10 29 -21.5 39t-37.5 12z" />
<glyph unicode="x" horiz-adv-x="1093" d="M29 0v162l63 6q47 6 82 49l236 295l-252 348l-105 12v158h477v-162l-59 -4q-25 -2 -32 -18.5t7 -34.5l117 -156l158 205l-84 6v164h416v-160l-62 -4q-43 -2 -82 -51l-225 -285l268 -356l105 -12v-162h-488v162l64 4q27 2 31.5 17.5t-11.5 33.5l-125 164l-170 -211l97 -6 v-164h-426z" />
<glyph unicode="y" horiz-adv-x="1173" d="M55 862v168h361v-588q0 -109 30.5 -164t127 -55t154.5 59.5t58 143.5v371q0 35 -11 48t-40 13l-65 4v168h360v-991q0 -248 -119.5 -362.5t-362.5 -114.5t-378 67v285l195 16v-98q0 -55 51 -74.5t141 -19.5q264 0 264 301v156q-113 -160 -332 -160q-317 0 -317 354v412 q0 55 -51 57z" />
<glyph unicode="z" horiz-adv-x="989" d="M82 0v156l526 692h-258q-43 0 -54 -16.5t-11 -53.5v-71l-193 14v309h815v-139l-532 -707h291q59 0 59 70v86l193 -14v-326h-836z" />
<glyph unicode="{" horiz-adv-x="696" d="M88 500v151q84 10 107.5 59.5t23.5 151.5l-16 346q0 125 65.5 195t192.5 70q82 0 164 -21l-21 -152q-57 10 -82 11q-63 0 -82.5 -32t-19.5 -112l18 -333q0 -104 -30.5 -166t-104.5 -93q78 -27 106.5 -81t28.5 -166l-22 -361q0 -80 19.5 -116.5t70.5 -36.5t92 10l20 -156 q-86 -18 -161 -18q-125 0 -193.5 69.5t-68.5 190.5l22 391q0 86 -23.5 137t-105.5 62z" />
<glyph unicode="|" horiz-adv-x="561" d="M174 -180v1710h213v-1710h-213z" />
<glyph unicode="}" horiz-adv-x="696" d="M72 1452q82 20 164 21q127 0 192.5 -70t65.5 -195l-17 -346q0 -102 23.5 -151t107.5 -60v-151q-82 -10 -105.5 -61.5t-23.5 -137.5l23 -391q0 -121 -68.5 -190.5t-193.5 -69.5q-76 0 -162 18l20 156q41 -10 92.5 -10t71 36.5t19.5 116.5l-23 361q0 113 28.5 167t106.5 80 q-74 31 -104.5 92.5t-30.5 166.5l18 333q0 80 -19 112t-83 32q-25 0 -82 -11z" />
<glyph unicode="~" horiz-adv-x="1224" d="M96 578q129 217 299 217q88 0 222.5 -78t195.5 -78q92 0 166 131l149 -111q-100 -213 -299 -213q-94 0 -229 75t-184 75q-84 0 -172 -133z" />
<glyph unicode="&#xa1;" horiz-adv-x="567" d="M143 921.5q0 57.5 38 98.5t102.5 41t102.5 -39t38 -96.5t-39 -97.5t-101.5 -40t-101.5 38t-39 95.5zM166 -57l41 714h145l43 -714v-244q0 -96 -114.5 -96t-114.5 100v240z" />
<glyph unicode="&#xa2;" d="M154 628.5q0 233.5 113.5 367.5t285.5 169v238h154v-229q145 -8 284 -82v-267l-188 -14v98q0 55 -43 70q-31 8 -53 10v-704q104 6 215 88l88 -158q-129 -102 -303 -117v-221h-154v225q-186 29 -292.5 161t-106.5 365.5zM401 639q0 -256 152 -328v656q-152 -72 -152 -328z " />
<glyph unicode="&#xa3;" horiz-adv-x="1130" d="M66 -16v190q158 74 172 256l12 162h-172l20 172h164l12 176q29 406 449 406q190 0 348 -84v-287l-209 -14v96q0 31 -7 45t-42 28.5t-88 14.5q-104 0 -154.5 -52.5t-58.5 -170.5l-12 -158h358l-20 -170h-349l-6 -84q-12 -172 -178 -299l4 -8q111 41 168.5 41t168 -20.5 t194.5 -20.5t184 28l-27 -219q-98 -18 -188 -18t-241.5 25.5t-258 25.5t-243.5 -61z" />
<glyph unicode="&#xa5;" horiz-adv-x="1126" d="M10 1188v174h500v-166l-61 -6q-33 -2 -42.5 -24.5t7.5 -55.5l153 -315h8l203 385l-102 8v174h440v-166l-61 -6q-39 -4 -70 -62l-219 -366h231v-156h-313v-133h313v-156h-313v-137l160 -6v-174h-578v166l109 6q59 4 59 57v88h-313v156h313v133h-313v156h231l-246 420z" />
<glyph unicode="&#xa6;" horiz-adv-x="563" d="M174 -180v766h215v-766h-215zM174 825v705h215v-705h-215z" />
<glyph unicode="&#xa7;" horiz-adv-x="1130" d="M88 549q0 178 172 325q-27 59 -27 132t16.5 126.5t54.5 109.5t116 90t184 34q162 0 324 -84v-266l-189 -15v99q0 57 -38.5 69.5t-99 12.5t-102.5 -38t-42 -102q0 -100 135 -190q18 -12 67 -41q190 -115 266 -207t76 -215q1 -174 -167 -317q27 -70 26.5 -137.5t-17 -121 t-54 -109.5t-115.5 -90t-185 -34q-170 0 -323 80v270l188 15v-99q0 -57 39 -69.5t99.5 -12.5t102.5 38t42 102q0 43 -14.5 68.5t-22.5 39t-28.5 30.5t-32 27.5t-40 28t-40.5 25.5q-63 39 -90 53q-145 86 -213 169t-68 204zM313 592q0 -41 10.5 -60.5t15.5 -29.5t21.5 -25.5 t23.5 -23t31.5 -24.5t36 -25.5t44 -29t121 -81t104.5 -74.5q59 53 59 135q0 41 -10 60.5t-15 30t-21.5 25.5t-24 22.5t-32 25t-35.5 25.5t-44 28q-166 104 -225 156q-59 -55 -60 -135z" />
<glyph unicode="&#xa8;" horiz-adv-x="1024" d="M170 1324q0 58 40 98t101.5 40t101.5 -40t40 -98t-40 -96t-102.5 -38t-101.5 38t-39 96zM580 1324q0 58 39.5 98t101 40t101.5 -40t40 -98t-40 -96t-102.5 -38t-101 38t-38.5 96z" />
<glyph unicode="&#xa9;" horiz-adv-x="1667" d="M123 661.5q0 309.5 197.5 516t507 206.5t512 -204.5t202.5 -506.5t-202.5 -508t-520 -206t-507 196.5t-189.5 506zM285 661.5q0 -249.5 150.5 -402.5t390 -153t397 161t157.5 404.5t-158.5 404.5t-397 161t-389 -163t-150.5 -412.5zM475 678q0 113 34 196.5t89 126.5 q109 84 231 84q195 0 308 -153l-115 -90q-94 102 -184 102t-144.5 -62.5t-54.5 -201.5q0 -274 199 -274q92 0 196 86l82 -111q-111 -115 -285 -115t-265 109.5t-91 302.5z" />
<glyph unicode="&#xaa;" horiz-adv-x="847" d="M98 876.5q0 161.5 97.5 267t275.5 105.5q129 0 262 -49v-500q0 -23 9.5 -30.5t33.5 -10.5l35 -2v-116h-238v77h-8q-76 -94 -204 -94t-195.5 95.5t-67.5 257zM287 879q0 -215 135 -215q53 0 88 29.5t35 62.5v336q-45 16 -94 16q-82 0 -123 -64.5t-41 -164.5z" />
<glyph unicode="&#xab;" horiz-adv-x="1085" d="M96 544q0 54 60 101l348 279l96 -93l-246 -292l232 -328l-97 -86l-356 330q-37 35 -37 89zM514 544q0 54 59 101l349 279l96 -93l-246 -292l232 -328l-97 -86l-356 330q-37 35 -37 89z" />
<glyph unicode="&#xac;" d="M106 645v199h879v-494h-197v295h-682z" />
<glyph unicode="&#xad;" horiz-adv-x="659" d="M86 500v190h485v-190h-485z" />
<glyph unicode="&#xae;" horiz-adv-x="948" d="M61 984q0 175 115 288.5t295 113.5t298 -113.5t118 -286.5t-117 -286.5t-302 -113.5t-296 111.5t-111 286.5zM170 985q0 -135 84 -221t218 -86t220 84t86 220t-88 223t-222 87t-216 -86t-82 -221zM332 774v432h155q143 0 144 -116q0 -86 -70 -119q17 -8 27 -31l74 -166 h-103l-63 144q-12 29 -33 28h-39v-172h-92zM424 1020h33q74 0 73 61q0 51 -73 52h-33v-113z" />
<glyph unicode="&#xaf;" horiz-adv-x="1024" d="M213 1249v172h588v-172h-588z" />
<glyph unicode="&#xb0;" horiz-adv-x="610" d="M72 1221.5q0 103.5 65.5 172t170 68.5t168 -66.5t63.5 -169t-65.5 -172t-173 -69.5t-168 66.5t-60.5 170zM199 1221q0 -53 27.5 -87t78.5 -34t78 33.5t27 87.5q0 125 -105.5 125t-105.5 -125z" />
<glyph unicode="&#xb1;" d="M133 72v198h305v275h-305v200h305v320h209v-320h316v-200h-316v-275h316v-198h-830z" />
<glyph unicode="&#xb2;" horiz-adv-x="690" d="M47 1210v224q147 76 288.5 75.5t207 -57.5t65.5 -136t-27.5 -132.5t-86.5 -124.5l-183 -207h324v-154h-563v119l254 295q90 106 90 156q0 94 -97 94q-55 0 -81.5 -11.5t-30.5 -21.5t-4 -35v-92z" />
<glyph unicode="&#xb3;" horiz-adv-x="690" d="M49 752l47 133q102 -53 201 -54q129 0 129 97q0 55 -40 80.5t-132 25.5h-66l13 135h133q78 45 78 113q0 84 -103 84q-43 0 -71.5 -9t-28.5 -46v-68l-143 10v195q127 61 260 61t198.5 -54t65.5 -142q0 -119 -117 -199q131 -41 131 -174q0 -113 -76.5 -182.5t-226 -69.5 t-252.5 64z" />
<glyph unicode="&#xb4;" horiz-adv-x="1024" d="M303 1217l238 393l96 -45q59 -33 59 -74t-51 -88l-262 -254z" />
<glyph unicode="&#xb5;" horiz-adv-x="1196" d="M152 -442v1472h229v-592q0 -143 45 -219t151.5 -76t164 89.5t57.5 240.5v557h233v-819q0 -68 53 -68q29 0 80 25l29 -143q-88 -49 -186 -50q-154 0 -162 166q-33 -76 -104.5 -123t-159.5 -47q-143 0 -211 101v-514h-219z" />
<glyph unicode="&#xb6;" horiz-adv-x="1124" d="M104 899q0 231 135.5 347t358.5 116h465v-166l-68 -6q-59 -7 -59 -66v-958q0 -268 -104.5 -397t-397.5 -189l-51 201q180 43 248.5 121t68.5 225v1059h-147v-746q-195 4 -322 116t-127 343z" />
<glyph unicode="&#xb7;" horiz-adv-x="632" d="M174 627.5q0 62.5 38 101.5t103.5 39t104.5 -38t39 -99.5t-38 -101.5t-104.5 -40t-104.5 38t-38 100.5z" />
<glyph unicode="&#xb8;" horiz-adv-x="1024" d="M272 -459l33 107q80 -27 137 -27q98 0 98.5 77t-180.5 77l74 231h117l-35 -135q86 -6 138.5 -49t52.5 -132t-75 -137.5t-175.5 -48.5t-184.5 37z" />
<glyph unicode="&#xb9;" horiz-adv-x="647" d="M53 1352l256 145h150v-655l143 -6v-138h-477v136l121 8q33 2 33 32v435l-166 -74z" />
<glyph unicode="&#xba;" horiz-adv-x="831" d="M86 881q0 279 221 352q55 18 115 18q131 0 226 -78.5t95 -263t-92 -285t-244.5 -100.5t-236.5 95.5t-84 261.5zM279 905q0 -227 136 -227t136 207q0 109 -32 162t-107 53q-133 0 -133 -195z" />
<glyph unicode="&#xbb;" horiz-adv-x="1085" d="M70 836l96 92l348 -279q59 -47 59 -103.5t-41 -92.5l-352 -324l-96 86l231 324zM487 836l97 92l348 -279q59 -47 59 -103.5t-41 -92.5l-352 -324l-96 86l231 324z" />
<glyph unicode="&#xbc;" horiz-adv-x="1689" d="M55 1188l256 145h150v-655l143 -6v-137h-477v135l121 8q33 2 33 33v434l-166 -74zM426 -12l664 1417l159 -68l-667 -1421zM967 231v119l229 475l141 -65l-188 -387h139l60 155h108v-155h125v-146h-125v-84l146 -6v-137h-478v135l121 8q33 2 33 33v55h-311z" />
<glyph unicode="&#xbd;" horiz-adv-x="1689" d="M59 1188l256 145h150v-655l143 -6v-137h-477v135l121 8q33 2 33 33v434l-166 -74zM412 -12l663 1417l160 -68l-668 -1421zM1018 512v223q147 76 288.5 76t207 -57.5t65.5 -136t-27.5 -132t-87.5 -125.5l-182 -206h324v-154h-564v119l254 295q90 106 90 155q0 94 -96 95 q-55 0 -81.5 -11.5t-30.5 -21.5t-4 -35v-92z" />
<glyph unicode="&#xbe;" horiz-adv-x="1689" d="M102 588l48 133q102 -53 200 -53q129 0 129 96q0 55 -40 80.5t-132 25.5h-65l12 136h133q78 45 78 112q0 84 -103 84q-43 0 -71.5 -9t-28.5 -46v-68l-143 11v194q127 61 260 61.5t198.5 -54t65.5 -142.5q0 -119 -117 -199q131 -41 131 -174q0 -113 -76.5 -182.5 t-226 -69.5t-252.5 64zM446 -12l664 1417l160 -68l-668 -1421zM989 231v119l230 475l141 -65l-189 -387h140l59 155h109v-155h125v-146h-125v-84l145 -6v-137h-477v135l121 8q32 2 32 33v55h-311z" />
<glyph unicode="&#xbf;" horiz-adv-x="886" d="M98 -95q0 134 54.5 211t140.5 139t108.5 91t24.5 86l10 225h197l10 -215v-30q0 -90 -33 -150q-37 -66 -161 -156q-68 -49 -78.5 -66t-18.5 -36q-16 -29 -16 -80q0 -129 141 -129q47 0 88 11.5t48.5 27.5t7.5 49v109l208 -15v-280q-197 -94 -376 -94t-267 84t-88 218z M393 921.5q0 57.5 38 98.5t102.5 41t102.5 -39t38 -96.5t-39 -97.5t-101.5 -40t-101.5 38t-39 95.5z" />
<glyph unicode="&#xc0;" horiz-adv-x="1355" d="M10 0v166l68 6q43 4 61 57l330 955l-129 12v166h469l418 -1182h2l117 -6v-174h-529v166l78 6q35 4 47 16.5t2 44.5l-43 127h-479l-62 -180l123 -6v-174h-473zM364.5 1712q0.5 41 38.5 78l82 68l332 -322l-61 -84l-318 178q-74 41 -73.5 82zM471 549h381l-184 584h-6z" />
<glyph unicode="&#xc1;" horiz-adv-x="1355" d="M10 0v166l68 6q43 4 61 57l330 955l-129 12v166h469l418 -1182h2l117 -6v-174h-529v166l78 6q35 4 47 16.5t2 44.5l-43 127h-479l-62 -180l123 -6v-174h-473zM453 1536l331 322l82 -68q37 -35 37 -68q0 -51 -72 -92l-317 -178zM471 549h381l-184 584h-6z" />
<glyph unicode="&#xc2;" horiz-adv-x="1355" d="M10 0v166l68 6q43 4 61 57l330 955l-129 12v166h469l418 -1182h2l117 -6v-174h-529v166l78 6q35 4 47 16.5t2 44.5l-43 127h-479l-62 -180l123 -6v-174h-473zM287 1520l241 262q43 47 86 47l82 -43l246 -264l-84 -72l-246 176l-241 -176zM471 549h381l-184 584h-6z" />
<glyph unicode="&#xc3;" horiz-adv-x="1355" d="M10 0v166l68 6q43 4 61 57l330 955l-129 12v166h469l418 -1182h2l117 -6v-174h-529v166l78 6q35 4 47 16.5t2 44.5l-43 127h-479l-62 -180l123 -6v-174h-473zM279 1563q74 162 208 161q49 0 143.5 -28.5t138.5 -28.5t83 66l111 -60q-68 -178 -211 -178q-43 0 -133.5 27.5 t-127 27.5t-59 -11t-55.5 -48zM471 549h381l-184 584h-6z" />
<glyph unicode="&#xc4;" horiz-adv-x="1355" d="M10 0v166l68 6q43 4 61 57l330 955l-129 12v166h469l418 -1182h2l117 -6v-174h-529v166l78 6q35 4 47 16.5t2 44.5l-43 127h-479l-62 -180l123 -6v-174h-473zM274 1610.5q0 58.5 40 98.5t101.5 40t101.5 -40t40 -98.5t-40 -96t-102.5 -37.5t-101.5 37.5t-39 96zM471 549 h381l-184 584h-6zM684 1610.5q0 58.5 40 98.5t101.5 40t101.5 -40t40 -98.5t-40 -96t-102.5 -37.5t-101.5 37.5t-39 96z" />
<glyph unicode="&#xc5;" horiz-adv-x="1355" d="M10 0v166l68 6q43 4 61 57l330 955l-129 12v166h469l418 -1182h2l117 -6v-174h-529v166l78 6q35 4 47 16.5t2 44.5l-43 127h-479l-62 -180l123 -6v-174h-473zM430 1625q0 83 54.5 136.5t141.5 53.5t138 -52.5t51 -134.5t-53 -138t-142.5 -56t-139.5 54t-50 137zM471 549 h381l-184 584h-6zM551 1623q0 -85 74 -85q35 0 54 24.5t19 61.5q0 84 -73.5 84t-73.5 -85z" />
<glyph unicode="&#xc6;" horiz-adv-x="1748" d="M0 0v166l68 6q43 4 61 57l330 955l-129 12v166h1312v-340l-208 -14v82q0 35 -10.5 49t-49.5 14h-461l121 -350h510v-209h-473l135 -383h195q37 0 47 15.5t10 49.5v103l209 -14v-365h-860v166l78 6q35 4 47 16.5t2 44.5l-43 127h-479l-62 -180l123 -6v-174h-473zM461 549 h381l-185 584h-6z" />
<glyph unicode="&#xc7;" horiz-adv-x="1232" d="M82 674q0 193 55.5 336t149.5 223q184 154 438 153q205 0 385 -83v-349l-209 -14v160q0 31 -8 45q-23 39 -168 39q-190 0 -288.5 -129t-98.5 -373q0 -506 379 -506h54t91 13.5t51.5 27.5t8.5 45v164l208 -14v-355q-160 -84 -403 -84l-27 -102q86 -6 138.5 -49t52.5 -132 t-75 -137.5t-175 -48.5t-184 37l32 107q80 -27 138 -27q98 0 98 77t-180 77l65 207q-258 29 -393 203.5t-135 488.5z" />
<glyph unicode="&#xc8;" horiz-adv-x="1124" d="M70 0v166l67 6q59 6 60 57v953l-117 6v174h938v-340l-209 -14v82q0 35 -10.5 49t-48.5 14h-304v-350h474v-209h-474v-383h330q37 0 47.5 15.5t10.5 49.5v103l208 -14v-365h-972zM317 1712q0 41 39 78l82 68l332 -322l-61 -84l-318 178q-74 41 -74 82z" />
<glyph unicode="&#xc9;" horiz-adv-x="1124" d="M70 0v166l67 6q59 6 60 57v953l-117 6v174h938v-340l-209 -14v82q0 35 -10.5 49t-48.5 14h-304v-350h474v-209h-474v-383h330q37 0 47.5 15.5t10.5 49.5v103l208 -14v-365h-972zM377 1536l332 322l82 -68q37 -35 36 -68q0 -51 -71 -92l-318 -178z" />
<glyph unicode="&#xca;" horiz-adv-x="1124" d="M70 0v166l67 6q59 6 60 57v953l-117 6v174h938v-340l-209 -14v82q0 35 -10.5 49t-48.5 14h-304v-350h474v-209h-474v-383h330q37 0 47.5 15.5t10.5 49.5v103l208 -14v-365h-972zM233 1520l242 262q43 47 86 47l82 -43l246 -264l-84 -72l-246 176l-242 -176z" />
<glyph unicode="&#xcb;" horiz-adv-x="1124" d="M70 0v166l67 6q59 6 60 57v953l-117 6v174h938v-340l-209 -14v82q0 35 -10.5 49t-48.5 14h-304v-350h474v-209h-474v-383h330q37 0 47.5 15.5t10.5 49.5v103l208 -14v-365h-972zM219 1610.5q0 58.5 40 98.5t101.5 40t101.5 -40t40 -98.5t-40 -96t-102.5 -37.5 t-101.5 37.5t-39 96zM629 1610.5q0 58.5 40 98.5t101 40t101 -40t40 -98.5t-40 -96t-102 -37.5t-101 37.5t-39 96z" />
<glyph unicode="&#xcc;" horiz-adv-x="628" d="M55 1712q0 41 39 78l82 68l332 -322l-62 -84l-317 178q-74 41 -74 82zM66 0v166l67 6q31 4 45.5 17.5t14.5 50.5v942l-117 6v174h495v-166l-67 -6q-59 -6 -60 -66v-944l117 -6v-174h-495z" />
<glyph unicode="&#xcd;" horiz-adv-x="628" d="M66 0v166l67 6q31 4 45.5 17.5t14.5 50.5v942l-117 6v174h495v-166l-67 -6q-59 -6 -60 -66v-944l117 -6v-174h-495zM131 1536l332 322l82 -68q37 -35 37 -68q0 -51 -72 -92l-317 -178z" />
<glyph unicode="&#xce;" horiz-adv-x="628" d="M-6 1520l242 262q43 47 86 47l81 -43l246 -264l-84 -72l-246 176l-241 -176zM66 0v166l67 6q31 4 45.5 17.5t14.5 50.5v942l-117 6v174h495v-166l-67 -6q-59 -6 -60 -66v-944l117 -6v-174h-495z" />
<glyph unicode="&#xcf;" horiz-adv-x="628" d="M-20 1610.5q0 58.5 39.5 98.5t101 40t101.5 -40t40 -98.5t-40 -96t-102.5 -37.5t-101 37.5t-38.5 96zM66 0v166l67 6q31 4 45.5 17.5t14.5 50.5v942l-117 6v174h495v-166l-67 -6q-59 -6 -60 -66v-944l117 -6v-174h-495zM389 1610.5q0 58.5 40 98.5t101.5 40t101.5 -40 t40 -98.5t-40 -96t-102.5 -37.5t-101.5 37.5t-39 96z" />
<glyph unicode="&#xd0;" horiz-adv-x="1390" d="M74 594v184h151v404l-116 6v174h561q301 0 470 -160t169 -473q0 -195 -51.5 -339t-139.5 -226q-176 -164 -438 -164h-582v166l68 6q59 6 59 57v365h-151zM475 197h209q176 0 274.5 127t98.5 368q0 471 -400 471h-182v-385h346v-184h-346v-397z" />
<glyph unicode="&#xd1;" horiz-adv-x="1443" d="M66 0v166l73 6q53 4 54 57v953l-117 6v174h368l580 -940h4v760l-135 6v174h500v-166l-74 -6q-49 -4 -49 -64v-1126h-240l-592 954h-4v-774l133 -6v-174h-501zM356 1563q74 162 209 161q49 0 143.5 -28.5t138.5 -28.5t83 66l110 -60q-68 -178 -211 -178q-43 0 -133 27.5 t-127 27.5t-59 -11t-55 -48z" />
<glyph unicode="&#xd2;" horiz-adv-x="1359" d="M82 678q0 188 55.5 330.5t145.5 220.5q182 158 424.5 157.5t406.5 -172.5t164 -525t-163 -534.5t-440.5 -181.5t-435 180.5t-157.5 524.5zM338 688q0 -508 352 -508q188 0 264 156q70 137 70 336q0 178 -61 327q-35 82 -106 129.5t-183.5 47.5t-193.5 -74t-111.5 -178.5 t-30.5 -235.5zM456.5 1712q0.5 41 39.5 78l82 68l331 -322l-61 -84l-318 178q-74 41 -73.5 82z" />
<glyph unicode="&#xd3;" horiz-adv-x="1359" d="M82 678q0 188 55.5 330.5t145.5 220.5q182 158 424.5 157.5t406.5 -172.5t164 -525t-163 -534.5t-440.5 -181.5t-435 180.5t-157.5 524.5zM338 688q0 -508 352 -508q188 0 264 156q70 137 70 336q0 178 -61 327q-35 82 -106 129.5t-183.5 47.5t-193.5 -74t-111.5 -178.5 t-30.5 -235.5zM485 1536l332 322l82 -68q37 -35 37 -68q0 -51 -72 -92l-317 -178z" />
<glyph unicode="&#xd4;" horiz-adv-x="1359" d="M82 678q0 188 55.5 330.5t145.5 220.5q182 158 424.5 157.5t406.5 -172.5t164 -525t-163 -534.5t-440.5 -181.5t-435 180.5t-157.5 524.5zM338 688q0 -508 352 -508q188 0 264 156q70 137 70 336q0 178 -61 327q-35 82 -106 129.5t-183.5 47.5t-193.5 -74t-111.5 -178.5 t-30.5 -235.5zM367 1520l241 262q43 47 86 47l82 -43l246 -264l-84 -72l-246 176l-241 -176z" />
<glyph unicode="&#xd5;" horiz-adv-x="1359" d="M82 678q0 188 55.5 330.5t145.5 220.5q182 158 424.5 157.5t406.5 -172.5t164 -525t-163 -534.5t-440.5 -181.5t-435 180.5t-157.5 524.5zM338 688q0 -508 352 -508q188 0 264 156q70 137 70 336q0 178 -61 327q-35 82 -106 129.5t-183.5 47.5t-193.5 -74t-111.5 -178.5 t-30.5 -235.5zM352 1563q74 162 209 161q49 0 143.5 -28.5t138.5 -28.5t83 66l110 -60q-68 -178 -211 -178q-43 0 -133 27.5t-127 27.5t-59 -11t-55 -48z" />
<glyph unicode="&#xd6;" horiz-adv-x="1359" d="M82 678q0 188 55.5 330.5t145.5 220.5q182 158 424.5 157.5t406.5 -172.5t164 -525t-163 -534.5t-440.5 -181.5t-435 180.5t-157.5 524.5zM338 688q0 -508 352 -508q188 0 264 156q70 137 70 336q0 178 -61 327q-35 82 -106 129.5t-183.5 47.5t-193.5 -74t-111.5 -178.5 t-30.5 -235.5zM346 1610.5q0 58.5 40 98.5t101.5 40t101.5 -40t40 -98.5t-40 -96t-102.5 -37.5t-101.5 37.5t-39 96zM756 1610.5q0 58.5 40 98.5t101 40t101 -40t40 -98.5t-40 -96t-102 -37.5t-101 37.5t-39 96z" />
<glyph unicode="&#xd7;" d="M170 410l233 233l-233 234l147 147l234 -233l229 229l142 -141l-230 -232l232 -231l-148 -148l-231 232l-232 -232z" />
<glyph unicode="&#xd8;" horiz-adv-x="1359" d="M82 678q0 188 55.5 330.5t145.5 220.5q182 158 415 157q111 0 211 -34l90 186l183 -84l-101 -209q197 -182 197 -545.5t-163 -545t-439 -181.5q-115 0 -219 33l-103 -211l-178 86l109 225q-203 180 -203 572zM338 688q0 -225 70 -352l393 819q-57 20 -115 21 q-125 0 -206 -74t-111.5 -178.5t-30.5 -235.5zM563 201q53 -20 137 -20.5t152 40.5t102 115q70 137 70 341t-70 337z" />
<glyph unicode="&#xd9;" horiz-adv-x="1349" d="M45 1188v174h496v-166l-68 -6q-33 -4 -47 -17.5t-14 -50.5v-680q0 -143 68.5 -201.5t196.5 -58.5t198.5 63.5t70.5 186.5v750l-119 6v174h486v-166l-68 -6q-59 -6 -59 -62v-731q0 -199 -139.5 -311.5t-385 -112.5t-371.5 110t-126 347v752zM405.5 1712q0.5 41 38.5 78 l82 68l332 -322l-61 -84l-318 178q-74 41 -73.5 82z" />
<glyph unicode="&#xda;" horiz-adv-x="1349" d="M45 1188v174h496v-166l-68 -6q-33 -4 -47 -17.5t-14 -50.5v-680q0 -143 68.5 -201.5t196.5 -58.5t198.5 63.5t70.5 186.5v750l-119 6v174h486v-166l-68 -6q-59 -6 -59 -62v-731q0 -199 -139.5 -311.5t-385 -112.5t-371.5 110t-126 347v752zM498 1536l331 322l82 -68 q37 -35 37 -68q0 -51 -71 -92l-318 -178z" />
<glyph unicode="&#xdb;" horiz-adv-x="1349" d="M45 1188v174h496v-166l-68 -6q-33 -4 -47 -17.5t-14 -50.5v-680q0 -143 68.5 -201.5t196.5 -58.5t198.5 63.5t70.5 186.5v750l-119 6v174h486v-166l-68 -6q-59 -6 -59 -62v-731q0 -199 -139.5 -311.5t-385 -112.5t-371.5 110t-126 347v752zM344 1520l242 262q43 47 86 47 l82 -43l245 -264l-84 -72l-245 176l-242 -176z" />
<glyph unicode="&#xdc;" horiz-adv-x="1349" d="M45 1188v174h496v-166l-68 -6q-33 -4 -47 -17.5t-14 -50.5v-680q0 -143 68.5 -201.5t196.5 -58.5t198.5 63.5t70.5 186.5v750l-119 6v174h486v-166l-68 -6q-59 -6 -59 -62v-731q0 -199 -139.5 -311.5t-385 -112.5t-371.5 110t-126 347v752zM346 1610.5q0 58.5 40 98.5 t101.5 40t101.5 -40t40 -98.5t-40 -96t-102.5 -37.5t-101.5 37.5t-39 96zM756 1610.5q0 58.5 40 98.5t101 40t101 -40t40 -98.5t-40 -96t-102 -37.5t-101 37.5t-39 96z" />
<glyph unicode="&#xdd;" horiz-adv-x="1167" d="M10 1188v174h500v-166l-61 -6q-33 -2 -42.5 -24.5t7.5 -55.5l174 -356h8l223 426l-102 8v174h440v-166l-61 -6q-39 -4 -70 -62l-321 -608v-340l159 -6v-174h-577v166l108 6q60 4 60 57v291l-349 662zM391 1536l332 322l82 -68q37 -35 37 -68q0 -51 -72 -92l-317 -178z " />
<glyph unicode="&#xde;" horiz-adv-x="1208" d="M66 0v160l67 6q59 6 60 57v963l-127 8v168h567v-154l-131 -6q-60 -4 -60 -57v-35h220q229 0 357 -102.5t128 -307t-145.5 -319.5t-385.5 -115h-174v-94l197 -6v-166h-573zM442 465h148q299 0 299 223q0 135 -77 179t-245 44h-125v-446z" />
<glyph unicode="&#xdf;" horiz-adv-x="1280" d="M57 0v156l68 6q31 4 45 17t14 50v815q0 416 492 416q223 0 332.5 -83t109.5 -214q0 -111 -94 -198q-41 -37 -80 -70q-94 -80 -94 -137q0 -66 129 -144q55 -31 109.5 -68.5t92.5 -101t38 -145.5q0 -156 -103.5 -241t-278.5 -85t-315 64v285l185 14v-98q0 -33 6 -47.5 t39.5 -27.5t92 -12t95.5 35.5t37 93t-37 99.5t-88 70.5t-103.5 61.5t-89 84t-36.5 121.5t41 131t91 100.5t91 90.5t41 100.5q0 137 -229.5 137t-229.5 -219v-1057h-371z" />
<glyph unicode="&#xe0;" horiz-adv-x="1161" d="M82 471q0 279 135 434.5t406 155.5q174 0 364 -72v-762q0 -33 11.5 -45t39.5 -14l66 -4v-164h-326v119l-6 2q-102 -147 -280 -148q-209 0 -309.5 133.5t-100.5 364.5zM332 479q0 -332 213 -332q90 0 147.5 54.5t57.5 124.5v530q-57 27 -158 27q-137 0 -198.5 -110.5 t-61.5 -293.5zM363 1491q0 41 59 74l96 45l238 -393l-80 -68l-262 254q-51 47 -51 88z" />
<glyph unicode="&#xe1;" horiz-adv-x="1161" d="M82 471q0 279 135 434.5t406 155.5q174 0 364 -72v-762q0 -33 11.5 -45t39.5 -14l66 -4v-164h-326v119l-6 2q-102 -147 -280 -148q-209 0 -309.5 133.5t-100.5 364.5zM332 479q0 -332 213 -332q90 0 147.5 54.5t57.5 124.5v530q-57 27 -158 27q-137 0 -198.5 -110.5 t-61.5 -293.5zM438 1217l238 393l96 -45q59 -33 59 -74t-51 -88l-262 -254z" />
<glyph unicode="&#xe2;" horiz-adv-x="1161" d="M82 471q0 279 135 434.5t406 155.5q174 0 364 -72v-762q0 -33 11.5 -45t39.5 -14l66 -4v-164h-326v119l-6 2q-102 -147 -280 -148q-209 0 -309.5 133.5t-100.5 364.5zM272 1217l236 309q41 53 88 53q51 0 94 -57l232 -303l-84 -70l-242 213l-240 -211zM332 479 q0 -332 213 -332q90 0 147.5 54.5t57.5 124.5v530q-57 27 -158 27q-137 0 -198.5 -110.5t-61.5 -293.5z" />
<glyph unicode="&#xe3;" horiz-adv-x="1161" d="M82 471q0 279 135 434.5t406 155.5q174 0 364 -72v-762q0 -33 11.5 -45t39.5 -14l66 -4v-164h-326v119l-6 2q-102 -147 -280 -148q-209 0 -309.5 133.5t-100.5 364.5zM260 1292q74 162 209 162q49 0 143.5 -28.5t138.5 -28.5t83 65l110 -59q-68 -178 -211 -178 q-45 0 -135 27.5t-126 27.5t-58.5 -11t-55.5 -48zM332 479q0 -332 213 -332q90 0 147.5 54.5t57.5 124.5v530q-57 27 -158 27q-137 0 -198.5 -110.5t-61.5 -293.5z" />
<glyph unicode="&#xe4;" horiz-adv-x="1161" d="M82 471q0 279 135 434.5t406 155.5q174 0 364 -72v-762q0 -33 11.5 -45t39.5 -14l66 -4v-164h-326v119l-6 2q-102 -147 -280 -148q-209 0 -309.5 133.5t-100.5 364.5zM248 1324q0 58 40 98t101.5 40t101.5 -40t40 -98t-40 -96t-102.5 -38t-101.5 38t-39 96zM332 479 q0 -332 213 -332q90 0 147.5 54.5t57.5 124.5v530q-57 27 -158 27q-137 0 -198.5 -110.5t-61.5 -293.5zM658 1324q0 58 39.5 98t101 40t101.5 -40t40 -98t-40 -96t-102.5 -38t-101 38t-38.5 96z" />
<glyph unicode="&#xe5;" horiz-adv-x="1161" d="M82 471q0 279 135 434.5t406 155.5q174 0 364 -72v-762q0 -33 11.5 -45t39.5 -14l66 -4v-164h-326v119l-6 2q-102 -147 -280 -148q-209 0 -309.5 133.5t-100.5 364.5zM332 479q0 -332 213 -332q90 0 147.5 54.5t57.5 124.5v530q-57 27 -158 27q-137 0 -198.5 -110.5 t-61.5 -293.5zM393 1347q0 83 54.5 136t141.5 53t138 -52t51 -134t-53 -138.5t-142 -56.5t-139.5 54.5t-50.5 137.5zM514 1345q0 -85 74 -85q35 0 54.5 24.5t19.5 61.5q0 84 -74 84t-74 -85z" />
<glyph unicode="&#xe6;" horiz-adv-x="1566" d="M82 500q0 250 137 405.5t393 155.5q150 0 293 -70q109 70 258.5 70t238.5 -75t89 -210q0 -367 -584 -370q6 -113 69.5 -178.5t184.5 -65.5t256 92l78 -166q-47 -39 -143.5 -77t-225.5 -38q-213 0 -323 111q-135 -111 -303 -111q-221 0 -319.5 138.5t-98.5 388.5zM332 495 q0 -171 50 -259.5t169 -88.5q88 0 154 66q-53 113 -53.5 299t104.5 340q-76 31 -168 31q-129 0 -192.5 -108.5t-63.5 -279.5zM899 575q111 0 198 28t128 69t41 96t-33 87t-88 32q-115 0 -177.5 -92.5t-68.5 -219.5z" />
<glyph unicode="&#xe7;" horiz-adv-x="964" d="M68 502q0 287 144 423t325.5 136t336.5 -84v-266l-188 -15v99q0 55 -40 68.5t-83 13.5q-248 0 -248 -351q0 -174 65.5 -270t189.5 -96t245 88l88 -158q-129 -109 -321 -117l-25 -102q86 -6 138.5 -49t52.5 -132t-75 -137.5t-175.5 -48.5t-184.5 37l33 107q80 -27 137 -27 q98 0 98.5 77t-180.5 77l64 202q-190 23 -293.5 158t-103.5 367z" />
<glyph unicode="&#xe8;" horiz-adv-x="991" d="M76 491.5q0 241.5 133 405.5t373 164q154 0 243.5 -75t89.5 -210q0 -90 -38.5 -158.5t-96 -107.5t-139.5 -64q-137 -41 -309 -40q6 -109 67.5 -175.5t188.5 -66.5t254 90l78 -166q-41 -37 -138.5 -76t-222.5 -39q-250 0 -366.5 138.5t-116.5 380zM295 1491q0 41 59 74 l96 45l238 -393l-80 -68l-262 254q-51 47 -51 88zM324 578q90 2 164.5 15t138 59t63.5 110q0 125 -123 125q-115 0 -176 -91t-67 -218z" />
<glyph unicode="&#xe9;" horiz-adv-x="991" d="M76 491.5q0 241.5 133 405.5t373 164q154 0 243.5 -75t89.5 -210q0 -90 -38.5 -158.5t-96 -107.5t-139.5 -64q-137 -41 -309 -40q6 -109 67.5 -175.5t188.5 -66.5t254 90l78 -166q-41 -37 -138.5 -76t-222.5 -39q-250 0 -366.5 138.5t-116.5 380zM324 578q90 2 164.5 15 t138 59t63.5 110q0 125 -123 125q-115 0 -176 -91t-67 -218zM354 1217l238 393l96 -45q59 -33 59.5 -74t-51.5 -88l-262 -254z" />
<glyph unicode="&#xea;" horiz-adv-x="991" d="M76 491.5q0 241.5 133 405.5t373 164q154 0 243.5 -75t89.5 -210q0 -90 -38.5 -158.5t-96 -107.5t-139.5 -64q-137 -41 -309 -40q6 -109 67.5 -175.5t188.5 -66.5t254 90l78 -166q-41 -37 -138.5 -76t-222.5 -39q-250 0 -366.5 138.5t-116.5 380zM213 1217l236 309 q41 53 88 53q51 0 94 -57l232 -303l-84 -70l-242 213l-240 -211zM324 578q90 2 164.5 15t138 59t63.5 110q0 125 -123 125q-115 0 -176 -91t-67 -218z" />
<glyph unicode="&#xeb;" horiz-adv-x="991" d="M76 491.5q0 241.5 133 405.5t373 164q154 0 243.5 -75t89.5 -210q0 -90 -38.5 -158.5t-96.5 -107.5q-154 -104 -448 -104q6 -109 67.5 -175.5t188.5 -66.5t254 90l78 -166q-41 -37 -138.5 -76t-222.5 -39q-250 0 -366.5 138.5t-116.5 380zM186 1324q0 58 40 98t101.5 40 t101.5 -40t40 -98t-40 -96t-102.5 -38t-101.5 38t-39 96zM324 578q90 2 164.5 15t138 59t63.5 110q0 125 -123 125q-115 0 -176 -91t-67 -218zM596 1324q0 58 40 98t101.5 40t101.5 -40t40 -98t-40 -96t-102.5 -38t-101.5 38t-39 96z" />
<glyph unicode="&#xec;" horiz-adv-x="606" d="M41 1491q0 41 59 74l96 45l238 -393l-80 -68l-262 254q-51 47 -51 88zM68 0v156l67 6q59 6 60 65v570q0 35 -11.5 47t-40.5 12l-71 4v170h366v-860l117 -6v-164h-487z" />
<glyph unicode="&#xed;" horiz-adv-x="606" d="M68 0v156l67 6q59 6 60 65v570q0 35 -11.5 47t-40.5 12l-71 4v170h366v-860l117 -6v-164h-487zM168 1217l238 393l96 -45q59 -33 59 -74t-51 -88l-262 -254z" />
<glyph unicode="&#xee;" horiz-adv-x="606" d="M-68 1217l236 309q41 53 88 53q51 0 94 -57l232 -303l-84 -70l-242 213l-240 -211zM68 0v156l67 6q59 6 60 65v570q0 35 -11.5 47t-40.5 12l-71 4v170h366v-860l117 -6v-164h-487z" />
<glyph unicode="&#xef;" horiz-adv-x="606" d="M-90 1324q0 58 40 98t101.5 40t101.5 -40t40 -98t-40 -96t-102.5 -38t-101.5 38t-39 96zM68 0v156l67 6q59 6 60 65v570q0 35 -11.5 47t-40.5 12l-71 4v170h366v-860l117 -6v-164h-487zM319 1324q0 58 40 98t101.5 40t101.5 -40t40 -98t-40 -96t-102.5 -38t-101.5 38 t-39 96z" />
<glyph unicode="&#xf0;" horiz-adv-x="1048" d="M61 431q0 210 112 345t304 135q133 0 234 -65q-39 143 -127 248l-170 -117l-95 133l136 92q-90 55 -205 76l49 190q205 -27 350 -133l172 117l92 -133l-137 -96q203 -252 203 -658q0 -268 -117 -431t-352.5 -163t-342 125t-106.5 335zM313 436q0 -129 50.5 -199.5 t152.5 -70.5t156.5 101.5t54.5 267.5q0 84 -2 112q-92 76 -213 76q-199 0 -199 -287z" />
<glyph unicode="&#xf1;" horiz-adv-x="1228" d="M55 866v164h346v-133q53 76 141.5 120t190.5 44q156 0 241 -89t85 -267v-535l117 -6v-164h-488v156l68 6q31 4 45 17.5t14 49.5v422q0 113 -35 167t-132 54t-154.5 -61t-57.5 -145v-496l117 -6v-164h-487v156l67 6q31 4 45.5 17.5t14.5 49.5v568q0 61 -52 63zM264 1292 q74 162 209 162q49 0 143.5 -28.5t138.5 -28.5t83 65l110 -59q-68 -178 -211 -178q-45 0 -135 27.5t-126 27.5t-58.5 -11t-55.5 -48z" />
<glyph unicode="&#xf2;" horiz-adv-x="1081" d="M68 516q0 152 45 263.5t120 170.5q145 111 322 111q123 0 208 -40t133 -92t82 -151.5t34 -234.5q0 -283 -137.5 -428.5t-351.5 -145.5t-334.5 138.5t-120.5 408.5zM312 1491q0 41 59 74l96 45l238 -393l-80 -68l-262 254q-51 47 -51 88zM315 545q0 -289 107 -363 q47 -32 117 -32q223 0 223 360q0 182 -50 276.5t-168 94.5t-173.5 -90.5t-55.5 -245.5z" />
<glyph unicode="&#xf3;" horiz-adv-x="1081" d="M68 516q0 152 45 263.5t120 170.5q145 111 322 111q123 0 208 -40t133 -92t82 -151.5t34 -234.5q0 -283 -137.5 -428.5t-351.5 -145.5t-334.5 138.5t-120.5 408.5zM315 545q0 -289 107 -363q47 -32 117 -32q223 0 223 360q0 182 -50 276.5t-168 94.5t-173.5 -90.5 t-55.5 -245.5zM381 1217l237 393l97 -45q59 -33 59 -74t-51 -88l-262 -254z" />
<glyph unicode="&#xf4;" horiz-adv-x="1081" d="M68 516q0 152 45 263.5t120 170.5q145 111 322 111q123 0 208 -40t133 -92t82 -151.5t34 -234.5q0 -283 -137.5 -428.5t-351.5 -145.5t-334.5 138.5t-120.5 408.5zM211 1217l236 309q41 53 88 53q51 0 94 -57l232 -303l-84 -70l-242 213l-240 -211zM315 545 q0 -289 107 -363q47 -32 117 -32q223 0 223 360q0 182 -50 276.5t-168 94.5t-173.5 -90.5t-55.5 -245.5z" />
<glyph unicode="&#xf5;" horiz-adv-x="1081" d="M68 516q0 152 45 263.5t120 170.5q145 111 322 111q123 0 208 -40t133 -92t82 -151.5t34 -234.5q0 -283 -137.5 -428.5t-351.5 -145.5t-334.5 138.5t-120.5 408.5zM203 1292q74 162 209 162q49 0 143 -28.5t138 -28.5t83 65l111 -59q-68 -178 -211 -178q-45 0 -135 27.5 t-126 27.5t-58.5 -11t-55.5 -48zM315 545q0 -289 107 -363q47 -32 117 -32q223 0 223 360q0 182 -50 276.5t-168 94.5t-173.5 -90.5t-55.5 -245.5z" />
<glyph unicode="&#xf6;" horiz-adv-x="1081" d="M68 516q0 152 45 263.5t120 170.5q145 111 322 111q123 0 208 -40t133 -92t82 -151.5t34 -234.5q0 -283 -137.5 -428.5t-351.5 -145.5t-334.5 138.5t-120.5 408.5zM188 1324q0 58 40 98t101.5 40t101.5 -40t40 -98t-40 -96t-102.5 -38t-101.5 38t-39 96zM315 545 q0 -289 107 -363q47 -32 117 -32q223 0 223 360q0 182 -50 276.5t-168 94.5t-173.5 -90.5t-55.5 -245.5zM598 1324q0 58 39.5 98t101 40t101.5 -40t40 -98t-40 -96t-102.5 -38t-101 38t-38.5 96z" />
<glyph unicode="&#xf7;" d="M133 545v196h830v-196h-830zM418 259q0 60 35.5 100t96 40t97.5 -36.5t37 -98t-37 -101.5t-98.5 -40t-96 38t-34.5 98zM418 1031.5q0 60.5 35.5 100t96 39.5t97.5 -36.5t37 -98t-37 -101.5t-98.5 -40t-96 38t-34.5 98.5z" />
<glyph unicode="&#xf8;" horiz-adv-x="1081" d="M72 516q0 152 45 263.5t121 170.5q145 111 321 111q90 0 162 -23l78 156l149 -72l-82 -164q150 -131 150 -414.5t-137.5 -429t-352.5 -145.5q-90 0 -164 25l-81 -166l-148 74l86 176q-147 141 -147 438zM319 547.5q0 -152.5 25 -236.5l283 555q-31 15 -80 15 q-117 0 -172.5 -90.5t-55.5 -243zM455 166q39 -16 88 -16q223 0 223 360q0 131 -27 213z" />
<glyph unicode="&#xf9;" horiz-adv-x="1210" d="M55 862v168h361v-649q0 -109 30.5 -164t127 -55t154.5 59.5t58 143.5v432q0 33 -11 46t-40 15l-65 4v168h360v-803q0 -33 10.5 -44t40.5 -15l72 -6v-162h-332v133q-113 -160 -332 -160q-317 0 -317 355v473q0 55 -51 57zM324 1491q0 41 59 74l96 45l238 -393l-80 -68 l-262 254q-51 47 -51 88z" />
<glyph unicode="&#xfa;" horiz-adv-x="1210" d="M55 862v168h361v-649q0 -109 30.5 -164t127 -55t154.5 59.5t58 143.5v432q0 33 -11 46t-40 15l-65 4v168h360v-803q0 -33 10.5 -44t40.5 -15l72 -6v-162h-332v133q-113 -160 -332 -160q-317 0 -317 355v473q0 55 -51 57zM418 1217l237 393l97 -45q59 -33 59 -74t-51 -88 l-262 -254z" />
<glyph unicode="&#xfb;" horiz-adv-x="1210" d="M55 862v168h361v-649q0 -109 30.5 -164t127 -55t154.5 59.5t58 143.5v432q0 33 -11 46t-40 15l-65 4v168h360v-803q0 -33 10.5 -44t40.5 -15l72 -6v-162h-332v133q-113 -160 -332 -160q-317 0 -317 355v473q0 55 -51 57zM237 1217l236 309q41 53 88 53q51 0 94 -57 l232 -303l-84 -70l-242 213l-240 -211z" />
<glyph unicode="&#xfc;" horiz-adv-x="1210" d="M55 862v168h361v-649q0 -109 30.5 -164t127 -55t154.5 59.5t58 143.5v432q0 33 -11 46t-40 15l-65 4v168h360v-803q0 -33 10.5 -44t40.5 -15l72 -6v-162h-332v133q-113 -160 -332 -160q-317 0 -317 355v473q0 55 -51 57zM221 1324q0 58 40 98t101.5 40t101.5 -40t40 -98 t-40 -96t-102.5 -38t-101.5 38t-39 96zM631 1324q0 58 40 98t101.5 40t101 -40t39.5 -98t-39.5 -96t-102 -38t-101.5 38t-39 96z" />
<glyph unicode="&#xfd;" horiz-adv-x="1173" d="M55 862v168h361v-588q0 -109 30.5 -164t127 -55t154.5 59.5t58 143.5v371q0 35 -11 48t-40 13l-65 4v168h360v-991q0 -248 -119.5 -362.5t-362.5 -114.5t-378 67v285l195 16v-98q0 -55 51 -74.5t141 -19.5q264 0 264 301v156q-113 -160 -332 -160q-317 0 -317 354v412 q0 55 -51 57zM420 1217l238 393l96 -45q59 -33 59 -74t-51 -88l-262 -254z" />
<glyph unicode="&#xfe;" horiz-adv-x="1163" d="M55 -268l68 6q31 4 45 17.5t14 49.5v1432q0 47 -51 49l-72 4v170h359v-485q92 86 248 86q190 0 303.5 -132.5t113.5 -363.5q0 -283 -117.5 -439.5t-328.5 -156.5q-123 0 -219 60v-283l166 -8v-162h-529v156zM418 215q78 -51 190.5 -51t167.5 101t55 267q0 346 -229 347 q-74 0 -129 -43t-55 -111v-510z" />
<glyph unicode="&#xff;" horiz-adv-x="1173" d="M55 862v168h361v-588q0 -109 30.5 -164t127 -55t154.5 59.5t58 143.5v371q0 35 -11 48t-40 13l-65 4v168h360v-991q0 -248 -119.5 -362.5t-362.5 -114.5t-378 67v285l195 16v-98q0 -55 51 -74.5t141 -19.5q264 0 264 301v156q-113 -160 -332 -160q-317 0 -317 354v412 q0 55 -51 57zM207 1324q0 58 40 98t101.5 40t101 -40t39.5 -98t-39.5 -96t-102 -38t-101.5 38t-39 96zM616 1324q0 58 40 98t101.5 40t101.5 -40t40 -98t-40 -96t-102.5 -38t-101.5 38t-39 96z" />
<glyph unicode="&#x152;" horiz-adv-x="1814" d="M82 680q0 152 37 274.5t97 201.5t142 132q152 98 349 98q94 0 202 -24h799v-340l-209 -14v82q0 35 -10 49t-49 14h-303v-350h473v-209h-473v-383h329q37 0 47.5 15.5t10.5 49.5v103l209 -14v-365h-824q-111 -27 -229 -27q-285 0 -441.5 180.5t-156.5 526.5zM338 690 q0 -270 111 -399q94 -111 262 -111q104 0 176 31v926q-94 41 -180 41q-186 0 -277.5 -141.5t-91.5 -346.5z" />
<glyph unicode="&#x153;" horiz-adv-x="1652" d="M68 514q0 152 45 264.5t118 171.5q141 111 314 111q246 0 336 -187q116 187 362 187q154 0 244 -75t90 -198.5t-55.5 -201.5t-149.5 -115q-164 -66 -379 -65q6 -111 68.5 -177.5t186.5 -66.5t255 92l78 -166q-41 -37 -138 -76t-222 -39q-264 0 -365 174 q-100 -176 -342 -176q-207 0 -326.5 136.5t-119.5 406.5zM315 543q0 -285 107 -361q47 -32 117 -32q113 0 168 96t55 264q0 371 -219 371q-115 0 -171.5 -91.5t-56.5 -246.5zM985 575h45t106.5 12.5t143.5 59.5t72 110.5t-34 96.5t-89 33q-113 0 -175.5 -92.5t-68.5 -219.5z " />
<glyph unicode="&#x178;" horiz-adv-x="1167" d="M10 1188v174h500v-166l-61 -6q-33 -2 -42.5 -24.5t7.5 -55.5l174 -356h8l223 426l-102 8v174h440v-166l-61 -6q-39 -4 -70 -62l-321 -608v-340l159 -6v-174h-577v166l108 6q60 4 60 57v291l-349 662zM262 1610.5q0 58.5 40 98.5t101.5 40t101.5 -40t40 -98.5t-40 -96 t-102.5 -37.5t-101.5 37.5t-39 96zM672 1610.5q0 58.5 40 98.5t101 40t101 -40t40 -98.5t-40 -96t-102 -37.5t-101 37.5t-39 96z" />
<glyph unicode="&#x2c6;" horiz-adv-x="1024" d="M184 1217l236 309q41 53 88 53q51 0 94 -57l232 -303l-84 -70l-242 213l-240 -211z" />
<glyph unicode="&#x2dc;" horiz-adv-x="1024" d="M174 1292q74 162 209 162q49 0 143.5 -28.5t138.5 -28.5t83 65l110 -59q-68 -178 -211 -178q-45 0 -135 27.5t-126 27.5t-58.5 -11t-55.5 -48z" />
<glyph unicode="&#x2000;" horiz-adv-x="929" />
<glyph unicode="&#x2001;" horiz-adv-x="1858" />
<glyph unicode="&#x2002;" horiz-adv-x="929" />
<glyph unicode="&#x2003;" horiz-adv-x="1858" />
<glyph unicode="&#x2004;" horiz-adv-x="619" />
<glyph unicode="&#x2005;" horiz-adv-x="464" />
<glyph unicode="&#x2006;" horiz-adv-x="309" />
<glyph unicode="&#x2007;" horiz-adv-x="309" />
<glyph unicode="&#x2008;" horiz-adv-x="232" />
<glyph unicode="&#x2009;" horiz-adv-x="371" />
<glyph unicode="&#x200a;" horiz-adv-x="103" />
<glyph unicode="&#x2010;" horiz-adv-x="659" d="M61 496v188h537v-188h-537z" />
<glyph unicode="&#x2011;" horiz-adv-x="659" d="M61 496v188h537v-188h-537z" />
<glyph unicode="&#x2012;" horiz-adv-x="659" d="M61 496v188h537v-188h-537z" />
<glyph unicode="&#x2013;" horiz-adv-x="1024" d="M0 500v170h1024v-170h-1024z" />
<glyph unicode="&#x2014;" horiz-adv-x="2048" d="M0 500v170h2048v-170h-2048z" />
<glyph unicode="&#x2018;" horiz-adv-x="450" d="M63 1083q0 43 23 82l195 338l129 -47l-119 -483q-125 14 -189 47q-39 20 -39 63z" />
<glyph unicode="&#x2019;" horiz-adv-x="434" d="M63 1020l119 483q125 -14 189 -47q39 -20 39 -63t-23 -82l-194 -338z" />
<glyph unicode="&#x201a;" horiz-adv-x="464" d="M55 -262l62 389q16 102 100 102q43 0 66.5 -13t39 -21.5t21.5 -12.5t24.5 -15t24.5 -15l-209 -453z" />
<glyph unicode="&#x201c;" horiz-adv-x="790" d="M63 1083q0 43 23 82l195 338l129 -47l-119 -483q-125 14 -189 47q-39 20 -39 63zM403 1083q0 43 23 82l195 338l129 -47l-119 -483q-125 14 -189 47q-39 20 -39 63z" />
<glyph unicode="&#x201d;" horiz-adv-x="774" d="M63 1020l119 483q125 -14 189 -47q39 -20 39 -63t-23 -82l-194 -338zM403 1020l119 483q125 -14 189 -47q39 -20 39 -63t-23 -82l-195 -338z" />
<glyph unicode="&#x201e;" horiz-adv-x="804" d="M55 -262l62 389q16 102 100 102q43 0 66.5 -13t39 -21.5t21.5 -12.5t24.5 -15t24.5 -15l-209 -453zM395 -262l62 389q16 102 100 102q43 0 66.5 -13t39 -21.5t21.5 -12.5t24.5 -15t24.5 -15l-209 -453z" />
<glyph unicode="&#x2022;" horiz-adv-x="1024" d="M274 634q0 114 67 183.5t171 69.5t171 -69.5t67 -183.5t-67 -183.5t-171 -69.5t-171 69.5t-67 183.5z" />
<glyph unicode="&#x2026;" horiz-adv-x="1488" d="M74 113.5q0 64.5 40 106.5t108.5 42t109.5 -40t41 -104.5t-39 -106.5t-110.5 -42t-110.5 40t-39 104.5zM602 113.5q0 64.5 40 106.5t108.5 42t109.5 -40t41 -104.5t-39 -106.5t-110.5 -42t-110.5 40t-39 104.5zM1114 113.5q0 64.5 40 106.5t108.5 42t109.5 -40t41 -104.5 t-39 -106.5t-110.5 -42t-110.5 40t-39 104.5z" />
<glyph unicode="&#x202f;" horiz-adv-x="371" />
<glyph unicode="&#x2039;" horiz-adv-x="667" d="M96 544q0 54 60 101l348 279l96 -93l-246 -292l232 -328l-97 -86l-356 330q-37 35 -37 89z" />
<glyph unicode="&#x203a;" horiz-adv-x="667" d="M70 836l96 92l348 -279q59 -47 59 -103.5t-41 -92.5l-352 -324l-96 86l231 324z" />
<glyph unicode="&#x205f;" horiz-adv-x="464" />
<glyph unicode="&#x20ac;" horiz-adv-x="1148" d="M82 422v168h829v-168h-430q25 -121 89.5 -180.5t188.5 -59.5t238 97l117 -164q-154 -139 -389 -140q-420 0 -498 447h-145zM82 707v167h145q23 231 168.5 351.5t345 120.5t357.5 -84v-287l-209 -14v96q0 31 -8.5 44t-44 27.5t-101.5 14.5q-113 0 -179.5 -76t-78.5 -193 h434v-167h-829z" />
<glyph unicode="&#x2122;" horiz-adv-x="1595" d="M80 1165v197h579v-197l-114 -8v41q0 18 -5 25.5t-26 7.5h-61v-445l82 -6v-106h-330v104l55 2q29 6 29 29v422h-70q-25 0 -24 -33v-41zM690 674v104l37 4q27 0 27 29l20 428l-63 4v119h264l155 -410h3l155 410h238v-115l-33 -2q-33 -6 -33 -37l27 -422l65 -4v-108h-272 v104l37 4q29 0 29 27l-19 332h-4l-152 -400h-106l-160 402h-2l-20 -357l67 -4v-108h-260z" />
<glyph unicode="&#x25fc;" horiz-adv-x="1034" d="M0 0v1034h1034v-1034h-1034z" />
<glyph unicode="&#xfb01;" horiz-adv-x="1202" d="M20 858v172h177v78q0 373 387 373q96 0 196.5 -28t161.5 -62l-63 -166q-139 72 -265 71q-174 0 -174 -170v-96h586v-860l117 -6v-164h-488v156l68 6q59 6 59 65v570q0 61 -53 61h-289v-686l131 -8v-164h-501v156l67 6q31 4 45.5 17t14.5 50v629h-177z" />
<glyph unicode="&#xfb02;" horiz-adv-x="1200" d="M20 858v172h177v78q0 143 65 248q37 57 114 91t204 34t249 -64l121 43h74v-1290l117 -6v-164h-488v156l68 6q59 6 59 65v631h-340v-686l131 -8v-164h-501v156l67 6q31 4 45.5 17.5t14.5 49.5v629h-177zM440 1030h340v217q-84 49 -180 49q-160 1 -160 -159v-107z" />
<glyph unicode="&#xfb03;" horiz-adv-x="1779" d="M20 858v172h177v78q0 145 55 246q70 127 289 127q113 0 207 -35l-50 -170q-68 20 -129 20q-129 0 -129 -170v-96h342v78q0 373 387 373q96 0 196.5 -28t162.5 -62l-64 -166q-139 72 -264 71q-174 0 -174 -170v-96h586v-860l117 -6v-164h-488v156l68 6q59 6 59 65v570 q0 61 -53 61h-289v-686l131 -8v-164h-502v156l68 6q31 4 45 17t14 50v629h-342v-686l131 -8v-164h-501v156l67 6q31 4 45.5 17.5t14.5 49.5v629h-177z" />
<glyph unicode="&#xfb04;" horiz-adv-x="1785" d="M20 858v172h177v78q0 145 55 246q70 127 289 127q113 0 207 -35l-50 -170q-68 20 -129 20q-129 0 -129 -170v-96h342v78q0 143 66 248q37 57 113.5 91t203.5 34t250 -64l121 43h74v-1290l116 -6v-164h-487v156l68 6q59 6 59 65v631h-340v-686l131 -8v-164h-502v156l68 6 q31 4 45 17.5t14 49.5v629h-342v-686l131 -8v-164h-501v156l67 6q31 4 45.5 17.5t14.5 49.5v629h-177zM1026 1030h340v217q-84 49 -180 49q-160 1 -160 -159v-107z" />
</font>
</defs>
</svg>
