<?xml version="1.0" standalone="no"?>
<!DOCTYPE svg PUBLIC "-//W3C//DTD SVG 1.1//EN" "http://www.w3.org/Graphics/SVG/1.1/DTD/svg11.dtd" >
<svg xmlns="http://www.w3.org/2000/svg" xmlns:xlink="http://www.w3.org/1999/xlink" version="1.1">
<metadata>
Created by FontForge 20160407 at Tue Aug 30 15:33:30 2016
 By Jimmy Warting
Copyright (c) 2008 by TypeTogether. All rights reserved.
</metadata>
<defs>
<font id="Bree-Thin" horiz-adv-x="535" >
  <font-face 
    font-family="Bree Th"
    font-weight="250"
    font-stretch="normal"
    units-per-em="1000"
    panose-1="2 0 5 3 0 0 0 2 0 4"
    ascent="720"
    descent="-280"
    x-height="492"
    cap-height="665"
    bbox="-129 -271 1000 888"
    underline-thickness="50"
    underline-position="-100"
    stemh="43"
    stemv="50"
    unicode-range="U+000D-FB04"
  />
<missing-glyph horiz-adv-x="500" 
 />
    <glyph glyph-name="ff" unicode="ff" horiz-adv-x="588" 
d="M420 452v-662h-50v662h-239v-662h-50v756c0 77 24 159 170 159c57 0 124 -21 159 -37c23 22 58 37 112 37c37 0 89 -13 111 -25l-17 -40c-24 11 -62 22 -100 22c-75 0 -96 -46 -96 -119v-51h163v-40h-163zM131 492h239v54c0 26 2 57 15 85c-46 18 -90 31 -140 31
c-87 0 -114 -40 -114 -119v-51z" />
    <glyph glyph-name="fi" unicode="fi" horiz-adv-x="500" 
d="M131 452v-662h-50v756c0 77 24 159 170 159c59 0 127 -22 162 -38l-17 -40c-50 20 -97 35 -151 35c-87 0 -114 -40 -114 -119v-51h289v-492h-50v452h-239z" />
    <glyph glyph-name="fl" unicode="fl" horiz-adv-x="575" 
d="M131 452v-662h-50v756c0 77 24 159 170 159c58 0 124 -21 168 -37v-530c0 -87 15 -114 70 -114c25 0 50 8 68 17l13 -37c-17 -11 -50 -21 -85 -21c-111 0 -116 70 -116 150v319h-238zM131 543v-51h238v145c-40 15 -80 25 -124 25c-87 0 -114 -40 -114 -119z" />
    <glyph glyph-name="ffi" unicode="ffi" horiz-adv-x="789" 
d="M251 705c56 0 126 -22 161 -38c26 23 66 38 128 38c59 0 127 -22 162 -38l-17 -40c-50 20 -97 35 -151 35c-87 0 -114 -40 -114 -119v-51h289v-492h-50v452h-239v-662h-50v662h-239v-662h-50v756c0 77 24 159 170 159zM131 492h239v54c0 26 2 57 15 85
c-46 18 -90 31 -140 31c-87 0 -114 -40 -114 -119v-51z" />
    <glyph glyph-name="ffl" unicode="ffl" horiz-adv-x="864" 
d="M412 667c25 23 65 38 128 38c58 0 124 -21 168 -37v-530c0 -87 15 -114 70 -114c25 0 50 8 68 17l13 -37c-17 -11 -50 -21 -85 -21c-111 0 -116 70 -116 150l1 319h-239v-662h-50v662h-239v-662h-50v756c0 77 24 159 170 159c56 0 126 -22 161 -38zM131 492h239v54
c0 26 2 57 15 85c-46 18 -90 31 -140 31c-87 0 -114 -40 -114 -119v-51zM420 543v-51h238v145c-40 15 -80 25 -124 25c-87 0 -114 -40 -114 -119z" />
    <glyph glyph-name="tt" unicode="tt" horiz-adv-x="620" 
d="M380 695h50v-203h148v-40h-148v-333c0 -72 28 -92 78 -92c38 0 65 16 82 27l19 -35c-28 -21 -69 -33 -104 -33c-109 0 -125 58 -125 137v329h-249v-333c0 -72 28 -92 78 -92c38 0 65 16 82 27l19 -35c-28 -21 -69 -33 -104 -33c-109 0 -125 58 -125 137v572h50v-203h249
v203z" />
    <glyph glyph-name=".notdef" horiz-adv-x="500" 
 />
    <glyph glyph-name=".null" horiz-adv-x="0" 
 />
    <glyph glyph-name=".null" horiz-adv-x="0" 
 />
    <glyph glyph-name="CR" unicode="&#xd;" horiz-adv-x="220" 
 />
    <glyph glyph-name="space" unicode=" " horiz-adv-x="220" 
 />
    <glyph glyph-name="quotesingle" unicode="'" horiz-adv-x="211" 
d="M72 665h66l-8 -220h-48z" />
    <glyph glyph-name="quotedbl" unicode="&#x22;" horiz-adv-x="351" 
d="M212 665h66l-8 -220h-48zM72 665h66l-8 -220h-48z" />
    <glyph glyph-name="numbersign" unicode="#" horiz-adv-x="542" 
d="M29 437h124l15 168h54l-15 -168h132l15 168h54l-15 -168h115v-47h-119l-16 -178h116v-48h-120l-14 -164h-54l14 164h-132l-14 -164h-54l14 164h-119v48h123l16 178h-120v47zM203 390l-16 -178h132l16 178h-132z" />
    <glyph glyph-name="ampersand" unicode="&#x26;" horiz-adv-x="784" 
d="M348 29c129 0 231 76 256 230h135v-43h-95c-30 -117 -122 -230 -301 -230c-213 0 -267 170 -267 288c0 139 94 266 243 266c71 0 130 -38 130 -111c0 -59 -35 -103 -84 -129c185 34 257 165 292 290l44 -13c-40 -134 -102 -232 -229 -285c-83 -35 -198 -49 -344 -47
c12 -146 98 -216 220 -216zM309 497c-76 0 -175 -62 -183 -210c150 -1 273 34 273 134c0 32 -19 76 -90 76z" />
    <glyph glyph-name="asterisk" unicode="*" horiz-adv-x="395" 
d="M199 625c-24 28 -28 60 -28 76c0 34 8 54 28 54s27 -20 27 -54c0 -17 -5 -48 -27 -76zM160 598c-34 -14 -65 -8 -80 -3c-33 11 -49 25 -43 44s27 19 60 9c16 -6 44 -20 63 -50zM176 556c3 -36 -12 -64 -22 -77c-20 -28 -38 -39 -55 -27c-16 12 -9 31 10 60
c11 13 33 35 67 44zM223 557c35 -9 57 -31 66 -45c21 -28 26 -48 9 -61c-16 -11 -32 1 -54 28c-9 15 -23 43 -21 78zM234 598c20 30 48 44 64 49c33 11 53 10 60 -11c6 -18 -10 -30 -43 -42c-17 -4 -48 -9 -81 4z" />
    <glyph glyph-name="comma" unicode="," horiz-adv-x="212" 
d="M158 72l-86 -193l-27 8c7 52 14 108 24 159c7 36 16 51 34 51c23 0 45 -15 55 -25z" />
    <glyph glyph-name="hyphen" unicode="-" horiz-adv-x="322" 
d="M30 255v48h262v-48h-262z" />
    <glyph glyph-name="period" unicode="." horiz-adv-x="201" 
d="M50 40c0 30 22 51 49 51c31 0 52 -20 52 -50c0 -31 -20 -53 -49 -53c-32 0 -52 20 -52 52z" />
    <glyph glyph-name="colon" unicode=":" horiz-adv-x="201" 
d="M50 40c0 30 22 51 49 51c31 0 52 -20 52 -50c0 -31 -20 -53 -49 -53c-32 0 -52 20 -52 52zM50 431c0 30 22 51 49 51c31 0 52 -20 52 -50c0 -31 -20 -53 -49 -53c-32 0 -52 20 -52 52z" />
    <glyph glyph-name="semicolon" unicode=";" horiz-adv-x="212" 
d="M157 72l-86 -193l-27 8c7 52 14 108 24 159c7 36 16 51 34 51c23 0 45 -15 55 -25zM64 431c0 30 22 51 49 51c31 0 52 -20 52 -50c0 -31 -20 -53 -49 -53c-32 0 -52 20 -52 52z" />
    <glyph glyph-name="question" unicode="?" horiz-adv-x="352" 
d="M255 551c0 67 -39 99 -111 99c-29 0 -62 -6 -86 -15l-9 42c28 11 65 18 101 18c110 0 156 -62 156 -138c0 -93 -50 -133 -103 -173c-46 -35 -66 -50 -66 -102v-110h-45c-2 15 -5 80 -5 104c0 83 32 104 84 142c41 30 84 64 84 133zM75 33c0 27 22 48 46 48
c28 0 49 -20 49 -47c0 -28 -20 -50 -46 -50c-29 0 -49 20 -49 49z" />
    <glyph glyph-name="exclam" unicode="!" horiz-adv-x="261" 
d="M103 530v136c0 15 4 29 30 29c29 0 32 -13 32 -30v-135l-14 -365h-34zM86 33c0 27 22 48 46 48c28 0 49 -20 49 -47c0 -28 -20 -50 -46 -50c-29 0 -49 20 -49 49z" />
    <glyph glyph-name="exclamdown" unicode="&#xa1;" horiz-adv-x="261" 
d="M166 -40v-136c0 -15 -4 -29 -30 -29c-29 0 -32 13 -32 30v135l14 365h34zM183 457c0 -27 -22 -48 -46 -48c-28 0 -49 20 -49 47c0 28 20 50 46 50c29 0 49 -20 49 -49z" />
    <glyph glyph-name="questiondown" unicode="&#xbf;" horiz-adv-x="352" 
d="M97 -61c0 -67 39 -99 111 -99c29 0 62 6 86 15l9 -42c-28 -11 -65 -18 -101 -18c-110 0 -156 62 -156 138c0 93 50 133 103 173c46 35 66 50 66 102v110h45c2 -15 5 -80 5 -104c0 -83 -32 -104 -84 -142c-41 -30 -84 -64 -84 -133zM277 457c0 -27 -22 -48 -46 -48
c-28 0 -49 20 -49 47c0 28 20 50 46 50c29 0 49 -20 49 -49z" />
    <glyph glyph-name="at" unicode="@" horiz-adv-x="957" 
d="M641 425v-347l4 -36c104 10 187 58 187 253c0 174 -101 312 -329 312c-239 0 -376 -169 -376 -395c0 -219 128 -360 347 -360c63 0 133 14 183 38l16 -43c-50 -23 -121 -38 -202 -38c-280 0 -396 182 -396 399c0 293 184 442 440 442c229 0 367 -136 367 -360
c0 -203 -108 -288 -256 -290h-23l-6 61l-2 1c-22 -34 -64 -68 -138 -68c-131 0 -174 96 -174 211c0 156 80 245 217 245c30 0 89 -8 141 -25zM591 147v241c-18 9 -60 19 -101 19c-112 0 -157 -87 -157 -208c0 -73 23 -164 128 -164c87 0 130 54 130 112z" />
    <glyph glyph-name="A" unicode="A" horiz-adv-x="595" 
d="M76 0h-51l237 665h66l242 -665h-53l-81 224h-281zM294 622l-123 -353h249z" />
    <glyph glyph-name="B" unicode="B" horiz-adv-x="562" 
d="M90 665h184c101 0 204 -31 204 -160c0 -77 -47 -122 -117 -146c88 -10 151 -68 151 -167c0 -127 -82 -192 -235 -192h-187v665zM140 335v-292h138c138 0 181 64 181 146c0 92 -65 146 -176 146h-143zM140 622v-244h112c124 0 174 51 174 125c0 101 -71 119 -166 119h-120
z" />
    <glyph glyph-name="C" unicode="C" horiz-adv-x="586" 
d="M343 32c65 0 121 24 179 76l30 -34c-58 -56 -133 -86 -211 -86c-172 0 -281 110 -281 345c0 257 156 344 287 344c64 0 148 -20 209 -103l-37 -28c-44 51 -98 86 -174 86c-144 0 -233 -114 -233 -295c0 -190 74 -305 231 -305z" />
    <glyph glyph-name="D" unicode="D" horiz-adv-x="641" 
d="M90 0v665h194c181 0 297 -104 297 -307c0 -266 -138 -358 -291 -358h-200zM140 622v-579h152c146 0 237 103 237 295c0 219 -108 284 -252 284h-137z" />
    <glyph glyph-name="E" unicode="E" horiz-adv-x="482" 
d="M90 0v665h353v-43h-303v-261h260v-43h-260v-275h310v-43h-360z" />
    <glyph glyph-name="F" unicode="F" horiz-adv-x="486" 
d="M90 665h380v-43h-330v-259h274v-43h-274v-320h-50v665z" />
    <glyph glyph-name="G" unicode="G" horiz-adv-x="615" 
d="M498 314h-188v43h238v-310c-54 -36 -130 -59 -212 -59c-171 0 -276 111 -276 343c0 259 147 346 276 346c62 0 149 -20 214 -101l-36 -30c-44 50 -100 86 -179 86c-140 0 -223 -114 -223 -295c0 -195 71 -306 231 -306c62 0 128 21 155 42v241z" />
    <glyph glyph-name="H" unicode="H" horiz-adv-x="669" 
d="M529 665h50v-665h-50v329h-389v-329h-50v665h50v-293h389v293z" />
    <glyph glyph-name="I" unicode="I" horiz-adv-x="230" 
d="M140 0h-50v665h50v-665z" />
    <glyph glyph-name="J" unicode="J" horiz-adv-x="410" 
d="M15 47l27 35c32 -27 71 -51 124 -51c81 0 104 50 104 109v525h50v-522c0 -98 -40 -155 -156 -155c-70 0 -131 35 -149 59z" />
    <glyph glyph-name="K" unicode="K" horiz-adv-x="557" 
d="M517 665l-192 -255l214 -410h-56l-194 367l-150 -196v-171h-49v665h49v-422l321 422h57z" />
    <glyph glyph-name="L" unicode="L" horiz-adv-x="478" 
d="M92 0v665h50v-622h306v-43h-356z" />
    <glyph glyph-name="M" unicode="M" horiz-adv-x="830" 
d="M414 142l217 523h72l37 -665h-49l-33 617l-222 -532h-50l-213 530l-34 -615h-49l39 665h73z" />
    <glyph glyph-name="N" unicode="N" horiz-adv-x="670" 
d="M530 665h50v-665h-66l-374 613v-613h-50v665h72l368 -605v605z" />
    <glyph glyph-name="O" unicode="O" horiz-adv-x="660" 
d="M600 331c0 -230 -105 -343 -272 -343s-268 114 -268 343c0 257 143 346 276 346c141 0 264 -91 264 -346zM112 333c0 -144 41 -301 224 -301c161 0 212 149 212 296c0 129 -45 304 -212 304c-164 0 -224 -152 -224 -299z" />
    <glyph glyph-name="P" unicode="P" horiz-adv-x="563" 
d="M140 252v-252h-50v665h207c135 0 216 -66 216 -194c0 -147 -99 -219 -239 -219h-134zM140 295h119c119 0 202 45 202 164c0 151 -93 163 -241 163h-80v-327z" />
    <glyph glyph-name="Q" unicode="Q" horiz-adv-x="643" 
d="M259 267l-12 -42c-82 21 -197 71 -197 219c0 136 99 233 248 233c148 0 273 -96 273 -312c0 -121 -37 -221 -92 -299c105 -96 165 -139 299 -161l-13 -43c-132 20 -201 70 -317 164c-61 -59 -138 -103 -224 -103c-109 0 -142 66 -142 117c0 85 80 120 152 120
c77 0 139 -23 209 -69c44 59 76 172 76 255c0 170 -56 287 -223 287c-106 0 -195 -70 -195 -184c0 -99 50 -151 158 -182zM410 54c-70 48 -128 62 -169 62c-66 0 -107 -24 -107 -75c0 -36 21 -75 91 -75c75 0 137 42 185 88z" />
    <glyph glyph-name="R" unicode="R" horiz-adv-x="578" 
d="M140 281v-281h-50v665h203c135 0 216 -50 216 -176c0 -123 -75 -171 -133 -187c40 -11 48 -25 70 -73l107 -229h-53l-100 208c-19 40 -39 73 -85 73h-175zM140 324h150c102 0 167 58 167 162c0 128 -79 136 -219 136h-98v-298z" />
    <glyph glyph-name="S" unicode="S" horiz-adv-x="528" 
d="M54 46l25 42c27 -19 92 -55 179 -55c76 0 161 23 161 142c0 92 -80 119 -165 146c-92 29 -190 60 -190 180c0 104 81 176 202 176c89 0 164 -43 207 -86l-30 -35c-52 47 -110 76 -178 76c-64 0 -148 -27 -148 -125c0 -90 74 -115 168 -144c92 -28 185 -63 185 -187
c0 -121 -77 -188 -215 -188c-95 0 -179 39 -201 58z" />
    <glyph glyph-name="T" unicode="T" horiz-adv-x="503" 
d="M20 665h463v-43h-208v-622h-50v622h-205v43z" />
    <glyph glyph-name="U" unicode="U" horiz-adv-x="629" 
d="M85 665h50v-465c0 -130 77 -169 183 -169c105 0 176 53 176 164v470h50v-483c0 -126 -94 -194 -231 -194c-150 0 -228 60 -228 212v465z" />
    <glyph glyph-name="V" unicode="V" horiz-adv-x="550" 
d="M305 0h-57l-228 665h55l203 -604l199 604h53z" />
    <glyph glyph-name="W" unicode="W" horiz-adv-x="808" 
d="M542 0l-141 538l-138 -538h-74l-154 665h51l142 -617l142 560h63l146 -560l143 617h51l-157 -665h-74z" />
    <glyph glyph-name="X" unicode="X" horiz-adv-x="552" 
d="M452 665h62l-205 -310l238 -355h-61l-213 313l-208 -313h-60l235 354l-205 311h64l177 -273z" />
    <glyph glyph-name="Y" unicode="Y" horiz-adv-x="503" 
d="M436 665h57l-214 -413v-252h-50v252l-219 413h58l187 -358z" />
    <glyph glyph-name="Z" unicode="Z" horiz-adv-x="477" 
d="M435 611l-348 -568h360v-43h-412v51l349 571h-342v43h393v-54z" />
    <glyph glyph-name="a" unicode="a" horiz-adv-x="533" 
d="M454 477v-397l7 -80h-48l-6 63l-2 1c-28 -40 -76 -78 -156 -78c-146 0 -195 106 -195 239c0 177 82 281 244 281c30 0 97 -8 156 -29zM404 157v285c-20 10 -67 21 -117 21c-137 0 -183 -105 -183 -245c0 -90 29 -191 149 -191c99 0 151 66 151 130z" />
    <glyph glyph-name="b" unicode="b" horiz-adv-x="532" 
d="M81 31v664h50v-257c37 45 90 68 149 68c125 0 198 -92 198 -232c0 -196 -78 -288 -212 -288c-63 0 -146 19 -185 45zM131 349v-288c26 -16 78 -33 134 -33c77 0 163 41 163 237c0 74 -27 199 -159 199c-73 0 -138 -49 -138 -115z" />
    <glyph glyph-name="c" unicode="c" horiz-adv-x="445" 
d="M270 29c43 0 88 14 128 47l25 -34c-28 -27 -86 -56 -154 -56c-142 0 -214 99 -214 263c0 204 123 257 209 257c54 0 121 -17 166 -83l-36 -27c-38 49 -81 67 -131 67c-89 0 -158 -63 -158 -213c0 -126 45 -221 165 -221z" />
    <glyph glyph-name="d" unicode="d" horiz-adv-x="533" 
d="M284 506c46 0 82 -9 120 -22v211h50v-611l6 -84h-47l-6 64l-3 1c-46 -61 -104 -79 -155 -79c-139 0 -194 110 -194 249c0 167 81 271 229 271zM404 151v284c-27 15 -71 29 -127 29c-119 0 -172 -91 -172 -221c0 -111 32 -215 148 -215c95 0 151 66 151 123z" />
    <glyph glyph-name="e" unicode="e" horiz-adv-x="450" 
d="M279 506c90 0 137 -49 137 -114c0 -169 -230 -175 -312 -168c3 -94 45 -195 165 -195c73 0 115 36 129 47l25 -35c-31 -26 -83 -55 -153 -55c-150 0 -215 106 -215 255c0 148 82 265 224 265zM365 381c0 54 -36 85 -88 85c-124 0 -169 -119 -172 -201
c54 -5 260 -1 260 116z" />
    <glyph glyph-name="f" unicode="f" horiz-adv-x="299" 
d="M131 452v-662h-50v756c0 63 16 159 152 159c37 0 89 -13 111 -25l-17 -40c-24 11 -62 22 -100 22c-75 0 -96 -46 -96 -119v-51h163v-40h-163z" />
    <glyph glyph-name="g" unicode="g" horiz-adv-x="536" 
d="M255 -263c-98 0 -150 46 -150 126c0 89 72 141 137 176c-91 6 -187 50 -187 221c0 167 95 246 225 246c52 0 123 -10 177 -33v-444c0 -45 -3 -95 -11 -133c-22 -100 -88 -159 -191 -159zM407 213v230c-36 14 -81 23 -132 23c-76 0 -170 -39 -170 -196
c0 -85 16 -196 156 -196c82 0 146 56 146 139zM155 -133c0 -63 42 -88 101 -88c115 0 150 103 150 223v85c-174 -80 -251 -141 -251 -220z" />
    <glyph glyph-name="h" unicode="h" horiz-adv-x="534" 
d="M131 0h-50v695h50v-275c42 61 107 86 166 86c104 0 158 -58 158 -170v-336h-50v316c0 78 -17 149 -120 149c-84 0 -154 -73 -154 -140v-325z" />
    <glyph glyph-name="i" unicode="i" horiz-adv-x="212" 
d="M132 0h-50v492h50v-492zM66 633c0 24 18 42 41 42c22 0 40 -18 40 -42c0 -26 -19 -43 -41 -43c-23 0 -40 17 -40 43z" />
    <glyph glyph-name="j" unicode="j" horiz-adv-x="212" 
d="M82 -75v567h50v-541c0 -94 -6 -174 -125 -174c-30 0 -77 10 -104 29l17 38c28 -16 55 -26 89 -26c49 0 73 25 73 107zM68 633c0 24 18 42 41 42c22 0 40 -18 40 -42c0 -26 -19 -43 -41 -43c-23 0 -40 17 -40 43z" />
    <glyph glyph-name="k" unicode="k" horiz-adv-x="474" 
d="M313 506c82 0 116 -54 116 -126c0 -67 -35 -144 -128 -184l124 -196h-58l-115 180c-35 -8 -75 -12 -121 -11v-169h-50v695h50v-339c23 72 86 150 182 150zM378 376c0 51 -21 88 -71 88c-94 0 -170 -144 -177 -252c169 -10 248 78 248 164z" />
    <glyph glyph-name="l" unicode="l" horiz-adv-x="288" 
d="M82 694h50v-553c0 -87 15 -114 70 -114c25 0 50 8 68 17l13 -37c-17 -11 -50 -21 -90 -21c-106 0 -111 70 -111 150v558z" />
    <glyph glyph-name="m" unicode="m" horiz-adv-x="833" 
d="M133 0h-50v426l-6 66h43l9 -76c36 59 98 90 157 90c69 0 119 -29 147 -101c32 68 97 101 160 101c105 0 161 -64 161 -176v-330h-50v312c0 79 -18 153 -120 153c-78 0 -140 -67 -140 -133v-332h-50v311c0 70 -11 154 -120 154c-81 0 -141 -71 -141 -140v-325z" />
    <glyph glyph-name="n" unicode="n" horiz-adv-x="534" 
d="M131 0h-50v426l-4 66h45l9 -77c40 60 101 91 166 91c104 0 158 -59 158 -171v-335h-50v313c0 83 -19 152 -117 152c-88 0 -157 -73 -157 -138v-327z" />
    <glyph glyph-name="o" unicode="o" horiz-adv-x="520" 
d="M259 27c109 0 157 104 157 217c0 125 -40 219 -152 219c-109 0 -159 -88 -159 -204c0 -103 23 -232 154 -232zM55 252c0 206 119 254 215 254c66 0 196 -21 196 -244c0 -198 -92 -276 -214 -276s-197 86 -197 266z" />
    <glyph glyph-name="p" unicode="p" horiz-adv-x="525" 
d="M130 32v-242h-50v689c66 17 118 27 168 27c157 0 222 -87 222 -254c0 -172 -74 -266 -195 -266c-57 0 -109 20 -145 46zM420 241c0 114 -23 222 -170 222c-40 0 -87 -7 -120 -19v-358c32 -32 95 -58 145 -58c77 0 145 53 145 213z" />
    <glyph glyph-name="q" unicode="q" horiz-adv-x="525" 
d="M446 473v-683h-50v271h-3c-36 -40 -83 -75 -161 -75c-118 0 -177 88 -177 248c0 177 86 272 231 272c46 0 96 -7 160 -33zM396 144v299c-30 12 -71 21 -111 21c-95 0 -180 -49 -180 -220c0 -92 8 -217 140 -217c96 0 151 74 151 117z" />
    <glyph glyph-name="r" unicode="r" horiz-adv-x="333" 
d="M131 322v-322h-50v434l-4 58h46l8 -76c16 47 65 90 127 90c33 0 62 -9 78 -19l-18 -42c-19 10 -44 18 -69 18c-70 0 -114 -67 -118 -141z" />
    <glyph glyph-name="s" unicode="s" horiz-adv-x="395" 
d="M36 32l22 38c27 -18 74 -43 136 -43c59 0 115 32 115 100c0 67 -51 87 -115 104c-72 19 -149 40 -149 137c0 96 76 138 157 138c68 0 124 -31 155 -65l-31 -33c-30 31 -74 57 -130 57c-48 0 -105 -24 -105 -93c0 -63 53 -81 117 -100c71 -21 149 -41 149 -140
c0 -94 -69 -146 -165 -146c-77 0 -138 29 -156 46z" />
    <glyph glyph-name="t" unicode="t" horiz-adv-x="321" 
d="M81 695h50v-203h148v-40h-148v-333c0 -72 28 -92 78 -92c38 0 65 16 82 27l19 -35c-28 -21 -69 -33 -104 -33c-109 0 -125 58 -125 137v572z" />
    <glyph glyph-name="u" unicode="u" horiz-adv-x="534" 
d="M404 492h50v-426l5 -66h-46l-9 74c-39 -62 -103 -88 -166 -88c-104 0 -158 55 -158 167v339h50v-317c0 -83 19 -148 121 -148c80 0 153 71 153 136v329z" />
    <glyph glyph-name="v" unicode="v" horiz-adv-x="510" 
d="M368 492h51c17 -59 33 -126 33 -206c0 -172 -70 -300 -221 -300c-99 0 -151 48 -151 171v335h50v-304c0 -81 4 -160 107 -160c123 0 165 128 165 245c0 96 -19 161 -34 219z" />
    <glyph glyph-name="w" unicode="w" horiz-adv-x="794" 
d="M650 492h49c18 -59 37 -122 37 -202c0 -177 -60 -304 -204 -304c-76 0 -119 42 -132 105c-46 -80 -106 -105 -170 -105c-97 0 -150 51 -150 164v342h50v-294c0 -85 2 -171 107 -171c82 0 145 70 145 142v323h50v-300c0 -83 6 -165 105 -165c136 0 151 165 151 258
c0 86 -21 148 -38 207z" />
    <glyph glyph-name="x" unicode="x" horiz-adv-x="425" 
d="M353 492h51l-161 -232l172 -260h-51l-149 223l-155 -223h-50l179 259l-156 233h53l131 -200z" />
    <glyph glyph-name="y" unicode="y" horiz-adv-x="532" 
d="M452 492v-500c0 -49 -6 -101 -19 -138c-27 -75 -85 -120 -178 -120c-98 0 -144 48 -144 122c0 85 69 144 114 172c-78 6 -145 42 -145 165v299h50v-279c0 -82 8 -148 132 -148c76 0 142 55 142 133v294h48zM161 -139c0 -57 36 -86 98 -86c105 0 143 89 143 212v89
c-141 -56 -241 -113 -241 -215z" />
    <glyph glyph-name="z" unicode="z" horiz-adv-x="383" 
d="M64 -108c0 -63 30 -116 105 -116c92 0 136 72 136 159c0 78 -31 121 -87 154c-115 -54 -154 -136 -154 -197zM353 492v-50l-235 -249l72 -35c130 -62 164 -125 164 -229c0 -125 -88 -194 -184 -194c-106 0 -156 60 -156 150c0 97 64 174 165 227c-34 15 -71 33 -106 50
v49l224 239h-272v42h328z" />
    <glyph glyph-name="bracketleft" unicode="[" horiz-adv-x="295" 
d="M110 -147v842h171v-46h-121v-750h121v-46h-171z" />
    <glyph glyph-name="bracketright" unicode="]" horiz-adv-x="295" 
d="M185 695v-842h-171v46h121v750h-121v46h171z" />
    <glyph glyph-name="parenleft" unicode="(" horiz-adv-x="301" 
d="M98 279c0 132 40 279 118 425l44 -24c-71 -138 -112 -263 -112 -404c0 -135 42 -268 109 -406l-45 -18c-73 143 -114 296 -114 427z" />
    <glyph glyph-name="parenright" unicode=")" horiz-adv-x="301" 
d="M203 279c0 -131 -41 -284 -114 -427l-45 18c67 138 109 271 109 406c0 141 -41 266 -112 404l44 24c78 -146 118 -293 118 -425z" />
    <glyph glyph-name="braceleft" unicode="{" horiz-adv-x="281" 
d="M61 266v31c53 15 59 41 59 126c0 38 -9 124 -9 177c0 66 31 102 90 102c20 0 45 -5 60 -9l-8 -39c-15 4 -30 6 -41 6c-44 0 -51 -21 -51 -72c0 -47 7 -136 7 -177c0 -69 -7 -111 -59 -130c53 -19 61 -52 61 -126c0 -41 -9 -138 -9 -185c0 -51 7 -78 51 -78
c11 0 26 2 41 6l8 -39c-15 -4 -40 -9 -60 -9c-62 0 -90 35 -90 108c0 46 9 128 9 183c0 68 -6 110 -59 125z" />
    <glyph glyph-name="braceright" unicode="}" horiz-adv-x="281" 
d="M220 266c-53 -15 -59 -57 -59 -125c0 -55 9 -137 9 -183c0 -73 -28 -108 -90 -108c-20 0 -45 5 -60 9l8 39c15 -4 30 -6 41 -6c44 0 51 27 51 78c0 47 -9 144 -9 185c0 74 8 107 61 126c-52 19 -59 61 -59 130c0 41 7 130 7 177c0 51 -7 72 -51 72c-11 0 -26 -2 -41 -6
l-8 39c15 4 40 9 60 9c59 0 90 -36 90 -102c0 -53 -9 -139 -9 -177c0 -85 6 -111 59 -126v-31z" />
    <glyph glyph-name="backslash" unicode="\" horiz-adv-x="381" 
d="M379 -77l-46 -19l-328 815l48 18z" />
    <glyph glyph-name="slash" unicode="/" horiz-adv-x="381" 
d="M51 -96l-46 19l326 814l48 -18z" />
    <glyph glyph-name="brokenbar" unicode="&#xa6;" horiz-adv-x="194" 
d="M70 407v340h54v-340h-54zM70 -88v378h54v-378h-54z" />
    <glyph glyph-name="bar" unicode="|" horiz-adv-x="192" 
d="M70 -88v835h52v-835h-52z" />
    <glyph glyph-name="asciicircum" unicode="^" horiz-adv-x="523" 
d="M473 309l-49 -8l-163 315l-165 -316l-46 11l183 346h59z" />
    <glyph glyph-name="underscore" unicode="_" horiz-adv-x="500" 
d="M0 -122v48h500v-48h-500z" />
    <glyph glyph-name="asciitilde" unicode="~" horiz-adv-x="561" 
d="M194 344c77 0 126 -78 179 -78c26 0 43 14 60 57l38 -18c-31 -79 -79 -82 -100 -82c-70 0 -127 77 -180 77c-27 0 -45 -21 -64 -59l-37 21c30 65 66 82 104 82z" />
    <glyph glyph-name="uni00A0" unicode="&#xa0;" horiz-adv-x="194" 
 />
    <glyph glyph-name="zero" unicode="0" 
d="M273 657c128 0 210 -86 210 -329c0 -233 -73 -338 -218 -338c-140 0 -213 96 -213 332c0 229 84 335 221 335zM268 33c95 0 163 61 163 293c0 226 -65 288 -162 288c-102 0 -165 -72 -165 -302c0 -216 64 -279 164 -279z" />
    <glyph glyph-name="one" unicode="1" horiz-adv-x="401" 
d="M83 43h131v548l-170 -91l-19 31l184 113h58l-4 -54v-547h127v-43h-307v43z" />
    <glyph glyph-name="two" unicode="2" horiz-adv-x="502" 
d="M88 541l-30 31c48 49 120 85 196 85c105 0 165 -63 165 -160c0 -74 -35 -128 -84 -186l-229 -268h354v-43h-411v43l232 276c63 75 86 107 86 176c0 78 -51 119 -121 119c-68 0 -122 -41 -158 -73z" />
    <glyph glyph-name="three" unicode="3" horiz-adv-x="513" 
d="M76 530l-32 30c55 57 133 97 214 97c120 0 164 -70 164 -148c0 -64 -24 -112 -81 -153c59 -52 92 -113 92 -180c0 -94 -63 -188 -207 -188c-74 0 -152 25 -177 46l20 41c38 -22 96 -44 161 -44c97 0 151 63 151 137c0 61 -23 111 -84 161c-36 -19 -97 -35 -114 -40
l-15 41c135 36 202 75 202 175c0 67 -37 109 -116 109c-64 0 -119 -29 -178 -84z" />
    <glyph glyph-name="four" unicode="4" horiz-adv-x="507" 
d="M359 445h32v-227h100v-42h-100v-176h-52v175h-295v48l206 430l41 -21l-198 -414h246v88z" />
    <glyph glyph-name="five" unicode="5" horiz-adv-x="485" 
d="M76 333l41 311h302v-43h-262l-31 -228c140 -3 296 -44 296 -197c0 -87 -50 -188 -208 -188c-81 0 -165 33 -185 52l20 40c33 -20 93 -49 167 -49c115 0 154 70 154 141c0 145 -173 159 -294 161z" />
    <glyph glyph-name="six" unicode="6" 
d="M362 666l10 -42c-162 -26 -243 -147 -251 -281c52 36 115 59 174 59c110 0 176 -78 176 -193c0 -113 -68 -222 -204 -222c-152 0 -201 136 -201 285c0 202 80 347 296 394zM118 295c-7 -133 33 -265 151 -265c91 0 150 72 150 179c0 87 -46 151 -133 151
c-60 0 -136 -35 -168 -65z" />
    <glyph glyph-name="seven" unicode="7" horiz-adv-x="433" 
d="M27 601v43h392v-44c-196 -174 -238 -379 -238 -573v-27h-52v35c0 180 49 386 229 566h-331z" />
    <glyph glyph-name="eight" unicode="8" horiz-adv-x="530" 
d="M73 150c0 110 88 170 142 195c-52 28 -119 70 -119 158c0 84 72 154 171 154c122 0 170 -74 170 -140c0 -78 -56 -134 -112 -174c81 -39 134 -96 134 -173c0 -90 -54 -182 -194 -182c-142 0 -192 87 -192 162zM407 166c0 86 -78 131 -143 158c-69 -28 -139 -84 -139 -169
c0 -63 47 -124 145 -124c88 0 137 54 137 135zM265 614c-73 0 -117 -54 -117 -110c0 -61 50 -107 129 -143c49 29 108 84 108 150c0 53 -40 103 -120 103z" />
    <glyph glyph-name="nine" unicode="9" 
d="M165 -22l-10 42c166 33 243 147 251 281c-52 -36 -115 -59 -174 -59c-110 0 -176 78 -176 193c0 113 68 222 204 222c152 0 201 -136 201 -285c0 -202 -80 -349 -296 -394zM409 349c7 133 -33 265 -151 265c-91 0 -150 -72 -150 -179c0 -87 46 -151 133 -151
c60 0 136 35 168 65z" />
    <glyph glyph-name="dollar" unicode="$" 
d="M288 -108h-47v116c-89 3 -166 40 -187 58l25 42c25 -18 83 -50 162 -55v272c-88 28 -176 60 -176 165c0 93 69 157 176 166v91h47v-91c79 -6 145 -46 185 -85l-30 -35c-46 41 -97 68 -155 74v-250c91 -27 182 -61 182 -174c0 -102 -65 -167 -182 -177v-117zM419 185
c0 71 -60 101 -131 125v-256c66 6 131 36 131 131zM117 497c0 -68 47 -97 124 -123v237c-59 -6 -124 -34 -124 -114z" />
    <glyph glyph-name="Euro" unicode="&#x20ac;" 
d="M451 398v-42h-409v42h122c-38 29 -55 61 -55 110c0 72 55 149 193 149c73 0 153 -25 223 -97l-31 -31c-48 50 -116 86 -192 86c-110 0 -141 -56 -141 -109c0 -81 62 -108 112 -108h178zM451 243v42h-409v-42h125c-38 -29 -58 -70 -58 -119c0 -76 54 -140 194 -140
c68 0 144 16 220 80l-25 35c-57 -49 -128 -73 -192 -73c-114 0 -144 52 -144 105c0 85 61 112 111 112h178z" />
    <glyph glyph-name="cent" unicode="&#xa2;" 
d="M318 -60h-50v116c-116 17 -174 113 -174 261c0 177 93 240 174 254v114h50v-112c51 -3 110 -22 151 -82l-36 -27c-34 44 -72 63 -115 66v-434c40 2 82 16 119 47l25 -34c-27 -26 -81 -54 -144 -56v-113zM144 318c0 -111 34 -198 124 -218v427c-72 -14 -124 -79 -124 -209
z" />
    <glyph glyph-name="sterling" unicode="&#xa3;" horiz-adv-x="515" 
d="M26 165v43h121l60 275c33 149 105 174 179 174c55 0 101 -22 129 -40l-23 -37c-25 16 -66 34 -111 34c-82 0 -108 -51 -128 -142l-58 -264h192v-42h-200l-28 -125c-15 -70 -46 -105 -80 -134l1 -2c20 5 44 9 62 9c65 0 110 -27 193 -27c31 0 68 3 113 12l-6 -42
c-43 -8 -80 -11 -107 -11c-95 0 -131 26 -211 26c-28 0 -79 -8 -114 -22v42c54 32 82 72 98 142l30 131h-112z" />
    <glyph glyph-name="yen" unicode="&#xa5;" horiz-adv-x="504" 
d="M459 356v-44h-176v-93h176v-44h-176v-175h-48v175h-181v44h181v93h-181v44h156l-164 288h56l158 -285l151 285h54l-158 -288h152z" />
    <glyph glyph-name="florin" unicode="&#x192;" horiz-adv-x="490" 
d="M240 347l-63 -363c-22 -129 -51 -194 -172 -194c-38 0 -81 10 -115 25l17 39c30 -13 69 -22 102 -22c68 0 99 39 110 104l71 411h-97l7 42h97l15 87c20 116 49 181 168 181c40 0 83 -10 117 -25l-17 -40c-30 13 -69 23 -102 23c-71 0 -97 -37 -109 -104l-22 -122h162
l-8 -42h-161z" />
    <glyph glyph-name="section" unicode="&#xa7;" horiz-adv-x="537" 
d="M84 378l45 1c-2 -18 -3 -33 -3 -48c0 -109 53 -145 123 -186c86 -50 184 -80 184 -194c0 -55 -32 -152 -173 -152c-66 0 -129 26 -155 43l19 42c27 -18 88 -41 133 -41c92 0 127 50 127 108c0 76 -62 103 -146 148c-78 41 -158 92 -158 228c0 16 2 33 4 51zM455 76l-44 1
c1 10 1 19 1 28c0 119 -60 172 -133 210c-85 44 -173 81 -173 187c0 56 32 155 176 155c63 0 126 -26 152 -43l-19 -42c-27 18 -88 41 -133 41c-92 0 -127 -50 -127 -108c0 -81 78 -114 157 -158c88 -49 145 -103 145 -232c0 -12 -1 -25 -2 -39z" />
    <glyph glyph-name="copyright" unicode="&#xa9;" horiz-adv-x="813" 
d="M753 332c0 -200 -145 -352 -351 -352c-212 0 -342 144 -342 346c0 195 141 350 342 350c207 0 351 -155 351 -344zM703 329c0 174 -129 305 -300 305c-175 0 -293 -134 -293 -308c0 -185 122 -304 293 -304c173 0 300 130 300 307zM409 172c41 0 73 14 102 39l26 -32
c-30 -26 -73 -49 -128 -49c-118 0 -177 79 -177 201c0 155 101 199 173 199c49 0 105 -23 141 -74l-33 -24c-31 38 -66 56 -107 56c-73 0 -124 -43 -124 -156c0 -97 40 -160 127 -160z" />
    <glyph glyph-name="registered" unicode="&#xae;" horiz-adv-x="463" 
d="M284 471l39 -84h-36l-33 71c-5 11 -9 14 -17 14h-45v-85h-30v211h79c40 0 65 -21 65 -55c0 -31 -17 -49 -35 -57c7 -3 11 -10 13 -15zM192 500h45c25 0 36 17 36 39c0 28 -20 33 -46 33h-35v-72zM423 492c0 -110 -80 -188 -194 -188c-117 0 -189 78 -189 186
c0 107 78 187 189 187c114 0 194 -80 194 -185zM386 490c0 91 -66 156 -157 156c-92 0 -152 -65 -152 -156c0 -92 64 -156 152 -156c92 0 157 62 157 156z" />
    <glyph glyph-name="trademark" unicode="&#x2122;" horiz-adv-x="673" 
d="M10 665h250v-42h-103v-294h-48v294h-99v42zM562 665h48l23 -336h-44l-15 264l-93 -247h-40l-88 244l-17 -261h-43l24 336h52l94 -266z" />
    <glyph glyph-name="ordfeminine" unicode="&#xaa;" horiz-adv-x="394" 
d="M334 587v-252l10 -73h-50l-6 40h-3c-27 -30 -60 -46 -99 -46c-92 0 -134 76 -134 163c0 118 60 189 169 189c27 0 73 -6 113 -21zM284 359v195c-15 6 -42 12 -70 12c-78 0 -112 -65 -112 -137c0 -77 29 -131 92 -131c55 0 90 38 90 61z" />
    <glyph glyph-name="ordmasculine" unicode="&#xba;" horiz-adv-x="395" 
d="M196 299c66 0 99 60 99 134c0 79 -24 136 -101 136c-68 0 -94 -66 -94 -121c0 -78 22 -149 96 -149zM50 431c0 145 83 180 151 180c84 0 144 -52 144 -166c0 -122 -53 -189 -151 -189c-99 0 -144 76 -144 175z" />
    <glyph glyph-name="guillemotleft" unicode="&#xab;" horiz-adv-x="462" 
d="M256 407l-143 -142l135 -167l-25 -22c-47 44 -124 122 -150 156c-13 17 -16 25 -16 32c0 12 11 24 23 36c42 40 99 86 154 130zM422 407l-143 -142l135 -167l-25 -22c-47 44 -124 122 -150 156c-13 17 -16 25 -16 32c0 12 11 24 23 36c42 40 99 86 154 130z" />
    <glyph glyph-name="guillemotright" unicode="&#xbb;" horiz-adv-x="462" 
d="M183 265l-143 142l22 23c55 -44 112 -90 154 -130c12 -12 23 -24 23 -36c0 -7 -3 -15 -16 -32c-26 -34 -103 -112 -150 -156l-25 22zM349 265l-143 142l22 23c55 -44 112 -90 154 -130c12 -12 23 -24 23 -36c0 -7 -3 -15 -16 -32c-26 -34 -103 -112 -150 -156l-25 22z
" />
    <glyph glyph-name="guilsinglleft" unicode="&#x2039;" horiz-adv-x="296" 
d="M256 407l-143 -142l135 -167l-25 -22c-47 44 -124 122 -150 156c-13 17 -16 25 -16 32c0 12 11 24 23 36c42 40 99 86 154 130z" />
    <glyph glyph-name="guilsinglright" unicode="&#x203a;" horiz-adv-x="296" 
d="M183 265l-143 142l22 23c55 -44 112 -90 154 -130c12 -12 23 -24 23 -36c0 -7 -3 -15 -16 -32c-26 -34 -103 -112 -150 -156l-25 22z" />
    <glyph glyph-name="quoteleft" unicode="&#x2018;" horiz-adv-x="180" 
d="M100 502c-20 0 -60 3 -60 33c0 11 4 26 14 48c18 39 46 92 74 140l34 -12z" />
    <glyph glyph-name="quoteright" unicode="&#x2019;" horiz-adv-x="172" 
d="M91 721c23 0 61 -5 61 -32c0 -17 -10 -43 -30 -85c-13 -28 -33 -63 -57 -105l-35 10z" />
    <glyph glyph-name="quotesinglbase" unicode="&#x201a;" horiz-adv-x="209" 
d="M164 75l-93 -197l-33 11c12 61 20 104 32 151c10 40 20 56 39 56c18 0 43 -13 55 -21z" />
    <glyph glyph-name="quotedblleft" unicode="&#x201c;" horiz-adv-x="323" 
d="M100 502c-20 0 -60 3 -60 33c0 11 4 26 14 48c18 39 46 92 74 140l34 -12zM243 502c-20 0 -60 3 -60 33c0 11 4 26 14 48c18 39 46 92 74 140l34 -12z" />
    <glyph glyph-name="quotedblright" unicode="&#x201d;" horiz-adv-x="315" 
d="M91 721c23 0 61 -5 61 -32c0 -17 -10 -43 -30 -85c-13 -28 -33 -63 -57 -105l-35 10zM234 721c23 0 61 -5 61 -32c0 -17 -10 -43 -30 -85c-13 -28 -33 -63 -57 -105l-35 10z" />
    <glyph glyph-name="quotedblbase" unicode="&#x201e;" horiz-adv-x="352" 
d="M164 75l-93 -197l-33 11c12 61 20 104 32 151c10 40 20 56 39 56c18 0 43 -13 55 -21zM307 75l-93 -197l-33 11c12 61 20 104 32 151c10 40 20 56 39 56c18 0 43 -13 55 -21z" />
    <glyph glyph-name="dagger" unicode="&#x2020;" horiz-adv-x="396" 
d="M231 466c28 24 75 28 91 28c34 0 54 -8 54 -28s-20 -27 -54 -27c-17 0 -63 5 -91 27zM199 509c-24 28 -28 75 -28 91c0 34 8 54 28 54s27 -20 27 -54c0 -17 -5 -63 -27 -91zM165 467c-28 -24 -75 -28 -91 -28c-34 0 -54 8 -54 28s20 27 54 27c17 0 63 -5 91 -27zM171 -78
v418c0 17 5 63 27 91c24 -28 28 -75 28 -91v-418c0 -17 -5 -63 -27 -91c-24 28 -28 75 -28 91z" />
    <glyph glyph-name="daggerdbl" unicode="&#x2021;" horiz-adv-x="398" 
d="M231 466c28 24 75 28 91 28c34 0 54 -8 54 -28s-20 -27 -54 -27c-17 0 -63 5 -91 27zM199 509c-24 28 -28 75 -28 91c0 34 8 54 28 54s27 -20 27 -54c0 -17 -5 -63 -27 -91zM165 467c-28 -24 -75 -28 -91 -28c-34 0 -54 8 -54 28s20 27 54 27c17 0 63 -5 91 -27zM171 130
v210c0 17 5 63 27 91c24 -28 28 -75 28 -91v-210c0 -17 -5 -63 -27 -91c-24 28 -28 75 -28 91zM167 -2c-28 -24 -75 -28 -91 -28c-34 0 -54 8 -54 28s20 27 54 27c17 0 63 -5 91 -27zM199 -45c24 -28 28 -75 28 -91c0 -34 -8 -54 -28 -54s-27 20 -27 54c0 17 5 63 27 91z
M233 -3c28 24 75 28 91 28c34 0 54 -8 54 -28s-20 -27 -54 -27c-17 0 -63 5 -91 27z" />
    <glyph glyph-name="bullet" unicode="&#x2022;" horiz-adv-x="500" 
d="M152 304c0 63 42 104 98 104c57 0 98 -41 98 -104c0 -64 -41 -105 -98 -105c-56 0 -98 41 -98 105z" />
    <glyph glyph-name="ellipsis" unicode="&#x2026;" horiz-adv-x="778" 
d="M89 40c0 30 22 51 49 51c31 0 52 -20 52 -50c0 -31 -20 -53 -49 -53c-32 0 -52 20 -52 52zM348 40c0 30 22 51 49 51c31 0 52 -20 52 -50c0 -31 -20 -53 -49 -53c-32 0 -52 20 -52 52zM599 40c0 30 22 51 49 51c31 0 52 -20 52 -50c0 -31 -20 -53 -49 -53
c-32 0 -52 20 -52 52z" />
    <glyph glyph-name="paragraph" unicode="&#xb6;" horiz-adv-x="472" 
d="M332 44v579h-77v-402c-102 7 -183 79 -183 207c0 181 100 237 222 237h88v-600c0 -165 -65 -228 -203 -266l-13 41c122 36 166 94 166 204z" />
    <glyph glyph-name="periodcentered" unicode="&#xb7;" horiz-adv-x="301" 
d="M100 308c0 30 22 51 49 51c31 0 52 -20 52 -50c0 -31 -20 -53 -49 -53c-32 0 -52 20 -52 52z" />
    <glyph glyph-name="uni00AD" unicode="&#xad;" horiz-adv-x="322" 
d="M54 276v48h212v-48h-212z" />
    <glyph glyph-name="endash" unicode="&#x2013;" horiz-adv-x="500" 
d="M0 276v48h500v-48h-500z" />
    <glyph glyph-name="emdash" unicode="&#x2014;" horiz-adv-x="1000" 
d="M0 276v48h1000v-48h-1000z" />
    <glyph glyph-name="hyphen.case" horiz-adv-x="322" 
d="M30 298v48h262v-48h-262z" />
    <glyph glyph-name="Agrave" unicode="&#xc0;" horiz-adv-x="595" 
d="M76 0h-51l237 665h66l242 -665h-53l-81 224h-281zM294 622l-123 -353h249zM227 888l147 -143l-18 -24c-70 43 -115 72 -140 91c-10 8 -28 20 -28 36c0 18 19 29 39 40z" />
    <glyph glyph-name="Aacute" unicode="&#xc1;" horiz-adv-x="595" 
d="M76 0h-51l237 665h66l242 -665h-53l-81 224h-281zM294 622l-123 -353h249zM221 745l147 143c20 -11 39 -22 39 -40c0 -16 -18 -28 -28 -36c-25 -19 -70 -48 -140 -91z" />
    <glyph glyph-name="Acircumflex" unicode="&#xc2;" horiz-adv-x="595" 
d="M76 0h-51l237 665h66l242 -665h-53l-81 224h-281zM294 622l-123 -353h249zM172 723l-21 16c47 63 79 94 103 116c12 11 25 23 42 23c16 0 28 -7 42 -20c28 -27 58 -57 105 -118l-21 -17l-126 97z" />
    <glyph glyph-name="Atilde" unicode="&#xc3;" horiz-adv-x="595" 
d="M76 0h-51l237 665h66l242 -665h-53l-81 224h-281zM294 622l-123 -353h249zM168 743l-6 47c23 18 53 26 78 26c49 0 84 -25 127 -25c20 0 41 7 58 17l7 -50c-20 -10 -38 -17 -65 -17c-42 0 -92 21 -129 21c-25 0 -46 -6 -70 -19z" />
    <glyph glyph-name="Adieresis" unicode="&#xc4;" horiz-adv-x="595" 
d="M76 0h-51l237 665h66l242 -665h-53l-81 224h-281zM294 622l-123 -353h249zM163 780c0 26 19 45 44 45c24 0 43 -19 43 -45c0 -28 -20 -46 -44 -46c-25 0 -43 18 -43 46zM341 780c0 26 19 45 44 45c24 0 43 -19 43 -45c0 -28 -20 -46 -44 -46c-25 0 -43 18 -43 46z" />
    <glyph glyph-name="Aring" unicode="&#xc5;" horiz-adv-x="595" 
d="M210 742c0 50 33 88 86 88c54 0 86 -38 86 -83c0 -40 -20 -71 -54 -83l242 -664h-53l-81 224h-281l-79 -224h-51l236 663c-33 12 -51 42 -51 79zM294 622l-123 -353h249zM253 742c0 -30 13 -48 43 -48s43 21 43 48c0 32 -12 53 -43 53c-32 0 -43 -21 -43 -53z" />
    <glyph glyph-name="AE" unicode="&#xc6;" horiz-adv-x="796" 
d="M66 0h-51l237 665h506v-43h-425l95 -261h286v-43h-270l100 -275h220v-43h-257l-81 224h-281zM284 622l-123 -353h249z" />
    <glyph glyph-name="Ccedilla" unicode="&#xc7;" horiz-adv-x="586" 
d="M343 32c65 0 121 24 179 76l30 -34c-58 -56 -132 -85 -209 -86l-17 -65c45 -2 80 -21 80 -70c0 -52 -42 -83 -98 -83c-21 0 -54 6 -76 18l11 34c15 -6 42 -13 65 -13c44 0 52 23 52 42c0 32 -27 42 -88 42l30 97c-149 16 -242 126 -242 343c0 257 156 344 287 344
c64 0 148 -20 209 -103l-37 -28c-44 51 -98 86 -174 86c-144 0 -233 -114 -233 -295c0 -190 74 -305 231 -305z" />
    <glyph glyph-name="Egrave" unicode="&#xc8;" horiz-adv-x="482" 
d="M90 0v665h353v-43h-303v-261h260v-43h-260v-275h310v-43h-360zM195 888l147 -143l-18 -24c-70 43 -115 72 -140 91c-10 8 -28 20 -28 36c0 18 19 29 39 40z" />
    <glyph glyph-name="Eacute" unicode="&#xc9;" horiz-adv-x="482" 
d="M90 0v665h353v-43h-303v-261h260v-43h-260v-275h310v-43h-360zM197 745l147 143c20 -11 39 -22 39 -40c0 -16 -18 -28 -28 -36c-25 -19 -70 -48 -140 -91z" />
    <glyph glyph-name="Ecircumflex" unicode="&#xca;" horiz-adv-x="482" 
d="M90 0v665h353v-43h-303v-261h260v-43h-260v-275h310v-43h-360zM142 723l-21 16c47 63 79 94 103 116c12 11 25 23 42 23c16 0 28 -7 42 -20c28 -27 58 -57 105 -118l-21 -17l-126 97z" />
    <glyph glyph-name="Edieresis" unicode="&#xcb;" horiz-adv-x="482" 
d="M90 0v665h353v-43h-303v-261h260v-43h-260v-275h310v-43h-360zM134 780c0 26 19 45 44 45c24 0 43 -19 43 -45c0 -28 -20 -46 -44 -46c-25 0 -43 18 -43 46zM312 780c0 26 19 45 44 45c24 0 43 -19 43 -45c0 -28 -20 -46 -44 -46c-25 0 -43 18 -43 46z" />
    <glyph glyph-name="Igrave" unicode="&#xcc;" horiz-adv-x="230" 
d="M140 0h-50v665h50v-665zM50 888l147 -143l-18 -24c-70 43 -115 72 -140 91c-10 8 -28 20 -28 36c0 18 19 29 39 40z" />
    <glyph glyph-name="Iacute" unicode="&#xcd;" horiz-adv-x="230" 
d="M140 0h-50v665h50v-665zM41 745l147 143c20 -11 39 -22 39 -40c0 -16 -18 -28 -28 -36c-25 -19 -70 -48 -140 -91z" />
    <glyph glyph-name="Icircumflex" unicode="&#xce;" horiz-adv-x="230" 
d="M140 0h-50v665h50v-665zM-6 723l-21 16c47 63 79 94 103 116c12 11 25 23 42 23c16 0 28 -7 42 -20c28 -27 58 -57 105 -118l-21 -17l-126 97z" />
    <glyph glyph-name="Idieresis" unicode="&#xcf;" horiz-adv-x="230" 
d="M140 0h-50v665h50v-665zM-18 780c0 26 19 45 44 45c24 0 43 -19 43 -45c0 -28 -20 -46 -44 -46c-25 0 -43 18 -43 46zM160 780c0 26 19 45 44 45c24 0 43 -19 43 -45c0 -28 -20 -46 -44 -46c-25 0 -43 18 -43 46z" />
    <glyph glyph-name="Eth" unicode="&#xd0;" horiz-adv-x="641" 
d="M19 312v48h71v305h194c181 0 297 -104 297 -307c0 -266 -138 -358 -291 -358h-200v312h-71zM140 622v-262h205v-48h-205v-269h152c146 0 237 103 237 295c0 219 -108 284 -252 284h-137z" />
    <glyph glyph-name="Ntilde" unicode="&#xd1;" horiz-adv-x="670" 
d="M530 665h50v-665h-66l-374 613v-613h-50v665h72l368 -605v605zM216 743l-6 47c23 18 53 26 78 26c49 0 84 -25 127 -25c20 0 41 7 58 17l7 -50c-20 -10 -38 -17 -65 -17c-42 0 -92 21 -129 21c-25 0 -46 -6 -70 -19z" />
    <glyph glyph-name="Ograve" unicode="&#xd2;" horiz-adv-x="660" 
d="M600 331c0 -230 -105 -343 -272 -343s-268 114 -268 343c0 257 143 346 276 346c141 0 264 -91 264 -346zM112 333c0 -144 41 -301 224 -301c161 0 212 149 212 296c0 129 -45 304 -212 304c-164 0 -224 -152 -224 -299zM275 888l147 -143l-18 -24
c-70 43 -115 72 -140 91c-10 8 -28 20 -28 36c0 18 19 29 39 40z" />
    <glyph glyph-name="Oacute" unicode="&#xd3;" horiz-adv-x="660" 
d="M600 331c0 -230 -105 -343 -272 -343s-268 114 -268 343c0 257 143 346 276 346c141 0 264 -91 264 -346zM112 333c0 -144 41 -301 224 -301c161 0 212 149 212 296c0 129 -45 304 -212 304c-164 0 -224 -152 -224 -299zM261 745l147 143c20 -11 39 -22 39 -40
c0 -16 -18 -28 -28 -36c-25 -19 -70 -48 -140 -91z" />
    <glyph glyph-name="Ocircumflex" unicode="&#xd4;" horiz-adv-x="660" 
d="M600 331c0 -230 -105 -343 -272 -343s-268 114 -268 343c0 257 143 346 276 346c141 0 264 -91 264 -346zM112 333c0 -144 41 -301 224 -301c161 0 212 149 212 296c0 129 -45 304 -212 304c-164 0 -224 -152 -224 -299zM211 723l-21 16c47 63 79 94 103 116
c12 11 25 23 42 23c16 0 28 -7 42 -20c28 -27 58 -57 105 -118l-21 -17l-126 97z" />
    <glyph glyph-name="Otilde" unicode="&#xd5;" horiz-adv-x="660" 
d="M600 331c0 -230 -105 -343 -272 -343s-268 114 -268 343c0 257 143 346 276 346c141 0 264 -91 264 -346zM112 333c0 -144 41 -301 224 -301c161 0 212 149 212 296c0 129 -45 304 -212 304c-164 0 -224 -152 -224 -299zM212 743l-6 47c23 18 53 26 78 26
c49 0 84 -25 127 -25c20 0 41 7 58 17l7 -50c-20 -10 -38 -17 -65 -17c-42 0 -92 21 -129 21c-25 0 -46 -6 -70 -19z" />
    <glyph glyph-name="Odieresis" unicode="&#xd6;" horiz-adv-x="660" 
d="M600 331c0 -230 -105 -343 -272 -343s-268 114 -268 343c0 257 143 346 276 346c141 0 264 -91 264 -346zM112 333c0 -144 41 -301 224 -301c161 0 212 149 212 296c0 129 -45 304 -212 304c-164 0 -224 -152 -224 -299zM205 780c0 26 19 45 44 45c24 0 43 -19 43 -45
c0 -28 -20 -46 -44 -46c-25 0 -43 18 -43 46zM383 780c0 26 19 45 44 45c24 0 43 -19 43 -45c0 -28 -20 -46 -44 -46c-25 0 -43 18 -43 46z" />
    <glyph glyph-name="Oslash" unicode="&#xd8;" horiz-adv-x="660" 
d="M148 -82l-43 20l52 108c-62 56 -97 150 -97 285c0 257 143 346 276 346c41 0 81 -8 116 -25l42 85l45 -19l-46 -93c64 -51 107 -144 107 -294c0 -230 -105 -343 -272 -343c-50 0 -94 10 -131 30zM548 328c0 84 -19 187 -78 249l-252 -515c31 -19 69 -30 118 -30
c161 0 212 149 212 296zM112 333c0 -88 15 -180 68 -239l251 514c-26 15 -58 24 -95 24c-164 0 -224 -152 -224 -299z" />
    <glyph glyph-name="Ugrave" unicode="&#xd9;" horiz-adv-x="629" 
d="M85 665h50v-465c0 -130 77 -169 183 -169c105 0 176 53 176 164v470h50v-483c0 -126 -94 -194 -231 -194c-150 0 -228 60 -228 212v465zM245 888l147 -143l-18 -24c-70 43 -115 72 -140 91c-10 8 -28 20 -28 36c0 18 19 29 39 40z" />
    <glyph glyph-name="Uacute" unicode="&#xda;" horiz-adv-x="629" 
d="M85 665h50v-465c0 -130 77 -169 183 -169c105 0 176 53 176 164v470h50v-483c0 -126 -94 -194 -231 -194c-150 0 -228 60 -228 212v465zM252 745l147 143c20 -11 39 -22 39 -40c0 -16 -18 -28 -28 -36c-25 -19 -70 -48 -140 -91z" />
    <glyph glyph-name="Ucircumflex" unicode="&#xdb;" horiz-adv-x="629" 
d="M85 665h50v-465c0 -130 77 -169 183 -169c105 0 176 53 176 164v470h50v-483c0 -126 -94 -194 -231 -194c-150 0 -228 60 -228 212v465zM186 723l-21 16c47 63 79 94 103 116c12 11 25 23 42 23c16 0 28 -7 42 -20c28 -27 58 -57 105 -118l-21 -17l-126 97z" />
    <glyph glyph-name="Udieresis" unicode="&#xdc;" horiz-adv-x="629" 
d="M85 665h50v-465c0 -130 77 -169 183 -169c105 0 176 53 176 164v470h50v-483c0 -126 -94 -194 -231 -194c-150 0 -228 60 -228 212v465zM184 780c0 26 19 45 44 45c24 0 43 -19 43 -45c0 -28 -20 -46 -44 -46c-25 0 -43 18 -43 46zM362 780c0 26 19 45 44 45
c24 0 43 -19 43 -45c0 -28 -20 -46 -44 -46c-25 0 -43 18 -43 46z" />
    <glyph glyph-name="Yacute" unicode="&#xdd;" horiz-adv-x="503" 
d="M436 665h57l-214 -413v-252h-50v252l-219 413h58l187 -358zM205 745l147 143c20 -11 39 -22 39 -40c0 -16 -18 -28 -28 -36c-25 -19 -70 -48 -140 -91z" />
    <glyph glyph-name="Thorn" unicode="&#xde;" horiz-adv-x="566" 
d="M138 144v-144h-50v665h50v-108h157c135 0 216 -66 216 -194c0 -147 -99 -219 -239 -219h-134zM138 187h119c119 0 202 45 202 164c0 151 -93 163 -241 163h-80v-327z" />
    <glyph glyph-name="germandbls" unicode="&#xdf;" horiz-adv-x="545" 
d="M353 -14c-50 0 -122 17 -157 45l22 38c32 -23 85 -42 135 -42c59 0 107 31 107 101c0 131 -184 127 -184 239c0 90 141 128 141 210c0 49 -46 85 -140 85c-92 0 -146 -43 -146 -139v-733h-50v725c0 114 55 190 206 190c136 0 180 -64 180 -127c0 -96 -143 -141 -143 -203
c0 -78 185 -94 185 -241c0 -102 -77 -148 -156 -148z" />
    <glyph glyph-name="agrave" unicode="&#xe0;" horiz-adv-x="533" 
d="M454 477v-397l7 -80h-48l-6 63l-2 1c-28 -40 -76 -78 -156 -78c-146 0 -195 106 -195 239c0 177 82 281 244 281c30 0 97 -8 156 -29zM404 157v285c-20 10 -67 21 -117 21c-137 0 -183 -105 -183 -245c0 -90 29 -191 149 -191c99 0 151 66 151 130zM244 758l106 -174
l-23 -19c-57 58 -95 97 -114 121c-10 12 -19 26 -19 37c0 21 25 29 50 35z" />
    <glyph glyph-name="aacute" unicode="&#xe1;" horiz-adv-x="533" 
d="M454 477v-397l7 -80h-48l-6 63l-2 1c-28 -40 -76 -78 -156 -78c-146 0 -195 106 -195 239c0 177 82 281 244 281c30 0 97 -8 156 -29zM404 157v285c-20 10 -67 21 -117 21c-137 0 -183 -105 -183 -245c0 -90 29 -191 149 -191c99 0 151 66 151 130zM238 584l106 174
c25 -6 49 -13 49 -34c0 -11 -9 -25 -19 -37c-19 -24 -56 -64 -113 -122z" />
    <glyph glyph-name="acircumflex" unicode="&#xe2;" horiz-adv-x="533" 
d="M454 477v-397l7 -80h-48l-6 63l-2 1c-28 -40 -76 -78 -156 -78c-146 0 -195 106 -195 239c0 177 82 281 244 281c30 0 97 -8 156 -29zM404 157v285c-20 10 -67 21 -117 21c-137 0 -183 -105 -183 -245c0 -90 29 -191 149 -191c99 0 151 66 151 130zM177 587l-22 16
c45 66 74 104 92 126c10 13 23 23 40 23c16 0 28 -7 40 -22c21 -25 49 -60 92 -127l-21 -17l-111 105z" />
    <glyph glyph-name="atilde" unicode="&#xe3;" horiz-adv-x="533" 
d="M454 477v-397l7 -80h-48l-6 63l-2 1c-28 -40 -76 -78 -156 -78c-146 0 -195 106 -195 239c0 177 82 281 244 281c30 0 97 -8 156 -29zM404 157v285c-20 10 -67 21 -117 21c-137 0 -183 -105 -183 -245c0 -90 29 -191 149 -191c99 0 151 66 151 130zM160 620l-6 47
c23 18 53 26 78 26c49 0 84 -25 127 -25c20 0 41 7 58 17l7 -50c-20 -10 -38 -17 -65 -17c-42 0 -92 21 -129 21c-25 0 -46 -6 -70 -19z" />
    <glyph glyph-name="adieresis" unicode="&#xe4;" horiz-adv-x="533" 
d="M454 477v-397l7 -80h-48l-6 63l-2 1c-28 -40 -76 -78 -156 -78c-146 0 -195 106 -195 239c0 177 82 281 244 281c30 0 97 -8 156 -29zM404 157v285c-20 10 -67 21 -117 21c-137 0 -183 -105 -183 -245c0 -90 29 -191 149 -191c99 0 151 66 151 130zM159 648
c0 26 19 45 44 45c24 0 43 -19 43 -45c0 -28 -20 -46 -44 -46c-25 0 -43 18 -43 46zM327 648c0 26 19 45 44 45c24 0 43 -19 43 -45c0 -28 -20 -46 -44 -46c-25 0 -43 18 -43 46z" />
    <glyph glyph-name="aring" unicode="&#xe5;" horiz-adv-x="533" 
d="M454 477v-397l7 -80h-48l-6 63l-2 1c-28 -40 -76 -78 -156 -78c-146 0 -195 106 -195 239c0 177 82 281 244 281c30 0 97 -8 156 -29zM404 157v285c-20 10 -67 21 -117 21c-137 0 -183 -105 -183 -245c0 -90 29 -191 149 -191c99 0 151 66 151 130zM199 664
c0 50 33 88 86 88c54 0 86 -38 86 -83c0 -52 -34 -89 -88 -89s-84 37 -84 84zM242 664c0 -30 13 -48 43 -48s43 21 43 48c0 32 -12 53 -43 53c-32 0 -43 -21 -43 -53z" />
    <glyph glyph-name="ae" unicode="&#xe6;" horiz-adv-x="733" 
d="M563 506c90 0 137 -49 137 -114c0 -169 -230 -175 -312 -168c1 -106 50 -195 163 -195c73 0 116 36 130 47l25 -35c-39 -32 -89 -55 -161 -55c-58 0 -106 22 -134 51c-35 -26 -95 -51 -148 -51c-151 0 -209 110 -209 245c0 175 83 275 234 275c45 0 105 -16 147 -41
c35 26 77 41 128 41zM277 464c-122 0 -173 -104 -173 -226c0 -109 40 -210 155 -210c49 0 91 17 123 42c-29 45 -44 102 -44 171c0 75 22 143 62 191c-30 16 -70 32 -123 32zM649 381c0 54 -36 85 -88 85c-124 0 -169 -119 -172 -201c54 -5 260 -1 260 116z" />
    <glyph glyph-name="ccedilla" unicode="&#xe7;" horiz-adv-x="445" 
d="M270 29c43 0 88 14 128 47l25 -34c-28 -27 -86 -56 -154 -56l-16 -63c45 -2 80 -21 80 -70c0 -52 -42 -83 -98 -83c-21 0 -54 6 -76 18l11 34c15 -6 42 -13 65 -13c44 0 52 23 52 42c0 32 -27 42 -88 42l29 96c-115 17 -173 112 -173 260c0 204 123 257 209 257
c54 0 121 -17 166 -83l-36 -27c-38 49 -81 67 -131 67c-89 0 -158 -63 -158 -213c0 -126 45 -221 165 -221z" />
    <glyph glyph-name="egrave" unicode="&#xe8;" horiz-adv-x="450" 
d="M279 506c90 0 137 -49 137 -114c0 -169 -230 -175 -312 -168c3 -94 45 -195 165 -195c73 0 115 36 129 47l25 -35c-31 -26 -83 -55 -153 -55c-150 0 -215 106 -215 255c0 148 82 265 224 265zM365 381c0 54 -36 85 -88 85c-124 0 -169 -119 -172 -201
c54 -5 260 -1 260 116zM213 758l106 -174l-23 -19c-57 58 -95 97 -114 121c-10 12 -19 26 -19 37c0 21 25 29 50 35z" />
    <glyph glyph-name="eacute" unicode="&#xe9;" horiz-adv-x="450" 
d="M279 506c90 0 137 -49 137 -114c0 -169 -230 -175 -312 -168c3 -94 45 -195 165 -195c73 0 115 36 129 47l25 -35c-31 -26 -83 -55 -153 -55c-150 0 -215 106 -215 255c0 148 82 265 224 265zM365 381c0 54 -36 85 -88 85c-124 0 -169 -119 -172 -201
c54 -5 260 -1 260 116zM208 584l106 174c25 -6 49 -13 49 -34c0 -11 -9 -25 -19 -37c-19 -24 -56 -64 -113 -122z" />
    <glyph glyph-name="ecircumflex" unicode="&#xea;" horiz-adv-x="450" 
d="M279 506c90 0 137 -49 137 -114c0 -169 -230 -175 -312 -168c3 -94 45 -195 165 -195c73 0 115 36 129 47l25 -35c-31 -26 -83 -55 -153 -55c-150 0 -215 106 -215 255c0 148 82 265 224 265zM365 381c0 54 -36 85 -88 85c-124 0 -169 -119 -172 -201
c54 -5 260 -1 260 116zM153 587l-22 16c45 66 74 104 92 126c10 13 23 23 40 23c16 0 28 -7 40 -22c21 -25 49 -60 92 -127l-21 -17l-111 105z" />
    <glyph glyph-name="edieresis" unicode="&#xeb;" horiz-adv-x="450" 
d="M279 506c90 0 137 -49 137 -114c0 -169 -230 -175 -312 -168c3 -94 45 -195 165 -195c73 0 115 36 129 47l25 -35c-31 -26 -83 -55 -153 -55c-150 0 -215 106 -215 255c0 148 82 265 224 265zM365 381c0 54 -36 85 -88 85c-124 0 -169 -119 -172 -201
c54 -5 260 -1 260 116zM129 648c0 26 19 45 44 45c24 0 43 -19 43 -45c0 -28 -20 -46 -44 -46c-25 0 -43 18 -43 46zM297 648c0 26 19 45 44 45c24 0 43 -19 43 -45c0 -28 -20 -46 -44 -46c-25 0 -43 18 -43 46z" />
    <glyph glyph-name="igrave" unicode="&#xec;" horiz-adv-x="218" 
d="M132 0h-50v492h50v-492zM61 758l106 -174l-23 -19c-57 58 -95 97 -114 121c-10 12 -19 26 -19 37c0 21 25 29 50 35z" />
    <glyph glyph-name="iacute" unicode="&#xed;" horiz-adv-x="218" 
d="M132 0h-50v492h50v-492zM55 584l106 174c25 -6 49 -13 49 -34c0 -11 -9 -25 -19 -37c-19 -24 -56 -64 -113 -122z" />
    <glyph glyph-name="icircumflex" unicode="&#xee;" horiz-adv-x="218" 
d="M132 0h-50v492h50v-492zM1 587l-22 16c45 66 74 104 92 126c10 13 23 23 40 23c16 0 28 -7 40 -22c21 -25 49 -60 92 -127l-21 -17l-111 105z" />
    <glyph glyph-name="idieresis" unicode="&#xef;" horiz-adv-x="218" 
d="M132 0h-50v492h50v-492zM-17 648c0 26 19 45 44 45c24 0 43 -19 43 -45c0 -28 -20 -46 -44 -46c-25 0 -43 18 -43 46zM151 648c0 26 19 45 44 45c24 0 43 -19 43 -45c0 -28 -20 -46 -44 -46c-25 0 -43 18 -43 46z" />
    <glyph glyph-name="eth" unicode="&#xf0;" horiz-adv-x="495" 
d="M190 496l-21 31l107 73c-38 32 -87 57 -146 69l10 42c71 -15 128 -45 174 -86l106 73l21 -31l-100 -68c75 -83 109 -200 109 -322c0 -149 -53 -291 -205 -291c-136 0 -200 93 -200 222c0 131 76 233 202 233c54 0 95 -15 141 -41c-12 62 -36 118 -85 173zM396 347
c-34 27 -90 52 -146 52c-104 0 -153 -85 -153 -191c0 -123 59 -180 150 -180c105 0 154 100 154 225c0 23 0 70 -5 94z" />
    <glyph glyph-name="ntilde" unicode="&#xf1;" horiz-adv-x="534" 
d="M131 0h-50v426l-4 66h45l9 -77c40 60 101 91 166 91c104 0 158 -59 158 -171v-335h-50v313c0 83 -19 152 -117 152c-88 0 -157 -73 -157 -138v-327zM144 620l-6 47c23 18 53 26 78 26c49 0 84 -25 127 -25c20 0 41 7 58 17l7 -50c-20 -10 -38 -17 -65 -17
c-42 0 -92 21 -129 21c-25 0 -46 -6 -70 -19z" />
    <glyph glyph-name="ograve" unicode="&#xf2;" horiz-adv-x="520" 
d="M259 27c-131 0 -154 129 -154 232c0 116 50 204 159 204c112 0 152 -94 152 -219c0 -113 -48 -217 -157 -217zM55 252c0 -180 75 -266 197 -266s214 78 214 276c0 223 -130 244 -196 244c-96 0 -215 -48 -215 -254zM228 758l106 -174l-23 -19c-57 58 -95 97 -114 121
c-10 12 -19 26 -19 37c0 21 25 29 50 35z" />
    <glyph glyph-name="oacute" unicode="&#xf3;" horiz-adv-x="520" 
d="M259 27c109 0 157 104 157 217c0 125 -40 219 -152 219c-109 0 -159 -88 -159 -204c0 -103 23 -232 154 -232zM55 252c0 206 119 254 215 254c66 0 196 -21 196 -244c0 -198 -92 -276 -214 -276s-197 86 -197 266zM213 584l106 174c25 -6 49 -13 49 -34
c0 -11 -9 -25 -19 -37c-19 -24 -56 -64 -113 -122z" />
    <glyph glyph-name="ocircumflex" unicode="&#xf4;" horiz-adv-x="520" 
d="M259 27c-131 0 -154 129 -154 232c0 116 50 204 159 204c112 0 152 -94 152 -219c0 -113 -48 -217 -157 -217zM55 252c0 -180 75 -266 197 -266s214 78 214 276c0 223 -130 244 -196 244c-96 0 -215 -48 -215 -254zM157 587l-22 16c45 66 74 104 92 126
c10 13 23 23 40 23c16 0 28 -7 40 -22c21 -25 49 -60 92 -127l-21 -17l-111 105z" />
    <glyph glyph-name="otilde" unicode="&#xf5;" horiz-adv-x="520" 
d="M259 27c109 0 157 104 157 217c0 125 -40 219 -152 219c-109 0 -159 -88 -159 -204c0 -103 23 -232 154 -232zM55 252c0 206 119 254 215 254c66 0 196 -21 196 -244c0 -198 -92 -276 -214 -276s-197 86 -197 266zM140 620l-6 47c23 18 53 26 78 26c49 0 84 -25 127 -25
c20 0 41 7 58 17l7 -50c-20 -10 -38 -17 -65 -17c-42 0 -92 21 -129 21c-25 0 -46 -6 -70 -19z" />
    <glyph glyph-name="odieresis" unicode="&#xf6;" horiz-adv-x="520" 
d="M259 27c-131 0 -154 129 -154 232c0 116 50 204 159 204c112 0 152 -94 152 -219c0 -113 -48 -217 -157 -217zM55 252c0 -180 75 -266 197 -266s214 78 214 276c0 223 -130 244 -196 244c-96 0 -215 -48 -215 -254zM139 648c0 26 19 45 44 45c24 0 43 -19 43 -45
c0 -28 -20 -46 -44 -46c-25 0 -43 18 -43 46zM307 648c0 26 19 45 44 45c24 0 43 -19 43 -45c0 -28 -20 -46 -44 -46c-25 0 -43 18 -43 46z" />
    <glyph glyph-name="oslash" unicode="&#xf8;" horiz-adv-x="520" 
d="M122 -76l-39 20l44 86c-46 43 -72 116 -72 222c0 206 119 254 215 254c24 0 57 -3 89 -18l41 82l40 -20l-44 -86c39 -34 70 -94 70 -202c0 -198 -92 -276 -214 -276c-34 0 -64 6 -89 19zM264 463c-109 0 -159 -88 -159 -204c0 -63 8 -136 45 -183l187 369
c-20 12 -44 18 -73 18zM259 27c109 0 157 104 157 217c0 71 -13 131 -45 171l-187 -369c20 -12 44 -19 75 -19z" />
    <glyph glyph-name="ugrave" unicode="&#xf9;" horiz-adv-x="534" 
d="M404 492h50v-426l5 -66h-46l-9 74c-39 -62 -103 -88 -166 -88c-104 0 -158 55 -158 167v339h50v-317c0 -83 19 -148 121 -148c80 0 153 71 153 136v329zM215 758l106 -174l-23 -19c-57 58 -95 97 -114 121c-10 12 -19 26 -19 37c0 21 25 29 50 35z" />
    <glyph glyph-name="uacute" unicode="&#xfa;" horiz-adv-x="534" 
d="M404 492h50v-426l5 -66h-46l-9 74c-39 -62 -103 -88 -166 -88c-104 0 -158 55 -158 167v339h50v-317c0 -83 19 -148 121 -148c80 0 153 71 153 136v329zM218 584l106 174c25 -6 49 -13 49 -34c0 -11 -9 -25 -19 -37c-19 -24 -56 -64 -113 -122z" />
    <glyph glyph-name="ucircumflex" unicode="&#xfb;" horiz-adv-x="534" 
d="M404 492h50v-426l5 -66h-46l-9 74c-39 -62 -103 -88 -166 -88c-104 0 -158 55 -158 167v339h50v-317c0 -83 19 -148 121 -148c80 0 153 71 153 136v329zM156 587l-22 16c45 66 74 104 92 126c10 13 23 23 40 23c16 0 28 -7 40 -22c21 -25 49 -60 92 -127l-21 -17
l-111 105z" />
    <glyph glyph-name="udieresis" unicode="&#xfc;" horiz-adv-x="534" 
d="M404 492h50v-426l5 -66h-46l-9 74c-39 -62 -103 -88 -166 -88c-104 0 -158 55 -158 167v339h50v-317c0 -83 19 -148 121 -148c80 0 153 71 153 136v329zM138 648c0 26 19 45 44 45c24 0 43 -19 43 -45c0 -28 -20 -46 -44 -46c-25 0 -43 18 -43 46zM306 648
c0 26 19 45 44 45c24 0 43 -19 43 -45c0 -28 -20 -46 -44 -46c-25 0 -43 18 -43 46z" />
    <glyph glyph-name="yacute" unicode="&#xfd;" horiz-adv-x="532" 
d="M452 492v-500c0 -49 -6 -101 -19 -138c-27 -75 -85 -120 -178 -120c-98 0 -144 48 -144 122c0 85 69 144 114 172c-78 6 -145 42 -145 165v299h50v-279c0 -82 8 -148 132 -148c76 0 142 55 142 133v294h48zM161 -139c0 -57 36 -86 98 -86c105 0 143 89 143 212v89
c-141 -56 -241 -113 -241 -215zM211 584l106 174c25 -6 49 -13 49 -34c0 -11 -9 -25 -19 -37c-19 -24 -56 -64 -113 -122z" />
    <glyph glyph-name="thorn" unicode="&#xfe;" horiz-adv-x="526" 
d="M130 29v-239h-50v905h50v-206c43 9 81 15 118 15c157 0 222 -87 222 -254c0 -172 -74 -267 -195 -267c-57 0 -109 20 -145 46zM420 239c0 114 -23 222 -170 222c-40 0 -87 -7 -120 -19v-359c32 -32 95 -58 145 -58c77 0 145 54 145 214z" />
    <glyph glyph-name="ydieresis" unicode="&#xff;" horiz-adv-x="532" 
d="M452 492v-500c0 -49 -6 -101 -19 -138c-27 -75 -85 -120 -178 -120c-98 0 -144 48 -144 122c0 85 69 144 114 172c-78 6 -145 42 -145 165v299h50v-279c0 -82 8 -148 132 -148c76 0 142 55 142 133v294h48zM161 -139c0 -57 36 -86 98 -86c105 0 143 89 143 212v89
c-141 -56 -241 -113 -241 -215zM140 648c0 26 19 45 44 45c24 0 43 -19 43 -45c0 -28 -20 -46 -44 -46c-25 0 -43 18 -43 46zM308 648c0 26 19 45 44 45c24 0 43 -19 43 -45c0 -28 -20 -46 -44 -46c-25 0 -43 18 -43 46z" />
    <glyph glyph-name="Amacron" unicode="&#x100;" horiz-adv-x="595" 
d="M76 0h-51l237 665h66l242 -665h-53l-81 224h-281zM294 622l-123 -353h249zM175 747v50h243v-50h-243z" />
    <glyph glyph-name="amacron" unicode="&#x101;" horiz-adv-x="533" 
d="M454 477v-397l7 -80h-48l-6 63l-2 1c-28 -40 -76 -78 -156 -78c-146 0 -195 106 -195 239c0 177 82 281 244 281c30 0 97 -8 156 -29zM404 157v285c-20 10 -67 21 -117 21c-137 0 -183 -105 -183 -245c0 -90 29 -191 149 -191c99 0 151 66 151 130zM160 617v50h243v-50
h-243z" />
    <glyph glyph-name="Abreve" unicode="&#x102;" horiz-adv-x="595" 
d="M76 0h-51l237 665h66l242 -665h-53l-81 224h-281zM294 622l-123 -353h249zM293 721c-81 0 -123 39 -142 111l48 15c18 -56 45 -81 98 -81c56 0 80 21 101 81l45 -14c-21 -71 -60 -112 -150 -112z" />
    <glyph glyph-name="abreve" unicode="&#x103;" horiz-adv-x="533" 
d="M454 477v-397l7 -80h-48l-6 63l-2 1c-28 -40 -76 -78 -156 -78c-146 0 -195 106 -195 239c0 177 82 281 244 281c30 0 97 -8 156 -29zM404 157v285c-20 10 -67 21 -117 21c-137 0 -183 -105 -183 -245c0 -90 29 -191 149 -191c99 0 151 66 151 130zM389 719l45 -7
c-24 -89 -78 -128 -146 -128c-81 0 -125 54 -140 128l48 7c17 -67 49 -90 95 -90c40 0 76 17 98 90z" />
    <glyph glyph-name="Aogonek" unicode="&#x104;" horiz-adv-x="595" 
d="M515 4l-79 220h-281l-79 -224h-51l237 665h66l242 -665c-34 -29 -71 -86 -71 -135c0 -33 13 -51 44 -51c18 0 37 5 52 11l13 -39c-26 -12 -49 -18 -80 -18c-67 0 -84 45 -84 85c0 59 40 118 71 151zM294 622l-123 -353h249z" />
    <glyph glyph-name="aogonek" unicode="&#x105;" horiz-adv-x="533" 
d="M412 6l-5 57l-2 1c-28 -40 -76 -78 -156 -78c-146 0 -195 106 -195 239c0 177 82 281 244 281c30 0 97 -8 156 -29v-397l9 -80c-33 -29 -71 -90 -71 -135c0 -33 13 -51 44 -51c18 0 37 5 52 11l13 -39c-26 -12 -49 -18 -80 -18c-67 0 -84 45 -84 85c0 59 42 120 75 153z
M404 157v285c-20 10 -67 21 -117 21c-137 0 -183 -105 -183 -245c0 -90 29 -191 149 -191c99 0 151 66 151 130z" />
    <glyph glyph-name="Cacute" unicode="&#x106;" horiz-adv-x="586" 
d="M343 32c65 0 121 24 179 76l30 -34c-58 -56 -133 -86 -211 -86c-172 0 -281 110 -281 345c0 257 156 344 287 344c64 0 148 -20 209 -103l-37 -28c-44 51 -98 86 -174 86c-144 0 -233 -114 -233 -295c0 -190 74 -305 231 -305zM263 745l147 143c20 -11 39 -22 39 -40
c0 -16 -18 -28 -28 -36c-25 -19 -70 -48 -140 -91z" />
    <glyph glyph-name="cacute" unicode="&#x107;" horiz-adv-x="445" 
d="M270 29c43 0 88 14 128 47l25 -34c-28 -27 -86 -56 -154 -56c-142 0 -214 99 -214 263c0 204 123 257 209 257c54 0 121 -17 166 -83l-36 -27c-38 49 -81 67 -131 67c-89 0 -158 -63 -158 -213c0 -126 45 -221 165 -221zM208 584l106 174c25 -6 49 -13 49 -34
c0 -11 -9 -25 -19 -37c-19 -24 -56 -64 -113 -122z" />
    <glyph glyph-name="Ccircumflex" unicode="&#x108;" horiz-adv-x="586" 
d="M343 32c65 0 121 24 179 76l30 -34c-58 -56 -133 -86 -211 -86c-172 0 -281 110 -281 345c0 257 156 344 287 344c64 0 148 -20 209 -103l-37 -28c-44 51 -98 86 -174 86c-144 0 -233 -114 -233 -295c0 -190 74 -305 231 -305zM221 723l-21 16c47 63 79 94 103 116
c12 11 25 23 42 23c16 0 28 -7 42 -20c28 -27 58 -57 105 -118l-21 -17l-126 97z" />
    <glyph glyph-name="ccircumflex" unicode="&#x109;" horiz-adv-x="445" 
d="M270 29c43 0 88 14 128 47l25 -34c-28 -27 -86 -56 -154 -56c-142 0 -214 99 -214 263c0 204 123 257 209 257c54 0 121 -17 166 -83l-36 -27c-38 49 -81 67 -131 67c-89 0 -158 -63 -158 -213c0 -126 45 -221 165 -221zM158 587l-22 16c45 66 74 104 92 126
c10 13 23 23 40 23c16 0 28 -7 40 -22c21 -25 49 -60 92 -127l-21 -17l-111 105z" />
    <glyph glyph-name="Cdotaccent" unicode="&#x10a;" horiz-adv-x="586" 
d="M343 32c65 0 121 24 179 76l30 -34c-58 -56 -133 -86 -211 -86c-172 0 -281 110 -281 345c0 257 156 344 287 344c64 0 148 -20 209 -103l-37 -28c-44 51 -98 86 -174 86c-144 0 -233 -114 -233 -295c0 -190 74 -305 231 -305zM299 782c0 24 18 42 41 42
c22 0 40 -18 40 -42c0 -26 -19 -43 -41 -43c-23 0 -40 17 -40 43z" />
    <glyph glyph-name="cdotaccent" unicode="&#x10b;" horiz-adv-x="445" 
d="M270 29c43 0 88 14 128 47l25 -34c-28 -27 -86 -56 -154 -56c-142 0 -214 99 -214 263c0 204 123 257 209 257c54 0 121 -17 166 -83l-36 -27c-38 49 -81 67 -131 67c-89 0 -158 -63 -158 -213c0 -126 45 -221 165 -221zM225 633c0 24 18 42 41 42c22 0 40 -18 40 -42
c0 -26 -19 -43 -41 -43c-23 0 -40 17 -40 43z" />
    <glyph glyph-name="Ccaron" unicode="&#x10c;" horiz-adv-x="586" 
d="M343 32c65 0 121 24 179 76l30 -34c-58 -56 -133 -86 -211 -86c-172 0 -281 110 -281 345c0 257 156 344 287 344c64 0 148 -20 209 -103l-37 -28c-44 51 -98 86 -174 86c-144 0 -233 -114 -233 -295c0 -190 74 -305 231 -305zM471 878l21 -16c-47 -63 -79 -94 -103 -116
c-12 -11 -25 -23 -42 -23c-16 0 -28 7 -42 20c-28 27 -58 57 -105 118l21 17l126 -97z" />
    <glyph glyph-name="ccaron" unicode="&#x10d;" horiz-adv-x="445" 
d="M270 29c43 0 88 14 128 47l25 -34c-28 -27 -86 -56 -154 -56c-142 0 -214 99 -214 263c0 204 123 257 209 257c54 0 121 -17 166 -83l-36 -27c-38 49 -81 67 -131 67c-89 0 -158 -63 -158 -213c0 -126 45 -221 165 -221zM376 751l22 -16c-45 -66 -74 -104 -92 -126
c-10 -13 -23 -23 -40 -23c-16 0 -28 7 -40 22c-21 25 -49 60 -92 127l21 17l111 -105z" />
    <glyph glyph-name="Dcaron" unicode="&#x10e;" horiz-adv-x="641" 
d="M90 0v665h194c181 0 297 -104 297 -307c0 -266 -138 -358 -291 -358h-200zM140 622v-579h152c146 0 237 103 237 295c0 219 -108 284 -252 284h-137zM418 878l21 -16c-47 -63 -79 -94 -103 -116c-12 -11 -25 -23 -42 -23c-16 0 -28 7 -42 20c-28 27 -58 57 -105 118
l21 17l126 -97z" />
    <glyph glyph-name="dcaron" unicode="&#x10f;" horiz-adv-x="533" 
d="M284 506c46 0 82 -9 120 -22v211h50v-611l6 -84h-47l-6 64l-3 1c-46 -61 -104 -79 -155 -79c-139 0 -194 110 -194 249c0 167 81 271 229 271zM404 151v284c-27 15 -71 29 -127 29c-119 0 -172 -91 -172 -221c0 -111 32 -215 148 -215c95 0 151 66 151 123zM546 689v-190
l30 -5c14 53 34 136 34 174c0 13 -7 27 -27 27c-12 0 -25 -3 -37 -6z" />
    <glyph glyph-name="Dcroat" unicode="&#x110;" horiz-adv-x="641" 
d="M19 312v48h71v305h194c181 0 297 -104 297 -307c0 -266 -138 -358 -291 -358h-200v312h-71zM140 622v-262h205v-48h-205v-269h152c146 0 237 103 237 295c0 219 -108 284 -252 284h-137z" />
    <glyph glyph-name="dcroat" unicode="&#x111;" horiz-adv-x="533" 
d="M284 496c46 0 82 -9 120 -22v107h-191v42h191v72h50v-72h68v-42h-68v-497l6 -84h-47l-6 64l-3 1c-46 -61 -104 -79 -155 -79c-139 0 -194 110 -194 249c0 157 81 261 229 261zM404 151v274c-27 15 -71 29 -127 29c-119 0 -172 -91 -172 -211c0 -111 32 -215 148 -215
c95 0 151 66 151 123z" />
    <glyph glyph-name="Emacron" unicode="&#x112;" horiz-adv-x="482" 
d="M90 0v665h353v-43h-303v-261h260v-43h-260v-275h310v-43h-360zM143 747v50h243v-50h-243z" />
    <glyph glyph-name="emacron" unicode="&#x113;" horiz-adv-x="450" 
d="M279 506c90 0 137 -49 137 -114c0 -169 -230 -175 -312 -168c3 -94 45 -195 165 -195c73 0 115 36 129 47l25 -35c-31 -26 -83 -55 -153 -55c-150 0 -215 106 -215 255c0 148 82 265 224 265zM365 381c0 54 -36 85 -88 85c-124 0 -169 -119 -172 -201
c54 -5 260 -1 260 116zM136 617v50h243v-50h-243z" />
    <glyph glyph-name="Ebreve" unicode="&#x114;" horiz-adv-x="482" 
d="M90 0v665h353v-43h-303v-261h260v-43h-260v-275h310v-43h-360zM267 721c-81 0 -123 39 -142 111l48 15c18 -56 45 -81 98 -81c56 0 80 21 101 81l45 -14c-21 -71 -60 -112 -150 -112z" />
    <glyph glyph-name="ebreve" unicode="&#x115;" horiz-adv-x="450" 
d="M279 506c90 0 137 -49 137 -114c0 -169 -230 -175 -312 -168c3 -94 45 -195 165 -195c73 0 115 36 129 47l25 -35c-31 -26 -83 -55 -153 -55c-150 0 -215 106 -215 255c0 148 82 265 224 265zM365 381c0 54 -36 85 -88 85c-124 0 -169 -119 -172 -201
c54 -5 260 -1 260 116zM362 719l45 -7c-24 -89 -78 -128 -146 -128c-81 0 -125 54 -140 128l48 7c17 -67 49 -90 95 -90c40 0 76 17 98 90z" />
    <glyph glyph-name="Edotaccent" unicode="&#x116;" horiz-adv-x="482" 
d="M90 0v665h353v-43h-303v-261h260v-43h-260v-275h310v-43h-360zM230 782c0 24 18 42 41 42c22 0 40 -18 40 -42c0 -26 -19 -43 -41 -43c-23 0 -40 17 -40 43z" />
    <glyph glyph-name="edotaccent" unicode="&#x117;" horiz-adv-x="450" 
d="M279 506c90 0 137 -49 137 -114c0 -169 -230 -175 -312 -168c3 -94 45 -195 165 -195c73 0 115 36 129 47l25 -35c-31 -26 -83 -55 -153 -55c-150 0 -215 106 -215 255c0 148 82 265 224 265zM365 381c0 54 -36 85 -88 85c-124 0 -169 -119 -172 -201
c54 -5 260 -1 260 116zM216 633c0 24 18 42 41 42c22 0 40 -18 40 -42c0 -26 -19 -43 -41 -43c-23 0 -40 17 -40 43z" />
    <glyph glyph-name="Eogonek" unicode="&#x118;" horiz-adv-x="482" 
d="M90 0v665h353v-43h-303v-261h260v-43h-260v-275h310v-43c-47 -10 -109 -71 -109 -135c0 -33 13 -51 44 -51c18 0 37 5 52 11l13 -39c-26 -12 -49 -18 -80 -18c-67 0 -84 45 -84 85c0 64 39 116 79 147h-275z" />
    <glyph glyph-name="eogonek" unicode="&#x119;" horiz-adv-x="450" 
d="M279 506c90 0 137 -49 137 -114c0 -169 -230 -175 -312 -168c3 -94 45 -195 165 -195c73 0 115 36 129 47l25 -35c-18 -15 -40 -28 -69 -45c-38 -23 -74 -79 -74 -131c0 -33 13 -51 44 -51c18 0 37 5 52 11l13 -39c-26 -12 -49 -18 -80 -18c-67 0 -84 45 -84 85
c0 51 30 99 61 134c-4 0 -12 -1 -16 -1c-150 0 -215 106 -215 255c0 148 82 265 224 265zM365 381c0 54 -36 85 -88 85c-124 0 -169 -119 -172 -201c54 -5 260 -1 260 116z" />
    <glyph glyph-name="Ecaron" unicode="&#x11a;" horiz-adv-x="482" 
d="M90 0v665h353v-43h-303v-261h260v-43h-260v-275h310v-43h-360zM399 878l21 -16c-47 -63 -79 -94 -103 -116c-12 -11 -25 -23 -42 -23c-16 0 -28 7 -42 20c-28 27 -58 57 -105 118l21 17l126 -97z" />
    <glyph glyph-name="ecaron" unicode="&#x11b;" horiz-adv-x="450" 
d="M279 506c90 0 137 -49 137 -114c0 -169 -230 -175 -312 -168c3 -94 45 -195 165 -195c73 0 115 36 129 47l25 -35c-31 -26 -83 -55 -153 -55c-150 0 -215 106 -215 255c0 148 82 265 224 265zM365 381c0 54 -36 85 -88 85c-124 0 -169 -119 -172 -201
c54 -5 260 -1 260 116zM376 751l22 -16c-45 -66 -74 -104 -92 -126c-10 -13 -23 -23 -40 -23c-16 0 -28 7 -40 22c-21 25 -49 60 -92 127l21 17l111 -105z" />
    <glyph glyph-name="Gcircumflex" unicode="&#x11c;" horiz-adv-x="615" 
d="M498 314h-188v43h238v-310c-54 -36 -130 -59 -212 -59c-171 0 -276 111 -276 343c0 259 147 346 276 346c62 0 149 -20 214 -101l-36 -30c-44 50 -100 86 -179 86c-140 0 -223 -114 -223 -295c0 -195 71 -306 231 -306c62 0 128 21 155 42v241zM215 723l-21 16
c47 63 79 94 103 116c12 11 25 23 42 23c16 0 28 -7 42 -20c28 -27 58 -57 105 -118l-21 -17l-126 97z" />
    <glyph glyph-name="gcircumflex" unicode="&#x11d;" horiz-adv-x="536" 
d="M255 -263c-98 0 -150 46 -150 126c0 89 72 141 137 176c-91 6 -187 50 -187 221c0 167 95 246 225 246c52 0 123 -10 177 -33v-444c0 -45 -3 -95 -11 -133c-22 -100 -88 -159 -191 -159zM407 213v230c-36 14 -81 23 -132 23c-76 0 -170 -39 -170 -196
c0 -85 16 -196 156 -196c82 0 146 56 146 139zM155 -133c0 -63 42 -88 101 -88c115 0 150 103 150 223v85c-174 -80 -251 -141 -251 -220zM170 587l-22 16c45 66 74 104 92 126c10 13 23 23 40 23c16 0 28 -7 40 -22c21 -25 49 -60 92 -127l-21 -17l-111 105z" />
    <glyph glyph-name="Gbreve" unicode="&#x11e;" horiz-adv-x="615" 
d="M498 314h-188v43h238v-310c-54 -36 -130 -59 -212 -59c-171 0 -276 111 -276 343c0 259 147 346 276 346c62 0 149 -20 214 -101l-36 -30c-44 50 -100 86 -179 86c-140 0 -223 -114 -223 -295c0 -195 71 -306 231 -306c62 0 128 21 155 42v241zM332 721
c-81 0 -123 39 -142 111l48 15c18 -56 45 -81 98 -81c56 0 80 21 101 81l45 -14c-21 -71 -60 -112 -150 -112z" />
    <glyph glyph-name="gbreve" unicode="&#x11f;" horiz-adv-x="536" 
d="M255 -263c-98 0 -150 46 -150 126c0 89 72 141 137 176c-91 6 -187 50 -187 221c0 167 95 246 225 246c52 0 123 -10 177 -33v-444c0 -45 -3 -95 -11 -133c-22 -100 -88 -159 -191 -159zM407 213v230c-36 14 -81 23 -132 23c-76 0 -170 -39 -170 -196
c0 -85 16 -196 156 -196c82 0 146 56 146 139zM155 -133c0 -63 42 -88 101 -88c115 0 150 103 150 223v85c-174 -80 -251 -141 -251 -220zM383 719l45 -7c-24 -89 -78 -128 -146 -128c-81 0 -125 54 -140 128l48 7c17 -67 49 -90 95 -90c40 0 76 17 98 90z" />
    <glyph glyph-name="Gdotaccent" unicode="&#x120;" horiz-adv-x="615" 
d="M498 314h-188v43h238v-310c-54 -36 -130 -59 -212 -59c-171 0 -276 111 -276 343c0 259 147 346 276 346c62 0 149 -20 214 -101l-36 -30c-44 50 -100 86 -179 86c-140 0 -223 -114 -223 -295c0 -195 71 -306 231 -306c62 0 128 21 155 42v241zM292 782c0 24 18 42 41 42
c22 0 40 -18 40 -42c0 -26 -19 -43 -41 -43c-23 0 -40 17 -40 43z" />
    <glyph glyph-name="gdotaccent" unicode="&#x121;" horiz-adv-x="536" 
d="M255 -263c-98 0 -150 46 -150 126c0 89 72 141 137 176c-91 6 -187 50 -187 221c0 167 95 246 225 246c52 0 123 -10 177 -33v-444c0 -45 -3 -95 -11 -133c-22 -100 -88 -159 -191 -159zM407 213v230c-36 14 -81 23 -132 23c-76 0 -170 -39 -170 -196
c0 -85 16 -196 156 -196c82 0 146 56 146 139zM155 -133c0 -63 42 -88 101 -88c115 0 150 103 150 223v85c-174 -80 -251 -141 -251 -220zM240 633c0 24 18 42 41 42c22 0 40 -18 40 -42c0 -26 -19 -43 -41 -43c-23 0 -40 17 -40 43z" />
    <glyph glyph-name="Gcommaaccent" unicode="&#x122;" horiz-adv-x="615" 
d="M498 314h-188v43h238v-310c-54 -36 -130 -59 -212 -59c-171 0 -276 111 -276 343c0 259 147 346 276 346c62 0 149 -20 214 -101l-36 -30c-44 50 -100 86 -179 86c-140 0 -223 -114 -223 -295c0 -195 71 -306 231 -306c62 0 128 21 155 42v241zM314 -76l-58 -182l26 -13
c42 68 61 101 75 130c4 8 12 23 12 35c0 25 -28 29 -55 30z" />
    <glyph glyph-name="gcommaaccent" unicode="&#x123;" horiz-adv-x="536" 
d="M255 -263c-98 0 -150 46 -150 126c0 89 72 141 137 176c-91 6 -187 50 -187 221c0 167 95 246 225 246c52 0 123 -10 177 -33v-444c0 -45 -3 -95 -11 -133c-22 -100 -88 -159 -191 -159zM407 213v230c-36 14 -81 23 -132 23c-76 0 -170 -39 -170 -196
c0 -85 16 -196 156 -196c82 0 146 56 146 139zM155 -133c0 -63 42 -88 101 -88c115 0 150 103 150 223v85c-174 -80 -251 -141 -251 -220zM358 769l-58 -182c-27 1 -55 5 -55 30c0 12 8 27 12 35c14 29 33 62 75 130z" />
    <glyph glyph-name="Hcircumflex" unicode="&#x124;" horiz-adv-x="669" 
d="M529 665h50v-665h-50v329h-389v-329h-50v665h50v-293h389v293zM210 723l-21 16c47 63 79 94 103 116c12 11 25 23 42 23c16 0 28 -7 42 -20c28 -27 58 -57 105 -118l-21 -17l-126 97z" />
    <glyph glyph-name="hcircumflex" unicode="&#x125;" horiz-adv-x="534" 
d="M131 0h-50v695h50v-275c42 61 107 86 166 86c104 0 158 -58 158 -170v-336h-50v316c0 78 -17 149 -120 149c-84 0 -154 -73 -154 -140v-325zM99 723l-21 16c47 63 79 94 103 116c12 11 25 23 42 23c16 0 28 -7 42 -20c28 -27 58 -57 105 -118l-21 -17l-126 97z" />
    <glyph glyph-name="Hbar" unicode="&#x126;" horiz-adv-x="667" 
d="M527 665h50v-130h75v-42h-75v-493h-50v329h-389v-329h-50v493h-76v42h76v130h50v-130h389v130zM138 372h389v121h-389v-121z" />
    <glyph glyph-name="hbar" unicode="&#x127;" horiz-adv-x="532" 
d="M11 581v42h68v72h50v-72h191v-42h-191v-171c42 61 107 86 166 86c104 0 158 -58 158 -170v-326h-50v306c0 78 -17 149 -120 149c-84 0 -154 -73 -154 -140v-315h-50v581h-68z" />
    <glyph glyph-name="Itilde" unicode="&#x128;" horiz-adv-x="230" 
d="M140 0h-50v665h50v-665zM-7 743l-6 47c23 18 53 26 78 26c49 0 84 -25 127 -25c20 0 41 7 58 17l7 -50c-20 -10 -38 -17 -65 -17c-42 0 -92 21 -129 21c-25 0 -46 -6 -70 -19z" />
    <glyph glyph-name="itilde" unicode="&#x129;" horiz-adv-x="218" 
d="M132 0h-50v492h50v-492zM-17 620l-6 47c23 18 53 26 78 26c49 0 84 -25 127 -25c20 0 41 7 58 17l7 -50c-20 -10 -38 -17 -65 -17c-42 0 -92 21 -129 21c-25 0 -46 -6 -70 -19z" />
    <glyph glyph-name="Imacron" unicode="&#x12a;" horiz-adv-x="230" 
d="M140 0h-50v665h50v-665zM-2 747v50h243v-50h-243z" />
    <glyph glyph-name="imacron" unicode="&#x12b;" horiz-adv-x="218" 
d="M132 0h-50v492h50v-492zM-13 617v50h243v-50h-243z" />
    <glyph glyph-name="Ibreve" unicode="&#x12c;" horiz-adv-x="230" 
d="M140 0h-50v665h50v-665zM114 721c-81 0 -123 39 -142 111l48 15c18 -56 45 -81 98 -81c56 0 80 21 101 81l45 -14c-21 -71 -60 -112 -150 -112z" />
    <glyph glyph-name="ibreve" unicode="&#x12d;" horiz-adv-x="218" 
d="M132 0h-50v492h50v-492zM210 719l45 -7c-24 -89 -78 -128 -146 -128c-81 0 -125 54 -140 128l48 7c17 -67 49 -90 95 -90c40 0 76 17 98 90z" />
    <glyph glyph-name="Iogonek" unicode="&#x12e;" horiz-adv-x="230" 
d="M140 0c-34 -35 -66 -84 -66 -135c0 -33 13 -51 44 -51c18 0 37 5 52 11l13 -39c-26 -12 -49 -18 -80 -18c-67 0 -84 45 -84 85c0 59 35 110 71 153v659h50v-665z" />
    <glyph glyph-name="iogonek" unicode="&#x12f;" horiz-adv-x="212" 
d="M82 6v486h50v-491c-29 -29 -67 -85 -67 -136c0 -33 13 -51 44 -51c18 0 37 5 52 11l13 -39c-26 -12 -49 -18 -80 -18c-67 0 -84 45 -84 82c0 65 44 123 72 156zM66 633c0 24 18 42 41 42c22 0 40 -18 40 -42c0 -26 -19 -43 -41 -43c-23 0 -40 17 -40 43z" />
    <glyph glyph-name="Idotaccent" unicode="&#x130;" horiz-adv-x="230" 
d="M140 0h-50v665h50v-665zM76 782c0 24 18 42 41 42c22 0 40 -18 40 -42c0 -26 -19 -43 -41 -43c-23 0 -40 17 -40 43z" />
    <glyph glyph-name="dotlessi" unicode="&#x131;" horiz-adv-x="218" 
d="M132 0h-50v492h50v-492z" />
    <glyph glyph-name="IJ" unicode="&#x132;" horiz-adv-x="640" 
d="M140 0h-50v665h50v-665zM245 47l27 35c32 -27 71 -51 124 -51c81 0 104 50 104 109v525h50v-522c0 -98 -40 -155 -156 -155c-70 0 -131 35 -149 59z" />
    <glyph glyph-name="ij" unicode="&#x133;" horiz-adv-x="424" 
d="M132 0h-50v492h50v-492zM66 633c0 24 18 42 41 42c22 0 40 -18 40 -42c0 -26 -19 -43 -41 -43c-23 0 -40 17 -40 43zM294 -75v567h50v-541c0 -94 -6 -174 -125 -174c-30 0 -77 10 -104 29l17 38c28 -16 55 -26 89 -26c49 0 73 25 73 107zM280 633c0 24 18 42 41 42
c22 0 40 -18 40 -42c0 -26 -19 -43 -41 -43c-23 0 -40 17 -40 43z" />
    <glyph glyph-name="Jcircumflex" unicode="&#x134;" horiz-adv-x="410" 
d="M15 47l27 35c32 -27 71 -51 124 -51c81 0 104 50 104 109v525h50v-522c0 -98 -40 -155 -156 -155c-70 0 -131 35 -149 59zM171 723l-21 16c47 63 79 94 103 116c12 11 25 23 42 23c16 0 28 -7 42 -20c28 -27 58 -57 105 -118l-21 -17l-126 97z" />
    <glyph glyph-name="jcircumflex" unicode="&#x135;" horiz-adv-x="212" 
d="M82 -75v567h50v-541c0 -94 -6 -174 -125 -174c-30 0 -77 10 -104 29l17 38c28 -16 55 -26 89 -26c49 0 73 25 73 107zM-2 587l-22 16c45 66 74 104 92 126c10 13 23 23 40 23c16 0 28 -7 40 -22c21 -25 49 -60 92 -127l-21 -17l-111 105z" />
    <glyph glyph-name="Kcommaaccent" unicode="&#x136;" horiz-adv-x="557" 
d="M517 665l-192 -255l214 -410h-56l-194 367l-150 -196v-171h-49v665h49v-422l321 422h57zM264 -76l-58 -182l26 -13c42 68 61 101 75 130c4 8 12 23 12 35c0 25 -28 29 -55 30z" />
    <glyph glyph-name="kcommaaccent" unicode="&#x137;" horiz-adv-x="474" 
d="M313 506c82 0 116 -54 116 -126c0 -67 -35 -144 -128 -184l124 -196h-58l-115 180c-35 -8 -75 -12 -121 -11v-169h-50v695h50v-339c23 72 86 150 182 150zM378 376c0 51 -21 88 -71 88c-94 0 -170 -144 -177 -252c169 -10 248 78 248 164zM207 -76l-58 -182l26 -13
c42 68 61 101 75 130c4 8 12 23 12 35c0 25 -28 29 -55 30z" />
    <glyph glyph-name="kgreenlandic" unicode="&#x138;" horiz-adv-x="474" 
d="M313 506c82 0 116 -54 116 -126c0 -67 -35 -144 -128 -184l124 -196h-58l-115 180c-35 -8 -75 -12 -121 -11v-169h-50v492h50v-136c23 72 86 150 182 150zM378 376c0 51 -21 88 -71 88c-94 0 -170 -144 -177 -252c169 -10 248 78 248 164z" />
    <glyph glyph-name="Lacute" unicode="&#x139;" horiz-adv-x="478" 
d="M92 0v665h50v-622h306v-43h-356zM73 745l147 143c20 -11 39 -22 39 -40c0 -16 -18 -28 -28 -36c-25 -19 -70 -48 -140 -91z" />
    <glyph glyph-name="lacute" unicode="&#x13a;" horiz-adv-x="288" 
d="M82 694h50v-553c0 -87 15 -114 70 -114c25 0 50 8 68 17l13 -37c-17 -11 -50 -21 -90 -21c-106 0 -111 70 -111 150v558zM59 745l147 143c20 -11 39 -22 39 -40c0 -16 -18 -28 -28 -36c-25 -19 -70 -48 -140 -91z" />
    <glyph glyph-name="Lcommaaccent" unicode="&#x13b;" horiz-adv-x="478" 
d="M92 0v665h50v-622h306v-43h-356zM243 -76l-58 -182l26 -13c42 68 61 101 75 130c4 8 12 23 12 35c0 25 -28 29 -55 30z" />
    <glyph glyph-name="lcommaaccent" unicode="&#x13c;" horiz-adv-x="288" 
d="M82 694h50v-553c0 -87 15 -114 70 -114c25 0 50 8 68 17l13 -37c-17 -11 -50 -21 -90 -21c-106 0 -111 70 -111 150v558zM160 -76l-58 -182l26 -13c42 68 61 101 75 130c4 8 12 23 12 35c0 25 -28 29 -55 30z" />
    <glyph glyph-name="Lcaron" unicode="&#x13d;" horiz-adv-x="478" 
d="M92 0v665h50v-622h306v-43h-356zM319 659v-190l30 -5c14 53 34 136 34 174c0 13 -7 27 -27 27c-12 0 -25 -3 -37 -6z" />
    <glyph glyph-name="lcaron" unicode="&#x13e;" horiz-adv-x="288" 
d="M82 694h50v-553c0 -87 15 -114 70 -114c25 0 50 8 68 17l13 -37c-17 -11 -50 -21 -90 -21c-106 0 -111 70 -111 150v558zM273 499v190c12 3 25 6 37 6c20 0 27 -14 27 -27c0 -38 -20 -121 -34 -174z" />
    <glyph glyph-name="Ldot" unicode="&#x13f;" horiz-adv-x="478" 
d="M92 0v665h50v-622h306v-43h-356zM323 353c0 24 18 42 41 42c22 0 40 -18 40 -42c0 -26 -19 -43 -41 -43c-23 0 -40 17 -40 43z" />
    <glyph glyph-name="ldot" unicode="&#x140;" horiz-adv-x="288" 
d="M82 694h50v-553c0 -87 15 -114 70 -114c25 0 50 8 68 17l13 -37c-17 -11 -50 -21 -90 -21c-106 0 -111 70 -111 150v558zM222 353c0 24 18 42 41 42c22 0 40 -18 40 -42c0 -26 -19 -43 -41 -43c-23 0 -40 17 -40 43z" />
    <glyph glyph-name="Lslash" unicode="&#x141;" horiz-adv-x="478" 
d="M2 222l-21 43l111 59v341h50v-319l207 109l21 -43l-228 -120v-249h306v-43h-356v270z" />
    <glyph glyph-name="lslash" unicode="&#x142;" horiz-adv-x="316" 
d="M110 694h50v-304l116 90l26 -37l-142 -110v-192c0 -87 15 -114 70 -114c25 0 50 8 68 17l13 -37c-17 -11 -50 -21 -90 -21c-106 0 -111 70 -111 150v163l-84 -65l-26 37l110 85v338z" />
    <glyph glyph-name="Nacute" unicode="&#x143;" horiz-adv-x="670" 
d="M530 665h50v-665h-66l-374 613v-613h-50v665h72l368 -605v605zM268 745l147 143c20 -11 39 -22 39 -40c0 -16 -18 -28 -28 -36c-25 -19 -70 -48 -140 -91z" />
    <glyph glyph-name="nacute" unicode="&#x144;" horiz-adv-x="534" 
d="M131 0h-50v426l-4 66h45l9 -77c40 60 101 91 166 91c104 0 158 -59 158 -171v-335h-50v313c0 83 -19 152 -117 152c-88 0 -157 -73 -157 -138v-327zM218 584l106 174c25 -6 49 -13 49 -34c0 -11 -9 -25 -19 -37c-19 -24 -56 -64 -113 -122z" />
    <glyph glyph-name="Ncommaaccent" unicode="&#x145;" horiz-adv-x="670" 
d="M530 665h50v-665h-66l-374 613v-613h-50v665h72l368 -605v605zM314 -76l-58 -182l26 -13c42 68 61 101 75 130c4 8 12 23 12 35c0 25 -28 29 -55 30z" />
    <glyph glyph-name="ncommaaccent" unicode="&#x146;" horiz-adv-x="534" 
d="M131 0h-50v426l-4 66h45l9 -77c40 60 101 91 166 91c104 0 158 -59 158 -171v-335h-50v313c0 83 -19 152 -117 152c-88 0 -157 -73 -157 -138v-327zM245 -76l-58 -182l26 -13c42 68 61 101 75 130c4 8 12 23 12 35c0 25 -28 29 -55 30z" />
    <glyph glyph-name="Ncaron" unicode="&#x147;" horiz-adv-x="670" 
d="M530 665h50v-665h-66l-374 613v-613h-50v665h72l368 -605v605zM462 878l21 -16c-47 -63 -79 -94 -103 -116c-12 -11 -25 -23 -42 -23c-16 0 -28 7 -42 20c-28 27 -58 57 -105 118l21 17l126 -97z" />
    <glyph glyph-name="ncaron" unicode="&#x148;" horiz-adv-x="534" 
d="M131 0h-50v426l-4 66h45l9 -77c40 60 101 91 166 91c104 0 158 -59 158 -171v-335h-50v313c0 83 -19 152 -117 152c-88 0 -157 -73 -157 -138v-327zM383 751l22 -16c-45 -66 -74 -104 -92 -126c-10 -13 -23 -23 -40 -23c-16 0 -28 7 -40 22c-21 25 -49 60 -92 127l21 17
l111 -105z" />
    <glyph glyph-name="napostrophe" unicode="&#x149;" horiz-adv-x="534" 
d="M131 0h-50v426l-4 66h45l9 -77c40 60 101 91 166 91c104 0 158 -59 158 -171v-335h-50v313c0 83 -19 152 -117 152c-88 0 -157 -73 -157 -138v-327zM45 571l36 188c27 2 58 2 58 -23c0 -12 -5 -28 -8 -36c-10 -31 -25 -66 -59 -138z" />
    <glyph glyph-name="Eng" unicode="&#x14a;" horiz-adv-x="662" 
d="M525 665h50v-720c0 -98 -40 -155 -154 -155c-72 0 -131 34 -151 59l28 36c31 -28 74 -52 127 -52c81 0 100 50 100 109v33l-390 638v-613h-50v665h72l368 -605v605z" />
    <glyph glyph-name="eng" unicode="&#x14b;" horiz-adv-x="525" 
d="M396 -80v391c0 83 -19 152 -121 152c-80 0 -153 -71 -153 -136v-327h-50v426l-4 66h45l9 -77c40 60 105 89 166 89c104 0 158 -59 158 -171v-390c0 -94 -8 -166 -122 -166c-33 0 -81 9 -108 28l18 39c28 -16 62 -26 94 -26c47 0 68 20 68 102z" />
    <glyph glyph-name="Omacron" unicode="&#x14c;" horiz-adv-x="660" 
d="M600 331c0 -230 -105 -343 -272 -343s-268 114 -268 343c0 257 143 346 276 346c141 0 264 -91 264 -346zM112 333c0 -144 41 -301 224 -301c161 0 212 149 212 296c0 129 -45 304 -212 304c-164 0 -224 -152 -224 -299zM220 747v50h243v-50h-243z" />
    <glyph glyph-name="omacron" unicode="&#x14d;" horiz-adv-x="520" 
d="M259 27c-131 0 -154 129 -154 232c0 116 50 204 159 204c112 0 152 -94 152 -219c0 -113 -48 -217 -157 -217zM55 252c0 -180 75 -266 197 -266s214 78 214 276c0 223 -130 244 -196 244c-96 0 -215 -48 -215 -254zM146 617v50h243v-50h-243z" />
    <glyph glyph-name="Obreve" unicode="&#x14e;" horiz-adv-x="660" 
d="M600 331c0 -230 -105 -343 -272 -343s-268 114 -268 343c0 257 143 346 276 346c141 0 264 -91 264 -346zM112 333c0 -144 41 -301 224 -301c161 0 212 149 212 296c0 129 -45 304 -212 304c-164 0 -224 -152 -224 -299zM332 721c-81 0 -123 39 -142 111l48 15
c18 -56 45 -81 98 -81c56 0 80 21 101 81l45 -14c-21 -71 -60 -112 -150 -112z" />
    <glyph glyph-name="obreve" unicode="&#x14f;" horiz-adv-x="520" 
d="M259 27c-131 0 -154 129 -154 232c0 116 50 204 159 204c112 0 152 -94 152 -219c0 -113 -48 -217 -157 -217zM55 252c0 -180 75 -266 197 -266s214 78 214 276c0 223 -130 244 -196 244c-96 0 -215 -48 -215 -254zM365 719l45 -7c-24 -89 -78 -128 -146 -128
c-81 0 -125 54 -140 128l48 7c17 -67 49 -90 95 -90c40 0 76 17 98 90z" />
    <glyph glyph-name="Ohungarumlaut" unicode="&#x150;" horiz-adv-x="660" 
d="M600 331c0 -230 -105 -343 -272 -343s-268 114 -268 343c0 257 143 346 276 346c141 0 264 -91 264 -346zM112 333c0 -144 41 -301 224 -301c161 0 212 149 212 296c0 129 -45 304 -212 304c-164 0 -224 -152 -224 -299zM381 745l147 143c20 -11 39 -22 39 -40
c0 -16 -18 -28 -28 -36c-25 -19 -70 -48 -140 -91zM220 745l147 143c20 -11 39 -22 39 -40c0 -16 -18 -28 -28 -36c-25 -19 -70 -48 -140 -91z" />
    <glyph glyph-name="ohungarumlaut" unicode="&#x151;" horiz-adv-x="520" 
d="M259 27c109 0 157 104 157 217c0 125 -40 219 -152 219c-109 0 -159 -88 -159 -204c0 -103 23 -232 154 -232zM55 252c0 206 119 254 215 254c66 0 196 -21 196 -244c0 -198 -92 -276 -214 -276s-197 86 -197 266zM296 584l106 174c25 -6 49 -13 49 -34
c0 -11 -9 -25 -19 -37c-19 -24 -56 -64 -113 -122zM160 584l106 174c25 -6 49 -13 49 -34c0 -11 -9 -25 -19 -37c-19 -24 -56 -64 -113 -122z" />
    <glyph glyph-name="OE" unicode="&#x152;" horiz-adv-x="844" 
d="M812 0h-364c-29 -7 -64 -12 -100 -12c-177 0 -288 114 -288 343c0 257 153 346 296 346c32 0 65 -5 94 -12h355v-43h-303v-261h260v-43h-260v-275h310v-43zM112 333c0 -144 51 -301 244 -301c37 0 70 6 96 15v567c-30 12 -62 18 -96 18c-174 0 -244 -152 -244 -299z" />
    <glyph glyph-name="oe" unicode="&#x153;" horiz-adv-x="807" 
d="M55 251c0 206 119 255 215 255c50 0 136 -15 174 -124c33 78 104 124 192 124c90 0 137 -49 137 -114c0 -169 -230 -175 -312 -168c3 -94 45 -195 165 -195c73 0 115 36 129 47l25 -35c-31 -26 -83 -55 -153 -55c-97 0 -163 49 -191 124c-33 -83 -103 -124 -184 -124
c-122 0 -197 85 -197 265zM259 27c109 0 157 103 157 216c0 125 -40 220 -152 220c-109 0 -159 -89 -159 -205c0 -103 23 -231 154 -231zM722 381c0 54 -36 85 -88 85c-124 0 -169 -119 -172 -201c54 -5 260 -1 260 116z" />
    <glyph glyph-name="Racute" unicode="&#x154;" horiz-adv-x="578" 
d="M140 281v-281h-50v665h203c135 0 216 -50 216 -176c0 -123 -75 -171 -133 -187c40 -11 48 -25 70 -73l107 -229h-53l-100 208c-19 40 -39 73 -85 73h-175zM140 324h150c102 0 167 58 167 162c0 128 -79 136 -219 136h-98v-298zM219 745l147 143c20 -11 39 -22 39 -40
c0 -16 -18 -28 -28 -36c-25 -19 -70 -48 -140 -91z" />
    <glyph glyph-name="racute" unicode="&#x155;" horiz-adv-x="333" 
d="M131 322v-322h-50v434l-4 58h46l8 -76c16 47 65 90 127 90c33 0 62 -9 78 -19l-18 -42c-19 10 -44 18 -69 18c-70 0 -114 -67 -118 -141zM143 584l106 174c25 -6 49 -13 49 -34c0 -11 -9 -25 -19 -37c-19 -24 -56 -64 -113 -122z" />
    <glyph glyph-name="Rcommaaccent" unicode="&#x156;" horiz-adv-x="578" 
d="M140 281v-281h-50v665h203c135 0 216 -50 216 -176c0 -123 -75 -171 -133 -187c40 -11 48 -25 70 -73l107 -229h-53l-100 208c-19 40 -39 73 -85 73h-175zM140 324h150c102 0 167 58 167 162c0 128 -79 136 -219 136h-98v-298zM270 -76l-58 -182l26 -13
c42 68 61 101 75 130c4 8 12 23 12 35c0 25 -28 29 -55 30z" />
    <glyph glyph-name="rcommaaccent" unicode="&#x157;" horiz-adv-x="333" 
d="M131 322v-322h-50v434l-4 58h46l8 -76c16 47 65 90 127 90c33 0 62 -9 78 -19l-18 -42c-19 10 -44 18 -69 18c-70 0 -114 -67 -118 -141zM101 -76l-58 -182l26 -13c42 68 61 101 75 130c4 8 12 23 12 35c0 25 -28 29 -55 30z" />
    <glyph glyph-name="Rcaron" unicode="&#x158;" horiz-adv-x="578" 
d="M140 281v-281h-50v665h203c135 0 216 -50 216 -176c0 -123 -75 -171 -133 -187c40 -11 48 -25 70 -73l107 -229h-53l-100 208c-19 40 -39 73 -85 73h-175zM140 324h150c102 0 167 58 167 162c0 128 -79 136 -219 136h-98v-298zM399 878l21 -16c-47 -63 -79 -94 -103 -116
c-12 -11 -25 -23 -42 -23c-16 0 -28 7 -42 20c-28 27 -58 57 -105 118l21 17l126 -97z" />
    <glyph glyph-name="rcaron" unicode="&#x159;" horiz-adv-x="333" 
d="M131 322v-322h-50v434l-4 58h46l8 -76c16 47 65 90 127 90c33 0 62 -9 78 -19l-18 -42c-19 10 -44 18 -69 18c-70 0 -114 -67 -118 -141zM304 751l22 -16c-45 -66 -74 -104 -92 -126c-10 -13 -23 -23 -40 -23c-16 0 -28 7 -40 22c-21 25 -49 60 -92 127l21 17l111 -105z
" />
    <glyph glyph-name="Sacute" unicode="&#x15a;" horiz-adv-x="528" 
d="M54 46l25 42c27 -19 92 -55 179 -55c76 0 161 23 161 142c0 92 -80 119 -165 146c-92 29 -190 60 -190 180c0 104 81 176 202 176c89 0 164 -43 207 -86l-30 -35c-52 47 -110 76 -178 76c-64 0 -148 -27 -148 -125c0 -90 74 -115 168 -144c92 -28 185 -63 185 -187
c0 -121 -77 -188 -215 -188c-95 0 -179 39 -201 58zM202 745l147 143c20 -11 39 -22 39 -40c0 -16 -18 -28 -28 -36c-25 -19 -70 -48 -140 -91z" />
    <glyph glyph-name="sacute" unicode="&#x15b;" horiz-adv-x="395" 
d="M36 32l22 38c27 -18 74 -43 136 -43c59 0 115 32 115 100c0 67 -51 87 -115 104c-72 19 -149 40 -149 137c0 96 76 138 157 138c68 0 124 -31 155 -65l-31 -33c-30 31 -74 57 -130 57c-48 0 -105 -24 -105 -93c0 -63 53 -81 117 -100c71 -21 149 -41 149 -140
c0 -94 -69 -146 -165 -146c-77 0 -138 29 -156 46zM155 584l106 174c25 -6 49 -13 49 -34c0 -11 -9 -25 -19 -37c-19 -24 -56 -64 -113 -122z" />
    <glyph glyph-name="Scircumflex" unicode="&#x15c;" horiz-adv-x="528" 
d="M54 46l25 42c27 -19 92 -55 179 -55c76 0 161 23 161 142c0 92 -80 119 -165 146c-92 29 -190 60 -190 180c0 104 81 176 202 176c89 0 164 -43 207 -86l-30 -35c-52 47 -110 76 -178 76c-64 0 -148 -27 -148 -125c0 -90 74 -115 168 -144c92 -28 185 -63 185 -187
c0 -121 -77 -188 -215 -188c-95 0 -179 39 -201 58zM152 723l-21 16c47 63 79 94 103 116c12 11 25 23 42 23c16 0 28 -7 42 -20c28 -27 58 -57 105 -118l-21 -17l-126 97z" />
    <glyph glyph-name="scircumflex" unicode="&#x15d;" horiz-adv-x="395" 
d="M36 32l22 38c27 -18 74 -43 136 -43c59 0 115 32 115 100c0 67 -51 87 -115 104c-72 19 -149 40 -149 137c0 96 76 138 157 138c68 0 124 -31 155 -65l-31 -33c-30 31 -74 57 -130 57c-48 0 -105 -24 -105 -93c0 -63 53 -81 117 -100c71 -21 149 -41 149 -140
c0 -94 -69 -146 -165 -146c-77 0 -138 29 -156 46zM99 587l-22 16c45 66 74 104 92 126c10 13 23 23 40 23c16 0 28 -7 40 -22c21 -25 49 -60 92 -127l-21 -17l-111 105z" />
    <glyph glyph-name="Scedilla" unicode="&#x15e;" horiz-adv-x="528" 
d="M54 46l25 42c27 -19 92 -55 179 -55c76 0 161 23 161 142c0 92 -80 119 -165 146c-92 29 -190 60 -190 180c0 104 81 176 202 176c89 0 164 -43 207 -86l-30 -35c-52 47 -110 76 -178 76c-64 0 -148 -27 -148 -125c0 -90 74 -115 168 -144c92 -28 185 -63 185 -187
c0 -115 -69 -180 -193 -187l-17 -66c45 -2 80 -21 80 -70c0 -52 -42 -83 -98 -83c-21 0 -54 6 -76 18l11 34c15 -6 42 -13 65 -13c44 0 52 23 52 42c0 32 -27 42 -88 42l29 96c-86 5 -161 39 -181 57z" />
    <glyph glyph-name="scedilla" unicode="&#x15f;" horiz-adv-x="395" 
d="M36 32l22 38c27 -18 74 -43 136 -43c59 0 115 32 115 100c0 67 -51 87 -115 104c-72 19 -149 40 -149 137c0 96 76 138 157 138c68 0 124 -31 155 -65l-31 -33c-30 31 -74 57 -130 57c-48 0 -105 -24 -105 -93c0 -63 53 -81 117 -100c71 -21 149 -41 149 -140
c0 -86 -58 -137 -141 -145l-17 -64c45 -2 80 -21 80 -70c0 -52 -42 -83 -98 -83c-21 0 -54 6 -76 18l11 34c15 -6 42 -13 65 -13c44 0 52 23 52 42c0 32 -27 42 -88 42l29 94c-69 4 -122 29 -138 45z" />
    <glyph glyph-name="Scaron" unicode="&#x160;" horiz-adv-x="528" 
d="M54 46l25 42c27 -19 92 -55 179 -55c76 0 161 23 161 142c0 92 -80 119 -165 146c-92 29 -190 60 -190 180c0 104 81 176 202 176c89 0 164 -43 207 -86l-30 -35c-52 47 -110 76 -178 76c-64 0 -148 -27 -148 -125c0 -90 74 -115 168 -144c92 -28 185 -63 185 -187
c0 -121 -77 -188 -215 -188c-95 0 -179 39 -201 58zM393 878l21 -16c-47 -63 -79 -94 -103 -116c-12 -11 -25 -23 -42 -23c-16 0 -28 7 -42 20c-28 27 -58 57 -105 118l21 17l126 -97z" />
    <glyph glyph-name="scaron" unicode="&#x161;" horiz-adv-x="395" 
d="M36 32l22 38c27 -18 74 -43 136 -43c59 0 115 32 115 100c0 67 -51 87 -115 104c-72 19 -149 40 -149 137c0 96 76 138 157 138c68 0 124 -31 155 -65l-31 -33c-30 31 -74 57 -130 57c-48 0 -105 -24 -105 -93c0 -63 53 -81 117 -100c71 -21 149 -41 149 -140
c0 -94 -69 -146 -165 -146c-77 0 -138 29 -156 46zM318 751l22 -16c-45 -66 -74 -104 -92 -126c-10 -13 -23 -23 -40 -23c-16 0 -28 7 -40 22c-21 25 -49 60 -92 127l21 17l111 -105z" />
    <glyph glyph-name="Scommaaccent" unicode="&#x218;" horiz-adv-x="528" 
d="M54 46l25 42c27 -19 92 -55 179 -55c76 0 161 23 161 142c0 92 -80 119 -165 146c-92 29 -190 60 -190 180c0 104 81 176 202 176c89 0 164 -43 207 -86l-30 -35c-52 47 -110 76 -178 76c-64 0 -148 -27 -148 -125c0 -90 74 -115 168 -144c92 -28 185 -63 185 -187
c0 -121 -77 -188 -215 -188c-95 0 -179 39 -201 58zM237 -76l-58 -182l26 -13c42 68 61 101 75 130c4 8 12 23 12 35c0 25 -28 29 -55 30z" />
    <glyph glyph-name="scommaaccent" unicode="&#x219;" horiz-adv-x="395" 
d="M36 32l22 38c27 -18 74 -43 136 -43c59 0 115 32 115 100c0 67 -51 87 -115 104c-72 19 -149 40 -149 137c0 96 76 138 157 138c68 0 124 -31 155 -65l-31 -33c-30 31 -74 57 -130 57c-48 0 -105 -24 -105 -93c0 -63 53 -81 117 -100c71 -21 149 -41 149 -140
c0 -94 -69 -146 -165 -146c-77 0 -138 29 -156 46zM184 -76l-58 -182l26 -13c42 68 61 101 75 130c4 8 12 23 12 35c0 25 -28 29 -55 30z" />
    <glyph glyph-name="uni021A" unicode="&#x21a;" horiz-adv-x="503" 
d="M20 665h463v-43h-208v-622h-50v622h-205v43zM215 -76l-58 -182l26 -13c42 68 61 101 75 130c4 8 12 23 12 35c0 25 -28 29 -55 30z" />
    <glyph glyph-name="uni021B" unicode="&#x21b;" horiz-adv-x="321" 
d="M81 695h50v-203h148v-40h-148v-333c0 -72 28 -92 78 -92c38 0 65 16 82 27l19 -35c-28 -21 -69 -33 -104 -33c-109 0 -125 58 -125 137v572zM165 -76l-58 -182l26 -13c42 68 61 101 75 130c4 8 12 23 12 35c0 25 -28 29 -55 30z" />
    <glyph glyph-name="Tcaron" unicode="&#x164;" horiz-adv-x="503" 
d="M20 665h463v-43h-208v-622h-50v622h-205v43zM376 878l21 -16c-47 -63 -79 -94 -103 -116c-12 -11 -25 -23 -42 -23c-16 0 -28 7 -42 20c-28 27 -58 57 -105 118l21 17l126 -97z" />
    <glyph glyph-name="tcaron" unicode="&#x165;" horiz-adv-x="321" 
d="M81 695h50v-203h148v-40h-148v-333c0 -72 28 -92 78 -92c38 0 65 16 82 27l19 -35c-28 -21 -69 -33 -104 -33c-109 0 -125 58 -125 137v572zM249 570v190c12 3 25 6 37 6c20 0 27 -14 27 -27c0 -38 -20 -121 -34 -174z" />
    <glyph glyph-name="Tbar" unicode="&#x166;" horiz-adv-x="475" 
d="M19 665h463v-43h-208v-243h148v-42h-148v-337h-50v337h-150v42h150v243h-205v43z" />
    <glyph glyph-name="tbar" unicode="&#x167;" horiz-adv-x="321" 
d="M81 695h50v-203h148v-40h-148v-152h148v-40h-148v-141c0 -72 28 -92 78 -92c38 0 65 16 82 27l19 -35c-28 -21 -69 -33 -104 -33c-109 0 -125 58 -125 137v572z" />
    <glyph glyph-name="uni0162" unicode="&#x162;" horiz-adv-x="503" 
d="M20 665h463v-43h-208v-622h-5l-20 -77c45 -2 80 -21 80 -70c0 -52 -42 -83 -98 -83c-21 0 -54 6 -76 18l11 34c15 -6 42 -13 65 -13c44 0 52 23 52 42c0 32 -27 42 -88 42l33 107h-4v622h-205v43z" />
    <glyph glyph-name="uni0163" unicode="&#x163;" horiz-adv-x="321" 
d="M81 695h50v-203h148v-40h-148v-333c0 -72 28 -92 78 -92c38 0 65 16 82 27l19 -35c-26 -19 -61 -31 -94 -33l-16 -63c45 -2 80 -21 80 -70c0 -52 -42 -83 -98 -83c-21 0 -54 6 -76 18l11 34c15 -6 42 -13 65 -13c44 0 52 23 52 42c0 32 -27 42 -88 42l29 95
c-81 10 -94 64 -94 135v572z" />
    <glyph glyph-name="Utilde" unicode="&#x168;" horiz-adv-x="629" 
d="M85 665h50v-465c0 -130 77 -169 183 -169c105 0 176 53 176 164v470h50v-483c0 -126 -94 -194 -231 -194c-150 0 -228 60 -228 212v465zM182 743l-6 47c23 18 53 26 78 26c49 0 84 -25 127 -25c20 0 41 7 58 17l7 -50c-20 -10 -38 -17 -65 -17c-42 0 -92 21 -129 21
c-25 0 -46 -6 -70 -19z" />
    <glyph glyph-name="utilde" unicode="&#x169;" horiz-adv-x="534" 
d="M404 492h50v-426l5 -66h-46l-9 74c-39 -62 -103 -88 -166 -88c-104 0 -158 55 -158 167v339h50v-317c0 -83 19 -148 121 -148c80 0 153 71 153 136v329zM138 620l-6 47c23 18 53 26 78 26c49 0 84 -25 127 -25c20 0 41 7 58 17l7 -50c-20 -10 -38 -17 -65 -17
c-42 0 -92 21 -129 21c-25 0 -46 -6 -70 -19z" />
    <glyph glyph-name="Umacron" unicode="&#x16a;" horiz-adv-x="629" 
d="M85 665h50v-465c0 -130 77 -169 183 -169c105 0 176 53 176 164v470h50v-483c0 -126 -94 -194 -231 -194c-150 0 -228 60 -228 212v465zM189 747v50h243v-50h-243z" />
    <glyph glyph-name="umacron" unicode="&#x16b;" horiz-adv-x="534" 
d="M404 492h50v-426l5 -66h-46l-9 74c-39 -62 -103 -88 -166 -88c-104 0 -158 55 -158 167v339h50v-317c0 -83 19 -148 121 -148c80 0 153 71 153 136v329zM143 617v50h243v-50h-243z" />
    <glyph glyph-name="Ubreve" unicode="&#x16c;" horiz-adv-x="629" 
d="M85 665h50v-465c0 -130 77 -169 183 -169c105 0 176 53 176 164v470h50v-483c0 -126 -94 -194 -231 -194c-150 0 -228 60 -228 212v465zM309 721c-81 0 -123 39 -142 111l48 15c18 -56 45 -81 98 -81c56 0 80 21 101 81l45 -14c-21 -71 -60 -112 -150 -112z" />
    <glyph glyph-name="ubreve" unicode="&#x16d;" horiz-adv-x="534" 
d="M404 492h50v-426l5 -66h-46l-9 74c-39 -62 -103 -88 -166 -88c-104 0 -158 55 -158 167v339h50v-317c0 -83 19 -148 121 -148c80 0 153 71 153 136v329zM367 719l45 -7c-24 -89 -78 -128 -146 -128c-81 0 -125 54 -140 128l48 7c17 -67 49 -90 95 -90c40 0 76 17 98 90z
" />
    <glyph glyph-name="Uring" unicode="&#x16e;" horiz-adv-x="629" 
d="M85 665h50v-465c0 -130 77 -169 183 -169c105 0 176 53 176 164v470h50v-483c0 -126 -94 -194 -231 -194c-150 0 -228 60 -228 212v465zM230 783c0 50 33 88 86 88c54 0 86 -38 86 -83c0 -52 -34 -89 -88 -89s-84 37 -84 84zM273 783c0 -30 13 -48 43 -48s43 21 43 48
c0 32 -12 53 -43 53c-32 0 -43 -21 -43 -53z" />
    <glyph glyph-name="uring" unicode="&#x16f;" horiz-adv-x="534" 
d="M404 492h50v-426l5 -66h-46l-9 74c-39 -62 -103 -88 -166 -88c-104 0 -158 55 -158 167v339h50v-317c0 -83 19 -148 121 -148c80 0 153 71 153 136v329zM178 664c0 50 33 88 86 88c54 0 86 -38 86 -83c0 -52 -34 -89 -88 -89s-84 37 -84 84zM221 664c0 -30 13 -48 43 -48
s43 21 43 48c0 32 -12 53 -43 53c-32 0 -43 -21 -43 -53z" />
    <glyph glyph-name="Uhungarumlaut" unicode="&#x170;" horiz-adv-x="629" 
d="M85 665h50v-465c0 -130 77 -169 183 -169c105 0 176 53 176 164v470h50v-483c0 -126 -94 -194 -231 -194c-150 0 -228 60 -228 212v465zM346 745l147 143c20 -11 39 -22 39 -40c0 -16 -18 -28 -28 -36c-25 -19 -70 -48 -140 -91zM185 745l147 143c20 -11 39 -22 39 -40
c0 -16 -18 -28 -28 -36c-25 -19 -70 -48 -140 -91z" />
    <glyph glyph-name="uhungarumlaut" unicode="&#x171;" horiz-adv-x="534" 
d="M404 492h50v-426l5 -66h-46l-9 74c-39 -62 -103 -88 -166 -88c-104 0 -158 55 -158 167v339h50v-317c0 -83 19 -148 121 -148c80 0 153 71 153 136v329zM297 584l106 174c25 -6 49 -13 49 -34c0 -11 -9 -25 -19 -37c-19 -24 -56 -64 -113 -122zM161 584l106 174
c25 -6 49 -13 49 -34c0 -11 -9 -25 -19 -37c-19 -24 -56 -64 -113 -122z" />
    <glyph glyph-name="Uogonek" unicode="&#x172;" horiz-adv-x="629" 
d="M85 665h50v-465c0 -130 77 -169 183 -169c105 0 176 53 176 164v470h50v-483c0 -95 -48 -142 -121 -180c-53 -27 -87 -92 -87 -137c0 -33 13 -51 44 -51c18 0 37 5 52 11l13 -39c-26 -12 -49 -18 -80 -18c-67 0 -84 45 -84 85c0 52 32 102 60 136c-9 0 -18 -1 -28 -1
c-150 0 -228 60 -228 212v465z" />
    <glyph glyph-name="uogonek" unicode="&#x173;" horiz-adv-x="534" 
d="M412 7l-8 67c-39 -62 -103 -88 -166 -88c-104 0 -158 55 -158 167v339h50v-317c0 -83 19 -148 121 -148c80 0 153 71 153 136v329h50v-426l8 -65c-33 -29 -66 -91 -66 -136c0 -33 13 -51 44 -51c18 0 37 5 52 11l13 -39c-26 -12 -49 -18 -80 -18c-67 0 -84 45 -84 85
c0 59 39 118 71 154z" />
    <glyph glyph-name="Wcircumflex" unicode="&#x174;" horiz-adv-x="808" 
d="M542 0l-141 538l-138 -538h-74l-154 665h51l142 -617l142 560h63l146 -560l143 617h51l-157 -665h-74zM276 723l-21 16c47 63 79 94 103 116c12 11 25 23 42 23c16 0 28 -7 42 -20c28 -27 58 -57 105 -118l-21 -17l-126 97z" />
    <glyph glyph-name="wcircumflex" unicode="&#x175;" horiz-adv-x="794" 
d="M650 492h49c18 -59 37 -122 37 -202c0 -177 -60 -304 -204 -304c-76 0 -119 42 -132 105c-46 -80 -106 -105 -170 -105c-97 0 -150 51 -150 164v342h50v-294c0 -85 2 -171 107 -171c82 0 145 70 145 142v323h50v-300c0 -83 6 -165 105 -165c136 0 151 165 151 258
c0 86 -21 148 -38 207zM296 587l-22 16c45 66 74 104 92 126c10 13 23 23 40 23c16 0 28 -7 40 -22c21 -25 49 -60 92 -127l-21 -17l-111 105z" />
    <glyph glyph-name="Wgrave" unicode="&#x1e80;" horiz-adv-x="808" 
d="M542 0l-141 538l-138 -538h-74l-154 665h51l142 -617l142 560h63l146 -560l143 617h51l-157 -665h-74zM331 888l147 -143l-18 -24c-70 43 -115 72 -140 91c-10 8 -28 20 -28 36c0 18 19 29 39 40z" />
    <glyph glyph-name="wgrave" unicode="&#x1e81;" horiz-adv-x="794" 
d="M650 492h49c18 -59 37 -122 37 -202c0 -177 -60 -304 -204 -304c-76 0 -119 42 -132 105c-46 -80 -106 -105 -170 -105c-97 0 -150 51 -150 164v342h50v-294c0 -85 2 -171 107 -171c82 0 145 70 145 142v323h50v-300c0 -83 6 -165 105 -165c136 0 151 165 151 258
c0 86 -21 148 -38 207zM360 758l106 -174l-23 -19c-57 58 -95 97 -114 121c-10 12 -19 26 -19 37c0 21 25 29 50 35z" />
    <glyph glyph-name="Wacute" unicode="&#x1e82;" horiz-adv-x="808" 
d="M542 0l-141 538l-138 -538h-74l-154 665h51l142 -617l142 560h63l146 -560l143 617h51l-157 -665h-74zM334 745l147 143c20 -11 39 -22 39 -40c0 -16 -18 -28 -28 -36c-25 -19 -70 -48 -140 -91z" />
    <glyph glyph-name="wacute" unicode="&#x1e83;" horiz-adv-x="794" 
d="M650 492h49c18 -59 37 -122 37 -202c0 -177 -60 -304 -204 -304c-76 0 -119 42 -132 105c-46 -80 -106 -105 -170 -105c-97 0 -150 51 -150 164v342h50v-294c0 -85 2 -171 107 -171c82 0 145 70 145 142v323h50v-300c0 -83 6 -165 105 -165c136 0 151 165 151 258
c0 86 -21 148 -38 207zM346 584l106 174c25 -6 49 -13 49 -34c0 -11 -9 -25 -19 -37c-19 -24 -56 -64 -113 -122z" />
    <glyph glyph-name="Wdieresis" unicode="&#x1e84;" horiz-adv-x="808" 
d="M542 0l-141 538l-138 -538h-74l-154 665h51l142 -617l142 560h63l146 -560l143 617h51l-157 -665h-74zM270 780c0 26 19 45 44 45c24 0 43 -19 43 -45c0 -28 -20 -46 -44 -46c-25 0 -43 18 -43 46zM448 780c0 26 19 45 44 45c24 0 43 -19 43 -45c0 -28 -20 -46 -44 -46
c-25 0 -43 18 -43 46z" />
    <glyph glyph-name="wdieresis" unicode="&#x1e85;" horiz-adv-x="794" 
d="M650 492h49c18 -59 37 -122 37 -202c0 -177 -60 -304 -204 -304c-76 0 -119 42 -132 105c-46 -80 -106 -105 -170 -105c-97 0 -150 51 -150 164v342h50v-294c0 -85 2 -171 107 -171c82 0 145 70 145 142v323h50v-300c0 -83 6 -165 105 -165c136 0 151 165 151 258
c0 86 -21 148 -38 207zM280 648c0 26 19 45 44 45c24 0 43 -19 43 -45c0 -28 -20 -46 -44 -46c-25 0 -43 18 -43 46zM448 648c0 26 19 45 44 45c24 0 43 -19 43 -45c0 -28 -20 -46 -44 -46c-25 0 -43 18 -43 46z" />
    <glyph glyph-name="Ygrave" unicode="&#x1ef2;" horiz-adv-x="503" 
d="M493 665h-57l-181 -358l-187 358h-58l219 -413v-252h50v252zM176 888l147 -143l-18 -24c-70 43 -115 72 -140 91c-10 8 -28 20 -28 36c0 18 19 29 39 40z" />
    <glyph glyph-name="ygrave" unicode="&#x1ef3;" horiz-adv-x="532" 
d="M452 492v-500c0 -49 -6 -101 -19 -138c-27 -75 -85 -120 -178 -120c-98 0 -144 48 -144 122c0 85 69 144 114 172c-78 6 -145 42 -145 165v299h50v-279c0 -82 8 -148 132 -148c76 0 142 55 142 133v294h48zM161 -139c0 -57 36 -86 98 -86c105 0 143 89 143 212v89
c-141 -56 -241 -113 -241 -215zM201 758l106 -174l-23 -19c-57 58 -95 97 -114 121c-10 12 -19 26 -19 37c0 21 25 29 50 35z" />
    <glyph glyph-name="Ycircumflex" unicode="&#x176;" horiz-adv-x="503" 
d="M493 665h-57l-181 -358l-187 358h-58l219 -413v-252h50v252zM127 723l-21 16c47 63 79 94 103 116c12 11 25 23 42 23c16 0 28 -7 42 -20c28 -27 58 -57 105 -118l-21 -17l-126 97z" />
    <glyph glyph-name="ycircumflex" unicode="&#x177;" horiz-adv-x="532" 
d="M452 492v-500c0 -49 -6 -101 -19 -138c-27 -75 -85 -120 -178 -120c-98 0 -144 48 -144 122c0 85 69 144 114 172c-78 6 -145 42 -145 165v299h50v-279c0 -82 8 -148 132 -148c76 0 142 55 142 133v294h48zM161 -139c0 -57 36 -86 98 -86c105 0 143 89 143 212v89
c-141 -56 -241 -113 -241 -215zM150 587l-22 16c45 66 74 104 92 126c10 13 23 23 40 23c16 0 28 -7 40 -22c21 -25 49 -60 92 -127l-21 -17l-111 105z" />
    <glyph glyph-name="Ydieresis" unicode="&#x178;" horiz-adv-x="503" 
d="M493 665h-57l-181 -358l-187 358h-58l219 -413v-252h50v252zM119 780c0 26 19 45 44 45c24 0 43 -19 43 -45c0 -28 -20 -46 -44 -46c-25 0 -43 18 -43 46zM297 780c0 26 19 45 44 45c24 0 43 -19 43 -45c0 -28 -20 -46 -44 -46c-25 0 -43 18 -43 46z" />
    <glyph glyph-name="Zacute" unicode="&#x179;" horiz-adv-x="477" 
d="M435 611l-348 -568h360v-43h-412v51l349 571h-342v43h393v-54zM178 745l147 143c20 -11 39 -22 39 -40c0 -16 -18 -28 -28 -36c-25 -19 -70 -48 -140 -91z" />
    <glyph glyph-name="zacute" unicode="&#x17a;" horiz-adv-x="383" 
d="M64 -108c0 -63 30 -116 105 -116c92 0 136 72 136 159c0 78 -31 121 -87 154c-115 -54 -154 -136 -154 -197zM353 492v-50l-235 -249l72 -35c130 -62 164 -125 164 -229c0 -125 -88 -194 -184 -194c-106 0 -156 60 -156 150c0 97 64 174 165 227c-34 15 -71 33 -106 50
v49l224 239h-272v42h328zM152 584l106 174c25 -6 49 -13 49 -34c0 -11 -9 -25 -19 -37c-19 -24 -56 -64 -113 -122z" />
    <glyph glyph-name="Zdotaccent" unicode="&#x17b;" horiz-adv-x="477" 
d="M435 611l-348 -568h360v-43h-412v51l349 571h-342v43h393v-54zM199 782c0 24 18 42 41 42c22 0 40 -18 40 -42c0 -26 -19 -43 -41 -43c-23 0 -40 17 -40 43z" />
    <glyph glyph-name="zdotaccent" unicode="&#x17c;" horiz-adv-x="383" 
d="M64 -108c0 61 39 143 154 197c56 -33 87 -76 87 -154c0 -87 -44 -159 -136 -159c-75 0 -105 53 -105 116zM353 442v50h-328v-42h272l-224 -239v-49c35 -17 72 -35 106 -50c-101 -53 -165 -130 -165 -227c0 -90 50 -150 156 -150c96 0 184 69 184 194
c0 104 -34 167 -164 229l-72 35zM148 633c0 24 18 42 41 42c22 0 40 -18 40 -42c0 -26 -19 -43 -41 -43c-23 0 -40 17 -40 43z" />
    <glyph glyph-name="Zcaron" unicode="&#x17d;" horiz-adv-x="477" 
d="M435 611l-348 -568h360v-43h-412v51l349 571h-342v43h393v-54zM366 878l21 -16c-47 -63 -79 -94 -103 -116c-12 -11 -25 -23 -42 -23c-16 0 -28 7 -42 20c-28 27 -58 57 -105 118l21 17l126 -97z" />
    <glyph glyph-name="zcaron" unicode="&#x17e;" horiz-adv-x="383" 
d="M64 -108c0 61 39 143 154 197c56 -33 87 -76 87 -154c0 -87 -44 -159 -136 -159c-75 0 -105 53 -105 116zM353 442v50h-328v-42h272l-224 -239v-49c35 -17 72 -35 106 -50c-101 -53 -165 -130 -165 -227c0 -90 50 -150 156 -150c96 0 184 69 184 194
c0 104 -34 167 -164 229l-72 35zM302 751l22 -16c-45 -66 -74 -104 -92 -126c-10 -13 -23 -23 -40 -23c-16 0 -28 7 -40 22c-21 25 -49 60 -92 127l21 17l111 -105z" />
    <glyph glyph-name="longs" unicode="&#x17f;" horiz-adv-x="286" 
d="M122 543v-753h-50v756c0 63 16 159 152 159c37 0 89 -13 111 -25l-17 -40c-24 11 -62 22 -100 22c-75 0 -96 -46 -96 -119z" />
    <glyph glyph-name="dotlessj" unicode="&#x237;" horiz-adv-x="212" 
d="M82 -75v567h50v-541c0 -94 -6 -174 -125 -174c-30 0 -77 10 -104 29l17 38c28 -16 55 -26 89 -26c49 0 73 25 73 107z" />
    <glyph glyph-name="circumflex" unicode="&#x2c6;" horiz-adv-x="500" 
d="M138 587l-22 16c45 66 74 104 92 126c10 13 23 23 40 23c16 0 28 -7 40 -22c21 -25 49 -60 92 -127l-21 -17l-111 105z" />
    <glyph glyph-name="caron" unicode="&#x2c7;" horiz-adv-x="500" 
d="M353 751l22 -16c-45 -66 -74 -104 -92 -126c-10 -13 -23 -23 -40 -23c-16 0 -28 7 -40 22c-21 25 -49 60 -92 127l21 17l111 -105z" />
    <glyph glyph-name="uni02C9" unicode="&#x2c9;" horiz-adv-x="500" 
d="M125 617v50h243v-50h-243z" />
    <glyph glyph-name="breve" unicode="&#x2d8;" horiz-adv-x="500" 
d="M353 719l45 -7c-24 -89 -78 -128 -146 -128c-81 0 -125 54 -140 128l48 7c17 -67 49 -90 95 -90c40 0 76 17 98 90z" />
    <glyph glyph-name="dieresis" unicode="&#xa8;" horiz-adv-x="500" 
d="M128 648c0 26 19 45 44 45c24 0 43 -19 43 -45c0 -28 -20 -46 -44 -46c-25 0 -43 18 -43 46zM296 648c0 26 19 45 44 45c24 0 43 -19 43 -45c0 -28 -20 -46 -44 -46c-25 0 -43 18 -43 46z" />
    <glyph glyph-name="macron" unicode="&#xaf;" horiz-adv-x="500" 
d="M125 617v50h243v-50h-243z" />
    <glyph glyph-name="degree" unicode="&#xb0;" horiz-adv-x="298" 
d="M47 593c0 61 38 106 102 106c65 0 102 -46 102 -100c0 -64 -39 -108 -105 -108c-64 0 -99 44 -99 102zM92 593c0 -38 19 -63 57 -63s57 26 57 63c0 40 -18 67 -57 67c-40 0 -57 -27 -57 -67z" />
    <glyph glyph-name="acute" unicode="&#xb4;" horiz-adv-x="500" 
d="M163 584l106 174c25 -6 49 -13 49 -34c0 -11 -9 -25 -19 -37c-19 -24 -56 -64 -113 -122z" />
    <glyph glyph-name="grave" unicode="`" horiz-adv-x="500" 
d="M228 758l106 -174l-23 -19c-57 58 -95 97 -114 121c-10 12 -19 26 -19 37c0 21 25 29 50 35z" />
    <glyph glyph-name="cedilla" unicode="&#xb8;" horiz-adv-x="500" 
d="M212 3h41l-21 -80c45 -2 80 -21 80 -70c0 -52 -42 -83 -98 -83c-21 0 -54 6 -76 18l11 34c15 -6 42 -13 65 -13c44 0 52 23 52 42c0 32 -27 42 -88 42z" />
    <glyph glyph-name="dotaccent" unicode="&#x2d9;" horiz-adv-x="500" 
d="M213 633c0 24 18 42 41 42c22 0 40 -18 40 -42c0 -26 -19 -43 -41 -43c-23 0 -40 17 -40 43z" />
    <glyph glyph-name="ring" unicode="&#x2da;" horiz-adv-x="500" 
d="M164 664c0 50 33 88 86 88c54 0 86 -38 86 -83c0 -52 -34 -89 -88 -89s-84 37 -84 84zM207 664c0 -30 13 -48 43 -48s43 21 43 48c0 32 -12 53 -43 53c-32 0 -43 -21 -43 -53z" />
    <glyph glyph-name="ogonek" unicode="&#x2db;" horiz-adv-x="500" 
d="M242 2l54 -1c-33 -29 -71 -91 -71 -136c0 -33 13 -51 44 -51c18 0 37 5 52 11l13 -39c-26 -12 -49 -18 -80 -18c-67 0 -84 45 -84 85c0 59 41 116 72 149z" />
    <glyph glyph-name="tilde" unicode="&#x2dc;" horiz-adv-x="500" 
d="M118 620l-6 47c23 18 53 26 78 26c49 0 84 -25 127 -25c20 0 41 7 58 17l7 -50c-20 -10 -38 -17 -65 -17c-42 0 -92 21 -129 21c-25 0 -46 -6 -70 -19z" />
    <glyph glyph-name="hungarumlaut" unicode="&#x2dd;" horiz-adv-x="500" 
d="M270 584l106 174c25 -6 49 -13 49 -34c0 -11 -9 -25 -19 -37c-19 -24 -56 -64 -113 -122zM134 584l106 174c25 -6 49 -13 49 -34c0 -11 -9 -25 -19 -37c-19 -24 -56 -64 -113 -122z" />
    <glyph glyph-name="perthousand" unicode="&#x2030;" horiz-adv-x="876" 
d="M719 305c78 0 127 -51 127 -154c0 -98 -49 -161 -134 -161c-82 0 -126 57 -126 156c0 96 50 159 133 159zM715 30c43 0 85 35 85 119c0 80 -39 116 -83 116c-48 0 -85 -42 -85 -121c0 -78 34 -114 83 -114zM409 305c78 0 127 -51 127 -154c0 -98 -49 -161 -134 -161
c-82 0 -126 57 -126 156c0 96 50 159 133 159zM405 30c43 0 85 35 85 119c0 80 -39 116 -83 116c-48 0 -85 -42 -85 -121c0 -78 34 -114 83 -114zM166 657c78 0 127 -51 127 -154c0 -98 -49 -161 -134 -161c-82 0 -126 57 -126 156c0 96 50 159 133 159zM162 382
c43 0 85 35 85 119c0 80 -39 116 -83 116c-48 0 -85 -42 -85 -121c0 -78 34 -114 83 -114zM95 134l-28 37l440 370l30 -37z" />
    <glyph glyph-name="percent" unicode="%" horiz-adv-x="776" 
d="M599 355c90 0 147 -57 147 -177c0 -113 -51 -188 -152 -188c-96 0 -149 66 -149 181c0 111 58 184 154 184zM596 33c52 0 100 41 100 141c0 96 -44 139 -99 139c-61 0 -102 -50 -102 -143c0 -95 45 -137 101 -137zM187 657c90 0 147 -57 147 -177
c0 -113 -51 -188 -152 -188c-96 0 -149 66 -149 181c0 111 58 184 154 184zM184 335c52 0 100 41 100 141c0 96 -44 139 -99 139c-61 0 -102 -50 -102 -143c0 -95 45 -137 101 -137zM263 0l-45 22l292 628l47 -21z" />
    <glyph glyph-name="fraction" unicode="&#x2044;" horiz-adv-x="208" 
d="M-25 0l-45 22l292 628l47 -21z" />
    <glyph glyph-name="zerosuperior" unicode="&#x2070;" horiz-adv-x="377" 
d="M192 737c92 0 146 -52 146 -198c0 -138 -48 -203 -151 -203c-100 0 -148 58 -148 200c0 137 55 201 153 201zM189 379c58 0 99 30 99 159c0 126 -39 157 -99 157c-62 0 -100 -37 -100 -165c0 -120 38 -151 100 -151z" />
    <glyph glyph-name="onesuperior" unicode="&#xb9;" horiz-adv-x="377" 
d="M102 383h79v295l-94 -45l-18 35l114 63h53l-5 -53v-295h77v-42h-206v42z" />
    <glyph glyph-name="twosuperior" unicode="&#xb2;" horiz-adv-x="377" 
d="M79 657l-22 35c39 25 80 45 139 45c73 0 106 -43 106 -88s-17 -74 -50 -114l-127 -152h194v-42h-252v40l126 152c30 37 59 72 59 109c0 40 -27 53 -66 53c-35 0 -69 -14 -107 -38z" />
    <glyph glyph-name="threesuperior" unicode="&#xb3;" horiz-adv-x="377" 
d="M91 669l-15 35c33 16 77 33 129 33c72 0 102 -42 102 -89c0 -36 -9 -61 -40 -92c30 -45 46 -80 46 -115c0 -52 -37 -105 -130 -105c-45 0 -93 13 -114 24l15 39c25 -11 58 -22 96 -22c55 0 86 22 86 65c0 31 -18 60 -41 96c-34 -13 -66 -22 -82 -26l-11 37
c24 6 38 11 50 15c44 16 79 28 79 76c0 43 -33 55 -70 55c-27 0 -66 -11 -100 -26z" />
    <glyph glyph-name="foursuperior" unicode="&#x2074;" horiz-adv-x="377" 
d="M230 590h31v-117h73v-44h-72v-93h-50v95h-170v42l122 264l38 -17l-113 -247h123v43z" />
    <glyph glyph-name="fivesuperior" unicode="&#x2075;" horiz-adv-x="377" 
d="M93 539l27 193h198v-43h-161l-17 -111c109 -2 178 -27 178 -119c0 -56 -29 -123 -140 -123c-53 0 -108 20 -121 31l19 39c21 -12 55 -28 103 -28c66 0 89 35 89 79c0 80 -95 81 -175 82z" />
    <glyph glyph-name="sixsuperior" unicode="&#x2076;" horiz-adv-x="377" 
d="M247 748l12 -39c-105 -10 -148 -88 -152 -150c31 21 64 31 97 31c82 0 117 -51 117 -122s-40 -132 -130 -132c-95 0 -136 72 -136 177c0 108 49 211 192 235zM271 463c0 58 -24 85 -76 85c-27 0 -66 -12 -90 -32v-21c0 -62 27 -117 84 -117c43 0 82 23 82 85z" />
    <glyph glyph-name="sevensuperior" unicode="&#x2077;" horiz-adv-x="377" 
d="M57 690v42h263v-39c-116 -102 -142 -220 -142 -331v-21h-50v26c0 102 25 219 130 323h-201z" />
    <glyph glyph-name="eightsuperior" unicode="&#x2078;" horiz-adv-x="377" 
d="M53 433c0 66 54 102 90 117c-35 17 -74 44 -74 95c0 50 47 92 120 92c88 0 119 -44 119 -84c0 -47 -33 -79 -69 -103c53 -25 84 -59 84 -105c0 -54 -36 -109 -136 -109c-101 0 -134 52 -134 97zM273 443c0 41 -44 71 -86 87c-46 -16 -84 -52 -84 -91c0 -31 24 -61 88 -61
c53 0 82 32 82 65zM187 695c-48 0 -68 -26 -68 -50c0 -26 23 -53 75 -76c32 17 64 50 64 81c0 21 -18 45 -71 45z" />
    <glyph glyph-name="ninesuperior" unicode="&#x2079;" horiz-adv-x="377" 
d="M129 325l-12 39c112 17 148 91 152 148c-34 -20 -62 -28 -95 -28c-82 0 -119 54 -119 123c0 73 45 130 133 130c92 0 133 -68 133 -177c0 -108 -45 -212 -192 -235zM105 607c0 -55 27 -81 79 -81c27 0 66 11 87 31v21c0 62 -27 117 -84 117c-43 0 -82 -23 -82 -88z" />
    <glyph glyph-name="zeroinferior" unicode="&#x2080;" horiz-adv-x="377" 
d="M191 316c92 0 146 -52 146 -198c0 -138 -48 -203 -151 -203c-100 0 -148 58 -148 200c0 137 55 201 153 201zM188 -42c58 0 99 30 99 159c0 126 -39 157 -99 157c-62 0 -100 -37 -100 -165c0 -120 38 -151 100 -151z" />
    <glyph glyph-name="oneinferior" unicode="&#x2081;" horiz-adv-x="377" 
d="M120 -38h79v295l-94 -45l-18 35l114 63h53l-5 -53v-295h77v-42h-206v42z" />
    <glyph glyph-name="twoinferior" unicode="&#x2082;" horiz-adv-x="377" 
d="M81 236l-22 35c39 25 80 45 139 45c73 0 106 -43 106 -88s-17 -74 -50 -114l-127 -152h194v-42h-252v40l126 152c30 37 59 72 59 109c0 40 -27 53 -66 53c-35 0 -69 -14 -107 -38z" />
    <glyph glyph-name="threeinferior" unicode="&#x2083;" horiz-adv-x="377" 
d="M97 248l-15 35c33 16 77 33 129 33c72 0 102 -42 102 -89c0 -36 -9 -61 -40 -92c30 -45 46 -80 46 -115c0 -52 -37 -105 -130 -105c-45 0 -93 13 -114 24l15 39c25 -11 58 -22 96 -22c55 0 86 22 86 65c0 31 -18 60 -41 96c-34 -13 -66 -22 -82 -26l-11 37
c24 6 38 11 50 15c44 16 79 28 79 76c0 43 -33 55 -70 55c-27 0 -66 -11 -100 -26z" />
    <glyph glyph-name="fourinferior" unicode="&#x2084;" horiz-adv-x="377" 
d="M229 169h31v-117h73v-44h-72v-93h-50v95h-170v42l122 264l38 -17l-113 -247h123v43z" />
    <glyph glyph-name="fiveinferior" unicode="&#x2085;" horiz-adv-x="377" 
d="M75 118l27 193h198v-43h-161l-17 -111c109 -2 178 -27 178 -119c0 -56 -29 -123 -140 -123c-53 0 -108 20 -121 31l19 39c21 -12 55 -28 103 -28c66 0 89 35 89 79c0 80 -95 81 -175 82z" />
    <glyph glyph-name="sixinferior" unicode="&#x2086;" horiz-adv-x="377" 
d="M251 327l12 -39c-105 -10 -148 -88 -152 -150c31 21 64 31 97 31c82 0 117 -51 117 -122s-40 -132 -130 -132c-95 0 -136 72 -136 177c0 108 49 211 192 235zM275 42c0 58 -24 85 -76 85c-27 0 -66 -12 -90 -32v-21c0 -62 27 -117 84 -117c43 0 82 23 82 85z" />
    <glyph glyph-name="seveninferior" unicode="&#x2087;" horiz-adv-x="377" 
d="M58 269v42h263v-39c-116 -102 -142 -220 -142 -331v-21h-50v26c0 102 25 219 130 323h-201z" />
    <glyph glyph-name="eightinferior" unicode="&#x2088;" horiz-adv-x="377" 
d="M52 12c0 66 54 102 90 117c-35 17 -74 44 -74 95c0 50 47 92 120 92c88 0 119 -44 119 -84c0 -47 -33 -79 -69 -103c53 -25 84 -59 84 -105c0 -54 -36 -109 -136 -109c-101 0 -134 52 -134 97zM272 22c0 41 -44 71 -86 87c-46 -16 -84 -52 -84 -91c0 -31 24 -61 88 -61
c53 0 82 32 82 65zM186 274c-48 0 -68 -26 -68 -50c0 -26 23 -53 75 -76c32 17 64 50 64 81c0 21 -18 45 -71 45z" />
    <glyph glyph-name="nineinferior" unicode="&#x2089;" horiz-adv-x="377" 
d="M132 -96l-12 39c112 17 148 91 152 148c-34 -20 -62 -28 -95 -28c-82 0 -119 54 -119 123c0 73 45 130 133 130c92 0 133 -68 133 -177c0 -108 -45 -212 -192 -235zM108 186c0 -55 27 -81 79 -81c27 0 66 11 87 31v21c0 62 -27 117 -84 117c-43 0 -82 -23 -82 -88z" />
    <glyph glyph-name="zero.num" horiz-adv-x="377" 
d="M192 657c92 0 146 -52 146 -198c0 -138 -48 -203 -151 -203c-100 0 -148 58 -148 200c0 137 55 201 153 201zM189 299c58 0 99 30 99 159c0 126 -39 157 -99 157c-62 0 -100 -37 -100 -165c0 -120 38 -151 100 -151z" />
    <glyph glyph-name="one.num" horiz-adv-x="377" 
d="M102 303h79v295l-94 -45l-18 35l114 63h53l-5 -53v-295h77v-42h-206v42z" />
    <glyph glyph-name="two.num" horiz-adv-x="377" 
d="M79 577l-22 35c39 25 80 45 139 45c73 0 106 -43 106 -88s-17 -74 -50 -114l-127 -152h194v-42h-252v40l126 152c30 37 59 72 59 109c0 40 -27 53 -66 53c-35 0 -69 -14 -107 -38z" />
    <glyph glyph-name="three.num" horiz-adv-x="377" 
d="M91 589l-15 35c33 16 77 33 129 33c72 0 102 -42 102 -89c0 -36 -9 -61 -40 -92c30 -45 46 -80 46 -115c0 -52 -37 -105 -130 -105c-45 0 -93 13 -114 24l15 39c25 -11 58 -22 96 -22c55 0 86 22 86 65c0 31 -18 60 -41 96c-34 -13 -66 -22 -82 -26l-11 37
c24 6 38 11 50 15c44 16 79 28 79 76c0 43 -33 55 -70 55c-27 0 -66 -11 -100 -26z" />
    <glyph glyph-name="four.num" horiz-adv-x="377" 
d="M230 510h31v-117h73v-44h-72v-93h-50v95h-170v42l122 264l38 -17l-115 -247h125v43z" />
    <glyph glyph-name="five.num" horiz-adv-x="377" 
d="M93 459l27 193h198v-43h-161l-17 -111c109 -2 178 -27 178 -119c0 -56 -29 -123 -140 -123c-53 0 -108 20 -121 31l19 39c21 -12 55 -28 103 -28c66 0 89 35 89 79c0 80 -95 81 -175 82z" />
    <glyph glyph-name="six.num" horiz-adv-x="377" 
d="M247 668l12 -39c-105 -10 -148 -88 -152 -150c31 21 64 31 97 31c82 0 117 -51 117 -122s-40 -132 -130 -132c-95 0 -136 72 -136 177c0 108 49 211 192 235zM271 383c0 58 -24 85 -76 85c-27 0 -66 -12 -90 -32v-21c0 -62 27 -117 84 -117c43 0 82 23 82 85z" />
    <glyph glyph-name="seven.num" horiz-adv-x="377" 
d="M57 610v42h263v-39c-116 -102 -142 -220 -142 -331v-21h-50v26c0 102 25 219 130 323h-201z" />
    <glyph glyph-name="eight.num" horiz-adv-x="377" 
d="M53 353c0 66 54 102 90 117c-35 17 -74 44 -74 95c0 50 47 92 120 92c88 0 119 -44 119 -84c0 -47 -33 -79 -69 -103c53 -25 84 -59 84 -105c0 -54 -36 -109 -136 -109c-101 0 -134 52 -134 97zM273 363c0 41 -44 71 -86 87c-46 -16 -84 -52 -84 -91c0 -31 24 -61 88 -61
c53 0 82 32 82 65zM187 615c-48 0 -68 -26 -68 -50c0 -26 23 -53 75 -76c32 17 64 50 64 81c0 21 -18 45 -71 45z" />
    <glyph glyph-name="nine.num" horiz-adv-x="377" 
d="M129 245l-12 39c112 17 148 91 152 148c-34 -20 -62 -28 -95 -28c-82 0 -119 54 -119 123c0 73 45 130 133 130c92 0 133 -68 133 -177c0 -108 -45 -212 -192 -235zM105 527c0 -55 27 -81 79 -81c27 0 66 11 87 31v21c0 62 -27 117 -84 117c-43 0 -82 -23 -82 -88z" />
    <glyph glyph-name="zero.denom" horiz-adv-x="377" 
d="M192 396c92 0 146 -52 146 -198c0 -138 -48 -203 -151 -203c-100 0 -148 58 -148 200c0 137 55 201 153 201zM189 38c58 0 99 30 99 159c0 126 -39 157 -99 157c-62 0 -100 -37 -100 -165c0 -120 38 -151 100 -151z" />
    <glyph glyph-name="one.denom" horiz-adv-x="377" 
d="M102 42h79v295l-94 -45l-18 35l114 63h53l-5 -53v-295h77v-42h-206v42z" />
    <glyph glyph-name="two.denom" horiz-adv-x="377" 
d="M79 316l-22 35c39 25 80 45 139 45c73 0 106 -43 106 -88s-17 -74 -50 -114l-127 -152h194v-42h-252v40l126 152c30 37 59 72 59 109c0 40 -27 53 -66 53c-35 0 -69 -14 -107 -38z" />
    <glyph glyph-name="three.denom" horiz-adv-x="377" 
d="M91 328l-15 35c33 16 77 33 129 33c72 0 102 -42 102 -89c0 -36 -9 -61 -40 -92c30 -45 46 -80 46 -115c0 -52 -37 -105 -130 -105c-45 0 -93 13 -114 24l15 39c25 -11 58 -22 96 -22c55 0 86 22 86 65c0 31 -18 60 -41 96c-34 -13 -66 -22 -82 -26l-11 37
c24 6 38 11 50 15c44 16 79 28 79 76c0 43 -33 55 -70 55c-27 0 -66 -11 -100 -26z" />
    <glyph glyph-name="four.denom" horiz-adv-x="377" 
d="M230 249h31v-117h73v-44h-72v-93h-50v95h-170v42l122 264l38 -17l-113 -247h123v43z" />
    <glyph glyph-name="five.denom" horiz-adv-x="377" 
d="M93 198l27 193h198v-43h-161l-17 -111c109 -2 178 -27 178 -119c0 -56 -29 -123 -140 -123c-53 0 -108 20 -121 31l19 39c21 -12 55 -28 103 -28c66 0 89 35 89 79c0 80 -95 81 -175 82z" />
    <glyph glyph-name="six.denom" horiz-adv-x="377" 
d="M247 407l12 -39c-105 -10 -148 -88 -152 -150c31 21 64 31 97 31c82 0 117 -51 117 -122s-40 -132 -130 -132c-95 0 -136 72 -136 177c0 108 49 211 192 235zM271 122c0 58 -24 85 -76 85c-27 0 -66 -12 -90 -32v-21c0 -62 27 -117 84 -117c43 0 82 23 82 85z" />
    <glyph glyph-name="seven.denom" horiz-adv-x="377" 
d="M57 349v42h263v-39c-116 -102 -142 -220 -142 -331v-21h-50v26c0 102 25 219 130 323h-201z" />
    <glyph glyph-name="eight.denom" horiz-adv-x="377" 
d="M53 92c0 66 54 102 90 117c-35 17 -74 44 -74 95c0 50 47 92 120 92c88 0 119 -44 119 -84c0 -47 -33 -79 -69 -103c53 -25 84 -59 84 -105c0 -54 -36 -109 -136 -109c-101 0 -134 52 -134 97zM273 102c0 41 -44 71 -86 87c-46 -16 -84 -52 -84 -91c0 -31 24 -61 88 -61
c53 0 82 32 82 65zM187 354c-48 0 -68 -26 -68 -50c0 -26 23 -53 75 -76c32 17 64 50 64 81c0 21 -18 45 -71 45z" />
    <glyph glyph-name="nine.denom" horiz-adv-x="377" 
d="M129 -16l-12 39c112 17 148 91 152 148c-34 -20 -62 -28 -95 -28c-82 0 -119 54 -119 123c0 73 45 130 133 130c92 0 133 -68 133 -177c0 -108 -45 -212 -192 -235zM105 266c0 -55 27 -81 79 -81c27 0 66 11 87 31v21c0 62 -27 117 -84 117c-43 0 -82 -23 -82 -88z" />
    <glyph glyph-name="onehalf" unicode="&#xbd;" horiz-adv-x="800" 
d="M264 0l-45 22l292 628l47 -21zM52 303h79v295l-94 -45l-18 35l114 63h53l-5 -53v-295h77v-42h-206v42zM518 316l-22 35c39 25 80 45 139 45c73 0 106 -43 106 -88s-17 -74 -50 -114l-127 -152h194v-42h-252v40l126 152c30 37 59 72 59 109c0 40 -27 53 -66 53
c-35 0 -69 -14 -107 -38z" />
    <glyph glyph-name="onequarter" unicode="&#xbc;" horiz-adv-x="800" 
d="M289 0l-45 22l292 628l47 -21zM64 303h79v295l-94 -45l-18 35l114 63h53l-5 -53v-295h77v-42h-206v42zM668 254h31v-117h73v-44h-72v-93h-50v95h-170v42l122 264l38 -17l-115 -247h125v43z" />
    <glyph glyph-name="threequarters" unicode="&#xbe;" horiz-adv-x="800" 
d="M279 0l-45 22l292 628l47 -21zM61 589l-15 35c33 16 77 33 129 33c72 0 102 -42 102 -89c0 -36 -9 -61 -40 -92c30 -45 46 -80 46 -115c0 -52 -37 -105 -130 -105c-45 0 -93 13 -114 24l15 39c25 -11 58 -22 96 -22c55 0 86 22 86 65c0 31 -18 60 -41 96
c-34 -13 -66 -22 -82 -26l-11 37c24 6 38 11 50 15c44 16 79 28 79 76c0 43 -33 55 -70 55c-27 0 -66 -11 -100 -26zM656 254h31v-117h73v-44h-72v-93h-50v95h-170v42l122 264l38 -17l-115 -247h125v43z" />
    <glyph glyph-name="onethird" unicode="&#x2153;" horiz-adv-x="800" 
d="M52 303h79v295l-94 -45l-18 35l114 63h53l-5 -53v-295h77v-42h-206v42zM285 0l-45 22l292 628l47 -21zM536 328l-15 35c33 16 77 33 129 33c72 0 102 -42 102 -89c0 -36 -9 -61 -40 -92c30 -45 46 -80 46 -115c0 -52 -37 -105 -130 -105c-45 0 -93 13 -114 24l15 39
c25 -11 58 -22 96 -22c55 0 86 22 86 65c0 31 -18 60 -41 96c-34 -13 -66 -22 -82 -26l-11 37c24 6 38 11 50 15c44 16 79 28 79 76c0 43 -33 55 -70 55c-27 0 -66 -11 -100 -26z" />
    <glyph glyph-name="twothirds" unicode="&#x2154;" horiz-adv-x="800" 
d="M59 577l-22 35c39 25 80 45 139 45c73 0 106 -43 106 -88s-17 -74 -50 -114l-127 -152h194v-42h-252v40l126 152c30 37 59 72 59 109c0 40 -27 53 -66 53c-35 0 -69 -14 -107 -38zM311 0l-45 22l292 628l47 -21zM570 328l-15 35c33 16 77 33 129 33c72 0 102 -42 102 -89
c0 -36 -9 -61 -40 -92c30 -45 46 -80 46 -115c0 -52 -37 -105 -130 -105c-45 0 -93 13 -114 24l15 39c25 -11 58 -22 96 -22c55 0 86 22 86 65c0 31 -18 60 -41 96c-34 -13 -66 -22 -82 -26l-11 37c24 6 38 11 50 15c44 16 79 28 79 76c0 43 -33 55 -70 55
c-27 0 -66 -11 -100 -26z" />
    <glyph glyph-name="onefifth" unicode="&#xf500;" horiz-adv-x="800" 
d="M52 303h79v295l-94 -45l-18 35l114 63h53l-5 -53v-295h77v-42h-206v42zM279 0l-45 22l292 628l47 -21zM529 198l27 193h198v-43h-161l-17 -111c109 -2 178 -27 178 -119c0 -56 -29 -123 -140 -123c-53 0 -108 20 -121 31l19 39c21 -12 55 -28 103 -28c66 0 89 35 89 79
c0 80 -95 81 -175 82z" />
    <glyph glyph-name="twofifths" unicode="&#xf501;" horiz-adv-x="800" 
d="M49 577l-22 35c39 25 80 45 139 45c73 0 106 -43 106 -88s-17 -74 -50 -114l-127 -152h194v-42h-252v40l126 152c30 37 59 72 59 109c0 40 -27 53 -66 53c-35 0 -69 -14 -107 -38zM287 0l-45 22l292 628l47 -21zM526 198l27 193h198v-43h-161l-17 -111
c109 -2 178 -27 178 -119c0 -56 -29 -123 -140 -123c-53 0 -108 20 -121 31l19 39c21 -12 55 -28 103 -28c66 0 89 35 89 79c0 80 -95 81 -175 82z" />
    <glyph glyph-name="threefifths" unicode="&#xf502;" horiz-adv-x="800" 
d="M61 589l-15 35c33 16 77 33 129 33c72 0 102 -42 102 -89c0 -36 -9 -61 -40 -92c30 -45 46 -80 46 -115c0 -52 -37 -105 -130 -105c-45 0 -93 13 -114 24l15 39c25 -11 58 -22 96 -22c55 0 86 22 86 65c0 31 -18 60 -41 96c-34 -13 -66 -22 -82 -26l-11 37
c24 6 38 11 50 15c44 16 79 28 79 76c0 43 -33 55 -70 55c-27 0 -66 -11 -100 -26zM275 0l-45 22l292 628l47 -21zM516 198l27 193h198v-43h-161l-17 -111c109 -2 178 -27 178 -119c0 -56 -29 -123 -140 -123c-53 0 -108 20 -121 31l19 39c21 -12 55 -28 103 -28
c66 0 89 35 89 79c0 80 -95 81 -175 82z" />
    <glyph glyph-name="fourfifths" unicode="&#xf503;" horiz-adv-x="800" 
d="M220 510h31v-117h73v-44h-72v-93h-50v95h-170v42l122 264l38 -17l-115 -247h125v43zM303 0l-45 22l292 628l47 -21zM551 198l27 193h198v-43h-161l-17 -111c109 -2 178 -27 178 -119c0 -56 -29 -123 -140 -123c-53 0 -108 20 -121 31l19 39c21 -12 55 -28 103 -28
c66 0 89 35 89 79c0 80 -95 81 -175 82z" />
    <glyph glyph-name="onesixth" unicode="&#xf504;" horiz-adv-x="800" 
d="M62 303h79v295l-94 -45l-18 35l114 63h53l-5 -53v-295h77v-42h-206v42zM281 0l-45 22l292 628l47 -21zM688 407l12 -39c-105 -10 -148 -88 -152 -150c31 21 64 31 97 31c82 0 117 -51 117 -122s-40 -132 -130 -132c-95 0 -136 72 -136 177c0 108 49 211 192 235zM712 122
c0 58 -24 85 -76 85c-27 0 -66 -12 -90 -32v-21c0 -62 27 -117 84 -117c43 0 82 23 82 85z" />
    <glyph glyph-name="fivesixths" unicode="&#xf505;" horiz-adv-x="800" 
d="M73 459l27 193h198v-43h-161l-17 -111c109 -2 178 -27 178 -119c0 -56 -29 -123 -140 -123c-53 0 -108 20 -121 31l19 39c21 -12 55 -28 103 -28c66 0 89 35 89 79c0 80 -95 81 -175 82zM287 0l-45 22l292 628l47 -21zM692 407l12 -39c-105 -10 -148 -88 -152 -150
c31 21 64 31 97 31c82 0 117 -51 117 -122s-40 -132 -130 -132c-95 0 -136 72 -136 177c0 108 49 211 192 235zM716 122c0 58 -24 85 -76 85c-27 0 -66 -12 -90 -32v-21c0 -62 27 -117 84 -117c43 0 82 23 82 85z" />
    <glyph glyph-name="oneeighth" unicode="&#x215b;" horiz-adv-x="800" 
d="M82 303h79v295l-94 -45l-18 35l114 63h53l-5 -53v-295h77v-42h-206v42zM291 0l-45 22l292 628l47 -21zM505 92c0 66 54 102 90 117c-35 17 -74 44 -74 95c0 50 47 92 120 92c88 0 119 -44 119 -84c0 -47 -33 -79 -69 -103c53 -25 84 -59 84 -105
c0 -54 -36 -109 -136 -109c-101 0 -134 52 -134 97zM725 102c0 41 -44 71 -86 87c-46 -16 -84 -52 -84 -91c0 -31 24 -61 88 -61c53 0 82 32 82 65zM639 354c-48 0 -68 -26 -68 -50c0 -26 23 -53 75 -76c32 17 64 50 64 81c0 21 -18 45 -71 45z" />
    <glyph glyph-name="threeeighths" unicode="&#x215c;" horiz-adv-x="800" 
d="M71 589l-15 35c33 16 77 33 129 33c72 0 102 -42 102 -89c0 -36 -9 -61 -40 -92c30 -45 46 -80 46 -115c0 -52 -37 -105 -130 -105c-45 0 -93 13 -114 24l15 39c25 -11 58 -22 96 -22c55 0 86 22 86 65c0 31 -18 60 -41 96c-34 -13 -66 -22 -82 -26l-11 37
c24 6 38 11 50 15c44 16 79 28 79 76c0 43 -33 55 -70 55c-27 0 -66 -11 -100 -26zM271 0l-45 22l292 628l47 -21zM478 92c0 66 54 102 90 117c-35 17 -74 44 -74 95c0 50 47 92 120 92c88 0 119 -44 119 -84c0 -47 -33 -79 -69 -103c53 -25 84 -59 84 -105
c0 -54 -36 -109 -136 -109c-101 0 -134 52 -134 97zM698 102c0 41 -44 71 -86 87c-46 -16 -84 -52 -84 -91c0 -31 24 -61 88 -61c53 0 82 32 82 65zM612 354c-48 0 -68 -26 -68 -50c0 -26 23 -53 75 -76c32 17 64 50 64 81c0 21 -18 45 -71 45z" />
    <glyph glyph-name="fiveeighths" unicode="&#x215d;" horiz-adv-x="800" 
d="M73 459l27 193h198v-43h-161l-17 -111c109 -2 178 -27 178 -119c0 -56 -29 -123 -140 -123c-53 0 -108 20 -121 31l19 39c21 -12 55 -28 103 -28c66 0 89 35 89 79c0 80 -95 81 -175 82zM277 0l-45 22l292 628l47 -21zM492 92c0 66 54 102 90 117c-35 17 -74 44 -74 95
c0 50 47 92 120 92c88 0 119 -44 119 -84c0 -47 -33 -79 -69 -103c53 -25 84 -59 84 -105c0 -54 -36 -109 -136 -109c-101 0 -134 52 -134 97zM712 102c0 41 -44 71 -86 87c-46 -16 -84 -52 -84 -91c0 -31 24 -61 88 -61c53 0 82 32 82 65zM626 354c-48 0 -68 -26 -68 -50
c0 -26 23 -53 75 -76c32 17 64 50 64 81c0 21 -18 45 -71 45z" />
    <glyph glyph-name="seveneighths" unicode="&#x215e;" horiz-adv-x="800" 
d="M47 610v42h263v-39c-116 -102 -142 -220 -142 -331v-21h-50v26c0 102 25 219 130 323h-201zM241 0l-45 22l292 628l47 -21zM470 92c0 66 54 102 90 117c-35 17 -74 44 -74 95c0 50 47 92 120 92c88 0 119 -44 119 -84c0 -47 -33 -79 -69 -103c53 -25 84 -59 84 -105
c0 -54 -36 -109 -136 -109c-101 0 -134 52 -134 97zM690 102c0 41 -44 71 -86 87c-46 -16 -84 -52 -84 -91c0 -31 24 -61 88 -61c53 0 82 32 82 65zM604 354c-48 0 -68 -26 -68 -50c0 -26 23 -53 75 -76c32 17 64 50 64 81c0 21 -18 45 -71 45z" />
    <glyph glyph-name="oneseventh" unicode="&#xf506;" horiz-adv-x="800" 
d="M62 303h79v295l-94 -45l-18 35l114 63h53l-5 -53v-295h77v-42h-206v42zM264 0l-45 22l292 628l47 -21zM515 349v42h263v-39c-116 -102 -142 -220 -142 -331v-21h-50v26c0 102 25 219 130 323h-201z" />
    <glyph glyph-name="twosevenths" unicode="&#xf507;" horiz-adv-x="800" 
d="M59 577l-22 35c39 25 80 45 139 45c73 0 106 -43 106 -88s-17 -74 -50 -114l-127 -152h194v-42h-252v40l126 152c30 37 59 72 59 109c0 40 -27 53 -66 53c-35 0 -69 -14 -107 -38zM280 0l-45 22l292 628l47 -21zM510 349v42h263v-39c-116 -102 -142 -220 -142 -331v-21
h-50v26c0 102 25 219 130 323h-201z" />
    <glyph glyph-name="threesevenths" unicode="&#xf508;" horiz-adv-x="800" 
d="M61 589l-15 35c33 16 77 33 129 33c72 0 102 -42 102 -89c0 -36 -9 -61 -40 -92c30 -45 46 -80 46 -115c0 -52 -37 -105 -130 -105c-45 0 -93 13 -114 24l15 39c25 -11 58 -22 96 -22c55 0 86 22 86 65c0 31 -18 60 -41 96c-34 -13 -66 -22 -82 -26l-11 37
c24 6 38 11 50 15c44 16 79 28 79 76c0 43 -33 55 -70 55c-27 0 -66 -11 -100 -26zM257 0l-45 22l292 628l47 -21zM506 349v42h263v-39c-116 -102 -142 -220 -142 -331v-21h-50v26c0 102 25 219 130 323h-201z" />
    <glyph glyph-name="foursevenths" unicode="&#xf509;" horiz-adv-x="800" 
d="M230 510h31v-117h73v-44h-72v-93h-50v95h-170v42l122 264l38 -17l-115 -247h125v43zM290 0l-45 22l292 628l47 -21zM523 349v42h263v-39c-116 -102 -142 -220 -142 -331v-21h-50v26c0 102 25 219 130 323h-201z" />
    <glyph glyph-name="fivesevenths" unicode="&#xf50a;" horiz-adv-x="800" 
d="M72 459l27 193h198v-43h-161l-17 -111c109 -2 178 -27 178 -119c0 -56 -29 -123 -140 -123c-53 0 -108 20 -121 31l19 39c21 -12 55 -28 103 -28c66 0 89 35 89 79c0 80 -95 81 -175 82zM266 0l-45 22l292 628l47 -21zM519 349v42h263v-39c-116 -102 -142 -220 -142 -331
v-21h-50v26c0 102 25 219 130 323h-201z" />
    <glyph glyph-name="sixsevenths" unicode="&#xf50b;" horiz-adv-x="800" 
d="M227 668l12 -39c-105 -10 -148 -88 -152 -150c31 21 64 31 97 31c82 0 117 -51 117 -122s-40 -132 -130 -132c-95 0 -136 72 -136 177c0 108 49 211 192 235zM251 383c0 58 -24 85 -76 85c-27 0 -66 -12 -90 -32v-21c0 -62 27 -117 84 -117c43 0 82 23 82 85zM272 0
l-45 22l292 628l47 -21zM517 349v42h263v-39c-116 -102 -142 -220 -142 -331v-21h-50v26c0 102 25 219 130 323h-201z" />
    <glyph glyph-name="oneninth" unicode="&#xf50c;" horiz-adv-x="800" 
d="M62 303h79v295l-94 -45l-18 35l114 63h53l-5 -53v-295h77v-42h-206v42zM281 0l-45 22l292 628l47 -21zM583 -16l-12 39c112 17 148 91 152 148c-34 -20 -62 -28 -95 -28c-82 0 -119 54 -119 123c0 73 45 130 133 130c92 0 133 -68 133 -177c0 -108 -45 -212 -192 -235z
M559 266c0 -55 27 -81 79 -81c27 0 66 11 87 31v21c0 62 -27 117 -84 117c-43 0 -82 -23 -82 -88z" />
    <glyph glyph-name="twoninths" unicode="&#xf50d;" horiz-adv-x="800" 
d="M59 577l-22 35c39 25 80 45 139 45c73 0 106 -43 106 -88s-17 -74 -50 -114l-127 -152h194v-42h-252v40l126 152c30 37 59 72 59 109c0 40 -27 53 -66 53c-35 0 -69 -14 -107 -38zM290 0l-45 22l292 628l47 -21zM578 -16l-12 39c112 17 148 91 152 148
c-34 -20 -62 -28 -95 -28c-82 0 -119 54 -119 123c0 73 45 130 133 130c92 0 133 -68 133 -177c0 -108 -45 -212 -192 -235zM554 266c0 -55 27 -81 79 -81c27 0 66 11 87 31v21c0 62 -27 117 -84 117c-43 0 -82 -23 -82 -88z" />
    <glyph glyph-name="fourninths" unicode="&#xf50e;" horiz-adv-x="800" 
d="M210 510h31v-117h73v-44h-72v-93h-50v95h-170v42l122 264l38 -17l-115 -247h125v43zM284 0l-45 22l292 628l47 -21zM590 -16l-12 39c112 17 148 91 152 148c-34 -20 -62 -28 -95 -28c-82 0 -119 54 -119 123c0 73 45 130 133 130c92 0 133 -68 133 -177
c0 -108 -45 -212 -192 -235zM566 266c0 -55 27 -81 79 -81c27 0 66 11 87 31v21c0 62 -27 117 -84 117c-43 0 -82 -23 -82 -88z" />
    <glyph glyph-name="fiveninths" unicode="&#xf50f;" horiz-adv-x="800" 
d="M63 459l27 193h198v-43h-161l-17 -111c109 -2 178 -27 178 -119c0 -56 -29 -123 -140 -123c-53 0 -108 20 -121 31l19 39c21 -12 55 -28 103 -28c66 0 89 35 89 79c0 80 -95 81 -175 82zM265 0l-45 22l292 628l47 -21zM565 -16l-12 39c112 17 148 91 152 148
c-34 -20 -62 -28 -95 -28c-82 0 -119 54 -119 123c0 73 45 130 133 130c92 0 133 -68 133 -177c0 -108 -45 -212 -192 -235zM541 266c0 -55 27 -81 79 -81c27 0 66 11 87 31v21c0 62 -27 117 -84 117c-43 0 -82 -23 -82 -88z" />
    <glyph glyph-name="sevenninths" unicode="&#xf510;" horiz-adv-x="800" 
d="M37 610v42h263v-39c-116 -102 -142 -220 -142 -331v-21h-50v26c0 102 25 219 130 323h-201zM219 0l-45 22l292 628l47 -21zM538 -16l-12 39c112 17 148 91 152 148c-34 -20 -62 -28 -95 -28c-82 0 -119 54 -119 123c0 73 45 130 133 130c92 0 133 -68 133 -177
c0 -108 -45 -212 -192 -235zM514 266c0 -55 27 -81 79 -81c27 0 66 11 87 31v21c0 62 -27 117 -84 117c-43 0 -82 -23 -82 -88z" />
    <glyph glyph-name="eightninths" unicode="&#xf511;" horiz-adv-x="800" 
d="M43 353c0 66 54 102 90 117c-35 17 -74 44 -74 95c0 50 47 92 120 92c88 0 119 -44 119 -84c0 -47 -33 -79 -69 -103c53 -25 84 -59 84 -105c0 -54 -36 -109 -136 -109c-101 0 -134 52 -134 97zM263 363c0 41 -44 71 -86 87c-46 -16 -84 -52 -84 -91c0 -31 24 -61 88 -61
c53 0 82 32 82 65zM177 615c-48 0 -68 -26 -68 -50c0 -26 23 -53 75 -76c32 17 64 50 64 81c0 21 -18 45 -71 45zM288 0l-45 22l292 628l47 -21zM576 -16l-12 39c112 17 148 91 152 148c-34 -20 -62 -28 -95 -28c-82 0 -119 54 -119 123c0 73 45 130 133 130
c92 0 133 -68 133 -177c0 -108 -45 -212 -192 -235zM552 266c0 -55 27 -81 79 -81c27 0 66 11 87 31v21c0 62 -27 117 -84 117c-43 0 -82 -23 -82 -88z" />
    <glyph glyph-name="minus" unicode="&#x2212;" 
d="M470 343v-44h-405v44h405z" />
    <glyph glyph-name="uni2215" unicode="&#x2215;" horiz-adv-x="476" 
d="M51 -96l296 811l48 -16l-297 -810z" />
    <glyph glyph-name="uni2219" unicode="&#x2219;" horiz-adv-x="315" 
d="M103 308c0 30 22 51 49 51c31 0 52 -20 52 -50c0 -31 -20 -53 -49 -53c-32 0 -52 20 -52 52z" />
    <glyph glyph-name="approxequal" unicode="&#x2248;" 
d="M355 236c34 0 55 18 81 55l31 -26c-37 -52 -75 -71 -112 -71c-80 0 -126 66 -184 66c-35 0 -58 -27 -77 -58l-31 22c31 54 69 78 110 78c71 0 124 -66 182 -66zM350 381c34 0 55 18 81 55l31 -26c-37 -52 -75 -71 -112 -71c-80 0 -126 66 -184 66c-35 0 -58 -27 -77 -58
l-31 22c31 54 69 78 110 78c71 0 124 -66 182 -66z" />
    <glyph glyph-name="notequal" unicode="&#x2260;" 
d="M470 417v-44h-169l-33 -118h202v-44h-214l-41 -146h-51l41 146h-140v44h152l33 118h-185v44h198l38 137h51l-38 -137h156z" />
    <glyph glyph-name="lessequal" unicode="&#x2264;" 
d="M456 83v-44h-375v44h375zM433 133l-352 164v49l352 165l17 -41l-318 -148l321 -148z" />
    <glyph glyph-name="greaterequal" unicode="&#x2265;" 
d="M79 83v-44h375v44h-375zM454 297l-352 -164l-20 41l321 148l-318 148l17 41l352 -165v-49z" />
    <glyph glyph-name="less" unicode="&#x3c;" 
d="M433 133l-352 164v49l352 165l17 -41l-318 -148l321 -148z" />
    <glyph glyph-name="equal" unicode="=" 
d="M470 255v-44h-405v44h405zM470 417v-44h-405v44h405z" />
    <glyph glyph-name="greater" unicode="&#x3e;" 
d="M101 511l352 -163v-51l-352 -164l-17 41l318 149l-321 147z" />
    <glyph glyph-name="logicalnot" unicode="&#xac;" 
d="M53 352v46h429v-181h-50v135h-379z" />
    <glyph glyph-name="plus" unicode="+" 
d="M242 345v182h50v-182h182v-46h-182v-181h-50v181h-182v46h182z" />
    <glyph glyph-name="plusminus" unicode="&#xb1;" 
d="M238 345v171h50v-171h182v-46h-182v-183h182v-46h-405v46h173v183h-173v46h173z" />
    <glyph glyph-name="divide" unicode="&#xf7;" 
d="M470 343v-44h-405v44h405zM219 146c0 30 22 51 49 51c31 0 52 -20 52 -50c0 -31 -20 -53 -49 -53c-32 0 -52 20 -52 52zM219 497c0 30 22 51 49 51c31 0 52 -20 52 -50c0 -31 -20 -53 -49 -53c-32 0 -52 20 -52 52z" />
    <glyph glyph-name="multiply" unicode="&#xd7;" 
d="M233 321l-129 128l36 36l128 -129l129 129l33 -33l-129 -129l129 -128l-36 -36l-128 129l-129 -129l-33 33z" />
    <glyph glyph-name="partialdiff" unicode="&#x2202;" horiz-adv-x="545" 
d="M165 624l10 42c219 -45 296 -192 296 -394c0 -149 -53 -286 -205 -286c-145 0 -200 106 -200 219c0 126 76 207 192 207c58 0 114 -23 159 -60c-8 131 -90 243 -252 272zM419 295c-31 36 -95 75 -162 75c-83 0 -139 -61 -139 -165c0 -107 53 -176 148 -176
c118 0 154 113 154 235c0 10 0 21 -1 31z" />
    <glyph glyph-name="Omega" unicode="&#x2126;" horiz-adv-x="801" 
d="M89 330c0 213 144 329 309 329c177 0 303 -109 303 -313c0 -138 -67 -244 -156 -303h186v-43h-257v43c60 34 175 121 175 301c0 196 -122 268 -253 268c-136 0 -253 -88 -253 -275c0 -163 100 -253 183 -296v-41h-256v43h177c-86 52 -158 156 -158 287z" />
    <glyph glyph-name="Delta" unicode="&#x2206;" horiz-adv-x="661" 
d="M631 0h-601l271 657h61zM560 43l-229 563l-229 -563h458z" />
    <glyph glyph-name="product" unicode="&#x220f;" horiz-adv-x="736" 
d="M646 -132h-52v746h-452v-746h-52v789h556v-789z" />
    <glyph glyph-name="summation" unicode="&#x2211;" horiz-adv-x="566" 
d="M546 -132h-502v49l289 347l-280 343v50h470v-44h-410l285 -350l-299 -352h447v-43z" />
    <glyph glyph-name="uni0394" unicode="&#x394;" horiz-adv-x="661" 
d="M631 0h-601l271 657h61zM560 43l-229 563l-229 -563h458z" />
    <glyph glyph-name="uni03A9" unicode="&#x3a9;" horiz-adv-x="801" 
d="M89 330c0 213 144 329 309 329c177 0 303 -109 303 -313c0 -138 -67 -244 -156 -303h186v-43h-257v43c60 34 175 121 175 301c0 196 -122 268 -253 268c-136 0 -253 -88 -253 -275c0 -163 100 -253 183 -296v-41h-256v43h177c-86 52 -158 156 -158 287z" />
    <glyph glyph-name="uni03BC" unicode="&#x3bc;" horiz-adv-x="591" 
d="M493 492v-426c0 -29 12 -35 28 -35s29 6 53 19l15 -37c-24 -16 -54 -24 -78 -24c-36 0 -63 19 -63 64v35c-34 -64 -89 -102 -162 -102c-72 0 -118 32 -142 69v-271h-49v708h49v-301c0 -91 43 -161 141 -161c94 0 157 78 157 181v281h51z" />
    <glyph glyph-name="pi" unicode="&#x3c0;" horiz-adv-x="619" 
d="M577 451h-84v-368c0 -39 2 -58 35 -58c22 0 41 6 51 10l10 -36c-13 -6 -44 -13 -68 -13c-61 0 -78 31 -78 80v385h-258v-451h-50v451h-85v41h527v-41z" />
    <glyph glyph-name="mu" unicode="&#xb5;" horiz-adv-x="591" 
d="M493 492v-426c0 -29 12 -35 28 -35s29 6 53 19l15 -37c-24 -16 -54 -24 -78 -24c-36 0 -63 19 -63 64v35c-34 -64 -89 -102 -162 -102c-72 0 -118 32 -142 69v-271h-49v708h49v-301c0 -91 43 -161 141 -161c94 0 157 78 157 181v281h51z" />
    <glyph glyph-name="radical" unicode="&#x221a;" horiz-adv-x="644" 
d="M633 731l-262 -745h-56l-161 460l-104 -56l-18 37l157 85l156 -458l235 677h53z" />
    <glyph glyph-name="infinity" unicode="&#x221e;" horiz-adv-x="764" 
d="M714 337c0 -101 -66 -155 -146 -155c-77 0 -141 54 -184 106c-47 -61 -110 -108 -183 -108c-91 0 -151 54 -151 145c0 87 66 152 157 152c77 0 126 -42 178 -116c60 71 111 117 189 117c91 0 140 -62 140 -141zM667 330c0 63 -33 106 -99 106c-63 0 -109 -48 -160 -110
c45 -60 104 -105 161 -105c64 0 98 54 98 109zM359 324c-50 79 -96 112 -153 112c-74 0 -111 -50 -111 -109c0 -62 38 -107 108 -107c54 0 107 33 156 104z" />
    <glyph glyph-name="integral" unicode="&#x222b;" horiz-adv-x="390" 
d="M343 675l-8 -42c-17 7 -43 13 -68 13c-41 0 -63 -13 -63 -74c0 -26 2 -46 3 -60l33 -511c1 -20 2 -28 2 -44c0 -92 -56 -113 -108 -113c-31 0 -59 4 -82 14l13 43c18 -6 40 -12 65 -12c41 0 60 19 60 70c0 22 -2 36 -3 51l-31 514c-1 19 -2 34 -2 53c0 89 56 111 107 111
c35 0 63 -6 82 -13z" />
    <glyph glyph-name="lozenge" unicode="&#x25ca;" horiz-adv-x="579" 
d="M514 333l-194 -333h-61l-194 331l194 326h61zM461 331l-173 290l-170 -288l174 -300z" />
    <glyph glyph-name="commaaccent" horiz-adv-x="500" 
d="M157 -258l58 182c27 -1 55 -5 55 -30c0 -12 -8 -27 -12 -35c-14 -29 -33 -62 -75 -130z" />
    <glyph glyph-name="revcommaaccent" horiz-adv-x="500" 
d="M315 769l-58 -182c-27 1 -55 5 -55 30c0 12 8 27 12 35c14 29 33 62 75 130z" />
    <glyph glyph-name="tilde.cap" horiz-adv-x="500" 
d="M118 743l-6 47c23 18 53 26 78 26c49 0 84 -25 127 -25c20 0 41 7 58 17l7 -50c-20 -10 -38 -17 -65 -17c-42 0 -92 21 -129 21c-25 0 -46 -6 -70 -19z" />
    <glyph glyph-name="ring.cap" horiz-adv-x="500" 
d="M164 783c0 50 33 88 86 88c54 0 86 -38 86 -83c0 -52 -34 -89 -88 -89s-84 37 -84 84zM207 783c0 -30 13 -48 43 -48s43 21 43 48c0 32 -12 53 -43 53c-32 0 -43 -21 -43 -53z" />
    <glyph glyph-name="circumflex.cap" horiz-adv-x="500" 
d="M124 723l-21 16c47 63 79 94 103 116c12 11 25 23 42 23c16 0 28 -7 42 -20c28 -27 58 -57 105 -118l-21 -17l-126 97z" />
    <glyph glyph-name="acute.cap" horiz-adv-x="500" 
d="M168 745l147 143c20 -11 39 -22 39 -40c0 -16 -18 -28 -28 -36c-25 -19 -70 -48 -140 -91z" />
    <glyph glyph-name="grave.cap" horiz-adv-x="500" 
d="M205 888l147 -143l-18 -24c-70 43 -115 72 -140 91c-10 8 -28 20 -28 36c0 18 19 29 39 40z" />
    <glyph glyph-name="dieresis.cap" horiz-adv-x="500" 
d="M118 780c0 26 19 45 44 45c24 0 43 -19 43 -45c0 -28 -20 -46 -44 -46c-25 0 -43 18 -43 46zM296 780c0 26 19 45 44 45c24 0 43 -19 43 -45c0 -28 -20 -46 -44 -46c-25 0 -43 18 -43 46z" />
    <glyph glyph-name="caron.cap" horiz-adv-x="500" 
d="M374 878l21 -16c-47 -63 -79 -94 -103 -116c-12 -11 -25 -23 -42 -23c-16 0 -28 7 -42 20c-28 27 -58 57 -105 118l21 17l126 -97z" />
    <glyph glyph-name="macron.cap" horiz-adv-x="500" 
d="M125 747v50h243v-50h-243z" />
    <glyph glyph-name="dotaccent.cap" horiz-adv-x="500" 
d="M213 782c0 24 18 42 41 42c22 0 40 -18 40 -42c0 -26 -19 -43 -41 -43c-23 0 -40 17 -40 43z" />
    <glyph glyph-name="cedilla.cap" horiz-adv-x="500" 
d="M212 3h41l-21 -80c45 -2 80 -21 80 -70c0 -52 -42 -83 -98 -83c-21 0 -54 6 -76 18l11 34c15 -6 42 -13 65 -13c44 0 52 23 52 42c0 32 -27 42 -88 42z" />
    <glyph glyph-name="hungarumlaut.cap" horiz-adv-x="500" 
d="M261 745l147 143c20 -11 39 -22 39 -40c0 -16 -18 -28 -28 -36c-25 -19 -70 -48 -140 -91zM100 745l147 143c20 -11 39 -22 39 -40c0 -16 -18 -28 -28 -36c-25 -19 -70 -48 -140 -91z" />
    <glyph glyph-name="apostrophe" unicode="&#x2bc;" horiz-adv-x="252" 
d="M96 571l36 188c27 2 58 2 58 -23c0 -12 -5 -28 -8 -36c-10 -31 -25 -66 -59 -138z" />
    <glyph glyph-name="commaaccent.cap" horiz-adv-x="500" 
d="M157 -258l58 182c27 -1 55 -5 55 -30c0 -12 -8 -27 -12 -35c-14 -29 -33 -62 -75 -130z" />
    <glyph glyph-name="breve.cap" horiz-adv-x="500" 
d="M251 721c-81 0 -123 39 -142 111l48 15c18 -56 45 -81 98 -81c56 0 80 21 101 81l45 -14c-21 -71 -60 -112 -150 -112z" />
    <glyph glyph-name="caron.alt" horiz-adv-x="252" 
d="M101 499v190c12 3 25 6 37 6c20 0 27 -14 27 -27c0 -38 -20 -121 -34 -174z" />
    <glyph glyph-name="ogonek.cap" horiz-adv-x="500" 
d="M242 2l54 -1c-33 -29 -71 -91 -71 -136c0 -33 13 -51 44 -51c18 0 37 5 52 11l13 -39c-26 -12 -49 -18 -80 -18c-67 0 -84 45 -84 85c0 59 41 116 72 149z" />
    <glyph glyph-name="zero.tf" 
d="M273 657c128 0 210 -86 210 -329c0 -233 -73 -338 -218 -338c-140 0 -213 96 -213 332c0 229 84 335 221 335zM268 33c95 0 163 61 163 293c0 226 -65 288 -162 288c-102 0 -165 -72 -165 -302c0 -216 64 -279 164 -279z" />
    <glyph glyph-name="one.tf" 
d="M143 43h131v548l-170 -91l-19 31l184 113h58l-4 -54v-547h127v-43h-307v43z" />
    <glyph glyph-name="two.tf" 
d="M101 541l-30 31c48 49 120 85 196 85c105 0 165 -63 165 -160c0 -74 -35 -128 -84 -186l-229 -268h354v-43h-411v43l232 276c63 75 86 107 86 176c0 78 -51 119 -121 119c-68 0 -122 -41 -158 -73z" />
    <glyph glyph-name="three.tf" 
d="M95 530l-32 30c55 57 133 97 214 97c120 0 164 -70 164 -148c0 -64 -24 -112 -81 -153c59 -52 92 -113 92 -180c0 -94 -63 -188 -207 -188c-74 0 -152 25 -177 46l20 41c38 -22 96 -44 161 -44c97 0 151 63 151 137c0 61 -23 111 -84 161c-36 -19 -97 -35 -114 -40
l-15 41c135 36 202 75 202 175c0 67 -37 109 -116 109c-64 0 -119 -29 -178 -84z" />
    <glyph glyph-name="four.tf" 
d="M379 445h32v-227h100v-42h-100v-176h-52v175h-295v48l206 430l41 -21l-198 -414h246v88z" />
    <glyph glyph-name="five.tf" 
d="M100 333l41 311h302v-43h-262l-31 -228c140 -3 296 -44 296 -197c0 -87 -50 -188 -208 -188c-81 0 -165 33 -185 52l20 40c33 -20 93 -49 167 -49c115 0 154 70 154 141c0 145 -173 159 -294 161z" />
    <glyph glyph-name="six.tf" 
d="M367 666l10 -42c-162 -26 -243 -147 -251 -281c52 36 115 59 174 59c110 0 176 -78 176 -193c0 -113 -68 -222 -204 -222c-152 0 -201 136 -201 285c0 202 80 347 296 394zM123 295c-7 -133 33 -265 151 -265c91 0 150 72 150 179c0 87 -46 151 -133 151
c-60 0 -136 -35 -168 -65z" />
    <glyph glyph-name="seven.tf" 
d="M81 601v43h392v-44c-196 -174 -238 -379 -238 -573v-27h-52v35c0 180 49 386 229 566h-331z" />
    <glyph glyph-name="eight.tf" 
d="M74 150c0 110 88 170 142 195c-52 28 -119 70 -119 158c0 84 72 154 171 154c122 0 170 -74 170 -140c0 -78 -56 -134 -112 -174c81 -39 134 -96 134 -173c0 -90 -54 -182 -194 -182c-142 0 -192 87 -192 162zM408 166c0 86 -78 131 -143 158c-69 -28 -139 -84 -139 -169
c0 -63 47 -124 145 -124c88 0 137 54 137 135zM266 614c-73 0 -117 -54 -117 -110c0 -61 50 -107 129 -143c49 29 108 84 108 150c0 53 -40 103 -120 103z" />
    <glyph glyph-name="nine.tf" 
d="M171 -22l-10 42c166 33 243 147 251 281c-52 -36 -115 -59 -174 -59c-110 0 -176 78 -176 193c0 113 68 222 204 222c152 0 201 -136 201 -285c0 -202 -80 -349 -296 -394zM415 349c7 133 -33 265 -151 265c-91 0 -150 -72 -150 -179c0 -87 46 -151 133 -151
c60 0 136 35 168 65z" />
    <glyph glyph-name="dollar.tf" 
d="M288 -108h-47v116c-89 3 -166 40 -187 58l25 42c25 -18 83 -50 162 -55v272c-88 28 -176 60 -176 165c0 93 69 157 176 166v91h47v-91c79 -6 145 -46 185 -85l-30 -35c-46 41 -97 68 -155 74v-250c91 -27 182 -61 182 -174c0 -102 -65 -167 -182 -177v-117zM419 185
c0 71 -60 101 -131 125v-256c66 6 131 36 131 131zM117 497c0 -68 47 -97 124 -123v237c-59 -6 -124 -34 -124 -114z" />
    <glyph glyph-name="Euro.tf" 
d="M451 398v-42h-409v42h122c-38 29 -55 61 -55 110c0 72 55 149 193 149c73 0 153 -25 223 -97l-31 -31c-48 50 -116 86 -192 86c-110 0 -141 -56 -141 -109c0 -81 62 -108 112 -108h178zM451 243v42h-409v-42h125c-38 -29 -58 -70 -58 -119c0 -76 54 -140 194 -140
c68 0 144 16 220 80l-25 35c-57 -49 -128 -73 -192 -73c-114 0 -144 52 -144 105c0 85 61 112 111 112h178z" />
    <glyph glyph-name="cent.tf" 
d="M313 -60h-50v116c-116 17 -174 113 -174 261c0 177 93 240 174 254v114h50v-112c51 -3 110 -22 151 -82l-36 -27c-34 44 -72 63 -115 66v-434c40 2 82 16 119 47l25 -34c-27 -26 -81 -54 -144 -56v-113zM139 318c0 -111 34 -198 124 -218v427c-72 -14 -124 -79 -124 -209
z" />
    <glyph glyph-name="sterling.tf" 
d="M40 165v43h121l60 275c33 149 105 174 179 174c55 0 101 -22 129 -40l-23 -37c-25 16 -66 34 -111 34c-82 0 -108 -51 -128 -142l-58 -264h192v-42h-200l-28 -125c-15 -70 -46 -105 -80 -134l1 -2c20 5 44 9 62 9c65 0 110 -27 193 -27c31 0 68 3 113 12l-6 -42
c-43 -8 -80 -11 -107 -11c-95 0 -131 26 -211 26c-28 0 -79 -8 -114 -22v42c54 32 82 72 98 142l30 131h-112z" />
    <glyph glyph-name="yen.tf" 
d="M471 356v-44h-176v-93h176v-44h-176v-175h-48v175h-181v44h181v93h-181v44h156l-164 288h56l158 -285l151 285h54l-158 -288h152z" />
    <glyph glyph-name="florin.tf" horiz-adv-x="471" 
d="M221 347l-63 -363c-22 -129 -51 -194 -172 -194c-38 0 -81 10 -115 25l17 39c30 -13 69 -22 102 -22c68 0 99 39 110 104l71 411h-97l7 42h97l15 87c20 116 49 181 168 181c40 0 83 -10 117 -25l-17 -40c-30 13 -69 23 -102 23c-71 0 -97 -37 -109 -104l-22 -122h162
l-8 -42h-161z" />
    <glyph glyph-name="zero.osf" horiz-adv-x="497" 
d="M252 506c131 0 215 -71 215 -246c0 -178 -85 -274 -223 -274c-140 0 -214 103 -214 258c0 181 94 262 222 262zM246 28c97 0 170 73 170 230c0 143 -70 206 -168 206c-103 0 -168 -69 -168 -222c0 -131 65 -214 166 -214z" />
    <glyph glyph-name="one.osf" horiz-adv-x="421" 
d="M99 43h128v393l-167 -88l-19 31l184 113h58l-4 -54v-395h127v-43h-307v43z" />
    <glyph glyph-name="two.osf" horiz-adv-x="471" 
d="M58 381l-30 31c62 61 133 94 210 94c115 0 166 -64 166 -150c0 -80 -42 -131 -110 -181l-178 -133h314v-42h-389v38l188 144c92 70 124 103 124 170s-38 110 -116 110c-77 0 -136 -41 -179 -81z" />
    <glyph glyph-name="three.osf" horiz-adv-x="461" 
d="M227 462c-59 0 -113 -26 -165 -71l-26 36c51 45 121 79 195 79c120 0 164 -69 164 -142c0 -56 -23 -111 -80 -152c59 -52 99 -109 99 -176c0 -159 -181 -196 -342 -213l-10 41c76 8 181 24 244 66c36 24 57 56 57 101c0 58 -32 108 -93 158c-36 -17 -97 -39 -114 -44
l-15 41c136 40 202 80 202 175c0 61 -37 101 -116 101z" />
    <glyph glyph-name="four.osf" horiz-adv-x="472" 
d="M340 294h32v-251h100v-43h-100v-151h-52v151h-291v48l202 444l41 -21l-194 -428h242v96z" />
    <glyph glyph-name="five.osf" horiz-adv-x="447" 
d="M73 201l38 291h284v-43h-244l-27 -205c140 -3 280 -33 280 -186c0 -159 -169 -226 -347 -235l-5 41c161 13 300 65 300 190c0 145 -158 145 -279 147z" />
    <glyph glyph-name="six.osf" horiz-adv-x="515" 
d="M356 666l10 -42c-162 -26 -243 -147 -251 -281c52 36 115 59 174 59c110 0 176 -78 176 -193c0 -113 -68 -222 -204 -222c-152 0 -201 136 -201 285c0 202 80 347 296 394zM112 295c-7 -133 33 -265 151 -265c91 0 150 72 150 179c0 87 -46 151 -133 151
c-60 0 -136 -35 -168 -65z" />
    <glyph glyph-name="seven.osf" horiz-adv-x="428" 
d="M15 449v43h388v-44l-298 -600h-50l294 601h-334z" />
    <glyph glyph-name="eight.osf" horiz-adv-x="513" 
d="M60 150c0 110 89 167 142 195c-52 28 -119 72 -119 158s72 154 175 154c124 0 172 -75 172 -141c0 -78 -62 -133 -118 -173c81 -39 141 -99 141 -176c0 -90 -59 -181 -199 -181c-142 0 -194 89 -194 164zM401 163c0 86 -85 134 -150 161c-64 -26 -139 -84 -139 -169
c0 -68 47 -126 145 -126c88 0 144 53 144 134zM256 614c-77 0 -121 -54 -121 -110c0 -61 50 -107 129 -143c49 29 114 83 114 149c0 53 -39 104 -122 104z" />
    <glyph glyph-name="nine.osf" horiz-adv-x="515" 
d="M164 -173l-10 42c166 33 243 147 251 281c-52 -36 -115 -59 -174 -59c-110 0 -176 78 -176 193c0 113 68 222 204 222c152 0 201 -136 201 -285c0 -202 -80 -349 -296 -394zM408 198c7 133 -33 265 -151 265c-91 0 -150 -72 -150 -179c0 -87 46 -151 133 -151
c60 0 136 35 168 65z" />
    <glyph glyph-name="dollar.osf" 
d="M282 -108h-47v116c-89 3 -166 40 -187 58l25 42c25 -18 83 -50 162 -55v272c-88 28 -176 60 -176 165c0 93 69 157 176 166v91h47v-91c79 -6 145 -46 185 -85l-30 -35c-46 41 -97 68 -155 74v-250c91 -27 182 -61 182 -174c0 -102 -65 -167 -182 -177v-117zM413 185
c0 71 -60 101 -131 125v-256c66 6 131 36 131 131zM111 497c0 -68 47 -97 124 -123v237c-59 -6 -124 -34 -124 -114z" />
    <glyph glyph-name="Euro.osf" horiz-adv-x="545" 
d="M451 398v-42h-409v42h122c-38 29 -55 61 -55 110c0 72 55 149 193 149c73 0 153 -25 223 -97l-31 -31c-48 50 -116 86 -192 86c-110 0 -141 -56 -141 -109c0 -81 62 -108 112 -108h178zM451 243v42h-409v-42h125c-38 -29 -58 -70 -58 -119c0 -76 54 -140 194 -140
c68 0 144 16 220 80l-25 35c-57 -49 -128 -73 -192 -73c-114 0 -144 52 -144 105c0 85 61 112 111 112h178z" />
    <glyph glyph-name="cent.osf" 
d="M330 -128h-50v116c-116 17 -174 113 -174 261c0 177 93 240 174 254v114h50v-112c51 -3 110 -22 151 -82l-36 -27c-34 44 -72 63 -115 66v-434c40 2 82 16 119 47l25 -34c-27 -26 -81 -54 -144 -56v-113zM156 250c0 -111 34 -198 124 -218v427
c-72 -14 -124 -79 -124 -209z" />
    <glyph glyph-name="sterling.osf" horiz-adv-x="532" 
d="M66 165v43h121l60 275c33 149 105 174 179 174c55 0 101 -22 129 -40l-23 -37c-25 16 -66 34 -111 34c-82 0 -108 -51 -128 -142l-58 -264h192v-42h-200l-28 -125c-15 -70 -46 -105 -80 -134l1 -2c20 5 44 9 62 9c65 0 110 -27 193 -27c31 0 68 3 113 12l-6 -42
c-43 -8 -80 -11 -107 -11c-95 0 -131 26 -211 26c-28 0 -79 -8 -114 -22v42c54 32 82 72 98 142l30 131h-112z" />
    <glyph glyph-name="yen.osf" horiz-adv-x="504" 
d="M459 356v-44h-176v-93h176v-44h-176v-175h-48v175h-181v44h181v93h-181v44h156l-164 288h56l158 -285l151 285h54l-158 -288h152z" />
    <glyph glyph-name="florin.osf" horiz-adv-x="492" 
d="M258 347l-63 -363c-22 -129 -51 -194 -172 -194c-38 0 -81 10 -115 25l17 39c30 -13 69 -22 102 -22c68 0 99 39 110 104l71 411h-97l7 42h97l15 87c20 116 49 181 168 181c40 0 83 -10 117 -25l-17 -40c-30 13 -69 23 -102 23c-71 0 -97 -37 -109 -104l-22 -122h162
l-8 -42h-161z" />
    <glyph glyph-name="zero.tosf" unicode="&#xf81e;" 
d="M243 506c131 0 215 -71 215 -246c0 -178 -85 -274 -223 -274c-140 0 -214 103 -214 258c0 181 94 262 222 262zM237 28c97 0 170 73 170 230c0 143 -70 206 -168 206c-103 0 -168 -69 -168 -222c0 -131 65 -214 166 -214z" />
    <glyph glyph-name="one.tosf" unicode="&#xf81f;" 
d="M123 43h128v393l-167 -88l-19 31l184 113h58l-4 -54v-395h127v-43h-307v43z" />
    <glyph glyph-name="two.tosf" unicode="&#xf820;" 
d="M72 381l-30 31c62 61 133 94 210 94c115 0 166 -64 166 -150c0 -80 -42 -131 -110 -181l-178 -133h314v-42h-389v38l188 144c92 70 124 103 124 170s-38 110 -116 110c-77 0 -136 -41 -179 -81z" />
    <glyph glyph-name="three.tosf" unicode="&#xf821;" 
d="M233 462c-59 0 -113 -26 -165 -71l-26 36c51 45 121 79 195 79c120 0 164 -69 164 -142c0 -56 -23 -111 -80 -152c59 -52 99 -109 99 -176c0 -159 -181 -196 -342 -213l-10 41c76 8 181 24 244 66c36 24 57 56 57 101c0 58 -32 108 -93 158c-36 -17 -97 -39 -114 -44
l-15 41c136 40 202 80 202 175c0 61 -37 101 -116 101z" />
    <glyph glyph-name="four.tosf" unicode="&#xf822;" 
d="M334 294h32v-251h100v-43h-100v-151h-52v151h-291v48l202 444l41 -21l-194 -428h242v96z" />
    <glyph glyph-name="five.tosf" unicode="&#xf823;" 
d="M92 201l38 291h284v-43h-244l-27 -205c140 -3 280 -33 280 -186c0 -159 -169 -226 -347 -235l-5 41c161 13 300 65 300 190c0 145 -158 145 -279 147z" />
    <glyph glyph-name="six.tosf" unicode="&#xf824;" 
d="M335 666l10 -42c-162 -26 -243 -147 -251 -281c52 36 115 59 174 59c110 0 176 -78 176 -193c0 -113 -68 -222 -204 -222c-152 0 -201 136 -201 285c0 202 80 347 296 394zM91 295c-7 -133 33 -265 151 -265c91 0 150 72 150 179c0 87 -46 151 -133 151
c-60 0 -136 -35 -168 -65z" />
    <glyph glyph-name="seven.tosf" unicode="&#xf825;" 
d="M43 449v43h388v-44l-298 -600h-50l294 601h-334z" />
    <glyph glyph-name="eight.tosf" unicode="&#xf826;" 
d="M46 150c0 110 88 170 142 195c-52 28 -119 70 -119 158c0 84 72 154 171 154c122 0 170 -74 170 -140c0 -78 -56 -134 -112 -174c81 -39 134 -96 134 -173c0 -90 -54 -182 -194 -182c-142 0 -192 87 -192 162zM380 166c0 86 -78 131 -143 158c-69 -28 -139 -84 -139 -169
c0 -63 47 -124 145 -124c88 0 137 54 137 135zM238 614c-73 0 -117 -54 -117 -110c0 -61 50 -107 129 -143c49 29 108 84 108 150c0 53 -40 103 -120 103z" />
    <glyph glyph-name="nine.tosf" unicode="&#xf827;" 
d="M147 -173l-10 42c166 33 243 147 251 281c-52 -36 -115 -59 -174 -59c-110 0 -176 78 -176 193c0 113 68 222 204 222c152 0 201 -136 201 -285c0 -202 -80 -349 -296 -394zM391 198c7 133 -33 265 -151 265c-91 0 -150 -72 -150 -179c0 -87 46 -151 133 -151
c60 0 136 35 168 65z" />
    <glyph glyph-name="dollar.tosf" 
d="M248 -108h-47v116c-89 3 -166 40 -187 58l25 42c25 -18 83 -50 162 -55v272c-88 28 -176 60 -176 165c0 93 69 157 176 166v91h47v-91c79 -6 145 -46 185 -85l-30 -35c-46 41 -97 68 -155 74v-250c91 -27 182 -61 182 -174c0 -102 -65 -167 -182 -177v-117zM379 185
c0 71 -60 101 -131 125v-256c66 6 131 36 131 131zM77 497c0 -68 47 -97 124 -123v237c-59 -6 -124 -34 -124 -114z" />
    <glyph glyph-name="Euro.tosf" 
d="M412 398v-42h-409v42h122c-38 29 -55 61 -55 110c0 72 55 149 193 149c73 0 153 -25 223 -97l-31 -31c-48 50 -116 86 -192 86c-110 0 -141 -56 -141 -109c0 -81 62 -108 112 -108h178zM412 243v42h-409v-42h125c-38 -29 -58 -70 -58 -119c0 -76 54 -140 194 -140
c68 0 144 16 220 80l-25 35c-57 -49 -128 -73 -192 -73c-114 0 -144 52 -144 105c0 85 61 112 111 112h178z" />
    <glyph glyph-name="cent.tosf" 
d="M303 -128h-50v116c-116 17 -174 113 -174 261c0 177 93 240 174 254v114h50v-112c51 -3 110 -22 151 -82l-36 -27c-34 44 -72 63 -115 66v-434c40 2 82 16 119 47l25 -34c-27 -26 -81 -54 -144 -56v-113zM129 250c0 -111 34 -198 124 -218v427
c-72 -14 -124 -79 -124 -209z" />
    <glyph glyph-name="sterling.tosf" 
d="M34 165v43h121l60 275c33 149 105 174 179 174c55 0 101 -22 129 -40l-23 -37c-25 16 -66 34 -111 34c-82 0 -108 -51 -128 -142l-58 -264h192v-42h-200l-28 -125c-15 -70 -46 -105 -80 -134l1 -2c20 5 44 9 62 9c65 0 110 -27 193 -27c31 0 68 3 113 12l-6 -42
c-43 -8 -80 -11 -107 -11c-95 0 -131 26 -211 26c-28 0 -79 -8 -114 -22v42c54 32 82 72 98 142l30 131h-112z" />
    <glyph glyph-name="yen.tosf" 
d="M450 356v-44h-176v-93h176v-44h-176v-175h-48v175h-181v44h181v93h-181v44h156l-164 288h56l158 -285l151 285h54l-158 -288h152z" />
    <glyph glyph-name="florin.tosf" 
d="M240 347l-63 -363c-22 -129 -51 -194 -172 -194c-38 0 -81 10 -115 25l17 39c30 -13 69 -22 102 -22c68 0 99 39 110 104l71 411h-97l7 42h97l15 87c20 116 49 181 168 181c40 0 83 -10 117 -25l-17 -40c-30 13 -69 23 -102 23c-71 0 -97 -37 -109 -104l-22 -122h162
l-8 -42h-161z" />
    <glyph glyph-name="a.alt" horiz-adv-x="493" 
d="M88 433l-14 41c29 12 107 32 168 32c106 0 150 -47 150 -164v-276c0 -29 12 -35 28 -35s29 6 53 19l15 -37c-24 -16 -54 -24 -78 -24c-36 0 -63 20 -63 65c-36 -39 -91 -68 -156 -68c-81 0 -141 47 -141 147c0 112 71 159 181 159c38 0 73 -3 111 -9v60
c0 94 -40 121 -108 121c-48 0 -111 -15 -146 -31zM342 101v137c-28 6 -58 12 -104 12c-76 0 -135 -18 -135 -110c0 -79 33 -111 99 -111c55 0 111 36 140 72z" />
    <glyph glyph-name="e.alt" horiz-adv-x="466" 
d="M272 506c116 0 156 -84 156 -174c0 -35 -6 -70 -16 -102h-307c4 -107 46 -201 169 -201c51 0 98 22 127 47l25 -35c-1 -1 -58 -55 -156 -55c-142 0 -215 102 -215 257c0 147 76 263 217 263zM269 466c-118 0 -161 -110 -164 -193h271c5 18 8 39 8 60
c0 66 -30 133 -115 133z" />
    <glyph glyph-name="g.alt" horiz-adv-x="457" 
d="M357 434c27 -35 31 -73 31 -101c0 -88 -55 -169 -165 -169c-34 0 -53 8 -55 8l-26 -75l110 -17c108 -17 210 -29 210 -139c0 -88 -69 -164 -224 -164c-149 0 -196 54 -196 127c0 71 56 121 94 146c-44 9 -58 22 -40 63l32 75c-40 21 -71 69 -71 143c0 110 75 175 168 175
c50 0 84 -15 107 -32l119 21v-55zM272 33l-79 11c-45 -28 -100 -79 -100 -138c0 -43 23 -86 158 -86c98 0 158 49 158 119c0 42 -19 78 -137 94zM220 207c67 0 118 49 118 122c0 79 -43 135 -116 135c-68 0 -113 -57 -113 -129c0 -67 26 -128 111 -128z" />
    <glyph glyph-name="k.alt" horiz-adv-x="463" 
d="M129 695v-606l254 403h53l-136 -214l138 -278h-51l-117 230l-145 -230h-45v695h49z" />
    <glyph glyph-name="v.alt" horiz-adv-x="440" 
d="M382 492h48l-177 -492h-62l-181 492h52l160 -447z" />
    <glyph glyph-name="w.alt" horiz-adv-x="692" 
d="M317 492h58l124 -447l121 447h52l-142 -492h-62l-122 441l-122 -441h-62l-142 492h52l121 -447z" />
    <glyph glyph-name="y.alt" horiz-adv-x="432" 
d="M372 492h50l-203 -564c-34 -95 -64 -151 -153 -151c-45 0 -91 15 -116 31l18 43c26 -15 58 -30 97 -30c43 0 66 9 100 98l31 81l-176 492h54l149 -425z" />
    <glyph glyph-name="z.alt" horiz-adv-x="409" 
d="M399 0h-373v35l302 417h-278v40h341v-30l-306 -421h314v-41z" />
    <glyph glyph-name="ae.alt" horiz-adv-x="751" 
d="M557 506c116 0 156 -84 156 -174c0 -35 -6 -70 -16 -102h-307c4 -107 46 -201 169 -201c51 0 98 22 127 47l25 -35c-1 -1 -58 -55 -156 -55c-79 0 -138 31 -172 86c-38 -38 -108 -86 -192 -86c-81 0 -141 47 -141 147c0 112 71 159 181 159c38 0 73 -3 111 -9v60
c0 94 -40 121 -108 121c-48 0 -111 -15 -146 -31l-14 41c29 12 107 32 168 32c86 0 130 -35 141 -105c34 63 92 105 174 105zM238 250c-76 0 -135 -18 -135 -110c0 -79 33 -111 99 -111c73 0 129 49 159 84c-14 36 -21 78 -21 125c-28 6 -57 12 -102 12zM554 466
c-118 0 -161 -110 -164 -193h271c5 18 8 39 8 60c0 66 -30 133 -115 133z" />
    <glyph glyph-name="oe.alt" horiz-adv-x="820" 
d="M55 252c0 206 119 254 215 254c52 0 139 -14 173 -130c30 78 91 130 185 130c116 0 156 -84 156 -174c0 -35 -6 -70 -16 -102h-307c4 -107 46 -201 169 -201c51 0 98 22 127 47l25 -35c-1 -1 -58 -55 -156 -55c-100 0 -161 50 -188 135c-32 -95 -99 -135 -186 -135
c-122 0 -197 86 -197 266zM259 27c109 0 157 104 157 217c0 125 -40 219 -152 219c-109 0 -159 -88 -159 -204c0 -103 23 -232 154 -232zM625 466c-118 0 -161 -110 -164 -193h271c5 18 8 39 8 60c0 66 -30 133 -115 133z" />
    <glyph glyph-name="ampersand.alt" horiz-adv-x="664" 
d="M533 338h44c2 -75 -7 -150 -51 -217c55 -45 102 -81 129 -101l-27 -35c-35 25 -80 60 -129 100c-52 -61 -126 -99 -225 -99c-151 0 -214 99 -214 202c0 96 53 169 136 215c-23 41 -34 81 -34 117c0 90 58 156 163 156c81 0 132 -45 156 -81l-37 -29
c-24 31 -65 66 -118 66c-75 0 -116 -39 -116 -106c0 -37 13 -82 42 -126c56 -85 152 -177 241 -252c32 53 42 115 40 190zM465 113c-92 77 -186 165 -246 253c-67 -31 -109 -93 -109 -174c0 -95 56 -164 172 -164c79 0 139 32 183 85z" />
    <glyph glyph-name="Q.alt" horiz-adv-x="660" 
d="M600 331c0 -195 -75 -306 -200 -335c96 -17 171 -109 293 -87l-5 -45c-194 -17 -240 132 -417 92l6 36c-137 21 -217 134 -217 339c0 257 143 346 276 346c141 0 264 -91 264 -346zM112 333c0 -144 41 -307 224 -307c161 0 212 155 212 302c0 129 -45 304 -212 304
c-164 0 -224 -152 -224 -299z" />
    <glyph glyph-name="Euro.alt" 
d="M356 612c-126 0 -171 -79 -182 -214h256v-42h-389v42h82c17 197 116 259 238 259c65 0 130 -29 181 -83l-32 -31c-33 31 -80 69 -154 69zM430 243h-258c9 -132 49 -211 176 -211c62 0 105 12 155 52l26 -35c-52 -43 -113 -61 -178 -61c-151 0 -218 84 -228 255h-82v42
h389v-42z" />
    <glyph glyph-name="Euro_tf.alt" 
d="M356 612c-126 0 -171 -79 -182 -214h256v-42h-389v42h82c17 197 116 259 238 259c65 0 130 -29 181 -83l-32 -31c-33 31 -80 69 -154 69zM430 243h-258c9 -132 49 -211 176 -211c62 0 105 12 155 52l26 -35c-52 -43 -113 -61 -178 -61c-151 0 -218 84 -228 255h-82v42
h389v-42z" />
    <glyph glyph-name="agrave.alt" horiz-adv-x="493" 
d="M88 433l-14 41c29 12 107 32 168 32c106 0 150 -47 150 -164v-276c0 -29 12 -35 28 -35s29 6 53 19l15 -37c-24 -16 -54 -24 -78 -24c-36 0 -63 20 -63 65c-36 -39 -91 -68 -156 -68c-81 0 -141 47 -141 147c0 112 71 159 181 159c38 0 73 -3 111 -9v60
c0 94 -40 121 -108 121c-48 0 -111 -15 -146 -31zM342 101v137c-28 6 -58 12 -104 12c-76 0 -135 -18 -135 -110c0 -79 33 -111 99 -111c55 0 111 36 140 72zM202 758l106 -174l-23 -19c-57 58 -95 97 -114 121c-10 12 -19 26 -19 37c0 21 25 29 50 35z" />
    <glyph glyph-name="aacute.alt" horiz-adv-x="493" 
d="M88 433l-14 41c29 12 107 32 168 32c106 0 150 -47 150 -164v-276c0 -29 12 -35 28 -35s29 6 53 19l15 -37c-24 -16 -54 -24 -78 -24c-36 0 -63 20 -63 65c-36 -39 -91 -68 -156 -68c-81 0 -141 47 -141 147c0 112 71 159 181 159c38 0 73 -3 111 -9v60
c0 94 -40 121 -108 121c-48 0 -111 -15 -146 -31zM342 101v137c-28 6 -58 12 -104 12c-76 0 -135 -18 -135 -110c0 -79 33 -111 99 -111c55 0 111 36 140 72zM175 584l106 174c25 -6 49 -13 49 -34c0 -11 -9 -25 -19 -37c-19 -24 -56 -64 -113 -122z" />
    <glyph glyph-name="acircumflex.alt" horiz-adv-x="493" 
d="M88 433l-14 41c29 12 107 32 168 32c106 0 150 -47 150 -164v-276c0 -29 12 -35 28 -35s29 6 53 19l15 -37c-24 -16 -54 -24 -78 -24c-36 0 -63 20 -63 65c-36 -39 -91 -68 -156 -68c-81 0 -141 47 -141 147c0 112 71 159 181 159c38 0 73 -3 111 -9v60
c0 94 -40 121 -108 121c-48 0 -111 -15 -146 -31zM342 101v137c-28 6 -58 12 -104 12c-76 0 -135 -18 -135 -110c0 -79 33 -111 99 -111c55 0 111 36 140 72zM122 587l-22 16c45 66 74 104 92 126c10 13 23 23 40 23c16 0 28 -7 40 -22c21 -25 49 -60 92 -127l-21 -17
l-111 105z" />
    <glyph glyph-name="atilde.alt" horiz-adv-x="493" 
d="M88 433l-14 41c29 12 107 32 168 32c106 0 150 -47 150 -164v-276c0 -29 12 -35 28 -35s29 6 53 19l15 -37c-24 -16 -54 -24 -78 -24c-36 0 -63 20 -63 65c-36 -39 -91 -68 -156 -68c-81 0 -141 47 -141 147c0 112 71 159 181 159c38 0 73 -3 111 -9v60
c0 94 -40 121 -108 121c-48 0 -111 -15 -146 -31zM342 101v137c-28 6 -58 12 -104 12c-76 0 -135 -18 -135 -110c0 -79 33 -111 99 -111c55 0 111 36 140 72zM98 620l-6 47c23 18 53 26 78 26c49 0 84 -25 127 -25c20 0 41 7 58 17l7 -50c-20 -10 -38 -17 -65 -17
c-42 0 -92 21 -129 21c-25 0 -46 -6 -70 -19z" />
    <glyph glyph-name="adieresis.alt" horiz-adv-x="493" 
d="M88 433l-14 41c29 12 107 32 168 32c106 0 150 -47 150 -164v-276c0 -29 12 -35 28 -35s29 6 53 19l15 -37c-24 -16 -54 -24 -78 -24c-36 0 -63 20 -63 65c-36 -39 -91 -68 -156 -68c-81 0 -141 47 -141 147c0 112 71 159 181 159c38 0 73 -3 111 -9v60
c0 94 -40 121 -108 121c-48 0 -111 -15 -146 -31zM342 101v137c-28 6 -58 12 -104 12c-76 0 -135 -18 -135 -110c0 -79 33 -111 99 -111c55 0 111 36 140 72zM108 648c0 26 19 45 44 45c24 0 43 -19 43 -45c0 -28 -20 -46 -44 -46c-25 0 -43 18 -43 46zM276 648
c0 26 19 45 44 45c24 0 43 -19 43 -45c0 -28 -20 -46 -44 -46c-25 0 -43 18 -43 46z" />
    <glyph glyph-name="aring.alt" horiz-adv-x="493" 
d="M88 433l-14 41c29 12 107 32 168 32c106 0 150 -47 150 -164v-276c0 -29 12 -35 28 -35s29 6 53 19l15 -37c-24 -16 -54 -24 -78 -24c-36 0 -63 20 -63 65c-36 -39 -91 -68 -156 -68c-81 0 -141 47 -141 147c0 112 71 159 181 159c38 0 73 -3 111 -9v60
c0 94 -40 121 -108 121c-48 0 -111 -15 -146 -31zM342 101v137c-28 6 -58 12 -104 12c-76 0 -135 -18 -135 -110c0 -79 33 -111 99 -111c55 0 111 36 140 72zM149 664c0 50 33 88 86 88c54 0 86 -38 86 -83c0 -52 -34 -89 -88 -89s-84 37 -84 84zM192 664
c0 -30 13 -48 43 -48s43 21 43 48c0 32 -12 53 -43 53c-32 0 -43 -21 -43 -53z" />
    <glyph glyph-name="egrave.alt" horiz-adv-x="466" 
d="M272 506c-141 0 -217 -116 -217 -263c0 -155 73 -257 215 -257c98 0 155 54 156 55l-25 35c-29 -25 -76 -47 -127 -47c-123 0 -165 94 -169 201h307c10 32 16 67 16 102c0 90 -40 174 -156 174zM269 466c85 0 115 -67 115 -133c0 -21 -3 -42 -8 -60h-271
c3 83 46 193 164 193zM228 758l106 -174l-23 -19c-57 58 -95 97 -114 121c-10 12 -19 26 -19 37c0 21 25 29 50 35z" />
    <glyph glyph-name="eacute.alt" horiz-adv-x="466" 
d="M272 506c116 0 156 -84 156 -174c0 -35 -6 -70 -16 -102h-307c4 -107 46 -201 169 -201c51 0 98 22 127 47l25 -35c-1 -1 -58 -55 -156 -55c-142 0 -215 102 -215 257c0 147 76 263 217 263zM269 466c-118 0 -161 -110 -164 -193h271c5 18 8 39 8 60
c0 66 -30 133 -115 133zM203 584l106 174c25 -6 49 -13 49 -34c0 -11 -9 -25 -19 -37c-19 -24 -56 -64 -113 -122z" />
    <glyph glyph-name="ecircumflex.alt" horiz-adv-x="466" 
d="M272 506c-141 0 -217 -116 -217 -263c0 -155 73 -257 215 -257c98 0 155 54 156 55l-25 35c-29 -25 -76 -47 -127 -47c-123 0 -165 94 -169 201h307c10 32 16 67 16 102c0 90 -40 174 -156 174zM269 466c85 0 115 -67 115 -133c0 -21 -3 -42 -8 -60h-271
c3 83 46 193 164 193zM161 587l-22 16c45 66 74 104 92 126c10 13 23 23 40 23c16 0 28 -7 40 -22c21 -25 49 -60 92 -127l-21 -17l-111 105z" />
    <glyph glyph-name="edieresis.alt" horiz-adv-x="466" 
d="M272 506c-141 0 -217 -116 -217 -263c0 -155 73 -257 215 -257c98 0 155 54 156 55l-25 35c-29 -25 -76 -47 -127 -47c-123 0 -165 94 -169 201h307c10 32 16 67 16 102c0 90 -40 174 -156 174zM269 466c85 0 115 -67 115 -133c0 -21 -3 -42 -8 -60h-271
c3 83 46 193 164 193zM141 648c0 26 19 45 44 45c24 0 43 -19 43 -45c0 -28 -20 -46 -44 -46c-25 0 -43 18 -43 46zM309 648c0 26 19 45 44 45c24 0 43 -19 43 -45c0 -28 -20 -46 -44 -46c-25 0 -43 18 -43 46z" />
    <glyph glyph-name="yacute.alt" horiz-adv-x="432" 
d="M372 492h50l-203 -564c-34 -95 -64 -151 -153 -151c-45 0 -91 15 -116 31l18 43c26 -15 58 -30 97 -30c43 0 66 9 100 98l31 81l-176 492h54l149 -425zM183 584l106 174c25 -6 49 -13 49 -34c0 -11 -9 -25 -19 -37c-19 -24 -56 -64 -113 -122z" />
    <glyph glyph-name="ydieresis.alt" horiz-adv-x="432" 
d="M372 492h50l-203 -564c-34 -95 -64 -151 -153 -151c-45 0 -91 15 -116 31l18 43c26 -15 58 -30 97 -30c43 0 66 9 100 98l31 81l-176 492h54l149 -425zM101 648c0 26 19 45 44 45c24 0 43 -19 43 -45c0 -28 -20 -46 -44 -46c-25 0 -43 18 -43 46zM269 648
c0 26 19 45 44 45c24 0 43 -19 43 -45c0 -28 -20 -46 -44 -46c-25 0 -43 18 -43 46z" />
    <glyph glyph-name="amacron.alt" horiz-adv-x="493" 
d="M88 433l-14 41c29 12 107 32 168 32c106 0 150 -47 150 -164v-276c0 -29 12 -35 28 -35s29 6 53 19l15 -37c-24 -16 -54 -24 -78 -24c-36 0 -63 20 -63 65c-36 -39 -91 -68 -156 -68c-81 0 -141 47 -141 147c0 112 71 159 181 159c38 0 73 -3 111 -9v60
c0 94 -40 121 -108 121c-48 0 -111 -15 -146 -31zM342 101v137c-28 6 -58 12 -104 12c-76 0 -135 -18 -135 -110c0 -79 33 -111 99 -111c55 0 111 36 140 72zM106 617v50h243v-50h-243z" />
    <glyph glyph-name="abreve.alt" horiz-adv-x="493" 
d="M88 433l-14 41c29 12 107 32 168 32c106 0 150 -47 150 -164v-276c0 -29 12 -35 28 -35s29 6 53 19l15 -37c-24 -16 -54 -24 -78 -24c-36 0 -63 20 -63 65c-36 -39 -91 -68 -156 -68c-81 0 -141 47 -141 147c0 112 71 159 181 159c38 0 73 -3 111 -9v60
c0 94 -40 121 -108 121c-48 0 -111 -15 -146 -31zM342 101v137c-28 6 -58 12 -104 12c-76 0 -135 -18 -135 -110c0 -79 33 -111 99 -111c55 0 111 36 140 72zM332 719l45 -7c-24 -89 -78 -128 -146 -128c-81 0 -125 54 -140 128l48 7c17 -67 49 -90 95 -90c40 0 76 17 98 90
z" />
    <glyph glyph-name="aogonek.alt" horiz-adv-x="493" 
d="M88 433l-14 41c29 12 107 32 168 32c106 0 150 -47 150 -164v-276c0 -29 12 -35 28 -35s29 6 53 19l15 -37c-52 -30 -94 -94 -94 -148c0 -33 13 -51 44 -51c18 0 37 5 52 11l13 -39c-26 -12 -49 -18 -80 -18c-67 0 -84 45 -84 85c0 52 32 103 61 137c-31 3 -53 23 -53 64
c-36 -39 -91 -68 -156 -68c-81 0 -141 47 -141 147c0 112 71 159 181 159c38 0 73 -3 111 -9v60c0 94 -40 121 -108 121c-48 0 -111 -15 -146 -31zM342 101v137c-28 6 -58 12 -104 12c-76 0 -135 -18 -135 -110c0 -79 33 -111 99 -111c55 0 111 36 140 72z" />
    <glyph glyph-name="emacron.alt" horiz-adv-x="466" 
d="M272 506c-141 0 -217 -116 -217 -263c0 -155 73 -257 215 -257c98 0 155 54 156 55l-25 35c-29 -25 -76 -47 -127 -47c-123 0 -165 94 -169 201h307c10 32 16 67 16 102c0 90 -40 174 -156 174zM269 466c85 0 115 -67 115 -133c0 -21 -3 -42 -8 -60h-271
c3 83 46 193 164 193zM145 617v50h243v-50h-243z" />
    <glyph glyph-name="ebreve.alt" horiz-adv-x="466" 
d="M272 506c-141 0 -217 -116 -217 -263c0 -155 73 -257 215 -257c98 0 155 54 156 55l-25 35c-29 -25 -76 -47 -127 -47c-123 0 -165 94 -169 201h307c10 32 16 67 16 102c0 90 -40 174 -156 174zM269 466c85 0 115 -67 115 -133c0 -21 -3 -42 -8 -60h-271
c3 83 46 193 164 193zM363 719l45 -7c-24 -89 -78 -128 -146 -128c-81 0 -125 54 -140 128l48 7c17 -67 49 -90 95 -90c40 0 76 17 98 90z" />
    <glyph glyph-name="edotaccent.alt" horiz-adv-x="466" 
d="M272 506c-141 0 -217 -116 -217 -263c0 -155 73 -257 215 -257c98 0 155 54 156 55l-25 35c-29 -25 -76 -47 -127 -47c-123 0 -165 94 -169 201h307c10 32 16 67 16 102c0 90 -40 174 -156 174zM269 466c85 0 115 -67 115 -133c0 -21 -3 -42 -8 -60h-271
c3 83 46 193 164 193zM223 633c0 24 18 42 41 42c22 0 40 -18 40 -42c0 -26 -19 -43 -41 -43c-23 0 -40 17 -40 43z" />
    <glyph glyph-name="eogonek.alt" horiz-adv-x="466" 
d="M272 506c116 0 156 -84 156 -174c0 -35 -6 -70 -16 -102h-307c4 -107 46 -201 169 -201c51 0 98 22 127 47l25 -35c-1 -1 -37 -24 -71 -46c-39 -25 -73 -81 -73 -130c0 -33 13 -51 44 -51c18 0 37 5 52 11l13 -39c-26 -12 -49 -18 -80 -18c-67 0 -84 45 -84 85
c0 51 30 100 58 134c-5 -1 -10 -1 -15 -1c-142 0 -215 102 -215 257c0 147 76 263 217 263zM269 466c-118 0 -161 -110 -164 -193h271c5 18 8 39 8 60c0 66 -30 133 -115 133z" />
    <glyph glyph-name="ecaron.alt" horiz-adv-x="466" 
d="M272 506c-141 0 -217 -116 -217 -263c0 -155 73 -257 215 -257c98 0 155 54 156 55l-25 35c-29 -25 -76 -47 -127 -47c-123 0 -165 94 -169 201h307c10 32 16 67 16 102c0 90 -40 174 -156 174zM269 466c85 0 115 -67 115 -133c0 -21 -3 -42 -8 -60h-271
c3 83 46 193 164 193zM373 751l22 -16c-45 -66 -74 -104 -92 -126c-10 -13 -23 -23 -40 -23c-16 0 -28 7 -40 22c-21 25 -49 60 -92 127l21 17l111 -105z" />
    <glyph glyph-name="gcircumflex.alt" horiz-adv-x="457" 
d="M357 434c27 -35 31 -73 31 -101c0 -88 -55 -169 -165 -169c-34 0 -53 8 -55 8l-26 -75l110 -17c108 -17 210 -29 210 -139c0 -88 -69 -164 -224 -164c-149 0 -196 54 -196 127c0 71 56 121 94 146c-44 9 -58 22 -40 63l32 75c-40 21 -71 69 -71 143c0 110 75 175 168 175
c50 0 84 -15 107 -32l119 21v-55zM272 33l-79 11c-45 -28 -100 -79 -100 -138c0 -43 23 -86 158 -86c98 0 158 49 158 119c0 42 -19 78 -137 94zM220 207c67 0 118 49 118 122c0 79 -43 135 -116 135c-68 0 -113 -57 -113 -129c0 -67 26 -128 111 -128zM118 587l-22 16
c45 66 74 104 92 126c10 13 23 23 40 23c16 0 28 -7 40 -22c21 -25 49 -60 92 -127l-21 -17l-111 105z" />
    <glyph glyph-name="gbreve.alt" horiz-adv-x="457" 
d="M357 434c27 -35 31 -73 31 -101c0 -88 -55 -169 -165 -169c-34 0 -53 8 -55 8l-26 -75l110 -17c108 -17 210 -29 210 -139c0 -88 -69 -164 -224 -164c-149 0 -196 54 -196 127c0 71 56 121 94 146c-44 9 -58 22 -40 63l32 75c-40 21 -71 69 -71 143c0 110 75 175 168 175
c50 0 84 -15 107 -32l119 21v-55zM272 33l-79 11c-45 -28 -100 -79 -100 -138c0 -43 23 -86 158 -86c98 0 158 49 158 119c0 42 -19 78 -137 94zM220 207c67 0 118 49 118 122c0 79 -43 135 -116 135c-68 0 -113 -57 -113 -129c0 -67 26 -128 111 -128zM323 719l45 -7
c-24 -89 -78 -128 -146 -128c-81 0 -125 54 -140 128l48 7c17 -67 49 -90 95 -90c40 0 76 17 98 90z" />
    <glyph glyph-name="gdotaccent.alt" horiz-adv-x="457" 
d="M357 434c27 -35 31 -73 31 -101c0 -88 -55 -169 -165 -169c-34 0 -53 8 -55 8l-26 -75l110 -17c108 -17 210 -29 210 -139c0 -88 -69 -164 -224 -164c-149 0 -196 54 -196 127c0 71 56 121 94 146c-44 9 -58 22 -40 63l32 75c-40 21 -71 69 -71 143c0 110 75 175 168 175
c50 0 84 -15 107 -32l119 21v-55zM272 33l-79 11c-45 -28 -100 -79 -100 -138c0 -43 23 -86 158 -86c98 0 158 49 158 119c0 42 -19 78 -137 94zM220 207c67 0 118 49 118 122c0 79 -43 135 -116 135c-68 0 -113 -57 -113 -129c0 -67 26 -128 111 -128zM179 633
c0 24 18 42 41 42c22 0 40 -18 40 -42c0 -26 -19 -43 -41 -43c-23 0 -40 17 -40 43z" />
    <glyph glyph-name="gcommaaccent.alt" horiz-adv-x="457" 
d="M357 434c27 -35 31 -73 31 -101c0 -88 -55 -169 -165 -169c-34 0 -53 8 -55 8l-26 -75l110 -17c108 -17 210 -29 210 -139c0 -88 -69 -164 -224 -164c-149 0 -196 54 -196 127c0 71 56 121 94 146c-44 9 -58 22 -40 63l32 75c-40 21 -71 69 -71 143c0 110 75 175 168 175
c50 0 84 -15 107 -32l119 21v-55zM272 33l-79 11c-45 -28 -100 -79 -100 -138c0 -43 23 -86 158 -86c98 0 158 49 158 119c0 42 -19 78 -137 94zM220 207c67 0 118 49 118 122c0 79 -43 135 -116 135c-68 0 -113 -57 -113 -129c0 -67 26 -128 111 -128zM295 769l-58 -182
c-27 1 -55 5 -55 30c0 12 8 27 12 35c14 29 33 62 75 130z" />
    <glyph glyph-name="kcommaaccent.alt" horiz-adv-x="463" 
d="M129 695v-606l254 403h53l-136 -214l138 -278h-51l-117 230l-145 -230h-45v695h49zM225 -76l-58 -182l26 -13c42 68 61 101 75 130c4 8 12 23 12 35c0 25 -28 29 -55 30z" />
    <glyph glyph-name="wcircumflex.alt" horiz-adv-x="692" 
d="M317 492h58l124 -447l121 447h52l-142 -492h-62l-122 441l-122 -441h-62l-142 492h52l121 -447zM238 587l-22 16c45 66 74 104 92 126c10 13 23 23 40 23c16 0 28 -7 40 -22c21 -25 49 -60 92 -127l-21 -17l-111 105z" />
    <glyph glyph-name="wgrave.alt" horiz-adv-x="692" 
d="M317 492h58l124 -447l121 447h52l-142 -492h-62l-122 441l-122 -441h-62l-142 492h52l121 -447zM308 758l106 -174l-23 -19c-57 58 -95 97 -114 121c-10 12 -19 26 -19 37c0 21 25 29 50 35z" />
    <glyph glyph-name="wacute.alt" horiz-adv-x="692" 
d="M317 492h58l124 -447l121 447h52l-142 -492h-62l-122 441l-122 -441h-62l-142 492h52l121 -447zM273 584l106 174c25 -6 49 -13 49 -34c0 -11 -9 -25 -19 -37c-19 -24 -56 -64 -113 -122z" />
    <glyph glyph-name="wdieresis.alt" horiz-adv-x="692" 
d="M317 492h58l124 -447l121 447h52l-142 -492h-62l-122 441l-122 -441h-62l-142 492h52l121 -447zM221 648c0 26 19 45 44 45c24 0 43 -19 43 -45c0 -28 -20 -46 -44 -46c-25 0 -43 18 -43 46zM389 648c0 26 19 45 44 45c24 0 43 -19 43 -45c0 -28 -20 -46 -44 -46
c-25 0 -43 18 -43 46z" />
    <glyph glyph-name="ygrave.alt" horiz-adv-x="432" 
d="M372 492h50l-203 -564c-34 -95 -64 -151 -153 -151c-45 0 -91 15 -116 31l18 43c26 -15 58 -30 97 -30c43 0 66 9 100 98l31 81l-176 492h54l149 -425zM168 758l106 -174l-23 -19c-57 58 -95 97 -114 121c-10 12 -19 26 -19 37c0 21 25 29 50 35z" />
    <glyph glyph-name="ycircumflex.alt" horiz-adv-x="432" 
d="M372 492h50l-203 -564c-34 -95 -64 -151 -153 -151c-45 0 -91 15 -116 31l18 43c26 -15 58 -30 97 -30c43 0 66 9 100 98l31 81l-176 492h54l149 -425zM113 587l-22 16c45 66 74 104 92 126c10 13 23 23 40 23c16 0 28 -7 40 -22c21 -25 49 -60 92 -127l-21 -17l-111 105
z" />
    <glyph glyph-name="zacute.alt" horiz-adv-x="409" 
d="M399 0h-373v35l302 417h-278v40h341v-30l-306 -421h314v-41zM183 584l106 174c25 -6 49 -13 49 -34c0 -11 -9 -25 -19 -37c-19 -24 -56 -64 -113 -122z" />
    <glyph glyph-name="zdotaccent.alt" horiz-adv-x="409" 
d="M399 0h-373v35l302 417h-278v40h341v-30l-306 -421h314v-41zM184 633c0 24 18 42 41 42c22 0 40 -18 40 -42c0 -26 -19 -43 -41 -43c-23 0 -40 17 -40 43z" />
    <glyph glyph-name="zcaron.alt" horiz-adv-x="409" 
d="M399 0h-373v35l302 417h-278v40h341v-30l-306 -421h314v-41zM332 751l22 -16c-45 -66 -74 -104 -92 -126c-10 -13 -23 -23 -40 -23c-16 0 -28 7 -40 22c-21 25 -49 60 -92 127l21 17l111 -105z" />
    </font>
</defs>
</svg>
