<?xml version="1.0" encoding="UTF-8" standalone="no"?>
<svg width="64px" height="86px" viewBox="0 0 64 86" version="1.1" xmlns="http://www.w3.org/2000/svg" xmlns:xlink="http://www.w3.org/1999/xlink">
    <!-- Generator: Sketch 39.1 (31720) - http://www.bohemiancoding.com/sketch -->
    <title>Group 2</title>
    <desc>Created with Sketch.</desc>
    <defs></defs>
    <g id="Page-1" stroke="none" stroke-width="1" fill="none" fill-rule="evenodd">
        <g id="logo-mail" fill="#E17A31">
            <g id="Group">
                <g id="Group-2">
                    <path d="M45.321797,12.9490849 C45.321797,20.0838602 39.5394343,25.855574 32.4046589,25.855574 C25.2805324,25.855574 19.4981697,20.0838602 19.4981697,12.9490849 C19.4981697,5.8249584 25.2805324,0.0425956739 32.4046589,0.0425956739 C39.5394343,0.0425956739 45.321797,5.81430948 45.321797,12.9490849 L45.321797,12.9490849 Z" id="Shape"></path>
                    <path d="M61.3803661,70.4319468 L49.3896839,58.4519135 L49.3896839,58.3986689 C48.197005,57.20599 47.4515807,55.5554077 47.4515807,53.7344426 C47.4515807,51.9028286 48.197005,50.2522463 49.3896839,49.0702163 L49.3896839,49.0169717 L61.3803661,37.0369384 C64.8732113,33.5440932 64.8732113,27.8895175 61.3803661,24.3966722 C57.8875208,20.903827 52.2329451,20.903827 48.7400998,24.3966722 L36.6535774,36.4831947 L36.6109817,36.4831947 C35.4289517,37.622629 33.8209651,38.3254576 32.0532446,38.3254576 C30.2855241,38.3254576 28.6881864,37.622629 27.5061564,36.4831947 L27.431614,36.4831947 L15.3450915,24.3966722 C11.8522463,20.903827 6.19767055,20.903827 2.71547421,24.3966722 C-0.777371048,27.8788686 -0.777371048,33.5334443 2.71547421,37.0262895 L14.503827,48.8252912 L14.503827,48.8891847 C15.8242928,50.0925125 16.6549085,51.8069884 16.6549085,53.7344426 C16.6549085,55.6512479 15.8242928,57.3657238 14.503827,58.5690516 L14.503827,58.643594 L2.71547421,70.4319468 C-0.777371048,73.924792 -0.777371048,79.5793677 2.71547421,83.072213 C6.19767055,86.5544093 11.8628952,86.5544093 15.3450915,83.072213 L27.037604,71.3797005 L27.1440932,71.3797005 C28.347421,70.0166389 30.0938436,69.1327787 32.0532446,69.1327787 C34.0126456,69.1327787 35.7590682,70.00599 36.962396,71.3797005 L37.0475874,71.3797005 L48.7400998,83.072213 C52.2329451,86.5544093 57.8875208,86.5544093 61.3803661,83.072213 C64.8625624,79.5793677 64.8625624,73.924792 61.3803661,70.4319468 L61.3803661,70.4319468 Z" id="Shape"></path>
                </g>
            </g>
        </g>
    </g>
</svg>