<?xml version="1.0" encoding="utf-8"?>
<!-- Generator: Adobe Illustrator 25.4.1, SVG Export Plug-In . SVG Version: 6.00 Build 0)  -->
<svg version="1.1" id="Calque_1" xmlns="http://www.w3.org/2000/svg" xmlns:xlink="http://www.w3.org/1999/xlink" x="0px" y="0px"
	 viewBox="0 0 158 83" style="enable-background:new 0 0 158 83;" xml:space="preserve">
<style type="text/css">
	.st0{fill-rule:evenodd;clip-rule:evenodd;fill:#FF503A;}
	.st1{enable-background:new    ;}
	.st2{fill:#FFFFFF;}
</style>
<g id="STYLEGUIDE">
	<g id="Header-1" transform="translate(-119.000000, -48.000000)">
		<g id="Group" transform="translate(119.000000, 48.000000)">
			<rect id="Rectangle-Copy-7" class="st0" width="158" height="83"/>
			<g class="st1">
				<path class="st2" d="M36.2,31.9h4.3v17.7h7v3.9H36.2V31.9z"/>
				<path class="st2" d="M49,42.8c0-6.4,4.5-11.1,11.3-11.1c6.6,0,11.3,4.9,11.3,11.1c0,6.4-4.5,11.1-11.3,11.1
					C53.5,53.9,49,49,49,42.8z M53.5,42.8c0,4.1,2.9,7.2,6.8,7.2s6.8-3.1,6.8-7.2s-2.9-7.2-6.8-7.2C56.2,35.6,53.5,38.7,53.5,42.8z"
					/>
				<path class="st2" d="M94,35l-2.7,2.9c-0.6-0.6-2.5-2.5-5.6-2.5c-4.3,0-6.8,3.1-6.8,7.2c0,4.3,2.9,7.2,6.8,7.2
					c3.1,0,4.7-1.2,5.1-1.6v-2.7h-4.1v-3.7h8.2v8.6c-2.3,2.1-4.9,3.5-9.5,3.5c-6.2,0-11.1-4.3-11.1-11.1c0-6.2,4.5-11.1,11.1-11.1
					C89.9,31.5,92.8,33.7,94,35z"/>
				<path class="st2" d="M98.4,42.8c0-6.4,4.5-11.1,11.3-11.1c6.6,0,11.3,4.9,11.3,11.1c0,6.4-4.5,11.1-11.3,11.1
					C102.9,53.9,98.4,49,98.4,42.8z M102.9,42.8c0,4.1,2.9,7.2,6.8,7.2s6.8-3.1,6.8-7.2s-2.9-7.2-6.8-7.2S102.9,38.7,102.9,42.8z"/>
			</g>
		</g>
	</g>
</g>
</svg>
