<?xml version="1.0" encoding="utf-8"?>
<!-- Generator: Adobe Illustrator 24.3.0, SVG Export Plug-In . SVG Version: 6.00 Build 0)  -->
<svg version="1.1" id="Calque_1" xmlns="http://www.w3.org/2000/svg" xmlns:xlink="http://www.w3.org/1999/xlink" x="0px" y="0px"
	 viewBox="0 0 150 80" style="enable-background:new 0 0 150 80;" xml:space="preserve">
<style type="text/css">
	.st0{fill:#1D1D1B;}
</style>
<g>
	<path class="st0" d="M20.9,39.4l-0.4,4.2H6.1l0.3-8L6.1,16.8h5.7l-0.3,18.3l0.1,3.8h9L20.9,39.4z"/>
	<path class="st0" d="M37.8,26.4c1.5,1.7,2.2,4.1,2.2,7.2c0,3.4-0.8,6-2.4,7.8C36,43.1,33.7,44,30.6,44c-2.8,0-5-0.8-6.5-2.5
		c-1.5-1.7-2.2-4.1-2.2-7.2c0-3.4,0.8-6,2.4-7.8c1.6-1.8,3.9-2.7,6.9-2.7C34.1,23.9,36.3,24.7,37.8,26.4z M28,28.9
		c-0.6,0.9-0.9,2.3-0.9,4.3c0,2.5,0.3,4.4,0.9,5.4c0.6,1.1,1.6,1.6,3,1.6c1.3,0,2.3-0.4,2.9-1.3c0.6-0.9,0.9-2.3,0.9-4.3
		c0-2.5-0.3-4.3-0.9-5.4s-1.6-1.6-3-1.6C29.6,27.6,28.6,28.1,28,28.9z"/>
	<path class="st0" d="M59.2,27.5l-0.1,0.2c0.4,0.8,0.6,1.8,0.6,2.8c0,2.1-0.8,3.7-2.3,5c-1.5,1.2-3.6,1.8-6.1,1.8
		c-0.8,0-1.6-0.1-2.4-0.2c-0.2,0.2-0.4,0.4-0.5,0.6c-0.1,0.1-0.1,0.3-0.1,0.5c0,0.5,0.3,0.8,1,1c0.7,0.2,1.7,0.4,3.2,0.6
		c1.6,0.2,3,0.4,4.1,0.7s2,0.8,2.8,1.5c0.8,0.7,1.2,1.7,1.2,3c0,1.3-0.4,2.5-1.2,3.5c-0.8,1-1.9,1.8-3.4,2.4
		c-1.4,0.6-3.1,0.9-4.9,0.9c-2.5,0-4.5-0.5-5.8-1.5c-1.4-1-2-2.4-2-4.1c0.9-1.2,2-2.2,3.5-3.1v-0.2c-0.9-0.3-1.7-0.8-2.2-1.4
		c-0.5-0.6-0.8-1.4-0.8-2.4c0.7-0.9,1.7-1.8,2.8-2.5v-0.2c-1-0.6-1.8-1.3-2.3-2.2c-0.5-0.9-0.8-2-0.8-3.2c0-2.2,0.7-3.9,2.2-5.1
		c1.5-1.2,3.5-1.8,6.1-1.8c1.5,0,2.9,0.2,4.1,0.7c2-0.4,4-0.9,6.1-1.7l0.4,0.4v3.5C61.6,27.1,60.5,27.3,59.2,27.5z M54.7,44.3
		c-0.8-0.3-2-0.5-3.6-0.7l-1.4-0.2c-0.7,0.4-1.2,0.9-1.5,1.3c-0.3,0.4-0.5,0.9-0.5,1.3c0,0.7,0.3,1.3,1,1.7s1.6,0.7,2.9,0.7
		c1.3,0,2.3-0.2,3.1-0.7c0.8-0.5,1.2-1.1,1.2-1.9C55.9,45.1,55.5,44.6,54.7,44.3z M54,33.1c0.6-0.6,0.9-1.4,0.9-2.5
		c0-2.1-1.1-3.2-3.2-3.2c-2.3,0-3.5,1.1-3.5,3.2c0,1.1,0.3,1.9,0.8,2.5c0.6,0.6,1.4,0.9,2.5,0.9C52.6,33.9,53.5,33.6,54,33.1z"/>
	<path class="st0" d="M78.9,26.4c1.5,1.7,2.2,4.1,2.2,7.2c0,3.4-0.8,6-2.4,7.8c-1.6,1.8-3.9,2.7-6.9,2.7c-2.8,0-5-0.8-6.5-2.5
		c-1.5-1.7-2.2-4.1-2.2-7.2c0-3.4,0.8-6,2.4-7.8c1.6-1.8,3.9-2.7,6.9-2.7C75.2,23.9,77.4,24.7,78.9,26.4z M69.2,28.9
		c-0.6,0.9-0.9,2.3-0.9,4.3c0,2.5,0.3,4.4,0.9,5.4c0.6,1.1,1.6,1.6,3,1.6c1.3,0,2.3-0.4,2.9-1.3c0.6-0.9,0.9-2.3,0.9-4.3
		c0-2.5-0.3-4.3-0.9-5.4s-1.6-1.6-3-1.6C70.7,27.6,69.8,28.1,69.2,28.9z"/>
	<path class="st0" d="M101,17.8l-0.9,4.9L99.3,23c-0.9-0.7-1.9-1.2-2.9-1.6c-1-0.4-1.9-0.6-2.8-0.6c-1.1,0-2,0.3-2.7,0.9
		c-0.7,0.6-1,1.3-1,2.1c0,0.8,0.4,1.5,1.1,2c0.7,0.6,1.9,1.2,3.5,2c1.5,0.7,2.8,1.3,3.7,1.9c1,0.6,1.8,1.4,2.5,2.3
		c0.7,1,1,2.2,1,3.6c0,1.5-0.4,2.9-1.2,4.2c-0.8,1.3-2,2.3-3.5,3c-1.5,0.7-3.3,1.1-5.3,1.1c-2.6,0-5.3-0.6-7.9-1.7l0.8-5.2l0.6-0.3
		c1.1,1,2.3,1.7,3.6,2.2c1.3,0.5,2.5,0.8,3.5,0.8c1.2,0,2.2-0.3,2.8-0.9c0.7-0.6,1-1.3,1-2.1c0-0.9-0.4-1.6-1.1-2.2
		c-0.7-0.6-1.9-1.2-3.6-2c-1.5-0.7-2.7-1.3-3.7-1.9c-0.9-0.6-1.7-1.4-2.4-2.3c-0.7-1-1-2.1-1-3.5c0-1.6,0.4-3,1.2-4.2
		c0.8-1.3,2-2.3,3.5-3c1.5-0.7,3.2-1.1,5.1-1.1C96.5,16.5,98.8,16.9,101,17.8z"/>
	<path class="st0" d="M110.6,15.5c0.5,0.5,0.7,1.2,0.7,2.1c0,0.9-0.3,1.7-0.8,2.2c-0.5,0.6-1.2,0.8-2.2,0.8c-0.9,0-1.6-0.2-2.1-0.7
		c-0.5-0.5-0.7-1.2-0.7-2.1s0.3-1.6,0.8-2.2c0.5-0.6,1.3-0.8,2.2-0.8C109.5,14.8,110.2,15,110.6,15.5z M106,35.6l-0.2-11l5.4-0.5
		L111,35.1l0.2,8.5h-5.5L106,35.6z"/>
	<path class="st0" d="M127.1,38.8l0.5,0.4l-0.5,3.3c-1.4,0.7-2.9,1.2-4.3,1.3c-3.7-0.4-5.6-2.2-5.6-5.5l0.2-3.5l0-7.1h-2.6l-0.2-0.3
		l0.3-3h2.5v-3.2l5-1.6l0.4,0.3l-0.1,4.5h4.9l0.2,0.3l-0.2,3h-4.9l-0.2,9.3c0,0.9,0.2,1.5,0.5,1.9c0.3,0.4,0.9,0.6,1.7,0.6
		C125.2,39.5,126.1,39.3,127.1,38.8z"/>
	<path class="st0" d="M145.2,34.6L134,34.7c0.2,3.5,2,5.2,5.3,5.2c1.7,0,3.6-0.5,5.7-1.5l0.5,0.3l-0.8,4.1c-2.1,0.8-4.1,1.2-5.9,1.2
		c-3,0-5.4-0.9-7.2-2.7c-1.7-1.8-2.6-4.2-2.6-7.4c0-3.1,0.8-5.6,2.5-7.4c1.7-1.8,4-2.7,6.9-2.7c2.5,0,4.4,0.7,5.7,2
		c1.3,1.3,2,3.2,2,5.6c0,0.6-0.1,1.4-0.2,2.4L145.2,34.6z M141.2,30.9c0-1.1-0.2-1.9-0.7-2.5c-0.5-0.6-1.2-0.9-2.2-0.9
		c-1.1,0-2,0.4-2.7,1.1c-0.7,0.7-1.2,1.7-1.5,3.1l7-0.2L141.2,30.9z"/>
</g>
<g>
	<path class="st0" d="M5.1,57.6L3.9,62H3.4l0-0.1l1.2-4.4L5.1,57.6L5.1,57.6z"/>
	<path class="st0" d="M7,58.9c0.2,0.1,0.2,0.3,0.2,0.5c0,0.1,0,0.3,0,0.6c0,0.1,0,0.2,0,0.3c0,0.1,0,0.2,0,0.3c0,0.1,0,0.1,0,0.1
		c0,0,0.1,0,0.1,0c0,0,0.1,0,0.1,0l0.1,0l-0.1,0.4c-0.1,0.1-0.3,0.1-0.4,0.1c-0.1,0-0.2-0.1-0.3-0.1c-0.1-0.1-0.1-0.2-0.2-0.3h0
		c-0.2,0.2-0.4,0.3-0.6,0.4c-0.3,0-0.5-0.1-0.6-0.2s-0.2-0.3-0.2-0.6c0-0.2,0-0.3,0.1-0.4C5.4,60.1,5.5,60,5.7,60l0.9-0.2v-0.2
		c0-0.2-0.1-0.4-0.4-0.4c-0.1,0-0.2,0-0.4,0.1c-0.1,0.1-0.3,0.1-0.4,0.2l-0.1,0L5.3,59c0.2-0.1,0.3-0.2,0.5-0.2
		c0.2-0.1,0.4-0.1,0.5-0.1C6.6,58.7,6.9,58.8,7,58.9z M6,60.3c-0.1,0-0.1,0-0.1,0.1c0,0,0,0.1,0,0.2c0,0.1,0,0.2,0.1,0.2
		c0.1,0.1,0.1,0.1,0.2,0.1c0.1,0,0.3-0.1,0.5-0.3l0-0.4L6,60.3z"/>
	<path class="st0" d="M10.1,59.1c0.2,0.2,0.3,0.5,0.3,0.9c0,0.5-0.1,0.8-0.3,1.1c-0.2,0.2-0.5,0.4-1,0.4c-0.1,0-0.2,0-0.4,0l0,1H8
		l0-2.1l0-1.5l0.7-0.1l0,0.4h0C8.9,59,9,59,9.1,58.9c0.1-0.1,0.2-0.1,0.3-0.2C9.7,58.7,10,58.8,10.1,59.1z M9.6,60.7
		c0.1-0.1,0.2-0.3,0.2-0.6c0-0.3,0-0.5-0.1-0.6c-0.1-0.1-0.2-0.2-0.4-0.2c-0.2,0-0.3,0.1-0.5,0.2l0,0.6l0,0.6
		c0.1,0.1,0.3,0.1,0.4,0.1C9.3,60.9,9.5,60.9,9.6,60.7z"/>
	<path class="st0" d="M13,59.1c0.2,0.2,0.3,0.5,0.3,0.9c0,0.5-0.1,0.8-0.3,1.1c-0.2,0.2-0.5,0.4-1,0.4c-0.1,0-0.2,0-0.4,0l0,1h-0.7
		l0-2.1l0-1.5l0.7-0.1l0,0.4h0c0.1-0.1,0.2-0.2,0.3-0.2c0.1-0.1,0.2-0.1,0.3-0.2C12.6,58.7,12.9,58.8,13,59.1z M12.5,60.7
		c0.1-0.1,0.2-0.3,0.2-0.6c0-0.3,0-0.5-0.1-0.6c-0.1-0.1-0.2-0.2-0.4-0.2c-0.2,0-0.3,0.1-0.5,0.2l0,0.6l0,0.6
		c0.1,0.1,0.3,0.1,0.4,0.1C12.2,60.9,12.4,60.9,12.5,60.7z"/>
	<path class="st0" d="M15.2,57.6L14,62h-0.5l0-0.1l1.2-4.4L15.2,57.6L15.2,57.6z"/>
	<path class="st0" d="M16.8,60.7L16.8,60.7l0,0.5c-0.2,0.1-0.4,0.2-0.6,0.2c-0.5-0.1-0.8-0.3-0.8-0.7l0-0.5l0-1h-0.3l0,0l0-0.4h0.3
		v-0.4l0.7-0.2l0.1,0l0,0.6h0.7l0,0l0,0.4h-0.7l0,1.3c0,0.1,0,0.2,0.1,0.3c0,0.1,0.1,0.1,0.2,0.1C16.6,60.8,16.7,60.8,16.8,60.7z"/>
	<path class="st0" d="M18.9,59.7c0-0.1,0-0.2-0.1-0.3c-0.1-0.1-0.1-0.1-0.3-0.1c-0.2,0-0.3,0.1-0.5,0.2l0,0.6l0,1.1h-0.7l0-1.1
		l0-2.8l0.7-0.1l0,1.7h0c0.2-0.2,0.4-0.3,0.7-0.4c0.3,0,0.5,0.1,0.6,0.2c0.1,0.1,0.2,0.3,0.2,0.6l0,0.7l0,1.1h-0.7L18.9,59.7z"/>
	<path class="st0" d="M22.3,60.2l-1.5,0c0,0.5,0.3,0.7,0.7,0.7c0.2,0,0.5-0.1,0.8-0.2l0.1,0l-0.1,0.6c-0.3,0.1-0.6,0.2-0.8,0.2
		c-0.4,0-0.7-0.1-1-0.4c-0.2-0.2-0.3-0.6-0.3-1c0-0.4,0.1-0.7,0.3-1s0.5-0.4,0.9-0.4c0.3,0,0.6,0.1,0.8,0.3c0.2,0.2,0.3,0.4,0.3,0.8
		C22.4,59.8,22.4,59.9,22.3,60.2L22.3,60.2z M21.7,59.7c0-0.1,0-0.3-0.1-0.3c-0.1-0.1-0.2-0.1-0.3-0.1c-0.1,0-0.3,0-0.4,0.1
		c-0.1,0.1-0.2,0.2-0.2,0.4L21.7,59.7L21.7,59.7z"/>
	<path class="st0" d="M26,61.4l0-1.6c0-0.3-0.1-0.4-0.4-0.4c-0.2,0-0.3,0.1-0.5,0.2l0,0.7l0,1.1h-0.7l0-1.6c0-0.1,0-0.2-0.1-0.3
		c-0.1-0.1-0.2-0.1-0.3-0.1c-0.2,0-0.3,0.1-0.5,0.2v0.7l0,1.1h-0.7l0-1.1l0-1.5l0.7-0.1v0.4h0c0.2-0.2,0.4-0.3,0.7-0.4
		c0.4,0,0.7,0.1,0.8,0.4h0c0.2-0.2,0.5-0.3,0.7-0.4c0.3,0,0.5,0.1,0.6,0.2c0.1,0.1,0.2,0.3,0.2,0.6l0,0.7l0,1.1H26z"/>
	<path class="st0" d="M29.4,60.2l-1.5,0c0,0.5,0.3,0.7,0.7,0.7c0.2,0,0.5-0.1,0.8-0.2l0.1,0l-0.1,0.6c-0.3,0.1-0.6,0.2-0.8,0.2
		c-0.4,0-0.7-0.1-1-0.4c-0.2-0.2-0.3-0.6-0.3-1c0-0.4,0.1-0.7,0.3-1s0.5-0.4,0.9-0.4c0.3,0,0.6,0.1,0.8,0.3c0.2,0.2,0.3,0.4,0.3,0.8
		C29.6,59.8,29.5,59.9,29.4,60.2L29.4,60.2z M28.9,59.7c0-0.1,0-0.3-0.1-0.3c-0.1-0.1-0.2-0.1-0.3-0.1c-0.1,0-0.3,0-0.4,0.1
		c-0.1,0.1-0.2,0.2-0.2,0.4L28.9,59.7L28.9,59.7z"/>
	<path class="st0" d="M31.7,58.9l-0.1,0.5l-0.1,0c-0.1-0.1-0.2-0.1-0.3-0.2c-0.1,0-0.2-0.1-0.3-0.1c-0.1,0-0.2,0-0.2,0.1
		c-0.1,0-0.1,0.1-0.1,0.2c0,0.1,0,0.1,0.1,0.2c0.1,0,0.2,0.1,0.3,0.2c0.1,0.1,0.3,0.1,0.4,0.2c0.1,0.1,0.2,0.1,0.2,0.2
		c0.1,0.1,0.1,0.2,0.1,0.4c0,0.1,0,0.3-0.1,0.4c-0.1,0.1-0.2,0.2-0.3,0.3c-0.2,0.1-0.3,0.1-0.6,0.1c-0.3,0-0.5-0.1-0.8-0.2l0.1-0.6
		l0.1,0c0.1,0.1,0.2,0.2,0.4,0.2c0.1,0.1,0.3,0.1,0.4,0.1c0.1,0,0.2,0,0.2-0.1c0.1-0.1,0.1-0.1,0.1-0.2c0-0.1,0-0.1-0.1-0.2
		c-0.1,0-0.2-0.1-0.3-0.2c-0.2-0.1-0.3-0.1-0.4-0.2c-0.1-0.1-0.2-0.1-0.2-0.2s-0.1-0.2-0.1-0.4c0-0.2,0.1-0.4,0.3-0.6
		c0.2-0.2,0.4-0.2,0.7-0.2C31.2,58.7,31.4,58.8,31.7,58.9z"/>
	<path class="st0" d="M33.6,57.6L32.4,62h-0.5l0-0.1l1.2-4.4L33.6,57.6L33.6,57.6z"/>
	<path class="st0" d="M34.3,59.2l0.3,1.5h0l0.4-1.4l0.1-0.4h0.7l0.1,0.4l0.3,1.5h0l0.4-1.4l0.1-0.4h0.6l-0.8,2.6h-0.7l-0.4-1.7h-0.1
		l-0.5,1.7h-0.7l-0.7-2.6l0.7,0L34.3,59.2z"/>
	<path class="st0" d="M38.2,59.2l0.3,1.5h0l0.4-1.4l0.1-0.4h0.7l0.1,0.4l0.3,1.5h0l0.4-1.4l0.1-0.4h0.6l-0.8,2.6h-0.7l-0.4-1.7h-0.1
		l-0.5,1.7h-0.7l-0.7-2.6l0.7,0L38.2,59.2z"/>
	<path class="st0" d="M43.7,59.1c0.2,0.2,0.3,0.5,0.3,0.9c0,0.5-0.1,0.8-0.3,1.1c-0.2,0.2-0.5,0.4-1,0.4c-0.1,0-0.2,0-0.4,0l0,1
		h-0.7l0-2.1l0-1.5l0.7-0.1l0,0.4h0c0.1-0.1,0.2-0.2,0.3-0.2c0.1-0.1,0.2-0.1,0.3-0.2C43.3,58.7,43.6,58.8,43.7,59.1z M43.2,60.7
		c0.1-0.1,0.2-0.3,0.2-0.6c0-0.3,0-0.5-0.1-0.6c-0.1-0.1-0.2-0.2-0.4-0.2c-0.2,0-0.3,0.1-0.5,0.2l0,0.6l0,0.6
		c0.1,0.1,0.3,0.1,0.4,0.1C42.9,60.9,43.1,60.9,43.2,60.7z"/>
	<path class="st0" d="M46.5,61.9l0,0.4h-2.6l-0.1-0.1l0-0.4L46.5,61.9L46.5,61.9z"/>
	<path class="st0" d="M48,58.8c0.1,0,0.2,0.1,0.3,0.1l-0.1,0.6l-0.1,0c-0.2-0.1-0.4-0.2-0.5-0.2c-0.2,0-0.3,0.1-0.4,0.2
		c-0.1,0.1-0.1,0.3-0.1,0.5c0,0.3,0.1,0.5,0.2,0.6s0.2,0.2,0.4,0.2c0.2,0,0.4,0,0.6-0.1l0.1,0l-0.1,0.6c-0.2,0.1-0.5,0.1-0.7,0.1
		c-0.4,0-0.6-0.1-0.8-0.3c-0.2-0.2-0.3-0.6-0.3-1c0-0.4,0.1-0.8,0.3-1s0.5-0.4,0.9-0.4C47.8,58.7,47.9,58.7,48,58.8z"/>
	<path class="st0" d="M50.4,59.7c0-0.1,0-0.2-0.1-0.3c-0.1-0.1-0.1-0.1-0.3-0.1c-0.2,0-0.3,0.1-0.5,0.2l0,0.6l0,1.1h-0.7l0-1.1
		l0-2.8l0.7-0.1l0,1.7h0c0.2-0.2,0.4-0.3,0.7-0.4c0.3,0,0.5,0.1,0.6,0.2c0.1,0.1,0.2,0.3,0.2,0.6l0,0.7l0,1.1h-0.7L50.4,59.7z"/>
	<path class="st0" d="M52.4,57.6c0.1,0.1,0.1,0.2,0.1,0.3c0,0.1,0,0.2-0.1,0.3c-0.1,0.1-0.2,0.1-0.3,0.1s-0.2,0-0.3-0.1
		c-0.1-0.1-0.1-0.2-0.1-0.3c0-0.1,0-0.2,0.1-0.3s0.2-0.1,0.3-0.1C52.2,57.5,52.3,57.5,52.4,57.6z M51.8,60.3l0-1.5l0.7-0.1l0,1.5
		l0,1.1h-0.7L51.8,60.3z"/>
	<path class="st0" d="M53.9,60.2l0,1.1h-0.7l0-1.1l0-2.8l0.7-0.1L53.9,60.2z"/>
	<path class="st0" d="M56.8,60.2l0,0.5c0,0.1,0,0.1,0,0.1c0,0,0,0,0.1,0c0,0,0.1,0,0.2,0l0.1,0l-0.1,0.4c-0.1,0.1-0.3,0.1-0.4,0.1
		c-0.1,0-0.2-0.1-0.3-0.1c-0.1-0.1-0.1-0.2-0.2-0.3h0c-0.2,0.2-0.4,0.3-0.6,0.4c-0.4,0-0.6-0.1-0.9-0.3c-0.2-0.2-0.3-0.6-0.3-1
		c0-0.4,0.1-0.8,0.3-1c0.2-0.2,0.6-0.4,1-0.4c0.1,0,0.2,0,0.4,0l0-1.3l0.7-0.1L56.8,60.2z M55.2,59.9c0,0.3,0,0.5,0.1,0.7
		c0.1,0.1,0.2,0.2,0.4,0.2c0.2,0,0.3-0.1,0.5-0.2l0-0.3l0-1c-0.1-0.1-0.3-0.1-0.4-0.1C55.4,59.2,55.2,59.5,55.2,59.9z"/>
	<path class="st0" d="M59.8,61.9l0,0.4h-2.6l-0.1-0.1l0-0.4L59.8,61.9L59.8,61.9z"/>
	<path class="st0" d="M61.3,60.7L61.3,60.7l0,0.5c-0.2,0.1-0.4,0.2-0.6,0.2c-0.5-0.1-0.8-0.3-0.8-0.7l0-0.5l0-1h-0.3l0,0l0-0.4H60
		v-0.4l0.7-0.2l0.1,0l0,0.6h0.7l0,0l0,0.4h-0.7l0,1.3c0,0.1,0,0.2,0.1,0.3c0,0.1,0.1,0.1,0.2,0.1C61,60.8,61.2,60.8,61.3,60.7z"/>
	<path class="st0" d="M63.4,59.7c0-0.1,0-0.2-0.1-0.3c-0.1-0.1-0.1-0.1-0.3-0.1c-0.2,0-0.3,0.1-0.5,0.2l0,0.6l0,1.1h-0.7l0-1.1
		l0-2.8l0.7-0.1l0,1.7h0c0.2-0.2,0.4-0.3,0.7-0.4c0.3,0,0.5,0.1,0.6,0.2c0.1,0.1,0.2,0.3,0.2,0.6l0,0.7l0,1.1h-0.7L63.4,59.7z"/>
	<path class="st0" d="M66.8,60.2l-1.5,0c0,0.5,0.3,0.7,0.7,0.7c0.2,0,0.5-0.1,0.8-0.2l0.1,0l-0.1,0.6c-0.3,0.1-0.6,0.2-0.8,0.2
		c-0.4,0-0.7-0.1-1-0.4c-0.2-0.2-0.3-0.6-0.3-1c0-0.4,0.1-0.7,0.3-1s0.5-0.4,0.9-0.4c0.3,0,0.6,0.1,0.8,0.3c0.2,0.2,0.3,0.4,0.3,0.8
		C66.9,59.8,66.9,59.9,66.8,60.2L66.8,60.2z M66.2,59.7c0-0.1,0-0.3-0.1-0.3c-0.1-0.1-0.2-0.1-0.3-0.1c-0.1,0-0.3,0-0.4,0.1
		c-0.1,0.1-0.2,0.2-0.2,0.4L66.2,59.7L66.2,59.7z"/>
	<path class="st0" d="M70.5,61.4l0-1.6c0-0.3-0.1-0.4-0.4-0.4c-0.2,0-0.3,0.1-0.5,0.2l0,0.7l0,1.1h-0.7l0-1.6c0-0.1,0-0.2-0.1-0.3
		c-0.1-0.1-0.2-0.1-0.3-0.1c-0.2,0-0.3,0.1-0.5,0.2v0.7l0,1.1h-0.7l0-1.1l0-1.5l0.7-0.1v0.4h0c0.2-0.2,0.4-0.3,0.7-0.4
		c0.4,0,0.7,0.1,0.8,0.4h0c0.2-0.2,0.5-0.3,0.7-0.4c0.3,0,0.5,0.1,0.6,0.2c0.1,0.1,0.2,0.3,0.2,0.6l0,0.7l0,1.1H70.5z"/>
	<path class="st0" d="M73.9,60.2l-1.5,0c0,0.5,0.3,0.7,0.7,0.7c0.2,0,0.5-0.1,0.8-0.2l0.1,0l-0.1,0.6c-0.3,0.1-0.6,0.2-0.8,0.2
		c-0.4,0-0.7-0.1-1-0.4c-0.2-0.2-0.3-0.6-0.3-1c0-0.4,0.1-0.7,0.3-1s0.5-0.4,0.9-0.4c0.3,0,0.6,0.1,0.8,0.3c0.2,0.2,0.3,0.4,0.3,0.8
		C74,59.8,74,59.9,73.9,60.2L73.9,60.2z M73.4,59.7c0-0.1,0-0.3-0.1-0.3c-0.1-0.1-0.2-0.1-0.3-0.1c-0.1,0-0.3,0-0.4,0.1
		c-0.1,0.1-0.2,0.2-0.2,0.4L73.4,59.7L73.4,59.7z"/>
	<path class="st0" d="M75.9,57.6L74.8,62h-0.5l0-0.1l1.2-4.4L75.9,57.6L75.9,57.6z"/>
	<path class="st0" d="M77.8,58.9c0.2,0.1,0.2,0.3,0.2,0.5c0,0.1,0,0.3,0,0.6c0,0.1,0,0.2,0,0.3c0,0.1,0,0.2,0,0.3c0,0.1,0,0.1,0,0.1
		c0,0,0.1,0,0.1,0c0,0,0.1,0,0.1,0l0.1,0l-0.1,0.4c-0.1,0.1-0.3,0.1-0.4,0.1c-0.1,0-0.2-0.1-0.3-0.1c-0.1-0.1-0.1-0.2-0.2-0.3h0
		c-0.2,0.2-0.4,0.3-0.6,0.4c-0.3,0-0.5-0.1-0.6-0.2S76,60.9,76,60.6c0-0.2,0-0.3,0.1-0.4c0.1-0.1,0.2-0.2,0.4-0.2l0.9-0.2v-0.2
		c0-0.2-0.1-0.4-0.4-0.4c-0.1,0-0.2,0-0.4,0.1c-0.1,0.1-0.3,0.1-0.4,0.2l-0.1,0L76.1,59c0.2-0.1,0.3-0.2,0.5-0.2
		c0.2-0.1,0.4-0.1,0.5-0.1C77.4,58.7,77.7,58.8,77.8,58.9z M76.8,60.3c-0.1,0-0.1,0-0.1,0.1c0,0,0,0.1,0,0.2c0,0.1,0,0.2,0.1,0.2
		c0.1,0.1,0.1,0.1,0.2,0.1c0.1,0,0.3-0.1,0.5-0.3l0-0.4L76.8,60.3z"/>
	<path class="st0" d="M80.4,58.9l-0.1,0.5l-0.1,0c-0.1-0.1-0.2-0.1-0.3-0.2s-0.2-0.1-0.3-0.1c-0.1,0-0.2,0-0.2,0.1
		c-0.1,0-0.1,0.1-0.1,0.2c0,0.1,0,0.1,0.1,0.2c0.1,0,0.2,0.1,0.3,0.2c0.1,0.1,0.3,0.1,0.4,0.2c0.1,0.1,0.2,0.1,0.2,0.2
		c0.1,0.1,0.1,0.2,0.1,0.4c0,0.1,0,0.3-0.1,0.4c-0.1,0.1-0.2,0.2-0.3,0.3c-0.2,0.1-0.3,0.1-0.6,0.1c-0.3,0-0.5-0.1-0.8-0.2l0.1-0.6
		l0.1,0c0.1,0.1,0.2,0.2,0.4,0.2c0.1,0.1,0.3,0.1,0.4,0.1c0.1,0,0.2,0,0.2-0.1c0.1-0.1,0.1-0.1,0.1-0.2c0-0.1,0-0.1-0.1-0.2
		c-0.1,0-0.2-0.1-0.3-0.2c-0.2-0.1-0.3-0.1-0.4-0.2c-0.1-0.1-0.2-0.1-0.2-0.2c-0.1-0.1-0.1-0.2-0.1-0.4c0-0.2,0.1-0.4,0.3-0.6
		c0.2-0.2,0.4-0.2,0.7-0.2C79.9,58.7,80.2,58.8,80.4,58.9z"/>
	<path class="st0" d="M82.6,58.9l-0.1,0.5l-0.1,0c-0.1-0.1-0.2-0.1-0.3-0.2s-0.2-0.1-0.3-0.1c-0.1,0-0.2,0-0.2,0.1
		c-0.1,0-0.1,0.1-0.1,0.2c0,0.1,0,0.1,0.1,0.2c0.1,0,0.2,0.1,0.3,0.2c0.1,0.1,0.3,0.1,0.4,0.2c0.1,0.1,0.2,0.1,0.2,0.2
		c0.1,0.1,0.1,0.2,0.1,0.4c0,0.1,0,0.3-0.1,0.4c-0.1,0.1-0.2,0.2-0.3,0.3c-0.2,0.1-0.3,0.1-0.6,0.1c-0.3,0-0.5-0.1-0.8-0.2l0.1-0.6
		l0.1,0c0.1,0.1,0.2,0.2,0.4,0.2c0.1,0.1,0.3,0.1,0.4,0.1c0.1,0,0.2,0,0.2-0.1c0.1-0.1,0.1-0.1,0.1-0.2c0-0.1,0-0.1-0.1-0.2
		c-0.1,0-0.2-0.1-0.3-0.2c-0.2-0.1-0.3-0.1-0.4-0.2c-0.1-0.1-0.2-0.1-0.2-0.2c-0.1-0.1-0.1-0.2-0.1-0.4c0-0.2,0.1-0.4,0.3-0.6
		c0.2-0.2,0.4-0.2,0.7-0.2C82.1,58.7,82.3,58.8,82.6,58.9z"/>
	<path class="st0" d="M85.1,60.2l-1.5,0c0,0.5,0.3,0.7,0.7,0.7c0.2,0,0.5-0.1,0.8-0.2l0.1,0l-0.1,0.6c-0.3,0.1-0.5,0.2-0.8,0.2
		c-0.4,0-0.7-0.1-1-0.4c-0.2-0.2-0.3-0.6-0.3-1c0-0.4,0.1-0.7,0.3-1c0.2-0.2,0.5-0.4,0.9-0.4c0.3,0,0.6,0.1,0.8,0.3
		c0.2,0.2,0.3,0.4,0.3,0.8C85.2,59.8,85.2,59.9,85.1,60.2L85.1,60.2z M84.6,59.7c0-0.1,0-0.3-0.1-0.3c-0.1-0.1-0.2-0.1-0.3-0.1
		c-0.1,0-0.3,0-0.4,0.1c-0.1,0.1-0.2,0.2-0.2,0.4L84.6,59.7L84.6,59.7z"/>
	<path class="st0" d="M87.2,60.7L87.2,60.7l0,0.5c-0.2,0.1-0.4,0.2-0.6,0.2c-0.5-0.1-0.8-0.3-0.8-0.7l0-0.5l0-1h-0.3l0,0l0-0.4h0.3
		v-0.4l0.7-0.2l0,0l0,0.6h0.7l0,0l0,0.4h-0.7l0,1.3c0,0.1,0,0.2,0.1,0.3c0,0.1,0.1,0.1,0.2,0.1C86.9,60.8,87.1,60.8,87.2,60.7z"/>
	<path class="st0" d="M89.2,58.9l-0.1,0.5l-0.1,0c-0.1-0.1-0.2-0.1-0.3-0.2s-0.2-0.1-0.3-0.1c-0.1,0-0.2,0-0.2,0.1
		c-0.1,0-0.1,0.1-0.1,0.2c0,0.1,0,0.1,0.1,0.2c0.1,0,0.2,0.1,0.3,0.2c0.1,0.1,0.3,0.1,0.4,0.2c0.1,0.1,0.2,0.1,0.2,0.2
		c0.1,0.1,0.1,0.2,0.1,0.4c0,0.1,0,0.3-0.1,0.4c-0.1,0.1-0.2,0.2-0.3,0.3c-0.2,0.1-0.3,0.1-0.6,0.1c-0.3,0-0.5-0.1-0.8-0.2l0.1-0.6
		l0.1,0c0.1,0.1,0.2,0.2,0.4,0.2c0.1,0.1,0.3,0.1,0.4,0.1c0.1,0,0.2,0,0.2-0.1c0.1-0.1,0.1-0.1,0.1-0.2c0-0.1,0-0.1-0.1-0.2
		c-0.1,0-0.2-0.1-0.3-0.2c-0.2-0.1-0.3-0.1-0.4-0.2c-0.1-0.1-0.2-0.1-0.2-0.2c-0.1-0.1-0.1-0.2-0.1-0.4c0-0.2,0.1-0.4,0.3-0.6
		c0.2-0.2,0.4-0.2,0.7-0.2C88.8,58.7,89,58.8,89.2,58.9z"/>
	<path class="st0" d="M91.2,57.6L90,62h-0.5l0-0.1l1.2-4.4L91.2,57.6L91.2,57.6z"/>
	<path class="st0" d="M93,58.8v0.7l-0.1,0c-0.1,0-0.1,0-0.2,0c-0.2,0-0.4,0.1-0.6,0.4v0.4l0,1.1h-0.7l0-1.1l0-1.5l0.7-0.1l0,0.5h0
		c0.2-0.3,0.4-0.5,0.7-0.5C92.9,58.8,92.9,58.8,93,58.8z"/>
	<path class="st0" d="M95,58.9c0.2,0.1,0.2,0.3,0.2,0.5c0,0.1,0,0.3,0,0.6c0,0.1,0,0.2,0,0.3c0,0.1,0,0.2,0,0.3c0,0.1,0,0.1,0,0.1
		c0,0,0.1,0,0.1,0c0,0,0.1,0,0.1,0l0.1,0l-0.1,0.4c-0.1,0.1-0.3,0.1-0.4,0.1c-0.1,0-0.2-0.1-0.3-0.1c-0.1-0.1-0.1-0.2-0.2-0.3h0
		c-0.2,0.2-0.4,0.3-0.6,0.4c-0.3,0-0.5-0.1-0.6-0.2c-0.2-0.1-0.2-0.3-0.2-0.6c0-0.2,0-0.3,0.1-0.4c0.1-0.1,0.2-0.2,0.4-0.2l0.9-0.2
		v-0.2c0-0.2-0.1-0.4-0.4-0.4c-0.1,0-0.2,0-0.4,0.1c-0.1,0.1-0.3,0.1-0.4,0.2l-0.1,0L93.2,59c0.2-0.1,0.3-0.2,0.5-0.2
		s0.4-0.1,0.5-0.1C94.6,58.7,94.8,58.8,95,58.9z M93.9,60.3c-0.1,0-0.1,0-0.1,0.1c0,0,0,0.1,0,0.2c0,0.1,0,0.2,0.1,0.2
		c0.1,0.1,0.1,0.1,0.2,0.1c0.1,0,0.3-0.1,0.5-0.3l0-0.4L93.9,60.3z"/>
	<path class="st0" d="M96.4,59.2l0.3,1.5h0l0.4-1.4l0.1-0.4H98l0.1,0.4l0.3,1.5h0l0.4-1.4l0.1-0.4h0.6l-0.8,2.6H98l-0.4-1.7h-0.1
		l-0.5,1.7h-0.7l-0.7-2.6l0.7,0L96.4,59.2z"/>
	<path class="st0" d="M101.2,57.6L100,62h-0.5l0-0.1l1.2-4.4L101.2,57.6L101.2,57.6z"/>
	<path class="st0" d="M102.1,57.6c0.1,0.1,0.1,0.2,0.1,0.3c0,0.1,0,0.2-0.1,0.3c-0.1,0.1-0.2,0.1-0.3,0.1s-0.2,0-0.3-0.1
		c-0.1-0.1-0.1-0.2-0.1-0.3c0-0.1,0-0.2,0.1-0.3c0.1-0.1,0.2-0.1,0.3-0.1C101.9,57.5,102,57.5,102.1,57.6z M101.5,60.3l0-1.5
		l0.7-0.1l0,1.5l0,1.1h-0.7L101.5,60.3z"/>
	<path class="st0" d="M106,61.4l0-1.6c0-0.3-0.1-0.4-0.4-0.4c-0.2,0-0.3,0.1-0.5,0.2l0,0.7l0,1.1h-0.7l0-1.6c0-0.1,0-0.2-0.1-0.3
		c-0.1-0.1-0.2-0.1-0.3-0.1c-0.2,0-0.3,0.1-0.5,0.2v0.7l0,1.1h-0.7l0-1.1l0-1.5l0.7-0.1v0.4h0c0.2-0.2,0.4-0.3,0.7-0.4
		c0.4,0,0.7,0.1,0.8,0.4h0c0.2-0.2,0.5-0.3,0.7-0.4c0.3,0,0.5,0.1,0.6,0.2c0.1,0.1,0.2,0.3,0.2,0.6l0,0.7l0,1.1H106z"/>
	<path class="st0" d="M109.1,58.9c0.2,0.1,0.2,0.3,0.2,0.5c0,0.1,0,0.3,0,0.6c0,0.1,0,0.2,0,0.3c0,0.1,0,0.2,0,0.3
		c0,0.1,0,0.1,0,0.1c0,0,0.1,0,0.1,0c0,0,0.1,0,0.1,0l0.1,0l-0.1,0.4c-0.1,0.1-0.3,0.1-0.4,0.1c-0.1,0-0.2-0.1-0.3-0.1
		c-0.1-0.1-0.1-0.2-0.2-0.3h0c-0.2,0.2-0.4,0.3-0.6,0.4c-0.3,0-0.5-0.1-0.6-0.2c-0.2-0.1-0.2-0.3-0.2-0.6c0-0.2,0-0.3,0.1-0.4
		c0.1-0.1,0.2-0.2,0.4-0.2l0.9-0.2v-0.2c0-0.2-0.1-0.4-0.4-0.4c-0.1,0-0.2,0-0.4,0.1c-0.1,0.1-0.3,0.1-0.4,0.2l-0.1,0l-0.1-0.5
		c0.2-0.1,0.3-0.2,0.5-0.2s0.4-0.1,0.5-0.1C108.7,58.7,108.9,58.8,109.1,58.9z M108.1,60.3c-0.1,0-0.1,0-0.1,0.1c0,0,0,0.1,0,0.2
		c0,0.1,0,0.2,0.1,0.2c0.1,0.1,0.1,0.1,0.2,0.1c0.1,0,0.3-0.1,0.5-0.3l0-0.4L108.1,60.3z"/>
	<path class="st0" d="M112.2,59.2L112.2,59.2c0,0.1,0.1,0.3,0.1,0.4c0,0.3-0.1,0.5-0.3,0.7c-0.2,0.2-0.5,0.2-0.8,0.2
		c-0.1,0-0.2,0-0.3,0c0,0-0.1,0.1-0.1,0.1c0,0,0,0,0,0.1c0,0.1,0,0.1,0.1,0.1c0.1,0,0.2,0.1,0.4,0.1c0.2,0,0.4,0.1,0.6,0.1
		c0.1,0,0.3,0.1,0.4,0.2c0.1,0.1,0.2,0.2,0.2,0.4c0,0.2-0.1,0.3-0.2,0.5c-0.1,0.1-0.3,0.2-0.5,0.3s-0.4,0.1-0.7,0.1
		c-0.3,0-0.6-0.1-0.8-0.2s-0.3-0.3-0.3-0.5c0.1-0.2,0.3-0.3,0.5-0.4v0c-0.1,0-0.2-0.1-0.3-0.2c-0.1-0.1-0.1-0.2-0.1-0.3
		c0.1-0.1,0.2-0.2,0.4-0.3v0c-0.1-0.1-0.2-0.2-0.3-0.3c-0.1-0.1-0.1-0.3-0.1-0.4c0-0.3,0.1-0.5,0.3-0.7s0.5-0.2,0.8-0.2
		c0.2,0,0.4,0,0.5,0.1c0.3,0,0.5-0.1,0.8-0.2l0.1,0.1v0.5C112.5,59.1,112.3,59.2,112.2,59.2z M111.6,61.5c-0.1,0-0.3-0.1-0.5-0.1
		l-0.2,0c-0.1,0.1-0.2,0.1-0.2,0.2c0,0.1-0.1,0.1-0.1,0.2c0,0.1,0,0.2,0.1,0.2c0.1,0.1,0.2,0.1,0.4,0.1c0.2,0,0.3,0,0.4-0.1
		s0.2-0.1,0.2-0.3C111.7,61.6,111.7,61.5,111.6,61.5z M111.5,60c0.1-0.1,0.1-0.2,0.1-0.3c0-0.3-0.1-0.4-0.4-0.4
		c-0.3,0-0.5,0.1-0.5,0.4c0,0.1,0,0.3,0.1,0.3c0.1,0.1,0.2,0.1,0.3,0.1C111.3,60.1,111.4,60,111.5,60z"/>
	<path class="st0" d="M114.9,60.2l-1.5,0c0,0.5,0.3,0.7,0.7,0.7c0.2,0,0.5-0.1,0.8-0.2l0.1,0l-0.1,0.6c-0.3,0.1-0.5,0.2-0.8,0.2
		c-0.4,0-0.7-0.1-1-0.4c-0.2-0.2-0.3-0.6-0.3-1c0-0.4,0.1-0.7,0.3-1c0.2-0.2,0.5-0.4,0.9-0.4c0.3,0,0.6,0.1,0.8,0.3
		c0.2,0.2,0.3,0.4,0.3,0.8C115,59.8,115,59.9,114.9,60.2L114.9,60.2z M114.3,59.7c0-0.1,0-0.3-0.1-0.3c-0.1-0.1-0.2-0.1-0.3-0.1
		c-0.1,0-0.3,0-0.4,0.1c-0.1,0.1-0.2,0.2-0.2,0.4L114.3,59.7L114.3,59.7z"/>
	<path class="st0" d="M117.1,58.9l-0.1,0.5l-0.1,0c-0.1-0.1-0.2-0.1-0.3-0.2s-0.2-0.1-0.3-0.1c-0.1,0-0.2,0-0.2,0.1
		c-0.1,0-0.1,0.1-0.1,0.2c0,0.1,0,0.1,0.1,0.2c0.1,0,0.2,0.1,0.3,0.2c0.1,0.1,0.3,0.1,0.4,0.2c0.1,0.1,0.2,0.1,0.2,0.2
		c0.1,0.1,0.1,0.2,0.1,0.4c0,0.1,0,0.3-0.1,0.4c-0.1,0.1-0.2,0.2-0.3,0.3c-0.2,0.1-0.3,0.1-0.6,0.1c-0.3,0-0.5-0.1-0.8-0.2l0.1-0.6
		l0.1,0c0.1,0.1,0.2,0.2,0.4,0.2c0.1,0.1,0.3,0.1,0.4,0.1c0.1,0,0.2,0,0.2-0.1c0.1-0.1,0.1-0.1,0.1-0.2c0-0.1,0-0.1-0.1-0.2
		c-0.1,0-0.2-0.1-0.3-0.2c-0.2-0.1-0.3-0.1-0.4-0.2c-0.1-0.1-0.2-0.1-0.2-0.2c-0.1-0.1-0.1-0.2-0.1-0.4c0-0.2,0.1-0.4,0.3-0.6
		c0.2-0.2,0.4-0.2,0.7-0.2C116.6,58.7,116.9,58.8,117.1,58.9z"/>
	<path class="st0" d="M119,57.6l-1.2,4.4h-0.5l0-0.1l1.2-4.4L119,57.6L119,57.6z"/>
	<path class="st0" d="M120,60.2l0,1.1h-0.7l0-1.1l0-2.8l0.7-0.1L120,60.2z"/>
	<path class="st0" d="M122.7,59.1c0.2,0.2,0.3,0.5,0.3,1c0,0.5-0.1,0.8-0.3,1c-0.2,0.2-0.5,0.4-0.9,0.4c-0.4,0-0.7-0.1-0.9-0.3
		c-0.2-0.2-0.3-0.5-0.3-1c0-0.5,0.1-0.8,0.3-1c0.2-0.2,0.5-0.4,0.9-0.4C122.2,58.7,122.5,58.8,122.7,59.1z M121.3,59.4
		c-0.1,0.1-0.1,0.3-0.1,0.6c0,0.3,0,0.6,0.1,0.7s0.2,0.2,0.4,0.2c0.2,0,0.3-0.1,0.4-0.2s0.1-0.3,0.1-0.6c0-0.3,0-0.6-0.1-0.7
		s-0.2-0.2-0.4-0.2C121.6,59.2,121.4,59.3,121.3,59.4z"/>
	<path class="st0" d="M125.5,59.2L125.5,59.2c0,0.1,0.1,0.3,0.1,0.4c0,0.3-0.1,0.5-0.3,0.7c-0.2,0.2-0.5,0.2-0.8,0.2
		c-0.1,0-0.2,0-0.3,0c0,0-0.1,0.1-0.1,0.1c0,0,0,0,0,0.1c0,0.1,0,0.1,0.1,0.1c0.1,0,0.2,0.1,0.4,0.1c0.2,0,0.4,0.1,0.6,0.1
		c0.1,0,0.3,0.1,0.4,0.2c0.1,0.1,0.2,0.2,0.2,0.4c0,0.2-0.1,0.3-0.2,0.5c-0.1,0.1-0.3,0.2-0.5,0.3s-0.4,0.1-0.7,0.1
		c-0.3,0-0.6-0.1-0.8-0.2s-0.3-0.3-0.3-0.5c0.1-0.2,0.3-0.3,0.5-0.4v0c-0.1,0-0.2-0.1-0.3-0.2c-0.1-0.1-0.1-0.2-0.1-0.3
		c0.1-0.1,0.2-0.2,0.4-0.3v0c-0.1-0.1-0.2-0.2-0.3-0.3c-0.1-0.1-0.1-0.3-0.1-0.4c0-0.3,0.1-0.5,0.3-0.7s0.5-0.2,0.8-0.2
		c0.2,0,0.4,0,0.5,0.1c0.3,0,0.5-0.1,0.8-0.2l0.1,0.1v0.5C125.9,59.1,125.7,59.2,125.5,59.2z M124.9,61.5c-0.1,0-0.3-0.1-0.5-0.1
		l-0.2,0c-0.1,0.1-0.2,0.1-0.2,0.2c0,0.1-0.1,0.1-0.1,0.2c0,0.1,0,0.2,0.1,0.2c0.1,0.1,0.2,0.1,0.4,0.1c0.2,0,0.3,0,0.4-0.1
		s0.2-0.1,0.2-0.3C125.1,61.6,125,61.5,124.9,61.5z M124.9,60c0.1-0.1,0.1-0.2,0.1-0.3c0-0.3-0.1-0.4-0.4-0.4
		c-0.3,0-0.5,0.1-0.5,0.4c0,0.1,0,0.3,0.1,0.3c0.1,0.1,0.2,0.1,0.3,0.1C124.7,60.1,124.8,60,124.9,60z"/>
	<path class="st0" d="M128.2,59.1c0.2,0.2,0.3,0.5,0.3,1c0,0.5-0.1,0.8-0.3,1c-0.2,0.2-0.5,0.4-0.9,0.4c-0.4,0-0.7-0.1-0.9-0.3
		c-0.2-0.2-0.3-0.5-0.3-1c0-0.5,0.1-0.8,0.3-1c0.2-0.2,0.5-0.4,0.9-0.4C127.7,58.7,128,58.8,128.2,59.1z M126.9,59.4
		c-0.1,0.1-0.1,0.3-0.1,0.6c0,0.3,0,0.6,0.1,0.7s0.2,0.2,0.4,0.2c0.2,0,0.3-0.1,0.4-0.2s0.1-0.3,0.1-0.6c0-0.3,0-0.6-0.1-0.7
		s-0.2-0.2-0.4-0.2C127.1,59.2,127,59.3,126.9,59.4z"/>
	<path class="st0" d="M130.2,59.6v0.5l-1.3,0.2l-0.1-0.1v-0.5L130.2,59.6L130.2,59.6z"/>
	<path class="st0" d="M132.3,58.9l-0.1,0.5l-0.1,0c-0.1-0.1-0.2-0.1-0.3-0.2s-0.2-0.1-0.3-0.1c-0.1,0-0.2,0-0.2,0.1
		c-0.1,0-0.1,0.1-0.1,0.2c0,0.1,0,0.1,0.1,0.2c0.1,0,0.2,0.1,0.3,0.2c0.1,0.1,0.3,0.1,0.4,0.2c0.1,0.1,0.2,0.1,0.2,0.2
		c0.1,0.1,0.1,0.2,0.1,0.4c0,0.1,0,0.3-0.1,0.4c-0.1,0.1-0.2,0.2-0.3,0.3c-0.2,0.1-0.3,0.1-0.6,0.1c-0.3,0-0.5-0.1-0.8-0.2l0.1-0.6
		l0.1,0c0.1,0.1,0.2,0.2,0.4,0.2c0.1,0.1,0.3,0.1,0.4,0.1c0.1,0,0.2,0,0.2-0.1c0.1-0.1,0.1-0.1,0.1-0.2c0-0.1,0-0.1-0.1-0.2
		c-0.1,0-0.2-0.1-0.3-0.2c-0.2-0.1-0.3-0.1-0.4-0.2c-0.1-0.1-0.2-0.1-0.2-0.2c-0.1-0.1-0.1-0.2-0.1-0.4c0-0.2,0.1-0.4,0.3-0.6
		c0.2-0.2,0.4-0.2,0.7-0.2C131.8,58.7,132.1,58.8,132.3,58.9z"/>
	<path class="st0" d="M133.5,57.6c0.1,0.1,0.1,0.2,0.1,0.3c0,0.1,0,0.2-0.1,0.3c-0.1,0.1-0.2,0.1-0.3,0.1s-0.2,0-0.3-0.1
		c-0.1-0.1-0.1-0.2-0.1-0.3c0-0.1,0-0.2,0.1-0.3c0.1-0.1,0.2-0.1,0.3-0.1C133.4,57.5,133.5,57.5,133.5,57.6z M132.9,60.3l0-1.5
		l0.7-0.1l0,1.5l0,1.1h-0.7L132.9,60.3z"/>
	<path class="st0" d="M135.7,60.7L135.7,60.7l0,0.5c-0.2,0.1-0.4,0.2-0.6,0.2c-0.5-0.1-0.8-0.3-0.8-0.7l0-0.5l0-1h-0.3l0,0l0-0.4
		h0.3v-0.4l0.7-0.2l0,0l0,0.6h0.7l0,0l0,0.4h-0.7l0,1.3c0,0.1,0,0.2,0.1,0.3c0,0.1,0.1,0.1,0.2,0.1
		C135.5,60.8,135.6,60.8,135.7,60.7z"/>
	<path class="st0" d="M138.2,60.2l-1.5,0c0,0.5,0.3,0.7,0.7,0.7c0.2,0,0.5-0.1,0.8-0.2l0.1,0l-0.1,0.6c-0.3,0.1-0.5,0.2-0.8,0.2
		c-0.4,0-0.7-0.1-1-0.4c-0.2-0.2-0.3-0.6-0.3-1c0-0.4,0.1-0.7,0.3-1c0.2-0.2,0.5-0.4,0.9-0.4c0.3,0,0.6,0.1,0.8,0.3
		c0.2,0.2,0.3,0.4,0.3,0.8C138.3,59.8,138.3,59.9,138.2,60.2L138.2,60.2z M137.6,59.7c0-0.1,0-0.3-0.1-0.3c-0.1-0.1-0.2-0.1-0.3-0.1
		c-0.1,0-0.3,0-0.4,0.1c-0.1,0.1-0.2,0.2-0.2,0.4L137.6,59.7L137.6,59.7z"/>
	<path class="st0" d="M139.3,60.7c0.1,0.1,0.1,0.2,0.1,0.3c0,0.1,0,0.2-0.1,0.3c-0.1,0.1-0.2,0.1-0.3,0.1s-0.2,0-0.3-0.1
		s-0.1-0.2-0.1-0.3s0-0.2,0.1-0.3c0.1-0.1,0.2-0.1,0.3-0.1C139.1,60.6,139.2,60.6,139.3,60.7z"/>
	<path class="st0" d="M141.6,58.9l-0.1,0.5l-0.1,0c-0.1-0.1-0.2-0.1-0.3-0.2s-0.2-0.1-0.3-0.1c-0.1,0-0.2,0-0.2,0.1
		c-0.1,0-0.1,0.1-0.1,0.2c0,0.1,0,0.1,0.1,0.2c0.1,0,0.2,0.1,0.3,0.2c0.1,0.1,0.3,0.1,0.4,0.2c0.1,0.1,0.2,0.1,0.2,0.2
		c0.1,0.1,0.1,0.2,0.1,0.4c0,0.1,0,0.3-0.1,0.4c-0.1,0.1-0.2,0.2-0.3,0.3c-0.2,0.1-0.3,0.1-0.6,0.1c-0.3,0-0.5-0.1-0.8-0.2l0.1-0.6
		l0.1,0c0.1,0.1,0.2,0.2,0.4,0.2c0.1,0.1,0.3,0.1,0.4,0.1c0.1,0,0.2,0,0.2-0.1c0.1-0.1,0.1-0.1,0.1-0.2c0-0.1,0-0.1-0.1-0.2
		c-0.1,0-0.2-0.1-0.3-0.2c-0.2-0.1-0.3-0.1-0.4-0.2c-0.1-0.1-0.2-0.1-0.2-0.2c-0.1-0.1-0.1-0.2-0.1-0.4c0-0.2,0.1-0.4,0.3-0.6
		c0.2-0.2,0.4-0.2,0.7-0.2C141.1,58.7,141.3,58.8,141.6,58.9z"/>
	<path class="st0" d="M142.6,59.2l0.4,1.5h0l0.5-1.4l0.1-0.5h0.6l-0.9,2.6h-0.8l-0.7-2.6l0.7,0L142.6,59.2z"/>
	<path class="st0" d="M146.6,59.2L146.6,59.2c0,0.1,0.1,0.3,0.1,0.4c0,0.3-0.1,0.5-0.3,0.7c-0.2,0.2-0.5,0.2-0.8,0.2
		c-0.1,0-0.2,0-0.3,0c0,0-0.1,0.1-0.1,0.1c0,0,0,0,0,0.1c0,0.1,0,0.1,0.1,0.1c0.1,0,0.2,0.1,0.4,0.1c0.2,0,0.4,0.1,0.6,0.1
		c0.1,0,0.3,0.1,0.4,0.2c0.1,0.1,0.2,0.2,0.2,0.4c0,0.2-0.1,0.3-0.2,0.5c-0.1,0.1-0.3,0.2-0.5,0.3s-0.4,0.1-0.7,0.1
		c-0.3,0-0.6-0.1-0.8-0.2s-0.3-0.3-0.3-0.5c0.1-0.2,0.3-0.3,0.5-0.4v0c-0.1,0-0.2-0.1-0.3-0.2c-0.1-0.1-0.1-0.2-0.1-0.3
		c0.1-0.1,0.2-0.2,0.4-0.3v0c-0.1-0.1-0.2-0.2-0.3-0.3c-0.1-0.1-0.1-0.3-0.1-0.4c0-0.3,0.1-0.5,0.3-0.7s0.5-0.2,0.8-0.2
		c0.2,0,0.4,0,0.5,0.1c0.3,0,0.5-0.1,0.8-0.2l0.1,0.1v0.5C146.9,59.1,146.8,59.2,146.6,59.2z M146,61.5c-0.1,0-0.3-0.1-0.5-0.1
		l-0.2,0c-0.1,0.1-0.2,0.1-0.2,0.2c0,0.1-0.1,0.1-0.1,0.2c0,0.1,0,0.2,0.1,0.2c0.1,0.1,0.2,0.1,0.4,0.1c0.2,0,0.3,0,0.4-0.1
		s0.2-0.1,0.2-0.3C146.1,61.6,146.1,61.5,146,61.5z M145.9,60c0.1-0.1,0.1-0.2,0.1-0.3c0-0.3-0.1-0.4-0.4-0.4
		c-0.3,0-0.5,0.1-0.5,0.4c0,0.1,0,0.3,0.1,0.3c0.1,0.1,0.2,0.1,0.3,0.1C145.7,60.1,145.8,60,145.9,60z"/>
</g>
</svg>
