<?xml version="1.0" encoding="utf-8"?>
<!-- Generator: Adobe Illustrator 25.2.0, SVG Export Plug-In . SVG Version: 6.00 Build 0)  -->
<svg version="1.1" id="Calque_1" xmlns="http://www.w3.org/2000/svg" xmlns:xlink="http://www.w3.org/1999/xlink" x="0px" y="0px"
	 viewBox="0 0 158 83" style="enable-background:new 0 0 158 83;" xml:space="preserve">
<style type="text/css">
	.st0{fill-rule:evenodd;clip-rule:evenodd;fill:#ECEDF0;}
	.st1{enable-background:new    ;}
	.st2{fill:#2E2632;}
</style>
<g id="STYLEGUIDE">
	<g id="Header-1" transform="translate(-119.000000, -48.000000)">
		<g id="Group" transform="translate(119.000000, 48.000000)">
			<rect id="Rectangle-Copy-7" class="st0" width="158" height="83"/>
			<g class="st1">
				<path class="st2" d="M58,37.5h2.1v8.6h3.4V48H58V37.5z"/>
				<path class="st2" d="M64.2,42.8c0-3.1,2.2-5.4,5.5-5.4c3.2,0,5.5,2.4,5.5,5.4c0,3.1-2.2,5.4-5.5,5.4
					C66.4,48.2,64.2,45.8,64.2,42.8z M66.4,42.8c0,2,1.4,3.5,3.3,3.5c1.9,0,3.3-1.5,3.3-3.5c0-2-1.4-3.5-3.3-3.5
					C67.7,39.3,66.4,40.8,66.4,42.8z"/>
				<path class="st2" d="M86.1,39l-1.3,1.4c-0.3-0.3-1.2-1.2-2.7-1.2c-2.1,0-3.3,1.5-3.3,3.5c0,2.1,1.4,3.5,3.3,3.5
					c1.5,0,2.3-0.6,2.5-0.8v-1.3h-2v-1.8h4v4.2c-1.1,1-2.4,1.7-4.6,1.7c-3,0-5.4-2.1-5.4-5.4c0-3,2.2-5.4,5.4-5.4
					C84.1,37.3,85.5,38.4,86.1,39z"/>
				<path class="st2" d="M88.2,42.8c0-3.1,2.2-5.4,5.5-5.4c3.2,0,5.5,2.4,5.5,5.4c0,3.1-2.2,5.4-5.5,5.4
					C90.4,48.2,88.2,45.8,88.2,42.8z M90.4,42.8c0,2,1.4,3.5,3.3,3.5c1.9,0,3.3-1.5,3.3-3.5c0-2-1.4-3.5-3.3-3.5
					C91.8,39.3,90.4,40.8,90.4,42.8z"/>
			</g>
		</g>
	</g>
</g>
</svg>
