<?xml version="1.0" encoding="UTF-8" standalone="no"?>
<svg width="126px" height="126px" viewBox="0 0 126 126" version="1.1" xmlns="http://www.w3.org/2000/svg" xmlns:xlink="http://www.w3.org/1999/xlink">
    <!-- Generator: Sketch 39.1 (31720) - http://www.bohemiancoding.com/sketch -->
    <title>question23</title>
    <desc>Created with Sketch.</desc>
    <defs></defs>
    <g id="Symbols" stroke="none" stroke-width="1" fill="none" fill-rule="evenodd">
        <g id="question23" fill="#e3e3e3">
            <path d="M117.18,31.592 C111.585,22.006 103.995,14.416 94.409,8.821 C84.821,3.226 74.354,0.429 63.001,0.429 C51.649,0.429 41.179,3.226 31.593,8.821 C22.006,14.415 14.416,22.005 8.821,31.592 C3.225,41.179 0.428,51.649 0.428,63 C0.428,74.352 3.226,84.82 8.82,94.408 C14.415,103.993 22.005,111.584 31.592,117.179 C41.179,122.774 51.648,125.571 63,125.571 C74.352,125.571 84.822,122.774 94.408,117.179 C103.994,111.585 111.584,103.994 117.179,94.408 C122.773,84.821 125.57,74.351 125.57,63 C125.57,51.648 122.773,41.178 117.18,31.592 L117.18,31.592 Z M73.43,102.107 C73.43,102.867 73.184,103.492 72.696,103.98 C72.209,104.468 71.584,104.712 70.824,104.712 L55.18,104.712 C54.42,104.712 53.795,104.468 53.306,103.98 C52.817,103.492 52.573,102.867 52.573,102.107 L52.573,86.463 C52.573,85.703 52.817,85.078 53.306,84.589 C53.795,84.102 54.42,83.858 55.18,83.858 L70.824,83.858 C71.584,83.858 72.209,84.102 72.696,84.589 C73.184,85.078 73.43,85.703 73.43,86.463 L73.43,102.107 L73.43,102.107 Z M93.268,53.956 C92.589,55.966 91.829,57.61 90.987,58.886 C90.145,60.162 88.936,61.466 87.36,62.796 C85.787,64.127 84.537,65.078 83.612,65.649 C82.69,66.218 81.358,66.993 79.621,67.97 C77.829,69.002 76.35,70.346 75.183,72.003 C74.015,73.659 73.431,75.004 73.431,76.035 C73.431,76.796 73.185,77.421 72.697,77.909 C72.21,78.398 71.585,78.642 70.825,78.642 L55.181,78.642 C54.421,78.642 53.796,78.398 53.307,77.909 C52.818,77.421 52.574,76.796 52.574,76.035 L52.574,73.101 C52.574,69.462 53.999,66.053 56.851,62.876 C59.703,59.698 62.84,57.349 66.262,55.828 C68.868,54.634 70.715,53.411 71.801,52.162 C72.889,50.913 73.432,49.255 73.432,47.192 C73.432,45.399 72.412,43.797 70.375,42.384 C68.338,40.972 66.018,40.266 63.41,40.266 C60.585,40.266 58.25,40.918 56.403,42.222 C54.61,43.525 52.275,46.024 49.396,49.717 C48.907,50.369 48.228,50.696 47.359,50.696 C46.707,50.696 46.191,50.533 45.811,50.208 L35.057,42.061 C33.808,41.083 33.591,39.943 34.405,38.639 C41.358,27.07 51.433,21.285 64.631,21.285 C69.358,21.285 73.975,22.399 78.483,24.626 C82.991,26.852 86.752,30.003 89.768,34.077 C92.78,38.15 94.289,42.577 94.289,47.357 C94.286,49.747 93.945,51.946 93.268,53.956 L93.268,53.956 Z" id="Shape"></path>
        </g>
    </g>
</svg>