<?xml version="1.0" encoding="utf-8"?>
<!-- Generator: Adobe Illustrator 18.1.1, SVG Export Plug-In . SVG Version: 6.00 Build 0)  -->
<svg version="1.1" id="Layer_1" xmlns="http://www.w3.org/2000/svg" xmlns:xlink="http://www.w3.org/1999/xlink" x="0px" y="0px"
	 viewBox="0 0 595.3 841.9" enable-background="new 0 0 595.3 841.9" xml:space="preserve">
<g opacity="0.65">
	<path opacity="0.6" fill="#FFFFFF" d="M488.6,243.1c-46.6-48.3-112.8-52.5-165.9-21.7c-14.8,9.4-31.3,21-42.3,35
		c-1.1,1.4-2.1,2.8-3.1,4.2c-1.3-1.5-2.7-2.9-4-4.4c-18.2-19-35-26.4-55.9-30.8c-79.1-16.6-164.5,55.9-169.5,142.8
		c-3.7,64.4,28.2,116,74.8,156.4c39.2,34,80.9,64.6,66.8,114.4c-3.4,12-11.9,25.4-6.1,31.2c5.5,5.5,24.7-0.1,36.7-4.5
		c90.5-33.3,177.3-73.7,241.4-147.1C530.1,440,563.8,320.9,488.6,243.1z"/>
	<path opacity="0.604" fill="#FFFFFF" d="M488.5,243.1c-46.6-48.2-112.8-52.4-165.9-21.6c-14.8,9.4-31.2,21-42.2,35
		c-1.1,1.4-2.1,2.8-3.1,4.2c-1.3-1.5-2.7-2.9-4-4.3c-18.2-19-35-26.4-55.9-30.8C138.4,208.9,53,281.3,48,368.2
		c-3.7,64.4,28.2,116,74.8,156.3c39.2,33.9,80.9,64.7,66.8,114.4c-3.4,12-11.9,25.3-6.1,31.1c5.5,5.5,24.6-0.1,36.6-4.5
		c90.5-33.3,177.2-73.6,241.3-147C530,440,563.7,320.9,488.5,243.1z"/>
	<path opacity="0.6079" fill="#FEFEFE" d="M488.4,243.1c-46.6-48.2-112.7-52.3-165.8-21.5c-14.8,9.4-31.2,21-42.1,35
		c-1.1,1.4-2.1,2.7-3.1,4.2c-1.3-1.5-2.7-2.9-4-4.3c-18.1-18.9-35-26.4-55.9-30.8c-79-16.6-164.3,55.8-169.3,142.6
		c-3.7,64.3,28.2,115.9,74.8,156.1c39.2,33.9,80.9,64.7,66.9,114.5c-3.4,11.9-11.8,25.2-6,31c5.5,5.5,24.5-0.1,36.5-4.5
		c90.4-33.2,177.2-73.6,241.2-146.9C529.9,440,563.6,321,488.4,243.1z"/>
	<path opacity="0.6119" fill="#FEFEFE" d="M488.2,243.2C441.7,195,375.5,191,322.5,221.8c-14.8,9.4-31.1,21-42.1,35
		c-1.1,1.4-2.1,2.7-3.1,4.1c-1.3-1.5-2.6-2.9-4-4.3c-18.1-18.9-35-26.5-55.9-30.8c-78.9-16.6-164.2,55.8-169.2,142.5
		c-3.7,64.3,28.3,115.8,74.8,156c39.2,33.9,80.9,64.8,66.9,114.5c-3.3,11.9-11.8,25.1-6,30.9c5.5,5.5,24.3-0.1,36.3-4.5
		c90.4-33.2,177.1-73.5,241.1-146.8C529.8,439.9,563.5,321,488.2,243.2z"/>
	<path opacity="0.6158" fill="#FDFDFD" d="M488.1,243.2c-46.5-48.1-112.7-52.1-165.7-21.3c-14.8,9.4-31.1,20.9-42,34.9
		c-1.1,1.4-2.1,2.7-3.1,4.1c-1.3-1.5-2.6-2.9-4-4.3c-18.1-18.9-35-26.5-55.9-30.9c-78.9-16.6-164.1,55.8-169.1,142.5
		c-3.7,64.2,28.3,115.7,74.8,155.9C162.2,558,204,589,190,638.7c-3.3,11.9-11.7,25.1-6,30.8c5.4,5.4,24.2-0.1,36.2-4.5
		c90.3-33.2,177-73.5,241-146.7C529.7,439.9,563.3,321,488.1,243.2z"/>
	<path opacity="0.6198" fill="#FDFDFD" d="M488,243.3c-46.5-48.1-112.6-52-165.6-21.2c-14.8,9.4-31,20.9-42,34.9
		c-1.1,1.4-2.1,2.7-3.1,4.1c-1.3-1.5-2.6-2.9-4-4.3c-18.1-18.9-35-26.5-55.9-30.9c-78.8-16.6-164,55.8-168.9,142.4
		c-3.7,64.2,28.3,115.6,74.8,155.8c39.1,33.8,80.9,64.9,67,114.5c-3.3,11.8-11.7,25-6,30.6c5.4,5.4,24.1-0.1,36.1-4.5
		c90.2-33.2,177-73.4,240.9-146.6C529.5,439.9,563.2,321,488,243.3z"/>
	<path opacity="0.6238" fill="#FCFCFC" d="M487.8,243.3c-46.5-48-112.6-51.9-165.5-21.1c-14.8,9.4-31,20.9-41.9,34.9
		c-1.1,1.4-2.1,2.7-3.1,4.1c-1.3-1.5-2.6-2.9-4-4.3c-18.1-18.9-35-26.5-55.9-30.9c-78.8-16.5-163.9,55.8-168.8,142.3
		c-3.7,64.1,28.4,115.5,74.8,155.7c39.1,33.8,80.9,64.9,67,114.5c-3.3,11.8-11.6,24.9-6,30.5c5.4,5.4,23.9-0.1,35.9-4.5
		c90.2-33.1,176.9-73.4,240.8-146.5C529.4,439.9,563.1,321.1,487.8,243.3z"/>
	<path opacity="0.6277" fill="#FCFCFC" d="M487.7,243.3c-46.4-48-112.6-51.8-165.5-21c-14.8,9.4-30.9,20.9-41.9,34.9
		c-1.1,1.4-2.1,2.7-3.1,4.1c-1.3-1.5-2.6-2.9-4-4.3c-18.1-18.9-35-26.5-55.9-30.9c-78.7-16.5-163.8,55.8-168.7,142.2
		C45,432.4,77,483.8,123.4,523.9c39.1,33.8,80.9,64.9,67,114.5c-3.3,11.8-11.6,24.8-6,30.4c5.4,5.3,23.8-0.1,35.8-4.5
		C310.4,631.3,397.2,591,461,518C529.3,439.8,562.9,321.1,487.7,243.3z"/>
	<path opacity="0.6317" fill="#FBFBFB" d="M487.6,243.4c-46.4-47.9-112.6-51.7-165.4-20.9c-14.8,9.3-30.9,20.9-41.8,34.9
		c-1.1,1.4-2.1,2.7-3.1,4.1c-1.3-1.5-2.6-2.9-4-4.3c-18.1-18.9-35.1-26.5-55.9-30.9C138.7,209.7,53.7,282,48.8,368.4
		c-3.7,64,28.4,115.3,74.8,155.4c39,33.8,80.9,65,67.1,114.6c-3.3,11.8-11.5,24.7-5.9,30.3c5.3,5.3,23.7-0.1,35.7-4.5
		c90.1-33.1,176.8-73.3,240.6-146.3C529.2,439.8,562.8,321.1,487.6,243.4z"/>
	<path opacity="0.6356" fill="#FBFBFB" d="M487.4,243.4c-46.4-47.9-112.5-51.6-165.3-20.8c-14.8,9.3-30.8,20.9-41.8,34.8
		c-1.1,1.4-2.1,2.7-3.1,4.1c-1.3-1.5-2.6-2.9-4-4.3c-18.1-18.8-35.1-26.5-55.9-30.9c-78.6-16.5-163.6,55.8-168.5,142.1
		c-3.7,64,28.4,115.2,74.8,155.3c39,33.7,80.9,65,67.1,114.6c-3.3,11.7-11.5,24.6-5.9,30.2c5.3,5.3,23.6-0.1,35.5-4.5
		c90-33.1,176.8-73.2,240.5-146.2C529.1,439.8,562.7,321.1,487.4,243.4z"/>
	<path opacity="0.6396" fill="#FAFAFA" d="M487.3,243.5C441,195.6,374.8,192,322.1,222.7c-14.8,9.3-30.8,20.9-41.7,34.8
		c-1.1,1.4-2.1,2.7-3.1,4.1c-1.3-1.5-2.6-2.9-4-4.3c-18.1-18.8-35.1-26.5-55.9-30.9C138.8,210,53.9,282.2,49,368.5
		c-3.7,63.9,28.5,115.2,74.8,155.2c39,33.7,80.9,65.1,67.1,114.6c-3.3,11.7-11.5,24.6-5.9,30.1c5.3,5.2,23.4-0.1,35.4-4.5
		c90-33,176.7-73.2,240.4-146.1C529,439.8,562.6,321.2,487.3,243.5z"/>
	<path opacity="0.6436" fill="#FAFAFA" d="M487.2,243.5c-46.3-47.8-112.5-51.4-165.2-20.6c-14.7,9.3-30.7,20.9-41.6,34.8
		c-1.1,1.4-2.1,2.7-3.1,4.1c-1.3-1.5-2.6-2.9-4-4.3c-18-18.8-35.1-26.5-55.9-30.9C138.9,210.1,54,282.3,49.1,368.5
		c-3.7,63.9,28.5,115.1,74.8,155.1c39,33.7,80.9,65.1,67.2,114.6c-3.2,11.7-11.4,24.5-5.9,29.9c5.3,5.2,23.3-0.1,35.3-4.5
		c89.9-33,176.6-73.2,240.3-146C528.8,439.8,562.4,321.2,487.2,243.5z"/>
	<path opacity="0.6475" fill="#F9F9F9" d="M487,243.6c-46.3-47.8-112.5-51.3-165.1-20.5c-14.7,9.3-30.7,20.8-41.6,34.8
		c-1.1,1.4-2.1,2.7-3.1,4.1c-1.3-1.5-2.6-2.9-4-4.3c-18-18.8-35.1-26.6-55.9-30.9c-78.5-16.5-163.2,55.7-168.2,141.9
		c-3.7,63.8,28.5,115,74.8,154.9c38.9,33.7,80.9,65.2,67.2,114.6c-3.2,11.6-11.4,24.4-5.9,29.8c5.2,5.2,23.2-0.1,35.1-4.5
		c89.8-33,176.6-73.1,240.2-145.9C528.7,439.7,562.3,321.2,487,243.6z"/>
	<path opacity="0.6515" fill="#F9F9F9" d="M486.9,243.6c-46.3-47.7-112.4-51.2-165-20.4c-14.7,9.3-30.6,20.8-41.5,34.7
		c-1.1,1.4-2.1,2.7-3.1,4.1c-1.3-1.5-2.6-2.9-4-4.3c-18-18.8-35.1-26.6-55.9-30.9C139,210.3,54.2,282.5,49.3,368.6
		c-3.6,63.8,28.6,114.9,74.8,154.8C163,557,205,588.6,191.3,638c-3.2,11.6-11.3,24.3-5.8,29.7c5.2,5.2,23.1-0.1,35-4.5
		c89.8-33,176.5-73.1,240.1-145.8C528.6,439.7,562.2,321.2,486.9,243.6z"/>
	<path opacity="0.6554" fill="#F8F8F8" d="M486.8,243.6c-46.3-47.7-112.4-51.1-165-20.3c-14.7,9.3-30.6,20.8-41.5,34.7
		c-1.1,1.4-2.1,2.7-3.1,4.1c-1.3-1.5-2.6-2.9-4-4.3c-18-18.8-35.1-26.6-55.9-30.9c-78.4-16.4-163,55.7-167.9,141.7
		c-3.6,63.7,28.6,114.8,74.8,154.7c38.9,33.6,80.9,65.2,67.3,114.7c-3.2,11.6-11.3,24.2-5.8,29.6c5.2,5.1,22.9-0.1,34.9-4.5
		c89.7-32.9,176.5-73,240-145.7C528.5,439.7,562.1,321.3,486.8,243.6z"/>
	<path opacity="0.6594" fill="#F8F8F8" d="M486.6,243.7c-46.2-47.7-112.4-51-164.9-20.3c-14.7,9.3-30.5,20.8-41.4,34.7
		c-1.1,1.4-2.1,2.7-3.1,4.1c-1.3-1.5-2.6-2.9-4-4.3c-18-18.8-35.1-26.6-55.9-31c-78.3-16.4-162.9,55.7-167.8,141.6
		c-3.6,63.7,28.6,114.7,74.8,154.6c38.9,33.6,80.9,65.3,67.3,114.7c-3.2,11.5-11.2,24.1-5.8,29.5c5.2,5.1,22.8-0.1,34.7-4.5
		c89.7-32.9,176.4-73,239.9-145.6C528.4,439.7,561.9,321.3,486.6,243.7z"/>
	<path opacity="0.6634" fill="#F7F7F7" d="M486.5,243.7c-46.2-47.6-112.3-50.9-164.8-20.2c-14.7,9.3-30.5,20.8-41.4,34.7
		c-1.1,1.3-2.1,2.7-3.1,4.1c-1.3-1.5-2.6-2.9-4-4.3c-18-18.7-35.1-26.6-55.9-31c-78.3-16.4-162.8,55.7-167.7,141.6
		c-3.6,63.7,28.6,114.6,74.8,154.5c38.8,33.6,80.9,65.3,67.3,114.7c-3.2,11.5-11.2,24.1-5.8,29.4c5.1,5.1,22.7-0.1,34.6-4.5
		c89.6-32.9,176.4-72.9,239.8-145.5C528.3,439.6,561.8,321.3,486.5,243.7z"/>
	<path opacity="0.6673" fill="#F7F7F7" d="M486.4,243.8c-46.2-47.6-112.3-50.8-164.8-20.1c-14.7,9.3-30.5,20.8-41.3,34.6
		c-1.1,1.3-2.1,2.7-3.1,4.1c-1.3-1.5-2.6-2.9-4-4.3c-18-18.7-35.1-26.6-55.9-31c-78.2-16.4-162.7,55.7-167.6,141.5
		c-3.6,63.6,28.7,114.5,74.8,154.4c38.8,33.5,80.9,65.4,67.4,114.7c-3.2,11.5-11.1,24-5.8,29.2c5.1,5,22.6-0.1,34.4-4.5
		c89.5-32.9,176.3-72.9,239.7-145.4C528.1,439.6,561.7,321.3,486.4,243.8z"/>
	<path opacity="0.6713" fill="#F6F6F6" d="M486.2,243.8c-46.2-47.5-112.3-50.7-164.7-20c-14.7,9.3-30.4,20.8-41.3,34.6
		c-1.1,1.3-2.1,2.7-3.1,4.1c-1.3-1.5-2.6-2.9-4-4.3c-18-18.7-35.2-26.6-55.9-31C139.2,210.9,54.8,283,49.9,368.7
		c-3.6,63.6,28.7,114.4,74.8,154.2c38.8,33.5,80.9,65.4,67.4,114.8c-3.2,11.4-11.1,23.9-5.8,29.1c5.1,5,22.4-0.1,34.3-4.5
		c89.5-32.8,176.2-72.8,239.6-145.3C528,439.6,561.5,321.3,486.2,243.8z"/>
	<path opacity="0.6752" fill="#F6F6F6" d="M486.1,243.9C440,196.4,373.9,193.2,321.5,224c-14.7,9.3-30.4,20.8-41.2,34.6
		c-1.1,1.3-2.1,2.7-3.1,4.1c-1.3-1.5-2.6-2.9-4-4.3c-17.9-18.7-35.2-26.6-55.9-31C139.3,211,54.9,283.1,50,368.7
		c-3.6,63.5,28.7,114.4,74.8,154.1c38.8,33.5,80.9,65.5,67.4,114.8c-3.1,11.4-11,23.8-5.7,29c5.1,5,22.3-0.1,34.2-4.5
		C310,629.4,396.8,589.4,460.2,517C527.9,439.6,561.4,321.4,486.1,243.9z"/>
	<path opacity="0.6792" fill="#F5F6F6" d="M486,243.9c-46.1-47.5-112.2-50.5-164.5-19.8c-14.7,9.3-30.3,20.7-41.1,34.6
		c-1.1,1.3-2.1,2.7-3.1,4.1c-1.3-1.5-2.6-2.9-3.9-4.3c-17.9-18.7-35.2-26.7-55.9-31c-78-16.4-162.4,55.7-167.3,141.3
		c-3.6,63.5,28.8,114.3,74.8,154c38.7,33.5,80.9,65.5,67.5,114.8c-3.1,11.4-11,23.7-5.7,28.9c5,4.9,22.2-0.1,34-4.5
		c89.4-32.8,176.1-72.7,239.5-145.1C527.8,439.6,561.3,321.4,486,243.9z"/>
	<path opacity="0.6832" fill="#F5F5F5" d="M485.8,243.9c-46.1-47.4-112.2-50.4-164.5-19.7c-14.6,9.3-30.3,20.7-41.1,34.6
		c-1.1,1.3-2.1,2.7-3.1,4.1c-1.3-1.5-2.6-2.9-3.9-4.3c-17.9-18.7-35.2-26.7-55.9-31c-78-16.4-162.3,55.6-167.2,141.2
		C46.6,432.2,79,483,125,522.7c38.7,33.4,80.9,65.5,67.5,114.8c-3.1,11.3-10.9,23.6-5.7,28.8c5,4.9,22-0.1,33.9-4.5
		C310,629,396.7,589.1,460,516.8C527.7,439.5,561.2,321.4,485.8,243.9z"/>
	<path opacity="0.6871" fill="#F4F5F5" d="M485.7,244c-46.1-47.4-112.2-50.3-164.4-19.6c-14.6,9.3-30.2,20.7-41,34.5
		c-1.1,1.3-2.1,2.7-3.1,4.1c-1.3-1.5-2.6-2.9-3.9-4.3c-17.9-18.7-35.2-26.7-55.9-31c-77.9-16.3-162.1,55.6-167,141.1
		c-3.6,63.4,28.8,114.1,74.8,153.8c38.7,33.4,80.9,65.6,67.5,114.8c-3.1,11.3-10.9,23.6-5.7,28.7c5,4.9,21.9-0.1,33.8-4.5
		c89.3-32.7,176-72.6,239.3-144.9C527.6,439.5,561,321.4,485.7,244z"/>
	<path opacity="0.6911" fill="#F4F4F4" d="M485.6,244c-46-47.3-112.1-50.2-164.3-19.5c-14.6,9.2-30.2,20.7-41,34.5
		c-1.1,1.3-2.1,2.7-3.1,4.1c-1.3-1.5-2.6-2.9-3.9-4.3c-17.9-18.6-35.2-26.7-55.9-31c-77.9-16.3-162,55.6-166.9,141
		c-3.6,63.3,28.9,114,74.8,153.6c38.7,33.4,80.9,65.6,67.6,114.8c-3.1,11.3-10.8,23.5-5.7,28.5c5,4.9,21.8-0.1,33.6-4.5
		c89.2-32.7,176-72.6,239.2-144.8C527.4,439.5,560.9,321.5,485.6,244z"/>
	<path opacity="0.695" fill="#F4F4F4" d="M485.4,244.1c-46-47.3-112.1-50.1-164.3-19.4c-14.6,9.2-30.1,20.7-40.9,34.5
		c-1.1,1.3-2.1,2.7-3.1,4.1c-1.3-1.5-2.6-2.9-3.9-4.3c-17.9-18.6-35.2-26.7-55.9-31c-77.8-16.3-161.9,55.6-166.8,141
		c-3.6,63.3,28.9,113.9,74.8,153.5c38.6,33.4,80.9,65.7,67.6,114.9c-3.1,11.2-10.8,23.4-5.7,28.4c4.9,4.8,21.7-0.1,33.5-4.5
		c89.1-32.7,175.9-72.5,239.1-144.7C527.3,439.5,560.8,321.5,485.4,244.1z"/>
	<path opacity="0.699" fill="#F3F3F3" d="M485.3,244.1c-46-47.3-112.1-50-164.2-19.3c-14.6,9.2-30.1,20.7-40.9,34.5
		c-1.1,1.3-2.1,2.7-3.1,4.1c-1.3-1.5-2.6-2.9-3.9-4.3c-17.9-18.6-35.2-26.7-55.9-31c-77.8-16.3-161.8,55.6-166.7,140.9
		c-3.6,63.2,28.9,113.8,74.8,153.4c38.6,33.3,80.9,65.7,67.6,114.9c-3.1,11.2-10.7,23.3-5.6,28.3c4.9,4.8,21.5-0.1,33.4-4.5
		c89.1-32.7,175.8-72.5,239-144.6C527.2,439.5,560.7,321.5,485.3,244.1z"/>
	<path opacity="0.703" fill="#F3F3F3" d="M485.2,244.2c-46-47.2-112.1-49.9-164.1-19.2c-14.6,9.2-30,20.7-40.8,34.4
		c-1.1,1.3-2.1,2.7-3.1,4.1c-1.3-1.5-2.6-2.9-3.9-4.3c-17.9-18.6-35.2-26.7-55.9-31C139.6,211.9,55.6,283.8,50.8,369
		c-3.6,63.2,28.9,113.7,74.8,153.3c38.6,33.3,80.9,65.8,67.7,114.9c-3,11.2-10.7,23.2-5.6,28.2c4.9,4.8,21.4-0.1,33.2-4.5
		c89-32.6,175.8-72.4,238.9-144.4C527.1,439.4,560.5,321.5,485.2,244.2z"/>
	<path opacity="0.7069" fill="#F2F2F2" d="M485,244.2C439.1,197,373,194.4,321,225.1c-14.6,9.2-30,20.7-40.8,34.4
		c-1.1,1.3-2.1,2.7-3.1,4.1c-1.3-1.5-2.6-2.9-3.9-4.3c-17.9-18.6-35.3-26.7-55.9-31.1C139.7,212,55.7,283.9,50.9,369
		c-3.6,63.1,29,113.6,74.8,153.2c38.6,33.3,80.9,65.8,67.7,114.9c-3,11.2-10.7,23.1-5.6,28.1c4.9,4.7,21.3-0.1,33.1-4.5
		c89-32.6,175.7-72.4,238.8-144.3C527,439.4,560.4,321.6,485,244.2z"/>
	<path opacity="0.7109" fill="#F2F2F2" d="M484.9,244.2c-45.9-47.1-112-49.7-164-19c-14.6,9.2-29.9,20.6-40.7,34.4
		c-1,1.3-2.1,2.7-3.1,4.1c-1.3-1.5-2.6-2.9-3.9-4.3c-17.8-18.6-35.3-26.8-55.9-31.1C139.7,212.1,55.9,284,51,369
		c-3.6,63.1,29,113.5,74.8,153c38.5,33.3,80.9,65.8,67.7,114.9c-3,11.1-10.6,23.1-5.6,28c4.8,4.7,21.2-0.1,33-4.5
		c88.9-32.6,175.7-72.3,238.7-144.2C526.9,439.4,560.3,321.6,484.9,244.2z"/>
	<path opacity="0.7149" fill="#F1F1F1" d="M484.8,244.3c-45.9-47.1-112-49.6-163.9-18.9c-14.6,9.2-29.9,20.6-40.6,34.4
		c-1,1.3-2.1,2.7-3.1,4.1c-1.3-1.5-2.6-2.9-3.9-4.3c-17.8-18.6-35.3-26.8-55.9-31.1C139.8,212.2,56,284.1,51.1,369.1
		c-3.6,63,29,113.5,74.8,152.9c38.5,33.2,80.9,65.9,67.7,115c-3,11.1-10.6,23-5.6,27.8c4.8,4.7,21-0.1,32.8-4.5
		c88.8-32.6,175.6-72.3,238.6-144.1C526.7,439.4,560.1,321.6,484.8,244.3z"/>
	<path opacity="0.7188" fill="#F1F1F1" d="M484.6,244.3c-45.9-47-111.9-49.5-163.9-18.8c-14.6,9.2-29.8,20.6-40.6,34.3
		c-1,1.3-2.1,2.7-3.1,4.1c-1.3-1.5-2.6-2.9-3.9-4.3c-17.8-18.5-35.3-26.8-55.8-31.1c-77.5-16.2-161.3,55.5-166.1,140.5
		c-3.6,63,29.1,113.4,74.8,152.8c38.5,33.2,80.9,65.9,67.8,115c-3,11.1-10.5,22.9-5.6,27.7c4.8,4.6,20.9-0.1,32.7-4.5
		c88.8-32.5,175.6-72.2,238.5-144C526.6,439.3,560,321.6,484.6,244.3z"/>
	<path opacity="0.7228" fill="#F0F0F0" d="M484.5,244.4c-45.8-47-111.9-49.4-163.8-18.7c-14.6,9.2-29.8,20.6-40.5,34.3
		c-1,1.3-2.1,2.7-3.1,4.1c-1.3-1.5-2.6-2.9-3.9-4.2c-17.8-18.5-35.3-26.8-55.8-31.1c-77.5-16.2-161.2,55.5-166,140.4
		c-3.6,62.9,29.1,113.3,74.8,152.7c38.5,33.2,80.9,66,67.8,115c-3,11-10.5,22.8-5.5,27.6c4.8,4.6,20.8-0.1,32.6-4.5
		c88.7-32.5,175.5-72.2,238.4-143.9C526.5,439.3,559.9,321.7,484.5,244.4z"/>
	<path opacity="0.7267" fill="#F0F0F0" d="M484.4,244.4c-45.8-47-111.9-49.3-163.7-18.6c-14.5,9.2-29.7,20.6-40.5,34.3
		c-1,1.3-2.1,2.7-3.1,4.1c-1.3-1.5-2.6-2.9-3.9-4.2c-17.8-18.5-35.3-26.8-55.8-31.1c-77.4-16.2-161.1,55.5-165.9,140.3
		c-3.6,62.9,29.1,113.2,74.8,152.6c38.4,33.2,80.9,66,67.8,115c-3,11-10.4,22.7-5.5,27.5c4.7,4.6,20.7-0.1,32.4-4.5
		c88.7-32.5,175.4-72.1,238.3-143.8C526.4,439.3,559.8,321.7,484.4,244.4z"/>
	<path opacity="0.7307" fill="#EFEFEF" d="M484.2,244.5c-45.8-46.9-111.9-49.2-163.6-18.5c-14.5,9.2-29.7,20.6-40.4,34.3
		c-1,1.3-2.1,2.7-3.1,4.1c-1.3-1.5-2.6-2.9-3.9-4.2c-17.8-18.5-35.3-26.8-55.8-31.1c-77.4-16.2-161,55.5-165.8,140.3
		c-3.6,62.8,29.1,113.1,74.8,152.4c38.4,33.1,80.9,66.1,67.9,115c-3,11-10.4,22.6-5.5,27.4c4.7,4.6,20.5-0.1,32.3-4.5
		c88.6-32.5,175.4-72.1,238.2-143.7C526.3,439.3,559.6,321.7,484.2,244.5z"/>
	<path opacity="0.7347" fill="#EFEFEF" d="M484.1,244.5c-45.8-46.9-111.8-49.1-163.6-18.4c-14.5,9.2-29.6,20.6-40.4,34.2
		c-1,1.3-2.1,2.7-3.1,4.1c-1.3-1.5-2.6-2.9-3.9-4.2c-17.8-18.5-35.3-26.8-55.8-31.1C140,212.8,56.5,284.6,51.6,369.2
		c-3.6,62.8,29.2,113,74.8,152.3c38.4,33.1,80.9,66.1,67.9,115.1c-2.9,10.9-10.3,22.6-5.5,27.3c4.7,4.5,20.4-0.1,32.2-4.5
		c88.6-32.4,175.3-72,238.1-143.6C526.1,439.3,559.5,321.7,484.1,244.5z"/>
	<path opacity="0.7386" fill="#EEEEEE" d="M484,244.5c-45.7-46.8-111.8-49-163.5-18.3c-14.5,9.2-29.6,20.6-40.3,34.2
		c-1,1.3-2.1,2.7-3.1,4.1c-1.3-1.5-2.6-2.9-3.9-4.2c-17.8-18.5-35.3-26.8-55.8-31.1C140.1,213,56.6,284.6,51.8,369.3
		C48.2,432,81,482.2,126.5,521.5c38.4,33.1,80.9,66.1,67.9,115.1c-2.9,10.9-10.3,22.5-5.5,27.1c4.7,4.5,20.3-0.1,32-4.5
		c88.5-32.4,175.3-72,238-143.5C526,439.2,559.4,321.8,484,244.5z"/>
	<path opacity="0.7426" fill="#EEEEEE" d="M483.8,244.6c-45.7-46.8-111.8-48.9-163.4-18.2c-14.5,9.2-29.5,20.5-40.3,34.2
		c-1,1.3-2.1,2.7-3.1,4c-1.3-1.5-2.6-2.9-3.9-4.2c-17.7-18.5-35.4-26.9-55.8-31.1c-77.2-16.2-160.6,55.5-165.5,140
		c-3.6,62.7,29.2,112.8,74.8,152.1c38.3,33.1,80.9,66.2,68,115.1c-2.9,10.9-10.2,22.4-5.4,27c4.6,4.5,20.1-0.2,31.9-4.5
		c88.4-32.4,175.2-71.9,237.9-143.4C525.9,439.2,559.3,321.8,483.8,244.6z"/>
	<path opacity="0.7465" fill="#EDEDEE" d="M483.7,244.6C438,197.9,372,195.8,320.3,226.5c-14.5,9.1-29.5,20.5-40.2,34.2
		c-1,1.3-2.1,2.7-3.1,4c-1.3-1.5-2.6-2.9-3.9-4.2c-17.7-18.5-35.4-26.9-55.8-31.1c-77.2-16.2-160.5,55.5-165.4,140
		c-3.6,62.6,29.3,112.7,74.8,152c38.3,33,80.9,66.2,68,115.1c-2.9,10.8-10.2,22.3-5.4,26.9c4.6,4.4,20-0.2,31.8-4.5
		c88.4-32.4,175.2-71.9,237.8-143.3C525.8,439.2,559.1,321.8,483.7,244.6z"/>
	<path opacity="0.7505" fill="#EDEDED" d="M483.6,244.7c-45.7-46.7-111.7-48.7-163.3-18c-14.5,9.1-29.4,20.5-40.2,34.2
		c-1,1.3-2.1,2.7-3.1,4c-1.3-1.5-2.6-2.9-3.9-4.2c-17.7-18.4-35.4-26.9-55.8-31.2c-77.1-16.1-160.4,55.5-165.3,139.9
		C48.5,432,81.4,482,126.8,521.2c38.3,33,81,66.3,68,115.1c-2.9,10.8-10.1,22.2-5.4,26.8c4.6,4.4,19.9-0.2,31.6-4.5
		c88.3-32.3,175.1-71.9,237.7-143.2C525.7,439.2,559,321.8,483.6,244.7z"/>
	<path opacity="0.7545" fill="#ECEDED" d="M483.4,244.7c-45.6-46.7-111.7-48.6-163.2-17.9c-14.5,9.1-29.4,20.5-40.1,34.1
		c-1,1.3-2.1,2.7-3.1,4c-1.3-1.5-2.6-2.9-3.9-4.2c-17.7-18.4-35.4-26.9-55.8-31.2C140.3,213.5,57,285,52.2,369.4
		c-3.6,62.5,29.3,112.6,74.7,151.7c38.3,33,81,66.3,68.1,115.2c-2.9,10.8-10.1,22.1-5.4,26.7c4.6,4.4,19.8-0.2,31.5-4.4
		c88.3-32.3,175.1-71.8,237.6-143.1C525.6,439.1,558.9,321.9,483.4,244.7z"/>
	<path opacity="0.7584" fill="#ECECEC" d="M483.3,244.8c-45.6-46.6-111.7-48.5-163.2-17.8c-14.5,9.1-29.3,20.5-40,34.1
		c-1,1.3-2.1,2.7-3.1,4c-1.3-1.4-2.6-2.9-3.9-4.2c-17.7-18.4-35.4-26.9-55.8-31.2c-77-16.1-160.2,55.4-165,139.7
		c-3.6,62.5,29.4,112.5,74.7,151.6c38.2,33,81,66.4,68.1,115.2c-2.9,10.7-10,22.1-5.4,26.6c4.5,4.3,19.6-0.2,31.4-4.4
		c88.2-32.3,175-71.8,237.5-143C525.4,439.1,558.8,321.9,483.3,244.8z"/>
	<path opacity="0.7624" fill="#EBECEC" d="M483.2,244.8c-45.6-46.6-111.6-48.4-163.1-17.7c-14.5,9.1-29.3,20.5-40,34.1
		c-1,1.3-2.1,2.7-3.1,4c-1.3-1.4-2.6-2.9-3.9-4.2c-17.7-18.4-35.4-26.9-55.8-31.2c-77-16.1-160.1,55.4-164.9,139.7
		c-3.6,62.4,29.4,112.4,74.7,151.5c38.2,32.9,81,66.4,68.1,115.2c-2.8,10.7-10,22-5.4,26.4c4.5,4.3,19.5-0.2,31.2-4.4
		c88.1-32.3,174.9-71.7,237.4-142.9C525.3,439.1,558.6,321.9,483.2,244.8z"/>
	<path opacity="0.7663" fill="#EBEBEB" d="M483,244.8c-45.5-46.6-111.6-48.3-163-17.6c-14.4,9.1-29.2,20.5-39.9,34.1
		c-1,1.3-2.1,2.7-3.1,4c-1.3-1.4-2.6-2.9-3.9-4.2c-17.7-18.4-35.4-26.9-55.8-31.2c-76.9-16.1-160,55.4-164.8,139.6
		c-3.6,62.4,29.4,112.3,74.7,151.4c38.2,32.9,81,66.4,68.2,115.2c-2.8,10.7-9.9,21.9-5.3,26.3c4.5,4.3,19.4-0.2,31.1-4.4
		c88.1-32.2,174.9-71.7,237.3-142.8C525.2,439.1,558.5,321.9,483,244.8z"/>
	<path opacity="0.7703" fill="#EAEBEB" d="M482.9,244.9c-45.5-46.5-111.6-48.2-162.9-17.5c-14.4,9.1-29.2,20.5-39.9,34
		c-1,1.3-2.1,2.7-3.1,4c-1.3-1.4-2.6-2.9-3.9-4.2c-17.7-18.4-35.4-26.9-55.8-31.2c-76.9-16.1-159.9,55.4-164.7,139.5
		c-3.6,62.3,29.4,112.2,74.7,151.2c38.2,32.9,81,66.5,68.2,115.2c-2.8,10.7-9.9,21.8-5.3,26.2c4.5,4.3,19.3-0.2,31-4.4
		c88-32.2,174.8-71.6,237.2-142.7C525.1,439.1,558.4,321.9,482.9,244.9z"/>
	<path opacity="0.7743" fill="#EAEAEA" d="M482.8,244.9c-45.5-46.5-111.6-48.1-162.9-17.4c-14.4,9.1-29.1,20.4-39.8,34
		c-1,1.3-2.1,2.7-3,4c-1.3-1.4-2.6-2.8-3.9-4.2c-17.7-18.4-35.4-26.9-55.8-31.2c-76.8-16.1-159.8,55.4-164.6,139.4
		c-3.6,62.3,29.5,112.1,74.7,151.1c38.1,32.9,81,66.5,68.2,115.2c-2.8,10.6-9.9,21.7-5.3,26.1c4.4,4.2,19.1-0.2,30.8-4.4
		C309.2,625.4,396,586,458.3,515C525,439,558.2,322,482.8,244.9z"/>
	<path opacity="0.7782" fill="#EAEAEA" d="M482.6,245c-45.5-46.4-111.5-48-162.8-17.3c-14.4,9.1-29.1,20.4-39.8,34
		c-1,1.3-2.1,2.7-3,4c-1.3-1.4-2.6-2.8-3.9-4.2c-17.6-18.3-35.5-27-55.8-31.2c-76.8-16.1-159.7,55.4-164.5,139.4
		c-3.6,62.3,29.5,112,74.7,151c38.1,32.8,81,66.6,68.3,115.3c-2.8,10.6-9.8,21.7-5.3,26c4.4,4.2,19-0.2,30.7-4.4
		c87.9-32.2,174.7-71.5,237-142.5C524.9,439,558.1,322,482.6,245z"/>
	<path opacity="0.7822" fill="#E9E9E9" d="M482.5,245c-45.4-46.4-111.5-47.9-162.7-17.2c-14.4,9.1-29.1,20.4-39.7,34
		c-1,1.3-2.1,2.7-3,4c-1.3-1.4-2.6-2.8-3.9-4.2c-17.6-18.3-35.5-27-55.8-31.2c-76.7-16-159.5,55.4-164.4,139.3
		c-3.6,62.2,29.5,111.9,74.7,150.9c38.1,32.8,81,66.6,68.3,115.3c-2.8,10.6-9.8,21.6-5.3,25.9c4.4,4.2,18.9-0.2,30.5-4.4
		c87.8-32.1,174.7-71.5,236.9-142.4C524.7,439,558,322,482.5,245z"/>
	<path opacity="0.7861" fill="#E9E9E9" d="M482.4,245c-45.4-46.4-111.5-47.8-162.7-17.1c-14.4,9.1-29,20.4-39.7,33.9
		c-1,1.3-2.1,2.7-3,4c-1.3-1.4-2.6-2.8-3.9-4.2c-17.6-18.3-35.5-27-55.8-31.2c-76.7-16-159.4,55.4-164.2,139.2
		c-3.6,62.2,29.6,111.8,74.7,150.8c38.1,32.8,81,66.7,68.3,115.3c-2.8,10.5-9.7,21.5-5.3,25.7c4.4,4.1,18.8-0.2,30.4-4.4
		c87.8-32.1,174.6-71.4,236.8-142.3C524.6,439,557.9,322,482.4,245z"/>
	<path opacity="0.7901" fill="#E8E8E8" d="M482.2,245.1c-45.4-46.3-111.4-47.7-162.6-17c-14.4,9.1-29,20.4-39.6,33.9
		c-1,1.3-2.1,2.7-3,4c-1.3-1.4-2.6-2.8-3.9-4.2c-17.6-18.3-35.5-27-55.8-31.2c-76.6-16-159.3,55.4-164.1,139.1
		c-3.6,62.1,29.6,111.8,74.7,150.6c38,32.7,81,66.7,68.4,115.3c-2.8,10.5-9.7,21.4-5.2,25.6c4.3,4.1,18.6-0.2,30.3-4.4
		c87.7-32.1,174.5-71.4,236.7-142.2C524.5,439,557.7,322.1,482.2,245.1z"/>
	<path opacity="0.7941" fill="#E8E8E8" d="M482.1,245.1c-45.4-46.3-111.4-47.7-162.5-16.9c-14.4,9.1-28.9,20.4-39.5,33.9
		c-1,1.3-2,2.7-3,4c-1.3-1.4-2.6-2.8-3.9-4.2c-17.6-18.3-35.5-27-55.8-31.3c-76.6-16-159.2,55.4-164,139.1
		c-3.6,62.1,29.6,111.7,74.7,150.5c38,32.7,81,66.7,68.4,115.3c-2.7,10.5-9.6,21.3-5.2,25.5c4.3,4.1,18.5-0.2,30.1-4.4
		C309,624.6,395.9,585.3,458,514.6C524.4,438.9,557.6,322.1,482.1,245.1z"/>
	<path opacity="0.798" fill="#E7E7E7" d="M482,245.2c-45.3-46.2-111.4-47.6-162.5-16.8c-14.4,9.1-28.9,20.4-39.5,33.9
		c-1,1.3-2,2.6-3,4c-1.3-1.4-2.6-2.8-3.9-4.2c-17.6-18.3-35.5-27-55.8-31.3c-76.5-16-159.1,55.3-163.9,139
		c-3.6,62,29.6,111.6,74.7,150.4c38,32.7,81,66.8,68.4,115.4c-2.7,10.4-9.6,21.2-5.2,25.4c4.3,4,18.4-0.2,30-4.4
		c87.6-32,174.4-71.3,236.5-142C524.3,438.9,557.5,322.1,482,245.2z"/>
	<path opacity="0.802" fill="#E7E7E7" d="M481.8,245.2c-45.3-46.2-111.4-47.5-162.4-16.7c-14.4,9-28.8,20.4-39.4,33.9
		c-1,1.3-2,2.6-3,4c-1.3-1.4-2.6-2.8-3.9-4.2c-17.6-18.3-35.5-27-55.8-31.3c-76.5-16-159,55.3-163.8,138.9
		c-3.6,62,29.7,111.5,74.7,150.3c38,32.7,81,66.8,68.5,115.4c-2.7,10.4-9.5,21.2-5.2,25.3c4.3,4,18.2-0.2,29.9-4.4
		c87.6-32,174.4-71.2,236.4-141.9C524.2,438.9,557.4,322.1,481.8,245.2z"/>
	<path opacity="0.8059" fill="#E6E6E7" d="M481.7,245.3c-45.3-46.2-111.3-47.4-162.3-16.6c-14.3,9-28.8,20.3-39.4,33.8
		c-1,1.3-2,2.6-3,4c-1.3-1.4-2.6-2.8-3.9-4.2c-17.6-18.2-35.5-27-55.8-31.3c-76.4-16-158.9,55.3-163.7,138.8
		c-3.6,61.9,29.7,111.4,74.7,150.2c37.9,32.6,81,66.9,68.5,115.4c-2.7,10.4-9.5,21.1-5.2,25.2c4.2,4,18.1-0.2,29.7-4.4
		c87.5-32,174.3-71.2,236.3-141.8C524,438.9,557.2,322.2,481.7,245.3z"/>
	<path opacity="0.8099" fill="#E6E6E6" d="M481.6,245.3c-45.3-46.1-111.3-47.3-162.2-16.5c-14.3,9-28.7,20.3-39.3,33.8
		c-1,1.3-2,2.6-3,4c-1.3-1.4-2.6-2.8-3.9-4.2c-17.5-18.2-35.5-27.1-55.8-31.3c-76.4-16-158.8,55.3-163.6,138.8
		c-3.6,61.9,29.7,111.3,74.7,150c37.9,32.6,81,66.9,68.5,115.4c-2.7,10.3-9.4,21-5.1,25c4.2,4,18-0.2,29.6-4.4
		c87.4-32,174.3-71.1,236.2-141.7C523.9,438.8,557.1,322.2,481.6,245.3z"/>
	<path opacity="0.8139" fill="#E5E6E6" d="M481.4,245.3c-45.2-46.1-111.3-47.2-162.2-16.4c-14.3,9-28.7,20.3-39.3,33.8
		c-1,1.3-2,2.6-3,4c-1.3-1.4-2.6-2.8-3.9-4.2c-17.5-18.2-35.6-27.1-55.8-31.3C141,215.3,58.6,286.5,53.9,369.9
		c-3.6,61.8,29.8,111.2,74.7,149.9c37.9,32.6,81,67,68.6,115.4c-2.7,10.3-9.4,20.9-5.1,24.9c4.2,3.9,17.9-0.2,29.5-4.4
		c87.4-31.9,174.2-71.1,236.1-141.6C523.8,438.8,557,322.2,481.4,245.3z"/>
	<path opacity="0.8178" fill="#E5E5E5" d="M481.3,245.4c-45.2-46-111.2-47.1-162.1-16.3c-14.3,9-28.6,20.3-39.2,33.8
		c-1,1.3-2,2.6-3,4c-1.3-1.4-2.6-2.8-3.9-4.2c-17.5-18.2-35.6-27.1-55.8-31.3C141.1,215.4,58.8,286.6,54,369.9
		c-3.5,61.8,29.8,111.1,74.7,149.8c37.8,32.6,81,67,68.6,115.5c-2.7,10.3-9.3,20.8-5.1,24.8c4.2,3.9,17.7-0.2,29.3-4.4
		c87.3-31.9,174.1-71,236-141.5C523.7,438.8,556.8,322.2,481.3,245.4z"/>
	<path opacity="0.8218" fill="#E4E5E5" d="M481.2,245.4c-45.2-46-111.2-47-162-16.2c-14.3,9-28.6,20.3-39.2,33.7c-1,1.3-2,2.6-3,4
		c-1.3-1.4-2.6-2.8-3.9-4.2c-17.5-18.2-35.6-27.1-55.8-31.3C141.1,215.5,58.9,286.7,54.1,370c-3.5,61.7,29.8,111,74.7,149.7
		c37.8,32.5,81,67,68.6,115.5c-2.6,10.2-9.3,20.7-5.1,24.7c4.1,3.9,17.6-0.2,29.2-4.4c87.3-31.9,174.1-71,235.9-141.4
		C523.6,438.8,556.7,322.3,481.2,245.4z"/>
	<path opacity="0.8257" fill="#E4E4E4" d="M481,245.5c-45.2-45.9-111.2-46.9-162-16.1c-14.3,9-28.5,20.3-39.1,33.7c-1,1.3-2,2.6-3,4
		c-1.3-1.4-2.6-2.8-3.9-4.2c-17.5-18.2-35.6-27.1-55.8-31.3C141.2,215.6,59,286.8,54.2,370c-3.5,61.7,29.9,111,74.7,149.6
		c37.8,32.5,81,67.1,68.7,115.5c-2.6,10.2-9.2,20.7-5.1,24.6c4.1,3.8,17.5-0.2,29.1-4.4c87.2-31.9,174-70.9,235.8-141.2
		C523.5,438.8,556.6,322.3,481,245.5z"/>
	<path opacity="0.8297" fill="#E3E4E4" d="M480.9,245.5c-45.1-45.9-111.2-46.8-161.9-16c-14.3,9-28.5,20.3-39,33.7c-1,1.3-2,2.6-3,4
		c-1.3-1.4-2.6-2.8-3.9-4.2c-17.5-18.2-35.6-27.1-55.8-31.3c-76.1-15.9-158.2,55.3-163,138.4c-3.5,61.6,29.9,110.9,74.7,149.4
		c37.8,32.5,81,67.1,68.7,115.5c-2.6,10.2-9.2,20.6-5.1,24.5c4.1,3.8,17.4-0.2,28.9-4.4c87.1-31.8,174-70.9,235.7-141.1
		C523.3,438.7,556.5,322.3,480.9,245.5z"/>
	<path opacity="0.8337" fill="#E3E3E3" d="M480.8,245.6c-45.1-45.9-111.1-46.7-161.8-16c-14.3,9-28.4,20.3-39,33.7c-1,1.3-2,2.6-3,4
		c-1.3-1.4-2.6-2.8-3.8-4.2c-17.5-18.1-35.6-27.1-55.8-31.3C141.3,215.9,59.2,287,54.4,370.1c-3.5,61.6,29.9,110.8,74.7,149.3
		c37.7,32.5,81,67.2,68.7,115.5c-2.6,10.1-9.2,20.5-5,24.3c4.1,3.8,17.2-0.2,28.8-4.4c87.1-31.8,173.9-70.8,235.6-141
		C523.2,438.7,556.3,322.3,480.8,245.6z"/>
	<path opacity="0.8376" fill="#E2E3E3" d="M480.6,245.6c-45.1-45.8-111.1-46.6-161.8-15.9c-14.3,9-28.4,20.2-38.9,33.6
		c-1,1.3-2,2.6-3,4c-1.3-1.4-2.6-2.8-3.8-4.2c-17.5-18.1-35.6-27.1-55.8-31.3c-76-15.9-158,55.2-162.8,138.2
		c-3.5,61.5,29.9,110.7,74.7,149.2c37.7,32.4,81,67.2,68.7,115.5c-2.6,10.1-9.1,20.4-5,24.2c4,3.7,17.1-0.2,28.7-4.4
		c87-31.8,173.9-70.8,235.5-140.9C523.1,438.7,556.2,322.4,480.6,245.6z"/>
	<path opacity="0.8416" fill="#E2E2E2" d="M480.5,245.6c-45.1-45.8-111.1-46.5-161.7-15.8c-14.3,9-28.3,20.2-38.9,33.6
		c-1,1.3-2,2.6-3,4c-1.3-1.4-2.6-2.8-3.8-4.2c-17.5-18.1-35.6-27.2-55.8-31.4c-76-15.9-157.9,55.2-162.7,138.2
		c-3.5,61.5,30,110.6,74.7,149.1c37.7,32.4,81,67.3,68.8,115.6c-2.6,10.1-9.1,20.3-5,24.1c4,3.7,17-0.2,28.5-4.4
		c87-31.8,173.8-70.7,235.4-140.8C523,438.7,556.1,322.4,480.5,245.6z"/>
	<path opacity="0.8455" fill="#E1E2E2" d="M480.4,245.7c-45-45.7-111.1-46.4-161.6-15.7c-14.3,9-28.3,20.2-38.8,33.6
		c-1,1.3-2,2.6-3,4c-1.3-1.4-2.5-2.8-3.8-4.1c-17.4-18.1-35.6-27.2-55.8-31.4c-75.9-15.8-157.8,55.2-162.6,138.1
		c-3.5,61.4,30,110.5,74.7,149c37.7,32.4,81,67.3,68.8,115.6c-2.6,10.1-9,20.2-5,24c4,3.7,16.9-0.2,28.4-4.4
		c86.9-31.7,173.7-70.7,235.3-140.7C522.9,438.6,556,322.4,480.4,245.7z"/>
	<path opacity="0.8495" fill="#E1E1E1" d="M480.2,245.7c-45-45.7-111-46.3-161.6-15.6c-14.2,9-28.2,20.2-38.8,33.6c-1,1.3-2,2.6-3,4
		c-1.3-1.4-2.5-2.8-3.8-4.1c-17.4-18.1-35.6-27.2-55.8-31.4c-75.9-15.8-157.7,55.2-162.5,138c-3.5,61.4,30,110.4,74.7,148.8
		c37.6,32.4,81,67.3,68.8,115.6c-2.6,10-9,20.2-5,23.9c3.9,3.7,16.7-0.2,28.3-4.4c86.9-31.7,173.7-70.6,235.2-140.6
		C522.8,438.6,555.8,322.4,480.2,245.7z"/>
	<path opacity="0.8535" fill="#E0E1E1" d="M480.1,245.8c-45-45.7-111-46.2-161.5-15.5c-14.2,9-28.2,20.2-38.7,33.6c-1,1.3-2,2.6-3,4
		c-1.3-1.4-2.5-2.8-3.8-4.1c-17.4-18.1-35.7-27.2-55.8-31.4C141.5,216.5,59.7,287.5,55,370.2c-3.5,61.3,30.1,110.3,74.7,148.7
		c37.6,32.3,81,67.4,68.9,115.6c-2.5,10-8.9,20.1-5,23.8c3.9,3.6,16.6-0.2,28.1-4.4c86.8-31.7,173.6-70.6,235.1-140.5
		C522.6,438.6,555.7,322.5,480.1,245.8z"/>
	<path opacity="0.8574" fill="#E0E0E0" d="M480,245.8c-45-45.6-111-46.1-161.4-15.4c-14.2,8.9-28.1,20.2-38.7,33.5c-1,1.3-2,2.6-3,4
		c-1.3-1.4-2.5-2.8-3.8-4.1c-17.4-18.1-35.7-27.2-55.8-31.4c-75.8-15.8-157.5,55.2-162.2,137.9c-3.5,61.3,30.1,110.2,74.7,148.6
		c37.6,32.3,81,67.4,68.9,115.6c-2.5,10-8.9,20-4.9,23.6c3.9,3.6,16.5-0.2,28-4.4c86.7-31.7,173.6-70.6,235-140.4
		C522.5,438.6,555.6,322.5,480,245.8z"/>
	<path opacity="0.8614" fill="#E0E0E0" d="M479.8,245.9c-44.9-45.6-110.9-46-161.3-15.3c-14.2,8.9-28.1,20.2-38.6,33.5
		c-1,1.3-2,2.6-3,4c-1.3-1.4-2.5-2.8-3.8-4.1c-17.4-18-35.7-27.2-55.8-31.4c-75.7-15.8-157.4,55.2-162.1,137.8
		c-3.5,61.2,30.1,110.1,74.7,148.5c37.6,32.3,81,67.5,68.9,115.7c-2.5,9.9-8.8,19.9-4.9,23.5c3.9,3.6,16.3-0.2,27.9-4.4
		c86.7-31.6,173.5-70.5,234.9-140.3C522.4,438.6,555.4,322.5,479.8,245.9z"/>
	<path opacity="0.8653" fill="#DFDFDF" d="M479.7,245.9c-44.9-45.5-110.9-45.9-161.3-15.2c-14.2,8.9-28,20.2-38.5,33.5
		c-1,1.3-2,2.6-3,4c-1.3-1.4-2.5-2.8-3.8-4.1c-17.4-18-35.7-27.2-55.7-31.4c-75.7-15.8-157.3,55.2-162,137.7
		c-3.5,61.2,30.1,110.1,74.7,148.4c37.5,32.3,81,67.5,69,115.7c-2.5,9.9-8.8,19.8-4.9,23.4c3.8,3.5,16.2-0.2,27.7-4.4
		c86.6-31.6,173.5-70.5,234.8-140.2C522.3,438.5,555.3,322.5,479.7,245.9z"/>
	<path opacity="0.8693" fill="#DFDFDF" d="M479.6,245.9c-44.9-45.5-110.9-45.8-161.2-15.1c-14.2,8.9-28,20.1-38.5,33.5
		c-1,1.3-2,2.6-3,3.9c-1.3-1.4-2.5-2.8-3.8-4.1c-17.4-18-35.7-27.2-55.7-31.4C141.7,217,60.2,287.9,55.4,370.4
		c-3.5,61.1,30.2,110,74.7,148.2c37.5,32.2,81,67.6,69,115.7c-2.5,9.9-8.7,19.7-4.9,23.3c3.8,3.5,16.1-0.2,27.6-4.4
		c86.6-31.6,173.4-70.4,234.7-140.1C522.2,438.5,555.2,322.5,479.6,245.9z"/>
	<path opacity="0.8733" fill="#DEDEDF" d="M479.4,246c-44.9-45.5-110.9-45.7-161.1-15c-14.2,8.9-27.9,20.1-38.4,33.4
		c-1,1.3-2,2.6-3,3.9c-1.3-1.4-2.5-2.8-3.8-4.1c-17.4-18-35.7-27.3-55.7-31.4c-75.5-15.8-157,55.1-161.8,137.5
		c-3.5,61.1,30.2,109.9,74.7,148.1c37.5,32.2,81,67.6,69,115.7c-2.5,9.8-8.7,19.7-4.9,23.2c3.8,3.5,16-0.2,27.5-4.4
		c86.5-31.6,173.3-70.4,234.6-140C522.1,438.5,555.1,322.6,479.4,246z"/>
	<path opacity="0.8772" fill="#DEDEDE" d="M479.3,246c-44.8-45.4-110.8-45.6-161.1-14.9c-14.2,8.9-27.9,20.1-38.4,33.4
		c-1,1.3-2,2.6-3,3.9c-1.3-1.4-2.5-2.8-3.8-4.1c-17.3-18-35.7-27.3-55.7-31.4c-75.5-15.7-156.9,55.1-161.7,137.5
		c-3.5,61,30.2,109.8,74.7,148c37.5,32.2,81,67.6,69.1,115.7c-2.5,9.8-8.6,19.6-4.8,23c3.8,3.4,15.8-0.2,27.3-4.4
		c86.4-31.5,173.3-70.3,234.5-139.9C521.9,438.5,554.9,322.6,479.3,246z"/>
	<path opacity="0.8812" fill="#DDDDDE" d="M479.2,246.1c-44.8-45.4-110.8-45.5-161-14.8c-14.2,8.9-27.8,20.1-38.3,33.4
		c-1,1.3-2,2.6-3,3.9c-1.3-1.4-2.5-2.8-3.8-4.1c-17.3-18-35.7-27.3-55.7-31.4c-75.4-15.7-156.8,55.1-161.6,137.4
		c-3.5,61,30.3,109.7,74.7,147.9c37.4,32.2,81,67.7,69.1,115.8c-2.5,9.8-8.6,19.5-4.8,22.9c3.7,3.4,15.7-0.2,27.2-4.4
		c86.4-31.5,173.2-70.3,234.4-139.8C521.8,438.4,554.8,322.6,479.2,246.1z"/>
	<path opacity="0.8851" fill="#DDDDDD" d="M479,246.1c-44.8-45.3-110.8-45.4-160.9-14.7c-14.2,8.9-27.8,20.1-38.3,33.4
		c-1,1.3-2,2.6-3,3.9c-1.3-1.4-2.5-2.8-3.8-4.1c-17.3-18-35.7-27.3-55.7-31.5c-75.4-15.7-156.7,55.1-161.4,137.3
		c-3.5,60.9,30.3,109.6,74.7,147.8c37.4,32.1,81,67.7,69.1,115.8c-2.4,9.7-8.5,19.4-4.8,22.8c3.7,3.4,15.6-0.2,27.1-4.4
		c86.3-31.5,173.2-70.2,234.3-139.7C521.7,438.4,554.7,322.6,479,246.1z"/>
	<path opacity="0.8891" fill="#DCDDDD" d="M478.9,246.2c-44.8-45.3-110.7-45.3-160.9-14.6c-14.1,8.9-27.7,20.1-38.2,33.3
		c-1,1.3-2,2.6-3,3.9c-1.3-1.4-2.5-2.8-3.8-4.1c-17.3-17.9-35.8-27.3-55.7-31.5C142,217.6,60.7,288.4,56,370.5
		c-3.5,60.9,30.3,109.5,74.7,147.7c37.4,32.1,81,67.8,69.2,115.8c-2.4,9.7-8.5,19.3-4.8,22.7c3.7,3.4,15.5-0.2,26.9-4.4
		c86.3-31.5,173.1-70.2,234.2-139.6C521.6,438.4,554.6,322.7,478.9,246.2z"/>
	<path opacity="0.8931" fill="#DCDCDC" d="M478.8,246.2C434,200.9,368.1,201,318,231.7c-14.1,8.9-27.7,20.1-38.2,33.3
		c-1,1.3-2,2.6-3,3.9c-1.3-1.4-2.5-2.8-3.8-4.1c-17.3-17.9-35.8-27.3-55.7-31.5C142,217.7,60.8,288.5,56.1,370.5
		c-3.5,60.8,30.4,109.4,74.7,147.5c37.4,32.1,81,67.8,69.2,115.8c-2.4,9.7-8.4,19.2-4.8,22.6c3.7,3.3,15.3-0.2,26.8-4.4
		c86.2-31.4,173.1-70.1,234.2-139.5C521.5,438.4,554.4,322.7,478.8,246.2z"/>
	<path opacity="0.897" fill="#DBDCDC" d="M478.6,246.2C433.9,201,368,201.2,317.9,231.8c-14.1,8.9-27.7,20-38.1,33.3
		c-1,1.3-2,2.6-3,3.9c-1.3-1.4-2.5-2.8-3.8-4.1c-17.3-17.9-35.8-27.3-55.7-31.5c-75.2-15.7-156.4,55.1-161.1,137.1
		c-3.5,60.8,30.4,109.3,74.7,147.4c37.3,32.1,81,67.9,69.2,115.8c-2.4,9.6-8.4,19.2-4.8,22.5c3.6,3.3,15.2-0.2,26.7-4.4
		c86.2-31.4,173-70.1,234.1-139.4C521.3,438.4,554.3,322.7,478.6,246.2z"/>
	<path opacity="0.901" fill="#DBDBDB" d="M478.5,246.3c-44.7-45.2-110.7-45-160.6-14.3c-14.1,8.9-27.6,20-38,33.3
		c-1,1.3-2,2.6-3,3.9c-1.3-1.4-2.5-2.8-3.8-4.1c-17.3-17.9-35.8-27.3-55.7-31.5c-75.2-15.7-156.3,55.1-161,137
		c-3.5,60.8,30.4,109.3,74.7,147.3c37.3,32,81,67.9,69.3,115.8c-2.4,9.6-8.4,19.1-4.7,22.3c3.6,3.3,15.1-0.2,26.5-4.4
		c86.1-31.4,173-70,234-139.3C521.2,438.3,554.2,322.7,478.5,246.3z"/>
	<path opacity="0.905" fill="#DADBDB" d="M478.4,246.3c-44.7-45.1-110.6-44.9-160.6-14.2c-14.1,8.9-27.6,20-38,33.3
		c-1,1.3-2,2.6-3,3.9c-1.3-1.4-2.5-2.8-3.8-4.1c-17.3-17.9-35.8-27.3-55.7-31.5C142.2,218,61.1,288.8,56.4,370.6
		c-3.5,60.7,30.4,109.2,74.7,147.2c37.3,32,81,67.9,69.3,115.9c-2.4,9.6-8.3,19-4.7,22.2c3.6,3.2,15-0.2,26.4-4.4
		c86-31.4,172.9-70,233.9-139.2C521.1,438.3,554,322.8,478.4,246.3z"/>
	<path opacity="0.9089" fill="#DADADA" d="M478.2,246.4c-44.6-45.1-110.6-44.8-160.5-14.1c-14.1,8.9-27.5,20-37.9,33.2
		c-1,1.3-2,2.6-3,3.9c-1.3-1.4-2.5-2.8-3.8-4.1c-17.3-17.9-35.8-27.4-55.7-31.5c-75.1-15.6-156.1,55-160.8,136.9
		C53,431.3,87,479.8,131.2,517.7c37.3,32,81,68,69.3,115.9c-2.4,9.6-8.3,18.9-4.7,22.1c3.6,3.2,14.8-0.2,26.2-4.4
		c86-31.3,172.8-69.9,233.8-139.1C521,438.3,553.9,322.8,478.2,246.4z"/>
	<path opacity="0.9129" fill="#D9DADA" d="M478.1,246.4c-44.6-45.1-110.6-44.7-160.4-14c-14.1,8.8-27.5,20-37.9,33.2
		c-1,1.3-2,2.6-3,3.9c-1.3-1.4-2.5-2.8-3.8-4.1c-17.2-17.9-35.8-27.4-55.7-31.5c-75-15.6-156,55-160.7,136.8
		c-3.5,60.6,30.5,109,74.7,146.9c37.2,32,81,68,69.4,115.9c-2.3,9.5-8.2,18.8-4.7,22c3.5,3.2,14.7-0.2,26.1-4.4
		c85.9-31.3,172.8-69.9,233.7-139C520.9,438.3,553.8,322.8,478.1,246.4z"/>
	<path opacity="0.9168" fill="#D9D9D9" d="M478,246.4c-44.6-45-110.5-44.6-160.4-13.9c-14.1,8.8-27.4,20-37.8,33.2
		c-1,1.3-2,2.6-3,3.9c-1.3-1.4-2.5-2.8-3.8-4.1c-17.2-17.8-35.8-27.4-55.7-31.5c-75-15.6-155.8,55-160.6,136.7
		c-3.5,60.6,30.5,108.9,74.7,146.8c37.2,31.9,81,68.1,69.4,115.9c-2.3,9.5-8.2,18.7-4.7,21.9c3.5,3.1,14.6-0.3,26-4.4
		c85.9-31.3,172.7-69.8,233.6-138.9C520.8,438.3,553.7,322.8,478,246.4z"/>
	<path opacity="0.9208" fill="#D8D9D9" d="M477.8,246.5c-44.6-45-110.5-44.5-160.3-13.8c-14.1,8.8-27.4,20-37.8,33.2
		c-1,1.3-2,2.6-3,3.9c-1.3-1.4-2.5-2.8-3.8-4.1c-17.2-17.8-35.8-27.4-55.7-31.5c-74.9-15.6-155.7,55-160.4,136.6
		c-3.5,60.5,30.6,108.8,74.7,146.7c37.2,31.9,81.1,68.1,69.4,115.9c-2.3,9.5-8.1,18.7-4.7,21.8c3.5,3.1,14.4-0.3,25.8-4.4
		C308,619.5,394.8,581,455.6,512C520.6,438.2,553.5,322.9,477.8,246.5z"/>
	<path opacity="0.9248" fill="#D8D8D8" d="M477.7,246.5c-44.5-44.9-110.5-44.4-160.2-13.7c-14.1,8.8-27.3,20-37.7,33.1
		c-1,1.3-2,2.6-3,3.9c-1.3-1.4-2.5-2.8-3.8-4.1c-17.2-17.8-35.9-27.4-55.7-31.5c-74.9-15.6-155.6,55-160.3,136.6
		c-3.5,60.5,30.6,108.7,74.7,146.6c37.2,31.9,81.1,68.2,69.5,116c-2.3,9.4-8.1,18.6-4.6,21.6c3.5,3.1,14.3-0.3,25.7-4.4
		c85.7-31.2,172.6-69.7,233.4-138.7C520.5,438.2,553.4,322.9,477.7,246.5z"/>
	<path opacity="0.9287" fill="#D7D8D8" d="M477.6,246.6c-44.5-44.9-110.5-44.3-160.2-13.6c-14.1,8.8-27.3,19.9-37.7,33.1
		c-1,1.3-2,2.6-3,3.9c-1.2-1.4-2.5-2.8-3.8-4.1c-17.2-17.8-35.9-27.4-55.7-31.6c-74.8-15.6-155.5,55-160.2,136.5
		c-3.5,60.4,30.6,108.6,74.7,146.5c37.1,31.9,81.1,68.2,69.5,116c-2.3,9.4-8,18.5-4.6,21.5c3.4,3.1,14.2-0.3,25.6-4.4
		c85.7-31.2,172.6-69.7,233.3-138.6C520.4,438.2,553.3,322.9,477.6,246.6z"/>
	<path opacity="0.9327" fill="#D7D7D7" d="M477.4,246.6C433,201.8,367,202.4,317.3,233.1c-14,8.8-27.2,19.9-37.6,33.1
		c-1,1.3-2,2.6-3,3.9c-1.2-1.4-2.5-2.8-3.8-4.1c-17.2-17.8-35.9-27.4-55.7-31.6c-74.8-15.6-155.4,55-160.1,136.4
		c-3.5,60.4,30.6,108.5,74.7,146.3c37.1,31.8,81.1,68.2,69.5,116c-2.3,9.4-8,18.4-4.6,21.4c3.4,3,14.1-0.3,25.4-4.4
		c85.6-31.2,172.5-69.6,233.2-138.5C520.3,438.2,553.2,322.9,477.4,246.6z"/>
	<path opacity="0.9366" fill="#D6D7D7" d="M477.3,246.7c-44.5-44.8-110.4-44.1-160-13.4c-14,8.8-27.2,19.9-37.6,33.1
		c-1,1.3-2,2.6-3,3.9c-1.2-1.4-2.5-2.8-3.8-4.1c-17.2-17.8-35.9-27.4-55.7-31.6c-74.7-15.6-155.3,55-160,136.3
		C53.8,431.2,88,479.4,132,517.1c37.1,31.8,81.1,68.3,69.6,116c-2.3,9.3-7.9,18.3-4.6,21.3c3.4,3,13.9-0.3,25.3-4.4
		c85.6-31.2,172.4-69.6,233.1-138.4C520.2,438.1,553,323,477.3,246.7z"/>
	<path opacity="0.9406" fill="#D6D6D6" d="M477.2,246.7c-44.4-44.8-110.4-44-160-13.3c-14,8.8-27.1,19.9-37.5,33c-1,1.3-2,2.6-3,3.9
		c-1.2-1.4-2.5-2.8-3.8-4.1c-17.2-17.8-35.9-27.5-55.7-31.6c-74.7-15.5-155.2,55-159.9,136.3c-3.5,60.3,30.7,108.4,74.7,146.1
		c37.1,31.8,81.1,68.3,69.6,116c-2.3,9.3-7.9,18.2-4.6,21.2c3.4,3,13.8-0.3,25.2-4.4c85.5-31.1,172.4-69.5,233-138.3
		C520.1,438.1,552.9,323,477.2,246.7z"/>
	<path opacity="0.9446" fill="#D5D6D6" d="M477,246.7c-44.4-44.7-110.4-43.9-159.9-13.2c-14,8.8-27.1,19.9-37.4,33
		c-1,1.3-2,2.6-3,3.9c-1.2-1.4-2.5-2.8-3.8-4.1c-17.1-17.7-35.9-27.5-55.7-31.6c-74.6-15.5-155.1,55-159.8,136.2
		c-3.5,60.2,30.7,108.3,74.7,146c37,31.8,81.1,68.4,69.6,116.1c-2.2,9.3-7.8,18.2-4.6,21.1c3.3,2.9,13.7-0.3,25-4.4
		c85.5-31.1,172.3-69.5,232.9-138.2C519.9,438.1,552.8,323,477,246.7z"/>
	<path opacity="0.9485" fill="#D5D5D5" d="M476.9,246.8c-44.4-44.7-110.3-43.8-159.8-13.1c-14,8.8-27,19.9-37.4,33
		c-1,1.3-2,2.6-3,3.9c-1.2-1.4-2.5-2.8-3.8-4.1c-17.1-17.7-35.9-27.5-55.7-31.6c-74.6-15.5-155,54.9-159.7,136.1
		c-3.5,60.2,30.8,108.2,74.7,145.9c37,31.7,81.1,68.4,69.7,116.1c-2.2,9.2-7.8,18.1-4.5,20.9c3.3,2.9,13.6-0.3,24.9-4.4
		c85.4-31.1,172.3-69.4,232.8-138C519.8,438.1,552.7,323,476.9,246.8z"/>
	<path opacity="0.9525" fill="#D4D5D5" d="M476.8,246.8c-44.4-44.6-110.3-43.7-159.7-13c-14,8.8-27,19.9-37.3,33c-1,1.3-2,2.6-3,3.9
		c-1.2-1.4-2.5-2.7-3.8-4.1c-17.1-17.7-35.9-27.5-55.7-31.6c-74.5-15.5-154.9,54.9-159.5,136c-3.5,60.1,30.8,108.1,74.7,145.7
		c37,31.7,81.1,68.5,69.7,116.1c-2.2,9.2-7.7,18-4.5,20.8c3.3,2.9,13.4-0.3,24.8-4.4c85.3-31.1,172.2-69.4,232.7-137.9
		C519.7,438.1,552.5,323.1,476.8,246.8z"/>
	<path opacity="0.9564" fill="#D4D4D4" d="M476.6,246.9C432.3,202.3,366.4,203.3,317,234c-14,8.8-26.9,19.9-37.3,32.9
		c-1,1.3-2,2.6-3,3.9c-1.2-1.4-2.5-2.7-3.8-4.1c-17.1-17.7-35.9-27.5-55.7-31.6c-74.5-15.5-154.8,54.9-159.4,136
		c-3.5,60.1,30.8,108,74.7,145.6c37,31.7,81.1,68.5,69.7,116.1c-2.2,9.2-7.7,17.9-4.5,20.7c3.3,2.8,13.3-0.3,24.6-4.4
		c85.3-31,172.2-69.3,232.6-137.8C519.6,438,552.4,323.1,476.6,246.9z"/>
	<path opacity="0.9604" fill="#D3D4D4" d="M476.5,246.9c-44.3-44.6-110.2-43.5-159.6-12.8c-14,8.8-26.9,19.8-37.2,32.9
		c-1,1.3-2,2.6-3,3.9c-1.2-1.4-2.5-2.7-3.8-4.1c-17.1-17.7-36-27.5-55.7-31.6C142.8,219.7,62.6,290.1,58,371.1
		c-3.5,60,30.9,107.9,74.7,145.5c36.9,31.7,81.1,68.5,69.7,116.1c-2.2,9.1-7.6,17.8-4.5,20.6c3.2,2.8,13.2-0.3,24.5-4.4
		c85.2-31,172.1-69.3,232.5-137.7C519.5,438,552.3,323.1,476.5,246.9z"/>
	<path opacity="0.9644" fill="#D3D3D3" d="M476.4,247c-44.3-44.5-110.2-43.4-159.5-12.7c-14,8.8-26.8,19.8-37.2,32.9
		c-1,1.3-2,2.6-3,3.9c-1.2-1.4-2.5-2.7-3.8-4.1c-17.1-17.7-36-27.5-55.7-31.6c-74.4-15.5-154.5,54.9-159.2,135.8
		c-3.5,60,30.9,107.8,74.7,145.4c36.9,31.6,81.1,68.6,69.8,116.1c-2.2,9.1-7.6,17.8-4.5,20.5c3.2,2.8,13.1-0.3,24.4-4.4
		c85.2-31,172-69.3,232.4-137.6C519.4,438,552.1,323.1,476.4,247z"/>
	<path opacity="0.9683" fill="#D2D3D3" d="M476.2,247c-44.3-44.5-110.2-43.3-159.5-12.6c-14,8.7-26.8,19.8-37.1,32.9
		c-1,1.3-2,2.6-2.9,3.9c-1.2-1.4-2.5-2.7-3.8-4c-17.1-17.7-36-27.5-55.7-31.6C142.9,220,62.8,290.3,58.2,371.2
		c-3.5,59.9,30.9,107.7,74.7,145.3c36.9,31.6,81.1,68.6,69.8,116.2c-2.2,9.1-7.6,17.7-4.4,20.4c3.2,2.8,12.9-0.3,24.2-4.4
		c85.1-31,172-69.2,232.3-137.5C519.2,438,552,323.1,476.2,247z"/>
	<path opacity="0.9723" fill="#D2D2D2" d="M476.1,247c-44.2-44.4-110.2-43.2-159.4-12.5c-13.9,8.7-26.7,19.8-37.1,32.9
		c-1,1.3-2,2.6-2.9,3.9c-1.2-1.4-2.5-2.7-3.8-4c-17.1-17.6-36-27.6-55.7-31.6c-74.3-15.4-154.3,54.9-159,135.7
		c-3.5,59.9,30.9,107.6,74.7,145.1c36.9,31.6,81.1,68.7,69.8,116.2c-2.1,9-7.5,17.6-4.4,20.2c3.2,2.7,12.8-0.3,24.1-4.4
		c85-30.9,171.9-69.2,232.2-137.4C519.1,437.9,551.9,323.2,476.1,247z"/>
	<path opacity="0.9762" fill="#D1D2D2" d="M476,247.1c-44.2-44.4-110.1-43.1-159.3-12.4c-13.9,8.7-26.7,19.8-37,32.8
		c-1,1.3-2,2.6-2.9,3.9c-1.2-1.4-2.5-2.7-3.8-4c-17.1-17.6-36-27.6-55.7-31.7C143,220.2,63.1,290.5,58.4,371.2
		c-3.5,59.8,31,107.6,74.7,145c36.8,31.6,81.1,68.7,69.9,116.2c-2.1,9-7.5,17.5-4.4,20.1c3.1,2.7,12.7-0.3,24-4.4
		c85-30.9,171.9-69.1,232.1-137.3C519,437.9,551.8,323.2,476,247.1z"/>
	<path opacity="0.9802" fill="#D1D1D1" d="M475.8,247.1c-44.2-44.4-110.1-43-159.3-12.3c-13.9,8.7-26.6,19.8-36.9,32.8
		c-1,1.3-2,2.6-2.9,3.9c-1.2-1.4-2.5-2.7-3.8-4c-17-17.6-36-27.6-55.7-31.7c-74.2-15.4-154.1,54.9-158.8,135.5
		c-3.5,59.8,31,107.5,74.7,144.9c36.8,31.5,81.1,68.8,69.9,116.2c-2.1,9-7.4,17.4-4.4,20c3.1,2.7,12.5-0.3,23.8-4.4
		c84.9-30.9,171.8-69.1,232-137.2C518.9,437.9,551.6,323.2,475.8,247.1z"/>
	<path opacity="0.9842" fill="#D0D1D1" d="M475.7,247.2c-44.2-44.3-110.1-42.9-159.2-12.2c-13.9,8.7-26.6,19.8-36.9,32.8
		c-1,1.3-2,2.6-2.9,3.9c-1.2-1.4-2.5-2.7-3.8-4c-17-17.6-36-27.6-55.7-31.7c-74.1-15.4-154,54.9-158.6,135.4
		c-3.4,59.7,31,107.4,74.7,144.8c36.8,31.5,81.1,68.8,69.9,116.2c-2.1,9-7.4,17.3-4.4,19.9c3.1,2.6,12.4-0.3,23.7-4.4
		c84.9-30.9,171.8-69,231.9-137.1C518.8,437.9,551.5,323.2,475.7,247.2z"/>
	<path opacity="0.9881" fill="#D0D0D0" d="M475.6,247.2c-44.1-44.3-110-42.8-159.1-12.1c-13.9,8.7-26.5,19.8-36.8,32.8
		c-1,1.3-2,2.6-2.9,3.9c-1.2-1.4-2.5-2.7-3.7-4c-17-17.6-36-27.6-55.7-31.7c-74.1-15.4-153.9,54.8-158.5,135.4
		C55.3,431,89.8,478.6,133.4,516c36.8,31.5,81.1,68.8,70,116.3c-2.1,8.9-7.3,17.3-4.4,19.8c3.1,2.6,12.3-0.3,23.6-4.4
		c84.8-30.8,171.7-69,231.8-137C518.7,437.9,551.4,323.3,475.6,247.2z"/>
	<path opacity="0.9921" fill="#CFD0D0" d="M475.4,247.3c-44.1-44.2-110-42.7-159-12c-13.9,8.7-26.5,19.7-36.8,32.7
		c-1,1.3-2,2.5-2.9,3.9c-1.2-1.4-2.5-2.7-3.7-4c-17-17.6-36-27.6-55.7-31.7c-74-15.4-153.8,54.8-158.4,135.3
		c-3.4,59.6,31.1,107.2,74.7,144.5c36.7,31.4,81.1,68.9,70,116.3c-2.1,8.9-7.3,17.2-4.3,19.7c3,2.6,12.2-0.3,23.4-4.4
		c84.8-30.8,171.6-68.9,231.7-136.9C518.5,437.8,551.3,323.3,475.4,247.3z"/>
	<path opacity="0.996" fill="#CFCFCF" d="M475.3,247.3c-44.1-44.2-110-42.6-159-11.9c-13.9,8.7-26.4,19.7-36.7,32.7
		c-1,1.3-2,2.5-2.9,3.8c-1.2-1.4-2.5-2.7-3.7-4c-17-17.6-36-27.6-55.7-31.7C143.3,220.8,63.6,291,59,371.4
		c-3.4,59.6,31.1,107.1,74.7,144.4c36.7,31.4,81.1,68.9,70,116.3c-2.1,8.9-7.2,17.1-4.3,19.5c3,2.5,12-0.3,23.3-4.4
		c84.7-30.8,171.6-68.9,231.6-136.8C518.4,437.8,551.1,323.3,475.3,247.3z"/>
	<path fill="#CECFCF" d="M475.2,247.3c-44.1-44.2-110-42.5-158.9-11.8c-13.9,8.7-26.4,19.7-36.7,32.7c-1,1.3-2,2.5-2.9,3.8
		c-1.2-1.4-2.5-2.7-3.7-4c-17-17.5-36.1-27.6-55.7-31.7c-73.9-15.4-153.6,54.8-158.2,135.1c-3.4,59.5,31.1,107,74.7,144.3
		c36.7,31.4,81.1,69,70.1,116.3c-2.1,8.8-7.2,17-4.3,19.4c3,2.5,11.9-0.3,23.2-4.4c84.6-30.8,171.5-68.8,231.5-136.7
		C518.3,437.8,551,323.3,475.2,247.3z"/>
</g>
<g>
	<path fill="#C40061" d="M475.1,242.8c-44.2-44.5-110-42.8-158.8-11.9c-13.8,8.8-26.3,19.9-36.4,32.9c-1,1.3-2,2.6-2.9,3.9
		c-1.2-1.4-2.5-2.7-3.8-4c-17.1-17.7-36.2-27.8-55.8-31.9c-73.9-15.4-154.8,55.5-159,136.4c-3.1,60,29.9,108.2,73.6,145.7
		c36.8,31.6,82.7,68.1,71.9,115.8c-2,8.9-6,18.2-12.3,27.9c11.1-3.9,22.2-7.9,33.4-12c84.4-31,170.9-69.4,230.5-137.8
		C519.2,434.7,551.3,319.4,475.1,242.8z"/>
</g>
<radialGradient id="SVGID_1_" cx="463.0271" cy="390.9623" r="19.0222" gradientUnits="userSpaceOnUse">
	<stop  offset="0" style="stop-color:#FFFFFF"/>
	<stop  offset="0.8595" style="stop-color:#FFFFFF"/>
	<stop  offset="1" style="stop-color:#DCD3DA"/>
</radialGradient>
<path fill="url(#SVGID_1_)" d="M474.1,399.2c0.3-6.8-5-11.9-11.4-12.2c-6.5-0.2-12.1,4.5-12.4,11.3c-0.3,6.8,5,12,11.5,12.3
	C468.2,410.8,473.9,406,474.1,399.2z M452.7,398.4c0.2-5.6,4.6-9.6,10-9.4c5.3,0.2,9.4,4.6,9.1,10.1c-0.2,5.7-4.6,9.7-9.9,9.5
	C456.5,408.4,452.5,404,452.7,398.4z M465,405l2.9,0.1c0,0,0.4-4.9-1.2-5.6c1.5-0.9,1.9-2.7,1.8-3.9c-0.2-2.2-2.9-3.9-6.1-4
	l-5.2-0.2l-0.5,13.6l2.8,0l0.2-5.2c0,0,2,0.1,3.8,0.2C465.3,400.1,465,405,465,405z M462.3,397.9l-2.5-0.1l0.1-3.9l2.9,0.1
	c1.4,0.1,2.9,0.6,2.9,1.8C465.6,397.9,464,398,462.3,397.9z"/>
<g>
	<g>
		<g>
			<radialGradient id="SVGID_2_" cx="288.7094" cy="327.351" r="231.006" gradientUnits="userSpaceOnUse">
				<stop  offset="0" style="stop-color:#FFFFFF"/>
				<stop  offset="0.8595" style="stop-color:#FFFFFF"/>
				<stop  offset="1" style="stop-color:#DCD3DA"/>
			</radialGradient>
			<path fill="url(#SVGID_2_)" d="M274.4,315.3c-3.9-3.3-9.7-1.4-12.1,2.7c-5.6-5.1-13.2,1.1-12.9,7.5c0.2,3.7,2.5,6.5,5.4,8.6
				c2.9,2.1,6.7,4.5,4.5,8.5c5.6-2.6,11.7-5.6,15.4-10.8C278.3,326.9,279.6,319.6,274.4,315.3"/>
		</g>
	</g>
	<g>
		<g>
			<radialGradient id="SVGID_3_" cx="288.7064" cy="327.3561" r="231.0021" gradientUnits="userSpaceOnUse">
				<stop  offset="0" style="stop-color:#FFFFFF"/>
				<stop  offset="0.8595" style="stop-color:#FFFFFF"/>
				<stop  offset="1" style="stop-color:#DCD3DA"/>
			</radialGradient>
			<path fill="url(#SVGID_3_)" d="M109.2,415.7c6.7-2.8,13.9-4.7,21.1-5.4c9-1,18.2-0.6,26.7,1.4c1.2,0.3,2.2,1.3,3.3,1.8
				c3.2,1.8,8.6,4.1,12.1,2c2.1-1.3,2.5-4.1,1-6.2c-2.4-3.5-7.9-2.8-11.4-4.5c-5-2.3-8.9-7.5-11.9-15.4c-4.2-10.9-3.8-21.7,1.1-32.2
				c4.9-10.5,12.9-17.9,24-22.1c9-3.4,17.1-3.9,24.5-1.4c-7.9,13.9-13.4,32.5-16.1,54.1l-0.6-0.7c-2.1-2.6-4.4-7.2-7.5-5.9
				c-1.8,0.7-2.3,2.2-1.4,4.6c0.9,2.3,4.8,7.2,8.4,10.4c-4.5,34.1-11.9,51.3-22.7,57.4c-6.5,3.7-13.6,0.4-13-7.5
				c0.3-4.5,4.2-7.1,6.6-10.5c2.1-3,2.7-6,1.5-9c-1-2.6-2.9-4.5-5.7-5.8c-2.8-1.3-5.8-1.4-8.8-0.2c-4,1.5-7.2,4.4-9.4,8.5
				c-2.7,5.3-2.8,11.4-0.2,18.2c2.9,7.5,8.2,12.6,15.9,15.1c7.8,2.5,16.1,2.1,25-1.3c5.7-2.2,10.8-5.4,15.2-9.7
				c-0.4,7.2,1.6,14.7,5.7,20.6c1.1,1.7,2.5,3.2,4,4.5c4.1,3.5,9.3,5.6,14.7,6.3c1,0.1,10.8,0.5,10.8-0.1
				c-0.6,10.1-2.1,19.2-4.5,27.1c-10.5,1-21.2,3.2-27.9,6.7c-6.4,3.3-11.8,9.4-10.9,17.1c0.8,6,5.7,10.4,11.4,12
				c6.1,1.7,13.3,1,21.5-2.2c1.8-0.7,3.7-1.6,5.4-2.6c3.2-1.7,6.1-4,8.8-6.5c2.8-2.7,5.3-5.7,7.4-8.9c0.7-1,1.4-2.1,2-2.9
				c5.4,0.2,19.7,3.2,22.4,3.7c40.6,7.2,73.2-4.8,85.8-25.9c1.5-2.5,2.9-5.3,2.8-8.3c0-3.2-2.9-4.5-5.7-3.6c-3,1-4,3.8-5,6.5
				c-1.2,3.3-2.7,6.4-4.8,9.2c-14.9,18.9-44.7,15.4-63.1,11.4c-3.6-0.8-21.1-5.1-26.6-5.7c4.1-11,6-23,5.9-36.9
				c8.7-6.9,16-15.7,21.8-26.4c6.4-12,8.9-23,7.6-33.1c-0.6-4.2-2-7.5-4.2-9.9c-0.9-1-1.9-1.7-3-2.2c1.5-1.2,2.8-2.5,4-4
				c0.9-1.2,1.7-2.6,2.4-4c0.6,3,2.6,5.5,6.2,5c2.6-0.3,5.4-1.7,7.3-2.3c3.3-1.1,4-5.5,4-5.5c1.5-9.7,3.8-18.3,3.8-18.3
				c1.7-7.8,7-20.1,12.6-25.7c0.8-0.8,2.2-1.7,3.4-1.4c2.3,0.5,1.8,4.6,1.6,6.2c0,0-2.5,15.9-2.4,19c0.2,9.8,4.2,17.2,17.7,12.1
				c4-1.5,7.3-4,9.9-7.3c0.9-1.2,1.6-2.5,2.3-3.8c0.7,2.9,2.6,5.3,6.2,4.8c2.6-0.3,5.4-1.7,7.3-2.3c3.3-1.1,4.7-5.8,4.7-5.8
				c2.5-10,6.5-30.3,6.5-30.3l10.6,16.5c6.3,8.9,12.6,7.9,17.2,6.4l1.5-0.5c4-1.5,7.3-4,9.9-7.3c0.9-1.2,1.6-2.4,2.3-3.7
				c1.4-2.8,2.8-6.1,3.6-9.3c0.2-1,0.4-2,0.5-2.9c0.2-1.6,0.4-5.1-1.8-5.7c-1.5-0.4-2.9,0.4-3.5,1.8c-0.4,1.2-0.3,2.5-0.4,3.7
				c-0.2,4.1-1.6,8.5-4.1,11.8c-1.2,1.5-2.9,3.8-5,2.8c-1.6-0.7-12.6-18.6-16.9-26c3.8-3.5,11.9-11,18.6-17c2.9-2.5,7-7,5.2-11.2
				c-1.5-3.5-6.4-4.4-9.7-3.9c-3,0.5-6.4,1.8-8.1,4.4c-1.6,2.5-1.5,5.6-1.5,8.5c0,1.9-0.9,3.4-2.2,4.7l-15.2,13.4
				c0,0,10.2-58,10.6-59.8c0.5-2.3,0.7-4.6,0.7-4.6c0.3-1.4-1.3-1.6-2.5-1.2c0,0-0.8,0.2-6.7,3.5c-7,4-9,6.7-10.6,13.7
				c0,0-9.4,47.6-14.5,74.8c-1,3.1-2,6.2-3,9.3c-1.3,3.6-2.9,7.7-5.3,10.8c-0.9,1.1-2.2,3-3.8,3c-3.5,0.1-1.7-9.5-1.5-11.4
				c0.1-0.6,0.2-1.3,0.2-1.9l0.7-3.6c1.3-6.7,1.3-11.8-0.1-15.7c-1.3-3.7-3.3-6.4-6-7.9c-1.4-0.8-3.3-1.2-4.8-1.4
				c-1.7-0.2-3.4,0.1-5,0.6c-3.3,1-6.3,2.9-8.6,5.5c-2.3,2.6-4.3,5.7-6,8.7c-0.1,0.1-0.8,1.7-1,1.5c-0.1-0.1,1.2-7.5,1.2-7.7
				c0.3-1.4-1.7-1.8-2.8-1.4c0,0,0.4-0.2-5.6,3.1c-5.2,2.9-9,5.3-10.3,13c0,0-0.4,1.6-1,4.2c-0.1,0.5-0.3,1-0.4,1.5
				c0,0-0.6,2.4-0.6,2.4c-1.7,6.4-3.7,12.7-5.8,18.9c-1.3,3.6-2.9,7.7-5.3,10.8c-0.9,1.1-2.2,3-3.8,3c-3.5,0.1-1.7-9.5-1.5-11.4
				c0.2-2.1,0.5-4.1,0.9-6.1c0.6-3.8,1.4-8.1,2.4-12.7l3.2-15c0.3-1.4-1.7-1.8-2.8-1.4c0,0-0.8,0.2-6.7,3.5c-5.2,2.9-9,5.4-10.3,13
				c-0.9,4.9-1.7,9.9-2.5,14.8c-1.2,7.5-3.9,18.7,4.1,23.5c-8.4,4.8-15.3,13.6-20.6,26.2c-4.6,10.9-7.5,22.9-8.8,36.3
				c-0.3,3.1-0.5,5.9-0.6,8.3c-7.7,1.6-22.8,0.4-27.2-14.7c-2.1-7.1-0.5-29.7,17.6-35.1c5-1.5,8.2-0.5,11.2-2.1
				c2.2-1.2,4.4-4.1,1.4-6c-3.4-2.3-9.5-0.7-13,0.4c-3.5,1.1-6.8,2.9-9.8,5.1c1.4-5.9,2-12.2,2-19c6,0.1,11.8-0.9,17.4-3.1
				c8.8-3.3,15.3-9.7,19.5-19c4.2-9.3,4.5-18.5,1.1-27.6c-2.2-5.8-5.8-11.2-10.7-16.3c-5.4-5.5-11.7-9.6-18.7-12.1
				c1.7-3,4.4-6.3,8.2-9.4c3.1-2.5,3-4.3,2.1-5.9c-0.8-1.5-2.7-1.6-4.6-0.9c-1.2,0.5-2.4,1.4-3.5,2.8c-3.4,4-6.5,7.9-9.3,11.6
				c-9-2-18.3-1.2-28.2,2.6c-15.7,6-26.7,15.8-32.9,29.4c-5.9,12.9-6.4,25.7-1.6,38.6c1.5,3.9,3.3,7.2,5.5,10.1
				c-8.1-0.7-16.3-0.5-24,0.4c-21.8,2.3-41.1,11.5-56.5,25.6c1.6,4.1,3.4,8,5.3,11.9c1.2-1.4,2.4-2.8,3.8-4.1
				C87.1,429.1,97.2,420.8,109.2,415.7z M200.7,536.5c-2.5,0.9-5,1-7.5,0.3c-3.6-1.1-6.5-4.9-5.6-8.7c1-4.3,6.4-5.8,10.2-6.6
				c5.1-1,10.6-0.8,15.8-0.2C209.8,529.5,205.5,534.6,200.7,536.5z M249,421.8c1.1-4.1,2.9-7.6,5.4-10.6c1-1.2,2.5-2.2,4.4-2.9
				c1.8-0.7,3.5-0.6,5.1,0.4c1.6,0.9,2.7,2.3,3.3,4c2.2,5.9,0.6,14.9-5,27.1c-5,10.9-10.2,18.8-15.5,23.9
				C246.1,444.5,246.8,430.5,249,421.8z M208.4,338c5.3,3.8,9.2,8.9,11.6,15.4c3,7.9,3.7,15.7,2,23.1c-1.5,6.7-4.5,14.1-11.2,16.9
				c-1.8,0.8-3.7,1-5.7,1.1C204.1,369.7,205,349.8,208.4,338z"/>
		</g>
		<g>
			<radialGradient id="SVGID_4_" cx="288.7136" cy="327.3465" r="231.013" gradientUnits="userSpaceOnUse">
				<stop  offset="0" style="stop-color:#FFFFFF"/>
				<stop  offset="0.8595" style="stop-color:#FFFFFF"/>
				<stop  offset="1" style="stop-color:#DCD3DA"/>
			</radialGradient>
			<path fill="url(#SVGID_4_)" d="M464.5,479.8c-15,3.3-24.2,2.4-38.9-1.2c3.7-9.2,12.2-53.3,12.6-55.3c0.6-3.8,2-9.1,2.9-13.7
				l3.2-15c0.3-1.4-1.7-1.8-2.8-1.4c0,0-0.8,0.2-6.7,3.5c-7,4-9.3,6.3-11.2,13c0,0-5.9,24-7.3,27.9c-1.3,3.6-2.9,7.7-5.3,10.8
				c-0.9,1.1-2.2,3-3.8,3c-3.5,0.1-1.7-9.5-1.5-11.4c0.2-2,0.5-4.1,0.9-6.1c0.6-3.8,1.9-9.1,2.9-13.7l3.2-15
				c0.3-1.4-1.7-1.8-2.8-1.4c0,0-0.8,0.2-6.7,3.5c-7,4-9.2,6.3-10.3,13c0,0-1.3,6.3-2.5,13.4c-1.1,4.3-2.8,10.1-4.2,14.1
				c-1.3,3.6-2.9,7.7-5.3,10.8c-0.9,1.1-2.2,3-3.8,3c-3.5,0.1-1.7-9.5-1.5-11.4c0.2-2.1,12.3-68.3,12.7-70.2c0-0.1,0-0.1,0-0.2
				c0.5-2.3,0.7-4.6,0.7-4.6c0.3-1.4-1.3-1.6-2.5-1.2c0,0-0.8,0.2-6.7,3.5c-5.2,2.9-9,5.4-10.3,13c0,0-6.8,32.3-7.5,37.5
				c-2.2-2.1-4.5-3-4.5-3c-2.6-1.1-5.8-1.5-9.2-0.2c-5.3,2-8.4,4.4-12.1,8.1c-3.7,3.7-6.6,7.7-8.6,11.9c-2.1,4.3-3.3,8.7-3.6,13
				c0,0.6,0,1.1-0.1,1.7c-1,3.4-2,6.9-3.2,10.3c-1.3,3.6-2.9,7.7-5.3,10.8c-0.9,1.1-2.2,3-3.8,3c-3.5,0.1-1.7-9.5-1.5-11.4
				c0.2-2.1,6.4-33.8,6.4-33.8c0.3-1.4-1.7-1.8-2.8-1.4c0,0-11.6,4.7-14.9,8.8c-1.5,1.9-2,3.8-2.5,5.7c-1.4-1.9-2.5-3.6-5.8-4.9
				c-2.4-1-5.3-0.7-7.8,0.2c-5.3,2-8.2,4.1-11.9,7.8c-3.7,3.7-6.8,8-8.8,12.3c-2.1,4.3-3.3,8.7-3.6,13c-0.4,4.4,0.2,8.5,1.5,12
				c2,5.3,4.5,8.6,7.6,10.3c3.2,1.7,6.9,1.8,11.1,0.2c2.3-0.9,4.3-2.1,6-3.6c1.6-1.5,3.1-3.2,4.4-5.2c1.3-1.9,3.7-7.7,3.7-9.1
				c1.4,3.7,3.5,6.3,6.2,7.7c2.8,1.5,6.1,1.5,9.8,0.1c4-1.5,7.3-4,9.9-7.3c2-2.7,3.3-5.9,4.4-9c0.8-2.1,1.5-4.2,2.2-6.3
				c0,0.1,0,0.1,0.1,0.2c2,5.3,4.5,8.6,7.6,10.3c3.2,1.7,6.9,1.8,11,0.2c2.3-0.9,4.3-2.1,6-3.7c1.6-1.5,3.1-3.2,4.4-5.2
				c1.3-1.9,3.7-7.7,3.7-9.1c1.4,3.7,3.5,6.3,6.2,7.7c2.8,1.5,6.1,1.5,9.8,0.1c4-1.5,7.3-4,9.9-7.3c2-2.7,3.3-5.9,4.4-9
				c0.1-0.3,0.2-0.5,0.3-0.8c1.4,3.2,3.3,5.6,5.9,6.9c2.8,1.4,6.1,1.5,9.8,0.1c4-1.5,7.3-4,9.9-7.3c1-1.3,1.8-2.8,2.5-4.3l0,0.1
				l-1.5,8.1c-1.5,7.8-3.3,12.7-6,18.5l0-0.1c-6.3-0.8-13-0.9-19.2,0.7c-3.5,0.9-7,2.7-9,5.8c-1.7,2.6-2.2,5.4-1.4,8.6
				c0.8,3.2,3,5.7,6.7,7.3c4.3,1.8,9.6,2,15.9,0.5c6.9-1.6,13.7-6.3,19.2-12.8c19.2,6.5,35.2,7.3,48.3,5.1c4-5.4,7.8-11,11.4-16.7
				C471.6,478.3,464.5,479.8,464.5,479.8z M293.3,465.4c-0.4,4-1.2,7.9-2.4,11.6c-1.2,3.7-2.6,6.9-4.3,9.6c-0.8,1.4-2,3.5-3.7,4.2
				c-2,0.8-3.1-1.3-3.6-2.7c-0.6-1.5-0.9-3.3-1.1-5.5c-0.2-2.2-0.2-4.6,0-7c0.2-2.5,0.6-5,1.2-7.5c0.6-2.8,1.4-5.7,2.7-8.4
				c1.2-2.5,2.9-5.5,5.7-6.5c4.5-1.7,5.4,5,5.6,7.7C293.5,462.4,293.4,463.9,293.3,465.4z M358.5,443.5c-0.4,4-1.1,7.9-2.3,11.6
				c-1.2,3.7-2.6,6.9-4.2,9.6c-0.8,1.4-2,3.5-3.6,4.2c-1.9,0.8-3-1.3-3.6-2.7c-0.6-1.5-0.9-3.3-1.1-5.5c-0.2-2.2-0.2-4.6,0-7
				c0.2-2.5,0.6-5,1.1-7.5c0.6-2.8,1.4-5.7,2.6-8.3c1.1-2.5,2.8-5.5,5.6-6.5c4.4-1.7,5.4,5,5.6,7.7
				C358.6,440.5,358.6,442,358.5,443.5z M394.9,491.6c-1.9,0.4-3.7,0.3-5.5-0.6c-1.8-0.8-2.9-2.1-3.3-4c-0.5-2.6,0.9-5.3,5-6.3
				c3.6-0.9,8.5-0.6,14.7,0.9C402.1,487.5,398.5,490.8,394.9,491.6z"/>
		</g>
	</g>
</g>
</svg>
