<?xml version="1.0" encoding="utf-8"?>
<!-- Generator: Adobe Illustrator 19.2.1, SVG Export Plug-In . SVG Version: 6.00 Build 0)  -->
<svg version="1.1" id="Calque_1" xmlns="http://www.w3.org/2000/svg" xmlns:xlink="http://www.w3.org/1999/xlink" x="0px" y="0px"
	 viewBox="0 0 226.8 340.2" style="enable-background:new 0 0 226.8 340.2;" xml:space="preserve">
<path d="M112.3,82.1c1.7,0,3.1,1.4,3.1,3.1v99.5l40.1-41.4c0.6-0.6,1.4-0.9,2.2-0.9s1.6,0.3,2.2,0.9c1.2,1.2,1.2,3.2,0,4.4
	l-46.1,46.1c-0.6,0.6-1.4,0.9-2.2,0.9s-1.6-0.3-2.2-0.9l-46.1-46.1c-1.2-1.2-1.2-3.2,0-4.4c0.6-0.6,1.4-0.9,2.2-0.9
	c0.8,0,1.6,0.3,2.2,0.9l41.4,41.4V85.2C109.2,83.5,110.6,82.1,112.3,82.1z"/>
</svg>
