<?xml version="1.0" encoding="utf-8"?>
<!-- Generator: Adobe Illustrator 19.0.0, SVG Export Plug-In . SVG Version: 6.00 Build 0)  -->
<svg version="1.1" id="Layer_1" xmlns="http://www.w3.org/2000/svg" xmlns:xlink="http://www.w3.org/1999/xlink" x="0px" y="0px"
	 viewBox="0 0 300 250" style="enable-background:new 0 0 300 250;" xml:space="preserve">
<style type="text/css">
	.st0{opacity:0.5;}
	.st1{fill:#F0F0F1;}
	.st2{fill:#424143;}
	.st3{fill:#9FA5AC;}
	.st4{fill:#77CDD5;}
	.st5{fill:#9AA1A8;}
	.st6{fill:#F89521;}
	.st7{fill:#FFFFFF;}
	.st8{fill:#4F76BB;}
	.st9{fill-rule:evenodd;clip-rule:evenodd;fill:#FFFFFF;}
	.st10{fill:#34C4F3;}
	.st11{fill:#F1574A;}
	.st12{fill:#1387C8;}
	.st13{fill:#F05C98;}
	.st14{fill:#EF3E3B;}
	.st15{fill:#FFC124;}
	.st16{fill:#209E48;}
	.st17{fill:#EF3F37;}
	.st18{fill:#FBC434;}
</style>
<g id="XMLID_221_" class="st0">
	<g id="XMLID_677_">
		<g id="XMLID_727_">
			<g id="XMLID_733_">
				<path id="XMLID_293_" class="st1" d="M67.4,146.9V249c30.5,0,114.5,0,154.7,0V146.9C178.9,146.9,93.6,146.9,67.4,146.9z"/>
				<path id="XMLID_734_" class="st2" d="M222.1,250H67.4c-0.5,0-1-0.4-1-1V146.9c0-0.5,0.4-1,1-1h154.7c0.5,0,1,0.4,1,1V249
					C223.1,249.6,222.7,250,222.1,250z M68.4,248h152.8V147.9H68.4V248z"/>
			</g>
			<g id="XMLID_728_">
				<path id="XMLID_290_" class="st3" d="M222.1,138.3c0-1.1-0.9-2.1-2.1-2.1H69.5c-1.1,0-2.1,0.9-2.1,2.1v8.7
					c26.2,0,111.5,0,154.7,0V138.3z"/>
				<path id="XMLID_729_" class="st2" d="M222.1,147.9H67.4c-0.5,0-1-0.4-1-1v-8.7c0-1.7,1.4-3.1,3.1-3.1h150.6
					c1.7,0,3.1,1.4,3.1,3.1v8.7C223.1,147.5,222.7,147.9,222.1,147.9z M68.4,145.9h152.8v-7.7c0-0.6-0.5-1.1-1.1-1.1H69.5
					c-0.6,0-1.1,0.5-1.1,1.1V145.9z"/>
			</g>
		</g>
		<g id="XMLID_725_">
			<path id="XMLID_287_" class="st2" d="M83.9,241.2c-0.5,0-1-0.4-1-1v-84.8c0-0.5,0.4-1,1-1c0.5,0,1,0.4,1,1v84.8
				C84.9,240.7,84.5,241.2,83.9,241.2z"/>
		</g>
		<g id="XMLID_723_">
			<path id="XMLID_285_" class="st4" d="M109.4,180.3H92.2c-0.5,0-1-0.4-1-1c0-0.5,0.4-1,1-1h17.1c0.5,0,1,0.4,1,1
				C110.3,179.8,109.9,180.3,109.4,180.3z"/>
		</g>
		<g id="XMLID_721_">
			<path id="XMLID_284_" class="st5" d="M208,180.3H114c-0.5,0-1-0.4-1-1c0-0.5,0.4-1,1-1H208c0.5,0,1,0.4,1,1
				C209,179.8,208.5,180.3,208,180.3z"/>
		</g>
		<g id="XMLID_719_">
			<path id="XMLID_283_" class="st4" d="M97.4,195.2h-5.2c-0.5,0-1-0.4-1-1s0.4-1,1-1h5.2c0.5,0,1,0.4,1,1S98,195.2,97.4,195.2z"/>
		</g>
		<g id="XMLID_717_">
			<path id="XMLID_279_" class="st5" d="M158.9,195.2h-56.3c-0.5,0-1-0.4-1-1s0.4-1,1-1h56.3c0.5,0,1,0.4,1,1
				S159.5,195.2,158.9,195.2z"/>
		</g>
		<g id="XMLID_715_">
			<path id="XMLID_277_" class="st6" d="M111.7,209.9H92.2c-0.5,0-1-0.4-1-1c0-0.5,0.4-1,1-1h19.5c0.5,0,1,0.4,1,1
				C112.7,209.5,112.2,209.9,111.7,209.9z"/>
		</g>
		<g id="XMLID_713_">
			<path id="XMLID_276_" class="st4" d="M124.7,209.9h-5.3c-0.5,0-1-0.4-1-1c0-0.5,0.4-1,1-1h5.3c0.5,0,1,0.4,1,1
				C125.6,209.5,125.2,209.9,124.7,209.9z"/>
		</g>
		<g id="XMLID_711_">
			<path id="XMLID_275_" class="st5" d="M191.6,209.9h-61.9c-0.5,0-1-0.4-1-1c0-0.5,0.4-1,1-1h61.9c0.5,0,1,0.4,1,1
				C192.6,209.5,192.2,209.9,191.6,209.9z"/>
		</g>
		<g id="XMLID_709_">
			<path id="XMLID_273_" class="st5" d="M146.7,224.2H92.2c-0.5,0-1-0.4-1-1c0-0.5,0.4-1,1-1h54.5c0.5,0,1,0.4,1,1
				C147.7,223.8,147.3,224.2,146.7,224.2z"/>
		</g>
		<g id="XMLID_707_">
			<path id="XMLID_272_" class="st6" d="M154.5,224.2h-5.2c-0.5,0-1-0.4-1-1c0-0.5,0.4-1,1-1h5.2c0.5,0,1,0.4,1,1
				C155.5,223.8,155.1,224.2,154.5,224.2z"/>
		</g>
		<g id="XMLID_705_">
			<path id="XMLID_271_" class="st6" d="M109.4,239.3H92.2c-0.5,0-1-0.4-1-1c0-0.5,0.4-1,1-1h17.1c0.5,0,1,0.4,1,1
				C110.3,238.8,109.9,239.3,109.4,239.3z"/>
		</g>
		<g id="XMLID_703_">
			<path id="XMLID_265_" class="st4" d="M119.5,239.3H114c-0.5,0-1-0.4-1-1c0-0.5,0.4-1,1-1h5.4c0.5,0,1,0.4,1,1
				C120.5,238.8,120,239.3,119.5,239.3z"/>
		</g>
		<g id="XMLID_701_">
			<path id="XMLID_263_" class="st5" d="M184.1,239.3h-59.4c-0.5,0-1-0.4-1-1c0-0.5,0.4-1,1-1h59.4c0.5,0,1,0.4,1,1
				C185.1,238.8,184.6,239.3,184.1,239.3z"/>
		</g>
		<rect id="XMLID_261_" x="68.5" y="148" class="st4" width="14.4" height="100.2"/>
		<g id="XMLID_698_">
			<path id="XMLID_260_" class="st4" d="M114,156.4H92.2c-0.5,0-1-0.4-1-1c0-0.5,0.4-1,1-1H114c0.5,0,1,0.4,1,1
				C115,156,114.6,156.4,114,156.4z"/>
		</g>
		<g id="XMLID_696_">
			<path id="XMLID_259_" class="st6" d="M123.9,156.4h-6c-0.5,0-1-0.4-1-1c0-0.5,0.4-1,1-1h6c0.5,0,1,0.4,1,1
				C124.9,156,124.4,156.4,123.9,156.4z"/>
		</g>
		<g id="XMLID_694_">
			<path id="XMLID_258_" class="st5" d="M151.9,166.6H97.4c-0.5,0-1-0.4-1-1s0.4-1,1-1h54.5c0.5,0,1,0.4,1,1
				S152.5,166.6,151.9,166.6z"/>
		</g>
		<g id="XMLID_692_">
			<path id="XMLID_257_" class="st6" d="M162.6,166.6h-4.9c-0.5,0-1-0.4-1-1s0.4-1,1-1h4.9c0.5,0,1,0.4,1,1S163.1,166.6,162.6,166.6
				z"/>
		</g>
		<g id="XMLID_690_">
			<path id="XMLID_252_" class="st7" d="M78,156.4h-6.8c-0.5,0-1-0.4-1-1c0-0.5,0.4-1,1-1H78c0.5,0,1,0.4,1,1
				C79,156,78.6,156.4,78,156.4z"/>
		</g>
		<g id="XMLID_688_">
			<path id="XMLID_250_" class="st7" d="M78,166.6h-6.8c-0.5,0-1-0.4-1-1s0.4-1,1-1H78c0.5,0,1,0.4,1,1S78.6,166.6,78,166.6z"/>
		</g>
		<g id="XMLID_686_">
			<path id="XMLID_249_" class="st7" d="M78,180.3h-6.8c-0.5,0-1-0.4-1-1c0-0.5,0.4-1,1-1H78c0.5,0,1,0.4,1,1
				C79,179.8,78.6,180.3,78,180.3z"/>
		</g>
		<g id="XMLID_684_">
			<path id="XMLID_248_" class="st7" d="M78,195.2h-6.8c-0.5,0-1-0.4-1-1s0.4-1,1-1H78c0.5,0,1,0.4,1,1S78.6,195.2,78,195.2z"/>
		</g>
		<g id="XMLID_682_">
			<path id="XMLID_247_" class="st7" d="M78,210.4h-6.8c-0.5,0-1-0.4-1-1c0-0.5,0.4-1,1-1H78c0.5,0,1,0.4,1,1
				C79,209.9,78.6,210.4,78,210.4z"/>
		</g>
		<g id="XMLID_680_">
			<path id="XMLID_246_" class="st7" d="M78,224.2h-6.8c-0.5,0-1-0.4-1-1c0-0.5,0.4-1,1-1H78c0.5,0,1,0.4,1,1
				C79,223.8,78.6,224.2,78,224.2z"/>
		</g>
		<g id="XMLID_678_">
			<path id="XMLID_245_" class="st7" d="M78,239.3h-6.8c-0.5,0-1-0.4-1-1c0-0.5,0.4-1,1-1H78c0.5,0,1,0.4,1,1
				C79,238.8,78.6,239.3,78,239.3z"/>
		</g>
	</g>
	<g id="XMLID_666_">
		<g id="XMLID_672_">
			<path id="XMLID_243_" class="st3" d="M232.6,151.1v-6.2h-7.7c-0.4-2.3-1.3-4.4-2.5-6.3l5.6-5.6l-4.4-4.4l-5.5,5.5
				c-2.1-1.6-4.6-2.7-7.3-3.1v-7.3h-6.2v7.4c-2.6,0.5-5,1.6-7,3.1l-5.5-5.5l-4.4,4.4l5.6,5.6c-1.2,1.9-2.1,4-2.5,6.3h-7.6v6.2h7.6
				c0.4,1.9,1,3.8,2,5.4l-6.1,6.1l4.4,4.4l5.8-5.8c2.2,1.8,4.8,3.1,7.8,3.7v7.3h6.2V165c2.5-0.4,4.9-1.4,6.9-2.8l4.8,4.8l4.4-4.4
				l-4.8-4.8c1.4-2,2.4-4.3,2.8-6.8H232.6z"/>
			<path id="XMLID_673_" class="st2" d="M210.9,173.2h-6.2c-0.5,0-1-0.4-1-1v-6.5c-2.4-0.6-4.7-1.6-6.7-3.1l-5.1,5.1
				c-0.4,0.4-1,0.4-1.4,0l-4.4-4.4c-0.4-0.4-0.4-1,0-1.4l5.6-5.6c-0.7-1.4-1.2-2.8-1.6-4.3h-6.8c-0.5,0-1-0.4-1-1v-6.2
				c0-0.5,0.4-1,1-1h6.8c0.4-1.8,1.1-3.5,2-5.1l-5-5c-0.4-0.4-0.4-1,0-1.4l4.4-4.4c0.4-0.4,1-0.4,1.4,0l4.9,4.9
				c1.8-1.2,3.8-2.1,5.9-2.6v-6.6c0-0.5,0.4-1,1-1h6.2c0.5,0,1,0.4,1,1v6.5c2.2,0.5,4.3,1.4,6.2,2.6l4.9-4.9c0.4-0.4,1-0.4,1.4,0
				l4.4,4.4c0.4,0.4,0.4,1,0,1.4l-5,5c0.9,1.6,1.6,3.3,2,5.2h6.9c0.5,0,1,0.4,1,1v6.2c0,0.5-0.4,1-1,1h-6.9c-0.5,2-1.2,3.9-2.3,5.6
				l4.3,4.3c0.4,0.4,0.4,1,0,1.4l-4.4,4.4c-0.2,0.2-0.4,0.3-0.7,0.3l0,0c-0.3,0-0.5-0.1-0.7-0.3l-4.3-4.3c-1.8,1.1-3.7,1.9-5.8,2.3
				v6.4C211.9,172.8,211.4,173.2,210.9,173.2z M205.7,171.3h4.2V165c0-0.5,0.3-0.9,0.8-1c2.4-0.4,4.5-1.3,6.5-2.6
				c0.4-0.3,0.9-0.2,1.3,0.1l4.1,4.1l3-3l-4.1-4.1c-0.3-0.3-0.4-0.9-0.1-1.3c1.3-1.9,2.2-4.1,2.6-6.4c0.1-0.5,0.5-0.8,1-0.8h6.7
				v-4.2h-6.7c-0.5,0-0.9-0.3-1-0.8c-0.4-2.1-1.2-4.1-2.4-5.9c-0.3-0.4-0.2-0.9,0.1-1.2l4.9-4.9l-3-3l-4.8,4.8
				c-0.3,0.3-0.9,0.4-1.3,0.1c-2-1.5-4.4-2.5-6.9-2.9c-0.5-0.1-0.8-0.5-0.8-1v-6.4h-4.2v6.4c0,0.5-0.3,0.9-0.8,1
				c-2.4,0.5-4.6,1.4-6.6,2.9c-0.4,0.3-0.9,0.3-1.3-0.1l-4.8-4.8l-3,3l4.9,4.9c0.3,0.3,0.4,0.8,0.1,1.2c-1.2,1.8-2,3.8-2.3,5.9
				c-0.1,0.5-0.5,0.8-1,0.8h-6.7v4.2h6.7c0.5,0,0.9,0.3,1,0.8c0.3,1.8,1,3.5,1.9,5.1c0.2,0.4,0.2,0.9-0.2,1.2l-5.4,5.4l3,3l5.1-5.1
				c0.4-0.4,0.9-0.4,1.3-0.1c2.1,1.7,4.6,2.9,7.3,3.4c0.5,0.1,0.8,0.5,0.8,1V171.3z"/>
		</g>
		<g id="XMLID_667_">
			<circle id="XMLID_236_" class="st7" cx="208" cy="148" r="8.3"/>
			<path id="XMLID_668_" class="st2" d="M208,157.3c-5.1,0-9.3-4.2-9.3-9.3c0-5.1,4.2-9.3,9.3-9.3c5.1,0,9.3,4.2,9.3,9.3
				C217.2,153.1,213.1,157.3,208,157.3z M208,140.7c-4,0-7.3,3.3-7.3,7.3c0,4,3.3,7.3,7.3,7.3c4,0,7.3-3.3,7.3-7.3
				C215.3,144,212,140.7,208,140.7z"/>
		</g>
	</g>
</g>
<g id="XMLID_72_">
	<g id="XMLID_207_">
		<circle id="XMLID_506_" class="st8" cx="116.6" cy="109.8" r="10.4"/>
		<path id="XMLID_208_" class="st9" d="M118.2,106.4c0.3,0,0.6,0,1,0c0,0,0.1,0,0.1,0v-1.7c-0.2,0-0.4,0-0.5-0.1c-0.3,0-0.7,0-1,0
			c-0.5,0-1,0.1-1.4,0.4c-0.5,0.3-0.7,0.8-0.8,1.4c0,0.2-0.1,0.5-0.1,0.7c0,0.4,0,0.8,0,1.1v0.1h-1.6v1.9h1.6v4.7h2v-4.7h1.6
			c0.1-0.6,0.2-1.2,0.2-1.9c-0.1,0-0.2,0-0.4,0c-0.5,0-1.5,0-1.5,0s0-0.9,0-1.3C117.4,106.6,117.7,106.4,118.2,106.4z"/>
	</g>
	<g id="XMLID_201_">
		<circle id="XMLID_500_" class="st8" cx="260.5" cy="40.5" r="9"/>
		<path id="XMLID_206_" class="st9" d="M261.9,37.6c0.3,0,0.6,0,0.8,0c0,0,0.1,0,0.1,0v-1.5c-0.1,0-0.3,0-0.5,0c-0.3,0-0.6,0-0.9,0
			c-0.4,0-0.9,0.1-1.2,0.4c-0.4,0.3-0.6,0.7-0.7,1.2c0,0.2,0,0.4,0,0.6c0,0.3,0,0.7,0,1v0.1h-1.4V41h1.4v4.1h1.7V41h1.4
			c0.1-0.5,0.1-1.1,0.2-1.6c-0.1,0-0.2,0-0.3,0c-0.4,0-1.3,0-1.3,0s0-0.8,0-1.2C261.2,37.7,261.5,37.6,261.9,37.6z"/>
	</g>
	<g id="XMLID_199_">
		<circle id="XMLID_494_" class="st8" cx="277.9" cy="52.1" r="15.1"/>
		<path id="XMLID_200_" class="st9" d="M280.3,47.1c0.5,0,0.9,0,1.4,0c0.1,0,0.1,0,0.2,0v-2.4c-0.3,0-0.5-0.1-0.8-0.1
			c-0.5,0-1,0-1.4,0c-0.7,0-1.4,0.2-2,0.6c-0.7,0.5-1.1,1.2-1.2,2c-0.1,0.3-0.1,0.7-0.1,1.1c0,0.5,0,1.1,0,1.6v0.2H274v2.7h2.3v6.9
			h2.8v-6.9h2.3c0.1-0.9,0.2-1.8,0.4-2.7c-0.2,0-0.4,0-0.5,0c-0.7,0-2.2,0-2.2,0s0-1.4,0-1.9C279.2,47.4,279.7,47.1,280.3,47.1z"/>
	</g>
	<g id="XMLID_193_">
		<circle id="XMLID_488_" class="st10" cx="286.5" cy="236.5" r="10"/>
		<path id="XMLID_194_" class="st9" d="M284.8,238.8c-1.1,0-1.8-0.8-2-1.5c0.3,0.1,0.6,0,0.9,0c0,0,0,0,0,0c-0.6-0.1-1.1-0.5-1.4-1
			c-0.2-0.3-0.3-0.7-0.3-1.1c0.3,0.2,0.6,0.2,0.9,0.3c-0.4-0.3-0.7-0.7-0.9-1.3c-0.1-0.5,0-1,0.2-1.5c1.1,1.3,2.6,2.1,4.4,2.2
			c0-0.1,0-0.2,0-0.2c-0.1-0.5,0-1,0.3-1.4c0.3-0.5,0.8-0.9,1.4-1c0.7-0.1,1.3,0.1,1.8,0.6c0,0,0.1,0,0.1,0c0.4-0.1,0.8-0.3,1.2-0.5
			c0,0,0,0,0,0c0,0,0,0,0,0c-0.2,0.5-0.5,0.9-0.9,1.2c0.4,0,0.8-0.2,1.2-0.3c0,0,0,0,0,0c-0.1,0.1-0.2,0.2-0.2,0.3
			c-0.2,0.3-0.5,0.5-0.8,0.7c0,0,0,0,0,0.1c0,0.3,0,0.6,0,0.9c-0.1,0.7-0.3,1.3-0.5,1.9c-0.3,0.6-0.7,1.2-1.1,1.7
			c-0.8,0.8-1.8,1.4-2.9,1.6c-0.4,0.1-0.8,0.1-1.2,0.1c-1.2,0-2.3-0.3-3.4-0.9c0,0,0,0-0.1,0c0.7,0.1,1.4,0,2.1-0.3
			C284.1,239.3,284.5,239.1,284.8,238.8z"/>
	</g>
	<g id="XMLID_183_">
		<circle id="XMLID_482_" class="st10" cx="248.6" cy="161" r="10.8"/>
		<path id="XMLID_184_" class="st9" d="M246.8,163.6c-1.2,0-1.9-0.9-2.1-1.6c0.3,0.1,0.7,0,1,0c0,0,0,0,0,0c-0.6-0.2-1.1-0.5-1.5-1
			c-0.2-0.4-0.3-0.8-0.3-1.2c0.3,0.2,0.7,0.3,1,0.3c-0.5-0.3-0.8-0.8-0.9-1.4c-0.1-0.6,0-1.1,0.2-1.7c1.2,1.5,2.8,2.3,4.7,2.4
			c0-0.1,0-0.2,0-0.3c-0.1-0.5,0-1,0.3-1.5c0.4-0.6,0.9-0.9,1.5-1c0.8-0.1,1.4,0.1,2,0.6c0,0,0.1,0,0.1,0c0.5-0.1,0.9-0.3,1.3-0.5
			c0,0,0,0,0,0c0,0,0,0,0,0c-0.2,0.5-0.5,0.9-1,1.2c0.4,0,0.9-0.2,1.3-0.3c0,0,0,0,0,0c-0.1,0.1-0.2,0.2-0.3,0.3
			c-0.2,0.3-0.5,0.6-0.8,0.8c0,0,0,0,0,0.1c0,0.3,0,0.7,0,1c-0.1,0.7-0.3,1.4-0.6,2c-0.3,0.7-0.7,1.3-1.2,1.8
			c-0.9,0.9-1.9,1.5-3.1,1.7c-0.4,0.1-0.8,0.1-1.3,0.2c-1.3,0-2.5-0.3-3.7-1c0,0,0,0-0.1,0c0.8,0.1,1.6,0,2.3-0.3
			C246.1,164,246.4,163.8,246.8,163.6z"/>
	</g>
	<g id="XMLID_174_">
		<circle id="XMLID_476_" class="st10" cx="241.1" cy="102.4" r="15.8"/>
		<path id="XMLID_176_" class="st9" d="M238.4,106.1c-1.7-0.1-2.8-1.3-3.1-2.3c0.5,0.1,1,0.1,1.4,0c0,0,0,0,0,0
			c-0.9-0.2-1.7-0.7-2.2-1.5c-0.3-0.5-0.5-1.1-0.5-1.8c0.5,0.3,1,0.4,1.5,0.4c-0.7-0.5-1.2-1.2-1.4-2c-0.2-0.8-0.1-1.7,0.4-2.4
			c1.8,2.1,4.1,3.3,6.9,3.5c0-0.1,0-0.2-0.1-0.4c-0.1-0.8,0.1-1.5,0.5-2.2c0.5-0.8,1.3-1.3,2.3-1.5c1.1-0.2,2.1,0.1,2.9,0.9
			c0.1,0.1,0.1,0.1,0.2,0.1c0.7-0.1,1.3-0.4,1.9-0.7c0,0,0,0,0,0c0,0,0,0,0,0c-0.3,0.8-0.7,1.4-1.4,1.8c0.6-0.1,1.3-0.2,1.9-0.5
			c0,0,0,0,0,0c-0.1,0.2-0.3,0.3-0.4,0.5c-0.4,0.4-0.8,0.8-1.2,1.2c0,0-0.1,0.1-0.1,0.1c0,0.5,0,1-0.1,1.5c-0.1,1-0.4,2-0.9,3
			c-0.5,1-1.1,1.9-1.8,2.6c-1.3,1.3-2.8,2.2-4.6,2.6c-0.6,0.1-1.2,0.2-1.9,0.2c-1.9,0.1-3.7-0.4-5.3-1.4c0,0,0,0-0.1,0
			c1.2,0.1,2.3,0,3.3-0.5C237.4,106.8,237.9,106.5,238.4,106.1z"/>
	</g>
	<g id="XMLID_158_">
		<circle id="XMLID_470_" class="st11" cx="212.3" cy="121.9" r="17"/>
		<g id="XMLID_165_">
			<path id="XMLID_167_" class="st7" d="M209.8,120.6c0,0,0,0.1,0,0.1c0,0.8,0,2.6,0,2.6s3.4,0,3.6,0c0,0.3-0.3,1.3-1.3,2
				c-0.6,0.4-1.3,0.6-2,0.6c-0.5,0-1,0-1.5-0.2c-1.5-0.5-2.6-1.8-2.8-3.5c0-0.4,0-0.8,0.1-1.2c0.4-2,2.3-3.4,4.4-3.1
				c0.9,0.1,1.5,0.5,2,1c0.6-0.7,1.3-1.3,2-2c-0.2-0.1-0.5-0.5-1.2-0.9c-1-0.6-2-0.9-3.2-0.9c-0.2,0-0.4,0-0.6,0
				c-0.4,0-0.7,0.1-1.1,0.2c-1.5,0.4-2.7,1.1-3.6,2.3c-0.9,1.1-1.4,2.4-1.5,3.8c0,0.6,0,1.2,0.1,1.8c0.4,1.7,1.3,3,2.6,4
				c1.1,0.8,2.3,1.2,3.6,1.3c0.7,0,1.5,0,2.2-0.2c1.3-0.4,2.5-1.1,3.3-2.2c1.2-1.6,1.5-3.7,1.2-5.7
				C214,120.6,211.9,120.6,209.8,120.6z"/>
			<polygon id="XMLID_166_" class="st7" points="224.2,120.7 222,120.7 222,118.4 222,118.4 221.9,118.4 220.2,118.4 220.1,118.4 
				220.1,118.4 220.1,120.7 217.9,120.7 217.8,120.7 217.8,120.8 217.8,122.5 217.8,122.6 217.9,122.6 220.1,122.6 220.1,124.8 
				220.1,124.9 220.2,124.9 221.9,124.9 222,124.9 222,124.8 222,122.6 224.2,122.6 224.3,122.6 224.3,122.5 224.3,120.8 
				224.3,120.7 			"/>
		</g>
	</g>
	<g id="XMLID_139_">
		<circle id="XMLID_462_" class="st11" cx="278.7" cy="114.6" r="19.6"/>
		<g id="XMLID_148_">
			<path id="XMLID_156_" class="st7" d="M275.9,113.2c0,0,0,0.1,0,0.1c0,0.9,0,3,0,3s3.9,0,4.1,0c0,0.3-0.4,1.5-1.5,2.3
				c-0.7,0.5-1.4,0.7-2.2,0.7c-0.6,0-1.1,0-1.7-0.2c-1.7-0.6-3-2.1-3.2-4c0-0.5,0-0.9,0.1-1.4c0.5-2.2,2.6-3.9,5.1-3.6
				c1.1,0.2,1.7,0.6,2.3,1.1c0.7-0.7,1.5-1.5,2.2-2.2c-0.2-0.1-0.6-0.6-1.4-1c-1.1-0.7-2.4-1-3.7-1c-0.2,0-0.5,0-0.7,0
				c-0.4,0-0.9,0.1-1.3,0.2c-1.7,0.4-3.1,1.3-4.1,2.6c-1,1.3-1.6,2.8-1.7,4.4c0,0.7,0,1.4,0.2,2.1c0.4,1.9,1.4,3.5,3,4.6
				c1.2,0.9,2.6,1.4,4.1,1.5c0.9,0,1.7,0,2.5-0.3c1.5-0.4,2.8-1.2,3.8-2.5c1.4-1.9,1.7-4.2,1.3-6.5
				C280.7,113.2,278.3,113.2,275.9,113.2z"/>
			<polygon id="XMLID_149_" class="st7" points="292.5,113.3 289.8,113.3 289.8,110.7 289.8,110.6 289.8,110.6 287.8,110.6 
				287.7,110.6 287.7,110.7 287.7,113.3 285.1,113.3 285,113.3 285,113.4 285,115.4 285,115.4 285.1,115.4 287.7,115.4 287.7,118 
				287.7,118.1 287.8,118.1 289.8,118.1 289.8,118.1 289.8,118 289.8,115.4 292.5,115.4 292.5,115.4 292.5,115.4 292.5,113.4 
				292.5,113.3 			"/>
		</g>
	</g>
	<g id="XMLID_133_">
		<circle id="XMLID_454_" class="st11" cx="223.4" cy="148.4" r="9.5"/>
		<g id="XMLID_134_">
			<path id="XMLID_138_" class="st7" d="M222,147.7C222,147.7,222,147.7,222,147.7c0,0.5,0,1.5,0,1.5s1.9,0,2,0
				c0,0.1-0.2,0.7-0.7,1.1c-0.3,0.2-0.7,0.3-1.1,0.4c-0.3,0-0.5,0-0.8-0.1c-0.8-0.3-1.5-1-1.5-2c0-0.2,0-0.5,0-0.7
				c0.3-1.1,1.3-1.9,2.5-1.7c0.5,0.1,0.8,0.3,1.1,0.5c0.4-0.4,0.7-0.7,1.1-1.1c-0.1-0.1-0.3-0.3-0.7-0.5c-0.6-0.3-1.1-0.5-1.8-0.5
				c-0.1,0-0.2,0-0.4,0c-0.2,0-0.4,0-0.6,0.1c-0.8,0.2-1.5,0.6-2,1.3c-0.5,0.6-0.8,1.3-0.8,2.1c0,0.3,0,0.7,0.1,1
				c0.2,0.9,0.7,1.7,1.5,2.2c0.6,0.4,1.3,0.7,2,0.7c0.4,0,0.8,0,1.2-0.1c0.8-0.2,1.4-0.6,1.8-1.2c0.7-0.9,0.8-2.1,0.6-3.2
				C224.4,147.7,223.2,147.7,222,147.7z"/>
			<polygon id="XMLID_135_" class="st7" points="230.1,147.7 228.8,147.7 228.8,146.5 228.8,146.4 228.8,146.4 227.8,146.4 
				227.8,146.4 227.8,146.5 227.8,147.7 226.5,147.7 226.5,147.7 226.5,147.8 226.5,148.7 226.5,148.8 226.5,148.8 227.8,148.8 
				227.8,150 227.8,150.1 227.8,150.1 228.8,150.1 228.8,150.1 228.8,150 228.8,148.8 230.1,148.8 230.1,148.8 230.1,148.7 
				230.1,147.8 230.1,147.7 			"/>
		</g>
	</g>
	<g id="XMLID_111_">
		<circle id="XMLID_446_" class="st12" cx="272.5" cy="201.9" r="13.1"/>
		<g id="XMLID_112_">
			<path id="XMLID_128_" class="st7" d="M267.1,199.9h2.5v8.1h-2.5V199.9z M268.3,195.9c0.8,0,1.5,0.7,1.5,1.5
				c0,0.8-0.7,1.5-1.5,1.5c-0.8,0-1.5-0.7-1.5-1.5C266.9,196.5,267.5,195.9,268.3,195.9"/>
			<path id="XMLID_113_" class="st7" d="M271.2,199.9h2.4v1.1h0c0.3-0.6,1.2-1.3,2.4-1.3c2.6,0,3,1.7,3,3.9v4.5h-2.5v-4
				c0-0.9,0-2.2-1.3-2.2c-1.3,0-1.5,1-1.5,2.1v4h-2.5V199.9z"/>
		</g>
	</g>
	<g id="XMLID_87_">
		<circle id="XMLID_436_" class="st12" cx="146.9" cy="114.9" r="16.5"/>
		<g id="XMLID_88_">
			<path id="XMLID_99_" class="st7" d="M140.1,112.3h3.2v10.3h-3.2V112.3z M141.7,107.1c1,0,1.9,0.8,1.9,1.9c0,1-0.8,1.9-1.9,1.9
				c-1,0-1.9-0.8-1.9-1.9C139.8,108,140.7,107.1,141.7,107.1"/>
			<path id="XMLID_89_" class="st7" d="M145.3,112.3h3.1v1.4h0c0.4-0.8,1.5-1.7,3-1.7c3.2,0,3.8,2.1,3.8,4.9v5.6h-3.2v-5
				c0-1.2,0-2.7-1.7-2.7c-1.7,0-1.9,1.3-1.9,2.6v5.1h-3.2V112.3z"/>
		</g>
	</g>
	<g id="XMLID_79_">
		<circle id="XMLID_426_" class="st12" cx="164.1" cy="101.6" r="21.9"/>
		<g id="XMLID_80_">
			<path id="XMLID_81_" class="st7" d="M155.1,98.1h4.2v13.6h-4.2V98.1z M157.2,91.4c1.4,0,2.5,1.1,2.5,2.5c0,1.4-1.1,2.5-2.5,2.5
				c-1.4,0-2.5-1.1-2.5-2.5C154.8,92.5,155.9,91.4,157.2,91.4"/>
			<path id="XMLID_84_" class="st7" d="M162,98.1h4.1v1.9h0.1c0.6-1.1,1.9-2.2,4-2.2c4.3,0,5.1,2.8,5.1,6.5v7.5H171v-6.6
				c0-1.6,0-3.6-2.2-3.6c-2.2,0-2.5,1.7-2.5,3.5v6.7H162V98.1z"/>
		</g>
	</g>
	<g id="XMLID_85_">
		<circle id="XMLID_416_" class="st13" cx="214.5" cy="82.1" r="24.9"/>
		<path id="XMLID_86_" class="st7" d="M214.5,69.7c-6.8,0-12.4,5.6-12.4,12.4c0,6.8,5.6,12.4,12.4,12.4c6.8,0,12.4-5.6,12.4-12.4
			C226.9,75.3,221.3,69.7,214.5,69.7z M222.5,75.8c1.3,1.6,2.1,3.6,2.2,5.7c-2.6-0.5-5-0.5-7-0.1c-0.3-0.6-0.5-1.2-0.8-1.7
			C219.2,78.7,221.1,77.4,222.5,75.8z M221,74.2c-1.3,1.6-3.1,2.7-5,3.5c-0.2-0.4-0.4-0.8-0.6-1.1c-1.2-2-2.4-3.5-3.2-4.5
			c0.8-0.2,1.6-0.3,2.4-0.3C216.9,71.9,219.2,72.8,221,74.2z M209.9,73c0.8,0.9,2.3,2.7,3.9,5.5c-3.6,1-7.3,1.2-9.3,1.1
			C205.3,76.7,207.3,74.3,209.9,73z M204.2,82.1c0-0.1,0-0.2,0-0.3c0.3,0,0.6,0,0.9,0c1.5,0,3.7-0.1,6-0.5c1.3-0.2,2.5-0.5,3.7-0.9
			c0.2,0.5,0.5,1,0.7,1.5c-2.1,0.7-3.7,1.7-5,2.7c-1.8,1.5-3.1,3.1-3.8,4.2C205.2,87.1,204.2,84.7,204.2,82.1z M208.4,90.4
			c0.6-1,1.7-2.6,3.5-4c1.4-1.1,2.8-1.9,4.4-2.4c0.8,2.3,1.5,4.9,1.8,7.7c-1.2,0.5-2.4,0.7-3.7,0.7
			C212.2,92.4,210.1,91.6,208.4,90.4z M220.3,90.6c-0.4-2.6-1-5-1.8-7.1c1.9-0.3,3.9-0.2,6.1,0.3C224.1,86.6,222.5,89,220.3,90.6z"
			/>
	</g>
	<g id="XMLID_97_">
		<circle id="XMLID_403_" class="st13" cx="193.5" cy="100.7" r="15.2"/>
		<path id="XMLID_98_" class="st7" d="M193.5,93.1c-4.2,0-7.6,3.4-7.6,7.6c0,4.2,3.4,7.6,7.6,7.6c4.2,0,7.6-3.4,7.6-7.6
			C201,96.5,197.6,93.1,193.5,93.1z M198.4,96.8c0.8,1,1.3,2.2,1.3,3.5c-1.6-0.3-3-0.3-4.3-0.1c-0.2-0.4-0.3-0.7-0.5-1
			C196.4,98.6,197.5,97.8,198.4,96.8z M197.4,95.9c-0.8,1-1.9,1.7-3.1,2.2c-0.1-0.2-0.3-0.5-0.4-0.7c-0.7-1.2-1.5-2.1-2-2.7
			c0.5-0.1,1-0.2,1.5-0.2C195,94.5,196.3,95,197.4,95.9z M190.7,95.1c0.5,0.5,1.4,1.7,2.4,3.3c-2.2,0.6-4.5,0.7-5.6,0.7
			C187.9,97.4,189.1,95.9,190.7,95.1z M187.2,100.7c0-0.1,0-0.1,0-0.2c0.2,0,0.4,0,0.6,0c0.9,0,2.2-0.1,3.7-0.3
			c0.8-0.1,1.5-0.3,2.2-0.5c0.1,0.3,0.3,0.6,0.4,0.9c-1.3,0.4-2.3,1-3,1.7c-1.1,0.9-1.9,1.9-2.3,2.6
			C187.8,103.7,187.2,102.3,187.2,100.7z M189.8,105.7c0.4-0.6,1.1-1.6,2.2-2.4c0.8-0.7,1.7-1.2,2.7-1.5c0.5,1.4,0.9,3,1.1,4.7
			c-0.7,0.3-1.5,0.4-2.3,0.4C192.1,107,190.8,106.5,189.8,105.7z M197,105.8c-0.2-1.6-0.6-3-1.1-4.3c1.2-0.2,2.4-0.1,3.7,0.2
			C199.4,103.4,198.4,104.9,197,105.8z"/>
	</g>
	<g id="XMLID_109_">
		<circle id="XMLID_390_" class="st13" cx="255.6" cy="186.5" r="6.4"/>
		<path id="XMLID_110_" class="st7" d="M255.6,183.3c-1.8,0-3.2,1.4-3.2,3.2s1.4,3.2,3.2,3.2c1.8,0,3.2-1.4,3.2-3.2
			S257.4,183.3,255.6,183.3z M257.7,184.9c0.3,0.4,0.5,0.9,0.6,1.5c-0.7-0.1-1.3-0.1-1.8,0c-0.1-0.2-0.1-0.3-0.2-0.4
			C256.8,185.6,257.3,185.3,257.7,184.9z M257.3,184.5c-0.3,0.4-0.8,0.7-1.3,0.9c-0.1-0.1-0.1-0.2-0.2-0.3c-0.3-0.5-0.6-0.9-0.8-1.2
			c0.2,0,0.4-0.1,0.6-0.1C256.2,183.9,256.8,184.1,257.3,184.5z M254.4,184.2c0.2,0.2,0.6,0.7,1,1.4c-0.9,0.3-1.9,0.3-2.4,0.3
			C253.2,185.1,253.7,184.5,254.4,184.2z M253,186.5C253,186.5,253,186.5,253,186.5c0.1-0.1,0.2-0.1,0.2-0.1c0.4,0,0.9,0,1.6-0.1
			c0.3-0.1,0.6-0.1,0.9-0.2c0.1,0.1,0.1,0.3,0.2,0.4c-0.5,0.2-1,0.4-1.3,0.7c-0.5,0.4-0.8,0.8-1,1.1
			C253.2,187.8,253,187.2,253,186.5z M254,188.7c0.2-0.3,0.4-0.7,0.9-1c0.4-0.3,0.7-0.5,1.1-0.6c0.2,0.6,0.4,1.3,0.5,2
			c-0.3,0.1-0.6,0.2-1,0.2C255,189.2,254.5,189,254,188.7z M257.1,188.7c-0.1-0.7-0.3-1.3-0.5-1.8c0.5-0.1,1-0.1,1.6,0.1
			C258.1,187.7,257.7,188.3,257.1,188.7z"/>
	</g>
	<g id="XMLID_121_">
		<circle id="XMLID_377_" class="st14" cx="85.3" cy="110.7" r="9.1"/>
		<path id="XMLID_122_" class="st9" d="M84.7,112.1C84.7,112.1,84.7,112.1,84.7,112.1c-0.4,1.4-0.4,1.7-0.7,2.3
			c-0.2,0.3-0.4,0.6-0.6,0.8c0,0,0,0.1-0.1,0.1c-0.1,0-0.1-0.1-0.1-0.1c-0.1-0.4-0.1-0.8-0.1-1.2c0-0.5,0.1-0.7,0.8-3.6
			c0,0,0-0.1,0-0.1c-0.2-0.4-0.2-0.9-0.1-1.3c0.3-1,1.4-1.1,1.6-0.2c0.1,0.5-0.2,1.1-0.4,2.1c-0.2,0.8,0.7,1.4,1.5,0.8
			c0.7-0.5,1-1.8,1-2.7c-0.1-1.8-2.1-2.2-3.4-1.6c-1.4,0.7-1.8,2.5-1.1,3.3c0.1,0.1,0.1,0.2,0.1,0.3c0,0.2-0.1,0.3-0.1,0.5
			c0,0.1-0.1,0.2-0.3,0.1c-0.2-0.1-0.4-0.3-0.6-0.5c-0.6-0.7-0.7-2,0-3.2c0.8-1.3,2.3-1.8,3.7-1.6c1.6,0.2,2.7,1.3,2.9,2.6
			c0.1,0.6,0,2-0.8,3c-0.9,1.2-2.5,1.2-3.2,0.5C84.8,112.2,84.7,112.2,84.7,112.1z"/>
	</g>
	<g id="XMLID_126_">
		<circle id="XMLID_371_" class="st14" cx="244.9" cy="126.2" r="24.4"/>
		<path id="XMLID_127_" class="st9" d="M243.4,130c0,0.1,0,0.1-0.1,0.2c-0.9,3.5-1,4.3-1.9,6c-0.4,0.8-0.9,1.5-1.5,2.2
			c-0.1,0.1-0.1,0.2-0.2,0.2c-0.1,0-0.1-0.2-0.2-0.3c-0.1-1.1-0.2-2.2-0.2-3.2c0-1.4,0.2-1.9,2-9.6c0-0.1,0-0.2,0-0.3
			c-0.4-1.2-0.5-2.4-0.1-3.6c0.8-2.6,3.8-2.8,4.3-0.7c0.3,1.3-0.5,3.1-1.2,5.7c-0.5,2.1,2,3.6,4.1,2.1c2-1.4,2.7-4.9,2.6-7.3
			c-0.3-4.8-5.6-5.9-9-4.3c-3.9,1.8-4.7,6.6-3,8.8c0.2,0.3,0.4,0.4,0.3,0.7c-0.1,0.4-0.2,0.9-0.3,1.3c-0.1,0.3-0.4,0.4-0.7,0.3
			c-0.6-0.3-1.2-0.7-1.6-1.2c-1.5-1.8-1.9-5.5,0.1-8.5c2.2-3.4,6.2-4.8,9.9-4.4c4.4,0.5,7.2,3.5,7.7,6.9c0.2,1.6,0.1,5.4-2.1,8.1
			c-2.5,3.1-6.6,3.3-8.5,1.4C243.6,130.3,243.5,130.1,243.4,130z"/>
	</g>
	<g id="XMLID_131_">
		<circle id="XMLID_365_" class="st14" cx="19.7" cy="106.4" r="18.8"/>
		<path id="XMLID_132_" class="st9" d="M18.5,109.2c0,0.1,0,0.1,0,0.1c-0.7,2.7-0.8,3.3-1.5,4.6c-0.3,0.6-0.7,1.2-1.1,1.7
			c0,0.1-0.1,0.1-0.2,0.1c-0.1,0-0.1-0.1-0.1-0.2c-0.1-0.8-0.2-1.7-0.2-2.5c0-1.1,0.2-1.5,1.6-7.4c0-0.1,0-0.2,0-0.2
			c-0.3-0.9-0.4-1.8-0.1-2.8c0.6-2,2.9-2.2,3.3-0.5c0.2,1-0.4,2.4-0.9,4.4c-0.4,1.6,1.5,2.8,3.2,1.6c1.5-1.1,2.1-3.7,2-5.6
			c-0.2-3.7-4.3-4.5-6.9-3.3c-3,1.4-3.7,5.1-2.3,6.8c0.2,0.2,0.3,0.3,0.2,0.6c-0.1,0.3-0.2,0.7-0.3,1c-0.1,0.3-0.3,0.3-0.5,0.2
			c-0.5-0.2-0.9-0.5-1.2-0.9c-1.1-1.4-1.5-4.2,0-6.6c1.7-2.6,4.8-3.7,7.6-3.4c3.4,0.4,5.5,2.7,5.9,5.3c0.2,1.2,0.1,4.2-1.6,6.2
			c-1.9,2.4-5.1,2.6-6.5,1.1C18.7,109.5,18.6,109.4,18.5,109.2z"/>
	</g>
	<g id="XMLID_136_">
		<circle id="XMLID_359_" class="st15" cx="47.4" cy="109.8" r="15.8"/>
		<g id="XMLID_137_">
			<path id="XMLID_141_" class="st9" d="M44.6,116.7c-0.5,0-1-0.1-1.5-0.4c-1.7-0.7-2.6-2.3-2.6-3.7c0-0.8,0-4.8,0-5.4
				c0-2,1.4-3.7,3.2-4.2c0.8-0.2,4.1-0.3,4.9,0c1.3,0.4,2.6,1.5,3,2.9c0.3,1.1,0.1,2,0.8,2.1c0.7,0.1,1,0.1,1.4,0.1
				c0.4,0,0.6,0.4,0.6,0.7c0,3.9,0,4.4-0.4,5.2c-0.7,1.6-2.2,2.5-3.6,2.6c-0.2,0-0.4,0-0.6,0C49.6,116.7,45.1,116.7,44.6,116.7z
				 M49.7,113.1c1.2,0,1.2-1.6,0-1.6c-1.6,0-3.2,0-4.8,0c-1.3,0-1.2,1.6-0.1,1.6C45.5,113.1,49.7,113.1,49.7,113.1z M47.4,108.1
				c0.9-0.1,1-1.6-0.2-1.6c-0.2,0-2.1,0-2.4,0c-1.1,0.1-1,1.6,0.1,1.6C44.9,108.1,47.2,108.1,47.4,108.1z"/>
		</g>
	</g>
	<g id="XMLID_145_">
		<circle id="XMLID_349_" class="st15" cx="279.9" cy="176.1" r="19.2"/>
		<g id="XMLID_146_">
			<path id="XMLID_150_" class="st9" d="M276.6,184.5c-0.6,0-1.3-0.2-1.8-0.4c-2-0.9-3.1-2.8-3.2-4.5c0-1,0-5.8,0-6.6
				c0-2.4,1.7-4.4,3.9-5.1c0.9-0.3,5-0.3,6,0c1.5,0.5,3.2,1.8,3.6,3.5c0.3,1.3,0.1,2.5,1,2.6c0.9,0.1,1.2,0.1,1.6,0.1
				c0.5,0.1,0.7,0.5,0.7,0.9c0,4.8,0,5.3-0.5,6.4c-0.9,1.9-2.7,3-4.4,3.1c-0.3,0-0.5,0-0.8,0C282.6,184.5,277.2,184.5,276.6,184.5z
				 M282.8,180.2c1.5,0,1.4-2,0-2c-1.9,0-3.9,0-5.8,0c-1.5,0-1.4,2-0.1,2C277.7,180.2,282.8,180.2,282.8,180.2z M280,174.1
				c1.1-0.1,1.3-2-0.3-2c-0.3,0-2.6,0-2.9,0c-1.3,0.1-1.2,2,0.1,2C277,174.1,279.8,174.1,280,174.1z"/>
		</g>
	</g>
	<g id="XMLID_154_">
		<circle id="XMLID_339_" class="st15" cx="16.8" cy="158.9" r="8.8"/>
		<g id="XMLID_155_">
			<path id="XMLID_159_" class="st9" d="M15.2,162.8c-0.3,0-0.6-0.1-0.8-0.2c-0.9-0.4-1.4-1.3-1.5-2.1c0-0.4,0-2.6,0-3
				c0-1.1,0.8-2,1.8-2.3c0.4-0.1,2.3-0.1,2.7,0c0.7,0.2,1.5,0.8,1.6,1.6c0.2,0.6,0.1,1.1,0.4,1.2c0.4,0.1,0.5,0,0.8,0.1
				c0.2,0,0.3,0.2,0.3,0.4c0,2.2,0,2.4-0.2,2.9c-0.4,0.9-1.2,1.4-2,1.4c-0.1,0-0.2,0-0.3,0C18,162.8,15.5,162.8,15.2,162.8z
				 M18.1,160.7c0.7,0,0.6-0.9,0-0.9c-0.9,0-1.8,0-2.7,0c-0.7,0-0.7,0.9-0.1,0.9C15.7,160.7,18.1,160.7,18.1,160.7z M16.8,158
				c0.5-0.1,0.6-0.9-0.1-0.9c-0.1,0-1.2,0-1.3,0c-0.6,0.1-0.5,0.9,0,0.9C15.4,158,16.7,158,16.8,158z"/>
		</g>
	</g>
	<g id="XMLID_163_">
		<circle id="XMLID_329_" class="st16" cx="269.9" cy="74.7" r="11.5"/>
		<g id="XMLID_164_">
			<path id="XMLID_168_" class="st9" d="M264.4,80.2c0.1-0.2,0.1-0.4,0.2-0.6c0.2-0.7,0.4-1.3,0.5-2c0-0.1,0-0.2,0-0.3
				c-1.7-3.2,0.1-7,3.5-7.8c3.2-0.7,6,1.4,6.6,4.3c0.5,3-1.4,5.8-4.4,6.3c-1.2,0.2-2.3,0-3.4-0.5c-0.1,0-0.2-0.1-0.3,0
				C265.7,79.8,264.7,80.1,264.4,80.2z M265.7,78.9c0.5-0.1,1-0.3,1.5-0.4c0.1,0,0.2,0,0.4,0.1c0.9,0.5,1.9,0.7,3,0.6
				c2.5-0.4,4.1-2.7,3.8-5.1c-0.4-2.5-2.8-4.2-5.3-3.8c-3,0.6-4.7,4-3.1,6.6c0.2,0.3,0.2,0.5,0.1,0.9
				C265.9,78.1,265.8,78.5,265.7,78.9z"/>
			<path id="XMLID_171_" class="st9" d="M271.3,77.3c-1.1,0-2.7-0.9-3.9-2.9c-0.4-0.7-0.4-1.5,0.3-2.1c0.2-0.2,0.5-0.1,0.7-0.1
				c0.1,0,0.1,0.1,0.1,0.2c0.2,0.3,0.3,0.7,0.4,1.1c0.1,0.2-0.1,0.4-0.3,0.7c-0.1,0.1-0.1,0.2,0,0.3c0.4,0.8,1.1,1.3,1.9,1.6
				c0.1,0,0.2,0,0.3-0.1c0.4-0.5,0.5-0.7,0.7-0.6c1.1,0.5,1.2,0.5,1.2,0.7C272.7,77,271.8,77.3,271.3,77.3z"/>
		</g>
	</g>
	<g id="XMLID_172_">
		<circle id="XMLID_319_" class="st16" cx="185.3" cy="128.9" r="10.4"/>
		<g id="XMLID_173_">
			<path id="XMLID_177_" class="st9" d="M180.4,133.9c0.1-0.2,0.1-0.4,0.2-0.6c0.2-0.6,0.3-1.2,0.5-1.8c0-0.1,0-0.2,0-0.3
				c-1.5-2.9,0-6.3,3.2-7.1c2.9-0.7,5.4,1.3,5.9,3.9c0.5,2.7-1.3,5.3-4,5.7c-1.1,0.2-2.1,0-3.1-0.4c-0.1,0-0.2-0.1-0.3,0
				C181.5,133.6,180.7,133.8,180.4,133.9z M181.5,132.8c0.5-0.1,0.9-0.2,1.4-0.4c0.1,0,0.2,0,0.3,0c0.8,0.5,1.7,0.7,2.7,0.5
				c2.2-0.4,3.7-2.4,3.4-4.6c-0.4-2.3-2.5-3.8-4.8-3.4c-2.7,0.5-4.2,3.6-2.8,6c0.2,0.3,0.2,0.5,0.1,0.8
				C181.7,132,181.6,132.4,181.5,132.8z"/>
			<path id="XMLID_180_" class="st9" d="M186.6,131.3c-1,0-2.5-0.8-3.5-2.6c-0.4-0.6-0.3-1.4,0.2-1.9c0.2-0.2,0.4-0.1,0.6-0.1
				c0.1,0,0.1,0.1,0.1,0.2c0.1,0.3,0.3,0.6,0.4,1c0.1,0.2-0.1,0.3-0.3,0.6c-0.1,0.1-0.1,0.2,0,0.3c0.4,0.7,1,1.2,1.7,1.5
				c0.1,0,0.2,0,0.3-0.1c0.4-0.5,0.4-0.6,0.6-0.5c1,0.5,1.1,0.5,1.1,0.6C187.8,131,187,131.3,186.6,131.3z"/>
		</g>
	</g>
	<g id="XMLID_181_">
		<circle id="XMLID_309_" class="st16" cx="277.3" cy="18.8" r="15.3"/>
		<g id="XMLID_182_">
			<path id="XMLID_186_" class="st9" d="M270.1,26.1c0.1-0.3,0.2-0.6,0.2-0.9c0.2-0.9,0.5-1.7,0.7-2.6c0-0.1,0-0.3,0-0.4
				c-2.2-4.2,0.1-9.3,4.7-10.4c4.2-1,8,1.9,8.7,5.7c0.7,4-1.9,7.7-5.8,8.4c-1.6,0.3-3.1,0-4.5-0.7c-0.1-0.1-0.3-0.1-0.4,0
				C271.8,25.6,270.5,26,270.1,26.1z M271.8,24.4c0.7-0.2,1.4-0.4,2-0.5c0.2,0,0.3,0,0.5,0.1c1.2,0.7,2.6,1,4,0.8
				c3.3-0.5,5.5-3.6,5-6.8c-0.5-3.4-3.7-5.6-7-5c-4,0.7-6.2,5.2-4.2,8.8c0.2,0.4,0.3,0.7,0.1,1.1C272,23.3,271.9,23.8,271.8,24.4z"
				/>
			<path id="XMLID_189_" class="st9" d="M279.2,22.2c-1.4-0.1-3.6-1.2-5.2-3.8c-0.5-0.9-0.5-2,0.3-2.8c0.3-0.3,0.6-0.2,0.9-0.1
				c0.1,0,0.2,0.1,0.2,0.2c0.2,0.5,0.4,0.9,0.6,1.4c0.1,0.3-0.1,0.5-0.4,0.9c-0.1,0.1-0.1,0.3,0,0.4c0.6,1,1.4,1.7,2.5,2.1
				c0.2,0.1,0.3,0,0.4-0.1c0.6-0.7,0.6-0.9,0.9-0.8c1.5,0.7,1.6,0.7,1.6,0.9C281,21.8,279.9,22.3,279.2,22.2z"/>
		</g>
	</g>
	<g id="XMLID_190_">
		<circle id="XMLID_286_" class="st17" cx="270.9" cy="96" r="11.3"/>
		<path id="XMLID_191_" class="st9" d="M266.2,99.9c-0.4-0.1-0.7-0.4-0.9-0.9c-0.4-1.1-0.5-5.6,0.2-6.5c0.3-0.3,0.6-0.5,1-0.5
			c2-0.2,8.3-0.2,9,0.1c0.4,0.2,0.7,0.4,0.9,0.9c0.4,1.1,0.4,5.2-0.1,6.2c-0.1,0.3-0.4,0.5-0.6,0.6
			C275,100.3,267.2,100.2,266.2,99.9z M269.4,97.8c1.2-0.6,2.4-1.3,3.7-1.9c-1.2-0.6-2.4-1.3-3.7-1.9
			C269.4,95.3,269.4,96.5,269.4,97.8z"/>
	</g>
	<g id="XMLID_197_">
		<circle id="XMLID_278_" class="st17" cx="273.6" cy="140.3" r="8.9"/>
		<path id="XMLID_198_" class="st9" d="M269.9,143.3c-0.3-0.1-0.6-0.3-0.7-0.7c-0.3-0.8-0.4-4.4,0.2-5.1c0.2-0.2,0.5-0.4,0.8-0.4
			c1.6-0.2,6.5-0.1,7.1,0.1c0.3,0.1,0.6,0.3,0.7,0.7c0.3,0.9,0.3,4.1,0,4.9c-0.1,0.2-0.3,0.4-0.5,0.5
			C276.8,143.6,270.7,143.6,269.9,143.3z M272.4,141.6c1-0.5,1.9-1,2.9-1.5c-1-0.5-1.9-1-2.9-1.5
			C272.4,139.7,272.4,140.6,272.4,141.6z"/>
	</g>
	<g id="XMLID_204_">
		<circle id="XMLID_270_" class="st17" cx="237.2" cy="78.8" r="8.2"/>
		<path id="XMLID_205_" class="st9" d="M233.8,81.6c-0.3-0.1-0.5-0.3-0.7-0.6c-0.3-0.8-0.4-4,0.2-4.7c0.2-0.2,0.4-0.3,0.7-0.4
			c1.5-0.2,6-0.1,6.5,0.1c0.3,0.1,0.5,0.3,0.6,0.6c0.3,0.8,0.3,3.7,0,4.5c-0.1,0.2-0.3,0.4-0.5,0.5
			C240.2,81.8,234.5,81.8,233.8,81.6z M236.1,80.1c0.9-0.5,1.8-0.9,2.6-1.4c-0.9-0.5-1.8-0.9-2.6-1.4
			C236.1,78.2,236.1,79.2,236.1,80.1z"/>
	</g>
	<g id="XMLID_211_">
		<circle id="XMLID_262_" class="st18" cx="247.6" cy="59.7" r="14.1"/>
		<g id="XMLID_212_">
			<circle id="XMLID_216_" class="st7" cx="243.1" cy="64" r="1.7"/>
			<path id="XMLID_217_" class="st7" d="M241.4,59.8c3.2,0,5.8,2.6,5.8,5.9h2.4c0-4.6-3.7-8.3-8.2-8.3V59.8z"/>
			<path id="XMLID_218_" class="st7" d="M241.4,55.6c5.6,0,10.1,4.6,10.1,10.1h2.4c0-6.9-5.6-12.6-12.5-12.6V55.6z"/>
		</g>
	</g>
	<g id="XMLID_219_">
		<circle id="XMLID_253_" class="st18" cx="31.6" cy="139.2" r="6.7"/>
		<g id="XMLID_220_">
			<circle id="XMLID_224_" class="st7" cx="29.4" cy="141.3" r="0.8"/>
			<path id="XMLID_225_" class="st7" d="M28.6,139.3c1.5,0,2.8,1.3,2.8,2.8h1.2c0-2.2-1.8-4-4-4V139.3z"/>
			<path id="XMLID_226_" class="st7" d="M28.6,137.2c2.7,0,4.8,2.2,4.8,4.9h1.2c0-3.3-2.7-6-6-6V137.2z"/>
		</g>
	</g>
	<g id="XMLID_227_">
		<circle id="XMLID_244_" class="st18" cx="68.9" cy="127.6" r="25.3"/>
		<g id="XMLID_228_">
			<circle id="XMLID_232_" class="st7" cx="60.8" cy="135.2" r="3.1"/>
			<path id="XMLID_233_" class="st7" d="M57.7,127.8c5.8,0,10.5,4.7,10.5,10.6h4.3c0-8.2-6.6-14.9-14.8-14.9V127.8z"/>
			<path id="XMLID_234_" class="st7" d="M57.7,120.1c10,0,18.1,8.2,18.1,18.2h4.3c0-12.4-10.1-22.5-22.4-22.5V120.1z"/>
		</g>
	</g>
</g>
</svg>
