<?xml version="1.0" encoding="utf-8"?>
<!-- Generator: Adobe Illustrator 19.2.1, SVG Export Plug-In . SVG Version: 6.00 Build 0)  -->
<svg version="1.1" id="Calque_1" xmlns="http://www.w3.org/2000/svg" xmlns:xlink="http://www.w3.org/1999/xlink" x="0px" y="0px"
	 viewBox="0 0 119.3 106.7" style="enable-background:new 0 0 119.3 106.7;" xml:space="preserve">
<path d="M115.8,55.1c0,1.7-1.4,3.1-3.1,3.1H13.2l41.4,40.1c0.6,0.6,0.9,1.4,0.9,2.2s-0.3,1.6-0.9,2.2c-1.2,1.2-3.2,1.2-4.4,0
	L4.1,56.6c-0.6-0.6-0.9-1.4-0.9-2.2s0.3-1.6,0.9-2.2L50.2,6.1c1.2-1.2,3.2-1.2,4.4,0c0.6,0.6,0.9,1.4,0.9,2.2s-0.3,1.6-0.9,2.2
	L13.2,51.9h99.5C114.4,52,115.8,53.4,115.8,55.1z"/>
</svg>
