<?xml version="1.0" encoding="utf-8"?>
<!-- Generator: Adobe Illustrator 24.3.0, SVG Export Plug-In . SVG Version: 6.00 Build 0)  -->
<svg version="1.1" id="Calque_1" xmlns="http://www.w3.org/2000/svg" xmlns:xlink="http://www.w3.org/1999/xlink" x="0px" y="0px"
	 viewBox="0 0 20 18" style="enable-background:new 0 0 20 18;" xml:space="preserve">
<style type="text/css">
	.st0{fill-rule:evenodd;clip-rule:evenodd;}
</style>
<desc>Created with Sketch.</desc>
<g id="Page-1">
	<g id="inscription-club" transform="translate(-1053.000000, -2554.000000)">
		<g id="formulaire-3" transform="translate(183.000000, 2068.000000)">
			<g id="form" transform="translate(108.000000, 235.000000)">
				<g id="Group-2" transform="translate(464.000000, 238.000000)">
					<path id="Fill-1-Copy-3" class="st0" d="M298,21.7c0-0.3,0.2-0.6,0.6-0.6h17.7l-7.3-7.1c-0.1-0.1-0.2-0.2-0.2-0.4
						c0-0.1,0.1-0.3,0.2-0.4c0.2-0.2,0.6-0.2,0.8,0l8.2,8.2c0.1,0.1,0.2,0.2,0.2,0.4c0,0.1-0.1,0.3-0.2,0.4l-8.2,8.2
						c-0.2,0.2-0.6,0.2-0.8,0c-0.1-0.1-0.2-0.2-0.2-0.4c0-0.1,0.1-0.3,0.2-0.4l7.3-7.3h-17.7C298.2,22.2,298,22,298,21.7"/>
				</g>
			</g>
		</g>
	</g>
</g>
</svg>
