<?xml version="1.0" encoding="utf-8"?>
<!-- Generator: Adobe Illustrator 19.2.1, SVG Export Plug-In . SVG Version: 6.00 Build 0)  -->
<svg version="1.1" id="Calque_1" xmlns="http://www.w3.org/2000/svg" xmlns:xlink="http://www.w3.org/1999/xlink" x="0px" y="0px"
	 viewBox="0 0 119.3 106.7" style="enable-background:new 0 0 119.3 106.7;" xml:space="preserve">
<path d="M3.2,53.7c0-1.7,1.4-3.1,3.1-3.1h99.5L64.4,10.5c-0.6-0.6-0.9-1.4-0.9-2.2s0.3-1.6,0.9-2.2c1.2-1.2,3.2-1.2,4.4,0l46.1,46.1
	c0.6,0.6,0.9,1.4,0.9,2.2s-0.3,1.6-0.9,2.2l-46.1,46.1c-1.2,1.2-3.2,1.2-4.4,0c-0.6-0.6-0.9-1.4-0.9-2.2c0-0.8,0.3-1.6,0.9-2.2
	l41.4-41.4H6.3C4.6,56.8,3.2,55.4,3.2,53.7z"/>
</svg>
