<?xml version="1.0" encoding="UTF-8"?>
<svg width="11px" height="17px" viewBox="0 0 11 17" version="1.1" xmlns="http://www.w3.org/2000/svg" xmlns:xlink="http://www.w3.org/1999/xlink">
    <title>Arrow-3</title>
    <g id="Accueil" stroke="none" stroke-width="1" fill="none" fill-rule="evenodd" opacity="0.802212028">
        <g id="HOMEPAGE" transform="translate(-35.000000, -456.000000)" fill="#E94C21" fill-rule="nonzero">
            <g id="Header-image-/-video" transform="translate(0.000000, 141.000000)">
                <g id="Group-10" transform="translate(42.000000, 324.000000) scale(-1, 1) translate(-42.000000, -324.000000) translate(17.000000, 299.000000)">
                    <g id="Arrow-3" transform="translate(18.000000, 16.000000)">
                        <path d="M3.75195312,14.3984514 C3.74931875,15.1401179 4.19389652,15.8101487 4.87792605,16.0954068 C5.56195558,16.380665 6.35035293,16.224817 6.8746629,15.7006979 L12.7118312,9.85198335 C13.0567747,9.50682586 13.2494478,9.03791572 13.2469186,8.54973685 C13.2469186,8.52857535 13.2469186,8.50904165 13.2469186,8.48950795 C13.2647094,7.98350885 13.0714604,7.49289352 12.7134576,7.13517159 L6.87303649,1.30110727 C6.15357816,0.616350894 5.01977748,0.630793219 4.31796412,1.33365372 C3.61615076,2.03651422 3.60243375,3.17130175 4.28705219,3.89095 L8.88977896,8.49764699 L4.28705219,13.104344 C3.94411103,13.4475108 3.75160306,13.9130908 3.75195312,14.3984514 Z" id="Path"></path>
                    </g>
                </g>
            </g>
        </g>
    </g>
</svg>