<?xml version="1.0" encoding="utf-8"?>
<!-- Generator: Adobe Illustrator 19.2.1, SVG Export Plug-In . SVG Version: 6.00 Build 0)  -->
<svg version="1.1" id="Calque_1" xmlns="http://www.w3.org/2000/svg" xmlns:xlink="http://www.w3.org/1999/xlink" x="0px" y="0px"
	 viewBox="0 0 98.4 116.7" style="enable-background:new 0 0 98.4 116.7;" xml:space="preserve">
<path d="M49.9,4.1c1.7,0,3.1,1.4,3.1,3.1v99.5l40.1-41.4c0.6-0.6,1.4-0.9,2.2-0.9s1.6,0.3,2.2,0.9c1.2,1.2,1.2,3.2,0,4.4l-46.1,46.1
	c-0.6,0.6-1.4,0.9-2.2,0.9s-1.6-0.3-2.2-0.9L0.9,69.7c-1.2-1.2-1.2-3.2,0-4.4c0.6-0.6,1.4-0.9,2.2-0.9c0.8,0,1.6,0.3,2.2,0.9
	l41.4,41.4V7.2C46.8,5.5,48.2,4.1,49.9,4.1z"/>
</svg>
