<?xml version="1.0" encoding="UTF-8" standalone="no"?>
<svg width="20px" height="18px" viewBox="0 0 20 18" version="1.1" xmlns="http://www.w3.org/2000/svg" xmlns:xlink="http://www.w3.org/1999/xlink">
    <!-- Generator: Sketch 39.1 (31720) - http://www.bohemiancoding.com/sketch -->
    <title>Fill 1 Copy 3</title>
    <desc>Created with Sketch.</desc>
    <defs></defs>
    <g id="Page-1" stroke="none" stroke-width="1" fill="none" fill-rule="evenodd">
        <g id="inscription-club" transform="translate(-1053.000000, -2554.000000)" fill="#FFFFFF">
            <g id="formulaire-3" transform="translate(183.000000, 2068.000000)">
                <g id="form" transform="translate(108.000000, 235.000000)">
                    <g id="Group-2" transform="translate(464.000000, 238.000000)">
                        <path d="M307.890802,31.759599 C307.585579,31.759599 307.337175,31.5111948 307.337175,31.2057944 L307.337175,13.5387341 L300.212644,20.8839698 C300.108062,20.9883741 299.968856,21.0460806 299.82095,21.0460806 C299.673044,21.0460806 299.534016,20.9883741 299.429611,20.8839698 C299.213878,20.6678812 299.2137,20.3164932 299.429611,20.1005822 L307.608129,11.9217098 C307.712888,11.8173055 307.851916,11.759599 307.999822,11.759599 C308.147729,11.759599 308.286757,11.8173055 308.391339,11.9217098 L316.570389,20.1004046 C316.786122,20.3163156 316.7863,20.6677037 316.570389,20.8834371 C316.465807,20.9878415 316.326601,21.0453704 316.178517,21.0453704 C316.030789,21.0453704 315.89176,20.9878415 315.787001,20.8832596 L308.444429,13.5408648 L308.444429,31.2057944 C308.444429,31.5111948 308.196024,31.759599 307.890802,31.759599" id="Fill-1-Copy-3" transform="translate(308.000000, 21.759599) rotate(-270.000000) translate(-308.000000, -21.759599) "></path>
                    </g>
                </g>
            </g>
        </g>
    </g>
</svg>