<?xml version="1.0" encoding="utf-8"?>
<!-- Generator: Adobe Illustrator 26.2.1, SVG Export Plug-In . SVG Version: 6.00 Build 0)  -->
<svg version="1.1" id="Calque_1" xmlns="http://www.w3.org/2000/svg" xmlns:xlink="http://www.w3.org/1999/xlink" x="0px" y="0px"
	 viewBox="0 0 11 17" style="enable-background:new 0 0 11 17;" xml:space="preserve">
<style type="text/css">
	.st0{opacity:0.8022;}
	.st1{fill:#FFFFFF;}
</style>
<g id="Accueil" class="st0">
	<g id="HOMEPAGE" transform="translate(-35.000000, -456.000000)">
		<g id="Header-image-_x2F_-video" transform="translate(0.000000, 141.000000)">
			
				<g id="Group-10" transform="translate(42.000000, 324.000000) scale(-1, 1) translate(-42.000000, -324.000000) translate(17.000000, 299.000000)">
				<g id="Arrow-3" transform="translate(18.000000, 16.000000)">
					<path id="Path" class="st1" d="M3.8,14.4c0,0.7,0.4,1.4,1.1,1.7c0.7,0.3,1.5,0.1,2-0.4l5.8-5.8c0.3-0.3,0.5-0.8,0.5-1.3
						c0,0,0,0,0-0.1c0-0.5-0.2-1-0.5-1.4L6.9,1.3C6.2,0.6,5,0.6,4.3,1.3s-0.7,1.8,0,2.6l4.6,4.6l-4.6,4.6
						C3.9,13.4,3.8,13.9,3.8,14.4z"/>
				</g>
			</g>
		</g>
	</g>
</g>
</svg>
