<?xml version="1.0" encoding="UTF-8"?>
<svg width="36px" height="36px" viewBox="0 0 36 36" version="1.1" xmlns="http://www.w3.org/2000/svg" xmlns:xlink="http://www.w3.org/1999/xlink">
    <!-- Generator: Sketch 59.1 (86144) - https://sketch.com -->
    <title>Group</title>
    <desc>Created with Sketch.</desc>
    <g id="Welcome" stroke="none" stroke-width="1" fill="none" fill-rule="evenodd">
        <g id="CDO-landing-page" transform="translate(-240.000000, -934.000000)">
            <g id="Group" transform="translate(258.000000, 952.000000) rotate(-180.000000) translate(-258.000000, -952.000000) translate(240.000000, 934.000000)">
                <circle id="Oval" fill="#0D0A02" cx="18" cy="18" r="18"></circle>
                <path d="M13,25.9764335 C12.9962444,27.0900149 13.8558524,27.9960432 14.9197864,28 C15.4329136,28.001958 15.9254883,27.7895656 16.2884111,27.4103062 L22.4353189,20.9704254 C22.7984129,20.5904491 23.0013688,20.0740757 22.9987997,19.5365526 L22.9987997,19.470236 C23.0176395,18.9129972 22.8139986,18.3729649 22.4370316,17.9790084 L16.2866984,11.5552586 C15.5156374,10.7877782 14.295847,10.8198611 13.5626368,11.6269522 C12.854946,12.4057244 12.8552885,13.6284593 13.5634932,14.406873 L18.4104559,19.4791977 L13.5634932,24.5515225 C13.2022831,24.929348 12.9996698,25.4421367 13,25.9764335" id="Fill-1" fill="#FFFFFF" transform="translate(18.000000, 19.500000) rotate(90.000000) translate(-18.000000, -19.500000) "></path>
            </g>
        </g>
    </g>
</svg>