<?xml version="1.0" encoding="utf-8"?>
<!-- Generator: Adobe Illustrator 21.0.0, SVG Export Plug-In . SVG Version: 6.00 Build 0)  -->
<svg version="1.1" id="Calque_1" xmlns="http://www.w3.org/2000/svg" xmlns:xlink="http://www.w3.org/1999/xlink" x="0px" y="0px"
	 viewBox="0 0 30 30" style="enable-background:new 0 0 30 30;" xml:space="preserve">
<style type="text/css">
	.st0{fill:#FFFFFF;}
</style>
<path class="st0" d="M24.3,30H1.1C0.5,30,0,29.5,0,28.9V5.7c0-0.6,0.5-1.1,1.1-1.1h11.6c0.6,0,1.1,0.5,1.1,1.1s-0.5,1.1-1.1,1.1H2.1
	v21.1h21.1V17.3c0-0.6,0.5-1.1,1.1-1.1c0.6,0,1.1,0.5,1.1,1.1v11.6C25.4,29.5,24.9,30,24.3,30z"/>
<path class="st0" d="M29.7,3.7l-3.3-3.3c-0.4-0.4-1.1-0.4-1.5,0l-3,3L10.1,15c-0.1,0.1-0.2,0.2-0.2,0.3l-2.5,5.8
	c-0.2,0.4-0.1,0.9,0.2,1.2c0.2,0.2,0.5,0.3,0.8,0.3c0.1,0,0.3,0,0.4-0.1l5.8-2.5c0.1-0.1,0.2-0.1,0.3-0.2L26.7,8.2l3-3
	C30.1,4.8,30.1,4.1,29.7,3.7z M10.4,19.6l1-2.3l1.3,1.3L10.4,19.6z M14,17.9l-1.8-1.8L22.7,5.5l1.8,1.8L14,17.9z M25.5,6.3l-1.8-1.8
	l1.9-1.9l1.8,1.8L25.5,6.3z"/>
</svg>
