<?xml version="1.0" encoding="utf-8"?>
<!-- Generator: Adobe Illustrator 26.2.1, SVG Export Plug-In . SVG Version: 6.00 Build 0)  -->
<svg version="1.1" id="flag-icons-gb" xmlns="http://www.w3.org/2000/svg" xmlns:xlink="http://www.w3.org/1999/xlink" x="0px"
	 y="0px" viewBox="0 0 24 18" style="enable-background:new 0 0 24 18;" xml:space="preserve">
<style type="text/css">
	.st0{fill:#012169;}
	.st1{fill:#FFFFFF;}
	.st2{fill:#C8102E;}
</style>
<path class="st0" d="M0,0h24v18H0V0z"/>
<path class="st1" d="M2.8,0L12,6.8L21.1,0H24v2.3L15,9l9,6.7V18h-3l-9-6.7L3,18H0v-2.2l9-6.7L0,2.4V0H2.8z"/>
<path class="st2" d="M15.9,10.5l8.1,6V18l-10.2-7.5H15.9z M9,11.3l0.2,1.3L2,18H0L9,11.3z M24,0v0.1l-9.3,7l0.1-1.7L22.1,0H24z M0,0
	l9,6.6H6.7L0,1.6V0z"/>
<path class="st1" d="M9,0v18h6V0H9z M0,6v6h24V6H0z"/>
<path class="st2" d="M0,7.2v3.6h24V7.2H0z M10.2,0v18h3.6V0H10.2z"/>
</svg>
