<?xml version="1.0" encoding="utf-8"?>
<!-- Generator: Adobe Illustrator 25.1.0, SVG Export Plug-In . SVG Version: 6.00 Build 0)  -->
<svg version="1.1" id="Calque_1" xmlns="http://www.w3.org/2000/svg" xmlns:xlink="http://www.w3.org/1999/xlink" x="0px" y="0px"
	 viewBox="0 0 30 30" style="enable-background:new 0 0 30 30;" xml:space="preserve">
<style type="text/css">
	.st0{fill-rule:evenodd;clip-rule:evenodd;fill:#FFFFFF;}
</style>
<path class="st0" d="M25.3,15.1c0-5.7-4.6-10.4-10.4-10.4S4.7,9.4,4.7,15.1c0,5,3.7,9.4,8.7,10.1v-7.1h-2.6v-2.9h2.6v-2.3
	c-0.2-2,1.2-3.7,3.2-3.9c0.2,0,0.5,0,0.7,0c0.8,0,1.5,0.1,2.3,0.2v2.6h-1.3c-0.8-0.1-1.5,0.5-1.6,1.3c0,0.1,0,0.2,0,0.3v2h2.9
	L19,18.1h-2.4v7.1C21.7,24.4,25.3,20.2,25.3,15.1"/>
</svg>
