<?xml version="1.0" encoding="utf-8"?>
<!-- Generator: Adobe Illustrator 21.0.0, SVG Export Plug-In . SVG Version: 6.00 Build 0)  -->
<svg version="1.1" id="Capa_1" xmlns="http://www.w3.org/2000/svg" xmlns:xlink="http://www.w3.org/1999/xlink" x="0px" y="0px"
	 viewBox="0 0 96 96" style="enable-background:new 0 0 96 96;" xml:space="preserve">
<g>
	<path d="M78.4,14.8H67.7c-11.8,0-19.5,7.9-19.5,20.1v9.2H37.7c-0.9,0-1.7,0.8-1.7,1.7v13.4c0,0.9,0.8,1.7,1.7,1.7h10.6v33.8
		c0,0.9,0.8,1.7,1.7,1.7h13.9c0.9,0,1.7-0.8,1.7-1.7V60.8H78c0.9,0,1.7-0.8,1.7-1.7V45.7c0-0.4-0.2-0.8-0.5-1.2S78.4,44,78,44H65.4
		v-7.8c0-3.7,0.9-5.7,5.8-5.7h7.1c0.9,0,1.7-0.8,1.7-1.7V16.5C79.9,15.6,79.2,14.8,78.4,14.8z"/>
</g>
</svg>
