<?xml version="1.0" encoding="utf-8"?>
<!-- Generator: Adobe Illustrator 21.0.0, SVG Export Plug-In . SVG Version: 6.00 Build 0)  -->
<svg version="1.1" id="Capa_1" xmlns="http://www.w3.org/2000/svg" xmlns:xlink="http://www.w3.org/1999/xlink" x="0px" y="0px"
	 viewBox="0 0 25 25" style="enable-background:new 0 0 25 25;" xml:space="preserve">
<style type="text/css">
	.st0{fill:#FFFFFF;}
</style>
<g>
	<g>
		<path class="st0" d="M20.4,3.8h-2.8c-3.1,0-5.1,2.1-5.1,5.2v2.4H9.8c-0.2,0-0.4,0.2-0.4,0.4v3.5c0,0.2,0.2,0.4,0.4,0.4h2.8v8.8
			c0,0.2,0.2,0.4,0.4,0.4h3.6c0.2,0,0.4-0.2,0.4-0.4v-8.8h3.2c0.2,0,0.4-0.2,0.4-0.4v-3.5c0-0.1-0.1-0.2-0.1-0.3
			c-0.1-0.1-0.2-0.1-0.3-0.1H17v-2c0-1,0.2-1.5,1.5-1.5h1.8c0.2,0,0.4-0.2,0.4-0.4V4.2C20.8,4,20.6,3.8,20.4,3.8z"/>
	</g>
</g>
</svg>
