<?xml version="1.0" encoding="utf-8"?>
<!-- Generator: Adobe Illustrator 19.2.1, SVG Export Plug-In . SVG Version: 6.00 Build 0)  -->
<svg version="1.1" id="Capa_1" xmlns="http://www.w3.org/2000/svg" xmlns:xlink="http://www.w3.org/1999/xlink" x="0px" y="0px"
	 viewBox="0 0 96.1 96.1" style="enable-background:new 0 0 96.1 96.1;" xml:space="preserve">
<style type="text/css">
	.st0{fill:#FFFFFF;}
</style>
<g>
	<path class="st0" d="M72.1,0H59.6c-14,0-23.1,9.3-23.1,23.7v10.9H24c-1.1,0-2,0.9-2,2v15.8c0,1.1,0.9,2,2,2h12.5v39.9
		c0,1.1,0.9,2,2,2h16.4c1.1,0,2-0.9,2-2v-40h14.7c1.1,0,2-0.9,2-2V36.5c0-0.5-0.2-1-0.6-1.4s-0.9-0.6-1.4-0.6H56.8v-9.2
		c0-4.4,1.1-6.7,6.8-6.7H72c1.1,0,2-0.9,2-2V2C74,0.9,73.2,0,72.1,0z"/>
</g>
</svg>
