<?xml version="1.0" encoding="utf-8"?>
<!-- Generator: Adobe Illustrator 25.1.0, SVG Export Plug-In . SVG Version: 6.00 Build 0)  -->
<svg version="1.1" id="Capa_1" xmlns="http://www.w3.org/2000/svg" xmlns:xlink="http://www.w3.org/1999/xlink" x="0px" y="0px"
	 viewBox="0 0 25.2 25" style="enable-background:new 0 0 25.2 25;" xml:space="preserve">
<g>
	<path style="fill-rule:evenodd;clip-rule:evenodd;" d="M25.2,12.6C25.2,5.6,19.5,0,12.6,0S0,5.6,0,12.6c0,6.2,4.4,11.3,10.3,12.4
		c0,0,0-0.1,0-0.1v-8.5H7.6c-0.2,0-0.4-0.2-0.4-0.4v-3.4c0-0.2,0.2-0.4,0.4-0.4h2.6V9.9c0-3,1.9-5,4.9-5h2.7c0.2,0,0.4,0.2,0.3,0.4
		v3.2c0,0.2-0.2,0.4-0.4,0.4H16c-1.3,0-1.4,0.5-1.4,1.4v1.9h3.1c0.1,0,0.2,0,0.3,0.1c0,0.1,0.1,0.2,0.1,0.3V16
		c0,0.2-0.2,0.4-0.4,0.4h-3.1v8.5c0,0.1,0,0.1,0,0.1C20.5,24.1,25.2,18.9,25.2,12.6z"/>
</g>
</svg>
