<?xml version="1.0" encoding="UTF-8"?>
<svg width="13px" height="15px" viewBox="0 0 13 15" version="1.1" xmlns="http://www.w3.org/2000/svg" xmlns:xlink="http://www.w3.org/1999/xlink">
    <title>Picto-S-actu Copy</title>
    <g id="Symbols" stroke="none" stroke-width="1" fill="none" fill-rule="evenodd">
        <g id="bloc-evenement-photo" transform="translate(-26.000000, -237.000000)" fill="#2E2632">
            <g id="Group" transform="translate(0.000000, 173.000000)">
                <g transform="translate(26.000000, 62.000000)" id="Picto-S-actu-Copy">
                    <g id="Group" transform="translate(0.000000, 2.000000)">
                        <path d="M6.24960025,-2.30926389e-14 C9.69696039,-2.30926389e-14 12.4992005,2.68128011 12.4992005,5.98752024 C12.4992005,7.88256031 11.4710405,9.89856039 9.45504038,11.9145605 C8.54646904,12.8334704 7.54676112,13.657554 6.47136026,14.3740806 L6.47136026,14.3740806 L6.24960025,14.5152006 L6.02784024,14.3740806 C4.95243938,13.657554 3.95273146,12.8334704 3.04416012,11.9145605 C1.02816004,9.89856039 -1.42108547e-13,7.88256031 -1.42108547e-13,5.98752024 C-1.42108547e-13,2.68128011 2.80224011,-2.30926389e-14 6.24960025,-2.30926389e-14 Z M6.24960025,2.78208011 C5.11440104,2.773913 4.08643158,3.45145436 3.64633887,4.49790663 C3.20624617,5.54435889 3.44099217,6.75294394 4.24081685,7.55856445 C5.04064154,8.36418497 6.24750019,8.60765099 7.2971027,8.17512526 C8.34670521,7.74259954 9.03165098,6.7195488 9.03168036,5.58432022 C9.03705253,4.8429799 8.74631468,4.13015678 8.22399004,3.60404719 C7.70166541,3.07793759 6.99096003,2.78200709 6.24960025,2.78208011 Z" id="Combined-Shape"></path>
                    </g>
                </g>
            </g>
        </g>
    </g>
</svg>