<?xml version="1.0" encoding="utf-8"?>
<!-- Generator: Adobe Illustrator 25.4.1, SVG Export Plug-In . SVG Version: 6.00 Build 0)  -->
<svg version="1.1" id="Calque_1" xmlns="http://www.w3.org/2000/svg" xmlns:xlink="http://www.w3.org/1999/xlink" x="0px" y="0px"
	 viewBox="0 0 15.4 15.4" style="enable-background:new 0 0 15.4 15.4;" xml:space="preserve">
<g id="plugins">
	<g id="emploi-copy-2" transform="translate(-299.000000, -530.000000)">
		<g id="clock-regular" transform="translate(299.000000, 530.000000)">
			<path id="Shape" d="M7.7,0C3.4,0,0,3.4,0,7.7s3.4,7.7,7.7,7.7s7.7-3.4,7.7-7.7S11.9,0,7.7,0z M7.7,13.9c-3.4,0-6.2-2.8-6.2-6.2
				s2.8-6.2,6.2-6.2s6.2,2.8,6.2,6.2S11.1,13.9,7.7,13.9z M9.6,10.6L7,8.7C6.9,8.7,6.8,8.5,6.8,8.4V3.3C6.8,3.1,7,3,7.2,3h1
				c0.2,0,0.4,0.2,0.4,0.4v4.4l2.1,1.5c0.2,0.1,0.2,0.4,0.1,0.5l-0.6,0.8C10,10.7,9.8,10.8,9.6,10.6z"/>
		</g>
	</g>
</g>
</svg>
