<?xml version="1.0" encoding="UTF-8"?>
<svg width="29px" height="19px" viewBox="0 0 29 19" version="1.1" xmlns="http://www.w3.org/2000/svg" xmlns:xlink="http://www.w3.org/1999/xlink">
    <!-- Generator: Sketch 59.1 (86144) - https://sketch.com -->
    <title>Shape</title>
    <desc>Created with Sketch.</desc>
    <g id="Symbols" stroke="none" stroke-width="1" fill="none" fill-rule="evenodd" fill-opacity="0.5">
        <g id="presse" transform="translate(-61.000000, -62.000000)" fill="#FFFFFF" fill-rule="nonzero">
            <g id="Shape">
                <path d="M88.2479049,69.7891603 L87.5563521,69.7891603 L87.5563521,63.0132177 C87.5563521,62.4561451 87.0896651,62 86.5188212,62 C85.948381,62 85.4812902,62.4557508 85.4812902,63.0132177 L85.4812902,63.3215197 L61,68.9675472 L61,71.2411761 L61,71.7588239 L61,74.0324528 L65.5183061,75.0744506 L65.5183061,78.2150312 L72.1572932,80.0518333 L72.1572932,76.6057104 L85.4812902,79.6784803 L85.4812902,79.9867823 C85.4812902,80.5438549 85.9479773,81 86.5188212,81 C87.0892614,81 87.5563521,80.5442492 87.5563521,79.9867823 L87.5563521,73.211234 L88.2479049,73.211234 C89.2115572,73.211234 90,72.4412674 90,71.5001971 C90,70.5591268 89.2115572,69.7891603 88.2479049,69.7891603 Z M71.0511318,78.6234723 L66.6252749,77.3989376 L66.6252749,75.3303177 L71.0511318,76.3510261 L71.0511318,78.6234723 Z"></path>
            </g>
        </g>
    </g>
</svg>