<?xml version="1.0" encoding="UTF-8"?>
<svg width="29px" height="19px" viewBox="0 0 29 19" version="1.1" xmlns="http://www.w3.org/2000/svg" xmlns:xlink="http://www.w3.org/1999/xlink">
    <!-- Generator: Sketch 59.1 (86144) - https://sketch.com -->
    <title>Shape</title>
    <desc>Created with Sketch.</desc>
    <g id="Symbols" stroke="none" stroke-width="1" fill="none" fill-rule="evenodd">
        <g id="presse" transform="translate(-61.000000, -8.000000)" fill="#000000" fill-rule="nonzero">
            <g id="Shape">
                <path d="M88.2479049,15.7891603 L87.5563521,15.7891603 L87.5563521,9.01321769 C87.5563521,8.45614508 87.0896651,8 86.5188212,8 C85.948381,8 85.4812902,8.45575084 85.4812902,9.01321769 L85.4812902,9.32151972 L61,14.9675472 L61,17.2411761 L61,17.7588239 L61,20.0324528 L65.5183061,21.0744506 L65.5183061,24.2150312 L72.1572932,26.0518333 L72.1572932,22.6057104 L85.4812902,25.6784803 L85.4812902,25.9867823 C85.4812902,26.5438549 85.9479773,27 86.5188212,27 C87.0892614,27 87.5563521,26.5442492 87.5563521,25.9867823 L87.5563521,19.211234 L88.2479049,19.211234 C89.2115572,19.211234 90,18.4412674 90,17.5001971 C90,16.5591268 89.2115572,15.7891603 88.2479049,15.7891603 Z M71.0511318,24.6234723 L66.6252749,23.3989376 L66.6252749,21.3303177 L71.0511318,22.3510261 L71.0511318,24.6234723 Z"></path>
            </g>
        </g>
    </g>
</svg>