<?xml version="1.0" encoding="utf-8"?>
<!-- Generator: Adobe Illustrator 25.2.1, SVG Export Plug-In . SVG Version: 6.00 Build 0)  -->
<svg version="1.1" id="Calque_1" xmlns="http://www.w3.org/2000/svg" xmlns:xlink="http://www.w3.org/1999/xlink" x="0px" y="0px"
	 viewBox="0 0 19.6 12.8" style="enable-background:new 0 0 19.6 12.8;" xml:space="preserve">
<desc>Created with Sketch.</desc>
<g id="Symbols">
	<g id="presse" transform="translate(-61.000000, -8.000000)">
		<g id="Shape">
			<path d="M79.4,13.3h-0.5V8.7c0-0.4-0.3-0.7-0.7-0.7c-0.4,0-0.7,0.3-0.7,0.7v0.2L61,12.7v1.5v0.3v1.5l3,0.7v2.1l4.5,1.2v-2.3
				l9,2.1v0.2c0,0.4,0.3,0.7,0.7,0.7c0.4,0,0.7-0.3,0.7-0.7v-4.6h0.5c0.7,0,1.2-0.5,1.2-1.2C80.6,13.8,80,13.3,79.4,13.3z
				 M67.8,19.2l-3-0.8V17l3,0.7V19.2z"/>
		</g>
	</g>
</g>
</svg>
