<?xml version="1.0" encoding="UTF-8"?>
<svg width="60px" height="68px" viewBox="0 0 60 68" version="1.1" xmlns="http://www.w3.org/2000/svg" xmlns:xlink="http://www.w3.org/1999/xlink">
    <!-- Generator: Sketch 59.1 (86144) - https://sketch.com -->
    <title>Group 11</title>
    <desc>Created with Sketch.</desc>
    <g id="Symbols" stroke="none" stroke-width="1" fill="none" fill-rule="evenodd">
        <g id="icon-default" transform="translate(-6.000000, -2.000000)" fill="#848484">
            <g id="Group-11" transform="translate(6.000000, 2.000000)">
                <polygon id="Fill-1" points="43.3296 0.0003 30.4401 12.8898 32.5611 15.0123 45.4521 2.1213"></polygon>
                <polygon id="Fill-2" points="16.6698 0.0003 14.5488 2.1213 27.4398 15.0123 29.5608 12.8898"></polygon>
                <polygon id="Fill-3" points="28.5 13.9512 31.5 13.9512 31.5 0.4512 28.5 0.4512"></polygon>
                <polygon id="Fill-4" points="16.5 34.9512 19.5 34.9512 19.5 25.9512 16.5 25.9512"></polygon>
                <polygon id="Fill-5" points="28.5 34.9512 31.5 34.9512 31.5 25.9512 28.5 25.9512"></polygon>
                <polygon id="Fill-6" points="22.5 51.4512 25.5 51.4512 25.5 42.4512 22.5 42.4512"></polygon>
                <polygon id="Fill-7" points="34.5 51.4512 37.5 51.4512 37.5 42.4512 34.5 42.4512"></polygon>
                <polygon id="Fill-8" points="40.5 34.9512 43.5 34.9512 43.5 25.9512 40.5 25.9512"></polygon>
                <path d="M19.5,15.4512 C10.4025,15.4512 3,22.8537 3,31.9512 C3,35.7642 4.2705,39.3507 6.6735,42.3207 L21.843,61.0542 C23.8485,63.5307 26.823,64.9512 30,64.9512 C33.177,64.9512 36.153,63.5307 38.16,61.0527 L53.3265,42.3207 C55.7295,39.3522 57,35.7657 57,31.9512 C57,22.8537 49.5975,15.4512 40.5,15.4512 L19.5,15.4512 Z M30,67.9512 C25.914,67.9512 22.092,66.1257 19.512,62.9427 L4.3425,44.2077 C1.542,40.7472 0,36.3942 0,31.9512 C0,21.1992 8.748,12.4512 19.5,12.4512 L40.5,12.4512 C51.252,12.4512 60,21.1992 60,31.9512 C60,36.3972 58.458,40.7487 55.6575,44.2077 L40.491,62.9412 C37.9095,66.1257 34.0875,67.9512 30,67.9512 L30,67.9512 Z" id="Fill-9"></path>
            </g>
        </g>
    </g>
</svg>