<?xml version="1.0" encoding="UTF-8"?>
<svg width="15px" height="15px" viewBox="0 0 15 15" version="1.1" xmlns="http://www.w3.org/2000/svg" xmlns:xlink="http://www.w3.org/1999/xlink">
    <title>Picto-S-date</title>
    <g id="Symbols" stroke="none" stroke-width="1" fill="none" fill-rule="evenodd">
        <g id="bloc-evenement-photo" transform="translate(-26.000000, -216.000000)" fill="#2E2632">
            <g id="Group" transform="translate(0.000000, 173.000000)">
                <g transform="translate(26.000000, 42.000000)" id="Picto-S-date">
                    <path d="M13.125,2.875 L11.25,2.875 L11.25,1.9375 C11.25,1.41918886 10.8300545,1 10.3125,1 C9.79494552,1 9.375,1.41918886 9.375,1.9375 L9.375,2.875 L5.625,2.875 L5.625,1.9375 C5.625,1.41918886 5.20505448,1 4.6875,1 C4.16994552,1 3.75,1.41918886 3.75,1.9375 L3.75,2.875 L1.875,2.875 C0.839891041,2.875 0,3.71489104 0,4.75 L0,14.125 C0,15.160109 0.839891041,16 1.875,16 L13.125,16 C14.160109,16 15,15.160109 15,14.125 L15,4.75 C15,3.71413438 14.160109,2.875 13.125,2.875 Z M13.125,14.125 L1.875,14.125 L1.875,6.15587167 L13.125,6.15587167 L13.125,14.125 Z" id="Shape"></path>
                </g>
            </g>
        </g>
    </g>
</svg>