<?xml version="1.0" encoding="UTF-8"?>
<svg width="18px" height="18px" viewBox="0 0 18 18" version="1.1" xmlns="http://www.w3.org/2000/svg" xmlns:xlink="http://www.w3.org/1999/xlink">
    <!-- Generator: Sketch 59.1 (86144) - https://sketch.com -->
    <title>Shape</title>
    <desc>Created with Sketch.</desc>
    <g id="Symbols" stroke="none" stroke-width="1" fill="none" fill-rule="evenodd">
        <g id="article-photo" transform="translate(-61.000000, -65.000000)" fill="#000000" fill-rule="nonzero">
            <g id="Shape">
                <path d="M76.3,65 L63.7,65 C62.3,65 61,66.3 61,67.7 L61,80.3 C61,81.8 62.3,83 63.7,83 L76.3,83 C77.8,83 79,81.7 79,80.3 L79,67.7 C79,66.3 77.7,65 76.3,65 Z M75.5,76 L64.4,76 L64.4,74.4 L75.5,74.4 L75.5,76 Z M75.5,79.1 L64.4,79.1 L64.4,77.5 L75.5,77.5 L75.5,79.1 Z M75.5,72.2 L64.4,72.2 L64.4,69 L75.5,69 L75.5,72.2 Z"></path>
            </g>
        </g>
    </g>
</svg>