<?xml version="1.0" encoding="UTF-8"?><svg id="a" xmlns="http://www.w3.org/2000/svg" viewBox="0 0 32 32"><path d="M16,12.08c2.78,0,5.04,2.26,5.04,5.04s-2.26,5.04-5.04,5.04-5.04-2.26-5.04-5.04,2.26-5.04,5.04-5.04Zm.11-2.24c-2.63-.04-5.07,1.34-6.4,3.61-1.33,2.27-1.33,5.08,0,7.35,1.33,2.27,3.77,3.65,6.4,3.61,3.98-.06,7.17-3.3,7.17-7.28s-3.19-7.22-7.17-7.28Zm7.73-2.24c-.6,0-1.15,.32-1.45,.84s-.3,1.16,0,1.68,.85,.84,1.45,.84c.93,0,1.68-.75,1.68-1.68s-.75-1.68-1.68-1.68Zm-9.13-3.36h1.29c3.83,0,4.28,.01,5.8,.08,1.4,.06,2.16,.3,2.66,.49,.67,.26,1.15,.57,1.65,1.07,.5,.5,.81,.98,1.07,1.65,.2,.5,.43,1.26,.49,2.66,.07,1.51,.08,1.97,.08,5.79s-.01,4.28-.08,5.8c-.06,1.4-.3,2.16-.49,2.66-.23,.62-.6,1.19-1.07,1.65-.5,.5-.98,.81-1.65,1.07-.5,.2-1.26,.43-2.66,.49-1.51,.07-1.97,.08-5.8,.08s-4.29-.02-5.8-.08c-1.4-.06-2.16-.3-2.66-.49-.62-.23-1.19-.6-1.65-1.07-.48-.46-.85-1.03-1.08-1.65-.2-.5-.43-1.26-.49-2.66-.07-1.51-.08-1.97-.08-5.8s.01-4.28,.08-5.79c.06-1.4,.3-2.16,.49-2.66,.26-.67,.57-1.15,1.07-1.65,.5-.5,.98-.81,1.65-1.07,.51-.2,1.26-.43,2.66-.49,1.32-.06,1.84-.08,4.51-.08h0Zm1.29-2.24c-3.8,0-4.28,.02-5.77,.08-1.49,.07-2.51,.3-3.4,.65-.93,.35-1.78,.9-2.48,1.62-.71,.7-1.26,1.55-1.62,2.48-.35,.89-.58,1.91-.65,3.39-.07,1.5-.08,1.97-.08,5.78s.02,4.28,.08,5.77c.07,1.49,.3,2.51,.65,3.4,.36,.92,.84,1.7,1.62,2.48,.78,.78,1.56,1.26,2.48,1.62,.89,.35,1.91,.58,3.4,.65,1.49,.07,1.97,.08,5.77,.08s4.28-.02,5.77-.08c1.49-.07,2.51-.3,3.4-.65,.93-.35,1.78-.9,2.48-1.62,.78-.78,1.26-1.56,1.62-2.48,.34-.89,.58-1.91,.65-3.4,.07-1.49,.08-1.97,.08-5.77s-.02-4.28-.08-5.77c-.07-1.49-.31-2.51-.65-3.4-.35-.93-.9-1.78-1.62-2.48-.7-.71-1.55-1.26-2.48-1.62-.89-.35-1.91-.58-3.4-.65-1.49-.07-1.97-.08-5.77-.08h0Z"/></svg>