<?xml version="1.0" encoding="utf-8"?>
<!-- Generator: Adobe Illustrator 21.0.0, SVG Export Plug-In . SVG Version: 6.00 Build 0)  -->
<svg version="1.1" id="Layer_1" xmlns="http://www.w3.org/2000/svg" xmlns:xlink="http://www.w3.org/1999/xlink" x="0px" y="0px"
	 viewBox="0 0 25 25" style="enable-background:new 0 0 25 25;" xml:space="preserve">
<style type="text/css">
	.st0{fill:#FFFFFF;}
</style>
<g>
	<g>
		<path class="st0" d="M16.2,3.9H8.8C6.2,3.9,4.2,6,4.2,8.5V16c0,2.5,2.1,4.6,4.6,4.6h7.5c2.5,0,4.6-2.1,4.6-4.6V8.5
			C20.8,6,18.8,3.9,16.2,3.9z M19.3,16c0,1.7-1.4,3.1-3.1,3.1H8.8c-1.7,0-3.1-1.4-3.1-3.1V8.5c0-1.7,1.4-3.1,3.1-3.1h7.5
			c1.7,0,3.1,1.4,3.1,3.1L19.3,16L19.3,16z"/>
		<path class="st0" d="M12.5,7.9c-2.4,0-4.3,1.9-4.3,4.3s1.9,4.3,4.3,4.3s4.3-1.9,4.3-4.3S14.9,7.9,12.5,7.9z M12.5,15.1
			c-1.5,0-2.8-1.3-2.8-2.8s1.3-2.8,2.8-2.8s2.8,1.3,2.8,2.8S14,15.1,12.5,15.1z"/>
		<path class="st0" d="M17,6.7c-0.3,0-0.6,0.1-0.8,0.3c-0.2,0.2-0.3,0.5-0.3,0.8c0,0.3,0.1,0.6,0.3,0.8c0.2,0.2,0.5,0.3,0.8,0.3
			s0.6-0.1,0.8-0.3C17.9,8.3,18,8,18,7.8c0-0.3-0.1-0.6-0.3-0.8C17.5,6.8,17.3,6.7,17,6.7z"/>
	</g>
</g>
</svg>
