<?xml version="1.0" encoding="utf-8"?>
<!-- Generator: Adobe Illustrator 21.0.0, SVG Export Plug-In . SVG Version: 6.00 Build 0)  -->
<svg version="1.1" id="Layer_1" xmlns="http://www.w3.org/2000/svg" xmlns:xlink="http://www.w3.org/1999/xlink" x="0px" y="0px"
	 viewBox="0 0 96 96" style="enable-background:new 0 0 96 96;" xml:space="preserve">
<style type="text/css">
	.st0{fill:#FFFFFF;}
</style>
<g>
	<path class="st0" d="M62.3,15H33.7C23.9,15,16,22.9,16,32.7v28.7C16,71.1,23.9,79,33.7,79h28.7C72.1,79,80,71.1,80,61.3V32.7
		C80,22.9,72.1,15,62.3,15z M74.3,61.3c0,6.6-5.4,12-12,12H33.7c-6.6,0-12-5.4-12-12V32.7c0-6.6,5.4-12,12-12h28.7
		c6.6,0,12,5.4,12,12V61.3L74.3,61.3z"/>
	<path class="st0" d="M48,30.5c-9.1,0-16.5,7.4-16.5,16.5S38.9,63.5,48,63.5S64.5,56.1,64.5,47S57.1,30.5,48,30.5z M48,57.8
		c-5.9,0-10.8-4.9-10.8-10.8c0-5.9,4.9-10.8,10.8-10.8S58.8,41.1,58.8,47S53.9,57.8,48,57.8z"/>
	<path class="st0" d="M65.2,25.7c-1.1,0-2.2,0.5-2.9,1.2c-0.8,0.8-1.2,1.9-1.2,2.9s0.5,2.2,1.2,2.9c0.8,0.8,1.9,1.2,2.9,1.2
		s2.2-0.5,2.9-1.2c0.8-0.8,1.2-1.9,1.2-2.9s-0.5-2.2-1.2-2.9C67.3,26.1,66.3,25.7,65.2,25.7z"/>
</g>
</svg>
