<?xml version="1.0" encoding="utf-8"?>
<!-- Generator: Adobe Illustrator 21.0.0, SVG Export Plug-In . SVG Version: 6.00 Build 0)  -->
<svg version="1.1" id="Calque_1" xmlns="http://www.w3.org/2000/svg" xmlns:xlink="http://www.w3.org/1999/xlink" x="0px" y="0px"
	 viewBox="0 0 25 25" style="enable-background:new 0 0 25 25;" xml:space="preserve">
<style type="text/css">
	.st0{fill:#FFFFFF;}
</style>
<g>
	<g>
		<rect x="5.8" y="9.5" class="st0" width="2.8" height="9"/>
		<path class="st0" d="M10.4,9.5v9h2.7V14c0-1.2,0.3-2.3,1.7-2.3c1.5,0,1.5,1.4,1.5,2.4v4.4h2.8v-4.9c0-2.4-0.5-4.3-3.4-4.3
			c-1.4,0-2.2,0.8-2.7,1.4V9.5C13,9.5,10.4,9.5,10.4,9.5z"/>
		<path class="st0" d="M7.2,5C6.3,5,5.6,5.8,5.6,6.7c0,0.9,0.7,1.6,1.6,1.6c0.9,0,1.6-0.7,1.6-1.6S8.1,5,7.2,5z"/>
	</g>
</g>
</svg>
