<?xml version="1.0" encoding="utf-8"?>
<!-- Generator: Adobe Illustrator 21.0.0, SVG Export Plug-In . SVG Version: 6.00 Build 0)  -->
<svg version="1.1" id="Calque_1" xmlns="http://www.w3.org/2000/svg" xmlns:xlink="http://www.w3.org/1999/xlink" x="0px" y="0px"
	 viewBox="0 0 96 96" style="enable-background:new 0 0 96 96;" xml:space="preserve">
<style type="text/css">
	.st0{fill:#FFFFFF;}
</style>
<g>
	<rect x="22.1" y="37.6" class="st0" width="10.9" height="34.7"/>
	<path class="st0" d="M39.9,37.6v34.7h10.3V55.1c0-4.6,1-8.9,6.6-8.9s5.6,5.3,5.6,9.2v16.9h10.8V53.4c0-9.2-2-16.5-12.9-16.5
		c-5.3,0-8.6,3-10.2,5.3v-4.6C50.1,37.6,39.9,37.6,39.9,37.6z"/>
	<path class="st0" d="M27.7,20.4c-3.6,0-6.3,3-6.3,6.3c0,3.6,2.7,6.3,6.3,6.3c3.3,0,6.3-2.7,6.3-6.3S31,20.4,27.7,20.4z"/>
</g>
</svg>
