<?xml version="1.0" encoding="utf-8"?>
<!-- Generator: Adobe Illustrator 19.2.1, SVG Export Plug-In . SVG Version: 6.00 Build 0)  -->
<svg version="1.1" id="Calque_1" xmlns="http://www.w3.org/2000/svg" xmlns:xlink="http://www.w3.org/1999/xlink" x="0px" y="0px"
	 viewBox="0 0 21 16" style="enable-background:new 0 0 21 16;" xml:space="preserve">
<title>Group</title>
<desc>Created with Sketch.</desc>
<g id="Symbols">
	<g id="NAV" transform="translate(-1288.000000, -9.000000)">
		<g id="Group" transform="translate(1288.000000, 9.000000)">
			<path id="Rectangle-3" d="M1.4,0h18.2C20.4,0,21,0.6,21,1.4l0,0c0,0.8-0.6,1.4-1.4,1.4H1.4C0.6,2.8,0,2.2,0,1.4l0,0
				C0,0.6,0.6,0,1.4,0z"/>
			<path id="Rectangle-3-Copy" d="M1.4,6.6h18.2C20.4,6.6,21,7.2,21,8l0,0c0,0.8-0.6,1.4-1.4,1.4H1.4C0.6,9.4,0,8.8,0,8l0,0
				C0,7.2,0.6,6.6,1.4,6.6z"/>
			<path id="Rectangle-3-Copy-2" d="M1.4,13.2h18.2c0.8,0,1.4,0.6,1.4,1.4v0c0,0.8-0.6,1.4-1.4,1.4H1.4C0.6,16,0,15.4,0,14.6v0
				C0,13.8,0.6,13.2,1.4,13.2z"/>
		</g>
	</g>
</g>
</svg>
