<?xml version="1.0" encoding="utf-8"?>
<!-- Generator: Adobe Illustrator 21.0.0, SVG Export Plug-In . SVG Version: 6.00 Build 0)  -->
<svg version="1.1" id="Capa_1" xmlns="http://www.w3.org/2000/svg" xmlns:xlink="http://www.w3.org/1999/xlink" x="0px" y="0px"
	 viewBox="0 0 25 25" style="enable-background:new 0 0 25 25;" xml:space="preserve">
<style type="text/css">
	.st0{fill:#FFFFFF;}
</style>
<g>
	<g>
		<path class="st0" d="M12.9,4.2c-4.6,0-6.8,3.3-6.8,6c0,1.6,0.6,3.1,2,3.6c0.2,0.1,0.4,0,0.5-0.2c0-0.2,0.1-0.6,0.2-0.8
			c0.1-0.2,0-0.3-0.1-0.5c-0.4-0.4-0.6-1-0.6-1.9c0-2.4,1.8-4.6,4.7-4.6c2.6,0,4,1.6,4,3.6c0,2.8-1.2,5.1-3,5.1
			c-1,0-1.7-0.8-1.5-1.8c0.3-1.2,0.8-2.5,0.8-3.4c0-0.8-0.4-1.4-1.3-1.4c-1,0-1.8,1-1.8,2.5c0,0.9,0.3,1.5,0.3,1.5s-1,4.5-1.2,5.2
			c-0.4,1.6-0.1,3.4,0,3.6c0,0.1,0.2,0.1,0.2,0.1c0.1-0.1,1.3-1.6,1.7-3.2c0.1-0.4,0.7-2.6,0.7-2.6c0.3,0.7,1.3,1.2,2.3,1.2
			c3.1,0,5.2-2.8,5.2-6.6C19,6.8,16.6,4.2,12.9,4.2z"/>
	</g>
</g>
</svg>
