<?xml version="1.0" encoding="utf-8"?>
<!-- Generator: Adobe Illustrator 25.2.0, SVG Export Plug-In . SVG Version: 6.00 Build 0)  -->
<svg version="1.1" id="Capa_1" xmlns="http://www.w3.org/2000/svg" xmlns:xlink="http://www.w3.org/1999/xlink" x="0px" y="0px"
	 viewBox="0 0 25 25" style="enable-background:new 0 0 25 25;" xml:space="preserve">
<style type="text/css">
	.st0{fill:#FFFFFF;}
</style>
<g>
	<path class="st0" d="M13.1,2.7c-5.9,0-8.8,4.2-8.8,7.7c0,2.1,0.8,4,2.5,4.7c0.3,0.1,0.5,0,0.6-0.3c0-0.2,0.2-0.8,0.3-1
		c0.1-0.3,0-0.4-0.2-0.7c-0.5-0.6-0.8-1.3-0.8-2.4c0-3.1,2.3-5.9,6.1-5.9c3.3,0,5.1,2,5.1,4.7c0,3.6-1.6,6.5-3.9,6.5
		c-1.3,0-2.2-1.1-1.9-2.4c0.4-1.6,1.1-3.3,1.1-4.4c0-1-0.5-1.8-1.6-1.8c-1.3,0-2.4,1.3-2.4,3.2c0,1.2,0.4,1.9,0.4,1.9
		s-1.3,5.7-1.6,6.7c-0.5,2-0.1,4.4,0,4.7c0,0.1,0.2,0.2,0.3,0.1c0.1-0.2,1.7-2.1,2.2-4.1c0.2-0.5,0.9-3.4,0.9-3.4
		c0.4,0.8,1.7,1.5,3,1.5c4,0,6.7-3.6,6.7-8.4C20.9,6.1,17.8,2.7,13.1,2.7z"/>
</g>
</svg>
