<?xml version="1.0" encoding="iso-8859-1"?>
<!-- Generator: Adobe Illustrator 16.0.0, SVG Export Plug-In . SVG Version: 6.00 Build 0)  -->
<!DOCTYPE svg PUBLIC "-//W3C//DTD SVG 1.1//EN" "http://www.w3.org/Graphics/SVG/1.1/DTD/svg11.dtd">
<svg version="1.1" id="Capa_1" xmlns="http://www.w3.org/2000/svg" xmlns:xlink="http://www.w3.org/1999/xlink" x="0px" y="0px"
	 width="97.672px" height="97.672px" viewBox="0 0 97.672 97.672" style="enable-background:new 0 0 97.672 97.672;"
	 xml:space="preserve">
<g>
	<path d="M51.125,0C24.469,0,11.029,19.11,11.029,35.047c0,9.649,3.653,18.232,11.487,21.432c1.286,0.525,2.438,0.019,2.812-1.403
		c0.258-0.985,0.871-3.468,1.144-4.503c0.376-1.407,0.229-1.9-0.807-3.126c-2.259-2.665-3.703-6.115-3.703-11.002
		c0-14.178,10.608-26.87,27.624-26.87c15.064,0,23.342,9.206,23.342,21.5c0,16.176-7.159,29.828-17.786,29.828
		c-5.87,0-10.262-4.854-8.854-10.807c1.686-7.107,4.951-14.778,4.951-19.907c0-4.592-2.463-8.423-7.565-8.423
		c-6,0-10.819,6.207-10.819,14.521c0,5.296,1.789,8.878,1.789,8.878s-6.141,26.015-7.215,30.571
		c-2.145,9.072-0.322,20.195-0.168,21.318c0.089,0.666,0.944,0.824,1.332,0.322c0.555-0.723,7.7-9.544,10.129-18.359
		c0.687-2.496,3.944-15.42,3.944-15.42c1.95,3.717,7.647,6.992,13.706,6.992c18.034,0,30.271-16.441,30.271-38.45
		C86.644,15.498,72.547,0,51.125,0z"/>
</g>
<g>
</g>
<g>
</g>
<g>
</g>
<g>
</g>
<g>
</g>
<g>
</g>
<g>
</g>
<g>
</g>
<g>
</g>
<g>
</g>
<g>
</g>
<g>
</g>
<g>
</g>
<g>
</g>
<g>
</g>
</svg>
