<?xml version="1.0" encoding="utf-8"?>
<!-- Generator: Adobe Illustrator 19.2.1, SVG Export Plug-In . SVG Version: 6.00 Build 0)  -->
<svg version="1.1" id="Capa_1" xmlns="http://www.w3.org/2000/svg" xmlns:xlink="http://www.w3.org/1999/xlink" x="0px" y="0px"
	 viewBox="0 0 97.7 97.7" style="enable-background:new 0 0 97.7 97.7;" xml:space="preserve">
<style type="text/css">
	.st0{fill:#FFFFFF;}
</style>
<g>
	<path class="st0" d="M51.1,0C24.5,0,11,19.1,11,35c0,9.6,3.7,18.2,11.5,21.4c1.3,0.5,2.4,0,2.8-1.4c0.3-1,0.9-3.5,1.1-4.5
		c0.4-1.4,0.2-1.9-0.8-3.1c-2.3-2.7-3.7-6.1-3.7-11C22,22.3,32.6,9.6,49.6,9.6c15.1,0,23.3,9.2,23.3,21.5c0,16.2-7.2,29.8-17.8,29.8
		c-5.9,0-10.3-4.9-8.9-10.8c1.7-7.1,5-14.8,5-19.9c0-4.6-2.5-8.4-7.6-8.4c-6,0-10.8,6.2-10.8,14.5c0,5.3,1.8,8.9,1.8,8.9
		s-6.1,26-7.2,30.6c-2.1,9.1-0.3,20.2-0.2,21.3c0.1,0.7,0.9,0.8,1.3,0.3c0.6-0.7,7.7-9.5,10.1-18.4c0.7-2.5,3.9-15.4,3.9-15.4
		c2,3.7,7.6,7,13.7,7c18,0,30.3-16.4,30.3-38.5C86.6,15.5,72.5,0,51.1,0z"/>
</g>
</svg>
