<?xml version="1.0" encoding="utf-8"?>
<!-- Generator: Adobe Illustrator 21.0.0, SVG Export Plug-In . SVG Version: 6.00 Build 0)  -->
<svg version="1.1" id="Capa_1" xmlns="http://www.w3.org/2000/svg" xmlns:xlink="http://www.w3.org/1999/xlink" x="0px" y="0px"
	 viewBox="0 0 96 96" style="enable-background:new 0 0 96 96;" xml:space="preserve">
<g>
	<path d="M49.5,16C32,16,23.2,28.5,23.2,39c0,6.3,2.4,11.9,7.5,14c0.8,0.3,1.6,0,1.8-0.9c0.1-0.6,0.5-2.3,0.8-2.9
		c0.3-0.9,0.1-1.2-0.5-2.1c-1.5-1.7-2.4-4-2.4-7.2c0-9.3,6.9-17.6,18.1-17.6c9.9-0.1,15.3,6,15.3,14c0,10.6-4.7,19.5-11.6,19.5
		c-3.8,0-6.7-3.2-5.8-7.1c1.1-4.7,3.2-9.7,3.2-13c0-3-1.6-5.5-4.9-5.5c-3.9,0-7.1,4-7.1,9.5c0,3.5,1.2,5.8,1.2,5.8s-4,17.1-4.7,20
		c-1.4,6-0.2,13.2-0.1,14c0.1,0.4,0.6,0.5,0.9,0.2c0.3-0.5,5.1-6.2,6.6-12.1c0.5-1.6,2.6-10.1,2.6-10.1c1.3,2.5,5,4.6,9,4.6
		c11.9,0,19.9-10.8,19.9-25.2C72.8,26.1,63.6,16,49.5,16z"/>
</g>
</svg>
