<?xml version="1.0" encoding="utf-8"?>
<!-- Generator: Adobe Illustrator 19.2.1, SVG Export Plug-In . SVG Version: 6.00 Build 0)  -->
<svg version="1.1" id="Calque_1" xmlns="http://www.w3.org/2000/svg" xmlns:xlink="http://www.w3.org/1999/xlink" x="0px" y="0px"
	 viewBox="0 0 23 25" style="enable-background:new 0 0 23 25;" xml:space="preserve">
<style type="text/css">
	.st0{filter:url(#Adobe_OpacityMaskFilter);}
	.st1{fill:#FFFFFF;}
	.st2{mask:url(#mask-2);}
</style>
<title>Page 1</title>
<desc>Created with Sketch.</desc>
<g id="Page-1_1_">
	<g id="_x30_2-recettes" transform="translate(-779.000000, -1033.000000)">
		<g id="etape-1" transform="translate(-137.000000, 966.000000)">
			<g id="Page-1" transform="translate(916.000000, 67.000000)">
				<g id="Group-3" transform="translate(0.000000, 0.118414)">
					<g id="Clip-2">
					</g>
					<defs>
						<filter id="Adobe_OpacityMaskFilter" filterUnits="userSpaceOnUse" x="0" y="0" width="22.9" height="24.2">
							<feColorMatrix  type="matrix" values="1 0 0 0 0  0 1 0 0 0  0 0 1 0 0  0 0 0 1 0"/>
						</filter>
					</defs>
					<mask maskUnits="userSpaceOnUse" x="0" y="0" width="22.9" height="24.2" id="mask-2">
						<g class="st0">
							<polygon id="path-1" class="st1" points="0,0 0,24.2 22.9,24.2 22.9,0 							"/>
						</g>
					</mask>
					<path id="Fill-1" class="st2" d="M21.6,22.9c-0.9,0.9-1.7,0.1-2.3-0.5c-0.8-0.8-1.6-1.7-2.3-2.5c-0.9-1-1.8-2-2.7-2.9
						c-0.4-0.5-1-1-1.4-1.5c-0.5-0.8,0.2-1.8,1-1.9c0.5-0.1,0.9,0.2,1.2,0.5c0.7,0.7,1.3,1.4,2,2.1c1.5,1.6,3,3.3,4.5,4.9
						C22.1,21.6,22.2,22.4,21.6,22.9 M1,4.9C0.8,4.2,1,3.4,1.5,2.8C1.9,4,2.8,5.1,3.6,6.1c2,2.3,4.4,4.2,6.8,6c-2-0.8-3.9-1.8-5.7-3
						C3.2,8.1,1.3,6.8,1,4.9C0.8,4.2,1.6,7.9,1,4.9 M10.7,11.2C2.9,5.2,2.3,2.7,2.2,2C2.9,2.1,5.4,3,10.7,11.2 M5.2,1
						C7,1.5,8.2,3.4,9,5c1.1,1.9,1.8,3.9,2.5,5.9C10,8.4,8.3,5.9,6.2,3.8C5.3,2.8,4.3,1.8,3.1,1.3C3.7,0.9,4.5,0.8,5.2,1
						C8.1,1.9,4.5,0.8,5.2,1 M22.3,20.5c-1.3-1.4-2.6-2.8-3.9-4.3c-0.8-0.8-1.6-1.7-2.3-2.5c-0.8-0.8-1.7-1.6-2.9-0.9
						c-0.8-2.7-1.8-5.5-3.2-8C8.5,2.1,5.7-1.6,2.3,0.7c-1.5,1-2.7,2.7-2.2,4.5c0.4,1.4,1.4,2.5,2.5,3.4c2.4,2,5.4,3.5,8.4,4.6
						c0.4,0.1,0.7,0.3,1.1,0.4c-0.9,1.5,0.3,2.5,1.2,3.5c1.1,1.2,2.3,2.5,3.4,3.7c0.8,0.8,1.6,1.7,2.3,2.5
						C21,25.6,24.3,22.6,22.3,20.5"/>
				</g>
				<path id="Fill-4" d="M3.8,18.7c0.3,2.7,2.6,4.7,5.3,4.7c2.7,0,5-2,5.3-4.7l0,0v0c0,0,0,0,0-0.1l0-0.2H3.8L3.8,18.7z M9.1,24.3
					c-3.5,0-6.3-2.8-6.3-6.3c0-0.3,0.2-0.5,0.5-0.5h11.2l0.6-15.4c0-0.5,0.2-1,0.6-1.4c0.4-0.4,0.9-0.6,1.4-0.6c1.2,0,2.1,0.9,2.1,2
					c0,0.3-0.2,0.5-0.5,0.5s-0.5-0.2-0.5-0.5c0-0.6-0.5-1.1-1.1-1.1c-0.7,0-1.2,0.5-1.2,1.1l-0.6,15.7l0,0c0,0,0,0,0,0.1
					c0,0,0,0,0,0C15.4,21.5,12.6,24.3,9.1,24.3L9.1,24.3z"/>
			</g>
		</g>
	</g>
</g>
</svg>
