<?xml version="1.0" encoding="utf-8"?>
<!-- Generator: Adobe Illustrator 19.2.1, SVG Export Plug-In . SVG Version: 6.00 Build 0)  -->
<svg version="1.1" id="Calque_1" xmlns="http://www.w3.org/2000/svg" xmlns:xlink="http://www.w3.org/1999/xlink" x="0px" y="0px"
	 viewBox="0 0 25 25" style="enable-background:new 0 0 25 25;" xml:space="preserve">
<title>Fill 1</title>
<desc>Created with Sketch.</desc>
<g id="Symbols">
	<g id="NAV" transform="translate(-1030.000000, -5.000000)">
		<path id="Fill-1" d="M1035.6,10.6c2.3-2.3,5.9-2.3,8.1,0c2.3,2.3,2.3,5.9,0,8.1c-2.3,2.3-5.9,2.3-8.1,0
			C1033.3,16.4,1033.3,12.8,1035.6,10.6L1035.6,10.6z M1032.8,7.8c-3.7,3.7-3.8,9.9,0,13.6c3.2,3.2,8.1,3.7,11.8,1.4l6.6,6.4
			c0.9,0.9,2.3,0.8,3.2-0.1c0.9-0.9,0.8-2.4-0.1-3.3l-6.5-6.3c2.3-3.7,1.8-8.7-1.4-11.9C1042.7,4.1,1036.6,4.1,1032.8,7.8
			L1032.8,7.8z"/>
	</g>
</g>
</svg>
