<?xml version="1.0" encoding="UTF-8"?>
<svg width="27px" height="27px" viewBox="0 0 27 27" version="1.1" xmlns="http://www.w3.org/2000/svg" xmlns:xlink="http://www.w3.org/1999/xlink">
    <title>search-solid</title>
    <g id="plugins" stroke="none" stroke-width="1" fill="none" fill-rule="evenodd">
        <g id="search-2-copy" transform="translate(-216.000000, -422.000000)" fill="#E2E4E8" fill-rule="nonzero">
            <g id="search-solid" transform="translate(216.000000, 422.000000)">
                <path d="M26.6328074,23.3432282 L21.3748056,18.0861244 C21.1374836,17.8488429 20.8157804,17.7170198 20.4782557,17.7170198 L19.6186225,17.7170198 C21.0741977,15.8556782 21.9391047,13.5145005 21.9391047,10.9676789 C21.9391047,4.90909091 17.0291753,0 10.9695524,0 C4.90992945,0 0,4.90909091 0,10.9676789 C0,17.026267 4.90992945,21.9353579 10.9695524,21.9353579 C13.516809,21.9353579 15.8583865,21.0705986 17.7200461,19.6152719 L17.7200461,20.4747583 C17.7200461,20.8122254 17.8518917,21.1338736 18.0892137,21.3711552 L23.3472155,26.628259 C23.8429549,27.1239137 24.644576,27.1239137 25.1350416,26.628259 L26.6275336,25.1360219 C27.123273,24.6403672 27.123273,23.8388829 26.6328074,23.3432282 Z M10.9695524,17.7170198 C7.24095932,17.7170198 4.2190586,14.7009081 4.2190586,10.9676789 C4.2190586,7.23972268 7.2356855,4.21833805 10.9695524,4.21833805 C14.6981454,4.21833805 17.7200461,7.23444976 17.7200461,10.9676789 C17.7200461,14.6956352 14.7034192,17.7170198 10.9695524,17.7170198 Z" id="Shape"></path>
            </g>
        </g>
    </g>
</svg>