<?xml version="1.0" encoding="utf-8"?>
<!-- Generator: Adobe Illustrator 19.2.1, SVG Export Plug-In . SVG Version: 6.00 Build 0)  -->
<svg version="1.1" id="Capa_1" xmlns="http://www.w3.org/2000/svg" xmlns:xlink="http://www.w3.org/1999/xlink" x="0px" y="0px"
	 viewBox="0 0 48.7 48.7" style="enable-background:new 0 0 48.7 48.7;" xml:space="preserve">
<style type="text/css">
	.st0{fill:#FFFFFF;}
</style>
<g>
	<g>
		<path class="st0" d="M40.3,31.6c-2.4,0-4.5,1-6,2.6l-17.7-8.7c0.1-0.4,0.1-0.8,0.1-1.2c0-0.4,0-0.8-0.1-1.2l17.7-8.6
			c1.5,1.6,3.7,2.6,6.1,2.6c4.6,0,8.3-3.7,8.3-8.3c0-4.6-3.7-8.3-8.3-8.3S32,4.1,32,8.7c0,0.4,0,0.8,0.1,1.2l-17.7,8.6
			c-1.5-1.6-3.7-2.6-6.1-2.6c-4.6,0-8.3,3.7-8.3,8.3c0,4.6,3.7,8.3,8.3,8.3c2.4,0,4.5-1,6-2.6l17.7,8.7C32,39.1,32,39.5,32,39.9
			c0,4.6,3.7,8.3,8.3,8.3s8.3-3.7,8.3-8.3C48.7,35.3,44.9,31.6,40.3,31.6z"/>
	</g>
</g>
</svg>
