<?xml version="1.0" encoding="utf-8"?>
<!-- Generator: Adobe Illustrator 19.2.1, SVG Export Plug-In . SVG Version: 6.00 Build 0)  -->
<svg version="1.1" id="Calque_1" xmlns="http://www.w3.org/2000/svg" xmlns:xlink="http://www.w3.org/1999/xlink" x="0px" y="0px"
	 viewBox="0 0 23 23" style="enable-background:new 0 0 23 23;" xml:space="preserve">
<title>Page 1</title>
<desc>Created with Sketch.</desc>
<g id="Page-1_1_">
	<g id="_x30_2-recettes" transform="translate(-705.000000, -1795.000000)">
		<g id="note-_x2B_-partage-_x2B_-astuce" transform="translate(293.000000, 1770.000000)">
			<g id="astuce-PL">
				<g id="Page-1" transform="translate(412.000000, 25.000000)">
					<polygon id="Fill-1" points="20.7,14.4 19.6,15.5 17.4,13.3 18.5,12.1 					"/>
					<polygon id="Fill-2" points="19.8,8.8 23,8.8 23,7.2 19.8,7.2 					"/>
					<polygon id="Fill-3" points="20.7,1.1 21.8,2.2 19.6,4.4 18.5,3.3 					"/>
					<polygon id="Fill-4" points="13.5,3.1 15,3.1 15,0 13.5,0 					"/>
					<polygon id="Fill-5" points="7.5,3.3 8.6,2.2 10.8,4.4 9.7,5.5 					"/>
					<path id="Fill-6" d="M0,19.7L3.3,23L18.4,7.8l-3.3-3.3L0,19.7z M11.8,10l3.3-3.3l1.1,1.1l-3.3,3.3L11.8,10z"/>
				</g>
			</g>
		</g>
	</g>
</g>
</svg>
