<?xml version="1.0" encoding="utf-8"?>
<!-- Generator: Adobe Illustrator 19.2.1, SVG Export Plug-In . SVG Version: 6.00 Build 0)  -->
<svg version="1.1" id="Capa_1" xmlns="http://www.w3.org/2000/svg" xmlns:xlink="http://www.w3.org/1999/xlink" x="0px" y="0px"
	 viewBox="0 0 612 612" style="enable-background:new 0 0 612 612;" xml:space="preserve">
<style type="text/css">
	.st0{fill:#FFFFFF;}
</style>
<g>
	<g>
		<path class="st0" d="M612,116.3c-22.5,10-46.7,16.7-72.1,19.8c25.9-15.5,45.8-40.2,55.2-69.4c-24.3,14.4-51.2,24.8-79.8,30.5
			c-22.9-24.4-55.5-39.7-91.6-39.7c-69.3,0-125.6,56.2-125.6,125.5c0,9.8,1.1,19.4,3.3,28.6c-104.3-5.2-196.8-55.2-258.8-131.2
			c-10.8,18.5-17,40.1-17,63.1c0,43.6,22.2,82,55.8,104.5c-20.6-0.7-39.9-6.3-56.9-15.8v1.6c0,60.8,43.3,111.6,100.7,123.1
			c-10.5,2.8-21.6,4.4-33.1,4.4c-8.1,0-15.9-0.8-23.6-2.3c16,49.9,62.3,86.2,117.3,87.2c-42.9,33.7-97.1,53.7-155.9,53.7
			c-10.1,0-20.1-0.6-29.9-1.7c55.6,35.7,121.5,56.5,192.4,56.5c230.9,0,357.2-191.3,357.2-357.2l-0.4-16.3
			C573.9,163.5,595.2,141.4,612,116.3z"/>
	</g>
</g>
</svg>
