<?xml version="1.0" encoding="utf-8"?>
<!-- Generator: Adobe Illustrator 21.0.0, SVG Export Plug-In . SVG Version: 6.00 Build 0)  -->
<svg version="1.1" id="Capa_1" xmlns="http://www.w3.org/2000/svg" xmlns:xlink="http://www.w3.org/1999/xlink" x="0px" y="0px"
	 viewBox="0 0 25 25" style="enable-background:new 0 0 25 25;" xml:space="preserve">
<style type="text/css">
	.st0{fill:#FFFFFF;}
</style>
<g>
	<g>
		<g>
			<path class="st0" d="M21.4,7c-0.7,0.3-1.4,0.5-2.1,0.6c0.8-0.4,1.3-1.1,1.6-2c-0.7,0.4-1.5,0.7-2.3,0.9c-0.7-0.7-1.6-1.1-2.7-1.1
				c-2,0-3.6,1.6-3.6,3.6c0,0.3,0,0.6,0.1,0.8C9.3,9.6,6.7,8.2,4.9,6C4.6,6.5,4.4,7.1,4.4,7.8c0,1.3,0.7,2.4,1.6,3
				c-0.6,0-1.1-0.2-1.6-0.4v0.1c0,1.8,1.2,3.2,2.9,3.6c-0.3,0.1-0.6,0.1-1,0.1c-0.2,0-0.4,0-0.7-0.1c0.4,1.4,1.8,2.5,3.4,2.5
				c-1.2,1-2.8,1.6-4.5,1.6c-0.3,0-0.6,0-0.9-0.1c1.6,1,3.5,1.6,5.6,1.6c6.7,0,10.3-5.5,10.3-10.4V8.9C20.3,8.4,20.9,7.7,21.4,7z"/>
		</g>
	</g>
</g>
</svg>
