<?xml version="1.0" encoding="UTF-8"?>
<svg width="27px" height="21px" viewBox="0 0 27 21" version="1.1" xmlns="http://www.w3.org/2000/svg" xmlns:xlink="http://www.w3.org/1999/xlink">
    <!-- Generator: Sketch 59.1 (86144) - https://sketch.com -->
    <title>Fill 1</title>
    <desc>Created with Sketch.</desc>
    <g id="Symbols" stroke="none" stroke-width="1" fill="none" fill-rule="evenodd">
        <g id="Footer" transform="translate(-1016.000000, -130.000000)" fill="#000000">
            <g id="footer">
                <g id="Group-25" transform="translate(381.000000, 127.000000)">
                    <g id="Group-23" transform="translate(635.000000, 0.000000)">
                        <path d="M27,5.48586458 C26.00667,5.90758298 24.938955,6.19247547 23.81859,6.32064478 C24.96204,5.66455225 25.840485,4.6256314 26.254125,3.38760882 C25.18371,3.99512105 23.998275,4.43634909 22.73643,4.67408251 C21.72609,3.64368905 20.28645,3 18.69318,3 C15.63408,3 13.153725,5.37358723 13.153725,8.30132587 C13.153725,8.71684253 13.20273,9.12150614 13.29723,9.50950257 C8.69346,9.28843634 4.611735,7.17777709 1.87974,3.97031409 C1.40292,4.75328391 1.12968,5.66390624 1.12968,6.63551235 C1.12968,8.47484542 2.10762,10.0975052 3.59397,11.0483096 C2.68596,11.0206602 1.831815,10.7822807 1.084995,10.3851109 C1.084455,10.4073338 1.084455,10.4294275 1.084455,10.4519088 C1.084455,13.0204633 2.993895,15.1630357 5.52798,15.6502599 C5.063175,15.7714523 4.5738,15.8363122 4.06863,15.8363122 C3.71169,15.8363122 3.364605,15.8029778 3.026295,15.7412188 C3.731265,17.8472268 5.77692,19.3800904 8.20098,19.4228566 C6.305175,20.8448642 3.916755,21.6921771 1.32138,21.6921771 C0.87426,21.6921771 0.43335,21.6672409 0,21.6181438 C2.451465,23.1223244 5.363145,24 8.491365,24 C18.68022,24 24.252075,15.9217153 24.252075,8.91607346 C24.252075,8.68622143 24.24654,8.45753222 24.235875,8.23013505 C25.318305,7.48269603 26.257365,6.54907558 27,5.48586458" id="Fill-1"></path>
                    </g>
                </g>
            </g>
        </g>
    </g>
</svg>