<?xml version="1.0" encoding="UTF-8"?>
<svg width="25px" height="20px" viewBox="0 0 25 20" version="1.1" xmlns="http://www.w3.org/2000/svg" xmlns:xlink="http://www.w3.org/1999/xlink">
    <title>Fill 1</title>
    <g id="Symbols" stroke="none" stroke-width="1" fill="none" fill-rule="evenodd">
        <g id="bloc-newsroom-tw-photo" transform="translate(-62.000000, -268.000000)" fill="#1DA0F2">
            <g id="Group-9" transform="translate(62.000000, 263.000000)">
                <path d="M25,7.3675266 C24.0801791,7.76914662 23.091699,8.04053966 22.0541389,8.16256235 C23.1129979,7.53773327 23.9264567,6.54826863 24.3093075,5.3691935 C23.3181816,5.94792223 22.2205612,6.36803448 21.0522974,6.59436899 C20.1167338,5.61310865 18.7837673,5 17.3084555,5 C14.475968,5 12.1793922,7.26061024 12.1793922,10.0489002 C12.1793922,10.44466 12.2247681,10.8300017 12.3122126,11.1995859 C8.04952455,10.9890088 4.27022865,8.97895532 1.74055573,5.92422092 C1.2989676,6.66990064 1.04615906,7.53721236 1.04615906,8.46247509 C1.04615906,10.2141583 1.95156024,11.7595619 3.32778592,12.6650301 C2.48707515,12.6388545 1.69610588,12.4116084 1.0047519,12.0335595 C1.00422274,12.0546563 1.00422274,12.0756228 1.00422274,12.09698 C1.00422274,14.543294 2.77229504,16.5838206 5.11848003,17.0478193 C4.68813665,17.1632005 4.23503918,17.224928 3.76725739,17.224928 C3.4367939,17.224928 3.11545849,17.1932829 2.80232515,17.1344203 C3.45491779,19.1401763 5.34919593,20.6000208 7.59351667,20.6406517 C5.83814432,21.9948821 3.62663181,22.8020289 1.2235616,22.8020289 C0.809622335,22.8020289 0.401371595,22.7780672 0,22.7314459 C2.26985295,24.164073 4.96594824,25 7.86246474,25 C17.2965493,25 22.4556428,17.3064501 22.4556428,10.6344008 C22.4556428,10.4154892 22.4506157,10.1977497 22.4406938,9.9811822 C23.4427999,9.2693615 24.3123502,8.38004141 25,7.3675266" id="Fill-1"></path>
            </g>
        </g>
    </g>
</svg>