<?xml version="1.0" encoding="UTF-8"?><svg id="a" xmlns="http://www.w3.org/2000/svg" viewBox="0 0 32 32"><path d="M10.8,27.76c10.57,0,16.35-9.05,16.35-16.89,0-.25,0-.51-.01-.76,1.13-.84,2.1-1.88,2.87-3.08-1.05,.48-2.17,.79-3.31,.94,1.2-.74,2.1-1.91,2.53-3.29-1.13,.69-2.36,1.18-3.65,1.43-1.78-1.96-4.61-2.44-6.9-1.17-2.29,1.27-3.48,3.97-2.89,6.59-4.62-.24-8.92-2.49-11.84-6.2-1.52,2.71-.74,6.18,1.78,7.93-.91-.03-1.8-.28-2.6-.74v.08c0,2.83,1.93,5.26,4.61,5.82-.49,.14-1,.21-1.51,.21-.36,0-.72-.03-1.07-.1,.75,2.42,2.91,4.07,5.37,4.12-2.04,1.65-4.55,2.55-7.14,2.55-.46,0-.91-.03-1.36-.08,2.63,1.73,5.68,2.65,8.8,2.65Z"/></svg>