<?xml version="1.0" encoding="utf-8"?>
<!-- Generator: Adobe Illustrator 21.0.0, SVG Export Plug-In . SVG Version: 6.00 Build 0)  -->
<svg version="1.1" id="Capa_1" xmlns="http://www.w3.org/2000/svg" xmlns:xlink="http://www.w3.org/1999/xlink" x="0px" y="0px"
	 viewBox="0 0 96 96" style="enable-background:new 0 0 96 96;" xml:space="preserve">
<style type="text/css">
	.st0{fill:#010002;}
</style>
<g>
	<g>
		<path class="st0" d="M82,26.9c-2.5,1.1-5.2,1.9-8,2.2c2.9-1.7,5.1-4.4,6.1-7.7c-2.7,1.6-5.7,2.8-8.9,3.4
			c-2.5-2.7-6.2-4.4-10.2-4.4c-7.7,0-14,6.3-14,14c0,1.1,0.1,2.2,0.4,3.2C35.9,37,25.6,31.4,18.7,22.9c-1.2,2-1.9,4.4-1.9,7
			c0,4.9,2.5,9.1,6.2,11.6c-2.3-0.1-4.4-0.7-6.3-1.7V40c0,6.8,4.8,12.4,11.2,13.7c-1.2,0.3-2.4,0.5-3.7,0.5c-0.9,0-1.7-0.1-2.6-0.3
			c1.7,5.5,6.9,9.6,13,9.7c-4.8,3.7-10.8,6-17.3,6c-1.1,0-2.3-0.1-3.3-0.2c6.3,4,13.6,6.3,21.4,6.3C61,75.6,75,54.4,75,35.9L75,34.1
			C77.8,32.2,80.1,29.7,82,26.9z"/>
	</g>
</g>
</svg>
