<?xml version="1.0" encoding="utf-8"?>
<!-- Generator: Adobe Illustrator 19.2.1, SVG Export Plug-In . SVG Version: 6.00 Build 0)  -->
<svg version="1.1" id="Calque_1" xmlns="http://www.w3.org/2000/svg" xmlns:xlink="http://www.w3.org/1999/xlink" x="0px" y="0px"
	 viewBox="0 0 19 21" style="enable-background:new 0 0 19 21;" xml:space="preserve">
<style type="text/css">
	.st0{filter:url(#Adobe_OpacityMaskFilter);}
	.st1{fill:#FFFFFF;}
	.st2{mask:url(#mask-2);}
</style>
<title>Group 2</title>
<desc>Created with Sketch.</desc>
<g id="Symbols">
	<g id="NAV" transform="translate(-1166.000000, -6.000000)">
		<g id="Group-2" transform="translate(1166.000000, 6.000000)">
			<path id="Fill-1" d="M9.5,10.5c3,0,5.4-2.4,5.4-5.3c0-2.9-2.4-5.3-5.4-5.3c-3,0-5.4,2.4-5.4,5.3C4.1,8.2,6.5,10.5,9.5,10.5"/>
			<g id="Group-5" transform="translate(0.000000, 12.134032)">
				<g id="Clip-4">
				</g>
				<defs>
					<filter id="Adobe_OpacityMaskFilter" filterUnits="userSpaceOnUse" x="0" y="0.1" width="18.9" height="7.9">
						<feColorMatrix  type="matrix" values="1 0 0 0 0  0 1 0 0 0  0 0 1 0 0  0 0 0 1 0"/>
					</filter>
				</defs>
				<mask maskUnits="userSpaceOnUse" x="0" y="0.1" width="18.9" height="7.9" id="mask-2">
					<g class="st0">
						<polygon id="path-1" class="st1" points="0,0.1 0,8 18.9,8 18.9,0.1 						"/>
					</g>
				</mask>
				<path id="Fill-3" class="st2" d="M18.9,5.3c0-2.9-2.4-5.3-5.4-5.3H5.4C2.4,0.1,0,2.4,0,5.3V8h18.9V5.3z"/>
			</g>
		</g>
	</g>
</g>
</svg>
