<svg id="aa086a7f-9272-4810-a520-360c3d1ea8b1" data-name="Calque 1" xmlns="http://www.w3.org/2000/svg" viewBox="0 0 26 26">
  <title>video-bar-fullscreen</title>
  <g id="b4a8fcc8-b66d-477d-8522-c0b2f60f3279" data-name="Symboles">
    <g id="a070b014-4fce-4d59-9ff2-5995303c1136" data-name="picto-full-screen">
      <g id="a6be43bd-031b-434d-a1e2-0ac7708ce911" data-name="Group">
        <path d="M22,3.18H16.42c-.42,0-.92.42-.84.84a.84.84,0,0,0,.84.83h4.73V9.58c0,.42.42.92.83.84a.84.84,0,0,0,.84-.84V4A.9.9,0,0,0,22,3.18Z" style="fill: #fff;stroke: #fff;stroke-width: 1.2228762422098072px"/>
        <path d="M9.68,3.18H4.12A.84.84,0,0,0,3.28,4V9.58c0,.42.42.92.84.84A.84.84,0,0,0,5,9.58V4.85H9.68c.42,0,.92-.42.84-.83A.84.84,0,0,0,9.68,3.18Z" style="fill: #fff;stroke: #fff;stroke-width: 1.2228762422098072px"/>
        <path d="M22,15.48a.84.84,0,0,0-.83.84v4.73H16.42c-.42,0-.92.42-.84.83a.84.84,0,0,0,.84.84H22a.84.84,0,0,0,.84-.84V16.32C22.82,15.9,22.4,15.4,22,15.48Z" style="fill: #fff;stroke: #fff;stroke-width: 1.2228762422098072px"/>
        <path d="M9.68,21.05H5V16.32c0-.42-.42-.92-.83-.84a.84.84,0,0,0-.84.84v5.56a.84.84,0,0,0,.84.84H9.68c.42,0,.92-.42.84-.84A.84.84,0,0,0,9.68,21.05Z" style="fill: #fff;stroke: #fff;stroke-width: 1.2228762422098072px"/>
      </g>
    </g>
  </g>
  <rect width="26" height="26" style="fill: none"/>
</svg>
