<?xml version="1.0" encoding="UTF-8"?>
<svg width="65px" height="65px" viewBox="0 0 65 65" version="1.1" xmlns="http://www.w3.org/2000/svg" xmlns:xlink="http://www.w3.org/1999/xlink">
    <title>CTA-play</title>
    <g id="Symbols" stroke="none" stroke-width="1" fill="none" fill-rule="evenodd">
        <g id="bloc-newsroom-video" transform="translate(-30.000000, -101.000000)">
            <g id="CTA-play" transform="translate(30.000000, 101.000000)">
                <circle id="Oval" fill="#FF503A" cx="32.5" cy="32.5" r="32.5"></circle>
                <g id="play-icon" transform="translate(27.857143, 23.545918)" fill="#FFFFFF">
                    <path d="M7.47814196,3.32848668 L13.6229991,13.0578437 C13.9179152,13.5247944 13.7784538,14.1424095 13.3115031,14.4373256 C13.151686,14.5382628 12.9665335,14.5918367 12.7775102,14.5918367 L0.48779597,14.5918367 C-0.0644887803,14.5918367 -0.51220403,14.1441215 -0.51220403,13.5918367 C-0.51220403,13.4028134 -0.458630086,13.2176609 -0.357692933,13.0578437 L5.78716416,3.32848668 C6.08208034,2.86153605 6.69969543,2.72207458 7.16664605,3.01699077 C7.29234161,3.09637744 7.39875529,3.20279112 7.47814196,3.32848668 Z" id="Triangle" transform="translate(6.632653, 8.290816) rotate(-270.000000) translate(-6.632653, -8.290816) "></path>
                </g>
            </g>
        </g>
    </g>
</svg>