<?xml version="1.0" encoding="utf-8"?>
<!-- Generator: Adobe Illustrator 24.0.0, SVG Export Plug-In . SVG Version: 6.00 Build 0)  -->
<svg version="1.1" id="Calque_1" xmlns="http://www.w3.org/2000/svg" xmlns:xlink="http://www.w3.org/1999/xlink" x="0px" y="0px"
	 viewBox="0 0 49 49" style="enable-background:new 0 0 49 49;" xml:space="preserve">
<style type="text/css">
	.st0{fill:#FFFFFF;}
</style>
<title>Picto-action-sound-off</title>
<desc>Created with Sketch.</desc>
<g id="_x30_4_x2F_11_x2F_19">
	<g id="_x30_7-HOME-Grand-ecran" transform="translate(-1829.000000, -133.000000)">
		<g id="Group-6" transform="translate(0.000000, 100.000000)">
			<g id="Picto-action-sound-off-blc" transform="translate(1831.000000, 35.000000)">
				<g id="Group-7">
					<path class="st0" d="M22.5,46.6c-13.2,0-24-10.8-24-24s10.8-24,24-24s24,10.8,24,24S35.7,46.6,22.5,46.6z M22.5,1.6
						c-11.6,0-21,9.4-21,21c0,11.6,9.4,21,21,21c11.6,0,21-9.4,21-21C43.5,11.1,34.1,1.6,22.5,1.6z"/>
					<path id="Shape" class="st0" d="M23.7,32.7c0,0.7-0.6,1.2-1.2,1.2c-0.3,0-0.6-0.1-0.9-0.4L15.2,27H9.1c-0.7,0-1.2-0.6-1.2-1.2
						v-7.5l0,0c0-0.7,0.6-1.2,1.2-1.2h6.1l6.5-6.5c0.2-0.2,0.5-0.4,0.9-0.4c0.7,0,1.2,0.6,1.2,1.2V32.7z M36.3,26.4
						c-0.3,0.3-0.7,0.4-1.1,0.4c-0.4,0-0.8-0.1-1.1-0.4l-2-2.2l-2.1,2.1c-0.3,0.3-0.7,0.4-1.1,0.4c-0.4,0-0.8-0.1-1.1-0.4
						c-0.6-0.6-0.6-1.5,0-2.1l2.1-2.1l-2-2c-0.6-0.6-0.6-1.5,0-2.1s1.5-0.6,2.1,0l2,2l2-2c0.6-0.6,1.5-0.6,2.1,0s0.6,1.5,0,2.1l-2,2
						l2.1,2.1C36.9,24.8,36.9,25.8,36.3,26.4z"/>
				</g>
			</g>
		</g>
	</g>
</g>
</svg>
