<?xml version="1.0" encoding="utf-8"?>
<!-- Generator: Adobe Illustrator 24.0.0, SVG Export Plug-In . SVG Version: 6.00 Build 0)  -->
<svg version="1.1" id="Calque_1" xmlns="http://www.w3.org/2000/svg" xmlns:xlink="http://www.w3.org/1999/xlink" x="0px" y="0px"
	 viewBox="0 0 27.4 27.4" style="enable-background:new 0 0 27.4 27.4;" xml:space="preserve">
<style type="text/css">
	.st0{fill:#FFFFFF;stroke:#FFFFFF;stroke-width:1.4714;}
</style>
<title>Group</title>
<desc>Created with Sketch.</desc>
<g id="Symboles">
	<g id="picto-full-screen" transform="translate(-3.000000, -3.000000)">
		
			<g id="Group" transform="translate(12.000000, 12.000000) scale(-1, -1) translate(-12.000000, -12.000000) translate(4.000000, 4.000000)">
			<path class="st0" d="M-7.5,15.1c0.8,0,1.5,0,2.3,0c1.2,0,2.4,0,3.6,0c0.3,0,0.6,0,0.8,0c0.5,0,1.1-0.5,1-1c0-0.6-0.5-1-1-1
				c-0.8,0-1.5,0-2.3,0c-1.1,0-2.3,0-3.4,0c0-0.4,0-0.8,0-1.3c0-1.2,0-2.4,0-3.6c0-0.3,0-0.6,0-0.8c0-0.5-0.5-1.1-1-1
				c-0.6,0-1,0.5-1,1c0,0.8,0,1.5,0,2.3c0,1.2,0,2.4,0,3.6c0,0.3,0,0.6,0,0.8C-8.5,14.6-8,15.1-7.5,15.1z"/>
			<path class="st0" d="M7.3,15.1c0.8,0,1.5,0,2.3,0c1.2,0,2.4,0,3.6,0c0.3,0,0.6,0,0.8,0c0.6,0,1-0.5,1-1c0-0.8,0-1.5,0-2.3
				c0-1.2,0-2.4,0-3.6c0-0.3,0-0.6,0-0.8c0-0.5-0.5-1.1-1-1c-0.6,0-1,0.5-1,1c0,0.8,0,1.5,0,2.3c0,1.1,0,2.3,0,3.4
				c-0.4,0-0.8,0-1.3,0c-1.2,0-2.4,0-3.6,0c-0.3,0-0.6,0-0.8,0c-0.5,0-1.1,0.5-1,1C6.3,14.6,6.7,15.1,7.3,15.1z"/>
			<path class="st0" d="M-7.5,0.3c0.6,0,1-0.5,1-1c0-0.8,0-1.5,0-2.3c0-1.1,0-2.3,0-3.4c0.4,0,0.8,0,1.3,0c1.2,0,2.4,0,3.6,0
				c0.3,0,0.6,0,0.8,0c0.5,0,1.1-0.5,1-1c0-0.6-0.5-1-1-1c-0.8,0-1.5,0-2.3,0c-1.2,0-2.4,0-3.6,0c-0.3,0-0.6,0-0.8,0
				c-0.6,0-1,0.5-1,1c0,0.8,0,1.5,0,2.3c0,1.2,0,2.4,0,3.6c0,0.3,0,0.6,0,0.8C-8.5-0.2-8,0.4-7.5,0.3z"/>
			<path class="st0" d="M7.3-6.4c0.8,0,1.5,0,2.3,0c1.1,0,2.3,0,3.4,0c0,0.4,0,0.8,0,1.3c0,1.2,0,2.4,0,3.6c0,0.3,0,0.6,0,0.8
				c0,0.5,0.5,1.1,1,1c0.6,0,1-0.5,1-1c0-0.8,0-1.5,0-2.3c0-1.2,0-2.4,0-3.6c0-0.3,0-0.6,0-0.8c0-0.6-0.5-1-1-1c-0.8,0-1.5,0-2.3,0
				c-1.2,0-2.4,0-3.6,0c-0.3,0-0.6,0-0.8,0c-0.5,0-1.1,0.5-1,1C6.3-6.9,6.7-6.4,7.3-6.4z"/>
		</g>
	</g>
</g>
</svg>
