<?xml version="1.0" encoding="utf-8"?>
<!-- Generator: Adobe Illustrator 24.0.3, SVG Export Plug-In . SVG Version: 6.00 Build 0)  -->
<svg version="1.1" id="Calque_1" xmlns="http://www.w3.org/2000/svg" xmlns:xlink="http://www.w3.org/1999/xlink" x="0px" y="0px"
	 viewBox="0 0 26 26" style="enable-background:new 0 0 26 26;" xml:space="preserve">
<style type="text/css">
	.st0{fill:#FFFFFF;}
	.st1{fill-rule:evenodd;clip-rule:evenodd;fill:none;}
</style>
<title>Picto-action-sound-off</title>
<desc>Created with Sketch.</desc>
<g id="_x30_4_x2F_11_x2F_19">
	<g id="_x30_7-HOME-Grand-ecran" transform="translate(-1829.000000, -133.000000)">
		<g id="Group-6" transform="translate(0.000000, 100.000000)">
			<g id="Picto-action-sound-off-blc" transform="translate(1831.000000, 35.000000)">
				<g id="Group-7">
					<path id="Shape" class="st0" d="M12,18.9c0,0.5-0.5,0.9-0.9,0.9c-0.2,0-0.5-0.1-0.7-0.3l-4.9-4.9H0.9c-0.5,0-0.9-0.5-0.9-0.9V8
						l0,0c0-0.5,0.5-0.9,0.9-0.9h4.6l4.9-4.9c0.2-0.2,0.4-0.3,0.7-0.3c0.5,0,0.9,0.5,0.9,0.9L12,18.9L12,18.9z M19.8,7.7
						c0.5-0.5,1.1-0.5,1.6,0c0.5,0.5,0.5,1.1,0,1.6l-1.5,1.5l1.6,1.6c0.5,0.5,0.5,1.2,0.1,1.7c-0.2,0.2-0.5,0.3-0.8,0.3
						c-0.3,0-0.6-0.1-0.8-0.3l-1.5-1.7L16.7,14c-0.2,0.2-0.5,0.3-0.8,0.3c-0.3,0-0.6-0.1-0.8-0.3c-0.5-0.5-0.5-1.1,0-1.6l1.6-1.6
						l-1.5-1.5c-0.5-0.5-0.5-1.1,0-1.6c0.5-0.5,1.1-0.5,1.6,0l1.5,1.5L19.8,7.7z"/>
				</g>
			</g>
		</g>
	</g>
</g>
<rect class="st1" width="26" height="26"/>
</svg>
