<?xml version="1.0" encoding="utf-8"?>
<!-- Generator: Adobe Illustrator 24.2.1, SVG Export Plug-In . SVG Version: 6.00 Build 0)  -->
<svg version="1.1" id="Capa_1" xmlns="http://www.w3.org/2000/svg" xmlns:xlink="http://www.w3.org/1999/xlink" x="0px" y="0px"
	 viewBox="0 0 96 96" style="enable-background:new 0 0 96 96;" xml:space="preserve">
<g>
	<path d="M73.5,19.5c7.1,0.2,10.6,4.2,10.7,12.1c0,0.5,0,1.1,0,1.6c-0.3,6.7-5.3,15.8-14.9,27.3c-9.9,12.1-18.4,18.1-25.3,18.1
		c-4.3,0-7.9-3.7-10.8-11.1l-3-10.1l-3-10.1c-2.2-7.3-4.5-11-7.1-11c-0.5,0-2.4,1.1-5.7,3.2l-3.5-4.1l5.4-4.5l5.3-4.4
		c4.8-3.8,8.4-5.9,10.9-6.2c0.3,0,0.7,0,1,0c5.1,0,8.3,3.7,9.5,11c0.7,4.2,1.3,7.6,1.7,10.2c0.5,2.6,0.8,4.4,1.1,5.5
		c1.7,6.9,3.5,10.4,5.4,10.4c1.5,0,3.8-2.3,6.9-6.8c3-4.6,4.7-8.1,4.9-10.3c0.1-0.5,0.1-0.9,0.1-1.3c0-3-1.7-4.5-5-4.5
		c-1.7,0-3.5,0.4-5.4,1.1c3.4-10.6,10.1-15.9,19.9-16C72.9,19.5,73.2,19.5,73.5,19.5z"/>
</g>
</svg>
