<?xml version="1.0" encoding="utf-8"?>
<!-- Generator: Adobe Illustrator 21.0.0, SVG Export Plug-In . SVG Version: 6.00 Build 0)  -->
<svg version="1.1" id="Capa_1" xmlns="http://www.w3.org/2000/svg" xmlns:xlink="http://www.w3.org/1999/xlink" x="0px" y="0px"
	 viewBox="0 0 25 25" style="enable-background:new 0 0 25 25;" xml:space="preserve">
<style type="text/css">
	.st0{fill:#FFFFFF;}
</style>
<g>
	<g>
		<path class="st0" d="M21.5,7.8c-0.2-1-1-1.7-2-1.8c-2.3-0.3-4.7-0.3-7-0.3c-2.3,0-4.7,0-7,0.3c-1,0.1-1.8,0.8-2,1.8
			c-0.3,1.4-0.3,3-0.3,4.4s0,3,0.3,4.4c0.2,1,1,1.7,2,1.8c2.3,0.3,4.7,0.3,7,0.3s4.7,0,7-0.3c1-0.1,1.8-0.8,2-1.8
			c0.3-1.4,0.3-3,0.3-4.5S21.8,9.2,21.5,7.8z M10.1,15.2c0-2.1,0-4.1,0-6.2c2,1,4,2.1,5.9,3.1C14,13.1,12.1,14.1,10.1,15.2z"/>
	</g>
</g>
</svg>
