<?xml version="1.0" encoding="utf-8"?>
<!-- Generator: Adobe Illustrator 21.0.0, SVG Export Plug-In . SVG Version: 6.00 Build 0)  -->
<svg version="1.1" id="Capa_1" xmlns="http://www.w3.org/2000/svg" xmlns:xlink="http://www.w3.org/1999/xlink" x="0px" y="0px"
	 viewBox="0 0 96 96" style="enable-background:new 0 0 96 96;" xml:space="preserve">
<g>
	<path d="M82.6,30c-0.9-3.8-4-6.7-7.8-7c-8.9-1-18-1-26.9-1c-9,0-18,0-26.9,1c-3.7,0.4-6.9,3.2-7.8,7C12,35.5,12,41.4,12,47
		s0,11.5,1.3,17c0.8,3.8,4,6.7,7.7,7c9,1,18,1,26.9,1s17.9,0,26.9-1c3.7-0.4,6.9-3.2,7.8-7c1.3-5.5,1.3-11.4,1.3-17.1
		S83.9,35.5,82.6,30z M38.7,58.2c0-7.9,0-15.8,0-23.7c7.6,4,15.2,7.9,22.8,11.9C53.9,50.3,46.4,54.2,38.7,58.2z"/>
</g>
</svg>
