<?xml version="1.0" encoding="UTF-8"?>
<svg width="30px" height="21px" viewBox="0 0 30 21" version="1.1" xmlns="http://www.w3.org/2000/svg" xmlns:xlink="http://www.w3.org/1999/xlink">
    <!-- Generator: Sketch 59.1 (86144) - https://sketch.com -->
    <title>Group 6</title>
    <desc>Created with Sketch.</desc>
    <g id="Symbols" stroke="none" stroke-width="1" fill="none" fill-rule="evenodd">
        <g id="Footer" transform="translate(-1102.000000, -130.000000)" fill="#000000">
            <g id="footer">
                <g id="Group-25" transform="translate(381.000000, 127.000000)">
                    <g id="Group-23" transform="translate(635.000000, 0.000000)">
                        <g id="Group-6" transform="translate(86.000000, 3.000000)">
                            <g id="Group-5">
                                <path d="M11.8964384,14.3781713 L11.8950587,5.99569569 L19.99682,10.2015371 L11.8964384,14.3781713 Z M29.6844129,4.54354131 C29.6844129,4.54354131 29.3913992,2.48767344 28.4924266,1.58233686 C27.3522505,0.394069819 26.074227,0.388199166 25.4881409,0.318627538 C21.2923386,0.0168584145 14.9984149,0.0168584145 14.9984149,0.0168584145 L14.9853816,0.0168584145 C14.9853816,0.0168584145 8.6916047,0.0168584145 4.49565558,0.318627538 C3.90954012,0.388199166 2.6319863,0.394069819 1.49139922,1.58233686 C0.59239726,2.48767344 0.299853229,4.54354131 0.299853229,4.54354131 C0.299853229,4.54354131 0,6.95778192 0,9.37205174 L0,11.6354078 C0,14.0496192 0.299853229,16.4638598 0.299853229,16.4638598 C0.299853229,16.4638598 0.59239726,18.5197569 1.49139922,19.4250935 C2.6319863,20.6133313 4.13022505,20.5757708 4.79753425,20.7003104 C7.19627202,20.9291783 14.9919276,21.0000058 14.9919276,21.0000058 C14.9919276,21.0000058 21.2923386,20.9905719 25.4881409,20.6887736 C26.074227,20.6192312 27.3522505,20.6133313 28.4924266,19.4250935 C29.3913992,18.5197569 29.6844129,16.4638598 29.6844129,16.4638598 C29.6844129,16.4638598 29.9838258,14.0496192 29.9838258,11.6354078 L29.9838258,9.37205174 C29.9838258,6.95778192 29.6844129,4.54354131 29.6844129,4.54354131 L29.6844129,4.54354131 Z" id="Fill-3"></path>
                            </g>
                        </g>
                    </g>
                </g>
            </g>
        </g>
    </g>
</svg>