<?xml version="1.0" encoding="UTF-8"?><svg id="a" xmlns="http://www.w3.org/2000/svg" viewBox="0 0 32 32"><path d="M13.2,11.71v8.57l7.28-4.29-7.28-4.29Zm2.89-5.71h.16c1.44,0,8.73,.06,10.69,.6,1.21,.33,2.15,1.3,2.48,2.53,.18,.68,.3,1.57,.39,2.49l.02,.19,.04,.46v.19c.13,1.63,.14,3.15,.14,3.48v.13c0,.35-.02,1.97-.14,3.67v.19l-.03,.19c-.09,1.02-.22,2.03-.41,2.77-.32,1.23-1.27,2.19-2.48,2.53-2.03,.56-9.75,.59-10.82,.6h-.25c-.54,0-2.78-.01-5.12-.09h-.3l-.15-.02h-.3l-.3-.02c-1.94-.09-3.79-.23-4.64-.46-1.21-.33-2.15-1.29-2.48-2.53-.19-.74-.32-1.75-.41-2.77v-.19l-.03-.19c-.09-1.21-.13-2.41-.14-3.62v-.22c0-.38,.02-1.7,.11-3.16v-.18l.02-.09v-.19l.05-.46,.02-.19c.08-.92,.21-1.82,.39-2.49,.32-1.23,1.27-2.19,2.48-2.53,.85-.23,2.7-.37,4.64-.46h.3l.3-.02h.15l.3-.02c1.67-.05,3.33-.08,5-.09h.34Z"/></svg>