<?xml version="1.0" encoding="UTF-8"?>
<svg width="23px" height="24px" viewBox="0 0 23 24" version="1.1" xmlns="http://www.w3.org/2000/svg" xmlns:xlink="http://www.w3.org/1999/xlink">
    <!-- Generator: Sketch 51.2 (57519) - http://www.bohemiancoding.com/sketch -->
    <title>icon-theme-plugin-files</title>
    <desc>Created with Sketch.</desc>
    <defs></defs>
    <g id="Page-1" stroke="none" stroke-width="1" fill="none" fill-rule="evenodd">
        <g id="icon-theme-plugin-files" fill="#002040" fill-rule="nonzero">
            <path d="M4.759,5.753 L4.746,5.753 L4.746,6.711 C4.711,8.325 9.151,8.329 9.097,6.711 L9.097,5.754 C8.968,4.226 4.871,4.218 4.759,5.753 Z M8.304,5.9 C8.304,6.214 7.69,6.471 6.934,6.471 C6.179,6.471 5.564,6.215 5.564,5.9 C5.564,5.585 6.179,5.33 6.934,5.33 C7.69,5.33 8.304,5.586 8.304,5.9 Z M0,6.079 L0.009,6.084 L0,6.065 L11.5,0 L23,6.142 L23,11.373 L12,17.171 L12,11.86 L21.864,6.67 L11.497,1.153 L1.166,6.607 L11,11.836 L11,17.167 L0,11.309 L0,6.079 Z M23,12.513 L23,18.326 L12,24 L12,18.311 L23,12.513 Z M9.308,9.143 C9.273,10.758 13.714,10.761 13.659,9.143 L13.659,8.186 C13.53,6.658 9.434,6.65 9.322,8.185 L9.308,8.185 L9.308,9.143 Z M11.496,7.762 C12.251,7.762 12.866,8.017 12.866,8.332 C12.866,8.646 12.251,8.902 11.496,8.902 C10.741,8.902 10.126,8.647 10.126,8.332 C10.126,8.017 10.741,7.762 11.496,7.762 Z M13.658,4.408 L13.658,3.452 C13.528,1.925 9.433,1.917 9.321,3.451 L9.308,3.451 L9.308,4.408 C9.272,6.023 13.714,6.026 13.658,4.408 Z M11.497,3.027 C12.251,3.027 12.867,3.283 12.867,3.598 C12.867,3.912 12.251,4.169 11.497,4.169 C10.741,4.169 10.127,3.912 10.127,3.598 C10.127,3.284 10.741,3.027 11.497,3.027 Z M18.209,6.711 L18.209,5.754 C18.079,4.226 13.983,4.218 13.873,5.753 L13.859,5.753 L13.859,6.711 C13.822,8.326 18.264,8.329 18.209,6.711 Z M14.677,5.901 C14.677,5.587 15.292,5.331 16.047,5.331 C16.803,5.331 17.418,5.587 17.418,5.901 C17.418,6.215 16.803,6.471 16.047,6.471 C15.292,6.471 14.677,6.215 14.677,5.901 Z M11,18.309 L11,24 L3.55271368e-15,18.327 L3.55271368e-15,12.452 L11,18.309 Z" id="Shape"></path>
        </g>
    </g>
</svg>