<svg id="Layer_1" data-name="Layer 1" xmlns="http://www.w3.org/2000/svg" viewBox="0 0 459 459"><defs><style>.cls-1{fill:#a5ddf1;}.cls-2{fill:#80bdd4;}.cls-3{fill:#042340;}</style></defs><title>mdb-banner</title><rect class="cls-1" width="459" height="459"/><path class="cls-2" d="M144.9,379.68a6.21,6.21,0,0,1-.57-.49,19.06,19.06,0,0,0-2.8-2,11.73,11.73,0,0,1-1.79-1,60.76,60.76,0,0,0-58.9-39.53,86.13,86.13,0,0,0-11.22,1.53,54.56,54.56,0,0,0-14,5.1l-3.82,2.3a30.65,30.65,0,0,0-2-5.1,52.49,52.49,0,0,0-18.36-21.68,77.52,77.52,0,0,0,38-41.05c0-.26.26-.77.26-1s.25-.51.25-.77a66.1,66.1,0,0,0,3.06-10.2,74.47,74.47,0,0,0,1.28-7.9,74.61,74.61,0,0,0-1.53-24.74,102.43,102.43,0,0,0-4.08-12.49,77.64,77.64,0,0,0-16.07-24A59.74,59.74,0,0,0,46.67,191a68.93,68.93,0,0,0-10-6.89,79,79,0,0,0-25.24-9.18c-3.32-.51-6.89-.76-10.2-1,2.8-1,5.61-1.78,8.41-2.55A63.89,63.89,0,0,1,63.24,183.6a22,22,0,0,1,7.14,6.63c1.53,1.79,3.06,3.57,4.34,5.36a46.11,46.11,0,0,1,26,82.62,71.67,71.67,0,0,1,24.22,11,84,84,0,0,1,36.47-19.38,79.36,79.36,0,0,1,49.47,4.34,44.8,44.8,0,0,1,23.2-6.63c23.46.25,42.58,19.38,42.33,42.84v2.29a24.75,24.75,0,0,1,22.7,24.74,19.91,19.91,0,0,1-.77,5.61,76.42,76.42,0,0,1,83.38,58.9c.26,2,.77,4.08,1,6.12a69.75,69.75,0,0,1,39,47.94c.23,1,.44,2,.62,3.06H416.1a47.52,47.52,0,0,0-4.53-7.91,53,53,0,0,0-45.9-22.69,35.11,35.11,0,0,0-5.1.51A22.1,22.1,0,0,0,341.19,419a24.7,24.7,0,0,0-4.34.51,2.92,2.92,0,0,1-.65.2l-.47.1a3,3,0,0,0-.66.2,9.35,9.35,0,0,0-2.81,1c-.51-1.53-1-2.8-1.53-4.08-1-2-2-4.08-3.06-5.86l-2.29-3.83c-7.14-10.2-18.36-18.36-31.62-23.71a92.31,92.31,0,0,0-33.15-6.12h-4.34a92.83,92.83,0,0,0-15,1.78,90.42,90.42,0,0,0-22.44,8.16,63.09,63.09,0,0,0-13.52,9.18c-3.57-.51-7.14-1-11-1.27h-3.83a75.63,75.63,0,0,0-10.71.76l-7.65,1.53a21.62,21.62,0,0,0-3.82,1,60,60,0,0,0-11.73,4.85c0-.51-.26-1.28-.26-1.79a17,17,0,0,0-.51-3.57,30.21,30.21,0,0,0-1.27-4.59,19.6,19.6,0,0,0-1.79-4.08,33.5,33.5,0,0,0-6.88-8.92,5,5,0,0,0-.57-.49l-.39-.29ZM206,354.45c0-2.81-2.8-5.35-6.37-5.1-3.32,0-6.12,2.55-6.12,5.36H188.7V345c-8.67,0-15.55,3.82-15.55,8.67v.76h-8.42c0,2.3,4.33,4.08,10.2,4.85a6.51,6.51,0,0,0-1.78,4.59c0,5.35,6.88,9.94,15.55,9.94V359.3c6.37-.77,11-2.55,11-4.85Zm28.82-31.87,15-28.82c-9.43-4.84-20.91-1.53-25.5,7.65a17.87,17.87,0,0,0-2,7.14l-9.94-9.43c-6.63,6.63-6.63,17.08-.26,23.2a.25.25,0,0,0,.26.26h-9.95c0,3.82,9.95,6.88,22.44,6.88,12.22,0,22-2.92,22.42-6.63h8.18c0-3.82-3.57-6.88-8.16-6.63-4.24,0-7.74,2.68-7.9,6.38h7.9v.25h-7.88v-.25Z"/><path class="cls-2" d="M423.3,300.65a17.61,17.61,0,0,0-11.48,4.59c-4.84-8.93-13.51-14.79-23.2-14.79-9.95,0-18.36,6.12-23.46,15.3h-.51c-8.16,0-14.79,7.9-14.79,17.85h92.05c.51-12.75-7.9-23-18.61-23"/><path class="cls-3" d="M0,173.91H1.27a65.76,65.76,0,0,1,10.2,1,73.24,73.24,0,0,1,25.25,9.18A68.29,68.29,0,0,1,46.66,191a61,61,0,0,1,5.87,5.61,73.31,73.31,0,0,1,16.06,24,71.24,71.24,0,0,1,4.08,12.49,73.55,73.55,0,0,1,1.53,24.74c-.25,2.55-.76,5.35-1.27,7.9a78.54,78.54,0,0,1-3.06,10.2c0,.26-.26.51-.26.77s-.25.76-.25,1c-7.14,17.59-20.4,32.64-38,41.05a52.42,52.42,0,0,1,18.36,21.68,29.81,29.81,0,0,1,2,5.1l3.83-2.3a61.4,61.4,0,0,1,14-5.1,57,57,0,0,1,11.22-1.53,60.79,60.79,0,0,1,58.91,39.53,10.51,10.51,0,0,1,1.78,1,11.32,11.32,0,0,1,2.81,2,6.6,6.6,0,0,1,1.53,1.27,33.39,33.39,0,0,1,6.88,8.93,27.37,27.37,0,0,1,1.79,4.08,30.21,30.21,0,0,1,1.27,4.59c.26,1.27.26,2.29.51,3.57a4.24,4.24,0,0,1,.26,1.78,59.38,59.38,0,0,1,11.73-4.84c1.27-.26,2.55-.77,3.82-1a39.88,39.88,0,0,1,7.65-1.53,70.61,70.61,0,0,1,10.71-.77h3.83a51.2,51.2,0,0,1,11,1.28,83.42,83.42,0,0,1,13.52-9.18,86.54,86.54,0,0,1,22.44-8.16,97.5,97.5,0,0,1,15-1.79h4.34a92.48,92.48,0,0,1,33.15,6.12c13.51,5.36,24.48,13.52,31.62,23.72l2.29,3.82a31.74,31.74,0,0,1,3.06,5.87c.51,1.27,1,2.8,1.54,4.08a12,12,0,0,1,2.8-1,2.55,2.55,0,0,1,.66-.21l.47-.1a3.18,3.18,0,0,0,.66-.2,27.79,27.79,0,0,1,4.33-.51,22.72,22.72,0,0,1,19.38,9.94,35.39,35.39,0,0,1,5.1-.51,52.47,52.47,0,0,1,45.9,22.7,49.63,49.63,0,0,1,4.62,7.9H0V173.91Z"/><path class="cls-2" d="M194.31,242.76h29.58c0-11.22-11.73-20.4-26-20.4A29.47,29.47,0,0,0,178.75,229c-.76,0-1.53-.25-2.55-.25-9.94,0-17.85,6.37-17.85,14Z"/><path class="cls-3" d="M199.92,349.35c-3.32,0-6.12,2.3-6.12,5.1H189v-9.69c-8.67,0-15.55,3.83-15.55,8.67v.77H165c0,2,4.08,3.82,10.2,4.84a7.35,7.35,0,0,0-1.78,4.59c0,5.61,6.88,9.95,15.55,9.95V359c6.38-.76,11-2.55,11-4.84h6.38c-.26-2.55-3.06-4.85-6.38-4.85"/><path class="cls-3" d="M100.21,173.4a13.48,13.48,0,0,0,4.34,17.6l1-1.53a14.35,14.35,0,0,0,13.26,8.67V173.66c4.34-.77,7.4-2.3,7.4-4.08h5.86c0-2.81-2.55-4.85-5.86-4.85s-5.87,2.3-5.87,4.85h-2.29a12.27,12.27,0,0,0-14,0H93.33c-.25,1.53,2.55,3.06,6.89,3.82"/><path class="cls-3" d="M196.35,196.61c16.32,0,29.32-4.08,29.32-8.93h10.46c0-4.84-4.59-8.92-10.46-8.92s-10.45,3.82-10.45,8.67h-7.14l18.1-35.19c-12-6.12-26.26-1.79-32.13,9.43a22.53,22.53,0,0,0-2.55,8.93l-11.22-11.73c-8.16,7.65-9.18,20.14-2.55,28.3H166.51c.26,5.36,13.52,9.44,29.84,9.44"/><path class="cls-3" d="M247.35,316c-4.33,0-7.91,3.06-7.91,6.63h16.07c0-3.57-3.57-6.63-8.16-6.63"/><path class="cls-3" d="M284.58,236.9a18.72,18.72,0,0,0-4.08,4.84c-6.38,10.2-3.32,24.23,7.14,31.11l1.78-2.8a24.62,24.62,0,0,0,22.7,15V237.66c9.69-1.27,16.32-4.33,16.32-7.65h9.94c0-4.59-4.33-8.16-9.94-8.16-5.35,0-9.69,3.57-9.95,8.16H272.85v.26c0,2.55,4.59,5.1,11.73,6.63"/><path class="cls-3" d="M249.9,293.76c-9.43-4.84-20.91-1.53-25.5,7.65a19,19,0,0,0-2,7.14l-10-9.43c-6.37,6.88-6.63,17.34-.25,23.2l.25.26h-9.94c0,3.82,9.94,6.88,22.44,6.88s22.44-3.06,22.44-6.88h-12.5Z"/><path class="cls-3" d="M342.47,195.59c28.81,0,52-7.14,52.27-15.81h18.62c0-8.67-8.42-15.56-18.62-15.56s-18.62,6.89-18.62,15.56H361.33V105.57A40,40,0,0,0,324.61,129l-2.8-4.33c-16.58,10.71-21.68,32.13-11.48,48.19a33.62,33.62,0,0,0,6.12,7.14H290.19c0,8.42,23.46,15.56,52.27,15.56"/></svg>