<?xml version="1.0" encoding="iso-8859-1"?>
<!-- Generator: Adobe Illustrator 19.0.0, SVG Export Plug-In . SVG Version: 6.00 Build 0)  -->
<svg version="1.1" id="Layer_1" xmlns="http://www.w3.org/2000/svg" xmlns:xlink="http://www.w3.org/1999/xlink" x="0px" y="0px"
	 viewBox="0 0 512 512" style="enable-background:new 0 0 512 512;" xml:space="preserve">
<path style="fill:#5DDDD3;" d="M255.999,0C397.385,0,512,114.613,512,256.001C512,397.385,397.385,512,255.999,512
	S0,397.385,0,256.001C0,114.613,114.615,0,255.999,0z"/>
<g>
	<path style="fill:#F5A209;" d="M450.359,244.56H61.643l194.358-114.723L450.359,244.56z"/>
	<path style="fill:#F5A209;" d="M61.641,244.56h388.716v229.45H61.641V244.56z"/>
</g>
<path style="fill:#FFFFFF;" d="M101.578,77.635h244.43l64.413,64.413v331.965H101.578V77.637V77.635z"/>
<path style="fill:#ECF0F1;" d="M148.146,162.641h215.701v4.864H148.146V162.641z M148.146,215.039L148.146,215.039h215.701v4.868
	H148.146V215.039z M148.146,224.064L148.146,224.064h215.701v4.866H148.146V224.064z M148.146,233.088L148.146,233.088h215.701
	v4.864H148.146V233.088z M148.146,242.113L148.146,242.113h215.712v4.864H148.146V242.113z M148.146,171.665L148.146,171.665
	h215.701v4.866H148.146V171.665z M148.146,180.69L148.146,180.69h215.701v4.866H148.146V180.69z M148.146,189.714L148.146,189.714
	h215.712v4.864H148.146V189.714z M148.144,198.739L148.144,198.739h165.225v4.864H148.144V198.739z M148.144,251.139
	L148.144,251.139h165.225v4.866H148.144V251.139z"/>
<path style="fill:#FFCA4F;" d="M346.01,77.635v64.413h64.413L346.01,77.635z"/>
<path style="fill:#B3B3B3;" d="M218.214,426.22h73.188v7.15h-73.188V426.22z"/>
<g>
	<path style="fill:#FBB429;" d="M61.641,244.56l194.358,114.723L61.641,474.01V244.56z"/>
	<path style="fill:#FBB429;" d="M450.359,244.56L256.001,359.283L450.359,474.01V244.56z"/>
</g>
<path style="fill:#F5A209;" d="M255.999,359.283L61.641,474.01h388.716L255.999,359.283z"/>
<path style="fill:#F7FAFA;" d="M410.42,206.456v-64.41h-64.41L410.42,206.456z"/>
<path style="fill:#FFCA4F;" d="M103.842,16.605c33.759,0,61.127,27.367,61.127,61.127s-27.369,61.127-61.127,61.127
	c-33.761,0-61.127-27.369-61.127-61.127C42.715,43.971,70.083,16.605,103.842,16.605z"/>
<g>
	<path style="fill:#FFFFFF;" d="M108.481,93.852c-1.905,2.207-4.039,3.98-6.412,5.318c-2.359,1.336-4.732,1.998-7.106,1.998
		c-2.615,0-5.153-0.765-7.631-2.282c-2.463-1.532-4.46-3.876-6.008-7.047c-1.548-3.168-2.313-6.654-2.313-10.44
		c0-4.67,1.202-9.342,3.59-14.029c2.388-4.67,5.36-8.184,8.908-10.544c3.545-2.344,7-3.515,10.334-3.515
		c2.553,0,4.987,0.659,7.313,1.998c2.315,1.338,4.313,3.38,5.98,6.099l1.548-6.835h7.84l-6.339,29.56
		c-0.889,4.116-1.323,6.383-1.323,6.817c0,0.798,0.3,1.488,0.902,2.059c0.602,0.571,1.336,0.855,2.176,0.855
		c1.561,0,3.605-0.886,6.129-2.674c3.349-2.344,6.008-5.483,7.962-9.432c1.951-3.936,2.926-7.99,2.926-12.182
		c0-4.897-1.261-9.463-3.768-13.699c-2.509-4.249-6.264-7.644-11.251-10.2c-4.97-2.538-10.484-3.814-16.508-3.814
		c-6.879,0-13.172,1.607-18.852,4.807c-5.693,3.215-10.109,7.812-13.231,13.805c-3.142,5.995-4.703,12.42-4.703,19.286
		c0,7.181,1.561,13.355,4.688,18.536c3.138,5.197,7.66,9.027,13.577,11.505c5.918,2.476,12.466,3.709,19.663,3.709
		c7.706,0,14.149-1.29,19.345-3.889c5.197-2.582,9.086-5.739,11.672-9.448h7.929c-1.501,3.08-4.07,6.233-7.704,9.432
		c-3.636,3.199-7.962,5.739-12.978,7.6c-5.018,1.863-11.071,2.794-18.131,2.794c-6.52,0-12.528-0.842-18.025-2.509
		c-5.512-1.667-10.197-4.176-14.074-7.523c-3.876-3.365-6.791-7.228-8.758-11.582c-2.463-5.541-3.695-11.52-3.695-17.934
		c0-7.135,1.473-13.952,4.403-20.426c3.587-7.931,8.681-14.014,15.275-18.236c6.595-4.22,14.585-6.324,23.989-6.324
		c7.285,0,13.833,1.486,19.632,4.46c5.799,2.974,10.38,7.404,13.714,13.293c2.855,5.062,4.282,10.577,4.282,16.523
		c0,8.502-2.99,16.043-8.967,22.635c-5.349,5.92-11.176,8.879-17.513,8.879c-2.031,0-3.651-0.317-4.897-0.933
		c-1.248-0.615-2.161-1.502-2.749-2.659C108.933,96.93,108.664,95.653,108.481,93.852z M87.123,81.954L87.123,81.954
		c0,4.026,0.961,7.148,2.871,9.373c1.905,2.238,4.086,3.349,6.562,3.349c1.638,0,3.365-0.498,5.197-1.473
		c1.817-0.992,3.561-2.447,5.214-4.385c1.665-1.938,3.018-4.401,4.07-7.375c1.065-2.974,1.592-5.962,1.592-8.965
		c0-3.982-0.992-7.091-2.974-9.285c-1.982-2.207-4.403-3.305-7.241-3.305c-1.876,0-3.651,0.481-5.318,1.427
		c-1.654,0.961-3.259,2.494-4.82,4.61c-1.548,2.103-2.809,4.67-3.742,7.706c-0.946,3.018-1.411,5.797-1.411,8.321V81.954z"/>
	<path style="fill:#FFFFFF;" d="M473.318,59.119l18.644,16.812l1.707,1.539l-1.707,1.537l-18.644,16.812l-2.767-3.074l14.638-13.203
		h-68.45v-4.145h68.45l-14.638-13.203l2.767-3.074V59.119z"/>
	<path style="fill:#FFFFFF;" d="M405.645,70.798l-18.642,16.814l-1.707,1.537l1.707,1.539l18.642,16.814l2.767-3.076l-14.638-13.203
		h68.45v-4.143h-68.45l14.638-13.205l-2.767-3.076V70.798z"/>
</g>
<g>
</g>
<g>
</g>
<g>
</g>
<g>
</g>
<g>
</g>
<g>
</g>
<g>
</g>
<g>
</g>
<g>
</g>
<g>
</g>
<g>
</g>
<g>
</g>
<g>
</g>
<g>
</g>
<g>
</g>
</svg>
