<?xml version="1.0" encoding="iso-8859-1"?>
<!-- Generator: Adobe Illustrator 19.0.0, SVG Export Plug-In . SVG Version: 6.00 Build 0)  -->
<svg version="1.1" id="Layer_1" xmlns="http://www.w3.org/2000/svg" xmlns:xlink="http://www.w3.org/1999/xlink" x="0px" y="0px"
	 viewBox="0 0 512 512" style="enable-background:new 0 0 512 512;" xml:space="preserve">
<path style="fill:#0E7886;" d="M256.001,512C397,512,512,397,512,255.999C512,114.999,397,0,256.001,0
	C115.001,0,0,114.999,0,255.999C0,397,115.001,512,256.001,512z"/>
<path style="fill:#FFFFFF;" d="M155.258,85.955c27.042,0,51.525,10.96,69.248,28.681c17.72,17.721,28.68,42.204,28.68,69.248
	c0,27.044-10.96,51.525-28.68,69.248c-17.723,17.721-42.206,28.683-69.248,28.683c-27.045,0-51.527-10.961-69.248-28.684
	c-17.721-17.721-28.684-42.203-28.684-69.247s10.962-51.527,28.683-69.248C103.731,96.915,128.212,85.955,155.258,85.955
	L155.258,85.955z M225.411,237.996L225.411,237.996c-6.175-2.92-14.101-5.262-23.102-7.034c-0.82,1.75-1.69,3.48-2.609,5.189
	c-7.287,13.558-17.626,25.72-31.015,35.315c19.09-2.902,36.179-11.897,49.219-24.937C220.584,243.85,223.09,240.999,225.411,237.996
	L225.411,237.996z M141.829,271.466L141.829,271.466c-13.388-9.595-23.729-21.757-31.015-35.315
	c-0.912-1.697-1.776-3.416-2.593-5.155c-8.983,1.768-16.909,4.102-23.114,7.005c2.32,3.001,4.826,5.85,7.505,8.528
	C105.65,259.569,122.739,268.565,141.829,271.466L141.829,271.466z M79.753,230.255L79.753,230.255
	c6.665-3.302,15.186-5.964,24.828-7.982c-3.97-10.827-6.201-22.223-6.694-33.689H66.786
	C67.583,203.811,72.224,218.018,79.753,230.255z M66.783,179.249L66.783,179.249h31.085c0.492-12.515,3.059-24.945,7.698-36.634
	c-9.33-1.897-17.65-4.385-24.308-7.467C72.83,147.922,67.619,163.006,66.783,179.249L66.783,179.249z M86.921,127.495
	L86.921,127.495c6.206,2.658,13.915,4.801,22.55,6.434c0.494-0.981,1.005-1.957,1.532-2.926c7.253-13.332,17.486-25.27,30.685-34.68
	c-19.033,2.925-36.069,11.905-49.077,24.914C90.617,123.232,88.718,125.32,86.921,127.495z M168.826,96.323L168.826,96.323
	c13.202,9.41,23.431,21.35,30.687,34.68c0.532,0.98,1.049,1.966,1.549,2.959c8.65-1.633,16.359-3.785,22.541-6.456
	c-1.799-2.178-3.701-4.272-5.698-6.269C204.895,108.23,187.86,99.25,168.826,96.323z M229.268,135.171L229.268,135.171
	c-6.632,3.094-14.954,5.59-24.303,7.485c4.629,11.678,7.188,24.095,7.679,36.593h31.087
	C242.894,163.017,237.688,147.94,229.268,135.171z M243.727,188.584L243.727,188.584h-31.098
	c-0.493,11.449-2.722,22.832-6.681,33.645c9.665,2.022,18.188,4.69,24.823,8.01C238.294,218.004,242.932,203.804,243.727,188.584z
	 M159.926,101.535L159.926,101.535v36.257c10.849-0.164,21.571-0.919,31.455-2.267l-0.039-0.072
	C184.123,122.185,173.65,110.431,159.926,101.535z M159.926,147.129L159.926,147.129v32.121h43.411
	c-0.51-11.97-3.094-23.846-7.744-34.939C184.422,146.004,172.22,146.944,159.926,147.129z M159.926,188.584L159.926,188.584v28.971
	c12.677,0.191,25.255,1.185,36.707,2.981c3.943-10.234,6.172-21.056,6.685-31.952L159.926,188.584L159.926,188.584z
	 M159.926,226.892L159.926,226.892v39.299c13.811-9.054,24.338-21,31.568-34.454c0.427-0.791,0.84-1.589,1.242-2.389
	C182.481,227.882,171.273,227.063,159.926,226.892L159.926,226.892z M150.589,266.192L150.589,266.192v-39.295
	c-11.335,0.184-22.534,1.011-32.796,2.483c0.397,0.791,0.806,1.577,1.226,2.36C126.252,245.195,136.775,257.138,150.589,266.192z
	 M150.589,217.56L150.589,217.56v-28.976h-43.392c0.514,10.91,2.746,21.747,6.696,31.99
	C125.354,218.769,137.927,217.765,150.589,217.56z M150.589,179.25L150.589,179.25v-32.127c-12.279-0.196-24.473-1.147-35.651-2.851
	c-4.662,11.104-7.248,22.994-7.761,34.978H150.589z M150.589,137.788L150.589,137.788v-36.254
	c-13.724,8.896-24.199,20.651-31.416,33.919l-0.025,0.042C129.038,136.849,139.752,137.613,150.589,137.788z"/>
<path style="fill:#5DDDD3;" d="M88.159,215.444l167.84,99.072l-167.84,99.073V215.444z"/>
<path style="fill:#20D0C2;" d="M423.838,215.444H88.159l167.84,99.07L423.838,215.444z"/>
<path style="fill:#5DDDD3;" d="M423.838,215.444l-167.839,99.072l167.839,99.073V215.444z"/>
<path style="fill:#20D0C2;" d="M255.999,314.516l-167.84,99.073h335.679L255.999,314.516z"/>
<path style="fill:#FF5B61;" d="M423.836,251.969c20.118,0,36.526-16.409,36.526-36.527c0-20.117-16.408-36.526-36.526-36.526
	s-36.526,16.409-36.526,36.526C387.31,235.559,403.719,251.969,423.836,251.969z"/>
<path style="fill:#FFFFFF;" d="M397.146,222.541v-14.193h19.594v-19.596h14.195v19.596h19.594v14.193h-19.594v19.596H416.74v-19.596
	H397.146z"/>
<path style="fill:#5DDDD3;" d="M282.142,114.256h110.284v5.861H282.142V114.256z M282.142,178.722L282.142,178.722h69.248v5.861
	h-69.248V178.722z M282.142,162.606L282.142,162.606h110.284v5.859H282.142V162.606z M282.142,146.491L282.142,146.491h88.485v5.859
	h-88.485V146.491z M282.142,130.374L282.142,130.374h110.284v5.859H282.142V130.374z"/>
<g>
</g>
<g>
</g>
<g>
</g>
<g>
</g>
<g>
</g>
<g>
</g>
<g>
</g>
<g>
</g>
<g>
</g>
<g>
</g>
<g>
</g>
<g>
</g>
<g>
</g>
<g>
</g>
<g>
</g>
</svg>
