<?xml version="1.0" encoding="utf-8"?>
<!-- Generator: Adobe Illustrator 16.0.4, SVG Export Plug-In . SVG Version: 6.00 Build 0)  -->
<!DOCTYPE svg PUBLIC "-//W3C//DTD SVG 1.1//EN" "http://www.w3.org/Graphics/SVG/1.1/DTD/svg11.dtd">
<svg version="1.1" id="Layer_1" xmlns="http://www.w3.org/2000/svg" xmlns:xlink="http://www.w3.org/1999/xlink" x="0px" y="0px"
	 width="412px" height="318.25px" viewBox="0 0 412 318.25" enable-background="new 0 0 412 318.25" xml:space="preserve">
<path id="photo-camera-4-icon" fill="#FFFFFF" d="M289.652,180.604c0,29.392-23.909,53.3-53.3,53.3
	c-29.39,0-53.297-23.908-53.297-53.3c0-29.389,23.909-53.296,53.297-53.296C265.742,127.307,289.652,151.215,289.652,180.604z
	 M412,51.25v267H0v-267h113.219c11.253,0,21.56-6.297,26.694-16.31L157.832,0h153.665l19.819,35.785
	c5.284,9.543,15.335,15.465,26.242,15.465H412z M104.831,109.5c0-11.322-9.178-20.5-20.5-20.5c-11.322,0-20.5,9.178-20.5,20.5
	s9.178,20.5,20.5,20.5C95.653,130,104.831,120.822,104.831,109.5z M335.5,180.604c0-54.667-44.477-96.854-99.146-96.854
	c-54.667,0-99.146,42.185-99.146,96.854c0,54.671,44.477,99.146,99.146,99.146C291.023,279.75,335.5,235.273,335.5,180.604z
	 M92.331,7.75h-65.5v27h65.5V7.75z"/>
</svg>
