<?xml version="1.0" encoding="UTF-8" standalone="no"?>
<svg width="114px" height="146px" viewBox="0 0 114 146" version="1.1" xmlns="http://www.w3.org/2000/svg" xmlns:xlink="http://www.w3.org/1999/xlink">
    <!-- Generator: Sketch 39.1 (31720) - http://www.bohemiancoding.com/sketch -->
    <title>fork9</title>
    <desc>Created with Sketch.</desc>
    <defs></defs>
    <g id="Symbols" stroke="none" stroke-width="1" fill="none" fill-rule="evenodd">
        <g id="fork9" fill="#777777">
            <g id="Group">
                <path d="M46.574,0.001 C45.161,0.001 43.939,0.517 42.907,1.549 C41.875,2.581 41.359,3.803 41.359,5.215 L41.359,39.108 C41.359,40.52 40.843,41.742 39.811,42.774 C38.778,43.806 37.557,44.322 36.144,44.322 C34.731,44.322 33.509,43.806 32.477,42.774 C31.445,41.742 30.929,40.52 30.929,39.108 L30.929,5.215 C30.929,3.803 30.413,2.581 29.381,1.549 C28.348,0.517 27.126,0.001 25.714,0.001 C24.302,0.001 23.08,0.517 22.048,1.549 C21.016,2.581 20.5,3.803 20.5,5.215 L20.5,39.108 C20.5,40.52 19.984,41.742 18.952,42.774 C17.92,43.806 16.698,44.322 15.286,44.322 C13.873,44.322 12.651,43.806 11.619,42.774 C10.587,41.742 10.071,40.52 10.071,39.108 L10.071,5.215 C10.071,3.803 9.555,2.581 8.523,1.549 C7.491,0.517 6.27,0.001 4.857,0.001 C3.444,0.001 2.222,0.517 1.19,1.549 C0.158,2.581 -0.358,3.803 -0.358,5.215 L-0.358,57.358 C-0.358,60.671 0.605,63.685 2.534,66.401 C4.463,69.117 6.975,71.018 10.071,72.104 L10.071,135.572 C10.071,138.396 11.103,140.839 13.167,142.904 C15.231,144.969 17.676,146 20.5,146 L30.928,146 C33.753,146 36.197,144.967 38.261,142.902 C40.325,140.839 41.357,138.394 41.357,135.57 L41.357,72.103 C44.453,71.017 46.964,69.115 48.893,66.4 C50.822,63.685 51.786,60.67 51.786,57.357 L51.786,5.214 C51.786,3.802 51.27,2.58 50.24,1.549 C49.208,0.517 47.987,0.001 46.574,0.001 L46.574,0.001 Z" id="Shape"></path>
                <path d="M112.809,1.548 C111.777,0.516 110.555,0 109.143,0 L88.286,0 C81.116,0 74.979,2.554 69.874,7.659 C64.769,12.764 62.215,18.902 62.215,26.072 L62.215,91.25 C62.215,91.957 62.474,92.567 62.989,93.084 C63.505,93.6 64.116,93.857 64.821,93.857 L83.071,93.857 L83.071,135.572 C83.071,138.396 84.104,140.839 86.168,142.904 C88.231,144.968 90.677,146 93.501,146 L103.928,146 C106.753,146 109.197,144.969 111.261,142.904 C113.325,140.839 114.359,138.396 114.359,135.572 L114.359,5.214 C114.357,3.802 113.841,2.58 112.809,1.548 L112.809,1.548 Z" id="Shape"></path>
            </g>
        </g>
    </g>
</svg>