<?xml version="1.0" encoding="UTF-8" standalone="no"?>
<svg width="126px" height="104px" viewBox="0 0 126 104" version="1.1" xmlns="http://www.w3.org/2000/svg" xmlns:xlink="http://www.w3.org/1999/xlink">
    <!-- Generator: Sketch 39.1 (31720) - http://www.bohemiancoding.com/sketch -->
    <title>inbox12</title>
    <desc>Created with Sketch.</desc>
    <defs></defs>
    <g id="Symbols" stroke="none" stroke-width="1" fill="none" fill-rule="evenodd">
        <g id="inbox12" fill="#777777">
            <path d="M123.534,49.637 L104.142,4.664 C103.599,3.305 102.609,2.165 101.169,1.242 C99.73,0.318 98.304,-0.143 96.892,-0.143 L29.107,-0.143 C27.695,-0.143 26.269,0.318 24.83,1.242 C23.391,2.165 22.399,3.305 21.856,4.664 L2.465,49.637 C1.107,52.95 0.428,56.291 0.428,59.658 L0.428,98.929 C0.428,100.341 0.944,101.563 1.976,102.595 C3.009,103.627 4.231,104.143 5.643,104.143 L120.357,104.143 C121.769,104.143 122.991,103.627 124.023,102.595 C125.054,101.563 125.57,100.341 125.57,98.929 L125.57,59.658 C125.57,56.291 124.893,52.95 123.534,49.637 L123.534,49.637 Z M83.775,57.214 L76.037,72.858 L49.965,72.858 L42.225,57.214 L16.479,57.214 C16.534,57.106 16.601,56.889 16.683,56.563 C16.765,56.238 16.833,56.02 16.887,55.912 L34.159,15.502 L91.842,15.502 L109.113,55.912 C109.169,56.075 109.236,56.293 109.316,56.563 C109.398,56.834 109.465,57.051 109.521,57.214 L83.775,57.214 L83.775,57.214 Z" id="Shape"></path>
        </g>
    </g>
</svg>