<?xml version="1.0" encoding="UTF-8" standalone="no"?>
<svg width="146px" height="114px" viewBox="0 0 146 114" version="1.1" xmlns="http://www.w3.org/2000/svg" xmlns:xlink="http://www.w3.org/1999/xlink">
    <!-- Generator: Sketch 39.1 (31720) - http://www.bohemiancoding.com/sketch -->
    <title>envelope5</title>
    <desc>Created with Sketch.</desc>
    <defs></defs>
    <g id="Symbols" stroke="none" stroke-width="1" fill="none" fill-rule="evenodd">
        <g id="envelope5" fill="#000000">
            <path d="M142.171,3.472 C139.618,0.919 136.549,-0.357 132.965,-0.357 L13.036,-0.357 C9.451,-0.357 6.382,0.919 3.829,3.472 C1.276,6.025 0,9.094 0,12.679 L0,101.323 C0,104.908 1.276,107.975 3.829,110.528 C6.382,113.083 9.451,114.358 13.036,114.358 L132.965,114.358 C136.549,114.358 139.618,113.083 142.171,110.528 C144.725,107.975 146,104.907 146,101.323 L146,12.679 C146,9.094 144.725,6.025 142.171,3.472 L142.171,3.472 Z M135.57,101.321 C135.57,102.027 135.312,102.638 134.796,103.154 C134.28,103.67 133.669,103.927 132.964,103.927 L13.035,103.927 C12.329,103.927 11.718,103.67 11.202,103.154 C10.686,102.638 10.428,102.027 10.428,101.321 L10.428,38.75 C12.166,40.705 14.04,42.498 16.05,44.127 C30.607,55.316 42.176,64.495 50.758,71.665 C53.528,74.001 55.782,75.82 57.52,77.124 C59.258,78.428 61.607,79.744 64.567,81.075 C67.527,82.406 70.311,83.07 72.918,83.07 L73,83.07 L73.081,83.07 C75.687,83.07 78.473,82.406 81.432,81.075 C84.393,79.744 86.743,78.428 88.481,77.124 C90.218,75.82 92.473,74.001 95.243,71.665 C103.825,64.495 115.393,55.316 129.95,44.127 C131.96,42.498 133.835,40.705 135.571,38.75 L135.571,101.321 L135.57,101.321 Z M135.57,14.797 L135.57,15.693 C135.57,18.897 134.308,22.469 131.783,26.406 C129.258,30.344 126.527,33.481 123.595,35.816 C113.111,44.073 102.222,52.681 90.923,61.643 C90.597,61.914 89.646,62.716 88.071,64.046 C86.497,65.377 85.247,66.397 84.323,67.102 C83.399,67.809 82.192,68.664 80.698,69.668 C79.204,70.672 77.833,71.42 76.584,71.908 C75.335,72.396 74.167,72.64 73.081,72.64 L73,72.64 L72.918,72.64 C71.832,72.64 70.665,72.396 69.415,71.908 C68.166,71.42 66.794,70.672 65.301,69.668 C63.808,68.664 62.599,67.809 61.676,67.102 C60.753,66.397 59.503,65.377 57.928,64.046 C56.353,62.716 55.402,61.914 55.076,61.643 C43.779,52.681 32.889,44.073 22.406,35.816 C14.421,29.516 10.429,21.803 10.429,12.678 C10.429,11.972 10.687,11.361 11.203,10.845 C11.719,10.329 12.33,10.071 13.036,10.071 L132.965,10.071 C133.399,10.315 133.779,10.383 134.106,10.275 C134.432,10.165 134.676,10.369 134.838,10.885 C135.001,11.401 135.15,11.645 135.286,11.618 C135.422,11.591 135.504,11.93 135.531,12.637 C135.556,13.343 135.57,13.698 135.57,13.698 L135.57,14.797 L135.57,14.797 Z" id="Shape"></path>
        </g>
    </g>
</svg>