<?xml version="1.0" standalone="no"?>
<!DOCTYPE svg PUBLIC "-//W3C//DTD SVG 20010904//EN"
 "http://www.w3.org/TR/2001/REC-SVG-20010904/DTD/svg10.dtd">
<svg version="1.0" xmlns="http://www.w3.org/2000/svg"
 width="700.000000pt" height="700.000000pt" viewBox="0 0 700.000000 700.000000"
 preserveAspectRatio="xMidYMid meet">
<metadata>
Created by potrace 1.11, written by Peter Selinger 2001-2013
</metadata>
<g transform="translate(0.000000,700.000000) scale(0.100000,-0.100000)"
fill="#000000" stroke="none">
<path d="M0 3500 l0 -3500 3500 0 3500 0 0 3500 0 3500 -3500 0 -3500 0 0
-3500z m5987 -5 l-513 -2760 -621 -3 c-586 -2 -622 -1 -627 15 -3 10 -172 738
-376 1618 -204 880 -374 1608 -378 1618 -5 12 -131 -611 -328 -1615 l-320
-1633 -634 -3 c-349 -1 -637 1 -641 5 -13 13 -1048 4097 -1041 4104 4 3 229
62 500 129 330 82 496 119 500 112 4 -6 158 -608 342 -1337 215 -851 337
-1320 342 -1308 4 10 138 675 298 1478 160 803 294 1467 299 1475 5 10 219 64
652 166 354 84 645 152 645 151 1 -1 158 -641 349 -1422 191 -781 351 -1428
354 -1437 3 -10 134 699 291 1575 l285 1592 565 126 c311 69 566 123 567 120
1 -3 -229 -1248 -510 -2766z"/>
</g>
</svg>
