<?xml version="1.0" encoding="UTF-8" standalone="no"?>
<svg width="104px" height="126px" viewBox="0 0 104 126" version="1.1" xmlns="http://www.w3.org/2000/svg" xmlns:xlink="http://www.w3.org/1999/xlink">
    <!-- Generator: Sketch 39.1 (31720) - http://www.bohemiancoding.com/sketch -->
    <title>text59</title>
    <desc>Created with Sketch.</desc>
    <defs></defs>
    <g id="Symbols" stroke="none" stroke-width="1" fill="none" fill-rule="evenodd">
        <g id="text59" fill="#777777">
            <g id="Group" transform="translate(-1.000000, 0.000000)">
                <path d="M103.514,37.58 C102.428,34.973 101.125,32.91 99.604,31.389 L74.184,5.969 C72.663,4.449 70.6,3.145 67.993,2.058 C65.386,0.972 62.996,0.429 60.824,0.429 L8.679,0.429 C6.507,0.429 4.66,1.189 3.139,2.71 C1.618,4.23 0.858,6.077 0.858,8.25 L0.858,117.75 C0.858,119.923 1.618,121.77 3.139,123.29 C4.66,124.81 6.507,125.571 8.679,125.571 L97.323,125.571 C99.495,125.571 101.341,124.81 102.861,123.29 C104.382,121.769 105.142,119.923 105.142,117.75 L105.142,44.75 C105.143,42.577 104.6,40.187 103.514,37.58 L103.514,37.58 Z M63.43,11.509 C65.004,12.052 66.118,12.65 66.77,13.301 L92.272,38.803 C92.922,39.455 93.52,40.568 94.063,42.143 L63.43,42.143 L63.43,11.509 L63.43,11.509 Z M94.715,115.143 L11.286,115.143 L11.286,10.858 L53,10.858 L53,44.751 C53,46.924 53.76,48.77 55.281,50.291 C56.802,51.811 58.648,52.572 60.822,52.572 L94.715,52.572 L94.715,115.143 L94.715,115.143 Z" id="Shape"></path>
                <path d="M81.68,83.857 L24.322,83.857 C23.562,83.857 22.937,84.101 22.448,84.589 C21.96,85.078 21.715,85.703 21.715,86.463 L21.715,91.678 C21.715,92.439 21.959,93.064 22.448,93.552 C22.937,94.04 23.562,94.284 24.322,94.284 L81.68,94.284 C82.44,94.284 83.065,94.04 83.553,93.552 C84.041,93.064 84.286,92.439 84.286,91.678 L84.286,86.463 C84.286,85.703 84.041,85.078 83.553,84.589 C83.064,84.102 82.439,83.857 81.68,83.857 L81.68,83.857 Z" id="Shape"></path>
                <path d="M22.448,63.732 C21.96,64.22 21.715,64.845 21.715,65.607 L21.715,70.821 C21.715,71.582 21.959,72.206 22.448,72.695 C22.937,73.183 23.562,73.427 24.322,73.427 L81.68,73.427 C82.44,73.427 83.065,73.183 83.553,72.695 C84.041,72.206 84.286,71.582 84.286,70.821 L84.286,65.607 C84.286,64.847 84.041,64.222 83.553,63.732 C83.064,63.244 82.439,63 81.68,63 L24.322,63 C23.562,63 22.937,63.244 22.448,63.732 L22.448,63.732 Z" id="Shape"></path>
            </g>
        </g>
    </g>
</svg>