<svg xmlns="http://www.w3.org/2000/svg" width="128" height="128" viewBox="0 0 128 128"><path d="M108.95 97.752c-.09-.74-.292-1.47-.35-2.212-.314-4.055.02-8.136-.556-12.192-.224-1.576-.053-3.21-.035-4.82.152-13.942-.27-27.873-.853-41.8-.02-.534-.025-1.074-.077-1.607-.308-3.084-.63-6.17-.94-9.257-.022-.21-.08-.46.003-.636.816-1.703.032-3.38-.13-5.05-.15-1.54-1.28-2.474-2.808-2.56-1.39-.086-2.784-.097-4.18-.1-6.434-.008-12.867-.003-19.304-.003v.02c-5.36 0-10.726-.025-16.09.012-2.676.018-5.364.04-8.03.253-4.91.394-9.796 1.023-14.73 1.17-1.594.044-3.185.173-4.783.376-1.902.235-3.814.378-5.71.732-1.68.315-3.39.467-5.078.715-1.43.21-2.378 1.035-2.638 2.443-.23 1.253-.374 2.54-.388 3.813-.117 10.605.117 21.22-.555 31.822-.364 5.665-.273 11.35-.564 17.028-.32 6.206-.166 12.437-.203 18.658-.002.853.024 1.723.166 2.564.547 3.296.784 6.56-.167 9.85-.42 1.453.437 2.497 1.956 2.698.53.067 1.07.082 1.6.1 2.246.072 4.5-.113 6.73.35.615.127 1.284.028 1.926-.03 3.406-.323 6.81-.708 10.22-.992 3.2-.264 6.408-.512 9.618-.625 6.75-.238 13.476-.927 20.236-.86 2.25.02 4.504-.038 6.757-.1 1.28-.038 2.562-.24 3.842-.214 2.46.044 4.93.102 7.38.332 3.264.3 6.38-.388 9.52-1.09.766-.17 1.463-.42 1.937-1.028.672-.86 1.382-1.047 2.5-.82 2.557.517 4.155-.874 4.113-3.425-.017-1.174-.2-2.345-.34-3.51zm-80.1-73.856c1.07.03 2.177-.04 3.2.203 2.64.617 5.308.62 7.984.65 1.28.012 2.546.047 3.83.27 1.353.235 2.777.102 4.163.043 1.71-.078 3.413-.333 5.123-.357 8.363-.12 16.728-.173 25.092-.28 4.068-.055 8.14-.202 12.208-.255 2.677-.036 5.344.018 8.026.246 3.202.274 2.94.245 2.78 3.182-.113 2.028-.334 4.058-.374 6.086-.082 4.18-.075 8.367-.107 12.55-.005.747.014 1.502-.01 2.25-.035 1.174-.3 1.445-1.583 1.447-5.146.018-10.296.003-15.442.01-.864.006-1.436-.323-1.632-1.2-.023-.102-.053-.206-.088-.31-.075-.2-.16-.396-.23-.6-.547-1.626-1.524-2.762-3.31-3.11-.932-.184-1.81-.677-2.742-.815-1.68-.248-2.688.43-3.168 2.016-.307 1.025-.512 2.08-.757 3.126-.168.712-.66 1.077-1.338 1.2-.42.076-.853.097-1.283.1-2.787.003-5.575.007-8.363-.012-.823-.006-1.037-.256-1.27-1.12-.332-1.237-.6-2.5-1.08-3.682-.575-1.43-1.272-1.756-2.77-1.632-3.123.25-5.573 2.294-6.41 5.356-.026.1-.026.21-.042.317-.123.86-.612 1.344-1.48 1.42-2.986.25-5.968.596-8.96.714-3.212.128-6.416.258-9.607.683-.83.11-1.164-.23-1.194-1.077-.03-.75-.02-1.5-.02-2.25v-10.94h-.105c0-3.862.003-7.724 0-11.585 0-.533-.03-1.07-.014-1.607.02-.627.384-1.043.968-1.03zM27.32 77.27c.14-4.283.046-8.57.505-12.85.247-2.338.123-4.716.186-7.076.02-.83.354-1.136 1.18-1.136 2.25.002 4.51.075 6.757 0 2.027-.066 4.05-.325 6.082-.446 2.137-.125 4.28-.203 6.42-.27.613-.02.992.393 1.163.934.16.505.205 1.047.355 1.557.267.922.52 1.853.883 2.74.3.735.876 1.142 1.743 1.196 3.934.225 6.865-1.994 7.56-5.51.043-.21.056-.427.08-.64.07-.625.44-.985 1.04-.988 3.005-.02 6.01-.02 9.014.002.685.002 1.138.433 1.31 1.18.123.52.198 1.053.262 1.584.42 3.514 4.874 5.634 8.18 2.934 1.094-.89 2.095-1.842 2.336-3.34.085-.527.284-1.034.416-1.55.123-.474.442-.75.9-.766 4.708-.177 9.42-.34 14.13-.49.532-.02 1.073.03 1.604.095.894.11 1.327.564 1.36 1.465.043 1.07.048 2.146.05 3.217.006 2.468.002 4.94.002 7.403h.09c0 3.435.014 6.867-.007 10.3-.006.835-.352 1.16-1.173 1.184-.86.023-1.717.02-2.575-.007-.746-.026-1.134-.373-1.38-1.112-.365-1.114-.675-2.253-1.133-3.327-.687-1.597-2.07-2.418-3.666-2.884-.384-.113-.846-.065-1.246.02-1.7.38-2.805 1.496-3.563 3-.14.28-.144.63-.273.916-.48 1.053-.22 2.587-1.35 3.13-.888.428-2.088.264-3.15.27-3.22.028-6.437-.005-9.656.018-.85.005-1.436-.305-1.78-1.088-.3-.685-.655-1.352-.927-2.048-.698-1.772-2.18-2.62-3.846-3.143-2.336-.74-4.195.004-5.553 2.065-.235.356-.425.743-.594 1.135-.335.773-.642 1.56-.958 2.34-.943.094-1.883.246-2.827.268-.956.02-2.03.165-2.85-.203-.902-.403-.837-1.664-1.096-2.552-.284-.984-.835-1.742-1.445-2.47-1.145-1.368-2.718-1.72-4.34-1.06-1.357.555-2.37 1.49-2.925 2.842-.446 1.084-.798 2.21-1.15 3.33-.26.828-.796 1.234-1.643 1.268-.317.015-.642.05-.962.032-2.923-.168-5.74.46-8.573 1.067-2.985.644-3.07.58-2.97-2.542zm74.442 22.525c-1.448.273-2.94.416-4.338.848-1.78.555-3.57.617-5.397.625-4.08.02-8.157.015-12.237.117-7.183.18-14.368.368-21.544.693-4.064.187-8.11.786-12.17.968-4.07.18-8.08 1.102-12.18.873-.732-.045-1.475.2-2.22.275-1.166.117-2.335.24-3.505.28-.224.007-.61-.316-.67-.547-.126-.513-.112-1.065-.115-1.6-.008-2.9-.003-5.795-.003-8.692h-.1c0-3.22-.017-6.44.01-9.66.008-1.002.383-1.372 1.364-1.38 3.648-.027 7.296-.035 10.944-.027 1.007.004 1.266.245 1.288 1.387.02 1.31.245 2.58.786 3.75 1.58 3.402 4.5 4.223 7.57 1.743 1.22-.985 1.793-2.388 2.388-3.764.252-.582.337-1.24.53-1.85.327-1.032.575-1.238 1.554-1.264.86-.02 1.717-.02 2.575-.007 1.766.03 1.87.068 2 1.717.11 1.408.43 2.76.966 4.045.786 1.89 2.752 2.835 4.73 2.352 2.81-.685 4.637-2.55 5.938-5.01.245-.47.395-1.003.506-1.52.13-.61.44-.96 1.06-.96 4.184-.01 8.372-.02 12.556-.004.753.004 1.05.328 1.276 1.178.36 1.344.672 2.703 1.088 4.03.443 1.402 1.707 1.84 2.95 2.21.266.08.618-.083.914-.18 1.146-.39 2.094-1.025 2.767-2.08.75-1.174 1.648-2.258 2.346-3.46.5-.868 1.155-1.187 2.093-1.13.32.015.644-.012.965-.024 3.008-.138 2.942-.1 2.936 2.985-.005 2.79.197 5.583.095 8.37-.056 1.598.98 3.102.29 4.713z"/></svg>