<svg xmlns="http://www.w3.org/2000/svg" width="128" height="128" viewBox="0 0 128 128"><path d="M103.357 91.787c-.896.132-1.78.38-2.68.472-.233.02-.642-.284-.733-.525-.197-.523-.296-1.1-.33-1.664-.045-.846.577-1.554 1.393-1.65.562-.063 1.135-.055 1.7-.12 1.24-.15 2.478-.318 3.71-.495 1.014-.145 1.566-.7 1.81-1.74.718-3.034.556-6.113.556-9.183.003-.485-.424-1.013-.75-1.45-.415-.568-.98-.91-1.742-.902-1.595.016-3.193.02-4.785-.052-.41-.02-.992-.242-1.17-.557-.565-.985-.95-2.057-.706-3.25.18-.897.66-1.34 1.657-1.353 1.48-.02 2.962.03 4.443-.008 1.535-.044 2.03-.5 2.24-1.98.06-.447.066-.91.078-1.36.06-2.39.14-4.783.135-7.17-.003-.367-.33-.91-.655-1.06-.702-.336-1.493-.63-2.26-.653-1.356-.04-2.726.075-4.076.23-1.734.198-1.78.204-2.037-1.364-.077-.448-.22-.898-.21-1.347.02-1.163.492-1.73 1.578-1.775 1.475-.06 2.944-.28 4.418-.366 1.39-.082 2.025-.98 2.325-2.133.515-2.01.433-4.07.163-6.11-.07-.55-.34-1.076-.555-1.603-.326-.817-.96-1.314-1.826-1.308-1.7.007-3.4.125-5.1.15-.255 0-.612-.19-.76-.403-.82-1.208-.18-2.453.16-3.59.197-.658 1.208-.38 1.87-.47.672-.097 1.35-.37 2.012-.324 1.864.117 3.21-1.006 4.69-1.806.687-.373.89-1.022.755-1.746-.124-.67-.284-1.343-.535-1.97-.52-1.3-.673-2.64-.598-4.02.017-.34.01-.684-.01-1.025-.07-1.232-.652-1.884-1.932-1.91-1.363-.018-2.726.124-4.088.196-.45.025-.902.1-1.35.08-.703-.03-1.32-.596-1.357-1.29-.077-1.364-.05-2.738-.156-4.098-.07-.895-.24-1.796-.48-2.66-.19-.675-.656-1.187-1.438-1.284-1.465-.184-2.923-.473-4.395-.55-4.08-.212-8.2.15-12.248-.703-.44-.093-.908-.064-1.366-.08-3.408-.113-6.795-.66-10.225-.512-.886.04-1.785-.312-2.69-.404-3.046-.32-6.095-.816-9.15-.84-3.75-.03-7.5.434-11.252.51-2.66.05-5.225.33-7.612 1.55-.873.45-1.346.224-2.003-.494-1.568-1.715-2.94-1.72-4.693-.25-.526.436-1.047.88-1.566 1.325-.738.638-1.056 1.47-1.045 2.42.003.567.163 1.15.08 1.698-.15.968-.472 1.71-1.723 1.703-1.022-.003-2.048.067-3.07.147-.84.066-1.486.515-2.012 1.163-.817 1-.448 2.446.757 2.76.654.167 1.342.228 2.02.274 3.025.214 2.83 1.206 2.698 3.57-.012.224-.11.443-.185.655-.206.575-.572.955-1.222 1.012-.907.082-1.82.124-2.704.31-.82.174-1.56 1.212-1.606 2.025-.046.785.783 1.646 1.755 1.81.223.037.455.06.68.053 3.2-.096 2.73.517 2.91 3.18.12 1.702-.212 2.878-2.04 3.276-.315.068-.6.323-.876.523-1.305.96-1.143 2.91.306 3.647.3.154.637.24.958.35 2.03.687 2.043.687 2.078 2.495.018 1.024.037 2.05-.006 3.075-.04.892.354 1.963-.363 2.613-.53.48-1.437.542-2.17.803-.213.074-.43.174-.604.313-.574.448-.832 1.048-.82 1.78.01.764.357 1.343 1.036 1.62.62.256 1.33.286 1.94.56.362.165.833.6.85.938.076 1.583.043 3.173-.015 4.758-.02.494-.46.766-.93.858-.448.083-.915.062-1.355.168-1.133.282-1.526.783-1.57 1.9-.067 1.703.14 2.02 1.838 2.804.105.048.22.064.328.1 1.408.46 1.945 1.473 1.843 2.892-.034.453-.034.913-.13 1.35-.135.596-.514 1.005-1.16 1.068-.68.064-1.397-.013-2.03.192-.49.16-1.012.563-1.283 1.006-.8 1.293.032 3.164 1.502 3.48.67.143 1.36.147 2.03.27.642.115.956.61 1.015 1.208.068.674.024 1.362.05 2.048.05 1.182-.372 1.956-1.647 2.165-.428.068-.85.325-1.214.585-1.01.72-1.224 2.04-.497 3.014.545.733 1.138 1.455 2.074 1.697.963.248 1.22.942 1.243 1.79.023.91.043 1.824-.038 2.728-.096 1.133-.58 1.52-1.728 1.62-.787.076-1.586.13-2.347.32-.78.2-1.212 1.032-1.167 1.88.05 1.02.55 1.76 1.472 2.11.95.354 1.952.557 2.93.838.748.213 1.046.637 1.103 1.51.068 1.09-.11 1.365-1.13 1.717-.21.072-.452.077-.658.162-.755.317-1.093.853-1.015 1.58.07.667.572 1.247 1.3 1.4.556.116 1.126.16 1.69.214 1.045.108 1.635.705 1.877 1.695.08.334.203.66.24.997.222 1.985 1.478 2.995 3.283 3.42 1.1.256 2.23.515 3.35.53 4.895.057 9.797.022 14.694.022 6.38.146 12.745.15 19.12-.307 5.446-.386 10.93-.328 16.4-.355 3.07-.016 6.125-.104 9.164-.607.707-.12 1.325-.27 1.776-.86 2.355-3.042 2.798-1.896 2.412-5.943-.078-.85.352-1.32 1.17-1.317 1.843.016 3.616-.37 5.394-.76.987-.213 1.485-.832 1.77-1.83.577-2.026.246-4.08.393-6.11.113-1.622-.565-2.847-1.48-4.05-.99-1.3-2.275-1.86-3.883-1.632zm-3.58-11.182c.004-.452.006-.9.018-1.35.016-.614.245-1.096.892-1.242.764-.168 1.532-.37 2.304-.427 1.026-.075 1.66.573 1.71 1.63.03.558.006 1.125.01 1.687h.006c0 .562-.014 1.127 0 1.69.043 1.516-.48 1.607-1.525 1.577-3.532-.115-3.44.352-3.412-3.565zm2.207-36.526c2.685.22 2.72.216 2.73 2.726 0 .456.006.912-.012 1.365-.035.89-.37 1.25-1.2 1.305-.225.014-.452.016-.682.016-.34.005-.683.003-1.024.003v-.016c-.456 0-.91.018-1.365-.002-.862-.032-1.257-.4-1.296-1.2-.02-.457-.02-.913-.02-1.368-.033-3.37-.038-3.068 2.873-2.83zm-2.79-13.266c.04-.83.1-1.397.085-1.965-.045-2.08.35-2.188 2.462-2.138.224.006.453.035.678.064.65.08 1.07.46 1.092 1.077.04 1.137.068 2.274.04 3.41-.02.772.3 1.724-.427 2.247-.928.67-2.067.946-3.232.737-.263-.05-.648-.405-.67-.64-.074-1.016-.03-2.035-.03-2.795zM92.256 58.32c-.63 14.92-.452 29.853-.683 44.78-.01.795-.053 1.594-.15 2.38-.157 1.262-.49 1.556-1.76 1.52-4.897-.133-9.8-.12-14.67-.75-.892-.116-1.195-.51-1.018-1.36.277-1.325.98-2.58.68-3.998-.045-.2-.17-.483-.33-.54-.167-.062-.466.04-.62.173-.34.293-.693.61-.91.994-.443.79-.89 1.602-1.174 2.462-.812 2.415-.51 2.2-3.433 2.22-.57.002-1.138-.033-1.707-.065-.404-.02-.798-.623-.65-1.008.613-1.59 1.238-3.178 1.866-4.758.208-.53.552-1.04.62-1.582.082-.654.035-1.37-.152-1.994-.107-.35-.593-.773-.947-.81-.348-.038-.928.283-1.08.6-.818 1.75-1.545 3.543-2.28 5.332-.436 1.047-.833 2.112-1.238 3.177-.27.7-.708 1.13-1.52 1.11-1.024-.022-2.05.01-3.075-.004-.75-.006-.9-.32-.547-1.06 1.177-2.466 2.373-4.923 3.523-7.4.285-.61.46-1.277.62-1.933.115-.456.013-1.018-.446-1.148-.373-.108-.95.017-1.263.262-.514.417-1.01.947-1.31 1.532-1.132 2.233-2.15 4.523-3.276 6.758-.45.898-.478 1.71-.1 2.617.088.212-.11.79-.25.82-.764.147-1.55.2-2.33.225-.125.004-.385-.354-.355-.494.124-.547.292-1.1.53-1.606.67-1.444 1.42-2.854 2.076-4.306.275-.612.476-1.282.57-1.946.132-.933-.724-2.16-1.6-2.388-.764-.198-1.37.262-1.785.763-.643.78-1.196 1.65-1.663 2.547-1.208 2.317-2.38 4.655-3.502 7.016-.384.808-1.01 1.198-1.788 1.44-2.962.92-5.98 1.402-9.088 1.133-.204-.016-.39-.2-.585-.303.102-.177.196-.363.315-.527.063-.088.193-.13.254-.224.676-1.03.626-1.697-.213-2.35-.35-.277-.9-.4-1.107-.747-.27-.448-.41-1.056-.376-1.58.032-.496.57-.623 1.042-.627 1.025-.013 2.036-.037 3.01-.47 1.024-.455 1.465-1.015 1.5-2.054.03-1.007-.37-1.79-1.254-2.252-.49-.256-1.048-.448-1.6-.527-.785-.112-1.59-.074-2.385-.14-.492-.044-.874-.314-.89-.84-.03-1.253-.034-2.508-.003-3.756.01-.507.365-.818.86-.878.45-.056.908-.056 1.364-.06.913 0 1.834.086 2.735-.006.896-.092 1.8-.27 2.65-.564 1.07-.373 1.82-1.504 1.66-2.336-.213-1.1-.892-1.828-1.965-2.15-.43-.132-.886-.202-1.337-.24-.57-.05-1.14-.052-1.71-.047-4.86.02-4.286.028-4.31-4.587 0-.224 0-.464.065-.672.098-.33.26-.548.704-.5 1.466.16 2.94.306 4.41.374 1.05.05 1.673-.605 2.02-1.538.332-.9.104-1.847-.675-2.46-.437-.342-.956-.62-1.483-.788-.533-.175-1.124-.16-1.685-.263-3.51-.647-3.68-.872-3.304-4.355.056-.53.402-.816.896-.84 1.024-.045 2.05-.02 3.075-.053.683-.025 1.374-.047 2.04-.177 1.046-.208 1.91-1.195 1.953-2.115.044-.95-.643-2.114-1.61-2.394-1.086-.314-2.222-.627-3.336-.62-3.4.02-3.055-.168-3.077-3.27-.002-.456-.006-.91.004-1.367.04-1.653.386-1.93 2.1-1.643.56.096 1.103.288 1.663.386s1.13.16 1.696.184c.746.02 1.3-.356 1.7-.96.49-.74.46-1.52.03-2.257-.48-.82-1.222-1.34-2.153-1.562-1.325-.31-2.663-.58-3.987-.897-.77-.186-1.187-.675-1.196-1.45-.016-1.708-.004-3.417.048-5.125.015-.495.4-.795.91-.805.684-.016 1.368.008 2.05.008.735 0 1.296-.34 1.776-.874.807-.893.83-1.822.068-2.763-.843-1.04-1.992-1.438-3.253-1.693-1.6-.32-1.595-.36-1.628-1.935-.01-.57-.004-1.14-.004-1.71.013-2.97-.257-3.194 2.856-3.124.68.016 1.367-.08 2.037-.2.8-.14 1.408-.884 1.46-1.68.065-.957-.484-1.935-1.33-2.17-.65-.183-1.34-.247-2.01-.327-.678-.08-1.373-.06-2.03-.203-.267-.06-.615-.416-.653-.672-.123-.78-.143-1.58-.135-2.375.006-.95.303-1.216 1.22-1.2.56.008 1.134.114 1.673.02 1.056-.184 1.68-1.326 1.34-2.347-.337-1.022-.87-1.835-2.058-2.04-.43-.075-.89-.26-1.23-.525-.22-.164-.372-.607-.316-.874.05-.235.482-.605.66-.563 3.375.828 6.804.476 10.203.453 7.974-.06 15.952-.15 23.917-.422 4.24-.146 8.416.278 12.594.74 3.165.353 6.31.868 9.463 1.32.898.127 1.21.45 1.248 1.317.032.8.03 1.597.03 2.396v16.76h-.16c.007 5.467.2 10.945-.03 16.408zm8.53 1.845c1.213-.21 2.443-.317 3.67-.388.477-.026.842.326.863.845.03.785.006 1.573.006 2.363h.04c0 .565.02 1.126-.005 1.69-.027.675-.39 1.105-1.01 1.096-1.337-.016-2.67-.1-4.01-.16-.925-1.14-.4-2.58-.77-3.855-.27-.95.13-1.405 1.215-1.587zm1.05 41.25c-.448-.036-.922-.034-1.33-.19-.262-.106-.562-.453-.6-.726-.11-.773-.123-1.566-.123-2.35.005-2.223.592-2.788 2.74-2.7 1.48.06 2.145.772 2.203 2.37.01.337.002.675.002 1.014-.01 2.754-.075 2.812-2.89 2.58zM61.664 70.46c-.333-.062-.683-.03-1.01-.096-.554-.11-.916-.723-.77-1.308.086-.328.262-.63.38-.95.305-.852.136-1.588-.672-2.058-.864-.504-1.248-1.25-1.4-2.21-.195-1.23-.527-2.444-.722-3.67-.43-2.776-1.852-5.105-3.253-7.44-.322-.537-.912-.588-1.51-.56-.96.046-1.485.658-1.672 1.455-.416 1.764-.715 3.558-1.045 5.34-.205 1.11-.218 2.29-.608 3.328-.932 2.48-1.554 4.98-1.348 7.648.093 1.216-.128 2.235-1.416 2.776-.384.16-.74.552-.96.925-.217.365-.387.874-.312 1.266.114.597.69.89 1.263.992.44.08.945.15 1.347.01 1.43-.48 2.904-.476 4.373-.616.37-.03.827-.397 1.022-.738.288-.508.224-1.144-.235-1.566-.405-.376-1.022-.55-1.37-.96-.243-.285-.34-.87-.224-1.235.107-.355.528-.676.89-.872.27-.145.665-.055 1.002-.1 1.758-.22 3.056.107 3.52 2.178.178.794 1 1.504 1.657 2.11.47.427 1.16.612 1.702.88.91-.176 1.696-.278 2.458-.48.59-.16.932-.613 1.016-1.235.235-1.725-.33-2.485-2.105-2.805zm-7.58-4.558c-.447.14-.92.05-1.128-.424-.128-.286-.166-.66-.11-.97.188-.987.435-1.964.673-2.945.02-.096.14-.17.213-.25.126.123.328.228.358.37.257 1.2.48 2.41.73 3.695-.243.18-.463.442-.737.526zm32.51.896c-1.173-.195-1.963.36-2.34 1.49-.253.754-.812 1.025-1.566 1.057-1.36.06-2.72.16-4.08.205-.097.002-.335-.407-.283-.52.53-1.123 1.03-2.273 1.68-3.33 1.548-2.518 3.194-4.982 4.76-7.493.537-.864 1.154-1.756 1.384-2.717.646-2.745.09-3.45-2.498-3.474-.456-.002-.91.043-1.365.085-2.483.247-4.963.6-7.46.734-4.443.235-4.688.548-3.178 4.825.074.212.19.41.295.612.403.748 1.75 1.046 2.397.444.484-.45.787-1.09 1.237-1.586.29-.325.673-.71 1.06-.772 1.45-.227 2.92-.346 4.384-.46.1-.004.368.39.32.507-.243.624-.508 1.26-.868 1.824-.98 1.53-2.01 3.036-3.036 4.545-1.79 2.635-2.525 5.824-4.41 8.427-.592.817-.013 1.938 1.008 2.056 1.688.192 3.394.23 5.09.337l.014-.174 4.093-.256c.113-.004.228-.015.34-.013 1.06.014 2.004-.332 2.92-.837 1.127-.622 1.764-1.756 1.664-3.076-.09-1.136-.774-2.307-1.568-2.437zm-17.89-5.584c-1.77-.498-3.568-.517-5.327.03-.512.16-1.032.5-1.408.89-1.005 1.046-.736 2.192.526 2.706.804.325 1.756.282 2.88.437 1.23-.27 2.677-.48 4.055-.915 1.135-.363 1.297-1.685.396-2.42-.347-.284-.712-.61-1.123-.726z"/></svg>