<svg xmlns="http://www.w3.org/2000/svg" width="128" height="128" viewBox="0 0 128 128"><path d="M107.18 94.688c-1.404-2.42-2.915-3.15-5.67-2.786-.225.028-.45.073-.674.11-2.044.347-2.178.246-2.165-1.644.013-1.534.275-1.85 1.715-1.965.795-.066 1.6-.027 2.39-.122 1.014-.12 2.015-.34 3.025-.504.778-.128 1.177-.66 1.392-1.34.168-.538.325-1.1.347-1.66.094-2.623.18-5.245.193-7.87.006-1.35-1.016-2.312-2.394-2.362-1.255-.043-2.51.01-3.766-.023-2.123-.057-2.816-.75-2.91-2.893-.02-.45-.053-.95.112-1.347.154-.364.544-.837.87-.872 1.126-.123 2.27-.08 3.41-.08 4.028-.006 3.853.076 3.895-4.005.02-2.046.11-4.09.243-6.133.062-.966-.035-1.227-.79-1.59-1.853-.89-3.854-.8-5.706-.41-2.34.492-2.63-.166-2.705-2.132-.01-.224-.007-.456-.005-.685.014-1.096.337-1.483 1.355-1.55 1.483-.1 2.963-.187 4.444-.246 1.18-.046 1.934-.683 2.308-1.724.877-2.428 1.02-4.885.174-7.37-.583-1.708-1.153-2.236-2.948-2.262-1.475-.02-2.957.058-4.424.205-.608.06-.797-.134-.875-.64-.034-.224-.104-.45-.087-.675.216-2.825-.482-3.21 2.863-3.212.45 0 .896-.177 1.348-.222 1.496-.153 2.798-.78 4.14-1.43 1.432-.697 1.588-1.583 1.226-2.782-.603-2-.802-3.997-.793-6.067.003-1.502-.84-2.233-2.4-2.31-.684-.032-1.37-.01-2.052.043-1.02.077-2.037.224-3.055.307-.487.043-1.173-.548-1.205-1.026-.058-.907-.055-1.822-.105-2.732-.3-5.67-.795-5.877-6.216-6.173-2.277-.128-4.565-.064-6.844-.122-1.024-.024-2.045-.104-3.064-.21-1.245-.123-2.478-.367-3.726-.433-3.525-.193-7.034-.677-10.58-.548-1 .035-2.006-.348-3.017-.49-3.045-.443-6.087-.932-9.178-.788-3.302.154-6.6.466-9.9.514-3.112.047-6.14.32-8.98 1.696-.792.382-1.11 0-1.616-.622-1.278-1.566-2.966-1.646-4.49-.542-1.947 1.408-3.316 2.987-2.9 5.667.2 1.308-.4 1.69-1.89 1.787-1.022.062-2.05.072-3.065.195-1.14.137-1.86.87-2.14 1.942-.095.373.025.954.278 1.224.363.392.907.722 1.426.837.884.195 1.812.17 2.716.296.908.127 1.32.657 1.36 1.657.023.57.03 1.14.01 1.71-.043 1.21-.41 1.59-1.628 1.75-.9.113-1.813.17-2.686.398-.832.213-1.274 1.167-1.203 2.23.052.79.657 1.4 1.58 1.505.68.076 1.363.05 2.046.104 1.197.096 1.6.496 1.675 1.705.065 1.022.095 2.046.1 3.076 0 .493-.295.843-.733 1.06-.807.394-1.695.68-2.416 1.2-1.25.898-1.11 2.656.24 3.41.584.327 1.27.464 1.91.7.705.262 1.11.754 1.11 1.54 0 1.823.02 3.647-.004 5.474-.014.918-.246 1.203-1.104 1.487-.535.18-1.146.22-1.625.49-.714.406-1.226 1.066-1.19 1.942.03.737.54 1.262 1.165 1.57.498.245 1.084.306 1.623.46.904.26 1.1.49 1.13 1.42.03.794.035 1.595.014 2.39-.02.796.1 1.664-.187 2.36-.36.87-1.43.42-2.148.7-.316.12-.65.24-.92.436-.266.192-.56.443-.677.734-.415 1.025.033 2.505.94 3.04.683.404 1.427.698 2.144 1.044.57.277.815.757.832 1.372.01.457.02.91.02 1.368.017 1.67-.14 2.225-2.154 2.162-.34-.008-.69.036-1.02.1-1.203.235-1.923 1.38-1.573 2.59.3 1.04.895 1.842 2.082 1.986.564.068 1.13.143 1.693.218.506.068.872.344.892.856.047 1.135.09 2.28 0 3.41-.03.35-.442.746-.78.968-.367.245-.874.254-1.28.452-1.578.768-1.913 2.7-.644 3.966.463.466 1.06.88 1.676 1.088.794.272 1.087.75 1.08 1.504-.01 1.255-.006 2.507-.068 3.76-.026.484-.35.83-.88.867-.795.055-1.6.028-2.383.14-.935.13-1.86.967-1.926 1.72-.086.987.376 1.79 1.18 2.3.563.36 1.24.546 1.884.76.534.175 1.12.22 1.634.44.282.118.555.435.67.726.412 1.016-.048 1.934-1.117 2.336-.21.082-.447.097-.65.19-.555.247-.917.652-.963 1.29-.043.654.384 1.275 1.154 1.496.65.186 1.33.29 2 .387.89.12 1.446.632 1.768 1.42.17.42.397.872.373 1.298-.1 1.884 1.203 2.642 2.608 3.18 1.376.528 2.837.775 4.348.78 4.333.013 8.667.15 13.003.15 6.84.006 13.677.14 20.51-.49 3.4-.312 6.838-.204 10.26-.286v-.056c1.256 0 2.51.01 3.767 0 3.75-.03 7.506.123 11.235-.575.956-.176 1.724-.432 2.353-1.178.515-.604 1.104-1.152 1.662-1.724.698-.708.928-1.543.704-2.51-.102-.445-.22-.886-.284-1.34-.12-.848.253-1.39 1.05-1.407 1.72-.04 3.406-.24 5.072-.66 1.787-.454 2.42-1.03 2.496-2.747.096-2.28.06-4.56.03-6.844 0-.43-.16-.902-.38-1.282zm-5.418-17.1c1.188-.08 1.8.547 1.813 1.507.016.675.004 1.353.004 2.027.033 3.54.137 3.013-3.09 3.025-.225.002-.45 0-.675-.02-.683-.05-1.092-.396-1.12-1.012-.034-.787-.032-1.58-.027-2.368.01-2.624.337-2.974 3.092-3.157zm-1.88-17.5c.882-.178 1.782-.32 2.68-.38 1.313-.09 1.66.235 1.703 1.472.018.565 0 1.133 0 2.453.005-.075 0 .608-.064 1.283-.044.508-.363.832-.88.836-1.244.016-2.49.018-3.737-.02-.528-.014-.794-.406-.817-.9-.05-1.13-.088-2.268-.083-3.4.002-.873.237-1.147 1.198-1.344zm-1.877-13.85c0-.57-.02-1.152.1-1.702.058-.25.424-.597.674-.613.67-.045 1.353.064 2.03.11 2.8.214 2.8.218 2.785 3.02-.007 2.39-.007 2.39-2.513 2.404-3.317.013-3.083.124-3.078-3.217zm.03-15.033c.058-.902.084-1.242.106-1.58.19-3.098.37-3.255 3.356-2.932.804.09 1.224.495 1.237 1.306.026 1.47.032 2.944.006 4.42-.017.85-.257 1.17-1.185 1.395-.867.21-1.765.328-2.656.395-.513.04-.833-.354-.854-.852-.038-.904-.01-1.813-.01-2.155zm-6.988 37.13c-.422 12.204-.535 24.413-.59 36.62 0 .456.03.934-.1 1.357-.082.27-.406.5-.673.66-.174.11-.44.095-.667.09-5.126-.16-10.267-.118-15.368-.794-.805-.107-.983-.368-.79-1.15.322-1.32.66-2.642.91-3.977.04-.203-.33-.542-.58-.72-.112-.082-.494 0-.59.13-.532.723-1.09 1.446-1.5 2.24-.47.91-.763 1.902-1.206 2.826-.124.256-.506.544-.773.547-1.36.02-2.72-.032-4.076-.1-.124-.008-.356-.352-.325-.497.12-.552.3-1.092.51-1.618.55-1.37 1.136-2.73 1.692-4.103.444-1.097.523-2.225.068-3.324-.11-.266-.496-.53-.783-.564-.283-.04-.768.133-.875.355-.8 1.633-1.534 3.297-2.268 4.96-.228.522-.356 1.087-.584 1.61-.456 1.03-.95 2.05-1.424 3.07-1.436.535-2.904.314-4.366.166-.132-.013-.352-.32-.333-.46.048-.326.197-.644.34-.95 1.02-2.165 2.024-4.338 3.08-6.487.464-.94.788-1.89.676-2.95-.04-.384-.667-.736-1.022-.59-1.016.414-1.656 1.21-2.112 2.144-.898 1.84-1.707 3.72-2.613 5.55-.523 1.06-.764 2.1-.6 3.296.134.96-.13 1.153-1.134 1.26-.34.032-.724.126-1.012.008-.245-.1-.59-.523-.536-.698.296-.97.676-1.914 1.068-2.85.572-1.363 1.184-2.708 1.76-4.067.47-1.092.077-1.984-.683-2.784-.405-.433-1.003-.518-1.555-.29-1.27.517-1.966 1.557-2.41 2.75-.918 2.475-2.422 4.65-3.52 7.024-.542 1.165-1.388 1.758-2.525 2.07-2.763.748-5.557 1.252-8.443 1-.523-.047-.648-.41-.3-.92.195-.274.447-.513.624-.802.277-.456.132-.93-.21-1.24-.41-.37-.982-.565-1.396-.94-.32-.285-.557-.698-.742-1.098-.262-.558.1-1.26.65-1.316.564-.057 1.142-.02 1.704-.108.666-.103 1.333-.25 1.98-.448.82-.258 1.373-.827 1.513-1.692.16-1-.275-1.835-1.04-2.384-.532-.382-1.23-.595-1.887-.734-.66-.14-1.365-.075-2.046-.13-.845-.07-1.115-.395-1.168-1.34-.006-.112-.013-.227-.01-.343.042-4.233-.545-3.936 3.773-3.857 1.396.028 2.735-.158 4.01-.69.786-.324 1.25-.96 1.285-1.857.036-.86-.228-1.557-.928-2.09-.772-.588-1.66-.705-2.587-.726-1.483-.03-2.965-.057-4.445-.12-.594-.025-1.065-.512-1.077-1.106-.027-1.257-.027-2.51-.004-3.765.008-.593.4-.777 1.166-.703 1.245.12 2.493.275 3.74.282 1.11.003 1.824-.6 2.04-1.487.27-1.12-.03-2.165-.938-2.712-.568-.34-1.233-.562-1.882-.716-.995-.24-2.02-.352-3.024-.56-.898-.19-1.073-.44-1.12-1.41-.013-.228-.01-.458-.015-.686-.035-2.702-.032-2.694 2.54-2.742 1.025-.017 2.06 0 3.073-.142 1.387-.19 2.144-1.06 2.13-2.242-.018-1.372-.57-2.22-1.9-2.456-1.562-.28-3.156-.373-4.738-.54-.657-.072-1.048-.41-1.058-1.075-.017-1.48-.013-2.962.034-4.444.018-.525.426-.8.93-.753.677.064 1.345.224 2.017.318.786.11 1.58.25 2.37.273.79.02 1.726-.8 2-1.643.244-.747-.13-1.414-.58-1.862-.542-.538-1.272-.98-2-1.218-1.294-.423-2.654-.637-3.973-.986-.97-.258-1.312-.71-1.325-1.712-.026-1.483-.02-2.968.007-4.45.017-.856.38-1.177 1.29-1.202.687-.018 1.377.062 2.053 0 1.007-.096 1.635-.75 2.01-1.64.314-.75-.053-1.76-.843-2.43-.996-.85-2.173-1.203-3.46-1.28-.658-.04-1.035-.43-1.045-1.093-.02-1.484-.03-2.97-.006-4.45.014-.806.41-1.135 1.333-1.172.91-.034 1.822-.02 2.733-.075.45-.026.913-.103 1.34-.248 1.09-.37 1.567-1.99.778-2.82-.447-.473-1.07-.796-1.66-1.1-.286-.146-.672-.146-1.01-.14-3.465.062-3.112-.197-2.965-3.667.02-.498.37-.82.912-.78.453.03.912.214 1.348.164 1.536-.176 2.31-1.727 1.563-3.058-.47-.836-1.142-1.318-2.118-1.563-1.165-.293-1.76-1.014-1.467-1.476.47-.738 1.173-.446 1.842-.352 1.123.155 2.253.363 3.378.37 6.048.028 12.1.042 18.147-.03 4.333-.053 8.667-.154 12.992-.405 4.02-.235 7.955.475 11.92.832 2.83.253 5.634.785 8.45 1.2 1.107.16 1.44.472 1.476 1.483.037 1.024.035 2.052.035 3.077.003 8.107.003 16.21.003 24.313h-.256c0 6.052.173 12.107-.036 18.144zm12.544 30.742h-.024c0 .453.02.904-.006 1.355-.04.693-.402 1.1-1.01 1.08-1.014-.036-2.032-.1-3.04-.21-.5-.055-.786-.452-.795-.935-.028-1.24-.034-2.485.028-3.727.013-.258.32-.68.552-.725.875-.176 1.775-.323 2.66-.3 1.068.033 1.57.652 1.63 1.77.03.563.004 1.13.004 1.696zM83.245 55.54c-.158-.863-.597-1.72-1.07-2.48-.726-1.157-1.59-2.223-2.392-3.33-1.488-2.054-3.732-2.93-6.002-3.655-1.506-.483-3.147-.544-4.663-.997-1.573-.47-3.14-.52-4.736-.464-1.027.037-2.053.09-3.076.155-3.947.243-7.23 1.79-9.698 4.947-.702.896-1.49 1.732-2.155 2.654-1.47 2.044-2.79 4.135-2.934 6.79-.128 2.266-.472 4.52-.722 6.78.06.005.117.01.178.02 0 1.25.022 2.51-.005 3.76-.043 2.01.587 3.788 1.682 5.457 1.34 2.04 3.167 3.465 5.135 4.888 4.668 3.368 9.835 3.944 15.3 3.416.673-.065 1.356-.25 1.98-.51 1.58-.65 3.133-1.363 4.68-2.09.4-.186.757-.492 1.085-.8.133-.125.213-.413.17-.594-.042-.18-.237-.395-.415-.467-.93-.37-1.745-.02-2.595.383-4.63 2.21-9.27 1.926-13.867-.096-2-.882-3.63-2.336-5.283-3.742-1.365-1.158-2.027-2.672-2.402-4.405-.885-4.084-.712-8.155.014-12.225.098-.54.33-1.092.625-1.562.72-1.163 1.49-2.295 2.283-3.41.933-1.317 2.08-2.436 3.502-3.21.685-.37 1.474-.777 2.21-.767 1.846.02 3.646-.253 5.394-.73 2.067-.56 4.064-.1 6.096.072 1.43.122 2.653.626 3.627 1.685.847.92 1.716 1.824 2.5 2.8 1.33 1.66 2.042 3.533 1.83 5.707-.066.677-.027 1.368-.006 2.053.105 3.153-1.37 5.677-3.206 8.056-.242.31-1.005.18-1.152-.226-.23-.63-.523-1.284-.544-1.935-.063-2.05-.042-4.108.004-6.156.035-1.767-.504-3.36-1.327-4.875-.35-.64-1.203-.75-1.744-.246-.25.235-.452.512-.688.762-1.222 1.29-1.225 1.29-2.23.02-.35-.445-.645-.954-1.066-1.325-1.173-1.04-2.483-1.362-4.098-1.034-2.925.595-4.486 2.9-6.405 4.757-.38.365-.598 1-.68 1.54-.43 2.813-.965 5.61-.847 8.488.054 1.307.598 2.118 1.66 2.748 1.413.84 2.92 1.174 4.556 1.258 1.95.103 3.564-.34 4.852-1.91.79-.96 1.744-1.787 2.65-2.65.075-.067.464.024.5.123.204.527.312 1.09.507 1.62.863 2.353 3.254 3.753 5.663 3.31 2.586-.465 4.56-1.976 6.375-3.753.235-.23.46-.544.533-.858.55-2.316 1.62-4.545 1.36-6.998-.24-2.26-.537-4.517-.944-6.754zM63.196 68.457c-.917.672-2.443-.04-2.736-1.16-.058-.215-.11-.438-.126-.668-.043-.566-.066-1.135-.124-2.247.122-.592.275-1.717.592-2.797.648-2.182 1.333-2.48 3.472-1.632.42.17.837.367 1.216.61.59.384.94.896 1.056 1.65.442 2.94-1.265 4.712-3.35 6.243z"/></svg>