<svg xmlns="http://www.w3.org/2000/svg" width="128" height="128" viewBox="0 0 128 128"><path d="M120.53 60.63c.005-.673-.16-1.262-.66-1.746-.54-.523-1.03-1.096-1.586-1.6-.818-.736-1.792-1.252-2.906-1.187-1.95.113-3.804-.36-5.698-.658-.9-.144-1.275-.47-1.486-1.325-.512-2.076-1.037-4.147-1.952-6.106-1.784-3.82-4.064-7.283-6.86-10.45-5.556-6.3-12.333-10.553-20.51-12.51-1.978-.475-3.983-.818-5.98-1.187-1.032-.192-1.19-.33-1.253-1.488-.034-.643.004-1.29-.063-1.93-.216-2.023-.37-4.062-.73-6.062-.453-2.54-2.023-3.936-4.445-3.733-1.53.13-2.973-.087-4.46-.206-1.49-.12-3.01-.11-4.502 0-1.84.14-3.214.955-3.843 2.876-.34 1.04-.562 2.037-.548 3.13.03 2.145-.017 4.29-.045 6.437-.01.597-.334.99-.9 1.184-.202.07-.396.18-.604.22-2.647.528-5.126 1.52-7.54 2.703-.67.328-1.383.606-2.107.776-4.23.995-7.624 3.327-10.505 6.492-3.11 3.414-5.93 7.062-8.55 10.864-1.168 1.694-2.01 3.547-2.237 5.62-.15 1.383-.234 2.772-.35 4.157-.063.798-.41 1.2-1.17 1.223-1.824.05-3.65.06-5.472.087-.75.01-1.51-.056-2.246.046-1.77.24-3.075 1.37-3.317 3.04-.288 2.01-.557 4.044-.544 6.063.015 2.02.378 4.04.614 6.054.036.307.18.626.355.885 1.135 1.71 2.542 2.916 4.79 2.514.53-.094 1.072-.11 1.593-.24 2.107-.53 4.26-.416 6.402-.472 1.04-.03 1.352.262 1.47 1.257.367 3.09 1.045 6.114 1.933 9.096.436 1.46 1.108 2.75 2.137 3.906 1.135 1.28 2.063 2.747 3.206 4.022 1.715 1.916 3.47 3.806 5.34 5.566.918.864 2.066 1.576 3.23 2.063 4.747 1.984 9.542 3.835 14.712 4.456.725.086 1.438.393 2.12.68.933.398 1.534.964 1.483 2.177-.103 2.36.16 4.717.648 7.03.408 1.934 1.352 2.79 3.3 2.9 1.71.1 3.435.02 5.15.02v.05c1.502 0 3.004-.027 4.507.008 1.02.026 1.847-.267 2.598-1.003 2.632-2.58 2.33-1.762 2.35-5.216.003-.107.007-.216 0-.322-.113-1.813-.234-3.63-.345-5.445-.035-.58.15-1.065.69-1.336.572-.288 1.155-.56 1.75-.8 3.31-1.323 6.348-3.15 9.19-5.26 8.7-6.455 15.354-14.57 19.553-24.623.623-1.492.877-1.67 2.357-1.623.643.02 1.284.09 1.916.2 2.153.374 4.277.044 6.383-.32.594-.102 1.2-.48 1.664-.887 1.27-1.114 1.888-2.6 1.94-4.268.07-1.933.02-3.866.033-5.797zM61.29 18.88c.635-1.39 1.713-1.668 2.848-1.547.803.085 1.424.5 1.743 1.24.25.585.496 1.206.555 1.83.33 3.296.992 6.556.864 9.9-.047 1.264.23 2.542.35 3.814.1 1.067.19 2.133.28 3.152-.045.69-.03 1.34-.14 1.967-.284 1.584-1.58 2.648-3.158 2.66-1.293.01-2.71-1.088-3.082-2.406-.082-.303-.126-.633-.113-.95.155-4.194-.644-8.302-1.102-12.444-.272-2.477-.1-4.89.957-7.216zM26.76 66.507c-1.822.02-3.626-.027-5.366.672-.476.19-1.094.347-1.555.21-1.65-.49-3.176.016-4.735.377-1.967.454-3.152-.32-3.355-2.26-.085-.844-.06-1.715.046-2.557.142-1.14 1.102-2.047 2.24-1.837 2.28.423 4.457.075 6.645-.453.206-.05.427-.053.64-.045 5.573.226 11.08-.843 16.644-.81.747.005 1.508-.047 2.24.067 2.13.334 3.202 2.955 1.97 4.755-.7 1.027-1.644 1.67-2.94 1.67-.852.003-1.71.003-2.565.003l-.014-.256c-1.16.06-2.323.128-3.484.183-2.14.103-4.274.256-6.414.28zm42.508 41.877c-.09 1.435-1.035 2.362-2.453 2.45-1.163.07-2.37-.73-2.68-1.874-.162-.61-.21-1.265-.23-1.9-.082-2.562-.134-5.125-.197-7.688l-.136-.013c.23-3.3.485-6.596.677-9.893.055-.95-.095-1.904-.124-2.856-.017-.54.413-.96 1.016-.99.422-.02.85 0 1.277.03.49.033.746.33.82.8 1.112 6.735 2.133 13.477 2.012 20.334-.007.533.047 1.067.016 1.6zm26.7-33.76c-.402.75-.88 1.488-1.454 2.112-3.06 3.307-6.165 6.57-9.24 9.86-.897.96-1.953 1.667-3.14 2.198-.294.128-.585.272-.88.4-2.165.913-4.33 1.823-6.494 2.738-.638-.275-.512-.864-.52-1.365-.05-1.93-.085-3.86-.1-5.792-.026-4.228-1.708-5.116-5.25-5.328-1.712-.102-3.446-.14-5.15.02-1.468.14-2.91.458-4.07 1.636-1.046 1.062-1.57 2.17-1.59 3.677-.036 2.46-.253 4.92-.423 7.377-.08 1.152-.514 1.467-1.683 1.225-3.49-.723-6.81-1.965-9.873-3.765-2.584-1.518-5.022-3.285-7.533-4.928-.846-.557-1.416-1.318-1.694-2.274-.806-2.773-1.596-5.553-2.368-8.336-.134-.492.333-1.052.9-1.12 2.23-.272 4.455-.624 6.692-.75 1.835-.103 3.266-1.01 4.66-1.976 1.115-.77 1.58-2.035 1.612-3.37.055-2.576.125-5.156.007-7.726-.092-2.005-1.22-3.42-3.2-3.968-.813-.226-1.688-.335-2.53-.323-2.567.038-5.15-.082-7.692.482-.784.172-1.267-.326-1.157-1.083.184-1.272.387-2.54.62-3.804.223-1.212.92-2.136 1.823-2.953 3.027-2.735 6.16-5.332 9.534-7.638 2.22-1.515 4.535-2.86 6.973-3.99.544-.25.862-.11.917.422.107.958.17 1.92.288 2.877.293 2.338.552 4.677 1.217 6.95.205.71.212 1.48.28 2.226.2 2.285 1.585 3.723 3.89 3.872 1.064.068 2.186.085 3.2-.177 1.594-.41 3.196-.48 4.79-.365 3.4.252 5.087-1.726 5.572-5.29.17-1.255-.028-2.57-.138-3.85-.245-2.88-.54-5.758-.805-8.638-.036-.365.48-.904.81-.85 4.242.707 8.356 1.745 12.224 3.756 5.86 3.046 9.853 7.82 12.976 13.46.26.467.475.963.667 1.462 1.536 3.973 1.07 3.663-2.555 3.666H94.8v.016c-1.18 0-2.377-.11-3.54.026-1.698.2-3.424.51-4.74 1.725-.615.565-1.09 1.303-1.542 2.016-.36.562-.402 1.232-.146 1.86.782 1.926 1.092 3.905.882 5.983-.15 1.472.656 2.446 1.888 3.09 1.54.803 3.21 1.183 4.92 1.364.534.053 1.074.07 1.61.072 4.177.022 3.36.244 1.838 3.09zm17.347-9.577c-.558 1.28-1.96 2.19-3.403 1.84-3.072-.743-6.174-.304-9.26-.352-1.925 0-3.85.008-5.775-.002-1.414-.01-1.995-.158-1.93-1.78.03-.744-.086-1.494-.102-2.24-.015-.756.363-1.196 1.13-1.265 2.13-.194 4.257-.42 6.387-.517 3.093-.143 6.195-.176 9.29-.284 1.134-.038 2.113.275 2.926 1.06.963.928 1.25 2.36.736 3.54z"/></svg>