<svg xmlns="http://www.w3.org/2000/svg" width="128" height="128" viewBox="0 0 128 128"><path d="M110.496 42.475c-.898-1.175-1.746-2.394-2.723-3.5-1.656-1.87-3.578-3.513-4.877-5.7-.284-.48-.736-.863-1.144-1.263-1.376-1.355-4.743-1.088-5.67.87-.433.923-1.027 1.77-1.5 2.677-.355.666-.23 1.353.22 1.922.345.44.812.783 1.21 1.18.48.48.987.94 1.412 1.467.445.55.416 1.424-.096 1.876-1.71 1.5-3.445 2.957-5.18 4.423-.377.32-.65-.007-.858-.24-2.16-2.43-4.76-4.07-7.925-4.988-3.62-1.052-7.21-2.123-11.02-2.13-.336 0-.673-.125-1.01-.176-.786-.115-1.75.02-2.325-.387-.82-.588.046-1.65-.194-2.5-.154-.545-.175-1.128-.336-1.668-.437-1.446-.5-2.667 1.254-3.345.597-.23 1.114-.816 1.517-1.355 1.59-2.12 2.77-4.435 3.14-7.11.348-2.474.73-4.944 1.1-7.418.225-1.512-.897-3.25-2.43-3.675-.545-.15-1.137-.116-1.69-.236-3.155-.672-6.363-.397-9.545-.6-.912 0-1.835.082-2.733-.016-3.107-.342-6.106.57-9.17.727-.432.02-.87.24-1.282.422-.9.397-1.453 1.09-1.56 2.08-.43 3.97.097 7.724 2.462 11.084.92 1.3 1.696 2.707 2.632 3.997.592.82 1.227 1.86 2.08 2.192 1.707.67 1.728 1.852 1.643 3.284-.07 1.136-.01 2.283-.035 3.42-.027 1.293-.164 1.563-1.48 1.906-4.25 1.103-8.036 3.165-11.717 5.474-1.06.664-2.14 1.308-3.236 1.914-2.16 1.2-2.013 1.454-3.973-.65-.153-.17-.294-.35-.437-.528l-2.133-2.652c.27-1.282 1.383-1.992 2.046-3.008.06-.094.15-.173.214-.267 1.267-1.81 1.15-3.315-.366-4.91-1.553-1.633-4.404-2.427-6.583-1.454-2.123.95-3.8 2.475-5.69 3.726-2.298 1.525-3.615 3.738-5.076 5.888-.765 1.122-.722 2.406-.106 3.58.582 1.11 1.334 2.108 2.425 2.82 1.49.975 2.94 1.148 4.44.06.92-.672 1.827-1.363 2.774-1.998 1.08-.725 1.387-.677 2.334.292 1.035 1.057 2.067 2.122 3.047 3.23.164.182.174.678.04.9-.226.375-.62.65-.946.963-6.398 6.207-9.85 13.9-10.984 22.608-.575 4.405-.396 8.893.647 13.26 1.263 5.286 3.5 10.132 7.214 14.16 4.65 5.04 10.414 8.423 16.735 10.956 5.813 2.328 11.957 2.663 18.09 3.102.338.023.687.006 1.023-.045 2.472-.372 4.963-.67 7.415-1.162 9.624-1.933 18.027-6.123 24.923-13.28 6.27-6.507 9.646-14.287 10.647-23.13.512-4.532.354-9.078-.896-13.56-.74-2.67-1.71-5.183-3.335-7.428-1.8-2.493-3.617-4.976-5.44-7.453-.333-.46-.232-.817.136-1.17 1.15-1.105 2.29-2.222 3.46-3.31.355-.327.792-.436 1.2-.024.71.734 1.37 1.53 2.145 2.19.618.522 1.34.603 2.23.442 1.865-.337 3.016-1.365 3.9-2.968.738-1.33.91-2.544-.045-3.794zM29.33 41.3c-1.24 1.097-2.507 2.166-3.776 3.23-.045.042-.178-.02-.27-.034-.067-.085-.196-.176-.196-.26.004-.22.006-.473.115-.652.516-.843 2.61-2.643 3.475-2.97.164-.062.456.028.594.155.104.094.14.457.058.53zm30.824-16.88c.102-.187.348-.29.494-.46.755-.885.853-1.15.113-2.06-.585-.72-.796-1.258-.177-2.044.46-.59.42-1.68 1.422-1.712 1.813-.056 3.63-.02 5.44.075.326.015.626.493.867.7-.077.54-.08.89-.18 1.206-.453 1.4-.928 2.795-1.4 4.19-.328.966-.968 1.402-2.03 1.444-1.24.052-2.472.307-3.704.49-.56.082-1.294.27-1.46-.358-.112-.41.36-.994.62-1.472zm2.176 12.684c.2-.122.74.195 1.058.416.24.17.37.5.527.725-.11.123-.164.245-.24.264-.414.1-.836.254-1.244.224-.236-.018-.655-.38-.633-.53.062-.4.23-.918.533-1.102zm-.58-3.59c-.04-.217.207-.54.408-.733.224-.21.516.077.52.65-.064.15-.184.42-.307.688-.217-.198-.574-.37-.617-.604zm36.218 34.268c.23.995.446 2.005.512 3.02.528 8.342-1.542 16.037-5.922 23.116-.53.856-1.287 1.6-2.05 2.266-4.336 3.79-9.264 6.598-14.58 8.768-4.57 1.865-9.4 2.62-14.225 3.385-2.426.384-4.752-.24-7.06-.89-2.74-.772-5.474-1.548-8.205-2.334-.432-.124-.93-.192-1.267-.454-3.68-2.893-7.392-5.758-9.854-9.858-.407-.68-.765-1.408-1.013-2.16-.853-2.595-1.666-5.2-2.456-7.818-1.037-3.42-1.426-6.865-.715-10.443.476-2.39 1.34-4.62 2.47-6.7 1.903-3.5 4.068-6.854 6.154-10.254.478-.776 1.085-1.427 1.98-1.816 3.758-1.636 7.49-3.33 11.242-4.98 2.935-1.288 6.008-2.012 9.18-2.55 3.513-.6 7.005-.833 9.667-.655 4.068.017 7.247-.046 10.395.757 2.38.608 4.42 1.593 6.214 3.325 4.72 4.546 8.05 9.86 9.536 16.274zm-10.973-2.9c-.538.176-1.045.45-1.576.66-2.007.804-3.975 1.736-6.035 2.373-3.475 1.077-7.04 1.87-10.417 3.266-.593.247-1.092.146-1.548-.303-1.68-1.656-3.778-2.048-5.992-1.77-1.22.15-1.956-.268-2.532-1.25-.636-1.08-1.234-2.19-1.97-3.2-1.405-1.934-2.89-3.812-4.358-5.7-.35-.447-.733-.877-1.154-1.256-.633-.573-1.454-.814-2.23-.54-1.762.62-3.26 1.62-3.993 3.463-.293.74-.19 1.776.513 2.17 1.392.778 2.06 2.07 2.805 3.343 1.327 2.26 2.67 4.51 4.006 6.763.765 1.29 1.615 2.56.82 3.99 0 .627-.02 1.086.006 1.54.2 3.36 2.42 5.66 5.745 6.16 4.77.713 8.616-2.195 10.022-5.51.22-.525.377-1.07.575-1.6.22-.584.656-.973 1.26-1.03 2.634-.25 5.034-1.392 7.586-1.97 3.34-.753 6.503-2.07 9.61-3.5.516-.24 1.04-.484 1.5-.81 1.206-.85 1.6-2.675.902-3.98-.627-1.173-2.176-1.763-3.547-1.31zm-21.68 12.123c-.365.853-.955 1.508-1.815 1.905-.5.23-1.182.067-1.447-.41-.267-.482-.467-1.007-.762-1.47-.283-.446-.94-.737-.593-1.412.42-.826.983-1.51 2.242-1.547.23.045.684.08 1.106.215 1.13.352 1.732 1.646 1.272 2.72z"/></svg>