<svg xmlns="http://www.w3.org/2000/svg" width="128" height="128" viewBox="0 0 128 128"><path d="M113.79 73.756c-.047-1.01-.008-2.02-.008-3.51-.125-3.146.08-6.762-.533-10.394-.935-5.565-2.688-10.73-5.834-15.43-.914-1.364-1.947-2.55-3.192-3.604-3.85-3.26-8.256-5.37-13.123-6.615-1.482-.38-2.956-.565-4.484-.54-2.525.03-5.05 0-7.576.01-1.615.005-3.193.096-4.8.452-4.435.983-4.447.875-7.436.195-1.38-.313-2.062-1.16-2.212-2.507-.082-.736.177-.95.808-.85 1.496.234 2.99.464 4.487.676 4.528.643 6.595.062 10.027-2.888 1.71-1.472 2.923-3.375 3.966-5.305.95-1.757 1.472-3.748 2.165-5.643.602-1.65.6-3.36.448-5.084-.058-.68-.424-1.162-1.06-1.313-1.275-.296-2.56-.676-3.855-.728-3.328-.135-6.667-.23-10-.11-2.98.105-5.74.96-7.778 3.39-1.43 1.7-2.914 3.347-4.373 5.022-.264.304-.482.667-.798.898-.18.132-.608.167-.754.044-.46-.384-.928-.815-1.23-1.326-1.007-1.702-2.482-2.962-4.075-4.006-3.402-2.226-4.207-2.112-6.532 1.413-.48.732-.274 1.477.422 2.16.57.557 1.227 1.067 1.66 1.717 1.185 1.78 2.622 3.34 4.112 4.85 2.07 2.097 3.575 4.624 5.31 6.978.115.157.178.36.264.542.165.365-.203.818-.632.747-1.79-.297-3.565-.747-5.36-.88-2.82-.215-5.647-.25-8.47-.29-.578-.006-1.167.28-1.74.462-4.938 1.56-9.524 3.86-13.98 6.475-2.463 1.446-4.738 3.077-6.463 5.382-1.08 1.444-2.374 2.8-3.142 4.4-2.336 4.85-3.86 9.945-3.83 15.41.022 3.64.038 7.276-.004 10.913-.032 2.848.463 5.62 1.024 8.392 1.12 5.51 3.282 10.64 6.436 15.243 2.22 3.23 4.986 6.084 7.51 9.104 2.833 2.108 5.482 4.45 8.473 6.363 2.806 1.794 5.796 2.734 9.126 2.788 2.42.038 4.834.28 7.253.402.492.027 1.044.034 1.482-.153 2.204-.942 4.55-1.496 6.546-3.002 2.714-2.04 5.77-2.222 8.875-.802 1.095.5 2.154 1.072 3.252 1.568.733.334 1.483.632 2.25.867.362.11.86.194 1.15.035 1.14-.623 2.276-.58 3.477-.256.37.1.807.032 1.2-.043 1.676-.33 3.352-.683 5.02-1.056.483-.11.97-.277 1.41-.5 2.884-1.462 5.72-2.998 8.22-5.095 2.78-2.33 5.47-4.694 7.616-7.708 2.123-2.974 4.067-5.986 5.49-9.368 2.403-5.74 4.074-11.598 3.79-17.895zM62.98 23.12c.833-1.002 1.644-2.034 2.572-2.943 2.85-2.782 6.083-4.657 9.617-4.045h.97c3.1-.032 4.127-.175 2.17 3.435-.48.885-1.003 1.752-1.58 2.57-1.21 1.714-2.846 2.78-4.95 3.135-2.965.496-5.784-.055-8.53-1.154-.394-.16-.554-.658-.27-.997zm44.19 44c-.237 3.687-.458 7.924-.804 12.145-.216 2.635-1.022 5.163-2.05 7.57-1.547 3.622-3.275 7.168-5.662 10.34-1.4 1.857-2.758 3.756-5.024 4.686-1.957 1.997-4.53 2.487-7.125 2.98-2.472.47-4.9 1.28-7.46 1.02-2-.202-4.03-.362-5.968-.855-2.424-.615-4.835-.527-7.217-.19-2.686.38-5.358.977-7.928 1.915-.47.17-.955.383-1.443.41-3.26.176-6.46-.087-9.49-1.444-.51-.23-.764-.7-.614-1.222.302-1.067.643-2.123.95-3.19.228-.797.223-1.578-.103-2.37-.448-1.1-1.923-1.39-2.727-.5-.203.22-.388.466-.535.724-.402.704-.824 1.397-1.16 2.127-1.26 2.74-1.132 2.272-2.986.213-.704-.78-.827-1.507-.408-2.472.928-2.123 1.78-4.283 2.648-6.436.413-1.026.832-2.055 1.154-3.115.187-.62-.103-1.192-.607-1.605-.51-.416-1.45-.446-1.983-.015-.466.378-.948.785-1.276 1.277-1.11 1.68-2.16 3.407-3.236 5.112-.213.335-.43.672-.693.965-.07.073-.396.04-.48-.05-.26-.3-.47-.647-.686-.986-.405-.636-.448-1.248-.17-1.995 1.036-2.75 2.278-5.393 3.766-7.92.256-.435.58-.83.827-1.27.62-1.092.38-2.29-.555-2.96-.757-.54-2.04-.495-2.814.204-.594.538-1.162 1.135-1.6 1.803-.663 1.01-1.223 2.088-1.79 3.16-.33.624-.545 1.307-.893 1.92-.12.212-.475.29-.725.43-.128-.268-.354-.53-.366-.803-.02-.496.02-1.013.15-1.49.185-.68.428-1.35.716-1.994 1.368-3.033 2.55-6.154 4.306-9.008.053-.085.11-.168.16-.254.427-.755.53-1.534.026-2.283-.395-.587-1.662-.754-2.528-.32-.445.22-.894.514-1.203.89-.64.773-1.247 1.585-1.76 2.446-.62 1.04-1.11 2.157-1.693 3.22-.218.39-.34 1.054-.93.91-.262-.06-.51-.636-.56-1.004-.09-.68-.198-1.44-.003-2.074 1.244-4.05 2.61-8.063 4.814-11.722.383-.635.667-1.286.43-1.998-.11-.34-.42-.736-.738-.866-.303-.124-.85-.066-1.088.14-.602.53-1.094 1.18-1.626 1.79-.66.762-1.308 1.533-1.986 2.28-.1.11-.33.12-.505.13-.05 0-.16-.154-.16-.24 0-1.913-.05-3.828.053-5.738.027-.547.405-1.137.77-1.593 1.01-1.26 2.076-2.475 3.157-3.672.674-.75 1.413-1.443 2.13-2.154.534-.53.854-1.124.613-1.9-.203-.645-.955-1.03-2.027-.97-.496.03-.987.183-1.482.266-.173.028-.352.015-.53.02.015-.274-.054-.583.048-.814.373-.83.813-1.628 1.21-2.444.502-1.03 1.217-1.828 2.24-2.382 1.51-.816 3.027-1.63 4.455-2.573 2.536-1.674 5.348-2.282 8.315-2.4 2.22-.09 4.44-.276 6.656-.232 2.62.057 5.236.3 7.85.5.64.05 1.04.567 1.146 1.237.016.098.04.2.043.3.093 4.9.84 4.784-4.288 4.482-1.51-.09-3.032-.15-4.54-.076-1.42.073-2.045 1.573-1.132 2.646.446.52 1.025 1.013 1.646 1.274 1.39.584 2.83 1.067 4.277 1.49 1.45.426 2.935.686 4.472.607 1.007-.052 2.022-.013 3.03.05 2.164.144 4.19-.307 6.186-1.144 1.954-.816 3.99-1.424 5.97-2.18 1.584-.607 2.99-2.866 2.94-4.575-.028-1.055-1.327-2.32-2.484-2.212-.99.09-1.93.363-2.918-.09-.27-.125-.814.072-1.094.295-.627.5-1.152 1.13-1.75 1.674-.37.336-.754.69-1.196.904-1.963.945-2.54.57-2.496-1.567.01-.403.04-.805.086-1.205.053-.486.52-.904 1.04-.902.603.002 1.208.056 1.812.08.707.03 1.42.114 2.118.05.35-.032.84-.26.98-.542.52-1.04 1.377-1.3 2.433-1.484 1.41-.245 2.79-.335 4.213-.147 1.2.156 2.42.317 3.62.26 4.59-.215 8.722 1.344 12.808 3.14 1.01.443 2.02.89 3.048 1.292 1.405.55 2.29 1.66 3.006 2.884 1.89 3.236 3.353 6.66 4.288 10.306.893 3.475.75 7.008.7 11.087zm-15.333 8.065c-.11-1.316-.472-2.563-1.216-3.676-.796-1.186-2.51-1.255-3.273-.053-.418.657-.802 1.46-.83 2.208-.075 2.005.027 4.02.123 6.022.017.358.257.78.526 1.035.765.73 1.68 1.103 2.756.772 1.212-.376 1.818-1.125 1.91-2.394.042-.6.006-1.204.006-1.806h.008c0-.704.047-1.412-.01-2.11zM82.57 63.473c-.127-.32-.54-.64-.882-.736-1.36-.384-2.73.134-3.465 1.243-.755 1.147-1.073 2.41-.73 3.753.344 1.357 1.14 2.347 2.57 2.71.876.223 1.604-.022 2.166-.702.806-.972 1.147-2.11 1.086-3.97-.128-.4-.37-1.37-.747-2.293zM89 62.05c.814-.244 1.397-.772 1.62-1.6.102-.377.082-.787.1-.93-.02-2.01-.406-2.847-1.545-3.586-.96-.622-1.938-.472-2.667.37-.63.73-.892 1.6-.653 2.495.228.846.62 1.67 1.06 2.434.405.707 1.376 1.032 2.084.817zm7.158 2.367c-.8.67-1.44 1.415-1.29 2.574.082.695.102 1.408.273 2.08.12.47.347 1.005.7 1.293.436.358 1.047.65 1.593.68.672.034.988-.58 1.148-1.195.155-.585.387-1.158.436-1.747.112-1.354-.23-2.58-1.26-3.55-.54-.518-1.076-.566-1.6-.13z"/></svg>