<svg xmlns="http://www.w3.org/2000/svg" width="128" height="128" viewBox="0 0 128 128"><path d="M110.398 62.926c-.025-.84-.398-1.54-1.158-1.762-1.32-.39-2.133-1.37-3.072-2.24-2.123-1.957-4.288-3.87-6.428-5.81-.477-.43-.928-.89-1.383-1.343-5.94-5.886-11.885-11.774-17.824-17.662-.46-.454-.877-.96-1.394-1.336-2.797-2.023-4.98-4.692-7.475-7.04-1.712-1.61-3.427-3.228-5.56-4.293-1.644-.82-3.94.396-4.11 2.222-.24 2.558-.42 5.123-.585 7.688-.19 2.995-.334 5.992-.513 8.987-.05.845-.37 1.173-1.19 1.17-5.473-.028-10.956.12-16.414-.168-5.148-.273-10.29-.293-15.435-.28-2.243.006-4.49.233-6.73.434-1.8.162-2.91 1.21-3.252 2.972-.12.627-.15 1.28-.15 1.92-.014 5.785-.008 11.57-.008 17.355H17.6c0 6.008-.017 12.016.012 18.023.01 2.172 1.792 4.452 3.89 4.94 1.56.364 3.163.534 4.74.827 1.91.354 3.807.442 5.732.037.706-.146 1.477-.032 2.214.02.747.057 1.485.257 2.23.278 7.823.188 15.65.413 23.463-.38.855-.084 1.716-.065 2.575-.067.56 0 .93.405.96 1.03.2 4.28.397 8.56.595 12.84.02.536-.03 1.09.084 1.604.21.933.462 1.87.82 2.752.137.34.6.723.955.768 1.833.228 3.54.23 5.004-1.363 2.173-2.37 4.63-4.474 6.848-6.8 3.26-3.414 7.213-6.098 10.153-9.84.125-.157.333-.28.53-.347 1.076-.37 1.674-1.305 2.427-2.052 1.675-1.663 3.346-3.327 4.994-5.012.592-.61 1.112-1.292 1.67-1.935.416-.48.817-.975 1.26-1.43.52-.54 1.164-.977 1.607-1.57 1.68-2.247 3.6-4.236 5.9-5.863 1.617-1.14 2.59-2.827 3.602-4.474.535-.87.558-1.824.53-2.798zm-14.046-.523c-2.144 2.54-4.348 5.028-6.52 7.54-1.475 1.703-2.93 3.423-4.433 5.1-.235.262-.69.33-1.04.49-.054-.297-.165-.598-.154-.89.025-.53.213-1.06.18-1.58-.068-1.016-1.445-1.635-2.185-.97-.543.488-1.13 1.066-1.37 1.72-.4 1.094-.573 2.276-.76 3.436-.173 1.052-.256 2.124-.346 3.19-.09 1.01-.448 1.9-1.248 2.52-.623.482-.785 1.576-1.877 1.44-.093-.734-.287-1.47-.243-2.196.053-.956.344-1.895.424-2.853.033-.38-.15-.835-.372-1.16-.13-.183-.6-.31-.817-.22-.735.307-1.166.957-1.357 1.7-.454 1.755-.892 3.52-1.248 5.3-.27 1.36-.373 2.756-.623 4.126-.07.392-.38.747-.597 1.11-.05.08-.192.182-.26.163-.172-.048-.45-.136-.47-.246-.213-1.152-.437-2.308-.557-3.474-.256-2.45-.424-4.91-.688-7.356-.098-.88-.5-1.696-1.438-1.96-.848-.24-1.216-.65-1.195-1.574.017-.725-.16-1.478-.383-2.176-.117-.376-.46-.725-.78-.98-.686-.553-1.884-.133-2.095.687-.32 1.235-.63 2.474-.978 3.7-.047.158-.316.253-.482.378-.15-.22-.416-.437-.42-.666-.028-.64.076-1.28.086-1.924.005-.424-.033-.858-.103-1.278-.122-.757-.79-1.426-1.476-1.506-.714-.083-1.266.253-1.652.795-.3.426-.56.92-.685 1.424-.256 1.037-.398 2.1-.62 3.147-.036.183-.228.335-.35.5-.148-.25-.432-.516-.412-.753.116-1.167.325-2.325.485-3.49.114-.845.235-1.692.29-2.544.022-.304-.034-.7-.22-.912-.33-.38-.74-.762-1.198-.94-.535-.203-1.1.07-1.37.57-.406.746-.788 1.527-1.04 2.337-.54 1.737-.98 3.504-1.487 5.25-.083.293-.238.638-.47.795-.23.16-.607.17-.906.132-.163-.02-.427-.28-.42-.42.09-1.81.213-3.62.34-5.427.08-1.167.24-2.333.247-3.5.006-.714-1.045-1.28-1.705-.945-.337.173-.677.542-.798.896-.896 2.637-1.752 5.286-2.592 7.94-.498 1.573-.86 1.822-2.53 1.58-.477-.07-.812-.346-.812-.827 0-1.717.067-3.433.058-5.15-.005-.737-.07-1.49-.234-2.21-.178-.79-1.31-1.09-1.778-.47-.577.763-1.176 1.554-1.524 2.43-.71 1.783-1.393 3.59-1.568 5.546-.094 1.067-.752 1.472-1.76 1.17-.262-.078-.64-.386-.644-.595-.02-1.066.043-2.135.11-3.2.11-1.71.265-3.417.357-5.13.03-.553-.213-1.04-.768-1.294-.557-.26-1.3-.085-1.763.384-.94.948-1.41 2.162-1.788 3.384-.448 1.427-.725 2.908-1.104 4.356-.047.175-.246.37-.422.442-.573.235-.373-.31-.46-.527-.072-.192-.058-.422-.058-.638-.006-1.822.002-3.645-.017-5.467-.005-.523-.06-1.05-.157-1.564-.03-.15-.286-.325-.46-.354-.17-.027-.487.073-.534.196-.304.786-.573 1.59-.815 2.397-.424 1.43-.815 2.87-1.25 4.3-.053.173-.352.438-.433.404-.28-.113-.683-.3-.734-.53-.19-.827-.34-1.68-.347-2.528-.03-3.968-.016-7.936-.016-11.904h.053c0-4.402-.004-8.8.004-13.203 0-.6.4-1 .964-1.05.32-.028.644-.044.964-.05 10.94-.25 21.878-.576 32.82-.693 2.82-.03 5.195-1.09 7.642-2.136.384-.165.572-.553.526-1.058-.15-1.707-.238-3.42-.367-5.13-.136-1.814-.305-3.628-.42-5.444-.02-.283.11-.72.31-.828.19-.104.652.032.844.22 1.998 1.95 3.957 3.935 5.94 5.895.762.753 1.562 1.467 2.335 2.206 1.084 1.035 2.162 2.074 3.235 3.12.463.45.888.936 1.362 1.37 3.47 3.192 6.97 6.353 10.417 9.573 1.173 1.094 2.21 2.334 3.314 3.503.44.467.836 1.01 1.36 1.362 2.24 1.513 2.122 1.818.527 3.706z"/></svg>