<svg xmlns="http://www.w3.org/2000/svg" width="128" height="128" viewBox="0 0 128 128"><path d="M108.725 66.34c-.747-.063-1.5-.02-2.248-.066-.96-.056-1.97.01-2.863-.27-1.383-.437-2.656-.546-4.075-.096-1.213.382-2.6-.6-2.955-1.792-.533-1.777-.62-3.566-.313-5.4.354-2.107.736-4.22.894-6.347.248-3.418.325-6.85.467-10.274.013-.317-.05-.637-.056-.955-.088-4.07-.18-8.14-.254-12.207-.017-.86.08-1.72.025-2.57-.13-1.947-.874-2.636-2.776-2.68-.43-.012-.86.005-1.29-.014-3.1-.13-6.204-.3-9.307-.393-2.144-.064-4.29-.053-6.434-.02-1.18.015-1.92.64-2.237 1.866-.387 1.475-.55 2.923-.53 4.433.15 10.076.272 20.152.4 30.23l.273-.004c0 2.144.008 4.288-.002 6.432-.004.875-.275 1.218-1.088 1.252-1.82.078-3.64.14-5.46.14-1.198 0-2.354.103-3.446.625-1.175.56-1.467 2.2-.348 2.9 1.552.97 2.402 2.34 3.157 3.917.555 1.15 1.333 2.197 2.08 3.243.992 1.395 2.094 2.71 3.073 4.114 1.965 2.81 3.904 5.635 5.8 8.49 1.89 2.852 3.9 5.644 4.953 8.96.157.51.44.976.66 1.466.432.974.852 1.93.97 3.036.088.82.448 1.653.843 2.4.996 1.87 4.62 2.126 5.753.15.848-1.484 1.594-3.006 2.306-4.56 4.6-10.022 8.906-20.182 13.924-30.01.67-1.313 1.045-2.798 1.43-4.236.26-.984-.325-1.677-1.334-1.76zm-14.19-2.052c.192.757.02.962-1.073 1.357-.08.146-.162.29-.242.437l-.273-.27.407-.276c-.06-.65.114-1.195.768-1.457.096-.04.384.105.412.21zm-.512-4.232c.036.094.016.21.018.318.006.107 0 .213 0 .317.09.945-.13 1.648-1.18 1.95-1.08.316-1.79 1.14-2.312 2.088-.977 1.764-1.904 3.552-2.837 5.34-.244.47-.4.98-.657 1.442-.135.247-.333.474-.702.15-1.575-1.38-1.53-1.325-.355-2.856 2.315-3.03 4.56-6.115 6.86-9.16.16-.213.53-.272.802-.403.124.273.26.54.367.82zm-.56-5.525c0 .416.042.85-.016 1.27-.043.294-.146.66-.352.84-.92.784-1.692 1.97-3.21 1.38-.913.304-1.823.62-2.745.895-.16.05-.38-.087-.57-.14.063-.19.084-.412.196-.564.317-.426.617-.895 1.02-1.226 1.833-1.5 3.58-3.068 4.692-5.212.037-.07.203-.148.262-.12.164.074.422.188.442.317.124.842.19 1.695.28 2.56zm-5.308-14.604l.053-.16c.056-.006.11-.023.165-.03.82-1.18 1.64-2.362 2.472-3.534.514-.727.757-1.524.72-2.414-.02-.54-.438-1.042-.99-1.063-.532-.02-1.07.08-1.6.036-.26-.02-.657-.15-.447-.61.487-1.067 1.003-2.11 1.152-3.314.11-.878.704-1.192 1.643-1.123.762.055 1.33.477 1.337 1.125.02 3 .02 6-.02 9 0 .254-.27.655-.5.73-1.248.41-2.443 1.01-3.765 1.168l-.08.11-.138.078-.1.3-.198-.133.297-.165zm.486 6.195c.738-.9 1.655-1.66 2.54-2.422.423-.37.71-1.22 1.395-.88.26.128.156.977.235 1.495.127.838.287 1.672.406 2.512.093.666-.37 1.307-1.067 1.307-2.517.003-4.466 1.15-6.18 2.865-1.204 1.2-2.45 2.36-3.7 3.51-.218.202-.56.27-.845.4-.15-.382-.38-.753-.424-1.138-.093-.79.12-1.413.918-1.844 2.66-1.437 4.812-3.47 6.72-5.803zm-7.107 21.796c.8-.482 1.63-.917 2.46-1.357.024-.014.163.12.197.202.03.086.034.23-.018.29-.61.71-1.225 1.42-1.87 2.1-.11.115-.468.175-.56.092-.205-.18-.314-.472-.428-.66.088-.293.088-.588.22-.666zm-.336-5.416c-.02-.172.098-.417.235-.54.144-.13.387-.22.568-.196.125.018.22.26.37.463-.25.2-.47.43-.738.555-.093.043-.416-.164-.434-.283zm-.507-17.15c.21-.416.853-.533 1.335-.2.14.098.2.315.3.477-.054.628-.562 1.162-1.16 1.202-.093.005-.203-.014-.277-.065-.314-.207-.416-.99-.196-1.416zm.025-5.51c.1-.223.46-.34.72-.477.037-.02.2.1.24.188.216.46-.114 1.068-.65 1.225-.083-.016-.23-.02-.236-.05-.053-.298-.186-.647-.077-.88zm-.487-12.262c.186.043.356.14.535.213-.123.124-.235.31-.378.347-.085.02-.245-.196-.333-.33-.02-.028.133-.24.175-.23zm.296 4.902c.587-.414 1.224-.75 1.843-1.12.482-1.23 1.18-2.226 2.597-2.42l.05-.088.065-.02c-.068-.428.19-.7.514-.908.123-.077.435-.082.475-.016.074.143.1.477.027.515-.32.173-.677.28-1.022.405.004.032-.003.056.005.09-.042.004-.076.016-.116.02-.565 1.087-1.28 2.033-2.418 2.593-.08 1.198-1.058 1.71-1.842 2.36-.085.073-.4 0-.5-.11-.122-.126-.222-.393-.167-.545.096-.277.256-.593.487-.755zm-4.146 45.894c-.44-.46-.9-.91-1.28-1.412-1.022-1.352-2.014-2.728-3.008-4.1-.347-.474-.216-.718.456-.767.734-.053 1.472-.06 2.204-.043.094.002.29.33.252.418-.216.476-.53.91-.74 1.387-.197.442.375 1.14.863 1.076 1.056-.14 2.05-.41 2.968-1.03.896-.603 1.05-.476 1.072.945-.02.094-.066.637-.304 1.073-.45.836-1.01 1.61-1.52 2.414-.29.444-.556.47-.96.04zm4.554 4.427c-.392.347-.782.214-1.114-.1-.31-.29-.595-.61-.862-.94-.546-.68-.512-1.21.267-1.46 1.627-.53 2.365-2.1 3.7-2.94.073-.045.214-.037.295.003.085.043.14.156.077.08.16 2.305-.786 3.983-2.364 5.356zm5.2 7.497c-.1.163-.673.272-.792.16-.832-.786-1.6-1.637-1.54-2.892-.038-.007-.074-.006-.112-.014.017-.044.032-.09.047-.135-.416-.26-.875-.472-1.21-.808-.48-.482-.467-1.105.02-1.35 1.374-.69 2.273-1.89 3.34-2.916.517-.496.847-1.26 1.704-1.322.004-.447.21-.66.657-.603 0-.01.003-.017.002-.027.01 0 .017-.003.027-.003-.028-.44.17-.64.602-.597 0-.02.005-.032.004-.053.02 0 .036-.008.058-.008-.02-.417.192-.58.576-.566.002-.026.01-.047.01-.076.032-.003.056-.015.085-.02.014-.318.213-.46.496-.527.004-.04.015-.072.014-.115l.69-.64c.024 0 .052 0 .08.002.02-.29-.015-.615.12-.84.49-.82 1.04-1.604 1.583-2.39.856-1.24 1.547-2.516 1.61-4.095.03-.817.453-1.057 1.29-1.036.533.015 1.067.03 1.595.075.203.02.398.127.597.194-.076.19-.1.437-.234.56-1.585 1.456-2.82 3.186-3.91 5.02-.612 1.037-1.45 1.81-2.42 2.478-.057.04-.148.032-.234.032-.002.02-.002.048-.005.072-.224.218-.452.436-.677.653-.035.005-.065.017-.1.025-.027.298-.192.473-.496.526 0 .035-.013.06-.01.097-.033-.002-.054.004-.086.003-.023.352-.208.55-.576.565.002.02-.005.035-.002.06-.02-.002-.037.003-.06 0 0 .396-.19.607-.602.598 0 .01-.002.02 0 .03-.013-.002-.02 0-.03 0 .022.42-.156.657-.603.656.083.71-.45 1.11-.813 1.594-.866 1.155-1.764 2.288-2.588 3.473-.256.367-.358.837-.51 1.277.02.013.043.023.064.037-.003.04 0 .076 0 .11 1.845.3 3.214-.465 4.367-1.886.523-.647 1.24-1.148 1.89-1.683.118-.092.432-.1.524-.013.112.107.184.453.105.533-1.728 1.763-3.27 3.67-4.552 5.787zm3.816 8.568c-.114-.17-.288-.318-.27-.424.033-.16.18-.372.32-.413.14-.04.332.107.5.17l-.55.668zm10.35-22.12c-1.994 4.48-4.02 8.952-6.01 13.437-.335.757-.827 1.11-1.643 1.297-.99.227-1.945.575-2.98.463l-.062.085c-.085.026-.17.05-.25.08l-.384.41c-.013.054-.03.1-.025.17-.032-.01-.06-.003-.09-.008-.133.672-.56 1.028-1.246 1.082-.084.006-.2-.073-.26-.145-.04-.05-.047-.182-.007-.236.373-.526.853-.824 1.513-.7.004-.02.015-.037.02-.06l.095-.1c.044-.224.19-.34.385-.413.05-.058.107-.113.157-.17.053.01.102 0 .155.006 1.08-1.39 2.066-2.87 3.28-4.132.99-1.023 1.684-2.167 2.34-3.39 1.46-2.717 2.972-5.405 4.476-8.094.064-.113.31-.116.467-.172.03.2.14.433.07.59zm1.377-3.756c-.055.03-.18-.008-.24-.056-.07-.06-.16-.173-.15-.25.12-.853.595-1.51 1.22-2.07.073-.063.203-.13.277-.11.077.022.12.157.22.3-.045.932-.447 1.698-1.326 2.187zM58.153 43.28c-2.21-2.13-3.738-4.644-5.082-7.35-.95-1.914-1.954-3.832-3.19-5.567-1.194-1.675-2.156-3.44-2.96-5.312-.425-.98-.8-1.99-1.26-2.953-.414-.87-.91-1.7-1.38-2.543-.803-1.446-4.14-1.627-4.96.132-.355.768-.81 1.523-1.36 2.165-1.77 2.066-2.887 4.475-3.99 6.93-2.1 4.695-4.437 9.266-7.452 13.47-2.555 3.568-4.832 7.33-7.605 10.747-.928 1.146-1.138 2.515-.976 3.952.066.58.62 1.204 1.23 1.34.418.094.847.186 1.268.166 1.818-.08 3.643-.122 5.448-.333 1.37-.157 2.715-.55 4.07-.843.427-.097.907.2.904.614-.01 1.608.087 3.232-.094 4.82-.52 4.492-.352 9-.466 13.5-.085 3.323.075 6.667-.213 9.97-.395 4.505-.264 9.002-.285 13.5-.005.854.05 1.718.176 2.563.175 1.18.155 2.313-.07 3.502-.444 2.323 1.32 3.92 3.667 3.437.523-.107 1.045-.248 1.54-.44 2.85-1.098 5.808-1.425 8.837-1.277.64.033 1.287.005 1.93.005v.013c1.933 0 3.864.066 5.792-.016 2.67-.11 3.443-.962 3.428-3.566-.002-.317-.105-.634-.158-.95-.26-1.476-.518-2.954-.78-4.428-.153-.87-.18-1.717.53-2.394.51-.48.652-1.09.645-1.752-.028-2.896.16-5.813-.157-8.678-.273-2.46-.48-4.907-.475-7.368.013-3.765-.623-7.465-.962-11.195-.258-2.88-.323-5.775-.416-8.667-.032-.935.414-1.294 1.41-1.333.75-.03 1.51.052 2.25-.033 1.164-.134 2.324-.33 3.47-.57.794-.167 1.288-.684 1.454-1.524.564-2.83.394-5.51-1.344-7.968-.86-1.22-1.372-2.758-2.417-3.765zm-5.423 8.228c-.846.096-1.694.243-2.512.47-1.28.356-1.973 1.332-1.717 2.653.207 1.058.5 2.04.007 3.1-.164.353-.1.856-.032 1.27 1.333 7.976 1.176 16.02 1.163 24.06-.008 3.433-.047 6.866.005 10.3.02 1.74-.196 3.412-.73 5.06-.16.5-.37 1.03-.352 1.537.028.702.726 1.552-.074 2.042-.57.35-1.43.234-2.162.293-.425.034-.86.025-1.285.003-2.81-.146-5.56.125-8.246 1.01-.397.13-.843.218-1.25.174-.25-.028-.636-.323-.664-.536-.112-.845-.134-1.707-.134-2.563-.01-6.22-.006-12.444-.006-18.667h-.008c0-5.043.064-10.088-.02-15.13-.06-3.316-.325-6.634-.516-9.95-.053-.91-.248-1.034-1.467-1.272-.4-.074-.996-.11-1.14-.37-.784-1.415-2.047-1.77-3.51-1.83-.314-.01-.62-.163-.93-.243-1.125-.286-1.197-.452-.496-1.474 1.394-2.033 2.875-4.01 4.203-6.086 1.787-2.795 3.347-5.743 5.224-8.474 1.545-2.248 2.29-4.797 3.315-7.247.248-.59.482-1.195.805-1.746.93-1.587 1.29-1.548 2.23.092 1.173 2.045 2.417 4.05 3.58 6.098.9 1.582 1.71 3.217 2.585 4.815 1.338 2.438 2.517 4.975 4.62 6.92.613.567 1.118 1.34 1.432 2.114.463 1.137 1.698 1.904 1.57 3.31-1.164.086-2.327.135-3.484.27z"/></svg>