<svg xmlns="http://www.w3.org/2000/svg" width="128" height="128" viewBox="0 0 128 128"><path d="M111.442 63.883h-.105c0-5.79.007-11.578-.01-17.365-.004-.745-.054-1.51-.24-2.226-.378-1.446-1.23-2.5-2.82-2.7-1.275-.156-2.555-.357-3.833-.362-6.976-.013-13.95.005-20.925.062-3.863.03-7.725-.134-11.578.297-.85.094-1.714.05-2.575.034-.8-.014-1.137-.352-1.184-1.184-.205-3.853-.376-7.71-.608-11.562-.112-1.817-.326-3.627-.523-5.438-.034-.302-.17-.634-.357-.875-.934-1.2-2.66-1.54-4.032-.847-2.04 1.03-3.67 2.577-5.265 4.165-1.98 1.968-3.807 4.112-5.957 5.87-1.834 1.497-3.51 3.13-5.166 4.8-1.136 1.14-2.214 2.346-3.42 3.41-4.102 3.63-7.79 7.682-11.71 11.498-.537.525-1.046 1.08-1.6 1.584-2.14 1.94-4.31 3.846-6.428 5.808-1.02.945-1.882 2.028-3.317 2.454-.764.226-1.077.963-1.11 1.795-.042 1.1.174 2.09.758 3.06 1.24 2.054 2.822 3.775 4.756 5.164.968.693 1.79 1.486 2.537 2.424 1.86 2.336 4.093 4.352 5.93 6.73 1.04 1.345 2.477 2.372 3.69 3.585 1.14 1.137 2.053 2.592 3.37 3.43 1.488.95 2.508 2.294 3.758 3.43 3.493 3.174 6.923 6.418 10.347 9.667 1.71 1.62 3.356 3.306 5.01 4.98.484.49 1.046.747 1.713.754.856.008 1.717.004 2.573-.043.574-.03 1-.332 1.217-.886.433-1.106.737-2.236.703-3.442-.117-4.4.45-8.774.608-13.164.006-.213-.02-.47.09-.627.16-.24.404-.533.655-.58.52-.093 1.07-.074 1.602-.04 2.352.15 4.702.39 7.054.464 3.435.107 6.87.14 10.302.128 3.106-.01 6.22.08 9.305-.5.93-.175 1.922-.043 2.886-.02 3.004.078 5.98.03 8.962-.577 1.368-.277 2.32-.934 3.296-1.792 1.126-.99 1.66-2.148 1.654-3.658-.032-5.9-.01-11.797-.01-17.7zm-6.95 8.074c.003.856-.034 1.712-.032 2.57.002 1.043-.62 1.507-1.534 1.767-.47.13-.817.112-1.045-.365-.222-.478-.403-.99-.71-1.408-.16-.216-.592-.42-.82-.352-.37.11-.844.382-.96.7-.21.585-.2 1.25-.26 1.883-.09.97-.62 1.58-1.545 1.82-.722.19-1.457.336-2.197.443-.555.08-1.03-.098-1.39-.597-.373-.517-.78-1.028-1.248-1.453-.77-.693-1.97-.427-2.44.507-.14.282-.196.608-.256.92-.09.48-.395.753-.832.857-.626.15-1.26.278-1.894.366-1.18.16-1.515-.037-1.963-1.133-.203-.496-.33-1.022-.542-1.51-.283-.64-.96-1.07-1.515-.98-.753.114-1.018.714-1.22 1.332-.098.3-.077.637-.14.95-.232 1.215-.385 1.34-1.674 1.382-.216.005-.427.01-.643.01-.595.006-1.03-.266-1.23-.825-.217-.602-.38-1.227-.58-1.835-.48-1.42-.944-2.848-1.474-4.25-.263-.705-.704-1.308-1.43-1.667-.505-.25-1.23-.164-1.392.315-.27.802-.576 1.624-.634 2.456-.11 1.495-.07 3 .353 4.468.153.523-.463.907-1.07.76-.568-.14-1.023-.444-1.155-.99-.302-1.244-.54-2.505-.768-3.765-.245-1.368-.424-2.747-.685-4.11-.15-.787-1.205-1.067-1.78-.483-.292.295-.588.643-.73 1.023-.447 1.212-.75 2.458-.724 3.767.015.747-.03 1.493-.103 2.238-.017.16-.245.4-.405.422-.298.048-.64.017-.925-.083-.168-.06-.358-.3-.387-.48-.395-2.645-.998-5.284-.315-7.968.23-.904.093-1.69-.576-2.375-.74-.757-1.823-.82-2.59-.125-.238.214-.54.434-.638.71-.645 1.905-1.906 3.606-1.85 5.747.05 1.824.01 3.648.01 5.472.042 2.89.035 5.777.604 8.643.267 1.353.206 2.778.213 4.168.004.566-.396.976-.988 1.1-.71.154-1.436-.14-1.587-.742-.286-1.137-.525-2.29-.708-3.446-.27-1.692-.416-3.403-.736-5.085-.11-.588-.53-1.148-.907-1.642-.432-.565-1.387-.412-1.566.238-.258.923-.5 1.862-.617 2.81-.14 1.17-.126 2.358-.22 3.534-.017.245-.213.478-.33.718-.262-.176-.614-.296-.77-.54-.33-.53-.653-1.1-.814-1.696-.644-2.38-1.006-4.81-1.178-7.276-.112-1.6-.336-3.192-.55-4.782-.057-.41-.24-.813-.417-1.195-.193-.42-.97-.805-1.35-.605-.346.18-.802.518-.853.843-.3 1.9-.544 3.808-.707 5.724-.112 1.28-.044 2.572-.08 3.86-.005.172-.16.34-.245.513-.19-.1-.4-.17-.56-.302-1.25-1-1.836-2.23-1.763-3.903.117-2.784.043-5.58.025-8.367-.006-.747-.03-1.5-.165-2.23-.147-.822-.858-1.462-1.485-1.49-.723-.03-1.216.374-1.602.91-.248.34-.452.73-.602 1.125-.262.695-.46 1.414-.693 2.12-.066.2-.15.395-.224.594-.053-.207-.157-.417-.147-.62.06-1.06.12-2.13.24-3.186.13-1.173.322-2.336-.103-3.492-.224-.61-1.195-.912-1.573-.422-.516.67-1.045 1.363-1.362 2.133-.363.88-.49 1.854-.73 2.784-.112.44-.69.666-.99.373-.607-.6-1.223-1.2-1.793-1.837-.71-.796-1.64-1.59-1.58-2.71.067-1.146.46-2.292.843-3.396.16-.465.6-.92 1.035-1.193 1.84-1.17 3.098-2.942 4.66-4.398 1.173-1.097 2.34-2.2 3.515-3.297.864-.806 1.75-1.586 2.596-2.408 2.845-2.765 5.59-5.637 8.54-8.284 2.555-2.29 5.023-4.666 7.483-7.054.386-.37.733-.806 1.173-1.1.917-.607 1.208-2.068 2.65-1.956.53 1.056.003 2.086-.065 3.133-.187 2.78-.327 5.564-.493 8.344-.032.505.258.81.656.987 2.752 1.22 5.518 2.156 8.648 2.084 5.253-.117 10.513.035 15.77.16 5.46.13 10.925.358 16.387.555 1.222.042 1.45.27 1.45 1.572-.01 6.008-.046 12.017-.06 18.022.003 1.818.05 3.637.065 5.46z"/></svg>