<svg xmlns="http://www.w3.org/2000/svg" width="128" height="128" viewBox="0 0 128 128"><path d="M116.787 36.768c-1.07-4.672-3.69-7.78-8.302-9.327-1.946-.65-3.877-1.07-5.893-1.385-3.605-.565-7.204-1.053-10.85-1.056-5.358-.004-10.717.077-16.073.14-.64.01-1.277.16-1.917.206-2.98.203-5.94.693-8.95.482-1.6-.112-3.215-.053-4.823-.01-4.927.122-9.855.218-14.78.432-4.386.19-8.782.374-13.138.867-2.097.24-4.224.48-6.31.992-2.088.512-4.022 1.44-6.113 1.904-1.41.314-2.455 1.264-3.405 2.315-.5.546-.94 1.187-1.536 1.602-1.6 1.12-2.326 2.682-2.8 4.512-.223.875.01 1.987-.95 2.62v3.86c.587 0 1.07.195 1.268.78.6 1.748 1.93 2.78 3.46 3.636.468.26.895.605 1.375.833.473.226.983.462 1.493.51 2.557.24 5.12.422 7.68.614.64.05 1.286.043 1.926.083.442.027.802.47.706.88-.265 1.14-.527 2.29-.835 3.426-2.138 7.845-4.192 15.712-5.717 23.704-.98 5.152-1.936 10.304-2.86 15.462-.165.944-.208 1.93-.136 2.885.064.836.27 1.696.594 2.47.8 1.91 2.254 2.668 4.34 2.445 1.17-.128 2.342-.242 3.52-.273 2.785-.075 5.575-.07 8.362-.148 1.067-.027 2.163-.046 3.186-.304 2.738-.687 5.54-.59 8.3-.61 4.9-.036 9.795.13 14.65-.788 2.098-.395 4.224-.75 6.347-.873 6.414-.374 12.83-.662 19.26-.563 3.303.053 6.63.068 9.924-.61 2.507-.516 5.04-.998 7.63-.962.526.007 1.06-.16 1.58-.288.3-.073.693-.146.858-.36.835-1.1 1.827-2.16 1.604-3.71-.26-1.792-.43-3.613-.877-5.36-1.136-4.45-2.318-8.894-3.64-13.29-1.568-5.22-3.016-10.463-4.296-15.756-.504-2.075-.98-4.156-1.444-6.243-.125-.57.295-1.08.852-1.084 2.04-.005 4.077.054 6.112-.014.946-.035 1.94-.164 2.81-.512 2.35-.932 4.228-2.528 5.432-4.753.864-1.593 1.508-3.31 2.194-4.99.576-1.43.53-2.853.177-4.395zm-88.85 6.664c-.353.32-1.23.128-1.304-.31-.036-.206.264-.465.453-.76.335.247.602.4.806.613.088.09.117.387.045.456zm72.92 44.68c.057.205.138.404.196.61.747 2.64.504 2.975-2.304 2.395-2.258-.47-4.44-.256-6.69-.05-4.91.45-9.75 1.316-14.62 2.03-2.537.368-5.114.49-7.674.685-3.952.3-7.92.427-11.853.875-5.233.594-10.48.44-14.577.612-4.79 0-8.435.002-12.08-.006-.75-.002-1.503-.002-2.246-.08-.462-.045-.743-.38-.694-.876.06-.64.107-1.286.245-1.91 1.32-5.963 2.17-11.997 3.036-18.034.8-5.61 1.907-11.168 3.492-16.63.92-3.174 2.037-6.316 2.46-9.62.17-1.378.354-2.755.447-4.14.15-2.16 1.02-3.033 3.285-2.93 1.8.08 3.636-.344 5.412.35.337.132.84-.022 1.222-.163 1.13-.415 2.266-.445 3.46-.394 2.99.128 5.996.363 8.966-.31.177-.038.4.115.6.178-.093.192-.145.416-.28.563-.654.705-1.336 1.39-1.997 2.09-.535.565-.82 1.24-.868 2.02-.072 1.2.51 2.108 1.618 2.48.203.068.416.166.62.16 1.42-.048 2.474.264 2.69 1.975.088.674 1.107.952 1.9.782 1.24-.264 2.09-1.088 2.755-2.07 1.225-1.823 1.077-3.535-.775-4.752-1.198-.785-1.472-2.048-2.334-2.955-.23-.238-.17-.387.154-.446.105-.017.206-.066.31-.07 4.817-.066 9.6-.83 14.433-.687 2.242.064 4.477-.21 6.72-.437 4.04-.41 3.42-.606 4.256 2.9 1.088 4.576 2.16 9.156 3.164 13.75.525 2.4.636 4.912 1.394 7.223.908 2.766 1.036 5.66 1.843 8.43.78 2.667 1.267 5.414 1.967 8.103.726 2.798 1.556 5.565 2.345 8.344zm7.228-48.577c-.098.117-.37.115-.562.117-.068.004-.21-.146-.203-.213.1-.813.218-1.623.34-2.43.015-.077.13-.2.18-.194.093.01.212.09.25.173.217.47.412.95.645 1.503-.22.363-.397.734-.65 1.04zm-19.003 26.35c.16-.385.41-.786.728-1.048 1.216-1.003 1.173-2.144.587-3.46-.823-1.84-1.85-2.426-3.797-2.06-1.156.22-2.33.353-3.473.62-1.272.294-2.402.072-3.202-.932-1.195-1.5-2.85-2.25-4.504-3-3.056-1.39-6.044-1.28-8.766.816-1.007.78-2.08 1.65-2.692 2.73-1.177 2.064-2.994 2.54-5.09 2.72-1.388.12-2.764.346-4.144.503-.638.072-1.28.114-1.925.133-1.06.032-1.426-.3-1.357-1.26.06-.857.162-1.71.275-2.56.057-.42.228-.83.265-1.256.15-1.676-1.184-2.855-2.863-2.565-.96.166-1.555.787-1.81 1.643-.483 1.634-1.106 3.285-1.22 4.96-.128 1.9-1.056 2.616-2.725 2.83-.53.068-1.07.102-1.587.23-.93.234-1.86.482-2.76.81-.814.293-1.155 1.088-1.04 2.13.094.818.612 1.478 1.394 1.533 1.065.077 2.138.023 3.206.023v-.08c.856 0 1.714-.018 2.57.018.14.007.385.25.38.374-.008.173-.175.395-.333.49-.27.158-.58.284-.89.342-1.675.31-3.34.715-5.072.653-.527-.018-1.065.18-1.205.83-.16.758.338 1.53 1.13 1.67.524.093 1.06.11 1.595.14 1.713.08 3.428.212 5.14.21 1.252-.007 2.37.324 3.27 1.124 1.488 1.32 3.28 1.946 5.084 2.65 1.454.565 2.932.658 4.417.65 2.088-.013 3.723-.916 4.582-2.932.375-.884.742-1.777 1.09-2.676.22-.555.61-.814 1.184-.928 3.253-.647 6.502-1.314 9.752-1.98.315-.063.623-.162.94-.215.34-.052.868.428.85.803-.03.64-.085 1.275-.174 1.91-.194 1.418.013 2.796.49 4.112.16.45.616.928 1.057 1.115 1.41.6 2.914.01 3.47-1.36.315-.774.498-1.64.548-2.473.094-1.5.03-3.006.056-4.51.016-.83.205-1.082 1.072-1.343 1.33-.4 2.66-.808 4.013-1.112.666-.153 1.2-.32 1.49-1.013zm-29.02 2.25c-.444.266-.964.48-1.476.54-1.902.22-3.847.05-5.71.656-.193.064-.424.007-.73.007-.207-.11-.486-.25-.75-.416-.082-.05-.178-.173-.167-.252.02-.177.05-.416.173-.507.25-.19.55-.4.848-.432 2.54-.286 5.08-.538 7.623-.77.15-.016.46.234.456.355-.005.286-.073.707-.265.82zm12.194-2.14c-.28.155-.552.354-.853.424-1.55.36-3.1.706-4.66 1-.26.05-.574-.19-.85-.29.014-.16-.014-.3.042-.37.124-.153.277-.374.443-.393 1.89-.237 3.787-.445 5.685-.648.094-.01.198.063.3.097-.033.06-.054.15-.106.177zm-.043-5.12c-.73.043-1.46.08-2.19.103-.09 0-.185-.098-.276-.15.046-.095.066-.22.142-.28.737-.587 1.467-.623 2.33-.114.08.046.136.17.15.27.004.048-.1.164-.16.17zM42.18 82.44c-1.755-.582-3.55-.76-5.28.116-.95.482-1.913.96-2.79 1.56-1.69 1.155-2.783 3.824-2.516 5.855.145 1.125.663 2 1.557 2.688 1.436 1.11 3.085 1.397 4.9 1.327 2.05.128 3.946-.512 5.615-1.775 1.888-1.43 2.517-3.436 2.155-5.686-.334-2.07-1.665-3.435-3.638-4.085zm51.225-3.953c-2.667.032-5.493 2.546-6.14 4.47-.59 1.755.467 3.615 2.25 3.86.948.13 1.917.112 2.53.144 1.308-.11 2.282-.12 3.22-.29 1.405-.255 2.268-1.313 2.624-2.54.8-2.768-1.57-5.676-4.486-5.644z"/></svg>