<svg xmlns="http://www.w3.org/2000/svg" width="128" height="128" viewBox="0 0 128 128"><path d="M98.1 53.816c-.397-.527-.34-1.003.115-1.43.856-.8 1.85-1.492 2.573-2.4.867-1.087 1.262-2.11-.434-3.202-.53-.34-1.006-.776-1.474-1.203-1.104-1.01-2.114-2.145-3.302-3.046-.988-.75-1.265-1.627-1.22-2.77.038-.992.368-1.872.764-2.763.433-.974.825-1.976 1.13-2.996.257-.86-.16-1.754-.953-2.193-.46-.253-.97-.463-1.485-.56-1.36-.266-2.736-.457-4.107-.684-1.078-.176-1.502-.582-1.637-1.653-.215-1.7-.404-3.403-.594-5.104-.093-.84-.563-1.347-1.32-1.66-.813-.338-1.613-.5-2.496-.24-.923.276-1.89.39-2.808.684-1.702.54-1.816-.156-2.308-1.363-.197-.482-.196-1.044-.3-1.567-.16-.84-.284-1.69-.517-2.512-.385-1.346-1.69-1.94-2.737-1.095-1.536 1.234-3.424 1.744-5.053 2.77-.707.447-1.177.342-1.732-.2-.46-.448-.885-.93-1.307-1.416-.767-.893-1.485-1.83-2.284-2.69-.835-.9-1.85-1.055-2.896-.394-.708.45-1.362 1.02-1.948 1.624-.745.767-1.373 1.645-2.094 2.437-.953 1.045-1.98 1.202-3.14.465-.633-.4-1.196-.91-1.79-1.37-.507-.39-.977-.854-1.534-1.16-1.55-.85-3.027-.252-3.546 1.385-.096.305-.093.642-.2.94-.584 1.6-1.17 3.203-1.8 4.785-.213.537-.64.785-1.29.633-1.25-.293-2.51-.562-3.777-.763-2.37-.375-3.59.587-3.864 3.026-.07.636-.023 1.285-.032 1.928-.013.858.003 1.717-.045 2.573-.054.94-.336 1.32-1.33 1.51-1.26.24-2.548.314-3.81.53-2.03.34-2.665 1.487-1.95 3.46.147.4.366.774.566 1.15.3.57.636 1.12.917 1.7.456.93.366 1.325-.34 1.97-1.027.94-1.955 2.017-3.088 2.8-1.35.935-1.36 1.97-.836 3.324.32.83.756 1.536 1.396 2.12.838.766.89 1.643.48 2.63-.203.494-.358 1.01-.547 1.51-.378 1.002-.85 1.976-1.12 3.004-.287 1.11-.01 2.106 1.04 2.8.9.59 1.794 1.102 2.893 1.3.917.163 1.237.75 1.112 1.66-.314 2.23-.896 4.394-1.672 6.51-.384 1.054-.075 1.717.968 1.922 1.36.267 2.75.407 4.126.58 1.22.148 1.678.66 1.597 1.922-.032.53-.177 1.054-.23 1.585-.093.954-.228 1.915-.212 2.872.02 1.447.81 2.122 2.316 1.95.947-.106 1.888-.364 2.807-.63 3.246-.94 3.347-.9 4.245 2.22.146.512.188 1.054.324 1.57.19.725.352 1.47.65 2.15.57 1.312 2.113 1.89 3.46 1.453 1.15-.373 2.102-1.01 3.004-1.8.828-.724 1.458-.59 2.176.306.734.92 1.43 1.874 2.165 2.79 2.54 3.157 4.99 2.78 6.663-.61.33-.674.72-1.314 1.112-1.954.512-.833 1.27-1.19 2.197-.844 2.23.837 4.705.352 6.903 1.333.186.08.422.063.638.06.82-.01 1.508-.363 1.814-1.106.32-.784.463-1.64.68-2.465.216-.82.578-1.056 1.38-.922 1.473.245 2.948.484 4.422.725.007-.058.015-.117.02-.176.645 0 1.29.032 1.93-.006 1.895-.116 2.23-.345 2.622-2.158.29-1.355.39-2.75.623-4.117.156-.906.595-1.58 1.633-1.703.85-.1 1.7-.242 2.528-.45 1.138-.285 2.287-.565 3.37-1 1.19-.478 1.55-1.283 1.313-2.604-.112-.627-.296-1.25-.52-1.847-.337-.902-.752-1.775-1.115-2.668-.527-1.295-.38-1.694.864-2.242 1.178-.516 2.39-.962 3.32-1.905 1.3-1.31 1.415-2.516.313-3.997-.77-1.035-1.607-2.012-2.38-3.04zm-13.567-25.58c.064.19.17.37.16.54-.008.112-.19.212-.29.32-.054-.174-.157-.35-.146-.52.008-.118.174-.223.277-.342zm-15.38-6.684c.668-.21 1.352-.38 2.03-.557l.05-.123c.045 0 .093.004.14.008.103-.133.2-.282.336-.34.137-.06.342.037.516.063-.133.094-.256.233-.402.267-.144.035-.3.02-.453.01-.02.03-.04.057-.063.083l-.125.032c-.478 1.22-.754 1.387-1.952 1.218-.09-.013-.244-.13-.24-.184.02-.17.065-.446.164-.477zm-6.764-3.396c.062-.08.425-.05.526.05.66.667 1.318 1.34 1.902 2.07.143.18.087.62-.02.882-.185.46-.524.173-.75.014-.423-.294-.81-.64-1.21-.964-.697.258-1.27.5-1.867.672-.133.04-.34-.17-.513-.267.637-.82 1.264-1.655 1.93-2.457zm-12.85 4.49c.197-.495.43-.975.67-1.45.308-.61.684-.734 1.245-.4.365.216.677.54 1.06.698.662.272 1.47.272 1.8 1.086-.64.37-1.256.786-1.924 1.092-.56.256-1.183.384-1.39.448-1.34.006-1.8-.633-1.46-1.475zm-9.78 4.715c.096-.45.45-.67.91-.723 1.33-.16 2.46.563 3.686.847.09.02.156.142.233.216-.164.087-.323.24-.494.255-.528.05-1.06.067-1.593.064-.958-.01-1.602.43-2.008 1.29-.147.31-.38.58-.576.866-.08-.303-.177-.602-.23-.91-.034-.206-.005-.424-.005-1.084-.002.02-.013-.412.075-.82zM32.64 57.5c-.112.017-.4-.3-.373-.357.11-.237.31-.43.475-.64l.68.597c-.345.19-.554.367-.782.4zm1.816-21.06c-.54-.468-.99-.66-1.647-.253-.335.205-.64-.112-.61-.4.026-.214.347-.492.587-.558.395-.11.827-.07 1.438-.104.224.016.645.004 1.045.09.445.092.307.436.204.716-.3.79-.523.94-1.02.51zm3.258 31.29c-.352-.02-.526-.448-.272-.637.14-.1.416-.173.542-.102.142.08.18.338.264.517-.18.082-.36.235-.533.224zm2.897 7.834c-.37-.017-.752-.032-1.114-.117-.08-.02-.174-.36-.117-.485.05-.11.324-.2.466-.164.284.07.55.22.81.363.078.045.112.165.167.25-.07.053-.142.16-.21.157zm-.333-4.747c-.122-.12-.34-.24-.34-.366-.01-.166.123-.45.25-.484.16-.043.376.112.68.224-.22.23-.406.43-.59.628zm7.35 5.09c-.01-.015-.01-.035-.02-.053-.06-.036-.118-.075-.18-.11-.025-.033-.03-.093-.035-.156l-.347-.15c.354-.252.336-.03.347.15.043.02.087.038.132.06.028.068.05.14.082.207l.192.117c-.06-.02-.14-.023-.17-.064zm11.736 4.08c-.235-.048-.467-.112-.702-.172.083-.058.17-.17.246-.16.18.02.36.1.54.155-.03.062-.067.18-.083.176zm1.852 5.13c-.094.105-.405.135-.523.058-.138-.09-.27-.365-.228-.51.08-.288.25-.572.448-.8.1-.113.43-.192.507-.12.127.12.14.367.223.643-.116.213-.23.512-.426.73zm2.706-4.476l-.074-.156.183.02-.11.137zm9.23 1.37c-.115-.01-.22-.183-.325-.285.174-.053.352-.153.52-.142.113.007.22.17.335.273-.19.062-.366.168-.532.155zm1.06-2.16c-.054-.065-.163-.143-.155-.203.02-.166.098-.326.153-.49l.175.206-.175.49zm10.463-3.913c-.15.476-.36.93-.57 1.382-.032.067-.184.082-.28.122-.055-.084-.164-.175-.16-.255.04-.497.044-1.008.19-1.475.055-.175.46-.242.7-.358.044.198.17.42.118.587zm3.2-6.09l-.303-.357c.162-.065.337-.19.492-.172.128.017.235.206.348.318l-.54.21zm1.667-16.233c-.603 3.035-.93 6.123-1.393 9.186-.096.628-.122 1.332-.427 1.858-1.296 2.22-2.757 4.33-4.82 5.935-2.046 1.595-4.438 2.55-6.774 3.593-.378.17-.83.175-1.245.26-1.775.358-3.6.574-5.32 1.11-2.943.91-5.92.89-8.903.6-4.898-.48-9.304-2.43-13.414-5-1.518-.95-2.893-2.244-4.064-3.613-2.015-2.344-4.196-4.602-5.388-7.538-.762-1.88-1.476-3.78-2.202-5.675-.4-1.045-.326-2.064.043-3.132.347-1.005.61-2.066.713-3.12.196-1.953.813-3.753 1.653-5.497.186-.382.385-.766.535-1.164 1.13-2.982 3.072-5.27 5.57-7.26 1.878-1.497 3.867-2.66 6.07-3.508.896-.346 1.852-.544 2.727-.93 1.69-.75 3.44-1.06 5.287-1.125 1.92-.07 3.83-.363 5.75-.54.85-.077 1.707-.11 2.56-.162 5.25-.35 9.86 1.7 14.363 3.966 1.383.695 2.528 1.936 3.66 3.054 1.69 1.67 2.783 3.792 4.02 5.795.587.952 1.515 5.307 1.513 6.842-.005 2.035-.114 4.046-.516 6.067zm1.482 10.79c-.113-.092-.317-.18-.32-.277-.007-.165.112-.334.18-.5l.35.282-.212.495zm1.053-29.344c.02-.166.213-.42.335-.424.162-.004.387.16.48.318.1.166.075.405.107.612-.085.15-.168.3-.25.45-.176-.12-.396-.206-.513-.367-.113-.16-.188-.404-.16-.59zm.773 6.09c-.075-.077-.213-.155-.21-.224.008-.3.055-.597.1-.892.005-.023.118-.03.182-.045.032.297.08.593.092.892.003.085-.103.175-.162.267zm3.827 17.02c-.275.258-.565.503-.88.775-.15-.277-.31-.47-.274-.52.18-.24.38-.487.63-.64.108-.064.355.085.53.163.026.014.034.184-.005.222zM51.407 89.575c-1.443-.672-3.02-1.12-4.58-1.454-1.733-.37-3.23-1.027-4.513-2.27-.78-.76-1.783-1.174-3.362-1.18-.288.127-1.006.343-1.6.744-1.21.818-1.81 2.116-2.272 3.43-.89 2.546-2.193 4.87-3.568 7.17-1.488 2.483-2.776 5.067-3.832 7.763-.36.917.117 1.692 1.152 1.853.41.065.85.08 1.256-.003 1.474-.3 2.86-.83 4.208-1.52 1.133-.58 2.357-.995 3.558-1.43.462-.163.832.143 1.024.55.132.283.11.63.206.934.78 2.443 1.336 4.953 2.42 7.295.415.894.905 1.696 1.735 2.255.48.324.955.345 1.5.116 1.55-.654 2.264-1.986 2.59-3.467.284-1.297.857-2.39 1.492-3.513 1.794-3.165 3.51-6.373 5.255-9.564.053-.094.13-.176.167-.274 1.776-4.837 1.574-5.38-2.837-7.43zm-2.02 7.412c-1.237 3.435-2.885 6.667-4.71 9.818-.08.136-.346.18-.535.226-.064.017-.21-.087-.235-.16-.576-1.823-1.138-3.647-1.685-5.41.258-.963.53-1.77.688-2.6.27-1.426-.66-2.563-2.127-2.56-.62 0-1.237.26-1.864.35-.127.02-.307-.193-.42-.33-.046-.055-.005-.277.05-.298.385-.162.81-.253 1.182-.448.608-.316.85-1.047.523-1.632-.305-.552-.698-1.054-1.04-1.59-.036-.058-.007-.23.047-.266.158-.103.407-.282.512-.226 2.756 1.47 5.74 2.305 8.707 3.186 1.386.41 1.398.576.905 1.944zm43.53-3.313c-.114-.294-.31-.562-.48-.832-1.205-1.892-2.464-3.752-3.603-5.683-.74-1.258-1.746-2.028-3.056-2.657-1.543-.742-2.87-.622-4.224.26-.984.644-1.934 1.342-2.926 1.975-1.992 1.27-4.035 2.412-6.47 2.62-.518.042-1.056.228-1.52.468-.807.42-1.273 1.11-1.292 2.03.207 1.28.262 2.514.974 3.694 2.93 4.85 6.183 9.488 9.283 14.225.346.528.753 1.03 1.2 1.474.474.472 1.212.484 1.76.02.392-.33.76-.746.994-1.198.608-1.173.614-2.472.643-3.76.027-1.18.02-2.357.535-3.465.198-.422.47-.72.95-.7 1.6.063 3.213.065 4.8.255 1.584.188 3.143.584 4.717.87 1.133.21 2.065-.68 2.022-1.873-.032-.89-.296-1.665-.885-2.348-1.4-1.626-2.637-3.36-3.424-5.38zm-2.55 5.188c-1.066.032-2.132.013-3.2.013v.036c-.426 0-.86.04-1.28-.007-.8-.09-1.812.373-2.32-.544-.406-.734.25-1.41.505-2.09.037-.1.058-.208.08-.31.278-1.297-.635-2.34-2.003-2.177-.724.083-1.417.402-2.135.562-.16.034-.442-.107-.54-.253-.063-.096.054-.427.182-.512.62-.4 1.272-.76 1.917-1.13.83-.477 1.66-.955 2.494-1.427.61-.344.927-1.48 1.74-1.058.574.296.85 1.167 1.252 1.786.465.715.836 1.508 1.402 2.128 1.186 1.3 1.65 2.97 2.446 4.467.213.4-.274.508-.54.518zM81.9 41.557c-1.01-2.677-2.65-4.88-5.334-6.147-.384-.18-.72-.466-1.08-.7-3.604-2.362-7.44-3.782-11.803-2.758-1.427 0-2.82-.015-4.21.006-.638.01-1.296-.005-1.906.147-2.69.675-5.413 1.277-7.703 3.005-.508.384-1.1.66-1.675.95-2.91 1.445-4.407 3.946-5.175 6.964-.988 3.89-1.02 7.843-.712 11.812.032.42.064.877.237 1.25 1.393 3.012 2.75 6.057 5.23 8.383 2.44 2.287 5.35 3.874 8.285 5.403 1.83.954 3.804 1.395 5.88 1.312 5.91-.23 11.376-1.786 16.21-5.316 2.156-1.573 3.62-3.615 4.542-6.086 1.093-2.93 1.458-6.016 1.984-9.07.07-.404.015-.867-.113-1.262-.86-2.64-1.68-5.297-2.656-7.895zm-3.884 8.576c-.275 1.795-.557 3.587-.853 5.378-.067.42-.184.836-.302 1.247-.7 2.445-1.835 4.544-4.3 5.68-.67.31-1.26.81-1.866 1.248-.768.548-1.63.48-2.477.37-.27-.034-.604-.242-.75-.47-.394-.628-.626-1.367-1.063-1.962-.72-.976-2.383-.96-3.087.02-.494.692-.834 1.49-1.272 2.225-.158.267-.37.523-.617.71-.13.1-.427.113-.57.03-.15-.085-.324-.356-.29-.506.246-1.146.53-2.286.833-3.42.15-.56.03-1.047-.247-1.53-.427-.74-1.278-1.013-1.9-.523-.67.53-1.262 1.15-1.912 1.706-.19.162-.42.624-.7.186-.126-.203-.064-.624.06-.87.765-1.535 1.58-3.04 2.353-4.57.24-.47.46-.973.572-1.485.245-1.105-1.11-2.44-2.197-2.114-.7.21-1.38.577-1.968 1.01-.507.374-.884.93-1.29 1.426-.4.494-.767 1.02-1.147 1.53-.066-.05-.2-.123-.192-.15.2-.585.328-1.214.634-1.74.912-1.57 1.886-3.105 2.86-4.64.463-.733.913-1.45.847-2.37-.052-.686-.31-1.272-.94-1.57-1.143-.547-2.284-.534-3.305.303-.408.338-.715.8-1.12 1.148-.273.236-.634.37-.955.55-.057-.308-.18-.62-.16-.923.106-1.74.6-3.398 1.524-4.855 1.47-2.32 3.502-3.724 6.3-3.408 1.217.48 2.26-.01 3.24-.316 1.362-.427 2.727-.476 4.116-.544 2.372-.115 4.424.637 6.205 2.163 1.46 1.253 2.965 2.468 3.762 4.315.207.483.544.928.888 1.33 1.346 1.587 1.59 3.423 1.288 5.39z"/></svg>