<svg xmlns="http://www.w3.org/2000/svg" width="128" height="128" viewBox="0 0 128 128"><path d="M98.46 73.664c-1.105-.067-1.95-.5-2.798-1.168-.448-.352-1.168-.453-1.777-.496-.934-.067-1.888-.067-2.816.046-1.27.158-2.5.032-3.76-.066-1.985-.156-3.993-.078-5.987-.02-1.466.044-2.927.276-4.392.32-2.733.077-5.473.042-8.206.127-1.358.043-2.71.275-4.066.363-.498.032-1.046-.007-1.5-.183-2.134-.823-2.74.414-3.02 1.96-.094.512-.085 1.045-.105 1.57-.075 2.105-.132 4.206-.22 6.308-.023.59-.397 1.013-.963 1.082-2.605.32-5.213.634-7.827.864-3.036.27-6.08.443-9.12.657-.316.025-.635.03-.94.093-1.206.252-2.14.88-2.628 2.042-.2.476-.38.984-.45 1.49-.288 2.08-.555 4.165-.78 6.253-.204 1.877-.35 2.078-2.348 2.117-2.422.047-4.84.013-7.262.013 0-.017 0-.032-.002-.048-2.525 0-5.05.006-7.575-.002-1.186-.002-2.282.32-3.312.883-.82.452-1.18 1.205-1.168 2.09.01.84.19 1.672.24 2.513.217 3.568.408 7.136.615 10.703.032.525.053 1.054.154 1.57.266 1.37 1.16 2.257 2.58 2.355 1.36.094 2.755.153 4.092-.053 1.887-.296 3.77-.288 5.66-.31 2.316-.03 4.634-.017 6.945-.134 3.567-.18 7.13-.5 10.697-.687 2.206-.117 4.42-.064 6.627-.15 2.623-.106 5.243-.353 7.87-.4 4.21-.077 8.42-.037 12.627-.06.947-.005 1.893-.043 2.837-.123 1.565-.14 3.125-.338 4.69-.486 1.045-.098 2.097-.143 3.147-.224 1.886-.14 3.766-.33 5.654-.42 1.363-.065 2.734-.012 4.102.02 1.17.026 2.04-.465 2.577-1.483.83-1.568 1.835-3.09 1.415-5.024-.066-.296-.035-.636.028-.943.69-3.325.435-6.705.552-10.065.055-1.576.053-3.16.203-4.73.463-4.81 1.093-9.604 1.127-14.45.006-.734.03-1.477-.044-2.204-.083-.806-.572-1.45-1.38-1.5zm-3.012 4.474c-.035.63-.06 1.266-.158 1.886-1.18 7.275-1.77 14.598-1.805 21.97-.007 1.366-.066 2.734-.13 4.1-.038.793-.344 1.073-1.205 1.112-3.675.17-7.322.62-10.976 1.01-2.08.22-4.205.04-6.31.04v.248c-1.26 0-2.524.032-3.783-.008-.91-.034-1.883.397-2.72-.314.397-.73.798-1.453 1.18-2.19.19-.368.464-.757.473-1.138.008-.366-.196-.818-.456-1.088-.36-.376-.78-.12-1.06.21-1.02 1.2-2.07 2.38-3.01 3.642-.622.837-1.347 1.27-2.378 1.277-.947.004-1.89.08-2.838.102-.703.015-.876-.344-.494-.984.968-1.623 1.965-3.234 2.89-4.88.246-.435.428-1.01.364-1.486-.062-.46-.397-.954-.752-1.278-.416-.38-1.047-.357-1.465 0-.953.82-1.89 1.67-2.725 2.61-1.26 1.41-2.517 2.843-3.602 4.385-1.042 1.478-2.392 1.93-4.075 1.807-.313-.023-.628-.03-.94-.053-.356-.02-.605-.353-.457-.606.427-.722.954-1.403 1.265-2.172.225-.555.278-1.233.21-1.832-.107-.955-1.51-1.535-2.22-.91-.78.688-1.486 1.478-2.132 2.293-.78.99-1.43 2.08-2.214 3.064-.223.284-.714.38-1.1.483-.097.025-.415-.272-.393-.363.097-.395.285-.77.43-1.152.228-.585.51-1.157.65-1.76.125-.523-.003-1.067-.465-1.416-.447-.343-1.023-.44-1.482-.153-.794.497-1.586 1.04-2.24 1.696-.66.666-1.306 1.433-1.683 2.275-.633 1.413-1.68 1.74-3.06 1.634-.707-.055-.865-.292-.55-.98.308-.666.684-1.31.89-2.004.096-.344-.048-.817-.218-1.163-.245-.5-.9-.65-1.344-.443-1.077.504-1.894 1.32-2.635 2.22-.467.564-.872 1.183-1.31 1.774-.624.847-1.556.987-2.504 1.035-.097.008-.33-.36-.29-.46.33-.764.72-1.502 1.085-2.252.32-.66.658-1.316.94-1.993.208-.506-.14-1.156-.77-1.568-.502-.33-1.04-.317-1.447.084-.667.66-1.262 1.395-1.892 2.09-.067.077-.227.186-.24.173-.12-.112-.284-.243-.307-.39-.068-.41-.095-.833-.103-1.256-.037-2.286-.394-2.434 2.553-2.906 1.344-.212 2.717-.362 4.01-.753 1.758-.533 3.528-.51 5.313-.47.51.01 1.065.1 1.515.32 2.21 1.094 4.054.09 5.868-.983.666-.395 1-1.086.973-1.877-.056-1.68-.124-3.358-.23-5.035-.06-.943-.23-1.88-.294-2.82-.096-1.406-.078-1.36 1.544-1.294 3.57.146 7.13.377 10.698-.263 1.742-.31 3.567-.156 5.355-.203.736-.02 1.478.037 2.204-.053.388-.05.887-.24 1.094-.535.84-1.19 1.76-2.373 1.847-3.915.136-2.41.238-4.82.346-7.234.037-.858.208-1.04 1.13-1.024 5.68.08 11.373 0 17.04.33 3.147.183 6.293.276 9.44.41 1.037.048 1.23.284 1.17 1.38zm13.83-61.734c-.78-.537-1.726-.88-2.692-.734-1.97.296-3.957.515-5.842 1.242-.768.292-1.49 1.28-2.236.867-.883-.493-.487-1.7-.604-2.6-.08-.62.032-1.264-.01-1.89-.078-1.11-.807-2.038-1.89-2.237-1.855-.34-3.708-.727-5.626-.445-2.7.398-5.43.626-8.112 1.108-3.34.6-6.7.523-10.056.688-2.933.147-5.86.42-8.79.672-.922.08-1.492.772-1.518 1.704-.026.942 0 1.888-.07 2.827-.064.826-.485 1.142-1.288.842-2.942-1.104-5.35-.14-7.513 1.823-1.09.992-2.13 2.033-3.17 3.078-.37.37-.713.784-.978 1.23-.855 1.44-.742 2.856.415 4.036 1.858 1.898 3.883 3.54 6.624 4.03.925.168 1.847.428 2.73.756 1.51.56 2.833 1.383 3.567 2.923.346.72.256 1.463-.336 2.007-1.434 1.327-3.14 2.08-5.066 2.333-.626.085-1.264.05-1.89.112-.667.067-1.037.672-.89 1.39.442 2.157 2.033 3.28 4.13 2.812 1.96-.438 3.836-1.11 5.456-2.354.415-.32.847-.62 1.27-.933.42-.307.79-.2 1.056.188.544.777 1.056 1.57 1.576 2.36 1.715 2.59 3.904 4.67 6.665 6.128.373.194.755.373 1.115.59.38.23.62.558.47 1.033-.063.2-.163.387-.255.577-.717 1.505-.515 2.844.668 4.04.59.594 1.14 1.234 1.71 1.848.327.352.358.725.092 1.124-.177.26-.33.54-.5.802-1.406 2.09-3.214 3.464-5.814 3.885-2.746.446-5.085 1.924-7.288 3.576-.553.418-.544 1.144-.043 1.653.542.546 1.18.874 1.95.903 1.365.06 2.735.14 4.1.127 3.366-.034 6.732-.12 10.1-.186v.044c4 0 8 .005 11.997-.003.732 0 1.476.014 2.2-.093.875-.126 1.7-1.1 1.805-1.973.088-.717-.493-1.472-1.46-1.827-.49-.178-1.006-.294-1.516-.407-1.13-.245-2.297-.366-3.38-.733-1.69-.563-3.32-1.29-4.977-1.948l-2.06-3.158c-.173-.262-.32-.55-.52-.79-.42-.51-.32-.934.172-1.31 1.74-1.31 2.69-2.905 2.037-5.18-.083-.286.233-.8.51-1.045.466-.412 1.042-.704 1.578-1.032 2.013-1.24 3.572-2.908 4.836-4.896 1.362-2.14 2.417-4.426 3.388-6.757.28-.678.552-1.357.85-2.027.08-.182.245-.327.373-.492.06.17.165.333.17.498.044 1.157.05 2.317.097 3.473.04.994.5 1.82 1.212 2.484 1.195 1.12 2.653 1.67 4.26 1.853.587.066 1.23-.38 1.47-.98.305-.758.192-1.59-.344-2.038-.398-.336-.843-.62-1.29-.896-1.865-1.153-2.31-2.9-2.028-4.918.1-.72.407-1.408.57-2.125.235-1.013.866-1.703 1.775-2.072 1.065-.433 2.17-.785 3.28-1.088 3.065-.836 5.15-2.81 6.4-5.643 1.546-3.513.28-6.873-2.623-8.87zM60.008 29.77c-1.408-.355-2.82-.683-4.235-1.01-.65-.157-1.123-.543-1.436-1.116-.888-1.617-.3-3.622 1.333-4.574.18-.107.41-.142.56-.275 1.4-1.245 2.908-.857 4.405-.274.235.09.5.44.512.68.056 1.043.023 2.087.023 2.797.064 1.173.125 2.003.156 2.837.048 1.155-.1 1.24-1.32.934zm34.074-9.856c-.55 3.294-.337 7.747-1.195 12.085-.8 4.054-2.304 7.87-4.555 11.337-1.62 2.496-3.808 4.478-6.403 5.973-.4.23-.89.082-1.02-.333-.123-.4-.09-.89-.313-1.21-.71-1.016-.452-1.948-.007-2.964.465-1.054.807-2.162 1.18-3.253.1-.293.234-.66.138-.913-.132-.363-.41-.723-.725-.94-.198-.133-.7-.112-.86.047-.732.74-1.414 1.53-2.063 2.34-.387.488-.644 1.085-1.045 1.56-.107.126-.61.09-.793-.05-.747-.587-.902-1.403-.597-2.27.768-2.176 1.564-4.344 2.36-6.512.147-.395.362-.76.513-1.152.2-.5.3-1.005-.096-1.472-.355-.414-1.2-.563-1.74-.218-.522.335-1.037.723-1.447 1.184-.557.623-1.003 1.344-1.52 2.005-.068.083-.272.062-.413.092-.02-.096-.078-.203-.053-.29.502-1.82 1.005-3.632 1.534-5.444.235-.806.565-1.583.78-2.393.14-.523.03-1.052-.423-1.424-.323-.266-1.052-.13-1.426.278-.422.465-.82.958-1.216 1.446-.263.326-.502.672-.765.997-.064.076-.18.108-.27.16-.082-.172-.245-.35-.23-.51.044-.413.14-.826.263-1.22.6-1.906 1.224-3.798 1.82-5.703.124-.395.232-.814.236-1.222.007-.555-.245-1.072-.796-1.227-.363-.103-.817-.022-1.184.104-.273.094-.454.427-.713.597-.288.19-.333.926-.815.555-.23-.177-.196-.78-.177-1.184.048-1.14.234-1.373 1.226-1.45 2.72-.213 5.445-.384 8.166-.6 1.148-.09 2.29-.244 3.435-.38.523-.063 1.038-.17 1.56-.214 1.983-.187 3.967-.358 5.953-.533.208-.018.42-.02.63-.032 3.466-.127 3.373.108 3.06 4.356zm11.606 4.512c-1 1.637-2.19 3.022-4.102 3.686-.97.335-1.847.943-2.78 1.4-.23.108-.512.157-.765.137-.064-.005-.107-.36-.16-.557.184-1.867.35-3.74.57-5.603.03-.282.22-.647.447-.784 1.43-.857 2.834-1.78 4.64-1.595 1.21.13 1.827.59 2.268 1.82.186.523.18 1.013-.115 1.497z"/></svg>