<svg xmlns="http://www.w3.org/2000/svg" width="128" height="128" viewBox="0 0 128 128"><path d="M126.23 110.923c-.733-1.07-1.9-1.363-3.09-1.54-4.938-.718-9.638-2.438-14.5-3.48-.756-.16-1.138-.874-.72-1.447 1.138-1.553 1.096-3.294.77-4.992-.398-2.048-.416-4.094-.433-6.148-.028-3.147-.046-6.29-.028-9.43.01-1.217-.22-2.363-.688-3.48-.647-1.558-1.7-2.42-3.477-2.378-2.492.064-4.986.017-7.48.017v.067c-2.166 0-4.338-.02-6.506.007-1.644.023-3.238-.233-4.81-.667-.81-.224-1.124-.558-1.16-1.333-.033-.863-.025-1.732-.023-2.6.02-5.31.05-10.623.053-15.935 0-.86.005-1.75-.187-2.58-.282-1.22-.958-2.18-2.32-2.43-.955-.172-1.903-.438-2.866-.51-3.02-.227-6.037-.593-9.077-.454-.54.028-1.086-.023-1.62-.073-.484-.05-.8-.343-.805-.834-.008-.755-.107-1.557.1-2.26.646-2.226.538-4.508.67-6.774.053-.865.114-1.73.226-2.585.397-3.032.403-3.032 3.284-3.718.318-.077.636-.15.956-.194 1.562-.22 3.02-.133 4.12 1.25.332.416.777.764 1.222 1.067 1.465.995 3.037 1.642 4.875 1.445 2.365-.256 4.757-.333 7.093-.734 2.587-.44 5.173-.62 7.77-.463 2.223.136 4.057-.627 5.614-2.078 1.024-.955 1.91-2.066 2.808-3.145.474-.57.053-1.625-.683-1.845-.308-.09-.636-.185-.95-.18-1.034.02-1.86-.404-2.683-.99-.877-.63-1.842-1.13-2.763-1.694-.647-.397-1.297-.79-1.914-1.227-.1-.068-.144-.43-.065-.51.53-.54 1.086-1.053 1.66-1.543.906-.774 1.84-1.517 2.75-2.283 1.277-1.077 2.074-2.5 2.708-4.002.356-.843.26-1.707-.433-2.408-.587-.597-1.27-.787-2.07-.44-.292.127-.612.202-.93.285-3.13.845-6.18.953-9.063-.895-.725-.466-1.593-.722-2.29-1.22-1.89-1.352-4.042-2.045-6.232-2.69-3.17-.93-6.33-1.46-9.528-.12-.49.21-1.042.317-1.574.355-3.418.246-6.098 2.06-8.702 4.04-.72.55-1.097 1.328-1.147 2.24-.037.65-.05 1.3-.06 1.95-.045 4.99-.086 9.974-.132 14.96-.01.974.05 1.964-.08 2.924-.316 2.478-.054 4.946-.006 7.42.032 1.73.1 3.464.075 5.195-.01.83-.643 1.417-1.45 1.472-.755.05-1.515.02-2.274.05-1.52.056-3.058-.037-4.544.217-3.018.514-6.042.41-9.074.36-.864-.017-1.734-.025-2.597.046-1.344.11-2.105.81-2 2.062.287 3.453-.16 6.93.417 10.38.23 1.376.11 2.816.056 4.216-.053 1.346-.536 1.905-1.923 2.23-3.165.744-6.326 1.47-9.618 1.334-1.512-.064-3.06-.102-4.544.16-2.035.363-4.066.5-6.127.518-1.93.017-2.656.72-2.862 2.754-.152 1.504-.288 3.035-.19 4.538.21 3.127.5 6.256.91 9.365.58 4.403.676 8.843 1.037 13.264.245 3.018.137 3.028-2.862 3.724-.422.1-.847.19-1.276.24-2.71.303-5.23 1.31-7.82 2.07-.2.06-.444.14-.564.287-.322.413-.736.838-.832 1.318-.12.57.37 1.02.876 1.232 1.192.512 2.42.93 3.748.97 3.802.116 7.578-.02 11.277-1.023.94-.256 1.89-.467 2.846-.658.72-.144 1.192.505.914 1.247-.185.506-.428.994-.636 1.493-.123.3-.253.597-.328.912-.247 1.047.264 2.168 1.242 2.78.91.564 2.148.394 2.965-.466.367-.387.69-.835.964-1.296 1.16-1.95 2.29-3.917 3.442-5.874.237-.405 1.09-.585 1.433-.25.192.19.34.566.295.818-.118.634-.434 1.233-.527 1.867-.112.742-.15 1.512-.07 2.257.103 1.006 1.404 1.57 2.257 1.03.365-.228.754-.464 1.028-.784.766-.907 1.515-1.835 2.2-2.805.75-1.06 1.412-2.18 2.126-3.264.324-.49.815-.75 1.386-.647.24.043.645.398.615.523-.206.835-.48 1.66-.79 2.463-.4 1.04-.512 2.11-.355 3.196.075.508.33 1.013.6 1.466.362.612 1.212.72 1.65.216.564-.653 1.1-1.337 1.588-2.046 1.227-1.787 2.437-3.584 3.622-5.397.463-.71 1.065-.993 1.9-1 1.326-.005 1.578.297 1.114 1.45-.364.903-.748 1.804-.978 2.74-.122.486-.035 1.077.128 1.564.465 1.367 1.79 1.76 2.81.793.784-.736 1.48-1.58 2.108-2.453.827-1.137 1.55-2.353 2.307-3.538.333-.52.845-.636 1.404-.608.206.007.43.047.617.14.497.25.098.534-.026.766-.356.668-.8 1.29-1.11 1.978-.397.877-.04 1.997.74 2.624.68.547 1.998.565 2.73-.034.5-.41.938-.902 1.368-1.387 1.01-1.132 2-2.28 3-3.423.66-.76 1.514-.74 2.385-.544.124.027.322.35.28.423-.42.755-.902 1.472-1.324 2.226-.63 1.124-1.28 2.248-1.817 3.425-.373.818.016 1.728.785 2.24.714.475 1.514.487 2.113-.048 1.21-1.076 2.38-2.21 3.443-3.43 1.136-1.303 2.16-2.706 3.18-4.107.528-.724 1.164-.906 1.978-.69.524.145 1.046.29 1.565.438.693.208.898.61.576 1.185-.684 1.227-1.44 2.417-2.06 3.675-.43.88-.016 1.895.864 2.55.798.59 1.966.584 2.706-.068.405-.356.762-.77 1.106-1.183 1.456-1.753 2.878-3.527 4.36-5.253.33-.38.816-.672 1.286-.86.213-.086.595.142.84.312.09.06.074.42-.02.564-.597.9-1.29 1.744-1.83 2.675-.477.833-.916 1.73-1.146 2.655-.263 1.05.262 1.883 1.2 2.445.692.413 1.652.314 2.388-.354.392-.36.713-.806 1.035-1.237 1.295-1.734 2.635-3.44 3.84-5.24.632-.946 1.41-1.26 2.46-1.175.647.05 1.3.053 1.946.113.576.055.946.62.768 1.178-.335 1.027-.728 2.037-1.035 3.072-.2.685.547 1.615 1.245 1.598 1.207-.027 2.37-.192 3.245-1.18.646-.73 1.34-1.415 1.99-2.146.486-.548 1.07-.704 1.75-.538 3.28.817 6.675.487 9.985 1.016 2.347.373 4.74.442 7.112.64.542.045 1.084.067 1.62.08.217.01.47.026.64-.072.257-.146.572-.352.66-.603.096-.255.035-.664-.122-.895zM69.118 19.37c3.56-2.322 7.488-3.42 11.7-3.067 1.562.132 3.076.936 4.593 1.483.5.18.966.484 1.42.78 1.867 1.234 3.874 1.882 6.14 1.563.313-.048.65.013.96.09.16.043.298.222.4.366.04.056-.015.237-.087.296-.493.412-1.02.79-1.507 1.216-1.216 1.063-2.432 2.13-3.62 3.228-.314.288-.56.663-.772 1.035-.622 1.09-.053 2.553 1.16 2.89.933.264 1.894.44 2.852.607 1.72.302 3.317.93 4.825 1.798.16.09.225.35.334.533-.16.095-.316.26-.485.278-3.22.334-6.45.65-9.67.97-.005-.055-.01-.11-.01-.165-1.194 0-2.386-.04-3.575.01-1.803.072-3.44-.46-4.9-1.435-2.446-1.636-5.105-2.224-8-1.918-.32.032-.645.078-.968.096-1.01.064-1.28-.187-1.323-1.31-.036-.863-.005-1.732-.053-2.596-.082-1.618-.156-3.238-.335-4.845-.1-.89.254-1.468.925-1.907zm34.567 83.898c-.587.853-1.294 1.29-2.466 1.06-2.12-.416-4.278-.615-6.42-.912-.215-.03-.434-.053-.638-.125-4.666-1.636-9.527-1.81-14.402-1.94-1.723-.045-3.443-.38-5.166-.423-3.356-.09-6.718-.082-10.076-.082-2.384 0-4.768.01-7.15.092-2.16.075-4.32.277-6.474.384-3.14.15-6.28.304-9.416.37-1.21.028-2.354.238-3.503.573-3.54 1.024-7.118 1.858-10.823 1.975-.213.006-.43.032-.648.037-1.035.017-2.048.82-3.1.075-.114-.95-.292-1.9-.33-2.853-.14-3.683-.635-7.322-1.117-10.97-.485-3.655-.533-7.344-.324-11.028.062-1.047.417-1.364 1.39-1.364 2.706-.004 5.414.017 8.123-.01 2.048-.022 4.098.01 6.133-.473 1.137-.27 2.367-.18 3.556-.183.452 0 .77.332.86.814.017.107.035.213.046.322.28 3.773.526 7.55.857 11.32.13 1.5.39 3 .72 4.476.21.945.675 1.826 1.436 2.5.51.448 1.082.762 1.77.512.65-.235 1.055-.74 1.196-1.422.09-.42.16-.853.18-1.284.03-.645.017-1.3 0-1.947-.106-4.547-.22-9.09-.33-13.64.032-.004.06-.004.092-.004 0-3.576.043-7.154-.015-10.728-.044-2.268-.244-4.533-.356-6.8-.043-.864-.064-1.73-.06-2.596.003-.58.407-.945 1.05-.97.652-.026 1.302-.018 1.953-.016 4.222.01 8.446.053 12.648-.505.213-.03.435-.045.648-.02 3.35.385 6.693-.1 10.04-.007.43.01.9-.006 1.27.17.345.16.778.527.837.86.288 1.594.57 3.204.645 4.82.274 5.727.79 11.444.753 17.187-.028 4.006.258 7.992 1.04 11.935.147.73.05 1.508.085 2.264.032.753.043 1.515.15 2.262.14.997 1.172 1.318 1.937.576.448-.438.91-.975 1.092-1.552.356-1.126.644-2.3.735-3.474.14-1.83.1-3.68.122-5.518.012-.864-.056-1.737 0-2.598.065-1.024.942-1.74 2-1.728.216.003.443-.016.646.038 4.655 1.265 9.414 1.23 14.18 1.2 3.14-.02 3.45.23 4.143 3.285.26 1.153.522 2.34.51 3.507-.023 2.196.314 4.308.956 6.39.69 2.226.313 4.277-.994 6.17zm-66.008-9.322c-.848-.075-1.712-.013-2.563.043-.75.05-1.49.18-2.238.254-.285.026-.625-.472-.48-.677.31-.437.622-.877.962-1.294 1-1.225 1.458-2.626 1.408-4.08.093-1.993-.46-3.752-1.047-5.485-.295-.865-1.043-1.35-2.01-1.392-1.99-.085-3.556.755-4.802 2.237-.733.875-.7 1.897.002 2.995.447.704 1.47.786 1.898.12.35-.538.584-1.158.96-1.676.156-.216.56-.373.834-.348.273.02.706.272.752.49.515 2.38.728 4.69-1.36 6.582-1.358 1.23-2.598 2.59-3.853 3.933-.58.622-.723 1.344-.326 1.746.35.352.853.71 1.323.757.847.085 1.728.02 2.578-.113 2.123-.333 4.245-.724 6.36-1.132.63-.12 1.244-.338 1.847-.563.566-.21.838-.723.748-1.272-.093-.587-.422-1.07-.992-1.124zm56.437-6.395c-.91-2.686-2.976-2.675-4.602-1.54-.175.123-.35.25-.532.364-.722.442-.965 1.11-.953 1.92.015.795.386 1.49.892 1.56.66.087.916-.39 1.187-.865.1-.18.292-.406.46-.42.28-.018.634.037.846.203.38.296.445.773.13 1.137-.563.646-1.22 1.215-1.793 1.855-.51.567-.43 1.536.205 2.018.32.245.78.486 1.148.45.63-.06 1.23-.357 1.85-.528.85-.233 1.467.2 1.565 1.11.06.534.092 1.076.066 1.612-.042.933-.692 1.606-1.614 1.732-1.493.204-2.778-.24-3.825-1.31-.522-.537-.935-1.18-1.482-1.69-.424-.39-1.003-.365-1.518-.09-.54.29-.698.805-.605 1.365.066.42.19.845.382 1.218 1.376 2.606 4.995 4.467 8.3 3.317 2.212-.77 3.613-1.882 3.555-4.842.075-1.29-.213-2.713-1.103-3.82-1.164-1.447-1.958-2.986-2.558-4.762zM67.01 77.72c-1.59-.59-2.145-1.83-2.16-3.285-.05-3.14-1.06-6.192-.815-9.355.02-.288-.128-.634-.297-.885-.59-.88-2.645-.683-2.995.337-.64 1.876-1.736 3.462-2.84 5.07-.42.614-.768 1.302-1.032 2-.202.54.017 1.11.51 1.415.334.205.78.264 1.183.306.186.02.39-.162.587-.25 1.76-.79 2.015-.66 2.097 1.13.045.974.027 1.95.064 2.92.034.917-.246 1.687-.894 2.35-.37.38-.745.788-.973 1.253-.242.497-.224 1.118.235 1.49.3.24.81.445 1.16.365 2.328-.517 4.52-1.43 6.635-2.52.24-.124.355-.503.453-.65.113-.725-.115-1.387-.914-1.685z"/></svg>