<svg xmlns="http://www.w3.org/2000/svg" width="128" height="128" viewBox="0 0 128 128"><path d="M118.608 23.89c-.335-1.54-1.178-2.736-2.41-3.687-1.772-1.37-3.844-1.84-6.015-1.963-4.245-.235-8.322.482-12.192 2.287-.68.316-1.357.636-2.035.955-.29.134-.578.367-.875.38-.212.012-.652-.324-.63-.41.47-1.756 1.013-3.493 1.493-5.25.253-.924.472-1.868.597-2.817.178-1.316-.776-2.837-2.296-2.99-1.49-.15-2.97-.42-4.46-.49-4.73-.227-9.428.355-14.136.586-.533.026-1.058.166-1.59.24-1.057.148-2.115.36-3.18.415-4.815.25-9.635.453-14.45.672-.643.03-1.3-.02-1.928.092-3.088.552-6.2.412-9.312.33-2.355.097-4.715.174-7.07.314-.63.036-1.257.235-1.87.416-.57.167-.89.637-.89 1.2.007.964.028 1.94.197 2.885.224 1.262.608 2.494.892 3.746.032.153-.123.365-.23.518-.037.053-.223.055-.306.013-1.15-.57-2.277-1.176-3.436-1.727-1.448-.693-2.9-1.443-4.555-1.47-2.575-.04-5.15-.005-7.724-.01-1.107-.003-2.144.318-3.055.885-4.746 2.953-7.747 7.075-8.034 12.786-.164 3.21-.046 6.436.004 9.653.012.847.195 1.7.378 2.532.85 3.835 2.965 6.854 6.083 9.18 1.378 1.025 2.807 1.98 4.223 2.947 3.275 2.227 6.802 4.107 9.624 6.962.293.3.7.493 1.073.703 2.23 1.265 3.677 3.268 4.93 5.404.534.91.87 1.957 1.166 2.98.288.99-.288 2.13-1.222 2.755-1.165.78-2.254.73-3.595-.138-.96-.622-1.118-1.5-.853-2.525.08-.31.188-.618.25-.93.22-1.117-.644-2.23-1.746-2.116-1.677.174-2.96 1.14-4.07 2.34-.13.138-.15.396-.184.604-.512 3.235 1.605 6.835 5.04 7.54 2.876.596 5.56.044 7.972-1.556 1.594-1.056 2.544-2.577 2.417-4.62-.037-.636.056-1.283.12-1.92.032-.353.675-.68 1.013-.55.1.034.224.026.305.084 3.445 2.36 6.89 4.715 10.306 7.117.295.21.494.722.525 1.11.05.632-.053 1.28-.128 1.918-.157 1.35.267 2.535.95 3.665.963 1.59 2.215 2.896 3.82 3.834.642.375 1.365.614 2.05.913.843.365 1.358 1.003 1.64 1.87.573 1.754.82 3.546.677 5.386-.092 1.215-.56 1.78-1.8 1.802-2.33.042-4.433.744-6.347 2-1.61 1.055-3.083 2.34-4.736 3.32-2.51 1.492-4.66 3.397-6.725 5.425-.773.76-.904 1.493-.235 2.255.56.634 1.204 1.227 1.908 1.69 1.536 1.017 3.264 1.603 5.07 1.946 5.153.977 10.292 2.04 15.586 1.984 1.26-.016 2.525.48 3.787.474 1.374-.01 2.74-.334 4.11-.52 1.27-.17 2.562-.25 3.81-.525 4.073-.896 8.14-1.835 12.194-2.82 1.137-.275 2.245-.693 3.136-1.55 1.242-1.185 1.35-1.893.387-3.335-.538-.804-1.073-1.58-1.954-2.09-2.885-1.663-5.64-3.514-8.073-5.814-.542-.51-1.23-.863-1.83-1.31-1.578-1.174-3.204-2.13-5.31-1.874-.664.082-1.266-.504-1.295-1.18-.085-1.926-.135-3.856-.123-5.784.008-1.048.645-1.8 1.504-2.333.452-.283.942-.518 1.442-.707 2.054-.774 3.7-2.128 5.252-3.63 1.573-1.526 2.42-3.235 1.54-5.473-.35-.893-.06-1.62.737-2.24 1.865-1.444 3.685-2.947 5.502-4.453.9-.745 1.75-1.547 2.625-2.325 1.383.505 1.305 2.097 2.202 2.964.075.072.123.173.188.26 1.14 1.562 2.613 2.514 4.61 2.49 1.073-.012 2.148.012 3.217-.065 1.483-.107 2.624-.85 3.467-2.064 1.3-1.877 1.66-3.977 1.15-6.144-.492-2.094-1.84-3.61-3.86-4.443-1.056-.436-2.09-.314-3.07.306-.834.528-1.092 1.803-.42 2.512.36.382.922.59 1.234.996.446.58.848 1.234 1.08 1.92.29.87-.202 1.88-.897 2.2-.768.355-1.824.223-2.404-.35-.3-.297-.555-.648-.78-1.007-1.014-1.602-1.183-3.392-1.254-5.243-.1-2.74.74-5.003 2.732-6.935 2.464-2.39 4.825-4.886 7.173-7.393 1.906-2.03 3.814-4.075 5.57-6.236 3.36-4.132 5.737-8.74 6.766-14.044.39-1.97.29-3.81-.13-5.71zm-90.347-.524c.997.384 1.98.808 2.93 1.297 1.99 1.027 3.84 2.333 6.1 2.816.438.094.993.606 1.117 1.036.416 1.43.66 2.91.953 4.277-.188.267-.278.44-.415.568-.043.044-.238 0-.3-.063-.51-.544-1.076-1.056-1.503-1.66-1.58-2.227-3.667-3.887-5.903-5.384-1.158-.776-2.34-1.515-3.5-2.283-.15-.1-.244-.29-.364-.436.3-.064.643-.256.88-.166zm11.176 19.61c-.115.846-.16 1.71-.36 2.537-1.076 4.477-2.14 8.954-2.452 13.57-.034.523-.224 1.045-.42 1.538-.103.266-.33.627-.712.32-1.002-.805-2.032-1.583-2.96-2.47-2.265-2.155-4.737-4.02-7.422-5.62-1.384-.82-2.72-1.72-4.07-2.597-1.098-.715-1.96-1.645-2.572-2.82-1.49-2.862-2.82-5.777-3.206-9.034-.346-2.92.056-5.77.998-8.52.53-1.55 1.64-2.737 3.185-3.45 1.446-.666 2.79-.667 4.3.05 4.876 2.312 8.834 5.616 11.813 10.126.704 1.067 1.52 2.094 2.446 2.97 1.01.96 1.632 1.968 1.43 3.402zm35.114 59.467c.87-.096 1.73-.045 2.433.54 2.208 1.845 4.402 3.71 6.592 5.58.31.262.2.892-.146 1.104-.183.112-.354.26-.55.324-3.35 1.09-6.69 2.205-10.253 2.32-1.92.064-3.858-.035-5.762.183-1.402.16-2.54.328-2.82-1.487-.1-.632-1.262-.57-1.108-1.298.093-.448.685-.78 1.005-1.198.512-.68.444-1.497-.248-1.96-.512-.342-1.117-.626-1.717-.73-.832-.142-1.7-.08-2.554-.14-.117-.012-.224-.217-.336-.332.083-.067.162-.187.25-.192 1.504-.096 2.955-.323 4.2-1.307.317-.253.785-.34 1.202-.426 1.567-.31 3.13-.632 4.707-.864.732-.106 1.488-.018 2.234-.018l.014.194c.95-.096 1.9-.196 2.853-.3zM62.767 82.576c-.02-.218.262-.582.485-.663.24-.088.78.004.828.146.31.864.517 1.763.748 2.61-.165.13-.237.227-.326.25-.096.027-.224.01-.31-.033-.943-.477-1.34-1.323-1.422-2.31zm3.52 7.99c.533-.208 1.22-.115 1.82-.03.236.035.51.385.602.648.134.386.127.825.15 1.01-.19 2.027-.338 3.82-.546 5.603-.028.25-.31.512-.533.69-.24.19-.91-.193-.983-.577-.12-.615-.2-1.24-.264-1.867-.14-1.365-.235-2.736-.395-4.1-.062-.497-.497-1.124.15-1.378zm13.04-9.67c-1.81 1.696-3.968 2.805-6.304 3.578-.403.132-.845.147-1.237.3-1.576.62-2.082-.12-2.233-1.62-.048-.486.18-.947.59-.998 2.448-.313 4.693-1.29 7.012-2.03.496-.16 1.038-.19 1.416-.255.255.06.37.064.46.113.177.096.44.19.485.336.05.163-.053.45-.188.58zm10.96-19.232c-.11 1.21-.59 2.283-1.244 3.27-.226.336-.587.604-.934.825-1.26.8-2.547 1.553-3.81 2.347-1.633 1.024-3.25 2.077-4.886 3.1-1.554.976-3.183 1.583-5.08 1.785-2.43.26-4.82.95-7.214 1.52-1.087.258-2.062.11-3.13-.21-2.982-.89-5.95-1.766-8.678-3.326-1.882-1.075-3.53-2.443-5.093-3.898-1.18-1.1-2.087-2.45-2.673-3.98-.256-.666-.91-1.352-.254-2.048.512-.547 1.213-.15 1.82-.016 1.732.382 3.41.08 5.074-.384.82-.228 1.276-.81 1.337-1.61.06-.8-.363-1.366-1.198-1.667-1.125-.407-2.286-.505-3.477-.538-1.17-.032-2.348-.167-3.503-.347-.562-.087-.912-.533-.942-1.14-.02-.428-.027-.86-.004-1.286.11-1.96.366-2.212 2.25-2.293.96-.04 1.93-.06 2.884-.17.66-.076 1.23-.44 1.506-1.068.1-.226.04-.706-.124-.824-.416-.303-.912-.57-1.412-.662-1.052-.194-2.118-.303-3.187-.38-1.213-.085-1.373-.61-1.32-1.712.034-.71.39-1.086.972-.904 1.564.49 3.172.5 4.777.433 1.237-.053 2.272-.557 2.9-1.71.285-.524.34-1.083-.076-1.487-.522-.508-1.114-1.008-1.77-1.3-1.195-.525-2.502-.537-3.797-.547-.747-.005-1.5-.03-2.244-.093-.185-.014-.43-.153-.52-.31-.447-.788-.366-1.62-.063-2.43.05-.134.355-.278.508-.246.627.13 1.24.324 1.854.49 1.482.378 2.95.516 4.43-.032.912-.342 1.41-.972 1.42-1.912.01-1.035-.613-1.84-1.7-2.01-1.48-.234-2.97-.38-4.46-.558-.53-.064-1.075-.078-1.594-.19-.683-.143-1.117-.557-1.244-1.287-.295-1.684-.617-3.365-.935-5.05-.42-2.225-1.195-4.323-2.288-6.313-.62-1.127-1.18-2.288-1.718-3.455-.48-1.045-.08-1.747.99-1.757 1.072-.01 2.15-.02 3.214.096 1.7.193 3.38.56 5.083.726 1.7.16 3.45.42 5.11.185 3.745-.53 7.496-.276 11.24-.49 2.24-.126 4.487-.267 6.73-.384 1.714-.092 3.43-.152 5.14-.24 2.78-.142 5.56-.346 8.34-.427 2.98-.086 3.19.212 2.594 3.086-.064.313-.248.627-.23.93.23 3.392-1.123 6.515-1.63 9.78-.13.844-.316 1.692-.334 2.54-.084 3.968-.127 7.936-.174 11.904-.027 2.377.43 4.685 1.04 6.968.466 1.758.96 3.507 1.422 5.265.47 1.787.467 3.605.3 5.43zm15.95-40.7c.085-.036.216-.05.293-.01.956.503 1.12 1.256.434 1.96-.067.07-.184.092-.277.137-.072-.04-.192-.066-.207-.126-.164-.58-.32-1.163-.454-1.752-.014-.052.124-.167.21-.205zm-6.06 2.63c.246-.954 1.228-1.09 1.974-1.452.417-.203.874.11.865.548-.003.107 0 .213 0 .176-.174 2.095-.7 2.73-2.615 3.224-.11.028-.41-.197-.404-.296.02-.736.002-1.498.183-2.202zm-7.255 3.783c.192-1.056 1.027-1.57 1.99-1.856.1-.027.4.203.404.325.043.634.02 1.27.02 1.907h-.063c.032.428.053.854.094 1.278.056.57-.107 1.06-.552 1.416-.667.533-1.355 1.04-2.035 1.547-.067.054-.202.09-.268.054-.083-.045-.186-.175-.175-.254.18-1.474.328-2.955.587-4.416zm20.128 3.545c-1.36 4.267-3.732 7.955-6.715 11.23-3.395 3.724-6.928 7.322-10.41 10.97-.144.15-.35.335-.527.335-.282 0-.72-.064-.81-.242-.34-.658-.59-1.367-.826-2.072-1.02-3.06-1.912-6.144-1.672-8.896 0-1.178.004-1.822 0-2.464-.01-1.623.325-2.953 2.225-3.407.677-.162 1.252-.78 1.854-1.218 1.47-1.073 2.905-2.197 4.4-3.24 1.5-1.044 3.09-1.887 4.907-2.316 1.03-.24 1.978-.81 2.984-1.178.696-.256 1.415-.525 2.145-.608 2.702-.315 3.29.462 2.445 3.107zM81.697 22.99c-.203-.07-.41-.154-.617-.165-1.928-.117-3.848-.15-5.715.473-.717.238-1.216.793-1.18 1.34.05.734.537 1.156 1.143 1.406.485.2 1.016.34 1.54.386.74.064 1.492.016 2.242.016v.073c.535 0 1.07 0 1.604-.004.213 0 .43-.008.64-.032.92-.117 1.714-.818 1.796-1.58.075-.696-.624-1.624-1.453-1.915zm.405 5.498c-.732-.026-1.467.05-2.2.088l.002.02c-.94.05-1.875.097-2.813.16-.262.016-.47.517-.313.74.114.172.216.414.38.478 1.86.73 3.676.747 5.36-.482.14-.107.292-.453.234-.538-.15-.21-.42-.46-.647-.465z"/></svg>