<svg xmlns="http://www.w3.org/2000/svg" width="128" height="128" viewBox="0 0 128 128"><path d="M50.688 77.485c.608-.006 1.246-.066 1.824.085 4.213 1.103 8.512 1.157 12.83 1.198 5.23.05 9.93-1.518 14.14-4.483 5.723-4.034 10.01-9.34 13.35-15.485 2.732-5.013 3.98-10.286 3.65-15.98-.13-2.178-.53-4.266-1.384-6.27-1.288-3.035-2.98-5.846-4.76-8.61-1.287-1.998-2.888-3.737-4.665-5.302-3.445-3.038-7.296-5.294-11.898-6.09-2.12-.366-4.216-.933-6.347-1.174-3.886-.433-7.79-.466-11.69-.125-.505.043-1 .22-1.494.35-4.533 1.197-8.517 3.49-12.304 6.184-2.374 1.69-4.2 3.908-6.076 6.085-.264.302-.453.68-.635 1.042-.43.84-.09 3.147.572 3.395.87.328 1.577-.282 2.248-.73.595-.397 1.132-.885 1.678-1.35 1.408-1.2 2.812-2.402 4.206-3.613 2.837-2.464 6.005-4.33 9.725-5.043 2.11-.4 4.26-.6 6.4-.82 1.22-.13 2.487.02 3.686-.196 2.298-.416 4.46.017 6.64.66 7.306 2.158 12.884 6.614 17.172 12.806 1.56 2.25 2.414 4.748 2.534 7.478.058 1.33.112 2.675.014 4-.17 2.25-.38 4.5-.733 6.724-.174 1.094-.593 2.187-1.09 3.184-2.606 5.222-6.25 9.643-10.724 13.355-2.477 2.06-5.31 3.565-8.5 4.128-2.11.376-4.284.39-5.69.51-2.39-.097-4.03-.144-5.67-.238-.61-.036-1.24-.097-1.814-.287-6.863-2.263-12.956-5.69-17.365-11.62-2.602-3.502-4.515-7.322-5.36-11.642-.38-1.935-.466-3.885-.012-5.795.358-1.496.756-2.965.938-4.51.117-.987.8-1.912.896-2.897.117-1.21-1.67-1.496-1.672-2.78 0-.082-.12-.16-.18-.242-.17-.235-.647-.235-.78.026-.28.54-.65 1.068-.77 1.647-.31 1.522-.906 2.927-1.503 4.35-.556 1.322-1.02 2.685-1.462 4.05-.448 1.37-.672 2.77-.625 4.235.128 4.04.74 7.96 2.613 11.597.334.65.73 1.33.512 2.035-.354 1.14.237 1.98.66 2.9.12.26.23.673-.21.68-1.26.026-2.048.785-2.88 1.58-1.335 1.274-2.688 2.54-4.107 3.72-3.23 2.694-6.555 5.28-9.75 8.02s-6.19 5.707-8.86 8.98c-.253.314-.526.673-.607 1.05-.19.904.73 2.39 1.607 2.742 1.57.626 3.195.71 4.845.463.71-.104 1.406-.332 2.116-.37 3.182-.173 6.322-.62 9.444-1.225.4-.08.82-.09 1.224-.055.294.026.57.166.523.58-.083.713-.157 1.43-.203 2.145-.174 2.865-.064 5.745-.557 8.597-.19 1.1-.138 2.253-.114 3.38.023 1.324.61 2.202 1.835 2.516.81.21 1.57.43 2.257.908.465.322.983.267 1.45-.014.53-.313 1.057-.635 1.542-1.007 1.133-.875 2.435-1.627 3.31-2.717.99-1.23 2.04-2.264 3.44-2.965.087-.04.16-.135.205-.225.704-1.444 2.044-2.287 3.197-3.283 4.894-4.227 9.84-8.397 14.746-12.61.53-.46.99-1.03 1.378-1.616.516-.78.34-1.57-.224-2.275-.96-1.195-1.77-1.37-3.22-.723-.19.083-.36.2-.534.31-.427.272-.806.14-1.082-.206-.706-.876-1.387-1.776-2.048-2.687-.048-.068.124-.428.195-.43zm-21.06 27.157c-.04.075-.173.1-.263.147-.037-.096-.113-.19-.107-.284.043-.693.096-1.387.162-2.078.005-.057.133-.1.203-.15.1.017.245-.004.293.053.19.23.537.543.482.72-.17.56-.49 1.072-.77 1.593zm19.91-20.34c-.165.084-.435.242-.512.18-.475-.376-.983-.75-1.34-1.23-1.29-1.727-2.503-3.508-3.78-5.244-.788-1.073-1.617-2.118-2.474-3.136-.256-.304-.715-.54-1.088-.2-.272.252-.517.643-.568 1-.053.38.107.8.226 1.187.98 3.17 2.6 6.016 4.46 8.736.287.422.643.8.946 1.216.405.555.357.984-.107 1.32-.435.32-.755.085-1.033-.222-.34-.38-.672-.778-.975-1.187-2.062-2.81-4.116-5.624-6.18-8.435-.12-.162-.274-.3-.418-.448-.427-.437-1.312-.328-1.58.25-.162.35-.322.805-.234 1.15.17.69.46 1.36.797 1.987 1.752 3.25 3.352 6.59 5.5 9.61.42.593.407 1.254-.457 1.77-.218.128-.626.162-.83.043-.43-.26-.818-.615-1.165-.99-1.682-1.796-3.34-3.62-5.02-5.418-.272-.292-.592-.552-.93-.764-.147-.092-.444-.107-.574-.017-.224.158-.53.43-.52.64.03.6.068 1.267.34 1.777.87 1.624 1.825 3.206 2.8 4.77.49.78 1.056 1.52 1.667 2.21.978 1.105.538 1.495-.28 2.287-.32.307-.7.49-1.06.128-.935-.94-1.85-1.906-2.752-2.88-.34-.372-.58-.844-.955-1.172-.167-.144-.56-.11-.817-.043-.142.036-.328.326-.307.476.078.598.105 1.25.38 1.757.585 1.077 1.317 2.075 1.99 3.106.22.34.478.66.65 1.024.057.125-.06.4-.18.517-.123.123-.403.245-.526.187-.836-.41-1.672-.756-2.63-.73-.504.012-.73-.348-.74-.79-.08-2.667-.164-5.337-.196-8.005-.015-1.264-.414-2.374-.87-3.538-.64-1.635-1.828-2.09-3.36-2.142-.404-.01-.81.088-1.215.15-3.344.503-6.686 1.015-10.03 1.505-.394.057-.805.01-1.21-.014-.086-.003-.206-.09-.24-.17-.03-.067.015-.21.08-.264 1.62-1.413 3.203-2.872 4.88-4.218 3.04-2.443 6.17-4.773 9.187-7.243 2.06-1.692 4.023-3.51 5.958-5.345.576-.544.894-1.355 1.36-2.02.073-.1.356-.167.468-.11.264.144.5.35.718.564 2.547 2.55 5.253 4.893 8.33 6.8.5.308 1.017.774 1.26 1.293 1.263 2.743 3.216 4.987 5.092 7.293.17.21.222.516.31.736-.12.156-.166.267-.25.31zm71.077-3.01c-3.14-2.488-6.13-5.135-8.986-7.96-4.16-4.113-8.463-8.09-12.706-12.12-.3-.285-.608-.556-.95-.78-.454-.3-.956-.366-1.444-.06-.474.3-.81.822-.64 1.295.55 1.525.807 3.214 1.896 4.475 2.147 2.483 4.294 4.975 6.6 7.31 3.317 3.36 6.586 6.78 10.276 9.75.21.167.28.505.41.764-.188.066-.375.17-.572.196-1.83.235-3.66.49-5.49.667-1.015.1-2.047.083-3.073.09-1.024.004-2.053-.023-3.08-.05-1.516-.034-2.207.563-2.574 2.1-.163.69-.19 1.424-.203 2.14-.026 1.646-.006 3.29-.006 4.93l-.043.003c0 1.847.013 3.698-.006 5.547-.004.403-.043.836-.205 1.193-.108.233-.445.407-.716.496-.128.04-.38-.14-.516-.28-.61-.62-.784-1.43-.856-2.25-.09-1.026-.114-2.053-.194-3.077-.06-.76-.41-1.36-1.064-1.78-.3-.193-.963-.065-1.053.274-.153.587-.213 1.195-.352 1.784-.032.13-.27.327-.358.3-.18-.046-.425-.2-.463-.356-.14-.587-.27-1.187-.288-1.788-.05-1.64-.03-3.283-.05-4.928-.016-1.052-.276-2.05-.95-2.867-.237-.282-.658-.49-1.023-.545-.18-.027-.504.325-.627.573-.227.452-.377.95-.513 1.44-.198.688-.337 1.394-.538 2.08-.055.174-.247.305-.375.457-.216-.21-.558-.39-.62-.64-.146-.59-.207-1.207-.212-1.818-.02-1.953.02-3.905-.007-5.857-.01-.602-.117-1.216-.27-1.803-.14-.544-.87-.947-1.467-.9-.577.048-.975.393-1.12.91-.174.58-.23 1.2-.31 1.803-.11.813-.194 1.626-.287 2.437-.096-.86-.224-1.714-.277-2.575-.047-.717-.006-1.438-.003-2.155.006-.718.064-1.44.006-2.15-.047-.547-.423-.983-.958-1.07-.36-.058-.827.046-1.13.25-1.006.68-1.308 1.775-1.588 2.89-.224.895-.277.892-.942.468-1.205-.763-2.376-1.58-3.61-2.29-1.423-.82-2.924-.21-3.457 1.34-.164.477-.222 1-.442 1.445-.462.945-.326 1.808.274 2.6 1.48 1.945 2.598 4.213 4.89 5.438.26.142.467.4.676.626 1.536 1.653 3.076 3.307 4.6 4.976 1.73 1.894 3.413 3.836 5.173 5.7 3.168 3.36 6.37 6.69 9.58 10.006.71.736 1.52 1.376 2.294 2.046.572.49 1.255.654 2 .683 1.382.053 2.233-.533 2.258-1.912.037-2.062.478-4.073.592-6.11.13-2.36.363-4.7.704-7.035.328-2.23.617-4.467.976-6.69.16-.99.437-1.22 1.437-1.18 3.122.116 6.105-.67 9.088-1.394 1.083-.26 2.14-.663 3.013-1.463 2.59-2.37 2.574-3.45-.13-5.595zM47.78 39.355c-1.106.13-2.21.425-3.26.8-.824.3-1.05 1.248-.725 2.065.395.987 1.04 1.7 1.94 2.29 2.145 1.403 4.23 2.893 6.33 4.37 1.186.835 1.256 1.056.778 2.588-.757 2.446-1.55 4.882-2.33 7.32-.22.684-.455 1.363-.687 2.042-.422 1.227-.013 2.222.913 3.022.9.78 2.09.857 3.145.247 2.754-1.59 5.483-3.218 7.578-5.69.264-.31.582-.576.896-.843.71-.608 1.1-.64 1.9-.006 2.576 2.034 5.124 4.097 7.69 6.14.4.32.802.63 1.223.917.786.533 1.554.35 2.313-.092.784-.46 1.237-1.163 1.077-2.04-.273-1.5-.606-2.993-1.056-4.445-.663-2.152-1.453-4.266-2.187-6.397-1.162-3.377-1.16-3.377 1.62-5.528.16-.126.32-.264.5-.36 2.13-1.137 3.556-3.053 5.176-4.742.317-.333.378-.912.578-1.437-.282-.46-.45-1.003-.816-1.285-.74-.57-1.586-.794-2.592-.64-2.226.343-4.465.646-6.71.774-2.532.144-2.57.13-3.412-2.096-1.2-3.18-3.034-6.037-4.623-9.022-.307-.58-.825-.956-1.483-.926-.78.035-1.347.447-1.565 1.242-.024.1-.044.203-.078.3-1.14 3.07-2.366 6.11-3.12 9.314-.267 1.13-.605 1.365-1.664 1.456-2.45.213-4.907.373-7.346.66zm15.737 10.093c-.1-.132-.235-.256-.215-.285.144-.23.32-.443.483-.658l.367.34-.635.603zm.802-4.976c.13.027.27.31.286.484.005.092-.243.25-.398.292-.19.05-.402.01-.895.01-.1-.014-.49-.03-.85-.153-.134-.045-.265-.33-.26-.5.003-.124.24-.345.36-.34.586.028 1.175.092 1.75.207zm-2.775-7.097c.077-.178.143-.367.254-.52.1-.136.255-.23.39-.344.07.18.166.35.204.54.056.283.075.575.12.953-.165.143-.348.32-.555.466-.05.034-.234-.01-.253-.065-.1-.24-.18-.496-.242-.753-.017-.08.043-.19.08-.276zm-3.79 16.96c.13.195.258.392.37.557l-.277.565c-.11-.205-.274-.4-.304-.617-.02-.155.133-.337.21-.507zm25.02 1.648c-1.127-.327-2.695.88-2.83 2.174-.08.763.75 1.766 1.627 1.968 1.286.294 2.52-.507 2.74-1.776.156-.908-.616-2.098-1.537-2.367zm-40.18-23.97c-.484.857-.54 1.703-.067 2.593.445.848 1.295 1.224 2.298.96.67-.173 1.34-1.084 1.35-1.924-.08-.737-.366-1.477-.98-2.062-.747-.707-2.09-.474-2.6.432zM35.583 52.1c.56.225 1.14.413 1.728.55.66.152 1.427-.37 1.64-1.046.43-1.38-.468-2.51-2.313-2.635-.17.035-.587.062-.94.222-.588.27-.91.783-.977 1.43-.063.575.314 1.254.862 1.477zm50.9-6.88c.69-.22 1.22-.957 1.134-1.924-.15-.27-.366-.85-.738-1.298-.788-.942-2.314-.678-2.685.487-.173.54-.156 1.216-.002 1.767.233.846 1.383 1.267 2.293.97zm-21.68 24.37c-.012.1-.012.2-.012.3-.014.87.56 1.562 1.405 1.693.853.13 1.78-.63 1.882-1.544.14-1.21-.43-2.167-1.387-2.35-.918-.174-1.754.66-1.885 1.898zM58.37 25.766c.456-1.23-.47-2.688-1.662-2.62-1.237.073-1.93 1.37-1.29 2.432.155.258.34.505.552.724.83.872 1.973.61 2.4-.537zM45.325 61.344c-1.035 0-1.637.817-1.445 1.84.16.853.8 1.374 1.713 1.395.952.016 1.756-.695 1.873-1.87-.17-.257-.348-.782-.715-1.03-.38-.257-.94-.336-1.425-.336zm29.94-33.973c-.055-.48-.234-.99-.508-1.39-.206-.297-.715-.665-.963-.59-.433.13-.915.507-1.116.908-.47.936.274 2.3 1.195 2.394.666.07 1.47-.628 1.393-1.317z"/></svg>