<svg xmlns="http://www.w3.org/2000/svg" width="128" height="128" viewBox="0 0 128 128"><path d="M123.712 106.293c-.026-1.237-.48-1.598-1.805-1.832-.843-.147-1.68-.34-2.528-.43-.73-.08-1.677.24-2.157-.115-.782-.572.028-1.553-.036-2.38-.133-1.708-.098-3.426.516-5.083.142-.386.117-.846.12-1.273.015-1.725-.954-2.894-2.644-3.05-1.06-.1-2.156-.133-3.208.01-1.353.18-2.298-.324-3.02-1.377-.96-1.404-1.892-2.826-2.828-4.25-.523-.802-1.19-1.565-1.49-2.448-.22-.644.068-1.455.105-2.193.013-.21-.076-.423-.09-.637-.1-2.14-.237-4.277-.285-6.418-.05-2.25-.01-4.504-.01-6.756h.087c0-3.433.092-6.867-.037-10.293-.066-1.775.264-3.392.964-4.974.43-.98 1.02-1.91 1.313-2.926.32-1.1 1.115-1.797 1.736-2.65.43-.598.986-.762 1.663-.748 1.394.022 2.787.02 4.183.05.9.02 1.736-.13 2.28-.914.564-.818 1.356-.923 2.254-.933.61-.005.94-.435 1.004-1.035.1-.968.2-1.984-.437-2.79-1.46-1.857-2.98-3.74-5.114-4.812-2.21-1.115-4.328-2.347-6.363-3.74-.527-.36-1.115-.647-1.707-.894-6.424-2.68-12.734-5.625-19.058-8.534-5.58-2.563-10.898-5.493-15.902-9.04-1.216-.86-2.603-1.478-3.893-2.235-1.85-1.078-3.67-.852-5.515.028-2.896 1.38-5.74 2.87-8.69 4.15-2.447 1.06-4.767 2.438-7.082 3.78s-4.608 2.743-6.814 4.263c-4.324 2.98-9.27 4.963-13.316 8.384-.24.203-.546.355-.843.462-1.753.62-3.144 1.82-4.656 2.83-.712.47-1.434.933-2.14 1.414-3.092 2.106-6.184 4.22-9.274 6.33-.088.06-.168.13-.248.204-.467.425-.54 1.297-.11 1.75.594.62 1.236 1.12 2.14 1.32 2.923.644 5.82 1.504 8.856 1.244 1.227-.106 1.74.54 2.112 1.52.267.7.55 1.4.882 2.07.868 1.744 1.835 3.39 3.802 4.17.303.12.637.64.633.97-.06 4.29-.09 8.582-.315 12.865-.18 3.424-.467 6.827.098 10.25.206 1.26.125 2.566.15 3.852.027 1.36-.438 2.56-1.48 3.426-1.622 1.342-2.766 2.992-3.41 4.97-.364 1.124-1.134 1.505-2.193 1.462-.744-.03-1.483-.158-2.225-.245-1.09-.124-1.888.357-2.38 1.28-.24.457-.404 1.012-.404 1.522.01 2.57.067 5.14.156 7.712.02.56-.198.763-.69.78-1.818.054-3.638.13-5.46.14-1.136.006-1.77.63-2.193 1.573-.126.288-.254.608-.265.917-.08 2.353-.203 4.72.67 6.98.228.594.52 1.17.84 1.722.4.696 1.04 1.07 1.844 1.113.532.03 1.07.017 1.605.006 2.787-.054 5.575-.115 8.365-.17 2.57-.053 5.157.05 7.713-.188 4.384-.406 8.76-.462 13.16-.35 3.1.078 6.243.095 9.31-.304 2.682-.35 5.33-.41 8.012-.42 1.6-.005 3.234.01 4.803-.262 2.464-.427 4.94-.402 7.364-.144 1.93.203 3.842.313 5.764.254 2.57-.077 5.133-.288 7.7-.363 3.428-.1 6.843.11 10.268.263 5.995.27 12.01.112 18.016.117.75.002 1.518.025 2.243-.123 2.667-.544 5.312-.504 7.968.04.845.174 1.588-.355 1.6-1.152.04-2.57.07-5.14.013-7.714zM20.14 42.553c-.105-.007-.2-.074-.297-.113.056-.14.092-.294.177-.413.056-.077.19-.096.282-.147.19-.103.37-.224.562-.315 3.706-1.726 7.1-3.974 10.56-6.13 3.55-2.207 7.182-4.284 10.834-6.32 1.675-.933 3.482-1.632 5.23-2.437 4.884-2.246 9.445-5.05 13.89-8.055.536-.36 1.04-.768 1.588-1.096 3.11-1.84 3.616-1.795 6.695.083 2.195 1.34 4.44 2.597 6.685 3.846 2.435 1.355 4.917 2.63 7.346 3.994 5.428 3.05 11.073 5.66 16.657 8.39.962.468 1.97.847 2.97 1.226 3.514 1.33 6.89 2.957 10.21 4.7.566.298 1.124.634 1.625 1.03.214.17.303.532.37.824.013.062-.317.235-.51.295-.197.064-.42.062-.635.07-.538.02-1.073.046-1.61.053-13.405.243-26.812.484-40.218.72-.75.013-1.505.014-2.245-.076-.262-.03-.65-.312-.7-.542-.14-.62-.177-1.27-.15-1.903.017-.277.23-.62.463-.786.337-.243.787-.332 1.16-.542.647-.37 1.33-.71 1.895-1.184 2.134-1.786 2.143-4.002.13-6.13-.837-.884-1.878-1.47-3.045-1.702-1.124-.223-1.267-.952-1.29-1.87-.033-1.135 0-1.217 1.083-1.578.305-.1.69-.08.913-.267.395-.328.776-.727 1.007-1.175.198-.39-.43-1.013-1.187-1.288-.1-.035-.2-.11-.3-.11-1.926-.027-2.493-1.227-2.567-2.904-.02-.416-.164-.832-.313-1.23-.207-.548-1.237-.69-1.65-.236-.214.235-.453.486-.553.774-.14.398-.235.843-.22 1.26.076 1.727-.302 3.103-2.06 3.953-.7.337-1.253 1.178-1.647 1.91-.93 1.732-.373 3.355 1.397 4.334.557.31 1.16.6 1.776.728 1.126.236 1.22 1.03 1.248 1.93.035 1.15-.444 1.602-1.563 1.263-1.012-.307-1.97-.796-2.957-1.19-.86-.344-1.772.172-1.953 1.09-.245 1.243.122 2.203 1.173 2.716.663.323 1.4.523 2.12.706.933.238 1.886.395 2.824.608 1.45.328 1.517.41 1.696 1.87.216 1.787.06 2.02-1.88 2.032-5.364.034-10.73.013-16.093.013-.002.036-.002.076-.002.114-5.042-.08-10.1.075-15.118-.315-4.604-.358-9.212-.09-13.803-.477zm69.41 49.522c-.575-.008-.913-.572-.774-1.136.732-2.923 1.13-3.29 4.05-3.325 2.77-.03 5.54.043 8.31.053.724.002 1.183.315 1.48.973 1.752 3.887 2.645 3.705-2.202 3.68-1.387-.005-2.77 0-4.156 0v-.24c-2.238 0-4.472.018-6.71-.01zM88.21 81.87c.003 1.13-.15 2.155-.954 2.96-1.583 1.583-2.306 3.57-2.83 5.678-.25.992-.62 1.184-1.597 1.178-1.538-.01-2.71-.637-3.368-2.035-.966-2.046-2.063-3.996-3.62-5.673-.33-.356-.547-.917-.61-1.41-.228-1.803-.468-3.616-.52-5.427-.082-2.897-.02-5.797-.02-8.694h-.13c0-3.435.013-6.87-.006-10.302-.006-.88.245-1.594.695-2.387 1.42-2.51 2.69-5.106 3.926-7.712.322-.683.683-1.027 1.403-1.03.643 0 1.286-.018 1.93.005.59.02.97.318 1.197.885.435 1.09.892 2.176 1.404 3.234.74 1.534 1.393 3.102 2.676 4.344.858.826 1.16 2.016 1.152 3.253-.04 5.035.266 10.066-.492 15.096-.395 2.632-.248 5.353-.238 8.035zm-26.32 9.6c-.53 0-1.06-.016-1.587-.073-.602-.064-1.1-.72-1.093-1.373.004-1.728 1.024-2.873 2.673-2.885 3.83-.03 7.665-.006 11.5-.02.748 0 1.11.353 1.384 1.036.395.98.944 1.903 1.392 2.866.04.096-.126.416-.237.44-.41.09-.837.133-1.26.138-2.126.012-4.257.004-6.386.004v-.13c-2.127 0-4.258.003-6.39-.004zm-3.157-10.096c.167 1.755-.42 3.12-1.703 4.285-.708.643-1.338 1.385-1.98 2.104-.57.637-1.084 1.323-1.66 1.952-.577.62-.385 1.947-1.332 2.034-1.242.115-2.55-.1-3.776-.388-.56-.128-1.05-.72-1.478-1.187-.72-.784-1.288-1.724-2.06-2.44-1.443-1.336-1.95-3.03-2.113-4.874-.1-1.17-.083-2.355-.094-3.535-.056-4.72-.07-9.44-.167-14.155-.04-2.033-.246-4.063-.383-6.09-.06-.878.015-1.65.763-2.327.616-.56 1.108-1.307 1.503-2.05.754-1.422 1.5-2.808 2.635-4.003.63-.66.945-1.653 1.29-2.54.228-.57.534-.85 1.132-.93 1.284-.175 2.368.157 3.1 1.246 1.372 2.035 3.274 3.685 4.246 6.02.28.67.768 1.354 1.35 1.77 1.394 1 1.692 2.4 1.746 3.936.035 1.07.006 2.144.006 3.217l.077.004c-.348 4.912-.704 9.824-1.038 14.736-.072 1.068-.16 2.152-.062 3.212zm6.685-1.952c-.507-.112-1.01-.242-1.51-.384-.066-.018-.15-.176-.128-.235.06-.18.145-.467.267-.49.62-.127 1.253-.155 1.872-.275.563-.11.955-.462 1.033-1.06.08-.624-.387-1.308-1.03-1.425-.52-.096-1.065-.05-1.592-.117-.167-.02-.315-.213-.473-.328.168-.117.32-.28.512-.34.7-.24 1.425-.408 2.11-.676.45-.175.377-1.05-.01-1.365-.745-.608-1.643-.347-2.464-.517-.494-.105-.698-.442-.736-.904-.048-.59.345-1.082.902-1.088.858-.006 1.713.043 2.57.027.423-.008.86-.055 1.26-.183.53-.168.926-.516.98-1.13.056-.588-.51-1.145-1.258-1.16-1.282-.027-2.565.02-3.846-.032-.494-.02-.69-.496-.65-.934.03-.28.208-.63.43-.78.24-.16.612-.118.925-.177.416-.08.925-.055 1.216-.29.384-.313.74-.806.832-1.277.06-.3-.328-.75-.612-1.04-.66-.677-1.584-.512-2.416-.65-.105-.018-.186-.284-.23-.447-.014-.045.143-.192.228-.197.422-.044.853-.03 1.273-.078.418-.05.853-.094 1.243-.24.535-.203.923-.65.843-1.224-.047-.368-.316-.86-.624-1.004-.66-.314-1.41-.443-2.125-.637-.404-.112-.916-.083-1.197-.33-.264-.23-.378-.738-.373-1.122 0-.213.383-.6.596-.6 2.136-.02 4.274 0 6.414.072.206.006.544.4.576.644.088.74.067 1.496.07 2.246.006 2.998.004 6 .004 9h-.114c0 2.357-.004 4.715.002 7.072.01 2.248-.002 4.495.562 6.703.203.803-.194 1.277-.97 1.283-1.928.014-3.857-.004-5.787-.028-.483-.006-.78-.3-.86-.776-.132-.786.13-1.537.61-1.65.517-.12 1.085-.077 1.572-.256.356-.132.8-.464.88-.787.108-.433-.32-.712-.778-.815zm5.154-26.464c-1.49-.067-2.99-.014-4.483-.014v-.02c-1.498 0-2.995-.03-4.493.01-1.158.03-2.044-.192-2.53-1.447-.422-1.085-1.124-2.056-1.665-3.096-.267-.512.13-1.067.733-1.102.107-.005.217-.038.32-.02 4.27.703 8.52-.31 12.78-.155.748.027 1.5-.01 2.242.056.7.06 1.263 1.06.994 1.72-.323.79-.692 1.56-1.036 2.34-.817 1.853-.828 1.822-2.865 1.73zm27.375 24.304c-.188-.224-.538-.348-.837-.43-.648-.182-1.312-.308-1.97-.455.63-.107 1.265-.194 1.886-.335.305-.07.66-.174.86-.387.273-.29.584-.7.573-1.056-.006-.34-.32-.8-.63-.986-1.206-.707-2.604-.85-3.924-1.224-.128-.034-.2-.34-.254-.532-.013-.048.128-.19.216-.205.408-.072.82-.115 1.232-.17.843-.114 1.696-.177 2.52-.36.728-.163 1.116-.816.974-1.42-.146-.618-.768-1.197-1.365-1.135-.847.088-1.678.288-2.52.416-.82.128-1.213-.195-1.266-1-.068-1.034.224-1.407 1.152-1.503.736-.075 1.49-.094 2.206-.27.853-.214 1.093-1.475.467-2.1-.476-.475-1.04-.724-1.71-.775-.623-.048-1.25-.114-1.86-.235-.12-.024-.26-.332-.25-.5s.17-.436.31-.466c.62-.132 1.26-.155 1.873-.3.405-.093.853-.247 1.137-.522.282-.27.49-.71.53-1.1.06-.56-.255-1.12-.784-1.268-.915-.26-1.88-.34-2.82-.52-.645-.125-1.022-.725-.874-1.474.053-.267.33-.697.512-.702 2.136-.06 4.274-.072 6.414-.038.235.004.523.33.69.57.577.828.648 1.776.643 2.762-.02 3.534-.006 7.068-.006 10.603H101c.068 3.533.14 7.064.2 10.6.016.826-.226 1.222-1.018 1.363-1.992.36-3.992.667-5.995.953-.482.068-.803-.275-.838-.76-.038-.53-.023-1.065.012-1.6.056-.896.32-1.15 1.137-1.207 1.06-.073 2.132-.096 3.18-.277.316-.056.734-.538.782-.87s-.256-.776-.512-1.08zm2.176-25.156c-.853.72-2.04.056-3.08.078-1.703.035-3.41-.06-5.116-.032-.71.008-1.216-.163-1.554-.826-.53-1.043-1.082-2.08-1.677-3.087-.55-.936-.552-1.62.806-1.6 1.064.013 2.13-.055 3.196-.07 1.064-.013 2.13-.002 3.198-.002v-.033c2.022 0 4.048-.01 6.07.003.914.006 1.07.285.692 1.21-.24.59-.456 1.203-.776 1.75-.53.907-.988 1.952-1.76 2.603zM70 33.216c.157.148.464.314.557.56.088.226 0 .564-.112.803-.064.132-.346.25-.512.23-.156-.02-.352-.2-.422-.357-.23-.54.018-1.26.493-1.24zm-5.016-4.876c-.043.238-.216.453-.352.7l-.538-.434c.188-.224.376-.448.56-.674.117.14.35.296.33.405zM26.417 48.835c-.12-.348.203-.988.54-1.02.424-.044.853-.07 1.28-.076 2.467-.037 4.936-.03 7.403-.104 2.033-.058 4.06-.23 6.093-.288.38-.012.87.173 1.127.443.392.41.38 1.014.09 1.5-.327.55-.682 1.113-1.147 1.537-.368.33-.904.59-1.393.65-.846.105-1.714.03-2.57.03-.01.068-.016.14-.022.212-1.37-.197-2.734-.457-4.11-.57-1.492-.126-2.995-.11-4.495-.16-1.502-.058-2.267-.653-2.795-2.157zm9.402 29.512c-.48-.904-1.22-1.478-2.26-1.602-.737-.088-1.478-.125-2.21-.24-.13-.02-.305-.3-.31-.467-.005-.158.154-.373.3-.47.163-.11.396-.145.598-.155.535-.028 1.076.01 1.607-.036 1.138-.1 2.195-.827 2.246-1.504.05-.683-1.012-1.544-2.093-1.664-.426-.047-.86-.013-1.286-.038-.504-.03-1.072.11-1.364-.514-.175-.38.23-.626 1.18-.7.534-.044 1.08-.012 1.6-.113.407-.082.805-.283 1.168-.496.727-.43.88-1.18.405-1.91-.17-.26-.408-.49-.638-.712-.313-.303-.224-.473.15-.585.746-.22 1.456-.518 1.52-1.42.045-.674-.816-1.258-1.932-1.32-.96-.052-1.93.003-2.89-.055-.492-.03-.716-.427-.71-.894s.246-.8.735-.88c.838-.144 1.697-.214 2.516-.43.916-.243 1.41-.96 1.238-1.607-.187-.707-.712-1.072-1.382-1.158-.738-.097-1.494-.07-2.243-.116-.58-.037-.942-.416-.977-1.035-.027-.428-.02-.856.01-1.283.03-.483.324-.798.793-.832 1.175-.08 2.356-.184 3.53-.15 2.856.084 2.894-.232 2.852 2.762-.048 3.43-.01 6.862-.01 10.293h-.016c0 2.464-.02 4.93.008 7.398.027 2.454-.17 4.93.654 7.318.192.56-.207 1.12-.747 1.2-.53.08-1.073.187-1.597.135-.38-.035-.95-.212-1.075-.49-.584-1.29-1.64-1.565-2.885-1.61-.305-.01-.61-.16-.9-.284-.364-.15-.626-.954-.406-1.43.114-.244.413-.53.656-.557.845-.1 1.72-.02 2.557-.16.49-.08 1.003-.38 1.38-.72.417-.374.502-.95.225-1.477zm-9.2 10.976c.22-.434.66-.875 1.11-1.045.686-.262 1.457-.376 2.2-.405 2.998-.122 6-.177 8.997-.28.928-.03 1.67.25 2.234 1.01.443.6 1.014 1.123 1.36 1.77.59 1.1.63 1.78-1.01 1.798-2.36.027-4.717.008-7.07.008v.117c-2.253 0-4.503.018-6.756-.007-.946-.01-1.327-.434-1.312-1.416.01-.522.02-1.103.25-1.55zm-7.986 13.152l.256-4.768c1.516-.868 3.132-.238 4.698-.3 1.392-.06 2.773 0 4.14-.442.69-.224 1.475-.203 2.22-.22 1.612-.026 3.222.036 4.83-.012 2.995-.09 6.012.113 8.968-.6.416-.1.858-.102 1.284-.112 5.788-.16 11.58-.78 17.362-.382 7.723.535 15.448.145 23.168.435 1.387.053 2.77.24 4.158.363.53.047 1.067.125 1.598.133 2.79.05 5.583.123 8.37.1 1.172-.01 2.34-.232 3.507-.362.64-.07 1.274-.208 1.914-.224 2.464-.053 4.928-.077 7.394-.1.433-.004.813.428.77.822-.187 1.808-.352 3.618-.572 5.422-.14 1.152-.752 1.637-1.963 1.65-1.07.01-2.146.002-3.217.002-.008.033-.015.068-.02.104-1.913-.21-3.824-.434-5.74-.622-.853-.083-1.713-.13-2.57-.128-6.334.026-12.673-.096-18.994.17-3.642.155-7.28.39-10.925.383-5.797-.013-11.59-.107-17.388-.05-4.825.048-9.652.033-14.47.48-2.133.198-4.288.132-6.436.185-3.748.094-7.488-.344-11.24-.15-.884.045-1.082-.22-1.106-1.138-.004-.213 0-.43.01-.643zm5.14 6.597c-.86.66-1.64 1.423-1.85 2.51-.257 1.302-1.2 1.3-2.268 1.345-.64.015-.862-.24-.995-1.184-.055-.403-.127-.814-.27-1.192-.043-.105-.4-.206-.527-.142-.272.14-.55.35-.718.6-.35.53-.62 1.114-.95 1.658-.477.785-1.25.723-1.983.565-.21-.044-.527-.5-.477-.67.273-.91.66-1.783.988-2.68.367-1.015 1.024-1.535 2.15-1.522 2.234.027 4.465-.02 6.7-.017.186 0 .376.145.56.22-.12.174-.203.39-.36.513zm97.16.95c-.178 1.097-.578 1.487-1.708 1.516-1.712.048-3.43.013-5.144.013-2.357.077-4.695.16-7.054.394-2.657.262-5.366.158-8.044.034-9.312-.432-18.626-.676-27.95-.407-.643.02-1.286.06-1.93.04-.31-.01-.753-.03-.9-.225-.956-1.26-1.84-1.2-2.812-.025-.166.202-.587.255-.894.258-1.07.015-2.146.01-3.215-.058-.496-.032-.69-.41-.562-.907.08-.31.227-.614.24-.926.02-.578-.267-1.022-.79-1.288-.46-.237-1.126-.1-1.443.336-.438.61-.89 1.22-1.243 1.877-.346.64-.82.958-1.528.95-1.182-.012-2.362 0-3.538-.054-.52-.02-.672-.353-.53-.87.115-.406.2-.847.172-1.26-.1-1.438-1.624-2.2-2.84-1.447-1.133.702-1.904 1.685-2.413 2.925-.257.628-1.564 1.17-2.2.906-.45-.19-.77-.68-1.153-1.026-.617-.557-1.115-.57-1.67-.008-.3.302-.483.75-.82.973-.765.5-1.67.494-2.45.13-.683-.32-.035-.938-.056-1.42-.03-.71-.475-1.32-1.058-1.44s-1.072.107-1.43.533c-.548.658-1.025 1.373-1.57 2.035-.197.24-.47.513-.746.564-.39.07-.85.03-1.212-.125-.16-.067-.24-.533-.21-.803.05-.42.272-.82.326-1.24.072-.597-.81-1.16-1.367-.947-1.076.417-1.68 1.31-2.24 2.22-.505.816-1.216 1.166-2.125 1.24-.562.048-1.093-.465-.968-.98.128-.517.33-1.02.452-1.538.122-.506.02-1.28.316-1.48.58-.385 1.373-.6 2.08-.61 1.276-.014 2.557.283 3.835.263 3.855-.056 7.686-.46 11.505-1 1.376-.195 2.78-.246 4.173-.253 4.933-.025 9.87.01 14.806 0 2.03-.006 4.05.002 6.08-.384 1.56-.296 3.207-.162 4.816-.16 7.403 0 14.808.01 22.212.055 1.28.006 2.56.22 3.84.277 1.496.064 3.008.183 4.495.06 2.993-.25 5.97-.596 8.957.063.512.11 1.1.13 1.598-.002 1.733-.465 3.398.244 5.1.228.525-.005 1.02.578.996 1.077-.03.64-.082 1.285-.19 1.917z"/></svg>