<svg xmlns="http://www.w3.org/2000/svg" width="128" height="128" viewBox="0 0 128 128"><path d="M16.782 47.84c.715-.075 1.42-.352 2.13-.354 1.4-.006 2.594.37 3.3 1.813.77 1.577 1.66 3.132 3.066 4.243.882.697.923 1.518.8 2.49-.398 3.172-.997 6.34-1.093 9.524-.13 4.326-.395 8.675.198 13 .043.3.078.626 0 .908-.42 1.528-.21 3.08-.274 4.623-.068 1.684-1.493 2.915-1.83 4.55-.02.1-.053.202-.068.303-.077.513-.47.61-.885.688-.81.145-1.655.195-2.413.475-.653.24-1.283.666-1.786 1.152-.884.86-.655 2.293.423 2.91.894.51 1.82.928 2.9.95 2.173.04 4.34.19 6.51.202 5.897.027 11.796.004 17.693.01.826 0 1.683-.096 2.475.085 1.84.424 3.703.422 5.557.376 5.152-.133 10.304.223 15.467-.396 3.47-.416 7.02-.188 10.53-.25v-.123c3.518 0 7.052.22 10.546-.053 4.654-.36 9.298-.304 13.95-.3.93 0 1.86.01 2.79-.036.512-.025 1.037-.09 1.522-.242 1.867-.585 2.787-2.3 2.195-4.157-.41-1.283-1.4-2.04-2.667-2.356-.69-.175-1.443-.1-2.155-.213-.253-.042-.643-.282-.678-.483-.378-2.118-1.62-3.8-2.84-5.45-.75-1.012-.996-2.017-.78-3.178.31-1.64.448-3.295.16-4.934-.776-4.423-.486-8.867-.397-13.31.018-.826.075-1.664.256-2.466.434-1.95.516-3.872.02-5.828-.118-.453-.012-1.024.157-1.478.29-.77.694-1.5 1.078-2.23.31-.596.834-.906 1.506-.916.725-.013 1.446.02 2.17.01.62-.007 1.338.147 1.832-.116 1.178-.622 2.384-.517 3.622-.517 1.456 0 2.366-.81 2.395-2.257.05-2.274.113-4.53.56-6.778.32-1.614-.394-2.77-1.915-3.49-2.428-1.15-4.803-2.41-7.232-3.555-1.4-.658-2.835-1.266-4.302-1.74-7.495-2.43-14.72-5.484-21.52-9.46-2.977-1.738-6.237-2.72-9.345-4.106-.834-.37-1.62-.26-2.325.304-.64.51-1.216 1.042-2.032 1.358-4.91 1.907-9.91 3.544-14.94 5.1-.59.182-1.196.342-1.804.42-3.713.464-7.25 1.584-10.74 2.868-2.325.853-4.646 1.72-6.997 2.507-4.405 1.474-8.84 2.86-12.998 4.986-.73.372-1.534.61-2.325.844-1.28.382-2.39.84-1.933 2.54.048.177-.053.406-.123.596-1.05 2.816-.552 5.724-.44 8.593.064 1.63 1.35 2.52 3.03 2.345zm9.088.393c.213-.387 1.086-.523 1.68-.568 1.952-.15 3.91-.205 5.867-.295 0 .038 0 .078.002.117 1.444 0 2.89-.013 4.336.008.62.008.818.5.448 1.074-.167.26-.367.497-.542.753-1.897 2.77-1.312 2.394-4.42 2.492-.915.027-1.825.267-2.734.43-.863.155-1.59.14-2.14-.75-.43-.69-1.095-1.234-1.606-1.882-.352-.448-1.205-.824-.896-1.385zm12.317 25.802c.597 2.146.196 4.323.273 6.48.02.582-.355.93-.987.943-1.237.027-2.48.008-3.718.008v.15c-.93 0-1.86.008-2.79 0-.988-.012-1.377-.532-1.253-1.648.05-.448.282-.81.727-.846.82-.067 1.662.032 2.473-.088.584-.085 1.18-.338 1.685-.656.29-.184.603-.68.554-.97-.053-.302-.505-.673-.843-.752-.59-.14-1.224-.088-1.843-.092s-1.24.073-1.85.01c-.212-.024-.534-.356-.55-.564-.02-.256.18-.595.387-.78.213-.182.546-.278.838-.314.718-.09 1.455-.058 2.157-.198.48-.1.95-.36 1.37-.632.505-.33.436-1.29-.067-1.597-.176-.11-.355-.29-.536-.29-1.845-.055-2.747-1.634-4.075-2.51-.13-.087-.237-.43-.17-.54.144-.225.394-.505.628-.53.822-.098 1.667-.007 2.47-.16.575-.11 1.15-.426 1.63-.778.744-.548.58-1.664-.273-2.002-.47-.185-.984-.27-1.487-.35-.405-.063-.843.018-1.23-.09-.677-.183-.03-.368.053-.496.794-1.22.853-1.342-.02-2.384-.41-.485-.41-.587.19-.672.61-.085 1.228-.145 1.822-.3.604-.16 1.045-.84 1.013-1.403-.03-.584-.51-1.222-1.106-1.35-1.11-.24-2.24-.395-3.343-.65-.458-.108-.62-.583-.51-.987.133-.47.307-1.065.666-1.316 1.62-1.136 4.272-1.086 5.845-.018.637.432 1.017.978 1.09 1.767.312 3.39.7 6.775.954 10.167.122 1.635.284 3.294-.21 4.928-.138.46-.1 1.035.03 1.504zm2.176 15.646c-.512.038-1.024.06-1.536.064-1.643.007-3.282.003-4.923.003v-.016c-2.052 0-4.105.02-6.155-.005-.983-.013-1.19-.448-.736-1.405.087-.187.174-.374.277-.55.86-1.483.667-2.155 3.254-2.098 2.245.047 4.5-.156 6.748-.254.896-.04 1.587.26 2.062 1.056.472.79.996 1.554 1.485 2.336.217.352-.05.84-.48.87zm23.53-22.41c-.025.43-.44.646-.885.65-1.2.005-1.71-.443-1.73-1.604-.03-1.635-.02-3.273-.002-4.91.004-.488-.117-1.084.44-1.36.764-.38 1.573-.296 2.344.012.13.053.26.33.245.493-.1 1.117-.24 2.228-.392 3.555 0 .92.043 2.046-.02 3.166zm-.074 9.112c-.055.396-.1.908-.2 1.404-.244 1.173-.866 1.394-2.04.768-.387-.205-.686-.452-.64-.928.106-1.118.23-2.237.34-3.356.05-.49-.065-1.104.59-1.244.62-.132 1.474.506 1.634 1.115.077.296.15.6.19.9.056.407.077.818.125 1.343zM83.2 54.45c-.858 2.365-.915 4.77-.84 7.285.196 6.507.073 13.02.096 19.53.005 1.202-.487 2.18-1.12 3.152-.783 1.198-1.77 2.315-1.865 3.85-.03.527-.42.67-.846.696-3.71.236-7.42.46-11.13.68-.31.02-.62.007-.93-.004-.47-.02-.814-.385-.647-.786.49-1.18.552-2.41.52-3.653-.02-.7.273-1.17.86-1.514 1.068-.63 2.124-1.27 3.18-1.918 1.003-.62 1.634-1.554 2.12-2.603 1.01-2.188.814-4.458-1.3-6.484-1.04-.994-2.203-1.876-3.382-2.703-.78-.544-1.056-1.188-1.013-2.09.1-2.17.16-4.337.244-6.508.02-.53.325-.67.82-.58.3.053.627.09.92.027 1.698-.363 2.29-1.952 1.234-3.278-.192-.244-.403-.475-.626-.69-.512-.49-1.213-.88-1.515-1.476-.457-.897.247-1.79.453-2.67.214-.908.527-1.774.385-2.73-.093-.63-.862-1.03-1.41-.66-.332.22-.733.49-.86.832-.325.86-.604 1.756-.738 2.66-.346 2.348-1.275 2.245-2.997 1.903-.574-.116-.86-.495-.856-1.105.002-.412-.006-.83.064-1.236.137-.81.36-1.61.46-2.42.026-.21-.23-.593-.43-.655-.23-.072-.69.04-.797.22-.46.794-.846 1.634-1.222 2.475-.207.47-.35.966-.51 1.458-.238.738-.65 1.227-1.47 1.408-1.83.404-3.53 1.164-5.106 2.166-1.81 1.15-3.088 2.752-3.55 4.853-.55 2.484-.475 4.886 1.215 7.044.99 1.266 2.244 2.08 3.694 2.644.764.298 1.592.43 2.36.72.228.084.483.432.502.677.075.924.08 1.857.068 2.785-.02 1.476-.094 1.512-1.643 1.113-.496-.128-.996-.267-1.503-.322-1.523-.16-2.795 1.296-2.325 2.767.242.76.7 1.493 1.21 2.118.445.547 1.042 1.03 1.668 1.356 1.544.808 2.702 1.746 2.598 3.748-.043.856.835 1.355 1.792 1.32.544-.017 1.018-.19 1.243-.74.19-.472.38-.95.538-1.433.38-1.166 1.32-1.55 2.32-.86.3.207.647.71.586.998-.224 1.058.05 2.027.284 3.023.096.404-.25.83-.674.838-1.86.037-3.72.053-5.58.067-1.034.007-2.068 0-3.1 0v-.005c-2.587 0-5.172-.007-7.756.004-.82 0-1.35-.285-1.582-1.142-.13-.48-.398-.98-.742-1.337-1.568-1.623-1.757-3.66-1.773-5.74-.013-1.55-.056-3.115.14-4.645.238-1.88.042-3.712-.35-5.51-.315-1.436-.406-2.86-.402-4.304.014-3.412.004-6.823.046-10.235.018-1.37-.087-2.7-.843-3.873-.422-.652-.206-1.132.158-1.684.57-.862 1.23-1.7 1.587-2.648.434-1.157 1.263-1.555 2.325-1.722.61-.096 1.233-.14 1.852-.162 4.026-.14 8.05-.4 12.075-.36 2.666.026 5.324.527 7.99.747 1.85.15 3.71.213 5.564.248 1.757.032 3.516-.01 5.272-.05.81-.02 1.442.224 1.68 1.04.542 1.842 1.622 3.326 2.94 4.676.372.39.575.865.378 1.41zM67.093 76.72c.043-.175.143-.334.222-.502.06.176.142.347.164.523.006.06-.135.134-.208.203-.064-.075-.195-.168-.18-.224zM57.93 63.89c-.024.378-.045 1.09-.116 1.8-.09.86-.65 1.204-1.493 1.015-.76-.17-1.353-.597-1.555-1.312-.45-1.59-.322-2.9 1.054-3.805.54-.356 1.087-1.19 1.772-.656.345.27.26 1.117.335 1.707.038.297.006.606.006 1.25zm42.258 23.677c-.39.1-.803.156-1.207.158-2.785.01-5.56.036-8.332.5-1.717.29-3.5.196-5.257.268-.51.02-1.143.145-1.38-.378-.11-.25.254-.738.445-1.1.732-1.392 2.07-1.596 3.43-1.652 1.34-.053 2.685-.01 4.024-.01v.037c1.857-.085 3.713-.16 5.57-.263.592-.032 1.266-.603 1.75-.067.533.59.856 1.368 1.233 2.084.04.078-.15.39-.275.422zm-7.046-40.15c.98.07 2.042-.364 2.925.406-.62 1.048-1.232 2.106-1.88 3.14-.09.142-.348.226-.54.25-1.74.212-3.475.446-5.22.572-.46.032-.975-.23-1.4-.474-.348-.193-.657-.52-.88-.86-.644-.972-1.813-1.604-1.93-2.923 1.12-.064 2.235-.145 3.356-.184.82-.03 1.648-.006 2.475-.006v.067c1.03 0 2.067-.056 3.093.016zm3.104 29.45c.055 1.386-.587 2.595-.642 3.93-.008.214-.38.585-.594.592-2.16.08-4.32.113-6.48.105-.163-.003-.42-.44-.458-.7-.043-.258.053-.67.24-.803.315-.22.76-.24 1.13-.397.553-.235 1.128-.457 1.612-.798.497-.35.272-1.434-.304-1.53-.702-.118-1.425-.11-2.136-.18-.5-.05-.858-.54-.85-1.116.003-.45.212-.807.628-.954.384-.133.808-.15 1.205-.24 1.163-.273 1.864-.86 1.67-1.446-.32-.976-1.156-1.044-2.014-1.034-.307.003-.615.02-.924-.006-.514-.04-.667-.418-.687-.853-.02-.448.168-.817.632-.91.4-.083.82-.06 1.23-.107.404-.048.82-.082 1.21-.197.982-.285 1.273-1.566.48-2.21-.378-.312-.863-.56-1.337-.678-.592-.145-1.238-.07-1.83-.213-.195-.048-.403-.472-.413-.73-.007-.254.184-.694.37-.74.586-.146 1.212-.114 1.812-.215.497-.085 1.034-.168 1.447-.424.296-.183.508-.632.59-1 .1-.432-.183-.854-.59-.972-.88-.25-1.797-.384-2.69-.604-.275-.067-.757-.3-.742-.38.092-.49.552-.452.928-.468.723-.03 1.448.013 2.165-.06.712-.073 1.42-.227 2.115-.393.29-.07.57-.235.827-.397.707-.448.65-1.688-.06-2.112-.746-.448-1.55-.557-2.382-.49-.924.07-1.84.214-2.763.287-.725.06-1.08-.363-1.04-1.168.06-1.31.398-1.73 1.613-1.78 1.75-.073 3.506-.06 5.26-.11 1.12-.032 1.7.757 1.83 1.71.082.607.012 1.234.012 1.853v8.976h-.11c0 2.99-.08 5.982.036 8.966zM21.06 40.237c.046-.3.146-.596.2-.897.312-1.746 1.44-2.593 3.09-3.02 2.99-.78 5.983-1.566 8.927-2.5 5.795-1.84 11.547-3.8 17.33-5.672 2.645-.858 5.3-1.69 7.986-2.41 2.61-.7 5.1-1.676 7.422-3.03 1.17-.683 2.206-.772 3.514-.37 1.283.398 2.55.792 3.75 1.4 2.583 1.31 5.294 2.29 8.033 3.224 2.24.763 4.4 1.757 6.598 2.64.765.306 1.524.774 2.31.84 3.366.282 6.378 1.643 9.4 2.955 1.244.536 2.46.988 3.826 1.126 1.554.156 2.96.832 4.314 1.627.603.356.893.82.94 1.48.038.515.085 1.03.1 1.547.02.953-.34 1.387-1.204 1.437-.62.035-1.24.015-1.858.034-1.333.04-2.67-.128-3.99.333-.554.194-1.236.134-1.84.047-3.904-.57-7.832-.4-11.755-.49-1.85-.042-3.7-.247-5.55-.36-.615-.036-1.237-.006-1.856-.006l-.004-.08c-1.13.1-2.257.27-3.39.297-4.853.11-9.707.25-14.56.24-3.197-.007-6.396-.378-9.59-.35-2.988.027-5.97.32-8.95.58-4.11.353-8.18 1.098-12.33.995-1.228-.03-2.46.25-3.694.32-1.853.11-3.71.228-5.563.214-1.188-.01-1.792-.922-1.605-2.146zm96.24 61.554c-.07-1.03.044-2.072-.05-3.1-.164-1.847-1.188-2.945-2.987-2.81-.825.064-1.656.034-2.48.103-1.54.128-3.078.288-4.614.46-1.026.113-2.055.214-3.063.41-3.152.613-6.322.96-9.536.896-1.24-.02-2.5-.097-3.715.087-2.883.435-5.775.286-8.66.31-2.59.022-5.174-.012-7.758.022-10.747.145-21.495.172-32.243.516-8.56.274-17.14.2-25.702-.322-1.233-.075-2.47-.14-3.698-.263-1.222-.122-2.086.417-2.12 1.57-.03 1.02.064 2.062.235 3.07.432 2.54.936 5.068 1.42 7.6.235 1.23 1.042 2.002 2.325 2.122.924.09 1.86.076 2.79.07 6.926-.036 13.853-.08 20.78-.118 2.172-.013 4.363.143 6.507-.092 1.757-.192 3.5-.274 5.252-.275 6.513-.007 13.028-.003 18.848-.003 10.608-.12 20.53.128 30.428-.68 1.338-.11 2.657-.23 3.986-.483 2.428-.464 4.88-.88 7.377-.843.93.01 1.862-.025 2.79-.093 2.095-.156 2.698-.695 3.23-2.667.492-1.803.795-3.61.66-5.488zm-102.104 2.63c-.02.02-.17-.07-.245-.122-.55-.378-.777-1.39-.422-1.847.325-.42 1.527-.32 1.88.163.058.08.085.178.18.378-.443.458-.91.95-1.392 1.43zm8.288-.253c-.73.988-1.423 2-2.176 2.97-.5.647-2.36 1.046-3.088.69-.14-.068-.297-.35-.265-.492.333-1.376 1.082-2.663.803-4.17-.024-.135.395-.483.63-.507.71-.064 1.43-.02 2.147-.02v-.018c.41 0 .82-.028 1.227.004.57.043 1.207-.192 1.67.354-.317.395-.647.782-.948 1.188zm10.07 1.934c-.163.574-.536.844-1.107.854-.41.006-.828.018-1.227-.053-.267-.05-.605-.167-.405-.6.083-.186.124-.39.21-.67.02-.222.146-.565.05-.825-.132-.35-.374-.77-.684-.91-.32-.143-.87-.123-1.152.07-.49.336-.867.85-1.264 1.312-.467.547-.885 1.133-1.355 1.677-.355.412-1.153.573-1.377.33-.37-.404-.043-.76.075-1.122.348-1.057.715-2.11 1.073-3.164 1.147-.49 2.188.252 3.293.282.817.02 1.666-.015 2.44.2 2.478.686 2.056.417 1.432 2.622zm4.072-.124c-.02.037-.128.03-.196.043-.053-.08-.15-.157-.15-.24-.02-.616.178-1.143.687-1.52.06-.046.175-.09.222-.065.076.046.184.18.162.224-.224.526-.472 1.042-.725 1.556zm73.42-.31c-.027.228-.62.498-.98.545-2.25.3-4.523.428-6.75.84-2.35.44-4.7.576-7.075.644-1.86.055-3.71.13-5.52-.486-.57-.194-1.227-.177-1.842-.2-7.43-.278-14.86-.55-22.29-.814-2.885-.1-5.773-.237-8.66-.24-2.683 0-5.363.16-8.043.242-.62.017-1.25.048-1.858-.037-.378-.054-.803-.236-1.073-.497-.412-.397-.475-1.305-1.26-1.106-.415.107-.703.683-1.066 1.028-.704.672-2.418.988-3.157.587-.07-.037-.156-.13-.163-.204-.08-.75.864-1.998 1.594-2.008 2.067-.032 4.13-.01 5.827-.01 3.047.08 5.743-.18 8.395.4 5.16-.007 10.326.367 15.476-.26.614-.074 1.237-.138 1.854-.116 4.558.146 9.084-.395 13.586-.892 7.22-.8 14.448-.416 21.67-.597.51-.01 1.234-.075 1.338.472.17.88.117 1.82.002 2.714zM63.512 34.774c1.244.79 2.625 1.28 4.095 1.26 3.51-.046 5.216-2.542 5.06-5.518 0 .177.04-.14-.005-.443-.562-3.746-3.546-5.412-7.085-4.11-2.447.897-3.866 3.62-3.616 6.26.107 1.112.63 1.963 1.55 2.55zm2.504-3.88c.132-.274.31-.536.512-.764.58-.652 1.125-.815 1.605-.517.55.34.816.977.662 1.594-.142.587-.715 1.085-1.538 1.154-.18-.08-.57-.2-.91-.41-.383-.237-.54-.62-.33-1.054z"/></svg>