<svg xmlns="http://www.w3.org/2000/svg" width="128" height="128" viewBox="0 0 128 128"><path d="M113.348 70.805c-1.146-3.066-2.9-5.628-6.022-6.994-3.196-1.395-6.41-2.72-9.94-3.025-.72-.064-1.494-.222-2.113-.57-1.845-1.038-3.588-2.207-4.493-4.278-.464-1.06-1.07-2.06-1.608-3.09-.59-1.12-1.146-2.255-1.757-3.364-1.48-2.684-2.972-5.358-4.48-8.026-1.402-2.48-2.812-4.96-4.256-7.42-.864-1.463-1.967-2.725-3.27-3.84-2.096-1.78-4.12-3.64-6.18-5.46-.315-.282-.62-.597-.985-.79-4.01-2.132-8.03-4.25-12.053-6.356-.947-.497-1.958-.72-3.053-.68-1.266.048-2.54.038-3.804-.042-.344-.027-.89-.333-.97-.616-.48-1.665-1.836-2.578-3.045-3.548-1.396-1.123-2.975-2.027-4.845-2.165-2.23-.17-4.17.6-5.824 2.036-1.037.898-1.933 1.952-2.91 2.915-1.033 1.02-1.44 2.318-1.673 3.684-.107.62-.157 1.27-.11 1.895.085 1.066-.346 1.84-1.156 2.457-.336.26-.67.515-1 .782-3.24 2.62-6.064 5.565-7.636 9.527-.507 1.274-.992 2.565-1.632 3.776-1.125 2.125-1.41 4.395-1.38 6.738.056 4.44.133 8.884.21 13.327.01.633.05 1.267.126 1.9.313 2.617.7 5.226.956 7.85.335 3.392 1.397 6.59 2.448 9.792.622 1.896 1.344 3.76 1.995 5.646.103.29.1.632.09.943-.075 2.083.282 4.3-1.717 5.816-.075.06-.1.184-.15.28-1.775 3.487-3.32 7.066-4.194 10.9-.315 1.368-.27 2.703.25 4.045.34.876.513 1.82.716 2.74.326 1.488.965 2.79 2.112 3.816.71.636 1.384 1.312 2.114 1.918 1.24 1.027 2.656 1.628 4.256 1.982 5.707 1.27 11.52 1.36 17.763 1.877 1.127-.133 2.69-.352 4.257-.49 2.523-.227 5.007-.835 7.565-.723.625.027 1.293.01 1.883-.176 3.62-1.126 7.36-1.822 10.894-3.27 2.037-.83 4.107-1.617 6.357-1.844 1.237-.125 2.492-.5 3.648-.986 3.797-1.585 7.54-3.29 10.907-5.717 1.023-.74 2.1-1.41 3.122-2.155 2.562-1.856 5.163-3.677 7.2-6.155 2.01-2.45 4.165-4.795 6.027-7.353 1.55-2.128 2.802-4.472 4.124-6.763 1.707-2.95 2.712-6.156 3.225-9.52.06-.403.142-.865.01-1.225zm-80.44-52.8c.727-1.563 1.94-2.752 3.27-3.736.688-.51 1.76-.497 2.66-.72 1.025.065 1.872.303 2.552 1.11.464.553 1.077.977 1.555 1.523.466.53.144 1.6-.526 1.843-.39.142-.8.23-1.207.324-1.723.406-3.454.737-4.896 1.938-.425.352-1.173.433-1.773.427-1.312-.015-2.184-1.54-1.64-2.712zm-2.79 23.43c-.506-.372-1.008-.244-1.448.1-.412.325-.75.748-1.163 1.068-.437.333-.395 1.187-1.202 1.105-.015-.517-.11-1.045-.032-1.55.62-3.956 1.397-7.875 2.528-11.72.14-.47.497-.933.874-1.26 1.042-.896 2.123-1.75 3.237-2.552.5-.36 1.1-.606 1.686-.818 2.682-.96 5.355-1.952 8.068-2.808 2.32-.732 4.72-1.103 7.26-1.008 2.63-.224 5.13.52 7.56 1.646 2.49 1.152 5.003 2.257 7.505 3.38.093.044.21.057.29.118 2.926 2.233 6.096 4.145 8.56 6.973 3.315 3.804 5.51 8.224 7.4 12.833 1.406 3.424 2.95 6.78 4.847 9.966.373.63.683 1.306.992 1.972.175.377-.163.89-.593.934-.317.032-.636.06-.95.05-4.065-.13-7.963.778-11.838 1.86-4.974 1.386-9.936 2.81-14.94 4.056-3.61.9-6.977 2.36-10.313 3.94-2.005.95-3.99 1.953-6.046 2.766-3.242 1.284-6.53 2.446-9.343 4.6-.476.362-1.045.18-1.312-.37-.228-.473-.375-.983-.604-1.454-.36-.74-.207-1.44.13-2.123.415-.85.887-1.667 1.247-2.54.075-.18-.2-.563-.398-.77-.09-.096-.41-.058-.58.023-.284.13-.52.352-.788.52-.404.255-.67.954-1.26.596-.317-.19-.48-.67-.658-1.046-.39-.814-.36-1.656.043-2.447.476-.94 1.06-1.826 1.536-2.77.716-1.407 1.393-2.836 2.038-4.276.23-.506-.25-1.027-.8-1.04-.924-.02-1.66.378-2.234 1.024-.697.786-1.303 1.653-1.973 2.467-.117.14-.422.278-.53.22-.254-.135-.575-.364-.63-.606-.267-1.156-.21-2.235.47-3.33 1.33-2.154 2.536-4.388 3.74-6.616.897-1.665 1.01-3.035.34-3.18-1.234-.267-1.93.67-2.688 1.376-.616.57-1.135 1.244-1.728 1.843-.128.127-.38.148-.584.188-.024.006-.115-.17-.128-.267-.173-1.377-.232-2.713.685-3.93.503-.668.872-1.448 1.237-2.207.46-.963.985-1.85 1.832-2.534.32-.26.543-.643.784-.988.348-.487.284-1.114-.127-1.42zm-2.095 40.022c-.352.612-.828 1.155-1.265 1.72-.055.068-.18.09-.273.132-.113-.144-.3-.28-.32-.435-.14-.978.233-1.82.786-2.59.27-.372.56-.095.785.076.373.278.5.73.29 1.095zm78.547-1.372c-1.422 2.096-2.784 4.238-4.252 6.3-2.525 3.547-5.448 6.704-9.035 9.24-1.63 1.152-3.022 2.645-4.66 3.784-2.425 1.687-4.97 3.2-7.468 4.78-.267.164-.57.274-.866.383-3.76 1.37-7.513 2.776-11.298 4.085-.978.338-2.075.334-3.1.57-1.952.45-3.893.95-5.832 1.452-2.358.608-4.735 1.053-7.192.86-.633-.052-1.27-.012-2.347-.012-2.087.053-4.617-.11-7.13.467-1.004.23-2.124.17-3.15-.006-2.1-.357-4.21-.515-6.317-.42-3.128.14-5.82-.756-8.13-2.86-.39-.354-.79-.707-1.218-1.016-2.065-1.49-2.507-3.533-2.033-5.893.083-.413.285-.82.292-1.232.05-2.796 1.438-4.912 3.064-7.1 2.994-4.03 6.822-7.197 10.302-10.728.363-.37.803-.697 1.257-.95 4.338-2.412 8.693-4.773 13.414-6.396 6.18-2.123 12.3-4.418 18.667-5.956.82-.198 1.64-.44 2.41-.775C75.9 66.94 80.08 66.546 84.32 66.45c.104 0 .212-.015.315 0 1.693.2 3.266-.76 5.016-.393 1.54.316 3.15.3 4.73.402.634.042 1.276.084 1.906.03 1.85-.16 3.54.364 5.2 1.083 1.16.5 2.365.925 3.474 1.523 1.855.998 3.01 2.4 3.215 4.707.207 2.366-.316 4.38-1.606 6.285zm-8.016-7.2c-.514.02-1.096-.043-1.544-.27-1.195-.602-2.458-.523-3.723-.563-3.074-.1-6.108.316-9.16.59-4.226.376-8.343 1.192-12.41 2.344-3.856 1.09-7.702 2.212-11.542 3.346-4.337 1.28-8.755 2.204-13.035 3.787-5.64 2.086-10.74 4.912-15.2 8.9-2.363 2.116-4.64 4.36-6.048 7.26-.78 1.6-1.373 3.3-1.877 5.01-.31 1.05.437 2.043 1.476 1.91 1.456-.19 2.628.285 3.816 1.084.766.517 1.73.782 2.64 1.03 3.57.982 7.175 1.724 10.91 1.633 1.902-.047 3.806-.008 5.71-.008 2.22 0 4.44-.008 6.66 0 3.104.014 6.076-.45 8.772-2.15.704-.44 1.525-.735 2.334-.95 3.777-.993 7.49-2.13 10.828-4.24.533-.335 1.13-.57 1.677-.893 1.816-1.07 3.633-2.144 5.43-3.248.628-.387 1.165-.91 1.796-1.29 3.17-1.92 6.023-4.273 8.965-6.5.954-.72 1.587-1.645 2.12-2.706.66-1.317 1.31-2.69 2.235-3.816 1.102-1.34 1.69-2.913 2.496-4.385.746-1.365.47-2.685-.304-3.9-.693-1.076-1.523-2.033-3.02-1.98zM49.61 90.272c.364-.878.914-1.7.746-2.703-.15-.89.23-1.413 1.032-1.698 2.187-.785 4.363-1.587 6.554-2.342 1.293-.445 2.608-.833 3.925-1.217.664-.192 1.47.302 1.457.843-.128 1.485-.405 2.944-1.288 4.18-.797 1.115-1.678 2.174-2.575 3.212-.64.742-.685.715-1.69-.1-.543-.443-.977-.476-1.394-.092-.7.64-1.412 1.274-1.632 2.274-.064.293-.242.584-.44.81-.103.118-.4.18-.54.12-.148-.066-.324-.34-.295-.477.163-.717.43-1.413.58-2.133.105-.51.105-1.043.11-1.568.003-.512-.7-.947-1.155-.687-.445.254-.934.535-1.227.934-.745 1.017-1.38 2.12-2.086 3.166-.17.25-.434.44-.67.637-.065.053-.21.075-.278.038-.08-.045-.192-.19-.17-.25.333-.99.645-1.99 1.04-2.95zm-7.084-.245c.226-.032.456-.04.687-.053l.09-.096c.027.01.048.023.075.032.002-.102-.005-.224.043-.25 1.267-.682 2.54-1.347 3.818-2.006.058-.03.23.02.242.068.047.17.135.407.06.528-.602.97-1.198 1.952-1.884 2.863-.26.34-.256 1.125-.915.91-.22-.072-.246-.732-.364-1.12-.156-.518-.507-.828-.997-.996 0 .016 0 .035-.003.05-.053.003-.107.01-.16.013-.157.163-.306.337-.493.453-.066.043-.277-.142-.42-.224.074-.063.144-.165.226-.178zm-9.776 11.085c-.13.055-.343-.09-.523-.15l.432-.753c.16.187.35.312.346.43-.006.167-.122.415-.256.47zm5.264-3.437c-.032.032-.164.032-.195-.006-.745-.866-1.363-1.794-1.378-2.986-.002-.186.133-.37.208-.557.253.11.67.16.734.338.34.955.59 1.937.836 2.784-.114.25-.142.353-.205.423zm2.39 5.954l.025-.178.137.11-.163.066zM97.04 78.995c-.336.533-.67 1.077-1.08 1.56-.28.332-.64.334-1.116.163-1.344-.48-2.13.095-1.742 1.396.335 1.12-.045 1.84-.672 2.564-.337.39-.82.656-1.232.982-2.563 2.027-5.27 3.87-7.66 6.128-.827.78-1.89 1.358-2.916 1.888-2.818 1.438-5.536 3.045-8.248 4.674-1.325.797-2.904 1.2-4.398 1.693-3.307 1.09-6.654 2.03-10.096 2.596-.832.135-1.672.29-2.466.564-3.92 1.355-7.922.868-11.917.58-.597-.046-.622-.38-.427-.857.117-.286.18-.604.215-.914.045-.43-.277-.644-.853-.58-.274.026-.55.082-.82.125 0-.288-.033-.58.01-.86.028-.203.16-.386.233-.584.15-.405-.15-.657-.425-.66-.704-.01-1.218-.11-1.344-.945-.077-.516-.34-.998-.456-1.51-.037-.156.114-.368.21-.537.013-.03.188-.006.263.034 1.86 1.013 3.76 1.886 5.835 2.413 3.34.848 6.712.772 10.077.436 1.926-.192 3.59-1.245 5.077-2.453 3.187-2.587 5.576-5.714 6.615-9.796.43-1.685.475-3.323.173-5.01-.067-.383-.02-.8.058-1.185.026-.126.323-.21.512-.277.047-.018.2.098.21.16.067.512.187 1.028.15 1.534-.093 1.22.327 2.287.884 3.315.66 1.23 2.165 1.46 3.217.512.233-.21.434-.467.6-.734.514-.808.44-1.807-.42-2.17-1.1-.46-1.27-1.285-1.457-2.227-.2-.994-.09-1.24.885-1.653.646-.272 1.12-.072 1.178.516.08.84.058 1.703.238 2.516.192.877.82 1.45 1.71 1.696.998.275 2.057-.547 1.857-1.53-.21-1.035-.477-2.046-.41-3.118.066-.956.354-1.363 1.223-1.557 1.323-.292 1.678.083 1.525 1.39-.16 1.355-.256 2.725-.245 4.085.006.917.7 1.47 1.666 1.598.71.093 1.343-.322 1.36-.96.04-1.69.03-3.382.066-5.074.02-.78.37-1.135 1.173-1.135.942 0 1.887.06 2.826.133.128.013.337.288.33.433-.012.31-.138.61-.234.91-.43 1.33-.607 2.69-.258 4.053.088.34.47.756.79.84.332.083.833-.107 1.117-.35.296-.25.517-.685.597-1.074.254-1.234.483-2.45.208-3.752-.288-1.38-.015-1.59 1.502-1.643 1.056-.036 2.112-.006 3.17-.006v-.21c.74 0 1.483-.027 2.22.007.59.028 1.415-.227 1.607.534.088.366-.418.898-.69 1.333z"/></svg>