<svg xmlns="http://www.w3.org/2000/svg" width="128" height="128" viewBox="0 0 128 128"><path d="M121.08 67.462c-.563-1.272-1.232-2.504-1.73-3.803-2.314-6.024-6.132-11.03-10.564-15.6-3.438-3.54-6.997-6.966-10.507-10.433-.46-.45-.927-.928-1.474-1.232-.645-.355-.875-.798-.94-1.513-.202-2.238-.45-4.473-.767-6.695-.2-1.38-.52-2.754-1.738-3.678-3.437-2.61-7.25-4.054-11.624-3.81-3.122.18-6.154.868-9.118 1.78-1.312.4-2.525 1.162-3.73 1.855-.972.56-1.527 1.495-1.755 2.592-.128.626-.213 1.267-.264 1.91-.08 1.068.103 2.376-.746 3.03-.774.598-1.963.705-2.997.902-1.113.212-2.092-.505-2.188-1.705-.257-3.275-1.948-5.58-4.64-7.275-.454-.285-.867-.64-1.32-.922-1.216-.757-2.59-1.117-3.98-1.113-1.925.005-3.86.143-5.77.384-2.012.254-4.02.597-5.99 1.086-2.24.557-3.783 2.012-4.343 4.288-.38 1.55-.848 3.168-.76 4.728.13 2.352-.83 4.096-2.183 5.813-.79 1.01-1.434 2.136-2.176 3.186-.743 1.05-1.45 2.14-2.306 3.09-2.73 3.037-5.253 6.234-7.53 9.616-2.88 4.267-5.718 8.565-8.05 13.163-.672 1.33-1.19 2.75-1.668 4.162-.512 1.518-.804 3.112-1.35 4.617-1.444 3.98-2.11 8.024-1.854 12.287.45 7.567 5.733 14.27 12.97 16.253 1.757.483 3.566.67 5.372.918 4.18.58 8.15-.16 11.893-1.862 7.83-3.56 13.626-9.184 16.79-17.314.077-.196.138-.42.276-.565.133-.14.417-.315.524-.26.838.42 1.792.566 2.38 1.503.67 1.08 1.455 2.15 2.403 2.982 1.704 1.496 3.693 2.027 5.977 1.3 1.827-.58 3.232-1.65 4.31-3.182.365-.523.625-1.12.91-1.698.315-.643.81-.964 1.53-.96 1.07.005 2.146.02 3.217-.01 1.43-.04 1.58.44 1.575 1.436-.006 2.498.518 4.902 1.373 7.226 1.27 3.456 2.902 6.705 5.814 9.114 4.03 3.332 8.57 4.665 13.78 3.61 3.1-.63 5.904-1.866 8.556-3.542 5.17-3.268 9.198-7.66 12.69-12.62 1.698-2.412 2.89-5.02 3.36-7.918.27-1.685.29-3.413.423-5.125.176-3.52-.655-6.816-2.063-9.997zM71.425 31.855c1.732-1.973 4.045-3.07 6.315-4.208.732-.368 1.648-.414 2.49-.49.848-.08 1.71-.02 2.562-.02v-.03c.642 0 1.285-.028 1.923.005 2.71.14 4.667 1.412 5.653 3.97.42 1.086.674 2.238.97 3.368.046.177-.037.42-.13.6-.234.45-.547.122-.79.016-.883-.38-1.74-.826-2.62-1.2-2.865-1.205-5.86-1.19-8.824-.65-2.002.364-3.86 1.233-5.312 2.787-.432.467-.915.893-1.41 1.296-.108.087-.37.02-.55-.023-.077-.018-.2-.174-.18-.23.26-.87.067-1.53-.495-2.313-.743-1.04-.43-1.94.4-2.884zm-30.955.153c.88-1.372 1.324-2.88 1.73-4.427.172-.65.803-.96 1.417-1.214 1.246-.512 2.512-.395 3.797-.205 1.374.204 2.768.574 4.124.484 1.554-.1 2.677.674 3.867 1.333 1.198.66 1.813 1.796 1.954 3.157.112 1.16 1.12 1.787 1.59 2.733.17.34-.143.98-.515 1.007-.315.02-.642.064-.95.01-.837-.148-1.666-.458-2.51-.5-4.5-.217-9-.363-13.493.146-.913.102-1.186-.112-1.18-1.313.018-.167-.093-.806.167-1.21zm8.56 51.448c-2.94 7.386-8.252 12.387-15.505 15.416-2.197.917-4.525 1.288-6.778 1.205-3.558.11-6.693-.757-9.547-2.688-1.582-1.073-2.688-2.423-3.003-4.35-.104-.636-.174-1.286-.38-1.89-1.12-3.234-1.1-6.512-.444-9.823.083-.413.104-.968.373-1.195 2.204-1.842 3.29-4.715 5.94-6.184 1.377-.765 2.628-1.89 3.69-3.07 1.713-1.92 3.847-3.013 6.205-3.836 4.258-1.485 8.546-1.587 12.966-.71 4.494.89 7.344 5.518 7.616 8.92.225 2.82-.078 5.555-1.132 8.2zm31.85-19.738c-2.19 3.695-4.035 7.567-4.827 11.842-.23 1.262-.288 2.556-.493 3.824-.158.992-.525 1.314-1.496 1.27-1.173-.056-2.347-.18-3.506-.35-2.018-.295-2.88.21-3.676 2.164-.36.888-.72 1.8-1.242 2.596-1.013 1.553-3.12 1.374-3.89-.29-.268-.582-.4-1.226-.668-1.808-.384-.834-1.233-1.295-2.107-1.125-.627.123-1.233.343-1.838.557-1.95.683-1.94.69-1.84-1.538.047-1.07.055-2.145.097-3.217.11-2.957-.627-5.725-1.917-8.354-.803-1.637-1.693-3.23-2.513-4.854-.31-.62-.78-.904-1.406-1.184-1.47-.66-2.912-1.315-4.535-1.522-1.69-.217-3.248-.942-4.946-1.23-3.266-.556-6.4-.024-9.536.66-2.53.55-4.873 1.62-7.145 2.848-.66.354-1.296.76-1.963 1.097-.138.067-.378-.053-.56-.117-.042-.016-.078-.195-.042-.242 1.926-2.6 3.192-5.575 4.75-8.384.5-.896 1.16-1.513 2.134-1.822 1.427-.46 2.84-.915 4.365-1.022 1.38-.096 2.75-.403 4.113-.67.54-.107.972-.446 1.118-1.024.124-.486-.41-1.11-1.157-1.344-.304-.096-.63-.125-.944-.186-.21-.04-.42-.072-.625-.128-.087-.02-.158-.098-.235-.15.115-.17.215-.468.357-.49.835-.14 1.68-.227 2.523-.306 1.065-.1 2.15-.082 3.19-.28 1.166-.218 1.484-1.684.598-2.525-.715-.683-1.557-1.116-2.576-1.14-.857-.022-1.712-.057-2.567-.1-.092-.005-.18-.112-.27-.172.097-.116.193-.337.292-.34 2.03-.032 4.056-.256 6.067.338.79.234 1.685.208 2.517.137.725-.062 1.107-1.156.757-1.798-.487-.894-1.235-1.476-2.162-1.825-.395-.15-.883-.103-1.244-.3-.67-.366-2.02.046-1.912-1.196.078-.886 1.203-.705 1.872-.9.703-.21 1.476-.24 2.222-.257 1.5-.034 3.003-.01 4.506-.01v.004c1.285 0 2.58-.078 3.858.02 1.17.092 2.325.353 3.472.588.3.062.544.334.325.704-.917 1.572-1.847 3.14-2.773 4.71-1.758 2.98-2.894 6.204-3.64 9.57-.42 1.9.225 2.937 2.145 3.68 2.144.833 2.91.49 3.59-1.642 1.005-3.16 1.986-6.33 3-9.486.263-.816.588-1.612.932-2.396.76-1.717.768-1.685 2.784-1.468.85.093 1.717.02 2.573.07 1.173.065 2.34.193 3.516.263.596.035.993.267 1.18.86.93 2.956 2.027 5.87 2.38 8.98.036.317.03.66.16.944.753 1.68 1.07 3.467 1.354 5.264.144.89.55 1.61 1.275 2.155.65.486 1.522.37 1.93-.325.427-.736.934-1.472 1.152-2.276.23-.84.67-1.29 1.44-1.53.616-.19 1.228-.396 1.838-.598.405-.133.82-.243 1.21-.423.764-.36 1.31-1.19 1.2-1.745-.132-.65-.818-1.13-1.718-1.213-1.308-.116-2.543.112-3.772.588-.91.352-1.277.064-1.594-.98-.196-.65-.043-1.122.504-1.31 1.52-.52 3.05-1.01 4.576-1.506.713-.23 1.438-.427 2.144-.68.296-.106.573-.287.832-.47.903-.652.78-2.145-.192-2.718-1.188-.7-2.453-.79-3.712-.38-1.62.534-3.197 1.2-4.803 1.777-.153.054-.422-.063-.562-.185-.065-.06-.007-.363.084-.478.128-.16.33-.293.525-.363 1.002-.346 2.007-.702 3.03-.99 1.03-.287 2.098-.436 3.108-.767.62-.2 1.09-.693 1.154-1.42.046-.545-.435-1.332-1.035-1.49-.815-.21-1.67-.443-2.49-.39-1.6.102-3.223.25-4.67 1.066-.683.386-1.16-.087-1.412-.792-.37-1.052-.18-1.586.654-2.24 3.193-2.49 6.83-2.91 10.67-2.254.722.123 1.408.498 2.086.817.873.41 1.717.875 2.575 1.323 1.055.55 1.99.446 2.995-.253 1.137-.79 1.198-.7 2.138.222 2.76 2.7 5.493 5.43 8.296 8.08 1.57 1.483 2.954 3.096 4.138 4.896.472.718 1.003 1.395 1.466 2.117.37.577 1.12.924 1.1 1.75-.62-.114-1.238-.204-1.846-.348-4.26-1.017-8.493-.94-12.718.2-1.55.416-3.125.734-4.69 1.09-2.447.558-4.668 1.626-6.593 3.204-1.06.87-2.124 1.876-2.815 3.04zm33.94 23.557c-3.434 4.87-7.428 9.134-12.73 12.008-2.28 1.237-4.675 2.086-7.333 2.037-3.712-.066-6.62-1.656-8.65-4.693-2.425-3.622-3.92-7.595-3.91-12.032v-2.3c-.267-4.366 1.053-8.712 3.22-12.868.675-1.294 1.62-2.213 2.867-2.923 3.746-2.133 7.76-3.573 11.917-4.648 1.15-.3 2.298-.508 3.485-.16.405.12.84.17 1.267.195 4.364.26 7.34 2.617 9.484 6.24.49.83.85 1.757 1.446 2.49 1.144 1.406 1.566 3.08 1.75 4.76.467 4.263-.27 8.29-2.812 11.897zM66.718 66.863c-1.44-.785-3.004-1.136-4.654-.946-2.492.288-4.3 2.272-4.33 4.745-.004.427.052.856.06.94 0 .773.026 1.204-.007 1.63-.117 1.587.592 2.67 1.992 3.35.483.235.953.504 1.45.693 2.33.892 4.79.188 6.336-1.786.736-.944 1.216-1.98 1.448-3.18.464-2.4-.263-4.337-2.293-5.447zm-1.904 5.518c-.32.54-.743 1.02-1.17 1.485-.115.126-.453.21-.572.132-.232-.153-.426-.41-.558-.66-.09-.176-.048-.42-.08-.826.047-.226.02-.72.246-1.023.21-.286.693-.506 1.056-.506.368 0 .814.227 1.077.498.152.162.143.672 0 .903zm-2.898-14.356c.736.112 1.493.105 2.236.18.142.013.268.17.396.26-.088.06-.168.14-.27.174-.697.23-1.433.39-2.093.7-.558.26-.632 1.338-.114 1.66.523.324 1.146.676 1.725.677.837 0 1.688-.264 2.512-.482.988-.26 1.77-1.016 1.71-1.685-.08-.88-.753-1.216-1.52-1.422-.2-.056-.387-.165-.58-.25.195-.086.383-.175.583-.25.59-.228 1.228-.376 1.765-.695.86-.51.875-1.983.03-2.452-.643-.354-1.366-.55-2.117-.843-1.555.443-3.104.834-4.615 1.338-.634.21-1.006.795-1.01 1.506-.004.7.63 1.47 1.365 1.583zm1.365-4.627c.933-.197 1.884-.305 2.817-.49.62-.125 1.248-.253 1.827-.492 1.152-.472 1.33-2.2.262-2.848-.704-.425-1.54-.63-2.094-.847-1.223.208-2.19.29-3.103.554-.82.235-1.505.762-2.004 1.502-.373.557-.373 1.235.06 1.77.577.716 1.29 1.046 2.237.85zM99.577 92.92c-1.11-.422-2.258-.577-3.442-.705-2.598-.286-4.384-1.707-4.986-4.293-.36-1.547-.456-3.157-.67-4.74l.14-.02c0-.96.042-1.926-.017-2.884-.04-.585-.512-.9-1.022-1.124-.57-.248-1.06-.02-1.487.307-.722.554-1.08 1.375-1.11 2.233-.084 2.03-.255 4.092-.02 6.098.512 4.396 3.834 8.97 10.212 8.46 1.128-.09 2.066-.472 2.832-1.312.706-.77.53-1.656-.424-2.016zM33.51 90.4c-.525.02-1.07.102-1.568.267-1.46.486-2.96.45-4.448.34-4.565-.33-7.243-4.285-5.877-8.635.157-.51.42-.986.58-1.493.2-.63-.26-1.446-.986-1.844-.507-.277-1.257-.1-1.742.395-.86.87-1.312 1.947-1.488 3.13-.126.845-.156 1.706-.184 2.054-.043 3.12.192 4.252 1.2 5.72 2.606 3.796 6.347 5.25 10.802 4.966 1.137-.07 2.256-.603 3.36-.987.848-.296 1.38-.96 1.77-1.763.535-1.1-.16-2.21-1.417-2.15z"/></svg>