<svg xmlns="http://www.w3.org/2000/svg" width="128" height="128" viewBox="0 0 128 128"><path d="M119.227 17.59c-2.008-.29-4.032-.68-6.046-.662-2.47.023-2.446-.608-2.433-2.645.002-.537.04-1.088-.06-1.605-.163-.832-.342-1.685-.673-2.464-.47-1.11-1.45-1.504-2.622-1.168-.717.203-1.423.46-2.122.723-1.78.663-3.153 1.764-3.957 3.546-.303.675-.77 1.283-1.204 1.888-.34.473-.957.518-1.41.11-.874-.78-1.67-1.674-2.602-2.384-1.517-1.15-3.64-.138-3.82 1.782-.036.416-.016.877.13 1.26.436 1.142-.364 2.057-.516 3.087-.028.18-.502.39-.786.417-.955.083-1.934.004-2.878.15-1.15.18-1.84 1.268-1.624 2.37.1.524.18 1.074.4 1.555.847 1.9 1.978 3.566 4.03 4.363 1.775.68 1.804.7.63 2.003-1.08 1.194-2.168 2.386-3.352 3.472-.942.864-1.987 1.643-3.067 2.332-3.27 2.087-7.096 1.26-9.06-1.7-.592-.892-1.195-1.788-1.664-2.746-.663-1.344-1.284-2.717-1.78-4.128-.97-2.734-2.725-4.795-5.078-6.428-2.958-2.052-6.16-2.93-9.733-2.136-1.46.328-2.94.604-4.374 1.032-2.173.648-4.125 1.675-5.557 3.544-1.3 1.702-2.69 3.34-4.03 5.013-.267.33-.603.672-.697 1.056-.427 1.763-1.392 3.36-1.508 5.227-.066 1.045-.44 1.347-1.427 1.326-1.725-.035-3.42.094-5.1.518-1.18.3-1.932 1.05-2.07 2.193-.147 1.148-.124 2.347.016 3.5.207 1.698.6 3.37.882 5.06.288 1.74-.166 2.35-1.913 2.613-.422.064-.86.09-1.285.07-2.466-.137-4.587.788-6.645 2.026-2.693 1.62-4.98 3.725-7.204 5.89-2.724 2.65-4.766 5.772-5.883 9.44C10.07 70.58 9.2 74.112 9.02 77.78c-.048.963-.14 1.928-.286 2.88-.757 4.896.06 9.58 1.81 14.162 1.12 2.93 2.78 5.513 4.65 8.025 3.07 4.107 6.872 7.38 11.167 10.03 6.455 3.984 13.683 5.42 21.56 5.887 2.267-.224 4.996-.213 7.58-.82 3.126-.735 6.06-2.195 8.69-4.054 3.43-2.43 6.384-5.395 8.734-8.907 3.965-5.928 6.877-12.336 8.606-19.27 1.317-5.274 1.53-10.655.75-15.978-.918-6.288-3.688-11.826-8.116-16.47-.817-.855-1.714-1.58-2.71-2.244-4.276-2.854-8.975-4.49-14.047-5.13-1.234-.157-1.42-.347-1.4-1.62.02-1.29.12-2.578.13-3.866.01-.853-.025-1.717-.154-2.56-.117-.783-.565-1.438-1.397-1.583-1.152-.202-2.322-.34-3.492-.43-1.493-.114-2.997-.11-4.49-.25-.334-.03-.857-.396-.912-.684-.264-1.38-.3-2.86.337-4.094 1.084-2.086 2.35-4.124 4.25-5.597.914-.708 1.96-1.358 3.05-1.71 1.62-.522 3.37-.626 4.993-1.136 3.25-1.023 8.59 1.364 9.533 4.74.46 1.643 1.198 3.21 1.875 4.783 1.014 2.363 1.953 4.776 3.596 6.805.4.493.82 1.013 1.34 1.36 3.45 2.292 7.203 2.442 11.092 1.464.408-.104.814-.274 1.174-.49 2.304-1.387 4.507-2.906 6.267-4.978.264-.315.625-.813.91-.79.735.06.47.786.526 1.247.107.85.08 1.717.192 2.566.284 2.206 2.052 3.07 3.98 1.946.646-.377 1.238-.842 1.868-1.247.42-.27.877-.085 1.013.392.472 1.646.9 3.307 1.422 4.933.224.706.565 1.397.98 2.01.657.982 2.29 1.103 3.138.287.31-.293.6-.627.807-.992.898-1.61 1.557-3.285 1.493-5.184-.017-.5.064-1.19.38-1.466.582-.5 1.182.005 1.69.4.255.197.495.417.755.603 1.227.868 2.615.912 4.014.698.892-.14 1.566-.683 1.925-1.54.837-1.998.88-3.948-.36-5.817-.532-.81-1.08-1.604-1.58-2.432-.33-.544-.697-1.11-.834-1.715-.167-.743.673-1.005 1.01-1.522.347-.538.786-1.045 1.01-1.63.434-1.147 1.16-2.03 2.1-2.783.853-.683 1.5-1.53 1.856-2.574.623-1.826-.368-3.564-2.27-3.84zm-70.34 23.8c1.982.035 3.278 1.668 3.048 3.68-.113.955-.233 1.91-.34 2.87-.114.995.387 1.69 1.24 2.036 1.58.642 3.182 1.263 4.82 1.742 1.973.576 3.84 1.355 5.566 2.456 2.528 1.614 5.19 3.035 7.33 5.193.6.604 1.237 1.2 1.707 1.902 2.1 3.14 3.396 6.67 4.794 10.147.038.1.09.203.093.306.117 3.42.504 6.827-.17 10.25-1.196 6.087-3.606 11.638-7.003 16.787-1.313 1.987-3.08 3.574-4.876 5.09-1.3 1.103-2.756 2.036-4.175 2.995-.975.66-2 1.243-3.01 1.85-.454.274-.564-.138-.63-.4-.207-.865.32-2.198-1.074-2.324-1.17-.105-1.412 1.17-1.86 1.97-.408.737-.597 1.597-.933 2.38-.114.27-.337.56-.59.695-.656.352-1.434.864-2.11.477-.79-.453-.345-1.33-.234-2.053.19-1.267.37-2.533.5-3.804.043-.43-.153-.907-.606-1.006-.39-.08-.977-.092-1.216.135-.75.736-1.477 1.54-2.024 2.434-.496.81-.74 1.772-1.11 2.664-.442 1.08-.895 1.392-1.57 1.104-.56-.24-.663-.584-.45-1.656.065-.315.24-.614.25-.925.01-.296-.036-.773-.21-.86-.894-.445-.972-1.297-1.26-2.087-.316-.864-1.382-1.18-2.123-.647-.426.303-.802.71-1.104 1.136-.242.34-.352.774-.49 1.18-.777 2.24-.662 2.114-2.945 1.242-.46-.175-.573-.58-.442-1.054.314-1.135.666-2.26.913-3.41.27-1.26.486-2.533.115-3.823-.248-.85-1.045-1.32-1.984-1.16-1.38.235-1.402.224-1.192-1.062.105-.633.317-1.247.402-1.88.146-1.057.32-2.126.31-3.188-.017-1.493-1.38-2.26-2.748-1.64-.917.42-1.493 1.187-2.06 1.978-.104.146-.35.192-.532.284-.05-.176-.177-.37-.14-.523.408-1.556.914-3.086 1.242-4.656.213-1.03.232-2.112.227-3.168-.004-.646-.885-1-1.467-.736-.936.422-1.49 1.2-2.016 2.016-1.837 2.888-3.667 5.78-5.096 8.903-.127.276-.362.505-.57.735-.05.064-.2.11-.27.077-.086-.037-.17-.155-.19-.248-.288-1.742.092-3.366.757-4.977 1.186-2.87 2.322-5.755 3.422-8.656.337-.89.527-1.848.714-2.787.122-.62-.753-1.307-1.28-1.01-.74.416-1.563.808-2.105 1.424-1.264 1.443-2.39 3.005-3.545 4.54-.576.765-1.082 1.583-1.653 2.356-.075.1-.33.083-.506.083-.032 0-.115-.197-.09-.27.466-1.31.842-2.664 1.44-3.91 1.487-3.09 3.097-6.12 5.37-8.74.56-.644 1.04-1.364 1.517-2.076.43-.64-.192-1.91-1.008-1.937-.608-.02-1.312.068-1.82.37-.72.43-1.3 1.092-1.934 1.665-.575.518-1.145 1.05-1.716 1.574-.02.088-.055.166-.072.256-.072.013-.146.02-.215.043-.053.065-.11.13-.163.196.032-.06.05-.15.102-.175.02-.01.043-.013.062-.02l.12-.143c.057-.05.112-.103.168-.155.34-1.52 1.186-2.734 2.29-3.827 2.06-2.037 4.117-4.075 6.065-6.21.927-1.014 1.62-2.25 2.354-3.42.11-.173-.083-.592-.235-.832-.08-.14-.4-.256-.555-.205-.804.273-1.63.53-2.373.928-2.082 1.115-4.055 2.4-5.867 3.93-.78.653-1.007.66-.987.348.026-.392.207-.78.345-1.157.384-1.053 1.216-1.75 2.03-2.445 1.384-1.19 2.72-2.443 4.198-3.502 1.208-.87 2.546-1.58 3.9-2.203 1.554-.712 3.196-1.233 4.785-1.864.803-.32 1.6-.524 2.478-.578 2.256-.146 4.064-1.133 5.34-3.072.878-1.344 1.872-2.605 2.786-3.925.325-.47.38-1.01.004-1.492-.4-.512-.846-.984-1.606-.774-1.132.315-2.276.587-3.39.953-.974.32-1.567-.074-1.44-1.144.147-1.195.334-1.568 1.564-1.57 3.008-.006 6.012-.046 9.016.01zm64.822-4.238c-.09.14-.36.267-.53.242-.842-.11-1.676-.33-2.524-.405-.89-.077-1.586.122-1.99 1.17-.373.97-1.102 1.808-1.72 2.668-.396.548-.238 1.492-1.174 1.657-.472-.57-.997-1.107-1.405-1.722-.413-.62-.686-1.33-1.067-1.973-.51-.87-1.236-1.158-2.16-.885-.616.184-1.212.43-1.823.63-.928.3-1.205.19-1.422-.652-.216-.82-.356-1.667-.555-2.5-.17-.718-.245-1.5-.584-2.128-.825-1.523-.284-2.02 1.275-2.473.264-.078.64.01.885.155.36.215.62.59.963.83 1.42 1.004 2.682.66 3.633-1.154.214-.41.17-1.088-.002-1.547-.78-2.05-2.752-3.283-5.573-3.237-.402.06-1.353.2-2.304.33-.48.064-.927.766-1.422.21-.337-.385-.523-.918-.717-1.407-.063-.16-.005-.512.11-.576 2.56-1.454 2.603-3.647 1.85-6.103-.046-.15.135-.37.21-.56.096.04.2.07.288.13.52.37 1.037.747 1.555 1.12.634.456 1.34.59 2.114.622 1.42.063 2.517-.455 3.27-1.636.58-.9 1.062-1.858 1.632-2.767.276-.446.65-.837.994-1.24.058-.065.226-.113.292-.076.16.09.405.228.416.357.065 1.17.104 2.344.12 3.52.012.755.07 1.474.443 2.172.55 1.028 1.263 1.626 2.525 1.593 1.275-.038 2.558.11 3.836.212.39.03.672.608.52.978-.203.494-.448.975-.64 1.472-.27.7-.676 1.4-.715 2.117-.053 1.03.5 2.186.195 3.087-.354 1.04-.73 2.006-.535 3.084.13.726.37 1.446.66 2.124.293.687.728 1.312 1.062 1.98.085.157.105.436.017.575z"/></svg>