<svg xmlns="http://www.w3.org/2000/svg" width="128" height="128" viewBox="0 0 128 128"><path d="M121.638 55.36c-.506-1.75-1.696-2.568-3.236-3.115-.49-.174-1-.328-1.51-.373-.72-.064-1.097-.43-1.412-1.045-.614-1.195-1.7-1.71-2.96-2.125-2.305-.768-4.6-.736-6.778.11-1.456.566-2.846.478-4.3.478-.815 0-1.29-.277-1.77-.977-1.198-1.756-3.068-2.522-5.09-2.755-3.957-.456-7.75.005-11.053 2.514-.167.128-.354.23-.517.363-.576.46-1.158.437-1.704-.03-1.036-.877-2.24-1.08-3.54-.964-.417.036-.842.12-1.254.077-.39-.046-.877-.12-1.133-.373-1.252-1.26-2.502-2.537-3.374-4.12-.627-1.138-1.097-2.244.02-3.406.252-.26.23-.78.34-1.18.26-.97.33-1.04 1.183-1.106.523-.037 1.045-.07 1.57-.074 3.994-.043 6.98-2.003 9.355-5.013.91-1.152 1.53-2.492 1.603-4.032.13-2.573-.596-4.84-2.68-6.39-1.21-.9-1.813-1.86-1.79-3.343.008-.485-.24-1.028-.52-1.45-1.155-1.747-2.724-2.885-4.884-3.034-.626-.043-1.26-.064-1.886-.034-.834.04-1.282-.2-1.55-1.115-.76-2.616-2.94-3.72-5.32-3.555-2.77.192-5.665.368-8.185 1.877-.4.24-.765.234-1.176.036-.38-.18-.776-.33-1.18-.432-4.013-1.013-7.893-1.314-11.065 2.11-.44.48-.928.427-1.387.053-.964-.79-2.11-.954-3.268-.837-1.136.114-2.248.464-3.383.605-1.92.237-3.442 1.202-4.296 2.833-.675 1.29-1.42 1.66-2.706 1.19-2.44.244-4.754.842-6.648 2.504-1.405 1.23-2.14 2.825-2.223 4.69-.027.623.006 1.27.143 1.872.166.736-.07 1.237-.672 1.584-1.776 1.017-3.102 2.488-4.216 4.16-1.19 1.786-1.872 3.723-1.803 5.915.048 1.468.456 2.716 1.732 3.492.71.43 1.013.994 1.138 1.758.05.303.198.597.328.883 1.088 2.428 3.232 3.62 5.835 3.275 1.107-.143 1.93-.744 2.65-1.546.33-.372.77-.404 1.083-.057.964 1.067 2.177 1.155 3.47 1.008 1.465-.166 2.893-.466 4.24-1.1.837-.39.99-.39 1.524.46 1.35 2.142 3.33 2.657 5.695 2.525 1.626-.087 3.04-.75 4.483-1.355.96-.403 1.794-1.23 2.775-1.422 1.11-.213 1.493 1.316 2.526 1.6.708.192 1.38.587 2.087.648 1.59.14 2.358 1.145 2.993 2.42.564 1.143 1.018 2.306 1.028 3.593.044 5.237.325 10.472-.42 15.7-.302 2.125-.667 1.795-2.06 1.55-1.94-.34-3.6-1.17-5.01-2.456-1.706-1.55-3.29-3.23-4.94-4.84-.49-.48-.56-.98-.524-1.68.162-3.028-.987-4.697-3.627-5.447-.496-.14-1.03-.164-1.55-.206-1.928-.158-3.75.255-5.49 1.072-.424.203-.81.124-1.126-.22-1.194-1.302-2.588-1.665-4.263-.997-.696.276-1.426.185-2.154-.054-.793-.256-1.61-.453-2.43-.614-2.507-.49-4.815-.047-6.704 1.74-.732.692-1.444 1.046-2.46 1.15-1.924.19-3.692.927-4.914 2.498-.693.892-1.01 2.09-1.756 2.92-.747.834-1.896 1.294-2.72 2.074-1.117 1.06-1.497 2.47-1.493 4.008.002 1.312.204 2.52 1.36 3.342.524.378.42.83.34 1.376-.456 3.093 1.24 5.368 4.29 5.732 1.796.213 3.615.192 5.164-.88 1.035-.717 1.997-.872 3.21-.53.914.264 1.876-.063 2.694-.593.757-.49 1.45-.516 2.357-.238 2.156.665 4.14.023 5.9-1.312 1.18-.898 2.197-1.937 2.757-3.364.077-.196.584-.44.736-.36 2.31 1.21 4.85 1.94 7.044 3.363 1.312.852 2.51 1.874 3.78 2.797 1.835 1.333 1.77 4.15.65 5.66-1.492 2.02-2.864 4.133-4.353 6.16-.74 1.01-1.638 1.906-2.45 2.87-.8.944-1.8 1.358-3.04 1.354-1.36-.003-2.722.13-4.084.14-2.623.028-5.245.005-7.87.014-.626 0-1.268-.026-1.88.08-.71.126-1.57.257-1.785 1.043-.104.373.368.9.566 1.36.17.38.32.765.482 1.15 1.232 2.913 2.802 5.61 4.89 8.016 1.1 1.26 2.05 2.65 3.07 3.982 1.334 1.75 2.728 3.46 3.984 5.263.947 1.355 2.176 1.882 3.762 1.813 1.152-.052 2.306-.08 3.456-.072 2.514.023 5.067-.177 7.535.183 4.44.646 8.78-.19 13.155-.46 3.342-.21 6.663-.71 10.003-.9 2.72-.15 5.45-.03 8.18-.03v-.137c2.937 0 5.874.018 8.812-.01.612-.005 1.337-.003 1.82-.304 1.586-.996 3.29-1.846 4.525-3.347 1.4-1.694 2.84-3.36 4.315-4.994 2.784-3.08 4.617-6.72 6.23-10.486.166-.383.318-.793.36-1.2.042-.394.03-.847-.13-1.194-.712-1.566-1.82-2.4-3.694-2.31-2.932.144-5.873.044-8.81.084-.725.008-1.45.168-2.18.245-1.04.106-2.08.266-3.12.287-2.725.06-5.452-.08-8.152.46-.608.12-1.26.07-1.885.065-1.04-.002-1.263-.222-1.358-1.263-.31-3.363.05-6.68.485-10.02.373-2.87 1.338-5.47 2.66-7.994.325-.62.76-.94 1.452-1.02 2.032-.23 3.883-.862 5.27-2.48.383-.445.893-.49 1.433-.328.3.092.59.237.896.288 2.764.483 5.456.715 7.42-1.925.28-.375.605-.04.73.21.237.46.333.993.564 1.455.75 1.49 1.965 2.543 3.566 2.86 2.645.527 5.348.464 7.413-1.52 1.242-1.19 2.6-1.618 4.167-1.82.624-.078 1.26-.16 1.852-.34 2.258-.69 4.25-1.725 5.432-3.948.433-.813 1.073-1.54 1.707-2.226 1.125-1.223 1.59-2.634 1.643-4.287.05-1.536-.622-2.83-1.024-4.228zm-88.975 45.476c-.627.04-1.256.015-1.886.015-.802.018-1.698.375-2.322-.457-.06-.08-.117-.26-.083-.292.712-.656 1.544-.24 2.317-.194.72.043 1.44.254 2.15.412.194.043.37.16.555.243-.245.097-.483.26-.734.275zm22.942-60.303c-.34-.17-.636-.54-.82-.89-.19-.357-.166-.82-.327-1.2-.504-1.202-2.208-1.488-2.766-.36-.728 1.486-1.965 2.406-3.107 3.454-.463.422-.99.78-1.528 1.105-2.048 1.232-3.844.776-5.024-1.328-.405-.72-.6-1.55-.92-2.32-.162-.398-.98-.67-1.377-.457-.36.196-.72.416-1.024.69-.717.654-1.5 1.07-2.49 1.212-.588.08-1.15.446-1.686.747-1.837 1.037-3.58.917-5.205-.405-.32-.264-.606-.576-.91-.87-.664-.643-1.467-.877-2.303-.494-.853.394-1.23 1.14-.955 2.08.17.574.068 1.01-.36 1.402-.686.634-1.262.736-1.983.333-.865-.485-1.59-1.08-1.27-2.217.18-.636.395-1.31-.3-1.672-1.11-.576-1.32-1.547-1.404-2.622-.032-.418-.015-.84-.038-1.26-.064-1.038.35-1.84 1.23-2.378.715-.435 1.425-.91 2.2-1.207 1.378-.54 2.195-1.505 2.73-2.85.247-.623.332-1.147.066-1.787-.232-.56-.435-1.184-.44-1.78-.02-2.518 1.156-3.926 3.585-4.403.31-.06.625-.1.94-.093 2.596.06 4.58-1.227 6.41-2.878.383-.353.76-.755 1.22-.96.446-.202.99-.206 1.495-.243.192-.014.412.094.595.192 2.387 1.287 4.632.415 6.87-.464 1.264-.494 2.508-1.052 3.777-1.53 1.77-.67 3.452-.666 5.027.604.747.602 1.63.966 2.615.357.102-.063.404.094.56.216.578.466 1.145.427 1.717.014.425-.31.858-.605 1.26-.94 1.404-1.174 2.875-1.042 4.372-.225.455.25.852.602 1.286.895.66.448 1.333.537 2.05.1.442-.27.8-.11.977.357.186.488.316 1 .48 1.493.437 1.36 1.07 1.554 2.257.61.406-.323.74-.842 1.304-.698.69.18 1.363.483 1.988.832.21.118.347.532.36.82.046.94.018 1.88.018 2.82-.043.002-.088.002-.13.003-.11 1.035-.22 2.067-.32 3.1-.075.762.717 1.402 1.435 1.102.47-.195.96-.45 1.307-.81.578-.594 1.045-1.3 1.568-1.95.25-.31.814-.31 1.104-.004 2.076 2.18 2.052 4.553.615 6.54-.24.326-.57.624-.923.816-1.285.706-2.595 1.363-3.9 2.032-1.225.625-2.51 1.01-3.887 1.18-1.24.154-2.375.45-3.17 1.7-.464.73-1.484 1.13-2.29 1.608-.866.512-1.84.356-2.765.21-.82-.13-1.617-.435-2.437-.578-.867-.15-1.376.142-1.78.937-.24.47-.41.966-.64 1.435-.086.185-.228.42-.396.476-1.483.473-2.965 1.188-4.54.4zm8.037 9.58c-.275-.097-.572-.126-.86-.18 0 .017-.004.03 0 .046-.036.003-.073.004-.11.01l-.24.257c.022-.075.02-.19.065-.22.048-.03.11-.035.176-.042l.058-.062.053.008c-.06-.855.892-1.03 1.163-1.68.262-.62.043-1.33-.602-1.504-.294-.077-.62-.043-.925-.103-.798-.15-1.127-.675-.79-1.276.306-.542.704-1.032.99-1.59.74-1.44.722-1.457 1.934-1.226.914.176 2.03.114 2.68.634.643.512.768 1.64 1.205 2.453.686 1.282 1.42 2.543 2.186 3.78.38.607.315 1.098.035 1.735-.505 1.152-1.15 1.928-2.554 1.824-.753-.053-1.408.328-1.963.845-.34.318-.693.46-1.042.044-.662-.785-1.437-.653-2.27-.35-.13.047-.42-.087-.494-.22-.072-.13-.036-.44.072-.53.555-.466 1.16-.86 1.717-1.32.565-.465.354-1.055-.48-1.336zM51.56 73.546c1.877.997 3.84 1.69 5.995 1.616.928-.034 1.218.512 1.525 1.237.235.56.914.62 1.295.165.395-.467.858-.97 1.006-1.533.373-1.41.636-2.844.65-4.333.03-2.927-.045-5.857.36-8.78.195-1.42-.116-2.9-.12-4.356 0-.806.37-1.032 1.714-1.28v-.056c.023-.006.05-.01.077-.012.065-.124.126-.245.188-.373.29.365.02.35-.186.373-.01.018-.018.038-.03.058l-.045.01c.046 2.486-.06 4.982.544 7.43.1.404.048.873.23 1.228.78 1.547 1.012 3.077.71 4.846-.305 1.78.703 3.307 2.166 4.267 1.647 1.084 3.4 2.176 5.557 1.216.128-.06.437.06.514.193.075.117-.026.366-.082.544-.707 2.188-1.55 4.337-2.097 6.564-.827 3.353-1.51 6.74-1.167 10.246.08.81-.26 1.11-1.087 1.177-6.795.526-13.6.643-20.405.64-.315 0-.63.007-.942-.023-.535-.053-1.22-.19-1.195-.768.02-.547.35-1.312.786-1.56.693-.4 1.587-.46 2.4-.643.608-.136 1.26-.16 1.82-.396.323-.136.604-.565.726-.926.113-.325-.16-.94.012-1.07.284-.215.784-.182 1.195-.197.943-.03 1.892.04 2.826-.06.604-.064 1.216-.29 1.767-.56.833-.413 1.01-1.77.366-2.445-.218-.225-.47-.428-.737-.577-.274-.147-.587-.22-.888-.31-1.096-.35-2.174-.865-3.296-.982-.993-.11-2.03.236-3.054.364-.078.01-.2-.093-.245-.174-.026-.047.037-.206.097-.23.47-.2.94-.435 1.434-.552 1.524-.36 3.06-.666 4.59-1.008.407-.092.8-.243 1.2-.373 1.27-.416 1.87-1.045 1.775-1.86-.11-.962-1.063-1.945-2.14-1.978-.927-.026-1.887.078-2.783.312-1.108.29-2.16.785-3.247 1.157-.114.04-.32-.118-.45-.227-.047-.038-.027-.213.02-.296.1-.186.23-.35.358-.516.193-.245.408-.48.58-.74.87-1.295.982-2.04.32-2.5-.934-.644-1.545.08-2.188.605-.16.13-.323.274-.45.434-.193.245-.342.264-.46.006-.034-.083-.043-.216 0-.286.482-.808.977-1.6 1.466-2.402.253-.42.585-.547 1.03-.31zm-9.742-10.294c-.333 1.125-1.037 2.043-1.803 2.917-.747.855-1.724 1.5-2.194 2.623-.297.722-1.097.917-1.827 1.056-.5.095-1.07.027-1.49.255-.518.285-.85.96-1.377 1.167-.544.213-1.26-.043-1.842.114-.59.16-1.126.54-1.646.885-.608.406-1.137.937-1.764 1.306-.864.51-1.74.71-2.5-.273-.357-.463-.874-.538-1.375-.16-1 .757-1.98 1.536-2.988 2.283-.484.36-.906.245-1.383-.15-1.21-1-1.678-1.046-2.72-.372-.703.452-1.356.984-2.064 1.43-1.017.64-2.15.785-3.326.624-.998-.136-1.618-.874-1.68-1.942-.046-.757.063-1.453.592-2.048.725-.82.71-1.696.15-2.6-.22-.355-.54-.693-.62-1.08-.1-.48-.184-1.124.048-1.484 1.12-1.728 2.304-3.41 3.32-5.207.708-1.252 2.332-1.697 3.903-1.27.495.134.945.43 1.438.595.63.208 1.42-.384 1.174-.998-.508-1.263.217-1.764 1.11-2.116.95-.38 1.976-.577 2.308-.67 2.04-.042 3.16.19 3.733 1.662.305.768.838.862 1.548.632.795-.258 1.568-.59 2.373-.813.492-.134 1.036-.224 1.534-.165 1.87.224 3.69.117 5.538-.32 2.544-.603 4.572 1.613 3.834 4.117zm3.624 8.95c-.452.274-.89.614-1.42.38-.652-.29-1.275-.66-1.88-1.043-.106-.067-.076-.37-.076-.56 0-.1.062-.205.122-.286 2.642-3.61 1.477-4.395 5.155-.636.506.517 1.077.972 1.563 1.507.167.183.3.672.203.768-.285.277-.693.42-1.037.61-.11-.095-.21-.145-.256-.228-.24-.452-.4-1.077-.99-1.06-.47.014-.962.293-1.387.547zm48.665 27.672c1.35.004 2.7.25 4.047.42.44.054.565.6.23.962-1.07 1.152-2.14 2.3-3.23 3.43-1.75 1.814-3.414 3.702-4.702 5.878-.487.82-1.14 1.1-2.072 1.102-4.928.02-9.856.092-14.778.135-4.088.038-8.144.433-12.197.945-5.93.747-11.887 1.125-17.87.837-.196-.01-.394-.125-.588-.186l.454-.66c.447-.654.333-1.326-.297-1.494-.6-.16-1.23-.326-1.84-.3-1.46.065-2.913.255-4.375.353-.277.018-.593-.117-.84-.267-.142-.09-.253-.353-.24-.527.01-.162.183-.423.32-.45.612-.12 1.235-.164 1.853-.25.62-.09 1.25-.14 1.853-.3.88-.232 1.513-.906 1.434-1.442-.112-.75-.736-1.026-1.32-1.178-.8-.21-1.178-.67-1.45-1.41-.122-.332-.608-.53-.934-.777-.245-.188-.47-.344.008-.533.574-.227 1.19-.41 1.686-.757.856-.605.807-1.688.016-2.428-.488-.46-1.042-.66-1.702-.67-.837-.015-1.672-.05-2.507-.092-.092-.006-.18-.102-.27-.158.084-.046.16-.125.246-.135.412-.058.827-.132 1.24-.134 3.88-.01 7.758-.008 11.636-.008v.048c.943 0 1.888-.01 2.83.003 8.066.11 16.138.427 24.197.26 6.386-.13 12.773-.23 19.16-.217zM118.832 59.3c-.786 1.337-1.616 2.655-2.526 3.91-.27.373-.848.634-1.326.732-1.24.253-2.515.414-3.32-.94-.402-.677-.91-1.204-1.766-.99-.878.222-1.46.844-1.7 1.697-.14.485-.093 1.033-.097 1.552-.017 1.933-1.28 3.115-2.724 3.952-1.92 1.11-4.624.055-5.555-1.973-.26-.56-.386-1.185-.544-1.79-.264-1.012-.49-2.026-.772-3.03-.028-.103-.442-.214-.466-.18-.896 1.293-2.606 1.622-3.424 3.07-1.504 2.66-5.04 2.53-7.008.523-.355-.366-.585-.864-.823-1.32-.53-1.024-1.756-.837-2.332-.075-.526.692-.774 1.48-.448 2.346.002.883-.392 1.353-1.252 1.483-1.34.2-2.528.06-3.106-1.423-.075-.197-.173-.386-.293-.555-.61-.87-1.82-.886-2.36-.006-.212.346-.33.765-.434 1.165-.125.47-.41.69-.88.71-1.044.04-2.095.11-3.14.096-.48-.012-.958-.21-1.437-.327.217-.35.42-.707.656-1.046.39-.562.46-1.117.16-1.762-.207-.454-.346-.964-.395-1.464-.063-.623-.34-.954-.95-1-.314-.022-.627 0-.943-.016-1.69-.064-2.14-.747-1.605-2.383.512-1.566 1.656-2.65 2.82-3.713.34-.305.743-.25 1.163-.06.467.214.962.398 1.466.507.64.136 1.273-.605 1.027-1.178-.207-.476-.457-.94-.74-1.374-.343-.528-.29-.996.166-1.385.638-.537 1.312-1.04 1.973-1.55 1.483-1.146 2.955-1.004 4.053.44.44.58.73 1.27 1.13 1.88.38.58 1.216.66 1.615.112 2.032-2.806 5.042-3.92 8.187-4.876 1.862-.565 3.51-.083 5.154.668.597.273.757.723.61 1.568-.052.3-.2.594-.212.896-.02.434.687.988 1.114.906.302-.062.616-.124.89-.258 2.04-.998 3.865-.517 5.562.8.41.32.736.757 1.17 1.035.176.104.628.004.792-.163.446-.444.79-.985.656-1.676-.092-.47-.65-.985-.11-1.404.383-.3.96-.353 1.45-.507 1.626-.52 3.08.25 4.57.655.545.146.62.773.716 1.3.168.95.702 1.49 1.726 1.43.314-.02.632.007.94-.02 2.196-.16 4.22 2.808 2.924 4.998zm-55.84-33.625c.308.274.805.12 1.042-.31.103-.182.18-.378.267-.56.07-.64-.233-1.445-.823-1.947-1.047-.89-2.23-1.536-3.552-1.955-1.632-.517-3.1-.21-4.437.786-.587.435-1.104.96-1.615 1.485-.192.194-.42.512-.05.764.156.104.417.18.583.127.495-.158.98-.354 1.442-.597 2.16-1.14 4.048-.593 5.78.91.47.412.897.873 1.366 1.294zm-17.19-3.243c-2.982-.574-6.598.846-7.928 4.133-.037.096-.096.215-.067.3.1.283.164.647.377.8.197.142.715.19.832.054 1.902-2.24 4.382-3.03 7.22-3.01.278.002.583-.194.83-.365.15-.105.21-.338.31-.515-.104-.497-.94-1.276-1.574-1.4zm-5.74 11.603c-.665-.264-1.353-.466-1.496-.512-1.778-.115-2.874.192-3.816.928-.318.25-.597.6-.762.97-.107.243-.078.648.06.88.14.23.48.416.758.47.286.052.653 0 .913-.14 1.203-.657 2.47-1.12 3.84-1.295.19-.025.392-.16.535-.3s.32-.34.312-.51c-.008-.172-.184-.424-.348-.49zM69.01 28.81c.853.42 1.338.942 1.26 1.918-.02.203.042.414.08.62.085.447.373.858.803.756.337-.08.678-.47.86-.805.187-.35.18-.8.277-1.296-.15-.537-.252-1.154-.49-1.717-.45-1.083-1.46-1.412-2.58-.915-.674.297-.84 1.128-.21 1.438zm21.387 27.036c-.478-.18-.986-.282-1.17-.33-1.727-.022-3.04.27-4.202 1.08-.747.523-1.122 1.216-.896 2.155.09.38.713.717.96.458 1.234-1.285 2.817-1.73 4.495-2.005.3-.05.597-.21.856-.382.137-.092.28-.316.268-.47-.02-.18-.16-.45-.315-.504zm15.168-.098c-.403.217-.95.48-1.46.8-.147.09-.3.37-.26.51.08.262.255.654.458.7 1.277.3 2.573.528 3.872.74.117.02.402-.24.41-.378.017-.384.06-.868-.14-1.144-.65-.885-1.645-1.145-2.88-1.23zm-73.88 8.683c-1.152-.02-2.298.077-3.157.948-.235.238-.296.75-.245 1.112.023.187.45.33.71.47.08.044.21.033.304 0 1.5-.49 2.99-.72 4.544-.17.386.133.847-.155.93-.614.043-.25-.082-.603-.25-.816-.726-.92-1.768-.962-2.834-.928zm-9.632-1.056c-1.38.045-3.317.804-4.14 1.61-.287.285-.54.64-.685 1.014-.14.354-.296.883-.133 1.14.424.684.875.11 1.252-.165 1.1-.813 2.38-1.195 3.648-1.632.46-.157.866-.5 1.26-.81.08-.064.058-.453-.033-.514-.418-.277-.88-.49-1.168-.642z"/></svg>