<svg xmlns="http://www.w3.org/2000/svg" width="128" height="128" viewBox="0 0 128 128"><path d="M33.838 107.38c-.195-.063-.41-.063-.6-.127-.554-.19-.788-.597-.568-1.195.318-.866.678-1.707.397-2.66-.1-.332-.634-.737-.935-.61-.464.197-.98.372-1.335.703-.433.414-.7 1-1.092 1.463-.143.166-.453.192-.688.282-.018-.288-.13-.612-.035-.86.256-.664.58-1.3.91-1.934.85-1.623 1.718-3.242 2.58-4.863.485-.912.895-1.835.682-2.915-.078-.383-.584-.69-.915-.497-.267.155-.563.277-.778.48-.663.64-1.28 1.316-1.944 1.955-.1.096-.332.082-.498.068-.055-.002-.132-.16-.145-.256-.19-1.448-.01-2.773.776-4.096 1.41-2.362 2.663-4.82 3.924-7.267.373-.716.612-1.507.816-2.29.192-.74-.114-1.65-.46-1.593-.48.08-.982.235-1.396.484-.333.2-.582.56-.81.89-.815 1.17-1.6 2.355-2.4 3.533-.048.07-.16.098-.244.15-.053-.09-.14-.175-.15-.268-.18-1.933-.33-3.84.598-5.682.685-1.362 1.237-2.8 1.765-4.235.28-.752.41-1.568.557-2.364.023-.144-.15-.41-.294-.48-.15-.072-.427-.034-.57.066-.33.226-.6.538-.917.786-.46.37-.603 1.41-1.214 1.178-.944-.363-.128-1.227-.12-1.862.028-1.853.547-3.624 1.046-5.392.446-1.566.98-3.115 1.344-4.702.17-.75.61-1.507.275-2.332-1.044-.207-1.255.824-1.86 1.264-.243.177-.45.405-.69.592-.07.058-.256.103-.28.07-.118-.155-.29-.35-.278-.514.05-.49.114-1 .296-1.45.226-.558.65-1.03.866-1.59.885-2.28 1.702-4.58 2.588-6.86.3-.778.512-1.538.425-2.378-.065-.64-.805-1.062-1.356-.69-.41.273-.772.64-1.09 1.015-.62.72-.885 1.71-1.707 2.277l-.017.155c-.065.026-.132.05-.193.085l-.117.177c.024-.055.032-.13.073-.16.012-.01.03-.01.044-.02l.11-.165c.035-.02.063-.05.098-.072.245-1.967.288-3.992.832-5.87.733-2.518 1.27-5.142 2.677-7.436.153-.243.21-.59.193-.883-.016-.274-.126-.7-.305-.772-.333-.128-.946-.203-1.09-.02-.814 1.03-1.542 2.13-2.256 3.237-.33.507-.555 1.08-.84 1.62-.043.077-.16.147-.25.154-.048.005-.148-.13-.156-.208-.267-2.222-.565-4.442-.765-6.667-.15-1.646-.1-1.6 1.654-1.09 1.27.37 2.584.603 3.883.84 1.535.28 2.63-.65 3-2.358.096-.427-.12-1.008-.37-1.408-.387-.624-1.055-.926-1.79-1.062-.8-.15-1.588-.346-2.393-.483-1.715-.295-2.347-1.007-2.55-2.92-.095-.906-.068-1.844.044-2.75.257-2.088 1.585-3.19 3.702-3.187 4.693.004 9.39.013 14.082.013 1.938 0 3.86-.023 5.792-.365 1.397-.246 2.845-.255 4.27-.25 4.188.027 8.372.16 12.556.156 4.49-.004 8.99.035 13.47-.226 4.276-.25 8.548-.483 12.834-.54 1.2-.016 2.42-.304 3.584-.65 1.457-.432 2.053-2.126 1.27-3.487-.29-.497-.82-.853-1.235-1.273h-5.518c-.62.78-1.496.5-2.278.526-3.062.093-6.154-.075-9.185.267-3.774.425-7.54.422-11.312.472-1.33.016-2.658.055-3.98.14-2.14.14-4.27.357-6.407.48-2.648.148-5.312.02-7.932.586-3.02.653-6.084.604-9.147.607-2.555.002-5.11-.055-7.662-.014-1.72.027-3.472-.275-5.15.444-.327.14-.814.027-1.187-.094-1.14-.373-1.99.117-2.767.847-1.156 1.076-1.89 2.423-2.206 3.95-.288 1.37-.02 2.873-1.094 4.05-.165.177-.088.588-.107.895-.07 1.426-.177 2.854-.2 4.284-.147 9.4.394 18.785.836 28.17.094 1.933.41 3.86.45 5.79.23 10.625.404 21.244.596 31.865.02 1.225.068 2.453.043 3.68-.056 2.066.24 4.014 1.15 5.924.51 1.07 1.075 1.98 2.08 2.54 1.99 1.11 4.11 1.784 6.437 1.564.973-.094 1.476-.486 1.775-1.408.544-1.694.17-2.41-1.55-2.968zm72.032-8.37c.303-.622.082-1.247-.405-1.668-.953-.82-1.18-1.824-1.08-3.023.16-1.933.323-3.87.34-5.808.066-8.48.153-16.96.085-25.44-.026-3.465-.178-6.965-.717-10.38-.617-3.877-.405-7.74-.46-11.613-.012-.9.254-1.807.433-2.698.218-1.1.533-2.184.713-3.288.172-1.073-.455-2.03-1.495-2.38-.476-.164-.992-.263-1.493-.284-2.148-.095-4.288-.03-6.41.374-1.4.262-2.813.49-4.227.666-.395.048-.836-.158-.896-.65-.086-.705-.086-1.422-.165-2.132-.15-1.312-.335-2.624-.512-3.936-.11-.793-.6-1.295-1.323-1.534-.767-.258-1.548-.544-2.346-.626-1.316-.14-2.648-.176-3.98-.17-4.692.027-9.39.022-14.063.682-1.92.27-2.243-.01-2.76 2.502-.08.4-.09.81-.155 1.216-.13.805-.288 1.606-.418 2.41-.085.518-.405.662-.864.56-.495-.107-.98-.34-1.476-.355-1.532-.05-3.067-.032-4.597-.023-1.636.008-3.304-.16-4.895.11-1.623.28-3.237.4-4.864.48-2.657.127-5.292.404-7.767 1.473-.6.258-.955.002-1.316-.388-.14-.15-.288-.293-.46-.397-.596-.37-1.194-.154-1.503.47-.425.846-.54 1.745-.58 2.672-.06 1.222-.133 2.448-.23 3.667-.1 1.216-.32 2.428-.344 3.644-.134 6.02-.125 12.043-.423 18.067-.377 7.552-.203 15.115.483 22.656.027.302.027.62.09.91.77 3.655.383 7.33.227 10.998-.072 1.73-.22 3.46-.205 5.19.017 2.142.173 4.28.243 6.422.02.66.277 1.123.76 1.58 1.868 1.76 4.127 2.573 6.614 2.792 2.032.18 4.075.31 6.112.324 7.868.045 15.738.043 23.605.043.917 0 1.85.002 2.75-.15.936-.157 1.807-.06 2.72.14 2.498.542 5.024.91 7.6.76 2.955-.166 5.916-.29 8.864-.527.895-.073 1.81-.34 2.643-.702 1.604-.69 3.2-1.31 4.99-1.29.91.014 1.51-.58 1.87-1.37.25-.546.313-1.205.637-1.694.73-1.106.84-2.173.515-3.477-.387-1.573-.642-3.22.134-4.81zm-8.25-61.997c.197-.03.4-.02.6-.02.74-.006 1.153.365 1.164 1.04.007.303.003.6.003 1.225-.154.774-.356 1.856-.59 2.933-.035.165-.208.41-.335.423-.162.01-.368-.147-.51-.277-1.077-1.003-1.707-2.205-1.712-3.71-.006-.948.41-1.476 1.38-1.613zm-11.725-6.61c.06-.066.22-.128.277-.096.146.085.363.224.37.35.036.712.017 1.423.017 2.136l.062.002c-.038.715-.023 1.436-.14 2.136-.074.478-.212 1.047-.536 1.36-1.71 1.66-2.728 3.806-4.046 5.735-1.03 1.51-1.986 3.093-2.772 4.74-.87 1.816-2.296 3.086-3.706 4.407-.066.065-.156.097-.238.14-.04-.18-.147-.387-.102-.546.11-.386.286-.757.446-1.13.31-.71.324-1.388-.235-1.98-.496-.524-.537-1.042-.112-1.63.24-.33.403-.71.63-1.05 3.09-4.55 6.185-9.1 9.29-13.644.23-.333.52-.627.796-.928zm.562 16.706c.004.68-.224 1.15-.99 1.25-1.023.137-1.44 1.03-2.026 1.708-.3.346-.816.234-.98-.156-.323-.77-.547-1.598-.132-2.34 1.13-2.02 2.342-4 3.53-5.99.04-.063.19-.088.285-.078.064.005.168.1.174.16.075 1.003.14 2.005.207 3.01-.02 0-.046 0-.066.003 0 .81-.005 1.618 0 2.43zm.04 4.833c-.114.58-.28 1.572-.513 2.55-.045.19-.33.38-.544.46-.085.033-.31-.22-.42-.38-.372-.54-.41-1.165-.21-1.744.288-.86.68-1.68 1.058-2.505.06-.133.274-.197.416-.292.043.09.112.18.12.277.034.4.046.804.092 1.635zM79.21 30.38c.645-1.05 1.514-1.646 2.503-1.425.508.03.715.014.91.06.295.068.583.187.415.587-.12.277-.23.574-.416.808-3.302 4.143-6.192 8.578-9.102 12.994-.508.764-1.056 1.498-1.61 2.223-.104.133-.34.164-.52.222-.015 0-.108-.173-.118-.27-.124-.913-.164-1.812.347-2.657 2.422-4.008 4.83-8.027 7.245-12.04.107-.173.238-.33.346-.505zm-7.797 2.217c.71-.862 1.333-1.803 1.94-2.74.442-.682 1.036-.96 1.804-.876.494.057 1.18.023 1.425.32.47.58-.13 1.11-.475 1.588-1.61 2.222-3.23 4.442-4.856 6.653-.094.13-.322.157-.49.234-.08-.18-.21-.363-.236-.55-.067-.506-.088-1.014-.128-1.52-.115-1.188.258-2.18 1.02-3.105zM93.39 104.44c-.57.857-1.262 1.268-2.29 1.196-.708-.046-1.428.02-2.14-.013-3.275-.145-6.528.067-9.743.643-2.936.525-5.888.512-8.845.573-1.837.036-3.675.004-5.513.004v.046c-3.474-.077-6.946-.11-10.413-.244-2.852-.107-5.698-.352-8.548-.508-1.53-.083-3.045-.08-4.534.472-.637.235-1.408.164-2.112.128-.203-.01-.56-.384-.555-.585.024-1.298-.16-2.62.945-3.704.893-.88 1.163-2.157 1.416-3.343.788-3.723.895-7.484.37-11.26-.095-.704-.205-1.416-.23-2.126-.287-8.36-.81-16.714-.68-25.087.077-4.896-.01-9.803-.162-14.694-.08-2.437-.487-4.865-.723-7.3-.107-1.106-.18-2.22-.22-3.336-.012-.24.02-.688.496-.51 3.564 1.35 7.25.883 10.913.742.913-.036 1.824-.224 2.736-.24 1.626-.03 3.26-.065 4.875.06 1.83.14 3.637.502 5.46-.055.492-.15.79.19.854.614.095.704.127 1.42.144 2.133.064 3.06.09 6.126.168 9.186.068 2.55.067 5.1.48 7.63.194 1.202.163 2.443.25 3.664.163 2.332.334 4.67.51 7 .016.2.092.396.152.59.19.63 1.237 1.12 1.762.73.966-.723 2.123-1.222 2.763-2.355.652-1.152 1.47-2.216 2.034-3.406.72-1.515 1.606-2.802 3.074-3.677.687-.41 1.25-1.294 1.933-1.37.95-.104 1.42 1.01 2.05 1.64 1.805 1.793 3.417 3.798 5.613 5.164.6.373 1.218.738 1.875.978.814.3 1.752-.245 1.87-1.085.13-.904.152-1.824.167-2.74.038-2.03-.213-4.067.363-6.082.194-.66.053-1.42.053-2.133.006-3.677.026-7.354-.004-11.026-.007-.91-.168-1.818-.27-2.724-.086-.755.212-1.07 1.06-1.07.303 0 .613.01.917.037.643.057.974.34 1.02.903.042.608 0 1.23.08 1.833.333 2.453 1.485 4.427 3.518 5.856.585.41 1.238.73 1.797 1.163.298.233.586.597.674.953.217.888.385 1.8.45 2.71.274 3.867.48 7.737.753 11.6.497 7.13.613 14.273.762 21.412.078 3.67.292 7.34.434 11.004.024.715.063 1.438-.03 2.14-.05.347-.32.812-.618.952-3.164 1.513-5.286 4.093-7.166 6.912zm5.732 1.03c-.125-.01-.632.004-1.106-.116-.156-.037-.373-.512-.3-.637.666-1.17 1.882-1.756 2.882-2.567.306-.248.552-.04.715.21.107.156.128.373.187.565.76 2.567.15 2.58-2.376 2.545zM32.487 28.327c.067.37.254.845.542 1.02.77.46 1.6.832 2.444 1.145.53.193 1.515-.36 1.81-.874.207-.363-.08-1.024-.68-1.523-.158-.128-.33-.24-.505-.34-.825-.474-1-1.156-.81-2.062.162-.785.22-1.6.24-2.403.014-.727-.934-1.156-1.586-.794-.765.424-1.22 1.067-1.344 1.906-.116.795-.146 1.607-.212 2.41.026.003.05.003.075.005 0 .507-.068 1.024.02 1.512zm60.43-4.903c-.404.283-.31 1.008.116 1.282 1.126.718 2.38.41 3.664.512.736-.034 1.557-.034 2.368-.117.79-.077 1.425-.703 1.466-1.332.03-.51-.44-1.04-1.133-1.276-1.525-.515-5.17.006-6.482.933zm6.744 2.468c-1.64-.095-3.202.246-4.69.935-.157.075-.323.307-.33.47 0 .13.218.302.373.4.984.62 2.1.654 3.712.743.313-.066 1.12-.16 1.862-.43.288-.11.587-.63.578-.95-.007-.31-.373-.657-.66-.89-.215-.176-.554-.264-.842-.28zm-.09 3.807c-1.494.21-2.985.47-4.46.77-.192.038-.472.474-.424.646.064.235.376.496.634.565.48.134.996.138 2.07.263.696.117 1.8-.456 2.934-.855.134-.045.26-.315.267-.485.013-.17-.086-.414-.22-.517-.235-.18-.55-.42-.8-.387z"/></svg>