<svg xmlns="http://www.w3.org/2000/svg" width="128" height="128" viewBox="0 0 128 128"><path d="M120.284 47.1c-.344-.212-.704-.433-1.085-.545-1.01-.3-1.154-1.013-1.03-1.905.07-.5.05-1.027.18-1.51.457-1.702.273-3.436.335-5.158.03-.86-.3-1.52-.934-2.144-1.194-1.178-2.585-1.888-4.202-2.26-3.867-.894-7.81-1.29-11.74-1.69-5.08-.517-10.164-.062-15.188.65-5.14.726-10.09 2.25-14.734 4.652-.632.325-1.284.606-1.927.907-.813.382-1.596.256-2.32-.206-.42-.27-.836-.59-1.175-.955-2.008-2.19-4.392-3.908-6.837-5.566-3.295-2.236-6.67-4.257-10.587-5.233-1.076-.27-2.13-.675-3.16-1.1-2.684-1.108-5.47-1.48-8.35-1.307-.71.042-1.424.067-2.133.1-.917 0-1.835.033-2.746-.006-2.352-.1-4.655.24-6.96.648-1.17.21-1.78.904-2.03 1.98-.115.49-.15 1.005-.187 1.508-.034.51-.003 1.02-.032 1.525-.06 1.053-.355 1.504-1.507 1.445-1.62-.08-2.12.815-2.418 2.112-.68 2.965-1.465 5.91-2.048 8.89-.663 3.38-1.227 6.784-1.704 10.194-.98 7.04-2.67 13.938-4.056 20.893-.832 4.173-1.675 8.345-2.55 12.51-.255 1.227-.018 2.25 1.044 2.927.49.31 1.128.487 1.716.54 2.627.22 5.262.537 7.89.517 3.884-.03 7.7.565 11.524.998 4.847.555 9.672 1.18 14.558 1.188.81.003 1.636-.01 2.426.14 3.268.613 3.112.582 3.784 3.453.02.1.045.203.058.3.13 1.085.715 1.92 1.6 2.48 1.198.756 2.41 1.522 3.7 2.096 1.868.832 3.813 1.385 5.902.68.562-.19 1.218-.087 1.81-.22 1.883-.426 3.805-.79 5.206-2.295.642-.686 1.434-.697 2.254-.59.397.056.782.21 1.173.317 4.706 1.295 9.53 1.94 14.338 2.704 2.79.446 5.653.617 8.35 1.602.285.1.597.148.896.167 2.443.142 4.818.614 7.202 1.148 3.293.736 3.86.33 4.816-2.825.09-.288.14-.592.214-.888 1.026-4.128 2.07-8.256 3.083-12.395.26-1.08.417-2.187.63-3.28.457-2.39.82-4.8 1.406-7.157 2.254-9.052 4.144-18.187 6.146-27.296.085-.392.165-.797.18-1.195.022-.646-.215-1.2-.782-1.55zM17.93 76.214c.348-.316.852-.572 1.313-.622.9-.092 1.82-.026 2.515-.026 3.477-.026 6.617.77 9.766 1.483.088.02.158.12.237.186-.13.107-.265.31-.393.306-1.616-.043-3.247 0-4.837-.23-1.025-.146-1.972-.106-2.984.022-1.7.22-3.428.25-5.145.313-.254.008-.72-.224-.736-.38-.036-.35.038-.84.27-1.053zm28 9.723c-3.062-.685-6.154-1.267-9.172-2.128-3.822-1.09-7.662-1.91-11.65-2.01-1.21-.034-2.42-.226-3.618-.43-.634-.11-1.195-.086-1.763.21-.45.23-.936.41-1.005 1.014-.053.482.488.907 1.286 1.005 3.523.42 7.05.833 10.574 1.27.6.076 1.195.23 1.78.38 2.753.698 5.505 1.4 8.246 2.123.388.103.75.302 1.106.494.155.083.262.254.39.384-.193.05-.39.108-.588.148-.096.02-.2.018-.62.043-1.492-.244-3.287-.57-5.09-.82-2.51-.352-5.03-.63-7.54-.973-2.308-.315-4.618-.632-6.91-1.04-.986-.175-1.927-.594-2.897-.88-.67-.196-1.357-.34-2.026-.543-.286-.085-.552-.243-.414-.643.336-.965-.106-1.78-.514-2.605-.224-.445-.422-.904-.562-1.376-.037-.13.14-.385.288-.49.13-.11.378-.164.526-.113.168.064.322.25.413.42.436.815 1.18 1.105 2.02 1.143 1.62.067 3.254.16 4.876.108 3.37-.112 6.667.402 9.982.92 2.41.38 4.82.737 7.136 1.487 2.018.654 3.974 1.498 5.952 2.28.155.06.24.298.355.45-.187.063-.396.21-.56.172zm3.662-5.218c-5.963-3.396-12.49-5.255-19.1-6.843-3.252-.784-6.553-1.344-9.925-1.285-.907.017-1.323-.486-1.14-1.36.594-2.876 1.167-5.76 1.876-8.607 1.52-6.1 2.656-12.27 3.522-18.493.152-1.093.366-2.233.832-3.22.804-1.71 1.045-3.482 1.06-5.322.013-2.334 0-4.67.025-7.006.005-.82.368-1.163 1.102-1.037 3.226.562 6.445.544 9.694.176 1.723-.194 3.435.19 5.08.748 2.588.883 5.216 1.676 7.733 2.74 2.895 1.226 5.66 2.703 7.924 5.004 1.347 1.366 2.916 2.514 4.388 3.756.393.325.82.605 1.206.934 1.685 1.44 2.972 3.07 2.61 5.513-.3 2-.594 4.004-.91 6.005-.333 2.1-.686 4.195-1.037 6.293-.235 1.396-.4 2.81-.723 4.185-1.393 5.914-2.834 11.817-4.26 17.723-.07.296-.148.592-.242.88-.41 1.244-.83 2.48-1.244 3.722-1.556-.14-2.78-1.05-4.06-1.803-1.485-.868-2.91-1.845-4.406-2.702zm10.416 7.38v.18c-.125-.033-.245-.07-.37-.106.067-.053.125-.135.2-.16.045-.017.12.053.17.085zm7 7.774c-1.746 1.33-3.752 1.9-6.133 1.872-1.312.16-2.58-.34-3.656-1.39-.58-.565-1.157-1.133-1.745-1.685-.74-.692-.893-1.556-.75-2.5.028-.176.226-.48.31-.467.27.04.71.15.756.32.713 2.747 2.825 3.808 5.296 4.328 1.61.34 3.238.364 4.437-1.145.166-.21.504-.384.774-.4.258-.016.612.136.765.335.117.153.082.626-.056.733zm.952-3.236c-.33.05-.67.066-1.005.09-.01.032-.03.056-.035.096-.077-.002-.156-.007-.235-.01-1.202.628-2.876 1.095-3.698 1.005-.072-.01-.197-.108-.192-.148.01-.09.072-.208.15-.25.426-.235.847-.602 1.295-.644.808-.075 1.63.002 2.446.036.05-.026.107-.05.155-.078l.117-.007c.115-.374.432-.464.785-.466.172 0 .35.088.526.136-.1.082-.194.22-.304.24zm2.15-.72c-.084.02-.175.04-.252.022-.08-.017-.145-.08-.218-.123h.494c-.006.03-.008.096-.025.1zm2.12-.552c-.07.008-.154-.085-.23-.132.174-.045.345-.11.52-.126.07-.01.15.085.224.13-.168.043-.338.11-.512.128zm1.946-.475c-.077.01-.18-.09-.25-.16-.017-.016.033-.15.08-.172.176-.085.36-.168.55-.22 3.118-.893 6.29-1.436 9.55-1.508 1.51.108 3.017.208 4.524.334.188.017.363.16.544.245-.18.077-.355.203-.544.23-.398.06-.802.065-1.205.095-3.12.226-6.243.43-9.36.686-1.298.104-2.59.318-3.888.468zm32.283 4.175c-.426 1.123-.858 2.244-1.29 3.365-1.2.327-2.367-.09-3.53-.232-2.093-.26-4.16-.7-6.24-1.067-.2-.03-.407-.027-.603-.076-1.342-.335-2.432-1.3-3.98-1.23-1.273.06-2.588-.34-3.854-.66-1.368-.342-2.7-.816-4.046-1.244-.154-.052-.28-.193-.418-.29.194-.046.387-.13.583-.14 1.817-.09 3.637-.166 5.018-.228 4.58.14 8.714.31 12.774 1.24 1.205.277 2.413.16 3.612-.11.49-.112.99-.232 1.483-.22.174.003.356.375.507.596.043.064.015.203-.018.294zm2.57-10.97l-.01.148c-.034.025-.057.055-.087.082-.014.736-.02 1.47-.055 2.204-.007.135-.157.266-.242.396-.053-.082-.15-.168-.15-.25.026-.813-.304-1.704.446-2.352 0-.053.003-.103.004-.156.038-.023.06-.05.094-.075.038-.757.078-1.517.126-2.272.006-.092.09-.18.14-.266.052.064.148.13.148.194-.032.8.434 1.71-.414 2.342zm-1.655-12.13c-.975 4.346-1.707 8.75-2.517 13.132-.15.79-.125 1.62-.21 2.427-.072.728-.603 1.117-1.243.945-.096-.026-.2-.044-.29-.086-3.99-1.817-8.31-2.573-12.477-3.832-1.25-.378-2.57-.63-3.876-.72-4.702-.324-9.312.167-13.788 1.745-2.773.977-5.573 1.874-8.363 2.8-.42.144-.775-.15-.767-.62.008-.406-.004-.816.06-1.215.534-3.302 1.153-6.59 1.604-9.897.575-4.228 1.527-8.37 2.538-12.504.484-1.966.82-3.97 1.166-5.965.414-2.4.85-4.795 1.11-7.21.243-2.213.31-4.45.373-6.683.112-3.835-.587-3.33 3.492-4.918 3.597-1.402 7.298-2.496 11.09-3.172 3.596-.645 7.247-.93 10.878-.725 5.148-.35 10.148.587 15.168 1.298.988.14 1.94.555 2.89.904.697.257.934.737.78 1.443-.434 1.98-.887 3.956-1.343 5.927-2.098 8.975-4.254 17.938-6.272 26.93zm6.96-11.596c-.132-.12-.364-.234-.377-.366-.06-.66.305-1.176.97-1.275.174-.03.587.315.576.465-.043.58-.614 1.085-1.17 1.173zm-10.995-3.32c-.605-.342-1.284-.65-1.968-.76-4.107-.654-8.216-1.26-12.33-1.85-.598-.088-1.228-.1-1.825-.022-3.013.41-6.033.795-9.028 1.323-1.903.333-3.74.966-5.384 2.02-.33.21-.71.495-.837.83-.12.32-.018.794.145 1.12.102.203.528.405.757.357.69-.15 1.353-.41 2.022-.64.86-.294 1.704-.654 2.58-.89 3.048-.818 6.154-1.297 9.743-1.247 2.357-.273 5.02.455 7.712.943 2.094.38 4.2.697 6.31.987.585.08 1.205-.008 1.8-.083.435-.053.97-.693.878-1.11-.08-.355-.29-.806-.58-.975zm-3.82 13.28c-.48-.157-.97-.3-1.468-.38-3.3-.508-6.596-1.037-9.903-1.477-.994-.132-2.033-.085-3.04.016-3.522.35-7.044.74-10.56 1.16-1.405.17-2.8.458-3.983 1.334-.434.32-.63.89-.457 1.33.172.45.743.82 1.206.746 1.596-.248 3.187-.56 4.794-.756 3.21-.39 6.432-.72 9.65-1.077 1.94.178 3.845.158 5.756.62 2.158.517 4.384.767 6.58 1.132.297.047.6.08.902.086.71.013 1.39-.62 1.438-1.31.043-.61-.34-1.24-.915-1.426zm6.613-27.357c-.715-.355-1.5-.666-2.285-.764-4.715-.59-9.424-1.308-14.208-1.378-2.72.235-5.446.39-8.154.728-2.018.254-3.89 1.066-5.688 2.022-.085.047-.163.117-.245.176-.53.366-.808 1.17-.512 1.58.338.465.848.566 1.357.402.67-.22 1.316-.51 1.967-.79 1.6-.684 3.26-1.084 5.01-1.072 7.073.043 14.183-.512 21.162 1.21.382.09.805.03 1.205.002.443-.032.89-.54.846-1.093-.032-.363-.192-.893-.453-1.024zm-4.117 21.432c-.373-.144-.765-.24-1.152-.328-1.483-.33-2.957-.68-4.445-.96-3.085-.58-6.174-1.114-9.044-.968-5.1-.114-9.723.954-14.313 2.206-.562.153-1.067.547-1.565.877-.13.085-.236.4-.178.533.11.252.305.563.54.645.802.285 1.58.007 2.37-.202 3.724-1.004 7.512-1.572 11.376-1.63 1.828-.03 3.622.067 5.412.528 2.64.678 5.308 1.253 7.977 1.803.88.18 1.806.18 2.71.192.578.003 1.06-.587 1.14-1.227s-.245-1.244-.832-1.472zm1.707-14.896c-.88-.24-1.77-.43-2.66-.6-.993-.19-1.99-.39-2.992-.48-2.62-.237-5.24-.53-7.867-.592-2.22-.05-4.445.223-6.67.293-2.557.08-4.992.783-7.424 1.447-.854.232-1.644.77-2.4 1.26-.306.198-.53.614-.65.978-.08.24.018.626.18.828.163.2.5.293.78.35.175.035.405-.05.574-.143 2.076-1.135 4.34-1.68 6.65-1.973 2.81-.354 5.605-.99 8.455-.696 3.92.406 7.87.583 11.725 1.496.587.14 1.198.202 1.496.204.978.008 1.574-.418 1.69-.96.116-.544-.284-1.252-.884-1.416zm-7.37 26.833c-4.45-1.045-9.007-1.222-13.526-1.743-.49-.057-1.013.017-1.51.106-3.28.585-6.566 1.173-9.843 1.795-.585.11-1.144.368-1.707.58-.31.12-.37.818-.064 1.056.307.235.667.49 1.027.546.49.07 1.01.006 1.504-.09 2.382-.46 4.754-.965 7.136-1.422 2.61-.498 5.213-.535 7.837.05 3.157.702 6.338 1.278 9.734 1.957-.033 0 .173.032.368-.007.533-.115.973-.45 1.043-.966.046-.333-.15-.84-.41-1.047-.455-.367-1.023-.678-1.59-.81zM55.387 70.56c-.454-.534-.995-1.02-1.575-1.412-3.024-2.05-6.212-3.8-9.54-5.3-1.596-.72-3.244-1.134-4.874-.942-3.264.203-6.392.395-9.52.587-.102.005-.204.017-.302.032-.6.1-.957.786-.77 1.37.31.97.922 1.58 1.96 1.61 1.718.042 3.44-.007 5.162.054 1.205.043 2.413.146 3.605.32 2.534.365 4.89 1.24 7.054 2.627 1.87 1.198 3.748 2.39 5.63 3.57.51.32 1.013.7 1.57.86 1.338.377 2.467-.67 2.217-2.036-.087-.47-.31-.976-.62-1.34zM30.33 42.323c.445.212.945.33 1.435.415 3.093.54 6.174 1.123 9.23 1.854 5.48 1.314 10.583 3.458 15.247 6.635.837.57 1.724 1.07 2.61 1.563.345.192.756.376 1.134.376.363-.003.805-.16 1.072-.4.334-.31.192-.783-.1-1.08-.497-.5-1.032-.972-1.597-1.395-5.36-4.003-11.34-6.66-17.852-8.13-2.763-.626-5.51-1.388-8.885-1.326-.407.03-1.323.05-2.225.173-.207.028-.512.395-.515.61-.008.24.226.597.45.706zM57.014 63.1c-1.222-.9-2.456-1.795-3.755-2.577-2.61-1.58-5.3-2.968-8.406-3.322-1.303-.147-2.584-.484-3.886-.655-3.11-.41-6.222-.774-8.725-1.08-1.536.083-2.445.117-3.346.2-.142.01-.337.23-.378.384-.04.163.02.415.133.543.794.896 1.934 1.116 3.004 1.286 3.2.51 6.41.934 9.62 1.33 3.978.482 7.743 1.51 11.047 3.89.655.476 1.348.902 2.04 1.327.43.267.874.517 1.332.725.734.332 1.646.093 1.867-.452.21-.504.048-1.163-.55-1.602zM33.237 34.728c.78.242 1.557.472 2.352.635 4.393.91 8.595 2.328 12.577 4.43 3.32 1.756 6.74 3.326 9.678 5.73.463.376 1.047.616 1.6.86.535.234 1.205-.082 1.55-.643.318-.517.2-1.022-.19-1.378-.597-.54-1.25-1.02-1.92-1.47-4.238-2.833-8.837-5.002-13.442-7.13-3.424-1.587-7.106-2.365-10.908-2.894-.24 0-.544-.018-.85.005-.516.043-.998.174-1.22.728-.14.36.238.96.774 1.125zM30.02 49.792c1.17.3 2.353.61 3.552.755 5.488.672 10.627 2.434 15.544 4.893 1.9.952 3.752 1.998 5.623 3.004.713.384 1.406.807 2.14 1.152.45.213.952.416 1.44.437.324.015.737-.235.977-.49.322-.337.184-.82-.126-1.09-.53-.455-1.103-.882-1.716-1.215-2.846-1.547-5.707-3.066-8.573-4.576-2.427-1.28-4.993-2.23-7.63-2.944-2.92-.792-5.85-1.643-8.933-1.672-.704.05-1.43.032-2.112.188-.33.075-.736.42-.853.736-.164.446.307.73.667.824z"/></svg>