<svg xmlns="http://www.w3.org/2000/svg" width="128" height="128" viewBox="0 0 128 128"><path d="M113.3 111.672c-.145-.796-.884-1.325-1.674-1.35-2.176-.065-4.414-.308-6.517.086-2.298.433-4.564.57-6.818.28-3.264-.425-6.528-.362-9.794-.39-6.436-.062-12.872-.1-19.31-.157-1.416-.013-2.86.07-4.245-.15-2.824-.446-5.657-.327-8.486-.41-8.185-.24-16.342.56-24.516.627-.746.006-1.514.18-2.224.416-.916.307-1.73.19-2.48-.34-.71-.5-1.43-1.007-2.05-1.606-1.793-1.734-2.698-3.99-3.182-6.344-.795-3.872-.917-7.805-.016-11.683.567-2.444 1.45-4.788 2.898-6.892.747-1.086 1.715-1.632 3.013-1.64.76-.003 1.524.002 2.29.006l17.34.082c1.2.007 2.41-.06 3.6.05 6.09.557 12.195.605 21.333.567 7.106.117 17.246.288 27.38.46 3.49.06 6.982.08 10.47.204 1.585.056 2.42-.333 2.692-2.088.065-.43.244-.838.335-1.265.178-.82-.15-1.504-.7-2.078-.7-.733-1.558-1.198-2.588-1.248-.87-.044-1.745-.054-2.613-.054-9.71 0-19.42.01-29.128 0-1.19 0-2.38-.14-3.57-.216 1.05-.76 2.31-.876 3.52-1.155.632-.15 1.248-.387 1.853-.636 2.767-1.133 5.387-2.67 7.165-5.01 2.096-2.753 3.893-5.784 4.893-9.185.643-2.193 1.403-4.352 2.012-6.55 1.25-4.545 2.094-9.11 1.037-13.86-.9-4.034-2.775-7.316-6.493-9.33-2.047-1.106-4.303-1.572-6.596-1.69-4.406-.225-8.694.353-12.723 2.292-.293.144-.596.27-.9.395-.536.215-1.135-.03-1.243-.605-.384-2.05-1.218-3.94-1.977-5.864-.155-.395-.206-.84-.272-1.267-.075-.505.61-1.092 1.074-.894.893.39 1.76.843 2.645 1.253 2.127.986 4.294.93 6.288-.21 2.382-1.36 4.498-3.09 5.885-5.547.817-1.45 1.357-2.97 1.33-4.657-.01-.692-.193-1.35-.82-1.67-.963-.49-1.963-.927-3.115-.72-5.355.955-10.353 2.632-14.096 6.89-.143.16-.293.324-.465.454-.376.274-.78.382-1.186.06-.426-.336-.79-.8-1.268-1.005-.466-.198-1.105-.304-1.563-.145-1.437.498-2.604 2.32-2.61 3.81-.007.908.263 1.686.825 2.42 1.53 1.983 3.038 3.985 4.495 6.026.352.49.776 1.06.482 1.79-.16.396-.642.32-1.728-.24-.97-.5-1.923-1.042-2.932-1.436-1.94-.762-3.977-1.266-6.062-1.028-2.052.233-4.05.77-5.946 1.672-6.784 3.217-10.23 8.886-11.728 15.956-.197.92-.025 1.957.15 2.908.473 2.56 1.983 4.565 3.658 6.458 4.34 4.896 8.687 9.79 13.032 14.68 1.24 1.398 2.643 2.588 4.328 3.428.384.192.752.418 1.118.647.08.05.17.2.15.264-.027.08-.164.16-.266.17-.645.067-1.29.175-1.937.17-6.87-.07-13.715.25-20.524 1.204-.43.06-.875.085-1.307.055-2.006-.154-3.875.42-5.748 1.012-2.958.936-5.16 2.816-6.64 5.48-.948 1.71-1.76 3.51-2.484 5.327-1.582 3.956-1.56 8.122-1.182 12.252.326 3.503 1.472 6.784 3.573 9.7 2.186 3.028 5.034 4.75 8.81 4.822 2.507.047 5.014.11 7.522.112 20.507.002 41.013-.013 61.52-.013.87 0 1.756.006 2.604.16 3.578.644 7.18.35 10.773.34.315 0 .684-.057.93-.228.34-.233.816-.587.835-.91.062-1.07.05-2.17-.142-3.226zM71.81 17.465c1.443-.74 3.023-1.053 4.608-1.29.15-.025.565.48.525.667-.225 1.027-2.058 2.76-3.103 2.72-.535-.02-1.243-.386-1.914-.695-.27-.125-.608-.42-.634-.667-.022-.233.27-.608.518-.736zM69.016 76.11c-.864.075-1.728.11-2.466.15-.89-.065-1.648-.108-2.403-.182-.207-.02-.41-.128-.613-.195.153-.14.284-.31.454-.416 1.392-.864 2.852-.933 4.36-.34.3.116.593.263.88.417.086.047.2.23.184.25-.115.124-.25.305-.395.32zM67.95 37.368c.074-.14.308-.21.485-.274.046-.02.144.103.216.165-.06.08-.107.173-.176.24-.14.133-.284.26-.427.387-.04-.177-.16-.398-.096-.518zm-11.022 32.02c-.286-.346-.195-1.006-.264-1.527-.015-.105.008-.217.02-.324.15-1.084-.133-1.952-1.226-2.387-.72-.283-.944-.82-.907-1.54.025-.433.034-.87.043-1.306.008-.584-.164-1.126-.753-1.312-1.25-.383-1.594-1.25-1.69-2.468-.12-1.515-.39-1.647-1.84-1.184-.475.15-.854.286-.908-.34-.064-.758-.018-1.524-.008-2.287h.017c0-.76.02-1.524-.002-2.286-.023-.826-.284-1.017-1.244-.978-1.08.045-1.073.045-1.06-.92.006-.425.064-.875-.066-1.26-.085-.255-.442-.532-.715-.58-.27-.04-.7.107-.86.32-.383.517-.667 1.11-.958 1.69-.144.288-.195.626-.337.917-.113.23-.302.433-.46.65-.08-.31-.226-.618-.234-.927-.028-.98.048-1.965-.02-2.94-.038-.51-.144-1.208-.485-1.47-.943-.72-.863-1.654-.93-2.63-.197-2.977.993-5.246 3.276-7.094 3.714-3.008 7.748-3.742 12.194-1.92 1.607.66 3.194 1.376 4.775 2.095.405.18.798.58.498 1-.195.273-.734.405-1.124.416-.42.005-.83-.245-1.255-.322-.62-.11-1.003.275-1.327.737-.285.404-.29.806 0 1.2.74 1.013 1.768 1.653 2.93 1.978 2.61.728 5.178.677 7.522-.896.527-.357 1.01-.83 1.395-1.342.95-1.27.78-2.048-.6-3.275-.497-.444-.433-.82.156-1.172 1.91-1.154 4.04-1.67 6.204-1.86 2.597-.23 5.203-.285 7.8.298 2.42.543 4.154 1.874 5.212 4.05 1.422 2.916 1.845 6.044 1.36 9.23-.73 4.77-2.303 9.28-4.682 13.486-1.075 1.896-2.283 3.713-3.357 5.605-.624 1.09-1.475 1.863-2.585 2.403-.78.38-1.68.66-2.287 1.237-2.007 1.923-4.45 1.404-6.8 1.358-.47-.013-1.08-.37-1.38-.757-1.123-1.454-2.33-1.196-3.76-.51-1.362.657-2.815 1.16-4.26 1.61-1.348.42-1.955.048-2.495-1.31-.12-.297-.11-.675-.292-.915-.163-.217-.522-.425-.775-.403-.496.046-1.045.674-1.456.18zM40.42 91.175c-.76.006-1.524.048-2.275.146-.655.08-1.178.69-1.254 1.326-.07.612.436 1.075 1.276 1.158.325.032.65.048.977.062 4.238.174 8.48.3 12.712.527 4.235.228 8.463.56 12.693.85.216.014.433.045.648.07 4.533.528 9.07 1.095 13.638 1.123 4.57.02 9.16.164 13.71-.18 3.807-.29 7.596-.43 11.4-.38.653.01 1.308-.022 1.955-.076.58-.05 1.053-.534 1.07-1.036.02-.634-.49-1.374-1.09-1.435-.97-.095-1.95-.1-2.926-.148-1.088-.053-2.244.123-3.237-.21-1.606-.54-3.21-.485-4.837-.485-8.382 0-16.765.032-25.147-.01-1.952-.012-3.9-.27-5.845-.428-3.034-.254-6.06-.593-9.096-.755-2.283-.12-4.572-.02-6.86-.02v-.108c-2.504 0-5.006-.013-7.51.005zm.615 10.61c2.944.02 5.88 0 8.82-.015 6.532-.033 13.063-.136 19.592-.09 3.804.025 7.608.347 11.413.423 3.917.077 7.838.032 11.757.007.97-.006 1.97-.032 2.908-.258 1.53-.366 3.038-.37 4.52.038 1.87.512 3.67.122 5.486-.203.613-.11.86-.61.914-1.195.064-.715-.363-1.397-.994-1.46-1.73-.177-3.462-.406-5.196-.417-9.58-.053-19.16-.078-28.74-.04-5.22.02-10.443.205-15.66.275-2.064.03-4.13-.06-6.545-.105-2.903.15-6.16.296-9.418.49-.527.03-1.065.217-1.55.436-.25.114-.53.45-.55.7-.016.257.21.607.433.793.817.675 1.84.62 2.805.624zm69.506-14.49c-.324-.272-.68-.524-1.056-.724-1.2-.64-2.514-.643-3.83-.66-6.322-.07-12.64.11-18.964-.067-6.866-.19-13.744.006-20.614.064-2.398.02-4.8.1-7.196.21-1.303.058-2.603.3-3.9.327-2.93.066-5.857-.154-8.792.05-2.17.15-4.358.022-6.542.036-.764 0-1.536-.014-2.283.116-.355.06-.755.373-.955.69-.21.335.38.924 1.028.99.97.096 1.952.156 2.93.164 5.565.038 11.13.043 16.69.085 1.743.013 3.51-.045 5.223.207 1.96.288 3.906.313 5.867.315 6.328.015 12.653.008 18.98.043 1.742.005 3.516-.064 5.22.228 2.932.493 5.865.427 8.803.368h6.22c1.122 0 2.14-.325 3.054-.973.39-.275.477-1.163.114-1.467zm-71.66 18.84c1.048.746 2.273.618 3.468.62 10.675.02 21.348.038 32.02.083 3.15.013 6.318-.24 9.43.548.413.105.868.062 1.3.062 6.646.02 13.29.05 19.934.05.64 0 1.297-.108 1.917-.278.69-.195 1.012-1.36.522-1.924-.338-.384-.81-.773-1.29-.888-.724-.177-1.51-.15-2.27-.155-5.227-.043-10.457-.085-15.68-.102-2.286-.004-4.56.04-6.827-.403-1.163-.227-2.387-.16-3.584-.165-3.923-.017-7.843-.006-11.765-.006 0-.05-.003-.096-.003-.142-8.375.26-16.752.52-25.128.785-.434.014-.866.07-1.294.143-.21.033-.445.11-.6.243-.237.208-.545.47-.577.738-.027.246.2.63.43.795zm-11.5 1.576c-.04.56.695 1.42 1.378 1.676.604.226 1.275-.016 1.685-.638.235-.363.45-.74.64-1.13 1.08-2.196 1.472-4.526 1.49-6.975-.393-2.9-.735-5.807-1.185-8.693-.25-1.607-.61-3.2-1.05-4.765-.32-1.138-.807-2.236-1.297-3.317-.253-.56-1.11-.825-1.7-.515-.335.173-.726.59-.756.928-.087.965-.114 1.965.038 2.917.414 2.564.94 5.114 1.41 7.67.73 4 .865 7.976-.422 11.903-.104.308-.203.624-.226.94zM84.8 47.285c.81-.807 1.213-1.78 1.173-3.134-.01-.59-.79-1.383-1.43-1.252-1.813.373-2.86 2.545-1.94 4.048.52.846 1.53 1.005 2.198.338zm-5.443-2.108c.203-.048.44-.045.608-.153 1.667-1.053 1.945-2.916.672-4.414-.407-.483-1.33-.45-1.717.03-.715.877-.877 1.95-1.06 3.007-.086.496.914 1.45 1.497 1.528z"/></svg>