<svg xmlns="http://www.w3.org/2000/svg" width="128" height="128" viewBox="0 0 128 128"><path d="M115.34 30.652c-.206-1.564-.673-3.09-.985-4.644-.395-1.968-.753-3.947-1.127-5.922-.208-1.094-1.05-1.74-2.076-1.3-1.14.485-2.275.406-3.433.417-5.1.043-10.197.077-15.296.123-.848.01-1.696.047-2.543.1-5.4.327-10.794.717-16.194.972-3.072.145-6.158.145-9.235.087-6.38-.124-12.71.8-19.082.82-.317 0-.63.086-.946.118-4.66.49-9.33.45-13.988.066-4.676-.39-9.323-.38-13.963.32-.612.092-.95.463-1.087 1-.18.716-.324 1.444-.416 2.177-.118.945-.2 1.9-.243 2.853-.13 2.86-.285 5.722-.326 8.582-.016 1.27.252 2.54.886 3.676.437.78 1.072 1.3 2.03 1.317.848.014 1.697.027 2.54.107.45.043.77.357.768.853-.01 1.803-.064 3.605-.053 5.41.036 6.585.092 13.168.15 19.756.005.743-.02 1.504.127 2.22.584 2.836.448 5.71.587 8.566.088 1.8.315 3.6.32 5.397.008 2.837.644 5.704-.35 8.516-.2.564-.247 1.343-.02 1.88.833 1.946.518 3.966.545 5.96.02 1.505.084 3.015.74 4.364.443.912.32 1.42-.31 2.197-.77.95-.15 2.275 1.042 2.374 1.15.094 2.32-.023 3.475-.112.734-.054 1.456-.266 2.19-.34 2.946-.293 5.86-.954 8.847-.82.416.02.835-.138 1.257-.177 1.37-.134 2.74-.34 4.113-.355 4.674-.045 9.344-.036 14.02-.002 1.16.01 2.322.16 3.47.34 2.533.388 5.05.656 7.563-.13.5-.155 1.05-.208 1.574-.202 4.99.048 9.996-.08 14.97.245 3.81.245 7.62.495 11.348.57 2.427 0 4.764.015 7.098-.007 1.168-.013 2.344-.02 3.5-.17 1.95-.25 2.796-1.193 2.927-3.13.028-.417-.068-.844-.098-1.266-.085-1.267-.222-2.532-.237-3.8-.066-6.373-.053-12.745-.17-19.115-.054-2.964-.473-5.924-.5-8.888-.07-8.92-.03-17.84-.02-26.763 0-.846.038-1.696.093-2.544.03-.476.337-.776.793-.843.52-.077 1.056-.062 1.582-.13 1.02-.136 1.797-.658 2.22-1.604.415-.94.588-2.015 1.85-2.33.24-.063.48-.72.466-1.093-.07-1.905-.14-3.812-.387-5.696zm-11.85 65.75c-.054.545-.656 1.055-1.066 1.532-.606.713-1.504 1.207-1.49 2.344.004.168-.435.472-.69.497-.842.075-1.695.058-2.543.075-1.263.02-2.522-.09-3.74.518-.53.263-1.235.213-1.867.23-1.275.03-2.55.01-3.546.01-5.886-.424-11.49-.848-17.097-1.22-2.118-.14-4.246-.216-6.366-.21-1.824.002-3.616-.228-5.337-.732-1.25-.366-2.485-.442-3.752-.533-2.43-.177-4.855-.41-7.275-.665-.464-.05-.292-.424-.103-.672.386-.498.873-.942 1.166-1.493.17-.316.19-.888.01-1.17-.187-.286-.71-.51-1.073-.49-.617.027-1.3.138-1.813.452-1.08.66-2.148 1.387-3.074 2.248-1.23 1.14-2.545 1.886-4.27 1.74-.9-.08-1.855.438-2.697-.26.475-.698.91-1.42 1.425-2.084.91-1.173 1.893-2.29 2.794-3.47.38-.495.645-1.083.925-1.645.175-.352-.223-.853-.625-.868-1.257-.045-2.23.593-3.13 1.342-1.707 1.424-3.4 2.863-4.768 4.645-.572.745-1.34 1.34-2.034 1.986-.207.195-.377.097-.432-.207-.212-1.17-.27-2.223.64-3.26 1.47-1.667 2.785-3.48 4.118-5.262.63-.844 1.166-1.762 1.712-2.67.135-.23.412-.592-.046-.78-.274-.11-.654-.2-.9-.097-.575.245-1.14.56-1.63.947-.918.724-1.74 1.566-2.673 2.262-.53.395-.937 1.557-1.715.95-.98-.763-1.056-2.67-.384-3.47 1.5-1.785 3.037-3.534 4.54-5.313.405-.48.797-1 1.1-1.55.124-.223.1-.67-.05-.874-.15-.194-.6-.344-.82-.26-.584.224-1.16.527-1.664.896-1.114.81-2.178 1.685-3.273 2.517-.16.125-.53.266-.557.23-.156-.233-.35-.51-.34-.77.108-3.987-.765-3.513 2.794-6.946.535-.514 1.03-1.072 1.508-1.64.64-.76.668-1.417.14-1.98-.742-.785-1.465-.983-2.256-.51-.72.43-1.378.96-2.09 1.402-.1.064-.47-.082-.513-.206-.143-.383-.258-.805-.266-1.215-.053-2.55-.088-5.094-.107-7.643-.02-3.612-.017-7.22-.04-10.832-.01-1.062.06-2.15-.145-3.176-.277-1.39-.345-2.467 1.328-3 .97-.306 1.307-1.348 1.78-2.166.48-.83.892-1.702 1.79-2.165.156-.08.417-.06.575.02.082.042.107.344.05.48-.21.485-.536.93-.686 1.428-.117.388-.093.845-.027 1.25.117.71 1.25 1.114 1.77.617.45-.43.858-.924 1.212-1.438.48-.694.88-1.44 1.344-2.14.063-.09.422-.123.49-.046.112.128.192.402.132.555-.24.583-.565 1.136-.814 1.722-.368.863.098 2.055.91 2.4.762.325 1.83.057 2.278-.628.813-1.234 1.595-2.496 2.39-3.75.466-.732 1.183-.8 1.957-.746.544.04.813.352.584.755-.21.368-.505.697-.67 1.082-.162.38-.267.804-.294 1.216-.035.57.26 1.01.755 1.297.534.307 1.084.213 1.445-.208.894-1.04 1.688-2.168 2.584-3.206.324-.377.81-.633 1.258-.882.14-.08.43-.013.59.09.12.074.238.346.193.468-.266.688-.624 1.344-.863 2.042-.23.697.243 1.557.913 1.83.704.285 1.637.118 2.034-.43.92-1.298 1.777-2.64 2.717-3.924.504-.687 2.144-.85 2.914-.34.1.066.144.426.064.538-.508.677-1.132 1.277-1.558 1.995-.245.417-.283 1.01-.248 1.51.053.77.988 1.167 1.666.864.924-.413 1.534-1.126 2.044-1.94.448-.722.81-1.494 1.244-2.224.572-.96 1.498-1.308 2.72-1.013.105.023.256.363.205.456-.41.737-.933 1.422-1.282 2.188-.205.45-.235 1.025-.213 1.535.02.574.442.94.945 1.18.584.277 1.035-.032 1.42-.392.305-.286.545-.644.773-1 .678-1.073 1.344-2.154 1.993-3.247.292-.49.678-.843 1.248-.845 1.272-.003 2.543.033 3.81.09.102.007.304.36.262.425-.395.626-.864 1.205-1.246 1.838-.344.57-.395 1.205-.02 1.794.09.145.38.307.495.258.376-.16.798-.34 1.047-.644.736-.9 1.412-1.85 2.095-2.794.468-.645 1.052-1.017 1.876-.988.743.027 1.488-.02 2.23 0 1.473.05 1.588.28.905 1.668-.227.47-.5.934-.626 1.436-.133.522.017 1.034.437 1.444.422.407.984.474 1.44.2 1.09-.65 1.547-1.743 1.9-2.848.314-.998.916-1.355 1.887-1.28 1.163.087 2.33.13 3.488.27.856.11 1.083.614.823 1.604-.054.203-.204.395-.207.592-.002.186.08.47.214.54.256.134.597.257.864.2.904-.2 1.36-.97 1.835-1.665.39-.57.873-.854 1.566-.916 1.157-.103 2.304-.3 3.46-.43.45-.048.803.342.65.822-.27.864-.334 1.653.244 2.413.245.324.862.44 1.118.132.462-.56.875-1.167 1.315-1.752.064-.082.17-.13.252-.192.082.144.244.3.23.433-.1.944-.245 1.885-.36 2.827-.16 1.277-.11 2.48.643 3.645.373.58.463 1.402.498 2.126.076 1.483.086 2.96.56 4.4.16.484.08 1.052.086 1.582.06 6.477.146 12.953.15 19.43 0 3.285.076 6.58-.625 9.83-.2.922-.087 1.828.268 2.786.746 2.037.365 4.194.154 6.29zm7.46-63.96c-1.382.692-2.896.29-4.344.498-4.74.675-9.525.533-15.957.407-2.167-.05-5.986-.122-9.805-.235-2.86-.083-5.715-.207-8.576-.34-1.187-.052-2.334.065-3.39.646-.68.373-1.403.445-2.156.405-1.8-.096-3.598-.186-5.397-.285-.53-.03-1.058-.107-1.586-.107-5.41-.006-10.836-.22-16.234.058-6.255.32-12.51.294-18.766.466-.74.02-1.486.032-2.228.02-.843-.015-1.198-.32-1.202-1.104-.01-2.548.004-5.093.03-7.64.003-.47.29-.817.772-.82 1.483 0 2.99-.106 4.448.102 3.066.433 6.14.4 9.213.433 4.666.048 9.318-.12 13.982-.4 7.307-.435 14.635-.597 21.96-.305 2.544.1 5.086.122 7.614-.33.93-.165 1.9-.147 2.857-.163 4.454-.083 8.913-.15 13.368-.224 1.16-.02 2.32.085 3.467-.3.58-.19 1.26-.122 1.893-.127 1.486-.016 2.976-.073 4.46.014 1.445.085 2.95-.4 4.34.363.288 1.444.79 2.883.805 4.33.02 1.572 1.14 3.022.43 4.636zM81.664 61.906c.11-1.62-.197-3.168-.382-4.736-.153-1.303-1.027-2.03-2.36-2.152-.63-.058-1.268-.032-1.904-.03-4.133.003-8.267.022-12.4.016-2.545-.008-5.07-.107-7.605-.453-1.97-.27-4.04-.265-6.01.015-1.22.176-2.19.338-3.248-.445-.736-.545-1.764-.108-2.048.724-.136.395-.22.818-.26 1.234-.32 3.317.582 6.517.958 9.767.02.2.17.384.277.57.736 1.27 1.474 2.49 2.692 3.444.99.773 1.928 1.165 3.164 1.14 2.543-.056 5.088-.017 8.145-.017 3.608-.094 7.752.304 11.835-.638.61-.145 1.264-.114 1.9-.13 1.27-.027 2.55.02 3.813-.066.836-.057 1.694-.197 2.474-.478 1.487-.538 2.44-2.37 1.568-3.595-1.002-1.405-.703-2.797-.605-4.173zm-4.175.3c-.058.754-.44 1.147-1.18 1.188-.528.03-1.06.056-1.585.02-2.765-.185-5.504.156-8.205.592-2.1.336-4.2.448-6.306.592-.946.063-1.885.22-2.827.336 0-.017-.002-.032-.006-.048-2.2.228-4.403.47-6.61.655-.21.016-.596-.295-.656-.52-.264-1.02-.632-2.067-.597-3.094.046-1.442-1.11-2.786-.282-4.256 1.397-.437 2.693.275 4.046.343 6.23.31 12.45.88 18.694.697 1.058-.03 2.118-.02 3.18-.01 2.275.014 2.37.108 2.373 2.236 0 .42-.008.846-.036 1.27z"/></svg>