<svg xmlns="http://www.w3.org/2000/svg" width="128" height="128" viewBox="0 0 128 128"><path d="M121.8 70.22c-.015-.214-.002-.428-.002-.645h-.01c0-1.5.09-3.008-.02-4.5-.194-2.56-.258-5.17-.837-7.65-.9-3.87-2.617-7.373-5-10.666-2.77-3.826-6.11-6.86-9.993-9.41-.538-.355-1.06-.73-1.594-1.088-2.848-1.916-5.605-3.936-8.256-6.128-2.726-2.25-5.74-4.14-9.028-5.518-1.793-.75-3.63-1.273-5.605-1.23-1.61.03-3.22-.07-4.827.03-1.583.108-2.852-.258-4.107-1.34-2.172-1.875-4.762-2.857-7.71-2.635l-4.802.36c-2.667.2-5.314.547-7.965.93-2.172.31-4.192.846-6 2.085-1.09.747-2.053 1.182-3.534.63-2.228-.83-4.63-.475-6.993-.268-7.317.643-13 3.992-17.096 10.056-.596.885-1.044 1.875-1.636 2.765-.41.61-.902 1.183-1.436 1.687-1.328 1.248-2.745 2.4-4.034 3.685-.67.664-1.2 1.49-1.702 2.3-2.38 3.848-2.976 8.206-3.467 12.573-.082.71.163 1.474.352 2.19.974 3.74 3.655 6.495 5.62 9.663.16.253.495.407.77.57 1.165.667 1.554 1.68 1.442 2.98-.153 1.744.66 3.08 1.86 4.26 1.08 1.064 2.22 2.048 3.605 2.665 2.052.918 4.092 1.905 6.225 2.578 2.807.885 5.32 2.235 7.645 3.995.683.518 1.355 1.05 2.06 1.54 2.023 1.41 4.014 2.88 6.32 3.818 3.61 1.466 7.25 1.703 10.93.23 1.476-.59 1.607-.52 2.06.87.23.715.416 1.443.683 2.144.655 1.734 1.6 3.296 3.09 4.427 2.302 1.757 4.592 3.53 6.994 5.14 4.754 3.19 10.112 4.63 15.77 4.85 3.2.13 6.433.287 9.62-.37.73-.15 1.5-.173 2.245-.13 2.286.145 4.463-.4 6.656-.9 2.242-.51 4.22-1.53 6.016-2.94 1.6-1.26 3.232-2.482 4.777-3.81 1.62-1.396 3.157-2.893 4.715-4.362.228-.213.407-.507.537-.794.75-1.653 1.527-3.3 2.196-4.99.47-1.18.945-2.393.47-3.73-.09-.245.108-.617.228-.904 2.052-4.796 3.14-9.77 2.763-15.014zm-11.143 6.748c-1.43-.323-3.005-.203-4.486-.035-2.627.296-4.556 1.71-5.75 4.11-.453.916-.493 1.85-.277 2.82.163.733.83 1.35 1.568 1.42.81.08 1.484-.172 1.916-.904.056-.094.135-.18.158-.284.437-2.014 1.91-2.382 3.654-2.293 1.605.082 3.214.17 4.818.283.43.032.69.56.504.956-.943 2.043-1.98 4.045-2.814 6.133-1.412 3.53-3.808 6.197-6.99 8.16-1.728 1.067-3.584 1.926-5.402 2.834-.47.234-1.013.375-1.534.432-2.662.29-5.33.542-7.994.804-2.624.22-5.13-.472-7.633-1.024-1.984-.437-3.917-1.103-5.873-1.666-1.248-.36-2.363-.877-3.26-1.925-.605-.712-1.47-1.224-2.274-1.75-.988-.64-2.033-1.193-3.044-1.8-.422-.257-.41-.79 0-.978 1.37-.623 2.763-1.22 4.288-1.275 1.822-.067 3.645-.064 5.47-.066 1.225-.003 2.26.61 3.328 1.1 2.485 1.134 5.088 1.707 7.813 1.446 2.807-.27 5.12-1.547 6.83-3.784.445-.573.673-1.33.918-2.03.303-.865-.512-1.726-1.457-1.52-.73.157-1.444.405-2.135.688s-1.358.637-2.02.995c-1.567.86-3.174.977-4.957.702-3.144-.48-3.083-1.394-2.443-4.238.174-.783.85-1.47 1.344-2.157.375-.523.86-.96 1.236-1.478.33-.45.445-.977.143-1.502-.287-.496-1.097-.84-1.667-.74-1.216.21-2.197.8-2.948 1.79-1.123 1.477-1.865 3.103-2.146 4.956-.156 1.005-.326 1.103-1.214 1.122-2.037.043-4.077.077-6.114.11-1.642.03-3.15.547-4.637 1.188-1.237.54-2.008 1.58-2.89 2.51-.313.334-.756.418-1.148.096-.494-.407-.956-.856-1.434-1.286-1.84-1.666-2.463-3.656-1.79-6.096.38-1.38-.045-2.355-.924-2.74-1.213-.534-2.516-.04-3.28 1.226-.633 1.05-.748 2.24-.82 3.4-.037.644.107 1.283-.354 1.82-.58.68-1.338 1.124-2.206 1.212-1.824.18-3.633.184-5.365-.608-1.282-.59-2.515-1.25-3.453-2.307-.993-1.12-1.9-2.317-2.81-3.506-.644-.84-1.088-1.815-2.17-2.294-.556-.245-.995-.808-1.415-1.29-.835-.952-.75-2.417.242-3.137 1.034-.758 2.126-1.455 3.256-2.064 2.275-1.222 4.587-.675 6.86.053.51.16.965.47 1.46.677 3.11 1.32 6.24 1.383 9.36.046 1.083-.463 2.11-1.05 3.182-1.547 3.02-1.397 4.667-3.997 6.037-6.843.14-.286.188-.614.29-.917.236-.68.078-1.276-.404-1.774-.373-.383-1.227-.4-1.792.038-1.188.917-2.36 1.858-3.485 2.85-1.544 1.362-3.24 2.47-5.106 3.323-.483.222-.977.515-1.49.577-3.274.39-3.993.256-3.15-3.27.122-.517.3-1.03.53-1.512.384-.798.95-1.38 1.886-1.596.717-.167 1.427-.457 2.07-.818.933-.518.96-1.702.11-2.42-.242-.204-.502-.417-.793-.528-1.974-.765-4.56-.136-5.855 1.495-1.288 1.62-2.2 3.403-2.293 5.55-.047 1.077-.32 1.223-1.432 1.218-.856 0-1.714-.01-2.573-.03-2.206-.043-4.245.58-6.13 1.677-1.015.59-1.95 1.32-2.943 1.955-1.62 1.034-2.694 2.388-2.912 4.38-.1.896-.555 1.19-1.282 1.04-2.435-.504-4.76-1.263-6.65-2.997-.857-.782-1.25-1.66-1.024-2.856.55-2.93.453-6 1.907-8.734.956-1.794 1.82-3.646 2.916-5.35.56-.87 1.504-1.51 2.334-2.18.31-.24.805-.402 1.192-.367 2.02.192 4.037.43 6.042.72.51.08.965.48 1.476.623 1.438.4 2.875.877 4.343 1.075 3.4.454 6.322-.74 8.874-2.933 1.39-1.195 2.67-2.505 3.58-4.11 1.154-2.047 2.796-3.498 5.006-4.306.298-.11.603-.23.867-.405.48-.315.743-.79.686-1.36-.06-.58-.47-.92-.977-1.177-.813-.405-1.664-.42-2.51-.217-1.366.325-2.678.815-3.788 1.698-1.343 1.067-2.65 2.173-3.948 3.292-.65.558-1.248 1.175-1.87 1.77-2.325 2.224-5.045 2.634-8.043 1.732-1.13-.342-2.277-.634-3.366-1.073-.912-.37-1.827-.587-2.8-.654-.518-.036-1.195-.045-1.273-.697-.034-.29.385-.706.687-.956 1.842-1.542 3.867-2.668 6.334-2.886.844-.076 1.697-.322 2.48-.65.672-.283 1.303-.73 1.856-1.22.65-.57.467-1.74-.274-2.243-.92-.625-1.923-.93-3.045-.72-1.156.218-2.325.394-3.47.67-3.704.892-6.572 3.054-8.897 5.998-.74.942-1.158 2.044-1.233 3.26-.035.598-.4 1.1-.917 1.203-1.618.32-2.297 1.86-3.566 2.622-.325.194-.496.675-.698 1.045-1.03 1.882-2.037 3.762-2.685 5.83-.41 1.305-1.447 1.522-2.49.574-.792-.715-1.49-1.536-2.217-2.32-.145-.158-.25-.35-.352-.537-.923-1.667-.837-6.837.177-8.445.917-1.448 1.893-2.857 2.824-4.294.48-.747 1.12-1.29 1.917-1.66.29-.135.587-.278.896-.35 2.62-.632 2.808-2.88 3.305-4.928-.49-2.915 1.174-4.643 3.4-5.997 1.28-.774 2.624-1.463 3.98-2.093 1.47-.677 3.022-1.09 4.662-1.104 1.178-.01 2.357-.032 3.538-.06 1.74-.044 3.44.138 4.99.997.817.45 1.613.49 2.468.19 1.717-.596 3.475-1.098 5.156-1.787 2.426-.998 4.92-1.47 7.53-1.365 1.61.06 3.218.11 4.826.17.32.017.65.006.96.073 1.504.335 2.767 1.105 3.838 2.2-.01 1.38-.06 2.77-.66 4.042-.41.87-1 1.66-1.382 2.538-.49 1.125-.224 2.383.49 2.976.83.697 2.288.63 3.227-.338 1.83-1.88 3.225-4.003 3.18-6.788-.01-.747.005-1.498.1-2.236.08-.61.79-1.096 1.415-1.093.213 0 .437-.024.643.017 3.05.63 6.033 1.478 8.848 2.827.732.352 1.38.867 2.07 1.308-.737.143-1.482.24-2.204.428-.827.22-1.646.487-2.443.79-.497.19-.98.447-1.415.748-.78.54-1.2 1.547-1.006 2.213.253.866 1.126 1.365 2.335 1.285.533-.037 1.07-.114 1.584-.25 2.29-.597 4.62-.883 6.98-1.003.836-.044 1.705-.202 2.483-.505.968-.378 1.63-.128 2.27.59.352.395.736.825 1.198 1.038 2.015.925 3.38 2.592 4.908 4.087.835.825 1.71 1.613 2.59 2.39.374.33 1.023.52.8 1.124-.063.18-.77.196-1.18.17-.53-.03-1.063-.138-1.578-.276-2.176-.584-4.273-.03-6.332.53-.775.208-1.46.86-2.112 1.396-.613.51-.814 1.337-.523 1.71.422.525.957.273 1.472.184 2.914-.485 5.788-.025 8.62.54 1.595.322 3.174.55 4.78.47 1.093-.063 1.865.27 2.332 1.283 1.026 2.24 2.122 4.45 3.09 6.71.768 1.797.846 3.755.994 5.675.054.718-.362 1.195-.935 1.57-1.347.873-2.816 1.084-4.31.58-1.724-.583-3.404-1.294-5.103-1.942-.395-.154-.787-.326-1.198-.412-.158-.03-.416.11-.53.25-.11.138-.193.424-.122.564.334.668.757 1.29 1.085 1.966 1.28 2.62 3.454 3.99 6.23 4.597.964.214 1.893.31 2.857.07.518-.13 1.045-.235 1.576-.32.584-.09.975.256 1.003.913.04.86.066 1.716.05 2.575-.05 3.19.605 4.112-3.636 3.15zM94.424 54.83c-.998-.015-1.875.315-2.728.825-1.84 1.106-3.755 2.05-5.808 2.72-.966.316-1.74.06-2.298-.655-.856-1.096-1.602-2.275-2.368-3.442-.165-.252-.307-.61-.272-.894.277-2.08.73-4.004 3.157-4.727.883-.262 1.685-.892 2.443-1.46.67-.51.474-1.587-.288-1.82-3.35-1.027-6.138.317-7.4 2.344-.45.725-.787 1.523-1.17 2.288-.447.89-.607 1.016-1.452.834-4.018-.852-7.354.506-10.278 3.166-.472.427-.896.954-.7 1.682.114.43.894.636 1.712.444.416-.1.808-.306 1.225-.38 1.475-.247 2.956-.462 4.45-.69 1.395.144 2.68.49 3.76 1.544 1.412 1.38 2.125 3.21 3.28 4.747-.14 1.04-.338 2.076-.4 3.122-.054.85-.005 1.717.11 2.562.112.874-.177 1.453-.966 1.797-1.99.87-3.733 2.112-5.24 3.66-.51.522-.928 1.177-1.23 1.844-.138.307 0 .838.184 1.178.272.512.83.732 1.378.55.597-.203 1.144-.55 1.702-.856 1.69-.925 3.364-1.873 5.06-2.787.516-.282 1.045-.203 1.456.24.885.947 1.884 1.704 3.058 2.293 1.376.687 2.48.292 3.563-.54.612-.476.79-1.432.28-2.022-.626-.717-1.324-1.394-2.086-1.963-1.297-.963-2-2.196-2.048-3.807-.018-.642-.05-1.285-.045-1.93.002-.49.288-.77.77-.852 3.012-.495 5.697-1.818 8.342-3.256 1.052-.576 1.935-1.338 2.64-2.31.47-.653.647-1.36.245-2.106-.43-.805-1.08-1.323-2.042-1.337z"/></svg>