<svg xmlns="http://www.w3.org/2000/svg" width="128" height="128" viewBox="0 0 128 128"><path d="M120.98 64.73c-.327-4.398-.803-8.786-1.092-13.188-.174-2.667-.188-5.355-.702-7.977-.58-2.955-1.242-5.906-2.098-8.79-.805-2.715-2.588-4.692-5.46-5.347-1.11-.254-2.294-.243-3.446-.237-.804.007-1.606.29-2.41.307-4.654.107-9.307.173-13.958.25-.657.01-1.104-.26-1.224-.95-.2-1.16-.87-1.85-2.03-2.1-.45-.098-.912-.245-1.3-.48-.268-.162-.556-.5-.592-.79-.09-.803-.105-1.626-.064-2.437.088-1.776-.397-3.417-.907-5.1-.674-2.22-2.205-3.168-4.3-3.48-.8-.12-1.623-.085-2.436-.085-3.72-.008-7.443-.004-12.944-.004-4.147-.073-10.067-.28-15.953.747-2.288.398-4.614.58-6.75 1.575-.62.29-1.283.636-1.717 1.137-1.777 2.03-3.416 4.15-2.662 7.15.08.323.075.72-.04 1.03-.097.267-.374.52-.636.657-.16.085-.44-.07-.67-.094-2.75-.3-3.593.276-4.187 2.863-.386 1.68-.386 1.69-1.92 1.7-1.28.01-2.56.03-3.84-.02-3.98-.152-7.87.423-11.756 1.212-1.333.27-2.41.764-3.25 1.816-.287.362-.524.833-.9 1.04-1.668.915-1.974 2.453-2.086 4.14-.16 2.435-.435 4.863-.527 7.3-.08 2.085-.113 4.17.268 6.258.395 2.165.637 4.37.76 6.566.298 5.338.504 10.682.712 16.02.07 1.934.714 3.4 2.74 3.937.53.143.725.56.753 1.042.04.697.02 1.397.016 2.094-.026 6.515-.048 13.03-.08 19.547-.01 1.853.062 3.7-.42 5.54-.23.874-.156 1.852-.096 2.775.104 1.583.98 2.567 2.523 2.927.448.104.922.165 1.38.16 6.148-.047 12.292.33 18.384-1.186 3.24-.81 6.625-1.098 10.03-1.03 6.046.122 12.098.048 18.148.023 1.508-.006 3.018-.114 4.524-.213 1.504-.1 3-.283 4.51-.363 4.99-.27 9.98-.51 14.97-.767.116-.007.234-.007.346-.033 2.517-.587 5.088-.474 7.64-.512 4.767-.068 9.535-.094 14.308-.142.928-.008 1.865.02 2.788-.064 2-.185 3.428-1.44 3.846-3.438.26-1.245.498-2.52.518-3.787.067-4.07.036-8.143.025-12.213-.002-.58-.05-1.165-.143-1.736-.7-4.387-.387-8.82-.594-13.227-.05-1.1.395-2.075 1.623-2.387 1.624-.413 2.213-1.672 2.354-3.115.146-1.493.134-3.016.02-4.514zM44.668 24.883c.103-.754.523-1.248 1.208-1.562.966-.442 1.97-.62 3.03-.692 1.38-.093 2.747-.363 4.124-.496 1.265-.12 2.54-.215 3.812-.23 3.016-.038 6.008-.23 9.018-.53 3.797-.38 7.648-.223 11.477-.283.576-.01 1.19-.054 1.717.122.37.122.813.555.885.913.153.786.123 1.614.115 2.424-.013 1.492-.088 1.565-1.476 1.81-.57.1-1.138.205-1.71.303-1.253.216-2.18.8-2.377 2.16-.145 1.006-.79 1.334-1.7 1.36-2.205.062-4.41.13-6.614.197-4.054.123-8.126-.198-12.154.523-.45.08-.928.01-1.392.01v-.002c-.463 0-.93.03-1.392-.005-.475-.034-.907-.183-1.06-.72-.03-.112-.07-.22-.104-.332-.454-1.553-1.526-2.168-3.105-2.268-2.24-.143-2.598-.633-2.31-2.7zm-17.746 82.36c-.027.217-.504.515-.785.532-1.042.064-2.09.026-3.136.026-3.962.08-3.494.406-3.517-3.487-.003-.584-.01-1.165.006-1.746.04-1.532.41-1.85 1.81-1.9 2.185-.074 3.795.976 5.1 2.557.98 1.19.7 2.647.52 4.02zm67.838-5.084c-.206 1.352-.715 1.556-1.786 1.556-2.096.01-4.192-.017-6.234.576-.22.065-.46.054-.693.06-8.6.174-17.173 1.12-25.79.943-4.304-.088-8.61-.08-12.917.008-4.533.097-9.04.545-13.477 1.567-.76.177-1.076-.08-1.183-.81-.184-1.26-.31-2.533-.602-3.766-.183-.77-.47-1.633-.992-2.192-2.427-2.584-5.115-4.763-8.928-4.804-.582-.006-1.166-.003-1.743-.06-.5-.05-.875-.333-.89-.877-.054-1.977-.118-3.954-.113-5.932.01-2.693-.332-5.338-1.11-7.91-.392-1.294-.233-1.84 1.472-1.87 2.56-.046 5.118-.107 7.678-.14 1.628-.022 3.26-.004 4.89-.004 0-.04.002-.08.003-.117 5.925.237 11.85.487 17.775.693 1.195.043 1.877.45 2.283 1.675.897 2.717 2.934 4.076 5.76 4.31.923.075 1.842.24 2.767.254 2.675.042 5.352.052 8.03.03 3.3-.03 6.053-1.504 8.55-3.486.6-.48.938-1.306 1.358-1.993.397-.646.986-.974 1.696-1.1.458-.08.925-.115 1.388-.132 5.124-.197 10.147-1.166 15.194-1.952 4.14-.644 8.302-1.045 12.498-.992.675.007 1.184.4 1.22.963.274 4.523.537 9.045.793 13.568.014.23-.028.468-.09.69-.155.528-.553.727-1.057.6-1.87-.47-3.7-.13-5.525.266-.785.175-1.556.44-2.327.69-4.7 1.545-7.168 4.953-7.893 9.693zM58.635 69.442c1.392-.066 2.787-.055 4.18-.11 1.853-.068 3.708-.17 5.56-.258.463-.02.93-.103 1.383-.056 2.402.25 3.24 1.035 3.383 3.497.287 4.898.788 4.45-3.916 5.593-2.574.624-5.246.844-7.874 1.244-2.934.003-2.81-.424-3.337-2.613-.46-1.902-.63-3.88-.82-5.84-.108-1.09.25-1.393 1.442-1.452zm53.017 32.808c-.043.868-.422 1.268-1.287 1.28-1.618.03-3.235.01-4.853.01v.066c-1.155 0-2.313-.017-3.467.003-2.13.036-2.266-.193-1.643-2.03 1.137-3.36 3.88-4.315 6.958-4.82.226-.034.463-.014.693-.02 3.165-.085 3.605.33 3.618 3.43.004.694.013 1.388-.017 2.08zm.548-33.53c-2.093.055-4.188.07-6.28.13-4.775.126-9.47.894-14.17 1.675-3.668.61-7.36 1.04-11.088 1.05-.89.005-1.26-.255-1.5-1.123-.308-1.114-.61-2.24-.82-3.377-.413-2.245-1.945-3.342-3.954-3.94-1.576-.468-3.202-.594-4.834-.404-1.155.13-2.357.187-3.433.57-1.81.653-3.652.613-5.51.64-2.44.033-4.88.08-7.29.577-1.474.306-2.584 1.064-2.98 2.584-.14.553-.144 1.153-.123 1.73.02.692.14 1.382.22 2.075.05.46-.3.63-.62.64-3.704.114-7.407.23-11.105-.075-.682-.056-1.364-.283-2.015-.52-.3-.11-.518-.45-.27-.83.954-1.46 1.925-2.908 2.863-4.374.344-.54.316-1.115-.107-1.61-.476-.56-1.258-.733-1.883-.545-1.075.32-1.778 1.088-2.39 1.943-1.08 1.515-2.113 3.06-3.173 4.59-.437.63-1.037.928-1.8.71-.157-.046-.4-.34-.365-.408.144-.31.37-.58.577-.856 1.404-1.853 2.82-3.69 4.21-5.556.346-.462.665-.963.88-1.493.235-.575.053-1.135-.395-1.59-.46-.46-1.074-.624-1.584-.315-.785.475-1.565 1.035-2.17 1.712-1.78 1.995-3.5 4.046-5.19 6.118-.422.523-.69 1.195-.94 1.832-.53 1.357-.507 1.368-1.862 1.42-.464.017-.93.027-1.395.02-.693-.014-1.105-.593-.796-1.122.232-.4.496-.782.742-1.178 2.087-3.354 4.183-6.702 6.26-10.066.36-.59.685-1.22.902-1.876.08-.238-.125-.7-.346-.867-.228-.173-.683-.235-.954-.13-1.24.478-2.093 1.468-2.866 2.482-1.338 1.754-2.592 3.574-3.885 5.364-.815 1.13-1.626 2.26-2.47 3.366-.116.153-.436.27-.607.22-.168-.05-.34-.32-.384-.52-.44-1.996-.304-3.892.74-5.73 1.834-3.23 3.47-6.58 5.73-9.558.27-.355.522-.815.55-1.242.022-.407-.18-.896-.434-1.233-.31-.416-.883-.392-1.263-.122-.845.603-1.628 1.29-2.426 1.958-.478.4-.722 1.118-1.466 1.155-.007.032-.02.06-.025.092-.03.028-.066.053-.1.08 0 .156 0 .31-.035.456-.04.155-.17.285-.257.425-.02-.18-.11-.393-.045-.54.06-.135.203-.236.336-.34 0-.053 0-.107.002-.162.045.002.08-.006.123-.008.417-1.825 1.68-3.212 2.503-4.822.262-.515.616-.992.81-1.528.214-.592.03-1.216-.5-1.53-.348-.206-.974-.326-1.277-.147-.782.46-1.498 1.06-2.158 1.694-.495.476-.844 1.1-1.297 1.62-.116.135-.39.146-.596.178-.03.004-.137-.2-.13-.305.03-.69.09-1.382.127-2.074.05-.924.348-1.934.076-2.755-.602-1.83.478-2.574 1.736-3.3 1.757-1.012 3.73-1.364 5.692-1.44 3.13-.116 6.256-.1 9.4.21 3.692.37 7.41.387 11.13-.127 2.29-.315 4.64-.203 6.964-.26 2.208-.053 4.42.11 6.596-.45.44-.113.926-.06 1.39-.066 8.374-.124 16.748-.25 25.12-.357 2.444-.03 4.87-.137 7.308-.362 3.234-.3 6.507-.22 9.76-.32 2.432-.075 4.878.205 7.3-.314.918-.197 1.604.267 1.872 1.17.56 1.89 1.18 3.772 1.562 5.7.36 1.813.604 3.68.63 5.527.063 4.898.9 9.716 1.23 14.583.08 1.155.202 2.315.2 3.472-.003 1.79-.29 2.07-1.973 2.112zM95.08 47.855c-.332-.056-.68 0-1.022.01l-.72.718.123-.127c-.036.004-.064.02-.1.027-.005.032-.02.06-.02.096l-.694.693c.06-.443.294-.71.715-.79.067-.41.286-.667.716-.71.184-.622.44-1.24.495-1.874.033-.4-.185-.917-.466-1.222-.315-.34-.83-.34-1.275-.064-2.885 1.812-5.18 4.266-7.395 6.802-.213.243-.29.623-.38.955-.244.924.56 1.92 1.532 1.845.443-.035.95-.14 1.29-.397.71-.533 1.34-1.176 1.996-1.78l.776-.77-.767.762-.008.008-.01.01.074-.07c-.1.45-.278.897-.283 1.35-.005.417.056.938.303 1.234.394.47 1.055.523 1.588.237 1.978-1.063 3.456-2.66 4.587-4.58.163-.274.16-.66.186-1 .055-.683-.422-1.227-1.235-1.363zm-1.02.01c.035-.036.07-.074.108-.11-.035 0-.06.012-.094.016-.008.03-.02.06-.028.092h.013zM80.97 90.476c-.545.1-1.185.305-1.537.69-1.626 1.775-3.206 3.597-4.704 5.482-.298.373-.286 1.116-.18 1.643.072.36.552.64.89.996.624-.31 1.203-.477 1.62-.83 2.215-1.872 3.834-4.27 5.592-6.54.144-.19-.128-.918-.41-1.157-.3-.255-.867-.36-1.274-.285zm7.433-1.1c-.125-.087-.467-.044-.597.07-1.328 1.127-2.475 2.41-3.2 4.014-.135.295-.174.662-.158.99.008.198.168.455.335.556.162.1.48.12.634.023 1.72-1.086 2.73-2.74 3.56-4.53.044-.097.005-.227.005-.468-.143-.17-.32-.47-.576-.656z"/></svg>