<svg xmlns="http://www.w3.org/2000/svg" width="128" height="128" viewBox="0 0 128 128"><path d="M109.832 74.112c-.046-7.936-.013-15.874-.013-23.808h-.166V24.24c0-.32.02-.643-.003-.963-.12-1.672-1.153-2.74-2.855-2.917-.637-.064-1.284-.056-1.928-.053-6.22.05-12.44.058-18.658.18-3.318.065-6.628.364-9.94.507-8.57.367-17.154.01-25.72.57-4.27.28-8.534.766-12.833.696-4.072-.067-8.15.078-12.224.188-.95.026-1.925.176-2.827.46-1.075.34-1.915 1.134-2.024 2.29-.235 2.43-.74 4.82-.558 7.314.24 3.303.286 6.618.238 9.94-.142 9.974-.083 19.95-.087 29.924-.002 1.07.096 2.14.177 3.207.304 3.95.693 7.893.91 11.845.148 2.78.067 5.576.078 8.365.01 1.286-.058 2.55-.42 3.816-.26.91-.315 1.907-.288 2.863.05 1.743 1.397 2.955 3.17 2.94.532-.005 1.092-.04 1.582-.22.747-.268 1.44-.152 2.192-.074 1.92.19 3.85.287 5.777.327 10.29.2 20.574-.092 30.866.412 7.49.365 15.01.122 22.517.17 1.178.007 2.362.034 3.526.19 1.267.17 2.507.55 3.77.747 3.19.506 6.412.474 9.625.338 1.618-.068 2.85-.83 3.557-2.344.227-.482.42-1.034.787-1.39 1.365-1.326 1.515-2.96 1.506-4.735-.01-2.248.142-4.498.25-6.746.073-1.494.293-2.988.28-4.48-.05-4.5-.238-9.002-.264-13.5zm-6.18-7.24c-.302 7.822-.194 15.642-.333 23.46-.05 2.773-.446 5.544-.754 8.31-.032.308-.5.788-.804.817-2.987.28-6.016.635-8.964-.03-1.808-.407-3.59-.55-5.41-.55-6.218 0-12.436.02-18.655.004-2.997-.007-5.995.066-8.98-.398-1.05-.162-2.14-.072-3.212-.072-6.97-.002-13.94.005-20.906.003-.858 0-1.717.002-2.565-.085-.25-.025-.627-.326-.675-.555-.27-1.36-.494-2.73-.675-4.11-.208-1.588-.4-3.182-.525-4.78-.337-4.376-.955-8.73-.827-13.14.098-3.32.02-6.646.02-9.97h-.063V50.34c0-.427.005-.858.036-1.284.045-.58.418-.943 1.064-.95 3.752-.03 7.506.003 11.253-.082 2.14-.048 4.27-.29 6.405-.425.963-.064 1.932-.1 2.895-.105 6.645-.01 13.294-.114 19.94.023 4.313.088 8.533-.592 12.794-.99 1.06-.102 2.125-.284 3.19-.29 3.536-.03 7.076-.036 10.612.03 1.49.03 2.983.24 4.468.413.47.054.73.42.747.897.028.64.034 1.282.032 1.925-.02 5.79.113 11.584-.11 17.365zm.175-28.712c-.013.58-.42.964-1.02 1-2.35.137-4.7.29-7.05.37-2.037.073-4.077.14-6.112.067-3.984-.146-7.9.427-11.83.928-1.375.176-2.762.356-4.144.377-3.75.05-7.5.018-11.25.018v.162c-3.86 0-7.718-.064-11.578.02-2.56.06-5.12.42-7.684.486-3.856.102-7.716.08-11.575.082-1.42.002-1.628-.19-1.676-1.694-.102-3.325-.43-6.62-1.01-9.894-.15-.836.158-1.212.97-1.254.643-.034 1.286-.03 1.932-.04 3.642-.057 7.29-.078 10.927-.187 1.816-.05 3.627-.33 5.442-.39 2.893-.1 5.787-.13 8.682-.146 5.89-.036 11.788-.02 17.682-.087 1.923-.02 3.842-.247 5.762-.357 1.175-.068 2.354-.127 3.533-.13 5.787-.007 11.575.005 17.364.018.533 0 1.072.028 1.603.08.766.07 1.155.463 1.152 1.25-.024 3.106-.065 6.213-.12 9.32zm-60.97 34.65c.6.865.32 2.15 1.322 2.822.432.294.867.683 1.357.798 1.035.242 2.1.446 3.157.464 3.424.053 6.853-.02 10.28.032 1.21.02 2.34-.24 3.457-.597 1.79-.576 2.61-1.64 2.664-3.54.056-2.03.013-4.067.013-6.1h.096c0-2.034-.02-4.07.003-6.106.015-1.103-.27-2.126-.775-3.08-.53-1-1.345-1.663-2.524-1.74-.963-.066-1.928-.167-2.89-.134-2.59.09-5.12-.21-7.604-.943-.82-.243-1.662-.41-2.504-.555-2.81-.482-5.535-.27-8.16.93-1.317.6-1.924 1.53-1.887 3.02.086 3.423.054 6.852.11 10.278.014.843.11 1.707.32 2.52.13.484.47.975.85 1.316.76.69 1.726.752 2.71.61zm15.66-10.17c.01.1.04.206.015.3-.015.056-.11.093-.17.14-.042-.092-.138-.21-.108-.268.04-.08.173-.117.264-.17zm-8.838-.94l.006-.15c.062-.02.123-.045.18-.068l.14-.23c-.02.07-.013.165-.056.2-.02.017-.052.02-.08.03l-.093.157c-.037.016-.064.04-.096.06-.032.58-.062 1.16-.1 1.74-.007.1-.076.194-.115.29-.067-.147-.197-.294-.192-.437.013-.563-.203-1.21.408-1.593zm42.433 21.703c-.32-.032-.642-.053-.96-.037-3.09.16-6.216-.267-9.27.576-.604.164-1.277.09-1.92.09-10.926-.01-21.852-.03-32.774-.032-1.393 0-2.79.015-4.17.153-1.058.107-2.098.4-3.138.65-.163.04-.4.29-.392.438.007.298.07.68.263.87.804.78 1.87 1.045 2.935 1.135 2.664.23 5.33.507 8 .54 6.425.076 12.853.022 19.282.022v.155h19.92c.748 0 1.505.05 2.246-.037 1.202-.142 2.08-1.263 2.035-2.48-.043-1.158-.793-1.908-2.057-2.038zm.196 8.59c-1.817-.097-3.64-.097-5.46-.1-6.22-.01-12.437-.004-18.654-.004-.002.045-.002.09-.002.137-6.86-.072-13.722-.15-20.584-.21-1.282-.01-2.578-.03-3.853.104-.83.09-1.653.39-2.435.708-.736.298-.745 1.367-.043 1.838.346.233.734.485 1.13.555 1.266.214 2.54.435 3.817.487 3.213.13 6.43.227 9.643.24 7.83.032 15.657.025 23.482-.006 4.073-.014 8.146-.11 12.216-.19.52-.01 1.064-.1 1.552-.276 1.04-.378 1.4-1.905.597-2.658-.357-.338-.922-.604-1.408-.628zm-20.87-29.68c1.023.25 2.093.398 3.146.428 2.24.065 4.48.02 6.722.02v-.013c2.453 0 4.91-.02 7.36.008 1.472.016 2.72-.48 3.742-1.517.83-.844.702-2.446-.245-3.128-.98-.704-2.065-1.016-3.298-.997-3.733.06-7.467-.014-11.2.08-2.018.05-4.036.296-6.045.534-1.29.154-2.368 1.215-2.42 2.21-.052.96.882 2.045 2.24 2.376zM87.55 78.39c.85-.012 1.708-.063 2.548-.182.882-.128 1.474-.88 1.53-1.797.06-.942-.404-1.763-1.296-1.946-1.246-.256-2.517-.416-3.787-.518-2.55-.21-5.105-.363-7.66-.52-2.24-.138-4.473-.138-6.696.278-.777.146-1.406.46-1.927 1.038-.878.972-.685 2.276.418 3.028.657.448 1.377.54 2.13.538h8.013v.093c2.24-.002 4.485.014 6.726-.01zm-11.32-7.282c3.74.083 7.484.085 11.227.102.53.003 1.075-.02 1.59-.135.88-.192 1.713-1.2 1.797-2.063.08-.88-.494-2.02-1.355-2.357-.68-.267-1.436-.427-2.16-.448-2.03-.06-4.064-.02-6.095-.02v.005c-2.14 0-4.28-.038-6.417.02-.724.022-1.492.187-2.145.49-.832.386-1.22 1.163-1.144 2.116.07.91.587 1.602 1.536 1.813 1.042.233 2.105.455 3.163.478zm-1.243-40.243c-2.554-1.157-4.97-.03-5.745 2.67-.112.388-.125.853-.03 1.248.473 1.952 2.057 2.925 4.07 2.547.52-.098 1.087-.123 1.544-.352.452-.22.94-.587 1.156-1.02.328-.644.433-1.402.632-2.1-.245-.757-.405-1.49-.72-2.15-.165-.352-.545-.68-.908-.843zm25.02-1.513c-1.855-.226-3.22.433-3.71 1.792-.036.1-.074.203-.09.305-.163 1.065-.176 2.12.244 3.14.608 1.47 1.63 2.09 3.28 1.973 1.476-.1 2.52-1.06 2.806-2.596.075-.418.1-.847.128-1.088 0-.396.01-.61-.002-.82-.09-1.485-1.11-2.52-2.653-2.71zm-13.734.715c-1.557.082-2.915 1.777-2.912 3.63 0 1.678 1.35 2.905 3.133 2.85 2.065-.062 3.335-1.243 3.305-3.067-.032-1.73-1.86-3.503-3.522-3.413z"/></svg>