<svg xmlns="http://www.w3.org/2000/svg" width="128" height="128" viewBox="0 0 128 128"><path d="M69.472 93.306c-.42-.352-1.195-.363-1.81-.378-3.217-.068-6.457.124-9.65-.18-3.86-.366-7.71-.29-11.565-.312-5.257-.032-10.512.003-15.77.003-2.33 0-2.35-.004-2.794-2.266-.224-1.15-.358-2.32-.5-3.485-.108-.85-.144-1.708-.246-2.558-.5-4.15-1.042-8.288-1.04-12.483.004-5.9-.053-11.8-.068-17.7-.01-3.54.002-7.084.027-10.623.004-.845.346-1.205 1.143-1.214 2.358-.02 4.72.016 7.078-.02 3.004-.048 6.005-.116 9.008-.23 2.03-.076 4.056-.348 6.087-.362 6.97-.042 13.944.01 20.917-.025 1.71-.008 3.435-.096 5.127-.33 3.183-.438 6.357-.93 9.58-.93 2.897 0 5.793-.01 8.69.06 1.602.037 3.202.22 4.802.36.582.05.954.46.96 1.07.01 3.217.006 6.434.004 9.652-.002 2.576-.025 5.15-.02 7.725.003.62.382 1.04.934 1.07 1.495.085 2.993.175 4.493.192.184.003.486-.4.53-.65.09-.524.055-1.068.055-1.6.002-6.547.002-13.09.002-19.635h-.09V18.186c0-.32.014-.644-.014-.964-.12-1.52-1.11-2.62-2.6-2.814-.74-.098-1.498-.09-2.248-.085-6.114.046-12.23.05-18.343.174-3.424.067-6.842.366-10.264.51-8.572.356-17.154.02-25.727.572-3.844.25-7.675.725-11.546.683-4.398-.047-8.796.107-13.195.174-1.074.016-2.15.02-3.153.493-.91.43-1.784 1.056-1.854 2.066-.15 2.122-.81 4.165-.67 6.346.27 4.162.332 8.335.268 12.516-.135 8.796-.143 17.594-.052 26.39.044 4.28.43 8.558.663 12.837.01.212.065.423.08.637.47 5.553.87 11.106-.18 16.644-.075.42-.123.85-.147 1.28-.13 2.634 1.355 4.05 3.953 3.743.42-.048.825-.235 1.246-.296.414-.06.84-.075 1.256-.053 2.245.134 4.485.39 6.73.412 7.406.064 14.806.043 22.21.064 1.07.003 2.154-.045 3.215.086 4.702.587 9.425.328 14.14.387.212.004.45.026.635-.056.27-.125.604-.277.74-.517.718-1.278.834-2.695.418-4.047-.237-.775-.82-1.538-1.45-2.065zM25.637 34.364c-.117-3.536-.42-7.05-1.09-10.53-.084-.437.155-.85.668-.917.53-.07 1.064-.094 1.598-.105 2.25-.043 4.5-.056 6.75-.112 3.213-.08 6.417-.096 9.627-.41 2.98-.29 5.997-.187 8.997-.206 6.002-.043 12.004-.02 18.005-.09 1.92-.02 3.842-.256 5.762-.352 1.712-.085 3.427-.152 5.14-.156 5.04-.01 10.076.016 15.113.032.642 0 1.285.01 1.93.05 1.204.08 1.537.393 1.534 1.558-.01 2.893-.046 5.787-.103 8.68-.02 1.053-.3 1.335-1.32 1.382-3.42.157-6.844.297-10.267.425-.96.036-1.932.056-2.894.006-3.877-.2-7.685.45-11.51.91-1.377.162-2.76.364-4.142.382-3.86.053-7.718.02-11.576.02v.138c-3.536 0-7.074-.068-10.607.022-2.777.072-5.55.433-8.33.51-3.96.104-7.93.074-11.895.078-1.05 0-1.35-.275-1.384-1.316zm83.945 48.327c-.806-.26-1.664-.38-2.502-.545-.91-.18-1.123-.395-1.12-1.202v-4.5h.014c0-1.61.018-3.218-.005-4.824-.023-1.648-.586-3.137-1.385-4.56-.672-1.185-1.637-1.91-2.948-2.303-2.005-.597-3.998-.416-6.03-.226-4.058.38-7.803 1.398-10.612 4.61-1.67.85-2.407 2.388-2.848 4.064-.995 3.784-1.337 7.576.245 11.31.176.412-.026.583-.324.688-.505.18-1.022.323-1.542.447-1.758.42-2.763 1.585-3.168 3.274-.347 1.455-.79 2.928-.84 4.403-.157 4.928-.204 9.864-.2 14.795.004 2.168 1.48 3.837 3.638 4.26 1.25.246 2.54.4 3.816.414 5.362.053 10.725.028 16.085.053.96.004 1.983-.078 2.872.21 1.73.562 3.36.254 5.07-.02 1.097-.176 1.694-.705 2.206-1.604.557-.987.733-2.025.607-3.1-.512-4.416.313-8.75.757-13.11.29-2.868.655-5.733.878-8.607.15-1.903-.88-3.34-2.667-3.923zm-14.925-9.46c.315-.063.63-.122.946-.167.965-.134 1.472.13 1.65 1.052.383 1.986.8 3.98.963 5.988.07.88.843 1.984-.037 2.673-.606.472-1.604.45-2.43.632-1.77.387-3.536.79-5.317 1.13-.843.16-1.508-.3-1.643-1.136-.15-.942-.18-1.902-.266-2.858-.14-4.142 1.9-6.434 6.13-7.31zm9.587 24.197c-.15 1.6-.186 3.21-.275 4.816-.03.533-.048 1.072-.113 1.603-.128 1.04-.535 1.365-1.74 1.39-1.93.04-3.86.016-5.788.095-3.1.13-6.198.417-9.3.46-4.93.066-4.127.75-4.273-4.2-.032-1.073-.006-2.145-.006-3.218h.074c0-2.036-.02-4.072.01-6.11.012-.78.423-1.15 1.226-1.13.854.02 1.718.045 2.55.2 2.364.437 4.68.65 6.85-.715.177-.11.387-.195.594-.23 3.163-.528 6.277-1.382 9.515-1.375.32.002.673-.017.944.113.238.114.558.444.54.647-.243 2.556-.57 5.1-.81 7.656zM40.427 82.642c.46.25.987.437 1.504.507.63.083 1.286.02 1.928.02v-.046c.644 0 1.294.064 1.93-.01 4.364-.496 8.726-.955 13.115-1.202 1.707-.096 3.406-.365 5.1-.612.925-.134 1.697-1.1 1.77-2.047.058-.728-.567-1.688-1.372-1.984-.495-.183-1.026-.333-1.546-.354-1.61-.07-3.22-.164-4.824-.08-2.782.15-5.553.425-8.33.647-2.56.203-5.126.398-7.69.614-.42.036-.85.117-1.248.262-.87.313-1.667 1.38-1.64 2.202.03.928.51 1.638 1.305 2.076zM35.083 61.79c.52.342 1.116.696 1.71.77 1.483.178 2.983.25 4.477.274 2.564.043 5.13.01 7.23.01 4.1-.084 7.73-.138 11.36-.252.73-.02 1.484-.175 2.164-.43 1.006-.375 1.495-1.284 1.402-2.278-.09-.95-.8-1.845-1.712-2.114-.304-.09-.627-.157-.942-.155-2.456.017-4.912.02-7.366.096-1.596.05-3.187.266-4.783.32-2.136.07-4.273.053-6.41.084-.748.01-1.503 0-2.245.096-1.71.216-3.317.762-4.79 1.67-.654.4-.726 1.492-.097 1.91zm50.762-6.26c2.234-.227 4.483-.287 6.715-.543.7-.08 1.4-.49 2.016-.885.655-.418.68-1.757.124-2.325-.222-.227-.474-.44-.747-.6-.856-.498-1.788-.647-2.778-.654-3.217-.02-6.42-.15-9.606-.69-2.11-.357-4.247-.53-6.37-.783l-.014.188c-.966 0-1.937-.075-2.896.017-1.444.14-2.676.747-3.455 2.048-.747 1.245-.048 2.756 1.35 2.927.422.053.856.046 1.283.05 2.466.02 4.913.178 7.363.538 2.32.34 4.62.958 7.018.715zM37.81 71.756c.948.64 2.026.683 3.095.69 7.077.053 14.158.085 21.925.128-.068.028.57-.133 1.096-.47 1.39-.9 1.244-2.882-.203-3.722-.797-.462-1.636-.43-2.496-.426-5.795.017-11.588-.01-17.387.064-1.705.023-3.41.317-5.11.516-.306.037-.604.205-.89.348-.576.288-.933.963-.873 1.59.053.575.368.965.843 1.283zM58.263 53.69c.638 0 1.31.037 1.9-.148.465-.143.97-.52 1.213-.937.933-1.605.02-3.35-1.79-3.51-.53-.05-1.067-.035-1.602-.033-5.444.008-10.887.017-16.333.032-.852.003-1.727-.067-2.555.085-1.246.23-2.483.56-3.677.982-.912.323-1.004 1.493-.236 2.078.334.257.69.537 1.083.654 1.323.392 2.64.783 4.064.757 2.99-.056 5.977-.016 8.965-.016v.064c2.99 0 5.978.008 8.968-.005zm10.72-22.34c.523-.097 1.084-.125 1.547-.35.452-.223.94-.585 1.158-1.014.33-.644.437-1.402.64-2.104-.24-.754-.402-1.488-.715-2.15-.164-.35-.544-.73-.907-.84-2.79-.83-4.485-.475-5.502 2.06-.226.562-.386 1.262-.267 1.83.412 1.96 2.037 2.94 4.045 2.566zm24.764-1c1.867.67 4.134.106 4.526-2.55.046-.318.07-.637.114-1.038 0-.024-.006-.132.002-.24.063-1.3-.434-2.353-1.636-2.85-1.326-.548-2.724-.654-3.918.37-.384.33-.757.818-.868 1.297-.332 1.382-.25 2.774.593 3.987.29.42.723.853 1.185 1.02zm-11.648.215c2.06-.027 3.394-1.187 3.41-2.968.013-1.736-1.738-3.53-3.426-3.516-1.562.018-2.944 1.63-3.02 3.533-.07 1.65 1.294 2.976 3.036 2.955zM93.537 92.67c-1.365.358-2.594.992-3.675 1.884-1.594 1.312-1.688 3.272-.33 4.773 1.73 1.91 3.77 2.192 6.114 1.376 2.034-.704 2.75-1.627 2.752-3.834-.013-.25-.023-.573-.05-.89-.204-2.38-2.465-3.93-4.81-3.313z"/></svg>