<svg xmlns="http://www.w3.org/2000/svg" width="128" height="128" viewBox="0 0 128 128"><path d="M123.832 113.517c-1.026-.1-2.178.09-3.064-.317-1.203-.557-2.49-.422-3.68-.853-.743-.27-1.282.122-1.826.637-.46.435-.85.23-.878-.366-.243-5.425-.494-10.848-.717-16.27-.288-6.93-.754-13.85-.733-20.794.007-2.533-.064-5.072-.516-7.6-.45-2.495-.674-5.036-.864-7.567-.28-3.684-.512-7.376-.63-11.068-.157-4.85-.312-9.706.443-14.537.267-1.728-.7-2.936-2.4-3.21-1.137-.184-2.293-.27-3.435-.432-1.216-.172-1.42-.383-1.525-1.467-.294-2.987-.605-5.973-.864-8.962-.107-1.194-.376-2.29-1.316-3.092-.79-.676-1.728-.53-2.645-.335-.584.125-.866-.186-.945-.683-.24-1.483-.407-2.972-.658-4.45-.215-1.248-.43-2.507-.78-3.72-.34-1.17-1.564-1.805-2.747-1.573-.337.065-.67.183-.995.298-1.4.5-1.96 1.263-1.56 2.627.5 1.696.622 3.395.614 5.133-.002.574.088 1.152.18 1.72.283 1.76.29 1.764-1.258 1.807-.46.013-.924-.053-1.382-.027-1.07.064-1.75.693-1.792 1.732-.04.804.055 1.614.068 2.42.02 1.388.032 2.772.014 4.157 0 .134-.224.277-.368.386-.025.017-.213-.112-.256-.206-1.813-4.096-4.416-7.573-7.972-10.322-.277-.21-.528-.463-.736-.736-1.197-1.563-2.9-2.203-4.713-2.713-.867-.24-2.047.248-2.56-.683-.423-.777-.47-1.77-.625-2.68-.13-.798-.085-1.63-.277-2.41-.16-.653-.508-1.268-.834-1.866-.274-.498-1.2-.397-1.447.133-.144.31-.277.626-.384.95-.62 1.906-.577 3.877-.543 5.845.017.91-.35 1.453-1.224 1.842-6.754 3.012-5.073 1.532-9.39 7.61-2.104 2.965-3.455 6.212-4.293 9.75-.774 3.266-1.216 6.578-1.778 9.874-.267 1.56.388 3.254-.686 4.687l-4.846.04c-.58.005-1.156.004-1.736.005-3.232.004-3.248.006-3.733-3.294-.135-.912-.166-1.84-.234-2.763-.077-1.154-.005-2.336-.23-3.458-.556-2.747-.517-5.518-.562-8.29-.004-.347-.018-.695.008-1.04.107-1.372-.355-2.484-1.426-3.36-.98-.807-1.924-1.665-2.908-2.472-2.328-1.903-4.678-3.773-6.997-5.688-3.743-3.09-7.466-6.208-11.2-9.312-.354-.293-.7-.638-1.11-.816-.252-.112-.727-.07-.924.106-.418.37-.81.828-1.05 1.328-.805 1.69-1.154 3.527-1.242 5.368-.283 5.772-.98 11.523-.76 17.313.033.81-.015 1.62-.015 2.433.012 4.856-.02 9.715.055 14.574.04 2.42.377 4.836.417 7.258.128 7.748.18 15.5.267 23.247.004.578-.03 1.166.06 1.732.657 4.11 1.12 8.237 1.388 12.39.174 2.647.4 5.296.672 7.937.446 4.36.95 8.713 1.374 12.543 0 1.47-.078 2.4.015 3.317.194 1.946-.37 2.424-2.337 2.49-2.08.07-4.158.068-6.24.1-.46.006-.942-.06-1.374.06-.574.158-.99.58-1.128 1.198-.146.658.17 1.157.7 1.443.495.265 1.063.513 1.61.536 4.388.192 8.73.907 13.103 1.23 2.3.172 4.65.273 6.93-.015 3.117-.394 6.223-.43 9.34-.442 6.595-.028 13.187-.028 19.78-.05.927-.002 1.884.093 2.768-.116 3.312-.78 6.668-.597 10.015-.61 1.27-.004 2.58.114 3.802-.155 1.954-.433 3.904-.374 5.867-.42 2.424-.06 4.856-.102 7.283-.214 2.073-.1 4.142-.335 6.22-.42 3.003-.123 6.02-.036 9.012-.266 5.06-.386 10.11-.92 15.158-1.463 1.154-.125 2.238-.173 3.41.017 1.578.26 3.225.196 4.835.1 1.362-.08 2.277-1.292 2.205-2.63-.066-1.243-.864-2.01-2.27-2.144zm-85.535 3.91c-.67-.164-1.344-.344-1.992-.585-.576-.213-.945-.675-1.026-1.29-.12-.915-.138-1.846-.295-2.756-.134-.786-.322-1.59-.65-2.31-.147-.324-.737-.692-1.046-.634-.348.067-.82.57-.865.93-.147 1.138-.125 2.297-.157 3.45-.015.46.037.925-.026 1.375-.025.19-.265.484-.42.49-.678.03-1.393.083-2.027-.1-.34-.096-.677-.62-.79-1.016-.314-1.104-.51-2.243-.754-3.373-.074-.337-.103-.69-.21-1.013-.307-.932-1.24-1.728-1.975-1.723-.978.007-2.126 1.196-2.07 2.404.06 1.252.367 2.494.577 3.74.113.654-.22 1.132-.89 1.177-.692.047-1.388.07-2.08.08-1.417.016-1.66-.19-1.71-1.515-.036-.923-.02-1.85-.027-2.773-.01-2.88-.075-5.727-.552-8.612-.638-3.858-.96-7.79-.875-11.733.08-3.465.01-6.933.023-10.402.003-.587.316-.738.82-.302 1.056.897 2.18 1.057 3.54.88 1.824-.24 3.69-.158 5.536-.288 2.297-.166 4.597-.376 6.888-.64.544-.064 1.086-.363 1.566-.657.606-.37 1.085-1.34.896-1.725-.363-.732-.794-1.436-1.666-1.647-.33-.08-.685-.075-1.028-.08-3.12-.045-6.24-.092-9.36-.117-1.04-.007-2.08.055-3.118.074-1.213.024-2.253.42-3.115 1.298-.19.192-.518.242-.784.356-.085-.33-.24-.656-.245-.987-.042-3.353-.02-6.706-.1-10.06-.11-4.613-.3-9.23-.452-13.843l.242-.016c-.272-3.22-.576-6.437-.8-9.663-.107-1.495-.088-3.002-.077-4.505.03-3.816-.112-7.605-.622-11.405-.366-2.736-.25-5.538-.325-8.312-.07-2.424-.112-4.85-.15-7.276-.004-.21.07-.588.146-.596.298-.036.718-.07.895.1.91.882 1.883 1.74 2.606 2.77 1.69 2.407 3.824 4.334 6.203 5.994 2.098 1.463 3.985 3.147 5.78 4.958.89.9 1.84 1.773 2.88 2.477 1.014.682 1.273 1.503 1.19 2.642-.098 1.38-.046 2.773-.063 4.16-.07 6.133.54 12.22 1.29 18.298.044.343.065.69.086 1.037.363 6.226.65 12.457.958 18.686.405 8.198.343 16.403.732 24.593.174 3.685.55 7.367.565 11.063.01 2.656.044 5.312.065 7.97.003.62-.553 1.102-1.14.956zM94.1 9.65c.097-.026.314.033.32.076.108.787.196 1.576.274 2.368.01.107-.056.22-.088.333-.068-.08-.18-.15-.198-.24-.12-.56-.216-1.124-.3-1.546-.116-.344-.21-.55-.242-.763-.013-.067.14-.203.235-.227zm.558 7.568c.008.072-.103.158-.16.238-.055-.077-.168-.16-.156-.224.025-.184.1-.36.157-.54.056.173.132.346.16.525zm-1.864 4.694c1.568-.363 3.108-.84 4.768-.677 1.267.124 1.522.31 1.55 1.714.022 1.267.005 2.537.005 3.806h.025c0 1.04.006 2.08-.002 3.118-.01 1.606-.3 1.997-1.944 2.236-1.134.165-2.296.193-3.445.23-.82.026-1.335-.41-1.38-1.205-.16-2.763-.29-5.53-.4-8.296-.024-.52.33-.81.827-.927zm-39.603 95.15c-1.27.02-2.54.004-3.81.004v.032c-.927 0-1.86-.085-2.774.015-2.71.294-2.76-.437-2.822-2.707-.067-2.525-.323-5.045-.323-7.58 0-2.644-.31-5.292-.484-7.94-.02-.345-.064-.692-.053-1.037.15-5.79-.497-11.545-1.022-17.284-.507-5.525-.37-11.072-.952-16.59-.254-2.403-.05-4.85-.136-7.275-.07-2.08-.244-4.153-.404-6.225-.05-.633.334-.846.795-.853 2.774-.038 5.548-.043 8.318-.036.54 0 .82.392.868.883.373 3.907.813 7.812.727 11.746-.032 1.506.173 2.972.366 4.464.364 2.742.364 5.53.524 8.294.387 6.677.605 13.362 1.7 19.99.52 3.178.628 6.428.82 9.655.165 2.76.115 5.54.787 8.257.14.56.295 1.133.31 1.702.053 1.78-.62 2.452-2.425 2.48zm35.72-1.71c-3.81.153-7.624.256-11.44.384-.813.027-1.165-.594-1.66-1.07-.587-.566-1.264-.53-1.852-.018-.258.224-.478.5-.69.775-.65.836-1.564.885-2.508.867-.53-.01-.904-.402-.785-.853.203-.772.48-1.533.603-2.318.096-.63-.544-1.38-1.184-1.534-.597-.143-1.227-.056-1.568.457-.702 1.054-1.344 2.155-1.924 3.28-.45.874-1.126 1.066-2.008.96-.405-.048-.676-.347-.5-.628.676-1.077 1.39-2.13 2.02-3.232.31-.544.14-1.114-.25-1.605-.404-.513-1.06-.716-1.52-.38-.558.405-1.066.88-1.605 1.314-.045.032-.194.003-.235-.046-.064-.077-.136-.224-.103-.29.405-.826.85-1.633 1.24-2.465.29-.62.575-1.26.76-1.915.22-.78-.137-1.584-.694-1.756-.63-.194-1.135.075-1.545.512-.313.336-.584.717-.85 1.093-.4.565-.772 1.155-1.183 1.712-.1.14-.32.19-.483.282-.05-.104-.134-.2-.15-.31-.26-1.507-.245-2.946.533-4.37.776-1.415 1.357-2.938 1.992-4.424.277-.644-.203-1.424-.917-1.58-.112-.024-.23-.024-.343-.04-.546-.076-1.233.024-1.595-.272-.58-.477-.398-1.3-.187-1.944.504-1.535 1.123-3.033 1.65-4.56.29-.83-.362-1.493-1.34-1.437-1.13.066-1.152.067-1.202-.804-.282-4.965-.854-9.91-.788-14.896.026-2.067-.32-4.14-.477-6.21-.252-3.342-.546-6.683-.712-10.028-.164-3.35-.055-6.707-.604-10.037-.15-.903-.17-1.865-.045-2.77.51-3.767.414-7.6 1.473-11.315.602-2.11.98-4.288 2.016-6.24.7-1.32 1.51-2.592 2.38-3.81 2.244-3.164 7.07-5.083 11.473-3.45 1.182.436 2.35.944 3.69.812.38-.038.88.28 1.19.573.764.71 1.542 1.43 2.137 2.273 3.23 4.61 5.497 9.61 6 15.307.12 1.374.384 2.743.687 4.092 1.136 5.08 1.92 10.195 2.01 15.42.06 3.465.428 6.924.57 10.385.09 2.195.017 4.395.017 6.596-.043 4.168.365 8.303.7 12.456.508 6.334.66 12.697.928 19.05.093 2.194.11 4.394.113 6.59 0 .814-.483 1.38-1.237 1.41zm21.11-22.326c.013 6.245.02 12.49 0 18.734-.002 1.253-.55 1.885-1.76 2.246-.22.067-.44.16-.667.176-4.032.262-8.03 1.042-12.096.783-.917-.06-1.25-.344-1.327-1.227-.26-2.987-.466-5.98-.772-8.965-.35-3.44-.79-6.87-1.182-10.308-.08-.687-.103-1.382-.16-2.073-.572-7.266-.572-14.547-.704-21.828-.11-5.888-.416-11.778-.773-17.66-.15-2.527-.663-5.034-.98-7.553-.066-.555-.223-1.246.02-1.673.927-1.655.64-3.35.43-5.07-.055-.453-.06-.926 0-1.378.02-.15.307-.393.465-.385 1.265.066 2.528.224 3.797.277 2.31.092 4.62.167 6.897-.43.44-.114.914-.1 1.377-.13 3.232-.207 4.01.31 4.574 3.605.41 2.382.66 4.81.74 7.226.18 5.317.158 10.64.308 15.958.145 5.196.372 10.39.63 15.58.112 2.185.387 4.36.588 6.54-.15 1.977-.25 3.94.46 5.842.193.517.136 1.143.136 1.72zM71.8 41.938c1.042-.305 1.926-.91 2.37-1.882.515-1.135.828-2.365 1.172-3.386-.483-2.116-.424-4.15-2.12-5.57-1.312-1.1-2.816-1.142-4.03.016-.682.653-1.26 1.408-1.337 2.357-.184 2.304-.23 4.61.61 6.827.547 1.453 1.822 2.08 3.332 1.638zm3.994 11.62c.146.288.44.544.725.715 1.344.797 3.353.47 4.457-.612 1.267-1.237 1.586-2.755 1.483-4.147-.02-2.386-.258-3.392-1.025-4.59-1.242-1.945-3.624-1.87-4.734.16-.216.398-.37.837-.512 1.273-.285.867-.424 1.803-.832 2.606-.853 1.665-.3 3.134.44 4.598zm-12.053-4.63c1.06-1.177 1.44-2.602 1.42-4.174-.1-.915-.035-1.892-.336-2.735-1.024-2.855-3.66-3.6-5.717-1.76-.896.8-1.432 1.907-1.43 3.063.004 1.486.204 2.997.536 4.448.32 1.38 1.534 1.968 2.812 2.286 1.14.288 2.003-.333 2.72-1.127zm15.418 15.9c-1.232-1.712-3.548-1.482-4.517.432-.3.597-.456 1.3-.53 1.97-.09.796-.02 1.61-.02 2.414h-.196c0 .574-.02 1.15.004 1.72.067 1.712.898 2.553 2.558 2.61 1.632.06 3.05-.703 3.54-2.218.767-2.395.692-4.796-.838-6.926zm-13.93-1.276c.45 1.045 1.338 1.523 2.487 1.475 1.144-.047 1.975-.597 2.58-1.5.8-1.193 1.06-2.535.985-3.957-.033-.69.007-1.397-.136-2.065-.14-.66-.397-1.325-.738-1.91-.643-1.104-2.09-1.337-2.947-.41-.85.924-1.694 1.92-2.256 3.028-.878 1.723-.745 3.565.02 5.34zm8.537 23.915c.3-.845.317-1.792.397-2.28-.087-1.12-.09-1.817-.202-2.495-.192-1.15-.594-2.22-1.402-3.098-.69-.75-1.525-.992-2.504-.743-.896.228-1.434.96-1.528 2.06-.02.23-.027.46-.02.69.034 1.384.03 2.738-.606 4.05-.22.457-.136 1.15.014 1.68.346 1.197 1.88 2.115 3.277 2.09 1.333-.02 2.165-.813 2.576-1.95zm-9.738-9.483c.32-.47.656-1 .745-1.544.355-2.21.257-4.378-.986-6.355-.576-.917-1.46-1.234-2.722-.95-.957.215-1.568.895-1.682 1.944-.064.572-.06 1.152-.09 1.75.037.674.062 1.37.113 2.06.032.46.02.946.17 1.37.225.64.477 1.313.886 1.84.923 1.19 2.735 1.114 3.566-.114zm12.06 20.95c-1.27-.146-2.254.33-2.83 1.524-.345.706-.505 1.502-.77 2.317.3 1.022.57 2.02.89 2.997.38 1.163 1.322 1.517 2.44 1.568 1.244.06 1.954-.39 2.487-1.47.836-1.692.546-3.356-.004-5.045-.36-1.107-1.052-1.76-2.213-1.893zm3.798-9.69c-1.188 1.866-.836 5.503.685 7.092.55.574 1.455.743 2.228.42 1.71-.725 2.31-2.112 2.32-4.01.074-1.28-.26-2.593-1.183-3.705-1.225-1.46-3.057-1.36-4.053.2zM66.807 96.98c-.528-.955-2.016-.94-2.64-.027-.19.28-.43.6-.447.912-.09 1.61-.185 3.225-.13 4.832.04 1.123 1.04 1.894 2.113 1.867 1.045-.023 1.98-.843 2.136-1.906.065-.455.05-.92.07-1.167-.085-.906-.063-1.62-.23-2.282-.197-.768-.487-1.538-.874-2.23zM23.25 66.153c2.996.09 6 .02 9 .005.11 0 .222-.057.333-.09.912-.263 1.8-1.265 1.73-1.95-.08-.763-.995-1.704-1.856-1.844-.452-.075-.92-.072-1.378-.075-1.04-.01-2.08-.002-3.12-.002v.07c-1.04 0-2.085-.07-3.117.02-1.14.102-2.283.303-3.4.557-.813.186-1.055 1.3-.538 1.992.593.797 1.45 1.29 2.345 1.315zm11.658 25.843c-.666-.078-1.46-.15-2.016.13-1.42.72-2.895.684-4.388.68-.81 0-1.623-.066-2.42.027-1.368.16-2.736.366-4.078.674-.343.08-.78.596-.818.952-.04.367.267.914.59 1.138.444.31 1.044.525 1.588.544 1.726.07 3.456.026 5.184.026V96.1c1.495 0 2.994.02 4.49-.005.943-.015 1.812-.31 2.577-.877.533-.4.875-1.255.683-1.837-.226-.69-.635-1.293-1.39-1.38zm-2.663-23.16c-.227.04-.452.104-.67.178-.99.344-1.948.47-3.025.213-1.11-.262-2.298-.206-3.586-.297-.904.06-1.952.06-2.974.22-1.003.155-1.997 1.38-1.912 2.187.08.73.986 1.683 1.927 1.765 2.182.192 4.407.486 6.5-.402 1.21-.51 2.34-.954 3.623-.313.176.088.452-.006.68-.04 1.136-.18 1.866-1.213 1.605-2.256-.222-.867-1.184-1.43-2.17-1.25zm2.07-14.225c-.45-.082-.915-.13-1.37-.136-1.268-.018-2.534-.005-3.804-.005v.044c-1.61 0-3.224.008-4.836 0-1.067-.008-2.074.235-2.955.817-.34.23-.69.658-.76 1.046-.11.602.275 1.18.84 1.36.97.31 1.996.645 2.994.633 2.877-.04 5.75-.23 8.62-.406.554-.032 1.19-.136 1.618-.444.413-.298.732-.874.856-1.386.132-.544-.643-1.416-1.202-1.518zM22.983 89.237c1.032.043 2.067.013 3.098.013l.03.27c2.495-.332 4.996-.633 7.485-1.004.784-.115 1.402-1 1.4-1.755-.004-.76-.66-1.595-1.442-1.71-.676-.1-1.376-.176-2.052-.11-2.847.273-5.665.833-8.54.933-.524.02-1.065.373-1.552.654-.66.38-.712 1.216-.195 1.76.49.52 1.053.923 1.774.95zm3.846-50.79l-.026.156c-1.028 0-2.067-.066-3.09.02-.783.067-1.565.268-2.31.524-.576.195-.887.696-.847 1.342.036.62.34 1.125.896 1.353 1.282.523 2.635.8 4.02.69 1.94-.157 3.87-.374 5.804-.582.337-.036.678-.122.995-.247.313-.126.697-.264.87-.518.236-.337.41-.797.4-1.2-.003-.244-.372-.66-.62-.7-2.028-.32-4.063-.57-6.094-.84zm1.274 7.885v-.056c-1.376 0-2.752.01-4.128-.004-1.053-.01-2.072.166-2.97.71-.353.217-.826.723-.774 1.017.085.497.448 1.075.87 1.36.436.29 1.076.316 1.64.377 3.835.42 7.5-.384 11.1-1.62.098-.033.238-.143.247-.225.024-.307.13-.743-.028-.9-.297-.304-.747-.614-1.148-.633-1.6-.073-3.206-.03-4.81-.03zm-3.085-10.54c.874-.046 2.137-.074 3.393-.194 1.49-.14 2.965-.41 4.227-1.288.225-.156.324-.573.358-.883.01-.122-.3-.38-.49-.405-1.59-.21-3.19-.558-4.78-.525-2.627.056-5.248.358-7.87.576-.213.017-.416.175-.622.267-.355.16-.516.836-.31 1.188.438.736 1.044 1.237 1.925 1.26 1.26.03 2.525.007 4.17.007zm77.407 63.17c-.048-.62-.47-1.04-1.06-1.213-.467-.137-1.184.277-1.41.773-.677 1.493-.94 3.06-.748 4.688.04.33.22.648.377.95.32.613 1.21 1.06 1.728.84.544-.232 1.005-.622 1.084-1.234.1-.79.106-1.598.15-2.396-.034 0-.07 0-.107-.003 0-.802.048-1.608-.016-2.405zm-1.412-5.488c.06-.913.015-1.835.015-2.752l.165-.006c-.1-1.022-.17-2.048-.31-3.06-.07-.492-.908-1.074-1.302-.9-.39.174-.762.48-1.022.822-.19.248-.252.643-.26.974-.027 1.378-.027 2.755-.013 4.132.007.338.08.686.186 1.01.183.577.552.995 1.192 1.074.6.075 1.306-.548 1.353-1.293zm4.182-.125c.25-.025.638-.41.657-.66.08-.91.032-1.83.032-2.748l.13-.01c-.146-1.134-.252-2.273-.47-3.393-.044-.225-.497-.43-.8-.527-.162-.053-.468.09-.6.24-1.22 1.388-1.364 5.427-.187 6.8.23.266.83.33 1.236.292zm-10.83-41.21c.373-.077.715-.538.943-.91.164-.266.21-.68.156-1-.22-1.235-.48-2.47-.774-3.69-.117-.49-.907-.933-1.376-.836-.605.126-1.035.506-1.22 1.088-.107.32-.096.68-.096.66-.046 1.78.192 3.14 1.17 4.223.266.297.842.54 1.2.465zm8.583 2.344c-.475-.075-.9.302-.986.754-.352 1.796-.333 3.61.157 5.373.09.33.614.628.998.767.457.163 1.152-.4 1.22-.938.1-.78.13-1.57.205-2.523-.142-.848-.23-1.864-.514-2.82-.086-.295-.684-.552-1.078-.614zm1.338 12.312c-.075-.23-.542-.46-.832-.464-.296-.006-.76.19-.867.424-.85 1.88-.903 3.773.11 5.627.05.096.166.155.24.242.242.3.972.296 1.234.025.695-.707.826-1.602.91-2.772-.22-.877-.453-1.995-.797-3.08zm-8.13 26.234c.168-.528.18-1.108.22-1.41-.098-1.18-.113-2.103-.276-3-.1-.54-.41-1.05-.67-1.552-.188-.36-.954-.39-1.2-.066-.202.27-.495.555-.532.86-.213 1.594-.258 3.193.3 4.744.077.213.154.487.317.594.352.222.757.467 1.147.48.237.002.608-.373.697-.648zm-2.394-36.913c-.262.608-.3 1.312-.373 1.678.116 1.45.06 2.648.92 3.544.287.297.746.5 1.16.585.416.085 1.107-.672 1.05-1.173-.18-1.58-.38-3.155-.696-4.707-.06-.293-.685-.67-1.035-.655-.364.016-.876.385-1.025.728zm9.383 20.86c-.386.142-.896.456-.998.797-.46 1.562-.433 3.168-.12 4.763.04.21.193.443.364.574.256.2.58.446.866.43s.732-.262.805-.502c.272-.858.416-1.755.552-2.38-.098-1.092-.144-1.894-.253-2.69-.075-.54-.784-1.148-1.216-.99zm-3.6-16.195c.746-.708.828-1.602.746-3.255-.02-.087-.13-.894-.453-1.603-.15-.33-.704-.648-1.086-.658-.368-.008-.907.294-1.093.62-.952 1.666-.74 3.297.37 4.837.31.435 1.11.448 1.517.06zm3.608-9.013c.64-.077 1.05-.434 1.205-1.047.08-.326.133-.687.085-1.017-.2-1.36-.41-2.72-.69-4.068-.054-.262-.41-.59-.676-.652-.514-.115-.89.274-.986.727-.19.893-.264 1.808-.38 2.638.067.89.106 1.693.197 2.49.065.57.675.998 1.243.928zm-4.488 31.237c.31.514.808.785 1.423.754.474-.024 1.008-.66 1.022-1.19.006-.34.032-.69-.03-1.02-.236-1.338-.473-2.677-.783-3.998-.06-.25-.446-.558-.706-.585-.267-.027-.75.203-.81.42-.29.957-.457 1.95-.56 2.436.058 1.09.058 1.664.13 2.223.04.33.143.675.31.957zM94.337 71.6c.308.24.822.33 1.22.29.25-.026.622-.404.655-.66.235-1.826.147-3.626-.86-5.247-.142-.224-.597-.37-.89-.344-.293.025-.7.25-.817.5-.23.49-.296 1.06-.398 1.472.147 1.056.22 1.967.42 2.848.092.42.343.89.67 1.142zm6.08-.59c.065-.674.09-1.354.13-2.007-.044-.704-.067-1.385-.136-2.06-.05-.468-.73-1.082-1.156-1.113-.46-.03-1.173.453-1.312.934-.415 1.445-.423 2.912-.022 4.352.16.57.687.87 1.312.888.544.018 1.13-.45 1.184-.992zm-5.54 5.39c-.193.004-.51.163-.542.307-.253 1.104-.558 2.22-.61 3.34-.026.628.336 1.307.646 1.898.114.213.608.358.89.31.288-.048.656-.32.766-.586.168-.406.144-.89.173-1.128-.093-1.472.066-2.77-.748-3.86-.12-.157-.383-.286-.575-.283zm2.068 23.65c-.107-.375-.397-.783-.723-.986-.37-.23-1.024.378-1.138.978-.064.333-.11.667-.22 1.34.22.79.487 1.877.853 2.933.088.25.594.58.782.514.37-.13.787-.45.94-.8.163-.38.102-.89.037-1.324-.134-.894-.288-1.792-.533-2.656zm2.21-49.123c.43.085 1.064-.655 1.088-1.13.008-.227.053-.47-.01-.676-.304-.972-.568-1.964-.99-2.884-.14-.305-.758-.635-1.052-.558-.297.077-.5.632-.68 1.01-.09.188-.03.447-.064 1.198.11.486.258 1.493.6 2.434.11.303.7.525 1.11.606zm6.253 48.06c-.188.012-.474.16-.533.318-.558 1.51-.687 3.055-.21 4.612.053.17.323.39.494.39.307-.004.784-.065.89-.26.3-.57.45-1.22.69-1.932-.25-.955-.48-1.923-.774-2.873-.04-.14-.37-.267-.558-.256zM49.483 71.295c.147-.315 0-.97-.256-1.213-.26-.248-.843-.308-1.242-.223-.418.087-.892.357-1.144.697-1.09 1.476-2.142 2.984-3.127 4.533-.206.32-.123.883-.035 1.31.064.308.348.572.506.807.555-.208.935-.245 1.163-.454 1.714-1.558 3.153-3.346 4.14-5.452zm-5.82-14.938c.108.004.234.048.323.01 2.06-.88 3.573-2.386 4.757-4.24.14-.217.066-.69-.085-.94-.235-.39-.664-.65-1.154-.433-2.187.976-3.622 2.654-4.443 4.88-.03.09.016.25.085.32.15.156.34.27.517.402zm1.126 8.892c1.207-.884 2.153-2.023 2.752-3.408.13-.298.13-.655.13-.66.053-.953-.88-1.438-1.528-1.1-1.71.89-2.78 2.314-3.174 4.18-.063.32.278.907.594 1.082.31.17.932.122 1.224-.094zm6.1 26.93c-1.437.214-2.863.494-4.285.792-.156.033-.366.342-.355.51.022.3.115.757.313.846.595.27 1.255.39 1.444.444 1.736.036 2.976-.03 4.004-.88.155-.13.328-.41.288-.563-.08-.297-.252-.624-.485-.81-.245-.2-.633-.384-.922-.34zm.273 5.484c-.496-.253-1.11-.555-1.61-.466-1.35.242-2.662.675-3.99 1.042-.096.026-.238.138-.242.215-.014.188-.022.443.083.56.704.764 1.666.648 2.624.71.644-.04 1.336-.06 2.02-.137.334-.04.7-.132.966-.318.267-.18.562-.5.59-.784.03-.264-.202-.702-.44-.825zm-1.36-7.122c.25-.045.517-.415.64-.692.202-.483-.065-.924-.484-1.106-.5-.22-1.07-.277-1.72-.43-.914.172-1.907.34-2.886.564-.16.035-.343.313-.368.5-.02.175.096.463.242.554 1.426.896 2.993.896 4.575.61zm-3.02 14.057c-.248.084-.506.492-.533.775-.027.275.16.736.385.838.597.278 1.267.408 1.752.548.53-.06.896-.027 1.197-.155.277-.117.69-.427.674-.617-.036-.4-.215-.928-.518-1.133-.902-.608-1.952-.608-2.955-.256zm1.487-22.596c-.242.344-.442.732-.572 1.13-.036.11.215.335.368.47.05.043.238.003.3-.06.287-.288.554-.6.777-.85-.147-.355-.178-.613-.322-.72-.12-.088-.475-.07-.546.032zm45.76-51.63c.377.607 1.445.623 1.702-.024.325-.82.507-1.707.68-2.315-.114-.975-.16-1.655-.288-2.32-.117-.637-.88-1.13-1.55-1.082-.523.042-1.112.547-1.117 1.11-.013 1.246.027 2.494.112 3.736.02.31.28.607.46.895z"/></svg>