<svg xmlns="http://www.w3.org/2000/svg" width="128" height="128" viewBox="0 0 128 128"><path d="M116.533 34.126c-.367-2.976-1.05-5.904-2.566-8.565-.424-.74-.78-1.523-1.163-2.29-1.967-3.894-4.966-6.69-9.035-8.265-2.093-.813-4.29-1.346-6.38-2.162-2.764-1.077-5.61-1.255-8.527-1.243-10.19.05-20.38.05-30.57.023-1.817-.002-3.63-.245-5.447-.32-3.317-.136-6.635-.36-9.925.414-1.556.37-3.152.604-4.744.787-3.992.454-7.68 1.882-11.31 3.475-.972.422-1.903.992-2.766 1.617-3.41 2.46-6.534 5.205-8.782 8.837-1.013 1.64-2.148 3.202-3.17 4.832-.952 1.515-1.224 3.195-.92 4.95.15.845.238 1.656.14 2.534-.46 4.17-.502 8.336.337 12.476.773 3.816 2.123 7.413 4.128 10.748 1.28 2.13 2.915 3.98 4.924 5.465 1.205.892 2.42 1.775 3.693 2.57 3.408 2.143 7.07 3.588 11.168 3.494 2.884-.066 5.765-.306 8.648-.454 1.045-.052 1.854-.5 2.42-1.36.417-.624.837-1.25 1.174-1.92 1.09-2.135.277-4.16-2.016-4.81-1.013-.285-2.11-.277-3.168-.395-1.166-.128-2.368-.1-3.488-.4-3.2-.86-6.334-1.97-9.553-2.746-2.298-.56-4.17-1.617-5.648-3.415-.75-.91-1.445-1.856-2.2-2.763-1-1.2-1.475-2.645-1.664-4.124-.326-2.545-.818-5.078-.73-7.67.063-1.822-.022-3.648.02-5.47.107-4.062 1.306-7.778 3.576-11.153 1.3-1.933 3.03-3.34 5.173-4.175 3.848-1.502 7.823-2.155 11.96-1.606.945.125 1.922.133 2.87.046 2.873-.265 5.738-.732 8.618-.887 6.638-.358 13.28-.576 19.92-.853 5.27-.245 10.5.338 15.73.82 2.115.196 4.233.645 6.297 1.178 2.07.53 4.088 1.27 6.1 1.995 1.104.395 2.18.896 3.215 1.45 2.165 1.166 3.637 2.922 4.367 5.306 1.1 3.6 2.02 7.21 1.834 11.03-.09 1.82-.003 3.647-.02 5.47-.06 5.593.092 4.204-2.16 9.23-.046.098-.1.19-.146.288-.775 1.676-1.88 3.1-3.227 4.362-.89.832-1.86 1.365-3.09 1.554-2.23.35-4.46.565-6.72.474-2.475-.098-4.926.072-7.29.883-.93.32-1.875.56-2.833.276-1.534-.456-2.965.175-4.43.36-1.055.134-1.787 1.286-1.787 2.377-.002 1.824 1.04 3.154 2.875 3.232 2.244.1 4.525.136 6.737-.17 1.602-.225 3.185-.353 4.79-.374 2.893-.04 5.76-.31 8.64-.63 4.55-.5 7.623-3.127 10.456-6.302.21-.235.42-.52.496-.818.38-1.49 1.277-2.7 2.06-3.98 1.018-1.667 1.572-3.508 1.953-5.41.25-1.26.39-2.543.7-3.79 1.144-4.65 1.027-9.348.452-14.036zm-17.63 70.965c-1.002-2.046-2.474-3.742-4.03-5.38-3.1-3.264-6.18-6.552-9.256-9.84-.14-.144-.18-.38-.27-.57.19-.08.377-.21.57-.225 3.196-.275 6.396-.512 9.59-.806 1.628-.154 2.74-2.017 2.222-3.606-1.04-3.168-1.165-3.32-4.298-4.683-.683-.3-1.404-.51-2.112-.75-3.237-1.11-6.446-2.273-9.543-3.77-4.238-2.054-8.565-3.93-12.91-5.75-2.362-.993-4.83-1.727-7.252-2.568-.405-.138-.826-.23-1.297-.362-.254.075-.576.128-.86.262-.673.33-1.356.646-1.983 1.056-1.606 1.043-2.254 2.482-1.788 4.41 1.594 6.552 2.923 13.17 5.568 19.43 1.792 4.238 3.34 8.58 4.997 12.877.23.597.4 1.233.733 1.775 1.056 1.725 3.307 1.956 4.587.435.753-.894 1.382-1.904 1.968-2.916.75-1.3 1.383-2.664 2.1-3.98.41-.753.83-.753 1.464-.075.22.235.454.46.65.712 3.304 4.224 6.598 8.452 9.9 12.672.66.844 1.31 1.703 2.03 2.49.66.717 1.466.766 2.338.27.277-.16.585-.3.805-.516 2.286-2.267 4.58-4.523 6.816-6.837 1.007-1.04.94-1.43-.018-2.702-.254-.34-.535-.674-.72-1.052zm-3.508 1.357c-.657 1.092-1.315 2.203-2.126 3.18-.745.895-2.05.77-2.84-.1-.075-.08-.16-.15-.223-.235-2.688-3.74-5.355-7.49-8.055-11.22-1.57-2.173-3.198-4.304-4.78-6.47-.367-.507-.813-.65-1.38-.518-1.076.242-2.017.73-2.705 1.62-.587.762-1.14 1.55-1.717 2.324-.258.35-.8.264-1.012-.166-.188-.384-.367-.773-.52-1.173-1.14-2.89-2.25-5.793-3.41-8.676-1.04-2.58-2.115-5.146-3.2-7.71-.797-1.872-1.638-3.726-2.444-5.595-.064-.15-.067-.434.02-.5.14-.11.403-.153.572-.098.606.21 1.202.453 1.79.707 4.917 2.117 9.87 4.157 14.68 6.534 3.93 1.94 7.894 3.847 12.16 5.003.118.034.182.277.264.416-.158.178-.282.443-.442.468-.95.15-1.9.3-2.86.338-2.777.114-5.145 1.335-7.48 2.665-.108.06-.177.416-.102.512 2.037 2.746 3.82 5.69 6.272 8.12 2.89 2.872 5.745 5.782 8.608 8.68.3.305.608.624.81.99.14.257.244.694.118.903zM50.888 40.75c-.754-.395-1.56-.685-2.34-1.037-.418-.192-.513-.663-.124-.9 1.488-.9 1.696-2.355 1.816-3.896-.186-2.044-.706-3.994-1.965-5.664-1.444-1.905-3.31-2.97-5.808-2.722-2.898.29-5.752.653-8.02 2.757-.157.142-.353.267-.552.323-1.917.54-2.357 1.986-2.293 3.73.128 3.42.293 6.835.39 10.254.092 3.307.38 6.617-.156 9.92-.117.725-.102 1.504.02 2.23.282 1.63 1.753 2.564 3.327 2.042.83-.277 1.64-.384 2.492-.475 3.51-.37 6.97-1.054 10.243-2.417 3.088-1.286 5.42-3.357 6.456-6.688.295-.957.354-1.856.142-2.827-.467-2.142-1.734-3.635-3.63-4.627zM37.533 33.4c.03-1.36.476-1.95 1.822-2.188.835-.145 1.705-.134 2.558-.14.925-.003 1.66.44 2.155 1.2 1.112 1.706 1.275 2.405-.317 3.9-1.56 1.467-3.14 2.913-5.12 3.82-.35.16-1.014-.14-1.025-.49-.018-1.177-.005-2.353-.005-3.532h-.07c0-.856-.014-1.713.005-2.57zm11.153 15.15c-.24.21-.5.495-.785.54-2.886.415-5.45 1.88-8.26 2.533-.205.048-.423.046-.637.064-.688.064-1.227-.352-1.365-1.056-.038-.207-.096-.42-.107-.627-.013-.427-.002-.858-.002-1.973.056-.38.208-1.436.378-2.492.162-1.026.18-.97 1.442-1.227.94-.185 1.838-.537 2.758-.81 1.694-.5 3.383-.51 5.024.175.577.245 1.135.604 1.617 1.013 1.318 1.125 1.278 2.697-.06 3.866zm9.365-3.003c.043 1.392-.003 2.79.15 4.17.35 3.1 1.832 5.388 4.82 6.643 2.05.86 3.933.827 5.745-.475 1.06-.763 1.873-1.75 2.512-2.883 1.007-1.78 1.682-3.688 2.178-5.666 1.28-5.11 1.338-10.37 1.95-15.563.13-1.13-.346-2.09-.69-3.096-.195-.58-.668-.796-1.226-.875-1.825-.254-2.666.28-3.04 1.998-.136.622-.214 1.274-.2 1.91.05 2.257-.315 4.468-.66 6.685-.515 3.268-.98 6.556-2.257 9.646-.405.983-.917 1.92-1.412 2.857-.09.17-.39.41-.48.37-.273-.12-.604-.32-.714-.577-.882-2.08-1.42-4.25-1.44-6.525-.032-3.317-.045-6.635-.075-9.956-.01-.858.03-1.73-.123-2.56-.11-.6-.42-1.21-.79-1.698-.566-.736-1.5-.837-2.314-.413-1.19.626-2.116 1.407-2.176 2.913-.05 1.17-.24 2.332-.39 3.685.146 1.21.376 2.578.463 3.953.11 1.814.116 3.635.17 5.45zm32.43-4.112c2.413-2.136 4.287-4.76 6.083-7.424.53-.787.97-1.664 1.28-2.56.3-.867.007-1.676-.733-2.29-1.214-1.013-2.614-1.09-3.782-.068-.717.628-1.344 1.377-1.935 2.126-.928 1.176-1.747 2.435-2.692 3.59-1.414 1.733-1.76 1.76-3.244.204-1.475-1.547-2.856-3.18-4.284-4.768-.503-.56-1.044-1.05-1.823-1.237-1.6-.382-2.767.57-2.715 2.205.035 1.128.514 2.063 1.12 2.955 1.39 2.042 2.936 3.963 4.797 5.587 1.22 1.067 1.808 2.146 1.425 3.886-.315 1.427-.064 2.98-.064 4.477h-.17c0 1.498-.067 2.997.016 4.494.12 2.15 1.94 3.35 4.1 2.756.29-.08.65-.284.76-.53.4-.857.99-1.7.757-2.718-.533-2.328-.176-4.693-.344-7.034-.107-1.493.273-2.607 1.448-3.646z"/></svg>