<svg xmlns="http://www.w3.org/2000/svg" width="128" height="128" viewBox="0 0 128 128"><path d="M110.647 27.502c-.046-2.825-.74-5.46-1.59-8.144-.784-2.477-2.177-3.878-4.455-4.992-2.187-1.07-4.29-1.856-6.733-1.598-.53.06-1.07-.004-1.608.01-7.083.2-14.123-.355-21.12-1.34-5.856-.827-11.715-1.286-17.626-1.073-.213.008-.427 0-.644 0v.136c-2.896 0-5.796-.09-8.686.03-2.242.096-4.512.28-6.693.745-3.065.655-6.13.978-9.248.957-1.073-.007-2.152-.03-3.215.078-1.057.11-2.14.26-3.14.597-2.757.93-4.574 2.72-4.818 5.776-.12 1.496-.224 2.993-.328 4.492-.37 5.342-1.032 10.667-.96 16.037.01.642-.02 1.285-.04 1.93-.17 6.107-.373 12.213-.497 18.32-.085 4.18-.07 8.367-.083 12.55-.002.855-.064 1.75.162 2.557.465 1.69.456 3.4.452 5.11-.004 2.355-.18 4.71-.17 7.066.022 6.22.09 12.443.182 18.662.015.843.087 1.77.45 2.5 2.21 4.466 5.003 8.302 10.528 8.858.955.096 1.905.3 2.862.322 2.677.064 5.36.043 8.038.085 3.968.06 7.936.214 11.904.204 5.254-.016 10.51-.164 15.765-.23 1.605-.02 3.214.064 4.82.064 1.823 0 3.685.196 5.454-.12 2.24-.4 4.47-.46 6.715-.56.963-.042 1.933-.08 2.882-.212 2.658-.38 5.312-.608 8-.303 1.167.13 2.36.112 3.533.046 2.295-.132 4.072-1.172 5.28-3.17 1.076-1.78 1.652-3.727 1.825-5.765.288-3.307.542-6.624.636-9.94.157-5.358.16-10.723.24-16.084.02-1.287 0-2.58.14-3.857.522-4.795.955-9.593 1.025-14.42.048-3.212.173-6.417.465-9.63.412-4.474.578-8.982.624-13.482.043-4.063-.26-8.135-.33-12.206zm-6.577 21.816c-.494 5.135-.483 10.283-.765 15.416-.222 3.955-.64 7.9-.957 11.85-.06.746-.073 1.5-.08 2.25-.027 2.79-.12 5.583-.044 8.37.153 5.804-.708 11.56-.77 17.35-.007.638-.172 1.273-.27 1.91-.365 2.357-.15 2.49-2.725 2.434-1.82-.038-3.626.107-5.44.427-2.103.37-4.258.544-6.393.593-3.206.07-6.4.42-9.617.33s-6.436-.02-9.655.068c-3.215.09-6.42.293-9.632.435-.75.034-1.504.036-2.253.025-1.205-.017-1.2-.027-1.596-1.4-.09-.302-.18-.62-.352-.877-.388-.6-1.5-.707-1.978-.195-.288.31-.592.644-.76 1.024-.362.81-.97 1.064-1.8 1.03-1.072-.044-2.145-.03-3.218-.076-.862-.03-1.05-.44-.645-1.297.418-.87.866-1.725 1.24-2.613.163-.38.32-.876.207-1.23-.15-.464-.494-.965-.898-1.208-.236-.14-.91.07-1.12.335-1.06 1.344-2.113 2.706-3.03 4.153-1.515 2.39-1.885 2.618-4.615 2.203-.103-.016-.205-.06-.307-.085-.384-.096-.675-.658-.49-1 .66-1.228 1.358-2.433 1.987-3.678.238-.465.387-.996.46-1.515.113-.856-.607-1.696-1.457-1.82-.9-.127-1.724.07-2.4.676-.715.645-1.376 1.35-2.062 2.024-.077.075-.17.132-.254.197-.048-.19-.19-.42-.13-.56.91-2.175 1.863-4.33 2.772-6.506.494-1.184.977-2.38 1.346-3.61.262-.867 0-1.69-.704-2.335-.832-.765-1.893-.765-2.5.14-1.075 1.594-2.067 3.247-3.086 4.88-.336.54-.646 1.097-.987 1.637-.04.064-.202.117-.26.085-.175-.084-.39-.187-.465-.34-.354-.74-.17-1.46.17-2.155 1.034-2.123 2.103-4.226 3.092-6.366.538-1.163.98-2.372 1.397-3.584.228-.66-.107-1.255-.478-1.798-.218-.322-.86-.445-1.157-.216-.336.26-.683.517-.974.826-.737.78-1.437 1.594-2.174 2.37-.12.13-.363.15-.555.185-.03.006-.133-.172-.142-.27-.206-2.246-.34-4.484.544-6.646.65-1.586 1.25-3.192 1.872-4.787.238-.597.57-1.175.69-1.794.116-.612.104-1.28-.007-1.9-.158-.895-1.362-1.283-2.024-.692-.316.284-.543.667-.863.948-.203.177-.488.3-.755.34-.08.012-.265-.31-.32-.5-.593-2.032-.495-4.036.386-5.966.8-1.756 1.693-3.47 2.49-5.23.3-.665.52-1.393.63-2.114.112-.773-.537-1.483-1.307-1.534-.53-.035-1.067.032-1.602.046-.82.02-1.072-.23-1.145-1.112-.22-2.776-.533-5.547-.64-8.326-.11-2.786-.02-5.58.01-8.37.03-2.79.054-5.582.15-8.37.104-3.107.307-6.207.424-9.313.045-1.24.53-2.284 1.212-3.265.443-.636 1.028-1.013 1.834-1.167 1.68-.32 3.332-.624 5.074-.594 3.75.064 7.485-.05 11.234-.512 3.28-.4 6.645-.183 9.967-.218 1.827-.02 3.65.062 5.475-.002 4.2-.142 8.32.638 12.474 1.03 3.3.31 6.557.906 9.874 1.15 5.472.406 10.933.31 16.398.36.536.006 1.094-.052 1.6.076.364.096.807.386.957.708 1.082 2.342 1.97 4.73 1.976 7.387.008 3.65.142 7.297.23 11.46-.08 3.136.036 6.803-.313 10.425zm-6.42-19.45c-.47-1.503-1.43-2.602-3.152-2.815-.514-.067-1.027-.283-1.502-.51-.996-.473-2.033-.604-3.123-.615-2.677-.024-5.355-.085-8.032-.158-1.282-.035-2.605.048-3.835-.24-1.7-.398-3.39-.448-5.103-.446-2.356.002-4.705.085-7.04-.41-.932-.195-1.92-.154-2.884-.163-2.14-.02-4.28-.004-6.42-.004v.06c-2.252 0-4.502-.02-6.75.012-1.07.015-2.14.104-3.205.2-1.593.143-3.182.42-4.778.456-1.617.037-3.196.208-4.768.555-2.75.607-3.955 2.033-4.27 4.845-.456 4.067-.235 8.14-.043 12.2.076 1.56.67 3.122 1.18 4.632.47 1.402 1.525 2.443 2.994 2.64 2.214.292 4.463.4 6.7.455 1.49.04 2.986-.205 4.48-.223 5.572-.07 11.146-.086 16.716-.146.853-.01 1.704-.136 2.554-.21 1.383-.124 2.765-.353 4.146-.35 2.24 0 4.46.03 6.697.528 2.278.507 4.668.54 7.013.712 2.463.18 4.913.242 7.23-.896.46-.227 1.042-.226 1.57-.28.82-.08 1.372-.534 1.825-1.17.585-.82 2.462-5.87 2.54-6.856.012-.107.014-.213.014-.32 0-2.574.074-5.15-.033-7.715-.06-1.265-.338-2.55-.72-3.763zm-5.87 14.73c-.018.124-.34.31-.506.29-1.906-.213-3.808-.466-5.714-.693-.74-.085-1.508-.267-2.234-.174-3.42.447-6.827-.123-10.24-.052-1.82.036-3.623.008-5.437.405-1.24.27-2.56.188-3.845.21-3.328.052-6.67-.118-9.973.16-4.284.364-8.576.183-12.853.483-2.796.198-3.105-.17-3.254-3.032-.12-2.354-.025-4.715-.456-7.054-.132-.726-.067-1.503 0-2.25.246-2.69.8-2.574 2.72-2.628.86-.024 1.716-.004 2.575-.004l.02.187c1.804-.203 3.606-.422 5.41-.602.744-.075 1.5-.1 2.25-.085 3.316.067 6.644-.203 9.945.42.832.156 1.712.055 2.57.073 1.284.03 2.543.2 3.818.424 2.632.463 5.31.74 7.98.934 2.24.163 4.4.882 6.69.715 2.135-.158 4.288-.09 6.435-.113.642-.01 1.29-.016 1.93.014.88.037 1.334.467 1.447 1.385.066.53.114 1.07.105 1.602-.032 1.743.23 3.456.912 5.03.683 1.56-.07 2.915-.29 4.352zM59.334 82.142c-.772.354-1.5.823-2.2 1.305-1.59 1.088-3.15 2.212-4.725 3.32-.693.487-1.39.512-2.07-.017-1.18-.92-2.36-1.84-3.52-2.79-.973-.8-2.073-1.05-3.3-.895-.66.085-1.196.606-1.27 1.234-.164 1.356.21 2.523 1.133 3.54.86.95 1.683 1.933 2.505 2.915.398.475.376.984-.06 1.426-.98.993-2.006 1.93-2.947 2.956-.57.62-1.08 1.32-1.487 2.056-.42.758-.053 2.03.706 2.587.715.522 1.53.83 2.39.302.63-.39 1.247-.814 1.825-1.28 1.16-.942 2.286-1.933 3.442-2.884.963-.794 1.276-.803 2.264-.16 1.345.875 2.643 1.83 4.047 2.597.91.5 1.973.725 2.48.902 2.373-.003 3.446-1.704 2.69-3.346-.51-1.102-1.285-1.963-2.238-2.684-.77-.58-1.548-1.146-2.3-1.74-.353-.278-.334-.817.03-1.11.498-.4 1.023-.765 1.53-1.155 1.27-.977 2.586-1.903 3.787-2.96 1-.88 1.083-2.195.38-3.185-.757-1.067-1.936-1.466-3.093-.933zm-13.32-12.717c1.395.135 1.408.213 1.57 1.465.153 1.165.3 2.338.612 3.458.29 1.045 1.423 1.696 2.494 1.656 1.1-.046 1.798-.67 2.162-1.635.224-.59.336-1.236.41-1.868.087-.74.03-1.5.136-2.24.036-.24.363-.558.613-.618.514-.124 1.058-.11 1.59-.128.857-.027 1.72.035 2.567-.064 1.79-.213 2.897-1.52 2.874-3.272-.02-1.594-1.087-2.73-2.81-2.953-.423-.053-.855-.032-1.284-.034-.86-.004-1.714.014-2.57-.01-.814-.02-1.06-.218-1.234-1.134-.22-1.155-.39-2.32-.53-3.486-.096-.778-.376-1.44-.944-1.98-.817-.78-2.34-.58-2.717.456-.363.992-.57 2.05-.763 3.096-.155.837-.11 1.717-.306 2.54-.074.334-.515.767-.847.822-.942.158-1.913.146-2.91.203-.71-.092-1.453-.244-2.196-.27-1.722-.06-3.22 1.266-3.303 2.847-.075 1.442 1.15 2.635 2.912 2.795 1.49.136 2.99.21 4.48.355zm45.07-6.706c-.73-.45-1.535-.627-2.442-.526-1.27.14-2.556.13-3.835.155-3.098.054-6.197.085-9.294.14-.962.016-1.915.064-2.79.574-1.727 1.01-1.834 3.477-.134 4.514.525.32 1.18.482 1.8.578.627.096 1.28.02 1.92.02l-.004-.153c4.267-.085 8.533-.17 12.8-.26.32-.008.644-.015.96-.06 1.19-.16 2.204-1.126 2.354-2.278.15-1.184-.354-2.1-1.334-2.71zm-1.52 24.768c-.32-.027-.64-.032-.958-.02-3.093.072-6.2.006-9.276.276-2.32.207-4.6.84-6.896 1.297-.203.04-.4.16-.572.28-.54.362-1.042.782-1.077 1.49-.04.717.435 1.167.96 1.554.17.125.363.237.56.3 1.328.43 2.677.696 4.085.566 2.438-.227 4.88-.428 7.317-.64l.013.074h2.24c.853.003 1.707-.01 2.558.016.883.03 1.69-.187 2.437-.64.58-.352.917-.875 1.024-1.54.27-1.76-.61-2.853-2.42-3.01zm-10.518-1.882c1.27-.043 2.453-.888 2.912-2.09.442-1.153-.037-2.915-1.02-3.766-.784-.677-1.945-.638-3.25.12-.272.158-.543.33-.78.534-.97.832-1.27 2.067-.785 3.14.592 1.313 1.707 2.098 2.923 2.06zm2.667 9.71c-.38-.174-.783-.335-1.195-.412-1.745-.326-3.547 1.067-3.544 2.705.004 2.74 2.41 4.16 4.77 2.814l.274-.16c.966-.587 1.606-1.376 1.523-2.575-.083-1.185-.8-1.916-1.825-2.377z"/></svg>