<svg xmlns="http://www.w3.org/2000/svg" width="128" height="128" viewBox="0 0 128 128"><path d="M107.275 61.978V42.012c-.686-.42-.504-1.13-.52-1.733-.094-3.327-.11-6.654-.23-9.978-.14-3.925-1.143-7.616-3.38-10.89-.78-1.148-1.895-2.092-2.546-3.297-1.117-2.065-2.914-2.692-5.015-2.918-.427-.045-.858-.082-1.284-.085-4.72-.04-9.44-.16-14.157-.09-7.718.115-15.435.39-23.155.533-5.15.094-10.302.126-15.45.096-2.595-.015-5.132.43-7.662.833-1.78.283-3.5.965-5.233 1.504-.847.263-1.49.782-1.888 1.62-.875 1.838-1.877 3.62-2.67 5.49-.8 1.874-1.387 3.84-1.184 5.927.114 1.168.563 2.357.425 3.48-.142 1.157-.405 2.306-.41 3.488-.02 3.86-.063 7.725-.05 11.587.023 8.26.084 16.522.11 24.784.002 1.084.164 2.114.43 3.168.476 1.864.828 3.755.7 5.713-.127 1.92-.086 3.85-.244 5.77-.17 2.08.818 3.95.93 5.966.02.324.03.645.06.965.223 2.56.367 5.133.697 7.68.625 4.834 3.058 8.388 7.694 10.222 2.086.825 4.196 1.594 6.316 2.323.8.276 1.664.513 2.5.513 6.22.003 12.447.066 18.666-.153 3.107-.11 6.192-.333 9.3.02 1.044.12 2.132-.016 3.188-.14 2.337-.278 4.67-.616 7-.942 2.756-.384 5.515-.747 8.262-1.18 2.728-.428 5.442-.942 8.166-1.388.837-.135 1.693-.154 2.54-.25.737-.086 1.49-.148 2.207-.327 3.035-.755 5.003-2.667 5.177-6.1.094-1.82.05-3.647.08-5.473.017-1.07.03-2.144.12-3.21.02-.253.335-.48.515-.718v-1.29c-.658-.44-.47-1.133-.477-1.736-.07-5.854-.144-11.707-.162-17.557-.01-3.516.064-7.026.128-10.537.01-.604-.15-1.3.512-1.73zm-5.57 2.552c-.17 1.487-.193 2.997-.202 4.497-.02 3.857.05 7.716-.01 11.573-.068 4.39-.24 8.78-.37 13.173-.007.213-.112.454-.04.635.817 2.125-.295 3.964-.833 5.89-.264.95-.89 1.376-1.8 1.602-4.463 1.102-8.91 2.212-13.504 2.73-5.327.604-10.648 1.048-16.003 1.27-3.74.156-7.46.67-11.194.975-1.6.13-3.213.19-4.823.206-3.536.036-7.076-.03-10.613.05-2.214.05-4.277-.56-6.206-1.444-2.305-1.056-4.01-2.797-4.497-5.466-.4-2.21-.82-4.406-1.037-6.653-.43-4.487-.514-8.98-.608-13.483-.037-1.803-.365-3.62-.736-5.395-.493-2.336-.525-4.685-.533-7.04-.016-5.575-.005-11.153-.005-16.73h.003c0-5.577.032-11.153-.015-16.73-.022-2.797.325-5.557.623-8.324.046-.418.096-.89.317-1.227 1.504-2.3 3.283-4.225 6.26-4.528 3.198-.324 6.39-.672 9.615-.634 2.682.03 5.362.012 8.043.002 2.355-.01 4.686-.066 7.037-.497 2.083-.38 4.27-.272 6.413-.267 5.038.015 10.075.107 15.115.14.853.006 1.764.046 2.552-.22 1.893-.638 3.82-.403 5.737-.47 2.923-.1 5.06 1.46 7.06 3.312.228.21.423.512.513.808.59 1.926 1.653 3.718 1.568 5.84-.028.737.043 1.533.294 2.216.643 1.75.69 3.582.835 5.382.2 2.456.378 4.904.795 7.34.27 1.567.573 3.14.26 4.778-.156.815.056 1.702.088 2.558.168 4.71.427 9.42-.102 14.126zM95.02 38.715c-.047-1.383-.272-2.76-.42-4.14-.066-.64-.135-1.277-.206-1.916-.208-1.916-.405-3.83-.632-5.745-.14-1.186-.814-2.002-1.97-2.26-1.14-.257-2.325-.54-3.477-.496-3.53.13-7.056.394-10.58.64-1.705.12-3.404.367-5.11.473-4.38.272-8.768.497-13.152.744-.427.024-.858.058-1.28.128-3.906.637-7.803 1.37-11.787.56-.615-.127-1.28-.02-1.563-.02-2.318-.218-4.207.118-6.04.773-.632.223-1.056.703-1.086 1.443-.057 1.39.058 2.823-.24 4.163-.495 2.246-.366 4.475-.238 6.72.102 1.813.244 3.627.342 5.443.06 1.07-.05 2.163.128 3.21.514 2.993 1.816 5.413 4.91 6.544 1.132.416 2.244.65 3.436.63 2.57-.046 5.12-.18 7.675-.585 3.167-.506 6.397-.59 9.58-1.006 3.317-.434 6.62-.343 9.936-.085.853.064 1.714.15 2.565.113 3.53-.154 7.068-.25 10.585-.564 2.108-.188 4.257-.38 6.2-1.457.827-.457 1.33-1.046 1.554-1.91.132-.516.116-1.085.315-1.568.657-1.596-.316-3.23.088-4.748.454-1.7.526-3.386.47-5.093zm-3.887 6.922c-.055 1.655-1.902 3.456-3.563 3.483-2.786.043-5.58-.128-8.355.043-3.52.22-7.023.69-10.53 1.056-3.722.385-7.398 1.114-11.182.93-3.314-.157-6.645.01-9.967-.03-.953-.014-1.925-.164-2.844-.417-1.65-.454-2.517-1.63-2.396-3.312.226-3.12.015-6.214-.43-9.29-.317-2.176.314-4.26.386-6.394.008-.216.39-.584.62-.6 1.066-.076 2.14-.065 3.21-.06 2.356.014 4.735.267 7.062.027 7.144-.738 14.31-1.013 21.472-1.38 1.064-.054 2.112-.332 3.177-.43 1.28-.118 2.566-.14 3.85-.233 1.06-.074 2.117-.227 3.178-.285.955-.05 1.92-.11 2.863.003.832.1 1.744.264 2.42.706.782.512.406 1.587.624 2.397.703 2.63.387 5.33.42 8 0 1.928.048 3.858-.017 5.786zM68.06 67.712c1.1.02 2.118-.35 3.058-.877.775-.435 1.3-1.106 1.397-2.042.136-1.3.01-2.55-.565-3.762-.304-.64-.72-1.097-1.376-1.216-1.26-.23-2.53-.363-3.46-.49-1.425.1-2.506.1-3.558.276-.944.155-1.875.453-2.778.78-3.245 1.182-3.534 1.757-3.485 5.564.008.63.25 1.26.43 1.877.18.61.93 1.12 1.492.964 2.897-.8 5.845-1.136 8.846-1.072zm24.555-1.225c.57.004 1-.384 1.118-.973.105-.52.19-1.058.178-1.586-.05-2.824-.824-3.957-4.27-4.516-.414-.067-.854 0-1.282 0-.856.002-1.712 0-2.57 0l-.014-.103c-2.34.217-4.683.405-7.02.665-1.15.128-1.754.89-1.584 1.937.255 1.6.815 3.1 1.727 4.45.168.25.456.546.722.587 1.58.223 3.177.575 4.76.52 2.76-.098 5.44-1.003 8.233-.983zm-32.04 16.116c2.02.793 4.172.858 6.593 1.32 1.986-.537 4.318-.994 6.112-2.645 1.09-1.003 1.517-2.416.984-3.826-.483-1.283-1.65-1.906-3.003-2.11-.207-.028-.425-.018-.64-.014-2.353.045-4.71.027-7.06.17-1.044.065-2.076.428-3.1.72-.27.076-.625.347-.686.592-.358 1.438-.885 2.863-.373 4.398.22.658.515 1.13 1.177 1.393zM42.445 69.73c.95-.092 1.922-.084 2.875-.003 2.56.22 4.5-.995 6.278-2.61.574-.524.926-1.174.907-1.974-.016-.637-.02-1.28-.098-1.91-.107-.84-.67-1.318-1.51-1.324-1.812-.013-3.623-.004-5.44-.004v.105c-1.92 0-3.84.05-5.757-.016-1.283-.043-1.998.644-2.432 1.685-.466 1.11-.53 2.303-.198 3.45.14.468.495.977.898 1.244 1.344.888 2.78 1.522 4.477 1.358zm10.71 21.507c-.08-.29-.215-.665-.446-.806-1.267-.784-2.493-1.6-4.167-1.22-1.344.31-2.758.463-4.136.44-2.048-.03-3.72.866-5.38 1.84-.316.187-.468.646-.673.945.206.966.365 1.803.565 2.632.507 2.112 2 3.14 3.97 2.41 1.983-.733 3.978-.738 6.006-.74.43 0 .86-.02 1.288.002 1.62.087 2.528-1.055 3.4-2.1.537-.647-.11-1.417-.255-2.13-.09-.418-.07-.86-.177-1.27zm20.83-1.456c-1.538-.78-3.166-1.29-4.9-1.356-1.07-.04-2.15-.13-3.21-.032-1.044.097-2.066.51-3.11.594-3.724.3-3.286 1.36-3.217 4.143.013.444.408 1.012.796 1.29 1.675 1.195 3.465 2.116 5.638 1.85.528-.064 1.07-.007 1.68-.007 1.418-.11 2.915-.19 4.4-.355.64-.075 1.28-.344 1.572-.98.442-.972.836-1.964 1.195-2.964.324-.903-.004-1.746-.844-2.177zm18.525-2.056c-1.814-.112-3.62-.384-5.432-.402-1.935-.02-3.82.42-5.51 1.413-1.13.66-1.426 2.183-.83 3.373.506 1.01 1.295 1.65 2.288 2.144 1.306.648 2.692.624 4.08.655 1.952.05 3.85-.158 5.61-1.08 1.04-.54 1.676-1.386 1.65-2.548-.02-.837-.235-1.676-.443-2.497-.174-.684-.668-1.012-1.41-1.058zM47.87 76.188c-.32-.004-.665-.08-.96.01-2.088.648-4.244.332-6.365.492-1.427.11-1.97.59-2.108 1.924-.077.74-.085 1.496-.034 2.24.064.942.587 1.525 1.51 1.845 1.864.64 3.776.613 4.942.617 1.613-.082 2.475-.064 3.317-.187 1.053-.152 2.1-.375 3.125-.66.757-.21 1.188-.926 1.106-1.75-.365-3.69-1.583-4.48-4.537-4.532zm35.412 5.775c.537.02 1.07.06 1.604.09 1.995.113 3.82-.476 5.523-1.424.73-.41 1.4-.986 1.976-1.6.7-.746.91-1.7.535-2.687-.37-.965-1.005-1.586-2.154-1.58-.634.008-1.267-.19-1.9-.282-2.146-.31-4.28-.223-6.353.4-.69.208-1.374.605-1.922 1.076-1.087.936-1.183 1.824-.464 3.142.303.56.66 1.098 1.02 1.626.512.75 1.205 1.2 2.135 1.237zm3.925-48.295c-.856-2.027-2.244-2.958-4.233-2.54-2.428.513-4.533 3.068-4.517 6.23.296 1.82.817 4.324 1.077 6.86.15 1.44.853 2.408 1.888 3.173 1.694 1.254 2.976 1.477 4.802-.33.91-.9 1.56-1.958 1.596-3.37.035-1.485.333-2.96.5-4.444.048-.42.126-.867.033-1.265-.334-1.45-.576-2.954-1.15-4.313zm-2.08 11.254c-.2.79-.946 1.155-1.76 1.052-.573-.072-1.146-.35-1.137-.934.04-2.684-.3-5.326-.668-7.972-.053-.392.053-.896.273-1.218.355-.514.817-1.205 1.33-1.297.644-.117 1.02.657 1.268 1.26.755 1.802 1.106 3.69 1.296 5.67-.194 1.148-.318 2.314-.6 3.44z"/></svg>