<svg xmlns="http://www.w3.org/2000/svg" width="128" height="128" viewBox="0 0 128 128"><path d="M62.78 89.614c-.074-4.075-.13-8.147-.228-12.22-.02-.848-.128-1.71-.31-2.538-.656-3.043-3.423-5.006-6.256-4.85-3.74.208-7.5-.026-11.253-.015-2.034.01-4.072.105-6.103.21-2.46.13-4.914.327-7.373.467-1.178.067-2.334.01-3.488-.37-.79-.26-1.68-.305-2.524-.303-.914 0-1.63.623-1.835 1.523-.426 1.875-.97 3.747-1.15 5.65-.367 3.835-.65 7.686-.73 11.536-.1 4.928.01 9.86.075 14.79.04 2.875 1.456 4.397 4.25 4.61 2.57.197 5.163.17 7.693-.31 1.697-.32 3.39-.466 5.103-.497 3-.05 6.003-.085 9.004-.096 2.57-.012 5.147-.068 7.712.07 2.054.11 3.758-.627 5.423-1.66 1.297-.802 1.91-1.888 1.89-3.46-.064-4.18-.023-8.36-.023-12.54h.125zm-6.064-8.294c-.17 6.055-.318 11.614-.486 17.17-.035 1.153-.42 1.61-1.528 1.622-1.813.018-3.63-.053-5.442-.15-.96-.047-1.91-.255-2.867-.34-2.12-.19-4.227-.258-6.376-.082-2.98.242-5.987.13-8.983.153-.75.006-1.077-.357-1.106-1.248-.087-2.78-.123-5.565-.227-8.344-.147-3.95-.396-7.89-.962-11.81-.078-.525-.093-1.064-.085-1.597.01-.494.324-.815.803-.797 1.387.05 2.77.14 4.152.245 1.49.118 2.973.33 4.465.396 2.558.113 5.135-.163 7.675.42.5.116 1.09.108 1.59-.03 2.64-.733 5.324-.283 7.987-.358.902-.025 1.344.445 1.38 1.402.05 1.28.01 2.565.01 3.352zm-34.01-25.494c.023 3.568.51 4.167 3.984 5.02.725.177 1.49.285 2.233.263 2.784-.087 5.57-.167 8.348-.375 5.666-.422 11.32-.98 16.898.717.91.28 1.885.36 2.812.603.976.256 1.71-.155 2.257-.846.387-.487.6-1.124.843-1.714.663-1.62.568-3.363.816-5.054.86-5.848 1.13-11.72 1.065-17.62-.044-4.185.03-8.368.045-12.55 0-.75.018-1.505-.038-2.252-.08-1.076-.688-1.855-1.712-2.09-1.653-.377-3.246-.917-5.013-.89-6.75.095-13.51.017-20.23.81-2.97.352-5.932.768-8.822 1.65-1.423.432-2.194 1.21-2.57 2.545-.09.31-.22.613-.25.928-.178 1.702-.42 3.405-.47 5.114-.132 4.395-.176 8.793-.256 13.19h.064c-.003 4.18-.027 8.365 0 12.547zm7.444-29.483c.964-.036 1.933.016 2.896-.032 2.894-.137 5.78-.32 8.672-.457 1.39-.064 2.81-.235 4.174-.048 2.267.31 4.49.085 6.73-.132.854-.083 1.71-.157 2.57-.192 2.183-.087 2.24.06 1.916 2.38-.384 2.756-.94 5.508-.864 8.306.156 5.483-.676 10.916-.704 16.387 0 .213-.01.43-.05.64-.092.462-.374.802-.846.8-1.608-.006-3.22-.02-4.825-.1-4.068-.198-8.133-.476-12.2-.637-2.36-.092-4.725-.008-7.085-.023-.838-.005-1.18-.326-1.182-1.156-.014-4.186-.008-8.373-.008-12.557-.105-3.972-.216-7.942-.31-11.913-.018-.81.364-1.235 1.112-1.263zm75.674 60.79c0-3.003.01-6.007 0-9.01-.007-2.143-.05-4.287-.05-6.43 0-1.61-.75-2.668-2.274-3.1-.917-.26-1.874-.505-2.818-.52-1.927-.035-3.888-.1-5.78.18-4.274.638-8.55.56-12.836.467-2.573-.058-5.148-.175-7.72-.132-3.04.05-4.965 1.954-5.206 5.006-.067.853-.03 1.714-.045 2.573-.053 2.787.06 5.59-.198 8.36-.544 5.787-.267 11.57-.24 17.356.003.85.272 1.696.31 2.547.053 1.184.683 2.012 1.538 2.702 1.195.97 2.535 1.59 4.125 1.517 1.392-.07 2.82.043 4.173-.215 2.55-.487 5.11-.537 7.68-.562 3.97-.038 7.938-.026 11.904-.05 2.342-.015 4.386-.672 6.037-2.485.917-1.007 1.448-1.985 1.43-3.404-.073-4.936-.03-9.87-.03-14.802zm-5.784 2.75h-.096c0 3.538.006 7.078-.008 10.616-.004.702-.288.934-.995.73-1.696-.495-3.392-.316-5.09-.08-.74.1-1.476.29-2.217.303-5.148.098-10.293.16-15.442.228-.735.01-.94-.215-.88-.935.533-6.428.205-12.86.07-19.29-.03-1.39-.24-2.77-.333-4.157-.03-.473.256-.84.713-.932.94-.192 1.89-.39 2.85-.46 1.6-.11 3.212-.152 4.82-.167 4.395-.043 8.796-.056 13.192-.077.64 0 1.3-.06 1.92.067.352.073.745.404.93.726.555.96.565 2.052.57 3.13V89.88zm-27.517-30.14c2.146.015 4.288.003 6.432.078 4.71.166 9.42.38 14.126.575l.004-.12c2.468 0 4.936-.005 7.403.002 1.003.003 1.933-.217 2.653-.947 2.175-2.212 3.837-4.643 3.258-7.987-.11-.633-.156-1.277-.213-1.917-.132-1.493-.303-2.983-.37-4.48-.07-1.606-.032-3.217-.06-4.826-.082-5.14-.76-10.266-.52-15.418.06-1.288-.596-2.244-1.286-3.207-.53-.744-1.21-1.17-2.164-1.16-1.07.01-2.148-.01-3.217-.09-5.776-.438-11.547-.722-17.317.106-.843.12-1.712.14-2.57.14-2.036 0-4.072-.042-6.11-.06-1.825-.015-2.755.756-3.084 2.563-.06.313-.155.65-.09.946.33 1.516-.367 2.95-.293 4.46.08 1.6.043 3.23-.166 4.817-.43 3.312-.35 6.635-.466 9.955-.075 2.14-.302 4.273-.43 6.41-.113 1.82-.268 3.643-.255 5.464.014 3.2 1.567 4.685 4.735 4.702zm2.87-22.9c.22-1.362.116-2.78.148-4.174.023-.86.05-1.72.023-2.577-.075-2.205 1.147-3.235 3.433-3.278 2.248-.043 4.518.015 6.75.277 3.312.392 6.632.482 9.952.42 3.952-.074 3.683.472 3.727 3.82.037 2.896.05 5.794.146 8.688.097 2.892.3 5.78.425 8.67.06 1.393.068 2.788.06 4.183-.014 1.705-.39 2.128-2.03 2.158-2.252.045-4.507.013-6.758.013-3.11.224-6.208.302-9.3-.28-1.25-.236-2.566-.103-3.852-.134-.535-.015-1.075.01-1.61-.037-.916-.08-1.663-.783-1.616-1.685.266-5.35-.37-10.724.503-16.06zm-23.78 48.202c.374-.494.63-1.077.792-1.365.245-2.517-1.783-4.04-3.752-3.142-.39.177-.734.448-1.106.657-1.304.738-2.617 1.466-3.92 2.208-.817.464-1.51.548-2.292-.21-1.074-1.042-2.287-1.94-3.44-2.9-.603-.5-1.292-.758-2.073-.748-.797.01-1.483.267-1.867 1.02-.373.718-.37 1.47.075 2.14.352.532.824.983 1.232 1.48.612.743 1.22 1.493 1.824 2.244.305.38.35.766-.05 1.112-1.052.914-2.154 1.78-3.16 2.74-.61.58-1.168 1.253-1.6 1.974-.57.96.285 2.23 1.422 2.296.907.053 1.68-.263 2.432-.697 1.49-.856 2.974-1.712 4.453-2.58.736-.434 1.338-.334 2.037.186 1.72 1.278 3.486 2.5 5.28 3.668 1.203.78 2.53.315 3.437-.758.78-.925.644-2.647-.205-3.567-.213-.238-.448-.464-.706-.657-.853-.648-1.723-1.27-2.57-1.927-.135-.107-.26-.49-.237-.508.98-.643 1.987-1.253 2.976-1.886.363-.23.766-.453 1.018-.782zM32.99 40.683c.712.433 1.555.693 2.372.898.61.155 1.277.085 1.917.13 1.43.096 1.545.23 1.553 1.785.002.427 0 .855 0 1.283-.025 0-.048 0-.07.002.04.852.008 1.716.136 2.557.204 1.33 1.695 2.28 2.86 1.904 1.787-.574 3.294-2.5 3.153-4.36-.213-2.87-.245-3.09 2.81-3.113 1.068-.008 2.134-.075 3.124-.59.932-.48 1.493-1.17 1.582-2.237.187-2.236-1.25-3.56-3.59-3.314-1.167.123-2.336.23-3.51.282-.817.036-1.165-.3-1.26-1.11-.073-.638-.073-1.284-.163-1.92-.077-.522-.17-1.057-.37-1.543-.415-1.008-1.582-1.68-2.568-1.555-.97.12-1.89 1.1-2.017 2.22-.06.528-.015 1.07-.027 1.603-.015.64.002 1.285-.07 1.92-.053.454-.368.768-.847.802-.96.07-1.936.04-2.88.194-.72.115-1.47.345-2.09.72-1.35.813-1.384 2.63-.053 3.44zm61.954 46.09c-1.173 0-2.376.007-3.517.248-1.91.404-3.825.455-5.755.455-1.285 0-2.58-.07-3.854.045-.594.05-1.205.394-1.717.737-.646.44-.606 1.472-.02 1.955.87.717 1.886.96 2.99.95 1.93-.015 3.86-.003 5.79-.003v-.04c2.034.07 4.07.19 6.1.2 1.223 0 2.374-1.23 2.27-2.256-.13-1.248-1.1-2.293-2.286-2.293zm-7.917 5.248c-1.444-.02-3.173 1.585-3.213 2.98-.05 1.755 1.387 3.264 3.163 3.328 1.795.064 3.387-1.376 3.405-3.083.02-1.608-1.64-3.202-3.354-3.226zm.09-6.163c2.06.117 3.31-1.23 3.31-3.43 0-1.526-1.24-2.633-2.978-2.657-1.613-.022-2.837 1.4-2.797 3.24.037 1.775 1.202 2.774 2.464 2.847zm-8.075-42.184c.66.285 1.416.437 2.144.482 2.236.14 4.48.18 6.717.293 1.274.064 2.55.16 3.82.3 1.11.12 2.11-.26 3.117-.6 1.02-.344 1.594-1.176 1.635-2.17.04-.996-.504-1.82-1.423-2.35-.87-.505-1.813-.588-2.784-.588h-5.445v-.106c-1.6 0-3.203-.014-4.803.008-.747.008-1.498.035-2.236.142-1.035.15-1.82 1.05-2.025 2.21-.147.815.41 2.005 1.28 2.377z"/></svg>