<svg xmlns="http://www.w3.org/2000/svg" width="128" height="128" viewBox="0 0 128 128"><path d="M111.443 30.756c-.064-.5-.27-1.084-.612-1.43-.9-.9-1.852-1.776-2.9-2.497-.577-.4-1.373-.6-2.092-.663-1.28-.107-2.573-.023-3.86-.058-1.054-.02-1.313-.28-1.49-1.284-.245-1.37-.386-2.773-.795-4.092-.486-1.58-2.866-2.355-4.33-1.493-.326.193-.633.646-.69 1.02-.143.95-.22 1.922-.185 2.884.123 3.307.07 2.928-2.875 3.06-.533.022-1.074.022-1.61-.003-1.06-.05-1.558-.44-1.63-1.57-.095-1.52-.468-2.962-.924-4.39-.273-.856-.876-1.494-1.716-1.805-.49-.183-1.05-.188-1.58-.265-1.273-.187-2.066.314-2.284 1.558-.15.838-.1 1.717-.252 2.557-.695 3.82.153 2.912-3.548 3.704-1.488.32-1.728.03-2.197-1.474-1.57-5.045-.805-3.822-4.355-6.25-.088-.062-.156-.15-.245-.204-1.14-.707-2.49-.21-2.722 1.147-.192 1.145-.21 2.346-.123 3.51.105 1.374.612 2.72.24 4.124-1.364.942-2.91.262-4.357.467-.316.044-.645.01-.965-.012-.894-.054-1.304-.44-1.445-1.393-.075-.53-.04-1.083-.17-1.597-.31-1.242-.598-2.505-1.068-3.688-.536-1.355-1.352-1.76-2.795-1.627-1.436.132-2.592.947-3.762 1.67-.297.182-.477.738-.5 1.134-.036.628.12 1.266.166 1.902.07.957.14 1.92.157 2.88.008.48-.32.794-.787.842-1.384.144-2.772.254-4.157.37-.538.044-1.1-.374-1.134-.906-.07-1.07-.066-2.143-.146-3.21-.128-1.76-1.062-3.002-2.624-3.765-.61-.3-1.275-.28-1.817.17-1.38 1.157-2.336 2.466-1.862 4.455.937 3.946.096 3.287-2.75 3.53-.53.046-1.07.083-1.602.056-.465-.023-.815-.324-.853-.79-.082-.956-.1-1.925-.136-2.89-.038-1.04-.55-1.83-1.31-2.48-.907-.78-1.884-.838-2.99-.417-1.064.405-1.458 1.18-1.55 2.213-.02.214-.02.433-.05.644-.19 1.348.356 2.77-.397 4.064-1.376.088-2.752.19-4.126.264-.75.043-1.502.015-2.25.06-.64.036-1.294.067-1.915.212-2.06.47-2.888 1.5-2.856 3.62.035 2.358.228 4.72.22 7.076-.033 7.834-.076 15.665-.208 23.493-.082 4.944.773 9.827.84 14.762.002.107.024.21.032.32.363 4.053.752 8.1 1.07 12.156.27 3.42.45 6.842.672 10.26.016.217.03.433.08.64.742 3.025 2.094 5.47 5.224 6.764 2.733 1.124 5.498 1.685 8.422 1.664 2.25-.014 4.506.016 6.757.034 6.867.053 13.73.135 20.597.146 1.82.002 3.64-.188 5.46-.333 1.386-.107 2.762-.326 4.148-.412 4.6-.276 9.205-.513 13.806-.772.427-.02.866-.026 1.28-.12 2.32-.533 4.68-.558 7.04-.56 2.36-.004 4.72.043 7.08-.01 4.342-.106 7.847-1.993 8.577-6.934.332-2.22.82-4.435.922-6.67.288-6.317.485-12.642.58-18.967.093-6.434.02-12.872.02-19.31h.105c.064-7.508.128-15.02.186-22.53.002-.855.032-1.723-.08-2.57zm-82.016 4.12c0-.405.163-.813.272-1.21.017-.063.15-.127.233-.127.1-.007.256.03.292.1.194.37.433.74.514 1.14.146.734.14 1.5.293 2.227.27 1.26 1.717 2.533 2.67 2.43 1.155-.126 2.525-1.25 2.822-2.364.11-.413.166-.85.156-1.275-.06-2.045.583-1.985 2.05-1.955.426.01.854.034 1.28.067 2 .153 2.04.192 2.358 2.202.03.21.04.43.088.634.288 1.237 1.562 1.963 2.74 1.446 1.272-.555 2.602-1.104 2.638-2.87.015-.767.63-1.12 1.3-1.177 1.384-.11 2.775-.153 4.165-.17.476-.007.73.372.83.82.19.835.363 1.668.55 2.505.267 1.184 1.13 1.764 2.197 2.12.645.213 1.27.15 1.856-.19 1.53-.875 2.807-1.97 3.28-3.765.137-.515.212-1.063.438-1.536.168-.34.5-.78.827-.843 1.464-.288 2.947-.508 4.432-.65 1.245-.12 1.487.148 1.73 1.32.194.935.35 1.904.717 2.776.59 1.394 1.73 2.056 3.014 1.963 1.267-.09 2.31-.958 2.7-2.39.277-1.026.45-2.09.614-3.143.252-1.632.235-1.637 1.677-1.712.428-.02.86-.03 1.286-.04 2.16-.057 2.172-.035 2.357 1.987.085.953.157 1.923.384 2.848.27 1.117.975 1.6 2.084 1.653 2.433.116 4.076-1.05 4.748-3.433.2-.717.276-1.47.404-2.202.093-.514.453-.712.913-.68.422.027.837.22 1.26.224 2.254.013 3.55.94 3.615 3.373.04 1.45 1 2.343 2.398 2.638 1.493.317 3.008-.48 3.69-1.95.304-.662.333-1.447.59-2.14.08-.224.475-.413.752-.456.463-.072.864.192.955.645.105.52.072 1.066.096 1.6.086 1.82.15 3.638.263 5.457.032.54-.227.836-.66.904-1.057.163-2.12.305-3.185.344-2.357.09-4.717.062-7.072.174-1.383.064-2.76.304-4.14.46-.532.062-1.063.13-1.6.163-3.418.22-6.84.405-10.257.644-1.385.1-2.758.333-4.14.47-1.173.11-2.35.223-3.525.244-4.18.07-8.363.084-12.542.166-1.926.037-3.85.19-5.773.288v-.043c-6 .13-12.003.286-18.006.36-1.045.01-2.225.755-3.107.025-1.024-.85-.402-2.22-.452-3.35-.096-2.25-.075-4.504-.067-6.753zm75.136 53.282c-.248 2.662-.126 5.358-.186 8.043-.03 1.4-.162 2.775-.602 4.12-.238.725-.672 1.06-1.392 1.075-1.824.032-3.648.064-5.472.073-3.102.02-6.19.1-9.297.46-3.927.45-7.872.9-11.855.908-4.178.01-8.34.416-12.485.998-.633.088-1.284.053-1.928.053-4.608-.003-9.21.103-13.816-.38-2.87-.298-5.797-.285-8.68-.11-2.847.173-4.71-1.277-6.24-3.28-.605-.788-.78-1.972-.956-3.01-.3-1.792-.508-3.61-.645-5.42-.284-3.74-.486-7.487-.737-11.228-.174-2.563-.434-5.124-.555-7.69-.286-6.103-.816-12.2-.616-18.32.014-.43 0-.86.033-1.29.062-.782.437-1.173 1.202-1.237 3.522-.288 7.07-.397 10.56-.896 4.497-.645 8.992-.397 13.49-.443 5.36-.06 10.727.15 16.073-.48 1.38-.16 2.784-.115 4.18-.16 2.25-.064 4.51.02 6.726-.497.31-.072.64-.053.96-.07L103.2 48.32c.563-.026 1.06.384 1.107.934.047.533.062 1.07.073 1.606l.585 26.512c.066 2.223 0 6.5-.402 10.784zm-32.912-23.5c-.62-.044-1.256-.18-1.85-.374-.947-.308-1.527-1.078-1.457-1.852.074-.82.555-1.36 1.305-1.65.395-.148.794-.33 1.205-.383 2.46-.324 4.87.05 7.237.646.558.142 1.083.66 1.486 1.125.756.87.374 2.18-.72 2.59-.585.214-1.208.33-1.655.445-1.935-.632-3.755-.44-5.55-.552zM42.536 62.31c1.355.15 2.094 1.142 2.016 2.448-.065 1.093-.69 1.817-1.73 2-.106.017-.212.045-.32.045-2.137-.036-4.28-.044-6.416-.143-.5-.02-1.027-.286-1.472-.555-.67-.404-1.13-1.003-1.044-1.85.085-.828.608-1.375 1.323-1.684.478-.205 1.024-.316 1.547-.343.96-.055 1.926-.016 2.89-.016v.08c1.072 0 2.152-.097 3.21.02zM76.32 77.947c-1.475.17-2.966.25-4.45.233-.606-.008-1.244-.287-1.804-.57-1.264-.632-1.296-2.42-.027-3.108.635-.34 1.39-.527 2.113-.627.946-.13 1.916-.107 2.475-.13 1.354 0 2.314-.056 3.263.018.723.056 1.31.787 1.388 1.55.085.802-.14 1.534-.864 1.915-.65.342-1.377.64-2.096.72zM43.43 88.354c.724.37 1.143 1.006 1.07 1.79-.075.78-.626 1.472-1.355 1.59-.63.102-1.272.124-1.91.177-1.272.105-2.548.176-3.818.31-1.09.114-2.12.003-3.093-.537-.79-.437-.946-1.49-.328-2.173.835-.92 1.91-1.365 3.1-1.49.846-.085 1.704-.017 2.558-.017 1.267-.015 2.563-.27 3.776.35zm48.83-23.637c-1.084-.096-1.734-.08-2.347-.224-.728-.168-1.376-.514-1.824-1.19-.525-.786-.44-1.778.342-2.222.544-.307 1.156-.642 1.756-.68 1.91-.13 3.83-.146 5.745-.15.4 0 .826.19 1.195.38.643.324.928 1.43.45 1.95-.488.534-1.05 1.148-1.7 1.356-1.3.42-2.683.59-3.62.783zM79.83 86.745c.82.528.98 1.918.187 2.475-.678.48-1.472.9-2.272 1.067-1.14.243-2.332.23-3.43.32-.926-.054-1.78-.056-2.624-.168-.687-.095-1.125-.583-1.323-1.236-.21-.698.094-1.28.608-1.7.4-.323.89-.66 1.38-.74 1.785-.287 3.585-.48 5.382-.684.785-.09 1.457.26 2.093.668zM53.1 66.013c-.314.03-.637.01-.952-.027-.755-.088-1.6-.902-1.752-1.66-.133-.657.54-1.74 1.326-1.978.706-.213 1.444-.336 2.178-.448 1.045-.162 2.1-.28 3.15-.418 1.213-.01 2.333.2 3.323.95.745.56.834 1.58.1 2.193-.392.33-.88.67-1.36.736-1.995.274-4.007.45-6.012.653zM34.52 78.85c-.586-.34-.952-.863-.943-1.567.006-.698.65-1.448 1.404-1.538 2.125-.25 4.25-.533 6.384-.63 1.447-.064 2.36 1.434 1.73 2.692-.22.442-.66.84-1.095 1.097-1.15.683-2.45.707-3.777.66-1.266.05-2.547-.036-3.7-.714zm62.562-5.813c1.045.31 1.573 1.047 1.504 2.146-.067 1.04-.742 1.723-1.84 1.856-.212.02-.425.033-.64.035-.638.004-1.277.002-2.245.002-.735-.052-1.814-.04-2.854-.238-.582-.11-1.136-.513-1.632-.88-.416-.305-.44-1.086-.07-1.443.455-.43.932-.996 1.49-1.135 2.06-.51 4.15-.987 6.288-.347zm-37.703 5.7c-2.356.314-4.69.277-6.928-.657-.28-.116-.514-.374-.73-.602-.54-.575-.323-1.68.427-1.842 1.343-.293 2.717-.453 3.39-.558 2.083.11 3.495-.19 4.8.518.505.275.855.624.87 1.22.015.574-.22 1.048-.696 1.358-.354.23-.74.51-1.137.562zm1.435 8.78c.767.387 1.55.772 1.617 1.792.043.7-.66 1.516-1.653 1.697-1.04.19-2.115.213-2.94.288-1.2-.08-2.163-.09-3.11-.22-.86-.115-1.45-.942-1.45-1.846.002-.88.62-1.76 1.492-1.806 1.808-.1 3.62-.064 5.43-.07.205-.002.427.068.612.16zm35.432-.757c.767.022 1.39.463 1.88 1.06.303.373.364 1.107.093 1.483-.448.63-1.018 1.092-1.807 1.167-1.47.144-2.946.254-4.585.392-.037-.01-.25-.03-.45-.085-.72-.2-1.46-.38-1.725-1.216-.237-.75.37-1.837 1.3-2.3.377-.184.78-.41 1.182-.433 1.368-.07 2.745-.11 4.115-.066z"/></svg>