<svg xmlns="http://www.w3.org/2000/svg" width="128" height="128" viewBox="0 0 128 128"><path d="M88.4 46.632c1.706-.124 3.412-.27 5.124-.338 1.103-.043 1.507.392 1.58 1.55.046.75.044 1.5.052 2.25.064 6.118.11 12.236.194 18.35.02 1.49.158 2.972.245 4.458 1.493.98 3.115.08 4.66.313.21.032.432-.002.645-.03.496-.063.723-.383.768-.852.03-.32.036-.643.038-.963.046-7.616.025-15.228.38-22.842.266-5.783.09-11.587.215-17.38.048-2.07-.175-3.855-2.25-4.894-.266-.134-.47-.437-.656-.693-.783-1.065-1.9-1.32-3.125-1.324-1.18-.003-2.364.008-3.544-.023-1.052-.024-1.248-.162-1.498-1.284-.252-1.148-.344-2.33-.608-3.475-.285-1.222-.922-2.173-2.335-2.296-.32-.028-.636-.088-.955-.134-1.24-.183-2.098.384-2.244 1.61-.115.957-.14 1.932-.11 2.892.092 2.923.013 2.685-2.863 2.784-.642.024-1.287.012-1.927-.042-.602-.05-.928-.44-1.047-1.027-.325-1.57-.62-3.146-1-4.703-.344-1.408-1.38-2.112-2.733-2.418-1.683-.38-2.41.034-2.848 1.674-.193.72-.33 1.46-.42 2.202-.134 1.056.11 2.302-.37 3.136-.653 1.126-2.204.363-3.28.803-.196.08-.413.117-.623.146-.6.08-.97-.162-1.184-.814-.472-1.42-.87-2.868-1.415-4.257-.225-.565-.652-1.227-1.16-1.465-.884-.41-1.622-.955-2.405-1.5-.914-.64-2.328.073-2.483 1.18-.11.737-.12 1.496-.11 2.243.028 1.395.118 2.788.156 4.18.032 1.214-.215 1.44-1.52 1.488-.43.017-.86.02-1.288.015-4.28-.04-3.38.527-4.34-3.712-.234-1.034-.572-2.052-.963-3.04-.346-.87-1.08-1.26-2.027-1.327-1.594-.113-2.86.736-4.192 1.365-.242.115-.452.498-.496.784-.096.628-.107 1.276-.1 1.916.003 1.18.063 2.357.06 3.536 0 .466-.286.827-.763.857-1.286.077-2.574.117-3.86.136-.84.013-1.204-.323-1.24-1.104-.038-.856.042-1.727-.078-2.57-.24-1.66-.95-3.093-2.51-3.89-.43-.22-1.15-.334-1.52-.12-1.313.76-2.506 1.696-2.39 3.48.064.964.13 1.927.155 2.89.034 1.142-.305 1.548-1.443 1.686-.85.107-1.71.157-2.566.197-.868.04-1.225-.254-1.275-1.035-.03-.533.044-1.083-.05-1.605-.146-.84-.29-1.704-.62-2.48-.734-1.756-2.7-2.32-4.286-1.345-.93.573-1.2 1.504-1.286 2.467-.1 1.173-.035 2.357-.066 3.537-.017.633-.424 1.05-1.013.974-2.246-.29-4.467.155-6.695.232-2.826.098-4.054 1.696-3.743 4.446.072.638.273 1.266.302 1.902.21 4.612.242 9.224-.114 13.833-.083 1.067-.242 2.136-.224 3.2.096 5.25-.11 10.496.33 15.75.434 5.23.82 10.464 1.276 15.69.42 4.806.653 9.627.87 14.444.09 1.956.506 3.787 1.19 5.61.683 1.814 1.992 3.08 3.575 3.945 2.57 1.4 5.458 2.143 8.346 1.97 2.694-.165 5.345.116 8.014.13 3.328.02 6.654.006 9.98.006v.15c3.543 0 7.082.004 10.623-.006.858-.004 1.745.065 2.57-.127 3.473-.804 7.04-.562 10.555-.97 3.343-.386 2.903-.063 2.963-3.418.008-.43.004-.862-.013-1.288-.043-1.073-.302-1.392-1.316-1.348-3.53.147-7.08-.1-10.593.55-1.154.21-2.35.243-3.53.25-4.612.01-9.228-.013-13.842-.045-.964-.005-1.944-.018-2.89-.184-1.92-.336-3.817-.43-5.753-.113-.945.156-1.932.123-2.892.064-2.744-.167-4.418-1.95-5.867-4.02-.17-.245-.19-.61-.227-.925-.63-5.317-1.265-10.632-1.427-15.997-.113-3.75-.29-7.51-.728-11.23-.342-2.89-.423-5.77-.46-8.66-.032-2.577-.02-5.153-.017-7.728.002-.644.01-1.288.053-1.93.026-.472.285-.812.776-.854 1.07-.094 2.15-.077 3.206-.24 5.627-.866 11.28-1.216 16.98-1.193 5.354.02 10.705.136 16.07-.29 5.228-.42 10.49-.44 15.735-.822 4.483-.324 8.964-.83 13.48-.7.745.02 1.493-.14 2.244-.194zm-18.563-5.398c-2.56.16-5.102.59-7.654.868-.956.107-1.92.176-2.883.186-6.76.064-13.52.103-20.277.155-1.712.013-3.41.126-5.12.34-2.333.295-4.71.234-6.98.32-2.293-.308-4.55.41-6.72-.426-.562-2.105-.166-4.248-.242-6.37-.05-1.484.07-2.974.15-4.46.01-.098.317-.2.498-.256.064-.02.21.063.248.135.14.277.288.56.36.86.226.94.363 1.9.637 2.82.402 1.338 1.75 2.127 2.994 1.833 1.013-.24 1.717-.885 2.09-1.83.234-.594.33-1.242.475-1.87.37-1.567.42-1.618 1.797-1.593.534.01 1.07.043 1.605.078 1.675.115 1.705.113 2.027 2.065.128.785.416 1.43 1.06 1.9.55.404 1.154.573 1.806.29 1.52-.662 2.907-1.42 2.965-3.4.01-.254.566-.684.892-.705 1.493-.096 2.997-.098 4.498-.082.463.005.736.338.83.82.185.94.276 1.92.63 2.79.737 1.805 2.674 2.39 4.236 1.335 1.657-1.114 2.86-2.53 3.12-4.643.144-1.147.562-1.415 1.692-1.562.742-.098 1.492-.184 2.24-.205.923-.024 1.967-.94 2.715-.05.49.588.465 1.6.72 2.403.223.71.415 1.458.793 2.087 1.22 2.033 3.825 2.053 4.973.008.458-.817.655-1.797.867-2.726.142-.62.094-1.28.144-1.923.05-.62.41-.96 1.014-1.034 1.06-.122 2.125-.233 3.19-.336.503-.05.845.242.922.69.213 1.264.36 2.538.538 3.807.216 1.54 1.395 2.438 2.955 2.246 2.252-.28 3.836-1.888 4.17-4.213.09-.62.043-1.373.384-1.81.516-.66 1.392-.262 2.11-.18.526.06 1.04.253 1.56.378 1.547.374 1.552.374 1.723 1.793.048.424.004.877.128 1.275.16.498.373 1.018.7 1.416.8.976 1.887 1.51 3.128 1.203 1.198-.294 2.073-1.123 2.46-2.334.196-.61.175-1.296.435-1.863.13-.286.66-.488 1.03-.528.227-.025.53.29.736.513.132.143.195.392.2.597.07 2.25.13 4.504.167 6.755.008.587-.384.96-1.008 1.01-.533.04-1.072.08-1.605.055-3.872-.186-7.727.123-11.54.645-3.523.482-7.052.505-10.575.732zm51.18 61.262c0-1.013.018-1.656-.003-2.3-.166-5.62-1.856-10.725-5.154-15.287-2.507-3.47-5.954-5.55-10.063-6.445-7.47-1.618-14.472-.17-21.042 3.597-.923.53-1.752 1.23-2.58 1.91-2.457 2.013-4.066 4.645-5.498 7.438-1.956 3.818-2.816 7.843-2.55 12.106.065 1.064.34 2.114.46 3.18.523 4.586 2.253 8.687 5.024 12.35 1.373 1.81 3.046 3.315 5.023 4.46.65.376 1.05.242 1.69-.273 1.323-1.067.912-2.805 1.67-4.083.077-.13-.027-.427-.128-.597-.378-.645-.674-1.4-1.214-1.874-1.614-1.418-2.287-3.344-3.013-5.235-.768-2.007-1.115-4.12-1.525-6.226-.626-3.2-.113-6.156 1.26-9.053 1.294-2.73 2.837-5.248 4.892-7.51 1.13-1.247 2.323-2.08 3.886-2.655 3.09-1.13 6.25-1.357 9.49-1.264 4.618.132 7.997 2.19 10.012 6.34.695 1.436 1.257 2.958 1.696 4.494.994 3.47.77 7.036.363 10.542-.38 3.298-1.886 6.13-4.576 8.213-.218.164-.533.2-.803.295-.076-.3-.212-.6-.22-.907-.017-.747.035-1.5.04-2.248.004-.688-.27-1.237-.846-1.637-.352-.245-.67-.544-1.035-.768-1.577-.974-3.393-.666-4.54.85-1.17 1.535-2.238 3.146-3.383 4.697-.825 1.12-1.534 2.416-2.594 3.25-1.472 1.16-1.777 2.59-1.758 4.244.02 1.615.743 2.784 2.328 3.02 1.832.278 3.443 1.145 5.203 1.564 2.603.623 5.216 1.217 7.83 1.777.622.133 1.284.153 1.92.117 2.617-.14 4.066-3.013 2.575-5.173-.41-.59-1.124-.96-1.63-1.493-.14-.15-.156-.643-.02-.793.422-.472.912-.902 1.434-1.272 2.147-1.54 3.637-3.603 4.84-5.916 1.934-3.706 2.69-7.66 2.546-11.44zM65.932 62.98l.012-.072c.853.04 1.71.134 2.562.11 1.178-.032 2.067-.708 2.17-1.544.1-.79-.596-1.81-1.535-2.242-.096-.043-.197-.085-.296-.117-2.714-.85-5.485-.88-8.264-.5-.79.106-1.317.687-1.468 1.514-.184 1.024.39 2.012 1.41 2.174 1.792.285 3.603.46 5.408.676zm-32.637-2.575c-.42-.066-.848-.072-1.275-.08-.747-.012-1.495-.003-2.242-.003v.056c-1.173 0-2.35-.062-3.517.018-1.14.075-1.845.795-1.937 1.77-.098 1.033.343 1.748 1.47 2.196.583.235 1.213.46 1.83.49 1.705.08 3.414.056 5.12.065.212.002.428-.03.636-.068 1.05-.21 1.943-1.26 1.92-2.26-.02-1-.926-2.005-2.006-2.18zM60.81 75.68c1.004.338 2.054.54 2.896.75 1.29-.207 2.347-.364 3.398-.556.523-.096 1.067-.183 1.54-.405.812-.386 1.407-1.005 1.4-1.98-.01-.854-.913-1.793-1.863-1.964-.312-.053-.643-.083-.96-.053-1.702.163-3.407.322-5.103.544-.512.067-1.024.288-1.49.526-.64.328-.865.928-.822 1.62s.352 1.298 1.006 1.517zM43.958 64.077c1.683-.136 3.368-.3 5.045-.527.61-.083 1.227-.31 1.78-.59.822-.413.982-1.873.268-2.47-.39-.325-.895-.614-1.386-.703-.827-.145-1.685-.115-2.248-.145-1.24.08-2.2.085-3.14.224-.724.11-1.455.316-2.128.603-.75.316-1.067.98-1.024 1.805.045.78.5 1.434 1.278 1.637.5.13 1.043.203 1.556.162zm24.798 20.11c-.213-.014-.43-.022-.638.003-1.79.22-3.58.437-5.365.69-.3.042-.595.212-.87.366-.612.344-.927 1.154-.783 1.94.127.7.578 1.178 1.22 1.324.716.164 1.473.144 2.633.24 1.17-.192 2.75-.39 4.3-.723 1.236-.264 2.175-1.387 1.967-2.15-.24-.894-1.29-1.617-2.464-1.692zm-44.363 4.756c.25.65.765 1.043 1.444 1.072 1.165.05 2.33.01 3.495.01v-.066h3.5c1.534-.008 2.498-1.26 2.392-2.058-.128-.917-1.067-1.756-2.323-1.803-1.8-.07-3.61-.08-5.402.063-.802.062-1.602.49-2.343.87-.71.358-1.013 1.25-.763 1.906zm56.145-14.458c1.52.625 3.12.704 4.736.677.533 0 1.07.006 1.605-.004.212-.002.43-.02.637-.064.91-.178 1.755-1.118 1.824-2.01.065-.856-.703-1.88-1.62-2.16-.103-.033-.203-.078-.307-.09-2.153-.207-4.284-.152-6.31.7-.378.16-.702.484-.996.786-.626.653-.373 1.835.432 2.163zm-52.28 3.168c2.296.064 3.746-.2 4.99-1.157.63-.48.925-1.34.698-1.995-.27-.784-.86-1.267-1.666-1.276-1.388-.02-2.78.032-4.16.14-.846.063-1.69.232-2.513.436-.917.227-1.307.77-1.27 1.585.035.813.45 1.46 1.242 1.675 1.122.302 2.274.507 2.675.592zM84.78 62.336c.82-.165 1.642-.423 2.4-.78.88-.407 1.25-1.277 1.066-2.105-.145-.66-.742-1.133-1.72-1.13-2.124.02-4.253.086-6.378.208-.934.056-1.605.802-1.685 1.64-.096.97.56 1.93 1.55 2.108.833.15 1.69.17 2.314.227.97-.058 1.732-.018 2.453-.166zm-41.25 13.97c1.555.364 3.11.82 4.73.66.737-.075 1.476-.222 2.185-.432.997-.3 1.608-1.086 1.518-1.803-.072-.574-.773-1.246-1.62-1.347-1.16-.135-2.335-.15-3.503-.216l-.006.146c-.958 0-1.92-.01-2.88.003-.316.006-.637.05-.95.11-.476.087-1.098.685-1.028 1.083.072.39.248.815.508 1.11.267.306.66.598 1.05.687zm.913 12.25c.416.304.907.584 1.4.677.723.135 1.483.096 2.223.13 0-.018.003-.036.003-.055.74 0 1.487.032 2.23-.008.99-.053 1.834-.47 2.534-1.178.37-.373.465-1.084.08-1.438-.45-.424-.945-.986-1.497-1.093-2.098-.403-4.23-.356-6.336-.01-.652.108-1.11.618-1.27 1.29-.163.693.09 1.287.63 1.687zm-5.75-87.09h.693c-.038-.262 0-.57-.13-.78-.262-.44-.59-.852-.933-1.24-.378-.422-.94-.454-1.392-.13-.356.255-.267 1.015.21 1.317.523.33 1.088.587 1.553.832z"/></svg>