<svg xmlns="http://www.w3.org/2000/svg" width="128" height="128" viewBox="0 0 128 128"><path d="M111.552 32.648c.02-1.978-.24-3.62-2.214-4.565-.35-.17-.56-.633-.832-.965-.434-.527-1.01-.79-1.675-.843-.85-.064-1.71-.104-2.565-.132-.86-.03-1.72.02-2.573-.066-.557-.053-1.002-.44-1.12-1.013-.255-1.256-.404-2.54-.69-3.79-.404-1.79-2.42-2.966-4.17-2.436-.358.11-.74.495-.894.847-.206.47-.258 1.035-.277 1.563-.043 1.178-.015 2.357-.035 3.538-.015.787-.4 1.296-1.096 1.34-1.18.075-2.358.112-3.538.096-.858-.013-1.426-.505-1.47-1.387-.083-1.628-.45-3.19-.993-4.704-.633-1.755-2.704-2.68-4.507-2.032-.347.128-.694.548-.828.91-.213.593-.275 1.247-.363 1.878-.177 1.275-.31 2.555-.492 3.825-.064.453-.352.8-.82.85-1.068.11-2.14.19-3.212.242-.576.03-1-.215-1.19-.83-.442-1.434-.873-2.868-1.4-4.268-.177-.474-.548-1.064-.97-1.214-1.04-.373-1.818-1.07-2.698-1.664-.284-.187-.818-.132-1.192-.028-.81.22-1.286.86-1.31 1.653-.037 1.39.046 2.778.117 4.168.043.744.203 1.485.253 2.23.053.765-.34 1.176-1.147 1.19-1.502.028-3.004.03-4.506.005-.78-.01-1.12-.37-1.257-1.17-.235-1.368-.387-2.764-.747-4.1-.216-.795-.662-1.578-1.18-2.226-.56-.702-1.446-1.02-2.328-.72-1.104.372-2.197.836-3.203 1.413-.397.223-.69.845-.78 1.332-.118.61.007 1.27.05 1.904.066 1.064.18 2.126.217 3.192.017.48-.33.79-.81.808-1.5.053-2.998.096-4.498.082-.46-.004-.78-.348-.8-.837-.044-.962-.09-1.93-.08-2.892.016-1.682-.89-2.82-2.157-3.74-.675-.484-1.796-.438-2.425.062-1.443 1.15-2.267 2.53-1.75 4.474.19.712.258 1.472.277 2.214.005.24-.288.667-.5.706-1.362.26-2.738.47-4.116.625-.443.047-.84-.24-.875-.738-.075-1.07-.05-2.148-.16-3.215-.15-1.408-1.024-2.357-2.26-2.9-1.51-.673-3.357.485-3.532 2.225-.14 1.38-.078 2.784-.15 4.177-.02.466-.445.942-.81.825-1.64-.53-3.165.398-4.768.258-.954-.08-1.94-.02-2.89.117-2.352.356-3.118 1.594-3.027 3.42.12 2.465.246 4.932.238 7.4-.03 7.938-.14 15.88-.18 23.82-.01 2.144.048 4.293.21 6.432.29 3.843.73 7.676 1.03 11.518.322 4.168.55 8.34.836 12.512.147 2.138.292 4.273.497 6.406.296 3.054 1.67 5.543 4.35 7.072 2.345 1.344 4.934 2.045 7.69 2.014 4.396-.05 8.783.094 13.18.306 5.354.256 10.727.132 16.093.16.75.005 1.51.005 2.25-.107 4.668-.712 9.367-.997 14.082-1.182 3.424-.133 6.865-.31 10.254-.785 2.032-.286 4.042-.402 6.076-.41 2.36-.012 4.723.06 7.083-.024 4.24-.154 6.833-3.076 7.246-6.07.334-2.432.97-4.845 1.094-7.286.316-6.212.502-12.433.59-18.65.094-6.653.022-13.306.022-19.96h.292c0-7.617-.045-15.236.028-22.858zm-82.104 1.724c.006-.275.213-.576.4-.81.132-.165.733.42.818.836.085.418.155.84.22 1.264s.086.86.19 1.27c.348 1.358 1.264 2.218 2.38 2.277 1.257.064 2.566-.784 2.958-2.05.217-.707.224-1.476.333-2.215.117-.79.448-1.082 1.29-1.082.643 0 1.29.01 1.93.082.72.08 1.63-.186 2.085.5.32.477.267 1.21.35 1.83.11.81.5 1.428 1.246 1.744.367.154.868.287 1.205.16 1.413-.536 2.825-1.105 3.003-2.956.09-.9.745-1.227 1.606-1.195.32.014.643-.02.965-.018 1.067.013 2.266-.262 3.168.133 1.04.456.683 1.9 1.048 2.877.6 1.598 1.525 2.33 3.087 2.28.667-.024 1.237-.254 1.77-.667 1.487-1.158 2.634-2.533 2.865-4.475.107-.895.54-1.302 1.426-1.407 1.277-.145 2.536-.403 3.81-.568 1.15-.15 1.613.198 1.81 1.275.135.736.174 1.498.387 2.208.28.93.752 1.764 1.602 2.34.974.662 2.055.68 2.98-.02.794-.6 1.397-1.333 1.58-2.34.21-1.16.404-2.32.605-3.48.08-.463.33-.812.794-.873 1.162-.15 2.332-.273 3.5-.346.487-.03.775.34.82.81.09.96.165 1.923.202 2.885.097 2.684 2.1 3.657 4.51 2.63 1.395-.594 2.24-1.622 2.646-3.03.177-.61.238-1.26.36-1.885.14-.705.417-.99 1.02-.955.75.043 1.504.085 2.243.203 1.38.218 2.406.836 2.44 2.434.003.21.037.427.084.635.457 2.087 1.585 2.916 3.642 2.717 1.047-.102 1.877-.576 2.283-1.534.325-.78.447-1.635.682-2.45.14-.477.52-.65.982-.608.463.04.835.27.856.768.066 1.608.082 3.218.145 4.824.032.85.165 1.7.156 2.55-.004.23-.33.564-.58.66-.386.145-.834.16-1.26.17-1.07.024-2.15.065-3.22.012-3.662-.192-7.28.34-10.89.79-2.24.28-4.476.5-6.722.48-3.342-.028-6.61.61-9.92.86-1.173.087-2.342.284-3.514.3-6.652.074-13.303.102-19.954.16-1.82.013-3.622.11-5.44.377-2.11.31-4.278.203-6.447.277-2.072-.35-4.235.482-6.293-.42-.073-2.02-.16-4.043-.213-6.06-.037-1.393-.05-2.79-.024-4.182zm75.11 54.01c-.22 2.344-.07 4.72-.168 7.077-.06 1.38-.2 2.776-.444 4.137-.23 1.286-.437 1.4-1.66 1.55-2.125.263-4.235.453-6.4.148-1.353-.192-2.773.023-4.156.14-3.63.295-7.264.554-10.877.983-4.27.503-8.597.167-12.832.716-5.89.757-11.774.412-17.66.462-1.38.013-2.763-.267-4.15-.384-.957-.078-1.92-.15-2.88-.15-1.825-.012-3.65-.02-5.47.057-1.388.053-2.447-.504-3.5-1.335-1.808-1.423-2.667-3.194-2.82-5.506-.276-4.167-.763-8.316-1.16-12.47-.01-.107-.01-.216-.016-.32-.293-5.35-.518-10.706-.902-16.045-.316-4.392-.376-8.782-.35-13.177 0-.536-.027-1.087.092-1.6.056-.25.387-.554.646-.616.62-.143 1.27-.15 1.907-.22 3.616-.405 7.21-1.008 10.862-1.073.96-.02 1.92-.19 2.88-.25 1.28-.08 2.573-.256 3.842-.156 4.818.37 9.628.405 14.44-.06.533-.052 1.073-.046 1.61-.07 6.21-.293 12.43-.44 18.625-.94 3.427-.276 6.842-.41 10.272-.466.956-.02 1.914-.18 2.87-.29.424-.048.846-.202 1.267-.2 6.93.07 5.813-1.588 5.987 5.343.18 7.29.365 14.574.548 21.863.082 4.288-.002 8.565-.402 12.847zm-8.384-31.307c-.528.35-.98.816-1.483 1.21-.752.592-1.515 1.175-2.287 1.74-.405.296-.825.255-1.1-.172-.752-1.166-1.462-2.355-2.202-3.526-.863-1.365-2.557-1.342-3.367.056-.498.864-.747 1.76-.235 2.738.945 1.79 1.837 3.61 2.812 5.38.247.453.664.87 1.1 1.14.612.386 1.317.62 1.59.738 1.472.053 2.368-.324 3.14-.907 1.447-1.093 2.864-2.236 4.237-3.42.555-.48 1.024-1.09 1.42-1.713.612-.964.413-2.112-.404-2.918-.913-.9-2.146-1.057-3.22-.345zM77.002 65.32c.61-1.973 1.49-3.767 2.71-5.424.362-.498.508-1.154.655-1.51.017-1.28-.9-2.38-1.888-2.544-1.28-.208-2.333.125-3.063 1.25-.523.81-1.038 1.62-1.57 2.42-.26.386-.687.404-1.105.104-.86-.62-1.7-1.277-2.598-1.835-1.024-.64-2.543.156-2.944 1.15-.298.746-.302 1.522.177 2.143 1.436 1.864 2.805 3.802 4.448 5.465 1.647 1.664 4.434 1.187 5.178-1.216zM63.02 71.328c-.716-.363-1.42-.518-2.106 0-.51.384-.994.81-1.443 1.265-.743.752-1.45 1.54-2.174 2.317-1.286-.192-1.677-1.523-2.663-2.094-.092-.053-.173-.128-.26-.188-.968-.676-2.025-.576-2.912.27-.906.866-1.103 2.544-.24 3.513 1.42 1.593 2.937 3.108 4.47 4.596.35.34.93.594 1.423.62 1.237.076 2.468-.336 3.03-1.433 1.072-2.106 2.342-4.05 3.788-5.905.244-.313.276-.787.358-1.045-.14-.963-.54-1.54-1.27-1.912zm-20.222-8.966c-1.167-.09-2.347-.02-3.52-.02v-.005c-1.28 0-2.564-.064-3.84.02-1.017.067-1.81.963-1.858 1.876-.04.747.55 1.648 1.39 1.965 2.686 1.016 5.45.875 8.196.38.992-.177 1.454-1.14 1.376-2.256-.075-1.092-.693-1.88-1.744-1.96zm.682 25.925c-2.856-1.032-5.68-.722-8.46.318-.382.142-.72.457-1.028.743-.757.706-.496 2.025.48 2.39.392.145.82.25 1.237.268.96.04 1.93.013 2.89.013v-.11c1.073 0 2.15.06 3.214-.02.622-.05 1.244-.274 1.835-.5.577-.225.91-.918.844-1.59-.068-.68-.348-1.27-1.013-1.513zm29.997-10.245c1.06-.085 2.133-.105 3.18-.28.61-.1 1.213-.383 1.753-.7.78-.46 1.054-1.343.804-2.232-.227-.802-.802-1.285-1.594-1.365-2.468-.26-4.864.378-7.266.77-.717.117-1.205.86-1.267 1.68-.045.592.612 1.492 1.233 1.736.293.12.606.215.917.247.742.075 1.49.098 2.24.146zM79 86.255c-.73-.115-1.47-.122-1.595-.13-1.57.096-2.533.092-3.473.235-.832.126-1.668.334-2.446.65-.725.297-1.124.954-1.144 1.763-.015.623.642 1.4 1.355 1.604.403.113.828.163 1.245.21 1.935.202 3.78-.422 5.672-.635.384-.043.757-.367 1.094-.612.547-.39.87-.923.782-1.627-.08-.674-.707-1.333-1.49-1.46zM52.62 65.9c.834.04 1.684-.202 2.945-.382.546 0 1.52.107 2.458-.032.818-.12 1.632-.44 2.377-.81.69-.342.75-1.34.264-1.956-.49-.623-1.12-1.07-1.89-1.052-2.123.048-4.248.155-6.365.328-.488.04-.986.39-1.413.69-.795.566-.873 1.934-.09 2.525.48.365 1.128.663 1.715.69zm44.404 6.908c-.74-.107-1.493-.107-2.243-.15-1.4.03-2.793.01-4.1.64-.702.336-1.25.816-1.55 1.55-.194.46-.025.848.296 1.154.224.213.508.424.798.494 1.882.457 3.787.747 5.728.602.524-.037 1.052-.186 1.537-.38.826-.327 1.197-1.11 1.09-2.11-.098-.943-.69-1.68-1.554-1.8zm-61.91 6.173c1.113.317 2.273.467 3.564.71 1.117-.29 2.357-.544 3.552-.946.745-.248 1.255-1.33 1.168-2.075-.094-.818-.827-1.54-1.766-1.53-2.01.038-4.02.11-6.022.3-.565.053-1.138.495-1.615.875-.508.405-.538 1.253-.102 1.72.352.375.76.815 1.22.946zm26.366 8.75c-1.178-.544-2.417-.784-3.744-.86-1.14.21-2.29.384-3.416.645-.69.16-1.007.757-1.163 1.397-.15.622.348 1.504 1.006 1.818.38.184.785.416 1.186.432 1.483.06 2.974.102 4.454.013.603-.035 1.25-.33 1.756-.68.39-.273.69-.78.85-1.248.18-.512-.336-1.243-.93-1.515zm35.982-.66c-.195-.076-.392-.163-.597-.202-1.803-.334-3.605-.24-5.394.07-.777.132-1.285.703-1.683 1.36-.514.854-.02 2.102.966 2.268.83.14 1.69.125 2.534.177l.004-.148c.744 0 1.503.088 2.228-.028.72-.114 1.467-.34 2.083-.713.39-.236.673-.8.81-1.27.154-.543-.396-1.286-.946-1.514z"/></svg>