<svg xmlns="http://www.w3.org/2000/svg" width="128" height="128" viewBox="0 0 128 128"><path d="M85.254 39.634c2.57-.136 5.137-.264 7.707-.366.576-.02 1.02.42 1.055.98.048.86.075 1.718.085 2.575.063 6.118.09 12.237.19 18.354.11 6.42-.89 5.26 5.588 4.686.514-.046.71-.434.732-.892.036-.856.04-1.713.05-2.572.052-5.472.065-10.948.16-16.42.078-4.502.253-9.004.4-14.053 0-2.03-.108-4.612.033-7.18.134-2.5-.055-4.732-2.643-5.967-.977-1.57-2.546-1.824-4.198-1.87-1.074-.03-2.15.02-3.216-.084-.33-.032-.79-.402-.904-.72-.28-.8-.402-1.658-.57-2.496-.13-.626-.147-1.286-.35-1.886-.515-1.506-2.026-2.21-3.982-1.933-.808.112-1.358 1.055-1.44 2.602-.053.962-.01 1.93-.02 2.896-.004.32.004.65-.068.96-.047.187-.222.47-.366.488-1.467.168-2.9.834-4.42.29-.556-.197-.882-.508-1.004-1.107-.29-1.468-.53-2.956-.97-4.38-.82-2.626-2.497-2.69-4.542-2.45-.323.038-.743.49-.853.833-.288.912-.482 1.864-.615 2.812-.117.848-.085 1.714-.153 2.57-.066.775-.435 1.206-1.186 1.284-1.064.11-2.14.212-3.205.187-.33-.01-.703-.41-.95-.715-.187-.23-.22-.592-.303-.902-1.03-3.834-1.03-3.834-4.177-5.99-.263-.18-.51-.387-.793-.533-.597-.31-1.657.064-1.917.73-.192.485-.334 1.023-.338 1.54-.013 1.503.064 3.004.092 4.507.014.642.053 1.29-.03 1.92-.032.247-.343.595-.584.65-.512.12-1.065.118-1.598.1-1.277-.034-2.553-.11-3.83-.168-.842-1.184-.735-2.626-1.087-3.944-.25-.925-.474-1.88-.896-2.73-.67-1.362-2.12-1.874-3.57-1.348-.496.18-.896.65-1.394.774-1.744.437-2.044 1.632-1.925 3.19.097 1.28.093 2.57.065 3.853-.005.224-.316.58-.54.63-.406.09-.85-.044-1.278-.02-1.167.053-2.33.14-3.5.214-.986-1.1-.406-2.448-.558-3.676-.228-1.845-1.138-3.216-2.734-4.11-.335-.187-.868-.264-1.22-.14-1.44.513-2.467 2.188-2.51 3.75-.04 1.357.54 2.74-.16 4.075-1.356.237-2.71.482-4.065.71-.426.073-.837-.274-.863-.725-.043-.75-.037-1.5-.085-2.247-.07-1.094-.398-2.1-1.123-2.954-.77-.902-1.735-1.173-2.89-.965-1.104.198-1.683.908-1.95 1.9-.164.61-.237 1.26-.275 1.894-.056.853-.024 1.715-.068 2.57-.024.492-.348.758-.832.788-.32.02-.644-.035-.96-.01-2.35.194-4.704.32-7.04.63-1.655.217-2.62 1.5-2.637 3.148-.003.32.023.644.07.96.782 5.237.404 10.493.215 15.744-.058 1.603-.294 3.208-.27 4.81.075 4.714-.043 9.424.33 14.143.42 5.342.822 10.682 1.296 16.02.42 4.696.637 9.41.86 14.122.096 2.06.55 4 1.23 5.933.58 1.635 1.968 2.48 3.11 3.574 2.69 1.064 5.37 2.094 8.35 2.077 4.833-.026 9.66.06 14.49.118.963.01 1.93.107 2.89.168 4.39.29 8.77.33 13.17-.085 3.838-.36 7.663-.916 11.537-.935 3.303-.015 3.01.216 3.037-3.257.004-.644.004-1.288-.02-1.933-.033-.786-.366-1.067-1.247-1.08-.43-.006-.86 0-1.288.022-3.318.2-6.636.4-9.95.62-.534.035-1.055.188-1.586.253-.74.093-1.488.216-2.23.22-3.65.02-7.3.026-10.95.002-1.068-.007-2.14-.117-3.205-.198-1.603-.12-3.197-.32-4.8-.368-1.93-.06-3.865.037-5.795.002-.627-.012-1.355-.057-1.85-.38-1.07-.692-2.067-1.524-3.002-2.39-.636-.59-.933-1.398-1.035-2.297-.513-4.686-1.15-9.355-1.33-14.075-.158-4.07-.46-8.136-.7-12.203-.01-.214-.02-.43-.048-.643-.885-6.086-.39-12.21-.49-18.32-.012-.743.39-1.063 1.255-1.114 1.606-.095 3.248 0 4.813-.3 2.02-.388 4.04-.478 6.078-.55.427-.016.872.02 1.283-.083 2.325-.58 4.69-.465 7.046-.416 10.09.208 20.164-.18 30.234-.8.214-.013.432-.005.643-.035 4.048-.585 8.125-.59 12.2-.65.96-.007 1.918-.163 2.877-.216zm-12.44-5.632c-5.126.352-10.255.65-15.382.992-7.28.484-14.57.344-21.856.448-1.71.026-3.416.267-5.125.367-1.923.11-3.85.18-5.775.265v-.035c-1.395 0-2.788.012-4.18-.002-1.35-.015-1.577-.205-1.59-1.42-.032-2.895-.038-5.79-.047-8.686 0-.315.027-.644.117-.94.053-.16.256-.353.42-.38.158-.025.46.097.51.226.255.695.468 1.408.66 2.125.11.413.107.853.222 1.265.284 1.04 1.352 1.978 2.254 2.027 1.014.053 2.465-.828 2.796-1.845.292-.91.414-1.875.61-2.816.142-.665.454-1.005 1.068-.947 1.166.113 2.33.3 3.488.473.494.075.69.44.75.898.068.53.08 1.077.235 1.58.336 1.132 1.41 1.79 2.493 1.458 1.36-.416 2.69-1.042 2.947-2.618.184-1.128.773-1.357 1.74-1.393 1.172-.043 2.34-.206 3.517-.28.536-.034 1.045.41 1.145.94.154.84.202 1.706.443 2.516.374 1.245 1.287 1.98 2.588 2.07.51.04 1.126-.027 1.537-.29 1.664-1.05 3.125-2.31 3.356-4.447.126-1.137.697-1.707 1.845-1.82.956-.09 1.89-.383 2.846-.464 2.486-.208 2.115-.108 2.513 1.812.128.627.273 1.268.535 1.846.256.574.584 1.165 1.027 1.597 1.8 1.756 3.81.845 4.68-1.003.61-1.296.68-2.685.766-4.08.066-.98.448-1.325 1.41-1.39.854-.06 1.713-.086 2.572-.097.815-.008 1.146.233 1.29 1.1.193 1.16.27 2.335.42 3.5.16 1.243.865 1.856 2.16 1.92 2.755.13 4.517-1.28 4.92-3.968.08-.526.06-1.07.112-1.6.05-.506.378-.765.864-.704 1.06.14 2.117.31 3.172.49 1.144.195 1.483.532 1.632 1.62.072.53.04 1.082.16 1.597.373 1.596 1.634 2.545 3.27 2.528 1.492-.017 2.634-.88 3.037-2.368.136-.512.097-1.077.25-1.582.127-.424.495-.66.983-.66.62 0 1.106.332 1.12.884.072 2.356.145 4.714.13 7.07-.002.293-.467.72-.808.847-.48.18-1.045.18-1.58.19-1.5.025-3-.002-4.5.023-2.57.043-5.133.107-7.682.565-1.997.363-4.045.456-6.072.595zm46.567 54.19c-.726-3.394-1.907-6.562-3.865-9.437-2.573-3.78-5.978-6.317-10.494-7.398-2.23-.533-4.46-.494-6.7-.56-5.07-.154-9.713 1.344-14.086 3.78-3.258 1.812-5.824 4.336-7.552 7.673-.343.665-.724 1.312-1.06 1.98-2.18 4.32-3.192 8.83-2.25 13.665.1.523.112 1.064.164 1.597.26 2.688.94 5.282 2.146 7.686 1.394 2.78 3.006 5.43 5.467 7.456 5.076 4.187 10.99 5.062 17.245 4.256 3.854-.497 7.43-1.992 10.813-3.9 4.77-2.695 8.155-6.547 9.736-11.854.8-2.686 1.11-5.445 1.01-8.238.067-2.263-.094-4.482-.573-6.707zm-7.11 12.448c-.576 1.995-1.48 3.77-2.942 5.264-2.95 3.012-6.613 4.644-10.635 5.637-3.087.765-6.147.757-9.205-.08-2.344-.643-4.23-2.03-5.838-3.807-.353-.39-.67-.875-.82-1.37-1.132-3.89-2.75-7.69-2.285-11.792-.14-2.577.188-5.004.798-7.407.437-1.724 1.3-3.115 2.72-4.222 4.73-3.685 10.016-5.67 16.064-5.44 5.083.193 8.75 2.526 10.86 7.18 1.202 2.656 1.94 5.434 1.902 8.386-.03 2.566.103 5.136-.62 7.656zM32.986 53.504c-.58-.245-1.22-.408-1.848-.476-.744-.08-1.5-.02-2.25-.02v-.013c-.86 0-1.727-.082-2.572.025-.73.092-1.47.313-2.133.63-1.2.575-1.27 2.516-.147 3.233.354.226.763.382 1.167.51 2.087.654 4.24.564 6.38.453.515-.026 1.044-.252 1.516-.486.72-.358 1.114-.98 1.14-1.805.03-.96-.386-1.683-1.254-2.05zm33.738 2.458c1.005.256 1.88-.25 2.565-1.02.415-.467.43-1.272.077-1.792-.51-.755-1.235-1.252-2.083-1.405-1.685-.3-3.392-.474-5.25-.722-.81.166-1.764.32-2.69.565-.9.24-1.363 1.01-1.295 1.967.055.766.545 1.38 1.35 1.62.404.12.83.223 1.253.24 2.034.07 4.064.03 6.07.547zm-43.417 25.75c.177.703.796 1.236 1.653 1.293.85.056 1.71.013 2.564.013v-.075c.964 0 1.93.04 2.89-.015.64-.036 1.27-.198 1.9-.326 1.227-.25 1.93-.917 1.873-1.805-.064-1.01-.772-1.465-1.623-1.77-.2-.072-.405-.2-.606-.197-1.92.017-3.843.002-5.757.117-.605.038-1.212.405-1.783.69-.933.466-1.32 1.243-1.112 2.074zm36.588-13.104c.293.124.597.27.902.3 1.92.18 3.836.232 5.717-.272.512-.135 1.013-.335 1.483-.576.584-.3 1.058-1.317.96-1.907-.133-.805-.914-1.61-1.717-1.668-.74-.053-1.49-.01-2.124-.01-.75.034-1.4.016-2.03.108-1.05.153-2.105.325-3.132.584-.753.19-1.184.896-1.21 1.7-.027.78.39 1.424 1.148 1.743zm-16.02-11.844v-.053c.746-.036 1.492-.073 2.242-.113.213-.01.433.002.64-.043.935-.205 1.895-.348 2.79-.663 1.043-.365 1.206-2.047.278-2.65-.527-.34-1.127-.674-1.736-.775-2.374-.402-4.662.22-6.93.804-.875.223-1.253 1.162-1.06 2.077.163.78.753 1.36 1.535 1.408.74.047 1.49.01 2.238.01zm39.743-1.494c1.018-.176 1.995-.697 2.928-1.184.61-.32.763-.995.65-1.672-.116-.712-.607-1.184-1.258-1.288-.94-.147-1.905-.117-2.86-.162 0 .062 0 .123-.002.184-.958 0-1.93-.085-2.873.03-.718.087-1.44.36-2.097.683-.734.358-.928 1.586-.435 2.258.528.715 1.21 1.237 2.124 1.255 1.278.025 2.58.117 3.826-.1zM69.323 77.532c-.736-.42-1.49-.757-2.404-.62-1.36.21-2.737.278-4.09.513-.705.126-1.41.413-2.045.757-.68.37-.946 1.243-.706 1.937.223.652.71 1.065 1.393 1.133.843.085 1.693.093 2.43.128 1.17-.084 2.245-.06 3.28-.27.8-.16 1.62-.495 2.29-.96 1.016-.7.896-2.025-.15-2.62zm-44.87-7.682c1.12.304 2.287.45 2.85.555 1.253-.064 1.92-.002 2.527-.155.816-.206 1.645-.478 2.364-.9.98-.58 1.003-1.976.162-2.77-.58-.555-1.256-.795-2.048-.71-1.803.193-3.61.372-5.41.592-.99.12-1.565.757-1.615 1.68-.046.79.336 1.48 1.17 1.705zm55.497-2.326c1.146.235 2.334.27 4.032.437.646.185 1.803.176 2.95-.243.85-.31 1.433-1.15 1.34-1.963-.118-1.043-.833-1.918-1.81-1.936-1.815-.035-3.633-.008-5.44.14-.58.048-1.158.5-1.674.86-.54.38-.84 1.255-.544 1.705.274.416.704.91 1.144 1zM44.112 81.82c1.047.15 2.112.193 3.168.283 0-.043.003-.085.005-.128.743 0 1.488.016 2.23-.005 1.574-.043 2.56-1.16 2.593-1.925.032-.72-1.073-1.763-2.328-1.867-1.688-.14-3.394-.073-5.088-.02-.388.01-.8.272-1.14.506-.552.376-.886.915-.844 1.615.043.69.668 1.44 1.403 1.542zm-1.6-12.69c1.235.27 2.49.454 3.243.586 1.365-.06 2.215-.067 3.06-.143.793-.07 1.354-.558 1.823-1.168.368-.478.24-1.39-.26-1.694-.83-.507-1.73-.85-2.708-.79-1.905.114-3.805.292-5.707.45-.1.01-.224.046-.288.115-.275.303-.702.6-.747.94-.043.345.226.81.497 1.092.275.292.69.528 1.088.614zm63.856 26.08c-.54-.292-1.207-.453-1.828-.483-1.927-.096-3.86-.08-5.79-.145-1.102-.037-1.3-.36-1.144-1.38.405-2.642.877-5.28 1.117-7.937.358-3.985-.512-3.957-3.467-5.09-.896-.342-1.683-.027-2.216.767-.62.928-.846 1.952-.832 3.05.06 4.078-.143 8.143-.557 12.198-.03.32-.06.642-.062.962-.02 2.022.69 2.895 2.628 3.442 2.197.62 4.45.627 6.624.693 1.254 0 2.433 0 3.615-.003.213 0 .427-.015.642-.043 1.378-.173 2.44-1.123 2.68-2.392.29-1.566-.206-2.99-1.41-3.64z"/></svg>