<svg xmlns="http://www.w3.org/2000/svg" width="128" height="128" viewBox="0 0 128 128"><path d="M124.485 90.736c-.007-.5-.03-1-.1-1.493-.563-3.94-1.12-7.885-1.722-11.82-.33-2.16-.768-4.304-1.12-6.465-.14-.867-.585-1.47-1.36-1.835-1.54-.72-3.124-1.333-4.847-1.395-1.296-.05-2.598-.064-3.89.01-.885.05-1.816.134-2.635.445-1.16.448-2.32.46-3.52.47-5.29.042-10.58.08-15.868.205-1.787.043-3.566.405-5.354.48-2.492.107-4.99.09-7.486.1-4.888.017-9.777-.044-14.648.514-1.214.14-2.362.315-3.342 1.112-.305.245-.644.535-1.008.612-1.42.296-1.946 1.246-2.072 2.563-.037.393-.2.777-.226 1.17-.355 5.185-.66 10.36.683 15.475.38 1.44.633 2.912.914 4.378.1.53-.274 1-.814 1.005-2.795.042-5.573.268-8.338.682-.294.043-.597.026-.896.026-3.795-.002-7.587.002-11.38-.02-.995-.005-2.028.05-2.98-.18-1.682-.405-3.366-.34-5.06-.336-1.295.003-2.594.053-3.892.02-.587-.012-1.27 0-1.743-.276-2-1.167-4-2.387-3.893-5.17.015-.392-.053-.797-.113-1.19-.517-3.348-.848-6.716-1.02-10.102-.207-4.183-.302-8.382-.756-12.54-.416-3.787-.424-7.563-.46-11.35-.015-1.896-.013-3.79.005-5.687.01-.89.213-1.154.954-1.237 3.168-.358 6.334-.707 9.504-1.035 1.686-.174 3.37-.344 5.06-.43 1.29-.066 2.593-.02 3.887.017 1.094.032 2.19.18 3.28.17 3.39-.02 6.772-.052 10.163-.247 4.876-.277 9.76-.425 14.64-.736 4.476-.29 8.94-.83 13.442-.673.687.02 1.378-.213 2.072-.243 2.088-.1 4.174-.172 6.26-.204.207-.005.573.33.6.54.112.79.14 1.59.148 2.386.043 3.995.04 7.986.107 11.98.094 5.98-.7 4.92 5.22 4.077.453-.065.72-.377.73-.8.04-1.798.024-3.596.067-5.39.15-6.283.31-12.565.5-20.066 0-1.376-.084-3.974.026-6.564.094-2.127-.105-4.008-2.28-5.064-.082-.04-.148-.132-.202-.215-.8-1.236-2.02-1.524-3.38-1.505-.5.007-1-.01-1.5-.003-2.72.038-2.846-.048-3.337-3-.032-.197-.026-.4-.055-.597-.307-2.197-.74-2.663-2.908-3.134-.196-.042-.42-.18-.574-.123-.448.16-.97.302-1.266.63-.31.336-.483.87-.542 1.343-.098.785-.102 1.594-.07 2.387.1 2.594-.043 2.5-2.384 2.58-.6.018-1.2.02-1.796-.017-.672-.043-1.106-.44-1.237-1.088-.237-1.17-.412-2.354-.71-3.51-.166-.665-.425-1.354-.817-1.905-.86-1.213-2.176-1.34-3.5-1.085-.944.183-1.063 1.122-1.258 1.87-.174.67-.218 1.377-.256 2.07-.207 3.563.24 2.914-3.42 3.243-.2.018-.4.015-.6.015-.576.01-.93-.305-1.114-.808-.136-.373-.207-.768-.313-1.152-.316-1.152-.47-2.41-1.312-3.296-.596-.624-1.444-1-2.17-1.5-.245-.168-.445-.402-.693-.56-1.04-.654-2.325-.047-2.402 1.206-.08 1.29-.068 2.592-.01 3.886.17 3.757.48 3.38-3.195 3.4-2.623.015-2.608 0-3.188-2.63-.256-1.163-.497-2.347-.917-3.456-.533-1.404-2.133-2-3.467-1.42-.725.313-1.475.596-2.13 1.023-.378.244-.743.71-.832 1.137-.142.668-.045 1.384-.045 2.083 0 .994.04 1.995-.017 2.987-.01.222-.3.544-.527.62-.366.12-.79.106-1.186.082-1.16-.06-2.363.394-3.478-.26L32.864 23c-.017-.202-.01-.402-.048-.598-.23-1.227-.832-2.236-1.824-2.994-.823-.625-1.973-.56-2.77.07-1.125.886-1.466 2.015-1.355 3.426.324 4.235.46 2.983-3.34 3.867-.19.047-.397.026-.596.018-.44-.023-.77-.22-.802-.69-.05-.694-.055-1.394-.082-2.09-.037-.925-.314-1.78-.862-2.513-.626-.84-1.43-1.38-2.566-1.18-1.22.213-1.992.923-2.222 2.116-.147.777-.112 1.586-.166 2.38-.047.688.09 1.483-.206 2.044-.437.832-1.27-.043-1.89.12-1.86.493-3.764.33-5.644.51-1.937.188-3.05 1.502-2.98 3.417.007.204.012.404.044.6.774 4.565.5 9.165.235 13.736-.16 2.79-.205 5.577-.27 8.363-.103 4.196.217 8.37.467 12.55.203 3.384.407 6.77.74 10.14.51 5.16 1.027 10.316 1.112 15.503.03 1.93.452 3.74 1.194 5.49.224.536.54 1.063.928 1.49.934 1.035 1.986 1.865 3.34 2.42 1.98.815 3.984 1.256 6.102 1.247 4.09-.02 8.173.093 12.26.29 4.98.243 9.98.123 14.97.144.696.004 1.395-.06 2.087-.13 1.388-.143 2.77-.32 4.156-.465.89-.093 1.807-.064 2.677-.247 2.103-.44 1.897.126 2.26 1.732.09.387.146.784.188 1.18.154 1.45.958 2.358 2.3 2.845.927.342 1.924.583 2.75 1.093.81.5 1.626.683 2.53.75 4.48.333 8.96.512 13.457.463 1.794-.018 3.59.085 5.385.186 1.49.083 2.973.32 4.464.356 7.587.192 15.15-.14 22.66-1.27 3.248-.49 6.473-1.12 9.708-1.7 1.024-.185 1.813-.733 2.443-1.58.693-.928.957-1.93.94-3.076-.074-4.085-.102-8.177-.154-12.27zM15.968 31.8c.256.055.65.18.702.363.267.958.41 1.948.665 2.91.328 1.235 1.23 1.98 2.293 1.995 1.05.01 2.12-.743 2.503-1.803.14-.37.24-.763.305-1.154.363-2.13.177-2.124 2.74-1.97.598.036 1.203.066 1.78.2.224.055.49.36.555.6.116.475.08.99.162 1.476.228 1.346 1.76 2.155 2.97 1.45.848-.49 2.037-.767 2.144-1.89.132-1.438.79-1.873 2.116-1.756.69.06 1.394-.033 2.093-.036 1.628-.004 1.626.003 1.895 1.555.085.484.136.99.3 1.45.703 1.993 2.887 2.607 4.602 1.3 1.312-1 2.275-2.22 2.42-3.952.08-.934.61-1.415 1.55-1.487.593-.046 1.18-.176 1.774-.24.885-.097 1.854-.435 2.635-.19 1 .318.567 1.566.863 2.375.373 1.04.66 2.07 1.59 2.795 1.147.896 2.474.815 3.466-.277.622-.687.942-1.525 1.1-2.415.12-.683.115-1.39.18-2.084.095-1.06.366-1.405 1.463-1.504 3.575-.32 3.205-.6 3.76 2.767.064.39.026.8.072 1.19.168 1.42 1.297 2.315 2.688 2.148 2.183-.256 3.533-1.582 3.933-3.86.368-2.095.422-2.156 2.336-1.878.69.1 1.356.322 2.038.46.704.144.943.596 1.003 1.268.065.687.142 1.394.366 2.04.404 1.148 1.27 1.71 2.512 1.754 1.33.044 2.322-.45 2.938-1.638.134-.256.18-.563.245-.85.085-.393.113-.796.235-1.17.13-.406.453-.635.896-.63.444.003.774.233.89.64.108.378.143.784.152 1.18.047 1.89.088 3.783.1 5.676 0 .445-.302.748-.75.766-1.194.05-2.39.134-3.583.08-3.704-.172-7.35.476-11.02.754-1.584.12-3.165.387-4.75.405-3.596.04-7.146.46-10.696.966-.786.11-1.588.13-2.383.14-5.98.055-11.963.09-17.94.143-2.19.02-4.364.07-6.55.395-1.852.273-3.778.057-5.67.057v.122c-1.695 0-3.39.012-5.085-.005-.576-.005-.92-.35-.923-.933-.018-3.09-.02-6.18-.006-9.268-.004-.15.248-.446.33-.427zm102.44 69.53c-.138.326-.458.73-.767.797-1.453.328-2.924.595-4.4.804-2.66.38-5.332.706-8 1.04-.493.063-.994.08-1.492.09-3.49.08-6.982.15-10.475.226-4.49.003-8.966-.208-13.448-.523-2.865-.2-5.774-.272-8.653.22-1.072.184-2.19.117-3.286.102-.58-.008-1.346.043-1.7-.288-.63-.582-1.035-1.42-1.48-2.187-.14-.24-.158-.59-.128-.88.4-3.68-1.003-7.054-1.813-10.518-.84-3.59-1.84-7.136-1.81-10.873.005-.887-.256-1.773-.358-2.66-.15-1.3.17-1.606 1.436-1.5.995.08 1.99.18 2.985.176 5.39-.002 10.78-.006 16.166-.07 1.79-.023 3.577-.254 5.366-.346 1.792-.095 3.59-.19 5.383-.182 4.39.013 8.78.077 13.172.142.693.01 1.385.15 2.08.195 1.685.102 3.378.226 5.07.26.575.01 1.155-.224 1.735-.34.634-.135 1.114-1.234 1.766-.593.41.4.36 1.29.47 1.97.494 3.046.97 6.098 1.454 9.146.077.49.22.978.245 1.47.206 4.38.398 8.765.584 13.148.015.39.047.827-.1 1.173zM29.86 60.304c-.175-.932-.863-1.672-1.78-1.728-1.088-.07-2.187-.016-3.278-.016l-.005-.16c-1.286.08-2.578.122-3.857.27-.676.074-1.2.77-1.264 1.486-.067.743.12 1.46.82 1.777.8.363 1.668.704 2.53.78 1.482.132 2.98.07 4.472.046.384-.006.79-.116 1.146-.27.835-.354 1.374-1.37 1.216-2.19zm30.11-3.322c-1.173-.194-2.377-.22-3.428-.308-.94.043-1.733.072-2.528.113-.198.014-.397.045-.59.085-1.04.22-1.637 1.234-1.333 2.278.22.752.76 1.165 1.51 1.244 2.076.22 4.154.416 6.23.6.395.034.817.06 1.184-.05.466-.135.913-.377 1.326-.642.476-.303.583-1.11.303-1.608-.59-1.045-1.575-1.53-2.674-1.71zM19.723 84.97c.164.643.62 1.07 1.25 1.11 1.088.075 2.187.02 3.28.02v-.074c1.194 0 2.388.032 3.58-.016.724-.03 1.315-.405 1.748-1.01.464-.65.28-1.714-.4-2.112-.25-.147-.53-.262-.81-.358-2.38-.817-4.724-.263-7.057.235-.363.075-.702.37-1 .63-.476.4-.76.92-.59 1.575zm22.714-23.46c.58-.067 1.155-.275 1.707-.486.5-.192.752-.617.797-1.158.058-.657-.186-1.19-.734-1.52-.33-.204-.736-.357-1.116-.383-.893-.052-1.793-.015-3.29-.015l-1.19.075c-.2.013-.402.008-.596.045-.485.096-.987.16-1.445.33-.945.35-1.453 1.285-1.224 2.134.222.833 1.158 1.503 2.037 1.43 1.685-.138 3.37-.26 5.054-.45zm33.507-5.113c-1.18.132-2.366.224-3.546.356-.485.054-.986.118-1.444.278-.943.34-1.286 1.806-.555 2.486.414.387.966.696 1.513.853.555.16 1.178.093 1.835.127.733-.037 1.53-.05 2.32-.13 1.01-.104 1.923-.488 2.67-1.194.76-.723.482-2.045-.47-2.475-.755-.343-1.522-.39-2.325-.3zM20.79 74.037c2.042.654 4.095.723 6.145.066.368-.113.722-.334 1.026-.576.59-.465.87-1.088.685-1.842-.155-.64-.805-1.175-1.538-1.213-.79-.046-1.586-.01-2.403-.01-1.265.145-2.553.236-3.816.462-.797.142-1.192.763-1.187 1.5.004.757.417 1.397 1.09 1.613zm18.124 10.987c.935.267 1.91.402 2.755.574 1.123-.14 2.114-.177 3.065-.395.99-.224 1.882-1.19 1.728-1.77-.22-.837-.875-1.283-1.662-1.543-1.95-.636-3.9-.467-5.834.068-.708.196-1.237.867-1.214 1.508.028.77.444 1.352 1.16 1.557zm-1.88-11.947c.338.195.72.405 1.092.42 1.77.086 3.544.15 5.314.133.85-.008 1.493-.552 1.803-1.328.12-.294.04-.843-.17-1.053-.32-.328-.822-.605-1.267-.644-1.077-.09-2.165-.027-3.25-.027v.004c-.988 0-1.974-.032-2.96.008-.885.04-1.528.533-1.525 1.105.008.668.444 1.075.966 1.376zM80.1 84.133c-1.664-2.307-3.98-3.19-6.79-2.74-1.24.2-2.2.822-2.92 1.873-.768 1.122-1 2.35-1 3.676.003 1.585.125 3.213-.164 4.754-.293 1.56.032 2.984.433 4.395.412 1.446 1.33 2.597 2.602 3.526 1.41 1.03 2.95 1.01 4.544 1.058 1.637.05 2.907-.68 3.927-1.81.588-.646.96-1.497 1.356-2.292.682-1.382.646-2.893.644-4.386.155-3.19-.794-5.504-2.628-8.05zm-3.965 10.795c-.59.338-1.61-.923-1.762-2.39-.15-1.48-.122-2.975-.12-4.46.002-.235.245-.593.454-.66.22-.07.632.052.784.234 1.126 1.34 1.657 2.915 1.68 4.576-.074 1.07-.04 2.13-1.034 2.702zM98.87 82.315c-.816-.166-1.57-.125-2.348.125-2.808.907-4.722 4.59-3.755 7.524.407 1.242.947 2.406.62 3.537 0 .608.002 1.007 0 1.406-.012 2.204.942 3.994 2.906 4.84 2.198.947 4.468.808 6.41-.915 3.21-2.845 3.812-6.423 2.77-10.353-.892-3.373-3.133-5.45-6.602-6.16zm.53 11.97c-.085.07-.46-.016-.47-.08-.31-1.446-.59-2.9-.876-4.352l.157-.035c0-.1-.02-.203.004-.296.156-.6-.448-1.58.5-1.728.685-.11 1.157.7 1.516 1.296.874 1.46.44 4.134-.833 5.198zm16.07-7.82c.042-.392.005-.795.005-.613.088-1.27.18-1.965.17-2.66-.02-1.374-.714-2.272-2.015-2.58-2.384-.564-4.75-.307-7.043.43-1.372.443-1.6 2.207-.453 3.13.445.358 1.018.615 1.574.763.666.175 1.38.15 2.063.275.27.05.59.208.75.42.475.633.1 2.535-.58 3.005-.49.334-1.068.542-1.548.888-1.706 1.234-1.646 3.013.125 4.088.248.153.547.23.826.33.55.2.724.613.716 1.16-.008.594-.035 1.194.03 1.783.14 1.253.94 1.928 2.22 1.933 1.132 0 1.867-.495 2.25-1.593.16-.463.31-.956.32-1.442.02-.97.35-1.55 1.23-2.147 1.7-1.15 1.867-2.923.42-4.28-.927-.874-1.186-1.745-1.058-2.887zm-26.903 6.25c-1.803.02-2.97 1.234-2.936 2.965.027 1.376 1.094 2.642 2.888 2.816 1.594.16 3.168-1.39 3.097-2.894-.083-1.77-1.284-2.91-3.05-2.888zm-.136-5.358c1.33.094 2.525-1.008 2.55-2.354.027-1.234-.955-2.313-2.185-2.397-1.363-.092-2.522.977-2.54 2.347-.02 1.243.952 2.315 2.175 2.405z"/></svg>