<svg xmlns="http://www.w3.org/2000/svg" width="128" height="128" viewBox="0 0 128 128"><path d="M121.067 66.87l-.715-20.96c-.038-1.126-.013-2.26-.122-3.382-.14-1.454-.318-2.912-.625-4.34-.102-.466-.642-1.167-1.02-1.194-1.776-.13-2.478-1.315-3.105-2.697-.227-.51-.527-1.018-.907-1.42-1.65-1.745-2.72-3.856-3.89-5.916-1.962-3.45-4.572-6.42-7.244-9.327-1.108-1.205-2.504-1.784-4.23-1.74-3.61.095-7.22.03-10.83.062-.894.008-1.792.128-2.686.213-3.698.348-7.366.968-11.104.956-8.01-.024-16.02.02-24.03.058-1.918.01-3.84.033-5.75.177-3.93.3-7.85.76-11.782 1.017-4.498.294-9.005.45-13.51.645-1.916.085-3.835.12-5.752.168-1.34.032-2.304.58-3.072 1.74-1.033 1.556-1.576 3.164-1.557 5.053.053 5.868-.064 11.734.034 17.6.058 3.49.533 6.97.583 10.457.11 7.672.072 15.344.08 23.015.004.79-.01 1.585-.12 2.365-.966 6.96-.588 13.958-.493 20.945.02 1.547.59 3.074-.012 4.645-.187.49-.053 1.117-.026 1.68.043.855.472 1.514 1.23 1.887.6.296 1.237.595 1.888.7 1.774.287 3.56.6 5.355.682 4.73.22 9.46.33 14.195.475.565.018 1.138.058 1.69-.032 3.584-.584 7.2-.416 10.805-.538 5.404-.18 10.827.27 16.215-.52.885-.128 1.803-.043 2.704-.077 3.516-.14 6.973.47 10.443.843 4.818.516 9.632 1.01 14.475 1.124 3.046.07 6.094.056 9.14.1 1.804.024 3.63-.076 5.407.167 3.04.417 6.076.287 9.116.276 1.23-.004 2.468-.224 3.68-.46.95-.187 1.62-.884 1.89-1.776.385-1.28.707-2.596.872-3.92.28-2.234.415-4.483.612-6.726.3-3.365.507-6.74.917-10.095.724-5.936 1.16-11.884 1.11-17.863-.01-1.355 0-2.707 0-4.06.046-.003.09-.005.135-.005zm-20.934-28.44c1.074-4.143 1.562-8.373 1.97-12.62.025-.278.232-.543.354-.813.274.185.634.312.805.566 1.255 1.86 2.532 3.71 3.688 5.628.925 1.54 1.75 3.12 3.022 4.438.608.63 1.008 1.476 1.44 2.256.39.704.047 1.414-.72 1.48-1.114.096-2.24.124-3.36.16-.673.023-1.348.005-2.022.005v.075c-1.348 0-2.695.002-4.043 0-.92 0-1.333-.405-1.134-1.176zm15.34 46.754c-.135 2.578-.724 5.13-.96 7.704-.342 3.7-.568 7.413-.803 11.125-.094 1.487-.242 1.728-1.826 1.715-3.04-.02-6.088.192-9.116-.37-.986-.185-2.025-.102-3.04-.118-4.175-.07-8.36.005-12.525-.235-4.95-.284-9.9-.688-14.816-1.316-3.825-.49-7.637-.63-11.474-.563-3.046.055-6.093.145-9.14.19-4.17.062-8.35-.085-12.508.397-.56.064-1.126.06-1.69.08-6.877.262-13.75.566-20.626.76-3.336.097-2.736.29-3.565-3.087-.186-.75-.117-1.573-.112-2.362.024-3.387-.018-6.776.126-10.157.16-3.828.496-7.65.754-11.472.124-1.797.32-3.593.352-5.39.06-3.048.092-6.1-.002-9.142-.174-5.525-.218-11.065-.736-16.56-.633-6.647-.404-13.3-.635-19.948-.028-.78.062-1.58.203-2.347.045-.23.46-.565.693-.56 1.803.048 3.6.18 5.397.26 5.197.237 10.372-.114 15.544-.565 13.29-1.157 26.617-.616 39.926-.855 3.598-.063 7.186-.38 10.755-.923 1.33-.203 2.7-.2 4.05-.216 2.37-.026 4.74-.01 7.11.013.87.006 1.28.42 1.167 1.244-.282 2.005-.565 4.014-.96 6-.7 3.534-1.513 7.047-2.77 10.437-.483 1.307-.557 2.64-.383 4 .09.712.46 1.274 1.054 1.657.96.62 1.983 1.07 3.16 1.057 1.693-.02 3.385-.038 5.076-.048 2.373-.01 4.743.026 7.112-.036 1.952-.05 3.808-.43 5.152-2.066.117-.14.376-.16.567-.235.047.22.133.437.134.657.007 5.53.004 11.06.004 16.593h.046c0 3.047-.08 6.098.018 9.14.164 5.206-.448 10.37-.72 15.547zm-5.12 4.17c-.807-.94-1.684-1.834-2.388-2.847-2.05-2.956-4.21-5.842-4.93-9.52-.214-1.082-.21-1.95.383-2.863.71-1.086.81-2.323.768-3.69.064-1.615-.11-3.314-1.173-4.732-1.416-1.888-2.867-3.763-4.444-5.52-1.146-1.275-2.68-2.07-4.384-2.4-4.845-.927-8.757 1.345-10.933 4.993-.74 1.243-1.24 2.652-1.685 4.038-.818 2.53-.967 5.088.22 7.573.302.637.387 1.208.163 1.93-1.4 4.512-2.747 9.043-4.087 13.576-.318 1.077-.636 2.165-.785 3.275-.192 1.417 1.63 2.956 2.955 2.102.376-.246.775-.458 1.144-.713.51-.355.863-.088 1.087.323.483.885.818 1.862 1.373 2.693 1.05 1.572 3.322 1.3 4.085-.45.497-1.147.817-2.348.764-3.614-.09-2.173.447-4.244.97-6.32.384-1.528.715-3.067 1.086-4.597.13-.544.317-1.077.46-1.62.305-1.137 1.294-1.108 2.156-1.235.715-.106 1.184.243 1.478 1.082.973 2.76 1.893 5.54 2.876 8.3.904 2.54 1.832 5.076 2.808 7.59.323.828.72 1.67 1.266 2.357 1.07 1.34 3.29 1.005 3.893-.56.276-.724.356-1.524.51-2.29.185-.918.353-1.014 1.01-.54.55.394 1.06.855 1.653 1.162.62.323 1.31.284 1.958-.02 1.247-.59 2.353-2.355 1.718-3.955-.507-1.272-1.088-2.468-1.98-3.51zM97.9 72.564c-1.695 1.438-3.716 1.98-6.273 2.176-.832-.193-2.056-.38-3.21-.77-1.134-.383-1.81-1.226-1.88-2.514-.1-1.82.19-3.568.768-5.28.07-.21.177-.41.283-.608 1.51-2.83 5.102-4.72 8.296-1.36 1.316 1.387 2.373 2.944 3.035 4.776.54 1.496.115 2.615-1.02 3.578zM78.92 44.736c.25-.91.24-1.824-.57-2.475-.964-.77-1.988-1.466-2.98-2.206-.674-.5-1.447-.64-2.245-.533-.66.09-1.323.257-1.957.464-.89.29-1.76.4-2.626-.036-1.688-.855-3.277-.462-4.845.344-.797.41-1.6 1.097-2.41 1.118-1.097.023-1.32-1.397-2.132-1.975-.18-.128-.328-.31-.504-.45-1.043-.865-2.242-1.008-3.45-.316-.68.387-1.3.884-1.916 1.375-.526.42-.97.95-1.52 1.33-.187.128-.7.07-.86-.096-.464-.483-.803-1.08-1.23-1.6-1.35-1.644-3.045-2.23-5.112-1.6-.43.13-.893.207-1.27.43-.822.48-1.425.36-2.05-.367-1.647-1.908-3.73-2.39-6.12-1.706-.214.062-.438.222-.64.196-.298-.037-.717-.114-.85-.326-.36-.565-.545-1.237-.892-1.813-.766-1.27-1.92-1.88-3.41-1.742-.555.05-1.134.12-1.64.33-2.525 1.046-4.3 2.88-5.252 5.423-.574 1.535-.478 3.118.41 4.558.512.836 1.307 1.205 2.293 1.14 1.175-.074 1.768-.895 1.47-2.042-.565-2.17-.122-3.446 1.603-4.612.352-.238 1.013-.015 1.12.373.328 1.228.316 2.43-.066 3.65-.267.853-.416 1.74-.48 2.023 0 .843-.014 1.067 0 1.29.067 1.085.597 1.81 1.472 2.02.927.22 1.876-.067 2.353-.908.437-.768.867-1.61.992-2.467.224-1.55 1.125-2.38 2.456-2.944.926-.39 1.93-.038 2.175.895.2.756.24 1.553.4 2.324.247 1.21.96 2.11 2.193 2.277 1.115.15 1.85-.572 2.42-1.514.46-.757 1.022-1.464 1.6-2.136.327-.378 1.265-.31 1.537.078.453.64.843 1.326 1.274 1.982.492.752.943 1.538 1.517 2.225.725.865 1.756 1.09 2.75.577.685-.354 1.323-.845 1.883-1.38.564-.537.975-1.238 1.528-1.796.142-.14.62-.106.843.026.275.157.473.477.64.764 1.55 2.66 4.727 2.543 6.83 1.232.476-.3.934-.633 1.41-.93.603-.38 1.28-.56 1.928-.236 1.62.824 3.243.82 4.892.15.724-.294 1.32-.08 1.85.417 1.03.964 2.287.83 3.517.673.847-.11 1.45-.637 1.68-1.472zM67.1 64.556c-1.042 0-1.975-.182-2.86-.817-1.264-.913-2.726-1.018-4.188-.567-1.627.497-3.258.743-4.973.717-.85-.012-1.75.39-2.54.78-.857.427-1.526.59-2.518.18-1.698-.692-3.578-.685-5.296-.026-1.09.416-1.843.435-2.696-.434-1.42-1.446-3.212-1.955-5.24-1.883-2.586.092-5.178.03-7.766.113-.832.028-1.557-.048-2.195-.61-.168-.147-.37-.262-.57-.36-1.365-.667-2.6-.2-3.345 1.256-.335.65-.096 1.387.693 1.543.85.17 1.136.35.807 1.273-.573 1.596-.053 3.12.66 4.552.31.62.88 1.024 1.633 1.024.76-.004 1.274-.45 1.606-1.06.208-.384.31-.84.38-1.277.073-.44.022-.9.065-1.348.05-.47.23-.914.783-.892.3.013.672.166.86.384.29.333.415.793.66 1.168.466.715 1.153 1.03 2 1.06.972.03 1.785-.246 2.318-1.1.3-.482.57-.953 1.21-1.06 1.45-.24 2.83.613 3.036 1.996.098.66.016 1.348.016 2.023 0 .676-.01 1.352.005 2.027.005.225.066.447.125.662.286 1.045 1.51 1.963 2.523 1.89 1.13-.077 2.07-.97 2.22-2.18.095-.782.014-1.592.175-2.356.348-1.65 2.292-2.67 3.64-1.59.62.498 1.187 1.03 2.05 1.065 1.046.04 2.01-.11 2.846-.82 1.072-.91 2.272-1.375 3.733-1.2 1.122.135 2.246-.04 3.305-.515.667-.3 1.31-.21 1.922.2 1.856 1.25 4.107.978 6.15 1.523.93.245 1.65-.555 2.122-1.387.444-.786.284-1.542-.23-2.207-.79-1.024-1.78-1.75-3.133-1.75zm-5.856 13.838c-1.547.51-3.11.45-4.68.457-3.38.016-6.757-.03-10.137.016-2.165.027-4.302-.16-6.25-1.13-2.542-1.267-5.115-1.04-7.52.01-2.167.944-3.956 1.3-5.755-.605-.645-.684-1.658-.612-2.56-.343-.88.26-1.198 1.003-1.32 1.794-.09.583.163 1.185.774 1.347.838.22 1.262.898 1.85 1.397 1.887 1.603 3.973 1.977 6.287 1.053.832-.333 1.68-.634 2.528-.928 1.426-.5 2.793-.538 4.237.116 2.283 1.035 4.722 1.403 7.234 1.353 2.366-.047 4.73-.01 7.094-.01v.056h8.448c.45 0 .902.014 1.347-.028.866-.08 1.482-.576 1.78-1.36.29-.774.194-1.552-.34-2.23-.79-1.01-1.867-1.34-3.017-.96zm-.625 6.9c-.32-.095-.66-.173-.99-.18-.79-.016-1.58 0-2.364.032-3.258.142-6.515.387-9.773.42-6.306.064-12.613.007-18.918.007-.9 0-1.805-.006-2.7.064-1.046.082-1.953.515-2.653 1.316-.49.56-.59 1.584-.156 2.203.403.576.987 1.047 1.7.818 1.554-.5 3.13-.304 4.694-.313 4.392-.024 8.785-.01 13.178-.01v.094c5.29-.08 10.584-.15 15.875-.256.77-.016 1.57-.126 2.3-.366.8-.258 1.268-.916 1.305-1.796.038-.878-.608-1.756-1.498-2.03zm-18.594 8.47c-1.035-.565-2.162-.775-3.26-.46-2.16.623-4.21.442-6.24-.444-.84-.366-1.742-.592-2.625-.274-.81.29-1.516.06-2.28-.12-.745-.177-1.29.237-1.662.865-.558.94-.68 1.866.012 2.83.677.943 1.576 1.215 2.656.995 2.483-.5 2.475-.495 4.166.096.935.33 1.95.438 2.928.646 2.005-.005 3.723-.977 5.56-1.455.315-.08.612-.266.885-.447.81-.54.71-1.763-.14-2.227zm51.96-29.008c-1.022-.224-4.987 1.43-5.38 2.33-.355.814-.563 1.69-.678 2.044-.05 1.98.866 3.475 2.162 4.085 1.008.475 2.802.035 3.752-.917.576-.58 2.02-4.508 1.956-5.32-.077-1.01-.902-2.023-1.81-2.222z"/></svg>