<svg xmlns="http://www.w3.org/2000/svg" width="128" height="128" viewBox="0 0 128 128"><path d="M119.516 88.964c-.093-.053-.197-.085-.292-.132-2.41-1.222-4.896-2.095-7.67-1.945-1.492.08-2.986.083-4.43.565-.55.183-1.097.06-1.302-.567-1.138-3.556-2.268-7.115-3.378-10.68-.123-.395-.162-.832-.15-1.248.035-1.167.193-2.333.16-3.496-.04-1.526.265-2.93.91-4.327.98-2.126 1.973-4.254 2.507-6.57.87-3.768 1.35-7.566 1.293-11.444-.183-2.663-.464-5.324-.52-7.988-.064-2.91-.472-5.738-1.327-8.51-.283-.918-.498-1.857-.713-2.796-.573-2.512-1.445-4.925-2.645-7.198-1.195-2.26-2.432-4.512-4.184-6.43-.868-.948-1.877-1.305-3.14-1.232-1.526.088-2.91.66-4.33 1.107-8.35 2.63-16.34 6.298-24.795 8.617-1.014.277-1.6.924-2.024 1.874-.597 1.328-.816 2.6-.274 4.016.69 1.792 1.273 3.624 1.866 5.45.157.492.43 1.198.218 1.5-.46.65-.84-.196-1.27-.345-1.104-.39-2.17-.912-3.29-1.256-3.982-1.21-7.98-2.356-11.968-3.54-2.76-.82-5.522-1.637-8.27-2.494-1.834-.572-3.647-1.215-5.467-1.83-.85-.288-1.624-.224-2.46.2-1.527.78-2.485 1.926-2.965 3.576-.867 2.973-1.824 5.917-2.74 8.875-.598 1.936-1.228 3.865-1.785 5.814-.852 2.97-1.683 5.953-2.46 8.945-.374 1.44-.85 2.916-.863 4.38-.043 4.69-.36 9.376.02 14.074.32 3.927 1.69 7.336 4.626 9.894 1.533 1.333 2.066 2.557 1.31 4.4-.158.384-.107.845-.178 1.267-.616 3.69-1.67 7.276-2.643 10.877-.125.46-.555.715-1.003.56-2.5-.863-5.08-.55-7.635-.563-2.983-.017-5.618 1.152-8.13 2.605-.632.362-1.18.935-1.646 1.505-1.09 1.326-1.534 2.852-.72 4.46.57 1.13 1.174 2.34 2.07 3.188 2.25 2.13 4.726 3.983 7.574 5.317 6.415 3.004 13.15 3.502 20.06 2.726 1.86-.208 3.477-1.01 4.743-2.435 1.145-1.285 1.696-2.702 1.003-4.41-.278-.69-.503-1.403-.816-2.08-1.6-3.45-4.283-5.806-7.637-7.466-.475-.24-.98-.42-1.448-.672-.43-.23-.57-.68-.443-1.1.634-2.036 1.376-4.042 1.957-6.098.858-3.03 2.365-5.677 4.305-8.133.936-1.183 1.82-2.3 3.295-2.917 1.17-.487 2.195-1.315 3.28-1.998 3.202-2.017 5.947-4.524 8.192-7.574.888-1.2 1.81-2.382 2.684-3.597 3.81-5.31 7.34-10.758 9.374-17.06 1.184-3.68 2.205-7.36 2.192-11.26-.002-.64.053-1.283.09-1.922.006-.102.058-.204.088-.306.13.127.288.24.386.39.172.266.345.543.46.837 1.312 3.387 2.77 6.725 3.878 10.173 1.195 3.722 3.044 7.018 5.397 10.105 2.203 2.885 4.186 5.926 6.843 8.46 2.1 1.997 4.55 3.132 7.357 3.602.63.107 1.276.128 1.916.176.813.064 1.38.427 1.773 1.167 2.22 4.158 3.925 8.535 5.573 12.936.18.48.02.91-.403 1.063-2.34.87-4.277 2.35-6.258 3.82-2.883 2.143-4.58 5.023-5.61 8.345-.677 2.184.102 4.132 2.104 5.163 1.212.626 2.575 1.157 3.916 1.29 3.403.33 6.816.324 10.182-.588 4.48-1.212 8.7-2.977 12.36-5.86 1.753-1.383 3.575-2.833 4.874-4.61 2.532-3.46 2.107-6.503-1.546-8.637zM36.373 114.56c.395.81.067 1.518-.837 1.605-.84.082-1.72.16-2.533-.004-2.012-.403-4.004-.427-6.04-.25-2.956.256-5.695-.424-8.21-2.07-1.87-1.224-3.878-2.232-5.74-3.462-.962-.637-1.76-1.534-2.59-2.35-.37-.365-.14-1.093.355-1.356.187-.097.363-.253.562-.29 1.88-.346 3.765-.67 5.794-1.027 1.466.3 3.024.612 4.576.95.47.1.68.484.7.935.016.422-.083.853-.044 1.274.027.3.114.704.324.853.966.69 2.1 1.19 3.26 1.07.972-.1 2.148-.213 2.543-1.54.107-.367.612-.54 1.086-.333 2.913 1.265 5.35 3.064 6.79 5.998zm19.342-54.933c-.452.843-.864 1.723-1.41 2.507-2.322 3.32-4.588 6.688-7.068 9.888-2.576 3.328-5.827 6.005-9.6 7.835-4.75 2.304-5.218 1.742-8.41-1.93-.916-1.054-1.394-2.38-1.654-3.773-.46-2.42-.76-4.85-.676-7.317.02-.64.002-1.278.002-1.92h-.006c0-.533.043-1.07-.006-1.6-.32-3.486.682-6.76 1.578-10.05.242-.892.776-1.217 1.693-.977 2.473.65 4.94 1.333 7.392 2.05 1.327.39 2.64.852 3.936 1.334 3.707 1.38 7.466 2.528 11.448 2.773.747.045 1.487.15 2.225.248.42.056.74.587.556.93zm5.234-15.66c-.294 3.07-.943 6.292-2.258 9.357-.377.877-.87 1.163-1.77.78-1.228-.524-2.49-.58-3.764-.552-2.075.043-4.03-.42-5.89-1.283-4.367-2.03-8.914-3.508-13.613-4.544-.83-.184-1.65-.427-2.466-.667-.61-.18-.88-.628-.706-1.19.316-1.02.597-2.053 1.005-3.037 1.017-2.46 2.08-4.907 3.16-7.343.495-1.113.88-1.29 1.986-.998 2.776.743 5.534 1.538 8.318 2.244 1.44.363 2.916.576 4.378.867.52.1 1.045.18 1.555.334 2.547.77 5.092 1.557 7.63 2.352.408.126.788.33 1.18.496.88.367 1.355.986 1.254 1.982-.03.32-.002.643-.002 1.2zm12.02-1.47c-.186-.165-.41-.273-.48-.447-.326-.786-.678-1.573-.884-2.394-.775-3.1-1.502-6.21-2.233-9.318-.107-.454.048-.88.48-1.07 2.054-.892 4.085-1.855 6.187-2.608 2.614-.933 5.153-2.016 7.692-3.128 3.013-1.317 6.23-2.17 9.372-3.196.667-.216 1.285.02 1.683.608 2.112 3.115 3.787 6.432 4.633 10.12.22.947-.037 1.504-.917 1.743-1.372.376-2.56 1.042-3.66 1.91-1.367 1.08-2.932 1.823-4.61 2.132-5.707 1.05-11.064 3.117-16.373 5.365-.288.12-.602.192-.885.284zM97.683 65.74c-2.22 3.586-2.758 3.7-6.816 2.827-1.73-.373-3.174-1.22-4.406-2.475-1.717-1.757-3.51-3.446-4.866-5.522-.352-.535-.752-1.042-1.167-1.53-2.624-3.062-4.196-6.673-5.518-10.422-.277-.787-.15-1.1.732-1.446 3.573-1.42 7.152-2.812 10.848-3.883 1.745-.506 3.467-1.087 5.188-1.65 2.25-.733 4.364-1.73 6.294-3.12.6-.433 1.275-.77 1.93-1.125.477-.256.8-.064.847.512.2 2.338.386 4.68.56 7.02.034.428.006.854.006 1.284-.01.003-.02.003-.03.003 0 1.28.012 2.563-.007 3.846-.005.196-.13.39-.2.59-.186-.11-.37-.216-.548-.33-.087-.06-.17-.135-.253-.196-.574-.397-1.17-.55-1.753-.06-.647.548-.62 1.59.02 2.286.433.462.94.504 1.73.127.093-.043.167-.13.26-.18.623-.323.79-.27.732.3-.158 1.59-.283 3.186-.57 4.754-.545 2.96-1.443 5.858-3.015 8.397zM118.2 94.99c-.912 1.07-2.033 1.856-3.28 2.49-1.516.774-2.91 1.67-4.145 2.907-1.938 1.94-4.483 2.823-7.174 3.14-1.58.187-3.16.278-4.746.537-1.87.306-3.813.348-5.707-.088-1.035-.24-1.365-1.067-.68-1.89 2.328-2.805 4.783-5.456 8.533-6.372.48-.113.805-.107 1.036.382.18.384.412.747.62 1.115.238.42.635.638 1.06.51 1.41-.415 2.88-.66 3.88-1.994.46-.608.463-1.06.305-1.71-.145-.618.3-1.042.853-1.14 1.04-.184 2.1-.26 3.153-.38 2.182-.03 4.26.25 6.133 1.467.436.277.5.634.163 1.03zM60.46 19.34c.29.618.884.892 1.585.85.706-.048 1.237-.436 1.453-1.07.235-.696.377-1.44.44-2.173.075-.843.02-1.7.02-2.553h.133c0-1.382.066-2.77-.02-4.146-.074-1.203-.754-2.084-1.51-2.23-.87-.165-1.875.666-2.19 1.94-.593 2.388-.844 4.826-.605 7.28.07.72.38 1.435.693 2.102zm14.497-3.1c.584-.165 1.216-.502 1.604-.95 1.36-1.582 1.867-3.563 2.315-5.235.19-2.22-1.328-3.374-3.085-2.637-.374.158-.77.437-.993.764-1.163 1.692-1.835 3.6-2.29 5.586-.048.2-.008.425.006.637.08 1.287 1.203 2.184 2.445 1.835zM50.754 26.766c.333.523.845.94 1.32 1.355.468.4 1.338.076 1.552-.554.066-.2.11-.405.166-.61-.02-.21-.008-.43-.068-.63-.68-2.277-1.9-4.26-3.38-6.09-.257-.318-.634-.582-1.015-.74-.36-.148-.805-.212-1.19-.15-.445.07-.78.767-.682 1.292.074.41.138.856.343 1.204.953 1.664 1.92 3.313 2.95 4.924zM35.428 65.272c-.816-.322-1.884.274-2.59 1.38-.055.09-.1.187-.148.278-.478.89-.363 1.85.317 2.624.63.717 1.71.93 2.595.512.855-.4 1.493-1.408 1.422-2.384-.195-.94-.465-1.967-1.596-2.41zm11.2-5.292c-.984.09-1.713.9-1.712 1.9 0 1.302 1.178 2.52 2.35 2.433.96-.07 2.004-1.205 1.962-2.127-.06-1.19-1.383-2.315-2.603-2.205zm-10.554-3.977c-1.184-.103-2.09.642-2.15 1.77-.063 1.16.783 2.134 1.84 2.113 1.037-.02 1.99-.958 2.036-2.01.046-.974-.702-1.78-1.728-1.873zm48.54-8.605c-.6-.312-1.227-.22-1.797.166-.66.448-.96 1.136-1.11 1.86-.24 1.17.952 2.59 2.158 2.646.2-.045.42-.056.606-.14.95-.43 1.474-1.144 1.5-2.218.03-1.07-.436-1.84-1.354-2.315zm6.102 5.04c-.97.045-1.988 1.226-1.905 2.202.096 1.06 1.224 2.086 2.157 1.96 1.05-.146 1.988-1.223 1.914-2.21-.08-1.023-1.162-2.002-2.16-1.954zm1.85-7.108c-1.06.145-2.017 1.184-1.976 2.152.04.915.95 1.683 1.977 1.67 1.156-.016 1.92-.873 1.86-2.09-.05-1.046-.924-1.86-1.86-1.732z"/></svg>