<svg xmlns="http://www.w3.org/2000/svg" width="128" height="128" viewBox="0 0 128 128"><path d="M113.39 88.064c-.192-.09-.405-.142-.606-.21-1.827-.614-3.652-1.24-5.483-1.84-1.93-.633-3.87-1.243-5.806-1.862-1.835-.587-3.66-1.21-5.506-1.752-2.978-.875-5.973-1.69-8.957-2.55-2.28-.658-4.557-1.22-6.946-.557-.296.082-.638.02-.956.002-.096-.006-.23-.068-.274-.146-.037-.07-.002-.22.053-.294.256-.337.47-.752.808-.97 1.362-.89 1.882-2.132 2.176-3.724 1.358-7.264 2.636-14.535 3.66-21.852.1-.706.296-1.25 1.147-1.217.683.026 1.266-.2 1.733-.693 1.774-1.867 3.53-3.752 4.847-5.99.832-1.412 1.333-2.903 1.283-4.575-.032-1.04-.395-1.867-1.187-2.524-.56-.462-1.594-.494-1.66-1.363-.052-.72.24-1.472.425-2.197.718-2.796 1.44-5.594 2.187-8.385.85-3.185 1.06-6.353-.45-9.4-1.892-3.82-4.484-7.008-8.237-9.218-2.588-1.525-5.216-1.845-7.992-.82-.808.298-1.423.27-2.06-.278-2.45-2.116-5.38-3.035-8.517-3.45-.53-.07-1.047-.23-1.57-.337-2.554-.523-5.154-.587-7.68-.107-6.71 1.278-12.493 4.213-17.127 9.438-3.595 4.053-5.344 8.71-5.732 13.984-.052.714.06 1.66.496 2.143 1.016 1.13 1.086 2.51 1.464 3.825.383 1.338.827 2.648 1.702 3.787.56.73.58 1.042-.184 1.628-2.008 1.538-2.06 3.627-1.86 5.82.048.528.2 1.05.33 1.567.74 2.973 2.098 5.63 4.293 7.78.855.834 1.12 1.73 1.12 2.858.003 3.972.02 7.942.106 11.912.115 5.244-.546 4.26 2.19 10.54.61 1.396 1.18 2.74 2.515 3.61.325.21.257.626-.063.714-1.346.357-2.692.7-4.04 1.046-4.77 1.22-9.55 2.397-14.3 3.688-2.372.644-4.726 1.395-7.014 2.286-2.688 1.045-5.096 2.73-7.876 3.608-.207.064-.418.52-.4.78.016.268.25.644.49.752 1.04.47 2.123.3 3.136-.066 1.306-.475 2.563-1.08 3.85-1.608.69-.283 1.385-.563 2.102-.762.686-.19 1.312.29 1.34.986.036.858.03 1.717.03 2.575 0 4.292-.027 8.586.01 12.88.013 1.57 1.166 2.37 2.583 1.83 1.096-.415 2.142-.97 3.22-1.428.105-.043.32.15.46.262.023.02-.043.234-.117.276-1.18.718-2.376 1.41-3.553 2.132-.63.384-1.423.688-1.797 1.257-.442.67-.515 1.586-.73 2.4-.053.202-.123.47-.035.624.544.95.503 2.04.823 3.04.092.283.356.534.593.74 1.214 1.06 2.85.956 4.034-.24.51-.514.29-1.646-.422-1.895-.596-.208-1.238-.28-1.858-.427-.093-.02-.23-.117-.23-.183-.002-.085.087-.203.17-.256.453-.29.912-.566 1.377-.835.915-.53 1.397-1.29 1.315-2.383-.013-.155.18-.328.283-.49.104.177.22.35.307.536.224.475.363 1.013.674 1.425.34.448.906.546 1.463.42.57-.132.98-.502 1.037-1.08.095-.958.138-1.927.138-2.89-.002-5.58-.032-11.16-.032-16.742 0-1.713.064-3.426.1-5.137 1.443-1.005 3.22-.992 4.812-1.54.71-.245 1.43-.463 2.155-.653 1.86-.49 3.726-.97 5.595-1.438.45-.113.904.216.87.65-.11 1.383-.254 2.764-.395 4.145-.085.847-.245 1.69-.273 2.54-.02.692.398 1.232 1.003 1.533.47.235.996.437 1.51.476 1.39.104 2.786.182 4.177.14 1.432-.04 2.683-.718 3.825-1.525.27-.19.448-.772.378-1.114s-.467-.67-.797-.89c-.245-.166-.613-.22-.924-.21-1.173.028-2.343.09-3.513.165-.533.035-1.058.15-1.587.196-.41.037-.853-.395-.81-.793.172-1.704.407-3.4.528-5.106.068-.945.23-1.668 1.34-1.84.833-.128 1.356-1.05 2.337-.915 1.272.175 2.557.253 3.83.416.255.03.75.172.39.58-.786.895-.816 1.944-.778 3.028.063 1.845.564 3.588 1.18 5.312.46 1.287.402 1.265-.535 2.6-.35.497-.538 1.146-.672 1.755-.784 3.547-1.466 7.117-1.988 10.714-.44 3.03-1.68 6.002-.774 9.158.08.286-.08.632-.1.953-.085 1.174-.146 2.35-.242 3.524-.07.846-.15 1.694-.276 2.533-.147.994.11 1.76.904 2.162.86.434 1.75.816 2.648 1.157.267.1.686.103.912-.04 1.47-.942 2.948-2.016 2.846-3.957-.06-1.144.367-1.805 1.088-2.507.456-.443.896-.957 1.16-1.525.206-.445.37-1.19.142-1.507-.838-1.165-.283-1.976.437-2.836.482-.574.97-1.15 1.385-1.774.747-1.127 1.184-2.296.25-3.57-.18-.244-.338-.596-.32-.89.124-1.92.288-3.834.472-5.746.015-.15.25-.357.413-.388.158-.03.465.096.51.222.735 2.005 1.446 4.02 2.143 6.042 1.152 3.34 2.258 6.7 3.45 10.025.283.787.768 1.525 1.266 2.206.31.424.84.654 1.427.46.605-.2 1.088-.826 1.02-1.476-.065-.632-.175-1.276-.38-1.874-1.255-3.645-2.513-7.29-3.826-10.915-1.092-3.022-2.316-5.997-3.375-9.03-.605-1.736-1.65-2.91-3.38-3.46-.008.014-.012.03-.02.046-.025 0-.052 0-.078-.003-.07.62-.745.578-1.077.914-.18.18-.413.315-.62.47-.065-.2-.158-.4-.182-.604-.062-.51.22-.79.702-.82.39-.024.785.02 1.18.04.002-.026.01-.046.012-.074.03.01.053.022.083.03.032-.095.06-.218.117-.236 1.587-.48 3.11-1.393 4.88-.544.444.213 1.058.107 1.594.088 1.414-.046 2.77.226 4.096.698.504.18 1.003.387 1.52.517 1.39.347 2.578-.725 2.38-2.178-.084-.632-.278-1.255-.48-1.864-.785-2.367-.803-4.85-1.134-7.286-.043-.307-.005-.644.08-.945.04-.154.287-.377.41-.357.415.062.815.318 1.22.32 2.97.02 5.644 1.134 8.35 2.157.698.264 1.43.44 2.15.647 2.158.626 4.324 1.233 6.476 1.88.864.256.966.46.992 1.39.064 2.465.135 4.933.192 7.4.014.532.18 1.21-.075 1.575-.843 1.207-.627 2.112.398 3.056.25.23.22.803.247 1.223.064.963.043 1.934.132 2.894.26 2.76.317 5.538 1.074 8.243.24.858.63 1.28 1.44 1.474.33.08.495.39.275.715-.18.254-.46.44-.666.685-.47.55-.495 1.17-.156 1.784.252.453 1.22.724 1.74.404.898-.557 1.78-1.163 2.577-1.856.617-.534.51-1.298-.366-1.833-.61-.373-.71-.625-.35-1.173.178-.27.34-.552.46-.848.325-.808-.01-1.467-.907-1.685-.292-.073-.632.066-.95.073-.07 0-.164-.136-.208-.23-.043-.088-.06-.208-.035-.3.025-.092.106-.177.185-.24.91-.736 1.835-1.458 2.74-2.2.58-.472.63-.046.737.38.075.31.166.633.337.893.307.472.78.72 1.36.67.595-.05 1.26-.64 1.375-1.2.043-.21.09-.424.083-.638-.097-3.108-.193-6.214-.3-9.32-.072-2.036-.17-4.07-.235-6.107-.014-.415.478-.75.896-.643.725.183 1.433.45 2.165.57.917.153 1.76-.414 2.014-1.23.3-.985-.144-1.97-1.094-2.412zm-85.736 2.283c.496-.762 1.337-.9 2.116-1.135.437-.132 1.067.18.94.44-.12.246-.325.52-.564.633-.56.263-1.158.454-1.754.638-.163.05-.368-.032-.555-.053-.075-.072-.187-.13-.218-.22s-.02-.225.032-.303zm3.015 7.122c.027.13-.16.432-.29.46-.467.1-.95.13-1.425.18-.005.034-.016.064-.017.1-.047.003-.095.003-.142.003-.092.142-.177.3-.307.365-.14.068-.354-.02-.537-.036.122-.1.23-.25.37-.288.15-.045.31-.04.474-.04.02-.032.04-.064.06-.093l.097-.01c.092-.576.674-.61 1.05-.866.294-.203.583-.13.664.224zm-.435 8.54c-.892 0-1.104.014-1.312-.003-.422-.034-1.062.69-1.22-.25-.1-.6.455-.895.934-1.125.47-.227.95-.475 1.454-.587.193-.04.47.267.69.443.058.046.03.2.043.304.094 1.147.006 1.23-.587 1.216zM83.1 33.2c-2.02.256-4.048.44-6.078.587-1.067.078-2.146.015-3.22.015l-.006-.075c-1.808.145-3.616.355-5.427.408-.836.025-1.677-.355-2.52-.377-3.216-.08-6.42.085-9.633.373-3.196.286-6.425.24-9.64.3-.45.01-.8-.312-.767-.83.073-1.173.172-2.342.262-3.515.05-.608-.615-1.288-.018-1.792.363-.305.988-.31 1.5-.427 3.544-.805 7.118-1.512 10.637-2.424 4.823-1.25 9.263-3.34 13.12-6.56.244-.202.505-.453.794-.516.256-.056.7.024.82.206.536.796.972 1.66 1.468 2.483 1.533 2.542 3.518 4.606 6.337 5.7.884.343 1.85.48 2.78.715.467.117.72.448.77.902.096.84.1 1.696.243 2.528.24 1.382-.14 2.136-1.42 2.3zm-11.723 6.56c-.02-.213-.06-.425-.064-.638-.053-2.133.2-2.293 2.374-2.32 2.24-.027 4.475-.238 6.713-.332.99-.043 1.426.387 1.233 1.352-.508 2.53-.53 5.094-.672 7.65-.05.972-.465 1.295-1.48 1.132-1.79-.29-3.553-.702-5.39-.645-.44.013-.984-.39-1.32-.75-.83-.884-1.22-1.996-1.275-3.21-.032-.745-.006-1.493-.006-2.24h-.11zm-7.822 1.04c-.178-1.65.495-1.776 1.864-1.776h.63c.01 0 .33.01.647.037.418.038.797.48.665.906-.528 1.672-.318 3.39-.363 5.09-.03 1.063.114 2.103.273 3.164.25 1.67.144 3.4.133 5.105-.002.408-.196.825-.346 1.222-.628 1.664-1.71 2.02-3.28 1.118-.506-.29-.795-.71-.82-1.277-.056-1.173-.077-2.35-.115-3.524-.027-.79-.23-1.46-1.082-1.774-.472-.173-.587-.54-.4-1.024.426-1.088.79-2.204 1.254-3.277.553-1.28 1.092-2.558.937-3.99zm-3.384-1.547c-.065 1.707-.254 3.42-.557 5.103-.555 3.08-.917 3.333-4.176 3.456-.536.02-1.074.002-1.61.002l-.022.146c-1.043-.16-2.097-.273-3.125-.497-.93-.203-1.558-.89-1.595-1.803-.098-2.46-.107-4.925-.064-7.387.013-.803.834-1.4 1.6-1.195 2.634.704 5.327.392 7.993.526 1.12.056 1.594.764 1.56 1.65zm-14.084.813c-.067.166-.136.33-.203.498-.056-.082-.163-.174-.15-.242.035-.174.125-.336.193-.504l.16.248zm44.523-.142c.155.24.19.578.22.88.02.202-.03.432-.11.625-.885 2.1-2.16 3.913-3.954 5.342-.068.053-.213.105-.264.07-.077-.052-.16-.19-.145-.274.173-.94.37-1.875.55-2.813.096-.493.176-.99.155-.867-.056-1.726-.046-1.693 1.074-2.094.582-.208 1.12-.55 1.67-.843.27-.144.575-.383.804-.03zm-1.2-9.167c.035.198-.037.416-.084.816.143 1.803-.582 3.554-1.528 5.233-.117.21-.467.288-.71.427-.05-.203-.128-.405-.146-.608-.025-.32-.055-.646-.002-.956.307-1.776.864-3.476 1.643-5.096.074-.155.355-.285.538-.28.108.003.26.29.29.464zm-44.77-16.98c2.336-2.903 5.344-4.858 8.813-6.123.5-.183 1.073-.177 1.627-.218l.15-.112c.088-.04.18-.075.263-.124.048-.028.083-.08.125-.123-.098.113-.194.226-.29.34-.083.01-.166.014-.25.02-2.426 1.784-4.836 3.592-7.295 5.33-.86.605-1.85 1.028-2.788 1.524-.07.037-.256 0-.277-.046-.06-.147-.147-.384-.08-.47zM42.352 42.69c0 1.272.01 2.545-.013 3.816-.005.156-.183.31-.28.464-.174-.11-.445-.184-.508-.34-.59-1.465-1.233-2.918-1.683-4.428-.556-1.873.347-3.273 1.784-4.387.082-.064.437.05.495.164.13.27.212.59.22.894.02 1.27.01 2.544.01 3.816h-.028zm.992-14c-.41 1.132.07 2.486-.67 3.65-.418.66-.96.892-1.527.43-.405-.33-.86-.67-1.11-1.107-.514-.91-.927-1.883-1.35-2.843-.353-.798.037-1.544.847-1.666.734-.11 1.47-.2 2.206-.286.92-.107 1.66.533 1.664 1.437 0 .107-.032.21-.06.384zm-3.687-4.61c-.806-.028-1.024-.428-.85-1.292.348-1.726 1.544-3.03 2.23-4.584.19-.432.653-.6 1.087-.475 2.062.603 3.79-.375 5.48-1.24 1.615-.827 3.12-1.876 4.645-2.87 1.882-1.227 3.74-2.5 5.604-3.75.178-.12.363-.232.533-.36.896-.657.943-1.237.2-2.42-.465-.74-.416-.9.363-.92 1.286-.036 2.575-.007 3.86-.045.958-.028 1.963.043 2.864-.213 1.572-.45 2.936.036 4.355.53 1.875.653 3.05 2.26 4.62 3.328.35.24.593.62.913.902.523.46 1.112.536 1.797.366 4.212-1.05 7.4.31 9.772 4.15.8 1.292 1.214 2.73 1.58 4.19.394 1.582-.353 2.932-.867 4.304-.153.41-.773.768-1.248.9-.597.165-1.267.092-1.904.087-.203-.004-.405-.12-.61-.18.125-.133.227-.314.38-.39.572-.282 1.16-.536 1.748-.786.445-.19.64-.552.665-.997.046-.76.005-1.534-.53-2.126-.266-.293-.675-.603-1.042-.634-.623-.05-.89.46-.98 1.035-.014.076-.044.15-.07.228l.047.01.047.175c.064.06.126.117.19.174-.058-.03-.14-.044-.168-.092-.016-.023-.017-.055-.023-.083l-.117-.107.024-.08c-.373-.095-.81-.112-1.093-.33-1.79-1.355-3.19-3.056-4.182-5.08-.233-.472-.413-.97-.646-1.44-.252-.507-.66-.863-1.25-.75-.626.123-.776.72-.812 1.217-.043.608.123 1.23.155 1.85.045.928.953 1.616.738 2.608.018.005.03.015.05.02 0 .022.007.042.01.065.39-.02.528.213.56.552.032 0 .055.008.09.003 0 .066.016.12.024.177.154.144.306.29.46.437.057.002.108.014.177.004.003.076.018.135.03.197l.42.42c.063.012.122.026.2.023.002.085.02.16.042.227l.344.368c.07.03.15.05.237.064.222.226.445.453.666.682.03.074.052.154.097.22.027.044.085.065.128.093l-.318-.22c-.224-.228-.446-.46-.667-.686l-.144-.154c-.17-.068-.29-.19-.345-.367l-.134-.144-.11-.11c-.233-.044-.37-.187-.417-.418l-.113-.114-.092-.088c-.27-.02-.416-.175-.46-.437l-.102-.1c0-.03-.008-.052-.01-.08-.374.01-.534-.203-.563-.555-.025 0-.04-.006-.068-.003.007-.028.005-.053.01-.08-1.145-.396-1.54-1.473-1.755-2.428-.256-1.153-.97-1.874-1.664-2.67-.125-.145-.44-.305-.552-.245-.234.13-.473.37-.56.62-.14.397-.075.878-.252 1.25-.22.46-.507 1.018-.917 1.233-2.08 1.08-4.102 2.254-6.562 2.458-1.458.118-2.86 1.038-4.313 1.107-1.483.07-2.97-.107-4.448.272-.72.183-1.488.33-2.223.29-1.788-.084-3.34.538-4.916 1.268-2.954 1.367-6.057 2.14-9.337 2.03zm14.3 40.81c-.314 2.55-.67 5.088-.605 7.667.026 1.07-.015 2.14-.048 3.21-.025.82-.416 1.23-1.178 1.113-1.157-.177-2.36-.3-3.43-.725-1.27-.504-1.824-1.756-2.197-3.005-.15-.5-.136-1.06-.144-1.593-.06-4.708-.107-9.42-.155-14.127 0-.213 0-.43.026-.64.14-1.163.395-2.325.395-3.488 0-1.165-.28-2.328-.39-3.496-.033-.366.033-.74.073-1.114-.023-.03-.05-.053-.072-.08l-.01-.13c-.856-.35-.413-1.13-.477-1.735-.01-.085.07-.184.11-.275.08.107.22.207.23.322.062.56.095 1.126.137 1.69.037.015.062.032.102.046-.004.053-.013.11-.02.162 1.78 2.206 4.206 3.012 6.934 3.118 1.173.046 2.357.035 3.53-.056.618-.048 1.247-.258 1.82-.515 1.89-.855 1.884-.877 1.786 1.037-.082 1.598-.344 3.204.4 4.743.058.124-.236.527-.452.65-.46.26-.975.426-1.47.633-2.938 1.224-4.5 3.456-4.89 6.592zm4.61 12.688c-.886.107-1.34-.395-1.445-1.325-.035-.318-.064-.637-.07-.956-.01-.533-.003-1.067-.003-1.63.174-3.064.627-6.11 1.32-9.133.22-.96.692-1.483 1.486-1.9 1.655-.872 3.424-1.153 5.263-1.03.74.05 1.475.23 2.215.31 2.34.244 2.325.242 2.79 2.56.293 1.464.485 2.88.18 4.41-.29 1.45-.147 2.98-.204 4.475-.02.53-.002 1.077-.122 1.587-.158.657-.6 1.195-1.28 1.293-3.376.48-6.753.932-10.137 1.338zm17.65 12.506c-1.033-.113-2.066-.23-3.1-.335-.317-.034-.64-.02-.96-.047-1.294-.102-1.442-.213-1.6-1.49-.16-1.273-.22-2.558-.394-3.828-.15-1.073-.848-1.73-1.955-1.765-1.496-.045-2.997.033-4.494.048-.427.005-.856-.02-1.283-.053-.094-.006-.184-.094-.277-.145.12-.09.235-.25.36-.26 4.05-.33 8.004-1.236 11.98-2.002.867-.166 1.624-.114 1.536 1.333-.05.75-.01 1.5-.01 2.25 0 .96.01 1.926 0 2.888-.018 1.14.847 2.23.2 3.41zm1.216-15.13c-.424.034-.856.005-1.284.005v.06c-.535 0-1.084.065-1.6-.03-.23-.044-.584-.413-.578-.624.04-1.28.085-2.573.286-3.838.35-2.246.276-4.488.097-6.732-.235-2.974-1.65-5.272-4.166-6.853-.56-.352-.736-.708-.49-1.288.645-1.544.35-3.175.447-4.768.05-.848.41-1.1 1.248-.946 1.997.367 3.997.705 5.992 1.066 1.26.226 2.283-.417 3.358-.88.515-.223.843-.004.82.54-.03.72-.378 1.443.23 2.124.398.448.162 1.008.088 1.536-.296 2.12-.544 4.245-.85 6.366-.563 3.918-1.155 7.832-1.732 11.748-.046.318-.052.643-.12.956-.223 1.035-.703 1.467-1.746 1.553zm24.874 16.65c-.333.17-.862-.136-.954-.555-.09-.414-.15-.83-.192-1.07.023-.397.03-.607.05-.82.04-.38.543-.86.858-.75 1.288.44 2.57.897 3.835 1.41.128.055.1.54.094.82 0 .03-.318.085-.49.085-.51-.002-1.057-.15-1.52-.01-.594.18-1.116.594-1.68.887zm.764 10.952l-.073.14c-.067.022-.134.04-.197.067l-.132.18c.025-.055.035-.134.08-.162.014-.01.034-.01.052-.017l.11-.154.16-.054.18-.328.188.203c-.124.04-.245.083-.367.126zm1.218-4.99c-.032-.005-.064-.002-.096-.005-.208.578-.676.578-1.162.543-.014.03-.034.045-.048.075l-.15.082-.11.335-.227-.153.34-.186.054-.168c.047.004.095.008.14.01.245-.485.67-.586 1.163-.54.01-.024.02-.042.03-.07.022 0 .046-.003.07-.004.007-.693.696-.947.99-1.457.438-.75.26-1.263-.603-1.784-.16-.096-1.12.1-.325-.555.407-.338.87-.613 1.337-.866.09-.05.44.126.444.21.058 1.056.235 2.144.05 3.164-.16.878-.99 1.252-1.894 1.286-.002.03-.007.053-.005.082zm.742 3.727c-.033.036-.067.07-.1.107l-.18.096c-.01.02-.02.043-.028.064-.01-.01-.02-.02-.035-.03.02-.01.043-.02.064-.033l.087-.188c.064-.01.128-.015.192-.02.095-.11.19-.226.3-.322.065-.057.19-.08.28-.07.084.012.16.086.24.133-.14.073-.27.17-.417.208-.13.032-.267.043-.402.053zm1.34 3.774c-.133.053-.35-.107-.53-.17.205-.2.412-.396.616-.593l.153.267c-.077.176-.115.45-.24.498zm-50.087-89.45c.65-.406 1.264-.698 2.065-.705 2.118-.015 3.877-1.026 5.55-2.202.252-.178.49-.445.61-.725.11-.258.158-.644.038-.87-.128-.246-.466-.414-.747-.534-.18-.08-.43-.06-.63-.006-.99.267-1.985.8-2.796-.4-.11-.162-.626-.165-.9-.075-.498.167-.993.41-1.425.71-3.935 2.75-7.858 5.517-11.76 8.31-.186.13-.215.546-.213.83 0 .08.354.16.78.345.828-.208 1.953-.282 2.857-.765 2.245-1.2 4.403-2.565 6.566-3.913zm10.95 50.59c-1.8-.334-3.603-.295-5.398-.012-.297.048-.57.284-.84.45-.433.268-.422 1.03-.017 1.388 1.045.91 2.308 1.003 3.715.987.966.053 2.054.028 2.965-.62.29-.204.54-.71.512-1.057s-.41-.677-.653-1c-.055-.076-.18-.116-.285-.135zM54.57 40.787c-.568-.065-1.03.148-1.332.636-.592.956-.622 1.98-.31 3.03.168.56.84.963 1.494.927.63-.036 1.232-.534 1.34-1.136.057-.31.076-.624.126-1.04-.056-.42-.075-.952-.206-1.45-.143-.54-.53-.9-1.11-.97zm20.132 3.267c.98.366 2.09-.156 2.32-1.074.127-.513.157-1.046.24-1.63-.106-.47-.174-1-.345-1.492-.254-.725-1.277-.952-1.852-.475-1.34 1.107-1.414 2.54-1.03 4.064.06.245.398.505.667.606z"/></svg>