<svg xmlns="http://www.w3.org/2000/svg" width="128" height="128" viewBox="0 0 128 128"><path d="M122.912 101.186c-.42-.928-1.03-1.704-2.105-1.77-1.22-.076-2.27-.57-3.355-1.034-2.86-1.222-5.796-2.22-8.885-2.69-.517-.078-1.067-.1-1.584-.02-.875.127-1.408 1.33-.89 2.02.378.503.814 1.044 1.352 1.332 1.502.815 3.072 1.504 4.612 2.248.573.277 1.144.56 1.717.843-.28.82-1.115.76-1.712 1.074-.19.096-.418.112-.605.21-.6.315-.925.09-1.265-.455-.576-.928-1.3-1.696-2.532-1.742-3.213-.117-6.424-.275-9.636-.398-.643-.025-1.288.008-1.93.048-5.564.354-11.124.736-16.688 1.07-3.21.19-6.424.36-9.638.438-3.54.086-7.083.06-10.624.067-.512 0-.782-.354-.7-.83.308-1.79.756-3.57.903-5.375.29-3.525.526-7.06.59-10.596.123-7.083.16-14.165.148-21.25-.01-4.314-.082-4.315 3.275-7.04.1-.083.35-.023.515.02.068.018.146.17.146.26.013.644.03 1.286-.005 1.93-.184 3.423-.47 6.845-.56 10.27-.15 5.58-.198 11.163-.24 16.743-.022 2.466.02 4.94.13 7.404.1 2.248.513 4.46 1.266 6.59.048.13.278.203.435.28.017.008.142-.153.173-.25.17-.51.37-1.013.482-1.534.822-3.772 1.51-7.558 1.567-11.444.04-2.677.317-5.353.352-8.03.046-3.646.004-7.294-.074-10.94-.092-4.288-.263-8.573-.397-12.86-.003-.108.02-.214.06-.31.04-.1.11-.262.164-.262.18 0 .427 0 .544.11.857.81 1.72 1.616 2.524 2.478.91.983 1.365 2.14 1.218 3.525-.194 1.808-.427 3.623-.448 5.44-.085 8.156-.147 16.315-.105 24.47.01 2.13.385 4.262.68 6.383.1.728.406 1.445.733 2.112.168.348.57.77.896.796.287.023.735-.39.91-.72.763-1.443 1.038-3.043 1.178-4.64.23-2.67.416-5.347.5-8.026.234-7.406-.354-14.795-.543-22.194-.013-.533-.06-1.077-.183-1.594-.33-1.352-.578-2.575 1.38-2.894.41-.066.888-.67 1.053-1.126.472-1.308 1.46-2.078 2.532-2.81.39-.268.95-.088.973.333.043.75.075 1.502.08 2.25.05 7.086.117 14.17.128 21.254.003 2.577-.064 5.156-.235 7.725-.172 2.67-.532 5.328-.752 7.996-.043.505.107 1.068.313 1.537.273.624.837.98 1.534.997.7.018 1.314-.32 1.56-.943.306-.782.515-1.63.6-2.47.16-1.6.063-3.236.324-4.816.686-4.142.658-8.335.892-12.497.305-5.457.083-10.944.064-16.418-.005-.963-.156-1.92-.21-2.884-.11-1.928-.227-3.854-.278-5.783-.013-.392.124-.91.388-1.173 1.06-1.054 2.195-2.03 3.31-3.028.065-.058.265-.07.307-.02.13.148.307.348.29.51-.07.746-.26 1.48-.3 2.225-.26 5.248-.544 10.496-.72 15.747-.1 3.11-.017 6.224-.017 9.337h-.083c0 4.83.005 9.66-.002 14.49-.002 1.627.267 3.21.835 4.727.177.472.567.9.953 1.248.15.14.655.117.814-.032.3-.277.523-.674.672-1.064.81-2.13 1.05-4.388 1.13-6.625.284-7.826.51-15.656.64-23.485.11-6.653.08-13.31.048-19.965-.005-1.28.29-2.306 1.308-3.107.42-.33.78-.743 1.2-1.07.757-.588 1.54-1.138 2.315-1.703.685 1.006.028 2.013 0 3.02-.04 1.394-.088 2.788-.088 4.183.007 10.95.128 21.897-.003 32.843-.064 5.37.806 10.704.398 16.07-.007.107.013.215.034.32.12.565.416.997 1 1.125.667.145 1.31.048 1.727-.54.24-.335.457-.754.505-1.156.314-2.66.82-5.286.808-7.99-.072-14.597-.075-29.195-.11-43.79-.008-1.825-.06-3.65-.118-5.473-.053-1.597-.285-3.174.356-4.75.357-.876-.182-1.68-.94-2.2-.663-.46-1.422-.485-2.14-.11-.564.3-1.13.63-1.63 1.032-2 1.612-4.105 3.126-5.937 4.916-4.3 4.198-8.46 8.535-12.677 12.816-.98.995-1.946 2.002-2.955 2.966-.372.354-.85.6-1.28.896-1.143-1.42-2.232-2.885-3.45-4.235-.853-.948-1.79-1.89-2.86-2.558-1.97-1.235-3.96-1.2-5.564.47-.373.387-.783.737-1.138 1.137-2 2.24-3.934 4.545-5.995 6.73-2.504 2.65-5.104 5.207-7.68 7.787-.528.53-.91.514-1.395.075-.318-.288-.594-.622-.922-.898-1.957-1.657-3.907-3.322-5.896-4.94-.878-.714-1.792-.665-2.658.01-.253.195-.48.424-.723.637-3.07 2.677-6.13 5.373-9.227 8.02-1.384 1.185-2.837 2.29-4.288 3.393-.3.224-.738.26-1.113.384-.08-.307-.216-.608-.228-.917-.16-4.287-.155-8.573-.476-12.86-.368-4.914-.21-9.86-.708-14.78-.302-2.98-.367-5.987-.495-8.987-.01-.21.307-.574.527-.626.403-.094.853.04 1.276-.006 1.26-.137 1.976-.92 1.927-2.112-.02-.533-.075-1.08-.224-1.587-.65-2.264-1.294-4.532-2.03-6.77-.968-2.932-2.22-5.767-1.944-8.995.107-1.26-.977-2.33-2.085-2.53-1.273-.233-2.404.065-3.065 1.222-.47.82-.873 1.746-1.027 2.67-.532 3.182-1.448 6.256-2.4 9.324-.225.718-.5 1.42-.684 2.145-.33 1.288-.285 2.55.378 3.747.57 1.03 1.627 1.513 2.7 1.172.507-.16 1.135-.715 1.445-.56.616.31.34 1.124.35 1.73.04 2.146.016 4.292.062 6.44.135 6.54.212 13.08.476 19.62.328 8.15.223 16.312.345 24.47.04 2.57.227 5.136.29 7.708.05 2.016.396 4.072-.726 5.973-.256.433-.277 1.028-.326 1.557-.07.747-.098 1.5-.094 2.25.013 2.824-.006 2.736-2.92 2.727-1.18-.005-2.366-.04-3.54.03-1.683.11-3.107.764-4.08 2.22-.386.575-.305 1.245.163 1.754.716.775 1.61 1 2.618.99 2.04-.02 4.08-.03 6.12-.012.78.007 1.156.4 1.163 1.187.02 1.823 0 3.647.01 5.47.005.643-.012 1.297.1 1.924.242 1.326 1.48 2.37 2.69 2.357 1.198-.013 2.406-1.073 2.658-2.4.1-.522.096-1.066.1-1.6.01-1.396 0-2.79-.002-4.188 0-.534-.015-1.072.01-1.608.025-.572.434-.945 1.046-.98.32-.02.643-.02.963-.022 7.503-.037 15.004.422 22.51.125.32-.013.64.034.96.053 1.284.068 2.567.183 3.852.196 10.837.11 21.672.25 32.496-.506 3.85-.27 7.713-.384 11.54-.82 3.97-.452 7.934-.236 11.895-.37.94-.033 1.184.205.932 1.108-.337 1.207.027 2.123.884 2.873.81.707 1.793.574 2.757.35.103-.02.206-.06.304-.1 3.233-1.43 6.547-2.707 9.545-4.618.803-.51 1.547-1.157 2.205-1.846.64-.666.697-1.528.304-2.394zm-88.506-3.184c0 .75.027 1.504.107 2.25.066.63.512 1.403.282 1.844-.386.734-1.346.397-2.07.413-1.5.033-3.002.01-4.505.01v-.09c-1.824 0-3.648.02-5.472-.01-1.06-.02-1.376-.38-1.328-1.34.014-.213.02-.43.06-.64 1.02-5.854.59-11.77.752-17.66.018-.644-.036-1.292.006-1.932.072-1.053-.445-2.308.336-3.107.797-.812 1.956-1.27 2.976-1.853.07-.04.352.145.424.285.093.178.1.416.093.627-.16 3.854-.352 7.71-.483 11.566-.078 2.356-.114 4.72-.075 7.082.024 1.597 1.07 2.67 2.283 2.543 1.103-.114 1.948-1.103 1.933-2.563-.037-3.534-.158-7.07-.265-10.605-.11-3.646-.264-7.29-.336-10.936-.01-.48.207-1.115.548-1.432 1.565-1.46 3.208-2.837 4.84-4.224.057-.048.424.114.433.198.053.637.094 1.277.064 1.915-.19 4.285-.485 8.563-.575 12.85-.105 4.93-.032 9.87-.026 14.804zM41.62 70.08c-.185 3.738-.172 7.485-.242 11.345 0 2.773.043 5.662-.016 8.55-.035 1.81-.262 3.62-.33 5.428-.07 1.816-.125 3.637-.046 5.448.072 1.677.155 1.677-1.56 1.666-.427-.002-.878.032-1.27-.096-.227-.076-.537-.467-.507-.67.977-6.495.57-13.028.376-19.532-.14-4.59-.39-9.177-.443-13.77-.008-.716-.328-1.43-.525-2.14-.18-.642.223-1.016.647-1.314.218-.153.67-.245.85-.12.52.358.94.864 1.437 1.265 1.265 1.022 1.71 2.28 1.626 3.94zm14.55-2.496c-.298 3.517-.692 7.025-.967 10.544-.156 2.027-.125 4.068-.22 6.1-.132 2.78-.265 5.562-.47 8.335-.203 2.695.26 5.34.52 7.998.043.426.123.85.21 1.27.094.453-.245.6-.533.605-2.784.048-5.57.077-8.355.08-1.4 0-1.373-.023-1.205-1.666.1-.957.136-1.925.14-2.886.016-7.823.018-15.646.026-23.47 0-.75-.032-1.503.035-2.247.027-.245.21-.608.658-.463.704.23 1.406.482 2.128.644.613.14.947.457.945 1.072 0 .857.04 1.724-.074 2.568-.49 3.514-.368 7.054-.518 10.584-.067 1.6-.272 3.197-.35 4.798-.08 1.71-.176 3.433-.08 5.136.053.928.397 1.877.784 2.735.39.868 1.918.88 2.486.098.72-.986.896-2.138 1.056-3.317.59-4.362.664-8.75.686-13.14.004-.964 0-1.93 0-2.893.018 0 .035 0 .053-.002-.066-3.535-.106-7.072-.218-10.606-.035-1.14.107-2.156 1.1-2.838.726-.496 1.012-1.586 2.117-1.564.02.845.127 1.696.052 2.53z"/></svg>