<svg xmlns="http://www.w3.org/2000/svg" width="128" height="128" viewBox="0 0 128 128"><path d="M107.227 82.837c-1.027-.565-2.08-1.248-3.202-1.45-3.886-.714-7.7-1.862-11.688-1.964-1.714-.043-3.43-.06-5.146-.062-1.622-.002-2.912-.64-3.815-1.99-.597-.896-1.318-1.61-2.192-2.28-1.092-.84-1.853-2.034-1.94-3.553-.108-1.704-.315-3.403-.51-5.102-.234-2.03.268-3.835 1.673-5.326.94-.993 1.28-2.217 1.49-3.485.298-1.792.482-3.6.76-5.397.08-.512.16-1.216.505-1.46 1.553-1.11 2.108-2.934 3.27-4.315.91-1.075 1.43-2.368 1.468-3.833.017-.63.198-1.265.365-1.88.815-2.994 1.517-6.014 1.992-9.078.41-2.64.785-5.256.3-7.976-.51-2.846-1.412-5.58-2.094-8.373-.596-2.438-2.516-3.675-5.007-3.784-2.78-.12-5.57-.23-8.27.734-.8.285-1.12.15-1.582-.65-1.812-3.137-4.59-5.36-7.3-7.617-1.54-1.282-3.374-1.71-5.413-.926-2.773 1.063-5.1 2.683-6.98 4.97-.812.994-1.556 2.098-2.552 2.87-1.94 1.51-4.01 2.858-6.067 4.21-2.16 1.42-4.593 1.71-7.1 1.4-1.593-.195-3.165-.535-4.75-.78-.416-.063-.85-.023-1.273-.007-.37.016-.793.525-.774.89.047.886.28 1.708.984 2.29.75.622.704 1.427.66 2.248l.076.033c.01.083.033.155.06.224l.38.384c.07.024.143.044.23.05.01.043.016.093.02.14 3.152 1.49 6.454 1.87 9.884 1.33.843-.132 1.68-.317 2.515-.484.567-.112.705.038.49.612-.32.852.093 1.428.836 1.837 1.21.665 2.5.523 3.762.293.724-.13 1.454-.41 2.104-.765 2.17-1.187 4.253-2.532 5.858-4.444.747-.89 1.3-1.95 1.867-2.976.19-.348.193-.825.202-1.244.014-.893-1.09-1.647-1.81-1.177-.888.58-1.7 1.28-2.51 1.973-1.624 1.39-3.215 2.822-4.843 4.213-.644.55-1.382.894-2.26.702-.012.02-.026.043-.033.066l-.128.007c-.09.134-.17.286-.29.34-.15.063-.364-.028-.548-.05.122-.08.235-.2.367-.237.148-.043.308-.046.468-.053.018-.03.036-.062.056-.088.035.01.066.003.102.01.33-.832 1.328-.902 1.826-1.552.325-.422.725-.79 1.03-1.227.516-.735.415-1.368-.318-2.25-.17-.207-.612-.334-.187-.676.668-.537 1.423-.98 2.022-1.584 1.13-1.138 2.27-2.288 3.224-3.568 1.137-1.532 2.66-2.46 4.317-3.235.733-.34 1.513-.294 2.112.264 1.567 1.46 3.14 2.92 4.604 4.483.56.6.865 1.46 1.22 2.234.264.578.378 1.227.638 1.81.732 1.638 2.62 2.292 3.95 1.12 1.51-1.336 3.202-1.635 5.047-1.615 1.375.017 2.78-.26 4.116.262.147.056.294.33.288.495-.007.144-.22.377-.366.397-.416.06-.85.06-1.272.027-2.45-.2-4.608.753-6.763 1.7-.15.064-.317.366-.284.514.063.287.205.718.42.788.585.196 1.3.475 1.822.296 2.16-.736 4.485-.29 6.632-1.024.053-.02.216.226.284.37.02.048-.096.214-.173.238-.507.152-1.02.277-1.528.416-1.125.305-2.254.6-3.368.942-.12.036-.243.36-.214.523.032.17.224.413.38.438.626.11 1.266.178 1.9.203.96.037 1.934-.042 2.884.067.33.037.755.444.875.776.176.48.18 1.057.126 1.577-.025.244-.31.602-.55.67-.92.26-1.865.575-2.806.588-.91.014-1.653.2-2.364.75-.553.43-1.164.373-1.807.08-1.69-.77-3.477-1.04-5.328-.904-1.294.095-1.862.44-1.98 1.238-.157 1.052.32 1.754 1.435 2.162 1.003.368 1.992.77 2.997 1.134.687.25.992.74 1.064 1.444.07.64.307 1.277.274 1.906-.166 3.168 1.184 6.063 1.613 9.12.017.123.3.227.475.297.065.026.204-.05.265-.12.14-.155.267-.327.367-.51.206-.373.41-.753.587-1.144.585-1.294 1.605-1.935 2.99-2.12.694-.092 1.35.224 1.428.864.075.64.048 1.287.123 1.925.148 1.224-.284 2.013-1.484 2.48-.672.26-1.287.755-1.832 1.25-.915.835-1.203 1.72-.87 3.12.646 2.705.637 5.507-.06 8.266-.3 1.183-.853 2.19-1.71 3.04-2.668 2.66-5.61 4.98-8.826 6.935-.622.378-1.374.69-2.088.747-2.337.184-4.637.684-7.012.598-2.17-.08-4.256-.378-6.29-1.1-2.635-.94-5.083-2.262-7.493-3.66-1.184-.688-1.91-1.69-2.215-3.008-.242-1.04-.53-2.075-.698-3.13-1.027-6.442-2.03-12.888-3.03-19.333-.08-.53-.114-1.068-.14-1.603-.17-3.653-.07-3.104 2.71-1.845 4.197 1.9 8.657 2.642 13.174 2.02 5.827-.802 10.406-3.733 13.2-9.096.15-.285.35-.565.41-.87.133-.667-.056-1.294-.533-1.77-.416-.416-1.024-.482-1.498-.23-1.222.646-2.41 1.37-3.584 2.11-1.72 1.082-3.39 2.25-5.13 3.293-1.21.722-2.588.91-4 1.042-5.757.533-10.673-1.762-15.468-4.478-2.065-1.173-3.732-2.863-5.45-4.477-.158-.15-.158-.47-.196-.75-.036-.017-.072-.03-.11-.047l-.142-.144c-.188-.066-.312-.197-.38-.384l-.14-.142c0-.038.002-.075.004-.113-.256-.11-.557-.184-.72-.375-.414-.483-.71-1.07-1.13-1.544-.187-.208-.627-.412-.83-.326-.36.147-.8.47-.89.808-.157.592-.19 1.27-.062 1.87.13.61.488 1.184.796 1.745.328.6.433 1.2.2 1.845-.83 2.293-.666 4.675-.345 6.992.59 4.248 2.03 8.316 3.424 12.337 1.253 3.615 2.89 7.13 4.85 10.465.53.9.833 1.963 1.105 2.987.302 1.13.562 2.298.642 3.462.174 2.53 1.33 4.496 3.266 6.018.89.7 1.438 1.574 1.8 2.592.392 1.11.715 2.245 1.096 3.357.464 1.355.62 2.79.283 4.12-.395 1.583-.584 3.16-.58 4.763 0 1.165-.566 1.712-1.58 2.112-2.29.903-4.555 1.87-6.81 2.856-4.117 1.804-8.25 3.56-12.544 4.92-1.12.35-2.236.757-3.295 1.26-.655.31-1.264.793-1.77 1.316-.244.25-.357.827-.244 1.157.113.325.556.68.908.753 1.18.245 2.32-.075 3.467-.4 5.056-1.437 9.923-3.373 14.743-5.444 2.653-1.14 5.32-2.25 7.983-3.37.668-.282.857-.2 1.2.558.224.485.4.992.624 1.478.627 1.36 1.22 2.74 1.925 4.064.59 1.1 1.77 1.328 2.725.582.674-.525 1.27-1.147 1.91-1.713.386-.34.778-.277 1.07.19.966 1.54 1.947 3.077 2.86 4.65.185.32.18.81.12 1.2-.692 4.47-2.31 8.666-4.003 12.82-1.11 2.73-1.748 5.445-1.562 8.428.114 1.84.188 3.43 2.313 4.018.275.077.45.454.71.636 1.67 1.16 3.702.755 4.577-1.06.35-.726.718-1.247 1.41-1.618.56-.3 1.1-.668 1.584-1.077.532-.448.64-1.42.317-2.086-.25-.523-.946-.846-1.622-.804-1.008.06-1.845.53-2.64 1.082-.703.487-1.36 1.038-2.063 1.52-.095.067-.426-.024-.504-.14-.59-.9-.18-2.136.75-2.19.98-.057 1.914-.19 2.768-.703 1.188-.72 2.377-1.448 3.587-2.13 1.43-.807 2.096-1.94 1.778-3.548-.045-.035-.08-.075-.13-.11l-.01-.122c-.636-.227-1.267-.46-1.903-.683-.31-.108-.346-.247-.067-.386.445-.224.89-.452 1.357-.608.112-.037.427.177.457.317.092.444.115.907.156 1.36l.11.04c.016.065.02.127.03.19 1.002.792 1.174 2.07 1.76 3.105.475.825.913 1.696 1.523 2.413.753.882 2.092.69 2.774-.278.405-.576.424-1.225.19-1.84-.346-.898-.802-1.752-1.173-2.64-1.938-4.65-3.96-9.26-6.797-13.454-.4-.59-.467-1.176-.02-1.775.383-.516.75-1.045 1.136-1.557.653-.867 1.243-1.704 2.63-1.286.458.134 1.223-.34 1.678-.732.654-.565 1.294-1.07 2.1-1.43.77-.34 1.505-.836 2.13-1.405 1.28-1.167 2.736-2.046 4.205-2.94 2.1-1.275 4.31-2.455 5.87-4.428.636-.804 1.323-.99 2.24-.78 3.983.905 8.025 1.315 12.11 1.206 1.143-.03 2.06.353 2.99.954 1.07.69 2.185 1.348 3.35 1.856 1.176.512 2.364-.094 2.88-1.283.36-.832-.013-1.93-.98-2.464zM81.097 29.12c-.195-.4.036-.573.362-.597.53-.043 1.067-.013 1.602-.013v-.077c.427-.02.858-.05 1.284-.053.612-.01.944.313 1.027.96.13 1.022-.07 1.355-1.01 1.632-.31.094-.62.168-.928.254-1.728.486-1.728.486-2.14-1.495-.042-.206-.108-.416-.2-.606zm.815 5.392c-.155-.06-.365-.397-.323-.467.133-.222.36-.5.585-.533.52-.077 1.06-.025 1.593-.025v.013c.426 0 .852-.016 1.276.004.62.03.846.34.83 1.096-.026 1.114-.274 1.276-1.28.892-.89-.338-1.8-.63-2.683-.98zM35.168 32.8c-.03.21-.11.835-.207 1.457-.014.096-.115.174-.18.26-.07-.06-.177-.1-.21-.175-.62-1.472-1.115-2.973-.866-4.605.02-.15.227-.288.376-.392.042-.03.223.05.273.126.285.434.655.85.79 1.33.132.492.026 1.05.026 2zm22.71 50.123c-1.03 1.07-2.07 2.13-3.13 3.17-.662.652-1.366 1.26-2.05 1.89-.586-.75-1.187-1.49-1.75-2.256-.25-.338-.438-.725-.62-1.107-.98-2.048-1.15-1.754.04-3.75.22-.366.378-.77.624-1.107.174-.238.412-.453.786-.208 1.803 1.173 3.826 1.803 5.874 2.38.164.046.277.274.414.418-.06.192-.06.44-.186.57zm.537 6.37l.188.025-.064-.25-.126.225zm.747 25.267c-.064.077-.11.18-.192.227-.21.123-.425.548-.67.064-.07-.143-.063-.464.022-.52.21-.135.497-.23.742-.21.286.02.314.237.096.44zm2.634-20.237c-.043.053-.178.107-.2.088-.346-.35-.696-.704-1.003-1.09-.053-.063.067-.285.145-.412.018-.03.213 0 .28.06.35.312.685.642.976.918-.117.27-.14.37-.197.437zm-.47-7.947c-.223.053-.54.062-.11.427l.11-.427c.042-.01.08-.02.11-.035l.054-.086c.2.01.427.047.208-.348l-.21.348c-.047-.003-.093-.004-.132.002l-.032.122zm1.683 16.462c-.077.125-.424.238-.5.175-.198-.162-.31-.424-.446-.63.184-.193.293-.41.416-.418.324-.017.7.595.53.875zm1.3-11.65c-.05-.076-.15-.16-.146-.23.02-.17.09-.334.14-.5.06.028.164.067.16.085-.042.216-.1.43-.154.644zm-2.23-10.553c-.384.31-.776.25-.99-.284-.85-2.067-2.477-3.16-4.53-3.753-1.332-.384-2.666-.78-4.01-1.135-1.12-.295-1.752-1.524-1.32-2.698.045-.114.37-.25.47-.198 2.878 1.485 5.97 1.448 9.094 1.46 2.3.01 4.48-.21 6.507-1.366.368-.21.776-.395 1.188-.474 1.716-.33 3.236-1.058 4.66-2.062.834-.592 1.1-.42 1.138.582.008.213 0 .43 0 .644h-.004c0 .427.06.868-.02 1.282-.054.277-.273.548-.477.765-.135.144-.376.198-.576.277-4.12 1.66-7.7 4.186-11.13 6.96zm20.082.554c-2.717 2.057-5.43 4.12-8.173 6.14-.97.714-2.08 1.076-3.2.902-2.003.043-2.963-1.278-3.85-2.622-.343-.515-.405-1.208-.668-1.787-.233-.512.01-.866.363-1.062.93-.52 1.888-.995 2.864-1.427 2.043-.91 4.104-1.76 6.034-2.925 1.052-.634 2.38-1.216 3.543-1.152 1.39.075 2.21 1.523 3.175 2.496.37.374.318 1.132-.09 1.44zm18.112 18.874c.404.14.756.725.924 1.182.2.552-.18 1.064-.633 1.355-.435.283-.962.436-1.466.59-1.938.596-3.887 1.158-5.824 1.75-2.165.664-4.378.95-6.64.87-.532-.02-1.068.014-1.6.06-.6.05-.968.507-.874 1.09.1.632.285 1.253.335 1.883.032.414-.004.907-.21 1.237-.27.422-.71.945-1.13.996-.396.047-.872-.437-1.28-.736-.16-.115-.268-.344-.326-.542-.745-2.452-1.35-4.936-1.54-6.877 0-.84-.01-1.05.004-1.264.053-.827.647-1.567 1.316-1.57.724-.005 1.17.436 1.437 1.072.164.395.235.848.474 1.184.22.307.593.652.93.694.845.107 1.706.053 2.56.053 1.046 0 1.073-.007 1.265-1.383.116-.84.6-1.387 1.318-1.664.893-.343 1.82-.662 2.76-.8 2.795-.41 5.547-.097 8.203.825zm-44.512-44.21c-.558.05-1.31-.583-1.432-1.117-.093-.415-.19-.85-.16-1.266.093-1.17.198-2.347.398-3.504.307-1.79.73-3.558 1.037-5.35.187-1.087.53-2.082 1.3-2.87.2-.205.63-.402.84-.317.356.142.7.465.903.8.144.234.12.63.06.927-.507 2.402-1.036 4.8-1.558 7.2-.195.904-.004 1.144.91 1.124.213-.003.427-.046.903-.1.272.023.81.035 1.333.123.565.094.97.437 1.133 1 .185.647-.02 1.473-.527 1.735-1.615.84-3.313 1.463-5.14 1.617zm9.22 2.73c.823.442.96 1.502.368 2.202-.797.947-1.83 1.53-3.03 1.636-3.004.267-5.993.17-8.894-.78-.787-.256-1.402-1.008-1.37-1.603.042-.774.835-1.468 1.816-1.46 1.283.002 2.565.094 3.85.147 2.033.105 4.064.2 6.065-.363.356-.1.853.032 1.197.218zm2.16-19.784c.746-.04 1.762.656 1.94 1.386.277 1.122.462 2.27.632 3.138-.075.605-.08.926-.155 1.23-.404 1.597-2.16 2.182-3.53 1.228-.656-.46-1.033-1.086-1.183-1.813-.288-1.39-.048-2.75.52-4.03.32-.722.987-1.095 1.776-1.14zm-17.525 2.635c.682-.032 1.71.706 1.88 1.495.198.93.256 1.887.367 2.756-.048.61-.06 1.145-.133 1.667-.102.728-.73 1.352-1.46 1.5-.697.143-1.34-.088-1.68-.65-.937-1.57-1.54-3.255-1.13-5.133.178-.815 1.25-1.596 2.156-1.636zm14.846-4.782c-.388-.157-.603-.626-.447-1.074.096-.273.31-.606.552-.704 1.41-.565 2.842-.927 4.277-.026.45.285.92.97.704 1.296-.278.413-.67.802-1.103 1.04-.346.187-.827.128-1.6.22-.598-.18-1.517-.404-2.385-.753z"/></svg>