<svg xmlns="http://www.w3.org/2000/svg" width="128" height="128" viewBox="0 0 128 128"><path d="M122.958 101.453c-.224-1.084-1.035-1.594-1.984-1.91-1.007-.333-2.055-.554-3.057-.91-1.312-.463-2.603-.994-3.893-1.514-2.107-.85-4.354-1.07-6.56-1.457-.817-.146-1.55.917-1.376 1.773.143.686.528 1.198 1.105 1.506 1.41.763 2.846 1.483 4.288 2.18.674.33 1.385.563 2.065.876.068.03.088.423.015.47-.442.29-.897.56-1.38.776-1.185.527-1.25.56-2.113-.49-.88-1.068-1.87-1.615-3.312-1.596-4.718.066-9.44.025-14.163.032-.86 0-1.714.053-2.573.053-.827-.002-1.15-.32-1.18-1.154-.184-5.035-.35-10.073-.543-15.11-.094-2.457.02-4.933-.675-7.346-.216-.747-.013-1.445.548-2.075 1.074-1.2 2.064-2.47 3.11-3.69.2-.24.482-.41.742-.6.07-.05.207-.087.267-.052.08.05.16.177.16.266-.245 3.85-.495 7.697-.744 11.547.085.005.168.007.252.01 0 3.22-.047 6.44.028 9.66.025 1.05.302 2.11.594 3.13.262.93.656 1.866 1.78 2.074.844.156 1.647-.625 2.23-1.987.52-1.216.656-2.494.647-3.784-.04-6.114-.006-12.235-.242-18.344-.08-2.097-.16-4.29-1.077-6.297-.244-.533-.065-1.045.278-1.498 1.23-1.62 2.46-3.246 3.696-4.864.06-.08.178-.112.27-.17.088.18.242.36.25.54.02.534-.027 1.073-.02 1.61.025 3.967-.02 7.94.114 11.907.09 2.782.323 5.568.677 8.33.23 1.795.75 3.557 1.216 5.313.25.95.805 1.747 1.63 2.326.403.286.823.31 1.152-.043.358-.384.763-.8.92-1.278.438-1.325.75-2.688.65-4.107-.257-3.633-.48-7.27-.782-10.9-.255-3.094-.61-6.18-.908-9.273-.043-.422-.015-.86.015-1.283.01-.18.107-.348.164-.523.087.192.198.377.258.574.444 1.43.955 2.84 1.298 4.29.565 2.392.95 4.834 1.544 7.22 1.243 4.985 2.57 9.95 3.876 14.917.11.41.28.816.483 1.19.643 1.19 2.04 1.835 3.25 1.533 1.283-.32 2.32-1.423 2.406-2.706.043-.63-.034-1.287-.184-1.902-.224-.936-.562-1.845-.846-2.765-.877-2.866-1.847-5.71-2.603-8.61-1.41-5.386-2.78-10.783-4-16.212-1.077-4.776-2.912-9.4-2.677-14.456.075-1.62-1.24-2.656-2.808-3.145-1.2-.378-2.585.245-3.54 1.606-.37.523-.728 1.065-1.045 1.62-1.34 2.324-2.713 4.628-3.975 6.993-1.523 2.846-3.187 5.583-5.323 8.02-1.412 1.615-2.784 3.263-4.186 4.886-.627.725-1.283 1.426-1.925 2.14-1.167-.55-1.003-1.823-1.438-2.75-.594-1.255-.97-2.61-1.45-3.918-.22-.602-.442-1.21-.723-1.786-1.12-2.275-3.806-2.173-5.173-.864-.605.578-1.177 1.295-1.5 2.06-1.567 3.748-4.624 6.417-6.86 9.674-.25.366-.843.376-1.123.02-1.456-1.848-3.063-3.613-4.292-5.607-1.798-2.912-3.317-6-4.96-9.01-.617-1.13-1.202-2.28-1.888-3.364-.395-.623-.91-1.202-1.467-1.69-.916-.798-2.3-.765-3.272-.03-.804.605-1.25 1.422-1.573 2.366-1.532 4.46-3.09 8.908-4.648 13.356-1.277 3.637-2.553 7.277-3.86 10.904-.252.69-.656 1.335-1.033 1.975-.062.1-.456.162-.517.088-.558-.647-1.024-1.38-1.613-1.995-2.08-2.176-4.817-2.027-6.594.32-.128.17-.242.352-.37.53-1.31 1.823-2.55 3.715-3.97 5.457-1.143 1.408-2.5 2.645-3.78 3.938-.097.094-.353.06-.526.032-.068-.01-.158-.16-.166-.256-.04-.427-.077-.856-.08-1.282-.02-7.077-.047-14.15-.34-21.23-.313-7.5-.516-15.005-.885-22.503-.1-2.03-.32-4.056-.444-6.087-.09-1.5-.125-3.002-.158-4.505-.01-.446.146-.89.727-.683 1.06.377 1.892.063 2.583-.745.623-.727.608-1.568.34-2.43-.858-2.76-1.738-5.516-2.578-8.283-.804-2.648-1.995-5.205-1.704-8.107.12-1.212-.682-1.988-1.74-2.447-.96-.416-2.14-.085-2.93.747-.688.722-1.06 1.584-1.246 2.563-.75 3.893-1.8 7.712-3.037 11.483-.102.306-.104.64-.21.944-.387 1.093-.085 2.125.302 3.123.41 1.067 1.414 1.62 2.584 1.472.512-.065 1.158-.53 1.475-.35.596.347.357 1.155.383 1.78.134 3.535.296 7.07.38 10.606.224 9.544.213 19.09.634 28.634.313 7.07.17 14.164.22 21.247.005.64.1 1.346-.127 1.91-.9 2.24-1.117 4.558-1.132 6.93-.003.952-.355 1.234-1.446 1.258-1.717.032-3.435.046-5.15.043-1.248 0-2.296.46-3.202 1.286-.612.56-.866 1.376-.62 2.027.298.78.9 1.218 1.693 1.293.853.08 1.712.053 2.57.06 1.718.02 3.436.016 5.15.057.466.01.814.308.82.803.03 1.933.024 3.865.046 5.796.006.75-.018 1.504.094 2.242.174 1.184 1.29 2.054 2.51 2.06 1.228.003 2.344-.84 2.54-2.032.124-.735.11-1.495.117-2.244.018-1.824 0-3.648.02-5.472.008-.495.59-.99 1.108-.965 1.28.06 2.564.204 3.845.21 15.35.054 30.693.16 46.043.103 5.035-.02 10.082-.31 15.097-.768 3.102-.288 6.2-.432 9.307-.565 2.784-.116 5.565-.253 8.348-.366.75-.032 1.504-.032 2.25.01.29.017.623.104.51.58-.127.517-.26 1.05-.26 1.578-.005 1.308.893 2.216 2.19 2.31.988.067 1.904-.172 2.796-.588 2.037-.956 4.123-1.816 6.13-2.83 1.334-.672 2.587-1.52 3.84-2.347 1.113-.736 1.41-1.832 1.145-3.106zm-19.744-45.927c.13.196.33.43.305.46-.186.197-.41.357-.634.508-.02.013-.224-.175-.213-.192.16-.256.34-.497.54-.776zm-76.37 46.906c-.854.035-1.712.01-2.57.01v.057c-.75-.04-1.498-.066-2.244-.116-.45-.03-.843-.46-.732-.853.525-1.876.53-3.807.667-5.727.06-.796.27-.946 1.237-1.13.62-.123 1.23-.286 1.845-.43.675-.156.887-1.27 1.824-.886.095.734.12 1.483.287 2.197.463 2.003.37 4.04.448 6.07.02.526-.293.788-.762.807zm9.936-13.46c-.702 4.102-.85 8.266-.69 12.433.026.683-.285 1.024-.87 1.073-.108.01-.214.03-.318.032-.32.003-.64 0-.96 0v-.04c-.533 0-1.067.032-1.597-.01-.463-.036-.81-.276-.765-.807.117-1.274.3-2.545.373-3.82.102-1.808.162-3.626.173-5.44.006-.62.032-1.49-.335-1.823-1.27-1.158-.574-2.02.18-2.976.724-.922 1.405-1.877 2.122-2.812.257-.333.822-.31 1.103.043.27.33.472.725.776 1.016.928.89 1.04 1.81.813 3.13zm37.007-10.096c-.08 1.17-.3 2.34-.306 3.513-.03 6.217-.02 12.443-.02 18.665 0 .893-.236 1.234-1.034 1.286-.644.044-1.287.054-1.93.057-9.018.043-18.034.082-27.048.12-.43.004-.86.01-1.29-.006-1.383-.045-1.567-.24-1.648-1.75-.022-.43-.024-.86-.035-1.29-.072-2.89.06-5.79-.48-8.66-.16-.86-.107-1.676.974-2.08 1.715-.644 2.65-2.05 3.44-3.644.53-1.077.77-2.37 1.84-3.14 0-.045-.004-.09-.005-.134.046-.01.098-.018.146-.028l.178-.267c-.016.075-.007.184-.054.218-.032.027-.077.04-.124.05l-.07.106c-.027.018-.046.04-.07.057.035 1.022.104 2.044.09 3.066-.052 3.757-.152 7.51-.202 11.27-.014.96.016 1.934.126 2.89.175 1.534 1.387 2.622 2.778 2.587 1.402-.034 2.677-1.136 2.9-2.548.065-.42.054-.856.044-1.284-.105-6.325-.373-12.642-1.01-18.94-.13-1.28-.136-2.573-.18-3.858-.03-.966-.01-1.927-.5-2.816-.39-.704-.307-1.47-.047-2.19.912-2.518 1.843-5.03 2.79-7.534.06-.16.326-.32.505-.333.14-.01.352.18.437.337.605 1.135 1.12 2.325 1.795 3.416.848 1.365.944 2.778.736 4.32-.816 6.062-1.145 12.156-1.188 18.272-.018 2.69.256 5.35.64 8.004.155 1.092.56 2.064 1.197 2.947.617.853 1.547 1.187 2.55.91.948-.26 1.388-.95 1.486-1.885.055-.533.12-1.074.09-1.608-.195-3.317-.417-6.632-.626-9.95-.032-.538-.068-1.07-.092-1.61-.15-3.747-.025-7.508-.555-11.236-.023-.17.115-.467.256-.538.144-.068.48.006.575.133.825 1.113 1.71 2.202 2.376 3.41.334.602.326 1.436.34 2.17.06 3.327 0 6.655.13 9.977.1 2.456.38 4.91.688 7.355.102.825.454 1.648.823 2.406.36.74 1.095.99 1.904.93.708-.052 1.442-.674 1.587-1.4.126-.628.214-1.276.207-1.916-.028-3.965.132-7.94-.543-11.88-.162-.945-.085-1.932-.242-2.884-.216-1.333.075-2.254 1.456-2.8.54-.21.918-.86 1.33-1.348.896-1.067 1.756-2.158 2.64-3.232.054-.064.2-.126.26-.1.086.04.187.17.184.252-.053 1.39-.105 2.775-.198 4.16zm10.005 14.848c.02 1.917.334 3.832.497 5.75.04.527.09 1.073.01 1.588-.044.25-.35.6-.585.645-.732.134-1.488.14-2.236.197v-.073c-.64 0-1.29.06-1.915-.027-.254-.032-.612-.354-.66-.597-.182-.832-.315-1.685-.335-2.532-.06-2.464-.1-4.928-.07-7.39.07-5.358-.33-10.695-.742-16.032-.098-1.292-.352-2.525-.946-3.696-.358-.706-.208-1.096.39-1.666.37-.35.908-.325 1.07.06.452 1.083.92 2.16 1.33 3.258.707 1.9 1.814 3.39 3.843 4.008.723.224.994.706.93 1.445-.084.96-.045 1.937-.2 2.883-.657 4.046-.42 8.12-.384 12.18z"/></svg>