<svg xmlns="http://www.w3.org/2000/svg" width="128" height="128" viewBox="0 0 128 128"><path d="M125.95 64c-.737-.91-1.505-1.824-2.4-2.57-1.477-1.23-3.07-2.32-4.605-3.485-1.11-.84-2.126-1.83-3.317-2.528-4.158-2.453-8.448-4.64-13.266-5.52-2.526-.463-5.04-1.033-7.63-1.02-1.078.005-2.175-.044-3.137.508-.317.18-.697.663-.667.974.183 1.924-.19 3.83-.144 5.747.02 1.007-.09 1.775-1.454 2.05-.856.172-1.572 1.044-2.336 1.67-.02.068-.043.14-.067.205-.028.015-.06.027-.09.04-.007.385.026.783-.07 1.145-.796 2.978-1.615 5.95-2.446 8.917-.312 1.13-.64 2.255-1.033 3.354-.245.67-.296 1.678-1.15 1.75-.5.044-1.056-.596-1.59-.923-2.02-1.235-4.276-1.888-6.495-2.642-.493-.168-.98-.37-1.444-.608-.107-.053-.123-.325-.13-.496-.003-.053.16-.13.257-.164 5.62-1.91 10.22-5.2 13.662-10.07.09-.127.277-.188.445-.263v-.115c.053-.042.107-.086.158-.13.145-.434.267-.882.49-1.273 1.716-3.05 2.62-6.308 2.63-9.82.004-.84-.044-1.812.35-2.476.305-.523 1.266-.643 1.92-.98.377-.196.73-.45 1.07-.705.784-.6 1.456-1.328 1.68-2.297.316-1.37.336-2.774-.135-4.124-.37-1.058-1.083-1.813-2.17-2.227-.414-.16-.588-.566-.29-1.043.226-.363.47-.74.575-1.146.883-3.418 1.75-6.843 2.58-10.276.12-.505.08-1.062.03-1.59-.055-.598-.712-1.29-1.315-1.183-1.056.19-1.835-.2-2.673-.725-.718-.45-1.533-.762-2.33-1.067-1.5-.568-3.01-1.11-4.53-1.617-.603-.202-1.25-.383-1.876-.383-1.72-.006-3.096-.7-4.315-1.85-.62-.59-1.28-1.15-1.973-1.65-2.432-1.758-4.806-3.614-7.35-5.195-3.647-2.264-8.356-2.344-12.312-.56-1.852.832-3.736 1.61-5.65 2.29-4.436 1.58-7.476 4.864-10.234 8.43-.667.865-1.1 1.804-2.296 1.97-.1.016-.195.088-.29.137-1.803.91-3.422 2.23-5.53 2.476-.188.02-.452.188-.512.35-.57 1.546-2.168 2.67-1.748 4.64.267 1.245.222 2.556.414 3.822.224 1.48.555 2.944.843 4.414.107.55.06 1.056-.35 1.49-.37.39-.772.763-1.056 1.21-1.924 3.003-.462 5.924 2.032 6.95.495.204 1.01.353 1.518.524 1.288.434 1.304.432 1.33 1.76.022 1.286.027 2.574.007 3.86-.016 1.128-.135 1.34-1.185 1.53-1.725.31-3.28.99-4.717 1.95-1.704 1.142-3.556 1.972-5.458 2.694-2.617.997-5.05 2.347-7.425 3.81-1.734 1.067-3.514 2.07-5.182 3.232-1.133.786-2.368 1.632-3.09 2.755-.99 1.54-2.22 2.88-3.213 4.4-.35.538-.725 1.065-1.006 1.638-.725 1.465-.457 2.65.787 3.727.685.59 1.68.666 2.37.12.503-.395.945-.868 1.42-1.3 3.346-3.02 6.726-5.996 10.423-8.58 1-.698 1.335-.57 1.352.532.05 3.537.077 7.072-.403 10.596-.173 1.267-.194 2.573-.125 3.85.107 1.985 1.06 2.833 3.064 2.966.945.06 1.888.163 2.83.25.33 1.178-.522 2.007-.984 2.888-.996 1.89-2.077 3.76-3.33 5.488-.92 1.27-1.823 2.37-1.118 4.053.146.347.034.866-.104 1.258-.51 1.44.147 2.49 1.067 3.463 1.65 1.756 3.635 2.988 5.907 3.766 2.338.81 4.55 1.888 6.652 3.186 2.094 1.296 4.206 2.57 6.27 3.92 3.51 2.292 7.293 4.08 10.98 6.05 1.23.655 2.566 1.09 4 1.083.664 0 1.286-.145 1.667-.753.087-.142.112-.475.025-.548-.316-.26-.674-.495-1.053-.655-4.77-2.027-9.23-4.523-12.934-8.23-.67-.67-1.496-1.2-2.306-1.71-3.635-2.28-7.408-4.31-11.217-6.286-1.797-.934-3.45-2.156-5.145-3.278-.392-.26-.427-.69-.183-1.127 1.21-2.148 2.428-4.29 3.603-6.458.66-1.224 1.235-2.494 1.867-3.736.604-1.19.736-2.43.57-3.75-.193-1.512-.61-2.124-2.017-2.532-.507-.148-1.05-.174-1.58-.247-1.712-.234-2.638-1.354-2.57-2.996.143-3.32.256-6.64.347-9.958.043-1.5-.035-3.004.02-4.504.016-.378.236-.885.53-1.088 1.665-1.168 3.372-2.275 5.085-3.37.723-.462 1.533.002 1.565.874.062 1.605-.05 3.232.163 4.818.6 4.456 1.454 8.875 2.562 13.232.79 3.112 1.64 6.223 3.106 9.104.58 1.137 1.197 2.315 2.048 3.243 1.03 1.13 1.876 2.336 2.554 3.676 2.054 4.07 5.122 7.395 8.123 10.73 1.185 1.317 2.94 2.12 4.42 3.17.61.437 1.293.823 1.773 1.38 1.108 1.296 2.66 1.76 4.116 2.41.714.32 1.08-.003 1.514-.687.684-1.08-.112-2.007-.132-3-.028-.004-.056-.004-.085-.01l-.008-.113c-.33-.147-.686-.26-.943-.487-.124-.11-.066-.518.03-.74.06-.145.337-.253.52-.26.094 0 .258.244.286.393.063.36.077.73.104 1.096.03.013.06.023.087.037 0 .03.006.06.006.085.885.12 1.798-.203 2.66.507.84.69.98.59 1.734-.42.296-.396.41-.737.766-.09.153.28.352.545.576.77.5.492 1.296.308 1.59-.342.084-.194.22-.385.244-.588.233-1.803.46-3.605.66-5.414.084-.775-.095-1.49-.64-2.085-.292-.32-.596-.695-.354-1.127.797-1.434.687-2.87.136-4.333-.02-.048.112-.21.192-.227.175-.032.483-.068.523.006.58 1.14 1.084 2.325 1.694 3.45.404.742.88 1.473 1.45 2.086.45.48 1.1.61 1.78.277.607-.3 1.153-.675 1.186-1.383.028-.625.014-1.316-.224-1.874-.754-1.77-1.632-3.492-2.443-5.237-.87-1.875-2.01-3.524-3.644-4.832-.91-.73-.88-.784-.405-1.852.918-2.07 1.908-4.11.85-6.458-.153-.34-.015-.843.066-1.254.285-1.408-.403-2.222-1.584-2.803-.66-.327-1.248-.96-2.056-.664-.925.34-1.606.175-2.31-.53-.33-.33-.962-.496-1.458-.5-1.176-.003-2.365.057-3.525.24-.833.13-1.662.432-2.435.78-.826.373-1.534 1.49-1.31 2.673.588 3.08 1.96 5.88 2.994 8.797.148.43.696.816 1.15 1.016.55.243.902.565.995 1.127.085.507.166 1.04.096 1.54-.09.628-.29 1.254-.525 1.85-.9 2.29-1.76 4.6-2.773 6.84-.69 1.516-1.3 2.954-.427 4.58.046.085.01.21.02.316.038.36-.532.78-.893.672-1.39-.43-2.447-1.316-3.29-2.458-1.784-2.41-3.58-4.815-5.29-7.277-1.34-1.93-2.67-3.883-3.807-5.93-2.087-3.77-3.42-7.846-4.395-12.03-.26-1.128-.347-2.297-.514-3.446 1.156.504 1.332 1.756 1.98 2.642 1.583 2.156 3.207 4.29 4.293 6.774.2.46.66.834 1.067 1.168.81.663 1.914.497 2.566-.336.132-.168.3-.33.368-.525.748-2.172 2.308-3.84 3.517-5.727.748-1.166 1.398-2.396 2.044-3.622.23-.43.52-.66.98-.67 2.355-.04 4.722.06 7.022-.62.192-.057.427-.02.63.025 4.593 1.032 9.105 2.333 13.476 4.096 1.11.45 2.1 1.046 2.827 2.04.96 1.32 2.404 1.718 3.92 1.92.816.11 1.472-.252 1.89-.956.214-.365.352-.78.492-1.184.597-1.71 1.17-3.432 1.784-5.14.043-.117.238-.18.4-.253l.006-.12c.038-.02.064-.05.098-.075.03-.587.058-1.173.098-1.758.006-.1.08-.194.125-.288.074.14.212.277.215.42.004.585.114 1.214-.44 1.627l-.007.147c-.027.017-.063.032-.095.046-.04.707-.007 1.433-.166 2.112-1.477 6.26-3.378 12.386-5.94 18.293-.817 1.88-1.743 3.69-2.973 5.325-.578.768-1.323 1.408-1.91 2.17-1.17 1.525-2.356 3.047-3.408 4.654-1.046 1.593-1.84 3.35-3.06 4.836-.26.315-.386.76-.503 1.165-.192.676.35 1.65 1.018 1.793.62.133.977-.293 1.274-.76.402-.632.794-1.272 1.2-1.903 3.01-4.69 6-9.39 9.045-14.055.757-1.163 1.583-2.325 2.58-3.27 1.455-1.38 2.322-3.012 2.964-4.875 1.855-5.376 3.277-10.867 4.25-16.46.82-4.74 1.476-9.52 1.44-14.362-.03-4.075-.41-3.578 3.638-3.403 1.16.05 2.315.4 3.456.683 1.468.363 1.74.71 1.866 2.197.21 2.453.443 4.904.603 7.36.124 1.926.175 3.857.223 5.787.02.78-.39 1.2-1.152 1.237-.855.036-1.714.004-2.57.04-1.9.08-2.683.914-2.752 2.8-.034.915.213 1.7.856 2.336.763.752 1.528 1.51 2.352 2.192 1.9 1.567 3.84 3.085 5.752 4.637.498.405.97.845 1.434 1.29.352.337.34.732.134 1.16-1.035 2.146-2.51 3.992-4.025 5.796-1.793 2.13-3.724 4.15-5.49 6.305-2.523 3.083-5.385 5.82-8.27 8.542-2.885 2.72-5.738 5.476-8.57 8.25-.527.515-.932 1.168-1.32 1.802-.35.564-.195 1.204.308 1.756.61.666 1.35.91 2.005.51.723-.44 1.445-.93 2.04-1.527 3.403-3.42 6.778-6.87 10.472-9.985.818-.69 1.568-1.473 2.272-2.276 2.333-2.66 4.697-5.297 6.923-8.044 2.018-2.495 4.11-4.946 5.555-7.86.784-1.582 1.448-3.123.72-4.9.503-1.68-.604-2.596-1.71-3.46-1.434-1.124-2.927-2.17-4.37-3.28-.588-.455-1.114-.993-1.642-1.52-.058-.06.043-.427.12-.448 1.242-.31 2.494-.572 3.737-.878.82-.203 1.27-.85 1.392-1.61.117-.727.066-1.492.006-2.236-.093-1.173-.256-2.34-.388-3.51l-.547-4.78c-.22-1.91-.46-3.82-.644-5.734-.03-.3.223-.63.624-.544 3.793.803 6.822 2.987 9.707 5.42.31.26.47.703.696 1.064.468.74 1.04 1.33 1.886 1.673.58.237 1.164.563 1.627.977 1.013.902 2.325 1.035 3.514 1.472.624.23 1.542-.433 1.74-1.115.183-.646.208-1.34-.21-1.855zM90.86 39.712c.08-.062.42.047.483.16.334.62.256 1.214-.235 1.728-.064.064-.18.072-.277.107-.09-.02-.22-.006-.273-.064-.434-.467-.29-1.468.305-1.93zM35.4 41.984c-.077.395-.642.663-.975.41-.313-.238-.663-.555-.766-.904-.146-.49.53-1.197 1.144-1.28.15-.02.412.12.48.26.13.266.158.583.2.767-.037.333-.046.544-.085.747zm30.143 40.7c.245.027.476.158.733.258l-.34.597-.68-.466c.095-.14.207-.4.287-.39zM64.44 92.13c.72-1.19 1.7-1.494 2.82-.865.11.06.188.46.128.504-.608.465-2.304.96-2.808.86-.053-.168-.203-.398-.14-.5zM50.73 73.202c-.92 1.68-1.89 3.326-3.282 4.672-.105.1-.38.053-.568.03-.09-.01-.18-.112-.24-.194-2.383-3.27-4.66-6.612-6.526-10.213-.092-.18-.12-.4-.133-.605 0-.07.13-.165.22-.218.08-.048.23-.102.268-.066.365.358.757.704 1.06 1.115.847 1.15 1.9 1.93 3.28 2.407 1.9.66 3.737 1.504 5.59 2.293.155.064.235.31.337.454 0 .12.04.243-.004.324zm18.315-7.072c-2.238.32-4.37.955-6.434 1.884-.657.296-1.45.4-2.182.41-2.243.033-4.49.126-6.71-.45-.814-.21-1.706-.247-2.55-.187-1.134.082-2.112-.267-3.045-.808-.648-.378-1.252-.828-1.88-1.24-2.446-1.6-4.014-3.73-4.403-6.725-.457-3.495-1.34-6.933-1.406-10.485-.026-1.293-.11-2.538 1.035-3.53.52-.45.495-1.306-.017-1.747-.95-.82-.974-1.803-.947-2.907.07-2.914.765-5.722 1.437-8.527.446-1.87 1.096-3.693 1.615-5.544 1.482-5.285 4.847-9.237 8.99-12.606.803-.65 1.84-1.12 2.845-1.403 4.164-1.18 8.245-.966 12.17 1.01 1.812.917 3.578 1.966 5.47 2.667 1.372.51 2.422 1.316 3.44 2.267 2.352 2.2 4.677 4.418 6.155 7.354.288.565.786 1.013 1.152 1.54 1.116 1.603 2.066 3.27 1.935 5.326.823 2.934.687 5.936.537 8.932 0 1.286-.064 2.576.014 3.857.117 2.006-.516 3.79-1.41 5.527-.833 1.62-1.73 3.21-2.468 4.867-2.394 5.362-6.55 8.597-12.094 10.206-.414.123-.828.246-1.248.308zm9.51 51.673c-.284.288-.605.54-.87.845-.072.08-.042.405.012.424.166.06.405.098.55.02.46-.244.8-.603.756-1.15-.094-.34-.226-.364-.448-.14zm-2.582-58.705c-1.765.75-3.515 1.54-5.28 2.295-2.063.883-4.164 1.77-6.428 1.803-3.727.056-7.477.382-11.164-.54-.72-.177-1.473-.32-2.21-.32-.614 0-1.266.155-1.825.407-.328.147-.704.62-.704.94 0 .278.468.724.797.805 3.632.88 7.275 1.736 10.458 1.368 1.568 0 2.53-.026 3.49.003 3.994.124 7.54-1.236 10.864-3.293 1.093-.676 2.09-1.49 2.612-2.723.067-.16.014-.44-.095-.582-.093-.123-.382-.222-.514-.166zm-.424-27.39c-.736-.086-1.485-.082-2.137-.113-.94.043-1.81-.03-2.627.152-.912.203-1.81.565-2.645.996-.706.367-.91 1.493-.554 2.28.29.65 1.035 1.044 1.847.865 2.313-.507 4.606-.594 6.916.043.703.194 1.42-.297 1.8-1.024.34-.65.15-1.237-.214-1.792-.56-.86-1.404-1.284-2.39-1.405zm-19.54 4.27c.683-.653.597-1.578-.15-2.207-.897-.755-1.95-.755-3.024-.76-2.28.034-4.425.552-6.352 1.812-.782.513-1.026 1.45-.62 2.23.345.666 1.13 1.092 1.878.878 2.155-.62 4.323-1.11 6.578-1.144.67-.008 1.21-.347 1.69-.806zm3.3 14.297c.82.198 1.69.208 2.507.3.783-.08 1.568-.037 2.254-.27.676-.23 1.3-.69 1.86-1.15.473-.39.545-1.334.133-1.76-.34-.353-.84-.643-1.316-.753-.373-.083-.82.142-1.23.248-1.5.388-2.952.445-4.26-.582-.164-.13-.366-.238-.566-.29-.55-.148-1.05-.035-1.482.35-.515.457-.705 1.153-.48 1.734.46 1.203 1.393 1.886 2.583 2.174zm5.474 4.64c-1.805.16-3.605.395-5.405.61-.21.026-.424.086-.615.172-.523.235-.853.617-.866 1.22-.01.552.362 1.052.927 1.126.953.124 1.91.192 2.575.256 1.152-.087 2.008-.13 2.86-.22 1.09-.115 2.087-.493 2.872-1.276.203-.203.407-.627.326-.84-.134-.355-.453-.787-.784-.885-.597-.18-1.267-.225-1.892-.17zm6.955-11.637c.786.103 1.39-.248 1.823-.957.47-.766.51-1.587.403-2.433-.103-.837-.69-1.26-1.424-1.51-.693-.238-1.214.125-1.707.542-.622.53-.72 1.247-.688 2.17.02.147.038.465.1.774.15.76.747 1.317 1.488 1.416zm-20.965-3.824c-.55.117-.956.44-1.135.97-.312.92-.358 1.878.042 2.766.146.323.578.635.935.723 1.25.31 2.155-.535 2.2-2.288-.077-.293-.18-.914-.408-1.483-.21-.517-1.037-.815-1.634-.688z"/></svg>