<svg xmlns="http://www.w3.org/2000/svg" width="128" height="128" viewBox="0 0 128 128"><path d="M121.07 99.51c-2.284-.357-4.272-1.4-6.348-2.215-2.222-.875-4.544-1.192-6.837-1.694-.82-.177-1.614.29-1.856.95-.253.694.024 1.277.51 1.744.38.368.806.717 1.27.964 1.23.655 2.48 1.267 3.74 1.86.58.273 1.2.452 1.792.7.19.08.344.24.517.365-.12.135-.217.325-.37.395-.58.272-1.195.478-1.77.757-.667.32-1.125.352-1.545-.437-.66-1.237-1.762-1.717-3.202-1.728-2.033-.014-4.064-.257-6.096-.332-1.5-.053-3.008-.073-4.504.025-4.384.283-8.757.722-13.146.936-6.105.294-12.216.52-18.328.625-6.115.107-12.234.023-18.353.023v.037c-7.19 0-14.38.005-21.57-.006-.964 0-1.933-.037-2.887-.153-.223-.026-.564-.418-.577-.655-.043-.74-.047-1.51.107-2.23.567-2.648.514-5.332.567-8.01.026-1.396.006-2.79.045-4.185.024-.957-.096-1.998.247-2.84.225-.555 1.167-.813 1.776-1.22.177-.114.32-.284.47-.436 3.01-3.07 6.167-5.97 9.806-8.3.356-.227.68-.527.973-.84.702-.745 1.408-.794 2.275-.23 1.403.916 2.846.774 4.26-.03.094-.054.192-.1.28-.158.872-.574 1.32-.237 1.935.42 2.41 2.593 4.8 5.206 7.24 7.77.67.702.924 1.43.617 2.328-.42 1.23-.02 2.37.477 3.422.84 1.78 2.345 2.896 4.3 2.914 2.056.018 3.69-.976 4.62-2.928.433-.902.57-1.842.513-2.818-.066-1.158-.496-2.42-.166-3.443.335-1.042 1.44-1.82 2.142-2.763.572-.772 1.03-1.627 1.57-2.427 1.32-1.952 2.51-4.015 4.016-5.81 2.283-2.72 4.487-5.48 6.26-8.555.763-1.323 1.676-2.155 3.304-2.016.396.032.83-.2 1.217-.373.832-.377 1.422-.113 1.934.58 2.044 2.76 4.094 5.515 6.15 8.258.79 1.047 1.265 2.096 1.2 3.52-.097 2.298 1.12 4.08 2.93 5.445 1.376 1.035 3.836 1.167 5.158.23 1.468-1.04 2.472-2.37 2.407-4.292-.035-1.07.083-2.16-.444-3.152-.402-.76-.204-1.42.196-2.113 1.547-2.692 3.05-5.41 4.62-8.09.18-.31.666-.553 1.044-.608.626-.097 1.284.03 1.922-.024.523-.043 1.086-.117 1.543-.347 2.063-1.033 3.388-4.517 2.61-6.737-.035-.1-.07-.21-.14-.288-1.384-1.645-2.746-3.264-5.025-3.776-3.17-.716-6.116 1.364-6.385 4.62-.144 1.76 0 3.486 1.254 4.837.92.992.745 1.828.12 2.856-1 1.647-1.89 3.362-2.854 5.035-.94 1.635-.815 2.44-3.368 2.22-.71-.065-1.46.25-2.184.423-.958.23-1.05.21-1.61-.536-2.244-3.008-4.453-6.042-6.753-9.005-.81-1.044-1.676-1.884-.863-3.38.325-.597.144-1.47.19-2.22.182-2.78-1.432-4.4-3.7-5.47-2.275-1.078-4.48-.118-5.49 2.243-.17.395-.276.824-.492 1.188-.885 1.507-.805 3.07-.33 4.66.148.517.27 1.05.498 1.53.27.57.12 1.048-.188 1.5-2.168 3.188-4.017 6.604-6.598 9.505-1.72 1.934-3.134 4.075-4.442 6.3-.924 1.57-1.875 3.124-2.844 4.67-.223.355-.54.577-1.066.46-1.59-.352-3.19-.474-4.725.256-.818.39-1.41.118-1.993-.49-2.076-2.17-4.103-4.396-6.3-6.44-1.292-1.2-1.953-2.433-1.715-4.204.176-1.312-.187-2.577-.917-3.675-.344-.516-.826-1.002-1.355-1.326-1.472-.9-4.136-.632-5.466.452-1.437 1.17-2.138 2.674-1.973 4.518.108 1.19-.33 2.09-1.215 2.816-.828.682-1.65 1.372-2.505 2.017-.942.71-1.922 1.365-2.877 2.06-.672.486-1.328.995-1.99 1.492-.2-1.044.537-1.757.918-2.59.178-.39.403-.76.62-1.13 2.798-4.82 5.63-9.626 7.637-14.86.267-.694.638-1.353 1.005-2.006.334-.595.832-.96 1.57-.88 1.414.155 2.753.09 3.98-.832.768-.58.932-.49 1.664.15 2.583 2.262 5.12 4.58 7.756 6.774.974.813 1.51 1.62 1.608 2.94.132 1.802 2.1 3.548 3.866 3.758 2.086.245 4.003-1.2 4.38-3.39.125-.73.153-1.51.038-2.24-.19-1.225.075-2.308.56-3.423 2.137-4.916 3.884-9.98 5.486-15.095.352-1.123.798-2.216 1.235-3.31.257-.646.746-1.072 1.482-.977 1.903.244 3.322-.558 4.482-1.978.58-.708 1.286-.672 2.012-.283 2.645 1.422 5.27 2.883 7.927 4.274 1.106.58 1.844 1.3 2.15 2.593.27 1.166 1.1 2.076 2.225 2.615 2.528 1.214 5.042.38 6.06-2.26.524-1.365 1.28-1.992 2.623-2.453 4.25-1.458 8.668-2.46 12.71-4.505.456-.233.84-.096 1.138.24.285.32.47.722.744 1.05 1.18 1.418 2.624 1.61 4.34 1.06 1.742-.56 2.754-1.665 2.855-3.457.084-1.493.072-3.027-.628-4.414-.285-.56-.668-1.1-1.124-1.523-.27-.248-.787-.388-1.158-.334-.62.09-1.198.432-1.817.563-1.115.235-2.067.782-2.598 1.74-.683 1.236-1.784 1.753-2.97 2.29-3.424 1.56-6.997 2.678-10.594 3.748-1.023.305-2.01.914-3.04.98-1.226.08-1.443-1.44-2.318-2.018-.088-.06-.168-.133-.245-.208-1.094-1.113-4.055-1.253-5.312.155-.473.53-.735 1.534-1.58 1.42-.69-.093-1.31-.678-1.97-1.014-2.297-1.163-4.594-2.328-6.904-3.456-.885-.432-1.632-.882-1.992-1.924-.27-.778-.797-1.52-1.37-2.132-1.013-1.08-2.385-1.43-3.817-1.282-1.332.136-2.47.672-3.01 2.067-.15.388-.51.69-.714 1.067-.527.964-.894 2.007-.433 3.07.787 1.82.41 3.467-.398 5.173-.592 1.252-.934 2.62-1.408 3.93-1.416 3.93-2.837 7.858-4.267 11.783-.293.804-.5 1.68-.98 2.365-.645.93-1.827.258-2.703.616-.198.08-.412.136-.59.248-.808.51-1.406.105-2.006-.416-2.836-2.46-5.67-4.915-8.526-7.355-.52-.445-.866-.94-.86-1.637.017-1.483-.717-2.684-1.532-3.814-1.163-1.612-2.773-2.3-4.768-2.033-3.328.442-5.513 3.56-3.977 6.833.226.484.486.96.79 1.4.41.606.376 1.15.03 1.787-.707 1.323-1.446 2.64-1.99 4.032-1.217 3.105-2.745 6.042-4.436 8.91-1.63 2.77-3.125 5.622-4.686 8.433-.203.37-.443.725-.686 1.07-.054.076-.188.114-.29.125-.055.006-.168-.073-.178-.128-.06-.314-.134-.632-.13-.947.076-8.587-.464-17.154-.748-25.73-.055-1.715-.085-3.435-.192-5.147-.252-4.06-.547-8.12-.8-12.18-.01-.158.184-.438.333-.477.3-.077.63-.01.947-.032 2.016-.14 2.688-.947 2.396-2.878-.05-.318-.1-.64-.192-.946-.584-1.95-1.177-3.893-1.774-5.84-.996-3.247-2.51-6.353-2.205-9.926.088-1.045-.676-2.03-1.863-2.364-1.362-.384-2.688.06-3.337 1.265-.448.833-.712 1.775-.985 2.69-.213.716-.275 1.473-.47 2.195-.785 2.89-1.556 5.79-2.42 8.658-.322 1.06-.454 2.096-.222 3.162.442 2.008 1.824 2.697 3.823 1.944.2-.076.39-.22.595-.236.14-.01.384.12.416.235.086.303.105.63.108.95.096 9.22.188 18.445.576 27.667.467 11.038.01 22.1.65 33.138.07 1.195-.084 2.313-.56 3.442-.366.864-.493 1.852-.593 2.8-.11 1.064-.06 2.144-.106 3.215-.024.57-.44.97-1.04.98-1.714.03-3.434.005-5.15.057-1.683.052-3.128.65-4.18 2.04-.578.767-.468 1.665.364 2.22.435.284.94.54 1.442.633.625.117 1.282.055 1.925.056 1.61.002 3.22-.02 4.83.003 1.072.017 1.375.302 1.386 1.294.02 1.933-.013 3.864.017 5.796.007.636.058 1.29.225 1.9.32 1.168 1.542 2.047 2.648 1.937 1.168-.112 2.035-.732 2.372-1.866.21-.706.272-1.472.288-2.21.032-1.825-.01-3.65.006-5.473.007-.832.354-1.19 1.147-1.21.86-.02 1.717-.014 2.575.005 5.146.112 10.29.256 15.438.337 2.993.05 5.98-.116 8.983-.036 7.185.192 14.38.1 21.567.115.966 0 1.935-.002 2.898-.064 5.882-.376 11.762-.764 17.643-1.157 1.494-.1 2.985-.318 4.48-.355 3.65-.092 7.297-.12 10.945-.146.487-.006.74.33.62.855-.026.105-.06.206-.09.31-.61 1.915 1.05 3.825 3.405 3.19.206-.055.42-.106.612-.19 3.133-1.4 6.34-2.64 9.272-4.45.728-.45 1.43-.963 2.044-1.555 1.55-1.49.9-4.193-1.2-4.52zm-17.512-47.58c.398-.844 1.445-1.212 2.487-.81.39.15.75.41 1.075.677.63.523.708 1.135.358 2.022-.282.715-.736.995-1.488.69-.094-.04-.21-.017-.96-.05.125.034-.435.01-.808-.266-.818-.603-1.02-1.51-.666-2.264zm-10.36 19.915c.33-.828.832-1.46 1.806-1.6 1.21-.178 1.91.302 1.973 1.44.013.21 0 .424 0 .954-.03.435-.08 1.21-.914 1.55-.912.367-1.66.05-2.283-.65-.43-.485-.867-.983-.584-1.698zM77.552 50.65c.096-.618.907-1.016 1.488-.746 1.027.48 1.762 1.195 1.72 2.414-.02.623-.113 1.257-.272 1.86-.19.725-.873 1.376-1.233 1.3-.574-.12-1.662-1.145-1.732-1.678-.07-.523-.088-1.052-.13-1.643.047-.463.08-.99.16-1.507zM55.394 82.99c.462-.97 1.66-1.39 2.652-.832.25.14.48.422.58.69.145.385.16.815.236 1.254-.092.5-.128 1.03-.288 1.52-.328 1.006-1.928 1.346-2.618.554-.817-.936-1.14-1.975-.563-3.186zM38.2 67.02c.405-.88 1.12-1.31 2.016-1.18.683.1 1.13.707 1.2 1.638.017.21.003.424.003 1.018-.007.037.03.512-.173.85-.248.422-.637.834-1.065 1.056-.526.277-1.026-.064-1.382-.48-.722-.85-1.116-1.78-.6-2.9z"/></svg>