<svg xmlns="http://www.w3.org/2000/svg" width="128" height="128" viewBox="0 0 128 128"><path d="M114.066 86.41c.038-4.403.01-8.803.01-12.577-.074-6.1.005-11.58-.257-17.043-.203-4.18-.29-8.358-.337-12.538-.06-5.472-.1-10.948-.173-16.42-.025-2.07-.7-2.98-2.62-3.446-.465-.113-1.06.03-1.51.24-.47.215-.912.596-1.245 1-1.493 1.82-3.17 3.545-4.363 5.55-1.824 3.073-4.33 5.58-6.432 8.417-.307.41-.752.303-1.114-.01-.888-.767-1.704-1.635-2.67-2.29-1.27-.863-3.22-.372-3.882.987-.656 1.346-1.562 2.58-2.128 3.957-.66 1.614-1.506 3.078-2.635 4.382-1 1.154-1.6 2.51-2.2 3.896-.93 2.162-1.987 4.27-3.01 6.39-.23.48-.536.927-.828 1.378-.174.267-.383.515-.59.762-.363.442-.99.512-1.397.075-1.843-1.943-3.744-3.84-5.457-5.892-1.954-2.34-3.835-2.497-6.322-.396-.734.62-1.367 1.358-2.03 2.063-.44.465-.837.968-1.28 1.436-2.008 2.117-3.686 4.438-4.71 7.207-1.202 3.252-3.148 6.084-5.25 8.807-.516.67-1.178 1.237-1.838 1.775-.18.15-.657.11-.89-.026-.356-.213-.62-.58-.917-.883-1.13-1.147-2.254-2.295-3.385-3.44-.3-.307-.608-.61-.928-.895-1.792-1.598-3.755-1.438-5.333.33-4.064 4.566-8.275 8.998-12.35 13.554-2.786 3.114-5.45 6.34-8.148 9.535-.483.57-.875 1.218-1.276 1.856-.478.754-.684 1.596-.374 2.46.26.72.232 1.345.08 2.12-.527 2.68.468 4.007 3.242 4.383 1.586.218 3.21.237 4.816.235 11.05-.02 22.107-.072 33.158-.116 1.504-.005 3.005-.032 4.508-.064.644-.013 1.3.025 1.928-.1 2.865-.576 5.768-.442 8.658-.555 5.788-.226 11.573-.437 17.36-.653.535-.02 1.084-.013 1.604-.117 2.755-.552 5.542-.544 8.33-.565 1.392-.008 2.796.158 4.15-.32 2.016.33 3.89-1.17 5.958-.45.338.12.832-.118 1.227-.26 1.944-.702 2.272-2.39 2.417-4.13.07-.847-.208-1.743-.037-2.553.494-2.34.448-4.7.47-7.053zm-5.99-24.783c-.182 9.648-.396 19.296-.602 28.94-.01.536-.025 1.076-.077 1.607-.114 1.14-.508 1.534-1.62 1.515-1.398-.02-2.777-.023-4.146.365-.77.22-1.127-.24-.847-1.13.262-.837.43-1.657.262-2.523-.14-.71-1.028-1.248-1.717-1.054-.954.266-1.813.7-2.382 1.533-.42.618-.82 1.264-1.117 1.947-.43.987-1.04 1.476-2.188 1.485-1.384.007-2.762.267-4.148.382-.293.025-.693-.015-.87-.196-.15-.154-.142-.59-.04-.83.332-.79.805-1.526 1.1-2.326.29-.79.466-1.626.622-2.458.083-.43-.092-.944-.52-1.047-.363-.09-.9.012-1.192.24-1.787 1.422-3.294 3.043-3.698 5.435-.133.79-.562 1.083-1.33 1.134-.963.058-1.932.045-2.892.134-2.022.183-4.036.422-6.06.625-.935.093-1.25-.29-.826-1.05.94-1.68 1.947-3.32 2.9-4.997.42-.74.828-1.498 1.143-2.288.208-.52.068-1.12-.424-1.43-.32-.195-.843-.316-1.173-.195-.687.256-1.41.59-1.933 1.088-1.555 1.472-3.025 3.03-4.137 4.896-.517.866-.742 1.746-.634 2.746.19 1.713.17 1.73-1.385 1.804-2.248.107-4.496.203-6.743.272-.668.02-.955-.465-.634-1.042.827-1.5 1.706-2.97 2.51-4.477.402-.752.79-1.54.98-2.36.1-.44-.132-1.048-.4-1.46-.325-.508-.927-.42-1.46-.276-.102.03-.203.078-.292.132-.64.387-1.344.703-1.9 1.187-1.85 1.635-3.553 3.42-4.86 5.534-.272.438-.46.957-.56 1.466-.38 1.88-.362 1.885-2.086 1.908-.54.01-1.077.038-1.61-.005-.624-.054-1.516.052-1.808-.305-.623-.758.37-1.264.717-1.846.66-1.104 1.42-2.145 2.094-3.24.277-.45.497-.95.65-1.452.26-.84-.695-1.764-1.535-1.52-.305.09-.62.195-.88.366-2.99 1.926-5.847 4.05-7.674 7.162-.768 1.31-1.766 1.757-3.077 1.94-.317.044-.684.102-.95-.017-.218-.097-.51-.56-.448-.668.94-1.552 1.94-3.072 2.915-4.602.576-.9 1.163-1.794 1.68-2.728.198-.358.27-.813.3-1.23.03-.458-.216-.81-.69-.937-.756-.21-1.53-.172-2.175.24-.99.633-2.093 1.22-2.822 2.098-1.692 2.044-3.674 3.912-4.493 6.577-.258.843-.55.92-1.474.817-.928-.11-1.175-.487-.754-1.22 1.013-1.763 2.046-3.52 3.06-5.28.263-.465.543-.94.687-1.444.066-.235-.128-.592-.297-.82-.097-.137-.39-.204-.58-.18-.308.04-.64.124-.9.285-.73.448-1.426.945-2.134 1.422-.325.216-.58.688-1.05.378-.053-.035.17-.507.28-.765.248-.592.57-1.158.744-1.77.14-.49.247-1.07.12-1.542-.192-.707-.073-1.23.398-1.76 3.127-3.522 6.245-7.053 9.365-10.583.33-.38.663-.48 1.048-.075 1.256 1.318 2.568 2.588 3.757 3.963 2.3 2.658 5.08 2.556 7.337.625 1.8-1.54 3.45-3.225 4.795-5.18 1.7-2.477 3.316-4.99 4.372-7.836.75-2.023 1.807-3.876 3.372-5.42.686-.672 1.248-1.47 1.882-2.197.54-.62.97-.603 1.593.05.295.315.564.647.86.958 1.916 2.022 3.834 4.04 5.755 6.058.15.153.306.3.475.43 1.685 1.313 3.772 1.068 5.09-.644.524-.678.908-1.457 1.4-2.156 2.31-3.258 3.958-6.857 5.415-10.545.478-1.21 1.088-2.3 1.85-3.356.867-1.205 1.527-2.564 2.257-3.872.46-.82.774-.907 1.408-.336.64.57 1.237 1.202 1.935 1.685 1.493 1.04 3.43.82 4.69-.474.445-.46.82-.992 1.2-1.51 2.02-2.773 4.028-5.55 6.05-8.318.188-.254.45-.452.69-.658.076-.066.207-.114.3-.098.06.013.135.15.14.235.04.747.09 1.493.09 2.243.007 5.257.004 10.51.004 15.765h-.044c.003 2.683.047 5.364-.004 8.044z"/></svg>