<svg xmlns="http://www.w3.org/2000/svg" width="128" height="128" viewBox="0 0 128 128"><path d="M106.558 98.098c-.418-.09-.853-.183-1.272-.15-1.568.12-2.946-.364-4.267-1.158-1.674-1.005-3.517-1.55-5.41-1.973-3.82-.85-7.285-2.365-10.114-5.216-1.353-1.36-2.98-2.447-4.498-3.64-1.103-.864-2.31-1.454-3.702-1.82-.96-.25-1.57-.255-2.264.485-.53.565-1.23.504-1.637-.05-.508-.684-1.016-1.39-1.37-2.158-1.86-4.035-1.932-8.304-1.548-12.62.06-.688.496-1.15.953-1.622 1.114-1.155 2.272-2.28 3.275-3.53 3.037-3.786 5.26-8.076 7.56-12.32 1.044-1.932 1.542-3.98 1.706-6.145.124-1.6.318-3.2.464-4.8.05-.532.17-1.093.06-1.6-.523-2.394-.63-4.884-1.732-7.15-.326-.672-.697-1.035-1.408-1.056-.98-.032-1.613-.413-1.747-1.483-.07-.565-.515-.934-1.056-1.1-.61-.187-1.23-.42-1.857-.455-1.75-.102-3.354-.675-4.944-1.327-4.595-1.888-8.94-4.17-12.425-7.83-.427-.447-1.022-.805-1.608-1.006-.302-.103-.82.157-1.12.4-.19.154-.307.652-.2.874.956 2.01 1.694 4.117 3.55 5.616 4.29 3.462 8.72 6.592 14.34 7.5 1.264.202 2.507.543 3.76.804 1.023.213 2.37-.467 3.028.505.555.82.555 2.02.762 3.063.083.416.07.85.09 1.278.03.61-.23.805-.768.48-1.9-1.15-3.94-1.596-6.156-1.48-2.958.158-5.7.99-8.11 2.678-.78.544-1.46.757-2.35.712-.854-.044-1.718-.04-2.573.03-1.386.116-2.46-.266-3.345-1.434-1.125-1.48-2.782-2.01-4.587-1.806-1.91.217-3.82.518-5.695.95-1.022.232-1.973.784-2.944 1.23-.384.176-.704.508-1.09.67-.87.364-1.705.15-2.436-.362-.736-.517-.632-2.243.224-2.816 1.625-1.088 2.996-2.435 4.25-3.908 1.948-2.29 3.907-4.567 5.772-6.923.992-1.25 1.824-2.63 2.66-3.994.317-.512-.084-1.305-.682-1.606-.53-.268-1.243-.308-1.472.144-.757 1.51-2.283 2.223-3.3 3.445-2.747 3.294-5.537 6.555-8.265 9.865-.737.896-1.64 1.845-1.894 2.907-.31 1.288-.032 2.724.032 4.094.026.53.208 1.05.258 1.582.344 3.68 1.483 7.11 3.145 10.397 1.26 2.49 2.518 4.966 4.155 7.24.814 1.13 1.542 2.322 2.302 3.49.35.54.692 1.084 1.01 1.644.08.144.12.442.043.512-.13.113-.386.162-.565.126-.402-.082-.875-.442-1.17-.32-2.15.89-4.482.34-6.666.916-.46.12-.83-.144-.91-.646-.236-1.476-.444-2.957-.7-4.43-.022-.138-.3-.315-.47-.327-.162-.012-.423.12-.5.265-.142.27-.266.597-.25.896.06 1.283.18 2.56.253 3.84.01.174-.092.477-.203.51-.395.118-.828.227-1.224.17-.243-.033-.605-.356-.63-.583-.085-.742-.043-1.5-.043-2.252-.008-1.288.02-2.576-.032-3.86-.016-.408-.17-.85-.39-1.19-.142-.224-.53-.42-.787-.398-.25.02-.648.316-.678.533-.134.952-.2 1.918-.207 2.878-.014 1.503.046 3.005.05 4.508 0 .173-.172.347-.265.518-.092-.187-.26-.373-.264-.563-.044-2.356 0-4.72-.1-7.077-.13-2.89-.487-5.77-.54-8.658-.1-5.26-.048-10.517-.055-15.778-.003-3.257 1.032-6.316 1.845-9.412.107-.41.31-.796.5-1.178 1.49-3.003 6.23-7.023 10.377-7.363 1.237-.1 2.295-.66 2.78-1.888.5-1.278 1.396-1.647 2.723-1.733 2.88-.186 5.712-.917 8.632-.736.52.033 1.052-.176 1.583-.24.848-.103 1.7-.233 2.552-.254 3.343-.09 6.597.594 9.845 1.255.715.147 1.467.45 2.042.89 2.298 1.752 4.568 3.544 6.775 5.41.72.61 1.226 1.48 1.817 2.242.523.678.917 1.506 1.56 2.033 1.247 1.018 1.772 2.363 2.212 3.817.935 3.086 1.787 6.165 1.482 9.46-.12 1.268.02 2.58.184 3.852.54 4.25 1.13 8.485.924 12.798-.135 2.79.047 5.57.998 8.256.448 1.263.38 1.348-1.064 1.56-1.376.2-2.763.372-4.15.41-2.143.058-4.276.035-6.408-.385-1.02-.202-2.125-.1-3.177.014-.74.078-1.046 1.333-.47 1.806.485.402 1.02.837 1.605 1.01 1.228.363 2.497.757 3.756.79 4.507.127 9.014.148 13.52.127 1.75-.01 1.83-.22 1.348-1.857-.363-1.23-.678-2.434-.54-3.776.14-1.376-.05-2.784-.06-4.178-.03-3.743-.113-7.462-.836-11.173-.796-4.093-.904-8.297-1.786-12.392-.858-3.985-1.97-7.897-3.363-11.722-.66-1.813-1.643-3.488-3.18-4.76-2.066-1.706-4.2-3.344-6.178-5.147-3.51-3.2-7.783-4.532-12.326-4.88-3.73-.284-7.51-.132-11.26.033-3.257.146-6.32 1.128-9.04 3-.418.288-.914.688-1.037 1.127-.224.816-.725.9-1.405.98-.95.114-1.936.198-2.814.534-6.182 2.386-10.24 6.86-12.52 13.007-.297.8-.513 1.648-.624 2.49-.747 5.633-1.46 11.268-1.335 16.974.07 3.22.062 6.44.03 9.66s-.12 6.44-.224 9.657c-.02.74-.34 1.487-.273 2.206.077.843 1.067 1.234 1.248 2.168.18.907 1.01 1.32 1.96 1.365 2.567.127 5.137.244 7.707.4 1.963.12 3.835-.31 5.693-.856 1.74-.512 3.475-1.045 5.216-1.554.606-.176.98.027 1.238.68 1.357 3.42 2.235 6.925 1.99 10.652-.14 2.127-.885 3.952-2.392 5.465-.618.622-1.28.993-2.228 1.085-2.304.222-4.267 1.355-6.048 2.77-.836.665-1.638 1.403-2.322 2.22-.69.824-1.92.65-2.554 1.49l.02.002-.004.164.358.23-.366.212-.003.15-.16.08-.118.33-.206-.165c.11-.053.217-.11.324-.16l.062-.174.1-.06.01-.44-.102-.063c.025-.04.056-.068.085-.104-.21-.007-.428-.056-.622-.006-5.248 1.38-10.01 3.746-14.298 7.072-.85.66-1.003 1.39-.783 2.516.328 1.665.194 3.417.34 5.126.065.725.29 1.45.543 2.14.156.42.642.667 1.056.497.335-.14.68-.5.805-.844.136-.376.024-.843.016-1.27-.01-.532-.06-1.07-.03-1.603.01-.168.207-.326.32-.49.156.135.367.242.46.412.585 1.078.51 2.286.627 3.455.077.782.36 1.448 1.043 1.9.41.27.834.295 1.143-.084.512-.623.616-1.62 1.762-1.644.218-.005.462-.642.62-1.018.123-.288.13-.623.187-.94.096.3.14.627.3.886.33.54.656 1.117 1.116 1.534.245.226.785.262 1.146.18.212-.05.5-.517.474-.764-.123-1.056-.373-2.1-.528-3.153-.093-.624-.16-1.266-.11-1.89.017-.224.394-.537.652-.59.22-.042.675.175.734.368.25.813.326 1.68.597 2.485.268.8.598 1.638 1.627 1.788.6.09.945-.89.718-2.148-.113-.632-.326-1.245-.45-1.874-.065-.31-.114-.667-.016-.95.09-.252.355-.5.607-.628.372-.19.99.08 1.074.412.08.31.11.634.18.947.218.938.422 1.882.673 2.812.196.727.838 1.1 1.45.9.502-.16.83-.693.723-1.263-.22-1.156-.477-2.306-.693-3.463-.056-.3-.068-.632 0-.925.037-.17.256-.353.435-.41.15-.05.49.03.516.12.286 1.027.504 2.072.787 3.1.256.923.452 1.892 1.248 2.55.15.12.443.222.585.153.253-.12.608-.363.625-.578.053-.63.034-1.288-.096-1.907-.217-1.044-.538-2.068-.825-3.1-.113-.404-.305-.796.135-1.148.302-.245.725.14.94.93.225.826.366 1.676.618 2.49.343 1.12.738 2.226 1.16 3.318.102.263.36.58.74.314.16-.113.35-.305.372-.482.07-.525.13-1.07.067-1.59-.09-.74-.328-1.46-.427-2.203-.032-.254.17-.54.264-.812.174.12.414.2.514.365 1.91 3.102 3.804 6.214 5.7 9.323.402 1.762 1.59 3.02 2.795 4.245.66.673.967 1.814 2.03 1.955 1.343.176 1.066-1.39 1.834-1.96.928-.693 1.707-1.643 2.395-2.592 1.797-2.47 4.072-4.324 6.775-5.727 1.037-.54 1.933-1.342 2.912-1.997 2.76-1.852 5.532-3.688 8.293-5.536.75-.5 1.48-.64 2.405-.358 2.907.883 5.907.976 8.922.816.75-.043 1.5-.05 2.25-.043.612.005.97.32 1.078.944.053.31.117.704.33.88.29.243.724.416 1.098.42.195 0 .548-.424.56-.67.07-1.28.044-2.565.076-3.85 0-.2.124-.397.192-.597.285.1.6.15.847.31.517.328.51.833.48 1.407-.073 1.49-.093 2.988-.046 4.48.02.583.88 1.13 1.438 1.023.602-.117.928-.558.975-1.124.1-1.177.112-2.357.196-3.533.04-.587.45-.953 1.05-1 .853-.067 1.733-.006 2.555-.204.653-.158.948-.837 1.066-1.493.09-.518-.523-1.338-1.072-1.455zm-81.147 5.504c-.09.178-.243.326-.367.49-.064-.182-.194-.37-.175-.542.032-.296.142-.587.252-.868.02-.053.196-.075.292-.058.087.015.163.1.303.192-.096.253-.178.53-.306.785zm5.42 3.2l.025-.18.117.106-.142.075zM68.414 41.31c1.1-1.22 2.493-1.563 4.064-1.27.114.023.296.318.26.41-.238.587-.627 1.125-.775 1.728-.235.945.653 1.852 1.682 1.845.698-.005 1.323-.467 1.314-1.12-.008-.614-.183-1.23-.313-1.842-.075-.35-.843-.41-.47-.91.147-.196.58-.225.886-.246 1.408-.096 2.77.046 4.004.824 1.008.634 1.263 1.833.52 2.756-.263.323-.577.693-.945.83-1.49.55-3.01 1.016-4.32 1.446-2.02-.438-3.87-.435-5.48-1.414-1.05-.64-1.277-2.1-.43-3.037zm-22.496 1.164c.06-.195.2-.384.352-.523.153-.137.357-.233.555-.312 2.515-.98 5.167-1.29 7.83-1.523.313-.027.644.02.953.096.976.24 1.934 1.373 1.98 2.296.06 1.27-.647 2.402-1.714 2.79-1.547.56-3.147.59-4.76.555-1.396.035-2.785.035-4.076-.635-.933-.482-1.46-1.69-1.124-2.74zm.74 11.99c-2.17-3.412-3.326-7.156-4.352-10.986-.026-.1-.06-.243-.01-.315.106-.162.244-.38.404-.416.156-.032.467.09.516.217.15.382.235.8.282 1.21.195 1.665 1.17 2.756 2.647 3.348.98.395 2.046.722 3.09.795 2.134.15 4.255.045 6.39-.37 2.148-.42 3.45-1.563 4.186-3.517.114-.3.218-.605.3-.914.143-.518.48-.602.965-.535.528.074 1.067.11 1.6.095.75-.02 1.646-.373 2.197-.07.516.285.592 1.29.998 1.883.41.6.902 1.237 1.513 1.593 3.83 2.225 7.79 2.89 11.915.77.288-.148.576-.29.867-.423.27-.128.654.124.61.41-.082.526-.102 1.08-.292 1.566-2.06 5.224-4.87 10.002-8.58 14.236-.276.315-.58.67-.948.835-1.118.497-1.813 1.392-2.637 2.244-1.75 1.81-4.026 2.77-6.565 3.004-.425.04-.856.006-1.285.006v.02c-.213 0-.43-.02-.642.005-2.03.248-3.445-.71-4.69-2.208-3.23-3.89-5.778-8.228-8.48-12.478zm5.154 46.145l-.026-.02.004-.02c-.787.047-1.067-.595-1.404-1.1-.56-.837-1.365-.996-2.248-.872-.63.087-1.237.316-1.853.48-3.715.997-7.428 1.996-11.145 2.98-.166.042-.37-.052-.555-.083.046-.192.08-.386.146-.57.033-.096.122-.173.2-.25 3.935-3.935 7.87-7.87 11.813-11.8.48-.478.988-.423 1.312.11.388.64.86 1.262 1.09 1.957.956 2.833 1.836 5.69 2.724 8.544.052.176-.05.4-.086.604h.016l.007.037.422.268c-.5.416-.37-.058-.424-.27zm3.935-2.545c-.05 0-.1-.002-.15-.004.007-.042-.004-.07 0-.11-.348-.11-.697-.213-1.033-.346-.046-.018-.074-.256-.034-.283.126-.082.333-.202.427-.154.324.165.668.35.64.784l.075.026.077.09c.156.004.314.005.464.04.153.033.288.142.43.217-.184.027-.395.123-.544.066-.14-.055-.243-.194-.352-.324zm11.846 5.054c-.87 1.475-1.757 2.94-2.66 4.4-.394.636-.815 1.257-1.24 1.875-.912 1.33-1.79 2.665-1.737 4.39.008.234-.352.477-.544.72-.223-.125-.47-.177-.53-.314-.687-1.57-1.375-3.14-2.004-4.733-.978-2.49-1.914-5-2.86-7.503-.127-.335.104-.77.342-.676 3.472 1.38 7.107 1.367 10.754 1.277.1-.002.242.032.29.1.095.14.242.374.19.463zm1.367-6.29c-2.55-.288-5.104-.533-7.63-.955-2-.333-3.893-1.08-5.813-1.747-1.65-.575-2.464-1.47-2.763-3.084-.095-.5.054-.798.38-1.1 1.937-1.796 2.944-4.17 4.008-6.506.176-.382.32-.814.335-1.227.083-2.132.198-4.26-.258-6.39-.235-1.09-.928-2.14-.518-3.333l2.93-.13c2.507.215 4.693-.178 6.812-1.038.492-.2.752.03.763.62.013.75.032 1.5-.004 2.246-.13 2.712.45 5.294 1.242 7.874.694 2.256 1.708 4.14 4.047 5.027.29.112.586.315.773.556.176.227.36.613.283.843-.817 2.43-1.653 4.857-2.552 7.258-.386 1.028-.81 1.22-2.033 1.083zm22.072 2.29c-2.006-.31-4-.665-6.006-.97-1.856-.28-3.54.015-5.195 1.077-2.35 1.508-4.66 3.03-6.65 5.007-.06.06-.266.088-.272.073-.07-.156-.207-.378-.15-.483 1.12-2.07 2.29-4.117 3.398-6.193 1.408-2.64 3.038-5.172 3.986-8.042.16-.485.593-.56 1.022-.246.17.124.36.235.517.376 3.1 2.797 6.204 5.593 9.296 8.4.233.21.39.504.585.765-.195.092-.38.26-.532.24zm5.51.57c-.02.03-.21.012-.26-.04-.34-.356-.683-.716-.99-1.1-.035-.048.132-.37.226-.38.624-.068 1.135.353 1.28 1-.082.175-.153.36-.256.52zm-9.1-37.79c.174-.367.35-.773.363-1.17.045-1.266.016-2.54.016-3.807h-.078c0-1.27.01-2.537-.01-3.805-.003-.16-.153-.317-.235-.475-.13.15-.344.286-.382.46-.59 2.674-1.13 5.358-1.17 8.112-.003.198.067.46.202.582.22.2.507.368.79.43.144.03.426-.166.505-.33zm18.45 40.69c-.15-.237-.513-.556-.696-.51-.36.09-.856.353-.945.65-.24.796-.294 1.647-.336 1.922 0 .885-.006 1.2.002 1.518.004.212.02.423.046.633.082.695.577 1.255 1.16 1.32.517.058 1.237-.56 1.262-1.195.036-1.054.027-2.112-.046-3.165-.03-.402-.23-.82-.448-1.17zM52.042 34.846c-1.495-.053-2.654.064-3.648.776-.213.157-.408.557-.358.79.04.197.475.47.697.438 1.457-.21 2.908-.49 4.352-.78.103-.018.237-.317.208-.458-.036-.19-.18-.435-.34-.505-.38-.16-.8-.233-.908-.26zm23.264 1.927c0 .027.002.053.003.08.624-.057 1.25-.09 1.867-.19.126-.02.3-.288.293-.44-.004-.17-.144-.42-.292-.49-1.213-.547-2.453-.51-3.682-.06-.15.056-.356.367-.315.454.12.243.325.578.54.615.516.093 1.056.03 1.587.03zM56.18 61.775c1.06 2.293 3.12 2.675 5.334 2.734 1.957.046 3.552-.834 4.823-2.163.813-.85 1.488-1.75 2.704-2.046.283-.067.537-.35.745-.586.284-.32.53-.727.15-1.104-.19-.19-.546-.31-.817-.294-.3.018-.59.224-.877.36-.79.365-1.447.206-1.965-.492-.128-.17-.198-.38-.328-.548-.672-.875-1.205-1.07-2.16-.73-.6.212-1.205.452-1.752.772-.666.388-1.12.206-1.707-.224-1.397-1.024-1.91-1.058-3.04.06-.873.863-1.83 1.39-2.982 1.697-.213.06-.477.477-.46.706.02.24.313.574.556.658.716.245 1.412.416 1.777 1.203zm1.615-1.664c.27-.557.82-.853 1.254-.585.353.224.66.525 1.003.766.563.396 1.175.428 1.798.157.29-.126.55-.315.836-.448.784-.36 1.46-.273 1.598.195.144.49-.235 1.086-1.01 1.373-.677.248-1.4.378-2.105.56-1.13-.03-2.134-.312-3.026-.935-.347-.243-.582-.592-.35-1.08zm1.5-6.837c.587.203 1.227.256 1.134.24 2.147.18 3.425-.306 4.65-.96.266-.142.527-.387.67-.65.13-.245.212-.63.11-.864-.1-.23-.44-.443-.705-.494-.286-.053-.636.03-.912.155-1.696.77-3.396 1.21-5.178.26-.082-.04-.208.004-.315-.004-.304-.023-.722.594-.642.93.16.668.56 1.17 1.186 1.387zm-6.24-9.243c.184-.36.267-.77.34-.99-.07-.963-.692-1.664-1.347-1.685-.818-.03-1.513.715-1.45 1.658.02.39.174.815.39 1.14.485.737 1.67.655 2.068-.124z"/></svg>