<svg xmlns="http://www.w3.org/2000/svg" width="128" height="128" viewBox="0 0 128 128"><path d="M114.208 41.202c-1.27-1.074-2.002-2.475-2.912-3.75-1.803-2.525-3.616-5.08-5.062-7.81-1.544-2.92-3.627-5.25-6.168-7.266-1.647-1.31-3.317-2.596-4.875-4.005-1.62-1.47-3.59-2.503-5.014-4.24-.917-1.123-2.25-1.172-3.58-.564C85.65 14 85 14.68 84.446 15.57c-1.165 1.867-2.338 3.748-3.72 5.448-2.404 2.958-4.766 5.94-6.87 9.116-1.555 2.343-3.184 4.62-5.043 6.733-.715.813-1.234 1.813-1.774 2.765-.514.9-.258 1.742.385 2.49.683.788 1.488 1.342 2.578 1.348 1.504.01 3.008.017 4.51.027.602.004 1.21-.037 1.8.05.22.033.517.35.562.583.096.48.096.994.06 1.49-.165 2.196-.522 4.388-.514 6.583.01 6.005-.315 12.01.353 18.023.504 4.57.495 9.2.608 13.807.09 3.71.02 7.42.02 11.13h.034c0 1.606-.01 3.212.002 4.816.02 3.105.032 6.214.088 9.32.026 1.508.864 2.433 2.315 2.67.295.048.6.056.9.075 2.3.142 4.593.317 6.893.414 1.6.065 3.207.07 4.81.02 1.5-.048 2.998-.164 4.486-.32 1.57-.16 3.13-.478 4.703-.058.094.025.2-.003.3-.01 1.206-.083 2.036-.854 2.16-2.097.07-.693.065-1.402.033-2.1-.18-4.1-.1-8.197-.617-12.3-.495-3.96-.76-7.98-.62-11.997.03-.903-.03-1.807-.034-2.708-.016-4.315-.43-8.59-1.122-12.85-.37-2.268-.678-4.567-.743-6.858-.133-4.512-.082-9.026-.106-13.536 0-.5.023-1.003.062-1.504.045-.587.413-.942.947-.933.398.01.813-.01 1.197.08 2.772.655 5.587.383 8.387.396.585.004 1.2-.117 1.75-.328 1.732-.665 2.378-2.982.985-4.16zm-10.106-1.05c-.765.22-1.536.44-2.317.568-.24.04-.548-.156-.78-.31-.246-.162-.417-.436-.66-.602-.646-.448-1.378-.448-1.94.03-.897.763-1.556 1.747-2.532 2.478-.79.592-.846 1.747-.832 2.786.03 2.407.013 4.816.013 7.22-.07.006-.14.012-.213.014.268 4.6.508 9.2.828 13.8.125 1.795.34 3.596.69 5.358.394 1.984.456 3.98.494 5.984.047 2.402.043 4.8.337 7.2.226 1.88.09 3.808.1 5.713.02 2.807-.022 5.607.57 8.383.25 1.163.16 2.398.24 3.597.083 1.197.183 2.393.29 3.587.075.84-.142 1.165-.91 1.184-1.602.045-3.21.028-4.81.104-1.7.078-3.398.235-5.095.358-.572.044-1.085-.282-1.09-.764-.037-1.604-.05-3.206-.04-4.81.004-.558.38-.912.86-1.127 1.1-.49 2.194-.986 3.31-1.433.875-.35 1.52-.95 2.07-1.68.596-.8.474-1.735-.275-2.422-.618-.565-1.332-.912-2.167-.904-.6.007-1.202.063-1.792.16-.673.115-1.487.613-1.97.383-.81-.384-.372-1.427-.48-2.184-.042-.3-.022-.6-.02-.904.028-3.147-.646-3.035 2.505-4.738.523-.284 1.005-.67 1.44-1.075.864-.8 1.127-1.924.693-2.713-.464-.857-1.76-1.412-2.844-1.2-.292.06-.57.206-.86.268-.473.1-1.017.33-1.334-.25-.43-.778-.348-1.79.223-2.205.808-.59 1.717-1.037 2.505-1.648.62-.48 1.235-1.045 1.638-1.7.687-1.107.203-2.403-.926-3.07-1.227-.724-2.43-.774-3.727-.167-.54.25-1.013-.098-1.096-.64-.046-.296-.043-.603-.107-.896-.26-1.22.163-2.144 1.144-2.88.8-.603 1.58-1.237 2.34-1.888.84-.71 1.682-1.425 2.46-2.205.335-.34.586-.817.735-1.277.39-1.184-.215-2.216-1.41-2.556-.808-.233-1.613-.174-2.34.2-1.067.544-2.09 1.17-3.125 1.775-.555.323-.853.178-1.027-.523-.097-.39-.145-.796-.275-1.174-.358-1.016.03-1.775.83-2.35 1.46-1.052 2.94-2.08 4.434-3.087.756-.51 1.476-1.023 1.834-1.92.225-.57.18-1.24-.253-1.665-.747-.736-1.58-1.198-2.697-.87-1.07.313-2.06.734-2.987 1.365-1.355.927-1.466.89-1.597-.906-.178-2.395-.326-4.802-.284-7.2.027-1.557-.42-2.965-.86-4.384-.358-1.166-1.216-1.813-2.477-1.813-1.302-.002-2.607.016-3.908.008-.466-.003-.747-.444-.506-.772 2.503-3.386 4.96-6.787 8.32-9.445 2.2-1.74 4.202-3.72 6.292-5.59.576-.51.996-.5 1.53.097.465.523.9 1.077 1.33 1.63 1.602 2.055 3.333 4 5.034 5.975 2.28 2.65 4.222 5.584 6.828 7.968.352.32.533.835.75 1.283.056.125-.02.45-.097.476zm-34.97 66.207c-.19-3.8-.406-7.6-.464-11.4-.075-5.11-.018-10.22-.018-15.33h-.048c0-5.31 0-10.618-.002-15.928 0-.6-.014-1.2-.025-1.803-.02-.966-.45-1.725-1.184-2.33-.87-.72-1.827-1.223-3-1.172-2.313.1-4.598-.108-6.866-.54-3.03-.576-6.16-.728-8.98-2.176-.564-.29-1.157-.154-1.738.09-.896.38-1.43 1.048-1.74 1.945-.63 1.804-1.03 3.666-1.134 5.558-.26 4.796-.494 9.596-.618 14.398-.117 4.405-.117 8.815-.098 13.222.032 6.504-.267 13.013.6 19.496.143 1.087.455 1.814 1.47 2.38 1.482.828 2.996 1.056 4.625.85.89-.113 1.78-.35 2.67-.352 2.908-.018 5.794-.163 8.683-.522 1.58-.195 3.2-.02 4.8-.07 2.304-.067 3.87-2.002 3.488-4.277-.112-.686-.385-1.355-.42-2.04zm-6.58-20.94h-.08v18.347c0 .302.01.602 0 .903-.026.822-.275 1.136-.99 1.228-.298.038-.596.056-.898.075-2.595.157-5.195.288-7.79.483-.788.06-1.564.28-2.343.437-.446.09-.705-.11-.716-.608-.014-.5-.028-1 0-1.5.056-1.093.136-2.184.208-3.277.903-.606 1.808-1.214 2.713-1.818.747-.5 1.533-.958 2.24-1.51.832-.653 1.088-1.667.704-2.405-.477-.917-1.5-1.455-2.524-1.187-.765.2-1.486.578-2.227.87-.185.072-.387.18-.564.154-.15-.02-.384-.197-.4-.326-.076-.592-.094-1.19-.114-1.787-.02-.65.228-1.15.81-1.49 1.21-.71 2.412-1.43 3.61-2.158.683-.416 1.397-.797 2.02-1.29.978-.773 1.242-2.142.724-3.26-.472-1.01-1.856-1.628-3.058-1.23-1.136.372-2.22.895-3.326 1.354-.368.15-.725-.17-.765-.63-.056-.664.14-1.2.74-1.503 1.612-.81 3.24-1.584 4.854-2.39.715-.356 1.434-.717 2.105-1.147.636-.41.898-1.054.816-1.817-.052-.524-.273-.967-.737-1.238-1.094-.638-2.234-.917-3.416-.248-1.216.69-2.413 1.414-3.614 2.127-.42.246-.712.065-.804-.43-.24-1.254.162-2.09 1.366-2.645 1.272-.587 2.467-1.333 3.69-2.016.35-.197.705-.388 1.023-.628.676-.51 1.14-1.195.994-2.048-.16-.95-.766-1.68-1.728-1.883-.664-.14-1.39-.106-2.07-.01-.477.064-.934.34-1.386.555-2.314 1.11-2.316 1.112-2.395-1.3-.046-1.404-.062-2.806-.114-4.21-.05-1.36.555-1.432 1.415-1.297 1.285.202 2.556.48 3.84.682 2.368.373 4.742.722 7.115 1.063.775.113 1.05.344 1.055 1.154.02 2.506.015 5.012.015 7.52.002 4.11 0 8.22 0 12.33zM38.4 106.862c-.267-2.987-.358-5.998-.79-8.96-.434-2.993-.433-5.978-.415-8.977.008-1.2.04-2.403.016-3.603-.016-.715-.582-1.37-1.29-1.444-.79-.08-1.594-.054-2.393-.054-4.197-.01-8.387.1-12.51-1.062-1.4-.395-2.98-.254-4.473-.197-1.463.056-2.42.945-2.74 2.36-.372 1.65-.86 3.273-.752 5.02.108 1.693 0 3.4.01 5.104.023 3.905.063 7.807.093 11.713.013 1.534.286 2.955 1.348 4.18.438.505.694 1.2.916 1.85.372 1.09 1.123 1.62 2.224 1.69.7.045 1.403.034 2.102.02 2.702-.05 5.405-.11 8.49-.177 2.42 0 5.225.006 8.028-.006.594-.004 1.198-.037 1.78-.14.54-.098.854-.5.9-1.05.032-.398.035-.805-.005-1.2-.165-1.69-.38-3.375-.534-5.064zm-3.526.958c-.045.065-.174.09-.27.095-2.4.122-4.8.24-7.404.37-.096 0-.4.02-.7-.004-.54-.047-1.082-.127-1.622-.193.387-.307.806-.584 1.158-.928.49-.488 1.003-.98 1.376-1.555.443-.68.045-1.717-.69-2.016-.94-.38-1.875-.67-2.906-.22-.917.396-1.877.69-2.816 1.036-.63.23-1.157-.242-1.067-.926.093-.748.427-1.316 1.086-1.7 1.295-.755 2.576-1.544 3.887-2.283.717-.4 1.333-.877 1.755-1.595.343-.59.18-1.523-.398-1.888-.965-.606-1.97-.98-3.115-.43-.9.43-1.817.83-2.74 1.21-.11.046-.41-.114-.46-.24-.05-.14.04-.44.164-.508 1.045-.58 2.142-1.077 3.168-1.692.763-.46 1.52-.978 2.136-1.61.735-.75.174-2.24-.865-2.333-.784-.07-1.598.03-2.372.18-.682.128-1.326.446-2 .635-.096.027-.345-.187-.38-.328-.077-.284-.09-.595-.067-.893.043-.642.378-.975.9-.94.2.014.406.014.598.06 3.33.78 6.703 1.143 10.124 1.104.723-.008 1.122.392 1.14 1.08.06 2.102-.018 4.204.315 6.302.343 2.17.577 4.362.81 6.548.132 1.252.67 2.285 1.442 3.236.046.058-.1.3-.196.427z"/></svg>