<svg xmlns="http://www.w3.org/2000/svg" width="128" height="128" viewBox="0 0 128 128"><path d="M121.077 99.51c-1.638-.257-3.087-.893-4.548-1.516-2.78-1.184-5.666-1.93-8.63-2.404-.837-.133-1.62.296-1.857.962-.25.693.04 1.263.512 1.74.3.304.63.603 1.003.8 1.223.66 2.463 1.296 3.718 1.895.672.32 1.397.54 2.085.827.19.08.347.243.518.368-.124.133-.222.323-.376.395-.58.27-1.195.476-1.77.755-.67.325-1.124.34-1.544-.444-.66-1.237-1.764-1.714-3.204-1.725-2.032-.013-4.062-.254-6.094-.33-1.5-.054-3.008-.07-4.506.025-4.382.284-8.757.733-13.14.936-6.534.303-13.075.523-19.614.643-5.685.105-11.375.02-17.062.02v.047c-6.223 0-12.446.004-18.67-.004-1.718 0-3.436-.02-5.15-.07-1.048-.03-1.37-.38-1.276-1.38.196-2.023.597-4.04.63-6.067.2-12.87.374-25.74-.417-38.603-.386-6.315-.558-12.64-.85-18.957-.076-1.603-.248-3.202-.357-4.805-.03-.475.165-.825.715-.82.427 0 .862.074 1.28.02 1.085-.144 1.796-.904 1.753-1.944-.032-.74-.136-1.502-.35-2.21-.81-2.66-1.704-5.3-2.517-7.96-.47-1.533-.786-3.114-1.284-4.64-.288-.88.028-1.693 0-2.532-.043-1.282-.904-2.396-1.966-2.66-1.383-.345-2.67.096-3.316 1.315-.443.837-.697 1.78-.967 2.7-.21.714-.282 1.47-.477 2.19-.787 2.89-1.563 5.788-2.42 8.658-.385 1.284-.48 2.514.016 3.768.59 1.495 1.76 1.995 3.343 1.42.3-.112.58-.292.89-.366.11-.024.36.154.393.28.078.304.082.633.085.954.12 9.01.16 18.018.56 27.02.498 11.25.015 22.53.67 33.78.07 1.198-.108 2.31-.575 3.44-.36.865-.48 1.855-.582 2.8-.103.958-.04 1.93-.077 2.897-.04.996-.323 1.246-1.416 1.29-.43.017-.86.012-1.288.012-1.288.01-2.58-.054-3.86.05-1.677.13-3.106.814-4.016 2.316-.306.51-.306 1.08.126 1.475.46.423 1 .84 1.58 1.025.59.19 1.27.11 1.913.117 1.824.014 3.648-.004 5.472.02.64.01 1.01.37 1.018.98.026 1.823.008 3.647.03 5.47.008.748.004 1.51.142 2.238.228 1.2 1.312 2.126 2.447 2.222 1.23.102 2.496-.843 2.787-2.197.155-.723.157-1.487.17-2.234.027-1.824.004-3.646.043-5.47.008-.462.34-.764.81-.833.317-.046.64-.043.96-.05 7.61-.113 15.216.54 22.825.127.214-.013.428.015.644.025 1.498.08 2.994.226 4.49.223 8.9-.02 17.804.376 26.7-.318 5.554-.432 11.125-.64 16.69-.958.426-.025.845-.176 1.268-.187 3.755-.082 7.505-.156 11.258-.2.49-.006.736.345.605.865-.026.105-.062.206-.09.31-.575 2.013 1.12 3.794 3.42 3.178.206-.055.418-.107.612-.192 3.13-1.4 6.34-2.637 9.27-4.45.724-.447 1.43-.963 2.04-1.556 1.545-1.493.886-4.177-1.22-4.51zM25.773 77.44c.72.01 1.53-.11 2.15-.443 1.41-.76 2.74-1.67 4.085-2.556.896-.59 1.73-1.27 2.63-1.853.914-.594 1.523-.57 2.334.135 1.13.988 2.206 2.037 3.31 3.06.626.583 1.19 1.263 1.9 1.716 1.446.93 2.85 1.884 4.143 3.04 1.33 1.19 3.083 1.104 4.335-.193 1.112-1.15 2.195-2.372 3.065-3.712 2.043-3.142 3.95-6.38 5.916-9.573.45-.728.896-1.458 1.38-2.16.235-.336.57-.252.81.02.205.24.366.524.522.8 2.177 3.82 4.364 7.633 6.926 11.212.81 1.133 1.593 2.293 2.478 3.365 1.1 1.327 3.067 1.325 4.256.06.29-.31.54-.673.747-1.044 1.567-2.837 3.777-5.203 5.71-7.77.885-1.178 1.147-1.125 1.963.266.924 1.572 1.807 3.167 2.702 4.754.79 1.4 1.53 2.832 2.373 4.203 1.024 1.664 2.02 1.934 3.773 1.135.39-.178.754-.412 1.135-.608 2.667-1.378 5.333-2.763 8.01-4.122.86-.435 1.753-.806 2.625-1.216.61-.286 1.02-.033 1.322.485 1.02 1.76 2.042 3.526 3.045 5.298.647 1.144 1.554 1.754 2.822 1.504.3 0 .516.014.73 0 1.516-.1 2.116-1.072 1.404-2.397-.964-1.796-2.037-3.532-3.008-5.32-.625-1.15-1.515-2.063-2.354-3.04-.823-.96-1.778-1.217-2.87-.822-1.807.655-3.626 1.323-5.35 2.173-2.497 1.234-4.906 2.648-7.37 3.955-.96.513-1.29.428-1.842-.5-1.42-2.397-2.78-4.832-4.202-7.23-1.9-3.2-1.914-3.194-.047-6.302.166-.274.328-.597.578-.757.21-.133.688-.193.805-.065.5.55.883 1.207 1.37 1.772.555.646 1.11 1.316 1.776 1.838 1.327 1.04 2.37 1.02 3.833.08 1.28-.82 2.304-1.875 3.168-3.144 4.59-6.734 9.164-13.474 14.415-19.74 2.053-2.45 3.608-5.317 5.374-8.005.234-.355.417-.754.564-1.154.363-.985.22-1.916-.482-2.702-.35-.395-.778-.73-1.204-1.05-.606-.457-1.202-.382-1.664.264-1.807 2.528-3.61 5.062-5.378 7.62-1.643 2.378-3.025 4.945-5.24 6.893-.39.343-.623.864-.94 1.3-2.85 3.894-5.7 7.79-8.556 11.68-.188.255-.39.522-.643.703-.13.093-.474.082-.576-.02-.512-.54-.98-1.125-1.47-1.686-1.123-1.288-2.15-2.69-3.41-3.83-1.53-1.382-3.66-.847-4.568.98-.236.477-.35 1.01-.557 1.502-.62 1.482-1.245 2.964-1.897 4.433-.285.64-.832.675-1.205.058-1.933-3.214-3.867-6.43-5.757-9.67-1.565-2.683-3.064-5.403-4.604-8.1-.353-.615-.95-.93-1.622-.826-.834.13-1.69.32-2.464.654-3.54 1.527-7.06 3.097-10.575 4.682-2.834 1.28-5.643 2.61-8.475 3.893-1.255.57-1.525.505-2.545-.505-1.297-1.282-2.55-2.612-3.873-3.866-.78-.737-1.84-.766-2.627-.06-2.635 2.36-5.24 4.76-7.844 7.155-.31.288-.58.637-.805.998-.16.264-.246.587-.33.896-.227.884.635 1.794 1.494 1.532.498-.153 1.013-.378 1.414-.7 1.252-1.01 2.436-2.105 3.683-3.12 1.068-.876 1.876-2.075 3.23-2.593 1.44.8 1.73 2.364 2.41 3.656.56 1.06 1.285 1.61 2.543 1.554 1.525-.067 2.97-.262 4.323-1.04 1.963-1.125 4.075-1.89 6.25-2.51 2.383-.682 4.59-1.737 6.71-3.045 1.82-1.12 3.8-1.982 5.717-2.943.282-.142.608-.203.917-.286.462-.124.86.033 1.124.4.25.345.427.743.613 1.13 2.674 5.506 5.7 10.814 9.035 15.944.06.09.112.187.18.267.56.67.524 1.31.065 2.047-1.466 2.37-2.883 4.77-4.328 7.155-.11.18-.244.415-.416.47-.256.083-.653.145-.818.01-.316-.264-.53-.66-.754-1.023-1.573-2.557-3.083-5.154-4.72-7.67-1.574-2.422-3.253-4.773-4.932-7.126-.724-1.012-2.62-1.034-3.406-.015-1.373 1.78-2.76 3.563-3.963 5.456-2.01 3.17-3.832 6.454-5.814 9.64-2.357 3.79-1.643 3.135-5.077.74-.438-.307-.8-.72-1.225-1.046-1.888-1.436-3.648-2.96-4.736-5.163-.56-1.13-1.537-1.42-2.747-1.002-1.82.625-3.65 1.24-5.227 2.425-1.97 1.483-3.987 2.903-5.965 4.378-.42.315-.83.69-1.117 1.124-.8 1.205-.02 2.797 1.41 2.818z"/></svg>