<svg xmlns="http://www.w3.org/2000/svg" width="128" height="128" viewBox="0 0 128 128"><path d="M108.866 89.09c-1.06-.08-2.144.05-3.21.178-3.084.363-6.16.772-9.24 1.173-4.676.61-9.375.938-14.09 1.053-2.682.064-5.378-.002-8.04.27-3.858.394-7.714.276-11.573.287-1.288.002-2.575-.048-3.86-.017-3.327.085-6.665.05-9.974.344-4.798.427-9.57 1.1-14.355 1.664-.32.04-.642.064-.962.087-1.286.088-1.557-.12-1.66-1.312-.074-.856-.022-1.736-.202-2.566-.572-2.648-.58-5.32-.57-8.007.007-2.25.03-4.512-.118-6.756-.28-4.168-.653-8.33-1.038-12.487-.267-2.88-.54-5.76-.965-8.62-.156-1.037-.044-1.82.513-2.7.835-1.32.71-1.942-.38-3.128-.43-.47-.997-.81-1.087-1.523-.216-1.7-.4-3.405-.68-5.095-.3-1.82-.18-3.285 1.824-4.203 1.125-.512 1.05-1.813.097-2.694-.307-.29-.644-.655-1.024-.735-1.632-.34-1.886-1.59-1.987-2.912-.083-1.066-.036-2.146-.096-3.217-.045-.853-.107-1.712-.264-2.555-.19-1.013-1.408-1.416-2.293-.806-.74.51-1.25 1.192-1.36 2.09-.1.852-.123 1.713-.186 2.568-.08 1.067-.163 2.133-.248 3.2-.07.838-.514 1.26-1.317 1.6-1.352.576-1.734 1.393-1.493 2.462.155.67.507 1.288 1.118 1.486 1.5.484 1.867 1.645 1.963 2.972.14 1.928.22 3.858.29 5.788.03.825-.232 1.09-1.11 1.28-.313.07-.64.093-.956.13-1.213.144-1.89.91-2.315 1.975-.338.846-.134 1.813.586 2.308.523.355 1.116.64 1.713.844.6.21 1.26.256 1.876.422 1.02.28 1.198.53 1.31 1.534.176 1.594.404 3.185.554 4.78.116 1.284.16 2.572.218 3.86.027.59-.203 1.007-.837 1.157-1.043.238-2.096.452-3.113.783-.864.284-1.333 1.1-1.327 2.01.004 1.134.48 1.928 1.503 2.203 1.024.277 2.084.44 3.138.59 1.028.15 1.15.213 1.298 1.027.496 2.765.43 5.554.395 8.34-.008.733-.347 1.264-.996 1.503-.816.3-1.6.61-2.176 1.3-.522.625-.682 1.33-.423 2.102.252.757.68 1.32 1.58 1.353.425.016.89.022 1.26.195.35.162.79.504.86.835.458 2.205.8 4.432.743 6.697-.022.86-.18 1.064-1.04 1.335-1.12.356-2.274.632-3.342 1.104-1.296.576-1.817 1.958-1.38 3.22.36 1.048 1.64 1.87 2.786 1.76.427-.042.843-.174 1.266-.23 1.397-.186 2.735-.288 3.976.704.837.67 1.817.46 2.688-.156.776-.544 1.363-1.48 2.443-1.427 1.63.08 2.89-.693 4.07-1.64 1.393-1.116 2.955-1.13 4.587-.858.595.1.94.503 1.06 1.063.204.94.292 1.904.563 2.82.224.76.78 1.284 1.66 1.262.534-.013 1.075-.004 1.6-.08.78-.11 1.398-.688 1.494-1.47.107-.846.07-1.702.14-2.553.04-.518.47-.75.9-.734 1.39.05 2.777.24 4.164.257 2.576.032 5.152.043 7.726-.064 1.396-.06 2.253.37 2.585 1.775.096.4.352.782.608 1.116.776 1.02 1.975 1.28 3.168.786 1.236-.51 1.765-1.505 1.928-2.742.066-.497.31-.786.78-.82 2.346-.174 4.698-.33 7.05-.48.81-.056 1.536.156 1.85.967.337.876.99 1.37 1.776 1.76 1.547.762 2.795.453 3.383-1.17.487-1.348 1.18-1.83 2.567-1.856 2.138-.043 4.277-.25 6.41-.472 1.308-.135 2.346-.004 2.753 1.488.11.398.398.763.657 1.1.715.93 1.867 1.364 2.827 1.07 1.113-.334 1.84-1.053 2.05-2.22.057-.315.04-.642.074-.96.168-1.554.26-1.675 1.61-1.81.854-.085 1.712-.107 2.567-.157l.026.213c1.368-.184 2.74-.352 4.11-.555 1.158-.17 2-1.554 1.964-2.634-.078-2.453-1.12-3.65-3.412-3.83zm-67.94-5.847c.77-.557 1.554-1.157 2.15-1.888 1.418-1.74 2.72-3.58 4.086-5.365 2.082-2.72 4.163-5.442 6.274-8.14.79-1.008 1.65-1.967 2.5-2.93.992-1.124 1.992-2.24 3.032-3.322.31-.32.79-.37 1.168-.056 1.397 1.167 2.776 2.354 4.157 3.537 1.543 1.324 3.087 2.65 4.626 3.977.51.443 1.095.643 1.77.637.64-.006 1.285-.017 1.926.035 1.155.093 2.085-.38 2.915-1.103.404-.352.817-.71 1.137-1.133 1.49-1.958 3.064-3.87 4.4-5.93 2.736-4.22 5.338-8.527 7.995-12.798 1.118-1.796 1.255-1.845 2.997-.917.852.452 1.697.916 2.527 1.407 1.216.718 2.545 1.056 3.915 1.372 1.166.266 2.174.08 3.008-.645 1.125-.983 2.22-2.03 3.163-3.185 2.87-3.512 5.024-7.444 6.603-11.695.218-.595.4-1.23.45-1.856.15-1.828-.742-3.01-2.463-3.653-1.118-.416-2.112-.267-3.057.335-1.557.992-2.876 2.16-3.494 4.028-.85 2.565-2.435 4.75-3.933 6.966-.53.786-1.02.89-1.914.416-.757-.398-1.472-.87-2.208-1.307-.83-.49-1.633-1.035-2.5-1.45-2.768-1.334-5.703-.652-7.338 1.85-2.165 3.313-4.192 6.72-6.285 10.08-1.64 2.638-3.277 5.275-4.954 7.89-.4.627-.935 1.17-1.43 1.733-.307.352-.705.485-1.113.173-.68-.52-1.35-1.054-1.996-1.614-1.943-1.675-3.855-3.38-5.812-5.035-.567-.48-1.215-.89-1.876-1.226-2.79-1.403-4.53-1.053-6.513 1.33-2.67 3.21-5.31 6.448-7.968 9.668-3.488 4.225-6.347 8.886-9.403 13.41-.734 1.083-1.153 2.3-1.057 4.07-.003-.007.026.436.2.814.562 1.232 2.727 2.66 4.31 1.518z"/></svg>