<svg xmlns="http://www.w3.org/2000/svg" width="128" height="128" viewBox="0 0 128 128"><path d="M117.325 34.037c.725-.587.62-1.285.2-2.008-.268-.465-.443-1.005-.79-1.394-1.1-1.235-2.28-2.32-4.166-1.653-.386.137-.858.176-1.256.096-3.296-.667-6.627-.425-9.948-.496-6.962-.15-13.946.41-20.89-.544-2.542-.35-5.096-.64-7.633-1.034-3.495-.544-6.973-1.152-10.537-1.003-2.573.11-5.152.068-7.727.092-4.83.043-9.66.08-14.49.128-1.183.01-2.307-.085-3.42-.648-1.253-.634-2.685-.91-4.072-.542-2.01.535-4.047.456-6.078.49-3.004.05-6.01.048-9.013.004-1.622-.023-3.204.18-4.785.495-.94.186-1.538.608-1.803 1.568-.428 1.555-.828 3.107-.77 4.742.114 2.894.033 5.808.356 8.68.42 3.747.42 7.494.472 11.245.032 2.577.125 5.16-.037 7.727-.16 2.573.513 5.062.378 7.657-.19 3.624.162 7.277.288 10.916.017.538-.008 1.084.09 1.606.608 3.186.457 6.412.58 9.622.126 3.207.362 6.407.554 9.61.05.804.435 1.454 1.11 1.862.54.33 1.14.672 1.748.757 1.694.244 3.41.538 5.106.477 2.457-.09 4.898-.497 7.35-.728 1.917-.18 3.84-.403 5.76-.42 3.86-.032 7.722.08 11.587.1 5.153.027 10.305.013 15.457.043 1.07.005 2.142.1 3.208.19 1.387.116 2.77.35 4.158.386 8.043.206 16.085.378 24.128.54 1.93.045 3.86.01 5.796.01v.213c4.61-.045 9.226-.023 13.836-.157 3.925-.117 5.71-1.613 4.81-5.948-.276-1.34-.383-2.81-.13-4.14.383-2.026.404-4.044.458-6.078.08-3.004.164-6.006.238-9.012.02-.955.062-1.912.016-2.867-.31-6.42-.768-12.844-.92-19.27-.157-6.435-.01-12.88-.018-19.315-.006-.8.146-1.468.796-1.992zm-5.41 54.48c-.035 1.172-.224 2.343-.352 3.514-.135 1.266-.25 2.536-.43 3.793-.074.498-.85.317-4.294.98-.105.022-.213.022-.32.026-6.746.343-13.49.97-20.24.524-7.07-.47-14.146-.326-21.218-.52-6.532-.18-13.067-.404-19.6-.607l-.002.21c-3.324 0-6.65-.064-9.972.015-3.75.093-7.493.318-11.237.478-.75.03-1.5.034-2.25.014-.47-.013-.802-.258-.863-.757-.125-1.064-.315-2.126-.34-3.192-.124-4.82-.338-9.637-.858-14.435-.38-3.51-.716-7.025-1.04-10.54-.104-1.066-.15-2.14-.164-3.213-.043-2.68.002-5.36-.087-8.043-.065-1.922-.29-3.837-.438-5.757-.03-.427-.108-.856-.09-1.28.202-4.528-.484-8.97-1.177-13.42-.117-.735-.08-1.492-.064-2.242.01-.48.324-.79.8-.84.53-.05 1.07-.066 1.603-.048 4.068.13 8.152-.102 12.206.43.21.028.426.018.64.018 10.83.013 21.665.032 32.496.02.958 0 1.917-.226 2.875-.255 1.06-.03 2.14-.05 3.187.11 1.493.232 2.99.33 4.454.026 1.82-.37 3.617-.322 5.428-.06.424.06.85.17 1.274.16 4.73-.11 9.41.594 14.102.95 4.39.332 8.774.436 13.166.48 1.365.012 1.677.332 1.52 1.776-.69 6.417-.48 12.853-.343 19.28.096 4.595.753 9.18.915 13.776.22 6.21.898 12.405.717 18.628zM96.405 44.51c-1.24 1.518-2.293 3.104-2.976 4.926-.866 2.302-1.775 4.604-2.455 6.965-1.045 3.624-2.645 7.017-4.1 10.467-.165.39-.417.75-.64 1.116-.336.542-.867.527-1.243-.043-1.65-2.507-3.33-4.992-4.932-7.53-.67-1.06-1.505-1.855-2.734-2.043-.597-.09-1.355-.027-1.842.28-1.088.685-2.077 1.586-2.437 2.89-.894 3.23-2.867 5.98-3.985 9.105-.107.3-.254.603-.45.85-.188.234-.46.4-.698.596-.094-.188-.216-.365-.282-.564-.463-1.423-.747-2.927-1.397-4.256-1.408-2.89-2.965-5.7-3.794-8.84-.376-1.413-1.385-2.078-2.85-2.15-2.1-.108-2.85.33-3.675 2.338-.203.49-.34 1.013-.48 1.528-.526 1.96-.952 3.952-1.582 5.877C52.65 69.678 51.15 73.23 50.3 77c-.07.315-.134.647-.3.913-.21.337-.515.61-.784.91-.23-.212-.53-.39-.683-.652-1.64-2.887-3.255-5.79-4.88-8.687-.317-.558-.614-1.135-.98-1.66-.593-.842-1.428-1.236-2.47-1.286-1.428-.068-2.498.57-3.325 1.633-1.97 2.535-3.913 5.09-5.838 7.663-.317.42-.545.93-.7 1.43-.422 1.377.994 2.87 2.373 2.614 1.596-.3 2.645-1.27 3.575-2.522 1.017-1.373 2.148-2.658 3.23-3.983 1.52 1.125 1.842 3.02 2.842 4.483.6.877.946 1.92 1.454 2.863.912 1.7 1.798 3.417 2.816 5.055.828 1.33 2.027 2.19 3.715 2.16.687-.01 1.24-.203 1.715-.708.835-.88 1.34-1.94 1.688-3.072 1.447-4.725 3.45-9.224 5.392-13.752.123-.287.273-.58.48-.803.085-.09.504-.065.533.012.363.882.71 1.772 1.003 2.68.757 2.348 1.483 4.707 2.916 6.76 1.216 1.74 4.03 2.282 5.692.995.656-.507 1.213-1.22 1.63-1.944.746-1.293 1.33-2.68 2.015-4.012.98-1.898 1.977-3.786 2.99-5.665.287-.535 1.076-.535 1.297-.015 1.13 2.66 2.396 5.277 3.317 8.01.818 2.422 2.71 3.11 4.33 3.645 1.377.177 2.152-.117 2.838-.702.913-.78 1.58-1.732 2.112-2.804 1.52-3.076 3.12-6.11 4.59-9.21.91-1.93 1.876-3.842 2.504-5.902.557-1.845 1.183-3.663 1.844-5.472.84-2.315 1.7-4.62 3.138-6.667.97-1.378.817-2.814-.066-4.222-.984-1.565-4.34-2.478-5.902-.576z"/></svg>