<svg xmlns="http://www.w3.org/2000/svg" width="128" height="128" viewBox="0 0 128 128"><path d="M45.85 38.66c2.043 1.67 4.35 2.638 6.992 2.697 2.473.056 4.402-.937 5.544-3.198.378-.753.74-1.55.9-2.366.304-1.566.456-3.16.672-4.74-.05-2.03-.228-3.982-1.222-5.79-1.277-2.325-3.14-3.725-5.874-3.765-.66-.014-1.32.012-1.98.03-1.285.04-2.372.556-3.322 1.398-.928.822-1.713 1.757-2.272 2.868-1.304 2.584-1.843 5.338-1.754 8.213.058 1.884.83 3.437 2.315 4.65zm8.137-12.216c.704.258.85.965.235 1.443-.715.552-1.127 1.203-1.25 2.087-.05.363-.188.72-.323 1.064-.205.514-.42 1.22-1.053 1.1-.47-.09-.994-.583-1.227-1.036-.283-.55-.285-1.245-.313-1.394 0-.595.01-.69-.002-.782-.315-2.526 1.734-3.29 3.932-2.48zm-4.26 61.572c-.592-.734-1.24-1.43-1.77-2.206-1.34-1.958-2.406-4.037-2.89-6.403-.287-1.412-1.45-1.986-2.79-1.557-.903.29-1.622 1.415-1.488 2.483.105.84.326 1.666.52 2.492.065.272.257.523.285.79.026.25-.096.513-.155.77-.166-.06-.36-.084-.5-.182-3.763-2.684-7.533-5.36-11.275-8.073-.76-.552-1.394-1.277-2.126-1.87-.807-.652-1.623-1.308-2.5-1.848-.978-.602-2.253-.365-2.83.403-.534.715-.526 1.847.047 2.65.22.306.463.6.736.86 1.166 1.1 2.272 2.283 3.538 3.253 2.77 2.123 5.627 4.133 8.447 6.19 1.45 1.057 2.9 2.11 4.346 3.17.395.287.382.492-.03.844-.356.305-.753.574-1.075.913-.65.683-.622 1.534 0 2.298.628.78 1.454 1.216 2.43 1.275 1.036.06 2.077.014 3.116.014 0 .043 0 .088.003.13 1.126-.068 2.306.048 3.364-.258 1.04-.3 1.9-1.09 2.98-1.48 1.243-.453 1.58-2.01.85-3.107-.36-.55-.817-1.038-1.23-1.55zm67.304-2.048c-.04-1.248-1.187-2.238-2.414-2.373-1.306-.145-2.64.02-3.922-.427-.226-.078-.555.05-.81.147-.703.272-1.388.585-2.086.867-1.66.68-2.767 1.912-3.524 3.5-.91 1.902-1.33 3.905-1.312 6.015.033 3.493 2.013 6.115 5.422 7.002.99.254 2.035.297 3.057.44l.015-.133c.47 0 .944.01 1.413-.002 3.533-.098 6.752-3.653 6.63-6.844-.082-2.125-.273-4.11-1.562-5.887-.48-.666-.873-1.355-.907-2.304zm-2.224 8.262c-.245 1.365-1.106 1.915-2.15 1.805-.64-.15-1.293-.253-1.908-.465-.97-.33-1.553-1.027-1.704-2.06-.08-.556-.128-1.12-.286-1.652-.245-.832.12-1.468.555-2.097.282-.41.686-.61 1.188-.644 1.1-.083 2.044.213 2.813 1.032 1.084 1.152 1.786 2.448 1.493 4.083zM63.14 90.876c-.932-.128-1.868-.335-2.8-.333-1.82.005-3.567.306-4.71 1.975-.748 1.086-1.516 2.155-2.23 3.26-.996 1.542-1.432 3.25-1.47 5.086-.03 1.55.673 2.725 1.823 3.633.578.46 1.29.762 1.97 1.077 1.503.698 3.124.58 4.076.608 1.302 0 1.965.032 2.622-.005 2.304-.13 4.14-1.12 5.472-3.026 1.434-2.06 1.736-4.336 1.22-6.73-.676-3.17-2.796-5.1-5.977-5.54zm1.35 8.155c-.04.625-.49.967-1.19.834-1.01-.188-2.02-.413-3.007-.69-.725-.208-1.04-.733-1.03-1.497.003-.28.03-.562.078-.84.11-.632.484-.95 1.154-1.005.093-.007.187-.02.28-.02h.556c2.798-.043 3.338.416 3.16 3.22zm58.098-68.52c-.206-1.1-.608-2.17-.953-3.24-.168-.54-.603-1.075-.558-1.58.128-1.42-.783-2.03-1.76-2.637-1.925-1.195-4.068-1.52-6.264-1.35-1.837.145-3.47.833-4.49 2.522-.387.645-.844 1.26-1.148 1.945-1.09 2.474-1.213 4.91.405 7.252.315.454.574.965.768 1.485.576 1.555 1.714 2.46 3.272 2.846.816.2 1.664.273 2.496.405 2.144.107 3.9-.582 5.284-2.246.48-.576 1.088-1.045 1.643-1.553 1.14-1.047 1.58-2.366 1.303-3.848zm-6.628-.397c-.582.013-.79-.422-.965-.846-.315-.754-.817-1.15-1.658-1.3-.91-.166-1.1-.908-.467-1.586.302-.324.725-.532 1.148-.83.376.223.814.336.968.607.45.805.832 1.66 1.16 2.522.306.812.178 1.425-.184 1.433zm-36.864 38.09c1.213-2.865 1.41-5.87.43-8.84-.515-1.567-1.6-2.797-3.302-3.227-1.086-.275-2.203-.422-3.307-.63l-.026.146c-.376 0-.755.017-1.13 0-2.177-.1-3.833.886-5.095 2.554-1.845 2.436-2.58 5.224-2.23 8.252.084.72.404 1.468.8 2.085.88 1.382 2.122 2.38 3.684 2.958 1.352.5 2.75.588 4.174.598 2.876.025 4.907-1.297 6.003-3.89zm-3.826-4.53c-.014.203-.032.768-.09 1.327-.052.53-.478.9-.943.79-.91-.22-1.824-.435-2.71-.736-.566-.197-.89-.683-.88-1.312.01-.563.02-1.13.096-1.685.117-.883.603-1.28 1.523-1.333.094-.008.19-.005.283-.008 2.585-.08 2.74.068 2.72 2.955zM20.64 56.89c-.624-1.54-1.747-2.865-3.31-3.304-2.393-.672-4.917-.686-7.13.677-2.51 1.547-4.218 3.803-4.693 6.765-.33 2.06-.2 4.145.498 6.147.52 1.487 1.486 2.58 2.88 3.344 1.632.89 3.373 1.037 5.19 1.08 2.436.057 4.125-1.036 5.403-2.985 1.403-2.133 1.835-4.51 1.788-7.008 0-.66.075-1.33-.018-1.977-.13-.927-.265-1.882-.608-2.74zm-4.532 9.118c-.81 1.338-2.603 1.78-3.954.947-.156-.094-.317-.224-.408-.376-.338-.567-.693-1.128-.962-1.728-1.095-2.443.798-7.157 4.412-6.942.907.054 1.42.4 1.664 1.234.078.27.163.544.206.82.053.374.073.748.114 1.225-.277 1.555-.15 3.294-1.072 4.815zm79.407 26.578c-1.8-1.21-3.616-2.397-5.453-3.552-.794-.5-1.632-.94-2.48-1.344-.78-.37-1.472-.12-2.06.463-.694.69-.83 1.47-.308 2.304.347.555.774 1.067 1.225 1.538.385.405.862.728 1.29 1.096.067.058.144.21.118.24-.097.12-.228.295-.35.298-2.64.046-5.282.098-7.925.09-1.264 0-2.42.282-3.51.912-.975.56-1.178 1.744-.426 2.614.596.695 1.37.97 2.26.974 1.602.002 3.21 0 4.813 0v.05c1.414 0 2.83-.016 4.245.006.463.007.925.11 1.387.166-.205.384-.388.782-.62 1.15-.298.478-.682.91-.948 1.403-.482.902-.29 1.966.402 2.598.872.797 1.925.94 2.836.284.527-.38.98-.87 1.408-1.368.862-1 1.72-2.01 2.5-3.072.64-.87 1.38-1.43 2.44-1.778 1.604-.523 2.028-2.43.895-3.652-.505-.544-1.124-1.003-1.747-1.42zm8.778-44.203c.6-.067 1.14-.328 1.355-.885.303-.78.527-1.6.69-2.42.34-1.725.176-3.594 1.547-5.01.17-.175.195-.523.227-.8.207-1.713-1.18-2.912-2.83-2.45-.363.1-.743.187-1.064.37-2.607 1.482-5.415 2.11-8.398 2.116-.54 0-1.125.18-1.61.43-1.166.61-1.286 2.273-.26 3.094.214.17.505.245.758.365.168.08.49.2.48.23-.064.25-.156.513-.313.71-.23.296-.523.545-.787.814-2.114 2.155-4.205 4.334-6.35 6.46-1.153 1.14-2.02 2.48-2.874 3.836-.254.403-.092.915.424 1.155.315.146.766.288 1.043.17.688-.29 1.337-.69 1.95-1.12 3.24-2.287 6.314-4.767 9.125-7.58 1.528-1.532 3.225-2.892 4.858-4.317.1-.085.39-.126.448-.06.11.12.176.35.143.51-.175.824-.384 1.638-.496 2.086 0 1.604.832 2.427 1.936 2.3zM36.475 60.778c-2.076 0-4.15-.003-6.226.002-.77.002-1.506.14-2.157.58-.59.394-.944.96-.924 1.652.02.704.452 1.312 1.09 1.525.97.33 1.996.584 3.014.66 1.69.132 3.392.115 5.09.13 2.17.022 4.34.004 6.51.018.56.003.71.184.576.853-.177.885-.183 1.688.605 2.304.94.736 1.89.672 2.893.113 2.072-1.154 3.968-2.544 5.662-4.203 1.2-1.173 1.274-2.208-.027-3.703-.354-.407-.893-.76-1.408-.896-1.66-.437-3.147-1.25-4.693-1.94-.675-.303-1.423-.468-2.155-.607-.516-.1-1.103.39-1.255.946-.072.267-.128.55-.122.825.036 1.674.043 1.684-1.385 1.693-1.7.01-3.397.003-5.094.003v.043zm-13.13-6.052c.42.32.892.306 1.327.064.574-.315 1.16-.63 1.664-1.04 1.312-1.073 2.578-2.205 3.875-3.297.578-.484 1.17-.956 1.8-1.365.16-.107.553-.047.723.085.29.224.456.602.732.853 1.12 1.018 2.638.776 3.322-.54.213-.41.34-.872.474-1.322.273-.898.51-1.81.785-2.71.36-1.167.75-2.324 1.116-3.49.556-1.772-.445-3.043-2.287-2.833-.64.074-1.27.325-1.877.56-1.248.487-2.523.765-3.598.62-.646-.04-1.024-.07-1.4-.08-.376-.01-.754-.014-1.13.018-1.01.087-1.675.612-1.858 1.45-.202.924.084 1.69.845 2.232.454.323.99.537 1.476.817.41.235.418.523.017.87-.64.554-1.312 1.074-1.944 1.64-1.123 1.006-2.225 2.034-3.332 3.06-.79.732-1.215 1.663-1.436 2.7-.157.736.154 1.283.715 1.714z"/></svg>