<svg xmlns="http://www.w3.org/2000/svg" width="128" height="128" viewBox="0 0 128 128"><path d="M123.58 97.347c-.312-.69-.662-1.36-1.014-2.027-.946-1.792-1.582-1.824-2.974-.166-.896 1.07-1.888 1.067-2.61-.015-.12-.18-.177-.4-.293-.578-.99-1.557-1.46-1.6-2.62-.3-.643.727-1.32 1.418-2.018 2.09-.422.405-1.09.12-1.195-.478-.15-.843-.192-1.717-.445-2.528-.286-.917-1.864-1.152-2.435-.387-.45.596-.762 1.3-1.21 1.9-.22.293-.607.456-.92.68-.15-.28-.337-.544-.443-.84-.147-.402-.224-.83-.344-1.244-.17-.585-.564-.9-1.172-.907-.58-.01-1.062.215-1.333.74-.197.38-.252.847-.49 1.188-.225.324-.577.714-.924.77-2.124.34-4.27.57-6.4.885-.606.09-1.112-.013-1.385-.533-1.348-2.577-2.8-5.116-3.918-7.794-.542-1.294-1.237-2.208-2.4-2.875-1.148-.656-2.353-.924-3.7-.942-3.013-.038-6 .398-9.01.31-.534-.02-1.072.116-1.61.157-1.504.122-3.006.296-4.512.33-2.916.07-5.835.04-8.75.076-.972.01-1.982-.07-2.905.16-1.814.46-3.642.42-5.473.47-1.08.03-2.158.114-3.232.207-1.394.12-2.782.332-4.178.398-5.615.26-11.23.32-16.847-.067-1.935-.13-3.913.155-5.824-.106-1.44-.198-2.782.073-4.168.16-.947.06-1.564.512-1.963 1.42-1.83 4.144-3.733 8.257-5.56 12.404-.87 1.973-1.654 3.983-2.433 5.995-.232.595-.398 1.244-.452 1.875-.176 2.09.98 3.435 3.045 3.804 2.353.42 4.717.52 7.096.504 2.16-.017 4.324-.017 6.485.01 3.89.05 7.78.092 11.667.202 4.1.12 8.196.348 12.295.47 3.24.098 6.505-.118 9.717.212 4.864.497 9.71.404 14.565.24 3.124-.104 6.244-.396 9.37-.604l.005.096c1.297 0 2.598.075 3.89-.02 1.39-.103 2.768-.377 4.154-.56.426-.053.86-.06 1.292-.09 2.25-.157 4.506-.296 6.755-.48 1.496-.125 2.43-1.57 1.946-3.042-.335-1.024-.785-2.007-1.194-3.006-.656-1.6-1.327-3.19-1.97-4.79-.256-.628-.06-.995.67-1.146 1.475-.3 2.98-.482 4.44-.845.842-.212 1.322-.084 1.927.605 1.144 1.31 2.464 1.624 3.71.725 1.134-.816 1.852-.984 3.074-.103 1.394 1.004 2.864.68 4.137-.447.322-.285.58-.64.87-.96.443-.49.88-.437 1.37-.032.822.684 1.85.824 2.757.453 1.132-.463 1.988-.34 2.92.417.586.476 1.233.102 1.766-.305.55-.422.704-1.06.397-1.736zm-110.855 9.498c-.126.434-.547.653-1.024.567-.175-.035-.347-.18-.49-.313-.042-.04.005-.21.048-.304.79-1.757 1.59-3.507 2.393-5.257.044-.094.148-.155.223-.23.053.09.104.18.158.27.016.102.06.22.036.31-.437 1.65-.855 3.313-1.34 4.952zm5.61-8.704c-.04-.204-.156-.43-.108-.617.546-2.073.53-4.205.734-6.318.047-.448.496-.644 1.133-.523.107.122.313.325.482.558.05.068.037.216.008.31-.63 2.028-1.26 4.052-1.905 6.068-.06.192-.227.352-.343.523zm6.264-3.843c-1.133 3.94-2.256 7.883-3.413 11.81-.115.39-.397.75-.666 1.072-.106.13-.383.116-.586.17-.15-.14-.405-.26-.424-.416-.04-.303-.002-.645.094-.942 1.28-4.013 2.23-8.106 3.078-12.226.13-.63.352-1.248.565-1.856.064-.192.213-.453.37-.49.39-.097.836-.175 1.21-.074.187.05.407.533.365.776-.134.736-.387 1.454-.595 2.176zm5.144-1.824c-.76 1.963-1.55 3.915-2.34 5.862-.022.05-.135.062-.236.08.004.024.003.048.008.07-.03.012-.05.027-.078.04-.032.46-.062.927-.11 1.39-.008.088-.095.173-.148.258-.06-.07-.15-.132-.17-.21-.133-.57-.236-1.14.428-1.44l.008-.095c.018-.006.043-.01.064-.014-.384-2.25.603-4.346.776-6.535.03-.38.923-.675 1.363-.46.432.21.604.61.435 1.05zm3.613 2.472c-1.04 3.27-1.755 6.615-2.394 9.984-.14.72-.485 1.396-.75 2.09-.018.05-.14.06-.215.085-.05-.09-.157-.194-.143-.277.168-.942.36-1.877.533-2.818.693-3.794 1.38-7.585 2.084-11.376.035-.196.157-.467.313-.535.277-.117.614-.153.913-.117.123.017.33.33.3.47-.18.836-.383 1.67-.644 2.49zm2.496 12.288c-.25.144-.604.29-.85.218-.217-.066-.4-.41-.49-.67-.057-.17.088-.406.127-.62.758-3.895 1.512-7.79 2.268-11.687.064-.32.117-.636.196-.947.427-1.728.813-2.013 2.717-2.027.65-.01.95.42.685 1.052-1.91 4.57-3.396 9.273-4.357 14.137-.04.196-.136.46-.288.543zM44.5 93.25c-1.297 4.116-2.356 8.29-3.223 12.52-.102.5-.46.95-.71 1.41-.018.03-.144.005-.22.005-.06-.206-.197-.424-.16-.602.384-1.79.815-3.567 1.2-5.355.612-2.844 1.197-5.696 1.794-8.544.067-.31.06-.693.246-.907.17-.195.553-.26.843-.263.127 0 .362.293.367.46.013.426-.008.876-.134 1.275zm5.377 2.113c-1.26 3.77-2.046 7.648-2.677 11.563-.074.464-.426.69-.93.655-.182-.1-.487-.17-.515-.306-.062-.286-.01-.608.046-.907.6-3.153 1.203-6.308 1.81-9.458.324-1.68.624-3.367 1-5.04.15-.675 1.696-.927 2.2-.394.124.13.237.39.19.54-.353 1.123-.748 2.23-1.12 3.35zm6.92-3.136c-1.293 4.213-2.423 8.467-3.25 12.8-.138.728-.39 1.44-.642 2.14-.043.126-.363.252-.512.214-.156-.037-.284-.266-.384-.432-.05-.08-.01-.21-.01-.176.88-4.675 1.73-9.215 2.594-13.75.08-.42.224-.836.395-1.228.242-.576.8-.656 1.33-.75.32-.054.64.25.586.554-.036.21-.045.427-.107.63zm6.57-.41c-.422 1.883-.87 3.76-1.358 5.632-.788 3.015-1.514 6.036-1.823 9.15-.096.956-1.387 1.437-2.2.785-.275-.22-.34-.7-.464-.965.47-2.05.956-3.922 1.32-5.82.543-2.846.996-5.71 1.495-8.565.202-1.173 1.698-1.763 2.764-1.047.192.128.317.576.26.83zm7.854-.122c-.106.414-.26.815-.372 1.227-1.01 3.724-2.02 7.446-3.01 11.172-.193.725-.32 1.465-.456 2.2-.277 1.5-.624 1.792-2.12 1.745-.818-.026-1.18-.463-1.013-1.238 1.073-4.914 2.15-9.832 3.226-14.75.203-.914.587-1.252 1.547-1.31.533-.033 1.073-.016 1.61.005.365.01.696.546.59.95zm2.313 12.76c-.192.837-.256 1.707-.478 2.533-.115.43-.542.62-1.02.62-.45-.003-.86-.385-.796-.774.03-.21.03-.432.09-.634 1.558-5.025 3.116-10.05 4.694-15.068.046-.145.313-.224.477-.335l.123.324c-1.056 4.557-2.084 8.946-3.09 13.337zm9.444-13.29c-.32 1.13-.693 2.25-1.035 3.38-.803 2.67-1.54 5.366-1.643 8.172-.037 1.062.095 2.133.22 3.192.11.922.054 1.044-.9 1.096-.214.01-.43.003-.645.003-.977-.005-1.34-.417-1.15-1.41.862-4.524 1.736-9.044 2.63-13.567.1-.512.34-1.01.556-1.496.16-.36.937-.565 1.445-.388.474.164.65.564.523 1.015zm4.44 5.2c-1.212 3.133-1.803 6.418-2.417 9.695-.037.2-.106.433-.242.564-.125.123-.36.157-.552.175-.067.004-.216-.14-.213-.215 0-.196.055-.392.107-.58.23-.832.638-1.653.672-2.49.128-3.035.966-5.95 1.425-8.923.15-.958.275-1.088.533-.838.3.284.512.66.713 1.026.098.18.08.42.124.698-.038.256-.034.595-.147.888zM91 106.222c-.106.006-.215 0-.32 0-.83 0-1.26-.4-1.13-1.137.164-.95.376-1.886.6-2.82.03-.128.25-.235.4-.3.06-.026.233.065.27.142.426.968.88 1.927 1.236 2.923.245.672-.208 1.126-1.056 1.195zM24.97 80.297c1.178.123 2.36.237 3.54.318.417.03.84-.017 1.257-.073 1.81-.244 3.624-.735 5.43-.7 1.93.035 3.843-.355 5.77-.11.322.04.66-.002.966.088 1.485.43 3.003.326 4.51.334 1.623.008 3.245.002 4.866.002l.002.143c2.7-.067 5.403-.113 8.102-.214 1.83-.064 3.658-.226 5.49-.31 3.987-.178 7.983-.027 11.96-.66 1.664-.267 3.086-.888 4.53-1.602.772-.384 1.084-1.035.99-1.865-.07-.635-.15-1.277-.327-1.89-.203-.71-.516-1.387-.782-2.08.733-.672 1.634-.35 2.466-.42.754-.065 1.52-.042 2.26-.155.41-.06.81-.286 1.17-.504.144-.087.245-.372.23-.554-.015-.18-.167-.443-.323-.5-.498-.176-1.024-.377-1.54-.385-1.51-.03-3.027-.017-4.533.074-.902.053-1.452-.323-1.797-1.067-.815-1.762-1.62-3.533-2.384-5.318-.39-.908-1.03-1.38-1.99-1.37-2.807.036-5.66-.19-8.406.236-2.576.395-5.173.29-7.728.76-.867.16-1.798.02-2.38-.692-.868-1.056-1.486-.805-2.352.03-.384.373-1.195.414-1.813.418-3.782.02-7.566-.03-11.35-.03-2.375 0-4.748-.06-7.113.35-1.374.24-2.78.172-4.19-.102-1.15-.22-2.36-.18-3.546-.2-.58-.01-1.002.343-1.253.868-.186.39-.373.78-.523 1.182-1.32 3.543-2.674 7.07-4.488 10.4-.203.376-.282.818-.464 1.21-.33.694-.056 1.218.378 1.757 1.388 1.714 3.26 2.417 5.37 2.635zm46.343-7.28c.23-1.98.465-4.103.727-6.224.02-.186.233-.5.334-.49.284.022.61.122.81.308.226.208.354.534.49.82.81 1.748 1.615 3.488 2.73 5.075.56.8.087 1.775-.84 1.978-.73.16-1.464.302-2.202.422-1.78.29-2.128-.008-2.046-1.89zm-7.66-.764c.15-1.822.33-3.642.484-5.46.145-1.716.39-1.953 2.21-2.017.213-.006.43-.006.645-.006 1.424 0 1.53.148 1.22 1.71-.227 1.16-.444 2.323-.76 3.983-.065.78-.15 2.074-.295 3.356-.105.9-.544 1.243-1.53 1.3-.32.02-.646.02-.97.005-.636-.02-1.05-.38-1.055-.94-.003-.643-.003-1.294.048-1.934zm-8.182-.676c.37-1.68.553-3.4.832-5.097.1-.62.507-.897 1.12-.923.643-.03 1.287-.08 1.934-.12 0-.026 0-.054-.002-.078.538 0 1.077-.034 1.608.02.14.015.27.287.37.463.045.08.026.216-.003.317-.727 2.493-1.077 5.046-1.303 7.628-.083.942-.555 1.36-1.472 1.36-3.524-.002-4.016.673-3.085-3.572zm-7.31.043c.352-1.577.725-3.148 1.09-4.723.224-.97.518-1.253 1.504-1.37.428-.05.863-.052 1.295-.056.553-.006.725.21.653.82-.105.855-.213 1.713-.333 2.565-.237 1.707-.495 3.41-.718 5.12-.18 1.373-.45 1.648-1.83 1.71-.216.012-.43.003-1.02.003.046.004-.277-.008-.6-.035-.483-.037-.79-.4-.7-.864.21-1.063.42-2.118.656-3.17zm-8.83 2.76c.044-.32.083-.643.124-.963l-.097-.02c.478-2.203.928-4.414 1.46-6.604.08-.33.497-.663.837-.82.373-.17.848-.104 1.266-.2 2.55-.578 2.837.164 2.103 2.458-.655 2.04-1 4.18-1.507 6.265-.23.945-.425 1.096-1.262 1.17-.532.052-1.073.076-1.61.092-1.362.03-1.475-.092-1.312-1.376zm-6.52-4.846c.08-.42.112-.853.187-1.274.39-2.206.44-2.244 2.976-2.236.144.008.6-.036.99.103.22.08.5.51.456.72-.54 2.626-1.12 5.246-1.72 7.86-.208.9-.38.996-1.375.993-.537-.005-1.076-.027-1.61-.068-.645-.048-1.02-.478-.907-1.047.325-1.688.672-3.366 1.003-5.052zm-7.81 5.255l.112-.3c.018.004.035.013.052.02 1.088-2.69 2.157-5.385 3.264-8.064.34-.816.885-.928 1.867-.53.473.19.668.512.54.99-.605 2.282-1.215 4.56-1.847 6.833-.386 1.39-.823 1.74-2.25 1.872-.428.04-.86.027-1.292.025-.563 0-.69-.243-.448-.848zm4.277-16.14c.718.177 1.485.21 2.232.217 2.48.02 4.962.008 7.44.008v-.18c2.913 0 5.843.202 8.734-.044 5.476-.46 10.95-.895 16.44-1.105.645-.027 1.298.01 1.94-.05 1.713-.16 3.437-.295 5.135-.565 1.605-.255 2.38-1.706 1.61-3.117-1.898-3.485-3.37-7.226-6.03-10.278-.484-.555-.792-1.278-1.113-1.956-.84-1.78-1.136-2.04-2.847-1.83-1.728.213-3.42.23-5.14-.115-.933-.184-1.964-.224-2.892-.037-2.143.436-4.29.303-6.442.347-3.67.072-7.332.17-11 .224-.974.015-1.643.422-2.076 1.26-.545 1.055-1.087 2.11-1.62 3.167-1.403 2.792-2.8 5.586-4.198 8.384-.384.77-.76 1.545-1.134 2.323-.14.29-.296.58-.398.882-.395 1.156.122 2.163 1.36 2.466zm5.115-4.998c.775-1.777 1.63-3.518 2.447-5.277.544-1.17 1.056-2.36 1.616-3.52.295-.612.738-.992 1.51-.97 3.233.082 6.45-.022 9.67-.438 1.908-.248 3.873-.043 5.814-.043v.005c1.83 0 3.664.024 5.496-.01.875-.02 1.42.382 1.795 1.11 1.137 2.2 2.287 4.395 3.403 6.606.336.666.58 1.38.864 2.07-.7.68-1.586.34-2.39.402-.618.048-.956-.337-1.066-.956-.053-.31-.162-.638-.334-.898-.62-.932-2.21-.848-2.714.154-.185.373-.225.817-.306 1.234-.117.612-.544.894-1.09 1.043-.206.056-.423.1-.637.1-6.244.073-12.448 1.113-18.714.705-1.502-.1-3.016-.005-4.523-.064-.95-.036-1.195-.45-.843-1.257zm8.24-18.226c1.83.017 3.66.002 5.49.002 2.69.05 5.392.298 8.052-.34.62-.15 1.3-.235 1.924-.155 1.805.24 2.787-.885 3.707-2.112.16-.207.175-.632.085-.9-.243-.712-.562-1.4-.875-2.084-1.166-2.545-2.55-5.018-3.456-7.652-.983-2.864-3.06-4.904-4.712-7.27-.464-.667-1.26-.724-2.04-.314-.287.152-.588.29-.833.49-1.936 1.57-3.61 3.355-5.01 5.443-2.43 3.634-3.887 7.67-5.162 11.794-.092.29-.176.645-.09.914.362 1.11 1.788 2.17 2.92 2.18zm3.82-8.568c.457-1.196 1.164-2.3 1.795-3.425.368-.658.787-1.29 1.232-1.9.67-.91.68-2.277 1.922-2.788.444.966.907 1.93 1.33 2.91.773 1.777 1.505 3.57 2.29 5.343 1.34 3.024 2.117 2.586-1.96 3.202-1.157.175-2.367.024-3.55.024v.096c-.218 0-.433 0-.65.003-4.33.08-3.815.22-2.412-3.467zm46.177 1.596c.384-.183.827-.35 1.1-.653.75-.84 1.652-.867 2.66-.717 1.608.242 2.98-.238 4.084-1.455.147-.162.318-.3.46-.46.335-.38.716-.41 1.14-.177 1.55.85 3.08.81 4.647.01 2.352-1.205 2.38-1.21 5.478-1.176 1.42.014 2.49-.58 3.328-1.675.612-.797.642-1.85.09-2.72-.388-.614-1.052-.656-2.3-.144-1.132.466-1.31.402-1.603-.597-.152-.513-.21-1.06-.433-1.54-.352-.755-1.632-1.01-2.248-.436-.464.432-.796.997-1.213 1.48-.84.974-1.678 1.954-2.563 2.887-.365.383-1.18.11-1.305-.4-.1-.417-.065-.868-.19-1.276-.39-1.26-1.667-1.572-2.486-.625-.28.32-.49.703-.747 1.044-.384.514-.75 1.045-1.184 1.515-.578.626-.976.59-1.506-.073-.133-.165-.2-.39-.344-.544-.957-1.02-2.044-1.082-3.12-.168-.242.207-.404.503-.64.725-.64.617-.767.592-1.063-.16-.076-.202-.087-.425-.164-.625-.078-.198-.192-.384-.306-.567-.456-.736-1.443-.734-1.87-.02-.944 1.56-.81 3.323-.998 5.3.027.377.01 1.032.13 1.664.292 1.564 1.717 2.26 3.165 1.58zm-2.07 21.298c.696-.176 1.36-.84 2-.79.662.054 1.258.748 1.922 1.078.96.477 1.946.258 2.776-.27 1.13-.718 2.064-.757 3.235.003 1.54 1.007 3.14.47 4.545-.444 1.875-1.22 2.436-1.483 4.7-1.408 2.374.08 3.727-1.392 4.923-3.115.165-.242.163-.62.18-.934.064-1.063-.917-1.892-1.886-1.563-.71.242-1.392.574-2.08.874-.478.21-.836-.008-1.13-.34-.21-.24-.317-.58-.543-.795-.896-.855-2.073-.8-2.83.13-.27.33-.496.705-.69 1.084-.55 1.082-1.373 1.917-2.304 2.664-.448.357-.796.324-1.027-.152-.236-.483-.396-1.003-.656-1.472-.48-.87-1.337-1.123-2.187-.676-.76.4-1.5.832-2.268 1.214-.11.053-.428-.07-.483-.192-.227-.476-.32-1.028-.592-1.472-.516-.845-1.408-1.045-2.212-.533-.635.402-1.222.875-1.842 1.306-.895.62-.9.618-1.87-.08-.173-.127-.315-.3-.5-.404-1.164-.634-2.482-.05-2.75 1.246-.11.523-.123 1.065-.143 1.255 0 .56-.013.778 0 .994.143 2.23 1.573 3.34 3.712 2.79zm20.306 18.38c-.507.18-1.006.398-1.474.656-1.03.567-1.863.274-2.605-.515-.22-.235-.403-.512-.638-.725-1.064-.996-1.995-1.178-3.225-.557-.864.435-1.678.97-2.528 1.44-.546.3-.83.18-1.277-.48-.3-.437-.56-.915-.917-1.31-.445-.49-1.2-.554-1.778-.196-.363.224-.772.446-1.018.775-.595.797-1.15.534-1.945.266-1.604-.544-2.733.352-2.86 2.045-.02.32-.01.65.02.97.112 1.215.835 1.933 2.077 2.082.984.12 1.92.013 2.835-.427.356-.168.896-.307 1.205-.158 2.165 1.037 4.192.712 6.147-.5.668-.414 1.195-.268 1.728.234 1.074 1.008 2.35 1.5 3.787 1.42 2.233-.032 3.682-1.1 4.37-3.21.18-.56-.003-1.06-.42-1.468-.428-.414-.945-.525-1.488-.334zm-46.567-42.45c1.51.006 3.02 0 4.305 0 3.473.284 6.67-.26 9.88-.61.943-.108 1.87-.47 2.77-.82.367-.143.66-.528.94-.846.31-.352.153-1.262-.258-1.425-.593-.24-1.21-.557-1.823-.575-1.72-.048-3.446.003-5.168.082-1.717.082-3.43.288-5.147.357-1.828.07-3.663.048-5.495.06-.91.003-1.675.308-2.283 1.002-.45.512-.454 1.265-.003 1.757.615.683 1.376 1.018 2.285 1.022zm49.397 41.41c-.18.827-.267 1.68-.36 2.3.07.762.082 1.3.17 1.823.176 1.05 1.178 1.61 2.164 1.237.79-.298 1.6-.55 2.357-.912 1.053-.504 2.094-1.042 3.086-1.656.643-.397.752-1.26.412-2.012-.334-.734-.84-1.29-1.704-1.187-.942.11-1.643-.213-2.288-.864-.194-.192-.612-.317-.875-.25-.815.2-1.624.466-2.4.796-.252.107-.5.448-.562.725zM77.58 44.27l-.02.157c-.743.066-1.488.117-2.23.198-.205.025-.404.13-.6.203-.89.328-1.126 1.472-.366 2.04.494.372 1.09.773 1.67.822 1.268.105 2.557.032 3.83-.05.4-.026.808-.268 1.17-.48.503-.3.667-.8.61-1.37-.058-.59-.37-1.05-.94-1.15-1.03-.177-2.082-.25-3.126-.37zm-37.444 9.967c.875-.336 1.244-1.106 1.24-2.045.044-1.013-.2-1.924-1.127-2.47-.34-.2-.823-.358-1.184-.278-1.1.248-1.936.9-2.22 2.048-.21.862-.133 1.7.594 2.34.807.713 1.763.77 2.694.406zm17.586-4.452c1.02-.038 1.628-.597 2.094-1.36.516-.85.176-2.02-.71-2.453-1.403-.687-3.23.47-3.204 2.034.015.945.968 1.842 1.82 1.778zm-5.92 3.25c1.14.218 2.22-.547 2.357-1.67.112-.938-.99-2.11-2.02-2.143-.887-.03-1.91.853-2.053 1.76-.125.817.757 1.874 1.715 2.054zm-7.132-3.96c.627.337 1.498.187 2.07-.342.607-.565.735-1.266.55-2.043-.18-.75-.832-1.3-1.828-1.39-.264.15-.847.288-1.127.66-.62.822-.6 1.786-.133 2.705.09.17.288.313.47.408z"/></svg>