<svg xmlns="http://www.w3.org/2000/svg" width="128" height="128" viewBox="0 0 128 128"><path d="M115.19 76.544c-.337-.41-.737-.864-1.208-1.045-1.077-.416-1.5-1.256-1.542-2.248-.163-3.874-.934-7.71-.72-11.605.11-1.933.246-3.866.318-5.803.235-6.254-.3-12.49-.463-18.737-.11-4.2-.613-8.37-1.155-12.533-.09-.693.053-.9.8-1.114.103-.027.213-.03.32-.042 1.767-.203 2.6-1.39 3.04-2.938.26-.91-.59-3.547-1.372-4.155-.403-.31-.95-.536-1.453-.595-.853-.1-1.725-.006-2.586-.053-1.506-.083-3.015-.152-4.51-.333-3.74-.45-7.466-1.05-11.252-.967-2.59.056-5.18.01-7.766.075-4.843.115-9.704-.235-14.528.465-.21.03-.43.015-.645.01-.61-.01-.946-.333-1-1.002-.036-.43 0-.864-.044-1.293-.19-1.867-1.214-3.014-2.997-3.253-1.62-.218-3.247-.094-4.77.53-.455.188-.884.63-1.145 1.068-.5.842-.675 1.744-.448 2.78.347 1.58.18 1.757-1.24 1.814-2.26.088-4.526.122-6.79.184-.86.02-1.75-.064-2.58.113-2.77.592-5.57.52-8.372.56-1.51.02-3.037-.098-4.523.096-4.62.597-9.237.695-13.877.38-.86-.058-1.723-.08-2.584-.098-1.586-.03-2.986.214-3.705 1.95-.224.545-.903.886-1.312 1.37-1.21 1.428-.757 3.308.995 3.92.8.28 1.674.38 2.523.465.856.085 1.725.047 2.588.064.875.015 1.18.564 1.175 1.21-.032 7.002-.114 14.004.403 21.002.267 3.65.177 7.327.252 10.994.014.645-.053 1.316.09 1.934.48 2.023.37 4.073.398 6.118.032 2.475-.064 4.96.51 7.403.12.514.08 1.075.05 1.61-.022.458-.255.833-.756.89-.75.084-1.552-.026-2.243.206-2.145.72-2.796 1.402-2.86 3.38-.043 1.26.93 2.243 2.214 2.29.754.025 1.51-.024 2.266-.054 6.03-.22 12.06-.445 18.09-.665.97-.036 1.94-.03 2.912-.08 3.44-.177 6.882-.37 10.323-.557l.01.122c2.587 0 5.177-.014 7.764.006.984.007 1.184.15 1.344 1.03.215 1.163.478 2.336.506 3.51.08 3.23-.03 6.467.09 9.7.06 1.623-.646 2.63-1.888 3.473-2.765 1.87-5.483 3.808-8.274 5.637-1.28.84-2.373 1.845-3.413 2.946-1.256 1.33-2.55 2.627-3.873 3.888-1.247 1.187-2.57 2.29-3.825 3.468-1.072 1.007-1.003 2.765.077 3.74.916.827 2.554.928 3.434-.194 2.67-3.405 5.915-6.27 8.98-9.296 2.156-2.13 4.603-3.904 7.205-5.45 1.117-.667 1.45-.464 1.473.927.026 1.51-.032 3.024.053 4.53.042.73.237 1.486.532 2.158.587 1.335 2.287 1.4 3.13.19.64-.925.876-1.946.877-3.054.004-1.724.03-3.45.07-5.174.01-.478.527-.725.916-.445 3.07 2.196 6.147 4.374 9.188 6.6 3.91 2.866 7.79 5.774 11.68 8.66.26.194.5.456.79.557.95.32 1.904.39 2.76-.288.916-.734 1.224-1.8.837-2.89-.33-.94-.903-1.658-1.7-2.29-4.554-3.637-9.343-6.927-14.27-10.03-.822-.514-1.652-1.02-2.447-1.572-.218-.153-.322-.467-.478-.708.31-.054.636-.193.933-.15 3.934.576 7.865 1.184 11.8 1.762.634.096 1.283.142 1.926.125.925-.023 1.73-.7 1.872-1.496.153-.86-.317-1.453-.93-1.924-.328-.252-.75-.418-1.158-.518-.937-.235-1.885-.454-2.838-.597-2.765-.41-5.532-.83-8.306-1.15-2.564-.297-5.14-.65-7.712-.655-3.144 0-2.97.117-3.023-2.936-.063-3.764.403-7.54-.276-11.295-.033-.18.322-.603.536-.632.633-.085 1.288-.062 1.932-.02 2.795.163 5.584.4 8.382.516 2.91.12 5.822.106 8.732.196 4.416.14 8.83.29 13.244.484 2.138.093 4.31-.36 6.416.378.192.064.437.058.637.004 2.182-.585 4.383-1.112 6.53-1.805 1.496-.48 1.957-2.517.94-3.757zm-9.867-.85c-1.72-.158-3.387-.097-5.1.106-1.37.16-2.792-.045-4.19-.128-1.82-.107-3.642-.356-5.464-.365-7.973-.038-15.947-.007-23.92-.02-1.074 0-2.195.055-3.215-.21-1.914-.502-3.84-.502-5.773-.45-5.49.15-10.976.357-16.463.518-2.8.083-5.603.125-8.403.168-1.384.02-1.69-.207-1.84-1.616-.16-1.498-.226-3.008-.272-4.512-.06-1.937-.147-3.853-.508-5.778-.31-1.68-.288-3.432-.307-5.152-.04-3.556-.012-7.112-.012-10.67h-.027c0-4.2.04-8.404-.013-12.604-.03-2.363-.216-4.727-.323-7.09-.03-.644-.032-1.292-.017-1.94.02-.934.203-1.222 1.02-1.374.95-.18 1.91-.352 2.87-.38 3.017-.09 6.033-.098 9.05-.16 1.388-.026 2.742-.09 4.14-.404 1.53-.34 3.217-.157 4.814.012 3.335.352 6.646.445 9.974-.08.952-.15 1.93-.155 2.9-.163 3.34-.027 6.68-.023 10.02-.035l29.412-.1c.644 0 1.29-.016 1.933.022.493.032.78.38.79.845.046 1.938.067 3.877.077 5.817.03 6.463-.018 12.93.1 19.393.08 4.413.314 8.822.613 13.225.225 3.32.656 6.628 1.012 9.94.235 2.17-.75 3.385-2.88 3.19zm-22.73-39.297c-2.043-2.52-4.412-4.725-6.973-6.716-1.493-1.16-3.21-1.734-5.094-1.794-1.29-.043-2.547-.256-3.822-.478-2.99-.518-6.03-.557-8.922.6-3.805 1.528-7.52 3.244-10.697 5.92-.49.415-1.038.77-1.587 1.106-2.467 1.5-3.91 3.78-4.333 6.528-.542 3.532-.512 7.097.734 10.54.475 1.315.987 2.62 1.424 3.947.757 2.3 2.042 4.26 3.72 5.983 3.532 3.622 7.715 6.22 12.527 7.728 2.143.673 4.348 1.316 6.704.945 3.342.25 6.37-.816 9.072-2.72 4.523-3.182 7.24-7.605 8.363-12.992.642-3.076.712-6.205.5-9.33-.06-.872-.18-1.706.272-2.506.715-1.253.508-2.523-.08-3.72-.524-1.055-1.076-2.128-1.81-3.036zm-23.668-4.192c.494-.126 1-.238 1.507-.277.156-.014.328.208.494.324-.17.23-.31.508-.528.672-.142.107-.408.043-.768.064-.157-.058-.463-.13-.715-.29-.077-.05-.04-.48.01-.49zm-.72 4.435c.372-.325.81-.576 1.04-.734.755.046 1.153.267 1.167.75.014.395-.053.94-.307 1.166-.4.352-1.714-.096-1.955-.59-.078-.16-.056-.496.053-.592zm-.306 5.096c.027-.512.467-.757 1.207-.747.722.006 1.145.27 1.163.8.03.854.01 1.708.01 2.56h.002c0 .746.014 1.492-.005 2.24-.01.43-.494.744-.896.592-.395-.153-.817-.288-1.155-.53-.23-.164-.47-.504-.467-.766.003-1.383.066-2.77.144-4.15zm-3.864-5.828c.742-.14 1.41.16 1.574.78-.097.193-.177.615-.375.68-.465.15-.994.2-1.48.143-.167-.017-.387-.464-.403-.73-.026-.43.203-.782.685-.873zm-1.124 5.585c.028-.38.74-.674 1.355-.617.456.043.802.24.932.71.03.103.037.213.042.32.003.323 0 .644 0 .3-.048 1.098-.056 1.528-.09 1.957-.03.413-.007.91-.547 1.006-.6.103-1.762-.617-1.776-1.11-.024-.854.017-1.714.082-2.567zm-3.1-4.333c.363-.343.736-.683 1.127-.992.024-.023.317.173.343.3.154.718-.19 1.103-.975 1.15-.185-.073-.374-.137-.548-.227-.02-.01-.002-.182.05-.23zm-2.234 3.16c.724.12 1.445.288 2.164.45 1.01.23 1.184.477 1.13 1.51-.028.208.012.484-.108.61-.187.195-.56.466-.718.397-1.053-.465-2.086-.984-3.09-1.555-.195-.11-.35-.533-.308-.772.082-.446.454-.717.93-.64zm-1.947 9.166l-.342-1.775c.125-.664.215-1.275.37-1.87.033-.117.358-.275.472-.23.478.2.962.418 1.373.723.343.256.496.655.136 1.06-.21.235-.38.516-.627.7-.53.4-.474 1.376-1.38 1.394zm2.94 6.052c-.288.54-.7.745-.968.475-.376-.38-.765-.78-.5-1.4.04-.1.088-.196.144-.288 1.06-1.75 2.11-3.51 3.194-5.243.65-1.04 1.33-1.126 2.31-.363.085.065.16.145.24.22-.054.08-.093.186-.167.235-1.824 1.175-2.62 3.087-3.526 4.917-.24.484-.47.97-.723 1.445zm2.533 5.106c-.228.13-.998-.896-.896-1.2.103-.3.238-.59.382-.874.79-1.533 1.573-3.065 2.38-4.587.705-1.327 1.487-2.618 1.82-4.11.018-.07.36-.147.5-.09.178.07.305.274.45.417-.05.203-.056.42-.153.59-1.666 2.903-3.12 5.89-3.85 9.188-.057.262-.374.516-.633.666zm4.053 2.735c-.025.414-.526.457-.94.12-.433-.357-.767-.756-.485-1.354 1.63-3.477 3.26-6.955 4.93-10.41.09-.193.545-.318.813-.29.535.05 1.056.685.94 1.415-.036.086-.16.494-.362.86-1.18 2.154-2.365 4.3-3.577 6.435-.58 1.022-1.237 1.992-1.317 3.224zm7.627 2.35c-1.163-.09-2.328-.17-3.488-.276-.578-.053-.678-.328-.355-.866.718-1.2 1.422-2.408 2.153-3.598.584-.95.702-2.18 1.722-2.867.1 1.067.206 2.13.3 3.196.022.213.005.43.005.97-.158.93.43 2.246-.337 3.44zm4.448.855c-.067-.072-.194-.146-.194-.22.002-.175.066-.348.11-.554.12.11.323.214.317.305-.01.162-.146.314-.23.47zm10.64-8.208c-.326.54-.675 1.195-1.19 1.47-.705.378-1.065-.538-1.523-.875-2.165-1.59-4.254-3.294-6.347-4.988-.41-.33-.718-.79-1.063-1.2-.184-.22.02-.696.31-.735.316-.044.634-.11.952-.108 3.245.028 6.422-.582 9.614-1.045.915-.133 1.43.03 1.38 1.167.007 2.32-.957 4.357-2.133 6.312zM79.66 46.7c-3.708.636-7.414 1.27-11.123 1.887-.528.09-1.078.03-1.614.085-2.285.237-2.788-.736-2.71-2.504.092-2.043.022-4.092.022-6.14h.164c0-2.367-.033-4.735.014-7.103.02-1.067.62-1.576 1.626-1.58.322-.003.653-.02.964.04 2.54.496 5.008 1.236 7.368 2.294 1.49.67 2.79 1.606 3.624 3.083.253.45.202.79-.18 1.11-.082.066-.156.152-.208.244-.742 1.284-.467 1.992 1.022 2.225.718.11 1.227.215 1.36 1.017.068.42.282.83.313 1.25.08 1.07.11 2.145.128 3.22.01.49-.3.786-.77.867zm-10.38-8.298c.045-.206.03-.425.045-.638-.056-.755-.625-1.515-1.27-1.698-.566-.16-1.39.442-1.648 1.222-.068.2-.114.412-.142.622-.134 1.013.322 1.74 1.22 1.96.715.175 1.583-.53 1.795-1.47zm5.263.893c.02-.576-.624-1.252-1.426-1.493-.102-.032-.204-.05-.308-.066-.733-.126-1.654.414-1.75 1.02-.144.896.66 2.07 1.45 2.114 1 .06 2.003-.717 2.03-1.574zm.84 2.773c-.865.053-1.39.518-1.47 1.312-.086.825.614 1.468 1.615 1.48.747.008 1.26-.604 1.227-1.472-.032-.86-.557-1.365-1.372-1.318zM69.39 44.18c-.222.117-.542.196-.725.398-.407.444-.355.97.02 1.402.174.2.484.33.75.373.15.02.4-.165.492-.324.277-.47.322-.99.016-1.463-.095-.154-.316-.23-.55-.386z"/></svg>