<svg xmlns="http://www.w3.org/2000/svg" width="128" height="128" viewBox="0 0 128 128"><path d="M41.298 86.278c1.01 1.55 2.3 2.82 3.802 3.88 1.312.924 2.66 1.798 3.97 2.725 5.835 4.122 12.358 5.14 19.28 4.213 4.19-.558 8.07-2.064 11.732-4.154 7.456-4.256 12.27-10.528 14.344-18.87.832-3.338 1.3-6.72 1.202-10.172-.13-2.342.06-4.688-.53-7.025-1.93-7.664-6-13.918-12.237-18.714-2.643-2.033-5.645-3.37-8.995-4.02-3.897-.76-7.66-.433-11.416.627-7.11 2.003-13.51 5.393-19.26 9.996-3.42 2.738-5.808 6.254-7.343 10.357-1.816 4.86-1.886 9.94-1.15 14.908.872 5.87 3.356 11.253 6.604 16.245zm-.384-15.856c-.282-1.022-.553-2.048-.747-3.088-.09-.472.26-.813.727-.843.74-.047 1.49-.012 2.236-.012l.006-.12c.736.074 1.475.13 2.206.24.09.015.243.374.19.45-.79 1.135-1.59 2.262-2.432 3.36-.18.232-.526.348-.81.48-.442.202-1.267-.06-1.377-.466zm10.3 2.952c1.39-2.107 1.71-1.677 3.11.24.11.15.148.418.106.605-.27 1.177-1.016 2.092-1.74 3.012-.05.066-.19.062-.287.09-.2-.066-.432-.085-.584-.206-.503-.4-.988-.82-1.45-1.267-.356-.345-.33-.737-.044-1.138.31-.434.59-.89.888-1.337zm-.516-6.398c.102-.115.205-.233.377-.422.184.17.4.318.526.52.04.063-.17.276-.262.423l-.64-.52zm11.155 5.883c.37.374.736.75 1.08 1.15.133.153.192.37.315.62-.267.41-.535.86-.848 1.28-.533.714-.942.797-1.568.287-.65-.53-1.262-1.112-1.888-1.675-.48-.43-.41-.888-.078-1.376 1.283-1.892 1.397-1.912 2.987-.288zm1.512-4.717c.357-.306.95-.216 1.08.166.377 1.095.724 2.2 1.053 3.204-.18.448-.235.794-.432 1-.18.19-.576.374-.78.3-.38-.14-.72-.435-1.02-.725-2.126-2.038-2.59-1.638.1-3.948zm-5.258 13.443c-.12.132-.373.145-.565.213-.19-.08-.414-.125-.568-.25-.493-.407-.974-.827-1.435-1.268-.624-.595-.676-.925-.237-1.675.378-.64.79-1.26 1.213-1.87.252-.367.764-.41 1.093-.132.08.067.16.14.24.208 2.293 2.1 2.32 2.517.256 4.77zm1.14-13.92c-.53.32-1.165.49-1.15 1.323.002.284-.207.602-.39.855-1.638 2.274-1.4 2.158-3.545.32-.184-.157-.277-.608-.195-.846.17-.5.5-.944.743-1.42.497-.97 1.264-1.42 2.36-1.288.212.023.428.003 1.002.003.066.008.497.032.907.135.17.044.376.234.43.4.047.146-.04.445-.163.517zm-9.38 2.54c-.63.982-1.278 1.95-1.97 2.89-.27.367-.703.445-1.11.127-.42-.324-.872-.62-1.215-1.01-.164-.186-.245-.658-.125-.848.804-1.246 1.664-2.453 2.528-3.66.096-.13.338-.155.63-.278.32.352.688.72 1.018 1.117.64.773.685.976.243 1.664zm-4.182 6.335c-.3.43-.608.854-.926 1.27-.06.075-.183.103-.274.154-.17-.08-.423-.114-.498-.248-.406-.732-.838-1.46-1.104-2.245-.1-.3.117-.82.36-1.09.3-.335.775-.237 1.137.03.42.31.844.63 1.217.994.327.323.362.74.086 1.137zm9.158 10.273c-.207.373-.397.76-.65 1.094-.278.363-.68.542-1.106.264-1.49-.967-3.04-1.882-3.8-3.617-.046.013-.094.02-.14.036 0-.05.01-.1.012-.148-1.51-.67-2.246-2.056-3.02-3.385-.118-.205-.038-.658.12-.868.51-.675 1.072-1.31 1.663-1.913.326-.333.757-.313 1.146-.032.17.122.335.252.5.386 1.852 1.5 1.632 1.16.727 3.043-.433.9-1.096 1.712-1.14 2.768.035.016.065.035.1.05l.03.06c.46-.12.96-.182 1.32-.44.774-.555 1.427-1.275 2.18-1.86.193-.15.577-.06.87-.047.09.003.18.103.264.17 2.95 2.43 2.54 1.526.92 4.438zm4.714 4.038c-.934-.22-1.86-.477-2.76-.8-.16-.06-.335-.607-.238-.78.47-.83 1.02-1.623 1.577-2.405.096-.134.363-.147.612-.24.93.64 2.02 1.178 2.51 2.32.28.656-1.01 2.07-1.705 1.906zm4.936-6.93c-.52.78-.892 1.888-1.623 2.24-.763.367-1.348-.787-2.005-1.28-.167-.126-.357-.277-.427-.46-.103-.273-.24-.652-.128-.866.33-.654.74-1.28 1.195-1.86.27-.344.72-.478 1.11-.143.56.48 1.09.997 1.612 1.52.142.14.207.36.306.545-.01.1.01.227-.04.305zm-.11-4.432c-.426-.438-.458-.937-.114-1.426.29-.42.633-.8.915-1.152.338.088.576.085.715.198.33.262.623.57.908.88.907.988.885 1.278-.14 2.328-.432.442-.895.47-1.375.053-.32-.277-.615-.578-.91-.88zm6.75 10.684c-.7.25-1.445.37-2.163.576-.576.16-1.05-.026-1.49-.352-.518-.378-1.03-.768-1.523-1.173-.643-.533-.72-.928-.282-1.656.33-.543.704-1.06 1.103-1.55.105-.13.43-.217.565-.15 1.435.7 2.84 1.455 3.89 2.7.2.236.283.57.45.922-.177.23-.315.596-.553.682zm-1.49-6.052c-.012.09-.102.203-.186.242-.055.027-.173-.043-.245-.092-.576-.384-.868-.885-.632-1.59.032-.093.11-.17.168-.257.08.013.192-.006.233.038.426.47.747.99.663 1.66zm-.333-12.54c.023-.092.085-.22.16-.245.27-.093.86.685.816 1.067-.14.11-.275.305-.418.31-.457.02-.715-.53-.558-1.132zm3.802 7.1l-.055.098c-.04.01-.08.02-.123.028-.17.288-.335.58-.542.84-.048.062-.39.01-.43-.072-.067-.144-.06-.48.007-.507.31-.12.64-.186.962-.26.02-.033.037-.065.058-.097.026-.02.072-.026.12-.03l.212-.368c.307.437-.006.36-.21.37zm-.832-3.613c.085-.032.203-.013.296.02.043.016.053.118.078.182-.096.027-.2.094-.286.08-.322-.065-.354-.18-.088-.286zm8.17 10.03c-.036.066-.193.13-.268.106-1.504-.463-2.394.477-3.285 1.423-.435.463-.87.93-1.325 1.376-.34.337-1.062.3-1.064-.037-.002-.288.026-.69.21-.853.714-.63 1.488-1.192 2.25-1.77.99-.748 1.97-1.497 2.504-2.666-.01-.004-.017-.01-.028-.016l-.66-.683c-.01-.026-.026-.046-.035-.072-.377.02-.803.126-1.05-.04-.59-.388-.977-1.035-1.716-1.28-.472-.16-.144-.54.06-.697.202-.16.628-.336.756-.24.81.604 1.576 1.27 1.95 2.256.038-.003.08-.008.117-.008l.667.672c-.017.038-.043.067-.06.107.757.28 1.137.907 1.323 1.63.056.22-.203.532-.344.788zm-5.964-7.353l.198-.053-.02.157-.178-.1zm14.708-8.853c-.402 4.597-2.014 8.727-4.755 12.43-.883 1.19-.956 1.22-1.874.196-2.002-2.234-3.957-4.512-5.977-6.726-1.947-2.137-3.953-4.217-5.92-6.334-.13-.14-.26-.446-.196-.555.146-.24.39-.504.644-.574.405-.11.853-.11 1.277-.09 1.85.095 3.59-.396 5.36-.844 3.53-.887 7.127-1.38 10.778-1.336.355.005.705.325 1.017.48-.13 1.23-.263 2.29-.356 3.355zM73.65 42.71c.02-.427.055-.858.107-1.282.072-.555.613-.855 1.195-.654 1.736.6 3.413 1.383 4.765 2.606 1.664 1.502 3.168 3.183 4.7 4.827.348.377.656.894.74 1.387.12.698-.7.67-1.06 1.01-.613.574-.807 1.24-.528 2.03.307.88 1.28 1.265 2.08.798.27-.155.49-.407.71-.636.425-.435.688-.277.927.197.97 1.923 1.628 3.925 2 6.066.452 2.597.357 2.75-2.494 2.957-3.627.267-7.22.834-10.717 1.907-.715.22-1.433.475-2.168.57-.954.126-1.924.106-2.89.15v.034h-1.284c-1.07-.004-1.248-.285-.92-1.41 1.185-4.11 2.402-8.21 3.536-12.334.74-2.686 1.156-5.437 1.298-8.224zm-4.413-2.592c1.202-.422 1.93.11 1.76 1.26-.155 1.04-.344 2.074-.544 3.106-.032.17-.196.314-.288.45-.075-.066-.2-.123-.226-.21-.407-1.3-.82-2.603-1.16-3.92-.048-.187.24-.61.457-.684zm-3.456.15c.286.072.58.064.65.184.263.454.522.932.657 1.436.642 2.376 1.135 4.787 2.48 6.923.227.365.037 1.015-.032 1.525-.023.16-.267.344-.445.408-.118.043-.412-.078-.45-.187-1.05-3.147-2.087-6.302-3.088-9.467-.072-.228.146-.547.228-.82zm-6.037 2.602c.128.147.328.275.376.445.892 3.303 1.724 6.624 2.663 9.91.44 1.535 1.052 3.025 1.653 4.51.145.362.538.633.847.91.245.222 1.058-.088 1.062-.418.006-.625.048-1.288-.128-1.873-1.077-3.586-2.213-7.157-3.33-10.734-.385-1.227-.783-2.45-1.156-3.68-.097-.32.753-.97 1.138-.86.17.05.408.195.448.338.683 2.586 1.277 5.195 2.023 7.76.534 1.835 1.02 3.74 2.71 4.983.2.147.33.59.27.845-.57 2.392-1.19 4.774-1.81 7.157-.052.197-.167.42-.323.536-.25.184-.544.33-.843.416-.442.123-.52-.274-.604-.553-.558-1.84-1.095-3.69-1.636-5.534-1.085-3.694-2.176-7.383-3.236-11.085-.235-.815-.352-1.663-.496-2.356l.37-.712zm-3.71 1.096c.135-.154.353-.233.53-.343.145.134.362.245.424.41.188.494.37 1.003.46 1.52.84 4.72 2.126 9.32 3.7 13.84.418 1.204.976 2.356 1.44 3.542.06.156-.065.382-.103.574-.277-.058-.605-.045-.82-.19-.247-.173-.46-.463-.572-.75-.234-.59-.4-1.21-.58-1.82-1.516-5.2-3.022-10.407-4.552-15.604-.125-.43-.237-.82.078-1.18zM53.117 45.7c.142-.263.397-.513.66-.644.43-.213.526.188.59.472.57 2.502 1.068 5.024 1.694 7.51.784 3.11 1.68 6.196 2.49 9.3.06.22-.14.595-.333.768-.26.228-1.003-.034-1.117-.35-.253-.704-.513-1.41-.71-2.133-.993-3.61-1.983-7.22-2.94-10.843-.273-1.028-.426-2.087-.594-2.94.11-.532.113-.877.26-1.144zM49.8 47.445c.22-.09.63.008.806.173.21.202.31.556.382.863 1.045 4.366 2.076 8.734 3.107 13.1.072.31.12.623.17.878-.07.16-.097.267-.16.346-.022.026-.166.006-.196-.032-.186-.262-.4-.515-.52-.805-1.77-4.25-3.315-8.577-4.395-13.06-.177-.74.032-1.145.807-1.464zm-4.772 3.672c.254-.273.686-.44 1.06-.507.114-.02.398.445.465.72.85 3.513 2.083 6.898 3.388 10.26.15.39.288.785.423 1.158-.235.164-.41.384-.56.373-.296-.025-.71-.1-.844-.304-.577-.885-1.176-1.777-1.57-2.747-.91-2.26-1.706-4.566-2.544-6.856-.267-.727-.392-1.48.18-2.097zm-2.396 2.89c.062-.08.174-.18.253-.174.164.016.43.058.47.16.22.59.43 1.195.568 1.81.437 1.966.835 3.94 1.264 5.908.222 1.017-.07 1.447-1.028 1.46h-.88c-.603-.11-1.756-.29-2.89-.555-.237-.053-.6-.43-.575-.62.34-2.868.992-5.642 2.816-7.99zm79.935 46.504c-.457-.645-1.058-1.093-1.865-1.11-1.114-.026-2.07-.5-3.05-.93-3.05-1.34-6.206-2.336-9.5-2.866-1.016-.163-1.927.242-2.15.984-.254.842.18 1.47.79 1.954 1.44 1.14 3.088 1.922 4.79 2.592.697.272 1.39.552 2.076.847.29.13.315.336.058.45-.88.384-1.77.752-2.66 1.112-.408.164-.556-.168-.724-.43-.655-1.023-1.4-1.866-2.77-1.915-2.46-.094-4.916-.282-7.378-.378-1.284-.05-2.578-.05-3.86.036-4.382.293-8.758.738-13.142.94-6.75.302-13.502.516-20.256.643-5.472.1-10.946.02-16.42.02v.036c-6.437 0-12.877.003-19.314-.004-1.502 0-3.005-.02-4.507-.068-1.02-.034-1.327-.387-1.23-1.423.2-2.13.6-4.255.635-6.386.192-12.765.357-25.528-.427-38.283-.38-6.205-.55-12.424-.84-18.636-.078-1.71-.252-3.416-.367-5.126-.032-.51.245-.777.757-.786.107 0 .213.02.32.016 2.387-.15 3.02-.956 2.558-3.253-.02-.107-.03-.213-.062-.316-.755-2.456-1.525-4.907-2.266-7.367-.824-2.74-2.058-5.376-1.74-8.388.13-1.256-.908-2.376-1.978-2.624-1.402-.325-2.635.13-3.305 1.36-.406.74-.673 1.57-.908 2.387-.21.717-.235 1.483-.43 2.202-.815 2.994-1.632 5.99-2.517 8.963-.35 1.173-.448 2.306-.075 3.47.546 1.69 1.786 2.277 3.488 1.66.3-.11.582-.29.89-.357.103-.02.36.196.374.325.06.53.064 1.07.072 1.605.158 8.363.13 16.725.517 25.088.547 11.787.055 23.6.71 35.39.058.977-.004 1.92-.504 2.804-.6 1.062-.653 2.25-.69 3.435-.03.963-.04 1.93-.08 2.893-.022.487-.318.813-.786.856-.748.07-1.5.073-2.247.086-1.18.02-2.368-.056-3.54.053-1.67.15-3.103.83-3.99 2.35-.3.51-.273 1.084.172 1.47.47.41 1.01.82 1.594.997.592.183 1.27.105 1.913.11 1.824.014 3.648 0 5.472.026.623.01.976.378.983 1.013.02 1.824 0 3.648.02 5.472.01.746.01 1.508.157 2.234.242 1.21 1.33 2.112 2.473 2.187 1.216.08 2.488-.9 2.76-2.24.15-.725.15-1.49.157-2.237.018-1.715-.015-3.435.003-5.15.008-.78.39-1.115 1.21-1.154.213-.01.43-.005.644-.007 7.608-.1 15.213.517 22.823.128.318-.014.64.06.96.076 1.07.064 2.14.168 3.21.17 9.65.022 19.303.353 28.948-.358 5.13-.38 10.27-.61 15.403-.918.427-.026.846-.18 1.27-.192 3.754-.075 7.504-.15 11.257-.18.5-.006.752.404.544.895-.492 1.152-.132 2.123.674 2.923.867.864 1.955.718 3.025.427.105-.026.205-.064.303-.107 3.126-1.405 6.34-2.64 9.265-4.46.725-.45 1.42-.977 2.037-1.564 1.074-1.024 1.13-2.24.256-3.477zM79.744 54.02c-.286.514-.25 1.07.053 1.517.288.422.7.783 1.122 1.083.403.29 1.142.086 1.414-.358.213-.347.333-.752.43-.98-.06-.403-.067-.62-.124-.825-.185-.66-.593-1.13-1.28-1.27-.513-.106-1.34.342-1.616.837zm-.68-4.595c.78.164 1.723-.672 1.65-1.46-.085-.96-.843-1.804-1.78-1.874-.268-.02-.626.15-.818.353-.896.945-.318 2.716.95 2.982zM76.14 60.518c.67 0 1.386-.82 1.325-1.517-.077-.866-.86-1.552-1.73-1.513-.752.036-1.376.736-1.333 1.495.043.79.89 1.535 1.74 1.537zm.2-6.888c.837.006 1.398-.587 1.347-1.42-.055-.857-.687-1.543-1.355-1.473-.773.083-1.35.717-1.37 1.504-.022.85.506 1.383 1.378 1.39zm9.567 5.685c.226-.053.424-.224.643-.35l-.38-.563-.62.56c.12.126.268.373.357.352z"/></svg>