<svg xmlns="http://www.w3.org/2000/svg" width="128" height="128" viewBox="0 0 128 128"><path d="M115.47 73.12c-.534-1.006-1.334-1.64-2.476-1.883-1.973-.42-1.963-.463-1.664-2.21.088-.53.15-1.07.17-1.606.182-5.167.357-10.334.538-15.504.218-6.257-.3-12.496-.472-18.74-.117-4.2-.604-8.374-1.157-12.534-.094-.696.016-.98.833-1.066 1.737-.18 2.71-1.16 3.258-2.716.29-.825-.063-1.534-.91-1.724-1.47-.333-2.965-.565-4.4-1.01-2.08-.645-4.126-1.22-6.323-.61-.403.11-.86.027-1.29.043-4.413.18-8.827.362-13.24.527-.424.018-.866-.01-1.278-.11-1.09-.258-2.117-.004-3.19.157-4.264.64-8.525 1.024-12.866.467-2.436-.314-4.998-.37-7.413.015-4.993.797-9.88.264-14.762-.587-1.628-.285-3.2-.325-4.812-.146-1.387.156-2.778.302-4.17.41-4.94.376-9.88.75-14.826 1.083-.957.064-1.925-.072-2.89-.113-1.506-.064-3.01-.14-4.52-.176-.9-.02-1.682.357-2.35.94-1.35 1.17-1.072 3.32.554 4.016.683.29 1.443.41 2.176.565.907.196 2.165-.448 2.667.563.39.79.25 1.88.22 2.83-.097 3.015-.29 6.028-.378 9.042-.084 2.91.202 5.816.25 8.717.16 9.596.104 19.195.155 28.794.004.968-.3 1.653-1.192 2.08-1.252.597-1.544 1.717-1.5 2.972.04 1.112.95 2.048 2.062 2.1.752.033 1.51-.016 2.264-.042 6.246-.23 12.494-.462 18.74-.69.864-.03 1.73-.025 2.59-.07 3.33-.175 6.665-.364 10-.548l.006.11c2.157 0 4.315.003 6.47 0 3.07-.002 2.464-.11 3.157 2.814.05.207.062.427.064.643.033 3.884.062 7.763.095 11.643.006.82-.346 1.463-.99 1.936-1.042.76-2.1 1.497-3.157 2.243-2.726 1.925-5.632 3.64-8.13 5.828-2.904 2.546-5.308 5.644-8.643 7.74-1.437.9-1.237 3.184-.28 4.354.836 1.024 2.505 1.016 3.41.068 2.83-2.96 5.622-5.956 8.534-8.835 2.458-2.43 5.21-4.515 8.223-6.234.424-.245.927.002.94.465.03 1.62.04 3.235.06 4.85.01.868.105 1.694.49 2.513.697 1.493 2.442 1.327 3.154.31.572-.812.91-1.7.912-2.713.002-1.617.007-3.234.053-4.853.013-.41.185-.815.283-1.22.384.116.83.146 1.14.366 2.986 2.123 5.987 4.228 8.91 6.434 3.178 2.398 6.66 4.39 9.543 7.18.38.372.87.638 1.33.918 1.152.7 2.14.626 3.267-.235.256-.197.5-.413.734-.636.62-.593.716-1.375.15-2.007-1.576-1.77-3.12-3.573-5.124-4.91-3.856-2.566-7.694-5.163-11.536-7.752-.443-.298-.873-.613-1.298-.935-.078-.06-.145-.192-.134-.283.005-.06.16-.135.25-.14.425-.018.86-.072 1.276-.01 3.933.587 7.86 1.2 11.795 1.792.423.063.862.07 1.292.054.95-.033 1.73-.614 1.944-1.415.198-.735-.283-1.718-1.084-2.166-.277-.157-.582-.284-.89-.355-.944-.223-1.886-.464-2.84-.604-2.767-.412-5.526-.907-8.31-1.13-2.784-.223-5.525-.956-8.358-.718-2.35.2-2.464.073-2.458-2.49.003-1.076.004-2.154.017-3.234.03-2.8.246-5.606-.333-8.382-.085-.414.31-.794.795-.79.645.002 1.293.018 1.937.063 2.365.155 4.724.383 7.09.473 5.923.227 11.85.4 17.774.57.74.02 1.55.033 2.21-.234 1.26-.502 2.52-.465 3.817-.458 2.913.016 5.825.025 8.735-.06 1.283-.035 2.574-.242 3.84-.483 1.422-.275 2.16-2.028 1.468-3.33zm-8.02-2.488c-2.095.41-4.177.944-6.29 1.173-1.696.183-3.438.03-5.154-.047-1.717-.077-3.426-.322-5.14-.357-3.342-.066-6.685.034-10.022-.073-5.056-.163-10.112-.37-15.157-.725-1.42-.098-2.784.147-4.176.106-6.897-.21-13.774.42-20.665.552-2.8.053-5.602.092-8.402.187-1.394.046-2.784.224-4.177.294-.612.03-1.096-.48-.933-1.007.975-3.157.944-6.42.6-9.61-.575-5.36-.337-10.755-.957-16.112-.333-2.877-.125-5.815-.296-8.72-.283-4.72-.666-9.44-1.025-14.156-.078-1.013.177-1.374 1.24-1.378 4.522-.015 9.047-.006 13.57-.006v-.105c3.88 0 7.76.096 11.635-.03 2.898-.094 5.788-.464 8.68-.722 1.39-.123 2.777-.377 4.168-.388 3.554-.032 7.11.08 10.667.06 9.48-.052 18.96-.146 28.442-.22.645-.006 1.296-.052 1.935.01.41.043.873.192.718.798-.358 1.395-.23 2.773.078 4.157.115.52.154 1.067.176 1.6.213 4.95.504 9.894.597 14.846.14 7.324.164 14.652.178 21.98.004 2.27.256 4.507.52 6.75.08.677-.204 1.03-.804 1.147zm-3.676-44.897c-.585-1.423-2.018-2.315-3.266-2.176-1.562.172-2.773 1.27-3.077 2.88-.16.84-.204 1.71-.314 2.562-.064.486-.373.794-.832.83-1.182.084-2.368.17-3.552.154-1.933-.027-3.933.047-5.187-1.888-.055-.086-.168-.133-.258-.193-1.416-.983-3.154-.853-4.416.37-1.237 1.206-2.33 2.483-2.766 4.26-.41 1.667-1.092 3.265-1.598 4.91-.883 2.878-1.72 5.77-2.588 8.653-.352 1.178-.873 1.393-1.828.784-.818-.52-1.592-1.123-2.45-1.562-1.767-.904-2.835-2.112-2.764-4.272.047-1.4-.963-2.302-2.216-2.915-2.03-.997-4.9.61-5.248 2.42-.62 3.19-2.754 5.563-4.163 8.32-.27.527-.96.6-1.367.236-.974-.88-1.67-1.956-2.293-3.1-1.283-2.367-2.53-4.76-3.96-7.036-.544-.866-.976-1.62-.85-2.66.167-1.377-.433-2.53-1.248-3.565-1.04-1.32-2.712-1.676-4.34-1.18-1.81.55-2.572 1.85-2.81 3.555-.105.74.048 1.515-.032 2.26-.155 1.405.21 2.548 1.408 3.377.757.525.707 1.27.464 2.027-.096.305-.248.596-.395.884-1.077 2.127-1.77 4.373-2.225 6.716-.288 1.475-.79 2.907-1.18 4.36-.332 1.24-.99 1.958-2.362 2.29-2.16.523-2.787 1.536-2.827 3.712-.01.43-.002.862.032 1.29.147 1.907 1.73 3.417 3.6 3.446 2.704.043 4.638-1.824 4.725-4.62.034-1.078.017-2.113.4-3.174.66-1.813 1.13-3.695 1.667-5.552.388-1.344.702-2.71 1.155-4.03.42-1.216.966-2.39 1.49-3.57.067-.148.324-.3.49-.296.175.006.38.167.51.315.14.158.22.37.304.567 1.145 2.667 2.115 5.422 4.16 7.61.213.23.124.802.075 1.205-.09.737-.364 1.466-.363 2.198.002 1.907 1.195 3.215 3.09 3.547 2.947.512 5.38-1.25 5.723-4.238.084-.748.024-1.477.436-2.173.82-1.387 1.59-2.805 2.347-4.227.33-.62.78-.988 1.486-1.09.417-.06.89-.13 1.223-.365 1.248-.88 2.325-.736 3.445.267.634.57 1.44.943 2.152 1.43 1.803 1.23 3.46 2.556 3.806 4.945.067.467.463 1.05.87 1.275 1.462.794 3.002 1.14 4.64.392 1.204-.55 1.894-1.41 1.866-2.747-.025-1.077-.088-2.155-.222-3.22-.05-.396-.294-.812-.56-1.128-.342-.408-.77-.758-1.206-1.07-.725-.52-.816-1.216-.64-2.005.608-2.747 1.755-5.306 2.78-7.906.268-.673.8-.94 1.462-1.117 1.18-.312 2.187-.903 2.776-2.044.197-.38.412-.756.62-1.134.473-.87 1.196-1.152 2.164-.992 1.59.263 3.187.478 4.782.71 2.41.2 4.645-.783 6.98-1.02 2.01-.203 3.07-1.952 2.904-4.01-.068-.84-.305-1.7-.63-2.482z"/></svg>