<svg xmlns="http://www.w3.org/2000/svg" width="128" height="128" viewBox="0 0 128 128"><path d="M44.096 82.4c.13-1.344.264-2.69.277-4.04.036-3.95.03-7.904.004-11.858-.006-1.246-.107-2.492-.196-3.733-.113-1.554-.353-3.1-.382-4.653-.06-3.328-.017-6.656-.017-9.984h-.093v-11.86c0-1.042.01-2.078-.484-3.047-.407-.794-.99-1.347-1.894-1.438-.726-.073-1.454-.065-2.18-.092-4.464-.16-8.926-.32-13.388-.488-.415-.015-.83-.07-1.24-.132-2.254-.337-4.5-.7-6.756-1.02-1.136-.16-2.044.58-2.133 1.747-.165 2.176-.383 4.35-.412 6.528-.122 9.985-.21 19.97-.263 29.955-.03 5.62.582 11.197 1.148 16.782.355 3.513.43 7.054.04 10.588-.238 2.165-.42 4.336-.584 6.51-.067.89.268 1.646 1.1 2.077 1.85.96 3.746 1.826 5.877 1.912 4.152.168 8.307.365 12.463.44 1.758.033 3.526-.16 5.28-.346 1.11-.116 2.286.295 3.332-.377.266-1.092.724-2.18.756-3.282.085-2.802.304-5.66-.132-8.4-.632-3.96-.497-7.856-.117-11.79zM38.09 97.732c-.16.992-.73 1.813-1.645 2.127-1.877.64-3.85.817-5.84.723-.112-.006-.334-.315-.302-.416.16-.49.38-.962.597-1.434.288-.625.14-1.22-.107-1.808-.63-1.517-2.138-1.742-3.2-.478-.934 1.11-1.852 2.237-2.805 3.328-.675.772-1.573.973-2.555.823-.187-.03-.448-.15-.506-.293-.053-.134.07-.402.195-.54.635-.688 1.274-1.375 1.952-2.018 2.953-2.81 5.38-6.067 7.907-9.238.615-.77.935-1.603.796-2.6-.178-1.268-1.49-1.92-2.557-1.2-.945.64-1.823 1.38-2.713 2.097-1.457 1.17-2.898 2.364-4.358 3.533-.396.316-.88.11-.913-.373-.04-.52-.043-1.04-.067-1.56-.037-.764.182-1.37.765-1.942 1.26-1.237 2.448-2.552 3.618-3.876.687-.777 1.32-1.61 1.912-2.46.474-.685.323-1.63-.26-2.296-.492-.558-1.567-.72-2.303-.22-.858.586-1.648 1.27-2.448 1.93-1.064.878-1.653 1.106-1.768.643-.192-.77.44-1.077.827-1.525 2.24-2.596 4.49-5.19 6.72-7.797.4-.47.77-.978 1.088-1.51.48-.807.286-1.6-.21-2.335-.497-.747-1.486-.992-2.18-.476-.664.496-1.31 1.035-1.874 1.638-1.207 1.29-2.35 2.64-3.536 3.952-.274.303-.595.57-.933.795-.085.057-.46-.097-.467-.178-.1-.92-.192-1.845-.2-2.77-.002-.257.215-.64.44-.76 2.4-1.276 3.777-3.535 5.398-5.548 1.11-1.376 2.112-2.834 3.157-4.26.245-.334.497-.672.69-1.035.423-.79.278-1.763-.312-2.305-.565-.517-1.67-.715-2.325-.27-.68.46-1.344.996-1.87 1.62-1.345 1.588-2.604 3.247-3.903 4.87-.256.32-.546.615-.835.91-.055.056-.197.09-.264.06-.083-.04-.177-.156-.18-.243-.046-.827-.133-1.658-.08-2.48.023-.37.252-.824.534-1.066 2.173-1.838 3.72-4.19 5.4-6.433.748-.995 1.535-1.966 2.277-2.965.37-.497.72-1.017 1.017-1.56.31-.565.156-1.276-.297-1.715-.558-.544-1.318-.644-1.99-.167-.586.42-1.167.877-1.654 1.408-.985 1.07-1.9 2.208-2.848 3.31-.544.63-1.09 1.257-1.662 1.862-.128.136-.352.184-.53.274-.12-.277-.303-.547-.34-.835-.07-.524-.02-1.082.43-1.43 1.867-1.453 2.86-3.54 4.027-5.498.8-1.34 1.582-2.688 2.333-4.053.192-.35.355-.79.32-1.168-.036-.366-.277-.78-.557-1.027-.176-.157-.68-.174-.88-.033-1.264.9-2.492 1.856-3.722 2.81-.57.44-1.104.93-1.685 1.357-.07.053-.436-.103-.476-.224-.128-.384-.207-.798-.235-1.203-.127-1.973-.228-3.947-.348-5.917-.04-.66.25-1.045.805-1.022l7.8.333c2.49 0 4.987-.01 7.484.007.784.006 1.075.322 1.1 1.155.107 3.848.235 7.696-.49 11.51-.095.506-.095 1.036-.092 1.554.026 8.533.012 17.067.116 25.598.043 3.533.333 7.06.533 10.592.042.72.196 1.438.276 2.16.292 2.67.584 5.343.85 8.017.05.51.033 1.044-.05 1.553zM80.96 76.63c-.27-3.837-.41-7.668.09-11.503.174-1.33.227-2.696.162-4.038-.064-1.4-1.024-2.214-2.453-2.327-.207-.02-.416-.013-.624-.015-3.744-.04-7.488-.06-11.228-.126-1.452-.027-2.93 0-4.342-.267-2.9-.55-5.79-.38-8.69-.226-.83.043-1.36.572-1.627 1.265-.218.562-.288 1.216-.285 1.826.02 4.265.043 8.527.128 12.79.053 2.49.245 4.976.34 7.467.106 2.7.118 5.408.274 8.107.15 2.59.427 5.17.65 7.755l-.135.01c0 1.355.14 2.723-.03 4.053-.35 2.803 1.155 4.747 2.85 6.613.313.344.91.624 1.367.62 3.412-.054 6.855.447 10.22-.594 1.084-.335 2.236-.442 3.35-.69 2.655-.598 5.362-.488 8.054-.598 1.534-.064 2.313-.657 2.62-2.13.147-.704.165-1.443.182-2.165.04-1.56-.06-3.13.072-4.68.575-6.78-.553-13.49-.79-20.232-.01-.308-.14-.612-.16-.92zm-5.594 23.217c-.094.043-.192.082-.29.105-3.25.713-6.515 1.323-9.868 1.205-.53-.02-.708-.357-.418-.808.736-1.138 1.536-2.237 2.197-3.408.288-.512.46-1.188.403-1.762-.043-.426-.465-.923-.853-1.17-.245-.15-.87-.02-1.11.207-1.56 1.52-3.415 2.728-4.706 4.54-.467.658-1.15 1.172-1.76 1.722-.04.036-.385-.14-.46-.284-.26-.497-.25-1.075.15-1.444 3.81-3.54 5.786-8.336 8.627-12.535.115-.17.253-.373.256-.56.01-.384.067-.894-.142-1.124-.205-.224-.78-.32-1.09-.203-1.28.492-2.292 1.398-3.29 2.322-1.366 1.27-2.77 2.502-4.167 3.744-.046.04-.188.017-.26-.02-.078-.048-.2-.182-.18-.217.472-.93.893-1.89 1.455-2.76 2.03-3.143 4.117-6.25 6.16-9.39.68-1.04 1.302-2.123 1.908-3.21.28-.505.17-1.017-.267-1.41-.43-.383-.985-.426-1.457-.19-.55.27-1.09.63-1.52 1.066-1.085 1.12-2.147 2.266-3.143 3.465-1.13 1.36-2.166 2.794-3.265 4.18-.112.14-.34.19-.52.28-.085-.186-.218-.363-.25-.558-.246-1.406.095-2.713.88-3.86 1.642-2.4 2.554-5.247 4.534-7.438.062-.072.126-.198.11-.28-.066-.287-.09-.648-.277-.82-.17-.155-.633-.23-.79-.11-.575.435-1.07.975-1.607 1.463-.843.77-1.688 1.536-2.547 2.29-.246.215-.71.08-.737-.202-.272-2.888-.978-5.732-.898-8.657.016-.61.355-.97.94-.982.623-.01 1.247.01 1.872.02 3.328.057 6.658.113 9.988.167.105.002.21-.013.313.002 1.424.2 2.847.405 4.272.608.91 1.426 1.29 3.035 1.563 4.672.085.507.066 1.035.056 1.553-.06 3.85-.13 7.696-.2 11.543h.15c0 4.06-.05 8.116.036 12.17.02 1.12.442 2.23.683 3.34.11.505.295 1 .31 1.505.017.54-.264.992-.794 1.23zm15.61-41.575c3.035-.686 6.065-1.387 9.103-2.052 2.123-.466 4.27-.843 6.387-1.346.898-.213 1.777-.58 2.61-.987.91-.445 1.518-1.315 1.33-2.275-.32-1.62-.31-3.294-.998-4.864-.748-1.707-1.3-3.503-1.89-5.277-1.478-4.45-3.42-8.7-5.57-12.855-.286-.548-.626-1.088-1.037-1.542-.718-.796-2.187-.648-2.683.284-.922 1.73-1.798 3.488-2.66 5.252-.426.872-.636 1.023-1.678.577-4.39-1.877-8.76-3.8-13.147-5.68-2.1-.898-4.213-1.756-6.338-2.592-2.994-1.18-6.012-2.298-9-3.49-1.732-.694-3.417-1.505-5.14-2.226-1.21-.51-2.283-.105-2.83 1.082-.477 1.036-.863 2.113-1.295 3.17-1.3 3.18-2.347 6.43-2.822 9.852-.467 3.356-.016 4.083 3.253 4.734 7.915 1.58 15.232 4.766 22.405 8.323.928.463 1.856.885 2.803 1.298.823.356 1.87.392 2.406 1.295-.323.755-.67 1.5-.97 2.264-.452 1.157-.955 2.304-1.284 3.5-.27.974.08 1.79 1.004 2.393 1.712 1.116 3.644 1.38 5.77 1.67.662-.145 1.468-.32 2.273-.505zm-6.4-16.484c-5.333-2.57-10.832-4.74-16.352-6.863-1.355-.523-2.734-.974-4.09-1.493-.677-.26-1.344-.565-1.98-.913-1.93-1.066-2.137-1.623-1.418-3.656.687-1.934 1.623-2.714 3.86-2.757.482.128 1.508.313 2.463.683 3.475 1.356 6.953 2.706 10.38 4.178 3.43 1.472 6.817 3.05 10.188 4.65 1.965.93 4.098 1.487 5.94 2.69.688.453 1.405.865 2.123 1.276.89.512 1.94.253 2.396-.66.365-.74.58-1.55.883-2.32.153-.384.354-.75.54-1.12.14-.277.31-.273.44.02.978 2.177 2.028 4.326 2.905 6.54.84 2.123 1.508 4.31 2.72 6.272.39.635.187 1.276-.462 1.56-.95.412-1.902.897-2.903 1.082-4.19.773-8.255 2.02-12.37 3.074-.253.064-.69.02-.8-.14-.132-.183-.032-.56.03-.842.065-.302.212-.584.317-.877.34-.98.683-1.957 1.02-2.94.406-1.17.214-2.154-.59-3.175-1.443-1.827-3.12-3.247-5.238-4.267zm28.326 60.18c-.096-.93-.328-1.85-.358-2.78-.156-5.093-.292-10.19-.378-15.284-.018-1.03.23-2.064.325-3.097.05-.516.064-1.043.03-1.56-.095-1.49-.71-2.28-2.175-2.608-2.128-.478-4.27-.855-6.467-.93-3.134-.11-6.225.373-9.34.53-.913.043-1.842.342-2.71.67-1.226.465-2.047 1.32-2.33 2.693-.334 1.63-.71 3.234-.644 4.925.07 1.87.016 3.745.016 5.62l-.182.007c.188 3.424.39 6.85.557 10.276.105 2.126.996 4.03 1.664 5.985.492 1.45 1.65 1.922 3.217 1.845 2.91-.14 5.82-.237 8.733-.33 1.246-.044 2.493-.13 3.715.273.37.12.82.107 1.207.026.917-.183 1.826-.416 2.726-.674 1.598-.457 2.464-1.472 2.552-3.11.04-.824-.072-1.658-.16-2.484zm-4.567-4.625c-.216.674-.184 1.433-.24 2.155-.082 1.045-.657 1.744-1.58 2.123-.792.327-1.49.378-2.18-.467-.828-1.013-1.372-.96-2.34-.168-.32.26-.58.594-.894.866-.574.498-1.167.25-1.726-.03-.132-.066-.286-.372-.237-.456.363-.63.79-1.216 1.167-1.835.483-.8.97-1.595 1.387-2.428.18-.35.22-.792.246-1.197.046-.715-.917-1.33-1.566-1.008-.367.18-.748.382-1.038.663-1.035 1.016-2.025 2.074-3.045 3.102-.113.11-.31.135-.47.2-.044-.288-.21-.632-.11-.853.296-.658.683-1.275 1.056-1.89.912-1.51 1.867-2.99 2.734-4.52.293-.52.464-1.143.546-1.74.12-.88-.867-1.575-1.675-1.18-.7.34-1.355.78-2.027 1.18 0 .04 0 .08-.002.12-.034.004-.075 0-.114 0-.066.117-.134.235-.203.35-.212-.373.004-.352.204-.35l.045-.074.074-.048c.027-.465-.034-.974.16-1.355 1.03-2 1.746-4.166 3.152-5.98.653-.84.123-1.916-.943-2.03-.558-.062-1.13-.007-1.696.01-.02.032-.043.066-.064.094l-.11.004c-.272 1.017-1.132 1.58-1.814 2.273-.284.29-.61.107-.754-.136-.203-.34-.344-.743-.41-1.136-.074-.447.16-.835.625-.884.78-.08 1.566-.083 2.35-.113.007-.032.02-.06.027-.093.048 0 .096-.005.146-.007.096-.156.192-.346.303-.358 2.155-.227 4.31-.444 6.47-.605.532-.04.996.242 1.18.817.062.192.065.48.195.565 2.26 1.424 2.358 3.656 2.45 6 .067 1.744.48 3.48.805 5.205.336 1.746.476 3.463-.08 5.21z"/></svg>