<svg xmlns="http://www.w3.org/2000/svg" width="128" height="128" viewBox="0 0 128 128"><path d="M123.808 100.853c-.437-.8-1.054-1.397-1.988-1.44-1.222-.058-2.267-.576-3.35-1.045-1.08-.47-2.202-.84-3.29-1.293-2-.83-4.153-.992-6.233-1.475-.82-.192-1.596.27-1.872.922-.26.612.005 1.392.704 1.973.327.275.66.558 1.04.747 1.337.675 2.69 1.32 4.045 1.955.58.273 1.184.494 1.773.75.092.04.238.18.225.202-.08.15-.168.337-.31.41-.475.24-.968.455-1.467.65-1.136.444-1.175.466-2.01-.578-.714-.892-1.53-1.42-2.714-1.454-2.248-.07-4.49-.268-6.738-.353-1.393-.05-2.795-.064-4.18.03-4.385.287-8.76.73-13.145.938-6.32.3-12.644.52-18.97.635-5.9.105-11.802.02-17.703.02v.044c-6.976 0-13.952.005-20.926-.002-1.072 0-2.145-.036-3.216-.085-.62-.03-1.038-.46-1.01-1.003.032-.642.037-1.298.17-1.922.548-2.54.545-5.112.573-7.684.04-3.755.068-7.51.072-11.267.01-10.62-.246-21.235-.8-31.843-.25-4.817-.49-9.634-.74-14.453-.024-.427-.13-.846-.18-1.272-.113-.973 0-1.11.93-1.167 2.41-.146 3.076-.942 2.645-3.173-.04-.21-.073-.424-.137-.627-.806-2.553-1.662-5.088-2.414-7.655-.744-2.54-1.837-5.002-1.53-7.786.142-1.26-.852-2.402-1.906-2.68-1.376-.364-2.688.066-3.333 1.277-.448.837-.708 1.78-.98 2.696-.214.715-.276 1.472-.47 2.192-.787 2.89-1.557 5.788-2.42 8.656-.323 1.064-.47 2.1-.21 3.163.203.836.576 1.586 1.397 2.067.868.51 1.635.313 2.424-.128.187-.105.388-.224.59-.238.14-.01.385.125.417.242.082.302.1.63.102.948.096 9.224.19 18.443.576 27.665.468 11.037.01 22.097.65 33.134.07 1.195-.08 2.313-.557 3.442-.366.862-.493 1.85-.592 2.8-.11 1.06-.063 2.14-.11 3.212-.02.573-.433.976-1.033.988-1.715.033-3.436.005-5.15.056-1.684.05-3.13.65-4.18 2.037-.583.768-.437 1.61.34 2.24.72.578 1.537.7 2.414.693 1.93-.016 3.86-.036 5.795-.018 1.08.014 1.38.3 1.394 1.288.02 1.824-.007 3.648.01 5.472.003.64.002 1.295.126 1.918.266 1.33 1.53 2.33 2.743 2.26 1.127-.063 2.23-.962 2.49-2.17.157-.723.17-1.486.18-2.23.028-1.825 0-3.647.03-5.47.013-.46.326-.78.79-.862.315-.056.64-.05.96-.053 7.61-.094 15.215.506 22.825.126.212-.01.428.015.643.023 1.712.08 3.424.236 5.136.232 8.575-.03 17.155.366 25.73-.308 5.554-.437 11.127-.64 16.69-.947.214-.01.43-.015.643-.048 3.947-.61 7.923-.265 11.886-.4.84-.03.99.225.88 1.18-.283 2.42 1.114 3.75 3.376 3.217.21-.05.42-.102.614-.188 3.135-1.393 6.342-2.636 9.27-4.45.814-.5 1.58-1.12 2.26-1.79.865-.84.902-1.85.304-2.942zm-53.04-26.05c-4.263.384-8.54.82-12.836.715-.747-.02-1.528-.02-2.242.164-1.9.49-3.833.422-5.758.45-2.36.036-4.72.01-7.083.01v.025c-3.434 0-6.868-.015-10.3.008-1.25.008-1.99.7-2.09 1.956-.066.855-.023 1.72.04 2.573.067.96.268 1.912.305 2.873.07 1.82.06 3.645.105 5.468.014.53.012 1.084.165 1.58.307.983 2.02 2.047 3.067 1.962.96-.077 1.92-.313 2.874-.284 5.803.172 11.566-.53 17.347-.8 2.995-.138 5.982-.495 8.978-.564 5.58-.126 11.163-.237 16.738-.117 4.39.09 8.797.006 13.17.606.843.114 1.72.09 2.57 0 1.095-.112 1.99-.966 2.172-2.07.223-1.37.42-2.75.497-4.135.12-2.137.037-4.276.45-6.406.336-1.725-.82-3.474-2.492-4.028-.697-.235-1.468-.348-2.203-.344-7.824.036-15.65-.34-23.472.367zm-35.633 8.083c-.043.05-.442-.062-.485-.173-.188-.48-.306-.987-.333-1.082-.145-1.58 1.037-1.747 2.043-1.243.15.075.34.418.29.487-.47.693-.98 1.362-1.514 2.01zm4.635-1.698l-.196-.213c.17-.062.335-.145.51-.174.053-.006.13.133.198.205l-.512.184zm6.416.143c-.685 1.08-1.133 2.35-2.3 3.06-.008.06-.026.11-.032.17-.056.028-.082.068-.128.1-.06.394-.14.783-.483 1.044-.01.064-.02.13-.036.196-.066.025-.1.067-.15.102-.078.368-.08.774-.466.98-.01.054-.016.108-.03.157-.02.036-.08.05-.145.064l-.1.33c-.265-.293-.065-.3.1-.33l.048-.158c.05-.017.09-.04.128-.064.076-.37.12-.752.467-.98.014-.065.03-.13.05-.193.06-.03.09-.074.135-.108.067-.395.12-.795.485-1.045l.03-.184c.045-.025.084-.058.127-.085.18-1.31.704-2.478 1.53-3.51.078-.096.404-.096.543-.018.13.073.284.384.23.47zm7.514 5.787c-.54.053-.904-.256-.757-.64.09-.227.47-.558.597-.512.35.133.638.437 1.075.768-.416.18-.658.357-.914.384zm1.12-5.13c-.226.248-.495.34-.795.08-.16-.14-.34-.256-.508-.39-.52-.422-.96-.288-1.378.168-.386.422-.785.832-1.18 1.244-.005.065-.01.132-.018.2-.072.02-.145.034-.21.063l-.143.17c.03-.054.05-.13.095-.16.014-.005.032-.005.046-.01l.124-.15.105-.112c.042-.46.05-.927.19-1.352.17-.516.59-.898 1.188-.912.744-.018 1.492-.02 2.236.032.3.02.644.18.565.594-.038.195-.184.385-.323.536zm4.84-.282c-.554.708-.716 1.74-1.668 2.125l.013.084c-.028.013-.045.028-.07.043-.012.642.142 1.342-.554 1.752 0 .05-.002.1-.012.147-.032.018-.064.032-.096.05-.012.268-.007.54-.092.782-.047.132-.325.234-.512.257-.343.04-.405-.29-.064-.622.184-.18.435-.29.668-.42 0-.044 0-.09.005-.132.043-.02.067-.043.105-.066.053-.627-.22-1.362.555-1.754v-.1c.02-.007.036-.02.056-.027-.088-.605-.166-1.212-.268-1.816-.2-1.183.006-1.4 1.3-1.33.72.04 1.044.502.64 1.023zm3.108-.457c-.064-.075-.192-.186-.173-.22.14-.278.28-.262.39.027-.073.064-.146.128-.216.194zm6.347.877c-.538 1.038-.932 2.088-.87 3.307.042.88-.417 1.132-1.473 1.048-.66-.053-1.03-.487-.784-1.013.71-1.52 1.444-3.03 2.226-4.514.105-.2.535-.28.826-.304.15-.016.323.212.562.39-.154.352-.3.73-.483 1.09zm4.67-1.147c-.05-.09-.163-.216-.137-.26.128-.214.288-.408.442-.61l.356.274-.66.598zm2.908 2.782l-.005.16c-.04.01-.067.027-.105.042-.135.643-.258 1.29-.43 1.924-.03.114-.295.164-.455.245-.048-.18-.195-.435-.124-.537.363-.527.267-1.362 1.007-1.632l.025-.11c.032-.03.056-.06.085-.09.028-.9.045-1.804.098-2.703.053-.91.772-1.285 1.818-.946.135.044.328.334.288.428-.498 1.233-1.255 2.296-2.205 3.22zm7.94 1.718c.47-1.42.948-2.833 1.44-4.245.413-1.178.54-1.257 1.854-1.265.64-.004 1.28 0 1.92 0v.06c.747 0 1.496-.017 2.244.002.82.02 1.2.418 1.14 1.182-.126 1.486-.263 2.972-.406 4.457-.058.61-.843 1.025-1.46.755-.167-.072-.406-.323-.38-.437.19-.83.498-1.635.65-2.468.09-.495.066-1.06-.08-1.542-.426-1.425-1.633-1.647-2.644-.55-1.183 1.28-1.886 2.838-2.604 4.388-.267.57-.69.787-1.28.64-.18-.046-.41-.203-.474-.367-.066-.17.013-.418.078-.613zm-1.85-5.105c-.182.083-.362.184-.553.235-.043.014-.133-.15-.203-.23.18-.076.357-.172.544-.217.055-.01.143.14.213.215zM57.07 55.713c-1.818.09-3.63.293-5.446.298-5.9.013-11.787.28-17.66.847-.532.053-1.073.085-1.586.22-1.366.353-1.955 1.042-2.002 2.523-.067 2.14-.01 4.287-.053 6.428-.02 1.14.26 2.11 1.212 2.825.252.19.497.427.656.693.686 1.144 1.735 1.533 2.994 1.52 2.035-.02 4.075.03 6.107-.084 4.707-.267 9.398-.764 14.127-.464 3.632.23 7.277.288 11.124.427 4.726-.165 9.65-.336 14.574-.512.427-.016.86-.043 1.277-.13 1.518-.326 2.448-1.33 2.553-2.9.208-3.115.08-6.224-.742-9.246-.41-1.49-1.25-2.683-3.066-2.82-.74-.06-1.445-.172-2.21-.063-1.376.192-2.773.277-4.162.288-4.718.036-9.437.014-14.155.032-1.184.006-2.362.062-3.54.12zm-18.537 6.794c-.3-.085-.576-.25-.87-.356-.683-.24-1.246-.02-1.72.48-.147.153-.27.328-.39.503-.38.558-.44 1.357-1.213 1.62l-.21-1.396c0-.913-.028-1.34.01-1.76.042-.508.404-.78.863-.657 1.265.33 2.52.303 3.8.138.146-.018.465.386.5.626.062.405-.447.89-.77.802zm9.924-.952c-1.075 1.166-2.133 2.333-2.38 3.99-.013.09-.11.223-.19.236-.294.05-.604.105-.895.063-.096-.016-.25-.348-.208-.483.37-1.206.768-2.404 1.184-3.596.33-.944.77-1.184 2.098-1.157.156.093.435.213.638.412.05.044-.115.39-.25.533zm1.46 4.066c-.063-.172-.15-.342-.176-.52-.01-.068.13-.156.2-.23l.21.543c-.08.07-.156.14-.23.21zm1.94-4.334c-.064-.08-.184-.166-.177-.24s.14-.14.216-.206l.195.242c-.075.068-.155.136-.233.203zm20.457-.79c.27-.362 1.156-.304 1.77-.357.633-.054 1.27-.01 1.905-.014v-.003c.845 0 1.69-.02 2.533.008.467.017.843.716.693 1.22-.144.5-.56.536-.98.59-.78.1-1.06-.586-1.548-.945-.53-.388-1.014-.314-1.36.21-.464.703-.895 1.428-1.345 2.14-.053.084-.15.148-.224.223-.068-.165-.145-.33-.207-.5-.142-.39-.224-.812-.424-1.17-.275-.488-1.354-.678-.814-1.4zm-6.025 2.886v-.124c.042-.014.074-.032.11-.05.046-.415.092-.83.493-1.073.005-.06.013-.12.02-.18.052-.015.09-.036.132-.057.07-.4.13-.803.5-1.056l.017-.18c.075-.017.15-.028.222-.052l.143-.17c-.032.055-.053.133-.102.16-.013.004-.028.003-.04.007l-.128.15c-.047.022-.07.06-.11.084-.032.42-.053.845-.5 1.056-.012.05-.018.102-.028.153-.056.02-.08.06-.126.084-.038.418-.027.86-.493 1.073l-.015.132c-.036.01-.064.027-.096.04-.006.594.004 1.19-.044 1.78-.01.113-.395.32-.437.286-.21-.18-.556-.527-.5-.632.265-.512.35-1.184.98-1.436zm-3.87-2.5c.335-.683.93-.907 1.887-.69.133.03.344.325.31.383-.823 1.498-1.644 2.997-2.546 4.45-.19.31-.67.562-1.046.61-.736.096-1.495.028-2.244.028l-.002.086c-.743-.05-1.488-.083-2.225-.174-.12-.016-.33-.378-.288-.443 1.035-1.603 2.088-3.195 3.17-4.768.085-.125.384-.132.587-.14.326-.015.363.323.067.734-.375.522-.78 1.02-1.12 1.56-.167.263-.258.588-.32.897-.096.46.08.917.49 1.063.354.125.86.102 1.192-.066.346-.176.63-.57.825-.93.46-.844.84-1.73 1.265-2.596zM33.57 50.846c2.018.175 4.087.252 6.09 0 1.81-.224 3.616-.358 5.434-.408 7.285-.206 14.565-.2 21.835.446.956.085 1.902.06 2.84-.318 1.11-.448 1.8-1.145 1.824-2.37.023-1.07.005-2.144.005-3.215h.05c-.06-1.176-.05-2.362-.2-3.53-.076-.6-.27-1.356-.687-1.723-1.444-1.267-2.957-2.5-5.094-2.338-.748.055-1.5-.01-2.25-.007-6.967.048-13.933.043-20.898.173-3.53.066-7.05.376-10.574.584-.575.033-.937.43-.967 1.066-.042.853-.033 1.71-.06 2.57-.045 1.59-.007 3.148-.482 4.748-.633 2.123.882 4.128 3.132 4.324zm31.74-5.528c.058-.203.128-.405.267-.848-.047-.3-.192-.815-.184-1.33.002-.178.376-.48.59-.492.262-.01.747.197.768.36.113.824.19 1.674.1 2.495-.05.45-.582.57-1.037.443-.293-.083-.625-.192-.5-.63zm-6.108-3.232c.157-.01.324.107.5.176-.106.114-.197.304-.306.315-.153.014-.316-.107-.476-.17.093-.114.18-.314.282-.32zm-4.85 2.94c.067-.13.197-.226.32-.327l.016-.166c.043-.01.077-.032.117-.045.18-.79.335-1.585.576-2.356.077-.23.42-.384.658-.544.053-.034.192.042.285.084.392.184.37.54.197.804-.485.743-.763 1.68-1.715 2.01l-.028.126c-.032.03-.07.058-.105.085-.01.15-.02.3-.043.45-.017.097-.077.19-.116.285-.06-.14-.208-.323-.165-.408zM51.16 43.57c.014-.098.09-.19.14-.283.153-.496.206-1.067.498-1.46.186-.25.725-.304 1.106-.307.124 0 .42.568.352.65-.517.655-1.1 1.264-1.682 1.865-.09.094-.286.085-.433.123.005-.196-.006-.395.02-.587zm-3.69.5c.017-.007.04-.007.057-.013l.107-.15.083-.106c-.02-.56-.062-1.117-.02-1.67.038-.48.424-.667.886-.67.105 0 .25-.01.302.048.11.12.275.363.235.422-.45.637-.928 1.25-1.403 1.87l.008.202c-.066.017-.134.032-.198.053l-.142.192c.027-.06.037-.146.085-.176zm-2.45-1.35l.035-.084.085-.066c.015-.233.025-.466.06-.696.01-.077.12-.14.186-.208.083.16.277.39.23.464-.114.176-.302.305-.477.442-.006.045-.013.09-.015.136l-.107.014-.172.418c-.31-.376-.062-.392.17-.416zm-2.836-1.01c.05-.063.192-.093.282-.08s.167.097.25.15c-.045.187-.065.384-.138.557-.448 1.062-.902 2.123-1.382 3.168-.048.105-.3.14-.46.15-.052.004-.185-.167-.173-.24.217-1.377.795-2.597 1.62-3.704z"/></svg>