<svg xmlns="http://www.w3.org/2000/svg" width="128" height="128" viewBox="0 0 128 128"><path d="M118.317 51.552c0-.54.043-1.116-.005-1.688-.29-3.53-.557-7.067-.922-10.59-.27-2.57-.647-5.13-1.038-7.683-.187-1.225-.49-2.437-.78-3.65-.164-.68-.625-1.177-1.208-1.55-1.205-.77-2.496-.956-3.854-.515-.544.176-1.064.432-1.6.637-3.314 1.26-6.64 2.484-9.94 3.78-1.87.734-3.742 1.494-5.53 2.412-1.263.65-2.51 1.45-3.545 2.42-2.193 2.062-2.396 2.934-.117 5.215 1.284 1.283 2.736 2.396 4.11 3.587.468.4.574.795.275 1.246-2.485 3.758-4.98 7.51-7.474 11.263-.05.078-.136.173-.215.184-.17.027-.437.075-.512-.013-.302-.36-.62-.736-.8-1.163-2.995-6.967-6.653-13.607-10.103-20.35-1.04-2.034-2.452-3.882-3.736-5.79-.864-1.282-3.368-1.165-4.213.29-.386.66-.745 1.34-1.097 2.02-1.144 2.212-2.298 4.42-3.418 6.645-2.07 4.11-4.112 8.226-5.402 12.674-1.255 4.333-3.005 8.488-4.8 12.62-.696 1.604-.952 1.682-2.14.575-.353-.33-.743-.638-1.004-1.028-1.405-2.112-3.318-3.708-5.206-5.342-.795-.69-1.49-1.49-2.212-2.258-.788-.836-1.53-1.726-2.356-2.523-.475-.457-1.047-.844-1.64-1.134-.946-.464-1.902-.382-2.64.42-.843.918-1.72 1.83-2.386 2.87-2.375 3.714-4.706 7.46-6.973 11.243-1.328 2.22-2.443 4.564-3.763 6.79-3.525 5.937-6.578 12.124-9.832 18.204-.843 1.576-.557 2.725.35 3.944.392.528.927.955 1.43 1.394 2.714 2.38 6.1 3.56 9.27 5.112 1.15.562 2.694.048 3.53-1.156.87-1.255 1.65-2.585 2.368-3.934 1.667-3.133 3.24-6.31 4.91-9.44.91-1.696 2.076-3.22 3.468-4.565.733-.705 1.018-.75 1.657-.07 2.167 2.317 4.555 4.38 7.022 6.373 1.946 1.57 4.14 2.356 6.507 2.82 1.166.23 2.08-.202 2.723-1.177.264-.4.462-.84.672-1.27 2.45-5.096 4.906-10.19 7.34-15.295.576-1.21 1.086-2.452 1.62-3.68 1.616-3.687 3.225-7.376 4.853-11.056.096-.218.336-.372.51-.557.102.158.235.306.305.478.397.976.764 1.964 1.173 2.934 2.014 4.767 4.05 9.52 6.044 14.294.67 1.603 1.574 3.058 2.504 4.514.542.847 1.253 1.423 2.107 1.894 1.758.973 3.595.66 4.836-.95.817-1.06 1.5-2.224 2.26-3.33.325-.47.597-1.09 1.056-1.333 1.824-.948 2.71-2.69 3.728-4.284 3.877-6.064 7.784-12.1 12.324-17.698.3-.37.555-.923.932-1.03.312-.09.756.445 1.177.546 1.43.34 2.647 1.085 3.88 1.828.24.147.516.25.784.352 1.28.475 2.438.105 3.317-.947 1.093-1.314 1.75-2.747 1.423-4.535zm-4.69-1.445c-.934-.663-1.887-1.3-2.798-1.995-.99-.75-1.937-1.557-2.91-2.336-.314-.25-.644-.405-.94.035-.263.4-.543.793-.782 1.207-3.46 5.988-7.628 11.494-11.636 17.107-.5.7-1.13 1.307-1.664 1.986-1.118 1.43-2.237 2.868-3.314 4.332-1.474 2.005-2.907 4.045-4.373 6.056-.16.218-.453.44-.71.16-.62-.678-1.58-1.17-1.4-2.336-.648-1.488-1.17-3.047-1.965-4.454-2.272-4.017-4.1-8.23-5.784-12.512-.63-1.605-1.223-3.224-1.873-4.82-.33-.8-.78-1.518-1.507-2.063-.983-.736-1.34-.718-1.985.422-1.134 2-2.225 4.023-3.347 6.03-.533.952-.757.967-1.434.193-.31-.354-.597-.747-.968-1.03-.405-.31-.888-.29-1.317.046-.53.414-.66.965-.47 1.51.32.897 1.025 1.348 1.81 1.745.533.27.557.636.273 1.153-.506.924-.907 1.904-1.416 2.827-.597 1.078-1.11 2.273-2.69 2.24-.184 0-.62.714-.536.85.876 1.44 0 2.55-.6 3.717-.083.17-.162.348-.26.512-.28.46-.757.632-1.22.412-.515-.245-1.016-.537-1.53-.79-.484-.24-.933-.17-1.282.257-.268.33-.275.692-.04 1.052.517.8 1.013 1.62 1.568 2.4.395.555.323 1.054.025 1.6-.3.552-.682.757-1.132.49-.738-.436-1.45-.918-2.165-1.396-.395-.264-.75-.597-1.16-.832-1.163-.666-2.61.18-2.7 1.543-.06.91.236 1.725.753 2.424.86 1.164 1.84 2.164 3.317 2.62 1.2.37 1.29.734.847 1.95-.427 1.168-.89 2.325-1.355 3.477-.198.483-.463.562-.88.256-2.154-1.59-4.49-2.993-6.183-5.118-2.267-2.843-4.784-5.504-6.565-8.715-.29-.513-.703-.9-1.33-1.008-.474-.085-1.025.113-1.21.52-.24.522-.425 1.07-.68 1.582-.505 1.007-.716 1.07-1.73.605-.175-.08-.33-.203-.505-.276-1.594-.657-2.71.186-2.403 1.904.13.724.47 1.46.88 2.08.527.793.34 1.435-.126 2.11-.162.234-.315.51-.546.645-.196.112-.583.157-.732.037-.594-.478-1.114-1.05-1.696-1.547-.206-.174-.51-.27-.782-.32-.512-.09-.998.085-1.235.527-.158.3-.216.773-.093 1.073.256.608.644 1.17 1.02 1.717.327.474.705.91 1.074 1.353.33.4.49.78.162 1.28-.473.72-.875 1.488-1.355 2.203-.237.35-.605.43-.98.14-.45-.356-.88-.742-1.355-1.06-.548-.368-1.397.013-1.61.683-.216.674-.2 1.34.2 1.934.32.475.69.917 1.072 1.344.353.394.5.8.24 1.29-.54 1.013-1.063 2.037-1.637 3.032-.272.477-.986.67-1.525.442-.437-.184-.86-.416-1.248-.683-.552-.38-1.096-.784-1.59-1.234-.706-.643-1.604-1.227-1.983-2.04-.42-.896.56-1.717.82-2.615.457-1.585 1.264-2.977 2.334-4.25.613-.726 1.05-1.602 1.524-2.433 2.563-4.498 5.054-9.038 7.686-13.493 2.094-3.548 4.356-6.997 6.55-10.485.252-.403.58-.435.93-.086 2.78 2.78 5.568 5.55 8.316 8.357 1.277 1.3 2.456 2.69 3.72 3.994.323.33.775.617 1.217.723.428.107.99.088 1.368-.11.954-.496 1.62-1.28 2.042-2.312 2.106-5.14 4.294-10.248 6.37-15.4 1.976-4.897 4.34-9.606 6.77-14.284.617-1.183 1.173-2.4 1.787-3.59.12-.237.327-.506.556-.59.126-.043.464.22.567.418.988 1.863 1.93 3.75 2.914 5.614 2.063 3.897 4.1 7.803 5.864 11.845.268.613.64 1.19.84 1.826 1.142 3.616 3.196 6.738 5.252 9.86.516.784 1.207.897 1.9.22.682-.668 1.348-1.377 1.878-2.166 2.246-3.34 4.427-6.722 6.656-10.074 1.008-1.515 2.044-3.016 3.118-4.485.74-1.017 1.294-2.098 1.696-3.3.31-.936.133-1.69-.37-2.438-.76-1.134-1.766-2.013-2.885-2.776-.555-.378-1.112-.75-1.653-1.144-.355-.264-.318-.706.09-.893 1.306-.598 2.607-1.204 3.935-1.75.973-.4 1.973-.753 2.98-1.05 3.138-.927 6.117-2.226 9.017-3.732.62-.32 1.13-.035 1.212.66.213 1.807.457 3.613.597 5.427.268 3.438.468 6.88.7 10.365-.17 1.165.343 2.417-.29 3.59z"/></svg>