<svg xmlns="http://www.w3.org/2000/svg" width="128" height="128" viewBox="0 0 128 128"><path d="M102.332 78.22c-.875-1.742-1.935-3.356-3.458-4.588-3.217-2.596-6.78-4.47-10.955-4.98-.927-.11-1.18-.418-.948-1.22.658-2.273 1.08-4.588 1.18-6.95.054-1.214.574-2.038 1.718-2.444 1.8-.635 2.62-2.075 3.196-3.76.81-2.36.523-4.626-.418-6.87-.284-.674-.358-1.542-.837-2-.455-.438-1.316-.443-1.993-.662-.305-.1-.585-.27-.882-.392-1.61-.672-2.09-1.427-1.987-3.19.04-.692.315-1.328 1.045-1.424 1.29-.17 1.808-1.017 2.11-2.112.34-1.237.66-2.478.605-3.79-.048-1.18-.077-2.366.015-3.537.194-2.505-.29-4.84-1.246-7.166-.683-1.666-1.643-2.978-3.117-3.957-.716-.47-1.484-.883-2.126-1.44-2.805-2.427-6.258-3.164-9.75-3.765-.586-.1-1.263.124-1.855.32-.5.164-1 .438-1.39.787-.744.657-1.403.795-2.29.193-2.25-1.53-4.925-2.028-7.452-2.854-.99-.323-2.134-.42-3.17-.297-2.12.25-4.244.58-6.232 1.453-2.865 1.26-5.49 2.907-7.883 4.912-.395.33-.926.796-.942 1.216-.044 1.13-.83 1.686-1.443 2.408-2.505 2.955-4.948 5.94-5.526 9.97-.144 1.033-.76 1.713-1.706 2.166-.864.414-1.685.922-2.496 1.43-.656.404-.778 1.477-.18 1.95.838.664 1.717 1.28 2.632 1.834 1.785 1.08 3.157 2.55 4.15 4.352.654 1.19-.166 2.707-1.49 2.933-.21.032-.428.002-.64.02-.735.08-1.505.05-2.188.278-1.028.342-.466 1.53-.97 2.196-.123.163-.16.396-.22.6-1.364 4.61.833 9.38 4.002 10.916 1.432.694 1.997 1.846 2.045 3.36.03.972.157 1.9.94 2.644.278.262.347.765.47 1.17.367 1.224.76 2.442 1.04 3.69.075.336-.1.928-.36 1.11-.965.666-1.988 1.264-3.038 1.79-4.107 2.064-6.933 5.306-8.816 9.44-.533 1.17-1.134 2.312-1.606 3.506-1.06 2.688-2.063 5.397-3.087 8.098-.467 1.227-.61 2.493-.416 3.79.115.748.803 1.38 1.533 1.43.715.048 1.273-.288 1.573-.9.277-.565.448-1.195.593-1.813.144-.623.1-1.302.304-1.9 1.565-4.562 3.26-9.077 5.724-13.25.272-.457.722-.81 1.12-1.193.027-.084.04-.17.067-.255l.173-.008c.322-.45.633-.91.98-1.337.09-.107.335-.083.51-.12 0 .287.106.635-.02.847-.325.56-.907.58-1.47.608-.024.037-.05.075-.076.11-.05.054-.107.103-.16.155-.47 1.568-.54 3.18-.548 4.81-.02 3.966.07 7.942-.21 11.892-.224 3.107-.19 6.205-.25 9.31-.013.532-.013 1.076.075 1.6.252 1.465 1.58 2.022 2.82 1.07.71-.55 1.018-.38 1.535.174 1.012 1.088 2.232.133 2.397-.808.056-.317.075-.64.066-.96-.035-1.61.075-3.24-.166-4.817-.425-2.77-.395-5.553-.497-8.334-.192-5.245-.378-10.49-.57-15.733-.01-.32.048-.683-.08-.954-.473-1.01-.05-1.58.812-2.085.733-.432 1.365-1.036 2.09-1.487.19-.117.652-.046.82.114.3.286.446.72.697 1.064 1.12 1.53 1.53 3.204 1.377 5.118-.153 1.917-.107 3.858-.023 5.784.077 1.862 1.173 2.627 3.044 2.277.313-.06.637-.13.916-.272 2.35-1.167 4.885-1.49 7.447-1.746.51-.05.76.016.908.535.437 1.538.82 3.1 1.416 4.58.34.853.46 1.554.157 2.443-.963 2.834-1.842 5.7-2.742 8.555-.934 2.958-1.968 5.9-1.288 9.096.085.406-.04.854-.032 1.28.005.208.085.417.14.62.158.593 1.142 1.04 1.556.595.885-.95 1.904-1.14 3.14-1.06 1.017.064 2.132-.45 2.348-1.38.384-1.667 1.506-1.763 2.805-2.02 1.128-.222 2.328-.44 3.227-1.31.363-.352.765-.25 1.175-.053.187.092.41.134.62.15 1.707.128 2.7-1.09 2.12-2.624-.187-.498-.453-.97-.703-1.444-.804-1.53-1.314-3.16-1.688-4.836-.303-1.355-.4-2.775-.847-4.075-.606-1.76-.352-3.315.395-4.95.868-1.9.79-1.933 2.582-1.2.89.364 1.765.79 2.688 1.04 2.52.68 4.79-.39 5.468-3.043.267-1.035.448-2.09.69-3.13.66-2.812 1.225-5.654 2.05-8.414.453-1.515 1.374-2.885 2.06-4.333.313-.667.788-.95 1.524-.875 2.886.284 5.485 1.26 7.718 3.125.066.004.13.008.195.006l-.005.108c.354.132.742.22 1.03.442 1.174.904 1.124 2.168-.097 3.06-.155.113-.47.244-.557.174-.208-.165-.454-.445-.46-.683-.014-.996.046-1.994.084-2.993l-.084-.03c-.035-.03-.072-.054-.107-.084-.673-.03-1.377-.27-1.97.258-.668.598-1.005 1.377-1.06 2.268-.042.642-.042 1.285-.045 1.93-.01 3.002.005 6.006-.03 9.008-.062 5.688.27 11.356.68 17.024.066.875.16 1.74.845 2.35.287.262.74.48 1.115.473.576-.012.97-.483 1.106-1.015.13-.51.122-1.064.118-1.597-.02-1.5-.085-3.002-.096-4.5-.003-.413.112-.824.195-1.23.017-.09.133-.214.21-.217.083-.003.23.097.25.178.245 1.027.456 2.067.718 3.09.103.402.23.86.5 1.14.27.273.755.506 1.11.466.345-.037.82-.387.93-.706.2-.59.232-1.26.23-1.89-.02-4.4-.07-8.795-.1-13.193-.017-2.357-.017-4.718-.008-7.077 0-.203.115-.405.178-.606.146.125.348.224.433.384 1.13 2.103 1.717 4.36 1.967 6.73.133 1.27.384 2.538.704 3.775.21.816 1.187 1.22 2.112 1.048.8-.153 1.357-.992 1.284-1.946-.355-4.53-1.456-8.86-3.503-12.936zm-12.98-26.764c.078-.634.5-.89 1.083-.94.21-.02.427-.004.873-.004.085.014.45-.016.7.14.216.134.49.577.416.71-.626 1.155-1.557 1.996-2.848 2.364-.103.03-.418-.238-.414-.36.025-.636.112-1.272.192-1.908zm-50.1 1.714h-.088c0 .953.02 1.904-.01 2.856-.014.43-.165.814-.694.896-.542.083-1.094.12-1.423-.395-.338-.53-.676-1.096-.843-1.693-.41-1.454-.416-2.923.17-4.348.37-.894 1.072-1.27 2.012-1.222.46.023.84.264.862.733.046 1.056.014 2.112.014 3.172zm39.205-22.517c.002-.32.002-.64.002-1.19.04-.514.075-1.26.164-2 .02-.18.176-.43.33-.488s.45.026.56.156c1.313 1.564 2.358 3.283 2.92 5.263.194.686-.188 1.23-.94 1.355-.452.077-.864-.028-.99-.526-.077-.3-.01-.637-.053-.952-.092-.668-.18-.704-.775-.386-.277.15-.58.475-.813.43-.512-.104-.384-.63-.416-1.018-.01-.213.01-.427.01-.64zm-9.8-8.273c.176.046.34.143.508.22-.075.064-.166.194-.224.18-.174-.044-.334-.14-.504-.214.075-.064.166-.196.224-.184zm-.38 3.943c.08.235.21.474.213.712 0 .083-.314.17-.582.31-.048-.283-.15-.54-.11-.77.02-.108.312-.172.48-.253zM57.893 24.3c1.416-.44 2.816-.945 4.256-1.283 1.022-.24 2.007.977 1.69 1.984-.258.81-.55 1.607-.87 2.39-.24.594-.786.64-1.18.04-.487-.742-1-1.193-1.973-1.357-.73-.123-1.35-.896-2.013-1.387-.077-.055-.126-.15-.188-.224.092-.052.177-.127.275-.16zm-2.08.944c.11-.123.42-.206.547-.14.142.08.213.342.252.534.043.205.01.422.01.73-.024.222-.036.54-.104.85-.032.16-.164.298-.25.447-.068-.08-.156-.15-.2-.242-.224-.475-.498-.94-.622-1.44-.05-.21.186-.535.368-.74zm-4.578 9.58c.083.065.173.125.25.2.773.74 1.63.852 2.64.49.514-.184 1.083-.213 1.637-.284.043-.045.09-.085.128-.13.047-.034.096-.068.142-.103.04-.24.08-.477.113-.715.096-.687.186-1.372.277-2.06.69.12 1.38.24 2.072.358.003-.014.005-.03.01-.043.024 0 .042-.006.065-.008.033-.348.243-.514.563-.567 0-.032.008-.055.005-.09.028.003.05 0 .077 0 .008-.188 0-.38.06-.545.037-.108.227-.157.35-.23.037.095.11.19.107.285-.017.336-.198.498-.516.488 0 .024 0 .05-.002.076-.03.002-.053.01-.08.017-.003.367-.195.552-.566.565-.002.02-.01.037-.01.06l-.065-.01c-.072.264-.08.6-.254.74-.708.592-1.465 1.126-2.208 1.676L56 35.2l-.236.028c-.9.97-1.95 1.74-3.14 2.32-.435.21-.88.063-1.018-.368-.19-.602-.384-1.205-.528-1.82-.038-.158.1-.358.158-.537zm-4.757.488c.008-.1.064-.196.096-.293.085.105.22.2.252.322.203.79.397 1.58.548 2.38.018.1-.245.342-.387.35-.145.007-.4-.166-.435-.305-.103-.392-.117-.806-.143-1.003.027-.63.04-1.042.07-1.454zm8.29 49.378c-1.62-.043-3.147.315-4.642.923-1.035.42-1.23.24-1.277-.99-.02-.53-.004-1.06-.004-1.59h.032c0-.635-.035-1.274.016-1.905.023-.29.203-.617.62-.416 1.808.875 3.61 1.767 5.42 2.645.554.27 1.222.384 1.384 1.13-.517.074-1.037.22-1.552.206zm5.246 20.958c.06-.053.117-.105.18-.156.052.06.106.12.156.183l-.335-.028zm.832-2.464l-.17-.122.198-.07-.03.192zm1.195-17.028c-.16.132-.342.237-.52.352-.094-.156-.275-.315-.27-.466.012-.354.226-.606.613-.52.14.032.238.23.35.346-.065.11-.095.226-.172.288zm.47 10.994c-.19-.507.02-1.184.118-1.773.025-.15.284-.36.448-.373.613-.043 1.24-.06 1.852.002.467.048.755.65.676 1.237-.088.177-.13.45-.27.512-.468.207-.97.34-1.46.497-.48.15-1.132.506-1.364-.102zm3.04-10.67c-.295 0-.468-.462-.25-.666.117-.11.405-.183.512-.114.134.083.16.335.23.514-.164.096-.328.264-.49.267zm1.233 1.535c.18-.037.602.277.64.48.125.67-.378 1.2-1.042 1.227-.17-.1-.44-.163-.49-.307-.17-.472.32-1.28.893-1.4zm1.496 19.696c-.086.04-.21.058-.3.028-.847-.303-1.487-.828-1.614-1.765-.068-.515.002-1.047-.013-1.573-.02-.692-.333-1.188-.984-1.48-.318-.144-.91-.014-.816-.637.058-.39 1.13-.934 1.582-.818.18.047.422.195.472.35.625 1.894 1.22 3.8 1.832 5.737-.012.016-.076.117-.164.16zm10.207-25.884c-.395 1.867-.757 3.74-1.205 5.594-.242.986-.75 1.224-1.627.957-2.25-.686-4.317-1.777-6.354-2.928-.146-.084-.317-.343-.282-.47.048-.174.264-.317.433-.44.17-.12.364-.25.56-.29 2.743-.536 5.26-1.66 7.723-2.93.19-.1.494.02.725.043.017.252.05.363.028.462zm5.558-28.267c-.283 2.98-.62 5.96-1.067 8.92-.48 3.18-1.308 6.29-2.49 9.28-.42 1.06-1.18 2.045-1.968 2.897-2.404 2.603-5.464 4.15-8.894 4.84-2.3.464-4.665.595-6.258.786-5.835-.08-10.445-1.584-14.688-4.317-1.508-.97-2.52-2.288-3.072-3.98-.166-.508-.295-1.04-.544-1.51-1.34-2.536-1.293-5.38-1.845-8.095-.043-.206-.105-.46-.025-.636.725-1.608-.117-3.117-.26-4.67-.16-1.704-.344-3.407-.412-5.116-.077-1.93-.015-3.864-.05-5.795-.032-1.632-.45-2.118 1.798-2 .428.02.863.043 1.29.002 1.19-.11 2.01.11 2.226 1.552.107.723 1.04 1.06 1.856.78 1.99-.694 4.034-.383 6.06-.454.61-.02.977.355.988.996.03 1.607.022 3.215.014 4.823-.006.91-.405 1.653-1.042 2.277-.23.223-.49.415-.736.624-2.237 1.91-3.622 1.978-6.027.31-.755-.524-1.19-1.228-1.24-2.142-.052-1.07-.035-2.147-.112-3.215-.133-1.79-.903-3.314-1.377-2.933-.903.723-1.012 1.824-1.08 2.878-.08 1.284-.085 2.57-.1 3.86-.016 1.38.566 2.516 1.62 3.36 1.26 1.01 2.645 1.876 4.288 2.052 1.604.174 3.22.192 4.597-.925.427-.346.82-.194 1.003.283.37.966.768 1.813-.264 2.822-1.17 1.14-1.515 2.79-1.542 4.445-.015.96.382 1.713 1.28 2.032 3.26 1.155 6.595 1.792 10.073 1.27.846-.127 1.7-.182 2.552-.254 1.33-.112 2.14-1.045 1.988-2.336-.034-.317-.085-.65-.22-.933-.405-.87-.808-1.754-1.307-2.573-.33-.54-1.183-1.01-1.148-1.46.05-.64.647-1.28 1.115-1.834.242-.288.695-.52 1.07-.546.96-.06 1.932-.037 2.893.035 1.963.15 3.802-.558 5.71-.797.7-.085 1.37-.58 2.017-.956 1.1-.64 1.7-1.6 1.704-2.9.004-1.396-.01-2.79.035-4.183.015-.403.135-.85.356-1.176.133-.19.558-.234.85-.234.15-.003.424.235.427.366.017 1.493.1 2.994-.04 4.472zm-4.297-3.6c0 1.07-.025 2.142.008 3.212.043 1.308-.516 2.095-1.775 2.318-1.986.352-3.96.934-6.02.816-.8-.046-1.435-.33-2-.875-1.89-1.813-2.45-4.21-2.9-6.645-.117-.626-.095-1.28-.11-1.923-.023-.867.046-.86 1.033-.96 2.226-.225 4.443-.525 6.663-.773 1.166-.13 2.336-.263 3.507-.296 1.052-.03 1.525.47 1.568 1.59.046 1.175.01 2.354.01 3.534h.017zM67.04 56.442c.306.05.313.256.048.448-.337.246-.873.42-.98.737-.425 1.263-1.302 1.583-2.44 1.414-1.263.044-2.412-.176-3.284-1.08-.26-.266-.466-.78-.395-1.12.07-.346.463-.703.805-.895.352-.197.828-.32 1.224-.27 1.677.213 3.35.49 5.02.768zm-2.192-3.72c-1.372-.38-2.745-.272-4.132-.163-.453.036-1.12.694-1.34-.024-.197-.644.036-1.43.14-2.144.02-.128.326-.29.508-.3.745-.033 1.49-.015 2.237-.015v-.04c.43 0 .855-.012 1.28 0 1.25.038 1.25.044 1.68 1.424.067.205.155.4.21.606.15.54-.05.8-.576.656zm18.588-7.887c-.29.387-.936.402-1.028.043-.632-2.48-2.373-2.934-4.647-2.828-3.097.146-6.193.2-9.253.776-.675.125-1.167.42-1.53 1.023-.648 1.075-1.357 2.113-2.037 3.17-1.386.077-2.767.156-4.15.23-.213.01-.427.02-.64.007-.467-.03-.814-.222-.877-.733-.043-.317-.043-.64-.09-.956-.267-1.81-.606-2.113-2.483-2.185-.856-.032-1.713-.013-2.57-.05-.14-.008-.4-.207-.386-.288.025-.192.136-.437.29-.54.626-.41 1.282-.77 1.926-1.15 2.415-1.418 4.53-3.203 6.515-5.172 1.85-1.835 3.298-3.925 4.5-6.21.048-.087.35-.152.415-.094.153.134.235.35.34.533 1.2 2.084 2.897 3.673 4.836 5.064 2.157 1.547 4.464 2.5 7.17 2.29.743-.06 1.498-.06 2.245-.022.948.046 1.634.672 1.73 1.568.15 1.378.26 2.763.414 4.41-.147.24-.38.704-.687 1.11zm12.36 51.152c-.05.133-.3.205-.47.266-.078.027-.24-.01-.277-.072-.574-.958-.61-1.937-.07-2.918.038-.068.176-.13.253-.117.177.03.463.07.5.177.16.475.246.973.36 1.46-.1.428-.156.83-.3 1.203zm-1.13-6.01c-.012-.625-.012-1.263.12-1.866.048-.21.473-.463.73-.466.16-.002.34.41.49.65.05.083.023.208.053.577-.09.254-.233.75-.45 1.205-.07.147-.354.272-.528.256-.155-.01-.413-.226-.416-.357zm1.588-6.36c-.064.304-.21.644-.43.844-.284.254-.68.386-1.027.57-.1-.295-.207-.59-.294-.89-.03-.1-.004-.212-.004-.767.057-.18.186-.797.463-1.34.105-.208.565-.364.83-.317.212.037.486.384.528.632.068.41.02.856-.065 1.27zm-21.95-11.63c-.59.248-1.12.63-1.704.89-1.66.736-3.292 1.576-5.013 2.123-3.812 1.21-7.597 1.028-11.258-.682-.778-.363-1.515-.843-2.323-1.088-.58-.174-1.254-.088-1.877-.04-.424.032-.653.688-.368 1.03.405.482.796 1.03 1.312 1.364 3.032 1.973 6.304 3.168 9.864 2.827 4.512.374 8.31-1.275 11.94-3.45.43-.26.806-.71 1.056-1.157.27-.48.192-1.045-.183-1.5-.386-.468-.924-.54-1.444-.317zM52.19 52.452c.756.21 1.494.13 2.105-.432 1.358-1.254 1.257-3.72-.195-4.842-1.186-.917-3.008-.29-3.324 1.156-.09.416-.113.847-.166 1.267.046.437.058.87.143 1.286.164.8.655 1.35 1.44 1.568zm22.404-6.082c-.562-.375-1.22-.404-1.81-.063-1.117.644-1.602 1.64-1.488 2.637.032.505.037.715.06.925.113 1.14.727 1.85 1.7 1.976 1.098.14 2.346-.42 2.73-1.22.635-1.334.075-3.414-1.192-4.255z"/></svg>