<svg xmlns="http://www.w3.org/2000/svg" width="128" height="128" viewBox="0 0 128 128"><path d="M86.79 94.962c.225-1.636.568-3.26.92-4.873.33-1.51-.07-2.705-1.465-3.394-.74-.367-1.06-.955-1.296-1.64-.305-.878-.59-1.766-.82-2.67-.27-1.063-.61-1.98-1.97-1.97-.268.002-.603-.216-.79-.433-1.77-2.045-3.534-4.098-3.514-7.044.004-.41-.113-.82-.18-1.228-.434-2.573-.446-5.144-.022-7.723.132-.814.173-1.644.203-2.47.06-1.552.043-3.11.14-4.66.044-.707.175-1.453.468-2.086.186-.398.814-.93 1.127-.864.928.2 1.404.012 1.442-.96.036-.916.517-1.2 1.393-1.204.97-.004 1.45-.693 1.675-1.557.1-.4.14-.823.15-1.233.042-2.392.5-4.715 1.002-7.05.763-3.534 1.4-7.103 1.91-10.684.645-4.54.152-9.105.054-13.66-.003-.105-.012-.208-.03-.31-.34-1.735-1.113-3.08-2.977-3.59-.99-.27-1.953-.683-2.892-1.114-.86-.4-1.7-.69-2.677-.645-1.115.056-2.013-.47-2.606-1.408-.96-1.512-2.34-2.618-3.597-3.848-1.065-1.043-2.348-1.7-3.745-2.127-1.387-.42-2.795-.736-4.267-.74-1.355-.004-2.83-.074-3.808-1.03-.917-.893-1.82-.844-2.848-.686-1.014.158-1.983.53-3.058.292-2.28-.5-4.267.175-6.06 1.62-2.218 1.796-3.84 4.06-5.104 6.57-.67 1.334-.81 2.77.036 4.15.213.35.427.727.525 1.12.222.9.733 1.43 1.636 1.67.192.054.466.527.405.707-.36 1.06-.796 2.096-1.23 3.13-.122.288-.28.245-.433-.038-.243-.457-.485-.918-.792-1.327-.5-.66-1.338-.516-1.74.256-.447.863-.653 1.714-.193 2.66.676 1.395 1.304 2.813 1.92 4.233.06.14-.107.377-.17.567-.076-.025-.185-.026-.225-.08-1.397-1.942-2.737-3.916-2.74-6.446 0-.943-.402-1.54-1.298-1.882-.47-.18-.14-.533.07-.655.436-.253.914-.442 1.394-.605.582-.2 1.2-.303 1.773-.526.668-.26.85-1.333.28-1.838-.368-.323-.86-.61-1.33-.687-1.388-.222-2.672.125-3.81.97-2.15 1.593-3.67 3.636-4.39 6.23-1.238 4.457-1.2 8.787 1.244 12.9.53.89.935 1.847 1.44 2.75.385.69.49 1.342.08 2.05-.206.358-.356.748-.52 1.13-.772 1.818-.87 3.58.27 5.32.45.683.766 1.47 1.03 2.25.64 1.89 1.727 3.524 2.86 5.13.417.59.9 1.143 1.22 1.78.46.9.657 1.928 1.734 2.42.3.14.544.654.597 1.025.268 1.963 1.117 3.716 1.807 5.534.197.522.41.884.896 1.143.712.38.97 1.045.973 1.818.01 3.315.032 6.63.01 9.947-.004.5-.1 1.077-.356 1.487-.983 1.563-1.92 3.13-3.58 4.187-1.855 1.183-3.79 2.13-5.855 2.823-5.696 1.903-11.394 3.79-16.604 6.863-.443.262-.915.504-1.406.654-1.59.48-2.32 1.658-2.603 3.178-.53 2.853-.84 5.732-.842 8.643 0 .983.112 1.908 1.17 2.308.923.35 1.643-.117 2.158-.81.668-.893 1.06-.323 1.677.087 1.16.768 2.045.462 2.81-.78.108-.173.193-.368.266-.56.186-.495.426-.53.906-.272 1.167.634 2.275 1.424 3.71 1.406 1.028-.014 2.056.09 3.085.14-.04 1.166-1.005 1.897-1.375 2.912-.176.484-.43.95-.712 1.38-.663 1.013-.462 1.98.128 2.912.33.523.694 1.04 1.13 1.472 1.617 1.603 3.23 3.217 4.924 4.736 1.845 1.658 3.952 3.008 5.608 4.893.393.448.97.816 1.658.655.728-.168 1.495-1.102 1.472-1.813-.02-.602-.196-1.21-.146-1.803.036-.437-.18-.594-.456-.62-1.26-.11-1.94-1.13-2.845-1.783-.803-.58-.78-.77-.064-1.36.39-.322.805-.644 1.1-1.05.14-.19.12-.627-.006-.846-.128-.222-.49-.446-.736-.43-.5.025-.994.234-1.496.32-.173.03-.372-.09-.558-.14.08-.16.153-.322.24-.478.247-.443.545-.866.737-1.33.184-.436-.356-1.083-.85-1.036-.403.035-.854.063-1.185.257-.62.37-1.16.864-1.742 1.295-.377.277-.79.275-1.127-.032-.46-.416-.88-.873-1.3-1.33-.415-.452-.342-.877.244-1.255.956-.617 1.948-1.18 2.896-1.806.69-.46.66-1.215-.03-1.8-.076-.068-.174-.12-.27-.153-.643-.224-.644-.497-.284-1.088.873-1.44.798-2.33.058-3.08-.79-.8-1.9-.745-2.824-1.18.805-.533 1.62-1.054 2.403-1.618.12-.085.18-.424.11-.57-.126-.25-.335-.55-.577-.634-.922-.315-1.845-.102-2.743.164-.884.264-1.752.593-2.634.88-.07.022-.24-.05-.256-.11-.046-.168-.117-.434-.037-.516.355-.355.717-.757 1.16-.96 1.128-.512 2.325-.873 3.445-1.402.535-.253.974-.73 1.425-1.14.243-.225.023-.975-.314-1.036-.776-.14-1.56-.224-2.34-.33-.01.022-.02.04-.02.067-.034.003-.066.003-.098.005-.144.605-.657.487-1.088.527-.01.034-.026.063-.032.106l-.175.016c-.093.112-.184.232-.303.282-.14.058-.333-.02-.5-.043.136-.065.266-.15.41-.185.13-.032.26-.043.393-.055.03-.037.06-.075.092-.11.035-.007.074-.01.112-.014.16-.56.645-.508 1.088-.528.01-.03.02-.05.026-.083l.094.012c.156-.567.743-.57 1.14-.82.522-.332 1.113-.582 1.556-.995.253-.235.36-.72.373-1.096.017-.445-.628-.842-1.17-.75-.5.082-1.01.194-1.487.377-.77.3-1.51.68-2.275.995-.14.06-.46.013-.49-.064-.106-.277-.25-.648-.142-.868.164-.34.473-.72.81-.85 2.79-1.096 5.6-2.14 8.408-3.19.392-.148.635.172.67.428.08.61.055 1.24.047 1.86-.07 5.058 1.15 9.844 3.18 14.43 1.535 3.468 3.836 6.37 6.826 8.726 1.382 1.088 2.656 2.31 4.008 3.44.79.66 1.594 1.33 2.47 1.87.95.58 2.26.334 2.706-.65.538-1.18 1.29-1.753 2.532-1.923.6-.08 1.184-.372 1.74-.643 1.042-.512 1.31-1.355.778-2.555-.178-.4-.363-.703-.055-1.103.188-.245.454-.525.46-.794.024-1.17.232-2.187 1.243-2.98.512-.404.422-1.134.186-1.743-.11-.282-.46-.606-.388-.79.132-.347.448-.68.776-.872.16-.095.663.05.755.22.48.912.918 1.853 1.306 2.81.698 1.726 1.272 3.508 2.053 5.196.48 1.045.902 1.94.596 3.19-.267 1.09 1.067 1.94 2.09 1.39.805-.43 1.556-1.016 2.21-1.653.588-.57 1.068-1.276 1.497-1.98 1.937-3.18 3.9-6.35 5.743-9.59 1.75-3.08 2.91-6.39 3.397-9.925zM37.86 24.658c.037.096.076.19.11.288l-.063.284c-.072-.11-.176-.21-.205-.33-.015-.065.1-.16.158-.242zm-.96-2.578c.055-.192.148-.373.223-.557.102.132.224.256.3.4.045.083.018.202.024.305l-.205.565c-.102-.14-.22-.27-.3-.42-.046-.082-.068-.206-.042-.295zm4.428 17.778l-.032.09-.075.083c-.036 2.086-.07 4.167-.113 6.25-.002.087-.064.228-.123.245-.08.02-.21-.027-.283-.09-1.375-1.166-1.825-3.196-.94-4.677.38-.64.958-1.16 1.46-1.728v-.156c.033-.008.07-.01.108-.016l.136-.37c.307.342.07.347-.136.37zm.275-3.634c-.497-.053-.986-.184-1.316-.252-1.35-.94-2.223-2.07-3.032-3.253-.715-1.047-.9-2.068-.614-1.883.493.32.975.74 1.275 1.233.998 1.64 2.577 2.588 4.078 3.64.075.05.096.177.144.267-.178.09-.365.267-.53.248zM19.95 100.002c0 .403.017.806-.006 1.21-.01.193-.098.383-.15.575-.058-.18-.157-.363-.163-.547-.02-.603-.03-1.21.006-1.813.01-.203.168-.4.256-.602.047.192.108.38.13.574.02.2.002.4.002.602h-.07zm61.67-64.365c-.18 1.626-.417 3.246-.644 4.868-.027.194-.117.405-.245.555-.18.22-.42.388-.636.578-.126-.156-.326-.293-.367-.467-.363-1.592-.72-3.187-1.032-4.792-.315-1.613.008-1.965 1.714-2.008.98-.024 1.322.292 1.213 1.268zm.026-5.004c-.8.192-1.604.367-2.41.533-.202.04-.412.026-.735.043-.17-.098-.43-.237-.675-.397-.073-.05-.146-.18-.128-.258.032-.168.103-.452.192-.465 1.213-.16 2.43-.273 3.596-.726.18-.07.56.16.74.352.188.207-.22.832-.58.917zm.89-5.15c-.02.01-.04.01-.06.015l-.11.122c-.072.03-.144.06-.212.093l-.136.205c.02-.064.027-.147.07-.177.02-.01.043-.015.064-.025.043-.06.08-.12.12-.18.07-.012.14-.017.204-.033.053-.06.11-.12.16-.18-.032.058-.05.14-.1.165zm-.26-9.118c.266-.56.72-.578 1.123-.01.34.482.585 1.037.89 1.584-.27.642-.36 1.347-.76 1.732-1.485 1.434-3.04 2.797-4.637 4.104-.444.363-1.11.486-1.694.634-.428.108-.84-.106-1.014-.515-.205-.483-.263-1.02.12-1.455.2-.224.487-.38.758-.525 2.352-1.273 4.067-3.138 5.21-5.55zm-8.543-2.494c.205 0 .41.03.775.06 1.003-.223 1.832.164 2.34 1.27.166.36.543.62.797.94.39.49.34.85-.16 1.324-.224.21-.453.42-.693.614-1.734 1.4-1.74 1.397-2.59-.786-.338-.863-.713-1.71-1.05-2.572-.166-.42.133-.843.58-.847zm-4.568-5.54c.02-.37.252-.723.386-1.084.327.24.727.42.96.73.433.572.783 1.21 1.14 1.837.504.878.483.997-.478 1.83-.423.37-.605.8-.637 1.34-.046.81.183 1.663-.344 2.4-.043.06-.16.09-.245.092-.092 0-.24-.026-.262-.08-.112-.28-.25-.572-.27-.865-.08-1.135-.118-2.273-.174-3.41h-.093c0-.932-.037-1.864.02-2.79zm-2.95-.43c.022-.26.01-.696.436-.576.237.066.597.466.554.61-.538 1.807-.49 3.668-.604 5.516-.015.2-.1.392-.154.59-.06-.192-.16-.38-.17-.576-.065-.928-.104-1.856-.18-3.344.017-.37.05-1.296.117-2.22zm-3.798.01c.02-.526.274-1.003.802-1.234.176-.077.42-.146.58-.085.152.06.365.334.332.45-.733 2.705-1.043 5.46-1.154 8.25-.01.193-.14.38-.21.566-.08-.168-.2-.33-.225-.506-.058-.412-.087-.826-.093-1.238-.016-.828-.005-1.655-.005-2.483H62.4c0-1.24-.032-2.48.014-3.72zm-4.11-.396c.002-.128.317-.384.402-.352.237.09.606.29.615.46.056 1.115.028 2.234.028 3.352h-.047c0 .51.038 1.02-.008 1.525-.07.735.214 1.53-.34 2.19-.224-.67-.602-1.328-.638-2.007-.094-1.716-.04-3.444-.015-5.166zm-3.752.908c.115.093.307.167.33.278.063.288.05.592.076 1.03-.04.255-.1.643-.18 1.027-.02.088-.112.16-.173.24-.043-.09-.117-.178-.125-.27-.042-.687-.074-1.375-.092-2.065-.002-.08.107-.16.167-.24zm-3.888 2.065c.096-.07.452.01.47.075.485 1.99.97 3.983 1.393 5.987.15.7-.578 1.37-1.564 1.57-.547.11-1.245-.29-1.416-.93-.292-1.088-.51-2.195-.62-2.697-.13-2.106.602-3.17 1.738-4.005zM45.803 47.33c-.103-.816-.064-1.655-.023-2.48.112-2.376.215-4.75.405-7.12.156-1.956.444-3.9.646-5.85.074-.688.38-1.134 1.007-1.427.5-.235.866-.71.704-1.248-.255-.836-.044-1.01.806-1.067 1.032-.066 1.23-.5.926-1.443-.16-.49-.33-.98-.53-1.457-.197-.475-.53-.917-.625-1.408-.067-.34.05-.94.286-1.08 1.334-.77 2.657-1.706 4.114-2.07 1.883-.472 3.833-.98 5.824-.745 1.633.192 3.28.377 4.876.747 1.704.397 3.362 1 5.035 1.53.495.156.957.378 1.15.936.7 2.043 1.375 4.094 2.122 6.117 1.258 3.424 1.636 7.037 2.318 10.58.43 2.234.742 4.485 1.07 6.735.106.712.223 1.47.095 2.16-.836 4.463-.878 9.045-2.227 13.44-.722 2.357-1.04 4.85-1.378 7.305-.23 1.668-.862 3.182-1.387 4.742-.217.644-.735 1.01-1.426.987-2.878-.094-5.762.443-8.645-.313-1.164-.302-2.47-.05-3.628-.05-1.116-.182-2.13-.37-3.15-.51-.416-.054-1.19-.374-.672.634.004.01-.288.25-.388.218-.17-.057-.347-.22-.427-.383-.864-1.76-1.572-3.574-2.133-5.46-.674-2.28-1.568-4.488-2.344-6.735-.267-.78-.572-1.564-.685-2.37-.603-4.3-1.167-8.603-1.707-12.91zm14.983 53.473c-.467 2-1.312 3.883-1.845 5.862-.113.427-.717.702-.99 1.117-.213.32-.483.87-.35 1.11.69 1.23-.08 2.164-.533 3.148-.363.786-1.126 1.007-1.792.56-2.423-1.62-4.648-3.455-6.276-5.936-2.017-3.072-3.31-6.432-4.078-10.005-.106-.498-.208-.994-.29-1.49-.01-.06.122-.144.188-.213.096.034.21.047.292.107.742.555 1.528 1.064 2.21 1.685 1.164 1.055 2.448 1.91 3.868 2.57 1.502.697 2.994 1.382 4.34 2.39 1.115.835 2.418.44 3.18-.78.22-.347.377-.736.547-1.116.174-.384.408-.843.86-.604.31.16.475.64.65 1.002.08.162.068.4.022.59zm4.528-9.374c-.098-.07-.196-.143-.293-.215.07-.06.15-.168.215-.163.067.004.128.123.192.192l-.112.184zm-.36-4.187c-.445.21-.914.54-1.393.035-.44-.468-.937-.8-1.626-.74-.686.06-1.088.53-1.528.973-.11.11-.292.156-.46.214l.017.107-.11.063c-.277 3.157-1.43 5.89-3.872 8.01-.824.716-1.282.773-2.172.038-.71-.59-1.416-1.226-1.96-1.962-1.172-1.58-2.227-3.245-3.353-4.856-.44-.626-.203-1.15.09-1.725.267-.53.565-.77 1.205-.594 1.79.495 3.598.94 5.407 1.37.7.165 1.43.22 2.142.352.944.18 1.743-.158 2.51-.634.005-.047.014-.093.018-.14.024-.01.052-.02.077-.028-.243-2.05-.572-2.48-2.394-2.907-2.01-.47-4.04-.87-6.06-1.298-.303-.064-.617-.083-.915-.163-2.078-.557-2.29-.78-2.38-2.99-.07-1.757-.036-3.52-.03-5.28 0-.197.102-.396.16-.593.127.13.31.234.372.385.255.672.517 1.35.708 2.044.352 1.28 1.27 1.87 2.485 2 1.026.11 2.07.067 3.104.1 1.13.034 2.212.14 3.337.474 1.353.398 2.86.277 4.3.376.096.006.22-.028.293-.088 1.523-1.248 3.34-.768 5.056-.858 1.133-.06 2.28.026 3.414-.032 1.074-.056 2.037-.424 2.624-1.408.698-1.163 2.163-1.587 2.744-2.863.018-.04.412 0 .43.065.51 1.68 1.005 3.362 1.468 5.056.19.69-.047 1.174-.753 1.503-1.22.567-2.476 1.056-3.694 1.624-3.09 1.446-6.17 2.923-9.262 4.373zm4.496 2.112c.32-.248.683-.457 1.056-.622 2.83-1.253 5.66-2.514 8.51-3.718.615-.258 1.288-1.05 1.9-.544.476.4.57 1.27.805 1.94.173.487.298.988.436 1.458-.105.207-.18.394-.288.56-.053.082-.15.15-.24.195-2.604 1.333-4.738 3.294-6.91 5.207-.308.272-.618.576-.98.74-.235.11-.718.11-.843-.042-1.237-1.52-2.426-3.076-3.603-4.642-.067-.093.035-.437.16-.53zm6.715 20.764c-.41.66-.512 1.62-1.496 1.823-.343-.62-.736-1.218-1.02-1.86-.96-2.17-1.89-4.353-2.814-6.542-.273-.643-.804-1.422-.63-1.945.234-.704.987-1.278 1.614-1.79.26-.213.776-.192 1.167-.158 1.032.083 1.734-.363 2.39-1.13 2.026-2.372 4.5-4.24 7.023-6.038.158-.114.38-.134.573-.197.155.105.37.175.445.32.088.164.09.4.06.593-.644 3.907-1.932 7.595-3.867 11.044-1.11 1.983-2.255 3.948-3.446 5.88zm35.78-13.47c-.34-.774-.635-1.537-.38-2.25.364-1.442-.17-2.406-1.26-3.02-1.167-.654-2.37-1.28-3.62-1.747-4.748-1.78-9.516-3.494-14.282-5.227-.78-.283-1.554-.597-2.36-.77-.694-.15-1.432-.164-2.15-.15-.614.016-1.13.588-1.22 1.217-.082.56.11 1.035.57 1.347.338.23.726.39 1.103.55 2.097.884 4.203 1.753 6.293 2.644.5.21.862.587.85 1.173-.048 2.072-.07 4.146-.18 6.216-.108 2.016-.244 2.1-2.425 2.28-.31.027-.622.03-.928.08-1.144.193-1.76 1.292-1.267 2.333.716 1.506 1.612 2.896 2.85 4.036.534.49 1.11.936 1.6 1.466.807.875.764 1.323-.133 1.993-.995.745-2 1.474-3.016 2.19-3.755 2.645-6.91 5.933-9.99 9.303-.57.623-1.04 1.27-1.01 2.187.037 1.224 1.39 2.105 2.42 1.473.6-.37 1.18-.853 1.62-1.402 2.35-2.924 5.06-5.48 8.01-7.777 1.716-1.337 3.508-2.57 5.26-3.865.414-.305.843-.61 1.18-.992 1.005-1.122 1.076-2.172.134-3.358-.964-1.216-2.03-2.347-3.056-3.51-.277-.317-.574-.694-.02-.947 1.434-.654 1.79-1.933 1.955-3.295.1-.82.026-1.66.043-2.487.032-1.552.06-3.107.112-4.658.016-.465.437-.688.917-.527.292.1.576.228.86.352.428.186.645.497.478.964-.515 1.46-1.11 2.9-1.543 4.385-.228.773-.246 1.626-.246 2.443.003.67.445 1.154 1.067 1.396.663.258 1.218-.043 1.703-.464.753-.65 1.148-1.493 1.045-2.482-.155-1.506.365-2.856.894-4.203.146-.365.464-.693.974-.563.36.092.63.587.504.99-.277.89-.592 1.764-.853 2.658-.437 1.488-.877 2.978-1.254 4.482-.152.617.406 1.41 1.036 1.75.636.342 1.2.166 1.744-.185.172-.112.39-.236.46-.406.576-1.426 1.572-1.386 2.756-.86.47.207.97.436 1.465.466.353.02.807-.2 1.06-.46.267-.277.42-.715.498-1.105.252-1.236.264-2.48-.256-3.664zM49.233 40.48c.55.234 1.195.41 1.777.367 1.44-.1 2.87-.34 4.305-.527.683-.09.922.117.9.83-.127 4.244.193 8.468.545 12.692.156 1.9.834 2.29 2.453 2.683.49.12 1.027.072 1.29.087 1.51-.015 1.814-.094 2.607-.61.722-.472.68-1.69-.085-2.095-.27-.14-.565-.28-.86-.31-.616-.058-1.24-.026-1.86-.063-.656-.038-.958-.314-1.003-.926-.262-3.505-.507-7.012-.772-10.517-.092-1.23-.203-2.466-.355-3.694-.123-.988-.64-1.533-1.574-1.628-2.29-.238-4.544-.02-6.725.74-.373.128-.704.425-1.01.693-.773.687-.606 1.865.37 2.278zm19.53 18.22c-.55-.347-1.588-.3-2.042.156-.36.363-.726.754-.97 1.2-.847 1.55-2.27 2.026-3.882 2.135-.824.058-1.653 0-2.482-.002-.516-.002-1.035-.023-1.55.016-.592.045-1.25.61-1.364 1.11-.112.483.232 1.285.777 1.575.443.236.943.447 1.434.494.82.08 1.653.02 2.48.02v.076c.52 0 1.037-.022 1.554.003 1.528.075 2.842-.508 4.032-1.376 1.283-.937 2.19-2.18 2.587-3.74.162-.628-.136-1.394-.572-1.668zM64.53 39.162c1.495.315 3.003.57 3.828.725 1.442.078 2.13-.032 2.554-.752.557-.955.177-2.144-.875-2.524-1.776-.64-3.608-.585-5.435-.243-.544.1-1.045.826-1.062 1.376-.018.553.442 1.303.992 1.42zm4.522 3.847c-.486-.223-1.05-.12-1.397.315-.907 1.13-1.013 2.42-.597 3.77.207.662.95 1.08 1.717 1.022.594-.046 1.04-.523 1.127-1.245.064-.51.09-1.02.147-1.68-.045-.365-.02-.906-.19-1.366-.128-.334-.478-.67-.81-.82zm-18.473.944c-.594.907-.658 1.902-.535 2.93.067.567.67 1.06 1.286 1.108.65.05 1.328-.288 1.507-.8.132-.378.198-.776.337-1.338-.166-.553-.288-1.255-.592-1.872-.387-.79-1.53-.76-2.005-.03z"/></svg>