<svg xmlns="http://www.w3.org/2000/svg" width="128" height="128" viewBox="0 0 128 128"><path d="M122.098 101.088c-.23-.33-.448-.736-.495-1.127-.263-2.25-1.605-3.72-3.38-4.94-2.148-1.473-3.966-3.313-5.753-5.19-2.42-2.547-4.885-5.056-7.302-7.61-.923-.975-1.787-2.01-2.653-3.04-.93-1.105-1.707-2.39-2.784-3.316-1.136-.98-.915-2.51-1.822-3.515-.067-.08-.134-.16-.203-.236-.413-.463-.3-.922-.032-1.414.346-.633.683-1.277.975-1.938 1.458-3.285 1.945-6.73 1.613-10.293-.133-1.44-.34-2.873-.532-4.307-.548-4.113-2.04-7.778-5.102-10.695-.45-.428-.885-.87-1.315-1.318-.79-.83-.855-1.202-.084-2.112 2.003-2.368 4.046-4.704 6.1-7.03.865-.978 1.044-1.02 2.05-.273 1.197.885 2.43 1.568 3.98 1.472.51-.03 1.034-.015 1.548 0 2.13.063 3.8-.91 5.184-2.4 1.06-1.142 1.8-2.48 2.223-4.03 1.025-3.76-.75-7.68-4.31-9.236-.464-.202-.972-.366-1.474-.423-1.88-.213-3.73-.038-5.465.762-2.084.962-3.565 2.472-3.935 4.834-.175 1.12-.324 2.253-.337 3.38-.01.99-.256 1.804-.924 2.54-2.157 2.372-4.277 4.78-6.426 7.157-.414.457-.875.886-1.374 1.246-.192.138-.612.156-.817.035-.8-.47-1.533-1.055-2.33-1.532-2.53-1.51-5.248-2.403-8.227-2.413-1.76-.006-3.52-.04-5.277-.09-2.555-.076-4.883.735-7.144 1.8-.934.434-1.82.967-2.726 1.457-1.18-.377-1.595-1.55-2.38-2.333-1.126-1.126-1.108-1.2-.273-2.52.748-1.18 1.103-2.42 1.07-3.817-.03-1.147-.23-2.238-.544-3.347-.743-2.612-2.624-4.41-4.384-6.282-.46-.485-1.25-.784-1.934-.907-1.97-.348-3.914-.253-5.74.726-1.664.893-2.983 1.99-3.85 3.824-.886 1.877-1.01 3.758-1.083 5.72-.072 1.96.442 3.728 1.91 5.052.88.795.767 1.54.436 2.49-1.095 3.12-2.172 6.244-3.19 9.39-2.223 6.87-5.027 13.565-6.254 20.735-.085.497-.123 1.173-.445 1.42-.433.33-1.123.33-1.704.462-1.406.32-2.845.497-4.142 1.227-.732.41-1.013.29-1.6-.347-1.824-1.977-3.654-3.95-5.455-5.946-.9-.996-1.744-2.045-2.613-3.07-.437-.516-.582-1.09-.29-1.724.818-1.778.54-3.65.497-5.505-.053-2.403-1.03-4.35-2.795-5.964-2.188-1.998-4.618-2.334-7.11-.866-2.053 1.21-3.868 2.77-5.385 4.64-.61.754-1.045 1.59-.928 2.556.238 1.947.358 3.942.91 5.806.977 3.317 3.577 4.79 6.56 4.505 1.33-.127 2.72-.212 3.946-.682 1.082-.416 1.675-.284 2.385.562 2.46 2.93 4.972 5.813 7.48 8.7.47.54.556 1.043.177 1.67-1.333 2.217-1.606 4.652-1.46 7.18.092 1.59.79 2.784 2.226 3.46 3.105 1.46 6.31 1.928 9.59.65 3.23-1.258 4.88-3.675 4.99-7.14.03-.825 0-1.66.098-2.48.218-1.823-.064-3.546-1.288-4.93-.8-.91-.952-1.756-.52-2.82.23-.573.37-1.182.576-1.766 2.49-7.117 5.017-14.22 7.456-21.354.9-2.636 1.6-5.34 2.373-8.016.395-1.363.82-1.68 2.233-1.455.814.127 1.636.54 2.418.458 1.472-.15 2.315.448 2.973 1.675.437.81 1.09 1.508 1.61 2.278.625.92.655 1.09.01 1.92-1.47 1.9-2.518 4.035-3.505 6.198-.862 1.888-1.458 3.858-1.44 5.977.008.72-.117 1.443-.21 2.16-.214 1.633-.442 3.266-.662 4.9l.203.02c0 1.036-.014 2.068.006 3.1.008.414.047.834.146 1.233 2.11 8.56 7.263 14.22 15.88 16.512 1.696.45 3.428.762 5.15 1.108 1.542.31 3.023.26 4.548-.363 1.803-.736 3.712-1.24 5.593-1.77.324-.09.816.102 1.12.32.5.356.91.84 1.353 1.273.537.523 1.184.968 1.916.9 1.362-.13 2.05.607 2.714 1.628.955 1.473 2 2.89 3.054 4.29 1.674 2.237 3.365 4.458 5.087 6.65 3.005 3.83 6.095 7.58 9.682 10.893.524.485.975 1.06 1.396 1.643 1.182 1.635 2.97 2.383 4.805 1.82.98-.302 1.91-.78 2.83-1.247 2.022-1.025 3.87-5.048 2.33-7.276zm-16.67-75.573c.062-1.536.86-2.172 2.384-1.9.72.127 1.26.79 1.248 1.5-.013.852-.373 1.578-.87 2.22-.427.552-.892 1.15-1.712 1.088-.572-.043-.992-.885-1.045-1.998-.01-.2 0-.403 0-.606-.002-.104-.006-.205-.002-.306zm-88.995 29.45c-.14.274-.288.555-.488.782-.457.53-.83 1.246-1.724 1.045-1.237-.282-1.81-.877-1.977-2.054-.045-.305-.043-.615-.075-1.157.207-.233.46-.705.85-.91 1.154-.614 2.187-.208 3.102.593.45.4.586 1.163.312 1.705zm20.612 24.022c-.128.58-1 1.26-1.31.992-.35-.306-.568-.784-.784-1.218-.067-.135-.003-.497.09-.538 1.54-.632.983-1.636.51-2.643-.02-.04.087-.196.146-.202.178-.024.445-.07.528.025.324.366.66.75.856 1.192.156.35.114.787.16 1.175-.065.42-.104.82-.193 1.214zm18.13-50.667c-.127.05-.455-.08-.485-.187-.245-.872-.445-1.76-.574-2.29-.066-.854.58-1.222 1.088-1.03.747.282 1.2.822 1.218 1.597.02.88-.392 1.576-1.248 1.913zm13.38 14.773c2.823-2.325 5.858-4.176 9.71-4.056 2.745-.092 4.925 1.227 6.984 2.82.414.32.247.754-.03 1.08-.93 1.097-1.923 2.145-2.825 3.265-.594.734-1.154.932-2.114.605-1.85-.63-3.647-.25-5.31.757-.524.32-1.07.622-1.544 1.006-.5.407-.934.388-1.312-.075-1.227-1.517-2.443-3.044-3.62-4.597-.127-.17-.092-.68.06-.803zm11.922 10.955c-.18.893-.435 1.787-.8 2.618-.113.253-.704.463-1.03.41-.332-.052-.737-.398-.876-.716-.194-.45-.174-.995-.254-1.534.123-.582.235-1.187.38-1.78.24-.987.65-1.54.973-1.334.5.322.995.707 1.354 1.173.224.288.33.798.256 1.163zm11.918 13.91c-2.926 2.858-6.4 4.847-10.276 6.122-.663.22-1.415.293-2.117.256-1.437-.075-2.867-.29-4.303-.42-2.947-.26-5.593-1.35-8.068-2.908-.088-.053-.18-.11-.25-.18-1.26-1.332-2.672-2.553-3.744-4.022-2.138-2.927-2.394-4.128-2.39-8.38-.16-4.013 1.11-7.86 3.577-11.338.376-.528.864-.576 1.27-.11 1.087 1.244 2.096 2.56 3.263 3.722.976.973 1.587 1.89.725 3.215-.504 2.893-.134 5.506 2.064 7.723 2.557 2.58 7.34 2.493 9.593.277 2.907-2.86 4.416-6.182 3.344-10.334-.053-.2-.085-.403-.15-.597-.246-.753-.126-1.41.438-1.992.72-.74 1.393-1.524 2.13-2.247 2.395-2.347 1.86-2.958 4.292.497.593.842 1.073 1.76 1.596 2.65 3.05 5.165 2.485 10.48.572 15.808-.3.837-.917 1.627-1.565 2.26zm2.24 13.258c-.075-.068-.18-.122-.22-.205-.08-.17-.24-.452-.174-.527.46-.53.95-1.037 1.474-1.496.05-.043.59.264.63.463.135.682-.89 1.69-1.708 1.764zm7.175 5.282c-.192.165-.445.256-.683.367-.003.038-.005.08-.01.117-.036.007-.08.007-.123.007l-.19.344c-.22-.367-.004-.346.19-.346l.047-.086.087-.04c.02-.252.02-.512.11-.738.053-.132.303-.235.478-.262.31-.05.395.37.096.634zM117.03 104c-.622.053-1.58-.516-1.674-1.037-.053-.3.023-.623-.03-.922-.157-.883-.674-1.31-1.488-1.146-.683.136-1.35.66-1.97-.098-.496-.603-.016-1.15.084-1.733.21-1.22-.715-2.008-2.093-1.845-.98.114-1.028.128-1.346-.907-.207-.67-.593-.99-1.23-1.217-1.283-.46-1.268-.5-.96-1.944.022-.1.083-.195.1-.293.13-.797-.313-1.46-1.093-1.55-.506-.06-1.023.01-1.533-.016-.457-.02-.67-.46-.427-.893.254-.446.505-.907.85-1.276.148-.16.625-.24.783-.122.49.363.944.8 1.34 1.27 2.674 3.156 5.534 6.11 8.835 8.634.97.74 1.803 1.69 2.58 2.636.284.337.307.946.317 1.434.005.422-.672 1.003-1.045 1.03z"/></svg>