<svg xmlns="http://www.w3.org/2000/svg" width="128" height="128" viewBox="0 0 128 128"><path d="M104.74 95.075c-1.028-1.624-2.208-3.157-3.35-4.708-.76-1.035-1.63-1.99-2.35-3.05-2.234-3.276-4.414-6.587-6.62-9.88-1.095-1.633-1.71-3.446-2.05-5.366-.375-2.104-.8-4.2-1.108-6.32-.603-4.142-.97-8.313-.59-12.494.283-3.108.336-6.197.006-9.3-.1-.958-.1-1.932-.06-2.894.106-2.57.215-5.14.404-7.706.18-2.485-.035-4.917-.643-7.332-1.24-4.91-2.996-9.557-5.85-13.824-3.724-5.568-12.794-9.92-20.36-8.188-.937.213-1.9.384-2.857.42-2.688.1-5.306.73-7.96 1.002-3.3.334-5.852 2.074-8.178 4.096-2.336 2.034-4.28 4.508-5.984 7.12-.64.98-1.13 2.06-1.665 3.102-1.62 3.163-2.556 6.586-3.7 9.925-1.296 3.774-1.964 7.666-1.925 11.67.022 2.145-.003 4.29.01 6.436.035 5.795-.435 11.564-.83 17.334-.15 2.242-.434 4.475-.714 6.702-.292 2.335-.698 4.657-.962 6.996-.17 1.49-.23 2.997-.227 4.497 0 .723.126 1.51.437 2.155.366.757.304 1.45.11 2.176-.5 1.88-1.228 3.615-2.578 5.108-3.01 3.328-4.31 7.328-4.282 11.792.01 1.717.048 3.435-.043 5.148-.053 1.013.06 1.89.733 2.688.473.56.288 1.156.02 1.794-.22.53.255 1.104.774 1.062.422-.032.877-.03 1.254-.192 1.574-.678 3.14-1.38 4.673-2.144.46-.228.818-.672 1.184-1.05.39-.406.156-1.105-.427-1.264-.4-.107-.85-.243-1.235-.163-.94.19-1.848.532-2.787.735-.243.053-.708-.107-.783-.288-.096-.235-.006-.717.183-.868.91-.735 1.85-1.44 2.842-2.06.718-.448 1.56-.698 2.293-1.125.467-.273.78-.765.69-1.353-.083-.565-.44-1.008-.98-1.165-.507-.147-1.055-.143-1.588-.204-.514-.06-.507-.053-.064-.715.237-.352.47-.72.65-1.1.33-.71-.087-1.59-.845-1.793-.306-.08-.63-.11-.947-.14-1.67-.15-1.722-.164-1.233-1.517.323-.897.675-1.84 1.256-2.57 1.903-2.385 4.26-4.427 7.1-5.38 5.15-1.732 3.835-2.395 5.536 2.538.105.3.217.608.264.922.074.46-.088.866-.527 1.054-.687.293-1.4.52-2.093.798-.994.395-2.016.74-2.955 1.244-.542.29-1.094.775-1.365 1.312-.373.743.523 1.035.867 1.517.685.958 1.337 1.94 2.095 2.835 2.373 2.8 5.12 5.18 8.24 7.125 5.2 3.243 10.083 6.898 14.512 11.154.997.96 2.184 1.726 3.33 2.515.283.192.7.192 1.075.25-.27-.527-.497-1.08-.83-1.56-.74-1.052-1.574-2.037-2.317-3.086-2.187-3.084-4.86-5.72-7.55-8.338-.76-.74-1.66-1.355-2.55-1.944-3.31-2.188-6.645-4.332-9.96-6.512-.984-.647-1.94-1.34-2.878-2.052-.2-.153-.322-.47-.363-.73-.016-.092.3-.296.49-.352.614-.173 1.233-.36 1.862-.435 1.736-.204 3.304-.912 4.853-1.633 1.608-.75 2.115-2.043 1.614-3.706-.154-.51-.33-1.015-.52-1.518-.45-1.205-.94-2.394-1.36-3.61-.16-.46.12-.878.553-1.005.92-.27 1.87-.446 2.805-.665.727-.17 1.234.094 1.588.74 1.08 1.97 2.223 3.907 3.25 5.905 2.448 4.765 4.72 9.615 7.904 13.978 1.38 1.892 2.562 3.936 3.524 6.112 1.254 2.837 2.78 5.555 4.113 8.36.44.927.985 1.69 1.977 1.95.83.218.754.924 1.035 1.464.34.667 1.392.896 1.93.47.17-.133.34-.27.47-.435 3.5-4.34 6.99-8.685 10.48-13.032.937-1.17 1.865-2.35 2.803-3.52 1.205-1.504 2.515-2.936 3.595-4.523.974-1.434 2.11-2.696 3.265-3.967.932-1.027 1.82-2.107 2.648-3.22.588-.786.398-1.705-.48-2.198-1.113-.624-2.295-1.138-3.472-1.645-1.376-.587-2.773-1.115-4.162-1.666.032-1.656 1.148-2.912 1.635-4.398.067-.2.137-.465.29-.558.336-.206.786-.53 1.085-.442 3.375.98 6.29 2.704 8.45 5.536.91 1.192 1.677 2.49 2.573 3.693.79 1.062 1.195 2.288 1.504 3.528.386 1.554.627 3.147.877 4.734.416 2.642.776 5.29 1.19 7.934.06.41.255.804.433 1.183.206.44 1.054.448 1.397.077.63-.684.74-1.53.752-2.39.032-2.037-.1-4.085.067-6.112.28-3.46-.575-6.598-2.4-9.483zm-50.634-3.357c-.612-1.59-1.184-3.198-1.745-4.808-.173-.5-.24-1.042-.417-1.54-.224-.628.094-.995.512-1.377.864-.786 1.795-1.525 2.54-2.416 1.843-2.2 2.73-4.81 2.988-7.648.038-.426-.014-.875.107-1.27.074-.254.367-.558.607-.61.407-.084.855-.02 1.276.04 1.906.27 3.8.5 5.72.014.78-.198 1.223.16 1.417.917.262 1.036.4 2.107.728 3.116.424 1.315.856 2.656 1.513 3.86.778 1.426 1.92 2.57 3.558 3.073.405.125.78.362 1.178.507.573.21.846.636.875 1.205.135 2.528-.613 4.856-1.68 7.097-.243.52-.785.72-1.342.722-1.82.02-3.637.008-5.456.008-2.563.09-5.125.15-7.647-.54-1.23-.332-2.55-.458-3.78.134-.577.277-.805-.126-.945-.486zm-10.81-52.896c-.006-.917.343-1.636 1.032-2.253 1.757-1.577 3.424-3.248 4.752-5.218 1.437-2.128 2.848-4.274 4.272-6.41.405-.61 1.056-.79 1.658-.393.622.41 1.248.842 1.77 1.364 2.822 2.795 6.238 4.528 10.025 5.49 2.524.64 4.878 1.576 7.055 2.984.27.174.547.338.832.49.648.344 1.605.52 1.884 1.053.355.684.296 1.667.19 2.493-.362 2.754-.703 5.52-1.27 8.238-1.138 5.45-2.592 10.817-5.02 15.876-.793 1.653-1.722 3.203-2.88 4.62-1.25 1.532-2.987 2.18-4.846 2.047-2.12-.15-4.242-.544-6.19-1.542-1.835-.94-3.467-2.084-4.698-3.793-2.063-2.868-4.256-5.64-5.854-8.822-1.96-3.9-3.213-7.94-2.71-12.064 0-1.59.007-2.876 0-4.16zm22.55 72.376c-.06.14-.255.23-.41.31-.027.015-.162-.125-.215-.212-.422-.736-.823-1.49-1.262-2.22-1.92-3.195-3.872-6.375-5.77-9.584-.593-1.003-1.066-2.08-1.563-3.14-.035-.074.206-.28.333-.44.2 0 .422-.043.62.008 4.166 1.058 8.4 1.346 12.68 1.163 1.24-.053 1.4.24.995 1.547-.533 1.724-1.05 3.428-2.123 4.95-.658.937-.944 2.134-1.398 3.214-.625 1.468-1.244 2.94-1.886 4.403zm22.305-14.6c1.09.722 1.143.974.517 2.064-1.385 2.41-2.85 4.765-4.59 6.938-.465.58-1.03 1.08-1.535 1.63-.722.785-1.546 1.508-2.122 2.394-1.184 1.82-2.68 3.335-4.3 4.736-1.55 1.344-2.877 2.876-4.006 4.578-.164.245-.352.67-.25.866.936 1.82-.814 2.37-1.565 3.383-.04.053-.406-.013-.458-.11-.84-1.612-1.646-3.242-2.47-4.86-.317-.626-.244-1.186.065-1.82.85-1.728 1.36-3.58 1.912-5.425.763-2.555 1.79-5.03 2.717-7.537 1.33-3.605 2.84-7.147 3.635-10.93.128-.618.5-1.18.708-1.787.587-1.717 1.173-3.435 1.71-5.165.385-1.25.418-1.314 1.756-1.285.322.008.642.032 1.03.053.995-.016 2.06-.16 3.008.574.65.497.92.91.646 1.608-.31.797-.717 1.553-1.03 2.348-.356.888-.723 1.78-.96 2.705-.63 2.415-.61 2.437 1.894 3.13 1.37.38 2.528 1.144 3.684 1.914zm.365-13.91c-2.155-1.09-4.565-1.076-6.86-1.53-1.69-.332-3.35-.643-4.897-1.428-.47-.24-.994-.46-1.508-.504-1.79-.156-2.915-1.267-3.862-2.608-1.352-1.915-1.948-4.046-1.544-6.383.085-.507.304-1.042.612-1.45 3.45-4.534 5.277-9.768 6.59-15.222.405-1.685.894-3.257 2.357-4.405 1.022-.8 1.62-1.973 2.15-3.168.41-.928.476-1.88.31-2.833-.192-1.112-.668-2.072-1.997-2.153-.773-.046-1.15-.405-1.213-1.173-.077-.96-.224-1.913-.285-2.873-.017-.286.112-.612.258-.873.798-1.423.817-1.43-.245-2.107-.63-.402-1.31-.708-1.7-1.416-.66-1.194-1.84-1.763-3-2.327-1.83-.89-3.703-1.702-5.5-2.656-1.222-.65-2.424-1.387-3.486-2.27-.843-.7-1.57-1.223-2.752-1.35-1.258-.133-2.42-.942-3.213-1.994-1.09-1.442-2.43-2.737-2.87-4.602-.09-.394-.35-.79-.635-1.08-.192-.2-.608-.357-.856-.29-1.044.297-2.284.755-2.356 1.887-.157 2.375-1.454 4.235-2.413 6.242-.925 1.93-2.125 3.71-3.653 5.26-.82.835-1.51 1.813-2.184 2.78-.87 1.254-1.82 2.39-3.277 2.99-.675.28-.917.85-.95 1.543-.143 3.317-.413 6.626.415 9.92.443 1.758.524 3.605.88 5.387.488 2.422 1.303 4.658 2.91 6.687 2.07 2.613 4.346 5.026 6.534 7.526.494.565 1.05 1.088 1.468 1.702.722 1.067 1.29 2.183 1.234 3.565-.053 1.28.166 2.57.136 3.854-.064 2.546-1.154 4.512-3.445 5.766-1.134.62-2.287 1.13-3.54 1.483-2.057.58-4.097 1.253-6.087 2.027-2.502.97-5.082 1.628-7.698 2.174-.117.026-.395-.205-.424-.352-.062-.303-.048-.637.01-.945.582-3.154 1.135-6.313 1.79-9.45.395-1.902.51-3.817.648-5.742.52-7.168.452-14.36.81-21.532.255-5.14.353-10.286.562-15.427.026-.636.128-1.273.256-1.9 1.124-5.565 3.778-10.448 6.88-15.11.456-.683 1.2-1.213 1.893-1.692 1.586-1.1 3.22-2.125 4.843-3.168.36-.232.745-.57 1.13-.585 1.678-.062 2.996-1.102 4.522-1.566.612-.184 1.237-.55 1.835-.51 1.54.104 2.987-.346 4.43-.658 1.913-.416 3.82-.463 5.75-.505 5.678-.127 9.887 2.4 12.775 7.17 1.78 2.944 3.136 6.087 4.027 9.433.362 1.365.57 2.722.575 4.12.006 2.683 0 5.364 0 8.047l-.122.005c.17 3.746.38 7.49.483 11.24.053 1.924-.032 3.857-.156 5.78-.14 2.25-.203 4.487.09 6.737.317 2.44.585 4.892.782 7.344.19 2.368.714 4.653 1.396 6.915.587 1.948 1.173 3.895 1.717 5.854.17.61.205 1.264.286 1.9.037.29-.363.623-.614.498zm-25.78 41.654c-.017-.058-.03-.117-.044-.175-.042-.008-.084-.013-.127-.02l.05.1.12.095zm.214.17l-.216-.17c.008.032.017.064.032.09.03.048.12.054.184.08zM39.46 73.115c0 1.49-.015 2.984.006 4.475.014.957.02 1.922.142 2.868.094.73.31 1.455.576 2.14.085.214.526.432.772.4.254-.033.533-.33.687-.58.158-.258.245-.6.248-.907.014-1.17.136-2.37-.066-3.507-.47-2.645-.352-5.308-.435-7.966-.043-1.278-.013-2.56-.068-3.837-.02-.403-.19-.805-.33-1.19-.127-.34-.916-.39-1.073-.06-.21.466-.49.96-.502 1.45-.053 2.237-.02 4.474-.02 6.712h.063zm39.753-16.118c-.038-.14-.31-.292-.483-.303-.166-.008-.466.128-.498.256-.24.918-.574 1.848-.6 2.78-.117 4.16-.16 8.32-.178 12.48-.002.61.25 1.23.443 1.827.05.164.302.346.48.363.16.015.446-.153.49-.296.22-.698.51-1.412.526-2.13.066-2.343.025-4.69.025-7.037h.076c0-2.133.018-4.27-.01-6.403-.007-.514-.13-1.038-.268-1.536zm4.617 9.363c-.123.138-.435.33-.504.586-.903 3.36-.666 6.786-.53 10.2.014.356.365.757.665 1.02.136.116.617.034.782-.126.203-.194.314-.555.335-.856.24-3.292-.282-6.62.483-9.893.096-.4-.698-1.037-1.232-.93zm-38.54 10.46c.462.438.87-.506 1.076-2.932.114-1.365.003-2.754-.04-4.13-.012-.4-.607-.913-.83-.76-.242.163-.537.428-.57.682-.132 1.05-.176 2.112-.212 2.6 0 .894-.028 1.216.005 1.534.11 1.016-.35 2.136.57 3.008zm8.86-16.703c1.275.322 2.324.826 3.025 2.095.525.95 1.624 1.358 2.72 1.483 2.297.256 4.322-.544 5.658-2.315.798-1.056 1.64-1.905 2.71-2.61.255-.168.538-.418.628-.69.085-.248-.023-.604-.154-.86-.077-.148-.397-.308-.54-.263-.397.128-.77.337-1.125.56-.507.32-.977.38-1.433-.066-1.088-1.065-2.295-1.01-3.518-.32-.835.476-1.568.517-2.347-.1-.828-.655-1.603-.33-2.312.26-.328.27-.706.53-.917.88-.485.8-1.112.894-1.998.53-.22 0-.544-.042-.848.017-.18.035-.405.198-.47.36-.063.147.002.434.12.545.223.214.504.423.796.498zM67.72 45.68c1.036.267 2.297-.42 2.516-1.383.117-.51.125-1.043.187-1.6-.064-.49-.08-1.024-.203-1.53-.21-.852-1.25-1.415-2.272-1.287-.695.087-1.254.688-1.29 1.56-.044 1.045-.03 2.1.054 3.144.045.548.46.953 1.008 1.094zm-9.245 6.82c.717.188 1.465.257 2.09.358.762-.05 1.4-.085 2.038-.136.096-.008.198-.068.283-.125.387-.27.597-.655.392-1.088-.11-.23-.432-.486-.67-.5-.523-.024-1.056.17-1.577.143-1.53-.087-1.87-.64-1.332-2.02.31-.795.657-1.584.86-2.41.084-.358-.144-.798-.253-1.195-.02-.083-.153-.193-.23-.193-.18.003-.473.018-.516.115-.72 1.66-1.426 3.328-2.103 5.006-.336.84.14 1.813 1.02 2.044zM50.38 41.467c-.72.33-1.265.79-1.246 1.653.017.844.017 1.692.126 2.523.102.757.817 1.25 1.604 1.243.81-.008 1.43-.525 1.53-1.307.053-.418.06-.84.087-1.254-.057-.642-.073-1.28-.18-1.902-.16-.923-1.07-1.35-1.92-.96zm16.692-3.034c1.424.26 2.852.49 4.285.69.105.015.25-.293.474-.57-.126-.3-.184-.78-.455-1.014-1.187-1.038-3.424-.94-4.62.14-.056.05-.065.213-.022.29.09.17.2.44.34.462zM48 40.728c.873-.74 2.267-.773 3.037-1.94.087-.13.04-.455-.07-.59-.19-.234-.48-.552-.72-.545-1.23.026-2.286.484-2.92 1.6-.135.237-.088.62-.02.91.035.154.295.257.693.566z"/></svg>