<svg xmlns="http://www.w3.org/2000/svg" width="128" height="128" viewBox="0 0 128 128"><path d="M96.03 92.644c-.296-.397-.595-.816-.974-1.123-1.628-1.313-3.237-2.66-4.945-3.866-2.114-1.493-4.32-2.87-6.492-4.284-.67-.434-1.312-.993-2.052-1.21-2.013-.59-3.107-2.056-3.99-3.784-.63-1.244-1.256-2.492-1.872-3.744-.736-1.493-1.1-2.98.23-4.37 1.204-2.625 2.483-5.223 3.598-7.89 1.113-2.663 2.13-5.372 3.045-8.108.292-.877.603-1.59 1.264-2.275 2.718-2.818 4.945-5.997 6.598-9.56.384-.827.678-1.65.667-2.58-.013-1.17-.612-1.866-1.817-1.912-1.496-.057-2.987-.063-4.446.4-.564.175-.925-.274-.732-.862.875-2.656 1.49-5.373 1.845-8.145.153-1.185.302-2.38.358-3.57.054-1.17-.55-1.86-1.706-2.09-.29-.057-.593-.097-.89-.086-2.112.066-4.136-.565-6.21-.78-.453-.045-.688-.346-.74-.788-.027-.196-.044-.395-.07-.592-.412-3.234-.746-3.747-3.907-4.303-2.02-.356-4.03-1.046-6.187-.417-1.144.333-2.336-.325-3.438-.768-.323-.128-.655-.533-.747-.873-.235-.862-.43-1.787.227-2.568.467-.558.702-1.165.818-1.882.075-.466.358-.924.634-1.325.424-.62.98-1.01 1.77-.58.483.258.993.318 1.377-.09.515-.547 1.168-.675 1.836-.87.648-.188.8-.81.56-1.443-.56-1.46-1.646-2.23-3.14-2.418-.684-.088-1.39.01-2.087.018-.486.005-1.018.135-1.45-.014-1.57-.54-2.98-.1-4.29.67-3.86 2.272-6.355 5.39-6.158 10.15.058 1.405.22 2.76.674 4.107.303.903.94 1.76.682 2.806l.044-.003c.008.038.014.08.02.117l.232.192c-.064-.018-.16-.016-.186-.057-.025-.038-.036-.085-.046-.134l-.077-.063c.003-.017.003-.032.007-.05-.28.024-.56.068-.843.058-1.7-.064-3.44-.3-4.54 1.504-.12.193-.523.24-.81.302-.386.085-.797.072-1.175.18-1.02.29-1.59.922-1.588 1.916.005 1.996-.144 4.033.203 5.974.462 2.588.34 5.167.416 7.75.034 1.22-.05 1.366-1.312 1.452-1.9.126-2.883 1.22-3.373 2.885-.47 1.6-.384 3.142.723 4.533.995 1.245 1.91 2.556 2.9 3.808 1.322 1.67 2.318 3.5 2.706 5.6.26 1.404.807 2.683 1.56 3.857 1.948 3.036 3.243 6.4 4.917 9.574.355.673.378 1.315.007 1.99-.96 1.755-1.57 3.66-2.313 5.505-1.203 2.99-3.3 5.434-5.273 7.942-.116.154-.31.25-.46.378-3.596 3.006-7.176 6.027-10.79 9.008-.637.527-.895.996-.436 1.765.103.17.006.602-.153.767-.737.765-1.012 1.486-.024 2.25.453.35.432.858.44 1.357.014.798.005 1.598.072 2.39.047.588.61 1.05 1.23 1.12.624.068 1.252-.255 1.44-.83.15-.466.267-.96.284-1.447.022-.693-.09-1.392-.088-2.088.003-.556.725-1.046 1.315-.94.507.096.525.517.543.903.044.794.027 1.594.094 2.386.05.586.672.975 1.33.906.51-.055 1.004-.45 1.02-.924.056-1.594.034-3.19.12-4.783.032-.57.275-1.132.44-1.69.022-.073.168-.167.232-.152.15.038.394.126.402.216.06.586.078 1.183.088 1.777.02 1.197-.027 2.4.062 3.59.064.84.547 1.475 1.373 1.8.572.228 1.347-.132 1.412-.695.046-.395.05-.793.048-1.187-.01-2.296-.037-4.593-.04-6.888 0-.595.003-1.207.142-1.776.085-.35.37-.796.676-.916.61-.24.45.42.59.706.265.53.45 1.103.765 1.597.117.18.533.303.764.25.238-.057.522-.327.6-.563.122-.37.104-.787.11-1.184.01-.798.05-1.602-.02-2.395-.118-1.236.442-2.09 1.377-2.794.333-.25.827-.153.963.25.353 1.038.668 2.09 1.03 3.125.426 1.222 1.115 1.552 2.292 1.186.538-.167.97-.943 1.575-.52.46.324.722.926 1.056 1.41.34.494.623 1.028 1.003 1.49.633.764 1.322 1.482 1.99 2.22-.335 1.035-.685 2.063-.998 3.1-.26.86-.47 1.73-.716 2.592-.917 3.175-1.11 6.475-1.66 9.712-.252 1.465-.385 2.954-.68 4.41-.21 1.032-.056 1.714 1.03 2.097.51.18.66.67.405 1.228-.164.363-.267.755-.334 1.144-.11.642.126 1.152.657 1.552 1.186.892 1.605.926 2.92.064.415-.27.797-.722 1.316-.434.916.512 1.732-.184 2.615-.122 1.04.073 1.493-.837 2.11-1.48.244-.256.67-.412 1.034-.462.77-.105 1.31-.525 1.657-1.148.384-.687.698-1.422.955-2.165.182-.53.425-.56.844-.315.082.05.18.092.277.102 1.235.16 2.085-.515 1.852-1.643-.24-1.154-.623-2.31-1.124-3.376-1.026-2.176-1.764-4.442-2.44-6.74-.475-1.62-.986-3.236-1.523-4.842-.443-1.312-.95-2.607-1.427-3.908.875-1.082 1.74-2.17 2.624-3.243.254-.304.526-.532 1.006-.314 1.14.525 1.904-.027 2.485-.977.316-.51.62-1.027.918-1.54 1.157-1.983 2.29-3.978 3.472-5.94.584-.98.896-1.01 1.93-.39.086.05.19.08.265.14 4.155 3.263 8.956 5.646 12.73 9.426.335.337.812.592 1.27.736.6.19 1.18.02 1.61-.495.385-.456.4-1.106-.004-1.656zM83.985 40.917c1.158-.19 2.32-.37 3.486-.487.185-.018.4.318.567.46-.05.292-.04.504-.12.67-.894 1.863-1.884 3.67-3.205 5.27-.16.195-.468.264-.706.39-.08-.274-.256-.555-.23-.818.14-1.493-.114-2.933-.467-4.367-.134-.542.18-1.035.677-1.12zM46.16 44.693l-.093 1.51c0 .163.032.367-.006.555-.11.516.317 1.27-.377 1.477-.256.08-.757-.523-1.086-.875-.333-.358-.603-.776-.866-1.195-.55-.868-.255-1.75.18-2.512.325-.574 1.04-.46 1.626-.366.422.067.66.363.657.814-.003.2-.02.397-.032.593zm6.852 18.875c-.317-.622-.58-1.275-.943-1.87-2.594-4.262-3.18-8.96-3-13.82.016-.425.223-.843.34-1.262.13.368.255.74.394 1.106.07.184.164.363.26.533.363.654.944.964 1.45.774.607-.23 1.044-.67 1.066-1.314.048-1.594.016-3.19.016-4.785h.08c0-1.398-.093-2.8.028-4.19.105-1.176.245-2.434.74-3.483 1.36-2.885 3.022-5.617 4.907-8.203.27-.368.69-.358.946.01.51.737.977 1.51 1.522 2.222 1.13 1.478 2.507 1.903 4.216 1.227 1.3-.517 2.49-1.23 3.35-2.416.938-1.29 1.917-2.556 3.236-3.505.48-.347.865-.3 1.218.23.768 1.155 1.337 2.445 2.496 3.32.285.218.418.674.548 1.05.523 1.5.966 3.03 1.534 4.513.33.86.472 1.715.512 2.62.114 2.587.274 5.17.41 7.758.03.623.148 1.188.778 1.487.653.313.688.892.704 1.505.064 2.322-.45 4.544-1.05 6.77-1.23 4.543-3.097 8.83-5.155 13.047-.523 1.07-1.138 2.09-1.272 3.328-.062.57-.387 1.133-.683 1.648-1.483 2.597-2.984 5.18-4.506 7.755-.245.416-.57.834-.958 1.114-1.82 1.32-3.336 1.11-4.592-.757-.94-1.4-1.733-2.904-2.507-4.405-2.054-3.99-4.064-8.002-6.088-12.008zm12.94 37.035c-.058.18-.06.46-.18.527-1.024.587-2.07 1.137-3.12 1.675-.036.017-.336-.277-.31-.378.25-1.05.49-2.11.864-3.12.09-.245.656-.467.987-.446.862.058 1.666.93 1.762 1.744zm-6.266-10.09c-.187-.16-.294-.21-.314-.284-.045-.173-.132-.43-.053-.516.243-.267.557-.472.845-.704.058.08.18.19.162.232-.197.418-.416.825-.643 1.27zm1.17-6.092c-1.24 1.154-2.476 2.32-3.788 3.383-.648.523-1 1.555-2.11 1.397-.314-.72-.643-1.43-.938-2.158-.153-.367-.208-.775-.363-1.138-.363-.85-.6-1.678-.14-2.585.118-.23.02-.567.02-.853h-.15c0-.38-.16-.893.026-1.12 1.096-1.344 1.586-2.974 2.304-4.5.28-.592.805-.636 1.123-.087.55.95 1.107 1.896 1.58 2.885.643 1.355 1.258 2.71 2.433 3.717.343.296.323.76 0 1.06zm9.104 28.283c.075.163.026.382.035.576-.12.142-.22.38-.365.415-3.06.722-5.893 2.184-8.996 2.778-.516.098-.67-.032-.542-.518.437-1.692 1.508-2.938 2.874-3.94.633-.467 1.355-.807 2.037-1.208 4.344-2.56 2.955-2.384 4.957 1.9zM68.533 91.61c-1.084 1.154-2.19 2.29-3.296 3.42-.06.06-.168.068-.254.1-.06-.08-.183-.187-.164-.24.237-.64.47-1.283.76-1.902.422-.925.416-1.713-.535-2.32-.55-.35-.44-.835-.126-1.266.223-.303.524-.63.964-.295.864.66 1.728 1.33 2.57 2.02.098.078.148.404.078.48zm7.92-9.11c-1.297 2.24-2.6 4.476-3.91 6.71-.404.69-.75.803-1.444.332-2.22-1.506-4.418-3.05-6.62-4.58-.06-.046-.083-.15-.12-.224.086-.045.17-.115.265-.128.395-.053.79-.096 1.184-.123 1.322-.09 2.52-.576 3.664-1.192 1.104-.597 1.92-1.368 1.81-2.814-.098-1.33.964-2.09 1.733-2.965.06-.066.424 0 .5.11.975 1.37 1.723 2.908 3.01 4.048.065.058.074.178.112.27-.065.186-.094.39-.19.558zm-14.1-24.13c.587.53 1.21 1.026 1.874 1.45.728.47 1.627.333 2.142-.323.915-1.17 1.787-2.38 2.65-3.586.166-.232.296-.54.307-.815.013-.267-.077-.61-.253-.79-.178-.176-.57-.325-.78-.247-.44.163-.908.405-1.215.75-.66.736-1.2 1.58-1.844 2.328-.107.124-.56.1-.753-.018-.725-.442-1.147-1.085-1.013-1.982.09-.587.197-1.167.302-1.75l.896-4.98c-.028-.48.014-.7-.064-.867-.114-.246-.272-.56-.49-.64-.223-.086-.656-.02-.794.145-.37.446-.78.95-.91 1.493-.475 2.018-.818 4.07-1.265 6.096-.33 1.506.105 2.735 1.21 3.736zM58.53 39.35c.233.186.464.382.72.534.47.284.942.264 1.372-.107.41-.352.595-.81.46-1.333-.406-1.568-1.466-2.443-3.26-2.49-.285.078-.95.097-1.403.414-1.168.816-1.9 2.013-2.42 3.328-.198.487.186 1.173.75 1.483.496.266 1.01.216 1.383-.15.495-.484.87-1.088 1.34-1.598.29-.315.673-.388 1.057-.084zM69 40.4c.325-.22.643-.47.902-.764.517-.582 1.13-.764 1.99-.537.165.047.446.18.736.197.53.033.94-.23 1.234-.67.263-.386.18-.944-.194-1.35-.957-1.04-2.15-1.47-3.486-1.025-1.5.5-2.52 1.568-2.786 3.17-.05.303.277.72.525 1 .32.363.74.203 1.08-.02zm.656 1.766c-.078.18-.192.366-.196.554-.02 1.184-.038 2.37-.016 3.556.004.282.135.58.27.837.24.456.61.79 1.156.8.558.008.963-.328 1.105-.82.216-.75.315-1.535.465-2.305.046-1.15-.1-2.187-1.02-2.995-.51-.45-1.5-.258-1.764.373zm-9.975 4.77c.2-1.184.24-2.397-.307-3.52-.16-.334-.464-.633-.766-.864-.573-.437-1.557-.09-1.668.597-.125.786-.15 1.583-.225 2.433.077.742.122 1.536.25 2.318.09.548.933.857 1.466.615.69-.317 1.135-.88 1.253-1.58zm7.117 15.288c-1.88-.755-3.473-.105-4.868 1.152-.22.2-.246.732-.185 1.074.032.176.47.403.718.395 1.08-.047 2.157-.17 3.236-.263 0 .04.002.08.004.122.49 0 1.007.09 1.467-.033.327-.085.72-.416.82-.72.095-.304-.05-.776-.253-1.056-.21-.298-.587-.528-.94-.67z"/></svg>