<svg xmlns="http://www.w3.org/2000/svg" width="128" height="128" viewBox="0 0 128 128"><path d="M121.488 99.84c-2.914-.77-5.613-2.118-8.475-3-1.84-.564-3.723-1.028-5.68-.985-1.034.02-1.674 1.22-1.103 2.105.228.352.512.71.86.936 1.344.868 2.645 1.824 4.24 2.248.72.192 1.405.51 2.084.82.133.06.188.332.235.518.01.064-.098.196-.18.235-.48.22-.973.42-1.46.63-1.135.48-1.204.51-2.067-.645-.86-1.152-1.93-1.553-3.328-1.547-3.86.03-7.723-.053-11.584-.046-1.61 0-3.226.015-4.82.2-5.01.577-10.046.897-15.064.956-16.63.203-33.26.16-49.888.206-.965.002-1.932-.02-2.896-.06-.853-.038-1.2-.44-1.042-1.217.715-3.477.914-7.016.957-10.537.095-8.15.157-16.29-.268-24.443-.388-7.49-.37-15.006-.868-22.496-.136-2.03-.326-4.056-.44-6.085-.095-1.71-.135-3.428-.163-5.14-.01-.548.316-.702.833-.524.91.308 1.675.063 2.33-.63.668-.69.783-1.523.52-2.387-.78-2.56-1.616-5.1-2.395-7.664-.897-2.95-2.183-5.81-1.946-9.028.094-1.248-.832-1.888-1.894-2.315-1.035-.416-1.984-.136-2.62.65-.586.73-1.038 1.627-1.316 2.525-.38 1.22-.475 2.528-.805 3.765-.607 2.276-1.297 4.528-1.947 6.793-.235.822-.558 1.638-.66 2.478-.155 1.307.05 2.613 1.02 3.576.88.868 1.953.62 3.006.2.5-.2.75.028.77.585.15 3.96.322 7.92.422 11.886.237 9.216.198 18.44.61 27.656.33 7.392.188 14.802.245 22.206.003.637.072 1.334-.145 1.908-.853 2.243-1.082 4.565-1.118 6.933-.014.826-.363 1.152-1.2 1.166-1.823.034-3.647.038-5.47.05-1.377.003-2.486.564-3.38 1.586-.846.97-.438 2.555.785 2.86.714.182 1.482.21 2.224.22 1.61.023 3.22-.034 4.827-.018 2.054.02 2.067.043 2.077 2.24.007 1.717-.012 3.435 0 5.152 0 .53-.003 1.08.093 1.6.235 1.275 1.182 1.987 2.543 1.98 1.344-.007 2.277-.733 2.517-2.017.096-.524.1-1.068.104-1.604.015-1.502 0-3.004.004-4.507.005-2.39.01-2.395 2.54-2.39.86 0 1.718.02 2.575.02 14.482.046 28.967.052 43.45.155 6.335.043 12.65-.384 18.947-.91 3.53-.292 7.056-.423 10.59-.61 2.466 0 4.933-.007 7.403 0 .87.003.947.124.86 1.153-.224 2.587 1.305 3.864 3.742 2.935 2.494-.953 4.912-2.112 7.335-3.243.966-.453 1.882-1.03 2.773-1.626.62-.41 1.23-.883 1.712-1.442 1.07-1.237.53-3.61-1.008-4.017zm-61.12-32.02c-.003.32.02.645.056.963.237 2.155 1.125 3.072 3.22 3.292.428.046.86.017 1.29.043 1.098.07 1.178.14.664 1.01-.398.67-.65 1.34-.65 2.11.004 2.465-.004 4.932.035 7.397.01.523.134 1.064.318 1.557.298.797 1.265 1.39 2.024 1.333.894-.064 1.87-.926 2-1.826.06-.423.034-.858.03-1.285-.01-2.037-.064-4.075-.03-6.112.022-1.2-.092-2.344-.602-3.443-.223-.49-.016-.73.553-.774 1.38-.117 2.77.002 4.125-.523.988-.384 1.702-.91 1.867-1.978.196-1.265.46-2.54.475-3.81.06-4.505.02-9.008.02-13.51.044-.002.086-.002.13-.002 0-4.505 0-9.008-.003-13.512 0-.64.03-1.292-.054-1.926-.274-2.02-1.968-3.174-3.955-2.69-.514.125-.986.416-1.49.597-.377.14-.88-.236-.857-.654.107-1.923.235-3.845.354-5.77.064-1.07.158-2.132-.296-3.166-.432-.984-1.215-1.484-2.287-1.382-1.062.102-1.798.683-2.24 1.606-.467.975-.683 2.02-.69 3.115-.01 1.606-.057 3.215-.08 4.822-.03 1.856-.285 2.208-2.003 2.677-.306.08-.64.055-.957.084-.996.096-1.565.722-1.756 1.62-.176.83-.254 1.692-.26 2.542-.027 4.61-.027 9.22-.02 13.835.003.964.022 1.93.13 2.887.4 3.616.96 7.22.94 10.874zm8.377-25.292l.038-.096c.025.003.043-.004.067-.002-.055-.86.405-1.522.915-2.133.123-.146.606-.18.768-.06.192.144.352.548.294.778-.26 1.003-.945 1.477-1.977 1.416.002.023-.005.045-.003.066-.023.017-.06.027-.102.034l-.143.354c-.318-.348-.043-.322.143-.355zm-1.06 7.48c.736-.754 1.472-1.51 2.256-2.208.114-.1.503.114.765.18-.06.19-.06.46-.19.56-.843.65-1.712 1.262-2.584 1.892-.042-.03-.145-.064-.187-.136-.048-.08-.098-.245-.06-.288zm.296 5.338c.578-.612 1.233-1.148 1.88-1.69.147-.123.515-.238.566-.18.187.23.296.526.414.81.034.087.005.206.005.23.07.897-.196 1.51-.998 1.85-.58.25-1.12.585-1.698.833-.125.05-.393-.05-.493-.165-.117-.143-.213-.4-.168-.568.11-.39.223-.838.49-1.12zM65.274 65.53c1.227-1.923 2.832-3.438 4.738-4.656.3-.192.676-.05.7.274.036.425.054.85.103 1.65.146.832-.41 1.668-1.346 2.347-.606.437-1.178.922-1.75 1.405-.522.445-1.135.544-1.79.552-.606.006-1.273-.317-1.334-.65-.1-.577.482-.613.68-.922zm-1.58-24.968c.093-.142.337-.288.48-.258.16.032.42.275.404.392-.075.516-.22 1.027-.373 1.528-.053.18-.207.33-.318.49-.083-.19-.2-.377-.242-.58-.064-.314-.072-.637-.1-.91.056-.257.047-.497.153-.66zM36.6 83.246c.03 2.258.967 3.36 3.24 3.595.212.023.462 0 .626.11.245.154.542.375.617.63.117.397.077.845.092 1.274.025.75-.006 1.504.068 2.248.115 1.136 1.19 2.05 2.184 1.924.72-.09 1.48-.943 1.582-1.813.047-.423.05-.852.064-1.282.02-.643.01-1.286.047-1.93.036-.624.413-1.04.987-1.06 1.072-.04 2.146-.034 3.217-.06 1.083-.025 1.752-.623 2.267-1.534.505-.888.548-1.828.563-2.8.03-1.82.053-3.645.144-5.462.085-1.71.317-3.412.37-5.12.066-2.147.017-4.292.017-6.438 0-2.79.004-5.58-.003-8.37 0-.64.007-1.287-.074-1.925-.16-1.282-.805-2.21-2.126-2.51-.936-.21-1.885-.37-2.834-.516-1.138-.173-1.297-.288-1.312-1.39-.043-3.54-.06-7.08-.094-10.62-.006-.75.02-1.507-.067-2.25-.117-.97-1.027-1.773-1.96-1.848-.822-.066-1.625.437-1.91 1.408-.27.914-.437 1.875-.494 2.822-.11 1.82.06 3.67-.194 5.46-.233 1.642-.31 3.126.478 4.67.58 1.13-.128 1.65-1.058 1.815-.736.13-1.455.357-2.193.47-.827.13-1.318.603-1.685 1.323-.403.78-.582 1.6-.598 2.47-.036 1.93-.13 3.86-.128 5.792.013 6.222.053 12.445.09 18.667.005.753.06 1.503.07 2.253zm5.1-25.966c.53-.047 1.066-.067 1.6-.062 5.6.07 4.767-.902 4.78 4.597.005 2.888.02 5.774-.072 8.66-.11 3.41-.335 6.82-.512 10.23-.004.11-.008.213-.02.32-.07.72-.493 1.134-1.242 1.2-.32.028-.64.033-.96.033-4.832-.028-4.184.75-4.245-4.218-.023-1.6-.005-3.204-.005-4.808.05-.002.096-.004.147-.008-.18-3.408-.37-6.816-.527-10.223-.07-1.493-.094-2.99-.1-4.485-.003-.76.407-1.173 1.155-1.235zm43.57 14.308c.12 1.383.287 2.767.477 4.142.227 1.635 1.07 2.466 2.693 2.704.42.06.853.035 1.28.064 1.682.124 1.693.13 1.696 1.938.003 1.392-.028 2.784-.028 4.177 0 .533 0 1.075.088 1.6.184 1.117 1.212 1.995 2.216 1.954 1.013-.035 1.95-.923 2.112-2.077.088-.63.085-1.278.09-1.92.014-1.5-.007-2.997.01-4.498.012-.802.335-1.102 1.187-1.152.644-.035 1.293 0 1.927-.066 1.98-.21 3.027-1.308 3.202-3.35.052-.64.04-1.282.042-1.924.005-2.894-.082-5.788.033-8.672.103-2.543-.818-4.828-1.51-7.17-.345-1.17-1.178-1.97-2.555-2.114-1.152-.12-2.278-.46-3.413-.704-.683-1.19-.252-2.485-.36-3.733-.01-.107-.003-.215-.003-.322v-2.89c0-.214.043-.444-.015-.64-.184-.6-.294-1.27-.64-1.76-.88-1.26-2.85-.988-3.365.447-.21.59-.293 1.248-.304 1.877-.04 1.816-.01 3.635-.01 5.457-.005 2.1-.4 2.573-2.49 2.946-.316.056-.64.043-.96.08-.976.104-1.492.7-1.787 1.595-.376 1.13-.572 2.285-.478 3.474.277 3.515.557 7.027.864 10.54zm4.507-11.79c1.813-.015 3.624-.012 5.44.02.902.016 1.117.21 1.38 1.007.406 1.22.716 2.443.66 3.752-.053 1.173-.013 2.347-.013 3.52h-.015c0 1.387.015 2.773-.006 4.16-.013.76-.39 1.11-1.216 1.12-1.6.02-3.2.032-4.798.002-1.056-.02-1.518-.48-1.67-1.538-.018-.107-.03-.21-.04-.316-.225-2.435-.466-4.873-.67-7.312-.09-1.06-.13-2.13-.154-3.194-.018-.82.336-1.22 1.1-1.226z"/></svg>