<svg xmlns="http://www.w3.org/2000/svg" width="128" height="128" viewBox="0 0 128 128"><path d="M114.027 72.63c-.413-.47-.98-.83-1.54-1.126-.362-.192-.834-.158-1.252-.253-.896-.207-1.12-.425-1.064-1.274.158-2.468.5-4.933.517-7.4.078-10.545.562-21.097-.418-31.628-.2-2.14-.406-4.277-.58-6.418-.108-1.29-.163-2.58-.227-3.87-.02-.477.203-.81.675-.94.414-.113.86-.15 1.242-.33 1.532-.707 2.164-1.878 2.022-3.667-.047-.572-.283-1.05-.888-1.198-1.043-.256-2.136-.367-3.134-.74-2.002-.747-4.02-.516-6.054-.348-.962.08-1.923.256-2.883.252-5.265-.03-10.517.604-15.787.3-.625-.037-1.266.195-1.9.29-2.657.41-5.307.85-8.016.78-2.797-.073-5.597-.086-8.397-.078-3.875.013-7.75.072-11.623.1-.646.004-1.304.018-1.933-.1-4.117-.788-8.235-1.53-12.437-.615-.312.066-.644.032-.968.05-4.512.253-9.024.505-13.536.767-.427.024-.86.08-1.275.187-1.065.27-2.106.2-3.193.065-1.49-.192-3.005-.166-4.512-.22-1.586-.053-2.624.77-3.335 2.112-.276.52-.25 1.03.037 1.53.707 1.238 1.848 1.78 3.2 1.876 1.18.083 2.368.036 3.552.085.86.035 1.196.374 1.214 1.157.014.645-.016 1.29-.02 1.938-.04 9.472-.035 18.946.803 28.395.048.536.056 1.077.114 1.61.573 5.238 1.09 10.478 1.134 15.756.015 1.968-.008 2.336-2.016 2.32-.433-.005-.89-.048-1.29.077-1.25.396-2.394.96-2.94 2.29-.61 1.474.37 3.25 1.933 3.385.748.066 1.508.004 2.26-.02 6.24-.228 12.476-.46 18.71-.686.97-.034 1.94-.02 2.908-.075 3.22-.17 6.443-.363 9.664-.544l.008.113h1.94c1.4-.002 2.8-.013 4.2-.004 3.44.017 3.252-.37 3.47 3.3.025.43.03.87.133 1.284.64 2.556.24 5.147.3 7.723.016.806-.307 1.454-.886 1.997-1.73 1.62-3.378 3.334-5.19 4.853-3.958 3.328-7.815 6.76-11.498 10.39-1.37 1.35-2.508 2.945-4.23 3.945-.726.42-.8 1.255-.598 2.03.306 1.178 1.973 2.42 3.168 2.368.295-.015.646-.156.864-.357.55-.512 1.045-1.086 1.55-1.643 2.898-3.187 5.996-6.176 9.166-9.086 1.263-1.16 2.658-2.19 4.062-3.18.86-.607 1.853-1.027 2.784-1.533.773.95.332 2.067.417 3.106.064.75-.066 1.522.06 2.256.16.945.4 1.895.767 2.777.416.994 2.114 1.194 2.737.322.425-.595.798-1.312.908-2.02.235-1.48.285-2.99.403-4.487.062-.742.09-1.488.182-2.226.015-.108.352-.29.463-.243.395.158.78.363 1.123.608 4.363 3.152 8.677 6.373 13.09 9.445 2.292 1.595 4.75 2.946 7.153 4.378.387.23.875.153 1.167-.227 1.653-2.16 1.85-2.235.195-4.433-.5-.67-1.24-1.184-1.928-1.69-4.08-2.99-8.198-5.925-12.538-8.538-.64-.385-1.233-.85-1.84-1.288-.054-.04-.097-.202-.07-.227.073-.07.192-.15.282-.14 1.812.204 3.63.38 5.434.637 2.336.333 4.66.75 6.997 1.092.74.11 1.5.155 2.244.125.782-.03 1.828-.96 1.81-1.61-.02-.783-.39-1.454-1.044-1.91-.257-.177-.577-.293-.887-.363-1.045-.233-2.094-.486-3.154-.632-2.344-.32-4.7-.533-7.04-.875-3.19-.466-6.355-1.113-9.607-.958-.86.04-1.2-.296-1.21-1.13-.036-4.202-.063-8.4-.07-12.6 0-.774.464-1.18 1.24-1.086 5.574.685 11.18.555 16.773.678.644.015 1.288.072 1.933.096 2.794.112 5.59.226 8.385.32.535.016 1.102.047 1.604-.1 2.86-.843 5.805-.656 8.646-.3 2.272.283 4.262-.242 6.3-.847 1.728-.514 2.25-2.557 1.062-3.908zm-7.638-30.41c-.09 3.013-.02 6.03-.02 9.044h-.074c0 5.922.008 11.844-.008 17.765-.005 1.32-.047 1.33-1.31 1.747-3.404 1.117-6.885 1.454-10.452 1.03-1.49-.177-2.992-.32-4.49-.343-4.417-.066-8.833.032-13.246-.117-4.29-.15-8.58-.526-12.867-.805-.314-.02-.65-.16-.937-.088-2.34.6-4.718.21-7.076.32-3.115.143-6.23.29-9.346.378-5.597.15-11.196.263-16.793.378-.71.018-1.13-.432-1.136-1.236-.02-3.014.09-6.035-.048-9.045-.574-12.48-.288-24.966-.57-37.446-.074-3.236-.202-2.908 2.916-3.275 2.98-.353 6.022-.174 9.035-.26 1.917-.052 3.818.07 5.743-.463 1.29-.357 2.787-.124 4.17.032 3.438.39 6.854.474 10.29-.035 1.272-.19 2.578-.186 3.868-.188 8.076-.004 16.15.035 24.225.018 4.845-.013 9.69-.1 14.534-.15.426-.002.897-.084 1.274.06.34.13.78.492.83.807.265 1.696.495 3.403.604 5.117.357 5.575 1.045 11.137.88 16.746zm-9.307-7.895c.077-1.698.18-3.63.245-5.565.047-1.405-.39-1.995-1.7-2.342-.41-.11-.84-.175-1.264-.22-2.027-.208-4.064-.36-6.085-.613-2.615-.33-4.325 1.78-4.544 3.96-.284 2.795-.15 5.59.117 8.38.134 1.387.352 2.773.403 4.162.103 2.906.06 5.813.183 8.715.135 3.224.39 6.437.6 9.653.004.11.026.213.045.32.213 1.227 1.064 1.827 2.328 1.6.384-.07.745-.267 1.124-.376.046-.016.17.126.203.22.037.092.05.254-.004.31-.147.15-.325.278-.51.38-.41.233-.717.594-.512 1.018.165.34.55.733.898.804 1.786.37 3.57.78 5.42.733 2.317-.062 3.557-1.192 3.726-3.5.472-6.452.245-12.91-.07-19.36-.133-2.68-.387-5.36-.604-8.284zm-3.15 27.55c-.21.043-.417.102-.628.14-.795.132-1.3-.332-1.086-1.04.25-.817.575-1.61.83-2.42.13-.406.22-.827.254-1.247.015-.18-.142-.384-.252-.555-.02-.036-.197-.004-.284.036-.654.303-1.302.617-1.955.93.008.036.01.073.023.112l-.195.05c-.42.516-.836 1.038-1.285 1.526-.088.098-.39.12-.51.042-.15-.098-.282-.323-.3-.506-.02-.17.082-.48.2-.52.622-.21 1.26-.37 1.896-.544l.114-.14.058-.026c-.14-.64.25-1.14.49-1.685.643-1.468 1.273-2.94 1.88-4.42.063-.154-.02-.43-.133-.567-.058-.067-.358.002-.51.082-.83.445-1.39 1.328-2.39 1.498-.038 1.102-.723 1.9-1.313 2.735-.06.088-.395.116-.437.057-.11-.156-.202-.392-.167-.57.21-1.09.996-1.718 1.877-2.262-.043-1.237.783-2.192 1.074-3.317.07-.27-.032-.584-.053-.878-.25.15-.553.256-.75.464-.515.544-.972 1.148-1.482 1.7-.145.156-.258.767-.602.217-.132-.21-.072-.646.06-.896.807-1.518 1.67-3.004 2.492-4.514.357-.658.672-1.343.97-2.032.263-.608-.02-.96-.77-.873-.443.05-.928.224-.704-.463.296-.913.78-1.766 1.124-2.667.275-.718-.098-1.21-.678-1.584v.013c-.016.005-.035.008-.054.01l-.216.41c-.367-.418-.008-.37.22-.407l.02-.043.032.02c-.197-1.126.775-1.684 1.24-2.48.708-1.22.815-1.88.21-2.265-.527-.336-1.154-.156-1.984.584-.16.142-.296.317-.47.442-.918.672-1.147 2.12-2.538 2.26-.273-1.133-.593-2.258-.806-3.405-.213-1.158-.26-2.348-.504-3.495-.235-1.113.267-1.365 1.1-1.523.408-.078.842-.085 1.258-.047.424.037.843.15 1.26.256 1.44.35 2.88.718 4.32 1.077.61 1.465.03 2.95.052 4.423.067 4.714-.094 9.428.555 14.122.2 1.483.125 3 .16 4.5.064 2.68.147 5.353.546 8.012.205 1.347.094 1.397-1.25 1.667zm-16.803-5.72c0-1.72.07-3.448-.02-5.165-.09-1.714-.475-3.42-.485-5.13-.014-2.396-.64-4.686-.98-7.02-.27-1.835-1.444-2.8-3.284-2.997-.64-.066-1.29-.015-1.933-.036-2.144-.072-4.282.28-6.434-.072-.82-.134-1.717.053-2.55.24-.34.074-.662.495-.865.833-.15.25-.13.622-.136.942-.06 3.552-.104 7.104-.174 10.656-.032 1.605.136 3.21-.38 4.803-.175.546.1 1.246.193 1.875.107.74.31 1.472.338 2.214.032.854-.166 1.723-.096 2.572.042.48.31 1.19.668 1.344.89.377 1.344.91 1.56 1.84.07.304.62.608 1.005.71.928.24 1.882.453 2.832.504 1.826.1 3.672-.05 5.483.148 1.1.122 2.096.04 3.14-.213 1.88-.456 2.102-.64 2.147-2.557.043-1.83.007-3.662.007-5.49h-.03zm-10.08 2.747c-.007.01-.02.014-.03.02l-.118.223c-.045.013-.078.04-.12.056-.11.555-.206 1.108-.353 1.65-.02.07-.38.14-.51.07s-.277-.35-.233-.47c.205-.55.516-1.03 1.092-1.248l.027-.144c.07-.043.146-.082.21-.13l.102-.193c-.02.058-.03.136-.07.17zm6.873.342c-.02.427.027.88-.107 1.275-.08.243-.43.547-.672.56-1.18.07-2.36.064-3.54.05-.304-.003-.694-.037-.895-.22-.484-.445.124-.708.286-1.036.335-.667.75-1.3 1.038-1.984.1-.24.017-.682-.158-.866-.125-.134-.54.002-.823.017l-.87.047c0 .023-.003.045 0 .07-.027.015-.065.025-.102.034l-.146.417c-.376-.373-.064-.367.147-.416l.036-.1.066-.002c-.08-1.035.79-1.64 1.15-2.477.448-1.04.203-1.484-1.165-1.983-.088.142-.175.283-.264.423-.395-.39-.01-.39.23-.46.033-.53.067-1.06.097-1.59.022-.446-.057-.825-.515-1.053-.237-.117-.698-.122-.477-.62.216-.492.44-.98.632-1.48.112-.298.334-.708.222-.908-.717-1.28-.454-2.66-.55-4.013-.066-.97-1.396-1.59-2.245-1.086-.547.323-1.013.783-1.51 1.187-.497.405-.76.363-.872-.16-.158-.736-.305-1.474-.434-2.213-.066-.4.4-.91.794-.794 2.043.585 4.046-.228 6.072-.127.858.043 1.723-.014 2.575.064.257.023.626.297.7.533.255.814.547 1.66.572 2.5.164 5.472 1.025 10.916.737 16.407zM51.78 44.036c-1.915-.32-3.818-.51-5.754-.494-1.5.013-3-.015-4.5-.032-1.708-.02-2.574.663-2.87 2.374-.11.63-.105 1.28-.11 1.923-.015 1.61-.005 3.22-.005 4.83h.074c0 1.288.02 2.576-.004 3.86-.033 1.727.042 3.412.74 5.05.28.655.213 1.462.277 2.2.096 1.092.46 1.566 1.523 1.713 3.643.504 7.28.132 10.914-.144.736-.055 1.312-.864 1.29-1.617-.007-.32.03-.676-.09-.957-.485-1.144-.4-2.283-.154-3.46.11-.515.096-1.073.05-1.604-.25-2.793.052-5.54.522-8.293.177-1.042.117-2.144.028-3.21-.096-1.142-.533-1.91-1.928-2.143zM48.515 61.75c-.425-.06-.856-.06-1.285-.083-.495-.026-.657-.23-.713-.77-.143-1.383-.243-2.71.615-3.94.224-.325.24-.812.297-1.233.09-.677-.2-1.38-.96-1.426-1.095-.064-.874-.576-.785-1.24.125-.96.105-1.026-.91-1.147-.603-.07-1.042-.163-1.084-.85-.03-.534-.05-1.072-.052-1.607-.007-1.852.02-1.877 2.033-1.93.967-.03 1.934-.07 2.9-.086.934-.015 1.11.17 1.07 1.073-.015.32-.048.642-.066.88.174 2.865.35 5.647.5 8.43.054.963.08 1.93.057 2.894-.025 1.27-.05 1.26-1.616 1.04z"/></svg>