<svg xmlns="http://www.w3.org/2000/svg" width="128" height="128" viewBox="0 0 128 128"><path d="M114.788 71.44c-2.094-2.083-4.14-4.23-6.368-6.16-1.954-1.692-3.53-3.585-4.437-6-.46-1.224-.896-2.468-1.214-3.74-.85-3.413-1.154-6.904-1.21-10.406-.037-2.63.02-5.263.02-7.893-.003-4.273.008-8.544-.05-12.82-.067-4.756-2.326-8.335-6.11-11.052-.53-.382-1.07-.928-1.664-1.015-1.897-.274-3.472-1.282-5.184-1.988-.896-.37-1.89-.536-2.856-.693-2.504-.42-5.03-.322-7.547-.16-2.51.16-5.014.513-7.527.598-5.58.194-11.157.445-16.73-.377-3.243-.48-6.525-.67-9.79-1.018-3.15-.335-6.3-.7-9.45-1.056-1.372-.157-2.576.223-3.717.99-2.05 1.38-3.512 3.268-4.76 5.35-.746 1.248-1.09 2.598-1.113 4.068-.053 3.86.816 7.386 3.54 10.27.502.528.684 1.1.553 1.792-.102.537-.198 1.075-.326 1.606-1.215 5.105-2.428 10.21-3.658 15.312-2.1 8.715-3.595 17.57-6.368 26.118-.136.414-.157.862-.253 1.287-.707 3.093-1.363 6.19-2.496 9.175-.5 1.32-.774 2.73-1.074 4.12-.3 1.397.447 2.654 1.804 3.05.622.182 1.294.264 1.94.26 1.75-.002 3.503-.08 5.257-.125.677-.016 1.113.4.957.958-.802 2.83-1.245 5.763-2.606 8.443-.583 1.148-.837 2.477-1.146 3.75-.72 2.976-1.207 6-1.536 9.05-.226 2.13 1.062 3.988 3.18 4.13 2.18.148 4.38.092 6.57.035 1.168-.03 2.13-.888 2.247-2.027.357-3.412 1.536-6.59 2.62-9.8 1.228-3.63 2.22-7.32 2.764-11.127.14-.968.404-1.93.74-2.848.12-.333.626-.743.952-.74 4.71.065 9.417.19 14.126.314 1.074.03 1.32.293 1.323 1.39.008 4.054.003 8.11.003 12.163h-.107c0 3.837 0 7.67.003 11.507 0 .55-.01 1.1.055 1.643.13 1.112.995 2.125 2.112 2.192 1.965.117 3.947.17 5.906.043.94-.064 1.952-.45 2.747-.97 1.777-1.165 3.11-2.58 3.063-5.034-.136-6.903-.098-13.807-.125-20.714-.005-.548-.018-1.094.004-1.643.02-.608.416-1.037.992-1.075 1.42-.093 2.848-.1 4.26-.26 1.132-.13 2.15-1.165 2.034-2.233-.264-2.383.555-4.53 1.18-6.73.18-.624.335-1.252.523-1.87.02-.06.173-.1.264-.106.096-.004.264.017.284.073.373 1.016.798 2.025 1.073 3.07 1.028 3.918 2.18 7.794 3.574 11.597 1.504 4.107 3.093 8.175 3.794 12.544.216 1.344.9 2.763 1.77 3.812 1.075 1.29 2.817 1.51 4.464 1.81 1.198.215 2.11-.147 3.12-.594 2.177-.96 4-2.618 6.508-2.978 1.344-.192 2.03-1.92 1.49-3.157-.48-1.102-1.068-2.16-1.628-3.225-3.746-7.078-6.812-14.448-9.408-22.02-.39-1.136.18-1.507.933-1.527.437-.013.885-.034 1.312.037 3.21.54 6.31-.046 9.41-.813 3.21-.793 6.123-2.347 9.2-3.48.597-.22 1.124-.672 1.637-1.074.676-.533.77-1.393.154-2.005zM44.412 13.52c.06-.312.604-.76.917-.754 1.3.017 2.61.17 3.91.31.54.06 1.066.276 1.607.315 5.664.383 11.31 1.073 17.007.68 3.376-.227 6.755-.425 10.138-.58 1.745-.076 3.5-.04 5.248-.03.618.004.81.324.515.767-.06.09-.125.18-.192.264-2.35 2.934-2.93 6.26-2.23 9.89.14.716-.127 1.046-.75 1.02-2.077-.07-4.153-.152-6.225-.227-.003.035-.003.072-.005.11-1.53 0-3.06 0-4.595-.003-.544 0-1.124.092-1.632-.044-2.256-.597-4.557-.475-6.848-.54-.803-.025-1.083-.34-1.18-1.225-.067-.646-.028-1.33-.22-1.943-.154-.484-.512-.964-.9-1.31-.82-.72-2.155-.214-2.254.837-.092.977-.064 1.966-.12 2.947-.045.735-.483 1.114-1.297 1.203-.646.068-1.115-.192-1.242-.768-.21-.96-.36-1.934-.557-2.898-.087-.42-.203-.845-.368-1.24-.25-.598-1.007-.972-1.618-.863s-.996.526-1.088 1.083c-.164.965-.218 1.952-.316 2.93-.053.543-.034 1.103-.18 1.616-.073.245-.45.546-.7.555-.252.01-.644-.245-.758-.488-.654-1.41-.87-2.913-.956-4.455-.048-.858-.213-1.728-.487-2.54-.1-.296-.65-.543-1.032-.61-.224-.04-.66.265-.76.513-.415.996-.735 2.037-1.092 3.057-.068.19-.17.366-.256.55-.053-.214-.14-.42-.154-.632-.18-2.53.195-5.02.668-7.488zm-6.73 5.317c.086-1.984.51-3.893 1.172-5.758.258-.727.723-1.058 1.485-.988.105.01.21.017.322.027.582.05.792.32.57.82-1.737 3.94-2.004 8.006-1.148 12.187.032.15-.146.343-.245.505-.01.013-.2-.067-.285-.132-.085-.065-.16-.155-.217-.244-1.82-2.927-1.81-2.927-1.658-6.417zm-7.004-2.632c1.05-1.52 2.203-2.965 3.322-4.434.05-.064.192-.062.29-.086.09.047.2.075.26.15.053.06.096.186.072.26-.66 1.86-.932 3.797-1.195 5.744-.358 2.62-.51 5.205.71 7.683.09.188-.108.585-.27.803-.078.105-.412.066-.61.018-.778-.197-1.368-.62-1.716-1.377-.875-1.9-1.296-3.925-1.617-5.967-.16-1.013.194-1.982.757-2.793zm.27 84.015c-.023.098-.11.184-.164.277-.077-.156-.17-.304-.226-.466-.034-.096-.02-.21-.055-.726.154-.774.37-1.936.627-3.088.028-.133.26-.218.4-.325.082.193.26.4.228.566-.245 1.26-.533 2.51-.81 3.763zm1.05-8.092l.13-.192.072.224-.203-.032zm30.784 21.692c-.54.306-1.21.378-1.42.433-1.023.155-1.34-.03-1.29-.5.032-.294.12-.716.322-.83.555-.316 1.178-.512 1.785-.73.442-.16.99.1.963.495-.027.397-.103.984-.363 1.133zm.576-6.176c-.01.434.008.894-.13 1.29-.07.193-.5.412-.716.37-.418-.078-.81-.315-1.19-.532-.1-.06-.177-.395-.135-.43.787-.59 1.094-1.347.787-2.295-.267-.827-1.104-.966-1.74-1.355-.34-.21-.354-.894-.03-1.127.257-.192.556-.33.83-.498.278-.173.577-.318.816-.533.678-.624.663-1.752-.075-2.293-.427-.307-.963-.467-1.437-.726-.825-.445-1.03-1.476-.446-2.22.133-.17.294-.325.47-.45.532-.386 1.22-.764 1.036-1.503-.114-.45-.68-.78-.992-1.2-.09-.11-.072-.446.027-.53.238-.207.54-.37.838-.482.785-.29 1.244-.832 1.463-1.632.034-.13.354-.27.523-.245.17.02.392.21.452.374.102.3.1.636.134.893-.632 5.074-.376 10.108-.485 15.132zm17.59-40.457c-.45-.05-1.104-.697-1.012-1.1.16-.737.39-1.456.602-2.177.023-.085.128-.15.194-.222.085.07.213.12.245.213.282.69.597 1.378.797 2.093.153.54-.392 1.24-.823 1.195zm-.572-24.736c-.69 2.31-1.248 4.623-1.315 7.07-.036 1.393-.585 2.77-.912 4.153-2.112 8.825-4.245 17.645-6.333 26.475-.88 3.714-.987 3.95-4.998 4.166-3.83.21-7.666.18-11.502.273-7.334.177-14.67.363-22.005.55-.11 0-.22.01-.33.016-3.49.187-7.01-.318-10.484.4-.1.02-.34-.256-.373-.422-.034-.19.06-.423.146-.62 1.414-3.113 2.117-6.44 2.796-9.76.57-2.796 1.323-5.52 2.427-8.153 1.316-3.132 2.128-6.426 3.104-9.675 1.7-5.663 2.475-11.54 4.265-17.178.69-2.176 1.003-4.474 1.515-6.71.122-.53.34-1.038.528-1.552.21-.587.66-.83 1.26-.835.767-.01 1.535-.013 2.3-.013H57.89l.002-.213c6.353.113 12.71.195 19.065.367 1.742.05 3.477.37 5.218.58.523.063.813.45.63.895-1.334 3.273-1.423 6.84-2.425 10.192zm3.876 33.23c-.36.244-.907.116-1.04-.29-.135-.4-.24-.81-.39-1.343.168-.414.34-.907.576-1.365.085-.17.3-.338.485-.38.126-.024.38.135.437.274.252.587.512 1.177.645 1.792.125.578-.245.992-.715 1.312zm3.274 11.15c-.47-.405-.18-1.35.46-1.596.195.032.522.01.564.11.333.79.615 1.6.896 2.412.023.07-.064.203-.14.272-.03.03-.164.01-.22-.032-.53-.38-1.07-.74-1.56-1.166zm6.155 10.976c.898 1.995 1.947 3.92 2.906 5.888.365.747.23 1.152-.518 1.63-.368.234-.745.49-1.158.6-.252.07-.62-.05-.852-.205-.26-.177-.49-.46-.622-.75-.832-1.89-1.692-3.777-2.42-5.71-.257-.685-.156-1.5-.193-1.95.337-1.38-.082-2.12-.8-2.943-1.135-1.3-1.547-2.882-.658-4.555.096-.18.267-.37.448-.44.096-.036.367.14.424.28 1.156 2.72 2.243 5.46 3.445 8.154zm13.906-26.52c-.064.18-.26.384-.442.442-4.613 1.444-9.257 2.645-14.174 1.963-.733-.102-1.505.118-2.26.174-.48.036-.832-.16-1.02-.622-.887-2.234-1.748-4.486-2.684-6.7-1.105-2.62-2.272-5.217-3.438-7.81-.174-.383-.472-.735-.772-1.044-.53-.546-.512-1.175-.378-1.833.464-2.246.977-4.484 1.402-6.74.648-3.434 1.163-6.894 1.877-10.317.665-3.198 1.077-6.477 2.344-9.52.56-1.347.495-2.554-.316-3.728-.79-1.143-.853-2.437-.917-3.765-.062-1.276.398-2.33 1.008-3.397.986-1.73 2.436-2.41 4.376-2.22.57.058 1.014.255 1.43.67 2.11 2.124 3.14 4.7 3.31 7.655.035.655.07 1.313.074 1.968.007 3.4.002 6.796.002 10.19h-.07c0 3.07-.06 6.137.015 9.203.11 4.49.605 8.942 1.93 13.267.877 2.85 2.07 5.574 4.103 7.78 1.32 1.436 2.96 2.577 4.442 3.872.117.106.208.375.16.515zM70.49 33.556c-1.62.66-3.246 1.318-4.83 2.064-1.78.835-3.533 1.74-5.265 2.677-.664.36-1.3.824-1.835 1.357-.776.78-.803 1.778-.427 2.754.3.776.94 1.19 1.762 1.285.54.064 1.09.047 1.623.147.395.075.46.448.3.743-.308.58-.66 1.14-1.04 1.675-2.972 4.2-5.953 8.392-8.934 12.584-.062.09-.153.16-.222.243-.31.366-.738.328-1.067-.078-.845-1.03-1.413-2.195-1.84-3.456-.202-.6-.51-1.257-.97-1.675-1.362-1.248-3.307-1.403-4.584.356-2.134 2.94-4.74 5.45-7.12 8.167-1.51 1.73-2.91 3.56-4.357 5.346-.832 1.024-.88 2.206-.627 3.43.256 1.226 1.774 1.898 2.854 1.22.547-.345 1.06-.787 1.497-1.267 2.507-2.752 5.045-5.48 7.458-8.313 2.332-2.733 2.09-2.15 3.748.317.42.62.555 1.428.926 2.09.42.75.88 1.52 1.474 2.127 1.156 1.178 3.05 1.088 4.064-.175.686-.847 1.232-1.808 1.855-2.705 2.002-2.877 3.99-5.76 6.02-8.615 1.71-2.407 3.46-4.786 5.212-7.168.45-.615.94-1.205 1.44-1.785.134-.156.376-.215.565-.317.058.198.203.425.155.59-.41 1.277-.478 2.59-.337 3.9.21 1.955 2.555 3.036 4.267 2.032.933-.55 1.352-1.39 1.504-2.414.207-1.4.444-2.8.632-4.207.288-2.165.544-4.336.747-5.987 0-1.08-.036-1.632.006-2.176.122-1.528-.58-2.767-1.425-3.924-.74-1.008-2.064-1.325-3.236-.843z"/></svg>