<svg xmlns="http://www.w3.org/2000/svg" width="128" height="128" viewBox="0 0 128 128"><path d="M114.112 57.195c0-1.254-.003-2.507 0-3.76.02-5.85-.14-11.694-.533-17.532-.04-.624-.1-1.25-.21-1.864-.254-1.426-1.116-2.385-2.35-3.098-.69-.4-1.4-.363-2.123-.363-6.58 0-13.165.01-19.746.02-.313 0-.63-.014-.94.02-1.64.166-2.695 1.16-2.867 2.79-.096.932-.06 1.877-.075 2.82-.166 9.08.077 18.16-.573 27.243-.42 5.818-.053 11.694.017 17.544.016 1.456.275 2.91.363 4.368.113 1.975.206 3.936-.14 5.926-.353 2.05-.692 4.1-.788 6.203-.108 2.336.51 4.552.707 6.827.085.993.39 1.275 1.4 1.288 4.91.064 9.82.072 14.73.154 2.52.043 4.998-.245 7.476-.645 1.39-.224 2.364-.832 2.485-2.336.043-.544.132-1.025.608-1.353 1.293-.9 1.435-2.197 1.3-3.62-.156-1.66-.41-3.33-.362-4.988.108-3.86.374-7.713.577-11.57.01-.21.047-.416.07-.623.505-4.46.983-8.92.99-13.415.005-3.344 0-6.687 0-10.03h-.02zm-5.086-18.934c-.14 2.398-.384 4.79-.437 7.186-.103 4.493-.183 8.988-.11 13.48.1 5.963-.337 11.9-.666 17.84-.178 3.225-.784 6.428-.922 9.652-.173 4.06-.49 8.14.304 12.183.06.303.11.66-.002.925-.096.228-.47.544-.644.504-2.042-.48-4.13-.42-6.2-.596-.303-.026-.372-.21-.183-.437.93-1.124 1.9-2.22 2.78-3.38.202-.27.28-.836.13-1.12-.155-.298-.626-.524-.996-.6-.732-.146-1.414.11-2.1.428-2.132.986-3.796 2.543-5.36 4.24-.272.3-.585.576-.924.786-.11.07-.413-.054-.544-.18-.12-.11-.227-.446-.165-.51.957-.956 1.937-1.89 2.923-2.82 1.593-1.507 3.196-3.004 4.79-4.51.827-.776 1.11-1.74.96-2.848-.103-.735-.69-1.346-1.424-1.462-1.088-.17-2.07.017-2.912.79-1.536 1.412-3.083 2.815-4.632 4.217-.31.277-.635.537-.963.79-.076.06-.246.116-.287.082-.127-.116-.29-.27-.305-.42-.107-1.19.176-2.27.958-3.21.94-1.12 1.87-2.246 2.767-3.4.442-.573.883-1.174 1.17-1.828.693-1.59.16-2.466-1.616-2.823-.647-.13-.75-.283-.424-.687.917-1.134 1.867-2.248 2.773-3.394.384-.487.77-1 1.024-1.558.533-1.174-.2-2.32-1.525-2.44-.472-.043-.95-.02-1.43-.018-.013.028-.03.053-.045.083-.068.032-.14.064-.203.102l-.114.175c.023-.053.034-.126.075-.157.01-.008.026-.01.038-.02.038-.062.08-.122.117-.184h.133c.853-1.667 2.338-2.822 3.488-4.245.46-.57 1.004-1.07 1.46-1.638.64-.79.785-1.732.41-2.307-.452-.698-1.636-1.186-2.49-.97-1.13.287-2.143.82-3.04 1.567-.72.603-1.428 1.22-2.167 1.798-.117.094-.424.093-.544.003-.14-.106-.253-.365-.23-.54.07-.506.112-1.055.348-1.488.345-.637.83-1.198 1.284-1.77.844-1.063 1.725-2.098 2.547-3.177.308-.405.583-.875.72-1.36.413-1.437-.674-2.552-2.095-2.13-.79.235-1.524.656-2.3.956-.11.044-.322-.12-.454-.226-.06-.048-.076-.198-.06-.29.06-.303.073-.64.225-.894 1.78-2.944 3.363-6.018 5.493-8.745.128-.165.277-.313.4-.48.596-.83.622-1.398.103-1.98-.626-.706-1.503-.947-2.25-.553-.454.24-.9.533-1.28.878-.545.487-1.007 1.064-1.544 1.558-.284.26-.65.427-.98.635-.067-.407-.18-.814-.19-1.222-.028-1.464-.02-2.926-.02-4.39-.004-.938-.04-1.884.028-2.82.103-1.437-.235-2.917.42-4.302 1.34-.18 2.673-.49 4.014-.52 4.075-.096 8.15-.09 12.224-.11.478 0 .783.302.78.78-.005 1.043-.037 2.09-.097 3.13zM76.566 58.8c-.11-.868-.908-1.47-1.78-1.415-1.45.09-2.915.122-4.35.34-3.33.506-6.693.506-9.985.138-3.68-.412-7.273.277-10.91.208-.917-.014-1.58.51-1.835 1.424-.25.898-.462 1.777-.258 2.758.23 1.116.267 2.278.32 3.423.328 7.102-.366 14.165-.864 21.233-.014.205-.072.41-.11.614-.447 2.592-.46 5.22-.16 7.797.268 2.29.296 4.57.344 6.86.016.73.037 1.457.02 2.187-.033 1.13.488 2.227 2.244 2.56.913.174 1.868.126 2.806.17 1.04.047 2.083.056 3.122.132 1.555.11 3.104.3 4.66.4 1.872.123 3.75.19 5.622.287 1.14.062 2.288.093 3.425.216 2.283.246 3.973-.447 5.277-2.49.704-1.104 1.26-2.115 1.264-3.413.002-1.043.002-2.084.01-3.13.012-1.25-.05-2.51.06-3.754.576-6.54 1.016-13.088 1.05-19.66.008-1.354.003-2.708.003-4.063h.187c0-3.34.01-6.677-.006-10.016-.005-.934-.04-1.877-.157-2.805zm-3.878 5.906c-.97 5.36-1.045 10.78-1.266 16.2-.153 3.745-.66 7.47-.94 11.21-.138 1.87-.122 3.755-.163 5.632-.03 1.355-.027 2.712-.07 4.067-.017.465-.33.772-.8.79-1.25.044-2.504.072-3.755.068-1.355-.003-1.408-.046-.762-1.44.414-.894-.24-1.788-.922-1.995-.255-.08-.616-.003-.86.126-.26.14-.516.387-.646.65-.267.538-.448 1.117-.663 1.676-.714-.088-1.43-.165-2.145-.277-.645-.096-.88-.612-.483-1.096 1.126-1.37 2.302-2.7 3.408-4.082.645-.808 1.25-1.662 1.767-2.554.33-.563.195-1.21-.15-1.785-.562-.934-1.415-1.198-2.388-.768-1.367.6-2.507 1.51-3.5 2.592-1.2 1.304-2.346 2.655-3.53 3.972-.125.136-.354.177-.535.26-.06-.298-.222-.62-.158-.89.09-.386.29-.776.533-1.093 1.396-1.825 2.83-3.617 4.222-5.44.57-.748 1.09-1.53 1.593-2.32.422-.67.38-1.37.043-2.088-.5-1.07-1.643-1.448-2.575-.782-.42.302-.796.674-1.184 1.02-1.684 1.508-2.38 1.953-2.4 1.543-.05-1.155.83-1.85 1.398-2.676 1.24-1.805 2.57-3.548 3.824-5.344.474-.68.926-1.402 1.216-2.17.167-.444.08-1.04-.048-1.524-.21-.806-1.257-1.244-2.043-.88-.66.31-1.26.75-1.923 1.04-.497.217-.664 1.13-1.46.7.22-.567.353-1.187.67-1.694.882-1.412 1.835-2.782 2.773-4.162.584-.863 1.237-1.68 1.766-2.576.553-.936-.145-2.216-1.22-2.386-.978-.155-1.89.036-2.668.632-.74.565-1.41 1.227-2.126 1.83-.234.194-.53.49-.767.465-.533-.06-.42-.59-.46-.96-.16-1.553-.33-3.107-.426-4.666-.06-.894.403-1.406 1.26-1.45.934-.048 1.876-.01 3.082-.01 2.542.093 5.356.27 8.17.277 2.08.005 4.157-.22 6.24-.327.766-.04 1.122.325 1.122 1.12-.003.524.032 1.057-.06 1.564zm-13.416-19.87c.422-.23.772-.21 1.016.284.925 1.875 1.944 3.686 3.435 5.19 1.094 1.106 2.28 1 3.112-.332.22-.352.405-.734.547-1.122.754-2.06 1.597-4.09 2.208-6.187 1.105-3.805 2.1-7.64 3.072-11.48.405-1.607.624-3.26.928-4.894l-.17-.032c0-.107.002-.21 0-.314-.012-2.5-.515-3.063-2.913-3.615-2.86-.656-5.78-.875-8.685-1.088-3.964-.286-7.88-.902-11.773-1.61-1.49-.272-2.62-.15-3.757.795-1.27 1.05-1.504 1.756-.736 3.24.715 1.383 1.294 2.838 2.352 4.044.586.672.72 1.648.082 2.315-1.36 1.425-2.656 3.017-4.65 3.597-2.548.736-4.758 2.12-6.977 3.488-2.312 1.43-4.658 2.795-7.164 3.853-1.823.768-3.696 1.43-5.553 2.123-1.27.475-2.564.886-3.82 1.398-1.35.553-1.874 1.534-1.72 2.995.022.208.062.413.097.62.808 4.604 2.955 8.666 5.205 12.676.162.287.706.56 1.04.525 1.95-.215 3.953-.18 5.79-1.093 4.576-2.278 9.206-4.46 13.745-6.81 2.96-1.535 5.792-3.314 8.7-4.955 2.18-1.227 4.386-2.41 6.585-3.61zm-15.283 1.4c-1.127.547-2.195 1.21-3.28 1.833-3.72 2.125-7.617 3.887-11.57 5.532-1.006.42-1.604.184-1.97-.806-.427-1.175-.82-2.362-1.233-3.54-.443-1.274-.274-1.76.843-2.24.865-.372 1.727-.764 2.625-1.018 3.153-.897 5.906-2.593 8.7-4.22 3.876-2.256 7.772-4.482 11.657-6.72.725-.418 1.46-.817 2.165-1.26 2.283-1.434 2.584-2.354 1.59-4.954-.26-.676-.604-1.323-.927-1.977-.277-.56-.587-1.105-.87-1.665-.157-.31.075-.63.422-.59.622.076 1.242.167 1.862.253l.016-.093c1.23.23 2.45.512 3.686.677 2.167.287 4.358.444 6.517.78 1.43.224 2.835.63 4.235 1.02.533.146.8.767.584 1.265-1.714 3.936-2.362 8.203-3.853 12.207-.148.392-.335.766-.516 1.14-.04.09-.155.228-.203.214-.152-.04-.356-.103-.42-.22-.742-1.375-1.26-2.866-2.3-4.08-.86-1.01-1.82-1.38-3.02-.97-.488.167-.96.417-1.39.702-1.916 1.265-3.873 2.478-5.7 3.86-2.426 1.834-4.913 3.534-7.653 4.86zm-6.226 30.17c-.597-.156-1.195-.326-1.77-.545-1.182-.44-2.373-.716-3.66-.706-2.82.018-5.643-.01-8.46-.113-2.015-.074-3.924.48-5.873.8-.863.14-1.49.705-1.74 1.61-.196.71-.327 1.38-.233 2.148.192 1.547.28 3.115.306 4.676.046 2.717.014 5.433.014 8.15h-.075c-.028 3.547-.245 7.106-.032 10.64.21 3.484 1.622 4.83 4.572 4.666 1.35-.076 2.733-.062 4.064.15 2.81.448 5.63.17 8.443.256 1.715.055 3.102-.736 3.91-2.18 1.17-2.085 2.25-4.28 2.286-6.734.098-6.58.098-13.163.136-19.744 0-.314-.01-.627-.038-.94-.128-1.356-.51-1.777-1.85-2.132zm-2.272 4.198c-.11 2.19-.187 4.378-.277 6.566-.028 0-.058 0-.087.002 0 1.877.005 3.757-.003 5.636-.003 1.047-.113 2.032-.73 2.98-.364.562-.38 1.382-.447 2.095-.09.933-.043 1.88-.136 2.813-.023.235-.36.622-.555.624-1.76.02-3.525-.02-5.285-.072-.09-.002-.284-.333-.24-.437.308-.77.726-1.5.98-2.284.114-.352 0-.82-.13-1.195-.222-.625-.99-.94-1.534-.684-.377.177-.72.433-1.108.58-.42.16-.605.863-1.23.546.205-.458.367-.944.626-1.37 1.032-1.694 2.126-3.35 3.125-5.06.3-.512.45-1.155.51-1.755.08-.768-.554-1.36-1.324-1.46-1.022-.127-1.835.278-2.558.927-.203.18-.34.18-.452-.107-.032-.085-.013-.22.034-.304.76-1.367 1.486-2.756 2.304-4.087.89-1.444-.24-2.823-1.78-2.514-.204.042-.42.06-.607.14-.385.165-.626-.054-.675-.348-.137-.82-.216-1.653-.273-2.483-.01-.136.2-.306.336-.43.065-.06.197-.06.3-.06 2.716.014 5.43 0 8.144.064.72.018 1.437.24 2.144.412.9.216.965.376.923 1.27z"/></svg>