<svg xmlns="http://www.w3.org/2000/svg" width="128" height="128" viewBox="0 0 128 128"><path d="M123.962 101.167c-.43-.926-1.042-1.69-2.12-1.747-1.222-.068-2.26-.594-3.354-1.035-1.587-.645-3.185-1.285-4.83-1.754-1.636-.463-3.33-.74-5.01-1.043-.636-.114-1.31.352-1.567.91-.24.53-.073 1.277.448 1.75.392.36.798.738 1.265.98 1.327.69 2.686 1.327 4.04 1.964.58.273 1.184.49 1.77.744.097.04.246.165.234.197-.06.156-.134.35-.262.417-.477.245-.97.462-1.467.656-1.166.46-1.224.49-2.018-.55-.786-1.026-1.737-1.46-3.028-1.482-2.033-.035-4.064-.26-6.094-.333-1.5-.055-3.008-.077-4.507.02-4.38.283-8.755.722-13.14.935-6.104.3-12.212.528-18.324.635-6.114.107-12.235.02-18.35.02v.05c-6.87 0-13.736.005-20.603-.003-1.18 0-2.36-.03-3.538-.085-.774-.037-1.077-.443-1.024-1.297.044-.64.044-1.298.19-1.92.522-2.215.5-4.47.53-6.72.05-4.077.036-8.155.09-12.232.147-11.484-.6-22.943-.887-34.416-.01-.428-.043-.858-.075-1.284-.275-4.06-.555-8.117-.81-12.18-.012-.16.178-.44.327-.48.296-.08.63-.02.943-.044 2.027-.14 2.7-.94 2.413-2.86-.047-.32-.093-.64-.19-.946-.8-2.555-1.68-5.084-2.4-7.66-.713-2.545-1.914-4.982-1.545-7.784.163-1.26-.832-2.41-1.883-2.7-1.357-.378-2.694.052-3.343 1.25-.45.83-.72 1.773-.995 2.687-.213.714-.27 1.473-.467 2.193-.785 2.894-1.557 5.79-2.42 8.658-.32 1.063-.462 2.097-.23 3.164.433 2.016 1.82 2.723 3.807 1.973.2-.074.4-.154.587-.257.256-.145.405-.082.448.223.043.318.096.637.098.954.053 9.76.273 19.516.608 29.272.284 8.253.192 16.522.29 24.783.017 1.39.206 2.778.234 4.166.043 2.226.494 4.484-.706 6.615-.34.608-.304 1.454-.356 2.197-.067.964-.035 1.932-.073 2.898-.04 1.035-.32 1.323-1.355 1.346-1.61.032-3.22 0-4.83.043-1.688.042-3.13.642-4.194 2.015-.595.768-.46 1.613.305 2.242.715.587 1.528.723 2.408.715 1.715-.02 3.435-.048 5.15-.032 2.06.02 2.065.04 2.075 2.24.01 1.61-.013 3.22 0 4.83.002.532.01 1.076.114 1.596.27 1.327 1.515 2.34 2.73 2.29 1.12-.046 2.24-.944 2.51-2.147.16-.723.177-1.486.188-2.23.027-1.824-.003-3.648.024-5.47.005-.46.304-.806.767-.883.42-.07.855-.053 1.283-.058 7.5-.09 14.996.5 22.5.123.32-.015.64.04.96.06 1.177.067 2.354.19 3.53.187 9.115-.03 18.23.395 27.342-.313 5.448-.424 10.912-.63 16.37-.933.213-.01.43-.014.643-.047 3.945-.612 7.925-.267 11.887-.4.896-.033 1.024.187.914 1.15-.282 2.45 1.077 3.77 3.343 3.25.206-.046.42-.095.612-.182 3.232-1.434 6.55-2.7 9.54-4.618.8-.515 1.544-1.163 2.197-1.856.635-.677.674-1.54.276-2.403zm-36.615-7.38c1.534-.417 3.163-.69 4.747-.668 1.675.02 3.236-.914 4.987-.32.783.26 1.87-.816 2.044-1.72.117-.627.146-1.278.146-1.918-.007-1.928.006-3.86-.09-5.784-.076-1.49-.325-2.972-.464-4.46-.3-3.192-.845-6.35-.813-9.586.085-8.572.02-17.145.04-25.717.005-2.035.05-4.072.15-6.106.1-1.92.3-3.837.492-6.208-.176-2.23-.373-4.89-.6-7.547-.085-.955-.62-1.542-1.58-1.77-3.063-.724-6.17-.582-9.273-.476-.41.013-.82.22-1.21.39-1.198.52-1.585 1.195-1.18 2.537.297.975.28 1.895.097 2.846-.717 3.683-1.124 7.396-1.13 11.15-.013 7.61.01 15.218-.065 22.827-.04 3.958-.304 7.916-.384 11.873-.084 4.286-.07 8.572-.106 12.86-.01 1.386.098 2.778-.478 4.114-.328.754-.088 1.543.446 2.096 1.134 1.173 2.34 2.095 4.224 1.585zm4.923-5.013c-.725.094-1.45.17-2.325.27-.38 0-.904.007-1.427 0-.43-.01-.747-.406-.678-.854.07-.466.395-.875.817-.728.956.334 1.85.156 2.79.025.3-.043.702.32.99.573.295.264.175.672-.17.715zm-.054-32.63c-.126.06-.363-.113-.552-.183l.698-.843c.117.134.24.267.437.49-.19.187-.354.434-.584.54zm.293 16.496c-.08.053-.158.14-.245.154-.216.032-.435.045-.653.062-.036.037-.073.075-.11.11-.09.038-.18.07-.26.118-.05.03-.086.085-.126.128.096-.112.196-.224.29-.337l.204-.02c.158-.157.31-.32.494-.434.064-.04.267.14.405.22zm.275-22.435c-.117.224-.37.565-.514.544-.51-.08-1-.286-1.492-.458-.31-.11-.304-.252-.04-.448.42-.314.807-.67 1.228-.983.41-.304.78-.112.835.413.01.105.02.208.036.324-.013.197.037.437-.053.608zm-.55-6.93c-.958.198-1.836.516-2.676 1.012-.337.198-.786 1.04-1.17.21-.266-.576.45-.837.904-1.105.917-.542 1.818-1.11 2.735-1.65.41-.243.797.043.8.846-.104.13-.307.63-.596.688zM89.69 73.778c.09.017.163.11.338.238-.467.235-.885.454-1.316.648-.036.016-.21-.126-.207-.187.02-.32.787-.768 1.187-.7zm-1.125-16.75c.186-.033.37-.093.555-.086.073 0 .142.147.213.225l-.55.264c-.075-.134-.144-.267-.218-.403zm4.243 20.39c-.158-.02-.3-.196-.448-.306.082-.066.17-.2.245-.19.18.016.358.1.54.154-.114.125-.24.354-.337.344zm-.015-40.72c-.105.026-.21.057-.315.054-1.205-.02-2.296.342-3.354.9-.594.313-.913.053-.94-.67-.033-.826.116-.91 1.04-.864.62.03 1.26.006 1.86-.125.51-.11.975-.413 1.465-.623.32-.14.59-.103.72.267.13.373-.15.98-.48 1.063zm-4.873-11.18c.846-.097 1.7-.108 3.072-.18.655.106 1.81.263 2.957.478.48.09.65.483.61.96-.01.107-.024.21-.046.317-.245 1.248-.226 2.645-.815 3.704-.684 1.23-2.407 1.232-3.556 2-.26.175-.58.265-.875.393-.36.157-.748.504-1.046-.05-.243-.44-.07-1.153.333-1.435.26-.18.576-.28.848-.446.18-.114.348-.258.48-.42.203-.246.366-.518.544-.78-.3-.05-.604-.16-.897-.136-.31.028-.603.21-.912.288-.52.128-.794-.156-.877-.633-.187-1.05-.37-2.1-.508-3.16-.062-.474.21-.856.683-.91zM65.656 55.263c-.023 2.79-.072 5.58-.075 8.37 0 .63-.073 1.413.25 1.862.66.907.503 1.828.45 2.78-.22 3.96-.45 7.918-.64 11.2 0 1.433.053 2.187-.01 2.933-.25 3.133.48 6.188.736 9.277.06.734.39 1.444.595 2.165.196.693.724 1.067 1.35 1.266.5.16 1.046.245 1.575.245 2.254.02 4.51 0 6.76-.016.32-.003.65-.026.955-.112.865-.245 1.62-.65 1.724-1.668.088-.864.35-1.653.736-2.438.273-.555.433-1.23.43-1.85-.013-2.786.103-5.597-.203-8.358-.672-6.08-1.202-12.156-1.083-18.28.053-2.685.07-5.37-.026-8.05-.153-4.285-.41-8.566-.636-12.847-.02-.42-.117-.85-.233-1.26-.153-.533-.455-.907-1.043-1.09-2.825-.89-5.717-.705-8.608-.633-1.524.038-2.664.852-2.95 2.836-.38 2.645-.58 5.323-.776 7.992-.06.835-.032 1.76.27 2.52.417 1.047.46 2.082.45 3.153zm5.06 31.66c-.092-.17-.186-.334-.28-.5.18-.495.578-.576 1.02-.476.116.027.194.233.29.355l-1.03.62zm5.13 1.43c.135.388.108.833.13 1.048 0 .417.068.666-.018.833-.13.245-.34.58-.57.63-.606.13-1.297.266-1.757-.32-.166-.212-.13-.593-.163-.9-.01-.093.027-.227.094-.287.536-.497 1.068-1.003 1.65-1.44.077-.053.565.23.638.437zm-.54-3.757c-.05.238-.222.452-.336.66-.296-.113-.54-.133-.645-.266-.166-.204.33-.817.653-.77.13.018.348.27.328.377zm-.512-6.72c.102.683-.056 1.152-.798 1.49-1.05.48-1.997 1.184-2.987 1.796-.39.242-.79.058-.953-.437-.384-1.184-.245-1.58.732-2.074.664-.336 1.364-.62 1.99-1.02.435-.275.83-.666 1.136-1.086.324-.44.416-.984.04-1.48-.348-.462-.877-.753-1.387-.566-.79.287-1.516.76-2.26 1.158-.46.245-.713.067-.75-.515-.043-.67.015-1.236.752-1.57.875-.392 1.704-.88 2.552-1.33 1.4-.74 1.713-.597 1.774.856.063 1.59.106 3.184.157 4.78zm-5.076-8.49l.235-.066-.02.182-.214-.115zm4.62-22.588l.167.195-.154.486c-.046-.07-.14-.15-.134-.218.016-.157.08-.31.122-.465zm-.194 2.907c.058-.085.14-.155.21-.233l.235.648c-.104.21-.218.484-.37.736-.038.06-.247.098-.29.056-.123-.113-.31-.32-.275-.41.112-.286.313-.537.487-.798zm-.523 17.64c.138.16.24.283.34.405-.22.14-.436.294-.67.414-.04.02-.154-.1-.236-.156l.57-.663zm-4.693-24.072c.028-.62.382-1.028.946-1.032.846-.005 1.693.016 2.537.067.586.035.753.473.44 1.11-.138.285-.455.545-.458.82-.023 1.677-1.23 1.978-2.494 2.234-.387.08-.873-.266-.907-.66-.043-.525-.062-1.054-.066-1.142 0-.76-.01-1.08.003-1.396zM46.94 54.005c.07 2.032.097 4.066.207 6.096.117 2.138.37 4.266.454 6.404.13 3.213.165 6.43.24 9.646h-.036c0 1.823.028 3.647-.006 5.468-.085 4.498-.25 8.996.495 13.46.128.773.512 1.244 1.232 1.134 2.453-.38 4.913-.198 7.37-.12 1.048.032 1.86-.302 2.426-1.245.327-.542.85-.963 1.18-1.504.323-.53.603-1.12.73-1.72.135-.62.09-1.28.08-1.923-.086-5.04-.274-10.077-.25-15.115.02-5.136-.643-10.27-.09-15.407.042-.42.013-.858-.01-1.284-.113-2.46-.236-4.92-.353-7.38-.04-.856.008-1.73-.14-2.565-.147-.83-.42-1.655-.78-2.417-.14-.292-.747-.634-1.018-.553-2.02.618-4.05.065-6.07.167-1.283.066-2.577-.004-3.853.13-1.36.143-2.283 1.296-2.298 2.664-.004.32-.03.663.066.96.54 1.67.36 3.397.42 5.105zm4.903 12.31c-.067-.085-.203-.184-.188-.245.047-.192.153-.366.235-.544.066.085.13.17.194.256-.082.177-.16.355-.242.533zm3.952 23.06c-.924.147-1.867.18-2.805.236l-.146.103-.15.072c-.042.112-.084.224-.13.337-.076-.052-.155-.11-.234-.162.122-.058.243-.115.363-.174l.062-.157.238-.016c.79-.533 1.57-1.084 2.39-1.568.13-.08.667.18.667.284 0 .363-.105 1.026-.254 1.05zm-.18-7.122c.102.16.202.317.305.475-.147.614-.734 1.02-1.383.94-.096-.012-.18-.102-.272-.157.45-.414.9-.833 1.35-1.255zm-.62-12.075c-.027-.053.068-.2.144-.256.206-.164.433-.306.652-.457l.184.574c-.004.1.015.21-.018.302-.09.267-.137.68-.54.506-.202-.086-.308-.428-.426-.67zm1.29-11.72c-.308-.248-.703-.444-.903-.763-.192-.31.384-.925.704-.768.228.11.37.403.562.63l-.363.9zm-2.94-.89l.065-.143c.038 0 .068-.008.105-.01.047-.313.19-.534.55-.542 0-.02.01-.035.007-.06.018-.002.03-.014.047-.018-.045-.613-.115-1.227-.11-1.84.004-1.076 1.033-2.173 2.185-2.344.11-.015.37.223.378.35.032.636.025 1.275-.02 1.906-.017.18-.262.514-.325.498-1.276-.352-1.246 1.21-2.11 1.432 0 .023.002.047.004.07-.02 0-.036.008-.058.008-.002.378-.22.523-.55.542-.006.032-.016.06-.02.096-.02.044-.08.054-.148.06l-.142.324c-.242-.328-.028-.31.14-.323zm-.74 27.098l.152-.15c.053-.03.11-.06.165-.092l.027-.067.04.03-.07.037-.07.18c-.083.02-.166.033-.245.062-.053.053-.107.107-.16.157.043-.05.07-.125.125-.15.012-.003.026-.002.037-.006zM50.808 48.96c.206-.01.416 0 .784 0 .148.028.463.053.743.162.112.043.245.37.205.412-.568.597-1.133 1.205-1.763 1.736-.448.378-.465-.17-.55-.392-.114-.286-.15-.604-.2-.912-.108-.656.13-.965.782-1.005zm-21.41 43.243c-.027 1.824.82 2.933 2.354 3.832.92.538 1.7 1.28 2.845 1.315 2.352.067 4.683.078 6.976-.672 1.185-.387 1.852-1.123 1.976-2.25.127-1.16.057-2.35 0-3.523-.084-1.813-.308-3.62-.33-5.43-.055-3.852-.02-7.71-.02-11.564h.09c-.1-4.814-.18-9.63-.312-14.446-.02-.843-.198-1.69-.398-2.51-.192-.79-.743-1.268-1.58-1.398-1.156-.18-2.306-.487-3.47-.544-2.026-.1-4.063-.116-6.09-.042-1.27.047-1.93.753-2.15 1.992-.074.416-.155.87-.06 1.267.453 1.91.268 3.84.226 5.757-.064 2.885-.258 5.767-.288 8.65-.06 5.25-.053 10.494-.032 15.74.01 1.28.28 2.557.26 3.832zm4.31-25.833c-.018-.053.09-.208.156-.222.408-.075.82-.13 1.235-.18.83-.1 1.68-.137 2.5-.304 1.034-.208 1.25-.07 1.17.953-.058.687-.4.912-.92.48-1.265-1.06-2.554-.774-3.892-.25-.023.006-.192-.302-.248-.477zm4.008 22.03c-1.073.38-2.14.78-3.204 1.17-.084-.08-.22-.15-.223-.227-.01-.18-.014-.478.084-.528 1.387-.72 2.814-1.373 3.893-2.562.02-.02.338.132.373.245.316 1.056.053 1.552-.924 1.9zm.632-4.036c-.562-.302-1.144-.578-1.68-.922-.267-.168-.43-.446-.08-.757.316-.283.63-.58.877-.92.49-.67.594-1.413-.027-2.045-.608-.617-.757-1.178-.282-1.963.343-.567.392-1.355-.123-1.792-.902-.768-1.045-1.434-.275-2.376.448-.55.262-1.16-.107-1.78-.56-.95-.506-.978.16-1.47.428-.318.847-.647 1.276-.96.245-.18.602.03.604.386.01 2.353.004 4.707.004 7.06h.08c0 1.82.022 3.64-.014 5.46-.01.703.256 1.492-.414 2.076zm-4.544-26.13c1.523-.184 2.958.243 4.405.57.815.185 1.01.468 1.025 1.34.006.32 0 .64 0 .977-.05.51-.103 1.04-.15 1.57-.027.32-.175.405-.43.207-1.516-1.163-3.152-1.013-4.854-.52-.46.133-.8-.196-.863-.683-.096-.736-.18-1.478-.227-2.222-.048-.788.327-1.144 1.093-1.236z"/></svg>