<svg xmlns="http://www.w3.org/2000/svg" width="128" height="128" viewBox="0 0 128 128"><path d="M123.06 101.617c-.32-1.077-.912-2.05-2.12-2.163-1.436-.132-2.668-.734-3.948-1.276-2.87-1.213-5.84-2.088-8.917-2.585-.996-.16-1.92.296-2.112 1.045-.216.853.24 1.47.853 1.94 1.453 1.12 3.093 1.913 4.802 2.57.695.267 1.38.57 2.062.873.293.13.283.32-.02.45-.788.34-1.58.66-2.37.995-.475.203-.75.043-1.015-.398-.63-1.047-1.425-1.835-2.787-1.882-2.464-.083-4.92-.275-7.38-.37-1.286-.05-2.58-.046-3.862.04-4.382.297-8.755.742-13.14.937-6.857.306-13.718.516-20.58.647-5.364.1-10.73.02-16.095.02v.032c-6.76 0-13.52 0-20.28-.004-1.18 0-2.362-.018-3.54-.068-.962-.043-1.25-.42-1.174-1.478.046-.642.125-1.28.188-1.922.165-1.704.456-3.405.475-5.11.135-12.548.335-25.098-.453-37.638-.377-5.99-.533-11.995-.816-17.992-.09-1.925-.276-3.845-.37-5.77-.01-.227.27-.617.48-.673.4-.1.853.032 1.274-.01 1.393-.15 2.1-1.004 1.988-2.385-.034-.424-.09-.86-.212-1.267-.7-2.36-1.39-4.727-2.146-7.07-.917-2.832-2.144-5.567-1.845-8.688.122-1.26-.94-2.347-2.028-2.58-1.402-.298-2.61.172-3.275 1.424-.397.747-.653 1.58-.887 2.394-.203.717-.242 1.483-.437 2.2-.778 2.893-1.538 5.794-2.415 8.658-.39 1.28-.568 2.5-.14 3.774.56 1.664 1.79 2.213 3.518 1.58.203-.072.395-.17.587-.27.366-.194.576-.023.64.32.062.314.053.64.058.96.13 8.795.153 17.586.543 26.38.512 11.464.043 22.954.686 34.42.06 1.084.03 2.138-.524 3.123-.544.96-.633 2.036-.657 3.116-.02.964-.02 1.93-.06 2.896-.033.82-.364 1.152-1.19 1.18-1.074.03-2.147.02-3.22.03-.75.008-1.51-.046-2.25.046-1.54.188-2.887.773-3.804 2.12-.47.694-.367 1.426.274 2.003.683.613 1.475.83 2.368.82 1.715-.02 3.432-.047 5.15-.03 2.224.017 2.228.033 2.237 2.4.004 1.61-.03 3.22.005 4.83.014.633.09 1.284.277 1.887.318 1.045 1.378 1.8 2.4 1.84 1.01.035 2.123-.673 2.49-1.705.21-.592.332-1.24.355-1.87.052-1.394.034-2.79.012-4.186-.053-3.187-.136-3.025 2.883-3.034 7.18-.02 14.354.424 21.534.125.32-.014.644.02.964.035 1.39.073 2.78.203 4.17.216 10.51.103 21.025.253 31.52-.474 4.065-.28 8.127-.538 12.19-.806.107-.006.213-.013.32-.028 3.947-.597 7.923-.263 11.886-.378.714-.02.887.245.797.988-.33 2.767 1.186 4.088 3.763 3.275.102-.032.203-.067.3-.114 2.998-1.43 6.008-2.834 8.982-4.31.757-.38 1.435-.943 2.082-1.5.76-.66 1.272-1.49.956-2.557zM43.034 84.373c-.398.35-.846.647-1.2 1.035-.495.537-.466 1.54-.012 2.066.507.587 1.387.866 1.997.587.383-.175.724-.44 1.1-.643.875-.474 1.08-.46 1.68.114.618.583 1.19 1.217 1.853 1.748.68.544 1.657.416 2.343-.2.837-.747 1.053-1.74.512-2.564-.29-.443-.63-.86-.99-1.25-.8-.875-1.162-1.755-.21-2.766.13-.133.118-.395.19-.67-.1-.234-.17-.558-.35-.803-.574-.774-1.305-1.058-2.228-.597-.648.328-1.202.245-1.7-.333-.483-.565-.99-1.112-1.546-1.604-.57-.503-1.536-.495-2.076-.07-.7.55-.945 1.532-.5 2.27.436.726.95 1.41 1.42 2.12.51.764.485.894-.285 1.566zM32.3 73.077c.106 0 .218.02.32-.002.618-.146 1.338-.572 1.834-.387.617.228 1.045.96 1.563 1.465.153.15.333.267.508.39.496.345 1.27.336 1.81-.014.944-.61 1.2-1.43.754-2.466-.25-.582-.72-1.147-.738-1.73-.03-.88.932-1.032 1.513-1.458.34-.25.66-.533.957-.836.46-.474.474-1.204.075-1.754-.615-.843-1.315-1.122-2.2-.624-1.39.78-2.627 1.403-3.652-.507-.262-.487-.912-.498-1.45-.254-.61.28-1.105.69-1.12 1.418-.01.418.005.89.187 1.248.57 1.125.377 2.016-.578 2.827-.313.264-.514.675-.72 1.045-.388.69.16 1.626.936 1.643zm44.315-3.85c-.17-.1-.41-.102-.617-.128-.97-.128-1.84.84-1.653 1.84.04.205.083.43.192.6.512.82.523 1.57-.18 2.316-.278.296-.48.708-.596 1.104-.19.666.013 1.276.567 1.705.494.382.988.848 1.71.51.29-.135.6-.23.876-.39.627-.364 1.125-.274 1.73.17.67.485 1.462.86 2.258 1.102.75.23 1.476-.067 1.99-.702.507-.622.556-1.744.067-2.394-.317-.42-.687-.82-1.09-1.156-.746-.617-1.062-1.305-.568-2.2.074-1.23-.455-1.938-1.61-1.86-1.095.078-2.11.054-3.074-.514zm-24.153 8.015c.405.457 1.008.773 1.57 1.047.705.34 1.87-.168 2.137-.91.137-.39.177-.833.19-1.25.02-.94-.998-1.494-1.05-2.26-.055-.776.494-1.59.762-2.34-.072-.27-.11-.48-.184-.677-.29-.76-1.033-1.265-1.782-.933-1.355.6-2.456.538-3.392-.694-.12-.158-.358-.227-.54-.34-.672-.41-1.636 0-1.713.78-.063.63-.082 1.288.033 1.905.173.92.01 1.666-.62 2.367-.27.3-.412.74-.522 1.144-.22.81.583 1.804 1.404 1.767.315-.014.685.005.932-.15 1.122-.7 1.95-.372 2.773.55zm17.604 8.273c.512-.144 1.016-.35 1.474-.614.637-.367 1.184-.382 1.724.157.555.555 1.23.814 2.02.816.91.002 1.66-.772 1.554-1.64-.025-.212-.02-.457-.13-.623-.68-1.05-.418-1.996.23-2.945.173-.254.225-.592.298-.795.1-.83-.802-1.845-1.583-1.798-.625.037-1.265.162-1.854.373-.567.203-1.01.14-1.485-.2-.346-.245-.72-.467-1.11-.627-.67-.275-1.578.3-1.693 1.038-.032.205-.1.452-.02.62.468.997.285 1.79-.502 2.59-.423.43-.664 1.09-.852 1.69-.302.96.962 2.23 1.927 1.957zM58.56 68.55c.405.43.913.535 1.457.3.49-.21.968-.452 1.437-.707.445-.242.81-.134 1.133.205.435.46.8 1.007 1.3 1.37.978.713 2.55-.116 2.607-1.332.015-.31.028-.69-.126-.93-.7-1.093-.384-1.946.397-2.863.388-.457.528-1.152.69-1.763.227-.864-.536-1.728-1.46-1.62-.618.076-1.253.25-1.817.513-.555.26-.99.26-1.455-.125-.328-.27-.664-.544-1.038-.736-.702-.357-1.58.09-1.74.878-.082.4-.07.82-.095 1.115.634 1.3.203 2.165-.743 2.914-.323.254-.555.64-.78 1-.313.506-.202 1.327.23 1.783zm31.744-27.306c.424.03.875.11 1.267-.002.797-.226 1.407-.184 1.93.565.293.416.757.733 1.187 1.026.245.17.59.2.828.273.273-.094.487-.133.667-.235.863-.493 1.292-1.21.914-2.1-.462-1.09-.304-1.817.66-2.447.26-.17.478-.43.658-.69.398-.564.448-1.183.123-1.802-.325-.616-.866-.945-1.55-.94-.416 0-.902.02-1.233.23-1.13.72-1.975.45-2.72-.573-.18-.25-.47-.433-.73-.614-.502-.347-1.336-.292-1.796.093-.476.398-.82 1.263-.49 1.717 1.085 1.493 1.183 2.864-.215 4.2-.063.062-.042.206-.074.307-.118.334.23.97.575.994zM72.36 55.39c.64-.37 1.21-.853 1.814-1.28.733-.52.907-.51 1.65.11.327.272.613.59.948.846.59.452 1.19.31 1.784-.03.613-.35 1.06-.934.838-1.562-.512-1.44-.816-2.795.15-4.16.1-.143.014-.416.014-.572-.08-.924-1.202-1.744-1.83-1.235-1.332 1.077-2.277.617-3.23-.433-.068-.077-.17-.128-.263-.18-.602-.337-1.21-.37-1.807.003-.62.384-1.007 1.252-.774 1.933.166.487.457.942.743 1.376.704 1.063.69 1.045.06 1.918-.49.683-.99 1.376-1.336 2.133-.115.262.137.798.373 1.08.133.16.648.184.87.056zM28.024 88.356c.633.544 1.294.65 2.067.302.827-.373 1.57-1.283 2.575-.5.146.035.245.074.35.082.636.055 1.426-.46 1.385-1.053-.126-1.733.232-3.29 1.15-4.787.32-.526.016-1.25-.547-1.698-.723-.572-1.547-.875-2.35-.3-.985.71-2.03 1.11-3.23 1.206-.293.02-.643.203-.836.424-.26.3-.637.8-.54 1.052.48 1.25-.04 2.21-.59 3.266-.364.7-.067 1.455.57 2.005zm11.08-40.013c.524-.032 1.087-.06 1.548-.27.905-.417 1.618-.336 2.316.396.363.38.828.675 1.29.935.55.31 1.04.028 1.46-.33.426-.364.7-.826.492-1.41-.143-.398-.307-.81-.55-1.15-.466-.654-.296-1.156.18-1.713.34-.395.65-.862.82-1.35.45-1.268-.607-2.46-1.887-2.147-.404.1-.797.303-1.154.526-.556.344-1.004.18-1.444-.193-.162-.14-.32-.29-.504-.398-.944-.556-2.028-.02-2.102 1.026-.013.213-.094.476 0 .633.86 1.45.132 2.337-.998 3.18-.29.216-.352.737-.403.85-.038.854.432 1.445.934 1.413zm12.69 6.24c.413-.092.81-.258 1.39-.45.267.123.666.246 1 .47.616.412 1.156.95 1.8 1.31.98.543 2.27-.33 2.234-1.475-.015-.42-.032-.896-.235-1.24-.533-.908-.18-1.512.366-2.288.826-1.173.212-2.45-1.24-2.45-1.075 0-1.81-.482-2.656-.907-1.104-.55-2.763.397-2.432 1.554.466 1.617-.378 2.36-1.253 3.285-.2.21-.26.58-.32.89-.158.772.57 1.478 1.343 1.303zm-7.657 5.857c.36 1.244 0 1.963-.928 2.683-.4.31-.68.815-.908 1.284-.12.25-.123.722.035.9.254.28.674.51 1.048.554.397.05.847-.08 1.23-.24.586-.245 1.137-.576 1.698-.88.5-.27.993-.245 1.537-.11 1.11.274 1.195.25 1.255-.687.053-.815.315-1.425.988-1.88.44-.297.937-.568 1.255-.97.38-.48.597-1.09.754-1.392.058-.86-.598-1.514-1.2-1.58-.788-.08-1.466.175-2.08.636-.64.48-1.276.704-2.03.198-.248-.165-.602-.2-.914-.235-1.028-.12-2.03.716-1.74 1.723z"/></svg>