<svg xmlns="http://www.w3.org/2000/svg" width="128" height="128" viewBox="0 0 128 128"><path d="M72.565 83.392c-1.005.085-1.87.552-2.603 1.25-.943.908-1.858 1.85-2.83 2.725-1.62 1.46-3.217 2.965-4.94 4.3-2.204 1.7-4.73 2.684-7.553 2.81-.767.038-1.536.082-2.287.197-2.94.454-5.867.435-8.806-.01-1.077-.164-2.176-.164-3.268-.246-.705-.055-1.266.13-1.62.816-1.58 3.023-3.6 5.7-6.23 7.902-.41.344-.687.846-1.065 1.237-.3.31-.648.587-1.008.83-.144.097-.443.148-.555.065-.14-.11-.224-.373-.224-.567-.003-.546.057-1.09.08-1.637.16-3.496.046-6.982-.634-10.434-.128-.65-.174-1.32-.736-1.757-.81-.635-.853-1.434-.66-2.352.084-.41.106-.927-.074-1.276-.232-.452-.635-.915-1.077-1.117-.28-.126-.777.207-1.166.356-.09.035-.14.165-.215.242-1.232 1.242-1.234 1.246-2.613.373-.462-.29-.928-.58-1.344-.928-.362-.3-.468-.73-.202-1.158.747-1.207 1.493-2.41 2.264-3.605.368-.567.6-1.158.5-1.845-.082-.597-.44-1.05-.987-1.18-.365-.082-.925 0-1.182.24-.793.737-1.49 1.586-2.21 2.4-.34.385-.595 1.094-1.224.673-.41-.27-.754-.834-.845-1.318-.09-.486.06-1.09.29-1.552.83-1.66 1.76-3.268 2.607-4.917.292-.57.57-1.197.64-1.822.034-.333-.303-.853-.62-1.04-.3-.178-.953-.21-1.177-.004-1.202 1.1-2.313 2.296-3.477 3.44-.123.12-.444.173-.593.1-.16-.08-.32-.348-.32-.536-.006-.527-.06-1.117.15-1.568.357-.79.927-1.472 1.354-2.23 1.013-1.806 1.998-3.63 2.992-5.447.155-.286.338-.567.455-.867.17-.435.145-.896-.284-1.152-.235-.135-.65-.202-.868-.084-.96.514-1.867 1.122-2.813 1.67-.25.14-.556.186-.837.28-.05-.304-.224-.65-.134-.902 1.375-3.81 3.043-7.472 5.428-10.784 1.032-1.44 2.19-2.716 3.616-3.756 2.204-1.608 4.33-3.334 6.813-4.516.195-.09.438-.213.52-.384.18-.376.342-.79.367-1.195.02-.304-.188-.62-.307-.924-.503-1.285-1.23-1.685-2.52-1.365-2.347.59-4.587 1.43-6.528 2.92-1.557 1.195-3.128 2.384-4.597 3.685C12.6 51.675 8.687 56.578 6.468 62.7c-.208.574-.745 1.025-1.13 1.537v9.84c.826.33 1.017 1.13 1.2 1.84 1.03 3.988 3.047 7.423 5.546 10.666 2.464 3.2 5.415 5.67 9.203 7.072 1.103.405 1.504 1.16 1.623 2.203.023.216.046.443.005.653-.61 3.205-.56 6.51-1.504 9.668-.56 1.875-.932 3.805-1.456 5.693-.36 1.3-.067 2.444.904 3.273.957.815 2.1 1.093 3.343.405.95-.528 2-.882 2.95-1.413 3.938-2.192 7.668-4.617 10.164-8.55 1.11-1.748 2.403-3.38 3.627-5.057.68-.932 1.415-1.557 2.76-1.14.91.28 1.95.232 2.927.2 4.032-.143 8.068-.324 12.102-.524.53-.027 1.08-.18 1.58-.38 4.766-1.946 8.702-4.93 11.596-9.25.81-1.21 1.278-2.527 1.518-3.933.09-.522.03-1.1-.107-1.61-.062-.224-.5-.515-.747-.496zm50.098-46.916c-.066-3.435-.754-6.702-2.974-9.504-.81-1.02-1.364-2.236-2.097-3.32-.352-.523-.776-1.056-1.293-1.403-1.905-1.288-3.74-2.656-5.36-4.29-.63-.64-1.33-1.14-2.184-1.393-2.504-.747-5.01-1.488-7.528-2.19-1.46-.41-2.947-.758-4.427-1.107-1.267-.298-2.535-.75-3.82-.81-6.323-.312-12.653-.512-17.736-.704-5.5.064-9.765-.192-13.98.63-4.274-.217-7.895 1.788-11.28 3.878-3.415 2.114-6.235 5.14-8.82 8.235-1.952 2.33-3.53 4.987-5.17 7.564-1.175 1.85-2.004 3.895-2.424 6.044-.958 4.878-1.028 9.74.492 14.554.267.845.544 1.64 1.008 2.392.977 1.58 1.742 3.31 2.895 4.74 1.222 1.515 2.795 2.747 4.215 4.107.553.53 1.123 1.04 1.65 1.595 3.53 3.714 8.066 5.547 12.928 6.45 3.087.57 6.257.993 9.443.756.656-.045 1.314-.047 1.968-.08.717-.04 1.252.253 1.658.843.992 1.437 1.978 2.877 3.002 4.296 2.77 3.833 5.935 7.27 10.002 9.786 1.403.866 2.66 1.867 3.534 3.33.525.883 1.483 1.274 2.478 1.43.902.143 2.315-.492 2.307-1.748-.02-4.268.773-8.444 1.356-12.656.322-2.336 1.18-4.398 1.997-6.528.213-.56.59-.913 1.147-1.052 3.798-.95 7.598-1.9 11.4-2.82 2.657-.644 5.316-1.287 7.52-3.024.673-.53 1.345-1.136 1.807-1.843 1.013-1.547 1.92-3.16 2.81-4.78.415-.754.716-1.576 1.014-2.386.42-1.123.778-2.27 1.175-3.403.58-1.66.888-3.355.838-5.13-.043-1.526.082-3.056.155-4.585.094-1.96.328-3.92.29-5.877zm-6.61 13.834c-.105 3.525-2.357 5.973-4.34 8.533-.524.672-1.258 1.213-1.974 1.694-1.54 1.038-3.19 1.867-4.89 2.633-2.74 1.233-5.517 2.027-8.546 1.664-.43-.053-.87-.008-1.31-.008v.05c-1.64 0-3.278-.03-4.916.01-.893.025-1.25.296-1.398 1.088-.508 2.667-1.222 5.285-1.41 8.032-.174 2.485-.788 4.945-1.232 7.41-.032.172-.245.392-.413.433-.176.04-.47-.045-.59-.183-2.496-2.87-5.22-5.557-7.205-8.85-.73-1.214-1.63-2.326-2.41-3.508-.61-.92-1.43-1.265-2.508-1.22-1.2.05-2.405-.022-3.605.018-4.012.133-7.79-.732-11.404-2.452-1.38-.654-2.763-1.34-4.213-1.78-1.956-.593-3.52-1.7-4.94-3.09-.393-.382-.784-.768-1.214-1.1-2.47-1.915-4.475-4.153-5.256-7.284-.105-.416-.3-.832-.546-1.187-2.285-3.317-1.77-7.096-1.77-10.78 0-.5.323-1.024.564-1.504.933-1.85 1.827-3.726 2.856-5.527 2.244-3.923 5.03-7.474 8.593-10.227 2.835-2.19 6.012-3.932 9.753-4.294 2.925-.28 5.835-.752 8.754-1.088.862-.102 1.754-.112 2.613-.02 2.496.268 4.978.636 7.47.916 1.085.12 2.182.195 3.27.17 5.47-.133 10.912.32 16.35.755 1.862.15 3.694.597 5.144 1.867 2.966 2.595 5.778 5.355 7.896 8.715 2.314 3.677 3.634 7.67 3.74 12.045.07 2.736.176 5.472-.918 8.072z"/></svg>