<svg xmlns="http://www.w3.org/2000/svg" width="128" height="128" viewBox="0 0 128 128"><path d="M106.624 70.775c.075-3.513.178-7.05-.115-10.546-.575-6.784-1.254-13.554-1.094-20.375.03-1.317.04-2.648-.11-3.955-.26-2.282-.696-4.543-.976-6.824-.165-1.365-1.07-1.864-2.2-2.06-1.188-.212-2.435-.13-3.592-.423-2.07-.523-4.124-.548-6.213-.343-.875.085-1.755.132-2.635.154-1.254.032-1.685-.117-1.845-1.363-.216-1.643-1.27-2.267-2.578-2.6-2.003-.513-4.005-1.11-6.138-.428-1.024.326-1.384-.007-1.54-1.076-.374-2.565-1.356-4.837-3.06-6.805-.354-.405-.757-.843-.917-1.34-.54-1.642-1.864-2.11-3.328-2.23-2.566-.203-5.042.247-7.298 1.554-2.66 1.54-4.105 3.904-4.46 6.93-.086.76-.024 1.535-.037 2.305-.01.496-.26.842-.748.916-1.626.247-3.253.495-4.885.678-.87.098-1.756.055-2.635.105-.843.05-1.547.37-1.564 1.334-.02 1.233-.888 1.408-1.778 1.467-1.74.12-3.484.148-5.224.223-1.867.082-3.752.03-5.594.296-2.73.39-5.422.874-8.154.014-.7-.22-1.325.168-1.69.755-.465.737-.984 1.5-1.182 2.33-.354 1.483-.59 3.016-.69 4.54-.142 2.19-.104 4.394-.165 6.59-.16 5.71-.375 11.417-.486 17.127-.085 4.506-.08 9.013-.056 13.522.053 10.873-.28 21.757.565 32.62.068.873.05 1.76.036 2.636-.01.546.08 1.18-.16 1.623-.95 1.77-.562 3.66-.6 5.503-.03 1.374.296 1.795 1.607 2.062 2.798.574 5.61 1.067 8.49 1.04 3.845-.037 7.695-.09 11.54-.023 7.03.118 14.06.316 21.088.478v-.124c3.19 0 6.376.046 9.564-.017 2.19-.044 4.38-.278 6.572-.347 1.978-.06 3.958-.03 5.936-.007 3.957.053 7.883-.177 11.736-1.192 1.376-.36 2.784-.602 4.158-.97 1.3-.35 2.005-1.15 2.027-2.605.027-1.86.24-3.72.35-5.584.025-.43-.033-.873-.07-1.31-.374-4.16-.62-8.32-.48-12.5.24-7.25.474-14.498.63-21.747zm-50.29-44.437c1.863-.07 3.727-.075 5.588-.15 1.36-.052 1.92-.676 1.946-2.09.027-1.424.064-2.848.03-4.27-.046-1.912.94-3.042 2.613-3.743 1.165-.49 2.36-.52 3.55-.277 1.65.33 3.108 2.315 3.137 4.17.008.657-.043 1.316-.117 1.967-.157 1.38.91 2.17 1.524 3.165.134.222.572.27.877.373 1.57.54 3.176.826 4.836.7 2.394-.18 3.042 1.534 3.353 3.232.074.416-.048.872-.097 1.305-.144 1.248-.43 1.536-1.63 1.554-1.316.02-2.635.004-4.107.004-2.24-.12-4.648.046-7.02-.624-.922-.26-1.96-.14-2.943-.143-3.507-.02-7.016-.02-10.522-.033-.436-.002-.876-.015-1.31-.07-.486-.06-.79-.384-.81-.86-.047-.985-.06-1.972-.04-2.957.016-.892.302-1.214 1.145-1.25zm44.495 80.02c-.175.35-.488.844-.8.89-2.06.3-4.13.575-6.207.7-1.97.12-3.953.03-5.93.063-1.21.023-2.44-.044-3.62.17-2.943.535-5.908.416-8.87.444-2.524.023-5.046-.062-7.54.544-.942.23-1.967.15-2.955.153-5.386.02-10.772.016-16.157.044-1.972.01-3.935.02-5.904.4-1.702.332-3.474.425-5.197-.253-.584-.23-1.297-.156-1.954-.176-.813-.026-1.52-.274-2.022-.928-.638-.832-.957-1.717-.414-2.75.073-.133-.065-.384-.108-.58-.175.097-.352.182-.523.286-.096.056-.17.142-.264.2-.864.532-1.283.404-1.337-.402-.015-.218-.033-.44-.024-.657.08-2.73-.206-5.447-.293-8.173-.056-1.75.064-3.51.178-5.263.114-1.728.78-3.435.09-5.202-.135-.352.026-.875.173-1.272.67-1.81.288-3.704.49-5.55.112-1.018-.92-1.75-.6-2.828.28-.94.412-1.925.634-2.883.593-2.563.294-5.244 1.024-7.795.054-.183-.07-.418-.112-.632-.26.102-.528.19-.78.31-.63.306-.81.25-.817-.308-.02-1.978.01-3.957-.052-5.935-.032-1.052.456-1.904.845-2.805.423-.984.487-1.934-.313-2.748-.62-.63-.565-1.393-.576-2.156-.032-2.417-.036-4.837-.096-7.253-.075-3.072.048-6.147-.43-9.207-.233-1.504.06-2.098 1.465-2.55 2.712-.87 5.55-1.098 8.39-1.23 2.175.852 4.283.548 6.362-.348.2-.085.427-.105.64-.154 1.152-.266 1.457-.077 1.496.97.035.88-.076 1.783.083 2.63.157.84.427 1.73.907 2.42.715 1.026 1.796 1.534 3.12 1.53 2.528-.01 5.054.066 7.578.107 3.07.053 6.123.064 9.198.363 3.59.34 7.245.052 10.87-.017 1.754-.034 3.502-.2 5.256-.294 1.436-.08 1.39-.09 1.794-1.38.56-1.805.82-3.63.783-5.517-.014-.612.437-1.064 1.04-1.017 1.53.123 3.057.267 4.566.512.725.116 1.365.554 2.165.148.34-.174.87-.04 1.298.03 1.046.165 1.812.906 2 1.92.077.43.09.874.1 1.31.024 1.1.022 2.198.044 3.297.067 3.296.166 6.577.39 9.87.275 4.05.156 8.128.186 12.192.02 2.75.004 5.493.004 8.242h.12c0 6.373-.327 12.77.097 19.114.41 6.15.28 12.293.552 18.433.015.325.088.702-.043.973zM89.02 76.05c-2.085.37-4.145.283-6.228.274-2.194-.01-4.39.128-6.58.254-1.638.096-3.27.307-4.908.403-1.303.077-2.624-.216-3.893.41-.277.14-.84-.083-1.163-.3-.672-.454-1.374-.67-2.168-.627-1.313.064-2.628.126-3.94.21-.87.056-1.745.26-2.61.225-4.083-.156-8.107.486-12.145.87-.84.08-1.696.427-2.453.826-1.02.535-.938 2.192.108 2.723.47.243 1.03.416 1.555.433 1.645.05 3.326.212 4.932-.044 2.22-.352 4.224 1.056 6.42.55.167-.036.404.148.583.268 1.328.888 2.72.832 4.064.142 1.047-.544 2.08-.58 3.19-.376 1.213.224 2.395.085 3.567-.32.62-.216 1.27-.376 1.92-.424 3.718-.294 7.44-.547 10.546-.772 1.832.088 3.05.048 4.24.22 2.566.367 5.025-.25 7.497-.71.49-.093.946-.518 1.348-.87.568-.5.556-1.1.14-1.762-.952-1.525-2.487-1.87-4.02-1.6zm-43.623-8.975c1.646.05 3.292.136 4.94.14.767.005 1.503-.074 2.228.34.855.49 1.698.324 2.402-.385.66-.665 1.323-.69 1.995-.02 1.22 1.215 2.534 1.008 3.89.26.385-.213.793-.384 1.18-.597.51-.277 1.012-.34 1.565-.096 1.73.763 3.41.53 5.035-.326.814-.425 1.62-.622 2.526-.292 1.483.54 3.04.414 4.572.39 1.758-.025 3.515-.12 5.68-.206 1.568.07 3.54.204 5.515.236 1.197.02 2.403-.07 3.595-.205.6-.065.92-.573.966-1.166.032-.433 0-.88-.066-1.312-.094-.603-.493-1-1.077-1.1-.644-.1-1.31-.127-1.966-.124-3.51.01-7.025-.15-10.526.39-1.735.268-3.452.243-5.025-.94-.85-.64-1.995-.865-3.147-.65-3.48.646-7 .54-10.517.495-.654-.006-1.332-.083-1.964.045-3.44.698-6.897 1.23-10.414 1.304-.654.014-1.326.07-1.954.238-.516.134-1.013.414-1.46.715-.625.413-.627 1.543-.063 2.027.606.523 1.294.82 2.096.846zm40.635 25.128c-.43-.062-.873-.096-1.312-.093-3.074.03-6.15.056-9.224.117-.875.014-1.757.082-2.624.203-1.088.153-2.242.197-3.22.624-1.287.565-2.346-.277-3.536-.226-2.41.102-4.828.032-7.243.032 0-.026-.003-.05-.003-.077-4.93.23-9.86.46-14.79.687-.22.008-.44.026-.654.068-.563.117-1.038.384-1.26.94-.266.67-.124 1.3.335 1.834.6.693 1.408.96 2.29 1.18 2.27.554 4.57.515 6.873.543 1.2.014 2.4-.098 3.58.352.46.173 1.056 0 1.585-.046 1.088-.1 2.17-.25 3.26-.333.876-.064 1.765.02 2.63-.098 4.014-.55 8.02-1.164 12.032-1.715.754-.1 1.532-.036 2.3-.05 2.413-.05 4.827-.07 7.24-.167.752-.032 1.51-.224 2.247-.422.72-.194.98-.657.98-1.504.008-1.026-.525-1.703-1.486-1.844zm8.2-41.42c-1.423-.03-2.85 0-4.272.08-1.416.08-2.827.325-4.243.375-2.96.102-5.928.032-8.88.21-2.52.148-5.014-.26-7.525-.12-.316.014-.69-.046-.953-.206-1.008-.62-2.114-.512-3.2-.518-1.757-.01-3.513 0-5.267 0v.032c-1.864 0-3.73-.014-5.595.008-.654.004-1.377-.07-1.942.175-1.054.457-2.14.382-3.22.53-1.403.193-2.8.454-4.178.783-.555.132-.838.672-.896 1.262-.064.604.187 1.114.7 1.372.468.24 1.025.448 1.537.437 1.53-.038 3.06-.145 4.58-.307 2.73-.29 5.46-.43 8.204-.14 1.518.165 3.042.33 4.57.387 2.193.083 4.386.096 6.58.09 3.51-.013 7.044.186 10.52-.166 3.728-.38 7.44-.29 11.157-.36.66-.012 1.32-.03 1.974-.106 1.077-.126 1.5-.535 1.767-1.616.383-1.538.01-2.165-1.42-2.2zM68.577 23.49c.89-.297 1.357-1.233 1.195-2.4-.134-.94-.81-1.555-2.01-1.6-.26.158-.884.32-1.11.71-.517.89-.513 1.866.163 2.74.37.48 1.2.736 1.76.55z"/></svg>