<svg xmlns="http://www.w3.org/2000/svg" width="128" height="128" viewBox="0 0 128 128"><path d="M105.856 52.59c-.016-.22-.01-.445-.07-.652-.515-1.827-.41-3.697-.426-5.562-.032-3.294-.026-6.587-.12-9.877-.077-2.637-.49-5.23-1.148-7.786-.15-.58-.463-.986-1.05-1.128-.85-.205-1.697-.432-2.557-.57-.757-.123-1.568 0-2.286-.214-2.61-.78-5.19-.555-7.808-.062-1.796.338-2.347.193-2.7-1.853-.195-1.155-.895-1.74-1.892-2.02-1.87-.517-3.703-1.438-5.73-.672-.2.075-.438.046-.655.064-1.41.115-1.67 0-1.867-1.474-.424-3.205-2.58-5.483-4.094-8.122-.6-1.042-1.726-1.293-2.377-2.155h-3.95c-.453.83-1.353.564-2.04.824-3.43 1.28-5.768 3.54-6.452 7.243-.175.958-.11 1.963-.153 2.947-.02.496-.28.86-.736.95-1.176.226-2.362.426-3.552.56-1.414.156-2.842.188-4.254.352-.674.08-1.12.44-1.33 1.22-.392 1.484-.58 1.572-1.977 1.6-2.525.05-5.047.057-7.57.115-.875.02-1.76.05-2.615.22-2.822.554-5.653.754-8.483.15-.782-.167-1.33.066-1.702.632-.475.722-.976 1.5-1.173 2.325-.352 1.483-.62 3.01-.69 4.533-.252 5.258-.524 10.515-.566 15.78-.112 13.716-.137 27.438-.122 41.157.002 3.392.288 6.784.43 10.176.067 1.645.124 3.29.147 4.934.007.656.094 1.404-.18 1.947-.945 1.893-.527 3.88-.57 5.83-.022 1.088.414 1.49 1.555 1.776 2.352.587 4.753.79 7.157.955 1.854.126 3.716.248 5.574.235 2.628-.02 5.26-.23 7.885-.23 2.19 0 4.38.254 6.57.282 6.146.08 12.293.115 18.437.135 2.417.008 4.85.102 7.243-.155 3.068-.324 6.13-.245 9.196-.306 3.496-.07 7.022.256 10.457-.74.31-.093.66-.04.98-.108 1.604-.34 3.212-.66 4.804-1.06 2.347-.58 2.665-1.09 2.72-3.38.034-1.534.205-3.058.296-4.59.032-.543.032-1.093.004-1.638-.177-3.5-.593-7.008-.508-10.504.166-6.69.05-13.38.515-20.067.507-7.346.073-14.69-.572-22.023zM55.54 26.794c1.074-.13 2.14-.303 3.212-.378 1.2-.08 2.408-.043 3.61-.115.815-.052 1.435-.696 1.458-1.505.05-1.638.067-3.28.05-4.92-.014-1.477.698-2.51 1.934-3.17.665-.356 1.412-.625 2.155-.758 2.883-.516 5.18 1.467 5.19 4.437 0 .547-.036 1.096-.1 1.637-.134 1.093.585 1.804 1.043 2.668.448.84 1.205.807 1.872 1.12 1.357.633 2.782.482 4.197.532 2.24.088 3.41 1.26 3.456 3.47.01.433-.062.874-.118 1.305-.173 1.275-.544 1.5-2 1.44-1.31-.053-2.623-.01-3.935-.01-2.395-.257-4.808-.094-7.175-.75-.922-.256-1.955-.132-2.94-.137-3.394-.026-6.787-.026-10.18-.043-.437-.002-.893.023-1.304-.096-.267-.07-.646-.363-.667-.587-.117-1.38-.448-2.797.245-4.14zm45.24 79.54c-.04.464-.276.863-.748.94-1.51.257-3.022.548-4.546.65-1.856.124-3.725.076-5.59.095-2.188.02-4.357.093-6.548.4-2.373.33-4.815.182-7.228.22-2.515.038-5.008.13-7.524.477-3.026.412-6.127.277-9.197.3-3.624.028-7.245-.025-10.863-.052-.984-.005-1.933-.242-2.894-.395-1.696-.268-3.52-.35-5.195-.02-2.576.504-5.007.004-7.472-.435-.67-.117-1.125-.642-1.427-1.265-.477-.986-1.017-1.946-1.42-2.96-.276-.692-.48-1.458-.51-2.202-.097-2.296-.025-4.578-.465-6.87-.282-1.476-.05-3.06.034-4.593.207-3.715.474-7.433.703-11.15.018-.318-.08-.644-.13-.968-.353-2.187-.135-4.36.116-6.544.177-1.52.276-3.053.3-4.582.066-5.04.086-10.083.126-15.125 0-.33-.064-.688.04-.98.886-2.57.507-5.213.468-7.824-.037-2.625-.237-5.25-.365-7.87-.025-.55-.13-1.113-.03-1.64.07-.373.337-.835.655-1.013.65-.368 1.378-.672 2.107-.813 1.395-.27 2.824-.363 4.224-.614 1.304-.234 2.558-.27 3.888 0 1.483.3 3.012.39 4.478-.43.63-.353 1.49-.278 2.24-.43.467-.094.61.245.64.533.08.757.064 1.53.107 2.293.03.546.026 1.104.15 1.63.425 1.843 1.806 3.025 3.714 3.078 3.288.092 6.577.12 9.867.15 1.86.016 3.72-.086 5.567.333.736.166 1.528.126 2.293.124 4.83-.027 9.654-.073 14.48-.115.33-.003.657-.008.987-.032 1.088-.08 1.344-.273 1.59-1.288.438-1.805.942-3.595.848-5.493-.045-.88.6-1.418 1.476-1.35.983.074 1.956.228 2.935.34 1.6.192 3.21.32 4.8.58 1.182.192 1.752.843 1.882 1.936.064.54.05 1.092.06 1.643.095 4.6.112 9.2.48 13.8.282 3.488.12 7.013.135 10.524.018 3.072.008 6.14.008 9.21h.126c0 6.254-.322 12.527.092 18.75.402 6.027.288 12.05.54 18.072.015.324.023.66-.007.986zM76.042 63.12c.656-.027 1.312 0 1.967 0v.09c2.626 0 5.247 0 7.873-.003.437 0 .875 0 1.31-.056.895-.107 1.565-.866 1.616-1.78.05-.91-.536-1.85-1.377-1.98-.966-.15-1.955-.214-2.933-.22-3.717-.03-7.436-.014-11.156-.03-1.2-.005-2.404-.033-3.603-.095-3.49-.177-6.977-.38-10.466-.555-.544-.03-1.114-.044-1.632.088-.504.13-1.01.395-1.424.715-.826.644-.677 2.106.277 2.438.917.32 1.9.628 2.86.64 5.567.085 11.105.994 16.69.75zm8.57 13.318c-1.698-.42-3.408-.776-5.178-.76-2.41.023-4.814.007-7.22.007v.08c-2.52 0-5.036-.005-7.553 0-.652.003-1.33-.045-1.962.09-.844.187-1.692.445-2.46.83-.922.465-.943 1.867-.078 2.46.442.298.942.59 1.455.698.956.198 1.938.347 2.912.363 4.375.06 8.752.064 13.13.088 1.64.01 3.28-.01 4.883.452.512.146 1.088.155 1.62.11 1.06-.084 1.985-1.138 2.05-2.232.06-1.026-.545-1.926-1.6-2.187zm3.68 16.372c-3.608.013-7.23-.026-10.822.24-5.015.373-10.004 1.05-15.046 1.008-.544-.004-1.094.05-1.627.158-.305.064-.59.267-.858.448-.57.382-.663 1.19-.274 1.73.56.78 1.328 1.105 2.256 1.107 2.627.008 5.254.004 7.88.004v.03h.658c5.796-.003 11.553-.96 17.36-.764.323.01.655-.05.975-.118.7-.154 1.29-.878 1.376-1.66.133-1.205-.606-2.193-1.877-2.184zM57.42 49.864c.287.136.618.222.938.26 1.736.207 3.495.288 5.21.608 2.056.39 4.11.657 6.194.663 3.624.015 7.21.312 10.755 1.102.843.186 1.754.23 2.61.132.61-.07 1.247-.397 1.748-.774.856-.645.84-1.884.072-2.59-.846-.778-1.835-1.124-2.99-1.132-2.628-.006-5.258-.06-7.887-.107-2.733-.05-5.468.043-8.178-.523-1.707-.354-3.452-.52-5.18-.77-.003.045-.005.09-.01.134-.657 0-1.327-.076-1.968.025-.523.08-1.073.293-1.5.603-.307.224-.545.68-.61 1.067-.095.584.263 1.045.797 1.3zM46.084 66.04c.56.44 1.23.384 1.85.043.7-.384 1.313-.92 1.343-1.74.066-1.77.655-3.412 1.022-5.11.206-.958.37-1.925.52-2.72-.057-.507-.06-.835-.13-1.153-.125-.55-.4-1.005-.97-1.214-.577-.21-1.4-.04-1.78.475-.38.525-.73 1.09-.972 1.683-.37.904-.63 1.856-.954 2.78-.203.574-.46.614-.945.195-.738-.637-1.436-1.336-2.24-1.877-.734-.5-1.944.207-1.937 1.087.002.533.066 1.1.25 1.59.966 2.545 2.864 4.34 4.943 5.964zm4.706 17.637c.195-.38.345-.803.406-1.225.24-1.685 1.15-3.037 2.1-4.363.445-.62 1.033-1.136 1.455-1.767.287-.43.39-.975.495-1.242-.126-1.652-1.784-2.45-2.976-1.684-1.326.847-2.113 2.17-2.983 3.42-.43.62-.75 1.456-1.347 1.782-.806.444-1.09-.826-1.82-.982-.314-.064-.598-.256-.908-.366-.7-.256-1.643.288-1.717 1.05-.05.53-.117 1.148.094 1.598.993 2.128 2.44 3.858 4.7 4.747.932.363 2.042-.064 2.5-.97zm4.458 7.182c-.677-.16-1.355-.08-1.843.4-.7.684-1.31 1.46-1.957 2.198-.37.415-.766.45-1.104.047-.49-.584-.928-1.205-1.408-1.796-.773-.957-1.806-.808-2.277.31-.264.622-.343 1.223-.06 1.89.83 1.962 2.13 3.55 3.78 4.86.795.63 2.02.47 2.61-.38 1.06-1.515 2.084-3.057 3.07-4.62.278-.438.37-.993.447-1.204-.064-.917-.648-1.568-1.26-1.71zm-11.9-39.906c1.622 1.493 3.692 1.102 4.483-.915.485-1.236 1.1-2.348 1.866-3.407.25-.352.464-.734.66-1.122.377-.74.2-1.43-.495-2.015-.59-.495-1.512-.48-2.053.117-.582.64-1.086 1.355-1.626 2.03-.863 1.09-.855 1.072-1.99.32-.617-.41-1.282-.75-1.656-.964-.966-.09-1.798.676-1.9 1.388-.11.79.04 1.54.537 2.15.68.838 1.38 1.684 2.177 2.414zm24.698-27.24c.978.03 1.7-.772 1.73-2.196-.043-.15-.113-.577-.282-.96-.29-.657-1.214-1.026-1.92-.82-.875.256-1.397 1.246-1.245 2.35.124.915.85 1.6 1.715 1.627z"/></svg>