<svg xmlns="http://www.w3.org/2000/svg" width="128" height="128" viewBox="0 0 128 128"><path d="M105.933 52.33c-.017-.218-.067-.43-.088-.65-.135-1.637-.344-3.273-.384-4.913-.086-3.405-.027-6.816-.132-10.22-.08-2.634-.506-5.23-1.08-7.807-.202-.904-.772-1.278-1.51-1.547-.404-.147-.85-.21-1.28-.273-1.407-.215-2.813-.47-4.227-.597-1.306-.117-2.626-.134-3.94-.113-1.315.02-2.633.16-3.95.2-.793.027-1.325-.255-1.417-1.063-.235-2.037-1.59-2.68-3.31-3.083-1.828-.427-3.615-.776-5.503-.238-1.014.285-1.363-.03-1.524-1.102-.382-2.562-1.363-4.837-3.072-6.8-.354-.408-.75-.845-.914-1.34-.546-1.64-1.874-2.083-3.335-2.22-2.223-.202-4.38.196-6.42 1.11-2.678 1.205-4.403 3.262-5.092 6.096-.253 1.05-.196 2.18-.253 3.275-.05.94-.158 1.146-1.102 1.297-1.513.245-3.036.446-4.56.61-.87.092-1.755.053-2.634.107-.85.05-1.528.386-1.55 1.345-.025 1.003-.612 1.347-1.467 1.397-1.85.11-3.7.187-5.55.274-1.866.087-3.754.03-5.592.3-2.73.396-5.422.867-8.154.008-.7-.22-1.32.186-1.683.772-.463.736-.975 1.504-1.173 2.332-.352 1.485-.58 3.014-.688 4.538-.14 1.973-.093 3.955-.15 5.934-.163 5.6-.4 11.197-.493 16.797-.094 5.823-.08 11.65-.064 17.477.023 9.776-.225 19.556.55 29.316.076.984.077 1.978.044 2.965-.02.648-.032 1.355-.288 1.93-.85 1.916-.373 3.9-.433 5.855-.018.606.402.988.974 1.17.416.134.83.3 1.26.376 2.595.46 5.19.91 7.847.88 3.846-.036 7.696-.09 11.54-.022 7.03.115 14.057.31 21.086.478v-.128c3.188 0 6.378.047 9.563-.016 2.192-.04 4.38-.277 6.57-.346 1.98-.06 3.958-.036 5.937-.005 3.962.067 7.883-.197 11.733-1.196 1.38-.357 2.786-.604 4.16-.972 1.307-.348 2.054-1.166 1.995-2.618-.128-3.058.313-6.088.107-9.184-.608-9.213-.272-18.443.245-27.663.43-7.59-.006-15.157-.595-22.72zM55.237 27.193c.02-.476.36-.79.85-.82.983-.062 1.968-.105 2.955-.13.984-.028 1.973 0 2.955-.047 1.198-.06 1.845-.698 1.87-1.84.033-1.532.042-3.067.03-4.597-.014-1.743.832-2.86 2.38-3.576 1.15-.533 2.34-.587 3.537-.43 1.68.23 3.264 2.14 3.37 3.98.024.432-.028.875-.084 1.31-.18 1.39.207 2.558 1.144 3.62.384.435.757.686 1.305.86 1.58.51 3.18.756 4.84.67 2.2-.11 2.8 1.15 3.233 2.984.145.608-.032 1.3-.115 1.952-.108.793-.494 1.166-1.316 1.14-3.712-.117-7.445.352-11.122-.587-.832-.213-1.743-.152-2.618-.163-1.752-.02-3.506-.006-5.26-.006v-.06c-2.3 0-4.6.012-6.902-.01-.672-.004-1.07-.37-1.082-.966-.02-1.094-.018-2.19.03-3.283zm45.563 79.23c-.135.343-.515.8-.835.842-2.172.293-4.352.58-6.54.69-2.523.128-5.087-.192-7.575.143-4.602.62-9.21.448-13.816.552-.44.01-.888 0-1.316.074-5.78.994-11.61.597-17.426.654-2.195.02-4.392-.053-6.59-.096-.1 0-.277-.08-.284-.135-.02-.18-.032-.407.06-.54.63-.887 1.347-1.716 1.902-2.646.156-.26-.013-.89-.248-1.163-.24-.28-.763-.48-1.133-.44-.53.054-1.07.29-1.534.566-.94.565-1.835 1.203-2.737 1.826-.99.682-1.88 1.724-2.964 1.983-1.336.32-2.825 0-4.248-.06-.097-.004-.272-.117-.268-.164.02-.18.046-.415.165-.524.974-.885 2.03-1.694 2.937-2.64.593-.62 1.047-1.4 1.445-2.17.436-.837-.304-1.878-1.263-1.772-.63.067-1.333.218-1.83.574-1.25.89-2.4 1.917-3.59 2.89-.424.345-.822.74-1.29 1.004-.13.074-.664-.2-.7-.377-.336-1.7-.136-3.258 1.238-4.525.725-.668 1.355-1.443 1.99-2.2.633-.755 1.26-1.525 1.815-2.338.78-1.14.853-2.272.197-2.677-.992-.617-1.915-.233-2.738.368-.71.513-1.334 1.14-2.017 1.686-.13.1-.45.15-.524.074-.128-.14-.178-.39-.192-.596-.046-.806.215-1.5.736-2.12 1.34-1.603 2.662-3.22 3.98-4.836.554-.683 1.145-1.344 1.592-2.09.267-.446.38-1.036.392-1.565.025-1.133-1.327-2.114-2.315-1.604-.96.492-1.79 1.232-2.665 1.883-.434.323-.833.69-1.26 1.024-.038.03-.183-.017-.233-.07-.072-.074-.157-.206-.133-.284.143-.514.204-1.102.5-1.51.9-1.25 1.88-2.435 2.85-3.628 1.183-1.444 2.415-2.85 3.566-4.32.468-.595.83-1.288 1.15-1.98.363-.784-.373-1.892-1.262-1.885-.53.006-1.156.06-1.566.344-.892.617-1.713 1.357-2.487 2.125-.775.77-1.453 1.636-2.186 2.452-.064.075-.27.15-.282.132-.11-.154-.28-.334-.267-.493.116-1.516 1.012-2.887.79-4.486-.048-.338.355-.77.605-1.116 1.982-2.766 4-5.505 5.95-8.292.288-.413.39-1.027.386-1.544-.007-1.027-1.24-1.876-2.114-1.424-.765.395-1.493.92-2.115 1.517-.547.52-.914 1.227-1.38 1.84-.584.765-.864 1.815-1.947 2.126-.073-.972-.17-1.94-.21-2.913-.037-.878.028-1.76-.022-2.637-.07-1.233.106-2.392.7-3.495.558-1.035.716-2.1-.194-3.046-.51-.528-.552-1.164-.558-1.83-.028-2.417-.036-4.834-.093-7.254-.075-3.18.046-6.368-.437-9.536-.224-1.47.085-2.09 1.493-2.53 2.72-.843 5.553-1.12 8.395-1.21 2.178.85 4.284.522 6.368-.356.398-.166.855-.28 1.28-.27.25.007.688.287.707.475.112 1.088.097 2.19.17 3.285.107 1.54.867 2.677 2.187 3.474.806.485 1.698.424 2.564.44 3.298.045 6.594.05 9.89.084 1.86.018 3.727-.114 5.573.373.725.192 1.53.117 2.298.096 4.94-.13 9.878-.277 14.817-.434.955-.033 1.114-.19 1.355-1.08.487-1.804.924-3.606.846-5.508-.043-1.027.352-1.343 1.423-1.31.873.027 1.746.142 2.613.242 1.474.173 2.86.676 4.44.465 1.68-.22 2.543.852 2.678 2.62.044.55.02 1.1.03 1.65.094 4.17.123 8.34.44 12.51.29 3.83.146 7.69.17 11.535.02 2.86.004 5.714.004 8.572h.103c0 6.155-.318 12.33.088 18.46.416 6.257.347 12.51.56 18.765.017.438.1.918-.052 1.302zM88.924 60c-.197-.256-.42-.504-.665-.717-.73-.63-1.664-.73-2.43-.21-.543.364-1.07.777-1.517 1.25-1.348 1.44-2.653 2.924-3.975 4.388-3.89 4.32-7.777 8.64-11.67 12.96-.22.247-.442.488-.672.723-.804.818-1.3.814-1.764-.12-.88-1.764-1.682-3.568-2.54-5.34-.38-.785-.772-1.573-1.25-2.3-.486-.737-1.21-.926-2.01-.532-2.46 1.21-4.912 2.433-7.34 3.713-.994.523-1.297 1.413-1.004 2.525.11.422.307.82.47 1.227 2 4.997 4.605 9.704 7.07 14.478 1.16 2.243 2.875 4.128 4.638 5.934.79.808 1.724.9 2.69.243.898-.61 1.78-1.296 2.51-2.09 1.855-2.02 3.628-4.116 5.42-6.192 2.364-2.74 4.708-5.496 7.072-8.24 1.646-1.91 3.314-3.797 4.97-5.7 1.804-2.064 3.6-4.136 5.406-6.2 1.003-1.145 1.11-2.577 1.355-4.076-.19-.334-.318-.81-.627-1.056-1.653-1.32-2.88-3.004-4.14-4.667zM58.82 73.58c-.033.025-.076.042-.118.06l-.085.154c-.032.02-.07.034-.105.05-.01.156-.02.31-.068.45-.04.12-.177.21-.272.313-.01-.177-.085-.395-.01-.525.06-.11.21-.17.35-.237l.012-.14.18-.063.16-.285c-.012.077 0 .184-.044.224zm1.934 4.003c-.02.01-.046.01-.068.018-.034.05-.068.096-.103.14-.032.027-.066.05-.1.07-.008.164-.014.33-.037.488-.015.1-.087.196-.134.292-.064-.157-.227-.36-.18-.463.063-.13.214-.222.353-.32.003-.053.008-.107.013-.158.064-.016.128-.03.192-.05l.147-.2c-.027.063-.034.153-.08.18zm1.988 5.195c-.07-.192-.2-.386-.192-.572.005-.14.192-.264.32-.422.105.27.24.464.227.648-.006.124-.228.23-.354.346zM67.935 92.9c-.136.142-.352.203-.53.3-.05-.097-.13-.185-.14-.29-.14-1.396-.067-2.78.535-4.077.103-.22.5-.448.733-.42.197.025.39.394.508.645.084.184.037.424.06.864.134 1.035-.295 2.094-1.164 2.98zm4.625-7.036c-.032-.175.06-.373.096-.56.062.004.173 0 .175.015.045.185.13.396.08.563-.095.33-.28.322-.35-.02zm3.823-4.63c-.256.22-.515.01-.546-.432-.016-.216-.032-.43-.032-.644-.006-.427-.002-.86-.002-1.288l-.078-.004c.05-.64.096-1.276.156-1.912.01-.08.093-.154.14-.23.063.09.164.17.18.267.202 1.253.404 2.51.564 3.767.017.144-.222.344-.38.48zm3.83-4.5c-.114.13-.753.055-.776-.028-.398-1.45-.825-2.904-1.058-4.384-.13-.816.533-1.376 1.244-1.732.128-.064.49.032.512.117.416 1.448.793 2.903 1.19 4.403-.396.6-.703 1.156-1.113 1.624zm4.177-4.953c-.233.298-.614.283-.738-.056-.45-1.216-.928-2.42-1.29-3.665-.16-.556.19-1.055.703-1.34.136-.076.463-.067.535.03.944 1.248 1.056 2.763 1.504 4.035-.34.478-.518.742-.715.997zm3.19-4.01c-.205.308-.506.367-.745.058-.608-.776-.715-1.66-.504-2.592l-.06-.048c-.046-.07-.084-.147-.14-.21l-.143-.075c.05.02.11.032.14.07l.004.004c.076.04.15.08.225.117-.013.048-.013.093-.02.14.47.38.962.738 1.407 1.147.55.51.13.964-.16 1.39zM68.14 23.797c.57-.496 1.168-.82 1.455-1.323.24-.413.198-1.053.128-1.572-.122-.895-.936-1.437-1.902-1.377-.804.05-1.39.584-1.44 1.467-.03.52-.034 1.15.226 1.552.318.485.93.78 1.533 1.25z"/></svg>