<svg xmlns="http://www.w3.org/2000/svg" width="128" height="128" viewBox="0 0 128 128"><path d="M120.05 83.98c-.213-2.772-.672-5.538-1.635-8.2-1.888-5.2-5.192-9.135-10.142-11.668-1.197-.61-2.336-1.34-3.524-1.967-2.47-1.3-4.85-2.833-7.816-2.77-.816.017-1.07-.323-1.112-1.15-.028-.52-.025-1.04-.028-1.558-.043-6.12-.085-12.24-.12-18.364-.007-1.035.035-2.072.05-3.11.01-.72.387-1.122 1.048-1.355.78-.275 1.587-.516 2.293-.93 1.502-.87 2.063-2.478 1.64-4.33-.26-1.132-1.455-1.897-3.182-2.006-.62-.043-1.245-.018-1.867-.02h-8.092v-.097c-.728 0-1.45-.005-2.18 0-2.798.016-5.602-.036-8.4.077-2 .083-3.21 1.378-3.436 3.37-.19 1.627.887 3.268 2.568 3.81.582.19 1.218.212 1.828.305.888.14 1.1.343 1.156 1.12.082 1.133.192 2.267.252 3.403.05 1.035.092 2.072.056 3.104-.056 1.55-.254 3.098-.275 4.646-.053 3.632-.032 7.264-.043 10.895-.002.623.06 1.26-.048 1.86-.064.366-.317.805-.62.996-.607.383-1.314.6-1.968.92-2.535 1.226-4.86 2.762-6.93 4.682-1.207 1.12-2.206 2.257-1.346 4.044.038.075.023.216-.023.288-.166.248-.33.515-.558.693-.09.072-.412-.013-.52-.128-1.95-2.06-3.315-4.49-4.47-7.055-.677-1.507-1.34-3.026-2.042-4.525-.576-1.24-.954-2.514-.96-3.893-.005-2.074-.026-4.15-.037-6.224-.017-2.484-.055-4.96-.327-7.444-.283-2.57-.207-5.18-.247-7.775-.016-1.12.176-1.312 1.376-1.742.68-.242 1.392-.41 2.05-.7 1.317-.58 1.73-1.28 1.66-2.672-.02-.412-.054-.83-.124-1.24-.267-1.553-1.13-2.64-2.627-3.18-.585-.214-1.174-.454-1.78-.553-2.043-.33-4.084-.64-6.17-.693-6.125-.16-12.216.357-18.325.593-1.655.064-3.005.58-4.347 1.376-.745.438-1.21 1.076-1.588 1.85-.597 1.22-.384 2.364-.096 3.617.293 1.288.968 2.025 2.152 2.38.893.266 1.803.468 2.71.703.562.145.895.517.932 1.086.046.724.036 1.45.036 2.175.013 5.605-.066 11.21.072 16.81.064 2.72-.69 5.12-2.034 7.372-1.22 2.044-2.517 4.048-3.917 5.973-1.096 1.51-2.172 3.008-3.045 4.677-.91 1.73-2.07 3.356-3.28 4.9-1.478 1.892-2.782 3.88-3.838 6.02-2.47 5.023-4.872 10.078-7.337 15.102-1.27 2.59-1.72 5.337-1.472 8.16.245 2.785 1.28 5.226 3.797 6.794.617.382 1.256.748 1.803 1.217 2.818 2.43 6.12 3.343 9.778 3.283 2.28-.038 4.563.057 6.844.06 2.89.008 5.756.384 8.68.064 3.617-.4 7.185-.88 10.685-1.883 1.792-.51 3.62-.792 5.51-.835 3.1-.07 6.173-.69 9.29-.583.204.007.42 0 .617-.064 2.21-.714 4.498-.582 6.775-.696 1.746-.088 3.528-.254 4.877-1.648.273-.29.682-.497 1.066-.61.373-.11.864-.193 1.184-.037 2.678 1.303 5.625 1.435 8.467 1.696 3.706.335 7.467.26 11.192.106 4.16-.174 7.893-1.542 10.782-4.755.757-.844 1.67-1.552 2.498-2.34 2.823-2.687 5.22-5.64 5.886-9.645.15-.917.403-1.838.41-2.756.03-3.01.127-6.03-.1-9.023zM36.612 65.976c.807-1.904 1.623-3.8 2.432-5.707.162-.38.23-.828.48-1.13 1.216-1.46 1.45-3.19 1.344-4.968-.245-4.127-.615-8.244-.843-12.372-.162-2.89-.19-5.79-.245-8.685-.013-.57.405-.954.956-1.035.205-.027.41-.06.617-.058 3.936.06 7.86-.14 11.784-.46.203-.016.413.005.617.024.5.036.968.494.975 1.03.02 1.654.006 3.31.006 4.97-.04 0-.08-.003-.117-.003-.15 4.86-.268 9.722-.466 14.58-.082 2.018.31 3.852 1.22 5.674.778 1.557 1.258 3.277 1.79 4.947.76 2.39.716 2.275-1.866 2.556-2.46.267-4.96.205-7.372.893-1.07.303-1.325.074-1.845-1.073-.426-.934-.863-1.875-1.396-2.75-.46-.747-1.21-.945-1.877-.664-.95.395-1.444 1.306-1.095 2.268.28.77.74 1.468 1.102 2.21.177.36-.004 1.034-.31 1.085-1.82.3-3.533 1.166-5.44 1.025-.197-.013-.447-.05-.572-.176-.195-.204-.46-.524-.42-.74.093-.497.34-.965.542-1.438zM21.786 95.01c.62-.16 1.22-.088 1.744.284.427.3.77.734.654 1.272-.12.552-.633.754-1.148.853-.2.032-.405.02-.608.032-.203-.018-.437.02-.6-.068-.425-.238-.926-.453-1.19-.82-.278-.392.513-1.388 1.147-1.553zm55.58 9.195c-.296.067-.605.135-.91.135-3.847-.015-7.622.647-11.413 1.173-1.127.155-2.272.163-3.767.264-.992-.13-2.32-.313-3.65-.483-.717-.093-1.437-.23-2.158-.245-3.416-.045-6.82-.047-10.234.41-3.59.48-7.224.582-10.832.93-2.16.203-4.3.592-6.456.84-2.26.26-4.527.48-6.795.65-.49.037-1.01-.187-1.496-.357-.64-.226-.992-.712-1.05-1.397-.107-1.234-.173-2.468-.334-3.694-.13-.98.226-1.822.6-2.663.06-.134.37-.273.51-.234.288.083.538.285.798.446 1.854 1.133 3.765.988 5.64.14 1.988-.903 2.553-2.65 1.62-4.646-.726-1.557-1.887-2.682-3.35-3.563-.918-.55-.94-.83-.483-1.762 1.5-3.07 2.994-6.143 4.512-9.204.414-.832.885-1.643 1.376-2.432 1.152-1.847 2.32-3.683 3.51-5.508.216-.334.513-.653.85-.856.09-.06.44.35.693.508.614.38 1.234.75 1.867 1.102 1.133.63 2.29.882 3.575.4.57-.212 1.216-.314 1.827-.308 3.646.043 7.215-.57 10.798-1.114 1.736-.263 3.488-.43 5.232-.638 1.5-.183 2.825.555 4.233.843.43.088.828.61 1.122 1.018 2.435 3.35 5.043 6.573 6.797 10.383 1.736 3.76 3.712 7.413 5.49 11.15.932 1.96 1.68 4.012 2.467 6.033.186.47.242.998.293 1.506.043.44-.46 1.078-.88 1.174zm2.603-11.203l-.11-.1.13-.07-.024.17zm4.837 13.728c-.082.04-.2.075-.28.048-.976-.32-1.505-1.02-1.68-2.008-.16-.907-.326-1.807-.466-2.712-.017-.114.13-.254.204-.387.096.094.21.148.24.235.55 1.636.93 3.35 2.21 4.636-.076.067-.142.15-.228.193zm4.327-23.296c-.05.09-.13.162-.21.224-.164.13-.326.264-.502.366-.338.192-.678.535-1.088.21-.132-.108-.203-.356-.213-.545-.03-.6.29-.967.84-1.133.196-.062.41-.053.694-.083.206.112.49.23.708.424.047.04-.134.356-.227.532zm18.677-8.884c-.584.205-1.17.496-1.772.544-2.878.216-5.726.968-8.646.57-.306-.04-.622-.003-.932-.003-1.244 0-2.487.025-3.733-.005-1.37-.034-2.678.15-3.908.805-1.735.927-3.623.77-5.476.628-.57-.043-1.13-.448-1.648-.76-.714-.424-1.366-.94-2.07-1.374-.754-.464-1.586-.485-2.398-.192-1.41.512-2.607 1.23-2.944 2.888-.13.632-.28 1.213.12 1.775.477.674.402 1.365.072 2.05-.043.097-.333.16-.454.11-.175-.072-.34-.24-.442-.41-1.752-2.93-3.494-5.868-5.235-8.807-.37-.625-.31-.9.383-1.16 2.627-.983 4.945-2.58 7.465-3.775 1.963-.928 3.84-2.033 5.968-2.597 1.833-.49 2.7-1.803 2.895-3.624.032-.31.037-.62.058-.928.207-3.204.552-6.403.594-9.61.06-4.35-.088-8.702-.203-13.05-.022-.937-.21-1.877.212-2.748.162-.326.53-.7.862-.765.7-.14 1.44-.112 2.165-.115 2.394-.006 2.525.2 2.268 2.725-.155 1.543-.257 3.1-.247 4.653.043 7.048.132 14.098.21 21.145 0 .416.003.832.046 1.245.084.805.692 1.394 1.46 1.25 3.312-.61 6.127.655 8.74 2.4 1.975 1.32 3.797 2.872 5.63 4.393.537.445.883 1.133 1.285 1.728.24.352.062.883-.328 1.018zm4.68 10.226c-.037.2-.09.395-.134.593-.1-.173-.194-.346-.296-.514-.375-.61-.784-1.205-1.11-1.84-.115-.225-.047-.553-.027-.83.006-.08.14-.217.205-.208.442.04.764.257.888.703.168.594.33 1.185.476 1.715 0 .174.015.277 0 .378zM85.64 19.71c.452.466 1.043.683 1.697.433.624-.24 1.06-.707 1.104-1.372.065-.926.017-1.857.017-2.786h-.027c0-.517.01-1.035-.004-1.55-.012-.52.026-1.053-.097-1.548-.146-.582-.345-1.195-.68-1.682-.723-1.042-2.23-.873-2.81.26-.095.182-.16.38-.23.574-.74 2.158-.37 4.3.165 6.415.116.465.51.896.863 1.26zm11.497-.9c.44-.258.962-.506 1.24-.904.867-1.277 1.67-2.6 2.423-3.95.24-.432.288-.99.34-1.497.076-.67-.674-1.497-1.546-1.506-.253.1-.85.163-1.173.494-1.517 1.572-2.655 3.42-3.537 5.418-.288.66.094 1.205.542 1.664.46.47 1.175.595 1.71.28zM73.01 16.143c.977 1.458 1.92 2.955 3.32 4.06.32.25.725.437 1.117.512.25.05.638-.08.805-.27.26-.3.388-.718.54-1.025 0-.186.02-.29 0-.39-.49-2.305-1.586-4.24-3.552-5.604-.813-.562-1.507-.574-2.003-.157-.54.45-.602 1.06-.53 1.69.05.403.09.862.304 1.184zm-30.3 68.284c-1.022-.117-2.038-.275-3.052-.446-.98-.16-1.867.083-2.635.66-2.005 1.517-3.35 3.38-3.032 6.078.058.72.055 1.454.18 2.16.303 1.74 1.654 3.328 3.13 3.458 2.173.192 4.35.005 6.405-.776.992-.382 1.672-1.16 1.824-2.324.106-.813.362-1.604.56-2.404.476-1.963-.11-3.672-1.28-5.22-.517-.675-1.223-1.083-2.103-1.185zm-.585 5.395c-.413.787-1.216 1.06-2.005 1.195-.28.048-.715-.315-.95-.6-.304-.373-.068-.776.257-1.037.72-.578 1.58-.818 2.464-.94.13.193.317.35.335.518.028.284.028.62-.098.862zm15.1-15.29c-2.56.03-4.775 2.033-5.02 4.585-.09.925-.08 1.858-.117 2.787-.062 1.517.65 2.603 1.973 3.232.83.392 1.754.597 2.63.885 1.58.525 3.09.153 4.513-.515 1.152-.542 1.903-1.456 2.368-2.717.566-1.528.11-2.808-.447-4.17-1.136-2.77-3.032-4.118-5.9-4.084zm2.17 7.292c-.356.17-.752.267-.968.34-.392-.047-.6-.06-.8-.095-.565-.11-.958-.628-.825-1.087.15-.51.64-.846 1.163-.802.645.057 1.198.3 1.547.865.162.263.245.603-.117.78zm-1.984 9.48c-1.655-.12-4.31 2.31-4.496 3.753-.04.304-.066.627-.006.926.304 1.44 1.102 2.863 3.5 2.782 2.124.028 3.43-.76 4.202-2.528.69-1.582-.083-2.805-1.004-3.96-.544-.683-1.316-.91-2.194-.973zm-8.64-34.17c.32-.005.823-.337.93-.636.72-2.054 1.173-4.178 1.368-6.35.085-.963-.313-1.664-.904-1.754-.846-.128-1.355.38-1.797.98-.18.244-.356.522-.43.815-.3 1.195-.556 2.403-.826 3.603.23.965.38 1.883.694 2.736.107.294.634.603.965.6zm-4.09-8.265c.695-.266.804-.894.837-1.503.09-1.765-.416-3.443-.858-5.123-.14-.533-.58-.81-1.164-.796-.576.012-.997.306-1.136.836-.155.587-.188 1.205-.24 1.555.062 1.596.118 2.927.8 4.132.406.72 1.164 1.12 1.757.894z"/></svg>