<svg xmlns="http://www.w3.org/2000/svg" width="128" height="128" viewBox="0 0 128 128"><path d="M85.696 45.736c1.533-.75 2.933-1.75 4.66-2.12.81-.174 1.623-.614 2.288-1.13 1.865-1.44 3.758-2.872 5.436-4.52 1.205-1.183 2.138-2.666 3.09-4.084.938-1.4 1.07-2.906.644-4.603-.856-3.426-1.455-6.91-2.23-10.355-.255-1.14-.677-2.257-1.125-3.343-.284-.683-.67-1.36-1.15-1.914-.813-.933-1.746-1.374-3.13-1.014-3.306.855-6.52 2.144-9.994 2.313-.382.018-.834.295-1.107.59-1.28 1.386-2.195 2.917-1.588 4.923.34 1.124.72 2.24 1.016 3.373.242.924.436 1.867.556 2.813.053.447-.306.874-.752.884-1.606.026-3.21-.01-4.813-.072-.42-.017-.83-.22-1.244-.32-.597-.146-.907-.533-.956-1.125-.06-.75-.084-1.5-.154-2.247-.176-1.928-.666-3.78-1.253-5.625-.576-1.807-1.76-2.59-3.587-2.583-1.824.01-3.648.003-5.472.003v-.107c-2.037.078-4.075.1-6.108.25-2.01.15-3.05 1.215-3.408 3.215-.25 1.398-.085 2.78.093 4.163.125.956.31 1.905.358 2.864.085 1.696-.128 1.888-1.724 1.94-1.283.042-2.57.076-3.845.177-1.14.09-1.537-.1-1.748-1.27-.4-2.2-1.103-4.356-.9-6.643.116-1.33-.347-2.478-1.022-3.636-.747-1.28-1.724-1.804-3.15-1.76-1.393.046-2.788-.007-4.185.01-1.93.026-3.86.048-5.792.12-2.5.098-3.387 1.06-3.402 3.64 0 .75.076 1.5.063 2.25-.024 1.504.053 3.025-.17 4.5-.468 3.092-.447 6.196-.466 9.306-.01 2.03.683 3.8 2.13 5.215.834.816 1.76 1.56 2.73 2.21 1.245.837 2.58 1.533 3.866 2.314 1.925 1.173 3.85 2.322 6.142 2.677.34.054.696.453.912.777.597.886 1.152 1.806 1.682 2.732.26.453.56.94.62 1.437.11.867.547 1.39 1.326 1.627 1.31.4 1.534 1.317 1.3 2.5-.123.63-.206 1.27-.335 1.9C48.764 63.022 47.5 68 46.05 72.93c-.877 2.98-1.794 5.947-2.702 8.914-.226.74-.53 1.303-1.49 1.4-1.515.156-2.448 1.22-3.154 2.485-.53.947-.853 1.947-.843 3.06.006.397-.11.922-.375 1.174-1.65 1.58-2.637 3.637-4 5.42-2.733 3.566-3.81 7.87-5.248 12.013-.07.2-.075.422-.1.636-.342 2.65.96 4.666 3.51 5.323 1.77.457 3.57.65 5.408.672 4.39.05 8.768 0 13.167.464 4.03.427 8.14.318 12.208-.128 1.17-.128 2.356-.142 3.532-.11 2.357.064 4.708.197 7.06.296 2.252.094 4.564-.117 6.74.34 3.267.685 6.4-.12 9.58-.35 1.46-.106 2.912-.692 4.324-1.19 1.858-.65 3.46-1.755 4.604-3.373 1.528-2.17 2.27-4.47 1.615-7.247-.853-3.63-2.26-6.91-4.713-9.723-.512-.59-.925-1.205-.713-2.025.307-1.198-.286-2.034-1.005-2.885-.71-.834-1.496-1.538-2.49-1.99-1.172-.53-2.348-1.05-3.534-1.546-.447-.185-.643-.48-.69-.95-.226-2.45-.404-4.907-.72-7.347-.85-6.585-2.183-13.088-3.42-19.605-.172-.903-.055-1.567.35-2.403 1.103-2.277 2.557-4.498 1.926-7.266-.128-.574.302-1.003.817-1.257zm-35.324 2.187c.384-.134.9-.326 1.205-.18 1.188.564 2.368.266 3.422-.13 1.36-.506 2.713-.61 4.105-.556 3.235.128 6.42-.35 9.596-.843 3.315-.515 6.633-.3 9.95-.358.7-.013 1.23.322 1.556.95.195.378.376.767.555 1.156.23.5.03.9-.483.904-1.93.015-3.86.006-5.794.006l-.015-.162c-2.774.256-5.542.54-8.316.762-4.38.348-8.742.953-13.155.757-.912-.043-1.67-.2-2.262-.958-.5-.646-.712-1.23-.366-1.352zm7.41 29.165c-.688-.213-1.46-.16-2.196-.192-.402-.016-.806.053-1.213.055-.053 0-.14-.147-.156-.24-.018-.094-.003-.26.056-.29.27-.156.553-.34.848-.393 1.373-.238 2.743-.457 4.125-.637 1.22-.16 2.245-.692 3.13-1.516 1.093-1.013.904-2.756-.354-3.6-.733-.49-1.527-.785-2.412-.762-.642.017-1.28.088-1.925.128-1.216.08-1.653-.1-1.45-.59.308-.747.955-.825 1.596-.78 1.74.132 3.4-.362 5.092-.59.32-.044.638-.103.94-.204 1.086-.363 1.77-1.34 1.733-2.434-.037-1.056-.827-2.16-1.9-2.298-1.16-.15-2.346-.09-3.52-.053-.412.013-.814.274-1.232.324-.287.034-.588-.1-.884-.16.17-.12.327-.295.514-.352 1.537-.455 3.078-.88 4.615-1.332.714-.21 1.442-.412 2.116-.72.757-.344 1.05-1.022.986-1.85-.058-.72-.445-1.21-1.092-1.448-.494-.18-1.027-.352-1.54-.357-.633-.008-1.274.123-1.898.26-.82.178-1.623.42-2.434.635-.66-1.017-.145-2.072-.047-3.096.033-.312.51-.606.826-.85.15-.114.407-.106.62-.127 4.372-.416 8.737-.85 13.113-1.227 1.063-.092 2.143-.02 3.214.02.465.022.868.35.804.81-.32 2.29.604 4.44.672 6.688.066 2.027.32 4.053.537 6.074.32 2.978.66 5.955 1.035 8.928.263 2.123.605 4.235.882 6.357.112.85-.224 1.222-1.024 1.22-1.822-.012-3.645-.035-5.47-.05-.86-.006-1.714 0-2.82 0-4.68.222-9.6.47-14.53.678-1.39.06-2.783.01-4.18-.007-.602-.007-.986-.315-.837-.67.157-.375.366-.77.66-1.034.207-.183.597-.21.907-.216.855-.02 1.722.085 2.568-.005.617-.065 1.257-.278 1.806-.575.69-.37 1.11-.995 1.036-1.845-.075-.853-.59-1.446-1.318-1.675zm-16.843 30.73c-.083.14-.315.263-.477.262-.09 0-.248-.28-.245-.43.005-.2.116-.413.223-.59.108-.172.273-.31.41-.462l.177.605c-.026.208.004.448-.092.614zm5.003.184c-.09-.11-.26-.227-.25-.326.016-.157.154-.303.24-.454.052.18.11.363.16.544l-.152.237zM88.9 93.752c.458-.02.756.225.968.67 1.59 3.374 3.122 6.772 4.45 10.26.19.5.38 1 .553 1.506.343.98.12 1.303-1.033 1.368-1.39.08-2.784.117-4.175.133-3.105.032-6.23-.144-9.32.105-4.816.387-9.634.252-14.452.42-.64.02-1.284.02-1.924.003-.496-.012-.825-.24-.644-.782.356-1.06-.032-1.888-.768-2.606-.9-.873-2.45-.7-3.053.38-.363.646-.597 1.37-.877 2.062-.376.928-1.373 1.323-2.286.87-.15-.076-.315-.32-.306-.478.016-.31.16-.614.22-.926.066-.31.215-.687.1-.93-.21-.457-.507-.945-.907-1.222-.475-.33-1.082-.144-1.442.29-.616.736-1.14 1.547-1.713 2.32-.25.338-.487.693-.79.977-.118.11-.417.105-.607.053-.31-.08-.56-.227-.422-.663.395-1.22.753-2.456 1.124-3.684.24-.794-.064-1.47-.49-2.105-.345-.512-1.21-.603-1.727-.303-.712.414-.904 1.437-1.835 1.574 0 .02.002.045 0 .067-.02.013-.043.023-.064.036-.004.177.003.362-.048.524-.038.128-.2.216-.307.323-.017-.19-.107-.413-.037-.558.062-.13.243-.204.395-.29.002-.03 0-.063.003-.09.02-.004.04-.013.065-.017.01-.403-.07-.847.085-1.18.583-1.233.752-2.383.074-3.677-.386-.728-.437-1.638-.55-2.48-.006-.055.714-.282 1.104-.305.53-.03 1.07.065 1.602.086 3.206.14 6.41.318 9.617.39 1.275.03 2.555-.18 3.834-.27.96-.068 1.92-.143 2.885-.177 2.462-.086 4.928-.008 7.36-.536.72-.156 1.496-.025 2.243-.09 1.596-.14 3.187-.325 4.783-.483 1.17-.116 2.34-.242 3.514-.32 1.605-.112 3.21-.19 4.814-.257zm-3.07-5.238c.083.02.213.158.2.194-.072.178-.154.46-.287.49-3.34.82-6.74 1.108-10.165 1.18-.856.017-1.713.002-2.57.002 0-.03 0-.06-.006-.088-3.313.14-6.622.358-9.936.405-5.352.075-10.706.073-16.06.02-1.378-.015-2.762-.305-4.127-.556-.375-.065-.805-.377-1.01-.702-.195-.317-.212-.805-.16-1.2.065-.464.44-.668.924-.662 2.245.02 4.493.034 6.736.055 1.5.016 2.993-.047 4.438.516.806.314 1.646.258 2.51-.026.793-.26 1.66-.32 2.5-.408 2.125-.222 4.258-.347 6.383-.57 2.75-.292 5.578-.246 8.337.013 2.032.192 4.06.416 6.076.258 2.2-.17 4.177.558 6.22 1.077zM82.236 41.92c-.267.117-.666.14-.928.025-2.675-1.152-5.49-.803-8.26-.764-1.717.027-3.388.13-5.088-.37-1.104-.32-2.344-.28-3.517-.23-2.248.098-4.487.415-6.733.46-2.77.06-5.563.468-8.313-.324-.597-.173-1.275-.04-1.9-.14-.607-.095-1.044-.848-.906-1.448.173-.73.42-1.45.525-2.187.058-.394-.045-.842-.184-1.226-.27-.733-1.282-1.07-1.863-.604-.582.463-1.107 1.002-1.616 1.55-.372.4-.71.82-1.337.626-.416-.128-.547-.81-.33-1.696.1-.414.3-.817.327-1.233.036-.576-.265-1.092-.81-1.255-.348-.107-.894-.048-1.163.17-.658.534-1.205 1.203-1.803 1.808-.043.04-.192.028-.24-.015-.074-.064-.163-.19-.148-.267.085-.41.124-.86.328-1.205.65-1.11 1.4-2.16 2.046-3.27.256-.45.416-.99.467-1.505.02-.24-.267-.606-.512-.747-.226-.126-.582-.04-.878-.02-.092.01-.175.116-.264.174-.847.533-1.114 1.835-2.39 1.8-.077-1.06-.17-2.118-.236-3.18-.032-.534-.004-1.073-.004-1.61h.224c0-1.5-.02-3.003.016-4.503.01-.47.39-.79.84-.81 1.175-.053 2.357-.06 3.535-.032.72.014 1.07.44 1.11 1.278.06 1.18.027 2.366.156 3.536.128 1.168.368 2.326.648 3.468.125.5.35 1.096.732 1.392 2.016 1.565 4 3.264 6.752 3.31 2.575.044 5.15.076 7.725.016 1.757-.043 2.78-1.022 2.848-2.843.105-2.78.333-5.58-.405-8.324-.085-.306-.192-.65-.12-.94.064-.25.356-.63.553-.634 2.035-.03 4.075-.016 6.112.03.747.015 1.267.42 1.397 1.1.267 1.366.582 2.735.657 4.116.097 1.722.744 2.982 2.05 4.15 1.62 1.45 3.332 2.205 5.516 2.095 1.71-.087 3.435.064 5.148.043.74-.01 1.536-.043 2.204-.316 1.946-.796 2.773-.523 2.76-3.618-.006-2.133.258-4.264-.194-6.387-.128-.594.23-1.08.808-1.2 2.096-.43 4.2-.82 6.308-1.17.196-.033.535.3.675.54.213.363.373.785.44 1.2.32 2.01.57 4.028.908 6.033.175 1.047.446 2.085.736 3.11.31 1.076.22 1.492-.68 2.186-.25.19-.634.247-.82.477-2.702 3.3-6.606 5.093-9.78 7.8-.867.74-2.06 1.1-3.125 1.58z"/></svg>