<svg xmlns="http://www.w3.org/2000/svg" width="128" height="128" viewBox="0 0 128 128"><path d="M123.983 90.997c-.382-.02-.816-.384-1.1-.704-1.375-1.54-2.717-3.115-4.054-4.688-3.703-4.356-6.485-9.184-7.548-14.878-.125-.672-.57-1.562-.3-1.968.393-.58 1.277-.89 2.006-1.17 1.447-.554 2.493-1.605 3.57-2.644 5.363-5.205 3.424-14.02-1.566-17.635-1.65-1.194-3.544-1.684-5.525-1.512-2.588.223-4.84 1.31-6.79 3.065-2.538 2.283-3.63 5.205-4.114 8.49-.504 3.41.515 6.11 3.405 8.04 1.243.826 2.53 1.584 3.798 2.375.712.444.924.928.704 1.734-.15.552-.316 1.11-.542 1.632-1.675 3.904-3.25 7.856-5.103 11.675-1.093 2.26-2.613 4.32-3.98 6.443-.865 1.347-1.96 2.123-3.737 1.803-1.26-.228-1.65.216-2.023 1.317-.31.904-.267 1.77-.072 2.702.42 2.01 1.31 3.876 1.593 5.936.156 1.1.768 2.156 1.287 3.174.37.725.998 1.444 1.86 1.353 1.882-.203 3.612.604 5.448.594 4.37-.02 8.74.05 13.107-.063 1.938-.047 3.886-.363 5.797-.733.86-.165 1.83-.58 2.406-1.2.996-1.07 1.822-2.27 2.155-3.84.33-1.588.45-3.173.557-4.774.028-.466.12-.903.644-1.073v-2.072c-.696-.352-.912-1.317-1.887-1.373zm-17.604-30.71c-.12.06-.436-.08-.528-.216-.107-.163-.17-.492-.078-.63.443-.65.917-1.283 1.433-1.88.52-.605 1.102-1.154 1.646-1.74.216-.234.046-.764-.264-.794-.45-.043-.914.002-1.363-.043-.538-.056-.8-.486-.656-.952.545-1.746 1.804-2.9 3.295-3.79.917-.542 2.79.147 3.69 1.186 1.075 1.237 1.868 3.37 1.878 5.045.02 3.484-2.193 6.393-5.6 7.314-.3.08-.66-.017-.98-.085-.42-.088-.744-.74-.524-1.02.493-.626 1.02-1.23 1.503-1.867.58-.764.63-1.447.18-1.818-.56-.46-1.03-.17-1.535.14-.684.415-1.386.802-2.102 1.153zm-.013 20.16c.324-.714.654-1.428.984-2.143.148-.322.33-.333.48-.01.47 1.012.927 2.036 1.343 2.952-.064.24-.06.398-.117.43-.168.09-.38.2-.544.16-.544-.12-1.072-.322-1.614-.46-.516-.132-.776-.38-.53-.927zm-.117 20.74c-.404.466-2.01.388-2.138-.152-.335-1.422-.62-2.86-.832-4.304-.075-.52.427-.73 1.14-.815.308.174 1.09.352 1.196.725.405 1.403.593 2.868.848 4.313.013.064-.143.155-.213.235zm-3.103-9.494c-.82-.04-2.133.392-2.35-.552-.214-.94.752-1.857 1.55-2.502.283-.228.876-.228 1.273-.126.925.242 1.794.22 2.68-.138.888-.358 1.237-.912.834-1.856-.245-.562-.565-1.073.143-1.355 1.027-.41 1.74-1.05 2.13-2.072.036-.095.146-.225.23-.23.084-.004.21.1.268.193 1.683 2.725 3.744 5.166 5.758 7.642.066.083.14.23.11.31-.064.173-.188.45-.3.456-2.508.157-5.014.28-7.52.414 0-.05-.005-.1-.007-.153-1.6 0-3.203.056-4.8-.022zm17.797 4.685c-.24.76-.57 1.5-.736 2.272-.358 1.713-1.026 2.994-3.102 2.685-1.478.78-3.09.693-5.246.722-.466-.04-1.493-.088-2.502-.24-.28-.043-.683-.35-.736-.597-.29-1.323-.523-2.66-.7-4-.063-.48.286-.896.76-.992.664-.134 1.354-.175 2.033-.213 3.19-.177 6.38-.34 9.57-.51.47-.027.803.395.656.873zm-35.784 10.02c-.156-3.667-.958-7.28-.713-10.99.09-1.37-.635-2.635-1.93-3.445-1.063-.667-2.22-1.252-2.907-2.382-1.13-1.863-2.336-3.69-3.345-5.616-.574-1.093-.858-2.318-1.02-3.605-.23-1.836-.364-3.66-.31-5.49.08-2.753.31-5.5.373-8.253.073-3.31.907-6.347 2.91-9.02.693-.93 1.34-1.873 1.288-3.116-.03-.634.323-1.055.848-1.38.485-.303.984-.61 1.4-.992 1.408-1.288 1.74-3.364.79-5.03-.688-1.204-1.464-2.38-2.835-2.898-1.658-.627-2.2-1.94-2.263-3.523-.13-3.24.043-6.434 1.875-9.288.38-.6.096-1.09-.288-1.546-.546-.65-1.225-.99-2.098-1.006-1.14-.022-2.355.116-3.403-.225-1.973-.644-2.58-.17-2.24-2.963.23-1.888.017-3.67-1.568-5.035-.495-.42-1.203-.98-.69-1.68.245-.337 1.03-.324 1.58-.388.68-.082 1.396.02 2.052-.143.525-.13 1.045-.465 1.456-.832.544-.485.73-1.173.508-1.888-.217-.696-.69-1.195-1.43-1.35-.444-.094-.905-.123-1.36-.15-.69-.04-1.38-.012-2.065-.084-.597-.062-1.094-.32-1.253-.986-.107-.444-.18-.907-.37-1.317-.368-.806-1.267-1.453-1.846-1.33-.832.178-1.448.67-1.803 1.452-.092.207-.17.436-.186.66-.088 1.51-1.017 1.89-2.347 1.83-.444-.02-.912.084-1.343.22-.845.262-1.566 1.353-1.464 2.12.125.903.864 1.69 1.795 1.833.68.104 1.383.075 2.05.216.283.06.633.37.708.635.072.26-.102.655-.286.904-.267.364-.635.656-.968.976-1.475 1.418-2.313 3.07-2.24 5.2.05 1.372-.07 1.36-1.602 1.652-1.01.194-2.012.453-3.022.666-2.69.563-3.38 1.888-2.822 4.853.04.223.196.424.23.646.358 2.03.7 4.062 1.044 6.095.224 1.347-.072 2.39-1.29 3.265-1.106.79-2.028 1.856-2.942 2.884-1.052 1.183-1.058 2.948.01 4.074.938.987 1.778 2.096 3.158 2.606.466.172.953.71 1.122 1.192 1.152 3.248 2.178 6.522 2.178 10.037 0 4.024-.188 8.016-.733 12.018-.535 3.933-1.626 7.637-3.573 11.056-1.554 2.733-3.477 5.172-6.81 5.92-.108.022-.2.11-.303.163-.435.24-.69.992-.482 1.513.128.316.224.71.467.897 1.096.847 1.088 1.954.78 3.107-.52 1.918-.466 3.872-.473 5.824-.01 1.82.25 3.69-1.27 5.154-.22.21-.193.66-.35.96-.588 1.102-.23 2.025.575 2.8.49.47 1.07.862 1.653 1.212 2.542 1.518 5.38 1.934 8.26 2.06 2.983.127 5.973.084 8.962.113 3.76.034 7.51-1.003 11.283-.154.11.025.228.002.585.002 2.397-.242 4.998-.66 7.494-1.568.645-.235 1.33-.424 1.897-.79 1.013-.655 1.62-1.537 1.43-2.884-.252-1.813-.45-3.644-.526-5.472zm-4.558-7.955c.49.043.9.376.91.86.044 1.603.078 3.215-.052 4.81-.05.637-.453 1.307-.862 1.833-.325.418-.875.85-1.365.912-2.043.256-4.103.41-6.162.533-1.017.064-1.31-.27-1.52-1.435-.106-.56-.084-1.173-.312-1.672-.16-.35-.608-.66-.994-.79-.48-.157-1.242.342-1.347.84-.164.778-.192 1.58-.36 2.356-.065.287-.35.756-.545.76-1.48.037-2.96-.018-4.442-.054-.094-.003-.184-.096-.277-.147.206-.086.406-.236.612-.246.66-.03 1.112-.33 1.216-.973.214-1.356.428-2.72.51-4.087.03-.526-.227-1.1-.45-1.606-.2-.446-1.267-.477-1.49-.053-.267.497-.518 1.02-.645 1.564-.207.89-.267 1.813-.47 2.703-.118.53-.524.628-1.048.458-1.472-.477-1.722-.717-1.776-2.114-.044-1.146-.037-2.293-.013-3.442.02-.87.46-1.223 1.298-1.166 3.2.213 6.403.42 8.595.562 3.774-.16 6.523-.282 9.277-.392.572-.023 1.15-.056 1.72-.007zM64.026 25.62c.456-.625.966-1.218 1.515-1.764.215-.213.595-.262 1.04-.445.298.26.72.48.91.827.457.834.14 1.934-.67 2.73-.536.53-1.374.647-2.185.307-.668-.28-1.007-1.102-.608-1.65zm-6.345 6.62c.915-.053 1.833-.075 2.75-.083 1.72-.01 3.44-.003 5.16-.003v.036c2.17-.08 4.34-.192 6.514-.224.675-.01 1.355.164 2.027.29.513.1.784.464.72.978-.113.907-.303 1.803-.42 2.712-.262 2.144-.8 4.294.14 6.426.21.475-.127.885-.67.91-4.11.2-8.2.87-12.334.64-.572-.03-1.146.003-1.72-.028-1.026-.06-1.4-.427-1.54-1.46-.173-1.267-.014-1.488 1.285-1.828.325-.085.707-.12.94-.32.213-.186.328-.557.356-.858.015-.167-.203-.483-.363-.52-.762-.18-1.54-.275-2.31-.434-.327-.067-.37-.293-.114-.51.432-.362.924-.665 1.314-1.066.484-.498.363-1.44-.19-1.83-.277-.195-.582-.367-.896-.5s-.76-.108-.957-.325c-.276-.307-.47-.76-.532-1.175-.085-.56.348-.798.843-.825zm-2.26 17.163c-.324-.072-.7-.218-.895-.46-.132-.166-.09-.74.047-.814.483-.263 1.033-.51 1.57-.543 1.26-.077 2.52-.025 3.02-.025 3.51.17 6.256.335 9 .42 1.83.057 3.653.106 5.475-.308.99-.224 2.06-.123 3.09-.125.408 0 .975-.093 1.076.475.054.293-.16.66-.315.962-.544 1.05-1.51 1.383-2.592 1.35-1.94-.06-3.89-.126-5.82-.34-1.042-.113-2.03-.114-3.064.012-3.558.433-7.097.174-10.59-.61zm-.43 43.06c.52-.42 1.174-.67 1.716-1.07.37-.274.43-.626.27-1.168-.4-1.363-.177-1.68 1.042-1.884.782-.126 1.597-.046 2.283-.604.45-.365.556-1.243.065-1.454-.622-.27-1.288-.452-1.928-.682-.337-.122-.654-.325-.443-.728.147-.282.4-.635.668-.697.545-.128 1.134-.085 1.7-.1.458-.014.918.013 1.378-.018 1.19-.078 1.907-.608 2.034-1.478.125-.86-.53-1.575-1.696-1.785-.565-.1-1.145-.085-1.713-.16-.526-.068-.768-.42-.765-.936.002-.485.16-.995.637-1.1 1.342-.29 2.716-.45 4.06-.73.547-.114 1.094-.333 1.576-.617.53-.308.754-.85.648-1.474-.1-.613-.44-1.153-1.046-1.21-1.247-.12-2.506-.087-3.758-.125-.66-.02-1.13-.97-.717-1.543.18-.246.507-.497.79-.528.793-.085 1.61-.014 2.406-.1.555-.065 1.112-.24 1.63-.453.597-.245.923-1.074.755-1.757-.153-.61-.556-1.024-1.165-1.11-.793-.11-1.596-.13-2.396-.185-.46-.032-.95.037-1.37-.1-.246-.083-.436-.465-.55-.752-.034-.078.26-.405.44-.437.673-.123 1.375-.104 2.04-.264.546-.133 1.07-.407 1.565-.687.6-.34.57-1.445-.045-1.718-.515-.227-1.058-.417-1.61-.55-.753-.18-1.757.3-2.24-.433-.41-.613-.417-1.494-.585-2.26-.32-1.447-.627-2.9-.947-4.35-.627-2.846-.523-3.04 2.18-2.577 3.09.523 6.184.294 9.276.373.916.026 1.838-.046 2.757-.043 1.15 0 1.358.338.798 1.42-2.2 4.244-3.147 8.77-3.618 13.52-.373 3.82.043 7.56.235 11.323.156 3 1.28 5.82 2.817 8.41.45.76 1.2 1.36 1.88 1.957.512.448 1.216.69 1.67 1.173.594.625 1.534 1.045 1.51 2.116-.783.103-1.56.23-2.347.3-2.622.235-5.245.448-7.867.67-4.285-.043-8.448-1.003-12.67-1.37-.327-.03-.65-.197-.967-.32-1.025-.406-1.19-1.046-.376-1.705zm1.73 7.846c-.175.08-.355.233-.527.222-.178-.007-.352-.173-.525-.27.184-.08.37-.228.55-.223.17.006.336.172.504.27zm24.973 11.356c-.26.344-.614.686-1.003.858-.513.224-1.09.34-1.654.403-1.137.125-2.283.226-3.424.256-2.86.082-5.717.06-8.562.46-1.235.173-2.515.03-3.776.03 0 .046 0 .093-.003.14-3.31-.22-6.62-.438-9.922-.667-1.4-.096-2.688-.546-3.792-1.412-.217-.168-.367-.63-.3-.892.06-.245.46-.59.698-.58 2.74.11 5.477.274 8.213.443.454.026.904.207 1.355.203 5.036-.065 10.072-.113 15.108-.242 2.168-.055 4.333-.302 6.504-.41.284-.015.747.227.83.458.09.26-.076.698-.268.953zM37.523 98.07c-.653-.236-1.265-.364-1.743-.963-1.14-1.435-2.35-2.818-3.57-4.187-4.31-4.82-7.173-10.344-8.265-16.747-.085-.51.066-.883.565-1.088.427-.174.853-.34 1.27-.54 9.633-4.577 8.276-15.656 2.418-20.172-1.91-1.472-4.085-1.96-6.475-1.528-4.9.89-7.893 3.947-9.552 8.448-.39 1.063-.514 2.24-.654 3.376-.38 3.105.64 5.654 3.236 7.475 1.315.92 2.69 1.757 4.033 2.635.727.473.907.908.68 1.732-.09.333-.205.657-.33.978-1.988 5.138-4.103 10.216-6.836 15.02-1.63 2.858-3.7 5.24-6.638 6.804-.1.053-.198.113-.306.155-.875.342-1.21.982-1.048 1.9l1.358 7.788c.32 1.83 1.664 2.746 3.25 3.17 1.404.376 2.836.707 4.398.296 1.18-.31 2.51-.11 3.77-.05 1.945.097 3.886.27 5.922.415 2.78-.16 5.64-.313 8.497-.504 1.343-.09 2.937.52 3.943-.63.875-1 1.582-2.3 1.91-3.583.67-2.658 1.084-5.387 1.528-8.096.168-1.016-.302-1.728-1.36-2.112zM18.596 69.002c-.096-.25-.005-.674.16-.882.203-.242.573-.355.885-.493.418-.184.864-.305 1.27-.512.522-.26.952-1.035.714-1.4-.227-.347-.62-.665-1.006-.808-.41-.154-.908-.067-1.36-.122-.214-.026-.423-.134-.632-.205.207-.2.39-.444.63-.587 1.073-.64 2.4-.804 3.248-1.87.533-.67.33-1.653-.505-1.963-.21-.08-.435-.153-.654-.18-.345-.04-.693-.005-1.032-.057-.59-.09-.606-.333-.36-.987.516-1.367 1.474-1.935 2.906-1.977 2.036-.06 3.51.69 4.5 2.537 1.42 2.66 1.49 5.265-.085 7.85-.478.777-1.052 1.505-1.664 2.188-1.07 1.192-1.71 1.423-3.6 1.4-1.286-.04-2.776-.216-3.41-1.935zm-3.255 37.89c-.004.1-.08.22-.158.285-.158.126-.34.305-.512.307-.164.004-.38-.16-.484-.313-.114-.172-.166-.41-.178-.622-.02-.56-.006-1.12-.006-1.682l-.075-.003c.043-.444.005-.913.144-1.325.085-.24.45-.533.686-.53.242.002.677.335.684.532.024 1.116-.05 2.235-.1 3.353zm-1.067-8.383c-.553-.006-.757-.444-.437-.93 2.538-3.84 4.484-7.988 6.394-12.158.073-.163.283-.267.43-.398.133.18.304.347.398.547.678 1.45 1.224 2.983 2.04 4.353 1.05 1.77 2.284 3.424 3.486 5.1.666.925 1.434 1.78 2.14 2.68.223.287.023.69-.356.71-2.52.12-5.04.23-7.56.343l-.005-.24c-2.176 0-4.352.012-6.53-.005zm19.665 4.817c-.28.867-.527 1.752-.884 2.59-.304.708-.14 1.76-1.024 2.047-.608.196-1.347-.05-2.023-.032-1.938.046-3.87.165-5.805.176-1.288.01-1.43-.17-1.856-1.503-.108-.324-.11-.725-.31-.96-.274-.322-.666-.61-1.06-.74-.48-.156-1.036.33-1.2.976-.11.438-.107.905-.198 1.35-.104.524-.69.97-.928.737-.232-.225-.514-.513-.552-.803-.132-1.016-.13-2.05-.26-3.067-.084-.67.353-.81.78-.838 2.507-.17 5.02-.294 7.53-.433 0 .02 0 .038.004.056l7.19-.48c.473-.034.767.403.596.922z"/></svg>