<svg xmlns="http://www.w3.org/2000/svg" width="128" height="128" viewBox="0 0 128 128"><path d="M92.22 105.53c-.332-.42-.43-.928-.01-1.355 1.845-1.856 2.424-4.322 3.19-6.68.772-2.38.398-4.752-.48-7.045-.33-.848-.79-1.71-1.67-2.044-1.2-.46-2.243-1.306-3.64-1.307-.848 0-1.093-.35-1.112-1.07-.088-3.103-.547-6.16-.928-9.236-.48-3.918-2.315-6.96-5.09-9.583-1.457-1.373-2.86-2.807-4.33-4.162-1.863-1.718-3.233-3.81-4.654-5.87-.42-.612-.57-1.26-.576-1.978-.015-1.54.226-1.944 1.94-1.58 1.484.32 2.853.85 4.23 1.462 2.373 1.056 4.78 2.037 7.21 2.96 1.02.388 2.117.602 3.2.788.863.15 1.6-.17 1.936-1.048.213-.557.35-1.106.907-1.483 1.807-1.227 3.02-2.88 3.51-5.047.106-.48.396-.917.61-1.367.997-2.1.705-4.307.482-6.493-.05-.462-.37-.925-.643-1.333-1.2-1.763-2.754-3.164-4.552-4.302-2.555-1.617-4.806-3.584-6.86-5.797-1.354-1.46-2.778-2.85-3.9-4.542-.955-1.426-1.75-2.904-2.412-4.473-.606-1.434-1.66-2.187-3.272-2.138-1.403.045-2.805.01-4.207.01v.134c-1.504 0-3.006.006-4.508 0-1.082-.006-1.253-.21-1.082-1.19.118-.688.292-1.377.312-2.068.102-3.508.013-7.007-.555-10.48-.256-1.545-.834-1.986-2.43-2.024-1.162-.024-2.168.32-3.046 1.045-.617.51-1.186 1.074-1.8 1.59-1.53 1.287-2.974 2.718-4.643 3.797-1.694 1.097-3.227 2.357-4.76 3.643-4.367 3.648-7.705 8.11-10.35 13.115-.696 1.316-1.385 2.645-1.475 4.215-.038.666-.45 1.31-.7 1.963-1.372 3.54-3.094 6.937-4.163 10.605-.68 2.33-1.11 4.654-1.06 7.084.084 4.108.18 8.22.113 12.32-.067 4.403 1.072 8.508 2.723 12.508 1.422 3.442 3.5 6.51 5.565 9.583.524.785.57.865-.125 1.47-1.84 1.6-3.36 3.46-4.384 5.665-1.302 2.805-1.336 5.604.433 8.28.22.335.467.654.736.95.38.427.46.856.13 1.34-2.074 3.03-3.01 6.502-3.955 9.984-.48 1.768-.994 3.46-.05 5.23.163.31-.01.79.03 1.18.07.7.48 1.148 1.123 1.184 3.893.216 7.773.704 11.686.563 2.902-.106 5.81-.1 8.713-.145.4-.003.814.044 1.198-.042 2.372-.54 4.784-.355 7.18-.464 1.493-.07 2.982-.265 4.47-.42 2.288-.235 4.575-.497 6.863-.72 1.792-.18 3.584-.42 5.38-.46 2.996-.065 5.99-.21 8.994.16 2.074.255 4.194.115 6.293.22 1.618.08 3.022-1.657 3.067-3.09.075-2.26-.384-4.37-1.33-6.4-.934-2.002-2.093-3.867-3.47-5.6zM38 110.688c-.483 1.42-.505 2.89-.617 4.355-.015.213-.31.41-.476.613-.17-.196-.38-.367-.49-.59-.086-.16-.04-.384-.057-.66.02-1.33.46-2.614 1.152-3.823.095-.164.24-.3.362-.45.045.186.177.402.125.555zM91.182 90.59c.715-.007 1.037.296 1.094 1.086.053.7.066 1.4.096 2.1.02 1.817-.053 3.606-1.035 5.226-.38.63-.853 1.09-1.627 1.18-.496.06-1.01.098-1.47.27-.62.236-1.163.172-1.715-.145-.934-.53-1.9-.477-2.888-.156-.472.158-.966.247-1.445.38-2.03.555-4.037.796-6.197.58-3.074-.31-6.197-.13-9.297-.183-1.685-.032-3.37.166-5.035-.498-.67-.27-1.59-.09-2.354.074-2.778.595-5.575.324-8.365.305-.544-.007-.83-.393-.845-.997-.042-2.128.146-4.198 1.414-6.02.434-.625.448-1.25.06-1.96-.575-1.05-.522-1.13.45-1.073 3.49.206 6.98.4 10.463.706 2.197.192 4.36.495 6.528-.222.552-.18 1.184-.128 1.784-.14 2-.022 4 .006 6-.05 1.595-.042 3.186-.182 4.78-.27.8-.045 1.6-.083 2.4-.096 2.4-.037 4.8-.064 7.2-.094zm-50.025 7.063c-.053.17-.235.296-.358.44-.05-.185-.128-.367-.144-.553-.023-.294-.008-.59-.008-.885.03-2.096.7-4.04 1.487-5.95.037-.085.123-.205.194-.21.256-.025.54-.063.773.016.13.045.312.38.264.458-1.26 2.062-1.5 4.456-2.212 6.688zm2.223-16.627c-.277-.632-.453-1.315-.715-1.957-.23-.557-.064-.955.37-1.305.464-.378.96-.725 1.384-1.144.35-.35.64-.767.915-1.18.5-.77.514-1.373.09-1.94-.558-.74-1.246-.945-2.102-.538-.536.256-1.03.6-1.538.91-.373.23-.82.124-.954-.244-.17-.468-.257-.98-.484-1.416-.448-.864-.258-1.507.474-2.1.385-.31.7-.71 1.02-1.1.343-.42.43-.9.11-1.378-.305-.46-.767-.642-1.297-.552-.39.064-.76.274-1.15.317-.222.02-.603-.103-.672-.267-.237-.546-.39-1.133-.533-1.714-.56-2.258-.423-2.577 1.593-3.945.74-.504 1.518-.973 2.196-1.554.444-.383.783-.925.535-1.6-.302-.83-1-1.44-1.76-1.392-.59.034-1.173.197-1.745.354-.384.103-.736.323-1.117.423-.114.032-.416-.167-.414-.256.02-1.496.017-2.997.154-4.483.04-.437.42-.914.773-1.235.588-.538 1.27-.97 1.93-1.43.49-.342 1.03-.618 1.5-.987.664-.523 1.13-1.203.85-2.083-.29-.943-.996-1.49-1.993-1.557-.386-.027-.78.125-1.173.113-.094 0-.25-.308-.264-.48-.048-.654.19-1.26.8-1.476.93-.336 1.906-.553 2.877-.766.715-.156 1.3-.47 1.762-1.045.365-.462.313-1.226-.136-1.615-.718-.622-1.562-.81-2.49-.883-1.018-.08-1.09-.37-.727-1.373.334-.923.82-1.587 1.885-1.65.723-.043 1.344-.338 1.9-.81.696-.594.677-1.394.108-2.11-.43-.54-1.5-.384-1.484-1.25.01-.57.463-1.116.558-1.7.325-1.99 1.85-3.24 2.873-4.795.33-.5.776-.92 1.07-1.433 2.48-4.292 5.71-7.963 9.31-11.328.8-.75 1.712-1.387 2.59-2.045.25-.19.61-.18.66.197.338 2.478.718 4.958.547 7.47-.047.688-.227 1.37-.397 2.044-.328 1.3-.136 2.596.03 3.88.116.916 1.242 1.426 2.11 1.02.268-.13.64-.25.737-.476.66-1.495 1.756-1.134 3.008-.96 1.675.23 3.397.12 5.1.14.8.01 1.6-.03 2.4-.024.543 0 1.053.23 1.19.743.757 2.842 2.93 4.736 4.644 6.923 1.043 1.333 2.352 2.457 3.494 3.717 1.765 1.95 3.9 3.438 6.005 4.963.73.525 1.408 1.12 2.117 1.67 2.106 1.62 1.89 4.087 1.064 5.982-.354.813-.91 1.55-1.427 2.277-.35.49-.928.845-1.168 1.367-.648 1.424-1.74 2.016-3.238 2.223-.605.083-1.127.194-1.717-.056-1.934-.815-3.893-1.57-5.82-2.4-.44-.19-.897-.503-1.164-.89-.666-.935-1.594-1.15-2.627-1.163-1.728-.014-3.35-.523-4.997-.947-.886-.228-1.41-.567-1.456-1.57-.023-.566-.277-1.145-.535-1.665-.1-.2-.51-.38-.746-.346-.213.03-.48.342-.54.58-.093.377-.02.79-.048 1.187-.017.19-.105.377-.16.565-.085-.224-.233-.442-.25-.67-.08-1.092-.106-2.193-.197-3.287-.054-.62-.733-.85-1.343-.483-.17.1-.3.267-.47.37-.622.367-.977.266-1.098-.335-.063-.29-.044-.597-.08-.896-.09-.69-.557-1.055-1.186-1.183-.644-.128-1.19.206-1.555.69-.29.386-.528.88-.6 1.354-.294 1.93-.028 3.793.87 5.54.57 1.11 1.402 1.947 2.587 2.39.65.24 1.317.46 1.973.69.865.31 1.022.547 1.042 1.57.006.4-.002.8-.018 1.203-.047 1.22.144 2.414.59 3.53.78 1.95 1.58 3.9 2.534 5.766.39.756 1.16 1.357 1.847 1.917 1.316 1.072 2.693 2.072 4.062 3.083.8.595 1.585 1.23 2.46 1.705 1.704.923 2.7 2.325 3.153 4.164.504 2.035 1.096 4.06 1.475 6.12.237 1.284.47 2.543.98 3.754.228.533.304 1.147.364 1.734.07.744-.28 1.168-1 1.194-2.4.088-4.805.157-7.21.198-1.7.032-3.403.01-5.11.01v.02c-3.503 0-7.01.025-10.516-.01-1.6-.02-3.195-.082-4.555-1.18-.73-.588-1.68-.545-2.593-.585-1.895-.082-3.79-.235-5.685-.363-1.067-.075-1.877-.613-2.57-1.394-.308-.35-.258-.663.292-.772 1.536-.304 2.347-1.436 3.115-2.62.35-.537.272-1.198-.126-1.668-.38-.448-1.124-.675-1.632-.373-.678.405-1.33.877-1.93 1.39-.37.32-.62.78-.938 1.163-.35.43-.557-.02-.635-.198zm.736 17.84c-.005-1.62.392-3.162.915-4.677.328-.94.755-1.847 1.047-2.797.178-.576.497-.82 1.056-.82.3-.004.597.022.955.04.442.04.94.095 1.436.13.336.02.39.123.14.317-.314.246-.66.45-.96.71-1.187 1.01-1.912 2.292-2.163 3.826-.24 1.47-.602 2.933-.095 4.43.128.366-.355.706-.785.613-1.296-.29-1.543-.6-1.545-1.775zm48.082 16.353c-.498-.025-1-.06-1.496-.11-5.088-.493-10.165-.55-15.266-.045-2.98.29-6 .245-9 .31-1.5.035-2.993-.095-4.472.304-.712.19-1.056-.22-1.003-1.023.06-.9.177-1.798.16-2.694-.006-.48-.163-.99-.37-1.43-.225-.47-.69-.707-1.23-.698-.43.01-.834.533-.858 1.07-.063 1.416.223 2.788.64 4.13.148.476.077.746-.435.833-.885.153-1.766.328-2.656.452-.73.105-1.21-.326-1.106-1.013.258-1.678.606-3.342.826-5.025.138-1.077.145-2.18.135-3.27 0-.195-.35-.438-.587-.56-.126-.064-.42.032-.533.155-.267.288-.514.614-.698.96-1.224 2.323-1.956 4.802-2.22 7.418-.03.294-.026.608-.12.882-.052.154-.332.373-.412.338-.238-.1-.55-.283-.608-.49-.1-.374-.107-.81-.02-1.187.44-1.944.514-3.97 1.31-5.837.118-.274.204-.564.257-.86.03-.187-.01-.393-.04-.59-.06-.413-.64-.996-1.046-.904-.34.075-.825.324-.914.6-.867 2.754-2.416 5.29-2.69 8.24-.04.442-.322.765-.764.768-.47 0-.966-.062-1.394-.235-.18-.075-.31-.51-.302-.775.032-1.1.037-2.213.21-3.296.273-1.668.658-3.324 1.03-4.98.34-1.52.357-1.515 1.91-1.515h2.702c.004-.045.01-.09.01-.14 3.39.29 6.774.583 10.16.863.995.08 1.993.173 2.99.19 4.305.065 8.61.13 12.916.135 1.593 0 3.19-.206 4.783-.254 1.49-.047 2.933.35 4.4.55.262.033.533.286.725.51.722.823 1.474 1.632 2.1 2.53.8 1.14 1.384 2.415 2.747 3.09.643.32.82 1.095.91 1.812.05.392-.277.8-.678.784zM74.136 34.87c.422-1.47.303-2.955-.075-4.4-.11-.452-.462-.88-.8-1.23-.97-1.023-2.714-.57-3.062.792-.145.57-.155 1.17-.227 1.757-.244 1.558.627 2.668 1.526 3.73.733.864 2.323.456 2.64-.65zm15.013 13c.784.586 2.297-.274 2.27-1.183-.048-1.377-1.506-3.22-2.84-3.53-.735-.17-1.38.05-1.89.622-.39.434-.52 1.273-.142 1.656.827.852 1.652 1.727 2.6 2.43zM56.09 93.848c-.16.005-.426.143-.46.27-.384 1.42-.73 2.848-1.08 4.25.07.33.077.644.205.894.17.33.437.602.663.902.28-.23.69-.405.82-.7.655-1.46.684-3.043.74-4.606.01-.256-.208-.55-.384-.78-.105-.13-.334-.234-.504-.232zm8.562 16.446c-.267-.207-.797-.322-1.07-.196-.39.186-.656.632-.872.86.07 1.315.126 2.405.81 3.34.27.373 1.01.47 1.307.14 1.244-1.364 1.195-3.09-.174-4.144zm5.322 2.187c-.323-.127-.713.338-.587.737.078.234.294.484.515.6.315.16.64-.278.576-.89-.117-.106-.277-.35-.504-.444z"/></svg>