<svg xmlns="http://www.w3.org/2000/svg" width="128" height="128" viewBox="0 0 128 128"><path d="M120.896 46.2c-.02-.333-.176-.653-.23-.984-.578-3.703-2.157-7.1-3.282-10.635-1.397-4.386-3.857-8.094-7.576-10.93-2.955-2.256-5.813-4.637-8.745-6.92-.706-.55-1.49-1.035-2.308-1.394-1.646-.723-3.312-1.42-5.02-1.98-3.632-1.195-7.28-2.347-10.954-3.41-1.933-.562-3.913-1.06-5.905-1.317-3.906-.5-7.837-.827-11.758-1.206-3.39-.327-6.74.286-10.11.452-.55.026-1.1.227-1.632.4-4.505 1.445-9.165 2.255-13.75 3.37-.324.082-.703.233-.987.14-1.6-.523-2.877.275-4.087 1.05-2.367 1.523-4.662 3.157-6.982 4.75-1.22.837-2.24 1.862-3.14 3.04-1.985 2.595-4.03 5.142-6.07 7.69-2.78 3.473-4.832 7.266-5.848 11.667-.76 3.292-1.644 6.54-1.872 9.925-.053.776-.3 1.54-.45 2.31-.562 2.87-1.294 5.7-1.545 8.634-.352 4.094.203 8.118.91 12.097 1.146 6.44 3.013 12.692 5.695 18.682.23.512.4 1.062.707 1.52 2.2 3.267 4.334 6.57 6.797 9.66 1.98 2.49 3.947 4.9 6.73 6.55.865.51 1.594 1.25 2.38 1.89 1.67 1.362 3.49 2.443 5.54 3.172 3.816 1.355 7.627 2.64 11.63 3.44 4.855.97 9.744 1.666 14.64 2.355 1.11.155 2.26.195 3.375.1 2.805-.23 5.668-.283 8.384-.93 5.546-1.33 11.324-2.05 16.25-5.31.277-.183.59-.34.907-.45 3.275-1.135 5.905-3.3 8.4-5.566 3.075-2.8 6.098-5.664 8.932-8.728 4.084-4.418 6.655-9.582 8.16-15.335.51-1.955.98-3.926 1.38-5.905.558-2.755 1.233-5.506 1.497-8.29.373-3.922.42-7.873.644-12.684-.193-3.06-.44-6.99-.703-10.916zm-10.784 43.21c-1.013 2.53-2.56 4.72-4.433 6.74-2.61 2.82-5.444 5.398-8.19 8.065-1.87 1.816-4 3.298-6.378 4.392-.512.237-1.05.43-1.528.725-5.323 3.245-11.364 4.14-17.32 5.296-.986.192-2.027.107-3.04.107-2.315-.005-2.365-.02-2.296-2.18.065-2.134.27-4.268.367-6.403.03-.665.01-1.36-.156-1.998-.315-1.205-1.178-1.89-2.41-2.064-1.027-.145-2.212.61-2.617 1.75-.258.735-.414 1.526-.49 2.3-.108 1.123-.112 2.255-.145 3.382-.024.903-.02 1.806-.044 2.71-.064 2.08-.245 2.225-2.438 2.072-2.494-.17-4.91-.77-7.22-1.646-4.115-1.557-8.102-3.41-11.948-5.554-.98-.547-1.96-1.13-2.84-1.827-2.386-1.888-4.747-3.817-7.055-5.803-.755-.65-1.378-1.483-1.95-2.31-3.72-5.39-6.94-11.07-9.82-16.954-1.204-2.464-1.82-5.088-2.108-7.78-.177-1.66-.723-3.3-.18-5.02.364-1.153.37-1.31 1.556-1.33 1.693-.025 3.388.044 5.076-.03.885-.044 1.798-.2 2.635-.486 1.534-.527 2.478-2.148 2.38-3.708-.08-1.323-1.634-3.268-3.384-3.238-.79.014-1.58-.027-2.368-.03-1.242-.005-2.483.015-3.723-.004-.894-.015-1.26-.44-1.12-1.25.17-1 .4-1.988.514-2.993.697-6.054 2.347-11.92 3.55-17.873.17-.853.63-1.705 1.147-2.418 1.653-2.28 3.43-4.47 5.088-6.746.82-1.124 1.858-1.963 2.976-2.725 3.928-2.675 8.086-4.935 12.513-6.65 2.827-1.095 5.736-1.98 8.62-2.932.526-.17 1.09-.304 1.642-.32 3.267-.11 6.54-.18 9.807-.262v.043c1.47 0 2.935.014 4.4-.003 5.91-.064 11.65 1.077 17.332 2.523 2.18.554 4.253 1.407 6.205 2.61 1.425.874 2.994 1.64 4.6 2.068 2.01.533 3.732 1.53 5.457 2.577.964.584 1.96 1.145 2.827 1.853.862.704 1.75 1.476 2.336 2.4 2.47 3.904 4.854 7.868 7.233 11.83 1.195 1.983 1.574 4.27 1.68 6.484.227 4.727.146 9.472.168 14.208.004.46-.174.8-.81.72-2.566-.31-5.136-.596-7.71-.825-.54-.05-1.113.144-1.65.294-1.343.37-2.086 1.357-2.1 2.7-.01 1.23.874 2.438 2.13 2.717.99.218 2.016.245 3.016.395 2.12.324 4.235.62 6.38.135.202-.047.628.228.714.448.197.508.39 1.085.34 1.61-.685 7.007-2.617 13.7-5.22 20.205zm-12.43-23.8c-.14-.88-.278-1.765-.353-2.655-.15-1.724-1-2.724-2.684-2.907-1.005-.11-2.027-.085-3.04-.075-6.88.07-13.755.117-20.615-.523-.703-.064-1.3-.218-1.796-.757-1.475-1.602-3.33-2.24-5.483-2.084-.336.02-.703.087-1.01-.015-.394-.133-.92-.325-1.076-.648-.888-1.813-1.72-3.66-2.496-5.525-1.09-2.596-1.978-5.27-3.368-7.74-.882-1.563-1.608-3.217-2.374-4.84-.478-1.018-.757-2.156-1.378-3.07-1.096-1.612-1.78-3.37-2.392-5.194-.642-1.91-1.365-3.798-2.152-5.654-.248-.584-.722-1.195-1.26-1.508-1.332-.773-3.59-.307-4.64.926-.327.386-.59 1.06-.498 1.525.37 1.868.77 3.792 1.894 5.36 1.075 1.498 1.714 3.13 2.34 4.832 2.1 5.706 4.19 11.426 7.532 16.575.425.655.686 1.42 1.024 2.13.672 1.42 1.193 2.945 2.064 4.23.856 1.262.962 2.416.563 3.808-.738 2.586.36 4.88 1.444 7.09.362.74 1.22 1.39 2.004 1.74 1.775.795 3.617 1.09 5.577.362 1.09-.407 2.147-.888 2.866-1.71.962-1.098 2.065-1.42 3.307-.998 1.543.526 3.107.494 4.68.512 2.368.025 4.736.005 7.104.005v-.043c2.82 0 5.64.043 8.46-.02 1.343-.03 2.692-.202 4.02-.436 1.448-.257 1.978-1.18 1.74-2.7zm-34.806-.176c-.512-.035-.796-.363-.794-.86.004-1.168.738-1.837 1.888-1.762.422.026.816.456.81.883-.003 1.156-.724 1.822-1.905 1.74zm-.248-34.507c.792.964 2.562.885 3.24-.128.182-.277.362-.576.458-.89.736-2.445 1.843-4.827 1.116-7.76 0-.965.064-2.2-.018-3.426-.064-1.024-.96-1.858-1.97-1.99-.445-.06-.897-.04-1.343-.07-1.165-.078-2.057.518-2.45 1.862-.247.85-.29 1.76-.426 2.645-.45 2.928.125 5.77.74 8.606.092.414.38.81.657 1.152zM32.882 80.373c-2.953-.507-5.274.615-7.055 2.92-.82 1.065-.925 2.252-.21 3.46.683 1.15 1.632 1.826 3.343 1.745.227-.064.853-.092 1.274-.398 1.086-.79 2.17-1.62 3.08-2.598.586-.63.955-1.51 1.263-2.34.44-1.18-.43-2.572-1.694-2.788zm52.28-48.416c.9 1.477 2.83 1.446 3.945.113 1.373-1.643 1.596-3.634 2.08-5.565.134-1.07-.495-2.085-1.472-2.33-.795-.2-1.65-.2-2.182.456-1.12 1.383-2.144 2.84-3.157 4.305-.418.6-.32 1.284.055 1.9.233.383.503.74.735 1.12zM48.512 94.56c-.22-.023-.45-.07-.663-.034-2.043.346-3.836 1.147-5.196 2.786-.608.732-.87 1.536-.846 2.472.04 1.397.942 2.263 2.48 2.23.83.024 1.623-.318 2.322-.944 1.46-1.308 2.282-3.02 3.028-4.773.282-.666-.38-1.647-1.13-1.737zm51.664-48.786c.79.23 1.58.198 2.304-.157 1.008-.49 1.987-1.045 2.957-1.61 1.21-.707 1.604-1.825 1.504-2.806-.05-1.824-1.235-2.512-2.6-1.796-1.196.625-2.38 1.288-3.497 2.04-.637.43-1.198 1.02-1.678 1.628-.706.9-.115 2.378 1.01 2.705zm-67.79-2.016c.618-.12 1.206-.817 1.217-1.62-.043-.16-.05-.534-.23-.785-1.35-1.862-3.21-3.125-5.185-4.213-.69-.382-1.66-.075-2.144.507-.512.62-.526 1.464.035 2.173 1.13 1.426 2.46 2.628 4.033 3.548.71.416 1.465.55 2.274.392zM87.01 96.654c-.3-.288-.776-.392-1.067-.53-.36.082-.58.11-.787.182-1.248.434-1.923 1.778-1.307 2.965.77 1.485 1.793 2.82 3.24 3.746.79.507 1.857.37 2.48-.23.95-.914 1.187-2.078.43-2.993-.916-1.114-1.954-2.133-2.992-3.14zM98.39 81.06c-.91-.182-1.866.367-2.228 1.17-.424.936-.154 2.176.728 2.7 1.453.86 3 1.516 4.725 1.556.35-.032.687-.062 1.02-.103.566-.068.97-.634.91-1.184-.088-.823-.434-1.498-.994-2.093-1.13-1.205-2.6-1.734-4.16-2.05z"/></svg>