<svg xmlns="http://www.w3.org/2000/svg" width="128" height="128" viewBox="0 0 128 128"><path d="M119.31 68.067c-.6-4.992-1.945-9.755-3.423-14.507-.51-1.643-1.583-2.912-3.243-3.555-1.234-.476-2.47-.998-3.752-1.306-3.458-.828-6.995-1.26-10.534-1.165-2.293.062-4.02-.365-5.298-2.462-.79-1.303-1.993-2.283-3.644-2.7-.907-.223-1.74-.96-2.475-1.614-2.33-2.05-4.673-4.095-6.867-6.29-3.3-3.306-6.786-6.37-10.686-8.956-.37-.247-.74-.493-1.085-.768-.372-.3-.554-.717-.39-1.175.417-1.154.724-2.32.694-3.562-.06-2.646-1.383-4.485-3.915-5.086-3.36-.8-6.374.068-8.962 2.32-.467.405-.917 1.077-.97 1.664-.198 2.07-.588 4.184.86 6.08.603.785.425 1.235-.43 1.98-1.92 1.676-3.88 3.314-5.795 4.998-4.997 4.39-9.984 8.794-14.97 13.2-1.405 1.244-2.8 2.5-4.17 3.78-.782.73-1.676.988-2.732.977-1.66-.014-3.323.05-4.987.108-3.68.122-6.874 1.436-9.628 3.883-1.1.984-2.027 2.06-2.38 3.525-.436 1.824-.995 3.64-1.217 5.493-.533 4.405-.782 8.832-.747 13.276.01.774-.06 1.55-.11 2.323-.117 1.765-.3 3.53-.352 5.295-.062 1.993-.015 3.993-.015 5.99h-.06c0 2.884-.065 5.77.017 8.65.103 3.526 1.526 6.5 4.436 8.505 3.704 2.55 7.79 4.2 12.386 4.224 3.883.02 7.763.02 11.648.033 1.773.003 3.514.187 5.278.465 3.157.495 6.32 1.004 9.563.943 6.43-.122 12.868-.065 19.3-.003 2.324.018 4.64.343 6.96.388 3.325.064 6.65.03 9.973-.026 1.544-.024 3.088-.27 4.635-.297 1.995-.032 4.002-.066 5.986.113 4.745.438 9.205-1.01 13.745-1.923 2.026-.41 3.42-1.717 4.084-3.547.5-1.39 1.19-2.6 2.052-3.744.75-1 1.277-2.037 1.308-3.337.023-.993.338-1.978.344-2.963.075-9.746.743-19.49-.433-29.234zM61.206 20.473c.267-.142.587-.186.843-.26.14.118.266.18.276.257.013.094-.047.24-.125.29-.255.176-.522.372-.813.45-.157.037-.376-.147-.565-.23.127-.175.216-.414.385-.507zm-19.76 26.802c3.53-3.03 7.006-6.127 10.53-9.163 3.604-3.11 7.24-6.18 10.866-9.262.752-.64 1.205-.685 2.043-.032 1.488 1.157 2.99 2.302 4.368 3.584 2.35 2.187 4.626 4.46 6.9 6.73 2.894 2.892 5.545 6.053 9.168 8.125.167.096.245.354.365.533-.184.102-.358.272-.555.3-.438.052-.883.046-1.327.046-3.547.002-7.09 0-10.638 0v-.213c-2.66 0-5.316-.002-7.98 0-3.664.002-7.263.63-10.876 1.152-3.946.572-7.9 1.077-11.903.853-1.1-.062-2.197-.113-3.296-.17.37-1.215 1.46-1.73 2.334-2.482zm71.647 48.454c-.02 1.31-.335 2.626-.527 3.94-.156 1.083-.797 1.817-1.76 2.256-1.52.693-3.106 1.163-4.774 1.36-3.624.423-7.287.528-10.873 1.314-.63.14-1.328.076-1.984 0-.28-.03-.603-.312-.42-.717.365-.805.823-1.58 1.103-2.41.113-.342 0-.933-.246-1.18-.254-.255-.82-.385-1.195-.305-.513.107-1.057.373-1.445.725-1.06.974-2.08 2-3.05 3.06-.574.627-1.203.935-2.04.88-2.322-.146-4.645-.276-6.964-.42-.773-.052-1.55-.108-2.32-.193-.535-.06-1.22-.01-1.557-.32-.307-.28-.235-.978-.344-1.488-.184-.853-1.078-1.303-1.753-.853-.457.302-.917.63-1.283 1.035-.725.806-1.564 1.056-2.654 1.05-6.653-.045-13.31-.007-19.965-.007-1 0-1.998-.02-2.993-.08-.51-.03-.73-.38-.747-.895-.014-.66.032-1.347-.14-1.97-.187-.66-.716-1.103-1.448-1.21-.667-.093-1.29.238-1.638.89-.52.96-.81 2.234-1.605 2.828-1.067.8-2.574.25-3.89.29-.555.02-1.114.027-1.662-.03-.73-.08-1.56.294-2.15-.45.29-.58.584-1.164.87-1.75.095-.195.247-.422.217-.61-.066-.41-.125-.91-.387-1.18-.267-.27-.82-.485-1.166-.396-.623.162-1.246.487-1.75.893-.502.41-.976.945-1.263 1.522-1.077 2.164-2.9 2.087-4.835 1.706-.138-.026-.347-.364-.306-.477.15-.406.433-.76.587-1.166.234-.608.53-1.233.566-1.867.098-1.6-1.58-2.653-2.992-1.915-.488.252-.95.58-1.355.95-.573.522-1.078 1.117-1.618 1.674-.448.46-.744 1.194-1.536 1.114-1.028-.1-1.973-.53-2.473-1.46-.355-.657-.58-1.443-.64-2.19-.107-1.324-.053-2.66-.053-3.993 0-3.218-.074-6.438.03-9.655.182-5.536.49-11.072.726-16.61.048-1.147.38-2.177 1.056-3.1.525-.714 1.102-1.396 1.568-2.147.757-1.22 1.442-2.482 2.157-3.73l4.248-.536c.11-.014.237-.02.32-.076 1.78-1.208 3.816-1.005 5.8-1.056 3.66-.093 7.322-.268 10.982-.244 3.997.023 7.977-.24 11.954-.547 2.093-.163 4.16-.62 6.246-.894 1.42-.192 2.848-.414 4.28-.437 3.55-.065 7.103-.022 10.652-.022v.085c4.107 0 8.21-.006 12.32.002.72.002.958.33.81 1.07-.108.538-.367 1.076-.345 1.607.03.81.454 1.49 1.248 1.805.648.255 1.364.244 1.9-.208.587-.493 1.106-1.09 1.564-1.71.593-.8 1.12-1.652 1.62-2.513.32-.545.763-.74 1.353-.78 3.787-.235 7.533.178 11.267.74.643.096 1.263.398 1.867.667.937.413 1.573.96 1.825 2.13.496 2.263 1.29 4.458 1.963 6.68.096.317.238.63.275.958.33 2.86.883 5.717.917 8.582.084 7.323-.038 14.645-.143 21.97zm-7.228-26.797c-.843-.476-1.86-.836-2.818-.89-1.984-.11-3.986-.012-5.98.068-1.13.05-1.71.8-2.09 1.83-.412 1.1-.285 2.19-.204 3.285.093 1.213.3 2.417.4 3.627.314 3.755.6 7.504.906 11.258.033.44.067.904.23 1.304 1.514 3.738 2.044 4.86 6.314 3.27.718-.27 1.43-.62 2.056-1.053 1.093-.752 2.086-1.647 3.18-2.4 2.307-1.59 3.195-3.862 3.267-6.552.027-.995.005-1.99.005-2.984h.207c0-.668-.03-1.333 0-1.993.21-4.194-2.084-6.85-5.476-8.765zm-2.326 17.01c-.75.55-1.487 1.7-2.516 1.1-.77-.454-.4-1.628-.504-2.492l-.943-7.875c-.066-.544-.157-1.088-.2-1.637-.05-.63.348-1.118.935-1.095 3.255.125 3.98-.277 5.195 3.723.128.42.28.846.333 1.278.085.766.1 1.542.176 2.776.465 1.784-.92 3.083-2.477 4.224zM85.45 73.883c.773.005 1.55.1 2.315.04.647-.054 1.306-.21 1.91-.44.858-.323 1.29-1.365.922-2.195-.17-.382-.458-.787-.804-.998-2.843-1.75-5.867-1.742-8.928-.73-.46.155-.876.68-1.137 1.133-.266.46-.334 1.042-.453 1.576-.74 3.337-.997 6.76-1.868 10.082-.444 1.692-.49 3.492-.646 5.25-.13 1.446.826 2.422 2.384 2.535.44.03.884.004 1.326.004 3.093.078 6.148-.266 9.182-.835.62-.114.875-.595.968-1.187.277-1.772-.248-2.512-1.98-2.695-.767-.085-1.546-.102-2.32-.132-.768-.03-1.547.005-2.306-.1-.207-.026-.467-.437-.512-.702-.047-.302.11-.644.2-.96.344-1.188.49-1.328 1.522-1.387.77-.044 1.55-.027 2.32-.1.43-.04.865-.16 1.268-.32.658-.254 1.072-1.07 1.035-1.916-.03-.66-.445-1.327-1.14-1.45-1.075-.196-2.176-.24-3.27-.337-.654-.06-.954-.358-.956-1.046-.004-.773-.008-1.55.075-2.32.05-.46.38-.774.894-.767zm-11.858 5.72c-1.26-1.076-2.493-2.18-3.727-3.288-.57-.51-.605-1.058-.155-1.765.61-.958.757-1.003 2.12-.657.216.053.424.128.64.162.95.142 1.89-.41 2.002-1.31.107-.865.094-1.76.006-2.63-.08-.814-.76-1.386-1.546-1.49-.33-.043-.66-.06-1.08-.098l-1.9.144c-1.413.103-2.507.816-3.413 1.837-1.545 1.728-2.163 3.855-2.294 6.088-.055.942.256 1.995 1.1 2.673.682.547 1.43 1.006 2.115 1.555.51.405 1.053.823 1.416 1.353.69.992 1.435 2.03.986 3.357-.244.73-1.84.693-3.7-.036-1.026-.402-2.063-.786-3.096-1.166-.477-.173-.882-.02-1.13.41-1.273 2.234-.903 4.043 1.066 5.53 2.693 2.035 7.152 1.794 9.746.24.864-.52 1.468-1.28 1.888-2.24.745-1.69.768-3.425.663-5.21-.086-1.41-.636-2.54-1.7-3.454zm-40.576 3.8c-.408.075-.846.3-1.15.59-2.108 2.006-4.454 1.61-6.78.604-.65-.282-1.413-.958-1.57-1.594-.618-2.51-.733-5.042 1.004-7.26.495-.634 1.15-1.045 1.973-1.086.88-.038 1.76-.048 2.64-.038 1.274.013 2.077-.655 2.56-1.754.388-.883-.096-2.224-1.008-2.944-1.74-1.368-5.046-1.53-6.877-.333-2.094 1.367-3.648 3.215-4.66 5.486-1.366 3.077-1.6 6.155.06 9.244.843 1.566 1.78 3.04 2.955 4.385 1.18 1.344 2.535 2.116 4.46 1.843 1.297.313 2.516-.17 3.68-.87.852-.514 1.75-.973 2.52-1.588s1.452-1.353 2.076-2.114c.516-.63.436-1.66-.03-2.155-.52-.553-1.21-.53-1.852-.414zm28.53-7.43c-.536-2.044-1.774-3.51-3.392-4.736-.256-.192-.578-.373-.89-.42-2.205-.353-4.4-.556-6.404.778-.643.427-1.3.835-1.952 1.248-.97.62-1.604 1.504-1.98 2.576-.222.62-.404 1.26-.655 1.87-.544 1.33-.38 2.6.273 3.825 1.53 2.87 3.814 4.51 7.19 4.328.33-.017.662-.026.99-.048 5.206-.326 8.13-4.41 6.817-9.422zm-6.02 4.603c-.216-.018-.436-.018-.653-.045-.604-.083-.984-.48-1.027-1.065-.006-.11-.01-.216-.014-.325v-1.053c.053-.587.03-1.263.197-1.886.097-.36.434-.755.77-.947 1.372-.784 2.654-.25 3.02 1.26.15.626.18 1.298.163 1.947-.043 1.785-.614 2.26-2.453 2.115zm-8.506 6.985c-.57-.32-1.19-.563-1.82-.734-.415-.11-.878-.01-1.32-.025-1.716-.063-1.775-.127-1.823-1.953-.06-2.1.005-4.208-.203-6.29-.243-2.404-.66-4.8-1.13-7.17-.25-1.268-.833-1.566-2.158-1.52-1.14.038-1.617.53-1.565 1.626.12 2.535.248 5.075.37 7.61h.098c0 1.768-.056 3.536.015 5.302.084 1.98.3 3.955.424 5.935.107 1.727 1.043 2.403 2.63 2.182 2.065-.288 4.103-.793 6.133-1.288.805-.198 1.263-.843 1.32-1.714.057-.848-.236-1.55-.973-1.96z"/></svg>