<svg xmlns="http://www.w3.org/2000/svg" width="128" height="128" viewBox="0 0 128 128"><path d="M120.41 82.608c-.1-1.82.033-3.648-.04-5.472-.045-1.168-.18-2.35-.428-3.492-1.093-5.088-4.183-8.835-8.21-11.918-1.22-.934-2.61-1.483-4.147-1.587-1.07-.077-2.142-.085-3.213-.13-.504-.023-.827-.414-.665-.83.43-1.095.868-2.19 1.327-3.276 1.634-3.888 2.8-7.864 2.472-12.162-.107-1.387-.02-2.788-.017-4.184.02-3.538-1.114-6.742-2.9-9.73-2.536-4.23-6.48-6.628-11.166-7.452-4.105-.725-8.346-.57-12.477.164-1.984.354-3.883 1.19-5.824 1.8-1.45.46-2.68 1.28-3.933 2.13-3.056 2.08-5.575 4.667-7.727 7.646-.498.69-.864 1.66-1.54 2-1.025.512-1.52-.87-2.405-1.2-1.62-.604-3.248-1.08-4.975-1.17-2.584-.134-5.133.078-7.667.632-5.3 1.158-10.18 3.186-14.606 6.392-2.382 1.728-3.78 4.032-4.78 6.667-.3.78-.477 1.657-.49 2.492-.043 2.996-.203 6.01.625 8.95.23.823.437 1.656.63 2.492.178.798-.06 1.18-.934 1.312-4.617.693-8.23 3.243-10.963 6.763-2.887 3.723-4.964 7.983-6.065 12.653-.622 2.645-.81 5.255-.26 7.952.55 2.72 1.713 5.04 3.79 6.876 1.866 1.652 3.988 2.883 6.32 3.763 3.27 1.235 6.66 1.55 10.12 1.404 2.463-.105 4.927-.306 7.348.427.3.093.637.073.957.08 2.144.037 4.29-.004 6.43.124 1.647.1 2.882-.65 4.09-1.573.387-.3.503-1.006.306-1.473-.482-1.146-1.375-1.883-2.424-2.48-.506-.29-.744-.732-.66-1.336.06-.42.11-.852.1-1.28-.02-.82-.426-1.412-.97-1.476-.75-.088-1.213.366-1.56.917-.34.543-.613 1.13-.89 1.71-.368.764-.974 1.108-1.8 1.105-.428-.002-.865.05-1.28-.02-.31-.05-.556-.278-.374-.668.355-.78.734-1.55 1.067-2.338.165-.39.277-.807.366-1.22.095-.447-.353-1.136-.795-1.278-.47-.155-.873.043-1.112.403-.768 1.16-1.632 2.287-2.187 3.548-.578 1.32-1.437 1.756-2.77 1.606-.422-.05-.856.014-1.288.01-1.352-.015-1.605-.363-1.043-1.468.58-1.147 1.205-2.272 1.792-3.418.34-.668.712-1.333.935-2.044.154-.488.16-1.06.092-1.578-.112-.9-1.368-1.43-1.975-.82-1.05 1.065-2.12 2.136-2.998 3.34-.94 1.296-1.675 2.74-2.485 4.13-.608 1.05-.816 1.13-1.696.587-1.934-1.207-1.963-1.27-.784-3.2.446-.733.983-1.406 1.445-2.125.81-1.262 1.62-2.524 2.384-3.812.382-.648.678-1.36.14-2.095-.396-.545-1.214-.467-2.322.234-1.476.932-2.56 2.27-3.666 3.582-.896 1.067-1.777 2.144-2.688 3.194-.1.112-.45.17-.55.09-.23-.192-.492-.467-.532-.736-.036-.283.137-.62.28-.896.99-1.9 1.927-3.834 3.014-5.675 1.032-1.75 2.244-3.387 3.33-5.104.123-.195.032-.67-.136-.866-.164-.194-.62-.352-.827-.26-.58.26-1.17.58-1.62 1.016-1.085 1.035-2.126 2.12-3.122 3.24-.71.8-1.298 1.707-1.984 2.528-.243.29-.613.472-.93.7-.077-.304-.225-.61-.225-.916.01-3.92.762-7.565 2.99-10.962 2.084-3.17 4.655-5.568 8.112-7.03.78-.33 1.63-.507 2.464-.676.65-.132 1.32-.02 1.757.54.616.79 1.41 1.3 2.325 1.643.283.107.662.224.9.117.882-.386 1.77-.79 2.56-1.326.918-.626 1.15-2.202.506-3.203-.2-.313-.66-.573-1.04-.63-.386-.054-.812.186-1.228.27-.365.07-.82-.49-.658-.82.235-.475.48-.953.78-1.386.673-.968 1.43-1.883 2.068-2.873.664-1.03.235-1.98-1.042-2.474-.096-.036-.215-.01-.316-.043-.625-.208-.78-.462-.435-.76.802-.703 1.61-1.405 2.464-2.042.77-.572 1.63-1.023 2.41-1.593.81-.597.708-1.973-.18-2.456-.855-.46-1.743-.863-2.752-.48-1 .38-1.995.766-3.003 1.118-.132.046-.338-.073-.486-.158-.04-.02-.02-.213.02-.302 1.35-2.807 3.742-4.408 6.57-5.298 3.88-1.218 7.807-2.343 11.89-2.622 1.928-.132 3.834.198 5.653.93 1.003.403 1.574 1.024 1.515 2.176-.05.96-.01 1.93.018 2.895.032 1.104.395 2.095 1.077 2.965.498.64 1.44.667 1.93.048 1.023-1.28 1.75-2.694 1.99-4.33.41-2.787 1.506-5.356 2.538-7.937 1.036-2.592 2.92-4.5 5.297-5.854 1.57-.896 3.302-1.515 4.946-2.288 1.865-.878 3.872-1.65 5.862-1.46 2.25.214 4.494.14 6.73.323 4.142.335 7.35 2.116 9.017 6.152.742 1.8 1.354 3.604 1.21 5.597-.06.853-.043 1.717-.002 2.574.15 3.276-.517 6.387-1.807 9.386-.974 2.26-1.874 4.558-2.903 6.795-.525 1.14-.544 2.277-.416 3.454.08.757.713 1.408 1.48 1.472 1.066.085 2.14.107 3.21.117 1.397.014 2.79-.025 4.187-.014 1.47.01 2.817.586 3.753 1.604 1.588 1.732 3.074 3.608 3.813 5.9.593 1.842.845 3.674.392 5.67-.84 3.698-2.23 7.146-4.114 10.403-1.838 3.184-4.775 5.148-7.92 6.845-.368.2-.793.363-1.204.413-2.018.248-4.02.715-6.074.523-.29-.028-.66-.127-.482-.575.196-.5.467-.97.645-1.472.176-.5.31-1.02.41-1.54.11-.546-.21-1.29-.62-1.33-.39-.04-.924-.01-1.185.224-.788.712-1.492 1.523-2.202 2.323-.424.48-.755 1.043-1.182 1.52-.57.643-1.32.64-2.07.404-.134-.04-.322-.38-.275-.453.508-.816 1.06-1.604 1.6-2.402.476-.708.992-1.397 1.415-2.135.448-.778.316-1.45-.285-2.032-.61-.594-1.412-.832-2.048-.453-.725.435-1.445.928-2.048 1.52-1.774 1.733-3.376 3.647-4.443 5.878-.613 1.284-1.437 2.098-2.714 2.494-1.43.443-2.28 1.536-3.152 2.618-.372.465-.273.954.17 1.413.87.893 1.86 1.327 3.157 1.272 2.142-.09 4.29-.02 6.435-.02v-.142c1.61 0 3.22-.027 4.83.008 1.613.036 3.183-.088 4.78-.435 1.87-.405 3.775-.753 5.73-.627.957.062 1.926-.08 2.89-.107 1.44-.038 2.747-.395 3.86-1.36.916-.792 1.96-1.204 3.208-1.286.942-.065 2.016-.246 2.76-.76 2.116-1.462 4.177-3.092 5.342-5.46 1.518-3.097 2.603-6.33 2.403-9.883zm-44.213 10.94c2.315-2.804 4.64-5.605 6.94-8.422.334-.41.607-.88.833-1.36.47-1.013.155-1.967-.858-2.41-1.877-.818-3.817-1.407-5.902-1.37-1.18.02-2.365.043-3.537-.053-.33-.026-.847-.427-.9-.72-.287-1.685-.534-3.385-.646-5.088-.107-1.603-.02-3.22-.02-4.828h-.06c0-1.93-.018-3.86.003-5.792.017-1.536-.437-2.965-.93-4.38-.122-.354-.492-.752-.838-.88-1.195-.434-2.183-.055-2.72 1.027-.326.66-.65 1.378-.736 2.1-.224 1.913-.323 3.84-.467 5.763-.34 4.62.38 9.205.465 13.81.043 2.284 1.23 3.386 3.642 3.564.533.04 1.075.02 1.604.097 4.257.605 4.52 1.242 1.82 4.706-1.9 2.443-3.637 5.013-6.1 7.01-1.22.99-2.06 2.44-3.086 3.67-.42.51-1.26.61-1.73.187-.636-.573-1.27-1.156-1.827-1.804-3.213-3.74-6.402-7.496-9.592-11.258-.275-.325-.51-.693-.702-1.072-.496-.966.114-2.055 1.184-2.07 1.824-.027 3.648-.052 5.47.017 1.216.047 2.022-.52 2.74-1.39.645-.785.967-1.692.94-2.677-.043-1.498-.032-3.025-.325-4.483-.302-1.493-.36-2.976-.398-4.475-.032-1.286.037-2.58-.085-3.86-.257-2.66-.54-5.327-1.487-7.857-.1-.27-.388-.595-.644-.65-.225-.047-.62.18-.774.4-.864 1.253-1.42 2.603-1.426 4.186-.016 3.54-.09 7.083-.207 10.62-.043 1.277-.258 2.55-.42 3.82-.093.704-.48 1.167-1.217 1.298-1.682.302-3.354.685-5.045.91-4.185.558-3.044.885-3.99 3.89-.27.86-.18 1.7.304 2.475 1.528 2.447 2.795 5.09 5.316 6.766.433.288.788.715 1.15 1.106 1.158 1.265 2.313 2.533 3.446 3.818.637.723 1.385 1.402 1.813 2.24 1.015 1.98 2.622 3.296 4.33 4.645 1.983 1.573 2.95 1.14 4.527-.102.42-.33.817-.696 1.184-1.087 2.623-2.803 4.734-6.07 7.705-8.57.49-.41.845-.97 1.255-1.467z"/></svg>