<svg xmlns="http://www.w3.org/2000/svg" width="128" height="128" viewBox="0 0 128 128"><path d="M120.41 84.262c-.082-1.928.03-3.866-.036-5.795-.043-1.17-.173-2.352-.42-3.495-1.092-5.09-4.172-8.843-8.197-11.934-1.408-1.083-3.026-1.565-4.784-1.67-1.054-.063-2.1-.186-3.157-.283-.245-1.26.632-2.18.984-3.26.128-.406.34-.787.5-1.185 1.456-3.723 2.533-7.51 2.21-11.58-.108-1.388-.024-2.79-.015-4.185.027-3.54-1.11-6.746-2.894-9.733-2.53-4.235-6.475-6.635-11.16-7.462-4.11-.727-8.357-.605-12.482.168-2.293.43-4.494 1.39-6.717 2.163-.7.245-1.38.6-1.992 1.02-3.198 2.197-6.202 4.597-8.356 7.908-.58.89-1.12 2.023-1.977 2.466-1.073.555-1.66-1.024-2.69-1.317-1.545-.44-3.056-.975-4.682-1.043-2.583-.107-5.134.085-7.668.64-5.3 1.156-10.184 3.186-14.605 6.397-2.387 1.73-3.784 4.033-4.78 6.67-.297.785-.47 1.66-.486 2.497-.042 2.888-.202 5.794.588 8.63.345 1.236.676 2.48 1.024 3.716.235.83.027 1.1-.923 1.135-.645.026-1.313-.085-1.926.055-1.244.284-2.544.52-3.66 1.092-2.21 1.135-4.22 2.71-5.658 4.695-2.83 3.917-5.074 8.175-6.188 12.96-.617 2.65-.746 5.263-.22 7.952.517 2.626 1.71 4.825 3.645 6.615 1.91 1.767 4.14 3.036 6.588 3.928 2.86 1.045 5.803 1.44 8.84 1.387 2.99-.053 5.994-.395 8.957.43.81.223 1.712.116 2.568.163.75.04 1.508.017 2.248.13 3.845.59 7.714.264 11.57.314.722.01 1.5-.2 2.16-.508 1.55-.725 2.53-1.835 2.503-3.737-.08-5.58-.04-11.16-.11-16.74-.01-.83-.175-1.748-.56-2.47-.8-1.512-1.737-2.892-3.8-2.966-1.15-.044-2.283-.505-3.41-.817-.14-.038-.315-.366-.275-.5.085-.297.27-.577.46-.83 3.077-4.122 6.158-8.242 9.252-12.352 1.3-1.732 1.31-1.716 2.944.06.364.394.758.77 1.19 1.08 2.134 1.507 3.79 3.47 5.34 5.535 1.355 1.797 2.554 3.71 4.196 5.283.294.287.482.703.676 1.082.36.7-.026 1.515-.83 1.78-.304.102-.658.297-.92.217-1.725-.524-3.406.08-5.104.145-2.037.075-2.603.757-2.496 2.808.017.316.004.672.14.94.47.934.323 1.846.12 2.817-.194.936-.287 1.91-.3 2.87-.056 4.185-.073 8.37-.098 12.556 0 .427-.015.866.064 1.283.26 1.44 1.45 2.442 2.897 2.46.752.007 1.504-.01 2.254-.05 3.96-.218 7.92-.445 11.882-.67l.005.093c2.575 0 5.152.03 7.727-.017 1.06-.02 2.13-.144 3.175-.328 2.22-.39 4.42-.836 6.69-.724.747.038 1.5-.074 2.25-.08 1.663-.017 3.17-.413 4.45-1.55.73-.645 1.59-1.003 2.623-1.07 3.973-.266 6.39-2.975 8.24-5.986 1.792-2.92 2.768-6.255 2.617-9.81zm-7.643-6.663c-.3.985-.09 2.125-.09 3.2-.005 3.68-1.413 6.907-3.367 9.9-1.07 1.635-2.578 2.85-4.523 3.45-1.634.507-3.247 1.09-4.858 1.666-2.15.774-4.365 1.09-6.64.928-.607-.043-1.43.207-1.71-.494-.16-.4.19-.996.284-1.508.056-.314.085-.636.085-.955.005-.626-.468-1.25-1.07-1.458-.584-.203-1.27.124-1.53.814-.3.8-.515 1.63-.766 2.446-.203.66-.576 1.193-1.314 1.217-1.364.043-2.703.587-4.09.23-.526-1.755 1.085-2.612 1.663-3.9.434-.97 1.06-1.856 1.59-2.788.358-.64.18-1.236-.188-1.81-.397-.607-1.083-.817-1.664-.473-1.8 1.07-3.087 2.645-4.16 4.395-.73 1.188-1.344 2.443-2.027 3.66-.433.765-1.04.955-1.904.634-.716-.264-1.046-.803-.795-1.465.376-.997.816-1.972 1.237-2.954.42-.987.908-1.948 1.24-2.96.106-.32-.09-.852-.327-1.145-.3-.364-.752-.26-1.137.027-1.222.915-2.12 2.112-2.96 3.365-.413.62-.866 1.216-1.344 1.786-.094.11-.38.082-.58.07-.055-.003-.11-.17-.154-.264-.046-.096-.11-.206-.098-.3.446-2.998-.395-5.933-.46-8.91-.014-.564.316-.75.703-.908 1.244-.497 2.555-.333 3.82-.194 1.095.123 2.134 0 3.182-.2.868-.165 1.585-.625 2.168-1.292.768-.88 1.09-1.845.53-2.955-.434-.862-.828-1.754-1.35-2.56-1.75-2.695-3.61-5.31-5.722-7.75-1.774-2.05-3.888-3.688-5.97-5.36-1.26-1.014-2.47-2.017-3.474-3.304-1.097-1.4-3.724-1.86-5.29-1.05-.274.14-.503.393-.71.63-3.97 4.51-7.903 9.045-11.903 13.52-1.067 1.194-2.328 2.214-3.493 3.32-.948.9-1.755 1.877-1.932 3.243-.164 1.24.248 2.15 1.32 2.667 1.075.518 2.198.833 3.412.812 1.608-.028 3.22-.03 4.827-.01 1.49.018 1.863.372 2.04 1.876.07.64.11 1.284.11 1.928.02 1.394.01 2.788.01 4.183h.053c-.065 1.93-.118 3.86-.198 5.79-.017.446-.203.9-.672.973-2 .315-4.01.58-6.02.846-.316.042-.643-.008-.963-.038-.573-.053-.996-.273-1.12-.92-.122-.623-.248-1.263-.5-1.84-.26-.6-.737-1.043-1.46-1.11-.824-.075-1.516.184-1.908.913-.35.655-.644 1.358-.85 2.073-.32 1.115-1.065 1.535-2.148 1.537-.11 0-.213.01-.323.02-1.127.067-1.427-.268-1.082-1.254.284-.807.672-1.585.885-2.41.184-.715.262-1.476.242-2.213-.032-1.183-1.387-1.82-2.363-1.11-.51.37-.96.85-1.35 1.35-.997 1.28-1.622 2.762-2.215 4.257-.047.12-.264.173-.4.256-.06-.2-.22-.435-.163-.593.55-1.504 1.14-2.993 1.707-4.49.304-.8.67-1.586.853-2.412.107-.486-.023-1.06-.174-1.557-.214-.69-1.345-1.1-1.878-.662-.656.538-1.346 1.11-1.788 1.813-1.143 1.81-2.165 3.694-3.22 5.555-.393.688-.67.843-1.244.627-1.113-.42-1.512-.826-1.384-1.493.096-.524.222-1.05.42-1.543.798-1.988 1.637-3.96 2.443-5.946.282-.692.536-1.4.763-2.115.147-.45-.223-1.114-.666-1.34-.452-.23-.832-.06-1.173.224-1.584 1.317-2.906 2.847-3.805 4.724-.417.867-.865 1.725-1.32 2.573-.04.077-.276.075-.413.062-.043-.005-.096-.188-.087-.283.043-.424.035-.875.18-1.264 1.063-2.812 2.16-5.608 4.276-7.853.358-.378.634-.858.86-1.332.406-.832-.244-2.088-1.157-2.28-1.356-.285-2.57-.052-3.504 1.044-.485.57-.902 1.197-1.365 1.79-.057.075-.232.157-.276.126-.15-.1-.363-.242-.377-.387-.37-3.194.815-5.933 2.81-8.273 1.75-2.048 3.894-3.695 6.47-4.648.797-.295 1.634-.5 2.467-.66.654-.128 1.252.062 1.752.57.445.452.93.885 1.455 1.237 1.145.766 2.05.65 3.148-.335.15-.133.382-.388.34-.492-.594-1.46.708-2.1 1.28-3.05.276-.46.603-.926.71-1.43.074-.355-.078-.885-.332-1.146-.245-.256-.782-.435-1.118-.352-.494.123-.912.523-1.38.776-.148.08-.347.067-.522.098.02-.288-.064-.646.07-.858.352-.533.81-1 1.213-1.496.404-.498.88-.96 1.183-1.515.238-.44.39-1 .362-1.493-.032-.62-.608-.81-1.157-.907-.31-.053-.41-.188-.235-.416.256-.336.495-.704.818-.97.993-.815 2.02-1.594 3.04-2.377.34-.26.72-.47 1.05-.74.786-.634 1.05-1.38.713-1.92-.5-.794-1.38-1.233-2.184-1.015-.513.14-1.036.318-1.484.597-.992.63-1.93 1.344-2.912 1.995-.315.21-.688.738-1.044.244-.15-.207.048-.807.258-1.114 1.45-2.13 3.166-4.046 5.067-5.78 1.142-1.04 2.61-1.636 4.1-1.686 2.912-.1 5.698-.964 8.58-1.18 2.177-.162 4.265.185 6.262 1.06.738.323 1.19.87 1.173 1.74-.018.966.016 1.934.01 2.898-.01 1.11.332 2.112.912 3.04.523.838 1.563.95 2.138.218.33-.42.544-.96.94-1.3 1.055-.923 1.436-2.164 1.538-3.436.34-4.26 2.656-7.622 4.85-11.04.78-1.214 2.106-1.824 3.318-2.47 1.51-.804 3.113-1.428 4.684-2.11.39-.168.808-.347 1.222-.376 3.827-.274 7.63-1.253 11.484-.74 3.584.48 6.496 2.134 8.085 5.58.908 1.96 1.614 3.975 1.44 6.194-.044.533-.04 1.077 0 1.61.31 4.29-.8 8.278-2.54 12.14-.747 1.664-1.403 3.364-2.195 5.005-.547 1.133-.53 2.283-.385 3.456.112.885.963 1.51 1.856 1.387.527-.073 1.04-.306 1.567-.33.955-.047 1.917-.04 2.867.037.955.08 1.906.245 2.848.422 1.61.302 2.987.915 4.035 2.33 1.224 1.654 2.287 3.36 3.04 5.273.597 1.5 1.093 2.936.587 4.637zm-30.14-44.42c-.6-.124-1.29-.148-1.874.024-3.847 1.13-6.78 3.522-9.01 6.798-.405.597-.617 1.355-.806 2.07-.216.804.245 1.618 1.054 2.15.64.42 1.26.237 1.8-.125.614-.41 1.267-.838 1.717-1.404 1.75-2.182 3.912-3.93 5.91-5.853.613-.59 1.2-1.21 1.748-1.863.184-.22.203-.582.333-.995-.28-.273-.533-.734-.87-.803z"/></svg>