<svg xmlns="http://www.w3.org/2000/svg" width="128" height="128" viewBox="0 0 128 128"><path d="M120.066 44.505c-.117-1.582-.475-3.034-1.3-4.38-.94-1.53-1.953-3.07-3.482-3.997-1.628-.986-2.066-2.077-1.934-4.02.33-4.884-.966-9.442-4.145-13.266-3.05-3.67-6.816-6.19-11.763-6.59-2.748-.224-5.427-.038-8.046.832-.882.292-1.632.224-2.142-.66-.06-.105-.122-.206-.195-.3-3.57-4.63-8.253-7.003-14.125-6.944-1.9.02-3.808-.043-5.7.117-4.797.414-8.932 2.276-12.127 5.97-.927 1.067-1.76 2.214-2.636 3.325-1.616.046-2.86-1.015-4.318-1.463-3.023-.93-6.094-.866-9.18-.744-4.61.19-8.1 2.41-10.75 6.07-1.27 1.75-2.028 3.73-2.598 5.812-.59 2.17-.23 2.324-2.776 2.253-1.067-.027-2.14.01-3.203.106-2.753.238-5.004 1.365-6.5 3.787-.497.81-1.025 1.6-1.567 2.376-1.378 1.98-2.23 4.18-2.797 6.5-.824 3.37-.974 6.8-.868 10.25.096 3.16 1.393 5.7 3.744 7.776 2.527 2.234 5.31 3.964 8.65 4.71 1.04.232 2.046.64 3.097.785 3.183.446 6.392.908 9.222-1.275.426-.326.833-.344 1.24.077 3.082 3.21 6.96 4.333 11.287 4.314 4.395-.018 8.79-.018 13.184-.006 1.068.003 2.177-.108 3.19.137 2.356.565 4.717.43 7.09.422 1.54-.008 3.087-.004 4.63.02 3.68.06 7.36.15 11.04.176 1.185.013 2.403.013 3.55-.233 2.94-.62 5.918-.365 8.87-.39 1.9 0 3.8-.027 5.7.008 2.07.036 3.993-.524 5.813-1.442 7.376-3.726 12.373-12.812 11.835-20.115zm-5.1 5.132c-.505 1.198-1.116 2.365-1.796 3.472-3.134 5.113-8.16 6.94-13.722 7.806-.35.05-.715.064-1.067.045-7.603-.455-15.2.29-22.8.154-.474-.006-.95 0-1.425.016-.875.038-1.643-.17-2.208-.895-.22-.28-.448-.565-.715-.797-.607-.523-1.148-1.317-2.132-.768-.712.395-.87 1.024-.768 1.813.026.176-.405.56-.66.595-.702.093-1.423.085-2.132.056-2.694-.1-2.842.37-4.66-2.404-.26-.395-.566-.783-.934-1.06-.242-.184-.747-.325-.94-.198-.358.237-.774.668-.804 1.045-.045.557.29 1.13.337 1.71.024.287-.16.677-.38.87-.386.34-.937.36-1.293-.01-.65-.68-1.267-1.406-1.795-2.18-.464-.684-.72-1.507-1.203-2.17-.234-.316-.83-.608-1.174-.533-.37.085-.768.568-.917.962-.157.408-.11.943-.004 1.387.165.688.464 1.344.688 2.02.26.787.187.958-.49.967-2.732.02-5.47.107-8.196-.006-1.775-.072-3.515-.538-5.123-1.36-1.056-.543-2.11-1.092-3.164-1.636-.61-.31-1.14-1.062-1.884-.698-.48.235-.742.877-1.165 1.274-.223.205-.62.427-.876.37-1.845-.423-3.67-.918-5.502-1.383-.657-.163-.906-.59-.75-1.33.145-.692.35-1.375.455-2.07.083-.558-.412-1.298-.95-1.326-.417-.02-.865.208-1.264.397-.19.09-.332.337-.447.54-.237.413-.424.85-.656 1.264-.627 1.14-.946 1.19-2.22.462-.48-.274-.7-.644-.492-1.15.317-.767.698-1.508 1.037-2.265.242-.54.565-1.072.655-1.64.064-.4-.078-.966-.345-1.262-.33-.366-.917-.283-1.28.064-.595.57-1.124 1.206-1.667 1.832-.384.44-.72.932-1.13 1.344-.113.114-.472.107-.63.008-.175-.103-.356-.384-.34-.576.033-.46.125-.93.287-1.36.987-2.57 2.428-4.88 3.973-7.142.128-.194.037-.725-.143-.89-.195-.18-.693-.27-.923-.146-.888.482-1.73 1.052-2.582 1.593 0 .053-.01.102-.01.157-.037.017-.09.02-.146.027-.06.13-.117.26-.18.39-.274-.39-.027-.377.18-.392l.055-.12.1-.064c-.005-1.78 1.286-2.86 2.31-4.07.762-.907 1.63-1.72 2.375-2.635.157-.193.088-.726-.07-.978-.16-.253-.55-.412-.867-.495-.192-.05-.448.114-.672.192-.562.19-1.116.41-1.685.57-.163.044-.387-.066-.56-.147-.05-.027-.067-.234-.027-.32.352-.748.723-1.49 1.075-2.236.754-1.605 1.915-2.637 3.728-2.974 1.918-.357 3.787-.51 5.495.63.986.657 1.89 1.428 2.828 2.16.645.495 1.387.237 1.49-.618.08-.683.107-1.43-.096-2.07-.208-.653-.722-1.215-1.106-1.812-.54-.846-.683-1.768-.526-2.737.346-2.14 1.09-4.128 2.366-5.894 1.392-1.93 3.337-3.15 5.635-3.425 3.298-.395 6.613-.427 9.87.624 2.68.864 4.968 2.22 6.786 4.373.303.356.63.71.995 1 .14.113.465.128.633.04.18-.092.344-.336.39-.544.077-.34.12-.72.056-1.06-.11-.576-.188-1.218-.497-1.696-1.348-2.06-.288-3.502 1.077-4.978 1.572-1.702 3.44-2.918 5.63-3.613 4.138-1.317 8.333-1.776 12.62-.734 1.525.37 2.93.997 4.187 1.902 2.237 1.612 3.64 3.717 3.653 6.582.005 1.188.002 2.38.053 3.563.026.587.112 1.18.273 1.74.31 1.066 1.55 1.633 2.58 1.178 1.537-.675 2.463-1.867 2.604-3.544.112-1.296.077-2.607.094-3.913.008-.683.3-1.168.992-1.216 4.17-.292 8.32-.44 11.895 2.333 3.068 2.377 4.958 5.392 5.08 9.36.038 1.19.12 2.384.02 3.563-.356 4.326-2.362 7.635-6.217 9.75-1.138.628-2.315 1.202-3.392 1.927-.877.59-.76 1.786.133 2.392 2.09 1.424 4.32 1.13 6.47.3 1.076-.415 2.058-1.18 2.943-1.945 1.822-1.56 3.288-3.414 4.294-5.622.276-.608.94-.606 1.45-.124 3.177 3.002 3.58 6.533 1.95 10.414zm-17.43 23.05c-1.584-.445-3.26-.8-4.892-.796-3.026.013-5.934.777-8.15 2.967-1.507 1.49-2.823 3.206-4.037 4.95-.585.83-.917 1.947-1.064 2.978-.403 2.856-.282 5.713.94 8.38 1.907 4.155 5.435 8.07 10.56 7.724 5.433-.04 9.38-2.414 12.59-6.205.445-.525.71-1.22.987-1.87 1.74-4.066 1.488-8.13-.31-12.07-1.324-2.9-3.444-5.154-6.623-6.052zm3.37 16.694c-1.614 3.68-5.78 6.298-9.73 5.79-.23-.03-.512-.052-.66-.195-.24-.226-.518-.542-.53-.828-.01-.296.233-.642.448-.893.128-.15.416-.194.64-.216.47-.048.954-.002 1.42-.073 3.666-.57 3.995-3.64 2.804-5.832-.168-.31-.395-.592-.584-.892-.352-.554-1.15-1.034-.448-1.802.512-.565 1.1-.082 1.627.08.563.17 1.092.538 1.66.593.39.035.9-.234 1.21-.522.39-.373.234-.932-.076-1.284-.465-.517-1.024-.95-1.57-1.385-.363-.294-.954-.457-1.1-.816-.138-.352.156-.88.257-1.33.025-.113.05-.23.07-.345.08-.524-.11-.97-.58-1.16-.292-.12-.73-.113-1.012.02-.414.196-.828.498-1.1.864-.624.848-1.382 1.218-2.442 1.104-.704-.072-1.43-.043-2.133.04-1.764.205-2.496 1.97-1.438 3.453.342.483.777.897 1.176 1.334.437.47.68 1.022.36 1.608-.372.687-.93.374-1.524.227-1.547-.377-2.133.007-2.573 1.546-.076.256-.074.537-.08.815.034.048.062.096.1.145 0 .058.015.105.017.16.882.323 1.37 1.06 1.835 1.82.05.075.02.305-.023.318-.166.06-.41.142-.52.064-.76-.542-1.25-1.25-1.29-2.202-.046-.017-.08-.045-.126-.06.006-.08.006-.163.008-.245-1.378-1.878-1.562-3.978-1.018-6.185.53-2.157 1.828-3.904 3.463-5.274 1.694-1.417 3.826-1.89 6.008-1.342 1.71.433 3.458.89 4.804 2.18 2.734 2.62 4.226 7.124 2.647 10.72zm-61.26-18.16c-3.64-1.615-7.388-1.822-10.894.404-1.482.942-2.945 2.066-4.068 3.4-2.385 2.835-3.593 6.1-2.584 9.888.12.453.174.94.176 1.406.015 2.667 1.267 4.74 3.04 6.607 2.117 2.23 4.742 3.66 7.693 4.174 4.484.78 8.586.53 12.276-5.003 1.757-2.632 2.652-5.533 2.677-8.693.022-2.906-.207-4.048-1.514-6.097-1.697-2.652-3.926-4.816-6.803-6.088zm3.38 17.848c-.655 1.12-1.346 2.274-2.658 2.767-.253.096-.762.04-.877-.133-.24-.36-.525-.957-.38-1.25.307-.615.935-1.06 1.334-1.642 1.75-2.552.928-4.94-1.995-5.817-.79-.24-1.617-.356-2.414-.573-.203-.053-.53-.31-.51-.42.057-.327.18-.754.423-.912.692-.434 1.512-.687 2.177-1.16.314-.22.512-.77.542-1.183.03-.48-.767-1.18-1.194-1.13-.58.065-1.168.163-1.722.343-1.053.344-1.85.205-2.288-.932-.08-.208-.29-.367-.46-.53-.292-.283-.943-.192-1.25.163-.488.56-.823 1.182-.533 1.937.347.894.154 1.585-.576 2.204-.538.46-1.04.98-1.472 1.54-.28.358-.463.825-.576 1.275-.297 1.15.386 2.176 1.532 2.323.705.09 1.423.07 2.13.13.64.058 1.15.36 1.31 1.005.132.53-.18.875-.686 1.047-.11.036-.22.092-.31.162-1.05.853-1.146 1.14-.758 2.424.085.288.216.56.334.84.05.007.092.022.14.027.022.04.046.064.067.1.767-.007 1.54-.034 2.306.014.256.017.495.268.74.41-.317.097-.65.3-.95.26-.737-.1-1.612.12-2.098-.686l-.15.003-.055-.128c-2.536-.352-4.07-2.016-5.147-4.162-.47-.94-.744-2.005-.943-3.042-.624-3.27.965-6.467 3.907-8.044.21-.112.432-.202.635-.324 3.375-2.02 6.645-1.202 9.75.557 3.898 2.21 5.437 7.837 2.676 12.532zm29.747 10.816c-2.377-3.074-5.362-4.975-9.98-4.704.09 0-.39-.05-.856.005-3.11.392-6.01 1.28-8.288 3.614-2.23 2.285-3.1 5.265-4.18 8.132-.164.424-.136.936-.13 1.408.054 5.57 2.61 9.718 7.273 12.616 3.164 1.97 6.517 1.963 9.877.58 3.035-1.245 5.396-3.31 7.26-6.047 1.775-2.598 2.433-5.395 1.916-8.43-.44-2.58-1.26-5.063-2.894-7.18zm-13.78 16.663c-.492-.192-.96-.437-1.39-.642.045-.275.05-.424.075-.427.328-.046.693-.175.98-.08.268.092.492.4.643.666.05.08-.27.497-.31.482zm3.423-4.954c-.032-.18.09-.527.224-.576.303-.11.657-.093.99-.093.095 0 .193.128.46.323-.448.256-.805.504-1.2.65-.113.047-.448-.167-.474-.304zm8.867.808c-1.33 3.098-3.568 5.28-7.004 5.986-.556.112-.92-.15-1.087-.643-.188-.557-.267-1.152-.464-1.71-.236-.675-.036-1.106.554-1.466.8-.494 1.653-.947 2.34-1.576 1.557-1.422 1.102-3.423-.903-4.19-.436-.17-.925-.208-1.36-.383-.45-.178-.827-.49-.72-1.06.113-.585.247-1.268.903-1.398.92-.184 1.896-.108 2.814-.306.365-.08.848-.565.888-.913.043-.35-.306-.91-.644-1.11-.48-.285-1.103-.353-1.676-.46-.576-.11-1.176-.096-1.74-.245-.625-.17-.963-1.303-1.744-.78-.54.362-.763 1.156-1.206 1.692-.373.444-.856.796-1.298 1.18-.622.543-1.312 1.025-1.856 1.633-.9 1.002-.655 2.247.508 3.01.195.128.41.25.632.32.776.233 1.23.676 1.067 1.544-.143.757-.754.747-1.344.85-.444.077-.89.258-1.288.48-1.237.69-1.337.72-1.707-.27-.495-1.32-.9-2.673-1.178-3.51.145-4.706 2.51-7.987 6.272-9.148.66-.2 1.397-.3 2.085-.248 1.06.075 2.128.238 3.152.507.784.208 1.632.497 2.242 1.006 2.325 1.94 4.216 4.245 4.427 7.405.08 1.254-.17 2.648-.67 3.805z"/></svg>