<svg xmlns="http://www.w3.org/2000/svg" width="128" height="128" viewBox="0 0 128 128"><path d="M105.934 84.467c-.418-3.566-.21-7.19-.913-10.76-.425-2.168-.37-4.427-.63-6.635-.235-2-.64-3.98-1.59-5.79-1.19-2.275-2.85-3.883-5.59-4.146-3.18-.303-6.357-.494-9.536-.273-1.798.125-2.176-.245-2.238-2.126-.03-.954-.24-1.98.032-2.846.416-1.32.15-2.5-.135-3.742-.213-.924-.46-1.86-.512-2.8-.095-1.714-.9-3.037-2.076-4.166-2.574-2.467-5.454-4.38-9.116-4.802-.418-.048-.828-.17-1.237-.277-2.99-.778-6.053-1.092-9.11-1.364-1.99-.177-4.016-.208-6.017.27-2.06.485-4.13.997-6.227 1.21-2.214.222-4.435.302-6.61.86-.867.224-1.328-.203-1.042-.91.99-2.46.59-4.56-1.464-6.298-.082-.068-.146-.156-.214-.236-.304-.354-.403-.768-.167-1.166.644-1.094 1.31-2.178 2.003-3.243.348-.53.8-.992 1.16-1.512.363-.518.188-1.295-.328-1.7-1.013-.797-2.176-.763-3.15.232-1.34 1.374-2.396 2.97-3.217 4.708-1.156 2.45-.98 3.776 1.044 5.64.964.89 1.096 1.682.527 2.78-.31.598-.21 1.24.217 1.793.194.25.4.494.602.738-.285.23-.534.55-.857.676-2.17.85-4.37 1.626-6.532 2.494-2.257.91-4.48 1.904-6.73 2.84-1.58.66-2.54 1.883-3.152 3.41-.474 1.18-.852 2.383-.876 3.69-.05 2.653-.178 5.304-.3 8.605.23 3.067.553 6.763.774 10.468.256 4.34.427 8.688.635 13.032.204 4.238.425 8.475.595 12.714.15 3.816.166 7.64.75 11.426.354 2.302.798 4.59 1.148 6.893.176 1.16.848 1.867 1.786 2.48 1.7 1.11 3.55 1.894 5.444 2.574 5.745 2.06 11.744 2.773 17.775 3.19 2.642.183 5.31.11 7.96.048 4.468-.103 8.854-.805 13.174-1.963.81-.216 1.653-.422 2.48-.437 1.657-.03 3.113-.557 4.492-1.42 1.167-.727 2.368-1.4 3.53-2.132.63-.395 1.284-.784 1.81-1.297 1.455-1.42 2.735-3.003 2.968-5.11.235-2.096.305-4.21.46-6.317.03-.45.255-.845.705-.938 1.346-.284 2.696-.676 4.06-.728 2.26-.085 4.39-.728 6.522-1.314 3.104-.852 4.786-3.342 6.342-5.902.206-.34.277-.814.284-1.227.052-3.062.655-6.074.29-9.193zm-78.09-36.035c2.463-2.112 5.328-3.413 8.43-4.277 3.156-.883 6.32-1.757 9.446-2.743 1.728-.544 3.5-.796 5.26-1.163 3.333-.693 6.762-.436 10.084-1.167.718-.157 1.478-.114 2.22-.164 1.834-.067 3.59.306 5.298.925 2.093.757 4.164 1.57 6.26 2.325 1.428.515 2.636 1.334 3.69 2.418 1.59 1.636 1.618 3.573.036 5.355-.31.348-.76.518-1.088.13-1.19-1.405-2.93-1.69-4.52-2.165-2.63-.79-5.338-1.33-8.003-2.014-1.26-.322-2.475-.46-3.76-.082-.697.203-1.47.25-2.204.21-5.58-.294-10.978.765-16.33 2.155-3.177.824-6.365 1.624-9.492 2.61-2.1.66-3.68-.192-5.267-1.28-.407-.28-.397-.782-.06-1.072zm39.302 5.026c-1.216.324-2.45.63-3.694.757-1.253.128-2.528.03-3.794.03v.11c-1.58 0-3.157.027-4.736-.018-.395-.01-.797-.22-1.167-.4-.555-.272-.637-1.333-.1-1.61.645-.332 1.33-.634 2.034-.785.915-.197 1.87-.34 2.803-.32 1.91.045 3.784-.05 5.65-.523.8-.205 1.67-.168 2.512-.173.645 0 1.23.517 1.383 1.105.18.69-.214 1.64-.897 1.824zm-19.384-2.093c-1.024 1.213-2.765 1.205-3.76-.02-.262-.322-.186-1.084.115-1.442.597-.707 1.404-.8 2.272-.843.275.072.58.125.864.235.79.306 1.056 1.42.508 2.07zm30.53 57.76c-4.558 2.787-9.384 4.91-14.754 5.562-.526.064-1.058.096-1.587.096-4.03-.014-8.065.015-12.097-.083-2.116-.05-4.224-.328-6.336-.504-.64-.055-.657-.112-.434-1.045.096-.405.203-.82.217-1.232.02-.617-.78-1.14-1.366-.95-1.146.374-2.01 1.164-2.848 1.97-.818.784-1.71.694-2.656.355-.41-.146-.615-.693-.358-.984.91-1.036 1.84-2.056 2.737-3.1.52-.607.74-1.306.295-2.047-.41-.678-1.403-.98-2.275-.612-.772.326-1.486.795-2.22 1.21-.366.208-.716.447-1.084.65-.04.02-.178-.086-.235-.16-.043-.06-.073-.197-.04-.234.428-.467.865-.928 1.313-1.376 1.5-1.505 3.02-2.988 4.5-4.508.364-.37.69-.81.918-1.274.465-.946-.24-1.984-1.265-2.035-1.135-.058-2.087.378-2.935 1.035-1.007.78-1.94 1.647-2.924 2.456-.14.115-.5.206-.562.136-.19-.213-.43-.552-.377-.77.124-.49.32-1.03.657-1.383 1.032-1.067 2.197-2.005 3.213-3.087.937-1.003 1.766-2.107 2.59-3.205.237-.32.33-.772.412-1.18.15-.74-.775-1.546-1.413-1.2-1.114.603-2.197 1.268-3.25 1.972-.613.407-1.14.946-1.722 1.403-.34.27-.97.066-1.013-.333-.09-.836-.203-1.68-.175-2.517.01-.38.26-.804.518-1.115.676-.817 1.408-1.587 2.13-2.365 1.465-1.576 2.48-3.44 3.365-5.37.257-.556.304-1.226.35-1.848.05-.67-.745-1.195-1.33-.885-.843.44-1.672.912-2.475 1.426-.89.57-1.74 1.21-2.624 1.79-.09.06-.45-.077-.452-.14-.132-1.79-.314-3.588-.296-5.382.005-.55.52-1.13.884-1.636.864-1.212 1.75-2.395 2.063-3.902.193-.935-.336-1.738-1.27-1.772-.42-.017-.843.048-1.266.083-1.29.112-1.426-.005-1.565-1.266-.174-1.58-.383-3.154-.54-4.736-.3-3.054-.58-6.11-.85-9.172-.044-.523.314-.784.766-.635 2.514.832 5.026 1.675 7.54 2.502 2.93.964 5.96 1.38 9.007 1.822 3.044.442 6.14.18 9.163.925 1.303.32 2.76.205 4.123.06 3.05-.325 6.097-.734 9.125-1.233 1.24-.206 2.468-.64 3.627-1.137 2.53-1.085 5.006-2.284 7.51-3.425.382-.173.787-.363 1.192-.392.243-.018.643.21.728.422.146.373.133.824.14 1.242.08 5.307.12 10.613.234 15.92.05 2.33.29 4.654.36 6.986.11 3.605.15 7.214.246 12.224v11.016c0 .32-.017.64.013.956.25 2.762-1.118 4.66-3.34 6.018zm8.04-45.998c.686-1.157 1.58-1.884 3.03-1.892 1.144-.008 2.29-.352 3.43-.338 1.567.02 3.156.18 4.515 1.088.41.274.686.75.988 1.094-.105.27-.14.553-.235.574-.91.203-1.907.198-2.555 1.028-.762.975-1.493 1.086-2.632.414-1.288-.76-2.862-.562-4.326-.623-.523-.02-1.05.053-1.573.043-.683-.015-1.013-.768-.645-1.39zm.82 25.792c-.476-1.19-.776-2.417-.715-3.72.045-.954.01-1.91.01-3.545.1-1.23.278-3.133.403-5.038.047-.73-.02-1.472-.048-2.205-.06-1.59-.15-3.18-.168-4.768-.007-.457.37-.787.82-.794.74-.01 1.484.037 2.21.158.263.043.57.317.7.565.288.56.552 1.152.693 1.763.22.928.418 1.877.47 2.822.244 4.344.475 8.688.625 13.035.066 1.95-2.716 3.44-4.478 2.458-.238-.13-.412-.457-.523-.734zm13.81-11.493c-.143 3.595-.18 7.2-.468 10.787-.184 2.31-.69 4.604-1.157 6.883-.088.42-.658.76-1.045 1.092-.143.123-.392.14-.597.177-3.012.582-6.023 1.165-9.04 1.734-.46.09-.865-.07-.965-.564-.168-.826-.333-1.662-.39-2.5-.11-1.593.196-1.918 1.695-1.96.424-.013.853-.015 1.274.023 1.985.18 3.45-.746 4.723-2.15.747-.827 1.19-1.747 1.16-2.87-.002-.107.018-.213.008-.318-.237-2.64.13-5.075 2.29-6.928.14-.122.16-.382.24-.576.158-.385-.212-.963-.605-.89-.41.08-.797.273-1.207.348-.158.03-.468-.093-.51-.213-.375-1.125-.596-2.266.264-3.287.757-.9 1.402-1.858 1.78-2.987.225-.667-.295-1.216-1.066-1.067-.31.06-.594.267-.898.29-.263.02-.66-.043-.78-.216-.155-.228-.17-.623-.095-.907.075-.287.303-.554.515-.782.572-.624 1.14-1.26 1.77-1.822.588-.523.638-1.643 1.745-1.586.24.69.54 1.368.698 2.078.164.718.193 1.468.276 2.205.163 1.472.33 2.942.478 4.414.053.527.066 1.056.096 1.586-.06.002-.124 0-.187 0zm-49.1-55.7c.426.32.878.603 1.282.944.79.668 1 1.366.6 2.258-.39.867-.856 1.706-1.33 2.532-.37.643-.816 1.242-1.197 1.877-.344.575-.395 1.194-.17 1.836.558 1.603 2.692 2.214 3.88.995 1.716-1.76 3.09-3.772 3.673-6.224.147-.62.27-1.242.397-1.82-.242-1.876-.672-3.613-2.106-4.906-.55-.496-1.167-.913-1.73-1.397-.444-.383-.57-.89-.327-1.432 1.083-2.438 2.336-4.76 4.398-6.552.637-.555 1.27-1.14 1.778-1.808.807-1.067-.004-2.713-1.373-2.84-.41-.038-.858.01-1.245.147-.39.136-.737.41-1.082.658-2.53 1.822-4.427 4.256-6.31 6.688-.506.656-.868 1.486-1.085 2.29-.94 3.52-.333 5.05 1.944 6.754zm16.762 10.02c-.085.393.002.833.064 1.246.064.463.63.88 1.146.923.68.058 1.274-.146 1.68-.68.657-.86 1.054-1.83.997-2.94.03-1.005-.342-1.917-.997-2.602-.87-.907-.59-1.704-.025-2.533.77-1.132 1.605-2.223 2.373-3.36.295-.44.477-.95.093-1.465-.493-.667-1.248-.998-1.912-.738-.583.227-1.204.46-1.677.85-1.59 1.302-2.703 2.984-3.33 4.924-.472 1.464-.42 2.945.816 4.113.662.63.975 1.326.775 2.264z"/></svg>