<svg xmlns="http://www.w3.org/2000/svg" width="128" height="128" viewBox="0 0 128 128"><path d="M108.687 36.463c-.33-1.57-.65-3.147-1.038-4.704-.21-.828-.42-1.7-.858-2.415-1.798-2.92-3.543-5.884-5.83-8.464-.564-.64-1.2-1.236-1.878-1.75-2.485-1.878-5.097-3.574-7.87-4.993-2.704-1.383-5.568-2.17-8.645-2.168-1.384 0-2.768-.263-4.15-.423-4.893-.57-9.667-1.832-14.574-2.387-3.89-.44-7.69-.257-11.467.69-1.763.442-3.485 1.095-5.266 1.408-2.448.43-4.8 1.13-7.077 2.075-5.842 2.43-10.983 5.813-14.73 11.05-.374.524-.787 1.02-1.22 1.496-1.247 1.385-2.252 2.862-2.087 4.864.028.302-.154.62-.212.932-.816 4.178-.68 8.256.753 12.34.866 2.46 2.334 4.29 4.29 5.868.715.576 1.498.78 2.39.757.882-.02 1.66-.324 2.452-.676 2.467-1.09 4.73-2.507 6.964-4 3.92-2.62 7.864-5.198 12.256-7.02 2.417-1.002 3.077-3.574 1.346-5.503-1.327-1.474-1.68-3.186-1.904-4.98-.206-1.66.89-2.912 2.57-3.042 1.172-.09 2.358-.068 3.537-.074 2.146-.01 4.293-.003 6.44-.003v.017c2.79 0 5.58-.018 8.37.01.852.01 1.73.032 2.55.235 1.67.41 2.428 1.743 1.918 3.443-.46 1.536-1.086 3.02-1.646 4.525-.67 1.806-.2 3.465 1.49 4.416 1.58.89 3.23 1.706 4.935 2.314 2.515.9 5.09 1.664 7.68 2.338 1.65.43 3.358.706 5.06.848 1.832.155 3.595.43 5.307 1.148 1.378.58 2.808 1.073 4.253 1.45 2.03.534 4.264-.696 4.837-2.72.52-1.848.843-3.757 1.198-5.65.075-.39-.053-.842-.14-1.253zm-77.85 5.333c-.065.142-.22.24-.36.35-.004.036-.012.072-.015.11-.016 0-.034-.006-.05-.01.03.193.087.387.064.573-.032.3-.14.633-.547.507-.175-.053-.333-.25-.433-.42-.23-.39.075-.577.363-.684.16-.056.364 0 .553.023l-.01-.045c.022-.02.05-.036.074-.055.02-.176.035-.352.07-.525.017-.1.084-.193.13-.287.055.155.202.35.156.463zm72.768-3.012c-.587.243-1.195.46-1.808.62-.288.076-.634.052-.925-.027-1.442-.395-2.888-.787-4.302-1.267-.348-.117-.702-.5-.853-.85-.207-.48-.107-1.106-.36-1.545-.237-.418-.707-.836-1.16-.964-.564-.16-.972.34-1.2.845-.265.576-.417 1.212-.73 1.754-.097.165-.583.17-.876.13-.15-.02-.39-.313-.374-.46.073-.737.282-1.46.317-2.195.02-.392-.14-.832-.333-1.187-.326-.584-1.295-.667-1.647-.146-.54.795-.98 1.654-1.528 2.444-.144.205-.565.382-.785.318-.178-.053-.397-.52-.34-.74.212-.828.538-1.626.802-2.442.064-.2.107-.42.09-.63-.043-.58-.37-1.012-.898-1.217-.42-.162-.883-.075-1.15.315-.66.97-1.265 1.984-1.927 2.955-.17.248-.467.42-.723.6-.06.042-.23.003-.3-.054-.15-.13-.41-.34-.377-.443.22-.708.467-1.414.78-2.086.414-.87.91-1.702 1.334-2.57.14-.28.25-.624.22-.922-.03-.288-.223-.594-.426-.814-.102-.11-.43-.12-.594-.043-.74.344-1.46.737-2.183 1.11.005.035 0 .066.01.1-.03.01-.07.014-.11.017-.064.133-.125.267-.187.4-.303-.395-.032-.38.187-.4l.04-.085.06-.03c-.142-.948.71-1.415 1.083-2.113.452-.85.155-1.735-.768-2.086-2.384-.91-4.774-1.813-7.18-2.68-.8-.288-1.633-.59-2.47-.654-5.217-.405-10.433-1.184-15.666-.616-2.42.264-4.904.352-7.24 1.26-4.5 1.75-5.17 3.583-4.26 7.907.176.835.406 1.66.588 2.496.187.867.072 1.12-.65 1.54-2.403 1.396-4.803 2.794-7.21 4.183-.27.155-.66.436-.848.347-.562-.27-.107-.69-.02-1.056.05-.202.095-.417.09-.63-.007-.77-.863-1.45-1.538-1.186-.74.284-1.45.64-2.173.97l-.04.13c-.033.007-.057.022-.086.034.002.456-.116.853-.525 1.107 0 .058-.003.115-.006.173-.065.015-.134.025-.2.04l-.18.246c.023-.072.03-.18.08-.213.03-.015.066-.02.1-.03l.106-.14c.043-.02.064-.05.1-.075.01-.445-.008-.902.523-1.107 0-.036.002-.07 0-.107l.124-.057c.177-.555.335-1.114.55-1.65.278-.69.692-1.333.89-2.044.086-.324-.113-.828-.35-1.118-.287-.36-.808-.35-1.143-.042-.863.792-1.663 1.653-2.51 2.462-.424.407-.66 1.05-1.344 1.152 0 .03-.002.056.002.085-.027.005-.04.02-.065.026.102.768-.453 1.295-.742 1.92-.042.09-.143.15-.215.226-.07-.19-.224-.395-.198-.57.11-.72.34-1.377 1.154-1.576-.003-.032 0-.06-.01-.092.03-.002.045-.018.07-.02-.063-.82.558-1.28 1.008-1.83 1.292-1.574 2.614-3.125 3.873-4.722.51-.645.36-1.07-.422-1.86-.53-.533-.576-.91-.173-1.306 1.065-1.035 2.47-1.71 3.21-3.096.14-.258.476-.442.758-.584 3.057-1.534 5.99-3.34 9.367-4.17 1.557-.385 3.088-.88 4.62-1.356 4.02-1.254 8.11-2 12.338-1.75 3.635.214 7.273.406 10.9.726 1.265.11 2.492.602 3.745.87 1.043.224 2.108.56 3.15.52 2.986-.115 5.67.875 8.372 1.93 3.725 1.455 6.58 3.942 8.9 7.144 1.51 2.08 3.09 4.114 4.683 6.13.902 1.142 1.227 2.494 1.55 3.84.27 1.116-.35 2.127-1.44 2.576zM78.645 86.23c-.75-4.008-1.78-7.943-3.228-11.75-.604-1.59-1.506-3.073-2.344-4.562-.25-.442-.704-.803-1.138-1.088-.168-.11-.702.01-.798.18-.317.547-.487 1.176-.747 1.757-.657 1.463-1.323 2.923-2.012 4.373-.038.078-.414.09-.414.085-.242-1.1-1.13-2.153-.245-3.343.19-.252.352-.56.403-.866.63-3.554-.467-4.032-3.25-3.624-.882.13-1.492.994-1.253 1.89.187.705.55 1.363.828 2.047.155.38.424.77.416 1.147-.034 1.282-.16 2.562-.28 3.842-.014.145-.204.284-.336.402-.02.016-.21-.094-.245-.178-.288-.688-.576-1.376-.832-2.078-.617-1.71-1.2-3.437-1.83-5.144-.87-2.357-1.2-2.73-3.683-1.007-.848.587-1.6 1.467-2.09 2.376-.812 1.497-1.502 3.086-2.01 4.708-1.518 4.82-2.097 9.82-2.518 14.836-.09 1.06-.293 2.112-.424 3.168-.08.637-.184 1.278-.162 1.914.032 1.064 1.04 2.043 2.07 2.115.848.06 1.932-.7 2.194-1.6.117-.404.15-.84.194-1.264.434-4.046.844-8.094 1.313-12.135.085-.72.41-1.413.638-2.116.03-.093.13-.163.197-.245.077.112.213.22.22.333.022.965.017 1.93.025 2.896.025 3.216.053 6.43.077 9.65h.14c0 2.25-.013 4.502.004 6.752.017 2.144-.136 4.317.156 6.426.324 2.356.312 4.697.35 7.05.012.75 0 1.5.02 2.25.01.32.04.646.117.957.244.997 1.335 1.818 2.38 1.82 1.022.005 1.807-.547 2.1-1.636.247-.926.48-1.886.506-2.835.1-3.633.548-7.25.35-10.9-.085-1.585.237-3.196.41-4.79.066-.59.48-.915 1.056-1.04.63-.14 1.25-.314 1.88-.44.72-.147 1.304.132 1.56.8.267.697.555 1.408.657 2.14.616 4.346 1.31 8.686 1.194 13.1-.028 1.07-.01 2.146.02 3.217.017.424.076.858.196 1.264.25.866 1.315 1.664 2.163 1.677.908.018 1.926-.665 2.273-1.52.448-1.123.5-2.288.412-3.48-.125-1.708-.245-3.414-.304-5.124-.167-4.818.108-9.657-.765-14.435-.154-.84-.29-1.685-.38-2.535-.11-1.06-.183-2.128-.224-3.194-.01-.27.16-.548.25-.82.065.2.182.396.195.6.118 1.816 1.046 3.487.93 5.354-.024.395.22.82.38 1.214.478 1.173 1.35 1.682 2.52 1.502 1.076-.164 2-1.085 1.993-2.193-.005-1.062-.14-2.135-.32-3.185-.274-1.58-.666-3.136-.96-4.71zm26.373-6.857c-.89-2.748-1.91-5.454-2.813-8.198-.63-1.905-1.807-3.38-3.317-4.64-.61-.507-1.112-.525-1.723-.064-.768.58-1.483 1.25-2.306 1.73-2.365 1.39-3.84 1.18-5.758-.702-.302-.3-.565-.643-.827-.98-1.525-1.956-1.806-2.12-3.755-.305-1.114 1.042-2.068 2.144-2.108 3.82-.015.613-.405 1.212-.565 1.834-.21.82-.427 1.653-.523 2.496-.218 1.912-.36 3.832-.533 5.75-.16 1.812-.33 3.623-.493 5.437-.016.212-.045.426-.038.64.03.92.724 1.746 1.503 1.808.902.073 1.458-.51 1.563-1.628.19-2.022.382-4.045.574-6.067.007-.107-.005-.224.036-.317.105-.23.235-.448.354-.67.068.197.194.392.203.593.205 4.062.4 8.126.585 12.19.1 2.14.027 4.302.33 6.413.188 1.28.29 2.542.304 3.822.013 1.18-.025 2.362.027 3.538.064 1.42.53 1.875 1.954 2.033.422.048.853.064 1.28.045.678-.03 1.23-.65 1.07-1.29-.585-2.33-.267-4.69-.3-7.04-.012-.665.62-1.232 1.268-1.166.847.085 1.685.256 2.524.405 1.227.212 1.517.447 1.666 1.524.117.845.208 1.71.177 2.558-.08 2.272.51 4.456.8 6.677.078.593.517.906 1.103.985.58.077 1.082-.128 1.373-.62.27-.453.507-.957.612-1.47.127-.624.138-1.278.138-1.92.01-5.682.014-11.365 0-17.05 0-.855.038-1.748-.18-2.557-.698-2.53-.562-5.1-.583-7.67 0-1.393-.01-2.786.006-4.18.002-.312.08-.625.144-.93.017-.078.117-.19.18-.19.098 0 .225.06.287.137.87 1.14 1.324 2.49 1.366 3.874.073 2.5 1.042 4.806 1.38 7.243.052.4.316.787.545 1.14.5.78 1.67.812 2.166.035.7-1.1 1.207-2.3 1.022-3.63-.16-1.163-.364-2.336-.723-3.448zm-54.096 2.965c.115-.403.122-.843.143-1.267.15-2.76-.925-5.23-1.858-7.737-.617-1.66-1.723-2.933-3.034-4.078-1.504-1.314-3.18-1.656-5.084-1.1-1.436.42-2.893.774-4.32 1.204-1.93.58-3.47 1.642-4.274 3.583-.203.495-.43.978-.642 1.472-1.467 3.484-2.094 7.18-2.6 10.885-.217 1.578-.05 3.21-.025 4.816.005.31.127.625.234.924.197.555.88.93 1.56.888.674-.043 1.272-.525 1.31-1.18.065-1.176.024-2.358.092-3.532.062-1.06.16-2.126.33-3.174.082-.512.362-.992.55-1.486.08.476.22.95.23 1.427.032 1.284.008 2.57.01 3.857 0 3.323-.092 6.647.03 9.965.126 3.312.464 6.617.71 9.923.018.21.036.427.07.637.106.64.64 1.246 1.243 1.316 2.074.245 3.365 0 3.22-2.622-.03-.535.002-1.075-.04-1.61-.347-4.155-.713-8.31-1.057-12.468-.235-2.83-.046-3.07 2.592-3.054.427.002.86-.043 1.285-.035.605.01.982.346 1 .998.07 2.57.07 5.144.168 7.712.123 3.312.31 6.623.475 9.933.01.208.1.416.163.617.13.422.846.768 1.333.65.563-.132.975-.483 1.125-1.025.435-1.557.61-3.144.542-4.768-.227-5.346-.435-10.695-.675-16.704 0-1.806-.002-4.27 0-6.735.002-.75-.01-1.502.037-2.248.02-.3.185-.59.28-.885.17.2.41.373.5.605.34.9.607 1.827.95 2.728.26.693.527 1.397.902 2.033.284.48.82.677 1.4.56.57-.114.965-.48 1.12-1.024zm7.51-24.89c.687.252.948.75 1.05 1.455.234 1.627 1.04 3.025 1.912 4.38.627.975 1.523 1.484 3.17 1.407.065-.013.62-.027 1.1-.224 2.174-.902 3.915-2.347 4.563-4.653.356-1.252.757-2.4 1.48-3.488s.706-2.28-.34-3.198c-.718-.627-.987-1.338-.982-2.25.004-1.836-1.148-3.18-2.048-4.625-.11-.177-.284-.324-.454-.446-2.09-1.483-5.57-1.123-7.42.772-1.165 1.193-2.013 2.667-1.952 4.283.05 1.22-.307 1.965-1.027 2.833-.947 1.134-.71 2.383.414 3.41.157.142.34.276.535.35zm6.593-6.33c.037-.078.186-.16.26-.143.162.038.43.13.44.222.1 1.047.16 2.1.215 2.883-.274 1.736.117 3.266-.578 4.665-.09.18-.245.326-.373.49-.113-.108-.315-.208-.32-.317-.063-2.225-.13-4.452-.13-6.68 0-.372.3-.752.485-1.12zM89.19 60.49c.545 1.38 1.12 2.764 1.844 4.057.634 1.133 1.835 1.1 2.596.092.917-1.214 1.47-2.58 1.842-4.045.32-1.272.363-1.262 1.69-1.163 1.218.085 1.632-.24 1.685-1.295.136-2.61-.637-5.05-1.347-7.51-.282-.977-.87-1.554-1.632-2.218-1.173-1.025-2.38-1.324-3.526-1.17-.613 0-.936.02-1.253-.004-1.565-.11-2.66.656-3.475 1.885-.407.62-.85 1.278-1.02 1.98-.45 1.856-.88 3.736-1.09 5.63-.188 1.685.536 2.443 2.32 2.688.737.106 1.094.39 1.366 1.07zm3.6-7.074c.186-.154.566.17.592.508.015.203.002.405.002.837-.02.07-.1.36-.203.638-.03.072-.16.17-.21.155-.167-.053-.45-.132-.466-.237-.075-.484-.107-.98-.08-1.472.004-.15.22-.306.367-.427zm-.51 4.34c.08-.186.18-.362.27-.54.107.155.296.304.304.463.025.403-.006.815-.066 1.217-.017.12-.196.217-.3.325-.057-.083-.15-.16-.167-.252-.045-.3-.067-.607-.094-.86.02-.156.02-.264.056-.356zM35.524 62.47c.338 1.56 1.437 2.603 2.482 3.67.642.654 1.573.667 2.36.16 1.217-.787 2.068-1.844 2.5-3.24.404-1.315.568-2.73 1.468-3.863.12-.15.11-.405.17-.672-.054-.26-.033-.63-.193-.875-.66-1.013-.9-2.155-1.21-3.296-.246-.92-.667-1.816-1.142-2.645-1.052-1.85-3.13-2.156-4.584-.66-1.365 1.4-2.496 2.946-2.49 5.052 0 .416-.064.883-.26 1.237-.804 1.437-1.096 2.753.422 3.96.29.23.384.76.476 1.17zm4.06-7.528c.012-.068.118-.17.185-.173.097-.003.22.047.287.116.14.156.323.32.36.508.45 2.1.566 4.194-.332 6.22-.053.12-.288.168-.448.222-.017.005-.136-.17-.142-.267-.098-1.16-.18-2.323-.288-3.716.107-.83.235-1.872.38-2.912z"/></svg>