<svg xmlns="http://www.w3.org/2000/svg" width="128" height="128" viewBox="0 0 128 128"><path d="M104.512 102.825c-.555-4.542-.452-9.077-.066-13.62.085-1.02.047-2.052-.026-3.073-.245-3.403-.53-6.8-.802-10.197.053-.008.11-.013.162-.017 0-1.472.005-2.948-.002-4.422-.002-1.25.085-2.517-.046-3.755-.753-7.02-1.112-14.054-1.085-21.112.023-6.38-.06-12.755-.032-19.128.01-3.294-.192-6.59.504-9.868.37-1.776-.32-3.357-1.613-4.645-.67-.672-1.368-1.07-2.417-.907-1.226.198-2.495.188-3.743.207-5.007.077-10.018.107-15.026.205-1.356.03-2.712.24-4.07.356-4.067.352-8.097 1.045-12.22.915-5.115-.16-10.242-.047-15.37-.032-3.522.013-7.05.125-10.5-.82-.33-.09-.677-.26-.992-.22-1.688.227-3.477.355-4.174 2.33-.435 1.23-1.126 2.223-2.25 2.895-.892.533-1.132 1.344-1.09 2.33.026.648-.34 1.06-1.014 1.107-.573.042-1.16-.025-1.705.103-.875.206-1.76.46-2.57.84-.636.3-.966.936-.972 1.683-.006.653.392 1.278 1.18 1.483 1.088.288 2.214.454 3.328.64.653.11 1.02.47 1.08 1.108.07.783.163 1.573.124 2.353-.04.82-.497 1.225-1.274 1.32-.785.095-1.595.106-2.358.302-.94.238-1.547.892-1.81 1.86-.213.783.256 1.722 1.04 1.846.67.107 1.358.107 2.038.164 1.742.15 2 .4 2.074 2.016.03.565-.01 1.14.043 1.707.12 1.235.043 2.235-1.54 2.507-.606.11-1.172.67-1.67 1.12-.84.76-.682 2.32.32 2.93.566.342 1.245.528 1.894.69.88.22 1.453.7 1.485 1.614.07 1.82.096 3.64.112 5.46.004.656-.405 1.006-1.013 1.187-.653.19-1.314.377-1.938.646-.814.35-1.165 1.02-1.154 1.91.012.776.364 1.293 1.065 1.58.42.17.843.342 1.283.436 1.647.363 1.82 1.007 1.792 2.4-.01.565 0 1.135 0 1.707-.008 1.843.18 2.596-2.432 2.694-.335.01-.702.09-.98.256-.268.16-.558.448-.638.736-.508 1.823.235 3.23 1.94 3.754.32.1.68.07 1.01.15.923.224 1.21.515 1.248 1.335.038.793.036 1.59.008 2.385-.02.645-.418 1.04-1.026 1.132-1 .153-2.016.262-3.004.49-.624.145-1.274 1.232-1.248 1.857.047 1.015.847 2.064 1.78 2.263.553.123 1.124.17 1.69.253 1.79.258 1.812.286 1.844 2.12.005.454.008.91 0 1.365-.034 1.43-.036 1.43-1.72 1.88-.325.088-.67.15-.97.288-1.524.72-1.86 2.35-.775 3.674.51.623 1.055 1.195 1.903 1.347.658.12 1.51.004 1.8.727.244.603.195 1.334.223 2.01.032.682.027 1.364-.006 2.05-.05.996-.437 1.31-1.54 1.34-1.022.03-2.05-.017-3.058.125-1.217.172-1.832 1.407-1.42 2.616.235.687.675 1.217 1.36 1.426.975.292 1.964.62 2.97.703 1.855.155 1.79.554 2.22 2.043.317 1.093.5 2.238-.126 3.317-.43.742-.43 1.536-.203 2.317.26.892.376 1.763.172 2.69-.092.426-.027.902.036 1.346.15 1.016.748 1.685 1.744 1.813 1.014.127 2.046.205 3.062.174 6.36-.186 12.74.363 19.085-.62 3.03-.468 6.11-.564 9.158-.922 4.74-.557 9.483-1.17 14.26-1.232 3.98-.05 7.967.067 11.948.19 1.007.03 2.03.267 3 .57 2.106.66 4.25.756 6.417.628.666-.04 1.345-.198 1.985-.405 1.306-.42 2.106-1.238 2.123-2.734.01-1.008-.025-2.138.404-2.99.87-1.728 1.004-3.472.78-5.303zm-8.533 3.225c-1.478.075-2.96.115-4.44.117-3.076.007-6.154-.067-9.23-.02-1.583.026-3.166.244-4.75.362-.68.05-1.36.083-2.04.086-5.13.045-10.25.11-15.38.11-7.52 0-15.038-.047-22.557-.076-.34 0-.7.033-1.018-.063-.297-.09-.71-.277-.79-.516-.32-.96-.593-1.95-.76-2.95-.074-.46.306-.863.822-.892 1.248-.08 2.507-.066 3.75-.176 1.285-.112 2.03-.793 2.15-1.804.14-1.182-.494-2.3-1.626-2.716-.522-.192-1.1-.284-1.66-.33-.905-.073-1.817-.048-2.725-.112-.495-.032-.87-.358-.885-.856-.042-1.248-.07-2.502.03-3.744.024-.305.548-.79.867-.81 1.472-.09 2.955-.07 4.437-.037 1.165.024 2.27-.18 3.288-.74.757-.415 1.12-1.087 1.117-1.967-.01-.885-.4-1.528-1.157-1.952-.917-.507-1.907-.696-2.957-.692-1.594.005-3.19 0-4.783-.05-1.06-.035-1.352-.363-1.378-1.513-.1-4.44-.33-4.404 4.26-3.685.448.07.894.272 1.336.255 1.96-.07 2.97-1.086 2.636-3.072-.128-.732-.544-1.31-1.23-1.51-1.084-.32-2.2-.534-3.307-.737-1.258-.234-1.484-.426-1.718-1.71-.558-3.06-.558-3.025 2.61-3.18 1.007-.052 2.042-.22 2.993-.54 1.62-.556 1.894-2.82.546-3.89-.75-.595-1.602-.83-2.54-.847-1.14-.013-2.277-.006-3.42-.048-.777-.027-1.243-.483-1.274-1.306-.046-1.253-.046-2.508-.02-3.76.018-.84.49-1.273 1.296-1.18.9.096 1.794.277 2.693.41.558.08 1.12.2 1.68.187.88-.016 1.85-.768 2.094-1.525.236-.747-.127-1.383-.55-1.88-.42-.495-1.01-.893-1.598-1.197-1.352-.697-2.864-.672-4.328-.866-.768-.103-1.267-.623-1.28-1.366-.027-1.708-.014-3.414.018-5.124.01-.595.437-.9 1.173-.935.792-.034 1.604.028 2.373-.127.778-.156 1.537-.5 1.76-1.41.25-1.02-.176-2.102-1.072-2.668-.378-.24-.79-.456-1.216-.593-.648-.208-1.32-.328-1.98-.493-.916-.23-1.046-.4-1.085-1.437-.02-.57-.048-1.14-.002-1.71.085-.99-.448-2.266.45-2.894.64-.452 1.757-.178 2.64-.342.88-.16 1.78-.362 2.592-.727 1.084-.49 1.205-2.182.233-2.877-.544-.39-1.184-.686-1.824-.88-.53-.16-1.13-.17-1.693-.136-2.292.142-2.56-.592-2.33-2.997.06-.613.5-1.08 1.07-1.12.68-.048 1.374-.004 2.046-.09.964-.124 1.544-.995 1.416-1.992-.14-1.12-.736-1.887-1.783-2.286-.63-.236-1.31-.362-1.91-.66-.223-.11-.325-.563-.38-.88-.08-.48.424-1.003.79-.804 1.374.733 2.857.63 4.332.63 7.973.002 15.947.01 23.925-.004 2.272-.004 4.552.032 6.79-.54.644-.163 1.357-.117 2.036-.117 6.38-.01 12.76-.01 19.136-.007.46 0 .914.002 1.367.048.487.054.878.304.925.828.088 1.02.177 2.043.18 3.066.02 4.444.007 8.886.007 13.328h.02c0 2.733.062 5.472-.013 8.203-.156 5.71.44 11.358 1.13 17.004.052.453.06.91.1 1.362.207 2.38.44 4.757.63 7.136.084 1.133.14 2.275.146 3.413.053 10.024.092 20.05.13 30.074.002 1.137-.285 1.498-1.333 1.548zm4.27-7.15c-.047-.083-.15-.174-.133-.243.032-.17.12-.33.18-.494l.152.243-.2.49zm-17-30.08c-.3-.163-.61-.307-.897-.49-1.744-1.09-3.65-1.802-5.59-2.438-2.655-.875-2.506-1.22-1.955-3.368.224-.864.272-1.79.3-2.688.045-1.476-.033-2.958.02-4.435.105-2.75-.495-5.39-1.01-8.07-.386-1.997-1.675-3.145-2.96-4.403-.227-.222-.58-.392-.9-.437-1.946-.29-3.998-.393-5.587.842-2.573 2.002-4.344 4.62-4.553 8.023-.184 3.008.563 5.845 1.62 8.633 1.405 3.694 1.384 3.708-1.506 6.274-.51.452-1.044.875-1.594 1.28-1.094.808-2.187 1.626-3.317 2.384-2.554 1.707-3.713 4.096-3.94 7.136-.16 2.14.216 4.018 1.375 5.81.553.855 1.214 1.292 2.22 1.28 4.656-.054 9.318-.04 13.975-.164 2.26-.06 4.516-.366 6.777-.558l.01.146c1.138 0 2.277-.008 3.41.002 1.267.014 2.457-.293 3.672-.625 2.59-.707 3.584-2.59 3.936-4.98.13-.893.007-1.82.072-2.724.217-2.94-1.06-5.024-3.58-6.43zm.047 7.695c-.1.7-.562 1.27-1.29 1.387-1.92.31-3.845.338-5.772.053-.512-.077-.82-.402-.896-.882-.253-1.508-1.4-2.02-2.65-2.264-.994-.2-2.036-.18-3.058-.194-2.158-.03-4.317-.01-6.477-.036-.2-.003-.525-.127-.562-.26-.047-.172.094-.443.23-.607 1.15-1.402 2.307-2.8 3.485-4.18 1.07-1.26 1.59-2.637 1.532-4.353-.1-2.976-.593-5.873-1.55-8.66-.697-2.028-.573-4.033-.286-6.038.206-1.442.762-2.832 1.18-4.243.148-.503.858-.714 1.425-.533.936.305 1.54.915 1.867 1.835.535 1.51.843 3.066.87 4.67.027 1.36.007 2.727.007 4.09.058.006.114.008.173.014-.19 2.372-.213 4.774-.61 7.11-.32 1.868.323 3.126 1.762 4.05.945.608 2.024 1.013 3.07 1.46.934.403 1.916.7 2.85 1.108.726.317 1.398.752 2.11 1.102 2.28 1.114 2.93 2.995 2.586 5.37z"/></svg>