<svg xmlns="http://www.w3.org/2000/svg" width="128" height="128" viewBox="0 0 128 128"><path d="M101.112 36.098c-2.03-2.36-4.795-3.53-7.622-4.555-.506-.184-1.097-.18-1.647-.184-3.383-.043-6.673.674-9.707 2.033-2.717 1.216-5.216 2.933-7.757 4.512-3.78 2.34-7.485 4.79-10.955 7.578-.256.207-.546.392-.848.53-2.768 1.26-4.974 3.316-7.34 5.154-1.132.88-2.285 1.742-3.425 2.613-1.59-.586-1.99-2.273-3.063-3.342-.385-.384-.623-.917-.946-1.365-.427-.587-.506-1.14-.192-1.85 1.056-2.368 1.088-4.964 1.4-7.47.292-2.32-.303-4.62-.842-6.902-.714-3.047-2.258-5.534-4.687-7.443-5.51-4.335-11.8-6.144-18.73-5.184-3.596.497-6.734 2.03-8.837 5.315-1.704 2.665-2.803 5.465-3.486 8.555-.907 4.107.06 7.923 1.156 11.772.312 1.088.93 2.008 1.752 2.795 1.444 1.38 2.844 2.815 4.337 4.142 3.106 2.756 6.688 4.325 10.923 4.087.707-.04 1.294.09 1.83.572 1.405 1.26 2.87 2.453 4.236 3.752.818.78 1.61 1.504 2.74 1.797.442.116.45.73.044 1.057-2.255 1.803-4.606 3.5-6.74 5.436-1.886 1.707-3.835 2.688-6.478 2.747-5.34.12-9.51 2.707-12.743 6.88-.817 1.054-1.746 2.032-2.473 3.14-2.016 3.062-2.595 6.385-1.114 9.8.967 2.23 2.283 4.306 3.41 6.47.834 1.614 2.06 2.93 3.402 4.07 2.203 1.866 4.563 3.586 7.514 4.052 2.627.418 5.277.676 7.915 1.005 4.077.37 7.434-1.173 10.373-3.77 1.758-1.558 3.048-3.514 4.192-5.554 2.596-4.638 2.717-10.624.357-15.328-.444-.888-.834-1.81-1.165-2.75-.622-1.766-.592-1.77 1.02-2.9 1.09-.766 2.164-1.555 3.25-2.326.704-.503 1.118-.506 1.763.115 1.997 1.93 3.968 3.89 5.95 5.832 1.75 1.71 3.428 3.494 5.264 5.102 2.257 1.972 4.64 3.796 6.97 5.68.604.485 1.184 1.047 1.865 1.39 2.674 1.35 5.31 2.833 8.106 3.873 3.48 1.294 7.153 1.733 10.756.424 2.385-.864 4.687-1.978 6.997-3.046.99-.46 1.223-2.054.474-2.892-.365-.412-.81-.758-1.248-1.098-4.38-3.41-9-6.49-13.576-9.63-4.484-3.076-8.947-6.19-13.072-9.76-2.178-1.883-4.46-3.655-6.697-5.47-.416-.335-.416-.67.037-1.03.173-.14.333-.3.52-.417 3.598-2.205 6.823-4.94 10.373-7.232 2.98-1.925 5.936-3.894 8.972-5.745 2.37-1.444 4.706-2.946 7.025-4.47 2.227-1.467 4.453-2.922 6.9-4.022 1.31-.592 2.588-1.282 3.828-2.013 1.052-.62 1.365-1.82.82-2.87-.3-.588-.652-1.166-1.078-1.663zM39.365 57.444c-1.107-.907-2.144-1.916-3.125-2.965-1.555-1.67-3.592-2.38-5.683-2.2-3.5.295-6.208-1.126-8.892-3.04-1.53-1.094-2.554-2.428-3.043-4.208-.264-.962-.477-1.936-.773-2.888-1.175-3.79-.775-7.548.8-11.046 1.516-3.374 3.99-5.778 8.102-5.94 3.29-.128 6.396.427 9.392 1.724 1.13.49 2.146 1.143 2.947 2.112 2.548 3.083 4.193 6.517 4.176 10.605v1.175c.373 2.39-.448 4.66-1.847 6.733-.54.793-.426 1.4.033 2.105.668 1.022 1.214 2.136 1.984 3.07 1.205 1.46 2.62 2.704 4.484 3.333.688.23.716.644.097 1.152-1.797 1.483-3.616 2.94-5.438 4.392-.4.32-.61-.035-.673-.34-.328-1.615-1.298-2.755-2.542-3.777zm28.595 17.04c.677.367 1.3.86 1.906 1.343C76.026 80.744 82.306 85.51 88.79 90c.354.246.664.58.932.918.075.096-.006.46-.123.535-.365.235-.764.49-1.175.555-.877.14-1.77.158-2.42.207-1.692-.037-3.052-.346-4.415-.94-5.186-2.245-9.47-5.733-13.514-9.573-1.202-1.14-2.277-2.435-4.02-2.845-.4-.096-.767-.437-1.09-.732-2.29-2.1-4.58-4.203-6.84-6.336-.884-.836-.863-1.16.033-1.83 4.054-3.026 2.84-3.033 6.32.215 1.71 1.595 3.395 3.192 5.48 4.307zm25.832-35.63c-4.776 3.035-9.54 6.087-14.328 9.108C71.48 53.002 63.87 58.58 56.33 64.25c-.62.466-1.25.94-1.78 1.504-1.992 2.12-4.38 3.74-6.677 5.486-2.114 1.61-4.188 3.285-6.204 5.024-.917.787-1.716 1.74-2.44 2.71-.795 1.063-1.085 1.736.494 3.03 2.895 2.377 4.3 5.548 4.22 9.326-.022.888-.113 1.775-.13 2.662-.037 1.912-.892 3.467-2.324 4.602-1.47 1.165-3.064 2.208-4.703 3.12-.843.465-1.89.618-2.87.746-2.766.36-5.516.46-8.148-.776-.903-.422-1.89-.65-2.81-1.035-4.404-1.82-6.957-5.026-7.2-9.863-.128-2.558 0-5.067 1.12-7.492 1.224-2.65 3.104-4.507 5.63-5.888 2.004-1.1 4.036-1.832 7.242-1.265 1.682.544 3.584-.658 5.446-2.238 2.46-2.085 4.89-4.18 7.087-6.555 1.195-1.29 2.658-2.334 4.03-3.455.44-.363.714-.2.867.42.026.106.026.22.038.33.147 1.32.72 2.413 2.066 2.713 1.483.33 2.82-.01 3.883-1.287.61-.733.965-1.44.893-2.394-.075-.963-.456-1.707-1.298-2.182-.578-.326-1.184-.606-1.75-.952-.086-.056-.104-.444-.015-.53.8-.766 1.587-1.557 2.465-2.23 2.816-2.164 5.598-4.383 8.523-6.396 3.1-2.136 6.345-4.066 9.532-6.076 1.127-.712 2.254-1.427 3.415-2.075 1.257-.698 2.537-1.355 3.837-1.97 1.796-.857 3.633-1.612 5.395-2.575 2.34-1.28 4.976-1.867 7.672-1.9.627-.007 1.28.268 1.892.492.288.107.645.346.738.608.19.533-.308.728-.676.964zm25.784 23.77c-.403-.172-.832-.388-1.252-.404-1.99-.072-3.98-.09-5.973-.1-.315 0-.66.1-.953.24-.712.345-1.342.767-1.397 1.686-.06.864.268 1.534 1.008 1.933.576.31 1.2.606 1.835.716.977.164 1.98.164 2.974.235l.002-.074c.553 0 1.107.028 1.66-.005.55-.03 1.104-.08 1.644-.19.984-.206 1.832-1.13 1.935-2.038.08-.68-.61-1.63-1.484-2zm-19.832-.256c-.203-.078-.412-.167-.63-.197-1.637-.225-3.276-.482-4.92-.644-1.22-.12-2.438-.046-3.55.593-.63.362-1.024.944-1.003 1.61.027.68.52 1.216 1.16 1.51.4.18.84.29 1.27.36 1.53.243 3.06.455 4.388.65.766 0 1.318.01 1.874-.005.332-.01.662-.045.99-.096 1.202-.19 2.016-.944 2.012-1.846-.004-.79-.643-1.57-1.59-1.933zm-19.1.323c-2.602-.93-5.206-.625-7.764.245-.678.23-1.064 1.07-1.003 1.92.05.8.61 1.62 1.325 1.707 1.088.13 2.197.134 3.296.193 0-.028 0-.056.002-.085.77 0 1.544.002 2.318 0 .22 0 .45.027.658-.02.533-.118 1.083-.22 1.58-.428.942-.395 1.358-1.613.8-2.507-.268-.43-.74-.853-1.212-1.02zM36.812 83.666c-2.31-1.852-4.884-3.07-7.935-3.003-.78.05-1.564.033-2.325.167-.98.17-1.94.46-2.904.7-1.677.42-2.653 1.52-3.047 3.18-.23.964-.55 1.92-.68 2.9-.115.864-.2 1.8.004 2.635.768 3.155 2.443 5.69 5.42 7.21 1.085.56 2.18 1.094 3.3 1.587.5.225 1.045.358 1.587.464 3.97.775 7.82-1.444 9.516-5.13 1.08-2.35 1.593-4.905-.477-7.193-.436-.48-.61-1.183-.98-1.73-.44-.636-.887-1.312-1.474-1.787zm-3.55 12.224c-2.186-.435-4.276-1.09-6.05-2.58-.928-.78-1.576-1.546-1.357-2.58.02-.343.018-.456.032-.564.644-4.356 1.37-4.537 5.14-3.748.856.18 1.737.444 2.49.87 2.273 1.292 3.07 3.404 2.977 5.908-.06 1.483-1.816 2.976-3.232 2.694zm6.47-59.335c-.372-1.067-.938-2.008-1.98-2.57-2.14-1.15-4.217-2.444-6.444-3.4-1.746-.75-3.68-.577-5.515-.042-.51.15-1.076.433-1.4.83-1.83 2.237-3.697 4.487-3.343 7.73.247 1.407.525 2.81.734 4.223.16 1.07.8 1.807 1.558 2.468 1.952 1.7 4.155 2.963 6.724 3.407 2.57.446 5.084.27 7.317-1.29.436-.306.93-.677 1.153-1.137 1.602-3.255 2.45-6.626 1.197-10.22zm-3.798 5.4c-.093 2.164-1.387 3.444-3.6 3.39-2.536-.063-4.684-1.17-6.562-2.813-.195-.17-.288-.614-.232-.895.21-1.093.565-2.16 1.37-2.97 1.01-1.014 2.07-1.976 3.11-2.96 1.32.497 2.642.99 3.963 1.494.204.08.378.228.577.326 1.016.5 1.404 1.347 1.367 2.437-.008.33 0 .663.002.995h.005c0 .333.01.664-.002.996z"/></svg>