<svg xmlns="http://www.w3.org/2000/svg" width="128" height="128" viewBox="0 0 128 128"><path d="M117.07 65.888c-.63-3.89.295-7.843-.748-11.68.486-2.13-.067-4.206-.376-6.287-.574-3.854-1.34-7.68-2.58-11.385-.193-.57-.548-1.216-1.023-1.536-3.31-2.23-6.51-4.62-10.702-5.144-3.972-.497-7.913-1.282-11.843-2.07-1.26-.253-2.496-.39-3.763-.39H70.16v-.236c-5.497.093-10.994.19-16.492.287-.528.01-1.06.015-1.583.083-4.715.614-9.437 1.124-14.2 1.237-2.003.05-4.002.277-6 .444-.525.045-1.055.115-1.567.237-3.076.734-6.15 1.488-9.225 2.237-.407.1-.875.107-1.216.315-2.062 1.28-4.158 2.516-6.123 3.94-2.1 1.52-3.095 3.694-3.088 6.305.008 2.328.003 4.655.032 6.982.006.52.098 1.047.203 1.56.554 2.695.976 5.393 1.09 8.15.13 3.063.363 6.12.62 9.17.173 2.105.3 4.234.752 6.285.374 1.683.53 3.345.434 5.03-.146 2.666.226 5.292.728 7.873.357 1.845 1.056 3.653 1.81 5.385 1.746 3.99 5.814 6.44 10.437 6.328 9.1-.222 18.174.498 27.26.864.316.014.633.028.95.07 4.63.58 9.276.688 13.93.546 6.443-.2 12.885-.5 19.326-.7 3.064-.096 6.136-.083 9.203-.093 1.09-.002 2.07-.245 2.954-.93.926-.72 1.96-1.252 3.147-1.416 2.273-.317 4.193-1.364 5.936-2.81.484-.404.986-.806 1.534-1.12 1.985-1.135 3.002-2.9 3.387-5.09.15-.825.282-1.66.386-2.494.208-1.675.334-3.36.615-5.02.192-1.14.672-2.23.877-3.368.2-1.114.037-2.315.355-3.386.806-2.708.875-5.482.44-8.17zM16.8 44.352c-.032-.768.067-1.456.65-2.037 2.117-2.114 4.403-3.887 7.468-4.46 2.384-.442 4.725-1.098 7.093-1.615 1.03-.224 2.084-.413 3.136-.472 3.797-.213 7.597-.343 11.39-.736 5.044-.525 10.107-.837 15.167-1.12 2.85-.16 5.714-.107 8.57-.1 2.33.01 4.647.065 6.926-.586.596-.17 1.26-.128 1.89-.128 4.763-.02 9.5.226 14.2 1.067 1.13.203 2.318.103 3.48.123 3.333.056 6.45.912 9.377 2.485 1.112.597 2.212 1.216 3.317 1.824.437 1.296.915 2.578 1.296 3.893.287 1.008.466 2.053.67 3.088.08.39-.308.843-.727.845-1.27.013-2.54.006-3.456.006-6.362-.397-12.373-.776-18.384-1.13-1.584-.09-3.173-.124-4.757-.127-7.832-.02-15.663-.03-23.49-.03-11.96 0-23.918.01-35.874.022-2.106.005-4.215-.154-6.29.49-1.02.32-1.61-.263-1.653-1.305zm95.2 20.91c-.188 2.836-.48 5.7-1.088 8.468-.53 2.404-.57 4.806-.826 7.213-.31 2.927-1.077 5.817-3.593 7.82-.58.458-1.075 1.036-1.685 1.44-.51.337-1.115.625-1.712.716-3.34.495-6.688.934-10.04 1.376-.51.064-1.062.155-1.55.037-1.886-.448-3.785-.307-5.69-.284-6.665.08-13.33.247-19.997.194-3.693-.032-7.39-.23-11.087-.515-4.633-.358-9.305-.33-13.956-.303-2.955.014-5.91.322-8.86.523-2.347.16-4.633-.302-6.927-.65-.97-.146-1.765-.747-2.132-1.717-.973-2.56-1.99-5.09-2.193-7.886-.195-2.734-.58-5.456-.904-8.18-.515-4.402-1.48-8.748-1.555-13.202-.006-.423-.02-.846-.01-1.27.018-.88.204-1.084 1.046-1.256 2.815-.576 5.66-.67 8.518-.616.635.013 1.27.002 1.904.002l.007-.085c5.38.278 10.777.446 16.15.876 6.11.49 12.225.864 18.332 1.333 5.922.46 11.832.41 17.754.364 1.895-.015 3.787-.288 5.682-.405 1.248-.08 2.466-.278 3.706.4.79.43 1.828.475 2.77.553 1.367.11 2.746.11 4.12.13 1.9.033 3.793-.038 5.672.47.892.245 1.888.105 2.843.136.527.017 1.057.03 1.585.05 3.108.13 3.904 1.405 3.712 4.26zM63.35 78.497c-.838-.407-1.38-.917-1.435-1.89-.016-.296-.147-.632-.33-.87-.414-.537-1.018-.73-1.68-.718-.625.013-.865.404-1.068.954-.288.786-.667 1.542-1.065 2.283-.21.395-.67.66-1.016.267-.853-.98-1.85-1.33-3.108-1.052-.444.1-.805-.1-1.07-.48-.298-.437-.628-.848-.92-1.285-.58-.86-1.452-.846-2.273-.64-.462.114-.818.623-1.27.86-.202.1-.593.05-.78-.092-.235-.177-.324-.537-.523-.78-1.013-1.242-2.586-1.15-3.334.198-.452.82-.668 1.803-1.813 2.027-1.04.2-1.278.982-1.198 1.917.053.63.053 1.276.203 1.88.354 1.403 1.493 1.892 2.6 1 .85-.684 1.55-.937 2.538-.367.604.352 1.262.135 1.75-.326.447-.418.8-.933 1.192-1.41.253-.306.467-.843.75-.88.594-.08.4.543.495.893.218.81.335 1.664.672 2.424.24.546.712 1.04 1.19 1.413.845.666 1.39.608 2.224-.112.47-.404.858-1.133 1.55-.916 1.754.546 2.623-.06 2.79-1.838.006-.09.09-.192.17-.25.17-.122.353-.225.54-.31.02-.01.15.12.167.2.11.512.158 1.045.31 1.542.252.826.835 1.25 1.615 1.248.21 0 .422.007.634-.005 3.06-.16 3.152-1.43 2.49-3.727-.133-.452-.573-.94-.997-1.152zm36.17-4.39c-.683-.35-1.3-.224-1.988.457-.446.442-.78 1.165-1.297 1.325-.85.266-1.013-.847-1.61-1.22-1.317-.817-2.985-.314-3.19 1.22-.19 1.457-1.03 2.516-1.666 3.713-.28.518-.843.405-1.14-.21-.184-.38-.32-.785-.52-1.157-.868-1.604-2.51-1.993-3.975-.925-.42.306-.763.718-1.163 1.05-.235.196-.403.1-.446-.207-.073-.523-.085-1.06-.227-1.563-.55-1.932-2.163-2.605-3.937-1.76-1.254.603-1.938 1.622-2.26 2.887-.122.475-.006 1.05.142 1.536.16.542.638.825 1.202.875.627.058.97-.274 1.1-.867.018-.1.02-.225.08-.3.18-.224.385-.433.58-.644.173.207.46.4.496.63.11.727.12 1.473.18 2.207.04.424.06.853.166 1.255.227.85 1.386 1.963 1.996 1.835.736-.153 1.344-.587 1.72-1.288.45-.83.92-1.653 1.394-2.475.164-.278.626-.22.78.095.277.565.465 1.186.818 1.696 1.07 1.533 3.232 1.485 4.258-.083.347-.526.582-1.124.896-1.675.552-.97.798-1.012 1.573-.317.314.282.584.622.928.864 1.25.87 2.578.914 3.812-.02.653-.5 1.27-1.165 1.636-1.89.47-.92.674-1.984.823-2.453.123-1.508-.237-2.106-1.167-2.587zm-64.89.483c-.303-.387-.812-.618-1.238-.903-1.32-.896-2.656-.267-3.94.053-1.872.47-2.964 2.032-2.935 3.96.043 2.483.846 4.74 2.204 6.784.33.493.906.957 1.463 1.134 2.056.65 5.423-.5 5.867-2.882.208-1.122.52-2.23.767-3.266-.166-.845-.173-1.617-.474-2.25-.456-.934-1.074-1.806-1.714-2.628zm-1.957 6.348c-.096.38-.702.497-1.037.26-1.013-.71-1.422-1.745-1.64-2.902-.13-.697.203-1.368.763-1.504.72-.174 1.63.19 1.84.816.196.587.285 1.202.417 1.803-.115.535-.21 1.037-.343 1.53z"/></svg>