<svg xmlns="http://www.w3.org/2000/svg" width="128" height="128" viewBox="0 0 128 128"><path d="M113.533 38.592c-1.146.01-1.97.568-2.688 1.392-2.347 2.69-4.984 5.074-7.767 7.3-1.06.848-2.17 1.635-3.296 2.396-.124.085-.64-.12-.718-.3-.203-.465-.323-.988-.37-1.497-.245-2.6-.48-5.2-.667-7.806-.098-1.378-.357-2.712-1.035-3.906-.786-1.39-2.59-2.22-4.224-.665-.525.5-.95 1.117-1.465 1.632-1.333 1.325-2.566 2.76-4.25 3.688-2.388 1.312-4.69 2.755-6.695 4.627-.33.31-.87.214-1.05-.18-.69-1.522-1.357-3.054-2.033-4.582-2.496-5.637-5.088-11.236-7.008-17.11-.29-.89-.688-1.76-1.158-2.574-.924-1.613-2.598-2.11-4.33-1.38-1.008.424-1.814 1.082-2.224 2.104-.832 2.076-2.208 3.78-3.624 5.466-1.29 1.533-2.288 3.234-3.002 5.113-1.964 5.2-4.375 10.18-7.348 14.88-.277.44-.544.89-.838 1.32-.24.35-.807.364-1.082.054-.14-.156-.288-.305-.408-.47-1.372-1.85-2.7-3.73-4.113-5.543-1.35-1.727-2.755-3.415-4.2-5.066-1.097-1.253-2.614-1.68-4.22-1.78-.278-.018-.74.127-.827.323-.803 1.813-2.293 3.247-2.763 5.248-.594 2.54-1.285 5.056-1.93 7.584-.293 1.15-.845 1.44-1.738.79-1.935-1.42-3.876-2.844-5.728-4.373-2.09-1.728-4.082-3.578-6.125-5.367-.157-.137-.337-.252-.52-.347-1.578-.802-3.32.18-3.41 1.93-.08 1.59.193 3.102.83 4.582 2.896 6.722 5.403 13.595 7.736 20.527 1.6 4.754 2.987 9.57 3.66 14.565.093.683.046 1.27-.4 1.75-1.477 1.578-1.794 3.49-1.647 5.537.08 1.14.177 2.286.323 3.424.484 3.73 1.028 7.458.75 11.243-.05.73-.06 1.47.008 2.194.118 1.3.93 2.06 2.116 2.453.292.098.616.14.925.15 2.82.094 5.64.342 8.428-.4.79-.213 1.652-.24 2.482-.243 3.136-.02 6.28.002 9.42.015.628.003 1.273-.05 1.88.07 2.8.553 5.628.334 8.445.42 1.988.056 3.972.17 5.957.29 1.248.078 2.492.3 3.74.31 5.756.03 11.514.014 17.27.014v-.05c6.068 0 12.14-.01 18.21.012 1.062.002 2.1-.05 3.04-.585 1.056-.603 1.895-1.49 1.795-2.744-.145-1.797.404-3.513.426-5.257.038-3.057.623-6.03 1.137-9.004 1.086-6.274 2.534-12.474 3.968-18.682 1.83-7.932 3.36-15.934 5.017-23.904.363-1.74.763-3.468 1.08-5.214.413-2.286-1.44-4.4-3.745-4.373zm-30.326 12.1c.787-.818 1.604-1.652 2.546-2.277 1.902-1.26 3.897-2.38 5.86-3.552.288-.167.653-.16.69.22.284 2.684.654 5.35 1.36 7.962.03.1.03.207.065.512-.107.203-.216.65-.5.89-1.988 1.665-4.012 3.295-6.03 4.924-.32.26-.878.146-1.084-.19-.11-.174-.24-.346-.31-.54-.73-1.953-1.727-3.763-2.874-5.507-.74-1.122-.7-1.42.277-2.437zm-49.59-4.212c.214-1.333.467-2.66.734-3.984.098-.477.66-.64.933-.286 1.14 1.49 2.275 2.987 3.388 4.5.93 1.26 1.78 2.575 2.736 3.817.757.984 1.585 1.918 2.434 2.827.39.42.65.742.272 1.323-.798 1.218-1.53 2.485-2.325 3.706-.253.382-.715.48-1.11.25-2.26-1.3-4.5-2.638-6.756-3.95-.902-.53-1.374-1.255-1.265-1.825.37-2.464.648-4.423.964-6.38zm.916 54.38c-1.74.295-3.475.618-5.227.82-1.2.143-1.58-.196-1.584-1.312-.02-3.445-.576-6.827-1.11-10.214-.095-.617-.095-1.245-.14-1.91.03-.375.053-.79.104-1.204.038-.306.66-.683.98-.615.1.02.23-.02.306.032 1.632 1.062 3.483 1.287 5.36 1.45.512.046.79.483.555.837-2.575 3.91-2.03 7.63.67 11.225.123.164.29.32.336.51.026.105-.14.36-.248.38zm23.887-.004c-1.568.045-3.133.073-4.698.09-1.15.01-2.297.002-3.445.002v-.17c-2.61 0-5.22.01-7.83-.018-.255-.003-.505-.245-.754-.376.158-.24.31-.483.48-.715.06-.08.178-.11.254-.178 2.575-2.283 3.197-5.433 1.643-8.457-.283-.555-.675-1.052-.983-1.595-.09-.16-.144-.43-.067-.564.08-.14.347-.25.523-.237 1.14.08 2.28.26 3.424.297 3.236.105 6.475.146 9.71.23.51.016 1.027.106 1.526.225.123.032.306.402.256.476-.23.336-.51.65-.815.927-2.053 1.856-2.112 4.21-1.552 6.645.15.66.712 1.257 1.173 1.81.395.472.917.84 1.365 1.272.018.023-.135.326-.21.33zm41.136-8.096c-.096.37-.416.736-.93.4-.175-.114-.352-.245-.548-.302-2.11-.614-3.243.216-3.282 2.385-.02 1.092.1 2.144 1.286 2.6.454.176 1.01.25 1.49.173.658-.103.996.053 1.046.718.088 1.16-.105 1.63-.803 1.78-.712.154-1.44.298-2.16.315-3.03.08-6.06.123-9.092.143-.463.003-.928-.2-1.392-.306.35-.22.76-.384 1.033-.672.79-.827 1.624-1.64 2.264-2.578.87-1.284.92-2.752.416-4.208-.448-1.29-1.344-2.106-2.738-2.25-.725-.075-1.46-.11-2.19-.09-2.975.093-4.708 1.963-4.918 4.95-.142 2.033.736 3.387 2.254 4.513.097.07.083.324.065.485-.006.06-.163.116-.26.152-.097.032-.206.04-.31.043-5.224.043-10.45.09-15.677.12-.516.002-1.037-.11-1.553-.183-.094-.015-.175-.107-.262-.163.112-.108.203-.264.335-.307.69-.226 1.444-.32 2.08-.647 1.816-.936 2.825-2.402 2.718-4.537-.08-1.6-.494-3.07-1.34-4.445-.572-.933-.343-1.34.703-1.34 4.287.003 8.573.033 12.86.05.834.002 1.67 0 2.506 0v-.03h14.112c.625 0 1.253-.008 1.877.03.453.024.843.275.808.75-.067.822-.188 1.65-.392 2.45zm8.157-36.695c-1.14 5.093-2.26 10.194-3.406 15.285-.324 1.427-.765 2.825-1.06 4.256-.26 1.248-.566 2.373-1.584 3.31-.555.512-.725 1.46-1.027 2.23-.318.813-.442.97-1.348.977-5.963.053-11.928.1-17.894.122-1.776.006-3.556-.07-5.333-.128-.46-.014-.66-.478-.416-.9.42-.723.835-1.444 1.266-2.16.703-1.178-.68-3.245-2.454-3.12-.378.028-.815.277-1.08.555-1.377 1.43-2.846 2.816-3.628 4.683-.36.853-.924 1.035-1.71 1.02-.626-.01-1.26.05-1.882-.006-1.003-.09-2.077.342-3.002-.37.57-.735 1.152-1.464 1.707-2.21.44-.586.86-1.186 1.266-1.795.49-.734.57-1.56.443-2.41-.198-1.313-1.89-2.067-2.905-1.24-1.298 1.05-2.57 2.143-3.774 3.3-.9.868-1.642 1.882-2.01 3.13-.45 1.533-.47 1.54-1.7 1.546-1.046.007-2.09-.02-3.137-.055-.553-.02-.64-.27-.3-.785 1.57-2.346 3.14-4.688 4.702-7.042.402-.608.763-1.246 1.152-1.867.512-.82.316-1.6-.125-2.363-.654-1.13-1.66-1.38-2.58-.497-1.884 1.805-4.218 3.13-5.685 5.367-.573.875-1.13 1.757-1.678 2.645-.73 1.192-.708 2.33.14 3.503.43.597.18 1.003-.51.95-2.077-.15-4.15-.34-6.22-.548-.114-.01-.298-.322-.273-.463.048-.296.178-.597.338-.86 1.16-1.863 2.357-3.705 3.5-5.58.482-.8.93-1.636 1.26-2.506.35-.92-.645-1.978-1.576-1.756-1.343.32-2.55.894-3.58 1.845-2.577 2.374-4.6 5.122-5.84 8.42-.314.833-.566 1.046-1.364.97-1.14-.112-2.278-.268-3.4-.492-.74-.153-1.108-1.062-.716-1.75 1.653-2.9 2.92-6.028 5.14-8.594.47-.542.777-1.23 1.142-1.862.414-.725.226-1.42-.194-2.063-.518-.785-1.333-1.13-2.18-.86-1.082.35-2.095.908-3.115 1.416-.522.26-.803.93-1.49.934.005.025 0 .046.008.07-.03.01-.063.02-.103.025l-.15.375c-.306-.354-.047-.347.15-.378l.036-.092c.02 0 .038-.004.06-.004-.15-.643.197-1.147.477-1.684.288-.55.59-1.122.715-1.72.337-1.68-1.305-3.077-2.944-2.563-.1.032-.195.072-.292.114-.56.245-1.152.75-1.672.68-.878-.118-.736-1.15-1.003-1.782-.686-1.638-1.28-3.313-1.888-4.983-.037-.108.134-.316.25-.444.037-.043.22-.01.295.043.52.35 1.06.683 1.54 1.08 3.723 3.077 8.043 5.23 12.078 7.82 1.668 1.07 3.573 1.03 5.376 1.462.475.114 1.188-.35 1.656-.718.474-.38.818-.946 1.163-1.468 3.953-6.033 8.106-11.936 11.628-18.25 1.793-3.212 3.26-6.55 4.606-9.953.773-1.964 1.74-3.8 3.136-5.39.257-.294.86-.19 1.012.203.85 2.133 1.685 4.275 2.528 6.414 1.806 4.565 3.573 9.148 5.427 13.694 1.026 2.518 2.194 4.972 3.692 7.26.565.865.925 1.868 1.347 2.82.682 1.534 1.44 3.02 2.457 4.364.907 1.195 2.112 1.647 3.563 1.498 1.344-.14 2.784-.064 3.99-.555 1.102-.45 1.91-1.585 2.91-2.337 3.76-2.828 7.54-5.627 11.322-8.426.672-.5 1.376-.954 2.06-1.436 1.107-.78 2.21-1.57 3.323-2.346.014-.01.178.113.178.177.054 1.484-.494 2.85-.81 4.257z"/></svg>