<svg xmlns="http://www.w3.org/2000/svg" width="128" height="128" viewBox="0 0 128 128"><path d="M106.816 44.44c-.832.22-1.632.59-2.432.928-1.402.6-2.778 1.253-4.19 1.83-2.652 1.087-5.41 1.702-8.287 1.438-2.72-.245-5.39-.82-7.867-2.003-1.067-.51-2.03-1.254-2.99-1.96-.646-.476-.578-.927.107-1.15.723-.232 1.467-.394 2.193-.62 1.973-.613 3.938-1.25 5.912-1.862.747-.23.998-.755.99-1.48-.006-.44.015-.873-.002-1.31-.043-1.09-.46-1.59-1.525-1.766-1.632-.273-3.255-.224-4.848.267-1.248.383-2.475.83-3.73 1.188-1.15.328-2.31.63-3.49.82-.345.057-.812-.236-1.125-.49-.36-.292-.224-.997.16-1.485.782-.984 1.775-1.528 3.034-1.736 2.037-.343 4.055-.8 6.078-1.227.634-.137 1.26-.317 1.874-.52 1.184-.39 1.682-1.3 1.788-2.48.096-1.067-.512-2.044-1.54-2.165-1.4-.166-2.82-.173-4.232-.245 0 .043-.002.088-.004.132-1.41 0-2.82.01-4.235-.01-.373-.003-.794-.647-.636-.967.427-.875.823-1.77 1.353-2.584 1.784-2.75 4.437-4.42 7.38-5.676 1.405-.602 6.985-1.307 8.374-1.024.847.17 1.667.49 2.498.754.725.23 1.434.53 2.173.704 2.53.58 3.553-.4 3.034-2.92-.226-1.098-.81-1.997-1.767-2.637-2.123-1.414-4.434-2.362-6.98-2.535-1.952-.134-3.92-.018-5.877-.075-1.457-.038-2.812.376-4.128.88-4.067 1.55-7.43 4.01-9.966 7.615-2.08 2.955-3.92 6.03-5.28 9.373-.668 1.64-1.75 2.697-3.483 3.107-.74.174-1.473.398-2.175.683-1.105.452-2.222.904-3.253 1.493-.533.31-.96.877-1.323 1.403-.51.747-.043 1.893.85 2.08.74.155 1.51.264 2.26.224 1.625-.09 3.246-.288 4.867-.448.65-.07.986.16 1.152.845.1.422.182.853.262 1.28.333 1.724.305 1.77-1.305 2.347-1.024.367-2.065.69-3.068 1.108-.694.288-1.384.638-1.99 1.077-.86.633-.863 1.742-.13 2.595.535.622 1.205.878 2.01.917 1.783.082 3.426-.53 5.093-1.01 1.35-.394 2.485-.29 3.568.802 2.646 2.664 5.825 4.57 9.28 5.98 5.213 2.13 10.543 3.427 16.22 2.15 3.67-.824 7.03-2.243 9.958-4.655 1.362-1.12 1.94-2.624 2.262-4.224.363-1.82-1.135-3.21-2.87-2.753zM22.322 59.853c1.82.317 3.66.52 5.49.77.953.128 1.35.512 1.4 1.468.063 1.31.074 2.617.127 3.92.04 1 .273 1.948.93 2.735.126.154.39.34.53.303.28-.075.694-.256.75-.47.385-1.464.72-2.943 1.014-4.43.17-.848.166-1.735.367-2.576.33-1.382.847-1.706 2.364-1.668.848.02 1.237.348 1.273 1.13.05 1.09.043 2.183.102 3.268.06 1.1.346 2.15 1.006 3.056.117.163.36.34.53.326.164-.01.377-.237.455-.412.214-.498.436-1.003.534-1.528.34-1.813.646-3.637.94-5.46.217-1.356.633-2.45 2.194-2.838.816-.203 1.578-.727 2.287-1.224.795-.557 1.72-1.11 2.205-1.9 1.956-3.175 2.723-6.62 1.6-10.288-1.086-3.546-2.86-6.592-6.44-8.192-.704-.313-.86-.868-.896-1.57-.207-4.03.816-8.01.487-12.044-.016-.213.355-.616.594-.66.743-.144 1.508-.174 2.267-.212.91-.046 1.69-.382 2.395-.936.768-.603 1.04-1.4.813-2.322-.446-1.816-1.565-3.093-3.285-3.806-.8-.333-1.668-.506-2.473-.834-.245-.1-.517-.462-.533-.72-.078-1.088-.057-2.18-.08-3.267-.03-1.523-.058-3.043-.12-4.565-.002-.104-.273-.224-.44-.29-.074-.03-.223.037-.29.106-.69.743-1.057 1.637-1.21 2.625-.22 1.393-.393 2.797-.645 4.184-.155.844-.373 1.687-.646 2.5-.23.68-.86.94-1.505 1.136-.79.24-1.655-.222-1.7-1.02-.094-1.742-.1-3.487-.16-5.228-.04-1.195-.073-2.394-.18-3.584-.05-.57-.436-.997-.98-1.198-.15-.058-.512.028-.525.096-.274 1.38-.6 2.76-.73 4.153-.148 1.627-.21 3.27-.143 4.902.067 1.64-.683 2.61-2.04 3.378-1.7.97-3.367 2.013-4.975 3.13-3.253 2.26-4.806 5.52-5.3 9.37-.163 1.277.16 2.384 1.016 3.317.66.72 1.328 1.46 2.104 2.045 1.218.913 2.533 1.694 3.804 2.534 1.09.723 2.203 1.41 3.24 2.2.27.207.42.74.406 1.118-.092 2.276-.306 4.555-.368 6.837-.046 1.76-.294 3.474-.87 5.12-.46 1.3-1.114 1.95-2.744 1.547-1.045-.26-2.14-.32-2.445-.364-2.67-.006-3.4.13-4.268.644-.896.533-1.28 1.55-1 2.52.548 1.902 1.92 2.855 3.762 3.174zm18.902-15.748c.008-.096.096-.23.178-.256.08-.027.222.034.294.103 1.69 1.61 1.787 3.96.222 5.747-.1.113-.363.11-.553.11-.064 0-.155-.155-.18-.254-.06-.203-.113-.416-.118-.63-.014-.643-.004-1.29-.004-1.94-.025 0-.05-.003-.075-.005.075-.956.146-1.92.235-2.873zm-6.61-15.233c.212-2.257.482-4.506.762-6.755.06-.483.47-.704.93-.71.47-.005.868.223.882.726.037 1.293.01 2.592.01 3.89.048 2.383-.11 4.75-.65 7.082-.056.243-.384.57-.606.587-.254.016-.64-.2-.776-.43-.267-.45-.52-.97-.565-1.477-.08-.964-.076-1.95.015-2.912zM33.39 50.758c.553-3.003.52-6.04.663-9.067.008-.216-.002-.45.078-.64.08-.18.265-.435.404-.44.3-.004.685.045.882.233.73.697 1.09 1.62 1.154 2.61.068 1.076.016 2.164.016 3.246l.21.02c-.25 1.71-.522 3.42-.746 5.13-.142 1.095-.957 1.34-1.818 1.553-.416.1-.885-.264-.89-.697-.007-.65-.07-1.318.047-1.948zm-3.22-19.086c-.618.11-1.433-.4-2.036-.815-.7-.482-1.296-1.13-1.877-1.765-.574-.625-.56-.995-.065-1.717 1.052-1.515 2.18-2.962 3.644-4.112.436-.343 1.15-.13 1.274.424.165.73.26 1.474.395 2.26-.24 1.26-.455 2.538-.737 3.798-.15.675.357 1.754-.597 1.926zm71.68 80.598c-.802-.5-1.617-.637-2.477-.24-.593.273-1.192.557-1.72.93-1.283.91-2.574.894-4.022.38-2.46-.87-4.997-1.52-7.45-2.403-4.47-1.605-3.748-.883-3.8-5.133-.02-1.522.007-3.046.073-4.572.04-.885.52-1.442 1.365-1.6.74-.14 1.503-.18 2.26-.23.868-.065 1.742-.074 2.61-.143.832-.068 1.4-.525 1.762-1.27.608-1.25.467-2.297-.466-3.3-.92-.99-2.037-1.647-3.368-1.865-.75-.12-1.518-.117-2.276-.18-.868-.07-1.198-.383-1.135-1.204.19-2.495.31-5.004.656-7.48.24-1.71.77-3.39 1.7-4.905.587-.954 1.323-1.71 2.315-2.24 2.475-1.323 5.458-.48 6.656 2.002.614 1.266.993 2.645 1.51 3.957.358.907.694 1.84 1.19 2.667.574.96 1.463 1.625 2.63 1.69.67.038 1.5-1.293 1.557-2.644.048-1.19.11-2.446-.198-3.57-.66-2.4-1.454-4.743-2.9-6.867-2.25-3.304-5.58-4.067-9.12-4-2.02.035-4.006.93-5.84 1.937-2.405 1.32-4.03 3.253-4.85 5.882-.715 2.292-1.205 4.62-1.346 7.02-.144 2.51-.642 4.957-1.363 7.357-.334 1.122-.835 1.41-2.203 1.362-1.566-.054-3.04.266-4.363 1.076-1.178.728-1.94 1.803-1.767 3.25.184 1.496 1.342 2.5 2.86 2.66.326.036.66.012.98.065 1.244.21 2.58-.5 3.76.37.052 1.3.124 2.597.143 3.89.014.87-.026 1.745-.078 2.617-.083 1.355-.387 1.864-1.666 1.988-1.7.165-3.164.713-4.39 1.884-2.166 2.06-3.346 4.536-3.037 7.572.14 1.365.81 2.438 2.036 3.168 1.732 1.04 3.526 1.02 5.33.357 1.887-.69 3.422-1.963 4.696-3.458 1.44-1.685 3.023-1.9 4.942-1.06.592.256 1.24.4 1.87.57 3.26.87 6.538 1.654 10.12 1.636 1.578.083 3.31.032 4.954-.7 1.728-.77 2.878-1.936 2.778-3.98-.032-.654-.023-1.31-.06-1.964-.033-.582-.353-.968-.857-1.282zM53.26 69.608c-1.66-.936-3.46-.548-4.628 1.008-.326.435-.595.913-.9 1.365-2.94 4.326-5.862 8.658-8.824 12.966-1.11 1.614-2.3 3.175-3.484 4.74-.485.64-1.067.58-1.596-.103-.2-.256-.38-.53-.568-.797-1.93-2.775-3.82-5.58-5.807-8.31-1.277-1.76-2.682-3.425-4.066-5.102-.635-.77-1.455-1.308-2.446-1.547-1.043-.256-1.97.196-2.425 1.16-.294.63-.363 1.272-.053 1.89.435.88.876 1.764 1.41 2.58 2.75 4.185 5.537 8.347 8.298 12.524 1.203 1.82 2.39 3.647 3.568 5.48.476.737.24 1.092-.738 1.21-1.83.23-3.666.427-5.49.715-1.547.24-2.766 1.278-2.517 2.1.368 1.215 1.398 1.578 2.53 1.73 1.725.234 3.45.455 5.174.698.424.06.88.105 1.252.293.25.128.532.512.513.76-.027.39-.194.977-.476 1.11-.563.27-1.244.38-1.877.39-1.436.017-2.833.244-4.157.76-.955.377-1.632 1.09-1.715 2.198-.064.86.634 1.767 1.734 2.12.613.197 1.274.292 1.92.34.65.05 1.307-.022 1.962-.022 2.464-.007 2.59.14 2.33 2.524-.165 1.51-.07 3.056-.684 4.504-.122.288-.092.645-.105.97-.062 1.923 1.188 3.457 2.992 3.684 2.06.256 3.795-.84 4.136-2.784.454-2.567.787-5.158 1.15-7.742.143-1.03.364-1.272 1.45-1.314.762-.027 1.525-.015 2.29-.032 1.2-.025 2.403.005 3.597-.1 1.46-.13 2.528-1.366 2.617-2.886.083-1.42-1.03-2.773-2.517-2.894-1.193-.094-2.397-.018-3.595-.018v.01c-.98 0-1.963.012-2.944-.005-.975-.014-1.336-.304-1.327-1.02.01-.664.388-.956 1.005-1.04 1.293-.178 2.58-.474 3.878-.537 1.46-.063 2.456-.8 3.277-1.87.65-.854.46-2.29-.373-2.975-.867-.715-1.84-1.186-3.003-1.04-1.402.178-2.798.413-4.2.565-.283.032-.7-.098-.856-.305-.135-.18-.097-.65.05-.86 1.254-1.784 2.515-3.56 3.84-5.29 3.78-4.937 7.223-10.108 10.65-15.286.42-.638.844-1.285 1.153-1.978.784-1.74.165-3.653-1.402-4.533z"/></svg>