<svg xmlns="http://www.w3.org/2000/svg" width="128" height="128" viewBox="0 0 128 128"><path d="M104.126 94.524c-.066-.53-.043-1.072-.06-1.608-.17-5.36-.453-10.717-.48-16.075-.027-5.57.196-11.145.308-16.717h.093c0-2.037.015-4.077-.006-6.114-.005-.744-.065-1.49-.17-2.23-.162-1.157-.475-2.3-.56-3.46-.227-3.1-.39-6.2-.535-9.308-.114-2.37-.518-4.68-1.26-6.928-.436-1.327-.89-2.596-2.364-3.256-.62-.277-1.044-1.04-1.505-1.626-.527-.672-1.027-1.373-1.48-2.1-1.045-1.682-2.514-2.892-4.15-3.958-1.882-1.23-3.722-2.53-5.565-3.82-1.437-1.004-2.998-1.622-4.755-1.782-1.276-.114-2.545-.336-3.813-.516-3.18-.45-6.347-.992-9.583-.8-1.39.08-2.788.013-4.183.015-1.286 0-2.54.11-3.82.386-3.658.797-7.342 1.463-11.034 2.093-1.18.202-2.283.51-3.36 1.02-2.32 1.1-4.623 2.26-7.02 3.166-3.45 1.3-6.634 2.976-9.39 5.448-2.16 1.937-3.736 4.117-3.418 7.215.032.32 0 .642.004.964.11 7.075.13 14.146.51 21.22.376 7.066.22 14.158.297 21.238.04 3.535-.283 7.082.39 10.593.08.416.024.856.035 1.285.06 2.464.142 4.928.175 7.392.01.796.213 1.483.79 2.03.615.58 1.196 1.22 1.887 1.697 1.583 1.1 3.154 2.25 4.857 3.135 3.967 2.065 7.635 4.768 12.1 5.798.623.144 1.193.48 1.805.677 3.06.976 6.082 2.09 9.19 2.864 4.725 1.174 9.525 1.455 14.332.342 2.083-.482 4.192-.88 6.248-1.465 6.112-1.73 11.975-4.052 17.23-7.71 1.142-.79 2.26-1.594 3.208-2.657.917-1.032 1.97-2.008 3.136-2.734 1.46-.908 2.13-2.028 1.92-3.717zM34.09 37.61c-1.175-.786-2.2-1.607-2.363-3.21-.083-.807-.896-1.584-.857-2.35.062-1.108 1.18-1.714 1.94-2.457 1.875-1.822 4.114-3.128 6.467-4.155 5.602-2.447 11.317-4.592 17.365-5.7 1.048-.19 2.115-.298 3.18-.4 1.81-.17 3.62-.308 5.435-.458.32-.026.665-.115.958-.034 2.112.587 4.27.273 6.404.37 1.737.08 3.456.334 5 1.076 3.468 1.668 6.996 3.22 10.194 5.437 2.1 1.454 3.58 3.395 4.873 5.48.977 1.578.683 3.33-.224 4.9-1.04 1.796-2.48 3.28-4.245 4.324-3.04 1.797-6.085 3.605-9.462 4.766-.933.32-1.842.528-2.816.527-3.11 0-6.22 0-9.328.002v.002c-2.683 0-5.367-.036-8.05.01-2.175.04-4.263-.32-6.303-1.044-2.116-.748-4.23-1.51-6.35-2.252-.503-.17-1.026-.277-1.538-.41-3.65-.955-7.13-2.312-10.283-4.427zm1.97 12.357c-.1.015-.326-.252-.353-.416-.23-1.37-.463-2.74-.623-4.12-.085-.754.493-1.12 1.272-.82 2.5.964 5.048 1.82 7.46 2.963 3.532 1.67 7.3 2.414 11.048 3.275 6.02 1.38 12.133 1.264 18.24 1.14 2.805-.057 5.45-1.042 8.083-1.964 3.03-1.063 6.048-2.165 9.09-3.186 2.358-.79 4.52-1.94 6.56-3.35.266-.183.674.027.68.342.063 3.11.106 6.22.174 9.332.02.866-.435 1.344-1.15 1.755-4.567 2.637-9.36 4.768-14.44 6.182-5.927 1.65-13.046 2.782-18.78 2.74-1.743 0-2.924.037-4.1-.018-.618-.03-1.225-.224-1.836-.344.124-.507.28-1.007.366-1.52.05-.31.025-.645-.022-.96-.1-.688-.47-1.287-1.136-1.41-.456-.08-1.047.125-1.47.385-.756.466-1.06 1.29-1.378 2.103-.416 1.07-.527 1.103-1.627 1.035-.32-.02-.642-.06-.956-.12-.393-.07-.75-.612-.612-.962.227-.6.496-1.182.734-1.778.197-.495.42-.986.54-1.5.172-.75-.23-1.557-.87-1.92-.724-.405-1.474-.38-2.124.085-.512.37-.966.853-1.348 1.36-.708.942-1.373 1.92-1.998 2.916-.358.57-.776.607-1.346.42-2.17-.72-2.242-.835-1.093-2.855.85-1.49 1.81-2.916 2.64-4.416.613-1.106.366-2.08-.564-2.874-.52-.445-1.34-.51-1.748-.01-.882 1.07-1.732 2.172-2.51 3.32-.896 1.328-1.692 2.724-2.56 4.07-.06.094-.392.102-.536.03-.173-.088-.384-.303-.39-.468-.01-.295.09-.607.2-.892.72-1.904 1.428-3.812 2.19-5.7.45-1.115.74-2.25.59-3.444-.048-.376-.302-.888-.604-1.024s-.89-.008-1.165.224c-.725.613-1.344 1.352-2.018 2.03-.15.15-.324.336-.508.363zm1.46 35.863c-.058.075-.2.15-.27.125-.072-.02-.146-.164-.153-.26-.026-.41-.058-.824-.018-1.23.013-.143.225-.264.35-.393.17.128.395.213.476.37.29.56-.064.982-.386 1.388zm-.345-15.408c-.094-.832-.196-1.664-.282-2.496-.02-.21-.004-.422-.004-.922-.05-.555-.133-1.394-.19-2.234-.034-.437.454-.754.9-.565 1.065.457 2.13.93 3.177 1.425.63.296.646.452.215.89-.67.676-1.312 1.38-2.016 2.02-.645.586-.834 1.61-1.803 1.883zm5.316 16.884c-.07-.064-.21-.144-.2-.186.05-.178.142-.346.217-.516l.215.192-.23.51zm1.228-7.652c1.13-1.69 2.34-3.328 3.462-5.026.34-.515.6-1.148.684-1.756.194-1.397-1.33-2.513-2.556-1.853-.736.393-1.39.995-1.973 1.607-1.346 1.413-2.18 3.16-3.02 4.896-.065.126-.4.253-.502.195-.147-.086-.267-.34-.272-.524-.012-.316 0-.665.128-.946.606-1.368 1.195-2.752 1.902-4.067.848-1.58 2.442-2.73 2.704-4.662.013-.082.343-.197.507-.17 2.22.348 4.434.72 6.647 1.085.01-.04.016-.08.02-.12.946.19 1.89.39 2.833.564 4.355.814 8.784.803 13.138.46 9.87-.78 19.475-2.82 28.42-7.31.566-.284 1.18-.49 1.787-.676.112-.034.36.165.454.315.103.167.142.4.144.604.01 2.573-.006 5.147.02 7.72.01.94-.355 1.716-1.055 2.243-1.62 1.22-3.17 2.658-4.99 3.477-6.54 2.942-13.265 5.435-20.22 7.24-1.437.372-2.947.65-4.426.653-3.528.006-7.06.277-10.59-.264-2.005-.308-4.053-.34-6.03-.87-.31-.085-.626-.15-.932-.24-.386-.116-.582-.706-.334-1.01.474-.58.97-1.14 1.428-1.733.194-.25.328-.555.463-.845.544-1.173.366-2.364-.423-2.933-.815-.588-2.03-.42-2.9.497-1.04 1.093-1.89 2.29-2.164 3.856-.188 1.074-.356 1.088-1.57.623-.2-.078-.48-.103-.577-.25-.147-.223-.312-.63-.21-.785zm2.08 21.754c-.07-.128-.155-.25-.203-.386-.01-.026.115-.1.178-.15.043.09.083.176.128.264-.036.09-.07.18-.102.27zM97.5 94.352c-1.92 1.696-3.892 3.29-6.338 4.245-1.38.54-2.647 1.38-3.947 2.12-2.716 1.552-5.52 2.8-8.715 2.973-.62.032-1.237.31-1.824.552-2.894 1.184-5.85 2.053-9.006 2.16-1.382.05-2.763.443-4.134.388-1.594-.064-3.213-.305-4.752-.72-2.48-.666-4.907-1.525-7.347-2.33-.92-.304-1.062-.664-.597-1.382.47-.72 1.02-1.387 1.44-2.13.47-.835.907-1.708 1.234-2.604.34-.93-.06-1.918-.922-2.53-.77-.55-1.6-.56-2.417-.107-.526.293-1.026.63-1.536.95.004.027.004.052.012.08l-.06.027c-.006.174.004.352-.054.506-.048.117-.23.18-.35.27-.01-.18-.085-.398-.01-.525.07-.12.255-.177.41-.25 0-.025 0-.052.003-.078l.047-.03c-.16-.773.406-1.322.645-1.976.25-.686.555-1.363.698-2.076.15-.76-.08-1.463-.785-1.927-.597-.39-1.342-.34-2.054.198-.78.59-1.535 1.216-2.303 1.828-.01.06-.03.117-.035.178-.03.026-.078.038-.128.05-.045.127-.09.26-.132.387-.33-.354-.064-.352.132-.39l.043-.13c.043-.03.08-.063.12-.095.245-1.506 1.454-2.755 1.205-4.413-.02-.133.43-.47.66-.473.413-.007.833.153 1.238.277 3.08.945 6.255 1.43 9.422 1.95.734.122 1.495.08 2.245.082 2.575.008 5.15-.06 7.723.02 2.168.07 4.262-.263 6.35-.775 4.164-1.022 8.183-2.487 12.208-3.947 3.937-1.43 7.795-3 11.453-5.047.494-.277.846-.075.854.47.025 1.605.017 3.215.035 4.822.03 2.357.05 4.718.117 7.076.03.914-.16 1.717-.85 2.325z"/></svg>