<svg xmlns="http://www.w3.org/2000/svg" width="128" height="128" viewBox="0 0 128 128"><path d="M123.7 73.12h-.02c0-1.614-.01-3.226 0-4.838.014-1.615-.107-3.19-.434-4.796-.44-2.153-.992-4.325-.738-6.578.053-.478-.037-1.022-.218-1.476-.97-2.43-1.807-4.932-3.36-7.072-1.723-2.376-3.216-4.875-4.512-7.5-1.045-2.12-2.81-3.35-5.058-3.91-2.26-.565-4.555-.757-6.89-.73-2.915.035-5.846.337-8.74-.32-.764-.17-1.775.043-2.286-.382-.805-.672.1-1.675.07-2.553-.024-.704.048-1.413 0-2.112-.09-1.285-.698-2.03-2.015-2.283-1.48-.285-2.98-.592-4.48-.62-5.34-.095-10.683-.13-16.02-.07-2.413.025-4.82.39-7.232.49-3.22.14-6.427-.16-9.644-.343-5.532-.31-11.086-.194-16.63-.282-1.73-.026-3.397.24-5.086.587-1.16.24-1.82.73-1.978 1.875-.124.896-.267 1.792-.328 2.69-.067 1.007-.032 2.017-.08 3.024-.02.42-.248.836-.704.836-2.714-.008-5.43-.036-8.144-.105-1.1-.027-2.2-.202-3.303-.255-.752-.035-1.336.347-1.823.91-.52.6-.428 1.427.223 1.806.89.52 1.845.79 2.876.805 1.71.023 3.43.002 5.137.115 1.696.11 3.388.337 5.075.57.23.033.544.342.597.577.11.483.095 1 .09 1.504-.014 1.277-.173 1.48-1.338 1.487-1.605.003-3.206.115-4.81-.277-.96-.24-2.003-.148-3.01-.172-.29-.002-.598.078-.877.177-.507.18-.855.53-.885 1.1-.027.558.245 1.01.738 1.204.548.215 1.146.38 1.73.42 2.003.132 4.033-.037 5.99.554 2.71-.143 2.46.325 2.397 2.517-.017.606-.028 1.21-.088 1.814-.565 5.43-.258 10.874-.19 16.31.044 3.22.243 6.44.32 9.66.015.69-.246 1.38-.297 2.076-.09 1.2-.18 2.406-.15 3.604.03.864.542 1.547 1.395 1.798.76.22 1.557.395 2.347.416 1.61.053 3.227-.028 4.84-.026.756.002 1.124.378 1.103 1.085-.032 1.003-.08 2.013-.144 3.02-.133 2.124.55 3.974 1.966 5.524 1.775 1.95 3.714 3.59 6.362 4.39 2.11.645 4.218.72 6.268.4 2.62-.404 4.883-1.642 6.447-4.005 1.15-1.734 1.733-3.605 1.983-5.614.11-.895.068-1.81.11-2.715.03-.546.42-.85 1.014-.816.303.015.612.005.905.067 3.396.74 6.84.547 10.24.283 2.923-.23 5.832-.323 8.753-.31 1.212.002 2.373-.14 3.573-.42 2.42-.563 4.87-1.222 7.4-.398.932.3 1.072.34 1.138 1.43.07 1.108.088 2.22.205 3.32.25 2.348 1.273 4.214 3.455 5.313.718.36 1.43.747 2.173 1.05 3.563 1.453 7.053 1.436 10.42-.595.604-.363 1.228-.708 1.776-1.14.463-.368.926-.797 1.22-1.295.766-1.3 1.458-2.645 2.135-3.993.224-.44.363-.942.45-1.427.107-.592.122-1.2.17-1.803.106-1.325.26-1.475 1.668-1.498.805-.013 1.614.046 2.418.004.698-.032 1.393-.155 2.086-.254.787-.11 1.31-.612 1.476-1.337.314-1.368.65-2.755.734-4.146.122-2.11.032-4.233.032-6.35zM50.524 94.07c-1.914.298-3.787-.286-5.31-1.545-.4-.333-.675-1.052-.673-1.59.02-2.573.694-4.964 2.448-6.928 1.613-1.806 4.248-2.174 6.28-.878.483.307.91.787 1.21 1.286.594.995.953 2.63.963 3.757.033 3.064-1.786 5.405-4.916 5.895zm36.07-53.534c-.067 1.504-.25 3.006-.34 4.512-.212 3.62-.44 7.238-.592 10.86-.106 2.62-.205 5.245-.12 7.863.138 4.25-.465 8.45-.63 12.674-.032.8-.367 1.092-1.094 1.13-3.616.204-7.26.204-10.84.676-3.318.434-6.628.464-9.945.6-1.706.07-3.415.195-5.122.32-1.433.108-2.81-.094-4.145-.623-1.406-.56-2.85-.977-4.373-1.11-.687-.058-.77-.362-.35-1.012.266-.42.586-.814.8-1.26.25-.527-.274-1.338-.847-1.322-.497.016-1.062 0-1.466.23-.957.543-1.836 1.226-2.744 1.85-.624 1.547-1.8 1.202-2.973.87-.19-.054-.39-.073-.58-.134-.4-.134-.378-.46-.204-.71.345-.493.79-.915 1.122-1.413.217-.324.35-.723.442-1.106.248-1.066-.725-2.052-1.767-1.82-.907.202-1.698.62-2.368 1.265-.8.766-1.59 1.544-2.4 2.302-.124.11-.403.216-.497.154-.138-.092-.216-.327-.258-.515-.21-.96.037-1.762.763-2.464 1.232-1.19 2.43-2.417 3.616-3.655.487-.508.958-1.045 1.342-1.628.658-1-.096-2.315-1.333-2.403-.84-.06-1.607.128-2.255.677-.613.518-1.195 1.078-1.813 1.59-.132.11-.413.19-.54.124-.14-.075-.235-.323-.264-.512-.132-.836.02-1.587.65-2.22 1.215-1.215 2.42-2.433 3.59-3.684.55-.583 1.06-1.214 1.493-1.885.344-.533.333-1.152-.043-1.71-.377-.557-1.21-.882-1.874-.63-.555.21-1.1.5-1.57.858-.64.485-1.196 1.078-1.81 1.597-.065.052-.417-.082-.426-.152-.207-1.696-.4-3.39-.562-5.088-.06-.604-.043-1.21-.05-1.818-.01-.85-.32-1.543-.968-2.124-.356-.32-.656-.743-.867-1.174-.3-.61.124-1.284.76-1.28.907.01 1.813.082 2.718.072.393-.004.844-.058 1.153-.264.288-.194.52-.597.597-.945.05-.225-.164-.596-.37-.766-.298-.244-.68-.438-1.053-.517-.786-.17-1.59-.264-2.387-.373-1.44-.192-1.867-.288-1.892-2.106-.02-1.642.17-1.862 1.916-1.872 1.516-.008 3.026.028 4.54.018 1.327-.01 2.59-.31 3.757-.96.445-.252.5-.912.137-1.29-.81-.85-1.81-1.27-2.96-1.304-1.714-.05-3.428-.053-5.142-.082-.603-.01-1.208-.018-1.808-.075-.173-.017-.433-.174-.477-.32-.235-.763-.453-1.537-.582-2.326-.035-.224.192-.65.395-.728.74-.285 1.517-.61 2.29-.646 1.91-.09 3.83-.032 5.92-.032 2.133-.1 4.462.324 6.743-.35.27-.08.593.032.892.056 6.24.55 12.47.4 18.712-.105 3.41-.278 6.85-.246 10.278-.29 2.116-.025 4.237.02 6.35.13 1.097.063 2.183.335 3.268.53.47.09.655.46.646.887-.046 2.317-.082 4.637-.178 6.955zM110.05 88.53c-.24.533-.603 1.054-1.03 1.444-.667.608-1.43 1.115-2.166 1.64-.528.375-1.102.415-1.72.18-.845-.316-1.727-.55-2.56-.896-1.524-.63-2.393-1.732-2.465-3.45-.073-1.747.453-3.365.96-4.987.22-.702.83-1.175 1.573-1.257 1.198-.14 2.407-.17 3.613-.245l.004.09c.505.022 1.007.04 1.51.073.587.036 1.27-.2 1.696.36.416.554.856 1.154 1.045 1.8.55 1.88.4 3.305-.462 5.25zm8.707-20.043c-.814.32-1.593.896-2.203 1.533-1.963 2.053-.786 5.115 1.214 5.698.288.085.582.162.86.275.523.216.768.617.713 1.188-.01.1-.024.198-.046.298-.21.965-.424 1.933-.638 2.896-1.035.606-2.155.206-3.235.27-.64.04-1.15-.247-1.497-.828-1.995-3.357-5.13-4.338-8.774-4.055-3.258.254-6.39.96-8.804 3.42-.572.58-1.125.642-1.894.406-1.262-.387-2.578-.424-3.884-.14-.676.15-.875.044-.794-.792.245-2.504.565-4.996.848-7.494.158-1.398.43-2.796.43-4.193.003-5.243-.116-10.485-.125-15.727-.002-2.72.125-5.443.213-8.163.02-.666.448-1.11 1.163-1.14 2.62-.11 5.238-.177 7.86-.257 0 .06 0 .12.002.18 2.318 0 4.637-.016 6.955.007 1.285.01 2.397.377 2.896 1.732 2.42 2.51 3.797 5.65 5.286 8.734 1.136 2.355 2.448 4.627 3.677 6.94.19.354.474.706.51 1.082.218 2.096.414 4.198.523 6.304.045.833-.324 1.46-1.254 1.825zM17.003 32.053c.002.06.002.12.002.18.998 0 1.997.003 2.995 0 1.003-.002 2.005.02 3.006-.02.495-.02 1.035-.056 1.46-.267.29-.146.566-.608.575-.936.013-.33-.236-.81-.515-.97-.405-.238-.94-.312-1.426-.34-1.1-.063-2.24.118-3.295-.12-1.493-.338-2.98-.297-4.474-.334-.9-.023-1.8-.11-2.7-.126-1.502-.028-3.005-.035-4.51-.02-.624.004-1.142.29-1.56.775-.235.277-.206.875.11 1.056.348.194.695.43 1.074.51 1.564.35 3.134.663 4.754.623 1.502-.038 3.006-.008 4.51-.008zm96.117 22.53c-.472-.455-.634-1.236-.917-1.876-.61-1.376-1.2-2.76-1.813-4.136-.162-.36-.293-.81-.582-1.036-1.167-.915-2.362-1.806-3.605-2.613-.483-.31-1.12-.493-1.7-.53-2.82-.18-5.602.224-8.37.73-.292.055-.565.22-.853.296-.803.215-1.127.76-1.126 1.557.003 2.21.002 4.422.002 6.633h-.05c0 1.91-.038 3.82.017 5.728.025.892.16 1.796.37 2.663.258 1.073.646 1.397 1.643 1.436 1.205.043 2.43.13 3.616-.037 4.3-.606 8.605-.62 12.926-.328.695.048 1.406.01 2.1-.06.733-.076 1.467-.97 1.44-1.697-.01-.293-.034-.626-.177-.87-1.097-1.884-1.232-4.23-2.915-5.85zm-2.965 4.51c-.892.11-1.792.176-2.688.203-2.402.08-4.82-.14-7.177.553-.376.11-.798.062-1.198.08-1.205.04-1.52-.178-1.468-1.3.166-3.42-.352-6.8-.58-10.195-.05-.787.262-1.168.985-1.2 1-.04 2.003-.008 3.004-.008v-.047c.302 0 .602-.003.903 0 3.14.076 2.675-.483 4.867 2.6 1.742 2.454 3.207 5.074 4.117 7.967.21.66-.11 1.266-.767 1.348z"/></svg>