<svg xmlns="http://www.w3.org/2000/svg" width="128" height="128" viewBox="0 0 128 128"><path d="M122.665 80.1c.077-1.56-1.18-2.876-2.756-3.11-.8-.12-1.626-.097-2.44-.083-4.532.082-9.066.19-13.6.262-.486.005-.88-.29-1.027-.787-.1-.33-.158-.677-.205-1.02-.524-3.796-1.02-7.594-1.573-11.386-.098-.676-.33-1.37-.658-1.966-1.47-2.666-3.478-4.63-6.707-4.927-1.267-.117-2.528-.377-3.797-.4-3.025-.06-6.05-.02-9.077-.02v.08c-2.095-.07-4.193-.084-6.28-.22-3.48-.225-6.953-.556-10.43-.79-2.613-.177-2.648-.143-2.635-2.89.007-1.388.146-2.778.265-4.162.078-.913.573-1.51 1.535-1.567 1.853-.11 3.708-.245 5.563-.262 2.208-.024 4.412.06 6.592-.5.757-.193 1.61-.087 2.413-.03 2.793.198 4.644-1.504 4.06-4.142-.465-2.095-.268-4.16-.398-6.24-.117-1.848-.235-3.682-.475-5.532-.475-3.622-.64-2.987-3.688-4.178-.832-.323-1.816-.338-2.73-.345-4.19-.03-8.38-.013-12.57.004-.81.003-1.63.03-2.437.127-4.28.51-8.562.765-12.875.448-1.27-.094-2.556-.03-3.83.053-.767.05-1.268.624-1.457 1.326-.176.66-.21 1.373-.242 2.064-.234 5.045.75 9.93 1.81 14.825.293 1.354.788 2.1 2.08 2.303 1.26.203 2.52.443 3.788.478 2.208.06 4.422-.04 6.633-.046 1.516-.008 1.703.164 1.683 1.53-.027 1.745-.08 3.488-.144 5.234-.044 1.158-.314 1.486-1.445 1.467-4.193-.072-8.293 1.135-12.5.86-.456-.03-.93.06-1.387.14-3.655.626-7.307 1.285-10.968 1.898-2.215.37-4.204 1.29-6.127 2.392-.956.547-1.532 1.367-1.785 2.46-.533 2.287-.915 4.622-.448 6.917.42 2.09.36 4.16.354 6.245-.003 1.354-.344 1.716-1.585 1.723-1.512.007-3.023-.056-4.538-.09-2.443-.054-4.885-.172-7.328-.148-2.524.02-2.55.18-3.284 2.62-.372 1.25-.516 2.484-.526 3.77-.034 4.306-.096 8.61-.155 12.915-.05 3.494.244 3.84 3.658 3.922 2.21.052 4.455-.2 6.626.092 7.327.988 14.612-.12 21.915-.2.115 0 .23-.018.346-.037 1.906-.317 3.235-2.15 2.895-4.06-.224-1.256-.538-2.497-.776-3.754-.78-4.1-1.81-8.167-1.647-12.396.017-.462-.032-.93-.09-1.392-.166-1.39-.832-2.04-2.298-2.107-1.742-.08-3.488-.066-5.233-.1-1.038-.02-2.072-.052-3.11-.084-.836-1.023-.376-2.226-.408-3.343-.065-2.093.004-4.19.007-6.283 0-.995.406-1.79 1.11-2.47 1.84-1.783 3.963-2.674 6.596-2.602 6.176.166 12.277-.693 18.364-1.623.802-.123 1.618-.156 2.427-.214.23-.017.47-.004.693.044.5.107.817.42.805.945-.06 3.138-.08 6.282-.23 9.418-.067 1.385-.378 2.76-.65 4.124-.05.262-.407.574-.683.656-.435.128-.92.1-1.383.1-1.98.003-3.955-.025-5.934-.005-1.76.018-2.53.78-2.543 2.57-.004.927.018 1.887.245 2.774.928 3.665.8 7.373.62 11.09-.06 1.278-.132 2.557-.157 3.836-.042 2.235.55 2.854 2.9 2.882 2.093.025 4.197.036 6.28-.13 6.617-.53 13.24-.656 19.87-.704.7-.003 1.397-.014 2.093-.042 1.758-.075 3.195-1.586 3.22-3.36.063-4.653.133-9.305.195-13.955.008-.698.035-1.403-.053-2.09-.23-1.805-1.425-2.925-3.276-2.95-2.21-.026-4.42.086-6.63.12-2.676.036-5.354.065-8.027.067-.693 0-1.005-.354-1.118-1.063-.676-4.267-.592-8.576-.754-12.87-.01-.23.03-.465.063-.694.082-.517.397-.858.917-.864 4.996-.086 9.997-.29 14.97.488 2.406.377 4.822.704 7.236 1.045 3.22.46 6.438.897 9.652 1.37.998.15 1.433.626 1.435 1.644.008 2.563.107 5.1.74 7.614.248.988.09 2.083.067 3.13-.01.515-.326.853-.868.875-.463.018-.928 0-1.394-.026-1.045-.052-2.086-.164-3.132-.172-.97-.004-1.517.454-1.717 1.4-.118.552-.155 1.134-.127 1.698.06 1.27.238 2.537.273 3.806.12 4.18.07 8.37.493 12.543.26 2.603 1.682 4.294 4.234 4.757.796.143 1.616.21 2.424.213 5.47.027 10.94.082 16.41.006 1.846-.027 3.71-.297 5.527-.65 2.53-.493 3.434-1.73 3.786-4.27.733-5.325.204-10.682.468-16.02zm-94.328 4.46c1.594-.26 3.21-.4 4.82-.57.515-.052.906.207.996.73.233 1.364.427 2.737.664 4.273-.365 1.077.82 2.246.125 3.504-1.133.156-2.272.27-3.396.48-2.382.448-4.773.87-7.125 1.444-3.094.76-6.21.418-9.325.403-.437-.002-.903-.208-1.297-.427-.277-.155-.62-.472-.65-.747-.25-2.18-.443-4.367-.628-6.553-.057-.632.366-1.1.994-1.168.347-.036.693-.07 1.04-.067 4.64.05 9.215-.56 13.783-1.3zm43.19-3.974c1.738-.256 3.452-.333 5.185-.235.504.03.793.44.752.96-.043.578-.093 1.167-.235 1.724-.69 2.7-1.156 5.427-1.237 8.224-.053 1.74-.402 2.054-2.02 2.117-.812.03-1.622.02-2.437.02h-6.26v.122c-3.02 0-6.033.01-9.05-.006-.86-.003-1.232-.397-1.277-1.266-.14-2.663-.29-5.323-.387-7.986-.025-.683.072-1.383.213-2.056.124-.6.53-1.052 1.184-1.08.812-.035 1.644-.097 2.43.04 4.426.767 8.787.065 13.135-.577zM51.58 40.742c-1.36.078-2.75-.25-4.112-.47-.245-.04-.593-.45-.62-.718-.115-1.152-.148-2.315-.172-3.473-.087-3.847-.258-3.47 3.6-3.394 3.483.067 6.964.014 10.45.014v-.054c4.064 0 8.126-.02 12.192.01 1.58.015 1.582.068 1.95 1.78.12.565.278 1.133.32 1.707.098 1.39.16 2.77.66 4.096.155.403-.248.627-.608.612-7.885-.3-15.77-.555-23.66-.11zm66.23 42.838c-.477 3.104-.545 6.23-.52 9.36.007.913-.357 1.29-1.22 1.3-2.9.027-5.8-.01-8.7.04-4.053.063-8.117-.293-12.15.458-.458.088-.884-.267-.933-.81-.064-.692-.09-1.388-.12-2.084-.103-2.31-.02-4.632-.534-6.923-.176-.773-.085-1.614-.082-2.422.007-.59.5-1.035 1.133-1.04.578-.002 1.158.05 1.74.052 3.13.004 6.26 0 9.394 0v.167c3.712 0 7.424-.008 11.136.01.5.003.867.29.883.852.01.346.03.7-.023 1.04z"/></svg>