<svg xmlns="http://www.w3.org/2000/svg" width="128" height="128" viewBox="0 0 128 128"><path d="M124.64 36.525c-.405-.476-1.155-.633-1.573-.34-2.394 1.663-4.72 3.4-6.677 5.595-.81.91-1.243 1.955-1.555 3.083-.292 1.048.066 2.112.963 2.763.8.584 1.696.868 2.598.267.866-.576 1.756-1.157 2.478-1.892 1.72-1.75 3.238-3.664 4.11-6.012.102-.272.435-.46.662-.683V37.9c-.333-.46-.64-.945-1.007-1.374zm-16.142 23.088c-2.66-4.528-5.073-9.19-7.06-14.043-.933-2.272-1.968-4.462-3.116-6.62-.962-1.805-2.19-3.028-4.464-2.318-.318.1-.693.043-1.04.02-4.8-.317-9.532.225-14.244 1.068-.57.098-1.163.098-1.744.094-2.447-.01-4.896-.032-7.344-.077-.814-.016-1.653.01-2.43-.186-1.84-.46-3.7-.403-5.563-.433-8.4-.128-16.78.31-25.165.702-1.165.052-2.338 0-3.494.127-.664.075-1.445.248-1.92.668-1.384 1.227-2.867 2.366-3.886 3.977-1.307 2.07-2.76 4.048-4.048 6.127-2.7 4.36-5.326 8.767-7.267 13.535-.35.853-.608 1.742-.896 2.562.665 2.328.804 4.663 2.498 6.507 2.126 2.32 4.14 4.745 6.15 7.164 3.877 4.66 7.663 9.397 11.583 14.016 5.053 5.955 10.227 11.808 15.296 17.752 1.973 2.313 4.038 4.516 6.286 6.562.41.37.7.885 1.01 1.355.126.19.135.45.252.644.594 1 1.71 1.363 2.693.7 1.154-.774 2.267-1.643 3.27-2.6 4.804-4.592 9.53-9.27 14.353-13.84 5.178-4.91 9.752-10.34 14.13-15.95 4.224-5.413 8.186-11.04 13.06-15.923.81-.813 1.397-1.866 1.984-2.864.344-.587.594-1.27.302-2.005-.2-.505.05-.803.46-1.145 2.094-1.763 2.222-2.493.943-4.704-.174-.298-.413-.562-.587-.863zM87.93 46.315c.307-.55.798-.83 1.426-.846 1.05-.03 2.1-.018 3.147-.08.912-.054 1.933-.51 2.7-.228 1.16.427 1.256 1.858 1.732 2.89 1.606 3.49 3.174 7.002 4.752 10.508.226.507.02.984-.46 1.073-.456.085-.92.133-1.384.19-4.403.54-8.59 2.056-12.94 2.846-1.477.27-2.964.49-4.445.73l-.03-.236c-.7 0-1.397.02-2.096-.006-.632-.027-.763-.315-.448-.942C82.24 57.533 84.6 52.85 86.96 48.17c.317-.623.63-1.247.973-1.855zm-23.67-1.82c1.846-.155 3.7-.22 6.205-.362 3.29.292 7.214.633 11.133 1 .975.092 1.28.58.92 1.347-2.07 4.413-4.14 8.826-6.226 13.227-.527 1.112-.806 1.16-1.696.2-1.42-1.53-2.86-3.054-4.142-4.7-2.353-3.02-4.61-6.112-6.88-9.198-.484-.656-.136-1.447.686-1.517zm-4.63 4.527c.69-.825 1.266-.747 1.875.243.736 1.19 1.445 2.394 2.165 3.592 2.056 3.403 4.505 6.51 7.1 9.515.234.27.048.738-.292.784-.344.043-.69.105-1.035.105-3.264.013-6.528.008-9.792.008 0-.03 0-.06.004-.09-3.493-.065-6.99-.118-10.48-.223-.15-.005-.368-.464-.405-.73-.02-.174.21-.4.36-.575 2.77-3.3 5.555-6.59 8.326-9.892.747-.896 1.43-1.842 2.176-2.737zM36.763 44.78c1.978-.044 3.957-.065 5.934-.08 1.165-.013 2.33 0 3.494 0v.07c2.797 0 5.59 0 8.386.007.35 0 .698.037 1.045.072.488.047.79.62.5.99-1.297 1.643-2.603 3.28-3.92 4.907-1.315 1.632-2.654 3.243-3.966 4.877-.802.996-1.56 2.03-2.364 3.026-1.388 1.72-1.404 1.718-2.63-.39-.643-1.108-1.248-2.238-1.88-3.353-1.55-2.73-3.108-5.46-4.66-8.194-.17-.3-.34-.608-.495-.922-.213-.425.08-1 .555-1.01zM24.987 62.552c2.467-4.34 4.944-8.68 7.424-13.013.115-.2.286-.366.43-.545.327-.42.783-.352 1.047.18 2.136 4.255 4.27 8.515 6.394 12.775.445.894.26 1.194-.827 1.21-2.325.027-4.65.007-6.976.007-2.322.122-4.64.25-6.955.37-.48.028-.795-.526-.534-.982zM45.8 93.008c-.504.286-.917.066-1.216-.306-.58-.728-1.12-1.488-1.647-2.254-.81-1.178-.784-1.316.094-2.42.506-.633 1.054-1.25 1.44-1.95.692-1.264-.16-2.585-1.63-2.736-1.174-.122-1.97.5-2.82 1.137-.797.595-1.195.52-1.756-.183-.435-.547-.836-1.12-1.248-1.685-.328-.445-.24-.907.1-1.262.724-.75 1.527-1.433 2.247-2.192.49-.512.866-1.123.52-1.888-.416-.917-1.09-1.58-2.14-1.486-.787.073-1.588.315-2.31.644-.618.288-1.12.823-1.706 1.195-.13.083-.506.016-.592-.11-.178-.253-.405-.658-.316-.878.35-.856.82-1.656 1.236-2.483.363-.725.125-1.347-.365-1.915-.5-.58-1.136-.797-1.873-.663-.336.06-.666.197-.978.344-.52.248-1.1.82-1.523.72-.608-.146-1.102-.772-1.632-1.21-.177-.146-.316-.34-.475-.51-2.69-2.88-2.945-3.364-2.556-3.4 1.378-.116 2.763-.132 4.147-.16 1.28-.018 2.565 0 3.847 0v.07c2.214 0 4.43.053 6.64-.02 1.262-.04 1.903.48 2.305 1.638 2.337 6.7 4.72 13.38 7.076 20.073.384 1.094.747 2.2 1.042 3.322.085.32-.075.576-.576.323-1.13-.572-2.26-.356-3.334.248zm7.083 10.293c-.014-.03-.018-.07-.02-.105l-.104-.123c0-.024.006-.05.01-.074-.51.094-.793-.27-1.053-.6-.782-1.003-1.534-2.03-2.295-3.047-1.657-2.213-1.63-2.645.338-4.587.088-.09.4.015.59.077.092.028.176.162.207.266.755 2.424 1.508 4.848 2.24 7.28.056.183-.002.4-.027.61.026-.005.045.003.07-.004.008.066.013.134.02.2.07.08.137.16.204.243-.062-.045-.153-.078-.178-.133zm7.545-1.58c-.315.998-.527 2.027-.85 3.02-.095.295-.35.656-.618.758-.467.18-.456-.314-.546-.594-1.63-5.09-3.227-10.193-4.885-15.275-2.06-6.3-4.39-12.505-7.22-18.508-.594-1.26-.688-1.442.71-2.55.867-.69 1.666-1.23 2.394-1.118 8.067.856 15.75.734 23.433.672.344 0 .74-.038 1.02.115.22.125.473.587.4.77-.3.755-.704 1.467-1.092 2.183-5.274 9.75-9.404 19.975-12.747 30.528zm42.327-36.53c-.728 1.045-1.328 2.22-2.21 3.108-2.972 2.987-5.393 6.415-7.892 9.763-4.388 5.878-8.866 11.68-13.74 17.17-1.233 1.39-2.61 2.656-3.93 3.974-3.206 3.21-6.417 6.42-9.632 9.62-.574.574-1.163 1.137-1.78 1.668-.11.095-.387.02-.58-.02-.057-.015-.137-.194-.115-.273.078-.34.192-.67.292-1.007 1.6-5.834 3.552-11.55 5.78-17.176C71.953 84.432 75.312 77.02 79.4 69.95c.175-.298.35-.603.518-.908.302-.547.75-.87 1.385-.907.117-.005.235-.015.348-.007 4.04.355 7.806-.992 11.65-1.865 2.377-.54 4.757-1.067 7.15-1.534.67-.134 1.384-.04 2.076-.028.34.014.422.205.23.482zM33.75 26.313c.538 1.182 1.418 2.128 2.506 2.842.73.476 1.536.503 2.328.132.83-.384 1.105-1.157 1.222-1.98.046-.33-.08-.684-.128-1.025-.2-1.396-.772-2.655-1.352-3.932-1.72-3.792-3.934-7.388-4.712-11.57-.062-.33-.264-.643-.42-.954-.396-.78-.997-1.267-1.896-1.326-1.05-.07-1.835.403-2.264 1.308-.388.82-.608 1.723-.898 2.575.277 1.118.4 2.18.804 3.12 1.55 3.625 3.17 7.22 4.808 10.81zm29.84.63c.196.51.656.948 1.068 1.347.81.79 2.22.47 2.547-.636.26-.875.405-1.81.44-2.723.065-1.857.018-3.717.018-5.575h-.043c0-1.627.02-3.256-.008-4.88-.02-1.046-.018-2.11-.213-3.126-.17-.893-.52-1.775-.944-2.58-.33-.64-.98-.98-1.75-.916-.78.06-1.254.573-1.565 1.216-.196.41-.383.878-.39 1.32-.074 4.412-.175 8.824-.11 13.236.018 1.113.534 2.24.95 3.317zM18.244 49.23c.486-1.003.46-2.034-.184-2.987-.19-.286-.445-.544-.71-.768-3.215-2.72-6.747-4.988-10.334-7.168-.282-.174-.657-.188-.804-.228-.787-.015-1.604.666-1.666 1.282-.045.46-.128.995.056 1.374.507 1.038 1.01 2.128 1.758 2.98 1.926 2.21 4.213 4.033 6.638 5.668.666.448 1.44.782 2.205 1.027 1.105.353 2.58-.234 3.042-1.183zm81.7-21.526c.48-.296.98-.674 1.273-1.14 1.554-2.454 3.054-4.947 3.89-7.756.23-.768.28-1.59.342-1.976-.038-1.28-.257-2.048-1.085-2.466-.783-.392-1.58-.33-2.32.128-.39.243-.76.537-1.09.86-2.353 2.325-3.924 5.17-5.21 8.17-.56 1.306-.058 2.506.77 3.567.836 1.07 2.253 1.346 3.43.618z"/></svg>