<svg xmlns="http://www.w3.org/2000/svg" width="128" height="128" viewBox="0 0 128 128"><path d="M81.998 65.358c-1.346-1.333-3.03-2.114-4.66-2.98-.732-.387-1.145-.932-1.125-1.753.082-3.218-.023-6.458.336-9.647.304-2.716.43-5.42.45-8.14.004-.867-.02-1.734.01-2.598.02-.57.375-.864.925-.935 1.47-.192 2.96-.282 4.398-.606 1.062-.24 2.144-.645 3.058-1.226 1.356-.864 1.836-2.176 1.535-3.843-.647-3.615-3.235-5.37-6.24-6.765-1.2-.56-2.692-.303-3.742-1.31-.043-1.357-.093-2.717-.117-4.074-.02-.99-.005-1.983-.005-2.973h-.007c0-1.982.013-3.964-.01-5.944-.005-.36-.048-.79-.25-1.05-.17-.218-.728-.424-.885-.312-.588.414-1.217.876-1.58 1.473-.907 1.5-1.245 3.204-1.45 4.937-.278 2.333-.532 4.668-.89 6.988-.127.84-.443 1.675-.807 2.45-.65 1.398-1.812 1.938-3.345 1.774-1.003-.11-1.532-.518-1.732-1.582-.368-1.945-.718-3.883-.64-5.888.08-2.1.036-4.21.008-6.315-.016-1.11-.09-2.227-.193-3.334-.07-.81-.502-1.1-1.573-1.182-.752-.06-1.152.23-1.254.977-.365 2.694-.814 5.376-.798 8.114.01 2.105-.036 4.216-.222 6.31-.304 3.468-.356 3.468-3.27 5.196-.637.378-1.322.68-1.943 1.084-2.28 1.482-4.63 2.88-6.792 4.52-3.983 3.022-6.807 6.97-7.516 11.962-.91 6.418-1.044 6.652 3.777 11.04 2.853 2.596 6.287 4.375 9.506 6.453.728.467 1.486.885 2.216 1.353 1.034.657 1.49 1.496 1.202 2.81-.34 1.562-.555 3.17-.64 4.766-.114 2.223.03 4.462-.102 6.684-.123 2.09-.352 4.19-.74 6.244-.2 1.056-.8 2.06-1.322 3.03-.443.827-1.196 1.23-2.175 1.075-.486-.08-.98-.124-1.46-.24-2.56-.616-5.166-.513-7.762-.415-.842.032-1.71.272-2.5.587-2.32.924-3.02 2.326-2.404 4.7.57 2.192 1.938 3.707 4.092 4.435 2.354.798 4.79 1.184 7.264 1.414 1.593.15 3.17.462 4.754.7.558.082.893.394.924.96.04.74.103 1.487.048 2.222-.166 2.248.288 4.43.646 6.624.245 1.493.907 2.818 1.928 3.928.154.168.757.162.945 0 .355-.31.628-.762.818-1.205.882-2.063 1.352-4.22 1.486-6.465.08-1.355.23-2.71.46-4.045.5-2.89.62-3.628 4.448-3.538 1.084.027 1.725.26 1.718 1.832-.008 1.856.02 3.717.125 5.57.113 2.004.563 3.913 1.95 5.48.355.4.94.347 1.17-.138 1.13-2.372 1.584-4.924 1.985-7.488.344-2.197.686-4.395 1.067-6.585.18-1.06.768-1.803 1.888-2.032.24-.05.47-.15.704-.23 6.997-2.433 10.46-7.65 11.15-14.742.687-7.076-1.786-13.112-6.832-18.11zm-22.3-14.507c-.132.977-.4 1.943-.435 2.917-.11 2.955.02 2.883-2.917 1.525-1.46-.674-2.784-1.63-3.793-2.91-1.85-2.342-1.703-2.362-.17-4.43 1.4-1.888 2.85-3.723 4.596-5.307.36-.33.785-.597 1.197-.864.334-.22 1.122.004 1.277.413.39 1.027.717 2.075.987 2.866-.273 2.122-.497 3.956-.744 5.79zm8.3 38.215c-.09.773-.417 1.387-1.286 1.587-.594.14-1.16.385-1.743.572-.95.304-1.49-.025-1.458-.94.067-1.844 0-3.718.306-5.527.618-3.665.548-7.356.72-11.04.04-.86.068-1.717.16-2.57.088-.833.835-1.092 1.658-.735.992.435 1.513 1.173 1.794 2.182.672 2.395.97 4.82.875 7.315-.34 3.053-.672 6.106-1.03 9.155zm.735-30.5c-.075.306-.418.757-.65.768-.43.017-1.036-.107-1.28-.407-1.334-1.608-1.716-3.533-1.52-5.568.228-2.336.51-4.666.78-6.994.2-1.713.5-3.42.608-5.138.116-1.87.653-2.194 2.685-1.856.23.037.57.493.557.74-.116 2.59-.298 5.176-.398 6.758.14 4.602.07 8.18-.78 11.695zm9.064 26.5c-.224.233-.667.42-.964.37-.238-.04-.58-.472-.58-.736-.04-2.934-.03-5.868-.005-8.8.002-.2.192-.53.346-.566.18-.038.495.124.623.293 1.266 1.69 1.94 3.576 1.98 5.404.054 1.526-.31 2.918-1.398 4.033z"/></svg>