<svg xmlns="http://www.w3.org/2000/svg" width="128" height="128" viewBox="0 0 128 128"><path d="M117.323 49.32c-.067-2.44-.773-4.502-2.57-6.22-2.23-2.14-4.368-4.377-6.574-6.542-.546-.54-1.165-1.02-1.81-1.424-.99-.62-1.817-.448-2.693.363-.74.683-.95 1.49-.56 2.39.3.703.673 1.39 1.115 2.015 1.46 2.07 2.8 4.242 4.63 6.033.1.1.087.352.07.53-.005.064-.17.157-.266.16-.768.043-1.54.093-2.31.09-8.393-.04-16.79-.09-25.185-.143-.66-.004-1.343.045-1.976-.107-2.394-.572-4.823-.53-7.253-.505-14.9.156-29.812-.47-44.7.65-2.75.21-5.502.364-8.254.51-.277.014-.602-.18-.83-.366-.084-.07-.012-.433.09-.603.513-.85 1.08-1.665 1.588-2.52.62-1.036 1.25-2.072 1.78-3.155.5-1.008.632-2.105.36-3.224-.155-.636-.903-1.012-1.558-.814-.774.235-1.35.672-1.778 1.38-.8 1.318-1.597 2.65-2.51 3.888-1.56 2.112-3.034 4.328-5.462 5.598v6.633c.184.253.5.493.53.762.213 1.973.622 3.968.476 5.923-.178 2.362.326 4.583.704 6.848.542 3.26 1.157 6.504 1.702 9.762.38 2.278.623 4.585 1.056 6.85.64 3.355 1.54 6.66 2.066 10.028.625 4.02 2.212 7.538 4.597 10.784.628.858 1.31 1.496 2.295 1.758 1.378.373 2.77.77 4.18.94 4.824.584 9.668.847 14.534.813 2.64-.02 5.283.286 7.927.348 2.645.06 5.3.12 7.94-.04 2.855-.176 5.693-.636 8.544-.91.985-.097 2.008-.157 2.977.003 3.18.523 6.384.356 9.58.5.77.033 1.575-.025 2.303.177 1.522.422 3.06.4 4.6.39 3.75-.028 7.488-.088 11.243-.376 2.395-.182 4.44-1.168 6.642-1.79.39-.113.712-.5 1.045-.782.504-.427.947-.946 1.49-1.307 1.384-.91 2.075-2.19 2.412-3.79.65-3.125 1.22-6.287 2.175-9.326 2.16-6.89 3.047-13.98 3.627-21.126.277-3.41.856-6.78 1.192-10.175.363-3.614.917-7.22.813-10.88zm-4.816 6.393c-1.347 5.35-2.254 10.78-3.144 16.22-.62 3.796-1.205 7.6-2.187 11.34-.725 2.77-1.488 5.528-2.22 8.29-.628 2.355-2.026 4.114-3.583 5.84-.717.793-1.566 1.194-2.656.96-.213-.047-.437-.03-.66-.04-.22.02-.438.058-.66.055-.966-.006-1.19-.277-.977-1.13.158-.635.358-1.268.424-1.917.028-.273-.17-.76-.382-.83-.37-.133-.85-.103-1.242 0-.288.08-.567.35-.764.6-.403.523-.9 1.04-1.088 1.64-.736 2.34-2.595 2.738-4.645 2.878-.222.015-.448.02-.663-.004-.54-.064-1.288.038-1.565-.27-.547-.62.19-1.18.5-1.693 1.025-1.7 2.124-3.356 3.154-5.053.52-.856.926-1.758.664-2.82-.12-.492-.89-.914-1.296-.61-.524.39-1.105.775-1.466 1.296-1.19 1.724-2.293 3.506-3.424 5.27-.416.647-.885 1.28-1.205 1.976-.74 1.607-1.888 2.237-3.69 2.11-1.295-.093-2.62.246-3.935.364-.444.036-.82-.42-.752-.88.096-.645.29-1.283.34-1.932.052-.65-.86-1.198-1.436-.876-.475.263-.965.555-1.328.95-.448.48-.762 1.076-1.14 1.617-.545.78-1.277 1.174-2.244 1.174-2.21.007-4.42.06-6.628.075-.656.002-.885-.37-.7-1.107.08-.317.24-.617.312-.94.208-.913.05-1.68-.356-1.79-.7-.19-1.355.013-1.85.47-.802.75-1.546 1.56-2.27 2.384-.62.705-1.313 1.133-2.294 1.084-1.214-.06-2.43-.03-3.644-.06-.47-.01-.772-.495-.59-.924.215-.512.45-1.007.667-1.515.17-.405.36-.81.47-1.234.327-1.24.076-2.697-.45-2.722-.972-.043-1.63.557-2.273 1.173-1.36 1.313-2.376 2.88-3.343 4.488-.813 1.35-.975 1.373-2.4 1.056-.323-.072-.645-.15-.968-.235-.96-.246-1.158-.545-.79-1.345.513-1.102 1.1-2.163 1.605-3.268.365-.796.757-1.59.65-2.528-.066-.57-.69-1.046-1.172-.763-.467.275-.986.546-1.32.95-.77.93-1.445 1.944-2.15 2.93-.515.718-1.075 1.407-1.514 2.172-.946 1.652-3.114 1.38-4.645.25-.16-.116-.187-.63-.075-.865.722-1.487 1.497-2.95 2.256-4.42.91-1.76 1.843-3.515 2.716-5.298.112-.227-.017-.62-.125-.9-.115-.296-.88-.386-1.188-.142-.433.334-.87.675-1.233 1.084-2.283 2.565-4.16 5.42-5.822 8.42-.64 1.152-1.882 1.347-2.997.444-.182-.146-.275-.613-.182-.843.53-1.33 1.102-2.644 1.713-3.94.94-1.992 1.91-3.97 2.89-5.94.41-.815.62-1.64.42-2.55-.09-.422-.624-.725-.983-.55-1.037.514-1.728 1.373-2.283 2.336-1.21 2.106-2.38 4.233-3.58 6.34-.268.474-.596.914-.916 1.355-.05.07-.217.134-.285.1-.176-.077-.433-.185-.467-.33-.288-1.204-.247-2.4.184-3.575.453-1.237.904-2.477 1.355-3.718.224-.622.48-1.233.66-1.87.14-.48-.103-.906-.532-1.073-.24-.096-.715-.01-.866.17-.63.756-1.166 1.59-1.766 2.372-.08.107-.4.156-.506.085-.16-.106-.333-.36-.318-.532.058-.653.07-1.347.315-1.94 1.087-2.644 1.81-5.44 3.32-7.916.51-.833.81-1.8 1.153-2.725.18-.483-.277-1.067-.823-1.253-.68-.235-1.374-.192-1.888.243-.655.555-1.22 1.24-1.745 1.933-.527.693-.948 1.47-1.444 2.187-.04.06-.46-.018-.475-.082-.477-2.033-.974-4.066-1.366-6.115-.725-3.792-1.574-7.546-2.756-11.23-.5-1.563-.745-3.212-1.056-4.83-.13-.664.555-1.342 1.248-1.17 1.96.478 3.94.485 5.925.407 1.21-.047 2.41-.227 3.616-.34 1.1-.1 2.2-.23 3.3-.27 9.825-.35 19.65-.588 29.48-.46 1.877.026 3.755.01 5.635.02 4.41.02 8.82-.09 13.22.42 1.968.23 3.97.182 5.958.182 8.62.017 17.235.007 25.854.01.883 0 1.767-.003 2.648.027.65.023 1.106.43 1.06 1.003-.063.875-.123 1.767-.335 2.613zM25.81 43.283c.11.166.335.345.51.347.187.004.477-.155.544-.316.205-.493.433-1.013.454-1.536.064-1.544-.026-3.093.053-4.633.055-1.09.26-2.176.447-3.26.13-.763.687-1.073 1.42-1.13 2.307-.178 4.618-.533 6.922-.505 5.07.06 10.14.31 15.21.49.55.018 1.1.09 1.65.138 1.75.164 3.503.408 5.257.47 3.424.122 6.846.142 10.267.206.883.017 1.765.043 2.645.068 3.42.107 6.834.215 10.253.306.433.01.88-.05 1.31-.142 4.155-.89 8.355-.322 12.536-.4.554-.01.96.468.964 1.11.01 1.214-.028 2.426-.043 3.64-.013 1.104-.08 2.21-.015 3.308.088 1.45 1.02 2.475 2.15 2.522 1.31.056 2.26-.995 2.31-2.664.045-1.544.07-3.093-.018-4.636-.1-1.77-.576-3.48-1.338-5.084-.45-.942-1.145-1.64-2.335-1.465-1.877.274-2.13-.165-2.105-1.92.014-1.105.03-2.214-.065-3.31-.083-.98-.216-1.984-.518-2.915-.386-1.192-1.278-2.216-2.46-2.435-3.694-.693-7.436-.953-11.193-.488-.98.123-1.963.3-2.95.326-9.376.25-18.752.47-28.128.704v-.03c-2.54 0-5.077-.018-7.614.005-1.1.01-2.222-.01-3.3.18-1.946.342-3.935.496-5.804 1.233-1.856.73-2.79 2.152-2.886 4.05-.064 1.294-.363 2.666.355 3.892.267.452-.047.64-.3.744-.61.248-1.25.442-1.89.603-1.61.4-2.468 1.59-2.65 3.06-.352 2.845-.47 5.72-.06 8.58.047.31.234.615.415.88zm8.034-14.264c.46-1.15.66-2.323.605-3.55-.045-.927.536-1.386 1.315-1.67.207-.077.41-.218.62-.226 2.42-.075 4.746-.98 7.208-.768 1.315.11 2.645.035 3.968.046 9.26.07 18.525-.195 27.775.56 2.962.24 5.952.117 8.93.16.662.008 1.334-.067 1.985.024 3.56.498 3.357.2 3.21 3.467-.03.66-.017 1.325-.047 1.984-.036.858-.293 1.035-1.233 1.168-5.81.814-11.648.738-17.49.533-.88-.033-1.764-.006-2.648-.006v.058c-4.85-.064-9.723.125-14.55-.262-5.727-.46-11.45-.433-17.18-.49-.55-.007-1.102.012-1.653 0-1.058-.025-1.17-.13-.813-1.03zM85.15 58.85c-1.74-.398-3.49-.608-5.153.288-2.084 1.12-2.385 3.715-.576 5.234.674.562 1.474.97 2.2 1.467.503.346.75.855.543 1.43-.71 1.98-1.254 3.975-1.216 6.11.013.757-.506 1.178-1.3 1.184-2.648.015-5.302-.064-7.948.01-4.96.143-9.92.393-14.88.542-2.98.088-5.96.072-8.94.11-1.916.023-2.167-.126-2.13-1.96.025-1.328.11-2.653.06-3.975-.063-1.646.306-2.88 1.86-3.877 1.49-.953 1.642-2.46 1.04-4.128-1.15-3.19-4.82-4.824-8.316-1.705-.866.77-1.083 1.84-.718 3.04.27.884.7 1.618 1.41 2.173.783.61.957 1.4.93 2.34-.073 2.645-.102 5.296-.13 7.945-.018 2.317.545 3.104 3.225 3.876.624.18 1.313.166 1.974.173 1.544.02 3.09-.035 4.635 0 2.093.053 4.19.14 6.28.252 1.76.094 3.513.32 5.272.365 2.54.064 5.078.017 7.617.02 1.215 0 2.43-.02 3.643.003.773.017 1.542.148 2.312.138 1.877-.023 3.755-.037 5.623-.18 1.314-.095 2.283-.803 2.62-2.154.188-.74.433-1.5.428-2.248-.01-1.43-.178-2.86-.29-4.282-.085-1.1-.183-2.195-.277-3.293-.086-1.05.153-1.984 1.03-2.648.9-.674 1.03-1.6 1.043-2.645.014-1.17-.35-2.167-1.077-3.043-.203-.242-.5-.49-.795-.562z"/></svg>