<svg xmlns="http://www.w3.org/2000/svg" width="128" height="128" viewBox="0 0 128 128"><path d="M77.263 76.638c2.354.115 3.298-.63 3.534-2.62.11-.928.135-1.892.01-2.816-.206-1.552-.575-3.083-.86-4.624-.47-2.573-.94-5.146-1.385-7.723-.13-.757.014-1.423.677-1.963 1.54-1.257 3-2.622 4.574-3.838 2.747-2.126 5.216-4.53 7.484-7.147.475-.548.893-1.163 1.236-1.803.58-1.084.263-2.06-.88-2.61-.645-.31-1.365-.51-2.075-.64-.61-.11-1.257-.09-1.884-.057-3.374.192-6.68-.542-10.027-.704-.62-.032-1.226-.27-1.84-.39-.714-.138-.986-.596-1.188-1.266-1.5-4.928-3.51-9.636-6.086-14.106-.697-1.205-1.616-2.18-2.564-3.152-.457-.466-1.195-.476-1.72-.037-.394.33-.79.696-1.068 1.12-.74 1.14-1.42 2.326-2.12 3.493-1.518 2.51-3.003 5.04-4.563 7.524-.943 1.506-2.02 2.928-3 4.41-.312.47-.672.752-1.24.82-1.662.207-3.333.374-4.98.684-2.264.43-4.524.85-6.835.92-.95.03-1.862.168-2.736.61-1.44.73-1.71 1.52-1.206 3.057.448 1.36 1.508 2.243 2.274 3.354 1.32 1.916 2.892 3.57 4.806 4.918.846.597 1.58 1.37 2.308 2.116.85.87 1.163 1.935 1.096 3.165-.162 3.153-.678 6.22-1.765 9.202-.715 1.964-1.218 4.003-1.756 6.023-.345 1.298.91 2.512 2.226 2.204.405-.095.79-.27 1.184-.414 1.184-.424 2.334-1.013 3.552-1.248 3.154-.605 5.844-2.237 8.636-3.653.653-.33 1.32-.642 1.943-1.026 1.202-.74 2.282-.64 3.52.065 3.03 1.728 5.703 3.923 8.27 6.234 1.427 1.287 3.008 1.797 4.44 1.917zm-9.38-11.706c-.632-.736-1.22-1.333-2.296-1.446-.497-.053-.928-.74-1.385-1.148-.8-.715-1.29-.79-2.27-.285-.464.242-.976.45-1.343.8-2.03 1.94-4.64 2.793-7.11 3.915-.44.2-.742.176-.99-.317-.53-1.04-1.435-1.07-2.435-.83-.154.04-.49-.094-.5-.176-.037-.288-.076-.706.088-.86.533-.493 1.157-.883 1.74-1.323.664-.504 1.37-.965 1.97-1.54.82-.787.594-1.523-.562-2.095-.522-.26-.62-.544-.25-.83.495-.384 1.03-.715 1.51-1.114.4-.327.783-.69 1.103-1.087.578-.73.122-1.767-.8-1.886-.312-.04-.623-.053-1.017-.085-.336.09-.75.168-1.14.31-.49.18-.778.072-.863-.47-.122-.778-.602-1.287-1.227-1.735-.68-.486-1.312-1.04-1.94-1.592-.428-.373-.577-.832-.342-1.402.318-.77.597-1.56.875-2.348.204-.584.063-1.262-.37-1.376-.476-.125-1.03-.17-1.494-.044-.356.096-.644.5-.923.8-.207.227-.324.544-.54.757-.12.117-.465.208-.54.136-.968-.94-1.914-1.907-2.837-2.89-.053-.055.096-.447.213-.486.387-.123.802-.212 1.21-.22 2.096-.033 4.193-.052 6.29-.052 1.595 0 3.124-.343 4.605-.88.977-.354 2.01-.717 2.244-1.956 3.25-3.996 5.657-8.53 8.31-12.91.1-.168.36-.405.462-.37.226.082.495.278.573.492 1.643 4.52 3.253 9.052 4.91 13.565.122.334.5.707.836.81 1.59.487 3.134 1.082 4.844 1.252 2.39.242 4.76.66 7.175.733.603.017 1.204.304 1.795.507.077.027.146.392.093.433-1.34 1.003-2.74 1.928-4.036 2.98-2.194 1.778-4.33 3.634-6.48 5.463-.24.204-.466.43-.65.684-.406.55-.577 1.274-.12 1.746.91.94.898 2.056.96 3.206.174 3.136.38 6.27.56 9.405.026.42.02.84.005 1.258-.022.53-.676.864-1.16.533-1.206-.82-2.457-1.61-3.537-2.58-1.17-1.04-2.197-2.25-3.22-3.44zM91.666 95.66c.015 0 .03.003.043.007-.013-.028-.028-.048-.04-.075-.017 0-.034 0-.05-.002.014.02.032.043.046.067zm-1.282-.636c-.816-.107-1.63-.256-2.45-.31-1.144-.07-2.293-.12-3.44-.074-.898.037-1.787.63-2.693.02.35-.76.704-1.518 1.043-2.282.68-1.54 1.297-3.09 1.224-4.828-.03-.76-.197-1.442-.642-2.065-.395-.552-1.158-.757-1.613-.25-.516.576-1.06.896-1.82 1.07-1.977.45-3.727 1.445-5.24 2.76-2.04 1.772-3.518 3.882-3.333 6.79.11 1.742.77 3.038 2.59 3.462.53.125.92.302 1.25.798 2.47 3.727 6.305 4.615 10.395 4.766 1.22.048 2.416-.444 3.672.155.46.22 1.254-.02 1.795-.27 2.086-.954 3.145-3.568 2.664-5.797-.31-1.425-1.42-2.21-2.118-3.31-.476-.118-.994-.155-1.28-.633zm-6.63 3.634c-.075-.183-.263-.43-.203-.533.13-.22.39-.363.61-.55.128.23.303.454.27.49-.2.225-.447.402-.675.594zm2.976-.064c-.22.124-.654-.245-.59-.51.037-.15.22-.27.414-.49.18.19.4.353.5.57.038.08-.175.344-.325.43zm3.45 1.3c-.126-.236-.21-.497-.27-.758-.016-.064.102-.16.157-.245.25.24.498.477.82.78-.372.123-.69.257-.708.225zm14.76-13.31c-1.446-.63-2.94-1.093-4.544-1.077-1.26.013-2.512.034-3.77.036-.653.002-.838-.23-.732-.94.352-2.3.323-4.605-.083-6.878-.35-1.96-1.3-2.31-3.04-1.316-.27.154-.553.29-.83.435-3.12 1.585-4.462 4.288-4.697 7.624-.1 1.46.03 2.932-.034 4.396-.073 1.68.58 3.05 1.623 4.288.51.604 1.022 1.203 1.533 1.803.49.102 1.035.105 1.306.636.403.032.824.008 1.196.132 2.243.764 4.55.565 6.848.527 1.628-.03 3.057-.643 4.338-1.613.875-.66.87-1.276.112-2.308-.233-.313-.42-.7-.49-1.08-.052-.272.125-.588.2-.884.134.138.256.3.412.415.245.178.495.39.78.472.9.267 1.695-.277 1.806-1.19.224-1.87-.235-2.743-1.928-3.48zM92.885 83.42c-.114.3-.32.884-.57 1.45-.07.165-.262.277-.4.414-.064-.192-.224-.405-.183-.57.17-.708.39-1.404.62-2.095.054-.16.22-.28.334-.416.067.194.144.387.196.587.026.1.004.208.004.627zm1.58 9.503c-.068-.006-.13-.105-.193-.16.07-.05.146-.14.213-.135.066.005.128.107.192.163-.072.05-.146.14-.213.135zm-4.1 2.034l-.036-.007c.014.032.04.046.056.075.014 0 .028.003.043.005l-.065-.073zm-34.457-.453c-.045-3.885-2.04-6.72-4.928-9.04-1.043-.838-2.112-.523-2.85.718-.374.626-.748 1.248-1.12 1.874-.993 1.68-1.386 3.484-1.09 5.42.11.722.288 1.435.39 2.157.08.572-.16.996-.707 1.25-3.05 1.42-5.75 3.408-8.572 5.202-.6.384-.85.883-.74 1.576.108.676.47 1.138 1.12 1.38.88.334 1.743.708 2.63 1.006 3.3 1.11 6.558 1.25 9.708-.526 1.088-.614 2.225-1.158 3.26-1.857.58-.392 1.098-.974 1.465-1.58 1.175-1.932 1.568-4.08 1.438-6.305 0-.437.004-.858 0-1.275zM52.69 95.97c-.084.18-.244.323-.368.484-.096-.134-.258-.26-.273-.403-.085-.827-.134-1.66-.21-2.68-.098-.52-.25-1.23-.36-1.946-.017-.13.145-.288.225-.43.067.077.143.152.203.234.813 1.163.858 2.545 1.074 3.872.047.263-.16.59-.29.868zM19.62 76.13c.826.913 1.878.796 2.885.287.462-.23.9-.544 1.29-.882 1.917-1.664 3.532-3.59 4.84-5.756.82-1.357 1.447-2.807 1.452-4.487-.248-1.333-.535-2.656-.736-3.996-.162-1.082-.355-2.21-1.582-2.445-1.01-.194-1.733.603-2.355 1.326-1.568 1.83-3.117 3.68-4.67 5.524-.63.75-.79.782-1.524.352-1.534-.896-3.03-1.877-4.628-2.645-1.996-.958-4.067-.847-6.074.085-.84.392-1.248 1.205-1.02 2.072.345 1.317.83 2.577 1.52 3.773 1.953 3.372 4.604 5.69 8.662 5.97.755.052 1.387.204 1.94.82zm6.71-11.713c.097-.032.33.146.393.277.085.175.072.4.154.992-.146.44-.392 1.216-.668 1.98-.066.187-.23.334-.35.5-.106-.134-.25-.255-.307-.406-.18-.48-.35-.968-.482-1.46-.17-.638.49-1.64 1.26-1.884zm-3.39 3.932c.072-.068.167-.113.266-.18.068 0 .21-.025.224.007.3.65.738 1.287.826 1.97.08.616-.47 1.1-1.05 1.388-.074.038-.257.02-.278-.02-.078-.167-.196-.387-.142-.528.335-.87-.757-1.816.15-2.64zm-11.255-1.865c-.037.18-.18.34-.277.512-.274-.245-.595-.464-.79-.76-.058-.088.244-.41.355-.585.58.1.81.37.713.832zM14.77 69.7c-.022.093-.24.148-.375.18-.02.01-.122-.155-.14-.25-.09-.5-.164-1.004-.227-1.407.104-.293.13-.514.248-.654.107-.124.326-.23.476-.21.177.028.48.227.47.31-.11.68-.27 1.36-.448 2.03zm13.257 18.67c1.232-.33 2.257-1.073 3.102-2.062 3.37-3.937 3.57-8.553 2.9-13.36-.017-.102-.08-.196-.116-.293-.482-1.355-1.385-1.73-2.705-1.173-2.49 1.052-3.89 3.09-4.98 5.422-.308.656-.458 1.465-.936 1.94-.608.61-1.33-.247-2.048-.22-1.152.043-2.304.01-3.456.01v.016c-1.262 0-2.522-.05-3.777.014-1.327.067-2.37.747-3.226 1.74-.616.716-.733 1.542-.347 2.346.36.743.79 1.52 1.38 2.076 4.053 3.842 8.834 4.973 14.208 3.54zm-.252-5.915c.274-.697 1.39-.62 1.46-1.493.06-.725.038-1.46.016-2.192-.03-.988.204-1.88.926-2.577.192-.188.51-.245.77-.358.06.2.145.395.16.597.03.31.01.63.01.544.096 2.235-.45 3.912-1.3 5.504-.365.69-1.037.85-1.887.46-.108-.05-.204-.353-.155-.482zm-4.725-.114c-.163-.01-.314-.17-.468-.266.16-.08.325-.226.484-.218.156.006.306.168.46.26-.16.083-.325.232-.478.225zm15.772 15.13c.933-.31 1.595-.932 2.197-1.69 1.59-2.013 1.707-4.433 2.01-6.81-.328-2.5-.495-5.025-2.14-7.116-.46-.58-.93-1.225-1.774-1.056-.772.155-1.227.767-1.515 1.47-.16.387-.24.805-.394 1.19-.633 1.55-1.286 3.09-1.92 4.636-.32.775-.87 1.135-1.713 1.042-.103-.01-.21.004-.314-.002-3.65-.224-6.723 1.246-9.603 3.275-.637.45-.864 1.216-.565 1.92.124.284.26.572.443.823 1.178 1.63 2.712 2.9 4.284 4.113.85.654 1.882.89 2.975.666 2.14-.434 4.363-.552 6.283-1.792.51-.332 1.15-.473 1.744-.67zm.886-10.443c.035.145.093.31.102.476.003.062-.11.128-.17.192-.04-.164-.102-.33-.112-.497-.003-.056.12-.12.18-.172zm-3.13 7.08c.106-.244.188-.56.385-.688.196-.127.518-.068.786-.065.04 0 .12.143.113.213-.038.462-.617.846-1.088.74-.072-.068-.213-.17-.2-.203zM13.19 59.06c1.806.47 3.623.898 5.433 1.344.64.157 1.28.085 1.8-.297 3.946-2.91 7.007-6.32 6.52-11.71-.062-1.042-.076-2.09-.204-3.124-.077-.607-.29-1.21-.52-1.782-.23-.57-.907-.874-1.554-.826-.668.048-1.207.34-1.594.868-.8 1.096-1.576 2.21-2.364 3.317-1.334 1.866-2.655 3.746-4.02 5.594-.25.34-.715.476-1.097.117-.684-.64-1.36-1.292-2.004-1.977-1.728-1.842-3.792-3.27-5.792-4.777-.608-.46-1.456-.26-1.91.39-.176.254-.426.54-.43.815-.03 1.35-.313 2.806.092 4.028 1.262 3.82 3.447 6.927 7.64 8.023zm5.566-3.976c1.02-1.308 2.053-2.605 3.072-3.915.38-.49.72-1.014 1.11-1.5.092-.112.308-.134.473-.164.028-.005.087.17.13.264.013.206.066.42.03.618-.55 2.825-2.348 4.774-4.566 6.413-.056.045-.377-.126-.435-.26-.23-.51-.158-1.015.187-1.46zm98.267 21.892c-.69-.446-1.496-.713-2.263-1.035-1.85-.78-3.674-.666-5.45.24-.56.283-1.09.622-1.64.924-.49.267-.837.146-.958-.335-.153-.61-.33-1.22-.42-1.84-.26-1.78-.89-3.444-1.655-5.055-.267-.563-.594-1.11-.956-1.618-.687-.964-1.694-1.175-2.793-1.024-.896.124-1.062.866-1.3 1.576-.2.59-.534 1.132-.775 1.71-.825 2-1.066 4.02-.34 6.123.34.98.603 2.016.715 3.045.222 2.067 1.542 3.38 2.96 4.647.295.262.73.443 1.125.504 1.344.212 2.7.357 4.17.543 1.13-.16 2.412-.207 3.61-.544 2.942-.83 5.318-2.428 6.582-5.366.388-.903.227-1.952-.61-2.498zm.836-15.548c-1.21.603-2.33 1.382-3.5 2.062-.42.243-.83.107-1.073-.29-.376-.624-.627-1.334-1.06-1.914-1.52-2.025-3.14-3.925-5.877-4.348-.58-.09-1.297.156-1.4.88-.157 1.134-.176 2.29-.208 2.772.016 2.553-.003 4.45.722 6.234.98 2.417 1.995 4.82 3.076 7.195.183.396.75.802 1.192.87 3.355.52 6.3-.45 8.453-3.047 2.09-2.52 2.79-5.582 2.418-8.84-.166-1.43-1.488-2.2-2.74-1.573zm-8.723 2.025c-.477.146-.8-.138-.875-.54-.064-.356.07-.748.133-1.123.004-.018.18-.04.26-.01.503.178.996.895.956 1.37-.156.105-.3.254-.473.304zm4.186 8.09c-.453.198-.902.443-1.38.53-.19.036-.514-.24-.654-.456-.214-.33.035-.896.367-.992.638-.18 1.187-.02 1.643.46.067.07.112.163.167.25-.047.072-.077.18-.143.21zm2.706-2.096c-.08-.103-.193-.2-.23-.317-.02-.05.11-.15.173-.23l.15.268c-.033.093-.065.187-.094.28zm-3.33-9.774c.844.184 1.543.476 2.23 1.013.71.555 1.64.494 2.353-.037 3.23-2.407 5.628-5.305 5.363-10.32-.053-.49-.134-1.636-.316-2.765-.11-.687-1.14-1.178-1.748-.875-.464.23-.96.476-1.3.845-.78.838-1.48 1.75-2.194 2.645-.46.574-.686.594-1.22.053-.88-.89-1.7-1.856-2.666-2.648-.794-.653-1.71-1.227-2.66-1.608-1.66-.667-3.147.248-3.52 2.02-.043.203-.078.416-.066.62.158 3.07.776 6.002 2.663 8.534.817 1.1 1.662 2.21 3.08 2.52zm5.926-6.04c.013-.08.025-.157.048-.232.038-.003.064-.015.096-.02-.012-.45.116-.824.515-1.063.002-.056.007-.11.02-.16.212-.207.423-.416.64-.622.065-.045.138-.083.202-.136.036-.033.053-.086.08-.13l-.192.35c-.213.208-.43.416-.645.623-.043.02-.068.05-.107.075-.028.425.117.94-.514 1.06 0 .037-.006.07 0 .108-.055.046-.096.1-.145.147-.14.815.188 1.714-.43 2.437-.114.136-.32.2-.48.3-.07-.182-.22-.374-.202-.542.11-.864.49-1.596 1.112-2.194zM15.16 46.93c.297.632.824.923 1.5.952.748.032 1.484-.064 2.06-.59 1.077-.985 2.035-1.99 2.535-3.487.548-1.64.67-3.26.663-5-.096-1.812-.207-3.666-.62-5.53-.482-2.18-1.522-3.84-3.295-5.122-.837-.604-1.573-.66-2.202.132-.903 1.14-1.77 2.334-2.494 3.593-1.912 3.32-1.9 6.767-.395 10.232.707 1.624 1.494 3.216 2.25 4.82zm3.043-9.52l.17.005-.118.725c-.056-.075-.164-.153-.16-.224.008-.17.067-.338.11-.51zm91.06 1.958c.138 4.21 1.96 6.485 6.058 7.608 1.064.29 1.894.017 2.327-1.013.44-1.04.825-2.157.94-3.272.276-2.64-.25-5.177-1.404-7.583-1.81-3.77-2.498-4.643-5.17-6.446-.42-.28-.77-.17-1.11.13-.57.5-.95 1.098-1.045 1.866-.242 1.96-.494 3.917-.74 5.876.047.005.096.01.142.018-.003.94-.03 1.877 0 2.816zm4.67-3.15c.037-.03.116-.01.323-.02.158.506.34 1.04.474 1.59.013.05-.33.287-.452.25-.416-.122-.666-1.544-.344-1.82zm-1.167-3.216l.11.253-.065.253c-.07-.096-.166-.187-.2-.3-.012-.05.1-.135.156-.206zM50.942 49.318c-.83.722-.944 1.515-.373 2.448.13.215.46.31.65.427.19-.075.304-.085.372-.15.856-.803.934-1.842.142-2.698-.133-.143-.64-.16-.794-.027z"/></svg>