<svg xmlns="http://www.w3.org/2000/svg" width="128" height="128" viewBox="0 0 128 128"><path d="M119.99 77.306c-.022-3.275-.17-6.534-.466-9.8-.395-4.413-.507-8.85-.712-13.28-.233-4.957-.37-9.918-.666-14.87-.164-2.734-.472-5.47-.9-8.175-.26-1.65-.792-3.273-1.345-4.86-.49-1.426-1.577-2.225-3.145-2.18-2.005.058-4.013.09-6.01.245-3.572.273-7.094.968-10.706.95-4.11-.02-8.217 0-12.335.423-4.188.43-8.44.336-12.665.324-7.077-.018-14.156-.15-21.233-.247-1.054-.015-2.112-.062-3.157-.16-3.044-.288-6.088-.597-9.127-.928-1.253-.136-2.507-.31-3.744-.544-1.66-.312-3.298-.724-4.953-1.044-.498-.097-1.08-.17-1.534-.004-.976.352-1.88.875-2.89 1.2-1.05.333-1.665 1.285-1.92 2.364-.142.61-.184 1.26-.18 1.888.024 3.802.062 7.605.134 11.408.013.615.22 1.23.356 1.84.18.8.1.91-.715.826-1.892-.2-3.788-.63-5.667-.554-2.103.085-4.18.264-6.254-.22-.192-.045-.44-.008-.62.082-.27.14-.67.314-.726.544-.336 1.32-.818 2.66-.814 3.992.01 2.315.313 4.626.535 6.933.327 3.36.876 6.705 1 10.07.32 8.546.474 17.1.658 25.65.05 2.534-.024 5.07-.024 7.608 0 .738-.017 1.49.114 2.21.3 1.663.96 3.01 2.946 3.18.933.082 1.845.472 2.776.533 1.17.078 2.283.154 3.33.803.383.237 1.068.258 1.5.088 1.232-.48 2.48-.41 3.748-.39 4.227.06 8.454.116 12.68.127 11.2.027 22.4-.023 33.6.075 3.266.03 6.523.457 9.784.718 1.784.143 3.57.32 5.352.49 1.485.14 2.674-.27 3.528-1.6.323-.505.91-.85 1.397-1.243.793-.632 1.156-1.43 1.234-2.453.192-2.628.33-5.272.745-7.87.513-3.25.003-2.81 2.94-2.612.42.03.846.013 1.266.01l13.312-.106c.32 0 .65.06.948-.02 1.533-.42 3.09-.56 4.672-.543.397.004.82-.194 1.182-.39 1.064-.575 1.13-1.953.128-2.587-.442-.28-.917-.613-1.412-.685-2.08-.295-4.068-1.076-6.233-.953-2 .114-4.014.03-6.022.015-.842-.007-1.72.074-2.525-.122-2.18-.53-4.39-.565-6.61-.594-.848-.01-1.172-.31-1.174-1.125-.013-4.12-.003-8.24-.003-12.363h-.126c0-3.91.028-7.82-.012-11.727-.012-1.15.152-2.023 1.4-2.472 1.113-.4 1.923-1.244 2.67-2.17 3.513-4.357 7.067-8.682 10.597-13.025 1.197-1.472 2.357-2.978 3.563-4.445.156-.186.49-.222.742-.328.068.196.19.387.203.584.16 2.635.373 5.263.448 7.898.165 6.016.214 12.032.73 18.037.33 3.782.48 7.58.72 11.37.027.42.024.87.17 1.252.5 1.314.52 2.677.59 4.053.04.72.23 1.466.516 2.13.57 1.33 2.44 1.666 3.456.612.41-.427.715-1.052.845-1.636.16-.706.11-1.47.106-2.207zM26.932 41.604c.21-.582.328-1.203.446-1.816.06-.306.012-.632.046-.944.205-1.835-.478-3.726.34-5.522 1.51.946 3.04 1.862 4.528 2.843 2.55 1.68 5.19 3.19 7.936 4.533 1.312.643 2.55 1.44 3.814 2.176.075.045.15.21.12.267-.066.144-.192.36-.3.36-2.207.02-4.415.017-6.623.017l-.01.213c-3.143-.19-6.29-.364-9.43-.57-1.413-.094-1.39-.113-.868-1.557zm-8.02 5c.052-.074.176-.153.26-.142 2.51.28 5.008.66 7.525.838 2.414.17 4.846.14 7.27.192.422.008.843 0 1.266 0v.064c5.696-.072 11.39-.124 17.083-.226 2.42-.043 4.843-.313 7.258-.272 6.112.102 12.22.32 18.33.5.2.01.395.13.593.195-.107.272-.154.584-.324.805-.187.245-.476.416-.73.6-1.718 1.223-3.417 2.47-5.16 3.66-7.042 4.82-14.093 9.628-21.146 14.435-.523.355-1.056.707-1.623.97-.242.115-.65.103-.882-.03-.728-.422-1.427-.897-2.098-1.405-3.7-2.812-7.65-5.24-11.616-7.643-4.88-2.958-9.48-6.298-13.79-10.033-.79-.683-1.468-1.493-2.184-2.253-.055-.06-.075-.207-.035-.26zM87.594 57.27c-.888 11.724-.213 22.928-.665 34.11-.086 2.11-.02 4.225-.044 6.337-.01.803-.395 1.056-1.255.953-1.25-.15-2.51-.282-3.764-.412-1.36-.142-2.723-.3-4.088-.4-1.263-.096-2.53-.168-3.793-.17-10.773-.054-21.544-.084-32.317-.122-.21 0-.43.036-.632-.004-1.122-.222-2.23-.592-3.36-.658-1.144-.075-2.133.782-3.362.718-1.792-.094-3.59-.008-5.387.037-.908.02-1.556-.19-2.09-1.06-.653-1.07-1.64-1.243-2.702-.747-.286.133-.573.29-.815.49-1.305 1.085-2.823 1.332-4.454 1.196-.497-.044-1.22.154-1.32-.47-.068-.41.315-.98.643-1.348 2.39-2.677 4.817-5.323 7.23-7.98.353-.388.756-.75 1.025-1.197.202-.34.3-.786.327-1.192.07-1.155-1.104-2.023-2.14-1.547-.756.348-1.492.795-2.143 1.314-.824.66-1.52 1.47-2.324 2.152-.677.578-1.05 1.557-2.104 1.658-.11-.93-.22-1.858-.323-2.79-.025-.208 0-.423-.02-.633-.145-1.344.26-2.37 1.28-3.374 2.03-1.992 3.872-4.175 5.776-6.296.358-.4.555-.864.265-1.442-.323-.65-.84-.9-1.517-.936-.768-.045-1.476.12-2.083.6-.413.323-.773.72-1.2 1.025-.902.65-1.316 1.94-2.648 2.03-.567-1.095-.23-2.282-.34-3.42-.374-3.884-.71-7.766-1.095-11.65-.25-2.516-.575-5.023-.857-7.538-.03-.26.422-.527.65-.41.094.047.193.085.284.14 2.027 1.126 4.053 2.258 6.08 3.384 2.224 1.234 4.314 2.657 6.184 4.385.623.572 1.206 1.213 1.908 1.662 2.415 1.543 4.44 3.56 6.642 5.36 3.16 2.584 6.88 4.043 10.813 4.996 1.315.317 2.537-.082 3.666-.663 1.408-.722 2.773-1.533 4.096-2.396 9.11-5.94 18.014-12.17 26.58-18.878 1.158-.91 2.422-1.682 3.654-2.498.373-.248.98.002.965.397-.1 2.642 1.17 5.16.77 7.282zm21.58-25.86c-1.87 1.726-3.46 3.677-4.98 5.718-2.644 3.552-5.41 7.012-8.127 10.51-.838 1.077-1.683 2.15-2.532 3.218-.053.068-.222.128-.282.096-.144-.082-.363-.218-.366-.338-.05-1.158-.048-2.322-.092-3.482-.043-1.084-.314-1.602-1.413-1.788-2.165-.363-4.176-1.42-6.436-1.34-.614.02-1.248-.16-1.86-.308-2.898-.702-5.844-.72-8.805-.696-7.07.06-14.14.09-21.213.125-.632.003-1.266.008-1.895-.037-.533-.038-.678-.352-.482-.85.076-.194.12-.404.145-.613.128-1.06-.282-1.845-1.244-2.328-.283-.142-.563-.3-.862-.395-3.06-.98-5.693-2.718-8.256-4.592-1.7-1.245-3.44-2.443-5.138-3.69-.445-.327-1.155-.47-1.085-1.26.51.03 1.023.046 1.533.096.315.028.623.147.934.15 4.853.07 9.647 1.057 14.517.882 1.26-.046 2.523.11 3.785.17-.003.06-.005.12-.01.18 2.006.05 4.007.146 6.01.144 7.39-.01 14.776-.048 22.166-.078.42 0 .853.043 1.262-.028 4.612-.79 9.265-.352 13.9-.477 1.894-.05 3.77-.127 5.663-.418 1.956-.302 3.98-.16 5.974-.18.075-.004.258.362.21.423-.308.416-.63.832-1.012 1.182z"/></svg>