<svg xmlns="http://www.w3.org/2000/svg" width="128" height="128" viewBox="0 0 128 128"><path d="M117.09 97.312c-.08-1.382-.282-2.763-.306-4.147-.083-4.814.21-9.62.324-14.432.18-7.81.05-15.627.134-23.44.02-2.145-.166-4.244-.533-6.342-.226-1.27-.544-1.683-1.85-1.737-.817-.032-1.4-.267-2-.784-2.107-1.82-4.22-3.63-6.397-5.356-1.003-.798-1.603-1.63-1.48-2.974.117-1.278.05-2.57.098-3.852.074-1.907-.144-3.893 1.427-5.42.14-.135.206-.377.252-.583.46-2.16.162-3.904-2.717-3.772-.213.01-.427.013-.643.01-5.668-.027-11.338.007-16.986.64-1.165.133-2.357.133-3.53.065-.723-.045-1.502-.198-2.14-.53-2.46-1.294-4.876-2.668-7.295-4.038-.368-.206-.688-.518-.973-.832-.96-1.058-2.183-1.696-3.463-2.265-1.27-.567-2.55-1.128-3.748-1.822-1.227-.71-2.39-.853-3.633-.137-1.847 1.067-3.733 2.07-5.538 3.197-2.994 1.868-5.94 3.813-8.907 5.727-1.373.885-2.88 1.39-4.502 1.512-5.643.425-11.288.84-16.932 1.254-2.322.17-2.955.832-2.944 3.24.014 2.672.053 5.348.107 8.024.016.814-.268 1.402-.918 1.92-2.766 2.192-5.523 4.397-8.23 6.66-.67.56-1.187.69-1.98.29-.57-.29-1.04.1-1.083.73-.035.534-.043 1.068-.043 1.6-.002 6.428-.002 12.85-.002 19.27h.053c0 6.1-.032 12.203.02 18.307.015 1.81.41 3.623.374 5.43-.086 3.978.61 7.882.91 11.82.09 1.17.34 2.326.58 3.476.272 1.34 1.762 2.705 3.13 2.838 2.12.208 4.25.485 6.375.5 11.35.082 22.697.156 34.044.1 5.892-.026 11.754.53 17.635.688.53.015 1.058.128 1.587.203 2.556.37 5.084.31 7.656-.06 3.052-.444 6.12-.778 9.255-.46 5.76.59 11.55.307 17.33.19.753-.015 1.588.018 2.117-.562.9-.99 2.045-1.505 3.217-2.02.742-.33 1.164-.957 1.324-1.714.154-.725.2-1.474.268-2.213.065-.74-.124-1.602.187-2.21 1.005-1.98.478-3.987.36-5.992zM104.52 51.44c.11-1.158.275-2.953.46-4.74.06-.564.423-.753.836-.452.773.56 1.54 1.13 2.29 1.717.67.523 1.317 1.073 1.967 1.62 1.148.972 1.192 1.54-.11 2.463-1.55 1.1-3.216 2.035-4.848 3.017-.427.256-.565-.17-.58-.437-.042-.848-.014-1.696-.014-3.187zM54.832 24.467c1.458-.853 2.728-2.01 4.484-2.377 1.278-.267 2.123-1.344 3.02-2.247.346-.352.773-.418 1.162-.208 2.914 1.56 5.817 3.14 8.713 4.734.166.09.28.326.336.516.017.053-.25.25-.405.277-.31.06-.636.06-.956.067-1.92.06-3.844.07-5.76.18-1.914.106-3.822.308-6.07.494-1.262-.166-2.845-.366-4.422-.594-.162-.023-.43-.23-.42-.335.012-.18.16-.416.324-.51zm-26.784 6.627c4.665-.706 9.355-.91 14.067-.797 2.782.066 5.565-.02 8.348-.032 1.925-.01 3.85-.002 5.777-.002v.064c6.743 0 13.49.002 20.235-.004 1.493-.003 2.978.02 4.43-.53.783-.3 1.672-.4 2.522-.427 3.633-.113 7.268-.187 10.906-.232 1.922-.023 3.845.018 5.766.082.82.027 1.222.486 1.007 1.252-.604 2.16-.133 4.503-1.14 6.588.063 1.71.012 3.43.22 5.12.293 2.354.396 4.672-.063 7.017-.18.94-.17 1.917-.195 2.878-.037 1.607-.06 3.213-.03 4.82.017.967-.413 1.61-1.19 2.11-.81.52-1.588 1.09-2.39 1.62-4.81 3.195-9.42 6.7-14.47 9.53-1.956 1.1-3.91 2.223-5.95 3.157-3.504 1.61-6.87 3.467-10.176 5.44-.753.45-1.397.978-1.797 1.777-.156.31-.448.448-.755.207-1.26-.987-2.565-1.93-3.746-3.007-2.543-2.32-5.422-4.143-8.32-5.973-5.065-3.2-10.037-6.543-15.047-9.825-2.15-1.405-4.287-2.827-6.457-4.2-.715-.454-.997-1.02-.978-1.854.032-1.39-.05-2.784-.01-4.174.02-.62.092-1.303.378-1.83.815-1.507.843-3.04.55-4.67-.774-4.31-1.138-8.686-2.236-12.94-.16-.62.17-1.077.736-1.163zM16.466 49.3c.155-.266.373-.522.614-.714 1.246-1 2.488-2.002 3.77-2.95.678-.5 1.436-.893 2.155-1.333.755.773.34 1.76.46 2.645.11.84.09 1.7.13 2.55l-.077.004c.083 1.38.178 2.757.237 4.14.008.16-.175.465-.277.468-.297.01-.68-.01-.877-.186-.297-.27-.56-.654-.68-1.04-.21-.708-.273-1.46-.46-2.178-.106-.4-.314-.78-.51-1.152-.19-.366-.89-.384-1.063-.02-.226.473-.35 1.002-.62 1.443-.125.205-.598.433-.737.352-.726-.43-1.41-.934-2.076-1.458-.094-.072-.075-.42.013-.573zm1.326 48.567c-.288-1.853-.117-3.54 1.145-5.11 1.807-2.242 3.456-4.61 5.152-6.943.303-.42.57-.893.734-1.383.18-.54-.04-1.05-.454-1.44-.43-.41-.965-.516-1.46-.204-.804.512-1.65 1.01-2.31 1.675-1.054 1.057-1.964 2.25-2.954 3.37-.104.117-.384.183-.523.128-.17-.068-.39-.288-.395-.45-.016-.623-.075-1.284.107-1.86.184-.59.613-1.116.974-1.64 1.57-2.29 3.16-4.566 4.737-6.853.242-.35.48-.708.677-1.088.427-.82.226-1.847-.43-2.32-.657-.474-1.793-.526-2.4.014-.634.563-1.185 1.226-1.732 1.875-.55.648-1.045 1.34-1.58 2.005-.057.065-.24.127-.287.09-.137-.108-.33-.263-.333-.402-.02-2.138-.015-4.275-.015-6.413l-.002-2.56h.03c0-3.206-.006-6.413.005-9.618.003-.463.51-.725.912-.48 2.003 1.227 3.99 2.477 6 3.695 5.84 3.544 11.693 7.074 17.536 10.616.912.552 1.808 1.133 2.7 1.72.37.242.4.767.093 1.113-.21.24-.44.47-.664.695-5.742 5.752-11.78 11.173-18.07 16.322-1.898 1.555-3.684 3.25-5.524 4.877-.32.282-.64.56-.967.83-.26.212-.65.06-.7-.257zm94.26 8.254c-2.098.308-4.127 1.058-6.314.837-1.38-.14-2.782-.026-4.176-.026-3.21.026-6.406-.007-9.608-.453-3.204-.448-6.407.18-9.58.644-.882.13-1.674.187-2.492-.15-1.93-.785-3.954-.84-6.002-.8-3.317.066-6.638.098-9.957.115-5.358.027-10.67-.574-15.995-1.1-2.958-.29-5.96-.778-8.923.22-.688.232-1.487.148-2.235.182-1.328.058-1.327.05-1.126-1.536.027-.212.103-.466.02-.634-.17-.357-.372-.752-.678-.976-.192-.142-.62-.07-.892.034-.286.11-.518.363-.764.57-.576.48-1.165.944-1.713 1.454-.73.675-1.472.68-2.357.296-1.38-.597-1.445-.738-.473-1.973.397-.504.84-.972 1.227-1.485.187-.25.392-.56.402-.848.013-.4-.064-.853-.265-1.195-.222-.375-.666-.48-1.13-.34-1.153.35-2.11 1.035-2.982 1.835-.947.867-1.914 1.723-2.782 2.667-.94 1.016-2.008 1.084-3.22.722-.913-.272-1.134-.93-.434-1.608 2.384-2.308 4.73-4.663 7.224-6.846 2.978-2.608 6.16-4.98 9.133-7.595 3.133-2.758 6.125-5.677 9.176-8.53.704-.657 1.376-1.35 2.094-1.99.43-.384.97-.462 1.49-.18.655.362 1.296.752 1.924 1.16 2.067 1.337 4.13 2.682 6.184 4.037 1.44.95 2.976 1.653 4.624 2.18 1.77.57 3.314.382 4.88-.64 2.33-1.52 4.712-2.96 7.125-4.34 2.135-1.224 4.34-2.315 6.517-3.467.528-.277 1.003-.263 1.44.203.73.78 1.515 1.515 2.216 2.323 4.643 5.356 9.966 10.017 15.153 14.812 2.593 2.397 5.32 4.645 8.02 6.927 1.556 1.32 3.233 2.46 5.204 3.108.277.092.547.322.73.557.412.54-.017 1.74-.683 1.837zm.718-5.422c-.12.06-.412-.04-.512-.162-1.61-2.016-3.54-3.697-5.488-5.37-2.272-1.947-4.49-3.956-6.717-5.953-2.867-2.564-5.71-5.152-8.582-7.712-1.754-1.564-3.557-3.07-5.3-4.65-.707-.64-1.322-1.387-1.945-2.115-.085-.1-.05-.42.048-.537.203-.24.46-.452.736-.597 6.054-3.203 11.607-7.216 17.443-10.772 2.368-1.442 4.795-2.787 7.19-4.19.825-.484 1.63-1.003 2.444-1.508.48-.3.776-.14.8.458.026.747.034 1.493.028 2.242-.05 6.413-.107 12.827-.16 19.24h-.075c0 4.918-.044 9.836.02 14.75.02 2.13.272 4.26.39 6.39.01.164-.166.414-.322.487zM54.66 51.524c.48.237.967.474 1.477.625 3.255.966 2.706.77 2.813 4 .008.21 0 .425 0 .64h.082c0 .64-.02 1.285.008 1.926.02.423.128.843.165 1.27.035.406-.506.823-.87.66-.485-.217-.96-.46-1.42-.725-.877-.51-1.654-.252-2.367.313-1.355 1.074-1.395 3.157.04 4.15 1.13.778 2.383 1.48 3.684 1.883 1.257.39 1.734 1.067 1.784 2.28.075 1.84.675 3.562 1.323 5.264.43 1.132 1.104 2.084 2.176 2.687.693.388 1.43.41 2.133-.013.603-.363.925-1.163.744-1.97-.117-.518-.363-1.01-.47-1.53-.398-1.882-.778-3.765-1.11-5.656-.04-.235.19-.674.4-.765.786-.333 1.62-.546 2.425-.83 1.33-.47 2.51-1.192 3.503-2.2 1.123-1.133 1.666-2.557 1.523-4.085-.18-1.922-.72-3.77-2.03-5.312-1.34-1.575-2.805-3.05-4.803-3.627-1.796-.52-2.34-1.66-2.41-3.293-.018-.427-.028-.856-.057-1.284-.128-1.925.46-2.16 2.344-1.835.71.12 1.373.554 2.032.895.66.343 1.265.8 1.936 1.115.936.437 2.03-.322 1.967-1.37-.03-.516-.153-1.07-.39-1.523-.963-1.856-2.634-2.755-4.596-3.147-.73-.145-1.495-.067-2.245-.114-1.198-.075-1.53-.384-1.666-1.495-.118-.95-.21-1.905-.38-2.848-.085-.462-.828-.917-1.27-.754-.356.133-.732.44-.91.772-.193.354-.166.828-.227 1.248-.15 1.058-.325 2.112-.443 3.175-.076.704-.426 1.152-1.01 1.525-.717.463-1.4.984-2.064 1.525-.992.813-2.02 1.6-2.912 2.512-2.15 2.194-1.696 4.527 1.088 5.905zm9.676 3.456c.207.036.437.025.613.117 1.4.747 2.217 1.965 2.697 3.438.203.623-.023 1.355-.57 1.694-.452.275-.936.51-1.423.72-.83.36-1.474-.015-1.532-.975-.088-1.49-.1-2.99-.112-4.483 0-.17.214-.34.327-.514zm-6.064-7.786c.164.075.475.176.467.218-.05.253-.173.49-.27.736-.197-.197-.394-.395-.593-.59.133-.12.264-.242.395-.363z"/></svg>