<svg xmlns="http://www.w3.org/2000/svg" width="128" height="128" viewBox="0 0 128 128"><path d="M107.925 82.624c-.448-.836-1.106-1.288-2.048-1.152-1.55.224-3.133.316-4.587 1.013-1.525.73-3.074 1.408-4.603 2.127-3.398 1.598-6.83 3.283-10.576 3.656-5.05.5-10.163.638-15.142-.775-4.34-1.23-8.39-3.072-11.73-6.22-.557-.524-.54-.746.136-.93 1.864-.51 3.733-.996 5.605-1.483 3.274-.847 6.536-1.745 9.67-3.037.7-.288 1.226-.773 1.217-1.627-.013-1.45.035-2.91-.064-4.354-.03-.384-.437-.846-.797-1.082-.495-.325-1.09-.548-1.67-.672-2.64-.56-5.26-.427-7.84.388-2.762.875-5.507 1.81-8.29 2.613-1.616.464-3.282.772-4.944 1.047-.965.16-1.805-.85-1.743-1.85.08-1.326.71-2.372 1.832-2.947 1.278-.653 2.637-1.236 4.03-1.556 2.704-.622 5.466-.984 8.183-1.557 1.888-.395 3.776-.853 5.596-1.483 1.755-.61 3.064-3.055 2.916-4.99-.107-1.428-1.9-3.002-3.855-3.366-.354-.067-.724-.117-1.083-.102-1.806.08-3.627.066-5.416.307-2.412.326-4.81.5-7.227.173-.836-.112-1.21-.825-.96-1.552 1.1-3.166 3.104-5.813 5.397-8.082 3.564-3.525 7.938-5.858 12.9-6.933.708-.155 1.434-.237 2.15-.338 4.832-.69 9.632-.976 14.233 1.157.437.202.868.484 1.33.56 1.185.19 2.416.522 3.57.37 2.538-.338 2.98-.02 2.97-3.366-.007-2.792-1.21-4.91-3.444-6.437-2.617-1.788-5.445-3.168-8.624-3.61-2.87-.4-5.75-.71-8.523-1.047-2.544.257-4.947.48-7.344.754-2.815.322-5.296 1.573-7.825 2.752-4.594 2.14-8.34 5.27-11.537 9.16-4.027 4.9-7.19 10.307-9.846 16.038-.66 1.426-1.367 2.835-2.005 4.27-.526 1.173-1.302 1.952-2.59 2.32-1.855.534-3.674 1.2-5.496 1.843-1.592.562-3.18 1.138-4.746 1.774-1.265.514-2.226 1.44-3.036 2.527-1.49 2.002-.644 4.162 1.84 4.6.828.146 1.69.133 2.534.15 2.55.048 5.047-.374 7.57-.684 3.058-.373 3.44-.62 3.455 2.748.002.944.4 1.88.52 2.83.034.276-.193.687-.428.87-.377.287-.84.482-1.295.643-2.165.762-4.35 1.466-6.502 2.257-.9.33-1.792.75-2.586 1.28-1.31.87-1.756 2.13-1.392 3.44.46 1.65 1.42 2.567 3.035 2.652 2.293.117 4.58.158 6.835-.54 1.61-.498 3.317-.683 4.94-1.15 1.306-.38 2.218-.1 3.208.864C50.443 93.342 58.3 97.69 67.19 100.25c6.72 1.933 13.48 2.562 20.423 1.283 6.334-1.17 11.944-3.78 17.024-7.663 1.905-1.455 3.046-3.423 3.784-5.62.638-1.91.47-3.82-.497-5.626z"/></svg>