<svg xmlns="http://www.w3.org/2000/svg" width="128" height="128" viewBox="0 0 128 128"><path d="M105.102 77.89c-.253-5.876-.723-11.748-.602-17.64.028-1.5.003-2.997.003-4.943l-.188-11.755c-.006-.32.003-.645-.032-.965-.242-2.1-1.51-3.224-3.648-3.208-.747.004-1.522-.034-2.238.137-1.798.43-3.616.433-5.433.38-6.31-.183-12.62-.413-18.93-.63-.64-.022-1.277-.1-1.92-.156-1.38-.11-2.762-.31-4.143-.313-3.955-.017-7.907.06-11.865.262-4.914.242-9.85.2-14.773.106-4.06-.075-8.116-.395-12.17-.62-.424-.026-.843-.143-1.263-.218-.317-.057-.63-.156-.947-.174-1.786-.107-2.8 1.248-2.116 2.93.284.692.63 1.317.597 2.11-.138 3.002.206 5.976.402 8.963.318 4.803.8 9.593 1.55 14.34.782 4.964 1.482 9.93 1.847 14.944.116 1.597.387 3.188.703 4.758.235 1.164.66 2.348 1.91 2.792 1.605.57 3.245 1.13 5.002.832 4.107-.693 8.208-1.414 12.315-2.105 4.747-.8 9.507-1.41 14.338-1.42 7.068-.018 14.13-.1 21.2-.18 1.39-.018 2.772-.196 4.16-.238 1.168-.033 2.348-.065 3.503.067.875.103 1.675.096 2.507-.224 2.364-.915 4.796-1.022 7.247-.422 1.092.27 1.874-.202 2.57-.916.627-.646.897-1.45.814-2.353-.127-1.382-.336-2.76-.397-4.145zm-6.47 1.793c-1.07.013-2.14-.01-3.21-.04-.55-.017-.72-.317-.5-.866.118-.296.272-.58.41-.87.863-1.788.534-3.573-.148-5.29-.263-.662-.814-1.27-1.376-1.732-1.58-1.303-3.975-.736-4.912 1.08-.864 1.668-.78 3.306.213 4.874.393.627.934 1.157 1.374 1.76.373.51.075 1.04-.593 1.065-.962.038-1.926.05-2.89.062-5.244.053-10.49.14-15.736.144-4.5.007-8.95.524-13.413 1.017-4.356.484-8.67 1.2-12.985 1.95-1.575.277-3.176.413-4.766.6-.46.053-1.046-.39-1.147-.933-.277-1.47-.53-2.944-.77-4.42-.783-4.847-1.506-9.706-2.342-14.546-1.076-6.228-1.76-12.49-1.7-18.817.01-1.204.384-1.492 1.57-1.396 1.81.155 3.623.354 5.434.356 8.35.004 16.7-.06 25.05-.08 3.53-.007 7.06.033 10.56.62.94.16 1.923.1 2.885.107 5.887.034 11.773.063 17.66.093 1.024.006 1.237.267 1.344 1.328.59 5.868.44 11.75.557 17.633 0 3.425-.05 6.853.02 10.28.034 1.594.31 3.183.46 4.78.08.81-.27 1.235-1.05 1.244zm-3.414 14.424c-2.155.603-4.34 1.064-6.39 2.048-1.723.832-3.532 1.565-5.377 2.054-5.744 1.513-11.616 1.673-17.513 1.28-1.92-.128-3.835-.293-5.752-.444l-.008.107h-.642c-.75.017-1.498.056-2.248.046-.73-.017-1.513.16-2.116-.467.28-1.352.56-2.702.838-4.058.02-.107.032-.21.05-.317.08-.62-.28-1.343-.84-1.6-.385-.18-.812-.274-1.192-.462-1.21-.597-2.264-.256-3.307.444-1.35.907-2.467 2.048-3.446 3.33-1.496 1.954-2.987 3.91-4.432 5.9-.954 1.31-1.883 2.602-3.6 2.993-.293.064-.54.338-.8.526-1.097.785-1.326 1.672-.585 2.737.608.875 1.297 1.704 2.027 2.478 2.05 2.184 4.164 4.31 6.203 6.507.747.803 1.47 1.58 2.622 1.685.71.066 1.16.494 1.6.965.586.625 1.15 1.267 1.75 1.877.99 1.012 1.648 1.005 2.77.1 1.086-.87 1.684-1.916 1.427-3.345-.037-.208-.05-.424-.07-.637-.02-.217-.04-.428-.05-.64-.036-1.03.22-1.36 1.268-1.366 5.796-.055 11.502-.85 17.163-2.034 5.59-1.17 10.95-2.896 15.507-6.528.497-.395 1.187-.608 1.562-1.083 1.78-2.264 3.644-4.475 4.677-7.24.514-1.384.442-2.716.13-4.09-.12-.525-.706-.918-1.22-.772zm-44.695 7.866c-.014-.164-.05-.328-.032-.485.01-.07.12-.13.186-.195.064.165.13.33.192.497l-.344.183zm2.912 5.32c-.01.115-.17.214-.26.32-.05-.092-.125-.18-.14-.282-.2-1.347-.402-2.697-.563-4.053-.008-.075.317-.267.494-.277.17-.014.48.116.5.232.118.603.163 1.22.193 1.49-.093 1.094-.143 1.835-.226 2.574zm3.707-2.6c-.315-.194-.528-.547-.783-.837.25-.128.515-.38.755-.356.418.036.74.307.708.917-.206.093-.55.36-.683.277zm3.05-.62l-.546-.223c.085-.062.18-.19.254-.174.19.035.368.13.553.203-.087.062-.174.13-.26.19zm27.798-.414c-.133-.743-.21-1.03-.224-1.32-.004-.11.146-.22.226-.33.037.094.11.19.107.283-.01.303-.048.605-.11 1.365zm2.608-2.763c-.05.01-.134-.133-.203-.205.178-.067.352-.15.533-.187.048-.008.124.128.18.192-.156.066-.328.16-.51.2zM40.254 34.664c.613.092 1.28.032 1.888-.114 1.246-.29 2.453-.75 3.703-1.02 4.173-.894 8.35-1.77 12.536-2.588 3.773-.733 7.49-1.747 11.33-2.116.947-.593 1.963.352 2.797-.006 1.257-.54 2.507-.448 3.686-.448.203-.014.31-.018.416-.023 2.696-.14 2.56-.158 3.313 2.295.37 1.205 1.003 2.347 1.593 3.477.48.914 1.265 1.397 2.357 1.363.52-.02 1.126-.02 1.557.22 1.348.74 2.175.067 3.067-.844 2.556-2.606 5.312-4.974 8.657-6.545 1.146-.537 1.71-1.46 2.2-2.605.513-1.19.264-2.044-.51-2.918-1.56-1.762-3.103-3.538-4.66-5.3-.284-.32-.603-.61-.91-.905-3.16-3.04-6.373-6.032-9.457-9.147-1.38-1.39-3.064-1.89-4.84-2.223-1.267-.237-2.28.693-2.357 2.024-.05.855.007 1.713.02 2.57.034 2.594.133 2.16-2.39 2.885-.704.203-1.485.164-2.23.208-3.574.208-6.95 1.11-10.102 2.82-3.288 1.784-6.597 3.532-9.858 5.366-3.266 1.834-6.445 3.81-9.173 6.426-1.475 1.413-2.784 2.962-3.835 4.712-.59.988.025 2.26 1.203 2.437zm51.242-8.885c.192-.055.412-.006.62 0 .2-.904 1.15-1.094 1.655-1.717.055-.064.5.144.72.292.045.03-.04.432-.166.515-.672.443-1.267 1.1-2.203.913-.186.197-.34.448-.57.563-.104.056-.34-.15-.52-.24.154-.11.294-.276.47-.328zm-2.16-6.794c.022-.058.16-.08.244-.117.096.03.227.03.28.09.38.46.45 1.292.16 1.7-.06.082-.116.25-.162.246-.19-.018-.627-1.61-.52-1.92zm-6.797-5.87c.115-.203.272-.382.412-.572l.23.523c-.014.102-.006.21-.048.296-.088.178-.203.346-.304.515-.09-.155-.197-.305-.27-.466-.04-.09-.065-.224-.022-.296zm-.63 5.3c.024-.2.137-.39.207-.585.06.188.156.378.176.573.092.84.16 1.682.262 2.763-.164.804-.37 1.824-.59 2.844-.015.06-.173.108-.27.118-.074.01-.217-.032-.225-.073-.067-.304-.18-.622-.148-.917.173-1.58.38-3.15.587-4.722zm-10.543.194c.213-.2.555-.3.853-.356.414-.08.84-.07 1.43-.11.348.053.867.1 1.363.23.133.032.22.304.288.48.025.056-.053.203-.122.24-1.112.575-2.254 1.066-3.544.818-.238-.047-.578-.307-.603-.507-.034-.252.14-.61.338-.795zm-5.706 5.14c.204-1.445.85-2.806.797-4.31-.007-.17.397-.41.65-.53.217-.1.566.355.478.616-.6 1.778-1.13 3.563-.96 5.483.01.122-.28.27-.507.48-.204-.168-.566-.32-.594-.518-.053-.395.08-.81.136-1.22zm-7.59 2.453c.1-.064.298.028.628.075-.242.292-.383.516-.58.66-.054.037-.29-.17-.438-.266.128-.16.227-.367.392-.47zm-5.197-.086c.053-.11.335-.133.516-.15.055-.004.16.147.18.24.072.3.113.606.154.833-.06.284-.043.548-.162.676-.195.208-.49.453-.732.442-.18-.01-.514-.42-.483-.6.085-.498.3-.982.526-1.44zm-4.58 2.944c.313-.22.633-.433.963-.63.03-.015.147.118.224.18.062.335-.51.775-1.04.785-.082.004-.18-.064-.242-.133-.02-.02.038-.16.096-.197zm29.79 32.41c-.865-.602-1.83-1.117-2.826-1.47-1.1-.385-2.27-.67-3.43-.762-1.52-.12-2.335-.815-2.623-2.29-.183-.942-.51-1.852-.75-2.785-.204-.782.076-1.14.976-1.244.425-.05.86-.018 1.28-.08 1.09-.16 1.667-.904 1.945-1.89.222-.79-.378-1.96-1.33-2.34-.87-.346-1.902-.795-2.74-.62-1.403.3-2.276.08-2.8-1.274-.076-.19-.246-.352-.396-.504-.39-.402-.858-.626-1.434-.522-.576.098-1.213.69-1.246 1.304-.042.742-.07 1.515.103 2.22.19.758-.08 1.21-.576 1.68-1.086 1.03-2.195 2.04-3.203 3.146-.875.956-1.455 2.108-1.615 3.43-.294 2.435.825 4.186 3.166 4.856.923.264 1.91.657 2.816.555 2.58-.29 3.344 1.227 3.73 3.307.074.412.3.797.426 1.205.3.99-.086 1.457-1.073 1.288-.313-.053-.615-.177-.922-.264-.91-.123-1.71.262-2.117 1.075-.37.736-.237 1.424.23 2.11.943 1.38 2.27 1.955 3.873 1.776 1.62-.18 2.942.123 3.864 1.6.21.34.62.594.992.79.707.372 1.442.35 2.126-.1.61-.397.866-1.157.67-1.975-.05-.204-.18-.39-.242-.594-.368-1.3-.394-1.34.74-2.09 1.262-.835 2.433-1.752 3.33-2.977 1.25-1.72 1.552-4.82-.942-6.563zM64.02 58.16c-.387-.005-.816-.133-1.146-.34-.144-.09-.203-.568-.1-.757.395-.725 1.106-1.145 1.4-.917.08.06.154.154.178.248.11.384.2.78.313 1.235-.23.202-.437.53-.644.53zm8.73 8.96c-.13.036-.415-.12-.468-.255-.272-.69-.533-1.393-.702-2.112-.05-.21.213-.498.326-.73.412.097.725.16 1.03.247.78.227 2.024.282 1.953 1.17-.077.895-1.183 1.42-2.14 1.68zm23.127-20.19c-1-1.726-3.342-2.897-5.253-.51-1.605 2.005-1.618 4.34-.82 6.67.19.566.703 1.074 1.172 1.488.882.776 1.945.898 2.99.39 1.92-.935 2.884-2.467 2.664-4.587.05-1.256-.147-2.405-.752-3.45zm-4.31 13.986c-.19.085-.355.238-.548.328-.276.128-.604.272-.66-.213-.09-.74-.076-1.497-.22-2.226-.19-.975-1.223-1.626-2.194-1.416-1.173.258-2.22.75-2.936 1.788-.57.832-.665 1.636 0 2.345.748.795 1.29 1.596 1.44 2.72.108.78.82 1.23 1.596 1.407.413.094.847.096.875.1.51 0 .616.004.72 0 1.747-.05 3.038-.917 4.04-2.276.536-.726.483-1.75-.078-2.363-.48-.535-1.1-.597-2.032-.19zm-48.694-11.03c-.125-.733-.15-1.502-.405-2.185-.17-.452-.594-.98-1.027-1.136-2.266-.827-4.474-.384-5.44 2.28-.54 1.503-.29 2.94.183 4.377.367 1.108 1.425 1.68 2.534 1.308.7-.237 1.37-.584 2.02-.944 1.44-.794 2.134-2.03 2.137-3.696zm6.805 14.363c-.843.037-1.317-.184-1.736-.98-1.25-2.37-2.524-2.573-4.456-.8-.46.42-.824.963-1.156 1.5-.448.713-.302 1.53.444 1.926.757.405 1.466.706 1.785 1.637.355 1.038 1.306 1.305 2.323 1.333 1.752.043 3.22-.914 4.82-1.402.422-.128.596-.975.367-1.406-.517-.97-1.15-1.86-2.388-1.808zm-3.606 8.59c-1.472-1.887-3.516-1.285-4.416.42-.192.37-.32.795-.377 1.21-.087.632-.08 1.276-.13 2.2.06.568.05 1.44.25 2.256.497 2.04 3.087 2.805 4.585 1.338.5-.49.926-1.23 1.04-1.91.17-1.036.16-2.143-.003-3.18-.128-.815-.45-1.69-.953-2.333z"/></svg>