<svg xmlns="http://www.w3.org/2000/svg" width="128" height="128" viewBox="0 0 128 128"><path d="M116.675 62.078c-.316-5.103-.576-10.22-.723-15.33-.12-4.207-.062-8.42-.04-12.63.01-2.276.075-4.552.18-6.826.14-3.064.306-6.128.532-9.187.088-1.178-.142-2.238-.576-3.317-.376-.935-.964-1.483-1.984-1.614-.66-.09-1.355-.192-1.94-.478-1.076-.52-2.113-.782-3.278-.363-.67.245-1.36.206-1.923-.302-1.9-1.72-4.122-1.605-6.432-1.22-3.582.598-7.175 1.1-10.817 1.287-3.285.17-6.547.74-9.83.97-2.146.145-4.317.047-6.47-.04-2.384-.1-4.758-.374-7.14-.45-2.5-.08-5.006.023-7.51-.016-3.9-.06-3.883-.063-6.58 2.56-.7.68-1.076 1.4-1.084 2.385-.02 2.162-.076 4.32-.175 6.48-.085 1.927-.34 3.847-.365 5.772-.067 5.348-.05 10.693-.07 16.045-.003.57-.05 1.138-.02 1.708.06 1.19.763 1.96 1.85 2.074 1.173.12 2.056-.414 2.26-1.573.257-1.45.36-2.93.534-4.392.078-.643.292-.772 1.425-.873-.006-.032-.013-.06-.017-.094.067-.052.142-.1.203-.16.028-.06.053-.122.082-.18-.022.053-.024.125-.062.164-.006.006-.015.01-.02.016l-.11.244-.08.008c.226 1.77.91 2.248 2.284 1.475.78-.437 1.52-.988 2.153-1.615.73-.723.34-1.867-.65-2.105-.435-.103-.893-.107-1.34-.16.295-.42.533-.902.894-1.26.89-.878 1.872-1.66 2.746-2.55.63-.643 1.18-1.373 1.692-2.116.36-.52.184-1.09-.164-1.58-.622-.876-1.375-1.095-2.353-.706l-2.496.986c-.737 1.556-2.19 2.492-3.293 3.732-.1.11-.357.083-.54.12-.03-.31-.2-.725-.06-.914 1-1.344 2.066-2.64 3.855-2.98.31-1.328 1.613-1.77 2.395-2.68.654-.76 1.387-1.46 2.01-2.24.395-.494.235-1.064-.12-1.55-.5-.687-1.176-1.03-2.037-.866-.725.14-1.442.31-2.16.466-.003.034-.02.06-.02.096-.035.002-.06.015-.09.02-.028.35-.255.498-.562.56-.007.047-.02.086-.024.138-.082.032-.17.05-.245.096-.046.026-.07.085-.11.132.083-.114.164-.226.25-.337.046-.006.09-.02.13-.03.054-.312.23-.51.563-.56.003-.035.017-.057.016-.095l.095-.02c.075-.726.63-1.135 1.152-1.456 1.272-.782 2.315-1.798 3.347-2.85.95-.97 1.97-1.875 2.96-2.803.08-.08.185-.146.29-.177.1-.032.263-.062.32-.006.114.11.287.36.248.41-1.088 1.445-2.23 2.85-3.293 4.314-.37.513-.18 1.09.253 1.54.433.445 1.008.6 1.55.36.502-.225.96-.59 1.373-.966 1.6-1.44 3.19-2.896 4.754-4.373.713-.67 1.497-1.014 2.47-.8.21.05.483.146.57.305.066.128-.053.427-.175.576-.565.707-1.158 1.383-1.74 2.073-.252.297.012 1.003.422 1.02.55.03 1.14.076 1.643-.1 1.617-.574 3.045-1.48 4.317-2.65 1.024-.94 2.206-1.596 3.62-1.717 1.436-.123 2.805.814 4.275.286.05-.018.186.126.24.22.65 1.09 1.486.75 2.337.308.69-.362 1.34-.796 2.212-.703 1.856.197 3.717.316 5.58.464l.087-.075c.06-.01.12-.02.182-.028.103-.13.203-.267.337-.33.11-.052.312.095.47.152-.106.034-.212.084-.32.1-.162.032-.327.05-.49.075-.032.04-.064.08-.096.117l-.174-.013c-.212.19-.415.43-.658.487-.66.152-1.365.126-2.027.28-6.512 1.547-13.02 3.11-19.53 4.683-.77.19-1.534.418-2.268.712-.797.316-1.262.956-1.344 1.822-.043.448-.043.912-.02 1.362.293 5.335.593 10.673.895 16.01.154 2.726.448 5.446.46 8.17.03 10.355-.026 20.712-.057 31.068 0 .912-.036 1.822-.1 2.73-.16 2.267-.36 4.53-.513 6.796-.17 2.608.064 5.232-.47 7.822-.11.544-.19 1.197.005 1.69.492 1.22.188 2.113-.682 3.037-1.252 1.32-2.354 2.78-3.59 4.116-.35.38-.91.666-1.422.784-.99.235-2.012.33-3.025.448-.206.028-.43-.098-.647-.15.085-.182.123-.43.264-.534 1.103-.798 2.232-1.56 3.342-2.347.554-.395 1.13-.776 1.62-1.24.704-.663.853-1.933.422-2.864-.48-1.042-1.717-1.742-2.787-1.52-.435.09-.888.23-1.267.462-.867.525-1.773 1.04-2.524 1.714-1.3 1.17-2.865 1.823-4.408 2.54-.388.176-.934-.183-1.013-.614-.22-1.222.04-2.222 1.15-2.955 1.614-1.063 3.176-2.207 4.78-3.284.773-.525 1.396-1.155 1.778-2.016.31-.69-.14-1.808-.9-1.905-.644-.085-1.397-.085-1.968.174-1.024.464-1.955 1.146-2.912 1.754-.576.366-1.118.784-1.707 1.12-.1.062-.467-.12-.53-.27-.803-1.865-.53-3.207.848-4.602 1.12-1.13 2.294-2.23 3.276-3.47.612-.777 1.056-1.756 1.33-2.715.384-1.346-.742-2.453-2.144-2.325-1.077.096-1.91.667-2.76 1.243-.923.63-1.44.435-1.558-.58-.115-1.014-.126-2.038-.227-3.06-.127-1.265-.703-1.758-2.026-1.81-1.465-.058-2.112.413-2.445 1.807-.08.33-.158.672-.154 1.003.02 1.707.037 3.413.124 5.114.075 1.47.324 2.94.347 4.412.072 4.437.072 8.875.094 13.312.01 1.48-.074 2.962.006 4.436.105 1.937 1.26 3.098 3.183 3.403 1.454.23 2.906.496 4.364.707 1.572.235 3.147.565 4.725.6 3.175.066 6.372.333 9.5-.53.43-.12.903-.124 1.356-.136 4.772-.16 9.528-.73 14.31-.503.906.044 1.81.103 2.715.176 1.243.1 2.48.296 3.72.324 2.276.05 4.555.04 6.827-.002 1.704-.03 3.456.073 5.094-.3 1.955-.443 3.804-.42 5.727.004.632.136 1.358.07 1.997-.088 1.318-.325 1.888-1.106 1.957-2.432.047-.903-.052-1.84.157-2.702.512-2.13.538-4.285.547-6.445.064-14.102.284-28.212-.587-42.31zm-59.18-42.13c-.234.244-.452.524-.735.68-.368.2-.792.298-1.19.442-.052-.208-.182-.43-.14-.616.136-.6.5-.992 1.17-.983.225.006.45.02.67.057.105.02.196.11.294.163-.02.086-.013.204-.068.26zm20.012 89.164c-.75 1.26-1.725 2.086-3.307 1.894-.334-.043-.678-.008-1.016-.008-.003.023-.003.043-.003.064-.45-.02-.905-.02-1.353-.085-.207-.03-.4-.184-.597-.282.138-.17.258-.37.42-.516.67-.616 1.414-1.157 2.01-1.834.897-1.02 1.96-.96 3.113-.708.836.182 1.137.8.736 1.47zm4.147 1.658c-.533.122-1.1.088-1.746.13-.195-.143-.49-.277-.643-.5-.077-.114.06-.428.175-.603.24-.367.475-.77.81-1.04 1.008-.803 2.08-.51 3.118-.04.165.074.39.425.346.502-.472.78-1.157 1.345-2.06 1.547zm30.38-2.208c-1.534-.39-3.078-.685-4.51-1.47-1.28-.694-2.72-1.1-4.09-1.634-.845-.33-1.706-.625-2.533-.994-3.227-1.443-6.61-2.332-10.057-3.102-3.323-.747-6.64-1.472-10.016-1.924-.867-.117-1.186-.58-.934-1.44 1.077-3.65 1.147-7.38 1.077-11.147-.073-3.863-.124-7.73-.022-11.596.128-5.013-.16-10.013-.704-14.974-.448-4.086-.49-8.16-.62-12.246-.175-5.454-.383-10.9-.577-16.354-.02-.57-.045-1.138-.043-1.707.005-1.17.205-1.446 1.26-1.63 2.682-.466 5.37-.9 8.052-1.367 1-.177 1.995-.4 2.99-.63 2.43-.56 4.835-1.187 7.295-1.644 3.57-.663 7.03-1.813 10.374-3.253.418-.18.828-.375 1.25-.54.396-.156.99.205.99.62 0 1.93-.004 3.86-.046 5.793-.075 3.637-.18 7.275-.245 9.928.124 5.65.132 10.314.35 14.97.26 5.56.743 11.108 1.043 16.665.164 3.064.19 6.138.21 9.21.06 7.846.065 15.692.127 23.54.015 2.043.162 4.083.248 6.123.017.458-.444.91-.866.803zm-57.77-34.688c1.557-1.648 3.016-3.41 4.69-4.926 1.135-1.04 1.9-2.23 2.547-3.56.848-1.73.75-2.58-.545-3.984-.382-.418-.83-.773-1.246-1.163-1.58-1.473-3.25-2.825-4.98-4.126-2.637-1.973-5.195-4.064-7.65-6.26-2.54-2.273-5.035-4.63-6.29-7.942-.04-.106-.103-.202-.16-.298-.577-.957-1.708-1.227-2.657-.57-2.76 1.904-4.753 4.538-6.727 7.18-.067.09-.096.208-.152.305-.386.637-.398 1.293-.04 1.94.33.59.68 1.17 1.054 1.737.88 1.328 1.78 2.635 2.663 3.962.377.564.17 1.164-.47 1.226-1.92.188-3.843.373-5.77.46-3.747.16-7.5.26-11.246.376-1.374.043-2.7.277-4 .755-2.037.75-2.545 1.37-2.603 3.456-.027 1.023-.003 2.05-.003 3.073h.15c0 1.363-.022 2.728.007 4.093.016.7.31 1.3.832 1.807.747.72 1.515 1.293 2.595 1.517 2.14.447 4.313.684 6.435.27 3.923-.763 7.922-.6 11.855-1.16.11-.015.236-.032.34-.004.304.088.602.203.904.305-.085.208-.133.444-.258.624-1.027 1.497-2.176 2.925-3.077 4.496-.95 1.66-1.074 3.41.076 5.132 1.597 2.4 3.744 4.27 5.828 6.193.715.66 2.02.626 2.863-.036.98-.77 1.91-1.62 2.798-2.496 3.07-3.044 6.115-6.112 9.158-9.18 1.04-1.047 2.062-2.12 3.078-3.197zm2.006-9.757l-.12.203-.06-.23.178.028zm-2.147 1.376c.08.206.164.41.248.617l-.19.617c-.125-.22-.325-.437-.35-.668-.02-.177.186-.38.293-.567zm-1.814-4.277c.19.008.376.08.567.128-.008.08.016.187-.027.245-.163.226-.842.073-.793-.178.016-.08.166-.198.25-.196zm-34.466 5.54c-.067.42-.154.917-.7.933-.082 0-.232-.59-.267-.914-.047-.45-.013-.91-.013-1.365h.03c0-.45-.016-.906.002-1.36.02-.543.53-1.034.802-.78.218.207.48.532.465.79-.043.9-.18 1.796-.323 2.692zm4.596-1.136c-.065.446-.104 1.13-.3 1.766-.068.224-.526.467-.8.46-.277-.01-.75-.29-.78-.497-.144-1.23-.255-2.47-.227-3.703.01-.448.587-.606 1.07-.613.5-.006.93.192 1.014.667.1.55.023 1.13.023 1.92zm5.36-.652c0 .446.016.896-.003 1.344-.03.636-.395.99-1.04 1.04-.842.068-1.407-.28-1.46-.988-.066-.888-.094-1.786-.064-2.677.023-.655.56-1.06 1.397-1.19.683-.1 1.163.21 1.184.792.02.555.004 1.12.004 1.68h-.02zm4.07 1.653c-.028.166-.334.43-.46.4-.28-.063-.71-.232-.755-.432-.15-.64-.15-1.314-.15-1.325 0-1.21-.104-1.788.03-2.31.118-.447.63-.618 1.09-.473.276.09.722.364.71.527-.094 1.212-.27 2.415-.467 3.616zm8.696-10.726l-.12.192-.06-.22.18.03zm-5.124-6.677c.792-.937 1.647-1.82 2.51-2.693.11-.11.45-.142.572-.053.155.11.196.377.288.577-.01.11.02.253-.038.32-.805.917-1.608 1.835-2.448 2.723-.094.098-.512.067-.587-.036-.175-.24-.403-.717-.3-.837zm-.026 13.96c.177-.02.497.1.55.24.272.717.477 1.46.647 1.997-.056.337-.035.485-.1.55-.148.15-.327.33-.514.357-.18.02-.525-.095-.555-.21-.21-.847-.38-1.71-.507-2.575-.015-.1.298-.334.476-.357zM36.8 84.15c-.096.02-.242-.022-.315-.086-.815-.755-1.64-1.504-2.427-2.287-.74-.734-.542-1.615.45-2.062.16-.073.528-.035.577.06.683 1.374 1.328 2.766 1.978 4.14-.103.097-.175.212-.264.234zM38 78.9l-.018-.308c-.17-.3-.34-.597-.47-.91-.036-.097.172-.287.268-.43.048.102.133.197.142.3.032.345.045.692.062 1.04l.117.205c.04.094.077.19.128.275.03.05.085.09.13.133-.12-.105-.237-.203-.356-.305zm.708-26.1c-.06.145-.248.23-.378.34-.09-.172-.288-.458-.248-.498.188-.178.44-.288.67-.43-.01-.473.216-.663.64-.62 0-.028.01-.05.01-.08.023-.032.075-.05.133-.062l.122-.392c.355.352.075.348-.123.392l-.045.146c-.04-.006-.066 0-.1-.004-.033.373-.2.62-.635.625-.01.2.02.414-.05.584zm.144 11.893c-.02-.53.008-1.166.28-1.584.66-1.02 1.475-1.93 2.237-2.88.062-.083.26-.18.272-.164.114.134.3.303.282.44-.107.89-.256 1.77-.34 2.342 0 .887.026 1.45-.01 2.01-.03.517.158 1.247-.577 1.36-1.205.195-2.106-.468-2.144-1.524zm3.734 13.942c-.256.053-.762-.058-.82-.216-.528-1.467-1.008-2.95-1.427-4.45-.07-.243.194-.61.382-.87.078-.107.5-.128.52-.08.675 1.524 1.32 3.063 1.963 4.603.037.088.02.203.05.61-.104.068-.365.337-.67.402zm1.53-22.255l.047-.11c.038 0 .064-.012.1-.014.033-.368.19-.602.596-.572.003-.03.015-.053.02-.085.02-.017.05-.03.07-.045-.012-.17-.033-.348.015-.5.043-.147.227-.246.348-.364.028.187.13.417.06.55-.074.14-.26.22-.42.315.003.043.008.085.008.128-.042-.008-.065.002-.1 0-.065.335-.246.547-.598.572-.003.034-.013.064-.014.1-.035.015-.083.02-.133.024l-.176.404c-.344-.42-.05-.388.176-.405zM46.8 74.293c-.063.058-.135.173-.232.2-.192.055-.435.14-.59.067-.18-.083-.346-.3-.427-.494-.553-1.353-1.07-2.723-1.632-4.073-.19-.46.1-.666.395-.704.284-.04.79.065.864.247.606 1.446 1.135 2.923 1.675 4.395.036.09-.028.216-.05.36zm.217-16.652c-.015.023-.028.048-.043.07-.023.007-.043.02-.064.027-.092.846-.14 1.703-.302 2.535-.203 1.055-.745 1.595-1.135 1.274-.608-.5-.6-1.202-.46-1.827.223-1.007.897-1.678 1.896-1.983l.006-.09c.034 0 .066 0 .1-.003.204-.325.375-.693.66-.925.146-.114.57.033.813.16.16.085.22.35.33.53-.098.05-.19.133-.294.143-.504.04-1.008.062-1.51.09zm3.29 13.18c-.266.378-.618.14-.837-.09-1.35-1.44-.487-2.87.058-4.295.032-.082.17-.12.25-.173.103 0 .267-.022.277.005.354 1.045.8 2.077.98 3.155.07.416-.42.964-.726 1.4zm38.514 5.364c-.33-.06-.68.013-1.016-.01-.675-.04-1.042-.45-1.06-1.085-.092-2.838-.096-5.68-.242-8.513-.1-1.92-.05-3.656 2.252-4.267.09-.027.154-.16.235-.24.515-.498.46-1.723-.103-2.162-1.352-1.05-3.13-.996-4.352.13-1.344 1.235-1.847 2.84-1.923 4.587-.066 1.472-.015 2.95-.015 4.427h.038c0 1.586-.083 3.182.025 4.766.094 1.348.272 2.722.647 4.017.73 2.502 3.733 3.723 6.078 2.595.975-.47 1.483-1.46 1.298-2.53-.153-.9-.803-1.524-1.858-1.716z"/></svg>