<svg xmlns="http://www.w3.org/2000/svg" width="128" height="128" viewBox="0 0 128 128"><path d="M123.672 74.448c-.083-3.648-.28-7.296-.356-10.94-.055-2.58-.01-5.16.02-7.738.035-2.912-.236-5.792-.82-8.64-.715-3.493-1.933-6.805-3.587-9.963-.497-.944-1.17-1.608-2.26-1.493-2.196.23-4.244-.512-6.354-.866-1.948-.328-2.033-.508-1.944-2.564.048-1.072.14-2.144.23-3.216.11-1.387.33-2.773.343-4.162.037-4.085-.002-8.168-.02-12.254-.002-.537.024-1.088-.084-1.604-.21-1.003-.79-1.725-1.794-2.1-.946-.357-1.906-.367-2.853-.142-1.81.432-3.66.445-5.448.18-2.355-.35-4.712-.362-7.07-.392-3.546-.043-7.093.038-10.64-.03-1.925-.036-3.857-.185-5.766-.436-2.625-.34-4.84.293-6.74 2.184-1.293 1.283-2.66 2.51-4.1 3.622-2.725 2.1-5.285 4.375-7.703 6.823-.81.82-1.248 1.678-1.254 2.83-.015 2.576-.085 5.156-.14 7.735-.013.75-.02 1.504-.08 2.25-.037.48-.386.777-.842.816-.53.043-1.07 0-1.605-.043-2.3-.184-4.44.306-6.58 1.18-1.28.52-1.937 1.332-2.163 2.533-.196 1.047-.198 2.136-.224 3.21-.073 2.793-.022 5.59-.185 8.382-.317 5.472-.395 10.938.01 16.408.047.64.02 1.287-.016 1.93-.1 1.712-.295 3.42-.32 5.134-.05 3.54-.015 7.093-.015 10.64l.06.002c0 4.296.03 8.597-.014 12.896-.018 1.702.332 3.173 1.737 4.292.405.322.7.814.978 1.27.666 1.09 1.682 1.567 2.88 1.855 2.44.595 4.896.538 7.37.354 1.817-.13 3.635-.32 5.454-.36 2.148-.05 4.3-.034 6.45.06 7.534.337 15.01-.827 22.53-.844.322 0 .653-.02.96-.102 2.208-.594 4.474-.584 6.724-.587 5.055-.01 10.108.043 15.158.055.964.003 1.934-.026 2.898-.087 1.536-.096 2.535-.91 3.21-2.3 2.61-5.397 4.065-11.054 4.03-17.07-.018-2.908.007-5.81-.06-8.71zm-52.73-59.906c.168.194.448.37.48.585.045.274-.11.576-.178.867-.303-.218-.61-.434-1.007-.71.318-.33.512-.538.706-.74zm-2.254 3.303c.05.17.117.338.135.512.008.064-.105.14-.16.21-.048-.17-.117-.337-.13-.51-.012-.065.1-.142.154-.212zm-3.02 2.062c.012.016.015.037.022.053l.176.122c.015.075.026.155.053.224l.15.133c-.054-.037-.124-.06-.145-.107-.004-.01-.003-.02-.006-.028l-.146-.128c-.025-.075-.05-.15-.083-.218-.063-.044-.127-.088-.19-.134.06.026.14.032.17.078zm-4.69 4.17c3.234.756 6.464 1.517 9.7 2.27.624.144 1.258.305 1.894.36 1.724.157 2.942-.7 3.232-2.428.175-1.04.168-2.146.027-3.194-.357-2.58-.243-5.133.2-7.685.157-.89.333-1.027 1.308-1.027 2.9-.005 5.798 0 8.7 0v.078c1.824 0 3.652-.05 5.475.018 1.71.06 3.416.28 5.125.362 1.82.088 3.65.1 5.472.14.428.01.86 0 1.287.018.837.035 1.216.37 1.222 1.122.004.966-.023 1.933-.034 2.9-.032 2.575-.018 5.155-.112 7.73-.053 1.494-.333 2.978-.41 4.473-.13 2.464-.194 4.933-.256 7.403-.052 2.04-.044 4.078-.09 6.118-.02.89-.332 1.244-1.066 1.312-2.453.22-4.91.392-7.36.656-3.514.38-7.045.533-10.55 1.073-1.473.227-2.996.17-4.503.167-4.723-.02-9.448-.072-14.173-.126-.678-.008-.774-.235-.55-1.047.468-1.707-.42-2.77-2.076-2.407-.83.184-1.626.533-2.437.81-.46.152-1.047-.046-.992-.362.073-.4.164-.87.42-1.14.27-.29.78-.333 1.138-.555.447-.275.877-.6 1.272-.952.373-.334.267-1.198-.206-1.383-.678-.268-1.402-.422-2.103-.64-.097-.03-.22-.114-.24-.197-.016-.07.076-.206.156-.256.728-.445 1.493-.838 2.193-1.327.427-.3.832-.687 1.12-1.118.693-1.037-.006-2.573-1.22-2.746-.314-.046-.64-.037-.96-.032-1.63.036-1.603.036-1.682-1.282-.118-1.924-.268-3.845-.413-5.767-.092-1.184.356-1.6 1.49-1.338zm57.577 42.08c-.44 6.755-.323 13.518-.43 20.28-.048 3.032-.737 5.942-1.945 8.74-.414.958-1.01 1.26-1.993 1.187-2.244-.162-4.485-.245-6.702-.773-4.623-1.107-9.325-1.355-14.06-.926-.428.038-.852.103-1.282.107-3.877.03-7.683.67-11.493 1.3-2.325.386-4.698.467-7.024.823-4.806.74-9.638.55-14.464.565-3.115.075-6.23.165-9.342.22-1.058.02-1.342-.267-1.355-1.333-.058-4.192-.09-8.38-.134-12.567-.006-.76 0-1.506.548-2.123.797-.896.533-1.712-.11-2.59-.714-.974-.66-2.002.125-2.955.068-.084.158-.15.213-.24.896-1.4.885-1.727-.09-3.148-.598-.87-.603-.878.106-1.532.396-.363.846-.672 1.215-1.058.966-1.013.73-2.275-.523-2.9-.187-.093-.42-.093-.625-.15-.295-.078-.67-.114-.606-.544.03-.18.188-.395.347-.494.55-.336 1.15-.592 1.685-.95.533-.348 1.053-.742 1.504-1.192.554-.548.903-1.246.67-2.043-.27-.92-1.023-1.364-1.894-1.55-.397-.087-.843.05-1.26.09-.3.028-.6.065-.9.097.238-.273.427-.624.722-.803.913-.557 1.873-1.045 2.81-1.573.67-.376 1.186-.89 1.518-1.61.33-.72.18-1.52-.474-2-.727-.53-1.506-.824-2.406-.456-.398.162-.797.32-1.184.498-.533.242-.98 1.163-1.568.644-.355-.313-.267-1.195-.277-1.824-.053-3.868-.085-7.733-.11-11.602-.004-.644.34-1.004.962-1.028.964-.035 1.932.008 2.896-.053.74-.053 1.49-.15 2.205-.343 1.467-.4 1.47-.434 1.657.89.203 1.487.4 2.97.55 4.46.11 1.067.625 1.77 1.59 2.233 1.264.606 2.54 1.14 3.972 1.204 3.537.16 7.07.405 10.612.485 3.753.09 7.51.142 11.26-.24 2.134-.22 4.293-.12 6.436-.244 1.924-.11 3.842-.347 5.762-.486 3.104-.223 6.208-.426 9.312-.618 1.585-.1 2.16-.456 2.55-1.935.377-1.445.805-2.88.686-4.427-.08-1.067.064-2.146.154-3.215.027-.294.192-.624.617-.527 1.36.305 2.712.644 4.076.914 2.275.448 2.38.408 2.813 2.746.965 5.157 2.084 10.287 2.38 15.563.16 3.008.495 6.015.3 9.008zm-79.27-29.15c-.43-1.162-1.297-1.72-2.386-1.896-.83-.13-1.71-.02-2.564.05-1.278.11-2.55.31-3.827.42-2.134.19-4.29-.042-6.4.583-.79.235-1.703.068-2.563.068-.427 0-.858-.084-1.28-.05-.867.076-1.904 1.038-1.91 1.87-.023 2.136-.174 4.27-.223 6.403-.283 12.448.184 24.9-.54 37.348-.252 4.28-.063 8.593-.014 12.884.017 1.06.268 2.12.447 3.173.175 1.03.81 1.764 1.742 2.165 1.572.676 3.076 1.52 4.777 1.893 1.088.24 1.117.368 1.154 1.56.018.537.036 1.074.01 1.61-.073 1.54.4 2.767 1.947 3.33.674.25 1.09.684 1.203 1.366.16.95.396 1.934-.306 2.778-.41.496-.86.96-1.325 1.402-.83.783-1.38.83-2.295.25-.18-.113-.355-.246-.512-.39-1.45-1.354-3.164-1.634-5.082-1.41-1.162.136-2.36.09-3.537.018-.622-.035-1.253-.242-1.842-.475-.802-.323-1.112-1.083-.81-1.84.2-.5.413-1 .688-1.454.987-1.64 1.15-3.42 1.074-5.28-.06-1.475-.57-2.712-1.596-3.75-.452-.46-1.01-.853-1.333-1.39-1.088-1.802-1.355-2.815.21-4.287.464-.44.877-.94 1.286-1.438 1.227-1.493 1.617-3.22 1.44-5.123-.104-1.126-.53-2.064-1.43-2.767-.253-.196-.54-.352-.79-.555-.377-.3-.437-.684-.27-1.14.453-1.246 1.252-2.24 2.204-3.127.63-.585 1.298-1.125 1.892-1.74.616-.64.245-1.748-.62-2.118-.982-.424-1.89-.233-2.776.243-3.284 1.77-4.93 4.658-5.487 8.238-.178 1.14.235 2.045 1.28 2.728 1.614 1.06 1.645 1.513.48 2.955-.337.417-.725.792-1.105 1.17-1.96 1.96-2.264 4.303-1.523 6.85.486 1.66 1.125 3.242 2.553 4.376.965.764 1.13 1.77.69 2.894-.117.303-.192.62-.334.908-.74 1.502-.712 3.11-.768 4.725-.075 2.197.995 3.635 2.816 4.68 1.732 1 3.605 1.397 5.566 1.274 2.064-.128 3.86.025 5.62 1.54 1.72 1.48 4.123 1.54 6.042.21 4.21-2.925 5.685-4.88 4.17-10.283-.236-.843-.13-1.444.4-2.045.79-.904.808-1.965.596-3.045-.102-.523-.352-1.01-.49-1.53-.124-.47.076-.822.53-1.017 1.183-.507 2.395-.95 3.54-1.524 1.134-.567 1.685-1.54 1.788-2.848.356-4.386.683-8.768.634-13.173-.064-5.693-.015-11.385-.015-17.077 0-8.162-.017-16.325.015-24.487.003-1.63-.277-3.17-.837-4.7zm-3.58 19.19c-.077.636-.07 1.282-.077 1.928-.082 8.917-.122 17.835-.267 26.75-.04 2.673-.354 5.343-.57 8.012-.05.64-.6 1.148-1.3 1.216-2.993.3-5.983.58-8.976.84-.766.064-1.08-.363-1.124-1.195-.06-1.083.33-1.862 1.31-2.362.67-.34 1.348-.683 1.955-1.12.416-.3.784-.725 1.06-1.165.488-.783-.136-1.956-1.022-1.88-.837.077-1.653.365-2.49.518-.177.032-.505-.056-.548-.17-.1-.26-.174-.62-.067-.857.373-.836 1.202-1.172 1.924-1.627.995-.627 2.018-1.23 2.92-1.98 1.098-.91.924-3.14-.86-3.572-.31-.076-.643-.057-.956-.116-.18-.036-.345-.15-.515-.23l.478-.416c.245-.206.508-.395.736-.62.15-.152.267-.337.368-.524.556-.99-.18-2.342-1.338-2.35-.624-.005-1.248.236-1.874.337-.725.12-1.124-.372-1.067-1.18.06-.823.4-1.452 1.148-1.797.78-.357 1.59-.643 2.384-.968.596-.245 1.203-.467 1.772-.763.686-.356 1.053-1.247.86-1.913-.272-.95-1.3-1.683-2.2-1.473-.933.22-1.848.544-2.766.835-.427.134-.637-.18-.702-.446-.254-1.08-.015-1.65.877-2.14 1.882-1.036 3.77-2.05 5.66-3.068.47-.256.968-.47 1.423-.752.86-.523 1.234-1.323 1.064-2.155-.15-.712-.964-1.455-1.9-1.493-.836-.037-1.69.126-2.524.256-.91.14-1.62.926-2.596.87-.01.028-.03.052-.04.082-.04.005-.072.018-.107.026-.048.3-.252.445-.523.52-.005.044-.02.08-.016.13-.082.017-.172.022-.247.055l-.13.133c.04-.046.073-.11.124-.132h.005l.145-.15c.04-.01.076-.024.116-.035.03-.31.23-.46.524-.52.003-.037.02-.066.02-.11.043.005.082 0 .124 0 .392-.947 1.384-1.17 2.125-1.697.778-.56 1.64-1.03 2.335-1.682 1.06-.994.547-2.65-.902-2.982-.616-.142-1.29-.192-1.907-.102-.73.107-1.43.41-2.145.63-.467.138-.882-.115-.89-.588-.063-4.192-.066-8.377.658-12.525.107-.608.544-.91 1.137-.917 2.79-.046 5.583-.094 8.375-.092 1.124 0 1.508.42 1.504 1.605-.03 5.044.11 10.095-.48 15.124zm-12.002 23.99c.227-.19.463-.37.715-.526.064-.04.197-.01.288.023.27.1.258.24-.018.407-.256.155-.503.327-.733.475-.133-.06-.245-.083-.297-.15-.032-.04-.005-.185.045-.227zM90.925 63.07c.177 1.643 2.462 3.193 4.048 2.684 1.51-.486 2.702-1.442 2.992-3.07.183-1.036.19-2.154.02-3.188-.287-1.758-1.79-2.8-3.545-2.47-2.68.497-3.618 1.79-3.58 3.792.005.215 0 .43 0 1.18 0 0 .005.54.065 1.074zM71.89 79.077c.767-.8 1.228-1.76 1.436-2.805.335-1.71-.274-3.218-1.51-4.334-1.72-1.557-4.662-.475-5.337 1.894-.237.816-.388 1.662-.48 2.504-.22 1.984 1.44 3.85 3.452 3.84.933.075 1.73-.36 2.436-1.1zm9.023-13.084c2.827.437 4.913-1.504 4.878-4.512-.024-2.046-.96-3.262-2.867-3.684-1.26-.28-2.315.238-3.27.958-.928.693-1.69 4.334-1.186 5.38.496 1.04 1.31 1.683 2.446 1.86zm-11.725.02c1.914.037 3.92-1.913 3.693-3.982.2-2.083-1.784-3.977-3.69-3.983-2.22-.013-4.255 1.87-4.09 4.325.134 2.028 1.915 3.602 4.09 3.64zM86.49 74.69c.038-1.66-1.78-3.984-3.957-3.763-2.17.035-3.877 1.728-3.87 3.832.014 2.353 1.565 4.176 3.52 4.135 2.49-.053 4.258-1.845 4.308-4.205zm.186 9.55c-1.323-1.043-2.773-1.01-4.228-.25-1.244.645-1.934 1.624-1.918 3.083.013.992.275 1.895.693 2.78.49 1.04 1.203 1.778 2.387 1.91 1.408.152 2.523-.383 3.3-1.565.603-.918.906-1.937.805-3.108.07-1.064-.128-2.13-1.042-2.856zm7.82-.303c-1.718.192-2.742 1.163-2.95 2.83-.054.422-.062.85-.08 1.106.02.38.02.597.037.808.17 1.935 1.427 3.1 3.36 3.13 2.238.034 3.816-1.73 3.77-4.222-.046-2.556-1.605-3.926-4.14-3.65zm.924-6.624c1.425-1.24 1.883-3.528 1.042-5.227-.416-.84-1.743-1.515-2.673-1.365-1.67.27-3.88 2.788-3.954 4.53-.008.202.04.423.114.62.51 1.34 1.8 2.272 3.217 2.283.826.064 1.583-.26 2.253-.84zM69.025 84.98c-1.376 1.165-2.168 2.65-1.993 4.522.098 1.038 1.03 2.027 2.04 2.23 2.353.462 4.576-1.395 4.515-3.785-.032-1.163-.326-1.934-1.008-2.635-.866-.883-2.644-1.112-3.557-.335z"/></svg>