<svg xmlns="http://www.w3.org/2000/svg" width="128" height="128" viewBox="0 0 128 128"><path d="M106.157 107.41c-.218-7.53.17-15.067-.493-22.596-.334-3.802-.06-7.656-.06-11.485-.167-5.683-.19-11.356-.67-17.03-.487-5.77-.658-11.573-.967-17.36-.008-.113-.003-.23-.02-.34-.705-4.378-.577-8.79-.72-13.193-.115-3.477-.365-6.944-.573-10.417-.03-.455-.15-.91-.267-1.358-.26-.96-.814-1.357-1.822-1.115-1.95.466-3.845.672-5.766-.184-.493-.22-1.143-.09-1.725-.1-9.393-.12-18.784 0-28.18-.4-6.486-.276-12.994-.11-19.49-.082-1.368.006-2.945-.496-4.062.418-1.135.932-2.223 2.165-2.778 3.5-.747 1.793-2.032 3.044-3.255 4.413-2.404 2.69-4.447 5.667-6.204 8.788-1.14 2.023-2.206 4.043-3.87 5.7-.763.76-1.223 1.687-1.176 2.804.128 3.11-.334 6.244.55 9.338.34 1.195.248 2.535.24 3.806-.08 9.166-.195 18.332-.283 27.5-.04 4.06.16 8.135-.115 12.18-.322 4.75-.334 9.5-.4 14.253-.016.924-.09 1.88.082 2.777.418 2.174.693 4.292-.08 6.48-.367 1.036.533 2.186 1.62 2.228 1.265.053 2.558.03 3.8-.178 4.125-.69 8.252-1.16 12.45-1.074 4.87.104 9.746.022 14.62.076 1.144.01 2.302.172 3.424.404 2.617.545 5.23.957 7.92.91 4.87-.078 9.747-.044 14.62-.078.807-.006 1.617-.094 2.42-.19 3.104-.357 6.2-.81 9.31-1.08 1.61-.14 3.247.02 4.87.07 1.22.035 2.328-.14 2.954-1.363.304-.6.84-.75 1.444-.765 1.415-.036 2.088-.98 2.37-2.162.235-.997.306-2.065.277-3.093zM39.184 23.67c.114-.012.3-.073.333-.02 1.216 1.61 2.997 2.878 3.2 5.116.02.203-.08.587-.165.597-.27.038-.678.047-.83-.12-1.08-1.18-2.114-2.408-3.157-3.626-.44-.512-.047-1.736.62-1.947zm-2.364 5.06c.1.128.248.243.292.39.043.142.043.3.046.46.034.02.07.045.102.068l.728.723c.008.094.032.17.058.243l.405.386c.08.02.164.035.26.035.237.233.47.47.703.704.036.095.245.35-.09.097l-.87-.838c-.2-.057-.334-.188-.405-.387l-.15-.144c-.244-.244-.49-.48-.733-.718-.003-.055-.003-.113-.004-.17-.144-.096-.3-.184-.37-.316-.072-.136.015-.354.03-.537zm-4.064 2.993c.472-.587.753-.555 1.312.096.277.32.5.69.727 1.01-.15.16-.213.293-.302.314-.757.17-1.515.33-2.28.442-.09.014-.366-.384-.32-.476.242-.484.523-.964.864-1.386zm64.73 75.364c-.11.547-.344 1.13-.693 1.553-.463.555-1.07.01-1.614-.025-.926-.064-1.85-.156-2.775-.16-8.59-.032-17.177-.435-25.76.06-.58.035-1.18-.028-1.737.1-5.185 1.2-10.415.08-15.617.318-.724.034-1.073-.592-.67-1.14.684-.937 1.423-1.83 2.134-2.742.462-.59.6-1.235.288-1.94-.323-.727-.968-.96-1.685-1.03-1.093-.1-2.05.203-2.86.983-1.438 1.392-2.592 2.98-3.354 4.823-.363.88-.94 1.248-1.86 1.19-.463-.03-.934.066-1.39.018-.856-.088-1.822.427-2.543-.437.41-.686.764-1.408 1.24-2.044 1.528-2.043 3.1-4.05 4.655-6.07.14-.18.3-.355.437-.543.54-.758.614-1.654.194-2.273-.598-.878-1.868-1.34-2.76-.803-.977.59-1.962 1.264-2.71 2.107-1.537 1.735-2.924 3.6-4.366 5.415-.358.45-.687.924-1.047 1.37-.064.082-.217.143-.312.125-.07-.015-.157-.167-.16-.262-.078-1.504-.18-3.006-.18-4.507.003-.414.268-.89.545-1.227 3.322-3.936 5.272-8.715 7.98-13.03.06-.095.11-.202.158-.308.49-1.11.322-2.258-.416-2.886-.792-.675-2.197-.52-3.14.443-.645.66-1.232 1.393-1.748 2.155-.975 1.442-1.855 2.944-2.828 4.384-.218.326-.658.502-.997.748-.08-.334-.176-.663-.232-1.003-.038-.227-.023-.462-.027-.695-.02-1.504-.35-3.097.028-4.494.34-1.264 1.485-2.3 2.23-3.463 1.994-3.123 3.978-6.258 5.943-9.402.355-.566-.18-1.514-.842-1.61-.962-.145-1.89-.02-2.603.655-.753.715-1.423 1.52-2.082 2.322-.81.98-1.557 2.012-2.364 2.994-.116.144-.46.236-.62.172-.175-.073-.35-.355-.363-.557-.06-.924-.08-1.853-.08-2.78-.008-5.457-.005-10.91-.005-16.367h-.003V39.12c0-.697.332-1.075 1.01-1.126 3.115-.245 6.238-.39 9.337-.76 1.937-.233 3.84-.78 5.75-1.224 1.322-.307 1.85-1.346 2.01-2.557.09-.678.017-1.393-.09-2.076-.652-4.115-1.206-8.246-2.28-12.29-.146-.545-.23-1.135-.206-1.7.014-.278.324-.767.524-.777 2.98-.203 5.905-1.34 8.96-.43.86.257 1.84.13 2.765.148 3.713.076 7.43.042 11.138.225 7.642.373 15.277.86 22.916 1.305.346.02.705.005 1.04.09 1.08.28 2.572-.562 3.21.594.436.8.06 2.037.095 3.075.05 1.507.07 3.02.23 4.515.434 4.047.438 8.105.458 12.162.066 14.277.126 28.552.192 42.83.028 6.15-.003 12.298.51 18.428.21 2.594-.462 5.05-.964 7.535z"/></svg>