<svg xmlns="http://www.w3.org/2000/svg" width="128" height="128" viewBox="0 0 128 128"><path d="M106.098 86.667c-.177-8.498-.504-16.99-.774-25.485-.07-2.272-.168-4.544-.243-6.816-.164-5.024-.33-10.048-.48-15.07-.017-.353 0-.738.106-1.07.72-2.214.515-4.498.546-6.763.038-3.113.118-6.225.118-9.338.003-1.435.018-2.896-.23-4.296-.436-2.466-.982-4.91-1.142-7.415-.045-.7-.317-1.387-.54-2.063-.42-1.26-1.166-2.048-2.65-1.867-.703.09-1.535.237-2.122-.043-1.84-.867-3.757-.605-5.656-.63-3.112-.045-6.226-.007-9.34-.045-9.58-.125-19.158.01-28.732-.422-3.453-.157-6.93.17-10.398.24-3.08.065-2.896-.247-4.91 2.702-.334.49-.83.946-.967 1.49-.287 1.138-1.124 1.793-1.848 2.582-2.675 2.922-4.86 6.22-7.1 9.47-.27.386-.51.817-.67 1.264-.7 1.95-1.818 3.69-3.29 5.064-1.48 1.38-1.914 2.922-1.775 4.814.07.953-.028 1.915.02 2.87.084 1.79.02 3.62.39 5.354.33 1.553.458 3.07.398 4.623-.168 4.305-.484 8.61-.523 12.91-.12 13.776-.208 27.553-.152 41.324.015 3.936.544 7.87.875 11.8.024.313.26.787.508.875 1.564.532 3.145 1.04 4.75 1.436.85.208 1.664.016 2.044-.98.288-.77.968-.9 1.702-1.076 2.356-.573 4.74-.55 7.133-.514 1.077.014 2.155-.02 3.23-.064.79-.032 1.373-.472 1.698-1.152 1.023-2.123.048-3.36-1.82-3.695-.35-.064-.72.015-1.075-.032-1.3-.174-2.61-.31-3.887-.59-.967-.21-1.876-.28-2.817.07-1.156.43-2.357.5-3.524.137-.383-.117-.883-.574-.93-.928-.253-1.892-.497-3.802-.527-5.71-.092-6.226-.11-12.456-.104-18.685 0-1.187.28-2.372.33-3.565.053-1.308.216-2.674-.093-3.915-.323-1.312-.363-2.596-.37-3.904-.038-10.54-.053-21.08-.087-31.62-.008-1.544.183-3.11-.506-4.597-.19-.405.276-.88.8-.933.118-.01.24-.032.36-.036 2.143-.07 4.305.158 6.4-.587.54-.19 1.196-.16 1.785-.096 2.2.235 4.272-.41 6.356-.9 2.707-.636 3.093-1.2 3.066-3.965-.005-.48-.037-.96-.08-1.44-.31-3.578-.923-7.104-1.766-10.597-.277-1.147-.384-2.342-.486-3.524-.04-.5.31-.957.832-.988 2.485-.144 4.917-1.074 7.47-.41.904.235 1.905.11 2.866.128 4.55.08 9.1.153 13.65.236.837.017 1.712-.092 2.503.12 2.004.533 4.04.467 6.068.54 4.18.146 8.34.715 12.537.614 1.062-.028 2.13.258 3.193.373.587.066 1.178.092 1.765.107 1.14.027 1.667.446 1.443 1.392-.338 1.422-.375 2.773-.04 4.224.293 1.264.238 2.616.257 3.932.176 10.893.37 21.788.487 32.68.07 6.707.01 13.415.01 20.124h.08c.086 7.666.108 15.328.29 22.994.052 2.447-.45 4.764-1.007 7.08-.42 1.768-1.58 2.215-3.207 1.476-.437-.198-.847-.547-1.296-.6-.815-.096-1.875-.346-2.428.045-1.58 1.112-3.41 1.01-5.12 1.477-.805.22-1.632.368-2.438.585-.63.164-1.05.582-1.105 1.25-.12 1.44-.03 2.065 1.58 2.125 1.078.043 2.15.113 3.228.132 2.15.03 4.28.08 6.432.402 2.353.35 4.772.26 7.166.33.753.017 1.563-.24 1.82-.94.813-2.214 2.085-4.244 2.03-6.78-.112-5.75.062-11.5-.06-17.248zm-71.97-58.81c-.338.06-.684.072-.93.095-.212-.008-.327-.013-.44-.02-.497-.037-.803-.534-.59-.946.05-.104.07-.24.15-.31.418-.362.848-.977 1.28-.98.353 0 .756.7 1.058 1.146.256.373-.06.93-.53 1.013zm5.27-1.662c-.01-.016-.014-.036-.02-.053l-.2-.14c-.255-.25-.507-.498-.755-.75 0-.052-.005-.1-.006-.154-.51-.24-.516-.712-.544-1.173-.046-.032-.075-.067-.125-.094-.058-.057-.117-.115-.175-.176-.192-.077-.324-.213-.4-.41l-.165-.167-.08-.163c-.12-.047-.24-.096-.356-.144.06-.076.117-.152.18-.225.06.122.116.245.176.368l.173.07c.015.096.04.18.07.26l.4.41c.084.03.177.057.283.067.008.064.01.133.017.203.413.282.532.702.543 1.173.037.017.067.037.11.05.25.253.5.502.754.753.032.08.06.16.1.24l.207.142c-.064-.028-.154-.043-.186-.09zm3.407-2.52c-.105.036-.29.065-.337.012-1.293-1.506-2.6-3.006-3.812-4.58-.13-.17.242-.828.5-1.172.29-.39.895-.316 1.192.077.707.934 1.51 1.822 2.075 2.837.427.77.547 1.712.784 2.51-.227.18-.302.277-.402.316zm37.302 76.37c-1.712-.822-3.403-1.687-5.455-1.265-1.624.33-1.79.115-1.8-1.61-.016-2.994-.002-5.987-.002-8.98h.14c0-3.23.012-6.463-.01-9.695-.01-1.483-.673-2.293-2.137-2.293-2.984 0-5.973.075-8.9.784-.8.196-1.265.702-1.503 1.394-.576 1.696-.954 3.413-1.02 5.245-.178 4.866-.524 9.74-.82 14.603-.032.512-.347.885-.885.963-.354.055-.715.068-1.073.08-1.43.057-2.88.008-4.3.178-2.043.245-2.358.76-2.45 2.756-.068 1.51.273 2.83 1.155 4.043.63.87 1.202 1.79 1.845 2.648 2.718 3.635 5.685 7.1 7.635 11.26.6 1.28 1.773 1.92 3.125 2.17.853.16 1.67.047 2.21-.79.26-.402.642-.74.828-1.168 1.03-2.357 2.734-4.18 4.525-5.95 1.45-1.426 2.896-2.854 4.32-4.31 1.007-1.02 1.998-2.06 2.947-3.135 1.124-1.27 1.813-2.802 2.373-4.377.37-1.045.043-2.168-.747-2.546zm-20.54 6.64c-.245.154-.704.21-.933.08-.267-.15-.555-.565-.533-.846.085-1.088.487-2.076 1.34-2.807.118-.1.51-.09.577.006.33.47.597.985.785 1.317.02 1.156-.503 1.792-1.232 2.246zm4.414-25.823c.07.064.194.124.194.192.017.427.01.853.01 1.525-.223-.42-.394-.6-.394-.778.01-.314.122-.625.19-.942zm-.056 26.84c-.058-.194-.174-.397-.16-.587.01-.128.2-.245.317-.378.078.216.204.42.193.608-.014.128-.226.24-.35.357zm3.017-22.556c.057-1.323.87-2.445 1.87-3.358.053-.047.206-.07.237-.035.075.082.156.213.143.31-.24 1.524-.492 3.05-.737 4.575-.02-.003-.046-.003-.066-.005-.15 1.412-.3 2.823-.467 4.235-.01.096-.18.267-.224.25-.176-.06-.466-.168-.476-.28-.13-1.896-.36-3.798-.28-5.69zm.98 10.64c0 .105-.25.21-.385.31-.067-.095-.177-.182-.194-.283-.063-.46-.106-.922-.155-1.397.078-.333.146-.67.245-1 .026-.1.124-.188.19-.278.08.085.22.166.227.258.045.797.083 1.595.075 2.39zm.567 15.927c-.843.91-1.34 2.18-2.648 2.613l.016.085c-.026.016-.053.025-.08.036-.01.2-.005.407-.077.58-.057.133-.265.202-.406.3-.004-.208-.083-.464.007-.606.09-.14.297-.2.477-.276.002-.032.002-.066.005-.098.022-.006.038-.017.06-.02-.357-1.548.095-2.972.68-4.374.23-.56.486-.597 1.08-.155.19.142.388.273.565.427.626.552.766 1.01.323 1.488zm.957-7.467c.003.03.005.062.01.093-.063.026-.127.05-.187.08l-.154.26c.02-.074.015-.17.06-.208.027-.02.062-.037.094-.053l.098-.166c.028-.002.05-.008.078-.01-.082-.71-.032-1.37.78-1.69.083-.03.223-.016.29.035.086.06.188.2.172.276-.173.678-.412 1.317-1.242 1.376zm5.468-.73c-.634 1.772-1.476 3.402-3.265 4.287-.003.053-.013.1-.016.154-.075.02-.15.034-.224.06l-.16.19c.035-.06.058-.144.107-.174.017-.008.037-.008.055-.015l.132-.154c.035-.018.067-.04.106-.06.14-1.88 1.013-3.49 1.973-5.056.1-.16.686-.188.93-.055.216.117.437.608.357.823z"/></svg>