<svg xmlns="http://www.w3.org/2000/svg" width="128" height="128" viewBox="0 0 128 128"><path d="M105.933 79.665c-1.005-2.13-1.478-4.296-1.57-6.56-.342-8.337-.62-16.674-.89-25.017-.076-2.392-.246-4.795.61-7.13.25-.69.207-1.502.204-2.258-.03-7.334-.043-14.672-.153-22.01-.02-1.495-.42-2.992-.68-4.48-.096-.55-.5-.885-1.056-.88-1.008.003-2.016.112-3.026.116-.747.005-1.59.117-2.227-.175-1.34-.61-2.712-.545-4.094-.545-8.094-.008-16.19-.002-24.286-.002v-.195c-8.096 0-16.192-.02-24.288.008-4.427.017-3.47-.597-6.315 3.547-.986 1.44-1.842 2.97-3.015 4.288-3.032 3.4-5.685 7.06-7.714 11.16-.386.78-.93 1.494-1.46 2.195-.685.9-1.48 1.728-2.136 2.653-.35.493-.715 1.124-.717 1.694-.02 2.902-.42 5.832.248 8.69.467 2 .555 3.993.517 6.02-.255 15.172-.522 30.346-.724 45.52-.064 4.796-.197 9.605.36 14.395.143 1.22.242 2.443-.28 3.716-.65 1.598.242 2.74 1.98 2.757 1.64.015 3.328.06 4.912-.288 3.377-.735 6.776-.75 10.19-.75 5.69 0 11.385.023 17.076.018 1.39-.002 2.784-.056 4.17-.15 2.518-.172 5.036-.54 7.553-.56 7.46-.07 14.922-.033 22.385.016 1.254.004 2.505.288 3.76.392 1.757.144 3.52.262 5.282.36 1.283.076 2.264-.545 2.714-1.684.917-2.334 1.96-4.608 1.764-7.275-.203-2.77.016-5.566-.064-8.348-.076-2.552.165-5.02 1.098-7.424.405-1.052.636-2.184.832-3.3.517-2.927.288-5.862-.958-8.512zM38.17 23.093c.246-.207.89-.373.99-.252 1.255 1.51 2.9 2.804 3.045 5.276-.03.05-.13.358-.34.54-.076.064-.477-.113-.62-.275-1.137-1.33-2.26-2.67-3.37-4.022-.432-.523-.057-.966.296-1.264zm-1.934 4.72c.092.157.22.302.264.467.04.146.048.3.056.452.04.036.078.075.117.112l.8.796c.258.248.514.494.77.744.038.096.063.203.113.294l.16.125c-.053-.043-.128-.073-.16-.124v-.004l-.226-.177c-.252-.257-.506-.51-.757-.76-.27-.267-.536-.526-.804-.786-.008-.075-.013-.15-.015-.224-.128-.11-.26-.22-.37-.35-.068-.074-.108-.206-.1-.31.01-.085.097-.17.15-.258zm-5.014 3.994c.22-.3.445-.595.698-.866.516-.55 1.113-.54 1.515.09.252.39.346.878.51 1.32-.347.113-.688.248-1.042.32-.24.05-.494.01-1.022.01.036 0-.21-.01-.457-.043-.37-.04-.474-.452-.198-.832zm68 72.182c-.06.04-.14.05-.22.062-.02.02-.04.048-.06.072-.02.002-.033.007-.052.01.318 1.904.023 3.734-.834 5.45-.433.868-1.316 1.748-2.432.938-1.328-.963-2.805-.954-4.336-1.03-6.7-.322-13.404-.24-20.102-.022-4.163.14-8.32.508-12.48.758-2.648.16-5.297.32-7.95.437-.338.014-.756-.15-1.02-.37-.43-.366-.114-1.48-.973-1.315-.47.088-.762.917-1.24 1.265-.384.275-.942.475-1.405.443-2.478-.17-5.008.448-7.45-.533-.514-.206-1.254-.034-1.83.15-1.105.34-2.208.57-3.356.388-.89-.143-1.71-.395-2.045-1.414-.3-.92-.24-1.68.466-2.423 1.91-2.022 3.74-4.12 5.66-6.13 1.058-1.108 2.048-2.232 2.545-3.717.176-.524.122-.99-.213-1.415-.448-.576-1.08-.647-1.71-.457-1.354.416-2.497 1.184-3.476 2.214-.96 1.007-1.933 2.007-2.935 2.976-.22.21-.584.326-.9.37-.317.048-.216-.826.197-1.33.238-.294.5-.573.738-.864 1.904-2.364 3.825-4.713 5.69-7.104.943-1.202 1.714-2.5 1.614-4.14-.056-.933-1.04-1.588-1.895-1.194-.343.16-.714.304-.994.547-.946.83-1.888 1.662-2.77 2.554-.797.805-1.507 1.693-2.265 2.534-.07.077-.295.14-.31.12-.122-.2-.36-.475-.3-.62.276-.7.59-1.39.967-2.033 1.596-2.728 3.253-5.42 4.814-8.165.49-.86.83-1.83 1.086-2.792.195-.745.056-1.536-.64-2.048-.612-.448-1.816-.373-2.496.203-.667.567-1.247 1.244-1.87 1.87-.177.176-.328.422-.544.512-.15.06-.506-.032-.567-.158-.54-1.08-1.44-1.913-1.413-3.354.125-6.197-.115-12.403.166-18.59.213-4.675.3-9.345.294-14.02 0-1.005-.053-2.023-.205-3.017-.363-2.37-.392-2.374 1.766-2.414 1.514-.025 3.01-.02 4.51-.427 1.078-.29 2.26-.306 3.39-.27 2.188.065 4.234-.635 6.317-1.09 1.664-.363 2.528-1.604 2.58-3.273.017-.5-.038-1.013-.12-1.51-.722-4.48-1.332-8.985-2.498-13.384-.097-.358-.214-.766-.133-1.11.072-.303.378-.746.632-.782 3.234-.472 6.446-1.31 9.762-.493.964.235 2.008.164 3.017.19 4.298.106 8.6.133 12.897.306 4.038.162 8.073.664 12.107.644 4.312-.017 8.554.672 12.842.845.587.025.888.438.9.993.03 1.517-.07 3.04.048 4.547 1.216 15.533.486 31.09.704 46.635.007.757-.02 1.517-.056 2.276-.03.577-.462.85-1.056.676-.363-.108-.704-.29-1.07-.39-5.887-1.574-11.714-1.458-17.522.496-2.693.912-4.97 2.328-7.027 4.306-2.502 2.41-4.417 5.162-5.934 8.25-.636 1.294-.946 2.593-.818 4.022.077.88.095 1.77.106 2.656.02 1.707.515 3.287 1.617 4.555 1.195 1.374 1.92 2.97 2.59 4.6 1.384 3.373 3.865 5.493 7.2 6.83 2.612 1.046 5.226 1.846 8.087 1.514.624-.07 1.266-.054 1.897-.02 3.442.18 6.434-.96 9.172-2.984.87-.644 1.624-1.53 2.805-1.667-.004-.02-.002-.044-.006-.067l.117-.016c.092-.112.18-.224.275-.333-.017.094-.002.23-.057.27zm3.146-13.676c-1.045 2.135-2.157 4.258-3.264 6.373-.283.535-.667 1.07-1.134 1.446-2.47 1.98-5.205 3.528-8.136 4.695-2.432.965-4.996.696-7.473.3-5.255-.834-8.734-4.625-10.16-9.85-1.124-4.12.11-7.26 2.505-10.488 2.206-2.976 5.166-4.82 8.334-6.304 2.495-1.166 5.332-1.436 8.112-1.202 2.188-.146 4.325-.107 6.252 1.045.526.315 1.21.71 1.376 1.214.5 1.538 1.76 2.44 2.712 3.582 2.407 2.888 2.4 6.088.88 9.187zm-60.256 10.563c-2.18.988-5.145 4.263-5.944 6.563-.224.648.184 1.54.868 1.89.72.364 1.55.503 2.133-.038 1.557-1.446 3.07-2.96 4.484-4.55.463-.516.574-1.354.893-2.164-.226-.537-.357-1.165-.715-1.617-.464-.58-1.135-.35-1.723-.08zM94.56 87.314c-1.758-.107-3.53-.025-5.6-.025-2.09.143-4.487.256-6.87.492-.983.1-1.998.324-2.902.715-1.26.538-1.45 2.24-.39 3.125.562.47 1.255.894 1.956 1.067 4.222 1.044 8.523.83 12.817.67.25-.006.506-.082.734-.18 1.83-.773 2.405-1.09 2.407-3.34.003-1.643-.58-2.435-2.147-2.53z"/></svg>