<svg xmlns="http://www.w3.org/2000/svg" width="128" height="128" viewBox="0 0 128 128"><path d="M105.68 82.394c-.577-8.837-.69-17.704-.988-26.56-.085-2.533-.055-5.067-.165-7.597-.132-3.05.14-6.07.432-9.096.13-1.372.155-2.774.066-4.147-.168-2.656-.378-5.3.128-7.942.115-.612.184-1.273.083-1.88-.555-3.357-.974-6.73-1.347-10.113-.106-.964-.628-1.914-1.108-2.788-.203-.374-.76-.716-1.197-.773-1.118-.15-2.355.126-3.365-.248-1.493-.556-2.973-.537-4.48-.54-8.107-.01-16.213-.005-24.318-.005v-.19c-8.107 0-16.21 0-24.318.003-.885 0-1.78-.032-2.656.075-.466.053-1.026.27-1.323.61-.828.95-1.845 1.905-2.22 3.043-.508 1.543-1.503 2.592-2.54 3.67-2.827 2.937-5.03 6.34-7.06 9.827-1.28 2.197-2.467 4.397-4.297 6.203-.422.416-.843 1.08-.848 1.63-.032 3.157-.22 6.364.213 9.472.3 2.14.57 4.242.488 6.395-.192 5.056-.5 10.112-.56 15.17-.14 12.03-.157 24.064-.214 36.096-.01 2.024.027 4.05.062 6.075.036 2.112.48 4.208-.094 6.34-.31 1.15.463 2.068 1.632 2.05 2.272-.04 4.574-.044 6.8-.42 1.763-.3 3.507-.483 5.274-.492 6.46-.023 12.918-.006 19.378-.03 1.9-.008 3.8-.064 5.696-.18 2.27-.145 4.53-.524 6.798-.543 7.6-.065 15.2-.044 22.795.006 1.38.006 2.757.335 4.14.444 1.762.14 3.532.23 5.297.292.962.034 1.853-.373 2.16-1.266.814-2.347 2.195-4.454 2.124-7.168-.23-8.47.082-16.95-.47-25.43zM39.084 23.066c.228-.2.85-.34.966-.21.99 1.12 1.976 2.258 2.806 3.494.316.47.224 1.216.306 1.758-.123.195-.184.387-.26.392-.203.015-.506.024-.608-.096-1.21-1.445-2.41-2.898-3.552-4.402-.114-.152.114-.733.343-.934zm-2.178 4.817c.006.016.008.036.01.053l.148.17.178.175c.186.075.31.21.39.39.078.074.154.15.23.225l.775.73.76.775c-.045.025.358.475-.104.106-.256-.25-.512-.507-.77-.762l-.776-.742c-.03-.122-.07-.233-.117-.334l-.39-.387c-.082-.03-.172-.054-.284-.06-.01-.094-.017-.192-.04-.283l-.19-.22c.063.054.155.097.18.165zm-3.997 3.05c.5-.555.965-.48 1.46.192.604.815.387 1.422-.547 1.527-.243.027-.49.032-.733.047-.24-.034-.505-.013-.71-.113-.148-.075-.34-.38-.294-.465.235-.42.505-.832.825-1.19zm66.467 77.654c-.18.594-.5 1.154-.816 1.69-.31.53-1.233.888-1.647.528-1.714-1.49-3.776-1.257-5.784-1.267-6.078-.038-12.155-.09-18.23-.043-2.01.014-4.02.323-6.035.496-.376.034-.757.1-1.133.087-1.237-.053-2.55-.43-3.695-.14-1.27.33-2.5.214-3.744.35-1.255.133-2.51.3-3.765.428-.872.088-1.268-.418-1.135-1.408.066-.494.17-.988.174-1.483.004-.392-.795-.837-1.183-.66-.445.204-.91.426-1.27.746-.938.83-1.796 1.757-2.748 2.574-.647.557-1.825.09-2.145-.78-.042-.114-.033-.25-.046-.375-.098-.924-.328-1.834-1.41-1.96-.867-.1-1.305.637-1.706 1.29-.2.323-.37.67-.59.975-.785 1.096-1.866 1.483-3.31 1.067-.235-.066-.544-.645-.47-.877.38-1.202 1.066-2.336 1.27-3.552.184-1.114 1.4-2.635-.178-3.383-1.155-.546-1.913.876-2.662 1.67-1.42 1.503-2.204 3.372-2.978 5.25-.38.916-.722 1.098-1.362.872-1.42-.507-1.933-1.133-1.62-2.112.344-1.084.796-2.13 1.167-3.205.287-.834.573-1.675.773-2.53.254-1.084-.264-1.568-1.434-1.423-1.104.14-1.283.053-1.168-.683.356-2.27.163-4.52.068-6.8-.093-2.24.203-4.54.643-6.754.473-2.39.467-4.776.54-7.18.02-.623.135-1.407-.175-1.855-.97-1.392-.69-2.916-.697-4.404-.03-5.318-.013-10.635-.013-15.95h.192c0-5.19.005-10.383-.006-15.573 0-1.013-.016-2.027-.107-3.032-.18-1.954-.206-1.955 1.77-1.99 1.645-.02 3.27.015 4.895-.46.95-.277 2.01-.267 3.013-.235 2.323.08 4.47-.685 6.68-1.195 1.812-.415 2.465-1.637 2.294-3.754-.235-2.886-.807-5.747-1.275-8.613-.162-.994-.555-1.957-.648-2.955-.143-1.46-1.238-2.83-.457-4.386 1.336-.296 2.66-.708 4.01-.864 1.5-.168 3.077-.365 4.53-.085 2.144.413 4.277.328 6.418.403 5.308.19 10.636-.04 15.913.76.747.114 1.517.065 2.275.106 5.17.288 10.38-.18 15.51.837 1.074.21 2.446-.518 3.184.58.57.845-.032 1.944-.12 2.933-.092.98.28 1.99.308 2.997.124 4.05.16 8.097.288 12.147.69 22.016.336 44.043.768 66.06.048 2.437-.215 4.805-.923 7.118zm-13.995-58.55c-4.284-.233-8.567-.487-12.853-.736-.003.08-.008.16-.01.24-3.04 0-6.11-.3-9.1.09-2.657.34-5.28.33-7.926.403-2.147.056-4.3.083-6.443.194-1.54.078-3.225 1.116-3.36 2.06-.162 1.133 1.797 2.378 3.367 2.476 3.152.196 6.295.565 9.45.638 6.322.15 12.65.15 18.973.214 1.64.018 3.27-.053 4.897.382 1.636.44 3.268.117 4.81-.568 1.437-.64 1.94-2.482 1.08-3.87-.665-1.068-1.67-1.455-2.885-1.522zm1.945 28.203c-.42-.258-.896-.535-1.368-.59-3.38-.384-6.753-.896-10.18-.626-2.89.226-5.79.367-8.688.475-2.016.073-4.043-.055-6.056.066-3.644.23-7.28.562-10.916.892-.744.067-1.482.287-2.203.5-.818.245-1.506 1.245-1.38 2.01.13.806.628 1.475 1.407 1.617 1.355.25 2.74.41 4.117.422 5.178.046 10.355.02 15.533.02v-.096c5.43 0 10.86.003 16.288-.007.88 0 1.785.034 2.643-.125 1.07-.197 1.757-.955 2.05-2.006.238-.85-.31-1.984-1.247-2.556zm-38.78-10.67c1.482.276 2.98.63 4.473.652 8.224.123 16.448.15 24.67.224 2.397.02 4.806-.18 7.166.523.57.17 1.266.09 1.87-.04 1.83-.384 2.457-2.41 1.25-3.838-.612-.718-1.345-1.116-2.294-1.138-2.528-.056-5.056-.11-7.584-.203-4.928-.18-9.852-.383-16.465-.644-2.752-.373-7.13.53-11.534.74-.71.034-1.463.363-2.074.747-.51.323-.907.917-.678 1.628.195.615.513 1.226 1.196 1.35z"/></svg>