<svg xmlns="http://www.w3.org/2000/svg" width="128" height="128" viewBox="0 0 128 128"><path d="M105.363 64.002c-.154-3.34-.41-6.67-.515-10.005-.14-4.538-.186-9.077-.256-13.616-.01-.47-.015-.975.12-1.42.722-2.334.51-4.73.537-7.11.034-2.982.11-5.97.11-8.953-.002-1.426-.002-2.88-.24-4.282-.42-2.456-.948-4.887-1.16-7.384-.084-1.03-.61-2.034-1.02-3.013-.245-.59-.804-.843-1.45-.856-1.07-.027-2.236.204-3.183-.15-1.525-.57-3.035-.546-4.58-.55-8.12-.005-16.24-.003-24.362-.003v-.192c-8.005 0-16.008-.032-24.01.01-4.242.025-3.198-.526-6.004 3.305-.21.283-.486.593-.53.916-.132 1.04-.802 1.664-1.504 2.344-2.93 2.846-4.992 6.377-7.392 9.64-.277.383-.5.818-.665 1.26-.713 1.937-1.82 3.68-3.293 5.043-1.497 1.38-1.85 2.94-1.756 4.815.078 1.55-.03 3.106.03 4.657.046 1.187.06 2.417.374 3.547.434 1.533.488 3.057.424 4.608-.184 4.768-.495 9.536-.548 14.306-.122 11.228-.133 22.453-.17 33.68-.01 4.063.033 8.126.062 12.185.01 1.544.22 3.076-.345 4.607-.32.868.558 1.98 1.53 2.005 1.667.038 3.37.127 4.998-.155 4-.69 7.992-1.26 12.064-1.067.592.03 1.194-.03 1.786-.085.866-.088 1.204-.41 1.34-1.36.277-1.936.757-2.837-2.02-3.035-.937-.066-1.856-.422-2.776-.66-1.62-.42-3.203-.78-4.888-.13-.747.292-1.65.244-2.483.24-1.953-.015-3.43-1.346-3.536-3.3-.077-1.422-.14-2.905.156-4.276.59-2.72.576-5.438.526-8.184-.037-1.906.045-3.82.224-5.717.293-3.082.734-6.15 1.052-9.23.072-.692.15-1.67-.235-2.064-1.19-1.214-.93-2.636-.913-4.02.07-5.97.004-11.933.375-17.903.32-5.116.12-10.268.1-15.403-.003-.814-.268-1.63-.425-2.44-.203-1.013.043-1.43.977-1.443 2.384-.027 4.766.01 7.1-.64.56-.153 1.195-.125 1.784-.063 2.324.248 4.468-.64 6.684-1.042 1.37-.247 2.032-1.16 2.067-2.548.035-1.312.047-2.642-.153-3.93-.48-3.06-.818-6.142-1.67-9.13-.192-.684-.357-1.388-.41-2.094-.174-2.342-.193-2.627 2.427-2.777 1.548-.09 3.1-.197 4.65-.174 5.614.08 11.225.21 16.837.33.834.018 1.666.073 2.496.146 5.112.45 10.208 1.146 15.35 1.003 3.236-.093 6.4.45 9.592.744.573.05.837.558.725 1.035-.33 1.42-.3 2.78-.006 4.23.306 1.502.262 3.085.284 4.632.19 13.73.374 27.458.524 41.19.122 11.226.203 22.452.3 33.682.003.597.037 1.195.012 1.79-.08 2.163-.57 4.253-1.344 6.26-.42 1.105-1.272 1.413-2.304.963-.546-.236-1.053-.56-1.596-.812-.914-.42-1.982-.567-2.763-.02-1.76 1.236-3.884 1.04-5.772 1.71-.557.197-1.173.224-1.74.387-.807.23-1.09.82-1.036 2.022.036.85.315 1.144 1.38 1.237 1.185.11 2.38.13 3.57.204 1.78.11 3.568.203 5.345.367 1.9.17 3.792.444 5.69.62.706.066 1.44.066 2.138-.046 1.257-.203 2.12-.873 2.6-2.148 1.412-3.803 1.456-3.788 1.48-7.976.017-2.987-.006-5.973.017-8.956.08-9.792-.347-19.573-.79-29.35zm-71.578-35.27c-.117.004-.23.002-.443.002-.13-.014-.43.045-.565-.08-.213-.19-.456-.524-.42-.758.044-.307.317-.602.543-.853.47-.53 1.022-.574 1.453-.053.27.326.56.8.523 1.18-.053.505-.63.544-1.09.563zm3.58-4.683c-.004-.02-.003-.04-.007-.055l-.146-.17c-.03-.03-.043-.086-.053-.145-.125-.04-.247-.078-.37-.12.342-.312.337-.067.37.123.05.018.1.034.15.05.016.088.024.18.046.266l.178.205c-.056-.053-.142-.09-.17-.155zm2.213 2.896c-.01-.02-.015-.047-.023-.07l-.18-.13-.718-.732c-.053-.028-.058-.107-.056-.192-.115-.062-.233-.123-.352-.18.388-.24.355-.012.354.18.057.028.112.055.166.085.237.243.472.488.71.734.026.08.05.16.08.236.075.053.15.11.224.162-.067-.03-.167-.04-.2-.094zm3.548-2.61c-.192.065-.517.16-.594.068-1.23-1.4-2.45-2.808-3.616-4.26-.348-.434-.045-.9.334-1.205.4-.32.88-.366 1.237.052.602.707 1.072 1.544 1.74 2.176.865.82.755 1.925 1.095 2.897-.064.092-.11.245-.196.27zM78.123 86.73c-2.32-2.762-4.366-5.682-5.937-8.91-.832-1.715-2.29-2.326-3.898-2.82-.275-.083-.768.075-.97.294-.637.7-1.224 1.454-1.754 2.24-.53.79-.846 1.75-1.474 2.44-2.165 2.388-4.427 4.69-6.652 7.02-1.233 1.29-2.606 2.48-3.66 3.904-.908 1.224-1.555 2.674-2.13 4.098-.443 1.094.1 2.25 1.184 2.665 1.634.63 3.196 1.534 5.13.935 1.278-.397 1.644.043 1.654 1.532.02 3.104.008 6.213.008 9.32h-.14c0 3.225-.014 6.453.012 9.678.01 1.27.687 2.107 1.916 2.112 2.984.02 5.968-.05 8.95-.166.817-.03 1.63-.337 2.442-.543.64-.16 1.088-.602 1.09-1.25.02-2.85.708-5.64.612-8.513-.115-3.458.07-6.925.128-10.39.005-.355-.066-.772.09-1.057.204-.37.556-.845.914-.917.808-.164 1.667-.04 2.49-.154 1.178-.162 2.348-.4 3.5-.685.288-.066.683-.42.715-.68.196-1.647.483-3.322-.572-4.84-1.223-1.763-2.275-3.667-3.65-5.307zm-16.97 2.875c-.017.016-.044.02-.065.034-.04.064-.08.13-.117.2-.04.015-.073.036-.112.052-.18 1.752-1.152 3.197-1.92 4.715-.09.177-.644.187-.974.156-.178-.013-.504-.32-.478-.416.56-1.912 1.376-3.643 3.37-4.453.006-.05.018-.096.022-.144.072-.034.144-.07.21-.11l.137-.23c-.023.066-.026.16-.07.196zm6.68.65c.2-.25.19-1.12.812-.6.245.207.128.88.117 1.34-.007.218-.13.452-.24.654-1.085 1.96-2.173 3.92-3.27 5.875-.103.18-.31.305-.468.46-.064-.225-.164-.447-.186-.676-.032-.35-.01-.708-.01-.96-.214-1.087.012-1.906.703-2.702.924-1.068 1.66-2.29 2.543-3.393zm-4.156-4.1c.953-.96 1.487-2.384 2.962-2.783-.006-.023-.007-.048-.013-.072.026-.026.053-.05.082-.077.03-.272.052-.547.1-.815.018-.096.127-.174.195-.26.088.17.288.405.235.497-.127.222-.334.395-.528.58l-.017.13c-.02.005-.035.015-.055.02.31 1.577-.187 3.015-.794 4.428-.056.133-.422.288-.507.235-.59-.4-1.158-.834-1.69-1.303-.094-.083-.08-.47.027-.576zm-1.347 8.577c-.154-.122-.456-.322-.437-.363.203-.414.453-.805.708-1.19.04-.06.205-.11.255-.075.09.06.176.175.19.28.112.764-.17 1.283-.715 1.346zm6.453 21.362c-.096.712-.6.947-1.227 1-.35.03-.702.005-1.433.005.15.014-.085.004-.315-.04-.107-.025-.267-.1-.288-.183-.048-.183-.113-.478-.02-.57.985-.985 2-1.945 3.022-2.896.053-.05.238-.003.334.05.096.048.224.17.216.248-.08.795-.18 1.59-.288 2.383zm.595-9.158c-1.795 2.747-3.602 5.486-5.43 8.21-.07.11-.358.096-.543.083-.047-.005-.107-.197-.122-.306-.014-.115.02-.237.043-.352.34-1.973 1.027-3.962.94-5.918-.112-2.457 1.166-3.29 3.105-3.834-.11-.792.403-1.273.904-1.75.04-.038.19-.033.224.006.07.075.15.213.124.285-.223.65-.436 1.316-1.24 1.474-.004.233.033.472-.017.695-.213.943-1.27 1.663-.747 2.804 1.107-.082 1.378-1.207 2.144-1.707.125-.08.36-.03.53.015.053.015.128.236.088.295zm2.155-11.975c-.63.036-1.248.264-1.874.43l-.087.145-.145.14c-.068.255-.214.426-.49.462l-.125.117c-.035.02-.053.046-.085.067.04.534.105 1.08-.594 1.283 0 .034-.004.066-.002.102l-.08.058c.015.196.05.405-.024.557-.925 1.887-1.87 3.76-2.83 5.628-.09.178-.308.29-.466.43-.098-.208-.25-.41-.286-.623-.31-1.88.136-3.488 1.742-4.648.62-.45 1.243-.896 1.865-1.344-.003-.045-.007-.09-.006-.13.033-.01.055-.022.087-.03-.017-.528.12-.985.593-1.284-.004-.06-.008-.117-.01-.173.084.01.15-.005.22-.015.162-.154.325-.307.487-.463.02-.074.037-.147.046-.23.062-.016.123-.035.184-.05.814-1.375 1.62-2.75 2.453-4.113.117-.192.328-.382.535-.452.31-.102.775-.253.958-.11.334.256.78.78.704 1.084-.358 1.503-.736 3.055-2.778 3.16zm5.418-.475l.113-.158.06.19-.17-.033z"/></svg>