<svg xmlns="http://www.w3.org/2000/svg" width="128" height="128" viewBox="0 0 128 128"><path d="M104.86 96.717c.128-13.664-.794-27.296-1.088-40.95-.013-.504-.02-1.01-.04-1.516-.016-.374.047-.8-.096-1.125-.843-1.938-.626-3.98-.62-5.99.022-4.805.1-9.614.17-14.42.014-1.01.072-2.02.148-3.03.216-2.896.512-5.786.653-8.685.053-1.115-.09-2.29-.405-3.353-.427-1.444-1.14-2.8-1.66-4.216-.556-1.502-1.47-2.273-3.166-1.99-.597.096-1.323.06-1.847-.203-1.327-.667-2.716-.52-4.093-.525-8.096-.012-16.192-.007-24.288-.007v-.19H44.625c-.885.003-1.773.02-2.656.016-.943-.002-1.71.288-2.25 1.127-.55.85-1.467 1.57-1.708 2.48-.49 1.857-1.856 2.953-3.04 4.23-2.677 2.886-4.847 6.156-6.822 9.527-1.216 2.07-2.342 4.162-3.99 5.946-.475.517-.9 1.306-.925 1.986-.122 3.533-.448 7.11.358 10.584.47 2.03.418 4.002.3 6.018-.115 2.016-.38 4.03-.396 6.044-.08 11.256-.087 22.515-.152 33.77-.02 3.416-.034 6.838-.272 10.24-.115 1.652-.117 3.244.053 4.89.245 2.365.597 4.752-.08 7.137-.48 1.68.296 2.68 2.09 2.667 1.89-.01 3.82-.032 5.66-.398 2.26-.45 4.513-.575 6.785-.586 6.58-.03 13.157-.01 19.735-.032 1.39 0 2.784-.053 4.17-.15 2.14-.155 4.273-.515 6.414-.534 7.84-.067 15.68-.054 23.522-.012 1.38.005 2.755.315 4.14.424 1.758.14 3.522.23 5.286.313.975.045 1.807-.412 2.16-1.272.81-1.967 1.888-3.876 1.806-6.114-.15-4.035.675-8.062.05-12.1zM37.74 23.8c.106-.335.32-.673.575-.908.13-.12.555-.13.68-.015 1.578 1.465 3.037 3.01 3.212 5.32-.056.107-.103.297-.17.307-.207.02-.51.053-.616-.06-1.18-1.302-2.34-2.623-3.484-3.958-.145-.17-.256-.494-.194-.687zm-1.772 3.793l.167.403.18.083c.262.262.528.524.79.787.013.072.02.145.03.22.443.285.544.735.563 1.223.037.02.067.044.11.06.062.08.12.162.187.235.043.045.096.075.146.112l-.43-.24c0-.055-.006-.11-.01-.165-.5-.264-.51-.753-.562-1.227-.05-.032-.08-.073-.14-.1l-.784-.805-.078-.184-.38-.175.213-.227zm-4.81 4.29c.132-.34.34-.658.583-.933.5-.57 1.118-.584 1.538.02.256.374.395.865.443 1.316.01.09-.62.262-.963.376-.11.037-.245.005-.65.005-.082-.02-.453-.062-.77-.22-.127-.066-.236-.415-.177-.564zm67.31 76.41c-.13.705-.588 1.39-1.028 1.983-.39.523-1.088.835-1.67.395-1.653-1.25-3.54-1.175-5.446-1.182-5.568-.02-11.136-.096-16.704-.077-2.647.01-5.315-.106-7.927.556-.363.094-.768.003-1.13.085-1.268.297-2.478-.78-3.7-.212-1.23.578-2.495.256-3.735.405-1.252.15-2.502.33-3.757.475-.622.072-1.09-.442-1.094-1.205-.003-.504.133-1.024.05-1.504-.052-.308-.34-.708-.618-.81-.306-.113-.834-.063-1.067.143-1.122.986-2.147 2.085-3.267 3.078-.71.626-1.744.243-2.098-.69-.267-.692-.5-1.403-.813-2.077-.185-.392-1.064-.51-1.354-.17-.565.66-1.158 1.33-1.586 2.08-.693 1.222-1.752 1.307-2.94 1.183-.485-.05-.945-.617-.808-1.052.31-.958.683-1.9.968-2.863.25-.842.486-1.697.587-2.564.047-.448-.155-.966-.357-1.4-.164-.352-1.023-.088-1.642.446-2.085 1.785-3.295 4.123-4.284 6.614-.117.3-.487.61-.802.7-.827.226-2.173-.896-2.042-1.7.117-.74.367-1.455.584-2.174.363-1.205.81-2.39 1.106-3.613.388-1.603.18-1.76-1.666-1.697-.19.007-.47-.063-.555-.195-.127-.192-.157-.478-.16-.72-.016-2.534-.15-5.07.006-7.59.174-2.768.648-5.517.94-8.277.188-1.755.304-3.52.396-5.28.023-.482.01-1.17-.284-1.425-1.14-.998-.943-2.272-.91-3.502.08-2.78.278-5.555.318-8.33.058-3.923.016-7.847.016-11.768h.18c0-4.05.012-8.1-.007-12.147-.003-1.007-.042-2.025-.18-3.02-.274-1.956-.31-1.972 1.37-1.998 1.77-.03 3.52-.047 5.267-.5 1.08-.282 2.264-.242 3.398-.214 2.192.05 4.238-.61 6.29-1.198 1.71-.494 2.216-1.263 2.215-3.07 0-1.134-.06-2.287-.248-3.402-.512-2.987-1.104-5.955-1.675-8.93-.096-.495-.322-.974-.363-1.47-.196-2.283-.87-3.106 2.33-3.445 2.53-.266 4.99-.63 7.524-.133 1.102.213 2.26.17 3.394.203 4.68.125 9.376.024 14.033.42 3.534.295 7.065.598 10.6.547 4.31-.064 8.56.557 12.844.82.555.036.95.353.963.935.023 1.134-.136 2.287.004 3.405 1.057 8.312.585 16.666.705 25.003.118 8.352.022 16.702.133 25.054.128 9.736.307 19.473.608 29.205.084 2.704-.434 5.277-.906 7.873zM85.034 50.11c-2.635-.252-5.27-.538-7.908-.59-6.926-.142-13.85-.074-20.757.56-.746.065-1.496.2-2.214.406-.898.26-1.328 1.126-1.22 2.084s.595 1.63 1.387 2.133c1.007.638 2.114.737 3.27.73 3.403-.02 6.813-.007 10.22-.007 4.902.35 9.828-.192 14.716.68 1.27.223 2.516-.135 3.644-.755.944-.52 1.534-1.36 1.472-2.457-.085-1.495-1.155-2.645-2.61-2.784zm-.445 27.474c-3.518-.174-7.007-.786-10.548-.6-4.4.23-8.803.474-13.205.518-1.75.015-3.172.624-4.587 1.438-1.016.585-1.35 1.693-1.002 2.968.224.817 1.003 1.46 1.952 1.52.624.046 1.3.126 1.872-.063 2.217-.73 4.49-.533 6.75-.552 2.516-.018 5.038-.003 7.557-.003.755 0 1.513-.004 2.266.003 3.023.037 6.044.098 9.067.115 1.585.008 2.66-.97 2.816-2.464.1-.954-.743-2.138-1.86-2.57-.35-.135-.716-.288-1.082-.306zm2.594-12.15c-.53-.763-1.103-1.386-2.08-1.456-1.385-.1-2.77-.228-4.157-.245-2.908-.038-5.813-.01-8.72-.014-.884-.003-1.8.106-2.646-.078-4.132-.91-8.305-.283-12.455-.385-.697-.017-1.467.37-2.09.752-.652.4-1.046 1.103-.99 1.92.07 1.042.854 2.076 1.737 2.263.61.13 1.248.202 1.874.202 3.66.02 7.322.01 10.983.01v.012c3.034 0 6.07-.006 9.1.006 1.89.005 3.776-.11 5.636.48.688.224 1.515.17 2.248.048 1.62-.272 2.447-2.235 1.56-3.513zm-.63 25.192c-1.183-.405-2.303-1.035-3.63-.93-1.756.138-3.53.14-5.282.32-4.885.505-9.74 1.44-14.387 1.044-2.194 0-4.09-.02-5.984.01-.75.014-1.51.1-2.247.236-.697.126-1.304.913-1.378 1.632-.072.693.452 1.568 1.182 1.743.848.203 1.73.363 2.6.373 3.787.043 7.578.053 11.365.007 1.387-.017 2.77-.185 4.153-.32 1.628-.165 3.25-.476 4.878-.532 2.645-.096 5.298-.02 7.947-.05.897-.01 1.697-.788 1.795-1.642.075-.64-.414-1.685-1.01-1.894zM45.21 69.342c.842-.37 1.47-.9 1.913-1.698.826-1.485.235-3.243-1.4-4.09-1.388-.722-3.158-.157-3.79 1.287-.24.557-.275 1.2-.35 1.553.038.512.044.764.078 1.01.28 1.898 1.81 2.708 3.55 1.94zm-1.548-12.36c.3.62.907.834 1.57.804 2.017-.098 3.414-2.084 2.804-3.973-.472-1.478-1.318-2.127-2.727-2.097-1.997.04-3.014 1.344-2.45 3.172.223.715.476 1.423.8 2.094zm1.287 21.274c-.744.043-1.565.614-1.68 1.306-.12.74-.25 1.523-.113 2.24.107.546.55 1.093.98 1.5.345.324.898.427 1.357.64.817.365 1.466.037 2.05-.508.94-.877 1.11-1.977.727-3.13-.41-1.247-1.922-2.12-3.32-2.047zm1.87 10.805c-1.15-.617-2.73-.304-3.356.738-.437.732-.732 1.576-.94 2.41-.167.662.24 1.208.817 1.545 1.044.61 2.156.677 3.228.153.41-.203.785-.644.975-1.07.194-.432.14-.974.2-1.535-.066-.44-.075-.956-.24-1.42-.112-.32-.39-.657-.686-.817z"/></svg>