<svg xmlns="http://www.w3.org/2000/svg" width="128" height="128" viewBox="0 0 128 128"><path d="M96.025 87.716c-.006-1.115-.31-2.23-.434-3.35-.273-2.5-1.42-4.88-1.03-7.47.02-.115-.014-.25-.056-.363-.254-.69-.896-.86-1.493-.995-.6-.14-.884.378-1.076.827-.14.328-.285.793-.155 1.067.532 1.126.293 2.176.012 3.307-.367 1.463-.575 2.97-.828 4.46-.293 1.738-.757 3.473-.805 5.22-.086 3.156-.17 6.35.22 9.47.37 2.996-.248 5.757-.94 8.566-.117.48-.31.957-.546 1.397-.435.815-1.518 1.234-2.25.675-1.315-1.002-2.77-1.094-4.303-1.098-6.32-.013-12.647.064-18.964-.117-3.653-.1-7.245 1.21-10.908.33-.103-.024-.235.083-.355.118-2.565.785-5.274.21-7.864.827-.45.108-.965-.492-.9-.993.05-.37.308-.736.278-1.088-.037-.46-.133-1.09-.443-1.313-.55-.387-1.222-.156-1.715.31-.914.863-1.766 1.79-2.71 2.612-1.024.906-2.06.513-2.528-.89-.08-.236-.06-.505-.128-.748-.17-.654-.555-1.222-1.253-1.2-.44.015-.94.33-1.282.65-.354.332-.592.816-.8 1.268-.74 1.593-2.1 1.637-3.527 1.4-.204-.032-.513-.603-.45-.836.23-.85.635-1.65.905-2.49.347-1.08.655-2.174.93-3.273.128-.512.005-1.118-.523-1.26-.412-.11-1.034.01-1.375.27-1.736 1.335-2.944 3.102-3.83 5.09-.31.69-.53 1.427-.876 2.1-.267.517-.736.56-1.28.324-1.78-.77-1.905-1.044-1.23-2.843.493-1.298 1.005-2.592 1.418-3.915.183-.587.235-1.243.184-1.854-.02-.26-.42-.64-.706-.7-1.573-.335-1.58-.306-1.58-1.19-.01-2.276-.09-4.555-.03-6.825.048-1.894.063-3.825.44-5.666.516-2.507.527-5.02.598-7.54.017-.628.15-1.41-.155-1.86-1.02-1.515-.724-3.168-.713-4.774.043-8.347.16-16.693.194-25.037.013-3.284-.13-6.567-.21-9.85-.02-.79.282-1.196 1.02-1.25 3.39-.26 6.785-.443 10.16-.797 1.745-.185 3.46-.646 5.18-1.03 1.385-.31 2.147-1.236 2.3-2.636.07-.62.155-1.264.057-1.873-.655-4.106-1.11-8.244-2.24-12.266-.2-.722-.283-1.483-.355-2.235-.052-.547.21-.984.786-1.09 1.363-.247 2.728-.557 4.107-.666s2.82-.216 4.15.068c1.386.296 2.746.316 4.13.348 4.552.1 9.102.15 13.652.326 3.405.132 6.8.476 10.205.63 3.776.175 7.573-.05 11.324.682 1.1.21 2.238.215 3.357.313.87 1.13.242 2.436.414 3.647.017.126.007.254.002.382-.05 1.906-.008 3.783 1.217 5.422.28.373.34.943.413 1.434.252 1.742.46 3.496.697 5.244.066.49.04 1.248.322 1.404.662.37 1.03-.39 1.445-.78.643-.602.97-1.336 1.276-2.212.865-2.48.854-4.947.527-7.467-.36-2.753-.82-5.492-1.082-8.252-.11-1.184-.544-2.187-1.02-3.216-.35-.754-.922-1.152-1.775-1.166-1.003-.012-2.11.18-2.987-.17-1.487-.59-2.968-.54-4.474-.54-8.094-.01-16.185 0-24.28 0v-.2c-8.09 0-16.186-.033-24.277.007-3.808.02-3.03-.573-5.8 3.152-.297.4-.506.865-.757 1.302-.303.53-.5 1.17-.928 1.568-2.983 2.802-5.04 6.315-7.456 9.55-.45.596-.84 1.28-1.078 1.983-.63 1.845-1.776 3.314-3.085 4.7-.435.455-.897.91-1.22 1.444-.316.518-.664 1.134-.66 1.71.03 3.28-.053 6.588.337 9.834.21 1.756.46 3.484.416 5.256-.305 12.257-.805 24.508-.65 36.774.048 4.046-.024 8.094-.05 12.14-.015 2.53-.048 5.057-.084 7.586-.04 2.61.735 5.22-.054 7.844-.224.742.46 1.483 1.248 1.613 2.156.366 4.317.147 6.412-.267 2.505-.495 5.01-.632 7.54-.632 6.826-.008 13.655.008 20.484 0 1.262-.004 2.528-.06 3.787-.154 2.136-.16 4.267-.416 6.407-.544 2.018-.124 4.07.05 6.062-.233 6.33-.896 12.594.6 18.9.38.61-.02 1.228.324 1.852.362 1.762.108 3.53.173 5.298.2.82.016 1.585-.44 1.845-1.135.815-2.214 2.15-4.235 2.118-6.77-.088-6.826-.01-13.652-.053-20.485zM29.267 22.944c.307-.13.875-.21 1.022-.05.91 1.03 1.8 2.095 2.552 3.242.317.48.28 1.2.384 1.704l-.363.782c-.213-.113-.487-.18-.634-.352-1.135-1.34-2.25-2.702-3.36-4.064-.265-.32-.065-1.067.396-1.262zm-2.327 4.96v.003c.05.064.104.125.156.188l.165.162c.21.07.34.22.423.418l.21.207.788.72c.253.252.51.507.76.765l.087.24.05.032h-.038l-.01-.034-.19-.128c-.258-.255-.51-.51-.766-.766-.267-.24-.528-.48-.793-.725-.025-.112-.057-.217-.095-.315-.142-.14-.282-.277-.422-.418-.08-.027-.164-.05-.273-.048-.015-.103-.015-.207-.048-.304l-.146-.173c.05.057.12.106.143.17zm-4.464 3.63c.105-.214.296-.385.466-.563.547-.574.98-.545 1.468.09.62.805.437 1.453-.448 1.566-.36.047-.73.043-1.053.056-.27-.086-.693-.177-.69-.234.024-.313.118-.63.257-.915zM115.89 45.21c-.172-.6-.452-1.176-.746-1.73-1.888-3.56-3.797-7.108-5.704-10.655-.117-.224-.303-.41-.42-.63-.65-1.243-1.614-1.895-3.115-1.837-.955.26-1.92.49-2.865.787-.715.224-1.436.798-2.1.725-1.537-.163-2.308.806-3.212 1.68-4.892 4.75-9.77 9.515-14.688 14.237-3.643 3.5-7.37 6.907-11.003 10.415-3.182 3.07-6.328 6.176-9.403 9.346-1.04 1.075-2.045 2.296-2.673 3.63-.96 2.038-1.854 4.15-2.2 6.414-.382 2.514-1.25 4.878-2.142 7.235-.667 1.767-1.378 3.523-2.16 5.244-.534 1.184-.804 2.384-.748 3.67.03.77.673 1.348 1.484 1.393 1.563.083 3.016-.27 4.334-1.092 2.157-1.34 4.477-2.3 6.852-3.172 2.6-.956 5.16-2.03 7.742-3.038 1.088-.425 2.016-.998 2.54-2.113.652-1.392 1.534-2.577 2.915-3.38.64-.372 1.127-1.004 1.69-1.51 3.277-2.962 6.543-5.938 9.84-8.877 3.578-3.192 7.213-6.32 10.77-9.536 1.497-1.352 2.843-2.874 4.283-4.29 3.323-3.27 6.654-6.533 9.998-9.78.928-.905 1.07-1.97.733-3.13zm-9.466-6.966c.07.093.18.184.2.292.043.28.06.562.08.845.042.04.084.074.123.113.002.048.002.096.002.147.177.086.38.16.46.3.09.16-.01.426-.026.644-.133-.12-.333-.22-.38-.366-.062-.178-.054-.38-.054-.58-.036-.017-.074-.033-.106-.052-.005-.068-.015-.136-.02-.203-.198-.18-.408-.352-.53-.57-.06-.112.16-.377.253-.57zm-1.465-1.583c.206.05.4.164.6.253-.087.08-.193.233-.255.22-.216-.05-.416-.165-.622-.254.093-.08.203-.234.274-.218zM68.82 85.015c-1.95.858-3.907 1.704-5.874 2.528-1.362.574-3.12-.532-3.273-2.044-.027-.25-.004-.504-.004-.693.563-2.507 1.107-4.95 1.69-7.392.02-.084.467-.194.555-.113.555.507 1.176.99 1.564 1.614 1.364 2.192 3.195 3.84 5.456 5.052.184.1.35.41.35.617-.003.146-.274.35-.465.433zm38.113-34.466c-2.848 3.042-5.688 6.1-8.656 9.024-2.432 2.395-5.035 4.607-7.578 6.883-4.614 4.128-9.24 8.242-13.87 12.356-.752.67-1.514 1.34-2.3 1.97-.284.226-.658.33-1.13.555-1.417-.674-3.146-1.088-4.3-2.138-1.85-1.685-3.336-3.776-4.944-5.717-.427-.518-.288-1.068.318-1.636 1.29-1.213 2.613-2.383 3.886-3.616 2.268-2.2 4.476-4.466 6.764-6.642 1.74-1.653 3.597-3.18 5.344-4.827 2.02-1.904 3.975-3.885 5.968-5.82 1.444-1.406 2.77-2.91 4.52-4.013 1.14-.723 1.963-1.946 2.955-2.915 1.626-1.583 3.266-3.152 4.92-4.704.436-.415.91-.35 1.284.143.537.7 1.042 1.43 1.6 2.113.882 1.077 1.776 2.126 3.18 2.603.583.195 1.143.57 1.61.976 3.055 2.692 3.41 2.226.43 5.406zm-1.262-3.39c-.96.585-1.96 1.136-2.817 1.848-3.197 2.656-6.31 5.406-9.515 8.053-5.24 4.32-10.55 8.56-15.776 12.906-1.542 1.28-2.945 2.75-4.317 4.22-.376.402-.483 1.12-.557 1.713-.028.234.373.522.594.81.448-.16.85-.21 1.126-.424 2.19-1.685 4.376-3.383 6.522-5.124 4.303-3.487 8.576-7.007 12.87-10.506 1.953-1.59 4.006-3.068 5.872-4.752 2.246-2.02 4.36-4.192 6.487-6.336.33-.33.54-.86.616-1.326.05-.3-.2-.693-.418-.958-.117-.142-.525-.215-.683-.123zM86.858 59.394c2.557-2.248 5.118-4.495 7.697-6.712 2.1-1.812 4.243-3.574 6.344-5.378.57-.486 1.083-1.045 1.574-1.608.14-.157.114-.454.207-.904-.345-.194-.733-.47-1.16-.624-.195-.07-.523.02-.71.156-1.643 1.155-3.424 2.174-4.866 3.546-3.838 3.655-7.773 7.18-11.94 10.462-2.47 1.94-4.777 4.1-7.097 6.223-2.42 2.214-4.77 4.504-7.147 6.767-.27.258-.59.515-.735.843-.14.316-.233.793-.09 1.07.247.485.81.597 1.31.416.464-.17.943-.386 1.31-.704 1.906-1.65 3.78-3.343 5.666-5.016 3.21-2.85 6.42-5.697 9.638-8.534z"/></svg>