<svg xmlns="http://www.w3.org/2000/svg" width="128" height="128" viewBox="0 0 128 128"><path d="M108.55 53.52c-.338-3.435-.41-6.89-.652-10.333-.056-.79-.242-1.59-.467-2.35-.326-1.1-1.097-1.78-2.265-1.8-1.493-.028-2.997-.035-4.48.104-2.173.205-4.33.543-6.494.828-.562.072-.895-.208-.906-.732-.027-1.38.064-2.763.004-4.142-.088-2.048-1.018-3.003-2.976-3.036-1.492-.027-2.996.032-4.483.147-1.49.11-2.96.37-4.45.494-1.81.15-2.064-.088-2.08-1.797-.023-2.072.117-4.155-.025-6.22-.235-3.33-.647-6.64.096-9.962.41-1.844-1.575-4.33-3.61-4.18-1.718.125-3.454.018-5.18.03-3.69.02-7.378.154-11.06.055-8.065-.216-16.127-.066-24.19.013-.69.006-1.38.045-2.07.018-.9-.034-1.535.413-2.076 1.045-.3.353-.63.7-.815 1.108-.678 1.5-1.855 2.617-2.826 3.898-1.666 2.194-3.38 4.38-4.764 6.755-.812 1.39-1.447 2.888-2.614 4-1.182 1.134-1.664 2.408-1.466 4.01.125 1.026.064 2.084.256 3.095.484 2.507.542 5.024.475 7.563-.11 4.264-.243 8.527-.225 12.787.02 4.252-.43 8.493-.104 12.757.236 3.094-.036 6.224.088 9.33.128 3.21-.528 6.418.01 9.624.037.213-.082.448-.118.675-.374 2.464-.137 2.74 2.356 2.784.348.01.7.043 1.037-.008 3.435-.555 6.88-.056 10.315-.066.463 0 .922.01 1.385.012 1.956.014 3.915.007 5.875.043 1.13.02 1.54.386 1.328 1.458-.587 2.99-.36 5.96.027 8.928.132 1.018.416 2.02.696 3.006.35 1.245 1.174 1.935 2.513 1.94 1.038.004 2.076.044 3.11.054.925.002 1.844-.027 2.766-.007.903.02 1.306.384 1.33 1.205.02.92-.005 1.845 0 2.766.007 1.498-.05 3 .05 4.49.134 2.102 1.17 3.15 3.294 3.212 2.99.085 5.987.15 8.966-.293 1.023-.155 2.052-.3 3.084-.376 3.207-.23 6.42-.24 9.637-.597 4.114-.46 8.27-.504 12.393-.864 2.976-.256 5.922-.808 8.928-.734.45.01.897-.18 1.353-.25.907-.15 1.832-.464 2.722-.384 2.347.207 4.18-.757 5.94-2.144.697-.552 1.113-1.134 1.135-1.995.022-.807.016-1.613.016-2.42V84.253c-.272-10.242.22-20.5-.79-30.73zM30.177 19.925c.152-.11.503-.173.602-.08.997.945 1.87 1.98 2.32 3.222-.09.203-.108.352-.18.39-.176.09-.45.24-.56.173-1.205-.747-1.86-1.952-2.49-3.157-.054-.112.147-.437.308-.547zm-1.626 3.69c.16-.223.285-.14.32.214l.054.454c.043.038.085.075.126.114.05.086.094.177.156.252l.168.096c-.055-.028-.128-.043-.163-.088 0-.002 0-.004-.002-.006l-.253-.145-.027-.223c-.124-.112-.247-.224-.35-.355-.055-.068-.075-.243-.024-.31zm-2.46 1.942c.374.09.876.774.68 1.032-.236.297-.65.46-1.063.736-.302-.32-.653-.52-.665-.74-.035-.58.597-1.132 1.05-1.03zm16.424 59.34c-.526-.156-1.216.39-1.575-.257-.2-.367-.114-.885-.206-1.323-.13-.643-.79-.864-1.3-.448-.886.72-1.744 1.476-2.65 2.176-.406.31-1.172-.007-1.392-.548-.13-.315-.15-.68-.29-.988-.422-.953-1.14-1.013-1.824-.15-.286.36-.53.752-.76 1.15-.517.896-1.35.757-2.128.597-.213-.046-.523-.545-.48-.766.17-.782.484-1.532.72-2.3.167-.546.36-1.097.42-1.657.037-.296-.084-.732-.295-.914-.42-.358-.875-.044-1.197.247-.42.384-.82.815-1.123 1.294-.79 1.26-1.508 2.56-2.29 3.83-.093.155-.44.31-.575.25-.274-.122-.65-.364-.688-.605-.224-1.376-.156-2.743.398-4.06.326-.776.25-1.504-.107-2.31-.307-.7-.386-1.545-.384-2.33.03-8.975.07-17.952.17-26.933.02-1.713.434-3.424.453-5.14.043-4.022 0-8.048-.11-12.07-.025-.812.278-.98.898-1.063 1.59-.214 3.184-.415 4.77-.65 1.7-.258 3.41-.485 5.087-.845.817-.174 1.344-.802 1.575-1.667.28-1.03.25-2.032.043-3.068-.497-2.475-.954-4.958-1.416-7.44-.086-.45-.21-.912-.164-1.352.03-.272.313-.698.54-.738.67-.123 1.372-.123 2.057-.114 3.567.06 7.147-.05 10.7.248 7.233.608 14.48.453 21.72.597.465.01.925.01 1.38.07.502.068.835.388.878.89.05.57.01 1.15.007 1.72v7.94h-.153c0 2.188.04 4.374-.016 6.56-.04 1.49-.223 2.975-.323 4.465-.075 1.146-.177 2.295-.18 3.443-.015 6.907-.017 13.813.012 20.718.004 1.144.223 2.28.295 3.424.117 1.952.226 3.9.282 5.854.072 2.41.02 4.818.49 7.216.26 1.34.148 2.75.164 4.133.012.888-.365 1.272-1.187 1.323-.113.01-.23.015-.343.01-4.383-.174-8.73.39-13.09.664-4.015.25-8 .782-12.046.704-1.572-.03-3.15.693-4.77.213zm11.67 16.594l-.01-.145c-2.42 0-4.84.01-7.26-.005-.6-.005-1.133-.19-1.285-.886-.673-3.03-1.494-6.03-1.52-9.168-.01-.637.4-1.1.997-1.136.46-.03.92-.048 1.38-.037 5.31.114 10.556-.61 15.826-1.104 3.66-.343 7.36-.41 11.032.11.91.13 1.83.217 2.748.257 1.54.064 1.938-.23 2.62-1.698.884-1.92 1.236-3.967 1.254-6.038.028-3.682.128-7.357-.208-11.045-.294-3.204-.164-6.445-.265-9.67-.206-6.558-.442-13.117-.65-19.675-.03-.92.003-1.843.025-2.765.015-.523.315-.85.822-.937 2.613-.436 5.23-.83 7.893-.663.512.032.896.31.885.843-.034 1.61.055 3.247-.21 4.82-.563 3.34-.233 6.66-.16 9.985.032 1.38.294 2.75.315 4.123.07 5.3.096 10.603.117 15.9.007 3.455.23 6.89.49 10.335.336 4.467.142 8.98.124 13.472-.006 1.412-.576 2.126-1.997 2.41-2.365.47-4.75.876-7.138 1.16-4.465.524-8.954.643-13.446.678-1.14.007-2.28.283-3.424.36-2.987.198-5.973.353-8.962.52zm50.76 6.15c-.018.24-.422.59-.695.646-1.01.206-2.036.384-3.06.437-4.023.196-8.013.704-11.99 1.274-.23.034-.46.066-.69.083-4.242.31-8.492.55-12.727.946-4.117.386-8.26.402-12.36 1.08-1.912.313-3.898.22-5.85.274-.506.015-.853-.313-.93-.818-.196-1.243-.416-2.483-.527-3.733-.147-1.666.01-1.663 1.59-1.954 1.36-.254 2.72-.366 4.086-.5 5.498-.556 11.008-.66 16.523-.796 1.6-.04 3.195-.38 4.787-.626 2.494-.386 4.98-.83 7.477-1.207.93-.14 1.484-.676 1.625-1.528.36-2.146 1.07-4.23 1.05-6.44-.055-7.368-.06-14.736-.135-22.107-.024-2.293-.278-4.59-.303-6.885-.018-1.718.2-3.44.248-5.16.117-4.14.367-8.28-.16-12.414-.088-.683-.153-1.376-.13-2.063.03-.89-.506-2.042.335-2.587.523-.333 1.515.102 2.296.132 1.728.07 3.428-.11 5.146-.39 2.96-.492 3.22-.217 3.225 2.678.01 2.758-.067 5.51.443 8.256.23 1.23.15 2.526.15 3.794.012 5.527.004 11.05.004 16.576h-.143c0 6.45.013 12.897-.01 19.344 0 .917-.14 1.83-.217 2.743-.126 1.488-.263 2.98-.376 4.47-.072.942.045 1.827.76 2.553 1.144 1.157.647 2.585.56 3.922zM39.91 43.767c4.014.02 8.03.103 12.042.17.8.015 1.62-.026 2.395.138 3.41.718 6.86.213 10.283.31.51.012 1.104-.325 1.53-.662 1.26-1 .98-2.73-.5-3.29-1.296-.494-2.636-.727-4.036-.712-3.213.03-6.425.008-9.638.008v-.047c-3.438.067-6.88.085-10.315.224-1.71.066-3.41.337-5.113.565-.313.042-.614.292-.882.496-.644.49-.512 1.74.213 2.044 1.283.534 2.62.75 4.023.756zm10.9 20.784c4.146 0 8.293 0 12.445-.006.688-.002 1.38-.008 2.066-.085.724-.08 1.43-.887 1.54-1.663.087-.593-.336-1.45-.986-1.67-.86-.3-1.756-.58-2.653-.648-1.722-.13-3.452-.143-5.18-.127-6.324.058-12.645.21-18.95.81-.79.076-1.574.295-2.34.524-.69.208-.996.877-.86 1.66.11.64.496 1.08 1.127 1.112 2.528.116 5.056.244 7.586.255 2.07.003 4.14-.158 6.206-.248l.003.082zm15.006-13.702c-1.536-.482-3.088-.824-4.725-.8-3.324.053-6.652.018-9.98.018-3.556 0-7.115.02-10.667-.013-1.3-.008-2.526.213-3.613.907-.325.21-.56.704-.63 1.102-.035.21.33.56.59.74.89.62 1.926.678 2.97.68 3.213.005 6.424.054 9.634 0 3.202-.052 6.374.65 9.597.243 1.22-.153 2.5.165 3.75.245.915.056 1.83.117 2.743.092.693-.02 1.306-.636 1.43-1.28.148-.765-.326-1.693-1.097-1.935z"/></svg>