<svg xmlns="http://www.w3.org/2000/svg" width="128" height="128" viewBox="0 0 128 128"><path d="M93.308 99.906c0-5.404.013-10.805-.01-16.21-.006-1.866-.31-2.117-2.252-2.065-.754.02-1.508.066-2.26.143-.89.09-1.336.53-1.322 1.498.05 4.263.01 8.538.273 12.79.226 3.655.267 7.266-.603 10.83-.205.838-.58 1.65-.966 2.43-.35.707-1.253 1.035-1.926.584-1.557-1.045-3.257-1.167-5.04-1.133-1.882.035-3.77-.066-5.652-.052-6.272.053-12.555-.464-18.808.482-.593.087-1.234-.15-1.853-.236-3.73-.52-7.46-.958-11.245-.928-4.898.04-9.797-.062-14.694-.107-2.135-.018-4.27-.016-6.404-.08-.303-.01-.768-.276-.846-.525-.09-.283.076-.763.297-1.003 1.103-1.205 2.31-2.315 3.378-3.546.646-.74 1.143-1.627 1.645-2.485.363-.623.183-1.3-.357-1.674-.345-.24-1.008-.33-1.374-.158-.894.423-1.69 1.052-2.548 1.556-.107.064-.512-.105-.53-.203-.348-2.007-.522-3.935 1.13-5.6 1.14-1.15 2.14-2.47 3.063-3.807.478-.695.688-1.59.958-2.413.132-.4-.403-1.062-.836-1.067-.49-.006-1.062-.08-1.46.14-.764.406-1.43 1.002-2.137 1.514-.31.227-.814.066-.865-.264-.24-1.53-.18-2.965.86-4.28 1.322-1.67 2.556-3.414 3.784-5.162.5-.71.94-1.48 1.303-2.273.267-.58.245-1.24-.22-1.758-.493-.56-1.14-.52-1.713-.2-.756.42-1.49.9-2.16 1.446-.476.386-.8.955-1.244 1.39-.134.127-.448.106-.676.095-.072-.004-.18-.17-.2-.28-.085-.486-.2-.976-.21-1.47-.222-10.553-.443-21.104-.032-31.653.085-2.125.363-4.247.616-6.36.034-.268.46-.66.744-.7 2.353-.306 4.715-.73 7.078-.75 2.17-.02 4.235-.456 6.298-.933 2.71-.626 3.292-1.507 3.13-4.235-.015-.254-.02-.51-.06-.753-.48-2.968-.933-5.938-1.455-8.896-.306-1.723-.717-3.43-1.083-5.145-.122-.57.05-.985.644-1.11 3.084-.66 6.21-1.016 9.343-.636 5.133.62 10.28.46 15.426.57 1.13.026 2.257.1 3.382.19 1.997.163 3.99.37 5.987.53 4.116.33 8.273-.195 12.372.638 1.33.274 2.722.26 4.085.374 1.067 1.355.128 2.907.407 4.346.142.73 0 1.512.098 2.254.427 3.224.472 6.467.523 9.707.07 4.65.235 9.3.134 13.944-.05 2.234.99 3.804 2.24 5.39.266.335 1.072.325 1.35-.052.356-.493.815-1.013.91-1.575.16-.98.127-2.002.095-3.004-.07-2.38-.242-4.747.555-7.087.314-.917.25-1.99.246-2.99-.02-6.912-.043-13.82-.142-20.727-.02-1.494-.318-2.988-.59-4.46-.227-1.237-.555-1.435-1.775-1.397-1.378.04-2.893.49-4.1.067-2.36-.83-4.71-.618-7.07-.628-7.286-.043-14.574-.018-21.86-.018v-.18c-8.42 0-16.835.035-25.253-.03-1.68-.015-2.933.42-3.755 1.912-1.52 2.75-3.54 5.126-5.56 7.504-.086.096-.163.192-.236.294-1.606 2.247-3.51 4.345-4.736 6.78-1.31 2.607-2.78 5.02-4.758 7.133-.65.698-.853 1.504-.82 2.417.115 3.12-.306 6.256.58 9.355.337 1.173.26 2.494.246 3.742-.1 11.808-.224 23.62-.352 35.424-.016 1.508-.075 3.013-.143 4.517-.313 6.65-.52 13.29.088 19.94.136 1.485.245 2.954-.333 4.445-.484 1.245.312 2.35 1.618 2.356 2 .007 4.006-.146 6-.31 1.872-.155 3.73-.517 5.6-.6 2.385-.113 4.775-.035 7.16-.04 5.403-.018 10.82.182 16.2-.145 2.92-.178 5.733.14 8.588.387 2.25.196 4.498.398 6.747.602 1.12.1 2.254.16 3.37.33 4.114.61 8.245.742 12.395.5 1.147-.063 2.31-.16 3.216-.9.977-.793 2.03-.854 3.185-.762.875.067 1.756.024 2.637.06 1.436.054 2.45-.607 2.94-1.9.886-2.333 1.87-4.62 1.633-7.254-.19-2.12-.038-4.267-.038-6.4zm-66.61-76.522c.14-.3.513-.488.76-.707.288.088.612.085.725.238 1.163 1.563 2.798 2.867 2.843 5.05.004.195-.137.546-.24.558-.204.02-.498-.083-.637-.24-1.15-1.296-2.29-2.602-3.38-3.95-.17-.212-.19-.692-.07-.948zm-.637 5.95c.013.022.02.046.03.07l.187.11.75.756c.04.096.07.195.123.28.058.043.116.082.174.12-.06-.034-.136-.056-.17-.107 0-.004-.002-.01-.004-.013-.078-.053-.157-.11-.237-.162l-.736-.77c-.03-.07-.058-.14-.085-.213l-.075-.043.047-.026zm-.99-1.78l.06.23-.184-.032.125-.2zm-5.09 4.352c.246-.416.543-.82.874-1.175.488-.52 1.047-.425 1.493.256.195.303.44.68.407 1-.064.663-.702.456-1.128.548-.117.025-.245.005-.69.005-.045-.01-.42-.018-.762-.13-.115-.042-.26-.4-.197-.504zm95.81 27.354c-.848-.53-1.67-1.1-2.5-1.662-1.246-.84-2.543-1.61-3.715-2.54-2.06-1.633-4.046-3.353-6.05-5.054-.7-.59-1.486-.893-2.4-.93-.856-.034-1.373.288-1.73 1.105-.882 1.997-1.012 4.107-1.043 6.25-.015 1.12-.54 1.602-1.604 1.66-2.502.127-5.007.212-7.507.375-1.12.075-2.224.352-3.343.442-3.37.267-6.74.493-10.112.738-.25.02-.504.05-.75.09-1.098.198-1.857.856-2 1.953-.355 2.724-.642 5.455-.956 8.184.042.01.084.017.13.025 0 .625-.01 1.25.003 1.876.016.88-.02 1.764.1 2.628.244 1.79 1.293 2.483 3.16 2.193 3.58-.555 7.117-1.472 10.78-1.387.246.005.492-.115.74-.14 3.116-.296 6.228-.668 9.35-.86 2.467-.148 3.02.4 2.945 2.684-.04 1.117-.02 2.248.565 3.296.82 1.46 2.48 1.998 3.837 1.088.72-.483 1.343-1.125 1.956-1.75 3.605-3.652 6.585-7.888 10.494-11.266.47-.407.873-.91 1.23-1.422.276-.4.534-.864.63-1.333.524-2.514.185-4.747-2.21-6.25zm-3.643 7.124c-.507.472-.657 1.318-.98 1.986-.408.843-.582.86-1.586.015-.5-.418-.94-.24-1.342.058-.976.72-1.37 1.752-1.45 2.93-.03.466-.08.935-.637 1.062v.1c-.035.012-.052.033-.082.044.008.422.035.847-.005 1.267-.013.13-.253.24-.388.357-.062-.093-.164-.183-.184-.284-.12-.592-.042-1.098.58-1.34 0-.037-.003-.075-.003-.113.036-.005.053-.023.085-.032.004-.715.048-1.44-.027-2.148-.062-.61-.47-.79-1.05-.52-.225.108-.68.24-.68.23-.56-1.47-2.097-1.06-3.123-1.612-1.3-.702-2.58-1.404-4.183-.563-.598.318-1.424-.002-1.988-.67-.924-1.088-1.127-1.173-1.837-.58-1.493 1.247-3.02 1.454-4.885.863-.994-.314-2.19.043-3.293.02-1.125-.017-2.246-.142-3.373-.186-.75-.03-1.504.023-2.256.005-.745-.02-1.137-.4-1.18-1.144-.026-.496-.03-1.002.022-1.5.06-.53.346-.92.94-.96.372-.03.748-.033 1.124-.05l16.89-.924c.377-.02.756-.005 1.127-.056 6.09-.85 5.45-.308 4.356-5.708-.1-.49-.26-.98-.242-1.466.014-.328.216-.765.477-.935.268-.167.735-.16 1.06-.054.335.107.62.405.9.65 1.965 1.75 3.92 3.505 5.877 5.26.647.58 1.197 1.2 1.632 2.01.78 1.462 1.1 2.684-.29 3.99z"/></svg>