<svg xmlns="http://www.w3.org/2000/svg" width="128" height="128" viewBox="0 0 128 128"><path d="M104.23 61.81c-.002-2.862.368-5.723.504-8.588.13-2.76.306-5.54-.587-8.22-.56-1.676-.402-3.358-.294-5.052.1-1.586.29-3.173.31-4.76.08-6.7-.392-13.39-.47-20.085-.048-4.114-.49-4.174-4.463-4.02-1.056.042-2.165.204-3.163-.044-1.27-.31-2.522-.323-3.79-.326-8.086-.01-16.17-.004-24.254-.004v-.18c-8.403 0-16.808.022-25.21-.02-1.386-.006-2.454.216-3.184 1.557-.647 1.19-1.874 2.037-2.04 3.53-.03.265-.362.513-.59.73-2.885 2.722-5.017 6.035-7.253 9.266-.54.78-1.056 1.594-1.472 2.446-1.083 2.204-2.318 4.293-4.112 6.006-.747.715-.992 1.6-.94 2.61.033.636 0 1.276.006 1.914.03 3.935.08 7.87.095 11.803.017 3.723-.05 7.445.01 11.168.06 3.614.3 7.22.342 10.834.058 4.998.01 9.995-.01 14.997-.003.957-.09 1.91-.108 2.867-.115 5.74-.236 11.48-.315 17.22-.01.736.24 1.47.3 2.208.11 1.46.516 2.944-.268 4.363-.096.173-.075.413-.1.623-.142 1.206.446 2.128 1.68 2.29.924.12 1.9.045 2.83-.09 3.573-.51 7.136-1.084 10.767-1.06 9.36.06 18.722.058 28.083.12 2.87.02 5.75.054 8.606.307 6.144.544 12.282 1.056 18.457.953 1.382-.024 2.767.022 4.15-.012 2.573-.07 4.42-1.262 5.53-3.613.962-2.044 1.56-4.14 1.533-6.438-.077-6.59-.005-13.173-.282-19.765-.354-8.5-.292-17.018-.3-25.528zM38.566 22.755c.177-.072.507-.11.587-.015 1.39 1.674 3.136 3.16 3.127 5.61 0 .096-.062.256-.122.27-.165.042-.432.092-.506.008-1.246-1.43-2.483-2.87-3.69-4.33-.385-.462-.046-1.283.603-1.543zm-2.673 4.81c.015.03.017.072.02.11l.093.1c.004.035.016.064.02.096.345-.004.47.214.513.517.034.004.062.018.103.018l.66.66c0 .044 0 .088.003.133.5.21.542.64.515 1.1.027.01.047.025.076.034l.65.63c.035.073.067.147.108.215l.203.113c-.06-.02-.142-.02-.176-.062-.01-.015-.016-.035-.025-.053l-.2-.112-.64-.643.008-.125c-.497-.213-.506-.657-.516-1.1-.032-.013-.06-.028-.096-.04-.214-.222-.434-.444-.653-.667-.003-.037-.013-.068-.018-.105-.304-.038-.454-.232-.513-.517-.037 0-.064-.01-.107-.004-.003-.065-.002-.13-.007-.193l-.217-.23c.07.04.173.062.196.117zm-4.57 4.19c.196-.362.492-.676.772-.985.427-.47.866-.43 1.29.12.193.248.335.53.502.795.243.378-.035.655-.282.74-.582.2-1.202.292-1.682.4-.336-.116-.67-.155-.69-.255-.05-.26-.036-.59.085-.817zm67.787 71.23c-.064 1.877-.718 3.733-1.122 5.594-.158.735-.704 1.02-1.395 1.066-.53.037-1.085.147-1.587.036-2.005-.44-4.032-.202-6.044-.306-2.97-.156-5.952-.25-8.902-.59-5.195-.604-10.41-.724-15.605-.417-7.867.47-15.733.406-23.6.477-.53.004-1.067.025-1.592-.04-.357-.043-.49-.34-.31-.672.508-.93.995-1.88 1.57-2.773.613-.957.732-1.977.578-3.057-.137-.986-1.37-1.54-2.23-.992-.353.228-.676.513-.978.806-1.524 1.497-2.783 3.205-3.924 5.01-.27.427-.7.765-1.1 1.09-.086.07-.367-.075-.545-.155-.084-.037-.212-.166-.202-.224.126-.51.185-1.055.43-1.5 1.185-2.14 2.43-4.245 3.63-6.377.678-1.205 1.313-2.434 1.964-3.652.428-.79.433-1.63.276-2.484-.192-1.035-1.2-1.632-2.155-1.297-1.03.364-1.89.954-2.51 1.873-.533.79-1.07 1.585-1.628 2.363-.082.112-.294.133-.446.197-.063-.197-.22-.42-.18-.59.176-.715.354-1.435.63-2.112 1.448-3.537 2.93-7.065 4.396-10.6.204-.49.41-.983.55-1.492.214-.78-.034-1.465-.543-2.07-.272-.32-.88-.453-1.14-.17-.93 1.013-1.83 2.06-2.744 3.086-.21.236-.428.464-.657.68-.064.06-.208.11-.273.08-.08-.04-.157-.168-.164-.26-.06-.737-.14-1.473-.14-2.21-.012-4.684-.007-9.366-.007-14.05h-.048c0-2.02.037-4.042-.006-6.063-.133-6.164-.315-12.33-.44-18.495-.03-1.514-.356-2.943-.84-4.362-.278-.817-.065-1.126.86-1.105 3.954.093 7.804-.88 11.73-1.112 1.454-.086 2.885-.647 4.32-1.027.786-.21 1.168-.814 1.45-1.556.358-.942.336-1.885.173-2.83-.69-3.972-1.09-7.992-2.16-11.9-.223-.81-.265-1.674-.33-2.52-.055-.715.55-1.306 1.198-1.093 1.968.643 4.01.34 6.002.577 8.06.96 16.136.556 24.213.465 2.55-.028 5.084-.02 7.627.464 1.534.292 3.187.143 4.763-.033 1.28-.143 2.507-.3 3.784.046.705.193 1.476.22 2.214.204 1.825-.034 1.983.073 1.996 1.92.02 2.76.13 5.52.234 8.28.06 1.59.248 3.18.256 4.772.085 14.258.17 28.517.18 42.776.004 3.292-.276 6.584-.426 9.873-.02.423-.06.852-.028 1.275.21 2.863.296 5.742.69 8.58.4 2.867.395 5.74.3 8.594zM77.632 64.427c-.685-.512-1.694-.288-2.24.49-.795 1.13-1.51 2.31-2.277 3.457-.587.88-1.192 1.747-1.803 2.61-.177.25-.654.167-.768-.13-.267-.69-.448-1.423-.78-2.076-.45-.877-.332-1.6.276-2.334 1.624-1.97.926-2.74-1.433-2.763-.32 0-.64-.012-.957 0-1.163.055-1.843.966-1.23 1.926.78 1.227.672 2.372.25 3.61-.032.1-.013.217-.043.316-.154.492-.26 1.004-.493 1.45-.157.303-.74-.236-1.237-1.206-.82-1.603-1.62-3.22-2.496-4.795-.41-.732-.19-1.78-1.04-2.246-.97-.54-1.82.26-2.732.4-.418.065-.817.236-1.23.32-1.107.228-1.883.883-2.542 1.772-1.692 2.29-2.544 4.888-2.832 7.672-.442 4.238-.178 8.485-.06 12.733.002.106.01.214.037.317.143.56.507.992 1.046 1.088.827.147 1.682.206 2.525.21 3.61.022 7.22.012 10.83.012.004.05.004.1.004.15 3.82-.11 7.644-.2 11.465-.345 1.052-.04 2.104-.35 3.15-.336 1.272.017 1.643-.81 1.915-1.745.174-.6.23-1.252.238-1.883.037-3.078.02-6.157.055-9.235.05-4.287-2.44-7.063-5.598-9.432zM59.9 52.835c.65.262.87.85 1.116 1.456.557 1.375 1.11 2.758 1.803 4.064.99 1.867 2.555 3.083 4.62 3.624 1.57.412 2.94.02 4.114-1.06.713-.656 1.263-1.43 1.515-2.386.35-1.33.814-2.64 1.04-3.99.17-1.018.465-1.786 1.414-2.305 1.205-.657 1.38-1.824 1.184-3.043-.166-1.048-.393-2.106-1.41-2.735-.708-.44-.938-1.12-.927-1.904.024-1.294-.26-2.52-.714-3.727-.557-1.475-1.543-2.713-2.99-3.11-3.06-.85-5.457-.48-7.386 2.142-1.135 1.544-2 3.267-2.364 5.168-.17.892-.408 1.603-1.297 2.016-1.115.518-1.416 1.502-1.306 2.645-.085 1.36.128 2.56 1.584 3.147zm9.394-10.443c.11-.156.347-.395.43-.363.265.105.547.277.707.506.493.706.73 1.51.73 2.376V48.7l.144.003c-.07 1.365-.107 2.735-.235 4.096-.047.497-.294.99-.51 1.46-.06.13-.33.18-.515.23-.032.01-.142-.157-.165-.253-.29-1.203-.794-2.41-.783-3.616s-.45-2.245-.602-3.373c-.224-1.677-.26-3.37.797-4.856z"/></svg>