<svg xmlns="http://www.w3.org/2000/svg" width="128" height="128" viewBox="0 0 128 128"><path d="M105.832 92.594c1.293-2.865 1.163-5.92 1.1-8.955-.03-1.668-.335-3.26-1.247-4.706-.683-1.082-1.035-2.26-1.084-3.578-.233-6.443-.54-12.888-.783-19.33-.094-2.402-.094-4.81-.133-7.21-.05-2.905-.275-5.81.67-8.658.27-.81.165-1.756.164-2.64-.017-6.075.01-12.15-.11-18.225-.042-2.26-.426-4.52-.687-6.78-.1-.87-.612-1.26-1.58-1.233-.883.024-1.764.142-2.65.145-.75.004-1.59.107-2.225-.18-1.342-.62-2.715-.532-4.096-.534-8.227-.01-16.453-.003-24.678-.003v-.195c-8.1 0-16.2-.008-24.298.002-3.537.004-3.537.02-5.574 2.84-.222.305-.59.592-.64.926-.245 1.643-1.468 2.603-2.498 3.675-2.738 2.845-4.832 6.165-6.87 9.498-1.383 2.26-2.49 4.676-4.485 6.51-.704.643-.877 1.505-.872 2.422.013 2.278-.015 4.558.027 6.833.014.753.08 1.537.315 2.244.535 1.6.55 3.237.484 4.88-.18 4.422-.52 8.84-.55 13.26-.107 15.06-.107 30.12-.142 45.182-.003.885-.05 1.784.085 2.653.175 1.124.24 2.148-.164 3.3-.506 1.438.383 2.45 1.976 2.437 1.766-.015 3.573 0 5.29-.354 2.88-.594 5.772-.693 8.68-.693 5.82-.004 11.642.032 17.465.026 1.518-.003 3.037-.053 4.55-.154 2.52-.165 5.037-.536 7.557-.563 7.593-.073 15.185-.043 22.776.01 1.378.008 2.752.345 4.134.455 1.76.135 3.528.22 5.295.28.976.035 1.82-.463 2.147-1.31.895-2.324 2.175-4.507 2.05-7.185-.17-3.666-.037-7.34-.046-11.01-.005-1.4.053-2.773.648-4.085zM38.264 23.05c.228-.196.85-.327.965-.193.986 1.118 1.966 2.26 2.793 3.5.315.47.22 1.215.3 1.743-.13.203-.177.334-.268.41-.067.054-.248.086-.284.046-1.303-1.512-2.617-3.017-3.865-4.576-.112-.142.126-.732.358-.928zm-2.185 4.806c.006.017.006.036.012.053l.16.166c.267.26.53.523.796.786l.76.75c.255.252.513.506.772.756-.122-.046.395.5-.098.106-.264-.247-.526-.496-.787-.744-.254-.25-.508-.503-.76-.757l-.79-.782c-.017-.095-.024-.19-.05-.28l-.204-.206c.065.05.158.085.187.15zm-4.7 3.94c.187-.31.43-.595.68-.86.537-.568.987-.532 1.453.174.188.285.37.7.295.988-.06.235-.495.407-.795.528-.215.09-.484.047-.456.045-.396 0-.524.027-.638-.006-.23-.06-.524-.096-.654-.253-.088-.11.003-.443.108-.615zm66.54 78.054c-.5.968-1.35 1.33-2.177.713-1.33-.988-2.78-1-4.31-1.074-6.447-.306-12.9-.298-19.344-.038-6.817.275-13.62.78-20.428 1.184-.254.015-.506.032-.757.043-.804.025-.992-.17-1.38-1.336-.07-.208-.172-.49-.336-.56-.165-.07-.57.02-.623.146-.64 1.505-1.76 1.927-3.34 1.825-1.618-.102-3.244-.46-4.89-.038-.672.174-1.06-.5-.81-1.253.35-1.074.746-2.144 1.064-3.226.15-.512.01-1.106-.525-1.257-.427-.112-1.067-.057-1.397.2-.588.45-1.083 1.07-1.475 1.7-.395.636-.62 1.377-.917 2.073-.687 1.6-1.13 1.872-2.846 1.752-1.487-.103-1.883-.78-1.34-2.3.55-1.548 1.138-3.077 1.63-4.64.083-.265-.153-.805-.398-.95-.253-.14-.74-.04-1.05.112-1.104.533-1.52 1.637-2.06 2.638-.147.27-.314.786-.722.373-.216-.224-.288-.702-.24-1.04.073-.483.295-.954.48-1.418.93-2.348 1.885-4.684 2.8-7.04.272-.7.49-1.424.667-2.156.18-.764-.204-1.67-.588-1.53-.445.16-.886.442-1.208.78-.335.358-.5.87-.8 1.275-.134.185-.403.275-.612.41-.152-.27-.397-.52-.437-.804-.146-1.052.21-2.034.736-2.89 1.482-2.398 2.172-5.102 3.103-7.71.677-1.892 1.2-3.85 1.754-5.787.136-.476.153-.997.15-1.49-.003-.734-1.014-1.456-1.633-1.127-.996.527-1.94 1.158-2.898 1.754-.3.187-.513.13-.55-.23-.083-.746-.17-1.498-.172-2.244-.013-5.564-.008-11.13-.008-16.697h.2c0-5.312.027-10.627-.016-15.938-.013-1.49-.245-2.977-.328-4.467-.005-.102.4-.323.62-.33 1.386-.067 2.85.18 4.154-.176 3.324-.91 6.834-.197 10.107-1.337.474-.165.98-.225 1.465-.378 1.957-.618 2.807-1.93 2.526-3.973-.622-4.498-1.288-8.99-2.405-13.397-.155-.605-.225-1.25-.185-1.867.018-.296.364-.78.607-.81 3.112-.4 6.193-1.326 9.39-.498.957.245 2.003.177 3.01.2 4.302.102 8.604.136 12.9.3 2.647.103 5.286.444 7.933.584 2.4.122 4.805.122 7.207.173 2.144.046 4.285-.02 6.407.497 1.085.267 2.263.143 3.4.203.99.05 1.507.49 1.317 1.376-.38 1.762-.064 3.49.047 5.233.047.757.143 1.515.153 2.27.166 14.795.786 29.583.52 44.38-.005.254.002.508-.01.76-.052 1.108-.385 1.425-1.386 1.057-3.766-1.385-7.676-1.54-11.596-1.248-7.653.572-13.755 3.886-17.837 10.55-.262.434-.56.85-.773 1.305-.742 1.602-1.856 3.17-2.07 4.845-.244 1.95.197 4.02.563 6 .177.944.725 1.92 1.368 2.644.957 1.073 1.545 2.288 2.057 3.583 2.567 6.497 7.865 8.804 14.325 9.282 1.003.075 2.027-.107 3.032-.036 3.882.245 7.17-1.18 10.15-3.51.495-.386.95-.834 1.44-1.23.187-.148.428-.223.645-.333.094.224.27.45.272.678.028 1.93-.448 3.75-1.33 5.457zm5.196-21.66c.003.912-.305 1.71-.757 2.5-1.004 1.75-2.024 3.502-2.853 5.338-.548 1.216-1.36 2.037-2.403 2.813-1.73 1.29-3.66 2.17-5.534 3.196-4.048 2.2-8.084 1.333-12.17.37-3.253-1.89-5.74-4.3-6.882-8.103-1.423-4.725-.42-8.644 2.84-12.22 3.943-4.323 8.688-6.812 14.614-6.83h1.522c1.64-.044 3.683-.165 5.542.836.656.353 1.49.767 1.757 1.364.745 1.675 2.23 2.723 3.196 4.187.713 1.083 1.25 2.166 1.145 3.517-.075 1.006-.02 2.02-.017 3.034zm-7.984-.78c-1.51-.06-3.025.014-4.538.048-1.38.03-1.747-.292-1.842-1.742-.06-.885-.043-1.77-.128-2.653-.047-.49-.143-1.016-.378-1.44-.226-.407-.66-.693-.868-.904-1.524-.205-3.18.963-3.295 2.21-.103 1.134-.056 2.276-.123 3.41-.067 1.137-.528 1.613-1.61 1.71-.88.087-1.765.09-2.64.207-.737.098-1.462.86-1.542 1.487-.075.59.47 1.38 1.257 1.726.456.202.94.364 1.43.464s1.006.08 1.503.16c1.244.198 1.493.466 1.698 1.648.17.99.286 2.002.567 2.96.437 1.478 1.24 2.016 2.443 1.813 1.71-.285 2.376-.893 2.437-2.365.043-1.006-.036-2.02-.038-3.027 0-.747.388-1.152 1.152-1.175 1.008-.032 2.028.047 3.03-.05.734-.065 1.485-.255 2.165-.54.875-.363 1.22-1.222 1.043-2.208-.168-.932-.827-1.71-1.728-1.74z"/></svg>