<svg xmlns="http://www.w3.org/2000/svg" width="128" height="128" viewBox="0 0 128 128"><path d="M108.945 75.576c-.23-3.437-.648-6.87-1.216-10.272-.5-2.976-1.367-5.91-2.76-8.593-3.38-6.494-8.594-11.312-14.617-15.294-1.446-.955-3.142-1.44-4.943-.875-.383.12-.687.71-.436.976 1.28 1.365 1.557 3.044 1.536 4.81-.018 1.73.034 3.468-.145 5.18-.33 3.15-1.805 5.745-4.31 7.67-2.39 1.838-5.245 1.453-7.187-.832-.507-.595-.853-1.243-.848-2.046.02-2.803-.13-5.61.472-8.388.573-2.642.93-5.31.766-8.027-.053-.86-.06-1.733.002-2.592.11-1.534-.15-3.02-.572-4.47-1.147-3.944-2.54-7.8-4.65-11.35-1.65-2.777-3.105-5.692-5.373-8.062-1-2.38-2.9-3.98-4.82-5.563h-1.943c-.312 1.485-.312 2.952.2 4.402.215.608.347 1.248.57 1.853.38 1.03.416 2.095.482 3.178.213 3.643-.656 7.06-1.99 10.397-1.984 4.97-5.018 9.306-8.302 13.46C45.52 45.357 42.02 49.46 38.59 53.62c-.205.248-.395.512-.613.747-.333.356-1.105.286-1.43-.142-.26-.34-.572-.683-.698-1.077-1.124-3.496-2.248-6.995-1.53-10.763.18-.952.243-1.93.297-2.898.036-.685-.24-1.26-.893-1.592-.66-.337-1.426-.16-2.043.475-.15.156-.287.322-.426.486-.843.984-1.722 1.94-2.514 2.962-.92 1.193-1.874 2.382-2.623 3.683-2.385 4.143-3.907 8.647-5.17 13.223-.57 2.064-.74 4.242-1.013 6.38-.328 2.564-.75 5.136-.81 7.713-.11 4.416-.323 8.838.444 13.248.392 2.244.742 4.508 1.682 6.556 2.3 5.015 4.975 9.812 8.688 13.972 1.884 2.11 4.003 3.915 6.216 5.656 1.717 1.357 3.54 2.467 5.564 3.26 2.51.98 5.028 1.938 7.558 2.87 2.97 1.096 6.064 1.596 9.21 1.44 2.257-.11 4.504-.488 6.746-.806 1.382-.195 2.756-.48 4.126-.764 6.086-1.263 11.712-3.733 17.073-6.784 3.1-1.763 6.057-3.808 8.21-6.74 1.797-2.444 3.764-4.726 5.848-6.922.59-.623 1.235-1.248 1.636-1.99 1.59-2.94 3.2-5.882 4.6-8.913 1.653-3.57 2.49-7.383 2.222-11.32zm-37.316 29.39c-.606 2.5-2.135 4.427-3.72 6.31-.625.747-1.593 1.04-2.644.928-.747-.08-1.51-.017-2.26-.017v-.096c-.865 0-1.73-.017-2.59.007-.77.02-1.487-.088-2.187-.445-1.7-.872-3.7-1.232-4.81-3.073-1.616-2.678-3.14-5.28-3.255-8.62-.132-3.83.95-7.21 2.607-10.52.178-.358.755-.293.998.137.85 1.496 1.67 3.012 2.53 4.506.483.838 1.023 1.644 1.535 2.463.115.18.224.37.36.538 2.06 2.572 4.307 2.742 6.115-.312 1.15-1.945 2.42-3.82 3.654-5.712.47-.718.928-.656 1.39.18 1.214 2.184 2.096 4.45 2.308 6.993.19 2.258.512 4.474-.032 6.736zm30.384-24.906c.02 1.542-.67 2.933-1.36 4.283-.983 1.915-2.207 3.714-2.676 5.867-.065.3-.28.584-.47.843-2.827 3.814-5.515 7.742-9.01 11.014-2.872 2.692-6.107 4.787-9.855 6.044-.306.105-.62.18-.934.253-.437.107-.82-.314-.644-.745 1.43-3.445 1.263-6.936.37-10.466-.852-3.36-1.89-6.607-4.04-9.437-1.233-1.624-2.166-3.477-3.286-5.192-.34-.522-.824-.98-1.316-1.37-.156-.122-.64-.016-.834.15-.218.186-.28.555-.405.847-.55 1.294-1.25 2.48-2.144 3.587-1.214 1.51-2.274 3.14-3.422 4.708-.376.512-.947.497-1.32-.03-2.557-3.6-4.155-7.535-4.163-12.02-.002-2.05.02-4.1-.026-6.15-.006-.23-.336-.505-.577-.657-.133-.08-.403.04-.603.096-.097.03-.195.108-.257.19-1.306 1.705-2.822 3.29-3.867 5.142-3.247 5.76-5.498 11.936-6.997 18.37-.894 3.823-.998 7.688-.064 11.54.04.165-.06.445-.192.545-.12.097-.416.1-.557.01-3.534-2.19-6.417-5.06-8.907-8.38-3.9-5.2-6.154-11.11-7.38-17.406-.49-2.522-.402-5.152-.576-7.733-.144-4.25.815-8.387 1.19-12.575.096-1.07.267-2.137.446-3.2.124-.74.296-1.477.5-2.2.16-.55.765-1.006 1.203-.846.352.127.704.44.91.763.514.82.993 1.672 1.404 2.55 1.62 3.46 3.95 6.41 6.523 9.19.22.238.397.513.625.742 1.696 1.704 2.797.784 3.657-1.01.13-.274.12-.636.107-.955-.116-2.622.457-5.168 1.135-7.645.79-2.89 1.902-5.62 4.02-7.972 3.75-4.166 7.312-8.52 10.237-13.338 2.53-4.17 4.747-8.475 5.48-13.387.025-.164.24-.384.402-.42.155-.036.452.09.517.223.374.777.755 1.555 1.025 2.37.82 2.45 1.707 4.886 2.357 7.383.853 3.28.65 6.648.294 9.973-.344 3.212-.984 6.39-1.35 9.6-.567 5.002.978 9.362 4.262 13.142.98 1.127 2.335 1.68 3.68 1.84 5.034.602 9.11-1.2 12.002-5.413 2-2.92 2.837-6.265 3.147-9.745.112-1.288.07-2.59.116-3.886.01-.206.123-.583.177-.58.28.01.657.027.82.205 1.455 1.59 3.015 3.11 4.272 4.846 3.003 4.153 5.003 8.704 5.854 13.854.696 4.213.443 8.395.497 12.592z"/></svg>