<svg xmlns="http://www.w3.org/2000/svg" width="128" height="128" viewBox="0 0 128 128"><path d="M95.044 51.302c-2.283-2.67-4.22-5.59-6.19-8.49-1.078-1.585-2.362-2.994-3.993-4.065-1.06-.7-2.08-1.48-3.062-2.286-1.828-1.5-3.95-2.52-6.066-3.457-1.61-.715-3.258-1.61-5.143-1.525-.703.03-1.14-.422-1.633-.853-3.4-2.987-7.3-5.027-11.62-6.396-2.36-.75-4.754-1.09-7.183-1.27-2.22-.166-4.45-.23-6.675-.224-.94 0-1.89.254-2.823.456-1.02.222-1.355 1.202-.696 1.915.07.078.146.156.226.222 2.475 2.036 4.584 4.432 6.667 6.843 3.39 3.93 3.05 3.062-.795 5.027-.66.336-1.344.638-1.995.992-6.12 3.313-11.864 7.08-15.826 13.018-.4.597-.774.658-1.31.228-3.688-2.955-7.898-4.94-12.23-6.736-1.86-.77-3.628-1.76-5.412-2.7-1.22-.64-2.39-1.38-3.598-2.047-1.173-.64-2.09-.654-2.62-.023-.642.762-.407 1.585-.062 2.396 1.13 2.632 2.22 5.282 3.394 7.895 2.48 5.516 4.564 11.212 7.545 16.494.286.507.254.986.06 1.515-1.738 4.784-3.466 9.572-5.19 14.363-.753 2.095-1.51 4.19-2.22 6.298-.262.783.47 1.81 1.313 1.827.5.01 1.045-.126 1.504-.34 3.87-1.802 7.425-4.138 10.79-6.723 2.99-2.293 6.483-3.618 9.68-5.502.2-.117.66-.02.863.143.402.33.685.808 1.064 1.175.962.93 1.115 1.87.49 3.134-.907 1.824-1.973 3.5-3.28 5.058-1.067 1.267-.914 2.205.395 3.25 1.84 1.466 3.843 2.755 6.065 3.444 2.825.88 5.65.916 7.95-1.537 1.28-1.365 1.332-1.312 2.998-.207.442.294.888.584 1.337.868 1.973 1.247 1.924 1.4.597 3.49-.17.27-.373.516-.565.767-1.29 1.68-2.586 3.358-3.87 5.04-.31.405-.187.836.15 1.12.392.33.856.77 1.312.797 3.07.19 6.175.542 9.21-.1 2.688-.57 5.31-1.458 7.968-2.198 1.675-.464 3.168-1.24 4.293-2.593.454-.544.998-.74 1.67-.74.85.003 1.703.03 2.55-.036 4.155-.32 8.217-1.073 11.93-3.07 3.65-1.968 7.11-4.234 10.093-7.148 1.408-1.38 2.42-2.948 2.13-5.073-.084-.625-.013-1.273-.013-1.91h-.122c0-.638.032-1.277-.006-1.91-.067-1.055-.075-2.132-.3-3.16-.37-1.683-1.458-2.06-2.76-1.06-.334.26-.65.548-.964.834-.235.213-.43.476-.685.663-.22.163-.5.252-.752.373-.073-.196-.18-.384-.217-.587-.248-1.358-.437-2.727-.736-4.07-.245-1.09-1.38-1.364-2.208-.568-.844.81-1.633 1.672-2.465 2.492-.31.306-.69.496-1.115.173-1.767-1.355-3.544-2.7-5.287-4.083-.36-.286-.365-.734-.056-1.127.39-.49 1.008-.734 1.368-.484.957.668 1.886 1.376 2.848 2.04.53.367 1.275.194 1.717-.3.523-.58.74-1.26.832-2.02.09-.73.24-1.45.412-2.165.02-.09.45-.202.5-.145.55.64 1.036 1.33 1.586 1.966.36.42.86.633 1.425.49.576-.145.914-.59.964-1.136.105-1.162.105-2.33.193-3.494.02-.275.218-.535.333-.805.18.108.384.187.54.32.64.556 1.226 1.19 1.91 1.68 1.054.75 2.42.283 2.86-.924.145-.4.236-.816.33-1.23.535-2.305.313-4.646.317-6.977-.67-1.096-.456-2.136.017-3.27.295-.707-.155-1.434-.662-2.027zm-4.108 28.72c.252-.327.563-.614.875-.89.265-.232.638-.084.667.246.035.42.058.84.092 1.37-.046.203-.106.508-.19.803-.02.08-.158.205-.18.194-.368-.186-.77-.337-1.065-.604-.314-.283-.512-.705-.195-1.117zM46.733 27.668c-.122-.1-.156-.304-.23-.46.2-.06.395-.143.6-.17.205-.033.42-.01.692-.01 5.17.363 10.138 1.62 14.652 4.392.24.15.664.247.433.63-.143.236-.47.444-.75.5-2.58.515-5.175.977-7.758 1.492-1.02.206-1.826.124-2.432-.888-1.325-2.212-3.232-3.887-5.21-5.49zm-5.107 61.768c-.188.88-1.445 2.005-2.39 2.067-.216-.048-.655-.066-1.023-.242-1.42-.675-2.82-1.382-4.205-2.13-.203-.105-.427-.58-.35-.732.72-1.397 1.5-2.765 2.29-4.125.052-.094.404-.144.49-.068 1.66 1.448 3.31 2.908 4.93 4.4.19.173.313.578.257.833zm18.64 9.506c-.074.068-.163.13-.258.166-2.673 1-5.447 1.58-8.07 2.056-.504-.103-.82-.12-1.095-.242-.13-.056-.292-.373-.243-.454.64-1.084 1.295-2.155 1.984-3.21.43-.658.837-.735 1.626-.417.293.118.608.204.875.37 1.005.613 2.022 1.024 3.266.896.59-.064 1.218.275 1.828.444.096.03.177.113.267.172-.056.077-.107.163-.174.224zm25.84-22.7c.24.113.52.178.524.257.014.25-.08.5-.13.752l-.716-.3.323-.707zm-4.902-8.515c.02-.342.016-.588.055-.822.01-.077.126-.14.2-.207.106.244.23.48.3.732.01.032-.264.144-.557.3zm5.41-3.894c-.174.195-.97-.555-.903-.96.037-.233.31-.495.544-.614.33-.17.62.187.65.867-.06.17-.106.5-.287.704zm-.738-6.57c-1.003.767-1.84 1.76-2.74 2.662-1.65 1.65-3.222 3.383-4.96 4.932-1.097.975-2.438 1.68-3.678 2.492-.53.345-1.1.643-1.62 1-.496.335-.638.907-.338 1.392.942 1.528 1.886 3.008 3.342 4.187 3.462 2.807 6.803 5.765 10.17 8.69.88.763 1.702 1.6 2.504 2.446.32.34.277.85-.06 1.15-.943.85-1.908 1.68-2.916 2.447-2.38 1.813-4.97 3.224-7.826 4.184-.95.32-1.536.174-2.285-.43-.887-.715-1.38-.49-1.92.58-.05.093-.06.202-.084.308-.12.494-.508.688-.94.625-.278-.04-.638-.25-.758-.49-.39-.75-.652-1.57-1.025-2.33-.277-.565-.614-1.112-1.008-1.6-.17-.21-.613-.41-.82-.33-.358.138-.78.447-.895.783-.166.47-.15 1.038-.088 1.55.075.625.33 1.23.387 1.855.02.214-.277.588-.5.662-.833.277-1.57-.002-1.915-.677-.288-.567-.493-1.177-.768-1.747-.233-.475-.476-.95-.783-1.376-.324-.444-.78-.722-1.368-.528-.565.186-.868.87-.693 1.573.154.62.324 1.232.515 1.84.106.332.098.67-.282.67-.256 0-.64-.232-.745-.46-.442-.958-.75-1.98-1.22-2.92-.155-.308-.66-.616-1.004-.61-.344.004-.768.335-.998.642-.24.32-.283.78-.42 1.178-.095.283-.204.56-.306.838-.294-.284-.672-.52-.86-.864-.304-.556-.47-1.18-.707-1.77-.156-.39-.292-.797-.5-1.16-.74-1.285-1.708-1.25-2.627.076-.397.575-.738.613-.997.084-.372-.763-.705-1.542-1.066-2.31-.134-.29-.245-.605-.452-.833-.194-.215-.5-.462-.75-.455-.225.006-.54.303-.63.544-.15.383-.14.827-.203 1.244-.016.103-.07.2-.11.3-.18-.094-.466-.143-.532-.29-.633-1.45-1.217-2.92-1.842-4.372-.33-.773-.675-1.544-1.102-2.264-.11-.19-.55-.245-.84-.245-.133 0-.363.27-.384.436-.11.843-.162 1.69-.245 2.534-.008.1-.08.195-.124.292-.065-.073-.166-.135-.193-.22-.484-1.507-.977-3.013-1.42-4.532-.147-.498-.124-1.045-.237-1.557-.1-.463-.82-.965-1.224-.802-.36.146-.826.43-.92.75-.24.8-.288 1.655-.427 2.487-.01.062-.115.15-.18.15-.1.003-.24-.02-.293-.093-.187-.248-.422-.498-.503-.784-.445-1.636-.847-3.282-1.273-4.924-.13-.513-.242-1.033-.434-1.523-.31-.785-1.166-.962-1.808-.387-.23.208-.355.565-.608.71-.213.12-.614.14-.81.013-.34-.225-.605-.58-.876-.9-.776-.92-1.233-1.065-1.88.042-.108.18-.236.355-.378.51-.31.334-.65.54-1.024.09-.203-.245-.366-.523-.565-.772-.27-.338-.575-.654-1.063-.446-.462.196-.55.572-.452 1.035.134.62.347 1.244.333 1.864-.006.344-.352.743-.648.992-.154.13-.717.08-.787-.053-.345-.643-.552-1.357-.872-2.016-.182-.375-.537-.788-.98-.548-.304.164-.637.642-.62.962.054.94.29 1.867.406 2.805.016.124-.23.357-.395.41-.14.043-.397-.05-.503-.17-.126-.143-.144-.38-.208-.572-.067-.203-.1-.42-.204-.597-.328-.564-1.276-.624-1.605-.06-.26.444-.452.95-.556 1.45-.107.51.004 1.065-.113 1.567-.06.256-.383.486-.634.657-.442.302-.51-.135-.627-.387-.177-.382-.29-.793-.485-1.163-.092-.17-.397-.416-.46-.38-.253.145-.598.364-.64.6-.176 1.04-.258 2.092-.374 3.137-1.055.882-2.094 1.78-3.172 2.63-.193.15-.54.105-.815.153.01-.186.02-.37.05-.838l4.374-9.26c.586-1.247 1.15-2.51 1.77-3.74.638-1.264.46-2.39-.21-3.617-3.058-5.586-6.05-11.207-9.06-16.82-.198-.368-.348-.763-.497-1.155-.02-.064.053-.187.115-.254.06-.067.18-.158.24-.136.298.105.59.237.88.366 1.553.69 3.13 1.33 4.645 2.09 1.803.9 3.563 1.885 5.317 2.876 2.064 1.168 3.91 2.57 4.875 4.856.12.288.352.53.55.78.922 1.145 2.1 1.098 2.77-.28 1.177-2.43 3-4.373 4.633-6.453.91-1.16 2.04-2.174 3.182-3.113 4.38-3.6 9.3-6.308 14.51-8.51 2.76-1.166 5.682-1.723 8.59-2.298 3.755-.743 7.567-1 11.406-.94 2.077.03 4.02.502 5.797 1.49 3.17 1.765 6.12 3.794 8.166 6.936.98 1.504 2.247 2.818 3.372 4.228.465.58.892 1.186 1.335 1.78.363.486.384.993-.053 1.417-1.438 1.407-2.58 3.09-4.21 4.33zm6.882 4.887c-.025.112-.435.273-.484.226-.893-.874-1.766-1.765-2.613-2.683-.08-.09-.012-.454.11-.568.746-.72 1.516-1.414 2.305-2.087.288-.248.915.072.947.47.054.727.076 1.46.127 2.484-.093.535-.21 1.352-.39 2.155zm31.254 4.778c-1.404-1.435-2.795-2.892-4.732-3.682-.555-.226-1.072-.69-1.458-1.165-1.498-1.837-3.648-1.97-5.73-2.28-.467-.07-.985.54-.96 1.048.006.21.046.42.07.63.51 1.202.095 2.007-1.026 2.6-.838.442-1.62.996-2.428 1.5-.922-.476-1.858-.926-2.76-1.44-.827-.47-1.6-1.04-2.427-1.51-.542-.31-1.127-.66-1.726-.744-.45-.064-1.003.196-1.423.453-.433.266-.287.754-.093 1.138.576 1.13 1.04 2.355 1.798 3.356 1.52 2.01.89 3.738-.413 5.467-.445.592-.938 1.15-1.364 1.754-.305.428-.563.895-.8 1.366-.274.556.203 1.4.813 1.44.416.028.86.066 1.253-.044 1.728-.49 3.448-1 5.152-1.568.702-.23 1.435-.76 2.11-.355.936.554-.02 1.293-.066 1.95-.076 1.066.32 1.687 1.314 1.75 1.282.083 2.487 0 3.646-.76 1.006-.658 1.738-.257 2.143.916.14.395.117.9.37 1.184.226.26.805.504 1.08.388 1.31-.542 2.513-1.46 2.848-2.802.315-1.237.965-1.77 1.995-2.195 1.54-.635 2.564-1.834 3.383-3.234 1.152-1.973 1.016-3.547-.565-5.163zm-2.194 3.948c-.917.867-1.89 1.693-2.933 2.4-1.17.8-2.528 1-3.95.896-1.057-.078-1.83-.427-2.163-1.507-.123-.4-.33-.773-.518-1.15-.043-.085-.16-.135-.245-.2-.116.162-.25.32-.343.494-.173.33-.02.992-.608.866-.26-.056-.446-.615-.604-.975-.207-.473-.3-1.007-.548-1.453-.182-.328-.556-.245-.72.064-.278.524-.6.566-.93.13-.447-.603-.898-.81-1.58-.338-.414.288-1.082.198-1.31.768-.333.842-1.24.827-1.83 1.276l-.047.188c-.034.01-.076.018-.12.02l-.132.43c-.4-.39-.107-.394.133-.43l.033-.106c.043-.04.09-.07.135-.107.213-.86.46-1.71.613-2.584.15-.843.07-1.67-.423-2.443-.18-.277-.836-.565-.314-.955.18-.133.78.176 1.112.395.702.467 1.352 1.008 2.025 1.515.6.45 1.17.5 1.752.114.352-.234.64-.564 1-.778 3.715-2.197 7.446-2.095 11.145.02.538.31 1.003.78 1.43 1.238.722.78.737 1.465-.058 2.212zm-51.953-30.94c-.642.163-1.672.387-2.677.696-.56.17-.898.94-.81 1.577.078.59.443 1.01.976 1.122.82.177 1.677.338 2.507.285 1.65-.11 2.858.562 3.874 1.77.476.57.984 1.112 1.528 1.612.654.603 1.77.14 1.946-.775.26-1.36-.23-2.512-1.056-3.535-1.504-1.868-3.568-2.56-6.285-2.753zm-17.48 22.24c-.012-.642-.088-1.265-.723-1.638-.444-.26-1.135.29-1.342 1.394-.46 2.47-.78 4.965-1.047 6.747.02 1.762-.13 2.835.53 3.77.383.537.88.934 1.57.885.644-.047 1.463-.795 1.524-1.43.07-.724.14-1.484.008-2.19-.46-2.496-.472-5.016-.518-7.537zM70.917 47.01c-.832.084-1.744.96-1.888 1.883-.084.518-.08 1.047-.13 1.754.054.558.065 1.3.214 2.02.17.814 1.286 1.63 2.116 1.663.82.035 1.9-.794 2.047-1.7.218-1.356.27-2.728-.21-4.057-.33-.912-1.336-1.643-2.15-1.56zM45.51 61.448c-.526-.25-1.045.017-1.397.445-.262.32-.512.698-.615 1.088-.31 1.22-.547 2.46-.82 3.726.244.843.388 1.675.733 2.416.375.807 1.645.774 2.114.012.16-.267.363-.55.402-.846.218-1.675.4-3.355.565-5.037.03-.3-.017-.66-.165-.917-.198-.34-.475-.722-.815-.883zm72.45 6.448c-.604-.025-1.12.518-1.158 1.222-.043.808.416 1.493 1.123 1.67.645.165 1.444-.482 1.522-1.23.085-.833-.622-1.625-1.487-1.663z"/></svg>