<svg xmlns="http://www.w3.org/2000/svg" width="128" height="128" viewBox="0 0 128 128"><path d="M108.856 52.062c-.395-1.493-.873-2.968-1.36-4.437-.62-1.87-1.114-3.76-1.024-5.754.037-.847-.2-1.61-.507-2.392-.864-2.205-1.736-4.414-2.436-6.675-1.093-3.544-2.16-7.1-3.028-10.704-.72-2.996-1.56-5.99-1.51-9.13.016-.8-.272-1.62-.51-2.404-.227-.718-.985-1.232-1.68-1.1-1.505.29-3.067.48-4.464 1.057-2.085.855-4.144 1.856-5.612 3.714-.64.81-1.397 1.52-2.08 2.293-.82.933-1.656 1.82-2.74 2.48-1.32.8-2.54 1.772-3.852 2.588-3.377 2.09-6.94 3.627-11.034 3.45-.207-.01-.414.014-.62.032-3.882.315-7.6-.33-11.19-1.838-1.52-.637-3.086-1.167-4.64-1.71-3.11-1.088-6.283-.975-9.468-.46-3.343.547-6.313 1.98-8.896 4.108-2.23 1.835-4.326 3.838-6.42 5.826-.645.612-1.12.593-1.86.197-.89-.476-1.593-.267-2.207.384-.483.512-.576 1.342-1.387 1.584-1.07.325-1.35 1.18-1.363 2.178-.007.723-.005 1.445.01 2.17.042 2.803.714 5.504 1.206 8.245.917 5.082 2.2 10.07 3.7 14.995 2.01 6.61 4.244 13.147 6.292 19.744 1.837 5.917 3.035 11.98 3.866 18.113.303 2.246.514 4.51.813 6.752.274 2.045.59 4.085.928 6.112.334 1.98 1.08 3.732 2.904 4.83.705.42 1.377.913 2.113 1.284.538.273 1.144.518 1.74.57 3.058.26 5.99-.01 8.356-2.307.144-.142.35-.226.5-.363 1.472-1.355 2.64-2.908 3.014-4.924.09-.48.085-1.064-.105-1.5-.948-2.167-1.985-4.298-2.964-6.452-.34-.747-.656-1.51-.9-2.296C48.85 95.212 47.602 90 45.84 84.936c-.387-1.1-.893-2.347.532-3.27.536-.35.53-1.055.633-1.682.24-1.487.977-2.733 2.23-3.58 3.634-2.463 7.446-4.452 12.035-4.195.826.044 1.654-.008 2.48.007 2.308.05 4.487.538 6.486 1.765.875.533 1.838.93 2.782 1.337 3.177 1.37 6.52 1.87 10.264 1.81 2.906.447 5.892-.207 8.555-2.017 2.906-1.97 5.813-3.956 7.883-6.898.296-.42.643-.813 1.008-1.173 1.192-1.176 2.027-2.558 2.737-4.073.873-1.865 1.95-3.63 2.974-5.424.19-.334.51-.62.825-.856 1.582-1.19 2.08-2.763 1.59-4.63zm-65.848 56.144c-.6.34-.858.2-1.032-.535-.508-2.11-.802-4.22-.533-6.41.267-2.192-.57-4.27-.947-6.382-.594-3.328-1.378-6.63-2.107-9.934-.31-1.4-.7-2.786-1.02-4.183-.127-.54-.19-1.093-.274-1.642-.038-.03-.07-.064-.11-.092l-.014-.15c-.422-.295-.48-.748-.442-1.228.007-.085.11-.166.167-.25.053.04.144.082.15.13.048.447.084.895.124 1.346.038.025.058.056.1.08l.023.16c.96.755 1.303 1.905 1.62 2.972 2.057 6.888 4.347 13.713 5.876 20.752.09.4.255.78.35 1.18.58 2.404.355 2.883-1.936 4.19zm58.946-57.326c-.213.904-.526 1.78-.725 2.686-.23 1.043-.65 1.884-1.556 2.562-.907.676-1.603 1.62-1.945 2.735-.593 1.93-1.84 3.467-3.116 4.933-1.83 2.1-3.912 3.968-6.22 5.56-.964.665-1.942 1.114-3.16 1.024-1.027-.08-2.065-.017-3.098-.017-3.723.333-7.173-.424-10.323-2.502-.58-.38-1.33-.514-2.016-.726-2.675-.832-5.402-1.325-8.224-1.146-.3.02-.623-.026-.907-.125-.136-.046-.31-.315-.28-.435.23-.896.55-1.776.748-2.68.13-.593.194-1.25-.376-1.706-.353-.283-1.153-.05-1.66.47-.863.896-1.8 1.792-2.036 3.05-.294 1.583-1.376 2.13-2.72 2.555-1.073.344-2.093.858-3.147 1.265-.16.06-.427.002-.565-.107-.117-.094-.217-.363-.17-.504.41-1.274.865-2.535 1.285-3.81.45-1.366.9-2.74 1.3-4.126.143-.486.172-1.02.182-1.532.01-.607.045-1.305-.652-1.588-.608-.245-1.25-.075-1.755.318-.565.44-1.147.907-1.566 1.478-2.368 3.21-3.712 6.878-4.62 10.726-.108.476-.09 1.07.1 1.507.342.785.246 1.35-.368 1.927-.524.486-.972 1.056-1.46 1.584-.253.272-.648.246-.763-.047-.555-1.438-1.075-2.89-1.664-4.32-.334-.81-.348-1.6-.1-2.414.65-2.173 1.31-4.342 1.965-6.508.236-.79.532-1.566.703-2.368.114-.533-.12-1.02-.633-1.293-.512-.276-1.084-.195-1.43.185-.682.76-1.29 1.594-1.855 2.445-.398.598-.655 1.284-1.013 1.908-.085.146-.328.277-.498.277-.167.003-.415-.128-.487-.273-.38-.738-.696-1.51-.497-2.366.534-2.31 1.017-4.63 1.646-6.91.687-2.48 1.52-4.916 2.277-7.377.187-.608-.46-1.22-1.11-1.053-.39.102-.855.2-1.115.464-.645.66-1.277 1.364-1.75 2.154-1.173 1.94-2.33 3.9-2.816 6.162-.02.09-.134.243-.166.235-.193-.057-.452-.1-.543-.242-.737-1.15-1.223-2.38-1.012-3.787.123-.815.19-1.64.356-2.444.384-1.813.86-3.608 1.21-5.427.21-1.11.305-2.246.363-3.374.032-.677-.62-1.38-1.285-1.58-1.465-.435-2.733.05-3.4 1.38-.364.735-.596 1.536-.922 2.29-.064.15-.29.23-.442.34-.087-.18-.262-.37-.252-.547.032-.71-.034-1.483.22-2.12.577-1.437 1.307-2.843 2.484-3.885 2.556-2.256 5.224-4.373 8.356-5.818 1.613-.747 3.26-1.152 5.072-1.123 3.982.06 3.99-.013 7.81 1.442 2.505.95 4.957 2.047 7.59 2.612.607.13 1.215.32 1.823.33 3.406.067 6.823.257 10.22.076 3.02-.16 5.818-1.408 8.445-2.834 2.348-1.277 4.527-2.865 6.742-4.364.675-.456 1.248-1.074 1.837-1.648 1.326-1.3 2.628-2.63 3.96-3.928.365-.352.794-.648 1.215-.943.317-.227.927.017.99.393.086.502.18 1.012.193 1.52.102 4.574 1.018 9.008 2.375 13.352.733 2.35 1.525 4.687 2.432 6.976 1.26 3.19 1.707 6.577 2.567 9.86.096.38.03.827-.06 1.217z"/></svg>