<svg xmlns="http://www.w3.org/2000/svg" width="128" height="128" viewBox="0 0 128 128"><path d="M118.347 45.125c-.006-.578-.06-1.252-.352-1.714-.885-1.383-1.62-2.96-3.42-3.463-1.113-.31-1.46-1.138-1.388-2.192.134-2.018.224-4.04.47-6.044.13-1.09.173-2.113-.196-3.164-.483-1.408-.826-1.724-2.244-1.863-6.53-.634-13.09-.558-19.637-.708-6.075-.142-12.158.055-18.236.215-5.12.132-10.233.42-15.35.664-.706.034-1.405.25-2.113.305-1.17.094-2.35.126-3.52.18-.53-.916-1.13-1.8-1.57-2.758-1.577-3.403-4.31-4.922-7.95-5.045-.477-.02-.954-.056-1.427-.075-2.14-.088-4.282-.188-6.42-.25-.47-.016-.942.08-1.41.152-4.575.725-9.087 1.892-13.77 1.9-1.054 0-2.12.303-3.168.53-2.877.627-3.98 1.984-4.113 4.926-.03.707-.013 1.467-.266 2.102-.55 1.38-.5 2.8-.5 4.224-.003 6.792.082 13.587-.027 20.377-.06 3.72.594 7.35 1.034 11 .486 4.012 1.207 7.988 1.077 12.065-.075 2.373.16 4.757.31 7.133.095 1.423.384 2.834.44 4.258.103 2.734.302 5.454.515 8.18.22 2.93 1.096 5.57 2.24 8.204.405.932 1.013 1.562 1.837 2.092 2.172 1.397 4.586 2.025 7.11 2.062 4.41.064 8.82.09 13.227-.09 6.545-.267 13.085-.693 19.644-.606 2.144.027 4.29-.08 6.432-.146.834-.023 1.71.032 2.49-.19 1.996-.57 4.016-.47 6.038-.476 3.337-.008 6.673-.016 10.013.002.95.01 1.955-.083 2.834.197 1.52.48 3.05.45 4.597.533 1.186.06 2.38.128 3.556.272 4.984.613 9.98.657 14.99.466 1.18-.043 2.023-.523 2.79-1.347 3.18-3.442 3.68-7.59 3.202-12-.08-.734-.786-1.12-1.585-1.033-.905.092-1.612.537-2.078 1.243-1.17 1.768-2.635 3.367-2.84 5.67-.102 1.14-.862 1.58-2.002 1.624-4.648.19-9.243-.65-13.877-.78-.237-.004-.484-.044-.702-.127-1.494-.59-3.044-.34-4.59-.366-4.86-.077-9.756.637-14.575-.553-.34-.085-.717-.056-1.07-.027-1.185.106-2.366.298-3.553.34-1.168.04-2.343.466-3.517-.088-1.3-.62-2.14.793-3.307.825-.475.014-.952.05-1.425.064-2.98.066-5.957.13-8.936.19-.354.005-.712-.05-1.065-.082-.462-.05-.753-.623-.526-1.077 1.28-2.554 2.712-5.042 3.825-7.67 1.585-3.73 3.325-7.36 5.57-10.747.154-.235.16-.773-.002-.96-.288-.33-.824-.752-1.148-.676-.777.187-1.654.475-2.193 1.016-.907.917-1.658 2.02-2.338 3.125-1.186 1.925-2.228 3.936-3.4 5.867-1.725 2.848-3.747 5.543-5.192 8.523-.97 1.995-2.23 2.87-4.278 2.99-.592.038-1.18.145-1.774.2-3.504.332-2.842-.228-1.946-2.423.717-1.76 1.5-3.507 2.425-5.166 1.74-3.12 3.613-6.16 5.402-9.253.287-.5.49-1.074.624-1.64.257-1.078-.64-1.906-1.68-1.573-.444.143-.932.314-1.26.622-.947.898-1.913 1.803-2.72 2.825-3.045 3.844-5.575 8.01-7.723 12.417-.533 1.086-.946 2.173-.402 3.424.252.577-.213.84-.725.868-.953.05-1.91.075-2.86.066-2.08-.017-2.106-.11-1.124-2.153.46-.96.82-1.972 1.223-2.96 1.964-4.854 3.9-9.718 5.914-14.55.685-1.638 1.58-3.19 2.38-4.776.32-.634.72-1.24.96-1.906.098-.28-.003-.8-.21-.98-.327-.282-.846-.547-1.244-.5-1.112.13-1.928.856-2.667 1.66-2.04 2.21-3.64 4.732-4.89 7.44-1.548 3.348-2.99 6.747-4.31 10.19-.718 1.874-1.568 3.74-1.71 5.803-.022.324-.155.643-.236.964-.344-.296-.807-.527-1.004-.9-.565-1.067-.867-2.235-.776-3.445.048-.57.128-1.267.474-1.657 1.08-1.222 1.353-2.74 1.878-4.192 2.6-7.15 4.56-14.527 7.833-21.43.35-.734.49-1.577.65-2.39.117-.596.032-1.24-.62-1.492-.596-.23-1.185 0-1.642.43-.955.893-1.887 1.793-2.49 3.003-.955 1.917-2 3.788-3.005 5.68-.207.388-.333.856-.89.85 0 .02.002.038 0 .06l-.068.072c-.023.284-.038.566-.08.846-.013.102-.114.188-.175.28-.088-.177-.29-.41-.24-.518.11-.228.312-.41.494-.605l.01-.125c.025.002.037-.01.06-.008 0-.57-.11-1.178.054-1.698 1.775-5.525 3.43-11.1 5.856-16.395.343-.753.68-1.516.928-2.305.237-.765-.515-1.632-1.35-1.743-1.175-.158-2.07.31-2.85 1.125-.246.256-.723.71-.77.674-.487-.395-.078-.813.065-1.222.607-1.79 1.23-3.58 1.85-5.367.113-.334.255-.66.34-1.006.326-1.312-.633-2.277-2.042-2.157-1.056.09-1.78.66-2.315 1.472-1.11 1.69-2.02 3.484-2.645 5.42-.435 1.353-.924 2.69-1.45 4.01-.093.23-.417.37-.666.54v.123c-.047.013-.095.02-.14.032l-.205.322c.01-.09-.01-.213.04-.25.043-.038.102-.056.164-.07.02-.036.042-.072.065-.107.02-.02.05-.035.075-.052.048-1.858.064-3.714.16-5.566.085-1.657.363-3.31.395-4.966.093-4.885.102-9.77.156-14.656.01-.832.05-1.667.14-2.496.105-.946.645-1.42 1.685-1.458 2.976-.11 5.948-.164 8.896-.717 1.747-.33 3.536-.503 5.313-.604 2.02-.112 4.053-.107 6.075-.078 2.497.033 4.313 1.105 5.2 3.55.367 1.007.886 1.953 1.262 2.953.505 1.337.995 2.68 1.376 4.054.274.98.834 1.643 1.61 2.264 1.743 1.408 3.7 2.085 5.92 2.046 5.836-.105 11.668-.117 17.505-.416 6.777-.348 13.587-.12 20.38-.12.71 0 1.416.166 2.125.252 4.977.597 9.605 2.637 14.523 3.53 2.117.385 2.41 1.054 2.354 3.303-.017.593-.01 1.2-.123 1.78-.856 4.398.157 8.792.006 13.19-.02.64.37 1.06.96 1.364 2.677 1.392 3.928.712 4.25-2.353.037-.358.06-.712.06-1.073-.01-5.124-.012-10.25-.052-15.375zm-98.59 36.342c.157-.535.577-.923 1.185-1.003.002-.03 0-.062.003-.093h.11l.236-.523c.34.444.11.523-.235.525-.01.026-.02.052-.034.076-.027.003-.05.015-.074.02-.02.532.004 1.078-.1 1.597-.095.5-.842.94-.93.704-.152-.406-.266-.91-.158-1.3zm87.827-44.294c-.043.57-.34.747-.97.572-2.058-.582-4.13-1.118-6.16-1.773-1.852-.6-3.73-.664-5.646-.653-5.363.033-10.725.067-16.087-.004-2.61-.037-5.217-.324-7.827-.463-1.07-.06-2.144-.035-3.217-.043-3.81-.014-7.624-.016-11.44-.05-1.26-.01-1.633-.302-2.047-1.552-.18-.56-.306-1.154-.34-1.74-.03-.513.32-.863.82-1.006.23-.067.47-.1.707-.11 4.277-.236 8.555-.462 13.082-.702 2.017.15 4.27.35 6.522.47 1.903.104 3.81.136 5.714.16 2.86.035 5.72.03 8.58.054 4.054.037 8.06.616 12.068 1.134.94.117 1.894.14 2.844.176.95.035 1.91-.014 2.856.053.448.032.923.166.864.847-.128 1.54-.21 3.083-.32 4.627zm-26.342 39.34c-1.664 1.527-3.314 3.07-4.93 4.65-1.193 1.158-2.363 2.357-3.484 3.588-1.478 1.626-1.635 4.113.088 6.213 1.413 1.717 3.708 2.03 5.797.734.893-.555 1.667-1.323 2.432-2.06.768-.74 1.333-1.75 2.202-2.326 1.61-1.08 2.883-2.474 4.23-3.82.584-.583 1.237-1.132 1.952-1.53.326-.18.934-.063 1.32.116.408.192.737.595 1.05.947 2.61 2.94 5.23 5.867 7.798 8.84.785.912 1.56 1.78 2.657 2.335 2.457 1.248 5.167.305 6.226-2.23.275-.65.355-1.392.656-2.032.47-1 .288-1.884-.384-2.648-2.347-2.683-4.02-5.904-6.73-8.296-1.16-1.023-2.22-2.154-3.324-3.234-.395-.387-.48-.832-.085-1.235.99-1.03 2.01-2.03 3.026-3.035 1.187-1.173 2.42-2.298 3.557-3.52 1.425-1.538 2.224-3.366 2.116-6.318-.064-.262-.256-1.312-.614-2.306-.134-.38-.615-.81-1.004-.892-2.35-.504-4.725-.22-6.23 1.675-1.563 1.968-3.48 3.573-5.05 5.504-3.207 3.94-3.175 3.798-6.752.374-.174-.162-.346-.33-.512-.5-1.638-1.727-3.307-3.43-4.914-5.18-2.026-2.206-4.415-2.582-7.156-1.622-.88.305-1.385.9-1.704 1.688-.523 1.293-.533 2.667.363 3.73 2.365 2.798 4.137 6.067 7.254 8.27 2.526 1.786 2.383 2.066.145 4.128z"/></svg>