<svg xmlns="http://www.w3.org/2000/svg" width="128" height="128" viewBox="0 0 128 128"><path d="M111.595 95.97c-1.342.314-2.41.974-2.86 2.366-.257.787-.473 1.585-.72 2.376-.335 1.058-.777 1.498-1.697 1.504-2.248.01-4.565.294-6.736-.13-3.267-.637-6.648-.056-9.85-1.134-.427-.144-.94-.023-1.412-.023-3.555.03-7.115-.02-10.663.12-2.155.09-4.208-.576-6.31-.614-2.232-.038-4.468.267-6.703.422-1.175.08-2.392-.012-3.52.27-1.525.385-3.042.385-4.58.417-1.777.038-3.55.13-5.327.16-.58.006-1.163-.08-1.734-.196-.15-.03-.38-.363-.344-.497.11-.448.297-.885.502-1.306 1.208-2.437 2.507-4.832 3.63-7.31 1.56-3.446 3.072-6.913 5.275-10.022.286-.4.346-.956-.048-1.3-.33-.278-.854-.556-1.236-.492-1.205.206-2.2.866-2.885 1.904-.65.988-1.273 1.998-1.878 3.014-3.035 5.08-6.05 10.17-9.106 15.244-.22.366-.63.81-1.008.864-1.985.287-3.985.476-5.983.664-.538.05-.747-.35-.544-.936 1.13-3.264 2.774-6.278 4.466-9.265 1.227-2.157 2.54-4.266 3.76-6.427.34-.6.572-1.286.737-1.963.213-.88-.576-1.525-1.515-1.415-.9.105-1.515.61-2.093 1.22-3.19 3.378-5.837 7.133-7.98 11.253-1.137 2.195-2.664 4.254-2.095 6.97.03.15-.448.538-.725.577-.697.107-1.42.132-2.123.094-.907-.05-1.893.292-2.674-.476.38-.728.768-1.45 1.13-2.187.212-.422.396-.864.564-1.305.837-2.208 1.6-4.444 2.51-6.624 2.095-5.014 3.77-10.222 6.784-14.817.128-.193.26-.445.237-.655-.048-.442-.07-1.007-.343-1.272-.277-.264-.935-.422-1.267-.274-.843.382-1.78.81-2.347 1.5-1.645 2.006-3.31 4.02-4.397 6.43-.683 1.507-1.487 2.96-2.123 4.49-1.78 4.244-3.762 8.42-4.512 13.025-.023.15-.286.395-.378.37-.207-.055-.483-.216-.55-.398-.363-.994-.755-1.987-.98-3.014-.23-1.058-.148-2.04.777-2.92.555-.53.825-1.416 1.088-2.188 1.303-3.8 2.525-7.63 3.85-11.42 1.092-3.12 2.278-6.206 3.446-9.298.415-1.104.986-2.155 1.336-3.28.274-.88.54-1.885-.294-2.657-.478-.443-1.568-.017-2.425.977-.61.713-1.195 1.475-1.667 2.285-.717 1.222-1.327 2.507-1.986 3.763-.77 1.466-1.547 2.927-2.325 4.384-.04.065-.143.096-.21.142-.05-.103-.115-.21-.14-.32-.026-.112-.043-.245-.01-.354 1.957-6.444 3.756-12.945 6.644-19.065.304-.642.64-1.27.873-1.933.338-.96-.352-2.037-1.355-2.033-.68.003-1.386.166-2.03.404-.492.185-.916.556-1.36.863 0 .053 0 .11-.005.163-.066.013-.134.022-.2.035l-.208.257c.03-.074.037-.186.092-.22.033-.02.074-.027.114-.035.036-.043.07-.09.108-.13l.1-.07c.016-.534-.033-1.09.124-1.58.54-1.685 1.182-3.334 1.764-5.005.33-.953.166-1.973-.352-2.31-.768-.5-1.66-.474-2.373-.09-.692.373-1.364.994-1.763 1.667-.72 1.216-1.284 2.533-1.814 3.844-.715 1.753-1.338 3.54-2.005 5.313-.08.214-.19.417-.316.614-.032.056-.183.1-.227.066-.09-.064-.207-.18-.207-.277.028-1.3-.112-2.635.152-3.89.512-2.463.496-4.932.512-7.42.026-4.264.066-8.53.136-12.79.02-1.177.114-2.362.285-3.526.16-1.075.578-1.393 1.69-1.4 2.847-.014 5.67-.183 8.464-.81 3.38-.756 6.826-.625 10.257-.614 1.17.003 2.336.31 3.51.437.914.096 1.548.613 1.99 1.333.555.902 1.084 1.835 1.493 2.81.686 1.636 1.394 3.28 1.864 4.98.74 2.7 2.486 4.22 5.108 4.822 1.023.235 2.092.395 3.137.384 5.682-.05 11.36-.03 17.045-.42 4.84-.33 9.714-.144 14.57-.204 4.158-.05 8.25.23 12.312 1.28 3.54.913 6.955 2.278 10.577 2.885 1.1.185 1.62.9 1.496 2.08-.267 2.534.47 4.927.798 7.377.064.467.184.93.34 1.373.244.672 1.558 1.355 2.383 1.237.723-.105.856-.768 1.008-1.306.224-.79.434-1.61.46-2.424.072-2.486.005-4.976.087-7.46.06-1.676-.644-3.004-1.73-4.135-.55-.572-1.29-1.034-2.028-1.34-1.056-.437-1.436-1.17-1.36-2.22.13-1.765.204-3.54.445-5.294.196-1.433.274-2.8-.24-4.195-.32-.866-.766-1.38-1.74-1.47-6.612-.615-13.254-.59-19.877-.726-6.394-.133-12.797.117-19.196.203-1.778.03-3.578-.112-5.328.13-4.34.59-8.766.17-13.08 1.12-1.378.306-1.535.06-2.178-1.204-.477-.95-.995-1.88-1.5-2.816-1.3-2.427-3.48-3.445-6.08-3.74-1.058-.116-2.132-.148-3.196-.174-1.42-.035-2.848.053-4.264-.06-2.15-.172-4.238.113-6.323.566-2.543.55-5.065 1.247-7.63 1.58-2.14.28-4.196.382-5.724 2.232-.398.482-1.288.533-1.907.866-.396.208-.838.494-1.04.865-1.25 2.31-2.074 4.702-2.026 7.424.112 6.397.11 12.793.032 19.188-.047 3.81.533 7.533.995 11.288.51 4.105 1.33 8.18 1.078 12.357-.097 1.533-.22 3.132.093 4.608.624 2.937.487 5.892.673 8.84.166 2.717.33 5.44.715 8.127.232 1.62.828 3.196 1.33 4.77.905 2.834 2.818 4.478 5.763 5.147 1.513.34 2.995.693 4.543.677 4.858-.056 9.726.07 14.57-.24 5.917-.383 11.834-.37 17.754-.486 3.543-.072 7.11.112 10.612-.72.677-.157 1.415-.08 2.126-.08 2.015-.012 4.03-.037 6.044.003 3.536.073 7.1-.34 10.595.606.67.18 1.418.068 2.126.1.95.036 1.917-.032 2.838.14 3.755.686 7.552.612 11.337.714 1.656.043 3.317-.05 4.97-.165.56-.04 1.228-.205 1.627-.56 1.425-1.264 2.677-2.696 3.218-4.583.352-1.25.647-2.515.917-3.788.427-2.01-1.088-3.535-3.025-3.083zm-58.24-65.386c.23-.064.47-.098.704-.112 4.25-.224 8.506-.446 13.182-.688 1.83.136 4.067.336 6.308.456 1.894.104 3.788.14 5.684.16 2.844.036 5.688.036 8.528.053 4.032.032 8.015.624 12 1.123 1.173.143 2.36.128 3.54.184.825.04 1.658.02 2.47.147.246.037.63.47.615.702-.113 1.645-.3 3.29-.5 4.93-.022.14-.353.37-.502.346-.582-.096-1.152-.264-1.72-.43-1.473-.433-2.956-.832-4.408-1.328-2.06-.705-4.174-.73-6.317-.716-5.685.034-11.38.207-17.056-.072-6.862-.336-13.72-.437-20.587-.476-.354 0-.725.017-1.053-.082-.324-.094-.77-.26-.87-.512-.353-.866-.64-1.773-.82-2.69-.09-.483.292-.864.8-1zM18.923 82.272c-.107-.27-.405-.69-.306-.835.382-.567.89-1.05 1.36-1.555.05-.056.204-.1.244-.067.087.068.198.228.173.288-.33.73-.677 1.45-1.04 2.162-.02.045-.218.006-.43.006zm95.303-12.2c-.537-.346-1.355-.27-2.04-.375-.956-.14-1.192-.387-1.243-1.358-.01-.117-.01-.237-.01-.356.048-2.368.048-4.736.148-7.104.09-1.98-2.14-5.658-4.01-6.17-1.92-.524-3.86-1.12-5.915-.66-.923.207-1.867.4-2.805.423-2.79.075-4.607 1.745-5.98 3.845-1.284 1.958-2.433 4.043-2.396 6.564.02 1.284-.27 2.58-.41 3.872-.11.998-.34 1.294-1.234 1.404-.704.09-1.416.123-2.123.203-1.6.186-2.575 1.094-2.963 2.637-.617 2.432-.82 4.89-.6 7.397.196 2.238.382 4.483.416 6.726.047 3.447-.01 3.447 1.763 6.2.658 1.024 1.443 1.856 2.733 2.076.693.117 1.365.363 2.056.512 2.912.625 5.864.75 8.576.672 1.442 0 2.632-.06 3.81.015 1.708.11 3.294-.186 4.794-1.01.518-.282 1.085-.47 1.62-.72 2.79-1.294 4.692-3.53 6.277-6.06.217-.347.316-.965.155-1.31-.363-.766-.143-1.302.242-1.96 1.395-2.39 2.195-4.957 2.103-7.764-.025-.824.033-1.657.074-2.483.196-3.868.177-3.13-3.04-5.216zM95.232 66.29c.107-2.377.83-4.624 1.773-6.805.416-.964 1.178-1.438 2.12-1.698.338-.094.69-.156 1.04-.18 2.913-.202 4.94 1.128 5.023 4.502.028 1.063.003 2.127.003 3.19 0 .944.02 1.89-.005 2.834-.032 1.252-.35 1.606-1.653 1.845-1.764.32-3.506.06-5.28-.1-3.585-.322-3.167-.354-3.018-3.59zM112.2 79.794c-.437 1.62-.587 3.243-.594 4.89-.004 1.39-.563 2.525-1.422 3.533-.69.808-1.448 1.553-2.195 2.308-.6.608-1.25 1.01-2.204.786-.548-.124-1.165-.017-1.742.06-3.42.46-6.843.338-10.26.088-3.732-.27-5.994-3.11-5.51-6.78.388-2.908.956-5.79 1.11-8.73.04-.737.606-1.38 1.306-1.47.7-.088 1.41-.096 2.115-.1 2.126-.012 4.252-.006 6.315-.006 4.075.278 8.077.543 12.077.82.74.055 1.146.424 1.146 1.083.007 1.18.157 2.416-.144 3.522zm-11.944-2.917c-.23.034-.457.126-.683.192-1.82.524-2.728 1.95-2.236 3.763.175.64.653 1.248 1.133 1.734.57.582.78 1.136.416 1.864-.02.127-.053.243-.058.364-.048 1.112.48 1.737 1.618 1.91 1.1.163 1.82-.334 1.897-1.54.1-1.557.453-2.99 1.163-4.392.587-1.163.192-2.317-.626-3.29-.713-.846-1.675-.74-2.624-.607z"/></svg>