<svg xmlns="http://www.w3.org/2000/svg" width="128" height="128" viewBox="0 0 128 128"><path d="M123.11 98.272c-1.444-7.296-4.075-14.23-6.515-21.218-.836-2.397-1.754-4.742-2.342-7.232-1.355-5.71-3.488-11.18-5.378-16.725-2.14-6.278-4.885-12.338-6.667-18.743-.207-.742-.478-1.474-.796-2.178-1.42-3.133-2.577-6.347-3.34-9.707-.145-.64-.396-1.276-.71-1.85-.7-1.267-1.953-1.767-3.365-1.225-2.373.91-4.78 1.78-7.03 2.94-4.226 2.178-8.412 4.448-12.223 7.34-.867.656-1.93 1.053-2.904 1.57-.795-.956-.245-2.1-.444-3.14-.565-2.957-.398-5.954-.496-8.938-.046-1.33-.007-2.66-.078-3.986-.035-.65-.162-1.316-.378-1.932-.368-1.055-1.26-1.763-2.29-1.537-1.588.35-3.063-.27-4.6-.19-2.76.148-5.524.334-8.286.31-2.76-.03-5.515-.354-8.277-.432-1.54-.043-3.105.064-4.636.267-1.71.226-2.733 1.368-2.895 3.115-.174 1.87-.337 3.75-.35 5.628-.055 11.298-.14 22.597-.06 33.894.03 4.754.417 9.508.655 14.26.032.662.145 1.32.203 1.982.28 3.195.65 6.385.804 9.587.2 4.2.116 8.4.67 12.593.332 2.51.223 5.088.176 7.634-.05 2.536.486 5.03.226 7.594-.267 2.65 1.472 4.42 4.132 4.556.77.037 1.58.093 2.317-.08 2.847-.66 5.73-.566 8.598-.476 3.137.098 6.164-.416 9.153-1.298.846-.25 1.704-.493 2.576-.624.976-.147 1.994-.06 2.957-.26 1.234-.26 1.27-1.778 2.187-2.37 1.247-.8 1.313-1.93 1.153-3.202-.34-2.743-.717-5.483-.59-8.264.074-1.66-.028-3.325.02-4.986.156-5.33-.546-10.607-.95-15.902-.164-2.205-.28-4.43-.687-6.596-.48-2.53-.515-5.056-.506-7.603.013-2.326.224-4.694-.128-6.97-.495-3.202-.22-6.41-.523-9.087 0-1.4-.006-2.287 0-3.173.012-1.552.022-3.102.057-4.65.004-.204.15-.402.23-.603.25.21.584.37.723.637.2.38.27.83.373 1.26 1.888 7.513 4.032 14.954 6.805 22.184 1.747 4.543 3.534 9.064 4.924 13.73.915 3.07 2.062 6.1 2.666 9.234.864 4.463 2.037 8.82 3.375 13.154 1.01 3.272 2.08 6.552 2.72 9.906.554 2.908 2.026 5.36 3.194 7.955.802 1.786 2.66 2.268 4.53 1.55 1.03-.396 2-.944 3.003-1.4 1.912-.865 3.797-1.81 5.757-2.55 2.79-1.053 5.636-1.965 8.467-2.91 1.387-.462 2.58-1.217 3.712-2.122 1.34-1.073 1.71-2.6 1.71-4.133 0-1.53-.32-3.075-.624-4.592zm-53.62 6.34c-.06.818-.214.837-1.302.978-3.632.47-7.28.31-10.923.41-2.293.06-4.574.654-6.86 1.018-.98.156-1.957.35-2.943.48-.14.02-.33-.21-.46-.357-.06-.065-.042-.21-.044-.32-.02-2.988.075-5.98-.093-8.96-.292-5.187-.753-10.364-1.13-15.544-.074-.994-.045-1.995-.116-2.987-.16-2.204-.356-4.406-.537-6.608-.036-.44-.087-.88-.11-1.322-.283-5.97-.526-11.94-.858-17.905-.19-3.424-.517-6.837-.794-10.255-.114-1.43-.35-2.86-.365-4.292-.068-6.865-.075-13.73-.117-20.597-.015-1.693.49-1.672 1.695-1.954 1.065-.247 2.192-.27 3.294-.288 3.543-.06 7.088-.06 10.632-.1 2.317-.027 4.645.138 6.937-.435.416-.104.882-.04 1.32-.004.507.042.762.38.814.863.037.33.044.663.044.994.003 4.872.002 9.744.002 14.616h-.007c0 3.986-.04 7.974.015 11.96.022 1.762.255 3.52.35 5.285.087 1.658.163 3.317.155 4.977-.023 4.096.055 8.173.555 12.258.5 4.055.693 8.156.885 12.24.26 5.526.49 11.054.53 16.582.027 3.087-.35 6.18-.577 9.27zm48.326-.32c-3.8 2.09-7.88 3.488-11.975 4.846-.847.28-1.427-.06-1.95-.79-.352-.49-1.074-.41-1.414.05-.452.616-.825 1.29-1.275 1.908-.097.14-.39.23-.56.19-.172-.04-.417-.26-.43-.416-.033-.54-.08-1.112.055-1.623.25-.96.69-1.877.914-2.842.077-.338-.166-.84-.415-1.144-.347-.42-.82-.186-1.165.085-.422.333-.9.435-1.06-.1-.86-2.842-2.017-5.635-1.798-8.724.147-1.204.3-2.406.442-3.613.107-.907-.38-1.275-1.408-1.08-.213.044-.573.19-.615.124-.17-.257-.363-.596-.326-.88.273-2.08.608-4.153.907-6.23.143-.983.274-1.97.355-2.96.048-.575-.432-1.16-.913-1.206-.61-.06-1.05.24-1.386.723-.064.09-.096.198-.153.292-.418.7-.12 1.834-1.273 2.085-.49-.83-.284-1.73-.22-2.598.083-1.1.252-2.195.393-3.29.056-.438.163-.872.2-1.313.054-.66.115-1.344-.643-1.707-.55-.262-1.035.005-1.532.885-.216.385-.378.8-.555 1.203-.144.316-.305.34-.45.055-.25-.49-.53-.974-.707-1.493-2.272-6.7-4.516-13.408-6.805-20.103-.643-1.884-1.354-3.748-2.134-5.58-1.135-2.652-2.025-5.375-2.726-8.173-.46-1.822-1.024-3.616-1.55-5.422-.202-.69-.065-1.243.434-1.81 1.27-1.445 2.853-2.453 4.52-3.324 3.923-2.048 7.873-4.043 11.813-6.056.395-.203.79-.395 1.195-.578.424-.193.96.03 1.032.48.8 4.85 3.09 9.215 4.478 13.872 1.42 4.768 3.013 9.488 4.333 14.283 1.38 5.024 3.252 9.873 4.908 14.798 1.9 5.664 3.677 11.37 5.743 16.97 1.923 5.217 3.123 10.604 4.353 15.99.196.856.22 1.752.32 2.63.09.77-.317 1.242-.948 1.588zM36.99 95.44c-.04-4.208-.02-8.417-.06-12.62-.012-1.328.03-2.688-.228-3.974-.706-3.488-.693-7.042-.91-10.556-.325-5.295-.17-10.622-.206-15.934-.015-1.992-.002-3.983-.002-5.977h.1c0-5.424-.002-10.847 0-16.27.003-2.214.048-4.43.015-6.642-.02-1.272-.55-1.897-1.723-2.052-2.734-.363-5.465-.855-8.235-.18-.736.182-1.54.112-2.315.115-2.214.01-4.43.048-6.642-.02-2.123-.066-4.178.256-6.216.785-1.174.305-1.616.853-1.714 2.11-.222 2.864-.43 5.73-.66 8.592-.144 1.76-.442 3.52-.456 5.28-.084 10.516-.106 21.034-.145 31.55-.02 5.313.005 10.625-.077 15.937-.043 2.647-.373 5.29-.41 7.936-.045 3.322-.072 6.63-.574 9.926-.18 1.194-.117 2.43-.125 3.647-.015 1.653.794 2.968 1.862 4.128.277.3.732.558 1.134.61 2.4.3 4.763.865 7.226.717 2.76-.167 5.55.065 8.294-.206 3.28-.322 6.526-.985 9.845-.653.11.01.223.01.334.006.792-.023 1.212-.294 1.42-1.122.656-2.58 1.236-5.204.822-7.86-.377-2.43-.334-4.85-.356-7.28zm-2.91-5.427c-.068 1.318-.352 2.63-.382 3.947-.094 3.99-.11 7.98-.162 11.968-.006.44.04.91-.105 1.31-.083.235-.53.546-.745.496-5.376-1.218-10.798-.434-16.2-.41-.77.002-1.548.11-2.303.255-.462.086-.955.184-1.145-.275-.154-.37-.145-.915.015-1.284.307-.7.815-1.31 1.167-1.994.5-.98.977-1.98 1.386-3 .27-.68-.392-1.296-1.13-1.104-.21.053-.417.157-.598.277-.446.29-.92.31-.917-.293.005-1.547.058-3.104.248-4.64.166-1.35.983-2.448 1.773-3.525.06-.08.253-.17.273-.15.12.124.29.278.296.425.02.775-.036 1.552.004 2.325.075 1.394.71 2.546 1.694 3.506 2.112 2.062 5.704 2.608 8.348 1.282 1.265-.634 2.114-1.7 2.475-2.997.677-2.42.607-4.82-.83-7.03-1.426-2.19-4.065-3.263-6.657-1.962-1.277.643-2.445 1.5-3.644 2.29-.246.165-.37.203-.466-.113-.03-.097-.002-.236.047-.326.216-.385.45-.762.673-1.143.253-.43.28-.928-.177-1.127-.346-.15-.875-.1-1.234.058-.38.17-.64.593-.985.865-.288.227-.52.88-.956.448-.245-.24-.296-.872-.18-1.245.337-1.045.76-2.07 1.23-3.064.564-1.2 1.26-2.34 1.815-3.545.222-.48.264-1.06.314-1.6.015-.17-.16-.42-.32-.53-.157-.106-.436-.16-.6-.09-.296.127-.533.38-.817.545-.493.288-.587 1.2-1.44.917.146-.623.192-1.296.46-1.86.904-1.9 1.903-3.75 2.832-5.634.187-.376.275-.818.318-1.24.017-.168-.173-.424-.338-.523-.163-.096-.518-.143-.612-.043-.75.795-1.448 1.634-2.176 2.448-.128.145-.32.23-.482.344-.07-.207-.198-.413-.206-.62-.233-5.417-.934-10.81-.678-16.25.137-2.876.025-5.76.025-8.64-.075 0-.154 0-.23-.004l.28-16.952c.012-.444.025-.885.054-1.328.16-2.395 1.99-3.622 3.95-3.696 2.103-.08 4.207-.13 6.31-.2 2.432-.083 4.864-.174 7.296-.263.59-.02.977.355 1.01 1.036.22 4.86.81 9.696.72 14.58-.036 1.978.404 3.962.43 5.946.096 7.423.16 14.85.13 22.27-.01 3 .31 5.966.536 8.944.185 2.42.158 4.843.645 7.262.323 1.585.053 3.3-.036 4.954zm-13.728 3.242c.413-.64.875-1.272 1.43-1.78 1.027-.94 2.086-.654 2.578.62.157.406.265.827.33 1.036-.052 2.19-1.477 3.186-3.387 2.6-1.333-.415-1.703-1.31-.95-2.476zm44.024-46.43c.006-2.104.002-4.21.002-6.314h-.083c-.092-3.21-.147-6.42-.29-9.63-.085-1.875-.328-3.744-.464-5.62-.08-1.087-.844-1.772-1.427-2.557-.444-.593-1.175-.494-1.813-.648-3.606-.88-7.265-.57-10.91-.56-.764.003-1.26.48-1.445 1.156-.205.737-.343 1.516-.358 2.275-.075 4.32-.178 8.64-.132 12.957.06 5.324-.378 10.607-.968 15.886-.136 1.222-.133 2.426.34 3.597.32.79.848 1.26 1.708 1.37 3.957.506 7.928.734 11.915.61.443-.012.892-.004 1.323-.082 1.035-.183 1.787-.716 2.338-1.663.774-1.326.946-2.72.64-4.158-.46-2.196-.376-4.404-.37-6.616zm-2.538 8.62c-3.085.187-6.17.356-9.26.51-.708.034-1.087-.298-1.074-.92.02-1.105-.05-2.24.18-3.303.412-1.845.56-3.696.662-5.57.107-1.98.37-3.954.546-5.93.094-1.042.123-1.052 1.127-1.04 1.762.02 3.527.017 5.29-.045.22-.008.59-.416.605-.66.017-.238-.275-.632-.523-.727-.5-.196-1.056-.31-1.597-.328-1.323-.046-2.65-.005-3.98-.035-.298-.006-.718-.123-.543-.555.105-.256.425-.57.678-.597 1.422-.173 2.852-.253 4.278-.402.134-.014.34-.3.336-.45-.004-.158-.217-.428-.363-.444-1.2-.147-2.41-.24-3.617-.36-.917-.09-1.237-.525-1.198-1.6.038-1.07.325-1.395 1.344-1.46.55-.037 1.106-.013 1.657-.048.21-.014.446-.08.61-.203.145-.108.295-.335.278-.494-.017-.183-.19-.473-.335-.5-.857-.174-1.725-.276-2.587-.413-.493-.078-.747-.405-.858-.867-.023-.107-.028-.22-.026-.33.06-4.237-.546-4.173 3.42-3.988 1.11 0 1.885-.016 2.66 0 1.46.033 1.935.588 1.74 2.118-.473 3.634-.48 7.258.06 10.89.19 1.308.202 2.646.22 3.973.043 4.307.465 8.587.915 12.864.053.53-.134.88-.653.91zm-4.22 32.4c-1.292-.41-2.552-.568-3.89-.14-.715.23-1.52.328-2.27.277-1.36-.088-2.06.693-2.496 1.76-1.723 4.21 1.483 9.8 6.534 10.054 2.778.14 5.355-1.912 5.557-4.187.08-.87.288-1.733.346-2.06-.02-3.22-1.28-4.915-3.784-5.708zm.24 7.33c-.287.757-.86 1.272-1.695 1.4-1.547.235-2.852-.18-3.715-1.547-.35-.548-.643-1.166-.79-1.792-.084-.358.046-.97.307-1.173 1.07-.82 2.366-1.182 3.694-1.22 1.71-.054 2.573.957 2.48 3.024-.05.245-.09.806-.28 1.31zm-8.143-16.978c.69-.693 1.437-1.378 1.93-2.205 1.174-1.97 2.24-4.008 3.294-6.046.49-.946.29-1.71-.37-1.954-.556-.203-1.036-.02-1.58.848-1.56 2.507-3.1 5.024-4.573 7.584-.235.41-.107 1.05-.068 1.58.01.146.3.276.522.468.258-.077.648-.08.84-.274zm1.37 5.048c.067.195.204.466.36.508.287.08.663.11.918-.013.273-.128.514-.427.658-.708 1.2-2.352 2.39-4.713 3.55-7.083.134-.273.096-.627.146-1.005-.317-.134-.61-.367-.885-.346-.296.02-.66.212-.846.447-1.797 2.26-3.19 4.743-3.944 7.552-.054.197-.027.444.042.643zm50.586-21.98c-1.28-5.258-2.537-10.52-3.89-15.76-.526-2.025-1.24-4.004-1.964-5.973-.928-2.547-2.795-4.483-4.517-6.49-.33-.385-.944-.526-1.354-.74-.648.208-1.18.364-1.698.548-1.766.627-3.55 1.216-5.29 1.91-3.953 1.575-4.065 1.737-3.152 5.843.096.43.22.86.38 1.27.93 2.365 1.804 4.754 2.828 7.077.896 2.033 1.693 4.056 1.998 6.29.268 1.963.722 3.913 1.617 5.717.49.992.975 1.984 1.452 2.98.89 1.856 1.82 2.375 3.662 1.835 1.696-.495 3.373-1.067 5.01-1.726.84-.34 1.504-.516 2.48-.248 1.52.42 2.8-1.056 2.44-2.533zM97.79 61.2c-.222-.013-.437-.067-1.07-.167-.358.053-1.122.117-1.863.29-.86.204-1.69.513-2.54.748-.81.223-1.322.01-1.605-.72-.64-1.648-1.388-3.276-1.825-4.977-.78-3.02-1.995-5.845-3.302-8.657-1.355-2.904-2.624-5.85-3.91-8.79-.397-.903-.157-1.35.878-1.723.52-.186 1.054-.32 1.583-.47.955-.273 1.925-.502 2.863-.822.826-.28 1.66-1.007 2.413-.913.995.123 1.28 1.387 1.87 2.158.875 1.148 1.5 2.432 1.97 3.808.855 2.51 1.79 4.994 2.68 7.492.17.484-.067.926-.574.91-1.666-.05-2.99.673-4.196 1.708-.396.34-1.032.66-.68 1.272.146.256.784.346 1.183.317 1.443-.102 2.808-.51 4.08-1.23.882-.502.956-.492 1.247.476.757 2.54 1.49 5.085 2.17 7.645.286 1.066-.314 1.716-1.37 1.654zm11.373 26.044c-1.873-.032-3.76-.06-5.62.14-.81.084-1.79.54-2.29 1.155-1.183 1.446-2.23 3.05-1.98 4.96-.155 2.296.86 4 2.295 5.43 1.137 1.135 2.654 1.684 4.248 1.306 1.38-.326 2.74-.86 4.016-1.49 1.804-.89 3.02-2.427 2.91-4.46-.098-1.726-.66-3.44-1.14-5.126-.33-1.153-1.203-1.892-2.44-1.914zm.38 6.07c-.057 1.244-.956 2.263-2.16 2.532-1.13.252-2.54-.294-3.093-1.355-.346-.66-.576-1.425-.665-2.166-.162-1.387.61-2.258 2.013-2.43.542-.066 1.088-.096 1.152-.102.808 0 1.137-.016 1.46.005.723.043 1.22.51 1.26 1.227.043.763.072 1.53.036 2.293zm-80.455-46.4c-.114-.98-.043-1.99-.01-2.986.09-2.652.206-5.304.332-8.496.117-3.326.2-3.185-3.957-4.015-.108-.02-.22-.032-.33-.043-2.425-.18-4.852-.392-7.28-.528-.645-.035-1.316.104-1.95.264-.433.11-.763.46-.716.974.09.984.304 1.967.3 2.95-.033 7.867.4 15.716.86 23.563.072 1.205.133 2.417.3 3.612.287 2.082 1.6 3 3.674 2.814 2.09-.184 4.194-.275 6.293-.347 3.08-.107 2.955.176 2.928-3.164-.04-4.875.126-9.744-.442-14.6zm-9.45-10.612c-.07-.544-.116-1.11-.042-1.646.038-.25.382-.63.61-.645.986-.07 1.982-.03 2.976-.03 4.596.063 3.66-.224 3.132 3.693-.095.72-.232.768-1.1.642-1.2-.174-2.372-.387-3.614-.235-1.09.13-1.81-.633-1.963-1.78zm7.97 24.978c-.086.277-.356.707-.55.71-.982.01-1.964-.096-2.945-.174-.044-.003-.123-.17-.1-.227.413-1.148-.585-1.16-1.17-1.56-.303-.21-.502-.685-.573-1.07-.046-.255.154-.74.363-.823.815-.32 1.685-.5 2.517-.78.17-.057.414-.385.375-.468-.134-.273-.35-.65-.59-.7-.863-.17-1.76-.177-2.625-.35-.235-.048-.54-.453-.557-.71-.028-.4.038-1.033.288-1.177.65-.376 1.43-.517 2.137-.806.16-.066.3-.347.316-.54.013-.156-.152-.45-.273-.473-.538-.1-1.09-.114-1.637-.174-.862-.092-1.033-.258-1.292-1.212-.288-1.054-.013-1.363 1.072-1.523 1.088-.16 2.482.592 3.162-.947-.798-1.13-2.005-.64-3.055-.766-.22-.027-.443-.027-.66-.064-.487-.082-.76-.376-.842-.868-.237-1.424-.055-1.74 1.273-2.176.523-.174 1.056-.325 1.555-.547.15-.067.293-.347.285-.52-.01-.18-.175-.462-.33-.51-.946-.282-1.915-.494-2.863-.775-.14-.043-.233-.307-.3-.487-.03-.078.03-.23.1-.294.826-.747 1.653-1.494 2.915-1.217.213.047.44.037.736.06.367 0 .832-.08 1.246.03.242.063.565.415.58.656.236 3.087.48 6.175.602 9.266.133 3.427-.036 6.87.85 10.236.08.31.084.684-.012.982zM60.1 47.86c-.378-.18-.844-.283-1.26-.258-1.43.085-2.855.224-4.28.373-.43.043-.866.146-1.274.292-.163.06-.337.3-.363.475s.075.442.213.557c.248.203.55.414.855.464.76.128 1.534.163 2.065.213 1.55-.15 2.923.136 4.13-.59.235-.143.47-.524.453-.777-.02-.268-.288-.624-.54-.746zm-5.028-4.39c.65.133 1.293.323 1.95.39.874.088 1.762.125 2.64.088.26-.01.545-.315.752-.544.252-.277-.132-.784-.693-.878-1.086-.18-2.18-.3-2.94-.403-.785 0-1.244-.072-1.666.02-.395.086-.8.282-1.11.54-.343.282.02.573 1.07.788zm4.49 9.3c-1.33-.007-2.66-.012-3.988.042-.292.01-.584.245-.86.408-.07.043-.098.196-.1.3-.002.078.06.223.107.23.875.107 1.745.192 2.615.288l.008-.103c.664 0 1.34.07 1.99-.026.386-.06.78-.32 1.086-.59.3-.26-.08-.55-.854-.554zm30.545-13.167c-.066-.262-.422-.664-.614-.645-1.077.107-2.155.262-3.198.53-.608.156-1.173.527-1.725.858-.13.08-.21.4-.168.574.043.178.24.352.416.45.18.102.416.11.655.165 1.517-.066 2.987-.445 4.37-1.107.19-.092.326-.58.262-.825zm1.35 3.488c-.21-.324-.758-.777-.98-.697-1.42.52-2.793 1.158-4.164 1.795-.125.06-.203.382-.175.56.03.178.196.37.352.478.17.113.402.133.65.21 1.43.047 2.75-.423 3.952-1.223.367-.243.624-.715.365-1.12zm2.268 3.817c-.17-.34-.504-.715-.853-.83-.376-.123-.892-.07-1.27.086-1.087.456-2.148.99-3.2 1.533-.13.067-.225.386-.188.555.038.17.25.314.41.438.075.06.203.053.31.075 1.57.105 2.964-.52 4.356-1.103.224-.097.51-.605.434-.755zm1.78 7.187c-1.382-.277-2.646-.015-3.724.893-.2.17-.32.603-.265.87.058.268.352.522.6.7.158.116.422.086.67.124 1.253.01 2.372-.317 3.097-1.482.21-.336-.018-1.032-.378-1.103z"/></svg>