<svg xmlns="http://www.w3.org/2000/svg" width="128" height="128" viewBox="0 0 128 128"><path d="M109.365 92.625c-.412.168-.885.352-1.16.68-1.09 1.297-2.175 2.613-2.698 4.273-.206.648-.367 1.312-.6 1.95-.26.703-.82 1.158-1.552 1.103-2.595-.18-5.182.146-7.802-.32-2.768-.49-5.656-.262-8.437-.915-.322-.075-.676.01-1.02.016-3.295.03-6.59.078-9.884.078-1.694 0-3.408.187-5.053-.483-.397-.16-.9-.135-1.346-.1-1.13.088-2.255.283-3.388.337-1.003.047-2.105.21-3-.12-1.346-.502-2.047.76-3.133.793-.224.006-.452.06-.677.064-3.41.057-6.816.112-10.22.16-.112.002-.24-.018-.332-.073-.264-.153-.693-.216-.475-.69.237-.513.493-1.02.742-1.53 1.394-2.854 2.79-5.71 4.18-8.57.545-1.12 1.04-2.263 1.612-3.365.73-1.406 1.33-2.88 2.434-4.073.38-.414.257-1.19-.108-1.567-.352-.362-.772-.404-1.246-.29-.91.224-1.728.608-2.27 1.397-.64.936-1.266 1.88-1.84 2.856-.917 1.568-1.742 3.19-2.69 4.736-1.717 2.8-3.496 5.563-5.248 8.34-.59 2.383-2.353 3.088-4.55 3.198-.795.04-1.582.156-2.376.198-1.14.053-1.56-.41-1.17-1.355.687-1.68 1.313-3.4 2.186-4.985 1.752-3.177 3.66-6.272 5.49-9.408.34-.584.692-1.192.87-1.835.1-.37-.006-.956-.255-1.222-.255-.277-.794-.36-1.217-.384-.314-.02-.708.11-.952.31-.874.72-1.815 1.402-2.516 2.272-3.15 3.9-5.82 8.114-7.96 12.658-.35.747-.474 1.483-.515 2.29-.03.528.74 1.08.117 1.482-.427.274-1.08.23-1.632.25-.91.036-1.82.03-2.73-.003-.986-.037-1.074-.204-.716-.975.72-1.54 1.485-3.066 2.103-4.645 2.478-6.336 4.768-12.757 8.206-18.674.17-.29.255-.63.372-.95.165-.462-.312-1.243-.825-1.26-.442-.012-.946-.012-1.312.19-.58.323-1.112.78-1.594 1.25-2.39 2.344-3.99 5.22-5.354 8.233-2.197 4.85-4.34 9.72-5.594 14.93-.02.09-.132.23-.192.226-.095-.01-.226-.096-.27-.19-1.003-2.043-2.052-4.08-.15-6.208.29-.33.452-.793.6-1.22 1.11-3.214 2.25-6.42 3.288-9.658 1.352-4.208 2.747-8.398 4.608-12.42.467-1.014.7-2.14.975-3.23.13-.497-.577-1.042-1.112-1.003-.738.06-1.264.448-1.742.957-1.584 1.67-2.563 3.728-3.66 5.713-.545.99-1.008 2.027-1.53 3.036-.09.172-.292.285-.445.423-.063-.322-.196-.644-.175-.96.02-.33.188-.647.293-.97 1.845-5.718 3.5-11.508 6.157-16.934.355-.726.454-1.53.02-2.287-.303-.54-1.604-.72-2.534-.324-.41.174-.754.5-1.137.743-.163.1-.352.165-.533.248-.048-.21-.193-.445-.14-.62.53-1.61 1.143-3.194 1.625-4.817.22-.74.296-1.555.245-2.323-.02-.324-.497-.787-.85-.88-1.205-.324-2.334.01-2.958 1.11-.89 1.572-1.675 3.212-2.406 4.866-.733 1.653-1.34 3.362-2.012 5.045-.037.093-.165.145-.254.22-.107-.135-.288-.257-.31-.402-.047-.333-.074-.69-.01-1.017.667-3.363.766-6.765.704-10.175-.006-.337-.024-.708.096-1.013.557-1.428.365-2.913.377-4.38.014-1.934-.05-3.865-.04-5.798.006-1.362.058-2.725.132-4.085.05-.918.4-1.26 1.214-1.313.34-.02.683.008 1.024-.017 1.92-.134 3.89-.058 5.754-.467 3.925-.866 7.883-.86 11.854-.906 3.044-.032 5.242 1.1 6.26 4.128.61 1.824 1.377 3.6 1.97 5.43.483 1.482 1.344 2.66 2.64 3.42 1.37.8 2.88 1.263 4.524 1.234 4.772-.08 9.547-.063 14.317-.195 4.197-.114 8.39-.382 12.586-.582l.007.167c2.044 0 4.093.06 6.135-.015 4.493-.153 8.795.86 13.043 2.125 1.633.485 3.265.907 4.918 1.3 3.12.738 3.43.49 3.25 3.956-.02.34-.065.68-.065 1.022-.01 4.09-.02 8.18-.026 12.27 0 .724.224 1.29.928 1.665 2.576 1.368 3.758.846 4.305-1.97.087-.445.108-.908.108-1.36-.004-4.657-.043-9.317-.018-13.98.007-1.08-.313-2.01-.91-2.86-.784-1.12-1.628-2.17-3.01-2.64-.996-.336-1.377-1.164-1.336-2.15.04-1.013.2-2.025.268-3.042.108-1.693.302-3.394.243-5.087-.06-1.58-.83-2.256-2.34-2.322-6.126-.26-12.26-.78-18.38-.664-9.65.18-19.313-.168-28.954.665-1.92.17-3.834.246-5.754.545-3.157.486-2.933.616-4.184-2.046-.194-.41-.437-.798-.64-1.203-1.275-2.613-3.488-3.763-6.264-4.034-.79-.08-1.59-.12-2.382-.14-1.478-.033-2.962.045-4.43-.07-2.294-.187-4.5.162-6.725.656-2.766.62-5.55 1.183-8.355 1.53-1.323.163-2.384.454-3.282 1.46-.44.494-1.053 1.01-1.664 1.127-1.3.248-1.853 1.058-2.375 2.144-.806 1.676-1.26 3.38-1.177 5.25.07 1.585.056 3.18.043 4.77-.01 1.476.136 2.997-.166 4.42-.346 1.62.264 3.12.18 4.702-.14 2.72-.05 5.45-.028 8.177.018 2.27.17 4.514.576 6.772.518 2.898.834 5.845 1.017 8.785.23 3.73.028 7.47.536 11.21.49 3.585.484 7.244.707 10.868.18 2.97.915 5.807 2.082 8.55.716 1.688 1.947 2.794 3.615 3.378 1.824.633 3.68 1.134 5.653 1.097 4.544-.085 9.094 0 13.632-.205 5.22-.24 10.434-.558 15.662-.474.683.01 1.365 0 2.045-.024 3.288-.124 6.592.088 9.84-.683.648-.155 1.355-.093 2.037-.093 3.863-.006 7.727-.017 11.592.01.902.006 1.803.132 2.7.23 1.236.133 2.466.313 3.703.43 1.24.12 2.492.156 3.732.295 4.864.558 9.74.636 14.632.422 1.12-.05 1.923-.53 2.622-1.344 2.6-3.027 3.26-6.64 3.197-10.475-.005-.224-.07-.446-.118-.666-.21-.967-1.166-1.494-2.095-1.113zM52.33 32.043c.144-.132.428-.134.652-.145 4.08-.235 8.152-.46 12.56-.706 1.83.13 3.973.313 6.123.427 1.926.096 3.856.14 5.79.167 2.497.035 4.993.032 7.492.035 4.092.002 8.133.544 12.178 1.1 1.675.226 3.395.127 5.096.19.925.036 1.268.356 1.25 1.203-.023 1.36-.08 2.722-.14 4.083-.023.517-.41.76-.943.6-.762-.228-1.51-.493-2.268-.724-1.087-.326-2.17-.644-3.26-.953-2.09-.596-4.21-.767-6.39-.737-5.447.072-10.9.035-16.35-.025-1.81-.02-3.613-.275-5.42-.38-1.135-.067-2.273-.067-3.407-.073-3.744-.018-7.492-.016-11.237-.046-1.084-.006-1.39-.256-1.725-1.266-.212-.644-.433-1.297-.513-1.96-.032-.246.282-.582.514-.792zm-32.1 49.594c-.06.107-.395.2-.432.155-.136-.155-.245-.367-.272-.574-.145-1.127.6-1.692 1.405-2.21-.01-.05-.01-.097-.02-.146.074-.03.154-.05.225-.085.043-.062.087-.12.13-.18-.032.058-.046.134-.096.165-.01.006-.02.008-.035.014l-.13.18-.075.05c.165.97-.24 1.813-.703 2.63zm98.144-5.648c-.16-1.927-.943-2.67-2.97-3.13-.646-.15-1.353-.015-2.03-.034-2.492-.075-4.985-.128-7.47-.243-2.26-.103-4.513-.318-6.77-.397-1.924-.068-3.852-.014-5.778-.014v.016c-3.285 0-6.573.074-9.853-.033-1.585-.053-2.484.65-3.33 1.858-1.485 2.123-1.408 4.466-1.202 6.848.07.8.77 1.404 1.633 1.466 2.808.188 5.59.702 8.433.555 2.372-.12 4.757-.065 7.133-.01 2.83.064 5.684.015 8.482.37 3.62.46 7.24.077 10.854.3 1.035.066 1.832-.643 1.99-1.54.355-1.99 1.054-3.94.877-6.01zM106.9 78.27c-.066.2-.224.498-.363.513-.284.026-.617-.056-.867-.2-.15-.085-.15-.4-.277-.565-.564-.71-.96-.746-1.63-.13-.24.225-.385.558-.64.756-.095.078-.374-.053-.558-.128-.043-.015-.062-.18-.04-.26.25-.923.56-1.25 1.264-1.302.772-.06 1.546-.112 2.322-.14.524-.017.796.284.84.737-.015.284.018.52-.053.72zm5.083.348c-.196.072-.394.148-.59.223-.09-.05-.232-.084-.255-.156-.222-.72-.444-1.444-.603-2.18-.02-.095.272-.32.46-.396.295-.122.622-.18.94-.23.055-.008.213.186.194.24-.3.82-.53 1.642-.148 2.5z"/></svg>