<svg xmlns="http://www.w3.org/2000/svg" width="128" height="128" viewBox="0 0 128 128"><path d="M115.202 102.458c-.51-.085-1.074-.14-1.563-.01-1.97.507-3.966.33-5.95.298-3.876-.064-7.754-.238-11.63-.24-2.2-.002-4.403.14-6.586.413-4.888.606-9.842.41-14.71 1.24-1.22.207-1.343.103-1.633-1.25-.557-2.626-1.936-4.6-4.357-5.816-.284-.14-.613-.245-.813-.467-.255-.288-.54-.66-.575-1.02-.157-1.665-.176-3.345-.352-5.007-.382-3.583-.39-3.295 2.91-3.31 6.293-.036 12.59-.076 18.883-.155 1.14-.014 2.29-.187 3.424-.366 1.148-.183 2.274-.358 3.424-.023 3.344.98 6.67.506 9.927-.33 2.413-.62 4.27-2.238 5.798-4.147 1.248-1.553 1.312-3.444 1.312-5.378.002-10.176.074-20.352.134-30.53.007-1.362-.015-2.74.177-4.085.46-3.243.263-6.493.247-9.74-.006-1.132-.277-2.297-.615-3.387-.74-2.417-2.43-3.908-4.923-4.304-2.687-.424-5.37-.794-8.118-.744-8.075.14-16.156.155-24.235.2-1.26.01-2.514-.086-3.773-.106-1.27-.02-2.214-.542-2.795-1.688-.19-.375-.377-.753-.6-1.106-1.398-2.21-2.81-4.414-4.21-6.624-1.117-1.766-2.756-2.45-4.797-2.447-2.203.005-4.406-.09-6.608-.132-6.304-.12-12.57.164-18.784 1.335-1.434.27-2.89.448-4.342.6-1.915.204-3.694.756-5.283 1.854-.424.29-.947.587-1.163 1.01-.984 1.968-1.934 4.003-2.044 6.216-.102 2.082.08 4.188.267 6.272.24 2.71.687 5.397.9 8.11.282 3.55.424 7.114.63 10.67.04.734.04 1.473.14 2.198.604 4.365.997 8.74 1.068 13.15.024 1.563.334 3.118.46 4.683.22 2.71.885 5.35 1.085 8.08.33 4.513 1.22 5.558 5.2 7.845.457.26.918.51 1.377.76 1.035.57 2.13.826 3.317.807 2.098-.03 4.197-.003 6.294.038 2.617.05 5.227.088 7.827.57 2.572.48 5.174.846 7.815.69.625-.035 1.26.022 1.884.067 1.31.097 1.7.436 1.807 1.684.212 2.507.386 5.013.57 7.522.034.478-.237.785-.648.962-.478.21-.984.358-1.455.587-2.574 1.23-5.102 2.524-6.24 5.42-.405 1.034-1.237 1.315-2.267 1.317-1.784.004-3.568.06-5.348.08-5.244.06-10.48.292-15.71.7-1.46.113-2.97-.08-4.395.192-2.712.512-5.43.45-8.15.48-1.364.016-2.73-.01-4.093.053-.504.022-1.03.187-1.487.41-.902.442-1.306 1.396-1.104 2.375.177.838.83 1.465 1.756 1.557.83.082 1.674.096 2.514.096 5.875.007 11.75.003 17.626.003v.043c5.98-.064 11.96-.088 17.938-.224 1.747-.038 3.14.215 4.533 1.51 1.345 1.253 3.176 1.995 4.816 2.92.45.252.968.43 1.478.512 2.672.425 5.227-.004 7.633-1.22 2.09-1.056 3.238-2.912 4.037-5.02.39-1.033.34-1.292 1.832-.93.81.196 1.653.374 2.48.37 3.042-.025 6.09.013 9.12-.242 4.506-.38 8.992-.337 13.493-.008 2.08.15 4.19.075 6.275-.06 1.264-.082 2.494-.18 3.75.057.714.134 1.49.227 2.18.076 1.327-.288 2.627-.723 3.91-1.18.35-.13.692-.495.89-.837.907-1.596-.01-3.6-1.78-3.905zM61.04 78.128c-.042-.204-.13-.403-.232-.585-.752-1.346-1.59-1.42-2.727-.283-.582.587-1.17 1.173-1.825 1.675-.19.145-.66.1-.896-.038-.193-.113-.318-.507-.3-.766.032-.51.28-1.02.27-1.523-.023-1.234-1.56-2.05-2.533-1.3-.732.558-1.454 1.264-1.877 2.062-.782 1.48-1.957 1.745-3.423 1.57-.486-.06-.79-.413-.632-.825.3-.782.66-1.542.9-2.342.11-.378.06-.838-.03-1.237-.207-.963-1.36-1.518-2.234-1.04-.88.486-1.705 1.07-2.553 1.613 0 .045-.002.087.004.135l-.153.145c-.07.182-.192.313-.384.362-.043.043-.087.082-.13.123-.038.02-.06.05-.093.072-.003.44.01.885-.516 1.07-.003.04-.01.08-.01.12-.037.012-.065.024-.097.037-.002.45.05.93-.527 1.102l.008.11c-.064.013-.128.026-.187.046l-.142.175c.03-.055.04-.135.085-.16.017-.01.04-.008.058-.015l.108-.13c.027-.006.045-.017.07-.025-.038-.472.003-.907.528-1.1 0-.04 0-.08.003-.12.04-.012.067-.026.102-.038.036-.424.13-.823.516-1.07 0-.057 0-.113.002-.17.087.007.156-.007.222-.024l.384-.363c.028-.07.05-.146.067-.228l.082-.053c-.026-.74.53-1.246.82-1.856.317-.667.116-1.218-.345-1.71-.46-.49-1.01-.74-1.692-.518-.92.295-1.66.855-2.35 1.52-1.225 1.175-2.174 2.552-3.067 3.98-.16.262-.337.54-.564.74-.096.085-.398.05-.517-.043-.14-.11-.3-.395-.25-.512.588-1.347 1.247-2.66 1.82-4.01.363-.862.688-1.753.88-2.663.057-.277-.34-.73-.637-.96-.186-.14-.6-.09-.864.01-.278.108-.528.34-.733.57-.762.865-1.5 1.75-2.244 2.625-.412.482-.928.384-1.227-.178-.31-.588-.42-1.17-.213-1.81.58-1.808 1.344-3.532 2.44-5.087 1.09-1.54 2.226-3.046 3.32-4.584.485-.68 1.06-1.35 1.024-2.245-.018-.38-.174-.834-.43-1.11-.315-.34-.82-.21-1.115.1-1.37 1.444-2.726 2.9-4.042 4.39-.623.703-1.136 1.503-1.728 2.24-.115.143-.47.305-.518.26-.186-.185-.37-.433-.416-.685-.33-1.715-.032-3.276.93-4.79 1.804-2.83 3.556-5.688 5.754-8.245.477-.553.97-1.115 1.328-1.744.597-1.04-.215-2.445-1.43-2.59-1.108-.137-2.1.127-2.875.946-1.438 1.525-2.837 3.085-4.262 4.623-.13.145-.32.24-.48.362-.087-.19-.26-.384-.244-.562.06-.718.037-1.49.31-2.128.442-1.056 1.062-2.044 1.65-3.034 1.347-2.248 2.724-4.48 4.08-6.724.4-.66.598-1.35.118-2.057-.432-.636-1.216-.7-2.276-.28-1.202.476-2.15 1.28-3.05 2.177-.445.437-.917.85-1.408 1.24-.068.052-.373-.05-.435-.157-.097-.17-.103-.4-.106-.606-.07-3.57-.18-7.134-.177-10.702.002-1.13.256-2.276.5-3.395.644-2.997 2.557-5.052 5.23-6.304 1.292-.602 2.804-.778 4.238-1.02 2.475-.418 4.96-.757 7.452-1.086 1.138-.15 2.293-.267 3.445-.273 2.307-.012 4.612.06 6.92.108.524.01 1.068-.017 1.567.11 2.956.747 3.11.22 4.49 3.234.827 1.81 1.814 3.545 2.74 5.31.94 1.786 2.43 2.794 4.37 3.297 1.952.508 3.927.648 5.923.635 5.98-.046 11.963-.107 17.942-.146 2.938-.022 5.874 0 8.814-.01 1.58-.005 3.124.203 4.665.582.882.216 1.184.782 1.38 1.504.11.4.192.826.18 1.237-.06 2.196-.157 4.39-.228 6.59-.085 2.514-.205 5.03-.228 7.545-.08 9.443-.125 18.884-.184 28.33-.003.523.017 1.05-.01 1.574-.097 1.744-.844 2.77-2.488 3.183-1.112.283-2.264.444-3.41.55-2.082.193-4.176.304-6.268.45-.107.005-.208.012-.313.003-4.17-.306-8.36-.15-12.514-.88-2.984-.522-6.002-.96-9.07-.818-1.332.06-2.72.245-3.997-.51-.31-.184-.882-.197-1.21-.035-1.87.932-3.702.216-5.55-.008-.575-.076-.96-.336-1.082-.937zm6.218 29.186c-.2.988-.867 1.822-1.446 1.845-1.333.045-2.496-.887-2.608-2.167-.053-.613-.047-1.255.06-1.86.146-.808.4-1.6.655-2.384.04-.125.356-.27.5-.23 1.962.54 2.96 1.872 2.932 4.01-.02.17-.035.48-.096.784zm19.91-54.404c.74-.365 1.445-.804 2.14-1.25.478-.304.923-.66 1.38-1 .175-.463.295-.957.55-1.37.814-1.332 1.72-2.607 2.514-3.946.47-.798.898-1.65 1.163-2.53.34-1.127-.65-2.286-1.856-2.365-1.226-.08-2.29.235-3.046 1.235-1.568 2.082-2.997 4.256-3.998 6.68-.49 1.183-.512 2.43-.282 3.68.11.598.914 1.118 1.43.865zm1.57 1.456c-.57.99-1.1 2.01-1.126 3.195-.013.656.17 1.23.75 1.613.478.315 1.182.25 1.743-.174.245-.19.527-.364.706-.61 1.538-2.087 3.074-4.177 4.567-6.3.56-.8.63-1.742.407-2.696-.22-.937-1.413-1.464-2.235-.955-.438.27-.82.623-1.228.95-.525.425-.807 1.163-1.567 1.3-.1.356-.164.737-.348 1.05-.527.892-1.155 1.727-1.67 2.627zm2.018-3.68c.01-.032.017-.067.027-.1l-.096.072c-.004.017-.01.034-.016.05.034-.003.06-.014.087-.02z"/></svg>