<svg xmlns="http://www.w3.org/2000/svg" width="128" height="128" viewBox="0 0 128 128"><path d="M118.353 46.613c-.002-.856-.008-1.72-.088-2.575-.037-.407-.155-.877-.403-1.186-1.06-1.312-1.88-2.91-3.755-3.317-.77-.165-.928-.8-.95-1.485-.06-2.15-.09-4.3.41-6.413.307-1.295.134-2.54-.28-3.797-.31-.95-.99-1.384-1.853-1.583-.514-.114-1.067-.064-1.606-.064-2.148.005-4.296.026-6.446.02-2.47-.004-4.936.022-7.38-.49-.722-.15-1.498-.072-2.245-.043-1.608.068-3.213.235-4.818.256-7.848.093-15.693.192-23.54.206-3.45.005-6.836.363-10.223 1.005-2.89.544-2.85.443-3.968-1.946-.18-.386-.385-.766-.57-1.154-1.253-2.622-3.274-4.064-6.198-4.52-2.79-.432-5.565-.34-8.352-.388-2.702-.043-5.322.334-7.946 1-2.692.688-5.404 1.416-8.224 1.43-.815 0-1.44.33-1.978.906-.814.88-1.736 1.536-2.953 1.85-.546.143-1.13.694-1.413 1.214-.924 1.693-1.675 3.435-1.67 5.468.005 4.405-.137 8.808-.176 11.054.076 9.674-.113 17.197 1.42 24.62.327 1.573.535 3.184.6 4.785.197 5.042.187 10.088.744 15.12.355 3.194.42 6.42.58 9.637.132 2.624 1.008 5.03 2.08 7.387.806 1.77 2.26 2.854 3.992 3.55.983.4 2.048.693 3.1.81 2.557.273 5.105.726 7.698.55 2.033-.14 4.066-.284 6.1-.35 3.76-.123 7.532-.035 11.278-.32 4.613-.354 9.222-.38 13.843-.424.964-.01 1.93-.122 2.894-.205 1.706-.145 3.41-.404 5.12-.44 4.19-.086 8.383-.09 12.575-.086 1.177 0 2.357.114 3.53.227 1.49.148 2.977.385 4.467.524 2.67.245 5.374.288 8.013.71 3.66.59 7.275.34 10.904-.07.5-.054 1.087-.26 1.434-.603 1.382-1.354 2.697-2.777 3.22-4.727.858-3.21 1.596-6.443 1.727-9.78.09-2.256.067-4.517.246-6.764.422-5.244 1.05-10.47 1.084-15.734.05-7.955-.012-15.906-.03-23.86zM54.823 30.2c.628-.107 1.27-.168 1.91-.183 10.637-.288 21.274-.286 31.906.024 3.42.104 6.82.67 10.232 1 1.173.11 2.355.177 3.533.208 1.504.037 3.01.002 4.512.032.765.01 1.116.464 1.013 1.282-.087.747-.21 1.49-.362 2.222-.187.92.256 1.952-.5 2.763-.93-.235-1.88-.397-2.78-.715-3.894-1.368-7.877-1.867-12.014-1.733-5.04.163-10.09.04-15.136.04-.003-.06-.003-.116-.003-.175-5.584 0-11.17.002-16.76 0-.86 0-1.717-.017-2.578 0-3.13.056-3.41-.593-3.99-3.407-.14-.676.265-1.233 1.014-1.36zM19.897 83.09c-.04-.207-.085-.406-.117-.614-.015-.103-.002-.21-.002-.395-.26-1.07.448-1.673 1.3-2.187.048-.03.172-.008.214.035.064.07.157.203.132.263-.363.867-.734 1.73-1.13 2.587-.065.14-.26.213-.396.316zm93.035-26.99c.203 3.215.34 6.44-.08 9.653-.084.64-.114 1.287-.12 1.93-.042 5.488-.586 10.93-1.337 16.358-.117.85-.21 1.723-.157 2.575.203 3.134-.352 6.21-.63 9.307-.162 1.824-.628 3.59-1.337 5.283-.265.643-.73 1.056-1.47 1.045-2.254-.032-4.54.132-6.763-.158-2.78-.36-5.557-.5-8.348-.61-.214-.012-.428-.044-.64-.076-.385-.053-.78-.592-.655-.94.293-.804.62-1.6.925-2.4.47-1.226.125-2.317-.566-3.344-.5-.74-1.496-.97-2.283-.507-1.13.663-2.01 1.59-2.64 2.74-.054.097-.06.21-.106.304-.466.96-.704 2.2-1.457 2.802-1.013.814-2.485.27-3.755.33-.634.033-1.276-.06-1.908-.148-.117-.016-.315-.34-.275-.45.364-1.007.72-2.022 1.18-2.988.69-1.456 1.5-2.856 2.174-4.315.448-.97.774-2 1.105-3.02.223-.69-.02-1.2-.644-1.63-.497-.347-1.024-.373-1.493-.04-.522.363-1.06.755-1.45 1.246-1.87 2.366-3.356 4.977-4.747 7.646-.59 1.13-.548 2.467-1.275 3.538-1.276.108-2.555.204-3.83.335-.64.064-1.267.263-1.905.28-.73.018-1.46-.1-2.19-.157-.523-.977.3-1.57.667-2.283 1.563-3.06 3.164-6.1 4.717-9.166 1.7-3.348 3.375-6.707 5.026-10.08.227-.456.363-1.026.32-1.527-.026-.357-.35-.825-.672-.984-.315-.157-.954-.143-1.17.074-.91.907-1.808 1.847-2.533 2.903-1.152 1.678-2.223 3.424-3.22 5.198-1.473 2.615-2.854 5.283-4.276 7.934-.66 1.23-1.32 2.456-1.98 3.69-.654 1.23-1.327 2.44-1.61 3.842-.192.962-.546 1.2-1.594 1.232-2.364.064-4.728.085-7.094.117-.747.01-1.498.02-2.245-.02-.12-.007-.34-.323-.31-.45.093-.41.25-.82.436-1.203 1.634-3.38 3.268-6.763 4.917-10.133.894-1.832 1.777-3.67 2.74-5.458.4-.745 1.01-1.376 1.494-2.08.248-.354.475-.793.103-1.167-.29-.29-.67-.61-1.042-.657-1.155-.14-2.128.33-2.773 1.284-1.14 1.683-2.244 3.395-3.312 5.126-1.57 2.556-3.104 5.13-4.638 7.706-.99 1.66-1.922 3.35-2.933 4.997-.443.72-.32 1.847-1.22 2.178-.773.286-1.67.273-2.518.323-1.286.07-2.576.095-3.864.112-.395.006-.73-.527-.595-.917.21-.605.397-1.232.686-1.803 1.556-3.06 3.095-6.133 4.73-9.155.916-1.693 2-3.296 3.01-4.94.11-.182.23-.364.326-.556.462-.924.45-1.95-.015-2.42-.525-.527-1.805-.428-2.627.375-1.3 1.27-2.667 2.532-3.733 3.996-2.72 3.73-5.185 7.634-7.04 11.894-.36.827-.518 1.564-.214 2.464.288.852.045 1.072-.904 1.098-.645.02-1.295.055-1.933.003-.82-.066-1.7.277-2.445-.335.303-.687.646-1.358.9-2.06 1.828-5.042 3.808-10.026 5.937-14.943.975-2.255 2.146-4.424 3.21-6.645.37-.766.748-1.543.976-2.357.09-.325-.103-.898-.37-1.11-.276-.225-.842-.308-1.194-.193-1.144.373-2.062 1.1-2.832 2.04-1.98 2.424-3.67 5.045-4.91 7.912-1.66 3.84-3.17 7.74-4.712 11.625-.555 1.392-1.064 2.805-1.148 4.328-.005.096-.096.192-.147.285-.168-.11-.43-.187-.488-.34-.387-.994-.81-1.984-1.068-3.02-.29-1.156-.38-2.27.765-3.21.52-.424.733-1.28.977-1.978 1.493-4.248 2.962-8.5 4.427-12.762.554-1.62 1.023-3.278 1.642-4.875.776-1.995 1.62-3.966 2.528-5.905.424-.914.53-1.845.548-2.813.012-.688-.756-1.24-1.332-.913-.64.366-1.35.74-1.79 1.3-.994 1.256-1.958 2.566-2.722 3.972-1.178 2.165-2.174 4.427-3.256 6.645-.088.18-.237.33-.356.496-.048-.305-.208-.648-.128-.914 1.092-3.477 2.176-6.955 3.35-10.405.86-2.533 1.834-5.032 2.794-7.53.302-.793.782-1.516 1.08-2.31.222-.588.382-1.236.393-1.857.018-1.194-1.122-1.957-2.24-1.54-.782.29-1.535.663-2.3 1.002v.008l-.008.004c-.013.2.008.416-.06.597-.048.125-.224.2-.347.293-.02-.186-.11-.407-.043-.555.073-.15.293-.227.448-.335v-.01l.007-.004c-.22-1.678.58-3.12 1.075-4.63.296-.91.578-1.835.744-2.776.128-.764-.523-1.42-1.326-1.533-.663-.09-1.278.007-1.835.406-.9.64-1.493 1.5-2.005 2.475-1.295 2.488-2.02 5.196-3.076 7.777-.242.59-.493 1.18-.757 1.76-.035.083-.17.125-.26.184-.102-.152-.286-.302-.29-.46-.022-.53-.125-1.12.052-1.592.57-1.55.512-3.154.673-4.753.65-6.54.53-13.09.535-19.644 0-.86.052-1.716.114-2.575.048-.623.434-.995 1.02-1.04.32-.022.644-.042.965-.02 3.255.218 6.406-.45 9.567-1.064.63-.123 1.273-.255 1.91-.26 3.118-.033 6.236.01 9.353-.044 1.7-.03 2.91.648 3.613 2.176.76 1.658 1.49 3.33 2.2 5.006.33.787.667 1.593.862 2.42.825 3.49 3.416 4.927 6.58 5.078 4.29.207 8.595-.043 12.89-.117.752-.01 1.5-.157 2.248-.163 7.31-.064 14.622-.087 21.93-.17 3.475-.044 6.85.61 10.15 1.535 2.477.696 4.954 1.36 7.45 1.98 3.443.852 3.683.874 3.22 4.61-.325 2.58-.284 5.126-.12 7.705z"/></svg>