<svg xmlns="http://www.w3.org/2000/svg" width="128" height="128" viewBox="0 0 128 128"><path d="M107.28 20.678c-.854-.96-1.093-2.035-1.188-3.16-.235-2.82-.975-5.6-.753-8.46.02-.313-.023-.63-.07-.944-.182-1.27-.974-2.138-2.186-2.37-.412-.08-.832-.117-1.253-.134-3.36-.145-6.72-.382-10.08-.4-10.415-.052-20.83-.02-31.25-.02-10.206 0-20.41 0-30.614.003-1.472 0-2.946.024-4.42.02-1.37-.007-2.473 1.085-3.944.846-.578-.098-1.14.55-1.285 1.21-.128.606-.175 1.255-.117 1.87.11 1.148.337 2.284.48 3.427.428 3.44.838 6.88 1.257 10.318.08.66.34 1.308.97 1.518 1.43.476 2.12 1.647 2.892 2.77 1.126 1.648 2.185 3.35 3.43 4.908 2.305 2.87 4.833 5.548 7.49 8.108 2.42 2.335 4.78 4.74 7.164 7.116 2.317 2.31 4.42 4.79 6.125 7.597.433.716.922 1.415 1.473 2.04.953 1.08 1.342 2.274 1.387 3.73.207 6.62.51 13.24.783 19.857.15 3.57.307 7.138.47 10.705.02.523-.027 1.088.154 1.557.176.45.523.95.933 1.183 1.195.683 2.822.267 3.18-.97.345-1.212 1.117-1.97 1.904-2.81 3.18-3.388 6.744-6.33 10.443-9.12 1.266-.955 2.594-1.84 2.482-3.745-.02-.305.405-.682.69-.957.56-.54.93-1.18.874-1.944-.143-1.885-.3-3.772-.57-5.643-.435-3.01-.96-6.01-1.472-9.007-.12-.7.107-1.222.576-1.702.957-.975 1.92-1.947 2.858-2.94 2.02-2.14 3.957-4.367 6.06-6.425 2.102-2.056 4.45-3.864 6.538-5.93 5.01-4.96 9.94-9.998 14.882-15.024 1.178-1.198 2.274-2.47 3.407-3.712 1.058-1.16 1.286-2.255.3-3.367zM45.857 9.664c.31-.032.63-.03.942-.01.673.042 1.046.362 1.023.93-.043 1.26-.122 2.515-.184 3.776h.086c0 1.05-.002 2.098 0 3.147.004.59-.22 1.003-.826 1.147-.643.15-1.132-.188-1.285-1.022-.17-.926-.288-1.867-.367-2.805-.113-1.36-.175-2.72-.256-4.085-.032-.59.303-1.02.866-1.077zm-5.75-.105c1.064.04 1.31.286 1.302 1.29-.007 1.15 0 2.307 0 3.466h-.124c.075 1.154.18 2.304.196 3.458.003.192-.355.444-.597.562-.128.062-.437-.053-.544-.186-.252-.32-.532-.673-.63-1.057-.48-1.93-.954-3.868-1.335-5.824-.28-1.445.107-1.77 1.73-1.71zm-6.78.036c.49-.03.998.075 1.482.192.112.026.244.348.22.51-.09.617-.244 1.22-.506 2.454.083 1.248.224 3.11.31 4.974.005.174-.35.5-.554.512-.252.017-.53-.203-.783-.347-.075-.04-.13-.167-.14-.26-.232-2.38-.466-4.757-.673-7.136-.04-.437.163-.867.64-.9zm-4.118 5.837c-.067-.166-.193-.333-.196-.5-.017-.822-.008-1.648-.008-2.472l-.12-.003c.066-.817.112-1.632.216-2.443.016-.128.288-.302.444-.306.15-.004.432.186.434.29.015.714.016 1.436-.074 2.14-.114.913-.31 1.82-.488 2.723-.04.197-.137.383-.208.57zm71.387 8.482c-.22.227-.42.473-.638.704-3.41 3.58-6.774 7.21-10.25 10.72-2.37 2.39-4.88 4.64-7.365 6.91-4.517 4.13-8.612 8.634-12.434 13.41-1.025 1.286-1.343 2.574-1.12 4.086.246 1.66.61 3.303.836 4.966.41 3.016.975 6.02.987 9.08 0 .108-.005.21.01.316.13.914-.18 1.514-.98 2.102-2.464 1.794-4.823 3.73-7.24 5.59-.543.418-.884 1.172-1.732 1.12-.09-.724-.24-1.445-.257-2.17-.04-1.68-.014-3.365-.014-5.05h-.065c0-1.893.027-3.79-.01-5.682-.022-1.005.125-1.87 1.068-2.453.248-.153.4-.476.565-.74.263-.413.152-.82-.13-1.156-.193-.23-.455-.46-.733-.555-.62-.208-1.22-.37-1.154-1.22.05-.657.55-.812 1.036-1.02.48-.202 1.01-.37 1.405-.69.758-.613 1.316-1.416 1.16-2.453-.174-1.146-.913-1.885-1.995-2.217-.49-.154-1.038-.125-1.56-.176-.498-.054-.736-.385-.78-.826-.04-.445.163-.784.606-.987.766-.348 1.534-.697 2.26-1.11.875-.497 1.165-1.377.89-2.457-.204-.816-.905-1.343-1.875-1.393-.315-.017-.636-.034-.945.005-.622.082-1.325.44-1.837.252-.643-.233-1.137-.89-1.68-1.38-.935-.848-1.87-1.696-2.783-2.57-.34-.325-.368-.733-.06-1.12.392-.497.846-.953 1.163-1.494.256-.432.43-.954.5-1.456.103-.75-.025-1.487-.75-1.94-.785-.492-1.6-.494-2.376.007-.44.286-.81.67-1.227.99-.58.45-.97.47-1.37.095-.75-.704-.865-1.254-.417-1.917.644-.953 1.323-1.888 1.918-2.873.5-.82.247-1.618-.273-2.355-.56-.8-1.395-.972-2.238-.76-.698.173-1.375.528-1.978.925-.52.34-.923.853-1.378 1.288-.92.88-1.337.843-2.256-.22-.294-.336-.4-.706-.16-1.14.31-.548.648-1.09.864-1.675.433-1.188-.422-2.318-1.717-2.41-.888-.058-1.656.214-2.385.67-.69.433-1.288.49-1.938-.163-2.448-2.464-4.944-4.88-7.398-7.334-.26-.263-.373-.676-.552-1.022.407-.067.814-.174 1.224-.194.523-.024 1.06-.028 1.576.047 5.444.8 10.923.414 16.388.513.947.017 1.894.062 2.84.024.4-.018.832-.154 1.184-.352 1.21-.677 1.573-2.32.497-3.192-1.394-1.128-1.655-2.584-1.845-4.15-.08-.625-.09-1.258-.134-1.887-.034-.526-.057-1.053-.12-1.573-.09-.72-.52-1.592-.25-2.11.43-.826 1.51-.453 2.305-.444 6.415.063 12.83.195 19.245.25 2.1.015 4.2-.206 6.298-.206 2.31.002 4.62.157 6.933.207 3.68.084 7.366.133 11.05.2.842.015 1.682.02 2.52.084.46.032.78.338.82.8.3 3.557 1.15 7.053 1.098 10.65-.01.897-.21 1.648-.836 2.284zm-26.648 83.49c-2.49-2.908-4.147-6.303-5.793-9.71-.64-1.32-1.277-2.645-1.973-3.94-.646-1.205-2.013-1.205-2.738.004-.43.714-.78 1.485-1.123 2.245-.866 1.91-1.653 3.86-2.577 5.742-1.342 2.743-2.357 5.59-3.21 8.523-.48 1.654-.644 3.292-.65 4.972-.015 3.458 1.387 5.43 4.597 6.746 1.52.63 3.083.535 4.655.493.84 0 1.682.06 2.518-.01 1.965-.16 3.632-.913 4.856-2.536.63-.84 1.38-1.587 2.007-2.424 1.952-2.612 2.18-5.383.642-8.26-.344-.65-.74-1.284-1.213-1.84zm-4.94 5.426c-.098.6-.837 1.033-1.45.81-.47-.17-.95-.416-1.318-.75-.806-.727-1.11-1.73-1.287-2.772-.053-.31-.105-.62-.11-.93-.015-.83-.004-1.66-.004-2.906.11-.533-.394-1.593.4-2.443.926.453 1.063 1.49 1.637 2.21.453.56.753 1.257 1.235 1.79 1.358 1.496 1.187 3.23.9 4.992z"/></svg>