<svg xmlns="http://www.w3.org/2000/svg" width="128" height="128" viewBox="0 0 128 128"><path d="M102.365 28.005c-.03-.52-.33-1.027-.328-1.54.01-2.11-1.125-3.664-2.603-4.873-2.81-2.3-6.064-3.827-9.56-4.81-.835-.236-1.67-.094-2.465.304-.99.5-1.504 1.25-1.435 2.25.07.972.674 1.466 1.536 1.8 1.475.575 3.003 1.07 4.357 1.86 2.816 1.64 4.562 3.986 4.508 7.458-.043 2.61-1.175 4.416-3.47 5.574-.747.378-1.442.853-2.187 1.243-2.732 1.43-5.662 2.278-8.673 2.857-.58.113-.94-.215-1.073-.853-.128-.613-.224-1.237-.405-1.835-.13-.434-.92-.826-1.308-.62-.337.176-.73.51-.81.843-.17.71-.15 1.466-.21 2.2-.043.485-.337.81-.787.834-.945.053-1.895.056-2.837-.01-.225-.018-.566-.367-.606-.605-.128-.724-.088-1.476-.203-2.205-.065-.397-.25-.814-.496-1.13-.164-.212-.545-.374-.814-.353-.275.023-.593.245-.77.474-.177.235-.266.578-.284.88-.037.737.036 1.482-.035 2.214-.02.235-.327.587-.55.637-.513.106-1.053.06-1.58.063-.71.01-1.212-.324-1.46-.988-.185-.493-.238-1.056-.51-1.487-.266-.422-.714-.745-1.115-1.067-.277-.22-1.018.044-1.058.378-.08.62-.088 1.248-.14 1.874-.04.48-.317.754-.796.773-.42.018-.844.018-1.265-.02-.95-.092-1.312-.396-1.544-1.302-.128-.51-.156-1.046-.3-1.552-.084-.29-.247-.623-.477-.796-.306-.225-.715-.418-1.077-.415-.213 0-.562.377-.615.633-.15.714-.166 1.458-.26 2.19-.055.455-.756.82-1.234.59-.357-.174-.82-.418-.943-.742-.416-1.076-.672-2.215-1.04-3.313-.198-.587-.43-1.186-.772-1.698-.49-.735-1.75-.516-2.047.332-.14.387-.273.82-.24 1.22.068.833.244 1.663.39 2.49.134.74-.334 1.113-1.11.936-.792-.18-1.378-.617-1.6-1.376-.355-1.21-.624-2.45-.904-3.683-.093-.41-.065-.847-.144-1.26-.08-.416-.215-.816-.343-1.22-.173-.55-.83-1.12-1.088-.917-.32.246-.704.58-.78.935-.35 1.677-.27 3.36.104 5.035.067.297.11.6.127.907.003.075-.114.22-.192.233-.192.032-.47.09-.57-.008-.294-.282-.654-.597-.75-.963-.524-1.932-.972-3.884-1.454-5.827-.074-.3-.114-.648-.3-.87-.172-.207-.527-.394-.777-.365-.258.027-.565.28-.704.517-.148.256-.188.62-.158.925.123 1.467.252 2.938.446 4.397.133.997-.236 1.33-1.235.967-.693-.248-1.385-.523-2.065-.81-1.563-.662-3.042-1.467-4.34-2.582-1.147-.978-1.313-1.7-.545-3.024.368-.635.803-1.25 1.308-1.78 3-3.203 6.406-5.82 10.65-7.203 1.004-.328 2-.7 2.95-1.16 1.152-.565 2.347-.907 3.595-1.17 1.013-.215 1.986-.662 2.944-1.073.473-.206.4-1.06-.054-1.312-1.067-.59-2.176-.67-3.37-.442-3.212.616-6.44 1.124-9.644 1.77-1.65.338-3.288.773-4.747 1.702-3.43 2.178-6.345 4.917-8.827 8.113-1.737 2.244-2.46 5.912.39 8.984.577.62 1.083 1.25 1.31 2.122.615 2.368 1.75 4.528 2.94 6.648 3.213 5.71 6.4 11.43 9.69 17.1C44.793 64.19 45.4 66.7 47 68.702c.126.156.145.395.23.587 1 2.21 1.996 4.423 3.01 6.625 1.156 2.505 3.323 4.053 5.427 5.646.48.366 1.15.58 1.762.66 2.92.37 5.85.67 8.92 1.01 1.98-.24 4.105-.333 6.153-.79 1.628-.364 3.21-1.065 4.713-1.807 1.332-.657 2.542-1.66 3.023-3.115.346-1.058 1.007-1.828 1.597-2.693.774-1.134 1.545-2.276 2.196-3.488 2.896-5.402 5.423-10.99 7.755-16.654 1.772-4.293 3.3-8.686 4.84-13.067.398-1.13.877-2.1 1.723-2.96 2.156-2.17 3.208-4.948 3.976-7.82.237-.88.088-1.882.036-2.822zM89.85 45.847c-.758 1.513-1.614 2.97-2.386 4.477-1.736 3.38-3.445 6.773-5.16 10.165-1.86 3.674-3.73 7.343-5.547 11.04-.453.92-1.127 1.44-2.034 1.852-3.157 1.444-6.45 1.956-9.93 1.627-2.732.27-5.422-.32-8.118-.833-1.36-.26-2.368-.79-2.47-2.392-.045-.72-.385-1.42-.55-2.138-.107-.46.08-.802.553-.97.69-.246 1.408-.44 2.056-.77.5-.248.68-.788.66-1.348-.022-.586-.383-.93-.874-1.206-.877-.49-1.83-.523-2.778-.456-1.263.084-1.97-.484-2.347-1.654-.22-.677-.094-.953.654-.97.843-.022 1.69.03 2.53-.042 1.697-.146 3.014-.9 3.74-2.517.27-.597.053-1.312-.506-1.658-.928-.573-1.938-.807-3.02-.8-1.692.012-3.384.044-5.075-.014-1.45-.045-2.704-1.248-2.996-2.784-.02-.115.218-.396.343-.4 1.37-.046 2.74-.046 4.115-.067 1.21-.02 2.272-.416 3.153-1.266.563-.542.523-1.45-.094-1.946-.845-.682-1.79-1.11-2.89-1.143-.85-.02-1.692-.03-2.54-.05-.632-.017-1.273-.003-1.9-.08-2.4-.29-4.503-1.005-5.487-3.558-.377-.97-1.03-1.84-1.547-2.758-.04-.07-.05-.238-.02-.256.175-.088.4-.25.545-.197 2.785.987 5.566 1.97 8.46 2.612 3.608.804 7.25 1.326 10.91 1.82 5.096.683 10.15.125 15.174-.31 4.708-.406 9.378-1.413 13.925-2.855.73-.232 1.435-.964 2.335-.458-.293.77-.52 1.567-.888 2.297zm-14.9 54.31c-.898-.303-1.805-.586-2.69-.925-.272-.107-.612-.34-.693-.59-.285-.894-.487-1.82-.675-2.745-.02-.107.27-.405.39-.395.518.05 1.034.18 1.793.334.277-.096.8-.194 1.234-.444.705-.403.847-1.328.334-1.907-.274-.31-.574-.635-.928-.83-.738-.4-1.49-.857-2.296-1.04-1.655-.383-2.566-1.313-2.77-3-.075-.623-.285-1.232-.467-1.837-.12-.403-.26-.808-.465-1.17-.452-.81-1.144-1.197-2.098-1.108-.87.082-1.328.66-1.564 1.378-.197.587-.25 1.237-.267 1.867-.02.734.062 1.474.115 2.21.053.7-.194 1.214-.817 1.57-1.5.86-2.625 2.134-3.675 3.457-.994 1.25-1.703 2.66-1.968 4.267-.365 2.2.867 3.747 2.763 4.37 1.112.367 2.24.577 3.42.55.844-.02 1.692.01 2.53.1.257.03.626.29.7.52.385 1.207.694 2.434 1.025 3.658.14.513-.105.77-.597.852-1.353.228-2.717.392-4.047.713-.69.168-1.357.555-1.963.954-.58.377-.795 1.418-.433 2.01.32.524.723 1.05 1.208 1.414.94.71 2.045 1.108 3.232 1.188 1.156.082 2.32.17 3.483.16.975-.007 1.603.342 1.91 1.288.223.7.438 1.42.77 2.075.472.94 1.013 1.846 1.59 2.72.387.59 1.16.83 1.665.61.623-.28.992-.776 1.062-1.458.045-.422.08-.853.032-1.267-.122-1.045-.302-2.08-.446-3.123-.225-1.617.108-1.784 1.155-2.234 1.483-.638 2.747-1.54 3.765-2.812 1.237-1.54 1.475-3.202.845-5.052-1.056-3.093-3.035-5.27-6.165-6.33zm-10.752-1.12c-.315.02-.634.003-1.24.003.08.006-.138.016-.338-.037-.395-.105-.395-.416-.315-.732.213-.856.702-1.542 1.408-2.043.226-.158.63-.27.86-.17.22.093.378.464.45.742.103.4.13.83.15 1.253.027.567-.34.933-.975.98zm10.73 8.346c-.223.384-.82.452-.968.107-.2-.46-.356-.946-.494-1.43-.077-.268.31-.586.56-.513.664.178.938.688 1.177 1.133-.13.34-.176.537-.274.704zm-14.725-82.65c1.935 1.643 3.84 3.32 5.8 4.928.978.806 2.045 1.503 3.09 2.22.466.32 1.013.353 1.49.04.613-.406 1.225-.83 1.755-1.334 1.305-1.235 2.54-2.55 3.847-3.782 1.55-1.458 2.842-3.125 4.08-4.843.245-.334.46-.71.604-1.1.4-1.07-.315-2.25-1.45-2.323-1.05-.067-2.11-.01-3.168-.03-.59-.01-1.016-.298-1.08-.91-.223-2.097-.417-4.195-.62-6.293l.16-.015c0-1.484.046-2.966-.018-4.44-.035-.92-.725-1.636-1.635-1.643-2.536-.03-5.078-.07-7.604.092-1.913.12-2.645.906-2.854 2.783-.258 2.304-.395 4.626-.555 6.942-.053.74 0 1.483-.026 2.22-.02.59-.4 1.018-.944 1.068-.947.093-1.904.117-2.844.243-.932.126-1.465.766-1.57 1.715-.1.9.097 1.66.85 2.25.916.717 1.805 1.465 2.69 2.215zm13.216-3.118c.31.024.627 0 1.086 0 .376.043.896.087 1.412.15.3.04.38.215.19.453-.393.483-.77.992-1.228 1.41-.18.167-.61.254-.837.157-.87-.373-1.415.077-1.907.66-.88 1.052-1.632 2.18-2.04 3.517-.032.11-.42.242-.46.2-.185-.2-.485-.558-.42-.677.606-1.103 1.283-2.165 1.93-3.246.323-.54.705-1.066.908-1.647.24-.706.62-1.045 1.362-.98zM67.07 8.482c1.045-.02 2.093-.016 3.136.035.715.036 1.102.5 1.152 1.234.005.11.01.213.01.317.004.42.004.838.004 1.26h-.048c0 .626.027 1.253-.007 1.876-.03.486-.362.757-.83.725-1.173-.077-2.274.196-3.373.55-.13.042-.41-.118-.495-.262-.086-.144-.086-.445.014-.558.267-.306.565-.63.922-.8.848-.4 1.757-.666 2.6-1.072.65-.32.6-1.483-.068-1.82-.357-.18-.783-.337-1.17-.326-.51.007-1.014.194-1.526.303-.672.144-1.09-.104-1.064-.643.023-.465.262-.81.74-.82zm-2.645 14.87c.757-.87 1.596-1.68 2.266-2.613.516-.72 1.074-1.303 1.92-1.52 1.193-.305 1.686-1.11 1.825-2.257.014-.124.307-.296.472-.296.145 0 .367.178.423.328.107.286.128.606.18.917.372 2.227.346 2.2-1.345 3.62-.72.605-.482-.094-.57-.347-.304-.87-.737-1.096-1.27-.597-1.152 1.07-2.263 2.186-3.407 3.268-.134.128-.37.166-.566.2-.067.01-.16-.12-.238-.19.103-.174.18-.365.313-.516z"/></svg>