<svg xmlns="http://www.w3.org/2000/svg" width="128" height="128" viewBox="0 0 128 128"><path d="M102.013 29.863c.015-1.78-1.054-2.744-2.846-2.557-.693.073-1.195.44-1.62.922-1.125 1.276-2.18 2.613-3.348 3.85-2.04 2.166-4.176 4.25-6.214 6.417-1.89 2.016-3.808 4.02-5.536 6.17-2.463 3.064-4.72 6.282-7.274 9.29-3.37 3.962-6.49 8.138-9.724 12.217-.395.5-.83.97-1.237 1.46-.946 1.148-1.94 2.257-2.82 3.454-1.95 2.658-3.763 5.42-5.772 8.027-1.934 2.507-3.12 5.272-3.62 8.373-.234 1.46-.543 2.912-.815 4.368-.15 1.64.538 2.923 1.51 4.117 2.52 3.1 5.94 4.34 9.76 4.76 2.112.237 4.02-.386 5.7-1.585 2.725-1.955 4.965-4.326 5.85-7.7.38-1.452 1.035-2.753 1.824-4.037 1.166-1.893 2.155-3.904 3.144-5.9 2.747-5.535 4.578-11.434 6.812-17.172 1.734-4.456 3.326-8.968 5.43-13.272 1.304-2.67 2.538-5.383 3.956-7.992 1.924-3.537 3.342-7.365 5.938-10.53.612-.753.89-1.676.9-2.678zM66.52 91.296c-.224.33-.587.58-.928.808-.263.176-.58.208-.683-.208-.055-.2-.037-.414-.034-.387 0-.444-.07-.688.016-.855.12-.24.355-.605.527-.597.385.015.82.157 1.114.394.14.117.122.638-.015.843zm7.028-11.676c-.06.006-.136-.115-.208-.18.132-.09.264-.177.42-.286l.288.32c-.168.053-.33.125-.5.146zm12.82-30.58c-1.45 3.303-2.877 6.605-4.02 10.043-.928 2.814-2.216 5.51-3.323 8.267-.555 1.38-1.07 2.775-1.576 4.174-.636 1.745-1.506 3.1-3.494 3.72-1.483.464-2.82 1.468-4.147 2.35-1.708 1.134-1.876 3.19-.438 4.644.442.45 1.016.77 1.468 1.216.19.19.38.624.29.808-.465.946-1.008 1.852-1.56 2.748-.064.107-.462.157-.546.072-1.884-1.873-3.752-3.79-4.707-6.323-.322-.855-.192-1.887-.31-3.33-.45-1.07.403-2.09 1.356-3.19 4.81-5.53 9.192-11.412 13.85-17.07 1.952-2.37 3.744-4.88 5.618-7.32.32-.417.695-.8 1.054-1.19.07-.073.18-.105.275-.16.08.186.266.416.212.538zM23.38 88.584c-3.264-.672-6.534-.665-9.813-.582-2.8.07-4.82 2.645-4.456 5.434.31 2.365 1.874 4.112 4.245 4.422 1.987.26 4.008.27 5.773.375 1.838 0 3.43-.04 5.02.017.93.035 1.62-.33 2.268-.933 1.152-1.078 1.595-2.476 1.81-3.963.06-.388-.036-.882-.244-1.214-1.098-1.73-2.374-3.104-4.6-3.558zm33.97-46.777c1.686.423 3.346.238 4.953-.474.944-.418 1.554-1.096 1.744-2.1.33-1.76.62-3.53.928-5.294.004-1.846-.3-3.61-.943-5.31-.146-.372-.383-.85-.705-1-1.138-.534-2.308-1.103-3.602-.372-.456.257-.942.476-1.43.67-.874.35-1.308 1.046-1.54 1.893-.138.508-.274 1.03-.287 1.55-.023 1.276-.29 2.496-.56 3.738-.35 1.632-.618 3.3-.22 5.013.232.993.826 1.473 1.665 1.686zm48.207 34.71c0 .104-.005.21 0 .315.203 2.88 2.514 4.958 5.536 3.465.947-.467 1.98-.776 2.89-1.3 1.46-.847 2.868-1.79 4.27-2.734.667-.448.873-1.16.834-1.954-.06-1.145-.384-2.244-.427-3.41-.067-1.623-2.34-2.935-3.86-2.346-3.205 1.24-5.933 3.23-8.353 5.65-.626.628-.9 1.424-.888 2.316zm13.878 16.33c-1.234-.642-2.563-1.02-3.98-.964-.74.027-1.48.09-1.64.1-1.435 0-2.29-.074-3.132.02-1.263.136-2.546.27-3.757.626-1.267.372-2.227 1.252-2.52 2.63-.322 1.524.31 2.694 1.51 3.59.338.25.716.477 1.113.604 1.315.42 2.64.715 4.063.477 1.355-.223 2.737-.36 4.11-.4 1.54-.047 2.93-.55 4.246-1.227 1.12-.574 1.66-1.61 1.617-2.893-.038-1.17-.636-2.04-1.632-2.564zM41.007 45.55c-1.48-1.696-2.6-3.584-3.723-5.515-1.504-2.59-2.884-2.54-5.056-1.813-1.22.405-1.85 1.118-2.168 2.42-.49 2.022.157 3.756 1.038 5.417.587 1.1 1.44 2.09 2.3 3.012 1.233 1.333 2.585 2.545 4.86 2.48.268-.028.798-.063 1.313-.164.418-.084.823-.225 1.218-.38.87-.336 1.71-1.73 1.44-2.567-.318-1.002-.565-2.143-1.22-2.893zm68.558 3.78c.2-2.467-1.79-3.718-3.504-2.794-.457.245-.867.608-1.255.968-2.592 2.427-4.424 5.424-6.21 8.448-.16.274-.28.574-.39.875-.348.97-.197 1.864.385 2.722 1.186 1.754 4.084 2.485 5.66.184 1.795-2.63 3.703-5.205 4.727-8.277.3-.9.51-1.827.59-2.127zm-94.5 18.02c.676.494 1.327 1.027 2.02 1.495.42.288.878.605 1.358.7 1.658.32 3.334.548 4.453.726.988 0 1.416.045 1.835-.005 1.933-.227 3.29-1.963 2.995-3.773-.15-.912-.715-1.53-1.425-2.012-1.403-.95-2.81-1.892-4.268-2.752-2.438-1.438-4.87-.96-7.243.208-.354.174-.676.538-.863.893-.75 1.444-.186 3.556 1.137 4.522z"/></svg>