<svg xmlns="http://www.w3.org/2000/svg" width="128" height="128" viewBox="0 0 128 128"><path d="M115.624 64.878c-.053-.64-.11-1.277-.155-1.917-.254-3.846-.5-7.694-.76-11.542-.033-.533-.092-1.073-.22-1.59-.8-3.222-1.313-6.497-1.718-9.79-.064-.52-.19-1.074-.445-1.52-2.404-4.194-5.024-8.24-8.33-11.797-.575-.62-1.228-1.325-1.983-1.59-3.088-1.075-5.536-3.21-8.238-4.894-4.102-2.547-8.18-5.067-12.768-6.68-1.844-.652-3.672-1.07-5.646-1.02-3.108.083-6.22.02-9.33.02v-.035c-3.647.065-7.29.174-10.934.17-1.11 0-2.17.15-3.115.625-3.16 1.573-6.38 3.072-9.387 4.912-4.11 2.51-8.018 5.348-12.062 7.968-2.108 1.36-3.857 3.06-5.363 5.035-.78 1.02-1.487 2.095-2.255 3.126-.813 1.088-1.21 2.522-2.71 3.037-.34.117-.54.638-.815.962-1.425 1.707-1.987 3.813-2.48 5.874-1.417 5.93-2.16 11.966-2.388 18.063-.032.853-.288 1.75-.094 2.54.644 2.614.367 5.31.953 7.948.537 2.407.963 4.836 1.94 7.097 1.58 3.633 3.09 7.287 5.2 10.67 2.293 3.668 4.927 7 8.4 9.623.514.385 1.034.797 1.41 1.3 1.303 1.727 2.95 3.124 4.578 4.485 2.716 2.267 5.65 4.306 9.022 5.483 2.62.913 5.327 1.584 8.027 2.25 2.504.615 5.064.788 7.653.733 1.71-.035 3.43.07 5.13.258 3.844.43 7.683.632 11.553.38 2.21-.147 4.18-.862 5.982-2.086 2.24-1.522 4.62-2.687 7.323-3.116 1.526-.242 2.822-.964 3.993-1.952 1.967-1.66 3.753-3.484 5.494-5.392 3.285-3.6 5.912-7.613 8.17-11.888 2.305-4.37 4.022-8.992 5.697-13.63.18-.497.377-1.023.406-1.542.166-2.992.3-5.987.41-8.98.024-.53-.097-1.063-.145-1.594zm-85.053 22.5c-.123.277-.307.53-.467.79-.27-.234-.59-.43-.8-.714-.31-.41-.565-.867-.79-1.33-.06-.128.022-.416.135-.514.384-.33 1.602-.288 2.042.072.13.11.163.34.283.608-.117.32-.237.713-.4 1.088zm8.616-.537c-1.058 2.566-2.136 5.12-3.215 7.67-.244.58-.842.688-1.262.24-.597-.635-1.035-1.232-.702-2.255.49-1.515.75-3.102 1.13-4.65.175-.716.196-1.644.656-2.063.836-.752 2.017-.358 3.06-.266.162.016.302.256.483.418-.043.288-.032.626-.147.907zM44.15 102c-.076.61-.75.915-1.194.572-.76-.59-1.5-1.212-2.22-1.85-.413-.37-.628-.8-.376-1.41.197-.486.233-1.036.253-1.138.053-3.147 1.084-5.66 1.65-8.264.25-1.147.592-2.278.968-3.39.273-.793.9-1.197 1.76-1.087.957.12 1.91.26 2.856.444.875.174.923.283.672 1.045-.27.818-.557 1.624-.832 2.434-1.402 4.153-2.99 8.25-3.537 12.644zm8.375 1.957c-.085.496.07 1.03.08 1.547.01.578.972 1.024.36 1.576-.208.186-.962-.198-1.45-.37-.905-.312-1.82-.607-2.69-1.005-.91-.42-1.066-.45-.426-1.3.73-.974.95-2.108 1.216-3.252 1.06-4.56 2.173-9.112 3.253-13.67.142-.607.49-.952 1.09-.93 1.06.035 2.13.105 3.19.224.26.028.5.3.77.474-.063.37-.063.697-.175.98-.975 2.48-1.96 4.956-2.955 7.428-1.08 2.677-1.787 5.46-2.266 8.3zm9.75 5.22c-.204.056-.423.046-.854.085-1.912-.213-3.98-.688-5.997-1.394-.096-.032-.164-.133-.248-.203.158-.107.304-.28.475-.31 1.052-.202 1.698-.812 2-1.833.24-.817.54-1.62.773-2.437 1.152-3.99 2.278-7.987 3.445-11.97.27-.918.657-1.804 1.026-2.69.46-1.09 1.096-1.356 2.248-.944.433.157.73.537.597.996-.357 1.222-.764 2.432-1.18 3.637-.983 2.816-2.036 5.606-2.96 8.442-.46 1.412-.767 2.883-1.023 4.348-.292 1.683-.16 3.246 1.872 3.844.097.025.174.117.26.18-.146.087-.28.207-.436.25zm11.002-19.844c-2.336 5.966-3.983 12.14-5.423 18.366-.36 1.56-.7 1.63-2.165 1.673-.11.004-.215 0-.407 0-.128-.008-.344.002-.552-.043-.2-.042-.394-.142-.59-.215.074-.155.106-.39.22-.444 1.42-.663 1.79-1.856 2.123-3.312 1.14-4.977 2.47-9.91 3.76-14.852.184-.712.508-1.4.844-2.053.24-.47 1.122-.693 1.74-.446.228.094.4.437.506.702.068.172.02.432-.053.622zm9.648.16c-.27.81-.55 1.62-.86 2.42-1.626 4.193-3.212 8.39-3.972 12.857-.238 1.4-.53 1.606-1.808 1.817-.317.053-.64.07-.725.08-1.277.1-1.69-.287-1.472-1.242.38-1.668.823-3.323 1.23-4.984.885-3.635 1.76-7.273 2.65-10.91.288-1.187.656-1.44 1.773-1.272.845.123 1.694.238 2.54.363.508.076.79.446.647.876zm7.014 1.072c-.62 2.254-1.26 4.5-1.844 6.763-.24.92-.437 1.87-.51 2.816-.144 1.894-.925 3.234-2.86 3.723-.283.07-.607.31-.82-.096-.09-.172-.164-.397-.14-.58.076-.524.198-1.04.315-1.557.758-3.31 1.51-6.624 2.29-9.93.173-.723.47-1.41.674-2.127.174-.606.578-.864 1.17-.846.523.016 1.05.052 1.564.154.148.027.247.29.445.542-.08.333-.173.74-.284 1.14zm10.084-.634c-.427.73-.888 1.444-1.257 2.2-.373.76-.743 1.543-.95 2.36-.387 1.548-1.292 2.646-2.64 3.42-.46.26-1.14.78-1.39.635-.626-.378-.324-1.137-.167-1.74.534-2.058 1.022-4.12 1.203-6.252.128-1.534.463-1.775 2.005-1.835.322-.01.64 0 1.5 0 .095.018.722.11 1.34.245.394.083.564.614.356.968zm8.053-19.31c-.875 4.07-2.182 8.05-3.303 12.067-.056.203-.18.39-.25.592-.194.57-.587.88-1.184.88-1.392 0-2.785-.01-4.18-.03-3.11-.043-6.222-.04-9.333-.14-5.245-.173-10.496-.333-15.74-.645-5.345-.317-10.68-.763-16.014-1.248-2.658-.245-5.298-.713-7.95-1.052-.74-.096-1.498-.128-2.245-.128-4.935-.007-9.87-.016-14.802.01-1.82.012-3.642-.002-5.436.454-.887.228-1.438-.16-1.692-1.044-.296-1.027-.58-2.063-.794-3.11-.6-2.936-1.052-5.89-1.45-8.864-.53-3.953-.51-7.91-.54-11.87 0-2.465.02-4.933-.006-7.402-.028-2.586 1.022-4.787 2.414-6.854.594-.883 1.352-1.66 2.03-2.487.336-.41.838-.79.95-1.26.37-1.59 1.547-2.494 2.656-3.504 1.344-1.23 2.622-2.53 3.915-3.82 3.526-3.523 7.71-6.11 12.04-8.49.464-.252 1.007-.352 1.507-.533 1.106-.4 2.176-.82 3.175-1.5 1.233-.84 2.624-1.38 4.123-1.712 2.084-.462 4.113-1.076 6.29-1.114 1.96-.035 3.853.28 5.69.832 2.458.738 4.86 1.662 7.27 2.543 3.52 1.286 7.01 2.646 10.372 4.318 2.117 1.05 4.203 2.136 6.032 3.66 1.26 1.05 2.852 1.457 4.33 2.03 1.062.41 1.89.98 2.564 1.835 1.267 1.593 2.577 3.16 3.74 4.828.73 1.046 1.294 2.22 1.803 3.395.98 2.256 1.895 4.542 2.78 6.84.853 2.22.88 4.614 1.33 6.92.126.627.038 1.304.204 1.917 1.26 4.594.672 9.18-.296 13.687zm-35.574-14.2c-2.08-2.59-4.01-5.3-6.027-7.94-.843-1.1-1.688-2.217-2.632-3.234-2.553-2.743-5.062-5.52-7.273-8.555-.183-.252-.45-.45-.7-.647-.488-.384-1.48-.235-1.684.3-.306.79-.65 1.602-.763 2.433-.288 2.112-.46 4.242-.675 6.38.226 2.253.48 4.482.676 6.714.322 3.737.885 7.437 1.493 11.13.175 1.057.362 2.107.507 3.163.252 1.803.454 3.61.717 5.41.154 1.02.74 1.728 1.66 1.64 1.41-.136 2.45.383 3.467 1.24.485.408 1.082.712 1.668.963 3.35 1.448 8.082 1.54 10.882-2.574.24-.354.478-.715.742-1.05 2.21-2.816 2.04-5.995 1.17-9.144-.63-2.257-1.725-4.35-3.234-6.225zm-3.546 12.03c-.683.912-1.502 1.096-2.51 1.01-.735-.066-1.268-.477-1.276-1.17-.04-5.08-1.593-9.855-2.924-14.676-.11-.405-.203-.815-.277-1.227-.016-.08.084-.203.165-.262.037-.03.188.013.224.066 1.402 2.006 2.82 3.997 4.174 6.03.65.977 1.09 2.093 1.773 3.038.986 1.365 1.37 2.867 1.376 4.344.092 1.145-.1 2.002-.728 2.85zm-7.72-37.878c.566 2.308 2.414 3.314 4.61 2.542 1.78-.625 3.05-2.645 3.034-4.977.084-1.075-.36-2.165-.842-3.248-.433-.96-1.204-1.458-2.177-1.746-2.354-.704-5.552.892-5.25 4.29.094 1.06.37 2.102.627 3.14zm30.666 5.48c-.614-1.95-2.142-3-4.11-2.928-1.18.043-3.93 1.803-4.45 2.86-.095.19-.2.404-.2.603-.007.96-.1 1.94.054 2.88.263 1.55 2.032 3.174 3.516 3.39 2.51.366 5.666-1.9 5.442-5.35.002.017-.03-.748-.252-1.452zm-3.968 1.588c-.047-.075-.132-.153-.126-.22.005-.073.106-.133.16-.2l.14.223c-.056.067-.117.13-.174.196zm12.49 11.802c-.312-.267-.707-.523-1.103-.6-3.992-.787-6.645 2.875-5.61 5.64.113.3.187.613.294.916.71 1.963 2.562 3.162 4.452 2.886 2.228-.328 3.94-2.194 3.94-4.31.036-1.812-.595-3.346-1.976-4.532zm-.96 17.472c-1.488-.72-3.676-.22-4.682 1.08-1.333 1.724-1.664 3.638-1.097 5.765.58 2.17 3.712 3.076 5.225 1.9.42-.33.844-.66 1.28-.97.56-.4.883-.92.93-1.61.034-.534.072-1.07.11-1.604.033-1.312-.095-2.588-.852-3.7-.23-.342-.55-.69-.913-.865zm-67.58-5.464c-1.754 1.095-2.617 2.778-2.806 4.762-.196 2 1.42 3.682 3.444 3.805 2.87.177 3.708-1.368 3.717-3.264v-1.227c-.036-.368-.07-1.33-.237-2.268-.35-2.016-2.376-2.896-4.12-1.807zm3.596-17.996c-.32.008-.637.038-.955.062-1.09.09-1.79.736-2.06 1.725-.465 1.698-.35 3.376.484 4.96.436.83 2.04 1.666 2.96 1.57 2.115-.224 3.487-1.717 3.49-4.07-.013-.157-.027-.586-.085-1.005-.34-2.435-1.363-3.296-3.835-3.24zm11.266-14.88c-1.5-.63-3.322-.12-4.316 1.156-.417.538-.635 1.184-.382 1.803.437 1.083.95 2.147 1.54 3.153.25.425.726.815 1.188.996 1.536.606 3.947-1.058 4.017-3.202-.254-.752-.614-1.97-1.096-3.14-.136-.335-.584-.613-.953-.766z"/></svg>