<svg xmlns="http://www.w3.org/2000/svg" width="128" height="128" viewBox="0 0 128 128"><path d="M87.932 68.805c-.9-.208-1.856-.197-2.733-.46-2.693-.8-5.404-1.162-8.198-.692-.338.055-.7.045-1.045.007-.46-.05-.984-.15-1.04-.702-.033-.28.163-.683.386-.873.79-.68 1.68-1.245 2.458-1.938 1.12-1.006 2.29-1.99 3.22-3.157.947-1.19 1.29-2.466.557-4.145-.902-2.062-2.025-3.816-3.632-5.368-1.583-1.53-2.973-3.255-4.474-4.87-.55-.59-1.103-1.24-1.79-1.628-1.52-.858-2.145-1.25-3.76.165-1.037.91-1.956 1.963-2.847 3.02-.82.974-1.515 2.055-2.307 3.054-.39.49-.97.586-1.58.48-1.023-.185-1.61-.758-1.613-1.945-.003-2.78.03-5.564.18-8.34.116-2.067-1.052-3.548-3.14-3.598-1.742-.043-3.486-.008-5.225-.008v.09c-1.046 0-2.092-.01-3.137 0-4.226.047-4.226.05-7.692 2.4-.384.26-.74.57-1.146.79-.82.443-1.12 1.153-1.065 2.02.138 2.08.23 4.17.503 6.237.112.85.087 1.594-.222 2.366-.298.75-1.13.928-1.634.256-1.525-2.03-3.27-3.92-4.11-6.404-.257-.755-.688-1.47-1.13-2.14-.527-.8-1.614-1.107-2.474-.684-.72.352-1.495.734-2.03 1.304-2.926 3.13-6.268 5.856-8.926 9.25-.832 1.064-.91 2.097-.392 3.23.288.626.674 1.22 1.088 1.776 1.38 1.856 2.746 3.723 4.203 5.51 1.277 1.566.608 3.098.023 4.588-.443 1.13-1.595.726-2.46.71-1.504-.025-3.022-.094-4.503-.33-1.31-.21-2.537-.076-3.772.29-.83.245-1.194.597-1.187 1.466.03 3.133-.032 6.276.216 9.393.157 1.942.74 3.86 1.696 5.624.384.704.896 1.04 1.658.992 1.387-.09 2.77-.206 4.156-.32 1.73-.145 3.457-.32 5.19-.44.487-.033.874.238 1.016.746.093.334.085.72.256 1.006.655 1.11.226 2.04-.507 2.843-1.326 1.46-2.717 2.857-4.093 4.274-.644.665-1.4 1.246-1.944 1.984-.676.915-1.184 1.952-1.763 2.936.33 1.368.805 2.667 1.7 3.776.293.36.597.713.925 1.042 2.037 2.067 4.062 4.143 6.13 6.178 1.357 1.335 2.352 1.41 4.01.277 2.39-1.638 4.67-3.423 6.772-5.432.657-.632 1.47-1.423 2.41-1.003 1.083.49.636 1.576.453 2.467-.046.227-.117.447-.165.675-.233 1.08-.154 2.267.602 2.96 1.284 1.178 1.397 2.567 1.35 4.096-.007.23.05.463.092.69.14.723.615 1.203 1.408 1.323 4.85.728 9.696.725 14.56.07 1.312-.177 1.81-.944 1.926-2.054.096-.92.092-1.855.083-2.783-.01-1.393-.075-2.784-.094-4.177-.035-2.482.31-2.464 2.242-2.5.576-.01 1.144-.2 1.717-.222.317-.01.766.057.94.268 1.325 1.6 2.746 3.147 3.846 4.898.967 1.542 2.214 1.952 3.815 1.664.515-.093 1.086-.42 1.426-.816 2.113-2.464 4.163-4.976 6.24-7.467.815-.98 1.663-1.934 2.454-2.93.467-.592.504-1.298.2-1.976-.24-.526-.515-1.045-.855-1.51-1.976-2.718-3.974-5.42-5.964-8.127-.207-.28-.5-.555-.55-.866-.042-.258.167-.77.348-.81.546-.13 1.134-.114 1.702-.095 3.368.122 6.723-.003 10.053-.585 1.172-.206 1.642-.62 1.724-1.788.066-.924.036-1.857.06-2.78.078-3.356-.328-6.733.494-10.053.112-.437.046-.925.034-1.39-.022-.983-.415-1.58-1.317-1.79zm-4.72 12.224c-1.003.252-2.027.493-3.054.555-1.62.094-3.25.02-4.875.056-1.767.044-3.506.13-4.373 2.13-.15.35-.766.48-1.13.757-1.244.947-1.44 1.49-.784 2.987.46 1.047 1.056 2.053 1.71 2.997 1.852 2.668 3.766 5.29 5.644 7.94.277.386.48.916.04 1.247-1.87 1.404-3.44 3.093-4.84 4.95-.134.175-.37.35-.572.372-.3.04-.79.052-.9-.116-.878-1.362-1.644-2.798-2.524-4.158-1.115-1.717-2.77-2.347-4.765-1.89-2.18.495-4.156 1.45-5.96 2.762-.6.434-.91 1.01-.914 1.77-.016 2.322-.04 4.643-.085 6.965-.02.92-.35 1.222-1.28 1.205-.93-.02-1.86-.067-2.783-.124-.4-.025-.824-.604-.723-1.016.58-2.36 1.2-4.71 1.763-7.072.158-.67.21-1.368.25-2.06.008-.185-.226-.554-.325-.55-.307.027-.79.113-.875.316-.53 1.278-1.035 2.573-1.425 3.9-.425 1.44-.76 2.91-1.047 4.387-.233 1.205-.85 1.81-2.097 1.84-.684.017-1.36.245-2.042.25-.286 0-.645-.28-.835-.533-.335-.437.125-.6.41-.687.862-.266 1.39-.815 1.565-1.69.546-2.722 1.088-5.447 1.6-8.176.037-.192-.128-.433-.23-.636-.044-.094-.155-.216-.24-.22-.203-.007-.47-.02-.597.095-.252.227-.5.512-.613.82-.584 1.635-1.125 3.283-1.688 4.924-.037.107-.14.186-.208.277-.127-.155-.34-.296-.366-.465-.13-.91-.356-1.834-.282-2.73.126-1.477-.57-2.427-1.664-3.197-.372-.263-.842-.386-1.256-.597-.977-.494-1.134-.83-.9-1.902.17-.785.412-1.56.504-2.353.027-.212-.338-.532-.593-.69-.13-.08-.47.03-.622.16-.836.72-1.21 1.728-1.34 2.754-.167 1.365-.763 2.368-1.833 3.207-1.004.784-1.873 1.74-2.864 2.546-.373.304-.78 1.02-1.363.504-.18-.156.064-.837.168-1.268.42-1.803.86-3.605 1.278-5.408.016-.066-.12-.233-.198-.243-.203-.02-.475-.062-.606.045-.264.213-.537.486-.654.793-.538 1.405-1.1 2.812-1.49 4.26-.202.752-.118 1.598-.068 2.396.023.422.48.885.03 1.253-.53.432-1.13.803-1.756 1.074-.17.074-.702-.253-.785-.495-.224-.638-.46-1.35-.388-1.995.235-2.07.593-4.123.933-6.177.096-.565.373-1.105.435-1.672.05-.425.02-.956-.202-1.3-.326-.507-.814-.025-1.23.033-.196.03-.396.043-.593.062-.01.025-.014.053-.02.075-.033.01-.07.015-.108.022-.672 1.888-1.346 3.776-2.027 5.662-.035.093-.203.23-.25.208-.175-.075-.373-.173-.477-.323-.56-.796-.862-1.59-.102-2.474.813-.946 1.55-1.955 2.35-2.91.098-.117.318-.13.51-.166l.03-.087.097-.008c.125-.4.174-.885.44-1.13.414-.372.993-.586 1.526-.793.734-.288 1.06-.848 1.22-1.562.57-2.58.17-5.056-.73-7.504-.394-1.077-1.053-1.77-2.194-1.97-.34-.06-.69-.085-1.03-.168-.526-.13-.766-.587-.538-1.02.378-.714.844-1.39 1.142-2.138.203-.51.35-1.13-.17-1.61-.396-.365-1.297-.253-1.868.356-.786.843-1.504 1.75-2.204 2.667-.348.456-.56 1.016-.893 1.487-.193.272-.48.504-.774.66-.156.083-.465.04-.616-.066-.15-.107-.302-.42-.245-.555.768-1.813 1.58-3.607 2.352-5.416.064-.15-.027-.45-.154-.574-.144-.138-.408-.215-.618-.212-.22 0-.463.085-.657.203-.67.393-1.227.565-1.675-.34-.226-.46-.744-.48-1.216-.266-.826.376-.956-.275-1.152-.79-.218-.58-.008-.947.544-.937 2.666.053 5.332.117 8 .2.46.015.913.193 1.375.207.964.032 1.744-.224 2.347-1.135.738-1.117 1.282-2.224.938-3.574-.493-1.945-.72-3.836.235-5.752.305-.608-.013-1.404-.56-1.905-.942-.86-1.925-1.673-2.906-2.486-.713-.594-1.473-1.13-2.173-1.74-.363-.32-.512-.767-.09-1.185.986-.978 1.982-1.945 2.976-2.915.636-.622 1.267-.617 1.767.032.284.368.54.757.796 1.14 1.205 1.793 2.618 3.24 4.988 3.308.428.01.833.427 1.277.517.83.172 1.708.15 2.1-.756.66-1.51 1.835-1.995 3.36-1.924.114.006.233-.002.347-.02 1.58-.234 2.32-.996 2.237-2.53-.094-1.733-.334-3.46-.485-5.194-.08-.92-.165-1.845-.15-2.765.014-.797.56-1.377 1.28-1.38 3.02-.022 6.037-.012 9.056.01.49.002 1.056.645 1.053 1.208-.005.808-.037 1.62-.143 2.42-.277 2.097-.184 4.16.352 6.213.257.987.714 1.662 1.806 1.84.41.066 1.042.308 1.13.603.554 1.822 2 1.707 3.406 1.71.81 0 1.626-.004 2.435-.048.606-.032 1.224-.256 1.43-.83.436-1.183 1.372-1.794 2.343-2.442.567-.38.997-.968 1.508-1.442 1.25-1.16 1.536-1.138 2.822.204 1.685 1.764 3.287 3.6 4.463 5.763.315.58.218 1.116-.282 1.555-1.655 1.454-3.32 2.892-4.96 4.362-.43.384-.804.837-1.156 1.294-.447.577-.524 1.38.06 1.92.956.88 1.216 1.844 1.11 3.098-.082.917.65 1.515 1.486 1.683 1.013.208 2.07.268 3.11.287 1.62.028 3.247-.05 4.874-.05.576-.002 1.167.026 1.726.158.585.14 1.118.542 1.148 1.163.107 2.32.156 4.64.164 6.96.003.256-.34.675-.594.74zm32.58-47.59c-1.01-.77-2.07-1.48-3.126-2.19-1.192-.803-1.173-1.04.22-1.78.51-.272 1.04-.507 1.542-.797 1.472-.857 1.744-1.53 1.13-3.164-.57-1.518-1.273-2.986-1.86-4.496-1.233-3.168-2.03-2.83-4.32-1.458-.692.416-1.37.956-2.127 1.138-.417.102-1.033-.354-1.46-.688-.164-.128-.16-.658-.044-.928.54-1.28 1.173-2.524 1.72-3.8.307-.718.076-1.496-.618-1.777-1.82-.735-3.648-1.5-5.536-2.026-2.676-.75-3.162-.416-4.087 2.178-.192.544-.292 1.14-.58 1.627-.287.48-.737.873-1.15 1.266-.33.315-1.04.164-1.166-.26-.297-.99-.574-1.994-.783-3.007-.117-.56-.06-1.157-.122-1.734-.08-.732-.76-1.163-1.53-1-.34.07-.695.12-1.008.255-1.383.6-2.773 1.188-4.115 1.868-.713.36-1.352.878-1.988 1.37-.487.375-.713.872-.533 1.522.334 1.227.635 2.466.95 3.7.215.824.215 1.65-.36 2.308-.27.305-.74.512-1.15.582-.3.05-.653-.203-.98-.303-1.317-.4-2.56-1.785-3.86-1.257-1.513.612-1.136 2.635-1.813 3.95-.31.603-.39 1.33-.56 2.004-.48 1.91.035 2.898 1.854 3.445 1.11.333 2.246.575 3.36.895.5.143.78 1.035.47 1.468-.27.373-.543.805-.92 1.013-1.114.61-2.3 1.092-3.425 1.684-.605.32-1.214.693-1.685 1.173-.278.28-.478.868-.385 1.237.567 2.256 1.357 4.437 2.688 6.374.37.536.878.65 1.515.456 1.664-.505 3.337-.974 5.01-1.44.412-.115 1.002.433.872.825-.358 1.09-.953 2.14-.49 3.266-.054.43-.124.77-.135 1.117-.047 1.478.14 1.728 1.572 2.264 1.628.61 3.25 1.228 4.877 1.84 1.285.48 2.022.19 2.496-1.02.427-1.073.78-2.18 1.243-3.24.4-.905 1.305-1.086 1.948-.393.467.498.868 1.077 1.186 1.68.427.816.72 1.702 1.12 2.534.27.56.917.82 1.48.554 1.25-.604 2.478-1.25 3.686-1.927 4.097-2.288 4-1.22 2.124-5.91-.175-.43-.402-.84-.555-1.274-.154-.435-.256-.886-.354-1.338-.088-.42.427-.984.8-.867 1.44.448 2.874.907 4.303 1.38 2.48.822 2.493.225 3.2-1.354.76-1.69 1.5-3.393 2.19-5.115.417-1.057.22-1.716-.72-2.435zm-34.41-9.893l-.16-.105.188-.05-.027.155zm-1.99 14.03c-.043.02-.164-.074-.21-.143-.054-.08-.116-.2-.094-.282.17-.615.612-.782 1.177-.73 0-.026.01-.045.007-.072.032-.015.075-.022.123-.027l.184-.405c.34.42.034.382-.186.405l-.046.1c-.03-.004-.056 0-.086-.002.014.6-.378.92-.87 1.156zm1.173 3.973c-.256-.044-.683-.452-.645-.605.122-.52.39-1.013.656-1.487.174-.306.676-.222.808.122.117.307.187.632.245.826-.048.736-.506 1.243-1.066 1.146zm3.48-13.422c.125.17.3.307.28.416-.02.16-.18.3-.282.448-.066-.075-.2-.158-.192-.224.023-.18.1-.35.197-.64zm-.1 12.26c-.178-.08-.512-.16-.514-.244-.004-.26.115-.523.19-.807.28.133.61.243.6.302-.034.257-.172.502-.273.75zm.373-3.746c-.08.34-.587.58-.907.868-.105-.313-.225-.622-.322-.94-.032-.102-.004-.223-.004-.665.11-.34.288-.988.53-1.608.072-.177.316-.35.508-.387.104-.018.385.25.38.384-.013.787 0 1.594-.18 2.35zm17.845-22.26c.04.042.05.16.018.202-.06.088-.147.184-.243.21-.21.055-.427.068-.725.11-.244-.03-.577-.04-.88-.138-.12-.038-.286-.354-.242-.424.302-.47 1.653-.432 2.076.038zm-2.456 2.66c.192.037.37.13.555.2l-.275.148-.546-.203c.093-.053.19-.16.27-.145zm-.14 2.523c.488.036.867.402.844.813-.04.753-.66 1.344-1.25 1.17-.49-.143-.634-.554-.64-1.014-.006-.612.44-1.013 1.05-.968zm-4.287-.892c.28-.102.653-.15.917-.046.79.305.832 1.018.793 1.93-.21.806-.464 1.8-.734 2.787-.03.093-.166.155-.256.23-.053-.096-.14-.19-.16-.293-.25-1.342-.183-2.75-.8-4.03-.064-.13.1-.523.24-.576zm-3.584-.107c.094-.023.253.203.38.318l-.607.63c-.114-.278-.263-.47-.215-.57.078-.163.267-.33.442-.377zm-1.177-2.952c.142-.08.747.286.732.395-.05.39-.277.76-.46 1.19-.325-.207-.564-.273-.622-.416-.2-.464-.077-.94.35-1.17zm.11 10.53c.01.068-.146.158-.22.238-.07-.087-.21-.19-.198-.26.043-.196.147-.38.226-.574.07.2.16.395.19.597zm-3.896 11.158c-.192-1.117-.333-2.243-.452-3.107.22-2.556.395-4.832.642-7.1.02-.206.472-.428.763-.513.14-.043.42.178.542.35.497.698.655 1.57.343 2.29-.76 1.78-.485 3.595-.482 5.42 0 .895-.187 1.794-.34 2.684-.023.136-.34.307-.517.304-.174-.002-.472-.184-.497-.326zm.722 2.676c-.064-.123.123-.392.23-.572.044-.075.236-.154.278-.122.882.638 1.755 1.288 2.62 1.952.065.05.098.28.05.323-.162.145-.363.246-.653.43-1.15-.21-1.976-.94-2.524-2.013zm1.56 7.906c-.14-.163-.31-.35-.337-.546-.16-1.25.596-2.123 1.325-2.987.105-.12.448-.213.526-.144.24.213.41.512.708.914-.637.888-1.27 1.783-1.92 2.666-.054.075-.275.132-.304.1zm4.914-5.032c.15.45.102.855-.372 1.088.02.043.037.087.056.13-.066.033-.107.08-.16.118-.075.445-.003.96-.54 1.184 0 .043-.007.083-.01.126-.032.01-.058.025-.09.036.06 1.13-.555 2.045-1.035 2.994-.07.13-.41.23-.567.176-.164-.056-.4-.348-.366-.475.3-1.157.686-2.27 1.967-2.698-.002-.04.002-.077-.002-.117.04-.01.067-.03.102-.043.025-.47.135-.9.538-1.184.013-.076.028-.147.053-.214.02-.01.032-.025.053-.035-.12-.27-.246-.54-.347-.817-.16-.454-.205-.883.35-1.092l-.05-.106c.044-.004.066-.025.106-.034.02-.283.032-.568.07-.847.014-.1.106-.19.164-.283.068.078.182.147.197.235.085.423.03.78-.43.896l-.01.124c-.02.004-.03.013-.047.02.13.266.272.532.368.815zm2.228-.135c-.023.096-.117.175-.177.262-.06-.098-.162-.19-.17-.29-.047-.667-.095-1.333-.084-2 0-.18.203-.363.313-.54.106.19.247.372.303.58.06.21.032.443.053.85-.053.266-.134.703-.237 1.136zm3.667-2.304c-.075.81-.146 1.62-.245 2.426-.06.52-.67 1.176-.806.947-.168-.284-.256-.614-.356-.93-.034-.107 0-.23 0-.348.002-.23 0-.465 0-.697h.05c0-.464-.017-.93.006-1.393.03-.655.632-1.407.946-1.207.45.283.45.74.405 1.2zm.005-5.063c-.302.423-.91.77-1.43.875-2.515.5-4.844-.03-6.81-1.69-1.722-1.453-2-5.082-.752-7.078.548-.878 1.827-1.246 1.86-2.38.027-.89-.338-1.787-.496-2.687-.04-.216-.026-.523.098-.665.21-.235.512-.418.814-.515.096-.03.427.274.435.437.046.805 0 1.615.03 2.42.035.846.493 1.204 1.376 1.08.987-.14 1.935-.533 2.96.01.417.22.844-.194.974-.71.028-.113.012-.254.076-.336.18-.233.39-.446.593-.667.145.3.374.59.42.907.092.682.01 1.39.144 2.06.126.64.397 1.265 1.043 1.594l-.003-.032c.064-.01.124-.015.184-.024l.206-.215c-.032.067-.05.163-.107.19-.03.016-.065.02-.1.026l-.103.105c-.03-.013-.05-.035-.078-.05.054.446.027.927.2 1.324 1.04 2.413-.26 4.23-1.54 6.02zm3.117 7.81l-.064-.207.176.023-.114.184zm-.29-6.136l-.003.087c-.02 0-.036.005-.058.006.006.546.156 1.154-.04 1.614-1.045 2.436-.977 4.897-.356 7.4.03.11.14.24.1.317-.13.3-.26.622-.477.858-.09.096-.466.075-.587-.032-.245-.217-.632-.61-.565-.79.944-2.56.525-5.204.56-7.822.01-.845.356-1.534 1.365-1.545l-.002-.053c.026-.01.043-.026.064-.038.02-.636.03-1.27.082-1.903.01-.14.21-.26.32-.39.07.2.21.406.195.6-.053.613.08 1.314-.6 1.693zm4.728-3.477c-.65 1.233-.203 2.853-1.298 3.888-.435.412-.36 1.352-1.275 1.263-.047-.565-.164-1.133-.13-1.692.053-.922.22-1.838.31-2.758.028-.314.082-.843-.065-.923-1.374-.74-.9-1.952-.882-3.067.023-1.62.03-3.243-.007-4.864-.017-.707-.307-.757-1.144-.25-.098.06-.17.206-.264.22-.174.02-.463.03-.516-.063-.103-.175-.16-.46-.09-.644.312-.802 1.4-1.14 1.364-2.158l-.085-.02c-.045-.06-.093-.114-.136-.172-.317-.092-.634-.18-.945-.292-.055-.02-.107-.245-.068-.288.105-.105.356-.247.376-.224.227.257.43.532.638.804.075.02.15.047.224.07.006.044-.002.08 0 .122.416.107.853.175 1.227.363.414.21.78.587.55 1.117-.72 1.653-.686 3.394-.627 5.137.02.723.18 1.378.956 1.69.955.38 1.2 1.37 1.746 2.098.123.166.224.492.143.644zm.518-5.677c-.088.053-.24.16-.27.133-.242-.2-.55-.388-.66-.655-.125-.304-.063-.685-.082-1 .02-.38.028-.73.06-1.074.01-.11.08-.218.12-.324.128.128.316.235.373.388.207.533.376 1.082.547 1.628.095.31.33.642-.09.904zm1.725 9.3c-.06.168-.323.263-.487.39-.092-.202-.237-.397-.273-.61-.064-.334-.05-.683-.09-1.408.096-.413.224-1.2.486-1.935.077-.213.576-.44.815-.384.245.06.624.51.576.696-.275 1.097-.647 2.18-1.024 3.25zm.416-11.097c-.2-.53-.283-1.1-.368-1.463.072-.437.1-.668.15-.89.116-.492 1.027-.814 1.428-.53.83.595 1.102 1.44 1.11 2.406 0 .47-.583.968-1.206 1.06-.515.08-.94-.106-1.116-.583zm2.026 10.09c-.08-.018-.183-.208-.16-.28.144-.404.31-.806.49-1.198.035-.07.19-.083.292-.123.067.093.19.18.194.277.032.474-.546 1.4-.817 1.325zM65.5 76.74c-.272-.73-1.11-.994-1.493-1.783-1.736-3.57-4.565-6.12-8.235-7.546-2.897-1.123-5.885-2.144-8.88-1.793-1.038 0-1.85-.02-2.658.01-.46.02-.97.018-1.355.223-2.04 1.093-4.045 2.224-5.277 4.328-1.763 3.008-1.917 2.98-2.31 6.415-.698 6.107-.477 6.662 3.19 11.533.347.46.77.866 1.19 1.26 3.34 3.1 7.23 4.46 11.772 3.673.873-.155 1.554-.05 2.174.65.505.577 1.26.598 1.934.34 1.29-.497 2.522-1.196 3.844-1.58 2.687-.775 4.23-2.766 5.484-5.01 1.46-2.602 2.005-5.4 1.15-8.364-.224-.772-.26-1.61-.535-2.357zM60.34 84c-.972.826-1.875 1.728-2.88 2.5-2.066 1.584-4.492 1.718-6.844 1.565-.587 0-1.056-.058-1.513.007-2.73.398-4.64-1.154-6.47-2.78-1.164-1.032-1.81-2.514-1.942-3.983-.237-2.65-.27-5.34.62-7.926.108-.318.257-.784.5-.87 1.595-.57 2.81-2.058 4.682-1.955 4.716.26 8.735 2.08 12.166 5.297.734.69.9 1.596 1.176 2.472.31.98.087 2.1.81 2.983.795.98.643 1.876-.304 2.687z"/></svg>