<svg xmlns="http://www.w3.org/2000/svg" width="128" height="128" viewBox="0 0 128 128"><path d="M66.09 76.52c.73-.716 1.07-1.49.787-2.598-.38-1.49-1.06-2.787-1.933-4.02-.555-.785-1.318-1.566-1.48-2.442-.192-1.027 1.116-1.434 1.62-2.22.465-.72.913-1.447 1.33-2.19.37-.654.68-1.34 1.043-1.996.28-.508.742-.766 1.32-.763.75.006 1.504.013 2.25.074 1.66.142 3.18-.41 4.705-.904.644-.21 1.144-.726 1.147-1.417.004-2.573-.03-5.147-.116-7.717-.032-1.08-.765-1.803-1.723-2.123-1.41-.47-2.812-1.037-4.366-.954-.97.05-1.534-.425-1.773-1.46-.386-1.666-.95-3.29-1.44-4.934 1.36-1.17 2.73-2.333 4.074-3.518 1.127-.993 1.38-2.066.835-3.47-.156-.4-.3-.814-.54-1.164-1.62-2.394-3.26-4.774-4.9-7.157-.06-.086-.144-.16-.213-.24-1.056-1.147-3.19-1.728-4.67-.544-.586.47-1.204.896-1.757 1.397-1.028.936-2.02 1.913-3.028 2.872-1.27-.514-2.52-1.073-3.808-1.534-2.813-1.005-2.368-.688-2.56-3.64-.05-.748.043-1.516-.077-2.248-.153-.944-.384-1.888-.708-2.784-.226-.63-.79-1.03-1.49-1.06-.86-.037-1.718-.01-3.228-.01-1.38.16-3.406.364-5.42.64-1.356.183-1.846.75-1.932 2.126-.11 1.83-.028 3.637.593 5.4.29.838.043 1.217-.677 1.53-1.965.855-3.928 1.714-5.884 2.586-.87.386-1.088.398-1.702-.208-1.216-1.21-2.396-2.46-3.62-3.666-.605-.6-1.226-1.213-1.926-1.696-1.137-.783-2.204-.747-3.256.107-1.66 1.347-3.317 2.71-4.89 4.16-.818.757-1.118 1.744-.71 2.93.426 1.226.85 2.42 1.688 3.44.817.993 1.604 2.013 2.385 3.035 1.1 1.436 1.05 1.93-.147 3.365-.456.544-.963.828-1.667.715-.74-.117-1.475-.27-2.216-.368-1.705-.23-3.446-.482-5.107.01-1.56.463-1.82.582-1.813 2.18.005 1.182.075 2.367 0 3.542-.08 1.224.336 2.315.668 3.443.28.953.9 1.418 1.874 1.443 1.287.032 2.58.01 3.86.11 1.59.122 1.99.588 2.013 2.263.035 2.898.36 2.67-2.42 4.256-.652.372-1.347.69-1.936 1.144-1.105.843-2.22 1.693-3.19 2.674-1.164 1.17-1.164 2.17-.177 3.417 1.93 2.432 3.886 4.846 5.832 7.266.068.084.152.154.23.228.795.787 1.787.772 2.52-.067 1.406-1.617 2.79-3.257 4.208-4.863.306-.35.763-.414 1.152-.108 1.858 1.466 3.85 2.715 5.956 3.8.308.157.538.643.623 1.02.092.4-.004.85-.06 1.276-.257 2.018-.54 4.03-.793 6.05-.287 2.308.884 4.986 4.344 4.344 1.596-.296 3.183-.41 4.794-.386.32.003.642-.053.964-.06 1.486-.032 2.347-.92 2.916-2.165.175-.385.194-.836.343-1.235.59-1.544.49-3.167.583-4.77.025-.466.267-.826.752-.895 2.45-.336 4.837-.914 7.168-1.742.448-.16.83-.03 1.114.358.192.26.352.545.565.782 1.516 1.666 3.01 3.354 4.583 4.965.82.846 1.557.875 2.61.245 1.653-.992 3.28-2.03 4.903-3.067.363-.227.702-.5 1.008-.797zm-3.74-21.606c-.872 2.67-2.186 5.107-3.674 7.47-.937 1.48-.947 3.05-.205 4.6.418.863.958 1.663 1.453 2.484.443.734.93 1.44 1.34 2.19.357.656.234 1.134-.362 1.715-.46.45-.94.875-1.42 1.306-.41.367-.79.2-1.09-.137-.707-.802-1.424-1.602-2.062-2.46-.765-1.03-1.458-2.116-2.17-3.19-.47-.714-1.012-1.29-1.793-1.748-1.835-1.077-1.792-1.14-3.28.448-.082.085-.292.066-.44.056-.026-.003-.073-.187-.062-.278.032-.21.146-.418.14-.624-.01-.304-.027-.636-.156-.9-.378-.77-1.34-.94-1.847-.322-.402.49-.74 1.04-1.084 1.58-.4.628-.736 1.305-1.18 1.896-.124.165-.543.15-.82.13-.068-.003-.213-.386-.156-.524.416-.986.885-1.948 1.316-2.927.26-.586.58-1.172.688-1.79.064-.36-.164-.834-.405-1.154-.14-.192-.624-.337-.823-.24-.467.23-.955.544-1.254.956-1.532 2.09-2.556 4.452-3.424 6.877-.175.482-.118 1.055-.13 1.59-.036 1.712-.03 3.43-.093 5.142-.02.632-.117 1.285-.326 1.877-.22.625-.726 1.135-1.407 1.177-.946.058-1.904-.032-2.85-.107-.11-.006-.313-.37-.264-.47.31-.675.68-1.324 1.03-1.98.45-.847.95-1.672 1.347-2.545.35-.77-.235-1.337-1.187-1.067-.564.16-.767.05-.8-.465-.082-1.182-.097-2.355.54-3.435.214-.366.46-.782.47-1.18.01-.38-.18-.838-.434-1.136-.29-.344-.772-.35-1.157-.062-.34.256-.616.597-.966.836-.107.075-.368-.045-.544-.112-.052-.02-.112-.186-.084-.25.437-1.092.945-2.16 1.3-3.276.097-.302-.178-.813-.426-1.107-.315-.37-1.123-.24-1.412.21-.573.896-1.086 1.835-1.653 2.737-.096.157-.334.226-.508.336-.08-.29-.296-.625-.224-.87.187-.607.497-1.18.766-1.762.31-.682.69-1.34.93-2.043.13-.377.06-.834.01-1.248-.043-.388-.69-.758-.985-.563-.525.347-1.11.677-1.493 1.152-.602.74-1.035 1.62-1.602 2.395-.132.18-.578.307-.786.224-.395-.16-.75-.55-.555-1.014.452-1.086 1.03-2.118 1.47-3.21.195-.474.22-1.034.24-1.556.025-.614-.952-1.107-1.45-.716-.407.32-.84.693-1.067 1.145-.622 1.235-1.138 2.524-1.696 3.79-1.166.548-2.338 1.078-3.27 2.006-.226.224-.472.433-.722.638-.507.416-.917.39-1.365-.096-.214-.236-.402-.5-.58-.765-.276-.407-.248-.85.11-1.15.66-.54 1.383-1.005 2.067-1.52.535-.404.894-.93.933-1.617.166-2.885.323-5.77.48-8.657.01-.213 0-.43-.02-.643-.137-1.198-.838-2.108-2.032-2.105-2.013.006-3.7-1.024-5.557-1.487-.207-.053-.457-.47-.446-.712.01-.267.237-.617.472-.766.97-.62 2.048-.472 3.12-.33 1.162.152 2.327.377 3.492.386 1.088.01 1.988-.405 2.677-1.444.764-1.145 1.803-2.113 2.768-3.11 1.15-1.187 1.187-1.96.224-3.35-1.53-2.192-3.005-4.424-4.495-6.644-.116-.176-.18-.387-.293-.57-.274-.45-.088-.797.23-1.12.303-.303.6-.612.91-.906.6-.57.773-.56 1.314-.067 1.978 1.8 3.942 3.623 5.963 5.376 1.504 1.3 1.797 1.347 3.38.313 1.908-1.243 3.983-2.08 6.092-2.866 1.002-.373 2.024-.698 3.06-.95.704-.17 1.134-.458 1.253-1.22.198-1.266.56-2.512.158-3.808-.09-.298-.034-.64-.034-.963 0-.718.306-1.094 1.12-1.347.303-.095.624-.177.94-.19.44-.022.882.095 1.007.59.442 1.762.907 3.523 1.263 5.305.18.9.523 1.607 1.298 2.106 2.46 1.58 5.155 2.537 7.997 3.138.598.125 1.046-.17 1.45-.512 1.476-1.243 2.925-2.514 4.394-3.762.408-.345.825-.702 1.294-.94.203-.1.706-.005.814.164.69 1.083 1.383 2.176 1.927 3.334.583 1.238.25 2.22-.814 3.126-.894.764-1.813 1.504-2.645 2.332-.675.675-1.436 1.382-1.79 2.23-.4.97.645 1.708.99 2.57.72 1.79 1.523 3.536 1.845 5.46.088.518.317 1.02.514 1.512.212.53.62.864 1.194.944 1.8.256 3.6.49 5.397.76 1.057.157 1.39.635 1.313 1.87-.037.336-.056.77-.142 1.185-.095.46-.415.805-.88.727-2.52-.422-5.112-.392-7.555-1.29-.965-.35-1.722-.022-2.048.985zm57.304 29.088c-.395-.163-.787-.445-1.187-.46-2.71-.106-3.996-1.635-4.376-4.174-.076-.523-.34-1.013-.493-1.525-.18-.61.015-1.05.55-1.335 1.225-.656 2.443-1.327 3.677-1.968 1.37-.708 1.632-1.87 1.415-3.264-.468-3.014-2.1-5.34-4.336-7.296-.62-.544-1.39-.54-2.063-.014-1.52 1.184-3.02 2.4-4.522 3.603-.643.51-1.315.624-2.093.286-1.275-.555-2.555-1.106-3.865-1.566-.865-.302-1.134-.86-1.132-1.697 0-.75-.075-1.5-.096-2.25-.03-1.084-.51-1.725-1.574-2.14-3-1.174-6.043-1.22-9.122-.528-.457.103-.95.516-1.216.925-.587.912-.92 1.936-.563 3.392-.032-.124.043.08.073.29.123.87-.064 1.112-1.003 1.17-1.072.066-2.208-.066-3.13.565-1.516 1.04-2.778.644-4.047-.424-.487-.412-1.047-.76-1.624-1.032-.866-.41-1.752-.823-2.677-1.06-.955-.246-2.01-.204-2.71.586-1.2 1.358-2.326 2.793-3.41 4.25-.63.845-.58 1.81-.06 2.73.154.282.335.55.52.81.74 1.046 1.778 1.996 2.14 3.158.38 1.22-.82 2.35-1.05 3.608-.21 1.16-.5 2.316-.59 3.486-.08 1.08-.68 1.468-1.596 1.68-1.353.318-2.695.686-4.053.993-1.2.27-2.15.928-2.98 1.79-.42.44-.456.946-.21 1.483.09.195.17.402.304.565 1.362 1.69 2.23 3.648 3.118 5.6.352.78.776 1.534 1.255 2.24.74 1.088 1.613 1.327 2.77.75.957-.48 1.857-1.065 2.783-1.6.76-.446 1.012-.396 1.58.35.653.85 1.284 1.714 1.94 2.56.944 1.214 1.03 1.388.193 2.52-1.04 1.41-1.658 2.996-2.222 4.616-.267.775.004 1.522.7 1.904.373.203.768.384 1.178.5 1.965.564 3.844 1.267 5.54 2.476.657.466 1.58.63 2.407.76.99.156 1.586-.277 2.003-1.202.442-.975.875-1.954 1.307-2.932.335-.76.86-1.192 1.742-1.12 4.435.365 3.723-.51 4.623 3.964.223 1.106.727 1.997 1.45 2.81.53.598 1.192.937 1.99.833.74-.096 1.47-.277 2.197-.443 1.248-.282 2.493-.57 3.737-.875.622-.154 1.245-.324 1.85-.528.943-.315 1.354-1.118 1.036-2.016-.145-.4-.352-.78-.544-1.16-.687-1.334-1.385-2.664-2.064-4-.36-.71-.306-.91.277-1.315.173-.122.35-.245.533-.354 2.918-1.726 5.4-3.845 6.665-7.136.292-.763.697-.85 1.564-.513 1.61.623 3.232 1.138 4.99 1.084 1.277-.04 2.638-.976 2.833-2.2.427-2.637.73-5.293 1.067-7.945.142-1.12-.398-1.84-1.402-2.26zm-2.788 3.73c-.02.106-.056.206-.073.313-.604 3.54-.78 3.654-4.064 2.603-2.498-.798-3.73-.32-5.133 1.813-.765 1.168-1.557 2.315-2.283 3.504-1.024 1.68-2.366 3.04-3.984 4.14-2.556 1.73-3.444 2.548-2.03 6.154.197.496.35 1.01.497 1.525.28.98.064 1.393-.866 1.7-.2.066-.403.14-.612.19-1.003.24-1.45-.038-1.58-.982-.258-1.91-.51-3.82-.773-5.727-.066-.476-.36-.763-.825-.84-.316-.053-.646-.093-.96-.06-2.068.222-4.034-.055-5.938-.968-1.056-.504-1.566-.296-2.168.658-.57.903-1.123 1.832-1.565 2.803-1.066 2.334-.617 2.25-3.124.86-.452-.254-.846-.614-1.235-.903.118-.32.165-.533.268-.715.583-1.024 1.208-2.027 1.76-3.066.35-.654.69-1.34.87-2.052.19-.745.076-1.525-.63-2.022-2.056-1.448-3.635-3.307-4.852-5.496-.153-.274-.416-.487-.634-.723-1.296-1.388-1.57-1.427-3.298-.556-.576.29-1.158.56-1.742.827-3.072 1.408-2.34 1.6-4.14-1.134-.46-.697-.25-1.214.47-1.442 1.733-.547 3.452-1.135 5.18-1.69 1.558-.497 2.47-1.47 2.895-3.114.56-2.174 1.266-4.323 2.108-6.4.647-1.594.068-2.78-.984-3.724-.97-.87-1.86-1.766-2.57-2.848-.693-1.056-.173-2.588 1.073-3.243.46-.242.8-.015 1.146.25 1.354 1.048 2.7 2.113 4.076 3.133 1.25.923 2.49 1.027 3.83.03 1.452-1.078 3.116-1.343 4.87-.78.205.067.408.144.618.183 1.248.233 2.176-.36 2.32-1.57.11-.956.095-1.926.138-2.89.023-.643-.01-1.295.096-1.923.043-.242.376-.58.61-.614.737-.105 1.494-.102 2.24-.103.486 0 .805.276.87.76.197 1.483.415 2.965.54 4.455.067.83.423 1.45 1.07 1.877.617.413 1.294.762 1.98 1.045.59.243 1.297.24 1.84.544 1.878 1.06 3.687.688 5.53-.053 2-.806 3.91-1.74 5.468-3.288.634-.63.956-.553 1.472.21.24.354.472.717.69 1.087.576.963.507 1.45-.477 2.158-1.04.75-2.145 1.414-3.23 2.1-.454.285-.96.49-1.396.795-.743.515-1.237 1.247-1.22 2.154.02 1.06.132 2.128.33 3.17.237 1.258.65 2.48.895 3.737.143.72.517 1.203 1.143 1.427 1.61.58 3.24 1.09 4.864 1.62.754.246.785.286.626 1.108zM76.043 40.168c0 .106-.003.212 0 .32.053 2.64 1.045 3.455 3.623 2.98.21-.037.416-.095.625-.146.92-.222 1.93-.784 2.737-.576.827.213 1.427 1.227 2.187 1.81 1.544 1.185 1.54 1.44.655 3.213-.335.672-.673 1.342-.985 2.022-.546 1.184-.34 2.048.686 2.797.34.247.73.447 1.118.607 3.637 1.498 3.906.412 4.91-1.956.452-1.084.675-2.367 1.41-3.207.843-.966 2.22.14 3.346-.23.402-.133.843-.172 1.267-.207.607-.053 1.02.256 1.243.802.565 1.388 1.102 2.786 1.675 4.172.33.798.757 1.525 1.5 2.04.62.43 1.18.516 1.786.124.717-.467 1.392-1.005 2.125-1.445 2.62-1.573 2.63-1.6 1.197-4.128-.475-.835-.928-1.69-1.305-2.573-.308-.723-.312-1.448.4-2.028.746-.604 1.367-1.518 2.21-1.806.916-.316 1.644.77 2.523 1.102.5.187.946.516 1.448.692.5.173 1.028.286 1.553.33.562.048 1.067-.185 1.333-.71.774-1.54 1.37-3.14 1.492-4.884.076-1.124-.197-1.623-1.185-2-1.203-.452-2.414-.88-3.632-1.283-.698-.23-1.08-.63-1.047-1.392.02-.534-.02-1.072 0-1.607.02-.613.37-.952.963-1.082 1.358-.3 2.72-.58 4.066-.935.77-.203 1.32-.693 1.383-1.57.03-.427.095-.853.1-1.28.02-2.106-.99-2.79-3.113-2.133-.41.128-.832.218-1.23.38-1.226.507-2.51.532-3.796.426-.4-.03-.844-.213-1.154-.466-1.978-1.604-1.995-2.096-.245-4.017.22-.238.43-.48.66-.704 1.45-1.403 1.527-2.09-.142-3.724-.454-.448-.973-.845-1.51-1.188-.487-.313-1.075-.296-1.49.11-.918.893-1.822 1.812-2.65 2.788-.547.644-1.142.9-1.964.774-.636-.096-1.31-.252-1.917-.134-2.063.397-3.227-.456-3.755-2.406-.11-.407-.388-.765-.54-1.163-1.428-3.732-1.84-2.813-4.696-1.644-.296.122-.61.226-.877.397-.773.495-1.233 1.146-.81 2.162.45 1.086.89 2.176 1.325 3.267.224.57.08 1.063-.41 1.394-.268.18-.56.32-.826.498-.893.59-1.718 1.523-2.685 1.7-1.19.22-1.926-1.136-2.933-1.693-.89-.496-1.622-.49-2.373.13-1.435 1.18-2.444 2.693-3.326 4.295-.592 1.077-.315 2.128.817 2.726 1.13.6 2.35 1.02 3.52 1.54.42.187.66.54.61 1.02-.03.32-.095.64-.19.943-.276.907-.355 2.008-.94 2.648-.474.53-1.545.59-2.374.73-1.984.335-2.47.866-2.402 3.05.004.107.002.213.002.32h.01zm10.3-11.86c1.673-2.476 3.843-4.58 7.07-5.016.413-.056.843-.066 1.26-.03 1.276.112 2.545.29 3.82.38 1.338.095 2.52.513 3.398 1.548 1.31 1.55 2.64 3.088 3.83 4.725.96 1.314 1.53 2.825 1.328 4.02-.043 3.246-1.106 5.452-3.317 7.122-2.015 1.524-4.2 2.52-6.777 2.46-1.035-.022-1.794-.337-2.22-1.454-.3-.786-.932-.687-1.753.107-.572.555-.577.555-.795-.2-.06-.203-.048-.43-.123-.624-.286-.737-.813-.924-1.483-.516-.274.165-.495.42-.774.57-.153.083-.424.115-.555.032-.15-.09-.3-.366-.262-.516.17-.72.445-1.42.605-2.144.085-.4.102-.853 0-1.244-.07-.258-.378-.55-.64-.63-.245-.077-.688.003-.843.185-.405.475-.738 1.024-1.026 1.582-.198.377-.286.844-.837.46-.428-.298-.357-.727-.163-1.137.41-.87.835-1.732 1.242-2.603.272-.58.554-1.158.778-1.757.162-.43.048-.832-.337-1.13-.423-.332-.865-.188-1.13.124-.547.644-.995 1.373-1.493 2.06-.055.077-.245.164-.263.146-.113-.128-.29-.29-.283-.43.146-2.16.57-4.35 1.746-6.094zM45.323 43.95c-.88-.916-1.94-1.27-3.418-1.166-3.608-.005-6.204 1.84-7.723 5.337-.538 1.233-.683 2.5-.405 3.758.347 1.563.978 3.03 1.918 4.367 1.523 2.163 3.633 2.866 6.144 2.592 1.054-.114 2.11-.32 3.137-.58 2.693-.674 4.594-2.745 4.617-5.46.02-2.58-.538-5.097-2.41-7.088-.585-.62-1.273-1.14-1.863-1.758zM42.94 54.19c-1.47.54-3.587-.605-4.066-2.2-.602-2.007.288-4.433 2.06-5.596.644-.423 1.616-.485 2.084-.02 1.224 1.207 2.23 2.553 2.283 4.167.04 1.697-.947 3.134-2.36 3.65zm50.8 25.13c-1.842-.35-5.55.39-7.012 1.52-1.34 1.033-2.088 2.366-2.153 4.097-.078 2.18.676 3.932 2.368 5.332 1.458 1.202 3.147 1.913 4.966 1.983 2.99.112 6.08-3.18 6.136-6.99-.142-.576-.344-1.847-.787-3.03-.598-1.592-1.785-2.583-3.52-2.915zm.17 8.46c-.844.788-1.81 1.07-2.92.747-.97-.285-1.656-1.567-1.397-2.55.422-1.6 2.338-3.098 4.23-3.13.178.098.6.232.87.51.28.29.506.703.596 1.1.327 1.42-.418 2.42-1.384 3.324zm2.284-48.694c.773-.015 1.483-.21 2.09-.698.756-.6 1.53-1.178 2.246-1.82.743-.667 1.265-1.55 1.213-2.54-.153-2.922-1.01-4.73-3.546-5.48-.675-.2-1.442-.082-2.168-.11 0 .04 0 .08-.004.122-.21-.038-.42-.1-.63-.11-2.108-.12-3.775.976-4.394 2.915-.192.61-.26 1.26-.44 1.874-.26.875-.118 1.68.24 2.496.903 2.054 3.04 3.392 5.39 3.35zm-.196-7.755c1.397.007 2.23.985 2.204 2.57-.03 1.69-.944 2.63-2.558 2.645-1.387.01-2.32-1.027-2.267-2.526.05-1.52 1.195-2.69 2.622-2.688z"/></svg>