<svg xmlns="http://www.w3.org/2000/svg" width="128" height="128" viewBox="0 0 128 128"><path d="M114.94 36.27c-.41-.1-.843-.148-1.27-.174-2.992-.16-5.987-.402-8.985-.448-7.182-.105-14.366-.102-21.55-.17-2.56-.028-5.145.234-7.67-.48-.398-.112-.854-.07-1.277-.022-1.506.17-2.322.958-2.517 2.46-.11.85-.094 1.715-.214 2.563-.077.55-.41 1.03-.996 1.127-3.318.55-6.63.017-9.942-.087-.238-.005-.51-.353-.683-.598-.18-.256-.333-.573-.378-.88-.192-1.326-1.115-1.966-2.176-2.585-2.23-1.294-4.63-1.59-7.147-1.568-1.38.14-2.76.29-4.142.42-3.302.32-6.605.64-9.91.936-3.2.284-6.417.405-9.595.835-3.707.507-7.38 1.25-11.065 1.92-.52.093-1.025.314-1.516.526-.708.302-.925.93-.736 1.824.176.837.34 1.676.44 2.523.084.715.33 1.29 1.114 1.298 1.03.013 1.58.53 1.86 1.446.25.817.56 1.62.735 2.46.956 4.508 2.393 8.865 3.925 13.204.657 1.863 1.707 2.863 3.693 2.946 2.352.098 4.7.35 7.05.413 4.396.115 8.79.112 13.185.23 1.85.05 3.613-.34 5.393-.723 1.365-.293 2.22-1.06 2.848-2.328 1.906-3.838 3.738-7.704 5.314-11.687.608-1.54 1.586-2.784 2.728-3.925.963-.96 2.154-1.382 3.518-1.176.636.096 1.266.376 1.888.35 1.973-.077 3.266.898 4.156 2.517.512.93.98 1.894 1.357 2.884 1.306 3.408 2.773 6.725 4.69 9.85.855 1.397 1.944 2.256 3.47 2.594.83.187 1.694.218 2.544.298 2.238.205 4.494.285 6.71.62 3.195.485 6.367.802 9.585.258.61-.102 1.27.077 1.91.128.534.045 1.068.136 1.598.13 1.48-.017 2.67-.525 3.507-1.858 1.598-2.542 3.175-5.075 4.33-7.87 1.153-2.786 2.05-5.636 2.627-8.58.345-1.76.96-3.282 2.506-4.307.58-.385.835-.963.91-1.625.114-1.06.316-2.123.284-3.18-.046-1.41-.747-2.156-2.095-2.49zm-61.786 8.99c-.535 2.614-1.067 5.23-1.53 7.855-.284 1.6-.715 3.125-1.59 4.5-1.44 2.258-1.08 2.375-3.92 2.525-2.346.124-4.654.5-6.994-.078-.602-.15-1.31-.136-1.91.02-2.687.697-5.327-.026-7.973-.223-2.208-.16-3.836-1.288-4.322-3.625-.695-3.34-1.728-6.603-2.056-10.02-.114-1.194.425-2.09 1.63-2.386 3-.737 5.963-1.81 9.227-1.123 1.73-.224 3.526-.467 5.323-.677.85-.1 1.704-.18 2.557-.193 2.568-.028 5.135-.02 7.705-.026.427 0 .855.008 1.282.04 2.165.165 3.002 1.31 2.57 3.414zm51.175 12.83c-.37.89-1.01 1.366-1.916 1.505-.736.113-1.486.205-2.23.218-2.996.046-5.997.048-8.995.087-2.06.03-4.033-.512-6.006-.955-2.417-.54-3.765-2.37-4.632-4.512-.474-1.17-.62-2.475-.867-3.73-.33-1.672-.64-3.355-.907-5.042-.113-.734-.13-1.49-.113-2.24.017-.774.614-1.452 1.37-1.555.74-.1 1.49-.14 2.24-.143 3.426-.012 6.85-.005 10.278-.005v.186h9.637c.642 0 1.286-.03 1.927.012 2.186.13 3.558 1.653 3.374 3.82-.37 4.293-1.516 8.39-3.165 12.362zm-7.1 19.21c-.135-.242-.503-.488-.76-.485-.244.004-.63.29-.695.527-.403 1.39-1.264 2.464-2.21 3.5-1.947 2.135-4.277 2.617-7.022 1.842-1.927-.542-3.445-1.707-4.984-2.865-1.2-.906-2.326-1.904-3.524-2.807-1.467-1.107-3.096-1.85-4.877-2.376-2.66-.79-4.81.198-6.876 1.63-.514.356-.82 1.172-1.348 1.322-.856.242-.98-.914-1.596-1.263-.554-.317-1.07-.708-1.648-.964-2.638-1.16-5.21-.984-7.714.435-1.594.902-3.043 1.987-4.46 3.146-1.573 1.285-3.205 2.54-4.966 3.53-2.035 1.148-4.286 1.356-6.492.348-1.736-.79-2.848-2.236-3.714-3.883-.245-.467-.38-1.005-.683-1.426-.113-.15-.69-.186-.847-.043-.384.348-.82.79-.928 1.265-.725 3.173-.512 6.194 1.813 8.736.578.63 1.224 1.217 1.92 1.708 3.14 2.212 6.63 3.48 10.487 3.572 3.003.072 5.984-.165 8.976-.557 4.096-.537 6.958-2.552 8.785-6.172.288-.57.484-1.183.755-1.763.02-.05.38-.04.422.03.376.652.69 1.334 1.067 1.983 2.09 3.605 5.124 5.664 9.377 5.82 1.71.065 3.41.37 5.12.436 5.074.19 9.77-.924 13.885-4.08C96.87 86.62 98.25 84.37 98.08 81.3c-.037-.753.007-1.518-.135-2.245-.12-.612-.412-1.208-.72-1.758zM43.68 87.634c-.42.032-.847-.008-1.272-.027-.105-.005-.224-.02-.31-.075-.13-.08-.24-.2-.358-.3.092-.053.18-.13.28-.146.526-.072 1.055-.128 1.69-.203l.502.466c-.178.1-.347.27-.53.287zm5.253-1.995c-.096.313-.213.81-.402 1.28-.063.157-.3.246-.46.366-.16-.21-.475-.452-.443-.625.11-.586.317-1.162.546-1.716.064-.15.328-.222.5-.33.086.176.185.347.252.528.034.093.008.206.008.497zm3.69-1.656c-.038.123-.223.203-.376.29v.12c-.035.014-.057.032-.086.046-.003.602 0 1.204-.036 1.806-.01.125-.21.242-.32.36-.07-.193-.21-.388-.2-.575.04-.58-.122-1.252.555-1.587v-.115c.026-.018.055-.034.084-.05.026-1.095-.166-2.23.58-3.196.063-.077.16-.127.244-.194.097.14.296.3.272.41-.21.908-.448 1.806-.72 2.69zm3.935-1.758c0 .144-.128.284-.198.427-.06-.194-.156-.384-.166-.584-.026-.415-.008-.83-.008-1.505.05-.352.11-.965.243-1.564.027-.12.346-.29.472-.25.134.042.322.35.28.464-.37.973-.63 1.96-.625 3.01zm4.053-2.645c-.15.374-.35.73-.577 1.06-.1.15-.32.21-.483.313-.08-.183-.188-.36-.235-.552-.045-.195-.032-.404-.045-.607.02-.203-.01-.43.07-.6.117-.256.227-.576.645-.48.392.088.76.53.623.87zm9.527 1.11c-.022.064-.127.105-.193.156-.305-.538-.63-1.07-.89-1.627-.048-.1.148-.353.28-.488.198-.202.726-.104.8.136.09.296.164.597.244.885-.084.332-.15.64-.242.94zm3.21.227c-.02.178-.124.352-.193.523-.066-.193-.147-.383-.2-.583-.163-.602-.334-1.205-.45-1.82-.018-.095.225-.262.374-.354.057-.035.257.027.272.08.12.39.21.79.208.786 0 .734.02 1.05-.01 1.363zm4.614 5.238c-.024.028-.247-.053-.26-.11-.334-1.605-1.105-3.124-.983-4.822-.02-.01-.046-.02-.064-.03-.01-.03-.015-.07-.017-.113l-.364-.196c.405-.284.356-.01.363.195l.082.043c-.003.032 0 .066-.003.1.167.076.39.135.42.25.393 1.414.758 2.837 1.1 4.267.03.115-.16.294-.277.415zm3.905.704c-.25-.11-.555-.305-.643-.536-.218-.58-.34-1.198-.46-1.81-.022-.1.183-.245.282-.366.11.064.235.096.282.173.316.53.64 1.054.91 1.6.2.406-.092 1.06-.37.94zm5.372.484c-.718.323-1.453.153-1.856-.465-.05-.076.073-.364.18-.42.167-.08.39-.042.76-.065.225.117.586.286.933.48.07.043.11.18.115.277.003.063-.067.16-.13.193z"/></svg>