<svg xmlns="http://www.w3.org/2000/svg" width="128" height="128" viewBox="0 0 128 128"><path d="M118.23 64.992c0-2.01-.048-4.02.01-6.027.08-2.702-.33-5.344-.88-7.963-.417-1.96-.99-3.885-1.505-5.822-.866-3.257-2.148-6.322-4.01-9.15-1.106-1.675-2.134-3.405-3.126-5.15-2.15-3.79-5.23-6.658-8.91-8.882-1.9-1.15-3.9-2.163-5.936-3.055-2.244-.98-4.604-1.694-6.87-2.626-2.614-1.074-5.273-1.722-8.127-1.51-.992.073-2.06.05-2.987-.25-1.535-.5-3.075-.505-4.634-.48-2.34.036-4.69.025-7.022.23-2.658.234-5.323.622-7.836 1.56-2.607.97-5.122 2.16-7.46 3.714-2.41 1.605-4.93 3.055-7.335 4.674-4 2.697-7.616 5.813-10.398 9.813-2.04 2.925-4.123 5.82-6.128 8.772-.62.912-1.086 1.94-1.557 2.946-1.527 3.262-2.387 6.722-2.77 10.286-.24 2.24-.526 4.388-2.297 6.04-.386.36-.557.96-.802 1.46-1.035 2.1-2.09 4.19-3.083 6.312-1.82 3.89-2.79 8-2.83 12.288-.025 2.256.42 4.42 2.38 5.963.696.546 1.245 1.277 1.89 1.89 2.193 2.098 4.814 3.185 7.845 3.246 1.676.034 3.35.073 5.023-.01 1.14-.06 1.91.336 2.496 1.297 1.753 2.87 3.957 5.39 6.18 7.89 1.864 2.094 3.906 4.005 6.418 5.3 6.123 3.155 12.697 4.84 19.505 5.494 3.864.374 7.75.507 11.67.236 6.623-.456 12.993-1.798 19.23-3.997 5.676-2.003 10.118-5.66 13.625-10.356 2.654-3.55 5.077-7.328 6.575-11.58.63-1.78 1.21-3.582 1.835-5.368 1.077-3.074 1.65-6.244 1.787-9.49.107-2.562.14-5.13.203-7.696-.055-.003-.11-.003-.17-.004zm-13.2-25.91c.515-.304 1.14-.08 1.344.498 1.502 4.286 3.22 8.5 3.797 13.063.27 2.09.71 4.155.65 6.28-.02.733-.27 1.262-.975 1.57-2.034.888-4.02 1.902-6.1 2.66-1.113.404-2.38.383-3.582.554-.004-.046-.013-.092-.017-.14h-.334c-2.175-.047-2.298-.162-2.34-2.24-.027-1.442-.033-2.887-.058-4.33-.056-3.78-.55-7.517-1.13-11.246-.07-.435-.184-.896-.108-1.316.067-.402.324-.787.56-1.13.113-.164.37-.24.575-.324 2.67-1.11 5.233-2.428 7.72-3.9zM75.846 21.36c.44-.012.89.018 1.33-.01 2.05-.122 3.46.68 4.785 2.358 3.44 4.352 5.666 9.243 7.27 14.478.25.806-.006 1.312-.8 1.523-1.285.342-2.575.715-3.886.873-2.86.344-5.733.584-8.604.818-.54.046-1.1-.123-1.644-.214-.603-.1-1.003-.416-1.075-1.067-.2-1.874-.44-3.745-.61-5.62-.266-2.984-.49-5.97-.654-8.008-.085-5.72-.64-5.008 3.89-5.135zM52.608 37.324c1.11-4.66 2.394-9.267 4.096-13.752.474-1.25 1.175-1.96 2.57-2.27 2.386-.53 4.69-1.397 7.192-1.198.55.043.802.352.808.843.02 1.784.004 3.568.004 5.352-.06.003-.124.01-.184.012.216 2.55.435 5.1.65 7.652.03.33.062.668.06 1.003-.005 1.877-.018 3.758-.026 5.637-1.797.912-3.694.297-5.523.256-3.002-.07-6-.412-8.995-.666-.477-.04-.82-.378-.813-.88.006-.667.008-1.352.162-1.992zm-11.51-3.616c2.828-3.764 6.32-6.803 10.238-9.374.17-.113.58-.187.606-.136.13.245.24.548.213.818-.03.32-.207.626-.314.94-.924 2.727-1.87 5.448-2.76 8.185-.41 1.263-.69 2.565-1.06 3.84-.25.85-.625 1.087-2.186.945-.67-.213-2.048-.606-3.397-1.092-1.103-.395-2.408-.36-3.217-1.425.624-.9 1.22-1.824 1.876-2.7zM25.135 87.135c-1.373.064-2.7-.258-3.836-.945-2.32-1.396-3.877-3.29-3.548-6.263.347-3.11 1.04-6.112 2.457-8.917.093-.183.316-.302.476-.45.14.164.367.31.412.494.4 1.614.89 3.216 1.113 4.853.427 3.147 1.585 5.986 3.206 8.674.227.384.448.77.653 1.165.5.97.19 1.426-.937 1.394zm1.397-29.01c.223-1.418.787-2.786.964-4.205.224-1.823.947-3.423 1.837-4.96 1.62-2.798 3.574-5.364 5.75-7.754.62-.68.868-.687 1.728-.306 2.64 1.166 5.28 2.334 7.93 3.482 1.71.74 1.68.864 1.354 2.766-.49 2.837-.682 5.728-.957 8.6-.19 1.992-.254 3.992-.472 5.978-.116 1.063.477 2.498-.58 3.096-.863.486-2.132.256-3.226.34-4.133-.164-8.185-.86-12.23-1.574-.54-.096-1.1-.267-1.568-.54-.337-.19-.753-.616-.757-.94-.01-1.328.024-2.67.23-3.98zm6.814 27.933c-.663.19-1.11-.017-1.394-.534-2.648-4.802-4.845-9.77-5.58-15.27-.042-.33-.028-.667-.03-1 0-.463.417-.78.903-.694 1.203.21 2.4.47 3.61.626 3.418.435 6.84.832 10.265 1.242.33.038.668.03 1 .067 3.316.376 2.943.847 3.05 3.237.087 1.995.382 3.98.516 5.28.245 1.54.035 2.222-.824 2.6-3.773 1.653-7.54 3.307-11.516 4.446zm16.29 15.782c-.316-.107-.62-.25-.932-.368-3.307-1.266-8.597-5.175-10.64-7.864-.474-.624-.23-1.283.583-1.49.754-.19 1.547-.268 2.278-.514 2.096-.704 4.17-1.478 6.264-2.19.1-.033.404.234.45.406.58 2.146 1.13 4.3 1.692 6.453.42 1.61.853 3.214 1.278 4.82-.114.53-.535.895-.977.748zm21.945 2.773c-1.9.034-3.797.01-5.693.01-.002.05-.002.097-.002.146-2.01-.085-4.02-.11-6.022-.273-1.805-.15-3.093-1.043-3.74-2.846-1.28-3.565-2.652-7.1-3.98-10.644-.08-.21-.136-.424-.192-.64-.312-1.197.044-1.758 1.215-1.75 2.225.022 4.467-.226 6.66.412.527.152 1.105.148 1.664.19 2.88.2 5.76.385 8.642.583.758.054 1.2.43 1.39 1.21.133.54.27 1.09.305 1.645.24 3.552.178 7.13.843 10.653.155.825-.267 1.29-1.088 1.307zm18.43-13.85c-.618 2.36-1.25 4.715-1.94 7.056-.41 1.382-.92 2.74-1.427 4.092-.292.785-.885 1.246-1.743 1.362-1.765.24-3.524.504-5.285.757l-.013-.063c-.33.03-.663.073-.997.085-.66.028-1.15-.293-1.197-.864-.34-4.103-.97-8.188-.707-12.324.04-.667.38-1.052 1.013-1.067 1.338-.033 2.677.014 4.013-.048 2.333-.106 4.66-.265 6.993-.4.98-.054 1.527.496 1.29 1.41zm2.04-28.103c-.033.798-.385 1.106-1.31 1.14-1.004.042-2.015-.02-3.01.07s-2 .236-2.946.524c-.608.188-1.173.622-1.666 1.045-.77.663-.644 1.717.166 2.277.668.462 1.392.66 2.197.678 1.785.043 3.57.1 5.353.186.89.044 1.216.355 1.216 1.226-.018 3.458-.04 6.917-.124 10.376-.02.76-.267 1.53-.506 2.264-.086.26-.423.537-.7.612-.42.113-.883.07-1.33.077-2.342.04-4.686.046-7.027.122-1.11.035-2.216.21-3.323.302-.657.054-1.355.21-1.973.06-.797-.195-.544-1.117-.828-1.684-.15-.294-.328-.586-.53-.844-.847-1.056-2.377-.996-3.14.123-.186.27-.45.575-.46.87-.06 1.603-1.11 2.032-2.436 2.138-4.33.344-8.66.677-12.994.996-.19.014-.398-.16-.6-.243.086-.18.146-.39.274-.54.144-.162.348-.276.536-.394 1.32-.834 2.624-1.69 3.965-2.49 3.845-2.297 7.277-5.147 10.75-7.943.343-.277.697-.555 1.082-.773.1-.056.405.064.476.186.226.376.302.86.58 1.178.75.867 1.908.89 2.614.047.494-.59.956-1.242 1.28-1.94 1.213-2.626 2.398-5.27 3.53-7.935.52-1.23.945-2.507 1.306-3.79.175-.624.14-1.32.117-1.98-.016-.54-.856-1.25-1.405-1.244-.325.005-.672.032-.964.156-3.904 1.652-8.01 2.708-12.024 4.042-.105.036-.208.078-.317.107-1.265.32-2.48.877-2.425 2.34.05 1.345.565 2.596 2.17 3.015.736.192.713.33.136.782-2.54 1.992-5.06 4.014-7.64 5.954-2.69 2.023-5.724 3.45-8.758 4.86-.495.23-.943.063-1.012-.43-.16-1.09-.288-2.19-.35-3.293-.02-.426.23-.865.24-1.3.014-.733-.793-1.6-.007-2.15.577-.4 1.48-.305 2.22-.496 2.26-.58 4.508-1.18 6.87-1.263.735-.025 1.492-.42 2.172-.78.613-.32.975-.905.912-1.654-.053-.604-.606-1.252-1.27-1.402-2.932-.658-5.876-1.257-8.888-.427-.318.09-.656.117-.988.142-.534.04-1.126-.414-1.223-.933-.06-.328-.127-.66-.13-.99-.013-3.343-.254-6.688.357-10.014.2-1.09.146-2.225.237-3.337.072-.888.14-1.78.3-2.654.316-1.74.39-1.734 2.12-1.56 2.322.23 4.657.39 6.988.58 0 .05-.003.097-.007.145 2.005.075 4.014.14 6.02.224.666.028 1.345.043 1.99.18.25.057.532.415.618.69.126.415.094.878.126 1.32.182 2.55.362 5.1.557 7.647.026.324.11.667.256.957.314.615.774 1.096 1.515 1.163.563.05 1.312-.47 1.522-1.117.27-.846.6-1.703.688-2.58.224-2.32.936-4.588.7-6.964-.085-.847.313-1.065 1.25-1.058 4.575.032 9.118-.215 13.57-1.373.432-.11.867-.224 1.307-.264.5-.044.805.29 1.003.71.096.2.173.42.2.64.656 5.21 1.01 10.43.83 15.682zm2.177-25.75c-.32-.703-.5-1.47-.776-2.196-.916-2.39-1.846-4.764-3.25-6.933-.587-.9-.984-1.925-1.46-2.896-.034.01-.067.008-.105.02-.003-.05 0-.104 0-.155l-.245-.245c.074.03.19.043.217.098.02.043.026.096.027.15l.08.078.026.056c.533-.15 1 .047 1.468.307 2.04 1.136 4.183 2.117 6.105 3.43 1.912 1.31 3.602 2.94 5.373 4.45.34.287.272.924-.078 1.172-2.014 1.434-4.263 2.382-6.603 3.115-.205.065-.672-.217-.78-.447zm6.333 56.53c-1.37 1.98-3.212 3.372-5.413 4.307-.06.025-.213-.035-.24-.094-.084-.192-.22-.42-.178-.6.425-1.84.88-3.676 1.34-5.51.05-.205.147-.43.294-.576.14-.14.435-.304.56-.245 1.196.573 2.377 1.178 3.538 1.813.134.073.134.388.197.59-.033.106-.04.228-.103.316zm9.65-20.167c-1.077 4.445-2.677 8.71-4.65 12.832-.45.936-.66 1.026-1.543.658-1.643-.683-3.28-1.383-4.896-2.128-1.644-.76-1.815-.975-1.487-2.833.39-2.222.24-4.442.224-6.667-.005-.552-.144-1.103-.176-1.658-.05-.89-.14-1.785-.08-2.668.158-2.34.735-2.384 2.42-2.316 2.816.114 5.54-.21 8.187-1.227 2.704-1.04 2.713-1.02 2.758 1.746-.25 1.42-.416 2.86-.755 4.258z"/></svg>