<svg xmlns="http://www.w3.org/2000/svg" width="128" height="128" viewBox="0 0 128 128"><path d="M38.212 95.72c-.096-.047-.213-.042-.32-.076-.672-.218-1.112-.648-1.3-1.352-.686-2.542-1.38-5.08-2.08-7.616-.157-.56.155-.838.6-.925 1.076-.207 2.172-.32 3.247-.53.74-.148 1.513-.3 2.18-.636 1.26-.632 1.773-1.984 1.42-3.355-.27-1.048-1.514-1.95-2.804-1.866-.864.056-1.714.32-2.566.514-.96.216-1.908.498-2.876.66-.248.044-.636-.19-.813-.418-.186-.24-.2-.614-.286-.93-.795-2.864-1.106-5.802-1.476-8.744-.388-3.072-.305-6.138-.324-9.21-.006-.767.388-1.082 1.31-1.087 2.964-.016 5.933-.006 8.9-.006v.043c2.527 0 5.054.006 7.58-.002 2.518-.008 2.806-.1 2.31 2.773-.217 1.256.156 2.605.15 3.91-.005 1.317.645 2.294 1.418 3.237.515.626 1.51.642 2.033.028 1.084-1.272 1.925-2.648 2.045-4.395.082-1.195.3-2.383.48-3.57.213-1.387.363-1.557 1.572-1.536 4.506.077 9.01.162 13.515.282 1.798.048 2.57.824 2.613 2.613.015.642-.216 1.288-.29 1.94-.035.31-.05.668.065.95.728 1.825 3.1 2.237 4.302.716.387-.49.656-1.148.764-1.766.15-.858.088-1.752.128-2.628.06-1.223.294-1.466 1.623-1.476 2.966-.023 5.934-.016 8.9-.017 1.1 0 2.198-.008 3.297.02.87.022 1.246.353 1.267 1.142.026.986-.006 1.976-.01 2.964-.005.546-.07 1.102 0 1.64.135 1.075.778 1.825 1.763 2.198 1.016.384 1.952.15 2.69-.677.81-.9 1.65-1.8 1.945-3.016.945-3.878 1.204-7.788.57-11.753-.72-4.47-1.995-8.774-3.86-12.885-2.934-6.462-6.625-12.39-12.282-16.89-1.973-1.57-3.947-3.14-5.835-4.812-3.085-2.727-6.58-4.706-10.428-6.13-3.74-1.382-7.63-1.952-11.565-2.347-.98-.1-1.958-.238-2.94-.333-1.524-.143-3.052-.39-4.574-.368-3.64.05-7.18.85-10.664 1.824-5.122 1.432-9.784 3.91-14.194 6.804-2.58 1.696-4.732 3.91-6.016 6.837-.347.79-.91 1.494-1.42 2.21-1.588 2.235-3.218 4.442-4.788 6.69-3.262 4.67-5.082 9.927-6.215 15.457-.442 2.16-.8 4.352-.377 6.532.358 1.855.48 3.702.423 5.57-.198 6.384 1.4 12.383 3.84 18.207.855 2.037 1.922 3.933 3.426 5.59.957 1.05 1.705 2.292 2.636 3.37 1.363 1.573 2.712 3.182 4.247 4.576 1.45 1.317 3.122 2.4 4.727 3.54.893.635 1.8 1.272 2.78 1.752 2.363 1.154 4.752 2.244 7.055 3.526 1.425.794 3.01 1.312 4.55 1.886.988.368 2.114-.33 2.25-1.323.29-2.105-.483-4.106-.64-6.167-1.036-.962-2.51-.587-3.67-1.175zm34.28-38.87c-1.644.013-3.288.003-4.93.003l-.012.058c-3.055-.207-6.11-.41-9.166-.63-.798-.06-1.158-.45-1.163-1.265-.004-1.094.013-2.192.066-3.285.162-3.39.346-6.777.527-10.163.053-1.027.322-1.336 1.31-1.56.107-.022.21-.065.32-.078 3.253-.415 6.507-.845 9.762-1.218.627-.075.96.408 1.106.988.9 3.604 1.804 7.207 2.694 10.814.157.637.3 1.28.384 1.93.14 1.082.25 2.17.322 3.26.048.764-.37 1.138-1.222 1.146zm13.522-24.063c.484-.267.826.034 1.077.407 3.07 4.576 5.637 9.39 6.58 14.89.44 2.577.637 5.198.917 7.8.06.566-.398 1.025-1.01 1.03-2.19.016-4.38.007-6.57.007v-.01c-2.3 0-4.6.01-6.897-.005-.583-.004-1.02-.427-1.078-1.02-.572-5.898-2.084-11.6-3.64-17.293-.255-.927-.123-1.245.7-1.514 3.44-1.124 6.75-2.54 9.92-4.29zm-18.66-13.92c.003-.07.16-.128.25-.192.212.043.434.058.64.125 5.42 1.75 10.085 4.8 14.428 8.397.414.34.712.83 1.045 1.265.245.322.072.91-.307 1.11-.096.05-.192.112-.294.145-2.704.9-5.395 1.843-8.117 2.677-1.175.36-1.62.085-2.037-1.01-1.56-4.112-3.398-8.096-5.536-11.938-.093-.16-.088-.387-.075-.58zm-7.237-2.475c1.045.318 1.696.836 2.184 1.77 2.447 4.68 4.243 9.617 5.883 14.617.197.6-.078 1.185-.65 1.275-2.915.46-5.808 1.123-8.786 1.02-.487-.016-.776-.325-.853-.813-.017-.107-.035-.218-.037-.325-.085-5.038.11-10.09-.712-13.925-.19-3.887-.252-4.597 2.973-3.618zM51.75 53.166c-.028.547-.028 1.096-.083 1.643-.096.94-.525 1.363-1.477 1.38-2.19.034-4.38.034-6.57.046-.876.004-1.753 0-2.63 0v.026c-2.957 0-5.913.01-8.87-.006-.87-.005-1.31-.395-1.233-1.154.47-4.672.597-9.384 1.525-14.008.09-.427.22-.846.33-1.27.134-.507.542-.733.987-.656 5.41.955 10.867 1.125 16.343 1.072.437-.004.877-.002 1.312.028.592.043.987.514.956 1.1-.2 3.933-.394 7.865-.59 11.796zm-17.5-20.992c.943-3.136 1.912-6.264 2.88-9.394.13-.418.298-.823.438-1.237.928-2.69 2.976-3.94 5.648-4.346.753-.115 1.534-.17 2.29-.113 1.555.113 3.03.016 4.436-.78.448-.253 1.053-.257 1.59-.32 1.235-.144 1.66.178 1.662 1.35 0 2.296-.018 4.576-.33 6.872-.32 2.373-.24 4.8-.29 7.207-.088 4.363.393 4.162-4.038 4.15-.546-.004-1.094 0-1.643 0 0 .018 0 .038-.002.058-3.93-.19-7.86-.367-11.79-.574-.85-.046-1.2-.474-1.11-1.254.065-.543.108-1.1.26-1.617zm-9.59-3.91c2.365-2.288 4.9-4.382 7.687-6.15.368-.232.782-.392 1.182-.567.05-.024.184.043.235.107.06.072.092.184.092.277 0 .11-.032.22-.085.315-1.743 3.19-2.944 6.592-3.98 10.06-.063.21-.155.41-.238.612-.334.826-.622 1.01-1.77.92-.358-.057-1.06-.035-1.647-.283-1.483-.63-3.19-.82-4.335-2.133.946-1.052 1.838-2.17 2.857-3.152zm-13.57 28c-.014-.326 0-.656 0-.984.037-2.672.684-5.222 1.91-7.567 1.17-2.238 2.136-4.544 3.005-6.906.718-1.952 1.596-3.844 2.86-5.52.362-.483.814-.673 1.418-.42 2.32.972 4.646 1.932 6.97 2.895.734.306.96.683.84 1.55-.202 1.407-.438 2.806-.675 4.208-.64 3.78-1.024 7.587-1.26 11.41-.066 1.1-.3 1.33-1.383 1.396-2.73.163-5.465.284-8.192.478-1.413.1-2.82.315-4.226.5-.84.11-1.223-.183-1.265-1.038zM23.287 84.39c-1.22.502-1.884.385-2.6-.573-1.508-2.016-3.036-4.023-4.408-6.13-2.25-3.45-3.286-7.364-3.975-11.374-.258-1.506-.382-3.035-.54-4.328-.008-.82.335-1.178.996-1.285 4.018-.65 8.068-.59 12.115-.59.82 0 1.18.38 1.198 1.198.024 1.096.04 2.19.01 3.285-.156 5.502.593 10.9 1.83 16.245.294 1.28.224 1.422-1.015 1.984-1.195.54-2.397 1.07-3.61 1.568zm7.806 7.706c-.056.05-.188.078-.247.048-1.54-.815-3.047-1.675-4.22-3.002-.08-.096-.052-.46.035-.51.46-.28.937-.55 1.44-.73 1.137-.404 1.59-.193 2.017.88.4 1.008.78 2.023 1.152 3.008-.07.13-.103.242-.176.306zm92.606 18.8c-.24-1.95-.526-3.925-1.09-5.8-.58-1.93-.786-3.85-.77-5.835.02-1.975-.022-3.953-.005-5.932.017-1.867-.114-3.76.15-5.596.6-4.162.278-8.332.39-12.5.04-1.466-.598-2.54-1.52-3.505-.63-.656-1.44-.958-2.392-.848-1.41.165-2.83.365-4.245.39-5.602.09-11.206.115-16.81.177-.547.006-1.104.026-1.633.14-1.966.415-3.92.313-5.89.052-3.612-.476-7.264-.508-10.852-.037-3.18.42-6.338.54-9.525.513-4.725-.038-9.448-.085-14.176-.1-2.525-.008-5.053.026-7.58.074-1.466.027-2.218.74-2.39 2.18-.026.22-.035.44-.04.658l-.268 15.82h.16c0 2.527-.032 5.055.008 7.58.05 2.965.126 5.93.26 8.892.09 1.973.324 3.936.452 5.905s1.03 3.203 2.925 3.907c1.25.464 2.527.72 3.873.63 4.93-.33 9.873-.51 14.783-1.02 2.41-.25 4.808-.395 7.22-.405 3.188-.013 6.377.05 9.564.01 2.635-.03 5.272-.11 7.906-.262 5.362-.313 10.72-.76 16.085-1.016 3.4-.163 6.814-.048 10.22-.12.97-.023 1.977-.15 2.895-.445 1.742-.555 2.517-1.707 2.296-3.504zM82.182 77.99c-.317 1.268-.63 2.543-.917 3.818-.203.898-.574 1.62-1.472 2.042-1.525.71-2.73 1.84-3.706 3.19-.72.99-1.202 2.11-.998 3.384.222 1.395.913 2.46 2.296 2.96.615.223 1.284.324 1.86.618.344.175.72.584.785.944.138.745.11 1.528.095 2.293-.026 1.39-.245 1.52-1.81 1.296-.644-.092-1.317-.19-1.952-.1-1.61.226-2.406 2.302-1.422 3.578.99 1.276 2.31 2 3.884 2.272.91.16 1.267.74 1.337 1.605.097 1.196.097 2.387.628 3.536.888 1.918.825 1.963-1.088 2.062-.878.047-1.757.065-2.636.076-5.487.064-10.95.452-16.384 1.202-2.878-.253-5.614.98-8.48.79-.218-.016-.597-.38-.592-.572.14-5.924.32-11.845.49-17.77l-.11-.004c.143-5.59.282-11.184.428-16.776.01-.328.05-.655.107-.977.083-.5.42-.74.9-.785.327-.032.658-.047.985-.043 6.8.08 13.61-.164 20.402.413 1.746.15 3.51.06 5.267.094.547.013 1.105.02 1.634.14.27.057.584.276.477.708zm34.678 32.102c-1.645.058-3.294.093-4.943.113-3.733.05-7.458.132-11.186.527-2.94.313-5.93.15-8.9.176-2.2.02-4.396.018-6.596.016-.587 0-.79-.24-.7-.738.278-1.51.51-3.026.854-4.52.08-.354.467-.742.814-.91.48-.235 1.085-.203 1.584-.414 1.103-.47 2.22-.933 3.243-1.552.977-.592 1.55-1.61 1.703-2.72.406-2.912-.295-5.495-2.748-7.315-.955-.71-2.08-1.22-3.182-1.685-.915-.384-1.4-.89-1.435-1.933-.11-3.43-.02-3.543 3.373-3.344.655.038 1.31.126 1.964.14.633.01 1.132-.952.758-1.475-.245-.35-.54-.702-.885-.94-1.133-.763-2.43-.933-3.765-1.015-1.27-.08-1.408-.306-1.456-1.66-.03-.88-.03-1.76-.096-2.636-.04-.52.102-.86.65-.878 1.652-.055 3.254-.186 4.78-1.01 1.09-.59 2.394-.356 3.566-.11 3.157.66 6.33.61 9.52.42 1.64-.097 3.294 0 4.942-.03 1.733-.035 3.496.26 5.157-.61.444-.235 1.078-.134 1.622-.14 1.475-.02 1.698.39 1.454 1.797-.165.97-.18 1.963-.295 2.944-.037.318-.18.62-.274.93-.183-.2-.43-.366-.543-.6-.453-.92-.976-1.697-2.14-1.807-1.27-.117-2.457.075-3.35 1.01-1.44 1.508-2.143 3.3-1.748 5.42.455 2.443 2.83 3.627 5.017 2.41.74-.415 1.33-1.108 1.975-1.693.24-.215.437-.475.654-.714.097.395.268.785.27 1.18.02 2.857.013 5.716.013 8.577h-.04c0 2.308.03 4.62-.01 6.925-.04 2.344.4 4.584 1.22 6.767.215.57-.174 1.07-.83 1.093zm-31.48-13.34s-.007-.444.102-.858c.075-.277.26-.64.68-.416.48.25.98.482 1.387.827 1 .848.782 1.984-.45 2.58-1 .486-1.667.08-1.717-1.048-.01-.216-.003-.435-.003-1.086zm25.214 3.166c-1.376.067-2.613.736-3.085 2.072-.675 1.91-.568 3.866.464 5.675.432.76 1.37 1.077 2.26.864 2.303-.55 3.622-2.15 3.612-4.478.048-.94-.284-1.86-.827-2.692-.564-.86-1.398-1.492-2.427-1.44zM109.572 95c.41-.538.56-1.198.304-1.86-.283-.725-.946-.813-1.61-.846-.22-.01-.445-.015-.655.025-1.12.21-2.04.073-3.01-.727-1.246-1.027-2.673-.67-3.935.22-1.27.895-1.222 2.798.12 3.557.945.532 1.937.987 2.94 1.398.49.203 1.054.228 1.32.283 2.023 0 3.47-.65 4.53-2.046zm-40.616-.053c-.8-1.543-2.313-1.954-3.79-1.058-.092.053-.177.12-.267.184-.18.123-.356.254-.54.37-1.136.7-1.027.744-1.723-.396-.687-1.132-1.656-1.086-2.464-.52-.178.125-.377.225-.54.367-.577.493-1.213.966-1.174 1.842.027.682.737.692 1.087 1.055.293.307.498.702.734 1.062.764 1.16 1.91 1.472 3.146 1.18 1.365-.326 2.677-.9 3.797-.114 1.746.197 2.752-.994 2.33-2.464-.148-.52-.348-1.036-.595-1.514zm-13.735-7.92c.356 1.432 2.48 2.33 3.69 2.017 2.496-.643 4.326-3.883 3.037-6.183-.344-.613-.792-1.022-1.502-1.077-.43-.032-.864-.006-1.296-.006v.107c-.54 0-1.08-.02-1.618.004-1.704.07-2.996 1.552-2.786 3.253.08.64.322 1.26.48 1.89zm1.386 18.094c-1.586.446-2.763 1.975-2.768 3.597-.008 1.94 1.18 3.38 3.046 3.568.498.048 1.11-.088 1.53-.36 1.576-1.03 2.277-3.128 1.727-4.86-.546-1.712-1.83-2.418-3.536-1.943z"/></svg>