<svg xmlns="http://www.w3.org/2000/svg" width="128" height="128" viewBox="0 0 128 128"><path d="M112.62 47.657c-.673-3.245-1.51-6.496-3.222-9.38-2.313-3.892-5.287-7.263-8.72-10.218-2.76-2.38-5.667-4.6-8.292-7.117-2.29-2.195-5.02-3.253-7.99-3.77-2.733-.48-5.492-.902-8.302-.767-1.067.05-2.162.034-3.21-.146-4.937-.85-9.828 0-14.72.383-1.89.147-3.8.69-5.59 1.355-2.507.93-4.875 2.203-7.13 3.67-2.243 1.46-4.57 2.8-6.78 4.312-4.185 2.865-8.005 6.15-10.595 10.59-1.14 1.952-2.475 3.733-3.823 5.523-.896 1.195-1.803 2.398-2.56 3.68-2.633 4.456-4.76 9.1-4.978 14.396-.016.32-.016.66-.137.95-.734 1.775-.514 3.57-.188 5.38.114.63.242 1.27.235 1.907-.035 2.59.36 5.135.817 7.663.57 3.155 1.21 6.297 2.88 9.12.875 1.475 1.533 3.075 2.403 4.545 1.086 1.837 2.06 3.816 3.49 5.352 4.726 5.07 10.27 9.1 16.625 11.904 7.14 3.15 14.645 4.725 22.456 4.8 3.43.034 6.846-.07 10.258-.57 5.213-.76 10.313-1.885 15.19-3.9 4.878-2.017 8.83-5.273 11.914-9.478 2.85-3.885 5.403-7.986 6.922-12.628.33-1.016.658-2.033.994-3.047 2.23-6.754 3.66-13.64 3.458-21.333.194-4.1-.47-8.66-1.402-13.173zm-11.886-7.66c.507 1.284 1.035 2.56 1.517 3.855 1.585 4.235 2.664 8.582 2.887 13.118.006.107.006.213.025.32.528 2.95.71 2.696-2.16 4.096-.575.284-1.22.456-1.748.81-2.293 1.563-4.882 1.39-7.453 1.33-.8-.02-1.146-.348-1.104-1.225.165-3.55-.462-7.05-.632-10.58-.096-2.026-.43-4.042-.656-6.062-.096-.843.206-1.395 1.024-1.757 1.57-.692 3.06-1.56 4.647-2.196 1.26-.5 2.15-1.765 3.66-1.707zm-35.787 9.1c.01.108.016.214.018.32.128 4.18.142 8.364.698 12.52.126.953.1 1.927.11 2.893.01.597-.383 1.007-.96 1.035-.536.03-1.074.032-1.61.032-1.61.003-3.218 0-4.828 0-.004.062-.006.12-.008.178-3.317-.18-6.633-.35-9.947-.548-1.125-.066-1.42-.315-1.442-1.286-.107-4.502-.242-9.004.475-13.48.17-1.057.19-2.137.306-3.2.05-.484.377-.77.85-.78.64-.016 1.307-.058 1.923.082 2.22.502 4.475.447 6.72.598 2.245.15 4.484.356 6.726.553.583.052.9.434.963 1.086zm-11.59-23.96c.46-1.27 1.257-1.913 2.512-2.16.833-.164 1.673-.346 2.48-.608 1.02-.333 1.99-.695 3.118-.44.586.13 1.396-.314 1.837-.048.725.434.307 1.365.334 2.088.01.32-.037.64-.06.96l-.157.01.144 3.17.032.643c.186 3.954.125 7.92.69 11.854.174 1.234-.207 1.62-1.37 1.557-3.845-.207-7.69-.43-11.532-.69-.628-.044-1.26-.26-1.846-.506-.218-.093-.462-.506-.434-.74.085-.74.3-1.462.45-2.192.91-4.405 2.268-8.676 3.798-12.9zM36.877 36.88c.123-.173.24-.356.392-.505 2.202-2.138 3.913-4.717 6.163-6.818 1.563-1.46 3.266-2.71 5.084-3.822.14-.083.43-.062.56.032.093.068.096.365.04.52-1.578 4.29-3.21 8.565-4.108 13.074-.07.348-.43.637-.65.95-1.2-.294-2.24-.512-3.255-.813-1.224-.36-2.426-.79-3.637-1.195-.797-.264-1.025-.82-.59-1.424zM24.01 59.902c.675-3.584 1.556-7.147 3.302-10.34 1.43-2.61 2.99-5.21 5.178-7.323.683-.663.847-.71 1.678-.34 2.544 1.132 5.082 2.28 7.637 3.382 1.466.634 1.48.6 1.35 2.048-.242 2.342-.38 4.7-.75 7.023-.48 2.983-.46 5.98-.55 8.98-.013.426.006.874-.117 1.268-.082.255-.38.565-.624.61-.516.1-1.065.08-1.596.04-1.818-.133-3.63-.333-5.446-.437-3.006-.17-5.937-.797-8.866-1.424-.93-.2-1.298-.684-1.298-1.564-.002-.643-.015-1.3.102-1.925zm10.277 31.27c-2.176-2.24-3.99-4.758-5.376-7.54-1.14-2.29-2.06-4.7-2.993-7.09-.33-.85-.787-1.742-.235-2.75.146-.268-.12-.8-.276-1.18-.373-.887-.82-1.74-1.18-2.634-.413-1.024-.102-1.466.877-1.395 1.83.262 3.623.546 5.424.773 3.392.424 6.79.817 10.184 1.225.878.11 1.2.37 1.27 1.133.48 5.11 1.224 10.18 2.373 15.187.245 1.07-.046 1.464-1.175 1.874-2.41.875-4.786 1.85-7.164 2.816-.706.283-1.24.077-1.723-.42zm12.657 9.455c-2.598-.785-4.83-2.244-6.947-3.888-.496-.386-.88-.913-1.318-1.375.364-.835 1.166-.817 1.886-.962.21-.043.418-.085.63-.13 1.418-.302 2.692-1.267 4.25-.925.484 1.403 1.007 2.794 1.44 4.215.274.91.415 1.862.61 2.784-.214.11-.42.32-.552.276zm2.127-14.935c-.617-3.8-1.346-7.584-1.822-11.4-.47-3.787-.59-3.7 3.376-3.473 3.74.21 7.49.21 11.238.297 1.18.028 2.358.01 3.534.05.465.016.765.316.875.778.025.1.04.21.048.316l.677 9.16c0-.09.008.34-.002.77-.02.84-.27 1.16-1.11 1.27-5.196.692-10.348 1.615-15.394 3.067-.777.222-1.3-.11-1.42-.836zm18.067 17.617c-.747.044-1.496.006-2.325.006-1.535.2-3.075-.39-4.634-.487-1.82-.11-3.58-.58-5.387-.633-.893-.026-1.34-.526-1.664-1.253-1.222-2.746-1.816-5.675-2.51-8.576-.11-.465.09-.863.51-1.054.58-.262 1.18-.5 1.796-.65 1.036-.257 2.078-.524 3.133-.623 3.504-.32 7.014-.58 10.523-.84.573-.042 1.024.366 1.04.96.066 2.56.787 5.052.66 7.64-.057 1.145.257 2.32.46 3.47.264 1.464-.067 1.942-1.6 2.04zm1.915-62.244c-.27-3.31-.522-6.617-.784-9.925-.135-1.706-.284-3.412-.41-5.12-.047-.64-.063-1.285-.063-1.93 0-.64.344-1.064.924-1.073 1.713-.028 3.43-.053 5.143-.016 1.103.024 2.09.39 2.85 1.264C80.518 28.62 83 33.67 84.52 39.22c.29 1.055.077 1.46-.86 1.652-3.46.712-6.913 1.472-10.993 1.362-.452 0-1.416.023-2.38-.006-.8-.024-1.167-.37-1.232-1.164zm16.15 49.27c-.704 3.135-1.693 6.183-2.68 9.236-.546 1.69-1.653 2.403-3.307 2.522-.962.068-1.925.117-2.885.213-.837.085-1.668.23-2.505.347-.77-.86-.815-1.973-.868-3-.164-3.21-.22-6.425-.277-9.64-.017-.97.35-1.283 1.394-1.296 1.714-.022 3.43-.007 5.146-.007v-.127h4.5c1.775 0 1.85.1 1.482 1.75zm2.222-14.685c-.067 1.82-.288 3.63-.456 5.445-.075.81-.435 1.18-1.19 1.227-2.78.166-5.562.317-8.312.472-.57 0-1.106-.01-1.643.003-4.42.117-3.3.555-4.154-3.71-.334-1.663-.21-3.42-.25-5.136-.078-3.28-.566-3.18 3.162-3.534 3.506-.33 6.975-1.067 10.46-1.617.423-.07.85-.115 1.278-.15.614-.05 1.084.305 1.09.89.028 2.035.086 4.08.012 6.11zm-.016-14.612c0 .75.025 1.5-.01 2.247-.022.482-.372.773-.82.843-1.056.163-2.116.318-3.18.405-3.734.316-7.47.624-11.205.885-1.108.078-1.33-.165-1.484-1.182-.08-.53-.17-1.06-.21-1.59-.305-4.38-.603-8.76-.895-13.14-.066-1 .117-1.528 1.493-1.48.644.02 1.287-.008 1.93.005 4.102.08 8.104-.57 12.06-1.596.91-.237 1.087-.085 1.266.848.462 2.426.673 4.873.74 7.343.06 2.14.254 4.275.39 6.413h-.074zm2.023-23.122c-.056-.092-.125-.18-.156-.28-1.216-3.9-3.104-7.478-5.227-10.945-.043-.065-.066-.187-.035-.246.05-.088.156-.145.236-.213.203.054.424.068.603.165 2.25 1.216 4.594 2.3 6.717 3.712 1.758 1.168 3.266 2.72 4.864 4.124.398.35.29 1.106-.154 1.395-1.796 1.17-3.738 2.048-5.758 2.74-.416.144-.836-.033-1.088-.45zm4.243 56.476c-.46.437-.95.86-1.48 1.202-1.557 1.003-2.46 1.284-2.417.978.114-.82.323-1.63.496-2.443.044-.207.097-.414.147-.62.01 0 .02.004.03.006.22-.928.413-1.865.66-2.787.188-.686.87-1.068 1.486-.783 3.332 1.55 4.315 1.362 1.075 4.445zm11.776-25.867c-1.313 3.408-1.3 7.136-2.553 10.55-.773 2.102-1.71 4.148-2.613 6.202-.307.692-.913.92-1.59.673-.698-.258-1.396-.538-2.065-.868-1.238-.612-2.45-1.267-3.677-1.904-.475-1.354-.125-2.742-.155-4.116-.055-2.567-.045-5.136-.05-7.708 0-.642.02-1.283.074-1.923.044-.474.368-.746.828-.82 2.424-.39 4.868-.7 7.157-1.67 1.083-.46 2.165-.92 3.258-1.36.885-.354 1.4.023 1.435 1.026.006.216 0 .427 0 .643h-.03c0 .427.125.9-.02 1.274z"/></svg>