<svg xmlns="http://www.w3.org/2000/svg" width="128" height="128" viewBox="0 0 128 128"><path d="M122.22 45.333c-.276-.157-.564-.305-.863-.427-3.563-1.472-7.122-2.957-10.7-4.392-2.785-1.117-5.586-2.184-8.39-3.243-1.2-.454-2.404-.947-3.65-1.23-2.632-.606-5.14-1.5-7.493-2.822-1.886-1.063-3.915-1.717-6.016-2.19-2.403-.534-4.82-1.023-7.2-1.65-2.694-.706-5.337-1.573-7.816-2.907-1.757-.943-3.526-1.14-5.542-.35-2.98 1.17-6.117 1.93-9.163 2.937-13.013 4.306-25.99 8.73-39.08 12.813-2.953.92-5.77 2.288-8.6 3.568-1.05.48-2.022 1.21-2.894 1.984-.936.828-.832 2.362.168 3.12.76.576 1.623 1.045 2.498 1.43 4.71 2.073 9.5 3.935 14.51 5.18 1.04.257 2.09.493 3.1.836 3.073 1.045 3.35.4 2.766 4.5-.03.214-.13.412-.17.624-.668 3.578-1.45 7.14-1.934 10.74-.212 1.572-.527 2.892-1.757 3.95-1.184 1.025-1.666 2.45-2.056 3.924-.235.89-.18 1.707.235 2.492.248.47.544.926.896 1.32.544.612.357 1.14-.02 1.733-1.094 1.716-2.188 3.43-3.237 5.173-.494.825-.96 1.68-1.315 2.57-.448 1.116-.114 1.985 1.07 2.636.525.29.867.527.86 1.146-.007.32-.012.656.072.958.203.74.88 1.244 1.664 1.287.817.05 1.55-.197 1.87-.965.368-.88.56-1.835.836-2.752.303-1.013.613-2.027.922-3.04.712 1.024.232 2.18.348 3.266.105.957.043 1.932.175 2.882.11.787 1.114 1.612 1.795 1.64.677.03 1.643-.77 1.87-1.548.03-.103.06-.207.074-.314l.39-2.83c1.185.103 1.382 1.46 2.394 1.863.66.265 1.136.96 1.754 1.374.636.427 1.5.306 2.1-.198.244-.207.468-.438.686-.676.706-.762.93-1.507.527-2.612-1.14-3.118-2.036-6.333-4.22-8.96-.385-.47-.317-.974.033-1.474.304-.437.58-.9.832-1.37.86-1.607.907-3.38.443-5.017-.53-1.872-1.542-3.487-3.747-4.026-1.32-.32-1.386-.747-.957-2.193.725-2.463 1.403-4.945 2.184-7.393.55-1.728 1.227-3.42 1.877-5.115.192-.5.805-.667 1.365-.475.662.23 1.13.658 1.197 1.358.053.526-.046 1.063-.085 1.597-.314 4.382-.642 8.762-.938 13.14-.192 2.844 1.103 4.948 3.378 6.52 1.235.853 2.483 1.688 3.74 2.51 3.546 2.33 7.436 3.785 11.604 4.492 1.58.27 3.202.332 4.765.673 3.58.785 7.218.89 11.504 1.127 1.175-.114 3-.192 4.79-.48 2.954-.478 5.87-1.232 8.836-1.62 5.708-.737 10.405-3.798 15.308-6.404.562-.3 1.016-.787 1.536-1.165 1.032-.746 1.538-1.72 1.52-3.018-.01-.743.23-1.486.256-2.23.068-2.032.36-4.108.064-6.092-.657-4.388-.25-8.78-.427-13.166-.02-.577.285-1.004.853-1.22 1.904-.72 3.89-1.28 5.692-2.2 3.56-1.82 7.366-2.904 11.14-4.11.607-.198 1.262-.315 1.805-.627 2.133-1.22 2.106-3.627-.03-4.853zM25.494 84.72c-.144.022-.437-.127-.465-.247-.147-.617-.228-1.25-.31-1.75.043-.455.04-.783.122-1.087.036-.132.246-.23.4-.3.04-.018.21.118.226.202.177.94.352 1.882.476 2.827.014.107-.277.324-.448.356zm20.85-3.338l.025-.21.176.125-.203.085zm49.224-14.368c-.41 2.245-.41 4.475-.442 6.72-.017 1.397-.025 2.793.027 4.187.053 1.47-.627 2.463-1.882 3.09-.564.29-1.18.51-1.8.66-4.05 1.015-8.104 2.007-12.16 2.984-.515.125-1.06.146-1.597.164-2.354.09-4.717.015-7.038.565-.552.132-1.058-.067-1.26-.693-.033-.108-.057-.217-.115-.304-.83-1.275-1.743-1.475-2.913-.565-.5.388-.883.92-1.333 1.37-.337.34-.86.198-.96-.297-.147-.733-.12-1.55-.968-1.888-.944-.373-1.653.222-2.336.718-.43.31-.794.725-1.13 1.136-.464.57-1.068.635-1.73.643-1.09.01-1.254-.24-.848-1.274.27-.69.546-1.388.7-2.11.14-.64-.304-1.308-.877-1.568-.538-.244-1.07-.187-1.508.174-.663.544-1.28 1.14-1.92 1.714-.395.357-.77.745-1.2 1.053-.255.187-.62.257-.824-.113-.085-.156-.142-.43-.064-.555.35-.54.78-1.024 1.13-1.565.404-.627.82-1.263 1.1-1.952.197-.475.214-1.04.23-1.568.023-.768-.71-1.468-1.475-1.326-.794.144-1.56.436-2.336.673-.01.028-.02.058-.027.085-.03 0-.05.01-.077.01-.04.337-.24.505-.558.545-.005.034-.017.064-.02.1l-.138.144c-.064.175-.18.295-.352.364l-.147.153-.152.145c-.07.168-.19.283-.363.34-.05.048-.098.094-.15.14-.05.053-.1.1-.148.153-.068.163-.182.278-.345.342l-.155.154c-.064.04-.126.08-.184.12l-.087.2c.012-.056.004-.13.038-.166.013-.014.032-.022.047-.033.033-.07.065-.14.095-.212.09-.01.17-.032.244-.06l.34-.34c.03-.073.05-.154.062-.244.09-.005.167-.023.24-.048l.362-.34c.027-.07.05-.148.06-.238.09-.01.167-.032.24-.06l.35-.364c.026-.068.046-.142.052-.228.04 0 .07-.01.107-.017.042-.323.202-.53.556-.545.002-.022.012-.042.013-.067.03-.008.06-.02.087-.027.16-.573.336-1.143.466-1.725.24-1.077-.398-2.19-1.49-2.51-.384-.11-.896-.152-1.237.014-.766.366-1.534.795-2.16 1.354-.795.708-1.435 1.588-2.177 2.36-.192.2-.506.324-.782.38-.294.06-.274-.552.088-1.11.467-.718.958-1.422 1.42-2.145.228-.36.458-.73.61-1.126.436-1.123-.018-2.242-1.244-2.453-1.11-.19-1.39-.684-1.428-1.684-.046-1.278-.253-2.552-.34-3.83-.042-.607.468-.99 1.064-.81 3.066.934 6.212 1.584 9.136 3.008 2.888 1.403 5.893 2.56 8.826 3.874 1.963.88 3.89.99 5.918.18 5.472-2.175 11.1-3.946 16.472-6.388 3.71-1.69 7.588-2.93 11.505-4.05.565-.16 1.08.22 1.073.81-.026 1.936.15 3.905-.19 5.782zM111.49 46.82c-.83 1.06-2.156 1.328-3.276 1.898-6.62 3.37-13.666 5.63-20.736 7.797-5.74 1.76-11.486 3.467-16.94 6.037-2.22 1.052-4.514 1.958-6.804 2.86-.453.178-1.088.172-1.547.005-1.51-.552-3.005-1.156-4.453-1.852-4.26-2.046-8.65-3.744-13.175-5.11-.308-.09-.63-.156-.91-.306-.37-.196-.7-.458-1.047-.693.286-.3.516-.708.864-.888 1.43-.737 2.886-1.424 4.352-2.088 1.756-.797 3.55-1.515 5.3-2.328 1.94-.902 3.902-1.775 5.755-2.837 3.072-1.76 3.46-2.16 6.456-1.635.94-.068 2.02-.075 3.076-.24 1.784-.28 2.827-1.47 3.333-3.115.34-1.107-.067-2.195-.733-3.03-1.376-1.73-3.087-2.943-5.474-2.865-1.608.053-3.023.553-3.85 1.935-.844 1.406-2.076 2.105-3.525 2.61-8.022 2.79-15.704 6.336-23.116 10.47-.47.262-.937.555-1.443.704-.486.145-1.06.27-1.533.147-5.91-1.52-11.845-2.96-17.62-4.956-.302-.102-.57-.29-.854-.447-.275-.15-.34-.653-.08-.784.762-.38 1.5-.86 2.308-1.085 12.82-3.522 25.33-7.997 37.967-12.085 2.955-.956 5.944-1.802 8.91-2.725 1.678-.52 3.297-.512 5.027-.053 4.242 1.122 8.516 2.123 12.8 3.066 3.784.832 7.467 1.864 10.904 3.733 1.3.708 2.804 1.044 4.22 1.527 1.925.66 3.87 1.263 5.777 1.958 2.212.81 4.387 1.725 6.596 2.54 3.17 1.17 3.76 1.465 3.468 1.834z"/></svg>