<svg xmlns="http://www.w3.org/2000/svg" width="128" height="128" viewBox="0 0 128 128"><path d="M124.677 77.277c-.402-2.464-1.46-4.65-3.077-6.55-.712-.84-1.614-1.356-2.773-1.35-3.654.016-6.965.88-9.325 3.922-.64.82-1.245 1.327-2.387 1.115-1.852-.344-3.546.15-5.146 1.17-1.88 1.196-3.824 2.29-5.765 3.376-.734.415-1.532.718-2.32 1.025-.683.26-1.02-.036-.917-.725.143-.935.284-1.876.383-2.82.15-1.454-.61-2.405-1.78-3.122-.84-.518-1.75-.675-2.735-.683-3.827-.02-7.656-.036-11.477-.18-2.117-.08-4.285-.17-6.318-.688-1.947-.495-3.918-.91-5.852-1.45-3.648-1.02-7.35-1.022-11.066-.772-2.133.143-4.198.593-6 1.877-.604.43-1.277.77-1.95 1.08-2.532 1.153-4.787 2.74-7.044 4.337-.515.365-1.013.762-1.52 1.144-.35-.508-.684-1.024-1.052-1.515-.437-.594-.93-1.14-1.355-1.74-.654-.93-1.616-1.077-2.56-.82-1.112.303-2.236.716-3.22 1.308-2.562 1.535-5.22 2.84-8.047 3.8-.497.172-.98.413-1.446.664-.58.313-1.04.736-1.072 1.463-.024.625-.345.978-.974 1-1.487.044-2.975.09-4.463.106-1.7.02-3.403.003-5.102 0-.755 0-1.472.104-2.12.553-.934.65-1.16 1.93-.422 2.787.772.902 1.614 1.63 2.93 1.704 2.218.12 4.394.686 6.644.632.933-.02 1.874.33 2.816.482.69.11 1.13.51 1.476 1.082 1.157 1.9 2.416 3.717 3.274 5.813 1.32 3.238 2.855 6.394 4.357 9.56 1.265 2.66 1.296 2.22-1.236 3.854-.424.274-.774.142-1.077-.243-.386-.493-.744-1.035-1.216-1.427-.404-.335-.946-.45-1.482-.117-.477.3-.852.7-.818 1.265.032.52.283 1.02.35 1.54.03.276-.118.58-.187.868-.235-.203-.533-.368-.69-.62-.452-.716-.787-1.516-1.283-2.198-.424-.594-.992-1.088-1.53-1.585-.115-.107-.442-.133-.567-.046-.245.16-.544.41-.592.67-.08.395-.05.853.073 1.242.34 1.098.523 2.21.395 3.356l.075.02c.014.067.027.13.043.195.062.06.123.116.183.176-.056-.032-.14-.053-.165-.1-.01-.022-.01-.05-.018-.074-.043-.04-.082-.08-.124-.118.004-.032.002-.064.005-.098-.178-.05-.396-.077-.47-.192-.928-1.426-1.777-2.882-2.152-4.58-.132-.602-.413-1.19-.725-1.727-.306-.53-1.343-.464-1.652.043-.65 1.068-.798 2.192-.352 3.36.64 1.686 1.314 3.36 1.967 5.04.282.73.166.947-.725 1.467-.582.338-.786.296-.973-.19-.907-2.378-1.806-4.756-2.73-7.124-.29-.74-.938-1.136-1.44-.965-.564.192-.934.757-.95 1.515-.01.422-.032.86.047 1.27.41 2.1 1.015 4.125 2.48 5.77.21.24.462.45.604.722.062.117-.045.45-.17.523-.822.472-1.7.856-2.503 1.358-.772.484-.608 1.656.245 2.08.578.288 1.155.494 1.83.32 3.08-.78 6.257-1.203 9.205-2.46 3.6-1.54 7.42-2.626 10.596-5.05.083-.065.186-.102.277-.16.42-.257.808-.202 1.136.15.507.552.975 1.22 1.76 1.298 2.752.278 5.525.527 8.133-.752 2.667-1.312 5.316-2.665 7.972-4.002 1.16-.584 2.1-1.406 2.88-2.456.626-.847 1.364-1.614 2.068-2.396.322-.363.704-.344 1.14-.14 1.338.635 2.644 1.49 4.16 1.503 2.897.026 5.665.746 8.465 1.322 2.508.52 5.03.707 7.59.705 5.633-.008 11.263.183 16.86-.66 2.52-.38 5.114-.54 7.4-1.727 4.42-2.292 9.01-4.247 13.058-7.27 2.712-2.024 4.93-4.308 6.557-7.245 1.49-2.695 2.992-5.394 4.62-8.004 1.09-1.734 1.38-3.547 1.058-5.49zm-34.55 6.39c.526-.42.985-.537 1.708-.33 1.982.56 3.776-.25 5.454-1.175 2.22-1.23 4.382-2.57 6.547-3.904.644-.395 1.26-.802 2.048-.713.192.02.424.114.54.254.1.115.134.393.066.53-.186.38-.394.77-.676 1.074-1.52 1.63-3.042 3.245-4.325 5.082-.46.658-1.22 1.233-1.968 1.536-5.024 2.027-10.144 3.716-15.58 4.25-.21.022-.423.003-1.072.003-2.297-.288-5.06-.37-7.732-1.13-.856-.244-1.743-.41-2.44-1.027.837-.067 1.674-.166 2.516-.195 1.06-.036 2.12-.047 3.182-.02 3.74.077 7.086-1.1 10.168-3.137.533-.348 1.067-.7 1.564-1.1zm-42.17 20.024c-.103.28-.318.528-.533.74-.14.144-.358.23-.555.294-2.72.932-5.204 2.347-7.75 3.634-2.614 1.318-3.41 1.1-5.02-1.158-3.458-4.85-6.255-10.067-8.594-15.535-.247-.584-.495-1.18-.634-1.792-.466-2.077-1.138-4.075-2.076-5.984-.227-.46-.128-.895.3-1.066 3.135-1.264 6.288-2.483 9.44-3.712.09-.035.208-.004.316-.004.166.116.432.195.484.35 1.26 3.62 3.248 6.89 4.94 10.295 1.462 2.948 3.27 5.678 5.362 8.238 1.092 1.334 2.39 2.385 3.7 3.457.798.646.974 1.315.617 2.24zm70.78-23.422c-1.218 3.165-2.387 6.364-4.3 9.207-.716 1.064-1.503 2.04-2.502 2.867-.98.812-1.922 1.676-2.802 2.596-1.8 1.877-3.9 3.43-6.325 4.18-3.506 1.084-6.888 2.566-10.64 2.964-5.388.57-10.753 1.074-16.176 1.092-3.87.014-7.586-.647-11.257-1.76-1.928-.587-3.883-1.09-5.774-1.77-2.49-.893-4.955-1.87-7.383-2.925-.853-.37-1.626-1.004-2.32-1.647-1.87-1.727-3.723-3.487-5.493-5.317-1.55-1.6-2.99-3.302-3.68-5.504-.177-.566-.203-1.01.26-1.43.23-.208.445-.45.628-.708 2.92-4.085 7.002-5.99 11.9-6.42 1.79-.158 3.564-.486 5.354-.63 1.266-.102 2.547-.018 3.82-.018 3.384.128 6.785.147 10.098.99.734.19 1.437.273 2.194.08 1.466-.376 2.944-.173 4.42-.006 2 .228 3.98.46 5.98-.213.864-.29 1.888-.186 2.833-.146.775.03 1.34.835 1.198 1.58-.307 1.602-1.077 2.996-2.165 4.18-.317.344-.926.512-1.43.587-3.99.573-8.01.764-12.044.587-.737-.03-1.464-.2-2.2-.26-1.694-.145-3.383-.36-5.08-.363-2.09-.002-2.815 1.01-2.4 3.105.58 2.91 2.25 5.077 4.87 6.33 4.142 1.987 8.53 3.125 13.154 3.39 4.762.273 9.27-.796 13.728-2.234 2.02-.646 3.99-1.43 5.98-2.16 1.855-.682 3.273-1.866 4.364-3.54.864-1.323 1.95-2.502 2.903-3.77 1.464-1.95 2.94-3.9 4.334-5.9.997-1.424 2.33-2.106 4.025-2.19.77-.04 1.157.208 1.533.875.783 1.38.945 2.864.393 4.303zm-54.21-19.46c6.67 5.404 14.36 7.547 22.967 7.594.75-.054 1.702-.165 2.656-.178 3.65-.047 7.136-.95 10.577-2.056 4.096-1.318 7.22-3.947 9.696-7.4 3.872-5.408 5.707-11.593 6.466-18.08.506-4.334.265-8.708-.653-13-.717-3.355-1.92-6.525-4.31-9.095-1.154-1.238-2.363-2.43-3.62-3.57-1.653-1.496-3.456-2.834-5.04-4.395-1.454-1.43-3.222-2.114-5.103-2.385-4.736-.677-9.504-.912-14.293-.578-3.792.264-7.263 1.393-10.414 3.527-1.406.954-2.912 1.757-4.3 2.735-2.523 1.78-4.852 3.765-6.516 6.447-.835 1.346-1.793 2.624-2.745 3.898-2.532 3.384-4.345 7.12-4.67 11.34-.47 6.1.11 12.05 3.208 17.566 1.63 2.904 3.462 5.5 6.094 7.63zm-.144-8.057c-1.95-2.787-3.29-5.916-3.95-9.28-.153-.775-.703-1.603-.036-2.413l2.142.226c.107.013.21.02.32.027-.005.012-.005.024-.007.036 2.42.245 4.843.483 7.26.747.903.1 1.367.527 1.39 1.435.08 3.086.73 6.08 1.32 9.088.06.306-.245.846-.537 1.02-.624.374-1.355.58-2.037.86-3.946 1.624-3.628 1.46-5.868-1.745zm9.725 8.306c-.288.035-.643-.047-.89-.2-1.237-.77-2.464-1.56-3.656-2.394-.15-.106-.143-.75-.09-.767 1.18-.373 2.37-.718 3.578-.987.17-.037.547.31.636.547.402 1.07.73 2.17 1.114 3.343-.25.174-.457.427-.69.46zM89.44 35.96c-.072-1.692-.316-3.372-.465-5.057-.047-.53-.055-1.06-.06-1.59-.015-1.166.156-1.422 1.19-1.396 2.88.066 5.702-.296 8.486-1.008.493-.128.9.17.94.6.314 3.265.89 6.51.687 9.808-.03.48-.384.75-.83.8-2.31.27-4.622.517-6.938.77-3.07.028-2.875.21-3.01-2.93zM98.9 54.4c-.612 2.136-1.223 4.272-1.884 6.392-.235.754-.81 1.33-1.598 1.402-3.994.363-4.463 1.157-4.57-3.48-.012-.422 0-.85 0-1.274h-.057c0-.213.004-.425 0-.636-.03-2.904-.166-2.894 2.637-2.925 1.584-.02 3.168-.203 4.752-.288.47-.026.84.402.724.81zm1.29-8.173c-.644 3.792.313 3.4-3.65 3.52-1.59.045-3.17.268-4.755.362-.875.052-1.378-.398-1.476-1.3-.114-1.058-.158-2.12-.27-3.757V43.72c.006-1.214.26-1.59 1.42-1.637 2.56-.09 5.047-.64 7.565-.998.796-.115 1.202.203 1.216 1.01.02 1.38.18 2.79-.05 4.135zm5.067 9.97c-.765 1.2-1.944 1.89-3.155 2.534-.038.02-.336-.255-.32-.354.154-.82.36-1.63.528-2.444.11-.523.176-1.074.78-1.244.688-.198 1.88.328 2.194.923.043.08.037.19.053.285-.026.1-.028.216-.08.298zm6.464-15.947c-.875 3.464-1.16 7.096-2.88 10.323-.195.37-.344.786-.61 1.093-.18.195-.575.37-.81.308-.607-.158-1.187-.43-1.755-.7-2.123-1.014-2.16-.777-2.072-3.3.027-.735.004-1.477.004-2.218h-.004c0-1.267-.015-2.54.004-3.806.013-.568.23-1.093.87-1.12 2.27-.08 4.315-.93 6.363-1.792.453-.19.852.096.867.58.008.21.073.434.02.63zm-3.346-17.362c1.18.8 1.09 2.22 1.573 3.345 1.177 2.75 1.33 5.73 1.678 8.654.038.317-.292.847-.597 1.012-2.048 1.11-4.14 2.114-6.592 1.713-.47-.075-.736-.33-.853-.772-.028-.1-.032-.206-.04-.312l-.6-8.51c-.01 0-.02 0-.035.002-.032-.53-.073-1.056-.1-1.58-.03-.588.24-1.01.76-1.262.662-.322 1.34-.612 2.003-.933.94-.446 1.87-.9 2.806-1.355zm-9.94-8.437l.077.044v.058c.19-.03.4-.1.545-.032 2.205 1.04 4.37 2.136 6.15 3.864 1.138 1.104 1.1 1.483-.42 2.247-.66.335-1.346.626-2.037.89-.71.27-1.323.044-1.54-.644-.646-2.033-1.583-3.923-2.647-5.758-.087-.147-.05-.368-.05-.565-.022.004-.046.01-.07.01l-.01-.11-.365-.196c.382-.25.363-.014.367.195zm-10.64-1.733c.01-.23.352-.623.557-.63 1.267-.06 2.535-.078 3.798-.004.373.024.805.318 1.077.61 2.578 2.774 4.178 6.077 5.17 9.693.12.436-.175.83-.635.948-2.055.54-4.133.896-5.91.814-3.34.05-3.337.035-3.546-2.897-.13-1.895-.346-3.786-.482-5.684-.067-.95-.08-1.904-.03-2.85zm.245 45.43c.17.585.03 1.263.03 1.363.444 3.802.305 3.557-2.94 3.467-1.89-.056-3.766-.42-5.65-.646-.587-.067-.997-.433-1.154-.95-.526-1.71-1.01-3.436-1.46-5.17-.113-.447.214-.767.648-.943 1.893-.768 3.94-.715 5.91-1.028 1.23-.193 2.51-.033 3.772-.03.864 1.185.46 2.64.843 3.94zm-1.153-14.414c.093 1.796.16 3.595.218 5.39.026.804-.22 1.074-1.045 1.316-.202.055-.403.157-.61.175-2.74.248-5.403.89-8.072 1.53-.94.222-1.52-.128-1.645-.986-.366-2.508-.693-5.014-.992-7.53-.086-.73.37-1.148 1.138-1.15 1.694-.017 3.387-.008 5.077-.008v.077c1.59 0 3.175-.018 4.763.005.806.014 1.124.336 1.168 1.175zm-1.107-14.94c.2 2.426.397 4.855.518 6.356.196 4.436.398 4.11-3.164 4.127-1.912.01-3.824.016-5.73-.014-.632-.01-1.267-.093-1.89-.203-.734-.128-1.15-.576-1.16-1.29-.02-1.59-.058-3.184.037-4.77.093-1.584.33-3.16.51-4.737.098-.79.43-1.114 1.265-1.056 2.96.213 5.917.453 8.87.712.458.04.703.404.744.87zm-9.15-9.08c.534-2.143 1.307-4.228 1.962-6.34.242-.78.733-1.245 1.55-1.393 1.135-.208 2.252-.53 3.396-.658 1.246-.136 1.5.152 1.52 1.35.033 2.112.057 4.228.09 6.34.007.528.033 1.057.065 1.584.06 1.036.187 2.068.16 3.103-.014.397-.45.42-3.325.247-.846 0-1.712.123-2.534-.02-4.397-.763-4.02.348-2.884-4.21zm-8.438 1.047c1.458-1.66 2.884-3.352 4.422-4.928.728-.745 1.685-1.265 2.545-1.877.07-.043.25-.043.3.008.12.128.304.33.27.442-.776 2.52-1.565 5.035-2.39 7.533-.12.356-.476.632-.653.86-.286 0-.4.024-.496-.004-1.3-.418-2.61-.82-3.892-1.28-.364-.126-.327-.5-.108-.75zm-8.264 15.234c.483-4.347 2.093-8.192 5.084-11.422.54-.582 1.026-.7 1.707-.412 1.56.658 3.12 1.33 4.673 2 .54.236.823.637.763 1.25-.338 3.37-.68 6.747-1.007 10.122-.097 1.017-.3 1.216-1.395 1.23-.427.007-.85 0-.83 0-2.997-.1-5.518-.44-7.977-1.138-1.01-.282-1.138-.568-1.02-1.632zM36.09 96.327c-1.603.3-3.124 1.926-3.17 3.494-.042 1.4.342 2.706 1.22 3.827.825 1.056 1.853 1.71 2.537 1.624 1.144-.074 1.566-.07 1.98-.13 3.18-.454 4.67-3.712 2.95-6.43-1.008-1.59-3.648-2.732-5.517-2.38z"/></svg>