<svg xmlns="http://www.w3.org/2000/svg" width="128" height="128" viewBox="0 0 128 128"><path d="M123.275 79.473c-1.227-2.962-2.647-5.82-4.262-8.59-1.123-1.93-2.133-3.93-3.147-5.92-.82-1.616-1.532-3.288-2.368-4.896-1.97-3.784-3.97-7.552-5.982-11.31-.704-1.316-1.46-2.606-2.243-3.876-.21-.337-.61-.79-.93-.796-1.59-.023-3.18.085-4.768.147-1.936 1.11-3.977 2.075-5.773 3.37-1.36.983-2.507 2.314-3.565 3.635-.674.843-1.298 1.297-2.392 1.138-3.475-.51-6.968-.91-10.344-1.97-1.826-.575-3.667-1.06-5.246-2.26-.666-.506-1.513-.774-2.29-1.134-2.74-1.278-5.36-1.097-7.828.696-.604.44-1.18.91-1.758 1.382-.615.5-1.213.864-1.978.224-.89-.737-1.93-.767-3.03-.61-1.264.177-2.54.298-3.81.354-2.344.1-4.678.14-7.014.512-2.517.403-5.077.555-7.623.786-.847.078-1.754.245-2.543.037-.658-.174-1.18-.85-1.773-1.283-.26-.188-.56-.314-.835-.476-2.573-1.51-5.14-3.03-7.72-4.53-.548-.317-1.116-.626-1.708-.843-1.384-.504-2.592-.087-3.232 1.205-.802 1.624-1.504 3.297-2.223 4.96-.763 1.755-1.49 3.525-2.24 5.29-.625 1.47-1.276 2.93-1.88 4.41-.847 2.072-1.623 4.17-2.494 6.23-1.995 4.71-4.053 9.396-5.513 14.31-.18.61-.375 1.225-.47 1.852-.11.766.13 1.413.646 2.052.916 1.133 2.243 1.606 3.405 2.336 1.808 1.14 3.707 2.037 5.832 2.526 1.768.405 3.42.373 4.928-.582 1.024-.648 1.777-.644 2.827.008 1.062.66 2.357.955 3.56 1.39.647.236 1.098.6 1.17 1.343.156 1.572 1.205 2.418 2.512 3.05 1.056.513 2.112 1.014 3.136 1.59.334.188.7.544.8.896.868 2.988 2.95 4.297 5.926 4.45.21.01.43.16.624.116 1.067-.217 1.525.31 1.816 1.27.462 1.5 1.434 2.683 2.91 3.2.97.34 2.233 0 3.093.467.96.516 1.51 1.742 2.42 2.41 2.58 1.898 6.335 1.878 8.5-.443.896-.962 1.02-.857 2.05.13.386.368.755.756 1.144 1.12 2.563 2.415 6.496 3.184 9.39.08.666-.713 1.37-.86 2.3-.598 3.034.845 5.42-.3 7.396-2.562.345-.4.767-.803.94-1.283.493-1.386 1.483-1.68 2.787-1.505.416.054.856.022 1.278-.026 1.337-.15 2.416-.78 3.288-1.79.693-.803.733-1.737.59-2.718-.025-.184-.006-.376 0-.565h-.072c-.006-.053-.01-.107-.02-.158l-.212-.193c.066.028.16.038.187.088.017.03.02.066.028.103l.096.085c0 .023-.004.05-.005.075 1.14.006 2.283.003 3.424.026 1.19.025 2.33-.15 3.405-.708 1.506-.78 2.298-2.288 2-3.975-.094-.52-.403-1.02-.422-1.532-.014-.355.203-.88.484-1.056 1.893-1.19 3.835-2.31 5.762-3.448.417-.245.762-.125 1.14.164 2.877 2.2 3.13 2.26 6.4 1.44.613-.153 1.19-.452 1.8-.64.6-.186 1.225-.47 1.83-.44 2.672.134 4.674-1.18 6.585-2.807 1.658-1.407 2.26-3.097 1.297-5.422zm-101.696-.66c-.177.333-.546.564-.85.865-.75-1.17-2.05-.537-2.93-1.235-.746-.597-1.285-.384-1.91.33-.348.396-.61.863-.918 1.29-.026.034-.162.042-.175.02-.053-.088-.114-.198-.1-.288.055-.42.194-.838.18-1.253-.006-.28-.144-.63-.346-.817-.353-.326-.764-.23-1.12.092-.23.203-.452.43-.72.56-.084.037-.43-.204-.433-.32-.003-.305.07-.63.195-.91.69-1.556 1.422-3.094 2.108-4.647 2.19-4.958 4.33-9.94 6.565-14.877 1.105-2.44 1.653-5.04 2.41-7.58.268-.897.468-.963 1.348-.46.186.107.352.237.538.34.557.32 1.126.612 1.663.956 1.14.723 2.573.976 3.442 2.13-.402 1.31-.71 2.657-1.227 3.92-1.41 3.458-2.215 7.09-3.194 10.673-1.073 3.912-2.64 7.627-4.525 11.21zm19.64 16.355c-.286.747-1.04 1-1.748 1.23-.487.156-1.173-.142-1.266-.647-.165-.91-.248-1.835-.32-2.76-.014-.17.153-.4.3-.537 1.382-1.31 2.964-2.34 4.633-3.27.15.13.404.285.38.345-.64 1.888-1.275 3.778-1.98 5.643zm4.633 3.763c-.43-.812-.516-1.806-.765-2.75.217-.62.42-1.213.63-1.8.244-.672.803-.843 1.425-1.085.975-.38 1.882-.956 2.77-1.522 1.185-.752 2.47-1.216 3.823-1.496 1.2-.248 1.9.523 1.493 1.62-.996 2.708-2.475 5.156-4.085 7.53-1.805 2.662-4.26 1.452-5.29-.494zm14.05-.875c-.303 1.146-.826 2.204-1.705 3.002-.867.787-1.676 1.43-1.712 2.84-.027 1.06-1.457 1.73-2.976 1.664-.16-.044-.572-.14-.963-.284-.63-.238-.936-1.02-.634-1.564.156-.278.325-.547.504-.81 1.437-2.094 2.885-4.18 4.31-6.283.32-.476.708-.746 1.284-.787 1.35-.097 2.235.91 1.89 2.223zm33.464-4.614c-1.463.145-2.7-.36-3.9-1.14-3.142-2.04-5.98-4.457-8.786-6.92-3.04-2.674-6.114-5.313-9.177-7.966-.24-.21-.48-.424-.734-.62-.417-.316-.82-.694-1.41-.537-.386.105-.584 1.147-.32 1.757.17.388.345.79.6 1.122 1.624 2.11 3.05 4.38 5.014 6.216.235.22.456.45.68.68 3.733 3.823 7.556 7.535 12.184 10.3.636.38.6.72.093 1.19-1.876 1.738-3.886 1.864-6.196.847-3.738-1.65-7.184-3.727-10.272-6.398-1.613-1.397-3.172-2.86-4.805-4.227-.812-.68-1.708-1.27-2.63-1.786-.283-.16-.836-.033-1.166.143-.52.28-.705.88-.47 1.388.357.76.79 1.518 1.33 2.158 3.397 4.026 7.255 7.52 11.89 10.083.747.414 1.51.797 2.244 1.23.615.365.677 1.056.197 1.63-1.543 1.83-2.994 2.24-5.076 1.264-1.35-.628-2.61-1.442-3.92-2.16-.837-.458-1.656-.977-2.544-1.317-.45-.175-1.032-.053-1.547 0-.366.04-.734.704-.55.992.39.622.743 1.31 1.276 1.79.95.852 2.02 1.57 3.034 2.35.34.26.286.707-.06 1.04-.96.92-2.07 1.19-3.21.496-1.08-.66-2.107-1.44-3.065-2.276-1.286-1.123-1.315-1.248-.26-2.53 1.392-1.7 1.77-3.63 1.472-5.708-.275-1.923-1.22-3.353-3.266-3.883-1.258-.327-1.302-.404-1.278-1.708.02-1.116-.13-2.114-.94-2.944-.62-.632-1.31-1.04-2.233-1.092-2.185-.13-4.25.237-6.177 1.295-.558.307-1.1.643-1.675.92-.077.04-.382-.16-.402-.28-.135-.837-.112-1.714-.35-2.516-.48-1.635-1.957-2.342-3.543-1.69-.98.405-1.87 1.018-2.816 1.506-.53.274-1.09.493-1.637.73v.11l-.16.007c-1.19 1.13-2.372 2.267-3.573 3.386-.622.578-2.48.106-2.697-.734-.288-1.13-.485-2.284-.66-3.436-.108-.722.35-1.19.932-1.52.704-.4 1.668-.384 2.105.017.156.14.34.29.41.477.636 1.682 1.99 1.888 3.487 1.808l.09-.084c.02-.01.046-.02.07-.03.033-1.57-.042-3.1-1.17-4.385-.737-.843-1.556-1.445-2.724-1.436-.64.002-1.28.01-1.92.017-1.122.01-2.074.433-2.876 1.21-.382.37-.72.795-1.134 1.124-.73.58-.78 1.764-1.837 2.043-.74-.597-1.47-1.21-2.228-1.776-.336-.25-.795-.354-1.1-.632-.175-.16-.287-.6-.193-.803 1.14-2.405 2.412-4.75 3.483-7.186 1.76-4.014 2.843-8.255 3.75-12.527.442-2.076.544-4.223.806-6.337.06-.527.12-1.06.234-1.575.128-.57.506-.932 1.11-.958.53-.02 1.064.026 1.6.02 2.77-.014 5.532.012 8.287-.516 1.555-.3 3.19-.18 4.786-.283s3.184-.244 4.78-.354c.2-.013.405.085.61.132-.152.245-.247.597-.466.718-.934.512-1.87 1.05-2.865 1.408-1.744.63-2.416 1.874-2.627 3.63-.23 1.892-.606 3.775-1.046 5.635-.29 1.233-.795 2.42-1.23 3.617-.18.502-.462.966-.63 1.47-.863 2.585.86 5.362 3.6 5.617 1.584.144 3.2.088 4.794-.016 1.67-.11 3.02-.975 4.17-2.156 1.57-1.613 2.96-3.358 4.018-5.355.34-.646.86-.865 1.568-.865 2.13.005 4.29.174 6.38-.133 1.188-.175 1.79.046 2.38.946 2.12 3.23 4.747 6.015 7.58 8.63 2.977 2.75 5.904 5.553 8.827 8.362 1.154 1.11 2.227 2.3 3.35 3.44.746.756 1.425 1.573 2.445 2.024.864.38 1.163 1.198 1.277 2.085.13.99-.427 1.644-1.39 1.737zm8.822-10.822c-2.06 1.117-4.108 2.256-6.183 3.342-1.05.547-1.372.47-2.123-.574-2.632-3.66-5.803-6.81-9.082-9.867-.7-.657-1.405-1.31-2.148-1.918-3.482-2.852-6.592-6.042-9.084-9.808-.89-1.348-2.14-2.03-3.988-1.87-.01 0-.235-.045-.435.008-2.93.74-5.916.603-8.89.518-1.378-.038-2.272.548-2.624 1.84-.558 2.034-1.864 3.587-3.243 5.056-1.525 1.626-3.493 1.856-5.574 1.323-.14-.036-.27-.31-.306-.49-.038-.197-.026-.45.07-.615 1.65-2.837 1.908-6.066 2.513-9.18.248-1.277.712-2.065 1.91-2.663C56.048 56.2 59.03 54.542 62 52.88c.92-.517 1.74-1.223 2.588-1.868.928-.704 1.975-.882 3.024-.5 1.092.396 2.188.874 3.152 1.514 1.265.843 2.6 1.44 4.053 1.816 2.47.64 4.92 1.376 7.408 1.91 1.965.426 3.977.644 5.977.874.49.053 1.035-.175 1.525-.346 1.233-.426 1.22-.44 1.837.708 2.735 5.067 4.98 10.354 7.157 15.68 1.167 2.856 2.554 5.62 3.846 8.424.433.94.398 1.097-.38 1.52zm14.99-1.862c-.023-.036-.03-.078-.037-.122l-.1-.09c-.007-.043-.012-.09-.02-.134-.31-.193-.686-.342-.86-.62-1.004-1.605-1.945-3.253-2.92-4.877-.267-.443-.506-.95-.893-1.253-.27-.208-.793-.213-1.16-.128-.232.053-.527.43-.543.68-.06.968-.037 1.94-.038 2.912l.09.14c.04.084.074.172.124.25.032.046.09.073.135.107-.118-.083-.236-.172-.35-.26v-.234c-.545-.83-1.09-1.66-1.628-2.493-.23-.355-.378-.79-.68-1.067-.283-.26-.704-.42-1.088-.476-.102-.016-.382.488-.412.773-.067.632-.03 1.274-.03 1.91-.003.682-.003 1.364-.003 2.045.03.03.052.064.084.093.03.08.06.16.096.237l.18.14c-.053-.03-.13-.047-.16-.095-.007-.012-.01-.03-.018-.044l-.18-.144v-.183c-1.313-1.33-2.292-2.862-3.03-4.59-1.958-4.6-4.263-9.036-6.56-13.473-1.127-2.18-2.504-4.198-4.088-6.076-.304-.36-.34-.775.046-1.12 1.82-1.612 3.39-3.58 5.93-4.17.1-.02.2-.073.287-.13 2.866-1.95 2.78-1.09 3.965 1.468 2.854 6.176 5.725 12.34 8.555 18.526 1.68 3.67 3.31 7.368 4.936 11.067.146.33.16.72.213 1.09.032.02.064.037.096.06.008.052.014.11.02.164l.23.208c-.063-.027-.163-.036-.193-.087zM67.876 38.86c1.152.212 2.022-.313 2.45-1.5.18-.496.343-1.002.47-1.516.854-3.39 1.733-6.768 2.513-10.173.4-1.745.605-3.54.897-5.31l-.124-.016c0-.318.053-.648-.017-.95-.066-.274-.22-.666-.427-.735-.226-.076-.676.074-.817.274-.547.772-1.115 1.557-1.487 2.42-1.3 3.016-2.606 6.034-3.74 9.116-.69 1.876-1.123 3.86-1.558 5.82-.262 1.184.667 2.354 1.838 2.57zm-15.92-10.59c.496 2.06 1.037 4.112 1.614 6.153.168.6.44 1.193.78 1.712.37.557.96.826 1.66.7.71-.127 1.395-.824 1.39-1.54-.003-.737-.09-1.48-.223-2.205-.88-4.81-2.345-9.47-3.63-14.176-.135-.508-.317-1.03-.6-1.466-.208-.323-.618-.72-.936-.72-.34 0-.827.364-.982.694-.353.74-.537 1.562-.707 2.09.137 1.167.177 2.02.34 2.85.4 1.977.82 3.95 1.295 5.908zM38.832 37.6c.42.555 1.123.976 1.78 1.262 1.1.472 2.21-.433 2.073-1.62-.14-1.188-.62-2.247-1.28-3.233-1.536-2.308-3.056-4.625-4.608-6.92-.354-.525-.76-1.04-1.23-1.454-.293-.256-.758-.315-.89-.365-.946.02-1.658.556-1.63 1.14.035.73.068 1.517.355 2.172 1.42 3.232 3.307 6.203 5.43 9.015zm44.484 3.027c.563-.475 1.138-.965 1.58-1.547 1.935-2.54 3.828-5.106 5.72-7.676.44-.6.835-1.233 1.192-1.886.142-.258.116-.608.142-.754-.096-.95-1.086-1.547-1.66-1.11-.67.507-1.373 1.036-1.876 1.693-2.005 2.616-3.962 5.27-5.882 7.95-.424.59-.707 1.312-.91 2.013-.097.34.054.826.244 1.158.222.39 1.072.472 1.448.158z"/></svg>