<svg xmlns="http://www.w3.org/2000/svg" width="128" height="128" viewBox="0 0 128 128"><path d="M123.61 72.413c-.438-2.56-1.51-4.843-3.293-6.766-.934-1.007-2.083-1.434-3.445-1.24-.734.107-1.463.245-2.197.37-2.613.435-4.862 1.515-6.368 3.78-.53.796-.98 1.17-2.054.874-1.585-.433-3.13-.054-4.57.82-2.176 1.32-4.395 2.56-6.605 3.82-.552.315-1.112.623-1.694.86-.853.35-1.448-.02-1.52-.91-.078-.95-.07-1.916-.21-2.86-.31-2.053-1.094-2.87-3.238-3.31-1.027-.21-2.09-.317-3.14-.337-3.61-.078-7.224-.075-10.832-.157-1.056-.02-2.125-.128-3.157-.333-2.598-.518-5.205-1.02-7.757-1.714-1.88-.51-3.758-.67-5.67-.66-1.702.01-3.4.12-5.1.11-1.977-.014-3.748.603-5.43 1.57-.737.423-1.452.884-2.21 1.26-2.484 1.225-4.842 2.65-7.007 4.38-.413.33-.856.632-1.316.896-.128.07-.452.02-.533-.09-.306-.422-.514-.918-.828-1.336-2.397-3.193-2.575-2.966-5.774-1.787-.493.183-.96.46-1.412.73-2.466 1.473-4.985 2.823-7.755 3.65-.405.116-.793.312-1.163.51-.768.417-1.433.902-1.504 1.896-.043.625-.496.913-1.084.924-2.336.047-4.672.064-7.008.103-1.274.02-2.55.02-3.82.125-.893.068-1.45.74-1.606 1.71-.155.982.174 1.71 1.05 2.08 1.667.713 3.38 1.254 5.214 1.345 2.223.115 4.448.307 6.673.357 1.216.03 2.027.427 2.4 1.62.157.508.414.98.603 1.473 1.914 4.955 3.886 9.877 6.45 14.54.202.364.353.767.478 1.166.206.667-.043 1.28-.65 1.62-.274.157-.594.234-.876.38-.437.228-.847.23-1.008-.286-.444-1.408-.796-2.848-1.27-4.248-.116-.336-.513-.68-.863-.816-.52-.203-1.054.01-1.422.44-.2.234-.416.554-.42.836-.022 1.455-.332 2.897-.114 4.353.06.392.156 1.12.077 1.14-.637.182-.814-.42-1.066-.818-.46-.715-.814-1.5-1.306-2.19-.292-.41-.74-.732-1.166-1.03-.413-.285-1.204.154-1.19.645.017.526.022 1.07.167 1.564.32 1.084.465 2.17.32 3.29.02.026.042.053.066.08.034.065.064.138.102.202l.163.096c-.05-.02-.12-.03-.15-.067-.005-.008-.01-.02-.014-.03l-.188-.11c.01-.058.008-.113.016-.17-1.37-1.484-2.098-3.283-2.603-5.2-.106-.404-.19-.863-.44-1.17-.24-.298-.66-.515-1.04-.633-.42-.124-1.1.355-1.206.832-.14.613-.24 1.248-.237 1.87 0 .41.184.825.334 1.22.61 1.585 1.22 3.164 1.857 4.735.184.452.133.802-.226 1.124-.746.675-1.25.572-1.605-.326-.864-2.166-1.73-4.334-2.618-6.49-.115-.284-.347-.524-.553-.758-.4-.448-1.465-.272-1.626.277-.115.4-.24.826-.22 1.232.13 2.394.972 4.554 2.316 6.51.286.414.81.664 1.227.99-.505.316-1.002.646-1.52.945-.546.315-1.132.565-1.663.904-.496.313-.525 1.3-.045 1.693.318.256.723.565 1.09.565.945.012 1.908-.046 2.826-.244 2.9-.632 5.71-1.572 8.54-2.467 3.442-1.09 6.816-2.326 10.138-3.716 1.133-.476 2.074-.67 3.313-.202 1.987.758 4.106 1.046 6.207.238.59-.228 1.184-.47 1.755-.75 2-.98 3.98-2 5.986-2.973 1.747-.843 3.328-1.867 4.46-3.496.298-.425.74-.748 1.12-1.12.5-.48 1.087-.692 1.735-.367 1.183.6 2.476.722 3.73.64 1.73-.103 3.384.173 5.025.573 4.358 1.058 8.757 1.597 13.248 1.413.736-.03 1.478.138 2.216.154 2.017.046 4.042.192 6.045.048 2.746-.203 5.467-.736 8.21-.946 3.915-.3 7.426-1.728 10.755-3.64 2.942-1.69 5.75-3.612 8.66-5.364 2.337-1.4 4.182-3.255 5.534-5.6 1.86-3.217 3.642-6.478 5.56-9.66.99-1.658 1.262-3.378.948-5.205zm-34.95 6.624c.704-.544 1.285-1.042 2.255-.452.39.235 1.06.19 1.543.053 1.528-.424 3.055-.864 4.427-1.722 2.063-1.29 4.144-2.555 6.234-3.802.447-.27.95-.472 1.45-.595.267-.066.675.027.86.21.133.132.102.585-.02.8-.265.446-.6.877-.975 1.246-1.372 1.34-2.63 2.773-3.648 4.4-.653 1.046-1.576 1.705-2.682 2.15-4.043 1.607-8.2 2.865-12.46 3.737-1.232.252-2.538.156-3.807.216-2.9.097-5.696-.473-8.456-1.286-.395-.117-.775-.288-1.163-.433.48-.14.955-.33 1.447-.394.52-.073 1.062.01 1.59-.032 2.004-.166 4.036-.203 6.004-.57 2.75-.516 5.2-1.81 7.4-3.53zm-42.25 20.47c-.26.17-.556.295-.85.415-2.934 1.19-5.88 2.368-8.813 3.57-.55.223-.996.18-1.438-.23-1.16-1.083-2.37-2.108-3.496-3.22-1.454-1.433-2.38-3.23-3.253-5.045-.27-.57-.5-1.17-.653-1.784-1.024-4.11-2.704-8.004-3.932-12.043-.274-.902-.493-1.824-.763-2.837.294-.432.482-1.043.862-1.21 1.935-.833 3.913-1.573 5.888-2.307.936-.348 1.17-.267 1.53.472 2.323 4.76 5.427 9.058 7.94 13.71 1.46 2.7 3.328 5.15 5.94 6.926.517.35.96.823 1.384 1.294.506.57.297 1.862-.347 2.286zm71.29-24.774c-.044.096-.092.192-.144.285-2.045 3.718-4.064 7.45-6.14 11.147-1.01 1.795-2.41 3.195-4.3 4.122-1.232.606-2.42 1.33-3.534 2.133-1.824 1.316-3.842 2.254-5.877 3.15-1.058.465-2.193.87-3.328 1.02-5.568.73-11.107 1.835-16.77 1.477-1.168 0-2.336-.047-3.503.008-4.21.203-8.22-.74-12.128-2.157-2.78-1.005-5.628-1.944-8.22-3.335-2.785-1.493-5.516-3.198-7.697-5.573-.565-.612-1.087-1.33-1.396-2.098-.83-2.063-1.547-4.17-2.277-6.272-.203-.593-.328-1.224-.42-1.845-.084-.56.134-1.067.61-1.382 2.64-1.776 5.31-3.39 8.628-3.747 2.746-.296 5.483-.555 8.24-.593.842-.01 1.674-.224 2.514-.325 2.53-.3 5.023-.373 7.586.085 3.854.683 7.757 1.154 11.71.894 1.58-.102 3.18.035 4.766.092.562.02 1.024.282 1.216.854.22.645.148 1.294-.326 1.775-.36.37-.82.764-1.297.865-1.267.28-2.35.942-3.51 1.448-1.162.512-2.39.843-3.697.827-1.7-.02-3.4.084-5.097.033-2.132-.064-4.237.128-6.317.576-.617.13-1.24.297-1.81.56-.82.38-2.03.38-2.183 1.57-.206 1.61-.18 3.23 1.383 4.286 1.23.823 2.42 1.767 3.763 2.352 3.91 1.706 7.98 2.762 12.303 2.858 4.395.094 8.674-.318 12.816-1.856 2.383-.885 4.774-1.754 7.18-2.574 1.695-.578 2.946-1.693 3.873-3.153 2.282-3.59 5.375-6.56 7.684-10.126.28-.433.69-.812 1.11-1.124 1.015-.76 3.092-1.112 3.575-.667 1.082 1.018 1.56 3.092 1.01 4.404zm-59.215-37.32c.258 4.617 1.883 8.658 4.997 12.092 2.116 2.33 4.64 4.08 7.686 4.845 1.935.486 3.97.635 5.968.776 1.69.117 3.394.053 5.088-.005 3.264-.11 6.255-.994 8.728-3.25.47-.43.97-.828 1.48-1.206 1.04-.78 1.83-1.764 2.42-2.91.827-1.603 1.566-3.227 2.006-4.998.875-3.52 1.3-7.076 1.232-10.195-.004-3.043-.048-5.57-.642-8.08-1.277-5.437-4.54-8.995-9.845-10.644-1.403-.437-2.89-.61-4.344-.875-4.727-.857-9.267-.127-13.698 1.606-5.296 2.075-8.69 5.933-10.404 11.264-.577 1.79-1.12 3.735-1.014 5.57.115 2 .224 4.012.34 6.017zm6.22-7.143c.108-.733.134-1.48.208-2.22.316-3.223 1.776-5.83 4.26-7.886.82-.676 1.63-1.363 2.478-2 1.557-1.168 3.264-1.742 5.26-1.95 3.377-.353 6.516.35 9.657 1.332 3.76 1.175 6.03 3.738 7.06 7.515.624 2.29.635 4.61.628 5.813.002 5.188-.47 9.167-1.886 12.996-.148.4-.295.794-.46 1.185-1.368 3.328-3.973 4.828-7.448 4.95-1.048.037-2.114-.1-3.158-.244-1.786-.24-3.556-.647-5.346-.803-2.507-.22-4.427-1.506-5.993-3.262-1.333-1.493-2.55-3.112-3.44-4.953-1.6-3.33-2.354-6.78-1.816-10.474zM35.792 91.475c-2.272-.1-3.883 1.862-3.915 4 .07.313.17.932.355 1.528 1.056 3.445 4.747 4.57 7.54 2.31 1.49-1.208 1.937-3.056 1.118-4.816-1.006-2.165-2.806-2.92-5.098-3.02zM75.58 33.692c.103.017.208.047.31.06 1.174.14 1.913.745 2.188 1.928.165.72.424 1.422.622 2.138.163.592-.272.963-.94.785-.412-.107-.792-.317-1.206-.41-.763-.172-1.51.207-1.856.887-.288.57-.19 1.283.23 1.785.94 1.133 2.147 1.694 3.612 1.74 1.22.04 1.92.686 2.286 1.846.25.796.59 1.596 1.042 2.29.52.8 1.952.68 2.445-.167.198-.34.324-.815.267-1.2-.15-1.034-.42-2.053-.64-3.08.768-.724 1.533-1.454 2.304-2.175 1.34-1.253 1.784-2.81 1.696-4.61-.15-2.84-1.84-4.8-4.638-5.193-.627-.087-1.27-.064-1.91-.11-1.247-.09-1.482-.266-1.826-1.358-.157-.506-.32-1.01-.46-1.522-.257-.95.084-1.53.985-1.54.845-.013 1.69.05 2.525.17.405.06.77.362 1.177.47.673.18 1.255-.027 1.69-.584.41-.52.45-1.21.127-1.787-.606-1.09-1.49-1.82-2.744-1.947-.947-.096-1.91-.075-2.864-.096-.63-.017-1.344.17-1.867-.065-.78-.356-.465-1.323-.7-2.002-.034-.1-.063-.203-.104-.3-.23-.573-.683-.772-1.26-.745-.57.027-.974.435-.99 1.013-.018.535-.007 1.064-.007 1.07.28 2.98.31 2.9-1.267 4.484-.296.3-.565.634-.82.97-2.053 2.66-1.476 6.614 2.6 7.26zm6.018.258c1.63-.277 2.723.722 2.52 2.267-.08.79-.464 1.387-1.177 1.73-.14.07-.465.028-.547-.084-.77-1.028-1.003-2.258-1.178-3.488-.018-.128.23-.398.384-.425zm-5.534-4.807c.055.07.107.14.162.208l-.088.205c-.085-.073-.165-.143-.25-.213.057-.063.114-.13.175-.196z"/></svg>