<svg xmlns="http://www.w3.org/2000/svg" width="128" height="128" viewBox="0 0 128 128"><path d="M120.288 58.436c-.773-.832-1.707-1.242-2.848-1.147-3.48.286-6.76 1.06-8.983 4.06-.674.91-1.423 1.136-2.464.97-1.885-.31-3.544.276-5.13 1.283-1.883 1.195-3.814 2.312-5.756 3.407-.732.417-1.54.702-2.328 1.008-.388.153-.87-.277-.816-.665.136-.94.356-1.88.384-2.825.116-3.723-.494-3.354-3.87-3.902-.404-.066-.844.085-1.265.13-1.058.118-2.112.318-3.17.325-1.586.017-3.18-.056-4.762-.184-1.37-.11-2.73-.34-4.095-.533-2.096-.292-4.207-.518-6.287-.915-2.395-.46-4.77-1.027-7.134-1.636-2.308-.596-4.64-.51-6.976-.41-1.058.045-2.106.31-3.163.363-1.317.064-2.492.506-3.622 1.117-3.833 2.07-7.77 3.97-11.1 6.853-.358.313-.712.183-.98-.323-.494-.928-.886-1.877-1.67-2.672-.963-.98-1.968-1.214-3.162-.757-1.084.42-2.19.847-3.18 1.45-2.093 1.282-4.277 2.35-6.583 3.195-.895.33-1.758.75-2.61 1.182-.474.24-.906.587-.938 1.195-.044.8-.51 1.077-1.25 1.106-2.004.083-3.994.353-6.026.118-1.682-.194-3.41-.136-5.056.42-.648.22-1.058.688-1.167 1.38-.11.725.31 1.58 1.04 1.784.91.25 1.86.438 2.803.48 2.116.095 4.242-.103 6.325.57.67.217 1.476.052 2.214 0 .635-.042 1.26-.194 1.893-.26.31-.033.702.054.592.463-.204.765-.09 1.43.21 2.155 1.267 3.042 2.48 6.106 3.704 9.163 1.225 3.056 3.06 5.825 4.164 8.937.1.288.302.587.544.765.903.66 1.424 1.54 1.71 2.61.395 1.48 1.477 2.283 2.864 2.736 2.515.82 5.005.937 7.445-.276 2.093-1.042 4.208-2.042 6.278-3.133 1.216-.64 2.57-1.22 3.483-2.19 1.273-1.355 2.857-2.53 3.484-4.432.05-.16.514-.242.794-.26.187-.015.435.1.572.24 1.572 1.61 3.46 2.38 5.717 2.26.31-.018.63.093.94.16 8.076 1.776 8.076 1.776 15.76 1.822.532.004 1.066.002 1.744.002 4.76.267 9.632-.123 14.48-.818 3.414-.49 6.633-1.476 9.16-4.053.495-.5 1.238-.774 1.89-1.103 2.283-1.146 4.59-2.237 6.856-3.41 2.61-1.355 4.667-3.35 6.16-5.862 2.012-3.38 3.93-6.815 5.857-10.244.31-.543.587-1.162.66-1.772.477-3.83-.74-7.112-3.344-9.92zM87.986 72.514c.437-.302.85-.638 1.278-.953.463-.34.95-.425 1.488-.17.597.29 1.188.29 1.85.113 1.858-.496 3.63-1.12 5.253-2.22 1.843-1.245 3.772-2.37 5.704-3.483.42-.246 1.004-.244 1.52-.287.17-.015.424.15.512.305.077.142.04.414-.05.567-.21.365-.45.73-.74 1.032-1.48 1.528-2.947 3.06-4.125 4.853-.593.9-1.456 1.515-2.48 1.924-4.45 1.78-9.004 3.2-13.745 3.954-.83.128-1.698.018-2.55.018-2.986.006-5.903-.562-8.794-1.267-.404-.1-.767-.36-1.142-.557-.088-.05-.154-.142-.228-.213.125-.08.248-.225.376-.228 1.806-.035 3.616-.096 5.424-.064 3.867.073 7.303-1.158 10.447-3.33zM46.082 92.587c-.78.33-1.55.683-2.336 1.005-2.254.928-4.512 1.845-6.77 2.763-.29.12-.586.237-.923.37-.26-.155-.56-.27-.776-.47-1.237-1.164-2.517-2.284-3.66-3.537-.852-.93-1.65-1.963-2.228-3.074-1.714-3.293-3.346-6.627-4.917-9.99-.435-.932-.56-2.012-.802-3.033-.12-.502-.214-1.02-.257-1.534-.105-1.31-.416-2.48-1.617-3.26-.328-.212-.17-.916.21-1.063 3.348-1.31 6.704-2.606 10.063-3.893.376-.145.803.31.75.756-.016.107-.037.213-.08.307-.47.992-.27 1.894.48 2.624 1.18 1.14 1.773 2.603 2.44 4.05 1.776 3.865 3.85 7.546 6.516 10.896 1.205 1.52 2.55 2.827 4.117 3.934.45.32.79.734.768 1.312-.027.76-.15 1.487-.98 1.84zm71.832-25.216c-.178.498-.452.96-.713 1.424-1.563 2.78-3.16 5.542-4.697 8.336-.686 1.245-1.465 2.343-2.852 2.868-1.242.47-2.102 1.433-2.96 2.374-2.477 2.722-5.364 4.837-8.86 6.066-1.197.424-2.406.87-3.65 1.09-2.287.41-4.595.733-6.91.958-3.38.326-6.77.533-10.16.793l-.014-.18c-.32 0-.64-.016-.958 0-7.093.38-13.64-1.66-20.013-4.496-3.22-1.434-6.235-3.19-8.856-5.568-.784-.712-1.54-1.455-2.265-2.23-1.734-1.855-3.38-3.796-5.184-5.58-.906-.897-1.21-1.974-1.463-3.097-.068-.304.28-.77.55-1.06.19-.203.632-.39.853-.307 1.247.48 2.175-.025 3.188-.712 2.29-1.546 4.66-2.967 6.992-4.452.382-.246.745-.34 1.187-.2 3.122.997 6.29.782 9.47.36 1.578-.21 3.16-.41 4.746-.53.725-.057 1.476.03 2.197.153 2.513.428 5 1.036 7.58.958.316-.01.656-.025.95.073 2.176.713 4.427.645 6.647.5 1.51-.098 2.095.693 2.555 1.852.216.552.092 1.05-.403 1.392-1.775 1.23-3.7 2.23-5.856 2.344-3.39.174-6.784.394-10.176-.26-1.446-.28-2.966-.19-4.452-.232-1.323-.036-2.6 1.49-2.607 2.72-.015 2.91-.045 2.864 2.394 4.715 4.573 3.474 9.85 4.883 15.445 5.32 4.607.364 9.114-.22 13.486-1.797 2.098-.757 4.245-1.376 6.344-2.13 2.367-.854 4.374-2.177 5.526-4.54.23-.474.504-.96.875-1.328 2.44-2.41 4.247-5.307 6.27-8.04.53-.72 1.135-1.227 2-1.472.91-.258 1.83-.81 2.74-.198.96.655 1.5 2.907 1.06 4.117zM43.627 44.407c1.266 1.43 2.586 2.82 3.947 4.163.437.43 1.028.804 1.616.97 2.795.776 5.66.727 8.515.504.606-.047 1.23-.35 1.77-.663 1.572-.916 3.028-2 4.054-3.532.763-1.144 1.566-2.295 2.096-3.552.565-1.34 1.454-1.668 2.758-1.538 1.584.16 3.17.338 4.757.352 7.338.063 14.674.08 22.01.09 1.27.003 2.545-.097 3.82-.164 1.903-.1 3.806-.25 5.713-.312 1.7-.053 3.403-.004 5.104-.017 1.255-.008 2.236-.555 2.997-1.547.626-.817.693-1.762.706-2.723.062-4.576-.47-9.117-.72-13.675-.03-.584-.298-1.314-.717-1.688-.695-.62-1.55-1.143-2.424-1.465-1.44-.53-2.86.235-3.266 1.687-.227.808-.344 1.662-.384 2.502-.063 1.272-.016 2.55-.016 3.825l-.067.004c.067 1.693.155 3.39.192 5.084.01.496-.407.712-.85.795-.59.11-1.25-.196-1.3-.61-.064-.525-.07-1.057-.13-1.583-.185-1.685-.32-3.38-.595-5.05-.173-1.055-.95-1.627-2.003-1.75-1.64-.192-2.69.418-3.165 1.98-.242.8-.405 1.66-.41 2.492-.004 1.052.203 2.104.296 3.16.043.486-.22.842-.7.87-3.494.23-6.992.423-10.485.643-1.694.107-3.384.253-5.075.366-.74.047-1.487.07-2.23.082-3.082.048-6.164.087-9.247.128-.85.012-1.707.09-2.547.01-.357-.035-.73-.353-1.003-.634-.206-.213-.26-.572-.388-.862-1.88-4.24-4.844-7.194-9.6-7.922-1.78-.274-3.596-.62-5.374-.517-3.887.224-6.46 2.49-7.963 5.966-1.755 4.06-1.9 8.24-.59 12.46.187.592.485 1.207.895 1.666zm5.792-8.472c.237-4.624 2.795-5.08 7.056-5.423.35-.027.845.257 1.077.55 1.45 1.85 2.514 3.93 3.328 6.124.157.427.04 1.112-.22 1.504-1.026 1.568-2.363 2.73-4.4 2.707-.64-.008-1.273 0-1.912 0v.064c-.744-.04-1.492-.03-2.226-.13-1.245-.18-2.076-1.02-2.752-1.986-.224-.315-.29-.81-.267-1.212.043-.737.272-1.465.312-2.2zM26.05 96.91c-.31.03-.622.14-.907.27-.46.208-.803.114-1.092-.282-.434-.59-.83-1.22-1.326-1.757-.378-.403-1.305-.367-1.794-.014-.465.333-.674.813-.565 1.38.095.517.27 1.023.353 1.542.02.14-.156.32-.27.46-.016.02-.223-.054-.27-.127-.508-.803-.956-1.65-1.51-2.415-.43-.59-.95-1.125-1.506-1.598-.177-.156-.644-.134-.882-.01-.23.12-.473.485-.46.735.03.733.185 1.46.292 2.188l.075-.008c.14.728.29 1.45.394 2.187.016.1-.188.25-.316.337-.03.02-.198-.08-.244-.158-.94-1.654-2.056-3.23-2.333-5.18-.112-.785-.49-1.387-1.177-1.792-.337-.2-.937-.09-1.148.224-.704 1.04-.857 2.172-.427 3.34.66 1.79 1.376 3.557 2.064 5.337.213.554-.08.96-.987 1.36-.53.23-.67-.083-.843-.536-.875-2.275-1.79-4.533-2.71-6.793-.116-.29-.334-.54-.52-.797-.288-.4-1.11-.37-1.378.062-.163.264-.37.55-.395.84-.053.63-.13 1.3.024 1.897.59 2.246 1.056 4.57 3.093 6.102.486.366.402.512-.235.805-.86.4-1.74.78-2.55 1.262-.632.38-.543 1.455.06 1.938.632.504 1.354.638 2.102.476 2.07-.448 4.19-.774 6.18-1.465 3.404-1.18 6.743-2.556 10.062-3.957.843-.357 1.573-1.064 2.236-1.728.715-.718.832-1.692.693-2.682-.117-.875-.896-1.523-1.786-1.442zm8.992-12.55c-1.536.325-3.108 1.825-3.173 3.21-.154 3.267 1.957 6.618 6.166 5.496 2.044-.544 3.275-2.07 3.21-4.286-.02-.183-.03-.51-.114-.813-.61-2.22-3.79-4.096-6.087-3.61z"/></svg>