<svg xmlns="http://www.w3.org/2000/svg" width="128" height="128" viewBox="0 0 128 128"><path d="M116.9 36.62c-.712-1.2-1.84-1.748-3.232-1.278-1.59.535-3.205 1.123-4.63 1.987-2.546 1.54-5.298 2.537-8.063 3.55-2.453.9-5.045 1.507-6.957 3.5-.277.29-.725.415-1.088.63-.437.256-.82.14-1.084-.237-.783-1.117-1.59-2.227-2.283-3.403-2.84-4.8-5.64-9.622-8.437-14.45-.174-.306-.21-.692-.288-1.055l-.112-.05c-.02-.074-.037-.15-.064-.223l-.187-.18c.06.037.14.06.168.112.01.02.01.045.02.067l.148.143c.013.043.02.088.03.132.728.31 1.448.64 2.19.907.513.187 1.413-.313 1.514-.86.11-.607.072-1.247.135-1.87.035-.384.247-.427.596-.262.565.267 1.134.562 1.74.683 1.063.214 1.846-.35 1.983-1.47.09-.73.05-1.31.86-1.802 1.004-.613 1.09-1.233.527-2.127-.78-1.243-1.616-2.46-2.552-3.586-1.325-1.592-2.97-2.88-3.706-4.983-.465-1.322-2.488-1.647-3.518-.666-1.444 1.376-2.72 2.923-4.067 4.395-.95 2.553-2.944 4.294-4.784 6.154-.59.597-1.29 1.1-1.82 1.746-1.075 1.312-2.334 2.39-3.674 3.43-2.157 1.678-4.157 3.478-5.26 6.158-.628 1.54-.647 2.776.187 4.16.352.585 1.29 1.063.888 1.83-.314.597-1.04 1.003-1.627 1.43-1.276.933-2.555 1.86-3.872 2.726-1.777 1.163-3.665 2.155-5.83 2.216-1.707.048-3.323.488-4.97.802-.82.157-1.638.416-2.468.47-5.754.343-10.39 3.067-14.58 6.77-2.286 2.013-4.52 4.086-6.86 6.036-.912.762-1.646 1.557-2.2 2.61-.898 1.715-1.418 3.485-1.426 5.43-.004 2.42-.24 4.82-.538 7.23-.392 3.124-.58 6.3.036 9.437.112.565.112 1.013-.277 1.44-.427.47-.875.917-1.26 1.416-2.956 3.844-4.867 8.09-5.018 13.02-.03.833-.18 1.667-.34 2.49-.317 1.692-.224 3.33.3 4.98 1.174 3.68 3.52 6.404 6.695 8.492 3.05 2.01 6.567 2.752 10.013 3.68.294.078.627.073.93.03 1.872-.278 3.75-.513 5.604-.876 8.147-1.584 13.625-6.264 16.14-14.215 1.888-5.97 1.637-11.82-1.376-17.426-.096-.19-.187-.38-.295-.558-.31-.502-.267-.976.02-1.477 1.734-3.004 4.43-4.702 7.665-5.664 1.51-.45 3.058-.78 4.54-1.303 3.978-1.405 7.316-3.723 9.666-7.275 1.1-1.66 2.044-3.432 2.998-5.183.907-1.665 1.702-3.384 2.61-5.046.452-.82 1.05-1.565 1.58-2.347 1.153.25 1.62 1.253 2.262 2.065.065.082.12.17.195.248.797.82 1.845 1.072 2.87.578.75-.363 1.46-.82 2.156-1.282 2.31-1.52 4.16-3.544 6.12-5.458 1.045-1.02 2.116-2.1 3.374-2.803 3.31-1.84 6.734-3.45 10.41-4.46 1.004-.274 1.968-.735 2.9-1.21 2.528-1.28 4.805-3.02 7.435-4.13.19-.084.366-.208.536-.334 1.205-.89 1.483-2.325.708-3.63zM83.95 16.226c.024.077.048.156.078.23l.195.148c-.06-.032-.146-.045-.177-.092-.01-.017-.01-.04-.02-.058-.057-.043-.113-.088-.17-.13l-.184-.225.277.125zM46.68 96.294c.09 1.952-.278 3.998-1.007 6.005-3.022 8.3-10.85 11.384-18.112 10.54-3.83-.448-5.903-2.947-7.446-6.048-1.376-2.77-1.696-5.824-1.773-8.87-.084-3.245.878-6.215 2.785-8.863.27-.38.582-.438 1.058-.37 1.135.17 2.29.21 3.43.33.193.02.516.155.52.25.014.268-.017.633-.19.803-.44.444-.98.787-1.453 1.2-1.094.95-1.633 2.23-1.748 3.608-.156 1.953.57 3.558 2.716 3.98.41.08.834.11 1.248.147.597.05.9.388 1.106.936.62 1.632.373 2.073-1.355 2.248-.63.063-1.27.04-1.883.175-.388.083-.776.33-1.083.595-.99.852-.992 2.185-.006 3.025.996.853 2.17 1.167 3.483 1.24.92.053 1.89-.894 2.688-.05.557.59.797 1.464 1.224 2.183.554.936 1.313 1.62 2.436 1.827 1.278.23 2.406-.72 2.182-1.96-.188-1.024-.555-2.02-.843-3.027-.228-.787-.13-1.198.472-1.66.584-.447 1.2-.852 1.792-1.29.863-.64 1.52-1.463 1.956-2.436 1.14-2.545.072-5.776-3.06-6.39-.92-.18-1.874-.156-2.815-.236-.516-.043-1.042-.066-1.55-.17-.532-.112-.815-1.27-.376-1.596.928-.683 1.888-1.318 2.852-1.952.475-.31.934-.316 1.438.058.582.43 1.213.813 1.873 1.112 1.534.697 3.083.585 4.565-.173.742-.38 1.425-.88 2.12-1.352 1.094-.733 1.548-.58 2.01.736.458 1.295.786 2.616.746 4.006-.014.42 0 .843 0 1.438zm-5.133-26.417c.708-.145 1.373-.495 2.06-.736.067-.02.218.04.24.103.063.175.175.43.1.538-.24.337-.527.64-.836.92-1.862 1.685-3.657 3.44-5.09 5.517-.644.93-1.44 1.485-2.63 1.28-.306-.05-.627-.007-.94-.007v-.065c-.525 0-1.047.018-1.57-.007-.6-.03-.95-.424-.928-.994.033-.864.228-1.587 1.025-2.15 2.652-1.872 5.296-3.723 8.57-4.397zm-5.84-1.607l.048-.03c.026-.063.053-.124.078-.187.053-.01.11-.015.166-.018.246-.405.642-.507 1.09-.5.01-.024.02-.044.03-.07.033 0 .067.004.1.005.748-1.493 2.205-1.987 3.628-2.502.578-.21 1.22-.242 1.828-.378 1.182-.272 1.762.27 1.485 1.463-.063.267-.31.565-.552.688-.256.128-.613.074-.926.07-1.575-.018-3.14.01-4.634.64-.237.1-.542.035-.83.02-.01.023-.025.043-.035.064-.032 0-.062.004-.093.003-.196.533-.667.47-1.094.5-.023.037-.053.06-.075.104l-.17.1c-.005.02-.013.034-.02.05-.01-.01-.02-.015-.03-.02zm-2.243 14.39c.224.046.5.415.53.66.075.614.025 1.248.025 1.875h-.027c0 .523.01 1.045-.004 1.566-.018.567-.22.966-.868 1.058-.82.114-1.632.307-2.45.44-.196.03-.435 0-.602-.09-.376-.207-1.05-2.348-.938-2.857.518-2.35 1.848-3.183 4.33-2.65zm-.93 15.81c.41-.542 1.793-.76 2.262-.384.053.043.056.15.085.227-.123.675-1.195 1.56-1.81 1.397-.24-.064-.436-.416-.57-.674-.078-.15-.065-.437.034-.567zM74.83 54.214c-2.16 3.37-3.94 6.95-5.654 10.56-.045.096-.107.18-.155.275-2.306 4.62-6.067 7.43-10.993 8.753-1.118.3-2.258.495-3.39.734-1.76.373-3.452.896-4.915 2.016-.756.576-1.418 1.2-1.986 1.986-1.907 2.64-3.893 5.224-5.862 7.82-.65.866-1.43 1.53-2.61 1.54-.813.007-1.495-.618-1.31-1.377.315-1.305.596-2.565 1.318-3.805 1.222-2.092 2.38-4.19 3.987-6.023.9-1.03 1.762-2.078 2.892-2.888.594-.423 1.117-.96 1.632-1.486.715-.724 1.075-1.655.704-2.6-.523-1.345-.472-2.634-.228-4.017.253-1.415-.39-2.682-1.173-3.826-.215-.32-.64-.512-1-.715-2.737-1.55-5.477-1.114-8.082.245-1.572.82-3.046 1.877-4.42 3.005-1.38 1.13-2.565 2.496-3.87 3.716-1.22 1.142-1.762 2.6-1.998 4.187-.446 3.012-.845 6.03-1.264 9.045-.074.52-.11 1.047-.223 1.557-.282 1.32-.678 1.802-1.42 1.796-1.558-.013-2.513-.472-2.815-1.534-.285-1.004-.498-2.046-.587-3.084-.1-1.153-.023-2.316-.023-3.473.067-4.11.512-8.164 1.436-12.18.38-1.656 1.196-2.874 2.51-3.84.086-.063.164-.134.255-.19 1.803-1.126 3.288-2.604 4.73-4.15 3.68-3.947 8.282-5.987 13.614-6.493.83-.08 1.656-.252 2.48-.395.486-.086.82.116.986.55.22.586.363 1.207.59 1.794.27.68.548 1.364.91 2 .39.683 1.29 1.054 1.868.885.966-.285 1.64-1.19 1.512-2.136-.07-.513-.248-1.018-.4-1.514-.185-.6-.42-1.187-.574-1.794-.035-.128.136-.395.28-.477.817-.45 1.733-.187 2.1.588.266.573.476 1.17.764 1.732.188.368.43.728.715 1.024.393.41.91.484 1.45.316.46-.14.795-.714.72-1.26-.06-.414-.133-.827-.254-1.225-.19-.6-.434-1.183-.635-1.782-.19-.57.024-.976.61-1.205.484-.187.773.03.99.453.29.56.555 1.146.924 1.648.235.315.62.57.986.727.828.364 1.78-.225 1.89-1.087.145-1.085-.148-2.07-.547-3.065-.31-.762-.118-1.173.494-1.647.082-.063.165-.13.256-.186 4.082-2.534 2.513-2.91 6.02.45 2.522 2.414 4.688 5.118 6.613 8.022.452.678.635 1.278.162 2.018zm12.2-4.817c-.582.606-1.202 1.184-1.76 1.806-1.26 1.405-1.74 1.585-3.148-.145-1.054-1.29-2.47-2.276-3.666-3.456-3.6-3.54-7.18-7.1-10.748-10.67-.514-.515-1.02-1.084-1.365-1.715-.457-.83-.765-1.724-.04-2.635.386-.49.736-1.035.992-1.608.49-1.094 1.218-1.95 2.245-2.556.18-.11.358-.233.504-.382 2.58-2.66 2.63-1.94 4.3.488 2.497 3.637 5.072 7.22 7.62 10.83 1.632 2.32 3.232 4.658 4.233 7.347.216.584.613 1.098.923 1.645.098.174.18.36.267.54-.12.17-.213.363-.357.512zM70.634 30.813c-1.376 1.088-1.69 3.356-.668 4.768.525.73 1.224 1.096 2.117 1.083 1.02.013 1.808-.37 2.333-1.273.757-1.304.59-2.942-.424-4.03-.968-1.026-2.45-1.27-3.36-.548z"/></svg>