<svg xmlns="http://www.w3.org/2000/svg" width="128" height="128" viewBox="0 0 128 128"><path d="M119.523 61.14c-.376-.876-1.035-1.405-1.97-1.396-3.214.03-6.458-.124-9.63.264-2.785.337-5.552.384-8.332.47-1.17.03-1.644-.353-1.76-1.41-.496-4.594-1.657-9.04-2.867-13.482-1.547-5.68-2.73-11.445-3.717-17.248-.337-2.005-.787-3.98-1.773-5.803-1.3-2.405-3.098-4.395-5.252-6.01-2.124-1.594-4.624-2.202-7.286-1.963-.516.046-1.096.175-1.51.463-1.486 1.017-3.058 1.906-3.675 3.85-.615 1.93-1.507 3.773-2.284 5.648-.9 2.176-1.765 4.366-2.738 6.507-.346.766-.885 1.48-1.472 2.09-1.262 1.317-3.283 1.375-4.625.132-.782-.723-1.51-1.525-2.154-2.38-1.685-2.22-3.383-4.42-5.3-6.455-1.092-1.16-1.926-2.563-2.87-3.86-.565-.778-1.07-1.61-1.694-2.34-.9-1.047-2.212-1.502-3.47-1.307-2.432.38-4.482 1.506-5.327 4.06-.403 1.22-.85 2.444-1.07 3.702-.57 3.266-1.007 6.556-1.534 9.83-.526 3.274-1.054 6.547-1.664 9.804-.96 5.152-2.027 10.28-2.972 15.437-.555 3.046-.63 3.214-3.74 3.757-.63.112-1.28.15-1.92.164-1.93.05-3.86.146-5.792.092-2.687-.077-5.34.125-8.004.463-1.902.24-3.14 1.285-4.053 2.814-.486.82-.862 1.713-1.182 2.613-.124.354-.11.91.09 1.2.847 1.232 1.785 2.395 2.69 3.584 1.37.23 2.733.62 4.106.66 8.035.237 16.072.46 24.11.537 4.067.043 8.14-.33 12.206-.336 5.047-.007 10.048-.676 15.08-.86.32-.01.638-.086.958-.112 3.732-.32 7.457-.78 11.197-.918 4.284-.16 8.58-.038 12.868-.038v.094c3.11 0 6.22-.006 9.33.002 3.55.013 7.047-.487 10.557-.955 2.864-.38 5.264-1.7 7.582-3.28.654-.447 1.18-1.015 1.3-1.763.347-2.127.453-4.258-.426-6.32zm-28.483-.756c.23.928-.15 1.5-1.062 1.6-1.27.134-2.55.18-3.823.195-.46 0-.732-.404-.76-.866-.032-.533-.008-1.067-.008-1.6h.096c0-.64-.058-1.288.026-1.916.03-.232.36-.534.606-.598.402-.103.848-.067 1.27-.04 3.726.223 2.975.445 3.653 3.22zM40.195 48.17c.814-.266 1.648-.468 2.475-.692 1.19-.32 2.278-.832 2.556-2.153.165-.794-1.603-1.445-3.253-1.25-.53.06-1.062.117-1.594.11-.15-.005-.375-.24-.418-.41s.036-.492.16-.558c.558-.288 1.136-.555 1.734-.74.917-.29 1.864-.477 2.78-.77.394-.127.812-.345 1.087-.643.267-.288.48-.725.508-1.11.04-.594-.4-.994-.927-1.17-.5-.166-1.042-.258-1.568-.282-.855-.037-1.713.025-2.57.002-.15-.004-.294-.227-.443-.348.16-.128.31-.328.49-.37.626-.14 1.264-.21 1.892-.33.42-.076.848-.156 1.25-.302.734-.26 1.34-.715 1.564-1.496.154-.53-.748-1.373-1.73-1.64-.41-.11-.846-.122-1.268-.193-.102-.017-.198-.08-.3-.117.07-.082.123-.192.21-.24.463-.263.917-.54 1.405-.75.782-.342 1.62-.57 2.36-.982.298-.165.488-.68.556-1.067.07-.397-.604-.994-1.044-1.074-.87-.16-1.698-.046-2.522.27-.384.15-.825.2-1.242.208-.155.002-.464-.27-.445-.37.42-2.42.61-4.895 1.6-7.184.345-.793 1.157-1 1.855-.432.83.672 1.664 1.365 2.376 2.155 1.363 1.515 2.71 3.053 3.937 4.676 2.133 2.814 4.635 5.34 6.304 8.516 1.774 3.368 5.435 3.48 8.09 2.25 1.326-.607 2.207-1.69 2.83-2.967.895-1.828 1.717-3.69 2.597-5.528 1.11-2.32 2.212-4.645 3.392-6.93.436-.847 1.034-1.63 1.652-2.364.853-1.01 1.67-1.09 2.834-.32 2.42 1.605 4.206 3.75 4.69 6.646.897 5.39 2.1 10.714 3.293 16.04.347 1.566.814 3.105 1.215 4.655.15.57-.216 1.024-.85 1.054-.965.045-1.936.005-2.897.096-8.452.8-16.93.498-25.398.61-6.225 0-12.45-.004-18.674.01-.456 0-.87-.056-1.05-.497-.282-.696 0-1.856.495-2.018zm42.123 9.576c-.026.392.003.72-.082 1.018-.258.914-.512 1.835-.868 2.71-.142.35-.498.677-.84.86-.224.12-.614.014-.894-.09-.117-.044-.213-.34-.203-.515.064-1.056.2-2.103.23-3.154.045-1.3.67-1.774 2.03-1.393.25.07.433.38.63.56zm-6.29-.003c-.776 1.536-1.206 3.18-1.564 4.846-.02.1-.064.233-.14.28-.258.162-.53.32-.817.41-.048.01-.304-.333-.293-.505.043-.736.146-1.472.227-2.208s.21-1.465.235-2.202c.04-1.135.077-1.205 1.205-1.205.21.015.43-.004.634.048.27.067.736.1.514.533zm-5.617.358c-.337 1.114-.702 2.223-1.075 3.325-.27.804-.37 1.688-1.035 2.315-.323-.867.11-1.654.255-2.473.18-1.045.25-2.1.407-3.15.066-.454.39-.754.84-.825.163-.027.36.15.54.23.027.19.12.406.068.578zM64.8 57.8c-.012.206.018.43-.045.62-.4 1.196-.838 2.38-1.22 3.58-.22.69-.676.99-1.35 1.144-1 .23-1.404-.116-1.16-1.108.298-1.224.61-2.447.938-3.662.3-1.12 1.243-1.513 2.47-1.027.16.064.25.3.37.456zm-7.16.24c-.56 1.487-1.184 2.95-1.81 4.406-.065.147-.3.224-.453.334-.08-.19-.173-.373-.237-.565-.03-.096-.006-.21-.006-.62.245-1.047.557-2.388.877-3.722.023-.1.084-.234.16-.26.37-.13.752-.3 1.13-.3.122.003.41.543.34.728zm-6.53-.292c-.61 1.78-1.253 3.555-1.9 5.323-.017.05-.14.06-.213.09-.05-.09-.117-.177-.147-.277-.033-.096-.065-.22-.033-.31.523-1.514.617-3.084.64-4.665.006-.427.77-.766 1.273-.57.16.064.407.32.378.408zm-5.233.434c-.21.25-.403.484-.608.705-.01.01-.198-.085-.193-.115.043-.27.107-.535.166-.804.192.062.38.128.633.213zm-7.408.2c.11-.204.567-.385.78-.32.21.068.496.522.436.71-.48 1.51-1.03 2.998-1.57 4.487-.026.064-.172.087-.262.13-.085-.04-.252-.088-.248-.112.235-1.643.026-3.373.864-4.896zm75.637 6.877c-.747.61-1.493 1.22-2.3 1.742-.434.282-.974.52-1.478.55-2.886.17-5.774.265-9.12.41-.93-.07-2.316-.226-3.705-.266-4.41-.117-8.78.358-13.102 1.173-4.443.835-8.91 1.257-13.42 1.246-6.332-.02-12.664-.085-18.994-.064-1.597.002-3.19.27-4.79.406-.853.075-1.71.117-2.56.188-1.71.133-3.415.293-5.125.41-.96.065-1.93.14-2.885.07-3.1-.218-6.195-.508-9.292-.753-.42-.03-.853-.014-1.274.044-3.117.427-6.197-.187-9.296-.318-.107-.004-.245-.015-.305-.08-.21-.222-.472-.445-.563-.718-.155-.468.14-.88.533-1.028.488-.183 1.04-.248 1.568-.262 1.504-.038 3.008 0 4.51-.043 1.068-.032 2.13-.146 3.197-.224.427-.03.864-.15 1.275-.084 6.497 1.024 13.017.407 19.532.347.32-.004.65 0 .96-.068 3.608-.782 7.262-.506 10.904-.512 1.073-.003 2.162.07 3.215-.09 1.518-.236 2.902-.257 4.335.526.667.363 1.698.324 2.492.147 2.936-.656 5.937-.78 8.885-1.23 3.08-.476 6.153-.556 9.235-.737 2.995-.177 5.99-.34 8.98-.57 3.312-.25 6.636-.458 9.92-.91 1.44-.198 2.734.597 4.134.224 1.356-.36 2.734-.533 4.14-.38.1.013.203.064.294.112.093.046.256.117.25.164-.02.198-.02.474-.148.578zM98.31 96.467c-.413-.48-1.075-.434-1.238.112-.404 1.377-1.236 2.492-2.116 3.57-1.22 1.49-2.79 2.268-4.757 2.29-1.87.02-3.638-.26-5.196-1.36-1.397-.99-2.795-1.982-4.146-3.034-2.13-1.66-4.333-3.098-7.034-3.725-3.04-.703-5.44.31-7.52 2.414-.835.843-.79.853-1.56.144-2.497-2.297-5.347-3.046-8.582-1.833-1.613.604-3.106 1.448-4.433 2.564-1.15.966-2.273 1.967-3.454 2.89-1.013.79-2.035 1.596-3.152 2.22-3.486 1.938-7.325 1.074-9.702-2.11-.384-.514-.718-1.07-1.053-1.617-.167-.27-.265-.587-.428-.864-.272-.463-1.05-.473-1.34.015-.268.45-.588.942-.63 1.438-.104 1.28-.085 2.57-.078 3.85.006 1.345.504 2.55 1.355 3.54.833.965 1.74 1.924 2.775 2.653 3.14 2.214 6.704 3.27 10.52 3.504 3.234.197 6.414-.36 9.59-.812 1.362-.196 2.73-.49 3.956-1.257 1.867-1.165 3.346-2.66 4.325-4.64.38-.766.753-1.534 1.152-2.294.154-.293.303-.256.44.02.428.862.816 1.75 1.33 2.556 2.04 3.186 4.892 5.032 8.743 5.182 1.61.06 3.215.144 4.822.22v-.05c1.394 0 2.79.03 4.183-.003 4.37-.107 8.133-1.856 11.403-4.597 2.89-2.43 3.835-6.14 2.513-9.945-.13-.382-.43-.722-.7-1.04zM45.002 107.54c-.405.676-1.074.52-1.755.524-.248-.035-.56-.073-.868-.133-.096-.015-.184-.094-.275-.147.053-.06.098-.16.16-.17.904-.204 1.808-.39 2.716-.566.04-.006.158.14.158.213 0 .095-.077.19-.13.282zm4.384-1.44c-.053.19-.136.594-.302.958-.066.15-.413.33-.467.288-.206-.155-.5-.427-.472-.61.077-.495.273-.978.486-1.435.067-.142.338-.196.517-.286.077.184.17.368.233.56.03.095.002.206.002.527zm3.464-.8c-.012.05-.11.078-.2.108.006.035 0 .068.007.103-.035.01-.053.028-.085.037.003.367.017.736-.02 1.1-.01.116-.195.217-.3.323-.065-.182-.19-.37-.185-.553.013-.373.093-.738.508-.87v-.11c.02-.01.053-.02.08-.028-.128-1.374.08-2.69.656-3.944.04-.09.155-.146.235-.213.094.14.294.303.267.412-.293 1.216-.62 2.428-.956 3.634zm4.13-2.164c-.01.098-.01.198-.032.296-.02.094-.06.186-.093.277-.064-.11-.17-.205-.188-.317-.032-.196-.008-.395-.008-.815.02-.067.116-.34.21-.61.042.287.09.578.124.867.014.096-.005.198-.01.3zm.67-3.403c-.02.088-.11.158-.165.238-.114-.09-.29-.16-.333-.28-.063-.172-.076-.394-.024-.57.05-.17.21-.307.324-.463l.277.496c-.027.194-.036.39-.08.58zm3.67-.183c-.13.38-.36.736-.604 1.062-.096.128-.37.22-.517.177-.143-.045-.268-.27-.325-.44-.064-.19-.045-.404-.062-.613.015-.203.013-.41.043-.614.064-.475.464-.688.91-.494.403.174.724.447.558.92zm9.818.92c-.05.093-.382.155-.414.11-.346-.507-.7-1.016-.966-1.568-.196-.41.208-.56.487-.58.264-.015.677.07.783.252.194.335.213.775.27 1.024-.066.365-.06.594-.16.762zm3.245.964c-.015.142-.133.273-.206.41-.05-.093-.145-.19-.14-.278.06-.998-.44-1.838-.718-2.74-.05-.157.247-.422.383-.635.157.136.42.247.456.41.127.62.182 1.25.234 1.634 0 .565.02.888-.01 1.202zm4.608 4.52c-.025.02-.236-.066-.25-.128-.32-1.593-1.135-3.09-.973-4.782-.02-.01-.043-.02-.06-.032-.008-.032-.01-.067-.014-.105l-.405-.203c.454-.373.395-.036.405.203.026.01.053.023.078.037-.003.032 0 .064-.004.098.16.09.373.163.407.288.398 1.405.768 2.82 1.112 4.237.026.1-.175.274-.296.384zm4.09.683c-.153.05-.492-.058-.54-.176-.3-.77-.542-1.56-.78-2.28.144-.166.203-.293.275-.304.088-.01.2.064.284.126.727.543.99 1.33 1.093 2.18.016.147-.18.414-.33.46zm5.71.023c-.506.11-1.012.198-1.433.277-.288-.107-.49-.164-.672-.256-.088-.04-.19-.133-.207-.22-.015-.052.114-.202.18-.202.71.007 1.42.03 2.126.064.092.005.177.108.264.167-.085.06-.164.152-.258.172z"/></svg>