<svg xmlns="http://www.w3.org/2000/svg" width="128" height="128" viewBox="0 0 128 128"><path d="M121.16 82.6c-.012-.533-.056-1.073-.156-1.596-.315-1.68-1.156-2.517-2.813-2.52-3-.003-6.03-.117-8.996.256-2.674.338-5.337.418-8.01.512-.428.016-.872.02-1.277-.09-.267-.07-.552-.32-.688-.566-.148-.267-.125-.624-.18-.94-.717-4.003-1.41-8.012-2.573-11.922-.61-2.048-1.212-4.114-1.6-6.212-.743-3.998-1.928-7.906-2.362-11.968-.413-3.853-1.997-7.21-4.658-10.027-2.362-2.5-5.105-4.237-8.7-4.235-2.42 0-4.863 1.483-5.936 3.67-.946 1.923-1.77 3.888-2.466 5.925-.76 2.224-1.704 4.392-2.706 6.522-.444.947-1.13 1.833-1.875 2.573-1.254 1.248-3.058 1.26-4.325.025-1.147-1.123-2.17-2.373-3.204-3.604-1.312-1.557-2.53-3.19-3.872-4.723-1.343-1.535-2.67-3.07-3.71-4.84-.323-.552-.69-1.087-1.115-1.567-1.465-1.64-3.56-2.086-5.534-1.126-1.687.82-3.037 2.01-3.602 3.898-.244.82-.607 1.62-.75 2.456-.522 3.06-.98 6.128-1.46 9.19-.514 3.28-.896 6.586-1.577 9.826-1.32 6.286-2.71 12.554-3.632 18.91-.082.577-.394.964-.95 1.178-2.362.888-4.834 1.013-7.294.864-3.55-.218-7.05.096-10.563.495-2.245.254-3.78 1.312-4.665 3.392-1.376 3.242-1.245 2.493.45 5.183.913 1.453 2.113 2.037 3.67 2.208.533.06 1.07.113 1.605.123 8.683.19 17.367.436 26.053.52 3.962.036 7.925-.36 11.89-.366 4.62-.006 9.19-.713 13.8-.835.423-.01.847-.123 1.27-.158 3.63-.31 7.254-.74 10.887-.87 4.18-.153 8.37-.037 12.555-.037v.076c1.18 0 2.36-.01 3.54 0 5.15.05 10.288.067 15.402-.77 3.112-.51 6.007-1.376 8.57-3.313 1.056-.8 1.606-1.637 1.532-2.95-.047-.85.04-1.713.024-2.57zm-29.277-5.433c.06.07.06.203.067.31.305 2.97.475 3.466-2.766 3.487-.213.002-.43 0-.644 0 0 .02 0 .037-.002.053-.533-.026-1.084.016-1.594-.11-.23-.054-.5-.428-.538-.684-.176-1.27.634-2.513.098-3.81-.032-.08.258-.423.387-.417 1.387.06 2.77.113 4.14.296.32.043.583.56.854.875zM41.267 66.953c.817-.258 1.68-.395 2.464-.72.78-.32 1.52-.76 2.205-1.25.52-.366.378-1.328-.177-1.652-.655-.38-1.333-.666-2.127-.55-.635.095-1.274.174-1.914.195-.156.008-.453-.238-.453-.365 0-.294.064-.758.245-.847.57-.27 1.195-.477 1.816-.565 1.195-.163 2.29-.533 3.29-1.2.647-.43 1.052-1.15.854-1.59-.29-.642-.853-.966-1.517-1.04-.742-.078-1.494-.07-2.244-.085-.427-.008-.86.05-1.284.005-.14-.015-.274-.238-.378-.39-.02-.028.102-.223.18-.24.828-.195 1.665-.35 2.486-.556.514-.132 1.042-.27 1.506-.512.485-.26.802-.725.768-1.312-.036-.58-.368-1.056-.896-1.224-.707-.224-1.458-.295-2.19-.437-.106-.02-.205-.06-.308-.092.113-.128.203-.317.34-.378.783-.34 1.58-.64 2.365-.975.49-.208 1.032-.38 1.42-.72.273-.24.498-.767.43-1.103-.067-.34-.47-.75-.818-.868-.48-.165-1.054-.176-1.568-.107-.63.085-1.233.336-1.857.484-.4.1-.782-.3-.773-.766.005-.105-.023-.217-.002-.32.46-2.086.87-4.187 1.4-6.255.25-.967 1.17-1.206 2.026-.566.852.64 1.714 1.308 2.415 2.1 1.42 1.604 2.74 3.298 4.084 4.97 2.28 2.837 4.687 5.593 6.48 8.782.907 1.615 2.372 2.063 3.994 2.29 1.795.257 3.45-.164 4.747-1.442.753-.74 1.44-1.61 1.924-2.542.985-1.9 1.85-3.86 2.7-5.827 1.153-2.66 2.348-5.293 4.028-7.67.31-.434.626-.87.992-1.26.493-.523 1.498-.72 2.082-.313 2.31 1.62 4.43 3.424 5.038 6.387.386 1.887.72 3.786 1.11 5.67.997 4.82 1.844 9.673 3.23 14.406.118.405.174.843.207 1.267.037.48-.22.806-.677.942-.203.06-.424.05-.64.064-7.383.426-14.77.796-22.17.63-1.825-.042-3.65-.006-5.473-.006v.085c-6.33 0-12.66-.003-18.99.005-.47 0-.862-.1-.977-.578-.22-.928.05-1.78.617-1.963zm39.61 10.474c-.26-1.458-.074-1.587 1.883-1.552-.43 0-.325-.004-.22.002.79.048 1.226.55 1.007 1.222-.39 1.205-.77 2.42-1.27 3.582-.11.256-.696.41-1.073.427-.535.03-.672-.434-.636-.874.075-.936.49-1.803.31-2.81zm-3.765-1.12c-.008.103.013.22-.028.31-.66 1.455-1.21 2.932-1.342 4.557-.028.33-.47.685-.803.896-.133.08-.62-.14-.715-.334-.12-.252-.03-.617.01-.928.15-1.155.42-2.304.45-3.46.035-1.3.548-1.518 1.882-1.345.19.025.363.198.54.304zm-5.674.608c-.18.814-.472 1.603-.707 2.405-.233.8-.443 1.61-.69 2.404-.03.094-.223.14-.34.208-.043-.092-.123-.183-.13-.28-.014-.312-.003-.626-.003-1.47.15-.82.38-2.156.632-3.49.077-.422.675-.786.895-.55.184.202.392.547.344.774zm-5.408-.296c-.493 1.496-1.042 2.977-1.596 4.457-.27.72-.913.79-1.56.815-.464.015-.853-.36-.76-.736.3-1.227.628-2.45.916-3.682.35-1.472.416-1.536 1.835-1.513.21.02.46-.026.62.074.227.14.59.46.547.585zm-7.147-.136c-.72 1.773-1.45 3.543-2.187 5.312-.032.08-.22.18-.254.155-.14-.095-.354-.244-.347-.362.103-1.833.715-3.54 1.36-5.228.084-.216.73-.23 1.12-.315.07-.013.172.112.26.173.016.092.075.194.046.264zm-6.792.115c-.52 1.667-1.097 3.322-1.677 4.974-.01.032-.2.043-.277.004-.085-.044-.2-.167-.19-.236.113-.61.253-1.22.492-2.32.014-.433.003-1.358.085-2.275.047-.495.5-.684.93-.63.24.032.668.39.64.48zm-5.26.835c-.24.06-.474.164-.7.146-.08-.005-.13-.32-.196-.493l.704-.254.192.602zm-7.39-.24c.1-.405.616-.574 1.07-.414.167.06.428.318.4.4-.563 1.59-1.16 3.172-1.76 4.75-.032.086-.163.134-.25.2-.054-.08-.14-.156-.16-.246-.043-.2-.056-.414-.08-.62.25-1.356.453-2.73.78-4.068zm75.584 7.07c-.763.585-1.54 1.16-2.37 1.644-.445.26-1 .417-1.514.447-2.776.154-5.553.256-8.63.39-1.195-.08-2.688-.242-4.18-.277-4.406-.104-8.77.43-13.085 1.21-4.442.802-8.9 1.225-13.406 1.205-6.11-.02-12.218-.06-18.327-.08-1.712-.006-3.416-.04-5.106.427-.807.224-1.7.12-2.555.183-1.813.133-3.627.288-5.442.416-.746.055-1.498.136-2.24.084-3.095-.222-6.186-.506-9.28-.733-.628-.045-1.27.044-1.906.086-3.11.22-6.197-.146-9.283-.452-.302-.03-.777-.53-.78-.818-.006-.315.395-.698.704-.94.232-.177.6-.22.914-.24.747-.05 1.498-.056 2.247-.064 1.286-.006 2.595.148 3.854-.033 3.103-.45 6.154.084 9.23.24 2.34.117 4.69.073 7.04.048 1.82-.02 3.637-.12 5.456-.188.643-.024 1.3.022 1.924-.102 3.714-.752 7.466-.527 11.215-.53 1.28 0 2.594.044 3.84-.2 1.13-.218 2.197-.145 3.112.37 1.027.576 2.037.672 3.088.424 2.82-.672 5.664-1.07 8.56-1.154.627-.02 1.248-.242 1.87-.37.417-.09.826-.236 1.244-.257 4.376-.243 8.76-.433 13.132-.71 4.164-.264 8.32-.647 12.485-.908 1.368-.084 2.75.116 4.123.08 1.277-.03 2.548-.234 3.824-.308.24-.016.497.21.747.326-.163.267-.273.606-.507.787z"/></svg>