<svg xmlns="http://www.w3.org/2000/svg" width="128" height="128" viewBox="0 0 128 128"><path d="M113.63 49.81c-.508-1.788-.374-3.62-.614-5.42-.326-2.43-.74-4.867-1.3-7.26-.468-1.99-1.484-3.787-2.625-5.486-1.31-1.954-2.78-3.817-3.97-5.845-2.572-4.375-6.186-7.634-10.474-10.215-3.69-2.22-7.68-3.806-11.723-5.227-2.22-.784-4.53-1.276-6.918-1.255-4.288.032-8.576.02-12.866.064-.74.01-1.488.162-2.217.317-5.698 1.195-11.06 3.346-16.27 5.88-2.316 1.127-4.422 2.62-6.34 4.367-4.552 4.14-7.745 9.1-9.486 15.033-1.29 4.395-1.803 8.82-1.102 13.338.143.926.043 1.71-.35 2.465-.438.853-.977 1.662-1.526 2.45-.794 1.147-1.65 2.246-2.457 3.384-1.175 1.663-2.277 3.367-3.784 4.78-1.44 1.355-2.24 3.154-2.887 4.97-1.045 2.93.71 6.513 4.444 6.6 1.06.02 2.148-.03 3.185-.24 1.025-.204 1.756.188 2.175.95.452.827.836 1.788.894 2.708.104 1.633.478 3.204.995 4.702 1.38 3.987 1.838 8.128 2.336 12.273.385 3.215 1.137 6.304 2.75 9.17.76 1.346 1.725 2.15 3.276 2.18 3.208.06 6.428.415 9.568-.643.494-.166 1.058-.15 1.59-.166.95-.032 1.65.365 2.022 1.277.24.588.416 1.23.776 1.745 1.488 2.118 2.547 4.465 3.775 6.725.866 1.596 1.9 3.104 2.93 4.604.202.288.71.42 1.104.517.64.16 1.107-.31.928-.872-1.536-4.794-3.175-9.55-5.296-14.13-.357-.77-.668-1.575-.914-2.388-.3-.992-.157-1.344.73-1.856 1.115-.648 2.283-1.232 3.043-2.318.228-.323.5-.93.36-1.133-.273-.39-.82-.804-1.265-.817-.72-.02-1.54.117-2.157.47-2.336 1.328-4.768 2.423-7.31 3.286-1.338 1.287-3.196 1.133-4.8 1.635-.945.295-2.118.03-3.154-.167-2.06-.397-3.18-1.792-3.31-3.82-.197-3.025-1.134-5.882-1.75-8.813-.133-.627-.28-1.252-.373-1.886-.09-.625.26-1.06.863-1.09.75-.04 1.5-.052 2.25-.063 2.183-.026 4.234-.64 6.228-1.44.475-.192.876-.578 1.28-.915.324-.27.234-.917-.15-1.084-.486-.205-.997-.49-1.495-.49-1.28 0-2.563.11-3.842.222-7.494.656-5.874 1.394-7.104-5.23-.33-1.776-.79-3.534-1.27-5.278-.28-1.026-1.126-1.553-2.114-1.77-.62-.133-1.275-.142-1.917-.152-1.18-.02-2.36.015-3.54-.008-1.426-.03-1.77-.525-1.274-1.755.405-1.004.994-1.874 1.68-2.718 1.35-1.665 2.597-3.41 3.872-5.13.896-1.207 1.66-2.528 2.672-3.62 2.557-2.765 2.964-6.336 3.85-9.73-.077-2.817.785-5.507 1.107-8.27.062-.526.17-1.056.343-1.56 1.336-3.917 3.797-7.177 6.153-10.498.306-.43.736-.78 1.144-1.128 3.624-3.107 7.567-5.62 12.34-6.56 1.363-.27 2.72-.576 4.093-.782 1.907-.286 3.83-.448 5.734-.74 4.5-.685 9.008-.67 13.437.285 4.38.944 8.818 1.848 12.674 4.365.267.173.573.288.864.43 2.248 1.08 4.18 2.585 5.94 4.345.908.9 1.935 1.68 2.87 2.555.698.654 1.46 1.29 1.98 2.077 1.827 2.783 3.387 5.71 4.44 8.893 2.358 7.12 2.395 14.098-1.13 20.896-.79 1.522-1.557 3.057-2.307 4.6-1.776 3.657-3.533 7.315-5.674 10.796-1.755 2.845-3.58 5.582-6.072 7.846-1.376 1.254-2.26 2.846-2.798 4.625-.194.643.254 1.313.955 1.356.583.037 1.168.005 1.753-.008l.078-.094c.078-.036.16-.067.23-.11l.123-.18c-.027.054-.04.13-.085.162-.01.006-.023.01-.035.017l-.135.2c-.06 0-.115.003-.174.004-.515.626-1.022 1.26-1.553 1.87-.73.836-1.076 1.85-1.352 2.89-.23.857.72 1.69 1.59 1.386.81-.28 1.588-.645 2.395-.928.153-.055.51.055.542.163.08.258.133.632.003.827-.228.346-.655.555-.907.892-.7.936-1.375 1.893-2.015 2.873-.376.57-.467 1.198.053 1.766.49.533 1.12.597 1.77.437.41-.1.788-.33 1.196-.46.483-.15.81.044.946.54.287 1.038.63 2.07-.505 2.88-.245.176-.392.504-.557.78-.264.445-.073 1.268.416 1.352 1.22.213 1.85.883 2.114 2.07.096.43.574.588 1.045.53 1.457-.178 1.952-.64 1.966-1.988.03-3.115.04-6.224.035-9.333-.005-3.97.002-7.94-.066-11.914-.028-1.587.484-2.896 1.432-4.146 2.4-3.17 4.178-6.73 6.095-10.197 1.188-2.147 2.03-4.49 3.203-6.645 2.166-3.995 3.657-8.213 4.563-12.646.147-.72.31-1.536.12-2.208zm-19.37 3.078c.3-3.755-.207-7.486-.525-11.21-.286-3.345-1.34-6.47-3.69-9.036-.865-.94-1.477-2.1-2.675-2.736-.45-.24-.808-.695-1.14-1.106-1.68-2.065-3.89-3.328-6.32-4.265-1.496-.576-3.03-1.056-4.51-1.677-1.503-.634-3.023-1.038-4.67-.95-.852.048-1.712-.03-2.57-.044-2.38-.043-4.69.152-6.81 1.423-.722.43-1.582.638-2.395.91-1.766.578-3.317 1.52-4.565 2.886-1.658 1.82-3.312 3.65-4.834 5.582-1.394 1.77-2.697 3.71-3.157 5.915-.893 4.277-1.698 8.555-1.11 13.02.645 4.938 2.425 9.31 5.552 13.114 4.592 5.58 10.41 8.783 17.797 8.72.75-.007 1.5 0 2.25 0v.187c1.605 0 3.21.02 4.817-.002 1.197-.015 2.3-.293 3.337-.975.79-.516 1.688-.98 2.6-1.192 1.98-.462 3.43-1.64 4.79-3.043 3.753-3.866 5.966-8.582 7.596-13.62.19-.595.182-1.26.236-1.898zm-28.996 8.454c-.283.363-1.077-.198-1.15.597-.046.52 0 1.06-.082 1.575-.112.727-.288 1.444-.475 2.158-.047.18-.23.33-.35.49-.105-.16-.254-.308-.3-.486-.08-.302-.097-.623-.185-1.257.27-.922.603-2.126.978-3.32.117-.38.832-.494 1.408-.227.107.048.213.39.155.467zm1.27 9.32c-.176.02-.39-.123-.558-.238-.165-.11-.434-.38-.418-.405.233-.316.49-.617.784-.87.048-.044.356.116.45.25.173.25.273.545.462.943-.256.122-.48.292-.718.32zm2.537-8.433c-.057-.085-.153-.16-.162-.247-.05-.39.156-.57.527-.555.085.002.163.112.304.22-.23.197-.45.39-.67.58zm3.437 1.204c-.107.056-.42-.056-.466-.163-.276-.663-.025-1.23.435-1.72.064-.066.224-.13.29-.094.164.083.3.22.45.337-.027.637-.03 1.297-.707 1.64zm4.4 1.754c-.03.095-.116.176-.174.266-.1-.037-.22-.053-.292-.117-1.053-.927-1.247-2.575-.442-3.73.237-.342 1.3-.492 1.788-.21.132.077.283.34.245.463-.35 1.116-.74 2.222-1.122 3.328zm3.254 2.323c-.063.246-.447.403-.67.585-.21-.123-.382-.2-.516-.32-.058-.055-.06-.207-.037-.3.427-1.855.856-3.708 1.312-5.55.042-.178.236-.368.41-.445.157-.075.383-.03.573.008.085.017.17.128.224.217.05.083.103.2.082.288-.446 1.843-.88 3.688-1.377 5.518zm3.91-2.133c-.11.047-.434-.093-.447-.174-.158-1.105.352-2.067.713-3.057.14-.385 1.104-.44 1.43-.115.072.076.148.15.268.27-.356 1.195-.59 2.496-1.963 3.075zm5.153-8.774c-.288 1.216-.603 1.486-1.763 1.318-5.872-.83-11.768-.537-17.665-.522-2.884.007-5.77-.305-8.657-.394-2.566-.08-5.14-.274-7.698.163-.42.07-.85.106-1.277.14-1.08.084-1.41-.055-1.62-1.05-.447-2.088-.86-4.187-1.142-6.303-.155-1.156-.027-2.352-.027-3.533h-.115c0-1.177-.043-2.36.01-3.536.09-1.956.66-3.74 1.795-5.392 2.81-4.08 6.475-7.064 11-9.045 1.366-.6 2.668-1.325 4.152-1.664 1.498-.345 2.965-.422 4.43.05 4.078 1.313 8.15 2.638 11.74 5.078.353.24.737.44 1.12.625 2.468 1.18 3.902 3.136 4.716 5.742 1.057 3.394 1.958 6.79 1.91 10.376-.04 2.682-.29 5.338-.907 7.95zm-14.534-8.59c-.276-1.308-1.09-2.33-1.88-3.327-2.06-2.61-4.156-5.19-6.303-7.724-.506-.595-.84-1.59-1.957-1.378-.246.696-.618 1.376-.705 2.087-.098.83-.032 1.7.112 2.527.203 1.16.63 2.276.803 3.436.44 2.937 1.835 5.46 3.24 7.99.636 1.148 1.678 1.684 2.906 1.706 1.07.013 2.114-.31 3.016-.958.74-.53 1.205-1.212 1.112-2.864-.01-.05-.194-.767-.346-1.492zm6.164-13.922c-1.29.047-2.447 1.014-2.464 2.064-.02 1.263.922 2.42 2.02 2.49 1.244.078 2.448-1.152 2.41-2.464-.04-1.24-.875-2.125-1.968-2.087zm4.83 7.48c-1.22.07-2.183 1.09-2.137 2.27.046 1.26 1.032 2.317 2.14 2.3 1.017-.02 2.158-1.046 2.162-1.94.004-1.383-1.07-2.69-2.166-2.63zm-15.137-8.045c.427-.395.634-1.032.91-1.508-.157-.757-.238-1.39-.423-1.99-.173-.56-.9-.948-1.54-.927-1.09.043-2.106 1.032-2 2.064.064.62.245 1.252.484 1.835.48 1.17 1.61 1.425 2.57.526zm15.305 16.77c-.654-.075-1.308.01-1.665.608-.313.52-.573 1.12-.665 1.717-.17 1.088.477 1.98 1.39 2.117.88.134 1.9-.5 2.208-1.397.102-.293.124-.61.177-.896-.048-.34-.067-.656-.14-.958-.148-.624-.705-1.128-1.306-1.194zM55.24 38.885c-.803.075-1.39.636-1.42 1.447-.02.525.02 1.067.133 1.58.132.616 1.14 1.095 1.808.92.96-.25 1.403-.862 1.356-1.988-.038-.198-.066-.52-.157-.825-.223-.728-.966-1.206-1.72-1.135zm-2.006 9.14c-.465.545-.8 1.236-1.056 1.916-.203.543.15 1.055.573 1.38.636.487 1.437.623 2.08.158.454-.33.686-.967.958-1.378-.117-.604-.17-1.027-.284-1.43-.282-1.002-1.617-1.412-2.27-.644zm6.45-16.31c-.566.095-1.104.452-1.12.96-.036.953.334 1.836 1.172 2.413.146.1.402.118.582.073.838-.207 1.286-.78 1.263-1.876-.082-.203-.21-.717-.482-1.14-.318-.492-.875-.517-1.416-.428z"/></svg>