<svg xmlns="http://www.w3.org/2000/svg" width="128" height="128" viewBox="0 0 128 128"><path d="M113.63 49.81c-.508-1.788-.377-3.62-.615-5.418-.325-2.435-.738-4.868-1.3-7.26-.466-1.99-1.482-3.788-2.623-5.486-1.315-1.954-2.78-3.82-3.972-5.843-2.57-4.377-6.187-7.634-10.475-10.216-3.69-2.22-7.677-3.804-11.72-5.227-2.222-.782-4.53-1.274-6.922-1.255-4.288.034-8.576.02-12.864.066-.743.01-1.49.164-2.218.318-5.7 1.195-11.06 3.346-16.27 5.882-2.316 1.125-4.422 2.62-6.342 4.365-4.55 4.14-7.74 9.1-9.484 15.034-1.288 4.39-1.803 8.816-1.103 13.335.143.925.043 1.71-.35 2.464-.44.852-.978 1.66-1.526 2.45-.795 1.145-1.65 2.245-2.456 3.383-1.176 1.664-2.277 3.368-3.783 4.782-1.443 1.355-2.24 3.152-2.887 4.97-1.046 2.93.708 6.513 4.442 6.6 1.062.026 2.15-.03 3.186-.24 1.024-.205 1.755.188 2.174.952.452.825.835 1.784.894 2.706.107 1.632.478 3.204.997 4.704 1.38 3.987 1.835 8.128 2.336 12.27.382 3.215 1.134 6.305 2.747 9.17.76 1.348 1.725 2.15 3.277 2.18 3.203.062 6.427.416 9.565-.64.494-.168 1.06-.15 1.593-.166.95-.03 1.65.366 2.02 1.276.242.59.42 1.233.78 1.744 1.486 2.12 2.544 4.468 3.77 6.727.868 1.596 1.903 3.104 2.932 4.602.2.29.71.422 1.104.52.637.156 1.11-.31.927-.873-1.536-4.797-3.176-9.554-5.295-14.13-.358-.774-.67-1.58-.917-2.392-.3-.988-.155-1.344.73-1.856 1.118-.648 2.284-1.23 3.046-2.318.228-.324.5-.93.36-1.133-.272-.393-.82-.807-1.264-.82-.72-.02-1.538.12-2.157.47-2.337 1.33-4.77 2.426-7.31 3.29-1.338 1.286-3.196 1.132-4.8 1.634-.946.296-2.118.032-3.154-.168-2.06-.392-3.18-1.79-3.31-3.816-.196-3.023-1.134-5.882-1.752-8.812-.13-.627-.277-1.253-.37-1.888-.092-.624.26-1.056.863-1.088.747-.04 1.5-.055 2.25-.064 2.18-.026 4.23-.64 6.226-1.442.472-.19.877-.576 1.28-.912.324-.27.235-.917-.154-1.083-.484-.204-.995-.49-1.494-.49-1.28-.003-2.562.11-3.842.22-7.495.658-5.874 1.395-7.102-5.226-.33-1.78-.793-3.534-1.27-5.28-.282-1.028-1.127-1.554-2.115-1.77-.62-.134-1.276-.143-1.916-.155-1.18-.02-2.362.017-3.54-.008-1.425-.03-1.77-.525-1.27-1.755.406-1 .993-1.87 1.68-2.717 1.35-1.664 2.596-3.408 3.873-5.13.894-1.206 1.658-2.527 2.67-3.62 2.56-2.767 2.966-6.334 3.852-9.73-.078-2.815.784-5.505 1.107-8.268.06-.527.17-1.06.34-1.562 1.337-3.915 3.798-7.18 6.156-10.496.305-.43.735-.78 1.143-1.128 3.625-3.104 7.568-5.618 12.34-6.56 1.364-.27 2.72-.576 4.094-.78 1.904-.287 3.83-.45 5.733-.74 4.496-.688 9.007-.672 13.434.284 4.38.942 8.818 1.845 12.673 4.363.267.176.574.29.864.43 2.25 1.085 4.18 2.59 5.944 4.347.908.902 1.934 1.68 2.868 2.555.7.654 1.466 1.29 1.982 2.077 1.826 2.783 3.385 5.71 4.437 8.895 2.358 7.118 2.396 14.095-1.127 20.893-.79 1.523-1.56 3.056-2.31 4.6-1.775 3.658-3.53 7.316-5.672 10.794-1.754 2.848-3.58 5.586-6.068 7.85-1.378 1.253-2.263 2.845-2.8 4.626-.193.642.253 1.312.955 1.355.58.035 1.166.003 1.75-.01l.077-.095c.08-.036.16-.068.235-.112l.12-.18c-.028.057-.04.13-.086.163-.01.007-.022.01-.034.017l-.136.203c-.06 0-.117.002-.177.003-.514.626-1.02 1.26-1.55 1.87-.73.84-1.078 1.85-1.356 2.89-.226.86.724 1.69 1.595 1.386.808-.283 1.587-.645 2.394-.93.152-.053.508.06.54.163.082.26.134.632.003.83-.23.345-.657.554-.908.89-.7.937-1.376 1.894-2.016 2.87-.376.576-.466 1.2.053 1.77.49.534 1.12.598 1.77.438.41-.102.787-.332 1.196-.46.483-.15.808.043.946.54.288 1.04.63 2.072-.504 2.88-.245.176-.395.505-.557.78-.263.443-.072 1.265.417 1.35 1.22.213 1.852.885 2.113 2.07.096.43.574.59 1.045.53 1.46-.178 1.952-.64 1.966-1.988.037-3.112.044-6.223.04-9.335-.005-3.97 0-7.94-.065-11.91-.027-1.588.485-2.896 1.43-4.146 2.403-3.17 4.18-6.73 6.097-10.194 1.19-2.15 2.03-4.49 3.204-6.65 2.164-3.993 3.655-8.212 4.56-12.646.147-.714.31-1.53.122-2.204zM63.964 35.845c.3 2.55.59 5.103.868 7.657.253 2.342.46 4.69.736 7.026.087.736.32 1.465.547 2.178.333 1.048 1.14 1.507 2.19 1.584 1.137.085 2.223-.5 2.647-1.456.17-.384.25-.815.33-1.233.614-3.15 1.313-6.287 1.798-9.456.42-2.746.592-5.53.883-8.38-.252-2.287-.39-4.644-.79-6.956-.675-3.875-2.598-5.26-6.523-4.953-.11.01-.213.015-.32.024-1.593.144-2.842.906-3.797 2.15-.55.71-.774 1.49-.445 2.402.762 2.12 1.352 4.278 1.488 6.55.058.957.274 1.904.386 2.86zm3.375-9.213c.56.014.656.446.727.86.053.314.038.637.062 1.09-.033.29-.074.71-.136 1.132-.015.096-.107.18-.162.272-.126-.096-.326-.164-.373-.288-.246-.7-.468-1.408-.673-2.123-.126-.427.197-.95.555-.942zm-.934 34.514c-.625.568-1.29 1.092-1.94 1.628-1.057.867-1.624 1.965-1.603 3.427-.078 4.187 3.63 6.46 7.2 4.683 1.26-.626 2.432-1.363 3.39-2.405 1.535-1.666 1.906-3.506.95-5.62-1.477-3.268-5.357-4.112-7.996-1.71zm2.932 4.41c-.05.044-.32-.163-.486-.257.14-.246.285-.49.427-.74.256.14.424.235.59.325-.172.23-.32.49-.532.672z"/></svg>