<svg xmlns="http://www.w3.org/2000/svg" width="128" height="128" viewBox="0 0 128 128"><path d="M66.822 94.012c-.15-2.244-.22-4.494-.313-6.74-.215-5.136-.198-10.276-.625-15.415-.517-6.19-.62-12.41-.9-18.62l.127-.004c-.075-2.36.003-4.734-.27-7.07-.273-2.347-.48-4.687-.47-7.047 0-.213-.002-.43-.022-.642-.07-.702-.445-1.237-1.08-1.476-.897-.336-1.822-.608-2.755-.828-1.602-.378-1.68-.408-1.77-2.085-.084-1.608-.11-3.217-.176-4.82-.074-1.7-1.005-2.802-2.535-3.366-.898-.333-1.864-.477-2.8-.706-.883-.213-.917-.328-.752-1.365.198-1.268.43-2.54.485-3.817.09-1.963-.833-2.91-2.853-3.125-.85-.094-1.728-.056-2.55-.26-1.812-.454-3.594-.38-5.407-.05-1.05.19-2.13.256-3.2.288-2.312.068-2.285-.053-2.215-2.33.02-.75.02-1.504-.032-2.25-.03-.42-.12-.862-.31-1.23-.254-.504-.75-.82-1.313-.722-.382.066-.85.31-1.043.62-.267.428-.405.99-.435 1.5-.06 1.07-.007 2.145-.018 3.218-.008.84-.313 1.192-1.11 1.218-1.39.046-2.787-.017-4.177.085-1.824.14-2.61 1.243-2.355 3.072.208 1.482.405 2.967.558 4.455.078.782-.253 1.205-1.087 1.264-1.745.12-3.37.644-4.91 1.413-1.446.724-1.95 1.84-1.702 3.455.128.844.384 1.674.45 2.525.256 3.424.194 2.88-3.04 3.31-.296.04-.62-.195-.933-.21-1.444-.075-2.387.836-2.437 2.3-.035.96-.08 1.922-.156 2.88-.085 1.063-.277 2.123-.307 3.187-.08 3-.12 6.005-.14 9.006-.066 10.512-.112 21.022-.177 31.533-.037 5.68-.064 11.36.117 17.036.045 1.394-.016 2.82.264 4.17.507 2.46.442 4.886.114 7.348-.085.615-.005 1.275.12 1.89.11.55.514 1.005 1.104 1.013 2.14.032 4.195.715 6.362.704 8.365-.045 16.732.04 25.096.06 1.07 0 2.16 0 3.208-.202 2.22-.422 4.454-.592 6.71-.647.62-.014 1.316-.114 1.84-.418 1.187-.69 2.446-.725 3.736-.704 1.717.026 3.435.064 5.148.082.615.006 1.045-.365 1.067-.923.032-1.073.062-2.144.047-3.217-.043-2.896.032-5.8-.2-8.683-.234-2.9.217-5.774.02-8.66zM30.58 20.762c.106-.017.212-.037.316-.03 4.477.272 8.95.157 13.417-.18.53-.04 1.067-.017 1.6.006 2.453.11 2.67.395 2.304 2.92-.114.8-.42 1.068-1.28 1.072-2.56.008-5.118.003-7.676.003v-.134l-7.99.214c-.604.017-1.035-.237-1.152-.843-.142-.724-.256-1.462-.31-2.2-.035-.49.295-.758.772-.83zM23.217 34.89c.04-.644.112-1.28.158-1.92.16-2.22.555-2.48 2.573-2.88 7.09-1.413 14.23-1.76 21.414-1.567 1.917.053 3.827.367 5.74.58.752.084 1.123.5 1.15 1.273.022.535.08 1.088-.025 1.604-.27 1.33.333 2.79-.61 4.015-1.277.017-2.556.043-3.836.05-2.14.007-4.284 0-6.427 0-.004.063-.004.127-.008.19-3.847-.168-7.696-.39-11.548-.484-2.46-.06-4.924.05-7.387.117-.952.025-1.245-.165-1.196-.976zm38.588 73.856c-.043.495-.392.77-.856.783-2.255.06-4.51.106-6.76.12-.616.004-1.39.237-1.773-.405-.248-.416-.164-1.018-.262-1.533-.337-1.8-1.254-2.73-3.002-2.74-3.435-.017-6.87.044-10.3.16-.95.03-1.895.33-2.83.57-2.1.538-2.53 1.123-2.572 3.368-.02 1.046-.22 1.375-1.223 1.478-1.917.194-3.845.294-5.77.432-.108.007-.214.007-.32-.007-1.49-.197-3.364.06-4.477.56-.133.06-.383-.104-.564-.196-.056-.03-.11-.184-.08-.245.132-.293.3-.57.434-.86.712-1.558 1.46-3.103 2.107-4.69.235-.57.262-1.246.27-1.875.002-.657-.902-1.104-1.414-.736-.608.44-1.184.925-1.794 1.36-.306.213-.618.698-1.026.29-.184-.18-.19-.61-.163-.912.033-.418.11-.856.276-1.237 1.22-2.86 2.464-5.706 3.718-8.55.064-.145.222-.246.363-.36-.15-.383-.267-.79-.473-1.143-.572-.975-1.43-1.088-2.014-.27-.497.697-.948 1.428-1.426 2.14-.056.08-.25.174-.26.16-.123-.145-.284-.298-.323-.47-.217-1.014.12-1.883.677-2.724.708-1.07 1.465-2.133 1.456-3.51-.002-.566-.142-1.268-.69-1.285-1.665-.05-1.58-1.148-1.473-2.233.063-.623.266-1.26.525-1.835 1.195-2.636 2.42-5.256 3.657-7.875.224-.48.444-1.13.843-1.312.34-.155.93.272 1.422.39.828.2 1.662.467 2.5.518 2.143.137 4.263.034 6.41-.29 6.06-.913 12.17-1.1 18.293-.88.634.023 1.26.233 1.893.32.527.077 1.067.17 1.594.14 1.222-.07 2.225-1.07 2.34-2.256.143-1.51-.56-2.464-2.07-2.73-2.213-.39-4.434-.604-6.7-.623-5.16-.042-10.276.324-15.37 1.134-1.9.304-3.826.452-5.732.728-1.585.23-3.215.404-4.384 1.72-.062.075-.174.133-.275.156-.797.18-1.704-.288-2.416.457-.593.62-1.24 1.184-1.87 1.766-.075.068-.27.14-.28.128-.106-.17-.284-.366-.27-.54.047-.526.086-1.078.276-1.558.548-1.4 1.17-2.767 1.758-4.147.42-.986.86-1.963 1.235-2.965.47-1.24.406-1.81-.1-1.975-.78-.252-1.154.348-1.64.738-.33.27-.683.51-1.05.717-.058.03-.35-.178-.377-.307-.155-.77.043-1.484.384-2.174 1.128-2.312 2.235-4.636 3.37-6.944.47-.954.993-1.877 1.488-2.816 1.165-.075 2.332-.203 3.493-.213 6.656-.066 13.312-.05 19.966-.176 2.02-.037 4.046-.387 6.054-.683 1.133-.17 1.882-1.2 1.858-2.293-.02-1.057-.702-1.936-1.71-1.997-.955-.06-1.964-.117-2.876.117-1.377.355-2.75.368-4.145.397-2.894.058-5.792-.015-8.66.53-.933.178-1.925.06-2.892.064-3.54.015-7.086.017-10.627.034-.9.004-1.82.17-2.1 1.14-.457 1.573-1.957 1.83-3.037 2.61-.06.043-.43-.156-.45-.277-.444-2.743-.883-5.49-.783-8.288.032-.918.448-1.447 1.316-1.53 2.024-.186 4.053-.38 6.085-.462 2.57-.105 5.148-.094 7.722-.14 1.597-.03 3.193-.31 4.736.486.52.27 1.265.14 1.904.145 2.146.02 4.293-.026 6.443.035 3.428.1 6.855.277 10.283.395 1.032.036 1.57.682 1.862 1.51.205.587.21 1.262.21 1.897 0 3.97.016 7.94-.054 11.91-.04 2.483.165 4.942.734 7.34.328 1.38.427 2.747.46 4.14.044 1.824.005 3.653.137 5.472.544 7.6.544 15.22.736 22.83.086 3.322.337 6.64.494 9.957.032.65-.015 1.297-.067 1.936zm52.05-8.898c-.836-.822-1.537-1.782-2.345-2.636-1.643-1.74-3.65-2.712-6.062-2.26-2.99.556-5.8 1.466-7.42 4.456-.56 1.038-1.253 1.975-1.48 3.17-.03.177-.493.413-.73.385-.735-.08-1.456-.323-2.196-.42-1.91-.248-3.827-.44-5.74-.68-.898-.11-1.364-.628-1.343-1.474.02-.958.163-1.92.113-2.874-.317-5.995-.672-11.984-1.013-17.978-.142-2.57-.287-5.136-.42-7.705-.108-2.11.054-2.315 2-2.263 1.93.05 3.868.12 5.79.003 1.403-.083 2.19.37 2.648 1.71.192.564.697 1.12 1.205 1.468 2.52 1.74 5.233 2.95 8.402 2.557 1.167-.147 2.336-.342 3.47-.645 2.186-.582 3.748-2.016 4.895-3.918.517-.866.62-1.87.38-2.808-.625-2.488-1.17-5.02-2.08-7.406-2.084-5.465-9.96-7.357-13.87-2.066-.32.43-.645.86-.93 1.312-.572.896-1.118 1.81-1.673 2.718-1.165.027-2.336.136-3.496.06-1.81-.123-3.614-.36-5.42-.57-1.19-.14-1.34-.262-1.348-1.352-.02-3.648-.007-7.296-.007-10.944h-.117c0-1.397.068-2.795-.01-4.184-.25-4.41.226-8.78.664-13.152.117-1.163.416-1.44 1.66-1.433 2.465.02 4.938.19 7.397.082 1.986-.085 3.322.29 4.305 2.325 1.25 2.58 4.437 3.983 7.083 3.308 1.835-.47 3.556-1.422 5.285-2.25.445-.21.784-.73 1.06-1.177.51-.824.822-1.727.902-2.72.27-3.23.135-6.425-.715-9.57-.487-1.81-1.646-2.934-3.445-3.47-3.04-.91-5.707-.355-7.957 1.94-.91.923-1.76 1.884-2.18 3.142-.36 1.08-1.108 1.43-2.222 1.395-1.39-.038-2.837-.14-4.166.17-2.336.548-4.683.516-7.034.612-.533.02-1.084-.01-1.6.106-1.205.27-2.212.785-2.45 2.197-.085.517-.366 1.003-.56 1.5-.664 1.707-1.12 3.395-.685 5.29.23 1.008-.02 2.13-.095 3.198-.06.854-.363 1.73-.238 2.547.352 2.254-.006 4.485-.017 6.726-.02 4.185-.056 8.37-.092 12.556-.004.75-.015 1.5-.053 2.248-.03.558-.448.975-1.056.954-2.586-.087-5.125.382-7.683.59-.98.077-1.952.207-2.723.836-.386.316-.795.808-.867 1.27-.195 1.284-.05 2.595.593 3.74.293.517.837 1.02 1.387 1.24.776.308 1.656.432 2.5.477 1.388.076 2.785.004 4.18.03.963.018 1.93.06 2.884.175.243.03.585.352.64.594.11.512.106 1.064.08 1.597-.135 2.784-.376 5.564-.427 8.347-.108 5.257-.115 10.514-.147 15.77-.003.748-.075 1.565.197 2.223.475 1.163.34 2.306.317 3.483-.025 1.068.004 2.145.142 3.2.116.9.692 1.6 1.546 1.92 3.99 1.497 8.11 2.056 12.29 1.145 1.184-.256 2.1.178 3.11.355.825.144.94 1.088 1.275 1.742.197.38.388.768.622 1.125 1.106 1.685 2.613 2.827 4.592 3.283 6.18 1.423 12.39-4.195 12.592-9.47.087-2.266-.438-4.22-2.094-5.846zm-10.09-35.95c.324-1.113 1.293-1.905 2.3-2.515.09-.05.45.142.5.288.458 1.276 1.236 2.47 1.108 3.916-.058.526-.067 1.062-.18 1.576-.208.91-.812 1.454-1.725 1.656-.734.162-1.594-.22-1.86-.875-.54-1.327-.518-2.74-.142-4.046zm.574-39.188c.297-.848.873-1.438 1.654-1.86.9-.484 1.713-.015 1.737 1.022.007.32.003.64.003.96-.02 1.828-.35 3.598-.996 5.31-.203.53-.736.67-1.296.434-1.087-.46-1.684-1.182-1.706-2.427-.015-1.198.22-2.325.606-3.438zm6.417 80.335c-.07 1.285-.59 1.81-1.598 1.867-2.224.12-3.935-.742-5.11-2.643-.256-.41-.16-.826.277-1.05.75-.39 1.52-.75 2.235-1.19.512-.314 1.006-.31 1.52-.127.4.144.772.36 1.164.528 1.275.55 1.67 1.555 1.51 2.616zM27.63 96.082c5.45.027 10.914-.235 16.352.387.313.033.638-.038.958-.066 3.405-.288 6.81-.574 10.213-.867.32-.028.686-.018.94-.17.442-.27.92-.58 1.196-1 .883-1.344.02-3.366-1.556-3.41-2.34-.066-4.69.1-7.036.213-1.06.054-2.115.3-3.174.315-5.885.075-11.77.168-17.655.12-1.733-.016-3.035.464-3.997 1.85.48 1.987 1.736 2.618 3.758 2.627zm-3.755-2.626s0-.002-.002-.003c-.024.023-.055.046-.085.068l.014.034c.023-.032.05-.062.075-.096zm32.46-14.08c-.847-.098-1.71-.114-2.563-.11-3.53.017-7.06.013-10.587.102-1.49.037-2.97.303-4.456.445-3.19.304-6.338.98-9.565.94-.84-.012-1.714.114-2.512.372-.57.186-1.09.636-1.536 1.07-.584.572-.215 1.86.565 2.14.3.108.614.187.928.214 1.81.147 3.617.312 5.425.397.736.034 1.49-.088 2.227-.198 4.444-.666 8.9-1.18 13.408-.99.213.01.427.003.642.003v.05c2.03 0 4.064.002 6.098 0 .64-.004 1.286.02 1.922-.048 1.08-.114 1.992-1.154 1.99-2.192-.004-1.035-.894-2.073-1.99-2.197zM55.44 58.38c-1.22-.34-2.528-.693-3.765-.608-5.787.405-11.58.26-17.372.258-2.576 0-5.152.015-7.728.02-.864 0-1.704.06-2.477.538-.68.42-1.035 1.122-.875 1.9.142.692.587 1.175 1.235 1.34.62.155 1.276.18 1.916.186 8.254.072 16.512-.107 24.76.43 1.177.064 2.354.165 3.532.18 1.11.016 1.888-.64 2.087-1.63.238-1.206-.21-2.3-1.314-2.614z"/></svg>