<svg xmlns="http://www.w3.org/2000/svg" width="128" height="128" viewBox="0 0 128 128"><path d="M113.618 49.627c-.328-2.334-.457-4.696-.802-7.026-.282-1.897-.715-3.78-1.165-5.65-.48-2-1.392-3.86-2.627-5.472-1.637-2.133-2.948-4.473-4.507-6.642-1.43-1.99-2.923-4.032-4.768-5.608-2.595-2.216-5.438-4.192-8.63-5.547-2.363-1.006-4.708-2.075-7.12-2.956-2.616-.955-5.3-1.675-8.145-1.62-3.75.065-7.503.084-11.253.036-2.284-.03-4.476.42-6.636 1.038-4.233 1.21-8.312 2.837-12.292 4.708-5.275 2.477-9.46 6.2-12.73 11.023-2.264 3.34-3.644 7.017-4.58 10.897-.784 3.243-1.432 6.493-.71 9.845.066.31.033.644.095.958.285 1.454-.088 2.764-.855 3.982-.34.544-.704 1.077-1.082 1.597-1.13 1.562-2.247 3.132-3.413 4.67-.838 1.107-1.685 2.22-2.635 3.23-1.51 1.605-2.49 3.477-3.113 5.56-.848 2.83 1.06 5.79 4.016 6.066 1.264.117 2.56-.07 3.84-.158 1.145-.08 1.863.244 2.283 1.3.353.89.72 1.826.797 2.763.192 2.278.94 4.396 1.574 6.55.214.72.43 1.44.545 2.176.454 2.96.97 5.92 1.27 8.896.298 2.947 1.27 5.613 2.644 8.197.74 1.393 1.79 2.06 3.34 2.074 3.203.032 6.426.373 9.56-.68.4-.134.847-.124 1.275-.15 1.077-.067 1.77.38 2.283 1.386 1.646 3.246 3.348 6.465 5.105 9.65.67 1.217 1.504 2.348 2.333 3.464.34.463.96.5 1.476.306.475-.175.487-.64.354-1.074-.9-2.97-1.758-5.954-3.027-8.8-.914-2.055-1.91-4.09-2.608-6.22-.717-2.19-1.465-2.13 1.075-3.507.47-.256.937-.554 1.315-.923.45-.44.843-.956 1.188-1.485.335-.51-.183-1.393-.817-1.442-.312-.024-.66-.074-.94.033-1.095.416-2.173.882-3.252 1.342-1.573.672-3.215 1.227-4.69 2.07-1.61.912-3.32 1.378-5.073 1.83-1.397.364-2.703.246-4.096-.145-1.812-.512-2.772-1.61-2.87-3.403-.15-2.704-1.04-5.245-1.565-7.866-.23-1.15-.533-2.29-.72-3.452-.033-.197.33-.626.557-.666.735-.127 1.49-.148 2.24-.16 2.17-.037 4.247-.49 6.258-1.296.712-.288 1.35-.647 1.758-1.33.198-.334.13-.623-.192-.755-.587-.24-1.198-.565-1.803-.576-1.28-.017-2.562.136-3.842.237-1.28.1-2.555.278-3.837.317-2.016.06-1.982.19-2.55-2.005-.188-.72-.148-1.497-.295-2.23-.42-2.1-.805-4.21-1.35-6.278-.357-1.365-1.39-2.128-2.836-2.214-.643-.038-1.286-.028-1.932-.032-1.18-.008-2.362.014-3.54-.023-.868-.026-1.174-.484-.88-1.23.51-1.305 1.168-2.497 2.127-3.562 1.14-1.268 2.144-2.67 3.168-4.042.96-1.287 1.733-2.74 2.82-3.903 2.722-2.912 3.232-6.673 4.21-10.267-.267-2.82 1.07-5.45.96-8.253-.014-.312.085-.64.192-.94 1.413-3.984 3.563-7.594 6.274-10.772 3.424-4.01 7.925-6.507 13.013-7.867 4.574-1.22 9.282-1.564 13.973-1.992 6.336-.576 12.32 1.16 18.322 2.77.41.11.802.31 1.178.515 1.977 1.078 3.98 2.11 5.903 3.276 1.556.943 2.99 2.075 4.242 3.43.726.783 1.49 1.567 2.358 2.17 1.003.693 1.74 1.576 2.407 2.55 3.804 5.546 5.598 11.756 6.03 18.4.06.946-.082 1.92-.243 2.864-.555 3.307-1.717 6.407-3.248 9.38-.59 1.14-1.135 2.308-1.71 3.46-1.862 3.732-3.63 7.514-5.846 11.07-1.707 2.736-3.43 5.43-5.864 7.596-1.314 1.168-2.183 2.637-2.78 4.273-.364 1 .093 1.66 1.176 1.706.39.016.78-.026 1.17-.05.01-.03.022-.06.03-.093.085-.02.17-.038.25-.072l.157-.146c-.044.048-.078.114-.13.14-.01.004-.018.004-.025.007-.053.054-.11.106-.165.158l-.113.007c-.264 1.053-1.28 1.586-1.755 2.502-.45.864-.888 1.713-.753 2.736.077.594.877 1.175 1.433.97.803-.292 1.58-.66 2.38-.955.142-.053.422.062.525.19.107.134.178.46.096.56-.473.576-1.002 1.104-1.5 1.656-.81.884-1.423 1.876-1.637 3.077-.135.765.494 1.575 1.262 1.5.623-.06 1.233-.277 1.846-.432.62-.16.95.05 1.167.693.332.98.355 1.865-.502 2.644-.29.267-.465.708-.594 1.103-.147.448.064 1.03.452 1.056 1.235.07 1.552.902 1.917 1.84.125.32.587.674.928.71 1.11.116 1.967-.583 2.02-1.563.137-2.462.262-4.922.358-7.385.024-.637-.072-1.28-.127-1.918-.083-.96-.25-1.92-.256-2.877-.023-3.112.026-6.224.01-9.335-.006-1.338.32-2.552 1.14-3.608 1.783-2.298 3.106-4.88 4.56-7.38.702-1.2 1.427-2.395 2.05-3.636 1.194-2.394 2.25-4.86 3.498-7.226 2.016-3.825 3.37-7.86 4.2-12.093.146-.742.16-1.445.053-2.21zM73.945 25.145c-1.325-.37-2.726-.467-4.124-.693-2.027.313-4.073.465-6.035.96-3.853.977-7.08 2.96-9.382 6.33-1.85 2.706-1.9 5.622-1.205 8.634.24 1.043.864 1.95 1.664 2.714.645.617 1.41.995 2.256 1.166.796.16 1.49-.165 1.995-.776.45-.544.42-1.2.172-1.824-.113-.292-.35-.533-.51-.81-1.17-2.038-1.02-3.902.44-5.606 3.268-3.81 7.622-4.466 12.277-4.163.3.02.754.49.82.815.253 1.28.17 2.575-.382 3.778-.715 1.555-1.474 3.09-2.25 4.62-1.265 2.48-2.608 4.925-3.827 7.43-1.4 2.88-1.69 5.967-1.347 9.11.314 2.88 2.13 4.588 4.69 5.596 1.22.48 2.495-.497 2.333-1.806-.14-1.165-.406-2.323-.74-3.445-.315-1.065-.31-2.08-.126-3.168.368-2.14 1.11-4.12 2.116-6.034 1.547-2.942 3.026-5.916 4.537-8.875 1.307-2.562 1.692-5.28 1.406-8.123-.287-2.837-2.017-5.064-4.772-5.83zm1.317 40.117c-1.9-.352-4.728.95-5.416 2.706-.463 1.173-.747 2.478-.806 3.74-.112 2.425 2.26 3.988 4.647 3.402 2.23-.546 4.722-3.723 4.397-6.074-.016-1.94-1.152-3.46-2.82-3.772zm-2.09 5.587c-.16.097-.62-.04-.763-.22-.258-.325.002-.785.52-.907.275-.064.59.05 1.136.11-.384.456-.585.825-.896 1.013z"/></svg>