<svg xmlns="http://www.w3.org/2000/svg" width="128" height="128" viewBox="0 0 128 128"><path d="M113.63 49.81c-.51-1.788-.374-3.62-.615-5.418-.326-2.435-.738-4.868-1.3-7.26-.466-1.99-1.482-3.788-2.623-5.486-1.314-1.954-2.78-3.82-3.972-5.843-2.57-4.377-6.187-7.634-10.475-10.216-3.69-2.22-7.677-3.804-11.72-5.227-2.222-.782-4.53-1.274-6.922-1.255-4.288.034-8.576.02-12.864.066-.744.01-1.49.164-2.22.318-5.7 1.195-11.06 3.346-16.27 5.882-2.316 1.125-4.423 2.62-6.343 4.365-4.55 4.14-7.742 9.1-9.483 15.034-1.29 4.39-1.803 8.816-1.105 13.335.143.925.042 1.71-.35 2.464-.44.852-.98 1.66-1.526 2.45-.795 1.145-1.653 2.245-2.456 3.383-1.18 1.664-2.278 3.368-3.788 4.782-1.44 1.355-2.238 3.152-2.884 4.97-1.045 2.93.71 6.513 4.442 6.6 1.062.026 2.15-.03 3.187-.24 1.024-.205 1.755.188 2.173.952.452.825.836 1.784.894 2.706.105 1.632.478 3.204.996 4.704 1.38 3.987 1.835 8.128 2.336 12.27.384 3.215 1.136 6.305 2.75 9.17.76 1.348 1.725 2.15 3.277 2.18 3.205.062 6.428.416 9.566-.64.494-.168 1.06-.15 1.594-.166.95-.03 1.647.366 2.02 1.276.24.59.418 1.233.778 1.744 1.487 2.12 2.545 4.468 3.773 6.727.867 1.596 1.9 3.104 2.93 4.602.204.29.713.422 1.106.52.64.16 1.11-.31.928-.873-1.536-4.797-3.176-9.554-5.295-14.13-.358-.774-.67-1.58-.917-2.392-.3-.988-.155-1.344.73-1.856 1.118-.648 2.284-1.23 3.046-2.318.226-.324.5-.93.36-1.133-.275-.39-.82-.806-1.267-.82-.72-.02-1.54.117-2.158.47-2.338 1.33-4.77 2.426-7.313 3.29-1.336 1.286-3.194 1.132-4.798 1.634-.946.296-2.118.032-3.154-.168-2.058-.392-3.18-1.79-3.31-3.816-.197-3.023-1.134-5.882-1.753-8.812-.13-.627-.277-1.253-.37-1.888-.092-.624.26-1.056.862-1.088.75-.04 1.5-.055 2.25-.064 2.18-.026 4.23-.64 6.225-1.442.474-.19.877-.576 1.28-.912.324-.27.235-.917-.154-1.083-.482-.204-.993-.49-1.492-.49-1.28-.003-2.564.11-3.843.22-7.495.658-5.874 1.395-7.102-5.226-.33-1.78-.793-3.535-1.27-5.28-.282-1.028-1.125-1.554-2.114-1.77-.62-.134-1.276-.143-1.917-.155-1.18-.02-2.362.017-3.54-.008-1.426-.028-1.772-.525-1.27-1.755.405-1 .992-1.87 1.678-2.717 1.35-1.664 2.596-3.408 3.873-5.13.894-1.206 1.66-2.527 2.67-3.62 2.56-2.767 2.965-6.334 3.853-9.73-.08-2.815.783-5.505 1.106-8.268.06-.527.17-1.06.34-1.562 1.338-3.915 3.798-7.18 6.156-10.496.305-.43.735-.78 1.143-1.128 3.625-3.104 7.568-5.618 12.34-6.56 1.364-.27 2.72-.576 4.094-.78 1.905-.287 3.83-.45 5.733-.74 4.498-.688 9.007-.672 13.436.284 4.378.942 8.815 1.845 12.672 4.363.267.176.573.29.864.43 2.25 1.084 4.18 2.59 5.94 4.347.907.902 1.934 1.68 2.87 2.555.7.654 1.462 1.29 1.98 2.077 1.826 2.783 3.386 5.71 4.44 8.895 2.355 7.118 2.393 14.095-1.13 20.893-.79 1.523-1.56 3.056-2.31 4.6-1.774 3.658-3.53 7.316-5.673 10.794-1.754 2.848-3.58 5.585-6.07 7.85-1.375 1.253-2.26 2.845-2.798 4.626-.193.642.253 1.312.955 1.355.58.035 1.166.003 1.75-.01l.078-.095c.078-.035.158-.067.23-.11l.124-.182c-.027.055-.04.13-.083.162-.01.008-.026.01-.038.02l-.134.2c-.06 0-.117.003-.176.004-.514.625-1.02 1.26-1.552 1.87-.728.838-1.077 1.85-1.355 2.89-.227.86.724 1.69 1.594 1.386.806-.28 1.586-.643 2.394-.928.153-.053.51.058.542.163.08.26.133.63.002.828-.23.347-.656.556-.907.893-.7.936-1.377 1.893-2.017 2.87-.376.575-.466 1.2.053 1.77.49.533 1.12.597 1.77.437.413-.103.79-.333 1.197-.46.484-.152.81.042.947.537.287 1.04.628 2.073-.505 2.882-.246.174-.393.503-.558.778-.264.443-.073 1.265.416 1.352 1.22.213 1.85.885 2.114 2.067.096.43.572.59 1.045.532 1.456-.178 1.95-.64 1.963-1.988.036-3.112.043-6.223.04-9.335-.005-3.97.002-7.94-.066-11.91-.027-1.59.485-2.898 1.43-4.15 2.403-3.17 4.18-6.73 6.097-10.194 1.19-2.15 2.03-4.49 3.205-6.65 2.166-3.993 3.657-8.21 4.562-12.645.15-.714.314-1.53.123-2.203zM79.492 31.028c-1.534-.576-3.115-.757-4.677-.683-4.437-.075-8.533 1.064-12.476 2.865-4.6 2.098-7.83 5.52-9.83 10.145-.924 2.127-1.314 4.273-.606 6.554.392 1.26 1.063 2.334 1.93 3.305 1.93 2.155 3.862 4.312 5.823 6.44.456.496.79.94.686 1.678-.26 1.824.072 3.576.475 5.38.34 1.52.762 2.88 1.79 4.02.53.588.758 1.26.93 2.006.705 3.06 3.378 3.992 5.884 3.844.92-.055 1.854-.482 2.716-.882 2.133-.99 3.346-2.955 4.728-4.72.224-.284.333-.96.155-1.21-.83-1.14-.005-2.68-.842-3.687-1.134-1.365.42-2.414.2-3.627-.057-.317-.084-.637-.138-.953-.256-1.547.096-2.856 1.112-4.13 2.283-2.86 4.1-6.018 5.594-9.362 1.424-3.19 2.208-6.494 1.864-10-.338-3.404-2.065-5.778-5.314-6.996zM72.875 72.19c-1.74 2.333-3.546 2.347-5.628 1.874-.796-.18-1.656-.487-2.136-1.283-.097-.164-.12-.39-.13-.592-.003-.073.114-.178.2-.227.08-.045.19-.042.287-.05l5.72-.37c.308.03.938.074 1.556.172.075.012.2.396.134.48zm.65-3.392c-2.067.373-4.136.722-5.534.963-1.34-.083-1.993-.043-2.6-.192-.364-.088-.69-.437-.966-.73-.288-.303-.18-.974.117-1.124.094-.046.185-.107.286-.128 2.467-.572 4.896-1.357 7.48-1.284.86.024 1.355.462 1.68 1.212.232.548.044 1.197-.46 1.287zm.416-5.638c-2.49.59-4.99 1.152-7.493 1.692-.728.157-1.475.22-1.85.273-1.253-.037-2.016-1.352-1.582-2.184.122-.233.485-.457.757-.48 2.876-.243 5.755-.457 8.634-.646.518-.032 1.052.06 1.565.163.156.032.305.283.386.465.176.396-.16.657-.416.718zm-6.406-10.912c.017-.17.213-.482.288-.47.275.044.577.146.78.33.11.1.036.402.047.614-.074.196-.15.392-.22.59-.245-.156-.52-.272-.714-.473-.13-.138-.2-.4-.18-.593zM79.22 45.4c-1.433 3.757-3.65 7.03-5.972 10.254-.625.87-1.242 1.75-1.925 2.573-.538.645-1.307.666-2.062.462-.12-.034-.254-.32-.24-.48.02-.194.14-.46.297-.544 1.3-.69 1.664-1.925 1.847-3.217.213-1.486.422-2.92 1.058-4.338.39-.87.182-2.045.312-3.078.053-.445-.547-1.116-1.003-1.083-.39.028-.81.21-1.134.438-.24.168-.435.5-.508.795-.413 1.698-1.538 2.133-3.127 1.884-.56-.088-1.01-.257-1.304-.78-.156-.277-.378-.52-.597-.75-.264-.277-.97-.113-1.046.256-.098.515-.295 1.096-.155 1.557.98 3.157 1.586 6.456 3.37 9.323.27.432-.094.536-.366.608-.827.22-1.664.4-2.496.6-.56.133-1.12.085-1.437-.423-1.87-3.024-4.35-5.574-6.516-8.366-.26-.337-.574-.655-.757-1.034-.62-1.273-.992-2.526-.5-4.012.556-1.68 1.388-3.118 2.616-4.363 3.02-3.06 6.715-4.94 10.78-6.145 1.85-.55 3.75-.905 6.19-.716.373 0 1.237-.07 2.09.012 2.385.23 3.67 1.61 3.77 3.97.104 2.286-.365 4.45-1.18 6.592zM48.17 65.222c.42.016.903.032 1.26-.147 1.913-.95 3.268-2.385 3.66-4.57.127-.717-.524-1.58-1.217-1.638-.103-.01-.215-.05-.316-.032-2.107.355-3.82 1.402-5.043 3.13-.983 1.386-.026 3.196 1.658 3.258zm43.135-7.06c.675-.366.85-1.4.284-1.896-.313-.272-.678-.57-1.06-.653-.827-.177-1.68-.222-2.897-.365-.48.094-1.3.23-2.112.427-.31.075-.51.848-.333 1.094.992 1.39 4.597 2.21 6.118 1.39zm-43.81-11.788c-.77-.303-1.576-.51-1.876-.603-1.495.036-2.46 0-3.274.646-.448.355-.7.787-.613 1.365.082.564.384 1.057.926 1.183 1.855.432 3.567.132 4.994-1.237.38-.363.32-1.167-.16-1.352zm4.69-8.434c.515.162 1.044.077 1.45-.356.382-.41.466-1.298.047-1.752-.708-.768-1.477-1.487-2.268-2.17-.21-.184-.593-.17-.72-.203-1.02-.08-1.696.89-1.38 1.762.497 1.376 1.484 2.28 2.87 2.716zm14.132-10.912c.22-.587.32-1.218.477-1.837-.15-.432-.228-.86-.43-1.22-.27-.485-.736-.763-1.314-.74-.57.02-1.047.294-1.277.813-.518 1.166-.398 2.28.442 3.275.604.712 1.777.57 2.1-.288zm18.22 2.923c.874-.76 1.73-1.547 2.51-2.402.248-.27.365-.797.304-1.168-.054-.346-.43-.637-.6-.867-.294.02-.414-.002-.492.043-1.436.814-2.478 1.954-2.83 3.602-.056.254.1.667.302.825.165.133.64.114.81-.032zm10.347 13.613c.18-.064.323-.26.476-.405.305-.285.203-.98-.18-1.067-.716-.16-1.442-.274-2.164-.407-.007.046-.01.093-.02.14-.53 0-1.07-.054-1.59.022-.267.04-.728.35-.707.472.06.377.216.875.505 1.05 1.166.71 2.43.622 3.678.196z"/></svg>