<svg xmlns="http://www.w3.org/2000/svg" width="128" height="128" viewBox="0 0 128 128"><path d="M113.583 49.477c-.18-2.027-.48-4.046-.623-6.075-.175-2.48-.734-4.875-1.528-7.21-.55-1.62-1.31-3.156-2.336-4.56-1.333-1.812-2.685-3.626-3.81-5.567-2.956-5.094-7.258-8.698-12.396-11.346-2.752-1.423-5.626-2.637-8.508-3.786-2.395-.955-4.907-1.54-7.514-1.563-.638-.005-1.3-.034-1.906-.205-1.282-.363-2.557-.168-3.837-.094-1.493.09-2.992.36-4.477.29-4.366-.2-8.523.64-12.563 2.216-.5.194-1.01.36-1.502.57-2.563 1.084-5.207 2.017-7.667 3.3C35.186 20.52 29.8 28.76 27.87 39.41c-.458 2.542-.71 5.097-.127 7.663.047.206.014.433.058.642.397 1.835-.265 3.37-1.342 4.787-.843 1.11-1.74 2.187-2.53 3.328-1.4 2.03-2.768 4.064-4.514 5.84-1.363 1.39-2.173 3.174-2.733 5.05-.863 2.894 1.057 5.804 4.02 5.998 1.173.08 2.357 0 3.535-.027 1.803-.04 2.535.474 3.002 2.19.17.62.313 1.253.387 1.89.26 2.25.915 4.395 1.574 6.55.25.815.47 1.65.6 2.492.445 2.853.984 5.705 1.223 8.577.268 3.202 1.52 5.99 3.017 8.733.452.833 1.173 1.245 2.012 1.47.61.164 1.265.23 1.903.235 2.995.02 6.016.233 8.882-.97.194-.08.412-.116.622-.15 1.13-.183 2.088.31 2.624 1.397.283.57.457 1.197.758 1.757 1.168 2.164 2.325 4.338 3.57 6.463.973 1.658 2.06 3.25 3.13 4.85.162.246.48.45.767.53.267.075.61.01.877-.1.147-.06.274-.337.278-.52.008-.313-.053-.642-.145-.942-1.13-3.688-2.42-7.314-3.933-10.866-.752-1.77-1.425-3.576-2.144-5.362-.254-.627.008-.988.55-1.28.657-.36 1.34-.704 1.92-1.166.58-.458 1.12-1.007 1.536-1.614.195-.284.16-.827.036-1.187-.072-.214-.505-.38-.8-.43-1.235-.21-2.29.3-3.35.864-3.21 1.716-6.58 3.04-10.015 4.24-1.76.613-3.373.376-5.008-.143-1.45-.46-2.366-1.507-2.496-3.046-.25-3.008-1.017-5.9-1.765-8.8-.213-.83-.38-1.67-.555-2.512-.108-.507.133-.866.607-.894.642-.04 1.283-.06 1.928-.064 2.402-.01 4.635-.784 6.853-1.568.67-.235 1.413-.584 1.544-1.45.068-.457-.806-.91-1.856-.952-.75-.027-1.502-.02-2.25.02-2.142.125-4.29.212-6.418.45-1.112.12-1.29-.156-1.5-1.125-.203-.94-.378-1.886-.558-2.828-.322-1.685-.608-3.376-.97-5.05-.16-.726-.45-1.426-.726-2.12-.4-1.002-1.177-1.488-2.255-1.492-1.29-.003-2.577-.007-3.863-.026-.75-.01-1.5-.04-2.244-.094-.446-.032-.757-.518-.606-.94.395-1.106.74-2.236 1.58-3.128 1.994-2.116 3.604-4.523 5.194-6.944.53-.806 1.09-1.613 1.754-2.302 2.703-2.802 3.118-6.507 3.865-10.02.573-2.7.67-5.5.99-8.25.036-.316.137-.628.246-.93 1.435-3.976 3.627-7.572 6.336-10.733 2.972-3.47 6.92-5.81 11.25-7.22 3.76-1.22 7.712-1.83 11.66-2.12 3.31-.24 6.646-.187 9.968-.135 4.563.07 8.784 1.766 13.113 2.93.304.084.584.27.866.425 1.6.87 3.24 1.67 4.774 2.645 1.35.855 2.642 1.835 3.842 2.895 1.36 1.203 2.496 2.645 4.085 3.607.526.32.934.885 1.297 1.41 4 5.788 6.153 12.203 6.464 19.23.024.535.065 1.09-.05 1.604-.51 2.296-.826 4.643-1.824 6.814-2.735 5.933-5.47 11.867-8.815 17.498-1.706 2.87-3.51 5.632-5.99 7.906-1.282 1.175-2.247 2.588-2.917 4.192-.25.602-.413 1.26.017 1.835.477.636 1.12.426 1.748.22.336-.11.686-.18 1.03-.257l.118-.14c.078-.038.163-.072.24-.117.044-.032.074-.083.112-.125-.088.11-.175.225-.262.334l-.208.047c-.647.767-1.32 1.516-1.923 2.316-.65.86-1.18 1.79-1.18 2.928.003.65.603 1.248 1.247 1.14.42-.065.843-.152 1.242-.295.5-.18.974-.45 1.478-.623.13-.048.41.064.483.186.096.16.143.465.05.6-.298.428-.622.863-1.018 1.197-1.11.94-1.742 2.155-2.13 3.513-.234.808.628 1.813 1.462 1.694.51-.075.997-.346 1.502-.498.574-.17 1.035.074 1.245.66.258.72.463 1.427-.12 2.12-.34.4-.65.84-.892 1.307-.31.594-.037 1.423.66 1.523 1.073.157 1.364.862 1.69 1.67.114.28.315.596.565.746.47.28 2.29-.7 2.316-1.23.075-1.927.02-3.867.21-5.78.16-1.614.292-3.18-.067-4.788-.185-.827-.144-1.71-.146-2.564-.004-2.68.073-5.364.01-8.045-.042-1.918.618-3.497 1.647-5.087 2.036-3.15 3.986-6.358 5.787-9.646 1.643-3.006 3.025-6.155 4.552-9.224 1.68-3.386 2.724-6.973 3.423-10.662.153-.827.085-1.712.013-2.56z"/></svg>