<svg xmlns="http://www.w3.org/2000/svg" width="128" height="128" viewBox="0 0 128 128"><path d="M113.57 49.48c-.433-1.47-.378-2.965-.533-4.454-.21-2.02-.4-4.058-.825-6.04-.562-2.636-1.506-5.185-3.168-7.33-1.646-2.127-2.997-4.433-4.476-6.66-1.365-2.063-2.856-4.064-4.75-5.635-2.052-1.705-4.19-3.365-6.63-4.52-2.708-1.28-5.447-2.5-8.202-3.677-2.683-1.14-5.47-1.877-8.416-1.882-.53 0-1.06-.143-1.59-.174-1.172-.07-2.37-.288-3.51-.125-2.456.353-4.914.378-7.377.348-2.17-.027-4.288.262-6.34.907-4.4 1.376-8.708 3.008-12.85 5.038-3.403 1.664-6.42 3.908-8.928 6.754-6.41 7.296-9.31 15.808-8.378 25.493.18 1.866-.094 3.4-1.22 4.778-2.508 3.07-4.31 6.67-7.188 9.456-1.354 1.31-2.04 3.03-2.564 4.773-.89 2.962.985 6.347 4.533 6.15 1.07-.06 2.14-.066 3.213-.094 1.47-.035 1.984.24 2.49 1.515.274.688.53 1.427.56 2.155.07 1.632.5 3.192 1.01 4.695 1.354 3.994 1.853 8.128 2.3 12.28.335 3.11 1.103 6.08 2.612 8.867.917 1.694 2.173 2.606 4.053 2.627 3.1.036 6.228.3 9.218-.875.295-.115.614-.192.93-.237.926-.123 1.95.44 2.362 1.312.274.58.448 1.21.75 1.77 1.274 2.353 2.537 4.716 3.89 7.024.916 1.568 1.943 3.075 2.996 4.558.203.288.733.38 1.133.48.426.107.925-.373.808-.745-.757-2.34-1.442-4.708-2.306-7.008-1.018-2.705-2.203-5.35-3.294-8.026-.282-.69-.51-1.406-.71-2.127-.163-.574.044-1.043.568-1.356.645-.384 1.337-.712 1.915-1.177.57-.462 1.072-1.028 1.516-1.614.507-.667.014-1.483-.856-1.576-1.118-.117-2.103.166-3.05.757-1.644 1.024-3.46 1.682-5.236 2.436-1.766.748-3.567 1.356-5.37 1.985-1.774.624-3.353.245-4.985-.352-1.11-.407-1.785-1.144-2.013-2.3-.124-.628-.32-1.258-.36-1.89-.14-2.047-.686-4.005-1.17-5.982-.307-1.246-.603-2.497-.863-3.753-.16-.786.197-1.245 1.022-1.216 2.5.093 4.9-.383 7.242-1.212.6-.21 1.186-.477 1.742-.783.57-.316.95-1.037.704-1.28-.28-.28-.672-.576-1.037-.608-1.062-.096-2.14-.11-3.208-.075-1.93.07-3.857.204-5.786.307-1.675.087-1.707.093-2.027-1.586-.26-1.36-.4-2.747-.656-4.11-.252-1.36-.5-2.736-.895-4.065-.64-2.148-1.448-2.704-3.726-2.753-1.395-.028-2.79.018-4.185-.01-1.49-.03-1.854-.647-1.267-2.075.413-1 .933-1.927 1.73-2.682 1.334-1.267 2.322-2.798 3.338-4.317.89-1.332 1.755-2.72 2.848-3.882 2.74-2.91 3.483-6.623 4.04-10.294.402-2.635.87-5.275 1.14-7.936.063-.633.197-1.278.418-1.872 1.36-3.66 3.413-6.955 5.856-9.93 2.987-3.638 6.987-5.95 11.403-7.527.3-.11.615-.18.925-.26 6.468-1.746 13.063-2.25 19.74-2.11 2.38.054 4.715.36 6.987.963 3.817 1.013 7.627 2.005 11.096 4.102 2.496 1.51 4.917 3.023 6.933 5.146.66.694 1.366 1.388 2.166 1.905.932.608 1.603 1.4 2.184 2.31 2.67 4.195 4.63 8.644 5.54 13.597.837 4.568.543 8.952-1.126 13.25-.58 1.494-1.266 2.954-1.96 4.4-.976 2.03-2.016 4.025-3.008 6.047-2.895 5.877-5.892 11.677-10.78 16.232-1.202 1.12-1.954 2.54-2.296 4.162-.146.698.173 1.205.95 1.365.38.08.778.09 1.166.12l.034-.062.14-.06.17-.334.197.18c-.124.052-.246.106-.368.156-.02.042-.044.087-.067.13l-.11-.012c-.18.344-.36.69-.555 1.026-.526.925-1.085 1.84-1.586 2.78-.264.49-.296 1.026.073 1.51.466.61 1.115.586 1.75.418.714-.192 1.402-.485 2.117-.675.14-.04.36.166.515.293.042.035.03.22-.022.28-.33.412-.643.852-1.032 1.197-1.077.962-1.712 2.183-2.194 3.51-.283.773.53 1.873 1.35 1.753.622-.09 1.213-.384 1.827-.555.476-.13.85.053.998.53.32 1.023.702 2.068-.476 2.858-.17.112-.29.317-.408.494-.487.725-.323 1.49.604 1.766.954.28 1.453.77 1.697 1.688.073.27.34.56.597.693.718.37 2.46-.608 2.466-1.387.032-3.435.037-6.87.037-10.3-.002-3.97-.004-7.937-.037-11.907-.01-1.234.346-2.276 1.084-3.28 1.013-1.378 1.894-2.853 2.81-4.3 3.103-4.908 5.384-10.243 8.03-15.387 1.733-3.37 2.586-7.02 3.47-10.658.172-.704.17-1.536-.033-2.224zM91.196 33.796c1.222-.41 1.38-1.84 2.187-2.677-.09-.973-.974-1.337-1.52-1.95-.713-.804-1.454-1.58-2.232-2.315-.696-.658-1.43-1.29-2.206-1.854-.786-.575-1.333-.513-1.963.214-2.104 2.426-4.287 4.795-6.23 7.347-3.763 4.943-7.286 10.06-10.44 15.425-.212.363-.41.84-.92.66-.244-.086-.434-.45-.556-.73-.296-.684-.533-1.398-.805-2.095-1.007-2.594-1.99-5.198-3.04-7.773-.77-1.886-2.318-2.525-4.15-1.637-1.44.696-2.81 1.552-4.146 2.435-.932.62-1.47 1.547-1.355 3.4.08.29.266 1.238.62 2.12 2.07 5.164 4.184 10.31 6.283 15.46.08.2.16.4.26.588.71 1.34 1.706 2.213 3.343 1.9.665-.124 1.253-.063 1.845.287.988.587 1.917.258 2.64-.446.76-.74 1.41-1.602 2.035-2.466 2.947-4.08 5.798-8.23 8.816-12.254 2.956-3.94 6.065-7.76 9.11-11.63.665-.84 1.314-1.642 2.428-2.01zM57.798 42.85l-.395-.33.625-.573.206.356-.437.546zm8.44 15.915c-.153.043-.47-.077-.53-.206-.476-1.053-1.108-2.07-.898-3.326l.288-.422c.085.06.188.11.252.19.526.654 1.042 1.316 1.566 1.975.33.41-.1 1.62-.678 1.786z"/></svg>