<svg xmlns="http://www.w3.org/2000/svg" width="128" height="128" viewBox="0 0 128 128"><path d="M113.63 49.813c-.508-1.792-.374-3.623-.615-5.42-.325-2.435-.738-4.868-1.3-7.26-.466-1.996-1.482-3.788-2.623-5.487-1.312-1.957-2.78-3.82-3.97-5.845-2.573-4.373-6.187-7.633-10.477-10.214-3.69-2.22-7.677-3.804-11.72-5.227-2.222-.784-4.53-1.273-6.92-1.255-4.288.032-8.576.02-12.866.064-.74.01-1.488.162-2.217.317-5.7 1.195-11.06 3.346-16.27 5.88-2.315 1.127-4.422 2.62-6.34 4.367-4.552 4.14-7.745 9.1-9.486 15.032-1.29 4.395-1.803 8.82-1.103 13.34.142.92.043 1.707-.35 2.464-.44.85-.978 1.66-1.528 2.448-.794 1.146-1.653 2.245-2.456 3.383-1.176 1.666-2.276 3.373-3.786 4.785-1.44 1.352-2.237 3.152-2.884 4.968-1.045 2.93.708 6.514 4.442 6.6 1.062.025 2.15-.03 3.187-.24 1.022-.205 1.753.19 2.17.95.453.828.837 1.787.897 2.707.102 1.63.476 3.202.995 4.703 1.38 3.986 1.837 8.126 2.334 12.27.386 3.215 1.137 6.304 2.75 9.17.762 1.346 1.726 2.15 3.278 2.18 3.204.06 6.427.415 9.565-.643.494-.164 1.06-.15 1.593-.164.95-.032 1.648.363 2.02 1.275.242.59.418 1.233.778 1.748 1.488 2.116 2.546 4.465 3.775 6.725.866 1.594 1.9 3.102 2.93 4.6.202.293.71.424 1.105.52.64.16 1.108-.31.93-.87-1.537-4.8-3.177-9.553-5.297-14.133-.358-.773-.67-1.577-.917-2.39-.3-.99-.155-1.344.73-1.856 1.118-.648 2.284-1.232 3.046-2.318.227-.323.5-.928.36-1.13-.274-.393-.82-.81-1.266-.822-.72-.02-1.54.12-2.158.472-2.338 1.328-4.77 2.424-7.312 3.285-1.337 1.29-3.194 1.136-4.8 1.638-.945.296-2.117.032-3.153-.166-2.06-.394-3.18-1.79-3.312-3.816-.192-3.025-1.13-5.884-1.75-8.813-.13-.628-.277-1.253-.37-1.887-.09-.623.26-1.058.86-1.088.75-.043 1.5-.056 2.253-.064 2.182-.025 4.23-.64 6.227-1.44.473-.19.876-.58 1.28-.916.323-.27.234-.917-.155-1.082-.483-.206-.994-.49-1.493-.494-1.28 0-2.562.113-3.84.224-7.5.656-5.875 1.394-7.104-5.23-.33-1.776-.79-3.532-1.27-5.276-.282-1.03-1.125-1.553-2.114-1.77-.62-.135-1.275-.144-1.917-.155-1.18-.02-2.36.018-3.54-.007-1.426-.027-1.77-.523-1.27-1.752.405-1.002.994-1.872 1.678-2.72 1.35-1.66 2.596-3.406 3.872-5.128.894-1.205 1.66-2.525 2.67-3.62 2.56-2.764 2.966-6.335 3.852-9.732-.08-2.814.782-5.504 1.105-8.267.06-.53.17-1.06.34-1.565 1.338-3.914 3.798-7.176 6.156-10.495.307-.43.737-.78 1.145-1.128 3.624-3.107 7.567-5.62 12.34-6.563 1.363-.27 2.72-.577 4.093-.78 1.905-.288 3.828-.45 5.732-.744 4.5-.685 9.008-.668 13.436.287 4.38.944 8.818 1.848 12.674 4.365.267.175.573.288.864.43 2.248 1.083 4.18 2.587 5.94 4.345.908.902 1.935 1.68 2.87 2.555.7.655 1.463 1.293 1.98 2.078 1.828 2.784 3.387 5.71 4.44 8.896 2.36 7.12 2.397 14.096-1.126 20.894-.79 1.523-1.56 3.058-2.308 4.6-1.777 3.66-3.534 7.316-5.675 10.794-1.756 2.848-3.58 5.586-6.072 7.85-1.376 1.253-2.26 2.845-2.8 4.628-.19.642.257 1.312.957 1.355.58.034 1.167.002 1.75-.01l.078-.095c.078-.036.16-.068.233-.11l.12-.182c-.025.055-.04.132-.083.163-.012.006-.024.01-.036.017l-.134.202c-.06 0-.118.002-.176.003-.514.624-1.02 1.26-1.55 1.873-.73.834-1.078 1.846-1.356 2.884-.227.86.723 1.692 1.594 1.387.806-.28 1.586-.643 2.394-.93.153-.05.51.062.542.165.08.26.133.63.003.828-.228.346-.655.555-.906.892-.7.936-1.375 1.895-2.015 2.873-.376.573-.467 1.198.053 1.766.49.538 1.12.6 1.77.438.412-.098.79-.33 1.197-.458.483-.15.808.043.946.54.29 1.04.63 2.072-.503 2.88-.246.175-.393.505-.558.778-.265.445-.074 1.266.415 1.352 1.22.213 1.85.885 2.114 2.07.095.43.57.588 1.044.53 1.457-.18 1.952-.64 1.965-1.987.033-3.112.042-6.223.036-9.335-.006-3.97.002-7.94-.067-11.91-.028-1.587.484-2.896 1.43-4.15 2.402-3.167 4.18-6.727 6.096-10.192 1.19-2.15 2.03-4.49 3.204-6.65 2.165-3.994 3.656-8.21 4.56-12.645.15-.714.316-1.532.124-2.203zM78.254 43.34c2.204-3.304 4.42-6.604 4.69-10.756.02-.277.243-.587.46-.79.223-.212.602-.257.83-.466 1.87-1.715 1.428-3.853-.944-4.62-.304-.098-.654-.098-.93-.244-1.476-.793-3.178-.388-4.703-.928-2.78-.99-5.668-1.054-8.585-1.056-3.518.258-7.038.516-10.556.768-.72.053-1.2.395-1.412 1.088-.578 1.905-.792 3.733.528 5.512.48.644.608 1.573.82 2.396.972 3.78 2.518 7.283 4.985 10.34.538.668 1.13 1.29 1.68 1.95.315.37.312.782 0 1.153-.756.902-1.578 1.752-2.29 2.688-2.22 2.925-3.993 6.098-5.046 9.632-.292.992-.67 1.74-1.805 1.977-.81.167-1.167.937-1.365 1.664-.563 2.054.146 3.854 1.925 4.99 1.653 1.054 3.413 1.752 5.43 1.73 1.283-.01 2.567.11 3.852.204 1.707.117 3.41.274 5.118.397 3.765.265 7.424-.806 11.168-.92 1.344-.042 2.5-1.434 2.66-2.847.15-1.31.14-2.763-.756-3.682-1.152-1.183-1.426-2.6-1.74-4.03-.388-1.794-1.05-3.47-1.802-5.13-.808-1.786-1.968-3.29-3.21-4.78-1.33-1.586-1.252-3.374-.014-4.99.326-.43.717-.81 1.015-1.25zM74.53 27.235c.623-.056 1.244-.114 1.868-.136.588-.02 1.076.297.855.442-.24.155-.544.232-.832.29-.196.044-.413.01-.642.01-.395-.046-.81-.077-1.22-.16-.113-.02-.2-.194-.298-.3.09-.05.178-.138.272-.148zM63.17 64.28l.02-.21.206.123-.227.09zm3.808 1.233c-.293-.002-.61-.083-.87-.224-.157-.087-.228-.335-.338-.51.177-.096.344-.248.53-.275.425-.06.847-.037.966.514-.096.17-.192.492-.288.492zm2 .056c-.055-.183-.138-.36-.156-.546-.008-.064.133-.143.206-.218.107.15.208.3.314.446-.122.103-.243.21-.363.317zm3.633.196c-.196.053-.44.144-.6.075-.22-.095-.38-.324-.562-.495l.488-.31c.203.026.433.005.606.09.128.067.21.265.263.42.017.048-.112.196-.196.224zm.984-3.176c-.74-.063-1.49-.012-2.87-.012-.74-.11-2.096-.295-3.444-.53-.135-.022-.234-.318-.32-.502-.014-.028.127-.145.212-.195.085-.05.187-.105.284-.107.7-.015 1.147-.252 1.413-1 .19-.54.9-.903 1.073-1.443.42-1.32 1.303-1.588 2.478-1.345 1.42.3 2.62.892 3.02 2.475.16.645-.597.88-.576 1.397.038.932-.302 1.344-1.27 1.264zm1.45 3.026c-.102.008-.22-.19-.33-.293.08-.058.173-.17.24-.156.193.035.372.123.556.192-.154.09-.304.24-.464.254zm2.91-3.28c-.054-.174-.134-.34-.154-.517-.005-.066.13-.146.2-.22l.316.45c-.12.096-.24.19-.363.283zm1.575-3.812c.054.196.027.42.037.634-.043.093-.07.256-.128.267-.165.03-.41.066-.505-.026-.7-.674-1.45-1.133-2.435-1.404-1.263-.35-2.03-1.504-2.91-2.44-.464-.496-.974-.67-1.71-.405-1.182.428-2.518.428-3.382 1.598-.216.287-.776.312-1.15.51-.555.29-1.275.505-1.59.972-.918 1.363-2.503 1.03-3.702 1.64-.038.022-.314-.26-.352-.432-.045-.192.02-.43.1-.62.334-.786.632-1.597 1.06-2.33.592-1.012 1.27-1.978 1.948-2.937.675-.957 1.385-1.894 2.098-2.826.984-1.28 2.355-2.094 3.66-2.987.067-.048.482.217.468.276-.11.497-.357.97-.41 1.47-.02.224.27.632.485.683.21.052.552-.196.747-.4.117-.117.066-.405.085-.62.045-.468-.313-1.145.448-1.274.52-.09.535.533.78.848.513.667 1.108 1.28 1.71 1.873 2.248 2.23 3.797 4.875 4.647 7.925zm-7.3-13.014l-.78.176c-.357-.1-.73-.117-.48-.54.092-.156.397-.37.46-.33.293.188.538.452.798.692zm-.62-2.586c.01-.08-.008-.194.037-.235.045-.04.11-.055.175-.07l.053-.074.053.045c.066-.18.12-.496.207-.507.61-.064 1.233-.105 1.845-.064.384.03.992.116.837.656-.126.435-.586.794-.946 1.133-.08.08-.404.003-.545-.097-.482-.352-.936-.745-1.4-1.125v.005c-.032.01-.068.016-.105.023-.07.103-.14.205-.21.304zm-.95-4.555c-.78-.17-1.44-.263-2.147.16-.457.265-.958.493-1.47.635-2.423.675-3.185.34-4.325-1.92-.53-1.053-1.068-2.115-1.427-3.232-.25-.79-.25-1.672-.26-2.517 0-.2.398-.56.63-.578.96-.065 1.926-.025 2.89-.025l.01.112c1.49-.144 2.98-.302 4.47-.422 3.443-.277 6.843-.058 10.16.963 1.032.32 1.272.68 1.154 1.58-.288 2.186-1.376 4.03-2.578 5.81-.19.278-.76.486-1.117.434-2.006-.275-4.014-.576-5.99-1.003zm.047 14.39c-.01.21.25.43.392.643.206-.162.532-.3.586-.505.046-.185-.213-.443-.41-.803-.268.29-.56.472-.57.664zm1.496 6.558c-.942.035-1.478.72-1.922 1.452-.08.128-.017.437.094.565.194.218.476.36.672.5.89-.21 1.93-1.308 1.837-1.988-.028-.214-.448-.54-.68-.53z"/></svg>