<svg xmlns="http://www.w3.org/2000/svg" width="128" height="128" viewBox="0 0 128 128"><path d="M113.57 49.483c-.432-1.47-.378-2.97-.533-4.46-.21-2.02-.4-4.06-.825-6.04-.562-2.635-1.506-5.184-3.168-7.328-1.645-2.128-2.997-4.432-4.476-6.663-1.365-2.06-2.856-4.06-4.75-5.632-2.052-1.707-4.19-3.367-6.63-4.52-2.708-1.28-5.447-2.505-8.202-3.68-2.683-1.14-5.47-1.877-8.416-1.877-.53 0-1.06-.147-1.59-.178-1.172-.068-2.37-.288-3.51-.123-2.456.355-4.915.38-7.377.347-2.17-.03-4.288.26-6.34.903-4.4 1.38-8.708 3.012-12.85 5.04-3.403 1.664-6.42 3.908-8.928 6.756-6.407 7.295-9.308 15.81-8.376 25.492.176 1.864-.098 3.398-1.224 4.776-2.507 3.07-4.31 6.67-7.19 9.456-1.35 1.31-2.036 3.032-2.56 4.776-.888 2.96.984 6.344 4.534 6.146 1.068-.06 2.142-.064 3.214-.09 1.468-.036 1.982.24 2.49 1.515.273.688.528 1.43.56 2.156.07 1.634.5 3.19 1.01 4.697 1.355 3.992 1.852 8.125 2.3 12.28.335 3.11 1.105 6.08 2.615 8.867.913 1.69 2.17 2.603 4.05 2.624 3.1.04 6.228.3 9.217-.873.297-.116.617-.193.932-.234.923-.124 1.95.437 2.36 1.312.27.578.444 1.207.747 1.765 1.227 2.258 2.453 4.516 3.755 6.733.974 1.658 2.037 3.267 3.133 4.85.203.285.736.38 1.134.48.426.106.925-.377.81-.743-.757-2.34-1.44-4.708-2.306-7.008-1.018-2.704-2.203-5.346-3.294-8.025-.28-.69-.51-1.406-.71-2.125-.16-.573.045-1.042.57-1.355.645-.386 1.337-.715 1.915-1.18.57-.46 1.072-1.026 1.518-1.61.505-.67.01-1.486-.86-1.577-1.12-.12-2.104.168-3.052.76-1.64 1.024-3.454 1.68-5.232 2.435-1.766.747-3.567 1.353-5.37 1.984-1.776.624-3.353.243-4.985-.355-1.11-.41-1.784-1.145-2.012-2.3-.125-.63-.32-1.256-.362-1.89-.14-2.047-.685-4.007-1.17-5.98-.306-1.25-.602-2.5-.862-3.756-.16-.784.197-1.245 1.022-1.215 2.502.09 4.902-.388 7.243-1.212.6-.213 1.187-.477 1.743-.785.57-.314.95-1.034.704-1.28-.28-.276-.672-.573-1.037-.604-1.064-.098-2.14-.112-3.21-.073-1.93.067-3.856.2-5.786.303-1.672.09-1.705.094-2.024-1.585-.26-1.362-.402-2.748-.657-4.112-.253-1.36-.5-2.735-.896-4.06-.64-2.15-1.448-2.705-3.726-2.753-1.392-.027-2.787.017-4.182-.01-1.49-.033-1.854-.648-1.267-2.076.413-1.004.933-1.928 1.73-2.685 1.334-1.27 2.322-2.8 3.34-4.318.89-1.336 1.753-2.723 2.846-3.883 2.74-2.91 3.483-6.625 4.04-10.292.402-2.636.87-5.275 1.14-7.937.065-.633.197-1.28.417-1.874 1.36-3.654 3.416-6.95 5.86-9.928 2.982-3.637 6.986-5.948 11.402-7.523.3-.11.613-.183.924-.27 6.466-1.743 13.06-2.25 19.74-2.103 2.38.05 4.714.36 6.986.962 3.816 1.01 7.624 2 11.093 4.1 2.495 1.51 4.916 3.022 6.932 5.144.662.698 1.37 1.387 2.166 1.904.933.608 1.604 1.397 2.187 2.31 2.67 4.196 4.63 8.645 5.538 13.594.84 4.57.548 8.955-1.122 13.254-.58 1.498-1.265 2.955-1.962 4.402-.975 2.03-2.014 4.027-3.008 6.044-2.893 5.882-5.89 11.68-10.78 16.237-1.2 1.12-1.953 2.54-2.295 4.162-.146.697.173 1.2.95 1.365.38.078.775.09 1.165.123.014-.02.025-.043.036-.064l.142-.06.168-.335c.064.06.13.117.196.18-.123.05-.246.1-.367.154-.02.044-.043.087-.066.132l-.11-.008c-.183.34-.36.686-.554 1.02-.528.93-1.088 1.84-1.59 2.78-.262.494-.293 1.027.076 1.51.466.612 1.115.587 1.75.42.714-.19 1.402-.486 2.117-.678.14-.034.357.17.513.296.044.037.033.22-.018.284-.333.41-.644.846-1.035 1.195-1.077.96-1.71 2.188-2.193 3.51-.282.77.53 1.873 1.35 1.755.623-.093 1.214-.384 1.828-.555.476-.13.85.052.997.53.32 1.023.7 2.068-.475 2.858-.17.114-.288.315-.41.496-.486.72-.322 1.488.605 1.76.954.284 1.453.775 1.696 1.692.075.27.344.56.6.69.72.368 2.46-.61 2.464-1.39.032-3.43.038-6.865.038-10.298-.002-3.968-.004-7.936-.037-11.906-.01-1.23.348-2.275 1.086-3.28 1.01-1.377 1.893-2.852 2.81-4.298 3.1-4.91 5.382-10.244 8.03-15.388 1.732-3.37 2.585-7.02 3.47-10.658.17-.702.17-1.533-.035-2.222zM83.975 44.87c.614-.8.894-1.694.847-2.696-.032-.72-.617-1.515-1.28-1.685-.31-.08-.64-.167-.95-.134-2.497.252-4.867-.6-7.312-.806-1.276-.11-2.54-.36-3.808-.543-.64-.096-.836-.452-.593-1.146.352-1.006.762-1.996 1.097-3.012 1.584-4.768 3.153-9.54 4.715-14.31.18-.546-.053-1.064-.613-1.307-1.58-.673-1.654-.877-2.843.257-.693.66-1.326 1.323-2.23 1.78-.71.356-1.293 1.112-1.744 1.81-1.275 1.98-2.477 4.006-3.665 6.037-1.85 3.157-3.9 6.176-6.683 8.576-2.573 2.218-4.31 5.023-5.975 7.898-.63 1.085-.26 2.11 1.024 2.532 1.515.5 3.08.864 4.642 1.195 1.564.33 3.152.54 4.725.826.483.09.763.437.604.92-.434 1.322-.864 2.644-1.393 3.93-2 4.856-3.397 9.904-4.756 14.962-.165.61-.176 1.268-.22 1.616.02.4.02.51.027.614.05.69.69 1.15 1.347.962 2.772-.785 2.775-.785 4.554-3.147.713-.943 1.39-1.907 2.13-2.822 2.488-3.083 4.96-6.18 7.51-9.205 1.658-1.963 3.52-3.752 5.15-5.732 1.975-2.392 3.8-4.907 5.693-7.366zM70.823 27.686c.107.113.322.274.3.338-.1.247-.273.465-.425.7-.208-.165-.335-.267-.46-.363l.586-.675zm-3.007 4.297c.467-.216.95-.42 1.448-.552.128-.033.33.198.557.348-.147.254-.27.702-.454.734-.496.078-1.02-.018-1.53-.078-.028-.004-.075-.422-.02-.448zm.205 2.717c.337.02.59.2.44.603-.033.094-.18.24-.2.23-.255-.155-.5-.332-.78-.524.23-.14.39-.32.54-.31zm-6.006 4.503c.008-.004.02-.005.027-.008.05-.053.1-.11.15-.164.053 0 .107-.01.16-.013.096-.147.19-.32.295-.33 1.277-.08 2.528-.242 3.74-.71.59-.226.827.06.798.85-.004.104-.032.212-.075.308-.284.67.654 1.466-.19 2.064-.61.434-1.316.506-2.04.436l-.027.075-.19.02c-.16.147-.32.3-.51.397-.08.043-.27-.128-.41-.203.084-.045.164-.117.253-.13.222-.032.446-.046.67-.064.037-.035.074-.07.113-.102.032.004.066.002.1.006.888-2.355.667-2.683-1.744-2.672-.263 0-.525.032-.788.053-.02.037-.046.075-.07.103-.08.026-.162.043-.237.077l-.14.153c.035-.05.065-.12.113-.144zm-.413 3.792l-.15-.003c-.16.213-.297.462-.51.582-1.197.677-2.41 1.318-3.637 1.94-.122.06-.373-.112-.548-.204-.06-.032-.113-.187-.085-.243.24-.472.48-.946.756-1.397.293-.476.715-.764 1.31-.745.906.028 1.81.043 2.717.064l.067-.09.21-.02c.155-.142.308-.29.492-.384.08-.045.273.122.416.195-.085.044-.17.11-.26.124-.217.032-.433.047-.65.066-.043.04-.085.08-.128.115zm1.08 3.65c-.164.028-.405-.12-.54-.256s-.176-.36-.26-.543c1.156-.32 2.178-1.15 3.47-.946.02-.02.035-.033.057-.052h.08c.17-.623.688-.528 1.145-.556.012-.035.027-.064.036-.107l.15-.018c.244-.44.696-.453 1.13-.506.018-.036.04-.07.056-.11.045-.01.09-.024.135-.037.34-.92.96-1.44 2.024-1.244.267.05.51.23.76.35-.176.097-.344.234-.533.29-.747.213-1.5.405-2.25.602-.018.043-.036.085-.05.13-.05.006-.098.01-.144.018-.242.456-.7.454-1.13.504-.024.036-.047.07-.065.114-.04.006-.08.007-.12.012-.184.565-.66.565-1.145.555-.007.02-.017.038-.02.064-.04-.008-.08-.006-.118-.013-1.365 1.312-1.755 1.583-2.67 1.743zM63.82 65c-.515.792-1.052 1.572-1.6 2.34-.097.14-.278.222-.42.333-.057-.196-.2-.413-.156-.576.226-.808.434-1.632.792-2.38.14-.29.638-.436 1.003-.564.12-.043.336.18.51.282-.04.19-.03.416-.13.567zm10.903-13.8c-.043.032-.096.05-.15.064l-.076.103c-.032-.002-.064 0-.094-.002-.5 1.424-1.637 2.374-2.596 3.456-.376.423-.9.415-1.46.407-.948-.014-1.9.112-2.844.233-.302.038-.584.25-.87.383-.38.192-.43.816-.073 1.053.17.117.363.227.563.267.47.09.838.224.41.75-.494.604-.908 1.173-.367 1.987.07.107-.206.634-.41.702-.903.3-1.836.516-2.764.72-.066.018-.326-.327-.288-.43.885-2.505 1.787-5 2.72-7.484.1-.27.38-.614.626-.66 2.45-.457 4.78-1.573 7.353-1.383.007-.02.018-.04.025-.064l.145-.035.203-.273c-.017.076-.008.18-.053.21zm.825-1.685c-.725-.562-1.504-.66-2.41-.46-1.67.377-3.308.824-4.88 1.514-.186.077-.558-.14-.768-.315-.085-.07.017-.398.072-.597.163-.575.603-.835 1.144-.993 2.048-.593 4.096-1.18 6.136-1.797.604-.18 1.222-.387 1.755-.71.328-.203.72-.672.686-.98-.035-.305-.523-.69-.885-.8-.604-.185-1.264-.172-1.9-.26-.098-.012-.19-.086-.287-.135.12-.144.21-.346.365-.42.542-.278 1.104-.51 1.38-.633 1.7.306 3.057.544 4.406.815.068.013.17.373.106.46-1.276 1.712-2.578 3.402-3.868 5.1-.3.397-.62.54-1.05.21zm14.92 9.256c.22-1.69.448-3.38.698-5.065.09-.606.516-.966 1.11-.914 1.172.1 2.34.257 3.508.38 1.742.19 2.424-.324 2.957-2.2.146-.508.13-1.06.183-1.59.173-1.81.376-3.616.504-5.427.098-1.387.176-2.784.13-4.173-.052-1.662-.952-2.512-2.65-2.567-1.284-.043-2.572.035-3.858.043-.604.005-.846-.34-.81-1.035.09-1.71.23-3.42.222-5.13-.005-1.18-.845-1.99-1.994-2.162-.42-.064-.853-.064-1.28-.066-1.502-.008-3.002 0-4.5 0-1.18 0-2.36-.02-3.54.008-.852.017-1.712.037-2.555.16-.848.125-1.428.747-1.517 1.448-.14 1.11.31 2.076 1.21 2.38.596.2 1.243.325 1.874.354 1.606.075 3.214.077 4.82.114.64.013 1.306-.048 1.916.096.337.08.69.472.853.813.172.367.177.832.18 1.26.026 4.714.112 9.43.014 14.145-.04 1.91-.468 3.816-.774 5.714-.09.568-.533.952-1.124.98-1.712.09-3.43.227-5.14.175-1.54-.05-2.94.506-4.404.775-1.043.19-1.617.975-1.992 1.915-.38.96.134 2.105 1.13 2.275.944.162 1.915.173 2.875.23 2.666.157 5.336-.16 8.003.412 1.888.405 3.686-1.28 3.955-3.34zm3.655-18.26c.26-.15.608-.146.73-.173 1.238-.037 1.594.273 1.523 1.26-.04.52-.07 1.1-.318 1.53-.157.27-.715.444-1.077.42-.36-.02-.313-.442-.19-.747.26-.636-.005-.982-.605-1.198-.245-.087-.452-.273-.677-.413.203-.237.365-.538.617-.685zM42.916 58.913c.105 1.717.902 2.577 2.592 2.624 2.14.06 4.286.034 6.425-.028.62-.017 1.254-.238 1.845-.46.664-.25.992-.874.988-1.524-.004-.843-.15-1.696-.316-2.525-.11-.555-.523-.948-1.072-1.09-.407-.11-.843-.136-1.267-.144-.96-.017-1.926.015-2.89-.004-1.33-.032-1.616-.33-1.7-1.752-.033-.532-.01-1.07-.054-1.603-.467-5.444.038-10.923-.544-16.363-.022-.21-.08-.464.006-.635.176-.358.376-.754.68-.977.33-.24.778-.34 1.19-.437 1.773-.427 3.563-.736 5.397-.725 1.06.01 1.84-.46 2.272-1.46.17-.39.446-.736.6-1.13.47-1.2-.414-2.504-1.68-2.47-.53.015-1.068.107-1.58.24-2.816.732-5.668 1.045-8.578.875-.85-.05-1.714-.004-2.565.064-.674.05-1.088.625-1.085 1.35.005 1.924.003 3.846.003 5.77-.35 4.736.502 9.4.915 14.083.18 2.025.384 4.04.398 6.072.004.753-.023 1.504.02 2.25z"/></svg>