<svg xmlns="http://www.w3.org/2000/svg" width="128" height="128" viewBox="0 0 128 128"><path d="M112.59 49.864c-.238-2.67-.467-5.344-.825-7.998-.512-3.755-1.576-7.325-3.776-10.488-1.468-2.107-2.888-4.245-4.33-6.37-.36-.53-.687-1.09-1.083-1.592-2.63-3.32-5.82-5.97-9.483-8.098-3.354-1.952-6.936-3.4-10.554-4.715-2.497-.91-5.122-1.547-7.85-1.504-3.645.05-7.293.083-10.94.047-2.065-.024-4.066.337-6.02.88-4.55 1.26-8.96 2.945-13.228 4.965-3.827 1.81-7.09 4.39-9.884 7.58-3.227 3.694-5.536 7.844-6.816 12.61-1.064 3.97-1.883 7.925-1.085 12.037.4 2.06-.283 3.796-1.457 5.407-.885 1.216-1.858 2.365-2.693 3.608-1.256 1.877-2.532 3.712-4.152 5.31-1.568 1.552-2.32 3.584-2.936 5.653-.12.398-.14.857-.077 1.268.395 2.635 2.118 4.19 4.81 4.286 1.177.043 2.36-.08 3.536-.105 1.153-.026 1.793.37 2.186 1.503.316.904.605 1.847.7 2.795.197 2.048.793 3.984 1.393 5.933.314 1.022.58 2.068.743 3.122.45 2.854.907 5.712 1.234 8.584.306 2.713 1.242 5.173 2.457 7.595.763 1.522 1.893 2.25 3.47 2.485.532.08 1.066.16 1.597.178 2.478.077 4.926-.153 7.33-.768.62-.163 1.248-.322 1.88-.384.93-.09 1.79.25 2.12 1.13.72 1.936 2.036 3.513 2.99 5.305.65 1.23 1.2 2.52 1.895 3.725.862 1.484 1.795 2.92 2.77 4.326.32.462.966.512 1.477.3.446-.193.47-.662.337-1.103-1.326-4.53-2.963-8.944-4.886-13.254-.346-.78-.672-1.576-.955-2.38-.598-1.69-.585-1.7.803-2.538.46-.277.966-.487 1.387-.813.505-.39 1.004-.82 1.38-1.33.22-.306.358-.85.238-1.177-.117-.302-.608-.602-.964-.644-1.086-.136-2.083.15-3.077.674-1.7.896-3.484 1.636-5.233 2.434-.49.22-1.04.338-1.472.63-1.563 1.07-3.396 1.27-5.165 1.53-1.013.147-2.123-.13-3.152-.37-1.66-.387-2.464-1.58-2.7-3.217-.133-.954-.266-1.91-.458-2.845-.56-2.728-1.157-5.445-1.724-8.17-.14-.666.117-1.028.79-1.002 2.508.11 4.897-.498 7.252-1.22.796-.243 1.54-.71 2.238-1.18.587-.398.363-1.225-.31-1.534-1.247-.576-2.512-.3-3.79-.18-1.81.167-3.624.32-5.442.42-1.65.09-1.68-.02-2.163-1.69-.178-.615-.197-1.274-.316-1.903-.38-2.002-.7-4.017-1.17-5.995-.533-2.25-1.192-2.797-3.517-3.05-.843-.09-1.712-.014-2.557.07-.975.095-1.923.116-2.86-.222-.428-.155-.733-.603-.583-.978.514-1.297 1.03-2.6 2.07-3.597 1.488-1.42 2.58-3.14 3.703-4.846.825-1.25 1.67-2.516 2.688-3.607 2.64-2.837 3.18-6.49 3.927-10.012.574-2.702.657-5.506.997-8.26.064-.52.3-1.02.48-1.52 1.02-2.847 2.624-5.356 4.297-7.865 1.77-2.652 3.987-4.72 6.613-6.464 4.026-2.673 8.486-3.98 13.22-4.64 2.446-.335 4.914-.436 7.346-.78 4.442-.62 8.763-.14 13.064.853 2.293.53 4.663.946 6.81 1.86 3.445 1.467 6.83 3.16 9.71 5.617 1.787 1.528 3.336 3.318 5.206 4.77.49.38.834.975 1.192 1.508 3.654 5.483 5.502 11.57 5.952 18.11.05.747.102 1.532-.066 2.245-.534 2.29-.852 4.645-1.872 6.8-1.33 2.81-2.658 5.615-4.006 8.41-.834 1.737-1.655 3.478-2.574 5.17-.92 1.693-1.93 3.34-2.944 4.98-1.465 2.375-2.99 4.705-5.106 6.58-.4.35-.77.746-1.13 1.143-.95 1.05-1.584 2.288-2.034 3.62-.262.77.064 1.38.928 1.764.272.125.58.168.875.243 0-.01.004-.02.005-.032.02-.01.05-.016.08-.02.077-.14.155-.273.235-.41.395.48-.01.38-.235.41l-.037.067-.05-.01c-.063.906-.863 1.414-1.19 2.175-.292.675-.598 1.37-.737 2.087-.2 1.005.613 1.722 1.534 1.413.813-.27 1.596-.628 2.41-.902.124-.045.412.1.476.228.078.162.078.463-.026.592-.405.493-.853.954-1.305 1.405-.85.856-1.444 1.858-1.762 3.02-.305 1.115.762 2.124 1.914 1.793.404-.117.797-.316 1.18-.506.497-.246.84-.03 1.022.388.446 1.035.634 2.055-.37 2.933-.232.204-.38.516-.524.798-.24.46-.117 1.268.348 1.41 1.125.353 1.65 1.206 2.17 2.137.223.395.694.42 1.148.363 1.167-.16 1.54-.51 1.598-1.596.123-2.353.238-4.707.344-7.06.025-.533.066-1.085-.027-1.605-.764-4.27-.283-8.566-.32-12.85-.015-1.426.44-2.73 1.34-3.876 2.4-3.05 4.077-6.552 5.98-9.9 1.75-3.067 3.14-6.337 4.706-9.51 1.624-3.294 2.638-6.78 3.317-10.37.14-.724.16-1.497.093-2.235zm-19.36.003c-.043-.427-.007-.86-.007-1.29-.073-3.21-.17-6.387-.986-9.548-.55-2.138-1.392-4.015-2.717-5.73-.98-1.266-1.824-2.643-3.3-3.46-.437-.24-.674-.82-1.06-1.18-.69-.66-1.39-1.327-2.15-1.906-1.725-1.312-3.732-2.077-5.744-2.825-1-.374-2.03-.676-3.014-1.09-1.502-.632-3.02-1.042-4.675-.935-.96.06-1.93.006-2.89-.032-2.077-.08-4.022.28-5.875 1.3-1.02.557-2.176.89-3.29 1.264-1.244.422-2.33 1.074-3.277 1.97-2.584 2.437-4.917 5.088-6.833 8.088-.983 1.542-1.806 3.153-2.123 4.99-.293 1.682-.72 3.348-.92 5.04-.315 2.666-.48 5.39.033 8.016 1.298 6.59 4.158 12.297 9.75 16.42 3.93 2.9 8.22 4.466 13.108 4.486 1.49.004 2.988.203 4.47.384 2.418.29 4.668-.044 6.77-1.38.796-.5 1.733-.826 2.647-1.083 1.498-.413 2.723-1.21 3.792-2.304 2.34-2.394 4.247-5.086 5.732-8.094 1.73-3.51 2.95-7.117 2.557-11.104zm-11.506 15.51c-2.272 1.81-4.933 2.492-7.716 2.887-.42.064-.85-.315-.832-.723.026-.745.078-1.496.136-2.584-.032-.518-.036-1.38-.155-2.225-.08-.586-.544-.887-1.13-.945s-1.1.128-1.313.686c-.422 1.11-.72 2.25-.49 3.46.122.633.272 1.26.38 1.89.112.653-.194 1.064-.796 1.077-.642.01-1.3.064-1.927-.034-2.005-.317-4-.72-6.006-1.045-.894-.14-1.557-.56-2.208-1.178-.928-.876-1.92-1.715-3.002-2.388-4.573-2.854-7.09-7.01-7.957-12.252-.085-.527-.028-1.086-.154-1.6-.38-1.57.16-1.536 1.454-1.202 1.32.34 2.75.275 4.13.367.207.015.426-.06.626-.136.747-.28 1.28-.793 1.486-1.57.14-.517-.526-1.39-1.313-1.653-.597-.2-1.24-.333-1.867-.356-.636-.02-1.277.108-1.912.204-3.302.512-3.147.563-2.958-2.853.114-2.12.78-4.095 2.127-5.93 2.27-3.085 4.942-5.645 8.245-7.503 2.606-1.47 5.29-2.827 8.328-3.21.205-.023.46-.014.624.088.452.27.025.527-.094.727-1.027 1.71-.907 3.462-.192 5.222.213.52.623.864 1.216.902.608.035 1.333-.42 1.455-1.045.222-1.15.357-2.32.52-3.48.076-.585-.735-1.278.01-1.7.33-.19 1.003.17 1.495.342 3.435 1.222 6.862 2.457 9.88 4.576.262.18.542.37.84.468 2.37.794 3.54 2.79 4.344 4.856.924 2.38 1.586 4.89 1.91 7.45.067.534-.14.797-.63.87-1.056.158-2.125.257-3.17.467-.816.164-1.492.964-1.39 1.536.15.8.64 1.372 1.398 1.62.496.163 1.044.197 1.575.22.642.027 1.294-.07 1.927-.002.216.025.58.42.56.617-.507 6.003-2.61 11.214-7.46 15.084zM79.462 36.83c-.508.154-.984.41-1.474.62-2.443 1.068-4.835 2.277-7.34 3.167-2.236.794-4.328 1.8-6.335 3.032-1.427.87-2.368 2.02-2.894 3.653-.916 2.842-2.035 5.617-3.053 8.425-.366 1.002-.715 2.012-1.028 3.033-.24.79.1 1.39.94 1.767.293.127.604.22 1.09.394.35-.133.87-.26 1.31-.522 3.343-1.976 7.113-2.866 10.68-4.27 2.07-.166 3.22-1.477 4.05-3.212 1.375-2.886 2.794-5.752 4.132-8.653.625-1.352 1.115-2.765 1.637-4.162.182-.49.345-1.01.397-1.53.11-1.12-1.062-2.074-2.116-1.743zM63.71 54.654c-.373.01-.722-.475-.603-.82.03-.083.117-.144.273-.32.203.345.388.65.55.963.007.016-.142.172-.22.176zm8.117-8.337h-.497c.156-.293.316-.442.496 0zm-1.998 6.11c-.18.104-.39.172-.594.207-1.528.252-3.595-.892-4.405-2.46-.074-.142-.007-.36.016-.554l-.047-.007c-.01-.025-.015-.056-.017-.09-.117-.064-.235-.128-.352-.19.4-.31.338-.01.353.19.02.013.047.025.07.037 0 .02-.006.04-.008.062l.55.107c.167.03.338.06.508.085.064-.738.048-1.496.213-2.213.285-1.21 1.478-1.963 2.68-1.75.817.145 1.62.36 2.427.547.092.336.3.554.64.64.07.605.174 1.21.19 1.82.053 1.674-.87 2.764-2.225 3.57zm3.77-3.93c-.12-.098-.307-.175-.347-.3-.046-.144-.023-.31-.01-.472l-.07-.032c-.035-.032-.068-.068-.103-.103-.244-.042-.375-.194-.418-.43l-.11-.11-.1-.096-.486.015.007-.474c.158.154.318.306.48.46.06 0 .122-.004.184-.005 0 .08.013.148.025.214l.42.43c.058.008.11.025.18.02 0 .038-.005.076-.008.113.16.072.346.128.42.25.068.12-.036.34-.063.523z"/></svg>