<svg xmlns="http://www.w3.org/2000/svg" width="128" height="128" viewBox="0 0 128 128"><path d="M113.583 49.476c-.177-2.027-.48-4.046-.623-6.075-.175-2.48-.734-4.873-1.528-7.21-.55-1.62-1.31-3.152-2.336-4.56-1.333-1.81-2.685-3.625-3.81-5.566-2.956-5.092-7.258-8.697-12.396-11.347-2.752-1.42-5.626-2.632-8.508-3.78-2.395-.956-4.907-1.54-7.516-1.566-.636-.005-1.298-.034-1.904-.202-1.282-.363-2.56-.168-3.837-.096-1.493.09-2.992.36-4.477.293-4.366-.2-8.523.638-12.563 2.212-.5.196-1.01.36-1.502.57-2.564 1.087-5.207 2.02-7.667 3.306-9.73 5.076-15.117 13.31-17.045 23.96-.457 2.543-.71 5.097-.126 7.662.047.206.014.433.058.642.396 1.835-.266 3.368-1.343 4.787-.844 1.11-1.74 2.188-2.53 3.332-1.4 2.027-2.77 4.06-4.514 5.838-1.365 1.387-2.176 3.173-2.734 5.045-.864 2.895 1.058 5.805 4.02 6 1.172.078 2.356 0 3.534-.026 1.803-.043 2.535.472 3.002 2.19.17.62.313 1.252.387 1.888.26 2.246.915 4.395 1.574 6.547.25.817.47 1.65.6 2.495.444 2.854.983 5.705 1.224 8.577.267 3.202 1.52 5.99 3.016 8.734.452.833 1.173 1.247 2.012 1.473.612.16 1.27.225 1.904.232 2.997.02 6.018.235 8.883-.97.194-.08.41-.116.62-.152 1.133-.183 2.09.31 2.624 1.397.283.57.456 1.198.757 1.758 1.17 2.165 2.325 4.34 3.57 6.464.974 1.657 2.06 3.25 3.128 4.852.164.245.48.448.768.53.27.072.61.007.878-.1.146-.062.273-.34.277-.524.01-.312-.052-.64-.144-.94-1.13-3.69-2.423-7.316-3.934-10.868-.75-1.77-1.424-3.576-2.143-5.362-.255-.627.007-.988.55-1.28.657-.357 1.34-.704 1.92-1.163.58-.46 1.12-1.01 1.537-1.614.194-.285.158-.826.035-1.186-.072-.216-.505-.38-.8-.43-1.235-.21-2.29.296-3.35.864-3.208 1.713-6.58 3.037-10.015 4.24-1.76.612-3.37.378-5.008-.144-1.448-.46-2.365-1.506-2.494-3.047-.25-3.01-1.02-5.902-1.766-8.8-.213-.83-.38-1.67-.555-2.51-.107-.51.134-.87.608-.9.643-.036 1.284-.058 1.93-.063 2.4-.007 4.633-.78 6.852-1.564.668-.24 1.412-.587 1.544-1.45.067-.46-.807-.913-1.857-.954-.75-.03-1.502-.022-2.25.02-2.142.125-4.29.21-6.418.448-1.11.123-1.29-.155-1.498-1.123-.203-.94-.378-1.887-.558-2.832-.324-1.683-.61-3.373-.974-5.047-.156-.722-.446-1.424-.722-2.115-.4-1.004-1.177-1.49-2.255-1.494-1.29-.003-2.576-.005-3.86-.026-.75-.012-1.5-.04-2.247-.093-.447-.03-.756-.52-.606-.94.395-1.107.74-2.234 1.58-3.13 1.994-2.112 3.604-4.52 5.194-6.942.53-.804 1.09-1.613 1.753-2.3 2.704-2.805 3.12-6.51 3.866-10.02.573-2.7.67-5.5.99-8.253.037-.315.137-.628.244-.927 1.438-3.98 3.63-7.573 6.34-10.735 2.97-3.467 6.918-5.808 11.25-7.215 3.76-1.227 7.71-1.835 11.658-2.123 3.31-.24 6.645-.188 9.97-.14 4.56.073 8.782 1.772 13.11 2.934.304.084.583.266.865.42 1.6.87 3.245 1.67 4.78 2.646 1.35.856 2.64 1.836 3.84 2.896 1.36 1.202 2.497 2.645 4.086 3.605.524.32.932.89 1.295 1.414 3.998 5.787 6.153 12.2 6.464 19.23.022.533.063 1.09-.052 1.6-.51 2.3-.826 4.646-1.826 6.813-2.733 5.938-5.467 11.87-8.813 17.5-1.707 2.87-3.51 5.633-5.99 7.91-1.28 1.172-2.247 2.586-2.916 4.19-.25.6-.413 1.26.017 1.833.477.64 1.12.428 1.75.22.334-.11.683-.18 1.03-.256l.116-.14c.08-.035.165-.068.24-.116.048-.03.08-.08.116-.123l-.26.33c-.07.02-.142.034-.21.05-.647.768-1.32 1.515-1.924 2.315-.647.86-1.178 1.788-1.178 2.93.002.646.602 1.245 1.246 1.14.42-.066.843-.155 1.242-.3.5-.18.975-.447 1.48-.62.13-.048.41.063.483.186.094.16.144.464.05.598-.295.43-.62.862-1.017 1.197-1.11.94-1.742 2.155-2.13 3.513-.232.808.628 1.813 1.46 1.694.515-.075 1.003-.346 1.507-.498.57-.172 1.03.077 1.242.665.258.72.463 1.424-.123 2.115-.34.403-.65.844-.89 1.313-.308.593-.04 1.42.657 1.52 1.074.156 1.365.86 1.69 1.668.114.285.315.598.564.748.47.283 2.29-.7 2.316-1.23.077-1.927.02-3.865.213-5.78.16-1.614.29-3.18-.07-4.788-.183-.825-.14-1.71-.144-2.564-.004-2.682.073-5.365.01-8.046-.042-1.918.618-3.496 1.647-5.088 2.037-3.147 3.986-6.357 5.784-9.643 1.646-3.005 3.027-6.156 4.555-9.225 1.68-3.383 2.725-6.97 3.424-10.662.15-.832.085-1.717.01-2.562zm-38.552.054c-2.127-.648-2.315-2.187-2.09-4.04.198-1.592.306-3.197.39-4.8.057-1.053.01-2.117.007-3.174.992-.766 2.293-.403 3.356-.915.096-.04.203-.057.304-.1.79-.326 1.26-1.176 1.198-2.083-.088-1.296-.757-2.245-1.84-2.846-.736-.41-1.585-.613-2.387-.903-.57-.206-.866-.636-.88-1.21-.04-1.393-.024-2.788-.04-4.183-.007-.535-.012-1.073-.076-1.602-.016-.135-.268-.35-.394-.338-.178.017-.41.17-.504.33-.76 1.34-1.008 2.815-1.064 4.323-.037.98-.192 1.92-.614 2.805-.296.622-.768 1.018-1.458 1.116-.47.064-.893-.098-1.028-.555-.15-.506-.203-1.05-.22-1.578-.037-1.288.046-2.58-.068-3.86-.083-.94-.384-1.86-.636-2.78-.038-.135-.352-.26-.54-.266-.143-.005-.41.18-.42.3-.244 2.45-.534 4.9-.644 7.36-.06 1.24-.623 1.966-1.596 2.574-1.54.964-3.13 1.88-4.557 2.998-2.52 1.975-3.66 4.672-3.69 7.86-.013.8.277 1.438.777 2.044 1.184 1.434 2.74 2.385 4.245 3.41 1.058.72 2.374 1.246 3.106 2.212.868 1.146.013 2.69.117 3.584 0 1.337.04 2.195-.008 3.05-.083 1.5-.275 2.984-.898 4.374-.308.686-.828 1.01-1.526.917-.635-.08-1.26-.327-1.89-.337-1.062-.02-2.16-.06-3.182.17-1.963.45-2.464 2.164-1.114 3.663.414.46 1.003.852 1.59 1.037 1.012.32 2.082.472 3.135.667 1.03.188 2.296-.276 3.03.677.68.884.258 2.076.323 3.133.06.972.143 1.938.706 2.764.15.224.49.37.767.433.12.03.375-.203.46-.37.494-.978.683-2.028.69-3.116.006-1.085.225-2.128.67-3.12.29-.642 1.16-1.03 1.907-.827.634.174.708.715.723 1.266.015.532-.064 1.087.043 1.603.22 1.035.518 2.053.83 3.068.042.132.338.204.532.265.056.014.192-.097.23-.178.238-.472.545-.94.662-1.444.286-1.25.61-2.512.677-3.787.078-1.445.524-2.45 2.022-2.822.405-.102.768-.37 1.14-.58 1.986-1.116 3.046-2.815 3.615-5.034 1.008-3.936-.262-7.16-2.682-10.123-.33-.404-.742-.88-1.205-1.023zm-10.46-5.515c-.205 1.586-.42 1.732-1.666 1.016-.277-.16-.563-.307-.82-.492-1.686-1.205-1.836-2.065-.588-3.694.523-.675 1.094-1.323 1.724-1.893.263-.244.81-.447 1.092-.334.32.132.542.615.712.987.128.277.1.623.123.794-.208 1.3-.42 2.46-.573 3.62zm4.38 17.64c-.077.69-.522 1.12-1.217 1.3-.606.156-1.125-.13-1.152-.686-.01-.215-.024-.427-.007-.64.216-2.746.427-5.493.686-8.238.02-.224.353-.565.57-.587.25-.028.642.174.77.392.254.446.472.96.53 1.465.115 1.052.115 2.118.156 3.006-.117 1.446-.186 2.72-.333 3.984zm.49-16.187c-.04.4-.28.78-.44 1.17-.1.24-.68.29-.8.058-.186-.37-.463-.747-.485-1.133-.147-2.67.075-5.312.693-7.917.023-.09.112-.192.195-.235.17-.09.37-.21.538-.19.167.02.436.197.447.32.083 1.158.123 2.32.18 3.663-.095 1.303-.175 2.788-.324 4.267zm4.518 14.186c-.112.233-.496.328-.757.484-.095-.186-.26-.37-.27-.56-.042-.86-.06-1.717-.057-2.573.008-1.318.177-1.728.58-1.48.62.38.765.994.848 1.635.044.318.044.643.074 1.147-.096.34-.18.88-.414 1.346z"/></svg>