<svg xmlns="http://www.w3.org/2000/svg" width="128" height="128" viewBox="0 0 128 128"><path d="M113.57 49.483c-.432-1.472-.377-2.97-.532-4.46-.21-2.02-.402-4.057-.825-6.04-.562-2.635-1.506-5.184-3.168-7.328-1.645-2.126-2.997-4.432-4.476-6.66-1.367-2.064-2.858-4.065-4.75-5.633-2.054-1.707-4.19-3.37-6.632-4.523-2.71-1.28-5.45-2.506-8.204-3.678-2.683-1.14-5.468-1.88-8.416-1.882-.53 0-1.058-.145-1.59-.176-1.17-.068-2.37-.288-3.51-.123-2.456.357-4.913.38-7.377.35-2.17-.03-4.287.26-6.34.903-4.4 1.38-8.71 3.012-12.85 5.04-3.403 1.664-6.42 3.908-8.925 6.758-6.413 7.29-9.31 15.804-8.38 25.49.18 1.866-.096 3.4-1.22 4.78-2.507 3.067-4.31 6.67-7.19 9.452-1.35 1.313-2.036 3.032-2.56 4.776-.89 2.965.982 6.347 4.532 6.15 1.068-.06 2.14-.064 3.214-.092 1.47-.037 1.985.24 2.49 1.515.274.686.528 1.427.56 2.155.07 1.632.5 3.187 1.01 4.695 1.355 3.99 1.852 8.124 2.3 12.276.335 3.112 1.104 6.08 2.613 8.87.915 1.692 2.172 2.603 4.053 2.627 3.1.038 6.226.3 9.215-.875.3-.117.62-.192.934-.235.925-.125 1.948.44 2.36 1.312.27.58.445 1.205.748 1.766 1.273 2.356 2.54 4.717 3.888 7.027.917 1.568 1.946 3.075 2.997 4.558.204.286.735.38 1.135.48.427.107.928-.376.81-.745-.756-2.337-1.44-4.707-2.305-7.007-1.018-2.705-2.2-5.347-3.293-8.026-.282-.69-.512-1.406-.712-2.125-.16-.573.046-1.042.57-1.355.645-.384 1.337-.715 1.916-1.18.57-.46 1.073-1.025 1.518-1.612.505-.665.013-1.483-.858-1.58-1.118-.116-2.103.172-3.05.763-1.644 1.026-3.46 1.685-5.238 2.436-1.764.747-3.567 1.355-5.37 1.987-1.774.625-3.35.244-4.984-.354-1.11-.405-1.785-1.144-2.01-2.298-.125-.632-.32-1.255-.364-1.89-.14-2.048-.683-4.006-1.17-5.98-.306-1.25-.602-2.497-.86-3.756-.16-.782.197-1.243 1.02-1.215 2.504.093 4.902-.386 7.243-1.212.6-.208 1.186-.475 1.743-.783.57-.315.95-1.035.702-1.28-.277-.277-.67-.574-1.035-.608-1.063-.096-2.14-.11-3.208-.072-1.932.068-3.86.2-5.787.304-1.675.09-1.707.094-2.027-1.585-.26-1.36-.402-2.75-.656-4.11s-.5-2.736-.896-4.065c-.642-2.147-1.447-2.703-3.725-2.752-1.397-.026-2.79.018-4.186-.01-1.49-.03-1.853-.647-1.268-2.075.412-1.003.93-1.927 1.728-2.684 1.335-1.267 2.322-2.8 3.337-4.317.892-1.333 1.757-2.72 2.85-3.88 2.74-2.912 3.483-6.624 4.043-10.296.4-2.634.868-5.274 1.138-7.935.065-.635.197-1.278.42-1.874 1.358-3.653 3.413-6.952 5.856-9.93 2.983-3.637 6.987-5.947 11.403-7.522.298-.11.612-.18.923-.267 6.47-1.742 13.065-2.252 19.74-2.105 2.38.05 4.716.36 6.988.962 3.817 1.013 7.628 2.002 11.094 4.102 2.496 1.507 4.92 3.02 6.933 5.145.66.695 1.368 1.384 2.165 1.904.936.605 1.606 1.396 2.187 2.307 2.67 4.196 4.628 8.648 5.537 13.594.84 4.57.547 8.958-1.124 13.256-.58 1.495-1.265 2.955-1.96 4.405-.975 2.028-2.016 4.025-3.01 6.04-2.89 5.88-5.89 11.677-10.78 16.233-1.202 1.12-1.954 2.54-2.296 4.164-.146.697.173 1.203.953 1.365.38.08.774.09 1.165.124l.036-.066.144-.06.165-.332c.063.06.13.117.195.178l-.363.153c-.02.045-.047.09-.068.134l-.11-.008c-.182.34-.364.685-.556 1.02-.53.93-1.086 1.84-1.59 2.78-.263.49-.292 1.027.075 1.51.467.61 1.117.587 1.75.42.717-.19 1.404-.486 2.118-.678.14-.034.357.17.515.3.043.03.032.215-.02.278-.332.413-.643.848-1.032 1.198-1.076.96-1.713 2.187-2.196 3.506-.277.773.533 1.875 1.352 1.755.623-.09 1.216-.38 1.83-.552.474-.13.847.052.995.53.32 1.023.703 2.066-.474 2.858-.17.115-.288.318-.41.495-.486.725-.32 1.49.607 1.762.953.284 1.45.775 1.698 1.692.07.27.34.56.598.69.715.367 2.458-.61 2.464-1.39.03-3.433.038-6.866.036-10.296 0-3.967-.004-7.938-.035-11.907-.01-1.23.346-2.275 1.084-3.277 1.012-1.376 1.895-2.85 2.81-4.3 3.103-4.908 5.388-10.24 8.033-15.387 1.73-3.37 2.585-7.02 3.467-10.66.17-.7.168-1.53-.032-2.218zM82.54 26.07c.273-.415.138-1.106-.32-1.427-.513-.363-1.057-.757-1.647-.93-2.046-.607-4.1-1.22-6.187-1.65-2.09-.426-4.222-.637-6.923-1.028-.24-.02-.888.293-1.276 1.024-.397.755-.753 1.536-1.088 2.323-1.515 3.54-3.208 6.987-5.453 10.14-.806 1.134-1.557 2.307-2.28 3.494-.596.977-.357 1.506.816 1.91 1.11.38 2.24.706 3.35 1.084.522.18.602.446.263.985-.964 1.54-1.956 3.067-2.93 4.6-.748 1.172-1.5 2.338-2.215 3.53-.337.563-.197 1.022.39 1.328.85.446 1.733.832 2.594 1.26.614.303.883.98.648 1.614-.112.3-.26.587-.402.868-1.138 2.302-2.292 4.597-3.42 6.904-.562 1.15-1.1 2.32-1.615 3.495-.302.688.15 1.325.83 1.314 1.166-.02 2.022-.69 2.837-1.366 1.888-1.572 3.74-3.195 5.574-4.832 1.12-.996 2.1-2.16 3.285-3.067 3.59-2.748 6.658-6.035 9.818-9.23.602-.61 1.244-1.183 1.79-1.838.747-.89.402-1.95-.672-2.258l-3.378-.958c.313-1.316 1.57-1.87 2.315-2.84 1.498-1.95 3.117-3.81 4.546-5.81 1.19-1.67 1.332-2.147-1.05-2.757-.1-.024-.204-.064-.3-.107-1.38-.605-1.298-.844-.604-1.804.936-1.3 1.817-2.638 2.704-3.976zm-4.44 1.983c-.86 1.09-1.74 2.165-2.606 3.25-.267.336-.516.684-.757 1.036-.307.45-.067 1.054.504 1.272.3.112.604.235.916.282 2.046.315 1.925 1.003.636 2.427-2.156 2.375-4.244 4.81-6.332 7.248-.76.887-.55 1.487.604 1.85.816.253 1.656.43 2.478.66.853.24 1.013.784.39 1.365-1.8 1.672-3.614 3.33-5.413 5.003-1.176 1.094-2.337 2.203-3.505 3.303-.157.144-.336.267-.5.395-.074-.072-.176-.132-.212-.218s-.03-.213.007-.3c.36-.775.776-1.524 1.085-2.316.38-.974.032-1.674-.904-2.024-.2-.072-.412-.114-.612-.186-2.208-.786-3.1-.5-1.028-3.41.994-1.392 1.92-2.83 2.854-4.266.35-.536.692-1.09.93-1.675.46-1.15.04-2.125-1.075-2.647-.96-.453-1.937-.875-2.885-1.355-.334-.172-.417-.854-.197-1.148 2.485-3.34 4.913-6.712 7.12-10.236.33-.523.722-.8 1.302-.693 2.3.435 4.6.894 6.9 1.36.42.083.592.66.308 1.02z"/></svg>