<svg xmlns="http://www.w3.org/2000/svg" width="128" height="128" viewBox="0 0 128 128"><path d="M113.63 49.813c-.505-1.79-.374-3.622-.615-5.42-.324-2.435-.736-4.868-1.3-7.26-.466-1.994-1.482-3.786-2.623-5.487-1.312-1.955-2.78-3.82-3.97-5.845-2.573-4.373-6.187-7.633-10.477-10.212-3.69-2.22-7.677-3.806-11.718-5.227-2.22-.78-4.53-1.274-6.92-1.256-4.29.036-8.577.024-12.868.068-.74.01-1.487.163-2.217.318-5.698 1.195-11.06 3.344-16.27 5.88-2.314 1.126-4.42 2.618-6.34 4.366-4.55 4.14-7.743 9.1-9.484 15.032-1.29 4.395-1.804 8.817-1.104 13.338.143.922.043 1.707-.348 2.464-.443.853-.98 1.66-1.53 2.45-.795 1.144-1.65 2.245-2.458 3.383-1.175 1.663-2.277 3.368-3.784 4.78-1.442 1.355-2.24 3.153-2.887 4.97-1.045 2.93.71 6.514 4.444 6.604 1.06.02 2.147-.032 3.184-.243 1.023-.202 1.754.19 2.175.954.45.82.834 1.784.893 2.706.104 1.632.477 3.204.996 4.702 1.38 3.987 1.835 8.128 2.334 12.273.387 3.212 1.14 6.3 2.752 9.166.757 1.348 1.723 2.155 3.275 2.183 3.206.06 6.43.415 9.566-.643.495-.168 1.06-.15 1.593-.166.95-.03 1.648.367 2.02 1.275.242.593.42 1.234.78 1.745 1.487 2.117 2.544 4.466 3.772 6.726.866 1.597 1.9 3.103 2.93 4.603.202.29.71.42 1.105.52.638.155 1.106-.31.927-.874-1.536-4.796-3.175-9.55-5.296-14.13-.356-.772-.667-1.578-.913-2.393-.3-.986-.156-1.34.73-1.856 1.117-.644 2.284-1.228 3.045-2.314.23-.325.502-.93.364-1.133-.277-.39-.824-.806-1.27-.82-.718-.018-1.535.118-2.154.47-2.336 1.333-4.77 2.428-7.312 3.29-1.338 1.288-3.195 1.132-4.8 1.636-.95.293-2.123.03-3.157-.17-2.058-.394-3.178-1.79-3.31-3.816-.195-3.027-1.134-5.886-1.75-8.815-.134-.628-.28-1.253-.373-1.887-.09-.625.26-1.058.862-1.088.75-.04 1.5-.055 2.25-.064 2.182-.026 4.233-.64 6.23-1.44.47-.193.874-.577 1.277-.915.323-.27.234-.916-.154-1.082-.483-.203-.994-.49-1.493-.49-1.28 0-2.562.11-3.84.22-7.496.657-5.876 1.395-7.103-5.228-.33-1.778-.793-3.534-1.27-5.28-.28-1.027-1.127-1.552-2.114-1.77-.622-.132-1.276-.14-1.916-.154-1.18-.02-2.363.017-3.54-.006-1.426-.026-1.772-.523-1.274-1.754.405-1.003.996-1.873 1.68-2.72 1.35-1.66 2.598-3.405 3.873-5.126.895-1.205 1.66-2.528 2.67-3.62 2.56-2.766 2.965-6.335 3.853-9.73-.078-2.817.784-5.506 1.105-8.27.064-.526.173-1.057.343-1.562 1.337-3.915 3.798-7.175 6.156-10.496.304-.43.736-.78 1.14-1.128 3.625-3.104 7.57-5.62 12.344-6.56 1.36-.27 2.72-.576 4.09-.78 1.906-.285 3.83-.45 5.735-.74 4.498-.688 9.007-.672 13.436.284 4.38.945 8.816 1.845 12.673 4.366.267.17.572.288.862.427 2.25 1.085 4.184 2.59 5.947 4.347.903.903 1.93 1.682 2.866 2.556.698.656 1.46 1.29 1.98 2.08 1.828 2.784 3.387 5.71 4.44 8.893 2.358 7.117 2.395 14.096-1.13 20.895-.79 1.523-1.557 3.056-2.307 4.598-1.776 3.66-3.534 7.32-5.675 10.797-1.756 2.845-3.58 5.584-6.072 7.85-1.376 1.25-2.26 2.845-2.798 4.624-.194.64.254 1.313.955 1.354.58.035 1.165.003 1.748-.01l.08-.095c.077-.037.158-.068.23-.11l.122-.183c-.027.055-.04.13-.083.163-.01.007-.026.01-.037.017l-.135.2c-.06 0-.117.004-.175.005-.512.625-1.018 1.26-1.55 1.87-.73.836-1.078 1.848-1.354 2.886-.23.864.72 1.694 1.59 1.39.81-.28 1.588-.645 2.395-.93.155-.054.514.058.544.163.08.26.135.633.004.83-.23.345-.656.556-.91.893-.7.935-1.372 1.892-2.015 2.868-.373.575-.466 1.2.055 1.77.487.535 1.12.6 1.77.44.41-.104.788-.334 1.194-.463.485-.15.812.043.95.54.288 1.04.63 2.072-.504 2.88-.245.177-.392.505-.557.778-.264.445-.07 1.27.416 1.355 1.22.213 1.853.882 2.115 2.066.097.433.575.592 1.046.533 1.458-.178 1.952-.64 1.967-1.988.032-3.116.043-6.227.037-9.338-.006-3.968 0-7.94-.068-11.91-.027-1.586.485-2.895 1.434-4.145 2.403-3.17 4.18-6.73 6.095-10.198 1.19-2.147 2.035-4.49 3.206-6.645 2.165-3.995 3.656-8.213 4.562-12.646.147-.72.31-1.534.12-2.21zm-22.142 3.05v.057c.43 0 .86.002 1.287-.002 1.287-.01 2.575.015 3.86-.053.975-.05 1.657-.66 1.676-1.62.066-2.57.057-5.142.018-7.715-.01-.712-.56-1.18-1.21-1.342-.613-.15-1.273-.107-1.91-.155-1.043-.083-1.266-.3-1.355-1.383-.045-.533-.055-1.07-.064-1.604-.014-.747.03-1.5-.02-2.244-.05-.625-.634-1.235-1.235-1.32-.632-.09-1.278-.14-1.918-.132-1.93.028-3.86.072-5.79.155-1.067.048-2.16.066-3.19.32-1.582.39-3.167.5-4.782.497-1.927-.003-3.842.103-5.766.34-3.76.465-2.707.444-3.428-2.823-.12-.55.325-1.023.927-1.07 1.922-.15 3.85-.244 5.765-.436 1.764-.18 2.528-.944 2.598-2.654.08-1.926.084-3.86.033-5.79-.047-1.73-.725-2.47-2.456-2.88-.413-.097-.843-.172-1.267-.175-3.537-.004-7.08.01-10.586.55-1.047.164-2.072.527-3.08.887-.747.262-1.284.798-1.283 1.666 0 2.352.02 4.706.044 7.06.006.562.295.966.743 1.342 1.068.885 2.17 1.36 3.537.715.188-.09.414-.107.625-.14.405-.063.944.283.95.643.02 1.07.025 2.142-.006 3.21-.004.16-.21.377-.373.453-.286.127-.606.205-.916.23-2.663.223-5.33.39-7.99.658-1.164.117-2.314.413-3.464.658-.666.142-1.195.553-1.444 1.17-.32.787-.588 1.606-.748 2.437-.123.623-.063 1.283-.048 1.928.027 1.22-.18 1.59-1.626 1.97-.614.16-1.273.16-1.91.23-.532.058-1.076.063-1.595.177-.817.184-1.642 1.133-1.55 1.835.25 1.906.613 3.8.816 5.708.122 1.152.72 1.988 1.396 2.824.59.732 1.355 1.123 2.26.9 2.422-.595 4.897-.51 7.35-.69 1.06-.08 2.123-.3 3.157-.56 1.117-.284 1.838-1.024 2.136-2.176.62-2.407.82-4.855.724-7.328-.035-.994-.577-1.615-1.565-1.728-1.276-.145-2.57-.31-3.846-.248-3.403.162-2.938-.224-2.935-3.29 0-.87.272-1.166 1.11-1.227 3.95-.285 7.9-.54 11.85-.826.957-.07 1.92-.16 2.864-.325 2.286-.403 3.016.288 2.58 2.58-.25 1.316-.61 1.578-2.16 1.782-.528.07-1.053.163-1.58.256-1.835.318-2.72 1.566-3.125 3.247-.103.412-.11.852-.11 1.28 0 1.61-.02 3.217.034 4.825.053 1.585.82 2.368 2.368 2.45 3.1.162 6.174-.702 9.288-.22.512.078 1.064-.078 1.596-.145 1.93-.242 2.715-.99 2.77-2.863.062-2.037.007-4.078-.007-6.115-.005-.32-.04-.644-.106-.956-.29-1.424-.992-1.973-2.48-1.947-.965.015-1.928.077-2.892.075-.493 0-.786-.317-.79-.81-.004-.967 0-1.932.056-2.894.027-.47.38-.76.846-.79.53-.035 1.067.025 1.603.015 1.604-.032 3.25.125 4.802-.184 1.49-.292 2.964-.397 4.46-.482 1.602-.097 3.21-.13 4.813-.24.586-.04.767.292.783.724.027.747.002 1.502-.07 2.248-.047.446-.352.813-.814.877-.844.12-1.705.13-2.55.247-1.278.176-2.093.97-2.36 2.276-.212 1.05-.44 2.1-.56 3.16-.104.955-.148 1.93-.067 2.885.094 1.112 1.016 1.98 2.144 2.022 1.71.06 3.427.014 5.145.014zM53.44 49.05c.945-.16 1.894-.284 2.84-.42.42-.06.78.29.765.773-.02.748.006 1.507-.128 2.235-.285 1.508-.52 1.867-2.067 1.792-1.17-.06-2.344-.013-3.518-.013v.046c-1.385.056-2.77.14-4.155.147-.267.004-.7-.224-.773-.44-.273-.798-.444-1.632-.6-2.464-.02-.11.245-.373.405-.405 2.407-.434 4.816-.85 7.23-1.25zm9.86-18.372c-.545.17-1.12-.252-1.105-.785.027-1.057.1-2.117.17-3.178.033-.5.388-.712.836-.79.21-.038.424-.044.637-.05 2.867-.045 5.732-.045 8.56-.682.94-.213 1.32.197 1.354 1.216.014.32.003.64.003.957h-.017c0 .424.02.85-.004 1.275-.03.624-.378.99-.96 1.05-.21.02-.42.036-.635.033-2.982-.03-5.95.05-8.832.954zm12.13 16.687c.285.015.707.518.772.85.14.725.11 1.485.11 2.23.003 1.727-.152 1.884-1.75 1.88-1.174-.005-2.348 0-3.52 0v.08c-1.172 0-2.345.003-3.518-.005-.81-.006-1.242-.373-1.235-1.106.004-.74.033-1.49.133-2.227.135-1.006.422-1.3 1.368-1.488 2.53-.505 5.09-.353 7.64-.218zm12.26 1.856c-.38-.893-.412-1.877.103-2.733.18-.3.702-.512 1.088-.544 1.27-.11 2.544-.142 3.82-.17 2.703-.065 2.703.065 2.33 3.003-.037.3-.516.736-.822.763-1.052.095-2.118.04-3.18.04v.08c-.637 0-1.276.016-1.91 0-.52-.015-1.188.12-1.426-.438z"/></svg>