<svg xmlns="http://www.w3.org/2000/svg" width="128" height="128" viewBox="0 0 128 128"><path d="M112.563 49.36c-.34-2.226-.494-4.473-.736-6.71-.44-3.99-1.504-7.778-3.763-11.155-1.547-2.317-3.016-4.693-4.683-6.918-1.406-1.882-2.85-3.823-4.627-5.318-2.617-2.2-5.445-4.188-8.633-5.55-2.366-1.004-4.71-2.07-7.122-2.954-2.613-.954-5.295-1.68-8.14-1.63-3.75.068-7.502.09-11.252.043-2.283-.033-4.475.41-6.635 1.03-4.23 1.21-8.305 2.84-12.286 4.705-2.933 1.376-5.59 3.16-7.968 5.373-5.387 5.008-8.43 11.277-9.82 18.396-.367 1.882-.463 3.827-.534 5.75-.037 1.055.195 2.127.374 3.183.253 1.45-.062 2.766-.84 3.984-.403.63-.84 1.24-1.284 1.846-.885 1.21-1.835 2.376-2.67 3.62-1.016 1.517-2.05 3.002-3.363 4.29-1.577 1.548-2.407 3.526-3.03 5.597-.12.405-.258.864-.178 1.257.488 2.417 1.583 4.286 4.245 4.54 1.263.12 2.56-.06 3.838-.15 1.173-.08 1.895.217 2.3 1.263.382.99.74 2.03.853 3.074.205 1.942.8 3.766 1.347 5.614.333 1.126.62 2.273.81 3.43.447 2.747.926 5.49 1.196 8.253.288 2.948 1.253 5.617 2.626 8.203.734 1.384 1.754 2.098 3.31 2.11 3.204.02 6.43.404 9.564-.666.49-.168 1.06-.175 1.59-.166.786.013 1.423.284 1.827 1.064 1.677 3.23 3.346 6.464 5.117 9.643.78 1.39 1.758 2.675 2.737 3.937.186.236.82.257 1.2.174.484-.11.55-.583.415-1.03-.893-2.97-1.762-5.95-3.017-8.8-.864-1.96-1.816-3.895-2.496-5.92-.938-2.795-1.583-2.427 1.16-4.002.464-.263.926-.56 1.308-.93.378-.37.675-.82.958-1.272.343-.548-.092-1.397-.743-1.475-.31-.042-.66-.106-.937-.003-1.1.408-2.18.863-3.26 1.326-1.573.67-3.21 1.235-4.692 2.067-1.608.9-3.307 1.4-5.063 1.85-1.52.388-2.91.222-4.4-.218-1.727-.512-2.495-1.666-2.612-3.257-.16-2.158-.735-4.213-1.212-6.296-.31-1.356-.6-2.717-.864-4.083-.317-1.664-.234-1.75 1.54-1.824.855-.036 1.713-.058 2.57-.113 1.73-.114 3.373-.614 4.94-1.316.56-.25 1.03-.732 1.488-1.16.235-.216.297-.6-.08-.765-.58-.257-1.19-.605-1.792-.607-1.387-.002-2.77.196-4.156.284-1.603.105-3.208.186-4.81.26-.483.02-.822-.242-.93-.706-.24-1.04-.455-2.087-.655-3.135-.34-1.784-.58-3.597-1.014-5.36-.742-3.01-1.42-3.5-4.427-3.55-.86-.016-1.718-.012-2.577.012-3.502.094-2.993-.496-1.795-2.948.323-.66.868-1.214 1.323-1.804 1.11-1.446 2.24-2.87 3.33-4.33.895-1.2 1.607-2.572 2.64-3.632 2.805-2.875 3.21-6.686 4.27-10.25-.287-2.817 1.046-5.45.943-8.25-.01-.312.047-.66.18-.938 1.115-2.304 1.753-4.85 3.468-6.86.55-.647.943-1.432 1.43-2.136.49-.7.94-1.445 1.525-2.063 3.627-3.82 8.002-6.395 13.11-7.724 4.48-1.163 9.072-1.563 13.66-1.9 3.53-.263 7.1-.22 10.552.7 4.22 1.124 8.632 1.752 12.31 4.4.26.185.562.314.852.455 2.34 1.136 4.386 2.666 6.164 4.566.66.7 1.334 1.433 2.13 1.947 1.22.788 2.01 1.903 2.79 3.06 4.395 6.5 5.74 13.753 5.28 21.442-.045.736-.22 1.488-.448 2.197-.5 1.52-.926 3.1-1.647 4.52-2.284 4.48-4.21 9.14-6.73 13.507-2.303 4.002-4.58 7.992-8.084 11.123-1.22 1.092-1.928 2.556-2.398 4.118-.2.672.227 1.344.92 1.39.494.036.995-.022 1.492-.05.007-.03.02-.06.027-.092.082-.025.17-.04.25-.072l.156-.15c-.044.05-.078.116-.132.142-.006.003-.016.004-.022.007l-.168.156c-.037 0-.075.003-.11.005-.264 1.05-1.28 1.585-1.755 2.5-.452.867-.89 1.713-.754 2.736.08.598.878 1.18 1.435.974.802-.293 1.58-.66 2.38-.955.14-.054.42.06.524.186.106.135.177.46.095.56-.472.576-1 1.106-1.5 1.656-.808.885-1.42 1.875-1.637 3.077-.14.762.487 1.572 1.255 1.5.624-.06 1.234-.276 1.847-.43.625-.16.95.044 1.17.686.332.98.362 1.862-.496 2.645-.293.268-.466.708-.6 1.1-.148.448.065 1.037.447 1.06 1.228.078 1.56.893 1.92 1.837.125.32.586.677.925.717 1.1.125 1.974-.58 2.028-1.557.136-2.456.262-4.915.357-7.378.023-.637-.07-1.28-.128-1.92-.082-.958-.25-1.917-.256-2.875-.022-3.112.028-6.223.012-9.333-.007-1.34.31-2.555 1.13-3.61 1.787-2.3 3.108-4.878 4.566-7.376.7-1.202 1.424-2.394 2.043-3.64 1.145-2.3 2.13-4.682 3.343-6.943 2.044-3.808 3.445-7.827 4.3-12.053.19-.953.226-1.863.074-2.845zm-23.65 3.596c.74-.923 1.492-1.402 2.738-.84.79.352 1.78.285 2.416-.397 1.38-1.485 2.688-3.04 3.975-4.61.414-.5.167-1.22-.35-1.714-.656-.62-1.49-.795-2.3-1.074-1.23-.427-1.237-.523-1.137-1.816.075-.96.206-1.933.122-2.885-.15-1.647.328-2.714 2.123-2.893.2-.02.395-.155.584-.256.807-.434 1.168-1.232.913-2.16-.336-1.24-.704-2.47-1.09-3.695-.245-.783-.96-1.173-1.76-.983-.414.098-.81.265-1.218.395-.808.256-1.707.85-2.4.666-.688-.18-1.173-1.14-1.736-1.775-.427-.478-.83-.984-1.257-1.466-.497-.555-1.195-1.02-1.47-1.668-.378-.885.658-1.475.86-2.28.053-.207.122-.41.168-.618.136-.594-.14-1.41-.707-1.66-1.36-.606-2.738-1.2-4.155-1.654-.89-.286-1.74.087-2.2.92-.41.742-.647 1.574-.98 2.358-.226.53-.64.85-1.224.89-.642.045-1.285.055-1.927.093-.747.043-1.504.2-2.238.125-1.04-.1-.978-1.3-1.603-1.845-.162-.14-.288-.345-.472-.427-.284-.126-.638-.3-.904-.23-1.452.38-2.855.907-4.027 1.886-.832.695-1.192 1.762-.52 2.575 1.465 1.77.84 3.053-.597 4.34-.314.282-.525.675-.776 1.024-1.004 1.396-1.002 1.39-2.483.897-.5-.167-1.01-.347-1.533-.437-.56-.096-1.077.1-1.4.585-1.013 1.517-1.913 3.098-2.435 4.86-.32 1.075.083 1.83 1.182 2.27.497.2 1.008.362 1.518.524.61.193 1.217.404 1.84.552 1.085.254 1.665.853 1.622 2.022-.05 1.534.5 2.946.995 4.356.213.604.52 1.178.82 1.746.346.663.215 1.226-.286 1.743-.595.613-1.227 1.197-1.777 1.85-.365.436-.416 1.025-.107 1.51 1.054 1.652 2.477 2.947 4.147 3.95.913.55 1.797.357 2.663-.36.728-.597 1.07-1.824 2.138-1.79.922.03 1.826.51 2.738.794.513.157 1.014.363 1.537.456 1.04.186 1.402.853 1.444 1.813.023.533.03 1.077.13 1.597.195 1.013 1.165 1.67 2.135 1.47 1.15-.238 2.3-.483 3.44-.773 1.72-.434 2.137-.978 2.14-2.678 0-.218-.023-.43-.048-.833-.427-1.13.064-2.072 1.14-2.862.598-.437 1.127-1 1.594-1.583zm-2.028-3.123c-1.03 1.084-2.136 2.096-3.22 3.125-.51.48-.724 1-.5 1.717.19.605.288 1.248.366 1.883.215 1.76-.066 2.09-1.806 2.206-.8.053-1.287-.267-1.38-.992-.11-.847-.16-1.703-.225-2.555-.065-.864-.538-1.33-1.356-1.568-1.33-.39-2.648-.82-3.962-1.27-.895-.305-1.823-1.034-2.642-.916-.93.136-1.152 1.424-1.653 2.233-.283.448-.646.85-.994 1.257-.426.496-.884.523-1.382.11-.924-.77-1.04-1.287-.426-2.16.556-.79 1.125-1.57 1.722-2.324.31-.394.365-.707-.004-1.098-1.93-2.056-2.74-4.544-2.812-7.313-.017-.645-.035-1.286-.072-1.928-.075-1.325-.075-1.365-1.4-1.758-1.34-.395-2.67-.783-3.804-1.648-.413-.312-.523-.862-.26-1.43.486-1.042.97-1.292 2.015-1.017.62.16 1.23.353 1.85.506 1.42.355 2.51.026 3.134-1.432.207-.483.66-.853.902-1.325.582-1.13 1.75-1.89 2.008-3.218-.608-1.007-1.197-2.023-1.828-3.015-.292-.456-.158-.857.174-1.115.413-.325.913-.55 1.4-.757.42-.18.917-.117 1.152.27 1.3 2.144 3.268 2.517 5.534 2.195.316-.042.643-.016.963-.023 3.47-.096 2.642.435 3.783-3.002.1-.303.11-.648.266-.917.212-.384.564-.67 1.046-.555.41.094.815.235 1.198.41.528.237.836.628.716 1.258-.16.845-.302 1.687-.47 2.527-.223 1.137.035 2.056.958 2.857.883.768 1.646 1.672 2.427 2.55.64.714 1.232 1.475 1.846 2.215.847-.385 1.684-.797 2.547-1.14.49-.198 1.02-.387 1.533-.39.356-.004.866.227 1.037.514.25.422.293.986.347 1.495.014.14-.22.372-.39.453-.285.14-.635.146-.917.288-2.942 1.49-2.94 1.494-3.046 4.85-.037 1.18-.02 2.36-.11 3.53-.077.978.134 1.56 1.2 1.894.883.275 1.65.94 2.443 1.467.102.065.145.446.06.548-.622.73-1.27 1.436-1.942 2.118-.127.132-.39.13-.653.21-.256-.06-.565-.134-.877-.19-.835-.157-1.668-.34-2.51-.445-.794-.1-1.416.22-1.983.818zm-24.867 6.46c-.094-.865-.555-1.196-1.54-1.17-1.37.043-1.355.043-1.55-.928-.28-1.393-.433-2.733.844-3.785.23-.19.445-.53.464-.82.034-.504.1-1.186-.178-1.5-.92-1.023-1.96-1.96-3.032-2.832-.22-.18-.81-.02-1.173.128-.267.107-.49.416-.646.685-1.355 2.295-1.82 1.8-3.684 1.7-.747-.037-1.496.02-2.245.03-1.16.02-1.496-.234-1.743-1.388-.11-.52-.12-1.064-.24-1.58-.108-.477-.525-.747-.955-.644-1.138.273-2.28.58-3.37 1.003-.946.368-1.267 1.077-1.12 2.06.045.31.174.614.26.923.218.796.033 1.46-.6 2.02-.998.88-1.615 1.982-1.877 3.286-.128.64-.608.812-1.184.83-.535.013-1.103-.08-1.586.077-.326.11-.76.584-.752.883.027.954.22 1.903.384 2.85.314 1.784.825 2.205 2.79 2.414.41.043.992.025 1.184.275.58.75 1.046 1.602 1.47 2.454.11.22-.036.608-.155.885-.252.586-.606 1.13-.836 1.725-.25.642-.116 1.28.316 1.81.267.33.587.632.928.885 1.116.83 2.205.733 2.99-.466.678-1.038 1.424-1.434 2.658-1.22.933.16 1.946.22 2.866.04.97-.193 1.57.03 2.254.714 1.122 1.118 2.03 1.112 3.02.096.583-.603 1.308-1.266 1.473-2.01.13-.587-.512-1.333-.797-2.016-.587-1.41.555-3.083 2.11-3.093.748-.003 1.503.047 2.243-.038.574-.066.956-.514 1.036-1.082.075-.523.016-1.067.016-1.6h.062c-.034-.53-.045-1.07-.102-1.602zm-6.92-1.663c-.14 2.635-1.08 4.994-2.698 7.06-1.01 1.29-2.41 1.727-4.01 1.44-3.312-.588-6.092-4.658-5.448-7.914.267-1.357 1-2.29 2.24-2.923 1.488-.764 3.068-.843 4.704-.987 1.145.205 2.325.3 3.428.643 1.352.42 1.86 1.272 1.785 2.68zm-8.74-28.586c-.498.18-1.02.37-1.43.69-.295.232-.51.654-.602 1.032-.11.433.42.768 1.167.796.21.01.43-.006.636-.05.7-.15 1.17.047 1.6.683.59.877 1.363 1.625 2.003 2.473.312.41.55.894.718 1.38.17.495.126 1.08.356 1.537.154.303.602.547.96.62.178.037.558-.327.65-.58.142-.385.086-.837.157-1.252.05-.302.072-.717.27-.866.587-.446 1.244-.806 1.9-1.152.138-.07.406.04.58.128.47.24.9.608 1.396.742.355.1.842-.01 1.183-.192.476-.256.314-.75.126-1.126-.19-.38-.495-.695-.713-1.058-.727-1.223-.37-2.288.89-2.76.693-.26 1.397-.514 2.046-.866.213-.114.38-.55.348-.813-.03-.266-.287-.63-.53-.72-.48-.175-1.02-.19-1.263-.23-.496.078-.704.126-.917.14-1.446.08-2.162-.7-1.962-2.137.072-.514.23-1.032.203-1.54-.013-.24-.332-.564-.585-.66-.245-.09-.66-.034-.86.13-.31.258-.587.63-.732 1.01-.448 1.17-1.483 1.062-2.408 1.163-.843.09-.955-.688-1.296-1.19-.116-.167-.27-.337-.45-.43-.17-.09-.417-.148-.59-.095-.17.06-.387.255-.417.42-.072.416-.153.87-.043 1.263.298 1.07-.27 1.848-.75 2.684-.376.658-1.06.612-1.643.827zm6.604-1.37c.624-.006 1.408.71 1.557 1.42.354 1.697-.973 3.547-2.69 3.72-.573.06-1.115-.12-1.385-.624-.292-.542-.437-1.163-.547-1.465.1-1.797 1.49-3.04 3.06-3.05zm24.69 11.13c-1.974.865-3.206 2.45-3.615 4.596-.075.407-.055.86.038 1.264.477 2.072 2.624 3.88 4.82 4.107 2.14.226 4.082-1.02 4.965-3.264.267-.683.33-1.444.378-1.653.165-4.064-3.27-6.5-6.586-5.048zm4.46 4.948c-.23 1.224-1.374 2-2.9 2.023-1.51.02-2.696-1.052-2.774-2.512-.064-1.14.702-2.155 1.988-2.603 1.15-.4 2.106.082 2.958.764.738.587.9 1.437.73 2.325zM51.657 28.3c.574.138 1.307-.434 1.347-1.06.038-.575-.666-1.268-1.233-1.215-.467.05-.98.6-1.005 1.088-.027.5.4 1.067.893 1.186z"/></svg>