<svg xmlns="http://www.w3.org/2000/svg" width="128" height="128" viewBox="0 0 128 128"><path d="M113.583 49.476c-.178-2.027-.48-4.043-.623-6.075-.173-2.48-.734-4.873-1.525-7.21-.552-1.62-1.31-3.152-2.34-4.56-1.33-1.81-2.683-3.625-3.807-5.566-2.955-5.092-7.26-8.697-12.395-11.347-2.755-1.42-5.628-2.632-8.51-3.78-2.395-.956-4.903-1.54-7.515-1.566-.637-.005-1.297-.034-1.903-.202-1.282-.363-2.558-.168-3.837-.096-1.493.09-2.993.36-4.477.293-4.365-.2-8.52.638-12.56 2.212-.5.196-1.01.36-1.504.57-2.56 1.087-5.205 2.02-7.667 3.306-9.73 5.076-15.116 13.31-17.046 23.96-.46 2.543-.712 5.097-.128 7.662.048.206.014.43.06.64.392 1.835-.27 3.37-1.346 4.79-.844 1.108-1.74 2.186-2.53 3.33-1.402 2.027-2.77 4.06-4.514 5.838-1.365 1.387-2.173 3.173-2.733 5.045-.864 2.896 1.06 5.806 4.02 6.002 1.174.077 2.356-.002 3.535-.027 1.805-.043 2.534.47 3.002 2.187.17.622.313 1.255.387 1.892.262 2.244.917 4.394 1.576 6.545.25.818.47 1.65.602 2.496.448 2.854.986 5.705 1.224 8.577.265 3.202 1.52 5.99 3.012 8.734.453.833 1.175 1.247 2.013 1.473.612.16 1.27.226 1.905.233 2.998.02 6.02.235 8.883-.97.195-.08.413-.116.623-.152 1.13-.18 2.087.31 2.624 1.397.28.57.456 1.198.757 1.758 1.168 2.165 2.323 4.34 3.57 6.464.973 1.658 2.06 3.25 3.128 4.853.163.245.48.448.768.53.27.072.61.007.878-.1.146-.062.273-.34.277-.524.008-.312-.053-.64-.144-.94-1.13-3.69-2.423-7.316-3.934-10.868-.755-1.77-1.428-3.576-2.147-5.362-.254-.627.008-.988.55-1.28.657-.357 1.34-.704 1.922-1.163.58-.46 1.12-1.01 1.536-1.614.193-.287.158-.828.035-1.188-.072-.216-.505-.38-.798-.43-1.237-.21-2.29.296-3.352.864-3.21 1.713-6.58 3.037-10.016 4.24-1.76.612-3.37.378-5.008-.144-1.448-.46-2.363-1.506-2.492-3.047-.252-3.01-1.02-5.9-1.77-8.8-.212-.83-.377-1.67-.554-2.51-.105-.51.136-.87.608-.9.642-.036 1.283-.058 1.928-.063 2.402-.007 4.636-.78 6.854-1.564.67-.24 1.412-.587 1.544-1.45.07-.46-.804-.913-1.856-.954-.747-.03-1.502-.022-2.25.02-2.142.125-4.29.21-6.417.448-1.11.123-1.29-.155-1.5-1.123-.2-.943-.377-1.89-.558-2.834-.323-1.68-.61-3.373-.97-5.047-.16-.724-.45-1.426-.727-2.117-.4-1.004-1.172-1.49-2.253-1.494-1.288-.005-2.574-.007-3.86-.028-.75-.012-1.5-.04-2.246-.093-.445-.033-.756-.52-.605-.94.394-1.11.74-2.236 1.58-3.13 1.993-2.114 3.603-4.523 5.193-6.944.527-.804 1.087-1.613 1.753-2.3 2.702-2.805 3.117-6.51 3.864-10.02.574-2.7.67-5.5.992-8.253.035-.315.135-.628.244-.927 1.435-3.98 3.627-7.573 6.336-10.735 2.97-3.466 6.918-5.807 11.25-7.214 3.76-1.227 7.712-1.835 11.66-2.123 3.31-.24 6.646-.188 9.97-.14 4.56.073 8.782 1.772 13.112 2.934.305.085.584.267.866.422 1.6.87 3.243 1.67 4.78 2.644 1.35.856 2.64 1.836 3.84 2.896 1.36 1.202 2.495 2.645 4.084 3.605.526.32.934.89 1.295 1.414 4 5.785 6.154 12.2 6.465 19.23.02.53.064 1.09-.05 1.6-.51 2.3-.827 4.644-1.825 6.81-2.734 5.94-5.468 11.87-8.815 17.5-1.707 2.87-3.51 5.634-5.99 7.908-1.283 1.173-2.25 2.587-2.917 4.192-.25.603-.414 1.26.016 1.832.474.64 1.12.43 1.747.22.335-.11.683-.178 1.03-.255l.117-.14c.08-.035.164-.068.24-.116.045-.03.075-.08.113-.122l-.263.33c-.07.02-.14.033-.21.05-.646.767-1.32 1.514-1.922 2.314-.647.862-1.177 1.79-1.175 2.93 0 .647.6 1.246 1.244 1.14.42-.065.843-.154 1.242-.298.504-.18.975-.45 1.48-.623.13-.046.41.065.483.185.094.163.142.466.05.598-.3.432-.622.864-1.017 1.2-1.11.938-1.744 2.154-2.133 3.508-.23.81.63 1.82 1.462 1.697.515-.075 1-.344 1.507-.495.57-.173 1.033.075 1.242.66.258.72.463 1.427-.12 2.118-.342.402-.652.843-.893 1.312-.307.59-.038 1.42.657 1.52 1.077.156 1.368.86 1.693 1.666.115.284.316.597.566.747.47.285 2.29-.697 2.315-1.227.077-1.928.023-3.866.213-5.78.16-1.615.29-3.18-.067-4.79-.184-.823-.143-1.707-.145-2.563-.003-2.682.074-5.365.01-8.046-.04-1.92.62-3.495 1.647-5.09 2.037-3.146 3.986-6.354 5.784-9.642 1.648-3.004 3.03-6.155 4.556-9.224 1.682-3.384 2.726-6.972 3.426-10.663.154-.83.086-1.716.014-2.56zM90.48 26.322c-.003-.763-.1-1.49-.71-2.054-.42-.386-.943-.693-1.44-.382-1.62 1.02-3.487 1.653-4.84 3.104-.798.857-1.675 1.643-2.513 2.46-1.353-.2-2.125-1.34-3.206-1.98-.18-.108-.33-.27-.502-.397-1.04-.785-2.2-1.235-3.477-1.554-3.342-.83-6.64-.11-9.876.382-2.82.434-5.568 1.48-8.224 2.64-5.295 2.31-8.797 6.314-10.956 11.58-.465 1.13-.178 1.917.832 2.413 1.45.712 2.98 1.19 4.605 1.28.674.036 1.233-.184 1.618-.816 1.096-1.796 2.6-3.073 4.664-3.67 2.668-.776 5.295-1.705 7.985-2.383 2.513-.636 5.084-.57 7.608.105 1.315.348 1.77 1.086 1.504 2.34-.065.308-.19.61-.3.908-.557 1.505-1.083 3.02-1.694 4.502-.304.736.062 1.54 1.008 1.51 1.17-.04 2.34-.155 3.5-.328 2.11-.32 4.215-.683 6.314-1.067 2.205-.405 4.407-.826 6.597-1.3 1.353-.292 1.918-1.124 1.892-2.555-.005-.323.017-.654-.053-.96-.638-2.75-.384-5.54-.333-8.32 0-1.82.005-3.64 0-5.46zM50.145 40.016c-.293.416-.765.304-1.1.06-.206-.15-.445-.56-.374-.724.24-.565.59-1.088.944-1.596.102-.15.35-.288.52-.275.11.01.25.29.288.467.062.302.053.62.09 1.167-.067.174-.146.59-.367.904zm36.717.495c-3.325.79-6.66 1.55-10.067 1.907-1.102.117-1.323-.254-.815-1.312.326-.672.703-1.32 1.046-1.984.526-1.034.448-1.924-.533-2.516-1.564-.94-2.733-1.98-2.38-4.023.063-.345-.684-.69-1.01-.49-.354.22-.695.47-1 .753-.305.286-.556.63-.828.946-.11-.488-.233-.97-.33-1.46-.082-.416-.106-.84-.21-1.25-.127-.506-.9-.693-1.31-.39-.648.47-.99 1.1-1.12 1.872-.02.147-.17.268-.26.4-.064-.2-.117-.4-.19-.598-.107-.297-.186-.616-.346-.882-.367-.605-1.268-.65-1.6-.09-.22.364-.415.746-.578 1.138-.74 1.76-.743 1.762-2.22.467-.57-.504-1.14-.392-1.543.33-.204.364-.345.764-.537 1.134-.032.06-.213.105-.282.068-.17-.09-.443-.23-.443-.348 0-.417.17-.838.14-1.25-.048-.685-.933-1.09-1.433-.644-.61.544-1.065 1.242-2.098.87-.206-.072-.76.405-.934.742-.338.654-.507 1.397-.782 2.085-.068.178-.255.352-.43.43-.45.194-.468-.208-.562-.475-.035-.1 0-.235-.053-.315-.288-.43-.875-.888-.826-1.263.107-.795.97-1.07 1.616-1.397 4.047-2.046 8.28-3.445 12.867-3.53.642-.017 1.285 0 1.927-.027 4.036-.17 7.587.973 10.524 3.836.546.533.76.475 1.338.008 1.662-1.342 3.33-2.67 5.013-3.985.145-.114.49-.198.573-.12.203.2.405.488.43.755.06.638.02 1.283.02 1.925h.02c0 .107.012.213-.002.32-.273 2.345-.29 4.68.098 7.022.156.946-.016 1.137-.894 1.347zm2.764 16.59c-.136-1.594-.397-3.18-.655-4.763-.15-.925-.912-1.19-1.65-.587-2.617 2.144-5.627 3.44-8.88 4.285-2.82.736-5.664 1.202-8.58 1.024-2.135-.135-4.282-.268-6.39-.606-1.575-.254-3.1-.827-4.64-1.277-.43-.128-.6-.67-.35-1.035.243-.352.51-.69.754-1.04.678-.96 1.408-1.894 2.013-2.902.55-.917-.13-2.008-1.227-2.02-1.927-.02-3.854-.008-5.782-.008-.002-.02-.003-.037-.003-.06-1.928-.082-3.853-.223-5.78-.23-1.057-.006-2.124.162-3.174.335-.7.114-1.186.65-1.19 1.33-.01 1.278.045 2.57.244 3.828.335 2.114.768 4.2.877 6.354.093 1.802.478 3.6.827 5.382.235 1.19 1.435 1.44 2.466.632 1.263-.988 2.575-1.91 3.84-2.898.62-.487 1.18-.354 1.767.008.362.227.735.437 1.076.696 1.828 1.392 3.9 2.24 6.127 2.7 5.072 1.04 10.17 1.503 15.31.518 3.4-.65 6.592-1.906 9.58-3.608 2.29-1.294 3.667-3.288 3.425-6.06zm-29.298 4.864c-.23.036-.584-.256-.768-.49-.326-.415-.582-.887-.834-1.354-.21-.387-.467-.78-.92-.658-.177.046-.23.546-.348.832-.11.264-.107.69-.597.448-.094-.047-.196-.082-.29-.134l-3.29-1.867c-.93.71-1.856 1.43-2.793 2.133-.256.192-.526.37-.81.512-.473.243-.8-.082-1.106-.366-.152-.14-.303-.334-.342-.526-.462-2.29-.902-4.587-1.255-6.402.4-3.026-.2-3.768 3.28-3.043 1.28.263 2.526.25 3.804-.037.715-.16 1.48-.116 2.224-.135.348-.008.77.635.626.94-.405.867-.862 1.712-1.242 2.59-.27.63-.22 1.234.376 1.716 1.324 1.064 2.612 2.177 3.965 3.21.58.44.79.965.78 1.638-.006.407.063.914-.454.992zm4.535.79c-.192.013-.49.106-.555.022-.49-.648-.97-1.312-1.37-2.02-.09-.156.14-.72.254-.73.373-.032 1-.015 1.103.194.357.72.54 1.53.77 2.31.015.05-.132.147-.203.222zm3.863.07c-.075.01-.198-.086-.25-.165-.344-.52-.688-1.043-1.003-1.58-.16-.27.075-.574.578-.62.16.065.62.137.663.314.156.587.165 1.21.21 1.82.003.076-.118.214-.197.228zm3.248-.016c-.08-.064-.18-.112-.235-.192-.338-.507-.667-1.02-.994-1.534-.05-.08-.128-.194-.107-.27.02-.076.135-.145.225-.19.082-.044.183-.05.322-.084.69.483.885 1.23.96 2.027.008.077-.114.162-.176.243zm4.638-.16c-.03.047-.19.06-.256.026-.786-.405-1.22-1.077-1.373-1.923-.016-.087.294-.235.456-.35.19.043.48.02.553.14.326.503.615 1.04.856 1.585.052.12-.13.357-.238.523zm7.478-3.575c-.69.113-1.234.176-1.41.965-.165.73-.722 1.02-1.41 1.077-.966.077-1.208-.73-1.57-1.358-.08-.14-.06-.493.03-.544 1.927-1.114 3.866-2.208 5.82-3.275.346-.19.864.243.868.663.02 1.436-.617 2.19-2.33 2.474z"/></svg>