<svg xmlns="http://www.w3.org/2000/svg" width="128" height="128" viewBox="0 0 128 128"><path d="M119.99 62.355c-.065-1.71-.865-2.624-2.518-2.997-.805-.18-1.55.027-2.23.4-.96.53-1.87 1.157-2.815 1.723-.773.47-1.152.23-1.165-.76-.023-1.984-.002-3.97-.032-5.955-.015-.988.01-2-.173-2.962-.87-4.595-2.466-8.92-5.205-12.747-1.035-1.445-1.82-3.004-2.645-4.563-.98-1.842-1.934-3.762-3.26-5.344-3.56-4.257-7.668-7.973-12.61-10.55-4.292-2.237-8.744-4.163-13.434-5.49-3.74-1.06-7.51-1.75-11.405-1.407-3.072.267-6.13.784-9.205.9-4.397.167-8.414 1.548-12.376 3.27-1.21.527-2.44 1.065-3.714 1.365-2.867.683-5.297 2.133-7.54 3.957-2.057 1.666-4.137 3.307-6.124 5.053-2.91 2.553-5.578 5.318-7.586 8.68-2.613 4.374-4.797 8.947-6.306 13.8-1.08 3.47-1.672 7.03-1.648 10.728.026 3.762.4 7.488.8 11.203.323 2.94.843 5.87 1.688 8.74 1.896 6.436 5.397 12.03 9.082 17.53.732 1.094 1.648 2.068 2.507 3.073 3.835 4.49 8.904 7.172 14.19 9.44 2.922 1.26 6.042 2.053 9.038 3.15 4.796 1.75 9.734 2.736 14.83 2.97.436.02.88.053 1.308.15 3.328.75 6.564.282 9.754-.743 2.097-.68 4.17-1.424 6.275-2.065 3.125-.953 5.712-2.647 8.088-4.915 1.773-1.692 2.14-3.52 1.683-5.664-.25-1.17-.774-2.29-1.244-3.4-.29-.685-.886-.915-1.654-.657-1.252.42-2.505.85-3.713 1.38-5.835 2.555-11.925 3.85-18.3 3.703-1.98-.043-3.955-.245-5.934-.335-1.78-.08-3.487-.445-5.13-1.15-.807-.34-1.667-.842-2.49-.815-2.687.085-4.93-1.097-7.135-2.308-2.608-1.433-5.12-3.04-7.624-4.644-4.016-2.566-6.94-6.07-8.74-10.503-.498-1.222-1.028-2.44-1.646-3.603-1.932-3.63-3.105-7.46-3.888-11.518-.697-3.613-1.04-7.135-.657-10.796.194-1.864.383-3.714.85-5.534.19-.747.425-1.483.57-2.236.74-3.837 2.245-7.356 4.257-10.688 1.34-2.222 3.136-3.957 5.328-5.312.748-.464 1.494-.945 2.188-1.485 2.976-2.305 6.224-4.18 9.533-5.94 1.74-.925 3.57-1.662 5.585-1.94 2.286-.317 4.518-.913 6.685-1.78 2.367-.948 4.855-1.393 7.43-1.31 1.654.052 3.31.01 4.96.01v-.14c.662 0 1.324.003 1.985-.003 6.667-.077 6.94-.164 13.54 3.315.193.104.397.194.575.322 2.78 1.962 5.765 3.69 7.875 6.455 2.48 3.258 4.544 6.767 6.147 10.54.775 1.823 1.493 3.68 2.396 5.435 1.272 2.477 2.046 5.096 2.688 7.784.47 1.954.024 3.695-.935 5.375-.242.424-.736.445-1.04.042-1.25-1.675-2.634-3.268-3.71-5.045-1.076-1.773-2.79-2.02-4.492-2.336-1.14-.212-2.216.748-2.2 1.93.015.976.146 1.988.465 2.898.728 2.08 1.675 4.077 2.403 6.155 2.034 5.805 4.593 11.48 4.69 17.798.012.865.522 1.375 1.265 1.775 1.11.594 2.13.514 3.057-.296.66-.577 1.23-1.26 1.87-1.86.88-.824 1.715-1.73 2.707-2.4 4.795-3.244 8.647-7.49 12.575-11.667 1.402-1.504 1.723-3.272 1.646-5.19zM45.71 63.61c-1.4 1.397-2.885 2.71-4.394 3.99-1.09.92-2.304 1.695-3.42 2.59-1.566 1.26-2.753 2.834-3.687 4.61-.45.846-.41 1.67.04 2.516.79 1.476 2.095 2.174 3.81 1.945.87-.113 1.74-.28 2.604-.44 4.882-.916 9.807-1.26 14.77-1.05.545.027 1.085.21 1.63.236 1.423.06 2.826-1.067 3.116-2.448.268-1.262-.447-2.656-1.786-3.186-.802-.316-1.688-.51-2.553-.568-1.423-.093-2.86-.023-4.29-.023v-.03H49.9c-.88.004-1.762.03-2.64.004-.194-.005-.38-.18-.572-.277.11-.187.174-.424.33-.552 1.718-1.397 3.29-2.93 4.564-4.742 2.072-2.947 3.41-6.155 3.28-9.832-.156-4.337-1.98-7.57-6.153-9.283-.853-.352-1.723-.617-2.56-.4-3.314.862-6.54 1.91-9.16 4.294-1.623 1.473-2.6 3.244-2.99 5.374-.194 1.05.414 2.244 1.39 2.75.826.427 1.776.034 2.455-1.035.235-.37.395-.79.636-1.157.677-1.037 1.548-1.91 2.728-2.304 1.556-.524 3.14-1.02 4.753-1.313 1.857-.34 2.395.083 2.704 1.937.14.843.134 1.754-.018 2.595-.39 2.213-1.338 4.207-2.937 5.802zm27.756 13.832c.004.44.01.885.078 1.318.213 1.39 1.333 2.302 2.784 2.3 1.554-.004 2.496-.8 2.603-2.387.105-1.536-.02-3.09.098-4.623.555-7.014.917-14.053 2.16-21 .185-1.027-.417-2.128-1.247-2.447-1.24-.475-2.617-.075-3.092 1.09-.54 1.315-.992 2.688-1.274 4.08-.395 1.935-.587 3.91-.88 5.87-.18 1.175-.573 1.557-1.7 1.593-1.43.045-2.865.06-4.298.045-1.01-.01-1.434-.593-1.003-1.475 1.786-3.66 2.833-7.62 4.83-11.21 1.597-2.867 1.07-2.56-.48-5.048-.06-.094-.133-.18-.203-.26-.4-.454-1.253-.51-1.82-.163-.882.533-1.494 1.3-1.91 2.22-.725 1.603-1.376 3.237-2.123 4.83-1.404 2.986-2.837 5.96-4.3 8.916-.692 1.405-1.145 2.775-.945 4.415.205 1.69 1.045 2.51 2.592 2.974 1.728.51 3.473.52 5.233.572 1.525.046 3.05.18 4.573.28.984 1.54.028 3.217.326 4.532 0 1.376-.007 2.477.002 3.58z"/></svg>