<svg xmlns="http://www.w3.org/2000/svg" width="128" height="128" viewBox="0 0 128 128"><path d="M95.57 103.004c-.66-5.08-2.093-10.002-3.253-14.98-.096-.404-.163-.827-.333-1.204-.934-2.097-1.892-4.18-2.853-6.272-1.49-3.247-3.305-6.283-5.92-8.78-.377-.357-.75-.74-1.04-1.17-.745-1.13-1.65-2.214-2.12-3.458-1.18-3.093-1.05-6.133 1.1-8.86.45-.575 1.014-1.057 1.463-1.63 1.154-1.484 2.318-2.963 3.392-4.502.896-1.285 1.74-2.61 2.49-3.984 1.85-3.386 3.76-6.743 5.027-10.42.755-2.183 1.47-4.417 1.555-6.685.16-4.173.273-8.354-.373-12.523-.235-1.515-1.13-2.357-2.044-3.366-.8-.886-1.715-.976-2.78-1.093-1.963-.218-3.915-.585-5.86-.95-4.4-.82-8.652-2.452-13.213-2.372-.1 0-.205-.05-.31-.053-2.61-.04-5.268-.392-7.822-.02-2.61.372-5.195.508-7.8.447-2.123-.05-4.145.316-6.16.9-2.304.663-4.587 1.417-6.99 1.694-.93.107-1.917.16-2.755.517-.832.357-1.504 1.07-2.258 1.61-.164.12-.44.104-.573.24-.27.276-.64.59-.69.93-.43 2.783-.815 5.572-1.17 8.364-.146 1.133.205 2.098 1.333 2.57.91.38 1.146 1.07 1.25 1.972.26 2.287.844 4.493 1.648 6.66 1.313 3.536 3.044 6.863 4.835 10.165.445.825 1.05 1.558 1.57 2.34 1.21 1.83 2.507 3.615 3.59 5.516.662 1.163 1.454 1.977 2.716 2.417.686.238 1.33.62 1.95 1 1.762 1.087 2.9 2.573 3.434 4.65.426 1.66-.02 2.893-1.165 3.94-.69.627-1.56 1.046-2.316 1.61-.66.49-1.437.944-1.874 1.603-1.63 2.485-3.765 4.483-5.92 6.464-1.715 1.577-3.15 3.346-4.222 5.403-.77 1.483-1.757 2.912-2.202 4.49-.88 3.105-1.445 6.298-2.15 9.454-.64 2.884-.267 5.84-.615 8.747-.116.992.398 1.827.935 2.603 1.505 2.165 3.22 4.088 5.782 5.083 1.07.414 2.09.965 3.1 1.51 1.583.85 3.254 1.42 5.02 1.707 2.88.47 5.77.898 8.652 1.376.362.064.692.344 1.034.52h18.21c.252-.153.496-.41.765-.44 4.496-.556 8.687-2.18 12.94-3.612 2.235-.75 3.1-2.45 3.26-4.495.15-1.858-.024-3.765-.262-5.626zM84.733 18.876c.228-.16.606-.424.745-.34.585.354 1.11.82 1.645 1.25.075.058.107.17.158.253-.06.065-.105.153-.18.19-.084.035-.206.064-.284.032-.636-.282-1.275-.555-1.885-.882-.127-.068-.237-.476-.195-.505zM71.98 16.262c3.21-.19 6.405.018 9.572.578.333.06.677.433.875.747.156.25-.587 1.047-.95 1.067-.304.013-.618-.023-.927-.023-1.136-.002-2.274 0-3.03 0-2.14-.137-3.89-.224-5.638-.384-.477-.043-1.042-.173-1.12-.835-.06-.54.518-1.1 1.218-1.144zm-7.46.893c.144-.508.576-.843 1.17-.832.16.126.4.218.456.375.192.514.166 1.032-.294 1.413-.333.28-.794.49-1.103.146-.224-.247-.32-.768-.23-1.1zm-4.964-.292c.11.045.122.31.178.47-.267.703-.643 1.302-1.504 1.217-.224-.02-.587-.303-.6-.483-.06-.917 1.046-1.6 1.927-1.205zm-7.813 1.916c.16.03.316.11.476.17-.083.042-.16.082-.244.127-.16-.06-.318-.117-.476-.18.08-.042.167-.13.24-.118zm4.79 32.81c-1.28-.577-2.09-1.708-3.065-2.636-.757-.72-1.404-1.564-2.19-2.244-2.192-1.898-3.516-4.43-4.834-6.893-1.323-2.475-2.264-5.163-3.25-7.803-.542-1.456-1.07-2.974-.754-4.156.01-3.025.098-3.078 2.648-2.798 4.584.5 9.166.685 13.75-.002.823-.122 1.667-.122 2.506-.13 3.66-.028 7.322 0 10.98-.067 2.936-.054 5.877.164 8.734.695 2.643.493 5.18 1.555 7.752 2.4.595.195.693.747.574 1.29-.443 2.038-.776 4.09-1.547 6.058-1.61 4.11-3.844 7.875-6.212 11.573-.623.98-1.496 1.46-2.645 1.257-1.333-.238-2.648-.555-3.975-.82-.81-.165-1.62-.423-2.435-.438-2.3-.032-4.6-.008-6.9.085-1.137.042-2.277.234-3.4.45-1.155.222-2.113.843-2.958 1.666-.896.87-1.85 1.678-2.778 2.51zM76.2 53.602c-.61.707-1.138 1.485-1.733 2.206-.258.31-.555.73-.898.805-1.634.363-2.426 1.48-2.957 2.933-.392 1.073-.672 1.13-1.64.808-.848-.28-1.642-.113-2.467.072-.66.146-1.323-.08-1.67-.624-1.276-1.984-3.196-3.262-4.952-4.73-.456-.383-1.176-.722-1.01-1.452.178-.806.877-1.103 1.66-1.173.313-.03.7.023.918-.14 2.037-1.51 4.354-1.162 6.635-1.07.21.01.42 0 .627 0 .626.004 1.263.06 1.884-.01 1.69-.18 3.284.083 4.923.585 1.414.437 1.6.723.68 1.788zm-26.743 51.432c-.09.175-.22.49-.31.48-.276-.027-.658-.102-.78-.3-.2-.32-.317-.748-.31-1.13.007-.224.296-.597.492-.62.243-.03.603.165.763.38.17.22.16.58.21.8-.028.186-.02.3-.064.388zm1.083-6.86c-.085 0-.18-.063-.27-.1.135-.063.266-.14.404-.188.026-.007.09.11.14.17-.094.044-.182.113-.273.118zm7.535 8.923c-.115.462-.463.7-.914.594-.702-.168-1.39-.41-2.082-.62-.587-.177-.762-.62-.784-1.18-.032-.822.297-1.235 1.003-1.228.208.004.416.002.708.002.43.094.943.17 1.434.323.556.173.812.592.753 1.184-.032.307-.043.622-.117.922zm4.95 1.013c-.137.23-.726.286-1.09.25-.212-.02-.46-.363-.554-.61-.105-.274-.05-.606-.057-.723 0-.296-.005-.4 0-.5.032-1.033.848-1.52 1.938-1.095.228.09.518.5.477.692-.155.688-.363 1.387-.715 1.99zm7.06.383c-.314.014-.626.003-.94 0v-.003c-.312 0-.624.016-.938-.003-.892-.05-1.155-.367-1.224-1.44-.053-.827.256-1.222 1-1.205.833.015 1.67.062 2.502.124.658.05.894.317.93.98.066 1.217-.18 1.508-1.33 1.548zm10.414-2.008c-1.26.42-2.516.873-3.8 1.22-1.146.316-1.78-.05-2.495-1.234-.158-.255-.115-.42.164-.436 1.124-.06 2.244-.105 3.367-.155 0 .03 0 .06.002.087.922 0 1.844-.01 2.77.008.17.004.335.14.507.21-.173.102-.333.24-.518.3zm3.32-5.83c-1.46.04-2.92.014-4.38.014v.05c-5.207-.186-10.423-.27-15.62-.597-3.11-.192-6.194-.75-9.286-1.163-.548-.074-.723-.513-.34-.848 1.108-.97 2.004-2.08 2.655-3.416.266-.55.746-.995 1.12-1.496.534-.717 1.22-1.074 2.143-1.037 1.404.062 2.71-.306 3.742-1.285.6-.57 1.045-1.294 1.61-1.9.268-.284.662-.65.99-.644 1.536.03 3.127-.552 4.593.363.172.107.396.25.57.224 1.506-.23 2.468.685 3.56 1.493.73.54 1.14 1.11 1.383 1.952.35 1.205 1.198 1.998 2.48 2.025.97.02 1.444.51 2.013 1.194.654.78 1.528 1.393 2.37 1.993.623.44 1.017.958 1.326 1.66.447 1.04-.166 1.4-.93 1.42zm3.455-6.903c-.128.083-.41.06-.555-.03-.863-.564-1.83-.994-2.335-2.007-.572-1.14-1.515-1.717-2.818-1.523-1.262.187-2.09-.483-3.075-1.168-1.993-1.38-3.715-2.976-5.195-4.885-.437-.566-1.06-1.004-1.664-1.41-.625-.42-1.333-.576-2.06-.163-.455.258-.922.494-1.382.736-.474.243-.945.352-1.5.224-1.476-.33-2.645.307-3.67 1.29-.3.29-.607.588-.846.925-.83 1.187-1.845 1.876-3.394 1.838-1.793-.047-3.158.946-4.307 2.248-.277.307-.56.63-.76.992-.78 1.406-1.85 2.027-3.55 1.98-2.047-.06-3.81.948-5.38 2.243-.116.097-.424.1-.543.017-.11-.083-.1-.344-.115-.53-.006-.1.048-.202.072-.302l-.103-.025c.478-1.92.87-3.865 1.45-5.752.967-3.13 2.484-5.93 5.062-8.09 2.997-2.513 5.444-5.484 7.123-9.046.32-.68.77-1.18 1.494-1.495 1.853-.806 3.38-2.045 4.608-3.664 1.14-1.5 2.603-1.977 4.427-1.333.564.197 1.204.195 1.817.257.883.088 1.2.23 1.24 1.058.077 1.606.917 2.695 2.027 3.73 1.84 1.708 3.61 3.487 5.383 5.26.437.44.82.945 1.163 1.465.982 1.483 1.873 3.02 2.9 4.47 2.02 2.86 3.236 6.06 4.072 9.428.224.91.448 1.82.636 2.74.032.16-.085.433-.22.52zM67.25 65.985c-.248.326-.41.74-.707.995-.992.842-1.038 1.95-.98 3.103.042.832.628 1.235 1.286 1.58.65.336 1.173.078 1.694-.318.62-.475.928-1.08.864-1.79.018-1.357-.425-2.49-1.113-3.54-.245-.374-.763-.4-1.045-.03zm.205 9.152c-.325.103-.63.156-.892.284-1.082.534-1.26 2.568-.622 3.267.31.34.84.585 1.308.66.56.1.873-.368 1.14-.837.59-1.012.446-1.964-.21-2.86-.164-.222-.47-.338-.723-.512z"/></svg>