<svg xmlns="http://www.w3.org/2000/svg" width="128" height="128" viewBox="0 0 128 128"><path d="M115.696 92.67c-.324-4.1-.768-8.193-.97-12.3-.193-3.9-.134-7.816-.185-11.726-.015-1.373.01-2.747-.047-4.117-.17-4.008-.373-8.014-.565-12.02l.124-.004c0-2.853.01-5.705-.005-8.558-.004-.736-.008-1.49-.142-2.212-.194-1.065-.61-2.155-1.728-2.464-1.072-.297-1.557-1.028-1.997-1.858-1.445-2.72-3.285-5.16-5.16-7.588-1.352-1.757-2.655-3.548-4.042-5.282-.472-.59-.818-1.167-.97-1.93-.262-1.326-1.232-1.92-2.518-1.977-1.16-.05-2.325-.004-3.484-.018-.738-.01-1.536.12-2.204-.107-1.246-.423-2.5-.35-3.757-.35-6.34-.012-12.683-.007-19.02-.005-.74 0-1.526-.147-2.212.05-2.282.644-4.61.364-6.918.5-1.266.073-2.558-.032-3.797.18-2.62.45-5.26.463-7.893.506-3.904.064-7.81.087-11.667.75-.917.157-1.703.124-2.304-.583-.71-.838-1.423-.56-2.265-.258-1.59.575-2.65 1.716-3.49 3.082-2.17 3.52-4.93 6.585-7.463 9.83-.747.957-1.597 1.616-2.86 1.776-1.863.235-2.644 1.538-2.884 3.262-.06.418-.09.84-.116 1.262-.21 3.686-.482 7.37-.616 11.063-.282 7.816-.14 15.632.75 23.405.576 5.042.578 10.112.984 15.157.228 2.837.113 5.704.118 8.555.005 1.894.18 3.79-.48 5.65-.334.94.28 1.906 1.22 2.3.385.162.803.253 1.214.335 2.072.41 4.155.683 6.283.597 2.42-.093 4.834.05 7.25-.482 1.94-.427 3.967-.608 5.96-.656 10.132-.237 20.273-.402 30.413-.573 3.59-.06 7.184-.003 10.778-.093 7.377-.188 14.78.35 22.13-.736 3.244-.475 6.508-.63 9.78-.525.317.01.634-.046.95-.07.688-.06 1.19-.405 1.505-1.01.4-.764.384-1.562.42-2.42.04-.835.79-1.646 1.227-2.464-.31-1.517.353-2.884.635-4.313.096-.502.064-1.043.025-1.562zm-84.83-61.732l.044-.152c.043.008.07-.004.107-.004.053-.307.2-.515.54-.506.008-.03.018-.055.023-.085.034-.02.064-.045.1-.066.103-1.155.788-1.92 1.757-2.496.01-.49.36-.95.73-.85 2.407.633 4.805.083 7.2.053 2.212-.03 4.42-.236 6.633-.372 2-.126 3.997-.267 5.995-.392.312-.02.626-.01.94.015 7.066.563 14.14.317 21.208.15 3.69-.083 7.376-.365 11.06-.567.633-.035 1.28-.032 1.89-.17.96-.22 1.85-.19 2.78.18 1.028.404 1.997.315 2.99-.364 1.088-.74 1.168-.654 1.816.596 1.363 2.627 3.145 4.978 4.86 7.377 1.283 1.797 2.506 3.635 3.7 5.493.51.805.174 1.325-.8 1.547-2.48.565-4.983.78-7.535.754-3.906-.036-7.822-.114-11.716.132-6.436.402-12.87.285-19.308.316-.74.004-1.48-.008-2.22-.027-.746-.02-1.085-.366-1.158-1.158-.053-.564-.757-.82-1.166-.557-.26.17-.56.33-.74.57-.993 1.286-2.34 1.258-3.74 1.09-.398-.054-.627-.62-.38-.984.41-.613.866-1.197 1.26-1.82.338-.53.69-1.08.88-1.666.11-.34.013-.845-.178-1.163-.307-.51-.904-.57-1.408-.354-1.688.715-3.072 1.845-4.176 3.296-.245.316-.367.748-.466 1.15-.39 1.616-.376 1.626-1.9 1.605-.412-.005-.858-.005-1.23-.156-.177-.072-.387-.572-.303-.722.407-.728.88-1.43 1.39-2.093.452-.58 1-1.088 1.478-1.65.573-.67.813-1.464.813-2.34 0-.633-.668-1.24-1.263-1.083-1.344.36-2.57.967-3.535 1.974-.947.99-1.877 2.01-2.7 3.104-.495.657-.746 1.493-1.148 2.225-.347.634-.94.785-1.62.693-.422-.056-.806-.57-.61-.89.385-.623.795-1.236 1.217-1.836.55-.776 1.135-1.52 1.672-2.304.323-.472.245-1.14-.094-1.457-.45-.42-1.01-.4-1.473-.17-.555.272-1.077.66-1.52 1.1-1.5 1.476-2.986 2.976-4.422 4.52-.697.748-1.51 1.135-2.498 1.164-.293.01-.59-.136-.89-.21.07-.187.1-.4.216-.555.684-.938 1.318-1.926 2.104-2.77 1.376-1.49 2.212-3.33 3.337-4.98.174-.25.334-.576.337-.87.005-.387-.03-.895-.268-1.132-.24-.245-.748-.28-1.14-.293-.303-.01-.626.12-.91.256-.47.228-.906.545-1.39.748-.244.104-.554.038-.836.05.032-.177.043-.36.098-.53.238-.692.57-1.362.725-2.073.27-1.205-.252-1.707-1.523-1.59-.313.03-.625.074-.94.11-.21 1.132-.986 1.81-1.887 2.38-.005.05-.016.096-.018.15-.044-.006-.07.003-.108.002-.07.288-.208.506-.54.506-.004.03-.014.053-.018.085-.016.038-.07.058-.13.072-.032.106-.062.214-.09.324-.268-.277-.065-.288.09-.326zm-1.388 2.094l-.1.142-.054-.164.156.02zm78.934 63.64c-3.06.012-6.12.004-9.18-.084-1.788-.053-3.568-.37-5.355-.397-3.908-.057-7.82-.09-11.727.036-2.63.085-5.252.433-7.872.722-2.723.3-5.43.798-8.157.98-3.162.206-6.33.283-9.472.707-.635.082-.977-.227-.942-.896.006-.108.008-.22-.02-.317-.327-1.067-1.02-1.434-1.868-.92-.63.377-1.28.78-1.77 1.307-.926.994-1.976 1.482-3.353 1.487-.94 0-1.87.296-2.813.4-.263.03-.678-.077-.797-.263-.133-.213-.113-.644.02-.88.457-.822.99-1.6 1.494-2.397.426-.672.08-1.502-.713-1.764-1.245-.405-2.352-.092-3.18.827-.91 1.016-1.684 2.155-2.47 3.272-.362.514-.596 1.118-.925 1.658-.16.26-.363.576-.622.685-1.096.45-2.246.437-3.392.213-.096-.02-.22-.33-.194-.475.24-1.27.867-2.368 1.557-3.438.64-.992 1.03-2.07 1.094-3.253.02-.366-.443-.885-.798-.826-.512.088-1.096.123-1.49.405-.764.546-1.528 1.16-2.094 1.896-1.273 1.666-2.694 3.264-3.154 5.42-.15.705-.725 1-1.43.998-.735-.002-1.482.016-2.21-.075-.167-.02-.35-.425-.396-.68-.03-.16.15-.39.286-.543 2.76-2.997 4.37-6.68 6.187-10.244.09-.18.1-.405.15-.608.11-.487-.524-1.117-.972-.917-.566.256-1.198.5-1.615.928-1.173 1.203-2.245 2.51-3.37 3.76-.673.748-1.178 1.676-2.177 2.075 0 .04-.003.08-.01.116l-.104-.003-.232.43c-.305-.443-.042-.442.233-.43.01-.026.024-.048.037-.07.03-.012.05-.033.08-.044.037-.374.02-.77.177-1.084.37-.755.824-1.476 1.29-2.178 1.576-2.38 2.74-4.973 3.936-7.548.128-.278.173-.61.18-.918.003-.188-.086-.467-.223-.547-.246-.143-.63-.31-.833-.21-.46.21-.907.528-1.25.9-1.282 1.395-2.52 2.832-3.787 4.238-.13.144-.368.187-.555.275-.1-.288-.305-.585-.27-.853.05-.405.21-.825.433-1.168.34-.53.79-.987 1.164-1.493 1.558-2.127 3.172-4.216 4.627-6.407.624-.94.967-2.088 1.313-3.18.09-.294-.204-.8-.466-1.076-.155-.162-.622-.16-.89-.066-1.014.363-1.812.977-2.428 1.923-.86 1.323-1.868 2.556-2.828 3.81-.116.15-.462.33-.51.285-.196-.17-.387-.413-.446-.66-.146-.617-.267-1.242-.3-1.87-.02-.39.027-.86.23-1.173 2.075-3.176 3.65-6.646 5.834-9.758.35-.5.526-1.138.69-1.736.192-.7-.254-1.202-.992-1.27-1-.092-1.91.076-2.556.918-.766.998-1.493 2.027-2.237 3.047-.19.254-.34.535-.555.768-.123.13-.33.198-.51.258-.03.013-.16-.144-.18-.24-.188-.71-.483-1.42-.514-2.14-.258-5.905-1.525-11.72-1.53-17.648 0-.946-.016-1.9.035-2.845.027-.448.277-.733.83-.64.936.16 1.885.245 2.82.397 4.487.714 8.99 1.234 13.538 1.25 5.916.02 11.833-.015 17.75-.03 5.492-.012 10.988-.066 16.48-.02 2.21.02 4.42.248 6.63.382.422.027.846.082 1.267.062 5.144-.23 10.288.227 15.43.047.423-.013.883.07 1.26-.067 1.54-.565 3.133-.39 4.706-.378 1.71.01 3.364-.25 4.97-.818.386-.136.73-.398 1.09-.603.736-.416.957-.352.967.322.027 1.27.032 2.535.006 3.802-.026 1.477-.135 2.955-.14 4.43-.014 8.243-.01 16.48-.004 24.726 0 1.792-.01 3.58.42 5.355.2.807.133 1.68.197 2.52.173 2.314.355 4.63.523 6.943.045.63.07 1.266.068 1.9-.005.73-.412 1.268-1.13 1.268zM80.93 70.68c-1.045-.133-2.08-.33-3.13-.416-1.557-.126-3.115-.177-4.674-.256-.78-1.605-.186-3.31-.352-4.956-.064-.626-.01-1.265-.01-1.897.002-1.373.058-2.716.438-4.068.463-1.632.44-3.34.237-5.028-.126-1-.62-1.573-1.623-1.634-1.47-.09-2.948-.02-4.42-.02v.06c-1.16 0-2.32.048-3.478-.01-2.04-.1-3.19 1.44-4.588 2.475-.33.25-.437.96-.437 1.46-.008 2-.174 4.046.17 5.997.464 2.645.435 5.218-.067 7.823-.18.914-.372 1.238-1.14 1.18-2.452-.202-4.78.77-7.213.692-.81-.027-1.4.42-1.9.98-.193.22-.48.624-.4.758.43.753-.166 1.463-.02 2.15.132.596.462 1.176.806 1.692.703 1.053 1.45 2.073 2.215 3.08 2.36 3.11 5.106 5.9 7.357 9.102.648.925 1.606 1.667 2.522 2.362.78.587 1.645.702 2.648.19 2.093-1.07 3.9-2.493 5.636-4.04 3.23-2.876 6.372-5.845 9.427-8.91 1.133-1.138 2.046-2.383 2.8-3.776.244-.452.436-.954.764-1.337.84-.988.437-2.005.08-2.965-.258-.69-1.03-.605-1.65-.685zm-26.154 5.577c-.02.085-.16.22-.205.203-.357-.11-.762-.188-1.043-.412-.184-.15-.203-.518-.262-.798-.013-.06.123-.15.19-.224.656-.12 1.482.638 1.325 1.23zm4.036-1.083c.3.27.625.43.66.638.03.173-.282.402-.444.608-.22-.173-.523-.31-.622-.533-.056-.13.22-.407.405-.713zm.544 6.48c-.045.146-.264.33-.4.33-.166-.005-.42-.154-.476-.297-.144-.373-.264-.78-.27-1.173-.005-.506.108-1.013.185-1.515.013-.095.13-.258.156-.25.19.065.48.12.53.257.208.552.34 1.13.43 1.456-.065.587-.06.902-.155 1.19zm7.84 2.622c-.838.755-1.712 1.47-2.552 2.227-.978.883-1.3.845-2.195-.317-.365-.475-.27-.784.342-.782.896 0 1.646-.14 2.048-1.045.04-.098.112-.177.16-.27.524-.995 1.356-.703 2.16-.51.095.02.173.106.26.163-.07.18-.095.412-.225.53zM64.483 70.25l.046-.1c.07-.03.14-.058.204-.1l.1-.153c-.025.05-.037.117-.078.144-.005.008-.014.01-.02.013l-.12.184c-.037.01-.084.015-.133.017l-.168.363c-.27-.376-.032-.356.168-.363zm3.496-9.557c-.04.15-.304.295-.484.33-.075.014-.262-.255-.3-.42-.127-.502-.13-1.043-.316-1.52-.287-.758-1.172-1.062-1.802-.65-.612.4-1.173.876-1.76 1.315-.325.242-.805.02-.92-.433-.1-.405-.17-.814-.192-.923-.008-1.14.317-1.555 1.024-1.604 1.675-.115 3.35-.243 5.024-.305.19-.005.597.405.565.558-.228 1.23-.525 2.445-.84 3.653zm1.306 21.323c-.085-.15-.245-.305-.235-.45.01-.157.176-.302.275-.454.083.156.168.31.252.464l-.29.44zm6.19-6.03c-1.013.913-2.098 1.75-3.16 2.607-.075.062-.245.11-.29.07-.14-.112-.3-.26-.334-.417-.064-.305-.047-.63-.055-.834.018-.43.036-.742.045-1.06.016-.587.254-1.02.847-1.165.814-.2 1.634-.398 2.465-.523.277-.04.59.15.885.233-.125.37-.148.86-.402 1.09z"/></svg>