<svg xmlns="http://www.w3.org/2000/svg" width="128" height="128" viewBox="0 0 128 128"><path d="M40.873 99.984c-.523-2.22-1.07-4.44-2.097-6.514-.81-1.634-2.11-2.443-3.84-2.648-.648-.077-1.31-.01-1.963-.027-4.9-.14-9.797.313-14.688.078-2.366-.114-4.79.274-7.108-.62-.337-.127-.847.054-1.23.204-.848.335-1.382 1.008-1.836 1.792-.994 1.726-1.453 3.63-1.85 5.55-.61 2.987-1.17 5.975-2.34 8.82-.576 1.386.247 3.16 1.564 3.837 1.694.875 3.512 1.133 5.39 1.13 5.453 0 10.908-.018 16.364-.002 1.525.003 3.055.053 4.576.166 1.405.104 2.802.32 4.203.487l.015-.15c.766.038 1.53.07 2.29.112 1.256.07 2.37-.385 3.364-1.075 2.67-1.858 2.917-2.82 1.263-5.677-1-1.73-1.62-3.537-2.075-5.466zm-2.56 7.66c-3.154.056-6.317.188-9.438-.475-.964-.205-1.14-.415-.962-1.278.088-.424.3-.827.36-1.254.102-.703-.237-1.25-.74-1.718-.33-.31-.936-.34-1.14.01-.598 1.036-1.164 2.085-1.745 3.126-.58 1.05-1.035 1.246-2.438 1-.3-.054-.63-.214-.493-.654.39-1.244.79-2.487 1.17-3.733.13-.414.312-.834.31-1.248 0-.26-.26-.56-.48-.755-.096-.085-.45-.015-.576.102-.307.293-.592.634-.825.99-1.005 1.55-1.96 3.137-3.005 4.664-.286.416-.787.7-1.228.984-.128.082-.445.014-.58-.1-.126-.1-.23-.408-.162-.536.644-1.26 1.4-2.467 1.966-3.757.296-.665.38-1.463.366-2.2-.002-.306-.46-.694-.797-.87-.195-.098-.697.063-.845.264-1.43 1.92-2.805 3.874-3.517 6.21-.347 1.144-.392 1.13-1.594 1.137-.44 0-.877-.01-1.31-.023-.62-.02-1.03-.347-.847-.647.3-.483.56-.048.795.043.586.23 1.09.108 1.467-.343.416-.494.814-1.024 1.105-1.598.934-1.845 1.826-3.71 2.707-5.58.127-.278.202-.645.138-.94-.056-.286-.267-.63-.51-.763-.21-.113-.645-.06-.843.094-1.38 1.1-2.453 2.46-3.287 4.014-.045.085-.17.128-.256.194-.06-.093-.16-.182-.17-.278-.034-.43-.112-.873-.047-1.29.26-1.612.553-3.214.87-4.812.148-.736.628-1.13 1.382-1.13 2.724.012 5.445.06 8.17.084.87.008 1.743.002 2.614.002 3.485 0 6.975-.01 10.46.01.89.005 1.155.246 1.366 1.076.42 1.685.877 3.364 1.236 5.064.43 2.037 1.065 3.987 2.11 5.8.474.814.28 1.088-.762 1.106zm43.194-13.308c-.123-.858-.407-1.696-.674-2.524-.213-.656-.715-1.06-1.36-1.32-1.37-.552-2.773-.456-4.184-.245-.97.15-1.936.38-2.908.418-2.938.114-5.87.144-8.8.523-3.45.443-6.933.592-10.406.866-.11.008-.22.008-.324.025-1.038.164-1.86.654-2.25 1.664-.39 1.013-.773 2.037-1.052 3.088-.532 1.995-.9 4.04-1.5 6.016-.598 1.983-.442 4.093-1.23 6.052-.444 1.11.245 1.995 1.387 2.065 3.255.208 6.48.815 9.768.546 1.837-.15 3.695.036 5.532-.387.835-.192 1.74-.153 2.607-.11 2.283.106 4.582-.158 7.125.383l1.33-.196c.86-.123 1.716-.273 2.58-.358 1.624-.163 3.253-.3 4.88-.427.964-.075 1.615-.562 2.024-1.423.82-1.733 1.127-3.383.227-5.296-1.39-2.958-2.303-6.103-2.772-9.363zM79.9 106.41c-2.81.218-5.616.445-8.423.67-.005-.035-.01-.068-.01-.103-.87 0-1.744.01-2.614 0-1.316-.02-1.33-.03-1.216-1.683.04-.585-.128-1.053-.552-1.455-.448-.43-1.077-.557-1.448-.196-1.008.984-1.978 2.005-2.987 2.987-.083.08-.363-.01-.533-.07-.066-.024-.14-.187-.123-.273.07-.422.14-.85.267-1.26.256-.828.595-1.636.804-2.476.128-.51.153-1.076.085-1.6-.033-.266-.33-.543-.574-.73-.392-.29-.576.09-.725.35-1.03 1.788-2.08 3.565-3.05 5.387-.425.797-1.003 1.07-1.847.98-.608-.063-1.037-.55-.82-1.098.674-1.714 1.39-3.414 2.107-5.11.426-1.016.386-1.835-.164-2.01-.795-.255-1.227.335-1.582.85-.672.98-1.26 2.022-1.888 3.036-.053.085-.17.133-.256.2-.09-.17-.26-.336-.258-.506.005-2.2.546-4.298 1.37-6.32.128-.314.64-.64.992-.66 4.988-.316 9.978-.56 14.965-.867 1.182-.073 2.355-.317 3.54-.464.43-.055.863-.07 1.3-.083.846-.023 1.222.264 1.365 1.042.162.852.31 1.706.47 2.56.498 2.68 1.33 5.262 2.365 7.775.29.7.033 1.077-.558 1.124zm46.33-.41c-.775-2.944-1.547-5.888-2.402-8.808-.582-1.984-1.29-3.93-1.965-5.885-.305-.885-.85-1.488-1.907-1.463-1.197.03-2.394.032-3.586-.027-1.408-.072-2.816-.358-4.213-.313-3.482.113-6.96.328-10.432.573-1.95.135-3.89.4-5.832.638-.533.064-1.085.168-1.57.384-.365.16-.763.472-.932.82-.66 1.366-1.235 2.77-1.843 4.163-1.493 3.42-2.174 7.042-2.626 10.716-.116.98.297 1.71 1.16 2.137.387.192.786.416 1.205.498 1.8.36 3.688.098 5.45.796.25.1.62-.14.94-.195.424-.07.853-.17 1.27-.15 3.91.202 7.823.426 11.735.643 0-.062.004-.118.01-.18 3.162 0 6.323-.07 9.483.032 1.59.047 2.99-.55 4.435-.968.87-.254 1.427-1.04 1.72-1.864.16-.45.034-1.054-.097-1.552zm-8.6-1.133c-2.485.242-4.997.25-7.5.33-.756.022-1.087-.484-.938-1.33.13-.74.29-1.48.382-2.226.017-.152-.207-.446-.363-.48-.286-.062-.69-.09-.892.07-.326.257-.56.654-.765 1.03-.467.86-.86 1.76-1.355 2.6-.128.214-.52.3-.806.374-.044.01-.266-.348-.266-.533.002-.647.157-1.31.075-1.94-.046-.352-.382-.817-.704-.95-.336-.14-.934-.08-1.2.146-.48.402-.84.97-1.164 1.52-.273.453-.36 1.023-.656 1.45-.124.18-.62.235-.88.15-.225-.076-.528-.45-.51-.662.12-1.18.357-2.35.494-3.53.047-.412-.032-.974-.547-1-.37-.02-.895.2-1.103.49-.622.88-1.126 1.844-1.67 2.78-.326.556-.637 1.122-.97 1.674-.037.06-.217.1-.284.064-.18-.092-.483-.25-.474-.35.092-.862.23-1.718.383-2.574.42-2.352.837-4.706 1.294-7.05.17-.89.37-.982 1.33-1.098 6.156-.747 12.354-.866 18.54-1.216.585-.032 1.036.096 1.23.76.69 2.398 1.417 4.79 2.127 7.183l-.07.02c.035.103.075.204.105.31.3 1.04.595 2.076.892 3.115-1.137.73-2.482.757-3.733.878zM73.466 68.984c-.837.072-1.448.5-1.68 1.323-.53 1.888-1.038 3.778-1.527 5.675-.57 2.21-1.15 4.42-1.645 6.647-.21.947-.34 1.99.315 2.84.812 1.04 1.712 1.964 3.18 2.07 3.037.21 6.075.47 9.11.71.006-.077.01-.156.015-.235.654 0 1.312.04 1.963-.007 2.492-.188 4.987-.16 7.484-.486 2.688-.352 5.444-.282 8.166-.218 1.883.043 3.637-.594 5.478-.736.29-.02.674-.224.82-.465.897-1.477 1.86-2.888.886-4.81-.677-1.345-1.028-2.864-1.437-4.33-.523-1.885-.995-3.786-1.412-5.697-.235-1.064-.87-1.725-1.77-2.21-.882-.476-1.84-.64-2.836-.655-3.812-.063-7.627-.175-11.445-.194-2.288-.01-4.578.066-6.864.195-2.274.134-4.54.374-6.805.58zm25.02 3.45c1.137.022 1.294.236 1.483 1.292.337 1.924.717 3.843 1.054 5.77.113.642.21 1.297.194 1.944-.007.233-.353.648-.553.655-1.743.053-3.486.03-5.67.03-1.302.107-3.036.245-4.767.395-.555.047-.743-.29-.885-.736-.125-.403-.252-.818-.454-1.184-.218-.402-.936-.39-1.09 0-.16.395-.27.814-.373 1.227-.19.765-.715 1.02-1.443 1.035-.632.015-1.13-.392-1.04-.924.113-.64.336-1.267.396-1.91.04-.406-.05-.87-.234-1.236-.117-.235-.486-.392-.78-.472-.146-.04-.464.126-.53.277-.522 1.19-1.027 2.39-1.495 3.602-.44 1.15-.56 1.26-1.897 1.315-.95.04-1.237-.226-1.064-1.035.3-1.38.664-2.747.913-4.138.093-.506-.02-1.062-.117-1.582-.023-.15-.294-.32-.478-.363-.186-.036-.517.01-.587.134-.474.84-1.02 1.673-1.31 2.583-.353 1.13-.49 2.336-.72 3.51-.14.707-.743 1.073-1.422.857-.517-.17-.72-.586-.558-1.32.308-1.38.66-2.75.974-4.13.144-.634.282-1.275.344-1.92.062-.628.264-1.452-.497-1.69-.367-.117-.926.388-1.41.592-.142.06-.32.062-.48.05-.03 0-.08-.194-.066-.287.144-.747.3-1.493.453-2.24.1-.493.416-.776.91-.693 2.594.434 5.21.296 7.824.324 5.126.05 10.25.158 15.374.267zM26.548 70.63c-1.24 3.5-1.874 7.15-2.603 10.78-.17.85-.306 1.71-.43 2.57-.244 1.716.7 3 2.415 3.27.533.082 1.084.09 1.63.09 4.69.008 9.378.003 14.067.003v-.12c4.366 0 8.73-.07 13.092.026 2.63.055 5.114-.954 7.73-.876.206.007.415-.116.624-.183 1.118-.356 1.603-1.006 1.534-2.186-.033-.533-.103-1.096-.3-1.586-.53-1.312-1.124-2.598-1.71-3.883-1.36-2.97-2.782-5.908-4.062-8.91-.594-1.4-1.455-2.034-2.976-2.006-4.256.07-8.512.012-12.765.116-2.827.07-5.655.113-8.483.454-1.904.23-3.846.683-5.813.22-.32-.076-.885.19-1.1.476-.386.51-.64 1.137-.857 1.75zm3.9 11.644c.45-3.115.866-6.235 1.294-9.353.117-.847.408-1.144 1.267-1.147 3.59-.016 7.18-.007 10.77-.007v-.24c3.374 0 6.75.005 10.122-.005.853-.002 1.4.29 1.688 1.174.506 1.547 1.12 3.06 1.673 4.594.624 1.736 1.237 3.474 1.805 5.227.003.015-.73.373-1.123.386-1.522.057-3.054-.05-4.57.065-7.274.55-14.563.344-21.848.517-1.27.033-1.248-.03-1.077-1.21zm18.968-19.066c.75.015 1.525-.062 2.248.1 3.85.86 7.746 1.064 11.67.884 1.735-.08 3.47-.288 5.21-.317 3.156-.053 6.318-.07 9.48-.005 2.292.046 4.525-.367 6.767-.74.357-.06.83-.422.956-.754.57-1.52 1.018-3.022.466-4.725-1.242-3.824-2.314-7.703-3.487-11.55-.573-1.867-1.397-2.485-3.282-2.597-.543-.032-1.087-.016-1.63-.018-5.234-.02-10.465-.043-15.692-.053-2.396-.007-4.79-.007-7.144.582-.52.13-1.07.13-.924.114-2.958-.02-3.26.19-3.962 2.267-.174.517-.366 1.032-.476 1.562-.826 4.043-1.634 8.092-2.448 12.14-.043.214-.093.428-.11.644-.093 1.44.87 2.437 2.363 2.464zm2.166-3.86c.624-3.196 1.248-6.39 1.897-9.578.126-.634.322-1.267.587-1.856.107-.235.485-.497.736-.493.974.017 1.95.13 2.923.217 1.294.11 2.586.32 3.88.328 4.785.02 9.568-.03 14.355-.047.87-.002 1.75-.048 2.604.066.35.046.834.405.936.725.33 1.027.524 2.1.732 3.163.164.85.275 1.71.41 2.563.033-.004.067-.008.1-.015.127.64.238 1.28.39 1.916.256 1.054.54 2.1.81 3.153-1.03.77-2.308.38-3.438.74-.494.157-1.08.084-1.618.04-4.992-.42-9.98-.428-14.97.007-1.406.123-2.828.036-4.24.102-1.518.07-3.04.16-4.548.325-1.495.163-1.803-.06-1.547-1.36zm57.465-1.19c.27-.182.523-.4.753-.627 2.093-2.07 4.188-4.13 6.255-6.222.533-.538 1.007-1.144 1.436-1.77.24-.345.325-.798.41-1.028.097-.852-.724-1.76-1.402-1.697-.53.053-1.085.143-1.57.35-3.698 1.568-6.616 4.143-9.174 7.172-.14.163-.24.363-.337.555-.494.968-.238 2.187.62 2.968.842.768 2.115.9 3.012.295zM14.857 54.7c2.153 2.87 5.023 4.725 8.315 6 .5.195 1.02.344 1.205.406 1.134.136 1.842-.028 2.485-.517.69-.524.825-1.217.46-1.974-.408-.85-1.1-1.3-1.92-1.643-2.004-.836-3.92-1.835-5.703-3.087-1.503-1.056-3.02-2.1-4.543-3.132-.354-.238-.753-.416-1.152-.578-.435-.18-1.07.105-1.397.58-.27.4-.303.85-.022 1.205.73.936 1.563 1.795 2.272 2.74zm77.548-15.48c.203-.097.56-.175.772-.393.523-.544 1.074-1.096 1.453-1.74 2.084-3.57 4.126-7.166 6.176-10.756.313-.55.14-1.236-.424-1.75-.44-.4-.92-.472-1.488-.193-.912.448-1.574 1.152-2.142 1.963-2.194 3.13-3.947 6.51-5.664 9.912-.233.463-.285 1.042-.32 1.573-.04.677.913 1.504 1.636 1.387zm-26.48-8.01c.367.305.803.318 1.196.04.845-.597 1.374-1.397 1.38-2.46.018-1.953.007-3.91.007-5.865h.053c0-1.74.025-3.477-.014-5.214-.015-.53-.153-1.07-.326-1.574-.25-.736-1.323-.903-1.9-.377-1.128 1.03-1.543 2.44-1.622 3.812-.176 3.03-.128 6.078-.098 9.118.008 1.007.535 1.87 1.327 2.52zM40.4 39.4c.373.357.914.58 1.42.754 1.16.4 2.263-.492 2.106-1.687-.158-1.208-.637-2.293-1.344-3.292-.942-1.33-1.818-2.715-2.81-4.01-.988-1.29-2.066-2.517-3.146-3.735-.18-.2-.578-.213-.81-.29-.273.146-.572.21-.625.36-.206.6-.563 1.268-.46 1.837.754 3.976 2.764 7.287 5.667 10.066z"/></svg>