<svg xmlns="http://www.w3.org/2000/svg" width="128" height="128" viewBox="0 0 128 128"><path d="M113.64 95.25c-.846-1.782-1.885-3.485-2.98-5.128-.346-.52-1.107-.904-1.75-1.045-.468-.107-1.057.256-1.578.45-.976.365-1.924.817-2.914 1.127-1.096.34-1.744-.02-2.235-1.056-.37-.774-.512-1.576-.14-2.357.556-1.14 1.084-2.252 2.236-3.04 1.465-1 1.737-2.18.93-3.58-1.278-2.22-2.524-4.45-3.635-6.762-.837-1.746-2.92-2.016-4.476-.795-.364.283-.737.606-.975.99-.64 1.037-1.653 1.62-2.585 2.314-.836.627-1.674 1.267-2.426 1.99-1.877 1.798-4.1 3.052-6.39 4.223-.687.347-1.098.07-1.46-.42-4.27-5.823-8.573-11.62-12.776-17.49-1.83-2.552-3.477-5.238-5.15-7.9-.724-1.148-.61-1.465.436-2.36.354-.302.698-.628 1.088-.876 3.965-2.505 6.528-6.258 8.97-10.106 1.208-1.91 1.89-3.998 1.706-6.315-.288-3.008-.51-6.032-.894-9.035-.146-1.133-.594-2.244-1.02-3.324-1.985-5.017-6.223-7.986-10.232-11.157-2.835-1.33-5.586-2.944-8.898-2.737-.228.014-.484 0-.69-.09-1.175-.524-2.287-.15-3.39.23-3.414 1.17-6.8 2.412-9.95 4.212-1.213.69-2.4 1.488-3.697 1.963-3.573 1.3-6.514 3.57-9.447 5.88-1.003.793-1.956 1.745-3.096 2.255-2.413 1.073-4.178 2.925-6.15 4.544-.844.69-1.494 1.488-1.932 2.434-1.685 3.672-2.515 7.486-1.843 11.544.67 4.043 1.993 7.89 3.495 11.678 1.003 2.534 2.533 4.736 4.675 6.437 1.366 1.088 2.796 2.1 4.27 3.036 2.847 1.81 6.047 2.35 9.35 2.304 1.507-.02 3.02-.25 4.517-.443 3.575-.456 7.194-.75 10.3-2.907.523-.363.965-.165 1.397.536 1.468 2.377 2.885 4.785 4.377 7.15 2.485 3.94 5.053 7.833 7.51 11.79 5.41 8.706 10.79 17.438 16.72 25.806 1.685 2.372 3.4 4.723 5.133 7.067.424.573 1.007 1.102 1.777.8 2.375-.947 4.778-1.847 7.06-2.984 1.82-.903 2.714-2.445 2.213-4.624-.3-1.31-.19-1.31 1.028-1.985.813-.448 1.65-.896 2.346-1.493 1.085-.93 2.357-1.448 3.603-2.08 2.173-1.1 4.26-2.384 6.314-3.704 1.87-1.204 2.016-3.364 1.255-4.974zM22.815 41.563c-.085-.453-.093-.928-.056-1.39.08-1.016.483-1.535 1.39-1.756.563-.133 1.15-.19 1.726-.245.66-.064.928.34.747 1.135-.08.804-.273 1.53-1.244 1.835-.66.203-1.25.62-1.884.907-.464.212-.63-.185-.683-.486zm1.37 8.245c-.145-.112-.416-.21-.434-.348-.08-.555-.31-1.248-.074-1.658.76-1.325 1.888-2.304 3.463-2.58.5-.093.9.258 1.03.714.07.26-.023.715-.215.885-1.114.987-2.278 1.92-3.43 2.86-.083.07-.21.08-.342.128zm7.746 3.215c-.756 1.17-1.53 2.33-2.32 3.477-.118.17-.39.227-.73.413-.387-.32-.86-.636-1.245-1.04-.72-.74-.783-1.407-.14-2.154.758-.875 1.585-1.7 2.422-2.5.497-.477 1.09-.443 1.552-.02.676.61.85 1.225.46 1.825zm5.92 2.293c-.508 1.155-1.03 2.304-1.524 3.47-.22.513-.384 1.052-.576 1.578-.644-.174-1.33-.277-1.932-.55-.427-.193-.67-.72-.4-1.17.82-1.375 1.678-2.733 2.583-4.055.373-.536 1.008-.498 1.58-.31.195.06.345.26.517.393-.08.217-.154.434-.245.644zm-3.69-16.163c.014-.87.264-1.557.89-2.18 2.08-2.07 4.3-3.903 7.06-5.034 1.285-.528 2.48-1.27 3.722-1.904 1.867-.955 3.715-1.946 5.613-2.83 1.163-.54 2.404-.906 3.74-.724 1.427-.216 2.51.416 3.268 1.557.772 1.154 1.598 2.33 2.08 3.615.627 1.675.656 3.486-.475 5.01-.897 1.204-1.91 2.356-3.03 3.354-2.083 1.855-4.307 3.554-6.43 5.372-2.103 1.8-4.608 2.7-7.237 3.285-2.503.555-4.675-.213-6.207-2.248-1.613-2.14-3.043-4.415-2.993-7.28zM43.1 61.84c-.228.024-.46.006-.88.006-.253-.096-.69-.233-1.104-.422-.478-.215-.658-.64-.52-1.123.495-1.756 1.313-3.42 1.22-5.332-.04-.843 1.066-1.44 2.086-1.257.19.035.42.236.493.41.076.19.024.457-.03.673-.464 1.82-.49 3.637.014 5.447.238.85-.292 1.504-1.28 1.6zm19.524-1.165c-.658.462-1.337.907-1.93 1.442-.484.43-.897.253-1.156-.106-.81-1.133-1.578-2.303-2.3-3.5-.6-.993-1.394-1.51-2.576-1.435-.462.032-.944-.12-1.39-.037-.422.083-.884.287-1.2.58-.674.62-1.187 1.436-1.91 1.988-1.343 1.027-1.933.32-2.07-.978-.185-1.725-.353-3.454-.527-5.18 1.224-1.276 2.898-1.875 4.32-2.855.67-.46 1.307-.976 1.937-1.49 2.16-1.774 4.35-3.512 6.45-5.353 1.134-.994 2.16-2.12 3.15-3.255 1.95-2.23 2.585-4.875 2.37-7.797-.104-1.42-.364-2.76-1.116-3.985-.55-.896-1.074-1.8-1.617-2.7-1.583-2.634-3.934-3.843-6.987-3.75-.58.015-1.166 0-2.016 0-2.63-.316-5.25.48-7.727 1.936-1.806 1.06-3.652 2.054-5.473 3.085-.71.4-1.373.904-2.117 1.214-3.045 1.27-5.736 3.07-8.13 5.32-.576.534-1.083.635-1.85.292-.83-.37-1.78-.464-2.674-.7-.21-.056-.483-.16-.57-.326-.065-.113.082-.435.227-.555 1.157-.975 2.323-1.94 3.512-2.87.64-.506 1.317-.963 2.01-1.395 1.882-1.168 3.693-2.4 5.237-4.027 1.21-1.27 2.74-2.137 4.352-2.863 4.665-2.1 9.288-4.288 13.97-6.35 2.898-1.278 5.825-.896 8.255.992 2.28 1.77 4.25 3.956 6.274 6.044.544.558.875 1.38 1.14 2.14 1.347 3.86 2.343 7.79 2.136 11.94-.06 1.218-.383 2.307-1.09 3.253-2.013 2.704-3.982 5.44-6.837 7.386-1.44.98-2.738 2.164-4.128 3.22-.672.506-1.163 1.09-1.46 1.895-.44 1.195-.488 1.587.556 2.438 1.818 1.48 2.43 3.64 3.42 5.596.226.443-.19.552-.46.74zm4.683 8.374c-.257.647-.545 1.287-.87 1.9-.136.25-.38.48-.63.61-.08.04-.37-.238-.515-.41-1.127-1.363-1.136-2.988-1.123-4.64.115-.678.206-1.36.37-2.028.028-.114.517-.25.546-.21.83 1.248 1.657 2.504 2.405 3.802.126.22-.062.667-.187.975zm40.93 27.725c-1.06.718-2.107 1.52-3.28 1.978-2.875 1.104-5.316 2.837-7.646 4.78-.09.072-.175.155-.27.223-.66.46-1.295.352-1.775-.38-.575-.875-1.07-1.8-1.64-2.68-.564-.88-1.135-1.76-1.776-2.58-.456-.585-1.532-.637-2.254-.214-.596.347-1.005 1.124-.807 1.78.235.77.53 1.537.893 2.254 1.15 2.285 2.35 4.542 3.517 6.813.576 1.13.365 1.6-.882 2.083-1.217.474-1.62.323-2.27-.76-2.93-4.885-5.466-10.016-8.81-14.653-1.904-2.64-3.916-5.204-5.875-7.81-.42-.558-.82-1.13-1.234-1.692-.56-.78-.916-1.596-.822-2.595.064-.693.056-1.4.01-2.09-.058-.932-.575-1.535-1.48-1.67-.656-.103-1.48.274-1.877-.515-.35-.706-.532-1.5-.664-1.884.21-1.57.354-2.725.533-3.875.03-.18.23-.467.355-.467.197 0 .443.15.587.31.31.345.582.726.847 1.108 2.783 4.02 5.554 8.044 8.35 12.054.515.75.954 1.536 2.01 1.792.965.233 1.333 1.244 1.838 2.01.687 1.045 1.678 1.586 2.837 1.88.612.153 1.147-.054 1.58-.502.447-.462.497-1.024.362-1.62-.02-.113-.096-.21-.128-.324-.324-1.068-1.616-1.66-1.458-2.96 1.004-.586 2.038-1.12 2.995-1.768 1.536-1.045 3.035-2.15 4.525-3.262.555-.416 1.027-.947 1.573-1.383 2.594-2.08 2.607-2.03 4.26.907.18.325.15.96-.056 1.278-.564.875-1.288 1.65-1.92 2.485-1.4 1.847-1.617 3.845-.528 5.894.706 1.33 1.533 2.605 2.38 3.853.314.467.81.83 1.27 1.17.82.6 1.716.724 2.614.182.693-.422 1.355-.896 2.02-1.368 1.29-.912 1.458-.864 2.25.698.055.105.096.213.155.313.303.507.06.962-.306 1.21z"/></svg>