<svg xmlns="http://www.w3.org/2000/svg" width="128" height="128" viewBox="0 0 128 128"><path d="M106.64 41.963c0-2.23.064-4.462-.018-6.686-.107-2.688-.626-5.288-1.96-7.685-1.077-1.94-2.15-3.895-3.087-5.91-1.024-2.207-2.608-3.828-4.6-5.15-3.648-2.422-7.637-4.108-11.755-5.505-.63-.213-1.305-.345-1.963-.384C77 10.29 70.79 10.6 64.695 12.207c-.847.224-1.696.57-2.453 1.013-3.99 2.325-7.38 5.376-10.128 9.06-2 2.68-3.51 5.692-4.704 8.823-.47 1.23-.794 2.557-.935 3.864-.122 1.117-.192 2.197-.762 3.197-.357.63-.33 1.29.032 1.916.864 1.47 1.148 3.1 1.44 4.753.445 2.526 1.195 4.974 2.25 7.317.46 1.013.946 2.016 1.42 3.025-.533.965-1.065 1.935-1.605 2.893-1.263 2.23-2.52 4.46-3.802 6.68-3.002 5.204-6.1 10.35-9.843 15.075-1.037 1.31-2.155 2.556-3.136 3.906-1.96 2.7-3.837 5.46-5.767 8.18-.708 1-1.42 2.006-2.23 2.917-1.046 1.175-1.293 2.352-1.012 3.968.956 5.472 2.433 10.848 3.13 16.376.24 1.938.83 2.2 2.77 1.9.64-.1 1.314-.35 1.844-.72 1.454-1.004 3.13-1.713 4.293-3.132.816-.993 1.816-1.15 2.993-.59 1.366.655 2.845.493 4.278.34 1.78-.19 3.147-1.076 3.867-2.775.392-.922.79-1.843 1.067-2.802.555-1.917 1.035-3.86 1.54-5.79.374-1.423 1.027-2.647 2.124-3.693 1.53-1.458 2.94-3.044 4.4-4.575.23-.238.464-.48.71-.704.736-.692 1.11-.826 2.04-.25 1.34.826 2.78 1.063 4.16.545 1.764-.665 3.487-1.525 4.652-3.125 1.376-1.893 2.73-3.797 4.08-5.71 1.48-2.1 2.713-4.32 3.483-6.805.393-1.263 1.06-2.443 1.636-3.648.478-1.003 1.243-1.525 2.41-1.387 2.964.363 5.756-.33 8.446-1.5 1.43-.622 2.84-1.295 4.214-2.032 1.373-.742 2.615-1.672 3.618-2.923.544-.677 1.22-1.276 1.922-1.8 3.157-2.385 5.36-5.624 7.816-8.64.198-.245.24-.614.38-.915.955-2.048 1.435-4.205 1.447-6.464.01-2.005.003-4.01.003-6.02h-.138zm-6.52 5.066c-.99 2.97-2.21 5.814-4.022 8.393-.713 1.017-1.518 1.875-2.6 2.533-1.23.747-2.38 1.64-3.517 2.528-2.02 1.58-4.123 3.023-6.4 4.22-1.22.64-2.48 1.073-3.84.928-1.83-.197-3.49.582-5.252.762-.814.085-1.42.725-1.68 1.485-1.095 3.15-2.93 5.976-3.978 9.156-.59 1.792-1.584 3.41-2.787 4.913-1.46 1.82-2.74 3.786-4.156 5.645-1.022 1.346-1.193 1.34-2.727.402-.57-.352-1.105-.753-1.678-1.097-1.394-.837-2.487-.81-3.627.33-1.808 1.808-3.518 3.717-5.27 5.587-.602.646-1.087 1.485-1.815 1.92-1.703 1.013-2.315 2.59-2.71 4.368-.38 1.737-.79 3.467-1.247 5.186-.196.745-.49 1.474-.813 2.178-.256.567-.797.79-1.39.65-.752-.178-1.473-.48-2.224-.67-1.76-.445-3.268-.12-4.506 1.356-.848 1.013-1.864 1.894-2.816 2.825-.224.22-.422.16-.51-.137-.215-.745-.487-1.483-.622-2.244-.33-1.86-.597-3.73-.89-5.6-.153-.98-.554-2-.413-2.934.15-1.018 1.456-1.254 2.1-2.018 1.36-1.617 2.737-3.22 4.164-4.78.512-.56 1.115-1.096 1.784-1.44 1.13-.59 1.786-1.206 1.15-2.596-.226-.49.364-1.136.893-1.183.884-.073 1.776-.073 2.66-.145 1.14-.096 2.15-.523 3.008-1.3 1.037-.943.867-2.42-.366-3.047-.096-.05-.2-.093-.3-.134-.6-.24-1.466-.31-1.748-.753-.49-.77.335-1.42.762-2.02 1.088-1.54 1.915-3.263 3.315-4.59.374-.355.57-.95.74-1.46.56-1.695 1.54-2.844 3.34-3.393 1.02-.31 2.01-.995 2.79-1.74.935-.897 1.09-1.782.09-2.927-.865-.985-.81-1.036-.295-1.873 1.173-1.893 2.383-3.763 3.502-5.685.495-.853 1.157-1.8.846-2.81-.384-1.25.03-1.754 1.152-2.2 1.124-.447 2.155-1.137 3.204-1.76.38-.22.76-.503 1.01-.85.38-.533.76-1.118.465-1.847-.31-.766-1.327-1.454-2.125-1.333-1.223.174-2.373.582-3.393 1.314-.446.32-.892.65-1.372.913-.112.06-.47-.1-.54-.243-.24-.493-.502-1.013-.566-1.547-.047-.375.08-.972.35-1.155 1.553-1.07 3.17-2.053 4.77-3.054.845-.53 1.74-.99 2.544-1.577.687-.504.818-1.284.667-2.108-.152-.816-.96-1.48-1.677-1.24-1.575.54-3.13 1.14-4.675 1.76-.927.372-1.814.84-2.732 1.238-.325.143-.826-.36-.864-.792-.067-.735.154-1.347.843-1.65.813-.36 1.664-.62 2.494-.94 1.46-.566 2.874-1.215 4.015-2.333.512-.497.72-1.1.64-1.813-.058-.53-.52-1.125-1.013-1.178-.77-.08-1.547-.1-2.32-.15 0 .025-.003.052-.005.08-.55-.03-1.104-.03-1.647-.102-.138-.02-.26-.273-.348-.444-.043-.076-.006-.246.056-.304.405-.36.776-.83 1.25-1.026 1.75-.712 3.538-1.33 5.31-1.988.833-.31 1.69-.578 2.49-.96.725-.35 1.305-.94 1.285-1.803-.02-.845-.608-1.397-1.297-1.823-1.235-.766-2.53-.72-3.86-.336-.08.024-.274-.08-.276-.13-.004-.187.028-.378.082-.556.027-.1.11-.196.194-.27.164-.144.326-.32.523-.41 3.642-1.642 6.944-3.983 10.782-5.223.213-.07.41-.194.624-.234 3.067-.518 6.136-1.094 9.264-.882 1.226.082 2.353.58 3.4 1.275 1.484.977 3.015 1.887 4.522 2.832.284.177.57.358.816.576 4.457 3.935 7.806 8.564 8.76 14.578.402 2.52.513 5.086.746 7.63.1 1.13-.135 2.195-.49 3.273zm-9.4-9.72h-.017c0-.78-.043-1.56.01-2.335.106-1.46-.557-2.528-1.54-3.527-2.03-2.075-4.445-3.2-7.338-3.54-3.368-.394-6.168.513-8.143 3.29-1.283 1.804-2.398 3.743-3.424 5.708-.608 1.163-1.067 2.48-.87 3.85.385 2.668 1.605 4.81 4.022 6.182 3.022 1.713 6.27 2.162 9.664 1.76.54-.064 1.093-.252 1.574-.512 3.91-2.12 6.33-5.176 6.067-9.873-.02-.335-.005-.67-.005-1.003zm-5.475 3.374c-.18.395-.373.832-.686 1.11-.813.72-1.538 1.638-2.795 1.582-.7-1.085-1.81-1.94-1.822-3.403-.017-2.033.552-3.932 1.344-5.775.256-.594.815-.76 1.382-.66.642.112 1.28.317 1.89.55.92.357 1.4 1.04 1.355 2.057-.016.33-.003.664-.003 1.208.177 1.045-.16 2.208-.672 3.33zm-18.657 21.65c-.702-.17-1.323-.018-1.82.525-1.355 1.48-2.75 2.92-4.047 4.445-1.872 2.202-3.68 4.46-5.504 6.705-.845 1.033-1.7 2.062-2.485 3.14-.665.91-1.115 1.927-1.03 3.066.003 1.47 1.17 2.36 2.47 1.87.387-.146.76-.443 1.04-.758 1.26-1.408 2.5-2.83 3.713-4.284 2.706-3.246 5.5-6.424 7.82-9.98.613-.942 1.212-1.86 1.19-3.052-.014-.807-.513-1.476-1.345-1.677z"/></svg>