<svg xmlns="http://www.w3.org/2000/svg" width="128" height="128" viewBox="0 0 128 128"><path d="M123.714 47.29c.005-3.636.07-7.265-.725-10.865-.454-2.03-.898-4.023-2.03-5.787-.75-1.155-1.73-1.906-3.22-2.097-1.81-.23-3.603-.457-5.436-.356-3.388.192-6.778.348-10.168.525-1.696.086-3.396.153-5.086.293-4.104.35-8.2.915-12.308 1.056-4.85.17-9.713.037-14.57-.065-2.783-.06-5.565-.443-8.35-.47-11.167-.11-22.34-.135-33.512-.21-1.69-.01-3.36.04-5.058-.366-1.262-.3-2.695-.263-3.972.01-1.333.28-2.656.48-3.964.324-2.94-.348-4.503 1.312-5.666 3.616-.27.53-.405 1.14-.506 1.732-.256 1.552-.495 3.11-.666 4.675-.345 3.255-.555 6.525-.97 9.773-.574 4.45-1.106 8.904-1.096 13.397.01 5.82-.163 11.63.45 17.456.47 4.463 1.262 8.875 1.762 13.33.066.59.286 1.18.514 1.74.77 1.883 1.998 2.56 4.035 2.238.474-.073 1-.505 1.378-.384 2.255.72 4.576.382 6.86.57 4.463.367 8.92.94 13.394 1.105 7.03.26 14.075.097 21.102.733 3.008.272 6.065.045 9.1.045l.002.23c4.004-.093 8.032.033 12.01-.346 3.514-.332 7.015-.473 10.53-.564 1.204-.032 2.4-.292 3.6-.422 3.01-.328 6.016-.725 9.035-.944 4.352-.31 8.717-.49 13.074-.72 2.24-.12 4.256-.914 6.13-2.084.493-.31 1-.768 1.233-1.28.848-1.872 1.66-3.755 1.62-5.905-.064-3.64.085-7.284-.02-10.922-.154-5.475.733-10.89.87-16.35.01-.36.117-.715.15-1.075.16-1.69.39-3.375.45-5.067.078-2.187.018-4.37.02-6.56zm-5.104 8.107c-.87 4.06-.644 8.218-1.152 12.313-.197 1.562-.18 3.15-.22 4.73-.12 5.218-.042 10.448-.767 15.637-.05.363-.046.725-.1 1.088-.1.675-.526 1.086-1.17 1.216-.593.12-1.2.166-1.804.205-9.455.637-18.918 1.05-28.4.84-2.054-.042-4.105-.315-6.155-.486-.604-.054-1.21-.15-1.812-.17-5.946-.215-11.893-.478-17.838-.608-5.225-.11-10.457-.03-15.68-.11-8.266-.126-16.505.398-24.746.97-.904.06-1.28-.204-1.574-1.103-.544-1.635-.67-3.318-.725-5.025-.2-6.193-.736-12.37-1.62-18.487-.527-3.614-.647-7.246-1.09-10.86-.613-4.977.225-9.927.847-14.862.21-1.685.44-3.37.75-5.038.234-1.252.724-1.67 1.956-1.762 1.33-.1 2.67-.146 4.003-.15 5.59-.015 11.183-.005 16.774-.005v.155c4.008 0 8.02.08 12.032-.02 5.355-.13 10.7.214 15.997.784 7.648.826 15.272.61 22.91.354 2.54-.083 5.07-.463 7.602-.677 2.54-.22 5.08-.408 7.616-.59 2.42-.17 4.844-.33 7.265-.467 1.576-.09 3.147-.157 4.7.317.81.245 1.286.768 1.416 1.49.37 2.028.83 4.065.904 6.11.156 4.49.094 8.988.117 13.484.003.245.02.498-.03.73zM90.58 72.94c-1.034-.534-2.11-.468-3.2-.464-8.618.06-17.243-.15-25.855.46-5.344.375-10.67-.334-16.006-.492-1.57-.046-3.138-.28-4.7-.47-1.466-.173-2.292.3-2.762 1.723-.19.567-.364 1.173-.38 1.765-.07 2.424-.1 4.858-.092 7.282 0 .864.352 1.288 1.32 1.444 2.868.463 5.74 1.04 8.63 1.205 3.876.224 7.773.187 11.653.11 3.395-.063 6.784-.485 10.176-.485 6.304 0 12.623-.424 18.797.46.47 0 .837.012 1.2 0 1.862-.067 2.563-.67 2.933-2.565.21-1.07.414-2.147.535-3.23.164-1.452.04-2.89-.27-4.337-.256-1.216-.953-1.87-1.982-2.403zm-3.546 9.363c-3.74-.272-7.503-.267-11.257-.38v.136c-3.032 0-6.066-.068-9.094.017-2.286.066-4.565.424-6.85.477-4 .088-8 .092-11.998.026-1.44-.024-2.882-.32-4.315-.548-1.16-.184-2.74.456-3.37-.69-.526-.954-.283-2.347-.306-3.546-.062-3.36-.02-3.622 3.475-2.948 2.17.42 4.312.56 6.49.59 12.36.157 24.717.69 37.085.467.6-.008 1.224 0 1.803.14.274.066.64.45.666.72.107 1.084.11 2.176.125 3.266.037 2.54-.48 2.423-2.457 2.276zm20.935-41.91c-.604-.012-1.214-.002-1.82-.01-4.366-.035-8.735.07-13.082-.544-1.437-.205-2.917-.18-4.368-.098-.815.046-1.635.363-2.4.68-.46.193-.79.793-.495 1.206 1.094 1.553.672 3.245.632 4.92-.05 1.94-.06 3.882-.03 5.823.014.665.455 1.168 1.138 1.168 1.817 0 3.682.163 5.44-.19 2.897-.58 5.788-.515 8.698-.628 2.062 0 4.125.037 6.187-.035.39-.017.926-.392 1.117-.75.957-1.804 1.355-8.543.653-10.356-.285-.73-.856-1.167-1.675-1.184zm-1.367 6.104c-.092.198-.294.405-.495.49-.443.185-.912.37-1.38.417-.965.096-1.937.155-2.908.14-3.888-.073-7.742.26-11.568.965-1.46.267-1.587.142-1.368-1.44.128-.96.32-1.886.05-2.87-.135-.5.246-.958.812-.965 1.933-.032 3.872-.01 5.387-.01 2.722.187 5.018.372 7.313.49.84.043 1.69-.043 2.53-.133.64-.072 1.323-.053 1.65.475.466.752.335 1.634-.022 2.44zm-84.95 6.14c3.516.133 7.02.076 10.482-.692 1.173-.262 1.72-.796 1.873-1.91.19-1.433.44-2.875.517-4.32.085-1.562.187-3.143-.354-4.682-.26-.736-.59-1.323-1.4-1.496-.825-.175-1.645-.437-2.48-.48-1.566-.08-3.143-.025-4.716-.025v-.205c-1.576 0-3.152-.03-4.725.006-1.4.032-2.1.587-2.128 1.93-.068 3.27-.03 6.544-.014 9.814 0 1.003.67 1.515 1.517 1.803.456.153.946.24 1.424.258zM26.37 42.63c1.085 0 2.173-.033 3.258.007.968.03 1.326.39 1.35 1.297.026 1.086.028 2.173 0 3.258-.028.85-.393 1.307-1.247 1.55-.573.165-1.167.328-1.76.352-1.805.07-3.616.087-5.425.085-.533-.004-.857-.375-.925-.91-.046-.36-.065-.723-.06-1.08.084-5.31-.83-4.834 4.812-4.56zm4.76 13.69c-1.62.256-3.387-.53-4.88.67-.136 1.675-.27 3.347-.402 5.02-.02.24-.002.48-.002.725h.077c0 1.327-.004 2.656.002 3.983.002.36.032.725.075 1.083.12.994.633 1.616 1.564 1.706 3.623.34 7.237.107 10.82-.442 1.45-.22 2.052-.973 2.09-2.517.065-2.656.02-5.312.012-7.968 0-.243-.028-.49-.096-.72-.215-.724-.603-1.27-1.39-1.514-1.763-.547-3.547-.687-5.366-.403-.832.13-1.667.25-2.5.38zm4.79 3.138c.622-.038 1.124.495 1.13 1.133.02 1.44.02 2.884-.05 4.32-.015.295-.326.8-.544.827-2.25.245-4.446 1.077-6.755.757-.527-.072-.817-.48-.84-.994-.034-.838-.01-1.683-.01-2.518h-.024c0-.602-.01-1.205.004-1.805.018-.66.288-1.17 1.006-1.233 2.027-.18 4.053-.356 6.085-.485zm16.504-8.78c.145 2.412.974 3.175 3.4 3.227.356.008.716-.103 1.076-.13 2.048-.154 4.093-.292 6.14-.444.6-.043 1.21-.045 1.796-.17.74-.162 1.315-.575 1.467-1.4.576-3.115.78-6.227-.085-9.323-.715-2.566-1.34-3.093-3.82-2.667-1.925.333-3.832.406-5.76.385-.484-.006-.967.03-1.446.08-1.555.167-2.23.633-2.496 2.147-.27 1.53-.283 3.107-.41 4.663.042.004.082.004.127.01 0 1.21-.06 2.42.01 3.623zm8.196-7.4c.484.004.968.004 1.446.035.747.047 1.147.397 1.173 1.083.034.84.01 1.688.01 2.532h.01c0 .602.01 1.205 0 1.81-.01.676-.325 1.164-1.014 1.26-1.547.22-3.093.47-4.648.558-1.787.096-2.216-.3-2.225-2.005-.03-5.502-.59-5.34 5.248-5.27zm14.26 22.175c.065.715.23 1.43.436 2.114.18.595.578 1.045 1.245 1.182 3.356.68 6.72.792 10.067-.015 1.108-.264 1.853-.914 2.17-2.15.79-3.094.666-6.222.536-9.353-.032-.75-.65-1.323-1.427-1.408-2.4-.264-4.806-.495-7.208-.734-1.71-.172-3.375-.174-4.613 1.32-1.16.263-1.494 1.053-1.446 2.154.04.963.006 1.933.006 2.11.097 2.123.12 3.454.234 4.78zm3.154-6.884c.843-.043 1.694-.013 2.827-.013 1.405.178 3.09.377 4.765.612.547.077.802.494.82 1.02.024.607.04 1.217-.005 1.82-.33 4.39-.67 4.036-4.235 4.088-.366.003-.728-.005-1.093-.02-3.072-.092-3.36.4-3.467-3.003-.04-1.198-.37-2.382-.495-3.58-.053-.556.34-.903.885-.93zm-38.512-5.553c.932.17 1.91.19 2.854.128 1.325-.083 2.638-.288 3.95-.47.832-.116 1.664-.272 2.485-.45.785-.172 1.185-.688 1.368-1.488.384-1.68.39-9.163-.035-10.77-.173-.656-.578-1.03-1.234-1.132-1.073-.162-2.155-.435-3.227-.42-1.807.02-3.612.22-5.416.367-.358.032-.715.134-1.065.228-.9.25-1.422.844-1.483 1.812-.103 1.69-.154 3.38-.23 5.248 0 1.402-.04 2.973.01 4.544.06 1.803.273 2.083 2.023 2.404zm.95-7.2h.1c0-.96-.043-1.928.016-2.886.028-.515.392-.9.94-.906 1.567-.02 3.135-.026 4.698.026.538.018.856.48.866.984.032 1.81.053 3.623-.043 5.427-.017.356-.54.936-.885.98-1.664.21-3.345.3-5.022.353-.213.004-.623-.456-.642-.72-.07-1.08-.03-2.166-.03-3.252zm30.28 6.602c.57.163 1.184.2 1.784.247 2.19.17 4.32-.442 6.475-.53 4.05-.165 3.85-1.023 3.835-4.794-.013-.24.032-1.218-.12-2.165-.214-1.31-.524-2.604-.88-3.88-.364-1.305-.923-1.704-2.398-1.745-1.33-.037-2.66-.004-3.99.062-1.717.085-3.352.642-4.74 1.577-1.22.82-.864 2.42-1.163 3.688-.085.352-.263.696-.277 1.047-.068 1.567-.16 3.135-.105 4.703.035.925.707 1.534 1.58 1.787zm1.286-4.67c.136-1.535.5-3.054.768-4.577 1.49-.333 3.004-.505 4.344-.58 1.525-.035 1.888.273 2.22 1.495.345 1.292.67 2.573.45 3.898-.06.37-.515.893-.867.96-1.646.315-3.317.536-4.987.72-1.344.145-2.06-.504-1.927-1.917zm33.47 19.364c.69-1.995.532-4.053.737-6.098 0-.962.025-1.928-.005-2.89-.058-1.828-.573-2.465-2.33-2.547-2.986-.145-5.95-.29-8.884.75-1.07.38-1.792.75-1.837 1.815-.12 2.89-.155 5.79-.168 8.683-.002.64.432 1.104 1.056 1.326.453.157.91.41 1.373.424 2.774.08 5.548.14 8.32.12.94-.01 1.425-.69 1.737-1.584zm-6.06-1.22c-.602 0-1.21-.017-1.812.004-1.583.057-1.76-.538-1.757-1.642.002-1.813.002-3.627.066-5.438.007-.243.47-.704.565-.666 1.77.696 3.59.294 5.39.316.99.016 1.373.335 1.406 1.23.03.844.03 1.693.004 2.538-.13 4.016.16 3.648-3.858 3.66zm9.677 8.026c-.043-1.19-.538-1.787-1.73-1.933-2.885-.34-5.765-.363-8.577.557-.77.25-1.21.766-1.234 1.58-.073 2.532-.146 5.065-.177 7.6-.006.592.026 1.26.287 1.76.254.484.808 1.115 1.262 1.14 2.88.15 5.774.18 8.664.187.702 0 1.265-.675 1.333-1.49.153-1.683.233-3.37.338-5.056h-.15c0-1.448.045-2.897-.014-4.34zm-6.655 8.116c-.48-.013-.98.014-1.424-.13-.284-.088-.65-.432-.683-.7-.21-1.66-.376-3.325-.47-4.99-.047-.8.54-1.358 1.313-1.42.477-.034.956-.03 1.438-.03 3.947.004 3.637-.337 3.646 3.71.003 3.724.267 3.636-3.82 3.56zm-71.347-8.692c-1.56-.146-3.125-.19-4.69-.277l-.003.1c-1.326 0-2.654-.034-3.98.012-1.68.056-2.344.836-2.252 2.547.02.36-.01.747.113 1.073.56 1.52.417 3.1.478 4.662.027.597.064 1.205.188 1.792.162.774.687 1.333 1.465 1.392 1.56.113 3.137.208 4.696.123 1.186-.066 2.364-.386 3.533-.647 1.16-.26 1.766-.973 2.08-2.187.66-2.562.224-5.03-.3-7.51-.14-.64-.718-1.025-1.326-1.08zm-2.28 8.59c-1.072.183-2.14.39-3.22.534-1.72.224-2.242-.187-2.392-1.824-.055-.605-.082-1.21-.12-1.816 0-.604-.025-1.21.005-1.81.03-.577.427-.874.947-.886 1.696-.043 3.392-.056 5.088-.036.836.008 1.256.478 1.3 1.397.044.843.052 1.696.033 2.542-.037 1.39-.288 1.664-1.637 1.9zM71.25 58.866c-.06-1.367-.563-2.016-1.95-2.173-1.67-.186-3.37-.053-5.05-.21-1.6-.148-2.784.45-3.816 1.59-.425.472-.68.933-.62 1.602.14 1.554.223 3.115.313 4.675.04.72.023 1.452.068 2.17.11 1.932.295 2.303 2.293 2.572 2.138.286 4.317.325 6.48.344 1.52.01 2.13-.632 2.24-2.253.093-1.44.018-2.89.018-4.34h.037c0-1.322.046-2.653-.014-3.976zm-5.61 7.71c-2.72-.083-2.985.053-3.07-3.04-.13-4.668-.656-4.066 4.202-4.1.24 0 .48.004.72.028.81.075 1.307.54 1.377 1.37.07.836.092 1.678.12 2.215.072 3.87-.018 3.626-3.35 3.527zM44.22 59.7c-.027 1.807.037 3.617.12 5.42.03.594.263 1.17.357 1.76.163 1.003.87 1.426 1.74 1.572 2.154.366 4.32.373 6.47 0 1.57-.27 2.105-.86 2.2-2.39.073-1.197.018-2.405.018-3.607.05 0 .1 0 .154-.003.08-.837.262-1.68.22-2.512-.06-1.063-.22-2.136-.5-3.166-.1-.37-.64-.82-1.033-.878-2.517-.398-5.062-.46-7.485.435-1.468.543-2.246 1.798-2.264 3.373zm3.4-.393c1.42-.256 2.852-.46 4.287-.6.51-.048.917.306.943.87.032.723.008 1.448.008 2.17-.045 4.886-.32 4.417-4.79 4.228-.342-.016-.87-.512-.946-.864-.3-1.41-.49-2.85-.644-4.29-.1-.92.224-1.345 1.147-1.51z"/></svg>