<svg xmlns="http://www.w3.org/2000/svg" width="128" height="128" viewBox="0 0 128 128"><path d="M116.704 25.68c-.1-.516-.235-1.036-.256-1.556-.107-2.805-1.088-5.37-2.195-7.885-1.346-3.057-1.488-3.18-4.4-4.67-.547-.28-1.17-.498-1.774-.567-1.78-.213-3.57-.335-5.355-.49-.004.037-.008.08-.01.12-.85 0-1.697-.047-2.54.01-2.022.136-4.073.565-5.65 1.777-2.163 1.66-4.444 3.244-6.15 5.44-.908 1.166-1.833 2.318-2.718 3.496-.955 1.27-1.754 2.613-2.34 4.11-.735 1.863-1.638 3.66-2.506 5.47-.334.707-.91 1.096-1.74 1.18-3.57.35-7.134.765-10.7 1.115-2.94.29-5.89.51-8.828.773-.416.037-.848.096-1.23.248-1.96.783-3.976 1.478-5.678 2.76-2.194 1.65-4.387 3.306-6.485 5.07-1.534 1.284-2.943 2.72-4.35 4.143-1.26 1.274-2.4 2.67-3.67 3.933-1.866 1.857-3.864 3.596-5.706 5.484-2.14 2.19-4.15 4.51-6.254 6.736-3.697 3.917-7.018 8.173-10.895 11.936-2.61 2.533-2.594 2.59-3.334 6.205-.4 1.957-.94 3.898-.9 5.934.016.994.235 1.837.8 2.665 1.14 1.68 2.608 3.043 4.053 4.437 1.365 1.32 2.81 2.58 4.032 4.027 2.79 3.306 5.46 6.71 8.192 10.07.333.403.66.846 1.083 1.15 3.323 2.394 6.317 5.257 10.086 7.034 2.987 1.408 6.04 1.792 9.18.766 1.708-.557 3.404-1.112 5.164-1.468.493-.1 1.006-.337 1.397-.65 1.65-1.317 3.21-2.75 4.885-4.026 4.72-3.595 8.907-7.782 13.264-11.776 1.088-.996 2.302-1.853 3.47-2.767 2.652-2.08 5.514-3.907 7.836-6.405.79-.846 1.668-1.615 2.542-2.38 1.585-1.396 3.217-2.736 4.79-4.148.78-.702 1.476-1.474 1.706-2.595.64-3.097 1.36-6.174 2.01-9.267.368-1.752.593-3.534.988-5.28 1.37-6.08 2.395-12.213 2.645-18.45.045-1.077.563-1.476 1.45-1.734 2.34-.677 4.566-1.618 6.7-2.808 3.525-1.963 6.165-4.736 8.056-8.282 1.5-2.81 1.944-5.758 1.335-8.88zM80.507 47.668c.023.452-.62 1.163-1.188 1.293-.2.047-.407.057-.69.093-.23-.053-.56-.064-.82-.203-.25-.135-.538-.372-.614-.623-.135-.452.18-.776.582-.937.378-.155.785-.264 1.19-.335.667-.115 1.514.3 1.537.712zM91.6 46.58c-.177 2.738.075 5.494-.474 8.21-.31 1.548-.52 3.12-.875 4.657-.76 3.285-1.635 6.544-2.36 9.838-.33 1.488-.83 2.735-2.01 3.81-1.077.982-1.845 2.294-2.763 3.457-.52.66-1.045 1.32-1.585 1.97-.227.272-.614.19-.71-.143-.173-.608-.274-1.245-.51-1.826-.198-.476-.51-.92-.836-1.323-.594-.724-1.393-.91-2.287-.685-.83.208-1.338.885-1.405 1.883-.027.42-.006.842-.006 1.266 0 1.585-.1 3.18.04 4.75.133 1.52-.36 2.64-1.49 3.6-.963.817-1.84 1.74-2.776 2.592-.13.117-.443.21-.557.136-.135-.09-.205-.367-.21-.565-.05-1.48-.086-2.956-.108-4.436-.02-1.256-.594-2.21-1.53-3-1.077-.907-2.6-.547-3.106.806-.218.577-.315 1.226-.334 1.848-.083 2.322-.116 4.646-.157 6.97-.015.74-.037 1.482.008 2.217.055.92-.237 1.64-.97 2.213-1.076.846-2.127 1.728-3.2 2.587-.42.34-.74.18-.81-.4-.303-2.514-.67-5.02-.604-7.564.013-.632-.023-1.27-.112-1.894-.04-.29-.224-.594-.416-.83-.824-1.002-2.38-.893-2.89.292-.453 1.05-.886 2.197-.93 3.317-.114 2.945-.372 5.91.286 8.84.112.51.176 1.06.1 1.57-.056.366-.3.82-.6 1.01-.71.444-1.497.776-2.274 1.107-.728.312-1.28.005-1.362-.767-.26-2.41-.5-4.82-.718-7.236-.083-.945-.07-1.9-.11-2.848-.03-.67-.333-1.213-.8-1.673-.803-.795-2.17-.69-2.73.288-.364.63-.654 1.33-.815 2.038-.656 2.91-.776 5.837-.267 8.796.213 1.243.24 2.517.32 3.78.013.18-.15.373-.238.56-.25-.128-.606-.186-.732-.388-1.235-1.995-2.112-4.122-2.336-6.49-.17-1.783-.38-3.564-.59-5.345-.033-.305-.135-.61-.253-.9-.37-.89-1.67-1.266-2.407-.63-.463.402-.853.924-1.156 1.46-.587 1.043-.624 2.226-.646 3.39-.03 1.47-.013 2.945-.036 4.42-.002.3-.192.382-.433.22-6.794-4.59-12.11-10.46-15.524-17.964-.476-1.045-.75-2.182-1.114-3.278-.163-.493-.19-1.088-.49-1.466-.854-1.067-.527-2.063.228-2.848 1.452-1.51 2.764-3.18 4.67-4.224.998-.55 1.857-1.378 2.72-2.146 1.42-1.264 2.723-2.667 4.21-3.843 1.2-.952 2.142-2.032 2.682-3.44.474-1.238 1.28-2.15 2.39-2.833 1.183-.724 2.095-1.748 3.043-2.745 2.98-3.136 5.78-6.44 8.765-9.557 2.097-2.192 4.645-3.963 7.055-5.84 1.283-.998 2.923-1.167 4.467-1.495 1.337-.284 2.69-.497 4.045-.686.622-.085 1.29-.157 1.888-.02 2.25.5 4.386-.057 6.56-.486 1.333-.263 2.713-.296 4.075-.4.427-.032.766.427.66.843-.076.306-.273.598-.28.9-.054 1.644-.81 2.555-2.395 3.236-3.364 1.444-4.36 5.553-4.037 7.95.28 2.105 1.604 3.452 3.552 4.053 1.837.57 3.79.55 5.64.11 1.476-.35 2.574-1.466 3.404-2.71 1.29-1.95 1.51-4.14 1.075-6.384-.205-1.053-.837-1.944-1.674-2.63-.79-.647-.794-1.442-.5-2.29.308-.896.7-1.765 1.006-2.662.395-1.152 1.136-1.728 2.38-1.605.205.02.423-.05.628-.04.726.04 1.425-.797 2.104-.25.815.657 1.547 1.44 2.18 2.27.287.378.33.998.337 1.51.038 2.005.017 4.014.017 6.02zm19.618-13.378c-2.183 3.705-5.666 5.52-9.47 6.944-.724.273-1.134-.038-1.226-.835-.05-.41.07-.926-.132-1.225-1.355-1.984-2.472-4.16-4.402-5.696-.576-.457-1.248-.803-1.78-1.3-1.09-1.015-2.476-1.058-3.8-1.276-.556-.09-1.178.49-1.702-.147.288-.555.512-1.163.88-1.657 1.394-1.853 2.818-3.684 4.27-5.49 1.403-1.74 3.113-3.14 5.012-4.306 1.02-.625 2.15-.986 3.323-.648 1.658.475 3.347.336 5.023.44 1.383.088 2.435.737 3.01 1.985 1.285 2.793 2.02 5.74 2.38 8.778.127 1.675-.548 3.02-1.38 4.434z"/></svg>