<svg xmlns="http://www.w3.org/2000/svg" width="128" height="128" viewBox="0 0 128 128"><path d="M95.776 109.23c-2.997-3.01-6.065-5.853-10.165-7.434-3.95-1.52-7.85-3.14-12.015-3.992-.82-.168-1.457-.5-1.717-1.362-.096-.318-.272-.61-.427-.907-1.853-3.536-2.447-3.93-6.442-4.248-.557-.045-1.115-.028-1.675-.045-2.165-.066-3.893.885-5.293 2.424-.588.645-1.068 1.448-1.388 2.26-.43 1.095-1.25 1.537-2.276 1.697-1.877.293-3.672.853-5.483 1.423-2.876.904-2.368 1.38-3.85-1.742-.86-1.807-1.586-3.704-2.66-5.376-1.813-2.823-3.424-5.744-4.92-8.738-1.592-3.19-3.197-6.376-4.76-9.582-.547-1.13-1.275-2.054-2.274-2.83-.78-.607-1.414-1.406-2.11-2.12-.447-.45-.516-.955-.205-1.507.52-.91.578-1.902.537-2.916-.048-1.224-.075-2.45-.123-3.676-.047-1.257-.01-1.45 1.127-1.542 1.565-.128 2.715-.835 3.714-1.98 1.978-2.27 4.028-4.476 5.99-6.757 3.796-4.417 8.323-8.067 12.53-12.057.24-.228.52-.416.8-.604 2.035-1.375 3.742-3.097 5.35-4.944.65-.75.88-1.55.69-2.462-.205-.977-.55-1.924-.773-2.898-.47-2.043-2.18-3.014-3.605-4.224-.23-.193-.624-.22-.95-.27-1.4-.212-2.575.15-3.683 1.117-4.03 3.52-8.25 6.817-12.126 10.514-.806.768-1.696 1.45-2.55 2.165-3.683 3.065-7.208 6.314-11.057 9.18-.356.263-.66.6-1 .89-1.34 1.14-2.222 2.455-1.973 4.345.14 1.074-.885 2.098-.213 3.243.08.136.048.49-.052.555-.837.543-1.734.996-2.547 1.57-.632.447-1.19 1.008-1.75 1.554-2.04 1.995-2.332 4.483-1.894 7.123.168 1.013.76 1.867 1.63 2.448 1.015.68 2.26 1.13 3.05 2 .925 1.016.374 2.562.726 3.85 1.024 3.756 1.947 7.535 2.906 11.308.11.43.192.867.29 1.3.68 2.93 1.285 5.886 3.22 8.336.27.34.414.786.594 1.194 1.253 2.856 2.458 5.732 3.77 8.56.558 1.202 1.335 2.304 2.014 3.452 1.658.832 1.856 2.288 1.736 3.927-.05.658.038 1.344.157 1.998.377 2.092 1.04 3.94 3.662 3.996.203.003.407.17.608.266 1.545.736 3.185.928 4.88.93 7.473.013 14.947.05 22.42.085 1.673.008 3.347.033 5.017.07 4.57.107 9.134.224 13.7.335l.008.18c3.108-.247 6.22-.466 9.323-.764.878-.084 1.747-.36 2.59-.636.245-.08.535-.464.555-.724.08-1.11.24-2.254.046-3.328-.288-1.618-.418-3.356-1.684-4.63zM47.98 31.103c.934-.77 1.844-1.58 2.817-2.297.804-.595 1.65-.31 2.16.656.15.29.224.617.356.998-.103.258-.14.643-.35.826-.992.867-2.014 1.707-3.06 2.507-.8.61-1.298.556-2.06-.09-1.382-1.17-1.374-1.355.14-2.6zm-4.91 4.168c.064-.07.23-.155.267-.127.666.515 1.315 1.045 1.884 1.504-.067.307-.07.418-.12.5-.046.08-.2.19-.21.182-.626-.594-1.247-1.196-1.857-1.808-.037-.035-.01-.194.038-.25zm-4.65 3.8c.762-.716 1.172-.774 1.988-.236.456.3.902.62 1.308.98.117.108.08.385.11.582-.276.79-1.22 1.27-1.79.9-.55-.357-1.092-.734-1.625-1.12-.382-.277-.37-.75.013-1.107zm-4.296 3.95c.274-.282.904-.67 1.03-.57.74.593 1.387 1.306 2.052 1.994.03-.14.048-.284.05-.448 0 .69.045.544-.006.49l-.043-.044c-.167.808-.734 1.158-.956 1.004-.717-.51-1.442-1.018-2.1-1.6-.15-.13-.164-.675-.024-.82zm-3.388 3.576c.043-.09.174-.22.23-.205 1.2.33 2.04 1.125 2.685 2.154.037.058-.04.187-.067.284-.136.507-1.017.962-1.276.644-.616-.75-1.21-1.52-1.768-2.312-.07-.096.106-.38.195-.563zM24.886 63.3c-.243.593-.676 1.138-1.123 1.608-.88.92-1.597.975-2.65.328-.19-.117-.36-.26-.553-.37-.917-.51-1.634-1.123-1.454-2.33.22-1.454 1.106-2.547 2.392-2.855.32-.075.654-.09.84-.115 1.935-.064 3.27 1.96 2.55 3.736zm1.678 9.878c-.026-.017-.053-.032-.08-.048l-.004-.11c-.163-.065-.354-.116-.418-.236-.08-.15.005-.384.02-.587.116.096.292.17.333.288.06.165.058.352.066.533.03.01.06.02.085.034.004.036.003.08 0 .123l.403.237c-.462.293-.41.003-.4-.237zm.208-21.323c-.128-.117.002-.66.17-.9.147-.21.592-.45.765-.37.904.41 1.773.903 2.628 1.413.124.075.11.38.17.632-.21.347-.415.743-.685 1.092-.104.134-.435.28-.512.22-.872-.66-1.74-1.34-2.537-2.087zm1.61 27.196l-.308-.892c.267-.078.528-.194.796-.208.073-.006.273.367.224.438-.147.22-.388.378-.71.66zm2.85 6.36c-.383.278-.56-.05-.714-.32-.107-.183-.203-.396-.218-.602-.013-.18.043-.433.164-.533.128-.107.463-.158.55-.073.284.278.498.627.715.918-.23.288-.333.49-.5.61zM61.56 96.385c.294-.3.65-.603 1.035-.728.51-.163 1.077-.238 1.61-.2.876.058 1.743.232 2.614.366.607.094 1.375.79 1.13.94-.34.21-.765.336-1.16.372-.658.06-1.32.017-1.98.017v-.123c-.663 0-1.325.017-1.984-.003-.926-.027-1.53-.37-1.265-.64zm-26.974-.103c-.147-.152-.262-.333-.39-.506.085-.18.124-.437.267-.52.378-.224.798-.382 1.21-.548.09-.036.222-.027.317.01.294.114.288.268.05.498-.398.384-.76.804-1.157 1.192-.032.028-.224-.053-.294-.125zm5.718 5.977c-.462.477-.978.907-1.502 1.316-.71.555-1.254.52-1.657-.196-.65-1.16-1.232-2.36-1.803-3.56-.21-.447.056-.955.49-1.055.214-.05.45-.077.667-.048.773.107 1.43-.955 2.164-.363.96.77 1.575 1.85 2.048 3.066-.128.275-.2.625-.407.84zm49.888 10.982c-.888.077-1.784.067-2.677.08-.67.01-1.34.002-2.008.002v-.087c-1.115 0-2.23.02-3.347-.006-.645-.017-1.466.234-1.832-.44-.23-.424-.032-1.073-.062-1.618-.02-.328-.085-.658-.165-.98-.153-.64-1.013-1.002-1.62-.73-1.082.49-1.74 1.37-2.214 2.403-.23.497-.284 1.17-.928 1.266-.644.096-1.318.027-1.977-.02-.09-.007-.27-.366-.22-.46.37-.68.774-1.344 1.197-1.995.302-.464.7-.87.97-1.355.415-.754.174-1.817-.484-2.457-.728-.704-1.604-.883-2.43-.337-.635.42-1.283.917-1.71 1.533-.827 1.18-1.61 2.42-2.206 3.73-.504 1.1-1.22 1.504-2.35 1.38-.22-.023-.446-.023-.667-.045-.488-.05-.786-.526-.595-.956.687-1.54 1.58-2.94 2.707-4.2.64-.716.572-1.52-.01-2.094-.6-.582-1.5-.743-2.137-.216-.764.635-1.515 1.33-2.095 2.126-1.12 1.53-2.157 3.122-3.14 4.74-.524.86-1.245.822-2.02.71-.316-.045-.604-.27-.366-.678.613-1.06 1.248-2.11 1.85-3.177.227-.403.29-.862-.094-1.22-.408-.382-.867-.717-1.486-.542-.784.224-1.413.675-1.824 1.378-.676 1.154-1.338 2.318-1.973 3.494-.528.98-1.397 1.018-2.304.84-.217-.044-.54-.466-.512-.666.14-.875.47-1.717.56-2.594.033-.344-.303-.868-.62-1.062-.32-.192-.955-.254-1.23-.06-.716.5-1.375 1.122-1.934 1.797-.418.506-.66 1.16-.96 1.757-.283.565-.76.82-1.35.79-1.316-.06-2.674.3-3.94-.353-.007-1.745 1.438-2.4 2.535-3.245 2.405-1.85 5.146-3.136 7.94-4.26 2.06-.83 4.19-1.536 6.35-2.065 6.232-1.524 12.392-1.145 18.397 1.126 3.33 1.263 6.607 2.662 9.92 3.97 1.935.766 2.848 2.395 3.616 4.152.197.46-.284.61-.548.632zm24.936-49.675c-.964-1.883-1.81-3.84-2.925-5.632-4.828-7.763-9.932-15.342-15.623-22.51-.31-.388-.384-.792-.043-1.188 1.74-2.034 1.116-4.422.984-6.72-.042-.738-1.046-1.17-1.823-.9-.105.036-.195.108-.292.16-.096.056-.187.12-.288.166-.59.257-.896.12-.803-.396.155-.864.538-1.717.538-2.576 0-4.06-.283-8.05-3.648-11.015-.835-.736-1.513-1.668-2.398-2.325-.97-.72-2.033-1.426-3.168-1.78-3.083-.972-6.18-.182-9.255.26-.422.06-.852.3-1.204.56-1.86 1.37-3.365 3.14-3.638 5.42-.45 3.75-.844 7.583 1.172 11.103.555.967.526 1.84-.045 2.8-.723 1.214-.737 2.625-.433 3.91.248 1.06-.085 1.664-.733 2.357-2.74 2.933-5.443 5.913-7.448 9.423-2.928 5.13-5.813 10.286-8.693 15.444-.32.576-.473 1.244-.737 1.854-.958 2.222-.592 4.352.4 6.45.358.77.825 1.258 1.768 1.223 3.116-.11 6.236-.162 9.352-.25 1.112-.03 2.224-.096 3.337-.14.87-.037 1.503.337 1.872 1.13.768 1.65 1.935 2.995 3.257 4.208 2.72 2.496 5.83 4.072 9.628 3.97 1.227-.032 2.462.05 3.678-.072 5.088-.5 9.237-2.464 11.288-7.535.043-.102.112-.197.144-.302.23-.782.826-.97 1.547-.968 1.45.002 2.9 0 5.075 0 1.5.114 3.72.29 5.938.456 2.016.154 3.733-1.333 3.84-3.33.06-1.13-.092-2.23-.617-3.25zM93.558 30.24c.16.072.398.313.368.396-.067.192-.245.392-.43.485-.39.2-.814.467-1.217.458-1.114-.02-2.224-.147-3.328-.277-1.43-.167-2.853-.38-4.133-.55-2.17.293-4.15.577-6.14.825-.876.11-1.18-.085-1.55-.91-.08-.18-.113-.46-.026-.608.088-.146.363-.265.55-.256 2.778.138 5.557.357 8.336.42 1.212.03 2.44-.19 3.643-.397 1.36-.235 2.662-.154 3.922.416zM78.054 15.316c.178-.243.515-.42.816-.517 2.41-.778 4.843-.734 7.185.15 1.373.513 2.427 1.566 2.992 2.97.37.924.636 1.89.942 2.837.3.944.55 1.91.905 2.834.74 1.94.725 1.946-1.425 1.875-1.774-.058-3.55-.01-5.325-.01 0-.033 0-.065-.003-.097-2.11.07-4.216.153-6.325.208-.636.017-.986-.33-1.05-1.007-.156-1.655-.437-3.317-.39-4.968.044-1.563.75-3 1.678-4.275zM92.4 70.654C90.194 72.696 87.44 73 84.623 73c-1.696.003-3.317-.426-4.67-1.52-.544-.44-1.49-.552-1.435-1.555.648-.092 1.295-.245 1.945-.256 1.78-.04 3.565-.015 5.348-.015v.105c2.117 0 4.236-.006 6.35.015.176 0 .473.174.49.3.03.18-.1.445-.246.58zm16.29-7.472c-.444.03-.89.056-1.332.058-2.23.005-4.46.002-6.69.002l-.003-.16c-4.45.16-8.9.37-13.353.47-4.683.106-9.363.127-14.046.155-1.335.008-2.688.016-4-.177-2.656-.387-5.306-.646-7.99-.555-.927.032-1.13-.358-.62-1.232.9-1.538 1.85-3.045 2.787-4.56.58-.942 1.432-1.304 2.532-1.313 1.56-.008 3.125-.053 4.672-.224.615-.07 1.252-.43 1.77-.81.703-.517.61-1.92-.15-2.326-.675-.357-1.422-.62-2.168-.797-.645-.154-1.333-.117-1.997-.19-.437-.048-.64-.59-.378-1.02.286-.477.595-.942.896-1.41.336-.528.83-.76 1.424-.596 1.44.39 2.86.365 4.285-.068.21-.066.44-.087.642-.173.535-.224.955-.572 1.035-1.19.075-.55-.523-1.282-1.216-1.387-.877-.135-1.776-.142-2.65-.296-.246-.043-.604-.398-.61-.62-.01-.263.244-.67.49-.778.497-.213 1.054-.313 1.597-.38 1.877-.23 3.76-.432 5.64-.634.69-.075 1.28-.33 1.776-.83.472-.474.435-1.39-.08-1.776-.646-.484-1.366-.734-2.177-.738-1.114-.005-2.227-.006-3.34-.025-.097 0-.26-.096-.272-.17-.032-.18-.064-.422.027-.55 2.273-3.18 2.56-3.445 6.52-3.82 2.435-.23 4.9-.147 7.353-.137.373 0 .838.28 1.1.576 6.63 7.563 12.042 16 17.498 24.407.545.835 1.01 1.723 1.505 2.594.15.26-.128.648-.48.672zM61.347 29.97c1.803 1.15 3.805 1.29 5.81.89 1.535-.305 2.49-1.424 2.862-2.953.13-.533.106-1.105.122-1.307-.02-3.438-1.13-5.04-3.797-5.94-1.86-.628-3.57-.106-5.11.806-2.772 1.646-3.96 5.902.113 8.5zm2.05-5.607c.395-.16.866-.26 1.283-.207.398.05.85.245 1.127.525.373.38.32 1.467.006 1.858-.128.157-.328.313-.518.355-.774.17-1.547.16-2.19-.375-.23-.192-.35-.523-.45-.686-.065-.756.19-1.238.742-1.466z"/></svg>