<svg xmlns="http://www.w3.org/2000/svg" width="128" height="128" viewBox="0 0 128 128"><path d="M123.363 94.547c-1.058-2.8-2.523-5.442-3.744-8.18-.785-1.76-1.465-3.564-2.16-5.36-.467-1.197-.75-2.484-1.346-3.604-.702-1.314-1.98-2.387-2.42-3.755-.478-1.476-.13-3.2-.428-4.757-.224-1.176-.29-2.33-.306-3.504-.133-10.396.297-20.8-.594-31.187-.34-3.945-.245-7.92-.587-11.88-.316-3.614-1.946-6.524-4.15-9.196-.98-1.187-2.37-1.848-3.926-1.997-2.344-.224-4.693-.5-7.044-.56-3.537-.095-7.082-.037-10.623-.015-1.178.01-2.357.09-3.533.172-1.813.128-3.624.4-5.438.414-6.546.053-13.09.02-19.637.02v.103c-7.405 0-14.81 0-22.214.004-.535 0-1.077.013-1.603.093-3.808.584-7.616 1.177-11.418 1.788-.95.154-1.9.345-2.827.597-.387.105-.796.345-1.06.643-2.066 2.315-3.24 5.017-3.37 8.133-.05 1.178.01 2.36-.01 3.54-.017 1.07-.052 2.143-.12 3.212-.078 1.28-.266 2.556-.287 3.836-.042 2.466-.026 4.937.01 7.403.123 9.116.256 18.232.41 27.35.02 1.173.025 2.385.314 3.51.242.94.027 1.67-.358 2.442-.576 1.15-1.213 2.27-1.75 3.44-.532 1.162-1.055 2.343-1.44 3.564-.863 2.77-1.92 5.454-3.128 8.088-.446.97-.92 1.966-1.127 3-.276 1.375-.746 2.672-1.172 3.997-1.178 3.665-2.044 7.413-2.75 11.195-.077.412-.114.9.032 1.27.907 2.286 1.777 4.616 4.636 5.19.508.103.98.417 1.444.68 3.84 2.19 8.112 2.723 12.384 2.92 2.87.133 5.78-.25 8.653-.578 5.44-.626 10.91-.64 16.364-.924 3.214-.168 6.438-.1 9.654-.198.956-.03 1.91-.22 2.85-.405 2.212-.436 4.42-.766 6.692-.74 3.54.04 7.11.224 10.612-.16 5.576-.612 11.136-.544 16.71-.41 1.82.046 3.635.237 5.454.267 3.22.05 6.443.117 9.658.01 2.342-.076 4.693-.324 7.013-.686 1.467-.225 2.908-.726 4.304-1.25.673-.25 1.37-.726 1.787-1.298 1.123-1.535 2.406-3.04 2.192-5.183-.052-.507.215-1.04.305-1.567.56-3.242.236-6.45-.91-9.48zM20.818 26.325c.496-2.534.704-5.09.78-7.666.02-.618.402-.957 1.007-1.034 4.256-.548 8.512-.95 12.82-.78 3.215.127 6.438.074 9.66.06 10.41-.05 20.82-.112 31.23-.193 1.28-.01 2.56-.163 3.843-.248.856-.058 1.71-.16 2.567-.16 5.688-.01 11.376-.032 17.064.016 3.507.033 3.266.344 4.857 3.233.776 1.42 1.163 2.955 1.13 4.63-.062 2.787.02 5.578.084 8.37.044 1.923-.02 3.852.42 5.762.19.82.126 1.71.11 2.566-.073 4.073-.046 8.143-.314 12.216-.267 4.064-.128 8.155-.17 12.23-.007.86 0 1.718-.027 2.576-.02.604-.39 1.018-.966 1.06-.96.07-1.926.136-2.89.142-2.9.017-5.8-.055-8.694.015-2.89.07-5.776.3-8.668.404-3.11.117-6.223.14-9.333.267-1.6.068-3.196.297-4.796.417-5.986.45-11.984 1.237-17.98.634-4.074-.41-8.135-.362-12.202-.45-2.784-.065-5.544.1-8.328.48-3.275.447-6.596.863-9.936.682-1.153-.064-1.523-.324-1.654-1.504-.128-1.17-.194-2.354-.198-3.532-.02-5.688-.01-11.377-.01-17.067H20.2c0-5.365.046-10.73-.02-16.096-.03-2.38.18-4.718.633-7.035zm7.546 85.165c-.853.077-1.71.12-2.947.2-.47-.03-1.312-.084-2.155-.156-.087-.007-.25-.155-.238-.187.066-.192.13-.437.28-.54.76-.512 1.63-.483 2.482-.367.846.117 1.68.323 2.513.512.193.047.366.188.55.286-.16.085-.318.237-.486.252zm77.06-3.198c-.21.023-.426.005-.64.005v-.013c-.212 0-.432.03-.64-.01-.16-.033-.308-.15-.46-.232.1-.03.202-.085.306-.088.533-.01 1.07-.02 1.602 0 .15.007.296.128.444.195-.203.05-.405.115-.61.14zm4.545.06c-.17.02-.36-.126-.54-.196.24-.115.477-.233.662-.323l.622.235c-.25.1-.49.25-.747.283zm9.646-6.398c-.405.12-.958.028-1.23.272-1.455 1.297-3.2 1.013-4.894 1.018-4.395.013-8.79.004-13.184.004-.003-.053-.004-.11-.004-.164-4.82.08-9.66-.02-14.466.288-4.064.26-8.11.725-12.192.592-3.46.825-7.055.256-10.526 1.024-.725.16-1.493.125-2.244.144-4.072.102-8.112.495-12.12 1.248-.835.156-1.707.164-2.562.174-3.54.04-7.077.055-10.613.08-2.135.017-4.29-.223-6.38.445-3.322-.055-6.593.787-9.93.57-1.482-.097-2.935.042-4.42-.51-1.04-.384-2.328-.156-3.5-.107-2.853.124-3.166-1.067-2.72-3.363.403-2.095 1.02-4.154 1.63-6.203 1.04-3.486 2.084-6.965 3.664-10.272.734-1.534 1.1-3.24 1.69-4.846.59-1.605 1.275-3.175 1.872-4.777.36-.962 1.035-1.216 1.995-1.233 4.18-.08 8.378-.03 12.54-.372 6.104-.5 12.21-.463 18.32-.4 3.345.035 6.613-.57 9.907-.942 1.816-.206 3.618-.352 5.44-.38 1.71-.027 3.424.06 5.103-.453.6-.184 1.273-.15 1.916-.177 4.832-.213 9.632.18 14.42.823 1.484.2 2.977.422 4.47.44 4.715.052 9.434.005 14.15.016 3.266.008 3.032-.35 5.003 2.493 2.764 3.99 4.894 8.3 6.35 12.927.81 2.56 1.586 5.11 3.31 7.255.388.48.604 1.135.774 1.746.388 1.404-.103 2.196-1.572 2.634zM48.45 65.464c.028.426-.012.863.057 1.28.096.577.48.95 1.048 1.063.416.085.848.11 1.275.125 3.737.134 7.49-.192 11.207.405l14.42-.66c.106-.006.212-.02.32-.024.86-.053 1.386-.57 1.63-1.326.198-.6.33-1.244.345-1.872.047-1.71.018-3.424.018-5.135h.068c0-1.39-.02-2.782.005-4.173.08-4.326-2.334-7.162-5.64-9.46-.604-.418-1.277-.33-1.697.263-.99 1.397-1.922 2.832-2.895 4.24-.517.753-.785 1.746-1.84 2.016-.35-.772-.67-1.56-1.07-2.307-.334-.636-.36-1.173.09-1.77.5-.66 1.348-1.356.96-2.224-.482-1.088-1.68-.623-2.59-.704-.406-.035-.9.003-1.23.21-.307.194-.544.632-.636 1.003-.06.256.12.63.295.875.532.754.752 1.462.3 2.385-.27.55-.212 1.257-.337 1.885-.04.197-.224.54-.288.528-.28-.053-.68-.14-.784-.34-1.164-2.28-2.29-4.577-3.407-6.88-.325-.668-.806-1.002-1.493-.846-.833.188-1.638.497-2.473.63-1.26.197-2.142.872-2.853 1.88-1.515 2.14-2.414 4.51-2.7 7.116-.13 1.168-.303 2.333-.396 3.503-.075.96-.115 1.925-.07 2.88.083 1.815.24 3.625.363 5.438zm7.656-31.05c.425.22.776.714.997 1.162.376.764.602 1.6.928 2.392.7 1.717 1.74 3.197 3.198 4.363 2.527 2.018 5.8 1.376 7.368-1.456.206-.37.384-.77.498-1.178.256-.925.587-1.854.665-2.8.112-1.376.47-2.51 1.79-3.18.27-.135.574-.41.646-.678.373-1.376.643-3.008-.37-3.987-1.22-1.177-1.532-2.42-1.62-3.95-.046-.73-.334-1.467-.62-2.155-1.026-2.47-2.554-3.62-5.38-3.56-1.92-.236-3.49.746-4.732 2.393-.32.424-.64.872-.853 1.357-.554 1.27-1.11 2.55-1.546 3.866-.24.72-.334 1.39-1.147 1.785-1.07.52-1.468 1.554-1.42 2.69.054 1.21.364 2.303 1.6 2.943zm9.303-10.506c.046-.085.153-.235.174-.226.19.085.42.158.54.313.67.864 1.027 1.856 1.043 2.953.015 1.067.002 2.13.002 3.194.015 1.905.287 3.85-.607 5.65-.07.14-.296.213-.466.282-.03.013-.18-.142-.194-.23-.117-.838-.213-1.662-.72-2.405-.21-.31-.27-.823-.192-1.204.16-.768.02-1.44-.215-2.173-.676-2.125-.405-4.187.635-6.152zm9.123 65.033c-2.994.37-5.992.215-8.973-.243-.526-.082-1.068-.078-1.682-.117-1.733.186-3.552.308-5.348.594-2.22.352-4.422.8-6.617 1.282-.943.207-1.81.608-2.315 1.57-.392.757-.24 1.42.05 2.15.154.383.165.835.178 1.258.016.537-.035 1.072-.053 1.61-.056 1.535 1 3.17 2.96 3.04.64-.044 1.287-.036 1.93-.03 4.288.05 8.587-.042 12.862.214 2.805.17 5.547-.32 8.325-.302.41.003.823-.213 1.224-.354 1.46-.52 2.25-1.565 2.398-3.108.147-1.508.02-2.972-.384-4.45-.6-2.192-2.3-3.392-4.555-3.112zm-.56 6.39c-.046.17-.254.39-.416.42-.734.114-1.475.22-2.214.236-1.707.032-3.413.01-5.123.01-2.996.022-5.987.074-8.956.61-.935.17-1.92.093-2.88.087-.117 0-.33-.267-.324-.4.01-.185.17-.372.294-.537.058-.075.18-.117.282-.135 3.893-.66 7.776-1.652 11.755-1.22 2.35.257 4.68.45 7.037.43.262 0 .672.055.55.503z"/></svg>