<svg xmlns="http://www.w3.org/2000/svg" width="128" height="128" viewBox="0 0 128 128"><path d="M120.12 100.562c-1.157-2.88-2.228-5.803-3.54-8.614-1.3-2.795-3.076-5.355-4.21-8.25-.227-.577-.695-1.076-1.104-1.566-1.288-1.554-2.878-2.415-4.96-2.608-2.032-.188-4.053-.306-6.09-.33-2.897-.037-5.793-.146-8.684-.284-1.282-.064-2.552-.37-3.83-.416-6.967-.228-13.935-.407-20.902-.608-2.24-.064-4.506.195-6.686-.622-.48-.18-1.062-.098-1.598-.117-1.394-.05-2.79-.078-4.18-.143-3.852-.176-7.7-.373-11.794-.572-3.72.26-7.68.448-11.62.85-1.682.17-3.368.495-5.022 1.01-1.352.42-2.44 1.26-3.65 1.878-.77.39-1.227 1.44-1.77 2.23-.854 1.236-1.644 2.512-2.49 3.747-2.913 4.24-5.772 8.498-7.65 13.346-1.382 3.56-1.217 7.104-.38 10.704.07.307.172.637.356.88.58.768 1.17 1.46 2.31 1.506 1.275.048 2.565.238 3.806.542 3.874.953 7.812 1.202 11.776 1.23 1.39.012 2.797-.013 4.163-.23 3.29-.526 6.6-.83 9.91-.8 2.995.03 6.006.28 8.966.724 2.048.304 4.075.387 6.085.16 4.494-.516 8.993-.433 13.496-.426 3.108 0 6.22-.025 9.328.01 2.894.033 5.82-.11 8.672.268 3.01.398 5.966.402 8.97.16 2.24-.183 4.522-.435 6.732-.18 3.347.388 6.624.113 9.93-.215 1.558-.156 2.877-.787 4.13-1.653.56-.386.9-.875 1.014-1.56.23-1.37.356-2.785.79-4.095.688-2.057.512-4.006-.27-5.956zm-6.058 3.755c-.506.168-1.018.376-1.54.42-3.624.316-7.21 1.14-10.46.814-4.725.114-8.958-.544-13.195-1.163-3.068-.448-6.115-.955-9.248-.88-4.397.103-8.79-.003-13.19.005-2.03.005-4.052.202-6.076.347-4.592.33-9.21.27-13.816.353-.426.012-.89.022-1.275-.122-1.888-.72-3.78-.537-5.696-.152-.52.105-1.068.096-1.603.105-6.003.075-12.008.112-18.01.23-1.245.026-2.316-.29-3.343-.91-.69-.418-1.083-1.134-.816-1.914.725-2.1.75-4.468 2.347-6.24 1.166-3.267 3.393-5.9 5.27-8.735.178-.267.303-.567.486-.828.716-1.006 1.603-1.528 2.93-1.643 4.06-.365 8.13-.41 12.184-.708 4.5-.33 8.992-.335 13.49-.387.857-.01 1.743-.08 2.565.104 2.545.573 5.116.39 7.682.416 6.22.055 12.44.064 18.656.21 2.45.055 4.912.312 7.34.682 3.94.6 7.897.65 11.863.585 1.505-.02 2.977.117 4.466.413 1.634.323 2.82 1.148 3.328 2.67.558 1.665 1.427 3.107 2.445 4.492.19.26.396.523.514.81 1.122 2.78 2.235 5.556 3.327 8.342.156.39.213.826.282 1.248.12.747-.15 1.184-.915 1.44zM20.252 52.24c.06 4.077.067 8.158.15 12.235.024 1.173.17 2.35.37 3.505.836 4.786 4.05 7.555 8.85 7.68.536.015 1.072.025 1.61.025 3.204 0 6.428.41 9.593-.448 4.934-.258 9.87-.365 14.805-.053 1.49.096 2.965.46 4.46.526 6.855.31 13.697.958 20.57.832.537-.01 1.082-.018 1.61.062 4.154.636 8.347.485 12.526.61 2.357.07 4.672-.07 6.994-.723 2.332-.652 4.346-1.786 6.27-3.155.418-.296.78-.757 1.012-1.222 1.312-2.596 2.355-5.307 2.663-8.213.316-2.98.592-5.967.51-8.982-.1-3.648-.022-7.3-.022-10.95h.147c0-4.185-.08-8.372.023-12.554.09-3.584-.634-7.037-1.48-10.462-.303-1.227-1.01-2.362-1.587-3.505-.654-1.3-1.72-2.176-3.056-2.727-2.1-.866-4.27-1.423-6.555-1.414-4.402.02-8.8.058-13.202.1-.642.007-1.288.05-1.925.14-3.63.52-7.258.555-10.896.104-.74-.092-1.493-.092-2.244-.136-6.87-.41-13.72.27-20.58.43-1.502.034-3.03-.03-4.498.218-2.884.49-5.775.367-8.668.39-1.285.012-2.603-.086-3.85.16-1.7.337-3.393.402-5.108.438-.956.02-2.02-.008-2.837.39-2.49 1.21-4.456 2.946-4.928 5.917-.357 2.225-.727 4.437-.7 6.704.017 1.5.037 3.025-.19 4.5-.607 3.957-.444 7.936-.2 11.883.16 2.568.327 5.13.364 7.7zm5.483-.465c-.013-.645-.1-1.288-.077-1.926.168-4.394.328-8.787.546-13.177.156-3.102.36-6.202.625-9.294.107-1.275.403-2.535.663-3.79.232-1.137.877-1.915 2.042-2.24 2.784-.783 5.585-1.544 8.496-1.594 3.86-.07 7.72-.017 12.1-.017 4.196-.08 8.916.14 13.62-.434.847-.105 1.712-.07 2.57-.08 7.51-.072 15.016-.13 22.525-.22 1.28-.014 2.564-.137 3.842-.256 2.144-.196 4.26-.16 6.403.182 1.657.267 3.04 1.04 4.385 1.888.697.44 1.318 1.14 1.732 1.86 1.358 2.366 2.063 4.912 1.803 7.68-.14 1.494-.253 2.992-.26 4.49-.035 8.15-.133 16.305.006 24.458.048 2.835-.775 5.27-2.146 7.598-1.3 2.21-3.22 3.758-5.692 4.45-1.306.363-2.71.45-4.075.5-1.604.056-3.217-.033-4.82-.12-1.926-.1-3.846-.36-5.768-.383-6.005-.088-11.996-.495-17.995-.7-4.904-.16-9.832-.51-14.728-1.115-1.683-.206-3.45-.17-5.13.088-4.273.65-8.556.437-12.84.42-.534-.006-1.07-.104-1.594-.214-4.466-.925-6.225-2.904-6.373-7.475-.083-2.564.11-5.14.16-7.712.02-.956 0-1.914-.02-2.873zM74.01 91.17c-1.233-.47-2.5-.518-3.79-.516-2.46 0-4.932.21-7.353-.466-.398-.112-.873-.117-1.273-.02-1.867.462-3.787.598-5.667 1.057-1.584.387-2.502 1.167-3.004 2.523-.44 1.187-.835 2.45-.923 3.7-.178 2.51 1.56 4.236 4.06 4.282.428.006.86-.008 1.287-.02 2.57-.063 5.14-.13 7.825-.197 2.886 0 5.888 0 8.888-.005.533-.002 1.077.004 1.6-.08.563-.097 1.04-.47 1.127-1.023.457-2.825.142-5.547-1.31-8.068-.33-.57-.828-.928-1.47-1.168zm-2.746 7.742c-.75.02-1.5.003-2.25.003l-.012.1c-1.38-.158-2.754-.378-4.14-.46-2.346-.143-4.7-.195-7.053-.294-.47-.02-.79-.262-.864-.755-.122-.814.096-1.614.53-1.7 1.15-.234 2.306-.547 3.47-.583 3.316-.104 6.638-.104 9.96-.11 1.172 0 1.47.324 1.63 1.518.03.21.057.424.073.637.09 1.22-.225 1.61-1.35 1.645zM42.852 45.504c1.248.262 1.877.78 1.973 2.083.053.73.395 1.436.623 2.15.217.678.013 1.195-.433 1.752-1.45 1.8-1.425 1.814.008 3.696.26.34.46.738.757 1.037.453.45.943.875 1.467 1.24.78.54 1.555.428 2.323-.268.157-.144.288-.323.402-.5.416-.64.902-.78 1.614-.402.95.505 1.958.853 3.065.873.6.015.955.39 1.09.98.07.314.17.622.3.913 1.04 2.45 1.46 2.647 4.175 2.03 2.73-.62 3.026-1.247 1.744-3.68-.618-1.174-.62-1.174.342-2.145.303-.305.63-.584.92-.9.438-.466.772-1.098 1.3-1.396.762-.43 1.362.356 2.046.575.504.164 1.008.354 1.53.435.715.113 1.646-.495 1.696-1.172.112-1.488.17-2.987.157-4.477-.007-.686-.504-1.17-1.14-1.427-.393-.163-.82-.24-1.23-.363-.693-.204-1.035-.682-1.154-1.383-.235-1.37-.518-2.73-.743-4.102-.047-.284.005-.644.155-.877.224-.354.602-.606.864-.942.897-1.154.904-2.21-.07-3.147-.85-.816-1.75-1.588-2.705-2.27-1.2-.863-2.005-.7-2.933.64-.41.597-.757.96-1.51.85-.74-.105-1.495-.21-2.24-.18-1.013.04-1.627-.37-1.928-1.317-.162-.51-.31-1.03-.538-1.508-.45-.942-1.173-1.512-2.28-1.46-.32.015-.643.002-.964.002v-.034c-.533 0-1.075-.046-1.605.01-1.45.148-2.27 1.282-1.948 2.74.136.62.44 1.202.608 1.82.08.294.158.73.008.926-.706.927-1.467 1.815-2.27 2.657-.17.18-.61.18-.91.14-.527-.07-1.038-.26-1.563-.356-1.184-.21-2.21.315-2.512 1.44-.244.914-.346 1.89-.366 2.844-.04 1.664.245 2.126 1.874 2.47zm10.736-3.706c1.03-.706 2.01-.608 2.997-.046 1.67.958 2.688 3.14 2.353 4.94-.323 1.73-2.165 3.658-3.842 3.952-1.035.178-1.958-.187-2.588-.978-.804-1.02-1.38-2.176-1.31-3.548.103-1.826.85-3.264 2.39-4.32zm19.915 3.618c1.312.008 2.127.36 2.915 1.493.828 1.182 1.582 2.24 1.276 3.753-.043.206-.014.43.01.644.09.85.765 1.604 1.652 1.728.955.134 1.92.215 2.88.253.89.03 1.638-.61 1.794-1.53.107-.63.073-1.28.17-1.913.118-.757 1.004-1.31 1.693-1.062.603.22 1.17.53 1.77.75.81.3 1.8.038 2.308-.637.316-.42.57-.907.77-1.397.46-1.116.168-2.11-.795-2.837-.253-.192-.563-.303-.835-.47-1.913-1.172-1.956-1.5-.42-3.044.076-.078.167-.137.244-.21 1.624-1.68 1.65-2.668.05-4.39-.432-.466-.93-.89-1.46-1.24-.704-.464-1.715-.276-2.33.394-.284.31-.46.72-.737 1.037-.114.13-.413.24-.557.18-.757-.297-1.728-.323-1.904-1.436-.115-.736-.37-1.456-.465-2.197-.15-1.186-.926-1.43-2.086-1.457-.42.097-1.163.21-1.867.45-.87.292-1.4 1.13-1.255 2.018.118.732.396 1.438.603 2.155.192.654.096 1.242-.267 1.835-.85 1.397-1.637 2.84-3.7 2.18-.182-.06-.428.01-.628.077-.54.176-.95.53-1.056 1.1-.08.417-.08.854-.06 1.28.076 1.64.723 2.478 2.29 2.493zm6.768-4.12c.59-.2 1.216-.293 1.47-.354 1.4-.02 1.933.6 1.75 1.6-.033.206-.07.42-.142.614-.326.875-1.173 1.555-1.84 1.496-.864-.075-1.744-.868-1.984-1.79-.158-.61.163-1.37.75-1.568z"/></svg>