<svg xmlns="http://www.w3.org/2000/svg" width="128" height="128" viewBox="0 0 128 128"><path d="M119.328 101.42c-1.488-3.67-3.008-7.327-4.517-10.99-1.54-1.946-2.313-4.304-3.46-6.464-1.515-2.845-3.84-4.555-7.192-4.572-.43-.002-.86-.03-1.287-.037-4.065-.064-8.116-.114-12.19-.46-6.506-.553-13.04-.97-19.586-.833-2.68.055-5.363-.005-8.043-.038-.746-.01-1.52.007-2.23-.192-2.176-.61-4.41-.8-6.646-.896-3-.128-6.002-.165-9.003-.24v.074c-2.787 0-5.58-.09-8.362.025-2.78.114-5.55.405-8.318.675-1.932.19-3.713.902-5.5 1.632-1.46.597-2.503 1.59-3.358 2.862-1.373 2.044-2.85 4.02-4.142 6.116-1.744 2.82-3.483 5.66-4.992 8.612-2.256 4.41-2.24 4.913-2.26 9.86-.004 1.32.276 2.555.665 3.772.46 1.442 1.43 2.41 3.045 2.398 2.067-.013 4.015.558 5.987 1.052.616.155 1.25.3 1.882.32 2.357.08 4.717.132 7.074.145 1.5.01 3.046.14 4.495-.156 3.613-.74 7.25-.627 10.885-.612 1.923.01 3.848.195 5.77.334 1.385.102 2.77.41 4.15.376 4.283-.1 8.564-.335 12.845-.48 1.498-.05 3.02-.154 4.496.043 3.32.446 6.605.405 9.92.02 1.588-.187 3.22-.172 4.813-.044 4.145.338 8.256 1.3 12.448.443.62-.128 1.285-.043 1.93-.043 2.25.01 4.5.03 6.753.027 2.037 0 4.08.045 6.112-.064 2.15-.12 4.253-.51 6.005-1.95.513-.42.87-.9 1.005-1.575.36-1.78.83-3.543 1.124-5.333.204-1.267.184-2.58-.315-3.805zm-6.447 3.014c-.307.077-.63.114-.947.168-4.65.806-9.34 1.472-14.053 1.06-4.364-.386-8.694-1.147-13.046-1.71-1.06-.14-2.14-.203-3.21-.213-3.434-.04-6.875.1-10.3-.098-5.365-.307-10.704.322-16.056.224-.535-.01-1.1-.035-1.602.102-2.323.643-4.688.415-7.04.423-.536.004-1.118.08-1.6-.095-2.093-.76-4.238-.482-6.376-.443-1.824.035-3.65.008-5.472.08-1.925.074-3.844.287-5.77.34-3.11.085-6.222.124-9.334.11-.602-.002-1.237-.275-1.8-.544-1.675-.802-1.89-1.325-1.423-3.023.2-.715.363-1.445.557-2.16.14-.515.192-1.1.477-1.52 1.337-1.965 2.078-4.235 3.288-6.248 1.153-1.913 2.565-3.67 3.89-5.484.734-1.003 1.675-1.55 3.008-1.515 2.144.06 4.288-.01 6.398-.518.408-.1.853-.066 1.283-.073 5.903-.1 11.805-.197 17.707-.292v.173c5.043.03 10.086.036 15.13.1 1.495.022 2.99.25 4.484.306 2.467.096 4.934.155 7.4.18 2.36.028 4.714.012 7.048.502 1.038.22 2.138.132 3.206.228 1.49.133 2.976.348 4.47.454 1.39.096 2.783.114 4.178.14 1.718.022 3.436-.022 5.15.035.737.025 1.487.186 2.203.378 1.088.294 1.917.96 2.344 2.036.756 1.895 1.94 3.57 2.862 5.365 1.51 2.94 2.58 6.104 3.82 9.183.114.288.1.634.133.953.08.757-.23 1.198-1.003 1.39zM19.138 51.13c.053 4.18.06 8.364.152 12.545.03 1.49.18 2.99.413 4.463.683 4.37 4.003 7.275 8.32 7.4 2.35.068 4.722-.21 7.03.483.293.09.68.096.954-.02 2.03-.874 4.267-.325 6.328-.96 3.644-.006 7.294-.144 10.93.02 3.092.14 6.162.747 9.258.934 5.237.32 10.485.485 15.733.693 2.677.105 5.376 0 8.034.288 2.565.277 5.13.284 7.693.435 2.737.16 5.312-.447 7.87-1.258 1.748-.555 3.332-1.458 4.795-2.558.42-.315.853-.698 1.092-1.148 1.416-2.66 2.542-5.445 2.89-8.46.37-3.19.598-6.39.498-9.62-.107-3.427-.02-6.86-.02-10.29h.153c0-4.185-.09-8.368.03-12.545.1-3.696-.68-7.23-1.57-10.76-.18-.722-.497-1.413-.807-2.095-.98-2.157-2.546-3.666-4.86-4.357-2.268-.677-4.56-1.198-6.94-1.13-4.496.13-8.99.325-13.487.447-3.106.085-6.22.222-9.323.115-7.72-.272-15.44-.1-23.157 0-.43.005-.864.012-1.284.078-4.04.647-8.116.565-12.19.608-1.815.017-3.62-.14-5.423.395-.897.27-1.914.14-2.878.173-.857.03-1.72-.028-2.57.062-3.257.34-6.26 3.09-6.9 6.275-.443 2.207-.724 4.43-.722 6.692.002 1.604-.068 3.22-.256 4.808-.48 4.07-.378 8.147-.112 12.203.128 2.025.305 4.05.33 6.083zm5.973-14.817c.112-2.886.333-5.774.59-8.653.124-1.378.43-2.74.688-4.11.192-1.024.774-1.775 1.798-2.07 1.542-.442 3.078-.967 4.655-1.22 5.637-.9 11.31-1.018 16.996-.528.53.046 1.07.18 1.59.14 8.03-.662 16.08-.48 24.123-.573 5.13-.06 10.243-.453 15.372-.466 2.04-.002 4.084-.117 6.115.013 3.525.22 7.353 2.36 8.224 6.466.4 1.872.984 3.693.52 5.69-.286 1.232-.14 2.565-.144 3.852-.02 8.264-.09 16.526-.015 24.786.02 2.46-.653 4.62-1.763 6.74-.984 1.884-2.43 3.245-4.256 4.258-1.14.628-2.287 1.078-3.65 1.015-2.03-.094-4.07-.025-6.108-.025l-.01.18c-3.313-.228-6.624-.543-9.94-.662-4.076-.156-8.155-.156-12.23-.21-1.5-.022-3.01.106-4.468-.388-.1-.034-.21-.047-.317-.05-6.106-.185-12.17-1.266-18.304-.778-.96.075-1.92.17-2.875.29-3.963.487-7.906.437-11.816-.4-.833-.178-1.665-.464-2.414-.86-.54-.286-1.08-.752-1.376-1.275-.91-1.59-1.597-3.275-1.634-5.155-.02-1.07-.105-2.146-.058-3.215.334-7.595.41-15.196.707-22.795zm46.855 54.634c-1.39-.06-2.78-.07-4.17-.112-1.068-.032-2.18.1-3.19-.158-3.808-.97-7.416-.075-11.022.977-.288.083-.606.273-.78.51-1.3 1.778-2 3.77-1.943 5.988.032 1.277.913 2.13 1.648 3.04.62.763 1.52.683 2.374.686 2.14.007 4.28.003 6.42.003v-.173c1.392 0 2.783.034 4.175-.005 2.883-.082 5.766-.193 8.648-.314.914-.04 1.528-.52 1.62-1.26.34-2.614.012-5.124-1.24-7.47-.54-1.008-1.362-1.658-2.54-1.71zm-1.536 7.82c-1.28.028-2.56.007-3.84.007-.005.047-.01.093-.018.14-2.112-.24-4.22-.52-6.334-.707-1.164-.102-2.34-.043-3.51-.073-.464-.01-.796-.235-.882-.72-.14-.77.11-1.57.538-1.703.3-.09.612-.177.925-.192 3.72-.183 7.443-.356 11.164-.518.53-.026 1.07-.012 1.598.036.66.06 1.14.527 1.28 1.23.082.415.124.842.15 1.267.044.79-.31 1.22-1.075 1.235zM50.573 59.964c.188.35.085.845.16 1.266.27 1.522.763 1.988 2.347 2.05 1.61.063 3.217.02 4.825.042 1.5.02 3.002.01 4.495.12 1.595.117 3.18.363 4.77.553 2.97.275 5.74-.675 8.554-1.3 1.907-.424 2.576-1.135 2.747-3.014.237-2.555.36-5.122.567-7.68.103-1.275.347-2.542.42-3.816.085-1.49.326-3.042.02-4.463-.492-2.29-.077-3.016-3.156-3.013-.32 0-.643-.035-.96-.08-.967-.127-1.548-.75-1.776-1.63-.188-.716-.21-1.477-.275-2.225-.27-3.146-1.818-5.663-3.94-7.877-1.178-1.224-2.507-1.925-4.317-1.288-.782.277-1.713.09-2.544.265-2.006.42-3.956 1.113-5.338 2.688-1.962 2.234-3.06 4.877-3.103 7.9-.01.643.02 1.288.005 1.93-.02.816-.29 1.188-1.05 1.388-.62.16-1.268.222-1.88.4-.863.257-1.558.724-1.686 1.722-.176 1.376-.47 2.747-.5 4.126-.05 2.23-.29 4.498.585 6.656-.096 1.845.144 3.62 1.035 5.286zm18.187-9.9c-.092.867-.846 1.185-1.554 1.457-.576.22-.82.626-.83 1.22-.013.75 0 1.506-.077 2.253-.13 1.248-.84 1.864-2.134 1.93-.213.012-.43.012-.642-.004-.956-.065-1.568-.646-1.647-1.633-.05-.64-.053-1.288-.01-1.93.058-.893-.108-1.67-.707-2.384-1.16-1.38-.753-2.816.042-4.18.784-1.35 2.053-1.81 3.364-1.74 1.882.026 3.635 1.197 4.11 2.795.206.688.16 1.486.086 2.22zm-9.53-11.7c.07-.956.416-1.892.456-2.848.064-1.56.973-2.248 2.313-2.683 1.25-.405 2.486-.66 3.74-.08 1.7.784 2.785 1.974 2.526 4.005-.027.21-.004.427-.004.642h.01c0 .322.005.64 0 .965-.03 1.56-.157 1.712-1.59 1.76-.964.035-1.93.01-2.893.046-.856.034-1.725.03-2.558.194-1.856.363-2.172.29-2-2zM56.19 55.73l.08.172-.194-.02.115-.15z"/></svg>