<svg xmlns="http://www.w3.org/2000/svg" width="128" height="128" viewBox="0 0 128 128"><path d="M122.713 92.923c-2.112-4.45-4.395-8.838-5.742-13.61-.446-1.59-1.242-2.95-2.3-4.19-.864-1.014-1.376-2.124-1.135-3.54.125-.725.117-1.547-.11-2.235-.524-1.58-.406-3.18-.414-4.782-.035-6.763-.03-13.523-.097-20.284-.03-2.995.186-6.008-.482-8.976-.114-.514-.06-1.07-.074-1.604-.088-3.75-.115-7.5-.527-11.243-.193-1.737-.447-3.397-1.3-4.92-.68-1.21-1.417-2.386-2.103-3.59-.672-1.19-1.744-1.895-2.955-2.368-1.197-.467-2.446-.754-3.758-.78-8.045-.138-16.09-.51-24.117.406-.85.095-1.72.095-2.573.034-2.03-.147-4.056-.032-6.085-.01-10.198.106-20.39.138-30.588.175-1.285.003-2.586-.005-3.854-.18-4.706-.65-9.39-.612-14.08.15-1.024.164-1.888.482-2.498 1.268-.653.837-1.31 1.71-1.754 2.67-1.088 2.346-1.8 4.828-1.795 7.44.01 3.22.136 6.435.17 9.654.105 9.866-.11 19.74.33 29.602.136 3 .08 6.016.346 9.003.1 1.123.083 2.073-.463 3.045-.47.84-.84 1.737-1.312 2.578-.84 1.507-1.465 3.084-1.9 4.758-.597 2.288-1.533 4.452-2.53 6.596-.627 1.353-1.107 2.78-1.587 4.196-.412 1.214-.683 2.475-1.095 3.69-1.246 3.652-1.91 7.444-2.765 11.193-.25 1.095.08 2.194.71 3.065 1.045 1.446 2.012 2.972 4.035 3.395 1.123.235 2.12 1.01 3.21 1.458 1.185.486 2.384 1.022 3.628 1.28 4.015.838 8.077.995 12.164.587 2.022-.203 4.055-.34 6.084-.487.855-.06 1.752.075 2.565-.13 2.326-.588 4.684-.458 7.04-.476 2.36-.02 4.722.01 7.083-.04 3.43-.07 6.88-.032 10.237-.848 1.275-.31 2.53-.427 3.817-.432 3.112-.007 6.225.026 9.338-.007 1.284-.013 2.567-.136 3.85-.242 1.28-.107 2.553-.344 3.83-.357 4.83-.043 9.657-.017 14.486-.017v.055c4.4 0 8.8.017 13.2-.008 1.394-.008 2.797-.047 4.178-.205 2.448-.283 4.898-.622 7.153-1.712.566-.272 1.238-.56 1.57-1.042 1.14-1.653 2.53-3.23 2.284-5.496-.053-.504.23-1.038.302-1.566.526-3.797.058-7.42-1.608-10.93zM21.227 24.117c.08-.42.198-.85.177-1.27-.128-2.703 1.757-4.255 3.408-5.915.33-.33.976-.463 1.483-.48 1.606-.053 3.22-.098 4.825.01 6.112.417 12.224.344 18.34.204 1.5-.035 3.003-.005 4.506-.005v-.076c7.726 0 15.453.032 23.18-.02 2.243-.016 4.484-.284 6.73-.415 1.07-.065 2.144-.108 3.215-.113 2.578-.017 5.154-.077 7.727.015 2.46.086 4.915.32 7.368.545.38.036.856.267 1.08.565 1.495 2.01 2.56 4.184 2.546 6.787-.016 2.787.035 5.58.1 8.367.044 1.926-.01 3.85.41 5.763.206.928.144 1.925.125 2.89-.08 4.07-.037 8.14-.315 12.212-.268 3.955-.13 7.936-.17 11.907-.007.86-.003 1.716-.016 2.575-.01.59-.23 1.042-.88 1.127-1.166.153-2.335.413-3.504.405-2.89-.02-5.79.25-8.674-.208-.728-.116-1.496.012-2.243.06-1.818.11-3.634.36-5.45.343-4.943-.042-9.878.246-14.77.77-7.285.785-14.554.72-21.842.404-2.675-.115-5.353-.208-8.027-.34-3.343-.165-6.635.366-9.918.817-2.997.412-5.992.308-8.992.32-.638 0-.966-.42-1.024-1.006-.138-1.382-.324-2.77-.33-4.156-.035-10.194-.03-20.387-.04-30.58 0-.43.024-.86.005-1.29-.165-3.452.31-6.84.976-10.212zm8.548 87.025c-1.81.015-3.62.025-5.43.014-.194-.002-.387-.147-.583-.224.186-.088.365-.222.56-.256.42-.07.847-.122 1.27-.12.532.002 1.063.066 1.595.105v-.023c.853.038 1.707.068 2.557.128.11.006.21.16.315.245-.094.045-.19.13-.286.13zm80.525-2.58c-1.28.02-2.563.014-3.845.014v-.034c-1.387 0-2.776.007-4.165-.007-.18-.002-.358-.117-.538-.18.205-.054.407-.15.613-.16.853-.04 1.71-.065 2.563-.073 1.816-.015 3.63-.016 5.446-.01.09 0 .18.106.27.163-.115.1-.225.288-.342.288zm9.03-6.18c-.72.2-1.448.368-2.168.575-1.36.39-2.725.44-4.136.288-1.702-.18-3.42-.3-5.13-.3-6.113-.006-12.227.02-18.34.1-1.594.022-3.185.31-4.778.455-2.235.203-4.466.448-6.703.565-2.248.12-4.51.016-6.752.176-3.947.285-7.885.7-11.827 1.047-.64.056-1.285.078-1.928.085-3.118.03-6.19.46-9.242 1.06-.832.164-1.696.235-2.547.245-3.757.043-7.51.05-11.264.064-2.032.01-4.04.03-6.072.42-1.98.375-4.06.25-5.736.325-1.97 0-3.583.08-5.185-.026-1.362-.095-2.705-.477-4.068-.603-1.277-.117-2.57-.032-3.85-.11-.592-.038-.916-.51-1.014-1.082-.052-.315-.08-.646-.045-.96.088-.743.15-1.502.348-2.22.978-3.502 1.988-6.996 3.013-10.49.18-.61.46-1.2.747-1.776 1.2-2.405 2.104-4.918 2.86-7.49.18-.62.357-1.235.573-1.84.537-1.507 1.038-3.03 2.09-4.285 1.39-.073 2.774-.18 4.16-.21 2.783-.06 5.563.02 8.335-.445 1.466-.246 2.998-.07 4.498-.143 2.353-.11 4.704-.31 7.06-.395 1.28-.045 2.565.05 3.85.117 2.246.12 4.48.14 6.73-.107C60.905 74.548 69 73.635 77.16 73.7c2.998.02 5.974.197 8.96.66 3.165.49 6.397.65 9.604.725 3.642.085 7.29-.088 10.936-.14.53-.01 1.084-.065 1.583.067.487.13 1.005.387 1.357.742.52.527.95 1.165 1.348 1.797 2.76 4.36 5.184 8.88 6.542 13.9.506 1.877 1.266 3.624 2.397 5.224.545.774 1.042 1.637 1.315 2.534.463 1.498-.35 2.74-1.875 3.16zM38.466 38.16c.354 3.188.784 6.37 1.083 9.567.246 2.663.335 5.344.52 8.015.107 1.586 1.777 3.26 3.347 3.332 1.07.05 2.144.002 3.218.003 6.002.008 12-.08 18 .422 2.865.24 5.773.22 8.665-.205 2.646-.39 5.317-.603 7.984-.797 1.368-.1 2.38-.942 3.51-1.497.46-.226.696-1.036.884-1.627.122-.378.027-.855-.067-1.266-.59-2.556-.31-5.132-.16-7.692.18-3.1.48-6.192.727-9.286l-.233-.01c0-1.935-.053-3.866.015-5.794.065-1.894-.52-3.577-1.345-5.228-.38-.76-.936-1.173-1.76-1.163-1.61.02-3.22.04-4.82.15-1.6.11-3.193.424-4.795.484-3.638.14-7.28.1-10.913.556-4.034.513-8.096.822-12.155 1.132-2.558.192-5.123.422-7.696-.058-.813-.15-1.71-.032-2.54.128-1.87.36-2.43.998-2.292 2.843.192 2.665.523 5.324.82 7.983zm7.272-7.542c1.07-.02 2.144-.01 3.216-.01l.006.11c3.096-.248 6.208-.364 9.282-.783 2.778-.38 5.557-.4 8.34-.523 2.996-.132 6.004.023 8.985-.484.835-.143 1.712-.06 2.57-.04.12.002.255.21.34.35.027.045-.07.204-.146.266-2.24 1.824-4.42 3.723-6.744 5.436-2.325 1.717-4.818 3.21-7.19 4.868-.8.56-1.404.63-2.32.165-3.35-1.696-6.557-3.614-9.745-5.586-1.08-.67-2.333-1.058-3.516-1.56-1.08-.458-2.18-.874-3.25-1.36-.19-.084-.272-.41-.403-.625.195-.08.385-.22.58-.224zm-2.172 4.402c.946.5 1.88 1.024 2.816 1.54 4.96 2.745 9.94 5.46 14.874 8.256 1.205.683 2.173.597 3.235-.19 3.955-2.93 8.023-5.696 11.75-8.933 1.597-1.39 3.516-2.413 5.302-3.58.353-.234.964.1.963.51-.008 1.82-.007 3.64-.078 5.457-.05 1.28-.207 2.557-.32 3.836-.17 1.916-.407 3.83-.504 5.747-.1 2.03-.067 4.066-.104 6.1-.01.477-.274.824-.744.88-3.925.463-7.82 1.22-11.8 1.178-3.532-.035-7.068-.006-10.602-.006v.072c-4.284 0-8.567.008-12.85-.004-1.41-.003-1.55-.17-1.477-1.44.258-4.386.288-8.763-.465-13.12-.328-1.892-.494-3.813-.72-5.723-.067-.56.26-.82.73-.577zm30.578 53.903c-1.615.34-3.157.283-4.77.066-2.98-.403-5.996-.447-8.985-.098-2.76.32-5.5.797-8.247 1.222-.416.066-.827.2-1.227.35-.983.362-1.595 1.055-1.74 2.11-.284 2.054-.247 4.028.91 5.895.7 1.125 1.586 1.72 2.868 1.713 2.248-.013 4.5-.064 6.75-.11.527-.014 1.058-.124 1.583-.097 2.35.126 4.7.284 7.047.43l.006-.196c1.823 0 3.65.065 5.468-.026 1.056-.053 2.116-.29 3.15-.555 1.37-.35 2.207-1.3 2.466-2.68.32-1.71.252-3.42-.328-5.076-.825-2.36-2.542-3.463-4.953-2.955zm-1.178 6.898c-.853.027-1.707.017-2.558.018-2.022.002-4.048-.034-6.072.016-1.166.028-2.328.203-3.494.29-1.803.133-3.605.267-5.41.35-.325.015-.977.12-.848-.496.058-.28.602-.604.958-.648 4.01-.518 8-1.334 12.336-.726 1.547 0 3.358.003 5.168 0 .427 0 .828.026 1.07.47.2.37-.3.706-1.15.73zM68.66 46.786c2.46 1.685 4.92 3.37 7.4 5.03.433.287.946.554 1.447.613.337.04.79-.224 1.058-.49.163-.16.194-.644.07-.87-.245-.46-.58-.9-.974-1.24-2.35-2.036-5.006-3.602-7.78-4.98-.47-.233-.987-.366-1.6-.59-.3.306-.66.545-.818.882-.095.205.05.62.22.83.265.323.63.574.98.814zM45.356 54.23c.24.135.646.176.896.066 2.753-1.202 5.31-2.736 7.583-4.706.397-.34.736-.776 1.017-1.22.157-.245.14-.602.215-.996-.273-.145-.565-.435-.77-.382-.608.16-1.237.366-1.754.715-2.117 1.436-4.21 2.912-6.278 4.42-.508.37-.924.885-1.3 1.397-.07.096.185.584.396.704z"/></svg>