<svg xmlns="http://www.w3.org/2000/svg" width="128" height="128" viewBox="0 0 128 128"><path d="M119.255 101.195c-.59-1.493-1.1-3.022-1.74-4.495-1.31-3.034-2.282-6.236-4.377-8.898-.44-.562-.548-1.376-.832-2.065-.75-1.8-1.68-3.475-3.21-4.75-.842-.7-1.755-1.26-2.86-1.358-2.027-.183-4.053-.375-6.082-.463-3.107-.135-6.22-.15-9.327-.284-1.493-.066-2.98-.395-4.472-.44-7.612-.237-15.224-.418-22.834-.622-.856-.02-1.773.13-2.56-.122-2.3-.748-4.657-.618-7.006-.71-2.034-.077-4.07-.13-6.105-.234-1.174-.06-2.34-.213-3.516-.28-4.837-.26-9.63.468-14.44.758-1.79.107-3.63.38-5.318 1.118-2.035.888-3.96 1.806-5.205 3.917-2.01 3.405-4.31 6.644-6.48 9.957-1.354 2.07-2.385 4.293-3.39 6.556-.897 2.02-1.36 4.043-1.223 5.483 0 1.39-.072 2.04.016 2.674.16 1.16.306 2.34.66 3.448.327 1.024.96 1.986 2.194 2.067 1.935.128 3.86.348 5.68 1.003 1.98.715 4.04.33 6.052.645 2.75.44 5.573.435 8.333-.008 3.288-.527 6.6-.82 9.91-.81 2.99.005 6.002.272 8.962.707 2.046.3 4.075.42 6.083.17 4.066-.495 8.14-.405 12.21-.453 4.076-.046 8.152-.046 12.227.002 2.464.03 4.95.012 7.378.34 2.9.395 5.758.373 8.655.135 2.238-.186 4.523-.45 6.73-.196 3.348.386 6.627.122 9.935-.21 1.434-.14 2.686-.664 3.875-1.433.76-.49 1.235-1.077 1.387-2.03.25-1.58.688-3.132 1.003-4.702.3-1.496.256-2.98-.314-4.427zm-6.045 2.982c-.504.173-1.003.405-1.523.483-5.528.858-11.093 1.237-16.657.62-3.712-.42-7.456-.716-11.115-1.565-.82-.192-1.7-.19-2.554-.192-6.11-.032-12.222-.043-18.334-.06-.32 0-.654-.054-.96.014-2.96.637-5.98.382-8.968.565-2.458.155-4.928.107-7.392.135-.427.004-.89.035-1.278-.102-2.1-.753-4.208-.555-6.334-.145-.416.083-.853.064-1.283.068-6.002.068-12.004.123-18.01.22-1.11.018-2.11-.207-3.056-.77-.885-.518-1.344-1.22-1.03-2.107.743-2.092.908-4.36 2.32-6.265 1-1.353 1.332-3.2 2.333-4.552 1.015-1.368 2.085-2.7 2.987-4.15.168-.273.31-.564.493-.825.72-1.024 1.632-1.52 2.96-1.585 4.914-.248 9.82-.672 14.735-.944 2.14-.118 4.29-.02 6.433-.02 3.1-.093 6.21-.346 9.29.316.822.177 1.71.068 2.567.077 7.075.056 14.155.056 21.227.196 2.557.047 5.13.31 7.66.69 3.944.59 7.9.65 11.864.57 1.62-.033 3.2.13 4.78.497 1.367.32 2.404 1.086 2.847 2.357.643 1.856 1.61 3.488 2.773 5.04.064.084.128.174.168.272 1.223 3.08 2.447 6.155 3.66 9.237.075.194.066.422.085.636.046.575-.067 1.07-.683 1.287zM19.153 51.41c.056 4.29.06 8.588.16 12.877.035 1.493.183 3 .477 4.464.768 3.84 4.056 6.658 7.954 6.786 3.83.124 7.71.733 11.53-.296.61-.163 1.28-.103 1.923-.118 5.573-.136 11.153-.53 16.69.512 6.327.13 12.622.953 18.96.832 1.5-.028 3.02-.064 4.504.124 4.916.623 9.854.47 14.786.6 2.084.056 4.047-.56 5.94-1.198 1.697-.57 3.222-1.675 4.777-2.617.433-.263.814-.728 1.052-1.186 1.394-2.68 2.435-5.5 2.754-8.514.337-3.196.58-6.398.48-9.63-.108-3.32-.027-6.652-.027-9.977h.157c0-4.19-.09-8.377.025-12.56.096-3.583-.61-7.037-1.445-10.465-.3-1.227-.98-2.368-1.543-3.52-.693-1.414-1.854-2.334-3.298-2.918-2.11-.85-4.29-1.355-6.573-1.346-3.435.01-6.87.016-10.304.05-1.927.025-3.843.206-5.766.37-2.98.25-5.998.1-9 .063-1.174-.014-2.345-.232-3.518-.264-4.826-.137-9.644.063-14.468.193-6.968.192-13.903 1.18-20.89.81-.426-.02-.868.005-1.28.1-2 .474-4.033.47-6.068.545-3.59.132-6.546 2.657-7.22 6.15-.423 2.207-.772 4.428-.746 6.698.02 1.608.002 3.23-.216 4.82-.548 3.96-.413 7.935-.16 11.884.147 2.238.32 4.48.348 6.727zm5.414-1.622c.166-4.392.325-8.783.544-13.173.16-3.102.365-6.202.63-9.296.11-1.273.41-2.534.664-3.79.232-1.144.904-1.9 2.06-2.226 2.783-.785 5.588-1.536 8.495-1.587 3.86-.07 7.722-.02 12.146-.02 4.15-.076 8.862.044 13.574-.404 2.875-.27 5.788-.16 8.685-.192 5.254-.054 10.51-.06 15.765-.133 1.6-.024 3.2-.192 4.8-.317 2.258-.178 4.523-.197 6.716.38 3.05.808 5.493 2.42 6.447 5.653.606 2.053 1.184 4.085.734 6.293-.252 1.248-.166 2.565-.17 3.85-.024 8.156-.132 16.31.01 24.46.05 2.837-.783 5.27-2.155 7.598-1.3 2.208-3.232 3.755-5.7 4.437-1.307.36-2.71.443-4.077.5-1.496.06-3.003-.016-4.5-.093-2.568-.133-5.132-.395-7.698-.46-5.465-.143-10.925-.434-16.384-.652-4.907-.195-9.835-.512-14.728-1.118-1.683-.208-3.45-.164-5.13.092-4.274.644-8.558.443-12.84.41-.637-.007-1.278-.153-1.903-.294-4.147-.958-5.848-2.856-6.037-7.086-.113-2.565.064-5.145.105-7.715.018-1.063.032-2.126.023-3.19-.005-.64-.096-1.287-.073-1.923zm48.22 41.295c-1.036-.352-2.076-.467-3.158-.472-2.673-.01-5.36.233-7.994-.48-.398-.105-.87-.086-1.274.013-1.867.46-3.79.572-5.664 1.077-1.432.383-2.32 1.066-2.79 2.324-.444 1.19-.884 2.436-1 3.684-.245 2.675 1.5 4.47 4.198 4.448 3-.02 5.998-.133 8.998-.203v.036c1.824 0 3.645.01 5.467-.004 1.607-.013 3.214-.032 4.82-.092.667-.025 1.285-.576 1.36-1.178.337-2.715.08-5.342-1.27-7.787-.375-.684-.93-1.107-1.695-1.37zm-1.298 6.915c-.028.465-.357.815-.817.82-1.713.022-3.445.15-5.133-.058-2.874-.352-5.74-.623-8.64-.53-.668.02-1.02-.318-1.07-.908-.083-.894.14-1.493.69-1.602 1.15-.224 2.31-.483 3.476-.552 1.6-.092 3.21-.025 4.817-.025v-.08c1.712 0 3.427-.02 5.14.01.98.014 1.324.34 1.46 1.333.075.523.107 1.064.075 1.593zm-22.324-52.81c.49.396 1.088.684 1.675.926 1.413.592 2.913.62 4.423.656 3.558.085 3.072-.64 3.822 3.513.077.42.093.853.125 1.283.11 1.44.08 1.465-1.533 1.76-.843.155-1.717.238-2.51.53-.677.244-1.318.682-1.87 1.154-.6.516-.657 1.387-.294 2.07.59 1.117 1.483 1.85 2.763 1.948.96.072 1.93.066 2.894.015 1.683-.085 2.182.19 2.507 1.746.15.726.403 1.45.72 2.124.268.573.644 1.12 1.07 1.59.828.913 1.884 1.057 2.912.493 1.12-.62 1.76-1.813 1.47-2.93-.24-.932-.606-1.83-.885-2.755-.208-.69.117-1.198.868-1.445 1.26-.41 1.712-.237 2.397.803.767 1.16 1.516 2.342 2.393 3.414.454.557 1.144.952 1.784 1.32.52.298 1.456.08 1.798-.294.395-.437.47-.983.3-1.5-.194-.597-.474-1.18-.796-1.722-.653-1.11-1.387-2.165-2.034-3.275-.483-.827-.43-1.045.195-1.683.374-.384.783-.734 1.16-1.117 2.746-2.803 2.135-6.694-.673-9.04-1-.83-2.1-1.507-3.354-1.853-.984-.275-1.385-.97-1.525-1.86-.23-1.483-.39-2.973-.6-4.454-.29-2.027-.134-2.584 1.972-2.702 1.32-.07 2.544-.472 3.502-1.408.356-.35.544-.87.68-1.1.005-.848-.465-1.56-1.13-1.695-1.148-.237-2.316-.405-3.484-.486-1.97-.14-1.965-.105-2.573-1.978-.13-.402-.324-.794-.55-1.152-.077-.125-.333-.158-.516-.186-.068-.01-.213.12-.224.2-.085.517-.147 1.036-.203 1.558-.142 1.286-.608 2.268-2.094 2.407-.417.043-.81.27-1.223.384-.603.168-1.085-.096-1.203-.704-.224-1.14-.194-2.36-1.294-3.164-.735-.538-1.724-.518-2.314.154-.66.75-1.056 1.61-1.077 2.62-.016.75-.025 1.5-.005 2.25.025.834-.29 1.387-1.056 1.8-2.086 1.12-4.033 2.436-5.67 4.183-.98 1.04-1.7 2.215-2.073 3.58-.437 1.608.036 2.987 1.328 4.02zm16.943 2.257c.317 1.235.58 2.49.775 3.75.075.49-.4.696-.835.794-.463.1-.927-.03-1.046-.48-.33-1.236-.565-2.5-.783-3.492.14-.728.288-1.094.837-1.11.46-.018.936.09 1.053.535zM64.464 35.27c.168.032.39.245.427.41.09.408.085.835.117 1.254l.307 3.77c.037.473-.126.83-.623.915-.518.085-1.237.186-1.408-.358-.46-1.49-.743-3.038-1.1-4.56.083-.888 1.4-1.606 2.278-1.43zm-10.658 5.672c.888-.727 1.77-1.456 2.684-2.15.358-.27.717-.064.883.47.125.402.24.806.315 1.217.112.6-.22 1.083-.762 1.124-.523.043-1.045.053-1.643.08-.348-.028-.77-.036-1.18-.113-.15-.026-.288-.207-.392-.35-.034-.047.03-.223.097-.28z"/></svg>