<svg xmlns="http://www.w3.org/2000/svg" width="128" height="128" viewBox="0 0 128 128"><path d="M118.82 99.853c-1.098-2.675-2.122-5.383-3.32-8.01-1.24-2.71-3.095-5.11-4.058-7.966-.032-.1-.08-.203-.14-.288-1.38-2.15-3.034-3.89-5.802-4.08-1.062-.07-2.123-.33-3.183-.335-4.608-.03-9.2-.146-13.803-.573-5.544-.515-11.136-.482-16.704-.72-4.37-.188-8.785.465-13.1-.71-4.923-.256-9.844-.515-14.77-.774l-.003.113c-.538 0-1.073-.01-1.61.004-2.358.046-4.72.043-7.076.162-1.705.085-3.4.42-5.105.485-2.176.09-4.29.556-6.242 1.38-1.717.725-3.42 1.666-4.37 3.55-.714 1.427-1.708 2.72-2.644 4.03-2.996 4.196-5.744 8.52-7.628 13.355-1.38 3.552-1.217 7.11-.354 10.705.096.4.324.784.565 1.128.508.725 1.12 1.27 2.11 1.234 2.065-.068 4.02.516 5.992 1.024.82.21 1.683.263 2.53.344 1.382.135 2.768.302 4.153.33 1.925.046 3.86.073 5.777-.07 2.03-.15 4.032-.646 6.06-.74 2.89-.135 5.795-.158 8.682-.017 2.56.123 5.11.542 7.666.815.422.043.856.032 1.28-.008 5.344-.53 10.71-.46 16.07-.452 3.107 0 6.22.013 9.328-.004 3.643-.02 7.27-.102 10.9.512 1.767.3 3.63.055 5.448-.014 1.173-.045 2.336-.29 3.505-.316 2.25-.043 4.505.03 6.756.02 2.25-.012 4.504-.03 6.755-.104 1.87-.06 3.558-.65 5.056-1.813.54-.42.903-.86 1.014-1.55.198-1.27.264-2.602.71-3.786.896-2.396.476-4.627-.443-6.863zm-5.874 4.405c-.512.16-1.02.384-1.543.44-5.856.605-11.7 1.445-17.6.332-2.308-.437-4.71-.39-7.006-.867-3.506-.728-7.03-.623-10.56-.65-3.755-.024-7.51-.044-11.264-.017-3.108.027-6.22.08-9.327.206-1.277.053-2.544.46-3.814.463-2.983.006-6.005.487-8.93-.535-1.716.043-3.43.066-5.142.14-.637.025-1.27.225-1.907.238-5.683.088-11.368.13-17.052.238-1.12.02-2.103-.24-3.043-.795-.88-.516-1.33-1.244-1.018-2.12.75-2.097.8-4.46 2.375-6.24 1.14-3.412 3.595-6.036 5.423-9.04.904-1.487 2.133-2.245 3.936-2.32 6.208-.264 12.416-.627 18.622-.955.004.05.008.096.01.14 2.68 0 5.366-.052 8.047.022 1.49.04 2.98.31 4.473.44.64.057 1.293.076 1.93.02 7.073-.64 14.13.523 21.198.206.848-.037 1.707.13 2.555.235.423.053.84.235 1.26.243 4.82.124 9.59 1.124 14.436.82 1.067-.066 2.153-.07 3.213.03.95.098 1.9.32 2.81.6 1.083.33 1.892 1.074 2.23 2.154.546 1.774 1.716 3.2 2.52 4.81 1.613 3.246 3.155 6.553 4.115 10.073.254.936-.06 1.42-.944 1.696zM19.19 51.96c.052 4.182.052 8.368.157 12.55.035 1.488.194 2.998.5 4.456.737 3.452 4.01 6.165 7.567 6.387 1.91.12 3.857-.006 5.72.337 2.1.39 4.032-.282 6.04-.442.853-.068 1.714-.07 2.57-.128 1.07-.064 2.14-.12 3.205-.24 2.246-.255 4.48-.21 6.73.03 3.404.367 6.82.67 10.24.892 6.63.43 13.265.783 19.914.775.427 0 .864-.004 1.284.06 4.26.662 8.554.528 12.84.54 3.988.01 7.51-1.48 10.756-3.677.512-.348 1.006-.86 1.272-1.41 1.257-2.608 2.383-5.29 2.682-8.2.317-3.086.61-6.176.507-9.298-.11-3.427-.025-6.863-.025-10.293h.12c0-3.65-.08-7.298.026-10.94.09-3.013-.05-5.994-.64-8.95-.46-2.305-.923-4.61-2.153-6.683-.97-1.637-2.254-2.78-4.083-3.416-2.056-.716-4.144-1.046-6.306-1.034-3.215.014-6.432-.02-9.648.072-2.464.065-4.914.332-7.373.44-2.035.084-4.107.308-6.1.03-2.25-.306-4.485-.354-6.727-.36-5.04-.007-10.085-.042-15.12.134-3.848.136-7.68.645-11.527.864-2.025.113-4.068-.11-6.1-.05-2.028.06-4.05.272-6.075.434-1.062.088-2.138.136-3.183.33-3.403.634-5.71 2.973-6.354 6.354-.423 2.212-.716 4.437-.696 6.7.016 1.498.028 3.018-.195 4.496-.588 3.954-.436 7.93-.184 11.872.157 2.456.322 4.91.357 7.37zm5.405-2.062c.166-4.395.325-8.787.544-13.178.16-3.21.363-6.42.64-9.62.11-1.27.43-2.53.72-3.777.234-1.005.852-1.732 1.887-1.99 1.97-.494 3.928-1.12 5.93-1.387 2.758-.366 5.55-.517 8.332-.62 1.597-.054 3.203.244 4.803.254 3.43.02 6.86-.027 10.29-.08.96-.013 1.92-.19 2.882-.2 6.867-.08 13.733-.102 20.6-.216 3.318-.055 6.64.055 9.95-.397 1.584-.22 3.216-.066 4.826-.092 2.107-.032 3.985.65 5.785 1.696 1.257.73 2.26 1.71 2.8 3.008.95 2.275 1.717 4.602 1.365 7.165-.2 1.48-.255 2.99-.258 4.485-.037 8.156-.133 16.315 0 24.467.046 2.842-.798 5.288-2.223 7.578-1.6 2.584-3.98 4.043-7.046 4.494-2.248.333-4.457.48-6.69.037-.106-.02-.214-.017-.32-.02l-17.808-.737c-4.585-.053-7.695.075-10.78-.53-1.25-.248-2.568-.112-3.853-.206-1.6-.11-3.196-.29-4.796-.426-2.784-.238-5.58-.367-8.346.096-3.735.622-7.487.324-11.24.322-.73 0-1.454-.325-2.192-.463-1.484-.28-3.055-.48-4.025-1.76-1.115-1.47-1.777-3.223-1.83-5.07-.07-2.57.06-5.144.097-7.714.017-1.062.04-2.127.032-3.19-.005-.647-.1-1.292-.077-1.93zm46.845 40.81c-1.067-.07-2.14-.05-3.213-.053-1.925-.01-3.838.07-5.746-.427-.902-.235-1.937-.195-2.867-.036-1.892.317-3.763.757-5.62 1.235-.48.12-.985.47-1.287.86-1.213 1.575-1.792 3.41-1.794 5.386 0 2.357 1.662 3.994 4.016 4.01 3 .026 6 .01 8.998.01v-.2c3.005 0 6.005.016 9.005-.012.63-.002 1.277-.096 1.886-.262.53-.144.925-.542.994-1.137.268-2.38.03-4.687-.913-6.92-.66-1.557-1.824-2.34-3.456-2.45zm-.708 8.115c-1.173.032-2.357.037-3.528-.053-3.405-.267-6.8-.718-10.23-.52-.65.037-1.053-.308-1.12-.877-.102-.853.118-1.51.645-1.64.93-.22 1.875-.468 2.823-.513 1.71-.08 3.427-.02 5.14-.02v-.097c1.932 0 3.86-.017 5.787.008.588.013 1.025.343 1.124.948.1.632.18 1.275.16 1.91-.01.445-.348.842-.8.855zm-36.105-56.92c.08 1.9.565 2.385 2.57 2.464.96.04 1.93.008 2.89-.026 4.704-.147 9.416-.61 14.093.42 1.112.243 2.046-.43 2.57-1.487.443-.892.56-1.824.547-2.805-.032-1.822-.01-3.64-.01-5.464h-.014c0-.964-.008-1.93.004-2.894.01-.965.077-1.932.06-2.892-.045-2.52-.607-3.068-3.01-3.03-1.823.03-3.644.07-5.464.08-3.43.018-6.863-.012-10.29.03-2.407.03-3.937 1.585-3.958 4.027-.032 3.323 0 6.645.005 9.97.002.536-.015 1.072.008 1.607zm19.113-12.3c.043-.01.128.138.192.206-.064.044-.17.17-.22.147-.305-.126-.292-.274.028-.355zm-8.08.74c.287-.826.716-1.018 1.737-.838.16.03.293.222.535.418-.975 1.458-1.952 2.93-2.94 4.398-.05.08-.176.11-.27.16-.066-.184-.23-.393-.188-.546.352-1.202.715-2.404 1.126-3.588zm-2.063 10.235c.096-.264.434-.62.67-.623 1.127-.015 2.256.128 3.36-.245.144-.05.405.112.558.242.947.79 1.936.71 2.976.213.277-.128.59-.228.887-.235.15-.004.446.27.427.365-.056.267-.23.723-.376.727-1.376.056-2.754.032-4.133.032V41c-1.275 0-2.55.016-3.825-.014-.223-.005-.722.078-.54-.41zM41.61 29.62c.086-.084.38.02.57.068.09.027.16.128.26.208-.16.958-.566 1.78-1.356 2.387-.077.06-.208.114-.284.087-.083-.03-.173-.15-.188-.245-.16-1.027.32-1.82.997-2.507zm-2.154 9.948c.358-.2.706-.542 1.084-.146.358.376.645.82.928 1.257.028.044-.187.35-.318.374-.92.177-1.852.315-2.693.452-.194-.066-.31-.077-.387-.14-.16-.12-.365-.25-.422-.42-.05-.14.025-.44.142-.506.54-.32 1.12-.564 1.667-.872zm-1.923-9.73c.037-.09.317-.11.485-.113.066-.004.136.123.235.22l-.578 1.022c-.098-.09-.28-.184-.277-.28 0-.286.032-.587.136-.848zM91.89 48.112c-.424-.043-.853-.06-1.28-.053-5.664.05-11.328.074-16.994.186-1.59.03-3.183.256-4.763.48-1.427.203-1.888.672-1.95 2.048-.077 1.813-.02 3.635-.02 5.45h-.134c0 1.713-.008 3.423 0 5.134.003 1.126.115 2.147 1.595 2.327.28.035.555.57.732.923.33.653.85.954 1.536.936 2.673-.06 5.346-.11 8.017-.224 2.023-.085 4.044-.292 6.068-.39 1.496-.07 2.994-.075 4.49-.06 2.404.028 2.69-.572 3.484-2.936.195-.584.103-1.273.107-1.913.003-2.026.014-4.047.37-6.066.24-1.36.246-2.77.268-4.155.014-1.056-.528-1.593-1.53-1.685zm-17.52 3.923c.47-.672 1.226-.783 2-.658.196.032.378.166.55.277.015.008-.053.2-.117.277-1.155 1.38-2.315 2.753-3.48 4.124-.067.077-.177.117-.268.173-.067-.053-.155-.09-.2-.16-.054-.08-.113-.194-.1-.28.242-1.378.817-2.623 1.612-3.75zm-2.593-.128c-.277.676-.59 1.333-.922 1.982-.31.596-.395 1.36-1.156 1.64-.085-.615-.17-1.23-.188-1.35v-1.755c.002-1.123.97-1.406 2.04-.977.123.052.27.35.224.458zM82.59 60.93c-.037.03-.09.045-.143.056l-.06.082c-.018.004-.033.005-.05.008.075.435.004.864-.476.94-.937.15-1.89.232-2.846.26-2.016.055-4.04.07-6.06.067-.244 0-.78-.11-.49-.51 1.203-1.657 1.845-3.576 2.66-5.415.35-.782.868-1.487 1.334-2.215.01-.1.023-.198.036-.297.08-.02.162-.032.235-.068.046-.025.074-.085.11-.128l-.254.292-.128.2c-.064.523-.117 1.047-.2 1.568-.153.935-.424 1.86-.477 2.8-.067 1.284.897 1.84 2.1 1.3.194-.086.37-.207.55-.32.39-.246.514.015.62.317.097.3.145.63.305.894.444.75.875.845 1.827.533.37-.122.77-.153 1.153-.218-.004-.02-.003-.043-.007-.064.037-.01.077-.016.117-.025l.192-.262c-.013.075-.002.174-.048.207zm3.34-8.864c-.392.512-.79 1.013-1.2 1.513-1.09 1.325-1.542 1.57-1.537 1.154.01-.612.203-1.222.318-1.83.045-.21.08-.422.144-.628.273-.896.387-.978 1.346-.968.212.018.428.03.64.063.327.054.49.436.29.694zm4.198 2.368L90 54.432c0 .32.026.642-.003.958-.088.94-.2 1.875-.3 2.816-1.004.593-1.996 1.188-3.003 1.77-.043.027-.177-.042-.224-.1-.06-.075-.124-.206-.096-.275.576-1.48 1.134-2.963 1.765-4.42.465-1.09 1-2.13.43-3.354-.03-.072.35-.44.587-.512.472-.14.903.12.947.576.08.842.02 1.695.02 2.544zM65.87 43.584c1.776.437 3.574.632 5.405.68 6.435.165 12.843-.406 19.257-.737.94-.045 1.88-.368 2.78-.68.55-.196.716-.777.64-1.345-.09-.59-.488-.984-1.055-1.045-.74-.08-1.496-.08-2.24-.043-5.13.277-10.26.574-15.388.862-.006-.094-.01-.188-.013-.282-2.68 0-5.355-.013-8.035.008-.63.004-1.27.08-1.888.198-.47.087-.754.84-.565 1.312.21.52.53.928 1.102 1.07zm27.555-9.035c-.642-.055-1.285-.068-1.927-.068-3.864 0-7.726.056-11.59.006-3.744-.05-7.502.272-11.66-.324-.197.08-.818.245-1.35.557-.778.457-.7 1.76.09 2.156.287.144.595.277.903.31 1.6.17 3.2.422 4.8.436 6.437.062 12.877.053 19.31.05.528 0 1.066-.118 1.578-.246.825-.21 1.246-.868 1.14-1.677-.084-.65-.584-1.144-1.292-1.2zm-27.697-4.663c.526.326 1.168.565 1.78.64 2.865.333 5.73.666 8.604.866 2.45.17 4.914.155 7.413.22 2.736-.067 5.515-.13 8.292-.21.53-.018 1.067-.065 1.586-.16.54-.103 1.104-.897 1.096-1.44-.01-.543-.614-1.347-1.146-1.407-.634-.07-1.294-.155-1.91-.05-3.825.65-7.68.288-11.52.365-.746.018-1.497-.014-2.24-.093-2.862-.31-5.722-.67-8.586-.974-.74-.077-1.494-.06-2.24-.04-.31.01-.68.066-.908.247-.31.246-.676.613-.715.965-.037.345.203.89.49 1.07zm-14.944 31.34c-1.914.092-3.82.337-5.732.402-2.56.082-5.123.04-7.683.095-.627.015-1.275.125-1.87.323-.537.177-.88.696-.767 1.254.072.35.416.824.728.912.913.258 1.87.435 2.817.487 1.49.076 2.987.017 4.482.017v-.03c1.812 0 3.63.056 5.44-.015 2.235-.092 4.466-.29 6.697-.437.533-.035 1.082.02 1.59-.098.507-.117 1.004-.34 1.447-.62.725-.45.606-1.78-.175-2.16-.285-.135-.603-.285-.903-.283-2.025.026-4.053.05-6.075.15zm5.04-6.388c-.958.06-1.906.3-2.865.34-2.79.12-5.58.165-8.368.26-2.57.086-5.14.187-7.712.305-.53.025-1.066.128-1.58.25-.51.12-1.018 1.013-.936 1.544.066.424.656.932 1.16.965.427.028.856.02 1.283.02h8.317c2.2-.055 4.99-.084 7.776-.217 1.168-.057 2.333-.31 3.488-.526.282-.053.548-.304.78-.512.356-.33.45-1.088.217-1.483-.35-.593-.87-.995-1.563-.95zM36.164 52c4.063.302 8.13.556 12.22.827 1.05 0 2.12.02 3.194-.006 1.285-.03 2.573-.077 3.854-.17.736-.052 1.15-.54 1.205-1.26.066-.813-.437-1.385-1.347-1.432-.747-.035-1.498.02-2.248.017-2.146-.013-4.325.198-6.425-.112-3.53-.525-7.067-.28-10.596-.44-.41-.017-.864.085-1.23.27-.25.12-.542.482-.535.73.01.38.158.897.435 1.09.406.29.967.455 1.475.492z"/></svg>