<svg xmlns="http://www.w3.org/2000/svg" width="128" height="128" viewBox="0 0 128 128"><path d="M120.132 100.563c-1.16-2.88-2.225-5.803-3.528-8.62-1.294-2.8-3.136-5.326-4.198-8.253-.072-.198-.184-.39-.31-.56-1.363-1.862-2.905-3.445-5.413-3.613-1.387-.092-2.765-.32-4.15-.365-2.894-.094-5.79-.056-8.684-.17-1.604-.062-3.194-.438-4.796-.47-6.86-.145-13.7-.78-20.57-.693-2.764.032-5.574.34-8.274-.626-.193-.07-.426-.032-.64-.047-2.457-.162-4.915-.416-7.374-.467-4.72-.1-9.438-.095-14.155-.11-.745-.002-1.49.117-2.235.192-1.277.128-2.555.363-3.83.367-2.29.01-4.492.455-6.595 1.26-1.885.72-3.655 1.647-4.713 3.58-.82 1.5-1.858 2.883-2.84 4.29-2.894 4.126-5.59 8.35-7.467 13.077-1.37 3.453-1.242 6.88-.5 10.384.063.314.07.673.23.93.628 1.02 1.302 1.937 2.732 1.9.95-.025 1.944.04 2.864.284 2.492.66 4.977 1.265 7.587 1.088.42-.03.853.085 1.275.155 2.343.376 4.688.333 7.038 0 4.25-.602 8.52-1.077 12.82-.78 2.78.19 5.548.517 8.323.767.734.067 1.484.122 2.225.103 5.252-.128 10.5-.31 15.752-.41 3.215-.062 6.432-.012 9.65-.016 3.642-.01 7.27-.084 10.9.53 1.76.3 3.624 0 5.44-.073.958-.04 1.913-.248 2.87-.27 2.037-.042 4.075-.012 6.112-.012v-.053c2.573 0 5.15.04 7.722-.014 1.74-.038 3.345-.54 4.823-1.54.88-.594 1.338-1.27 1.467-2.33.156-1.27.41-2.542.78-3.765.59-1.952.4-3.808-.34-5.653zm-5.71 3.534c-.81.27-1.64.578-2.482.646-3.947.32-7.865 1.09-11.85.768-1.598-.13-3.196-.275-4.79-.45-2.338-.26-4.704-.406-7.008-.87-3.712-.74-7.453-.706-11.2-.69-6.645.03-13.297.108-19.945.166-.43.004-.877-.053-1.283.053-2.746.7-5.54.465-8.323.47-.64.005-1.33.08-1.92-.12-2.425-.832-4.866-.472-7.315-.227-.528.055-1.06.147-1.595.154-5.576.08-11.153.15-16.73.21-.85.01-1.67.014-2.494-.416-1.766-.916-1.888-1.343-1.502-3.286.702-3.543 2.686-6.507 4.254-9.635 1.042-2.074 2.658-3.86 4.04-5.76.6-.826 1.467-1.226 2.473-1.334.215-.02.43-.02.644-.032 3.1-.216 6.197-.486 9.3-.626 3.11-.14 6.223-.15 10.225-.238 1.466 0 3.83-.03 6.186.014 1.393.023 2.782.168 4.17.256 1.174.08 2.363.31 3.52.21 7.076-.607 14.128.553 21.2.246 1.262-.053 2.538.427 3.813.474 5.03.19 10.015 1.14 15.08.8 1.065-.073 2.157-.064 3.212.088 2.128.302 3.89 1.117 4.526 3.475.245.912.715 1.803 1.26 2.58 2.316 3.293 3.356 7.142 4.88 10.78.16.384.178.835.22 1.26.043.458-.115.89-.56 1.036zM20.245 52.49c.055 3.97.05 7.937.15 11.905.04 1.49.195 3 .49 4.46.71 3.466 3.98 6.205 7.48 6.493 2.443.2 4.9-.032 7.335.416.71.132 1.488-.03 2.227-.113 1.273-.14 2.535-.363 3.806-.483 1.387-.133 2.784-.133 4.17-.288 2.244-.254 4.48-.24 6.73.004 3.296.356 6.603.698 9.918.883 6.74.376 13.48.843 20.237.794.43-.005.864-.007 1.284.057 4.263.66 8.556.53 12.84.546 3.988.01 7.52-1.443 10.78-3.624.516-.347 1.035-.836 1.3-1.384 1.28-2.598 2.4-5.283 2.715-8.186.325-2.98.614-5.964.527-8.978-.1-3.644-.024-7.294-.024-10.938h.11c0-3.435-.07-6.867.02-10.296.083-3.117.02-6.208-.606-9.27-.518-2.52-1.003-5.038-2.466-7.242-.86-1.294-1.92-2.227-3.413-2.78-1.93-.71-3.875-1.19-5.94-1.177-3.864.03-7.726-.013-11.584.065-2.03.04-4.054.34-6.086.395-2.56.068-5.13.433-7.687-.164-.617-.144-1.28-.114-1.92-.123-2.79-.04-5.58-.102-8.368-.08-3.753.028-7.51.036-11.254.226-3.74.19-7.467.66-11.205.866-1.916.104-3.85-.194-5.774-.146-1.924.054-3.84.31-5.76.484-.955.09-1.92.144-2.864.32-3.456.64-5.788 2.92-6.43 6.28-.42 2.208-.738 4.43-.71 6.695.018 1.496.04 3.02-.19 4.492-.605 3.957-.45 7.934-.2 11.872.166 2.67.326 5.338.366 8.013zm5.43-1.205c-.104-.517-.047-1.072-.02-1.608.11-2.464.234-4.923.362-7.386.245-4.816.446-9.634.768-14.445.11-1.59.5-3.165.83-4.732.19-.91.817-1.523 1.712-1.753 2.07-.53 4.133-1.262 6.24-1.452 4.47-.405 8.928-.904 13.467-.368 3.168.375 6.42.02 9.637-.04 1.073-.02 2.138-.213 3.206-.227 6.867-.08 13.735-.1 20.602-.208 3.21-.05 6.424.01 9.63-.387 1.798-.224 3.644-.094 5.467-.08 2.35.018 4.376.982 6.212 2.346.584.432 1.11 1.04 1.458 1.675 1.27 2.285 1.93 4.743 1.798 7.376-.092 1.82-.29 3.635-.302 5.454-.042 7.937-.13 15.884 0 23.822.05 2.83-.786 5.254-2.145 7.605-1.305 2.25-3.317 3.767-5.75 4.363-1.927.472-3.976.736-6.033.557-2.668-.23-5.347-.348-8.02-.48-4.39-.21-8.78-.437-13.17-.574-3.317-.107-6.645.098-9.94-.555-1.042-.21-2.142-.085-3.212-.165-1.813-.134-3.623-.33-5.44-.464-2.784-.21-5.566-.308-8.34.144-3.734.606-7.495.384-11.24.252-1.363-.05-2.71-.584-4.054-.936-1.34-.35-2.208-1.233-2.733-2.512-.613-1.49-1.19-2.98-1.108-4.642.04-.856.008-1.717.008-2.575h-.093c.06-1.283.032-2.582.203-3.852.192-1.397.283-2.763.01-4.156zM72.01 90.648c-.748-.004-1.498-.02-2.248-.02-2.138 0-4.275.134-6.387-.45-.698-.193-1.508-.182-2.234-.052-2.096.37-4.18.827-6.256 1.31-.38.087-.78.39-1.027.706-1.365 1.756-2.033 3.776-1.867 5.99.152 2.026 1.81 3.512 3.822 3.53 3 .028 6 .007 9 .007v-.198c3.003 0 6.003.01 9.004-.007.635-.002 1.29-.037 1.9-.198.646-.17 1.108-.62 1.172-1.362.177-2.048.032-4.053-.632-6.022-.697-2.064-2.016-3.22-4.245-3.232zm-.37 8.182c-.852.032-1.716.073-2.568.01-2.775-.202-5.544-.468-8.32-.666-.843-.06-1.696.032-2.545.06-.81.02-1.152-.163-1.255-.703-.194-.96.06-1.71.727-1.86.93-.216 1.882-.432 2.83-.474 1.713-.077 3.43-.02 5.14-.02v-.114c1.715 0 3.43-.02 5.143.007 1.308.02 1.623.353 1.77 1.74.035.316.044.64.037.96-.003.574-.408 1.043-.96 1.062zM41.617 60.515c2.81.868 5.563-.54 6.29-3.352.13-.512.142-1.06.175-1.596.04-.698.326-1.22.95-1.565 1.595-.88 3.203-1.742 4.772-2.67 1.182-.7 2.307-.895 3.662-.394.977.36 2.094.388 3.154.434.498.02 1.04-.206 1.51-.427 1.442-.68 1.43-.7 2.236.333 1.123 1.436 2.216 2.896 3.377 4.3.97 1.172 1.818 2.303 1.76 3.983-.03.784.436 1.655.86 2.376 1.5 2.542 4.38 3.235 6.965 1.775 1.312-.74 2.112-1.853 2.21-3.335.076-1.167-.014-2.36-.174-3.52-.076-.584-.047-1.037.334-1.468 1.995-2.244 3.968-4.512 5.995-6.73.714-.783 1.567-1.44 2.356-2.156.824.176 1.642.39 2.47.52 2.08.322 3.763-.326 5.09-2.01 1.13-1.44 1.52-3.043 1.37-4.927 0-.536.05-1.184-.006-1.822-.212-2.543-1.67-4.14-4.12-4.67-.9-.196-1.705.044-2.52.287-3.414 1.01-5.138 3.326-5.132 6.855.003.323-.005.654.055.96.224 1.073-.224 1.827-.973 2.56-2.535 2.48-4.894 5.117-6.77 8.155-.163.27-.378.518-.6.752-.528.564-4.285 1.076-4.916.643-.347-.237-.668-.54-.936-.865-1.294-1.573-2.562-3.165-3.847-4.747-1.215-1.495-2.378-3.007-2.303-5.095.017-.42-.092-.86-.213-1.265-.694-2.31-3.304-3.688-5.635-3.01-2.323.67-3.595 2.227-3.92 4.584-.084.635-.045 1.286-.07 1.93-.022.575-.278 1.034-.784 1.313-2.154 1.2-4.316 2.383-6.463 3.595-.595.336-1.116.482-1.8.156-.56-.27-1.23-.34-1.86-.42-1.787-.225-3.13.56-4.103 1.997-1.302 1.91-1.398 4.033-.847 6.177.305 1.19 1.14 1.973 2.405 2.365zm48.357-21.69c.445-.422 1.02-.748 1.586-.997.586-.258 1.326.256 1.422.885.016.107.055.21.055.315.006.422.004.848.004 1.9.02-.2.075.263-.092.628-.15.34-.487.74-.825.836-1.096.31-1.96-.08-2.435-.955-.547-1.01-.506-1.86.285-2.613zM74.31 58.475c.14-.226.5-.565.61-.517.31.146.54.46.764.672-.125.464-.128.814-.302 1.028-.153.192-.53.373-.74.314-.24-.066-.515-.384-.568-.634-.053-.264.083-.614.237-.864zM59.09 43.838c.064-.496.542-.91 1.12-.953.54-.037 1.048.373 1.12.91.04.32.064.64.123 1.27-.14.432-.323 1.152-.608 1.826-.06.15-.636.28-.725.186-.843-.907-1.184-1.998-1.03-3.237zM43.36 53.914c.184-.15.653-.217.78-.1.857.82.503 2.677-.585 3.147-.123.055-.416-.073-.507-.205-.164-.24-.238-.546-.3-.71.014-.864-.028-1.62.61-2.13z"/></svg>