<svg xmlns="http://www.w3.org/2000/svg" width="128" height="128" viewBox="0 0 128 128"><path d="M123.272 94.368c-1.024-2.697-2.365-5.28-3.627-7.883-.888-1.84-1.707-3.696-2.25-5.668-.636-2.298-1.543-4.46-3.19-6.242-.63-.675-.78-1.46-.742-2.37.048-1.068.11-2.188-.162-3.198-.342-1.28-.33-2.542-.35-3.825-.147-10.29.32-20.59-.59-30.873-.35-3.95-.26-7.924-.58-11.888-.29-3.623-1.905-6.532-4.084-9.227-.966-1.197-2.347-1.892-3.895-2.053-2.343-.245-4.692-.516-7.044-.576-3.646-.096-7.298-.035-10.948-.016-1.07.007-2.173-.042-3.206.18-1.914.41-3.835.42-5.765.422-8.587.006-17.173.002-25.533.002-6.99.2-13.746.206-20.51-.13-3.097-.156-6.218.135-9.328.174-2.443.032-4.004 1.285-4.997 3.408-1.19 2.544-2.124 5.156-2.15 8.01-.02 1.825-.047 3.65-.02 5.476.057 4.29.15 8.583.217 12.875.14 8.904.26 17.807.416 26.71.022 1.28.11 2.577.342 3.836.128.68.117 1.242-.19 1.84-.635 1.24-1.29 2.472-1.866 3.742-.574 1.265-1.14 2.544-1.565 3.86-.823 2.557-1.758 5.06-2.886 7.495-.45.973-1.01 1.947-1.196 2.978-.328 1.81-.994 3.496-1.55 5.227-1.077 3.363-1.764 6.825-2.466 10.28-.123.596-.11 1.34.14 1.884.967 2.127 1.866 4.367 4.65 4.785.5.075.964.446 1.433.704 3.86 2.134 8.13 2.67 12.406 2.847 2.767.112 5.57-.242 8.335-.57 5.334-.64 10.7-.622 16.047-.933 3.317-.192 6.652-.126 9.98-.19.642-.013 1.32.04 1.92-.142 3.978-1.216 8.06-.96 12.132-1.006 3.003-.032 6.026-.002 9.002-.337 3.324-.377 6.633-.417 9.957-.307 3.212.105 6.423.264 9.64.33 3.11.06 6.225.08 9.336.025 2.89-.05 5.736-.513 8.584-1.027 2.856-.516 4.94-1.87 6.21-4.51.335-.697.58-1.35.617-2.123.032-.74.162-1.483.3-2.216.616-3.355.223-6.65-.966-9.783zM21.064 24.706c.092-.527.3-1.062.26-1.58-.227-3.005 1.9-4.62 3.758-6.364.34-.32.988-.435 1.49-.43 2.353.02 4.7-.13 7.052.34 1.56.31 3.205.237 4.814.233 9.653-.032 19.31-.096 28.965-.15 1.717-.005 3.435.012 5.152-.015 2.89-.043 5.78-.203 8.666-.306 6.537-.227 13.086-.08 19.63-.08 1.396 0 2.372.556 3.095 1.868 1.11 2.01 1.91 4.02 1.832 6.38-.083 2.463.002 4.935.066 7.402.053 2.138-.035 4.285.446 6.403.16.72.11 1.495.093 2.245-.09 4.07-.03 8.14-.303 12.213-.283 4.168-.14 8.363-.18 12.547-.008.86.002 1.717-.032 2.575-.02.58-.4.946-1.04.994-.96.07-1.928.124-2.892.13-2.683.017-5.365-.053-8.047.02-3.106.08-6.206.292-9.31.404-3 .112-6.008.128-9.008.256-1.707.074-3.408.287-5.112.436-.106.007-.212.023-.32.032-5.772.387-11.55 1.18-17.33.6-4.07-.405-8.13-.402-12.2-.47-2.893-.046-5.756.104-8.645.492-3.38.452-6.81.888-10.255.66-.62-.037-1.053-.328-1.13-.916-.16-1.27-.332-2.552-.34-3.83-.035-5.793-.017-11.586-.017-17.38h-.02c0-5.15.063-10.3-.025-15.45-.05-3.13.365-6.193.892-9.258zm7.225 86.786c-.203.038-.418.026-1.005.053-.86-.19-2.077-.456-3.294-.73-.076-.02-.135-.117-.202-.18.092-.046.183-.13.28-.132.62-.026 1.252-.105 1.863-.03.82.102 1.63.314 2.437.51.185.044.34.208.51.317-.2.066-.39.155-.592.192zm77.52-3.244c-.533.025-1.067.048-1.6.032-.203-.005-.4-.115-.6-.178.203-.053.4-.128.604-.155.21-.027.427-.004.987-.004-.02-.002.297.008.615.04.1.01.19.08.283.12-.097.053-.19.142-.287.145zm4.587.074c-.09.032-.197.028-.296.04-.19-.043-.38-.077-.566-.14-.053-.017-.08-.114-.117-.177.288-.056.576-.15.866-.155.123-.002.248.175.376.272-.09.053-.167.125-.26.158zm8.803-5.813c-1.86.427-3.717.82-5.68.773-4.395-.112-8.794-.035-13.19-.035v-.165c-4.826.077-9.663-.02-14.474.288-4.064.257-8.112.73-12.194.59-3.465.823-7.06.26-10.532 1.023-.725.158-1.495.125-2.245.146-4.075.107-8.117.49-12.126 1.25-.837.155-1.71.163-2.566.174-3.54.043-7.08.055-10.62.08-2.135.017-4.287-.223-6.378.444-3.326-.054-6.598.79-9.935.572-1.482-.098-2.94.04-4.423-.512-1.04-.382-2.33-.155-3.504-.107-2.852.126-3.163-1.066-2.72-3.362.405-2.097 1.024-4.157 1.634-6.208 1.04-3.488 2.056-6.982 3.675-10.272.56-1.144.866-2.415 1.273-3.632.238-.712.387-1.454.67-2.146 2.48-6.117 1.177-4.896 7.153-5.154 4.283-.183 8.564-.405 12.847-.565 2.68-.1 5.362-.12 8.043-.16 1.074-.016 2.15-.03 3.22.015 4.735.187 9.41-.38 14.08-1.075 1.475-.22 2.992-.18 4.49-.22 1.713-.045 3.422.018 5.11-.456.805-.227 1.7-.15 2.557-.18 4.405-.178 8.796.06 13.137.786 3.088.516 6.19.56 9.295.592 3.218.032 6.434-.06 9.652-.092.75-.01 1.503.014 2.252-.003.817-.016 1.472.303 1.923.967 1.088 1.593 2.276 3.133 3.195 4.82 1.9 3.478 3.654 7.03 4.665 10.907.514 1.976 1.307 3.848 2.57 5.503.445.587.814 1.272 1.046 1.97.61 1.824-.423 3.1-1.906 3.445zM25.434 64.996c.41.12.835.203 1.26.238.64.05 1.285.064 1.93.064 7.405-.033 14.812-.067 22.22-.11.64-.004 1.31.04 1.92-.128 1.793-.5 3.615-.378 5.435-.427 1.07-.03 2.16-.02 3.21-.203 3.172-.555 6.366-.86 9.58-1.016.423-.02.852-.098 1.266-.203.728-.184 1.298-.98 1.248-1.672-.053-.73-.72-1.435-1.49-1.422-1.713.026-3.426.116-5.138.202-.32.014-.63.128-.95.157-.546.047-1.117-.38-1.158-.886-.053-.64-.073-1.282-.075-1.924-.004-3.65-.002-7.3-.002-10.95h.054c0-3.65.003-7.3 0-10.947 0-.753.014-1.505-.043-2.254-.074-.992-.577-1.553-1.52-1.84-2.023-.61-4.03-.43-6.032.118-1.666.453-2.133.985-2.25 2.667-.16 2.35-.387 4.7-.42 7.056-.076 5.365-.052 10.733-.054 16.1 0 .53.064 1.07.18 1.587.165.725.956 1.383 1.587 1.41.61.025 1.433-.62 1.66-1.325.1-.304.176-.623.2-.94.046-.642.08-1.287.066-1.93-.15-6.752.363-13.52-.45-20.258-.136-1.13.322-1.632 1.41-1.675 2.102-.082 2.482-.018 2.46 2.21-.074 7.514-.113 15.026-.168 22.54-.002.322.064.69-.07.952-.178.35-.477.8-.806.88-.82.204-1.684.255-2.538.306-1.816.107-3.637.16-5.457.27-.58.034-.77-.316-.785-.75-.077-2.572-.098-5.147-.177-7.722-.13-4.39-.29-8.784-.442-13.177-.007-.213-.024-.43-.052-.642-.116-.952-.654-1.514-1.554-1.84-2.012-.728-3.996-.626-5.992.03-1.364.454-1.908 1.1-1.988 2.56-.047.86.004 1.718-.017 2.58-.12 4.927.183 9.87-.545 14.78-.2 1.36-.287 2.793.662 4.02.045.057-.107.39-.22.426-.3.092-.63.12-.95.12-1.492.012-1.656-.156-1.71-1.596-.133-3.533-.273-7.07-.416-10.603-.017-.426-.042-.857-.1-1.28-.144-1.02-.87-1.755-1.906-1.862-1.514-.155-2.995.02-4.44.516-.768.26-1.307.73-1.565 1.49-.17.504-.37 1.016-.42 1.535-.25 2.453-.465 4.907-.667 7.363-.1 1.18-.14 2.358-.21 3.536-.033.495-.332.78-.8.843-.42.052-.852.025-1.28.04-.428.013-.86.006-1.285.053-.86.1-1.497.67-1.566 1.36-.067.64.496 1.308 1.364 1.57zm21.892-3.013c-.314.023-.63.03-1.062.05-.192-.022-.533.014-.806-.106-.248-.112-.528-.356-.603-.6-.08-.26-.043-.75.128-.862.78-.5 1.617-.92 2.456-1.327.09-.043.37.15.47.297.172.256.292.557.4.85.41 1.157.14 1.62-.983 1.697zm.47-10.757c-.785.542-1.6 1.038-2.416 1.536-.065.038-.204.003-.282-.043-.064-.036-.144-.178-.12-.212.635-1.026 1.583-1.707 2.58-2.33.033-.02.174.095.234.172s.08.186.117.282c-.036.205 0 .515-.12.597zm.02 4.917c-.36.162-.72.335-1.087.483-.078.032-.193-.032-.29-.05.05-.144.06-.338.16-.42.24-.197.513-.347.788-.488.053-.03.186.042.252.104.06.05.076.147.178.373zm-.735-9.088c-.74.11-1.362 1.222-2.235.33.083-.863.79-1.194 1.38-1.627.426-.317.818-.694 1.28-.94.175-.09.507.114.73.173.067 1.163-.262 1.928-1.153 2.062zm-.224-6.935c.804.08 1.003.274 1.19 1.18.063.31.113.62.157.933.105.757.008.896-.783 1.02-.306.047-.626.007-.865.007-.366.17-.643.326-.94.426-.52.175-.85.002-.903-.445-.035-.312-.064-.627-.08-.943-.12-2.165.098-2.38 2.223-2.173zM34 49.813c.66.042 1.038.353 1.1.913.022.21.05.425.047.638-.03 3.21-.067 6.415-.1 9.62-.005.465-.18.9-.633.965-.505.075-1.06.023-1.55-.12-.19-.06-.368-.52-.375-.8-.036-1.71-.02-3.422-.02-5.2-.063-1.535-.14-3.137-.19-4.74-.025-.997.473-1.35 1.718-1.274zm51.045-13.31c-.24-.16-.608-.12-.762-.146-.672.068-1.442.866-1.277 1.394.334 1.077.207 2.04-.178 3.065-.177.47-.158 1.077-.043 1.582.476 2.105.38 4.242.49 6.37.08 1.585.514 2.16 2.122 2.158 1.372 0 1.89.66 2.178 1.78.213.826.384 1.662.614 2.482.286 1.024.574 2.05.94 3.045.163.435.603.565 1.064.348.288-.136.58-.27.856-.432 1.078-.627 1.182-.89.865-2.027-.314-1.125-.63-2.254-.917-3.39-.208-.82-.62-1.692-.5-2.475.164-1.073 1.44-1.123 2.207-1.648.088-.06.18-.117.267-.18.484-.345.772-1.134.567-1.706-.144-.394-.32-.795-.578-1.122-1.955-2.534-3.9-5.074-5.928-7.552-.523-.634-1.29-1.08-1.99-1.547zM31.11 25.926c2.145.01 4.29.004 6.436.004 3.317.022 6.617-.005 9.933-.494 3.375-.498 6.83-.473 10.25-.706.735-.05 1.48-.173 2.192-.367.592-.16.923-.978.776-1.59-.146-.588-.58-.88-1.094-1.07-.192-.07-.427-.094-.632-.064-4.348.66-8.754.412-13.13.97-4.34.55-8.77.4-13.162.586-1.06.046-2.126.146-3.174.32-.658.107-.834 1.037-.39 1.525.545.598 1.208.883 1.992.886zm42.167-.255c.51.138 1.04.23 1.568.257 2.233.11 4.47.192 6.52.274 2.32-.097 4.447-.18 6.577-.28.424-.02.853-.065 1.267-.15.76-.163 1.28-.91 1.193-1.655-.075-.64-.597-1.25-1.214-1.312-.74-.067-1.49-.075-2.235-.078-3.944-.02-7.888-.027-11.83-.035-.53 0-1.066.005-1.595.054-.73.064-1.194.506-1.3 1.182-.125.776.313 1.55 1.045 1.747zm3.445 2.318c-.63-.09-1.28-.088-1.918-.065-.655.028-1.018.904-.672 1.454.688 1.09 1.712 1.62 2.944 1.668 1.602.066 3.21.017 4.813.017v.037c1.283 0 2.58.112 3.85-.03 1.69-.187 3.362-.546 5.034-.886.66-.136 1.275-.875 1.248-1.32-.025-.422-.898-.91-1.557-.866-.21.016-.424.04-.637.065-4.374.51-8.742.54-13.11-.077zm-41.158.524c-.738.093-2.212.252-3.678.47-.634.095-1.27.29-1.44 1.044-.132.578.505 1.2 1.445 1.42.31.074.625.14.94.16 2.354.127 4.64-.438 6.956-.702.1-.013.222-.055.288-.125.213-.23.512-.45.587-.723.118-.456-.19-.766-.594-.988-1.187-.65-2.485-.45-4.5-.558zM75.526 88.92c-.427-.006-.853.037-1.28.074-2.784.233-5.557.136-8.324-.24-.632-.084-1.274-.18-1.68-.16-4.62.236-8.91 1.16-13.23 1.855-.992.156-1.664.99-1.84 2.02-.144.837-.146 1.703-.19 2.556-.082 1.585.637 2.89 1.508 4.128.386.552.953.862 1.634.882.747.025 1.498.01 2.246.018 3.957.035 7.928-.092 11.872.157 2.9.185 5.756-.145 8.632-.157.986-.005 1.906-.23 2.773-.693.9-.482 1.502-1.215 1.702-2.212.43-2.162.233-4.29-.734-6.27-.59-1.21-1.664-1.94-3.093-1.957zm-1.97 6.82c-.73.117-1.467.228-2.204.243-1.7.034-3.403.01-5.104.01-2.983.04-5.967.054-8.925.6-.813.15-1.685 0-2.528-.06-.14-.012-.334-.273-.363-.442-.023-.13.154-.42.273-.437 2.937-.47 5.872-.95 8.82-1.333.943-.126 1.94-.108 2.874.06 2.323.42 4.66.466 7.006.45.267-.003.666.052.56.495-.044.165-.252.39-.412.416z"/></svg>