<svg xmlns="http://www.w3.org/2000/svg" width="128" height="128" viewBox="0 0 128 128"><path d="M123.66 95.805c-.24-.816-.473-1.643-.82-2.415-1.317-2.933-2.7-5.84-4.02-8.773-.48-1.072-.9-2.178-1.254-3.298-.815-2.57-1.73-5.075-3.62-7.095-.447-.478-.676-1.045-.687-1.74-.05-3.11-.18-6.217-.213-9.326-.062-6.006.043-12.01-.317-18.017-.438-7.387-.64-14.786-.882-22.184-.05-1.535-.38-2.966-.917-4.376-.57-1.508-1.453-2.842-2.302-4.21-1.435-2.32-3.54-3.325-6.128-3.582-.428-.043-.857-.06-1.286-.064-5.472-.048-10.947-.118-16.42-.118-1.823.002-3.643.203-5.465.3-1.82.097-3.643.302-5.455.238-1.927-.067-3.843-.004-5.764.016-10.09.107-20.18.133-30.27.17-1.07.006-2.17.04-3.21-.167-3.517-.7-7.06-.55-10.59-.35-2.572.148-5.072.772-7.26 2.305-1.792 1.256-2.747 2.782-2.7 5.113.086 4.288-.084 8.587-.202 12.877-.04 1.495-.402 2.993-.348 4.48.098 2.673.256 5.36.658 8.005.29 1.924.405 3.834.416 5.762.032 5.796.045 11.592.107 17.39.015 1.172.073 2.373.348 3.503.384 1.576.066 2.92-.672 4.31-.907 1.697-1.888 3.408-2.43 5.234-1.615 5.446-4.5 10.432-5.72 16.01-.02.106-.075.202-.11.304-1.143 3.468-1.908 7.026-2.524 10.62-.18 1.066-.166 2.2.45 3.12 1.057 1.57 1.99 3.31 4.182 3.65.608.097 1.155.553 1.734.833 4.136 1.997 8.537 2.84 13.09 2.735 4.18-.095 8.31-.965 12.51-.852.107 0 .218-.006.32-.037 1.99-.605 4.037-.47 6.072-.48 2.576-.017 5.154.026 7.727-.045 2.996-.085 6.045.158 8.97-.595 2.86-.735 5.733-.674 8.624-.685 2.148-.01 4.295.027 6.44-.005 1.07-.016 2.14-.122 3.208-.218 1.28-.113 2.555-.363 3.833-.373 4.937-.048 9.874-.02 14.81-.02v.046c4.616 0 9.233.01 13.846-.004 2.908-.01 5.763-.395 8.585-1.125 2.316-.597 4.028-1.805 5.107-4.02.53-1.092.972-2.113.927-3.34-.026-.747.007-1.52.18-2.243.603-2.49.142-4.883-.56-7.264zM20.334 30.183c.01-1.382.283-2.763.453-4.144.338-2.765.885-5.5.896-8.3 0-.767.413-1.217 1.18-1.228 3.108-.05 6.22-.093 9.327-.06 2.898.03 5.793.162 8.69.242 1.074.03 2.132-.014 3.15-.47 1.232-.552 2.532-.49 3.772-.065 1.152.394 2.317.404 3.495.394 4.184-.043 8.368-.128 12.553-.133 4.398-.007 8.796.108 13.195.067 2.136-.02 4.272-.27 6.407-.4 1.07-.064 2.144-.117 3.217-.123 2.894-.017 5.794-.077 8.69.017 2.244.073 4.482.34 6.723.545.56.048.966.352 1.29.832 1.345 1.987 2.24 4.05 2.213 6.563-.034 3.532.23 7.068.395 10.6.425 9.013.016 18.024.03 27.038.004 2.04-.02 4.078-.05 6.116-.007.62-.357.978-.963 1.067-3.84.554-7.695.516-11.554.305-.853-.047-1.732-.253-2.556-.12-3.09.5-6.206.34-9.312.467-4.71.19-9.42.4-14.098 1.03-1.058.142-2.14.127-3.213.148-5.9.102-11.797.302-17.68-.38-1.274-.145-2.59-.176-3.857-.022-2.99.36-5.984.403-8.984.424-.747.004-1.513.047-2.24.207-3.29.72-6.624.456-9.944.503-.78.014-1.09-.335-1.127-1.21-.064-1.502-.128-3.005-.13-4.508-.017-5.472-.007-10.944-.007-16.418h.018c0-6.328-.027-12.655.02-18.982zm9.417 80.884c-1.667.235-3.34.457-5.012.654-.415.05-.86.07-1.252-.033-.26-.068-.542-.337-.667-.59-.243-.487.274-.486.49-.493 1.157-.037 2.316-.018 3.47-.018v.077c.95 0 1.9-.008 2.848.004.206.002.412.08.618.124-.166.097-.322.253-.497.278zm77.603-2.582c-.424.018-.85.002-1.272.002v.002c-1.167 0-2.335.004-3.502-.01-.204 0-.406-.1-.61-.156.253-.085.502-.228.755-.24.848-.04 1.698-.043 2.55-.04.74.002 1.49-.025 2.225.064 1.102.133 2.245-.494 3.31.195-1.152.06-2.304.128-3.456.18zm11.897-6.506c-.5.172-1.044.254-1.506.497-1.59.837-3.27.862-5.003.704-1.7-.156-3.41-.31-5.12-.31-6.113-.01-12.22.013-18.333.098-1.595.02-3.185.317-4.78.464-2.23.203-4.46.44-6.696.56-2.14.115-4.29.007-6.426.163-3.947.288-7.883.7-11.824 1.053-.428.038-.857.064-1.284.066-3.546.04-7.048.42-10.517 1.17-.724.157-1.49.155-2.237.158-4.288.028-8.576.014-12.864.067-1.28.017-2.553.23-3.83.323-2.133.153-4.27.32-6.407.405-1.712.063-3.43.013-5.146.012-.322 0-.69.096-.957-.026-1.934-.89-3.985-.535-5.996-.62-1.6-.065-2.322-.938-1.967-2.544.437-1.98.97-3.942 1.508-5.9.54-1.96 1.11-3.91 1.72-5.844.256-.815.63-1.594 1-2.368 1.158-2.42 2.044-4.936 2.835-7.5.565-1.834 1.37-3.594 2.097-5.375.213-.526.63-.834 1.24-.843 1.074-.014 2.145-.058 3.217-.075 2.784-.043 5.56.023 8.335-.424 1.57-.252 3.21-.087 4.815-.155 2.674-.113 5.347-.262 8.573-.424 1.05.063 2.655.278 4.25.225 3.103-.103 6.226-.166 9.292-.6 4.043-.574 8.11-.69 12.162-.963 3.844-.258 7.715-.194 11.573-.168 1.487.01 2.97.334 4.46.464 3.197.277 6.396.644 9.602.747 3.423.11 6.858-.045 10.287-.082.644-.007 1.29.015 1.93-.023 1.174-.072 2.02.39 2.737 1.33 1.708 2.227 3.06 4.672 4.27 7.17 1.26 2.592 2.474 5.224 3.185 8.05.498 1.986 1.296 3.846 2.556 5.497.383.5.726 1.076.92 1.67.685 2.084.39 2.623-1.67 3.344zM41.7 49.493c.948 4.264 3.13 7.71 6.826 10.107 4.394 2.85 9.288 3.33 14.226 2.354 6.067-1.202 10.65-4.915 14.174-9.854 1.483-2.074 2.658-4.418 2.183-7.202-.104-.595.115-1.274.297-1.88.512-1.707.376-3.4-.035-5.077-.693-2.835-1.826-5.49-3.556-7.854-3.435-4.698-7.838-7.452-13.902-7.168-4.648.215-9.15 1.154-13.472 2.722-3.324 1.206-5.786 3.56-6.918 7.116-.757 2.37-1.272 4.75-1.15 7.38-.155 2.022.103 4.133.673 6.22.28 1.03.42 2.097.65 3.14zm13.84-5.536c-.998 3.068-1.61 6.203-1.755 9.437-.056 1.274-.313 2.54-.517 3.8-.02.112-.35.286-.487.248-.406-.11-.86-.23-1.165-.494-.285-.245-.533-.67-.563-1.038-.042-.52.133-1.056.214-1.585.272-3.672 1.382-7.13 2.7-10.528.11-.278.335-.588.588-.707.24-.113.6-.048.875.04.11.037.16.334.195.52.018.094-.05.204-.083.306zm1.43 13.632c-.004.224-.296.44-.447.648-.242-.222-.523-.377-.505-.478.686-3.875.197-7.864 1.163-11.71.21-.824.37-1.664.64-2.467.067-.205.45-.366.717-.427.134-.03.448.186.48.333.245 1.14.477 2.286.632 3.44.05.39-.03.875-.23 1.21-1.763 2.91-2.358 6.107-2.447 9.45zm3.688.736c-.846.153-1.218-.146-1.11-.9.042-.32.106-.635.157-.952-.008 0-.017-.003-.026-.004.073-.53.075-1.086.243-1.584.22-.653.11-1.458.796-1.918.18.612.383 1.22.534 1.84.177.724.34 1.455.448 2.194.107.757-.26 1.178-1.045 1.32zm7.17-29.025c.366-.525.862-.602 1.365-.21 1.454 1.128 2.743 2.42 3.627 4.043.72 1.315 1.335 2.686 1.963 4.047.224.48.224 1.103.53 1.504 1.435 1.86 1.046 3.858.47 5.832-1.56 5.318-4.834 9.248-9.774 11.772-.69.354-1.314.107-1.498-.63-.258-1.036-.444-2.09-.69-3.132-.644-2.707-1.323-5.406-1.952-8.117-.19-.83-.27-1.69-.42-2.696.074-.277.114-.72.305-1.084 1.84-3.512 3.7-7.01 5.564-10.51.147-.286.32-.558.506-.82zm-19.293.114c.217-.464 1-.732 1.58-.94 4.497-1.613 9.15-1.933 13.876-1.573.21.017.418.094.623.146.373.094.644.7.42 1.013-.468.66-.965 1.3-1.452 1.944L63.515 30v.095l.092-.085c-.31.786-.587 1.59-.933 2.357-.706 1.56-1.54 3.065-2.158 4.655-.902 2.315-.924 2.302-3.036.707-.68-.514-1.24-1.18-1.88-1.75-1.99-1.78-4.014-3.526-5.98-5.334-.407-.375-1.464-.43-1.087-1.23zm.936 14.035c.22-.693.745-1.04 1.463-.885.267.056.484.336.696.496-.076.286-.097.497-.18.676-1.527 3.2-2.306 6.603-2.816 10.084-.017.11-.285.29-.392.262-.183-.046-.342-.217-.49-.358-.07-.07-.134-.2-.122-.29.453-3.358.813-6.734 1.842-9.984zm-4.37-3.92c.02-.045.11-.053.165-.077.025.094.083.194.066.28-.06.317-.176.347-.274.082-.03-.082.008-.2.045-.288zm.523 2.69c.32.006.648.02.955.1.286.08.595.19.427.643-.555 1.506-1.077 3.022-1.62 4.53-.033.09-.145.153-.22.227-.052-.092-.14-.18-.155-.278-.23-1.37-.447-2.743-.588-3.62-.025-1.265.356-1.62 1.2-1.602zm48.096 2.92c-.588.29-.995.06-1.38-.38-.66-.75-1.436-1.33-2.505-1.1-1.39.3-2.54 1.054-3.477 2.11-.363.406-.427 1.436-.023 1.793.365.326.898.55 1.387.62.385.06.854-.11 1.22-.305.622-.332.858-.09 1.21.44 1.38 2.068 2.02 2.124 4.03.513.084-.063.154-.15.227-.223.333-.35.714-.433 1.143-.196 1.235.68 2.425.55 3.664-.06.54-.267 1.205-.27 1.813-.395.01.056.02.11.026.164.318 0 .638.024.953-.005.58-.056.965-.395 1.19-.922.257-.594-.037-1.09-.442-1.41-.483-.384-1.06-.74-1.65-.885-1.3-.322-2.5.52-3.712.558-1.186.035-2.365-.97-3.674-.32zM81.92 26.665c.89 1.163 1.615 1.384 3.025.672.736-.376 1.308-.59 1.995.017.725.644 1.55.616 2.374.175.956-.512 1.93-.904 3.144-.533.533-.082 1.173-.118 1.774-.29.555-.16.815-.64.864-1.215.043-.542-.296-1.118-.82-1.213-1.646-.297-3.268-1.086-4.975-.156-.667.363-1.202-.094-1.696-.53-.608-.536-1.307-.758-2.052-.332-.733.422-1.36.366-2.062-.1-.322-.213-.805-.25-1.214-.245-.693.005-1.17.392-1.517 1-.326.576-.085 1 .245 1.444.317.428.588.884.91 1.304zM21.912 33c.71-.244 1.11-.113 1.675.38 1.05.924 1.813.836 2.778-.084.23-.22.37-.53.58-.768.3-.34.642-.528 1.113-.253.272.158.592.237.79.312.217.02.322.026.43.036 1.412.142 2.354-1.566 3.892-1 .14.05.386-.152.568-.26.79-.477.93-1.65.238-2.188-.878-.686-1.81-1.13-2.957-.59-.77.36-1.506.733-2.327-.082-.605-.6-1.424-.416-2.06.11-.714.59-1.377.992-2.275.302-.2-.154-.677-.14-.918-.005-1.27.693-2.19 1.693-2.47 3.174-.095.533.387 1.104.943.914zm11.57 16.71c-1.037.292-2.055.7-3.1.095-1.068-.62-2.066-.433-3 .24-.758.544-1.406.864-2.28.105-.594-.517-1.435-.378-2.144-.064-.62.272-1.015.78-1.1 1.472-.063.547.4 1.18 1.07 1.453.392.16.86.18 1.205.4 1.284.827 2.447.59 3.534-.33.73-.616 1.446-.82 2.336-.32.454.257.992.36 1.312.47 1.667.01 2.928-.512 3.97-1.506.317-.302.34-.768.082-1.18-.454-.726-1.085-1.06-1.884-.834zM73.91 88.85c-1.607.312-3.164.38-4.766.068-.834-.16-1.7-.166-2.554-.237-4.752-.385-9.362.634-13.99 1.44-.72.127-1.416.48-2.084.813-.853.418-1.29 1.18-1.13 2.11.216 1.248.365 2.443.276 3.747-.143 2.09 1.28 3.284 3.435 3.33.642.01 1.284-.022 1.928-.044 1.92-.068 3.84-.235 5.755-.186 2.453.062 4.904.294 7.356.454l.007-.15c1.285 0 2.573.052 3.854-.016 1.38-.075 2.763-.227 4.133-.41 2.054-.275 3.13-1.587 3.475-4.01.19-1.322-.22-2.55-.587-3.772-.774-2.58-2.443-3.653-5.106-3.136zm-.57 6.833c-.32.032-.64.073-.96.075-1.5.007-2.998.002-4.5.002-2.674.032-5.342-.064-8.005.448-1.774.34-3.62.32-5.434.427-.13.008-.36-.228-.386-.38-.03-.17.064-.468.2-.545.363-.205.765-.403 1.173-.465 4.453-.672 8.913-1.186 13.435-.757 1.488.143 2.995.07 4.492.128.157.007.316.24.456.384.155.16-.18.656-.466.683zM57.83 35.62c.58.013 1.154-.577 1.227-1.26.1-.963-.512-1.707-1.436-1.74-.66-.02-1.193.502-1.224 1.204-.043.958.61 1.775 1.434 1.795zm1.19-4.41c.194.025.43-.023.604-.118.58-.316.83-.963.667-1.632-.16-.655-.733-1.212-1.29-1.248-.097.018-.203.02-.297.058-.555.222-.89.878-.815 1.584.078.712.53 1.282 1.13 1.358zm-4.257-.562c.644-.02 1.16-.623 1.09-1.266-.08-.672-.64-1.195-1.245-1.16-.578.032-1.197.736-1.126 1.28.078.61.697 1.165 1.28 1.145zm8.65-2.034c-.11-.254-.66-.41-1.023-.43-.203-.012-.605.335-.608.526-.006.36.11.912.36 1.045.388.21.904.19 1.378.245-.008-.474.064-.98-.107-1.387zm-9.208 2.953l-.494-.228c-.084.132-.17.265-.252.4.157.065.323.195.47.176.104-.015.183-.227.276-.35z"/></svg>