<svg xmlns="http://www.w3.org/2000/svg" width="128" height="128" viewBox="0 0 128 128"><path d="M123.272 94.373c-1.024-2.7-2.365-5.28-3.627-7.886-.89-1.838-1.707-3.696-2.25-5.668-.638-2.298-1.543-4.463-3.193-6.24-.625-.68-.78-1.463-.74-2.375.047-1.067.11-2.187-.16-3.196-.345-1.28-.332-2.543-.35-3.826-.15-10.29.316-20.59-.595-30.874-.348-3.943-.256-7.92-.576-11.882-.292-3.627-1.903-6.537-4.083-9.23-.968-1.198-2.344-1.893-3.893-2.056-2.344-.245-4.693-.516-7.046-.576-3.648-.096-7.3-.034-10.95-.016-1.07.006-2.172-.043-3.208.18-1.915.408-3.837.42-5.766.42-8.48.007-16.96.003-25.53.003-6.78.196-13.644.213-20.513-.13-3.096-.157-6.214.135-9.325.174-2.443.032-4.006 1.283-5 3.406-1.19 2.544-2.125 5.156-2.152 8.01-.02 1.825-.047 3.65-.02 5.476.057 4.29.15 8.582.217 12.873.138 8.902.257 17.806.415 26.71.02 1.28.112 2.575.34 3.834.123.68.13 1.242-.183 1.842-.642 1.236-1.293 2.47-1.867 3.74-.574 1.266-1.14 2.543-1.566 3.86-.823 2.558-1.76 5.06-2.89 7.496-.45.97-1.007 1.945-1.195 2.974-.33 1.814-.995 3.5-1.55 5.23-1.076 3.362-1.765 6.822-2.467 10.28-.123.6-.11 1.343.135 1.885.97 2.125 1.86 4.37 4.647 4.79.5.074.966.443 1.434.7 3.86 2.136 8.128 2.678 12.405 2.85 2.767.113 5.57-.24 8.335-.57 5.333-.638 10.7-.62 16.046-.93 3.318-.195 6.653-.13 9.98-.19.64-.015 1.32.037 1.92-.144 3.98-1.214 8.06-.96 12.13-1.004 3.005-.032 6.027-.002 9.005-.337 3.324-.374 6.63-.417 9.956-.31 3.215.107 6.427.267 9.64.333 3.114.06 6.227.075 9.34.023 2.89-.048 5.736-.512 8.58-1.024 2.86-.516 4.94-1.87 6.213-4.51.336-.694.584-1.35.62-2.12.033-.744.16-1.487.295-2.22.623-3.355.232-6.648-.96-9.78zM21.067 24.688c.092-.527.3-1.062.26-1.58-.242-3.018 1.927-4.598 3.764-6.364.277-.265.78-.4 1.18-.4 2.038-.006 4.106-.152 6.1.146 2.14.32 4.27.427 6.407.42 11.802-.05 23.602-.118 35.403-.18 2.25-.013 4.497-.224 6.735-.284 6.645-.178 13.298-.085 19.947-.093 1.402 0 2.37.57 3.087 1.884 1.097 2.014 1.91 4.02 1.822 6.38s-.003 4.72.062 7.08c.06 2.245-.002 4.494.44 6.73.223 1.14.127 2.352.104 3.532-.136 6.32-.307 12.642-.443 18.966-.047 2.144-.017 4.29-.048 6.436-.02 1.394-.227 1.59-1.725 1.68-.856.054-1.714.07-2.573.07-2.79.007-5.58-.07-8.37.01-4.175.116-8.35.35-12.525.52-1.714.067-3.435.047-5.146.145-1.71.096-3.41.288-5.115.437-.107.01-.213.026-.32.032-5.773.384-11.554 1.2-17.33.597-4.5-.467-8.992-.38-13.488-.48-2.354-.053-4.688.162-7.04.465-3.494.45-7.022.906-10.575.7-.62-.036-1.04-.35-1.114-.937-.157-1.27-.33-2.55-.335-3.83-.032-5.794-.015-11.584-.015-17.38h-.02c0-5.15.063-10.3-.024-15.45-.053-3.132.368-6.194.893-9.26zm7.264 86.798c-.2.043-.414.032-.986.064-.88-.187-2.104-.445-3.324-.712-.094-.02-.17-.117-.255-.18.092-.048.177-.13.27-.137.52-.05 1.05-.166 1.555-.1.926.123 1.84.348 2.752.555.19.043.356.192.533.288-.18.078-.356.18-.544.226zm77.136-3.193c-.21.025-.424.006-.912.006-.043-.005-.36-.02-.672-.06-.095-.013-.178-.096-.266-.146.096-.043.194-.115.292-.12.53-.02 1.062-.043 1.59-.02.197.007.388.13.583.202-.206.046-.41.113-.615.135zm5.123-.1c-.366.062-.73.108-1.15.163.04-.227.05-.335.06-.335.38-.002.754.004 1.13.01-.012.055-.02.16-.04.164zm8.845-5.737c-1.77.32-3.488.885-5.355.834-4.61-.12-9.223-.04-13.836-.04v-.158c-4.72.07-9.448-.034-14.153.263-4.17.262-8.323.75-12.512.608-3.46.846-7.06.24-10.53 1.035-.62.14-1.28.1-1.925.12-4.18.124-8.333.476-12.448 1.27-.832.16-1.707.155-2.563.163-3.43.04-6.864.058-10.296.083-2.243.017-4.503-.224-6.7.45-3.855.064-7.673.848-11.545.565-.32-.023-.69.1-.956-.023-1.937-.91-3.992-.546-6.005-.61-.108-.002-.217.002-.323-.008-1.287-.11-1.862-.78-1.803-2.146.02-.532.043-1.083.18-1.593 1.384-5.056 2.604-10.16 4.794-14.965.796-1.746 1.347-3.61 1.99-5.425.285-.806.456-1.66.788-2.443 2.1-4.924 1.032-4.01 5.9-4.143 4.607-.125 9.21-.22 13.815-.573 3.417-.26 6.864-.235 10.294-.16 5.056.11 10.054-.323 15.043-1.102 1.58-.245 3.21-.117 4.816-.224 1.49-.092 2.976-.266 4.465-.41.743-.07 1.488-.175 2.235-.202.963-.037 1.933.032 2.896-.02 3.99-.22 7.903.484 11.84.935 1.17.133 2.34.32 3.516.33 4.612.052 9.222.063 13.835.05 4.74-.015 3.78-.53 6.454 3.383 2.485 3.635 4.39 7.61 5.688 11.84.818 2.67 1.644 5.318 3.44 7.552.38.477.565 1.15.717 1.766.315 1.29-.445 2.765-1.758 3zm-44.94-13.483c-3.003.235-5.985.177-8.96-.284-.527-.083-1.065-.077-2.244-.15-3.705.566-8.037 1.187-12.35 1.933-.984.17-1.657 1.024-1.784 2.064-.13 1.058-.31 2.17-.114 3.192.497 2.612 1.457 4.824 4.758 4.34.316-.046.642-.03.962-.02 4.384.06 8.776.015 13.155.225 2.688.13 5.323-.33 7.987-.32.31 0 .624-.14.925-.24 1.567-.535 2.493-1.58 2.64-3.275.123-1.4.08-2.774-.315-4.132-.762-2.607-2-3.544-4.663-3.337zM73.5 95.76c-1.053.128-2.115.192-3.175.216-1.38.032-2.763.008-4.143.008-2.987.032-5.967.083-8.925.61-.81.146-1.68-.025-2.517-.102-.128-.013-.32-.3-.323-.463-.004-.144.195-.397.337-.42 3.765-.673 7.53-1.603 11.386-1.236 2.443.23 4.87.504 7.328.457.187-.003.376.17.562.26-.175.236-.33.643-.53.668z"/></svg>