<svg xmlns="http://www.w3.org/2000/svg" width="128" height="128" viewBox="0 0 128 128"><path d="M119.58 102.96c-.292-1.027-.564-2.065-.938-3.06-.75-2.006-1.515-4.012-2.37-5.974-.853-1.952-1.61-3.96-2.973-5.667-.52-.65-.83-1.495-1.104-2.295-.496-1.438-1.21-2.746-2.155-3.923-1.04-1.285-2.31-2.144-4.01-2.46-1.49-.273-2.965-.42-4.47-.43-2.897-.026-5.795-.028-8.69-.14-1.6-.062-3.19-.443-4.79-.476-6.97-.136-13.924-.784-20.903-.704-2.765.032-5.58.355-8.277-.632-.193-.067-.426-.03-.64-.042-2.567-.165-5.132-.418-7.702-.476-4.61-.096-9.224-.085-13.84-.096-.746-.003-1.492.096-2.24.17-1.276.13-2.552.38-3.828.393-2.288.017-4.514.452-6.575 1.32-1.813.755-3.58 1.65-4.72 3.56-2.256 3.764-4.884 7.306-7.134 11.076-1.417 2.376-2.426 5-3.62 7.51-.11 2.032-.245 4.065-.317 6.095-.026.748.09 1.5.157 2.245.027.32.067.643.148.954.4 1.533 1.597 2.5 3.154 2.65 1.167.11 2.342.23 3.485.482 2.194.493 4.358 1.11 6.65.885.523-.05 1.07.066 1.598.15 2.457.4 4.898.355 7.358-.03 2.01-.32 4.04-.604 6.07-.684 2.57-.105 5.15-.096 7.72.06 2.56.154 5.106.564 7.663.83.528.06 1.07-.03 1.604-.046 5.14-.153 10.287-.34 15.43-.446 3.324-.065 6.65-.005 9.976-.012 3.534-.01 7.057-.067 10.58.534 1.76.3 3.628.008 5.44-.066.96-.04 1.913-.254 2.87-.275 2.144-.042 4.292-.01 6.438-.01v-.064c2.575 0 5.15.03 7.725-.005 1.88-.03 3.552-.694 5.056-1.826.63-.472 1.013-1.04 1.144-1.845.26-1.58.55-3.16.95-4.707.228-.862.322-1.68.08-2.528zm-8.64 1.777c-4.044.418-8.08 1.118-12.175.79-3.096-.257-6.225-.358-9.27-.908-4.45-.813-8.902-1.224-13.418-1.126-2.36.053-4.72.013-7.083.013v-.073c-4.398.08-8.796.158-13.195.248-.535.013-1.08.043-1.597.155-3.083.665-6.2.32-9.306.337-3.06-.956-6.133-.344-9.227-.213-5.893.246-11.802.196-17.706.257-.412 0-.838-.107-1.232-.24-.143-.047-.293-.332-.284-.492.01-.163.19-.397.348-.45.296-.11.63-.1.946-.157 1.367-.253 2.752-.445 4.096-.786.706-.18 1.387-.565 2.005-.97.86-.566.753-1.947-.17-2.412-.47-.235-1.01-.465-1.513-.457-1.177.02-2.35.16-3.518.31-.528.068-1.028.315-1.55.42-.528.1-1.132.148-1.406-.434-.352-.743.296-1.958 1.062-2.03.853-.084 1.72-.016 2.57-.13 1.162-.155 2.324-.367 3.46-.652.764-.195 1.222-1.04 1.11-1.75-.114-.715-.748-1.328-1.567-1.368-.96-.043-1.925.02-2.89.006-.182-.002-.362-.18-.543-.28.194-.234.34-.59.59-.68.493-.177 1.044-.196 1.565-.31 1.878-.42 3.768-.796 5.622-1.307.687-.19 1.355-.625 1.906-1.1.917-.79.71-2.132-.346-2.68-.87-.45-1.77-.78-2.776-.48-.31.097-.614.22-.93.257-.59.064-1.23.434-1.745-.203.385-.498.684-1.117 1.174-1.46.49-.353 1.167-.562 1.777-.604 8.566-.572 17.135-1.018 25.724-.89 1.5.027 3.017.04 4.496.257 2.25.33 4.482.296 6.733.088 1.067-.096 2.16-.235 3.206-.105 4.596.57 9.212.38 13.823.465 1.173.023 2.342.192 3.514.307.317.032.63.16.946.168 4.82.128 9.595 1.12 14.443.83 1.07-.065 2.15-.065 3.216.018.846.064 1.68.29 2.517.456 1.38.27 2.307 1.093 2.776 2.406.612 1.73 1.373 3.366 2.604 4.763.274.31.403.747.57 1.14.832 1.972 1.664 3.95 2.487 5.93.207.49.42.984.577 1.493.84 2.78.552 3.324-2.42 3.632zM19.39 66.944c.008.213.016.427.034.642.24 2.746 1.61 4.796 3.812 6.394 2.05 1.49 4.448 1.64 6.763 1.523 1.854-.094 3.617.565 5.422.32 1.797-.245 3.568-.648 5.4-.68 1.39-.025 2.774-.3 4.164-.325 2.032-.04 4.072-.038 6.1.096 3.634.245 7.26.653 10.894.9 6.636.445 13.28.762 19.935.774.43.002.864-.006 1.285.064 4.157.646 8.35.544 12.528.517 3.616-.023 6.93-1.183 9.987-3.088 1.216-.757 2.096-1.77 2.667-3.12 1.436-3.387 2.443-6.868 2.457-10.57.02-5.26.005-10.52.005-17.17.046-3.226.1-7.84.18-12.453.07-4.014-.58-7.89-2-11.65-.985-2.602-2.76-4.237-5.41-5.06-1.98-.61-3.988-.816-6.032-.784-5.895.088-11.797-.133-17.685.523-2.655.292-5.34-.124-8.012-.253-9.547-.463-19.093-.056-28.617.665-2.68.2-5.33.49-8.01.11-.31-.042-.646-.03-.954.036-2.008.436-4.043.42-6.082.497-3.5.133-4.667.78-6.995 3.312-.677.735-1.153 1.51-1.27 2.527-.11.954-.433 1.883-.54 2.834-.577 5.123-.787 10.267-.74 15.42.034 3.972.095 7.943.202 11.914.142 5.36.337 10.718.51 16.08zm5.352-24.786c.192-3.957.3-7.925.606-11.872.18-2.34.706-4.65 1.05-6.976.162-1.107.886-1.736 1.85-2 1.96-.534 3.933-1.2 5.934-1.363 4.47-.363 8.92-.904 13.46-.387 3.27.37 6.63-.03 9.95-.102.856-.017 1.71-.14 2.565-.15 6.97-.077 13.94-.116 20.912-.22 3.21-.047 6.42-.005 9.625-.383 1.906-.22 3.856-.1 5.786-.075 2.23.034 4.148 1.022 5.953 2.193 1.203.78 1.986 1.995 2.395 3.35.554 1.836.974 3.69.935 5.666-.096 4.93-.032 9.865-.032 14.8h-.106c0 4.932-.07 9.87.02 14.8.065 3.425-1.268 6.324-3.316 8.833-1.483 1.82-3.518 2.965-6.06 3.243-2.254.248-4.444.17-6.69.046-6.956-.38-13.92-.587-20.882-.804-2.57-.084-5.144.047-7.685-.515-.722-.158-1.494-.083-2.243-.14-2.348-.175-4.694-.385-7.044-.54-2.89-.186-5.774-.264-8.66.208-3.512.577-7.068.38-10.593.214-1.668-.08-3.325-.747-4.956-1.248-.832-.256-1.46-.864-1.826-1.707-.636-1.478-1.236-2.94-1.215-4.61.096-6.756-.06-13.52.27-20.26zm49.71 50.51c-.656-1.216-1.706-1.893-3.108-1.963-.533-.03-1.07-.05-1.606-.06-2.144-.042-4.288-.138-6.427-.097-2.683.053-5.317.512-7.874 1.34-.478.156-1.04.442-1.297.843-1.576 2.426-2.218 5.087-1.648 7.955.067.33.513.783.833.832.945.147 1.915.147 2.876.15 2.464.018 4.928.007 7.39.007v-.18c3.005 0 6.004 0 9.007-.003.535 0 1.073 0 1.604-.06.64-.065 1.2-.62 1.286-1.25.252-1.82.156-3.647-.194-5.44-.138-.716-.483-1.42-.837-2.07zm-3.545 6.112c-.734.117-1.488.107-1.764.12-2.917-.203-5.365-.37-7.813-.546-1.585-.114-3.157-.5-4.763-.105-.42.1-.846-.11-.977-.596-.235-.856.043-1.773.642-1.92.925-.233 1.87-.474 2.816-.512 2.56-.105 5.13-.112 7.694-.144 1.067-.014 2.136-.012 3.203.024.728.02 1.21.39 1.368 1.117.133.61.183 1.26.15 1.884-.016.245-.332.636-.556.676zM42.453 35.82c.79.287 1.636.49 2.47.572.957.094 1.932-.004 2.896.015.55.016 1 .448 1.036 1.022.114 1.926.295 3.84.818 5.71.803 2.88 2.003 5.65 2.418 8.636.028.21.1.416.174.62.476 1.28.968 1.654 2.41 1.666 2.678.02 5.358.006 8.037.006v-.155c1.072 0 2.144-.02 3.216.006 1.177.032 2.354.144 3.533.17 4.03.082 4.173.03 5.156-4.065.404-1.69.852-3.285 1.7-4.8.684-1.22 1.082-2.56 1.113-3.99.04-1.925-1-3.045-2.92-3.056-.42-.003-.836.187-1.26.223-.958.085-1.923.187-2.883.178-4.61-.033-9.226-.102-13.84-.164-1.058-.013-2.283.277-3.134-.155-1.067-.54-.47-1.947-.63-2.97-.204-1.283-.953-2.18-2.202-2.47-.516-.12-1.062-.17-1.594-.153-1.39.037-2.79.053-4.17.22-.83.106-1.66.406-2.422.762-.736.34-.68 1.892.075 2.17zm29.033 6.64c.117.003.3.268.31.424.017.196-.086.416-.175.608-.76 1.653-1.49 3.31-1.534 5.184-.014.54-.512.803-1.197.774-.624-.026-.995-.363-1.01-.978-.02-.856-.005-1.712-.005-2.57h-.025v-.643c-.018-3.328-.172-2.994 3.634-2.8zm-8.032-.065c.595-.06 1.084.305 1.07.843-.018.843-.078 1.683-.12 2.523.004.004.015.004.015.004-.05.944-.058 1.893-.173 2.83-.025.212-.405.404-.658.543-.05.027-.275-.23-.39-.38-.06-.074-.075-.2-.085-.302-.188-1.672-.38-3.346-.553-5.02-.064-.61.274-.975.892-1.038zm-7.467 0c.423 0 .85-.023 1.272.005.472.03.783.288.83.776.18 1.792.363 3.58.504 5.373.036.46-.248.78-.736.87-.812.15-1.552-.034-1.702-.47-.514-1.505-.996-3.022-1.515-4.526-.64-1.853-.515-2.054 1.345-2.03zm2.19 13.498c-1.86-.125-3.585 1.216-3.962 3.023s.992 4.363 3.243 4.194c2.278-.072 4.107-2.448 3.62-4.704-.32-1.486-1.39-2.413-2.9-2.513zm11.38.854c-1.056-.27-2.133-.355-3.17-.034-.606.188-1.148.594-1.246 1.33-.054.422-.09.85-.137 1.315.064.49.08 1.035.21 1.547.29 1.152 1.464 2.076 2.587 2.016 1.616-.085 2.868-.804 3.547-2.33.638-1.433-.126-3.42-1.792-3.843z"/></svg>