<svg xmlns="http://www.w3.org/2000/svg" width="128" height="128" viewBox="0 0 128 128"><path d="M98.042 40.734c0-1.283.053-2.69-.02-4.09-.04-.805-.23-1.615-.45-2.395-1.217-4.316-3.24-8.247-5.585-12.05-1.626-2.64-3.877-4.66-6.157-6.66-.77-.675-1.764-1.17-2.733-1.54-2.618-1.002-5.276-1.9-7.925-2.82-.437-.15-.907-.25-1.365-.292-3.718-.35-7.39-.603-11.168-.08-6.153.85-11.808 2.78-17.005 6.116-4.674 3.004-8.725 6.66-11.424 11.588-1.4 2.555-2.63 5.21-3.824 7.87-.373.82-.512 1.802-.544 2.716-.078 2.222-.043 4.448-.016 6.672.008.697.055 1.41.205 2.087.563 2.504 1.22 4.988 1.747 7.5.222 1.06.697 1.938 1.218 2.865 1.27 2.275 2.797 4.31 4.84 5.934 1.413 1.126 2.357 2.576 3.043 4.22.538 1.297 1.092 2.587 1.642 3.877C44.986 78.03 46.435 84 46.087 90.33c-.034.584-.102 1.178-.036 1.752.08.683.114 1.46.465 2.005.873 1.365 1.013 2.823.98 4.373-.02.81.124 1.624.218 2.437.264 2.32 1.12 4.285 3.285 5.472.795.435.864 1.132 1.018 2.003.384 2.14 1.604 3.843 3.54 4.992 3.055 1.81 6.352 2.987 9.83 3.57 1.712.288 3.496.398 5.223-.125 4.207-1.28 7.063-3.946 8.33-8.2.175-.59.384-1.074.924-1.405.395-.245.766-.533 1.134-.82 1.963-1.54 3.037-3.525 2.984-6.056-.037-1.874-.11-3.746-.112-5.618-.002-1.045-.09-2.155.21-3.127.68-2.204.676-4.348.11-6.557-.412-1.612-.32-3.212.107-4.85 1.9-7.268 4.786-14.15 8.043-20.895 1.17-2.418 2.317-4.85 3.52-7.253 1.764-3.526 2.773-7.196 2.19-11.298zm-46.036 50.43c-.205-.236-.38-.62-.343-.908.072-.544.557-.658 1.045-.643.352.01.707.01 1.05.073 4.865.89 9.784.6 14.69.66 1.286.02 2.573.012 3.86 0 1.746-.016 3.51.113 5.202-.522.14-.053.39.15.562.273.056.04.053.224.018.317-.416 1.14-1.115 2.09-2.22 2.596-1.266.576-2.57 1.123-3.91 1.488-2.952.806-5.972 1.077-9.786.69-.297 0-1.352-.048-2.4.01-2.656.143-4.73-.98-6.49-2.853-.4-.42-.902-.75-1.28-1.182zm26.708 8.78c-.252 1.767-1.71 2.856-4.117 3.09-1.042.1-2.1.005-3.15.005-1.977-.005-3.957-.004-5.94-.004v.034c-2.796 0-5.594.05-8.388-.024-1.03-.027-2.06-.313-3.078-.525-1.385-.29-1.808-1.314-1.9-2.58-.05-.665.444-1.095 1.058-.794 2.582 1.267 5.41 1.323 8.172 1.616 5.395.573 10.677-.11 15.847-1.736.11-.034.217-.126.32-.123.324.017.74-.046.94.127.197.177.277.615.235.914zm10.17-50.61c-.91 1.896-1.823 3.796-2.836 5.638-3.64 6.57-6.354 13.525-8.608 20.67-.523 1.655-.94 3.364-1.18 5.084-.24 1.69-1.413 2.5-2.83 2.52-.936.012-1.873.063-2.81.067-2.224.01-4.448.003-6.672.003v-.133c-2.928 0-5.852.032-8.776-.015-1.288-.02-1.56-.384-1.62-1.747-.02-.465-.027-.937-.003-1.402.043-.973-.16-1.893-.79-2.632-.897-1.056-1.02-2.296-1.17-3.595-.132-1.143-.33-2.36-.843-3.367-1.493-2.91-3.136-5.743-4.78-8.57-.467-.8-1.158-1.42-2.12-1.74-.636-.208-1.35-.57-1.73-1.085-1.388-1.86-2.768-3.683-3.553-5.97-.932-2.712-1.385-5.41-1.24-8.248.097-1.87.12-3.745.198-5.616.077-1.893.636-3.643 1.423-5.373 2.428-5.33 6.564-8.915 11.445-11.93 4.09-2.524 8.558-3.81 13.18-4.48 6.19-.9 12.112.33 17.563 3.448 1.832 1.05 3.26 2.638 4.41 4.427 1.966 3.055 3.655 6.238 4.676 9.76.46 1.59.62 3.173.732 4.816.224 3.39-.63 6.484-2.065 9.473zM73.93 56.62c-.6.24-.94 1.283-1.69.844-.554-.326-.884-1.058-1.274-1.638-.256-.384-.405-.843-.67-1.222-.556-.796-1.732-1.15-2.456-.467-1.11 1.045-1.804.597-2.966.02-1.416-.696-3.14-.81-4.747-1.066-2.856-.46-5.87 1.417-5.62 4.606.045 1.005.005 1.6.106 2.17.95 5.4 1.917 10.796 2.89 16.19.083.458.294.892.38 1.348.232 1.21.943 2.123 1.784 2.955.514.51 1.133.87 1.888.68 1.757-.446 3.394.02 5.028.593 1.073.373 1.888.21 2.464-.66.506-.766.892-1.63 1.205-2.495 1-2.74 1.98-5.49 2.89-8.257 1.24-3.76 2.427-7.54 3.6-11.327.22-.704.004-1.397-.52-1.938-.538-.555-1.487-.658-2.288-.337zm-11.29 9.843c-.034.222-.15.454-.293.624-.14.165-.366.258-.557.384-.053-.1-.132-.194-.15-.3-.39-2.296-.77-4.595-1.157-6.892l.15-.028c0-.352-.005-.704 0-1.053.015-.735.317-1.09.995-1.14.466-.03.937-.055 1.4-.013.463.043.927.15.822.81-.405 2.535-.798 5.074-1.21 7.606zm5.824 2.865c-.1.162-.324.252-.49.377-.07-.216-.172-.427-.207-.646-.035-.227-.008-.463-.008-1.44.234-1.44.534-3.613.952-5.763.256-1.308.736-1.47 2.28-1.032.11.032.28.013.327.082.175.258.486.59.43.813-.694 2.707-1.836 5.228-3.286 7.61z"/></svg>