<svg xmlns="http://www.w3.org/2000/svg" width="128" height="128" viewBox="0 0 128 128"><path d="M98.04 41.9c-.05-2.564.088-4.508-.446-6.405-.917-3.264-1.928-6.493-3.648-9.442-.926-1.584-1.852-3.17-2.867-4.7-1.68-2.527-4.017-4.423-6.29-6.367-.218-.184-.49-.328-.757-.43-4.23-1.628-8.357-3.444-12.992-3.888-4.81-.463-9.442.14-14.05 1.283-4.93 1.226-9.402 3.458-13.506 6.458-4.523 3.303-8.188 7.328-10.578 12.437-.657 1.397-1.21 2.852-1.97 4.192-.7 1.222-1.04 2.48-1.038 3.864.004 2.42-.022 4.84.016 7.26.013.87.1 1.75.286 2.596.49 2.264 1.037 4.517 1.59 6.768.16.65.317 1.34.652 1.906 1.472 2.498 3.016 4.946 5.362 6.77 1.074.837 1.92 1.874 2.507 3.15 2.753 5.997 5.246 12.05 5.695 18.76.117 1.743.334 3.49.064 5.2-.19 1.243-.06 2.292.612 3.306.668 1.01.866 2.112.828 3.314-.042 1.35.05 2.688.3 4.038.288 1.534 1.03 2.675 2.162 3.648.22.19.433.395.677.547.846.523 1.64 1.06 1.21 2.263.587 1.754 1.265 3.37 2.976 4.464 3.922 2.51 8.222 3.84 12.798 4.253 3.087.28 5.675-1.125 7.792-3.204 1.57-1.543 3.045-3.26 3.392-5.623.063-.41.473-.81.804-1.13.34-.332.8-.54 1.178-.84 1.57-1.254 2.603-2.777 2.86-4.862.185-1.542.33-3.04.106-4.606-.24-1.615-.57-3.297-.053-4.9.804-2.49.672-4.983.186-7.46-.27-1.376-.224-2.645.09-4 1.643-7.115 4.632-13.73 7.622-20.33 1.312-2.89 2.822-5.7 4.176-8.585 1.54-3.294 2.602-6.654 2.252-9.707zM51.63 89.65c.65-1.314 1.648-2.116 3.19-2.07.384.015.773.03 1.156.037 2.89.05 5.783.096 8.677.145l.005-.252c3.18.078 6.364.224 9.547.21 1.656-.008 2.56 1.14 3.69 1.973.084.06.054.34.005.5-.416 1.345-1.14 2.43-2.517 2.974-.715.285-1.39.69-2.125.888-2.793.764-5.602 1.424-8.54 1.267-2.124-.11-4.244-.145-6.37-.213-.19-.007-.387.01-.578-.018-1.725-.222-5.178-2.534-6.1-4.07-.278-.458-.265-.925-.042-1.373zm26.74 10.683c-.245.87-.683 1.602-1.55 1.97-1.143.485-2.27 1.058-3.6.683-.453-.13-.96-.064-1.5-.085-2.444.116-4.945.258-7.446.348-1.54.055-3.09.103-4.63.01-1.725-.104-3.453-.287-5.155-.586-1.796-.31-2.573-1.364-2.573-3.247 0-.192.346-.533.544-.547.76-.04 1.553-.096 2.287.066 2.74.606 5.51.91 8.31.87 1.535-.028 3.068-.21 4.6-.33 1.06-.08 2.118-.16 3.173-.266 1.05-.107 2.095-.288 3.148-.366 1.05-.077 2.107-.11 3.157-.093 1.17.02 1.532.522 1.234 1.57zm12.155-56.7c-.335 2.68-.72 5.358-1.278 7.997-.32 1.498-1.02 2.9-1.95 4.18-.73 1.01-1.344 2.13-1.853 3.267-2.183 4.85-4.307 9.726-6.447 14.594-.233.53-.49 1.063-.634 1.618-.6 2.334-1.166 4.678-1.747 7.02-.228.92-.79 1.352-1.678 1.034-.868-.31-1.71-.225-2.575-.22-1.45.007-2.9.01-4.352-.01-.435-.01-.71-.308-.74-.73-.14-1.927-.27-3.854-.357-5.785-.01-.203.26-.533.47-.603.727-.245 1.487-.4 2.232-.597.655-.173 1.315-.32 1.956-.535 3.58-1.207 5.065-3.723 4.36-7.41-.142-.752-.444-1.483-.74-2.194-.325-.775-1.062-1.124-1.903-.994-1.19.186-2.187.773-3.083 1.533-1.333 1.127-2.6 2.325-3.567 3.8-.08.116-.31.244-.416.212-.16-.056-.34-.23-.39-.39-.17-.556-.25-1.135-.43-1.683-.694-2.112-1.396-4.22-2.132-6.315-.58-1.662-.59-1.765 1.25-1.615 3.745.307 6.547-1.557 9.023-3.933 2.604-2.5 4.598-5.483 5.633-9.013.107-.37.222-.74.28-1.12.116-.785-.335-1.575-1.075-1.867-.352-.14-.736-.243-1.115-.274-3.14-.26-6.187.28-9.13 1.3-2.182.76-3.665 2.48-5.02 4.272-.52.69-.917 1.473-1.372 2.214-.22-.163-.522-.284-.645-.5-.333-.588-.576-1.228-.882-1.832-2.085-4.075-8.34-7.653-13.54-6.436-1.603.378-3.216.675-4.726 1.355-1.632.74-2.264 2.047-1.77 3.78 1.616 5.71 5.138 9.642 10.836 11.54 1.845.62 3.723 1.09 5.668 1.11 1.286.014 1.953.633 2.29 1.786.73 2.504 1.576 4.977 2.19 7.51.89 3.67 1.293 7.422 1.39 11.203.015.483.01.973-.044 1.45-.05.422-.346.713-.762.723-1.257.03-2.517.01-3.776.01v-.116c-1.255 0-2.512.02-3.77-.016-.25-.006-.684-.212-.713-.383-.248-1.336-1.608-2.137-1.58-3.66.027-1.235-.336-2.48-.552-3.717-.434-2.508-1.515-4.776-2.55-7.073-.842-1.864-1.774-3.64-3.233-5.11-.684-.686-1.21-1.535-1.932-2.17-1.77-1.568-2.848-3.652-4.26-5.49-.114-.15-.235-.316-.297-.495-.71-2.1-1.476-4.187-2.095-6.315-.706-2.427-.78-4.964-.963-7.467-.135-1.856.276-3.65 1.033-5.36.274-.62.558-1.238.79-1.872 1.617-4.442 4.594-7.792 8.397-10.476.477-.334.97-.642 1.45-.97 3.58-2.432 7.45-4.038 11.81-4.445 3.272-.308 6.523-.79 9.823-.623 1.166.06 2.31.067 3.433.46 1.73.603 3.503 1.087 5.224 1.722 3.5 1.282 6.063 3.694 7.95 6.863.89 1.494 2.012 2.914 2.574 4.527 1.01 2.89 2.376 5.734 2.07 8.96-.115 1.246.108 2.53-.05 3.77zM71.72 69.025c.19-.2.426-.424.68-.48.178-.043.415.175.63.277-.134.26-.19.528-.3.555-.342.085-.703.073-1.06.1.014-.154-.033-.366.05-.452zm-6.073-16.3c.133-.24.194-.44.322-.557.115-.11.45-.19.45-.185.39.953.78 1.907 1.097 2.888.035.118-.333.475-.565.53-.2.05-.625-.114-.678-.274-.26-.807-.434-1.643-.625-2.402zm3.293-3.316c.017-.17.18-.33.274-.49.093.015.226 0 .27.05.79.996 1.045 2.185 1.188 3.41.006.065-.105.2-.177.212-.163.032-.42.085-.494 0-.785-.912-1.163-1.977-1.06-3.184zm4.277-.6c.026-.158.1-.31.157-.465l.183.192c-.064.156-.124.31-.188.47-.055-.065-.165-.144-.156-.2zM55.732 52.22c-.064.062-.18.145-.237.122-.128-.053-.32-.156-.33-.254-.05-.55-.067-1.108-.052-1.663 0-.09.22-.174.325-.25.807.287.96 1.402.293 2.047zm-3.082-4.006c-.15.75-.392 1.48-.608 2.214-.03.09-.107.16-.164.24-.075-.15-.19-.293-.213-.448-.053-.384-.064-.77-.1-1.282.044-.256.073-.64.185-1 .04-.127.348-.304.402-.268.207.14.53.392.5.544zm-4.128-.772c-.124.56-.302 1.107-.483 1.648-.05.136-.188.243-.284.363-.043-.188-.096-.373-.125-.56-.026-.19-.024-.384-.044-.82.028-.137.07-.52.198-.87.043-.116.34-.244.46-.2.135.05.307.31.278.442zm-4.205 1.005c-.113-.19-.338-.4-.337-.607.002-.24.21-.476.328-.71.208.13.558.223.6.396.09.38-.06.744-.592.92z"/></svg>