<svg xmlns="http://www.w3.org/2000/svg" width="128" height="128" viewBox="0 0 128 128"><path d="M85.91 49.68c.67-.74 1.407-1.446 2.232-2.007 4.402-2.99 7.6-7.147 10.895-11.206.395-.482.672-1.218.672-1.838 0-2.31-1.098-3.443-3.405-3.73-.218-.03-.443-.03-.666-.024-2.164.072-4.14-.734-6.156-1.35-.7-.216-.752-.572-.194-1.21.66-.755 1.34-1.493 2.024-2.225.91-.97 1.933-1.86 2.73-2.916 1.137-1.5 2.054-3.157 3.502-4.435.75-.66.467-1.724-.516-2.17-.907-.41-1.85-.79-2.814-1.007-3.57-.806-7.14-1.61-10.74-2.283-3.713-.692-7.446-1.287-11.184-1.818-2.86-.405-5.744-.656-8.134-.917-1.27 0-2.06-.08-2.825.016-1.608.2-2.89.764-3.526 2.534-.555 1.557-1.467 2.99-2.304 4.433-3.747 6.46-8.04 12.56-12.27 18.7-2.022 2.932-3.944 5.93-5.92 8.893-.626.943-1.09 1.927-1.086 3.098.006 1.035.437 1.66 1.43 1.948 2.77.804 5.546 1.6 8.313 2.42.848.255 1.68.574 2.507.897.452.18.544.64.27 1.096-.116.19-.236.377-.356.563-3.76 5.66-7.516 11.316-11.28 16.965-1.67 2.51-2.958 5.224-4.338 7.888-.148.292-.228.624-.32.946-.155.56.11 1.1.66 1.37.298.146.59.364.906.414 2.417.37 4.672 1.46 7.155 1.576.76.036 1.516.33 2.258.555.737.223.92.6.65 1.22-.175.406-.364.812-.56 1.21-3.053 6.19-6.12 12.373-9.156 18.57-1.174 2.397-2.294 4.82-3.395 7.25-.27.596-.457 1.26-.524 1.907-.128 1.26.71 2.105 1.97 2.158 1.264.053 2.453-.198 3.5-.907 1.565-1.056 3.178-2.075 4.623-3.285 4.954-4.13 9.946-8.213 14.506-12.8 2.272-2.288 4.738-4.384 7.13-6.556.495-.448 1.007-.89 1.566-1.248 2.35-1.524 4.407-3.396 6.416-5.332 2.16-2.09 4.4-4.1 6.55-6.2 2.394-2.333 4.86-4.61 7.053-7.122 2.586-2.96 5.34-5.636 8.8-7.55.833-.46 1.083-2.272.415-2.96-.69-.713-1.38-1.398-2.452-1.635-2.49-.543-4.96-1.21-7.44-1.815-1.51-.368-3.023-.72-4.534-1.085-.31-.075-.37-.262-.16-.5 2.503-2.84 4.993-5.69 7.527-8.5zM68.22 63.233c1.794.58 3.602 1.112 5.387 1.712.725.245 1.5.5 2.096.96 1.112.85 2.707.968 3.472 2.32-.883.978-1.895 1.876-2.624 2.962-1.33 1.99-3.283 3.307-4.93 4.95-2.995 2.992-6.042 5.944-8.846 9.105-3.64 4.108-7.694 7.73-11.955 11.152-.61.483-1.203.988-1.81 1.472-.076.064-.27.117-.285.098-.105-.18-.297-.412-.25-.565.313-1.06.64-2.126 1.036-3.16.796-2.075 1.53-4.188 2.5-6.18.77-1.59 1.797-3.048 3.122-4.3 1.078-1.02.923-2.603-.244-3.507-.69-.537-1.51-.924-2.31-1.29-.604-.272-1.277-.386-1.91-.597-2.27-.766-2.277-.776-1.044-2.957 1.49-2.63 2.49-5.468 3.42-8.32.63-1.93 1.476-3.69 2.7-5.318 1.4-1.868 2.75-3.78 3.482-6.052.196-.614.707-1.12 1.003-1.71.71-1.43.376-2.98-.977-3.797-1.706-1.034-3.505-1.922-5.282-2.836-.786-.408-1.637-.69-2.42-1.107-.433-.23-.544-.7-.262-1.136.843-1.308 1.73-2.587 2.566-3.907 3.817-6.02 7.357-12.203 10.636-18.533.613-1.184 1.286-2.34 1.923-3.516.538-1 1.334-1.46 2.167-1.266 1.088.12 1.874.15 2.637.3 5.242 1.017 10.376 2.463 15.488 3.983.437.13.512.68.15 1.08-.673.742-1.313 1.512-2.03 2.206-1.686 1.63-3.003 3.555-4.406 5.41-.264.346-.45.752-.64 1.15-.99 2.073-.906 2.346 1.37 2.94 1.83.472 3.656.944 5.474 1.433.463.124.673.693.406 1.024-.487.606-.954 1.24-1.488 1.8-3.556 3.706-6.58 7.843-9.808 11.816-2.04 2.507-4.105 4.984-5.867 7.698-.356.55-.85 1.033-1.36 1.445-.587.467-.638 1.136-.883 1.745-.252.615-.02 1.1.6 1.3z"/></svg>