<svg xmlns="http://www.w3.org/2000/svg" width="128" height="128" viewBox="0 0 128 128"><path d="M113.04 58.257c-.15-2.264-.72-4.368-2.602-5.912-.683-.56-1.23-1.285-1.85-1.923-.23-.237-.457-.555-.743-.645-2.642-.826-5.163-2.087-8.013-2.178-3.554-.114-7.06-.95-10.64-.735-.1.006-.24-.036-.3-.11-.123-.14-.323-.372-.28-.473.17-.4.4-.782.65-1.14 1.213-1.724 2.594-3.353 2.647-5.636.01-.408.29-.84.525-1.21 1.013-1.595 1.978-3.23 3.12-4.728.73-.953 1.06-1.91 1.05-3.07-.022-2.78-.116-5.57.45-8.32.385-1.862-.76-3.427-.986-5.172-.037-.285-.353-.555-.586-.785-.557-.546-1.122-1.087-1.717-1.585-2.336-1.965-5.917-1.94-8.245.068-1.096.943-2.046 2.1-3.25 2.86-1.835 1.156-3.253 2.557-4.277 4.492-.668 1.26-1.62 2.415-2.624 3.437-2.423 2.458-4.925 4.834-7.444 7.192-1.376 1.296-2.88 2.453-4.277 3.733-2.87 2.632-5.737 5.275-8.554 7.967-2.67 2.553-5.75 4.56-8.74 6.683-.923.654-1.06.636-1.708-.557-.905-1.664-2.102-2.81-4.063-3.112-1.088-.168-2.123-.67-3.206-.888-2.285-.46-4.563-1.022-6.933-.803-1.88.17-3.763.294-5.643.462-3.354.3-6.095 2.484-7.025 5.727-.428 1.488-.726 3.024-.946 4.56-.35 2.42-.476 4.87-.887 7.28-.64 3.74-1.02 7.487-.992 11.28.027 3.787.005 7.573.005 11.36h-.074c0 5.123.045 10.246-.02 15.368-.022 1.723.44 3.28 1.055 4.835.665 1.682 1.88 2.71 3.65 3.087.325.07.66.096.986.17 1.512.364 3.032.688 4.528 1.113 3.598 1.024 7.28.725 10.946.826 1.55.042 2.76-.74 4.093-1.262.203-.08.435-.117.655-.123.952-.026 1.675-.495 2.347-1.124.427-.4.825-.615 1.267.134.64 1.088 1.483 1.888 2.976 1.67.597-.09 1.267.312 1.905.49 1.173.33 2.333.722 3.522.97 5.568 1.17 11.24 1.47 16.887 1.86 3.765.26 7.566.016 11.352-.007.334 0 .68.01 1-.064 3.46-.805 6.925-1.596 10.37-2.454 1.544-.38 2.88-1.248 3.905-2.43 1.69-1.946 2.976-4.11 3.585-6.69.472-1.99.467-3.966.442-5.967-.07-5.484-.54-4.3 3.22-7.237 2.104-1.645 3.297-3.823 3.594-6.53.278-2.537.93-5.045 1.057-7.582.124-2.47 1.1-4.423 2.507-6.346 1.325-1.806 2.205-3.885 2.357-6.155.108-1.55.076-3.123-.03-4.675zM24.573 59.32l.093.29-.075.294c-.05-.133-.116-.267-.143-.405-.008-.05.08-.12.126-.18zm-2.008 1.81c-.078-.258-.2-.512-.22-.776-.027-.328.025-.663.044-.996l-.14-.023c.302-1.838.57-3.683.94-5.508.082-.407.522-.74.797-1.11-.02.428-.01.86-.07 1.283-.31 2.18-1.26 4.24-1.21 6.492.007.21-.093.425-.143.637zm17.992-6.112c-.378 1.833-.328 3.758-1.427 5.43-.41.625-.59 1.448-.716 2.206-.5 3.066-.975 6.136-1.387 9.216-.16 1.21-.144 2.443-.196 3.666-.1 2.436.16 4.892-.39 7.31-.12.53-.064 1.112-.025 1.664.184 2.66.34 5.323.62 7.972.088.86.386 1.754.8 2.515 1.422 2.6 1.665 5.504 2.298 8.31.107.47-.19.943-.683.954-2.886.068-5.775.09-8.662.093-.593 0-.92-.46-.89-1.144.016-.33.155-.66.127-.985-.06-.69-.827-1.15-1.48-.91-.31.112-.59.313-.9.427-.38.143-.97.452-1.13.308-.553-.49.002-.992.227-1.457.672-1.4 1.393-2.775 2.06-4.178.28-.597.55-1.225.665-1.87.067-.377-.064-.962-.33-1.177-.253-.2-.926-.207-1.193-.006-1.14.865-2.202 1.837-3.285 2.777-.25.215-.464.47-.7.7-.263.246-.81.153-.817-.153-.023-1.312-.36-2.752.06-3.915.783-2.165 1.727-4.32 3.49-5.987 1.36-1.29 1.005-2.587-.767-3.253-.3-.112-.63-.226-.94-.205-.615.038-1.34.708-1.787-.053-.22-.376.106-1.047.13-1.59.084-2 .172-4 .212-6.004.055-2.89.02-5.787.128-8.676.047-1.32.32-2.637.526-3.95.026-.17.23-.315.352-.47.092.197.198.39.274.593.187.517.32 1.056.546 1.554 1.54 3.386 4.533 3.605 7.223 2.093 1.8-1.01 2.748-2.63 2.83-4.624.084-2.017-.316-3.987-1.47-5.716-1.107-1.657-2.69-2.3-4.618-1.935-1.266.24-2.502.66-3.75 1.002.007.03.002.057.01.086-.032.01-.053.032-.083.045-.028.38-.048.762-.103 1.137-.02.136-.158.253-.243.38-.053-.196-.156-.39-.154-.582.006-.395.098-.76.498-.933l.01-.11.063-.02c-.187-.78.107-1.464.448-2.145.644-1.28 1.024-1.437 2.64-1.387 2.908.09 5.663.928 8.458 1.592.97.23 1.936.48 2.897.752.294.083.638.16.536.655zm-10.86 5.806c.004-.288.114-.574.246-1.155.14.597.256.897.258 1.2 0 .175-.18.353-.28.53-.078-.19-.228-.386-.225-.576zm75.233 5.463c-2.044 2.275-2.657 5.064-2.99 7.975-.24 2.096-.5 4.192-.803 6.28-.11.765-.398 1.503-.526 2.267-.154.942-.612 1.63-1.395 2.17-.92.625-1.728 1.44-2.703 1.953-1.735.917-2.19 2.415-2.21 4.174-.012.552-.05 1.184.193 1.638.708 1.308.367 2.564.132 3.89-.27 1.527-.324 3.074-.73 4.603-.57 2.16-1.837 3.504-3.922 4.12-1.276.38-2.57.708-3.868.996-.418.096-.933.11-1.312-.055-1.27-.548-2.606-.51-3.936-.59-.45-.027-.788-.193-1.068-.625-.843-1.306-1.306-1.49-2.112-.54-1.636 1.923-3.576 1.288-5.515.936-.128-.02-.326-.375-.284-.506.18-.516.45-1.003.67-1.507.174-.403.36-.81.47-1.232.21-.805-.567-1.58-1.35-1.397-.997.227-2.03.498-2.628 1.343-1.31 1.84-3.156 1.77-5.066 1.63-.658-.05-.888-.39-.75-1.12.018-.11.063-.213.098-.32.23-.65.427-1.355-.316-1.764-.615-.34-1.36-.23-1.91.165-.808.58-1.52 1.295-2.268 1.956-.333.293-.687.494-1.14.356v.04c-.037.01-.076.018-.113.026l-.208.27c.015-.073.003-.178.047-.21.045-.03.1-.047.16-.06l.06-.076c.018.005.033.003.052.008.03-.87.074-1.74.076-2.61.002-.572-.126-1.19-.78-1.276-.364-.05-.868.163-1.142.43-.633.62-1.148 1.355-1.74 2.016-.927 1.043-1.31 1.052-2.51.133-.563-.43-.678-.84-.36-1.426.267-.488.565-.96.85-1.438.916-1.526 1.857-3.04 2.74-4.585.993-1.734 1.16-3.392.35-3.635-1.452-.437-2.567.39-3.508 1.372-1.227 1.283-2.38 2.637-3.586 3.942-.128.14-.51.275-.56.216-.2-.213-.483-.558-.422-.768.18-.63.456-1.243.776-1.818 1.136-2.04 2.328-4.048 3.45-6.096.73-1.33.8-2.57.247-2.706-.98-.245-1.707.282-2.39.86-1.62 1.37-2.975 2.986-4.223 4.697-.098.133-.433.277-.494.224-.15-.128-.238-.363-.292-.567-.057-.21-.03-.442-.063-.66-.456-3.16.56-5.918 2.298-8.484.997-1.472 2.012-2.936 2.965-4.44.404-.644.718-1.364.974-2.085.085-.244-.1-.623-.25-.886-.054-.093-.417-.11-.566-.032-1.077.57-2.14 1.17-3.2 1.77-.48.274-.935.596-1.43.84-.106.052-.468-.116-.48-.21-.218-1.877-.453-3.71 1.142-5.263 1.184-1.155 2.144-2.54 3.21-3.817.446-.533.088-1.333-.628-1.533-.608-.17-1.083.032-1.56.34-.347.223-.72.738-1.096.347-.203-.208-.028-.798.002-1.216.032-.443.06-.89.15-1.326.32-1.517.67-3.03 1.007-4.544 1.173-.828 2.306-1.72 3.524-2.475 3.793-2.354 7.286-5.106 10.75-7.912.983-.795 1.65-1.81 2.24-2.873.61-1.106 1.465-1.89 2.462-2.643 4.442-3.355 8.83-6.78 12.7-10.812.53-.552 1.184-.988 1.78-1.477.252-.207.596-.363.742-.63 1.3-2.363 3.253-4.196 4.966-6.224.334-.397.45-.976.677-1.466.23-.49.348-1.184.74-1.425 1.114-.694 1.357-1.636 1.247-2.82-.017-.167.245-.522.335-.51.307.048.734.14.862.36.45.765.907 1.557 1.154 2.4.565 1.91 1.047 3.85 1.483 5.798.113.513.005 1.115-.133 1.64-.49 1.836-1.112 3.638-2.22 5.194-2.257 3.17-4.1 6.606-6.573 9.646-1.926 2.366-3.962 4.483-6.69 5.89-.787.406-1.576.846-2.272 1.388-1.248.968-1.045 2.86.303 3.63 1.12.64 2.3.916 3.528.494 1.842-.638 3.714-.55 5.613-.487 2.114.072 4.237.09 6.347.014 3.357-.118 6.68.188 9.98.685 1.97.3 3.944.768 5.42 2.332.48.51.82 1.03.816 1.755-.01 1.113-.038 2.23.02 3.34.096 1.756-.347 3.324-1.525 4.63z"/></svg>