<svg xmlns="http://www.w3.org/2000/svg" width="128" height="128" viewBox="0 0 128 128"><path d="M103.773 59.056c0-1.075-.092-2.148-.064-3.22.045-2.15-.843-3.706-2.757-4.7-.953-.494-1.893-1.01-2.79-1.587-.903-.58-1.747-1.19-2.905-1.204-.585-.004-.94-.523-1.004-1.088-.075-.64-.043-1.287-.045-1.93-.03-5.253-.073-10.495-.73-15.737-.456-3.604-1.64-6.845-3.493-9.89-.72-1.184-1.472-2.41-2.46-3.36-4.332-4.165-9.452-6.592-15.557-6.65-2.145-.02-4.3-.12-6.436.032-2.236.154-4.542.28-6.65.95-2.427.77-4.73 2.015-6.97 3.263-1.212.676-2.364 1.437-3.664 1.966-1.816.74-3.375 1.848-4.467 3.54-1.165 1.805-2.376 3.57-3.548 5.367-.83 1.267-1.394 2.624-1.604 4.16-.217 1.584-.662 3.14-.94 4.722-.644 3.69-1.342 7.38-1.123 11.167.06 1.07.002 2.147-.032 3.218-.018.562-.44.94-1.04 1.003-2.022.208-4.044.41-6.064.634-.31.035-.76.08-.882.28-.866 1.418-2.283 2.477-2.197 4.48.155 3.643.044 7.297.044 10.947h.19c0 3.11.064 6.227-.02 9.335-.052 1.74.2 3.408.57 5.086.228 1.04.464 2.1.49 3.155.09 3.218.235 6.414.637 9.62.327 2.6.966 5.038 2.156 7.348.345.672.755 1.312 1.007 2.013 1.13 3.13 3.307 5.472 5.71 7.627.95.853 1.94 1.824 3.097 2.254 3.316 1.235 6.516 2.715 9.727 4.183.1.044.21.054.31.093 2.3.958 4.74 1.397 7.182 1.63 3.515.33 7.046.554 10.56-.32 2.702-.677 5.463-1.142 8.275-.886 1.47.132 2.715-.373 3.947-1.092 6.342-3.7 12.085-8.15 17.145-13.48.433-.46.898-.97 1.112-1.544 1.343-3.603 3.08-7.08 3.674-10.94.21-1.373.52-2.735.7-4.112.33-2.55.793-5.1.85-7.654.13-6.226.063-12.453.063-18.677zM53.353 20.12c1.364-.843 2.77-1.625 4.156-2.435 1.982-1.156 4.05-1.925 6.42-1.666.613.064 1.284-.083 1.89-.264 2.925-.87 5.92-.857 8.93-.843 1.114.008 2.153.256 3.05.866 3.22 2.196 6.13 4.716 7.82 8.347.307.665.47 1.404.634 2.125.117.523.017 1.106.198 1.594 1.27 3.403 1.114 6.958 1.19 10.872.208 1.962-.296 4.32.252 6.676.254 1.088-1.003 2.667-2.075 2.944-.187.045-.464.014-.605-.1-.926-.718-1.845-1.45-2.73-2.22-.527-.456-.604-1.056-.463-1.756.558-2.76.47-5.53.032-8.3-.132-.844-.237-1.703-.26-2.56-.067-2.305-.895-4.41-1.84-6.442-.912-1.957-2.422-3.445-4.134-4.826-2.26-1.82-4.586-3.088-7.583-2.773-.736.078-1.5-.065-2.25-.095-1.2-.05-2.322.206-3.43.698-2.468 1.1-4.796 2.394-6.723 4.328-.452.457-.942.87-1.427 1.29-.238.21-.672.023-.7-.292-.144-1.483-.043-2.997-.754-4.397-.082-.16.177-.637.398-.772zm23.355 27.36c0 .608-.365.912-1.067.915-3.312.016-6.63.008-9.942.008v.004c-3.102 0-6.204.014-9.305-.005-.885-.008-1.34-.465-1.464-1.362-.854-6.295.91-11.842 4.9-16.698 1.74-2.118 4.054-3.486 6.66-4.265 1.874-.558 3.828-.33 5.73-.09.532.068 1.102.636 1.467 1.12.923 1.218 1.29 2.703 1.57 4.163.543 2.827 1.097 5.666 1.36 8.525.234 2.543.093 5.124.09 7.688zM47.783 25.6c.542-.848.587-.79 1.52.02.628.545 1.343 1.002 2.06 1.435.406.245 1.174-.096 1.278.584.05.334-.307.75-.51 1.114-.576 1.013-1.156 2.022-1.756 3.02-.102.168-.31.274-.47.41-.095-.043-.2-.075-.29-.13-.266-.17-.543-.33-.79-.525-3.797-2.96-3.846-1.55-1.038-5.93zm-4.454 9.26c.054-.207.557-.513.713-.445 1.355.587 2.69 1.22 4 1.91.192.1.314.56.277.83-.16 1.15-.362 2.297-.62 3.43-.05.224-.393.483-.635.533-.288.06-.62-.096-1.1-.19-.77.085-1.71.222-2.652.294-.483.04-.79-.262-.848-.743-.24-1.954.376-3.784.864-5.625zm-1.225 10.548c.035-.072.192-.17.235-.15 1.48.785 3.014 1.394 4.682 1.65.122.02.203.34.272.53.01.022-.156.14-.254.165-.2.048-.408.066-1.038.158-.832-.225-2.06-.514-3.246-.92-.336-.118-.587-.56-.807-.9-.066-.1.076-.36.16-.533zM95.29 70.85c-.014 2.037-.15 4.06-.357 6.094-.25 2.44-.173 4.933-.04 7.392.113 2.046-.168 4.05-.407 6.05-.107.91-.627 1.835-1.16 2.613-1.397 2.032-2.816 4.06-4.38 5.96-2 2.43-4.59 4.164-7.35 5.64-1.51.813-3.072 1.538-4.537 2.423-1.24.747-2.548 1.146-3.96 1.17-3.97.06-7.94.142-11.906.077-1.146-.016-2.298-.462-3.42-.793-.918-.274-1.79-.712-2.703-.995-.596-.186-.985-.41-.73-1.1.29-.778.01-1.492-.263-2.18-.47-1.178-1.984-1.527-2.935-.69-.562.494-1.038 1.09-1.604 1.58-.96.82-2.913.51-3.724-.61-.132-.184-.085-.668.07-.854.89-1.072 1.84-2.09 2.766-3.136.352-.397.72-.795 1.037-1.224.468-.642.682-1.35.244-2.098-.48-.828-1.543-1.234-2.5-1.016-.86.194-1.616.565-2.255 1.17-.78.737-1.552 1.484-2.336 2.217-.61.575-1.004.48-1.46-.33-.16-.276-.286-.575-.444-.855-.295-.527-.286-1.016.16-1.45.844-.827 1.74-1.604 2.525-2.48.64-.708 1.223-1.486 1.69-2.314.54-.946.406-1.812-.2-2.365-.735-.672-1.605-.606-2.405-.227-.965.46-1.868 1.043-2.792 1.59-.366.215-.704.48-1.07.703-.32.193-.785-.19-.89-.63-.194-.84.173-1.444.72-2.012 2.085-2.165 4.18-4.317 6.63-6.088.508-.37 1-.803 1.375-1.302.557-.745.54-1.83.043-2.403-.605-.695-1.375-1.03-2.297-.806-1.6.38-2.983 1.156-4.18 2.29-.927.88-1.903 1.718-2.882 2.545-.084.072-.404-.016-.51-.128-.124-.133-.216-.39-.18-.562.063-.304.177-.627.367-.866.4-.505.853-.96 1.298-1.427C40.41 77.247 42.5 75.09 44.56 72.9c.584-.62 1.16-1.276 1.593-2.007.25-.422.288-1.02.275-1.536-.014-.766-1.005-1.255-1.717-.805-1.54.97-3.02 2.027-4.534 3.038-.688.463-1.13 1.333-2.12 1.314-.003.454-.247.635-.678.604v.006h-.008c-.014.576-.418.847-.866 1.07-.032.018-.146-.072-.188-.134-.048-.075-.098-.184-.075-.256.18-.544.57-.754 1.13-.68v-.006h.008c-.056-.456.153-.677.606-.677.35-1.184 1.274-1.94 2.09-2.77 1.507-1.53 3.024-3.05 4.53-4.577.378-.38.768-.757 1.09-1.178.793-1.032.726-2.286-.13-3.232-.83-.917-2.14-1.227-3.203-.582-1.002.607-1.93 1.347-2.845 2.084-1.087.873-2.115 1.816-3.182 2.71-.153.13-.4.258-.57.223-.125-.02-.29-.32-.278-.487.056-1.388.13-2.78.235-4.16.056-.748.23-1.484.264-2.232.047-1.008.086-1.978 1.375-2.19 1.314-1.553 3.034-1.67 4.925-1.564 4.495.258 8.997.4 13.494.55 2.895.1 5.793.17 8.69.184 3.217.017 6.42.21 9.63.405 4.39.264 8.8.163 13.195.303 2.352.075 4.702.302 7.045.535.304.034.754.493.81.813.147.837.14 1.705.143 2.562.01 3.54.013 7.085-.008 10.624zm-24.264-1.39c-.875-.883-1.777-1.52-3.008-1.648-.638-.064-1.28-.08-1.472-.092-4.847-.128-8.307 1.728-11.02 5.08-.38.476-.64 1.136-.732 1.743-.14.95-.184 1.93-.1 2.88.212 2.507 1.33 4.478 3.628 5.666.475.243.955.505 1.46.66.78.232.9.77.876 1.47-.1 2.57-.256 5.14-.228 7.71.04 3.486.105 3.486 3.352 5.035.29.14.568.305.864.43 1.107.48 2.128.28 2.94-.576.505-.534.99-1.156 1.247-1.83.46-1.194.738-2.45.704-3.762-.045-1.825.028-3.647-.047-5.466-.068-1.67.107-3.157 1.52-4.33.545-.455.83-1.234 1.204-1.883.875-1.52 1.408-3.13 1.094-4.91-.384-2.196-.555-4.438-2.283-6.18z"/></svg>