<svg xmlns="http://www.w3.org/2000/svg" width="128" height="128" viewBox="0 0 128 128"><path d="M86.493 81.274c-.25-.2-.512-.39-.783-.56-2.713-1.724-5.43-3.44-8.142-5.163-.523-.33-1.05-.243-1.508.055-.617.405-1.26.825-1.742 1.368-.637.715-1.184 1.525-1.68 2.347-1.33 2.22-2.83 4.295-4.735 6.063-.47.435-.847.966-1.277 1.445-2.726 3.023-5.383 6.116-8.203 9.056-3.686 3.845-8.294 5.963-13.55 6.71-1.873.266-3.583-.304-5.3-.98-1.352-.53-1.884-1.63-2.368-2.834-.077-.196-.224-.367-.368-.525-1.14-1.246-1.13-2.702-.817-4.23.31-1.516.932-2.867 2-3.97 2.747-2.855 5.38-5.825 8.673-8.112 1.224-.85 2.38-1.832 3.435-2.883 4.32-4.32 8.6-8.68 13.515-12.355 1.615-1.21 2.013-1.325.59-3.712-.274-.453-.597-.9-.97-1.276-3.1-3.115-6.21-6.23-9.334-9.32-.687-.682-1.224-.746-2.02-.268-1.655.982-3.31 1.97-4.91 3.035-2.583 1.725-5.126 3.504-7.67 5.288-2.985 2.087-6.006 4.14-8.646 6.667-1.78 1.705-3.573 3.41-5.22 5.24-1.644 1.828-3.197 3.75-4.637 5.74-2.56 3.544-3.642 7.723-4.708 11.87-.314 1.213-.414 2.606-.15 3.817.507 2.34.552 4.683.49 7.03-.036 1.55.324 3 .897 4.37 1.33 3.18 3.06 6.116 5.36 8.725 1.792 2.035 4.066 3.486 6.005 5.325 2.342 2.22 5.105 3.475 8.233 4.008.95.16 1.923.16 2.874.313.385.06.74.328 1.11.5h3.217c.36-.173.712-.47 1.082-.494 1.71-.117 3.426-.19 5.14-.218 1.517-.025 2.96-.35 4.416-.757 3.435-.956 6.526-2.68 9.717-4.18.75-.35 1.423-.943 2.027-1.533 2.307-2.242 4.572-4.527 6.85-6.802 2.203-2.204 4.2-4.58 5.962-7.152 1.454-2.123 2.9-4.25 4.427-6.32.777-1.056 1.337-2.155 1.662-3.435.608-2.383 1.344-4.726 2.3-7.006 1.148-2.737.972-3.096-1.25-4.89zM45.59 71.218c-.01-.077.114-.164.18-.245l1.393 1.116c-.164.186-.213.275-.288.32-.384.205-.85.29-1.102-.084-.192-.286-.15-.734-.186-1.11zm1.983 5.177c-.283.28-.62.5-.98.78-.286-.247-.54-.41-.694-.635-.087-.123-.074-.427.024-.535.365-.416 1.3-.46 1.677-.083.08.078.06.388-.026.474zm-3.688-13.93c.686-.51 1.373-1.014 2.085-1.484 1.875-1.23 3.787-2.4 5.333-4.07.203-.217.542-.31.787-.44.15.058.262.08.346.14.256.183.523.364.75.586 2.393 2.285 4.78 4.576 7.166 6.867.377.358.388.74.036 1.09-.604.6-1.222 1.196-1.867 1.755-1.043.907-2.125 1.77-3.17 2.677-.728.63-1.39 1.333-2.13 1.944-1.056.872-.875 1.276-2.246-.217-.645-.7-1.158-1.525-1.81-2.22-1.75-1.864-3.544-3.69-5.317-5.533-.355-.37-.34-.812.04-1.094zm-1.694 15.68c-.44.153-.923.09-1.09-.33-.14-.35-.116-.873.054-1.205.163-.314.614-.478.885-.668.31.168.57.22.644.37.134.268.218.59.213.89-.004.455-.26.79-.704.943zm.53-5.842c-.067.55-.532.875-1.085.768-.49-.094-.635-.464-.664-.876-.04-.54.434-1 .93-.96.51.043.887.535.82 1.07zm-1.535-6.07c.146.144.337.26.423.43.14.272.207.582.3.86-.084.09-.156.22-.223.216-.177-.008-.452-.013-.51-.116-.142-.254-.23-.565-.244-.853-.007-.175.164-.356.254-.536zM21.888 85.12c.008-.02.18-.008.192.02.075.188.126.38.21.652-.1.213-.21.487-.36.747-.028.05-.195.047-.29.026-.09-.02-.244-.117-.24-.14.15-.438.314-.876.488-1.307zm-1.992 5.318c.096-.354.463-.695.79-.91.703-.458 1.537-.028 1.6.778.016.208 0 .42 0 .63-.005 1.194-.145 1.345-1.682 1.828-.608.192-.88.064-.87-.463.016-.623 0-1.267.163-1.86zm2.372 5.786c.017.87-.83 1.75-1.554 1.728-.08 0-.17-.08-.233-.145-.286-.29-.4-1.368-.115-1.746.347-.457.896-.52 1.4-.382.228.066.382.403.502.547zm-.142 9.277c-.043.098-.186.247-.192.244-.248-.173-.483-.36-.747-.57.24-.142.414-.333.56-.315.338.042.54.266.378.64zm.056-3.294c-.208.3-.66.472-1.042.584-.474.138-.81-.132-.924-.603-.12-.514-.26-1.03-.283-1.554-.032-.734 1.248-1.415 1.944-1.053.173.092.352.282.407.463.093.296.088.625.137 1.052-.056.31-.02.8-.24 1.112zM37.26 82.802c-.28-.14-.44-.222-.604-.303.196-.2.377-.416.6-.57.042-.03.383.233.366.277-.083.218-.24.407-.363.595zm.484-4.747c-.032.096-.09.402-.245.645-.09.14-.348.262-.516.245-.472-.04-.643-.405-.757-.825-.117-.416-.226-.83.213-1.086.257-.15.628-.31.865-.228.206.07.31.47.434.734.035.085.002.205.002.512zm-.7-10.61c.092.002.175.21.264.328-.18.085-.34.213-.51.22-.074 0-.157-.243-.236-.372.16-.065.323-.184.48-.173zm-.71 4.285c.828-.07 1.255.24 1.292.936.037.706-.43 1.173-1.134 1.133-.66-.04-1.056-.44-1.18-1.2-.086-.5.273-.806 1.023-.87zm-3.287 7.45c-.032.134-.288.234-.46.308-.066.03-.24-.026-.27-.09-.178-.37-.33-.753-.436-1.01.077-.36.104-.568.166-.764.032-.093.113-.216.195-.24.083-.02.207.05.29.11.596.43.685 1.032.52 1.685zm.444 3.986c-.16.06-.313.14-.48.17-.047.012-.176-.122-.17-.182.006-.068.13-.196.18-.183.162.04.315.127.47.198zM30.8 72.86c.187-.175.685-.328.793-.227.356.338.597.797.86 1.17-.257.288-.364.504-.528.576-.456.2-.84-.016-1.103-.375-.26-.355-.384-.805-.02-1.144zm1.068 21.827c-.24.384-.695.494-.974.227-.05-.053-.11-.186-.11-.188.3-.19.606-.37.912-.552l.173.512zm-1.684-7.107c.317.188.496.614.72.946.052.08.042.203.095.478-.39.198-.806.475-1.263.625-.245.077-.727.04-.815-.113-.183-.317-.306-.78-.22-1.12.138-.55 1.073-1.056 1.48-.817zm-3.882 23.805c-.163.126-.352.294-.528.292-.102-.002-.316-.41-.28-.446.192-.2.435-.36.686-.492.03-.015.2.235.3.356-.067.12-.1.235-.177.292zm.337-10.422c-.068.357-.61.67-1 .486-.234-.113-.54-.446-.514-.647.06-.504.275-.997.45-1.487.03-.085.19-.213.235-.192.185.08.428.17.51.33.19.364.297.773.376.993-.035.305-.04.412-.058.515zm-.03-21.744c-.235.062-.48.06-.62.18-.404.34-.75.746-1.15 1.09-.09.077-.307.006-.466.004.015-.194-.046-.448.053-.576.523-.67 1.03-1.366 1.65-1.942 1.055-.978 2.42-.445 2.786 1.037.072.3.17.612.146.912-.01.115-.364.336-.485.294-.384-.133-.736-.37-1.1-.56-.282-.156-.56-.305-.82-.445zm2.455 3.9c.335.124.58.49.75.644.04.573-.41 1.05-.785.966-.26-.06-.572-.268-.692-.495-.205-.384.373-1.248.73-1.116zm.056 29.57c-.157.102-.31.216-.48.29-.057.02-.16-.06-.242-.093.127-.205.234-.43.394-.6.045-.046.267.06.392.128.02.01-.04.18-.064.274zm1.897 3.474c-.035.096-.348.085-.533.122-.64-.18-.835-.82-.384-1.3.346-.36.698-.716 1.062-1.057.046-.044.2-.01.28.035.082.046.205.168.19.224-.186.666-.372 1.33-.615 1.976zm.79-5.41c-.035.02-.294-.246-.284-.26.215-.3.46-.588.693-.876.053.078.107.16.16.244.11.483-.24.693-.572.89zm.767-11.126c-.76.33-1.55.593-2.34.842-.65.207-.925.034-1.1-.62-.15-.577.035-1.244.433-1.336.9-.208 1.806-.433 2.72-.496.224-.018.53.552.764.976.054.096-.25.533-.477.632zm.827-12.4c.018-.09.103-.17.157-.257.09.044.198.065.27.126.51.437.626 1 .466 1.632-.02.092-.087.216-.16.242-.075.025-.206-.032-.277-.094-.52-.448-.57-1.028-.454-1.65zm1.363 31.432c-.275.363-.79.357-1.11.014-.16-.168-.246-.625-.13-.787.296-.42.714-.75 1.1-1.103.068-.064.262-.114.29-.08.133.154.225.34.422.66-.157.376-.277.902-.572 1.296zm.84-4.65c-.044.12-.353.235-.517.208-.156-.027-.388-.224-.403-.367-.093-.852.147-1.637.667-2.317.106-.135.35-.162.53-.242.14.13.418.294.395.388-.187.787-.407 1.568-.672 2.333zm1.002-5.952c-.136.224-.512.42-.776.42-.22 0-.51-.268-.646-.486-.157-.256-.184-.594-.267-.896-.21-.79-.066-1.192.65-1.465.364-.14.874-.253 1.166-.097.264.144.323.667.463 1.003-.213.582-.333 1.092-.59 1.522zm3.496-2.363l-.127.213-.1-.228.228.016zm-.35 14.417c-.244.147-.616.075-.852.093-.29-.066-.513-.088-.694-.18-.053-.03-.045-.366.03-.412.358-.23.732-.483 1.134-.573.23-.05.523.2.79.315-.13.262-.195.63-.406.757zm-.9-3.795c-.126-.026-.312-.334-.286-.478.187-1.06 1.195-2.028 2.043-2.017.122.157.334.305.356.474.154 1.152-.98 2.235-2.112 2.018zm1.41-5.206c-.14.035-.43-.095-.47-.212-.3-.86-.243-1.682.556-2.25.29-.21.653-.668 1.065-.256.193.192.2.565.23.653.022 1.195-.414 1.843-1.377 2.07zm28.27-13.375c.15.864.18 1.688-.73 2.2-.276.155-.528.354-.815.477-.37.163-.98.48-1.107.352-.332-.33-.453-.867-.708-1.437.25-.433.412-.964.768-1.26.472-.39 1.09-.61 1.66-.872.38-.174.86.123.93.544zm-15.835 6.518c.064-.01.153.117.23.18-.187.076-.37.172-.56.21-.06.01-.15-.13-.223-.203.18-.066.363-.155.553-.19zm-.755 4.178c.735-1.274 1.996-1.87 3.308-2.346.102-.034.37.38.47.49.18 1.234-.206 2.05-1.202 2.516-.48.228-1.016.34-1.513.537-.44.173-.864.2-1.072-.267-.115-.262-.126-.69.013-.928zm-.644 5.697c.128-.275.292-.6.536-.743 1.08-.63 2.19-1.205 3.293-1.79.075-.04.25-.032.267.004.085.182.134.382.25.742-.202.33-.368.926-.75 1.152-.975.59-2.046 1.024-3.093 1.485-.11.045-.39-.132-.474-.274-.09-.15-.1-.416-.028-.576zm-5.246-7.97c.467-.1.97-.054 1.453-.016.056 0 .085.307.17.63-.394.21-.803.504-1.258.623-.17.046-.573-.275-.645-.5-.067-.21.128-.705.28-.737zm.99 4.604c.122 0 .34.28.347.438.037.77-.783 1.624-1.54 1.665-.107-.153-.302-.302-.31-.46-.044-.818.705-1.642 1.505-1.642zm-2.352 7.377c-.115-.032-.248-.315-.226-.463.14-.936.817-1.37 1.643-1.647.274-.094.608.117.597.41-.026 1.117-1.035 1.985-2.014 1.7zm16.732-2.385c.043.103-.373.456-.63.608-2.97 1.75-6.11 3.076-9.558 3.53-1.163.154-2.336.207-3.505.307l-.008-.107c-.644 0-1.286.015-1.93-.01-.203-.007-.4-.112-.6-.172.156-.078.307-.212.47-.23.53-.056 1.067-.053 1.6-.11.42-.047.963 0 1.227-.24 1.57-1.447 3.765-1.454 5.51-2.47.765-.448 1.37-.516 1.802.413.027.065.432.057.453.003.928-2.415 3.205-3.317 5.14-4.594.057-.037.204.02.278.077.07.05.157.17.14.237-.213.904-.802 1.742-.39 2.76zm.33-6.507c-.853.64-1.756 1.212-2.645 1.8-.08.055-.208.034-.315.047-.136-.142-.365-.273-.386-.43-.107-.805.18-1.492.83-1.966.774-.57 1.59-1.078 2.392-1.607.24-.157.584.09.633.41.1.666.062 1.32-.51 1.745zm-.344-4.997c-.275.154-.5.406-.784.528-.51.222-.928 1.237-1.476.615-.533-.607-.565-1.706.035-2.346.7-.745 1.655-1.248 2.517-1.828.066-.043.313.146.448.26.066.06.083.188.1.29.035.207.056.414.07.532.06.885-.17 1.536-.907 1.95zm2.332-8.253c-.02-.06.06-.18.12-.252.815-.96 1.615-1.93 2.468-2.853.14-.15.627-.183.765-.06.194.167.36.603.27.812-.633 1.48-2.2 1.766-3.25 2.645-.214-.163-.34-.21-.37-.292zm3.584 15.364c-.533.52-1.016 1.097-1.59 1.57-.426.352-.628 1.077-1.388.956l.18-.977c.26-1.04.367-1.558.524-2.064.445-1.445 1.586-2.176 2.89-2.702.1-.043.462.213.455.317-.06 1.068-.245 2.106-1.07 2.9zm1.29-7.87c-.248 1.124-1.125 1.69-2.03 2.21-.108.06-.34-.07-.492-.156-.066-.035-.078-.175-.15-.352.05-.224.05-.56.193-.815.427-.757 1.112-1.23 1.945-1.45.13-.035.34.153.485.273.056.05.067.196.048.29zm3.307 3.09c-.16-.063-.244-.1-.32-.13l.61-.737c.06.08.184.2.166.23-.14.228-.31.437-.46.64zm1.967-6.434c-.02.046-.043.09-.062.136-.037-.007-.07-.003-.107-.01-.137.625-.572.964-1.16 1.15-.076.02-.247-.01-.26-.054-.05-.148-.118-.358-.054-.463.35-.54.86-.728 1.472-.635.007-.026.02-.045.025-.072.02-.038.08-.048.146-.053l.147-.33c.256.34.028.314-.15.33zm-.95-3.443c-.212.134-.637.192-.81.067-.206-.145-.313-.517-.344-.805-.064-.57.213-.996.738-1.227.505-.224 1.356.027 1.66.48.05.078.074.17.163.382-.446.357-.896.776-1.406 1.103zm11.37-8.36c-.276.68-.772 1.338-.817 2.027-.092 1.424-.756 2.392-1.85 3.188-.428.31-.78.725-1.178 1.083-.37.333-.743.28-1.16.05-3.072-1.696-6.153-3.373-9.22-5.075-.36-.2-.722-.542-.345-1.01 1.94-2.417 3.586-5.024 5.08-7.733.24-.432.614-.508 1.05-.205 1.487 1.03 2.934 2.127 4.486 3.047.996.59 2.158.893 3.22 1.374.732.333 1.16.923 1.174 2.085-.075.204-.243.694-.437 1.174zM97.025 58.22c.14-3.64.592-7.252 1.137-10.855.15-.998.658-1.475 1.536-1.82.887-.345 1.79-.738 2.57-1.28 2.366-1.633 3.365-4.874 2.594-7.685-.442-1.612-1.248-2.964-2.44-4.076-.867-.81-1.247-1.702-.967-2.865.05-.208.048-.43.094-.64.843-3.864 1.69-7.73 2.54-11.595.148-.66.705-.88 1.134-.445.45.46.813 1.01 1.3 1.414.396.325.9.6 1.398.704 1.463.31 2.453-.48 3.232-1.606.733-1.064.79-2.272-.085-3.275-.98-1.12-1.983-2.405-3.265-3.035-1.963-.962-2.808-1.995-1.937-4.188.29-.73.07-1.69.003-2.537-.052-.658-1.005-.97-1.503-.523-.317.286-.667.57-.876.926-.482.83-.96 1.675-1.313 2.566-.363.914-.898 1.417-1.917 1.344-.533-.04-1.073.002-1.61-.02-.804-.033-1.034-.332-1.017-1.253.014-.853.072-1.714 0-2.558-.046-.548-.405-.983-.957-1.186s-1.103-.1-1.494.288c-.448.445-.873.96-1.148 1.52-.422.862-.765 1.77-1.035 2.692-.364 1.235-1.13 1.94-2.32 2.437-3.375 1.41-6.51 3.248-9.41 5.498-1.223.948-2.15 2.093-2.87 3.412-1.342 2.466-.994 5.024.83 7.142 1.143 1.323 2.58 2.248 4.045 3.147 1.266.776 3.04.966 3.798 2.254.875 1.483-.39 3.09-.452 4.672-.012.32-.072.643-.14.956-.17.78-.643 1.045-1.377.786-.907-.32-1.795-.713-2.723-.96-1.946-.513-3.5.682-3.48 2.623.02 2.12.81 3.748 2.935 4.5.2.07.422.117.6.227.715.453 1.888.278 2.208 1.132.288.746.103 1.68.123 2.527.006.215 0 .43 0 .646-.037 0-.077.002-.114.006.113 1.274.14 2.563.373 3.82.193 1.04 1.03 1.613 2.04 1.822.78.16 1.905-.544 2.333-1.4.192-.38.363-.783.462-1.194.256-1.037.445-2.09.702-3.13.154-.618.33-1.243.608-1.812.096-.2.508-.3.79-.336.11-.013.304.27.372.452.075.192.073.425.05.634-.287 2.984-.583 5.966-.892 8.947-.177 1.71-.358 3.43.2 5.096.232.69.574 1.39 1.028 1.956.814 1.01 2.26.93 3.05-.075.67-.854 1.19-1.766 1.178-2.91-.01-.97.04-1.937.076-2.9zm-8.063-33.81c-.04.156-.593.356-.77.266-1.042-.53-2.062-1.116-3.042-1.754-.183-.12-.32-.687-.206-.83 1.34-1.704 3.064-2.942 4.996-3.895.062-.032.256.2.43.343-.455 1.94-.9 3.913-1.41 5.87zm4.557 15.366c-.04.136-.335.277-.506.273-.166-.006-.444-.168-.472-.304-.085-.405-.153-.84-.083-1.237.196-1.14.46-2.273.727-3.4.03-.113.32-.244.47-.223.186.026.423.163.51.322.146.263.19.583.315 1.017-.3 1.12-.608 2.34-.963 3.548zM95.34 27.89c-.32-.234-.796-.618-.77-.896.148-1.58.394-3.15.662-4.717.323-1.88.702-3.75 1.062-5.62.23-1.198.427-1.375 1.656-1.48.21-.018.424 0 .548 0 .598.018.844.314.716.82-.97 3.8-1.945 7.598-2.928 11.394-.128.477-.608.74-.946.498zm-36.407 6.13c.456.245 1.013.3 1.53.427 1.055.255 1.18.466.953 1.537-.453 2.112-1.278 4.075-2.248 6-.378.747-.625 1.59-.79 2.417-.147.73.5 1.526 1.22 1.66 1.108.205 2.015.03 2.866-.913 3.288-3.65 5.178-8.117 7.35-12.412.714-1.42-.444-3.123-2.075-3.292-1.06-.11-2.14-.053-3.21-.087-.598-.02-.81-.285-.633-.77.258-.703.587-1.386.8-2.103.548-1.842 1.05-3.696 1.376-4.853 0-.954.028-1.173-.005-1.382-.067-.424-.18-.896-.685-.94-.264-.025-.644.15-.815.364-.944 1.163-1.9 2.325-2.74 3.563-1.45 2.125-2.89 4.26-4.2 6.474-1.036 1.752-.493 3.35 1.304 4.31zm54.724 25.735c-.2.072-.426.098-.595.213-3.71 2.534-7.563 4.814-11.593 6.814-1.476.736-1.882 2.842-.923 4.14.247.33.622.575.956.84.416.328.357.677.162 1.112-.457 1.028-1.286 1.678-2.15 2.318-.86.636-1.73 1.265-2.51 1.99-.453.42-.8.995-1.072 1.56-.203.42.064.832.463 1.064.27.158.587.235.96.373.666-.21 1.39-.395 2.08-.66 2.09-.81 4.137-1.746 6.257-2.454 1.956-.654 3.605-1.82 5.365-2.808.73-.41.95-1.58.474-2.273-.3-.434-.67-.83-1.052-1.197-2.58-2.46-2.208-1.598-.24-4.538.473-.702 1.16-1.26 1.673-1.935.772-1.013 1.498-2.065 2.2-3.127.16-.245.14-.61.192-.92.042-.24-.425-.595-.65-.51z"/></svg>