<svg xmlns="http://www.w3.org/2000/svg" width="128" height="128" viewBox="0 0 128 128"><path d="M114.005 93.965c-.73-.998-1.49-1.982-2.13-3.036-.654-1.084-1.483-1.954-2.448-2.75-1.717-1.42-3.374-2.91-5.045-4.384-1.016-.9-1.946-1.912-3.034-2.707-2.19-1.61-4.286-3.348-6.716-4.615-1.643-.853-3.226-1.832-4.784-2.837-1.97-1.277-3.888-2.636-5.826-3.96-.1-.07-.196-.15-.288-.23-1.05-.87-1.152-1.353-.25-2.49 3.053-3.875 4.887-8.3 5.87-13.083.572-2.787.987-5.618.197-8.433-1.067-3.813-2.153-7.62-4.062-11.13-.59-1.085-1.306-2.18-1.538-3.358-.317-1.593-1.202-2.675-2.314-3.685-.825-.747-1.62-1.527-2.485-2.233-6.437-5.248-13.854-8.553-21.77-10.818-4.423-1.27-8.805-.804-13.09.706-1.974.698-3.854 1.677-5.85 2.31-5.35 1.693-10.3 4.08-14.6 7.764-.85.733-1.72 1.353-2.27 2.366-.647 1.195-1.456 2.304-2.075 3.515-2.904 5.66-5.455 11.42-4.85 18.035.165 3.334.377 6.667.49 10.005.216 6.46 2.84 11.764 7.928 15.663 4.734 3.627 9.984 6.414 15.63 8.4 2.243.788 4.54 1.174 6.927 1.002 3.092-.22 6.17-.02 9.234.456.725.117 1.487.145 2.22.077 3.855-.357 7.54-1.245 10.782-3.516.702-.496 1.472-.916 2.26-1.26.25-.11.714.066.98.257.286.203.48.56.66.88 3.22 5.73 7.116 11.006 10.988 16.286 2.4 3.277 4.59 6.763 7.755 9.45 2.262 1.915 4.41 3.954 6.092 6.454.83 1.23 2.04 1.45 3.26.704 1.785-1.092 3.514-2.274 5.45-3.105.324-.14.59-.443.852-.7 1.96-1.896 3.915-3.795 5.864-5.702 1.258-1.232 2.135-2.688 2.738-4.36 1.182-3.265 1.214-3.25-.754-5.938zM75.68 57.157c-1.97 4.166-4.373 8.02-7.552 11.37-.768.812-1.638 1.523-2.368 2.358-2.983 3.43-6.848 4.67-11.245 4.645-.62-.002-1.246-.04-1.856.043-4.378.615-8.29-.92-12.135-2.656-3.06-1.39-5.918-3.19-8.324-5.52-2.59-2.51-4.47-5.466-5.14-9.19-.712-3.97-.517-7.84-.032-11.796.493-4.015 1.95-7.63 3.658-11.21.442-.927 1.028-1.668 1.845-2.27 3.805-2.808 7.788-5.315 12.417-6.48 2.506-.63 5.092-.98 7.662-1.28 2.37-.28 4.62.735 6.956.958 2.89.277 5.507 1.27 7.823 3.047.39.3.822.584 1.28.736 2.154.713 3.38 2.366 4.53 4.178 1.61 2.533 2.785 5.283 3.594 8.12.56 1.975.424 4.153.6 6.238-.24 2.995-.405 5.93-1.717 8.715zm31.552 43.558c-1.44 1.515-2.856 3.075-4.47 4.39-1.133.924-2.548 1.562-4.125.68-.275-.155-.736-.12-1.058-.015-.518.168-.935.258-1.223-.324-.11-.222-.25-.427-.346-.655-1.73-4.017-4.333-7.47-6.986-10.905-1.13-1.46-2.162-3.002-3.235-4.51-.366-.51-.22-.874.34-1.125 1.712-.775 3.125-1.974 4.533-3.188.512-.445 1.123-.47 1.728-.174.444.222.933.4 1.298.715 2.456 2.13 5.415 3.438 8.154 5.11.83.503 1.602 1.135 2.308 1.802 1.167 1.106 2.293 2.26 3.368 3.454.39.432.59 1.037.74 1.312-.016 1.474-.227 2.587-1.03 3.433z"/></svg>