<svg xmlns="http://www.w3.org/2000/svg" width="128" height="128" viewBox="0 0 128 128"><path d="M98.063 92.76c-.49-3.712-2.013-6.957-4.125-9.99-1.58-2.267-3.61-3.89-6.22-4.844-1.4-.512-2.736-1.212-4.082-1.865-1.926-.93-3.826-1.915-5.752-2.846-1.736-.84-3.495-1.627-5.237-2.453-2.365-1.122-4.378-2.755-6.03-4.735-1.078-1.295-1.795-2.89-2.673-4.352.403-1.214.836-2.418 1.202-3.643.296-.996.914-1.59 1.832-2.086 2.997-1.623 4.647-4.33 5.627-7.488.474-1.525-.075-2.97-.608-4.377-.378-1.003-1.284-1.39-2.22-1.698-.65-.217-.737-.727-.625-1.284.757-3.75.33-7.478-.286-11.183-.264-1.584-.91-3.06-1.712-4.48-1.992-3.506-5.235-4.64-8.95-4.59-3.223.044-6.007 1.385-8.35 3.636-2.99 2.873-5.182 6.257-6.69 10.11-.825 2.115-1.364 4.283-1.354 6.57.003.643-.013 1.294-.112 1.926-.085.555-.373.994-1.065.935-1.054-.09-1.867.37-2.517 1.164-.774.94-1.252 2.02-1.195 3.246.094 1.942.32 3.916 1.593 5.462 1.33 1.62 2.507 3.55 4.964 3.73.71.05 1.167.514 1.405 1.162.483 1.304.943 2.617 1.402 3.928.155.442.02.814-.264 1.18-.92 1.183-2.008 2.288-2.68 3.604-1.098 2.15-2.84 3.435-4.92 4.405-.972.454-1.942.91-2.94 1.308-2.89 1.14-5.802 2.22-8.682 3.38-2.383.965-4.755 1.964-7.085 3.047-1.86.87-3.53 2.074-4.722 3.784-1.042 1.492-2.07 3.007-2.932 4.607-1.59 2.958-2.464 6.075-2.487 9.523-.036 5.588.364 11.135.935 16.682.143 1.382.283 2.766.378 4.153.09 1.306.356 2.543 1.077 3.66.443.682 1.198.953 1.956.69.102-.036.206-.065.304-.108 4.422-1.993 8.29-4.91 12.373-7.467.5-.315.845-.955 1.134-1.508.367-.7-.064-1.597-.832-1.78-.5-.118-1.05-.17-1.553-.094-.838.123-1.654.395-2.486.55-.158.028-.474-.156-.52-.302-.075-.24-.093-.68.046-.776 1.318-.915 2.682-1.767 4.02-2.654.625-.413 1.264-.816 1.825-1.303.59-.51.953-1.175.718-2-.203-.717-1.088-1.28-2.075-1.205-.736.056-1.486.213-2.173.475-.693.262-1.342.672-1.97 1.08-1.975 1.286-3.93 2.608-5.895 3.907-.445.293-.91.555-1.376.816-.07.04-.248.034-.264-.002-.085-.188-.24-.437-.177-.58.203-.47.39-1.024.76-1.333 1.57-1.3 3.222-2.496 4.796-3.79.907-.74 1.78-1.536 2.226-2.697.3-.785-.015-1.47-.896-1.672-.204-.046-.432-.07-.638-.036-1.003.163-1.265-.644-1.615-1.27-.122-.223-.11-.64.023-.857.218-.352.582-.614.892-.91 1.163-1.11 2.343-2.2 3.486-3.33.304-.303.512-.78.117-1.132-.293-.26-.816-.576-1.103-.476-.794.27-1.583.66-2.256 1.16-1.03.767-1.946 1.684-2.944 2.495-.293.24-.687.357-1.04.52.003.026 0 .05.005.075-.027.005-.056.01-.085.013l-.19.398c-.315-.384-.037-.37.19-.397l.03-.068.05-.02c-.176-1.164.764-1.89 1.16-2.828.982-2.332 2.632-4.145 4.58-5.713.498-.4.99-.816 1.46-1.248 1.596-1.463 1.84-1.09 3.43-.414.484.207.922.55 1.336.89.658.537 1.507 1.007 1.86 1.713.42.843-.604 1.483-.923 2.243-.37.88-.88 1.717-1.43 2.51-.756 1.09-.822 2.243-.247 3.345.843 1.61 1.82 3.148 2.78 4.694.447.725 1.13 1.33 1.458 2.098 1.988 4.608 5.27 8.31 8.408 12.11.533.648 1.216 1.217 1.924 1.67 1.152.74 2.466-.016 2.54-1.358.052-1.003-.175-1.926-.758-2.735-1.003-1.392-1.987-2.796-3.067-4.127-2.173-2.68-4.035-5.534-5.472-8.683-.617-1.357-1.455-2.615-2.21-3.912-.32-.555-.714-1.074-1-1.647-.123-.25-.186-.692-.05-.884 1.183-1.654 1.445-3.813 2.967-5.284.474-.457.395-1.338-.103-1.744-.657-.536-1.367-1.025-2.112-1.425-.938-.508-1.986-.823-2.9-1.365-2.67-1.586-1.888-2.06-.252-3.82.424-.458 1.06-.72 1.6-1.07.984-.642 1.97-1.278 2.952-1.924.574-.378 1.12-.24 1.264.37.27 1.146.49 2.303.753 3.45.79 3.442 1.364 6.934 2.58 10.27 1.792 4.933 3.803 9.777 5.73 14.656 1.275 3.224 3.203 6.037 5.106 8.883.5.747 1.13 1.26 2.106 1.24.53-.007 1.063.155 1.596.162.666.01 1.282-.204 1.682-.776 1.104-1.58 2.234-3.138 3.264-4.763 1.147-1.81 2.22-3.67 3.278-5.534 2.067-3.637 3.915-7.367 5.248-11.36 1.66-4.978 3.627-9.853 5.214-14.852.768-2.42 1.458-2.06 3.29-2 .725.022 1.445.358 2.155.588.602.193.794.716.413 1.25-1.183 1.657-2.388 3.3-3.618 4.922-1.66 2.187-1.637 3.014.23 4.997.145.156.336.264.49.413 1.06 1.027 1.067 1.035.296 2.39-1.11 1.96-2.282 3.882-3.34 5.868-2.98 5.588-5.25 11.503-7.86 17.26-.087.19-.19.446-.13.615.13.373.3.785.58 1.037.15.133.6.03.853-.093.275-.136.523-.388.698-.646 1.667-2.493 3.33-4.987 4.967-7.5 2.51-3.855 5.3-7.534 7.45-11.626.296-.565.72-1.06 1.056-1.61.677-1.093 1.335-2.2 1.995-3.302.366-.62.274-1.2-.088-1.808-.572-.96-1.415-1.557-2.364-2.11-1.346-.78-1.38-1.063-.518-2.207 1.227-1.627 2.47-3.24 3.72-4.85.353-.456.862-.746 1.398-.447 1.97 1.088 3.993 2.128 5.032 4.313.597 1.254 1.272 2.472 1.835 3.74 1.76 3.946 1.977 8.31 3.322 12.37-.14 2.167.785 4.174.95 6.306.17 2.24.536 4.462.83 6.69.028.204.148.4.22.6.23.616 1.152.767 1.596.25.933-1.083 1.6-2.388 1.663-3.754.128-2.778.153-5.587-.117-8.35-.323-3.298-1.073-6.55-1.508-9.837zM68.1 48.31c.03-.02.066-.03.103-.038l.088-.12c.03-.016.08-.02.127-.025.043-.115.088-.23.134-.346.308.365.057.335-.134.348l-.043.107c-.056.014-.114.023-.17.037l-.172.24c.02-.07.02-.172.07-.2zm-25.99 2.17l.095-.17.056.19-.15-.02zm9.687 32.707c-1.346 4.063-2.064 8.272-2.824 12.473-.32 1.78-.866 3.522-1.316 5.28-.026.096-.117.174-.18.26-.142-.112-.348-.195-.414-.34-1.643-3.606-2.95-7.34-3.84-11.197-.765-3.326-1.35-6.695-1.957-10.056-.128-.72-.037-1.483-.002-2.224.01-.184.198-.357.304-.535.19.084.47.116.55.26.417.74.735 1.542 1.182 2.26.664 1.07 2.112 1.354 3.083.55.9-.746 1.68-1.638 2.52-2.46.422-.416 1.104-.242 1.216.373.25 1.396.82 2.646 1.513 3.86.26.46.36.907.164 1.496zm.262-12.66c-2.263.786-3.396 2.802-4.866 4.444-.565.63-1.072 1.313-1.666 1.913-.1.098-.72-.077-.737-.186-.17-1.035-.324-2.08-.35-3.125-.008-.367.29-.797.55-1.105 1.313-1.532 2.657-3.034 3.996-4.54.067-.075.18-.11.274-.16.1.007.225-.02.29.028.897.725 1.793 1.45 2.66 2.208.062.056-.045.49-.152.525zm3.333-5.59c-.6-.123-1.237-.39-1.705-.778-1-.827-1.79-1.876-2.21-3.11-2.066-6.084-3.988-12.2-3.86-18.743.112-5.61 2.694-10.018 6.597-13.792.932-.904 2.062-1.515 3.4-1.67 2.57-.3 4.444.33 6.234 3.504.85 1.5 1.152 3.217 1.237 4.94.062 1.28.01 2.57.01 3.853-.074 6.68-1.03 13.202-3.732 19.378-.68 1.56-1.397 3.11-2.213 4.607-.794 1.45-2.08 2.155-3.758 1.81zm3.157 4.104c.93-.86 1.702-1.887 2.552-2.83.206-.23.48-.53.783-.22 1.19 1.21 2.354 2.447 3.506 3.69.13.14.127.396.19.628l-.297.876c-.472 1.413-.93 2.83-1.42 4.24-.626 1.825-1.038 1.957-2.28.67-.586-.607-1.08-1.31-1.6-1.98-.583-.758-1.09-1.584-1.743-2.278-.537-.572-1.234-.994-1.86-1.483.732-.427 1.56-.75 2.172-1.312zm10.884 7.897c-1.515 5.595-3.386 11.047-5.884 16.282-.46.962-.888 1.94-1.34 2.907-.036.075-.178.17-.244.154-.18-.047-.46-.11-.51-.237-1.56-4.216-2.978-8.478-4.063-12.843-.096-.38-.098-.97.126-1.21.926-.99 1.082-2.317 1.664-3.45.094-.18.258-.33.39-.493.188.075.39.124.558.23.632.4 1.23.864 1.884 1.224 1.083.6 2.084.4 2.863-.56.33-.41.61-.88.82-1.36.3-.687.444-1.444.78-2.108.412-.82.28-1.963 1.343-2.398.077-.03.376.213.395.354.162 1.25 1.637 1.948 1.215 3.508zm46.726-58.7c-.804-1.622-1.752-3.188-2.77-4.688-2.278-3.343-5.23-5.86-9.036-7.39-2.965-1.19-6.027-1.39-9.14-1.276-4.902.178-9.153 2.128-12.876 5.16-3.19 2.603-5.564 5.893-7.27 9.675-1.306 2.894-1.91 5.887-1.778 8.362.122 1.752.11 2.833.288 3.886.523 3.165.943 6.374 3.448 8.78.53.51.827 1.248 1.272 1.845 3.59 4.83 8.224 8.096 14.206 9.167 4.32.773 8.565.357 12.49-1.734 4.45-2.373 7.856-5.89 10.393-10.224 1.53-2.61 2.334-5.455 2.78-8.473.68-4.61.046-8.954-2.008-13.088zM98.99 8.243c.632.036 1.265.152 1.875.317.53.143.947.492 1.032 1.087.196 1.365.41 2.73.55 4.098.073.717-.333 1.237-1.075 1.335-1.365.184-2.74.3-4.117.384-.823.05-1.182-.304-1.207-1.105-.03-.85-.006-1.703-.006-2.555h-.008v-.956c-.005-2.625-.015-2.783 2.958-2.61zm-10.525 4.792c.046-.206.177-.395.213-.6.42-2.438 2.318-3.072 4.334-3.54.54-.127 1.08.332 1.03.893-.112 1.264-.352 2.517-.42 3.782-.116 2.362-.762 2.213-2.593 1.96-.32-.02-.637-.04-.956-.054-1.986-.077-2.037-.55-1.61-2.443zm-.864 5.602c.134-.484.458-.693.92-.693.635 0 1.27.036 1.91.053 2.884.067 3.08.264 2.572 2.84-.12.613-.017 1.27-.017 1.907h-.163c0 1.06.035 2.123-.02 3.18-.02.44-.355.82-.834.788-1.478-.106-2.955-.246-4.42-.445-.213-.028-.52-.437-.53-.68-.086-2.336-.03-4.67.586-6.95zm-3.033-4.866c.495-.513 1.018-1 1.415-1.386.29-.05.464-.11.48-.078.092.15.22.345.182.484-.13.496-.235 1.044-.528 1.44-.19.258-.683.366-1.054.4-.4.037-.74-.603-.494-.86zm-2.77 2.82c.294-.362.684-.504 1.136-.29.58.273 1.184.508 1.723.847.23.146.454.518.45.783-.015.852-.12 1.708-.22 2.556-.15 1.27-.372 2.54-.48 3.812-.18 2.02-.152 2.024-2.312 2.056-.533.008-1.07 0-1.608 0v-.01c-.747 0-1.498.01-2.245-.007-.45-.01-.814-.448-.714-.848.81-3.26 2.144-6.274 4.273-8.9zm-1.023 23.755c-1.157-2.513-2.48-4.968-3.19-7.663-.212-.816-.262-1.682-.323-2.53-.063-.836.28-1.2 1.08-1.224.747-.023 1.493-.005 2.244-.005v.035c.747 0 1.496-.023 2.242.006.79.033 1.102.353 1.11 1.238.02 2.568.32 5.112.8 7.627.146.775-.015 1.183-.686 1.532-.758.392-1.47.87-2.2 1.312-.48.29-.922.02-1.078-.325zm6.016 4.907c-.06.065-.177.143-.227.12-1.272-.557-2.35-1.382-3.253-2.434-.272-.316-.115-.656.15-.78.462-.22.978-.374 1.484-.428.253-.025.678.158.784.37.47.93.853 1.908 1.24 2.802-.092.18-.117.284-.18.352zm.463-9.585c-.192-1.037-.25-2.105-.288-3.16-.124-3.653-.363-3.838 3.566-3.18.418.07.85.038 1.27.086.59.07.98.38.996 1.006.02.953.006 1.91.006 2.862h.04c0 .636.012 1.273-.002 1.908-.032 1.724-.096 1.803-1.696 2.02-.42.056-.848.068-1.267.136-.62.1-1.23.23-1.845.346-.267-.674-.65-1.327-.78-2.027zm14.447 8.077c-.128.945-.444 1.867-.702 2.792-.19.683-.656 1.056-1.37 1.15-.846.108-1.683.276-2.53.377-1.495.18-2.972.156-4.45-.25-1.43-.398-2.62-.91-2.672-2.687-.015-.512-.304-1.018-.477-1.522-.333-.97-.927-1.872-.704-2.97 1.035-.214 2.065-.465 3.108-.63.646-.102 1.288.412 1.347 1.1.15 1.713.417 3.396 1.097 4.984.162.384.43.734.704 1.053.06.07.43 0 .526-.116.194-.233.39-.53.42-.82.103-.956.132-1.92.167-2.533-.23-4.153.13-3.617 3.225-3.31 3.68.37 2.64.95 2.312 3.384zm1.02-7.616c-.146 1.392-.252 1.387-1.87 1.195-1.276-.148-2.556-.276-3.824-.475-.808-.128-1.045-.454-1.075-1.323-.027-.856-.004-1.714-.004-2.57h-.014c0-.752-.018-1.503.005-2.252.028-.843.35-1.202 1.134-1.205 1.714-.004 3.427.013 5.14.058.47.01.826.32.807.814-.07 1.92-.102 3.85-.3 5.76zm-4.255-9.28c-.213.003-.424 0-.638-.003-1.717-.043-1.88-.17-1.882-1.777-.002-1.914.037-3.83.085-5.744.015-.59.354-1.035.95-1.096 1.69-.18 3.384-.326 5.082-.427.446-.027.843.33.86.78.054 1.27.018 2.55.018 3.823.096 5.265.87 4.384-4.476 4.446zm6.78-15.552c.254-.04.584-.032.78.107.513.355.987.773 1.432 1.21.075.074.002.44-.112.537-.235.195-.535.325-.825.432-.647.24-1.096.068-1.244-.48-.107-.404-.158-.822-.22-1.15.078-.29.108-.644.19-.657zm2.302 32.062c-.675.963-1.498 1.757-2.652 2.105-.1.03-.416-.24-.405-.343.062-.517.17-1.035.318-1.534.144-.498.352-.975.53-1.46.673.227 1.35.45 2.017.692.075.026.107.167.16.256.01.097.075.228.032.287zm6.464-9.89c-.66 2.36-1.54 4.643-3.127 6.572-.288.352-.683.515-1.13.317-1.07-.472-2.13-.962-3.19-1.45-.666-.307-.9-.84-.836-1.555.2-2.328.384-4.656.585-6.983.044-.47.305-.79.782-.85 2.11-.266 4.22-.513 6.116-.745h.533c.66 0 1.065.337.976.95-.188 1.253-.364 2.523-.705 3.743zm.78-8.005c-.136.35-.405.848-.693.908-1.457.297-2.94.47-4.41.69-.01-.065-.02-.13-.027-.198-.75 0-1.5.02-2.25-.006-.774-.03-1.098-.38-1.136-1.224-.035-.75.004-1.5-.05-2.247-.13-1.81-.3-3.616-.45-5.424-.068-.82.128-1.273.843-1.525 3.98-1.397 3.293-2.042 5.713 1.856 1.182 1.9 2.237 3.91 2.438 6.223.027.32.128.68.02.95z"/></svg>