<svg xmlns="http://www.w3.org/2000/svg" width="128" height="128" viewBox="0 0 128 128"><path d="M109.927 93.02c-.2-2.77-.747-5.518-1.237-8.257-.853-4.77-2.96-8.928-6.38-12.384-.514-.525-1.11-1.09-1.78-1.33-3.144-1.124-6.034-2.75-8.97-4.3-1.324-.697-2.747-1.2-4.108-1.83-1.653-.77-3.337-1.486-4.917-2.383-2.54-1.444-4.757-3.292-6.38-5.77-1.84-2.806-1.836-2.81-.73-5.885.18-.505.387-1 .543-1.513.17-.56.538-.868 1.077-1.076 2.714-1.04 4.014-3.413 5.35-5.744.842-1.465.922-3.07.653-4.687-.235-1.42-.715-2.702-2.296-3.2-.69-.217-.964-.768-.955-1.493.018-1.394.005-2.79.005-4.184h.02c0-1.397.046-2.79-.01-4.184-.102-2.507-.867-4.826-2-7.055-1.452-2.854-3.97-4.23-6.913-4.706-3.554-.574-6.818.43-9.6 2.754-1.567 1.31-2.964 2.784-4.135 4.48-2.992 4.33-4.9 9.022-5.003 14.355-.02 1.153-.058 1.204-1.52 1.482-1.716.33-2.67 1.5-2.925 3.027-.456 2.727-.064 5.354 1.885 7.533.43.48.896.93 1.286 1.44.692.908 1.57 1.462 2.72 1.5.99.03 1.576.5 1.866 1.448.186.61.544 1.17.738 1.78.29.92.747 1.88.666 2.784-.053.585-.992 1.053-1.43 1.647-.7.95-1.375 1.924-1.956 2.95-.883 1.56-2.206 2.602-3.75 3.41-.662.347-1.354.644-2.05.923-4.177 1.674-8.37 3.312-12.533 5.02-1.88.77-3.716 1.655-5.555 2.527-1.376.65-2.58 1.568-3.535 2.748-2.66 3.29-4.714 6.907-5.58 11.09-.28 1.356-.422 2.757-.448 4.14-.05 2.466-.11 4.945.104 7.396.34 3.943 1.14 7.847 1.11 11.825-.014 1.54.415 2.96 1.02 4.343.438.997 1.328 1.39 2.38 1.06.507-.16.986-.41 1.467-.646 3.87-1.888 7.277-4.523 10.93-6.765.586-.362.938-1.132 1.338-1.755.26-.405-.01-1.198-.467-1.383-.482-.196-1.024-.42-1.515-.376-.84.08-1.662.357-2.49.555-.412.097-1.106-.153-1.06-.404.048-.293.138-.684.347-.826 1.242-.842 2.54-1.6 3.787-2.433.705-.47 1.427-.96 2.006-1.57.416-.438.803-1.06.5-1.75-.327-.74-.948-1.216-1.74-1.248-.62-.027-1.31.053-1.858.313-1.352.64-2.688 1.345-3.947 2.15-1.808 1.15-3.54 2.42-5.32 3.62-.232.156-.607.39-.778-.068-.1-.27-.12-.634-.02-.898.1-.278.353-.527.596-.72.923-.736 1.89-1.416 2.796-2.168 1.073-.893 2.12-1.813 3.136-2.77.378-.36.673-.832.934-1.296.446-.792.004-1.883-.928-1.98-.915-.096-1.657-.256-2.155-1.106-.24-.41-.374-.722.033-1.094 1.19-1.08 2.377-2.168 3.548-3.268.31-.29.634-.604.83-.97.133-.246.166-.662.044-.9-.117-.23-.472-.415-.757-.477-.796-.174-1.477.18-2.07.668-1.402 1.16-2.785 2.35-4.17 3.533-.24.206-.393.19-.484-.106-.03-.092-.07-.216-.032-.288.557-1.037 1.18-2.04 1.68-3.1.945-1.985 2.366-3.566 4.027-4.957.658-.55 1.38-1.03 1.99-1.633.916-.906 1.97-.923 2.947-.354 1.104.642 2.087 1.49 3.1 2.283.367.287.446.703.206 1.14l-2.49 4.5c-.437.79-.63 1.58-.17 2.444.394.752.634 1.604 1.108 2.3 1.935 2.826 3.687 5.754 5.373 8.735 1.803 3.188 4.282 5.898 6.656 8.662.545.635 1.31 1.092 2.02 1.566.516.346 1.05.11 1.47-.254.606-.526.864-1.17.655-2.01-.395-1.6-1.187-2.957-2.25-4.21-2.438-2.865-4.73-5.847-6.398-9.237-1.088-2.216-2.142-4.446-3.56-6.477-.398-.572-.567-1.168-.162-1.787.99-1.52 1.35-3.374 2.65-4.744.64-.672.444-1.74-.342-2.263-.882-.587-1.84-1.088-2.818-1.5-1.096-.46-2.158-.94-3.032-1.772-.565-.54-.664-1.162-.18-1.69.506-.55.993-1.155 1.6-1.572 1.407-.968 2.868-1.856 4.342-2.718.17-.1.66.083.813.283.245.33.395.762.482 1.173.29 1.36.48 2.745.81 4.096.684 2.808 1.235 5.667 2.198 8.38 1.685 4.74 3.67 9.373 5.472 14.073 1.316 3.434 3.21 6.527 5.316 9.512.444.63.925 1.138 1.78 1.216.52.045 1.012.337 1.535.434.796.147 1.53-.08 2-.747 1.297-1.835 2.57-3.685 3.805-5.565.764-1.163 1.436-2.385 2.14-3.584 2.227-3.796 4.325-7.65 5.728-11.85 1.36-4.064 2.773-8.107 4.188-12.15.53-1.517 1.115-3.02 1.738-4.5.145-.34.53-.79.84-.82 1.49-.15 2.997-.253 4.395.537.523.296.644.48.29.978-1.056 1.487-2.112 2.972-3.214 4.424-2.3 3.02-2.28 3.51.39 6.186.78.78.853 1.072.296 1.95-2.076 3.263-3.96 6.636-5.54 10.16-1.97 4.403-3.87 8.838-5.79 13.262-.123.288-.225.604-.236.91-.007.182.135.452.29.545.256.15.69.352.85.243.514-.352 1.02-.78 1.376-1.283.672-.962 1.195-2.03 1.856-3.002 2.35-3.452 4.735-6.883 7.097-10.33.303-.442.54-.925.82-1.383 1.29-2.1 2.585-4.197 3.872-6.3.336-.545.637-1.12.992-1.652 1.182-1.77.437-2.955-.68-3.96-.392-.352-.89-.592-1.342-.88-1.397-.89-1.42-.985-.544-2.137 1.298-1.706 2.588-3.42 3.9-5.114.27-.35.65-.55 1.12-.317 2.555 1.268 4.78 2.882 5.903 5.647.644 1.585 1.423 3.132 1.9 4.768.895 3.076 1.64 6.197 2.394 9.312.173.718.05 1.504.213 2.224.688 3.037 1.12 6.108 1.405 9.203.09.957.342 1.9.543 2.84.093.438.947.763 1.333.51.26-.173.606-.35.718-.608.416-.977 1.042-1.98 1.067-2.987.082-3.43.086-6.876-.16-10.293zm-31.04-52.945l.155.224-.18.195c-.054-.075-.15-.15-.144-.22.004-.073.107-.137.17-.2zM52.5 42.385l-.184-.142.208-.11-.02.252zM62.4 74.96c-.203.936-.413 1.874-.722 2.775-1.254 3.66-1.522 7.528-2.414 11.264-.298 1.243-.538 2.503-.835 3.747-.03.128-.292.3-.427.28-.184-.022-.44-.17-.504-.326-.75-1.885-1.54-3.757-2.18-5.682-1.178-3.55-2.18-7.14-2.645-10.874-.192-1.583-.624-3.136-.945-4.706-.085-.416-.155-.835-.205-1.112.067-.358.066-.59.16-.77.095-.177.26-.365.436-.433.14-.053.44.02.504.128.32.553.558 1.15.873 1.705.824 1.463 2.528 1.845 3.787.784.81-.69 1.502-1.52 2.255-2.278.384-.386.784-.32.97.156.583 1.483.85 3.088 1.814 4.422.16.22.143.632.08.925zm.173-12.21c-1.733.53-2.83 1.804-3.873 3.17-.776 1.015-1.594 2-2.408 2.98-.353.428-.8.39-.95-.076-.253-.802-.47-1.617-.72-2.475.293-.61.46-1.25.846-1.703 1.307-1.536 2.677-3.022 4.062-4.487.16-.172.675-.25.85-.125.86.612 1.673 1.294 2.457 2 .077.067-.107.666-.264.712zm1.558-6.57c-1.035-.946-1.856-2.066-2.31-3.43-1.723-5.19-3.237-10.45-3.718-15.905-.556-6.276 1.866-11.51 6.27-15.888.45-.448 1-.813 1.548-1.137 3.106-1.854 6.13-1.18 8.03 1.884.61.983 1.018 2.13 1.32 3.253.3 1.13.398 2.322.5 3.494.075.85.016 1.714.016 2.573-.256 5.568-.76 11.12-2.632 16.412-.888 2.512-2.13 4.9-3.22 7.34-.133.29-.323.558-.513.82-1.367 1.888-3.57 2.158-5.293.587zm2.67 6.49c-.008-.046.148-.133.24-.18 1.817-.97 3.395-2.197 4.49-3.99.143-.23.504-.325.736-.466.245.15.448.238.602.38.395.357.774.735 1.148 1.116 2.9 2.937 2.133 2.534 1.237 5.567-.18.61-.346 1.24-.622 1.81-.344.718-.24 1.9-1.29 1.964-.897.055-1.445-.82-1.967-1.48-.66-.84-1.236-1.74-1.866-2.604-.637-.87-1.295-1.72-2.526-1.757-.068-.003-.157-.228-.18-.358zm13.046 6.55c-.782 2.783-1.42 5.623-2.443 8.315-1.37 3.6-3.052 7.083-4.607 10.608-.08.18-.256.317-.388.475-.13-.166-.317-.315-.38-.504-1.07-3.14-2.128-6.283-3.174-9.43-.202-.61-.266-1.27-.513-1.855-.622-1.473-.654-2.777.51-4.07.464-.518.532-1.383.82-2.073.068-.164.3-.26.452-.39.202.044.432.04.6.14.64.386 1.252.826 1.894 1.212 1.037.623 1.803.575 2.543-.364.585-.74 1.032-1.61 1.42-2.478.48-1.07.83-2.197 1.254-3.296.12-.313.588-.366.758-.11.06.087.124.172.176.266.267.465.5.95.796 1.397.447.68.492 1.42.283 2.158z"/></svg>