<svg xmlns="http://www.w3.org/2000/svg" width="128" height="128" viewBox="0 0 128 128"><path d="M104.723 94.114c-.302-2.133-1.148-4.144-2.432-5.87-2.15-2.902-5.065-4.93-8.303-6.412-3.115-1.425-6.4-2.39-9.777-3.06-1.903-.38-3.807-.55-5.732-.694-2.25-.168-3.696-1.55-4.098-3.763-.192-1.052-.27-2.127-.472-3.175-.242-1.246.037-2.272.864-3.27 1.02-1.23 2.07-2.5 2.78-3.917 1.34-2.673 2.79-5.316 3.556-8.245.208-.798.667-1.244 1.54-1.38 2.62-.403 4.074-2.102 4.92-4.502.89-2.52.613-5.08.417-7.64-.047-.622-.572-.905-1.116-.987-.52-.077-1.077.073-1.587-.023-.53-.1-1.01-.416-1.086-1.032-.213-1.806-.39-3.62-.61-5.425-.36-3-1.096-5.89-2.528-8.57-1.023-1.91-2.29-3.603-4.135-4.833-4.252-2.83-8.835-3.182-13.515-1.547-4.643 1.62-7.94 4.942-10.2 9.267-1.537 2.942-2.954 5.94-3.29 9.318-.03.317-.19.62-.236.933-.114.81-.454 1.323-1.307 1.615-2.42.832-3.373 2.907-3.82 5.163-.265 1.342-.102 2.778-.05 4.166.015.392.22.88.505 1.137 1.19 1.054 1.97 2.56 3.525 3.226.625.27.935.794 1.048 1.5.5 3.098 1.71 5.94 3.072 8.752.74 1.53 1.267 3.178 1.755 4.812.6 2 .175 3.784-1.368 5.297-1.26 1.236-2.74 2.012-4.39 2.565-1.31.44-2.6.964-3.882 1.49-.99.408-1.956.867-2.928 1.315-2.332 1.077-4.717 2.05-6.98 3.26-4.042 2.156-7.45 5.02-9.507 9.26-.37.762-.87 1.468-1.344 2.178-.548.827-.813 1.694-.88 2.702-.172 2.562.69 5.027.577 7.595-.05 1.16 1.323 2.315 2.576 2.507.845.127 1.828-.065 2.526.302 1.515.808 3.072.82 4.68.718 3.533-.117 7.066-.262 10.6-.34 2.68-.062 5.362-.044 8.044-.05.7 0 1.16-.16 1.408-.957.213-.686.753-1.27 1.14-1.906.612-1.003 1.342-1.956 1.804-3.023 1.148-2.645 1.95-5.43 3.24-8.028.732-1.47.645-2.974-.8-4.03-1.47-1.073-1.568-2.432-1.096-3.987.156-.513.315-1.025.5-1.526.705-1.914 1.34-3.844 1.414-5.905.04-1.09.633-1.765 1.5-2.31 1.415-.89 2.704-.5 3.38 1.072.465 1.08.896 2.17 1.358 3.25.592 1.378 1.25 2.726 1.794 4.12.708 1.813-.186 3.477-2.054 3.947-.516.125-1.082.12-1.557.33-1.16.51-2.204 1.97-1.127 3.4.45.598.84 1.38 1.45 1.683 1.777.88 2.527 2.57 3.553 4.05.853 1.23 1.757 2.446 2.443 3.77.736 1.422 1.305 2.922 2.7 3.87.273 1.4 1.28 1.534 2.44 1.434.642-.052 1.29-.04 1.93-.097 3.73-.34 7.46-.68 11.187-1.047 4.367-.435 8.73-.91 13.096-1.348.72-.07 1.207-.405 1.47-1.047 1.315-3.236 1.914-6.597 1.42-10.066zm-21.01-48.21c.06-.562.202-1.13.858-1.146.925-.026 1.71.866 1.556 1.638-.168.856-.437 1.668-1.23 2.155-.263.164-.7.383-.878.275-.3-.175-.454-.594-.584-.78.113-.865.21-1.5.277-2.14zm-35.974 2.73c-.404-.037-.793-.208-.813-.72-.027-.71.416-1.293 1.013-1.256.422.027.775.238.8.602.042.853-.402 1.436-1.002 1.376zM31.48 98.63c0 .064-.004.125-.005.188-.03.016-.064.03-.096.043-.005.157 0 .315-.047.46-.035.116-.18.202-.273.303-.018-.18-.1-.395-.03-.533.052-.11.208-.165.35-.23 0-.042 0-.084.002-.127.04-.032.064-.07.1-.103.027-.988.052-1.975.09-2.965.002-.093.094-.18.144-.277.087.136.258.277.25.403-.062.966.347 2.03-.484 2.843zm8.423-7.975c-.274 3.072-.544 6.142-.83 9.213-.018.192-.11.444-.256.548-.238.168-.56.352-.82.32-.26-.03-.705-.322-.7-.486.046-1.59.125-3.182.282-4.762.21-2.11.674-4.206-.07-6.308-.086-.245-.052-.683.11-.843.607-.59 1.285-1.112 1.946-1.643.064-.05.245-.043.304.008.142.13.353.315.342.46-.096 1.168-.24 2.33-.367 3.49.02 0 .04 0 .06.003zm2.764-4.125c-.22-.18-.548-.334-.688-.59-.11-.2-.083-.646.062-.77.31-.255.725-.41 1.12-.522.12-.032.43.192.462.338.113.523-.5 1.493-.958 1.542zm5.774-1.768c-.09-.186-.2-.363-.275-.555-.146-.387-.28-.78-.392-1.18-.01-.033.153-.163.243-.172.184-.02.38-.013.56.032.077.018.164.156.178.245.043.307.056.62.083.963-.128.213-.26.44-.395.665zM53 81.865c-.102-.254-.214-.51-.286-.77-.006-.022.262-.122.405-.182l.172.494-.294.46zm4.1-4.39c-.185-.032-.43-.416-.422-.634.01-.265.22-.653.612-.472.233.112.38.405.64.706-.346.18-.615.437-.832.4zm6.305-3.15c-.512.325-.928.37-1.42-.027-.833-.665-1.98-1.12-2.472-1.967-.49-.84-.32-2.06-.467-3.113-.328-2.325-.715-4.648-1.003-6.984-.314-2.55-.37-5.14-.85-7.65-.697-3.616-.534-7.237-.593-10.87-.03-1.74.252-3.41.95-4.994 1.023-2.337 1.83-4.795 3.546-6.77.14-.16.285-.338.363-.53 1.015-2.546 3.34-3.827 5.297-5.446.46-.38 1.15-.528 1.76-.66.83-.18 1.704-.174 2.528-.38 1.166-.287 2.088.157 2.984.782.172.12.32.288.456.45 2.15 2.596 3.868 5.4 4.05 8.877.202 3.952.343 7.908.51 11.86-.013.004-.025.004-.037.004 0 1.5.067 3.002-.02 4.496-.07 1.163-.123 2.404-.567 3.45-1.205 2.84-2.528 5.613-4.836 7.83-1.632 1.567-2.686 3.55-2.916 5.895-.082.843-.287 1.68-.517 2.496-.073.256-.39.62-.62.635-2.352.174-4.228 1.424-6.126 2.62zm11.904 8.26c-.164.136-.335.263-.506.39-.352.263-.736.445-1.16.197-.43-.252-.443-.68-.38-1.117-.414-.02-.533-.288-.572-.622-.035.002-.064-.005-.1 0 0-.085-.02-.154-.04-.22l-.35-.35c-.083-.03-.174-.054-.27-.074-.032-.034-.066-.066-.1-.096-1.153.036-2.14-.256-2.84-1.34-.34-.525-.892-.906-1.316-1.384-.27-.298-.12-.626.168-.782.252-.14.617-.238.868-.158.256.083.52.37.634.63.54 1.258 1.543 2.115 2.485 3.034.068-.002.13 0 .197-.005l.174.172c.17.064.295.17.353.35l.125.128c0 .033.01.06.013.093.38-.025.588.168.616.578.63.045 1.26.068 1.884.144.322.04.357.23.117.43zm11.507 3.81c-1.03-.21-1.977-.622-2.763-1.345-.047-.043-.072-.19-.04-.22.068-.07.177-.13.277-.14 1.103-.14 2.034.34 2.943.864.098.056.06.352.085.535-.172.105-.364.33-.502.3zm4.1 15.316l.128-.175.08.203-.207-.026zm3.972-12.12c-.068-.004-.127-.115-.188-.177.073-.05.15-.144.22-.14.07.004.132.108.202.17-.09.06-.17.157-.235.15zm3.913 7.1c-.213.92-.124 1.905-.27 2.845-.056.352-.38.917-.62.94-.694.057-.417-.49-.345-.867.018-.103.034-.21.104-.605-.045-.454-.113-1.195-.192-1.933-.096-.952-.277-1.904-.274-2.857.004-.74-.45-1.59.323-2.236.843.5.804 1.444 1.104 2.22.318.817.373 1.61.17 2.493z"/></svg>