<svg xmlns="http://www.w3.org/2000/svg" width="128" height="128" viewBox="0 0 128 128"><path d="M99.353 94.32c-.49-3.71-2.01-6.956-4.125-9.988-1.58-2.267-3.61-3.888-6.22-4.845-1.4-.512-2.734-1.21-4.08-1.862-1.925-.933-3.825-1.918-5.75-2.848-1.736-.843-3.495-1.628-5.236-2.453-2.368-1.124-4.38-2.757-6.03-4.738-1.08-1.294-1.796-2.89-2.675-4.352.403-1.213.834-2.417 1.2-3.642.297-.995.915-1.587 1.836-2.085 2.997-1.62 4.644-4.33 5.626-7.488.47-1.527-.077-2.97-.61-4.38-.38-1-1.285-1.384-2.22-1.695-.65-.215-.735-.727-.624-1.283.754-3.75.33-7.477-.288-11.183-.263-1.585-.91-3.06-1.713-4.48-1.99-3.507-5.235-4.64-8.95-4.59-3.222.043-6.006 1.384-8.35 3.635-2.99 2.872-5.18 6.256-6.688 10.11-.828 2.115-1.366 4.28-1.356 6.568.003.644-.012 1.295-.11 1.928-.088.556-.374.996-1.068.936-1.052-.09-1.864.37-2.514 1.16-.775.943-1.253 2.022-1.194 3.247.09 1.94.32 3.915 1.59 5.46 1.33 1.62 2.506 3.553 4.964 3.73.71.053 1.167.516 1.406 1.163.482 1.306.94 2.618 1.4 3.93.156.44.02.814-.263 1.18-.916 1.183-2.007 2.29-2.68 3.604-1.097 2.152-2.84 3.436-4.92 4.406-.97.453-1.94.91-2.938 1.306-2.888 1.14-5.803 2.22-8.683 3.385-2.383.962-4.754 1.96-7.084 3.044-1.863.87-3.53 2.077-4.725 3.786-1.04 1.493-2.07 3.008-2.932 4.608-1.59 2.957-2.465 6.075-2.486 9.523-.038 5.59.363 11.136.933 16.683.143 1.38.283 2.765.377 4.152.09 1.305.357 2.542 1.08 3.656.44.683 1.196.955 1.955.69.098-.034.204-.062.3-.107 4.425-1.99 8.292-4.907 12.374-7.465.5-.313.847-.954 1.135-1.508.365-.698-.064-1.594-.832-1.777-.5-.118-1.05-.17-1.554-.095-.838.124-1.654.395-2.486.55-.158.03-.475-.154-.52-.3-.077-.24-.094-.68.043-.776 1.323-.916 2.685-1.77 4.023-2.655.623-.413 1.263-.816 1.824-1.303.59-.51.95-1.173.717-2-.202-.716-1.087-1.28-2.075-1.204-.734.054-1.483.212-2.172.47-.693.263-1.344.673-1.968 1.08-1.978 1.287-3.93 2.61-5.9 3.908-.444.292-.91.552-1.375.816-.07.038-.245.032-.264-.004-.086-.187-.24-.434-.18-.58.204-.468.39-1.023.763-1.332 1.565-1.3 3.22-2.496 4.79-3.79.91-.745 1.784-1.54 2.227-2.7.303-.784-.014-1.47-.893-1.67-.206-.05-.433-.073-.638-.04-1.004.164-1.267-.642-1.616-1.268-.124-.224-.112-.642.02-.858.22-.352.585-.613.894-.91 1.163-1.11 2.345-2.2 3.488-3.33.303-.303.51-.78.115-1.132-.292-.26-.814-.576-1.1-.476-.795.27-1.585.658-2.258 1.158-1.03.768-1.947 1.685-2.945 2.496-.292.242-.686.358-1.04.523.004.025 0 .05.006.075-.026.006-.055.01-.086.013l-.19.398c-.314-.386-.036-.373.19-.4l.032-.066c.015-.008.03-.015.048-.02-.175-1.164.765-1.89 1.158-2.828.985-2.332 2.633-4.146 4.58-5.714.502-.4.993-.815 1.466-1.248 1.593-1.46 1.838-1.09 3.428-.414.484.206.922.552 1.337.888.658.537 1.506 1.006 1.86 1.713.42.84-.604 1.482-.923 2.24-.37.882-.88 1.72-1.43 2.51-.756 1.09-.824 2.245-.247 3.346.843 1.61 1.82 3.147 2.78 4.693.447.724 1.13 1.33 1.458 2.097 1.99 4.61 5.27 8.31 8.408 12.113.535.646 1.216 1.216 1.925 1.67 1.15.737 2.466-.02 2.54-1.36.052-1.005-.176-1.927-.758-2.736-1.004-1.39-1.99-2.795-3.068-4.126-2.173-2.677-4.035-5.534-5.472-8.683-.62-1.354-1.458-2.616-2.21-3.91-.324-.558-.716-1.076-1-1.65-.125-.25-.188-.692-.05-.884 1.18-1.653 1.442-3.813 2.967-5.283.47-.456.392-1.337-.105-1.743-.657-.535-1.367-1.024-2.112-1.424-.94-.508-1.986-.823-2.9-1.368-2.672-1.584-1.887-2.054-.253-3.816.424-.46 1.06-.72 1.6-1.07.983-.644 1.97-1.28 2.953-1.926.573-.378 1.12-.24 1.262.37.27 1.146.49 2.304.754 3.452.788 3.44 1.366 6.93 2.58 10.268 1.79 4.93 3.802 9.776 5.73 14.653 1.275 3.226 3.203 6.04 5.107 8.884.5.747 1.13 1.26 2.106 1.243.53-.01 1.062.154 1.595.16.667.012 1.283-.202 1.683-.774 1.105-1.58 2.235-3.138 3.265-4.763 1.145-1.81 2.22-3.67 3.277-5.534 2.066-3.64 3.915-7.37 5.248-11.363 1.66-4.977 3.627-9.852 5.214-14.85.767-2.42 1.457-2.06 3.29-2 .726.02 1.445.357 2.156.587.602.192.796.715.413 1.25-1.183 1.656-2.387 3.3-3.62 4.92-1.658 2.188-1.636 3.015.23 4.998.146.156.337.264.49.414 1.062 1.026 1.068 1.032.297 2.39-1.107 1.957-2.28 3.882-3.34 5.866-2.98 5.587-5.25 11.503-7.862 17.26-.085.19-.187.447-.128.615.133.373.3.784.58 1.035.15.133.603.032.854-.093.275-.136.556-.38.694-.647 1.385-2.683 3.365-4.962 4.978-7.49 2.477-3.88 5.294-7.54 7.442-11.633.3-.565.72-1.062 1.058-1.61.674-1.093 1.333-2.2 1.99-3.302.37-.62.277-1.2-.088-1.808-.57-.96-1.416-1.557-2.365-2.108-1.347-.783-1.382-1.064-.517-2.21 1.225-1.627 2.468-3.24 3.718-4.848.353-.46.863-.748 1.398-.45 1.97 1.09 3.992 2.13 5.035 4.313.595 1.254 1.27 2.472 1.835 3.74 1.758 3.947 1.973 8.31 3.317 12.37-.14 2.167.785 4.174.95 6.306.17 2.237.54 4.46.832 6.687.026.205.145.4.22.6.23.617 1.15.768 1.594.252.933-1.086 1.602-2.39 1.664-3.756.128-2.78.154-5.59-.12-8.353-.324-3.295-1.077-6.546-1.51-9.834zM69.39 49.87c.03-.02.066-.03.105-.037.03-.04.06-.08.085-.12.032-.016.078-.02.128-.025.043-.115.09-.23.135-.346.307.363.055.33-.136.344-.016.036-.03.072-.043.107-.056.014-.114.023-.17.037-.057.08-.113.16-.172.24.02-.07.02-.172.067-.204zM43.513 52.1l-.14-.108.16-.08-.02.185zm9.564 32.668c-1.317 3.962-2.013 8.067-2.77 12.16-.332 1.78-.827 3.53-1.263 5.29-.05.2-.192.377-.29.563-.193-.217-.45-.403-.56-.657-1.534-3.535-2.835-7.157-3.685-10.915-.756-3.328-1.33-6.7-1.97-10.054-.1-.523-.104-1.06-.14-1.438.068-.37.077-.59.15-.785.073-.185.19-.447.335-.482.155-.04.456.096.538.24.416.74.73 1.543 1.18 2.262.66 1.058 2.116 1.327 3.086.522.897-.75 1.674-1.643 2.516-2.466.42-.41 1.09-.224 1.205.41.246 1.398.833 2.64 1.52 3.857.26.463.343.91.146 1.496zm-.888-12.05c-.62.385-1.197.88-1.67 1.43-1.188 1.362-2.3 2.79-3.463 4.176-.117.14-.43.28-.54.22-.248-.136-.533-.368-.608-.62-.156-.5-.18-1.043-.255-1.57-.176-1.158.274-2.037 1.07-2.865 1.175-1.224 2.26-2.53 3.37-3.815.336-.387.682-.457 1.09-.16.428.31.86.62 1.268.96 1.458 1.21 1.437 1.186-.264 2.242zm2.775-6.98c-.962-.872-1.775-1.89-2.195-3.126-2.065-6.084-3.986-12.2-3.857-18.745.11-5.608 2.694-10.016 6.596-13.792.93-.902 2.06-1.515 3.4-1.668 2.57-.297 4.443.336 6.232 3.507.85 1.502 1.152 3.218 1.237 4.94.06 1.28.01 2.57.01 3.853-.075 6.57-.997 12.994-3.61 19.085-.63 1.468-1.323 2.91-2.024 4.34-.233.478-.547.93-.89 1.33-1.196 1.397-3.52 1.533-4.9.28zm2.82 6.104c.008-.06.166-.11.262-.155 1.827-.785 3.174-2.1 4.222-3.765.143-.23.453-.352.652-.498.178.09.293.12.365.192 1.106 1.15 2.24 2.275 3.285 3.474.224.254.27.82.162 1.173-.558 1.832-1.178 3.644-1.808 5.45-.316.908-.945 1.033-1.668.284-.733-.762-1.394-1.596-2.043-2.434-.968-1.254-1.71-2.73-3.364-3.287-.07-.026-.086-.288-.07-.433zM70.6 78.73c-1.318 5.536-3.296 10.845-5.728 15.99-.456.962-.866 1.95-1.333 2.91-.07.133-.354.16-.535.238-.13-.16-.324-.3-.38-.48-1.325-4.18-2.638-8.368-3.94-12.557-.16-.524-.18-1.1.244-1.506.91-.87.986-2.118 1.51-3.162.28-.56.47-.665.93-.364.63.41 1.225.875 1.878 1.237 1.183.66 2.352.44 3.082-.722.56-.893.896-1.93 1.32-2.908.38-.875.725-1.764 1.127-2.63.044-.097.488-.155.522-.098.49.82 1.027 1.632 1.37 2.514.17.44.044 1.044-.074 1.54zm31.32-67.167c-1.192-.416-2.496-.55-3.76-.73-4.074-.58-7.914.252-11.365 2.408-4.008 2.505-5.513 6.423-5.298 10.98.09 1.9.53 3.814 1.353 5.583.992 2.13 2.053 4.228 2.99 6.38.897 2.06 2.177 3.92 3.116 5.936.72 1.546 1.64 2.406 3.317 2.546.63.053 1.243.346 1.874.4 2.23.196 4.453.523 6.64-.42.96-.416 1.614-.98 1.962-1.948.4-1.104.802-2.208 1.24-3.298 1.112-2.774 2.37-5.496 3.335-8.32.966-2.83 1.557-5.775 1.557-8.798v-.962c-.036-5.146-3.107-8.41-6.96-9.756zm1.597 16.826c-1.213 3.987-2.296 8.006-3.042 12.11-.114.632-.467.91-1.054.985-.95.12-1.904.33-2.86.34-1.364.022-2.732-.102-4.1-.164-.566-1.017-1.172-2.015-1.7-3.05-1.707-3.33-3.462-6.633-4.853-10.12-.733-1.84-.95-3.7-.945-5.647 0-2.478 1.153-4.31 3.06-5.7 2.42-1.765 5.198-2.442 8.177-2.354.96.063 1.93.07 2.882.2 3.227.436 5.158 2.57 5.362 5.794.164 2.596-.173 5.128-.925 7.602zm-1.48 17.49c-.942-.057-1.97-.108-2.827.205-1.798.654-3.57.464-5.365.228-.63-.082-1.25-.25-2.117-.427-.512.158-1.257.28-1.886.615-.966.517-.94 1.797.01 2.335.458.26 1 .373 1.462.625.366.204.626.48.466 1.022-.11.373-.09.864.06 1.224.902 2.155 3.468 3.312 5.58 2.407.736-.315 1.325-1.028 1.91-1.632.498-.514.35-1.16.173-1.804-.056-.21.16-.637.37-.75.647-.354 1.396-.54 2.022-.923.433-.264.8-.704 1.07-1.14.47-.77-.048-1.93-.927-1.982zM96.547 51c-.603.022-1.206 0-1.807-.025-.082-.005-.237-.156-.224-.186.056-.146.14-.358.248-.386.293-.07.608-.058.92-.078.303.043.607.078.91.14.09.02.162.116.245.18-.1.123-.194.348-.295.352zm15.15-13.927c-.218-.173-.596-.17-.908-.2-.63-.064-1.26.568-1.194 1.19.032.312.037.666.19.92 1.135 1.88 2.74 3.214 4.802 3.984.664.25 1.514-.435 1.527-1.48-.098-.235-.166-.85-.512-1.167-1.248-1.14-2.576-2.197-3.907-3.247zm6.757-12.17c-1.114-.342-2.26-.676-3.41-.785-.7-.064-1.455.25-2.154.49-.245.083-.584.48-.55.68.06.372.275.85.576 1.027 1.227.718 2.595.96 4.747.92-.31.025.117.004.542-.045.542-.064 1.077-.567 1.07-1.02-.01-.586-.295-1.105-.82-1.266zm-7.675-11.89c.313.017.665.096.944-.005 1.95-.704 3.59-1.824 4.693-3.624.047-.08.016-.206.026-.413-.203-.126-.454-.422-.69-.414-2.262.107-4.028 1.177-5.407 2.925-.123.157-.144.396-.206.598-.098.32.302.92.64.937zM77 22.463c.097-.018.185-.095.278-.144.56-.3.672-1.17.235-1.625-1.035-1.07-2.366-1.288-4.007-1.36-.274.055-.79.136-1.295.27-.435.115-.732 1.04-.417 1.32 1.49 1.327 3.21 1.92 5.21 1.54zm11.44-14.38c.21.51.825.64 1.392.545.49-.085 1.01-.667.924-1.148-.21-1.15-.46-2.294-.775-3.416-.162-.578-1.084-.96-1.6-.656-.304.18-.485.62-.656.97-.083.174-.015.42-.015 1.356.102.34.33 1.38.73 2.35zm-8.406 37.023c1.13-.352 2.095-1.03 2.776-2.003.28-.4.34-.954.416-1.18-.09-.876-.95-1.326-1.51-1.053-1.27.618-2.26 1.546-2.937 2.785-.213.387-.235.885.13 1.152.3.22.805.4 1.126.3zM96.992 30.67c-.306.28-.644.608-.768.983-.23.7-.294 1.45-.476 2.168-.032.13-.3.215-.47.283-.048.02-.196-.085-.22-.158-.17-.5-.287-1.016-.473-1.504-.453-1.185-.603-2.5-1.453-3.51-.114-.14-.365-.18-.562-.22-.058-.013-.18.114-.218.2-.44.978-.78 1.97-.602 3.074.164 1.05.235 2.123.463 3.157.3 1.348.66 2.685 1.088 3.995.328.992 1.007 1.624 2.163 1.493.105-.013.213-.017.32-.017 1.632.01 2.106-.28 2.434-1.87.277-1.35.36-2.74.544-4.207-.06-1.084-.08-2.25-.2-3.407-.064-.597-1.096-.883-1.566-.456z"/></svg>