<svg xmlns="http://www.w3.org/2000/svg" width="128" height="128" viewBox="0 0 128 128"><path d="M97.39 83.866c-.064-1.483-.717-2.67-1.86-3.598-1.38-1.114-2.88-1.835-4.736-1.518-.95.164-1.92.194-2.87.354-4.218.707-8.43 1.44-12.647 2.16-.105.02-.233.047-.316.007-.265-.133-.622-.24-.745-.465-.13-.245-.125-.644-.02-.914.106-.272.364-.57.63-.68 1.383-.57 2.757-1.212 4.198-1.59 4.866-1.28 8.97-4.01 13.08-6.73.842-.558 1.256-1.41 1.328-2.454.118-1.637.005-3.24-.76-4.702-.794-1.52-1.727-2.958-2.554-4.46-2.852-5.177-6.56-9.79-9.72-14.768-.45-.715-1.068-1.34-1.684-1.93-1.388-1.33-3.068-1.886-4.995-1.798-.816.036-1.463.267-1.918.957l-1.59 2.417c-.83 1.253-1.648 2.51-2.5 3.745-.165.24-.453.527-.706.55-.555.05-.57-.5-.718-.875-.038-.1-.048-.21-.096-.305-.736-1.495-.728-2.86.617-4.06.31-.274.5-.692.693-1.072.435-.856-.092-1.864-1.01-1.92-.64-.038-1.286.023-1.93 0-2.284-.085-3.49.533-2.265 3.313.085.195.163.4.285.574.422.612.27 1.2 0 1.816-.21.49-.33 1.018-.535 1.51-.12.29-.323.547-.487.818-.295-.284-.752-.512-.864-.853-.853-2.67-2.92-4.746-3.614-7.493-.158-.63-.904-.968-1.565-.794-1.98.518-3.858 1.17-5.303 2.798-1.42 1.6-3.23 2.895-4.195 4.84-.678 1.366-1.518 2.582-2.493 3.713-3.875 4.482-6.645 9.71-9.867 14.633-.175.267-.288.578-.416.87-.963 2.23-.555 4.214 1.34 5.767.99.813 2.057 1.594 3.215 2.114 2.93 1.313 5.877 2.62 8.915 3.63 2.35.784 4.607 1.726 6.83 2.78.28.133.513.373.748.583.07.065.123.21.1.293-.018.07-.16.155-.245.156-1.387.003-2.78.067-4.163-.022-2.133-.14-4.26-.384-6.39-.587-2.474.18-4.925.067-7.37.652-2.323.552-3.264 1.23-3.416 4.253-.05.99.16 1.93.69 2.766 1.036 1.625 2.026 3.29 3.18 4.833 1.368 1.83 3.174 3.195 5.293 4.08 2.864 1.195 5.752 2.332 8.62 3.515.99.405 1.955.864 2.917 1.327.08.04.125.415.067.45-.9.577-1.806 1.14-2.735 1.668-1.12.634-2.31 1.154-3.37 1.867-1.174.786-2.137 1.81-2.337 3.318-.24 1.75.075 3.437.81 5.01.492 1.062 1.53 1.657 2.632 1.532 2.333-.264 4.554-.813 6.56-2.29 2.924-2.158 6.066-4.02 9.098-6.036.893-.594 1.77-.68 2.728-.227.677.323 1.43.533 2.03.958 2.926 2.068 6.362 3.046 9.563 4.517.67.31 1.424.48 2.16.606 1.62.275 2.924-.395 3.71-1.87.4-.756.83-1.514 1.09-2.324.563-1.776.083-3.133-1.463-4.184-1.856-1.26-3.653-2.637-5.877-3.242-.406-.112-.772-.366-1.162-.54-.29-.134-.324-.294-.068-.488.34-.254.666-.535 1.037-.736 2.83-1.515 5.666-3.02 8.506-4.517 3.44-1.813 6.29-4.457 9.415-6.713 1.005-.72 1.493-1.798 1.485-3.07-.007-.635.038-1.28.01-1.92zM53.593 72.442c-3.902-1.69-7.934-3.115-11.506-5.493-.593-.4-.643-.78-.147-1.25 2.163-2.06 4.363-4.075 6.49-6.165 1.135-1.117 2.142-2.368 3.23-3.533.11-.12.398-.175.562-.128.166.056.376.26.402.423.277 1.678.562 3.357.765 5.045.315 2.645.57 5.293.85 7.938-.025.005-.05.01-.074.01.11.845.23 1.687.324 2.53.044.387-.517.783-.897.62zm20.02 19.23c-2.286 1.375-4.586 2.736-6.868 4.124-.917.555-1.757.448-2.73.043-2.87-1.197-5.633-2.59-8.26-4.25-.134-.087-.197-.29-.28-.46-.037.005-.073.012-.11.016l-.012-.117-.4-.17c.364-.27.383-.05.4.17l.09.04c.012.02.02.042.03.06.492-.063.985-.162 1.477-.156 5.457.038 10.914.096 16.373.163.155.004.306.173.46.264-.055.09-.09.22-.17.27zm.364-22.774c.047-.85.055-1.707.07-2.563.01-.643 0-1.284 0-1.926h.03c0-1.604-.007-3.208.003-4.813.005-.642.003-1.288.078-1.92.114-.95.277-1.897.964-2.64 1.333.003 1.71 1.087 2.264 1.983 1.918 3.09 3.842 6.17 5.762 9.252.508.81.472 1.144-.28 1.518-1.34.667-2.694 1.3-4.055 1.915-.78.354-1.613.584-2.365.977-2.39 1.254-2.665 1.563-2.472-1.78zM54.88 28.405c.805.3 1.08.892 1.306 1.66.576 1.962 1.424 3.807 2.684 5.443.725.94 1.51 1.845 2.63 2.307 3.018 1.248 6.103.99 7.534-2.432.53-1.27.943-2.62 1.188-3.977.3-1.637.783-2.944 2.29-3.985 2.107-1.46 1.99-4.28-.18-5.61-1.076-.656-1.562-1.343-1.487-2.533.02-.317.01-.648-.043-.962-.263-1.483-.597-2.958-1.457-4.213-1.27-1.852-3.134-2.495-5.38-2.354-2.42-.152-4.224.933-5.572 3-1.13 1.727-2.025 3.532-2.34 5.574-.13.817-.43 1.397-1.17 1.777-.375.19-.733.444-1.044.73-1.143 1.033-1.403 2.417-.723 3.785.388.783.914 1.476 1.76 1.79zm9.054-8.586c.376-1.096 1.003-2.108 1.552-3.133.047-.087.475-.107.516-.035.37.634.873 1.263 1 1.954.325 1.77.477 3.573.7 5.362-.022 2.723-.615 5.31-1.467 7.844-.153.452-.638.808-1.016 1.154-.094.083-.42.013-.56-.094-.143-.103-.3-.382-.253-.51.33-.892.71-1.764 1.077-2.645.31-.75.373-1.475-.367-2-.62-.442-.787-.925-.45-1.62.512-1.053.422-2.017-.35-2.966-.8-.986-.768-2.207-.386-3.316z"/></svg>