<svg xmlns="http://www.w3.org/2000/svg" width="128" height="128" viewBox="0 0 128 128"><path d="M116.238 92.075c-.158-.484-.213-1.103-.053-1.57.467-1.365.352-2.756.363-4.144.05-5.893-.038-11.785-.397-17.675-.254-4.168-.152-8.363-.216-12.544-.01-.75.112-1.546-.105-2.236-.46-1.48-.326-2.97-.35-4.465-.02-1.286-.003-2.574-.003-3.86h.066c-.313-4.816-.587-9.63-.966-14.436-.1-1.27-.472-2.523-.808-3.762-.25-.927-.758-1.62-1.616-2.26-1.444-1.08-2.88-1.803-4.702-1.712-.526.024-1.085-.02-1.582-.18-.693-.215-1.248-.06-1.806.332-2.016 1.408-4.046 2.795-6.05 4.21-1.064.758-2.165 1.35-3.5 1.494-4.688.516-9.25 1.685-13.83 2.763-2.39.564-4.76 1.256-7.17 1.727-5.993 1.182-11.894 2.677-17.695 4.59-1.93.635-3.884 1.236-5.863 1.644-2.638.54-5.156 1.408-7.665 2.336-1.104.408-2.21.817-3.34 1.146-3.49 1.017-7.04 1.83-10.425 3.18-1.664.66-3.23 1.01-4.512-.79-.34-.482-1.01-.8-1.59-1.046-3.71-1.587-7.11-1.165-9.37 2.21-.522.783-1.005 1.712-1.132 2.624-.336 2.432-.72 4.907-.622 7.343.134 3.308.676 6.597 1.09 9.89.19 1.487.465 2.96.763 4.43.378 1.865 1.477 3.008 3.403 3.388.872.174 1.69.026 2.54.003 2.157-.066 3.984-.525 5.012-2.702.42-.895 1.328-.993 2.24-.767.207.05.412.122.613.19 2.838.96 5.674 1.92 8.51 2.884.505.173 1.013.352 1.493.576.533.243.86.693.757 1.28-.57 3.194-.344 6.413-.366 9.624-.003 1.18 0 2.365-.135 3.53-.338 2.934.195 5.766.985 8.54.508 1.78 1.848 2.87 3.782 2.976 1.28.072 2.57.09 3.85.045 2.897-.107 5.774.09 8.662.3 5.23.375 10.47.554 15.72-.212 1.852-.273 2.69-1.077 2.965-2.713.18-1.045.21-2.125.277-3.187.096-1.6.154-3.204.263-4.802.037-.55.66-.927 1.18-.71 2.08.882 4.278 1.35 6.438 1.974 2.052.59 4.114 1.205 6.07 2.048 2.847 1.227 5.625 2.624 8.394 4.027 1.862.945 4.06 1.375 5.333 3.293.11.163.335.29.533.35 1.884.545 3.442 1.716 5.144 2.612 1.36.718 2.768 1.045 4.28.253.748-.39 1.657-.476 2.42-.85 1.845-.903 3.097-2.27 3.125-4.47.032-2.246.313-4.496-.402-6.705zM21.963 67.127c-.01 1.067-.59 1.775-1.497 2.286-1.18.665-2.148.27-2.336-1.064-.314-2.216-.47-4.456-.855-6.66-.516-2.965-.514-5.95-.548-8.94-.008-.744.036-1.5.156-2.234.173-1.077.813-1.603 1.952-1.722.317-.032.64-.035.958-.068.494-.046.787.194.986.62.77 1.676 1.054 3.468 1.13 5.28.08 2.028.017 4.06.017 6.09h.043c0 2.135.014 4.276-.005 6.41zm46.89 29.594c-1.278.55-2.603.925-4.047.68-1.26-.21-2.535-.33-3.81-.385-2.67-.11-5.34-.096-7.997-.517-1.364-.22-2.786-.05-4.166-.18-1.27-.124-2.54-.345-3.773-.655-.997-.248-1.626-.98-1.834-2.02-.395-1.99-.792-3.976-1.168-5.966-.08-.42-.14-.866-.076-1.28.386-2.552-.026-5.092-.038-7.637-.004-.92.592-1.313 1.495-1.03 1.09.348 1.89.914 1.952 2.204.07 1.38.22 2.76.288 3.595-.212 2.72.185 4.81.77 6.882.188.66.496 1.14 1.135 1.443 1.464.69 2.94 1.283 4.608 1.18.533-.036 1.072.02 1.605-.01 3.333-.19 6.594.377 9.852.956.42.078.834.18 1.26.214.863.072 1.473-.43 1.503-1.27.043-1.174-.038-2.36.075-3.527.067-.72.352-1.436.644-2.11.09-.204.542-.398.794-.362.966.134 1.61.8 1.68 1.653.163 2.018.334 4.042.466 6.062.064.943-.367 1.717-1.216 2.083zM50.245 83.9c0-.752-.015-1.502.002-2.25.035-1.447.664-1.868 2.07-1.304 1.583.636 3.144 1.33 4.703 2.027 1.074.477 2.093 1.104 3.203 1.48 1.547.525 2.254 1.45 2.664 3.1.64 2.55.105 2.28-1.71 2.756-1.092.286-2.367.21-3.494-.017-1.688-.337-3.37-.552-5.088-.544-.316 0-.64-.044-.945-.12-.708-.185-1.355-.894-1.376-1.6-.038-1.175-.014-2.357-.014-3.53h-.016zm50.16 7.14c-.007.42-.115.843-.218 1.255-.128.507-.702.928-1.22.815-.613-.13-1.337-.222-1.778-.605-1.265-1.093-2.754-1.59-4.298-2.065-.912-.282-1.76-.775-2.627-1.195-.49-.24-.516-.54-.11-.987.58-.636 1.217-1.22 1.74-1.893.384-.5.72-1.08.91-1.675.47-1.483-.747-2.92-2.272-2.632-1.468.28-2.91.688-3.776 2.144-.433.728-1.03 1.365-1.594 2.008-.424.485-1.508.23-1.912-.437-.092-.153-.146-.452-.06-.57.44-.603.945-1.157 1.4-1.75.26-.34.478-.715.687-1.085.544-.968.48-1.74-.18-2.334-.662-.594-1.366-.44-2.1-.133-1.624.674-2.965 1.7-4.027 3.1-.193.256-.394.527-.65.7-.096.066-.407-.07-.54-.2-.113-.116-.212-.44-.148-.513.733-.78 1.515-1.515 2.255-2.286.594-.62 1.21-1.226 1.707-1.916.665-.925.017-2.264-1.123-2.466-.99-.175-1.944-.088-2.76.525-.94.704-1.855 1.448-2.734 2.227-.72.637-1.344 1.386-2.066 2.015-.4.352-.84.023-1.11-.272-.165-.18-.267-.677-.145-.82.892-1.07 1.842-2.09 2.78-3.12.43-.476.903-.918 1.308-1.41.395-.484.38-1.292-.016-1.8-.405-.52-.91-.932-1.63-.814-.852.14-1.658.396-2.335.986-1.376 1.195-2.773 2.357-4.154 3.543-.485.42-.9.94-1.43 1.282-.318.203-.8.188-1.206.203-.195.007-.41-.12-.593-.228-.787-.46-1.877-.424-2.33-1.425.66-.53 1.32-1.064 1.982-1.594 1.34-1.074 2.688-2.13 4.005-3.228.405-.337.747-.768 1.07-1.192.516-.674.553-1.468.146-2.097-.496-.762-1.32-1.07-2.227-.72-3.467 1.335-6.478 3.307-8.717 6.334-.716.964-.724.964-1.787.512-.59-.254-1.18-.514-1.756-.796-.768-.37-.752-.843.043-1.365.806-.533 1.67-.98 2.422-1.582.38-.31.685-.84.81-1.32.332-1.315-.598-2.42-1.917-2.278-.727.08-1.493.262-2.133.602-1.318.705-2.677 1.415-3.808 2.367-1.49 1.253-2.89 1.184-4.42.274-.366-.212-.724-.453-1.04-.735-.086-.075-.07-.445.02-.508 1.222-.86 2.468-1.685 3.707-2.524.53-.36 1.093-.682 1.56-1.11.418-.38.516-.94.3-1.483-.227-.57-.74-.812-1.29-.694-.717.153-1.46.354-2.096.702-1.5.82-3.032 1.637-4.395 2.662-1.217.91-2.284.904-3.507.183-.262-.158-.62-.153-.92-.254-.57-.197-.594-.388-.12-.882 1.412-1.467 2.82-2.938 4.235-4.405.147-.157.305-.304.448-.46.38-.407.64-.858.495-1.444-.123-.512-.717-.796-1.602-.71-2.987.293-5.568 1.465-7.683 3.616-.15.147-.24.352-.378.515-1.96 2.33-3.578 2.16-5.73.253-.445-.398-.71-1.05-.924-1.635-.177-.485-.232-1.052-.208-1.58.114-2.562.245-5.13.448-7.69.024-.32.465-.798.785-.868 5.32-1.184 10.658-2.295 15.983-3.462 4.598-1.008 9.116-2.317 13.595-3.758.715-.23 1.432-.597 2.155-.602 2.4-.02 4.628-.796 6.882-1.445 5.87-1.692 11.86-2.8 17.862-3.872 3.053-.543 6.084-1.207 9.14-1.72 1.4-.234 2.69-.65 3.89-1.403.447-.282.948-.494 1.444-.675.864-.315 1.52.102 1.565.975.02.427.002.858.002 1.286h.02c0 .214.036.436-.005.645-.813 4.245-.402 8.54-.514 12.81-.117 4.29-.128 8.58-.11 12.87.02 4.61.082 9.223.21 13.836.065 2.35.383 4.694.466 7.047.075 2.138-.007 4.284-.047 6.43zm11.563 5.925c-.01.518-.184 1.054-.38 1.543-.25.62-1.28 1.102-1.9.87-.692-.258-1.37-.597-2.015-.962-.507-.288-.713-.794-.627-1.373.416-2.788-.183-5.53-.365-8.29-.066-1.064-.26-2.125-.297-3.192-.192-5.35-.587-10.684-1.177-16.002-.096-.85-.04-1.714-.047-2.573-.07-7.716-.106-15.435-.236-23.147-.034-2.133-.347-4.26-.544-6.39-.16-1.74.13-3.415.69-5.055.37-1.09 1.076-1.8 2.244-2.062.437-.097.81-.17 1.216.07.464.273.94.522 1.42.763.656.328.884.896.898 1.575.026 1.07.032 2.142.032 3.215.004 4.07.002 8.14.002 12.21h.135c0 2.25-.014 4.505.003 6.754.025 3.847-.073 7.68.29 11.543.412 4.362.207 8.78.25 13.174.03 3.21.024 6.41.383 9.62.288 2.538.068 5.137.025 7.708z"/></svg>