<svg xmlns="http://www.w3.org/2000/svg" width="128" height="128" viewBox="0 0 128 128"><path d="M118.334 32.136c-.242-1.3-1.308-2.06-2.63-1.874-.755.107-1.566.46-2.248.29-1.963-.486-3.934-.243-5.892-.31-7.127-.236-14.253-.468-21.382-.575-5.374-.08-10.75.12-16.12.198-13.938.2-27.88.107-41.822.107-1.312 0-2.622-.26-3.934-.258-2.71.006-5.458-.74-8.134.346-.22.088-.644-.088-.857-.273-.322-.28-.506-.712-.814-1.013-.59-.573-1.443-.448-2.025.18-.655.708-.734 1.556-.734 2.45.005 5.926-.025 11.853.03 17.778.013 1.525.347 3.046.426 4.576.322 6.353.604 12.704.898 19.058.015.33.02.658.043.987.198 3.612.397 7.22.597 10.833l-.28.007c0 2.635.014 5.27-.006 7.904-.006.994-.104 1.977.875 2.654.416.29.213.77.245 1.194.12 1.733.518 2.2 2.02 2.5.642.13 1.3.21 1.952.222 4.17.072 8.34.11 12.51.174 1.445.02 2.868-.144 4.198-.68 1.152-.467 2.31-.57 3.53-.564 5.16.025 10.32.002 15.478 0 12.07 0 24.142-.164 36.206.41.768.035 1.536.007 2.304-.03 1.643-.08 3.28-.213 4.923-.27 2.522-.095 5.05-.063 7.57-.23 2.73-.182 5.454-.493 8.172-.83.987-.126 1.993-.444 1.915-1.804 1.222-1.59 1.222-3.462 1.227-5.328.01-1.864.06-3.733-.043-5.595-.385-7.136-.255-14.268-.03-21.4.02-.66.012-1.322.084-1.974.62-5.446.984-10.912 1.253-16.384.064-1.312.306-2.613.36-3.923.11-2.63.148-5.265.206-7.896.006-.22-.027-.44-.066-.656zm-8.246 15.66c-.032.988-.064 1.974-.075 2.962-.1 9.11-.168 18.217-.3 27.324-.042 3.18-.226 6.353-.358 9.528-.037.88-.23 1.075-1.148 1.287-.64.15-1.28.337-1.93.398-3.384.307-6.777.516-10.152.875-8.313.88-16.65.725-24.986.725-.976 0-1.99-.043-2.916-.315-2.283-.675-4.55-.496-6.846-.203-5.88.745-11.773 1.166-17.706.67-1.856-.156-3.725-.162-5.59-.19-4.17-.058-8.34-.09-12.508-.125-1.312-.01-2.584-.043-3.83.644-.95.523-1.673-.066-1.722-1.18-.233-5.365-.452-10.733-.676-16.098l.1-.007c0-3.51.076-7.022-.024-10.53-.08-2.845-.516-5.68-.54-8.524-.054-6.363.044-12.728.095-19.09.007-.826.388-1.185 1.22-1.177 1.756.016 3.527-.067 5.264.14 3.827.46 7.666.356 11.5.45 3.84.09 7.688.003 11.52.19 15.245.747 30.498.352 45.743.67 4.934.1 9.864.25 14.797.385 1.137.032 1.43.28 1.4 1.338-.088 3.283-.222 6.57-.33 9.856zM71.586 60.19c-1.088-.53-2.148-1.033-3.38-1.177-.708-.08-1.208-.717-1.17-1.385.108-1.854.246-3.71.447-5.554.08-.725.752-1.12 1.458-.917.73.21 1.42.553 2.14.795.61.206 1.233.416 1.868.51.693.103 1.264-.48 1.31-1.155.095-1.464-.438-2.584-1.793-3.21-.688-.32-1.42-.687-2.155-.758-2.482-.24-2.287-.917-1.807-3.087.14-.637.338-1.277.352-1.92.01-.397-.238-.82-.445-1.193-.27-.48-1.152-.468-1.37.005-.645 1.394-1.132 2.835-1.334 4.367-.056.42-.16.91-.427 1.2-.25.274-.734.413-1.124.435-.146.008-.453-.474-.46-.738-.042-1.645.033-3.29-.03-4.933-.033-.745-.204-1.515-.488-2.2-.12-.288-.678-.49-1.068-.553-.448-.075-.88.187-.97.672-.268 1.395-.497 2.8-.71 4.203s-.44 2.81-.565 4.225c-.087.974-.54 1.596-1.344 2.1-2.26 1.412-3.94 3.47-5.825 5.298-.97.943-1.53 2.12-1.552 3.518-.02 1.297.544 2.09 1.82 2.335 1.292.245 2.597.405 3.89.637 1.164.207 1.302.478 1.153 1.828-.107.977-.17 1.958-.252 2.94l.098.006c-.08 1.312-.13 2.628-.25 3.936-.075.843-.78 1.355-1.643 1.177-1.387-.284-2.776-.548-4.005-1.354-.528-.344-1.2-.49-1.826-.646-.487-.12-1.046.32-1.264.838-.275.656-.235 1.285.128 1.886 1.195 1.98 3.093 3.067 5.16 3.85.885.334 2.204-.097 2.677.876.4.816.25 1.91.306 2.882.045.79.254 1.493.74 2.133.822 1.067 2.32 1.107 3.08.02.307-.442.592-.942.713-1.454.272-1.163.424-2.353.66-3.526.034-.18.307-.493.364-.47.288.115.578.285.8.502.136.14.22.405.207.606-.123 1.91 1.01 3.297 1.957 4.758.192.294.648.28.766-.018.158-.405.395-.81.427-1.23.115-1.42.23-2.844.2-4.264-.022-1.042.404-1.613 1.305-2.016 1.5-.678 2.876-1.55 4.166-2.597 2.48-2.016 3.483-6 2.078-8.9-.698-1.433-1.547-2.572-3.01-3.28zm-13.41-2.587c-.18.206-.525.27-.747.373-.39-.082-.71-.113-1-.227-.127-.053-.287-.375-.26-.4.59-.59 1.195-1.167 1.826-1.71.064-.054.433.08.465.185.19.627.16 1.27-.285 1.777zm4.847 12.642c-.053.092-.128.168-.192.253-.08-.14-.237-.282-.23-.418.014-.42.09-.843.173-1.496-.018-.176-.094-.595-.078-1.01.005-.102.303-.206.48-.276.034-.017.166.107.192.187.324.974.153 1.89-.343 2.763zm.314-6.848c-.04-.18-.102-.363-.113-.544-.002-.066.115-.14.177-.21.053.082.158.176.14.243-.037.176-.13.34-.202.51zm.522-6.234c-.034.085-.19.206-.237.187-.136-.056-.338-.17-.343-.27-.033-.54-.015-1.083-.015-1.624-.08-1.293-.262-2.615.587-3.755.06-.08.185-.164.27-.156.073.005.18.14.192.228.24 1.83.22 3.64-.456 5.392zm6.48 10.757c-.493.67-1.28 1.18-2.027 1.6-.774.432-1.237.06-1.28-.826-.04-.87-.008-1.745-.017-2.62H67c0-.543.016-1.09 0-1.636-.075-2.566.672-1.982 2.283-1.27 2.338 1.03 2.544 2.725 1.058 4.752zm30.054 7.05c-2.187.028-4.38 1.845-4.956 4.124-.213.848-.405 1.704-.567 2.564-.287 1.49.573 3.467 1.89 4.262 2.643 1.6 5.105 1.003 7.38-.613 1.857-1.32 2.556-4.162 1.735-6.515-.925-2.64-2.673-3.858-5.483-3.822zm.79 6.616c-.73.032-1.087-.145-1.19-.64-.13-.624.143-1.184.612-1.333.555-.176 1.22.433 1.144 1.19-.032.323-.435.608-.57.783zM29.117 46.578c.286-.333.57-.67.835-1.017 2.016-2.613 1.672-6.1-.837-8.237-.315-.267-.784-.54-1.163-.514-1.525.1-3.125.144-4.442.97-2.746 1.722-4.35 5.78-2.433 9.263.4.728 1.018 1.156 1.76 1.38.517.155 1.083.145 1.29.17 2.21.07 3.766-.59 4.993-2.015zm-3.205-2.997c-.512.133-1.056-.677-.93-1.402.046-.256.325-.587.573-.676.54-.19 1.18.52 1.173 1.452-.195.158-.47.544-.817.63zm72.865 24.133c1.48-.33 2.418-1.426 3.326-2.52.444-.533.557-1.17.243-1.835-.34-.72-1.06-1.18-1.856-1.053-.635.105-1.28.282-1.858.555-.672.32-1.203.242-1.82-.148-1.126-.712-2.284-.584-3.402.082-.466.277-.915.587-1.39.853-.436.248-.956-.032-.908-.482.034-.324.12-.642.267-1.36-.136-.582-.29-1.54-.59-2.454-.202-.623-.96-.986-1.61-.85-2.15.443-3.7 1.762-4.9 3.52-.42.612.11 1.62.887 1.775.31.064.648.043.97.018.612-.05 1.11-.01.902.82-.23.926.002 1.735.625 2.43.624.693 1.506.867 2.355 1.03.406.075.87-.02 1.28-.144.83-.25 1.63-.616 2.47-.846.383-.107.927-.156 1.226.037 1.2.764 2.46.87 3.78.574zm-54.728-7.52c-.865-1.21-2.174-1.518-3.457-.804-.66.365-1.22.903-1.824 1.366-.694.53-1.06.37-1.33-.58-.177-.626-.288-1.28-.54-1.876-.725-1.71-2.34-2.348-4.037-1.648-1.928.795-3.467 3.096-3.445 5.43.12.263.312.763.575 1.223.224.4.867.456 1.133.128.542-.674 1.056-1.374 1.61-2.037.287-.34.947-.206 1.068.192.245.832.437 1.678.725 2.494.557 1.58 2.814 2.677 4.656 1.675.565-.31 1.063-.74 1.58-1.134.394-.302.773-.346 1.153 0 .48.44.916.944 1.44 1.318.913.657 2.39.064 2.563-1.062.096-.615.08-1.35-.17-1.9-.452-.98-1.07-1.9-1.704-2.785zM28.783 74.638c-2.048.928-3.953 3.072-3.858 6.535.105.38.337 1.323.63 2.25.206.656.674 1.098 1.35 1.302.623.19 1.236.424 1.87.572 1.864.432 4.126-.506 5.062-2.163.422-.747.64-1.61.992-2.4.832-1.85.136-3.403-.957-4.846-.95-1.253-3.654-1.9-5.09-1.25zm1.52 6.724c-.318.162-.827.112-1.184-.018-.22-.08-.315-.495-.41-.663-.003-1.024.17-1.873 1.07-2.275.338-.15.834-.13 1.188 0 .208.075.367.514.395.804.088.916-.22 1.723-1.06 2.154zm69.817-30.44c1.077.193 3.095-.528 3.46-1.36.43-.98.708-2.03 1-2.896-.22-.853-.394-1.48-.54-2.112-.25-1.054-.86-1.73-1.936-1.973-.315-.07-.608-.233-.924-.32-2.2-.614-4.108.59-4.54 2.86-.04.214-.067.43-.106.646-.484 2.75.856 4.678 3.587 5.158z"/></svg>