<svg xmlns="http://www.w3.org/2000/svg" width="128" height="128" viewBox="0 0 128 128"><path d="M118.39 41.582c-.022-.535-.125-1.16-.423-1.573-1.177-1.615-2.39-3.216-4.344-4.006-3.107-1.25-6.296-2.155-9.675-2.182-3-.028-6.003-.02-9.003-.002-.773.003-1.566.024-2.315.193-3.672.825-7.39 1.525-10.752 3.36-.617.337-.875.196-.917-.42-.073-1.106-.08-2.22-.16-3.327-.1-1.326-.253-2.648-.376-3.97-.077-.86-.558-1.656-1.295-1.782-1.548-.267-2.53-1.333-3.636-2.208-1.17-.936-2.502-1.443-3.9-1.768-.98-.224-1.9-.456-2.784-.997-2.127-1.31-4.46-1.932-6.988-1.73-.44.033-.888.003-1.09.003-2.576-.037-4.88.142-7.203.494-3.49.528-6.594 1.827-9.488 3.797-1.42.965-2.49 2.133-3.145 3.757-.34.844-.608 1.646-.634 2.55-.034 1.11-.056 2.225-.186 3.328-.54 4.536-.546 9.067.008 13.614.384 3.137.587 3.15-2.792 3.1-3.952-.055-7.362 1.375-10.415 3.773-1.132.888-2.205 1.845-3.33 2.737-1.22.964-2.454 1.902-3.702 2.827-3.012 2.236-4.493 5.43-5.5 8.89-.558 1.912-.986 3.867-1.428 5.81-.37 1.62-.79 3.243-.98 4.885-.268 2.315-.383 4.634.392 6.916 1.187 3.516 2.845 6.706 5.765 9.12.597.494 1.126 1.084 1.596 1.697.556.725 1.3 1.177 1.99 1.726 2.456 1.984 5.28 3.232 8.146 4.45 4.102 1.745 8.413 2.278 12.717 1.7 5.403-.72 10.162-3.086 13.874-7.22.622-.696 1.273-.833 2.066-.594 3.872 1.164 7.838 1.34 11.853 1.317 1.947-.008 3.774-.258 5.395-1.312 1.017-.665 1.71-.636 2.548.284.465.515 1.402.26 1.745-.327.277-.472.542-.984.65-1.51.13-.645.084-1.323.13-1.99.068-1.013.38-1.295 1.206-.99 3.13 1.17 6.3 2.107 9.69 2.065.325-.002.65.173.977.192.997.055 2.014.21 2.992.087 2.745-.344 5.537-.587 8.205-1.278 4.507-1.17 8.4-3.44 11.123-7.394.778-1.13 1.297-2.34 1.273-3.712-.022-1.33-.132-2.66-.234-3.985-.06-.774-.216-1.54-.253-2.31-.348-7.565.238-15.104.693-22.644.117-1.99.352-3.98.617-5.955.16-1.204.315-2.45.764-3.562.516-1.3.578-2.598.532-3.923zm-71.33-9.234c.464-2.064 1.417-3.657 3.707-4.188 3.006-.693 5.95-1.723 8.98-2.25 2.268-.4 4.636-.32 6.956-.292 1.967.02 3.59 1.024 4.975 2.35.365.353.57.937.69 1.452.124.528.02 1.104.078 1.65.093.89-.258 1.51-1.067 1.845-1.018.423-2.035.867-3.09 1.187-4.333 1.308-8.756 2.227-13.23 2.927-.65.1-1.324.07-1.984.105-1.595.096-3.078-.23-4.433-1.102-1.394-.9-1.936-2.094-1.584-3.684zm-5.1 51.428c.08-.478.497-.693.963-.512.235.092.397.363.55.512-.245.59-.58.867-1.038.683-.227-.09-.512-.48-.477-.685zm12.266 5.157c-1.797 4.397-4.96 7.573-9.474 9.267-.604.228-1.286.267-1.938.334-.12.01-.408-.35-.377-.416.693-1.36.555-2.787.437-4.238-.058-.736-.66-1.59.035-2.212.454-.42 1.185-.523 1.763-.818 1.297-.656 2.426-1.525 3.488-2.53 1.83-1.73 1.91-3.89 1.676-6.12-.192-1.82-1.365-2.977-2.918-3.8-1.392-.73-2.87-1.15-4.428-1.358-.96-.13-1.12-.432-1.11-1.624 0-.523-.06-1.126.177-1.536.153-.26.81-.21 1.215-.357.623-.23 1.26-.463 1.824-.793.362-.21.703-.557.906-.924.977-1.784.163-3.955-1.745-4.593-.835-.28-1.733-.38-2.602-.57-.478-.102-.784-.41-.81-.895-.05-.888.044-1.795-.108-2.66-.105-.62-.43-1.252-.815-1.758-.5-.664-1.29-.913-2.096-.65-2.166.7-2.687 1.324-2.59 3.266.028.555-.037 1.114.01 1.667.148 1.693-.187 2.997-2.007 3.74-.865.35-1.6 1.2-2.206 1.97-1.286 1.643-1.308 3.486-.403 5.323.9 1.82 2.25 3.298 3.814 4.565.633.517 1.07 1.088 1.293 1.867.324 1.156.044 1.87-1.06 2.462-.48.26-1.018.434-1.467.743-1.43.99-1.448 3.494.173 4.565.91.602 2.26.552 2.773 1.65.413.89.522 1.918.803 2.87.125.424.436.8.51 1.225.147.81 1.553 1.37.798 2.2-.654.717-1.675-.1-2.51-.26-3.547-.684-6.735-2.154-9.405-4.634-1.297-1.203-2.562-2.45-3.823-3.694-.813-.804-1.24-1.817-1.453-2.933-.372-1.957-.826-3.906-1.102-5.88-.166-1.183-.06-2.412-.078-4 .254-1.726.482-3.82.88-5.886.736-3.842 3.093-6.528 6.33-8.54 1.228-.758 2.476-1.486 3.685-2.265 5.854-3.783 11.874-3.796 18-.778 2.21 1.09 4.225 2.592 5.82 4.405 1.98 2.24 3.49 4.837 3.365 8.08-.217 5.692-1.1 11.257-3.253 16.53zm-.087-31.957c-.62-.045-1.215-.515-1.807-.816-1.882-.95-3.752-1.92-5.632-2.866-1.027-.515-1.295-.945-1.015-1.74.312-.88.86-1.254 1.794-1.02 3.38.854 6.826.815 10.267.773 2-.02 3.996-.158 5.995-.267 1.803-.1 3.442-.79 5.093-1.45 1.225-.49 1.968-1.334 2.315-2.616.287-1.067-.207-2.033-1.295-2.223-.322-.054-.66-.073-.984-.034-5.837.747-11.69 1.27-17.58 1.024-1.545-.065-3.086-.33-4.615-.563-.816-.126-1.035-.47-1.105-1.397-.033-.444-.038-.89-.03-1.333.018-.888.365-1.166 1.212-1.035 2.955.476 5.913.954 8.92.98 6.28.06 12.408-.62 18.09-3.583.608-.316 1.136-.013 1.16.64.038 1.11.043 2.22.05 3.33.02 2.334-.033 4.666.462 6.973.183.858.14 1.77.142 2.66.016 3.333.007 6.666.007 10h.05c0 2.444-.02 4.893.012 7.337.027 2.44-.017 4.886.533 7.3.166.748.14 1.543.166 2.32.004.206-.114.417-.175.625-.167-.053-.39-.053-.493-.168-.986-1.088-2.28-1.295-3.645-1.28-2.11.027-4.22.105-6.33.112-1.052 0-1.396-.38-1.4-1.397-.005-.555.01-1.114.047-1.666.052-.9.284-1.154 1.176-1.28 1.21-.163 2.42-.334 3.637-.437 1.14-.098 2.208-.444 3.072-1.154.57-.472 1.01-1.156 1.362-1.824.382-.73-.203-1.645-1.013-1.715-1.003-.093-1.956.064-2.94.365-1.364.42-2.796.66-4.212.88-.853.127-1.485-.297-1.785-1.164-.693-1.995-1.49-3.94-2.78-5.65-.43-.564-.173-1.023.603-1.057 2.39-.1 4.53-1 6.64-1.995 1.444-.676 2.596-1.685 3.452-3.03.38-.596.16-1.394-.453-1.706-.807-.41-1.63-.71-2.56-.467-1.607.418-3.234.753-4.82 1.237-3.174.96-6.388.61-9.59.375zM76.24 93.5c-.757.012-1.59.016-2.26.32-1.894.86-3.87.837-5.868.805-.442-.007-.885 0-1.328 0l-.003.064c-1.77-.116-3.54-.188-5.3-.36-.96-.09-1.26-.76-.874-1.68.085-.202.207-.394.28-.6.214-.603.65-.897 1.264-.817.653.083 1.298.258 1.948.38 3.456.65 6.84.385 10.14-.83 1.17-.43 1.554-1.04 1.517-2.273-.04-1.232-.6-1.97-1.756-1.994-1.207-.023-2.43.06-3.62.26-1.74.287-3.447.79-5.19 1.083-3.25.544-2.79.44-2.045-2.607.075-.306.637-.678.985-.693 1.104-.05 2.215.09 3.325.09 1.328-.004 2.66-.052 3.986-.133 1.254-.075 2.34-.597 3.337-1.352 1.62-1.23 1.744-1.232 1.917.926.23 2.87.267 5.758.354 8.638.01.442-.205.768-.804.774zm34.918-6.23c-2.955 1.697-5.707 3.823-9.136 4.575-.324.07-.654.128-.984.146-2.322.13-4.644.244-7.326.38-2.076-.15-4.544-.12-6.923-.576-1.695-.324-3.28-1.265-4.88-2.005-.918-.425-1.21-1.24-1.006-2.227.088-.427.147-.866.296-1.27.054-.146.357-.323.502-.292 1.08.236 2.138.568 3.22.77 2.065.377 4.13.796 6.214 1.01 5.344.552 10.26-1.167 15.134-3.036 1.69-1.568 3.26-.69 4.813.25.76.463.875 1.817.075 2.277zm-29.47-27.825c-.02-.555.31-.768.86-.528 4.684 2.048 5.435 1.593 11.065 1.715 2.485.053 4.864-.325 7.19-1.122 1.985-.68 3.96-1.412 5.922-2.16.506-.195 1.013-.476 1.405-.84.277-.268.448-.728.495-1.12.045-.366-.913-.786-1.385-.56-2.385 1.152-4.987.883-7.496 1.244-2.987.427-5.98.352-8.966.57-3.002.223-5.656-.9-8.36-1.88-.327-.122-.7-.644-.717-.996-.073-1.547-.032-3.1 0-4.65 0-.103.293-.287.445-.278.205.008.43.125.602.26 1.934 1.512 4.218 1.912 6.566 1.972 3.548.082 7.09.218 10.624-.445 3.157-.592 6.35-.968 9.53-1.422.435-.064.885-.06 1.33-.067.444-.01.865.384.81.825-.15 1.205-.39 2.402-.514 3.612-.283 2.752-.992 5.466-.835 8.264.043.764-.338 1.235-1.094 1.427-2.25.576-4.47 1.338-6.752 1.713-2.73.45-5.51.575-8.255.84-2.565-.25-5.102-.466-7.632-.76-1.52-.173-3.026-.476-4.537-.72-.723-1.593-.233-3.263-.3-4.895zm29.252 12.643c-.318.69-.832 1.29-1.295 1.905-.093.125-.354.216-.51.183-1.65-.336-3.262.515-4.574.16l-10.91-.55c-.44-.02-.88-.058-1.325-.055-2.888.028-5.746-.17-8.494-1.176-.602-.222-1.532-.147-1.804-.552-.378-.558-.306-1.44-.367-2.188-.024-.314.063-.656.187-.95.064-.143.388-.335.48-.287 2.116 1.106 4.437 1.136 6.723 1.465 1 .144 1.922.25 2.927.053.968-.192 1.98-.18 2.976-.192 1.884-.015 3.765 0 5.647.033 2.45.04 4.864-.156 7.18-1.032.206-.077.41-.178.62-.215.96-.187 1.77.14 2.357.887.602.768.558 1.696.183 2.517zm-28.655 4.776c2.424 1.26 5.045 1.445 7.71 1.744 3.54.4 7.072.422 10.613.45 2.36.022 4.62-.32 6.688-1.562.56-.337 1.227-.49 1.837-.745.538-.224.54.274.57.497.066.544.02 1.103.02 1.656l.073.002c-.028.555.002 1.116-.105 1.658-.05.256-.233.7-.68.496-1.06-.49-2.065-.38-3.202-.113-4.903 1.147-9.9 1.07-14.886.845-1.868-.087-3.762-.322-5.58-.756-1.244-.3-2.387-1.045-3.555-1.628-.15-.078-.252-.37-.274-.573-.045-.437-.042-.883-.025-1.323.015-.557.387-.864.8-.65zm29.422-34.32c-1.043.363-2.08.776-3.152 1.01-6.608 1.457-13.274 2.35-20.07 2.2-2.564-.053-4.773-.795-6.77-2.312-.165-.126-.244-.36-.37-.544.25-.09.492-.22.748-.26.975-.165 2.03-.113 2.912-.478 4.797-1.99 9.763-2.807 14.933-2.49.218.012.44 0 .663 0v.005c1.775 0 3.546.002 5.32-.002 1.46-.002 2.875.253 4.216.805.594.245 1.127.663 1.653 1.05.42.302.37.86-.08 1.013z"/></svg>