<svg xmlns="http://www.w3.org/2000/svg" width="128" height="128" viewBox="0 0 128 128"><path d="M123.334 42.008c.412-3.266.625-6.494.043-9.752-.112-.616-.01-1.267-.01-1.9-.004-.636-.022-1.268-.02-1.903 0-1.167-.592-2.005-1.5-2.64-.786-.55-1.644-.908-2.612-1.068-1.14-.186-2.32-.36-3.376-.795-2.11-.864-4.27-1.086-6.513-1.077-6.552.023-13.106.075-19.66-.043-4.005-.067-8.03-.23-12.005-.72-2.743-.34-5.463-.416-8.206-.424-5.39-.015-10.78-.005-16.17-.003-.737 0-1.507-.114-2.214.043-2.51.555-5.048.333-7.575.405-3.38.098-6.778 0-10.138.31-2.945.276-5.874.607-8.838.63-.814.008-1.66.303-2.424.62-1.06.44-1.67 1.334-1.646 2.486s.21 2.304.333 3.454c.113 1.04.277 2.08.348 3.124.043.63-.345 1.018-.928 1.024-1.056.008-2.114-.075-3.166-.014-1.397.08-2.364.955-2.637 2.317-.102.514-.11 1.047-.125 1.574-.025.845 0 1.69-.037 2.535-.034.833-.345 1.14-1.11 1.245-1.25.174-2.5.35-3.745.555-.666.11-1.163.532-1.483 1.098-.31.544-.587 1.127-.76 1.728-.905 3.1-1.038 6.264-.248 9.376.656 2.58 1.02 5.148.928 7.813-.18 5.064-.048 10.13-.465 15.2-.32 3.888-.177 7.816-.287 11.725-.047 1.685-.253 3.364-.323 5.05-.107 2.533-.154 5.07-.23 7.605-.022.73.3 1.187 1.01 1.397.503.15.988.36 1.492.512 3.654 1.1 7.42 1.555 11.207 1.87 1.262.107 2.556-.004 3.794.216 2.31.416 4.628.397 6.95.397 9.51.003 19.025 0 28.538 0v.038c8.88 0 17.757-.05 26.636.02 4.344.038 8.643-.488 12.962-.73.732-.042 1.454-.244 2.176-.398 1.37-.292 1.426-.32 1.525-1.564.135-1.683.183-3.37.316-5.056.066-.86.337-1.075 1.2-1.112.738-.034 1.484.01 2.218-.064 2.678-.275 5.25-.782 6.694-3.46.05-.09.14-.164.216-.23.813-.658 1.02-1.568 1.054-2.547.016-.422-.014-.848.02-1.27.076-.916.45-1.334 1.443-1.27 2.034.124 3.985-.306 5.94-.73.857-.182 1.253-.64 1.296-1.556.088-1.9.166-3.803.156-5.707-.054-10.56-.145-21.126-.2-31.687-.013-2.22-.13-4.46.145-6.65zM98.022 61.724h-.228c0 2.746.122 5.5-.02 8.24-.452 8.55-.38 17.104-.452 25.66-.013 1.38-.037 1.386-1.33 1.684-.615.145-1.23.325-1.856.384-3.046.288-6.1.472-9.14.816-5.68.64-11.387.587-17.086.74-.946.027-1.888.242-2.834.26-2.627.057-5.28.3-7.803-.752-1.232-.514-2.496-.27-3.755-.14-1.57.163-3.138.4-4.715.475-4.427.21-8.853.785-13.286.43-5.906-.478-11.82-.338-17.73-.445-.963-.018-1.848.032-2.763.442-.627.28-1.43.203-2.155.203-.723.002-1.097-.446-1.33-1.124-.385-1.116-.517-2.248-.57-3.418-.08-1.792-.274-3.576-.374-5.365-.128-2.307.07-4.6.277-6.9.2-2.198.224-4.417.245-6.627.02-2.005.052-3.994.295-5.998.267-2.187.145-4.39-.162-6.62-.724-5.223-1.23-10.484-1.055-15.78.043-1.234.282-1.514 1.51-1.48 4.22.115 8.436.274 12.658.414.845.028 1.69.053 2.534.066 4.86.06 9.72.09 14.58.18 8.34.156 16.683.383 25.024.51 8.345.128 16.694.15 25.04.264 1.896.028 3.79.227 5.683.373.466.036.764.36.775.834.026.947.014 1.9.014 2.85v9.823zm8.542 30.21c-.8.22-1.675.193-2.52.196-.442.002-.792-.31-.84-.78-.063-.628-.06-1.264-.07-1.898-.06-3.275-.067-6.552-.185-9.824-.207-5.59-.32-11.194-.774-16.766-.49-6.016-.38-12.03-.42-18.046-.013-2.128-.02-2.06-2-2.275-9.056-.98-18.15-.51-27.227-.7-4.964-.102-9.93-.017-14.898-.017v.114h-35.19c-.846 0-1.69.005-2.534-.026-1.11-.037-1.44-.383-1.476-1.572-.02-.74-.002-1.48.035-2.22.042-.834.348-1.138 1.136-1.187.107-.007.21-.01.317-.01 6.758-.017 13.522-.16 20.277-.005 4.107.092 8.2.64 12.297.986.316.028.63.094.944.11 5.274.24 10.544.587 15.82.69 6.126.12 12.256-.04 18.385.043 6.13.08 12.235-.542 18.357-.653.527-.01 1.056-.05 1.584-.05.62 0 1.088.416.97.943-.564 2.517-.298 5.016-.024 7.548.203 1.877.13 3.808-.053 5.69-.494 5.06-.58 10.11.06 15.16.04.315.068.633.08.948.278 6.75.577 13.498.82 20.25.117 3.28.046 2.562-2.88 3.36zm12.334-58.657c-.015 7.712-.004 15.427-.004 23.14h-.094c0 7.926.02 15.852-.01 23.775-.012 2.9-.116 2.95-3.084 2.955-.866 0-1.184-.245-1.233-1.058-.222-3.583-.452-7.165-.63-10.75-.16-3.265.028-6.55-.59-9.79-.225-1.174.012-2.254.66-3.317.836-1.37 1.11-2.85.78-4.53-.483-2.476-.492-5.055-1.065-7.504-.655-2.79-.318-5.676-1.067-8.44-.12-.454.117-1.015.226-1.515.258-1.195-.224-2.15-1.316-2.426-.505-.127-1.043-.156-1.566-.156-4.333-.002-8.665-.02-12.996.043-1.685.025-3.362.264-5.045.39-1.053.08-2.11.18-3.163.18-9.086-.006-18.176.16-27.258-.126-5.06-.16-10.133-.25-15.185-.626-3.168-.235-6.322-.382-9.488-.26-2.53.095-5.053.368-7.583.447-3.976.126-3.49.543-3.552-3.47-.008-.53-.046-1.055-.043-1.582.006-.777.31-1.057 1.195-1.103 1.582-.08 3.174-.073 4.75-.23 7.252-.725 14.527-.567 21.797-.576 4.755-.008 9.51.072 14.266-.027 3.615-.075 7.14.576 10.703.947.315.033.62.152.933.172 3.685.24 7.367.597 11.056.67 5.81.112 11.622.053 17.436.01 1.225-.01 2.242.13 3.022 1.223.442.622 1.218.768 2 .755 1.163-.02 2.325.035 3.486.002 2.717-.077 2.667-.31 2.66 2.776zM61.62 70.405c-1.044-.467-1.958-1.182-3.207-1.2-.74-.006-1.096-.534-1.123-1.273-.028-.736-.005-1.477-.005-2.216h.17c0-.95-.044-1.902.015-2.848.056-.932.937-1.443 1.856-1.1.69.26 1.328.673 2.03.884.587.175 1.227.203 1.845.203.45.002.94-.706.898-1.15-.18-1.724-1.203-2.86-2.928-3.26-.816-.19-1.636-.366-2.435-.608-.45-.14-.64-.54-.544-1 .194-.93.484-1.844.606-2.78.062-.486-.117-1.02-.256-1.508-.046-.16-.314-.375-.467-.365-.283.017-.698.1-.81.294-.674 1.2-1.12 2.49-1.21 3.88-.038.65-.195 1.233-.732 1.677-.314.26-.907.242-1.116-.09-.413-.65-.544-1.317-.352-2.105.332-1.34.404-2.71.095-4.08-.245-1.082-.58-1.505-1.257-1.573-.72-.073-.987.223-1.18 1.47-.354 2.29-.725 4.577-.994 6.88-.107.924-.48 1.527-1.23 2.063-1.8 1.29-3.498 2.71-5.04 4.313-.9.936-1.557 1.992-1.924 3.22-.46 1.548.292 2.71 1.897 2.993 1.244.215 2.495.4 3.73.67.67.147 1.124.83.9 1.443-.454 1.235-.34 2.496-.393 3.755-.043 1.052-.113 2.107-.228 3.152-.065.587-.85 1.138-1.428.964-1.205-.363-2.377-.83-3.573-1.23-.69-.23-1.388-.48-2.1-.594-.43-.066-.786.28-.898.725-.325 1.277.184 2.293 1.13 3.085 1.558 1.297 3.25 2.332 5.342 2.57.853.102 1.088.45 1.134 1.234.043.736-.064 1.504.107 2.208.17.688.5 1.394.945 1.94.69.847 2.212.633 2.69-.32.613-1.217 1.238-2.425.817-3.89-.16-.555.34-1.14.786-1.136.452.002.854.45.954 1.067.017.107.02.21.02.318-.076 1.846 1.134 3.105 2.06 4.49.023.038.38-.045.416-.134.654-1.712.7-3.513.643-5.31-.03-.957.245-1.575 1.186-1.964 1.567-.65 2.918-1.636 4.202-2.773 1.737-1.54 2.443-3.445 2.234-5.653-.213-2.264-.928-4.3-3.27-5.344zM48.81 67.83c-.364.465-.9.362-1.358.087-.128-.077-.272-.36-.224-.462.36-.76.94-1.287 1.803-1.376.128-.016.28.224.454.38-.226.48-.373.98-.674 1.367zm4.718 12.15c-.045.084-.177.22-.203.206-.13-.066-.26-.16-.344-.277-.05-.074-.04-.205-.034-.31.018-.526-.053-1.08.085-1.573.46-1.63.593-3.282.53-4.962-.004-.085.107-.176.16-.264.107.1.3.198.304.3.025.843.014 1.685.014 2.528-.14 1.46.228 2.962-.51 4.35zm1.333-16.37c-.01.313-.035.624-.08 1.363-.05.4-.115 1.23-.286 2.042-.05.235-.395.413-.604.617-.07-.177-.19-.35-.204-.53-.096-1.44-.456-2.896.227-4.287.08-.163.38-.395.43-.363.203.13.397.326.5.544.08.17.025.408.018.615zm5.6 13.844c-.603.698-1.457 1.184-2.224 1.733-.352.252-.907-.04-.915-.467-.02-.95-.005-1.9-.005-2.85h-.046c0-.423-.036-.85.01-1.268.064-.61-.028-1.508.325-1.765.764-.558 1.58.125 2.244.535 1.524.94 1.807 2.693.612 4.08zm28.87 6.93c-.105 0-.21-.02-.38-.03-1.435-.22-2.684.415-3.6 1.455-1.526 1.735-1.9 3.96-1.835 6.17.038 1.32 2.11 3.06 3.518 3.254 2.355.324 4.395-.34 5.91-2.216 1.378-1.703 1.537-3.61.724-5.63-.79-1.966-2.176-3.036-4.338-3.008zm-.174 6.236c-.18-.06-.445-.062-.538-.19-.467-.635-.356-1.544.203-1.957.074-.053.207-.06.3-.04.487.103.657.475.685.907.032.538-.026 1.056-.65 1.28zM33.283 71.18c-.016-.97-.15-1.877-1.07-2.468-.96-.617-1.74-.29-2.524.355-.11.092-.695-.12-.738-.277-.434-1.58-1.61-2.063-3.055-2.168-.648-.048-1.23.107-1.62.723-.67 1.062-1.434 2.07-2.04 3.168-.288.52-.397 1.184-.427 1.792-.063 1.218.52 2.06 1.868 1.91 1.135-.13 1.934.22 2.688 1.135.97 1.17 2.25 1.262 3.66.474.82-.46 1.578-1.03 2.388-1.51.496-.292.76-.703.826-1.25.05-.417.06-.833.043-.572 0-.89.003-1.1 0-1.31zm53.237 3.637c.892-.203 1.362-.954 1.296-1.892-.09-1.284-.776-1.948-2.013-1.877-.924.05-1.853.463-2.75-.153-2.4-1.643-3.12-.994-4.415.805-.12.17-.283.31-.434.46-.418.398-1.07.335-1.312-.155-.274-.562-.452-1.18-.77-1.717-.396-.66-1.76-1.18-2.2-.843-1.372 1.035-2.518 2.257-2.494 4.123.007.5.237 1.024.48 1.476.107.196.594.41.747.325.646-.36 1.06-.293 1.626.25 1.586 1.53 2.76 1.616 4.458.5.44-.29.922-.56 1.254-.95.752-.88 1.497-.94 2.5-.384.515.286 1.22.23 1.892.34.69-.097 1.43-.147 2.14-.31zm-60.93 9.818c-2.134-1.474-4.4-1.178-6.262.667-.224.22-.427.46-.65.687-.946.962-1.326 2.15-1.18 3.456.102.93.33 1.86.616 2.754.114.353.49.7.836.88.552.288 1.166.467 1.77.638 2.484.698 4.577-.286 5.605-2.704.363-.853.54-1.79.686-2.283 0-.75.05-1.075-.006-1.38-.2-1.043-.54-2.11-1.413-2.714zm-3.48 5.905c-.358.153-.904-.11-.978-.488-.22-1.106-.043-2.085.978-2.728.235-.15.645-.264.853-.158.32.162.533.533.67.683.07 1.406-.43 2.227-1.523 2.69zm-.28-33.614c.488-.91.62-1.752.003-2.662-.587-.87-1.104-1.788-1.66-2.68-.377-.607-.962-.764-1.63-.73-.21.01-.428.002-.626.06-1.69.483-2.802 1.803-4.1 2.848-.14.112-.238.377-.227.562.07 1.145.09 2.304.303 3.424.14.733.65 1.312 1.525 1.365.42.027.837.093 1.398.157.595-.05 1.346-.032 2.056-.192 1.27-.288 2.308-.94 2.957-2.15zm-3.35-2.15c-.337-.333-.656-.56-.852-.864-.235-.366-.227-.824.164-1.08.21-.136.59-.16.832-.07.574.215.675.74.52 1.262-.073.24-.357.418-.663.752zm69.964 6.71c2.362.258 3.326-.84 3.716-2.554.114-.512.117-1.047.128-1.14.155-3.06-.672-4.237-4.01-4.443-.58-.037-1.22.265-1.768.533-.68.336-1.224.877-1.254 1.705-.036.94-.718 1.786-.384 2.78.587 1.74 1.67 2.905 3.57 3.113z"/></svg>