<svg xmlns="http://www.w3.org/2000/svg" width="128" height="128" viewBox="0 0 128 128"><path d="M103.725 84.12c-.78-4.84-2.42-9.352-5.195-13.364-2.133-3.096-3.82-6.448-5.845-9.6-1.34-2.08-2.7-4.14-4.39-5.924-2.58-2.725-5.24-5.387-7.985-7.947-2.033-1.892-4.194-3.664-6.733-4.892-.864-.416-1.71-.864-2.56-1.296-.11-1.053-.213-2.105-.33-3.154-.035-.32-.114-.633-.155-.952-.083-.66.056-.854.584-.67 1.87.65 3.595.173 5.182-.757 2.315-1.355 4.576-2.78 7.268-3.296.398-.075.868-.294 1.1-.6.91-1.202 1.738-2.478 1.633-4.08-.034-.517-.104-1.182-.43-1.506-1.428-1.413-2.006-3.252-2.776-5.012-.24-.55-.728-1.125-1.25-1.39-1.912-.967-3.872-1.94-6.073-.762-.09.05-.202.064-.3.105-.495.21-.776-.015-1.01-.436-.205-.373-.482-.71-.707-1.074-.8-1.29-1.956-1.844-3.47-1.98-1.913-.17-3.807-.564-5.712-.83-1.377-.193-2.86-.08-4.12-.56-2.326-.888-4.66-.466-6.99-.48-1.22-.006-1.94.748-2.066 2.023-.085.85-.07 1.712-.093 2.57-.05 1.838-.052 1.793-1.77 1.486-1.47-.267-2.965-.384-4.452-.567-.006.043-.012.085-.015.13-.644 0-1.288-.02-1.93.005-.536.022-1.078.052-1.6.16-1.97.39-3.4 1.99-3.532 4.046-.03.49.185 1.073.466 1.49.35.518.856.948 1.352 1.347 2.257 1.814 4.525 3.61 6.805 5.396.757.593 1.563 1.128 2.343 1.693.806.582 1.68.864 2.702.835.725-.02 1.46.17 2.18.322.165.034.32.28.398.462.028.065-.188.332-.303.34-1.178.08-2.37.27-3.53.146-2.258-.245-4.182.52-6.113 1.522-1.584.82-2.788 1.97-3.712 3.455-.565.91-1.152 1.813-1.668 2.75-.494.888-1.222 1.474-2.118 1.89-2.03.938-3.88 2.286-6.162 2.66-.398.067-.784.344-1.12.6-.24.184-.456.466-.56.75-.647 1.765.613 3.39 2.437 3.066.934-.17 1.855-.516 2.73-.904 1.173-.523 2.302-1.145 3.43-1.758 3.485-1.893 3.48-1.9 5.628-5.445.22-.366.437-.736.666-1.1 1.92-3.04 5.743-4.026 9.057-3.338.087.02.224.128.224.192-.002.19.003.468-.112.558-.508.386-1.04.747-1.595 1.063-2.258 1.285-4.194 2.948-5.975 4.836-3.62 3.838-6.654 8.124-9.67 12.427-.24.348-.385.763-.562 1.153-1.555 3.41-3.134 6.812-4.65 10.24-.91 2.055-1.908 4.1-2.527 6.246-.83 2.882-1.984 5.645-2.878 8.5-.835 2.66-1.27 5.4-1.397 8.2-.067 1.53.245 2.96.67 4.414.768 2.635 2.112 4.907 4.02 6.856 1.122 1.153 2.273 2.275 3.387 3.436.932.97 2.076 1.436 3.375 1.712 2.746.584 5.48 1.003 8.256.203.302-.09.642-.04.96-.09 1.11-.17 2.063.064 3.005.755 3.212 2.357 7.183 2.574 10.836 3.697.195.062.425.016.64.01 1.715-.044 3.43-.1 5.145-.133 1.952-.04 3.813-.47 5.64-1.134 1.73-.627 3.27-1.58 4.847-2.496.91-.53 1.928-.87 2.9-1.297.727.452 1.447.914 2.186 1.348.555.326 1.11.657 1.7.91 4.22 1.818 8.492 2.125 12.775.247 2.393-1.05 4.653-2.462 5.922-4.764 1.647-2.99 3.09-6.118 3.662-9.552.723-4.375.74-8.732.032-13.116zM49.007 26.404c-.4-.273-.734-.648-1.1-.976.524-.08 1.042-.203 1.565-.23.855-.042 1.715-.01 2.57-.033 2.514-.07 3.748-.976 4.486-3.285.096-.307.14-.63.24-.934.45-1.357.7-1.586 2.027-1.563 2.027.036 4.075-.093 6.066.486.308.086.638.083.958.12 3.484.413 3.488.41 5.56 2.998.334.415.57.93.96 1.276.564.498 1.234.84 2.055.66.732-.16 1.467-.304 2.206-.428.61-.105 1.2-.66 1.83-.243.91.6 1.654 1.38 1.94 2.464.068.246-.062.724-.25.83-1.39.795-2.803 1.55-4.24 2.257-1.44.708-2.914 1.348-4.376 2.014-1.077.492-1.613 1.23-1.563 2.508.046 1.14-.22 1.337-1.32 1.16-4.04-.65-8.116-.508-12.18-.646-.78-.025-.84-.125-.594-.864.032-.1.08-.197.16-.392.53-.907.18-1.766-.483-2.554-.274-.324-.587-.635-.935-.872-1.85-1.26-3.728-2.485-5.58-3.75zM63.773 41.86c-.072.03-.194 0-.277-.036-.043-.02-.053-.117-.077-.18.087-.026.182-.086.262-.074.3.053.335.176.09.288zm-5.696-3.382c-.01-.04.146-.15.24-.192.09-.04.217-.08.3-.047.48.192 1.044.313 1.394.653.198.19.036.75.036 1.144l-.22.023c.1.406.14.835.31 1.206.236.507-.15.58-.402.548-.41-.05-.814-.22-1.19-.4-.165-.08-.4-.378-.363-.463.396-.85.13-1.655-.102-2.473zm35.588 65.248c-1.382 2.827-3.62 3.733-6.325 3.18-2.38-.49-4.847-1.004-6.776-2.72-1.362-1.21-2.912-1.226-4.518-.657-.7.247-1.37.6-2.03.947-1.233.646-2.468 1.29-3.665 2-1.32.786-2.686 1.212-4.26 1.162-1.046-.033-2.12.196-3.154.423-1.296.285-2.512.24-3.776-.222-1.605-.586-3.286-.957-4.897-1.53-.894-.32-1.835-.712-2.54-1.322-1.777-1.537-3.554-3.11-4.625-5.28-.235-.477-.395-1.008-1.045-1.078-.935-.1-1.71.21-2.197 1.013-.334.544-.53 1.17-.81 1.744-.214.432-.626.633-1.057.5-1.224-.376-2.445-.776-3.634-1.243-2.054-.804-2.1-1.242-.715-2.953.406-.497.758-1.034 1.12-1.567.45-.66.485-1.408.39-2.165-.135-1.053-1.41-1.834-2.42-1.444-.6.23-1.133.617-1.735.825-.18.064-.7-.23-.704-.37-.044-1.638.13-3.215 1.63-4.28.7-.496 1.388-1.01 2.05-1.55.68-.555 1.172-1.23 1.313-2.138.154-.97-.333-1.643-1.263-1.886-.642-.168-1.506.478-1.933-.5.47-.56.856-1.234 1.425-1.668 1.79-1.363 3.13-3.238 5.144-4.35.94-.517 1.24-1.58.937-2.517-.313-.97-.904-1.722-1.963-1.91-.518-.09-1.065-.016-1.597-.036-.678-.025-.866-.333-.612-1.047 2.085-5.855 4.347-11.624 7.477-17.028 1.845-3.184 4.235-5.913 6.652-8.637.56-.635 1.085-1.502 1.802-1.744.708-.24 1.646.14 2.468.314 3.24.69 6.475 1.408 9.714 2.105.625.132 1.338.432 1.877.253 1.46-.484 2.507.245 3.537.978.868.618 1.62 1.398 2.42 2.113 6.423 5.807 11.77 12.434 15.473 20.314.637 1.355 1.3 2.7 1.914 4.066.573 1.27 1.106 2.58 1.027 4.005-.162 2.93.68 5.734.988 8.6.285 2.657.597 5.313.84 7.457-.13 3.725-.49 6.876-1.937 9.84zM69.363 70.592c-.975-.242-1.445-.814-1.568-1.764-.294-2.336-.608-4.667-.89-7.003-.097-.776.334-1.28 1.066-1.21 1.064.102 2.125.254 3.18.435 1.01.175 1.91-.11 2.77-.587.89-.494.95-1.86.08-2.428-.436-.286-.938-.542-1.44-.636-1.578-.3-3.17-.503-4.755-.76-.904-.145-1.565-.503-1.755-1.56-.166-.93-.545-1.826-.88-2.72-.143-.38-.822-.49-1.093-.174-.4.472-.84.968-1.056 1.532-.18.47-.034 1.058-.076 1.592-.06.79-.44 1.187-1.163 1.285-.66.09-1.183-.368-1.256-1.134-.07-.746-.075-1.5-.16-2.242-.068-.606-.678-1.165-1.29-1.274-.497-.09-1.33.384-1.484 1-.204.822-.41 1.69-.335 2.514.132 1.485-.376 2.496-1.707 3.123-.192.093-.386.187-.57.3-2.996 1.835-4.415 4.61-4.557 8.027-.05 1.284.4 2.504 1.555 3.363 1.744 1.3 3.58 2.353 5.762 2.697.83.13 1.3.576 1.424 1.472.428 3.073.773 6.167 1.413 9.2 1.062 5.035.66 4.277-3.96 4.126-.818-.027-1.628-.445-2.434-.708-.508-.166-.993-.4-1.5-.57-.486-.166-1.066.18-1.243.732-.13.41-.23.825-.326 1.173.03 1.3.32 2.45 1.41 3.147.8.512 1.677.965 2.577 1.264 1.847.612 3.776.798 5.717.66.992-.068 1.653.268 2.03 1.185.26.636.718 1.155 1.412 1.132.946-.03 1.12-.832 1.28-1.59.064-.31.158-.62.288-.906.176-.384.954-.71 1.408-.495.342.16.767.507.837.836.38 1.774.616 3.582 1 5.355.133.613.54 1.18 1.22 1.398.37.117.904-.515 1.125-1.352.27-1.035.565-2.054.258-3.16-.168-.608-.15-1.274-.18-1.916-.14-2.743-.403-2.603 1.908-3.765 1.75-.882 3.19-2.31 4.035-4.04 1.61-3.297 1.58-6.643-.66-9.73-1.913-2.638-4.076-5.007-7.414-5.828zm-12.12-1.707c-3.41-1.168-3.472-2.138-1.974-4.896.34-.637.956-1.13 1.475-1.66.288-.29.934-.042 1.01.358.022.106.065.206.073.312.165 1.7.33 3.4.53 5.48.002.182-.562.598-1.12.404zm4.66.123c-.262-2.42-.523-4.843-.752-7.268-.07-.736.343-1.096 1.175-1.147.6-.037 1.102.293 1.17.8.052.42.06.847.095 1.27.174 2.004.356 4.01.527 6.015.048.555-.38 1.02-.934 1.05-.58.03-1.233-.31-1.28-.72zm4.05 18.205c-.453.282-.91.14-1.015-.296-.38-1.554-.798-3.104-1.065-4.68-.376-2.208-.667-4.433-.917-6.66-.128-1.11.11-1.423.764-1.483.765-.07 1.045.304 1.21 1.487.146 1.058.33 2.11.51 3.16.406 2.314.822 4.624 1.225 6.94.037.207.04.425.075.86-.192.17-.457.472-.784.674zm5.633-1.628c-.34.23-.907.056-1.056-.365-.178-.498-.368-1.003-.456-1.52-.45-2.63-.88-5.263-1.272-7.9-.037-.24.188-.556.37-.77.052-.063.397.076.575.18 1.934 1.108 3.307 2.687 3.968 4.836.155.507.213 1.042.313 1.525-.24 1.733-1.013 3.07-2.44 4.015zm20.38-1.568c-.258-.57-.618-1.12-1.038-1.58-.672-.73-1.884-.65-2.58.063-.643.657-.915 1.457-.822 2.338.192 1.798.384 3.6.72 5.376.108.567.6 1.118 1.037 1.562.796.815 2.083.587 2.77-.33.7-.93.708-1.98.68-3.116.01-1.442-.133-2.93-.766-4.314z"/></svg>