<svg xmlns="http://www.w3.org/2000/svg" width="128" height="128" viewBox="0 0 128 128"><path d="M46.02 98.293c-.47-1.237-.32-2.332.502-3.358.132-.164.217-.38.286-.584.18-.525.275-1.06-.11-1.545-.462-.59-1.34-.814-2.055-.47-.485.234-.943.532-1.387.838-.54.373-1.144.882-1.726.39-.328-.276-.376-.974-.41-1.49-.078-1.16-.054-1.252 1.066-1.59.773-.23 1.395-.61 1.892-1.198 1.198-1.41 2.38-2.835 3.537-4.277.267-.33.454-.743.603-1.148.338-.922-.306-2.113-1.25-2.316-1.11-.24-2.187-.178-3.075.63-.725.655-1.405 1.364-2.114 2.042-.074.07-.27.144-.29.117-.117-.144-.267-.31-.29-.483-.23-1.66.297-2.953 1.73-3.927 1.258-.856 2.444-1.826 3.596-2.82.565-.492 1.01-1.132 1.45-1.743.362-.504-.042-1.42-.688-1.55-.406-.082-.892-.14-1.26.005-.698.277-1.35.683-2 1.075-.367.224-.687.53-1.037.787-.065.05-.244.07-.255.048-.09-.192-.235-.4-.21-.59.188-1.605 1.252-2.757 2.192-3.938.946-1.19 2.053-2.25 3.092-3.365.746-.8 1.465-1.624 1.663-2.746.03-.162-.107-.466-.248-.528-.384-.168-.806-.256-1.22-.352-.912-.213-1.198-.615-.82-1.264 1.874-3.2 3.79-6.37 6.554-8.92.316-.294.64-.594.89-.946.682-.97.074-2.633-1.078-2.94-1.232-.327-2.425-.218-3.33.763-1.327 1.434-2.712 2.846-3.844 4.432-5.554 7.77-8.916 16.398-9.91 25.926-.067.64-.245 1.273-.42 1.898-.054.18-.274.317-.435.454-.016.01-.176-.117-.24-.203-3.743-4.822-7.417-9.69-9.904-15.325-.306-.693-.936-1.287-1.067-1.992-.128-.677.21-1.438.32-2.162.032-.212.015-.447-.05-.647-.588-1.793-.475-3.662-.636-5.5-.136-1.55-1.214-2.313-2.74-1.977-.524.117-1.046.32-1.52.574-2.592 1.39-5.224 2.688-8 3.684-.305.11-.597.27-.88.43-1.33.75-1.6 2.124-.545 3.28 1.835 2.014 3.643 4.078 6.283 5.11.198.075.432.18.53.34.074.125.016.47-.088.527-.46.256-.944.485-1.443.645-2.022.654-3.776 1.74-5.08 3.413-.588.754-1.063 1.65-1.364 2.557-.332 1.003.004 1.956.96 2.542.237.146.687.227.884.1.537-.35 1.037-.784 1.472-1.26 1.472-1.6 2.906-3.242 4.37-4.855.104-.114.325-.13.496-.16.02 0 .102.19.107.29.014.325-.083.685.02.975.447 1.237-.138 2.023-.986 2.843-1.013.977-1.96 2.047-2.808 3.172-2.663 3.537-3.373 7.714-3.79 11.973-.02 3.198.85 5.74 2.433 8.335 2.2 3.61 8.44 6.64 12.823 4.15.606-.347 1.19-.4 1.845-.044 1.95 1.067 3.805.615 5.53-.55 1.536-1.037 2.962-2.2 4.064-3.74.88-1.23 1.074-1.217 1.81-.034.82 1.316 1.82 2.45 3.04 3.387.418.32.937.532 1.44.724.69.263 1.36-.27 1.195-.983-.26-1.1-.675-2.022 1.038-2.456.966-.242 1.286-1.44.885-2.493zm-30.75-34.78c-.08-.08.126-.65.323-.75 1.244-.648 2.522-1.227 3.79-1.828.097-.046.2-.08.302-.117.166.085.445.134.483.26.226.717.462 1.445.572 2.19.146.99.45 1.85 1.17 2.6.484.5.31 1.063-.258 1.236-.515.16-1.037.32-1.568.403-.3.047-.73.053-.915-.12-1.335-1.256-2.635-2.55-3.9-3.873zm19.916 30.06c-1.34 3.63-3.612 6.423-7.322 7.866-.403.154-.802.34-1.173.563-.494.3-.97.357-1.54.192-1.355-.397-2.724-.747-4.096-1.077-4.035-.972-6.54-3.99-6.7-8.12-.02-.545 0-1.09 0-1.684-.105-2.276.376-4.512 1.264-6.632 1.134-2.706 2.41-5.355 3.627-8.026.802-1.758 2.386-2.787 3.76-4.008.05-.043.43.135.43.21 0 .928.305 1.6 1.113 2.192.572.416.88 1.212 1.26 1.864 1.48 2.544 3.057 5.024 4.906 7.314 1.3 1.61 2.613 3.232 4.474 4.245.696.382.745.96.817 1.63.136 1.263-.402 2.353-.813 3.463zm56.992-15.28c-1.003-4.92-2.482-9.678-4.672-14.21-1.95-4.03-4.424-7.743-6.918-11.444-.42-.627-.955-1.19-1.498-1.72-.723-.707-1.598-1.06-2.63-.9-.89 1.282-.87 2.56.046 3.85.316.442.622.894.885 1.37 2.834 5.15 5.638 10.317 7.597 15.876 2.737 7.765 3.89 15.797 4.073 24.01.048 2.198-.516 4.1-1.793 5.79-.846 1.122-1.874 2.112-2.86 3.122-.716.733-1.628 1.103-2.657 1.034-1.254-.082-2.336.25-3.365.978-.514.365-1.195.512-1.813.704-1.342.424-2.702.79-4.04 1.23-.56.182-1.035.236-1.488-.21-.23-.227-.49-.438-.77-.595-.753-.416-1.49-.038-1.68.864-.065.315.065.702-.074.962-.186.348-.542.608-.826.907-.196-.24-.493-.45-.565-.72-.17-.625-.223-1.28-.328-1.924-.07-.425-.062-.9-.258-1.26-.19-.35-.57-.764-.914-.81-.308-.046-.83.287-.996.596-.3.558-.4 1.22-.587 1.84-.12.412-.167.868-.386 1.217-.14.23-.542.427-.807.403-.224-.02-.59-.37-.6-.587-.065-1.52-.03-3.047-.08-4.57-.03-.94-.57-1.67-1.188-1.757-.587-.082-1.45.45-1.818 1.18-.194.38-.358.798-.437 1.216-.2 1.066-.345 2.14-.507 3.21-.08.53-.14 1.067-.224 1.595-.013.073-.14.187-.2.18-.098-.012-.247-.097-.264-.174-.312-1.367-.747-2.71-.696-4.15.068-1.956 0-3.91.502-5.837.197-.76-.373-1.6-1.04-1.843-.697-.255-1.546.028-2.017.673-.725.992-1.126 2.112-1.288 3.312-.1.753-.122 1.52-.17 2.278-.027.434.007.878-.07 1.303-.036.197.19.78-.424.514-.18-.08-.405-.282-.43-.453-.3-2.23-1.22-4.41-.513-6.736.085-.28-.237-.88-.527-1.033-.297-.157-.834-.04-1.18.128-.367.18-.663.544-.933.87-.412.495-.68 1.153-1.173 1.524-1.53 1.14-1.675 2.83-1.55 4.404.185 2.3 1.1 4.403 2.63 6.213 1.97 2.328 4.438 3.827 7.345 4.617 4.1 1.112 8.18.936 12.213-.35 3.134-.996 6.115-2.292 8.533-4.618.466-.448.835-1.168 1.376-1.328.51-.15 1.177.334 1.792.434 2.56.422 4.99.204 7.072-1.575.58-.494 1.233-.904 1.803-1.408 2.6-2.3 4.525-5.11 5.146-8.515.66-3.648.702-7.413-.07-11.045-.616-2.87-1.098-5.76-1.684-8.632zm27.66 2.878c-.804-1.895-1.437-3.866-2.102-5.82-.483-1.417-1.227-2.85-.08-4.32.107-.134.093-.446.02-.627-.298-.745-.24-1.28.374-1.944.672-.726.456-1.78-.305-2.287-.808-.538-1.688-.975-2.563-1.402-.68-.33-1.42-.543-2.095-.88-.26-.13-.59-.476-.585-.716.043-1.888-.65-3.627-1.01-5.43-.1-.51.168-.872.622-.976.63-.144 1.285-.203 1.933-.245.715-.048 1.02.338.806.987-.306.927-.683 1.836-.94 2.777-.332 1.227.202 2.357 1.19 2.712 1.243.446 2.51-.02 2.964-1.237.873-2.338 1.66-4.71 2.48-7.068.07-.205.156-.41.196-.622.31-1.636-1.3-3.888-3.387-3.05-2.216.89-4.555 1.422-6.953 1.663-.632.062-1.25.346-1.86.568-.912.334-1.452 1.022-1.407 1.98.05 1.078.154 2.175.427 3.212.357 1.36.864 2.688 1.38 4 .265.672.262 1.237-.16 1.826-.436.608-.822 1.252-1.25 1.865-.618.892-1.28 1.752-1.876 2.656-.955 1.45-1.905 2.91-2.8 4.4-1.003 1.675-1.968 3.375-2.903 5.088-1.533 2.813-1.888 5.98-2.728 9.01-.808 2.91.068 5.354 1.483 7.743.766 1.293 1.924 2.025 3.497 2.012.538-.004 1.133-.043 1.603.16 1.77.765 3.638.548 4.774.654 1.455 0 2.216-.004 2.98 0 1.68.01 3.21-.513 4.626-1.377 2.99-1.824 4.71-4.41 4.858-7.985.105-2.534-.208-4.963-1.212-7.326zm-8.978-14.295c.8.22 1.568.55 2.34.85.094.035.16.135.24.207-.157.07-.305.157-.466.206-.096.032-.208.006-.277.006-.755-.166-1.48-.307-2.19-.5-.17-.046-.3-.263-.448-.4.27-.132.583-.425.8-.368zm1.62 26.79c-1.82.65-3.878.365-5.817.032-.384-.067-.82-.376-1.045-.7-.88-1.25-1.566-2.605-1.683-4.175-.14-1.837-.3-3.673-.39-5.514-.02-.405.172-.845.342-1.237.107-.24.323-.7.665-.262.793 1.003 1.786 1.49 3.067 1.576.72.05.945.83.506 1.508-.413.638-.91 1.22-1.3 1.87-.524.866-.028 2.253.956 2.342 1.235.112 2.257.416 3.218 1.252.668.58 1.866-.12 1.95-1.018.02-.213.078-.453.015-.644-.434-1.277-.485-2.507.053-3.795.245-.596.032-1.29-.407-1.836-.2-.253-.414-.504-.65-.725-.905-.847-1.17-1.825-.54-2.924.72-1.25.47-2.264-.603-3.157-.416-.348-.776-.758-1.18-1.118-.47-.416-1.153-.445-1.414.046-.645 1.22-1.7 1.813-2.928 2.205.005.033-.002.06.005.092-.022.015-.05.026-.076.04-.007.164-.005.333-.06.48-.042.125-.197.208-.304.31-.01-.182-.093-.396-.018-.53.066-.12.235-.185.38-.26.002-.035.002-.07.005-.107.02-.006.043-.017.066-.023-.112-.672.264-1.195.6-1.707.654-.998 1.352-1.97 2.04-2.944.433-.61.78-1.516 1.593-1.492.832.02 1.664.42 2.466.736.27.105.467.43.66.687.13.167.223.38.278.585 1.047 3.893 2.87 7.49 4.275 11.248 1.98 5.295-.043 7.484-4.723 9.163zm-66.047-64.77c.912 2.023 2.618 3.15 4.538 4.02.99.45 2.017.82 3 1.28 1.44.677 2.51 1.68 2.93 3.3.16.62.42 1.265.807 1.76.303.39.843.713 1.33.817 1.28.277 2.42-.7 2.364-2.016-.092-2.123-.703-4.094-2.166-5.677-.893-.968-1.785-1.847-2.013-3.255-.095-.587-.62-1.13-1.03-1.625-.496-.59-1.473-.566-2.043-.008-.15.15-.243.36-.378.527-.577.71-.8.763-1.53.39-.534-.275-.615-.6-.243-.996.147-.157.322-.288.483-.432.16-.147.334-.283.476-.446.715-.828.718-1.177.056-2.31-.538-.916-.54-.92.454-1.116 1.067-.208 2.15-.36 3.2-.625 1.6-.405 2.81-1.912 2.912-3.52.026-.435.045-.877 0-1.307-.2-1.82.34-1.742 1.83-1.762 1.31-.02 2.618-.002 3.922-.08 1.55-.09 2.715.4 3.563 1.78.378.616 1.088 1.026 1.65 1.53 1.455-.164 2.685.77 4.067.85 1.077.06 2.174-.105 3.255-.23 1.776-.212 2.23.24 1.62 1.778-.276.704-.647 1.376-1.044 2.02-1.03 1.67-2.174 3.272-3.127 4.98-1.483 2.66-2.853 5.384-4.256 8.088-.517.997-.688 2.054-.392 3.162.2.75 1.133 1.16 1.81.86 1.28-.574 1.972-1.654 2.602-2.825 1.285-2.4 2.59-4.788 3.9-7.17.945-1.717 1.932-3.41 2.868-5.128 1.157-2.12 1.23-4.31.547-6.624-.497-1.686-1.52-2.646-3.212-2.732-1.4-.072-2.863-.1-4.207.222-1.364.324-2.122.2-2.882-1.12-1.55-2.694-4.084-3.784-7.88-3.623-.47.056-1.657.213-2.846.325-.913.085-1.69.422-2.27 1.13-.347.423-.664.748-1.26.903-1.586.422-1.74.693-1.566 2.19.06.54.245 1.06.33 1.595.08.517-.22.817-.7.896-1.18.19-2.366.323-3.54.525-2.35.405-4.246 1.632-5.83 3.364-.91.996-1.38 2.17-1.505 3.536-.104 1.15.618 1.788 1.26 2.515.068.08.114.184.157.283zM63.035 83.73c-.05.03-.22-.056-.282-.132-.275-.335-.5-.72-.805-1.024-.71-.704-1.632-.653-2.268.083-1.045 1.205-1.18 2.878-.27 4.222.74 1.092 1.63 2.142 2.983 2.38 1.707.3 2.578 1.31 3.243 2.804.333.75 1.08 1.342 1.717 1.92.296.27.768.373 1.178.486.706.197 1.37-.255 1.397-.922.018-.433.053-.875-.01-1.3-.126-.857-.54-1.738-.417-2.546.16-1.075 1.444-1.195 2.186-1.803 2.837-2.334 3.528-4.866 2.45-9.107-.202-.797-.805-1.53-1.343-2.197-.763-.944-1.75-1.698-2.927-1.99-1.586-.394-2.056-1.352-1.905-2.864.087-.864-.01-1.74.013-2.608.03-1.365.65-1.69 1.864-.907.725.466 1.352 1.077 2.027 1.616.764.608 1.79.203 1.98-.757.257-1.298-.167-2.38-1.102-3.24-.978-.898-2.143-1.416-3.484-1.64-.955-.164-1.255-.758-1.104-1.667.198-1.174.45-2.343.576-3.524.085-.774-.734-1.333-1.555-1.224-.733.096-1.22.525-1.444 1.155-.363 1.02-.77 2.063-.864 3.123-.117 1.3-.603 2.134-1.68 2.928-2.425 1.78-3.424 4.42-3.688 7.335-.154 1.688.5 3.093 2.17 3.59 1.408.415 2.005 1.104 1.8 2.55-.075.534-.01 1.087-.01 1.63h-.033c0 1.087.014 2.174-.016 3.26-.005.128-.225.274-.37.366zm5.64-5.466c.698.12 1.216.55 1.506 1.127.285.56.37 1.223.54 1.843-.156.56-.26 1.09-.46 1.586-.29.746-1.035 1.26-1.423 1.057-.576-.296-.622-.866-.666-1.394-.07-.866-.087-1.74-.1-2.608-.017-1.26.16-1.688.606-1.61zM51.763 42.89c-.562.18-.832.647-.853 1.245-.023.58.14 1.1.666 1.378.368.195.82.4 1.21.358 1.937-.203 3.87-.48 5.802-.75 3.674-.51 7.36-.35 11.042-.116 1.4.087 2.795.272 4.36.43 1.797-.216 3.738-.41 5.66-.71.49-.076.98-.436 1.374-.777.516-.448.708-1.08.533-1.774-.187-.74-.853-1.358-1.627-1.376-.864-.02-1.752-.032-2.595.128-2.472.474-4.965.448-7.46.5-2.714.054-5.434-.01-8.142.144-2.592.144-5.176.476-7.76.78-.75.085-1.488.307-2.21.54zM76.5 49.95l-.09.072c.018-.003.033 0 .05-.002.017-.02.028-.046.045-.07H76.5zm1.33-2.55c-.978-.746-2.092-1.21-3.3-1.217-5.093-.038-10.19-.02-15.286.013-.517.004-1.06.215-1.544.437-.38.173-.712.48-1.01.782-.547.562-.47 1.522.092 2.048.664.62 1.46.968 2.342.992 2.596.072 5.192.075 7.79.124 1.59.03 3.158-.653 4.792.017.52.213 1.27-.117 1.912-.213.96-.14 1.92-.288 2.88-.433.47-.38.947-.75 1.394-1.154.452-.413.395-1.04-.062-1.393zM62.954 35.516c.203-.062.306-.464.54-.867-.367-.35-.694-.707-1.073-.99-.084-.063-.394.09-.54.212-.353.298-.27.812.27 1.337.2.193.58.377.803.31zM26.444 89.43c-.61-.19-1.346-.126-1.866-.438-.384-.235-.51-.893-.75-1.36.285-.123.564-.277.863-.356.307-.078.65-.035.94-.143.15-.056.225-.323.378-.558-.147-.235-.252-.59-.488-.74-.353-.224-.797-.43-1.196-.422-1.005.02-1.634-.424-2.097-1.266-.146-.264-.448-.454-.7-.647-.276-.21-.997.03-1.137.36-.085.196-.254.406-.235.594.2 1.87-.493 3.364-1.843 4.61-.073.067-.085.198-.14.293-.447.808-.095 1.864.796 2.126.613.18 1.282.16 1.92.275.304.056.72.14.86.352.632.97 1.567 1.907.716 3.226-.114.176-.176.398-.213.608-.126.733.59 1.737 1.266 1.557 1.12-.297 2.11.013 3.152.245.736.164 1.317-.313 1.347-1.016.043-.97.08-1.94.114-2.913.027-.76.084-1.52.06-2.278-.038-1.13-.728-1.793-1.745-2.11zm-.682 2.25l-.066-.213.177.02-.11.193z"/></svg>