<svg xmlns="http://www.w3.org/2000/svg" width="128" height="128" viewBox="0 0 128 128"><path d="M13.75 82.1c.858.332 1.78.507 2.687.694.804.168 1.63.235 2.438.384 2.225.424 4.462 1.116 6.56-.42.078-.054.198-.07.3-.07 1.7-.056 2.91-1.078 3.99-2.188 1.95-2.002 3.968-3.98 5.63-6.21 2.294-3.083 5-5.805 7.343-8.838.66-.85 1.138-.94 2.165-.395 1.372.725 2.703 1.53 4.06 2.286.903.504 1.784 1.077 2.74 1.445 1.45.56 2.818.46 3.955-.832.68-.772 1.43-1.513 2.258-2.123 2.01-1.493 3.77-3.243 5.42-5.11 1.785-2.015 3.492-4.097 5.28-6.11 1.51-1.708 3.084-3.358 4.636-5.025.304-.322.743-.508 1.112-.245 1.93 1.378 4.27 2.116 5.98 3.85.593.602 1.375 1.044 2.228.95 2.756-.305 5.606-.34 7.622-2.786 1.712-2.078 3.534-4.062 5.312-6.08.544-.623.997-1.54 1.678-1.77.98-.334 1.448.884 2.168 1.384 1.102.77 2.136 1.637 3.23 2.42 1.608 1.15 2.794.928 3.894-.712.514-.77 1.082-1.54 1.42-2.39.84-2.11 1.628-4.244 2.316-6.41.946-2.976 2.088-5.835 3.77-8.482.66-1.035 1.12-2.22 1.53-3.388.468-1.355-.005-2.43-1.252-3.16-.9-.533-1.87-.864-2.938-.896-1.346-.03-2.704-.018-4.035-.185-4.125-.514-8.267-.538-12.41-.565-3.21-.027-6.424.174-9.61-.407-.406-.073-.826-.068-1.302-.102-.46.027-.976.03-1.49.09-1.03.116-1.706.982-1.394 1.977.255.803.45 1.576.386 2.42-.064.87.31 1.59.786 2.302.934 1.386 2.043 2.606 3.297 3.703.35.306.43.704.116 1.088-.98 1.204-1.967 2.4-2.958 3.6-.832 1.002-.95 1.005-2.05.426-1.923-1.014-3.812-2.11-5.805-2.96-2.563-1.098-5.215-2-7.835-2.967-1.195-.44-2.116-.128-2.93 1.022-1.31 1.853-2.637 3.68-3.234 5.952-.255.97-.872 1.87-1.42 2.74-2.642 4.202-5.307 8.385-7.48 12.86-.18.37-.356.765-.636 1.05-.18.183-.602.332-.81.247-.763-.31-1.507-.682-2.207-1.113-1.59-.972-3.14-2.004-4.72-2.99-1.825-1.137-3.88-1.91-5.22-3.777-.59-.814-1.595-.743-2.573-.38-1.254.47-2.02 1.432-2.733 2.446-3.632 5.172-7.232 10.365-10.293 15.903-2.514 4.54-5.115 8.996-8.9 12.653-.63.612-1.02 1.552-1.322 2.41-.437 1.242.07 2.335 1.255 2.794zm11.964-14.11c.59-.846 1.15-1.716 1.662-2.614 1.38-2.41 2.77-4.815 4.304-7.134.34-.512.51-1.133.826-1.662.582-.976 1.157-1.967 1.84-2.87 1.014-1.338 2.25-1.866 4.057-1.476 2.04.444 4.003.968 5.852 1.94 2.382 1.247 4.82 2.4 6.677 4.438.352.392.715.32.995-.096 4.056-6 8.103-12.004 12.168-18 .52-.768 1.12-1.483 1.685-2.223.315-.412.683-.79.934-1.234.3-.535.497-1.12.738-1.687.755.267 1.52.5 2.26.805.957.39 1.908.803 2.828 1.268 1.75.89 3.477 1.82 5.212 2.735.457.246.885.548 1.355.754 2.36 1.032 2.413.98 4.24-.82 1.323-1.31 2.752-2.505 4.092-3.794 1.187-1.15 2.336-2.34 3.463-3.547.48-.512 1.323-.96 1.104-1.74-.143-.51-.867-.837-1.26-1.306-1.058-1.272-2.083-2.567-3.11-3.865-.123-.158-.174-.37-.257-.558.265-.117.52-.256.794-.33.194-.05.413-.007.62-.007.93.024 1.826.024 2.608.736.86.78 2.002.58 2.978.35 3.187-.755 6.34-.69 9.52.017.797.177 1.647.123 2.474.173.826.05 1.653.088 2.48.15.394.03.778.582.61.9-1.603 3.014-3.04 6.1-4.086 9.36-.135.422-.638.55-.977.29-1.057-.825-2.08-1.698-3.177-2.466-.267-.19-.816-.2-1.126-.053-.453.21-.815.623-1.2.966-2.16 1.933-4.33 3.845-6.757 5.45-.85.563-1.518 1.4-2.252 2.128-.73.726-1.29 1.636-2.354 1.964-.187.06-.43.188-.494.347-.96 2.404-2.823 1.693-4.445 1.14-1.45-.494-2.795-1.327-4.153-2.07-1.467-.8-2.944-1.427-4.654-1.585-1.33-.123-2.627.6-3.957.026-.17-.07-.52.265-.783.42-3.15 1.872-5.675 4.46-8.085 7.164-2.063 2.317-4.063 4.693-6.047 7.08-1.06 1.273-2.025 2.622-3.036 3.932-.763.986-.9 1.045-2 .312-.942-.63-1.84-1.332-2.7-2.07-1.41-1.216-2.756-2.502-4.164-3.72-.85-.733-2.016-.636-2.768.242-1.213 1.416-2.37 2.875-3.54 4.324-3.374 4.192-6.736 8.395-10.116 12.58-.34.423-.803.682-1.348.336-.523-.328-.957-.653-.88-1.45.22-2.275.19-2.27 1.357-3.95zm90.966-10.873c-.365-1.042-1.24-1.65-2.41-1.61-.93.03-1.857.127-2.783.21-.82.075-1.643.224-2.464.248-3.526.1-7.003.49-10.45 1.285-2.42.56-4.9.75-7.386.87-1.338.063-2.67.266-3.995.466-.87.13-1.314.59-1.393 1.416-.087.923-.07 1.858-.115 2.787-.026.48-.34.71-.796.755-.308.028-.62 0-.93.028-1.925.173-2.627.725-2.962 2.525-.15.8-.264 1.68-.1 2.463.522 2.523 1.053 5.06 1.844 7.505.39 1.205.73 2.342.66 3.605-.044.826.05 1.664-.048 2.483-.15 1.27.366 2.18 1.266 3.002.48.435.963.747 1.603.856.915.156 1.832.323 2.737.54.44.106.608.483.632.93.05.994-.235 1.35-1.163 1.41-.725.045-1.45.036-2.17.117-1.504.17-2.38 1.332-2.06 2.85.273 1.31.54 2.66 1.09 3.865.5 1.085.683 2.133.65 3.282-.02.827-.025 1.666.07 2.482.206 1.748.998 2.564 2.768 2.84.813.128 1.65.133 2.477.134 2.69.015 5.387.005 8.077.005v.006c3.107 0 6.213.033 9.32-.01 2-.025 2.863-.78 3.13-2.71.126-.92.117-1.86.12-2.79.006-.7.292-1.105.947-1.41 1.32-.618 1.664-1.76 1.397-3.12-.12-.605-.33-1.194-.434-1.804-.126-.744-.02-1.362.725-1.863.927-.613 1.212-1.632 1.172-2.728-.03-.83-.107-1.66-.092-2.484.032-1.703-.563-3.03-2.155-3.796-.53-.257-.713-.675-.74-1.238-.064-1.344-.166-2.685-.256-4.02-1.36-2.572-.47-5.273-.453-7.923.002-.207.357-.545.593-.59.603-.118 1.232-.112 1.85-.148 1.057-.06 1.74-.65 2.084-1.595.21-.57.3-1.192.374-1.8.144-1.228.19-2.474.365-3.698.18-1.29-.204-2.48-.61-3.636zm-11.507 10.14c.305-.01.61 0 1.508 0-.186-.012.22 0 .623.046.487.056.837.494.864 1.08.02.522-.02 1.108-.603 1.253-1.077.267-2.184.446-3.288.593-.7.09-1.067-.39-.998-1.17.126-1.39.5-1.75 1.9-1.804zm-.394 19.025c.013-.058.147-.1.23-.11.09-.008.25-.004.27.047.392.846.48 1.705.05 2.565-.03.062-.182.122-.247.096-.162-.06-.416-.146-.44-.266-.082-.378-.077-.78-.11-1.24.072-.33.146-.715.245-1.094zm-.365-4.265c-.056.01-.132-.114-.2-.175.16-.056.314-.136.476-.163.054-.013.127.12.193.186-.156.053-.307.128-.47.15zm-2.65-6.628c-4.13.08-8.235.47-12.315 1.123-.607.096-1.233.092-1.852.1-.97.013-1.235-.286-1.246-1.318-.004-.678.28-1.067.805-1.074.62-.01 1.237 0 1.856 0l.01.26c1.02-.058 2.036-.113 3.054-.18.413-.024.82-.084 1.235-.11 4.228-.233 8.454-.465 12.68-.69.407-.02.843-.047 1.214.077.213.075.44.446.45.693.012.254-.172.596-.38.755-.22.17-.566.23-.86.24-1.55.062-3.102.095-4.652.127zm-1.495 5.374c-.044.517.028.974-.145 1.3-.155.287-.555.532-.892.618-.405.1-.864-.128-.885-.576-.04-1-.028-2.01.088-3 .047-.397.533-.6.962-.477.26.07.636.26.686.464.142.576.142 1.188.188 1.67zm-2.792 6.87c.006.834-.293 1.375-.806 1.46-.1.018-.2.045-.3.045-1.025 0-2.047.024-3.07-.017-.85-.036-1.262-.613-1.088-1.463.082-.415.27-.804.736-.866.704-.096 1.42-.124 2.182-.187.463 0 .973-.013 1.485.006.544.017.856.4.862 1.022zm10.73-8.1c.022-.074.214-.178.236-.16.12.097.27.217.294.35.053.302.04.61.066 1.178-.043.143-.117.535-.28.885-.06.122-.364.216-.516.173-.158-.042-.405-.29-.382-.394.157-.685.37-1.357.58-2.03zm-6.555-19.43c.055-.18.517-.338.78-.324.252.015.675.236.705.42.2 1.2.354 2.417.41 3.632.007.2-.566.424-.784.576-.58-.077-1.003-.068-1.38-.203-.243-.083-.613-.413-.585-.565.227-1.19.51-2.374.854-3.535zm-3.39 7.957c.073-.55.52-.91 1.046-.9.52.013.816.365.844 1.028.008.204 0 .412 0 .618h-.026c0 .307.02.617-.005.92-.038.466-.512.698-1.186.628-.475-.05-.76-.3-.767-.768-.01-.51.025-1.024.09-1.525zm-2.26-6.852c.053-.257.585-.52.932-.585.53-.096.62.38.656.786.03.304.008.61.008.913h-.043c0 .4.075.828-.03 1.202-.06.207-.427.483-.634.465-.36-.03-.985-.237-1.002-.417-.075-.782-.045-1.595.113-2.365zm-7.178.784c.04-.45.26-.768.707-.862.3-.06.613-.05.936-.072.293.02.606.014.907.077.46.094.66.427.66.877 0 .307-.025.62-.066.923-.08.584-.468.9-1.013 1.003-1.682.327-2.283-.23-2.133-1.946zm-3.56 8.082c-.172-.802-.297-1.62-.5-2.416-.415-1.64.118-1.63 1.343-1.277.294.086.6.135 1.21.264 1.137 0 2.58-.002 4.02.002.93.002 1.857-.01 2.783.02.76.022 1.06.423.95 1.23-.07.51-.164 1.017-.287 1.516-.26 1.06-.555 1.342-1.685 1.468-.92.1-1.85.1-2.776.165-1.128.082-2.253.165-3.378.283-1.103.117-1.435-.11-1.677-1.254zm4.205 13.16c-2.197.57-3.296.558-3.13-1.97.01-.204.014-.41.032-.612.048-.56.38-.894 1.018-.898 1.746-.008 3.467-.098 5.177-.562.768-.21 1.63-.128 2.445-.088.224.008.446.334.645.538.053.056.03.198.03.3-.008.613-.003 1.23-.036 1.844-.03.6-.446.955-1 .885-1.014-.124-2.026-.263-3.04-.386-.643-.08-1.217.056-1.676.558-.134.15-.285.348-.46.39zm-1.248 9.33c0-.482.284-.757.736-.712 1.13.114 2.26.235 3.395.307.825.053 1.656.02 2.483.053.49.017 1.325-.1 1.333.376.013.64-.46 1.306-.777 1.932-.064.128-.357.192-.547.198-.93.02-1.86.008-2.793.008v-.157c-.725 0-1.45.037-2.17-.004-1.38-.075-1.66-.432-1.663-2zm8.363 8.327c-1.026.033-2.05.01-3.076.01v-.015c-1.026 0-2.05.013-3.077-.004-.437-.01-.834-.226-.87-.676-.04-.485.048-.99.155-1.465.025-.13.317-.284.49-.288.715-.008 1.435.005 2.147.066 1.43.124 2.852.28 4.277.43.4.04.81.102.914.598.117.562-.405 1.326-.963 1.344zm1.866-6.587c-.16-.48-.224-.998-.416-1.465-.186-.45.114-.507.378-.558.297-.064.61-.043.987-.064.336.02.746.03 1.15.064.47.038.658.34.55.885-.077.4-.153.804-.28 1.188-.133.405-.4.687-.876.72-.743.06-1.298-.2-1.49-.77zm3.103 6.607h.235c-.16 0-.233 0-.274.002.013 0 .025 0 .04-.002-1.41.004-1.698-.184-1.916-.933-.115-.4.117-.915.45-.94.5-.04 1.005-.072 1.504-.046.556.03.876.423.895 1 .016.557-.306.873-.933.92zm-.235-11.8c-.992.035-1.303-.235-1.26-1.18.018-.396.016-.854.214-1.157.193-.288.628-.555.963-.565.33-.01.772.238.974.512.217.3.244.753.3 1.144.13.91-.174 1.21-1.19 1.246zm6.595 11.258c-.177.337-.81.434-1.1.57-.498-.06-.812-.056-1.09-.15-.145-.05-.318-.262-.327-.413-.043-.675.44-1.42 1.042-1.685.548-.242 1.198-.163 1.34.26.155.45.323 1.06.136 1.42zm1.632-6.49c-1.5.3-3.008.542-4.523.754-.754.11-1.11-.26-1.115-1.04-.008-1.176.235-1.443 1.397-1.488.512-.018 1.024-.004 1.534-.004v-.026c.72 0 1.436-.02 2.153.008.508.016.913.454.904 1.042-.006.263-.184.722-.352.754zm1.008-5.343c-.808.296-1.218.066-1.24-.693-.007-.203 0-.407 0-.818.047-.29.02-.843.252-1.255.14-.256.663-.376 1.024-.4.232-.013.593.213.697.427.17.352.203.78.258 1.178.128.917-.077 1.227-.992 1.562zm2.663-27.092c-.032.316-.067.832-.14 1.344-.065.455-.374.778-.816.77-1.868-.037-3.696.152-5.49.694-.276.086-.622.027-.914-.047-.16-.04-.4-.267-.39-.392.026-.407.197-.803.234-1.212.088-1.012.136-2.03.2-3.044 1.125-.72 2.4-.35 3.606-.497.512-.063 1.035-.047 1.55-.048 2.243-.01 2.32.07 2.158 2.43zM79.62 94.15c-.29-.065-.555-.53-.71-.87-.122-.257-.078-.607-.064-.916.075-1.63-.304-3.002-1.677-4.112-.887-.718-1.295-1.845-1.27-3.055.035-1.69-.246-2.43 2.19-2.347.207.01.416.003.62-.023.895-.117 1.506-.766 1.563-1.643.05-.813-.826-5.57-1.163-6.373-.298-.716-.788-1.15-1.572-1.336-2.02-.476-4.053-.73-6.133-.755-4.134-.057-8.27.076-12.402-.29-2.873-.25-5.76-.26-8.516-1.276-.523-.196-1.077.043-1.333.527-.28.527-.533 1.13-.56 1.716-.057 1.237.067 2.48.074 3.723.002 1.44.053 2.87-.712 4.22-.336.597-.544 1.454-.398 2.1.363 1.583 0 3.065-.21 4.596-.225 1.617.43 2.368 2.224 2.608.484.066.768.15.814.64.075.82.05 1.666.226 2.466.173.783.26 1.71 1.08 2.145.998.535 1.12 1.382 1.083 2.364-.034.825-.008 1.654-.008 2.48h-.02c0 1.14-.022 2.277.01 3.415.03 1.17.512 1.792 1.536 2.016.4.09.817.12 1.227.135 4.352.14 8.69-.117 12.997-.69 2.28-.3 4.512-.404 6.778.022.907.17 1.856.196 2.78.16 2.212-.09 3.89-1.762 3.994-3.954.056-1.24-.06-2.494.043-3.726.163-1.987-.26-3.492-2.49-3.97zM52.31 75.357c.148-.226.462-.574.61-.53 2.002.572 4.068.547 6.115.714.44.038.843.438.755.83-.27 1.224.742 2.336.248 3.55l-3.36-.2c-.103-.002-.208 0-.312 0v-.027c-.207 0-.412.002-.62-.002-4.113-.06-3.377.524-3.49-3.73-.003-.204-.046-.457.054-.606zm-.785 12.98c-.795-.37-.48-1.482-.752-2.24-.28-.774-.55-1.55-.806-2.332-.143-.434.203-.93.602-.832 2.43.6 4.91.346 7.37.476.83.045 1.05.25 1.19 1.057.086.507.095 1.037.274 1.504.128.338.477.596.728.89.267-.285.678-.526.773-.857.17-.58.122-1.22.208-1.832.07-.48.434-.705.877-.6.252.06.628.32.645.52.09 1.02.11 2.053.096 3.082-.003.45-.335.755-.78.805-2.04.224-4.08.424-6.124.632l-.014-.144c-.618 0-1.234.008-1.852-.004-.82-.01-1.75.195-2.432-.124zm2.39 5.41c-.523-1.155-.198-1.675 1.12-1.752 1.632-.094 3.264-.227 4.896-.317.447-.027.813.187.87.664.084.712.12 1.43.172 2.144.038.51-.298.775-.71.81-.71.065-1.427.018-2.14.018v.01c-.616 0-1.235-.03-1.846.01-1.216.084-1.89-.556-2.357-1.587zm9.397 9.273c-1.22.108-2.443.18-3.664.268 0-.026-.002-.046-.004-.07-.41 0-.82-.005-1.227 0-2.835.054-3.088-.014-2.827-3.178.046-.55.456-.98.968-1.013.715-.05 1.435-.128 2.146-.085 1.306.082 2.54-.888 3.876-.242.4 1.146.805 2.288 1.21 3.435.133.38-.094.853-.478.888zm-.165-22.832c-.568-.02-.65-.142-.51-.752.07-.303.16-.597.24-.9l-.043-.01c.18-.7.33-1.413.55-2.103.14-.437.544-.645.97-.527.26.073.592.325.658.562.14.49.11 1.02.168 1.53.23 2.045.46 2.288-2.034 2.203zm3.047 3.674c.053-.165.512-.307.765-.28.252.024.65.24.693.436.125.587.11 1.2.145 1.76-.05.55-.03 1.07-.166 1.54-.06.213-.437.444-.683.454-.24.01-.65-.19-.72-.388-.4-1.158-.41-2.354-.037-3.52zm1.078 16.46c.045.61.023 1.24-.085 1.838-.032.19-.46.427-.693.416-.187-.01-.49-.35-.51-.56-.042-.508.054-1.025.08-1.34-.018-.3-.024-.404-.028-.508-.05-1.3.213-1.9.677-1.707.917.383.51 1.21.56 1.86zm1.557-7.336c-.013.064.005.4-.14.636-.14.224-.428.414-.69.49-.35.103-.756-.33-.73-.75.028-.4.053-.82.21-1.18.104-.24.41-.43.667-.55.264-.123.65.363.68.81.004.1 0 .2 0 .543zm2.125-5.293c-.16-.013-.414-.165-.453-.306-.282-.996-.328-2.005.023-2.993.05-.135.314-.274.47-.264.154.01.4.18.423.32.108.597.152 1.21.22 1.858-.062.365-.092.768-.213 1.14-.038.13-.313.257-.47.246zm3.034 12.405c-.044 1.035-.454 1.353-1.59 1.23-.43-.05-.796-.218-.843-.698-.053-.5-.07-1.01-.05-1.515.034-.92.365-1.22 1.325-1.265.776-.04 1.116.26 1.152 1.028.01.2 0 .405 0 .608h.007c0 .203.007.405 0 .608zm-.563-5.58c-.1-.002-.203 0-.523 0-.344-.01-.69-.34-.713-.933-.012-.402 0-.806.044-1.205.02-.184.114-.376.222-.533.407-.58 2.112-.442 2.38.218.637 1.568.143 2.48-1.41 2.453zm1.794-14.225c-.927.06-1.86.026-2.79.026v-.055c-.307 0-.62.013-.93-.003-1.012-.05-2.073.26-3.002-.4.095-1.21.183-2.42.292-3.63.005-.063.15-.17.224-.162.178.02.464.044.51.146.325.753.547 1.553.922 2.276.16.31.603.642.925.65.335.012.79-.282.993-.58.34-.503.56-1.1.77-1.68.194-.534.464-.924 1.09-.863.66.064 1.274.374 1.413 1.022.194.898.227 1.835.24 2.758.002.174-.417.48-.656.495zm2.94 20.657c-.012.09-.11.168-.17.252-.05-.09-.134-.178-.14-.274-.025-.82-.04-1.64-.045-2.46 0-.09.09-.178.14-.266.095.096.266.19.276.292.03.412.014.823.014 1.864.023-.218-.01.19-.073.59zm-29.6-.28c.004-1.242 0-2.49-.11-3.723-.178-2.016-1.056-2.723-3.044-2.606-.928.058-1.858.116-2.786.13-.575.01-.93-.376-.93-.976 0-1.347.072-2.694.008-4.038-.064-1.397-1.05-2.31-2.42-2.286-.93.017-1.857.144-2.785.232-1.44.135-2.875.354-4.318.41-2.79.104-5.59.212-8.382.142-3.302-.085-6.624.085-9.903-.567-1.24-.245-2.498.587-2.958 1.778-.146.376-.258.8-.258 1.2-.004 1.968-.026 3.936.077 5.897.087 1.656.85 2.417 2.51 2.62.92.113 1.86.058 2.79.117 1.534.094 1.76.303 2.054 1.744.145.707.31 1.413.456 2.123.264 1.288 1.268 2.097 2.066 3 .663.75 1.72.575 2.65.575 2.795.005 5.59-.023 8.386.017 1.758.025 3.516.125 5.27.24 1.234.08 2.463.24 3.93.384 1.12-.14 2.442-.33 3.772-.47 1.028-.108 2.067-.116 3.09-.257 1.385-.19 2.117-1.45 1.483-2.703-.494-.97-.65-1.934-.646-2.987zm-28.71-5.003c-.348.15-.81.04-1.22.02-.5-.02-1-.477-1.047-.948-.04-.41-.045-.823-.046-.84 0-.695-.01-1.005.005-1.314.01-.2.064-.4.096-.6.165.183.332.363.497.547.205.224.397.466.622.672.41.366 1.042.203 1.12-.405.116-.91.51-1.215 1.39-1.157.917.064 1.842.026 2.763.036 2.008.02 2.485.46 2.542 2.464.014.434-.313.73-.752.845-.098.026-.206.087-.294.067-1.96-.413-3.84-.19-5.68.608zm11.025 6.582c-.008.162-.465.422-.725.442-.927.053-1.86.02-2.79.02v.038c-.622 0-1.244.01-1.864 0-1.777-.036-2.424-1.15-1.61-2.87.15-.32.592-.646.94-.7 1.123-.172 2.264-.27 3.4-.297.88-.02 1.772-.768 2.644.013.014 1.118.06 2.237.008 3.353zm.72-9.68c-.184 1.022-.705 1.65-1.18 1.406-.672-.34-.546-.988-.555-1.562-.01-.573.368-.877.967-.85.578.027.872.416.768 1.005zm4.485 9.517c-.01.156-.214.296-.33.448-.062-.085-.165-.158-.18-.25-.23-1.212-.28-2.426.044-3.632.02-.072.153-.18.2-.164.173.055.477.16.475.234-.018.507-.1 1.01-.19 1.756-.003.374.02.993-.02 1.607zm.77-8.65c-.204.017-.41.003-.613.003-.52.015-1.042-.024-1.195-.65-.19-.776.224-1.507.922-1.672.197-.047.403-.053.605-.066.966-.068 1.3.237 1.304 1.195.002.828-.254 1.134-1.026 1.192zm3.52 8.766c-.014.222-.195.434-.3.65-.06-.19-.17-.383-.17-.575-.015-.927-.03-1.857.017-2.78.02-.43-.224-.955.31-1.268.048.397.11.79.14 1.186.02.31.004.62.004.928h.013c0 .62.03 1.24-.014 1.856zm4.042.113c-.03.27-.562.533-.91.707-.35.175-.95-.14-.976-.48-.066-.82-.1-1.643-.147-2.464h.047c0-.415-.02-.83.003-1.24.048-.844.605-1.25 1.49-1.03.26.062.668.335.668.514.004 1.333-.03 2.67-.176 3.994z"/></svg>