<svg xmlns="http://www.w3.org/2000/svg" width="128" height="128" viewBox="0 0 128 128"><path d="M120.776 92.277c-.587-.117-1.216-.053-1.792-.198-.464-.12-.973-.343-1.276-.685-.15-.17.21-.718.184-1.083-.056-.793-.082-1.627-.352-2.357-.774-2.08-1.368-4.194-1.733-6.385-.23-1.386-.64-2.73-1.3-3.995-1.032-1.97-1.693-4.07-2.198-6.236-.85-3.624-1.894-7.188-3.23-10.67-1.33-3.47-2.58-6.975-3.865-10.463-.352-.957-.48-1.744.256-2.75 2.66-3.617-.646-8.308-4.35-8.336-1.225-.007-2.42.037-3.504.687-.378.226-.73.15-1.133-.004-4.114-1.586-8.16-3.406-12.623-3.86-.292-.03-.572-.185-.863-.266-2.22-.642-4.456-1.216-6.648-1.936-2.77-.906-5.493-1.944-8.453-2.1-.31-.015-.704-.375-.878-.68-.24-.425-.345-.94-.454-1.427-.34-1.518-1.003-2.89-2.237-3.832-1.01-.77-1.025-1.6-.644-2.634.796-2.15.59-4.38.334-6.567-.16-1.398-.786-2.69-1.642-3.847-.51-.683-1.155-1.18-1.963-1.298-.882-.125-1.797-.107-2.692-.047-.693.044-1.3.708-1.42 1.377-.052.294-.09.597-.086.9.056 3.626.256 7.238 1.38 10.723.19.58.073.958-.383 1.286-.405.293-.832.56-1.227.872-.395.31-.742.907-1.14.93-.714.048-.596-.864-.972-1.28-.5-.555-1.067-.9-1.816-.947-1.63-.096-3.135-.685-4.663-1.184-1.333-.433-2.662-.924-4.03-1.227-4.03-.905-7.915-2.246-11.8-3.615-1.448-.51-2.592-1.067-2.46-2.87.03-.383-.127-.795-.266-1.168-.62-1.666-1.883-2.56-3.677-2.607-1.3-.036-2.607-.044-3.912-.06-.78-.007-1.36.367-1.692 1.053-.404.825-.513 1.67-.355 2.624.315 1.888 1.26 3.37 2.627 4.625.506.467.64.986.373 1.62-1.565 3.72-2.464 7.643-3.504 11.52-1.248 4.655-2.414 9.336-3.797 13.953-1.326 4.425-2.57 8.893-4.78 13-.56 1.037-.657 2.055-.04 3.15.32.565-.312 1.61-1.018 1.888-.15.06-.382.036-.528-.04-.354-.184-.657-.478-1.022-.626-.6-.238-1.19-.15-1.67.32-.47.463-.62 1.056-.448 1.664.133.474.363.944.643 1.35.913 1.325 1.814 2.667 2.814 3.92 2.408 3.02 5.515 5.068 9.304 5.747 3.275.587 6.66.63 9.916-.075 3.723-.802 7.377-1.946 11.036-3.026 1.043-.31 2.03-.86 2.994-1.385 1.766-.965 2.788-2.48 3.413-4.405.38-1.165-.096-2.18-.06-3.264.03-.86-.288-1.567-.924-2.137-2.197-1.98-3.26-4.615-3.872-7.37-.963-4.364-2.593-8.45-4.617-12.396-3.13-6.094-5.653-12.446-8.11-18.827-.323-.84-.517-1.732-.744-2.606-.048-.177-.02-.412.063-.576.177-.35.486-.24.755-.117 3.408 1.5 6.874 2.846 10.47 3.81 3.007.808 6.015 1.605 8.936 2.7.843.316 1.733.515 2.617.705 1.275.275 2.537.27 3.734-.328v-.113c.066-.02.134-.043.195-.075l.12-.167c-.026.053-.042.124-.084.152-.01.008-.026.01-.037.015-.04.05-.078.1-.116.154-.026.014-.053.018-.08.032.004 1.27.008 2.54.014 3.806.008 1.9.816 3.488 1.875 5 .512.732 1.62 1.052 1.666 2.047.04.883-.23 1.78-.334 2.677-.068.597-.067 1.205-.128 1.806-.253 2.5-.486 5.003-.79 7.495-.324 2.69-.742 5.37-1.082 8.06-.26 2.092-.448 4.195-.693 6.29-.516 4.394-.904 8.797-1.07 13.22-.198 5.125-.457 10.247-.69 15.375-.015.3.017.62-.082.896-.127.354-.287.78-.575.984-.894.64-1.845 1.207-2.792 1.774-1.694 1.012-1.973 1.82-1.246 3.738.07.188.18.36.252.546.527 1.387.39 1.792-1.145 2.044-1.675.28-3.39.33-5.088.437-.8.05-1.634-.146-2.396.03-1.855.42-3.676 1.007-5.52 1.495-1.136.302-1.68 1.12-1.785 2.178-.136 1.4-.068 2.82-.18 4.222-.142 1.717 1.844 3.58 3.514 3.37.895-.106 1.8-.153 2.69-.282 1.59-.233 3.164-.624 4.76-.742 3.61-.267 7.227-.474 10.845-.587 5.03-.16 10.063-.193 15.093-.32 2.41-.062 4.82-.193 7.225-.353 1.42-.096 2.275-1.124 1.912-2.48-.392-1.466-.58-2.938-.725-4.437-.123-1.22-.927-2.128-2.08-2.264-1.993-.237-3.95-.773-5.988-.64-1.003.064-2.012.008-3.02-.01-.578-.012-.91-.32-1.005-.893-.336-1.98-.453-3.968-.432-5.984.043-3.824-.103-7.65-.17-11.475-.094-5.43-.005-10.855-.34-16.287-.483-7.83-.848-15.678-.747-23.53.023-1.814.062-3.623.023-5.438-.017-.902.266-1.512 1.05-2 .956-.59 1.637-1.436 2.056-2.525.272-.708.73-.866 1.457-.653.96.284 1.938.56 2.845.978 3.58 1.647 7.477 2.33 11.154 3.672.188.066.39.1.592.113 3.784.242 7.15 1.968 10.69 3.05 1.443.446 2.7 1.29 3.407 2.762.303.627.753 1.193 1.19 1.742.427.53.54.99.14 1.617-.43.673-.75 1.42-1.076 2.153-1.867 4.23-3.744 8.458-5.568 12.706-1.784 4.156-3.576 8.31-4.636 12.733-.844 3.514-1.588 7.057-2.88 10.447-.364.945-.29 1.726.327 2.53.307.404.124.812-.31.876-1.09.166-2.2.22-3.015 1.157-.572.66-.862 1.544-.41 2.205 1.135 1.653 2.213 3.387 3.93 4.526 3.413 2.26 7.104 3.76 11.264 3.82 3.624.053 7.248.08 10.87.092 1.92.01 3.818-.224 5.657-.79 2.693-.83 5.355-1.722 7.706-3.36 1.12-.78 1.89-1.806 2.465-2.988.655-1.34-.195-2.98-1.666-3.272zM24.8 16.265c.075-.005.16.092.24.14-.037.055-.074.16-.113.16-.275.01-.548.007-.82-.01-.044 0-.08-.1-.118-.154.27-.047.537-.11.81-.134zm-5.696 52.24l-.124-.097.147-.06-.02.156zM24.18 74c-.174.06-.377.032-.57.043-.19-.01-.396.016-.57-.045-.12-.043-.295-.227-.276-.307.043-.172.157-.374.305-.464.464-.29.902-.208 1.26.216.06.076.15.196.123.246-.06.125-.157.277-.273.315zm16.733-6.027c.377.15-.264 1.338-1.193 1.858-.864.49-1.788.93-2.74 1.2-2.983.834-5.994 1.585-8.998 2.35-.155.04-.356-.113-.535-.178.117-.16.22-.337.356-.482.205-.216.407-.53.66-.59 1.196-.288 2.286-.678 2.998-1.79.125-.19.525-.268.804-.287.94-.065 1.446-.56 1.648-1.458.163-.718.742-.896 1.377-.917.8-.027 1.602-.006 2.404-.006v-.022c.5 0 1.007-.04 1.504.01.582.056 1.186.108 1.717.316zm-12.22-30.81c1.237 3.072 2.71 6.053 4.18 9.022 1.75 3.524 3.19 7.145 4.068 10.99.29 1.266.813 2.48 1.167 3.732.258.914 1.173 1.62.853 2.712-.89.07-1.777.19-2.665.203-4.125.056-8.25.037-12.373.134-2.406.06-4.81.288-7.215.435v.05c-.604 0-1.205.014-1.81 0-.974-.027-1.773-1.288-1.323-2.167 3.437-6.673 4.978-13.978 6.962-21.126 1.073-3.865 1.883-7.804 2.74-11.724.408-1.86.64-3.76.973-5.64.04-.242.214-.46.33-.69.12.266.276.52.357.795.14.48.32.97.34 1.466.18 4.218 1.883 8 3.414 11.808zm15.85 73.466c-.564.152-1.138.28-1.535.376-.592-.043-.99-.064-1.383-.105-.092-.01-.258-.12-.254-.13.07-.172.12-.415.253-.484.933-.48 1.91-.483 2.89-.15.052.017.093.148.095.228.005.09-.018.252-.064.263zm6.028-1.24c-.083.1-.19.185-.29.272l-.02.187c-.04.01-.085.01-.133.01l-.16.35c-.26-.37-.034-.347.16-.35.015-.03.032-.065.046-.1.036-.03.07-.065.107-.1l.045-.377c.038-.3.143-.365.267-.164.043.063.03.21-.02.27zm7.64-36.164c.17-2.176.36-4.352.564-6.525.02-.22.184-.423.282-.636.15.245.403.48.435.738.18 1.474.31 2.955.455 4.43-.027.005-.053.01-.08.01 0 .895.03 1.79-.02 2.68-.014.232-.324.655-.423.633-.362-.075-.756-.237-1.018-.494-.175-.167-.215-.554-.192-.834zm-.688 36.98c-.48.082-.97.084-1.578.132-.27-.04-.685-.018-1.024-.17-.192-.084-.37-.458-.363-.692.02-.69.437-1.192 1.008-1.266.582-.08 1.173-.115 1.758-.126.452-.01 1.062-.184 1.187.465.117.584-.525 1.58-.986 1.656zm1.99-6.978c-1.71.6-3.474.694-5.256.43-.17-.027-.33-.41-.4-.654-.026-.085.226-.357.365-.37.98-.078 1.966-.113 2.507-.138 1.232 0 2.02-.016 2.812.01.175.007.347.152.522.236-.183.168-.334.41-.547.485zm.375-6.533c-.843.448-1.74.456-2.56-.06-.203-.127-.38-.534-.336-.766.207-1.134-.07-2.47 1.253-3.183.032-.017-.11-.475-.243-.678-.79-1.19-.865-1.34-.033-2.335.565-.674.853-1.296.693-2.18-.128-.707-1.222-.964-.89-1.744.214-.51.872-.814 1.21-1.297.44-.63-.035-1.088-.437-1.568-.555-.66-.335-1.21.565-1.41.203-.05.614.143.685.32.143.356.15.78.153 1.17.01 2.015.004 4.03.004 6.043-.032 0-.066.003-.1.007.142 2.304.294 4.612.403 6.923.01.252-.163.646-.367.755zM61.37 35.34c-.312.004-.73-.294-.92-.58-.26-.402-.458-.905-.497-1.38-.09-1.11-.403-2.132-.907-3.12-.227-.45.023-.726.434-.902.272-.117.533-.274.814-.365.632-.195 1.254.018 1.472.645.416 1.207.725 2.455 1.067 3.64-.187.565-.26 1.08-.518 1.474-.192.294-.62.587-.944.59zm2.795 72.69c1.61 0 3.225.07 4.832.004 1.44-.058 2.778.388 4.15.672.154.032.274.258.396.402.144.173-.178.61-.486.612-1.707.01-3.416.007-5.127.007v.114c-1.61 0-3.22.015-4.828-.004-.47-.005-.708-.293-.706-.77 0-.433.133-.822.576-.937.384-.097.796-.097 1.195-.097zm36.278-65.14c1.134-.008 1.877.65 2.037 1.774.062.423-.54 1.01-.96.937-.178-.073-.457-.097-.523-.23-.352-.706-.66-1.44-.946-2.177-.02-.048.255-.3.393-.302zm3.975 40.53c-.146-.19-.407-.585.06-.683.447-.1.938-.025 1.407-.005.083.004.158.107.235.165-.032.094-.05.194-.1.277-.487.785-1.11.893-1.6.245zm1.216 14.34c-.168-.362-.273-.586-.376-.813.24-.082.48-.203.73-.22.078-.004.287.325.246.4-.117.207-.33.36-.602.634zm5.666-.735c-.44.175-.877.357-1.333.474-.085.02-.32-.215-.344-.356-.02-.123.145-.388.25-.398.47-.055.947-.045 1.422-.045.064 0 .13.074.198.11-.064.074-.114.18-.194.21zm2.185-5.235c-.907.014-1.816-.05-2.716.018-1.136.085-1.917-.324-2.45-1.333-.28-.528-.698-.984-1.046-1.474-.272-.382-.235-.755.093-1.073.434-.42.894-.813 1.342-1.216 1.434-1.3 1.6-2.96 1.27-4.72-.31-1.614-1.636-2.806-3.36-3.02-.997-.124-2.01-.083-3.015-.12-.65-.03-1.17-.284-1.405-.933-.202-.565-.39-1.137-.558-1.717-.11-.38.213-.842.613-.854.9-.025 1.8 0 2.7-.02.45-.01.86-.55.85-1.066-.017-.864-.514-1.656-1.305-1.803-.883-.16-1.803-.28-2.688-.213-.992.07-1.477-.34-1.845-1.18-.237-.54-.57-1.073-.99-1.473-.23-.22-.74-.246-1.1-.186-.202.032-.452.395-.5.643-.096.486-.128 1.003-.08 1.5.13 1.306-.287 2.292-1.32 3.162-1.204 1.006-1.63 2.463-1.922 3.986-.186.978.017 1.797.475 2.592.42.725 1.04 1.23 1.915 1.31.7.063 1.42.024 2.1.165.342.068.66.4.923.672.316.33.175.902-.218.98-.39.08-.818.028-1.192.15-1.378.44-1.757 2.1-.743 3.15.963 1 2.17 1.488 3.525 1.46 1.434-.03 1.847.98 2.29 2.005.044.09-.133.4-.223.41-1.097.075-2.195.114-3.712.183l-8.585-.893c-1.093-.114-2.192-.21-3.285-.34-.262-.033-.68-.13-.48-.515 2.074-4.064 2.89-8.533 4.075-12.88.928-3.403 2.174-6.693 3.624-9.89 2.453-5.41 4.542-10.943 6.34-16.598.116-.37.304-.725.522-1.045.053-.082.382-.064.52.02.15.09.282.292.317.468.73 3.77 2.14 7.32 3.484 10.89 1.528 4.05 2.603 8.225 3.675 12.406.373 1.453.772 2.953 1.49 4.248 1.145 2.072 1.623 4.302 2.115 6.556.256 1.173.557 2.336.888 3.49.248.868.58 1.712.868 2.57.504 1.494.5 1.5-1.274 1.53z"/></svg>