<svg xmlns="http://www.w3.org/2000/svg" width="128" height="128" viewBox="0 0 128 128"><path d="M17.634 75.207c.107.018.213.045.32.043 5.165-.13 10.336-.196 15.467-.896.85-.115 1.674-.395 2.517-.572.523-.11 1.062-.25 1.59-.23 3.566.127 7.092-.347 10.623-.73 2.785-.306 5.565-.662 8.354-.895 1.82-.15 3.654-.173 5.48-.156 1.504.017 3.008.244 4.512.25 4.316.023 8.64.123 12.945-.073 3.56-.164 7.08-.34 10.61.346 1.36.264 2.793.173 4.19.22 1.724.065 3.447.19 5.168.132 2.584-.088 5.166-.263 7.744-.49 2.377-.208 4.654-.852 6.776-1.974 1.244-.657 2.02-1.586 1.744-3.12-.153-.848-.213-1.71-.352-2.56-.604-3.61-1.445-7.167-2.286-10.73-.988-4.19-1.728-8.432-2.642-12.64-.87-3.993-1.986-7.927-2.67-11.97-.3-1.78-1.09-3.48-1.725-5.19-.42-1.127-1.31-1.65-2.522-1.66-1.295-.01-2.62.102-3.877-.13-3.106-.58-6.234-.354-9.355-.458-3.01.054-6.034-.08-9.03.468-.735.14-1.505.085-2.26.104-7.326.192-14.66-.107-21.98.555-3.535.32-7.1.15-10.627.783-2.432.438-4.958.342-7.38.805-2.895.555-5.79.482-8.696.594-2.365.09-4.725.32-7.08.56-1.167.116-1.968.972-2.117 2.11-.113.854-.096 1.726-.238 2.572-.96 5.736-2.055 11.447-2.885 17.197-.676 4.693-1.552 9.34-2.485 13.984-.597 2.95-1.075 5.928-1.493 8.91-.438 3.12.55 4.353 3.668 4.847zm2.413-7.935l2.89-16.136c.553-3.465 1.004-6.555 1.542-9.628.425-2.437.9-4.866.956-7.35.017-.825.41-1.39.93-1.978 1.765-1.998 4.087-2.5 6.487-2.008 2.475.51 4.93.36 7.396.418 2.047.047 4.1.048 6.15-.02 5.062-.172 10.164-.074 15.18-.684 6.04-.732 12.062-.558 18.067-.235 7.33.397 14.654.47 21.984.487.327 0 .65-.008.97.02.614.06.943.46 1.127 1.004.066.204.132.415.154.626.494 5.152 1.683 10.19 2.523 15.283.576 3.502.965 7.036 1.496 10.55.255 1.696.65 3.375.974 5.065.1.528.207 1.056.272 1.59.107.88-.434 1.378-1.385 1.264-.42-.054-.836-.17-1.256-.253-.424-.08-.885-.3-1.263-.203-1.806.46-3.602.21-5.414.107-1.722-.102-3.456-.063-5.18-.007-1.396.045-2.785.245-4.18.3-2.91.116-5.82.24-8.734.255-7.335.038-14.673-.043-22.005.058-2.464.034-4.937.367-7.37.766-2.257.37-4.502.385-6.767.422-1.607.027-3.212.267-4.818.405-1.07.09-2.144.24-3.217.24-2.267 0-4.53-.054-6.755.51-.413.102-.86.135-1.285.11-2.894-.18-5.785-.334-8.678.046-.613.08-.91-.37-.79-1.024zm95.758 12.042c-.194-.248-.456-.46-.715-.64-.836-.587-1.803-.686-2.784-.677-2.684.023-5.358-.35-8.056-.05-1.488.164-3.04.11-4.52-.115-3.22-.497-6.457-.35-9.683-.52-3.228-.167-6.453-.442-9.682-.48-3.758-.042-7.515-.17-11.28.428-2.966.47-6.017.41-9.028.59-2.58.154-5.165.303-7.744.474-1.504.1-3 .328-4.5.34-3.993.044-7.985-.02-11.978.003-1.725.008-3.477-.056-5.167.226-2.894.483-5.784.573-8.7.506-1.293-.034-2.592-.013-3.88.083-1.615.117-2.808.997-3.708 2.31-.712 1.034-.28 2.48.93 2.94.492.187 1.044.323 1.566.315 1.83-.036 3.66-.147 5.488-.222 1.288-.053 2.624-.33 3.858-.096 2.475.472 4.94.363 7.418.17 1.617 0 3.24.086 4.85-.014 6.56-.405 13.11-1.067 19.688-1.138 3.238-.035 6.475-.053 9.71-.096.97-.014 1.938-.064 2.908-.12 2.043-.123 4.085-.26 6.13-.388 2.896-.18 5.825.402 8.698-.37.197-.05.427.022.64.035 2.15.13 4.31.156 6.45.405 4.084.47 8.148.4 12.23-.032 3.213-.34 6.442-.523 9.665-.79.65-.054 1.34-.178 1.545-.924.208-.748.155-1.51-.35-2.154zm-2.618 19.794c-.637.004-1.272-.22-1.916-.25-3.214-.158-6.42-.523-9.66-.175-2.89.31-5.795.435-8.697.576-3.87.19-7.738.32-11.605.625-5.47.435-10.973.587-16.464.637-11.533.107-23.067.053-34.6.096-3.986.015-7.974.093-11.957.215-.837.023-1.707.258-2.48.587-.74.314-1.028 1.077-1.016 1.88.017.85.726 1.752 1.476 1.91.42.084.857.186 1.278.164 5.717-.3 11.403.5 17.112.474 6.9-.034 13.798-.008 20.698-.008v.053c5.067 0 10.133-.055 15.197.017 4.85.068 9.694.196 14.516-.48.416-.06.873-.034 1.277.077 2.023.554 4.07.302 6.112.21 3.225-.145 6.45-.31 9.675-.462 1.076-.053 2.194.073 3.223-.17 1.923-.46 3.85-.347 5.784-.387.965-.02 1.947-.042 2.893-.223 1.586-.3 2.25-1.598 1.854-3.12-.373-1.44-1.13-2.26-2.695-2.247zm-2.466-5.642c1.218.047 2.357-.245 3.47-.657.975-.365 1.5-1.213 1.512-2.263.01-.785-.2-1.5-.71-2.094-.202-.235-.473-.508-.75-.557-1.368-.25-2.755-.632-4.125-.6-5.586.135-11.177-.392-16.768.376-3.507.48-7.084.485-10.63.63-6.347.255-12.7.426-19.047.692-2.9.12-5.79.466-8.692.565-4.415.15-8.83.167-13.25.255-.962.02-1.945-.01-2.885.16-3.5.643-7.003 1.094-10.576.973-2.476-.084-4.957-.02-7.436-.017-.645 0-1.293-.005-1.938.02-.82.036-1.39.525-1.882 1.12-.53.646-.594 1.39-.32 2.133.28.764.875 1.216 1.707 1.278.43.033.863.04 1.294.038 4.203-.017 8.405-.035 12.606-.064.754-.003 1.547.096 2.253-.1 2.434-.674 4.912-.52 7.386-.54 2.69-.024 5.393.033 8.076-.158 6.116-.435 12.22-1.045 18.364-1.035s12.285.003 18.428.003v-.04c6.68-.053 13.36-.11 20.043-.16 1.294-.007 2.59-.01 3.88.04zM59.1 52.128c-.86.032-1.728-.015-2.58.07-.524.05-1.048.233-1.526.45-.7.324-1.03 1.12-.875 1.905.135.693.554 1.186 1.213 1.376.513.144 1.066.152 1.6.205.852.085 1.71.158 2.568.235.933.084 1.586.475 1.957 1.41.355.893.84 1.735 1.682 2.322.82.57 1.806.373 2.122-.533.17-.5.328-1.04.328-1.56 0-.912.368-1.305 1.276-1.49 1.368-.277 2.716-.69 3.878-1.53 2.17-1.56 2.71-3.905 1.455-6.262-1-1.88-2.627-2.783-4.673-3.022-1.06-.124-2.127-.184-3.192-.274-.832-1.016-.384-2.283-.656-3.41-.15-.625-.273-1.26-.37-1.898-.082-.533.547-1.048 1.064-.875.4.136.79.31 1.155.52.647.374 1.25.84 1.92 1.176.773.39 1.842-.367 1.834-1.244-.013-1.274-1.45-3.172-2.793-3.693-1.017-.396-4.32-3.25-4.976-4.223-.156-.232-.558-.485-.787-.437-.365.076-.815.32-.98.628-.246.452-.33 1.016-.383 1.54-.067.644-.036 1.295-.043 1.942-.007.574-.22 1.037-.714 1.355-.184.117-.357.245-.544.352-2.832 1.682-3.626 4.446-3.758 7.445-.07 1.595.722 2.942 2.25 3.63.77.35 1.633.506 2.465.7.63.146.88.544.927 1.134.027.32.043.645.043.968.002.645-.33 1.067-.89 1.086zm6.76-3.665c.846.083 1.687.267 2.514.47.592.146.808 1.006.46 1.62-.72 1.277-2.1 1.895-3.546 1.515-.252-.064-.544-.384-.62-.644-.146-.508-.155-1.056-.19-1.333-.006-1.11.538-1.71 1.38-1.626zm-6.3-3.864c-.066.194-.506.4-.74.365-.255-.037-.633-.32-.673-.546-.194-1.103.228-2.07.84-2.966.04-.06.186-.077.277-.07.087.01.235.063.245.118.11.51.2 1.024.287 1.487-.075.58-.077 1.12-.238 1.61zm17.332 1.897c.306.192.816.17 1.197.09.28-.06.493-.396.756-.575.302-.207.626-.38.94-.565.065.31.18.62.182.933.014.99.154 1.936.772 2.746.48.626 1.107 1.11 1.918.98.942-.148 1.867-.68 2.78-.64.912.037 1.712.878 2.743.77.107-.01.213-.002.21-.002 1.484-.023 2.243-.676 2.55-2.09.21-.987-.146-1.72-1.04-2.092-.988-.407-1.983-.79-2.964-1.205-.53-.224-1.013-.174-1.547.016-1.37.48-1.377.453-1.758-.827-.154-.515-.28-1.043-.484-1.538-.84-2.03-3.014-2.677-4.785-1.412-.97.696-1.765 1.563-2.306 2.65-.51 1.018-.243 2.084.835 2.764zm21.753 8.015c-2.136 1.744-2.57 4.117-2.33 6.694.03.302.224.605.395.875 1.064 1.68 3.3 2.568 5.362 2.148 2.077-.423 3.383-1.778 3.728-3.934.1-.633.083-1.285.077-1.173 0-1.08.025-1.404-.004-1.724-.22-2.432-1.834-3.902-4.257-3.947-1.134-.02-2.12.37-2.97 1.06zm3.525 2.955c.24.307.363.704.437.85-.035 1.75-.533 2.28-1.813 2.203-.453-.025-.836-.44-.693-.812.22-.578.46-1.156.768-1.69.3-.525 1.084-.83 1.3-.55zm-4.785-15.772c.117-.043 1.045-.144 1.68-.63 1.006-.775 1.95-1.71 2.676-2.745 1.163-1.66.934-3.23-.49-4.643-1.203-1.195-2.655-1.813-4.378-1.62-.418.048-.863.137-1.228.332-2.464 1.3-3.6 4.79-2.334 7.273.676 1.323 1.723 2.197 4.075 2.034zm-.087-5.15c.498-.667.866-.783 1.56-.514.29.11.337.28.093.46-.395.288-.81.544-1.17.78-.29-.21-.46-.312-.587-.446-.028-.032.043-.2.105-.277zM38.136 47.23c.885.435 1.175 1.084 1.195 2.035.013.625.284 1.248.47 1.867.268.89.89 1.397 1.758 1.73 1.115.427 2.17.267 3.075-.344.78-.53 1.277-1.557 2.096-1.934.92-.423 2.09-.27 3.103-.546.8-.22 1.088-.966 1.105-1.788.013-.66-.33-1.227-1.156-1.276-1.272-.075-1.97-.672-2.35-1.813-.063-.19-.25-.346-.396-.497-.505-.512-1.678-.363-1.958.29-.253.587-.388 1.22-.594 1.824-.17.5-.315 1.024-.57 1.48-.137.245-.483.5-.74.507-.22.005-.56-.297-.65-.535-.3-.8-.46-1.65-.773-2.446-.27-.686-1.176-1.19-1.792-1.13-.88.183-1.646.545-2.016 1.426-.163.4-.247.93.195 1.15zm-9.325-6.336c1.034 2.485 3.966 2.997 5.72.992 1.1-1.26 1.66-2.728 1.585-4.062-.003-3.14-1.758-4.84-4.42-4.64-2.636.196-4.492 3.055-3.628 5.59.24.71.46 1.428.744 2.12zM25.527 65.91c.27.14.616.24.912.213 1.867-.162 3.66-1.668 4.195-3.476.348-1.17-.122-2.432-1.184-3.044-1.193-.687-2.5-.757-3.68-.128-1.27.675-2.13 1.765-2.13 3.467-.02 1.14.684 2.332 1.885 2.967zm.858-3.324c.3-.75.976-1.067 1.768-.78.14.05.21.294.387.57-.305.355-.594.788-.98 1.11-.203.17-.576.197-.867.184-.274-.01-.456-.72-.31-1.085z"/></svg>