<svg xmlns="http://www.w3.org/2000/svg" width="128" height="128" viewBox="0 0 128 128"><path d="M118.033 75.932c-.083-3.108-.188-6.212-.37-9.316-.377-6.42-.526-12.86-.692-19.294-.13-5.042-.142-10.085-.214-15.13-.008-.535-.048-1.07-.092-1.606-.155-1.92-.3-3.844-.482-5.766-.193-2.013-.438-4.017-.64-6.027-.07-.717-.404-1.24-1.057-1.472-.798-.286-1.624-.633-2.453-.676-1.603-.087-3.25-.166-4.814.11-1.707.3-3.406.33-5.115.45-1.708.124-3.412.31-5.12.434-4.06.29-8.123.72-12.19.808-6.33.136-12.662.035-18.996.035-10.082-.065-20.168-.28-30.23.684-1.81.174-3.644.07-5.465.157-2.354.113-4.707.26-7.057.44-2.345.18-4.683.494-7.03.604-1.47.068-2.693.592-3.863 1.392-.654.45-1.084 1.006-1.148 1.83-.132 1.706-.413 3.407-.416 5.114-.02 11.27.005 22.538.053 33.805.005 1.387.304 2.77.345 4.156.043 1.493.03 3-.117 4.48-.218 2.24-.717 4.453-.832 6.69-.144 2.784-.053 5.58.013 8.37.023 1.067.244 2.126.42 3.184.05.3.167.683.39.843 1.203.875 2.38 1.89 4.06 1.493 1.27-.302 2.527-.335 3.826-.086.832.157 1.71.107 2.57.107 5.364.005 10.73.007 16.097-.012 3.147-.013 3.168-.02 5.184 2.373.55.655 1.088 1.32 1.628 1.985.562.687.55 1.056-.085 1.603-.324.28-.827.452-.987.794-.97 2.057-2.805 3.184-4.55 4.42-.523.373-1.032.768-1.557 1.137-1.272.893-2.07 2.18-2.662 3.545-.664 1.525.17 2.813 1.796 3.034.425.06.856.084 1.283.095 2.248.066 4.5-.045 6.735.363.52.096 1.075.058 1.606.01 2.667-.227 5.355-.348 7.996-.752 4.785-.734 9.587-1.008 14.417-.986 6.01.025 12.02-.027 18.03.083 2.068.038 4.02-.298 5.957-.913 2.173-.687 2.642-2.67.988-4.17-.158-.144-.352-.244-.525-.37-2.304-1.722-4.114-4.05-6.713-5.413-.275-.143-.472-.434-.704-.655-.757-.73-.82-1.043-.16-1.92 1.216-1.624 2.47-3.222 3.742-4.806.18-.224.542-.378.84-.42.634-.093 1.287-.156 1.923-.112 3.992.272 7.917-.472 11.85-.875 2.994-.308 5.964-.59 8.975-.465.85.032 1.717-.048 2.56-.192.785-.134 1.338-.653 1.598-1.43.102-.302.18-.617.245-.928.752-3.573 1.316-7.155 1.216-10.823zM18.097 59.624c-.494.18-.957.448-1.42.698-.358.194-.783.53-1.004-.03-.136-.345-.128-.972.094-1.194.67-.66 1.458-1.2 2.227-1.75.467-.332.94.057.95.748.025.683-.102 1.252-.85 1.53zm.92 5.392c.024.208.046.42.068.63.105 1.05-.18 1.866-1.273 2.268-.592.22-1.146.54-1.728.794-.322.142-.885-.39-.773-.754.158-.49.26-1.088.6-1.414.76-.725 1.645-1.317 2.485-1.955.235-.177.582.07.623.433zm-2.42-11.562c-.534.313-.83.192-.854-.358-.015-.32-.004-.64-.004-1.106-.37-1.61.66-2.658 1.904-3.595.245-.19.606-.02.687.33.05.208.086.42.126.63.498 2.592.424 2.757-1.86 4.1zm1.295-9.995c-.69.46-1.433.847-2.178 1.22-.1.052-.4-.103-.472-.236-.083-.15-.085-.42-.004-.58.507-1.013 1.432-1.493 2.458-1.78.14-.044.386.298.608.482-.158.363-.203.753-.41.89zm1.648 36.105c-.026.95-.06 1.897-.088 2.845-1.106.61-2.204 1.236-3.325 1.82-.123.064-.47-.06-.542-.188-.14-.25-.31-.676-.194-.836.358-.504.786-.998 1.286-1.355.797-.567 1.472-1.2 1.94-2.067.646-1.18.042-2.405-1.305-2.585-.21-.027-.43.017-.635-.015-.478-.075-1.04.585-1.414-.075-.4-.704-.116-2.205.467-2.635.77-.565 1.577-1.082 2.382-1.598.47-.3.86-.158.96.344.142.73.266 1.46.35 2.196.063.53.05 1.067.063 1.597.01.533.002 1.067.002 1.595h.058c0 .32.008.642-.002.96zm30.854 23.947c-.092.3-.21.6-.293.904-.19.704-.625 1.077-1.366 1.06-.21-.003-.422 0-.953 0 .106.005-.11 0-.32-.016-.95-.084-1.345-.607-1.062-1.462.3-.907.608-1.808.97-2.688.222-.538.647-.734 1.276-.63 2.493.41 2.496.393 1.752 2.833zm.256-8.54c-.658-.843-1.3-1.698-1.925-2.564-.245-.34.06-.882.5-.93.212-.02.426-.044.64-.04 2.996.074 5.994.187 8.99.22 2.46.03 4.91-.025 7.375-.192 4.7-.317 9.426-.288 14.14-.384.71-.014.905.31.684.947-.174.5-.288 1.035-.523 1.504-.974 1.956-2.347 3.183-4.77 3.012-2.99-.208-6-.194-9.58-.29-1.026 0-2.64-.086-4.24.017-3.23.206-6.413-.245-9.613-.49-.687-.057-1.26-.278-1.675-.812zm5.885 6.1c-.303 1.228-.63 2.446-.91 3.675-.113.49.042 1.163-.63 1.272-.882.145-1.638-.274-2.257-.884-.114-.117-.15-.405-.098-.576.275-.91.624-1.798.883-2.713.435-1.547.83-1.7 2.564-1.63.18.007.356.18.535.276-.03.197-.043.392-.09.585zm5.37 3.965c.214.483-.148.768-.626.835-.315.046-.636.053-.95.077-.21 0-.423.005-.636 0-.45-.014-.853-.38-.806-.77.202-1.695.58-3.34 1.78-4.643.192-.21.536-.3.826-.39.442-.15.958.223.86.596-.132.512-.263 1.026-.444 1.522-.337.928-.423 1.824-.005 2.773zm24.54-.905c.162.173.123.606.06.894-.03.155-.303.346-.482.365-.636.07-1.28.095-1.92.097-3.1.008-6.203.006-9.306.006v.018c-3.528 0-7.056.003-10.587 0-.48 0-.82-.39-.68-.795 1.883-5.47.1-4.587 6.11-4.49 3.957.065 7.912.138 11.87.16.812.003 1.428.232 1.988.814.964.994 1.997 1.923 2.947 2.932zm26.065-45.397c-.23 1.026-.112 2.14-.117 3.21-.025 3.33-.02 6.657-.053 9.985-.014 1.61-.288 3.195-.456 4.786-.155 1.45.32 2.96.49 4.448.048.422.022.858.008 1.288-.017.627-.34 1.003-.917 1.08-4.565.603-9.13 1.21-13.696 1.8-.64.082-1.286.1-1.93.1-5.47-.026-10.944.157-16.405-.385-.526-.053-1.067 0-1.6.034-2.672.173-5.34.413-8.016.506-2.467.088-4.94.013-7.407.02-1.08.003-2.128-.026-3.096-.648-.745-.477-1.59-.38-2.473-.32-5.56.405-11.11 1.01-16.702.87-1.5-.036-3.008-.036-4.46.466-.2.07-.422.096-.635.103-4.608.112-9.187.864-13.81.608-.773-.043-.853-.224-.42-.928.335-.547.8-1.06.96-1.653.297-1.077.993-1.227 1.942-1.216 2.47.03 4.94 0 7.405-.003 3.757-.002 7.514 0 11.27 0v-.092c5.797.088 11.593.16 17.388.27 1.928.036 3.853.25 5.78.24 3.212-.02 6.423-.19 9.636-.24 5.58-.084 11.16-.13 16.74-.193 1.93-.022 3.86-.065 5.794-.06 1.093.004 2.197-.083 3.12-.636 1.19-.712 2.403-.795 3.71-.66.744.078 1.5.082 2.246.033.22-.016.623-.344.606-.49-.405-3.436.59-6.806.376-10.25-.213-3.42-.07-6.866-.043-10.3.027-3.327.13-6.652.156-9.978.032-3.437.035-6.87.004-10.308-.02-2.573-.106-5.148-.19-7.723-.02-.53-.178-1.053-.243-1.58-.13-1.055-.282-2.114-.352-3.174-.105-1.58-.992-2.7-2.492-2.842-2.347-.224-4.7-.454-7.053-.512-3.968-.088-7.952-.233-11.91-.014-5.024.276-10.056.367-15.064 1.02-3.392.443-6.797.83-10.24.905-3.1.066-6.197.475-9.312.373-.643-.02-1.306.068-1.926-.06-3.203-.652-6.406-.335-9.615-.106-.847.064-1.712.09-2.55-.018-2.242-.3-4.48-.405-6.74-.33-2.362.074-4.725.013-7.086.046-.855.01-1.724.035-2.56.196-2.093.4-2.768 1.445-2.61 3.62.132 1.81.075 3.64.23 5.445.124 1.44-.573 2.21-1.788 2.674-.29.11-.823.252-.883.155-.206-.33-.368-.774-.336-1.155.14-1.707.198-3.445.574-5.104.367-1.62.25-3.172.092-4.775-.142-1.404.213-1.79 1.52-1.83.643-.022 1.287.01 1.93.022.968.02 1.934.013 2.898.075 4.303.277 8.567-.142 12.798-.825 1.71-.274 3.407-.352 5.122-.373 2.037-.023 4.107.168 6.112-.107 6.41-.872 12.846-.418 19.268-.62 1.502-.046 3.004.004 4.51-.01 2.996-.032 5.974-.043 8.968-.56 3.37-.58 6.83-.622 10.23-1.078 5.132-.69 10.27-.195 15.402-.214.733 0 1.474.23 2.197.407 1.04.256 2.06.576 3.1.843 1.67.43 1.665.42 1.754 2.06.035.642.008 1.307.175 1.917.66 2.424.517 4.883.462 7.355-.053 2.245-.064 4.514.17 6.746.34 3.213.297 6.427.382 9.643.073 2.676.248 5.348-.35 8.01zM24.923 50.57c.328-5.682.3-11.357.317-17.04.003-1.245.19-1.413 1.55-1.418 6.33-.008 12.66-.004 18.992-.004v-.093c5.58 0 11.164.12 16.738-.032 6.005-.165 11.96-.86 17.728-2.7.808-.257 1.675-.45 2.513-.452 6.548-.03 13.09-.01 19.637 0 .317 0 .65.045.946.154.175.064.354.273.416.456.1.298.135.626.146.945.35 10.077.87 20.15.523 30.238-.15 4.39-.35 8.785-.59 13.175-.08 1.49-.323 2.98-.546 4.46-.073.486-.483.66-.964.55-.314-.076-.62-.282-.922-.268-1.493.06-2.984.283-4.47.237-1.482-.048-2.928-.597-4.436.02-.562.234-1.27.142-1.91.146-4.077.04-8.155.064-12.232.092-1.29.01-2.546-.1-3.812-.454-1.852-.516-3.718-.67-5.702-.43-2.54.31-5.14.134-7.716.11-2.89-.032-5.786.094-8.672-.32-1.477-.213-3-.136-4.5-.14-6.333-.005-12.662.01-18.995.02-.32 0-.643.017-.964.013-1.73-.02-1.87-.144-1.896-1.764-.026-1.61-.04-3.22-.043-4.828 0-.972-.09-1.87-.652-2.755-.37-.584-.47-1.414-.478-2.138-.053-5.26-.305-10.538-.004-15.777z"/></svg>