<svg xmlns="http://www.w3.org/2000/svg" width="128" height="128" viewBox="0 0 128 128"><path d="M95.364 86.06c-.085-1.805-.367-3.604-.42-5.407-.06-1.827-.35-3.584-.844-5.344-.487-1.735-.86-3.52-1.07-5.31-.422-3.516-1.238-6.926-2.63-10.164-1.345-3.13-2.838-6.197-4.36-9.245-1.88-3.777-4.544-6.94-7.845-9.572-.667-.53-1.42-1.012-1.92-1.676-1.177-1.568-2.544-2.84-4.366-3.597-.196-.08-.358-.235-.52-.373-.95-.81-1.553-1.725-1.12-3.07.196-.6.252-1.25.314-1.883.16-1.653-.418-2.976-1.978-3.654-1.195-.52-1.756-1.36-2.09-2.592-.69-2.56-2.412-4.218-4.945-4.992-.703-.213-1.45-.35-2.183-.412-2.26-.193-4.413.246-6.58.948-4.012 1.3-7.367-.97-7.68-5.155-.18-2.426-.374-4.896 1.04-7.144.51-.813-.022-1.706-.96-1.954-2.98-.79-4.34-.01-5.132 2.965-.11.41-.158.84-.188 1.264-.235 3.342.235 6.595 1.387 9.732.288.783.687 1.643 1.295 2.17 2.57 2.218 5.443 3.743 9.006 3.108 1.254-.224 2.52-.477 3.712-.907 1.773-.644 3.57-.547 5.37-.373 1.254.117 2.33 1.275 2.53 2.552.045.288-.043.645-.194.896-.215.355-.508.685-.83.945-1.368 1.1-1.845 2.552-1.766 4.245.015.32-.02.644.013.96.155 1.39-.543 2.197-1.765 2.688-.69.282-1.37.592-2.03.94-.75.397-1.514.794-2.2 1.288-3.33 2.4-5.977 5.43-8.155 8.902-1.934 3.083-3.343 6.42-4.78 9.744-2.93 6.76-5.245 13.685-6.29 21.037-.867 6.11-.448 12.116.62 18.11.97 5.44 3.452 10.27 6.516 14.813 3.843 5.7 9.032 9.55 15.69 11.377.38.1.708.388 1.06.59h10.24c.34-.214.658-.486 1.024-.637 4.62-1.87 8.634-4.594 11.947-8.344 1.902-2.157 3.892-4.24 5.798-6.394 1.195-1.355 2.496-2.675 3.42-4.208 3.12-5.176 4.142-10.892 3.856-16.868zM66.692 41.55c.06-.67.53-1.247 1.152-1.366 2.22-.422 4.224-.105 5.845 1.65 2.462 2.678 4.472 5.697 6.323 8.805 2.67 4.487 4.89 9.214 6.487 14.195.646 2.01 1.08 4.117 1.332 6.216.132 1.08.912 2.2.14 3.335l-3.132.272c-.005-.05-.01-.102-.01-.155-.96.046-1.932.005-2.872.15-4.337.67-8.708.432-13.067.543-1.233.032-1.51-.17-1.66-1.43-.23-1.893-.37-3.807-.414-5.716-.014-.577.414-1.164.647-1.74.035-.098.12-.18.2-.247 2.672-2.216 2.593-5.184 2.22-8.213-.173-1.418-.8-2.67-1.882-3.604-1.08-.937-1.33-2.086-1.31-3.43.03-2.663-.028-5.327-.04-7.99 0-.425 0-.85.037-1.274zm-1.525-9.623c.206.16.357.523.352.79-.013.404-.196.794-.855.78-.113-.16-.37-.363-.397-.593-.054-.474.637-1.18.898-.978zM41.987 72.91c1.21-5.176 2.6-10.297 4.684-15.198 1.207-2.834 2.56-5.604 3.79-8.43.962-2.207 2.61-3.86 4.306-5.47.373-.356.864-.628 1.348-.815 1.978-.763 3.97-1.487 5.968-2.202.345-.123.926.318.924.687 0 .63.062 1.293-.103 1.885-.695 2.475-.833 5.02-1.076 7.552-.09.91-.352 1.595-1.202 2.074-3.362 1.892-3.74 5.16-3.808 8.53-.01.628.194 1.26.294 1.89.3 1.906 1.127 3.42 3.066 4.098 1.04.366 1.496 1.106 1.49 2.19-.013 1.7.02 3.402-.015 5.103-.014.803-.602 1.437-1.386 1.48-1.058.06-2.122.016-3.184.016 0 .05 0 .1-.002.147-.847-.043-1.712-.003-2.545-.145-3.375-.57-6.78-.47-10.18-.544-.424-.012-.85-.003-1.273-.04-.794-.076-1.298-.703-1.248-1.55.025-.423.063-.852.16-1.26zM88.73 93.923c-.58 1.252-.962 2.594-1.472 3.88-.99 2.502-2.397 4.78-4.17 6.773-4.22 4.743-9.15 8.606-14.88 11.4-1.046.512-2.145.944-3.25 1.327-.84.29-1.723.27-2.383-.433-.8-.855-1.617-.803-2.592-.32-.727.367-1.443.03-2.123-.32-.533-.28-.814-.71-.723-1.285.1-.626.348-1.23.442-1.856.076-.516.162-1.107-.018-1.56-.174-.438-.63-.847-1.062-1.078-.513-.275-1.052-.023-1.41.427-.46.583-.85 1.22-1.312 1.8-.092.12-.408.19-.54.12-.13-.065-.236-.35-.208-.515.192-1.154.48-2.293.627-3.454.198-1.58.343-3.174.414-4.767.023-.486-.25-1-.446-1.478-.146-.363-.864-.395-1.07-.064-.285.445-.58.89-.797 1.37-.528 1.162-.998 2.35-1.533 3.51-.093.205-.367.33-.557.495-.06-.307-.178-.62-.15-.92.033-.417.165-.83.27-1.24.214-.82.467-1.636.646-2.467.134-.62.218-1.255.25-1.89.033-.547-.106-1.074-.722-1.268-.573-.18-1.046.075-1.43.46-.374.377-.71.796-1.028 1.22-.25.338-.445.72-.686 1.07-.056.082-.235.18-.26.157-.14-.115-.342-.257-.358-.41-.218-2.085.565-3.98 1.2-5.89.43-1.31 1.025-2.568 1.53-3.856.157-.394.385-.822.34-1.206-.045-.355-.356-.747-.66-.974-.19-.14-.667-.11-.87.036-1.48 1.066-2.7 2.397-3.774 3.87-.24.332-.536.63-.85.897-.058.05-.448-.124-.46-.22-.06-.513-.152-1.06-.037-1.55.36-1.552.807-3.088 1.222-4.63.164-.613.394-1.22.483-1.844.135-.94.355-1.918-.155-2.817-.5-.882-1.446-.747-2.26-.92-.667-.143-.69-.7-.694-1.245-.01-.557.093-1.096.658-1.318.38-.154.828-.192 1.246-.195 1.808-.022 3.62-.012 5.43-.012 3.088.378 6.17.533 9.223-.25.707-.18 1.484-.13 2.227-.127 4.584.018 9.17.022 13.752.092 2.447.034 4.895.165 7.34.3 2.336.123 4.666.453 7-.136.53-.132 1.044.25 1.26.782.2.483.353 1.007.4 1.525.11 1.166.16 2.34.203 3.51.087 2.574-.11 5.097-1.217 7.494z"/></svg>