<svg xmlns="http://www.w3.org/2000/svg" width="128" height="128" viewBox="0 0 128 128"><path d="M29.032 74.723c3.008.367 5.905.14 8.79-.688 1.36-.395 2.617-.95 3.586-2.013.483-.528.988-.646 1.72-.537 1.75.264 3.506.33 5.225-.29.634-.226 1.184-.506 1.595-1.045.256-.337.282-.65.013-.995-.673-.864-1.646-1.17-2.65-1.38-1.995-.413-3.996-.783-5.99-1.185-.77-.156-.9-.346-.956-1.097-.047-.634.05-1.382-.252-1.87-.522-.844-.263-1.33.342-1.894.472-.44.907-.934 1.29-1.453.534-.72.054-1.672-.918-1.84-.248-.044-.73.106-.747.05-.108-.324-.21-.71-.13-1.028.63-2.513 1.403-4.993 1.92-7.53.328-1.605 1.216-2.647 2.47-3.52.606-.42 1.238-.82 1.778-1.317.595-.544.557-1.66-.014-2.276-.18-.2-.483-.293-.666-.496-.162-.177-.384-.504-.32-.65.78-1.78 1.496-3.586 3.173-4.806 1.046-.762 2-1.66 2.913-2.576.51-.516.888-1.18 1.248-1.817.31-.554-.144-1.375-.81-1.497-.355-.066-.74.01-1.105-.02-.16-.015-.31-.135-.465-.207.1-.15.176-.34.313-.446 3.19-2.466 6.618-4.43 10.652-5.16 3.976-.72 7.733-.338 11.19 1.96 3.273 2.176 6.17 4.734 8.577 7.85 3.328 4.313 5.87 8.996 6.99 14.372.36 1.722.584 3.483 1.075 5.163.847 2.883 1.077 5.818 1.075 8.79 0 1.45-.043 1.53-1.372 2.01-.783.284-1.57.555-2.373.79-2.85.83-5.627 1.86-8.282 3.203-.496.25-1.01.47-1.472.772-.898.587-1.224 1.637-.894 2.69.265.847 1.14 1.384 2.24 1.233.91-.125 1.8-.41 2.707-.595 5.184-1.064 10.23-2.606 15.115-4.638 3.78-1.576 7.35-3.552 10.427-6.306.897-.8 1.755-1.662 2.534-2.575.405-.476.704-1.1.875-1.707.337-1.178-.69-2.283-1.89-2.074-.447.08-.906.227-1.3.447-1.13.63-2.216 1.35-3.356 1.97-2.52 1.372-5.06 2.708-7.6 4.046-.368.192-.76-.06-.812-.46-.01-.092-.035-.185-.037-.276-.055-2.776.11-5.563-.533-8.3-.1-.428.39-.786.94-.72 1.558.192 3.113.4 4.67.597 3.47-.114 6.82-.843 10.17-1.568.993-.215 1.987-.462 2.945-.8 1.077-.378 1.628-1.373 1.458-2.382-.2-1.205-1.045-2.008-2.287-2.005-.826.002-1.657.157-2.47.31-2.638.49-5.238 1.14-7.916 1.455-2.2.26-4.402.707-6.437 1.655-1.62.755-1.678.577-2.114-1.243-.106-.448-.095-.924-.165-1.38-.65-4.26-1.98-8.278-4.242-11.97-2.848-4.64-6.456-8.592-10.81-11.852-2.32-1.736-4.867-3.053-7.68-3.808-.713-.192-1.436-.4-2.165-.47-5.717-.543-11.086.678-16.027 3.538-5.226 3.02-9.43 7.175-12.64 12.288-3.34 5.323-5.273 11.205-6.626 17.297-.3 1.355-.516 2.725-.79 4.085-.074.37-.577.59-.788.34-.565-.67-1.3-1.11-2.112-1.265-2.923-.55-5.724-1.536-8.602-2.224-.968-.233-2.023-.146-3.038-.12-.58.016-1.05.37-1.29.92-.29.65-.21 1.314.266 1.815.443.464.98.85 1.53 1.19 2.386 1.486 5.008 2.335 7.745 2.964 2.014.464 3.834.523 5.474-.928.356-.316.46.1.467.315.024.833.013 1.67-.01 2.503-.012.425-.378.712-.728.592-.438-.15-.863-.34-1.3-.48-1.06-.34-2.106-.736-3.186-.968-.687-.15-1.23.295-1.61.885-.286.446-.223 1.02.212 1.53.3.352.592.74.968.99 1.312.864 2.628 1.728 4.008 2.48 1.054.57 2.205.96 3.31 1.44.257.11.498.25.737.39.07.044.17.19.15.214-.08.117-.198.292-.31.3-3.89.227-7.53-.72-10.99-2.433-2.08-1.025-4.1-2.154-5.98-3.528-2.32-1.696-4.64-3.394-6.987-5.052-.75-.53-1.565-.994-2.402-1.373-1.09-.493-2.164-.26-2.772.542-.633.833-.47 1.757-.116 2.642.133.333.39.63.637.902.437.48.866.977 1.365 1.387 2.146 1.767 4.23 3.632 6.496 5.228 4.883 3.44 10.057 6.25 16.15 6.988zm7.42-16.006c.02-.064.147-.12.228-.128.047-.008.126.085.15.15.223.607.08 1.1-.396 1.43-.08.01-.178.057-.228.026-.07-.043-.157-.16-.14-.222.11-.425.24-.845.385-1.26zM118.9 83.844c-.434-.34-.907-.687-1.42-.86-1.927-.65-3.852-1.346-5.93-1.346-4.36-.004-8.72-.002-13.082-.002v.105c-3.99 0-7.98-.05-11.968.023-2.032.036-4.062.402-6.093.42-2.513.02-4.998.212-7.462.66-.248.05-.675.254-.666.352.032.33.132.763.37.945.43.332.966.54 1.48.748 2.776 1.125 5.7 1.602 8.66 1.82 3.697.266 7.396.593 11.11.4.46-.024.93.022 1.384.078.168.02.32.16.478.245-.126.107-.235.263-.378.31-3.096.96-6.19 1.927-9.295 2.852-3.734 1.11-7.45 2.26-10.95 3.997-1.073.532-2.102 1.172-3.096 1.844-.24.16-.39.646-.367.97.034.487.43.85.9.935.444.08.922.02 1.378-.026 1.29-.122 2.575-.354 3.868-.384 2.42-.056 4.8-.466 7.147-.97 7.83-1.68 15.265-4.5 22.463-7.967.83-.398 1.685-.833 2.372-1.436.78-.683 1.6-.787 2.556-.773 1.216.02 2.408.09 3.58.42.445.125.89.264 1.346.34.757.122 1.75-.446 2.06-1.137.386-.866.212-2.044-.446-2.56zm-46.634-7.658c.36.01.734-.11 1.08-.235.956-.336 1.22-1.566.48-2.264-.333-.316-.7-.623-1.104-.83-.826-.418-1.67-.8-2.534-1.136-1.895-.746-3.808-1.447-5.71-2.177-.362-.14-.522-.34-.44-.82.32-1.91.594-3.83.83-5.753.174-1.43.23-1.49 1.57-1.852 1.065-.288 2.156-.578 3.134-1.073 2.64-1.336 4.032-4.028 3.62-6.915-.26-1.835-1.114-3.352-2.882-4.155-.925-.42-1.9-.722-2.852-1.082-.74-.28-.913-.483-.91-1.19.006-1.484.025-2.97.056-4.453.013-.57.67-.95 1.22-.704.324.15.635.36.9.597.342.304.598.71.958.99.683.533 1.792.032 1.93-.838.28-1.792-.584-3.174-2.427-3.876-1.408-.538-2.743-1.714-3.505-3-.117-.202-.453-.383-.68-.376-.207.005-.528.253-.58.45-.142.533-.155 1.1-.243 1.65-.13.813-.623 1.3-1.394 1.565-.875.3-1.744.62-2.595.98-1.137.485-2.025 1.31-2.745 2.293-1.41 1.937-1.3 4.373.323 6.12.623.67 1.39 1.216 2.14 1.754.446.32.984.515 1.476.774.454.24.683.64.63 1.138-.124 1.104-.283 2.203-.435 3.303-.08.598-.35.737-.94.506-1.298-.505-2.572-1.067-3.89-1.496-.765-.25-1.465.162-2.004.7-.584.58-.644 1.345-.356 2.07.164.405.48.817.836 1.07 1.133.805 2.31 1.547 3.482 2.29.693.442 1.68.682 2.042 1.3.37.628.13 1.61.154 2.437.01.185.004.37.004.556H60.9c0 .74.014 1.483-.002 2.226-.02.927-.42 1.226-1.2.85-1.003-.487-1.98-1.02-2.965-1.535-1.15-.597-2.304-1.195-3.453-1.798-.76-.4-1.562-.555-2.418-.494-.8.06-1.338.828-1.06 1.58.13.34.27.724.52.96 1.34 1.277 2.604 2.675 4.106 3.734 4.136 2.923 8.827 4.69 13.7 5.925 1.314.338 2.757.198 4.143.23zm-6.374-21.664c.025-.365.02-.55.053-.73.102-.593-.14-1.395.693-1.598.762-.187 1.446.13 1.973.704.478.515.574 1.423.21 2.052-.18.31-.39.66-.685.832-.544.316-1.15.533-1.746.755-.33.122-.79-.25-.74-.576.08-.54.18-1.08.243-1.44zm-3.118-9.627c-.102.48.14 1.227-.546 1.337-.638.1-1.656-.843-1.762-1.472-.043-.245.002-.565.133-.768.51-.795 1.28-1.25 2.176-1.54.11.102.328.22.317.31-.078.716-.173 1.43-.32 2.134zM97.557 94.72c-3.04.47-5.93 1.43-8.768 2.596-3.346 1.372-6.756 2.54-10.244 3.524-7.442 2.1-14.987 2.394-22.6 1.43-2.295-.29-4.523-.99-6.512-2.284-.696-.456-1.444-.832-2.193-1.2-.324-.16-.7-.242-1.06-.29-.748-.1-1.468.81-1.14 1.486.32.66.66 1.346 1.144 1.884 1.634 1.81 3.58 3.27 5.82 4.213 3.436 1.446 6.998 2.45 10.782 2.405 1.02-.01 2.04 0 3.064 0 2.963-.03 5.932.017 8.863-.606 3.72-.79 7.41-1.686 10.995-2.947 2.81-.99 5.43-2.36 7.865-4.107 2.027-1.455 3.442-3.35 4.546-5.525.062-.123.017-.38-.075-.473-.103-.103-.33-.14-.49-.112zM52.8 96.01c.988-.202 1.968-.756 2.925-.703.968.055 1.903.67 2.85 1.04.085.034.166.09.256.112.985.243 1.967.53 2.964.706 1.13.203 1.96-.422 2.662-1.202.337-.376-.38-1.715-1.208-2.287-.38-.26-.795-.48-1.21-.688-.825-.415-1.654-.83-2.5-1.208-2.982-1.342-5.687-3.1-8.084-5.33-.745-.692-1.584-1.283-2.38-1.92-.6-.49-1.293-.708-2.343-.673-.09.016-.46.047-.81.157-.96.31-1.29 1.465-.65 2.246.177.213.4.387.578.6.873 1.077 1.74 2.158 2.606 3.24.167.21.113.37-.147.42-1.18.212-2.357.456-3.54.616-2.113.28-4.234.48-6.34.77-3.57.49-7.137 1.003-10.7 1.552-1.367.21-2.73.485-4.07.835-.933.243-1.323.98-1.21 1.92.105.84.617 1.297 1.396 1.532 1.986.596 4.008.63 6.054.456 1.566-.135 3.136-.207 4.704-.28.926-.047 1.857-.018 2.78-.054 4.168-.18 8.267-.978 12.403-1.43 1.013-.106 2.027-.23 3.02-.43zm-24.325-9.898c1.165.145 2.384-.176 3.512-.917.64-.422.72-.823.235-1.317-.86-.88-1.9-1.47-3.032-1.904-1.725-.658-3.463-1.284-5.192-1.934-4.977-1.872-9.62-4.288-13.413-8.126-.78-.786-1.685-1.445-2.562-2.123-.525-.403-1.403-.046-1.527.6-.07.357-.156.75-.075 1.09.166.715.33 1.46.676 2.094 1.16 2.125 2.595 4.032 4.573 5.502 3.67 2.724 7.65 4.843 12.014 6.213 1.5.464 3.02.887 4.795.82zm68.34-16.087c-.93.96-.436 2.707.842 3.16.427.15.91.272 1.353.24 1.283-.097 2.595-.136 3.83-.457 3.408-.88 6.55-2.46 9.706-3.995 1.93-.94 3.674-2.133 5.3-3.5.624-.522 1.15-1.194 1.627-1.863.587-.826.003-1.9-1.045-2-.366-.033-.738-.004-1.107-.004-1.97-.075-3.867.387-5.647 1.158-4.316 1.873-8.603 3.825-12.875 5.803-.734.338-1.414.88-1.98 1.46zm25.294 4.02c-1.09-.606-2.27-.75-3.487-.658-.462 0-.93-.055-1.385.01-3.282.467-6.56.957-9.843 1.443-1.547.228-3.112.397-4.643.72-.787.17-1.56.55-2.26.96-.692.408-.905 1.58-.4 2.225.382.483.91 1.052 1.46 1.173 1.522.334 3.08.642 4.664.448 4.023-.49 8.053-.962 12.072-1.493 1.472-.196 2.89-.632 4.102-1.547 1.41-1.07 1.287-2.41-.284-3.282zM25.99 92.27c1.48 0 2.962.014 4.442-.005 1.043-.015 2-.328 2.85-.95.465-.34.593-1.052.203-1.46-.312-.33-.645-.676-1.04-.89-1.147-.623-2.378-1.014-3.69-1.115-.736-.06-1.477-.096-2.213-.18-3.942-.463-7.883-.937-11.827-1.4-.274-.033-.555-.022-.832 0-1.07.09-1.877.67-2.123 1.506-.253.88.29 1.875 1.496 2.325 1.64.614 3.315 1.15 5.007 1.598 2.53.672 5.13.657 7.727.574zm38.194-11.208c-1.92-1.282-3.844-2.564-5.762-3.854-.634-.424-1.326-.634-2.086-.66-1.54-.054-2.387.956-2.125 2.503.134.78.575 1.37 1.127 1.863 2.437 2.17 5.115 3.953 8.27 4.917.525.16 1.075.23 1.4.295l.502-.02c1.2-.07 1.794-1.12 1.226-2.164-.626-1.153-1.446-2.142-2.55-2.876zm61.84-26.235c-.162-.752-.57-1.328-1.36-1.597-1.164-.395-2.31-.523-3.524-.208-1.958.507-3.944.91-5.905 1.408-.613.155-1.207.44-1.77.742-.518.28-.746.782-.754 1.38-.005.732.354 1.286.994 1.52.94.34 1.93.543 2.645.735 2.947-.328 5.59-.683 8.09-1.69.256-.104.507-.232.725-.396.622-.47 1.037-1.08.862-1.895zM22.28 50.31c1.677.973 3.288 2.092 5.17 2.647.69.203 1.45.285 2.17.252.965-.047 1.6-1.113 1.266-2.05-.15-.418-.397-.853-.717-1.15-1.734-1.6-3.856-2.507-6.05-3.258-.173-.056-.368-.037-.493-.048-.152 0-.245-.008-.338 0-.854.11-1.586.354-2.017 1.232-.328.675.224 1.703.79 2.2.067.062.136.126.215.173z"/></svg>