<svg xmlns="http://www.w3.org/2000/svg" width="128" height="128" viewBox="0 0 128 128"><path d="M120.97 60.328c-.103-3.133-.315-6.272-.703-9.383-.3-2.386-.725-4.752-.693-7.17.006-.406-.162-.817-.256-1.225-1.6-7.083-4.47-13.694-7.54-20.227-.255-.538-.716-1.056-1.212-1.387-1.486-.995-3.122-1.664-4.904-1.956-2.368-.39-4.728-.827-7.097-1.203-1.956-.31-3.89-.827-5.9-.752-.622.023-1.265-.048-1.87-.188-3.482-.804-7.01-1.08-10.572-1.26-3.134-.16-6.256-.388-9.397-.466-4.62-.113-9.198.4-13.794.62-2.816.14-5.65.357-8.418.854-6.592 1.18-13.045 2.865-19.232 5.542-2.082.9-3.648 2.396-5.416 3.67-.453.323-.482.92-.33 1.442.084.288.312.533.466.805.35.62.285.866-.34 1.045-.703.198-1.42.334-2.128.512-1.317.328-2.665.577-3.94 1.023-2.043.71-2.67 2.723-1.507 4.516.17.262.354.52.54.77 1.226 1.664 1.206 1.507-.485 2.46-.722.404-1.52.677-2.298.98-1.64.64-1.87 1.372-.815 2.812.304.414.695.78 1.097 1.107 1.55 1.283 2.805 2.8 3.755 4.58.59 1.107 1.26 2.173 1.916 3.243 2.022 3.294 3.664 6.814 6.068 9.89.805 1.035 1.128 2.45 1.634 3.71.226.56-.072.96-.73 1.07-.414.068-.83.113-1.246.155-3.676.362-6.61 2.415-9.613 4.272-.78.48-1.403 1.264-1.983 2-2.17 2.75-3.6 5.848-4.348 9.29-.72 3.317-.71 6.667-.48 10 .197 2.82.88 5.572 2.24 8.108 1.374 2.56 3.16 4.65 5.964 5.752 1.65.647 3.228 1.488 4.864 2.182 1.743.74 3.564 1.227 5.473 1.205 1.478-.017 2.934.123 4.33.592 4.077 1.364 8.414 1.612 12.487 2.975.677.228 1.44.263 2.164.28 1.57.035 3.143.02 4.713-.006 7.12-.11 14.238-.228 21.357-.34 10.57-.08 21.15.47 31.715-.264 1.78-.125 3.525-.353 5.267-.707 2.283-.466 3.552-1.808 4.27-4.05 1.69-5.28 3.13-10.615 4.33-16.023 1.447-6.548 2.413-13.162 2.612-19.866.112-3.66.096-7.332-.023-10.994zM22.322 33.995c1.118-.27 2.24-.523 3.53-.825.225.213.64.43.76.752 1.125 3.045 1.934 6.184 2.6 9.36.214 1.02.412 2.046.58 3.074.032.177-.114.384-.18.58-.16-.108-.332-.204-.485-.324-.08-.062-.14-.16-.186-.252-2.004-3.928-4.39-7.616-6.99-11.17-.39-.53-.212-1.053.374-1.196zm1.707 15.06c-1.377-2.495-3.24-4.61-5.06-6.767-.186-.222-.49-.494-.18-.803.28-.28.635-.49.96-.73.37.124.724.143.927.328.69.635 1.46 1.24 1.963 2.01 2.515 3.873 4.585 7.97 5.857 12.43.05.17-.08.39-.125.587-.128-.096-.306-.162-.38-.288-1.334-2.248-2.698-4.477-3.958-6.765zm4.727 45.104c-.725 1.847-1.483 3.682-2.248 5.515-.34.81-.97 1.305-1.785 1.662-1.867.82-3.66.768-5.387-.31-1.545-.96-2.75-2.242-3.548-3.89-.97-2-1.55-4.106-1.67-6.324-.05-.94-.007-1.884-.007-3.042-.26-3.545.552-7.06 2.453-10.316.907-1.55 1.933-2.98 3.503-3.952.65-.4 1.312-.597 2.077-.563.8.034 1.41.372 1.83 1.034 1.204 1.912 1.28 3.983.515 6.02-.917 2.433-1.743 4.935-3.74 6.815-.774.732-.555 1.823.416 2.356 2.288 1.254 4.618 2.436 6.937 3.63.933.48.992.494.65 1.363zm-.28-6.203c-1.378-.544-2.045-1.013-1.437-2.768 1.324-3.824 1.295-7.77.37-11.705-.165-.707-.306-1.422-.452-2.13-.102-.496.117-.863.563-.886.73-.04 1.458-.076 2.186-.068 1.355.014 1.842.357 2.127 1.758.29 1.422.423 2.876.64 4.417-.334 2.51-.642 5.086-1.037 7.648-.19 1.227-.527 2.436-.832 3.645-.117.47-.435.624-.928.427-.384-.15-.815-.184-1.198-.337zm86.714-6.645c-.51 4.775-1.49 9.493-2.634 14.165-.348 1.422-.657 2.853-1.05 4.262-.447 1.615-1.128 3.13-1.97 4.594-1.47 2.555-3.817 3.56-6.517 3.67-2.71.113-5.437-.15-8.156-.246-1.045-.037-2.093-.094-3.14-.097-12.988-.052-25.977-.12-38.964-.13-3.985 0-7.965-.146-11.9-.72-3.627-.53-7.115-1.66-10.49-3.105-.56-.242-.646-.825-.128-1.26 2.866-2.41 4.146-5.722 5.205-9.143 1.685-5.43 2.475-11.004 2.47-16.69-.002-4.188.14-8.385-.064-12.564-.26-5.428-.856-10.828-1.94-16.174-1.018-5.024-2.424-9.947-3.646-14.916-.373-1.512-1.032-2.957-1.585-4.422-.537-1.422-.444-1.743 1.147-2.23 3.494-1.066 6.995-2.124 10.53-3.053 4.66-1.22 9.426-1.902 14.21-2.352 3.224-.304 6.485-.324 9.73-.32 5.236.004 10.476.03 15.708.243 3.334.14 6.67.442 9.978.994 2.06.343 4.147.597 6.23.693 2.646.127 5.142.905 7.684 1.48 1.17.266 1.967.96 2.457 2.17 2.56 6.317 4.522 12.8 5.755 19.512.775 4.224 1.262 8.47 1.37 12.772.076 2.923.37 5.84.556 8.54-.276 4.938-.35 9.657-.852 14.33zm-7.923-30.226c-2.734-.807-5.53-1.123-8.347-.453-3.242.77-3.74 1.4-3.76 4.715-.025 4.08-.006 8.157-.006 12.237h.11c0 3.765-.08 7.534.027 11.294.075 2.496.397 4.986.64 7.473.1 1.02.804 1.61 1.906 1.717.208.022.416.022.625.037 2.174.165 4.355-.302 6.54.33 1.18.337 2.474-.882 2.643-2.138.096-.723.077-1.46.088-2.193.078-6.067.1-12.13.246-18.197.085-3.538.203-7.086.97-10.575.155-.698.142-1.466.044-2.178-.145-.998-.775-1.792-1.72-2.07zm-3.797 31.808c-.04.476-.347.742-.812.76-.62.02-1.246.02-1.867-.008-.62-.03-.993-.373-.995-.93-.003-.934-.007-1.872.067-2.8.02-.236.323-.63.51-.64.923-.046 1.872.154 2.698-.478.023-.022.36.223.378.366.078.617.092 1.24.12 1.732-.03.754-.042 1.378-.095 1.998zm1.56-26.784c-.498 2.877-.756 5.804-.948 8.72-.17 2.612-.128 5.238-.16 7.856-.013 1.022-.26 1.773-1.363 2.195-.855.33-1.583.99-2.38 1.474-.048.026-.34-.183-.355-.3-.072-.638-.064-1.316.523-1.708 1.846-1.227 2.268-3.18 2.705-5.13.197-.878-.158-1.134-1.232-.91-.67.14-.827.02-.654-.5.23-.694.476-1.386.713-2.08.174-.506.34-1.104-.184-1.404-.242-.138-.745.204-1.137.29-.177.037-.425.058-.545-.037-.096-.075-.13-.378-.06-.504.817-1.46 1.67-2.9 2.485-4.363.342-.613.178-1.2-.204-1.762-.437-.64-.966-.718-1.543-.162-.15.143-.256.33-.388.49-.128.16-.267.313-.402.467-.135-.152-.363-.29-.392-.46-.19-1.125-.37-2.258-.494-3.394-.053-.474.27-.8.736-.82.837-.042 1.676-.012 2.513-.012v-.05c.42 0 .838-.007 1.26 0 1.647.033 1.828.286 1.514 2.108zM81.384 87.26c.01.21.02.42.047.626.108.78.64 1.376 1.43 1.43.936.063 1.877.015 2.818.015.01.056.02.113.028.17 1.852-.295 3.712-.554 5.552-.91.482-.09.984-.382 1.344-.723.26-.242.513-.804.403-1.075-.578-1.42-.363-2.89-.418-4.343-.187-4.807-.363-9.61-.576-14.417-.032-.724-.192-1.447-.336-2.16-.547-2.667-1.056-5.333-.866-8.075.016-.21.008-.42-.004-.63-.096-1.66-1.024-2.597-2.62-2.346-1.847.29-3.68.74-5.48 1.265-1.577.46-2.337 1.722-2.49 3.296-.103 1.036-.023 2.092-.032 3.137-.033 3.976.3 7.936.545 11.904.267 4.275.443 8.56.658 12.838zm6.7-3.712c-.12.267-.65.357-1.005.5-.057.022-.167-.087-.38-.207.446-.64.883-1.272 1.32-1.902.06.06.165.12.165.18-.008.483.083 1.02-.1 1.43zm-.057-4.604c-.028.056-.197.11-.245.077-.127-.08-.33-.235-.308-.315.067-.28.205-.544.334-.806.043-.08.14-.135.21-.2l.315.527c-.084.21-.176.47-.303.715zm-3.5-20.45c3.02-.805 3.32-1.416 3.26 2.386-.013.83.09 1.666.214 2.49.61 3.943.54 7.908.385 11.874-.007.222-.043.733-.512.47-.235-.13-.373-.46-.526-.716-.035-.06.053-.194.077-.293.075-.304.192-.606.21-.913.05-.715.25-1.532-.51-1.987-.622-.373-1.178.14-1.757.333-.205.068-.544-.085-.745-.24-.106-.08-.116-.415-.04-.578.268-.56.595-1.092.886-1.643.44-.828.885-1.653 1.297-2.498.26-.536.013-.91-.7-1.087-.288-.07-.587-.077-.885-.11.007.017.007.032.015.05-.038.007-.078.01-.117.017-.073.08-.146.157-.218.237.02-.066.025-.166.07-.194.043-.025.094-.035.147-.043.02-.02.043-.047.064-.07l.04.005c-.277-.78.35-1.337.514-2.005.126-.506.32-1.107-.21-1.41-.238-.135-.737.125-1.086.276-.875.376-.978.363-1.024-.32-.046-.728-.094-1.46-.102-2.19-.013-1.188.212-1.562 1.253-1.84zm-34.53-20.24c0 2.195-.036 4.388.02 6.58.018.71.203 1.44.44 2.116.254.72 1.3 1.304 2.003 1.264.837-.05 1.807-.934 1.908-1.805.062-.515.062-1.044.032-1.56-.132-2.188-.293-4.37-.416-6.557-.008-.138.208-.306.35-.424.052-.044.23-.02.287.034.45.434.898.87 1.32 1.33 1.55 1.69 3.087 3.4 4.648 5.083.423.456.875.914 1.39 1.254 1.445.954 3.324.13 3.605-1.556.083-.512.075-1.042.075-1.563 0-3.444-.005-6.89-.02-10.34 0-.623-.004-1.257-.1-1.87-.156-.947-.56-1.778-1.29-2.446-.906-.832-2.426-.602-2.87.52-.343.866-.482 1.75-.395 2.74.175 1.97.11 3.958.122 5.94 0 .175-.136.437-.277.504-.147.067-.445.01-.57-.105-.527-.5-1.02-1.036-1.52-1.564-1.51-1.59-3.008-3.19-4.525-4.77-.605-.63-1.357-.93-2.245-.93-1.255-.005-1.998.614-2.018 1.86-.033 2.084-.01 4.173-.01 6.26h.057zm33.35.943c.296.86.848 1.688 1.46 2.373.925 1.04 2.817.836 3.543-.338.43-.7.68-1.51 1.044-2.25.08-.168.303-.27.474-.38.016-.012.162.13.203.22.337.76.61 1.553 1.01 2.276.348.63.768 1.245 1.275 1.75.79.785 2.115.643 2.724-.316.377-.594.58-1.316.767-2.008.97-3.563.302-7.3 1.225-10.74-.1-.764-.11-1.398-.276-1.99-.2-.713-.538-1.375-1.406-1.496-.802-.114-1.475.17-1.9.823-.33.51-.586 1.1-.73 1.688-.146.6-.098 1.246-.17 1.867-.016.14-.163.265-.25.395-.066-.08-.16-.15-.195-.24-.335-.872-.516-1.848-1.024-2.603-.82-1.23-2.147-1.372-3.083-.032-.46.66-.65 1.522-.91 2.31-.355 1.083-.66 2.182-.987 3.275-1.17-.634-.982-1.992-1.56-2.947-.376-.62-.608-1.33-.98-1.952-.21-.344-.563-.61-.883-.875-.44-.366-1.414-.164-1.62.373-.184.47-.37 1.01-.317 1.493.1.926.32 1.85.576 2.748.63 2.204 1.242 4.416 1.99 6.578zm-6.425 39.76c-.16-2.92-.365-5.835-.525-8.754-.064-1.177-.456-2.244-.96-3.28-.288-.596-1.024-1.034-1.533-.852-1.978.7-3.952 1.497-5.312 3.153-1.136 1.38-2.03 2.96-1.178 4.89.157 3.546.907 7.05.79 10.617-.03.835-.03 1.677.046 2.507.117 1.3 1.084 1.973 2.384 1.775.71-.11 1.43-.172 2.144-.223 1.146-.08 2.293-.106 3.438-.204.587-.05 1.19-.66 1.293-1.218.055-.306.066-.62.097-.902-.032-.45.002-.883-.1-1.28-.527-2.048-.47-4.144-.588-6.23zm-6.467-7.52c-.025.013-.147-.13-.194-.216-.045-.08-.096-.2-.067-.27.363-.95 1.187-1.298 2.075-1.537.046-.01.186.317.28.486-.068.183-.084.456-.218.534-.607.367-1.24.683-1.878 1zM72.52 74.1c-.134.16-.278.356-.455.516-.018.017-.22-.164-.337-.254l.585-.587.208.324zm-.96 7.03c-.172-.618-.118-1.22.41-1.665.108-.088.42-.11.487-.03.413.487.592 1.068.267 1.654-.12.22-.457.32-.678.46-.208-.172-.446-.27-.49-.42zm.917 3.99c-.135.02-.405-.128-.432-.245-.147-.608.216-1.306.717-1.478.075.01.203.008.213.037.078.282.192.567.19.856 0 .435-.24.764-.69.832zm6.23-43.773c-.568-.338-1.162-.465-1.805-.34-.818.157-1.63.35-2.45.482-.158.023-.396-.128-.513-.266-.578-.668-.255-2.112.53-2.357.895-.284 1.82-.47 2.708-.78.8-.276 1.22-1.114 1.13-2.036-.085-.863-.757-1.564-1.647-1.607-.62-.032-1.25.056-1.876.078-1.195.04-1.4-.166-1.45-1.456-.02-.418-.028-.838-.016-1.26.018-.628.34-.996.925-1.025.836-.044 1.678-.003 2.504-.105.646-.078 1.19-.467 1.403-1.11.25-.75.08-1.473-.485-2.028-.288-.283-.672-.49-1.047-.655-1.45-.63-2.845-.335-4.257.222-1.855.733-2.88 1.952-2.82 4.032.06 2.094.015 4.192.015 6.285h-.117c0 2.305-.04 4.61.014 6.913.038 1.732.88 2.414 2.635 2.272.415-.032.837-.075 1.24-.18 1.514-.406 3.02-.833 4.526-1.27.296-.087.574-.248.85-.398.608-.328.866-.878.9-1.547.038-.778-.174-1.43-.896-1.86zm18.4 2.997c.886 1 2.038 1.46 3.353 1.403 2.002-.087 3.883-.597 5.7-1.496 2.842-1.4 2.892-5.26 1.09-6.925-.69-.635-1.428-1.218-2.156-1.816-.4-.33-.838-.618-1.224-.964-.46-.416-.405-1.237.098-1.666.486-.417 1.02-.733 1.702-.585.51.11 1.01.284 1.523.33.85.08 1.61-.598 1.742-1.462.19-1.277-.663-2.543-1.978-2.76-.816-.138-1.668-.164-2.496-.105-2.85.21-4.783 2.27-4.95 5.102-.108 1.813.506 3.285 1.87 4.437.715.605 1.51 1.117 2.25 1.692.605.464.425 1.067-.325 1.412-1.085.496-2.213.565-3.646.478-.35 0-.98-.057-1.594.017-.68.078-1.116.56-1.362 1.167-.264.654-.032 1.248.402 1.74zm-22.2 48.993c-.29-.107-.604-.226-.904-.218-2.496.073-5.01-.317-7.485.353-.595.162-1.24.213-1.86.196-3.545-.1-7.094-.2-10.636-.38-2.096-.106-4.173-.163-6.22.38-.658.174-1.048.69-1.07 1.367-.027.773.455 1.483 1.16 1.653.402.097.82.16 1.234.182 3.854.21 7.71.403 11.565.6 0-.043 0-.088.004-.13 1.88 0 3.8.242 5.627-.065 2.188-.363 4.355-.403 6.543-.437.623-.01 1.25-.043 1.86-.15.64-.115 1.313-1 1.313-1.592.003-.64-.565-1.55-1.13-1.76zm31.24 4.95c-.442-.202-1.023-.166-1.537-.136-2.075.123-4.15.308-6.224.424-4.994.277-9.988.53-14.984.798-.416.022-.836.04-1.242.123-.3.062-.587.208-.86.354-.522.276-1.008 1.066-.916 1.53.133.644.496 1.188 1.09 1.44.462.2 1.008.25 1.52.267 1.356.032 2.71.01 4.422.01 2.665-.208 5.67-.48 8.683-.67 3.113-.2 6.233-.317 9.35-.48.413-.024.832-.086 1.227-.204.88-.256 1.412-1.547.873-2.317-.334-.48-.865-.896-1.4-1.138zm-32.22 2.29c-.97-.492-2.002-.527-3.058-.527-6.38-.002-12.76-.02-19.14-.032-.626 0-1.263-.026-1.877.066-.504.075-1.067.203-1.446.504-.37.29-.68.806-.766 1.27-.1.543.344.964.82 1.215.954.506 1.997.573 3.053.573 3.346-.003 6.693-.002 10.042-.002v.166c3.345 0 6.69.004 10.037-.004.625-.002 1.255-.02 1.874-.1.773-.095 1.387-.696 1.508-1.386.12-.668-.335-1.39-1.045-1.747zm7.842-3.912c.506.093 1.033.1 1.55.102 1.98.01 3.96.004 5.94.004v.07c2.604-.073 5.21-.11 7.81-.23 1.553-.07 3.1-.277 4.654-.397.62-.048 1.252.018 1.872-.04 1.106-.105 2.155-1.157 2.046-1.997-.107-.838-.987-1.64-1.945-1.766-.206-.026-.416-.046-.623-.04-2.083.065-4.19-.042-6.24.25-1.873.266-3.73.324-5.6.33-2.085.003-4.17-.014-6.254-.01-.73 0-1.46.01-2.186.06-.412.028-.847.076-1.216.24-.695.304-1.202.83-1.29 1.63-.076.686.708 1.657 1.48 1.796zM46.672 62.792c.877.292 1.813.405 2.755.6 3.188-.43 6.37-.85 9.55-1.31.397-.057.782-.276 1.144-.473.757-.416 1.19-1.343 1.02-2.1-.223-1-.957-1.76-1.905-1.763-1.138-.005-2.322-.045-3.404.24-2.144.562-4.31.597-6.49.648-.816.02-1.664.134-2.428.402-.546.192-1.03.66-1.45 1.094-.463.48-.44 1.2.022 1.703.34.373.728.804 1.182.956zM49.52 83.62c-.75.002-1.445.15-2.013.7-.477.465-.765.992-.622 1.67.144.688.66 1.028 1.275 1.236.196.067.41.08.618.103 3.823.432 7.712-.255 11.515.72.79.2 1.584-.65 1.685-1.51.092-.785-.13-1.45-.772-1.933-.86-.643-1.827-.99-2.912-.98-1.46.01-2.926.002-4.387.002v-.015c-1.46 0-2.925 0-4.386.002zm-1.44-12.667c1.465.01 2.926.002 4.387.002v-.043c1.67 0 3.344.066 5.008-.032.693-.038 1.43-.314 2.037-.672 1.058-.63.968-2.233-.08-2.87-.843-.51-1.77-.714-2.71-.48-1.855.464-3.732.315-5.607.355-1.25.03-2.512-.025-3.755.105-.575.06-1.18.378-1.663.725-.766.542-.693 1.603.05 2.125.705.49 1.476.78 2.337.785zm10.034 8.28c.312 0 .624-.033.933-.08 1.163-.184 1.792-.995 1.728-2.2-.056-1.027-.708-1.633-1.877-1.654-1.772-.03-3.542-.01-5.31-.01v.14c-1.668 0-3.334-.016-5 .01-.62.01-1.247.078-1.855.193-.584.11-1.22.787-1.15 1.32.064.48.254 1.018.568 1.376.58.66 1.423.816 2.28.824 3.228.028 6.453.058 9.68.08zM44.477 42c-.672-.477-1.33-.98-2.044-1.384-.328-.187-.804-.288-1.167-.21-.82.182-1.59.588-1.905 1.415-.164.437-.164 1.015-.032 1.467.165.563.71.676 1.288.55.635-.323 1.122-.026 1.65.364.306.23.746.334 1.14.385.68.085 1.346-.472 1.557-1.237.155-.557-.025-1.016-.485-1.344zm.192-6.196c.172-.286.143-.816 0-1.138-.16-.354-.575-.626-1.034-.402-.853.416-1.544.226-2.277-.352-.455-.356-1.09-.48-1.38-.597-1.114.032-1.765.46-1.9 1.21-.06.345.074.96.312 1.08 1.086.552 2.215 1.046 3.376 1.417 1.164.373 2.218-.096 2.9-1.218z"/></svg>