<svg xmlns="http://www.w3.org/2000/svg" width="128" height="128" viewBox="0 0 128 128"><path d="M111.546 79.356c-.075-1.104-1.134-1.893-2.237-1.86-1.043.033-2.093.204-3.11.43-2.67.598-5.324 1.265-7.988 1.89-.8.186-1.126-.097-1.154-.988-.108-3.48-.225-6.96-.294-10.443-.066-3.275-.035-6.55-.11-9.824-.25-10.66.197-21.333-.593-31.985-.263-3.573-.433-7.155-.66-10.73-.13-2.073-1.596-3.52-3.646-3.62-.526-.025-1.056 0-1.583 0-7.29.033-14.58.018-21.87.105-6.332.076-12.662.276-18.994.4-1.264.023-2.528-.054-3.795-.1-1.58-.06-3.16-.224-4.735-.184-2.528.066-5.053.28-7.58.4-1.42.066-2.607.572-3.793 1.374-1.52 1.03-2.725 2.336-3.88 3.7-1.166 1.375-2.436 2.612-3.793 3.8-1.42 1.247-2.7 2.672-3.913 4.124-1.285 1.536-2.414 3.203-3.627 4.8-.444.584-.845 1.264-1.425 1.672-1.536 1.084-2.1 2.89-3.304 4.217-.307.34-.403.99-.393 1.49.08 3.378.203 6.753.34 10.128.054 1.266.268 2.524.286 3.784.072 5.387.092 10.776.143 16.163.014 1.266.034 2.535.117 3.8.336 5.156.74 10.308 1.035 15.468.146 2.53-.168 5.114.23 7.593.376 2.33.29 4.62.33 7.19-.247 2.826.406 5.838.77 8.874.45 3.726.718 3.987 4.54 4.06 2.53.047 5.056-.03 7.584.3 1.452.193 2.956.052 4.43-.03 1.682-.097 3.362-.284 5.042-.45 1.152-.11 2.3-.27 3.452-.383 2.832-.275 5.664-.694 8.5-.773 8.545-.235 17.103.032 25.64-.68 3.256-.273 6.53-.508 9.795-.495 3.473.013 6.96-.302 10.424.34 1.29.24 1.888-.292 2.39-1.526.61-1.498.863-3.053.682-4.645-.184-1.62.23-3.147.6-4.68.08-.34.496-.67.837-.853.357-.192.82-.174 1.222-.296 2.406-.735 4.98-.92 7.217-2.244.627-.37 1.386-.51 2.056-.813 1.052-.478 2.096-.973 3.115-1.515 2.47-1.314 3.568-3.467 3.75-6.19.07-1.05.19-2.11.43-3.127.19-.795.05-1.492-.322-2.127-1.012-1.73-2.01-3.428-2.154-5.536zM16.326 36.06c.616-.715 1.175-1.515 1.915-2.075 3.72-2.795 7.066-5.995 10.37-9.253.22-.22.448-.45.708-.623.133-.087.345-.083.516-.068.055.004.14.174.14.267.01 1.895.007 3.793.007 6-.246 1.54.444 3.45-.362 5.262-1.76.252-3.54.416-5.28.78-2.287.477-4.58.66-6.9.624-.212-.003-.422-.014-.634-.028-.437-.033-.747-.572-.476-.886zm74.417-12.742c-.128 1.892-.388 3.782-.4 5.675-.072 13.097-.095 26.194-.13 39.29-.007 2.22.06 4.437 0 6.653-.04 1.472-.28 2.936-.374 4.407-.203 3.098-.2 2.544-2.957 3.106-8.08 1.65-15.834 4.346-23.627 6.93-2.112.703-4.29 1.06-6.464 1.457-5.49 1-11.008 1.856-16.42 3.24-1.22.31-2.39.816-3.6 1.17-.897.263-1.5.784-1.684 1.693-.2.985-.848 1.374-1.747 1.572-.613.135-1.21.367-1.805.58-.293.106-.578.244-.85.404-.498.296-.8 1.088-.656 1.66.152.606.773 1.145 1.4 1.057.93-.132 1.844-.38 2.77-.574 1.13-.24 2.21-.525 3.33.24.992.677 2.21.51 3.38.494 3.82-.048 7.524-.888 11.265-1.483 2.39-.375 4.78-.863 7.186-.99 3.49-.18 6.896-.81 10.318-1.38 1.553-.26 3.09-.633 4.63-.967 2.985-.645 5.95-1.402 8.956-1.912 1.752-.3 3.568-.234 5.355-.274.67-.014 1.06.53 1.092 1.297.043.946-.32 1.61-1.003 1.74-1.45.278-2.916.462-4.345.81-.69.165-1.355.547-1.948.952-.615.42-.544 1.44.02 1.948.764.69 1.662.9 2.644.732.934-.16 1.85-.398 2.78-.557.567-.1 1.047.355 1.007.91-.037.524-.1 1.046-.18 1.567-.425 2.61-.428 2.61-3.164 2.522-.318-.012-.647.03-.95-.047-3.33-.845-6.723-.445-10.09-.453-3.37-.008-6.758-.307-10.114.315-.41.077-.844.05-1.265.023-8.966-.544-17.944-.402-26.914-.284-3.89.05-7.775.596-11.666.874-1.472.107-2.955.12-4.43.13-.733.005-1.22-.415-1.3-1.122-.118-1.047-.204-2.103-.236-3.157-.047-1.582 0-3.17-.054-4.752-.177-5.378-.594-10.74-1.013-16.103-.31-3.997-.557-7.997-.9-11.992-.28-3.252-.662-6.5-.982-9.75-.083-.84-.085-1.686-.15-2.53-.16-2.207-.38-4.412-.484-6.62-.102-2.214-.112-4.434-.112-6.652 0-.93-.154-2.03.273-2.752.512-.867 1.74-.306 2.645-.45 3.563-.577 7.16-.513 10.736-.314 1.507.085 2.944-.053 4.38-.33 1.98-.385 2.896-1.47 2.87-3.557-.037-3.264.1-6.523-.442-9.792-.41-2.48-.288-5.05-.37-7.583-.02-.686.457-1.104 1.238-1.115 1.16-.015 2.32.032 3.482.032 5.702.003 11.407 0 17.11 0v-.03c5.492 0 10.983-.046 16.476.02 3.19.036 6.325-.444 9.43-.978 2.43-.42 4.83-.368 7.25-.358.763.004 1.066.384 1.034 1.245-.05 1.37-.14 2.74-.23 4.11zM106.17 93.66c-2.593 1.123-5.078 2.575-8.03 2.933-.436.122-.938.28-1.447.398-.422.098-.59-.26-.603-.542-.025-.625.002-1.265.102-1.883.088-.53.384-.97.924-1.195 1.635-.68 3.08-1.705 4.843-2.203 1.9-.54 3.646-1.61 5.465-2.443.638-.29.984-.06 1.088.576.335 2.067-.5 3.56-2.34 4.357zm11.777-17.447c-.2-.064-.4-.14-.587-.23-2.023-.976-3.827.907-3.667 2.514.196 1.977.493 3.945 1.182 5.824.143.388.36.765.613 1.09.975 1.25 2.882 1.25 3.808-.06.98-1.39 1.48-2.995 1.77-4.664-.394-2.418-.187-3.535-3.12-4.472zm-37.66-16.26c-2.156-.466-4.26-1.166-6.54-.913-1.67.186-3.37.123-5.06.142-5.378.06-10.76.102-16.14.163-.525.006-1.047.087-1.573.14-3.035.285-6.065.685-9.107.835-3.472.17-6.955.145-10.432.15-.715 0-1.458-.165-2.144-.388-2.77-.9-5.41-.245-8.027.62-.64.21-.992 1.106-.867 1.874.107.674.862 1.336 1.555 1.355.208.005.42-.006.623-.044 2.37-.445 4.742-1.01 7.042.286.085.05.205.05.31.057 2.623.21 5.244.522 7.87.59 1.452.04 2.91-.384 4.374-.51 2.94-.255 5.88-.56 8.825-.644 5.06-.143 10.125-.143 15.19-.178 1.684-.01 3.375.08 5.063.07.946-.007 1.893-.108 2.837-.204 1.252-.128 2.502-.29 3.173-.37 1.016.048 1.438.085 1.858.085.42-.004.843-.02 1.26-.076.722-.1 1.204-.885 1.072-1.67-.122-.688-.52-1.23-1.163-1.367zM79.143 78.26c-.604-.15-1.243-.21-1.867-.21-1.893 0-3.787.06-5.68.082-3.476.04-6.945.037-10.405.527-1.85.26-3.754.53-5.596-.33-.53-.25-1.245-.13-1.874-.136-2.002-.017-4.005-.02-6.01-.006-.628.004-1.316-.064-1.876.155-1.638.643-3.32.477-5 .477h-5.692v-.056c-.632 0-1.266-.007-1.897 0-2.32.04-4.64.028-6.955.15-.924.05-1.867.314-2.737.646-.704.27-1.14.907-1.203 1.723-.075.96.418 1.578 1.17 2.076.764.5 1.622.545 2.442.355 2.397-.555 4.82-.39 7.24-.42 3.163-.036 6.326-.053 9.49-.092.63-.007 1.323.092 1.874-.134 1.43-.588 2.9-.423 4.366-.45 3.795-.076 7.6.013 11.38-.263 4.417-.322 8.828-.68 13.252-.35 2.088.156 3.854-.815 5.76-1.296.538-.134.772-.685.708-1.27-.06-.563-.34-1.04-.89-1.177zm1.243-8.866c-1.242-.738-2.64-.608-4.015-.51-1.89.135-3.783.342-5.68.396-2.53.073-5.09.252-7.593-.032-2.528-.286-5.01-.2-7.52-.064-.825.047-1.667-.192-2.502-.3-1.367-.17-2.712-.202-4.088.086-1.01.21-2.09.18-3.127.117-2.42-.147-4.83-.437-7.25-.555-1.25-.06-2.53-.01-3.63.82-.62.47-1.376.492-2.13.327-1.232-.268-2.465-.547-3.703-.796-2.317-.466-4.82.644-5.925 2.693-.157.29-.08.878.125 1.146.21.273.736.478 1.083.428.488-.07 1-.325 1.397-.636.834-.653 1.713-.742 2.68-.443.303.095.6.21.907.29 4.158 1.03 8.363.96 12.563.397 1.38-.186 2.707-.25 4.075.06 1.447.332 2.89.323 4.38-.03 1.1-.26 2.342-.362 3.44-.134 2.012.415 3.96.36 5.962.03 1.137-.187 2.315-.14 3.477-.15 2.22-.02 4.437-.007 6.655-.007v-.046c1.163 0 2.325.004 3.488 0 2.107-.01 4.216-.016 6.325-.043 1.08-.013 1.888-.945 1.56-1.875-.16-.45-.536-.926-.947-1.17zM26.62 53.974c1.875.193 3.777.582 5.628.413 1.913-.177 3.766-.075 5.656.053 1.568.107 3.163.1 4.725-.06 2.925-.294 5.824-.88 8.786-.417.515.082 1.054.018 1.58.04 1.793.07 3.625-.06 5.37.272 3.052.582 6.1.333 9.15.31 1.685-.014 3.368-.257 4.802-1.31.554-.41 1.18-.355 1.82-.238.404.075.844.17 1.23.085.645-.14 1.12-.564 1.353-1.213.188-.515-.095-1.28-.662-1.637-.35-.218-.752-.49-1.134-.495-1.15-.014-2.392-.173-3.437.192-3.61 1.265-7.32.97-10.98.776-2.09-.114-4.193-.4-6.294-.437-4-.073-8.016-.398-11.984.522-.807.187-1.68.116-2.526.124-1.477.017-2.955.004-4.432.004v-.026c-2.112 0-4.224-.043-6.334.02-.825.027-1.656.243-2.46.46-.534.146-.874.573-.908 1.16-.036.602.464 1.34 1.052 1.4zM41.33 46.1c.428.123 1.028-.096 1.455-.33.335-.182.5-.652.776-.96.773-.865 1.546-1.73 2.35-2.56.354-.364 1.1-.374 1.45-.036.454.434.86.917 1.287 1.38.715.773 1.352 1.645 2.16 2.3 1.74 1.4 2.93 1.706 4.656-.126.146-.15.288-.31.443-.45.672-.618 1.483-.81 2.35-.64.72.138 1.418.4 2.132.573.914.22 1.84.4 2.163.47 2.284.036 2.796-.086 3.62-.705.72-.533.685-1.71-.06-2.155-.833-.502-1.74-.687-2.71-.732-.94-.043-1.895-.126-2.8-.37-2.467-.67-4.76-.65-6.833 1.132-.784.672-1.15.557-1.883-.18-1.11-1.12-2.163-2.313-3.358-3.335-1-.856-2.496-.747-3.504.087-.484.402-.895.89-1.348 1.33-.452.438-.845 1.05-1.387 1.256-.8.304-1.25-.606-1.897-.907-.094-.044-.177-.115-.272-.155-.62-.267-1.234-.293-1.795.128-.554.416-.765 1.352-.48 2.013.675 1.564 1.902 2.525 3.49 2.973z"/></svg>