<svg xmlns="http://www.w3.org/2000/svg" width="128" height="128" viewBox="0 0 128 128"><path d="M69.51 104.538c2.998-.133 6.012.064 9.01-.046 3.104-.11 6.183.772 9.29.15.202-.04.425.038.64.054l6.898.49c4.122-.25 8.075-.495 12.03-.727 1.31-.08 2.222-.697 2.708-1.92.835-2.095 1.583-4.205 1.413-6.53-.066-.85-.098-1.752.11-2.564.62-2.44.46-4.904.4-7.362-.128-5.355-.683-10.69-.525-16.06.06-2.033-.06-4.074-.14-6.11-.115-2.892-.31-5.78-.396-8.673-.086-2.996.06-5.986.27-8.986.415-5.984.594-11.99.877-17.984.02-.426.02-.867.135-1.274 1.5-5.382 1.58-11.015 2.895-16.434.245-1.01.096-2.136-.013-3.194-.03-.3-.512-.7-.853-.79-1.092-.274-2.114.038-3.06.637-2.955 1.87-6.26 2.685-9.653 3.317-3.888.727-7.74 1.666-11.633 2.365-3.157.565-6.34 1.156-9.532 1.3-5.355.246-10.726.153-16.09.185-6.435.037-12.87.075-19.307.07-1.75 0-3.383.373-5.017.954-.948.336-1.8.725-2.3 1.62-.364.656-.794.89-1.556.666-.917-.272-1.87-.47-2.82-.602-1.268-.178-2.56-.427-3.824-.354-2.63.152-4.262 1.527-4.336 4.184-.02.644-.02 1.288-.043 1.93-.28 7.53.28 14.985 1.776 22.377.424 2.095.626 4.235.892 6.36.093.756-.4 1.243-1.164 1.124-2.896-.446-5.77-.21-8.65.15-1.744.216-2.433.916-2.45 2.657-.004.528.004 1.11.21 1.577.334.762.05 1.475.027 2.204-.026.904-.21 1.17-1.087 1.224-2.797.177-5.106 1.486-7.34 3.01-1.198.82-1.217 1.424-.06 2.132.64.386 1.387.663 1.9 1.177 1.9 1.89 3.717 3.866 5.58 5.79.43.447.46.893.252 1.448-.89 2.41-1.777 4.82-2.62 7.25-1.34 3.865-1.197 7.794-.415 11.74.512 2.578 1.843 4.78 3.22 6.96 1.665 2.628 4.093 4.35 6.8 5.724.56.29 1.207.485 1.835.556 2.126.237 4.267.36 6.392.597 3.886.435 7.69-.346 11.525-.69 2.025-.184 4.112-.184 6.054-.707 4.11-1.106 8.284-.966 12.45-1.01 3.095-.037 6.186.18 9.29.043zm-53.17-34.65c-1.275-1.41-2.548-2.827-3.818-4.243-.275-.306-.06-.875.38-.966.518-.11 1.045-.17 1.568-.27 2.59-.486 2.898-.244 3.008 2.39.008.21 0 .424 0 1.274-.036.2-.173 1.024-.363 1.832-.023.098-.34.15-.53.17-.075.01-.175-.11-.245-.187zm17.687 28.55c-1.807 1.66-3.98 2.443-6.37 2.758-2.99.397-5.25-1.03-7.058-3.09-3.13-3.563-4.404-7.854-3.743-12.53.28-1.98 1.23-3.862 1.915-5.772.213-.602.584-1.148.82-1.744.865-2.173 1.936-4.264 1.818-6.743-.06-1.26.442-2.535.485-3.808.096-2.887.272-5.786-.6-8.614-.238-.776.172-1.333.914-1.304 2.025.08 4.054.215 6.082.337.757.045 1.085.532 1.273 1.215.34 1.237.64 2.498 1.12 3.682 1.51 3.728 2.174 7.595 2.097 11.05.045.764.056.978.068 1.194.227 3.35.176 3.02-3.12 2.98-.73-.007-1.452-.32-2.19-.404-.946-.11-1.917-.263-2.852-.168-1.387.145-2.32 1.354-2.264 2.664.028.67.75 1.344 1.297 1.043 1.277-.7 2.413-.254 3.69-.027 1.66.293 3.403.128 5.113.135.467.002.85.107.973.587.186.728.348 1.46.467 2.2.075.454-.103.825-.59.977-2.68.845-4.83.948-7.542.362-1.08-.236-1.716.074-2.362 1.136-.273.45-.087 1.268.384 1.364 1.332.27 2.56 1.088 4.03.7.492-.125 1.076-.077 1.574.056.994.267 1.89-.03 2.837-.224.572-.117 1.345-.88 1.7-.235.43.786.412 1.825.537 2.76.015.115-.26.324-.44.396-.19.078-.42.064-.634.062-1.17-.002-2.323.177-3.504-.192-.997-.31-2.07.535-3.144-.002-.533-.27-1.045.01-1.508.29-.48.287-.832.67-.808 1.28.026.634.448.942.992 1.09.62.165 1.248.35 1.884.397 2.016.145 4.036.226 6.055.33.812.04 1.206.378 1.25 1.13.02.427.014.858.012 1.286 0 .565-.23 1.013-.654 1.397zm1.23-73.872c-1 3.516-1.295 7.14-1.636 10.74-.414 4.35-.51 8.735-.745 13.106-.048.853-.117 1.705-.19 2.556-.008.1-.08.196-.123.293-.058-.07-.145-.134-.166-.216-.267-1.03-.605-2.048-.773-3.093-.895-5.59-1.748-11.186-1.412-16.516-.08-2.927-.144-5.49-.22-8.053-.025-.852.315-1.27 1.06-1.2.85.08 1.695.295 2.54.293 2.145-.006 2.038.794 1.67 2.094zm8.14 76.192c-.75.014-1.503-.03-2.247-.1-.142-.014-.398-.332-.366-.43 1.05-3.157.366-6.385.397-9.58.034-3.215.08-6.446-.167-9.648-.613-7.927-.448-15.858-.33-23.787.07-4.82.247-9.65.63-14.453.298-3.727.918-7.435 1.52-11.13.444-2.742 1.034-5.462 1.657-8.17.287-1.245.82-2.432 1.22-3.652.242-.73.763-.975 1.472-.958.86.02 1.73-.05 2.57.075 6.185.923 12.41.606 18.62.622 1.92.005 3.86-.05 5.742-.605.605-.178 1.277-.18 1.918-.17 5.39.06 10.656-.804 15.902-1.942 3.238-.7 6.528-1.168 9.767-1.867 2.51-.54 4.97-1.274 7.45-1.918.43-.11.903.262.85.68-.447 3.604-.692 7.23-1.282 10.822-.45 2.74-.885 5.504-1.056 8.272-.39 6.31-.613 12.632-.914 18.95-.055 1.176-.178 2.35-.218 3.525-.04 1.284-.075 2.574-.018 3.857.164 3.854.373 7.706.57 11.56.03.64.08 1.28.124 1.922.11 1.602.273 3.202.314 4.806.075 3 .01 6.006.128 9.004.123 3.138-.392 6.197-.973 9.245-.512 2.675-1.43 3.403-4.134 3.545-1.5.077-3.002.088-4.505.12-2.784.062-5.56.07-8.346.377-2.87.313-5.793.094-8.677.31-7.602.573-15.21.546-23.358.423-4.395.092-9.33.198-14.26.29zm79.704 7.467c-.51-1.693-1.316-2.304-3.01-2.197-1.385.085-2.77.197-4.16.26-2.03.095-4.07.115-6.1.25-2.028.132-4.048.366-6.07.554-.747.068-1.504.07-2.237.206-5.696 1.052-11.43 1.688-17.23 1.59-2.987-.047-5.954.588-8.955.25-.5-.057-1.045.17-1.56.308-2.374.643-4.734 1.337-7.116 1.94-2.41.612-4.513 1.935-6.804 2.817-.197.077-.37.213-.544.34-1.056.75-.97 2.356.177 2.908.475.226 1.006.484 1.507.476 1.67-.027 3.115.636 4.604 1.244 1.18.482 2.417.938 3.67 1.12 2.537.372 5.1.573 7.66.8.954.08 1.97.225 2.877.01 2.645-.63 5.323-.42 7.987-.53 1.927-.08 3.86.043 5.788-.06 1.918-.104 3.828-.534 5.74-.526 1.952.006 3.82-.356 5.693-.736 2.64-.54 5.306-.64 7.983-.768 1.067 0 2.14-.066 3.2.015 1.96.153 3.83-.4 5.734-.634 1.084-.13 1.7-.894 1.742-1.982.1-2.567.19-5.14-.572-7.65zm-50.163 8.896c-.608-.105-1.774-.25-2.906-.526-.36-.088-.66-.5-.94-.806-.27-.292-.154-1.02.193-1.118 1.42-.403 2.852-.77 4.288-1.107.13-.032.41.196.475.36.235.593.437 1.203.597 1.82.236.917-.21 1.44-1.703 1.376zm6.894-2.48c-.362.518-.763 1.013-1.177 1.49-.24.278-.587.148-.672-.236-.114-.52-.22-1.047-.306-1.576-.085-.506.16-.768.8-.774.208.027.53.046.84.12.435.108.74.662.518.978zm4.735 2.106c-.454-.02-.813-.413-.754-.82.214-1.482.958-2.044 2.43-1.79.164.027.296.244.443.372-.018 1.42-.858 2.304-2.116 2.237zm11.198-2.084c-.047.2-.22.362-.304.55-.48 1.1-1.283 1.636-2 1.53-.818-.074-1.175-.018-1.43-.156-.2-.107-.434-.533-.366-.677.323-.66.747-1.268 1.133-1.896.416-.683 1.013-1.062 1.82-1.062.514 0 1.226-.16 1.51.11.572.54-.234 1.052-.364 1.6zm5.423-1.24l-.037.09c-.03.017-.044.04-.07.06.114.81-.085 1.52-.704 2.102-.055.053-.176.11-.226.083-.084-.043-.208-.173-.19-.224.244-.727.404-1.508 1.12-1.962-.007-.05-.003-.093-.012-.142l.117-.003.2-.466c.323.417.083.46-.2.466zm9.517 1.313c-.416.075-.843.096-1.267.122-.317.02-.638.004-1.058.004-.636.096-1.365.21-2.1.31-.295.04-.65-.367-.53-.614.326-.66.658-1.318 1.022-1.96.095-.168.298-.344.482-.387 1.333-.324 2.677-.78 4.05-.338.302.1.608.603.668.96.154.924-.45 1.763-1.267 1.905zm8.933-.056c-.422.202-.914.082-1.084-.33-.4-.97-.692-1.986-1.027-2.984-.258-.775.114-1.53 1.043-2.02.126-.066.4.012.526.12.146.126.25.345.293.54.288 1.34.557 2.683.853 4.126-.177.17-.354.428-.603.548zm-63.55-43.766c3.855-.105 7.715-.183 11.573-.12 2.055.03 4.063-.06 6.02-.692 1.995-.645 4.046-.272 6.07-.384.12-.006.394.306.367.413-.472 1.845.22 3.586.45 5.368 2.113 1.935 4.6 2.738 7.478 2.658 3.535-.098 7.074-.035 10.61-.06.314 0 .686-.03.923-.202.325-.228.73-.582.763-.917.033-.33-.28-.794-.575-1.03-.31-.25-.77-.355-1.182-.42-.635-.098-1.283-.09-1.92-.168-.128-.02-.254-.214-.33-.353-.03-.053.06-.21.132-.274 1.045-.914 2.144-1.777 3.136-2.743 1.795-1.744 3.15-3.768 3.805-6.23.358-1.352.142-2.592-.728-3.627-.462-.55-1.155-.955-1.816-1.277-.784-.384-1.45-.74-1.874-1.615-.398-.816-1.267-1.05-2.222-.873-.732.14-1.485.203-2.23.213-2.25.037-4.503.02-6.754.06-.854.015-1.712.096-2.56.207-.675.09-1.157.82-.788 1.435.573.95.403 1.507-.442 2.136-1.42 1.054-2.187 2.603-2.928 4.16-.194.41-.56.643-1.04.366-1.416-.82-2.966-.55-4.396-.283-1.82.343-3.62.317-5.438.31-1.175-.004-2.354-.077-3.48.428-.376.17-.827.213-1.248.23-5.456.228-10.912.443-16.37.648-.855.032-1.716-.032-2.57.006-.416.02-.864.108-1.224.3-.245.128-.497.49-.506.755-.008.262.23.604.462.783.235.186.584.262.894.31 3.296.488 6.61.573 9.937.483zm26.976-.08c.03-2.623.254-2.634 2.486-2.46.638.05 1.28.007 1.924.007.006.073.01.144.018.216 1.91-.21 3.813-.457 5.724-.614 1.382-.113 2.775-.1 4.16-.16.576-.026 1.06-.45 1.14-.943.103-.63-.327-1.373-.898-1.516-.307-.078-.626-.168-.94-.16-1.282.032-2.59-.04-3.84.18-2.555.452-5.124.234-7.68.374-.143.01-.294-.2-.444-.31.192-.24.51-.71.552-.687 1.26.706 1.99-.1 2.662-.935.798-.992 1.888-1.395 3.064-1.577 2.906-.45 5.756-.123 8.523.825 1.388.474 1.68 1.1.97 2.44-.694 1.308-1.535 2.572-2.495 3.695-1.835 2.144-4.168 3.648-6.703 4.866-1.923.925-3.934.942-5.967.713-1.29-.146-2.11-1.073-2.22-2.352-.048-.53-.04-1.07-.033-1.604zM65.99 95.364c.11-.15.147-.414.096-.59-.053-.18-.245-.44-.39-.45-1.065-.07-2.134-.063-3.2-.13-.848-.05-1.7-.126-2.53-.296-.234-.05-.54-.47-.54-.72 0-.224.353-.604.592-.64 1.054-.166 2.126-.203 3.184-.344.6-.08 1.1-.768 1.118-1.406.017-.61-.316-1.035-.832-1.25-.482-.203-1.026-.258-1.53-.42-.366-.116-.71-.298-1.062-.45.285-.308.533-.666.86-.916 1.202-.93 2.58-1.498 4.017-1.972 2.39-.79 4.86-.728 7.318-.688 1.29 0 2.58-.094 3.858.027 1.163.11 2.31.415 3.445.7.715.18.78.877.256 1.508-.52.63-1.15.9-1.957.91-2.144.033-4.288.084-6.43.167-.635.025-1.284.112-1.888.302-.624.198-1.12.638-1.274 1.33-.113.518.703 1.213 1.6 1.307.637.064 1.284.08 1.924.04.748-.045 1.484-.205 2.23-.256.248-.016.507.16.76.25-.206.237-.37.572-.632.692-1.163.532-2.368.976-3.533 1.505-.773.348-1.524.754-2.247 1.195-.42.253-.342 1.13.11 1.372.463.25.956.517 1.46.59 1.408.195 2.76-.082 4.067-.662 2.283-1.018 4.216-2.532 6.11-4.12.482-.405.992-.94 1.557-1.045 1.444-.28 2.014-.95 1.76-2.448-.122-.713.2-1.49.16-2.23-.034-.616-.143-1.35-.504-1.805-1.12-1.42-2.25-2.89-4.442-2.62-.72.09-1.482-.163-2.224-.247-3.98-.46-7.908-.304-11.755.923-.61.196-1.197.494-1.82.608-.776.144-.94-.78-1.506-1.02-.383-.16-.81-.266-1.226-.3-.533-.044-1.072-.01-1.608.02-3.522.21-7.002.96-10.56.814-.58-.025-1.208.356-1.765.642-.55.284-.506 1.28.02 1.635.923.627 1.954.785 3.05.832 2.262.1 4.483-.21 6.715-.52 1.14-.157 2.304-.167 3.456-.247-.027 1.362-1.45 1.68-1.997 2.66-.26.465-.64.864-.926 1.314-.324.508-.802.676-1.358.69-1.18.027-2.36.043-3.54.064-1.07.02-2.147-.015-3.214.076-.623.055-1.27.23-1.827.51-.332.166-.702.65-.69.977.013.318.446.81.773.89 1.138.27 2.304.464 3.472.556 1.387.106 2.786.082 4.18.097.85.01 1.356.328 1.583 1.23.34 1.336 1.262 2.375 2.597 2.584 2.008.316 4.07.33 5.99-.59.27-.13.505-.386.688-.637zm8.2-64.598c.155 2.767.25 5.538.394 8.307.064 1.285.113 2.53-.622 3.705-.608.97.3 2.195 1.33 2.432.31.067.635.09.955.095.853.014 1.707.005 2.562.005v-.094c1.066 0 2.132.013 3.2-.003 1.21-.02 2.274-.508 3.32-1.058 1.003-.528 1.623-1.376 2.01-2.4.837-2.235.06-5.184-1.8-6.707-.57-.466-1.285-.747-1.877-1.19-.184-.138-.3-.556-.237-.79.105-.403.413-.747.562-1.143.97-2.573-.262-4.78-2.946-5.244-.625-.105-1.28-.05-1.916-.086-.74-.046-1.564.072-2.206-.21-1.134-.5-1.803.043-2.54.71-.978.896-.998.943-.596 2.157.163.497.376 1.004.405 1.516zm7.612 6.443c.587.153 1.23.447 1.624.88.996 1.09.29 2.912-1.173 3.16-.62.108-1.258.114-1.783.158-.424-.027-.74-.034-1.054-.072-.464-.053-.768-.3-.847-.78-.033-.206-.06-.415-.076-.626-.182-2.716.64-3.414 3.31-2.72zm-2.144-7.49c.154.015.472.015.774.086.192.045.494.183.507.304.03.285.016.703-.16.857-.7.608-1.464 1.15-2.227 1.68-.082.06-.415-.056-.466-.167-.128-.274-.196-.59-.22-.893-.13-1.62.1-1.877 1.79-1.867zM47.992 56.767c3.215-.003 6.428-.002 9.643-.002v-.17c.963 0 1.928-.045 2.89.01 5.588.31 11.103-.53 16.636-1.084.415-.043.836-.187 1.21-.37.74-.363 1.046-1.542.59-2.242-.423-.66-1.012-1.14-1.83-1.125-.638.01-1.268.167-1.904.23-1.8.177-3.6.395-5.405.487-1.49.077-3.005-.142-4.484.016-4.376.467-8.765.474-13.152.54-1.285.018-2.58-.076-3.854.052-.822.083-1.646.407-2.405.76-.67.313-.728 1.398-.226 1.956.617.688 1.4.94 2.297.94zm41.032-22.142c.95.484 1.952.864 2.947 1.257 2.29.906 3.176 2.725 3.32 5.034.038.57-.376 1.005-.905 1.122-1.266.277-2.283-.282-3.323-.864-.568-.316-1.258-.03-1.636.562-.672 1.052-.402 2.315.728 3.077 1.937 1.31 4.032 1.3 6.144.544 1.838-.658 2.77-2.138 2.672-3.985-.168-3.19-1.04-6.13-4.01-7.97-.496-.308-.95-.687-1.415-1.04-.07.002-.128.01-.2.012v-.095c-.284 0-.585.04-.82-.064-.46-.205-.868-.522-1.298-.793.346-.473.642-.995 1.05-1.404.43-.432.975-.155 1.026.507.044.582.03 1.17.04 1.756.03 0 .063-.003.095 0l.107.08c2.392-.117 2.955-.633 3.083-2.834.037-.64.02-1.29-.064-1.923-.135-1.01-.918-1.685-1.962-1.806-2.947-.34-4.836 1.286-6.418 3.463-.59.816-.736 1.763-.725 2.752.017 1.18.532 2.086 1.567 2.614zm-26.617 6.434c.015 1.11.452 2.08 1.09 2.965 1.817 2.52 5.62 2.418 7.253-.416.544-.95.747-1.97.81-3.06.172-2.82-.443-5.526-1.083-8.23-.22-.93-.443-1.874-.798-2.76-.565-1.406-1.917-2.276-3.218-2.21-1.54.077-3.18 1.316-3.435 2.848-.348 2.1-.516 4.235-.763 6.353l.136.017c0 1.496-.015 2.995.006 4.493zm3.452-8.79c.002-.14.24-.372.382-.387.155-.014.443.157.476.293.65 2.7 1.294 5.406 1.034 8.218-.038.41-.188.82-.358 1.196-.064.136-.337.192-.527.242-.074.02-.228-.064-.26-.14-.26-.567-.662-1.132-.708-1.722-.106-1.385-.033-2.78-.033-4.17h-.027c0-1.176-.015-2.35.016-3.526zm-18.544 10.79c.843 1.425 2.005 2.563 3.544 3.152 1.706.65 3.322.506 4.74-.897 1.853-1.828 2.902-3.952 2.887-6.575-.008-1.61-.002-3.22-.002-4.83h.117c0-1.823.032-3.647-.01-5.47-.035-1.553-1.35-2.518-2.863-2.137-1.973.5-3.936 1.03-5.9 1.556-.2.053-.396.157-.588.245-.606.28-1 .937-.93 1.545.065.62.62 1.248 1.25 1.284.96.057 1.93.072 2.893.035.637-.02 1.442-.448 1.87-.192.69.416.343 1.37.35 2.097.026 2.036.004 4.077.01 6.116 0 1.404-.676 2.456-1.722 3.3-.363.296-.82.338-1.166-.01-.597-.604-1.09-1.32-1.728-1.874-.614-.533-1.384-.512-2.116-.157-.648.317-1.045 1.13-.91 1.895.052.314.114.65.27.915zM45.934 62.32c.883.654 1.94.853 3.03.858 2.35.01 4.7.003 7.05.003 0 .027.002.05.003.074 5.227-.194 10.453-.397 15.68-.578 1.922-.067 3.844-.082 5.767-.124.672-.015 1.233-.263 1.7-.762.48-.512.42-1.6-.157-1.995-.258-.175-.548-.336-.848-.416-3.255-.867-6.6-.954-9.86-.464-3.277.49-6.565.74-9.847.984-3.403.254-6.834.107-10.253.14-.637.007-1.276.004-1.91.06-.432.037-1.028.736-.934 1.157.085.386.28.843.58 1.065zm3.03 16.508c1.282.017 2.565.004 3.85.004v-.142c1.71 0 3.424.045 5.13-.018.734-.027 1.477-.21 2.175-.44.777-.255 1.146-1.006 1.016-1.786-.125-.763-.75-1.416-1.483-1.47-.528-.04-1.088-.087-1.59.044-1.475.39-2.97.303-4.464.33-1.71.028-3.425.045-5.13.143-.625.036-1.253.233-1.844.453-.683.254-.995.885-.875 1.53.125.643.616 1.155 1.296 1.24.636.08 1.28.107 1.92.114zm19.72-3.185c-.835.03-1.677.335-2.48.614-.225.077-.436.5-.453.78-.017.273.137.67.354.83.903.684 1.998.764 3.072.71 3.21-.157 6.418-.37 9.626-.57.21-.01.425-.075.618-.157.515-.224.912-.576.99-1.16.05-.387.043-.782.053-1.173-3.927-.305-7.85-.01-11.775.128zm11.776-.128c.038.003.075.002.113.005 0-.008-.002-.016-.003-.02-.035-.033-.073-.06-.107-.094 0 .036 0 .073-.002.107zm13.877-20.743c.966-.008 1.934-.005 2.896-.066.66-.043 1.195-.636 1.25-1.264.053-.613-.49-1.14-1.23-1.187-.11-.006-.214-.02-.323-.02-3.538.046-7.08.088-10.62.154-.528.01-1.06.1-1.582.2-.546.108-1.084.777-.88 1.147.188.34.514.712.864.835.487.173 1.05.162 1.582.17 1.5.02 3.004.007 4.507.007v.024c1.18.002 2.36.01 3.54 0zm-2.38 29.57l.015.193c2.325-.26 4.65-.496 6.97-.817.327-.043.685-.47.865-.804.21-.39-.242-1.19-.7-1.26-.83-.13-1.684-.263-2.522-.236-2.34.085-4.677.245-7.016.386-.426.027-.86.068-1.264.188-.292.085-.555.296-.813.475-.442.306-.395 1.11.096 1.333.48.216.98.47 1.487.514.95.085 1.917.027 2.877.027zm7.638 4.613c-1.977-.427-3.968-.72-5.792-.576-.95 0-1.694-.016-2.435 0-.424.01-.86.01-1.267.108-.53.124-.976.42-1.116 1-.117.475.518 1.198 1.173 1.3.523.086 1.056.12 1.583.13 2.12.044 4.242-.036 6.335.468.478.117 1.05-.025 1.55-.164.54-.15.876-.576.924-1.165.04-.47-.397-.982-.957-1.105z"/></svg>