<svg xmlns="http://www.w3.org/2000/svg" width="128" height="128" viewBox="0 0 128 128"><path d="M117.576 30.875c-1.125-.324-2.277-.572-3.43-.776-3.9-.69-7.8-1.35-11.705-2-1.26-.21-2.533-.39-3.81-.514-3.094-.3-6.195-.544-9.29-.836-1.172-.11-2.337-.272-3.502-.44-.187-.03-.493-.198-.506-.327-.122-1.163-.12-2.34-.287-3.497-.53-3.653-3.67-6.724-7.268-7.042-3.19-.282-6.165.563-8.962 2.05-.86.46-1.565 1.11-1.995 2.033-.407.883-.245 1.95.482 2.64.77.734 1.813.914 2.635.33.78-.554 1.507-1.197 2.197-1.866.58-.56 1.227-.86 2.013-.84.858.023 1.728.005 2.56.17.605.117 1.23.41 1.717.79 1.06.83 1.61 1.92 1.58 3.346-.05 2.144-.41 2.53-2.418 2.17-.843-.15-1.688-.512-2.512-.47-1.36.076-2.526-.444-3.73-.866-1.213-.423-2.42-.87-3.59-1.4-5.584-2.528-11.44-4.245-17.324-5.877-1.96-.544-3.92-1.186-5.924-1.427-1.888-.227-3.947-.8-5.71.026-1.6.747-1.974 2.726-2.703 4.245-2.644 5.508-5.183 11.064-7.792 16.59-3.89 8.244-7.583 16.562-10.56 25.194-1.847 5.37-3.922 10.658-5.87 15.994-.475 1.307-.787 2.675-1.285 3.973-.33.864.043 1.46.508 2.05.548.693 1.336 1.01 2.155 1.33 2.197.852 4.363 1.783 6.53 2.71.548.236.86.76.677 1.31-.73 2.192-.616 4.446-.584 6.695 0 1.288-.044 2.578.015 3.862.06 1.32.73 2.1 1.97 2.074 2.587-.053 5.12.36 7.676.623 2.878.296 5.793.346 8.637.827 3.95.668 7.91.49 11.87.544 1.82.024 3.633-.167 5.408.475.584.21 1.28.188 1.917.14 1.765-.135 3.393.337 4.982 1.023 3.343 1.444 6.677 2.91 10.037 4.32 1.675.704 3.398 1.294 5.088 1.963.715.286 1.237.005 1.744-.444.854-.754 1.164-1.752 1.356-2.837.107-.61.59-.88 1.184-.816 1.382.155 2.763.467 4.143.464 5.373-.01 10.7.437 16.002 1.31.944.156 1.927.17 2.885.114 1.184-.07 2.048-.874 2.07-2.05.022-1.314.27-2.57.76-3.754 1.072-2.615 1.308-5.402 1.785-8.14.587-3.37 1.067-6.762 1.722-10.12.613-3.15 1.455-6.255 2.095-9.403.85-4.194 1.616-8.41 2.4-12.617.53-2.843 1.088-5.68 1.525-8.538.587-3.808 1.13-7.627 1.58-11.453.4-3.403.688-6.818.948-10.233.114-1.52-.548-2.35-2.094-2.797zm-71.414 68.8c-.85.025-1.703.013-2.555.013l-.006.11c-3.5-.31-7-.623-10.5-.93-1.91-.165-3.82-.32-5.727-.49-.808-.072-1.13-.474-1-1.276.156-.946.448-1.877.507-2.827.164-2.73.863-2.652 2.92-1.813 2.955 1.203 6 2.19 8.966 3.376 2.566 1.028 5.075 2.203 7.605 3.32.09.038.14.158.207.24-.136.094-.27.27-.412.275zm33.528-4.84c-.635 1.235-1.105 2.555-1.693 3.817-.54 1.163-1.086 2.33-1.725 3.44-.584 1.01-1.11 1.14-2.123.593-5.008-2.71-10.317-4.752-15.49-7.09-1.947-.883-3.986-1.57-6-2.3-6.04-2.19-11.982-4.633-18.104-6.612-4.685-1.515-9.27-3.337-13.896-5.026-.583-.213-.62-.42-.176-.892.413-.44 1.14-.656 1.042-1.45-.064-.498-.915-.69-1.973-.438-.31.077-.625.134-.942.178-.275.04-.604-.36-.51-.62.224-.598.464-1.196.685-1.798.32-.86.864-1.416 1.795-1.67.707-.193 1.394-.542 2.028-.923.818-.494.76-1.528-.096-2.054-.443-.273-1.284-.427-1.118-.953.405-1.275.64-2.748 2.357-3.152 1.03-.243 2.016-.71 3-1.13.383-.164.724-.454 1.052-.726.702-.58.51-1.864-.344-2.114-.608-.176-1.27-.145-1.888-.29-.27-.065-.608-.278-.464-.688.21-.605.47-1.194.678-1.8.3-.886.912-1.428 1.794-1.683.616-.18 1.244-.328 1.854-.523.612-.196 1.23-.39 1.81-.66.91-.422 1.53-1.436 1.26-2-.366-.764-1.05-1.034-1.844-1.073-.533-.028-1.074.03-1.603-.03-.328-.034-.5-.25-.355-.647.235-.64.612-1.12 1.26-1.37.797-.31 1.59-.633 2.395-.926.93-.338 1.705-.875 2.328-1.65.545-.68.26-1.488-.652-1.644-.63-.107-1.272-.128-1.91-.203-.094-.01-.265-.12-.26-.157.038-.2.065-.467.2-.572.5-.382 1.01-.783 1.578-1.043 1.07-.49 2.176-.907 3.278-1.32.832-.316 1.5-.8 1.99-1.554.49-.75.152-1.867-.737-2.084-.72-.176-1.477-.18-2.216-.268-.436-.047-.66-.532-.493-.916.318-.722.89-1.166 1.496-1.63 2.044-1.56 4.064-3.157 6.063-4.774.58-.47 1.1-1.024 1.59-1.586.38-.433.49-1.028.15-1.485-.22-.296-.7-.477-1.09-.544-.404-.07-.846.05-1.27.102-.57.07-1.043.86-1.71.232.438-.457.833-.964 1.32-1.36 1.493-1.218 3.05-2.357 4.527-3.598.715-.602.467-1.703-.392-2.14-.188-.097-.397-.158-.602-.21-.207-.05-.483-.004-.62-.125-.204-.178-.422-.464-.426-.71-.006-.295.196-.596.32-.89 1.16-2.724 1.096-2.183 3.197-1.34 1.29.518 2.572 1.096 3.908 1.46 4.04 1.105 7.933 2.606 11.797 4.196 4.16 1.71 8.325 3.405 12.49 5.11.592.246 1.203.468 1.76.782.376.213.623.6.48 1.083-.12.41-.283.805-.424 1.21-.856 2.423-1.717 4.836-2.272 7.363-.526 2.41-1.522 4.69-2.674 6.877-1.102 2.093-4.128 3.44-6.25 2.866-2.28-.614-3.312-2.204-2.875-4.587.428-2.315.944-4.612 1.422-6.918.085-.42.252-.843.242-1.26-.046-1.843.962-2.99 2.427-3.88.542-.33 1.26-.212 1.71.32.816.965 1.166 2.077.814 3.293-.323 1.13-.797 2.216-1.194 3.326-.325.907-.735 1.8-.91 2.734-.084.44.24 1.006.496 1.445.286.49.986.55 1.4.222.168-.132.39-.224.5-.395 1.738-2.608 3.297-5.3 3.165-8.58-.03-.84-.27-1.68-.486-2.5-.524-2.01-2.2-2.822-3.91-3.456-1.02-.38-2.077-.104-3.077.47-2.274 1.3-3.73 3.352-4.496 5.682-1 3.037-1.51 6.233-2.217 9.363-.068.31-.04.64-.075 1.303.072.517.136 1.376.32 2.208.676 3.073 2.706 4.74 5.694 5.41 4.916 1.1 9.863-1.796 11.615-5.06 1.323-2.47 2.34-5.044 3.13-7.73.63-2.156 1.424-4.26 2.167-6.38.15-.427.675-.61 1.013-.373 1.867 1.306 3.947 2.136 6.095 2.832.71.23 1.397.554 2.06.9 2.66 1.387 5.306 2.8 7.955 4.205.434.23.58.592.427 1.06-.427 1.322-.838 2.65-1.297 3.96-1.45 4.148-3.14 8.2-4.898 12.223-.47 1.08-.877 2.19-1.25 3.307-2.138 6.41-4.734 12.637-7.353 18.855-.373.89-.82 1.745-1.27 2.6-1.492 2.847-3.028 5.674-4.488 8.538zm32.984-58.208c-.08.847-.25 1.688-.405 2.528-.965 5.152-1.954 10.3-2.9 15.456-.753 4.107-1.533 8.208-2.17 12.333-.656 4.226-1.152 8.48-1.723 12.722-.672 4.984-.817 10.03-1.803 14.976-.437 2.206-.885 4.408-.913 6.675-.006.754-.46 1.14-1.247 1.144-3.003.016-6.005.005-9.01.005v-.15c-2.893 0-5.79.008-8.685-.004-.505 0-.83-.42-.67-.824 2.003-5.082 4-10.162 6.02-15.237 2.376-5.97 4.78-11.928 7.152-17.896.91-2.288 1.702-4.625 2.69-6.877 1.99-4.516 3.6-9.17 5.19-13.83.45-1.317.942-2.62 1.383-3.937.203-.607.424-1.233.463-1.86.075-1.26-.318-2.354-1.58-2.89-2.36-1.008-4.698-2.092-7.117-2.934-2.944-1.028-5.68-2.48-8.494-3.78-.16-.074-.256-.282-.384-.426.203-.037.412-.137.6-.105 5.376.94 10.74 1.9 16.186 2.38 2.024.175 4.034.49 6.05.775 1.068.15 1.47.66 1.364 1.757z"/></svg>