<svg xmlns="http://www.w3.org/2000/svg" width="128" height="128" viewBox="0 0 128 128"><path d="M108.956 44.24c-.117-1.83-1.088-3.072-2.725-3.622-2-.676-4.03-.573-5.822.733-1.358.99-2.24 2.295-2.415 4.013-.188 1.835-.416 3.665 1.37 4.983.463.337.463.95.327 1.49-.476 1.908-.292 3.8-.084 5.74.387 3.635.11 7.282-.323 10.912-.15 1.26-.977 2.114-1.808 2.957-.597.606-1.394.437-2.133.47-.32.014-.644.01-.962.036-1.565.13-1.643.14-1.712-1.134-.125-2.182-.977-3.92-2.802-5.158-.354-.24-.72-.482-1.016-.783-2.41-2.434-5.387-3.28-8.736-3.435-5.6-.26-11.13.372-16.663 1.046-2.97.363-5.933.766-8.91 1.088-3.743.405-7.43 1.088-10.91 2.547-2.18.916-4.265 1.98-4.606 4.817-.166 1.387-.85 1.737-2.274 1.628-1.793-.134-2.476.04-2.812-2.227-.17-1.16-.477-2.317-.505-3.482-.056-2.25.06-4.506.072-6.758.014-2.037.036-4.078-.047-6.112-.04-.953-.462-1.892-.46-2.837.002-.943.33-1.88.483-2.825.055-.315.013-.643.02-.964.052-3.056-3.175-6.175-7.057-4.707-3.67 1.387-5.888 4.248-5.133 8.875.175 1.07.51 2.075 1.283 2.89.648.682 1.506.718 2.357.866 1.145.2 1.342.474 1.355 1.775.023 2.362.006 4.722.006 7.082h.08c0 2.04-.055 4.082.02 6.118.048 1.276.277 2.55.454 3.82.286 2.02 1.515 3.284 3.384 3.903 1.724.57 3.467 1.19 5.33.97 1.078-.128 1.844.08 2.332 1.17.692 1.55 2.007 2.533 3.55 3.09 2.212.8 4.478 1.528 6.853 1.594 3.643.102 7.29.125 10.912-.467.947-.156 1.924-.14 2.888-.162.515-.013.715.277.672.808-.083.96-.105 1.926-.162 2.888-.07 1.223-.467 1.676-1.685 1.983-2.59.656-5.184 1.305-7.765 1.984-1.76.466-3.52.926-5.248 1.484-2.637.848-5.045 2.357-7.91 2.56-.773.053-1.347.698-1.44 1.53-.095.843-.028 1.685-.435 2.502-.472.953-.28 1.865.505 2.645.203.2.46.583.392.783-.288.86-.192 1.923-1.373 2.338-1.222.43-2.286 1.174-3.093 2.23-1.97 2.57-.65 6.684 2.45 7.637 3.587 1.106 7.97-1.576 8.6-5.263.426-2.508-.268-3.924-2.59-5.3-.364-.213-.797-.38-1.05-.69s-.38-.764-.428-1.17c-.01-.095.524-.292.822-.372.622-.162 1.254-.288 1.886-.412 4.94-.984 9.807-2.227 14.556-3.925 1.312-.466 2.626-.918 3.947-1.357.552-.183 1.07.208 1.078.793.01.964-.07 1.936.01 2.89.11 1.24 1.034 2.103 2.31 2.317 1.194.2 2.4-.427 2.82-1.605.246-.69.323-1.45.42-2.187.11-.847.127-1.707.247-2.552.117-.83.612-1.126 1.346-.805 3.642 1.593 7.475 2.605 11.248 3.808 3.058.98 6.11 2.02 8.948 3.564.457.248.856.61 1.244.963.305.28.226.992-.112 1.133-.89.37-1.824.645-2.68 1.08-3.73 1.896-4.437 6.85-.898 9.964 1.298 1.14 2.846 1.456 4.516.994 2.44-.676 4.16-2.26 5.102-4.544.78-1.888.623-3.812-.835-5.415-.498-.547-1.13-.972-1.712-1.438-.372-.3-.5-.665-.4-1.123.223-1.046.51-2.08.66-3.137.33-2.255-.373-4.36-3.313-5.03-2.118-.483-4.046-1.378-5.975-2.317-.48-.235-1.003-.384-1.475-.632-2.123-1.102-4.512-1.312-6.754-2.005-.813-.252-1.66-.392-2.496-.57-1.766-.373-3.62-.304-5.312-1.054-.904-1.844-.198-3.785-.34-5.676-.06-.8.314-1.082 1.2-1.114 3.425-.126 6.85-.243 10.278-.36 1.18-.042 2.357-.087 3.54-.104 1.95-.025 3.512-.856 4.784-2.283.427-.48.866-.967 1.195-1.512.39-.645.953-.804 1.62-.807 1.398-.004 2.794.018 4.188-.015 3.89-.088 6.475-2.22 7.187-6.032.747-4 1.554-8 1.348-12.113-.032-.638-.032-1.304.114-1.92.497-2.115.52-4.264.458-6.405-.04-1.264.203-2.29 1.18-3.16 1.317-1.163 1.575-2.718 1.47-4.402zm-81.084 4.933l-.704-.423.303-.615c.223.176.48.325.646.544.05.062-.155.32-.243.492zM49.24 73.077c-.034.05-.146.053-.245.064.005.03.005.055.01.08-.042.013-.088.017-.132.023l-.192.282c.013-.08-.002-.198.045-.23.04-.03.093-.044.15-.052l.063-.092c.017-.004.04-.005.06-.01-.25-1.595.17-2.895 1.694-3.697.088-.046.26-.068.31-.02.11.112.283.34.24.413-.647 1.092-1.322 2.168-2 3.24zm39.616.732c-.017.73-.203 1.48-.424 2.185-.6 1.893-1.22 2.354-3.25 2.453-1.285.06-2.57.063-3.856.07-1.64.012-1.637 0-1.43-1.883.086-.753.118-1.513-.386-2.15-.35-.443-.856-.738-1.397-.5-.338.148-.718.526-.8.868-.235.946-.18 1.92.233 2.827.28.62-.194.75-.57.875-.4.134-.834.19-1.258.224-.597.045-1.1-.38-1.082-.917.038-1.07.136-2.136.165-3.205.02-.752-.393-1.315-.986-1.482-.885-.245-1.822.16-2.093 1.013-.287.913-.48 1.86-.697 2.797-.387 1.664-.61 1.838-2.387 1.807-.107 0-.264.02-.31-.037-.18-.224-.505-.52-.458-.71.448-1.758.978-3.496 1.45-5.248.246-.91-.205-1.84-.972-2.124-.82-.304-1.758-.016-2.277.728-1.15 1.638-1.348 3.566-1.64 5.467-.095.62-.242 1.23-.383 1.84-.018.068-.178.16-.245.14-.174-.047-.443-.112-.484-.234-.423-1.26-.207-2.528.034-3.787.12-.628.363-1.235.454-1.866.06-.41-.01-.853-.102-1.263-.203-.91-1.36-1.293-2.032-.692-1.237 1.1-1.995 2.484-2.432 4.07-.2.72-.38 1.465-.73 2.11-.146.265-.716.393-1.094.402-.197.004-.523-.363-.58-.61-.144-.622-.13-1.28-.255-1.906-.062-.294-.237-.653-.474-.805-.328-.208-.768-.348-1.146-.326-.236.013-.57.344-.65.597-.156.505-.074 1.087-.26 1.573-.22.578-.595 1.103-.946 1.62-.096.14-.35.174-.53.257-.057-.194-.137-.383-.16-.58-.07-.52-.09-1.046-.172-1.562-.284-1.78.014-3.408 1.197-4.82.137-.16.336-.293.42-.48.256-.57.31-1.44.736-1.68.806-.453 1.803-.66 2.745-.776 2.546-.315 5.068-.96 7.76-.467 1.83-.235 3.736-.507 5.646-.71 3.95-.423 7.912-.383 11.875-.176 1.457.073 2.614.76 3.743 1.646 2.236 1.76 2.578 1.615 2.49 5.425zm14.48-28.544l.157.032-.046-.185-.112.153zM41.6 28.506c-.032 1.066-.2 2.135-.17 3.2.037 1.604.255 3.203.29 4.807.064 2.788.043 5.58.07 8.367.02 2.36-.002 4.723.125 7.078.117 2.173 1.954 4.476 3.985 4.97 1.55.377 3.154.656 4.747.716 2.677.102 5.36.056 8.04-.043 2.673-.094 5.34-.395 8.012-.485 2.68-.092 5.36-.034 8.044-.045.32 0 .645.012.964-.03 3.3-.433 6.5-1.01 9.343-3.05 1.828-1.31 2.79-2.917 3.107-5.004.19-1.266.223-2.563.244-3.85.037-2.25.01-4.505.01-6.755h-.21c0-2.25.082-4.507-.026-6.753-.107-2.242-.387-4.476-.627-6.71-.26-2.447-.43-4.94-1.796-7.09-.857-1.354-1.77-2.698-2.84-3.885-1.867-2.068-4.187-3.284-7.076-3.256-1.498.015-3-.094-4.498-.186-1.71-.107-3.413-.336-5.124-.363-3.538-.06-7.082-.096-10.62.01-2.243.065-4.526.187-6.703.673-2.917.654-5.43 2.033-6.11 5.376-.107.518-.4 1-.525 1.518-.626 2.603-1.26 5.198-.72 7.928.184.923.085 1.91.06 2.867zm16.414-7.97c-.615-.09-1.326-.104-1.888.12-1.584.627-3.13 1.37-4.66 2.12-.77.376-1.46.908-2.225 1.284-.14.07-.65-.21-.69-.395-.27-1.21.18-2.32.62-3.413.067-.18.273-.33.45-.437.274-.165.565-.323.87-.414 2.56-.762 5.13-1.484 7.683-2.267 2.72-.832 5.515-.616 8.293-.58 1.394 0 2.787-.02 4.18.004 1.974.034 3.772.734 5.53 1.544 1.036.477 1.654 1.27 1.942 2.404.864 3.424 1.824 6.813 1.792 10.4-.016 1.593.32 3.187.397 4.785.224 4.49.645 8.99-.645 13.407-.262.9-.672 1.565-1.68 1.688-.95.115-1.9.328-2.85.357-2.145.065-4.29.05-6.433.05-.645 0-1.325.078-1.92-.104-1.674-.508-3.39-.467-5.098-.597-.853-.064-1.702-.186-2.543-.34-.275-.05-.517-.28-.775-.425.162-.134.335-.256.485-.4.455-.447.936-.87 1.338-1.36.403-.49.09-1.327-.512-1.6-1.04-.47-2.112-.39-3.15-.106-1.34.365-2.644.86-3.962 1.3-.506.165-1 .382-1.52.493-.876.184-1.93-.782-1.87-1.74.015-.26.252-.616.487-.738.95-.497 1.92-.958 2.91-1.36 1.684-.688 3.408-1.28 5.083-1.99.976-.416 1.94-.907 2.805-1.51.37-.257.576-.876.674-1.364.1-.494-.554-1.177-1.245-1.29-.723-.12-1.506-.224-2.206-.072-1.25.27-2.475.687-3.676 1.133-1.404.52-2.77 1.146-4.157 1.714-.456.187-.87-.008-1.01-.45-.095-.306-.202-.613-.257-.928-.225-1.307-.022-1.79 1.082-2.363 1.426-.742 2.884-1.42 4.306-2.165 1.333-.7 2.586-1.523 3.53-2.737.605-.775.263-1.83-.735-1.937-.828-.088-1.74-.107-2.517.15-1.62.525-3.18 1.25-4.76 1.9-.61.254-.95-.025-1.023-.72-.128-1.216.373-2.1 1.368-2.697 2.024-1.21 4.08-2.36 6.114-3.552.828-.488 1.636-1.013 2.432-1.555.258-.176.475-.434.66-.69.63-.854.046-2.4-1.02-2.555zm8.9 84.842c2.865.394 4.465 3.44 3.28 6.05-1.184 2.622-4.543 4.556-8.144 2.705-1.41-.725-2.342-1.89-2.195-3.637.03-.427.032-.86.096-1.28.323-2.107 1.664-3.536 3.765-3.824 1.05-.144 2.153-.158 3.2-.013z"/></svg>