<svg xmlns="http://www.w3.org/2000/svg" width="128" height="128" viewBox="0 0 128 128"><path d="M121.035 87.923c-.064-1.34-.01-2.682-.01-4.025 0-1.675-.054-3.354.01-5.026.168-4.378-.544-8.665-1.083-12.98-.416-3.35-1.576-6.502-2.192-9.778-.8-4.277-3.335-6.65-7.452-7.563-.216-.046-.44-.065-.66-.12-3.492-.816-7.06-.992-10.623-1.153-.99-.045-2.01.053-2.982.256-1.365.284-2.354-.093-3.237-1.165-.555-.675-1.32-1.184-2.016-1.736-.787-.622-1.636-1.172-2.398-1.826C84.064 39.082 80 35.078 76.34 30.71c-1.534-1.83-3.254-3.35-5.153-4.726-.725-.523-1.444-1.058-2.2-1.53-.714-.445-.756-.927-.428-1.676.96-2.168.976-4.303-.34-6.395-.38-.6-.795-1.072-1.424-1.34-3.763-1.588-7.196-.932-10.34 1.57-.736.58-1.14 1.328-1.195 2.292-.13 2.133-.29 4.25 1.07 6.13.13.18.047.687-.122.884-.513.582-1.097 1.11-1.686 1.62-3.712 3.223-7.46 6.41-11.143 9.66-4.018 3.54-8.05 7.067-11.933 10.752-1.333 1.267-2.624 1.845-4.446 1.78-2.56-.086-5.1.16-7.653.615-3.755.668-5.832 3.14-7.275 6.225-1.328 2.834-2.08 5.888-1.83 9.1.062.776-.03 1.564-.074 2.345-.17 3.12-.393 6.237-.508 9.357-.11 3.01-.15 6.018-.348 9.03-.277 4.222-.47 8.468.258 12.702.57 3.292 2.216 5.466 5.427 6.494 1.81.582 3.647.974 5.505 1.366 4.706 1.003 9.435 1.713 14.256 1.754.892.008 1.797.085 2.67.256 2.293.448 4.572.978 6.862 1.45 2.624.545 5.262.993 7.962.94 8.27-.155 16.514.355 24.76.9.446.028.894.04 1.333.114 5.862.988 11.77 1.2 17.696 1.093.667-.013 1.358-.028 1.99-.21 1.65-.474 3.305-.4 4.99-.36 2.9.076 5.81.044 8.71.057 1.653.007 2.97-.683 4.24-1.72 1.402-1.15 1.96-2.68 2.4-4.294.435-1.61.73-3.258 1.604-4.732.27-.453.395-1.054.41-1.59.106-4.24.846-8.45.645-12.707zm-58.208-68.05c.078.04.105.383.035.436-.302.23-.643.403-.975.606-.17-.294-.366-.48-.33-.603.13-.47.797-.7 1.268-.443zM41.91 46.967c5.06-4.376 10.14-8.73 15.215-13.086 2.197-1.88 4.403-3.757 6.607-5.63.377-.32.81-.37 1.22-.09.733.507 1.494.98 2.156 1.57 2.653 2.39 5.282 4.796 7.89 7.23 1.14 1.068 2.223 2.194 3.284 3.338 2.36 2.54 4.82 4.957 7.805 6.778.175.11.288.317.433.48-.19.1-.37.267-.57.292-.44.056-.887.056-1.332.058-3.567.002-7.136 0-10.706 0v-.226c-2.453 0-4.904.004-7.36-.002-3.915-.01-7.76.576-11.616 1.166-3.963.603-7.953 1.14-11.977.843-1.128-.084-2.357.528-3.388-.4.78-.772 1.51-1.603 2.338-2.32zm72.343 44.85c.007.876-.18 1.793-.462 2.628-.78 2.32-1.644 4.62-2.515 6.908-.293.765-.888 1.27-1.717 1.46-.867.2-1.723.503-2.6.607-2.328.28-4.666.46-6.994.72-.995.11-1.98.3-2.962.492-1.768.34-1.878.216-1.418-1.65.08-.32.117-.657.13-.99.065-1.174-1.223-2.083-2.32-1.604-.61.264-1.172.644-1.733 1.007-.373.238-.747.5-1.06.82-2.41 2.468-2.315 2.134-5.64 1.898-1.004-.072-2-.197-2.988-.367-.884-.153-.968-.33-.892-1.372.027-.325.117-.663.064-.976-.14-.78-1.056-1.347-1.767-1.16-1.227.33-2.288 1.002-3.083 1.937-.984 1.16-2.165 1.436-3.58 1.35-1.895-.11-3.8-.107-5.692-.23-1.163-.074-1.38-.367-1.264-1.69.053-.624-.102-1.087-.516-1.492-.61-.608-1.427-.81-2.133-.368-1.04.648-2 1.42-3.01 2.112-.36.248-.79.61-1.163.59-2.116-.13-4.224-.353-6.336-.548-.302-.03-.383-.194-.214-.47.338-.564.768-1.09 1.018-1.69.31-.754-.313-1.717-1.096-1.728-.657-.01-1.363.01-1.968.233-.83.304-1.748.653-2.344 1.26-1.43 1.455-3.115 1.423-4.945 1.38-4.14-.082-8.246-.394-12.307-1.234-.765-.157-1.56-.143-2.336-.212-2.555-.246-5.11-.498-7.662-.732-1.01-.092-2.176-.11-2.755-.956-.675-.98-1.09-2.184-1.42-3.35-.208-.722-.07-1.55-.07-2.332-.003-4.363 0-8.72 0-13.08 0-4.473.046-8.947-.02-13.42-.03-1.928.51-3.755.768-5.628.1-.704.624-1.102 1.31-1.372 2.744-1.077 5.566-1.53 8.512-1.48 4.693.08 9.39.08 14.084.058 3.804-.017 7.565-.55 11.317-1.122 3.085-.47 6.16-1.007 9.254-1.425 1.21-.165 2.456-.128 3.68-.126 7.155.013 14.313.072 21.467.048 2.34-.006 4.66-.226 7-.533 2.52-.33 5.13-.07 7.693.037 1.557.062 3.115.277 4.656.505.98.147 1.97.36 2.9.69.98.353 1.54 1.07 1.9 2.145 1.41 4.254 2.297 8.578 2.815 13.035.832 7.14.366 14.283.427 21.42zM101.28 64.583c-1.197.203-2.02.942-2.233 2.168-.31 1.756-.512 3.53-.814 5.285-.15.87-.395 1.728-.636 2.58-.028.097-.42.212-.46.17-.927-1.113-1.837-2.244-2.744-3.376-.697-.867-1.355-1.77-2.08-2.614-1.127-1.31-3.58-1.455-4.67.87-.476 1.018-.643 2.112-.8 3.227-.42 2.987-.35 5.995-.56 8.988 0 1.564.024 3.128-.006 4.69-.028 1.378.34 2.655.892 3.88.17.372.546.744.92.912 1.22.556 2.575.008 2.998-1.247.28-.83.458-1.732.48-2.603.05-2.008-.033-4.02-.036-6.03 0-.55.075-1.102.17-1.643.015-.083.396-.214.475-.154 1.965 1.573 3.425 3.49 3.96 6.014.16.76.234 1.55.495 2.274.178.495.53 1.013.955 1.316 1.666 1.195 3.965.573 4.768-1.297.347-.802.53-1.692.677-2.562.59-3.504 1.202-7.007 1.685-10.53.31-2.315.995-4.59.84-6.96-.167-2.58-1.716-3.79-4.28-3.356zm-66.475 2.904c-4.107-.892-8.597 1.244-9.767 6.372-.416 1.83-.46 3.75-.672 5.627.043.007.09.01.14.016 0 1.45-.113 2.912.015 4.347.377 4.215 3.847 7.592 8.14 7.028.44-.06.89-.08 1.337-.08 2.432.01 4.224-1.185 5.744-2.958 3.907-4.557 3.955-12.725.513-16.803-1.533-1.813-3.168-3.054-5.445-3.552zM38.01 81.13c-.027.106-.03.22-.052.328-.418 1.827-2.112 3.296-3.697 3.203-1.455-.083-2.96-1.986-3.024-3.825-.006-.22 0-.442 0-1.188.155-1.696.646-3.832 1.75-5.792.26-.467.94-.66 1.45-.45 1.76.71 2.904 2.026 3.42 3.804.372 1.266.524 2.596.156 3.92zm25.265-11.2c-2.81-1.63-5.712-3.06-9.146-2.516-.434.067-.89-.032-1.335-.04-1.93-.043-3.147.96-3.803 2.685-.235.61-.357 1.285-.405 1.944-.224 3.107-.405 6.216-.605 9.327.04.003.08.01.122.01 0 1.788-.087 3.575.03 5.357.078 1.2.288 2.447.72 3.57.722 1.874 3.5 2.12 4.654.48.25-.353.39-.79.524-1.213.544-1.725.497-3.516.533-5.297.01-.504.326-.832.805-.885.77-.08 1.564-.026 2.336-.132 3.874-.526 6.552-2.75 8.053-6.237 1.325-3.07.44-5.35-2.485-7.05zm-2.386 4.95c-.98 2.235-3.324 3.496-5.68 3.05-.24-.042-.552-.408-.6-.673-.12-.648-.107-1.323-.153-2.06.032-.485.032-1.044.12-1.588.078-.47.4-.78.9-.813.555-.032 1.127.053 1.664-.058 1.487-.3 2.58.447 3.635 1.28.17.134.218.623.113.857zm15.385-.95c1.11-.106 2.237-.12 3.314-.362 2.657-.595 3.06-1.617 1.796-4.045-.657-1.267-1.52-2.15-3.03-2.3-.65-.065-1.34-.244-1.904-.562-1.73-.97-3.452-.6-5.188-.11-1.496.42-2.507 1.68-2.268 3.25.565 3.7-.36 7.325-.448 10.99-.044 1.66-.367 3.31-.56 4.967l.175.017c0 1.227-.032 2.457.018 3.678.02.425.125.937.383 1.24.798.952 1.76 1.788 3.038 1.92 2.796.3 5.58-.154 8.31-.62 2.245-.385 2.747-2.698 1.16-4.3-.677-.683-1.416-1.032-2.382-.965-1 .066-2.007.08-3.01.117-1.947.075-2.176-.284-1.977-2.082.19-1.664.758-2.094 2.444-1.945.663.06 1.32.288 1.98.284.764-.002 1.55-.096 2.29-.296 1.1-.296 1.492-.843 1.56-1.888.086-1.285-.284-2.013-1.36-2.376-.726-.246-1.505-.423-2.267-.457-.884-.04-1.777.11-2.668.174-.64.05-1.02-.203-1.16-.867-.114-.535-.23-1.1-.19-1.635.08-1.18.7-1.707 1.943-1.826z"/></svg>