<svg xmlns="http://www.w3.org/2000/svg" width="128" height="128" viewBox="0 0 128 128"><path d="M115.164 96.18c-.476-.972.158-1.855-.05-2.78-.782-3.523-.122-7.185-1.034-10.7-.165-4.538-.4-9.076-.477-13.617-.14-8.14-.177-16.277-.263-24.416-.01-.953.006-1.913-.123-2.85-.18-1.297-.62-2.43-2.094-2.866-.437-.13-.866-.595-1.112-1.017-2.497-4.313-5.62-8.173-8.65-12.104-.74-.964-1.763-1.808-1.964-3.17-.224-1.514-1.315-2.082-2.72-2.132-1.163-.04-2.325.013-3.486-.01-.737-.013-1.473-.066-2.206-.138-.94-.09-1.87-.304-2.81-.31-6.87-.024-13.74-.014-20.614-.01-.528 0-1.097-.1-1.576.057-1.754.578-3.555.384-5.337.463-1.902.08-3.827-.03-5.7.24-3.47.496-6.955.46-10.436.54-2.21.052-4.43-.138-6.607.492-.7.2-1.485.09-2.195.26-.576.143-1.02.06-1.46-.288-.556-.437-.967-1.245-1.85-.953-.794.263-1.648.525-2.29 1.02-.73.57-1.322 1.356-1.86 2.127-3.57 5.107-7.41 10.005-11.724 14.504-1.275 1.334-1.7 2.73-1.587 4.57.152 2.52-.04 5.067-.142 7.6-.05 1.26-.325 2.516-.34 3.775-.065 6.018-.182 12.03.426 18.046.48 4.724.517 9.49.678 14.243.123 3.696.15 7.397.178 11.098.017 2.006-.067 4.01-.078 6.017-.005.947-.01 1.904.124 2.834.046.304.502.61.835.79.26.13.62.07.936.09 5.93.31 11.825-.33 17.715-.802 4.734-.382 9.46-.924 14.208-.998 6.13-.097 12.26-.022 18.392-.022v-.207c6.66 0 13.323.068 19.98-.024 3.48-.045 6.983-.17 10.43-.61 3.158-.405 6.305-.593 9.475-.593 3.243 0 3.232-.02 6.128-1.122.87-.33 1.486-.855 1.635-1.75.155-.925.258-1.88.205-2.81-.047-.833-.192-1.72-.555-2.454zm-92.15-56.33c.243-.214.495-.417.747-.623.025-.08.05-.16.077-.24.08.004.142-.008.207-.017l.43-.434c.008-.058.02-.11.018-.178.036.008.06 0 .092.006.04-.34.184-.584.592-.568 0-.01.003-.016.003-.026h.022c-.037-.443.178-.637.61-.608 0-.01.002-.017 0-.028.01 0 .017-.002.026 0-.017-.423.18-.642.62-.62v-.002h.005c.065-.3.044-.657.208-.885 1.84-2.58 3.705-5.143 5.563-7.71.125-.173.264-.333.39-.5.405-.558.885-.77 1.62-.69 3.056.34 6.115.308 9.17-.13.938-.13 1.898-.13 2.847-.142 6.77-.08 13.54-.098 20.312-.238 6.446-.128 12.892-.373 19.336-.587.736-.02 1.483-.096 2.204-.24 1.163-.23 2.268-.295 3.407.212 1.06.476 2.004.18 2.9-.616.67-.597.93-.444 1.426.437 1.62 2.848 3.395 5.58 5.403 8.18 1.28 1.663 2.327 3.508 3.44 5.296.313.504.015 1.14-.54 1.212-2.09.282-4.18.63-6.28.755-2.426.144-4.866.075-7.3.103-3.38.038-6.75.044-10.12.517-4.307.602-8.666.233-13 .245-.275 0-.55-.233-.824-.356.09-.187.155-.392.275-.555.56-.763 1.157-1.5 1.697-2.276.272-.39.157-.832-.155-1.15-.367-.378-.807-.757-1.384-.495-.57.26-1.158.537-1.64.927-1.145.934-2.303 1.87-3.318 2.94-.732.775-1.525 1.073-2.528 1.002-.525-.04-1.063-.027-1.562-.156-.158-.043-.382-.576-.3-.697.475-.693 1.022-1.333 1.558-1.984.4-.48.9-.91 1.208-1.444.173-.31.203-.89.018-1.157-.18-.262-.755-.445-1.086-.365-.6.144-1.224.41-1.696.8-1.216 1.008-2.483 2.002-3.488 3.205-1.122 1.337-2.353 2.045-4.105 1.805-.627-.085-1.266-.06-1.894-.1-.33-.02-.565-.416-.403-.657.53-.78 1.09-1.55 1.593-2.35.15-.233.36-.61-.06-.795-.267-.122-.608-.164-.896-.126-.303.042-.62.174-.87.35-.43.303-.796.7-1.223 1.005-1.107.8-1.778 2.328-3.18 2.523-1.76.245-3.58.075-5.377.062-.395-.003-.644-.645-.37-.972.676-.81 1.398-1.58 2.075-2.39.672-.81 1.333-1.63 1.94-2.488.155-.213.2-.776.082-.85-.316-.205-.81-.408-1.123-.3-.783.27-1.58.62-2.242 1.11-1.347 1.016-2.61 2.144-3.91 3.224-.81.675-1.616 1.357-2.437 2.02-.508.415-1.083.66-1.756.564-.414-.06-.99.013-1.204-.23-.462-.52.165-.93.45-1.257 1.543-1.737 3.112-3.452 4.714-5.132 1.024-1.067 2.147-2.037 3.184-3.09.848-.86.395-2.07-.83-2.387-1.12-.29-2.13-.05-2.955.7-1.4 1.28-2.785 2.598-4.084 3.978-.862.917-1.63 1.904-2.88 2.325v.003h-.003c.023.445-.183.65-.62.62v.027c-.012-.002-.016 0-.024 0 .034.443-.17.64-.61.608 0 .01-.003.015 0 .02-.01 0-.018.006-.028.006 0 .42-.187.623-.593.568-.004.026-.01.047-.014.075l-.096.095c-.038.256-.18.398-.43.435l-.117.116-.165.14c-.09.29-.18.578-.305.85-.03.06-.32-.002-.488-.008.014-.077.002-.18.045-.22zm85.51 58.262c-.214.01-.425.01-.64.014-11.73.25-23.462.467-35.193.776-2.953.077-5.897.432-8.845.68-1.26.107-2.513.28-3.773.4-1.68.166-3.36.313-5.04.465-.315.026-.63.05-.95.05-3.067 0-6.133.006-9.2-.01-1.078-.003-1.246-.314-.687-1.367.638-1.205 1.022-2.552 2.085-3.516.13-.117.078-.63-.068-.836-.68-.95-1.49-1.17-2.46-.832-1.494.526-2.414 1.69-3.24 2.917-.645.96-1.142 2.02-1.703 3.038-.278.508-.705.76-1.28.77-.74.004-1.48.017-2.22.008-.362-.002-.724-.58-.573-.94.28-.682.562-1.362.896-2.015.336-.658.787-1.26 1.084-1.93.248-.57.405-1.196.49-1.812.16-1.164-.447-1.6-1.482-1.204-.82.31-1.468.813-2.045 1.444-1.652 1.806-3.178 3.696-3.884 6.095-.216.738-.648 1.028-1.365 1.008-.21-.004-.425.028-.634.003-.614-.08-1.227-.18-1.838-.273-.336-.907.45-1.29.866-1.832 1.493-1.922 2.707-4.02 3.81-6.18.575-1.12 1.08-2.284 1.548-3.455.088-.213-.07-.647-.266-.815-.192-.172-.59-.238-.853-.17-.39.1-.827.274-1.1.556-1.177 1.214-2.32 2.453-3.435 3.718-.8.907-1.373 2.032-2.523 2.586-.01.047-.017.096-.03.142-.065.017-.138.03-.202.06-.043.048-.085.098-.126.148.032-.05.05-.117.096-.14.01-.006.02-.005.032-.01l.122-.143c.038-.017.07-.04.11-.058.095-.46.133-.946.35-1.34.756-1.39 1.496-2.81 2.42-4.087 1.264-1.74 1.734-3.84 2.788-5.664.144-.25.085-.613.096-.93.016-.366-.557-.81-.886-.644-.455.226-.955.462-1.29.832-1.21 1.32-2.35 2.703-3.54 4.044-.202.228-.51.366-.78.526-.05.03-.178-.008-.223-.06-.06-.07-.127-.19-.114-.274.224-1.397.816-2.605 1.83-3.602 1.752-1.725 2.938-3.865 4.29-5.88.527-.782.91-1.664 1.3-2.53.287-.643.087-1.526-.342-1.726-.63-.293-1.265-.2-1.77.235-.556.473-1.076 1.01-1.528 1.583-1.04 1.33-2.02 2.704-3.05 4.038-.086.11-.37.097-.558.09-.058 0-.12-.16-.164-.256-.043-.092-.08-.195-.085-.296-.05-.63-.07-1.266-.134-1.895-.068-.66.08-1.227.427-1.8 1.863-3.066 3.694-6.143 5.526-9.224.27-.45.506-.926.724-1.408.5-1.12.015-1.873-1.19-1.91-.775-.026-1.473.084-1.985.746-.585.746-1.2 1.46-1.78 2.21-.575.743-1.122 1.515-1.695 2.27-.05.067-.2.098-.295.083-.066-.01-.146-.11-.17-.19-.063-.2-.13-.405-.137-.61-.128-4.54-1.158-8.984-1.423-13.515-.14-2.304-.678-4.58-1.024-6.87-.047-.31-.06-.634-.05-.948.03-1.004.96-1.76 1.956-1.524 2.987.696 6.03.917 9.07 1.277 5.908.702 11.82.512 17.735.52 8.146.005 16.29-.096 24.432-.11 4.12-.012 8.252-.13 12.35.183 2.74.207 5.476.336 8.22.34 1.156 0 2.29-.002 3.45-.302 1-.255 2.1-.157 3.155-.135 2.578.05 5.054-.277 7.29-1.685.48-.306.566.228.577.425.06 1.056.06 2.112.058 3.168-.02 10.788-.066 21.573-.053 32.358 0 1.473.282 2.94.384 4.413.135 1.894.317 3.8.304 5.696-.013 2.036.216 3.996.93 5.904.304.808.053 1.086-.875 1.134zM77.71 65.457c-1.543-1.862-3.253-3.6-4.66-5.557-1.432-1.987-3.16-3.68-4.78-5.48-.81-.898-1.805-1.42-2.955-1.734-.81-.222-1.387-.03-1.986.546-2.06 1.973-4.18 3.875-6.244 5.84-1.07 1.012-2.242 1.98-3.083 3.17-1.956 2.763-4.224 5.262-6.46 7.776-.727.815-.6 1.395-.405 2.244.225.99.815 1.463 1.73 1.557 1.364.14 2.734.2 4.106.29 0-.023 0-.05.003-.075.948 0 1.898-.008 2.847.002.875.01 1.133.264 1.19 1.08.11 1.577.28 3.148.35 4.726.03.832-.033 1.685-.156 2.51-.172 1.148-.51 2.268-.64 3.414-.155 1.357-.238 2.734-.2 4.096.033 1.26.64 1.856 1.89 2.208 1.356.38 2.72.24 4.084.08 1.047-.122 2.1-.38 3.138-.32 1.733.1 3.023-.645 4.263-1.708.773-.663 1.242-1.385 1.184-2.443-.155-2.737-.278-5.475-.396-8.214-.07-1.685-.14-3.37-.154-5.056-.01-.792.4-1.258 1.13-1.217 2.133.123 4.17-.563 6.272-.7 1.03-.065 2.054-.434 3.047-.756.657-.21.9-1.016.55-1.574-1.066-1.69-2.402-3.177-3.674-4.707zM57.7 68.702c-.164.32-.585.608-.945.71-.6.167-1.243.17-1.792.234-.184-.025-.3-.01-.39-.053-.183-.085-.362-.188-.522-.313-.025-.02.03-.218.1-.284 1.17-1.188 2.34-2.374 3.53-3.538.046-.043.396.098.42.198.255 1.056.084 2.095-.4 3.043zm5.038-8.242c.7-.733 1.426-1.443 2.174-2.128.05-.043.344.16.504.275.072.05.088.177.17.36-.367.643-.686 1.407-1.194 2.015-.352.416-.964.256-1.42-.032-.14-.085-.283-.442-.236-.49zm2.902 13.798l-.163.18c-.05-.065-.14-.134-.132-.198.004-.06.096-.117.153-.18.044.065.092.133.142.197zm-4.904-11.11c-.166-.02-.316-.172-.47-.268.07-.072.144-.208.216-.208.173 0 .347.064.542.107-.1.134-.203.374-.285.365zm6.142 24.59c-.84.034-1.682.007-2.522.007l-.002.085c-.21 0-.42-.014-.63.003-2.786.218-2.68-.14-2.286-2.543.1-.61.37-1.195.58-1.792.03-.085.138-.146.21-.22.1.12.25.228.285.368.082.3.067.63.16.928.427 1.376 1.6 2.112 2.837.913.3-.293.61-.58.925-.86.316-.28.632-.124.728.167.224.69.42 1.4.493 2.117.043.43-.3.804-.776.828zm3.808-18.83c-.183-.08-.28-.424-.344-.672-.014-.053.325-.296.41-.258.243.115.437.33.78.608-.385.16-.68.39-.846.322z"/></svg>