<svg xmlns="http://www.w3.org/2000/svg" width="128" height="128" viewBox="0 0 128 128"><path d="M92.442 69.958c-.11-.958-.24-1.91-.31-2.87-.458-6.2.23-12.436-.61-18.634-.27-2.003-.382-4.043-.565-6.064-.395-4.43-1.736-8.58-3.144-12.736-.48-1.42-1.135-2.79-1.502-4.238-.48-1.92-1.283-3.62-2.586-5.11-.987-1.127-1.922-2.3-2.87-3.46-1.302-1.59-3.017-2.33-5.022-2.528-.735-.07-1.53-.096-2.183-.386-3.226-1.442-6.63-1.725-10.067-1.504-3.013.194-5.932.885-8.394 2.822-1.26.996-2.48 2.046-3.756 3.025-4.002 3.083-6.72 7.18-9.006 11.578-3.765 7.235-5.42 15.072-6.39 23.09-.785 6.518-.703 13.06-.575 19.604.016.86.026 1.717.1 2.573.375 4.27.83 8.533 1.13 12.804.274 3.904 1.288 7.646 2.926 11.106 1.642 3.47 3.83 6.7 5.92 9.94 1.04 1.616 2.435 2.975 3.924 4.23 1.46 1.227 3.14 1.93 4.975 2.033 2.24.126 4.524.17 6.747-.096 4.13-.493 4.736-.847 8.2-3.32.435-.313.846-.66 1.27-.99 2.17-1.664 3.718-3.81 4.855-6.277 2.056-4.457 2.827-9.184 2.914-14.048.04-2.146.008-4.293-.002-6.443-.002-.535.085-1.124-.105-1.59-.547-1.35-.44-2.748-.453-4.13-.032-3.65-.013-7.3-.013-10.95h.09c0-3.325-.108-6.66.033-9.98.136-3.195-.608-6.16-1.778-9.07-1.01-2.5-2.337-4.83-3.97-6.966-.647-.85-1.407-1.623-2.192-2.35-1.23-1.13-2.704-1.642-4.387-1.73-3.19-.173-5.855.93-8.266 2.935-1.483 1.232-2.31 2.734-2.587 4.635-.387 2.648-.79 5.298-1.35 7.913-.653 3.07-.795 6.148-.757 9.268.032 2.787-.08 5.58-.17 8.363-.07 2.144-.3 4.285-.283 6.42.02 2.513.843 4.85 2.17 6.96 1.027 1.643 2.61 2.5 4.57 2.59 2.132.098 3.514-.89 3.98-2.94.405-1.786.5-3.576-.27-5.316-.753-1.698-.918-3.496-.912-5.338.028-5.69.022-11.377.005-17.067-.01-3.29.883-6.32 2.483-9.174.36-.642.9-.87 1.583-.877 1.34-.02 2.26.69 2.817 1.807.57 1.147.888 2.426 1.507 3.54 1.563 2.82 1.956 5.793 1.893 8.993-.11 5.898.075 11.8.14 17.705.002.427.006.86.06 1.283.696 5.455.392 10.928.403 16.397.002 2.083-.79 3.797-2.334 5.09-1.734 1.457-3.28 3.052-4.78 4.748-3.374 3.82-9.802 4.71-13.772-.26-.736-.918-1.49-1.86-2.008-2.905-1.38-2.784-2.72-5.596-3.904-8.467-.688-1.665-1.338-3.385-1.414-5.246-.18-4.283-.462-8.565-.587-12.85-.116-3.97-.11-7.946-.116-11.914-.004-5.368.404-10.713 1.438-15.98 1.11-5.678 2.508-11.253 5.356-16.395 2.274-4.094 4.8-7.856 9.197-9.946.094-.045.18-.12.257-.19.632-.604 1.338-.644 2.047-.19.955.612 1.813.512 2.64-.22.077-.073.175-.133.27-.17 5.304-2.11 7.65-1.907 10.94 1.837.213.242.45.465.645.717 2.516 3.232 4.586 6.688 5.972 10.592 2.507 7.056 3.15 14.402 3.525 21.768.304 5.888.23 11.804.248 17.707.004 1.69.58 3.145 1.39 4.545.546.95 1.865 1.186 2.84.626.783-.45 1.227-1.133 1.534-1.98.756-2.087.65-4.212.4-6.354z"/></svg>