<svg xmlns="http://www.w3.org/2000/svg" width="128" height="128" viewBox="0 0 128 128"><path d="M120.994 39.006c-1.12-.656-2.65-.445-3.586.578-.434.474-.76 1.056-1.1 1.608-1.38 2.237-2.93 4.35-4.886 6.115-2.147 1.94-4.31 3.872-6.558 5.696-1.806 1.47-3.695 2.86-5.637 4.145-3.21 2.127-6.814 3.492-10.328 5.005-3.345 1.438-6.763 2.706-10.127 4.096-.672.275-1.255.766-1.885 1.15-.307.192-.635.533-.93.512-.73-.053-1.458-.237-2.16-.46-.202-.065-.366-.408-.446-.656-.082-.258-.064-.558-.048-.835.168-2.655-.303-2.62 2.605-2.66 1.052-.015 2.042-.23 3.01-.582.84-.31 1.443-.874 1.553-1.81.096-.816-.55-1.684-1.608-2.046-.693-.238-1.44-.388-2.173-.432-.64-.04-1.294.113-1.94.203-1.996.286-2.143.17-2.11-1.754.007-.373.033-.747.062-1.118.043-.52.31-.913.83-.98 1.475-.193 2.96-.342 4.442-.505 1.392-.153 2.782-.3 4.17-.448.786-.08 1.412-.465 1.95-1.02.677-.703.6-1.866-.166-2.48-.834-.67-1.794-1.034-2.855-1-1.677.053-3.353.174-5.027.277-.37.02-.736.098-1.104.128-.302.025-.565-.528-.467-.843.194-.617.69-.907 1.227-1.035 1.995-.477 4.004-.893 6.008-1.333.818-.18 1.666-.28 2.44-.58.776-.294 1.52-.73 2.188-1.223.98-.72.88-1.815-.15-2.545-.23-.16-.463-.334-.72-.437-1.31-.526-2.644-.905-4.09-.595-1.18.25-2.376.46-3.572.663-.062.01-.256-.256-.238-.363.114-.59.437-1.005 1.083-1.118 2.585-.45 5.195-.66 7.813-.61 1.698.034 3.347-.286 5.013-.5.763-.1 1.412-.453 1.984-.96.615-.543.678-1.364.187-2.01-.8-1.057-1.92-1.443-3.18-1.52-2.803-.172-5.607-.137-8.403.156-.184.02-.39.135-.542.08-.13-.044-.313-.315-.277-.404.284-.686.625-1.344.924-2.022.292-.657.784-1.026 1.49-1.126 1.938-.277 3.855-.677 5.834-.704 1.39-.02 2.79-.23 4.16-.498.704-.14 1.395-.525 2.007-.926.775-.51.907-1.79.316-2.507-.667-.813-1.458-1.42-2.55-1.597-1.94-.313-3.87-.7-5.837-.21-.156.04-.344-.074-.52-.118.046-.164.04-.37.144-.49.838-1 1.76-1.935 2.533-2.98.777-1.05.652-2.353-.183-3.356-.3-.358-.774-.61-.96-1.008-.66-1.406-1.813-1.472-3.08-1.235-1.744.326-3.48.687-5.208 1.07-.447.1-.88.31-1.28.543-1.75 1.02-3.157 2.48-3.895 4.294-.608 1.498-1.49 2.773-2.278 4.134-.837 1.454-1.617 2.954-2.304 4.483-1.854 4.107-3.06 8.422-4.006 12.808-1.152 5.377-2.79 10.653-3.38 16.15-.086.807-.71 1.563-1.413 1.547-2.117-.037-3.99.82-5.963 1.298-.616.15-1.3.134-1.935.06-.957-.113-1.84-.014-2.73.38-1.964.867-3.978 1.633-5.92 2.537-.65.302-1.202.864-1.708 1.39-.228.238-.373.702-.326 1.03.454 3.16.113 6.346.22 9.512 0 2.993.13 5.993-.035 8.976-.198 3.537-.584 7.073-1.026 10.59-.21 1.652-.285 3.356-.958 4.922-.078.18-.432.384-.606.348-.544-.114-1.07-.322-1.593-.526-1.495-.597-2.95-.437-4.328.306-1.067.576-2.08 1.244-3.107 1.888-.63.4-1.23.848-1.86 1.25-.364.232-.77.12-.94-.257-.384-.85-.715-1.726-1.117-2.57-.48-1.004-1-1.994-1.524-2.98-.736-1.382-1.948-1.92-3.465-1.962-2.436-.067-4.854-.032-7.23.632-3.692 1.026-6.844 2.915-9.51 5.67-.88.91-1.095 2.712-.153 3.855.96 1.16 2.356 1.355 3.758.45 1.1-.705 2.144-1.505 3.243-2.207 2.252-1.44 4.697-2.276 7.397-2.286 1.015-.004 1.41.194 1.74 1.058.33.875.537 1.796.912 2.647.522 1.195 1.074 2.387 1.757 3.496.32.516.91.987 1.48 1.205 2.02.765 4.02.675 5.9-.512.554-.35 1.106-.702 1.64-1.077.688-.49 1.383-.967 2.023-1.51.88-.744 1.74-.97 2.802-.323.63.38 1.386.552 2.066.85 1.064.467 2.164.323 2.868-.448.945-1.038 1.94-1.64 3.34-1.583.082.004.164-.08.25-.117 1.98-.82 4.02-1.486 5.918-2.506 3.05-1.645 6.29-2.848 9.568-3.957 3.357-1.144 6.73-2.26 9.94-3.792.42-.2.872-.437 1.318-.457 1.937-.09 3.523-1.042 5.195-1.875 1.362-.683 1.936-1.656 1.968-3.087.033-1.31.13-2.62.094-3.928-.04-1.522.285-2.96.757-4.388.5-1.504 1.017-3.008 1.39-4.548.32-1.305-.53-2.513-1.924-3.02-.998-.36-2.19.187-2.79 1.298-.13.245-.202.523-.292.782-.962 2.738-1.704 5.533-2.046 8.416-.142 1.205-.11 2.427-.17 3.642-.06 1.152-.13 1.293-1.22 1.507-2.307.46-4.513 1.17-6.623 2.213-.5.248-1.04.416-1.565.614-4.277 1.615-8.56 3.23-12.84 4.843-.085.032-.187.055-.275.043-.08-.01-.203-.053-.224-.114-.05-.15-.135-.376-.066-.462 1.748-2.19 3.55-4.336 5.265-6.557.884-1.148 1.797-2.123 3.37-2.14.18 0 .365-.078.544-.138 2.315-.767 3.53-2.338 3.654-4.75.027-.56.002-1.123-.002-1.684-.013-3.292-2.906-6.88-7.906-5.305-2.01.636-3.288 2.15-3.42 4.35-.092 1.487-.225 3.03.07 4.464.228 1.088-.025 1.775-.633 2.533-2.22 2.766-4.427 5.55-6.645 8.323-.053.068-.14.12-.22.16-.077.044-.183.104-.244.08-.07-.03-.162-.142-.16-.216.028-1.3-.075-2.624.146-3.89.392-2.232.395-4.466.403-6.707.015-4.487-.195-8.96-.478-13.44-.234-3.66-.45-2.9 3.047-4.117.176-.06.37-.064.553-.103 2.916-.635 5.833-1.267 8.747-1.9 1.088-.236 2.176-.48 3.262-.717 1.012.715 1.512 1.858 2.3 2.758 2.632 3.006 5.832 4.917 9.927 5.05 1.028.032 2.03.105 3.044.363 1.654.42 3.308.294 4.96-.282 2.39-.83 4.703-1.82 6.93-3.014 4.048-2.165 7.84-4.743 11.527-7.46 4.593-3.376 9.032-6.946 13.28-10.767 2.813-2.526 5.197-5.357 7.123-8.59.288-.48.58-.972.78-1.49.564-1.456-.044-2.998-1.464-3.832z"/></svg>