<svg xmlns="http://www.w3.org/2000/svg" width="128" height="128" viewBox="0 0 128 128"><path d="M114.362 19.81c-.987-3.092-4.86-5.505-8.284-4.952-2.216.356-4.27 1.16-5.923 2.78-1.207 1.185-2.428 2.354-3.66 3.51-.926.866-1.89 1.69-2.81 2.56-.72.68-1.467.747-2.3.258-1.017-.594-2.075-1.05-3.288-.97-1.105-.108-2.105.282-3.02.807-2.484 1.436-4.73 3.187-6.548 5.426-.53.65-.973 1.382-1.376 2.12-.5.924-.41 1.86.288 2.65.483.55 1.052 1.04 1.636 1.48.67.508 1.4.938 2.113 1.393 2.42 1.55 4.518 3.47 6.483 5.547.45.473.448 1.142-.067 1.31-1.903.62-2.914 1.906-3.134 3.865-.01.102-.075.195-.12.29-.436.912-1.1 1.2-2.073.91-.695-.21-1.39-.494-2.1-.565-.334-.034-.77.297-1.046.58-.344.354-.14.778.14 1.12.2.24.41.48.64.697 1.206 1.124.82 1.723.003 2.677-.275.32-.535.653-.836.946-.496.483-1.087.597-1.75.363-.684-.243-1.353-.576-2.062-.71-.886-.17-1.597.555-1.68 1.475-.086.912.303 1.61.784 2.334.46.685.357 1.07-.176 1.675-.676.768-1.4 1.255-2.482.72-.46-.227-.992-.37-1.504-.426-2.025-.21-3.368 1.645-2.584 3.554.16.386.405.74.622 1.102.35.58.035 1.007-.323 1.405-.43.477-.923.876-1.61.903-.42.017-.848-.02-1.265.034-.96.123-1.515.643-1.707 1.596-.12.61-.14 1.248-.305 1.847-.178.63-.88 1.02-1.5.884-.716-.154-1.414-.422-2.134-.525-.832-.12-1.71.74-1.63 1.553.05.516.18 1.042.364 1.525.28.735-.062 1.198-.55 1.655-1.023.95-2.098 1.392-3.41.504-.234-.158-.602-.15-.91-.177-.592-.06-1.228.605-1.168 1.22.032.312.02.676.178.915.732 1.112.35 1.952-.506 2.78-1.38 1.338-1.845 1.927-3.83.86-.276-.15-.577-.26-.874-.368-.795-.28-1.58.015-2.19.804-.47.614-.564 1.484-.132 2.067.37.51.843.943 1.237 1.435.117.15.22.422.164.578-.342.92-.982 1.61-1.825 2.1-.565.332-.98-.138-1.444-.347-.475-.216-.942-.5-1.444-.595-.73-.138-1.465-.108-2.014.568-.56.69-.422 1.357-.035 2.045.05.094.1.19.144.286.337.743 1.303 1.347.943 2.225-.304.74-1.022 1.313-1.58 1.94-.28.316-.596.6-.914.875-.53.45-1.256.518-1.74.08-1.95-1.776-3.888-3.57-5.807-5.38-.576-.545-.54-.982.07-1.622 1.674-1.762 3.482-3.41 5.026-5.278 3.645-4.413 7.792-8.322 12.013-12.155 6.955-6.325 14.01-12.54 20.345-19.51 2.34-2.578 4.73-5.117 7.07-7.697.492-.542.89-1.17 1.31-1.774 1.114-1.6-.25-4.147-2.228-4.213-1.232-.04-2.276.21-3.13 1.167-1.335 1.498-2.7 2.968-4.066 4.44-3.59 3.868-7.132 7.785-10.8 11.58-2.2 2.273-4.608 4.347-6.912 6.52-1.84 1.743-3.648 3.52-5.507 5.247-4.805 4.47-9.22 9.29-13.22 14.488-1.61 2.09-3.168 4.232-5.137 6.01-1.52 1.373-2.55 3.054-3.438 4.88-1.547 3.188-2.667 6.43-2.05 10.05.154.898-.145 1.625-.768 2.298-1.512 1.62-2.99 3.272-4.45 4.943-.41.47-.807.99-1.046 1.554-.25.597-.16 1.257.323 1.773.467.504 1.107.757 1.717.477 1.052-.476 2.093-1.013 3.035-1.675 1.378-.975 2.677-2.065 3.98-3.137.788-.65 1.666-.87 2.657-.73.415.056.846.085 1.244.213 2.83.896 5.212-.12 7.326-1.864.957-.79 1.616-1.93 2.49-2.835.87-.902 1.875-1.67 2.752-2.567.88-.9 1.613-1.945 2.517-2.818 3.343-3.227 6.7-6.443 10.113-9.59 2.014-1.86 4.103-3.644 6.237-5.366 3.862-3.12 7.76-6.197 11.286-9.696 4.875-4.838 9.675-9.75 14.573-14.556 2.583-2.532 4.82-5.304 6.75-8.354.28-.444.585-.882.942-1.26.324-.345.757-.33 1.13-.04.25.192.478.416.677.66.827.993.847 1.484.015 2.505-1.202 1.47-2.41 2.94-3.667 4.366C84.523 61.85 79.4 67.607 74.31 73.396c-.62.706-1.146 1.506-1.664 2.296-.334.51-.143 1.02.207 1.457.74.914 1.493 1.13 2.504.644.66-.32 1.334-.665 1.887-1.13 1.693-1.436 3.428-2.833 4.965-4.42 3.67-3.793 7.282-7.65 10.836-11.553 2.2-2.42 4.268-4.96 6.372-7.467 2.254-2.69 4.02-5.68 5.42-8.892.686-1.568 1.15-3.173 1.052-4.9-.078-1.337-.688-2.156-1.94-2.582-.498-.165-1.025-.245-1.527-.405-.587-.19-.67-.705-.178-1.184.6-.59 1.226-1.16 1.844-1.736 2.555-2.37 5.114-4.735 7.663-7.107.544-.5 1.133-.978 1.57-1.563 1.125-1.498 1.646-3.118 1.036-5.03zm-83.02 79.843c-.987 1.016-2.236 1.585-3.59 1.852-1.445.284-3.283-.98-2.857-2.85.325-1.434.79-2.835 1.222-4.243.112-.376.78-.5 1.062-.21 1.395 1.43 2.787 2.866 4.17 4.316.127.136.15.376.225.57-.077.192-.104.43-.235.565zm66.72-54.96c-.095.147-.667.19-.8.056-.816-.815-1.59-1.67-2.34-2.547-1.428-1.685-2.783-3.43-4.258-5.072-1.483-1.652-3.264-2.962-5.11-4.195-1.486-.987-1.48-1.355-.03-2.563 2.593-2.15 2.44-2.222 4.498.62 1.98 2.73 4.056 5.37 6.33 7.863.78.85 1.447 1.805 2.13 2.738.24.33.368.738.604 1.224-.33.632-.623 1.29-1.02 1.877zM99.54 31.06c-.183.442-.625.79-1.003 1.12-.096.086-.427.004-.576-.1-1.15-.802-1.85-1.976-2.462-3.187-.096-.192.344-.658.506-.945.37.06.615.028.766.13.852.597 1.722 1.187 2.5 1.877.242.22.394.817.27 1.106zm8.16-8.436c-.31.183-.84.267-1.144.12-.644-.306-1.237-.75-1.78-1.22-.336-.29-1.15-.384-.818-1.043.2-.396.755-.66 1.2-.876.453-.224.968-.315 1.216-.39 1.286.053 2.025.538 2.475 1.45.265.534-.2 1.415-1.148 1.96z"/></svg>