<svg xmlns="http://www.w3.org/2000/svg" width="128" height="128" viewBox="0 0 128 128"><path d="M117 43.012c-.837-1.27-1.13-2.613-1.358-4.053-.128-.8-.496-1.59-.91-2.3-.99-1.7-2.04-3.368-3.116-5.017-1.416-2.165-2.997-4.22-4.013-6.64-.56-1.342-1.51-2.45-2.642-3.416-1.27-1.085-2.61-2.062-4.126-2.752-2.45-1.117-4.933-2.165-7.42-3.2-.56-.237-1.187-.416-1.793-.446-3.065-.146-3.647-.89-6.026 2.57-1.963 2.857-4.384 5.244-7.108 7.352-.573.444-1.13.917-1.64 1.433-2.278 2.29-4.812 4.256-7.36 6.222-2.302 1.774-4.528 3.648-6.457 5.835-1.446 1.634-2.86 3.29-4.317 4.91C52.046 50.926 44.98 57.93 37.36 64.375c-3.72 3.147-7.36 6.394-11.05 9.58-1.207 1.04-2.08 2.258-2.603 3.79-.602 1.76-1.357 3.472-2.062 5.196-2.234 5.47-4.484 10.924-6.062 16.633-.324 1.173-1.024 2.253-1.628 3.333-.456.81-1.045 1.542-1.553 2.325-.858 1.324-1.39 2.788-1.684 4.317-.3 1.553.754 2.903 2.32 3.112.3.04.615-.044 1.12-.093 2.036.17 4.157-.47 6.075-1.435 2.436-1.222 4.957-1.915 7.603-2.468 6.275-1.318 12.384-3.386 18.805-4.043.9-.09 1.793-.517 2.628-.913 1.402-.667 2.773-1.408 4.13-2.165.626-.352 1.232-.77 1.78-1.237 1.745-1.472 3.495-2.94 5.174-4.484 4.738-4.357 9.762-8.365 14.76-12.413 3.14-2.547 6.212-5.184 9.223-7.886 3.704-3.327 7.267-6.807 10.972-10.135 4.092-3.674 8.267-7.25 12.412-10.86 2.11-1.84 4.274-3.623 6.333-5.52.98-.908 1.81-1.988 2.628-3.054.677-.884.904-2.052.32-2.937zM92.756 24.224c.006.006.01.017.016.024l.21.112c-.01.04-.01.075-.015.112.73.286 1.47.546 2.176.88.308.147.87.3.635.794-.157.32-.57.552-.915.725-.403.205-.823.058-1.045-.32-.373-.65-.995-1.224-.85-2.077l-.066-.026c-.04-.067-.08-.14-.13-.2l-.167-.09c.05.022.12.027.15.065zm-7.28 1.803c.378-.33.787-.62 1.12-.88.333.125.547.157.7.27 1.33.965 2.655 1.945 3.98 2.92.328.24.3.73-.072 1.042-.483.403-1 .803-1.656.382-1.383-.896-2.752-1.806-4.117-2.73-.375-.255-.35-.658.047-1.007zM79.53 31.16c.288-.29.576-.58.893-.84.15-.117.36-.16.544-.235.19.064.41.085.558.2.734.555 1.416 1.175 2.17 1.693 2.574 1.768 1.856 1.487.592 3.44-.53.82-.825.887-1.333.19-.83-1.134-2.072-1.626-3.21-2.287-1.402-.81-1.426-.96-.215-2.156zm-9.22 8.82c.773-.955 1.546-1.908 2.335-2.85.448-.536.613-.58 1.89-.34.864.09 2.22.51 3.465 1.282 1.39.86 1.438 1.216.197 2.17-.08.064-.163.125-.24.19-.505.433-.925.6-1.58.09-.624-.486-1.426-.844-2.2-1.017-1.237-.277-2.456-.15-3.415.868-.064.066-.355-.085-.54-.133.027-.085.033-.192.087-.258zm-4.83 4.79c.082-.062.17-.134.26-.16.084-.02.22-.02.268.032 1.36 1.517 3.057 1.938 5.01 1.56.07-.012.185.095.242.17.045.06.028.162.053.34-.722.64-1.483 1.322-2.246 1.998-.31.27-.624.538-.956.78-.26.188-.606.23-.687-.15-.293-1.397-1.265-2.312-2.216-3.257-.347-.348-.195-.974.275-1.314zm-5.1 5.807c.32-.63 1.07-1.082 1.415-.937.283.115.584.22.818.4.645.498 1.26 1.04 1.888 1.554.38.31.445.65.083 1.003-.51.497-1.03.987-1.568 1.45-.14.124-.366.14-.55.2-.158-.1-.417-.174-.455-.31-.293-1.002-.812-1.844-1.543-2.59-.15-.153-.188-.573-.087-.772zm-.876 5.792h.194c-.036.115-.07.233-.11.35-.058-.064-.138-.114-.17-.19-.017-.037.056-.112.085-.162zM41.232 68.32c.674-.778 1.42-1.492 2.15-2.228.598-.603 1.226-1.152 2.403-.637.6-.14 1.412-.264 2.18-.52.898-.304 1.38-1.056.994-1.928-.493-1.1-.096-1.766.627-2.46.518-.498 1.048-.996 1.536-1.53.79-.87 1.664-1.155 2.74-.534.17.1.41.072.593.16.69.32 1.707-.3 2.15.734-.474.523-.908 1.09-1.435 1.557-2.4 2.118-4.79 4.256-7.254 6.293-1.51 1.246-3.142 2.34-4.74 3.467-.453.32-.97.294-1.453-.02-.937-.606-1.173-1.564-.494-2.35zM48.818 98c-1.163.408-2.322.855-3.52 1.143-2.712.646-5.458 1.163-8.17 1.824-2.11.515-4.182 1.17-6.27 1.755-.737.207-1.166.05-1.39-.78-.38-1.388-1.24-2.308-2.358-3.152-1.064-.806-2.04-1.76-2.918-2.77-.85-.98-1.058-2.108-.627-3.467 1.15-3.648 2.18-7.334 2.812-11.122.083-.494.338-.97.573-1.424.302-.582.978-.816 1.59-.5 2.116 1.09 4.223 2.2 6.314 3.338 1.378.752 2.048 1.877 2.066 3.536.046 4.212 1.513 4.253 4.452 4.474 1.136.085 2.28.075 3.413.19 1.467.154 2.453.82 2.82 2.413.302 1.297.923 2.517 1.4 3.774.04.098.084.19.126.286-.103.168-.17.44-.31.487zM46.55 85.257c-.757 1.042-1.646 1.513-2.893 1.412-.31-.024-.623-.007-.93-.03-.83-.067-1.345-.55-1.43-1.356-.043-.41-.047-.826-.096-1.71-.096-.894.444-1.89 1.53-2.73 5.237-4.086 9.886-8.835 14.837-13.244 6.89-6.137 13.553-12.507 20.208-18.892 2.4-2.3 5.06-4.274 8.043-5.795 2.775-1.416 5.367-3.108 7.808-5.058 2.187-1.744 4.507-3.313 7.02-4.57.824-.407 1.388-.335 1.95.334 2.747 3.25 3.107 3.123-.457 5.953-1.865 1.48-3.828 2.837-5.676 4.34-1.85 1.502-3.593 3.132-5.414 4.662-1.427 1.202-2.877 2.373-4.36 3.505-7.82 5.974-15.635 11.95-23.484 17.885-4.718 3.57-9.3 7.283-13.43 11.528-1.153 1.18-2.255 2.432-3.225 3.763zm64.4-42.187c-.24.445-.575.865-.95 1.204-2.144 1.952-4.264 3.934-6.478 5.803-6.73 5.683-13.308 11.53-19.624 17.672-5.352 5.2-11.012 10.06-16.932 14.607-3.376 2.594-6.573 5.374-9.53 8.43-1.01 1.046-2.046 2.063-3.097 3.062-.207.194-.544.25-.79.354-.22-.145-.436-.224-.543-.373-.18-.252-.324-.54-.42-.83-.412-1.277-.753-2.58-1.214-3.84-.326-.89-.245-1.594.496-2.22 2.05-1.745 4.03-3.58 6.15-5.237 5.3-4.146 10.657-8.22 16-12.31 6.414-4.91 12.86-9.78 19.24-14.735 2.124-1.647 4.054-3.545 6.13-5.254 3.115-2.57 6.283-5.077 9.435-7.605.78-.62 1.54-.477 2.063.414.13.23.177.64.06.855z"/></svg>