<svg xmlns="http://www.w3.org/2000/svg" width="128" height="128" viewBox="0 0 128 128"><path d="M94.16 47.424c2.01-6.352 3.45-12.85 5.054-19.31.31-1.256.544-2.488.368-3.757-.495-3.558-1.192-7.08-1.978-10.588-.395-1.766-1.483-3.01-2.726-4.173-.33-.31-.808-.267-1.158.035-.315.27-.614.584-.84.932-1.084 1.69-2.142 3.4-3.21 5.102-.955 1.525-1.93 3.05-3.29 4.25-1.532 1.348-2.69 2.932-3.647 4.737-.648 1.227-1.205 2.434-1.568 3.776-.523 1.934-1.182 3.835-1.81 5.742-.095.286-.306.538-.488.79-.053.07-.188.106-.288.112-.055.003-.165-.083-.17-.14-.046-.415-.11-.837-.096-1.256.09-2.64.224-5.28.292-7.922.08-2.965.11-5.928.155-8.893.033-2.336.253-4.638 1.02-6.87.2-.58.22-1.247.2-1.87-.005-.222-.337-.592-.56-.624-.73-.107-1.472-.107-2.212-.11-2.224-.013-4.45-.005-6.67-.005v.224c-2.752 0-5.504-.03-8.254.007-2.702.04-4.203 1.966-3.844 4.31.38 2.508.463 5.055.82 7.564.69 4.824 1.07 9.65 1.115 14.53.062 6.66-.34 13.334.463 19.98.037.313.01.634-.006.95-.02.317-.068.63-.105.943-.11-.252-.225-.5-.33-.757-.55-1.37-1.08-2.75-1.658-4.11-.313-.73-.38-1.418.003-2.128.597-1.11.355-2.032-.612-2.796-.532-.42-.797-.976-.817-1.647-.056-1.63-.73-3.068-1.355-4.528-.375-.872-.697-1.772-.987-2.674-1.17-3.618-2.324-7.24-3.466-10.866-.597-1.91-1.45-3.758-1.425-5.824.004-.31-.096-.626-.188-.928-.448-1.5-1.25-2.125-2.784-2.04-.728.043-1.468.184-2.162.41-2.23.725-4.304 1.672-5.894 3.536-.87 1.02-2.255 1.62-2.328 3.236-.008.17-.477.383-.762.465-.81.236-1.636.423-2.46.61-.413.092-.85.095-1.247.217-1.463.445-2.093 1.53-1.594 2.932.425 1.19 1.008 2.33 1.51 3.492 1.045 2.427 2.1 4.85 3.115 7.288.93 2.242 1.65 4.576 3.15 6.555.434.574.644 1.314 1.024 1.937.252.416.98.533 1.44.295.494-.26.937-.693.8-1.245-.305-1.21-.32-2.485-1.14-3.584-.62-.826-.97-1.866-1.37-2.836-1.454-3.518-2.713-7.12-4.57-10.46-.155-.274-.25-.58-.36-.876-.127-.35.176-.896.54-1.008 2.86-.877 2.925-.9 4.007 1.986 1.965 5.242 4.215 10.383 5.662 15.81.212.81.44 1.716.955 2.326 1.42 1.68 1.714 3.85 2.706 5.707.193.358-.212.78-.673.778-1.4-.006-2.697-.442-3.974-.95-.092-.035-.16-.452-.105-.49.43-.288.91-.5 1.34-.79.54-.357 1.004-.796.868-1.543-.112-.606-.9-.99-1.854-.75-1.84.468-3.68.957-5.466 1.59-.512.18-.955.82-1.232 1.352-1.022 1.96-1.01 4.085-.683 6.194.457 2.924 1.02 5.827 1.524 8.74.723 4.16 1.45 8.322 2.155 12.485.707 4.166 1.35 8.337 2.432 12.435.646 2.443 1.003 4.964 1.48 7.452.395 2.073.774 4.15 1.16 6.227.423 2.282.912 4.554 1.244 6.852.18 1.266.66 2.193 1.83 2.75.378.18.747.406 1.067.673 1.992 1.678 4.356 2.512 6.827 3.207 5.348 1.508 10.787 2.02 16.32 1.884 4.403-.107 8.25-1.717 11.756-4.22 2.07-1.476 3.238-3.53 3.415-6.133.196-2.847.47-5.69.736-8.53.252-2.735.483-5.475.82-8.202.58-4.717 1.247-9.423 1.85-14.14.27-2.095.422-4.207.722-6.298.63-4.39 1.46-8.747 1.946-13.166.277-2.528.373-5.058.558-7.584.09-1.248.157-2.533-.453-3.74-.16-.32-.07-.808-.006-1.204.098-.625.237-1.25.427-1.852zm-6.144-23.34c1.255-1.422 2.56-2.802 3.917-4.127.715-.698 2.296-.31 2.726.605.222.475.444.973.536 1.483.26 1.448.45 2.907.693 4.537-.095.096-.278.465-.486.478-.504.032-1.02-.093-1.53-.175-.093-.015-.196-.102-.25-.184-1.153-1.696-2.553-2.057-4.316-.876-.447.3-1.008.017-1.234-.584-.133-.355-.248-.945-.06-1.155zm-8.46 28.273c2.188-6.072 3.483-12.384 5.02-18.63.426-1.743.87-3.48 1.322-5.217.128-.498.498-.648.943-.42 2.51 1.302 2.54 1.313 1.517 4.05-1.365 3.66-2.833 7.282-4.162 10.956-.718 1.98-1.227 4.036-1.86 6.048-.33 1.054-.33 2.052.103 3.09.245.587-.006 1.09-.533 1.243-.597.175-1.22.303-1.843.343-.218.015-.458-.29-.68-.443.067-.4.07-.73.176-1.02zm-2.32 10.336c-.806 1.8-1.61 3.605-2.44 5.4-.032.068-.41.088-.496 0-1.26-1.274-2.18-2.784-2.965-4.378-.123-.252-.12-.693.288-.754 1.746-.26 3.495-.48 5.248-.687.095-.013.22.245.368.422zM54.916 92.25c.442-.59.89-1.177 1.36-1.738.333-.39.71-.37 1.047.02 1.038 1.19 2.076 2.378 3.098 3.583.13.15.163.38.24.576-.075.19-.112.407-.237.557-2.613 3.17-1.795 4.018-4.678.046-.245-.34-.51-.67-.757-1.01-.478-.66-.594-1.34-.073-2.032zM52.507 76.7c-.555-.88-.64-1.744-.04-2.646 1.147-1.72 1.57-3.868 3.153-5.328 1.07 1.678 2.144 3.356 3.208 5.038.28.444.56.892.794 1.36.137.272.185.588.25.81-.054.292-.044.523-.137.7-.932 1.76-1.87 3.518-2.832 5.263-.244.442-.783.493-1.023.117-1.136-1.765-2.246-3.544-3.37-5.315zm6.634 9.524c.243-1.713 1.32-3.044 2.094-4.512.34-.647.728-1.274 1.106-1.906.05-.085.156-.14.237-.207.17.105.38.18.51.327 1.097 1.274 2.18 2.562 3.267 3.844.467.55.507 1.13.15 1.745-.897 1.544-1.79 3.093-2.713 4.625-.352.586-.915.686-1.294.23-1.138-1.367-2.242-2.762-3.36-4.144zm5.775-11.973c1.085-2.63 2.178-5.257 3.296-7.872.03-.075.398-.112.49-.032.23.203.408.47.577.73 1.088 1.683 2.172 3.365 3.245 5.057.162.256.253.557.352.78-.09.283-.133.49-.224.676-.97 1.992-1.933 3.99-2.928 5.967-.378.75-.832.755-1.425.075-1.038-1.198-2.072-2.397-3.097-3.604-.448-.526-.55-1.14-.286-1.775zM63.11 98.466c.526-.747.88-.79 1.536-.256 1.056.86 2.085 1.75 3.108 2.646.145.124.198.352.29.533-.045.197-.03.443-.146.586-.784.978-1.58 1.952-2.41 2.89-.298.34-.72.406-1.11.082-.324-.267-.65-.533-.946-.826-3.25-3.19-2.844-2.062-.323-5.657zm4.572-6.71c.885-1.28 1.205-2.932 2.55-3.908 1.17.896 2.34 1.79 3.504 2.69.498.388 1.016.764 1.446 1.217.158.168.224.645.105.82-1.21 1.724-2.46 3.42-3.716 5.106-.11.15-.363.196-.55.29-.19-.063-.414-.076-.56-.193-.66-.52-1.3-1.077-1.95-1.61-2.53-2.06-2.684-1.73-.828-4.414zm5.302-7.387c-.587-.512-.7-1.01-.376-1.677.964-1.983 1.952-3.956 2.94-5.927.252-.5.5-.525.966-.165 1.58 1.22 3.164 2.43 4.736 3.656.238.188.414.456.6.667-.064.246-.077.468-.17.646-.69 1.298-1.413 2.58-2.097 3.883-1.653 3.146-1.434 3.007-4.17.927-.835-.635-1.637-1.316-2.43-2.007zm-8.712-73.38c2.823.638 5.685.235 8.53.31.842.023 1.687-.046 2.532-.05.457-.002.816.395.734.803-.843 4.153-.98 8.37-1.263 12.586-.585 8.768-.14 17.54-.388 26.304-.025.836.064 1.69.21 2.512.283 1.584.307 1.69-.98 1.95-2.066.416-4.15.73-6.225 1.088l-.02-.136c-.318 0-.636.013-.952-.003-.646-.03-.97-.33-1.022-.947-.027-.316-.03-.635-.02-.952.033-.884.22-1.087 1.078-1.23.617-.102 1.248-.16 1.845-.343.567-.175.94-.963.837-1.555-.096-.554-.392-1.016-.93-1.172-.494-.147-1.035-.14-1.554-.197-1.17-.127-1.274-.244-1.472-1.596-.07-.46-.02-.843.505-.965.715-.17 1.443-.283 2.146-.487.76-.224 1.31-.704 1.36-1.557.046-.776-.562-1.478-1.57-1.724-.6-.146-1.24-.145-1.862-.206-.687-.066-.864-.245-.885-.996-.013-.42-.045-.864.067-1.26.07-.244.37-.554.61-.596.724-.133 1.47-.126 2.202-.213.65-.08 1.184-.385 1.6-.916.254-.32.196-.907-.18-1.085-.372-.177-.756-.396-1.155-.436-.837-.085-1.692-.023-2.528-.117-.23-.026-.546-.358-.6-.598-.117-.51-.096-1.047-.115-1.575-.06-1.58.366-1.65 1.64-1.617 1.098.03 2.08-.273 2.945-.958.692-.55.694-1.71-.074-2.174-.525-.318-1.136-.57-1.74-.66-.72-.11-1.474.007-2.212-.027-.174-.01-.476-.21-.487-.345-.078-.94-.117-1.885-.112-2.827 0-.157.24-.34.407-.456.17-.116.395-.148.585-.24.907-.446 1.634-1.057 1.472-2.18-.14-.966-.866-1.38-1.765-1.57-.544-.114-1.016-.416-1.105-.992-.114-.72-.28-1.515.236-2.127.235-.276.72-.426 1.112-.468.862-.093 1.656-.237 2.268-.944.558-.644.608-1.36.062-1.976-.432-.487-.917-.88-1.595-.938-.525-.043-1.056-.032-1.58-.08-.827-.075-1.134-.357-1.206-1.155-.064-.735-.092-1.475-.107-2.215-.016-.522.264-.788.725-.682zm-5.792 51.72c1.26-.023 2.513-.008 3.772-.008v.226c1.048 0 2.096-.01 3.142.004.42.006.785.54.624.885-1.115 2.365-2.23 4.73-3.363 7.088-.277.576-.86.632-1.195.113-1.303-2.023-2.59-4.06-3.86-6.107-.157-.25-.21-.58-.25-.884-.07-.504.607-1.312 1.13-1.32zm-2.592-10.73c.538 1.26 1.06 2.52 1.57 3.787.198.49-.257.5-.51.54-.41.057-.84.015-1.61.015-.175-.018-.712-.012-1.216-.135-.264-.064-.507-.325-.698-.548-.128-.15-.136-.392-.213-.587-1.235-3.138-1.395-2.368 1.666-3.552.454-.175.826.048 1.01.48zM43.266 27.013c-.196-.49-.405-.976-.587-1.472-.294-.783-.165-1.17.542-1.57.555-.31 1.122-.595 1.696-.87.17-.082.38-.087.575-.13.132.16.324.295.39.477.212.595.39 1.205.57 1.81 1.05 3.545 2.096 7.09 3.146 10.636.12.405.314.796.384 1.208.47 2.653 1.596 5.02 3.023 7.278.76 1.203.475 1.907-.882 2.4-.595.217-1.213.378-1.83.507-.48.1-.786-.224-1-.608-.1-.18-.16-.392-.2-.597-1.237-6.572-3.345-12.876-5.828-19.065zm1.52 41.817c-.038-.166-.095-.33-.108-.498-.004-.07.093-.146.143-.218l.114.494c-.047.075-.096.146-.146.22zm-.863-5.57c-.107.168-.283.29-.43.436-.05-.09-.12-.175-.145-.27-.275-1.016-.544-2.033-.84-3.147.203-.183.442-.555.602-.525 2.692.515 5.376 1.084 8.062 1.632.606.125 1.286.06 1.626.764.512 1.06 1.06 2.134.484 3.323-.875 1.807-1.795 3.593-2.723 5.374-.293.56-.794.51-1.085-.11-1.122-2.388-2.184-4.812-3.37-7.17-.292-.58.092-1.71-1-1.678-.69.02-.855.842-1.186 1.37zm3.138 13.108c-.094.096-.45.125-.475.073-.953-1.882-1.1-3.955-1.394-5.996-.01-.085.076-.186.118-.277.11.072.286.117.328.22.597 1.436 1.186 2.873 1.758 4.317.112.283.144.597.218.91-.183.267-.332.544-.547.757zm.74 6.842c-.176-.474-.244-1.043-.18-1.542.134-.99.747-1.906 1.59-2.19.773-.26 1.042.826 1.42 1.402 1.036 1.573 2.026 3.175 3.023 4.773.162.26.267.56.384.804-.053.25-.043.486-.147.65-.446.703-.89 1.41-1.41 2.06-.12.15-.69.192-.79.068-1.525-1.858-3.032-3.744-3.89-6.027zm4.253 20.224c-.432-1.923-.84-3.85-1.216-5.784-.05-.27.083-.605.213-.87.074-.156.312-.23.476-.34.19.06.45.063.555.19.59.726 1.135 1.486 1.7 2.227 1.96 2.564 2.45 2.29-.763 4.787-.427.33-.862.245-.964-.21zm4.48 10.208c-.4.045-.846-.078-1.237-.218-.95-.34-1.657-.93-1.803-2.007-.085-.63-.165-1.26-.27-2.067.124-.235.23-.686.516-.936 1.345-1.188 2.74-2.322 4.113-3.477.326-.272.624-.096.836.113.974.966 1.934 1.952 2.873 2.95.336.357.288.833.004 1.16-1.173 1.36-2.353 2.72-3.613 4-.316.322-.926.427-1.42.48zm10.286 2.32c-.21.004-.42 0-.364 0-2.027-.213-3.79-.398-5.552-.59-.304-.03-.407-.226-.203-.426 1.263-1.244 2.53-2.48 3.823-3.694.336-.317.773-.277 1.16-.04.713.435 1.43.87 2.118 1.344.57.395 1.537.516 1.49 1.408-.053 1.018-1.37 1.973-2.472 1.998zm7.78-7.236c-.354.384-.72.76-1.1 1.122-.4.382-.867.615-1.41.317-1.184-.658-2.366-1.325-3.523-2.03-.373-.226-.555-.624-.206-1.037.88-1.038 1.767-2.07 2.666-3.09.13-.148.347-.223.523-.33.195.07.4.123.586.218.653.333 1.295.686 1.947 1.02 2.837 1.458 2.848 1.26.518 3.808zm7.994.367c-.107.515-.35 1.02-.37 1.536-.073 1.647-.65 2.823-2.35 2.907-.55.336-.857.366-1.124-.173-.23-.462-.6-.858-.945-1.253-.352-.41-.235-.79.043-1.132.797-.987 1.605-1.967 2.447-2.913.267-.305.64-.54 1-.736.566-.307 1.41.21 1.382.82-.014.316-.02.637-.085.944zm1.463-13.402c-.72 1.28-1.423 2.58-2.233 3.806-.736 1.112-1.248 2.428-2.54 3.09-1.633-.424-3.2-1.013-4.563-2.03-.15-.11-.185-.628-.06-.81 1.198-1.728 2.43-3.435 3.683-5.123.23-.315.6-.53.818-.712.276.026.385.02.485.05 1.41.41 2.823.814 4.224 1.253.106.035.242.38.186.48zm1.846-11.934c-.004.105-.015.21-.068 1.035-.126.74-.51 2.177-.593 3.633-.187 3.22-.77 2.89-3.156 1.71-.46-.225-.592-.52-.35-.985 1.02-1.952 2.023-3.917 3.064-5.86.13-.244.507-.59.678-.543.463.12.434.602.427 1.01zm2.46-11.83c-.04.224-.095.75-.244 1.248-.083.284-.286.717-.486.75-1.534.25-2.22 1.48-3.083 2.52-.345.417-.952.505-1.42.212-1.873-1.178-3.614-2.528-5.097-4.18-.23-.26-.37-.8-.274-1.124.57-1.908 1.215-3.79 1.846-5.68.14-.415.66-.554 1.016-.272.332.26.64.546.96.815 1.777 1.486 3.61 2.867 5.812 3.704.942.355 1.075.72.97 2.006zm1.12-11.032c-.225 1.124-.543 2.25-.586 3.386-.077 1.98-.853 2.063-2.34 1.023-1.112-.78-2.168-1.64-3.217-2.505-.387-.32-.963-.75-.96-1.126.004-.782.844-.765 1.424-.94 1.895-.577 3.795-1.148 5.666-1.713.174.143.442.286.424.37-.103.506-.31.993-.412 1.502zm.075-11.717c-.73 2.49-.73 2.496-3.264 3.07-.27.062-.576-.038-.866-.064.043-.192.066-.39.132-.576 1.607-4.578 3.25-9.15 4.24-13.916.41-1.96.724-3.937 1.1-5.904.14-.722.3-1.443.518-2.144.08-.255.258-.507.695-.38.896.265 1.824.416 2.73.657.137.036.212.305.315.466-.043.203-.068.416-.14.608-2.154 5.963-3.676 12.113-5.46 18.187zM39.12 19.032c.696-.188 1.428-.297 2.084-.578 1.157-.494 2.276-1.077 3.395-1.653 1.483-.76 2.11-2.097 1.673-3.692-.16-.6-.4-1.24-.795-1.7-1.103-1.286-2.01-2.688-2.836-4.158-.73-1.302-1.963-1.893-3.38-2.038-1.405-.146-2.728.23-3.845 1.103-.684.533-1.04 1.31-1.078 2.2-.135 3.096.19 6.072 1.946 8.77.692 1.067 1.446 1.792 2.832 1.747z"/></svg>