<svg xmlns="http://www.w3.org/2000/svg" width="128" height="128" viewBox="0 0 128 128"><path d="M97.07 83.305c-.803-.28-1.5.096-2.023.67-1.152 1.264-2.334 2.516-3.358 3.885-3.965 5.294-8.63 9.806-14.323 13.225-3.808 2.286-7.867 4.004-12.284 4.47-6.968.744-13.643-.647-20.05-3.412-.1-.046-.187-.107-.283-.156-.598-.31-.778-.66-.613-1.29.162-.62.435-1.222.51-1.85.287-2.607-1.072-4.388-3.673-4.72-2.016-.258-4.048-.483-6.08-.533-2.374-.06-4.666-.248-6.9-1.205-1.814-.778-3.148.03-3.676 1.924-.27.957-.252 1.912.198 2.822.333.672.654 1.355 1.042 1.992 2.005 3.295 4.11 6.532 6.016 9.883 1.317 2.326 4.697 2.435 6.062.827.483-.572 1.003-1.116 1.53-1.654.456-.47.856-.493 1.376-.062 2.174 1.8 4.63 3.087 7.326 3.91 3.727 1.14 7.54 1.59 10.665 1.4 5.21-.045 8.977-.47 11.595-1.147 5.792-1.493 11.005-4.186 15.778-7.723 3.28-2.432 6.344-5.125 8.708-8.51 1.6-2.292 2.993-4.714 3.737-7.427.277-1.016.37-2.107.37-3.165 0-1.055-.652-1.81-1.65-2.156zM23.553 35.86c.907.483 2.176.32 2.968-.46.613-.597 1.157-1.264 1.726-1.907 3.307-3.768 7.258-6.658 11.853-8.65 6.463-2.806 13.19-4.4 20.88-4.25 4.803-.5 9.795.932 14.575 3.324.156.08.354.296.34.43-.018.176-.19.414-.355.484-.78.336-1.658.508-2.362.953-1.87 1.18-1.733 3.413.267 4.3.962.426 2.035.654 3.083.835 3.477.6 6.968 1.117 10.445 1.71.99.17 1.915.018 2.852-.228 2.19-.572 2.965-2 2.12-4.097-1.824-4.53-4.36-8.597-7.968-11.94-.472-.432-.95-.91-1.515-1.18-.555-.264-1.216-.356-1.837-.402-.62-.044-1.28.644-1.192 1.256.123.832.39 1.643.584 2.464.02.09-.002.27-.043.284-.16.05-.37.113-.506.053-1.077-.48-2.136-.992-3.205-1.483-4.544-2.082-9.312-3.15-14.315-3.138-2.784.006-5.55.142-8.328.512-7.776 1.035-14.955 3.622-21.58 7.79-2.826 1.78-5.358 3.918-7.55 6.453-.996 1.154-1.786 2.423-2.227 3.874-.354 1.173.237 2.45 1.29 3.016zm11.33 46.76v-.103c3.317 0 6.64.007 9.96-.003.635-.002 1.08-.358 1.085-.91.018-3.318.095-6.64-.026-9.957-.06-1.6-.565-3.226-1.627-4.456-1.04-1.203-2.34-2.19-3.565-3.222-.602-.51-1.477-.378-2.005.265-.476.576-.89 1.202-1.31 1.82-.84 1.24-1.657 2.5-2.505 3.734-.11.16-.395.37-.5.323-.246-.1-.53-.31-.623-.543-.353-.898-.892-1.83-.86-2.73.028-.748.77-1.462 1.18-2.204.278-.512.024-1.205-.495-1.254-.955-.087-1.915-.128-2.87-.13-.505 0-.903.62-.835 1.167.013.105-.04.245.013.315 1.233 1.643.37 3.285-.01 4.92-.033.132-.278.33-.396.308-.184-.03-.42-.177-.508-.34-1.153-2.17-2.305-4.336-3.406-6.532-.56-1.117-.693-1.22-1.963-.866-.615.175-1.228.37-1.85.52-1.558.376-2.687 1.288-3.414 2.696-.345.663-.666 1.344-.96 2.027C16.2 70.28 16.11 73.3 15.89 76.273c-.137 1.803.055 3.635.202 5.444.085 1.024.467 1.293 1.465 1.274 2.67-.05 5.338-.13 8.01-.323 3.087-.22 6.206-.048 9.313-.048zm79.35-7.783c0-1.817.088-3.642-.02-5.45-.187-3.2-1.837-5.644-4.303-7.553-1.508-1.166-2.44-1.013-3.495.495-1.045 1.487-2.008 3.034-3.02 4.544-.174.258-.392.504-.645.677-.112.076-.457.02-.53-.09-1.063-1.534-1.96-3.1-.532-4.912.13-.163.2-.38.28-.577.253-.63-.2-1.294-.937-1.31-.745-.016-1.494 0-2.24.067-.7.06-1.07.757-.667 1.362.642.957.894 1.887.405 3.005-.253.576-.277 1.248-.45 1.865-.044.14-.274.32-.42.32-.188-.002-.437-.114-.55-.266-.317-.427-.61-.878-.85-1.352-.875-1.715-1.726-3.44-2.585-5.166-.454-.912-.846-1.11-1.755-.856-.413.117-.806.32-1.222.376-2.4.33-3.758 1.882-4.658 3.95-.38.88-.75 1.787-.95 2.72-.726 3.353-1.153 6.735-.903 10.176.08 1.17.352 1.5 1.552 1.608 3.086.277 6.148.72 9.263.768 3.736.05 7.47.4 11.202.63.32.02.65.046.95.153 1.97.71 4.02.486 6.042.53.77.02 1.077-.342 1.086-1.214.017-1.5.006-2.997.006-4.497h-.05zm-22.7-29.895c-.415.258-.836.783-.922 1.25-.276 1.513-.356 3.058 1.313 3.928.62.323.99.732 1.163 1.414.18.725.46 1.43.74 2.125.667 1.615 1.707 2.96 3.006 4.126.925.83 2.085 1.208 3.24 1.245 1.56.054 2.944-.552 3.793-1.994.82-1.4 1.353-2.9 1.525-4.536.126-1.194.598-2.175 1.622-2.996 1.325-1.062 1.39-3.65.105-4.89-.853-.82-1.26-1.613-1.263-2.763-.002-.73-.213-1.48-.43-2.19-.906-2.963-2.644-4.227-5.67-4.186-1.87.027-3.15.683-4.377 2.267-1.06 1.374-1.91 2.89-2.264 4.577-.235 1.117-.57 1.998-1.58 2.624zm9.025-2.288c.025-.015.055-.02.084-.028.034-.043.07-.087.107-.13l.07.013c-.176-.78.27-1.378.62-1.997.053-.09.18-.233.213-.218.158.07.38.156.427.288.25.69.63 1.39.64 2.09.044 2.973-.014 5.945-.078 8.916-.013.51-.224 1.03-.41 1.52-.104.277-.343.51-.52.763-.253-.325-.578-.62-.733-.986-.16-.378-.18-.82-.21-1.244-.053-.752.835-1.608-.254-2.25.128-.485.18-1.006.398-1.447.395-.795.734-1.525.032-2.342-.147-.17-.096-.6-.003-.864.177-.494.487-.944.672-1.44.314-.852-.356-.707-.796-.788.005.025.005.048.013.075-.062.015-.126.025-.188.043l-.174.213c.03-.064.044-.156.09-.188zM23.78 52.75c.44.335.816.623.985 1.178.247.82.525 1.635.853 2.425.67 1.62 1.696 2.997 3.064 4.077 2.39 1.886 5.926 1.58 7.3-1.49.577-1.286.99-2.59 1.168-3.99.132-1.065.508-1.987 1.444-2.748 1.383-1.125 1.668-3.718.373-4.856-1.137-1.003-1.355-2.05-1.402-3.368-.02-.627-.256-1.257-.45-1.864-.892-2.8-2.586-4.056-5.666-4.062-1.687-.192-3.085.752-4.22 2.127-1.178 1.414-2.035 3.034-2.425 4.84-.21.988-.53 1.71-1.38 2.393-1.91 1.536-1.708 3.765.35 5.337zm8.7-9.337c.24-.307.573-.54.864-.805.248.333.59.632.728 1.003.22.595.38 1.23.416 1.853.062 1.173.018 2.347.018 3.52.046.003.092.005.14.005-.09 1.387-.15 2.773-.284 4.152-.04.4-.29.786-.465 1.168-.036.08-.19.175-.25.158-.157-.053-.426-.177-.422-.252.105-1.216-.813-2.225-.75-3.366.066-1.222-.4-2.29-.565-3.43-.196-1.35-.386-2.79.568-4.005z"/></svg>