<svg xmlns="http://www.w3.org/2000/svg" width="128" height="128" viewBox="0 0 128 128"><path d="M113.656 56.4c-.702-2.812-1.56-5.556-3.067-8.08-1.047-1.746-1.91-3.6-2.863-5.4-1.152-2.178-2.354-4.332-3.46-6.534-.896-1.78-2.434-2.648-4.226-3.18-1.072-.32-1.91.08-2.372 1.09-.714 1.556-1.354 3.152-2.078 4.703-.26.56-.634 1.09-1.045 1.55-.27.3-.452-.23-.587-1.84-.064-.796.085-1.473.555-2.11.253-.34.478-.713.685-1.09.36-.666.28-1.28-.286-1.72-.5-.392-1.042-.747-1.604-1.045-.535-.285-1.38.112-1.565.734-.12.397-.213.845-.15 1.243.122.736.32 1.47.57 2.172.315.883.254 1.717-.3 2.437-.64.843-.822 1.997-1.79 2.603-.42.26-.475.014-.573-3.15-.032-1.072-.025-2.145-.064-3.218-.018-.42-.112-.837-.178-1.257-.043-.27-.562-.432-.768-.234-.305.29-.674.555-.875.91-.94 1.683-1.84 3.392-2.74 5.1-1.852 3.51-3.87 6.918-6.104 10.207-1.116 1.647-2.522 2.88-4.312 3.744-1.64.79-3.196 1.724-4.647 2.855-1.435 1.115-3.03 2.02-4.55 3.023-.5.33-.984.3-1.5.002-2.507-1.442-4.935-3.054-7.556-4.252-2.85-1.304-5.027-3.23-6.72-5.79-2.005-3.04-4.307-5.884-5.968-9.156-.627-1.24-1.43-2.39-2.197-3.556-.345-.527-.74-1.244-1.433-1.123-.87.154-.523 1.02-.538 1.586-.033 1.61.02 3.22.014 4.83 0 .422-.08.843-.144 1.264-.014.097-.09.225-.17.26-.064.03-.224-.027-.27-.094-.443-.597-.822-1.248-1.31-1.803-.864-.99-.98-2.1-.73-3.317.153-.727.373-1.454.42-2.19.067-1.052-1.087-1.768-2.02-1.324-2.06.98-2.24 1.765-.843 3.667.126.17.277.323.414.49.448.543.548 1.12.288 1.796-.153.395-.173.835-.273 1.25-.02.097-.14.26-.175.252-.178-.042-.423-.086-.502-.214-.448-.728-.875-1.474-1.27-2.23-.598-1.14-1.147-2.305-1.757-3.438-.48-.89-1.16-1.176-2.146-.968-.31.066-.638.136-.91.288-1.5.855-2.8 1.824-3.522 3.552-1.606 3.855-3.302 7.682-5.14 11.43-1.333 2.727-2.248 5.53-2.8 8.51-.357 1.934-.374 3.837-.234 5.76.107 1.494.314 2.982.493 4.47.2 1.7.343 3.41.65 5.092.33 1.81 2.516 2.874 4.015 1.895 1.472-.96 2.613-2.29 2.545-4.213-.13-3.43-.14-6.875-.524-10.28-.448-3.953.433-7.423 2.87-10.524.095-.12.332-.146.51-.175.036-.006.14.17.147.267.11 1.173.158 2.354.313 3.52.606 4.574 1.11 9.15.992 13.778-.064 2.464-.18 4.947.004 7.403.3 3.9-.507 7.695-.883 11.52-.356 3.62-1.125 7.196-1.14 10.856 0 .533-.05 1.073-.14 1.598-.614 3.595-1.054 7.202-1.062 10.86-.006 1.494-.236 2.988-.33 4.484-.026.416-.003.86.108 1.26.39 1.405 2.1 2.49 3.52 2.164 1.26-.288 2.443-.82 3.445-1.662.507-.42.78-.946.79-1.666.056-3.1.21-6.187.928-9.23.516-2.188.864-4.412 1.294-6.614.47-2.42.83-4.866 1.472-7.236.294-1.09.147-2.4 1.147-3.26.943.88.403 2.08.665 3.105.105.416.186.837.24 1.263.51 4.038 1.027 8.075 1.51 12.117.293 2.447.45 4.913.82 7.345.21 1.362.69 2.693 1.137 4.006.462 1.36 1.487 2.04 2.926 2.125 1.534.09 2.383-.826 2.933-2.07.3-.67.478-1.418.57-2.147.34-2.658.54-5.325.507-8.017-.08-6.22.11-12.445-.51-18.65-.3-2.988-.388-6-.803-8.967-.358-2.564-.48-5.125-.5-7.698-.03-3.218.033-6.438-.017-9.658-.02-1.277-.256-2.55-.37-3.827-.066-.74-.098-1.487-.127-2.23-.002-.09.08-.222.16-.267.064-.032.213.01.273.07.6.608 1.18 1.233 1.78 1.84.828.836 1.59 1.755 2.51 2.476 3.68 2.88 8.024 4.46 12.354 6.03 1.137.413 2.293.216 3.41-.39 2.26-1.226 4.544-2.416 6.865-3.525 3.373-1.61 6.073-3.99 8.3-6.96.375-.504.84-.945 1.26-1.418.69.597.332 1.376.257 2.035-.225 2.03-.19 4.04-.014 6.072.268 3.1.426 6.205.575 9.312.048.956-.106 1.92-.13 2.883-.03 1.172-.202 2.38.005 3.512.274 1.51.16 2.994.12 4.487-.05 1.926-.228 3.85-.253 5.776-.043 3.326-.013 6.653-.013 9.98h-.065c0 4.293.025 8.587-.01 12.88-.018 1.97.423 3.833 1.132 5.633.538 1.367 2.33 2.07 3.77 1.622.926-.288 1.462-.956 1.66-1.817.402-1.767.757-3.552 1.008-5.35.252-1.8.437-3.618.504-5.436.155-4.29 1.053-8.513.97-12.82-.027-1.387.22-2.778.4-4.16.035-.26.306-.61.555-.71 1.316-.525 2.477.06 2.695 1.336.525 3.057 1.054 6.112 1.325 9.21.056.64.128 1.285.277 1.906 1.316 5.427 2.227 10.912 2.42 16.5.007.217.007.433.045.644.156.907 1.052 1.7 2.008 1.813 1.493.177 2.492-.586 3.13-1.8.95-1.81 1.728-3.736 1.838-5.78.15-2.774.192-5.556-.413-8.33-.43-1.98-.708-4.02-.804-6.046-.218-4.722-.863-9.38-1.708-14.02-.077-.422-.17-.843-.22-1.267-.5-4.147-.884-8.31-1.524-12.435-.365-2.347-.55-4.686-.544-7.044.015-4.51.085-9.014.14-13.522.002-.21.06-.422.112-.627.02-.075.11-.18.168-.184.1-.004.24.035.296.11.463.583.864 1.22 1.37 1.763 1.223 1.31 1.822 2.885 2.07 4.622.195 1.378.366 2.76.555 4.14.387 2.862.78 5.724 1.164 8.59.07.532.02 1.09.163 1.6.438 1.563 1.017 3.063 2.54 3.935.718.413 1.934.14 2.226-.604.313-.785.627-1.63.65-2.46.116-3.86.152-7.724.175-11.586.008-.738-.112-1.496-.29-2.22zM87.582 20.756c.08 2.754 1.02 5.24 2.477 7.53.88 1.392 2.06 2.422 3.79 2.737 1.76.32 3.22-.235 4.083-1.752 1.944-3.41 3.027-7.076 3.042-11.01.006-1.708-.11-3.42-.284-5.12-.266-2.56-1.935-3.973-4.223-4.743-2.944-.992-5.536.072-7.147 2.725-1.452 2.394-1.902 4.972-1.742 7.658 0 .69-.016 1.333.002 1.98zm4.55-2.58h.046c.053-1.055.075-2.113.177-3.166.037-.413.275-.79.81-.743.334.03.69.608.486.94-.433.72-.567 1.396.123 1.994 1.255 1.08 1.13 2.498.725 3.79-.27.863-.537 1.56-.028 2.38.082.136.036.47-.078.592-.27.29-.587.58-.94.702-.153.05-.607-.3-.652-.518-.264-1.344-.483-2.7-.65-4.06-.08-.626-.018-1.268-.018-1.903zm-56.4 13.25c2.678-3.734 4.13-7.74 3.423-12.353-.16-1.043-.48-2.11-.964-3.043-.686-1.327-1.56-2.56-2.413-3.798-.56-.815-1.37-1.304-2.336-1.606-2.625-.826-4.863-.08-6.826 1.667-.907.804-1.43 1.882-1.478 3.12-.037.963-.006 1.93-.006 2.895h-.022v.644c.026 4.262 1.163 8.18 3.21 11.947 1.745 3.21 5.69 2.93 7.417.525zm-3.335-14.78c.416-.223.97-.058 1.03.36.266 2.006.515 4.017.772 6.023-.1 1.407-.074 2.804-.823 4.057-.09.146-.328.293-.486.28-.172-.014-.424-.174-.486-.332-1.064-2.603-1.562-5.308-1.5-8.122.025-1.1.583-1.778 1.492-2.268z"/></svg>