<svg xmlns="http://www.w3.org/2000/svg" width="128" height="128" viewBox="0 0 128 128"><path d="M91.48 60.363c2.577-5.595 3.97-11.514 3.77-17.723 0-1.5.074-3.008-.026-4.504-.078-1.17-.348-2.328-.58-3.483-.96-4.77-3.12-8.875-6.822-12.093-2.264-1.97-4.5-3.98-6.86-5.835-2.21-1.736-4.68-3.01-7.566-3.27-.742-.068-1.466-.325-2.205-.427-3.526-.488-7.032-.636-10.5.476-3.57 1.145-7.136 2.278-10.443 4.11-2.535 1.41-5.056 2.817-7.04 5-.288.316-.608.605-.935.88-3.452 2.9-5.9 6.508-7.214 10.796-1.07 3.5-1.37 7.147-1.397 10.795-.01 1.273.33 2.545.45 3.822.35 3.774 1.355 7.317 3.155 10.692 1.968 3.69 4.655 6.643 8.056 9.01 5.055 3.517 10.736 5.324 16.79 5.91 5.054.487 10.07-.018 14.947-1.487 2.146-.645 4.27-1.36 6.197-2.6 3.842-2.475 6.373-6.05 8.226-10.072zM57.096 21.2c.15-.435.67-.886 1.12-1.046 1.5-.544 3.04-.965 4.57-1.41.37-.108.88.368.835.752-.094.843-.22 1.685-.36 2.73 0 .548.042 1.297-.02 2.036-.023.27-.263.708-.466.75-2.187.433-4.384.81-6.586 1.172-.107.018-.39-.28-.367-.373.396-1.545.766-3.102 1.277-4.61zm-2.543 10.063c.144-.358.512-.817.843-.875 2.31-.42 4.6-1.03 6.984-.89.523.032.926.448.93 1.064.015 1.928.006 3.855.006 5.78h-.056c0 1.93.015 3.856-.008 5.782-.006.623-.36.95-1.013.962-2.25.047-4.5.02-6.745.11-2.72.11-2.74.118-2.394-2.452.345-2.54.67-5.084 1.025-7.622.085-.63.192-1.276.427-1.858zM42.745 29.89c.608-.87 1.14-1.836 1.905-2.544 2.34-2.165 4.853-4.126 7.684-5.637.184-.098.413-.188.605-.16.15.02.414.262.393.344-.437 1.632-.885 3.264-1.383 4.878-.082.27-.35.587-.61.683-2.773 1.064-5.56 2.086-8.37 3.128-.042-.027-.178-.064-.193-.13-.04-.186-.115-.44-.03-.563zm-3.95 8.394c.037-.907.452-1.648 1.23-2.127 3.192-1.956 6.536-3.575 10.192-4.48.258-.064.578.327.514.635-.62 3.03-1.1 6.074-1.21 9.17-.016.423-.08.85-.16 1.267-.16.827-.645 1.342-1.52 1.39-1.27.07-2.554.02-3.833.02 0 .05 0 .11-.002.16-1.275-.08-2.556-.106-3.824-.253-1.2-.14-1.5-.49-1.5-1.624.005-1.39.05-2.776.113-4.16zm2.26 15.345c-.89-.34-1.408-1.043-1.525-1.92-.71-5.367-2.234-4.866 3.723-4.77.213.002.43 0 .896 0 1.395.332 3.14-.567 4.74.393.05 1.595.105 3.186.154 4.78.004.106 0 .212.003.32.126 4.42.195 3.717-3.802 2.767-1.442-.34-2.798-1.037-4.192-1.57zm11.917 14.387c-.096.026-.22.032-.31-.01-1.927-.93-3.743-1.968-5.087-3.745-1.09-1.442-2.415-2.705-3.608-4.072-.395-.452-.848-.91-.742-1.602l-.072-.002c-.02-.064-.038-.126-.064-.184l-.167-.132c.053.027.124.043.15.085.01.014.012.032.017.047l.137.11c-.006.028.003.05 0 .077 2.144-.03 4.083.87 6.105 1.39.318.08.68.58.75.94.487 2.465 1.638 4.61 3.048 6.64.163.238.146.376-.158.46zm.115-12.465c-.115-1.7-.213-3.403-.224-5.107-.02-4.175-.486-4.016 3.928-4.037 1.815-.01 3.63.012 5.444.042.587.01 1.027.42 1.035.98.022 1.494.01 2.99.01 4.483h.08c0 .747-.005 1.493 0 2.24.016 3.285.11 3.09-3.218 2.97-2.02-.07-4.035-.3-6.05-.493-.606-.058-.964-.523-1.003-1.08zM63.2 69.842c-1.276.55-2.724-.02-3.946-.77-.27-.163-.512-.394-.712-.643-1.67-2.09-3.326-4.19-4.207-6.77-.27-.797.002-1.17.928-1.13 1.602.066 3.203.165 4.8.3 1.058.09 2.11.26 3.163.395.747 1.06.274 2.29.467 3.428.053.314.008.642.008.962h.048c0 .43.034.86-.008 1.284-.1 1.02.59 2.46-.54 2.943zm27.035-23.52c.008.32 0 .64 0 .958h-.03c0 .32-.01.64 0 .958.048 1.307-.445 2.205-1.727 2.733-2.16.89-4.27 1.897-6.41 2.847-.327.147-.583-.107-.532-.508l.802-6.65c.073-.61.418-.935 1.013-1.02 1.79-.255 3.57-.563 5.365-.756 1.205-.128 1.483.203 1.52 1.44zm-1.87-11.596c.33.167.606.623.71 1 .276 1.023.45 2.074.665 3.114l-.122.023c.066.53.1 1.067.203 1.59.09.436-.193.623-.48.677-1.99.378-3.986.723-5.984 1.063-.466.08-.85-.093-.96-.59-.165-.728-.382-1.462-.418-2.2-.12-2.572-.622-5.078-1.18-7.577-.127-.56.123-.736.72-.555 2.48.753 4.57 2.295 6.847 3.456zm-9.747-13.5c3.218 1.42 5.818 3.542 7.578 6.627.05.085.043.203.062.306-.032.09-.043.2-.098.273-.056.075-.177.187-.23.168-.303-.104-.595-.242-.89-.37-.98-.42-1.926-1.09-2.945-1.22-3.21-.413-3.54-2.913-4.117-5.285-.056-.224.427-.593.642-.5zm-1.035 12.57c.395 2.422.686 4.86.936 7.3.11 1.092-.157 1.34-1.157 1.534-.525.102-1.052.24-1.582.256-2.566.077-5.133.128-7.703.166-.632.01-1.016-.352-1.024-.963-.018-2.036-.005-4.07-.005-6.103h-.028c0-2.03-.017-4.064.013-6.096.008-.453.33-.827.81-.822 1.6.015 3.23-.093 4.79.182 1.327.233 2.92-.232 3.952.877.907.974.793 2.416.996 3.666zM67.03 19.42c.078-.257.38-.635.593-.64 1.71-.05 3.428-.073 5.137.004.683.032 1.133.562 1.278 1.26.067.316.064.645.14.956.308 1.245.652 2.482.91 3.738.01.056-.706.366-1.088.373-.963.023-1.928-.062-2.172-.073-5.68-.096-4.806.61-4.902-4.34-.008-.428-.014-.876.107-1.275zm8.28 42.367c-.807 1.978-1.682 3.928-2.578 5.867-.164.357-.523.7-.877.88-1.254.638-2.58 1.033-4.015.942-.542-.035-.944-.437-.95-1.047-.015-1.073-.004-2.146-.004-3.218h.128c0-.75-.02-1.5.005-2.25.057-1.822.067-1.79 1.737-1.96 1.81-.183 3.62-.398 5.42-.658 1.596-.233 1.76-.1 1.132 1.443zm.976-5.91c-2.684.725-5.368 1.46-8.19 1.336-.634-.026-1.03-.366-1.035-.965-.012-2.997-.012-5.995.013-8.99.005-.46.32-.817.81-.824 1.712-.02 3.425-.01 5.135-.01v-.198c1.178 0 2.357.032 3.533-.008 1.81-.062 2.228.177 1.936 1.938-.366 2.208-.355 4.485-1.126 6.627-.193.54-.524.944-1.074 1.093zm3.38 9.888c-.666.34-1.328.69-2 1.02-.084.044-.207.006-.308.006-.107-.147-.326-.345-.288-.42 1.11-2.307 2.26-4.593 2.97-7.08.12-.42.664-.84 1.11-1.033 1.86-.797 3.756-1.515 5.65-2.233.14-.053.433.058.523.184.088.12.037.377-.017.555-1.25 4.1-3.846 7.063-7.64 9.006zM121.1 109.8c.008-1.284.003-2.57.003-3.856 0-1.178-.02-2.357.004-3.533.094-4.33-2.222-7.213-5.643-9.435-.576-.373-1.26-.243-1.69.37-.8 1.14-1.538 2.32-2.33 3.468-.603.878-1.232 1.742-1.883 2.59-.066.09-.45.097-.495.02-.334-.54-.6-1.13-.928-1.675-.675-1.14-.632-2.12.24-3.224.88-1.112.49-1.777-.868-1.816-.644-.018-1.287.01-1.93.04-.357.018-.722.6-.6.957.1.3.212.608.37.883.535.94.442 1.835-.107 2.73-.224.364-.358.78-.592 1.132-.1.157-.35.317-.522.302-.15-.014-.326-.24-.418-.412-.8-1.508-1.537-3.05-2.386-4.53-.46-.803-.38-1.99-1.42-2.377-.987-.368-1.846.454-2.788.512-1.704.107-2.74 1.123-3.533 2.453-1.045 1.76-1.84 3.63-2.07 5.69-.084.764-.19 1.446-.94 1.91-.5.308-.512.918-.41 1.455.1.52.293 1.024.432 1.536.203.75.113.81-.77.787-.848-.02-1.71-.053-2.54.08-.324.053-.756.51-.817.84-.06.334.18.912.47 1.078.628.37 1.373.55 2.073.803.59.212 1.373-.468 1.764.2.303.51.26 1.232.358 1.86.082.527.143 1.057.214 1.586.256 1.817.823 2.36 2.722 2.443 1.282.054 2.57-.004 3.855.016 1.392.02 2.78.062 4.172.123 1.278.057 2.56.255 3.835.212 3.744-.123 7.48-.344 11.22-.507 3.675-.157 2.792-.19 3.878-3.44.13-.39.068-.85.07-1.28zm-79.595-7.362c-.203.066-.413.123-.594.227-.452.258-.992.853-1.316.75-.66-.21-.587-1.056-.71-1.664-.128-.627-.103-1.284-.22-1.916-.28-1.496-.802-2.923-1.888-4.01-.98-.982-2.097-1.833-3.17-2.72-.57-.47-1.267-.45-1.717.084-.553.65-1.07 1.338-1.55 2.044-.91 1.33-1.773 2.69-2.664 4.026-.227.34-.576.292-.773.03-.313-.42-.516-.926-.794-1.378-.75-1.225-.87-2.39.234-3.493.146-.147.235-.355.338-.542.176-.316-.106-1.013-.45-1.02-1.055-.025-2.11-.015-3.164.03-.115.004-.34.334-.31.466.095.405.23.82.453 1.168.59.914.595 1.78-.002 2.69-.29.446-.49.95-.744 1.422-.14.26-.555.185-.727-.142-.953-1.792-1.9-3.584-2.842-5.38-.1-.188-.122-.41-.203-.608-.436-1.077-.863-1.33-1.903-1.072-.517.128-1.01.463-1.523.48-1.984.064-3.104 1.296-3.986 2.84-.742 1.3-1.323 2.665-1.647 4.16-.592 2.752-.702 5.525-.53 8.317 0 1.61-.054 3.22.014 4.825.068 1.65.95 2.507 2.637 2.606 1.177.068 2.36.026 3.538.037 1.396.013 2.79-.004 4.182.053 1.603.064 3.205.32 4.8.274 3.75-.107 7.493-.34 11.238-.53.32-.017.644-.06.955-.136 1.13-.272 1.957-.86 2.133-2.1.18-1.273.4-2.542.525-3.82.078-.82.306-1.284 1.203-1.598 1.584-.555 2.112-1.995 2.293-3.552.056-.474-.65-.996-1.11-.847zM98.1 81.44c1.526.612 1.763 2.014 2.303 3.267.422.978.862 1.97 1.448 2.852.53.787 1.177 1.55 1.927 2.12 2.834 2.164 6.28 1.203 7.557-2.122.454-1.185.62-2.48.92-3.724.2-.826.292-1.72 1.174-2.168 1.263-.64 1.442-1.746 1.338-2.993-.07-.856.01-1.917-.775-2.344-1.17-.64-1.25-1.566-1.315-2.677-.05-.838-.273-1.685-.533-2.492-.895-2.742-2.328-3.76-5.498-3.794-1.992-.2-3.642.78-4.832 2.66-.92 1.455-1.75 2.948-1.993 4.683-.094.67-.26 1.306-.905 1.594-1.746.784-1.754 2.272-1.542 3.8.067.483.36 1.183.732 1.334zm9.91-9.703c.062-.085.44-.083.528.01.59.64.976 1.398.996 2.28.03 1.27.008 2.548.008 3.82.06 0 .117 0 .175.004-.07 1.38-.08 2.767-.238 4.135-.07.6-.435 1.17-.685 1.744-.034.076-.184.153-.27.142-.07-.01-.18-.153-.175-.23.09-1.306-.83-2.428-.782-3.66.05-1.222-.433-2.272-.61-3.408-.267-1.732.016-3.38 1.052-4.836zM16.403 81.813c.986.444 1.35 1.3 1.646 2.246.513 1.654 1.31 3.164 2.434 4.493 1.158 1.374 2.546 2.29 4.597 2.194 1.4.192 2.55-.535 3.37-1.773.47-.704.823-1.504 1.11-2.302.287-.803.55-1.65.604-2.494.083-1.28.525-2.236 1.628-2.948.41-.263.814-.804.886-1.27.245-1.524.122-3.018-1.288-4.025-.578-.413-.843-.936-.9-1.61-.075-.854-.085-1.724-.254-2.56-.357-1.768-1.245-3.34-2.928-3.995-2.47-.962-5.27-.797-7.246 1.73-.523.668-.97 1.423-1.312 2.197-.48 1.073-.87 2.19-1.214 3.314-.163.534-.316 1.043-.82 1.31-1.543.815-1.47 2.225-1.383 3.643.05.785.293 1.493 1.07 1.843zm9.434-9.924c.147-.305.5-.283.707-.006.8 1.073 1.013 2.33 1.1 3.61.06.848.013 1.704.013 2.556l.206.027c-.215 1.466-.403 2.936-.663 4.392-.08.444-.012 1.222-.8 1.057-.472-.098-.33-.648-.33-1.074-.003-.388-.203-.784-.347-1.165-.112-.293-.45-.6-.398-.84.363-1.647-.333-3.132-.644-4.67-.305-1.522.557-2.66 1.157-3.89zm47.846 11.034c-1.803-1.79-3.65-3.538-5.493-5.287-.145-.14-.374-.245-.566-.256-.296-.012-.64-.002-.885.137-.453.256-.346.723-.237 1.133.053.2.176.388.296.56 1.476 2.106 3.387 3.787 5.36 5.4.23.19.574.245.873.335.478.146 1.134-.388 1.035-1.187-.04-.09-.114-.562-.385-.832zm-13.32 23.573c-2.08-.51-3.99.208-5.886.917-.433.162-.408 1.105-.032 1.38.835.618 1.797.61 3.074.6.223-.01.784.054 1.284-.093.804-.24 1.585-.58 2.343-.95.454-.216.448-1.056.027-1.363-.256-.184-.52-.42-.813-.49zm-3.84-20.642c-.155-.218-.288-.528-.52-.712-.448-.352-1.02-.427-1.48-.096-1.48 1.077-2.544 2.522-3.288 4.174-.113.26.174.79.416 1.084.156.19.566.213.86.22.194.004.407-.128.575-.248 1.4-.992 2.42-2.332 3.336-3.755.1-.156.068-.4.104-.665zm31.19 14.83c.433.246.855.142 1.106-.226.223-.33.493-.81.404-1.13-.49-1.768-1.376-3.298-3.07-4.19-.256-.137-.59-.13-.743-.16-.802.12-1.275 1.203-.846 1.833.825 1.214 1.736 2.368 2.627 3.533.12.155.34.238.524.34zm-39.92-7.08c-1.682 1.105-2.602 2.78-3.28 4.594-.11.287.18.812.423 1.12.277.355.757.428 1.154.16 1.684-1.13 2.348-2.973 3.188-4.684.038-.075-.036-.206-.06-.31-.085-.64-.958-1.19-1.43-.88zm31.044 12.54c-1.016.036-2.082.033-2.958.795-.45.39-.566 1.278-.118 1.714.29.28.687.614 1.042.623.832.018 1.685-.066 2.496-.258s1.712-.44 1.763-1.527c.04-.79-.89-1.337-2.223-1.346zM48.06 107.3c-1.87-.8-3.517-.04-5.14.774-.428.216-.278 1.134.214 1.32.686.26 1.395.46 1.696.555 1.64.05 2.752-.226 3.74-.943.43-.313.453-1.11.033-1.383-.18-.117-.352-.243-.544-.325zm30.588-20.06c-.22-.205-.813-.173-1.156-.043-.507.192-.722.88-.555 1.335.527 1.458 1.5 2.56 2.82 3.323.33.19.846.22 1.217.113.338-.096.6-.472.866-.704-.144-.462-.156-.834-.344-1.045-.915-1.028-1.843-2.047-2.848-2.98zm-7.775 19.97c-.79-.278-1.62-.442-2.42-.644-.794.156-1.535.245-2.234.47-.224.07-.45.493-.46.762-.01.27.18.704.4.803 1.28.584 2.635.87 4.05.655.203-.032.46-.11.573-.256.245-.315.523-.67.58-1.04.037-.23-.255-.665-.494-.75zM58.04 82.636c.506-.322 1.06-.5 1.324-.882.597-.864 1.077-1.81 1.536-2.758.11-.222.023-.597-.085-.853-.134-.326-.81-.416-1.13-.187-1.132.81-2.104 1.774-2.742 3.016-.123.238-.102.69.05.894.228.304.63.478 1.048.77z"/></svg>