<svg xmlns="http://www.w3.org/2000/svg" width="128" height="128" viewBox="0 0 128 128"><path d="M49.475 38.86c-2.844-1.674-2.795-2.08-4.942 1.177-1.003 1.522-1.984 3.06-3.017 4.563-.15.22-.498.347-.78.416-.095.02-.324-.256-.388-.437-.41-1.114-.62-2.128.094-3.33.736-1.24-.365-2.894-1.813-3.09-1.058-.144-1.91.25-2.5 1.118-.607.89-.655 1.873.1 2.657.987 1.028.833 2.115.423 3.264-.06.166-.302.277-.48.382-.04.02-.192-.064-.235-.134-.53-.925-1.057-1.85-1.57-2.785-.406-.75-.8-1.51-1.18-2.277-.526-1.047-1.055-2.096-1.548-3.157-.39-.847-.917-1.237-1.726-1.043-1.66.4-3.317.79-4.518 2.208-.832.98-1.83 1.81-2.72 2.74-1.81 1.885-3.133 4.067-3.982 6.543-.95 2.753-1.538 5.567-1.53 8.495.005 2.362-.044 4.723-.038 7.083.006 4.187.053 8.373.043 12.56-.005 1.208.184 2.35.766 3.407.658 1.195 1.875 1.72 3.283 1.46 1.15-.212 2.09-1.19 2.22-2.44.087-.85.053-1.714.05-2.573-.034-3.97-.063-7.94-.12-11.913-.035-2.913.227-5.8.88-8.623.406-1.758 1.16-3.44 1.77-5.15.07-.19.247-.34.373-.51.11.145.286.274.32.437.237 1.044.495 2.085.64 3.14.31 2.228.497 4.47.836 6.693.733 4.78 1.136 9.576 1.055 14.41-.037 2.15-.006 4.295-.006 6.444h.11c0 3.112-.098 6.23.024 9.333.145 3.643.352 7.288.776 10.904.24 2.027.468 4.04.515 6.08.056 2.245.13 4.494.235 6.74.028.633.107 1.28.285 1.887.614 2.076 2.76 2.876 4.623 1.787 1.136-.665 1.64-1.714 1.693-2.936.066-1.495-.02-3-.09-4.5-.07-1.606-.286-3.207-.297-4.813-.023-4.936.038-9.874.028-14.812-.004-2.11.254-2.535 2.598-2.72.213-.016.427-.01.644-.005.534.01 1.002.444 1.01 1.024.025 2.144.004 4.292.035 6.438.032 2.357-.064 4.736.207 7.072.26 2.243.452 4.474.448 6.73-.002.964.008 1.942.166 2.892.196 1.15.456 2.314.864 3.407.443 1.195 1.952 2.052 3.085 1.952 1.86-.163 3.22-2.022 2.894-3.926-.213-1.263-.5-2.526-.555-3.798-.092-2.14-.136-4.274-.395-6.41-.552-4.596-.33-9.217-.282-13.83.01-1.18.096-2.378-.072-3.534-.516-3.53-.343-7.08-.203-10.605.1-2.576-.032-5.122-.075-7.684-.075-4.817.27-9.638.49-14.457.022-.477.283-1.222.62-1.35.783-.298.7.595.843 1.002.845 2.42 1.845 4.79 1.8 7.445-.09 5.796-.094 11.59-.13 17.387-.006.86-.056 1.724.03 2.574.16 1.63 1.435 2.69 3.07 2.64 1.494-.042 2.686-1.05 2.838-2.54.19-1.81.363-3.63.38-5.447.067-6.438.064-12.878.09-19.317.016-4.314-1.377-8.218-3.555-11.86-1.114-1.858-2.596-3.362-4.51-4.49zm61.432 60.468c-.894-.917-1.714-1.912-2.596-2.844-1.62-1.717-3.512-2.8-5.993-2.434-.422.064-.864.008-1.283.085-1.915.348-3.88.904-5.263 2.193-1.527 1.42-2.964 3.086-3.412 5.31-.174.866-.482.97-1.39.843-1.585-.226-3.178-.42-4.77-.64-1.166-.163-2.333-.33-3.492-.533-1.04-.187-1.156-.368-1.195-1.536-.01-.32-.01-.643 0-.963.22-6.234-.765-12.416-.804-18.638-.004-.323-.03-.646-.083-.963-.636-3.836-.376-7.71-.45-11.565-.017-.77.333-1.055 1.25-1.026 2.68.08 5.355.196 8.032.3.582.02 1.06.27 1.295.792.54 1.203 1.264 2.29 2.384 2.97 3.02 1.823 6.238 2.833 9.817 1.978.625-.15 1.263-.245 1.888-.39 2.3-.523 4.117-1.698 5.38-3.747.846-1.37 1.077-2.7.555-4.27-.672-2.03-1.112-4.133-1.71-6.19-.396-1.352-1.1-2.546-2.02-3.627-2.743-3.22-9.088-4.368-12.555-.26-1.118 1.322-2.176 2.647-2.882 4.236-.34.767-.917 1.01-1.786 1.034-2.81.075-5.54-.587-8.32-.732-1.098-.058-1.343-.29-1.354-1.33-.038-3.005-.01-6.012-.075-9.017-.07-3.32-.216-6.642-.33-9.963-.127-3.765.486-7.477.805-11.21.03-.32.128-.63.21-.94.213-.838.395-1.006 1.37-.995 2.576.03 5.157.227 7.726.11 2.337-.106 4 .32 5.094 2.748 1.26 2.8 6.153 4.637 9.57 2.74.833-.463 1.74-.81 2.628-1.164 1.167-.464 2.017-1.293 2.47-2.407.4-.98.69-2.044.798-3.093.32-3.116-.013-6.205-.75-9.238-.427-1.747-1.427-3.175-3.147-3.826-3.268-1.237-6.32-.853-8.99 1.56-.966.874-1.854 1.853-2.29 3.07-.568 1.585-1.66 2-3.195 2.044-1.82.053-3.674.11-5.437.508-1.6.36-3.18.416-4.782.45-1.074.02-2.15.006-3.218.105-1.03.096-1.835.67-2.23 1.626-.49 1.18-.923 2.39-1.287 3.616-.395 1.326-.76 2.624-.288 4.087.274.86.007 1.9-.05 2.854-.07 1.176-.246 2.347-.257 3.523-.035 3.436-.013 6.868-.013 10.303h-.06c0 3.864.003 7.73-.005 11.593 0 .533.01 1.085-.11 1.6-.06.243-.396.573-.63.597-.96.092-1.928.096-2.89.1-1.83.012-3.636.154-5.435.53-1.15.242-1.952.847-2.5 1.83-.416.75-.82 1.513-1.14 2.306-.726 1.81.294 3.52 2.278 3.712 1.385.14 2.784.075 4.18.125 1.283.05 2.575.048 3.845.21 2.094.27 2.415-.06 2.26 2.482-.095 1.603-.34 3.202-.362 4.805-.107 7.19-.163 14.382-.205 21.573-.005.847.057 1.735.307 2.534.3.97.366 1.892.085 2.842-.39 1.3-.137 2.535.242 3.787.337 1.13 1.03 1.85 2.165 2.148.724.19 1.47.317 2.175.565 3.445 1.216 6.946 1 10.468.507 1.2-.732 2.297.103 3.414.3.81.14.965 1.052 1.237 1.75.116.296.29.573.438.858 1.924 3.7 6.355 4.683 9.344 4.08 2.923-.593 5.026-2.276 6.933-4.37 1.756-1.922 2.495-4.215 2.495-6.778 0-2.02-.67-3.77-2.097-5.232zM100.472 59.77c.587-.603 1.13-1.25 1.728-1.85.07-.072.434-.01.49.09 1.15 1.977 1.78 4.055 1.214 6.364-.227.925-.775 1.383-1.803 1.47-1.22.1-1.934-.265-2.24-1.288-.21-.697-.26-1.44-.385-2.162 0-1.024.28-1.888.998-2.622zm-.236-40.19c.33-1.564 1.173-2.753 2.87-3.118.396-.085.94.203.975.587.063.635.087 1.274.127 1.912-.056 1.845-.395 3.627-1.013 5.355-.294.83-.978.98-1.792.503-.92-.54-1.418-1.277-1.354-2.36.055-.96-.003-1.947.192-2.88zm7.06 84.965c0 .227.01.44 0 .65-.042.918-.434 1.425-1.313 1.488-1.978.144-3.78-.235-5.15-1.856-.973-1.15-.902-1.64.467-2.304.19-.092.405-.128.587-.23.635-.357 1.264-1.03 1.88-1.017.784.016 1.564.57 2.33.923 1.007.463 1.328 1.305 1.2 2.345zm-77.93-78.678c.765.34 1.03.955 1.31 1.69.53 1.394 1.132 2.774 1.857 4.073.847 1.512 2.012 2.778 3.67 3.458 2.365.968 5.44.61 6.642-2.53.565-1.488 1.01-3.044 1.283-4.61.203-1.142.576-2.02 1.61-2.58.673-.363 1.254-.82 1.508-1.582.558-1.677.15-3.203-1.38-4.158-.85-.53-1.132-1.11-1.21-2.04-.1-1.16-.288-2.34-.645-3.444-.94-2.877-2.875-4.194-6.18-4.27-1.79.11-3.44.836-4.58 2.38-1.335 1.806-2.51 3.73-2.725 6.058-.066.697-.387 1.2-.986 1.544-.273.16-.57.303-.81.507-1.664 1.397-1.805 3.093-.368 4.74.275.312.63.596 1.006.762zm8.735-8.47c.436-.853.903-1.69 1.365-2.528.186-.34.527-.354.71-.066.827 1.293 1.14 2.74 1.246 4.24.06.85.014 1.704.014 2.334.173 2.708-.325 5.09-1.133 7.42-.135.393-.364.755-.586 1.11-.21.34-.968.49-1.094.213-.113-.25-.19-.604-.095-.842.302-.795.732-1.54 1.03-2.334.185-.5.257-1.173-.236-1.472-.973-.58-.88-1.21-.493-2.11.35-.812.14-1.626-.442-2.384-.84-1.1-.917-2.338-.288-3.584z"/></svg>