<svg xmlns="http://www.w3.org/2000/svg" width="128" height="128" viewBox="0 0 128 128"><path d="M120.18 47.104c-.097-2.36.005-4.725-.124-7.08-.227-4.13-1.225-8.078-3.595-11.518-2.49-3.616-5.153-7.115-7.755-10.654-.25-.34-.59-.623-.91-.907-2.5-2.216-5.157-4.235-8.228-5.568-5.306-2.3-10.74-4.246-16.41-5.48-.168-.035-.3-.266-.444-.404h-3.22c-.764.88-1.787.465-2.694.5-1.61.06-3.183.116-4.72.77-1.87.79-3.82 1.383-5.73 2.08-1.71.623-3.42 1.255-5.115 1.914-2.43.942-4.55 2.352-6.464 4.128-3.965 3.678-7.284 7.868-10.02 12.512-1.305 2.22-2.252 4.584-2.804 7.147-.527 2.45-.48 4.896-.57 7.355-.273 7.38 1.818 14.167 5.146 20.657.43.837 1.484 1.552 1.206 2.51-.256.865-1.073 1.57-1.662 2.333-1.178 1.53-2.334 3.073-3.557 4.56-2.044 2.486-4.22 4.865-6.18 7.41-2.427 3.15-4.99 6.164-7.784 8.993-.98.99-1.915 2.027-2.835 3.072-4.25 4.828-8.3 9.837-12.835 14.41-.752.76-1.426 1.6-2.11 2.425-1.09 1.32-1.036 2.654-.247 4.164 1.79 3.433 4.547 5.94 7.58 8.177.844.624 1.9 1.03 2.92 1.318 1.844.523 3.62.344 5.092-1.077 1.85-1.785 3.772-3.495 5.328-5.575 2.832-3.782 5.924-7.343 9.21-10.74 1.117-1.153 2.167-2.38 3.163-3.642 1.66-2.105 3.213-4.29 4.868-6.396 4.245-5.39 8.74-10.57 13.376-15.627.69-.756 1.456-.734 2.333-.348 7.183 3.16 14.718 4.446 22.543 4.316 1.972-.032 3.8-.416 5.62-1.12 1.594-.615 3.257-1.056 4.86-1.647 1.4-.514 2.857-.982 4.12-1.747 2.467-1.493 4.974-2.965 6.716-5.405.55-.77 1.39-1.333 2.073-2.01.53-.527 1.09-1.042 1.53-1.64 2.35-3.212 4.39-6.61 5.917-10.294 1.573-3.794 2.577-7.708 2.41-11.872zM29.3 95.744c.14.213.29.414.404.632.02.04-.1.156-.156.237l-.587-.61c.077-.06.157-.12.34-.256zm-1.722 14.044c-.413.482-.86.936-1.307 1.387-.145.146-.345.238-.52.354-.188-.083-.385-.146-.558-.25-2.122-1.28-3.853-2.94-5.072-5.125-.252-.454-.213-.747.123-1.083.376-.373.737-.76 1.1-1.144.38-.4.72-.32 1.028.087 1.42 1.87 3.084 3.473 5.106 4.693.424.256.422.708.105 1.077zm3.064-4.2c-2.32-1.105-4.22-2.768-5.984-4.6-.377-.392-.2-.747.154-1.056.32-.275.63-.56.963-.82.402-.308.768-.218 1.084.156.064.08.14.16.187.253.98 2.016 2.243 3.818 3.94 5.3.12.108.105.374.15.566-.17.073-.387.254-.496.203zm7.368-8.37c-.373.042-.898-.1-1.155-.364-1.397-1.43-2.802-2.877-3.555-4.783-.1-.254-.013-.62.083-.902.058-.168.282-.335.465-.39.154-.046.422.014.523.127.275.318.488.687.724 1.035.947 1.4 1.91 2.786 3.362 3.743.23.153.336.496.584.88-.374.253-.684.614-1.03.654zm5.205-5.818c-.155.2-.597.382-.804.3-.574-.232-1.13-.556-1.625-.93-1.18-.89-2.32-1.834-3.486-2.74-.705-.55-.73-.71-.05-1.427.212-.224.486-.39.722-.574.218.103.464.142.577.286 1.307 1.68 2.836 3.11 4.607 4.293.147.095.184.623.06.79zm.793-5.963c0-.08-.01-.15-.025-.22l-.444-.436c-.06-.005-.11-.02-.18-.014.007-.043 0-.08.005-.123-.997-.43-1.536-1.348-2.21-2.12-.027-.032.034-.21.09-.235.18-.07.485-.203.548-.134.68.732 1.677 1.285 1.573 2.49.026.01.045.03.072.042l.097.096c.267.033.4.193.443.438l.125.122c.068.064.14.123.207.186-.102-.032-.205-.06-.307-.088zm11.33-8.45c-.515.807-1.03 1.62-1.598 2.39-1.312 1.777-1.35 1.877-3.083.174-1.145-1.12-2.396-2.134-3.56-3.236-.186-.175-.323-.693-.208-.843 1.227-1.604 2.114-3.49 3.82-4.714.407-.288.862-.363 1.127.015 1.235 1.744 2.41 3.53 3.602 5.3.052.08.04.205.057.31-.05.204-.053.438-.16.606zm58.137-32.156c-.085 1.694-.405 3.408-.87 5.04-1.294 4.557-3.333 8.787-5.87 12.795-1.01 1.595-2.305 2.778-3.89 3.733-1 .605-1.93 1.326-2.908 1.97-1.515 1.002-3.024 2.022-4.578 2.962-2.065 1.25-4.363 1.74-6.743 1.818-1.712.055-3.43.01-5.146.01-3.11.156-6.2.086-9.27-.575-.974-.21-1.835-.533-2.635-1.09-3.075-2.14-6.176-4.24-9.216-6.427-.95-.683-1.797-1.536-2.58-2.41-2.88-3.2-5.266-6.753-7.316-10.532-.155-.282-.313-.57-.395-.877-1.12-4.144-2.206-8.286-1.118-12.634.388-1.552.562-3.162.978-4.707.36-1.333.876-2.635 1.4-3.917 2.556-6.258 7.48-10.033 13.44-12.67 2.054-.907 4.168-1.672 6.272-2.468 1.907-.723 3.83-1.42 5.93-.95 4.586-.41 8.876 1.127 13.263 2.01.62.126 1.237.372 1.8.667 3.237 1.692 6.368 3.51 8.68 6.48 2.17 2.785 4.548 5.412 6.688 8.222 3.035 3.982 4.335 8.573 4.086 13.55zm-22.88.437c-1.903-1.68-3.003-1.646-4.267.53-.91 1.57-2.02 3.022-3.05 4.52-.155.226-.633.12-.774-.157-.096-.19-.224-.368-.293-.566-.105-.3-.115-.653-.27-.917-.643-1.073-.324-1.946.303-2.935.964-1.52.597-2.123-1.14-2.194-.536-.02-1.074-.025-1.607.01-.794.054-1.307.867-1.045 1.622.24.69.698 1.38.694 2.07-.01.936-.35 1.873-.59 2.8-.038.144-.305.245-.484.325-.06.023-.193-.066-.257-.14-.143-.154-.31-.31-.382-.5-.875-2.302-2.56-4.2-3.28-6.584-.157-.523-.79-.854-1.274-.74-.414.1-.805.343-1.22.38-3.136.247-4.645 2.327-5.672 4.965-.156.4-.33.795-.45 1.205-1.07 3.764-1.077 7.626-.827 11.48.128 1.998 1.344 2.873 3.467 2.877.533.003 1.07-.026 1.605-.047l12.482-.46.005.078c2.57 0 5.144-.043 7.712.017 1.347.032 2.516-.355 3.64-1.035.7-.427 1.077-1.013 1.115-1.828.11-2.357.005-4.69-.17-7.05-.242-3.225-1.582-5.62-3.965-7.726zM72.135 33.02c.804.334 1.06.993 1.344 1.682.4.988.766 1.995 1.214 2.96.552 1.177 1.355 2.19 2.362 3.007 2.434 1.975 6.3 1.96 7.632-1.696.51-1.395.922-2.845 1.18-4.305.162-.93.46-1.614 1.285-2.06.587-.315 1.08-.75 1.184-1.43.223-1.422.14-2.876-1.012-3.853-.928-.784-1.203-1.664-1.274-2.78-.055-.843-.21-1.707-.497-2.498-.968-2.66-2.537-3.69-5.363-3.658-2.146-.08-3.665 1.003-4.82 2.672-1.05 1.506-1.733 3.19-2.177 4.968-.128.518-.16 1.1-.72 1.34-1.638.704-1.58 2.114-1.526 3.534.032.91.3 1.746 1.184 2.112zm9.43-10.295c.128-.247.277-.213.46.05.742 1.084 1.204 2.267 1.243 3.587.025.857.004 1.712.004 2.57l.192.017c-.175 1.48-.28 2.97-.562 4.43-.094.49.166 1.52-.783 1.392-.614-.082-.168-.99-.38-1.35-1.12-1.93-.675-4.17-1.365-6.186-.576-1.675.462-3.09 1.19-4.512z"/></svg>