<svg xmlns="http://www.w3.org/2000/svg" width="128" height="128" viewBox="0 0 128 128"><path d="M58.6 94.854c.013-3.77-.6-7.47-1.314-11.15-.178-.927-.47-1.934-1.024-2.666-2.345-3.1-5.193-5.368-9.39-5.29-3.648.068-7.296.004-10.946.004-1.45 0-1.824-.18-1.852-1.89-.017-.965-.075-1.93-.083-2.896-.024-3.108-.027-6.206-.417-9.31-.51-4.043-1.152-8.053-2.107-12.01-.478-1.993-1.26-3.88-2.507-5.532-.577-.763-1.245-1.455-1.87-2.18.503-.796 1.062-1.564 1.496-2.396.395-.757.725-1.562.956-2.382.815-2.89 1.516-5.805 1.42-8.848-.036-1.18-.07-2.365 0-3.54.143-2.393-.47-4.686-.894-6.998-.15-.82-.633-1.583-.958-2.374-.448-1.088-1.328-1.685-2.4-1.967-1.474-.39-3.008-.47-4.442.05-4.08 1.49-6.32 4.595-7.363 8.687.032 2.464-.232 4.974.165 7.377.593 3.58 1.55 7.12 3.652 10.206.32.47.277.93-.043 1.473-4.317 7.246-6.668 15.04-6.433 23.53.008.217 0 .43 0 .646.003 1.607.064 3.187.508 4.773.4 1.434.533 2.946.742 4.43.34 2.44.576 4.896.992 7.324.26 1.5.4 2.915-.08 4.424-.504 1.584.134 2.95 1.42 3.98 1.367 1.09 2.92 1.865 4.653 2.03 2.348.23 4.726.33 7.052-.19 3.154-.713 6.322-1.167 9.563-.976.427.026.873.075 1.284-.01.614-.13 1.236-.306 1.804-.57 1.434-.67 1.62-.588 1.523.895-.04.64-.176 1.27-.218 1.91-.163 2.568-.97 5.048-.956 7.647.025 4.077-.035 8.155-.056 12.23-.002.432-.015.865.04 1.288.345 2.638 3.408 4.06 5.67 2.62.843-.54 1.446-1.292 1.525-2.34.053-.75.072-1.5.072-2.25.006-3.005-.032-6.012.01-9.014.02-1.277.228-2.554.305-3.835.175-2.882.983-5.696.82-8.626-.148-2.64-.54-5.116-2.6-7.015-.092-.085-.113-.414-.044-.47.156-.12.39-.187.59-.183.318.005.654.03.945.145 1.458.563 2.162 1.73 2.32 3.206.287 2.66.85 5.285.805 7.99-.067 3.967-.014 7.938-.01 11.908 0 .75-.06 1.51.025 2.25.22 1.95 1.705 3.326 3.64 3.454 1.873.123 3.53-1.156 3.92-3.098.127-.623.12-1.28.124-1.923.013-2.466.005-4.936.005-7.403H58.6c0-1.716-.004-3.432 0-5.148zM21.352 23.518c.06-1.088.454-2.088 1.175-2.912.465-.53.86-1.222 1.74-1.157.123.61.304 1.22.357 1.84.064.74.015 1.49.015 2.462.437 2.325.073 4.864-.15 7.4-.083.94-.385 1.863-.62 2.785-.043.157-.258.267-.394.4-.072-.078-.173-.144-.21-.237-1.415-3.388-2.11-6.91-1.914-10.583zm5.654 58.745c-.213.017-.427.02-.642.032-.744-.004-1-.27-.91-.922.147-1.056.343-2.112.403-3.175.05-.885-.218-1.76-1.092-2.165-1.056-.49-.94-1.21-.7-2.116.438-1.65.84-3.314 1.142-4.994.42-2.344.173-2.79-2.042-4.02-.463-.257-.64-.572-.46-.997.705-1.677 1.454-3.333 2.188-4.998.267-.602.478-1.212-.015-1.798-.584-.696-1.267-.664-2.014-.267-.275.145-.633.224-.795-.158-.07-.16 0-.408.073-.592.117-.3.29-.572.432-.86.19-.385.427-.756.54-1.16.308-1.11.21-2.137-.858-2.838-.45-.295-1.032-.59-.872-1.195.235-.894.3-1.936 1.39-2.37.404-.162.895-.053 1.076.34.77 1.676.963 3.487 1.22 5.283.375 2.645.744 5.293 1.064 7.944.155 1.273.245 2.556.28 3.838.055 2.033.052 4.068.058 6.105.01 3.34.413 6.61 1.544 9.775.365 1.02.186 1.218-1.013 1.31zm90.27-27.033c-.613-3.285-1.473-6.473-2.872-9.498-1.43-3.09-1.57-2.628-.36-6.39.098-.305.205-.607.315-.91 1.555-4.35 2.56-8.843 3.286-13.387.39-2.443.338-4.907-.384-7.322-.643-2.144-2.58-3.99-4.725-4.3-2.557-.365-4.997.142-6.997 1.73-3.52 2.796-5.497 6.476-5.738 11.046-.222 4.273.843 8.275 2.38 12.194.628 1.602 1.233 3.204 2.99 4.002.514.233.675 1.2.452 1.743-.12.29-.263.583-.443.844-2.744 4.03-3.812 8.572-4.002 13.355-.107 2.676-.048 5.36-.09 8.04-.038 2.25-.067 4.504-.19 6.75-.086 1.59-.32 3.176-.486 4.764-1.425.913-3.162.237-4.646.903-.376.168-.853.096-1.265.203-2.74.716-5.326 1.77-7.153 4.038-1.48 1.84-2.677 3.885-3.548 6.09-.59 1.492-1.087 3.023-1.633 4.532-1.544 4.264-2.456 8.64-2.296 13.203.044 1.178-.042 2.366.06 3.535.098 1.056.32 2.108.578 3.134.283 1.112 1.074 1.813 2.09 2.296.948.45 1.923.256 2.572-.59.742-.972 1.06-2.096 1.087-3.302.038-1.82.01-3.646.088-5.467.05-1.17.22-2.338.376-3.5.546-4.084 2.214-7.826 3.716-11.594 1.188-2.984 3.554-4.762 6.827-5.156.09-.012.207.054.282.118.047.038.075.178.045.216-.342.41-.648.867-1.06 1.192-1.503 1.187-2.335 2.823-2.884 4.558-1.46 4.606-2.747 9.26-2.15 14.65 0 1.353-.057 3.18.025 4.996.04.835.23 1.71.57 2.472.578 1.283 1.668 1.903 3.103 1.864 1.368-.036 2.387-.742 2.854-2.168.227-.695.296-1.46.325-2.197.065-1.607.07-3.216.07-4.823 0-4.015 1.04-7.838 2.198-11.627.712-2.323 2.407-3.446 4.774-3.638.64-.05 1.314.037 1.92-.13 2.6-.73 5.24-1.036 7.936-1.053 1.168-.01 1.744-.537 1.93-1.74.25-1.587.516-3.188.54-4.785.108-6.97.16-13.937.172-20.907.003-2.674-.132-5.337-.63-7.996zM107.7 32.738c-.56-1.62-.93-3.277-.8-5.082-.272-2.048.37-3.925 1.547-5.653.428-.63.964-1.147 1.73-1.328.13-.032.447.15.45.24.046 1.162.252 2.367.027 3.482-.567 2.805-1.33 5.576-2.035 8.352-.038.142-.308.314-.468.313-.156 0-.4-.175-.45-.325zm2.173 20.82c-.06.274-.555.452-.856.673l-.316-.777c.1-.58.163-1.096.29-1.595.04-.155.256-.35.407-.363.147-.015.44.164.453.28.06.592.142 1.215.02 1.782zm.7 17.495c-.033.107-.345.128-.528.19-.11-.15-.34-.347-.304-.437.15-.37.37-.717.6-1.05.02-.032.398.098.396.142-.02.387-.05.784-.163 1.152zm-.414-6.835c-.49.365-1.03.667-1.538.992-.117-.14-.205-.206-.25-.3-.042-.084-.082-.223-.042-.287.545-.875 1.093-1.75 1.672-2.6.102-.153.346-.21.523-.31.09.18.23.35.264.54.137.76.03 1.472-.63 1.967zM49.326 62.11c.32.03.643.043.963.036 3.06-.066 2.775-.288 3.487-2.758.467-1.632.68-3.37.754-5.074.12-2.69 1.28-4.94 2.605-7.162.053-.092.11-.187.18-.262.118-.123.25-.23.377-.346.038.207.14.427.103.62-.576 3.164-1.135 6.327-1.15 9.556 0 .753.03 1.506-.008 2.255-.06 1.16.448 2.052 1.193 2.88.928 1.032 2.14 1.425 3.445 1.483 1.926.087 3.86.11 5.79.056 1.83-.05 3.65-.384 5.31-1.146 2.084-.956 3.833-2.336 4.244-4.816.21-1.265.38-2.54.56-3.808.046-.317.036-.645.112-.956.035-.155.207-.274.318-.412.075.08.188.144.216.235.613 1.938 1.4 3.818 1.536 5.894.117 1.783.376 1.92 2.227 1.886.106 0 .212 0 .32-.01 4.963-.47 4.99-.645 3.997-5.183-1.02-4.637-2.92-8.975-5.54-12.94-1.602-2.424-3.62-4.513-6.143-6.053-.55-.333-1.23-.6-1.563-1.092-.462-.683.18-1.393.377-2.078.352-1.235.76-2.456 1.16-3.676 1.054-3.207 1.303-6.51 1.077-9.845-.113-1.715-.512-3.397-1.254-4.963-1.507-3.182-3.675-4.69-7.4-4.505-5.343.267-9.095 4.657-8.42 9.99.148 1.17.278 2.342.474 3.504.48 2.85 1.062 5.677 1.96 8.435.32.983 1.412 1.973.833 2.925-.508.833-1.67 1.274-2.556 1.87-.53.36-1.075.708-1.634 1.027-1.534.873-2.723 2.116-3.595 3.613-1.293 2.22-2.527 4.483-3.677 6.784-1.013 2.023-1.604 4.187-1.702 6.48-.04.955-.244 1.908-.41 2.854-.205 1.178-.26 2.345.066 3.506.18.64.742 1.134 1.367 1.193zm18.95-7.84c0 1.97-.017 1.977-1.875 1.376-.33-.107-.564-.248-.298-.6.32-.424.697-.808 1.022-1.228.654-.846.786-1.71.105-2.63-.227-.307-.55-.795-.45-1.045.237-.572.704-1.05 1.077-1.568.107.085.306.165.31.25.017 1.173.01 2.347.01 3.52h.1v1.925zM65.15 18.264c.032-.62.936-1.414 1.538-1.472.437-.043 1.156.6 1.333 1.234.115.41.223.83.24 1.25.038.858.01 1.713.01 2.21.276 2.538-.31 4.598-.857 6.666-.02.078-.157.2-.18.188-.188-.094-.423-.176-.52-.336-.16-.267-.27-.58-.33-.887-.408-2.096-.84-4.19-1.178-6.297-.134-.835-.1-1.707-.055-2.558zM86.735 71.12c1.293-.02 2.56.064 3.684.866.627.45 1.424.65 2.146.386 1.097-.402 2.216-.847 3.174-1.493 1.398-.948 1.69-2.814.874-4.298-.86-1.568-2.354-2.107-3.966-2.405-.733-.136-1.51-.028-2.24-.176-4.258-.867-8.533-.426-12.805-.205-2.24.115-4.478.345-6.72.5-.96.065-1.926.052-2.888.108-2.35.133-4.696.357-7.047.416-3.748.095-7.5.077-11.253.127-.85.01-1.723.016-2.55.188-.974.203-1.89.267-2.838-.08-.392-.147-.84-.187-1.26-.188-1.78-.01-3.116 1.248-3.166 2.94-.06 2.036.85 3.052 2.94 3.505 2.11.46 4.228.617 6.376.584 3.858-.06 7.716-.122 11.573-.114 3.844.006 7.682-.544 11.532-.117.423.045.865.02 1.284-.045 4.368-.682 8.768-.432 13.155-.5z"/></svg>