<svg xmlns="http://www.w3.org/2000/svg" width="128" height="128" viewBox="0 0 128 128"><path d="M121.933 91.177c-.203-3.038-1.12-5.916-3.902-7.755-.354-.235-.687-.52-.98-.832-2.196-2.33-3.224-1.7-4.664.64-1.177 1.916-2.447 3.778-3.697 5.65-.157.234-.508.54-.72.097-.557-1.152-1.03-2.347-1.554-3.515-.245-.544-.173-1.026.183-1.488.197-.254.415-.498.575-.775.303-.53.96-1.083.412-1.683-.29-.32-.96-.38-1.468-.405-.85-.043-1.71.02-2.563.072-.45.028-.68.533-.48.975.045.095.072.21.14.287 1.302 1.463.982 2.933.044 4.42-.17.27-.266.592-.44.86-.1.148-.31.343-.44.324-.184-.024-.406-.197-.5-.367-.913-1.696-1.787-3.41-2.71-5.1-.412-.754-.816-1.48-.96-2.36-.115-.713-.755-1.056-1.45-.888-1.04.25-2.047.636-3.09.843-1.723.34-2.863 1.384-3.71 2.83-.324.554-.596 1.137-.89 1.71-2.044 3.962-1.878 8.316-2.13 12.572-.124 2.123.27 4.273.324 6.414.04 1.61.41 1.867 1.728 2.322 1.102.378 2.294.725 3.44.71 3.106-.035 6.206.128 9.31.156 1.714 0 3.434.06 5.148-.01 3.53-.152 7.056-.396 10.586-.558 4.533-.206 3.12.043 4.484-3.89.066-.195.06-.426.06-.64-.012-3.54.154-7.092-.084-10.62zM45.02 56.1c1.588.2 3.183.387 4.78.434 2.454.072 4.908.02 7.36.02v.1c1.715 0 3.432.064 5.142-.013 4.49-.2 8.975-.482 13.46-.683.927-.043 1.356-.558 1.633-1.28.192-.493.282-1.03.367-1.555.594-3.722.592-7.472.356-11.216-.114-1.813-.535-3.6-1.24-5.29-.245-.59-.512-1.228-.95-1.663-1.294-1.274-2.658-2.482-4.037-3.668-.71-.613-1.673-.495-2.262.286-.775 1.023-1.483 2.098-2.187 3.17-.825 1.25-1.61 2.527-2.43 3.782-.11.166-.318.327-.5.36-.103.018-.31-.22-.37-.378-.37-1.003-.69-2.025-1.068-3.027-.202-.544-.2-1.02.163-1.495.324-.425.626-.868.896-1.33.74-1.258.4-1.957-1.103-2.132-.843-.098-1.707-.066-2.56-.046-.512.013-.988.56-.95 1.1.04.522.05 1.115.302 1.537.55.923.526 1.806.21 2.77-.263.805-.434 1.64-.69 2.45-.024.08-.372.143-.51.082-.178-.078-.344-.268-.436-.45-1.3-2.57-2.6-5.143-3.87-7.73-.493-1.003-.915-1.227-2.03-.904-1.03.3-2.052.61-3.082.902-1.072.304-1.958.887-2.545 1.835-1.3 2.106-2.288 4.322-2.765 6.795-1.008 5.22-.516 10.464-.44 15.704.013.846.522 1.432 1.357 1.54zm-5.33 38.047c-.195-2.994-1.803-5.323-3.99-7.05-2.117-1.672-2.735-2.183-4.505.71-.224.366-.496.7-.73 1.06-.813 1.262-1.615 2.53-2.43 3.788-.347.537-.852.448-1.172-.208-.233-.483-.422-.986-.667-1.46-.514-1.008-.648-1.953.043-2.98 1.38-2.066.235-2.484-1.428-2.407-.427.02-.857.034-1.28.082-.776.085-1.19.725-.75 1.326.77 1.056.946 2.088.417 3.302-.25.576-.284 1.248-.468 1.86-.046.155-.288.333-.454.35-.175.015-.462-.102-.536-.245-1.192-2.27-2.368-4.546-3.525-6.833-.496-.98-.972-1.222-2.064-.936-.72.19-1.435.405-2.16.57-1.094.246-1.968.817-2.623 1.718-1.276 1.757-2.23 3.682-2.578 5.826-.48 2.96-.942 5.93-.612 9.188 0 .834-.005 1.907.003 2.978.004.43.035.856.066 1.283.13 1.854.927 2.69 2.772 2.862.637.06 1.284.053 1.926.053 2.892.007 5.777-.145 8.662.294 1.256.19 2.566.063 3.85.004 2.46-.114 4.915-.296 7.372-.424 1.713-.09 3.43-.106 5.14-.218 1.377-.088 2.06-.928 2-2.344-.045-1.067-.32-2.174-.12-3.194.587-3.016.032-5.975-.16-8.957zm46.963 13.984c-.612-.297-1.237-.347-1.845.02-.363.224-.715.465-1.06.715-2.734 1.97-5.818 3.086-9.046 3.98-4.702 1.31-9.543 1.155-14.322 1.64-.147.015-.32-.15-.46-.26-.025-.02.044-.21.11-.284.284-.317.615-.596.87-.935.923-1.232.952-2.795.097-3.85-.794-.982-2.2-1.36-3.5-.883-.5.182-.956.478-1.428.73-2.38 1.254-4.8 2.333-7.55 2.538-1.046.078-2.09.474-3.077.87-.565.226-1.133.653-1.5 1.14-.836 1.106-.658 3.867.347 4.81 1.322 1.247 2.693 2.462 4.167 3.518 1.997 1.43 4.043 2.827 6.197 4 2 1.088 4.312.386 4.864-2.35.122-.593-.272-1.42.448-1.73.548-.238 1.243-.14 1.874-.17.427-.022.856-.005 1.286-.005 4.94-.08 9.82-.72 14.6-1.94 2.695-.688 5.314-1.685 7.7-3.153 1.275-.78 2.494-1.664 3.65-2.61.846-.688 1.05-2.05.532-2.93-.715-1.22-1.668-2.224-2.96-2.855zM38.528 18.25c-3.27.497-6.535 1.055-9.768 1.743-1.227.26-2.437.823-3.525 1.468-1.696 1.008-1.952 2.754-.8 4.38.183.26.47.45.636.72.087.132.08.415-.01.543-.24.35-.543.658-.826.975-3.303 3.684-6.215 7.642-8.252 12.173-1.494 3.326-2.655 6.764-2.762 10.463 0 .642-.043 1.288.01 1.928.132 1.63 1.096 2.668 2.554 2.806 1.54.15 2.725-.597 3.173-2.105.304-1.02.488-2.08.74-3.117 1.63-6.724 5.063-12.434 9.83-17.385.52-.54.822-.483 1.144.13.35.66.62 1.393 1.104 1.934.666.748 1.533 1.033 2.603.716 1.1-.324 1.94-.91 2.485-1.883 1.52-2.704 3.006-5.427 4.498-8.146.155-.28.245-.598.395-.878.896-1.692.582-3.323-.288-4.896-.626-1.135-1.685-1.752-2.937-1.563zm42.144 2.827c.657.547 1.405.98 2.086 1.495 4.708 3.538 8.317 7.984 10.877 13.282.064.13-.075.376-.155.55-.02.047-.18.078-.248.05-.597-.24-1.17-.54-1.78-.735-.993-.32-2.18.097-2.843.974-.627.825-.866 1.75-.335 2.7.36.647.763 1.31 1.285 1.823 1.522 1.504 3.103 2.948 4.676 4.395.944.867 2.03 1.605 2.852 2.57 1.064 1.246 2.432 1.697 3.923 1.95 1.88.317 3.1-.385 3.806-2.142.198-.492.36-1.007.465-1.528.45-2.197.908-4.395 1.288-6.603.344-2 .6-4.015.862-5.8 0-.555.007-.875 0-1.197-.026-.795-.283-1.474-1.048-1.835-.856-.406-1.702-.307-2.39.32-.46.42-.87.948-1.153 1.503-.335.664-.493 1.415-.765 2.113-.05.128-.277.206-.437.254-.065.018-.206-.088-.257-.17-.22-.363-.45-.723-.62-1.11-2.43-5.52-6.398-9.83-10.9-13.695-1.46-1.256-3.09-2.285-4.897-3.03-.924-.378-1.85-.5-2.818-.46-1.14.047-2.13.746-2.42 1.767-.3 1.055.16 1.9.944 2.553zm19.463 32.74c-.475.574-.944 1.185-1.26 1.85-.635 1.353-1.315 2.717-1.684 4.15-.277 1.096-.574 1.952-1.64 2.513-.923.483-1.298 1.383-1.208 2.446.028.32.014.644.005.964-.03 1.16.307 2.144 1.45 2.62.895.37 1.253 1.09 1.558 1.915.412 1.103.793 2.226 1.326 3.267.885 1.728 2.03 3.28 3.704 4.346 2.873 1.827 6.404.904 7.912-2.105.768-1.536 1.387-3.163 1.448-4.894.053-1.425.533-2.455 1.813-3.143 1.08-.58 1.348-1.627 1.235-2.752-.074-.74-.255-1.483-.49-2.19-.124-.377-.388-.818-.715-.995-.976-.528-1.253-1.3-1.312-2.362-.067-1.166-.267-2.353-.626-3.46-.79-2.454-2.638-4.786-6.35-4.56-2.04-.185-3.784.724-5.163 2.39zm6.663 2.625c.046-.075.402-.096.47-.018.796.91 1.294 1.96 1.314 3.185.02 1.39.006 2.78.013 4.17h.015c0 1.284.09 2.575-.03 3.85-.087.937-.43 1.852-.7 2.767-.03.107-.35.238-.465.19-.166-.073-.32-.275-.39-.457-.067-.182-.028-.408-.024-.613.01-.315.17-.743.023-.925-.956-1.173-1.052-2.5-.91-3.922.037-.402-.118-.85-.278-1.24-1.04-2.516-.307-4.788.963-6.982zM51.95 18.195c1.216.604 1.65 1.52 1.997 2.694.58 1.97 1.557 3.737 2.916 5.31 1.347 1.555 2.97 2.403 5.2 2.306 1.94.232 3.35-.76 4.235-2.566.42-.86.78-1.763 1.045-2.683.293-1.024.53-2.08.644-3.136.096-.93.392-1.66 1.25-2.074 1.087-.527 1.66-1.46 1.582-2.58-.09-1.334.156-2.91-1.248-3.774-.86-.532-1.11-1.198-1.1-2.127.017-1.632-.483-3.168-1.115-4.65-.245-.58-.59-1.15-1.007-1.62-2.51-2.818-7.55-2.57-9.92.502-1.455 1.885-2.51 3.997-3.005 6.334-.192.907-.494 1.59-1.362 2.01-1.237.6-1.474 1.696-1.435 2.967.036 1.232.17 2.517 1.32 3.087zM62.5 7.555c.244-.32.298-.786.452-1.18.037-.096.115-.178.175-.267.17.122.384.21.5.37.705.964 1.17 2.022 1.166 3.246-.002 1.28 0 2.556 0 3.834h.155c-.064 1.49-.047 2.99-.22 4.466-.096.817-.5 1.598-.783 2.39-.013.035-.174.042-.256.02-.098-.02-.237-.07-.26-.143-.1-.284-.205-.582-.226-.88-.02-.312.198-.76.053-.925-1.077-1.253-.968-2.73-.974-4.22 0-.506-.338-1.002-.437-1.522-.343-1.794-.587-3.575.65-5.19zM17.69 76.492c.276.695.48 1.427.815 2.09.823 1.635 1.762 3.217 3.35 4.23 2.402 1.533 5.985 1.6 7.55-1.945.17-.39.372-.78.485-1.184.256-.928.592-1.856.665-2.803.107-1.37.414-2.497 1.792-3.126.625-.286.888-.92.88-1.606-.004-.747.017-1.508-.125-2.234-.096-.494-.337-1.154-.72-1.358-1.15-.62-1.226-1.605-1.304-2.7-.05-.74-.26-1.473-.443-2.198-.75-2.947-2.494-4.772-6.21-4.555-1.356-.075-2.78.293-3.85 1.515-.56.64-1.158 1.293-1.53 2.043-.662 1.338-1.272 2.72-1.697 4.14-.26.87-.602 1.466-1.346 2.038-1.867 1.438-1.905 4.107 0 5.45.872.62 1.333 1.313 1.685 2.206zm7.595-9.984c.013-.015.032-.022.048-.03.032-.065.064-.127.1-.19l.1.02c.672-2.242.78-2.437 1.2-2.176.858.537.838 1.48.98 2.283.468 2.654.378 5.333.047 7.997-.144 1.157-.444 2.296-.712 3.435-.04.167-.275.346-.46.404-.108.038-.4-.124-.42-.234-.2-1.008-.986-1.96-.263-3.075.126-.193.04-.68-.126-.882-.6-.734-.317-1.387.045-2.07.368-.698.547-1.38-.078-2.068-.33-.363-.158-.786.045-1.184.288-.57.594-1.14.794-1.742.107-.32-.136-.57-.523-.597-.178-.01-.352-.052-.528-.087-.008.02-.01.036-.02.06-.063.034-.124.067-.18.11l-.105.197c.016-.062.016-.136.054-.17z"/></svg>