<svg xmlns="http://www.w3.org/2000/svg" width="128" height="128" viewBox="0 0 128 128"><path d="M27.29 106.475c-.244-.162-.867-.02-1.145.196-.403.32-.666.823-.963 1.267-.835 1.244-1.653 2.498-2.485 3.74-.173.26-.69.235-.813-.02-.64-1.37-1.28-2.734.024-4.103.13-.135.227-.422.175-.59-.087-.267-.277-.656-.48-.695-.626-.126-1.276-.145-1.918-.136-1.008.015-1.46.523-1.045 1.397.612 1.29.367 2.5-.01 3.738-.054.17-.276.357-.45.403-.134.033-.4-.11-.468-.244-.928-1.808-1.83-3.627-2.733-5.444-.444-.89-.727-1.015-1.796-.738-.31.082-.604.277-.912.294-1.848.092-2.905 1.242-3.65 2.75-.47.955-.936 1.94-1.195 2.965-.86 3.36-.762 6.798-.605 10.23.008.207.04.453.152.61.174.243.414.566.66.598.737.097 1.494.11 2.24.083 3.85-.155 7.697-.328 11.545-.496l.003.082c3.11 0 6.216.007 9.325-.007.87-.003 1.162-.243 1.3-1.07.466-2.77.285-5.52-.05-8.31-.374-3.126-2.34-4.927-4.71-6.492zm82.887-62.144v-.26c.738 0 1.478.016 2.213 0 3.086-.06 6.17-.122 9.254-.195.6-.014 1.01-.38 1.013-.984.006-2.884.032-5.774-.06-8.657-.038-1.184-.505-2.33-1.32-3.206-.947-1.013-1.996-1.933-3.037-2.854-.537-.48-1.197-.367-1.65.277-.738 1.044-1.378 2.17-2.16 3.182-.492.634-.622 1.666-1.7 1.736-.32-.782-.684-1.553-.94-2.357-.082-.25.085-.61.21-.892.248-.58.57-1.13.804-1.714.043-.112-.168-.47-.288-.485-.834-.11-1.675-.195-2.513-.214-.555-.01-1.05.633-.793 1.114.73 1.357.617 2.66-.008 3.986-.088.186-.24.446-.388.465-.144.023-.384-.19-.477-.356-.823-1.493-1.624-2.997-2.426-4.5-.91-1.723-.923-1.66-2.675-1.39-1.987.306-3.353 1.335-4.117 3.15-.414.98-.78 1.984-1.05 3.012-.894 3.362-.596 6.795-.494 10.212.02.624.38.932 1.045.934 3.85.01 7.703.006 11.554.006zm13.6 67.436c-.15-3.278-2.147-5.485-4.676-7.296-.393-.284-1.135-.158-1.45.266-.51.687-.98 1.403-1.467 2.11-.67.97-1.327 1.946-2.02 2.896-.055.08-.456.056-.493-.02-.283-.566-.48-1.18-.772-1.74-.344-.663-.126-1.166.21-1.77.9-1.612.624-2.083-1.142-2.1-.416-.002-.843.085-1.254.164-.352.07-.702.676-.58 1.02.202.597.64 1.187.628 1.77-.02.83-.348 1.66-.58 2.48-.02.068-.32.083-.492.075-.088-.002-.21-.1-.253-.184-.988-1.89-1.97-3.787-2.942-5.688-.286-.558-.686-.802-1.27-.65-.618.154-1.22.444-1.844.51-1.188.122-1.997.795-2.594 1.708-.523.8-.928 1.685-1.312 2.566-.87 2-.923 4.187-1.115 6.3-.174 1.892.106 3.837.25 5.755.026.39.295.752.86.736 3.857-.116 7.715-.208 10.822-.287 3.648 0 6.544 0 9.44-.007 1.07 0 2.144-.005 3.213-.065.463-.023.802-.34.806-.832.033-2.57.148-5.147.03-7.714zM76.36 81.916c.21-2.558.372-5.098.026-7.67-.285-2.113-1.032-3.796-2.643-5.287-2.948-2.73-2.795-2.36-4.85.67-.658.97-1.333 1.93-2.033 2.87-.064.083-.5.048-.533-.027-.506-1.235-1.37-2.36-.294-3.834.885-1.217.544-1.697-.91-1.743-.532-.017-1.066.02-1.6.064-.4.037-.778.548-.707.925.037.21.056.442.166.612.815 1.272.31 2.477-.184 3.675-.06.135-.288.22-.456.282-.056.02-.203-.1-.245-.186-.956-1.9-1.902-3.81-2.848-5.718-.27-.537-.756-.81-1.3-.674-.413.105-.806.36-1.22.387-1.964.133-3.097 1.335-3.85 2.976-.445.965-.84 1.97-1.118 2.993-.935 3.47-.66 7.008-.498 10.54.023.505.38.753.85.77.858.027 1.713.037 2.57.006 4.05-.148 8.1-.308 12.15-.465v.032c.642 0 1.285.003 1.93 0 2.142-.005 4.288.003 6.43-.02.782-.006 1.092-.342 1.165-1.187zM8.325 42.707c3.525-.015 7.05-.01 10.573-.01v-.234c3.86 0 7.715.008 11.574-.008.907-.002 1.263-.284 1.27-1.062.03-2.573.06-5.144 0-7.714-.033-1.41-.42-2.816-1.31-3.9-.943-1.148-2.124-2.104-3.228-3.115-.405-.37-1.088-.304-1.434.164-.825 1.12-1.58 2.29-2.396 3.41-.435.597-.912 1.17-1.444 1.683-.208.197-1.113-1.564-1.133-2.434-.01-.303.084-.628.21-.91.213-.49.546-.93.708-1.433.066-.2-.15-.708-.275-.72-.843-.095-1.696-.11-2.546-.112-.32 0-.813.675-.658.95.692 1.23.434 2.46.095 3.698-.082.304-.202.6-.3.898-.318-.25-.75-.44-.926-.767-.912-1.693-1.762-3.418-2.624-5.136-.38-.747-.725-.92-1.515-.723-3.59.896-4.46 1.7-5.65 5.312-.235.707-.46 1.435-.55 2.17-.34 2.87-.74 5.74-.203 8.627.075.413.093.88.305 1.216.373.59.955.15 1.453.145zm48.7 14.762c1.19.8 1.613 1.883 2.037 3.1.46 1.324 1.265 2.46 2.27 3.455.703.7 1.546 1.146 2.492 1.376 1.363.33 2.578-.013 3.438-1.132.512-.664.928-1.44 1.216-2.227.323-.895.507-1.85.658-2.797.11-.68.365-1.167.93-1.58.408-.298.892-.746.97-1.19.212-1.254.388-2.603-.822-3.537-.66-.51-.883-1.16-.923-1.94-.024-.534-.045-1.075-.16-1.594-.576-2.564-2.16-3.932-5.067-3.797-1.244-.26-2.354.53-3.328 1.603-1.026 1.13-1.645 2.48-2.078 3.932-.3 1.008-.617 1.92-1.613 2.62-1.058.748-1.082 2.996-.02 3.71zm8.24-7.797c.124-.17.246-.34.368-.512.144.146.35.268.413.438.25.69.563 1.387.646 2.103.112.947.03 1.916.03 2.874l.244.025c-.203 1.467-.4 2.933-.62 4.4-.004.05-.167.11-.26.115-.092.01-.256-.015-.275-.064-.31-.86-.927-1.77-.816-2.577.142-1.03-.224-1.87-.346-2.798-.18-1.376-.284-2.773.616-4zm38.22-31.318c.946.69 1.442 1.51 1.756 2.55.445 1.46 1.214 2.76 2.278 3.822 2.27 2.266 5.61 2.393 7.163-1.413.12-.29.174-.614.255-.925.162-.62.402-1.23.465-1.863.102-1.02.376-1.845 1.368-2.365.32-.164.606-.654.654-1.03.158-1.28.277-2.612-1.003-3.476-.61-.412-.747-.967-.793-1.636-.05-.744-.085-1.515-.317-2.208-.778-2.357-2.314-3.648-4.86-3.435-1.163-.138-2.16.41-3.05 1.263-1.354 1.312-2.084 2.973-2.55 4.74-.234.876-.633 1.462-1.35 2.043-1.173.947-1.213 3.06-.018 3.93zm7.424-6.03c.066-.993.953-2.54 1.194-2.29.602.622.928 1.403.94 2.287.015 1.056.002 2.112.002 3.17.053.003.103.005.15.005-.074 1.162-.132 2.32-.23 3.48-.06.677-.638 1.427-.78 1.205-.195-.307-.22-.715-.372-1.056-.695-1.565-.413-3.292-.85-4.908-.16-.593-.096-1.264-.053-1.894zm-85.12 79.73c-.37-.303-.58-.886-.713-1.38-.187-.72-.165-1.498-.363-2.216-.836-3.016-2.377-3.624-4.552-3.65-1.64-.027-2.898.542-3.92 1.784-.9 1.096-1.53 2.32-1.902 3.683-.287 1.045-.786 1.893-1.63 2.665-1.156 1.054-1.068 2.962.23 3.96.83.642 1.276 1.33 1.6 2.272.52 1.528 1.266 2.955 2.45 4.107 1.866 1.81 5.652 2.34 6.97-1.467.35-1.006.607-2.056.762-3.11.115-.8.363-1.43 1.074-1.84.864-.497 1.032-1.31 1.02-1.595-.07-1.596-.165-2.51-1.028-3.214zm-3.124 3.3c-.152 2.022-.832 3.747-1.073 3.284-.527-1.003-.656-2.15-.86-3.264-.132-.72-.28-1.443-.403-2.165-.25-1.492-.345-2.97.553-4.316.11-.168.245-.32.37-.476.23.212.598.388.666.644.297 1.126.542 2.268.736 3.415.087.515.015 1.06.015 1.595 0 .427.028.853-.005 1.28zm93.38-9.87c-.47-1.238-1.382-2.113-2.71-2.54-2.372-.764-4.512.16-5.664 1.85-.85 1.238-1.616 2.54-1.826 4.062-.096.694-.476 1.108-.965 1.57-1.542 1.444-1.556 3.328.003 4.64.518.437.888.843 1.08 1.496.423 1.444 1.076 2.79 2.002 3.992.977 1.267 2.242 1.952 4.027 1.93 1.406.142 2.523-.51 3.21-1.923.517-1.067.967-2.146 1.046-3.35.063-1 .488-1.76 1.24-2.495 1.455-1.422 1.47-2.85.08-4.495-.437-.516-.736-.95-.832-1.62-.153-1.055-.317-2.132-.693-3.116zm-1.99 9.32c-.093.58-.19 1.253-.822 1.595-.154-.496-.288-.996-.462-1.486-.608-1.69-.645-3.493-1.02-5.23-.108-.5-.005-1.063.103-1.574.196-.91 1.045-1.88 1.242-1.59.35.508.728 1.06.843 1.644.223 1.136.275 2.307.377 3.262-.088 1.272-.096 2.34-.26 3.38zM12.56 16.955c.923.626 1.23 1.4 1.565 2.287.576 1.52 1.327 2.945 2.468 4.108 1.758 1.792 5.824 2.33 6.95-1.454.306-1.024.546-2.065.82-3.093.195-.73.495-1.347 1.072-1.914 1.33-1.306 1.69-2.7.544-3.926-1.08-1.147-1.265-2.353-1.444-3.71-.056-.42-.235-.822-.378-1.228-.812-2.3-2.32-3.153-4.566-3.072-1.853-.24-3.307.773-4.272 2.47-.632 1.102-1.137 2.308-1.48 3.527-.218.78-.568 1.297-1.157 1.817-1.248 1.1-1.406 3.315-.125 4.19zm7.248-6.408c.173-.942 1.21-2.187 1.38-1.9.366.627.75 1.3.867 1.998.177 1.035.128 2.106.192 3.526-.077.908-.123 2.177-.323 3.425-.068.44-.51.826-.78 1.237-.09-.402-.106-.84-.285-1.2-.815-1.643-.5-3.517-1.104-5.213-.196-.55-.06-1.26.05-1.874zm75.584 39.048c-2.394-.343-4.675.096-6.894 1.013-3.578 1.487-6.9 3.426-10.1 5.584-.268.18-.513.387-.74.614-1.292 1.29-1.46 3.19-.42 4.683.885 1.27 2.78 1.796 4.3 1.15.688-.295 1.343-.663 2.01-1.01 3.228-1.675 6.458-3.346 9.678-5.03.853-.448 1.725-.875 2.517-1.418.608-.416 1.168-.95 1.62-1.532.307-.395.396-.956.48-1.17-.11-1.698-1.005-2.676-2.45-2.885zm-5.045 48.483c-2.06-2.022-4.085-4.085-6.226-6.016-1.502-1.354-3.17-2.525-4.785-3.754-.69-.526-1.486-.847-2.677-.774.08 0-.133-.014-.348.005-1.97.174-3.047 1.84-2.27 3.662.324.76.858 1.474 1.43 2.08.734.768 1.637 1.376 2.413 2.112 2.556 2.426 5.104 4.867 7.624 7.337 1.082 1.058 2.23 1.998 3.622 2.603 1.246.544 2.41.322 3.23-.56.834-.89.88-1.922.46-2.983-.564-1.405-1.395-2.65-2.476-3.713zm-42.934-10.84c-.97-.636-2.062-.65-3.07-.183-.86.4-1.694.93-2.425 1.536-4.01 3.318-6.933 7.54-9.71 11.877-.612.956-.612 2.02-.45 3.104.146.96.754 1.548 1.606 1.825 1.312.42 2.56.233 3.555-.793.52-.534.97-1.136 1.425-1.73 2.736-3.568 5.51-7.104 8.814-10.182.312-.29.676-.57.872-.936.34-.642.572-1.338.683-1.61.014-1.516-.44-2.342-1.3-2.904zm-18.777-40.1c-1.7.48-2.417 2.394-1.38 3.832.49.685 1.087 1.328 1.752 1.846 2.787 2.176 5.296 4.644 7.73 7.196.59.62 1.24 1.18 1.896 1.72.408.336.864.633 1.336.872 1.125.57 2.385.5 2.98-.213.72-.856 1.025-1.85.645-2.97-.136-.4-.274-.804-.464-1.187-.184-.38-.44-.728-.65-1.1-2.075-3.592-5.03-6.342-8.43-8.626-1.23-.82-2.554-1.58-4.52-1.498-.05.007-.485.016-.89.127z"/></svg>