<svg xmlns="http://www.w3.org/2000/svg" width="128" height="128" viewBox="0 0 128 128"><path d="M50.272 98.547c-.146-2.347-.337-4.706-.717-7.027-.5-3.056-1.184-6.088-1.83-9.123-.466-2.212-1.336-4.288-2.312-6.317-.623-1.29-1.525-2.308-3.083-2.55-.514-.08-.974-.458-1.487-.592-1.76-.47-3.23.272-3.857 1.995-.363 1-.544 2.07-.868 3.086-.487 1.526-.922 3.08-1.99 4.34-.09.106-.482.14-.522.074-.612-.99-1.187-1.998-1.77-3 .31-.665.612-1.336.938-1.992.24-.477.578-.914.747-1.414.35-1.04-.065-1.96-1.374-1.883-.962.053-1.93.08-2.885.203-1.172.15-1.7 1.024-1.297 2.066.233.595.47 1.207.808 1.747.6.967.425 1.818-.19 2.683-.31.435-.546.92-.83 1.368-.26.41-.818.41-1.03-.03-1.166-2.403-2.358-4.795-3.44-7.238-.91-2.062-2.59-2.607-4.333-1.23-.584.46-1.005 1.13-1.6 1.576-1.376 1.028-2 2.436-2.39 4.047-.376 1.557-.916 3.074-1.332 4.624-.664 2.475-1.323 4.955-1.916 7.45-.774 3.264-.566 6.606-.703 10.777.064 1.613.08 4.08.286 6.535.208 2.496 2.06 4.085 4.533 4.018 1.067-.024 2.125-.223 3.19-.324 1.274-.117 2.554-.31 3.833-.31 5.79 0 11.58.035 17.37.102 1.056.015 2.115.216 3.166.376.86.126 1.024.047 1.3-.924.208-.72.43-1.436.652-2.148.096-.31.235-.306.418-.015.28.452.515.944.864 1.338.897 1.02 2.062 1.058 3.25.683 1.066-.338 1.812-1.59 1.757-2.8-.015-.32-.04-.644-.113-.957-.704-3.03-1.05-6.106-1.24-9.214zm-20.213-9.75l.02-.208.177.12-.2.09zm88.525 3.534c-.035-.525-.177-1.052-.32-1.566-1.045-3.81-2.23-7.595-3.122-11.443-.552-2.38-2.05-3.96-3.746-5.42-1.102-.955-2.38-1.167-3.883-.516-1.49.644-2.545 1.554-3.076 3.045-.69 1.935-1.746 3.665-2.82 5.392-.165.263-.412.5-.668.673-.14.093-.5.11-.567.02-.446-.6-.825-1.244-1.252-1.855-.545-.78-.6-1.544-.127-2.397.363-.65.646-1.35.91-2.05.28-.74-.165-1.632-.94-1.736-1.268-.166-2.55-.235-3.826-.284-.61-.02-1.132.775-.927 1.408.192.603.452 1.196.773 1.74 1.263 2.155 1.397 1.568.068 4.005-.15.28-.325.552-.503.818-.28.424-.82.477-1.038.085-1.24-2.244-2.56-4.43-3.186-6.98-.643-2.607-.73-2.557-3.2-1.62-.847.323-1.51.827-1.968 1.565-.45.725-.83 1.496-1.185 2.272-1.206 2.65-1.78 5.477-2.335 8.315-.78 3.987-1.57 7.957-1.74 12.046-.122 2.87-.715 5.72-1.056 8.58-.13 1.06-.23 2.134-.193 3.195.038 1.025.782 1.804 1.803 1.988 1.465.264 2.938.57 4.416.642 2.952.144 5.908.81 8.868.015.5-.14 1.067-.02 1.602-.02h6.75v-.14c1.61 0 3.225-.107 4.82.023 2.81.235 5.53-.387 8.283-.698.74-.085 1.46-.315 2.19-.487.703-.166 1.15-.636 1.206-1.33.218-2.553.547-5.11.53-7.666-.02-3.207-.33-6.41-.544-9.613zM77.43 29.4c-.223-1.614-.712-3.13-1.71-4.455-1.096-1.45-2.472-2.34-4.35-2.352-1.827-.01-3.646-.026-5.397.645-2.195.843-4.46 1.54-6.592 2.52-1.44.66-2.81 1.58-4.026 2.603-2.6 2.186-4.032 4.978-3.797 8.695-.23 2.428.528 4.87 1.616 7.234 1.544 3.355 3.573 6.356 6.504 8.674.603.477 1.11.942 1.008 1.852-.117 1.072.698 1.538 1.56 1.726.715.16 1.498.178 2.225.07 2.01-.29 4.01-.674 6.013-1.03.42-.073.864-.108 1.252-.265.612-.253 1.21-.69 1.173-1.393-.068-1.368.54-2.48 1.123-3.62 1.527-2.98 2.564-6.148 3.187-9.412.482-2.517.965-5.067.674-7.667-.14-1.276-.28-2.555-.46-3.827zM65.633 44.675c-.032.32-.147.346-.414.175-.85-.543-1.02-1.603-.32-2.316.125-.128.365-.16.56-.206.03-.006.13.144.144.227.06.4.098.804.135 1.14-.04.374-.08.676-.108.98zm7.5-9.777c.014 4.148-1.347 7.98-2.74 11.8-.256.703-.562 1.393-.917 2.047-.134.25-.47.392-.715.584-.066-.186-.18-.37-.19-.56-.08-1.283-.1-2.57-.21-3.847-.21-2.448-.45-4.894-.73-7.333-.027-.218-.407-.45-.674-.564-.11-.05-.47.14-.51.28-.395 1.4-1.54 1.914-2.71 2.484-.756.373-1.423.945-2.08 1.493-.718.593-.946 1.272-.543 2.26.885 2.174 1.63 4.406 2.407 6.625.155.45.22.932.315 1.403.035.015.066.034.102.048.037.023.045.08.047.145l.313.165c-.34.22-.307.003-.314-.166l-.126-.065-.023-.125c-1.193-.437-2.13-1.267-2.933-2.184-2.787-3.183-4.87-6.73-5.64-10.983-.374-2.056.14-3.844 1.31-5.426.682-.93 1.58-1.81 2.572-2.37 3.374-1.894 6.934-3.334 10.85-3.67 1.603-.135 2.527.38 2.8 1.936.347 1.984.938 3.982.343 6.027zM24.206 60.714c.99.203 1.344.95 1.626 1.79.446 1.31.844 2.65 1.398 3.916.424.97.968 1.915 1.623 2.737.982 1.235 2.1 1.425 3.382.55 1.14-.78 2.155-1.743 3.217-2.63 1.02-.853 1.582-1.98 2.012-3.215.862-2.48.824-5.045.783-7.53-.064-1.15-.09-2.22-.192-3.283-.145-1.485-.226-2.99-.557-4.437-.66-2.894-2.592-4.912-5.116-6.245-1.55-.822-3.328-.662-4.466 1.183-1.35 2.183-2.776 4.33-2.875 7.03-.016.42-.22.836-.232 1.255-.02.935-.314 1.557-1.256 1.975-1.066.474-1.5 1.485-1.426 2.653.047.736.096 1.493.277 2.206.246.96.7 1.82 1.804 2.044zm6.394-10.62c.01-.044.372-.1.472-.02.55.427.715 1.07.608 1.696-.265 1.54-.62 3.072-.95 4.602-.018.077-.167.192-.212.175-.166-.06-.427-.15-.448-.262-.11-.617-.16-1.244-.282-2.313.21-1.022.497-2.453.81-3.878zm65.69 18.46c.534.353.993.82 1.524 1.174 1.09.733 2.29.674 3.2-.31.64-.692 1.173-1.535 1.555-2.397.642-1.46 1.15-2.985 1.677-4.496.254-.723.518-1.4 1.294-1.723 1.53-.637 1.76-2.055 1.966-3.43.203-1.35-.245-2.635-1.222-3.49-.704-.612-1.17-1.12-1.136-2.08.12-3.41-1.592-6.14-3.41-8.803-.276-.405-.805-.78-1.276-.88-1.28-.268-2.57-.234-3.622.73-.866.795-1.725 1.6-2.555 2.43-1.18 1.184-1.78 2.69-1.96 4.304-.293 2.646-.437 5.313-.695 8.624.11.734.363 2.096.504 3.47.304 2.96 1.677 5.244 4.158 6.882zm-.92-19.74c.26-.46.58-.892.918-1.294.117-.14.46-.277.555-.208.21.144.478.437.46.642-.13 1.198.033 2.34.404 3.482.28.866.256.907-.835 1.525-.57.324-.686.738-.584 1.32.064.38.565.77.066 1.13-.235.173-.608.143-.892.27-.672.293-.94 1.05-.53 1.546.406.49.87.935 1.315 1.397.946.978.946.974-.135 1.732-.175.126-.328.28-.5.403-.62.444-1.137.22-1.254-.587-.107-.74-.162-1.49-.2-2.24-.033-.64-.007-1.28-.007-2.242-.122-2.172-.04-4.626 1.22-6.87zm-23.748 8.86c-1.698.166-3.4.295-5.088.53-.945.13-1.877.4-2.787.69-.387.123-.727.43-1.058.693-.567.446-.51 1.312.185 1.52 1.114.33 1.867.855 2.05 2.08.06.398.337.78.576 1.133 1.02 1.493 2.764 1.766 4.16.66.68-.536 1.287-1.144 1.51-2.01.254-.976.653-1.695 1.77-1.99.5-.137.844-.863 1.24-1.3-.14-.427-.18-.768-.347-1.013-.523-.77-1.284-1.088-2.21-.995zm-3.648 4.913c-.272-.155-.427-.245-.587-.333.188-.196.358-.416.576-.57.036-.033.384.228.368.283-.073.222-.23.416-.355.62zM44.838 46.245c1.59 1.048 3.387 1.166 5.218.93.715-.09 1.047-.675 1.296-1.277.28-.683.043-1.285-.454-1.728-.384-.338-.867-.648-1.355-.766-.824-.194-1.685-.224-2.685-.34-.594.065-1.336.113-2.067.225-.723.113-1.22 1.024-.894 1.732.213.456.533.953.942 1.22zm9.07 10.644c-1.696 1.193-3.03 2.627-2.992 5.123.163.27.35.78.7 1.11.4.37 1.426.287 1.772-.118 1.156-1.362 2.328-2.733 2.726-4.546.117-.526.005-1.053-.427-1.446-.408-.367-1.288-.472-1.78-.125zM47.97 33.996c.318.215.8.24 1.21.267.634.05 1.213-.54 1.244-1.5-.085-.197-.188-.762-.516-1.107-1.024-1.07-2.117-2.072-3.218-3.06-.304-.276-.715-.45-1.104-.607-.42-.165-.896-.095-1.13.29-.196.322-.374.83-.254 1.136.747 1.928 2.087 3.413 3.77 4.58zM59.804 22.04c.356.2.787.492 1.125.425.343-.07.667-.484.895-.82.165-.244.163-.604.205-.78.002-1.443-.783-4.303-1.43-5.344-.304-.49-1.11-.72-1.714-.472-.555.23-.79.69-.802 1.26-.046 1.868.693 3.538 1.34 5.232.07.19.21.408.38.5zm21.445 3.165c1.516-.752 2.43-2.054 3.04-3.59.036-.095.016-.214.034-.515-.173-.2-.38-.626-.717-.776-.344-.158-.9-.206-1.214-.032-1.348.738-2.368 1.837-2.953 3.27-.204.5-.178 1.057.3 1.464.46.39 1.023.418 1.508.18zm.207 13.654c.008.334.363.832.68.952.686.25 1.442.306 2.317.47.82-.23 1.756-.41 2.62-.77.304-.122.59-.678.586-1.037-.007-.34-.332-.766-.637-.992-.32-.24-.81-.434-1.184-.38-1.264.19-2.52.447-3.743.8-.3.084-.648.632-.64.957z"/></svg>