<svg xmlns="http://www.w3.org/2000/svg" width="128" height="128" viewBox="0 0 128 128"><path d="M119.927 91.872c-.284-.323-.604-.608-.902-.917-1.08-1.118-1.925-2.23-1.003-3.936.33-.605.207-1.47.224-2.22.032-1.287.01-2.575.01-3.86h-.11c0-1.613.13-3.234-.027-4.827-.308-3.118-1.11-6.072-2.964-8.717-1.597-2.276-3.563-3.235-6.333-2.752-1.1.195-1.733.693-2.133 1.664-1.647 3.965-2.903 8.058-3.807 12.248-.245 1.13-.186 2.34-.142 3.51.023.543.503.93 1.05 1.092.583.173 1.423-.14 1.698-.644.2-.373.348-.78.5-1.175 1.202-3.11 1.878-6.357 2.486-9.618.24-1.27.464-2.543 1.357-3.54.147-.163.547-.146.82-.118.075.006.213.39.156.54-.46 1.2-.958 2.387-1.448 3.576-.258.626-.4 1.324.096 1.818.853.845.917 1.957 1.038 2.976.13 1.124.71 1.955 1.124 2.917.39.91-.067 2.164.285 3.106.367.984.416 1.808.15 2.78-.133.48.022 1.042.05 1.567.037.797-.23 1.05-.89.784-.893-.36-1.813-.685-2.65-1.152-2.897-1.62-5.765-3.296-8.64-4.96-.417-.242-.526-.62-.318-1.082.77-1.682 1.107-3.473 1.155-5.298.064-2.464.013-4.933.02-7.4.008-1.32-.35-2.546-.918-3.716-1.247-2.567-2.83-3.356-6.14-2.34-.402.123-.77.372-1.14.592-1.716 1.02-2.947 2.473-3.747 4.29-1.135 2.556-2.096 5.158-2.176 8.01-.02.826-.39 1.152-1.178 1.18-.965.03-1.93.046-2.897.028-1.475-.027-1.76-.323-1.563-1.71.428-2.993.212-5.96-.018-8.965-.31-4.002-2.833-6.302-5.64-8.518-.38-.3-.863-.198-1.178.124-.52.533-1.024 1.094-1.442 1.71-.837 1.247-1.596 2.544-2.415 3.8-.23.354-.523.674-.843.95-.096.083-.495.02-.537-.07-.307-.676-.533-1.388-.832-2.068-.384-.878-.177-1.588.328-2.39 1.198-1.907.914-2.382-1.272-2.436-.425-.01-.857-.013-1.283.01-.867.044-1.48.797-1.067 1.535.946 1.696.588 3.304-.052 4.94-.068.18-.264.31-.4.465-.16-.14-.4-.25-.467-.427-.902-2.41-2.66-4.395-3.414-6.886-.206-.678-.837-.955-1.544-.788-.93.22-1.87.437-2.785.715-1.054.32-1.873.942-2.505 1.89-1.27 1.914-2.114 3.998-2.413 6.244-.436 3.29-.805 6.594-.547 9.933.134 1.713.082 1.762-1.476 1.856-.776.048-1.507.15-2.11.643-.53.435-1.146.51-1.773.656-1.256.297-2.442.798-3.487 1.584-1.387 1.043-2.955 1.712-4.57 2.315-2.11.784-4.185 1.65-6.3 2.42-3.014 1.1-6.094 2.04-9.07 3.246-3.885 1.57-7.828 2.9-11.93 3.776-.415.09-.842.166-1.24.314-1.01.373-1.502 1.168-1.414 2.257.034.428.095.86.205 1.27.213.795.736 1.34 1.568 1.4 1.603.117 3.218.25 4.76-.413 1.42-.613 2.86-.677 4.378-.34 1.147.255 2.337.313 3.513.402.857.063 1.536-.572 1.725-1.535.04-.207.02-.427.015-.642-.006-.523.304-.808.77-.816 1.825-.027 3.65-.008 5.473-.014 1.285-.003 2.58.046 3.858-.048 1.454-.107 2.118-1.084 1.958-2.682-.08-.79.05-.956.654-.91 1.92.142 3.84.31 5.762.38.617.02 1.27-.168 1.856-.387.664-.246.95-.833.928-1.54-.02-.783-.57-1.54-1.266-1.665-.526-.094-1.067-.09-1.6-.14-.838-.074-1.68-.155-2.52-.234.63-.74 1.58-.197 2.264-.55 1.232-.635 2.504-.44 3.782-.415 1.824.034 3.648.075 5.47.048 1.055-.016 1.44-.465 1.57-1.613.02-.21-.06-.428-.043-.64.033-.478.3-.844.778-.833 1.283.026 2.56.165 3.844.188 5.9.105 11.798.197 17.702.267 2.25.028 4.505-.027 6.756-.02 1.928.006 3.86.05 5.792.076 1.792.96 3.568 1.952 5.38 2.876 1.923.978 3.683 2.165 5.335 3.56.97.818 2.11 1.468 3.242 2.058 2.757 1.43 5.547 2.81 8.35 4.153 1.25.6 2.583 1.03 3.85 1.597 1.224.547 2.466.555 3.776.496 1.205-.053 2.008-.572 2.717-1.448 1.01-1.248 1.033-2.242.003-3.416zm-86.64-3.142c-.287.02-.586.088-.863.03-.297-.065-.27-.26.064-.3.277-.036.565.026.864.046-.035.122-.045.224-.064.224zM95.18 66.355c-.142.398-.32.8-.564 1.14-.713 1.004-1.28 2.006-.49 3.228-.252 1.04.194 2.16-.052 3.083-.29 1.09.323 1.864.328 2.78.005.694.87 1.336.12 2.06-.604-.163-1.237-.26-1.806-.507-.578-.25-1.112-.62-1.628-.983-.46-.325-.69-.808-.67-1.38.136-3.49.963-6.756 3.2-9.535.24-.296.676-.43.927-.58.267.095.414.1.453.17.092.16.227.384.18.523zM8.5 78.688c0 1.397-.015 2.79.004 4.186.01.533.053 1.073.155 1.596.16.832 1.244 1.45 2.003 1.12 1.28-.56 2.528-1.187 3.415-2.333.412-.53.76-1.173.4-1.77-.56-.913-.31-1.53.308-2.275.3-.355.418-1.035.322-1.508-.158-.784-.06-1.465.213-2.187.097-.256.068-.693-.095-.89-.493-.59-.316-1.133-.165-1.784.11-.467.008-1.088-.23-1.515-.46-.82-.287-1.51.362-1.99 1.28-.943 1.77-2.06 1.17-3.58-.02-.054.095-.185.177-.242.06-.043.21-.064.245-.027.288.303.666.582.816.947 1.62 3.977 3.144 7.98 3.33 12.34.023.536.023 1.076.098 1.605.154 1.1.97 1.722 2.074 1.347.79-.27 1.394-.27 2.087.15.245.146.665.186.93.08 1-.406 2.032-.56 3.094-.684.783-.088 1.346-.752 1.406-1.542.076-.96 0-1.936.13-2.886.475-3.492.962-6.983 1.917-10.387.037-.135.25-.327.365-.316.194.02.427.14.548.288.98 1.218 1.36 2.653 1.43 4.18.062 1.286 0 2.585.143 3.86.13 1.157.405 2.312.736 3.434.16.533.76.8 1.313.704.38-.064.873-.302 1.03-.608.278-.546.575-1.257.45-1.803-.438-1.91-.355-3.84-.44-5.76-.086-1.865-.662-3.565-1.5-5.21-.558-1.11-1.475-1.863-2.527-2.39-1.3-.65-2.78-.78-3.998.045-1.774 1.205-3.293 2.663-3.68 4.99-.23 1.363-.71 2.69-1.153 4.008-.27.8-.668 1.56-1.053 2.318-.08.16-.348.223-.53.33-.095-.17-.214-.33-.276-.513-.067-.2-.058-.427-.122-.632-1.038-3.373-1.9-6.827-4.14-9.685-.33-.426-.17-.842.116-1.162 1.49-1.645 1.728-3.623 1.594-5.714-.015-.213-.01-.43-.013-.644-.03-2.315-.786-4.423-1.922-6.392-.304-.525-.81-1.127-1.346-1.286-1.722-.512-3.505-.453-4.768.996-2.758 3.168-4.142 6.45-2.206 10.923.467 1.08 1.39 2.025 1.602 3.127.238 1.23-1.416 1.754-1.73 2.915-.11.408-.383.77-.518 1.176-.894 2.645-1.69 5.312-1.568 8.158.043.963.01 1.93.01 2.896H8.5zm6.825-24.872c.164-.85.783-1.488 1.13-1.312.56.28.494.86.66 1.34.463 1.318.63 2.677.516 4.06-.04.512-.137 1.062-.37 1.51-.23.437-.623.827-1.027 1.124-.277.203-.935-.608-1.035-1.365-.113-.837-.145-1.685-.224-2.656.1-.824.17-1.774.352-2.702zm43.13-7.942c.65.487 1.08.992 1.295 1.736.51 1.774 1.323 3.4 2.464 4.846.46.58.992 1.15 1.603 1.557 2.195 1.46 6.1 1.61 7.35-2.22.43-1.32.88-2.652 1.12-4.015.173-1.01.372-1.813 1.358-2.373.504-.286 1.006-.917 1.12-1.474.292-1.404.07-2.88-1.05-3.825-.84-.708-1.22-1.402-1.206-2.443.004-.64-.037-1.3-.19-1.92-.717-2.958-2.586-4.884-5.79-4.772-1.556-.237-2.903.565-4.066 1.785-1.525 1.6-2.44 3.54-2.86 5.67-.183.93-.58 1.457-1.314 2.032-1.882 1.477-1.802 3.938.164 5.42zm8.852-9.19c.344-.46.293-1.21 1.016-1.383.293.565.736 1.098.85 1.695.315 1.666.49 3.357.71 4.947-.21 1.502-.367 2.87-.604 4.228-.23 1.296-.493 1.678-.84 1.466-.578-.352-.247-.98-.454-1.4-.97-1.952-.597-4.156-1.232-6.18-.34-1.095-.21-2.352.55-3.368zm42.378 25.72c.1.27.387.532.656.67 1.436.734 3.744.174 4.546-1.198 1.406-2.4 2.49-4.954 3.38-7.595.718-2.13.575-4.222-.156-6.277-1.01-2.855-2.876-3.253-5.328-2.592-.7.19-1.362.63-1.954 1.073-.68.51-1.287 1.124-1.877 1.74-1.233 1.294-1.925 2.813-1.8 4.657.276 3.32 1.38 6.43 2.536 9.522zM111.78 50.1c.11-.09.455-.086.53.004.755.933 1.426 3.168 1.393 4.663-.025.175-.035.5-.11.81-.223.95-1.153 1.932-1.623 1.726-.672-.3-.816-.95-.965-1.573-.198-.83-.44-1.66-.53-2.504-.134-1.25.34-2.315 1.308-3.125zm-85.65 5.243c.047 1.1.476 2.052.965 3.014 1.102 2.16 5.58 2.55 7.104.08 2.02-3.28 1.897-6.715 1.31-10.21-.243-1.454-1.408-2.396-2.993-2.448-1.17-.04-2.347.017-3.517.115-1.03.09-1.823.683-2.254 1.594-.36.756-.63 1.59-.752 2.414-.126.835-.028 1.705-.028 2.653.053.864.125 1.824.164 2.784zm3.81-4.896c.018-.133.21-.245.324-.37.06.086.17.17.18.26.046.53.133 1.067.08 1.586-.093.87.336 1.822-.364 2.607-.128-.825-.256-1.65-.325-2.107.043-.914.05-1.447.107-1.973zm63.942 8.41c.562 1.268 2.187 1.63 3.23.714 1.275-1.12 2.59-2.224 3.048-4.01.183-.707.606-1.36.956-2.017.728-1.35 1.112-2.767.95-4.13 0-.5.015-.82 0-1.138-.17-3.344-2.53-4.904-5.76-3.864-1.886.607-3.132 1.878-3.724 3.68-.56 1.716-.82 3.496-.565 5.356.27 1.95 1.09 3.67 1.867 5.412zm2.195-10.596c.12-.15.348-.32.512-.307.164.015.403.213.46.382.643 1.99.65 3.942-.526 5.758-.13.203-.565.377-.783.31-.237-.07-.49-.41-.554-.677-.124-.508-.115-1.045-.163-1.57-.038-1.408.132-2.752 1.053-3.893z"/></svg>