<svg xmlns="http://www.w3.org/2000/svg" width="128" height="128" viewBox="0 0 128 128"><path d="M92.315 77.98c-.768-.364-1.6-.628-2.432-.807-1.357-.294-2.738-.476-4.11-.715-.454-.078-.78-.32-.853-.808-.314-2.01-.608-4.02-.945-6.03-.105-.614.166-.99.592-1.37 1.2-1.06 2.392-2.132 3.55-3.24.476-.458.797-1.093.607-1.753-.587-2.042-.672-4.23-1.81-6.112-.722-1.19-1.374-2.42-2.05-3.64-.886-1.584-1.85-3.133-2.625-4.77-.96-2.027-2.493-2.233-4.26-1.634-.593.2-1.136.6-1.63.998-.59.467-1.09 1.032-1.64 1.54-.38.35-.746.272-1.123-.042-1.966-1.65-3.72-3.57-6.09-4.704-.548-.26-.684-.794-.69-1.343-.015-1.29-.004-2.58-.004-3.86h.092c0-1.183-.02-2.36.008-3.54.026-.974-.414-1.67-1.248-2.07-2.215-1.07-4.41-2.215-6.99-2.13-.746.026-1.516-.002-2.242-.16-1.61-.35-3.17-.11-4.78.08-1.5.18-2.56.758-3.516 1.9-.75.9-1.134 1.728-.894 2.908.21 1.042.27 2.123.333 3.19.08 1.41.053 1.403-1.547 1.834-.72.198-1.473.356-2.134.69-2.126 1.067-4.47 1.45-6.685 2.242-.59.208-1.044.08-1.41-.39-1.708-2.19-3.423-4.38-5.107-6.59-.97-1.28-2.26-1.67-3.627-.766-.992.658-2.074 1.106-3.072 1.71-.9.55-1.722 1.27-2.47 2.023-1.284 1.29-2.452 2.7-3.726 4-2.83 2.88-2.497 4.275-.918 7.12.832 1.496 1.803 2.917 2.724 4.366.375.587.512 1.22.133 1.808-1.228 1.913-1.977 4.035-2.81 6.12-.215.544-.603.888-1.22.838-1.28-.104-2.555-.24-3.834-.345-2.608-.213-4.54 1.325-4.997 3.82-.844 4.575-.634 9.18-.423 13.787.048 1.054.585 1.845 1.648 2.123.927.242 1.87.437 2.82.565.74.1 1.497.06 2.247.085.72.023 1.203.386 1.48 1.037.212.49.436.98.612 1.486 1.415 4.077 3.195 7.954 6.095 11.225.07.08.18.17.18.258 0 .287.068.684-.086.84-1.04 1.074-2.326 1.903-3.026 3.3-.38.746-.365 1.413.107 2.104.69 1.003 1.637 1.692 2.7 2.23 1.26.637 2.33 1.482 3.275 2.54 1.43 1.612 3.035 3.01 5.073 3.866.664.282 1.202.864 1.793 1.312 1.404 1.08 3.485.94 4.647-.363 1.087-1.22 1.866-2.587 1.985-4.283.038-.55.712-.943 1.166-.788 2.956 1.013 6.004 1.472 9.104 1.838 2.355.277 4.686.597 7.034.282 1.294-.176 2.044.283 2.517 1.405.25.594.495 1.184.75 1.777.212.49.397.998.657 1.465.998 1.774 2.392 1.966 3.703.924.933-.74 1.944-1.29 3.024-1.788 2.036-.94 4.05-1.952 5.994-3.075 1.1-.634 2.127-1.46 3.033-2.352.802-.797 1.062-1.828.405-2.94-.488-.828-.887-1.71-1.325-2.57-.254-.5-.325-1-.017-1.52 1.214-2.026 2.59-3.932 4.285-5.596.336-.327.71-.43 1.16-.278.61.21 1.23.376 1.828.61 1.806.714 3.57.45 5.335-.16.973-.332 1.637-.945 2.04-1.9.33-.786.732-1.54 1.13-2.297 1.755-3.317 2.93-6.88 4.315-10.357.117-.294.224-.605.286-.92.358-1.882-.37-3.412-2.1-4.234zm-6.135 6.96c-.603 1.013-1.196 2.035-1.846 3.016-.515.782-.544 2.103-1.61 2.23-.748.09-1.596-.48-2.37-.82-1.468-.64-2.714-.263-3.824.77-.39.362-.74.773-1.088 1.178-2.466 2.846-5.024 5.568-8.42 7.364-1.263.667-1.506 1.568-1.054 2.98.29.913.676 1.797 1.052 2.678.283.658 1.352 1.125.922 1.875-.317.556-1.22.784-1.865 1.147-.467.26-.973.465-1.408.773-1.25.885-1.668.658-2.5-.698-.445-.725-.978-1.4-1.51-2.07-.29-.358-.736-.532-1.1-.153-1.223 1.264-2.74 1.556-4.413 1.507-1.282-.037-2.547.05-3.826.344-1.124.257-2.367.305-3.505.12-2.848-.46-5.675-1.07-8.494-1.7-1.14-.254-2.237-.717-3.35-1.09-1.287-.434-1.993-.274-2.828.78-.465.58-.82 1.243-1.23 1.875-.59.915-.78.92-1.693.13-1.136-.98-2.297-1.93-3.43-2.912-.6-.515-.59-1.178.01-1.61.69-.494 1.42-.942 2.097-1.456.395-.3.405-.677.043-1.077-1.503-1.653-2.78-3.473-4.548-4.94-1.817-1.514-2.936-3.68-3.42-6.063-.645-3.168-2.24-6.012-3.078-9.114-.155-.565-.535-.923-1.106-1.04-1.045-.21-2.097-.4-3.147-.595-.657-.12-1.03-.458-1.043-1.007-.058-2.353-.11-4.703-.16-7.057-.01-.36.533-.843.903-.717 1.774.592 3.566.576 5.396.337.862-.114 1.39-.512 1.648-1.29 1.29-3.894 3.467-7.344 5.458-10.885.29-.518.35-.958.02-1.483-.577-.9-1.068-1.853-1.662-2.738-.835-1.247-1.75-2.44-2.597-3.68-.73-1.068-.69-1.28.17-2.21 1.455-1.573 2.91-3.146 4.353-4.733 1.305-1.43 1.358-1.427 2.332.45.395.763.766 1.534 1.154 2.3.288.573.58 1.148.883 1.712 1.448 2.698 1.504 2.73 4.425 1.79 1.017-.332 2.02-.71 3.02-1.09 1.602-.607 3.203-1.18 4.906-1.495 1.678-.32 3.307-.893 4.975-1.27 1.458-.326 2.95-.51 4.413-.814.9-.186 1.096-.463 1.146-1.275.012-.212-.01-.43.016-.64.175-1.46-.387-2.98.356-4.39 1.345-.522 2.747-.116 4.116-.244.745-.066 1.5-.077 2.246-.053.467.018.802.305.832.8.075 1.284.123 2.57.184 3.855-.027.002-.053.002-.08.002 0 .752.09 1.515-.017 2.25-.33 2.262.99 3.748 2.585 4.793 2.92 1.92 5.29 4.328 7.38 7.067.262.34.48.717.76 1.038.947 1.07 2.703.99 3.218-.317.59-1.49 1.717-2.426 2.758-3.483.613-.626.934-.552 1.507.265.37.527.74 1.054 1.07 1.606 1.634 2.718 2.246 2.17-.273 4.764-1.045 1.074-1.96 2.274-2.9 3.44-.662.822-.812 1.667-.123 2.34 2.035 1.988 1.877 4.68 2.453 7.134.085.376-.147.82-.174 1.235-.124 1.814-.257 3.628-.316 5.443-.027.825.437 1.416 1.237 1.69 1.41.48 2.747 1.195 4.3 1.242.622.02 1.243.293 1.843.51.125.045.254.357.22.508-.068.307-.223.603-.387.878zm34.018-48.128c-.832-.747-1.852-1.333-2.854-1.36-2.586-.074-3.2-1.578-3.26-3.74-.02-.744-.185-1.488-.3-2.227-.113-.725.195-1.22.784-1.604 1.346-.874 2.673-1.78 4.02-2.65.868-.56 1.324-1.38 1.57-2.336.338-1.337.003-2.58-.744-3.67-.907-1.32-1.892-2.597-2.917-3.83-1.397-1.682-2.925-1.932-4.813-.742-1.445.914-2.802 1.97-4.194 2.965-.476.34-.997.423-1.496.123-2.056-1.23-4.216-2.072-6.67-1.984-.733.025-1.174-.45-1.41-1.1-.37-1.003-.667-2.035-1.09-3.017-.562-1.324-1.71-2.05-3.065-1.93-2.577.222-5.077.827-7.06 2.686-.934.882-1.368 1.824-.816 3.153.363.87.395 1.872.634 2.8.32 1.24 1.002 2.476.96 3.696-.044 1.213-.77 2.413-1.235 3.602-.384.992-.78 1.98-1.25 2.93-.67 1.355-1.813 2.046-3.326 2.162-.85.064-1.722.096-2.54.31-1.628.426-2.48 1.58-2.592 3.26-.107 1.628.174 3.21.67 4.746.58 1.803 1.92 2.73 3.85 2.773.538.007 1.07 0 .897 0 1.138-.08 1.572-.08 1.993-.148.988-.166 1.59.29 2.12 1.082 1.327 1.97 2.942 3.675 4.973 4.944.735.46 1.06 1.043.744 1.883-.5 1.334-.53 2.728-.49 4.12.037 1.33.706 2.198 1.983 2.614 2.38.78 4.832.928 7.302.722 1.162-.094 2.015-.76 2.385-1.867.27-.805.416-1.658.535-2.5.103-.74.02-1.507.165-2.235.068-.35.41-.795.732-.918 2.03-.792 3.805-1.952 5.374-3.445.366-.347.71-.414 1.1-.053.94.872 1.86 1.75 3.118 2.205 1.544.56 3.41.208 4.274-1.195 1.178-1.905 2.256-3.893 3.157-5.94.74-1.67.19-3.033-1.217-4.29zm-13.335 3.342c-1.698 2.608-4 4.11-7.173 4.117-2.933-.02-5.437-1.11-7.595-3.03-.31-.272-.587-.644-.73-1.026-.485-1.3-.956-2.61-1.338-3.94-.925-3.24-.25-7 1.75-9.732.754-1.035 1.583-2.02 2.433-2.983 2.352-2.667 7.712-2.898 10.357.216 2.283 2.69 3.888 5.733 3.934 9.28.036 2.428-.222 4.928-1.64 7.1zM70.865 65.78c-.695-2.14-1.368-4.285-2.073-6.42-.79-2.392-2.09-4.465-4.046-6.077-.57-.47-1.216-1.038-1.895-1.148-1.42-.23-2.61-.917-3.887-1.46-.584-.246-1.216-.507-1.835-.52-1.82-.047-3.672-.17-5.46.086-5.524.8-10.893 2.23-16.084 4.317-2.17.873-3.763 2.347-5.09 4.224-2.38 3.356-3.983 7.088-5.502 10.875-.68 1.7-1.4 3.29-.763 5.237.35 1.082-.003 2.378.253 3.51.708 3.132 1.494 6.25 2.66 9.25.307.79.723 1.576 1.248 2.234 2.335 2.925 4.707 5.82 8.033 7.723.555.316 1.156.65 1.553 1.13.817.976 1.88 1.31 3.047 1.605 4.798 1.227 9.59.62 14.385.067.21-.025.413-.107.62-.166 3.003-.866 5.716-2.396 8.43-3.877 2.312-1.26 4.03-3.148 4.88-5.745.332-1.006.906-1.933 1.314-2.918 1.567-3.77 2.868-7.612 2.783-10.405-.093-4.28-.21-7.157-1.92-9.707-.346-.516-.45-1.198-.647-1.81zm-4.393 22.147c-.29.442-.675.82-1.035 1.216-.635.693-1.097 1.6-2.16 1.77-.093-.842-.28-1.688-.26-2.527.076-3.112-1.514-5.394-3.903-6.973-2.677-1.77-2.635-2.73-4.88.82-.744 1.176-1.558 2.305-2.366 3.436-.035.05-.395-.02-.454-.12-.316-.547-.707-1.1-.5-1.79.124-.406.35-.788.438-1.2.178-.83-.156-1.57-.8-1.936-.785-.442-1.717-.354-2.386.224-.676.58-.89 1.442-.2 2.267.776.923.654 1.723.184 2.624-.05.096-.405.16-.466.1-.288-.31-.572-.643-.764-1.014-.922-1.81-1.81-3.634-2.717-5.453-.277-.558-.69-.715-1.31-.602-2.998.56-4.756 2.746-6.408 4.998-.403.55-.433 1.407-.544 2.137-.173 1.157-.254 2.33-.414 3.492-.067.493-.613.676-.94.35-2.986-3.003-4.652-6.666-5.098-10.822-.38-3.552-.115-7.07 1.685-10.3.155-.277.267-.585.36-.893 1.365-4.387 4.654-6.82 8.72-8.306 3.31-1.206 6.543-2.665 10.014-3.4 1.46-.305 2.93-.564 4.395-.847 1.135.065 2.142.42 3.07.98 1.67 1.003 3.05 2.234 4.097 3.965 2.644 4.375 4.315 9.063 5.066 14.095.412 2.748.736 5.51 1.088 8.27.267 2.017-.424 3.786-1.51 5.43zM99.565 27.54c-3.056.016-5.11 2.004-5.067 4.908-.083 3.575 2.778 5.438 5.086 5.38 3.15-.078 5.296-2.086 5.29-5.145-.007-3.02-2.218-5.157-5.31-5.143zM55.717 65.78c-.91-.445-1.093-1.14-1.167-2.066-.075-.942-.3-1.91-.657-2.784-.542-1.34-1.495-2.266-2.994-2.637-2.226-.555-4.034.015-5.39 1.82-.964 1.284-1.75 2.694-1.956 4.334-.087.697-.444 1.18-1.003 1.553-.266.177-.554.337-.78.558-.827.8-.96 1.918-.34 2.915.223.36.46.825.804.97 1.038.44 1.288 1.314 1.608 2.247.307.904.712 1.813 1.266 2.58.612.854 1.338 1.712 2.202 2.278 2.43 1.594 4.878.775 5.992-1.935.363-.88.576-1.83.768-2.766.248-1.184.642-2.23 1.728-2.927.68-.437.913-1.154.915-2.11.014-.724-.112-1.6-.997-2.034zm-4.593 7.304c-.14.33-.573.546-.885.796-.05.037-.205-.015-.288-.064-.087-.055-.224-.178-.21-.224.175-.49.34-.988.576-1.448.42-.82.67-1.568-.315-2.212-.15-.1-.17-.557-.1-.81.204-.74.335-1.447-.097-2.156-.986-1.603-.448-3.066.472-4.464.156-.24.472-.387.747-.512.043-.02.262.288.37.464.584.95.622 2.02.64 3.088.008.533 0 1.064 0 1.75.174 1.902-.134 3.892-.913 5.79z"/></svg>