<svg xmlns="http://www.w3.org/2000/svg" width="128" height="128" viewBox="0 0 128 128"><path d="M110.014 82.95c-.446-.283-.82-.692-1.18-1.087-1.372-1.53-2.993-2.745-4.633-3.966-2.675-1.99-5.562-3.616-8.412-5.315-2.112-1.26-4.08-2.758-6.096-4.173-.468-.333-.49-.855-.058-1.367 2.994-3.536 4.576-7.717 5.502-12.176.46-2.214.645-4.477.117-6.71-.74-3.135-1.756-6.177-3.117-9.104-.72-1.55-1.365-3.134-2.077-4.69-.174-.383-.396-.778-.694-1.068-1.312-1.265-2.57-2.61-4.013-3.712-5.17-3.947-11.023-6.544-17.216-8.435-4.05-1.236-8.028-1.014-11.972.418-2.41.878-4.856 1.67-7.204 2.692-2.25.98-4.674 1.594-6.676 3.12-1.533 1.166-3.12 2.26-4.65 3.434-.405.316-.712.78-1.016 1.214-2.248 3.175-3.816 6.69-5.117 10.336-.284.8-.44 1.65-.65 2.475-.612 2.43-.41 4.906-.43 7.794.04.86.1 2.15.156 3.436.01.208.102.52 0 .607-.2.174-.6.39-.754.303-.933-.525-1.8-1.163-2.723-1.7-.908-.527-1.564-.35-2.21.54-.436.606-.82 1.26-1.25 1.87-.49.7-.993 1.388-1.526 2.05-.085.11-.363.086-.552.07-.06-.003-.15-.17-.156-.263-.032-.636-.133-1.283-.048-1.902.073-.514.405-.986.555-1.495.287-.97-.246-1.633-1.32-1.7-.32-.018-.643-.007-.965 0-.932.022-1.797.844-1.145 2.017.26.47.53.963.62 1.476.09.5-.015 1.05-.095 1.566-.03.178-.215.38-.384.48-.394.23-.57-.146-.692-.383-.88-1.71-1.73-3.434-2.594-5.15-.245-.486-.806-.78-1.33-.615-2.932.924-5.107 2.646-5.836 5.772-.218.93-.334 1.9-.37 2.856-.072 2.146-.107 4.293-.072 6.44.015.95.162 1.92.38 2.852.268 1.133 1.025 1.714 2.21 2.042 2.093.576 4.257.49 6.35.915 1.034.21 1.89.16 2.674-.576.516-.488 1.184-.522 1.82-.398 3.04.597 5.966-.256 8.927-.65 1.193-.16 1.92-.9 2.286-2 .166-.504.227-1.045.384-1.552.085-.28.27-.525.412-.787.248.195.523.364.74.59 1.18 1.24 2.204 2.683 3.548 3.71 4.376 3.33 9.14 6 14.404 7.683 1.632.523 3.317.796 5.067.747 2.354-.06 4.734-.16 7.06.096 1.84.205 3.61-.023 5.41-.07 1.663-.042 3.14-.6 4.56-1.367 1.135-.61 2.23-1.28 3.355-1.907 1.5-.832 1.74-.76 2.58.59 1.13 1.82 2.234 3.66 3.43 5.43 3.003 4.436 6.13 8.788 9.398 13.037.856 1.11 1.69 2.212 2.74 3.136 2.098 1.835 4.257 3.61 5.793 5.99.06.09.13.17.198.253.454.532 1.05.69 1.725.682.784-.01 1.45-.288 2.072-.764.587-.448 1.165-1.018 1.845-1.23 1.19-.373 2.05-1.11 2.887-1.956.83-.843 1.66-1.69 2.58-2.42 2.513-2 4.246-4.486 5.174-7.57.246-.82.156-1.427-.338-2.08-2.25-2.984-4.105-6.304-7.38-8.384zM87.54 53.52c-.266 4.99-2.348 9.052-6.27 12.158-1.172.932-2.367 1.835-3.555 2.74-.373.286-.86.113-.973-.358-.348-1.456-.754-2.9-.66-4.433.05-.853.022-1.72-.067-2.573-.39-3.7-2.566-6.002-5.9-7.34-.554-.22-1.087.063-1.41.518-.87 1.22-1.68 2.483-2.54 3.712-.24.34-.55.65-.876.912-.094.072-.45-.02-.537-.14-.472-.658-.472-1.41-.27-2.154.195-.715.486-1.408.676-2.126.127-.498-.31-1.17-.803-1.216-.74-.07-1.49-.085-2.23-.062-.517.02-.99.623-.918 1.12.06.416.095.878.296 1.227.655 1.11.517 2.274.35 3.445-.022.143-.218.28-.362.377-.053.032-.228-.04-.285-.114-.257-.336-.534-.67-.728-1.05-.878-1.708-1.73-3.434-2.603-5.143-.214-.416-.593-.606-1.053-.592-1.102.034-2.155.34-2.992 1.028-.992.815-1.91 1.74-2.745 2.71-.394.46-.618 1.12-.772 1.723-.446 1.77-.78 3.557-.66 5.403.048.747.01 1.502.01 2.254.01 2.35-.31 4.72.464 7.024.08.24-.373.62-.623.53-.498-.174-1.026-.314-1.474-.576-3.307-1.934-5.84-4.67-8.02-7.77-.308-.437-.54-.944-.897-1.333-2.868-3.135-3.056-6.957-2.78-10.88.428-6.01 3.183-11.04 6.813-15.66.656-.838 1.517-1.516 2.302-2.243.704-.65 1.45-1.26 2.15-1.913 5-4.7 10.992-6.443 17.728-5.95.422.03.834.187 1.25.29 2.604.644 5.092 1.643 7.534 2.71 1.146.496 2.168 1.377 3.098 2.245 2.19 2.045 4.33 4.154 6.414 6.31.955.99 1.885 2.02 2.226 3.472.91 3.86 1.903 7.696 1.685 11.715zm23.127 42.062c-1.272 1.423-2.615 2.8-4.058 4.048-.986.853-2.19 1.323-3.55.615-.24-.123-.636-.032-.93.053-.46.14-.814.15-1.028-.363-1.85-4.395-4.848-8.04-7.677-11.797-.514-.683-1.016-1.38-1.45-2.112-.116-.19-.067-.683.084-.79 1.377-1 2.767-1.99 4.217-2.88.392-.238 1.007-.175 1.515-.138.29.02.608.224.843.427 2.194 1.933 4.853 3.112 7.34 4.565 2.07 1.21 3.533 3.07 5.108 4.8.313.344.3.987.467 1.603-.276.645-.418 1.45-.88 1.97zm9.542-28.03c-.215-1.585-.335-3.183-.527-4.77-.14-1.164-.258-2.337-.514-3.48-.364-1.625-1.278-2.93-2.653-3.884-.614-.427-1.254-.82-1.893-1.203-.68-.405-1.22-.346-1.675.286-.935 1.3-1.8 2.65-2.74 3.954-.14.195-.6.363-.78.272-.23-.11-.437-.494-.45-.768-.016-.515.077-1.045.194-1.555.113-.516.336-1.008.46-1.523.112-.475-.353-1.095-.863-1.153-.526-.062-1.063-.103-1.59-.064-.885.064-1.37.77-1.013 1.557.49 1.085.997 2.14.69 3.376-.025.102-.025.213-.053.313-.032.103-.096.282-.13.28-.194-.02-.485-.025-.555-.146-.97-1.643-1.92-3.307-2.86-4.968-.59-1.05-.91-1.257-2.005-.923-.698.217-1.41.518-1.984.955-.763.575-1.39 1.328-2.087 1.99-.647.62-1.003 1.366-1.09 2.257-.22 2.23-.455 4.46-.684 6.688.004 1.946.084 3.85.63 5.728.26.908.755 1.543 1.702 1.7 2.526.418 5.056.813 7.59 1.183.3.043.734.008.917-.177 1.263-1.257 2.66-1.042 4.155-.55.48.158 1.073.094 1.59.008 1.997-.33 3.982-.74 5.978-1.07 1.09-.178 1.656-.845 2.042-1.802.33-.83.318-1.647.198-2.514zM15.39 49.516c.453 1.227 1.308 2.203 2.334 2.997 1.845 1.43 4.416.907 5.45-1.15.378-.75.585-1.6.775-2.427.267-1.163.667-2.15 1.632-3 1.37-1.197 1.216-2.403-.29-3.71-.433-.378-.725-.72-.798-1.29-.094-.735-.177-1.485-.387-2.193-.712-2.396-1.722-3.123-4.373-3.117-1.603-.117-2.884.686-3.717 2.248-.4.752-.912 1.495-1.088 2.306-.268 1.232-.927 2.07-1.84 2.884-1.003.892-1.067 1.937-.075 2.776 1.202 1.013 1.854 2.26 2.38 3.675zm5.424-10.605c.14-.24.317-.24.45.047.262.568.62 1.13.72 1.728.153.94.12 1.902.202 3.517-.107.826-.272 2.296-.503 3.756-.066.405-.28.813-.516 1.152-.167.238-.492.365-.745.54-.06-.275-.22-.58-.152-.817.15-.504.437-.96.636-1.455.07-.177.127-.518.045-.576-1.337-.933.074-2.39-.72-3.49-1.135-1.57-.203-3.007.584-4.398zm80.208 6.384c1.205.815 1.472 2.01 2.052 3.115.444.847.898 1.727 1.53 2.42.555.61 1.307 1.125 2.07 1.425 1.684.66 3.248.07 4.077-1.51.44-.84.72-1.777.96-2.7.3-1.14.633-2.148 1.65-2.97 1.11-.9 1.056-2.393-.06-3.324-.828-.684-1.227-1.38-1.216-2.43.006-.517-.158-1.053-.33-1.55-.677-1.94-1.798-2.75-3.806-2.79-1.98-.043-2.943.41-4.026 2.07-.523.794-1.08 1.65-1.287 2.55-.25 1.102-.743 1.87-1.596 2.603-.96.82-1.047 2.4-.018 3.09zm6.8-5.605c.402-.893 1.02-1.514 1.233-1.196.288.42.552.907.657 1.395.2.932.286 1.887.42 2.836.035 1.752-.433 3.396-.91 5.038-.082.283-.332.544-.563.745-.11.09-.373.026-.555-.014-.085-.017-.22-.18-.203-.224.203-.492.456-.964.643-1.465.11-.288.264-.82.166-.883-1.394-.894 0-2.404-.833-3.484-.597-.77-.483-1.81-.056-2.752zm-38.63.157c-1.212-.463-1.413-1.46-1.422-2.596-.006-1.092-.32-2.12-.91-3.03-.534-.82-1.223-1.54-2.252-1.67-3.142-.39-4.23-.143-6.043 2.45-.422.604-.88 1.287-1 1.987-.265 1.565-.99 2.725-2.21 3.733-.87.722-.788 1.977-.066 2.9.13.167.245.377.42.478 1.09.64 1.558 1.65 1.926 2.816.496 1.553 1.49 2.822 2.723 3.897.847.738 1.812 1.114 2.957 1.03 1.307.1 2.288-.526 2.88-1.628.5-.927.945-1.938 1.14-2.964.29-1.51.708-2.776 2.04-3.776 1.132-.848 1.01-2.35.054-3.413-.067-.08-.146-.17-.24-.21zm-5.05 7.586c-.104.164-.504.142-.767.203-.038-.195-.15-.414-.1-.584.086-.303.276-.578.414-.867.136-.29.24-.6.39-.883.255-.46.11-.832-.24-1.13-.34-.295-.7-.634-.495-1.068.47-1.003.262-1.813-.352-2.685-.525-.743-.485-1.615-.02-2.437.315-.56.59-1.14.895-1.706.156-.293.54-.282.714.01.16.276.414.536.46.833.238 1.476.42 2.963.592 4.218-.267 2.264-.34 4.32-1.49 6.1z"/></svg>