<svg xmlns="http://www.w3.org/2000/svg" width="128" height="128" viewBox="0 0 128 128"><path d="M77.114 45.816c.09-.414.075-.853.08-1.28.016-2.14 0-4.28.045-6.42.07-3.758-1.715-6.51-4.637-8.66-.654-.483-1.45-.395-1.992.267-.4.498-.753 1.035-1.11 1.568-.655.978-1.282 1.975-1.955 2.937-.173.245-.457.54-.72.572-.615.077-.45-.548-.62-.87-.65-1.228-.79-2.42.21-3.557.135-.155.196-.38.273-.576.134-.337-.2-.9-.607-.956-.63-.08-1.27-.155-1.905-.155-.883.003-1.547.753-1.125 1.47.763 1.29.248 2.468.06 3.7-.016.108-.016.218-.052.317-.067.2-.157.393-.237.588-.26-.145-.644-.224-.767-.446-.97-1.78-1.903-3.58-2.82-5.39-.544-1.072-.81-1.236-1.968-.976-.523.115-1.024.33-1.547.42-1.393.23-2.283 1.058-2.94 2.25-.99 1.796-1.706 3.667-1.887 5.74-.314 3.528-.165 7.055-.05 10.585.01.21-.003.468.108.62.238.328.5.752.843.862.598.192 1.26.23 1.893.235 3.314.02 6.632.01 9.948.01 0 .046 0 .09.003.134 3.528-.11 7.058-.194 10.586-.335 2.072-.086 2.38-.26 2.895-2.646zm16.522 26.108c-1.383-1.187-1.937-1.144-3.038.463-.606.882-1.16 1.8-1.762 2.688-.094.136-.34.277-.48.25-.18-.036-.386-.213-.476-.382-.546-1.028-.496-2.01.144-3.024.306-.49-.077-1.05-.677-1.177-.31-.066-.634-.11-.95-.103-.788.02-1.287.527-1.04 1.203.31.843.448 1.662.146 2.5-.09.25-.384.46-.635.596-.08.043-.384-.166-.475-.324-.587-1.02-1.148-2.055-1.707-3.093-.248-.462-.356-1.062-.72-1.385-.566-.502-1.19.09-1.797.167-1.567.203-2.514 1.12-3.07 2.496-.403.99-.87 1.994-1.014 3.03-.427 3.09-.34 6.204-.085 9.306.03.328.428.787.748.893.697.23 1.457.347 2.196.373 1.496.053 2.997.016 4.5.016.004.07.01.14.013.207 3.735-.227 7.472-.446 11.208-.686.984-.06 1.205-.266 1.435-1.39.54-2.65.507-5.3.12-7.98-.272-1.92-1.136-3.408-2.585-4.648zM38.513 86.417c.006.068.01.14.013.207 3.738-.228 7.473-.45 11.21-.693.767-.047 1.04-.32 1.243-1.214.59-2.645.514-5.3.2-7.98-.255-2.18-1.343-3.785-2.983-5.12-.96-.787-1.62-.716-2.396.375-.68.96-1.295 1.97-1.957 2.943-.158.23-.29.647-.71.352-.166-.117-.32-.288-.413-.47-.546-1.06-.258-2.04.257-3.036.235-.45-.143-.81-.555-.977-.288-.117-.623-.156-.94-.168-1.002-.032-1.53.612-1.178 1.36.392.83.36 1.66.066 2.495-.064.17-.245.37-.413.418-.15.043-.448-.05-.518-.176-.73-1.3-1.463-2.606-2.118-3.947-.337-.697-.523-.934-1.483-.774-2.398.407-3.78 1.83-4.378 4.12-.053.206-.15.404-.2.61-.123.52-.32 1.04-.33 1.563-.05 2.89-.064 5.78-.066 8.672 0 .6.34 1.03.928 1.134.838.146 1.69.27 2.537.3 1.395.045 2.79.01 4.18.01zM71.15 109.78c-2.218-2.145-2.445-2.845-4.336.38-.11.185-.213.374-.346.542-.325.413-.644.834-1.013 1.205-.128.13-.936-1.413-.826-1.867.12-.512.393-.99.61-1.476.17-.388-.064-.576-.365-.697-.194-.075-.416-.098-.627-.11-1.27-.063-1.41.108-1.27 1.354.06.525.085 1.064.028 1.585-.032.28-.267.537-.405.804-.25-.146-.602-.23-.727-.45-.533-.927-.986-1.9-1.493-2.84-.58-1.075-.914-1.18-2.046-.964-1.248.238-2.195.83-2.714 2.01-.3.683-.66 1.36-.832 2.077-.676 2.837-.738 5.723-.48 8.62.092 1.025.553 1.436 1.723 1.452 2.356.032 4.713.01 7.067.01v.113c2.465-.075 4.93-.13 7.39-.227 1.386-.054 1.966-.51 2.047-1.923.117-2.027.16-4.07.03-6.094-.086-1.26-.42-2.542-1.415-3.5zm45.85 3.487c-.084-1.26-.42-2.542-1.415-3.5-2.21-2.127-2.443-2.834-4.335.406-.11.183-.216.373-.348.54-.328.41-.647.83-1.02 1.2-.122.123-.922-1.443-.812-1.888.128-.51.4-.986.617-1.474.176-.4-.088-.57-.382-.685-.194-.075-.416-.096-.627-.107-1.257-.064-1.38.11-1.26 1.365.065.627.02 1.267-.03 1.9-.015.165-.21.4-.37.45-.148.05-.458-.05-.532-.178-.58-1.022-1.107-2.07-1.67-3.1-.583-1.064-.913-1.168-2.055-.95-1.246.238-2.195.838-2.697 2.02-.336.783-.685 1.574-.885 2.395-.65 2.625-.643 5.3-.448 7.978.095 1.36.452 1.742 1.756 1.762 2.354.037 4.71.01 7.07.01v.112c2.463-.075 4.925-.13 7.386-.228 1.38-.053 1.956-.516 2.037-1.935.115-2.027.16-4.07.023-6.093zm-89.666-3.795c-2.187-2.016-2.155-2.052-3.738.29-.36.534-.693 1.086-1.08 1.6-.106.143-.42.3-.517.243-.25-.15-.493-.384-.63-.64-.49-.89.12-1.643.347-2.445.04-.146-.083-.432-.213-.514-.582-.357-1.218-.37-1.81-.047-.497.27-.297.716-.19 1.123.08.304.253.642.187.917-.12.51-.27 1.26-.62 1.41-.584.247-.736-.52-.97-.935-.425-.747-.803-1.517-1.214-2.27-.6-1.112-.81-1.163-2.003-.98-1.283.197-2.146.863-2.72 2.004-.678 1.355-1.186 2.76-1.212 4.29-.03 2.038-.052 4.08-.012 6.116.026 1.477.28 1.744 1.65 1.765 2.36.037 4.72.01 7.082.01 0 .04 0 .08.002.12 2.573-.09 5.146-.16 7.72-.276.918-.04 1.492-.518 1.513-1.35.056-2.464.085-4.93.02-7.395-.036-1.21-.666-2.185-1.59-3.04zm31.435-87.84c.59 1.734 1.45 3.365 2.942 4.53 2.027 1.59 5.17 1.893 6.626-1.492.503-1.17.867-2.427 1.098-3.68.165-.91.44-1.625 1.22-2.137.69-.453.94-1.137.91-1.94-.01-1.2-.038-2.384-1.273-3.09-.528-.3-.59-.842-.63-1.392-.054-.745-.06-1.51-.22-2.236-.607-2.72-2.732-4.27-5.384-4.013-1.233.118-2.26.666-3.1 1.54-1.213 1.263-2.063 2.73-2.44 4.458-.208.94-.516 1.74-1.378 2.42-1.5 1.18-1.536 3.218-.093 4.442.87.74 1.36 1.543 1.72 2.594zm5.78-9.21c.18-1.01 1.24-2.475 1.503-2.19.59.645.91 1.436.926 2.316.02 1.17.005 2.336.005 3.506-.015 1.466.306 2.99-.467 4.363-.09.155-.34.222-.524.31-.015.003-.128-.155-.156-.246-.702-2.21-.806-4.54-1.312-6.787-.09-.402-.05-.855.02-1.27zm-13.67 90.844c-1.9-1.557-3.737-3.192-5.603-4.79-.53-.453-.757-1.02-.683-1.7.117-1.06.256-2.117.294-2.438 0-1.387.052-2.032-.01-2.667-.127-1.335-.775-1.904-2.074-1.897-.536.003-1.07.018-1.603.064-1.064.092-1.62.832-1.562 1.99.105 2.027.17 4.053.29 6.077.057.96-.345 1.645-1.09 2.178-1.04.748-2.116 1.45-3.12 2.245-.748.59-1.462 1.244-2.08 1.968-.564.66-.38 1.737.255 2.325.572.53 1.367.635 2.067.21.638-.387 1.244-.83 1.87-1.24 1.413-.937 2.834-1.868 4.25-2.802l4.28 2.797c.09.06.173.126.252.2 1.27 1.165 2.933 1.163 4.483 1.414.994.16 1.78-1.075 1.387-1.983-.35-.808-.928-1.39-1.605-1.948zm11.146-41.7c-1.222.857-2.392 1.786-3.612 2.646-1.23.87-2.41 1.774-3.12 3.15-.257.494-.39.984.005 1.485.453.576 1.074.828 1.667.533.853-.424 1.683-.907 2.498-1.408 1.27-.78 2.517-1.606 3.78-2.397.618-.384 1.19-.253 1.772.16 1.477 1.05 2.96 2.09 4.477 3.085 1.042.683 2.022.3 2.624-.846.775-1.486.61-2.873-.273-4.237-.8-1.233-1.99-1.867-3.35-2.307-.925-.3-1.055-.518-1.002-1.344.128-1.913.288-3.823.44-5.733.093-1.104-.49-1.838-1.593-1.965-.213-.023-.424-.032-.64-.048-1.305-.02-2.067.448-2.404 1.657-.196.704-.24 1.467-.254 2.205-.02.957.035 1.92.098 2.878.072 1.04-.233 1.867-1.117 2.485zm20.028 3.56c.337.89.815 1.738 1.32 2.548.59.942 1.47 1.498 2.573 1.758 1.41.333 2.58-.046 3.225-1.352.465-.943.765-1.98 1.02-3.005.185-.747.468-1.358.995-1.947 1.09-1.222 1.265-2.28.376-3.408-.567-.718-.888-1.387-.98-2.27-.065-.63-.273-1.255-.498-1.852-.573-1.51-1.882-2.423-3.424-2.46-1.503-.018-2.723.577-3.49 1.87-.537.912-1.002 1.89-1.324 2.895-.23.727-.46 1.307-1.067 1.86-1.15 1.045-1.203 2.368-.118 3.32.683.596 1.082 1.223 1.392 2.04zm4.973-8.217c.098-.168.354-.418.435-.384.258.105.62.29.672.512.26 1.124.437 2.27.655 3.464-.236 1.222-.47 2.46-.713 3.696-.02.093-.117.17-.183.256-.064-.082-.16-.156-.192-.25-.25-.795-.533-1.584-.72-2.395-.19-.82-.23-1.67-.424-2.485-.214-.9.033-1.672.468-2.418zM37.353 65.99c.49.928 1.052 1.894 1.813 2.592 1.9 1.75 4.176 1.255 5.224-1.06.35-.766.554-1.61.722-2.44.156-.758.463-1.36.986-1.95 1.175-1.33 1.22-2.18.17-3.644-.388-.546-.635-1.055-.726-1.712-.105-.736-.284-1.474-.54-2.17-.558-1.518-1.875-2.43-3.41-2.46-1.518-.048-2.714.575-3.503 1.848-.503.813-.998 1.675-1.25 2.584-.27.947-.514 1.728-1.378 2.39-.87.665-.934 2.226-.103 2.863 1.11.85 1.407 2.053 1.994 3.157zm4.306-8.48c.21-.757.782-1.26.997-.978.242.316.46.693.544 1.077.2.93.316 1.874.484 2.95-.206 1.13-.427 2.377-.66 3.617-.022.093-.118.17-.182.258-.067-.064-.17-.117-.2-.197-.254-.688-.562-1.363-.72-2.073-.223-1.024-.383-2.072-.476-3.12-.045-.5.077-1.038.213-1.535zm53.47 47.394c-.54-.337-1.162-.53-1.75-.793-1.167-.526-2.342-1.037-3.497-1.584-.745-.353-1.085-.955-1.083-1.8.008-2.245-.035-4.49-.042-6.737-.002-1.314-.3-2.54-1.035-3.637-.478-.72-1.77-.683-2.182.073-.196.366-.39.775-.427 1.18-.128 1.38-.186 2.77-.27 4.155.054.003.108.004.163.006 0 .748-.048 1.5.01 2.245.09 1.148-.327 1.995-1.12 2.845-1.62 1.732-3.39 3.24-5.388 4.515-.787.5-.91 1.53-.42 2.266.417.634 1.172.853 1.972.413 1.4-.77 2.755-1.62 4.127-2.45 1.028-.618 2.022-.686 2.923.21.95.942 2.032 1.46 3.413 1.532.693.032 1.376.512 2.044.832.48.23.896.597 1.387.786.525.203 1.106.093 1.48-.333 1.333-1.518 1.28-2.727-.303-3.722zm-78.055-.798c.373.634.817 1.263 1.355 1.755 1.462 1.327 3.745.846 4.556-.928.267-.578.466-1.195.613-1.813.222-.932.42-1.803 1.196-2.528.677-.635.66-1.775.173-2.386-.865-1.077-.98-2.29-1.3-3.513-.46-1.77-1.48-2.468-3.25-2.464-1.4-.03-2.463.553-3.17 1.767-.16.276-.32.554-.47.834-.63 1.2-.768 2.61-1.83 3.65-.516.51-.477 1.558.053 2.086 1.024 1.02 1.38 2.364 2.075 3.537zm3.662-8.467c.05-.21.46-.367.73-.47.06-.02.337.283.36.455.136 1.056.224 2.117.328 3.14-.096.9-.17 1.748-.285 2.593-.02.147-.195.273-.298.41-.085-.066-.21-.117-.245-.203-.78-1.917-1.058-3.893-.59-5.923zm84.224 8.39c.348.644.83 1.27 1.394 1.728.55.446 1.283.665 1.51.775 1.58.115 2.41-.3 2.86-1.276.31-.673.563-1.388.72-2.108.206-.964.498-1.83 1.23-2.55.81-.794.78-1.786.113-2.613-.57-.71-.8-1.444-.93-2.315-.11-.72-.4-1.466-.8-2.07-.336-.5-.897-1.038-1.452-1.176-2.19-.545-3.415-.08-4.443 1.558-.285.45-.59.92-.725 1.425-.285 1.05-.693 1.976-1.507 2.762-.682.663-.746 1.726-.138 2.347 1.01 1.03 1.515 2.292 2.168 3.504zm3.418-7.85c.167-.38.423-.74.716-1.035.194-.2.853.53.907 1.088.08.85.108 1.704.163 2.658-.06.756-.11 1.61-.21 2.457-.02.162-.224.38-.384.422-.12.03-.42-.146-.448-.27-.303-1.456-.585-2.913-.834-4.38-.054-.303-.033-.667.09-.943zM63.08 92.31c-.59.107-1.226.434-1.656.85-.523.508-.942 1.176-1.237 1.846-.513 1.16-.748 2.415-1.814 3.325-.608.516-.536 1.78.07 2.36.882.845 1.364 1.87 1.88 2.93.362.756.922 1.43 1.48 2.07.59.68 1.41.936 2.31.88.956.04 1.69-.37 2.11-1.2.33-.66.61-1.37.757-2.092.218-1.078.544-2.03 1.378-2.82.595-.564.722-1.508.2-2.066-.965-1.03-.945-2.334-1.343-3.522-.715-2.144-1.952-2.95-4.134-2.564zm2.578 7.52c-.013.08-.135.915-.275 1.747-.015.08-.153.22-.196.206-.174-.056-.458-.134-.48-.25-.315-1.556-.625-3.114-.85-4.686-.053-.38.156-.83.35-1.195.114-.22.405-.392.658-.474.093-.03.366.244.424.423.157.5.305 1.02.355 1.537.06.636.015 1.28.015 2.687z"/></svg>