<svg xmlns="http://www.w3.org/2000/svg" width="128" height="128" viewBox="0 0 128 128"><path d="M124.237 56.078c.05-3.947-.92-7.612-2.682-11.134-1.496-2.987-3.584-5.3-6.6-6.78-1.307-.643-1.97-.61-2.773.517-1.117 1.573-2.144 3.21-3.225 4.808-.358.526-.75 1.032-1.168 1.513-.1.113-.525.13-.535.108-.277-.893-.936-1.71-.61-2.73.095-.304.287-.575.4-.876.747-2.004-.32-3.388-2.472-3.217-1.88.15-2.863 1.928-1.7 3.453.84 1.102.87 2.11.582 3.277-.04.165-.25.366-.42.407-.155.04-.436-.06-.527-.19-.428-.614-.862-1.233-1.196-1.9-1.107-2.2-2.15-4.426-3.275-6.614-.164-.315-.737-.715-.985-.64-1.422.435-2.8 1-4.195 1.52-2.45 2.262-4.806 4.6-6.39 7.594-1.744 3.292-2.473 6.837-2.597 10.515-.088 2.68-.016 5.365-.082 8.048-.02.893.332 1.87-.375 2.677-.643-.56-1.362-1.056-1.914-1.696-1.467-1.707-2.846-3.485-4.286-5.213-.96-1.15-1.92-2.308-2.962-3.384-.75-.777-1.46-.87-1.997-.52-.747.49-.74 1.23-.73 1.996.016 1.106.335 2.114.917 3.04.514.818 1.077 1.605 1.576 2.43.383.636.703 1.312 1.053 1.968-.705.705-1.58.317-2.38.332-.632.01-1.267-.174-1.904-.235-.527-.05-1.062-.084-1.59-.054-1.492.08-2.99.19-4.48.31-2.348.19-4.692.42-7.042.594-1.28.096-2.566.117-3.85.142-.19.004-.38-.164-.566-.252.09-.183.15-.39.277-.544 1.425-1.744 2.876-3.465 4.286-5.22.398-.495.718-1.066 1.004-1.633.395-.78.107-1.646-.68-2.246-.63-.48-1.502-.55-2.088-.05-.648.555-1.318 1.13-1.8 1.82-2.106 3.013-4.742 5.535-7.345 8.09-.383.377-.836.705-1.13 1.142-1.043 1.572-1.63 3.2-.656 5.08.966 1.86 2.376 3.273 4.04 4.5 1.727 1.266 3.375 2.644 5.112 3.892.946.682 1.995 1.226 3.025 1.78.513.277 1.044.12 1.52-.19 1.284-.833 1.49-2.24.39-3.244-1.74-1.59-3.543-3.112-5.314-4.665-.217-.188-.083-.664.226-.74.615-.148 1.235-.338 1.862-.38 1.605-.112 3.247.03 4.817-.255 3.194-.578 6.404-.574 9.62-.622.642-.008 1.285-.016 1.926-.058.624-.04 1.245-.12 1.867-.186.13.895-.685 1.19-1.13 1.688-.857.957-1.822 1.82-2.724 2.736-.526.535-1.053 1.077-1.514 1.666-.688.88-.67 1.94-.027 2.65.64.708 1.71.917 2.655.4.747-.406 1.453-.91 2.126-1.436 2.37-1.856 4.574-3.893 6.614-6.11.725-.79 1.474-1.56 2.263-2.285.28-.256.708-.346 1.067-.512.083.305.23.605.24.912.05 1.393-.002 2.794.107 4.182.076.95.26 1.912.566 2.813.47 1.387 1.682 2.13 2.955 1.99 1.446-.16 2.55-1.223 2.716-2.736.094-.85.053-1.714.046-2.573-.032-4.077-.043-8.155-.117-12.23-.055-2.92.44-5.776.947-8.62.3-1.677.87-3.317 1.8-4.79.055-.086.203-.216.23-.2.146.086.337.193.377.332.207.72.44 1.443.545 2.18.465 3.285.93 6.57 1.318 9.867.526 4.476.718 8.967.675 13.48-.05 5.15-.018 10.304.135 15.452.1 3.316.34 6.644.784 9.93.272 2.027.428 4.046.48 6.08.02.964-.035 1.935.027 2.897.12 1.807.203 3.624.48 5.41.22 1.414 1.32 2.258 2.67 2.38 1.41.12 2.602-.47 3.158-1.733.294-.67.485-1.434.512-2.162.05-1.39-.027-2.787-.096-4.18-.08-1.603-.29-3.205-.3-4.81-.027-4.827.016-9.658.037-14.485.002-.535-.02-1.084.085-1.602.053-.27.31-.594.56-.71.576-.262 1.192-.5 1.813-.594 1.25-.182 1.84.076 1.826 1.478-.025 2.253-.037 4.507-.01 6.76.036 3.434-.057 6.88.226 10.292.23 2.778.6 5.536.602 8.33 0 .524.127 1.068.302 1.564.413 1.173 1.733 1.88 3.14 1.694 1.206-.158 2.18-.977 2.25-2.31.117-2.14.37-4.272.507-6.41.066-1.07.14-2.166-.016-3.217-.846-5.652-.667-11.334-.54-17.02.023-.854.03-1.72-.073-2.567-.512-4.28-.39-8.555-.088-12.84.104-1.49-.04-2.997-.097-4.493-.053-1.39-.224-2.78-.194-4.165.074-3.32.223-6.64.375-9.958.038-.856.154-1.713.32-2.552.046-.224.395-.427.645-.55.073-.035.378.213.443.384 1.043 2.696 2.097 5.366 2.035 8.362-.116 5.792-.11 11.588-.15 17.382-.006.75-.043 1.508.035 2.25.154 1.404 1.42 2.61 2.803 2.668 1.315.06 2.973-.947 3.136-2.653.16-1.705.326-3.414.355-5.125.057-3.22.017-6.438.017-9.658h.08c.003-3.003-.028-6.005.012-9.013zm-89.555-18.01c-1.152-.586-2.03-.458-2.776.652-1.256 1.867-2.438 3.78-3.666 5.668-.17.264-.387.515-.634.71-.085.064-.412-.008-.476-.112-.727-1.158-.79-2.264-.258-3.63.77-1.983-.576-3.382-2.674-3.05-1.667.264-2.59 1.933-1.614 3.31.933 1.317.776 2.59.512 3.962-.018.09-.096.224-.163.24-.087.017-.224-.044-.288-.116-.215-.235-.47-.46-.6-.74-1.27-2.708-2.988-5.187-4.044-8.002-.207-.555-.646-1.016-1.186-.864-1.328.376-2.61.91-3.912 1.38-2.3 2.243-4.81 4.296-6.344 7.212-1.67 3.173-2.705 6.52-2.723 10.138-.03 6.22-.058 12.44-.07 18.66-.003 1.288.063 2.575.097 3.862.032 1.137.512 2.06 1.36 2.805 1.515 1.33 3.816.763 4.452-1.156.33-1.01.548-2.05.352-3.16-.187-1.05-.26-2.13-.272-3.197-.034-3.217-.128-6.44.017-9.653.15-3.31.547-6.615 1.507-9.81.333-1.113.885-2.162 1.378-3.22.066-.143.365-.18.563-.243.02-.006.13.155.144.245.38 2.54.783 5.075 1.11 7.62.478 3.716 1.1 7.42 1.085 11.184-.008 2.144.06 4.29.032 6.435-.095 6.972.31 13.93.604 20.89.026.64.11 1.28.18 1.92.428 3.828.967 7.647.957 11.514-.006 1.715.013 3.435.14 5.144.127 1.763 1.233 2.9 2.77 3.044 2.117.198 3.574-.973 3.63-3.1.06-2.357-.06-4.718-.066-7.077-.015-6.005-.017-12.014-.006-18.02.002-1.2.25-1.518 1.362-1.838.507-.148 1.044-.214 1.572-.262.58-.053.985.344 1.027.97.027.428.03.857.032 1.286.018 6.427-.184 12.86.61 19.265.266 2.123.332 4.27.556 6.397.143 1.373 1.26 2.25 2.684 2.243 1.55-.007 2.368-.65 2.645-2.15.194-1.05.426-2.112.45-3.172.064-2.787.04-5.58.018-8.365-.008-.742-.13-1.487-.207-2.23-.116-1.167-.34-2.332-.347-3.5-.03-6.967-.016-13.937-.016-20.906h-.014c0-7.08.002-14.157 0-21.234-.002-1.397-.047-2.798.592-4.1.09-.18.24-.45.38-.463.157-.016.418.18.495.348 1.166 2.545 2.154 5.2 2.183 7.992.045 4.495.318 9-.195 13.495-.206 1.805-.175 3.643-.145 5.465.014.722.23 1.474.507 2.15.463 1.134 1.46 1.494 2.613 1.497 1.152.003 2.07-.38 2.663-1.45.496-.897.516-1.84.52-2.81.03-7.722.01-15.444.128-23.167.05-3.43-.934-6.525-2.34-9.577-1.483-3.23-3.706-5.712-6.892-7.33zM95.87 25.78c.08.067.173.132.27.166.806.288 1.028.96 1.26 1.707.57 1.844 1.39 3.574 2.562 5.132 1.082 1.436 2.464 2.336 4.227 2.66 1.69.31 3.142-.06 4.345-1.358 1.297-1.4 1.922-3.16 2.106-4.932.207-1.96.865-3.303 2.54-4.437 1.56-1.056 1.297-3.93-.37-4.936-1.06-.645-1.443-1.377-1.486-2.553-.032-.946-.31-1.89-.538-2.82-.623-2.55-2.512-4.556-5.845-4.385-2.004-.093-3.682.336-5.41 2.8-1.043 1.482-1.9 3.112-2.23 4.922-.185 1.003-.553 1.69-1.42 2.34-2.48 1.855-2.428 3.73-.01 5.695zm9.667-8.196c.043-.862.002-1.724.56-2.453.126-.162.317-.37.483-.38.15-.006.335.22.45.384.18.26.4.538.46.837.244 1.255.47 2.518.637 3.788.08.63.015 1.282.015 1.845.053 1.8.02 3.51-.595 5.15-.036.095-.145.26-.164.253-.16-.06-.378-.117-.448-.245-.687-1.3-1.715-2.5-1.278-4.156.053-.194.048-.46-.045-.63-.775-1.458-.143-2.924-.075-4.39zM15.41 25.648c1.215.494 1.67 1.525 2.036 2.68.62 1.96 1.617 3.705 3.04 5.222 1.168 1.25 2.613 1.798 4.58 2.04 1.09-.052 2.418-.33 3.375-1.53.887-1.11 1.44-2.38 1.787-3.733.264-1.035.48-2.084.643-3.138.106-.695.426-1.186.986-1.567.352-.242.715-.475 1.045-.747.893-.74 1.257-1.722 1.14-2.853-.103-.992-.45-1.948-1.448-2.334-1.354-.524-1.654-1.51-1.578-2.803.075-1.205-.322-2.325-.747-3.424-.565-1.476-1.594-2.734-3.046-3.11-3.06-.792-5.977-.662-8.092 2.768-1.017 1.65-1.798 3.404-2.216 5.3-.145.667-.355 1.203-1.04 1.485-.287.117-.54.346-.77.565-1.618 1.53-1.668 3.107-.16 4.752.14.157.285.352.47.427zm9.434-8.66c.387-.752.71-1.537 1.058-2.31.256-.562.442-.115.594.06.877 1.004 1.31 2.166 1.276 3.514-.027 1.062-.005 2.13-.005 2.54.157 3.227.027 5.77-1.018 8.177-.21.48-.404 1.01-1.007 1.14-.194.04-.446.042-.604-.05-.14-.08-.29-.37-.246-.484.368-.883.765-1.756 1.184-2.616.33-.675.22-1.265-.35-1.703-.604-.463-.78-1.024-.47-1.666.482-.995.17-1.76-.37-2.657-.74-1.235-.732-2.61-.046-3.944z"/></svg>