<svg xmlns="http://www.w3.org/2000/svg" width="128" height="128" viewBox="0 0 128 128"><path d="M118.385 104.88c-.048-1.62-.53-3.26-1.57-4.48-1.094-1.286-2.514-2.304-3.837-3.383-.448-.363-1.06-.307-1.487.085-.464.43-.87.94-1.23 1.466-.79 1.146-1.51 2.344-2.313 3.48-.405.572-.542 1.414-1.423 1.556-.288-.57-.527-1.17-.87-1.704-.78-1.21-.97-2.363.13-3.493.145-.15.234-.358.332-.546.19-.363-.082-.96-.478-.99-.745-.06-1.493-.11-2.24-.103-.83.007-1.163.478-.856 1.234.283.69.77 1.356.51 2.128-.273.8-.667 1.562-1.072 2.304-.043.082-.678.022-.753-.12-1.14-2.176-2.234-4.373-3.332-6.566-.22-.437-.62-.668-1.04-.56-1.244.315-2.5.625-3.678 1.115-.655.273-1.27.82-1.707 1.394-.572.757-.984 1.646-1.408 2.505-.968 1.962-1.045 4.116-1.408 6.224-.446 2.577-.26 5.13-.207 7.69.026 1.313.677 1.866 2.065 1.953 1.604.102 3.213.123 4.813.252 1.382.11 2.752.394 4.134.47 2.674.147 5.354.2 8.03.286v-.08c2.575 0 5.148.005 7.72 0 .534-.003 1.07-.062 1.604-.072.774-.015 1.14-.512 1.355-1.15.134-.4.266-.827.266-1.242.01-3.216.047-6.434-.05-9.647zM52.192 55.568c2.776-.096 5.55-.288 8.328-.346 2.997-.062 5.998-.014 8.996-.014v-.1c3.214 0 6.427.006 9.64-.006.897-.002 1.268-.284 1.273-1.058.024-3.213.07-6.425-.02-9.635-.046-1.62-.52-3.255-1.557-4.485-1.088-1.295-2.49-2.334-3.79-3.44-.483-.407-1.318-.278-1.755.214-.423.477-.812.994-1.172 1.522-.843 1.24-1.653 2.5-2.492 3.744-.176.26-.384.515-.634.7-.102.07-.472-.005-.512-.1-.405-.98-.875-1.958-1.114-2.984-.216-.933.91-1.376 1.112-2.208.02-.1.096-.188.142-.286.168-.355-.06-1.028-.41-1.06-1.055-.086-2.116-.178-3.17-.145-.436.013-.722.498-.67.95.06.513.2 1.042.42 1.51.29.63.3 1.246.112 1.873-.242.814-.527 1.615-.793 2.42-1.075-.374-1.153-1.457-1.615-2.268-.638-1.116-1.216-2.268-1.923-3.332-.515-.77-.24-2.18-1.398-2.32-.89-.11-1.85.36-2.78.572-.104.02-.205.056-.308.083-1.43.37-2.517 1.196-3.174 2.513-.523 1.05-1.054 2.112-1.42 3.217-.85 2.56-1.002 5.246-1.155 7.906-.096 1.702.035 3.424.176 5.13.1 1.188.473 1.47 1.657 1.427zm-10.404 49.6c-.188-3.19-1.765-5.668-4.243-7.584-1.6-1.237-2.537-1.058-3.712.646-1.092 1.584-2.126 3.21-3.2 4.805-.29.433-.796.405-1.043-.02-.95-1.62-1.722-3.242-.222-4.98.128-.15.145-.395.208-.597.11-.347-.235-.978-.587-1-.746-.045-1.495-.095-2.24-.055-1.154.06-1.437.597-.96 1.635.22.477.61 1 .55 1.45-.157 1.153-.516 2.28-.83 3.406-.017.066-.426.136-.504.06-.37-.374-.77-.755-1.005-1.212-.982-1.9-1.905-3.825-2.86-5.74-.33-.658-.845-.868-1.583-.665-.72.2-1.436.416-2.155.62-1.294.364-2.264 1.116-2.99 2.266-.81 1.285-1.41 2.654-1.735 4.117-.72 3.24-1.14 6.52-.946 9.853.097 1.653.255 1.874 1.817 2.03 3.187.32 6.365.694 9.583.744 3.524.053 7.04.392 10.56.622.426.025.86.083 1.262.217 1.982.647 4.023.442 6.048.437.47-.002.81-.285.816-.79.016-1.603.006-3.21.006-4.814h-.018c0-1.812.085-3.638-.018-5.45zm43.98-15.803c-1.61-1.397-3.176-2.818-5.18-3.725-2.923-1.323-5.84-2.64-8.903-3.622-1.368-.44-1.52-.7-1.53-2.06-.014-2.25-.005-4.5-.005-6.747h.125c0-2.355-.015-4.71.007-7.067.01-1.105-.253-2.123-.81-3.063-1.025-1.732-4.492-2.195-5.968-.777-.288.277-.463.712-.604 1.104-.525 1.455-.463 2.928-.133 4.424.98 4.436.853 8.904.277 13.37-.043.333-.41.77-.732.898-3.776 1.49-7.563 2.948-11.364 4.373-1.11.417-2.187.81-3.043 1.7-.427.446-1.065.688-1.602 1.03-1.138.724-1.688 2.555-.94 3.65.916 1.345 2.007 2.56 3.935 2.137.625-.14 1.274-.19 1.877-.39 1.42-.473 2.876-.89 4.203-1.558 1.643-.83 3.365-1.356 5.11-1.844 1.652-.465 3.362-.88 4.71-1.95 1.285-1.016 2.556-.998 3.904-.457 1.38.554 2.825.99 3.977 2.036.462.42 1.054.732 1.635.984 1.685.735 3.165 1.778 4.61 2.89.506.386 1.045.738 1.6 1.056.267.15.62.288.907.245 2.66-.39 4.922-2.39 4.533-5.55-.045-.384-.302-.83-.6-1.086zm-66.192-3.498c.665.317.907.82 1.1 1.463.25.82.56 1.62.903 2.41.702 1.6 1.745 2.975 3.17 3.984 2.437 1.733 5.742 1.272 7.052-1.62.58-1.285 1.003-2.586 1.18-3.99.137-1.056.492-1.987 1.422-2.763 1.517-1.26 1.62-3.707.213-5.097-.75-.736-1.15-1.415-1.19-2.466-.038-.946-.26-1.91-.557-2.816-.844-2.57-2.588-3.77-5.622-3.79-1.61-.213-3.014.725-4.152 2.098-1.243 1.504-2.157 3.213-2.494 5.154-.158.916-.54 1.548-1.317 2.077-.495.336-1.02.927-1.123 1.482-.28 1.513-.284 3.067 1.42 3.877zm8.552-7.508c.026-.017.056-.023.085-.03l.104-.128c.02.006.048.008.073.013-.176-.78.267-1.374.622-1.995.05-.09.177-.232.21-.217.16.068.38.155.428.288.248.69.63 1.39.64 2.093.043 2.97-.015 5.94-.08 8.913-.014.512-.225 1.03-.408 1.52-.107.28-.34.512-.523.764-.25-.325-.578-.62-.733-.985-.158-.378-.177-.823-.208-1.243-.057-.754.83-1.61-.255-2.25.128-.486.18-1.008.398-1.45.395-.796.732-1.524.03-2.343-.144-.173-.093-.6 0-.864.175-.497.488-.945.67-1.44.315-.853-.353-.71-.794-.79.004.024.005.05.012.074-.064.016-.128.026-.19.044l-.174.213c.028-.064.04-.16.09-.188zm68.028 7.474c.632.32.973.752 1.148 1.427.188.724.46 1.43.747 2.124.67 1.615 1.713 2.96 3.015 4.12.93.828 2.088 1.2 3.247 1.23 1.424.04 2.767-.436 3.603-1.746.875-1.372 1.467-2.85 1.645-4.488.14-1.303.55-2.41 1.685-3.307 1.327-1.05 1.37-3.65.067-4.89-.864-.822-1.214-1.63-1.248-2.772-.025-.836-.262-1.69-.528-2.497-.856-2.606-2.556-3.822-5.493-3.858-1.795-.173-3.284.747-4.464 2.29-1.055 1.375-1.92 2.885-2.256 4.577-.223 1.13-.6 1.984-1.592 2.62-.414.266-.83.788-.912 1.258-.27 1.515-.335 3.06 1.34 3.915zm9.066-9.79c.282-.358.768-.348 1.016.055.46.74.742 1.532.74 2.413v3.523c-.02 1.795.304 3.642-.562 5.335-.077.15-.334.214-.518.293-.017.007-.16-.165-.16-.256.007-1.19-.77-2.23-.77-3.357 0-1.21-.36-2.288-.57-3.427-.292-1.59-.255-3.194.825-4.58zM58.192 25.31c.65.32.93.795 1.124 1.445.242.82.553 1.625.894 2.41.7 1.605 1.74 2.977 3.157 4 2.418 1.744 5.752 1.31 7.06-1.575.585-1.28 1.02-2.575 1.196-3.98.13-1.06.47-2 1.397-2.777 1.522-1.275 1.67-3.748.26-5.09-.87-.833-1.172-1.658-1.217-2.785-.032-.838-.27-1.69-.535-2.496-.86-2.59-2.573-3.797-5.472-3.824-1.85-.164-3.34.775-4.497 2.32-1.1 1.47-1.994 3.066-2.315 4.897-.158.904-.49 1.568-1.294 2.09-.5.327-1.03.918-1.137 1.473-.295 1.507-.32 3.064 1.376 3.893zm9.06-9.838c.28-.352.746-.306 1.01.12.46.744.72 1.542.722 2.42v3.525l.128.003c-.07 1.28-.098 2.562-.224 3.836-.05.51-.306 1-.487 1.493-.03.076-.17.182-.24.17-.157-.035-.404-.108-.436-.21-.613-2.23-.804-4.54-1.323-6.79-.362-1.57-.244-3.19.85-4.568z"/></svg>