<svg xmlns="http://www.w3.org/2000/svg" width="128" height="128" viewBox="0 0 128 128"><path d="M77.408 94.144c-.587-.46-1.07-1.052-1.627-1.55-1.303-1.167-2.073-1.068-3.14.397-.38.52-.705 1.076-1.063 1.608-.832 1.243-1.66 2.49-2.517 3.715-.097.134-.342.178-.534.224-.034.01-.14-.153-.178-.248-.787-1.934-1.42-3.848.337-5.647.243-.245-.113-.923-.484-1.04-.3-.096-.606-.22-.92-.24-.64-.04-1.282-.046-1.922-.02-.644.026-1.154.716-1 1.367.19.818.637 1.628.613 2.43-.026.933-.434 1.857-.716 2.774-.02.08-.373.164-.467.1-.252-.182-.514-.406-.658-.675-1.04-1.986-2.057-3.983-3.073-5.98-.4-.785-.747-1.01-1.45-.933-3.094.34-5.51 1.61-6.555 4.768-.368 1.115-.872 2.206-1.08 3.35-.818 4.558-.83 9.143-.202 13.73.093.682.563 1.253 1.193 1.332.74.094 1.49.145 2.24.15 3.426.013 6.85.004 10.278.004l.003.12c3.21-.08 6.424-.126 9.632-.254 1.493-.06 2.976-.323 4.467-.416.938-.057 1.286-.652 1.512-1.394.153-.506.302-1.038.31-1.56.037-3.21.156-6.43.01-9.633-.114-2.5-.877-4.832-3.004-6.485zm-40.736-2.016c-.9-.576-1.647-.424-2.272.363-.465.59-.864 1.224-1.28 1.847-.9 1.328-1.785 2.663-2.688 3.99-.205.304-.622.313-.75.026-.388-.88-.807-1.752-1.116-2.656-.124-.363-.085-.843.04-1.214.167-.5.513-.94.742-1.422.444-.94-.03-1.706-1.11-1.693-.735.007-1.475.157-2.202.3-.444.084-.72.607-.475.954.9 1.268.874 2.566.3 3.935-.123.288-.123.63-.19.943-.024.1-.06.224-.133.28-.156.112-.33.21-.512.27-.066.02-.22-.06-.26-.134-1.03-1.87-2.083-3.723-3.056-5.62-.84-1.648-.598-2.39-3.425-1.494-.203.063-.405.16-.614.182-1.53.16-2.56 1.086-3.265 2.334-.63 1.11-1.08 2.32-1.608 3.488-.64 1.405-.457 2.95-.747 4.41-.705 3.53-.3 7.03.055 10.542.072.715.49 1.13 1.052 1.504.768.512 1.62.5 2.475.504 3.535.007 7.067.003 10.603.003v-.028c2.144 0 4.288.07 6.426-.02 2.56-.108 5.12-.32 7.674-.545 1-.085 1.5-.677 1.525-1.71.042-2.035.057-4.07.046-6.105-.004-1.605.004-3.218-.117-4.818-.274-3.66-2.06-6.445-5.113-8.416zm81.747 8.33c-.063-1.844-.59-3.658-1.775-5.083-1.013-1.227-2.317-2.222-3.533-3.27-.602-.515-1.472-.383-1.987.304-.772 1.026-1.468 2.11-2.197 3.17-.67.97-1.33 1.94-2.02 2.893-.062.082-.44.077-.48.003-.38-.648-.694-1.327-1.054-1.984-.512-.94-.414-1.77.154-2.706 1.02-1.683.815-1.995-1.058-2.022-.43-.006-.86.008-1.29.032-.59.03-1.044.595-.754 1.074.88 1.462.757 2.85-.166 4.204-.16.235-.465.41-.743.504-.106.036-.38-.205-.468-.376-1.03-1.995-2.064-3.987-3.048-6.005-.277-.565-.68-.81-1.254-.766-3.126.245-5.556 1.503-6.65 4.657-.383 1.112-.9 2.202-1.105 3.35-.856 4.778-.84 9.588-.17 14.393.037.305.505.73.83.784.84.145 1.708.145 2.563.15 3.328.012 6.652.003 9.98.003v.14c3.65-.102 7.297-.198 10.942-.308.642-.02 1.285-.06 1.923-.15 2.54-.353 2.788-.588 3.295-3.023.066-.313.11-.636.11-.956-.002-3.003.046-6.01-.046-9.01zM18.993 80.633c1.088.508 1.46 1.38 1.867 2.416.54 1.38 1.35 2.653 2.075 3.956.203.37.47.73.783 1.01 2.53 2.267 6.56 3.19 8.43-1.71.452-1.183.602-2.48.902-3.724.2-.842.442-1.665 1.3-2.104 1.01-.516 1.213-1.412 1.164-2.144-.053-1.48-.078-2.67-1.26-3.408-.596-.376-.83-.955-.802-1.643.056-1.428-.384-2.75-.925-4.03-.615-1.452-1.697-2.375-3.274-2.81-2.43-.667-4.448-.098-6.08 1.774-1.36 1.557-2.293 3.357-2.613 5.41-.125.81-.413 1.39-1.146 1.778-1.362.717-1.47 1.97-1.38 3.314.05.793.236 1.573.96 1.913zM28.1 73.3c.02-.018.056-.022.084-.033l.102-.15c.02.01.05.016.075.024-.145-.794.35-1.38.69-2.014.155-.292.313-.304.45-.02.24.47.625.938.674 1.43.352 3.525.336 7.054-.117 10.57-.053.406-.32.788-.5 1.174-.046.09-.172.23-.22.215-.176-.056-.394-.128-.493-.267-.454-.636-.645-1.37-.47-2.127.17-.707.614-1.395-.238-1.984-.107-.07-.122-.39-.062-.552.186-.498.48-.96.636-1.47.118-.383.263-.952.078-1.204-.546-.735-.46-1.356 0-2.05.173-.26.288-.57.392-.874.29-.856-.413-.688-.82-.823.003.02.003.037.008.058l-.183.07-.15.226c.02-.067.023-.16.07-.192zm43.997-.12c.053-1.32-.402-2.528-.832-3.733-.407-1.14-1.14-2.133-2.257-2.606-3.005-1.267-5.168-.76-7.048 1.214-1.363 1.43-2.248 3.157-2.656 5.05-.24 1.115-.64 1.87-1.566 2.58-1.69 1.292-1.525 3.888.27 5.164.657.465 1.09.93 1.313 1.7.24.815.556 1.624.974 2.366.573 1.02 1.152 2.077 1.928 2.94 2.947 3.263 7.11 2.463 8.604-1.638.4-1.093.547-2.277.818-3.416.224-.944.452-1.884 1.434-2.377.89-.448 1.1-1.245 1.077-1.902-.03-1.55-.018-2.85-1.333-3.65-.62-.38-.753-1.02-.723-1.683zm-3.677 9.136c-.078.157-.332.23-.515.32-.014.01-.163-.147-.163-.228-.02-1.59-1.117-2.97-.843-4.637.076-.47-.274-1.004-.39-1.52-.41-1.816-.44-3.59.683-5.204.107-.15.33-.3.497-.3.17.004.39.16.487.31.47.73.78 1.515.78 2.402-.007 1.173-.003 2.347-.003 3.52-.018 1.792.32 3.637-.533 5.337zm27.13-1.755c1.198.55 1.66 1.513 2.022 2.686.446 1.43 1.22 2.716 2.1 3.947.86 1.192 1.983 1.938 3.33 2.377 1.793.583 3.404.303 4.61-1.25.453-.583.908-1.22 1.14-1.905.38-1.102.594-2.264.846-3.408.23-1.06.476-2.09 1.56-2.652.897-.466 1.007-1.308.97-2.635-.02-.523.15-1.71-.68-2.266-1.29-.867-1.294-2.045-1.454-3.333-.13-1.04-.512-2.073-.928-3.045-.572-1.344-1.61-2.17-3.064-2.596-2.558-.75-4.647-.11-6.325 1.896-1.25 1.496-2.158 3.192-2.466 5.14-.12.777-.273 1.44-1.056 1.833-1.52.753-1.59 2.13-1.46 3.58.06.672.26 1.36.855 1.633zm9.68-9.55c.11-.144.35-.286.51-.267.172.02.364.203.468.366.475.727.75 1.527.747 2.41v3.52h.13c-.064 1.28-.088 2.56-.208 3.833-.048.51-.284 1.01-.494 1.49-.06.138-.333.19-.518.255-.02.007-.13-.16-.16-.26-.667-2.214-.783-4.538-1.325-6.784-.382-1.568-.23-3.198.85-4.565zm-53.186-16c.635-.422 1.166-.96 1.266-1.773.155-1.223.024-2.55-.884-3.292-1.163-.945-1.453-2.025-1.455-3.36 0-.423-.06-.86-.154-1.274-.525-2.226-2.005-4.643-5.62-4.436-1.955-.273-3.505.747-4.722 2.404-.38.516-.747 1.063-.992 1.648-.5 1.18-.948 2.384-1.35 3.6-.17.51-.218 1.09-.767 1.33-1.65.72-1.533 2.148-1.476 3.556.03.787.255 1.52 1.026 1.867.873.395 1.23 1.135 1.534 1.954.3.802.555 1.632.95 2.385.746 1.426 1.556 2.84 2.956 3.74 2.133 1.37 5.816 1.626 7.266-1.915.24-.59.46-1.2.624-1.816.224-.825.48-1.658.558-2.5.09-.94.47-1.607 1.243-2.12zm-4.432 1.806c-.064.26-.12.734-.565.463-.213-.13-.322-.494-.392-.774-.047-.188.107-.416.09-.62-.084-1.034-1.293-1.743-.842-2.95.368-.996-.277-1.85-.482-2.76-.324-1.41-.314-2.747.57-3.95.27-.37.19-1.22.83-1.034.38.112.665.783.857 1.257.658 1.614.576 3.327.56 5.22.184 1.63-.198 3.392-.625 5.146zm42.648-1.98c1.153-.754 1.296-1.942.97-3.148-.19-.7-.47-1.55-1.004-1.938-1.024-.75-1.192-1.69-1.227-2.797-.04-1.187-.23-2.353-.83-3.403-.9-1.58-2.126-2.68-4.078-2.653-.213.002-.43-.012-.644-.033-2.292-.245-3.974.818-5.12 2.65-.787 1.26-1.358 2.668-1.886 4.06-.416 1.09-.59 2.23-1.824 2.837-.373.185-.605.868-.693 1.36-.113.62-.1 1.295.02 1.916.097.49.315 1.162.686 1.357 1.273.674 1.697 1.843 2.134 3.053.514 1.42 1.21 2.74 2.155 3.925 1.216 1.52 2.77 2.326 4.885 2.207 1.31.157 2.38-.526 3.125-1.66.52-.79.91-1.692 1.236-2.586.29-.8.523-1.65.592-2.495.093-1.155.517-2.008 1.504-2.654zm-4.68 2.094c-.042.158-.24.395-.35.384-.176-.01-.49-.215-.48-.314.113-1.1-.28-2.033-.85-2.923.498-1.853-.576-3.5-.695-5.276-.094-1.39.747-2.39 1.263-3.534.128-.285.47-.18.69.16.71 1.103.993 2.332 1.053 3.618.037.74.008 1.485.008 2.293.208 1.868-.15 3.74-.636 5.59zM56.225 28.226c.87.395 1.237 1.123 1.54 1.946.293.804.548 1.636.95 2.386.81 1.51 1.646 3.03 3.227 3.907 2.252 1.248 5.603 1.296 6.995-2.052.245-.59.457-1.198.632-1.813.206-.718.47-1.444.514-2.182.07-1.17.544-2.005 1.52-2.645 1.027-.67 1.246-1.732 1.004-2.844-.156-.717-.337-1.65-.846-2.02-1.213-.887-1.475-2.013-1.47-3.35.003-.428-.06-.863-.155-1.277-.5-2.204-1.99-4.66-5.6-4.454-1.956-.274-3.515.73-4.734 2.39-.378.514-.746 1.06-.993 1.644-.505 1.18-.953 2.383-1.355 3.6-.17.512-.207 1.1-.753 1.338-1.65.715-1.555 2.137-1.494 3.55.032.785.243 1.524 1.013 1.876zm8.954-8.793c.32-.448.202-1.412 1-1.262.35.068.642.79.832 1.268.656 1.616.562 3.328.74 5.053-.234 1.564-.43 3.134-.716 4.69-.073.394.158 1.23-.7 1.03-.463-.11-.422-.658-.304-1.09.027-.1.08-.245.037-.31-1.24-1.722-.58-3.87-1.29-5.724-.48-1.235-.4-2.54.4-3.653z"/></svg>