<svg xmlns="http://www.w3.org/2000/svg" width="128" height="128" viewBox="0 0 128 128"><path d="M84.743 49.52c.155-.214.53-.26.804-.385.036.215.128.437.1.642-.182 1.244-.388 2.485-.594 3.77.15.89.088 1.89.487 2.653 1.362 2.596 4.613 3.437 7.085 1.99.832-.486 1.445-1.153 1.74-2.06.383-1.195.863-2.394 1.018-3.627.58-4.676 1.798-9.22 2.675-13.835.555-2.925 1.112-5.852 1.73-8.765.14-.65.433-1.316.82-1.86 1.324-1.86 1.297-3.805.705-5.91-.29-1.043-.668-1.932-1.504-2.614-.378-.31-.793-.516-1.257-.28-1.936.997-3.936 1.89-5.77 3.054-2.416 1.534-4.687 3.298-7.04 4.94-4.987 3.476-9.996 6.924-14.973 10.42-.835.584-1.66 1.257-2.295 2.043-1.28 1.58-.52 3.77 1.397 4.37.9.282 1.75.288 2.693.083 1.365-.29 2.63-.782 3.883-1.36.17-.08.42.01.635.02-.027.177.01.416-.09.528-4.597 5.134-8.75 10.632-12.888 16.125-6.49 8.61-12.717 17.422-19.07 26.137-2.77 3.802-5.58 7.576-8.366 11.367-.614.832-1.254 1.65-1.794 2.528-1.435 2.342-.627 6.106 1.617 7.737 2.545 1.85 5.525 1.756 7.906-.267.35-.296.67-.634.95-.996 1.402-1.815 2.825-3.618 4.164-5.48 1.474-2.05 2.734-4.26 4.314-6.218 3.11-3.85 5.663-8.083 8.464-12.145 6.256-9.07 12.46-18.178 18.69-27.264 1.23-1.798 2.48-3.584 3.758-5.347zm18.34 26.146c-4.366-2.878-9.103-3.317-14.197-2.13-4.395 1.024-10.61 6.053-11.37 11.345-.147 1.01-.556 1.984-.86 2.97-1.31 4.264-.054 7.94 2.706 11.184 3.448 4.043 8.075 5.436 13.187 5.605 1.755.113 3.413-.276 5.102-.678 3.488-.834 6.107-2.99 8.625-5.343.165-.156.273-.37.41-.556 1.57-2.165 2.65-4.53 2.996-7.216.83-6.39-1.147-11.584-6.603-15.182zm-6.63 19.118c-.218.038-.455.032-.676 0-2.597-.37-5.2-.717-7.787-1.163-.504-.083-1.047-.48-1.39-.886-1.61-1.916-1.92-4.14-1.1-6.44.99-2.79 2.975-4.556 5.936-5.116.675-.125 1.355-.21 2.037-.3 4.565-.584 8.355 2.725 8.392 7.323.025 3.22-2.27 6.02-5.413 6.58zM40.046 67.368c2.907-1.167 5.61-2.615 7.886-4.784 3.602-3.427 6.166-7.45 4.777-13.5-1.09-4.748-4.068-8.007-8.495-9.654-4.17-1.555-8.52-1.45-12.817-.043-2.656.87-5.067 2.17-7.155 3.98-4.095 3.55-6.493 7.882-6.053 13.53.3 3.856 2.018 6.724 5.316 8.693 3.013 1.798 6.155 3.1 9.414 2.62 2.656.063 4.915.047 7.127-.84zM27.15 54.504c-.223-.526-.457-1.067-.54-1.626-.065-.427-.044-.98.18-1.316 2.178-3.21 5.2-5.106 9.07-5.538 1.023-.113 2.07.01 3.103-.026 2.297-.085 3.92 1.144 5.297 2.755 1.035 1.21 1.092 2.8.233 4.177-.422.675-.875 1.408-1.5 1.867-2.562 1.888-5.76 3.904-9.76 3.758-3.25 0-4.83-1.045-6.084-4.05z"/></svg>