<svg xmlns="http://www.w3.org/2000/svg" width="128" height="128" viewBox="0 0 128 128"><path d="M119.85 90.275c-2.094.51-4.18.448-6.284.446-2.77-.003-4.85-1.016-6.155-3.672-1.187-2.42-3.155-2.673-5.12-.94-.493.442-.905.977-1.392 1.43-.728.68-1.483 1.33-2.24 1.978-.264.23-.665.06-.706-.288-.468-4.183-.945-8.363-1.403-12.547-.264-2.42-.34-4.876-.787-7.263-.654-3.505-.675-7.056-.995-10.58-.356-3.964.102-7.988-.813-11.922-.05-.213-.027-.44-.043-.664-.225-2.98-.442-5.965-.688-8.946-.053-.66-.183-1.317-.34-1.96-.455-1.826-.985-3.633-1.402-5.467-.8-3.5-2.242-6.71-4.227-9.693-2.256-3.39-5.127-6.09-8.733-7.997-3.396-1.795-7.144-2.49-10.88-2.68-4.754-.24-9.536 0-14.306.143-3.872.116-7.742.397-11.614.604-2.987.16-5.973.25-8.95.498-1.08.088-2.14.504-3.19.835-1.052.336-2.052.915-3.123 1.097-1.58.27-2.95.947-4.305 1.7-2.628 1.462-5.028 3.25-7.27 5.25-3.366 2.993-5.952 6.55-7.63 10.755-.788 1.975-1.315 3.977-1.264 6.134.04 1.66.07 3.346-.17 4.98-.645 4.32-.713 8.616.223 12.886 1.437 6.548 4.194 12.366 9.464 16.764.683.565 1.293 1.216 1.958 1.798 2.005 1.758 4.06 3.435 6.43 4.702 1.5.802 3.035 1.305 4.763 1.213 1.66-.092 3.326-.124 4.99-.12 1.44.004 2.91-.073 4.314.18 2.64.47 5.286.575 7.95.57 3.664-.01 7.324.048 10.983.02.888-.004 1.474.29 1.893 1.046 1.837 3.33 3.25 6.756 3.312 10.673.064 3.65.42 7.3.592 10.955.06 1.17.37 2.17 1.234 2.978.082.075.177.142.24.228.48.62.345 1.067-.383 1.124-4.212.328-8.263 1.537-12.39 2.338-1.292.25-2.597.67-3.77 1.26-1.573.794-3.038 1.804-4.513 2.78-.528.343-.646 1.3-.344 1.82.306.533.813.74 1.392.732.55-.016 1.114-.045 1.648-.16 4.434-.957 8.864-1.923 13.293-2.915 4.796-1.073 9.656-1.23 14.546-1.135 1.38.026 2.626.405 3.772 1.12.657.41 1.284.875 1.882 1.365 2.176 1.786 4.638 3.07 7.31 3.86 3.513 1.04 7.004 1.1 10.246-.972 3.18-2.035 6.254-4.22 9.027-6.79.73-.678 1.445-1.4 2.016-2.206.36-.512.517-1.21.6-1.85.1-.788-.54-1.548-1.285-1.71-1.12-.236-2.203-.197-3.216.417-1.235.75-2.497 1.448-3.7 2.237-2.137 1.4-4.25 2.824-6.346 4.28-1.687 1.17-3.476 1.34-5.377.703-.84-.28-1.69-.558-2.48-.95-1.386-.684-2.804-1.352-4.084-2.21-2.774-1.856-5.752-2.8-9.104-2.556-1.217.088-2.444.043-3.66.032-1.165-.01-1.175-.09-.674-1.33.288-.71.493-1.453.666-2.2.257-1.1.367-1.22 1.533-1.2.776.016 1.553.08 2.33.078.888-.01 1.78-.016 2.658-.125 1.17-.15 2.038-.808 2.636-1.827.402-.687.335-1.58-.177-2.172-.597-.69-1.303-1.202-2.25-1.29-.22-.022-.436-.073-.657-.1-.367-.037-.4-.178-.064-.354.69-.357 1.44-.615 2.077-1.046.653-.44 1.157-1.123 1.06-1.957-.11-.917-.6-1.7-1.535-2.007-.617-.205-1.286-.313-1.934-.338-1.333-.053-2.667-.006-3.997-.027-.774-.014-1.547-.06-2.315-.14-.12-.014-.32-.31-.292-.433.037-.178.23-.422.39-.457.54-.11 1.088-.16 1.638-.192 1.55-.093 3.1-.17 4.654-.242 1.035-.043 1.94-.43 2.78-1 1.204-.82 1.21-2.578 0-3.37-.75-.485-1.553-.884-2.48-.837-.996.048-1.99.128-2.98.227-.552.05-1.09.202-1.64.242-.32.023-.65-.075-.975-.12.123-.256.216-.533.38-.757.197-.264.488-.454.687-.718.59-.775.266-1.826-.66-2.133-.416-.14-.858-.248-1.293-.273-.773-.04-1.55-.004-2.325 0-.555 0-1.117.07-1.656-.013-.27-.038-.587-.304-.728-.555-.235-.415.205-.59.47-.646 2.05-.463 4.106-.917 6.172-1.306.907-.17 1.808-.407 2.33-1.147.78-1.103 1.74-1.44 3.067-1.57 1.842-.178 2.8-2.298 1.928-4.022-.333-.652-.493-1.174-.192-1.844.363-.804.674-1.632 1.013-2.448.256-.614.546-1.213.775-1.835.258-.693.013-1.333-.425-1.856-.187-.222-.643-.478-.83-.392-1.594.712-3.195 1.295-4.11 3.102-.89 1.755-2.252 3.268-3.428 4.875-.102.133-.373.14-.565.205-.054-.198-.205-.424-.16-.595.51-1.808 1.094-3.6 1.554-5.422.213-.848.283-1.755.263-2.635-.037-1.547-1.14-2.306-2.655-2.093-1.724.243-3.157.915-4.316 2.24-.464.53-.8 1.274-1.62 1.387-.01.03-.02.06-.034.09-.03.008-.05.03-.078.038.09 1.088-.69 1.667-1.416 2.27-.053.047-.24.027-.242.014-.043-.182-.156-.455-.072-.554.527-.622.866-1.45 1.73-1.728 0-.038.003-.072 0-.11.042-.002.076-.014.116-.02.226-.577.413-1.172.706-1.714 2.088-3.86 3.46-7.907 3.31-12.37-.056-1.665.03-3.334-.086-4.993-.245-3.423-.49-6.893-1.568-10.154-1.244-3.777-2.866-7.436-4.377-11.123-.726-1.77-1.94-3.22-3.276-4.572-.853-.86-1.662-1.757-2.49-2.638 1.22-.67 2.554-.347 3.835-.4 1.55-.064 3.11.075 4.66-.01 3.173-.182 6.134.716 9.097 1.64 3.67 1.14 6.304 3.553 8.352 6.734 3.2 4.98 4.586 10.51 5.02 16.324.206 2.764.17 5.534.623 8.285.342 2.07.596 4.174.664 6.27.145 4.54 0 9.08.704 13.6.56 3.61.9 7.25 1.25 10.883.34 3.53.945 7.03.987 10.59.043 3.436.22 6.87.34 10.302.022.555.017 1.116.113 1.66.21 1.19 1.265 2.205 2.45 2.423 2.43.452 4.145-.87 4.272-3.342.063-1.22-.016-2.446.09-3.656.028-.34.428-.86.74-.93 1.654-.367 3.198-.958 4.527-1.995.765-.6 1.3-.46 2.015.08 2.485 1.858 5.318 2.67 8.416 2.584 1.664-.05 3.337.016 4.987-.14 1.967-.19 3.203-1.415 3.804-3.26.56-1.717-.942-3.57-2.7-3.144zm-49.64 5.202c.203-.032.416-.007.686-.007l.533.262c-.198.046-.396.11-.598.133-.203.02-.416.02-.62-.01-.2-.033-.383-.118-.575-.184.188-.065.376-.162.573-.192zM57.05 29.685c.25.36.466.763.61 1.177 1.533 4.405 2.81 8.857 2.963 13.574.13 3.91-.223 7.744-1.335 11.505-.81 2.747-2.325 4.98-4.555 6.79-4.206 3.42-8.93 5.685-14.235 6.868-2.1.47-4.188.352-6.28.47-2.914.215-5.773-.163-8.55-.98-4.94-1.458-8.455-4.678-10.982-9.104-3.003-5.27-4.018-10.978-3.893-16.955.01-.545.152-1.09.274-1.62.1-.436.29-.845.384-1.276.287-1.288-.15-2.645.49-3.923 1.39-2.762 2.543-5.65 4.51-8.095.983-1.216 1.954-2.372 3.46-3.02.9-.385 1.676-1.068 2.486-1.644.363-.253.693-.556 1.018-.86 3.31-3.076 7.148-4.806 11.737-4.64 2.88-.68 5.737.157 8.606.165.825.004 1.747.402 2.458.877 4.3 2.862 7.872 6.472 10.84 10.69zm-5.91 72.185c.61-.118 1.22-.532 1.7-.957 1.133-1 1.237-2.253.435-3.588-.496-.82-1.213-1.242-2.167-1.318-1.618-.123-3.042.48-4.443 1.15-1.296.623-2.526 1.45-3.883 1.86-2.413.733-4.845.838-6.645-1.428-1.476-1.86-3.536-1.96-5.237-.573-2.7 2.204-5.87 3.502-9.054 4.794-1.346.545-2.692.93-4.156 1.03-1.09.067-2.178.34-3.243.624-.722.194-1.145.994-1.15 1.845 0 .845.42 1.7 1.13 1.85 1.282.28 2.62.67 3.897.558 3.66-.316 7.18-1.27 10.443-3.032.973-.523 1.98-.997 2.918-1.58.858-.528 1.58-.6 2.402.086 1.965 1.643 4.304 2.17 7.125 2.133 2.144.26 4.2-.9 6.288-1.906 1.19-.57 2.293-1.297 3.637-1.555zm-7.972-58.3c-1.583-.82-3.247-1.37-5.054-1.49-1.355-.09-1.348-.157-1.675-1.56-.074-.324-.19-.64-.24-.967-.348-2.295.077-2.67 2.226-3.275.6-.17 1.308-.032 1.956.048.432.05.847.243 1.085.317 1.515.157 2.723-.634 3.285-2.005.464-1.12.103-2.496-.88-3.277-1.064-.845-2.228-1.44-3.644-1.37-1.106.052-2.262-.08-3.303.202-1.14.307-1.813.046-2.56-.807-.69-.79-1.653-.53-2.165.403-.21.387-.477.784-.542 1.205-.207 1.345-1.092 2.045-2.172 2.72-1.784 1.12-3.406 2.465-4.815 4.054-1.127 1.27-1.91 2.703-2.335 4.34-.69 2.62.755 5.21 3.366 5.95 1.607.46 3.25.635 4.926.61.872-.017 1.184.306 1.344 1.137.192.977.376 1.953.553 2.93.156.85-.157 1.34-.955 1.377-1.33.07-2.66.033-3.985.13-.757.06-1.532.21-2.243.48-1.16.434-1.71 1.47-1.763 2.6-.052 1.147.532 2.132 1.585 2.73.985.56 2.06.82 3.184.82 1.437.01 2.883.036 4.313-.07 1.21-.084 2.132.1 2.726 1.315.548 1.125 1.472 1.923 2.667 2.375.72.27 1.746-.235 1.788-1.003.048-.988.076-2.005-.124-2.963-.203-.975.155-1.446.954-1.81 1.954-.888 3.602-2.195 4.923-3.86 1.87-2.366 2.266-4.972.973-7.764-.732-1.565-1.883-2.728-3.405-3.515zm-12.816-1.685l-.093-.24.233.028-.142.213zm10.12 8.658c-.306.733-.928 1.18-1.677 1.408-.145.048-.49-.09-.525-.204-.224-.824-.427-1.66-.54-2.505-.018-.16.406-.38.556-.51.926.004 1.638.24 2.084.93.147.23.206.64.102.885z"/></svg>