<svg xmlns="http://www.w3.org/2000/svg" width="128" height="128" viewBox="0 0 128 128"><path d="M106.584 80.17c-.917-3.312-2.323-6.46-4.02-9.444-3.036-5.323-7.54-8.73-13.594-9.884-2.86-.544-5.774-.47-8.666-.273-1.06.07-2.116.3-3.152.557-4.062 1.003-7.488 3.12-10.434 6.063-.683.684-1.365 1.366-2.073 2.02-.07.064-.433-.02-.48-.12-.226-.48-.453-.978-.568-1.492-.732-3.346-1.45-6.694-2.138-10.05-.28-1.362-.553-2.737-.66-4.12-.253-3.365-1.21-6.496-2.7-9.518-1.483-2.997-3.6-5.29-6.61-6.77-1.282-.635-1.966-.588-2.764.554-1.17 1.664-2.248 3.397-3.383 5.088-.295.437-.648.845-1.02 1.222-.1.105-.504.114-.524.066-.243-.592-.468-1.195-.643-1.808-.17-.584.203-1.008.518-1.444.312-.435.64-.864.9-1.328.368-.65-.042-1.65-.782-1.816-1.145-.26-2.3-.494-3.467-.62-.333-.036-.78.274-1.032.554-.133.146-.072.67.09.85 1.133 1.248 1.22 2.67.843 4.208-.1.413-.08.855-.178 1.27-.044.175-.22.385-.387.45-.144.06-.427-.008-.533-.125-.287-.307-.56-.652-.75-1.027-1.212-2.385-2.407-4.78-3.588-7.18-.505-1.02-.955-1.258-2.052-.852s-2.368.66-3.224 1.383c-2.553 2.14-4.853 4.544-6.45 7.53-1.803 3.39-2.55 7.038-2.635 10.828-.073 3.54-.056 7.084-.053 10.625 0 3.112.06 6.225.043 9.337-.006 1.215.258 2.358.796 3.41.523 1.02 1.42 1.602 2.616 1.55 1.213-.05 2.31-.86 2.68-1.983.133-.4.208-.835.22-1.258.03-.858-.004-1.715-.01-2.574-.028-4.186-.096-8.37-.072-12.555.02-3.228.516-6.408 1.412-9.507.29-1.02.804-1.98 1.244-2.955.073-.16.284-.263.43-.39.1.185.246.362.287.56.222 1.044.464 2.09.61 3.15.285 2.01.453 4.04.774 6.05.82 5.09 1.15 10.21 1.095 15.37-.043 4.4.11 8.8.043 13.2-.066 4.2.416 8.357.85 12.506.298 2.89.436 5.762.55 8.653.1 2.56.353 5.113.54 7.67.018.21.04.427.09.634.406 1.616 1.778 2.513 3.404 2.19 1.257-.25 2.086-.968 2.424-2.263.66-2.545.422-5.114.277-7.68-.093-1.604-.31-3.206-.32-4.81-.027-4.83.017-9.66.037-14.485.004-.536-.02-1.082.08-1.602.052-.273.287-.584.526-.736.843-.528 1.78-.75 2.77-.627.453.055.83.315.84.806.016 1.285-.003 2.572-.044 3.856-.02.64-.18 1.278-.158 1.914.11 3.535.254 7.07.39 10.605-.024 0-.048 0-.07.004 0 3.54-.008 7.083.006 10.622.004.747-.006 1.52.17 2.236.283 1.12 1.035 1.88 2.22 2.055.96.145 1.915.156 2.83-.313 1.012-.518 1.722-1.22 1.898-2.405.267-1.775.907-3.515.085-5.334-.247-.553-.13-1.27-.17-1.915-.132-2.132-.213-4.274-.405-6.404-.427-4.713-.32-9.43-.245-14.15.017-1.07.056-2.153-.064-3.21-.484-4.176-.366-8.342-.075-12.52.11-1.59-.077-3.205-.135-4.81-.05-1.28-.184-2.566-.15-3.847.086-3.32.216-6.64.38-9.958.048-.953.246-1.902.42-2.845.026-.138.3-.32.46-.32.17 0 .352.178.505.308.075.062.102.187.136.288 1.13 3.123 2.2 6.26 2.498 9.603.096 1.058.32 2.11.527 3.16.684 3.46 1.825 6.83 2.097 10.378.07.922.61 1.62 1.382 2.062.87.498.735 1.07.424 1.845-.518 1.288-.873 2.643-1.38 3.937-1.514 3.867-1.896 7.88-1.763 11.996.176 5.49 2.147 10.255 5.76 14.306 4.47 5.006 10.284 7.18 16.86 7.482 1.594.073 3.204-.096 4.796-.267 3.24-.348 6.287-1.44 9.15-2.9 5.836-2.972 10.222-7.348 12.56-13.616 1.055-2.836 1.645-5.73 1.974-8.737.384-3.48.02-6.848-.894-10.16zm-9.366 19.77c-1.255 1.915-2.83 3.473-4.7 4.776-3.798 2.645-8.012 3.972-12.257 4.144-4.99-.248-9.22-1.45-12.52-4.95-2.268-2.402-3.636-5.268-4.275-8.48-.46-2.32-.53-4.635-.213-7.015.286-2.115.335-4.26.892-6.342.28-1.047.674-2.025 1.344-2.885 1.446-1.858 2.816-3.782 4.347-5.568 2.118-2.468 4.688-4.376 7.758-5.536.496-.187 1.02-.34 1.54-.407.422-.053.844.05.78.672-.105.972.273 1.69 1.248 1.945 1.446.376 2.305-.546 2.11-2.21-.09-.77.047-1.03.646-.943 1.792.26 3.64.378 5.344.928 2.594.835 4.713 2.415 6.256 4.777 1.947 2.987 3.368 6.197 4.523 9.543.1.3.11.632.156.95.105.676-.194 1.002-.853.908-.207-.032-.405-.173-.608-.18-.31-.016-.65-.028-.93.08-1.62.632-2.223 3.427-.97 4.62.545.517 1.24.877 2.05.54.393-.165.78-.36 1.156-.56.366-.2.64-.05.61.3-.34 3.877-1.25 7.578-3.427 10.894zm-64.72-75.17c1.078.437 1.292 1.323 1.58 2.242.55 1.747 1.39 3.344 2.485 4.816 1.072 1.444 2.485 2.307 4.248 2.624 1.7.31 3.213-.056 4.306-1.443.584-.743 1.133-1.583 1.427-2.47.433-1.308.675-2.685.898-4.05.13-.79.39-1.41 1.078-1.856.533-.343 1.084-.704 1.513-1.163 1.066-1.14.91-3.843-.447-4.56-1.38-.724-1.717-1.692-1.72-3.082-.003-.727-.28-1.46-.47-2.18-.882-3.295-2.622-4.64-6.224-4.635-2.115-.147-3.87.946-5.124 2.852-.996 1.515-1.9 3.118-2.197 4.94-.17 1.023-.513 1.808-1.486 2.288-.37.184-.69.505-.977.817-.94 1.028-1.042 2.382-.22 3.52.37.508.794 1.117 1.332 1.338zm8.938-8.455c.475-.825.964-1.643 1.483-2.443.04-.067.42-.045.474.043.288.44.658.892.747 1.383.306 1.668.505 3.358.74 5.038.01 2.624-.466 5.12-1.343 7.55-.14.382-.365.776-.66 1.04-.193.168-.646.223-.868.108-.18-.094-.334-.56-.26-.78.207-.598.54-1.155.82-1.73.48-.964.516-1.83-.503-2.51-.42-.276-.41-.696-.208-1.12.554-1.172.407-2.172-.4-3.257-.743-.992-.66-2.213-.024-3.32zm46.884 68.66c-.947.035-1.9.22-2.82.454-.612.154-1.17.517-1.756.77-.465.203-.9-.023-.95-.47-.025-.213-.06-.427-.054-.64.123-3.32-.452-6.6-.658-9.897-.058-.943-.33-1.884-.603-2.797-.244-.813-.986-1.09-1.738-1.227-.57-.103-1.523.522-1.78 1.17-.19.487-.322 1.02-.372 1.54-.298 3.08-.564 6.16-.842 9.236.038.007.078.01.115.016 0 1.07.002 2.14 0 3.207 0 .32-.015.642-.004.962.02.747.01 1.5.092 2.24.192 1.696 1.287 2.693 3.012 2.654.84-.018 1.692-.195 2.505-.42 1.642-.452 3.263-.984 4.895-1.486.608-.19 1.235-.337 1.82-.594 1.183-.523 1.655-1.54 1.414-2.9-.193-1.102-1.05-1.865-2.28-1.82zm-22.014 3.973c-1.03.098-1.944.957-2.158 2.054-.062.31-.067.634-.096.946.043.325.05.65.134.956.47 1.664 2.573 2.267 3.86 1.12.852-.755 1.235-2.496.775-3.518-.502-1.12-1.385-1.664-2.515-1.557zm14.697 14.023c-.25.33-.432.74-.544 1.144-.388 1.397.685 3.03 2.176 3.362 1.12.25 2.38-.86 2.577-2.275.013-.104.01-.21.03-.554-.097-.288-.21-.808-.432-1.28-.814-1.74-2.647-1.928-3.807-.395z"/></svg>