<svg xmlns="http://www.w3.org/2000/svg" width="128" height="128" viewBox="0 0 128 128"><path d="M96.03 46.94c-.582-2.107-1.315-4.178-2.08-6.228-.836-2.236-1.906-4.39-2.66-6.652-1.505-4.49-4.387-8.028-7.646-11.28-2.472-2.467-5.483-4.298-8.277-6.388-.642-.48-1.346-.85-2.197-.816-1.726.067-3.364-.373-4.98-.887-1.398-.448-2.614-.48-3.948.435-.94.65-2.234.835-3.133-.478-.19-.27-.685-.432-1.05-.46-1.407-.108-2.81-.015-4.04.774-1.17.75-2.362 1.494-3.425 2.385-2.603 2.172-5.15 4.41-7.684 6.656-.82.728-1.64 1.494-2.27 2.375-1.51 2.106-2.953 4.262-4.33 6.453-.58.916-1.02 1.95-1.38 2.98-1.08 3.1-2.115 6.22-3.12 9.347-.3.94-.462 1.93-.656 2.9-.626 3.16-.46 6.362-.376 9.545.045 1.68.28 3.39.688 5.022 1.69 6.755 4.557 12.94 9.105 18.297 2.13 2.514 3.98 5.237 5.403 8.23.856 1.8 1.675 3.62 2.594 5.386.95 1.832 1.634 3.637.342 5.586-.323 2.056-.87 4.133.57 6.025.34.444.305.904.09 1.397-.627 1.42-.535 2.923-.47 4.418.063 1.368.6 2.542 1.673 3.377.87.674 1.71 1.35 2.41 2.21.307.372.74.756 1.187.874 1.453.38 2.29 1.29 3.03 2.577.51.897 1.507 1.59 2.424 2.156 1.003.624 2.133 1.08 3.26 1.455 3.093 1.03 6.078.9 8.82-1.076.406-.29.822-.57 1.238-.837 1.123-.723 2.048-1.602 2.34-2.97.114-.543.455-.865.927-1.078.636-.29 1.293-.53 1.91-.857 1.656-.88 2.776-2.183 3.335-4.02.565-1.86.69-3.73.344-5.607-.118-.637-.103-1.16.193-1.7.885-1.62 1.19-3.365 1.08-5.194-.065-1.088-.34-2.208-.17-3.26.173-1.07.093-1.68-1.035-2.01-.26-.074-.517-.62-.54-.965-.047-.69-.014-1.408.138-2.08.738-3.303 1.478-6.61 2.755-9.76.26-.64.573-1.272.958-1.842 1.067-1.58 1.877-3.27 2.66-5.003 1.43-3.168 3.253-6.165 4.117-9.58 2.007-3.794 2.827-7.848 2.6-12.06.125-2.662-.032-5.26-.725-7.77zm-37.6 56.918c-.007.037-.07.612-.147 1.186-.01.06-.117.15-.178.153-.093.004-.224-.032-.27-.096-.165-.233-.4-.475-.424-.73-.073-.88-.105-1.766-.07-2.646.008-.174.395-.47.59-.46.177.015.443.353.476.577.072.483.02.98.02 2.017zm1.665 9.29c-.013.09-.09.17-.14.255-.112-.09-.307-.17-.323-.277-.11-.764-.203-1.53-.25-2.3-.005-.106.256-.3.41-.32.108-.013.334.182.357.312.067.38.065.773.08 1.013-.054.54-.084.93-.137 1.318zm4.774 1.528c-.015.17-.14.335-.213.504-.256-.117-.574-.17-.757-.36-1.012-1.033-.884-2.34-.75-3.617.022-.18.396-.4.644-.472.405-.115.896.037.965.43.11.663.027 1.36.027 2.04h.088c0 .492.02.986-.007 1.474zm5.157 5.368l.015-.126.175.085-.19.04zm10.12-8.884c-.42 2.3-1.358 3.34-3.617 3.637-2.25.296-4.524.416-6.23.565-1.054 0-1.55.003-2.045 0-.56-.006-.953-.3-1.093-.82-.18-.66-.335-1.34-.398-2.02-.146-1.616.05-1.777 1.79-1.846 2.564-.107 5.152.136 7.69-.44 1.057-.238 2.102-.526 3.15-.784.51-.123.992.32.925.837-.04.29-.12.58-.173.87zm.244-7.686c-.08.325-.47.695-.8.81-1.217.417-2.45.96-3.703 1.046-3.867.27-7.747.352-11.62.496-.395.015-.8 0-1.19-.07-.527-.094-.94-.43-1.016-.957-.11-.786-.143-1.585-.155-2.38-.008-.775.313-1.135 1.04-1.14 1.893-.023 3.78-.01 5.675-.01l.012.086c2.773-.235 5.544-.47 8.317-.7.495-.042.993-.048 1.49-.084 2.258-.174 2.393 1.17 1.953 2.9zm-14.71-15.08c0-2.183-.025-4.368.007-6.553.02-1.276.597-1.774 1.873-1.715.436.018.8.25.844.675.075.786.053 1.582.072 2.378.08 3.37.15 6.746.25 10.118.02.59.172 1.173.25 1.76.144 1.102-.11 1.373-1.31 1.402-.197.005-.397.007-.596 0-.95-.035-1.3-.317-1.31-1.216-.027-2.283-.008-4.565-.008-6.848h-.07zm25.24-29.77c-.17.875-.187 1.787-.222 2.683-.156 3.772-1.095 7.228-3.5 10.275-1.156 1.466-2.032 3.17-2.59 5.018-.66 2.19-1.376 4.358-1.852 6.61-.433 2.036-1.222 3.994-1.81 6-.366 1.236-.78 2.484-.922 3.754-.112 1.013-.725 1.614-1.277 2.29-.225.27-.643.462-1.002.525-1.077.19-2.168.32-3.258.435-.956.105-1.474-.336-1.58-1.348-.065-.693-.04-1.397-.09-2.093-.12-1.688-.327-3.373-.377-5.062-.064-2.09-.01-4.18.013-6.272.007-.592.224-1.215.107-1.773-.418-1.982-.253-3.98-.26-5.97-.015-4.29.027-8.58.008-12.872-.007-1.214.134-2.384.524-3.528.03-.09.154-.238.17-.23.165.082.393.156.458.298.736 1.65 1.227 3.352 1.205 5.186-.04 3.495-.046 6.99-.064 10.48-.004.7-.036 1.4.02 2.095.077.898.85 1.61 1.79 1.745.8.113 1.77-.54 1.993-1.462.16-.67.23-1.374.237-2.066.027-2.395.01-4.79.01-7.185h.054c0-2.197-.034-4.395.013-6.59.055-2.68-.774-5.09-2.04-7.405-.946-1.736-2.354-2.937-4.086-3.81-.636-.32-1.11-.242-1.54.383-.9 1.314-1.757 2.658-2.64 3.984-.133.2-.607.062-.692-.226-.11-.373-.257-.766-.234-1.138.028-.382.285-.74.373-1.123.142-.646-.113-1.184-.667-1.528-.62-.384-1.4-.285-1.902.264-.362.394-.49.87-.327 1.38.177.56.43 1.094.588 1.66.125.456-.164 1.054-.376.946-.256-.13-.558-.29-.687-.523-.86-1.57-1.672-3.165-2.51-4.747-.21-.395-.596-.542-1.008-.437-1.063.27-2.07.61-2.924 1.394-3.262 2.987-5.058 6.61-5.048 11.078.008 3.995-.01 7.987-.01 11.98 0 .6-.03 1.204.057 1.793.072.48.22.98.47 1.39.372.623.948 1.045 1.733.946.763-.097 1.222-.592 1.515-1.283.368-.866.267-1.74.175-2.645-.47-4.593-.27-9.15.786-13.66.195-.828.344-1.665 1.09-2.218.237.747.586 1.476.692 2.242.41 2.96.762 5.928 1.088 8.9.11.988.08 1.994.09 2.99.025 3.295.01 6.59.063 9.884.043 2.59.11 5.17.46 7.758.362 2.658.33 5.372.426 8.064.003.192-.316.495-.545.58-.463.167-.966.24-1.457.32-.785.127-1.124-.036-1.308-.818-1.116-4.672-3.776-8.548-6.445-12.395-2.16-3.114-4.493-6.105-6.75-9.15-2.104-2.838-3.46-6.054-4.67-9.33-1.29-3.486-2.095-7.07-1.995-10.818.022-.797.033-1.6-.02-2.395-.27-3.883.708-7.514 2.24-11.02.357-.814.75-1.778 1.42-2.246 1.294-.9 1.626-2.467 2.8-3.442 1.064-.882 1.914-2.03 2.817-3.094 2.27-2.68 4.818-5.04 7.717-7.036 2.423-1.668 5.07-2.8 7.938-3.335 2.148-.403 4.34-.58 6.517-.843 1.02-.126 1.964.14 2.892.565 4.183 1.914 7.595 4.757 10.23 8.512.858 1.22 1.642 2.506 2.327 3.83 2.1 4.078 4.127 8.185 5.115 12.72.875 4.033 1.264 8.062.46 12.155zm-62.75-7.32c-1.896-.833-3.83-1.564-5.73-1.782-.48.032-.78.034-1.07.078-.634.093-1.11.427-1.298 1.05-.18.606-.04 1.187.416 1.637.272.272.593.544.94.697 1.446.637 2.897 1.26 4.368 1.827.945.368 1.925.37 2.89-.012.754-.3 1.142-1.222.812-1.96-.29-.644-.66-1.244-1.327-1.535zM36.47 24.48c.387-.574.27-1.193-.13-1.643-1.375-1.54-2.775-3.064-4.244-4.512-.38-.37-1.054-.442-1.41-.578-.416.035-.612.043-.806.07-1.07.154-1.653 1.275-1.135 2.234.712 1.31 1.562 2.55 2.784 3.41.953.673 2.036 1.174 3.114 1.644.65.285 1.45-.067 1.825-.62zM61.92 12.258c.477.363 1.23.288 1.606-.152.61-.71.885-1.527.937-2.49-.405-1.82-.785-3.65-1.25-5.458-.114-.445-.46-.86-.784-1.21-.338-.368-.81-.59-1.333-.417-.493.163-.882.522-.923 1.05-.173 2.27-.143 4.53.45 6.75.214.8.65 1.43 1.297 1.925zm36.35 3.515c-2.045-1.044-5.91-.673-7.528.8-.325.293-.53.84-.58 1.29-.132 1.18.72 1.952 2.692 1.96.723-.147 2.07-.417 3.415-.692 1.026-.213 1.74-.882 2.38-1.655.51-.62.36-1.325-.377-1.7zm10.568 30.595c-.273-.11-.555-.23-.843-.274-2.357-.35-4.508.29-6.537 1.44-.472.268-.668 1.09-.416 1.596.277.547.656 1.027 1.312 1.076.688.053 1.382.013 2.56.013.207-.016.907-.02 1.59-.126.778-.12 1.553-.29 2.312-.51.693-.204 1.08-.837 1.093-1.6.017-.758-.354-1.322-1.073-1.615zm-37.395-9.653c-.708-.548-1.06-1.083-1.06-1.966-.002-.587-.117-1.195-.31-1.752-.6-1.77-1.725-2.554-3.58-2.58-1.553-.022-2.46.332-3.348 1.578-.572.8-1.062 1.7-1.39 2.627-.368 1.04-.7 1.988-1.64 2.734-.855.683-.892 2.013-.03 2.632 1.153.83 1.532 1.98 2.07 3.157.445.97 1.102 1.946 1.908 2.63 1.755 1.482 4.26 1.41 5.423-1.185.284-.627.427-1.326.565-2.008.223-1.095.59-2.006 1.53-2.78 1.033-.852.944-2.258-.135-3.09zm-4.05 6.27c-.067.13-.295.175-.447.26-.077-.174-.235-.35-.22-.513.06-.917.968-1.672.24-2.784-.436-.67-.243-1.717-.54-2.517-.422-1.125-.342-2.117.293-3.103.206-.318.314-.82.81-.683.21.056.428.414.483.67.238 1.153.42 2.32.627 3.483-.068 1.84-.4 3.57-1.245 5.184z"/></svg>