<svg xmlns="http://www.w3.org/2000/svg" width="128" height="128" viewBox="0 0 128 128"><path d="M106.92 81.653c-1.023-4.5-2.884-8.752-5.5-12.606-2.76-4.068-6.516-6.714-11.324-7.908-3.394-.847-6.813-.67-10.24-.55-.64.02-1.287.11-1.906.264-4.144 1.032-7.804 2.955-10.875 5.95-.768.75-1.506 1.528-2.27 2.283-.364.363-.696.233-.89-.334-.135-.405-.29-.808-.38-1.225-.704-3.244-1.423-6.483-2.075-9.735-.315-1.573-.597-3.163-.725-4.757-.323-3.94-1.692-7.494-3.67-10.87-1.473-2.52-3.735-4.078-6.27-5.326-.58-.286-1.278-.09-1.747.434-.288.318-.57.646-.806 1.003-1.003 1.52-1.975 3.06-2.99 4.577-.29.435-.66.827-1.04 1.197-.082.083-.47.037-.504-.04-.494-1.19-.942-2.385-.284-3.68.34-.667.63-1.363.885-2.07.34-.95-.32-2.01-1.35-2.104-.853-.078-1.717-.083-2.57-.022-1.05.075-1.674 1.024-1.407 2.088.102.408.227.85.475 1.175 1.114 1.452.767 3.043.497 4.625-.025.16-.254.363-.42.4-.16.033-.403-.078-.53-.206-.224-.225-.418-.494-.565-.777-1.146-2.18-2.42-4.306-3.364-6.574-.783-1.888-1.246-2.14-3.08-1.427-1.52.59-2.96 1.21-4.044 2.49-.483.57-1.08 1.043-1.585 1.595-2.977 3.236-4.878 6.962-5.582 11.36-.395 2.465-.4 4.912-.41 7.372-.022 5.472.016 10.944-.005 16.418-.005 1.094.18 2.133.563 3.14.525 1.383 1.67 2.16 2.938 2.046 1.437-.13 2.587-1.194 2.764-2.684.1-.846.06-1.712.053-2.57-.03-4.078-.036-8.156-.12-12.233-.058-2.918.45-5.773.94-8.62.288-1.678.858-3.323 1.792-4.793.074-.126.287-.18.444-.235.03-.01.152.155.173.25.224 1.045.495 2.086.644 3.144.303 2.117.48 4.255.81 6.37.76 4.88 1.13 9.784 1.085 14.726-.043 4.614.11 9.23.04 13.844-.065 4.2.436 8.357.86 12.508.284 2.78.427 5.547.538 8.33.102 2.56.34 5.115.527 7.67.02.32.048.645.128.955.32 1.203 1.375 2.098 2.508 2.155 1.593.08 2.89-.688 3.214-2.096.284-1.245.5-2.54.485-3.808-.02-2.14-.352-4.274-.376-6.414-.056-6.008-.02-12.018-.02-18.027 0-.107.012-.213.02-.32.03-.614.38-1.003.937-1.154.715-.195 1.445-.353 2.18-.45.587-.074 1.06.345 1.088.9.032.644.07 1.29.034 1.93-.065 1.175-.29 2.35-.26 3.52.084 3.536.257 7.07.393 10.605l-.068.002c0 3.648-.006 7.296.004 10.944 0 .644 0 1.297.11 1.925.172 1.02.77 1.807 1.747 2.136 1.03.348 2.112.377 3.147-.074 1.145-.498 1.93-1.25 2.136-2.583.278-1.78.758-3.503.065-5.34-.324-.86-.16-1.908-.192-2.875-.03-.963.085-1.947-.058-2.893-.858-5.654-.672-11.336-.54-17.02.018-.856.026-1.722-.076-2.57-.516-4.278-.394-8.553-.09-12.837.108-1.488-.042-2.995-.1-4.49-.05-1.392-.217-2.78-.19-4.17.066-3.103.224-6.207.35-9.313.033-.747.093-1.496.16-2.244.028-.32.036-.67.178-.94.127-.24.404-.43.66-.55.07-.034.368.22.437.395 1.182 2.88 2.126 5.853 2.49 8.943.253 2.136.657 4.222 1.153 6.307.57 2.394 1.117 4.802 1.454 7.235.192 1.392.63 2.464 1.833 3.186.435.264.472.594.306 1.068-.884 2.524-1.802 5.04-2.585 7.595-.893 2.913-.795 5.94-.736 8.943.11 5.493 2.14 10.275 5.803 14.278 5.572 6.09 12.783 8.09 20.73 7.318 5.18-.5 9.98-2.453 14.188-5.62 3.768-2.83 6.63-6.37 8.304-10.826 1.056-2.823 1.658-5.717 2.06-8.72.41-3.06.142-6.053-.515-8.93zM99.747 94.1c-.65 2.758-2.002 5.185-3.71 7.425-.99 1.3-2.274 2.27-3.586 3.202-3.83 2.728-8.37 4.066-12.895 4.124-3.054-.333-6.296-.777-9.192-2.72-3.893-2.62-6.045-6.29-6.944-10.77-.445-2.208-.56-4.424-.23-6.705.304-2.112.25-4.28.88-6.35.25-.814.415-1.722.9-2.385 2.333-3.2 4.51-6.53 7.684-9.03 1.624-1.28 3.45-2.13 5.294-3.002 1.073-.508 2.07.38 3.08-.05.887-.378 1.748-.817 2.764-.722 2.243.21 4.48.405 6.557 1.39 2.077.987 3.792 2.35 5.084 4.305 1.902 2.893 3.342 5.988 4.413 9.26.26.797.29 1.676.367 2.525.06.64-.112 1.323.056 1.92.736 2.605.064 5.093-.52 7.587zM32.533 24.86c.966.32 1.18 1.11 1.44 1.953.565 1.85 1.36 3.616 2.635 5.086.62.71 1.347 1.41 2.165 1.85 3.065 1.646 6.024.773 7.408-2.42.6-1.38 1.084-2.794 1.175-4.3.068-1.136.37-2.046 1.493-2.606 1.712-.85 2.02-2.384 1.664-4.088-.095-.48-.402-1.13-.788-1.303-1.487-.665-1.93-1.763-1.918-3.302.008-.83-.315-1.67-.54-2.493-.67-2.443-2.528-4.343-5.82-4.21-2.347-.224-4.224.885-5.488 2.94-.832 1.356-1.628 2.812-2.016 4.33-.34 1.325-.798 2.25-1.94 3.084-1.908 1.398-1.89 3.247-.223 4.9.223.225.47.49.754.58zm8.87-8.57c.412-.747.822-1.493 1.25-2.23.236-.404.687-.328.94.118.755 1.335.917 2.818 1.045 4.3.067.74.01 1.492.01 2.3.204 2.544-.4 5.02-1.273 7.44-.125.35-.525.624-.85.864-.125.092-.43.047-.587-.05-.147-.09-.322-.372-.277-.49.343-.892.766-1.753 1.103-2.645.195-.515.17-1.1-.29-1.47-.648-.516-.98-.98-.542-1.867.453-.904.314-1.806-.355-2.682-.85-1.105-.848-2.357-.17-3.59zm44.954 82.142c-.386-.178-.803-.29-1.2-.444-.45-.173-.652-.54-.64-.992.062-2.243.156-4.487.214-6.733.06-2.443-.176-4.904 1.794-6.912.736-.745.047-2.28-.976-2.622-.4-.135-.83-.282-1.243-.262-2.13.09-4.27.18-6.394.38-.714.07-1.436.406-2.096.737-.87.44-1.03 1.824-.3 2.49.385.353.86.627 1.33.854.573.277 1.2.432 1.78.697.74.34.932.728.836 1.52-.366 3.073-.735 6.145-1.1 9.215-.072.61-.38.96-1.024.954-.78-.007-1.61.088-1.94.85-.46 1.06-.8 2.19-1.05 3.322-.212.968.47 1.696 1.428 1.67 1.602-.05 3.2-.133 4.802-.202 0 .028 0 .056.002.083 1.71.077 3.413.203 5.127.216 1.34.008 2.14-.896 2.182-2.25.04-1.193-.437-2.068-1.53-2.572zm-3.818-21c.105-.003.21-.012.32-.02 1.877-.164 3.177-1.27 3.614-3.08.366-1.5-.632-3.113-2.13-3.41-.416-.083-.846-.097-1.187-.133-.405.027-.725.035-1.04.076-1.923.245-3.366 1.984-3.136 3.765.253 1.974 1.437 2.9 3.56 2.8z"/></svg>