<svg xmlns="http://www.w3.org/2000/svg" width="128" height="128" viewBox="0 0 128 128"><path d="M85.84 79.087c.007-.107.005-.213.007-.32.02-8.58.043-17.163.046-25.743.002-.747-.008-1.525-.206-2.234-.877-3.11-2.067-6.085-3.973-8.732-1.425-1.978-3.454-3.173-5.528-4.313-.627-.344-1.195-.224-1.704.405-.604.747-1.163 1.536-1.698 2.336-.835 1.245-1.627 2.52-2.46 3.77-.174.26-.415.495-.67.67-.108.068-.423 0-.507-.108-.625-.818-.84-1.728-.45-2.714.275-.696.62-1.365.875-2.07.198-.548.032-1.106-.395-1.467-1.032-.873-2.216-1.273-3.573-.832-.928.3-1.372 1.005-1.18 1.952.15.734.275 1.49.56 2.172.433 1.04.442 2.08.284 3.155-.032.197-.16.382-.245.572-.187-.096-.437-.145-.55-.295-.38-.514-.75-1.043-1.055-1.604-.966-1.788-1.906-3.587-2.846-5.386-.15-.284-.258-.587-.38-.883-.528-1.246-.995-1.547-2.1-1.22-1.748.524-3.472 1.1-4.692 2.606-.402.498-.917.9-1.365 1.362-3.887 4.025-5.98 8.82-6.128 14.43-.046 1.716-.043 3.434-.043 5.147.005 5.362.01 10.726.04 16.088.007.85.028 1.734.255 2.543.53 1.912 2.06 2.7 3.992 2.18.78-.208 1.365-.7 1.552-1.483.248-1.03.444-2.053.363-3.16-.465-6.42-.576-12.85.437-19.232.367-2.31.79-4.652 2.116-6.676.084-.13.362-.15.556-.18.05-.01.164.135.18.223.218 1.15.45 2.3.62 3.46.825 5.614 1.688 11.227 1.672 16.927-.004 1.61.027 3.218.006 4.826-.093 6.973.288 13.93.608 20.892.028.642.08 1.283.16 1.92.5 3.933 1.028 7.857.976 11.835-.02 1.608.032 3.218.136 4.82.092 1.393 1.18 2.62 2.528 3.02 1.103.325 2.5-.25 3.313-1.467.286-.424.48-.97.535-1.477.09-.85.043-1.713.037-2.57L65.85 91.64c-.003-.858-.012-1.717.022-2.574.032-.94.36-1.266 1.376-1.43.424-.066.85-.11 1.278-.13.843-.047 1.252.274 1.29 1.04.04.748.04 1.5.04 2.25.004 2.575-.017 5.15 0 7.723.006.962-.07 1.973.185 2.877.454 1.585.397 3.183.444 4.785.032 1.07-.043 2.15.043 3.216.17 2.026.395 4.063 1.264 5.935.528 1.135 2.03 1.81 3.244 1.576 1.44-.28 2.522-1.475 2.56-2.89.014-.534.026-1.1-.136-1.597-.61-1.877-.5-3.808-.55-5.736-.043-1.71-.15-3.422-.275-5.13-.085-1.168-.356-2.33-.363-3.494-.036-6.97-.018-13.938-.018-20.91h-.015c0-7.076.013-14.154-.01-21.23-.005-1.408.095-2.784.603-4.107.075-.196.196-.373.293-.558.237.172.608.3.687.527.592 1.717 1.2 3.435 1.656 5.19.405 1.554.525 3.16.48 4.78-.113 4.176.203 8.357-.3 12.53-.19 1.59-.148 3.215-.104 4.82.053 1.945 1.48 3.4 3.168 3.365 1.824-.03 2.98-1.28 3.13-3.383zm-40.65 20.37c-3.69-4.74-7.27-9.555-10.54-14.593-1.307-2.016-1.268-2.064.664-3.612.416-.335.86-.64 1.296-.953 1.338-.96 2.162-2.363 3.106-3.653.496-.68.35-1.46-.144-2.1-.32-.412-.723-.822-1.18-1.044-1.25-.606-2.53-1.11-3.922-1.392-1.455-.295-2.86-.863-4.264-1.364-.806-.288-1.547-.772-2.36-1.01-3.306-.965-6.478-2.222-9.537-3.8-1.136-.586-2.37-1.033-3.5-.904-2.823-.02-4.4 1.78-4.065 4.335.18 1.376.373 2.763.405 4.145.103 4.61.103 9.225.214 13.835.05 1.924.243 3.846.448 5.76.11 1.03.94 1.664 2.008 1.74.9.063 1.704-.16 2.353-.805.38-.378.783-.747 1.088-1.184 1.02-1.452 2.41-2.408 3.98-3.167 1.42-.685 1.586-.662 2.587.73 1.128 1.57 2.24 3.14 3.356 4.716 3.113 4.38 6.426 8.587 10.362 12.267.625.584 1.254 1.177 1.952 1.664.942.656 2.05.76 3.072.3 1.674-.754 3.13-1.867 4.31-3.283.254-.31.403-.768.457-1.175.173-1.308.05-2.578-.76-3.685-.443-.604-.93-1.175-1.388-1.767zm-22.545-24.66c-.322.662-.666.076-.947-.097-.44-.274-.86-.594-1.244-.942-.098-.093-.1-.414-.017-.548.094-.15.333-.21.67-.397.366.158.865.306 1.29.576.544.344.478.93.247 1.406zm8.502 17.398c-.05.1-.427.15-.434.132-.275-.683-.634-1.355-.75-2.067-.186-1.154-.29-2.313-.79-3.398-.202-.446-.68-.892-.22-1.454.333.395.71.762.996 1.188.87 1.3 1.58 3.29 1.63 4.55-.107.273-.24.677-.433 1.05zm1.07-14.726c-.48.414-.988 1.077-1.512 1.104-1.768.092-3.067.736-3.85 2.357-.068.137-.374.2-.57.217s-.446-.025-.59-.142c-.098-.08-.13-.384-.056-.5.346-.538.745-1.044 1.12-1.567.707-1.002.663-1.124-.714-1.606 0 .018 0 .032-.002.05-.068.018-.14.036-.203.063-.052.058-.106.114-.157.173.032-.053.053-.13.1-.156.018-.01.04-.01.06-.018l.125-.14c.03.012.05.02.08.03.022-.3 0-.613.098-.886.633-1.803.65-1.79 2.466-.984 1.167.518 2.363.97 3.53 1.488.09.043.15.452.076.517zm2.928 17.57c-.18-.204-.356-.41-.535-.614.075-.06.18-.187.22-.168.227.106.436.247.667.383l-.35.4zm6.333 9.15c-.224-.034-.505-.335-.573-.575-.078-.262.056-.587.115-.88.006-.026.188-.063.23-.026.294.255.575.532.952.887-.32.275-.55.615-.725.59zm77.52-34.665c-.19-.63-.705-1.173-1.413-1.13-2.283.134-4.442-.666-6.68-.772-2.14-.1-4.286-.02-6.43-.02v-.016c-1.823 0-3.643-.01-5.466.004-.644.007-1.293.026-1.92.125-1.357.21-2.24 1.664-1.65 2.888 1.023 2.117 2.147 4.19 3.31 6.235.364.633.96 1.143 1.497 1.663 1.148 1.117 1.148 1.09.13 2.08-1.538 1.493-3.092 2.97-4.575 4.516-3.488 3.633-6.944 7.298-10.4 10.96-.59.623-1.17 1.263-1.662 1.96-1.186 1.685-1.455 4.597-.486 6.42.903 1.7 1.907 3.356 2.987 4.948 1.24 1.828 2.783 1.86 4.223.21.21-.243.398-.51.55-.79 1.3-2.392 3.173-4.32 5.167-6.112 3.36-3.016 6.47-6.227 9.12-9.91 1.823-2.533 3.154-2.263 4.628.09.8 1.268 1.536 2.584 2.382 3.815.542.784 1.158 1.557 1.888 2.155 1.207.984 3.022.27 3.203-1.224.258-2.126.437-4.26.63-6.392.303-3.302.458-6.627.926-9.905.444-3.096.433-6.192.475-9.294.015-.835-.186-1.696-.43-2.5zm-29.73 32.93c-.163.13-.326.26-.492.388l-.15-.79c.182-.03.38-.122.543-.082.3.07.323.27.096.486zm2.62-3.365c-.596-.065-1.164-.4-1.738-.643-.064-.027-.145-.21-.124-.233.58-.6 1.167-1.195 1.777-1.76.035-.034.37.133.42.263.193.496.323 1.013.518 1.67-.25.222-.583.736-.85.704zm5.078-6.648c-.23-.188-.422-.422-.626-.644.17-.096.4-.305.497-.256.23.12.402.363.614.57-.23.16-.45.358-.485.33zm5.995-18.114l.226.506c-.11.073-.222.144-.334.213-.036-.174-.097-.35-.1-.526-.002-.06.135-.126.21-.19zm1.586 12.096c-.038.176-.253.46-.378.453-.827-.04-1.653-.13-2.47-.252-.08-.014-.216-.43-.15-.512.468-.57.956-1.13 1.497-1.63.354-.33.768-.884 1.3-.49.268.195.273.747.353 1.01-.055.577-.062 1.008-.15 1.42zm-.192-6.86c-.296-.11-.6-.204-.89-.327-.265-.11-.618-.174-.362-.62.265-.455.484-.938.74-1.396.224-.4.527-.36 1.003 0 .544.416.885.893.818 1.597-.074.685-.625 1-1.31.747zm6.205 7.065c-.726-.45-1.32-1.01-1.537-1.87-.023-.092.016-.212.062-.304.046-.088.18-.23.203-.22.704.4 1.413.8 2.09 1.25.112.074.07.375.1.57-.05.405-.614.76-.92.572zm2.857-12.028c-.203-.18-.313-.555-.328-.85-.033-.572.462-.87 1.122-.66.26.084.464.356.655.513-.117.635-1.12 1.295-1.45.998zM57.513 25.557c1.296.442 1.648 1.547 2.005 2.69.544 1.757 1.443 3.338 2.592 4.766 1.278 1.585 2.94 2.438 5.525 2.507.896.14 1.916-.544 2.843-1.538.992-1.063 1.43-2.375 1.794-3.714.31-1.13.446-2.306.736-3.445.096-.373.384-.74.674-1.015.384-.366.892-.597 1.283-.955 1.67-1.532 1.62-3.997-.336-5.18-1.218-.733-1.6-1.563-1.56-2.84.05-1.54-.423-2.956-1.187-4.276-.666-1.15-1.59-1.952-2.912-2.34-3-.886-5.53-.15-7.412 2.322-1.113 1.457-1.894 3.106-2.344 4.883-.29 1.157-.67 2.066-1.79 2.83-1.995 1.36-2.005 3.12-.38 4.88.144.154.284.366.467.426zm9.683-9.14c.29-.434.463-.948.702-1.422.088-.17.21-.325.317-.485.173.117.395.2.514.36.65.87 1.07 1.84 1.073 2.95.006 1.28.002 2.56.002 3.84.16 2.468.06 4.917-.944 7.224-.202.47-.545.91-.922 1.254-.16.144-.588.04-.874-.032-.077-.02-.158-.37-.1-.512.282-.69.57-1.382.93-2.032.53-.954.655-1.777-.375-2.505-.52-.37-.437-.954-.197-1.445.42-.857.323-1.637-.166-2.42-1.006-1.596-1.02-3.18.037-4.775z"/></svg>