<svg xmlns="http://www.w3.org/2000/svg" width="128" height="128" viewBox="0 0 128 128"><path d="M59.67 76.765c.034-7.403 0-14.805.124-22.203.056-3.426-.853-6.544-2.26-9.597-1.48-3.213-3.58-5.803-6.813-7.413-1.347-.67-2.17-.597-3.017.655-1.2 1.774-2.32 3.603-3.5 5.393-.26.392-.417 1.106-1.053.87-.303-.112-.47-.683-.628-1.073-.288-.72-.317-1.43.046-2.17.227-.463.337-1.01.384-1.532.058-.683-.253-1.27-.843-1.627-1.005-.602-2.054-.594-3.046.02-1.008.622-1.423 1.84-.712 2.75.977 1.253.928 2.555.68 3.946-.028.143-.21.274-.35.373-.038.026-.212-.066-.266-.144-.36-.53-.74-1.048-1.047-1.61-1.025-1.88-2.028-3.772-3.02-5.67-.194-.372-.28-.802-.44-1.194-.44-1.083-.864-1.317-1.978-.928-1.106.387-2.385.643-3.217 1.376-2.65 2.335-5.29 4.72-6.795 8.048-1.388 3.06-2.242 6.23-2.236 9.62.01 5.9-.046 11.8-.053 17.7 0 1.5.068 3 .117 4.503.037 1.147.576 2.042 1.444 2.76 1.428 1.18 3.65.672 4.29-1.054.37-.995.63-2.045.444-3.15-.142-.843-.282-1.7-.282-2.552 0-5.352-.324-10.716.574-16.038.427-2.542.925-5.058 2.165-7.355.085-.155.34-.282.526-.293.125-.008.365.192.384.32.333 2.334.604 4.676.97 7.003.747 4.77 1.232 9.555 1.21 14.392-.037 7.72-.002 15.44.535 23.144.098 1.387.346 2.763.413 4.15.17 3.532.87 7.018.785 10.57-.036 1.5.058 3.003.1 4.504.012.427-.028.88.09 1.28.486 1.664 1.44 2.737 3.522 2.567 1.608-.134 2.71-1.25 2.822-2.955.056-.853.017-1.713.013-2.57-.03-6.975-.062-13.948-.09-20.918-.003-.752.003-1.502.026-2.25.02-.6.33-1.022.907-1.164.717-.178 1.445-.344 2.18-.416.473-.045.813.3.825.784.043 1.714.053 3.43.068 5.144.02 2.466-.235 4.973.123 7.39.38 2.57.326 5.12.417 7.68.037 1.072.092 2.144.128 3.214.058 1.65.666 3.136 1.385 4.578.466.93 1.27 1.43 2.335 1.45.535.008 1.075.033 1.604-.022.875-.096 1.604-.78 1.68-1.685.084-1.064.09-2.142.034-3.207-.15-2.78-.444-5.553-.507-8.333-.158-6.86-.11-13.72-.768-20.56-.1-1.064-.09-2.142-.094-3.215-.01-3.645-.004-7.293-.004-10.94h.043c0-4.825.008-9.652-.008-14.476-.004-1.197.15-2.352.644-3.445.065-.142.314-.32.434-.292.18.043.4.218.475.39 1.053 2.47 2.06 5.02 2.097 7.7.064 4.494.304 8.998-.173 13.494-.203 1.917-.133 3.858-.18 5.79-.007.212 0 .428.03.64.246 1.772 1.3 2.81 2.913 2.88 1.826.08 3.053-.916 3.313-2.778.108-.74.076-1.5.078-2.25zm50.058-3.374c-1.917-2.972-3.845-5.936-5.813-8.873-.814-1.21-2.496-1.464-3.7-.605-.517.372-.993.822-1.424 1.297-1.734 1.9-3.427 3.837-5.17 5.727-1.816 1.973-3.662 3.915-5.514 5.85-.446.468-1.016.445-1.397 0-.42-.487-.82-.993-1.2-1.51-2.737-3.723-4.84-7.837-7.16-11.812-.38-.646-.68-1.34-1.076-1.973-.54-.855-1.312-1.06-2.19-.508-2.913 1.835-5.485 4.102-7.91 6.533-1.028 1.03-1.224 2.475-1.634 3.793-.112.363.027.853.18 1.233.2.492.49.96.81 1.388 3.366 4.485 5.68 9.57 8.254 14.508.43.82.405 1.077-.203 1.704-2.24 2.31-4.52 4.578-6.74 6.91-1.473 1.55-2.833 3.212-4.306 4.766-1.173 1.24-1.984 2.767-3.367 3.86-1.18.935-1.22 2.05-.623 3.49.635 1.535 1.7 2.754 2.952 3.76 1.352 1.086 2.546 2.283 3.525 3.7 1.41 2.04 2.87 2.505 4.8.04 1.92-2.454 4.18-4.593 6.497-6.678 1.992-1.792 3.985-3.59 5.58-5.775.458-.63.848-.648 1.254-.043 2.69 3.997 6.073 7.488 8.524 11.664.6 1.026 1.682 1.517 2.734 1.16.565-.192 1.096-.637 1.523-1.083 2.525-2.628 4.998-5.306 7.52-7.935.803-.843 1.546-1.746 2.7-2.22.68-.284.787-.978.51-1.648-.634-1.507-1.587-2.784-2.737-3.936-2.82-2.82-4.964-6.175-7.298-9.375-.512-.7-.472-1.014.146-1.69 1.45-1.583 3.007-3.074 4.36-4.73 1.98-2.418 4.133-4.643 6.53-6.645.56-.468 1.018-1.08 1.47-1.668.183-.238.23-.587.378-1-.238-.524-.437-1.142-.775-1.67zm-43.163 31.94c-.083-.266-.235-.53-.23-.793.005-.163.222-.355.388-.472.12-.085.315-.085.475-.08.04 0 .073.18.11.276-.016.21.047.485-.062.62-.163.2-.448.304-.68.45zm1.168 4.43c-.064-.08-.174-.154-.187-.24-.036-.246-.046-.496-.064-.743-.03-.028-.064-.053-.093-.082l-.013-.114c-.58-.25-.465-.763-.387-1.256.012-.068.103-.125.157-.188.047.096.12.19.132.288.04.384.066.77.1 1.154.03.014.052.03.09.043.003.05.01.103.012.156.176.153.368.296.475.486.053.095-.142.332-.224.5zm3.286-40.287c-.115-.092-.165-.414-.093-.555.144-.274.363-.53.604-.728.993-.814 1.998-1.612 3.014-2.39.47-.358.894-.19 1.254.46.106.185.177.388.262.586-.05.18-.053.48-.158.523-1.5.6-2.834 1.472-4.126 2.43-.117.086-.546-.153-.757-.326zm3.236 4.358c-.24.135-.52.198-.783.29-.1-.27-.273-.5-.22-.643.104-.283.292-.563.52-.764.865-.765 1.755-1.504 2.65-2.242.786-.65.952-.64 1.795.265.25.267.348.672.514 1.013-.29.085-.58.227-.875.245-1.473.096-2.425 1.178-3.603 1.837zm31.2 1.61c-.94.88-1.88 1.756-2.833 2.617-3.26 2.948-6.525 5.888-9.786 8.832-.317.287-.627.586-.928.892-.827.844-.914 1.105-.286 2.262 1.126 2.066 2.315 4.1 3.514 6.126 1.53 2.58 3.085 5.14 4.653 7.696.353.573.18.992-.207 1.423-.86.952-1.712 1.91-2.566 2.87-.886.99-2.5.782-3.2-.416-.212-.373-.603-.754-.593-1.122.045-1.528-.8-2.264-2.06-2.89-.833-.417-.866-1.033-.356-2.13.25-.54.35-.995-.106-1.447-.333-.328-.71-.427-1.17-.273-.295.1-.647.262-.906.18-.216-.07-.523-.58-.456-.68.576-.897 1.237-1.738 1.852-2.61.53-.76.563-1.27.165-1.756-.468-.572-1.328-.675-2.03-.19-.44.302-.827.677-1.235 1.024-.725.62-.768.672-1.838-.165-.78-.61-1.62-.098-2.404-.328-.098-.028-.356.242-.427.416-.198.496-.27 1.048-.523 1.508-.18.33-.57.55-.864.82-.18-.236-.374-.46-.534-.71-.277-.44-.51-.91-.81-1.334-.21-.288-.985-.226-1.137.107-.217.467-.48.992-.46 1.478.043.847.31 1.68.433 2.525.043.303.026.677-.12.928-.144.245-.47.48-.743.523-.253.038-.678-.11-.797-.31-.378-.633-.625-1.342-.973-1.99-.075-.14-.407-.274-.547-.22-.262.104-.627.317-.67.536-.138.732-.148 1.485-.21 2.228l.147.016c-.08.734-.135 1.474-.262 2.2-.027.155-.296.336-.48.373-.134.022-.4-.135-.456-.27-.286-.69-.5-1.41-.78-2.105-.118-.29-.268-.617-.502-.806-.222-.18-.57-.268-.867-.275-.153-.002-.37.224-.46.395-.355.698-.372 1.43-.176 2.187.264 1.024.512 2.054.72 3.09.03.14-.19.414-.35.478-.14.058-.495-.048-.53-.158-.267-.802-.477-1.624-.708-2.44-.174-.607-.225-1.28-.882-1.628-.525-.278-.448-.654-.096-.993 2.784-2.67 5.515-5.404 8.395-7.965 1.383-1.225 2.433-2.7 3.67-4.027.2-.216.403-.632.326-.866-.41-1.263.53-1.964 1.06-2.85.333-.557-.23-1.443-.864-1.355-.52.073-1.013.31-1.533.403-.157.027-.417-.135-.513-.285-.09-.145-.114-.46-.02-.57.547-.652 1.2-1.22 1.682-1.91.19-.274.13-.82.014-1.188-.14-.437-.988-.63-1.402-.33-.514.365-.955.837-1.46 1.215-.097.066-.433-.054-.54-.185-.085-.107-.064-.445.035-.528.736-.608 1.532-1.146 2.25-1.77.32-.276.475-.694.236-1.16-.278-.534-.744-.88-1.284-.754-.716.165-1.398.51-2.06.84-.44.22-.798.253-1.11-.152-.5-.645-.596-1.385-.2-1.747.39-.357.827-.668 1.26-.978.434-.313.91-.57 1.33-.903.57-.456 1.1-.957 1.65-1.44.98.456 1.11 1.497 1.556 2.31.774 1.408 1.448 2.874 2.26 4.256.425.725.967 1.448 1.622 1.955 1.067.822 2.264 1.236 3.797.068 2.3-1.755 4.622-3.466 6.635-5.572 2.07-2.17 4.213-4.275 6.357-6.38.552-.543.864-.44 1.255.182.86 1.355 1.727 2.71 2.587 4.064.266.428.182.816-.165 1.142zM31.41 25.14c.08.068.176.14.276.165.86.222 1.086.968 1.362 1.658.358.893.644 1.818 1.042 2.69.72 1.58 1.758 2.943 3.115 4.03 2.846 2.29 6.468 1.533 8.035-1.74.5-1.046.78-2.213 1.058-3.347.43-1.753.757-3.365 2.566-4.507 1.715-1.083 1.39-3.72-.27-4.96-.17-.124-.37-.212-.565-.303-.757-.347-1.124-.912-1.12-1.765.005-1.288-.145-2.545-.615-3.777-1.017-2.645-2.74-3.9-5.583-3.932-2.635-.03-4.4.965-5.805 3.288-.89 1.473-1.637 3.02-2.005 4.705-.215 1-.687 1.615-1.544 2.24-2.305 1.68-2.183 3.613.05 5.553zm8.993-8.01c.354-1.1.94-2.128 1.445-3.18.025-.05.348-.05.408.025.74.925 1.373 1.896 1.355 3.157-.02 1.277-.002 2.555-.002 3.12.23 3.183.006 5.612-.917 7.927-.19.466-.543.9-.92 1.24-.154.132-.585.014-.857-.077-.09-.03-.166-.376-.11-.514.332-.784.68-1.564 1.074-2.318.403-.777.33-1.43-.373-1.97-.478-.37-.655-.843-.42-1.393.45-1.076.347-1.977-.4-2.95-.67-.88-.607-2.057-.28-3.073z"/></svg>