<svg xmlns="http://www.w3.org/2000/svg" width="128" height="128" viewBox="0 0 128 128"><path d="M115.258 45.176c-.843-2.652-1.62-5.325-2.35-8.01-1.178-4.335-2.333-8.678-3.422-13.036-.405-1.632-1.202-2.965-2.457-4.028-.99-.836-2.11-.98-3.303-.422-1.45.676-2.208 2.05-1.935 3.68.16.95.464 1.87.663 2.813.04.177-.094.392-.15.59-.175-.108-.372-.19-.522-.326-.233-.216-.46-.452-.643-.712-2.642-3.704-5.927-6.766-9.57-9.448-3.916-2.88-8.19-5.088-12.876-6.404-4.15-1.165-8.405-1.565-12.912-1.534-4.44-.116-8.95.713-13.42 1.894-4.927 1.303-9.38 3.59-13.67 6.272C30.766 21.46 24.07 27.67 18.865 35.47c-3.587 5.38-5.547 11.316-6.313 17.68-.152 1.266-.133 2.57-.066 3.85.096 1.87 1.058 2.95 2.942 3.25 1.156.182 2.35.217 3.525.2 2.985-.035 4.97-2.013 5.107-5.03.037-.857.01-1.716.02-2.574.06-3.467.708-6.807 2.17-9.966.764-1.652 1.59-3.276 2.362-4.927 1.66-3.552 3.776-6.723 7.176-8.862.18-.112.33-.273.5-.4 3.017-2.236 6.042-4.464 9.505-5.98 3.435-1.503 6.933-2.843 10.595-3.71 5.01-1.182 10.048-2.155 15.243-1.75.96.074 1.95.065 2.87.31 6.478 1.722 12.176 4.864 16.468 10.057 3.2 3.872 6.008 8.07 8.975 12.134.085.116.06.424-.037.54-.117.135-.37.216-.56.214-.317 0-.64-.064-.95-.14-1.137-.29-2.262-.67-3.417-.88-1.58-.282-2.988.116-4.03 1.423-.59.736-.698 1.573-.31 2.415.31.67.886 1.245 1.08 1.935.413 1.468 1.456 2 2.786 2.31 1.872.433 3.726.948 5.6 1.386 1.872.434 3.744.913 5.643 1.185 1.805.26 3.583.576 5.322 1.13 1.83.583 3.12-.022 3.924-1.727.67-1.424.743-2.844.262-4.364zm-7.46 39.328c-.515.8-.924 1.7-1.22 2.606-.91 2.787-2.323 5.284-4.12 7.586-2.127 2.72-4.58 5.102-7.275 7.253-6.385 5.102-13.547 8.16-21.817 8.326-6.23.126-12.442.018-18.543-1.45-4.177-1.004-8.254-2.303-12.068-4.327-6.66-3.535-11.41-8.97-15.23-15.33-.092-.152-.12-.436-.037-.57.085-.14.37-.268.526-.225 1.344.355 2.627.853 3.9 1.44 2.75 1.26 5.37-.034 5.962-2.844.346-1.642-.38-2.93-1.62-3.932-1.35-1.093-2.89-1.814-4.594-2.214-3.143-.74-6.1-1.995-9.017-3.364-1.357-.637-2.757-1.188-4.15-1.742-1.138-.452-2.31-.443-3.468-.07-1.502.483-2.48 1.882-2.347 3.445.192 2.242.437 4.48.685 6.717.36 3.298.743 6.596 1.117 9.893.232 2.022.3 4.08.734 6.06.62 2.818 2.443 3.542 4.715 3.302 1.92-.206 3.386-1.865 3.433-4.018.02-.848-.162-1.7-.262-2.55-.063-.528-.165-1.053-.202-1.583-.014-.18.128-.37.2-.557.088.064.197.11.26.19.653.85 1.32 1.692 1.943 2.562 4.464 6.23 10.085 11.09 17.01 14.39 2.03.966 4.11 1.84 6.216 2.63 4.032 1.515 8.26 2.28 12.498 2.85 2.648.354 5.355.27 8.032.38.004-.03.004-.067.004-.1 1.61 0 3.22.027 4.83-.006 7.23-.15 13.94-2.127 20.16-5.788 3.442-2.024 6.6-4.43 9.383-7.28 3.165-3.242 5.677-6.98 7.823-10.967 1.075-2 1.744-4.147 2.15-6.37.313-1.7-.315-3.195-1.287-4.505-1.18-1.586-3.26-1.5-4.325.154zM44.684 95.427c.008.82.42 1.47 1.173 1.77.785.317 1.61.625 2.44.716 1.91.21 2.837-.66 2.87-2.534.005-.32-.03-.644-.033-.966-.043-3.968-.2-7.94-.082-11.904.077-2.557.448-5.123.89-7.65.29-1.678.87-3.32 1.798-4.792.057-.085.204-.216.236-.198.14.085.34.197.37.333.24 1.045.498 2.085.646 3.144.302 2.118.487 4.256.81 6.37.713 4.67 1.157 9.355 1.066 14.082-.015.75-.01 1.502.017 2.25.026.785.256 1.145 1.105 1.33 1.355.292 2.737.445 4.102.7 3.41.633 6.842.28 10.265.22.634-.01 1.263-.24 1.893-.366.636-.126.853-.567.873-1.155.017-.538-.032-1.08.04-1.61.354-2.565.363-5.12-.07-7.68-.143-.837-.066-1.714-.036-2.573.117-3.424.242-6.852.398-10.277.038-.852.187-1.7.33-2.548.028-.164.236-.376.403-.42.155-.044.47.063.527.187 1.124 2.547 2.176 5.12 2.16 7.98-.018 3.003.006 6.01 0 9.012-.005 1.493-.018 2.96-.455 4.448-.352 1.2-.256 2.557-.216 3.837.043 1.347.53 2.598 1.865 3.142 1.47.6 2.75-.017 3.744-1.13.405-.452.74-1.066.86-1.66.236-1.147.396-2.33.417-3.5.054-3.107.02-6.22.02-9.33h.06c0-2.684-.06-5.366.014-8.048.125-4.525-1.106-8.66-3.268-12.597-1.515-2.757-3.787-4.605-6.544-5.952-.725-.357-1.455-.178-2.01.482-.34.41-.65.85-.95 1.296-.887 1.34-1.744 2.703-2.644 4.033-.404.593-.647 1.39-1.56 1.446-.31-.89-.902-1.73-.636-2.728.135-.512.46-.97.63-1.477.26-.772-.13-1.83-.782-2.27-.91-.607-2.51-.567-3.328.13-.615.524-.858 1.228-.71 2.026.06.306.146.69.36.87 1.106.913.93 2.073.688 3.247-.035.174-.227.382-.395.443-.147.054-.427-.017-.533-.135-.285-.316-.555-.66-.747-1.037-1.21-2.385-2.404-4.78-3.584-7.18-.503-1.015-.95-1.247-2.06-.837-1.1.407-2.364.663-3.226 1.383-4.04 3.358-7.22 7.38-8.367 12.636-.48 2.18-.772 4.417-.74 6.694.064 4.933-.008 9.87-.032 14.805-.013 1.183-.072 2.363-.062 3.545zm11.65-49.897c1.52.7 2.024 2.07 2.455 3.498.44 1.457 1.225 2.733 2.146 3.91.515.66 1.138 1.3 1.845 1.738 3.108 1.926 6.454 1.222 7.88-2.342.396-.988.9-2.016.937-3.042.068-1.998.75-3.484 2.57-4.384.087-.047.154-.147.226-.226 1.042-1.163.944-3.85-.398-4.582-1.338-.727-1.762-1.643-1.756-3.06.003-.833-.31-1.67-.52-2.497-.625-2.514-2.506-4.54-6.015-4.356-2.23-.18-4.004.902-5.252 2.81-1.047 1.604-2.016 3.284-2.28 5.243-.106.79-.402 1.404-1.125 1.82-.457.264-.89.605-1.25.987-.965 1.02-1.063 2.368-.287 3.52.24.352.47.806.82.966zm9.42-7.927c.55-.896 1.12-1.78 1.68-2.67 1.247.615 1.19 1.88 1.372 2.96.23 1.356.264 2.747.384 4.123.082 2.507-.544 4.875-1.328 7.203-.123.363-.444.716-.768.937-.184.126-.578.02-.84-.08-.11-.044-.21-.385-.156-.526.28-.69.62-1.354.925-2.03.384-.86.413-1.66-.475-2.25-.414-.277-.57-.67-.363-1.086.65-1.298.388-2.36-.434-3.547-.593-.858-.617-2.03 0-3.037z"/></svg>