<svg xmlns="http://www.w3.org/2000/svg" width="128" height="128" viewBox="0 0 128 128"><path d="M102.632 43.78c-.03.028-.048.06-.078.09l.036.002c.02-.032.038-.064.06-.093h-.02zm-2.373-7.518c-1.605-.08-3.223-.017-4.828.056-1.926.085-3.845.3-5.77.368-3.11.105-6.223.177-9.334.18-3.602.01-6.458 1.176-8.154 4.598-.66 1.337-1.618 2.528-2.45 3.778-.175.264-.365.535-.6.743-.104.092-.465.1-.495.037-.704-1.393-1.65-2.736-.683-4.423.31-.537.44-1.2.544-1.826.157-.94-.596-1.703-1.527-1.6-.42.045-.837.16-1.255.248-1.646.354-2.54.892-1.14 2.842.125.175.288.358.32.555.062.394.17.852.034 1.194-.354.885-.832 1.726-1.26 2.584-1.145-.473-1.234-1.65-1.7-2.576-.764-1.52-1.76-2.904-2.074-4.657-.18-.996-1.085-1.568-2.155-1.648-.64-.048-1.285-.046-1.928-.042-3.22.02-6.44.043-9.66.085-1.287.02-2.578.035-3.858.156-3.73.357-7.457.753-11.18 1.168-.845.094-1.71.224-2.507.507-1.443.513-2.214 1.78-2.016 3.265.112.842.317 1.692.634 2.48.406 1.007.94 1.945-.514 2.538-.725 1.188-1.47 2.364-2.165 3.566-.808 1.386-1.566 2.804-2.36 4.202-2.8 4.934-5.838 9.75-7.91 15.072-.203.513-.474.972-1.04 1.14-1.132.337-1.36 1.144-1.386 2.227-.03 1.553.228 3.02 1.077 4.3 2.177 3.28 4.803 5.966 8.817 7.06 2.73.744 5.515.97 8.267.987 2.8.015 5.55-.787 7.608-2.93 2.244-2.335 4.256-4.85 4.864-8.167.195-1.07.453-2.07 1.163-2.95.612-.76.447-1.61-.076-2.387-.476-.714-.943-1.435-1.45-2.124-1.533-2.07-3.022-4.17-4.635-6.174-2.908-3.616-5.153-7.633-7.387-11.665-.414-.75-.806-1.51-1.21-2.263.85-.61 1.827-.337 2.73-.313 6.63.178 13.28-.455 19.894.532 1.478.22 2.414.79 2.866 2.133.273.803.45 1.647.57 2.49.303 2.12.502 4.257.822 6.38.72 4.772 1.242 9.56 1.224 14.4-.026 7.72-.02 15.443.53 23.16.1 1.383.35 2.76.412 4.147.16 3.533.88 7.023.792 10.577-.037 1.606.056 3.217.102 4.827.01.428.015.865.105 1.28.3 1.403 1.993 2.69 3.325 2.553 1.506-.156 2.857-1.437 2.987-2.924.077-.854.04-1.718.036-2.576l-.1-20.604c-.003-.86-.01-1.717.02-2.575.027-.91.21-1.158 1.012-1.396.614-.184 1.24-.33 1.87-.455.544-.107 1.045.323 1.072.912.034.75.035 1.5.035 2.25 0 2.685-.016 5.366-.007 8.05.002.858-.105 1.76.12 2.563.646 2.322.534 4.683.502 7.032-.026 1.847.31 3.635.71 5.408.18.813.586 1.62 1.06 2.308.694 1.013 2.25 1.358 3.504.85 1.068-.43 1.766-1.244 1.82-2.432.032-.74.023-1.524-.178-2.232-.48-1.68-.463-3.387-.484-5.103-.02-1.61.126-3.267-.222-4.81-.432-1.923-.42-3.827-.43-5.75-.026-4.72-.058-9.44-.06-14.16-.002-8.796 0-17.596.04-26.394.006-1.17.117-2.368.405-3.49.508-1.976 1.075-3.91.863-5.993-.088-.864.4-1.458 1.235-1.646 2.187-.497 4.384-.972 6.592-1.364 1.368-.24 2.763-.407 4.15-.44 4.607-.11 9.217-.14 13.825-.2 1.01-.996 1.48-2.178 1.397-3.647-.14-2.486-1.25-3.745-3.777-3.87zM15.843 74.45c-.032-.18-.085-.36-.083-.542 0-.07.14-.134.214-.203.07.176.14.35.213.523-.115.075-.23.15-.344.22zM20 79.36c-.01.088-.09.164-.14.248-.162-.12-.442-.213-.475-.365-.245-1.12-.444-2.25-.584-2.99.055-.94.07-1.465.12-1.984.042-.445.485-.71.955-.514.256.107.635.405.62.592-.12 1.674-.315 3.342-.495 5.01zm19.39-4.654c-.693 1.835-1.845 3.377-3.136 4.82-.256.283-.677.52-1.048.57-.23.032-.498-.373-.78-.512-.827-.413-1.478-.196-1.81.623-.16.384-.165.832-.31 1.227-.06.162-.326.39-.453.363-.272-.053-.678-.2-.747-.402-.302-.91-.467-1.865-.765-2.78-.135-.418-.55-.682-1.015-.575-.282.062-.65.245-.754.48-.255.576-.394 1.205-.557 1.82-.144.548.27 1.25-.454 1.642-.21-.48-.52-.946-.614-1.45-.197-1.046-.262-2.116-.416-3.175-.076-.518-.167-1.054-.372-1.53-.104-.24-.467-.475-.734-.5-.267-.027-.683.138-.813.354-.267.445-.494.96-.55 1.47-.113 1.064-.096 2.144-.156 3.21-.01.176-.132.345-.203.513-.097-.18-.212-.36-.293-.552-.734-1.74-.606-3.57-.507-5.386.046-.87.532-1.333 1.468-1.346 2.464-.032 4.93-.01 7.397-.01V73.4c2.248 0 4.5-.01 6.75.005.77.006 1.144.584.873 1.3zm-7.08-16.3c.512.815 1.116 1.565 1.666 2.352 1.963 2.797 3.923 5.593 5.87 8.403.374.535.12 1.08-.507 1.133-3.085.256-6.16.68-9.27.46-1.063-.076-2.14-.012-3.21-.012v.104c-2.245 0-4.49.017-6.737-.01-.74-.01-1.493-.065-2.22-.21-1.39-.274-1.548-.588-.83-1.92 2.176-4.044 4.395-8.068 6.613-12.09.978-1.776 1.99-3.536 2.993-5.3.303-.533.916-.533 1.25.008 1.46 2.363 2.9 4.737 4.38 7.09zm83.112 9.615c-.348-.66-.687-1.33-1.058-1.98-2.13-3.71-4.344-7.38-5.842-11.412-.15-.4-.37-.774-.592-1.14-1.552-2.582-2.725-5.32-3.496-8.236-.248-.922-.856-1.423-1.842-1.377-.448.674-.835 1.405-1.382 1.98-2.592 2.75-4.533 5.947-6.533 9.12-2.624 4.166-4.787 8.604-7.63 12.64-.66.94-.995 2.116-1.428 3.206-.15.384-.237.843-.194 1.246.422 3.94 1.952 7.198 5.668 9.11 2.586 1.327 5.282 2.22 8.155 2.777 3.505.683 6.533-.2 9.45-2.03 2.43-1.524 3.955-3.882 5.717-6.024.26-.314.365-.77.494-1.17.228-.715.278-1.525.65-2.144.966-1.593.64-3.068-.137-4.563zm-26.688 4.44c-.06-.17-.142-.335-.17-.51-.012-.053.13-.13.193-.186.047.146.126.306.147.475.007.063-.11.146-.17.223zm3.53 1.01c-.04.103-.245.14-.376.207-.035-.1-.088-.198-.1-.3-.025-.21-.03-.42-.053-.785.053-.157.112-.474.27-.727.066-.105.35-.098.533-.088.08.003.23.157.216.205-.144.5-.296 1.005-.49 1.49zm3.853 1.506c-.06.22-.222.414-.338.622-.053-.2-.13-.4-.15-.604-.05-.518-.074-1.045-.118-1.733.014-.25-.037-.69.083-1.08.072-.222.407-.494.635-.505.172-.006.542.395.513.56-.153.924-.388 1.832-.625 2.74zm-.185-6.616c-1.178.012-2.357.093-3.535.127-.808.026-1.627.672-2.427-.034.33-.658.62-1.338.996-1.97 3.22-5.437 6.46-10.864 9.692-16.29.274-.46.52-.942.818-1.386.11-.162.315-.295.504-.356.424-.137.506.244.643.507.446.85.894 1.702 1.325 2.56 1.052 2.105 2.1 4.213 3.14 6.325 1.134 2.307 2.258 4.62 3.39 6.928.285.576.598 1.138.865 1.722.523 1.15.267 1.62-.936 1.664-2.894.107-5.79.18-8.683.27v-.072c-1.933 0-3.865-.017-5.792.008zm15.108 6.496c-.565.636-1.13 1.28-1.744 1.87-.45.432-.928.997-1.483 1.122-.79.183-.757-.848-1.218-1.242-.653-.56-1.36-.533-1.888.226-.24.34-.366.765-.597 1.115-.102.153-.346.213-.523.313-.048-.096-.11-.188-.14-.288-.057-.205-.084-.418-.148-.62-.066-.202-.107-.46-.25-.575-.313-.245-.668-.512-1.037-.573-.207-.035-.592.277-.7.52-.302.672-.498 1.39-.747 2.084-.032.094-.128.166-.195.248-.063-.068-.162-.128-.19-.21-.177-.5-.36-1-.49-1.51-.11-.408-.2-.834-.205-1.256-.064-5.15-1.282-4.486 3.98-4.547.742-.01 1.49-.002 2.235-.002v-.153c1.917 0 3.83-.008 5.745.006.41.004.757.49.713.875-.114.978-.464 1.86-1.118 2.597zM57.205 26.933c.864.23 1.084.964 1.36 1.657.4.99.742 2.005 1.19 2.976.683 1.48 1.715 2.71 2.963 3.75 1.017.847 2.2 1.3 3.296 1.343 1.824.033 3.238-.57 4.064-1.933.658-1.085 1.126-2.3 1.55-3.5.316-.9.497-1.865.604-2.817.093-.82.42-1.407 1.126-1.806.277-.158.555-.325.806-.523 1.634-1.27 1.934-4.335-.33-5.38-1.033-.476-1.44-1.16-1.42-2.246.02-1.18-.163-2.325-.58-3.456-1.47-3.987-6.113-5.425-9.436-2.79-.9.712-1.696 1.663-2.26 2.66-.73 1.29-1.295 2.705-1.706 4.13-.283.98-.656 1.666-1.532 2.264-2.517 1.726-1.935 3.61-.227 5.32.15.15.337.303.53.353zm9.265-9.346c.27-.46.483-.955.728-1.43.267-.513.57-.537.877-.116.645.898 1.056 1.865 1.06 2.978.007 1.18 0 2.36 0 3.143.238 2.78-.03 5.11-.76 7.385-.23.725-.532 1.414-1.282 1.758-.177.08-.437.128-.6.056-.128-.057-.264-.36-.22-.49.26-.703.56-1.39.87-2.074.458-1.008.865-1.956-.39-2.77-.533-.347-.267-1.004-.085-1.484.288-.758.3-1.467-.15-2.143-1.066-1.6-1.008-3.193-.048-4.81z"/></svg>