<svg xmlns="http://www.w3.org/2000/svg" width="128" height="128" viewBox="0 0 128 128"><path d="M99.907 28.963c-.19-1.152-.168-2.46-1.24-3.256-1.088-.806-1.725-1.92-2.313-3.075-1.067-2.094-2.656-3.75-4.46-5.18-1.953-1.55-3.958-3.026-6.388-3.813-.843-.277-1.63-.756-2.396-1.22-1.813-1.104-3.77-1.82-5.84-2.204-1.955-.363-3.933-.608-5.903-.896-.723-.11-1.355-.314-1.62-1.1-.358-1.046-1.2-1.55-2.17-1.904-1.402-.51-2.503.12-2.85 1.632-.25 1.07-.25 1.118-1.308 1.11-2.413-.01-4.78.357-7.095.94-3.4.85-6.618 2.187-9.6 4.062-2.365 1.488-4.78 2.884-7.332 4.038-.715.325-1.403.776-1.995 1.294-2.437 2.128-4.338 4.665-5.622 7.652-.584 1.362-.69 2.914-1.653 4.123-.056.068-.043.192-.067.288-.335 1.35.693 2.488 2.016 2.146 1.052-.267 2.1-.606 3.087-1.05 2.033-.91 4.15-1.35 6.357-1.53 1.788-.142 3.394.006 4.363 1.797.047.083.14.143.212.207.814.727 1.978.85 2.7.056 1.42-1.565 3.286-2.21 5.198-2.757 1.92-.55 3.91-.83 5.91-.736 1.284.06 2.564.333 3.835.57.637.12.986.623 1.015 1.305.032.797.038 1.597.036 2.393-.018 4.293-.043 8.587-.062 12.88-.006 1.197-.01 2.396.002 3.592.007.917.017 1.818-.878 2.406-.16.105-.27.29-.39.45-.967 1.317-1.39 2.738-.234 4.106 1.197 1.42.376 3.065.72 4.563.014.058-.105.203-.157.2-.085-.004-.18-.08-.25-.147-1.114-1.124-1.975-2.46-3.418-3.298-2.44-1.417-2.474-1.48-3.998.765-.84 1.237-1.675 2.472-2.528 3.698-.19.276-.602.246-.697-.02-.467-1.316-.987-2.624.198-3.872.188-.197.22-.546.31-.832.195-.64-.193-1.288-.814-1.3-.794-.013-1.592 0-2.383.065-.65.05-1.05.705-.825 1.3.248.653.78 1.293.76 1.93-.026.95-.426 1.888-.665 2.83-.91-.274-1.028-1.16-1.376-1.844-.724-1.413-1.4-2.853-2.07-4.292-.19-.405-.484-.614-.9-.66-1.035-.116-2.027.094-2.81.772-1.884 1.635-3.747 3.296-5.012 5.504-1.625 2.83-2.444 5.87-2.452 9.13-.008 4.295-.027 8.588-.03 12.88-.002 1.097.034 2.198.043 3.293.01.936.31 1.78.896 2.483.657.783 1.557.832 2.47.58.732-.202 1.23-.714 1.327-1.465.1-.785.1-1.59.096-2.385-.015-3.194-.003-6.39-.086-9.582-.06-2.32.512-4.555.803-6.827.11-.868.535-1.704.825-2.55.064-.19.134-.383.248-.54.165-.236.327-.562.69-.39.15.074.304.286.328.45.45 3.258.983 6.508 1.29 9.775.377 3.97.577 7.955.53 11.953-.042 3.792.073 7.584.133 11.378.016.897.02 1.804.145 2.69.61 4.35.942 8.72 1 13.11.012.697.004 1.4.108 2.087.09.58.256 1.17.516 1.693.55 1.11 1.68 1.445 2.783.91.875-.423 1.423-1.073 1.45-2.087.03-1.195.1-2.39.08-3.588-.03-2.395-.113-4.79-.173-7.184h.065c0-3.392-.015-6.784.008-10.18.008-1.36.387-1.71 1.786-1.84.926-.086 1.307.212 1.313 1.136.025 4.392.027 8.782.053 13.175.004.997.09 1.993.11 2.988.018 1.09.064 2.184-.017 3.267-.07.91-.113 1.78.204 2.654.5 1.38 2.33 2.287 3.66 1.69 1.44-.644 2.55-1.606 2.43-3.395-.125-1.788-.324-3.57-.404-5.36-.22-4.98-.22-9.965-.733-14.933-.4-3.866-.245-7.77-.207-11.658.018-1.794.087-3.578-.245-5.37-.18-.958-.04-1.986 0-2.98.067-1.69.176-3.382.26-5.073.014-.296-.018-.6-.017-.896 0-.203-.043-.434.045-.593.184-.324.39-.682.683-.892.38-.273.95-.028 1.273.437 1.42 2.043 2.88 4.064 4.246 6.15.72 1.095 1.692 1.29 2.846 1.14 1.66-.208 3.104-1.766 3.157-3.413.042-1.298-.17-2.64.097-3.884.463-2.144-.094-4.156-.378-6.213-.04-.292-.17-.572-.24-.864-.57-2.46-.704-4.937.053-7.362.4-1.28.26-2.485-.52-3.39-.895-1.04-.906-2.135-.922-3.336-.063-5.186.204-10.378-.42-15.55-.035-.296-.01-.598-.033-.9-.05-.7.314-1.132.917-1.377 1.1-.444 2.09-1.075 3.122-1.65 2.938-1.634 5.995-2.036 9.11-.308 1.394.774 2.85 1.43 4.292 2.115.975.464 1.996.528 2.738-.36 1-1.19 2.29-1.5 3.728-1.573.597-.033 1.205-.065 1.784-.19.84-.193 1.538-.08 2.214.51.762.664 1.678.59 2.528.177.552-.265 1.086-.79.987-1.39zm-7.91-3.84c-1.52.46-3.062.826-4.404 1.756-.515.355-1.152.27-1.732.053-1.207-.456-2.422-.9-3.614-1.39-3.895-1.612-7.593-1.057-11.162.98-.344.194-.667.433-.994.66-.458.31-.893.3-1.39.052-.71-.354-1.452-.646-2.184-.953-1.77-.742-3.605-1.037-5.53-1.042-3-.01-5.97.08-8.83 1.117-.56.206-1.14.373-1.665.648-.96.5-1.882 1.064-2.82 1.603-.887-.44-1.755-.924-2.666-1.3-.446-.185-.973-.242-1.46-.24-.837.006-1.514-.182-2.14-.815-.808-.82-1.855-.576-2.8-.235-.298.11-.604.544-.67.88-.12.576-.45.878-.94 1.02-.238.073-.533-.016-.792-.086-.03-.008-.045-.382.046-.5.553-.7 1.123-1.39 1.72-2.055.35-.39.733-.48 1.31-.29 1.64.544 3.346.226 5.027.17.448-.02 1.178-.67 1.037-.886-.206-.312-.496-.672-.828-.783-.555-.188-1.17-.19-1.76-.275-.096-.013-.19-.05-.284-.08.102-.065.198-.17.31-.19.977-.178 1.987-.577 2.932-.46 2.116.267 4.152-.448 6.243-.303.824.055 1.557-.26 2.234-.72.583-.39.58-1.393-.035-1.783-.326-.21-.693-.4-1.067-.483-.48-.107-.987-.107-1.485-.14-1.588-.095-1.57-.084-1.428-.39.288-.623.946-.67 1.446-.964.473-.275.93-.112 1.427.006 1.776.416 3.552.256 5.308-.18.285-.073.56-.197.827-.325.57-.267.77-.92.443-1.493-.146-.256-.376-.462-.55-.702-.245-.34-.008-.584.262-.612 1.1-.112 2.115-.392 3.125-.896.672-.336 1.542-.35 2.33-.38 1.49-.055 2.987-.015 4.48-.015v-.058c.7 0 1.4.05 2.093-.01 2.865-.24 5.547.458 8.094 1.663 2.066.978 4.193 1.926 6.04 3.246 2.585 1.85 4.91 4.048 6.67 6.753.054.078-.07.397-.17.427zM44.047 48.26c.94.4 1.24 1.236 1.5 2.093.477 1.557 1.31 2.883 2.44 4.047.957.986 2.07 1.54 3.248 1.43 1.666-.006 2.475-.414 3.198-1.6.31-.506.573-1.057.736-1.622.274-.953.5-1.92.656-2.9.102-.628.305-1.138.84-1.5.33-.222.683-.42.966-.694.95-.923.98-2.962-.1-3.72-.918-.642-1.313-1.35-1.362-2.433-.035-.78-.263-1.573-.524-2.32-.484-1.39-1.438-2.434-2.83-2.89-2.356-.763-4.638.1-5.942 2.255-.608 1.01-1.106 2.123-1.45 3.253-.332 1.08-.796 1.9-1.74 2.613-1.288.976-1.274 2.084-.264 3.37.18.237.38.51.634.62zm8.184-8.36c.298-.387.556-.003.637.204.24.634.51 1.29.573 1.955.096.98.026 1.975.026 2.963.095 1.987.1 3.97-.73 5.832-.11.254-.32.49-.54.66-.126.1-.387.113-.544.054-.136-.057-.328-.31-.295-.403.207-.555.51-1.072.7-1.63.12-.36.28-.942.107-1.126-.807-.852-.51-1.826-.5-2.787.002-.283-.076-.606-.223-.846-1.13-1.862-.347-3.406.79-4.88zm18.374-24.044c-.508-.08-1.26.542-1.483 1.248-.087.283-.17.576-.183.867-.03.595-.008 1.19-.008 1.787h-.065c.053.892.073 1.787.168 2.67.1.913.626 1.54 1.17 1.49.675-.058 1.046-.523 1.328-1.054.18-.343.356-.738.368-1.114.05-1.486.067-2.97.026-4.455-.017-.666-.718-1.34-1.32-1.436zm7.272 1.4c-.454-.323-1.07-.427-1.506-.59-.32.172-.587.227-.636.364-.09.242-.144.582-.035.793.174.34.46.644.757.896 1.434 1.22 2.882 2.43 4.34 3.62.115.097.48.097.492.063.092-.264.26-.622.153-.816-.917-1.66-2.002-3.213-3.566-4.333z"/></svg>