<svg xmlns="http://www.w3.org/2000/svg" width="128" height="128" viewBox="0 0 128 128"><path d="M122.997 11.253c-.47-2.906-3.002-4.397-5.704-3.334-.796.31-1.57.693-2.308 1.125-1.016.597-1.992 1.267-2.984 1.903-3.895 2.5-7.975 4.682-12.45 5.903-4.767 1.3-9.157.6-12.644-3.274-.72-.795-1.342-1.678-2.096-2.438-1.204-1.216-2.37-2.51-3.743-3.503-2.763-2-5.98-2.293-9.237-1.79-1.71.267-3.392.368-5.114.338-.942-.02-1.98.07-2.816.46-1.344.634-2.653 1.43-3.795 2.38-1.728 1.44-3.285 3.083-4.942 4.61-1.886 1.747-2.553 3.887-2.225 6.403.163 1.27.24 2.556.344 3.836.105 1.283.056 2.594.31 3.845.452 2.228.507 4.472.498 6.724-.01 2.897-.064 5.795-.143 8.69-.155 5.894-.35 11.79-.507 17.685-.043 1.713-.008 3.43-.034 5.146-.002.18-.18.364-.273.545-.087-.064-.2-.11-.254-.195-1.19-1.906-2.4-3.797-3.54-5.732-1.147-1.938-2.188-3.935-3.33-5.876-1.412-2.406-2.844-4.787-3.714-7.47-.293-.9-.91-1.695-1.362-2.545-.686-1.292-1.803-2.11-3.04-2.785-.888-.486-1.698-.373-2.288.423-.826 1.117-1.56 2.306-2.35 3.452-.607.88-1.23 1.75-1.876 2.598-.06.08-.423.066-.506-.028-.98-1.124-1.547-2.293-.514-3.74.29-.404.352-.995.44-1.514.108-.642-.415-1.333-1.034-1.402-.533-.057-1.07-.077-1.605-.07-2.073.02-3.015.655-1.93 2.652.1.184.09.43.193.608.634 1.094.262 2.072-.363 2.995-.16.24-.47.395-.742.518-.048.02-.29-.284-.384-.47-1.2-2.388-2.397-4.778-3.584-7.178-.26-.533-.693-.97-1.237-.79-1.408.472-2.77 1.086-4.15 1.642-3.036 2.767-5.796 5.734-7.274 9.68-1.026 2.736-1.555 5.567-1.6 8.48-.058 3.216-.016 6.435-.016 9.655h.013c0 3.435.02 6.87-.015 10.302-.01 1.1.22 2.133.614 3.134.527 1.34 1.758 2.078 3.023 1.9 1.31-.183 2.412-1.173 2.6-2.49.117-.842.09-1.71.085-2.566-.032-3.86-.032-7.725-.128-11.587-.08-3.134.36-6.208.9-9.267.293-1.68.837-3.328 1.738-4.815.11-.177.273-.318.416-.475.114.156.29.295.33.47.22.936.467 1.87.6 2.823.295 2.12.46 4.26.8 6.37.863 5.31 1.164 10.644 1.105 16.016-.046 4.29.01 8.587.077 12.875.04 2.57-.018 5.145.407 7.707.19 1.14.065 2.356-.06 3.52-.43 3.958-.367 7.926-.288 11.89.02.955.23 1.915.427 2.857.415 1.99 2.364 3.548 4.386 3.56 1.32.006 2.304-.633 2.805-1.798.327-.765.51-1.657.494-2.486-.035-2.032-.313-4.064-.33-6.095-.048-6.01-.02-12.018-.02-18.028 0-.213-.02-.46.076-.632.15-.264.353-.542.605-.693.363-.22.774-.4 1.186-.48 1.948-.373 2.445-.1 2.404 1.778-.02.965-.024 1.933-.002 2.897.09 3.968.157 7.936.3 11.902.126 3.532.334 7.063.523 10.595.026.53.034 1.1.237 1.57.203.467.57 1.054.992 1.198 1.948.656 3.63.542 4.853-1.263.685-1.003 1.022-2.075.766-3.342-.226-1.144-.287-2.328-.362-3.495-.08-1.283-.042-2.577-.132-3.86-.15-2.132-.45-4.26-.53-6.396-.12-3.325-.1-6.652-.154-9.98-.02-1.5.033-3.01-.124-4.5-.405-3.854-.346-7.697-.043-11.555.117-1.483-.064-2.992-.124-4.49-.05-1.28-.21-2.564-.176-3.845.08-3.32.238-6.638.373-9.956.013-.317.085-.634.15-.946.02-.1.12-.26.17-.257.178.01.427.025.512.14.317.43.573.903.863 1.35 1.52 2.337 2.873 4.807 4.604 6.975 1.964 2.458 3.405 5.157 4.72 7.966 1.27 2.718 2.51 5.45 3.827 8.147.416.854 1.052 1.597 1.544 2.416.264.443.59.93.62 1.413.19 2.673.344 5.348.41 8.025.082 3.433.05 6.866.1 10.3.016 1.394.003 2.803.212 4.176.413 2.774.465 5.55.367 8.34-.03.858-.093 1.72-.036 2.57.098 1.488 1.158 2.533 2.682 2.748 1.05.15 2.383-.58 2.894-1.648.228-.475.333-1.01.49-1.52.71-2.31.64-4.725.353-7.026-.54-4.284-.48-8.56-.5-12.848-.036-6.863-.13-13.723-.058-20.584.015-1.395-.935-2.435-.914-3.69.02-1.28 1.62-1.92 1.61-3.375-.01-1.345.795-2.442 1.652-3.402.857-.957 1.8-1.845 2.776-2.68 1.263-1.077 2.78-1.587 4.437-1.637 1.073-.03 2.148.01 3.22-.02 3.453-.08 6.538 1 9.322 2.983 1.047.744 2.03 1.578 3.023 2.4 3.416 2.834 7.227 4.578 11.78 4.32.746-.044 1.5-.022 2.25-.005 2.5.058 4.885-.517 7.25-1.25 2.307-.716 4.326-1.874 6.003-3.603.903-.928 1.78-1.8 3.148-2.08 1.14-.235 1.817-1.097 2.017-2.263.198-1.157.472-2.314.533-3.478.248-4.71.424-9.425.632-14.138.018-.43.036-.86.08-1.285.356-3.515.765-7.025 1.073-10.546.328-3.736.56-7.48.832-11.22.034-.428.082-.854.11-1.284.203-3.21.413-6.418.6-9.625.02-.427-.006-.86-.075-1.283zm-5.138 5.604c-.83 5.5-1.713 10.994-2.477 16.503-.398 2.86-.632 5.747-.864 8.626-.41 5.122-.77 10.248-1.125 15.373-.055.78-.277 1.442-.797 2.04-.7.81-1.366 1.653-2.006 2.51-2.078 2.8-5.067 3.81-8.334 4.265-.634.088-1.287.03-1.925.09-3.712.337-6.987-.654-9.827-3.102-.728-.627-1.568-1.123-2.368-1.664-3.656-2.468-7.72-3.63-12.103-3.758-1.07-.032-2.144.02-3.217-.027-2.722-.117-5.34.245-7.77 1.58-.144.08-.43.108-.527.02-.127-.117-.23-.403-.174-.557.288-.803.708-1.57.928-2.386.192-.702.267-1.467.21-2.19-.026-.316-.468-.77-.79-.843-.323-.075-.9.144-1.077.42-1.103 1.708-2.12 3.47-3.18 5.21-.096.16-.277.27-.423.405-.092-.3-.252-.597-.26-.896-.013-.306.03-.708.217-.908 1.09-1.14 1.38-2.595 1.83-4.028.71-2.242 1.648-4.41 2.485-6.61.382-.998.85-1.977 1.112-3.007.177-.7.117-1.478.056-2.212-.046-.605-1.11-.986-1.547-.54-.82.83-1.563 1.743-2.34 2.618-.212.238-.438.466-.67.683-.038.036-.18.03-.207-.008-.063-.08-.125-.2-.11-.29.063-.42.113-.846.234-1.25 1.555-5.243 3.27-10.42 5.977-15.21.31-.548.6-1.115.283-1.82-.552-1.215-1.882-1.692-2.89-.863-.645.528-1.104 1.282-1.68 1.905-.837.898-.914 2.31-2.02 3.02-.004.05-.007.103-.014.154l-.097.064c-.008.16-.01.322-.053.474-.04.14-.17.252-.258.375-.02-.185-.11-.404-.04-.55.06-.127.212-.21.353-.3 0-.048 0-.096.005-.143.04-.02.068-.05.107-.075.06-.583.043-1.198.253-1.72 1.032-2.583 2.136-5.133 3.217-7.697.083-.196.22-.375.277-.576.148-.544.09-1.064-.28-1.512-.378-.466-1.184-.666-1.76-.486-1.09.34-1.755 1.18-2.426 2.02-.06.076-.24.156-.28.124-.138-.11-.324-.256-.338-.405-.06-.64-.05-1.283-.092-1.923-.064-.936.213-1.643 1.1-2.12 1.41-.763 2.78-1.608 4.17-2.417 3.5-2.032 7.307-2.255 11.214-1.933.902.072 1.69.412 2.293 1.045 1.105 1.157 2.213 2.325 3.2 3.584 1.39 1.767 2.714 3.555 4.484 5.01 2.33 1.918 5.002 2.886 7.916 3.204 3.013.328 5.97-.023 8.857-1.05 3.25-1.153 6.274-2.743 9.216-4.508 1.562-.94 3.07-1.963 4.644-2.874.58-.334 1-1.227 1.91-.725-.068.612-.114 1.23-.206 1.842zM19.465 29.873c.603.373.893.827 1.088 1.477.59 1.952 1.424 3.793 2.688 5.422.738.953 1.62 1.72 2.73 2.165 3.1 1.237 5.662.245 6.85-2.662.56-1.367.993-2.83 1.185-4.288.17-1.29.582-2.178 1.752-2.812 1.71-.928 1.763-2.537 1.4-4.194-.08-.38-.364-.89-.687-1.02-1.67-.675-2.04-1.96-1.99-3.587.02-.616-.272-1.245-.44-1.86-.89-3.27-2.643-4.61-6.003-4.592-2.3.014-3.882.755-5.183 2.628-1.094 1.582-2.043 3.28-2.357 5.21-.17 1.04-.57 1.784-1.515 2.272-.367.19-.686.51-.966.825-.928 1.042-1.024 2.394-.165 3.52.442.58 1 1.118 1.615 1.502zm8.648-8.715c.41-.747.825-1.49 1.256-2.223.225-.384.69-.28.937.175.736 1.342.912 2.82 1.035 4.304.058.742.008 1.493.008 2.318.198 2.528-.405 5.006-1.29 7.424-.13.344-.542.61-.873.843-.117.083-.43.013-.576-.09-.137-.098-.295-.38-.243-.506.34-.89.768-1.75 1.1-2.642.195-.517.153-1.105-.32-1.456-.703-.518-.906-1.028-.502-1.877.437-.92.27-1.804-.395-2.678-.844-1.11-.803-2.37-.134-3.595zm64.464 22.48c0 .015-.007.03-.008.045l.096-.075c.008-.016.015-.032.02-.048l-.11.078zm2.57-5.765c.648-1.17.64-2.26-.478-3.14-.422-.33-.485-.583-.177-1.026.484-.7.987-1.41 1.333-2.182.267-.587.228-1.29-.267-1.805-.54-.565-1.23-.936-2.018-.625-.686.27-1.44.565-1.944 1.067-2.128 2.13-3.964 4.51-5.27 7.235-.715 1.493-.235 2.507 1.355 3.347.917.483 1 .5.745 1.63-.227 1.016.203 1.654.914 2.2.666.506 1.38.388 2.333-.292.3-.215.6-.43.903-.643.088-1.308.736-2.405 1.33-3.52.4-.756.825-1.5 1.242-2.247zm.757 10.752c-.825-.576-.71-1.18-.284-1.928.318-.555.62-1.152.755-1.767.155-.718.18-1.483.142-2.22-.044-.8-1.07-1.23-1.703-.756-.723.544-1.433 1.1-2.148 1.653-.236.57-.443 1.152-.716 1.698-.48.956-1.06 1.867-1.49 2.844-.25.57-.375 1.23-.39 1.85-.032 1.25.743 1.855 2.085 1.595.664-.128 1.007-.08 1.034.66.01.32.03.647.116.95.187.645 1.014.913 1.558.54 1.13-.778 1.623-1.955 1.966-3.205.075-.27-.038-.643-.176-.912-.19-.37-.42-.773-.75-1z"/></svg>