<svg xmlns="http://www.w3.org/2000/svg" width="128" height="128" viewBox="0 0 128 128"><path d="M51.706 44.18c-1.53-2.885-3.813-4.856-6.682-6.252-.74-.363-1.504-.224-2.014.452-.773 1.024-1.474 2.105-2.204 3.163-.79 1.14-1.568 2.29-2.368 3.428-.196.284-.67.247-.768-.03-.43-1.214-.835-2.353-.013-3.66.576-.906.155-2.033-.59-2.554-.88-.62-2.478-.587-3.337.072-.608.467-.96 1.602-.686 2.336.11.294.267.604.49.818 1.037.995.74 2.126.38 3.27-.025.08-.143.193-.217.19-.187 0-.46.005-.546-.11-.39-.503-.787-1.016-1.073-1.58-1.16-2.292-2.276-4.603-3.41-6.905-.328-.66-.907-.96-1.594-.706-1.2.444-2.58.706-3.53 1.483-2.572 2.112-4.86 4.533-6.46 7.517-1.813 3.378-2.55 7.026-2.654 10.815-.073 2.574-.06 5.15-.057 7.723.006 4.077.056 8.154.043 12.23-.002 1.1.23 2.132.63 3.13.526 1.318 1.79 2.052 3.05 1.856 1.342-.21 2.38-1.17 2.564-2.523.113-.84.082-1.71.076-2.567-.03-3.325-.064-6.648-.117-9.973-.06-3.44.086-6.86.777-10.243.41-2.002.922-3.96 2.04-5.707.055-.085.16-.176.25-.188.057-.008.167.12.193.206.228.82.524 1.637.646 2.478.465 3.175.953 6.35 1.28 9.54.448 4.37.768 8.746.707 13.153-.077 5.36.05 10.726.11 16.09.014 1.177.06 2.36.176 3.532.494 5.007 1.23 9.99 1.15 15.046-.03 1.802.16 3.62.413 5.41.228 1.614 1.32 2.518 2.798 2.618 1.53.103 2.728-.606 3.228-2.107.266-.793.388-1.677.364-2.51-.066-2.25-.346-4.493-.367-6.737-.05-5.58 0-11.157.008-16.734.002-.214-.045-.46.043-.637.176-.36.368-.762.668-.998.324-.252.768-.4 1.18-.477 1.932-.364 2.44-.118 2.4 1.778-.026 1.18-.005 2.36-.007 3.54-.012 6.536.084 13.068.677 19.587.142 1.563.77 2.88 1.465 4.205.31.595.89.934 1.565.995.64.058 1.285.096 1.923.053.933-.066 1.89-.87 2.013-1.81.123-.946.246-1.962.026-2.868-.486-2.014-.437-4.043-.484-6.074-.102-4.497.036-8.992-.452-13.49-.414-3.82-.19-7.69-.59-11.538-.295-2.85.12-5.773.17-8.66.026-1.5-.042-3-.095-4.496-.053-1.39-.235-2.778-.203-4.162.072-3.32.23-6.638.367-9.955.027-.643.112-1.282.18-1.922.02-.21.016-.46.123-.623.154-.24.373-.462.62-.6.074-.043.41.17.468.33.995 2.595 2.086 5.156 2.05 8.03-.076 5.793-.09 11.585-.126 17.377-.005.86-.032 1.717.013 2.573.07 1.37 1.297 2.704 3.06 2.738 1.36.025 2.71-1.2 2.866-2.592.19-1.7.344-3.413.376-5.12.06-3.218.016-6.436.016-9.653h.08c0-2.898-.058-5.796.015-8.69.118-4.405-1.042-8.445-3.092-12.315zm61.873 26.1c-.055-.317-.084-.637-.16-1.245.72-2.278-.537-4.277-1.87-6.258-.237-.354-.45-.732-.63-1.12-1.107-2.396-3.09-4.075-4.86-5.933-.143-.15-.343-.25-.526-.36-.74-.434-1.84-.33-2.353.332-1.3 1.696-2.565 3.42-3.816 5.152-.625.867-1.125 1.83-1.784 2.667-2.382 3.03-4.707 6.117-7.252 9.01-2.272 2.577-4.4 5.254-6.35 8.07-1.765 2.553-3.447 5.166-5.134 7.772-.402.62-.68 1.323-1.013 1.99-.953-.246-1.15-1.182-1.56-1.857-.777-1.27-1.43-2.627-2.05-3.985-1.33-2.923-2.58-5.88-3.92-8.8-.577-1.26-1.41-1.536-2.882-1.408-1.688.147-3.12.757-4.213 2.04-2.018 2.357-4.096 4.672-5.94 7.157-.65.88-.78 2.19-.99 3.33-.174.937.604 1.54 1.12 2.22 2.017 2.66 3.577 5.55 4.754 8.693 1.576 4.213 3.394 8.33 5.787 12.164.907 1.45 1.728 2.95 2.62 4.407.275.448.598 1.104 1.002 1.19 1.23.266 2.02 1.183 3.043 1.738 1.216.66 2.208.592 3.224-.363.623-.586 1.205-1.223 1.74-1.89 2.532-3.183 5.04-6.387 7.568-9.577 2.992-3.776 5.93-7.584 9.307-11.054 2.685-2.757 5.164-5.736 7.358-8.907 2.923-4.228 5.64-8.6 9.03-12.49.684-.785.918-1.67.75-2.68zm-48.8 14.287c-.496.695-1.02.936-1.16.594-.19-.46-.42-1.02-.32-1.457.27-1.125.793-2.15 1.77-2.883.543-.408.977-.18 1.41.125.15.107.237.306.354.463-.088.192-.155.398-.27.57-.586.867-1.18 1.73-1.786 2.588zm2.2 2.514c-.037.037-.17.034-.21-.004-.068-.066-.16-.188-.14-.26.22-.8.404-1.62.716-2.385.124-.303.54-.49.82-.727l.696.914c-.053.304-.02.562-.133.687-.56.614-1.158 1.195-1.75 1.78zm2.182 4.98c-.092.11-.296.13-.448.195-.046-.11-.144-.23-.114-.29.528-1.132 1.05-2.265 1.627-3.372.122-.235.466-.454.72-.056.224.352.445.715.592 1.102.1.272.162.72-.25.756-1.1.096-1.55.94-2.128 1.664zm37.83-23.36c-.225.43-.805.66-1.142 1.052-1.535 1.787-3.108 3.545-4.545 5.41-2.354 3.05-4.632 6.162-6.898 9.28-.817 1.122-1.472 2.324-3.104 2.467-.555.05-.837.75-.723 1.28.24 1.09-.27 1.85-.896 2.61-1.02 1.235-2.037 2.48-3.06 3.715-.345.418-.548.34-.812-.24-.21-.476-.418-.97-.72-1.388-.288-.405-1.156-.313-1.397.128-.992 1.792-1.747 3.66-1.83 5.747-.025.63-.01 1.327-.275 1.862-.256.518-.85.868-1.295 1.294-.12-.405-.23-.815-.366-1.216-.07-.2-.167-.392-.274-.576-.384-.66-1.376-.82-1.93-.245-.355.373-.687.836-.835 1.317-.186.602-.173 1.267-.253 1.963.066.586-.05 1.332.248 1.834.718 1.2.146 1.945-.587 2.795-.48.553-.788 1.257-1.21 1.865-.044.062-.484-.015-.517-.107-.212-.593-.52-1.213-.497-1.81.038-.95.323-1.89.48-2.836.09-.52.174-1.045.192-1.573.01-.435-.563-.933-1.082-1.02-1.195-.204-1.19-.204-.88-1.164.26-.813.554-1.617.753-2.443.102-.427-.08-.88-.55-1.016-.274-.08-.716-.08-.892.085-.537.504-.977 1.11-1.47 1.664-.05.06-.254.078-.296.032-.123-.136-.316-.355-.275-.468.647-1.81 1.33-3.61 1.997-5.413.11-.3.166-.62.274-.922.068-.187.188-.355.283-.53.176.11.41.187.525.346.5.694.968 1.41 1.44 2.124.414.624.853 1.237 1.216 1.888.857 1.543 1.715 1.49 2.64.235.696-.947 1.445-1.89 1.938-2.944 1.148-2.447 2.808-4.555 4.282-6.78 1.118-1.694 2.38-3.273 3.346-5.09.743-1.392 1.915-2.564 2.93-3.807 1.827-2.24 3.716-4.428 5.51-6.693 2.192-2.767 4.313-5.59 6.464-8.39.13-.17.26-.337.395-.503.302-.366.832-.313 1.045.11.707 1.437 1.41 2.876 2.115 4.313.277.563.882 1.09.54 1.75zm-80.45-42.847c.94.33 1.204 1.073 1.466 1.936.557 1.85 1.398 3.572 2.595 5.113.67.864 1.458 1.58 2.443 2.025 3.118 1.404 5.858.51 7.142-2.556.49-1.17.966-2.41 1.096-3.656.165-1.598.535-2.85 2.096-3.633 1.045-.524 1.365-1.588 1.273-2.783.09-1.276-.405-2.237-1.664-2.763-.784-.33-.978-.98-1.08-1.792-.17-1.367-.417-2.74-.806-4.062-.48-1.624-1.597-2.883-3.218-3.332-3.24-.9-5.73-.38-7.69 2.326-1.068 1.474-2.002 3.093-2.287 4.898-.206 1.31-.846 2.028-1.84 2.785-1.903 1.455-1.933 3.242-.277 4.906.227.228.467.493.752.59zm8.84-8.4c.552-.897 1.122-1.778 1.684-2.668 1.242.627 1.184 1.893 1.365 2.976.23 1.358.263 2.748.38 4.125.086 2.51-.545 4.872-1.33 7.203-.12.363-.45.712-.777.93-.18.123-.576.014-.834-.093-.11-.043-.204-.387-.147-.53.282-.688.623-1.35.928-2.03.388-.863.398-1.66-.486-2.246-.416-.278-.557-.673-.348-1.09.656-1.3.37-2.36-.446-3.545-.59-.86-.607-2.03.012-3.036z"/></svg>