<svg xmlns="http://www.w3.org/2000/svg" width="128" height="128" viewBox="0 0 128 128"><path d="M105.102 39.568c-1.28-1.82-3.31-2.673-5.184-3.68-.593-.32-1.29-.067-1.737.478-.467.58-.883 1.21-1.292 1.838-.992 1.528-1.956 3.075-2.97 4.59-.138.208-.458.332-.714.393-.078.018-.256-.31-.355-.494-.54-1-.71-2-.093-3.05.33-.55.585-1.145.836-1.735.27-.634-.155-1.38-.815-1.435-.64-.053-1.285-.094-1.925-.064-.83.04-1.806-.293-2.413.502-.666.873.148 1.586.476 2.32.53 1.194.275 2.29-.296 3.37-.135.258-.602.27-.785.02-.128-.17-.313-.32-.384-.512-.905-2.53-2.75-4.59-3.57-7.167-.214-.674-.865-.954-1.556-.762-1.874.525-3.684 1.154-4.976 2.75-.47.583-1.062 1.064-1.594 1.594-3.94 3.895-5.83 8.704-5.955 14.155-.147 6.435-.124 12.877-.076 19.314.03 4.274.398 3.62-3.454 3.67-1.075.014-2.148.006-3.22-.03-.767-.026-1.114-.58-.84-1.34.513-1.407 1.225-2.766 1.243-4.3.02-2.036.08-4.086-.102-6.11-.25-2.787-1.596-5.1-3.73-6.89-.635-.534-1.453-1.025-2.25-1.153-2.266-.37-4.467-.15-6.482 1.176-2.3 1.51-3.974 3.588-5.453 5.83-.446.677-.63 1.593-.727 2.42-.306 2.625.252 5.12 1.33 7.51.305.683.61 1.368.913 2.054-.75.628-1.64.324-2.47.35-.964.03-1.93-.02-2.894-.067-1.406-.07-2.737.105-4.083.627-2.087.81-2.57 1.237-2.514 3.477.052 2.357.223 4.713.426 7.06.087.98.11 1.917-.2 2.857-.284.856-1.056 1.43-1.967 1.285-1.057-.17-2.095-.45-3.14-.68-3-.665-6.26.713-7.6 3.44-.845 1.717-1.396 3.585-2.037 5.4-.258.73-.213 1.488.125 2.198.413.867.768 1.778 1.285 2.58 2.094 3.255 5.6 4.787 9.794 3.41 1.013-.336 1.984-.798 2.974-1.2.59-.24.98.036 1.036.737.233 2.884.448 5.77.69 8.65.064.744.162 1.49.323 2.217.174.783.697 1.35 1.457 1.59 1.318.418 2.61.91 4.064.842 2.463-.117 4.933-.072 7.4-.15.843-.03 1.685-.204 2.523-.347 2.133-.364 3.02-1.81 3.307-3.8.127-.9-.143-1.71-.506-2.485-.45-.97-1.01-1.89-1.475-2.86-.655-1.36-1.083-2.775-1.076-4.324.004-1.603.78-2.628 2.162-3.26.483-.22 1.013-.355 1.532-.48 1.927-.476 3.704.234 4.626 1.988 1.273 2.42 1.304 5.02.242 7.445-.64 1.466-.762 2.875-.742 4.37.025 2.065 1.52 3.62 3.592 3.74.75.045 1.536.082 2.243-.107 1.796-.474 3.622-.363 5.44-.474.642-.04 1.285-.02 1.93-.044.694-.02 1.265-.352 1.635-.893 1.342-1.955 2.57-3.962 2.52-6.467-.02-.86.043-1.717.053-2.575.116-8.9.306-17.802-.577-26.687-.116-1.184-.223-2.323-.68-3.435-.282-.684-.69-1.505-.532-2.14.43-1.752-.16-3.413-.154-5.116.032-5.355-.304-10.722.594-16.047.43-2.542.925-5.06 2.183-7.352.09-.156.35-.277.54-.29.112-.007.33.216.35.357.356 2.437.69 4.88 1.03 7.317.554 4.035 1.16 8.063 1.13 12.153-.01 1.717.04 3.435.01 5.15-.106 7.085.3 14.155.6 21.224.033.747.154 1.49.23 2.236.363 3.622.907 7.228.91 10.88 0 1.61.063 3.22.108 4.828.01.428-.027.88.095 1.28.506 1.668 1.46 2.72 3.552 2.53 1.603-.143 2.677-1.264 2.79-2.98.053-.857.013-1.716.008-2.575-.032-7.083-.064-14.165-.094-21.248 0-.642.01-1.286.032-1.93.026-.61.386-.96.943-1.145.304-.1.597-.277.904-.33 1.58-.268 2.18-.158 2.13 1.742-.017.535-.015 1.073 0 1.61.114 4.276-.395 8.577.542 12.822.112.512.04 1.07.046 1.606.007 1.18.067 2.364.007 3.54-.1 1.86.435 3.607.877 5.367.125.51.38 1.008.66 1.457.698 1.1 2.046 1.58 3.393 1.262 1.245-.295 2.18-1.45 2.205-2.82.01-.64.006-1.312-.18-1.912-.553-1.78-.455-3.603-.51-5.423-.053-1.71-.173-3.42-.302-5.126-.08-1.062-.32-2.12-.325-3.18-.028-7.08-.016-14.16-.016-21.24h-.026c0-7.083.003-14.162 0-21.243-.003-1.4-.028-2.8.613-4.097.08-.163.277-.4.4-.386.178.02.414.2.49.37 1.13 2.558 2.137 5.205 2.154 8.008.027 4.498.32 9.003-.203 13.502-.207 1.805-.176 3.646-.136 5.467.014.72.243 1.476.534 2.146.49 1.122 1.504 1.445 2.654 1.433 1.16-.013 2.05-.437 2.627-1.517.482-.904.48-1.852.484-2.817.03-7.836.045-15.67.106-23.5.032-4.95-1.968-9.15-4.725-13.07zM72.515 95.8c-.007 5.255-.007 10.51-.016 15.765-.006 1.46-1.133 3.1-2.568 3.243-1.796.178-3.633.092-5.15-1.198-.523-.442-.817-.892-.794-1.63.08-2.462.097-4.926.103-7.392 0-.693.21-1.227.737-1.685.396-.344.78-.738 1.058-1.18.3-.473.324-1.082-.05-1.505-.244-.285-.705-.472-1.092-.523-.403-.05-.862.05-1.248.203-.555.22-1.028.25-1.453-.21-1.736-1.874-3.83-1.995-6.19-1.486-3.088.67-5.184 2.45-6.498 5.23-.9 1.912-1.06 3.93-.42 5.947.388 1.22.957 2.38 1.417 3.577.06.162.026.433-.074.576-.417.6-2.576.563-2.905-.09-.276-.55-.212-1.28-.94-1.558-1.007-.388-1.885-.07-2.734.46-.064.035-.14.05-.21.067 0 .04-.005.08-.006.122-.082.026-.17.043-.245.08l-.13.142c.038-.047.07-.11.118-.14h.01l.158-.172.094-.032c.015-.384.044-.774.028-1.16-.043-1.067-.24-1.298-1.257-1.477-.308-.053-.684.053-.925-.088-.213-.124-.43-.52-.387-.747.072-.4.33-.772.528-1.145.403-.754.87-1.477 1.2-2.258.338-.803-.237-1.81-1.07-2.037-.206-.053-.44-.107-.636-.06-1.12.266-1.558-.37-1.814-1.3-.058-.203-.163-.398-.272-.58-.354-.588-1.133-.926-1.635-.536-2.113 1.643-4.7 1.355-7.078 1.668-4.098.542-5.587-3.108-4.614-6.09.74-2.262 2.196-3.833 4.716-4.305 1.61-.303 3.166-.36 4.77-.09 3.92.653 3.923.48 5.842-2.38.474-.708 1.077-1.333 1.547-2.048.796-1.214.198-2.245-1.312-2.336-.3-.02-.597-.025-.898-.036.002.02.008.037.01.058-.042.013-.086.02-.13.032l-.19.275c.013-.075 0-.18.044-.213.042-.03.092-.047.146-.06l.066-.095c.017 0 .035 0 .052.002-.19-1.34-.98-2.545-.81-3.974.09-.78.343-1.114 1.187-1.127 2.25-.035 4.5-.103 6.75-.08 1.318.013 2.568-.235 3.76-.717.32-.13.68-.615.695-.954.048-.957.06-1.952-.156-2.877-.48-2.08-1.097-4.125-1.68-6.18-1.188-4.204-1.113-4.177 2.04-7.283.67-.66 1.534-1.155 2.38-1.6.97-.508 1.904-.16 2.435.85.804 1.527 1.38 3.118 1.397 4.892.017 1.727-.11 3.4-.708 5.055-.715 1.977-.648 3.98.18 5.95.455 1.078 1.126 1.7 2.38 1.754 2.563.104 5.124.31 7.69.474.746.048 1.503.043 2.243.15 1.415.208 2.315 1.146 2.478 2.546.064.53.06 1.07.06 1.606-.005 3.97-.022 7.935-.03 11.9zm8.896-72.024c1.26.47 1.62 1.568 1.99 2.706.638 1.954 1.653 3.688 3.077 5.202 1.184 1.257 2.67 1.702 4.38 1.978 1.445-.08 2.838-.483 3.775-1.854.987-1.443 1.516-3.054 1.81-4.757.29-1.696.727-3.2 2.43-4.21 1.327-.79 1.43-2.63.705-4.05-.318-.617-.818-.984-1.415-1.235-.928-.386-1.17-1.1-1.216-2.045-.06-1.057-.187-2.14-.495-3.146-.956-3.125-2.645-4.25-5.923-4.29-2.374-.03-4.1.995-5.344 2.928-.926 1.444-1.755 2.957-2.1 4.654-.244 1.216-.852 1.99-1.853 2.776-2.23 1.75-1.757 3.344-.08 5.154.075.077.164.154.26.19zm9.33-8.643c.237-.48.518-.93.775-1.4.22-.404.43-.814.644-1.22.315.42.73.806.925 1.28.28.67.512 1.402.56 2.122.09 1.27.025 2.555.025 3.83.215 2.365.003 4.687-.844 6.913-.184.482-.474.954-.82 1.333-.158.177-.594.213-.863.15-.328-.078-.433-.385-.27-.73.33-.674.605-1.367.97-2.016.485-.864.494-1.606-.354-2.24-.51-.378-.557-.9-.325-1.42.427-.965.296-1.767-.305-2.668-.816-1.227-.767-2.605-.12-3.934zm-47.253 75.69c-.31-.17-.935-.203-1.156-.002-.927.84-1.83 1.73-2.595 2.72-.452.586-.51 1.426-.032 2.082.203.28.742.572 1.022.492 1.64-.475 3.215-2.56 3.323-4.464-.114-.18-.254-.657-.56-.826zm16.91-4.643c-.324-.192-.9.402-.725.747.172.334.496.592.82.957.3-.363.703-.675.65-.813-.134-.344-.42-.7-.742-.89z"/></svg>