<svg xmlns="http://www.w3.org/2000/svg" width="128" height="128" viewBox="0 0 128 128"><path d="M108.956 77.897c-1.146-3.253-2.564-6.372-4.242-9.363-3.168-5.635-7.933-9.15-14.264-10.603-2.654-.61-5.32-.553-7.998-.627-4.66-.128-8.846 1.328-12.794 3.695-2.142 1.286-3.936 2.962-5.683 4.713-.604.605-1.216 1.206-1.877 1.745-.535.437-1.34.12-1.488-.555-.71-3.244-1.423-6.484-2.094-9.733-.28-1.362-.535-2.737-.66-4.12-.238-2.58-.822-5.042-1.777-7.467-1.567-3.96-4.055-7.02-7.858-8.98-.94-.482-1.592-.412-2.223.495-1.164 1.672-2.257 3.394-3.4 5.084-.355.527-.753 1.03-1.177 1.507-.068.077-.483.01-.527-.085-.258-.58-.413-1.205-.683-1.78-.412-.878-.235-1.63.256-2.42.396-.634.7-1.327.99-2.016.404-.945-.09-1.69-1.162-1.726-.96-.03-1.932-.015-2.894.06-1.017.082-1.534.89-1.195 1.807.224.602.476 1.197.772 1.767.37.72.356 1.447.15 2.187-.172.62-.38 1.23-.58 1.84-.033.1-.14.265-.176.257-.2-.053-.416-.12-.58-.24-.168-.12-.322-.292-.418-.476-1.092-2.083-2.215-4.15-3.233-6.267-.814-1.696-1.126-1.935-2.85-1.694-1.118.155-2.022.705-2.8 1.466-1.38 1.352-2.786 2.683-4.074 4.117-1.437 1.608-2.506 3.45-3.26 5.5-1.086 2.95-1.694 5.962-1.694 9.108.008 5.153-.03 10.305-.04 15.457-.003 1.502.06 3.004.055 4.507 0 1.11.31 2.123.867 3.054.68 1.13 2 1.61 3.37 1.237 1.152-.313 1.838-1.12 2-2.272.117-.843.083-1.71.075-2.57-.032-4.078-.056-8.156-.12-12.234-.045-2.913.285-5.797.92-8.62.394-1.758 1.188-3.43 1.826-5.13.05-.13.27-.193.41-.284.053.09.14.174.16.273.23 1.044.512 2.08.656 3.14.31 2.224.477 4.47.832 6.69.814 5.095 1.12 10.22 1.077 15.375-.036 4.723-.036 9.448.11 14.168.117 3.853.288 7.725.785 11.543.375 2.89.433 5.765.546 8.655.098 2.454.304 4.908.565 7.347.075.71.395 1.456.805 2.05.5.723 1.3 1.133 2.233 1.03 1.53-.163 2.506-1.087 2.866-2.575.645-2.655.42-5.326.233-8.002-.112-1.603-.276-3.206-.287-4.81-.025-4.51.017-9.017.037-13.526.004-.642-.015-1.29.05-1.93.06-.574.42-1.02.983-1.137.73-.15 1.483-.216 2.227-.267.52-.032.996.456.98 1.045-.05 1.712-.232 3.424-.207 5.133.043 2.894.21 5.784.302 8.155 0 4.605-.002 8.684.004 12.762 0 .75-.01 1.504.052 2.25.072.91.515 1.708 1.293 2.124 1.93 1.03 3.404 1.11 5.004-.396 1.088-1.017 1.703-2.158 1.577-3.676-.07-.853-.02-1.717-.076-2.573-.177-2.777-.467-5.552-.55-8.33-.14-4.608-.17-9.216-.715-13.803-.218-1.806-.07-3.654-.26-5.465-.415-4.07-.43-8.128-.05-12.2.108-1.166-.05-2.354-.09-3.532-.065-1.82-.21-3.637-.18-5.454.043-2.89.176-5.78.33-8.67.055-1.06.26-2.12.44-3.173.026-.145.305-.32.484-.34.14-.016.39.155.446.298 1.14 3.01 2.23 6.05 2.556 9.27.22 2.143.626 4.227 1.152 6.307.79 3.115 1.61 6.23 1.544 9.487-.02.977.105 1.962.686 2.772.493.685.497 1.257.22 2.064-2.283 6.692-2.427 7.79-2.277 14.81.017.75.06 1.5.104 2.25.027.427.043.866.142 1.278 1.653 6.842 5.19 12.37 11.132 16.328 4.267 2.842 9.045 3.82 14.008 4.123 5.843.357 11.23-1.36 16.34-4.018 2.575-1.342 4.975-3.016 6.973-5.127 6.167-6.507 8.575-14.475 8.49-23.246-.026-2.977-.594-5.942-1.61-8.816zM102.133 98.4c-1.323 3.356-3.15 6.24-6.304 8.288-3.717 2.417-7.56 4.437-11.857 5.576-1.47.388-2.95.624-4.45.507-2.558-.2-5.146-.316-7.652-.813-2.913-.576-5.282-2.16-7.087-4.64-3.602-4.95-4.63-10.462-4.066-16.44.46-4.852 1.888-9.42 3.59-13.94.66-1.748 1.562-3.3 2.947-4.53 1.52-1.35 3.075-2.667 4.686-3.908.668-.513 1.487-.88 2.287-1.14 1.832-.6 3.696-1.075 5.54-1.623 2.567-.762 7.984-1.263 11.124-.533.71.166 1.41.5 2.02.902 2.84 1.858 5.016 4.34 6.584 7.342 2.32 4.435 3.62 9.144 3.69 14.168.012.75.004 1.5.004 2.25h.027c0 1.074-.01 2.147.004 3.22.016 1.85-.408 3.605-1.084 5.317zM29.648 24.562c.76.337 1.054.93 1.333 1.672.527 1.394 1.148 2.763 1.847 4.077.712 1.34 1.75 2.44 3.075 3.2 2.97 1.71 6.07.67 7.357-2.52.515-1.274.967-2.624 1.132-3.98.173-1.402.62-2.435 1.9-3.09 1.066-.545 1.475-1.49 1.423-2.86.144-1.104-.3-2.165-1.498-2.727-.914-.427-1.25-1.05-1.23-2.01.033-1.524-.445-2.94-1.012-4.332-.504-1.247-1.397-2.183-2.565-2.757-2.976-1.46-6.266-.55-8.2 2.23-1.165 1.674-2.183 3.43-2.375 5.528-.064.69-.358 1.21-.96 1.558-.275.16-.573.305-.813.508-1.68 1.403-1.83 3.08-.41 4.733.27.313.62.605.995.77zm8.518-7.783c.384-1.193 1.146-2.263 1.775-3.37.034-.06.41-.04.474.05.892 1.255 1.184 2.714 1.312 4.205.07.846.01 1.704.01 2.375.225 2.78-.362 5.26-1.202 7.68-.157.457-.608.822-.974 1.18-.097.094-.422.06-.566-.034-.14-.09-.3-.377-.253-.5.31-.786.72-1.535 1.01-2.33.3-.824.477-1.652-.553-2.198-.41-.216-.512-.62-.293-1.086.53-1.146.573-2.216-.36-3.247-.705-.78-.652-1.882-.38-2.73zM88.66 85.82c-1.13-.306-2.313-.426-3.47-.633-.47-.085-.78-.356-.8-.838-.033-.64-.007-1.286-.007-1.93h.037c0-.75-.025-1.5.008-2.244.026-.493.388-.736.843-.814 1.32-.224 2.513.092 3.71.697 1.005.51 2.172.024 2.753-.925.5-.82.387-1.93-.3-2.68-.898-.986-1.996-1.61-3.348-1.704-.853-.06-1.714-.066-2.57-.116-.833-.05-1.06-.302-1.113-1.23-.058-1.07-.016-2.154-.167-3.208-.117-.827-.42-1.643-.74-2.42-.247-.604-1.293-.63-1.605-.09-.21.37-.476.75-.544 1.153-.326 1.894-.668 3.792-.843 5.703-.097 1.056-.436 1.84-1.31 2.42-2.26 1.492-4.097 3.45-5.876 5.452-.698.787-1.427 1.71-1.69 2.688-.798 2.96.094 4.655 3.072 5.118.42.067.857.067 1.285.067 3.802-.014 3.246-.195 3.23 3.6 0 .212-.027.426-.046.64-.05.492-.406.786-.85.705-.94-.175-1.878-.475-2.824-.495-1.882-.038-3.036 2.105-1.995 3.67.408.61.955 1.187 1.563 1.585.885.58 1.865 1.045 2.848 1.448.905.374 1.345.908 1.356 1.923.006 1.173.09 2.362.3 3.515.313 1.737.914 2.136 2.647 2.013.323-.02.644-.03.96-.083.636-.112 1.152-.645 1.22-1.32.065-.64.074-1.28.072-1.923 0-.75-.06-1.5-.064-2.25-.003-.606.316-1.036.908-1.135.843-.145 1.698-.204 2.55-.305 1.94-.237 3.743-.88 5.412-1.895 1.43-.876 2.36-2.102 2.802-3.752.575-2.133-.038-4.046-1.06-5.824-1.41-2.446-3.672-3.856-6.348-4.587zm-10.828-.237c-.09-.17-.373-.535-.306-.615.448-.557.96-1.072 1.488-1.56.09-.082.41-.045.516.054.132.117.216.363.21.55-.024 1.183-.56 1.65-1.91 1.57zm12.045 9.29c-1.453.716-3.016 1.023-4.62 1.13-.53.032-.96-.405-.983-1.01-.025-.64-.004-1.28-.004-1.92h-.015v-.64c-.038-2.352.285-2.45 2.677-2.115 1.29.18 2.432.752 3.363 1.704 1.005 1.024.848 2.226-.42 2.85z"/></svg>