<svg xmlns="http://www.w3.org/2000/svg" width="128" height="128" viewBox="0 0 128 128"><path d="M112.35 41.038c-.527-.523-1.163-.943-1.758-1.397-.683-.51-1.42-.96-2.056-1.53-2-1.783-3.973-3.594-5.935-5.422-1.5-1.397-3.1-2.65-4.977-3.488-1.202-.54-2.487.4-2.334 1.727.082.72.305 1.483.674 2.1.873 1.477 1.87 2.88 2.808 4.315.29.44.08.832-.486.82-4.288-.067-8.603.104-12.858-.324-3.427-.344-6.846-.408-10.27-.562-.532-.02-1.07.037-1.604.07-.914.052-1.646.458-2.176 1.2-.497.7-.974 1.41-1.453 2.124-.892 1.336-1.775 2.68-2.68 4.008-.113.165-.427.4-.49.357-.25-.167-.505-.395-.64-.66-.34-.684-.51-1.41-.22-2.17.15-.4.378-.78.467-1.19.373-1.726-1.102-3.2-2.852-2.88-1.56.282-2.58 2.186-1.645 3.388.832 1.07.848 2.138.688 3.31-.034.254-.255.48-.394.718-.175-.11-.41-.184-.516-.342-.42-.62-.83-1.253-1.186-1.91-.817-1.5-1.617-3.012-2.39-4.537-.287-.57-.476-1.186-.72-1.78-.277-.68-.81-1.04-1.488-.837-1.227.363-2.42.824-3.64 1.224-.705.23-1.413.512-2.143.617-2.756.402-5.525.608-8.32.625-2.46.015-4.915.362-7.374.51-1.284.08-2.572.054-3.86.06-.21 0-.438-.04-.622-.13-.18-.088-.38-.24-.447-.413-.047-.12.067-.41.192-.475.85-.45 1.724-.86 2.587-1.292.668-.336 1.375-.623 1.99-1.042 1.196-.81 1.644-2.364 1.16-3.712-.432-1.214-1.6-1.963-3.04-1.94-.767.01-1.53.12-2.084.69-1.077 1.098-2.46 1.703-3.776 2.418-2.447 1.337-4.91 2.638-7.36 3.97-.94.513-1.912.995-2.768 1.628-.675.498-1.283 1.147-1.755 1.842-.51.752-.54 1.69.05 2.42 1.274 1.584 2.55 3.174 4.39 4.19 2.265 1.255 4.245 2.892 6.1 4.7.84.818 1.78 1.543 2.73 2.24 1.233.906 2.635.83 4.004.415 1.29-.396 1.968-1.964 1.333-3.134-.4-.736-.976-1.392-1.538-2.025-.276-.31-.724-.46-1.055-.727-.58-.472-1.14-.973-1.688-1.488-.146-.14-.21-.36-.315-.546.265-.113.573-.378.79-.316 3.466.997 7.007.736 10.538.69 2.47-.028 4.94-.046 7.405-.03.964.005 1.935.055 2.888.193 1.6.23 2.19.826 2.486 2.47.23 1.264.372 2.545.547 3.817.773 5.517 1.653 11.025 1.648 16.62 0 1.716.03 3.434.008 5.15-.092 6.977.3 13.94.617 20.904.035.747.177 1.49.245 2.235.328 3.624.944 7.225.883 10.885-.03 1.82.015 3.652.15 5.47.106 1.422 1.044 2.332 2.324 2.82 1.268.488 2.296-.084 3.18-.968.55-.55.882-1.212.886-2.01 0-.858.006-1.716.006-2.574v-10.3h-.094c0-4.08-.013-8.158.006-12.236.006-1.554.288-1.832 1.842-2.01.422-.05.853-.053 1.28-.028.493.03.78.363.808.82.06.963.068 1.932.07 2.895.006 4.613-.06 9.227.027 13.84.062 3.324.56 6.614 1.203 9.874.242 1.227.72 1.68 1.956 1.71 3.46.08 4.682.316 4.266-4.3-.203-2.25-.258-4.486-.337-6.73-.07-2.038-.004-4.1-.29-6.108-.324-2.243-.406-4.483-.43-6.733-.043-4.506-.03-9.01-.053-13.516-.023-4.29-.096-8.584-.085-12.875 0-1.823-.04-3.676.27-5.457.332-1.92.432-3.832.438-5.76.008-2.145-.046-4.29-.025-6.436.017-1.624.608-2.368 2.202-2.68.83-.164 1.7-.16 2.555-.19 2.787-.095 5.615.095 8.356-.31 3.966-.584 7.92-.22 11.874-.352.173-.003.35.145.525.22-.183.106-.356.236-.55.307-.802.298-1.643.51-2.41.876-1.16.55-2.292 1.166-3.393 1.828-.973.587-1.467 1.536-1.643 2.645-.18 1.123.528 2.176 1.62 2.42 1.188.268 2.337.108 3.476-.3 1.312-.468 2.61-1.03 3.965-1.308 3.948-.804 7.4-2.798 11.003-4.426.632-.288 1.348-.915 1.547-1.538.727-2.277 1.137-2.96-.844-4.928zM54.852 25.584c1.146.445 1.544 1.39 1.856 2.436.558 1.87 1.49 3.55 2.712 5.056 1.205 1.483 2.79 2.278 4.695 2.4 1.525.17 2.688-.423 3.68-1.557.955-1.09 1.387-2.4 1.755-3.738.284-1.027.47-2.083.656-3.136.098-.555.28-1.007.787-1.31.37-.215.728-.46 1.047-.74 1.87-1.633 1.86-4.08-.22-5.378-1.074-.673-1.5-1.385-1.482-2.557.01-.637-.038-1.29-.174-1.914-1.064-4.902-4.88-6.063-8.416-4.88-1.504.5-2.524 1.58-3.36 2.85-.945 1.44-1.65 3.01-2.034 4.686-.227.987-.475 1.854-1.506 2.27-.194.074-.363.228-.516.372-1.42 1.312-1.55 2.7-.382 4.245.254.336.535.75.898.89zm9.683-9.29c.293-.428.427-.967.67-1.437.066-.132.295-.3.396-.27.19.053.38.213.49.38.594.908.994 1.88.99 2.993-.01 1.173-.004 2.345-.004 3.52.155 2.464.064 4.912-.883 7.237-.194.48-.496.944-.853 1.318-.17.18-.598.23-.876.165-.4-.09-.326-.464-.195-.752.39-.875.804-1.742 1.2-2.613.253-.557.13-1.116-.326-1.44-.747-.533-.902-1.157-.512-1.926.384-.755.288-1.456-.14-2.125-1.084-1.698-1.125-3.363.04-5.056z"/></svg>