<svg xmlns="http://www.w3.org/2000/svg" width="128" height="128" viewBox="0 0 128 128"><path d="M76.27 94.415c-.18-.997-.418-1.995-.504-3-.17-2.026-.2-4.066-.39-6.094-.37-3.89-.235-7.785-.203-11.676.007-.926.072-1.864-.035-2.778-.422-3.7-.344-7.396-.06-11.1.086-1.105.172-2.254-.026-3.33-.35-1.856-.254-3.695-.19-5.547.078-2.223.144-4.446.27-6.663.063-1.077-.16-2.24.615-3.17.305-.367.725.373 1.502 2.694.502 1.503.89 3.004.864 4.616-.073 5.01-.083 10.02-.117 15.03-.007.65-.043 1.3.005 1.947.102 1.39 1.195 2.54 2.478 2.55 1.302.013 2.568-.97 2.68-2.334.124-1.476.278-2.956.304-4.434.05-2.782.014-5.566.014-8.35h.068c0-2.598-.025-5.197.007-7.794.043-3.412-.808-6.58-2.33-9.625-1.294-2.584-3.114-4.574-5.716-5.853-1.112-.55-1.685-.5-2.392.473-.707.976-1.34 2.005-2.003 3.008-.463.696-.91 1.402-1.4 2.077-.15.206-.41.398-.65.446-.106.02-.314-.32-.422-.523-.085-.157-.06-.37-.128-.538-.402-.917-.323-1.777.226-2.622.3-.463.55-.963.785-1.46.173-.36-.203-1.09-.604-1.094-1.287-.014-2.577.004-3.857.08-.533.03-.917.816-.672 1.296.29.576.59 1.158.98 1.668.39.517.394.992.144 1.544-.15.335-.213.71-.37 1.043-.06.133-.26.273-.398.273-.156 0-.382-.113-.454-.245-1.005-1.877-2.162-3.695-2.933-5.666-.786-2.01-1.395-1.652-2.93-1.146-1.278.427-2.343 1.074-3.234 2.062-.435.482-.937.904-1.376 1.38-2.574 2.798-4.223 6.02-4.827 9.823-.324 2.037-.352 4.058-.355 6.094-.01 4.825.013 9.65-.008 14.473-.003.947.15 1.845.483 2.72.452 1.197 1.436 1.877 2.526 1.786 1.24-.105 2.262-1.02 2.4-2.306.097-.917.04-1.852.033-2.778-.018-3.62-.14-7.24-.032-10.855.065-2.213.383-4.43.758-6.62.244-1.45.733-2.874 1.535-4.146.075-.118.248-.18.387-.246.016-.008.136.13.156.213.197.904.435 1.803.565 2.716.27 1.924.438 3.864.735 5.785.558 3.67.896 7.35.896 11.067.007 5.288.047 10.578.118 15.867.02 1.388.22 2.768.334 4.15.258 3.138.53 6.276.76 9.416.07.922-.014 1.856.037 2.78.08 1.473.134 2.952.33 4.41.225 1.638 1.32 2.497 2.85 2.433 1.026-.043 1.75-.562 2.24-1.42.43-.746.55-1.567.503-2.42-.125-2.125-.33-4.25-.354-6.38-.044-4.64.01-9.28.014-13.917.002-1.352.14-1.504 1.483-1.952.344-.116.73-.11 1.1-.14.694-.05 1.098.26 1.105.923.018 2.504-.03 5.013.02 7.515.037 1.852.184 3.704.297 5.554.067 1.108.19 2.213.25 3.32.06 1.113 0 2.237.14 3.334.146 1.09.408 2.187.76 3.228.165.48.61.936 1.036 1.25.88.65 2.06.632 2.864.043.96-.704 1.54-1.597 1.313-2.856zm21.22 17.755c-.05-1.856-.03-3.71-.102-5.562-.026-.728-.098-1.49-.344-2.17-.622-1.713-2.502-2.126-3.802-.857-.31.304-.565.76-.65 1.186-.22 1.085-.36 2.187-.473 3.285-.085.83-.066 1.668-.114 2.5-.02.386-.47.564-.827.348-.16-.094-.323-.183-.47-.293-3.855-2.885-7.71-5.77-11.563-8.66-.515-.388-.99-.865-1.555-1.15-.472-.24-1.052-.32-1.59-.35-.712-.044-1.223.468-1.34 1.14-.19 1.09.106 2.03.89 2.79 1.133 1.09 2.256 2.202 3.46 3.214 2.2 1.844 4.46 3.62 6.677 5.44.183.15.27.42.4.635-.27.06-.537.178-.798.165-.924-.052-1.85-.113-2.767-.24-1.5-.204-2.944.19-4.403.377-.338.043-.663.31-.963.52-.58.4-.82 1.056-.66 1.7.307 1.247 1.01 2.173 2.236 2.64 1.472.558 2.97.99 4.544 1.236 1.633.253 3.33.267 4.865 1.018 1.08.53 2.224.893 3.345 1.31 1.312.49 2.584-.56 3.8.17 1.075-.125 1.987-.534 2.407-1.6.23-.59.32-1.232.392-1.517-.045-.734-.007-1.12-.094-1.472-.482-1.906-.448-3.86-.506-5.8zM53.686 100c-.61.177-1.163.55-1.736.846-.984.512-1.95 1.06-2.947 1.547-2.99 1.46-5.992 2.9-8.985 4.352-.584.283-1.14.615-1.728.885-.227.107-.54.256-.715-.1-.075-.146-.13-.35-.087-.5.242-.794.593-1.564.762-2.37.15-.707.235-1.475.117-2.176-.198-1.21-1.648-1.78-2.59-1.04-.64.51-1.21 1.142-1.684 1.81-1.892 2.66-2.94 5.754-4.322 8.675-.112.243-.16.53-.2.8-.194 1.297.357 2.432 1.57 2.942.664.277 1.42.446 2.14.456 1.85.027 3.702-.03 5.55-.113 2.237-.105 4.43-.043 6.576.732.768.28 1.615.41 2.432.458 1.056.056 2.035-.698 2.343-1.632.398-1.205-.03-2.577-1.074-3.163-.558-.313-1.19-.504-1.807-.69-.884-.27-1.78-.486-2.673-.733-.083-.02-.227-.113-.222-.143.038-.16.075-.378.19-.45.465-.296.942-.58 1.44-.81 1.77-.805 3.563-1.555 5.318-2.382 1.423-.67 2.8-1.43 4.21-2.13 1.023-.51 1.492-1.332 1.47-2.312.014-2.027-1.556-3.277-3.348-2.76zm5.667-81.028c.516.322.77.715.94 1.276.51 1.69 1.23 3.28 2.322 4.69.64.82 1.403 1.487 2.363 1.87 2.677 1.078 4.9.208 5.927-2.3.482-1.183.858-2.447 1.024-3.71.145-1.113.5-1.883 1.51-2.43 1.482-.8 1.532-2.195 1.22-3.628-.075-.33-.32-.77-.597-.882-1.443-.587-1.766-1.696-1.723-3.104.016-.533-.24-1.077-.382-1.61-.768-2.828-2.285-3.986-5.187-3.973-1.993.013-3.36.653-4.483 2.274-.952 1.365-1.767 2.833-2.04 4.5-.148.9-.493 1.545-1.31 1.967-.318.166-.59.445-.833.716-.805.9-.89 2.07-.145 3.044.38.5.863.967 1.396 1.3zm7.508-7.606c.19-.316.35-.65.55-.96.27-.42.357-1.246.983-1.04.378.13.615.865.787 1.373.205.604.343 1.252.388 1.89.064.916.014 1.844.014 2.274.216 2.65-.31 4.7-.992 6.715-.11.32-.376.63-.65.827-.163.113-.507.037-.737-.04-.096-.033-.188-.323-.147-.45.147-.435.322-.865.544-1.266.533-.97.82-1.86-.34-2.634-.332-.22-.193-.646-.035-1.003.398-.912.317-1.71-.315-2.57-.695-.948-.676-2.066-.05-3.116zm-34.24 72.81c.758 1.388 1.45 2.777 1.578 4.402.04.533.275 1.083.54 1.56.927 1.674 3.325 1.805 4.4.23.302-.443.422-1.01.633-1.518.18-.43.464-.527.865-.29 1.518.884 3.026 1.79 4.55 2.662 1.674.96 3.505 1.632 4.83 3.175.654.757 1.703.7 2.604.333.914-.38 1.446-1.11 1.524-2.14.096-1.284-.264-2.418-1.283-3.213-.794-.62-1.687-1.13-2.57-1.62-1.214-.675-2.467-1.275-3.69-1.932-.73-.392-.75-.552-.306-1.213.253-.38.523-.755.747-1.155.464-.828.29-1.603-.247-2.333-.515-.698-1.17-1.11-2.05-1.287-2.35-.477-4.687-1.016-7.02-1.583-.61-.15-1.194-.442-1.758-.732-1.3-.667-1.903-.62-2.99.33-.35.306-.742.592-.99.967-.342.517-.566 1.114-.785 1.57.138.64.175 1.11.346 1.53.31.77.672 1.523 1.072 2.254zm53.09-.55c.65.432.69.553.17.912-1.37.94-2.76 1.845-4.155 2.745-.464.3-1.003.487-1.443.813-1.153.856-1.247 2.355-.248 3.376.572.587 1.295.723 2.048.544 1.547-.37 2.923-1.11 4.235-2 1.298-.88 2.645-1.685 3.98-2.514.228-.144.607.03.61.26.005.37 0 .736 0 1.107h-.082c0 .46-.02.922.003 1.383.053 1.186.864 2.088 2.03 2.277.833.136 2.01-.602 2.405-1.535.18-.424.355-.862.445-1.312.48-2.357 1.093-4.635 2.283-6.784.94-1.698-.19-3.46-2.122-3.533-2.58-.102-5.166.02-7.728-.49-.893-.18-1.835-.07-2.718.32-1.644.724-1.98 2.61-.638 3.826.267.243.62.395.925.602z"/></svg>