<svg xmlns="http://www.w3.org/2000/svg" width="128" height="128" viewBox="0 0 128 128"><path d="M107.248 60.203c-.053-.633-.194-1.265-.37-1.874-.675-2.338-2.026-4.288-3.85-5.815-2.877-2.41-5.854-4.718-9.504-5.912-.304-.1-.61-.197-.907-.32-.672-.273-.98-.783-.97-1.504.005-.43-.033-.86-.012-1.287.107-2.374-.293-4.704-.606-7.043-.07-.514-.208-1.07-.48-1.498-.2-.307-.66-.538-1.04-.61-.43-.083-.838.186-.997.63-.48 1.32-.636 2.698-.736 4.095-.126 1.813-.366 3.62-.59 5.425-.06.493-.464.678-.924.7-.32.015-.644 0-.964-.022-1.073-.078-1.36-.333-1.396-1.325-.05-1.5-.06-3.003-.107-4.505-.017-.533-.043-1.077-.166-1.59-.386-1.623-2.3-2.243-3.53-1.09-.523.49-.965 1.165-1.2 1.842-.345 1.003-.47 2.082-.687 3.132-.216 1.045-.168 2.25-.702 3.093-.645 1.02-2.087.894-3.2 1.156-4.62 1.088-8.154 3.648-10.69 7.635-.342.542-.697 1.077-1.055 1.606-.056.083-.17.128-.254.19-.06-.09-.157-.17-.174-.27-.217-1.153-.498-2.303-.612-3.47-.448-4.53-2.528-8.378-5.006-12.036-.647-.955-1.537-1.86-2.52-2.448-3.852-2.304-3.566-3.456-6.563 1.304-.853 1.358-1.792 2.667-2.702 3.99-.175.255-.617.176-.78-.094-.465-.76-.723-1.562-.46-2.447.15-.512.427-.988.53-1.504.18-.93-.188-1.68-.956-2.227-.927-.66-2.164-.636-2.98.06-1.03.874-1.32 2.006-.47 3.078.952 1.196.69 2.384.443 3.64-.016.087-.1.21-.165.22-.094.018-.22-.034-.3-.097-.164-.128-.362-.258-.455-.435-1.387-2.65-2.767-5.3-4.12-7.967-.367-.724-.763-1.087-1.425-.94-1.778.405-3.557.813-4.85 2.27-.428.48-.932.89-1.39 1.346-4.325 4.284-6.553 9.45-6.572 15.556-.014 3.86-.05 7.727-.053 11.59-.002 2.896.046 5.793.06 8.69.003.76.118 1.47.495 2.16.835 1.543 2.59 1.785 3.68.447.336-.416.576-.914.928-1.31.773-.866.9-1.85.872-2.978-.077-3.324-.043-6.652-.066-9.978-.025-3.452.626-6.82 1.33-10.17.214-1.04.66-2.036 1.07-3.022.147-.352.47-.83.77-.875.563-.09.535.526.603.91.17.948.304 1.902.437 2.858.765 5.518 1.65 11.024 1.637 16.62-.002 1.18.025 2.362.008 3.54-.102 7.405.238 14.8.602 22.19.04.854.194 1.703.267 2.557.302 3.52.917 7.01.873 10.562-.02 1.93.013 3.867.156 5.792.107 1.423 1.075 2.325 2.354 2.798 1.27.47 2.293-.114 3.174-1.007.547-.555.86-1.222.86-2.016.004-.86.013-1.716.006-2.576-.03-7.403-.07-14.808-.086-22.212-.004-1.93.248-2.162 2.197-2.344 1.375-.13 1.78.182 1.79 1.514.02 3.006-.002 6.01.006 9.013.004.966-.12 1.98.117 2.888.605 2.325.555 4.683.508 7.03-.042 1.96.385 3.84.718 5.734.11.62.378 1.236.68 1.796.578 1.077 2.157 1.68 3.338 1.352 1.395-.39 2.312-1.405 2.377-2.703.028-.53.057-1.105-.104-1.596-.69-2.092-.512-4.243-.576-6.382-.06-1.922.038-3.854-.533-5.744-.214-.695-.118-1.49-.118-2.242-.007-6.973-.005-13.946-.005-20.917h-.01c0-6.76-.004-13.52 0-20.28 0-.533.027-1.072-.01-1.606-.09-1.316.263-2.553.673-3.776.046-.136.3-.33.398-.3.184.057.38.225.47.4.83 1.612.96 3.52 2.146 4.99.117.148.11.41.136.62.258 1.91.518 3.82.76 5.73.176 1.38.31 2.766.497 4.146.056.418.186.838.356 1.222.556 1.246 1.718 1.57 2.917.827.27-.166.468-.448.74-.612.122-.074.43-.057.495.033.243.34.495.71.61 1.11.605 2.047 1.89 3.632 3.536 4.868 2.585 1.936 5.324 3.585 8.666 3.935 1.873.195 2.06.513 2.022 2.518-.015.75-.043 1.502-.088 2.253-.192 3.21-.39 6.418-.59 9.625-.01.214-.014.43-.026.644-.008.107-.027.213-.043.32-.064.523-.497.725-.934.43-2.08-1.404-3.712-3.232-5.006-5.368-.83-1.373-2.036-2.31-3.594-2.437-1.807-.15-3.66-.16-5.45.084-2.096.283-3.16 2.274-2.598 4.352.538 1.982 1.434 3.797 2.46 5.57 2.285 3.954 5.505 6.808 9.774 8.446 1.3.498 2.635.9 3.965 1.32.597.19.86.59.867 1.18.03 2.04-.006 4.08.094 6.113.047.945.25 1.908.547 2.81.333 1.003 1.17 1.488 2.225 1.576 1.774.15 2.95-.59 3.347-2.292.216-.928.224-1.912.264-2.87.08-1.716.09-3.436.173-5.15.027-.584.405-1.023.98-1.124 1.932-.345 2.053-.225 2.35 1.553.07.422.166.843.212 1.267.304 2.876.59 5.755.904 8.63.15 1.382.33 2.764.53 4.14.04.272.1.716.527.556.25-.094.446-.407.597-.66.107-.172.124-.413.13-.624.14-4.94 1.406-9.76 1.448-14.706.01-1.096.545-1.808 1.558-2.197 3.488-1.33 6.29-3.628 8.826-6.288 1.264-1.326 2.353-2.8 2.99-4.537 1.196-3.26.88-6.533-.055-9.792-.055-.203-.16-.395-.27-.576-2.194-3.643-4.85-6.812-8.806-8.657-.58-.272-1.203-.484-1.724-.85-.31-.215-.635-.668-.64-1.02-.026-1.285.05-2.573.14-3.856.088-1.28.31-2.556.352-3.837.126-4.03.192-3.86 3.603-1.82 1.13.676 2.127 1.355 2.566 2.71.247.742 1.015 1.143 1.815 1.13 1.71-.032 3.467.068 5.118-.288 2.27-.494 3.34-2.128 3.154-4.204zm-30.52-2.415c-.194 3.26-.34 5.796-.504 8.33-.014.2-.145.56-.207.558-.277-.013-.587-.075-.82-.22-1.586-.998-1.816-2.52-1.464-4.18.31-1.457.917-2.812 1.794-4.036.293-.413.518-.97 1.1-.9.123.017.16.76.1.45zm7.69 24.143c-.132 3.528-.253 7.055-.4 10.583-.04.992-.746 1.442-1.79 1.13-.26-.077-.6-.364-.644-.603-.098-.517-.053-1.068-.02-1.6.167-2.56.334-5.124.536-7.682.11-1.387.277-2.766.448-4.144.053-.424.203-.866.755-.82.565.045 1.073.315 1.17.91.113.733.1 1.485.14 2.23l-.197-.003zm.978-13.516c-.03.317-.02.683-.178.93-.144.23-.498.48-.743.463-.38-.028-.82-.195-1.1-.45-.18-.167-.173-.594-.175-.904-.014-1.715-.005-3.43-.005-5.147h.288c0-1.714-.028-3.432.01-5.148.03-1.294.54-1.628 1.904-1.36.64.125 1.013.52.965 1.062-.32 3.517-.642 7.035-.966 10.553zm6.496 13.943c.51.37.94.86 1.358 1.34 1.135 1.3 1.27 2.53.435 4.1-.82 1.54-2.106 2.647-3.534 3.598-.16.107-.505.203-.582.125-.196-.198-.398-.494-.41-.76-.05-.956-.02-1.913-.02-3.27.125-1.19.275-2.774.463-4.353.073-.59-.15-1.49.638-1.58.52-.06 1.157.435 1.656.798zM32.38 23.077c1.32.408 1.668 1.528 2.027 2.674.548 1.757 1.436 3.34 2.58 4.773 1.272 1.594 2.926 2.45 5.578 2.55.797.08 1.856-.5 2.79-1.516.983-1.07 1.442-2.37 1.81-3.706.313-1.13.446-2.307.736-3.444.095-.38.36-.757.648-1.035.38-.367.894-.596 1.285-.953 1.688-1.525 1.664-3.996-.264-5.184-1.18-.73-1.65-1.515-1.597-2.822.066-1.535-.405-2.957-1.167-4.276-.66-1.148-1.57-1.973-2.896-2.37-2.998-.9-5.533-.178-7.43 2.277-1.195 1.543-1.984 3.308-2.446 5.188-.267 1.083-.723 1.832-1.685 2.522-2.27 1.628-1.877 3.31-.215 5.12.075.08.15.178.245.207zm9.71-9.103c.288-.437.467-.95.704-1.42.09-.178.203-.34.307-.51.24.2.544.36.708.607.535.813.9 1.696.898 2.693v3.84c.153 2.467.072 4.917-.935 7.224-.205.47-.537.917-.91 1.266-.16.15-.59.05-.878-.02-.08-.018-.174-.368-.116-.505.373-.883.776-1.755 1.188-2.62.32-.675.198-1.263-.384-1.698-.605-.457-.77-1.01-.448-1.665.422-.853.338-1.634-.154-2.42-.996-1.59-1.038-3.174.02-4.772z"/></svg>