<svg xmlns="http://www.w3.org/2000/svg" width="128" height="128" viewBox="0 0 128 128"><path d="M113.293 79.877c-.606-3.392-2.09-6.517-3.82-9.495-2.822-4.858-7.08-8.283-11.61-11.41-.607-.422-1.332-.682-2.02-.98-2.362-1.02-4.737-2.01-7.09-3.045-1-.44-2.01-.627-3.106-.677-2.487-.112-4.907.416-7.358.59-3.146.225-6.148.974-9.015 2.188-2.95 1.248-6.005 2.392-8.072 5.077-.128.166-.324.283-.495.412-1.028.78-2.076 1.534-2.69 2.722-.045.086-.16.134-.247.2-.11-.156-.28-.3-.32-.47-.48-2.083-.874-4.193-1.423-6.26-.64-2.39-1.142-4.782-1.316-7.26-.27-3.82-1.684-7.273-3.604-10.554-1.477-2.523-3.737-4.083-6.27-5.333-.59-.288-1.298-.112-1.75.423-.413.49-.787 1.013-1.144 1.55-.953 1.426-1.875 2.873-2.835 4.298-.234.346-.54.656-.855.93-.098.085-.487.035-.507-.025-.31-1.02-.632-2.043-.827-3.087-.07-.368.14-.82.314-1.195 1.1-2.382 1.01-2.598-1.454-3.212-.514-.128-1.042-.235-1.57-.275-.305-.024-.694.017-.918.19-.3.24-.725.688-.668.957.192.927.38 1.953.917 2.69.952 1.306.753 2.603.43 3.968-.036.16-.274.352-.44.378-.163.02-.41-.107-.524-.245-.27-.33-.507-.692-.706-1.07-1.05-1.99-2.126-3.97-3.124-5.985-1.18-2.387-1.137-2.368-3.488-1.56-1.346.464-2.544 1.09-3.5 2.166-.498.56-1.087 1.042-1.6 1.59-3.085 3.29-5.108 7.077-5.765 11.612-.28 1.924-.418 3.83-.414 5.76.01 5.903.02 11.806-.008 17.71-.004 1.2.14 2.354.584 3.463.544 1.36 1.707 2.123 2.98 1.98 1.443-.16 2.554-1.223 2.708-2.738.096-.956.04-1.93.034-2.894-.028-4.186-.1-8.37-.082-12.555.015-3.45.517-6.846 1.54-10.137.31-.997.944-1.896 1.43-2.84.834.904.82 2.08.976 3.183.33 2.332.555 4.68.89 7.008.58 4.036 1.006 8.078 1.017 12.16.014 6.335.067 12.667.13 18.998.013 1.285.11 2.572.224 3.853.424 4.8 1.13 9.573 1.114 14.417-.012 2.66.305 5.332.6 7.984.16 1.42 1.343 2.36 2.625 2.396 1.586.04 2.832-.748 3.147-2.188.27-1.248.487-2.542.467-3.81-.04-2.355-.38-4.705-.403-7.06-.058-5.688-.014-11.376.005-17.066.003-1.21.253-1.557 1.34-1.86.61-.168 1.258-.238 1.89-.288.57-.046 1.01.38 1.006.996-.007 1.285-.054 2.57-.106 3.856-.02.533-.156 1.064-.14 1.594.118 3.536.263 7.072.332 8.85 0 5.625.028 9.488-.008 13.354-.032 3.35 2.517 3.975 4.813 3.315.403-.118.82-.33 1.12-.614.293-.273.598-.678.636-1.052.213-2.13.465-4.267.48-6.404.03-3.963.062-7.92-.338-11.89-.346-3.405-.184-6.862-.252-10.295-.05-2.47.02-4.948-.196-7.4-.245-2.79-.273-5.554-.02-8.342.132-1.486.01-2.997-.038-4.496-.05-1.603-.236-3.206-.207-4.806.053-3.106.203-6.21.34-9.315.04-.856.143-1.712.287-2.556.046-.265.323-.488.494-.73.235.167.587.283.69.51.96 2.165 1.533 4.445 1.908 6.78.34 2.112.65 4.235 1.1 6.325.83 3.87 1.77 7.712 2.616 11.578.108.484.036 1.075-.143 1.54-.933 2.433-1.285 4.972-1.547 7.537-.078.745-.218 1.485-.357 2.22-.57 2.985-.67 5.953.15 8.92.46 1.65.867 3.315 1.22 4.992 1.1 5.234 4.155 9.12 8.44 12.09 2.465 1.708 5.065 3.22 7.628 4.777.636.383 1.353.66 2.06.893 4.172 1.376 8.326 2.842 12.836 2.483.317-.024.644.012.962.048 1.192.136 2.32-.005 3.475-.41.89-.314 1.92-.516 2.838-.396 1.46.194 2.8-.218 4.092-.63 4.698-1.495 8.925-3.804 11.535-8.202 1.97-3.313 3.75-6.743 5.515-10.174.78-1.517 1.344-3.136 1.533-4.88.328-2.98.89-5.938 1.112-8.925.158-2.13.175-4.33-.198-6.417zM69.627 68.13c.752-2.104 1.554-4.19 2.363-6.274.296-.76.892-1.13 1.717-1.234.843-.107 1.667-.35 2.507-.51 1.7-.322 2.195.126 1.707 1.852-.622 2.208-.462 4.45-.6 6.682-.057.962-.422 1.4-1.3 1.532-1.896.288-3.796.55-5.55.8-.36 0-.627.08-.773-.018-.23-.156-.55-.45-.53-.655.082-.733.214-1.48.463-2.173zm-.907 7.935c2.475-.66 4.965-1.29 7.555-1.293.576 0 .97.392.98 1.018.018 1.283.005 2.566.005 3.85h.064c0 1.284.016 2.568-.005 3.852-.013.738-.383 1.146-1.16 1.274-.634.103-1.274.168-1.914.198-1.387.066-2.78.085-4.168.15-3.303.15-3.097.212-2.886-3.14.107-1.698.402-3.39.702-5.07.058-.326.49-.748.825-.837zm-12.154 8.15c.896-5.028.633-4.4 5.446-6.33 1.056-.42 1.29-.207 1.216 1.2-.17 1.323-.44 2.895-.557 4.48-.144 1.956-.177 2.22-2.15 2.298-1.156.046-2.306.293-3.463.427-.398.046-.817-.43-.75-.832.067-.416.186-.825.26-1.242zm.342 10.265c-.293-1.338-.512-2.7-.65-4.062-.033-.29.348-.796.652-.92 1.408-.57 2.916-.45 4.398-.434.448.004.78.33.796.806.03.847.01 1.696.01 2.543l-.084.01c.145 1.37.297 2.734.437 4.1.103 1.003-.256 1.436-1.166 1.437-2.92 0-3.767-.642-4.39-3.48zm7.358 11.39c-.035.046-.168.077-.206.048-.846-.637-1.563-1.383-1.925-2.398-.027-.075.27-.384.37-.363.382.083.918.153 1.08.42.37.607.556 1.33.795 1.962-.048.15-.06.257-.113.33zm1.296-36.916c-.43 1.195-.853 2.394-1.28 3.59-1.453.643-2.904 1.287-4.355 1.925-.077.03-.18.002-.27.002-.082-.195-.278-.434-.22-.555 1.504-3.177 3.045-6.334 5.542-8.882.51-.523 1.167-.91 1.79-1.312.216-.143.535-.466.787-.05.088.144.07.414-.002.58-.422.977-.89 1.934-1.314 2.912-.255.582-.46 1.186-.68 1.787zm1.683 28.15c-.093-2.46-.13-4.924-.154-7.388-.002-.48.38-.75.848-.782 2.776-.187 5.553-.37 8.33-.527.664-.037 1.117.31 1.153.836.2 2.773.393 5.55.556 8.326.045.763-.363 1.12-1.2 1.13-1.286.018-2.574.005-3.86.005v-.043c-1.393-.06-2.785-.096-4.176-.192-.927-.06-1.46-.516-1.494-1.367zm11.037 16.94c-.32-.028-.638-.05-.953-.096-1.867-.27-3.32-.93-4.194-2.87-.996-2.217-2.42-4.24-3.63-6.363-.34-.592-.07-.966.643-.973 1.06-.01 2.126-.002 3.19-.002v.198c1.38 0 2.765-.038 4.147.02.565.02 1 .45 1.067 1.023.3 2.637.578 5.276.823 7.917.077.823-.352 1.216-1.1 1.15zm28.216-35.4c.21 1.148.507 2.28.765 3.416l-.134.032c.1.52.265 1.042.275 1.566.006.245-.26.69-.446.715-2.947.37-5.887 1.038-8.88.42-1.027-.21-1.263-.44-1.425-1.406-.46-2.728-.917-5.456-1.376-8.183-.12-.704.102-1.067.7-1 2.86.32 5.687.788 8.38 1.883 1.187.48 1.904 1.28 2.14 2.558zM81.133 61.587c.002-1.507.348-1.767 1.946-1.606 1.16.118 1.92.547 2.337 1.767.797 2.31 1.8 4.547 2.692 6.822.237.607-.065.97-.776 1.006-.427.02-.86.068-1.277.017-1.547-.195-3.168.548-4.654-.373l-.273-4.513c.003-.992 0-2.056.003-3.122zm.115 13.614c.01-.59.4-.97 1.024-.983 2.133-.05 4.267-.085 6.4-.09.793 0 1.216.32 1.413 1.04.306 1.13.565 2.27.843 3.406.023.103.043.213.03.318-.194 1.77 1.22 3.464.25 5.27l-5.045.373c-.002-.036-.004-.075-.008-.113-.213 0-.427.02-.64-.003-1.34-.142-2.74.46-4.032-.32-.09-1.365-.224-2.73-.26-4.096-.04-1.6-.005-3.2.026-4.8zm9.808 29.334c-.18 2.893-.92 5.685-1.565 8.49-.154.692-.686 1.05-1.414 1.07-1.07.027-2.138.088-3.206.085-1.273 0-1.526-.214-1.65-1.41-.266-2.55-.522-5.1-.737-7.65-.066-.773.335-1.172 1.146-1.2 1.065-.04 2.133-.01 2.697-.01 1.466-.19 2.418-.304 3.37-.436 1.1-.153 1.422.082 1.36 1.06zm.67-7.54c-.11.442-.294.855-.744.93-2.635.45-5.275.89-7.968.774-.63-.03-1.07-.366-1.107-.9-.19-2.772-.38-5.546-.535-8.32-.043-.788.35-1.197 1.127-1.215 1.39-.03 2.782-.008 4.173-.008v-.048c1.39 0 2.78-.046 4.166.036.3.016.807.498.81.768.02 2.66.736 5.317.075 7.98zm.445-30.62c-.323-1.226-1-2.36-1.49-3.547-.11-.26-.377-.622.076-.81.277-.115.623-.185.91-.13 1.938.38 3.634 1.334 5.13 2.55 2.082 1.69 3.846 3.714 5.403 5.91.046.063.03.174.046.266-.09.06-.188.18-.264.168-1.476-.24-2.947-.495-4.42-.753-.316-.053-.64-.23-.936-.192-2.677.357-3.827-1.11-4.45-3.46zm11.788 34.61c-1.237 2.198-2.485 4.556-4.22 6.627-1.257 1.505-2.62 2.817-4.555 3.4-.398.12-.92.525-1.146.394-.587-.346-.156-.923-.05-1.416.45-2.09.925-4.175 1.307-6.278.162-.886.658-1.28 1.45-1.47.83-.202 1.668-.383 2.486-.636 1.425-.442 2.836-.94 4.262-1.39.168-.054.384.034.576.058l-.11.712zm2.887-6.46c-.083.35-.48.688-.817.908-.346.225-.783.37-1.195.425-2.528.34-5.056.65-7.586.953-.442.053-.787-.336-.768-.76.112-2.23.215-4.46.335-6.69.032-.605.405-.942 1.03-.946 1.49-.007 2.982-.002 4.47-.002v-.053c1.487 0 2.974-.02 4.462.01.467.01.747.326.802.817.206 1.84-.317 3.586-.737 5.338zM26.562 23.59c.964.318 1.184 1.103 1.442 1.95.565 1.85 1.358 3.614 2.635 5.086.614.712 1.342 1.41 2.16 1.854 3.06 1.65 6.076.8 7.387-2.42.518-1.27.94-2.623 1.135-3.978.194-1.344.463-2.406 1.808-3.118 1.708-.902 1.73-2.368 1.356-4.206-.077-.375-.39-.862-.72-1.003-1.497-.634-1.948-1.745-1.93-3.287.012-.83-.312-1.67-.537-2.493-.67-2.443-2.533-4.35-5.818-4.216-2.347-.226-4.227.88-5.49 2.93-.833 1.356-1.627 2.81-2.02 4.33-.338 1.32-.786 2.253-1.932 3.09-1.914 1.393-1.9 3.24-.234 4.895.226.224.47.488.755.582zm8.817-8.44c.47-.833.937-1.668 1.42-2.493.16-.27.545-.175.748.14.84 1.305.96 2.8 1.117 4.28.077.735.013 1.49.013 2.223.198 2.613-.36 5.1-1.216 7.527-.126.363-.46.708-.786.92-.184.118-.576-.003-.832-.116-.107-.046-.19-.39-.13-.53.328-.787.74-1.537 1.045-2.33.242-.628.227-1.298-.384-1.73-.615-.438-.782-.895-.453-1.61.487-1.053.302-1.975-.416-2.965-.71-.975-.772-2.183-.128-3.315z"/></svg>