<svg xmlns="http://www.w3.org/2000/svg" width="128" height="128" viewBox="0 0 128 128"><path d="M122.766 68.517c-.5-4.466-1.15-8.914-1.685-13.376-.806-6.76-2.787-13.184-5.54-19.386-1.62-3.646-3.73-7.013-6.237-10.098-1.958-2.413-4.114-4.667-6.244-6.93-.65-.692-1.455-1.274-2.273-1.76-1.564-.933-3.224-1.703-4.78-2.646-3.33-2.017-6.88-3.478-10.68-4.306-1.172-.256-2.26-.655-3.263-1.3C79.87 7.3 77.424 6.52 74.94 5.856c-.6-.16-1.26-.206-1.88-.164-1.494.1-2.975.333-4.468.425-3.538.22-7.028.688-10.42 1.758-1.124.354-2.287.58-3.41.928-4.294 1.337-8.593 2.66-12.7 4.533-1.46.67-2.287 1.64-2.937 3.13-.798 1.82-.747 3.453-.248 5.288.672 2.458 2.07 4.44 3.595 6.39 1.295 1.652 3.322 2.287 4.9 3.554.927.747 2.19.31 2.942-.862.433-.672.962-1.14 1.646-1.47 2.994-1.44 6.02-2.787 9.246-3.67 1.813-.494 3.605-.583 5.397-.123.848.22 1.62.435 2.497.13.49-.17 1.06-.178 1.584-.143 2.245.155 4.48.414 6.73.507 1.256.053 2.295.466 3.208 1.267 2.9 2.55 5.873 5.018 8.48 7.883 2.478 2.718 4.45 5.7 5.792 9.176 1.515 3.908 2.58 7.936 3.808 11.925.277.902.338 1.897.347 2.85.036 5.045-.018 10.086.06 15.13.03 2.065-.32 4.06-.738 6.046-1.018 4.835-3.83 8.552-7.544 11.65-.405.336-.923.538-1.402.775-1.726.86-3.488 1.65-5.18 2.57-4.36 2.38-8.98 4.118-13.827 5.078-3.235.637-6.57.927-9.61-1.15-1.315-.898-2.86-1.46-4.29-2.194-.472-.245-.933-.523-1.37-.828-.085-.062-.07-.313-.05-.467.01-.053.19-.125.28-.11 1.256.18 2.51.51 3.77.542 3.215.08 6.435.027 9.657.027v.134c.86 0 1.714-.002 2.573 0 .966.002 1.933.027 2.898.008 1.824-.04 3.654-.026 5.47-.175 2.568-.213 4.66-2.15 4.607-4.5-.063-2.692.07-5.34.536-7.982.06-.315.05-.643.05-.964.005-3.11.065-6.222-.014-9.332-.08-3.262-.948-6.34-2.5-9.22-1.265-2.353-4.518-2.648-6.06-.478-1.3 1.835-2.478 3.76-3.73 5.632-.235.346-.565.88-.853.882-.593.007-.75-.64-.903-1.13-.695-2.198-.686-2.198.736-4.337.235-.356.427-.74.62-1.123.348-.715-.127-1.61-.948-1.628-1.28-.027-2.566.027-3.845.114-.625.043-1.14.853-.964 1.436.185.614.362 1.25.674 1.803.467.826.487 1.61.094 2.45-.267.575-.472 1.183-.76 1.75-.045.094-.427.137-.544.05-.25-.18-.54-.42-.626-.7-.825-2.687-2.896-4.763-3.652-7.487-.128-.454-.608-.653-1.037-.57-1.996.393-3.966.805-5.537 2.292-2.14 2.026-3.133 4.618-3.53 7.4-.396 2.75-.438 5.55-.62 8.33-.032.534-.087 1.095.03 1.606.86 3.668 1.28 7.38 1.29 11.145 0 .418.205.83.274 1.252.033.2.044.484-.07.608-.195.213-.528.495-.742.45-.4-.08-.78-.34-1.126-.586-2.117-1.5-3.92-3.336-5.533-5.356-3.442-4.316-5.96-9.15-7.89-14.3-.64-1.703-1.15-3.452-1.678-5.194-.225-.74.174-1.242.98-1.27.964-.027 1.93.022 2.894 0 1.605-.034 3.216-.03 4.814-.167 1.69-.145 2.65-1.85 1.83-3.297-.632-1.11-1.4-2.165-2.24-3.132C39.208 55.39 34.605 50.16 30 44.926c-.493-.56-1.016-1.107-1.584-1.595-.846-.73-1.848-.714-2.552.17-1.425 1.79-3.264 3.088-4.994 4.525-1.973 1.644-3.942 3.325-5.7 5.192-3.082 3.28-6.007 6.71-8.985 10.085-.28.317-.512.69-.704 1.067-.637 1.26-.46 2.463.21 3.68.63 1.14 1.654 1.22 2.757 1.22 1.823-.003 3.647 0 5.47.02 1.7.02 1.85.16 2.094 1.73.278 1.8.488 3.615.847 5.4 2.067 10.27 6.436 19.487 12.872 27.73 1.977 2.534 3.943 5.1 6.117 7.455 3.923 4.258 8.527 7.465 14.39 8.516 1.364.246 2.69.705 4.047 1.014 1.458.332 2.927.825 4.398.857 2.674.054 5.355-.155 8.026-.303 1.18-.064 2.345-.344 3.518-.358 3.984-.06 7.883-.81 11.76-1.55 3.793-.725 7.472-2.014 10.926-3.725 3.058-1.512 5.91-3.45 8.846-5.218.366-.22.71-.49 1.016-.787 2.606-2.55 5.26-5.054 7.792-7.674 2.854-2.952 5.156-6.287 6.62-10.172.49-1.298 1.183-2.523 1.83-3.755 1.454-2.77 2.497-5.665 3.077-8.75.7-3.713 1.11-7.436.693-11.196zM44.35 21.01c-.028.115-.274.204-.432.25-.064.02-.196-.09-.25-.17-.784-1.18-.674-2.082.414-3.087.11-.104.38-.064.57-.038.08.01.142.15.29.328-.18.855-.366 1.792-.593 2.718zm4.85-.863c-.106.413-.2.827-.3 1.242-.134.553.21 1.222-.392 1.67-.094-.625-.192-1.248-.286-1.87-.08-1.68.542-3.16 1.216-4.626.075-.164.277-.272.422-.405.066.19.224.41.188.577-.26 1.14-.563 2.272-.85 3.41zm8.29-5.112c-.506 1.958-1.025 3.915-1.566 5.864-.13.467-.563.61-1.005.61-.47 0-.8-.228-.866-.727-.023-.21-.003-.424-.003-1.29.197-.824.513-2.28.897-3.717.262-.974 1.02-1.31 1.975-1.248.3.018.674.07.565.506zm8.876 4.75c-.224.82-.5.98-1.406.91-.317-.025-.627-.115-1.152-.214-.325.057-.843.176-1.368.228-1.154.112-1.536-.23-1.45-1.456.088-1.268.304-2.532.458-3.8.064-.5-.036-1.337.192-1.436.745-.325 1.628-.578 2.42-.49 1.038.11 2.05.54 3.044.908.216.08.483.512.437.718-.35 1.553-.755 3.097-1.173 4.635zm19.618-1.622c-.69 1.46-1.09 2.993-1.17 4.612-.022.444-.52.753-.918.602-.896-.337-1.784-.7-2.68-1.045-1.443-.555-1.533-.68-1.36-2.315.022-.107.082-.53.197-.94.34-1.19-.216-2.077-.992-2.86-.79-.8-2.217-.547-2.707.466-.184.38-.31.79-.418 1.197-.235.928-.44 1.863-.66 2.797-.146.625-.594.827-1.18.832-.32 0-.64.01-.957-.013-.642-.04-1.035-.4-1.073-.94-.135-1.95.533-3.778.92-5.645.05-.232.455-.555.7-.56 2.75-.076 5.53-.48 8.1 1.05 1.184.705 2.523 1.145 3.773 1.74.4.192.667.514.427 1.022zM30.51 75.526c-2.3.267-3.54 1.77-4.465 3.683-.156.32-.623.27-.776-.05-.094-.194-.198-.378-.27-.576-1.372-3.936-2.932-7.812-3.272-12.043-.132-1.62-1.507-2.83-3.174-3.13-1.472-.264-2.948-.515-4.42-.784-.53-.096-.692-.523-.38-.946.13-.17.24-.36.385-.51 3.704-3.87 7.285-7.87 11.68-11.006.26-.187.53-.366.8-.544.766-.512 1.073-.47 1.623.2 1.892 2.325 3.772 4.66 5.69 6.965.96 1.152 1.988 2.246 2.977 3.375.208.24.378.512.573.783-.115.16-.192.395-.32.423-.413.093-.853.178-1.27.142-1.9-.162-3.528.768-5.25 1.29-.71.214-1.14 1.033-1.08 1.804.033.42.145.837.24 1.25.095.417.312.827.303 1.238-.053 2.578.032 5.136.74 7.645.065.226-.185.774-.335.793zm.595 5.523c-.055 0-.18-.17-.168-.23.21-.685.437-1.364.665-2.045.11-.325.254-.333.402-.02.26.543.518 1.087.8 1.68-.354.22-.587.42-.853.515-.26.095-.56.095-.843.1zm10.263 12.59c-1.104 3.955-.923 8.02-1 12.06-.005.2-.113.4-.174.6-.196-.08-.433-.113-.58-.246-.396-.355-.744-.76-1.125-1.134-.485-.474-.71-1.025-.65-1.722.2-2.23.416-4.46.535-6.692.117-2.195.136-4.395.196-6.594-.03-.01-.057-.028-.09-.037 0-.05-.005-.096-.005-.143-.338-.196-.664-.43-1.028-.542-.772-.235-1.253.017-1.507.747-.872 2.52-1.97 4.98-2.14 7.7-.012.132-.278.34-.43.347-.172.01-.417-.128-.517-.277-.612-.902-1.02-1.73-.43-2.944.744-1.543.82-3.3.852-5.028.032-1.818-.027-3.66.71-5.39.08-.195.18-.38.273-.573.155.1.343.17.456.303.773.892 1.534 1.792 2.283 2.7.72.874 1.476 1.738 1.48 2.956l.098.06-.003.12c1.523.51 1.956 2.024 2.82 3.137.09.125.02.403-.03.592zm73.608-18.58c-.757 4.1-2.112 8.08-4.053 11.82-.687 1.33-1.267 2.69-1.7 4.15-.575 1.95-1.518 3.757-2.724 5.435-3.27 4.558-7.16 8.552-11.3 12.294-1.764 1.59-3.76 2.852-6.19 3.23-2.76.434-5.377 1.43-8.087 2.045-3.968.9-7.936 1.845-12.427 1.62-1.565-.11-3.467.052-5.394.33-3.317.477-6.63-.015-9.904-.632-.63-.117-1.25-.395-1.874-.405-2.883-.037-5.082-1.505-7.125-3.31-.337-.297-.465-.783-.008-1.085 1.26-.83 1.422-2.016 1.31-3.38-.155-1.92-.275-3.848-.304-5.775-.016-1.064.165-2.133.3-3.195.082-.635.6-.79 1.17-.38.346.253.677.528 1.024.782.657.484.855 1.035.75 1.92-.212 1.803-.244 3.637-.212 5.457.01.83.267 1.685.56 2.472.33.88 1.066 1.307 2.028 1.288.99-.016 1.895-.625 2.2-1.576.16-.5.213-1.045.252-1.572.048-.642.025-1.287.037-1.93.052-2.627.084-2.715 2.59-1.748 5.253 2.032 10.707 2.043 16.17 1.615 2.775-.215 5.404-1.275 7.992-2.33.687-.28 1.396-.65 2.115-.7 3.584-.256 6.436-2.184 9.365-3.957.69-.418 1.137-1.29 2.13-1.16.25.698.572 1.38.75 2.095.317 1.286.988 2.367 1.812 3.365.498.606 1.158.925 1.965.936.798.007 1.55-.55 1.563-1.297.013-.853.105-1.77-.155-2.552-.808-2.456-.427-5.143-1.54-7.533-.102-.216.114-.59.208-.88.03-.094.135-.164.213-.24 4.556-4.507 5.87-10.293 6.433-16.37.37-3.95.664-7.907.49-11.88-.555-12.486-4.82-23.4-13.734-32.336-.835-.833-1.66-1.68-2.48-2.524-.495-.51-.605-1.107-.382-1.778.17-.508.39-1.01.472-1.533.227-1.448.252-2.946 1.19-4.19 1.337.66 2.674 1.318 4.012 1.98.096.047.18.116.275.166 3 1.555 5.414 3.636 7.237 6.6 2.464 4.01 5.312 7.787 8.01 11.652 2.847 4.075 4.09 8.67 4.484 13.56.302 3.732.688 7.46 1.035 11.188.02.214.1.428.087.638-.18 3.21-.068 6.475-.645 9.608zM61.026 52c.21.717.465 1.427.752 2.116.667 1.6 1.62 3.016 2.85 4.238 1.278 1.27 2.79 1.963 4.738 1.852 1.272.11 2.43-.367 3.26-1.478.51-.678 1.065-1.378 1.334-2.16.52-1.51.97-3.065 1.222-4.638.168-1.056.53-1.816 1.448-2.33.28-.156.53-.363.806-.527 1.53-.904 1.547-4.65-.08-5.344-1.475-.63-1.752-1.706-1.906-3.01-.088-.742-.09-1.51-.273-2.23-.47-1.8-1.205-3.483-2.987-4.37-3.643-1.81-7.05-.63-8.85 1.988-1.232 1.792-2.14 3.712-2.64 5.81-.214.885-.43 1.653-1.356 2.016-.197.075-.377.21-.533.352-2.153 1.91-1.65 3.54-.113 5.245.208.23.512.4.802.524.874.373 1.266 1.088 1.522 1.948zm7.61-10.677c.545-1.035 1.063-2.08 1.582-3.127.154-.308.256-.313.443-.022.7 1.084 1.36 2.184 1.37 3.53.013 1.283 0 2.564 0 3.846.21 2.584.023 5.13-.954 7.556-.196.48-.504.925-.8 1.358-.254.366-.998.46-1.11.153-.095-.26-.153-.617-.054-.858.366-.888.8-1.747 1.217-2.613.32-.678.206-1.3-.42-1.668-.633-.368-.943-.65-.613-1.464.454-1.128.41-2.26-.328-3.358-.334-.494-.324-1.21-.52-1.81-.18-.554-.075-1.03.187-1.524z"/></svg>