<svg xmlns="http://www.w3.org/2000/svg" width="128" height="128" viewBox="0 0 128 128"><path d="M112.416 77.24c-.47-2.494-1.726-4.818-3.066-7.037-2.846-4.715-6.992-8.08-11.41-11.168-.608-.425-1.326-.7-2.014-.997-2.46-1.067-4.936-2.088-7.383-3.174-.907-.4-1.82-.54-2.802-.587-2.483-.12-4.907.387-7.356.57-2.92.22-5.725.858-8.42 1.933-1.983.792-3.9 1.762-5.842 2.653-1.945 1.984-4.386 3.44-6.064 5.71-.09.123-.284.177-.44.23-.02.007-.136-.162-.156-.26-.5-2.19-.914-4.405-1.504-6.57-.625-2.286-1.088-4.577-1.26-6.945-.223-3.138-1.208-6.063-2.602-8.885-1.483-2.992-3.568-5.312-6.58-6.797-1.42-.698-2.038-.63-2.988.722-1.047 1.49-2 3.05-3.036 4.55-.416.598-.946 1.12-1.42 1.674-.9-.418-.665-1.413-1.036-2.103-.16-.295-.01-.83.145-1.197.245-.58.68-1.088.91-1.675.345-.862-.177-1.725-1.11-1.96-.306-.075-.634-.184-.94-.15-.852.09-1.695.24-2.54.38-.315.054-.704.71-.58 1.017.287.687.563 1.387.945 2.02.37.614.422 1.183.128 1.818-.18.387-.305.804-.508 1.178-.08.147-.32.3-.477.29-.18-.01-.433-.155-.514-.314-1.2-2.27-2.507-4.498-3.515-6.852-.753-1.755-1.388-1.662-2.66-1.243-1.763.58-3.374 1.345-4.585 2.817-.407.494-.92.9-1.355 1.374-2.98 3.236-4.9 6.96-5.583 11.36-.333 2.143-.413 4.26-.413 6.405.002 5.795.015 11.59-.008 17.385-.006 1.095.18 2.136.562 3.143.523 1.383 1.667 2.165 2.93 2.053 1.436-.128 2.588-1.192 2.767-2.68.107-.848.064-1.713.06-2.57-.032-4.08-.043-8.157-.123-12.236-.058-2.917.448-5.77.94-8.62.287-1.677.856-3.323 1.787-4.794.08-.128.286-.186.45-.24.025-.012.15.154.17.25.226 1.044.5 2.085.65 3.143.3 2.116.476 4.254.805 6.37.76 4.88 1.13 9.78 1.086 14.725-.042 4.614.114 9.23.04 13.845-.062 4.2.44 8.358.863 12.51.282 2.78.427 5.546.538 8.33.105 2.56.34 5.115.524 7.67.026.32.05.645.132.955.32 1.203 1.373 2.098 2.507 2.155 1.59.08 2.89-.687 3.21-2.095.285-1.244.502-2.54.492-3.808-.026-2.14-.357-4.274-.377-6.414-.057-6.008-.024-12.02-.022-18.027 0-.213-.02-.462.072-.632.15-.267.348-.552.6-.7.852-.5 1.79-.747 2.775-.544.27.053.638.314.698.546.134.51.145 1.064.118 1.595-.072 1.393-.29 2.78-.26 4.166.074 3.536.25 7.072.39 10.606-.025 0-.048.003-.07.004 0 3.648-.005 7.296.003 10.946.003.642 0 1.294.11 1.923.174 1.02.77 1.82 1.75 2.133 1.385.444 2.775.352 3.983-.555.317-.238.66-.644.704-1.006.218-2.02.468-4.05.484-6.078.027-4.07.097-8.137-.327-12.21-.352-3.405-.19-6.863-.258-10.295-.048-2.466-.083-4.936-.156-7.4-.06-2.033-.34-4.075-.214-6.096.183-3.003.348-5.978-.125-8.97-.16-1.047 0-2.144.04-3.216.1-2.89.203-5.78.33-8.67.04-.857.155-1.71.257-2.56.024-.204.13-.402.22-.593.04-.09.133-.22.196-.216.192.01.483.02.553.136 1.29 2.157 1.676 4.6 2.137 7.01.444 2.312.773 4.644 1.242 6.95.532 2.624 1.154 5.227 1.755 7.836.258 1.14.67 2.26.804 3.418.154 1.312-.68 2.446-.96 3.69-.257 1.147-.44 2.316-.626 3.48-.256 1.584-.512 3.17-.723 4.762-.312 2.352-.426 4.725.062 7.053.525 2.512 1.175 5.002 1.86 7.48.485 1.764 1.298 3.39 2.336 4.915 2.1 3.088 4.867 5.398 8.085 7.225 1.116.634 2.24 1.267 3.285 2.01 1.678 1.196 3.477 2.132 5.455 2.69 2.37.662 4.75 1.293 7.144 1.866.717.172 1.49.118 2.242.13.75.016 1.507-.084 2.25-.012 1.623.158 3.184.075 4.736-.54 1.618-.64 3.426.133 5.067-.532.1-.04.2-.088.305-.105 2.608-.387 4.85-1.663 7.072-2.96 2.56-1.493 4.512-3.6 5.995-6.16.59-1.02 1.23-2.012 1.793-3.046 2.513-4.62 5.09-9.22 5.347-14.662.004-.106.03-.212.06-.316 1.346-4.827.334-9.604-.55-14.32zm-7.203-1.955c.155.128.286.33.344.525.245.815.797 1.726.61 2.437-.226.864-1.476.57-2.233.928-.963.462-1.973.826-2.965 1.216-.196.08-.418.08-.736.138-.227-.286-.516-.594-.736-.947-.238-.383-.327-.906.06-1.17 1.674-1.147 3.387-2.235 5.105-3.314.107-.066.398.07.546.19zm-4.826 12.555c-.128.198-.206.465-.32.48-.88.126-1.59-.27-2.23-.82-.042-.036-.042-.155-.022-.223.117-.443 1.564-.794 1.885-.433.27.3.464.667.69.996zm1.176-18.048c1.13.465 1.565 1.688 2.1 2.722.05.09-.16.386-.315.486-.263.17-.57.325-.875.373-1.51.235-2.814.975-4.16 1.615-.272.128-.572.192-.976.322-.317-.467-.675-.866-.868-1.333-.09-.22.043-.672.235-.843.866-.79 1.752-1.568 2.706-2.244.66-.47 1.235-1.477 2.15-1.1zm-4.86 12.636c-.167.753-1.105 1.533-1.562 1.212-.387-.274-.752-.782-.84-1.243-.108-.567.935-1.248 1.613-1.18.466.05.907.72.79 1.21zm-5.207-20.36c.094-.17.302-.282.454-.42.1.036.203.064.3.11 2.488 1.224 4.88 2.586 6.687 4.768.4.482.347.96-.19 1.333-.87.603-1.75 1.197-2.637 1.782-1.45.96-1.596.928-2.523-.388-.55-.78-1.02-1.646-1.694-2.302-1.594-1.552-1.32-3.176-.398-4.883zm2.493 15.018c-.04.196-.01.483-.13.574-.493.373-1.007.736-1.566.987-.175.078-.6-.15-.757-.355-.147-.2-.235-.68-.11-.808.428-.448.948-.815 1.46-1.173.34-.24 1.056.28 1.1.778zm-5.523-6.155c.272-.59.154-1.48 1.07-1.673.365.49.763.962 1.08 1.483.378.618.688 1.277.974 1.823-.08.34-.065.597-.186.73-.422.454-.86.91-1.362 1.267-.156.112-.66.015-.79-.153-.795-1.026-1.386-2.163-.788-3.475zm-.39 9.647c.365.03.832.578.736.894-.174.61-.373 1.217-.61 1.8-.048.115-.342.22-.496.187-.516-.11-1.03-.258-1.532-.437-2.52-.91-2.376-1.06-1.39-3.08.42-.855.74-1.76 1.144-2.623.046-.107.356-.198.473-.144.166.08.4.333.37.46-.12.498-.316.985-.508 1.465-.55 1.365-.427 1.525 1.192 1.5.21-.006.416-.04.62-.02zm-31.85.634c.733-2.352 1.486-4.7 2.744-6.843 1.41-2.403 2.764-4.84 4.228-7.21 1.147-1.868 2.72-3.293 4.813-4.1.7-.267 1.35-.66 2.017-1.005 3.884-1.998 7.996-2.956 12.365-2.79 1.294.092 2.58.12 3.847.29.876.118 1.186.726.897 1.622-1.61 4.995-3.24 9.982-4.87 14.97-.267.814-.79 1.6-.838 2.418-.118 2.018-1.43 2.432-3.024 2.51-2.572.125-5.153.122-7.72.285-2.993.192-5.978.49-8.965.766-1.492.14-2.98.35-4.47.484-.95.085-1.327-.43-1.027-1.393zm6.065 22.343c-.184-.09-.44-.13-.547-.277-.757-1.038-1.536-2.063-2.206-3.153-1.93-3.14-3.325-6.472-3.475-10.223-.017-.425-.025-.876-.162-1.27-1.026-2.955.21-2.752 2.407-2.853.108-.004.214 0 .324 0v-.016c.535 0 1.07-.003 1.608 0 .587.01 1.042.218 1.14.86.16 1.06.4 2.116.428 3.18.114 4.39.043 8.786.658 13.15.027.19-.113.405-.175.606zm7.97 6.98c-.78-.556-1.556-1.12-2.322-1.697-.528-.4-.863-.91-.963-1.595-.363-2.527-.776-5.05-1.13-7.58-.417-2.95-.795-5.91-1.185-8.864-.082-.637-.155-1.272-.205-1.912-.242-3.024-.95-3.064 2.885-3.098.32-.003.642-.02.96-.02 1.758.003 1.963.244 1.775 2.1-.02.21-.073.42-.196 1.114 0 .26-.115 1.03.023 1.748.476 2.434.31 4.896.397 7.345.108 2.984 0 5.977.517 8.942.18 1.042.11 2.13.14 3.195.006.284-.445.498-.69.32zm9.143 4.18c-1.12-.304-2.244-.637-3.31-1.09-.297-.13-.53-.677-.58-1.06-.272-2.117-.468-4.244-.712-6.37-.245-2.122-.472-4.25-.78-6.365-.557-3.908-1.174-7.808-1.76-11.712-.06-.424-.074-.853-.095-1.28-.036-.74.338-1.115 1.155-1.16.213-.01.43 0 .642 0 1.277-.02 1.547.163 1.808 1.29.12.52.226 1.046.277 1.577.622 6.597 1.68 13.134 2.692 19.676.23 1.47.706 2.9 1.042 4.356.12.515.222 1.056.2 1.576-.008.206-.437.598-.58.56zm6.997.65c-.46.242-.984.4-1.496.495-.435.078-.835-.1-1.054-.535-.048-.096-.102-.192-.125-.292-.832-3.743-1.73-7.476-2.477-11.24-.935-4.7-1.282-9.503-2.416-14.175-.277-1.136-.384-2.315-.546-3.477-.068-.49.168-.818.67-.88.42-.052.85-.063 1.276-.063.593-.003 1.04.274 1.182.858.352 1.448.708 2.898.984 4.36.535 2.828 1.006 5.667 1.515 8.502.604 3.355 1.216 6.71 1.83 10.062.268 1.47.55 2.933.89 4.725.02.09.202.502.202.914 0 .256-.21.63-.433.75zm19.886-19.828c-.854 2.52-1.665 5.056-3.055 7.363-.78 1.293-1.596 2.524-2.87 3.383-.43.29-1.156.14-1.407-.312-2.73-4.96-6.048-9.544-9.26-14.195-.724-1.05-1.596-2-2.376-3.013-.102-.13-.123-.412-.048-.556.048-.09.337-.07.516-.072.102 0 .206.06.306.09.01-.027.02-.055.026-.084.914.275 1.89.422 2.73.843 4.698 2.368 9.6 4.12 14.76 5.165.838.17.97.533.68 1.39zm1.386-6.325c-.016.428-.134.903-.646.935-.402.02-.827-.114-1.22-.25-.176-.062-.33-.273-.436-.45-.166-.27-.31-.562-.42-.86-.524-1.38-1.966-2.255-2.106-3.843 1.14-.784 2.293-1.55 3.418-2.36.544-.392 1.05-.274 1.148.432.17 1.266.235 2.547.346 3.822-.025.004-.053.005-.077.007 0 .856.02 1.712-.004 2.567zM26.628 23.654c.78.303 1.052.93 1.285 1.688.565 1.843 1.376 3.578 2.546 5.137 1.077 1.436 2.44 2.37 4.21 2.68 1.666.292 3.227.066 4.33-1.33.647-.826 1.236-1.766 1.57-2.75.436-1.3.63-2.69.865-4.054.117-.678.395-1.2.958-1.582.442-.3.898-.58 1.31-.915.614-.5.866-1.18.918-1.968.1-1.504-.183-2.767-1.78-3.384-.667-.257-.87-.838-.95-1.534-.133-1.163-.32-2.32-.575-3.46-.573-2.534-2.475-4.592-5.96-4.423-2.224-.205-3.997.867-5.28 2.75-1.027 1.5-1.937 3.11-2.234 4.92-.19 1.17-.763 1.845-1.663 2.54-2.144 1.65-2.117 3.526-.078 5.326.16.14.335.28.53.356zm8.955-9.002c.203-.377.416-.747.634-1.113.254-.426.43-1.166.998-.968.387.132.693.796.843 1.282.56 1.85.736 3.76.597 5.7.203 2.49-.386 4.862-1.186 7.19-.13.37-.423.736-.738.97-.187.138-.582.065-.85-.02-.118-.032-.253-.375-.2-.51.345-.887.795-1.74 1.09-2.645.117-.355.072-1.028-.155-1.185-.998-.686-1.013-1.427-.553-2.45.31-.69.18-1.47-.352-2.105-1.134-1.345-.885-2.74-.13-4.148zm28.224 64.615c.4-1.104.075-2.37-.81-3.162-.876-.782-2.51-.373-2.87.73-.094.296-.117.614-.146.757-.03 1.056.22 1.816.93 2.407.9.75 2.507.354 2.9-.734zm8.017-.6c1.073.154 2.14-.688 2.202-1.738.064-1.057-1.03-2.375-2.042-2.46-.843-.07-1.68.834-1.736 1.87-.07 1.34.49 2.174 1.576 2.33zm5.852-4.778c.587.366 1.235.255 1.786-.157.525-.39.964-.894.894-1.59-.11-1.028-1.156-1.932-2.48-1.98-.298.19-.908.42-1.29.855-.448.506-.414 1.22-.023 1.787.29.418.683.813 1.114 1.084zm-11.345-.974c1.15.01 2-.82 1.994-1.948-.003-1.12-.864-1.942-2.02-1.925-1 .016-1.744.76-1.792 1.79-.057 1.21.7 2.075 1.823 2.082zm14.618-6.453c1 0 1.71-.832 1.643-1.922-.057-.916-.775-1.484-1.76-1.39-.92.088-1.57.81-1.535 1.708.032.88.78 1.608 1.653 1.605zm-8.104 2.51c.768-.155 1.333-.94 1.16-1.608-.193-.73-.982-1.363-1.597-1.284-.712.09-1.376.86-1.328 1.535.06.896.89 1.536 1.763 1.358z"/></svg>