<svg xmlns="http://www.w3.org/2000/svg" width="128" height="128" viewBox="0 0 128 128"><path d="M113.97 43.595c-.047-1.126-.007-2.253-.007-3.377 0-1.638-.013-3.275.004-4.912.01-1.342-.228-2.617-.636-3.907-1.754-5.55-4.986-9.997-9.607-13.514-3.098-2.357-6.414-2.63-9.803-1.05-5.074 2.366-9.444 5.69-12.705 10.316-1.767 2.505-3.49 5.035-5.192 7.587-.85 1.28-1.405 2.684-1.74 4.217-.282 1.27-.082 2.336.923 2.987 1.2.772 1.786 1.91 2.477 3.038.585.954 1.262 1.864 1.982 2.722.92 1.09 1.933 2.11 2.888 3.168.69.766.76 1.33.088 2.18-1.705 2.145-3.192 4.423-5.295 6.3-2.58 2.302-4.736 5.073-7.093 7.624-1.733 1.877-3.502 3.727-5.254 5.587-.992 1.056-2.133 1.882-3.458 2.487-1.672.77-3.24 1.715-4.66 2.913-1.09.917-2.244 1.77-3.408 2.6-.875.624-1.224.54-1.72-.328-1.365-2.4-2.703-4.813-4.06-7.214-.502-.89-.966-1.81-1.564-2.63-1.224-1.682-1.987-1.93-4.267-1.476-.49.096-.96.355-1.404.6-2.592 1.42-5.227 2.763-7.51 4.695-2.42 2.05-4.89 4.074-6.89 6.527-2.517 3.09-4.944 6.26-6.686 9.888-.31.64-.673 1.278-1.12 1.824-1.292 1.573-1.633 3.482-2.017 5.386-.315 1.576.267 2.91 1.426 3.825 1.833 1.447 3.564 3.05 5.753 4.028 1.104.49 2.158 1.178 3.1 1.937 3.314 2.68 7.157 3.85 11.328 4.085 1.526.084 3.146.285 4.583-.093 3.736-.975 7.557-1.58 11.232-2.88 5.73-2.034 11.038-4.826 16.102-8.112 5.573-3.62 11.045-7.392 16.3-11.467 1.05-.81 2.035-1.704 3.014-2.596 1.206-1.102 2.374-2.248 3.568-3.363.37-.35.8-.634 1.154-.994 4.24-4.324 7.744-9.224 11.138-14.208.403-.59.798-1.19 1.173-1.8 1.774-2.884 3.22-5.908 4.066-9.213.277-1.075.755-2.112 1.253-3.11 1.624-3.238 2.705-6.602 2.545-10.288zm-8.042-1.312c.085 4.46-.922 8.708-2.396 12.87-.237.67-.666 1.313-.745 2-.454 3.974-2.88 6.91-5.202 9.858-2.4 3.053-5.092 5.877-7.445 8.96-2.443 3.2-5.468 5.773-8.405 8.45-1.28 1.175-2.613 2.308-4.014 3.327-2.307 1.68-4.687 3.264-7.053 4.858-.542.367-.984.1-1.02-.555-.03-.612.005-1.23-.057-1.84-.118-1.15-1.492-1.845-2.533-1.35-1.013.486-1.615 1.297-1.726 2.368-.112 1.11-.21 2.27-.02 3.353.25 1.4-.345 2.09-1.49 2.613-.673.31-.734.307-.973-.493-.14-.477-.24-.993-.49-1.41-.518-.842-1.82-.756-2.288.12-.495.925-.7 1.902-.438 2.95.164.66-.022 1.235-.67 1.536-1.484.69-2.974 1.355-4.465 2.016-.386.166-.853-.117-.89-.528-.044-.51-.03-1.022-.084-1.53-.03-.3-.122-.598-.227-.88-.242-.658-1.242-.95-1.807-.51-.318.245-.63.528-.85.858-.525.786-.69 1.675-.74 2.62-.04.788.427 1.823-.32 2.32-.904.6-2.033.86-3.077 1.23-.1.032-.416-.21-.433-.346-.047-.384-.04-.796.043-1.177.26-1.154.087-2.235-.395-3.29-.256-.558-1.035-.837-1.547-.47-.4.29-.82.64-1.044 1.068-.578 1.076-1.093 2.186-1.127 3.46-.01.387-.166.784-.325 1.146-.064.142-.326.272-.49.267-.155-.007-.43-.2-.433-.32-.022-1.113 0-2.234.017-3.35.013-.713.086-1.43.06-2.142-.027-.64-.29-1.197-.94-1.448-.66-.254-1.6-.092-1.975.432-.582.83-1.312 1.565-1.54 2.62-.042.202-.29.36-.483.53 0 .047-.002.095.002.144-.035.016-.06.034-.09.05-.013.56-.015 1.12-.056 1.676-.008.123-.18.23-.28.348-.063-.18-.188-.365-.178-.542.034-.54-.096-1.16.514-1.483 0-.04 0-.08.002-.12.025-.025.056-.05.085-.075-.102-1.817.657-3.496.87-5.263.063-.502.144-1.004.157-1.51.01-.43-.546-1.157-.89-1.118-.38.045-.878.143-1.09.406-1.21 1.505-2.41 3.035-3.143 4.85-.34.85-.597 1.73-.91 2.593-.06.154-.214.276-.326.415-.096-.278-.23-.55-.288-.837-.036-.19.002-.413.067-.6.722-2.114 1.493-4.216 2.172-6.347.37-1.156.62-2.353.843-3.55.07-.37-.096-.8-.205-1.185-.123-.43-.946-.74-1.284-.46-.62.517-1.307 1.017-1.752 1.67-1.143 1.68-2.283 3.364-2.92 5.35-.216.67-.316 1.538-1.107 1.92l-.014.13c-.063.026-.127.05-.183.08l-.102.158c.02-.05.03-.115.068-.143.01-.006.02-.008.032-.015l.102-.158c.035-.015.062-.034.096-.05.085-.76.11-1.535.303-2.27.255-.983.592-1.962 1.025-2.88.484-1.008.56-1.93-.057-2.897-.38-.597-.205-1.17.237-1.677 1.74-2.005 3.347-4.158 5.264-5.98 2.44-2.32 5.13-4.373 7.715-6.537.383-.32.727-.17 1.066.122 2.206 1.906 3.683 4.365 5.167 6.816.357.59.245 1.212-.226 1.68-.212.213-.483.373-.724.56-.62.482-.945 1.1-.648 1.873.314.826.963 1.313 1.83 1.435.395.055.834.037 1.21-.08.974-.304 1.947-.628 2.878-1.038 4.907-2.15 9.312-5.075 13.246-8.71 3.23-2.982 6.474-5.945 9.684-8.953 1.04-.977 2.034-2.02 2.965-3.103 1.005-1.173 2.062-2.213 3.534-2.82 1.496-.615 2.332-1.984 3.154-3.264 1.27-1.973 2.465-4.003 3.57-6.07.96-1.79 1.908-3.574 2.262-5.652.197-1.164.42-2.4 1.092-3.483.296-.478.3-1.167.333-1.766.017-.266-.15-.653-.356-.785-.175-.113-.68-.034-.787.128-.678 1.016-1.83 1.246-2.78 1.806-.41.237-.626.95-1.185.746-.443-.158-.806-.604-1.132-.982-1.266-1.467-2.507-2.957-3.747-4.445-.444-.53-.5-1.11-.125-1.693 1.106-1.716 2.216-3.43 3.355-5.128.513-.765 1.14-1.45 1.625-2.23 1.434-2.296 3.328-4.14 5.553-5.64 1.95-1.31 3.952-2.544 5.924-3.82.685-.444 1.344-.44 1.968.084 2.293 1.924 4.15 4.222 5.74 6.744.108.17.193.374.212.57.243 2.225.557 4.448.68 6.684.11 2.035-.03 4.088.01 6.133z"/></svg>