<svg xmlns="http://www.w3.org/2000/svg" width="128" height="128" viewBox="0 0 128 128"><path d="M110.074 60.605c0-1.075-.037-2.148.006-3.22.144-3.506-.654-6.806-2.12-9.958-1.266-2.72-2.58-5.416-3.886-8.114-1.8-3.723-4.25-6.912-7.5-9.506-3.044-2.435-6.29-4.46-10.095-5.454-1.965-.512-3.94-.987-5.93-1.39-1.07-.212-2.062-.515-2.96-1.153-.706-.5-1.5-.794-2.387-.84-3.89-.203-7.69.36-11.454 1.274-.476.117-.71.444-.735.912-.027.533-.04 1.07-.04 1.607 0 3.755-.002 7.51.006 11.264s.08 7.51.028 11.264c-.054 3.75 1.05 7.39.825 11.175-.136 2.323.36 4.683.603 7.027.064.635.288 1.25.373 1.88.23 1.615-.103 2.063-1.648 1.64-2.38-.65-4.78-1.108-7.27-1.178-2.778-.077-5.574-.245-8.324-.64-3.953-.565-7.916-.516-11.878-.542-2.158-.014-4.283-.168-6.304-.9-1.064-.385-1.91-.1-2.712.447-.702.48-1.28 1.134-1.956 1.655-.66.507-.892 1.152-.914 1.95-.07 2.485.39 4.912.9 7.317 1.043 4.9 3.25 9.3 6.323 13.212 1.915 2.437 3.982 4.808 6.274 6.885 2.36 2.143 4.825 4.26 7.908 5.41.59.22 1.176.55 1.654.956 2.41 2.07 5.267 3.285 8.238 4.22 2.342.735 4.764 1.178 7.197 1.597 5.085.878 10.04.556 14.874-1.155 2.72-.962 5.32-2.256 8.02-3.277 2.78-1.05 5.03-2.804 7.11-4.845.538-.523 1.063-1.06 1.62-1.566 4.5-4.054 8.145-8.78 11.15-14.028 1.56-2.724 2.856-5.51 3.104-8.696.032-.42.233-.82.32-1.242.978-4.612 2.02-9.22 1.58-13.995zm-7.07-.208c-.218 3.18-.453 6.92-.746 10.658-.064.843-.3 1.675-.51 2.5-.238.936-.615 1.838-.78 2.78-.193 1.09-.637 2.04-1.234 2.94-1.126 1.692-2.244 3.394-3.397 5.07-.402.58-.306.897.324 1.197.16.075.285.658.173.78-2.01 2.224-4.053 4.417-6.107 6.6-.373.394-.973.154-1.216-.443-.204-.49-.325-1.026-.618-1.45-.49-.706-1.756-.67-2.237.04-.296.433-.57.917-.71 1.42-.2.714-.31 1.464-.384 2.203-.09.846-.52 1.368-1.293 1.668-.398.157-.773.37-1.17.53-.767.31-1.155.168-1.543-.56-.253-.467-.448-.975-.736-1.423-.392-.604-1.448-.597-1.995-.064-.745.722-1.05 1.624-.992 2.62.083 1.314-.594 2.002-1.753 2.32-1.03.282-2.065.558-3.115.726-.426.07-.805-.297-.867-.775-.123-.953-.088-1.94-.33-2.86-.282-1.06-1.17-1.32-1.972-.603-.38.344-.684.82-.892 1.296-.165.377-.12.842-.195 1.264-.38 2.144-.757 2.407-3.047 2.128-.497-.064-.768-.38-.78-.848-.033-1.18.003-2.36-.036-3.54-.054-1.63-.652-2.826-1.268-2.62-1.188.39-1.51 1.45-1.785 2.485-.273 1.03-.415 2.095-.65 3.138-.1.442-.605.686-.994.5-.774-.367-1.523-.788-2.304-1.14-.782-.352-1.14-.955-1.11-1.778.057-1.493.148-2.99.228-4.484.035-.642.117-1.283.11-1.92-.01-.595-.385-1.026-.92-1.192-.56-.172-1.078.115-1.41.55-.315.412-.58.9-.73 1.4-.46 1.535-.846 3.09-1.27 4.64-.14.515-.51.6-.95.295-.56-.39-.95-.86-.93-1.576.08-2.785.16-5.57.243-8.357.015-.427.142-.885.024-1.272-.235-.786-.112-1.757-.992-2.255-.533-.302-1.333.446-1.852 1.87-.512 1.405-.953 2.84-1.373 4.276-.27.92-.416 1.883-.7 2.803-.058.18-.574.42-.725.34-.984-.516-1.745-1.226-1.675-2.495.107-2.026-.233-4.074.27-6.087.1-.4.12-.89-.02-1.26-.182-.472-.496-1.106-.886-1.225-.388-.117-1.115.186-1.39.538-.512.656-.888 1.454-1.152 2.245-.235.697-.228 1.472-.343 2.21-.044.29-.516.44-.756.28-.956-.642-1.542-1.54-1.532-2.68.015-1.277.2-2.55.317-3.825.047-.53.163-1.06.152-1.587-.013-.482-.395-.826-.837-.78-.618.065-1.217.327-1.836.454-.113.025-.406-.22-.393-.284.32-1.344.624-2.694 1.056-4.003.09-.284.66-.587 1.01-.584 1.71.013 3.43.064 5.136.213 2.772.243 5.535.593 8.305.853.85.08 1.74.142 2.568-.02 2.446-.484 4.923-.25 7.375-.462 2.45-.21 4.903-.5 7.317-.96 1.003-.19 2.45.188 2.936-.856.413-.882.2-2.102.118-3.158-.3-3.843-.66-7.682-.997-11.522-.046-.538-.047-1.075-.095-1.608-.4-4.37-.82-8.743-1.207-13.117-.3-3.413-.655-6.83-.787-10.25-.05-1.345-.906-2.675-.155-4.044 1.263-.16 2.52-.373 3.79-.477 1.92-.154 3.856-.42 5.765-.305 2.56.155 5.088.735 7.4 1.926 2.773 1.43 5.314 3.218 7.817 5.072 2.574 1.91 4.254 4.5 5.7 7.268 1.692 3.232 2.982 6.64 4.177 10.08.274.79.332 1.68.357 2.528.054 1.82.02 3.642.02 6.04zm-75.797-.38c1.07.02 2.144.1 3.215.097 7.505-.035 15.01-.046 22.515-.18.998-.017 1.854 0 2.735.48.698.385 1.483.13 1.965-.495.542-.7.806-1.463.794-2.38-.036-2.787-.015-5.575-.006-8.36.01-3.54.1-7.07-.96-10.53-.337-1.1-.256-2.332-.31-3.51-.084-1.93 0-3.873-.21-5.786-.217-1.933-.395-3.834.04-5.753.166-.746.09-1.456-.298-2.17-.352-.655-.558-1.39-.768-2.113-.205-.707-.742-1.083-1.35-1.248-.706-.196-1.49-.335-2.203-.23-2.54.37-5.083.756-7.586 1.315-5.11 1.137-9.726 3.302-13.54 6.987-.62.6-1.204 1.23-1.85 1.792-4.922 4.292-7.653 9.995-10.115 15.84-1.13 2.688-1.413 5.593-1.424 8.506 0 1.072-.063 2.147.03 3.212.042.49.255 1.15.62 1.392 1.01.672 1.33 1.6 1.516 2.7.1.593.657.805 1.224.822.423.013.893.06 1.27-.094 1.542-.617 3.125-.336 4.7-.3zm-.284-17.19c1.707-4.368 4.28-8.122 7.808-11.21.48-.428 1.028-.783 1.487-1.228 3.125-3.045 6.98-4.458 11.202-5.07.42-.063.83-.264 1.25-.273.255 0 .65.175.752.384.23.47.37 1.008.452 1.534.3 1.9.645 3.797.825 5.71.637 6.812 1.066 13.644 2.243 20.396.147.835-.145 1.287-.916 1.33-2.244.12-4.493.194-6.738.287l-.014-.226c-2.88.168-5.76.378-8.644.493-2.25.093-4.502.075-6.75.103-1.717.02-2.114-.164-2.5-2.138-.453-2.31-.903-4.608-1.02-6.963-.052-1.092.167-2.112.563-3.13z"/></svg>