<svg xmlns="http://www.w3.org/2000/svg" width="128" height="128" viewBox="0 0 128 128"><path d="M108.78 80.747c-1.2-.693-2.41-1.37-3.626-2.04-.56-.31-1.12-.634-1.714-.866-2.69-1.05-5.376-2.13-8.105-3.086-1.81-.632-3.613-1.29-5.552-1.563-2.645-.372-5.27-.913-7.875-1.503-5.22-1.178-10.418-2.432-15.622-3.67-.856-.202-1.17-.657-1.102-1.674.18-2.672.388-5.342.615-8.008.11-1.28.28-2.553.435-3.825.248-2.02.597-4.03.743-6.057.334-4.702.575-9.41.855-14.116.025-.427.043-.86.114-1.28.35-2.03.283-4.062.047-6.088-.175-1.5-.325-2.98.197-4.45.14-.39.136-.843.143-1.27.032-2.02-.443-4.057.23-6.063.042-.125-.355-.51-.607-.592-.385-.128-.822-.096-1.238-.13-.514-.048-1.18.093-1.52-.176-1.125-.897-2.41-.8-3.683-.82-4.332-.08-8.55.707-12.62 2.064-4.16 1.387-8.22 3.042-11.962 5.435-2.45 1.567-4.736 3.316-6.987 5.133C23.23 31.527 18.168 38.22 14.58 46.05c-.54 1.18-.94 2.378-.97 3.702-.017.61-.133 1.348-.49 1.803-1.25 1.59-1.56 3.518-2.004 5.365-.747 3.11-.507 6.394-1.496 9.48-.096.293-.01.64-.034.96-.277 3.886.367 7.707.94 11.513.247 1.66 1.002 3.264 1.646 4.843.563 1.38 1.3 2.69 1.952 4.038.98 2.025 1.838 4.122 2.955 6.07 2.186 3.813 4.524 7.538 8.162 10.215.424.31.757.745 1.133 1.122.444.445.842.95 1.34 1.323 4.246 3.182 8.915 5.487 14.064 6.848 4.796 1.27 9.665 1.84 15.2 1.82 3.407.144 7.32-.457 11.2-1.285 8.777-1.875 16.985-5.142 24.414-10.227 5.476-3.747 9.93-8.48 13.28-14.223 1.407-2.412 2.596-4.926 3.364-7.623.144-.507-.075-.823-.465-1.045zM50.98 23.33c.824-.213 1.648-.45 2.485-.587 2.312-.373 4.63-.7 5.954-.896 3.13-.024 3.385.162 3.086 2.083-.672 4.328-1.067 8.677-1.277 13.047-.01.2-.147.39-.225.587-.187-.075-.42-.1-.553-.23-.528-.528-1.077-1.046-1.52-1.642-2.795-3.776-5.568-7.568-8.343-11.358-.23-.316-.015-.896.39-1.003zM19.535 46.155c1.106-1.703 2.21-3.408 3.34-5.096.26-.397.794-.34.994.11.452 1.02 1.392 1.853 1.25 3.104.028.002.054 0 .08.004l.134.125c.18.056.297.184.373.352.06.053.117.11.177.163-.015.038-.032.075-.046.112.226.184.502.337.656.572 3.942 6.016 8.245 11.765 12.81 17.32 1.702 2.07 3.473 4.085 5.217 6.123.844.988 1.807 1.82 3.09 2.187.077.02.2-.045.273-.107.07-.055.165-.19.144-.233-.54-1.04-.935-2.203-1.667-3.087-7.462-9.005-14.227-18.545-21.24-27.89-.64-.86-.615-1.113 0-1.996 2.51-3.61 5.853-6.263 9.772-8.13 3.864-1.84 7.84-3.456 11.782-5.128 1.23-.523 1.508-.37 2.32.907 1.55 2.445 3.046 4.922 4.64 7.34.884 1.34 1.92 2.58 2.875 3.872 1.03 1.397 2.21 2.64 3.76 3.447.81.42 1.007 1.083.91 1.866-.226 1.914-.51 3.82-.766 5.728-.382 2.865-.698 5.74-1.16 8.59-.533 3.297-.57 6.618-.648 9.937-.028 1.18-.03 2.37.122 3.53.138 1.06-.1 1.85-.897 2.576-3.407 3.108-6.783 6.25-10.172 9.38-.157.145-.328.277-.495.41-.885.713-1.19.7-1.837-.114-.87-1.088-1.696-2.212-2.595-3.28-6.01-7.15-11.524-14.668-16.763-22.395-.302-.444-.628-.87-.918-1.32-.574-.883-.57-1.3.03-2.012.345-.407.722-.79 1.1-1.173.862-.885 1.05-1.323.674-1.51-.715-.358-1.23.16-1.77.42-.474.223-.865.624-1.286.953-.39.307-.802.305-1.14-.032-.3-.295-.544-.672-.245-1.123.355-.535.66-1.124 1.1-1.58 1.12-1.16 1.742-2.588 2.33-4.043l-.035-.026c-.028-.083-.06-.17-.096-.246l-.373-.352c-.064-.018-.13-.036-.22-.03.006-.035 0-.065.006-.097-.858-.1-1.64.015-2.268.712-.718.796-1.44 1.59-2.21 2.328-.15.14-.64.117-.818-.02-.21-.165-.265-.54-.358-.83-.03-.09.013-.224.066-.31zm5.052 14.914c-.058.2-.062.44-.18.59-1.137 1.415-2.29 2.82-3.463 4.204-.08.096-.466.093-.552-.004-.424-.473-.838-.968-1.163-1.512-.13-.22-.115-.637.01-.87.903-1.702 1.844-3.382 2.787-5.06.25-.446.783-.506 1.035-.126.47.71.93 1.43 1.37 2.163.105.173.107.405.156.612zm-7.2-9.61l.043-.09c.028-.004.047-.02.075-.026-.003-.368-.02-.738.02-1.1.012-.106.233-.187.356-.278.087.18.255.363.247.538-.02.4-.198.732-.622.84v.107c-.037.005-.077.007-.117.01l-.18.386c-.257-.368-.035-.376.18-.387zm-1.372 8.25c1.27-1.818 2.55-3.627 3.848-5.423.174-.24.507-.398.79-.096.138.147.208.358.308.54-.04.193-.04.417-.137.574-1.137 1.78-2.285 3.555-3.44 5.326-.258.396-.762.476-1.08.16-.295-.287-.598-.637-.287-1.08zm-1.475 4.2c.066.03.192.07.19.085-.054.24-.12.476-.187.712-.056-.083-.168-.174-.16-.25.02-.186.1-.365.158-.548zm1.3 10.515c-.1.173-.3.288-.48.448-.135-.08-.355-.128-.41-.252-.598-1.33-.652-2.612.22-3.892.657-.963 1.173-2.02 1.776-3.02.213-.352.74-.31 1.096.043.732.724.885 1.277.498 1.967-.89 1.573-1.79 3.143-2.7 4.705zm1.84 7.506c-.036-.042-.156-.116-.16-.2-.027-.41-.166-.89-.01-1.224 1.132-2.413 2.32-4.8 3.51-7.186.29-.58.786-.58 1.22-.025.392.506.757 1.03 1.12 1.557.256.37.39.75-.1 1.056-2.222 1.397-3.897 3.294-5.125 5.604-.092.173-.302.284-.454.418zm11.556 17.323c-.47.465-.97.47-1.414.085-.08-.07-.162-.142-.237-.217-3.245-3.35-2.686-2.932-1.237-6.335.375-.888.88-1.723 1.22-2.622.417-1.094.87-2.194.8-3.416-.03-.54-.3-1.1-.56-.982-.274.122-.593.27-.756.5-1.288 1.84-2.547 3.702-3.814 5.558-.17.25-.297.654-.693.384-.245-.166-.523-.45-.563-.715-.064-.402-.037-.88.13-1.244.944-2.036 1.875-4.087 2.945-6.062.58-1.067.92-2.165 1.072-3.333.03-.22-.295-.53-.52-.718-.09-.075-.423.02-.546.14-1.792 1.72-3.226 3.708-4.398 5.894-.194.36-.516.65-.794.963-.026.03-.177-.008-.227-.06-.07-.067-.145-.18-.14-.268.015-.206.035-.427.12-.608 1.382-2.91 2.955-5.707 4.742-8.384.38-.574.747-.573 1.224.06.974 1.28 1.905 2.59 2.88 3.87 1.51 1.977 3.25 3.71 5.48 4.878.244.13.55.127.84.17-1.087-2.81-2.927-5.156-4.66-7.564-2.065-2.87-4.166-5.715-6.28-8.55-.66-.885-.752-1.69-.11-2.635.72-1.063 1.324-2.203 2.015-3.29.427-.67 1.015-.645 1.525.06 1.89 2.603 3.713 5.255 5.656 7.814 1.423 1.875 2.976 3.652 4.514 5.44 1.907 2.22 4.203 3.957 6.77 5.355.858.47.874.646.113 1.364-3.356 3.166-6.737 6.298-10.078 9.477-1.71 1.628-3.342 3.334-5.024 4.99zm53.632 3.4c-.456.276-.912.556-1.393.782-4.162 1.978-8.448 3.618-12.946 4.66-1.355.317-2.685.645-3.96 1.24-.845.396-1.837.467-2.477.616-.96-.112-1.594-.226-2.23-.255-2.243-.107-4.484-.235-6.728-.256-7.58-.067-14.546-2.12-20.85-6.358-.456-.307-.512-.675-.146-1.035.532-.523 1.087-1.024 1.634-1.536 6.962-6.5 13.923-13.005 20.89-19.505 1.88-1.752 3.77-3.488 5.656-5.234.35-.325.675-.47 1.004.036.405.626.738 1.344 1.275 1.835 2.793 2.547 4.85 5.705 7.184 8.625 3.945 4.94 7.918 9.845 12.412 14.302.302.3.576.632.843.964.273.337.186.91-.17 1.124zm19.098-18.19c-1.086 1.842-2.09 3.746-3.346 5.47-2.603 3.58-5.803 6.58-9.465 9.072-.835.565-1.237.477-1.905-.29-5.272-6.06-10.552-12.113-15.813-18.18-1.61-1.86-3.184-3.756-4.757-5.65-.105-.126-.088-.374-.077-.56.005-.067.16-.127.29-.223 1.31.33 2.657.65 3.996 1.006 5.062 1.343 10.185 2.427 15.36 3.244 3.187.504 6.232 1.478 9.233 2.624 1.998.763 4.018 1.47 6.02 2.22.582.215.787.72.464 1.266zm17.606-33.522c-1.237-5.23-2.82-10.32-5.51-15.01-.362-.63-.876-1.25-.41-2.09.09-.16-.157-.74-.3-.762-1.273-.172-1.645-1.238-2.256-2.102-2.843-4.017-5.755-7.976-9.59-11.15-3.762-3.11-7.91-5.5-12.656-6.73-2.176-.564-4.405-1.022-6.566.132-.597.318-.986-.144-1.472-.3-.75-.237-1.326.033-1.504.748-.256 1.035-.466 2.084-.59 3.14-.145 1.275-.106 2.573-.276 3.843-.338 2.543-.773 5.073-1.152 7.61-.317 2.113-.565 4.24-.925 6.344-.686 4.003-1.46 7.992-2.133 11.997-.302 1.793-.518 3.604-.66 5.415-.283 3.62-.134 3.712 1.732 6.89.683 1.167 1.598 1.68 2.757 1.956.934.223 1.92.227 2.848.47 3.936 1.047 7.972 1.56 11.963 2.306 2.94.55 5.878 1.123 8.807 1.728.608.126 1.34.28 1.737.69.862.885 2.005 1.207 2.99 1.826 2.525 1.588 5.263 2.326 8.89 2.217-.228 0 .204-.032.63.005 1.873.166 3.067-.834 3.816-2.377.41-.846.718-1.82.765-2.752.235-4.71.165-9.406-.93-14.046zm-11.68-12.605c.236-.124.662-.267.782-.158.817.76 1.358 1.685 1.445 2.824.035.014.064.036.1.05.027.08.05.163.08.24l.17.163c-.053-.04-.125-.067-.154-.117-.007-.014-.008-.03-.015-.045l-.163-.157c-.002-.047-.017-.087-.02-.133-1.083-.394-1.748-1.268-2.396-2.15-.063-.09.05-.45.17-.515zM99.87 26.703c.075-.072.187-.105.282-.154.184.083.41.13.546.265 2.37 2.357 4.294 5.06 6.06 7.885.262.426.138.828-.214 1.137-.608.533-1.312.634-1.696.224-2.06-2.182-4.12-4.364-6.144-6.58-.636-.696-.59-.946.032-1.642.355-.4.75-.763 1.135-1.134zm-7.787 9.43c-.35-.39-.238-.767.09-1.105 1.18-1.224 2.362-2.45 3.557-3.66.352-.356.73-.33 1.096.035 1.958 1.954 3.925 3.9 5.877 5.86.128.128.146.373.216.56-.108.178-.174.406-.327.524-1.36 1.024-2.733 2.03-4.103 3.035-.667.49-1.19.49-1.692-.056-1.582-1.722-3.147-3.46-4.715-5.197zm2.334 8.66c-.216.238-.44.468-.68.68-1.035.92-2.074 1.828-3.112 2.74-1.5-.387-1.973-1.86-2.908-2.83-.856-.89-2.033-1.56-2.373-2.887l2.407-2.542c.37-.387.726-.786 1.113-1.155.146-.143.36-.215.543-.318.2.053.47.038.587.165 1.52 1.65 3.026 3.31 4.507 4.997.31.352.245.79-.082 1.148zM89.55 19.147l.064.037c.012.02.02.04.028.06.395 0 .832-.086 1.15.074 2.587 1.3 5.06 2.784 7.195 4.768.75.7.715 1.07-.23 1.74-1.46 1.034-1.308 1.255-2.587-.113-1.68-1.796-3.35-3.605-4.994-5.433-.25-.28-.367-.683-.533-1.035h-.092v-.096l-.39-.21c.396-.273.387-.025.39.207zm-7.488-1.995c.17-.22.486-.52.694-.486.627.1 1.22.43 1.845.512.995.134 1.425.653 1.72 1.6.246.78.81 1.49 1.343 2.142 1.696 2.074 3.42 4.128 5.175 6.152 1.43 1.647 1.316 1.467-.282 2.98-.39.37-.79.726-1.163 1.11-2.28 2.36-2.093 1.98-4.107-.215-1.376-1.502-2.81-2.95-4.245-4.395-.49-.49-.697-1.035-.71-1.715-.042-2.354-.11-4.706-.172-7.06-.053 0-.102 0-.155.004.013-.21-.053-.49.055-.627zm-.923 19.15c.266-2.01.532-4.022.807-6.03.013-.1.102-.268.15-.266.182.004.406.014.536.117.327.272.638.573.908.9 1.148 1.397 2.278 2.805 3.414 4.208-.72 1.815-2.266 3.055-3.258 4.68-.243.398-.775.4-1.104.11-1.13-.99-1.662-2.2-1.453-3.72zm34.243 28.262c-.005.203-.084.407-.153.603-.034.096-.117.243-.187.245-.194.014-.512.032-.57-.07-.926-1.66-2.546-2.136-4.213-2.622-4.427-1.29-8.907-2.304-13.466-3-2.538-.385-5.057-.892-7.594-1.287-2.96-.463-5.93-.864-8.896-1.294-.8-.12-1.126-.45-1.043-1.303.326-3.3.69-6.6 1.048-9.9.08-.744.163-1.49.28-2.232.03-.197.15-.46.303-.535.13-.063.43.046.556.175 2.168 2.213 4.323 4.44 6.478 6.667.433.448.494.97.11 1.44-.61.74-1.292 1.42-1.932 2.133-.3.33-.072.922.405.99.416.057.85.09 1.26.022.298-.05.56-.3.852-.427.765-.33 1.185-1.495 2.093-1.235.774.224 1.407.942 2.102 1.44.26.19.514.388.78.57.26.174.558.394.822.057.085-.114.058-.395-.02-.548-.337-.67-.72-1.316-1.073-1.98-.287-.54-.836-1.133-.76-1.625.082-.537.7-1.044 1.18-1.455 1.113-.96 1.924-2.287 3.378-2.84 1.024.94 2.063 1.86 3.07 2.816.698.66 1.37 1.358 2.023 2.063.325.35-.025.614-.25.782-.946.704-1.926 1.36-2.88 2.05-.696.5-1.4.994-2.053 1.547-.32.267-.623.63-.768 1.01-.135.366-.225.94-.03 1.196.29.383.89.848 1.28.782.92-.154 1.87-.474 2.673-.95 1.568-.927 3.05-1.99 4.555-3.026.763-.525 1.45-.836 2.278-.056.46.43 1.07.71 1.635 1.01.13.067.374-.05.553-.112.034-.01.06-.187.02-.245-.34-.543-.708-1.07-1.05-1.614-.546-.866-.514-.924.117-1.65.984-1.128 1.97-2.26 2.885-3.443.22-.286.196-.76.277-1.155-1.475-.3-2.703.405-3.915 1.047-2.595 1.376-2.3 1.395-4.307-.633-.907-.917-1.818-1.827-2.7-2.763-.848-.9-.816-1.23.246-2.05 1.188-.915 2.396-1.81 3.628-2.667 1.073-.75 1.308-.715 2.23.11.557.5 1.052 1.09 1.663 1.515.603.415 1.296.877 1.985.946.956.096 1.314.66 1.565 1.365 2.315 6.51 3.76 13.18 3.525 20.14zm-60.965-1.166c.235.077.59-.053.826-.196.118-.07.172-.4.125-.576-.428-1.57-1.16-2.972-2.18-4.256-3.007-3.772-6-7.556-8.935-11.385-2.932-3.827-5.784-7.72-8.696-11.566-.58-.767-1.22-1.51-1.945-2.13-.456-.388-1.127-.523-1.856-.838-.263.397-.615.7-.668 1.045-.208 1.39.616 2.45 1.297 3.534 4.11 6.55 8.64 12.79 13.546 18.76 1.43 1.74 2.975 3.38 4.452 5.077 1.09 1.252 2.485 2.025 4.035 2.528zm-2.23-17.738c.826.772 2.01 1.165 3.036 1.72.073.038.268.005.292-.047.072-.156.17-.37.115-.5-.75-1.825-2.135-3.19-3.42-4.62-2.286-2.55-4.592-5.083-6.912-7.6-1.23-1.337-2.505-2.637-3.776-3.936-.133-.14-.384-.162-.582-.24-.102.178-.267.342-.3.534-.133.795.216 1.453.646 2.087 3.14 4.627 6.822 8.795 10.904 12.602zm12.16 52.856c-.684-.418-1.136-1.402-2.14-1.027-1.17.435-.943 1.494-.925 2.334 0 .414-.016.732.003 1.045.06.946.546 1.535 1.467 1.81.704.21 1.71-.27 2.116-1.027.466-.858.54-2.49-.524-3.14zM42.99 100.35c-1.017.123-1.858.182-2.683.332-.88.158-1.543 1.013-1.496 1.813.068 1.155.865 2.245 1.806 2.32.383.032.922-.08 1.16-.34.71-.774 1.332-1.633 1.927-2.503.15-.216.178-.66.053-.88-.188-.332-.562-.55-.768-.74zm5.745.287c-.105-.128-.384-.11-.755-.203-.274.31-.853.66-.878 1.054-.07 1.028.018 2.088.203 3.104.122.667.755.984 1.42 1.067 1.204.147 2.506-1.523 1.915-2.557-.512-.894-1.237-1.667-1.904-2.467zM61.83 90.75c.202-.49.404-.988.547-1.498.192-.688-.38-1.53-1.114-1.688-.206-.045-.422-.043-.634-.064-.215.01-.43.006-.64.03-.834.093-1.36.742-1.177 1.568.136.615.304 1.272.653 1.777.277.4.816.75 1.294.847.615.125.865-.483 1.07-.97zm-8.454 1.91c-.24-.604-.932-.9-1.572-.76-.6.13-.973.69-.956 1.9.067.278.192 1.004.42 1.695.193.584.984.976 1.537.866.725-.142 1.383-.926 1.237-1.6-.156-.713-.395-1.417-.667-2.1zm16.63-.42c-.242-.01-.656.288-.726.525-.27.9-.5 1.83-.585 2.763-.025.288.4.752.73.917.673.336 1.607-.073 1.862-.736.15-.386.222-.804.352-1.293-.17-.557-.258-1.202-.56-1.717-.165-.28-.7-.442-1.075-.46zm6.525 7.085c-.44-.248-1.156-.284-1.446.06-.632.75-.98 1.58-.672 2.58.185.61.81 1.072 1.4 1.036.197-.06.4-.105.588-.18 1.097-.454 1.263-2.857.132-3.49zM61.847 84.49c1.66-.85 1.358-2.198.16-3.326-.302-.284-1.252.038-1.35.44-.075.308-.117.624-.197 1.053.086.413.174.93.312 1.436.093.32.784.547 1.075.397zM35.32 87.044l-.43-.166c.05.138.096.28.145.42.096-.086.19-.17.284-.257zm-.43-.166l-.025-.078c-.02-.004-.048-.005-.072-.008l.02.055c.027.01.05.017.076.028zm76.87-39.75c-.078.128-.156.256-.235.38.205-.033.587.065.235-.38zm-.232.38c-.02.003-.043.008-.06.015l-.005.028.035.005c.008-.016.018-.032.03-.047z"/></svg>