<svg xmlns="http://www.w3.org/2000/svg" width="128" height="128" viewBox="0 0 128 128"><path d="M123.733 73.46c.025-1.607-.99-2.753-2.54-2.957-.543-.07-1.105-.085-1.652-.038-1.756.154-3.515.305-5.264.533-1.78.233-1.9.24-2.47-1.335-.91-2.517-2.182-4.82-3.85-6.914-2.977-3.735-6.294-7.117-10.156-9.946-.534-.39-1.07-.78-1.586-1.195-.38-.31-.475-.74-.283-1.185.657-1.52 1.35-3.02 1.995-4.542 1.342-3.18 1.68-6.615 2.498-9.93.54-2.183-.747-3.692-3.004-3.65-.33.01-.648.156-.977.19-2.453.268-4.698 1.217-6.933 2.156-4.767 2.004-8.982 4.75-11.886 9.174-.06.092-.13.178-.197.267-.508.64-.986.78-1.74.455-1.52-.657-2.998-1.43-4.554-1.973-1.554-.544-3.163-1.105-4.78-1.242-4.53-.383-9.085-.26-13.49.935-4.256 1.155-8.465 2.514-12.63 3.968-4.703 1.643-9.26 3.63-13.06 6.997-.56.496-.927.274-1.103-.448-.245-1.02.158-1.646.978-2.22 2.626-1.837 3.435-4.476 3.203-7.545-.08-1.083-.597-1.85-1.537-2.39-1.123-.645-2.31-.775-3.52-.426-1.78.518-3.18 1.554-3.858 3.347-.27.715-.39 1.483-.606 2.22-.056.18-.207.432-.35.46-.18.034-.495-.07-.58-.215-.51-.845-1-1.706-1.438-2.59-.266-.54-.12-1.057.3-1.512 1.045-1.14 2.144-2.242 3.08-3.467 1.087-1.422 1.797-3.01 1.692-4.903-.2-3.57-3.565-5.728-6.865-4.355-1.763.734-2.867 2.1-3.414 3.84-.46 1.46-.82 3.002-.89 4.523-.102 2.13-.355 2.64-2.502 1.94-.71-.227-1.525-.22-2.29-.18-.903.047-1.35 1.218-.876 1.995 1.013 1.664 2.598 2.45 4.416 2.547 2.272.123 2.357.224 3.317 2.504.173.408.368.805.557 1.206.934 1.992 2.187 3.58 4.606 3.794.736.064 1.152.55 1.294 1.29.3 1.53.754 3 1.785 4.225.42.495.315.977.016 1.507-1.41 2.498-2.955 4.937-4.152 7.535-1.913 4.146-3.017 8.515-2.846 13.148.064 1.752.34 3.495.05 5.267-.12.725.148 1.523.295 2.277.72 3.712 2.09 7.217 3.69 10.61 2.468 5.247 5.494 10.106 10.404 13.49.59.41.857.973.857 1.688.004 2.542 0 5.086.04 7.627.014.764.07 1.546.267 2.277.215.79.79 1.327 1.672 1.387.437.03.88.01 1.323.008 3.644-.02 7.29-.05 10.934-.075.77-.002 1.544.05 2.315.01.94-.047 1.72-.495 2.22-1.28 1.043-1.647 2.53-3.077 2.48-5.282-.015-.74.34-1.5.59-2.233.16-.48.6-.658 1.068-.512 3.078.976 6.23 1.373 9.46 1.385 2.918.01 5.735-.272 8.306-1.797.09-.053.216-.113.306-.09.187.047.45.1.522.237.15.28.216.61.286.93.392 1.832.713 3.685 1.18 5.498.7 2.713 1.405 3.14 4.156 3.22 4.785.144 9.41-1.025 14.107-1.605 1.21-.15 1.92-1.112 1.83-2.368-.065-.875-.257-1.744-.423-2.61-.33-1.733-.72-3.456-1.003-5.198-.267-1.664-.195-1.746 1.408-2.38 2.945-1.16 5.324-3.14 7.592-5.25 3.656-3.395 6.963-7.1 9.608-11.36.51-.82 1.04-1.277 2.126-1.124 2.458.34 4.84-.288 7.18-.936 2.03-.558 3.214-2.293 3.22-4.47.006-2.1.002-4.2.002-6.3-.05 0-.102-.003-.155-.003.08-2.214.2-4.423.235-6.634zM17.393 36.02l-.19.253c.02-.07.02-.175.066-.206.034-.025.077-.036.12-.045l.08-.106c.02-.002.033-.01.052-.013-.178-.746-.155-1.46.473-2.024.132-.12.444-.236.525-.17.143.113.27.387.236.563-.146.734-.322 1.477-1.23 1.63.005.03.01.058.018.087l-.15.03zm97.876 49.788c-1.085.034-2.146.49-3.23.678-1.4.245-2.528.734-2.886 2.3-.093.398-.433.765-.725 1.086-2.37 2.624-4.716 5.272-7.14 7.845-2.965 3.144-6.097 6.1-10.066 7.997-.85.41-1.483 1.06-1.455 2.04.034 1.23-1.268 1.817-1.3 2.974-.034 1.103-.013 2.208-.094 3.307-.02.26-.316.66-.555.723-2.56.668-5.13 1.296-7.71 1.884-.234.055-.697-.176-.805-.395-.34-.687-.567-1.427-.83-2.15-.6-1.66-1.137-3.342-1.812-4.967-.33-.8-.873-1.523-1.395-2.23-.35-.465-.963-.72-1.476-.458-.88.44-1.653.283-2.54.067-.72-.176-1.555-.086-2.288.095-5.376 1.326-10.73.997-16.085-.077-1.74-.347-2.756.09-3.38 1.81-.635 1.756-1.03 3.6-1.492 5.414-.272 1.083-.443 1.3-1.526 1.36-2.423.13-4.846.253-7.27.33-.858.028-1.14-.25-1.312-1.155-.186-.975-.3-1.963-.427-2.946-.085-.655-.064-1.333-.215-1.973-.24-1.024-.835-1.788-1.92-2.074-.528-.14-1.07-.256-1.57-.47-.833-.357-1.046-1.186-.502-1.853.347-.43.762-.807 1.084-1.253.256-.352.437-.763.614-1.165.24-.546.1-1.557-.368-1.817-.448-.25-1.026-.386-1.54-.37-.96.03-1.537.787-2.184 1.382-.4.363-.803.82-1.402.344-.69-.55-.76-1.225-.113-1.985.927-1.088 1.93-2.115 2.877-3.19.5-.57 1.022-1.15 1.42-1.796.562-.918-.127-2.038-1.236-2.136-1.034-.09-1.994.093-2.77.82-.808.75-1.572 1.548-2.38 2.295-.122.11-.484.16-.57.074-.212-.22-.48-.544-.458-.805.032-.414.203-.867.45-1.204 1.5-2.048 3.03-4.073 4.563-6.096.8-1.055 1.653-2.068 2.427-3.145.412-.576.42-1.253.017-1.867-.4-.606-1.004-.83-1.712-.802-.917.032-1.766.304-2.4.97-1.138 1.2-2.238 2.44-3.317 3.69-.43.498-.75 1.088-1.162 1.603-.117.15-.395.27-.576.243-.126-.02-.26-.3-.304-.486-.184-.81.078-1.52.542-2.18 1.655-2.343 3.317-4.684 4.956-7.042.688-.994 1.374-1.997 1.963-3.05.423-.756.212-1.514-.396-2.106-.607-.59-1.322-.678-2.13-.345-1.06.437-1.834 1.22-2.56 2.054-.867.996-1.697 2.02-2.556 3.03-.062.07-.22.137-.288.107-.08-.036-.138-.18-.146-.288-.032-.438-.105-.886-.045-1.313.756-5.49 2.03-10.837 4.415-15.877.14-.298.328-.58.437-.89.253-.715.31-1.566.744-2.14.588-.775 1.438-1.358 2.195-2 1.875-1.583 3.99-2.78 6.268-3.658 6.187-2.377 12.448-4.544 19.003-5.646 5.206-.877 10.348-.76 15.14 1.92.865.483 1.77.904 2.676 1.31.88.39 1.285.998 1.525 1.97.35 1.416 1 1.617 2.43 1.685 2.06.095 3.448-1.235 5.027-2.163.224-.13.348-.574.365-.882.03-.544-.02-1.104-.09-1.65-.31-2.426.73-4.26 2.446-5.855 2.076-1.93 4.586-3.03 7.215-3.924.74-.253 1.317.253 1.158 1.032-.643 3.16-1.63 6.187-3.578 8.82-.592.8-1.22 1.575-1.77 2.403-.298.45-.56.967-.66 1.488-.176.913.023 1.78.858 2.343.805.545 1.67.55 2.485.027.555-.352 1.045-.796 1.57-1.198.67.543 1.412 1.02 2 1.642 2.284 2.405 4.553 4.825 6.758 7.297 2.686 3.003 4.726 6.384 5.665 10.356.05.21.123.422.21.624.24.538.595.892 1.243.894 2.87.004 5.744.02 8.614.043.626.005 1.018.38 1.026 1.024.02 1.325.006 2.65.006 3.98h-.016c0 .55.008 1.103-.002 1.66-.067 3.603.613 3.89-3.667 4.03zM43.7 33.266c.51 1.547 1.604 2.645 3.082 3.283 2.096.905 4.304 1.07 6.464.353 3.974-1.318 8.437-5.005 8.194-11.16.378-4.828-2.564-7.182-6.227-8.02-1.853-.42-3.74-.444-5.583-.08-5.523 1.09-8.16 5.907-7.157 11.172.288 1.507.753 2.99 1.23 4.448zm7.132-10.37c1.333-.534 2.598-1.132 4.1-.475s2.29 1.734 2.092 3.328c-.192 1.54-.62 2.985-1.637 4.245-1.45 1.797-4.104 1.53-5.063-.634-.58-1.313-.913-2.708-.85-4.177-.19-1.135.272-1.854 1.36-2.29zM65.44 18.06c.728.24 1.483.435 2.24.525 3.616.427 6.48-1.835 6.923-5.44.08-.653.083-1.315.117-1.973.162-1.848-.34-3.47-1.568-4.88-1.483-1.706-3.37-2.314-5.58-2.308-2.19.005-3.77.95-4.94 2.736-1.202 1.836-1.493 3.862-1.333 5.996.2 2.72 1.542 4.483 4.14 5.344zm3.29-8.557c.02-.152.23-.38.363-.384.192-.01.486.095.565.244.3.56.75 1.163.733 1.74-.02.838-.374 1.672-.64 2.493-.046.154-.32.277-.51.334-.442.137-.58-.266-.627-.53-.098-.53-.075-1.08-.107-1.65.07-.73.124-1.49.226-2.246zm-.587 39.81c-.655-.362-1.453-.645-2.187-.656-2.98-.043-5.95-.178-8.928.305-3.264.53-6.434 1.515-9.767 1.746-1.48.1-2.936.89-4.35 1.497-.845.363-1.49 1.756-1.273 2.51.25.89.8 1.57 1.733 1.85 1.812.546 3.662.815 5.564.755 1.214-.096 2.443-.082 3.632-.305 3.81-.712 7.65-1.042 11.522-1.07 1.213-.007 2.432-.08 3.64-.218.93-.108 1.66-.64 2.02-1.524.755-1.845.09-3.955-1.605-4.89zm26.35 18.22c-.09-.41-.33-.814-.594-1.148-1.01-1.282-2.84-1.124-3.497.326-.403.893-.747 1.83-.97 2.78-.337 1.444.098 2.83.65 4.145.444 1.062 1.63 1.648 2.677 1.493 1.275-.19 2.154-1.103 2.286-2.418.043-.434.007-.875.007-1.312l.196-.032c-.247-1.28-.466-2.57-.757-3.838z"/></svg>