<svg xmlns="http://www.w3.org/2000/svg" width="128" height="128" viewBox="0 0 128 128"><path d="M107.584 112.34c-.846-1.98-1.752-3.938-2.535-5.943-.563-1.435-1.367-2.684-2.396-3.806-2.037-2.22-3.99-4.51-5.924-6.823-4.488-5.376-9.167-10.596-13.738-15.904-.626-.725-1.112-1.58-1.585-2.417-.122-.216-.06-.69.11-.883.494-.563 1.064-1.06 1.634-1.55 2.05-1.758 4.023-3.586 5.67-5.742 3.235-4.226 5.558-8.96 7.716-13.79.43-.956.395-1.87-.045-2.802-1.19-2.528-2.285-5.088-4.08-7.307-1.896-2.34-3.537-4.884-5.36-7.287-2.467-3.248-5.61-5.25-9.85-5.312-3.094-.042-5.98.566-8.67 2.104-.844.48-.848.433-1.567-.416-1.04-1.227-1.973-2.588-3.184-3.623C58.7 26.483 53.8 21.95 48.95 17.347c-.778-.74-1.573-1.493-2.47-2.072-1.076-.693-2.235-1.293-3.63-.97-3.375.79-6.57 1.967-9.52 3.862-2.65 1.702-4.898 3.88-7.312 5.854-1.14.937-1.995 2.243-2.912 3.43-.776 1-.715 2.218-.695 3.415.017.958.588 1.552 1.19 2.195.585.622 1.05 1.364 1.534 2.077 3.445 5.085 7.002 10.087 10.798 14.918 1.395 1.777 2.743 3.597 4.04 5.447.984 1.4.93 1.59-.06 2.82-.202.25-.43.483-.636.733-1.646 1.997-2.28 4.346-2.41 6.432.196 2.48.257 4.535.556 6.554.154 1.03.582 2.095 1.14 2.98 2.735 4.318 6.086 8.085 10.222 11.125.78.57 1.62 1.054 2.02 2.023.422 1.018 1.372 1.355 2.348 1.47 1.28.148 2.57.186 3.83-.297 2.71-1.04 5.47-1.962 8.157-3.06 3.29-1.34 6.54-2.79 9.515-4.772.518-.344 1.07-.3 1.483.117 2.73 2.757 5.537 5.448 8.13 8.333 2.876 3.207 5.55 6.596 8.304 9.91.965 1.158 1.828 2.414 2.876 3.49 2.406 2.47 4.896 4.863 7.356 7.284 1.243 1.228 2.71 2.12 4.296 2.817.128.054.376-.12.544-.227.064-.042.105-.19.093-.28-.03-.21-.068-.423-.15-.615zM31.356 28.28c-.412-.133-.85-.147-.97-.352-.118-.195-.014-.69.172-.877 1.355-1.372 2.635-2.87 4.177-4.004 1.717-1.266 3.666-2.226 5.557-3.246.747-.403 1.598-.624 2.415-.886.083-.027.395.272.37.352-.327 1.088-.41 2.197-1.663 2.912-1.178.67-2.117 1.803-3.057 2.827-1.43 1.56-3.144 2.592-5.198 3.05-.626.14-1.276.163-1.808.228zm7.445 14.4c-.054-.13.09-.464.226-.53.672-.33 1.41-.533 2.054-.907 1.108-.646 2.19-1.355 3.237-2.098.33-.235.612-.63.768-1.013.3-.73.272-1.5-.24-2.142-.513-.644-1.27-.928-2.026-.674-.8.27-1.57.706-2.263 1.19-1.26.88-2.62 1.494-4.107 1.822-.287.064-.75.06-.9-.117-.696-.8-1.323-1.662-1.935-2.535-.064-.094.07-.46.207-.544.54-.345 1.1-.667 1.685-.93 1.277-.575 2.596-1.057 3.85-1.67 3.75-1.833 6.98-4.268 9.057-8.005.252-.45.7-.523 1.03-.178.672.7 1.385 1.372 1.96 2.144 3.412 4.583 6.993 9.028 10.72 13.356 1.405 1.632 2.66 3.39 3.97 5.1.183.246.283.556.38.748-.012.22.01.335-.026.433-.868 2.58-1.817 5.195-4.312 6.624-3.362 1.92-6.805 3.718-10.46 5.06-.924.34-1.618.172-2.303-.57-.946-1.028-2.07-1.89-2.723-3.17-.21-.418-.128-.904.267-1.1.672-.34 1.367-.636 2.035-.98.992-.51 1.683-1.323 2.197-2.3.366-.694.243-1.435-.37-2.05-.578-.575-1.408-.76-2.07-.404-1.23.657-2.43 1.365-3.67 2.005-.364.19-.846.36-1.216.278-.352-.082-.704-.46-.904-.8-.084-.14.163-.63.38-.765.82-.507 1.752-.855 2.533-1.412s1.493-1.24 2.128-1.962c.644-.732.548-2.027-.064-2.683-.656-.7-1.707-.818-2.67-.25-.555.327-1.063.735-1.61 1.076-.73.457-1.467.9-2.22 1.313-1.376.755-1.966.178-2.596-1.352zM54.03 84.155c-.072.058-.145.16-.218.16-.095 0-.204-.067-.282-.132-.925-.754-1.547-1.712-1.86-2.856-.04-.142.1-.412.234-.498.128-.08.474-.063.526.027.576.994 1.12 2.005 1.66 3.02.033.065-.037.185-.06.278zm2.186-1.058c-.09.026-.222.013-.3-.04-.65-.42-1.057-.97-.9-1.79.06-.1.096-.23.173-.266.064-.03.19.036.27.087.676.418.776 1.155.99 1.824.01.04-.14.16-.23.187zm5.9-1.523c-.006-.01-.007-.02-.012-.03l-.173-.175-.65-.64-.01-.173c-.428-.245-.5-.66-.513-1.104-.032-.016-.06-.034-.096-.05l-.01-.114c-.147-.054-.31-.1-.376-.204-.08-.128-.013-.348-.008-.527.107.084.264.15.307.26.056.146.064.308.078.468.035.012.07.022.1.036 0 .045.004.085.005.128.453.24.486.67.512 1.104.04.02.062.053.107.072l.648.647c.027.088.046.18.082.264l.162.162c-.053-.043-.126-.075-.154-.13zm5.335-1.18c-.193.13-.64.097-.84-.05-1.495-1.087-2.415-2.65-3.287-4.225-.122-.218-.072-.7.093-.87.427-.44.962-.773 1.472-1.16.35.204.75.295.846.52.72 1.646 1.4 3.31 2.037 4.99.08.21-.116.66-.32.796zM61.653 69.56c-3.37 2.155-6.87 4.015-10.89 4.69-1.374.23-2.704.717-4.054 1.08-1.276.343-2.307-.08-3.233-.96-1.32-1.258-1.952-2.814-2.114-4.586-.047-.535-.008-1.077-.008-1.617-.01-2.396.333-4.72 1.445-6.878.2-.385.826-.497 1.063-.193.733.934 1.465 1.864 2.176 2.81 1.686 2.244 5.372 3.58 8.732 1.615 2.6-1.518 5.246-2.962 7.612-4.863 1.675-1.35 3.424-2.608 5.17-3.87 3.455-2.5 5.507-5.984 6.98-9.877.497-1.307.26-2.47-.693-3.576-1.115-1.293-2.09-2.71-3.1-4.092-.065-.085.044-.44.157-.494 2.82-1.35 5.732-1.91 8.713-.623 1.395.602 2.35 1.52 2.73 3.267.428 1.993.42 3.773-.255 5.67-1.02 2.868-2.45 5.453-4.35 7.857-1.867 2.364-3.514 4.897-5.664 7.04-1.225 1.22-2.517 2.34-3.973 3.286-2.168 1.408-4.264 2.923-6.443 4.316zm10.81 8.104c-.4.29-.882.26-1.08-.144-.794-1.615-1.58-3.23-2.315-4.87-.23-.51.234-1.178.906-1.482.09-.038.196-.04.293-.06.173.107.43.17.505.328.78 1.62 1.55 3.248 2.27 4.896.244.57-.125.998-.582 1.333zM77.77 73.6c-.156.144-.343.253-.52.38-.406.29-.914.257-1.116-.146-.816-1.63-1.63-3.26-2.357-4.928-.134-.305.017-.885.245-1.17.397-.49.923-.904 1.456-1.254 2.22-1.45 3.85-3.39 5.013-5.762.47-.96 1.01-1.902 1.64-2.765 1.78-2.445 3.293-5.024 4.3-7.887.213-.605.52-1.18.808-1.756.158-.32.5-.486.71-.167.89 1.333 1.73 2.7 2.564 4.07.1.164.065.415.106.71-.088.223-.128.588-.33.8-1.306 1.394-1.692 3.21-2.334 4.908-.038.1-.053.208-.085.312-1.793 5.968-5.624 10.533-10.1 14.654z"/></svg>