<svg xmlns="http://www.w3.org/2000/svg" width="128" height="128" viewBox="0 0 128 128"><path d="M74.9 35.556c.42-.743 1.082-.88 1.644-.337 1.483 1.43 3.153 2.52 5.15 3.08 3.71 1.046 7.46 1.29 11.143.044 2.66-.9 5.397-1.743 7.51-3.793 1.367-1.324 1.543-2.23.55-3.91-1.682-2.84-4.223-4.5-7.414-5.105-5.18-.992-10.16-.392-14.88 2.083-.913.477-1.723 1.314-2.903 1.153l.005.033c-.018 0-.035.003-.053.004l-.288.628c-.474-.516-.134-.597.288-.63.006-.013.01-.026.018-.04h.03c-.288-1.236.198-2.348.528-3.5 1.088-3.8.31-7.153-2.413-10.084-3.24-3.492-6.96-6.356-11.087-8.7-.925-.526-1.963-.876-2.987-1.188-1.214-.367-2.25.128-2.555 1.29-.376 1.423-.708 2.88-.824 4.342-.375 4.734 1.313 9.015 3.26 13.177 2.09 4.46 6.434 7.63 11.486 8.62 1.082.213 1.148.408.552 1.218-1.993 2.71-3.963 5.438-5.94 8.158-.236.324-.455.677-.753.932-.13.11-.547.096-.66-.02-.455-.488-.863-1.028-1.25-1.572-4.567-6.46-12.07-9.416-19.79-7.787-2.458.517-3.104 1.365-3.28 3.822-.142 1.98.423 3.68 1.405 5.363 2.445 4.197 6.484 6.334 10.605 8.378.464.227 1.05.213 1.58.306 2.132.38 4.263.44 6.402.02.584-.114 1.094.44.912.954-.864 2.42-1.393 4.907-1.728 7.453-.2 1.502-.592 1.787-2.056 2.023-.666.108-1.337.182-2.003.268-4.222.574-8.392 2.176-12.722.63-.24-.088-.532-.036-.803-.033-2.7.018-5.4-.08-8.087.096-1.588.1-3.163.57-4.714.99-1.307.354-1.94 1.4-2.18 2.67-.095.52-.052 1.07-.084 1.61-.224 3.81.773 7.47 1.29 11.195.374 2.7 1.99 4.07 4.562 4.275 1.307.104 1.856.6 2.19 1.84.518 1.945 1.352 3.805 1.917 5.74 1.245 4.26 2.35 8.56 3.607 12.82 1.56 5.29 3.2 10.555 4.853 15.82.234.735.65 1.48 1.162 2.05.683.767 1.48.04 2.238-.052.794-.093 1.61-.05 2.413.01 2.415.182 4.824.513 7.243.573 3.906.09 7.82.02 11.73 0 .805-.002 1.614-.06 2.42-.117 2.28-.176 4.555-.434 6.837-.53 1.927-.074 3.813-.397 5.41-1.415 2.073-1.328 4.57-2.54 3.85-5.792.8-5.315 1.586-10.637 2.398-15.95.755-4.924 1.66-9.832 1.244-14.852-.046-.54-.02-1.08-.002-1.62.04-.97.414-1.5 1.51-1.425 2.185.152 3.238-1.014 3.788-2.86.267-.89.416-1.83.5-2.756.172-1.877.204-3.762.4-5.632.195-1.916.015-3.818-.588-5.593-.97-2.86-2.87-4.9-6.27-4.58-2.144.207-4.303.27-6.457.4-2.014.124-4.025.294-6.04.37-4.175.155-8.352.27-12.527.39-.496.014-1.026-.603-.914-1.09.38-1.7.808-3.39 1.22-5.083.29-1.184 1.078-1.79 2.238-2.053 1.18-.267 2.35-.587 3.507-.943 1.83-.562 3.46-1.533 4.83-2.85 1.515-1.457.93-3.85-1.094-4.55-.734-.253-1.568-.283-2.357-.266-.775.014-1.673.732-2.294.09-.878-.914.205-1.737.56-2.494.906-1.945 1.97-3.826 3.02-5.708zm19.002-4.01c.124.157.248.314.37.472l-.4.384c-.078-.208-.18-.41-.223-.625-.013-.055.162-.154.25-.23zm-3.95-.64c.107-.128.538-.165.672-.055.707.57.64 1.967-.117 2.423-.143.087-.573-.046-.672-.206-.205-.315-.27-.72-.41-1.133.173-.355.29-.74.527-1.028zm-4.26.987c.058-.2.31-.347.47-.512.215.12.54.194.58.343.095.354.104.752.045 1.112-.02.128-.395.338-.517.288-.54-.217-.736-.683-.578-1.23zm-3.324.163c.128.002.248.267.37.414-.202.083-.412.245-.605.227-.147-.013-.27-.256-.403-.4.213-.092.427-.254.638-.24zm-11.18-8.997c-.207.16-.443.29-.67.43-.123-.317-.385-.654-.347-.95.19-1.403.453-2.79.69-4.185-.02-.024-.046-.048-.067-.073-.003-.03-.003-.062-.004-.093-1.377-.193-2.56 0-3.126 1.535-.154.41-.405.78-.61 1.168-.07-.384-.2-.772-.198-1.16 0-.928.11-1.856.07-2.78-.016-.35-.245-.836-.526-.99-.505-.272-1.02 0-1.366.44-.33.413-.6.865-.915 1.29-.066.084-.2.122-.3.18-.057-.12-.164-.245-.157-.363.06-1.046-.06-2.162.27-3.12.343-1.004-.08-1.743-.325-2.57-.04.006-.08.015-.116.018 0-.034-.005-.062-.006-.093-.497.04-1.01.145-1.48.043-.256-.06-.416-.544-.62-.834.298-.162.662-.527.88-.453.578.2 1.198.48 1.22 1.247l.095-.008c.01.03.02.055.027.084.097-.02.197-.038.274-.004 1.916.837 5.796 4.068 6.813 5.698.11.174.08.435.093.672.033.003.065.005.1.01l-.027.153c.42.44.923.832 1.204 1.35.83 1.52.62 2.19-.877 3.352zm-23.57 16.715l.154-.26.103.29-.256-.03zm3.68 2.46c-.012.285.006.69-.074 1.077-.032.14-.37.363-.45.32-.22-.115-.424-.32-.542-.54-.45-.843.204-1.525.39-2.272.027-.108.227-.276.254-.26.157.095.384.22.403.36.052.394.017.796.017 1.315zm4.105 1.893c-.117.178-.273.343-.448.458-.05.037-.245-.083-.33-.17-.677-.723-.88-1.587-.673-2.533.038-.167.327-.403.476-.384.235.02.58.19.644.377.21.593.31 1.227.38 1.534-.027.464.01.624-.05.72zm-19.057 34.64c-.448.33-.904.347-1.34-.02-.055-.05-.102-.32-.088-.328.328-.12.67-.262 1.01-.27.2 0 .4.232.598.36-.06.09-.1.202-.18.26zm48.842 11.37c-.925 6.525-2.116 13.013-3.22 19.513-.115.66-.406 1.29-.56 1.94-.173.738-.575 1.165-1.343 1.274-2.528.363-5.05.795-7.584 1.115-4.132.53-8.27 1.03-12.42 1.46-1.193.122-2.42.014-3.63-.075-.72-.053-.79-.54-.512-1.137.114-.24.2-.513.21-.78.02-.698-.644-1.36-1.312-1.17-1.137.33-2.224.828-3.352 1.19-.144.05-.422-.242-.6-.418-.07-.073-.106-.3-.046-.378.245-.315.48-.672.804-.877.792-.512 1.654-.915 2.44-1.433.436-.288.86-.67 1.136-1.107.18-.29.224-.804.094-1.124-.126-.314-.53-.686-.843-.714-.65-.068-1.36-.045-1.966.17-.88.31-1.677.854-2.534 1.238-.62.277-1.008-.145-1.303-.61-.373-.585-.05-1.116.398-1.36 1.424-.76 2.91-1.405 4.357-2.116.597-.3 1.216-.595 1.715-1.016.245-.207.38-.734.313-1.067-.068-.336-.386-.768-.698-.885-1.056-.388-2.144-.24-3.153.203-1.11.483-2.18 1.064-3.27 1.595-.47.23-.96.573-1.43.016-.51-.615-.575-1.856-.02-2.216 1.35-.87 2.754-1.662 4.158-2.45.815-.46 1.702-.8 2.483-1.307.265-.175.49-.78.39-1.055-.164-.445-.552-.97-.967-1.126-1.045-.38-2.144-.224-3.14.273-1.324.657-2.618 1.382-3.92 2.082-.51.27-.792.038-1.14-.635-.45-.876-.24-1.674.4-2.193 1.46-1.184 3.012-2.254 4.566-3.317.66-.453 1.43-.747 2.116-1.166.634-.387.935-1.22.702-1.71-.328-.69-.943-1.022-1.628-.982-.927.053-1.868.213-2.753.48-.63.188-1.195.613-1.774.96-1.03.608-2.048 1.232-3.072 1.856-1.484-.757-1.64-2.38-2.212-3.653-2.148-4.803-2.194-4.256 2.816-4.54 5.515-.31 11.023-.662 16.533-.993l.014.206c2.023 0 4.047.016 6.07-.005 2.693-.025 5.373-.133 8.064-.418 3.206-.335 6.464-.203 9.696-.23.58-.003 1.034.398 1.037 1.016.005 2.57.25 5.17-.11 7.68zm-18.96-23.27c7.805-.33 15.612-.63 23.42-.943.268-.01.537-.046.805-.05.757-.013 1.272.457 1.36 1.142.33 2.478-.404 4.81-.997 7.152-.075.295-.565.65-.896.686-1.86.21-3.727.347-5.594.46-.13.01-.45-.452-.4-.588.33-.874.803-1.69 1.082-2.574.085-.27-.203-.804-.477-1.008-.27-.206-.802-.306-1.105-.18-.472.2-.95.554-1.237.974-.533.77-.96 1.616-1.37 2.46-.402.827-1.036 1.19-1.93 1.18-.133 0-.266.01-.402.02-5.104.364-10.227.56-15.307 1.14-3.766.426-7.518.543-11.286.6-1.043.01-1.26-.246-1.446-1.458-.02-.13.01-.273-.01-.403-.223-1.424-.74-2.16-1.448-2.03-1.102.21-1.462 1.06-1.692 2.02-.155.644-.314 1.285-.506 1.922-.107.352-.664.405-.945.088-.87-.985-1.83-1.903-1.147-3.455.192-.442.085-1.086-.075-1.576-.105-.32-.523-.674-.855-.738-.32-.064-.9.115-1.035.365-.565 1.053-.99 2.178-1.515 3.253-.09.184-.446.35-.653.326-.196-.025-.5-.31-.508-.493-.04-.8.06-1.608.01-2.41-.03-.51-.156-1.405-.38-1.453-.75-.154-1.132.544-1.46 1.133-.323.58-.583 1.2-.89 1.794-.04.075-.22.168-.264.142-.107-.07-.24-.2-.245-.31-.076-1.193-.124-2.384-.197-3.577-.008-.11-.124-.264-.222-.3-.11-.037-.312 0-.38.08-.426.502-.79 1.057-1.244 1.533-.49.516-.026 1.576-1.04 1.762-.08-.788-.254-1.58-.224-2.362.064-1.635.557-2.28 2.108-2.424 2.01-.194 4.033-.198 6.053-.253 1.213-.03 2.428-.003 3.64-.003l.003.085c2.965-.085 5.937-.062 8.89-.29 2.81-.225 5.6-.726 8.4-1.085 1.2-.153 2.403-.316 3.612-.366zm9.64 24.08c-.303-.217-.577-.566-.884-.595-.36-.032-.786.14-1.11.337-1.978 1.245-3.31 3.09-4.524 5.025-.194.314-.245.782-.196 1.157.047.363.238.78.497 1.03.454.433 1.076.32 1.424-.093 1.542-1.844 3.04-3.725 4.504-5.626.22-.282.184-.755.288-1.237zm.59 5.066c-1.887.837-3.184 2.296-4.036 4.155-.098.212-.11.556-.005.764.158.31.453.557.644.775.384-.054.714.006.88-.134 1.544-1.277 2.756-2.827 3.634-4.63.09-.18.05-.61-.066-.67-.314-.17-.782-.385-1.05-.264z"/></svg>