<svg xmlns="http://www.w3.org/2000/svg" width="128" height="128" viewBox="0 0 128 128"><path d="M73.92 43.552c.753-1.405 1.16-1.446 2.556-.243 1.283 1.104 2.725 1.883 4.33 2.33 3.37.937 6.78 1.176 10.148.07 2.645-.867 5.34-1.69 7.424-3.725 1.152-1.125 1.318-1.965.54-3.38-1.512-2.736-3.91-4.25-6.87-5.022-3.427-.894-6.863-.462-10.19.29-2.58.588-5.158 1.678-7.028 3.65-3.324 3.504-6.522 7.135-9.016 11.31-.26.438-.552.856-.888 1.228-.102.11-.514.11-.615.005-.43-.456-.823-.956-1.186-1.47-4.325-6.112-11.374-8.9-18.667-7.37-2.347.49-2.94 1.268-3.108 3.596-.134 1.868.39 3.474 1.315 5.06 2.31 3.96 6.12 5.977 10.005 7.906.436.22.99.205 1.488.29 2.013.36 4.023.42 6.043.022.555-.108 1.037.415.866.897-.815 2.285-1.315 4.632-1.632 7.035-.187 1.415-.557 1.682-1.94 1.904-.627.102-1.26.173-1.89.254-3.983.537-7.918 2.055-12.004.59-.23-.08-.507-.03-.76-.028-2.545.017-5.097-.075-7.632.09-1.498.097-2.984.543-4.448.94-1.234.336-1.818 1.333-2.044 2.53-.092.49-.05 1.01-.078 1.52-.2 3.59.725 7.047 1.222 10.56.36 2.547 1.896 3.828 4.324 4.012 1.25.094 1.728.608 2.045 1.76.57 2.077 1.423 4.075 2.025 6.148 1.416 4.873 2.712 9.786 4.136 14.656 1.177 4.02 2.433 8.018 3.72 12.004.535 1.66.967 1.792 2.786 1.557.868-.11 1.763-.118 2.642-.07 4.183.227 8.362.494 12.217.724 5.293-.29 10.24-.522 15.18-.85 3.22-.216 5.825-1.696 7.732-4.304.258-.353.234-.93.276-1.41.028-.362-.114-.74-.066-1.096.66-4.645 1.24-9.308 2.04-13.93.93-5.398 1.717-10.785 1.365-16.29-.082-1.24.248-1.51 1.504-1.682.12-.02.252-.026.378-.014 1.52.125 2.31-.712 2.86-2.014.456-1.073.72-2.14.75-3.312.044-1.777.186-3.55.354-5.318.174-1.808-.015-3.6-.585-5.274-.804-2.368-2.517-4.466-5.6-4.24-3.93.284-7.86.514-11.794.705-3.94.193-7.884.315-11.824.444-.838.03-1.312-.645-1.122-1.562.203-.992.483-1.97.686-2.965.392-1.908 1.272-3.26 3.415-3.492.867-.094 1.725-.416 2.562-.704 1.704-.58 3.258-1.466 4.528-2.735 1.27-1.275.815-3.416-.864-4.115-.677-.282-1.47-.384-2.207-.398-.62-.013-1.242.237-1.867.333-.554.085-1.02-.456-.786-.933 1.067-2.17 2.11-4.348 3.253-6.475zm18.255-4.312c.13.136.358.274.348.395-.01.156-.21.3-.328.448-.077-.085-.224-.18-.216-.25.027-.198.122-.38.194-.593zm-3.9-.405c.013-.13.384-.328.584-.32.2.01.455.203.563.387.117.203.096.485.157.866-.09.233-.174.605-.377.894-.11.154-.422.188-.65.215-.076.01-.242-.158-.246-.256-.038-.59-.08-1.193-.032-1.784zm-3.287.26c.194.24.45.45.56.726.078.19.02.497-.093.683-.077.132-.446.258-.512.203-.24-.228-.407-.527-.663-.89.267-.267.49-.495.71-.718zm-3.655.617c.11.005.208.272.313.422-.192.066-.392.2-.576.18-.126-.005-.233-.23-.352-.364.22-.096.42-.245.615-.24zm-32.608 7.373l-.23-.154.258-.105-.03.26zm3.294 2.236c-.017.27 0 .653-.077 1.02-.028.13-.348.34-.422.3-.202-.107-.4-.3-.51-.507-.422-.796.19-1.438.37-2.144.022-.1.212-.26.24-.246.147.09.36.206.38.34.05.37.017.75.017 1.238zm3.382 2.177c-.062.034-.437-.26-.506-.46-.192-.57-.31-1.162-.435-1.748-.024-.113.01-.254.06-.364.045-.11.143-.29.207-.286.21.012.446.05.62.157.778.494.497 1.304.61 2.12-.154.176-.317.437-.554.58zM37.71 83.917c-.47.177-1.238-.066-1.185-.333.016-.096.136-.203.235-.245.433-.197.875-.363 1.264.124-.102.15-.17.395-.315.45zm46.253 10.916c-.843 5.903-1.923 11.772-2.94 17.648-.15.875-.39 1.75-.75 2.558-.167.38-.673.77-1.087.853-1.737.358-3.49.64-5.248.868-4.154.54-8.307 1.072-12.47 1.51-1.508.158-3.044.07-4.567.03-.65-.017-.812-.44-.54-1.035.103-.228.19-.484.204-.733.036-.67-.54-1.15-1.19-1.185-1.113-.058-1.876.695-2.8 1.072-.25.1-.64-.156-.965-.252.123-.33.175-.717.386-.973.233-.283.605-.456.93-.65.436-.268.89-.5 1.324-.764.324-.194.66-.384.952-.623.516-.424.846-.95.624-1.66-.197-.628-1.1-1.034-1.92-.763-.836.282-1.63.687-2.443 1.035-.35.15-.704.43-1.04.405-.31-.02-.71-.317-.857-.597-.14-.262-.128-.867.043-.984.944-.624 1.942-1.177 2.95-1.696.9-.464 1.86-.825 2.763-1.286.475-.245.704-.71.636-1.263-.07-.567-.72-1.106-1.396-1.032-.87.1-1.766.213-2.584.504-.95.34-1.83.88-2.74 1.333-.445.22-.892.543-1.36.063-.483-.494-.54-1.692-.084-2.1.376-.334.768-.67 1.212-.9 1.355-.693 2.737-1.338 4.11-1.997 1.125-.542 1.62-1.3 1.293-1.99-.333-.712-1.214-1.138-2.306-.847-1.213.323-2.38.834-3.537 1.336-.69.304-1.312.774-1.995 1.11-.1.052-.433-.172-.543-.342-.59-.92-.605-1.842.13-2.41 1.5-1.17 3.07-2.245 4.633-3.325.62-.43 1.372-.696 1.92-1.193.306-.27.528-.933.406-1.295-.13-.387-.657-.78-1.087-.903-1.003-.29-2.027-.127-2.968.332-.685.328-1.3.814-2 1.105-1.025.422-1.592 1.71-2.922 1.538-.54-1-1.144-1.97-1.604-3.003-2.27-5.077-2.288-4.4 2.823-4.68 2.533-.144 5.058-.463 7.595-.558 2.54-.1 5.086-.02 7.63-.02v-.158c1.91 0 3.816.016 5.726-.007 2.54-.026 5.068-.106 7.606-.388 2.897-.33 5.84-.23 8.766-.275 1.003-.013 1.45.41 1.45 1.344-.006 2.417.175 4.87-.167 7.244zM65.18 72.576c6.725-.267 13.454-.512 20.18-.774 1.144-.04 2.288-.128 3.43-.17.99-.038 1.376.35 1.472 1.283.228 2.205-.402 4.286-.936 6.37-.094.368-.683.796-1.093.86-1.502.24-3.026.34-4.544.484-.738.07-1.12-.528-.783-1.245.27-.573.665-1.1.853-1.696.094-.284-.074-.758-.282-1.004-.35-.41-.866-.487-1.37-.2-.216.122-.448.255-.61.44-.33.382-.78.76-.9 1.215-.602 2.273-2.176 2.65-4.3 2.766-5.316.296-10.62.91-15.933 1.312-2.28.173-4.573.16-6.862.188-.613.007-1.283-.013-1.827-.25-.72-.314-.36-1.11-.48-1.7-.075-.37-.158-.74-.293-1.086-.267-.688-1.39-.73-1.93-.197-.91.9-.588 2.176-1.104 3.18-.105.2-.506.48-.555.442-.478-.37-.912-.796-1.357-1.21-.414-.38-.446-.82-.344-1.37.136-.738.2-1.504.15-2.248-.024-.29-.4-.636-.7-.8-.53-.287-1.055.01-1.28.455-.452.896-.754 1.87-1.165 2.79-.085.19-.45.45-.555.4-.274-.137-.592-.382-.68-.655-.11-.34.034-.754-.005-1.13-.088-.794.638-2.035-.522-2.24-.925-.164-1.2 1.13-1.63 1.874-.125.22-.16.487-.264.716-.05.106-.17.183-.258.276-.128-.18-.306-.34-.368-.533-.072-.238-.015-.513-.066-.756-.194-.88.67-1.958-.504-2.647-1.054.46-1.274 1.494-1.668 2.405-.098.23-.177.47-.29.693-.043.08-.213.18-.24.164-.093-.076-.19-.185-.223-.3-.066-.24-.128-.493-.13-.74-.038-3.11.35-3.616 3.384-3.74 2.67-.113 5.34-.027 8.01-.027 5.504.412 10.883-.725 16.303-1.333.753-.085 1.504-.237 2.263-.267zm-14.57-41.42c2.898 4.45 6.777 7.45 12.222 8.215 2.475.343 4.797-.17 7.15-.646 2.65-.536 4.512-2.105 5.828-4.476 2.07-3.733 3.486-7.616 3.194-11.706 0-1.017.035-1.78-.006-2.54-.373-6.685-3.352-11.867-9.022-15.446-2.903-1.835-6.025-2.478-9.46-1.745-2.936.63-5.484 1.94-7.8 3.77-4.236 3.347-5.83 7.947-5.723 13.1.085 4.1 1.352 8 3.616 11.475zm15.92-6.516c-.06.07-.28.114-.3.082-.214-.3-.434-.605-.598-.936-.258-.523-.122-1.022.38-1.265.287-.137.724-.076 1.055.023.174.05.267.377.52.762-.32.41-.678.882-1.057 1.337zM54.11 11.968c.22-.312.39-.657.628-.95 1.97-2.44 8.01-4.044 10.853-2.768 3.465 1.557 6.244 4.036 7.936 7.403 2.376 4.74 2.38 11.99-3 16.757-.418.37-1.05.34-1.304-.107-.503-.88-.97-1.78-1.467-2.665-.31-.546-.142-1.02.3-1.33 1.616-1.135 2.702-2.655 3.388-4.484.865-2.31-.4-4.384-2.89-4.668-.753-.087-1.522-.028-2.285-.055-1.717-.062-1.82-.154-2.21-1.922-.192-.864.11-1.483.955-1.756.964-.313 1.956-.543 2.93-.827 1.054-.306 1.624-.885 1.42-1.432-.32-.85-1.065-1.05-1.846-1.057-.885-.013-1.773.072-2.656.14-.6.046-1.252.307-1.77.134-.32-.107-.42-.853-.642-1.3-.11-.223-.23-.498-.43-.615-.304-.175-.715-.38-1.013-.306-.315.076-.715.43-.79.73-.14.586-.237 1.27-.063 1.825.38 1.22.176 2.184-.646 3.162-.643.77-1.2 1.66-1.58 2.584-.327.79-.432 1.708-.474 2.575-.038.82.46 1.5 1.216 1.775.69.254 1.464.37 2.202.38.8.013 1.123.413 1.3 1.085.1.368.23.73.327 1.096.154.58-.107 1.073-.624 1.14-.75.1-1.53.068-2.247.273-.622.175-1.117.723-1.09 1.402.016.454.263.992.586 1.323.998 1.02 2.265 1.05 3.543.646.877-.273 1.45-.052 1.867.767.34.68.78 1.31 1.13 1.985.104.195.157.588.048.684-.254.22-.61.417-.943.444-.36.026-.736-.174-1.11-.223-5.505-.724-8.383-4.332-10.022-9.22-.693-2.063-.885-4.22-.757-6.42-.13-2.16-.082-4.305 1.234-6.2zm20.775 82.987c-.363-.573-.923-.306-1.333-.07-2.033 1.175-3.368 3.016-4.538 4.977-.22.368-.15.986-.046 1.446.072.3.46.53.66.747.347-.064.666-.02.82-.16 1.87-1.712 3.462-3.654 4.61-5.92.128-.254 0-.747-.175-1.02zm.824 5.09c-1.686.71-2.753 2.095-3.684 3.596-.123.198-.192.5-.135.717.085.336.227.77.486.924s.817.16 1.03-.02c1.44-1.21 2.604-2.657 3.423-4.37.05-.11.044-.243.066-.365-.06-.1-.096-.26-.175-.285-.333-.093-.746-.305-1.012-.193z"/></svg>