<svg xmlns="http://www.w3.org/2000/svg" width="128" height="128" viewBox="0 0 128 128"><path d="M95.634 91.333c-.077-.284-.296-.584-.535-.757-1.57-1.14-3.26-1.614-5.12-.738-.773.363-1.523.78-2.26 1.202-.746.424-1.45.92-2.2 1.33-.976.536-1.91.563-3.05.202-5.096-1.615-10.088-3.554-15.284-4.864-1.438-.363-2.77-1.138-4.166-1.675-1.04-.397-1.47-1.072-1.455-2.208.046-3.326-.032-6.653.027-9.98.02-1.056.293-2.11.5-3.157.185-.934.765-1.424 1.742-1.616 2.127-.416 4.273-.333 6.413-.43 1.178-.05 2.385 0 3.445-.633.44-.27.95-.58 1.182-1.01 1.305-2.4 1.394-5.22-1.227-7.16-2.798-2.066-5.927-2.826-9.34-2.68-.706.026-1.017-.187-1.013-.78.026-4.51.218-9.01.9-13.47.255-1.687.732-3.345 1.204-4.99.512-1.765 1.39-3.367 2.542-4.803 2.994-3.728 6.92-3.962 11.054-2.584.573.192 1.067.708 1.52 1.15 1.097 1.07 1.81 2.385 2.29 3.83.61 1.828 1.156 3.68 1.85 5.478.576 1.494 1.254 2.956 2.02 4.36.688 1.27 1.864 2.05 3.22 2.533 1.237.437 2.042.107 2.71-.994 1.488-2.463 1.514-5.156.974-7.81-.988-4.84-2.51-9.486-5.523-13.546-1.38-1.86-3.004-3.27-5.075-4.286-2.962-1.455-6.16-2.177-9.338-1.966-4.083.27-7.902 1.79-11.438 3.963-3.452 2.118-5.594 5.184-6.933 8.925-1.193 3.336-1.79 6.795-2.227 10.288-.413 3.294-.762 6.596-1.243 9.877-.2 1.368-.58 2.73-1.042 4.037-1.092 3.083-1.502 2.712-3.663 2.573-.642-.037-1.288-.002-1.933-.017-1.424-.032-2.77.37-4.06.88-2.087.828-3.616 2.288-4.367 4.445-.17.49-.304 1.062-.228 1.56.37 2.426 2.243 4.375 4.142 4.764 1.92.387 3.81.54 5.74.27.53-.078 1.05-.225 1.58-.29 1.443-.19 1.763.076 1.805 1.443.096 3.115-.053 6.216-.398 9.312-.14 1.254.203 2.575-.51 3.752-1.24.282-2.47.715-3.728.8-1.697.117-3.1.688-4.355 1.808-.875.78-2.056 1.29-2.743 2.192-1.358 1.786-2.618 3.712-3.237 5.895-.725 2.564-1.367 5.117-.043 7.81 1.314 2.683 3.575 4.02 6.187 4.64 1.927.454 4.003.26 5.935-.768 2.1-1.112 4.08-2.35 5.81-3.97 1.245-1.17 2.46-2.37 3.683-3.556 1.087-1.06 2.294-1.478 3.805-.915 1.504.56 3.042 1.036 4.584 1.478 5.67 1.635 11.4 2.992 17.36 2.955 1.608 0 3.228.113 4.826-.023 2.603-.23 5.024-1.054 7.083-2.743.674-.55 1.22-1.198 1.5-2.047.802-2.42.765-4.856.095-7.29z"/></svg>