<svg xmlns="http://www.w3.org/2000/svg" width="128" height="128" viewBox="0 0 128 128"><path d="M122.883 56.377c-.128-1.62-1.47-2.752-3.067-2.648-.74.045-1.472.254-2.202.42-3.445.766-6.89 1.534-10.332 2.317-.627.142-1.244.323-1.856.512-2.192.68-2.72 2.27-1.365 4.175.5.696 1.08 1.338 1.607 2.013.555.714.587 1.085-.083 1.638-3.232 2.69-5.824 5.998-8.704 9.03-.517.543-1.036 1.097-1.612 1.572-.146.12-.667.06-.763-.085-.286-.442-.427-.973-.66-1.45-.94-1.925-1.857-3.862-2.857-5.755-.465-.877-1.2-.864-1.764-.066-3.418 4.826-7.33 9.237-11.226 13.664-2.052 2.336-4.032 4.736-5.973 7.163-1.472 1.845-2.816 3.787-4.238 5.666-.514.683-1.075.686-1.528-.035-2.226-3.54-5.147-6.595-7.21-10.255-.312-.56-.7-1.083-1.092-1.59-.417-.53-1.222-.64-1.73-.244-.335.26-.714.513-.948.86-1.46 2.12-3.63 3.65-4.928 5.922-.305.538-.88.928-1.357 1.36-2.063 1.875-4.125 3.752-6.21 5.604-1.683 1.493-3.398 2.95-5.106 4.416-.348.3-.917.088-.975-.34-.015-.104-.032-.212-.037-.32-.255-4.167-.51-8.336-.763-12.508-.05-.856-.03-1.72-.128-2.57-.463-3.958-.404-7.91-.065-11.875.11-1.27-.053-2.567-.125-3.848-.048-.853-.245-1.71-.22-2.56.137-4.285.31-8.57.513-12.85.03-.62.288-1.23.46-1.84.022-.08.162-.19.236-.18.178.02.462.06.506.17 1.237 3.09 2.322 6.24 2.64 9.567.195 2.04.618 4.014 1.1 5.994.764 3.118 1.537 6.222 1.6 9.476.067 3.365 1.078 4.157 4.4 3.87.857-.075 1.328-.555 1.398-1.453.163-2.133.35-4.267.466-6.404.075-1.383.036-2.735-.34-4.133-.808-2.99-1.41-6.043-2.03-9.083-.344-1.68-.64-3.375-.805-5.075-.25-2.58-.814-5.045-1.772-7.47-1.562-3.956-4.034-7.026-7.842-8.99-.953-.49-1.602-.43-2.227.468-1.105 1.58-2.13 3.217-3.214 4.815-.416.615-.877 1.208-1.358 1.778-.068.08-.49.032-.53-.053-.26-.576-.42-1.203-.69-1.776-.41-.873-.255-1.62.236-2.42.443-.73.78-1.53 1.114-2.316.245-.576-.267-1.365-.928-1.404-.96-.053-1.93-.07-2.89-.015-1.47.08-1.94.802-1.44 2.11.193.5.402 1 .654 1.472.38.71.375 1.444.173 2.187-.168.62-.374 1.226-.575 1.84-.032.096-.132.26-.174.254-.196-.04-.45-.07-.564-.206-.34-.406-.672-.833-.923-1.295-.657-1.222-1.28-2.464-1.9-3.705-.332-.67-.65-1.346-.943-2.035-.575-1.347-.812-1.474-2.094-1.468-1.135.006-2.155.352-2.955 1.084-2.058 1.882-4.17 3.723-5.76 6.046-2.566 3.744-3.66 7.97-3.748 12.442-.112 5.684-.064 11.372-.072 17.06-.002 1.288.035 2.576.072 3.862.03 1.092.363 2.106 1.02 2.99.807 1.08 1.926 1.308 3.164 1.012 1.163-.28 1.852-1.097 2.024-2.246.128-.84.09-1.71.083-2.566-.027-4.08-.05-8.155-.12-12.235-.052-2.912.3-5.792.918-8.616.384-1.76 1.18-3.43 1.813-5.13.054-.148.265-.236.403-.345.06.087.15.17.17.267.236 1.045.52 2.08.666 3.136.325 2.332.527 4.684.873 7.012.645 4.352 1.045 8.717 1.04 13.125-.005 6.01.066 12.02.128 18.03.014 1.176.108 2.352.204 3.527.407 4.91 1.195 9.788 1.11 14.737-.044 2.46.148 4.914.586 7.342.08.446.534.757.933.642.41-.117.808-.272 1.21-.414 4.254-1.5 8.385-3.27 12.23-5.66.434-.273.845-.043.91.49.09.746.105 1.505.245 2.238.1.516.315 1.02.555 1.49.21.406.657.652 1.07.466.338-.153.792-.548.8-.843.026-1.39.042-2.8-.185-4.163-.184-1.112.094-1.83.946-2.507 2.43-1.94 4.82-3.932 7.235-5.89.24-.194.55-.3.827-.45.114.4.328.798.325 1.192-.02 2.04-.096 4.077-.142 6.114-.018.75-.024 1.502-.005 2.25.014.556.167 1.073.672 1.383.606.37.956-.09 1.355-.444.474-.42.992-.787 1.485-1.187.378-.307.35-.684-.068-1.055-.93-.827-.94-.97-.198-1.568.58-.464 1.184-.907 1.714-1.426.388-.383.386-1.29-.288-1.63-1.076-.545-1.05-.58-.347-1.164.577-.476 1.168-.936 1.69-1.463.307-.31.406-.747.15-1.175-.26-.434-.88-.64-1.403-.423-.396.162-.77.384-1.155.565-.736.338-.912.237-1.104-.427-.36-1.255-.154-2.285.876-3.18 1.862-1.614 3.672-3.29 5.506-4.94.158-.143.325-.28.494-.414.67-.527 1.423-.34 1.906.39.384.588.373 1.21.367 1.853-.026 2.79-.076 5.58-.067 8.37.008 2.252.043 4.507.16 6.76.037.716.328 1.44.6 2.12.1.247.508.56.738.532 1.17-.142 2.26-.527 3.02-1.513.053-.073.083-.245.037-.3-.706-.83.006-1.322.425-1.893.12-.164.16-.39.22-.594.106-.384-.255-.944-.66-.928-.418.01-.828.173-1.247.196-.15.007-.325-.19-.452-.324-.045-.048-.02-.242.04-.3.31-.29.655-.543.957-.842.867-.853.87-1.4-.19-1.987-.623-.345-1.042-.644-1.027-1.405.02-1.18-.02-2.363.002-3.54.01-.42.136-.833.208-1.25.277.257.592.484.825.772.88 1.083 1.725 2.193 2.598 3.278 1.23 1.53 3.183 1.856 4.873.576 1.092-.83 1.997-1.92 2.954-2.925.512-.537.956-1.14 1.44-1.704.062-.067.21-.104.3-.084.065.012.14.148.14.23.016.638.045 1.28.01 1.92-.135 2.462-.306 4.917-.436 7.378-.026.53.034 1.07.107 1.598.09.62 1.113 1.135 1.494.69.947-1.104 2.384-1.386 3.448-2.26.245-.2.446-.46.64-.713.405-.528.094-1.356-.59-1.484-.352-.067-.718-.046-1.082-.04l-.105.096c-.093.035-.19.064-.274.11-.05.028-.084.09-.127.134l.307-.337c.066 0 .13-.004.198-.004.504-.47 1.02-.93 1.496-1.425.575-.6.73-1.325.4-1.71-.397-.463-.9-.52-1.453-.32-.2.075-.41.18-.61.18-.19 0-.374-.13-.56-.202.042-.096.06-.22.13-.285.79-.718 1.6-1.42 2.385-2.144.492-.454.648-1.086.372-1.41-.4-.47-.936-.473-1.47-.33-.404.11-.782.337-1.19.424-.14.03-.447-.183-.48-.33-.404-1.686-.694-3.333.548-4.876 1.82-2.253 3.55-4.576 5.32-6.866.064-.08.157-.143.25-.192.084-.043.212-.103.27-.07.08.044.158.174.164.27.03.636.063 1.277.06 1.915-.02 4.613-.063 9.23-.063 13.844 0 1.176.085 2.36.24 3.525.047.373.364.83.69 1.02 1.74 1.005 4.17.36 5.38-1.405.15-.22.147-.636.06-.912-.14-.448-.56-.675-1.008-.6-.513.088-1.014.277-1.5.472-.295.117-.548.34-.83.49-.026.015-.16-.125-.207-.212s-.096-.26-.055-.293c.555-.47 1.12-.936 1.7-1.383.677-.523 1.585-.968 1.643-1.867.035-.5-.625-1.028-.88-1.584-.126-.27.014-.65-.07-.952-.19-.715-.57-.933-1.452-.868-.206.015-.413.2-.606.18-.156-.016-.31-.207-.427-.35-.056-.07-.075-.25-.025-.31.344-.397.683-.805 1.073-1.157.634-.57 1.34-1.064 1.94-1.666.17-.168.184-.637.082-.896-.103-.244-.424-.52-.685-.562-.402-.066-.835.053-1.252.1-.365.043-.82.614-1.058.02-.18-.447-.117-1.04-.02-1.538.05-.262.377-.504.626-.69.603-.445 1.25-.83 1.846-1.282.496-.376.74-1.082.496-1.383-.38-.472-.912-.49-1.46-.395-.108.018-.21.053-.315.072-1.27.238-1.317.22-1.34-.802-.022-.966.01-1.933-.022-2.898-.027-.79.185-1.483.694-2.08.484-.572.968-1.147 1.474-1.696.325-.356.87-.362 1.104.012 1.365 2.172 3.392 3.887 4.38 6.322.116.293.268.63.508.81 1.008.758.962 1.8.946 2.9-.072 4.287-.1 8.58-.13 12.874-.006.965.035 1.93.092 2.893.032.585.504 1.053.998 1.09.62.046 1.254-.446 1.38-1.104.065-.313.118-.636.106-.953-.048-1.056.183-1.87 1.335-2.277.453-.158.79-.68 1.15-1.062.258-.276-.006-1.015-.387-1.023-.52-.01-1.047.163-1.563.124-.158-.01-.413-.474-.39-.71.024-.274.26-.575.482-.774.714-.64 1.495-1.206 2.192-1.863.168-.16.22-.622.117-.853-.11-.254-.463-.56-.705-.56-.517.002-1.03.213-1.553.282-.15.02-.405-.096-.47-.226-.084-.168-.116-.485-.015-.604.337-.39.73-.74 1.125-1.073.65-.55 1.38-1.014 1.946-1.636.204-.224.13-.827-.005-1.195-.15-.415-.57-.627-1.052-.463-.4.14-.795.31-1.19.48-.275.118-.587.3-.717-.127-.043-.146.09-.433.23-.538 1.028-.77 2.113-1.467 3.097-2.283.236-.198.326-.865.174-1.14-.155-.285-.74-.554-1.054-.478-.71.166-1.36.57-2.052.832-.117.043-.43-.093-.452-.192-.235-1.072-.275-2.1.558-3.005 1.018-1.104 1.955-2.28 2.955-3.398.787-.88 1.6-1.74 2.44-2.567.19-.192.522-.237.79-.352.064.204.177.404.183.606.02.858.004 1.716.004 2.574.004 5.474 0 10.947.017 16.422.004 1.287.015 2.58.135 3.856.07.733.31 1.468.596 2.15.164.388.642.596 1.088.415.267-.11.627-.357.667-.593.126-.736.157-1.49.154-2.24-.037-7.94-.09-15.88-.14-23.824-.002-.535-.08-1.084.015-1.606.09-.5.23-1.1.564-1.44 1.355-1.372 2.784-2.674 4.22-3.962.157-.14.684-.12.833.03.764.75 1.435 1.588 2.19 2.346.447.45.96.843 1.487 1.2.606.408 1.344.167 1.585-.466.037-.1.084-.197.112-.3.93-3.527 2.17-6.945 3.565-10.316.57-1.383 1.05-2.82 1.41-4.27.226-.916.27-1.92.195-2.86zm-93.5 49.813c-.095.486-.357 1.003-.7 1.36-.515.528-1.15.948-1.763 1.378-.395.273-.74 1.01-1.283.538-.33-.288-.467-.95-.473-1.444-.04-3.096-.02-6.194-.02-9.29h-.033c0-2.564 0-5.127.005-7.692 0-.535-.01-1.07.03-1.6.058-.86.48-1.312 1.396-1.472.524-.09 1.057-.136 1.59-.163.75-.035 1.19.37 1.237 1.12.02.318.045.643.023.96-.3 4.797.047 9.593.034 14.386-.002.644.08 1.3-.043 1.92zM17.558 26.27c.367.35.736.75.95 1.204.41.864.68 1.797 1.058 2.677.64 1.49 1.5 2.83 2.7 3.94 1.135 1.058 2.442 1.71 4.03 1.69 2.193.094 3.67-.95 4.513-2.914.674-1.575 1.236-3.19 1.35-4.92.06-.92.422-1.64 1.236-2.113.277-.162.55-.33.81-.512.758-.524 1.115-1.262 1.174-2.172.1-1.508-.244-2.773-1.772-3.42-.683-.29-.957-.818-.94-1.516.036-1.526-.38-2.96-.895-4.366-.498-1.362-1.414-2.42-2.695-3.056-2.965-1.472-6.272-.565-8.203 2.206-1.166 1.672-2.193 3.427-2.384 5.523-.062.69-.34 1.22-.947 1.567-.277.16-.565.307-.814.506-1.878 1.484-1.793 3.137-.22 4.967.265.305.747.42 1.045.71zm8.35-8.218c.435-1.075 1.082-2.067 1.664-3.083.042-.07.42-.066.48.016.9 1.25 1.2 2.71 1.328 4.2.073.843.013 1.7.013 2.35.225 2.805-.353 5.283-1.194 7.707-.158.456-.596.832-.956 1.195-.1.098-.42.08-.57-.01-.145-.08-.32-.367-.274-.485.34-.887.77-1.742 1.096-2.638.224-.613.288-1.347-.348-1.728-.704-.42-.81-.84-.488-1.548.48-1.054.348-2.017-.435-2.956-.733-.885-.72-2.02-.315-3.024z"/></svg>