<svg xmlns="http://www.w3.org/2000/svg" width="128" height="128" viewBox="0 0 128 128"><path d="M42.323 61.276c-.078-1.5-.164-3.004-.117-4.504.11-3.307-.82-6.32-2.205-9.28-1.38-2.955-3.54-5.058-6.35-6.588-.723-.395-1.45-.252-1.965.478-.742 1.048-1.384 2.17-2.155 3.2-.627.84-.935 1.94-1.953 2.472-1.154-.64-.945-2.037-1.632-2.946-.29-.384-.02-.782.186-1.173 1.1-2.04.934-2.32-1.32-2.318-.43 0-.86.01-1.284.03-1.103.053-1.476.58-.813 1.357 1.035 1.216 1.113 2.505.693 3.913-.083.28-.302.59-.55.736-.386.23-.525-.173-.645-.435-.804-1.75-1.607-3.5-2.39-5.26-.683-1.54-1.424-2.015-2.99-1.54-.892.27-1.774.767-2.5 1.362-1.07.88-2.062 1.883-2.977 2.93-2.843 3.25-4.512 7.018-4.638 11.37-.15 5.14-.273 10.287-.313 15.43-.016 1.92.16 3.85.39 5.76.235 1.936 1.557 2.805 3.413 2.428.875-.178 1.603-.837 1.707-1.704.104-.848.112-1.71.107-2.565-.018-3.757-.04-7.51-.09-11.266-.034-2.592.506-5.112.967-7.637.21-1.144.693-2.243 1.1-3.347.103-.287.354-.522.56-.763.06-.07.2-.113.296-.103.064.006.154.124.164.203.337 2.33.642 4.663 1 6.99.768 4.986 1.212 9.988 1.122 15.043-.065 3.646.08 7.296.017 10.942-.07 3.982.424 7.927.817 11.864.254 2.564.462 5.115.493 7.685.016 1.29.035 2.578.115 3.863.04.63.14 1.28.353 1.87.49 1.352 1.623 1.952 3.072 1.73 1.168-.177 2.148-1.15 2.266-2.378.084-.85.044-1.712.04-2.57-.027-6.006-.063-12.016-.095-18.022-.003-.752.003-1.504.014-2.253.008-.588.232-1.03.842-1.2.414-.113.82-.248 1.237-.347 1.053-.25 1.608.176 1.637 1.32.036 1.394.014 2.788.02 4.184.022 4.397-.01 8.796.092 13.192.037 1.702.28 3.416.6 5.092.324 1.696 2.8 2.82 4.4 2.112.626-.275 1.097-.78 1.16-1.44.108-1.056.103-2.13.065-3.194-.04-1.172-.23-2.34-.253-3.514-.095-5.04.073-10.097-.283-15.118-.428-6-.358-11.992-.366-17.992 0-4.075.03-8.15-.015-12.224-.015-1.312.247-2.553.61-3.787.03-.107.273-.175.43-.206.067-.016.19.09.244.173.12.174.277.356.31.555.618 4.01 1.663 7.965 1.583 12.074-.064 3.22-.058 6.436-.08 9.656-.003.75-.042 1.504.015 2.25.102 1.356 1.067 2.318 2.475 2.553 1.035.17 2.3-.64 2.72-1.834.21-.597.352-1.248.37-1.877.163-5.138.54-10.28.277-15.43zm79.064-7.345c-.15-.393-.388-.76-.617-1.12-1.603-2.536-3.226-5.057-4.82-7.6-3.72-5.93-8.364-11.13-12.98-16.35-.283-.32-.593-.62-.913-.906-1.2-1.056-2.533-1.154-3.77-.112-.724.61-1.356 1.375-1.883 2.166-2.322 3.488-4.815 6.83-7.737 9.85-1.414 1.46-2.808 2.975-3.984 4.626-2.048 2.88-3.965 5.852-6.304 8.512-.074.08-.136.167-.196.256-.7 1.035-.544 2.01.494 2.795 1.143.867 2.49 1.213 3.888 1.385 1.38.17 2.768.303 4.147.483 1.824.24 1.87.277 1.877 2.248.017 4.182.004 8.367.004 12.55l-.243.008 1.014 22.81c.01.212-.008.433.035.64.592 2.747.475 5.543.632 8.32.053.96.183 1.917.31 2.87.08.578.423.96 1.014 1.088.626.136 1.25.373 1.88.38 2.68.044 5.39.27 8.03-.047 2.88-.345 5.748-.554 8.643-.614 1.52-.032 2.132-.537 2.25-2.144.135-1.915.045-3.846.027-5.767-.004-.636-.192-1.28-.122-1.903.61-5.368.085-10.723-.466-16.035-.433-4.156-.785-8.31-1.008-12.478-.155-2.89-.146-5.79-.208-8.687-.01-.534-.028-1.07-.01-1.605.015-.486.33-.805.775-.862 1.695-.213 3.402-.36 5.1-.573 1.16-.145 2.35-.24 3.47-.565 1.59-.465 2.26-2.05 1.662-3.61zm-8.965-1.753c-1.07.046-2.146.02-3.213.11-.63.05-1.286.16-1.858.41-.725.315-1.144.927-1.133 1.782.06 4.06-.31 8.097-.594 12.144-.29 4.168-.24 8.363-.273 12.544-.06 7.08-.064 14.16-.1 21.24-.006 1.1-.155 1.267-1.26 1.43-1.37.2-2.744.387-4.122.52-.234.022-.54-.22-.727-.42-.066-.07.066-.41.186-.566.385-.514.87-.964 1.19-1.514.26-.445.428-.987.48-1.5.08-.77-.095-1.532-.8-1.982-.72-.463-1.43-.318-2.06.245-.16.14-.31.317-.496.4-.156.068-.497.078-.523.02-.11-.27-.26-.625-.165-.854.155-.38.457-.715.747-1.016 1.112-1.164 2.257-2.294 3.36-3.468.433-.462.826-.98 1.163-1.52.482-.78.272-1.796-.41-2.293-.554-.41-1.524-.35-2.072.2-.606.603-1.133 1.285-1.733 1.897-.29.3-.65.542-1.015.747-.088.05-.414-.096-.462-.22-.33-.85-.288-1.68.33-2.403 1.398-1.627 2.806-3.242 4.204-4.866.63-.73 1.318-1.42 1.852-2.216.337-.513.51-1.166.635-1.78.11-.544-.124-1.045-.6-1.397-.485-.362-.968-.32-1.504-.095-1.12.47-1.94 1.312-2.794 2.13-.69.662-1.415 1.294-2.155 1.906-.063.054-.46-.106-.494-.227-.15-.504-.216-1.03-.316-1.55-.13-1.147.246-2.065.982-2.953 1.163-1.4 2.19-2.915 3.314-4.348.615-.784.98-1.656 1.195-2.606.115-.507-.3-1.485-.794-1.62-.478-.13-1.15-.214-1.51.024-.89.58-1.638 1.368-2.465 2.048-.13.11-.426.184-.536.11-.15-.097-.238-.35-.267-.546-.13-.88.037-1.69.565-2.435.68-.963 1.36-1.934 1.946-2.956.367-.636.634-1.354.82-2.07.24-.926-.55-1.683-1.505-1.515-.206.036-.404.128-.607.2-.288.102-.576.21-.864.315-.115-.395-.342-.796-.326-1.184.092-2.05-.102-4.068-.457-6.076-.278-1.57-.98-2.197-2.638-2.195-.85.002-1.696.18-2.545.27-1.06.106-2.12.212-3.182.293-.34.026-.494-.352-.27-.663.993-1.397 1.978-2.8 3.003-4.174 2.626-3.53 5.097-7.16 7.345-10.943.38-.636.833-1.252 1.36-1.766 2.145-2.096 1.875-2.514 3.788.406 1.295 1.972 2.55 3.97 3.89 5.906 2.256 3.26 4.564 6.48 6.85 9.717.314.436.14.9-.354.922zM84.15 89.157c-.027-2.25-.004-4.5-.004-6.754h-.04c0-4.073.01-8.147-.007-12.22-.007-1.07.01-2.16-.178-3.207-.376-2.088-1.906-3.383-3.8-3.115-.74.107-1.488.155-2.234.23-1.166.116-2.33.312-3.497.34-1.82.04-3.643-.03-5.465-.05-.643-.006-1.287-.034-1.925.02-.924.08-1.62.74-1.7 1.64-.156 1.696-.362 3.39-.368 5.09-.03 7.718.02 15.435 0 23.153-.004 1.493-.025 3.024-.32 4.48-.604 2.98-.22 5.984-.39 8.97-.053.957.632 1.65 1.557 1.726 2.246.186 4.51.283 6.723-.204 1.29-.28 2.523-.245 3.817-.075 1.366.185 2.788.29 4.15.13 2.837-.34 4.126-1.855 4.192-4.744.038-1.82.12-3.667-.12-5.46-.442-3.313-.347-6.63-.39-9.95zm-9.754 13.355c-.2.025-.418-.03-.62-.078-.097-.023-.217-.103-.25-.188-.03-.072.02-.213.084-.28.875-.938 1.786-1.844 2.632-2.807.658-.754 1.104-1.628.555-2.634-.41-.754-1.845-.853-2.923-.16-.9.576-1.717 1.275-2.595 1.89-.113.08-.42.054-.5-.037-.12-.144-.164-.387-.173-.59-.032-.7.36-1.21.825-1.67 1.29-1.286 2.603-2.553 3.86-3.868.59-.613 1.153-1.28 1.575-2.012.245-.423.272-1.025.245-1.54-.04-.864-1.056-1.504-1.864-1.28-1.606.45-2.742 1.63-4.056 2.54-.083.055-.325-.073-.46-.163-.057-.036-.067-.22-.028-.304.177-.384.324-.803.584-1.125.675-.832 1.406-1.615 2.108-2.426 1.052-1.216 2.14-2.403 3.127-3.67.78-.998.617-2.032-.3-2.847-.708-.632-1.633-.808-2.356-.277-.857.63-1.616 1.39-2.42 2.088-.213.184-.44.565-.728.21-.176-.22-.28-.627-.207-.893.166-.6.36-1.244.73-1.728.648-.846 1.44-1.582 2.165-2.37.434-.47.89-.928 1.275-1.438.357-.47.32-1-.026-1.486-.342-.475-.833-.686-1.393-.595-.413.07-.808.248-1.203.4-.447.177-.796.955-1.28.556-.316-.262-.244-.98-.372-1.49-.914-3.66-.247-3.33 2.826-3.145 1.49.092 2.97.37 4.454.573 1.118.157 1.392.465 1.4 1.737.018 3.645.006 7.288.006 10.93h-.133c0 2.68-.036 5.36.016 8.038.03 1.493.235 2.987.3 4.48.04.954-.095 1.915-.042 2.866.274 4.79.277 4.172-4.836 4.8zM61.49 92.987V87.21c.003-1.392.052-2.785 0-4.172-.03-.93-.56-1.61-1.435-1.95-.494-.188-1.013-.37-1.534-.404-1.385-.096-2.774-.144-4.16-.145-2.78-.006-5.557.027-8.337.064-.53.005-1.07.037-1.583.156-.905.21-1.48.886-1.576 1.79-.17 1.59-.433 3.185-.454 4.78-.078 5.885-.093 11.766-.08 17.652.002.95.275 1.893.405 2.842.136 1.007.82 1.515 1.707 1.653 1.158.177 2.37.058 3.51.3 3.967.837 7.88-.22 11.818-.222.206 0 .427-.064.617-.155.61-.286 1.11-.73 1.16-1.42.05-.625-.064-1.265-.13-1.894-.08-.736-.285-1.472-.258-2.204.123-3.63.304-7.26.467-10.888-.047-.003-.093-.006-.14-.007zm-5.242 2.732h-.034c0 2.782.008 5.566-.008 8.35-.004.597-.402.966-1.013.986-.75.025-1.5.027-2.248.007-.747-.02-.947-.282-.76-.958.11-.41.336-.808.36-1.22.02-.4-.013-1.042-.254-1.183-1.27-.736-.926-1.667-.473-2.662.043-.093.053-.205.066-.31.136-1.112-.115-2.334-1.842-2.39-.684-.022-.684-.38-.49-.795.456-.97 1.015-1.888 1.444-2.867.206-.47.267-1.028.288-1.55.035-.773-.79-1.357-1.548-1.11-.507.163-.97.47-1.483.596-.213.05-.693-.174-.722-.33-.203-1.157-.384-2.326-.427-3.495-.01-.273.62-.855.816-.8 1.733.482 3.388-.034 5.073-.233.84-.1 1.71-.038 2.553.046.235.02.55.357.625.61.117.398.078.847.078 1.274.006 2.677.002 5.355.002 8.032zM17.02 30.11c.882.634 1.266 1.317 1.597 2.247.648 1.828 1.54 3.53 2.987 4.894 1.062 1.007 2.25 1.628 3.776 1.485 1.72.213 2.848-.74 3.62-2.118.465-.827.713-1.78.998-2.7.22-.714.403-1.448.5-2.188.108-.8.393-1.44 1.12-1.828.732-.387 1.112-1 1.1-1.815-.02-1.163.23-2.48-.843-3.285-.885-.66-1.224-1.414-1.186-2.456.05-1.323-.394-2.53-.99-3.684-.513-.99-1.266-1.78-2.32-2.118-2.415-.773-5.135-.56-6.884 1.947-.987 1.41-1.832 2.916-2.097 4.643-.145.928-.58 1.49-1.32 2.052-1.665 1.265-1.76 3.703-.06 4.928zm9.36-9.718c.015-.027.357.05.45.16.88 1.035.852 2.368 1.092 3.595.14.715.024 1.48.024 2.097.226 1.952-.192 3.708-.64 5.453-.03.117-.323.28-.437.243-.17-.053-.4-.267-.405-.416-.016-.736-.02-1.45-.494-2.094-.18-.242-.34-.613-.29-.883.34-1.744-.596-3.31-.635-4.986-.027-1.222.766-2.16 1.33-3.166z"/></svg>