<svg xmlns="http://www.w3.org/2000/svg" width="128" height="128" viewBox="0 0 128 128"><path d="M121.198 106.443c-.99-5.468-3.578-9.792-8.444-12.645-1.47-.862-2.885-1.81-4.328-2.72.11-1.867 1.333-3.298 1.954-4.964.917-2.453 1.346-4.955 1.03-7.558-.326-2.656-2.252-4.465-4.912-4.66-2.088-.155-4.043.287-5.87 1.304-3.004 1.675-4.806 4.736-4.37 8.622.308 2.763.913 5.493 2.395 7.927.263.432.245.806-.107 1.13-1.344 1.242-2.55 2.617-3.435 4.215-1.086 1.963-2.054 3.994-3.09 5.986-.244.468-.55.903-.83 1.353l-.485-1.323c-.483-1.3-.82-2.682-1.483-3.885-2.495-4.53-5.825-7.953-11.466-8.088-.296-.007-.587-.224-.88-.405-.095-.013-.188-.02-.287-.037l-.007-.09c-.09-.012-.18-.022-.206-.067-1.28-2.453-2.283-5.02-2.79-7.733-.24-1.244-.276-2.555-.197-3.82.14-2.113 1.668-3.574 3.694-3.743 1.022-.085 1.932.544 2.1 1.557.295 1.8.33 3.614-.28 5.37-.416 1.206-.896 2.39-1.382 3.572-.644 1.562-1.13 3.147-.934 4.862.032.004.066.007.096.014.064.033.132.074.198.116 1.493.203 2.74-.188 3.563-1.628.212-.373.48-.717.66-1.102 1.047-2.235 1.99-4.523 2.42-6.957.362-2.024.253-4.067-.53-6.015-.672-1.668-1.762-3.047-3.525-3.51-2.597-.68-5.173-.45-7.258 1.438-2.365 2.144-3.394 4.843-2.98 8.083.423 3.317 1.23 6.51 2.64 9.552.475 1.027.446 1.118-.62 1.758-2.23 1.344-4.184 2.98-5.713 5.104-1.004 1.39-2.03 2.763-3.056 4.134-.112.15-.406.37-.426.35-.23-.202-.518-.42-.597-.69-.18-.612-.194-1.272-.376-1.89-1.28-4.425-3.765-6.92-8.612-7.355-.427-.038-.86-.02-1.282-.08-.2-.026-.384-.163-.576-.25.1-.18.167-.395.305-.542 2.557-2.752 3.943-6.117 4.81-9.682.346-1.423.36-2.996.192-4.462-.32-2.8-2.62-4.82-5.444-5.002-.96-.062-1.948-.096-2.888.056-2.992.485-5.434 1.24-6.51 5.627-.923 3.747-.883 7.424.667 11.01.46 1.067.975 2.112 1.467 3.17-.512 1.197-1.92 1.252-2.7 2.11-.214.236-.47.44-.662.694-1.577 2.033-3.147 4.067-4.7 6.117-1 1.32-1.51 2.845-1.572 4.483-.117 3.11-.098 6.22.452 9.298.248 1.407.71 1.96 2.08 1.95.955-.005 1.658.11 2.157.98.15.26.443.47.72.616.8.42 1.635.467 2.47.092.766-.345 1.12-1.318.78-2.202-.388-.995-.844-1.963-1.217-2.963-.48-1.286-.102-2.58.276-3.776.266-.835 1.373-.916 2.114-1.313.662-.352 1.356-.65 2.006-1.02 1.592-.9 1.646-1.177 1.15-3.057-.238-.903-.224-1.87-.435-2.784-.095-.42.076-.563.326-.75.426-.32.89-.598 1.27-.965.578-.56.443-1.573-.285-1.906-.667-.305-1.412-.435-2.085-.732-.117-.053-.162-.604-.04-.8.15-.233.56-.512.772-.454 1.894.517 3.837.304 5.754.43 3.07.2 4.828 1.59 5.332 4.6.39 2.31 1.02 4.614.81 7.002-.255 2.912.618 5.74.684 8.634.018.683.437 1.188 1.016 1.547.986.61 1.766.416 2.78-.687 1.265-1.368 1.265-1.368 2.523-.026.074.08.12.18.2.254.646.616 1.757.55 2.24-.22.334-.53.59-1.14.735-1.747.14-.62.09-1.28.145-1.92.053-.58.38-.994.89-1.242.578-.28 1.182-.506 1.757-.79.667-.33 1.373-.62 1.948-1.075.38-.3.783-.86.78-1.298-.006-.68-.64-1.106-1.277-1.286-.5-.14-1.054-.164-1.58-.14-.415.023-.82.215-1.236.307-.083.018-.273-.085-.27-.103.033-.175.044-.416.16-.5 1.526-1.103 3.374-1.267 5.11-1.76.704-.2 1.43-.45 2.037-.838.88-.563.906-1.715.13-2.498-.22-.225-.52-.374-.796-.53-.61-.34-.303-.627.05-.89.255-.19.568-.312.812-.515.55-.457.693-1.064.514-1.736-.183-.69-.693-1.153-1.355-1.206-.836-.07-1.69.076-2.54.097-.177.005-.358-.126-.538-.194.125-.267.235-.54.378-.797.05-.086.163-.143.256-.19 1.78-.892 6.518-.596 8.065.503.175.123.352.25.496.406 2.407 2.563 4.184 5.42 4.214 9.088.02 2.144-.086 4.263-.494 6.39-.34 1.78.91 2.815 2.728 2.546.105-.015.22-.032.31-.085.628-.355 1.132-.37 1.668.26.614.72 1.493.74 2.38.543 1.143-.26 2.292-.494 3.434-.765 1.78-.424 3.51-.986 5.05-2.01.697-.465 1.076-1.38.803-1.93-.37-.735-1.002-1.167-1.814-1.09-.73.074-1.47.255-2.158.516-.997.377-1.942.884-2.928 1.3-.117.05-.416-.083-.498-.213-.45-.74-.14-1.92.585-2.187 2.51-.928 5.038-1.8 7.533-2.765.78-.302 1.5-.79 2.197-1.265.42-.285.44-1.09.03-1.433-.476-.398-1.017-.898-1.58-.966-.933-.112-1.904.06-2.856.157-.7.07-1.39.208-2.085.32-.017.023-.03.05-.048.073l-.075.02c-.195.66-.93.58-1.362.914-.046.033-.275-.143-.39-.252-.026-.027.05-.245.108-.262.546-.147 1.094-.272 1.645-.403.006-.026.02-.046.025-.075l.096-.017c.15-.228.27-.516.48-.613 1.553-.717 3.13-1.376 4.693-2.07.978-.43 1.98-.813 2.728-1.642.79-.868.406-2.25-.75-2.552-1.06-.277-2.12-.24-3.156.132-.704.252-1.402.52-2.11.764-.07.024-.205-.052-.266-.12-.044-.05-.04-.193.003-.246.396-.498.73-1.083 1.22-1.46 1.446-1.107 2.97-1.52 4.76-.615 2.114 1.066 4.166 2.203 5.98 3.727 1.07.896 2.017 1.91 2.7 3.155 1.64 2.987 2.34 6.19 2.22 9.572-.028.845-.307 1.677-.427 2.522-.128.892.085 1.695.75 2.353.464.462 1.215.53 1.75.174 1.68-1.118 2.24-2.837 2.388-4.69.146-1.82-.052-3.615-.383-5.428zm-73.9-17.974c-.16-.05-.287-.294-.372-.48-.557-1.2-.448-2.496-.482-3.765-.02-.85-.003-1.7-.003-2.55h-.04c0-.85-.01-1.7 0-2.55.034-2.64.228-2.82 2.968-2.78.316.003.637.026.954.063.65.077 1.216.586 1.224 1.247.02 1.056.142 2.165-.123 3.164-.703 2.685-1.802 5.216-3.62 7.37-.12.14-.37.32-.498.278zm60.025-6.624c-.734 2.946-2.183 5.58-3.66 8.197-.294.523-.895.666-1.41.53-.347-.094-.784-.465-.88-.798-.602-2.06-1.093-4.15-1.05-6.192-.323-2.976 1.038-4.718 3.94-5.46.415-.108.83-.206 1.253-.257.815-.096 1.472.363 1.74 1.127.322.946.302 1.907.066 2.853zm-92.51-17.63c2.116 2.913 5.12 4.13 8.54 4.417 2.343.197 4.712.08 7.07.187 2.876.127 5.79-.314 8.633.508.49.142 1.07.047 1.598-.013 1.915-.21 3.83-.424 5.736-.693 1.397-.2 2.287-1.102 2.5-2.554.122-.845.097-1.71.108-2.566.017-1.393.004-2.784.004-4.18-.082 0-.165-.003-.245-.007l.736-10.25c.02-.32.032-.643.068-.96.013-.097.066-.22.14-.275.15-.107.4-.29.477-.24 1.073.692 2.245 1.294 3.144 2.172 1.18 1.157 2.515 1.26 3.86.796 2.42-.832 4.898-1.582 6.914-3.307 1.547-1.32 3.213-2.507 4.715-3.88 1.42-1.295 2.71-2.737 4.012-4.155.428-.466.79-1.024 1.057-1.6.72-1.557-.383-3.447-2.08-3.558-.515-.032-1.083.06-1.56.252-1.298.52-2.483 1.23-3.56 2.15-2.36 2.02-4.768 3.98-7.16 5.964-.88.727-1.333.784-2.283.085-1.553-1.14-3.066-2.337-4.58-3.53-1.427-1.13-2.833-2.285-4.245-3.43-.416-.34-.79-.736-1.23-1.034-1.627-1.107-3.617-.904-4.925.533-.576.63-1.086 1.326-1.563 2.036-.89 1.337-1.717 2.715-2.613 4.048-.147.213-.55.433-.76.377-.227-.06-.42-.42-.535-.69-.208-.49-.33-1.015-.525-1.513-.29-.747-.225-1.397.204-2.123 1.358-2.3 1.144-2.635-1.506-2.652-.323 0-.644 0-.964.022-.848.056-1.414.806-.98 1.586.943 1.707.55 3.307-.097 4.932-.064.162-.31.388-.42.365-.176-.04-.364-.235-.46-.414-.91-1.692-1.8-3.396-2.705-5.093-.576-1.08-.75-2.16-.413-3.39.222-.818-.23-1.473-1.015-1.778-.482-.19-1.072-.413-1.53-.292-2.386.62-4.836 1.27-6.705 2.93-2.478 2.2-4.778 4.61-7.1 6.982-4.153 4.238-5.974 12.924-1.302 19.27 1.145 1.552 2.418 3.01 3.55 4.57zm.825-15.07c.608-1 1.315-1.94 2.022-2.876.175-.236.512-.35.77-.522.125.267.337.523.364.8.163 1.8.226 3.61.44 5.404.326 2.747.748 5.483 1.11 8.226.023.18-.053.446-.18.557-.114.098-.43.12-.545.032-2.17-1.655-3.92-3.616-4.54-6.37-.14-.622-.22-1.254-.327-1.88-.067-1.228.262-2.356.883-3.372zm15.115 49.586c-.572-2.21-1.493-4.23-3.582-5.51-.862-.528-.846-.694-.556-1.567.237-.71.515-1.408.742-2.12 1.093-3.454 1.216-6.948.288-10.45-.67-2.55-2.272-3.62-4.76-3.18-2.96.52-7.255 3.425-7.393 8.204-.082 2.932.22 5.766 1.595 8.42.46.89.398 1.017-.38 1.61-3.8 2.896-6.406 6.59-7.35 11.31-.31 1.563-.296 3.188-.43 4.785l.076.008c0 .964-.023 1.93.007 2.894.046 1.566.75 2.368 2.3 2.532.956.1 1.856.084 2.688.794.78.66 1.643.5 2.26-.243.682-.82 1.282-1.713 1.868-2.606.587-.894.665-1.79-.164-2.624-.32-.32-.466-.696-.134-1.12.267-.334.53-.673.776-1.023.246-.352.47-.72.692-1.086.73-1.2.677-1.406-.592-2.256-.245-.162-.683-.245-.46-.634.8-1.377 1.764-2.666 1.925-4.336.024-.264.395-.487.573-.752.416-.613.917-1.2 1.184-1.873.306-.774.837-.87 1.51-.858 1.688.035 2.118.29 2.564 1.842.262.917.416 1.88.485 2.833.204 2.776.382 5.555.486 8.336.055 1.472.682 2.673 1.47 3.83.333.495 1.196.618 1.75.313.93-.512 1.393-1.29 1.377-2.357-.045-3.003-.018-6.006-.15-9.004-.055-1.38-.314-2.773-.66-4.115zm-8.518-7.524c-.11.227-.45.39-.72.474-.097.03-.33-.24-.443-.41-1.387-2.043-1.43-4.42-1.472-6.732-.026-1.53.72-2.89 2.108-3.725.424-.256.994-.517 1.444-.448.82.132.667.948.72 1.548.044.527.01 1.06.01 1.318.187 2.997-.495 5.54-1.647 7.972zM48.4 12.75c.465.245.977.445 1.49.54.735.137 1.49.15 2.237.238.437.053.81.53.654.907-.42 1.01-.555 2.054-.547 3.14.02 2.465.006 4.932.006 7.4h-.135c0 2.682-.032 5.362.02 8.044.017.72.225 1.472.518 2.136.124.28.688.467 1.067.497.244.02.607-.26.763-.508.224-.35.315-.784.435-1.19.496-1.684.32-3.408.264-5.117-.06-1.82-.22-3.633-.31-5.452-.133-2.89-.206-5.78-.385-8.664-.043-.66.31-.72.698-.707 3.746.128 7.5.467 11.24.393 6.738-.133 13.472.608 20.224-.273 4.766-.624 9.615-.608 14.417-.99 4.606-.362 9.2-.424 13.798.037.53.053 1.073.104 1.604.072 1.224-.075 2.324-1.04 2.416-2.195.088-1.08-.576-1.786-1.43-2.33-.865-.55-1.836-.567-2.8-.548-6.102.128-12.21-.326-18.305.506-3.6.49-7.26.54-10.893.788-.32.024-.658-.006-.96.08-1.9.545-3.787.21-5.71.146-4.814-.158-9.642.008-14.465.128-2.89.07-5.77.28-8.66-.085-1.7-.213-3.423-.21-5.137-.305-.902-.05-1.688.242-2.365.828-.74.64-.618 2.02.253 2.482zm63.21 43.115c-2.25.002-4.5.043-6.75.03-1.55-.008-1.55-.032-1.893-1.71-.252-1.227-.94-1.9-2.125-2.044-.424-.052-.86-.013-1.283-.06-1.27-.132-2.55-.235-3.808-.45-2.32-.39-3.495.53-3.765 3.037-.124 1.13-.274 1.308-1.337 1.325-5.887.103-11.775-.067-17.663.388-5.984.465-11.992.395-17.997.23-.638-.02-1.288.015-1.913.135-.94.18-1.525.914-1.55 1.79-.033 1.062.58 1.75 1.738 1.925.316.05.643.023.96.066 4.59.618 9.207.42 13.798.22 2.562-.113 5.127-.3 7.696-.31 6.214-.02 12.43-.006 18.65-.006v-.114c.856 0 1.71-.006 2.57 0 6.54.048 13.076.1 19.613.14.853.006 1.725.044 2.56-.097 1.46-.246 2.13-1.953 1.365-3.254-.485-.816-1.19-1.208-2.118-1.216-2.25-.014-4.5-.027-6.75-.026zM26.417 23.573c.868.623 1.37 1.31 1.643 2.24.514 1.784 1.412 3.36 2.556 4.795 1.133 1.422 2.605 2.205 4.645 2.128 1.53.19 2.706-.646 3.567-2.012.28-.448.485-.957.634-1.467.387-1.335.793-2.67 1.046-4.032.15-.798.422-1.36 1.11-1.828.508-.34 1.08-.853 1.238-1.4.435-1.51.227-3.065-1.024-4.095-.867-.712-1.153-1.46-1.146-2.475.005-1.195-.288-2.315-.722-3.437-1.472-3.797-6.82-4.004-8.933-1.818-1.627 1.682-2.675 3.627-3.21 5.84-.24.98-.526 1.68-1.41 2.335-1.763 1.306-1.767 3.95.005 5.224zm9.71-10.316c.178-.27.332-.288.462-.017.28.57.68 1.12.793 1.725.29 1.56.456 3.147.672 4.722.02 1.86-.403 3.625-.834 5.384-.034.16-.27.35-.43.37-.15.016-.425-.15-.463-.284-.313-1.106-.73-2.212-.82-3.34-.082-1.065-.16-2.078-.47-3.122-.588-1.954-.012-3.772 1.092-5.44zM94.95 37.8c-.044.092-.124.2-.214.235-.174.064-.437.177-.547.102-.61-.43-1.15-.978-1.786-1.36-1.627-.978-3.05-.635-4.146.977-.844 1.242-1.625 2.525-2.45 3.78-.174.26-.385.522-.637.698-.124.085-.482.047-.572-.066-.395-.49-.732-1.028-1.08-1.553-.474-.707-.874-1.477-1.428-2.112-.6-.69-1.615-.72-2.34-.145-.5.395-.983.837-1.38 1.333-1.41 1.77-2.98 3.362-4.74 4.79-.748.6-1.39 1.34-2.038 2.05-.6.66-.95 1.46-.82 2.358.054.384.294.79.563 1.085.288.32 1.106.193 1.477-.156 2.182-2.06 4.366-4.117 6.54-6.184.863-.822 1.046-.82 1.763-.005.704.802 1.376 1.657 2.197 2.328 1.32 1.085 2.496.97 3.7-.245.45-.45.818-.992 1.18-1.52.42-.622.772-1.29 1.194-1.91.42-.61.768-1.45 1.36-1.723.918-.422 1.407.733 2.156 1.07.292.13.54.357.826.493 1.728.81 3.157.277 3.957-1.483.176-.386.253-.82.427-1.212 1.907-4.323 4.117-8.486 6.69-12.452.344-.53.647-.393.843.157.034.1.107.187.168.272.42.56.966.842 1.67.67.713-.17 1.2-.825 1.27-1.67.02-.32.002-.644.002-1.354-.216-1.74-.442-3.872-.763-5.987-.16-1.073-1.56-1.668-2.555-1.18-.19.095-.385.194-.55.33-1.998 1.637-4.196 2.97-6.425 4.267-.542.315-1.006.79-1.454 1.242-.432.436-.212 1.403.396 1.614.486.168 1.06.32 1.538.213.72-.16 1.38-.563 2.077-.832.153-.06.45-.056.51.034.095.14.13.426.044.564-2.474 4.016-4.674 8.18-6.62 12.486zm17.858 11.6c.043.62.262 1.26.555 1.808.168.31.66.632.992.614.34-.016.747-.378.964-.697.427-.636.516-1.365.382-2.15-.847-4.896-.443-9.82-.245-14.734.098-2.45.365-4.894.535-7.086-.238-3.9-.452-7.53-.693-11.154-.028-.417-.147-.854-.347-1.217-.14-.25-.512-.56-.74-.533-.375.047-.895.262-1.037.557-.262.557-.402 1.22-.41 1.842-.035 2.565.022 5.135 0 7.706-.044 6.53-.133 13.06-.164 19.592-.013 1.817.077 3.638.203 5.452zm-19.3 68.725c-.097.13-.09.47.01.587.262.296.57.676.917.747 1.094.222 2.053-.183 2.856-.933.14-.13.183-.363.27-.547-.118-.17-.204-.402-.37-.496-1.18-.668-2.937-.366-3.682.642z"/></svg>