<svg xmlns="http://www.w3.org/2000/svg" width="128" height="128" viewBox="0 0 128 128"><path d="M28.043 45.685c.062-.08.16-.142.25-.197.093-.053.24-.15.285-.117.132.098.334.258.322.375-.34 3.3-.798 6.592-1.038 9.9-.355 4.916-.53 9.85-.838 14.772-.123 1.957-.15 3.856.99 5.584.227.348.313.795.444 1.2 1.423 4.39 3.173 8.663 5.156 12.817.89 1.86.868 3.416-.002 5.137-.34.67-.597 1.38-.894 2.067-1.498 3.444-2.81 6.954-3.827 10.57-.142.51-.393 1.013-.442 1.536-.296 2.995 1.683 4.79 4.78 4.405.632-.077 1.247-.27 1.873-.39 2.097-.402 3.43-1.71 4.163-3.63.725-1.9 1.33-3.844 2.005-5.763 1.474-4.187 2.3-8.47 2.056-12.932-.066-1.184-.153-2.336-.602-3.458-.955-2.385-1.846-4.797-2.772-7.196-.346-.9-.723-1.787-1.06-2.687-.196-.523.224-.964.85-1.028.69-.07 1.237.156 1.77.582 2.858 2.29 6.022 4.082 9.22 5.84 1.208.66 2.3 1.56 3.355 2.46 1.12.953 1.725 2.19 1.42 3.717-.38 1.882-.657 3.795-1.196 5.63-.556 1.88-.835 3.764-.77 5.706.037 1.082.885 2.1 1.93 2.3.73.14 1.49.138 2.24.18 1.55.085 2.7-.624 3.486-1.9.446-.724.868-1.5 1.1-2.31.38-1.333.673-2.704.86-4.078.393-2.862.595-5.742 1.182-8.587.478-2.315-.245-4.523-1.766-6.3-1.667-1.95-3.5-3.764-5.343-5.556-1.074-1.047-2.31-1.918-3.46-2.884-1.75-1.474-2.596-3.303-2.313-5.64.102-.842-.006-1.713-.064-2.57-.1-1.493-.233-2.987-.352-4.48.04 0 .083-.004.125-.006 0-1.073-.02-2.146.013-3.22.01-.303.136-.626.286-.896.066-.117.448-.224.49-.173.684.826 1.377 1.647 1.987 2.524 2.09 3.003 4.334 5.867 7.12 8.27.323.28.63.594.877.94.994 1.39 2.406 1.508 3.973 1.63 2.235.176 4.292-3.365 2.85-5.155-.602-.753-1.096-1.594-1.712-2.334-2.682-3.206-5.234-6.533-8.535-9.163-.333-.267-.587-.627-.894-.928-1.373-1.338-2.044-2.997-2.19-4.875-.204-2.673-.406-5.345-.535-8.02-.078-1.616-.318-3.193-.733-4.753-.206-.772-.6-1.36-1.316-1.728-.478-.247-.95-.5-1.422-.75-.732-.38-1.434-.257-2.155.08-.713.333-1.294.785-1.55 1.54-.28.806-.487 1.637-.75 2.452-.58 1.835-1.102 3.696-2.23 5.3-.172.246-.627.268-.782.014-.443-.734-.96-1.44-1.276-2.224-.177-.44-.153-1.077.027-1.525.395-.988.983-1.897 1.425-2.87.293-.65-.402-1.682-1.096-1.625-1.276.107-2.55.267-3.815.46-.63.095-1.103.924-.88 1.474.323.795.627 1.61 1.065 2.34.457.756.347 1.4-.074 2.084-.392.64-.736 1.308-1.154 1.93-.174.26-.512.397-.75.05-.303-.438-.593-.897-.818-1.38-.998-2.133-1.978-4.277-2.946-6.42-.597-1.316-1.425-1.817-2.805-1.48-.597.146-1.182.476-1.69.836-.43.303-.758.757-1.092 1.173-4.525 5.582-8.835 11.326-12.745 17.36-.456.708-.893 1.51-1.04 2.323-.596 3.275-.858 6.557-.223 9.893.444 2.307.556 4.674.852 7.01.203 1.59.425 3.183.736 4.755.17.865.66 1.61 1.63 1.795 1.882.354 3.98-.813 4.704-2.56.42-1.013.494-2.065.53-3.147.157-4.513-.26-9.004-.55-13.494-.1-1.61.236-2.957 1.185-4.2 1.625-2.13 3.255-4.258 4.89-6.383zm12.646-.003c.025.035.03.096.03.163l.37.176c-.407.284-.367.03-.37-.174l-.132-.064c-.067-.074-.132-.152-.197-.226l.298.128zm71.426 32.803c-.715-.213-1.457-.35-2.195-.476-2-.35-4.01-.674-6.015-1.015-3.066-.52-6.144-.907-9.26-.98-1.652-.04-3.14.324-4.65.998-1.565.7-2.202 1.77-2.472 3.413-.442 2.67-.348 5.34-.384 8.017-.01.963.01 1.93-.073 2.888-.017.214-.41.56-.62.556-.637-.013-1.266-.24-1.9-.26-2.9-.084-5.77-.43-8.63-.88-1.588-.252-3.176-.165-4.785-.06-1.525.1-2.413.7-2.833 2.097-.217.715-.49 1.437-.55 2.17-.223 2.774-.564 5.533-.596 8.332-.058 5.34.718 3.83-4.504 4.768-1.238.224-2.572.067-3.85-.064-2.968-.308-5.924-.716-8.89-1.06-1.3-.156-2.338.53-2.602 1.836-.192.94-.243 1.916-.264 2.877-.053 2.146-.032 4.29-.068 6.435-.015.872-.32 1.177-1.123 1.253-5.466.53-10.904.51-16.307-.656-1.14-.245-2.347-.22-3.52-.25-1.083-.033-1.752.54-2.226 1.524-.488 1-.33 1.888.17 2.754 1.09 1.88 2.822 2.67 4.895 2.396 2.155-.288 4.277-.045 6.417-.034 2.357.015 4.722 0 7.076-.14 1.49-.084 2.983-.323 4.442-.647 2.816-.635 3.96-2.028 4.19-4.9.105-1.28.136-2.566.277-3.844.048-.427.398-.785.917-.608 1.77.612 3.6.483 5.42.452 2.573-.043 5.148-.098 7.72-.233 1.055-.06 2.137-.22 3.15-.53 1.39-.425 2.49-1.336 2.924-2.77.707-2.353 1.493-4.698 1.374-7.22-.053-1.18-.01-2.363.066-3.538.11-1.683.306-1.836 1.902-1.83 2.25.003 4.505 0 6.756 0l.002-.065c2.464 0 4.928.008 7.392-.002.427 0 .867-.02 1.282-.113 1.342-.294 2.304-.974 2.717-2.406.33-1.15.537-2.29.555-3.478.037-2.466.064-4.933.107-7.4.008-.48.452-.88.835-.734 2.765 1.052 5.668 1.054 8.555 1.19 1.286.062 2.54.205 3.808.523 1.12.284 2.337.207 3.51.204.798 0 1.46-.458 1.88-1.1.688-1.07 1.375-2.162 1.883-3.324.768-1.755-.105-3.525-1.912-4.067zM36.19 18.1c.58.426.706 1.023.677 1.7-.025.642-.004 1.285-.004 1.928h.004c0 .858-.085 1.726.025 2.57.136 1.054.356 2.113.683 3.12.357 1.094 1.355 1.726 2.5 1.622.726-.068 1.462-.277 2.15-.54 1.236-.472 2.2-1.366 2.977-2.39 2.995-3.945 5.57-8.1 6.677-13.04.747-3.34.1-6.36-1.607-9.236-.347-.587-.834-.936-1.496-1.104-1.425-.368-2.723-.213-3.98.63-2 1.343-3.626 2.99-4.65 5.19-.274.583-.49 1.203-.838 1.734-.21.317-.61.66-.96.7-.775.088-1.5.203-2.03.807-.96 1.097-1.3 2.445-1.393 3.85-.075 1.04.435 1.845 1.264 2.457zm6.832-1.874c.02-.013.05-.02.078-.027l.096-.13c.028-.02.05-.046.077-.068-.235-2.32 1.04-4.117 2.158-5.96.077-.12.418-.2.548-.13.15.074.27.33.288.522.03.306.037.653-.075.93-.692 1.717-1.46 3.4-2.915 4.64.005.05 0 .1.008.152-.06.015-.122.026-.18.043-.054.07-.108.14-.16.21.024-.065.033-.155.08-.18z"/></svg>