<svg xmlns="http://www.w3.org/2000/svg" width="128" height="128" viewBox="0 0 128 128"><path d="M59.328 48.222c2.483.715 5.056.885 7.622 1.013 1.596.075 2.592-.81 3.163-2.253.512-1.29-.075-2.29-.856-3.217-.504-.597-1.197-.85-1.982-.937-1.704-.187-3.403-.407-5.096-.648-2.33-.333-4.663-.683-6.925-1.344-4.544-1.325-9.31-1.392-13.894-2.477-.956-.23-1.657.24-2.164 1.027-1.216 1.89-2.417 3.797-3.663 5.67-.196.293-.59.456-.894.68-.167-.272-.366-.53-.496-.816-.368-.803-.523-1.602-.094-2.467.23-.464.342-1.01.393-1.53.082-.875-.53-1.736-1.4-1.9-.614-.114-1.297-.156-1.89-.007-1.34.336-2.115 1.955-1.313 3.002.896 1.164.896 2.35.738 3.633-.032.257-.245.487-.378.73-.23-.212-.547-.385-.672-.647-1.342-2.79-3.078-5.383-4.213-8.277-.206-.525-.816-.942-1.252-.787-1.306.46-2.592.976-3.883 1.472-2.546 2.453-5.252 4.765-6.763 8.09-1.392 3.06-2.248 6.228-2.243 9.62.01 5.9-.045 11.8-.053 17.7 0 1.503.068 3.004.115 4.505.036 1.146.572 2.044 1.437 2.763 1.426 1.185 3.647.69 4.294-1.034.373-.994.565-2.04.463-3.15-.18-1.918-.268-3.845-.32-5.772-.054-1.93 0-3.86-.016-5.792-.028-3.555.558-7.04 1.312-10.492.27-1.242.83-2.425 1.312-3.613.105-.256.407-.54.668-.6.443-.107.4.346.44.614.406 2.647.908 5.284 1.164 7.944.35 3.622 1.037 7.217.944 10.88-.04 1.61.04 3.22.018 4.828-.098 7.297.256 14.578.59 21.86.02.43.013.865.075 1.286.82 5.412 1.14 10.863 1.18 16.33.002.43-.042.874.05 1.285.113.513.287 1.033.54 1.49.65 1.182 1.775 1.63 3.31 1.4 1.31-.2 2.373-1.226 2.5-2.563.092-.957.053-1.93.05-2.893-.027-6.974-.064-13.946-.09-20.917-.004-.858 0-1.717.085-2.57.027-.26.288-.623.53-.716.69-.266 1.413-.468 2.142-.6.727-.127 1.216.32 1.222 1.094.018 3.004 0 6.008.014 9.01.006 1.18-.156 2.412.117 3.53.6 2.436.41 4.897.555 7.348.107 1.81.384 3.62.71 5.408.128.71.514 1.41.928 2.02.707 1.046 2.215 1.437 3.47 1.022 1.077-.358 1.926-1.477 1.955-2.692.016-.638.028-1.314-.16-1.91-.56-1.78-.467-3.602-.518-5.422-.05-1.71-.158-3.42-.285-5.13-.085-1.168-.348-2.33-.352-3.498-.035-6.97-.02-13.938-.02-20.91h-.015c0-7.185.02-14.372-.013-21.557-.006-1.525.083-3.046.776-4.39.648-1.26 1.07-2.56 1.416-3.91.13-.515.317-1.023.523-1.514.237-.56.96-1.007 1.575-.89 1.156.217 2.293.527 3.445.767 1.566.33 3.13.81 4.712.9 1.84.102 3.6.416 5.357.922zm57.04-19.542c-.293-2.867-.093-5.786-.162-8.68-.043-1.826-.917-2.9-2.72-2.9-1.29 0-2.203-.694-3.294-1.06-1.245-.422-2.507.778-3.776.036-3.925-.557-7.845-1.105-11.836-.934-2.144.092-4.292.016-6.44.016l-.004-.1-10.923.525c-.466.02-.846-.288-.85-.736-.007-.964.055-1.933-.008-2.89-.092-1.377-1.25-2.576-2.57-2.27-1.47.337-2.746-.054-4.1-.29-.415-.07-.86-.048-1.28.006-.805.1-1.5.496-1.622 1.327-.235 1.576-1.08 3.033-.82 4.71.092.62-.33.947-1.008.963-1.824.045-3.648.098-5.472.078-3.44-.035-6.855.274-10.25.767-.61.09-1.243.354-1.748.704-1.092.758-.99 2.348.19 2.918.658.32 1.403.565 2.13.63 1.387.118 2.786.11 4.18.11 5.796.004 11.59.04 17.388-.027 4.18-.047 8.355-.12 12.538-.357 5.246-.3 10.515-.128 15.774-.14.533 0 1.067.095 1.595.183 1.812.3 3.597.405 5.403-.174.795-.255 1.693-.218 2.545-.25.623-.022.973.38.977 1.008.006.634-.094 1.285.02 1.9.336 1.82.32 3.65.06 5.452-.48 3.31-.358 6.635-.448 9.956-.05 1.958.208 3.872.82 5.7.353 1.045.55 2.052.51 3.136-.262 6.963-.52 13.93-.78 20.896-.005.107-.02.213-.044.318-.102.467-.386.763-.87.747-2.897-.082-5.776-.062-8.643.557-1.134.245-2.353.12-3.532.125-1.934.01-3.866-.032-5.798-.015-2.36.02-4.743-.107-7.076.174-4.064.49-8.133.472-12.206.59-5.358.156-10.717.395-16.075.576-.992.036-1.94.24-2.725.82-.384.29-.697.824-.798 1.302-.147.683.267 1.24.868 1.576.864.485 1.803.625 2.79.644 2.143.043 4.287.17 6.433.213.966.02 1.66.313 1.938 1.312.38 1.36 1.248 2.164 2.662 2.48.792.176 1.055.703 1.025 1.4-.117 2.783-.288 5.567-.322 8.353-.015 1.196-.45 1.998-1.372 2.714-2.622 2.04-5.214 4.125-7.79 6.23-1.577 1.29-3.14 2.602-4.64 3.982-1.433 1.324-1.532 3.022-.915 4.75.664 1.86 2.813 2.62 4.496 1.565.99-.62 1.863-1.438 2.738-2.223 3.036-2.72 6.04-5.476 9.072-8.2.916-.827 1.5-.812 2.565-.076 2.643 1.835 5.308 3.637 7.925 5.504 2.005 1.433 3.953 2.942 5.923 4.422.6.453 1.155.97 1.78 1.378 1.18.768 2.47.754 3.68.15 1.29-.642 1.742-1.817 1.657-3.226-.046-.78-.25-1.493-.82-2.04-.776-.738-1.53-1.52-2.39-2.148-2.514-1.824-5.082-3.576-7.613-5.378-.242-.174-.378-.498-.563-.753.27-.085.548-.264.81-.243 1.814.15 3.623.378 5.44.512 1.07.075 2.134.088 3.15.523.385.164.83.21 1.255.256 1.44.15 2.665-.538 3.136-1.727.54-1.368.142-2.89-1.088-3.706-.705-.467-1.49-.898-2.297-1.105-1.236-.32-2.524-.56-3.8-.602-3.856-.126-7.682-.79-11.557-.625-.97.043-1.403-.348-1.53-1.264-.28-2.013-.547-4.03-.77-6.05-.164-1.533.56-2.6 2.21-2.956 1.314-.284 2.122-.883 2.393-2.22.142-.705.634-1.07 1.376-1.11 2.995-.168 5.988-.427 8.987-.508 5.675-.154 11.375.245 17.003-.83.94-.18 1.9-.3 2.818-.56 1.644-.464 3.268-.99 4.884-1.537.866-.295 1.422-.844 1.425-1.89.005-1.82.02-3.653.2-5.465.492-5.013.972-10.037 1.004-15.07.047-7.284.324-14.578-.42-21.866zM71.24 15.597c-.077.156-.604.227-.85.136-.55-.205-.747-1.03-.498-1.933.045-.162.288-.267.437-.4.19.07.446.085.557.22.49.58.697 1.273.352 1.977zm-9.034 40.166c-.555.3-1.082.696-1.51 1.152-.756.806-.294 2.357.797 2.588.712.15 1.504.175 2.215.026 1.04-.22 2.044-.628 3.05-.983 3.154-1.118 6.038-2.768 8.842-4.555.924-.59 1.585-.826 2.533-.02 1.052.895 2.25 1.61 3.642 1.98 2.222.59 3.307.138 4.485-1.905 1.016-1.76 2.1-3.486 3.195-5.2.555-.865 1.312-1.115 2.22-.735.786.328 1.512.8 2.29 1.152.873.395 1.75.845 2.67 1.06 1.99.46 3.623-.566 4.193-2.497.09-.307.15-.625.22-.94.724-3.348 1.533-6.672 2.737-9.887.183-.494.23-1.04.288-1.3.015-1.895-1.167-3.1-2.812-3.163-1.48-.053-2.503.672-2.985 1.988-.736 2.005-1.333 4.064-1.98 6.1-.225.713-.39 1.444-.64 2.148-.098.28-.284.57-.717.41-.603-.223-1.222-.4-1.835-.6-1.728-.566-3.376-.36-4.97.48-1.552.813-2.857 1.866-3.748 3.417-.587 1.02-1.26 1.995-1.984 2.923-.21.27-.756.475-1.087.408-.5-.097-.955-.457-1.42-.72-.466-.262-.895-.606-1.386-.802-1.424-.565-2.738-.222-3.95.622-2.73 1.905-5.63 3.522-8.613 4.995-1.248.62-2.517 1.197-3.744 1.856zM22.81 26.277c1.268.456 1.64 1.55 2.01 2.692.632 1.955 1.637 3.692 3.062 5.21 1.178 1.252 2.648 1.742 4.462 2.006 1.222-.082 2.637-.31 3.47-1.592.69-1.062 1.222-2.244 1.7-3.424.32-.78.517-1.646.588-2.488.1-1.265.47-2.29 1.685-2.87.19-.09.363-.23.52-.372 1.18-1.077 1.427-2.645.723-4.096-.363-.742-1.017-1.07-1.68-1.408-.64-.328-.94-.836-.932-1.544.02-1.515-.2-2.983-.798-4.387-.62-1.45-1.626-2.724-3.086-3.078-3.093-.752-5.944-.65-8.068 2.835-.834 1.373-1.61 2.79-1.934 4.384-.243 1.2-.817 2-1.835 2.786-2.274 1.758-1.768 3.37-.136 5.152.07.075.158.16.254.192zm9.39-8.69c.384-.752.715-1.535 1.06-2.31.244-.546.43-.144.593.04.875 1.006 1.316 2.166 1.28 3.512-.026 1.062-.004 2.13-.004 2.462.147 3.302.05 5.853-1.03 8.245-.2.446-.627.806-1 1.15-.108.097-.43.052-.594-.038-.14-.078-.297-.364-.25-.478.366-.883.762-1.756 1.182-2.613.33-.676.227-1.268-.344-1.708-.6-.462-.786-1.015-.476-1.664.477-.996.18-1.76-.365-2.66-.747-1.234-.738-2.607-.053-3.943z"/></svg>