<svg xmlns="http://www.w3.org/2000/svg" width="128" height="128" viewBox="0 0 128 128"><path d="M96.86 27.046c-.176-3.424-.332-6.852-.536-10.275-.043-.737-.203-1.487-.424-2.195-.446-1.434-1.038-2.822-1.442-4.264-.333-1.202-1.158-1.806-2.24-2.04-1.483-.32-2.987-.424-4.323.57-.78.58-1.61 1.154-2.603 1.18-2.203.06-4.17.985-6.147 1.735-4.604 1.752-9.14 3.688-13.688 5.59-1.493.623-2.923 1.305-4.617.703-.475-.17-1.062-.038-1.598-.018-1.13.044-2.034-.083-2.578-1.368-.356-.845-1.632-.745-2.12.08-.373.627-.708 1.344-.81 2.055-.414 2.862-.818 5.73-1.036 8.61-.085 1.14.23 2.34.533 3.468.303 1.105 1.984 1.583 2.984.953.178-.113.373-.245.484-.416.912-1.412 2.398-1.26 3.755-1.305.998-.032 1.888 1.024 1.92 2.116.043 1.413.145 2.773 1.333 3.787.376.318.26.77.05 1.173-.502.945-1.025 1.886-1.503 2.844-.912 1.822-1.798 3.66-2.706 5.483-.3.604-.555.67-.956.213-.78-.88-1.53-1.792-2.292-2.688-.97-1.144-1.91-2.32-2.93-3.42-1.31-1.407-2.88-2.583-3.61-4.468-.17-.437-.945-.547-1.43-.32-.81.378-1.456.92-1.756 1.783-.244.706-.464 1.423-.657 2.146-.494 1.873-1.17 3.674-2.11 5.37-.3.545-.784.507-1.124-.095-.376-.65-.747-1.3-1.09-1.97-.314-.613-.283-1.23.064-1.84.476-.835.974-1.663 1.39-2.53.332-.682-.247-1.663-.972-1.68-.852-.017-1.716.003-2.565.097-2.17.235-2.61.966-1.824 2.923.042.095.05.218.114.296 1.26 1.54.64 2.957-.27 4.36-.116.18-.223.368-.334.55-.34.545-.623.575-.902.07-.415-.75-.85-1.494-1.21-2.273-.902-1.94-1.766-3.902-2.652-5.853-.347-.765-1.352-1.472-2.023-1.32-1.035.232-2.09.458-2.816 1.384-1.52 1.94-3.088 3.842-4.594 5.792-.983 1.273-1.91 2.59-2.835 3.906-2.036 2.89-4.066 5.786-6.07 8.704-.542.794-.843 1.692-1.03 2.67-.563 2.983-.62 5.94-.13 8.944.393 2.43.566 4.893.873 7.34.2 1.588.4 3.186.71 4.756.334 1.68 1.814 2.36 3.468 1.79 1.92-.666 3.033-1.955 3.29-3.958.097-.738.097-1.493.125-2.243.156-4.3-.216-8.576-.527-12.853-.114-1.6.19-2.968 1.135-4.213 1.744-2.306 3.504-4.6 5.265-6.893.06-.077.256-.157.27-.14.11.135.25.287.266.45.028.316.005.643-.036.96-.557 4.14-.976 8.294-1.18 12.473-.203 4.07-.535 8.13-.732 12.2-.08 1.605-.213 3.197-.56 4.755-1.29 5.747-2.528 11.505-3.97 17.214-1.29 5.086-2.817 10.114-4.94 14.934-.56 1.275-1.245 2.498-1.774 3.784-.85 2.066-.242 3.83 1.653 4.96.556.328 1.156.57 1.737.842.61.293 1.213.235 1.87.092 1.368-.296 2.312-1.187 3.06-2.22 1.314-1.825 2.598-3.687 3.688-5.65 2.927-5.26 5.296-10.77 7.106-16.515 1.164-3.697 2.9-7.15 4.554-10.636.36-.765.883-.783 1.46-.102.21.246.417.495.614.748 3.03 3.893 6.002 7.835 9.102 11.67 3.31 4.095 6.402 8.308 8.98 12.924 1.245 2.223 3.08 4.113 4.607 6.183 1.02 1.383 2.4 1.725 3.98 1.493.735-.107 1.44-.402 2.17-.565 1.444-.324 2.266-1.354 2.47-2.67.372-2.36.35-4.685-1.34-6.71-2.9-3.48-5.046-7.45-7.308-11.347-2.59-4.45-5.025-8.994-7.77-13.344-2.233-3.54-3.02-7.52-4.115-11.424-.06-.203-.068-.427-.064-.64.065-3.433-.09-6.89.282-10.29.317-2.89.41-5.77.518-8.658.032-.86.03-1.718.08-2.575.006-.126.194-.26.328-.347.046-.03.213.058.27.133.318.427.572.91.932 1.294 1.16 1.254 2.24 2.624 3.573 3.67 1.775 1.4 3.592 1.247 5.263-.265.608-.55 1.112-1.334 1.39-2.113 1.2-3.356 2.918-6.448 4.806-9.442 1.567-2.485 2.637-5.137 3.25-7.994.044-.206.095-.42.18-.607.174-.366.53-.403.79-.21 1.143.836 2.48 1.228 3.746 1.8 2.044.926 4.046 2.006 5.915 3.247 2.337 1.555 5.02 1.718 7.61 2.303.207.046.427.015.645.02 1.674.04 2.94-.64 3.54-2.24 1.397-3.702 3.03-7.355 2.575-11.486-.107-.955-.016-1.93-.016-2.896.036.004.074 0 .116 0zm-57.05 24.07l-.08-.537c.067.006.176-.006.197.03.048.082.085.197.064.283-.016.085-.115.15-.18.224zm42.78-21.83c-.002 1.606-.006 3.214-.07 4.82-.008.172-.41.383-.667.466-.098.032-.405-.224-.43-.38-.09-.52-.07-1.06-.132-1.585-.13-1.166-.284-2.328-.437-3.49-.03-.21-.083-.42-.15-.623-.473-1.408-1.917-1.743-2.994-.69-.22.216-.39.48-.585.726-.105-.3-.252-.592-.304-.9-.2-1.16-.38-2.324-.547-3.487-.098-.66-.378-1.212-.87-1.668-.494-.46-1.335-.48-1.692.087-.503.804-.99 1.648-1.3 2.54-.344 1.002-.484 2.075-.725 3.117-.023.094-.124.17-.19.252-.122-.096-.338-.18-.35-.288-.21-1.696-.396-3.395-.59-5.09-.065-.55-.236-1.046-.826-1.25-.583-.2-1.31.044-1.66.65-.318.546-.55 1.144-.77 1.738-.21.557.14 1.405-.59 1.643-.447.15-1.03-.197-1.556-.213-1.282-.043-2.568 0-3.85-.03-.64-.016-1.29-.066-1.916-.19-1.632-.316-2.065-.97-1.854-2.743.056-.465.33-.796.815-.817.746-.032 1.5-.01 2.245-.01v-.042c.644.03 1.32-.066 1.917.11 1.443.43 2.732.03 4.036-.494 4.562-1.835 9.125-3.67 13.698-5.483.688-.272 1.423-.43 2.146-.597.416-.098.837.356.72.79-.543 1.99-.502 4.03-.526 6.062-.028 2.353.013 4.71.006 7.067zm8.872 3.98c-.27 1.247-.48 2.51-.747 3.76-.036.18-.267.448-.405.446-.262-.002-.608-.094-.775-.28-1.216-1.357-1.46-3.06-1.536-4.78-.107-2.245-.127-4.494-.203-7.398 0-1.483-.092-3.627.032-5.76.084-1.48.436-2.948.732-4.41.078-.403.318-.797.567-1.134.32-.434.71-.74 1.35-.526.86.288 1.157.56 1.212 1.25.158 1.912.387 3.82.485 5.736.227 4.384.206 8.764-.72 13.093zm-58.568-10.61c1.596.58 1.9 1.86 2.155 3.274.172.945.41 1.89.736 2.79.365 1.004.81 1.985 1.32 2.92.515.94 1.417 1.316 2.46 1.165 1.265-.188 2.523-.437 3.77-.727.965-.224 1.77-.785 2.364-1.58.703-.942 1.292-1.935 1.7-3.075.99-2.776 1.36-5.61 1.116-8.535 0-1.393.117-2.8-.025-4.177-.254-2.464-.96-4.816-2.262-6.966-1.246-2.07-3.083-2.918-5.427-2.632-.6.073-1.276.334-1.716.73-2.037 1.833-3.518 4.033-4.045 6.78-.1.526-.13 1.066-.24 1.588-.185.873-.495 1.582-1.545 1.81-.928.2-1.4.98-1.458 1.91-.064.956-.05 1.923-.018 2.885.026.806.41 1.582 1.114 1.84zm7.434-9.38c.032-.156.277-.272.437-.385.176-.124.64.23.637.53-.006.835.03 1.684-.096 2.506-.112.722-.356 1.44-.656 2.11-.23.512-.245 1.202-.912 1.455-.08-.514-.162-1.03-.295-1.866.25-1.262.548-2.808.885-4.348zm76.356 11.165c-.834-.702-1.792-1.222-2.876-1.28-1.81-.092-3.627-.113-5.436-.04-.72.03-1.456.33-2.125.63-1.054.48-1.227 1.787-.442 2.71.5.586 1.084 1.03 1.862 1.15l5.05.76c.004-.044.013-.084.017-.126.96 0 1.923.053 2.877-.017.94-.067 1.71-.734 1.873-1.5.194-.917-.085-1.685-.8-2.287zm-5.84 17.42c-1.253-1.49-2.782-2.645-4.468-3.593-.358-.2-.798-.293-1.213-.352-1.562-.217-2.74 1.57-2.04 2.73.275.452.446 1.014.82 1.345 1.28 1.13 2.604 2.212 3.967 3.235.398.3.988.343 1.23.422 1.9.15 2.91-1.163 2.337-2.688-.146-.397-.367-.783-.636-1.104zm-7.326-29.18c2.073-.474 4.136-.993 6.19-1.55.5-.137.975-.43 1.41-.73 1.298-.895 1.205-2.34-.213-2.994-.565-.26-1.218-.33-1.722-.46-3.165.268-5.627 1.57-7.493 3.976-.358.466-.02 1.394.594 1.585.395.126.853.26 1.234.174z"/></svg>