<svg xmlns="http://www.w3.org/2000/svg" width="128" height="128" viewBox="0 0 128 128"><path d="M80.734 37.707c1.287-.05 2.577-.023 3.858-.128 1.13-.096 1.987-.93 2.18-2.045.392-2.234.497-4.418-.705-6.513-1.49-2.603-2.865-5.27-4.31-7.9-.255-.466-.618-.876-.94-1.302-1.233-1.617-2.52-3.2-3.7-4.854-1.24-1.745-2.354-3.582-3.577-5.344-1.042-1.5-3.416-1.72-4.395-.256-.97 1.457-2.31 2.524-3.376 3.85-1.886 2.334-3.67 4.748-5.51 7.118-1.58 2.035-2.79 4.34-4.348 6.357-1.465 1.89-2.054 3.96-2.496 6.157-.094.46.075 1.158.395 1.476.977.976 2.013 1.913 3.53 2.027.85.063 1.693.273 2.524.48 1.598.397 1.77.604 1.773 2.143.006 2.466-.017 4.935-.043 7.403-.008.643.036 1.312-.122 1.922-.576 2.217-.604 4.477-.472 6.72.15 2.544-.578 4.864-1.375 7.2-.132.395-.768.504-1.06.15-.543-.653-1.12-1.3-1.546-2.03-1.99-3.43-3.95-6.88-5.894-10.336-.58-1.027-1.112-2.08-1.624-3.14-.47-.97-.875-1.978-.723-3.09.135-.99-.353-1.66-1.09-2.17-1.146-.796-2.31-1.563-3.493-2.298-.914-.57-1.58-.448-2.216.463-1.103 1.583-2.13 3.22-3.21 4.817-.42.617-.877 1.21-1.355 1.78-.072.082-.495.038-.533-.047-.47-1.043-1.21-2.06-.318-3.264.392-.526.53-1.137.256-1.82-.59-1.478-2.034-2.145-3.37-1.462-1.472.75-1.995 2.397-1.003 3.473.97 1.048.885 2.1.55 3.267-.05.17-.266.362-.44.412-.13.035-.404-.098-.475-.23-1.475-2.72-3.077-5.377-4.245-8.257-.272-.674-.823-1.016-1.525-.86-1.667.374-3.33.75-4.55 2.14-.773.885-1.674 1.658-2.51 2.496-2.897 2.91-4.55 6.466-5.253 10.466-.37 2.105-.565 4.242-.813 6.368-.333 2.87-.653 5.743-.947 8.62-.412 4.015.624 7.858 1.48 11.716.11.51.363 1.012.646 1.46.72 1.12 1.803 1.454 3.077 1.253 1.166-.183 2.128-1.154 2.268-2.392.098-.847.068-1.71.066-2.57-.034-3.863-.066-7.725-.12-11.586-.042-3.016.22-6.003.847-8.95.405-1.883.96-3.737 1.913-5.437.053-.09.19-.235.203-.224.133.09.32.184.362.318.208.72.452 1.44.556 2.177.473 3.392.97 6.784 1.333 10.19.467 4.37.736 8.75.677 13.16-.068 5.04.027 10.087.11 15.13.023 1.6.264 3.198.345 4.8.068 1.283.206 2.596.024 3.854-.535 3.74-.34 7.493-.398 11.24-.016.96.18 1.92.256 2.883.16 2.048 1.393 3.253 3.118 4.154 1.073.562 2.03.48 3.045-.082 1.152-.644 1.64-1.694 1.73-2.912.09-1.173.042-2.36-.007-3.536-.162-3.96-.348-7.92-.525-11.883.062 0 .122-.003.184-.007 0-2.683-.003-5.363 0-8.048 0-.644-.017-1.29.05-1.93.03-.295.184-.628.384-.848.555-.607 2.624-.91 3.343-.458.64.403.483 1.134.487 1.758.015 1.824-.035 3.648.006 5.472.066 3.002.164 6.005.29 9.003.15 3.534.347 7.066.52 10.598.018.322-.005.644.028.965.133 1.266.986 2.144 2.26 2.35 2.415.394 5.057-2.064 4.573-4.506-.36-1.822-.307-3.62-.39-5.433-.08-1.824-.14-3.65-.26-5.467-.117-1.707-.384-3.405-.442-5.112-.092-2.787-.053-5.58-.085-8.37-.013-1.285.056-2.59-.117-3.855-.352-2.565-.28-5.135-.283-7.708 0-3.74.632-7.486-.112-11.22-.08-.413.005-.86.02-1.287.13-3.427.26-6.853.4-10.278.016-.32.09-.637.154-.952.02-.098.11-.264.155-.26.16.013.383.037.46.145.295.443.53.932.822 1.378 1.53 2.333 2.98 4.722 4.64 6.955.893 1.203 1.765 2.37 2.512 3.69C54.17 69.34 55.2 71.8 56.298 74.24c.832 1.853 1.77 3.664 2.78 5.425.45.78.71 1.525.705 2.41-.02 4.61.05 9.208.527 13.81.395 3.827.112 7.7.664 11.543.262 1.845.565 3.58 1.733 5.084.72.925 1.39 1.888 2.083 2.837 1.056.043 2.114.107 3.17.12 3.222.05 6.44.12 9.657.1 1.483-.01 2.756-1.157 2.737-2.606-.027-2.05.4-4.034.548-6.05.094-1.272-.043-2.567-.135-3.846-.09-1.28-.337-2.556-.358-3.835-.087-5.472-.143-10.944-.158-16.416-.032-11.805-.013-23.61-.06-35.412-.01-2.14-.234-4.277-.348-6.415-.043-.75-.068-1.5-.073-2.25 0-.62.36-1.012.964-1.036zM66.586 103.15c-.13-.376-.286-.743-.387-1.127-.057-.2 0-.424-.025-.64-.12-1.14.23-2.054 1.133-2.816 1.304-1.1 2.5-2.325 3.826-3.395 1.027-.832 1.664-2.173 3.13-2.437.112 1.266.22 2.533.264 3.044 0 1.827.027 2.894-.02 3.96-.012.224-.372.65-.445.625-2.15-.763-3.68.538-5.29 1.552-.45.286-.86.636-1.313.91-.264.16-.584.217-.875.32zm5.87-22.27c-.828-.304-1.7-.205-2.467.253-.823.49-1.593 1.07-2.4 1.585-.135.085-.44.128-.5.053-.123-.145-.208-.403-.17-.59.104-.507.13-1.142.45-1.48 2.14-2.236 4.346-4.412 6.54-6.6.225-.222.435-.137.438.155.01 1.28.004 2.56.004 4.36-.11 2.785-.242 6.092-.37 9.4-.02.563-.143 1.043-.78 1.212-1.933.507-3.416 1.707-4.808 3.072-.448.44-.973.804-1.475 1.185-.06.048-.218.025-.296-.02-.083-.052-.18-.172-.177-.257.064-1.17.128-2.34.97-3.278 1.14-1.275 2.292-2.535 3.412-3.828.692-.805 1.41-1.61 1.965-2.51.313-.51.422-1.212.41-1.824-.004-.31-.42-.768-.75-.888zm2.132 26.788c-.868.565-1.728 1.272-2.918 1.005-.514-.114-1.056-.114-1.85-.195-.16 0-.597.053-1.008-.016-.366-.064-.707-.262-1.06-.402.287-.3.545-.632.87-.88.503-.39 1.07-.694 1.575-1.084 1.257-.97 2.496-1.96 3.73-2.955.36-.283.87-.176.924.243.093.736.194 1.477.19 2.214-.01.715.29 1.587-.45 2.07zm3.744-74.662c-.533.03-1.07.046-1.6.114-1.088.144-1.404.555-1.394 1.752 0 .322 0 .645.03.964.677 6.635.313 13.286.32 19.93 0 1.706-.14 3.466-.59 5.097-.613 2.224-.543 4.448-.578 6.69-.013.75-.03 1.5-.092 2.247-.017.18-.224.5-.34.5-2.868-.014-4.558 2.128-6.63 3.572-.078.055-.234.083-.308.043s-.11-.184-.124-.288c-.208-1.55-.02-2.982 1.144-4.17.832-.846 1.536-1.782 1.862-2.96.2-.734-.153-1.298-.907-1.312-.424-.006-.853.103-1.28.098-.474-.006-.81-.285-.843-.765-.05-.747-.01-1.5-.046-2.25-.043-.908.25-1.68.82-2.373.61-.745 1.247-1.472 1.82-2.248.564-.773 1.14-1.56 1.556-2.418.207-.43.124-1.04.067-1.553-.047-.384-.89-.397-1.72.046-.56.3-1.046.736-1.586 1.073-.142.09-.44.107-.558.016-.128-.1-.184-.363-.178-.553.072-2.036.165-4.07.253-6.107.027 0 .05 0 .076-.002 0-1.607-.047-3.217.014-4.823.043-1.17.252-2.334.33-3.504.137-1.924.244-3.85.334-5.776.068-1.472-.614-2.443-2.033-2.89-.714-.228-1.423-.47-2.122-.735-.46-.174-.574-.61-.3-1.054.28-.457.564-.91.878-1.345 2.32-3.215 4.645-6.42 6.97-9.632.065-.087.126-.175.19-.26.52-.695 1.063-.757 1.562-.145.405.5.775 1.027 1.158 1.542.768 1.03 1.496 2.094 2.32 3.08.764.913 1.35 1.888 1.84 2.987.646 1.46 1.608 2.778 2.335 4.207.33.646.475 1.404.6 2.128.078.453-.22.87-.685.93-.85.102-1.712.1-2.567.15zm38.602 18.922c-3.588-3.98-7.138-7.996-10.707-11.997-.424-.48-.843-.976-1.312-1.41-1.316-1.204-2.733-1.3-4.05-.186-1.39 1.17-2.773 2.362-4.032 3.666-3.202 3.314-6.344 6.692-9.493 10.06-.437.468-.82.99-1.175 1.526-.8 1.224-.645 2.42.155 3.6.654.964 1.585 1.426 2.69 1.555.85.1 1.713.098 2.565.18.46.048.827.304.832.808.007.853-.014 1.71-.075 2.562-.075.957-.29 1.91-.296 2.868-.032 4.505-.073 9.01.004 13.515.064 3.53.39 7.06.43 10.596.084 7.507.057 15.017.08 22.526.004.964.025 1.93.08 2.893.042.74.47 1.18 1.24 1.204 2.895.1 5.79.166 8.345.237 3.237 0 6.13.018 9.03-.01.807-.007 1.15-.38 1.135-1.216-.027-1.49.224-2.99-.3-4.466-.204-.58-.133-1.264-.17-1.903-.216-3.744-.245-7.49-.44-11.236-.33-6.313-.943-12.614-.833-18.953.082-4.61-.082-9.225-.128-13.838-.015-1.503-.01-3.005.017-4.508.015-.806.37-1.125 1.195-1.146 1.496-.04 3-.017 4.497-.117.916-.065 1.54-.818 1.58-1.74.025-.637-.203-1.344.002-1.9.485-1.33-.02-2.236-.87-3.177zm-10.892 53.366c-.435 1.104-1.632 1.902-2.485 2.845-.356.396-.688.815-1.024 1.23-.39.48-.333 1.38-1.06 1.495-.83.128-1.7.07-2.54-.013-.198-.02-.52-.48-.498-.708.156-1.61.46-3.15 2.098-4.032 1.042-.56 1.984-1.27 2.472-2.42.175-.412.277-.797-.068-1.17-.32-.35-.728-.46-1.16-.312-.806.275-1.6.594-2.404.88-.437.157-.82-.124-.86-.613-.012-.107-.022-.213-.028-.32-.168-3.465-.158-3.45 2.544-5.573.92-.725 1.753-1.56 2.663-2.3.717-.58 1.07-1.617 2.16-1.736.085.95.216 1.893.25 2.846.043 1.173.013 2.352.013 3.528h.083c0 .856.007 1.71-.003 2.566-.014 1.282.288 2.694-.156 3.808zm.004-31.94c-.02.267-.273.69-.49.74-2.564.587-4.137 2.55-5.937 4.196-.075.066-.24.144-.288.11-.15-.11-.275-.26-.38-.418-.052-.082-.063-.208-.055-.31.102-1.592.213-3.182.32-4.772 1.214-1.035 2.403-2.1 3.65-3.09.748-.598 1.59-1.078 2.392-1.604.515-.34.855-.203.872.352.027.745.008 1.493.008 2.24h-.072c0 .853.04 1.707-.023 2.556zM99.578 92.85c.2-.17.43-.304.65-.448.005-.05.007-.1.015-.146.036.01.06.003.096.007.04-.34.186-.582.59-.58l.002-.026.02-.013c-.093-.582.25-.978.61-1.36.727-.78 1.486-1.533 2.194-2.33.35-.394.68-.83.91-1.304.24-.494.234-1.052-.195-1.477-.42-.42-.97-.527-1.455-.19-.956.663-1.865 1.4-2.795 2.105-.252.188-.498.398-.78.523-.093.04-.423-.17-.422-.257.018-.617-.145-1.453.19-1.81 2.03-2.18 4.174-4.252 6.29-6.35.216-.216.416-.128.452.164.05.42.113.843.113 1.263.004 2.132-.098 4.27.01 6.4.074 1.402-.334 2.073-1.763 2.43-.853.212-1.536 1.087-2.313 1.637-.322.224-.693.373-1.045.555.002.014 0 .023 0 .034-.01 0-.015.004-.023.004.004.427-.183.636-.595.58-.003.028-.01.05-.014.08l-.093.06c-.02.264-.006.55-.14.726-.287.38-.652.747-1.066.975-.46.254-.156-.643.556-1.25zm12.917-37.975c-.963.064-1.93.068-2.89.186-1.157.14-1.934.76-2.297 1.938-.512 1.666-.594 3.367-.627 5.088-.01.64-.02 1.293-.147 1.917-.04.21-.43.405-.697.49-.163.054-.397-.116-.622-.19-1.086-.52-2.088-.083-3.05.39-.865.422-1.67.957-2.52 1.408-.092.05-.422-.11-.437-.204-.083-.523-.125-1.058-.135-1.59-.036-1.607-.016-3.22-.09-4.826-.038-.737-.112-1.526-.4-2.19-.884-2.043-2.032-3.832-4.7-3.596-.17.016-.468-.157-.507-.294-.043-.158.096-.42.235-.563.97-1.003 1.977-1.97 2.94-2.98 1.108-1.163 2.154-2.387 3.287-3.526.904-.907 1.9-1.722 2.852-2.584.383-.346.76-.34 1.1.034 2.798 3.103 5.598 6.21 8.384 9.33.277.316.464.717.683 1.085.168.277-.027.656-.357.678zm-87.36-27.958c1.488.517 1.653 1.818 2.155 2.97.512 1.173 1.032 2.357 1.707 3.44.853 1.372 1.958 2.553 3.52 3.168 2.438.962 5.444.527 6.626-2.58.527-1.39 1.035-2.83 1.222-4.29.186-1.415.698-2.4 1.954-3.06 1.063-.554 1.42-1.535 1.36-2.893.14-1.117-.35-2.148-1.557-2.688-.953-.424-1.202-1.117-1.17-2.044.014-.32.04-.66-.05-.958-.4-1.323-.643-2.74-1.3-3.93-1.874-3.386-7.4-3.94-10.086-.368-.95 1.266-1.856 2.703-2.26 4.203-.49 1.806-1.036 3.307-2.718 4.38-1.09.692-1.168 1.983-.543 3.167.293.555.645 1.312 1.14 1.485zm9.167-7.962c.467-.953 1-1.873 1.52-2.8.163-.29.492-.202.697.155.766 1.318 1.123 2.752 1.19 4.258.036.85.005 1.704.005 2.477.18 2.57-.405 4.94-1.18 7.27-.127.386-.36.778-.65 1.06-.192.187-.61.303-.85.22-.175-.06-.362-.544-.293-.755.196-.602.525-1.16.8-1.74.49-1.037.736-2.01-.533-2.735-.165-.093-.255-.6-.16-.82.566-1.292.476-2.355-.445-3.547-.627-.808-.608-2.02-.107-3.042z"/></svg>