<svg xmlns="http://www.w3.org/2000/svg" width="128" height="128" viewBox="0 0 128 128"><path d="M81.77 75.433c.047-.533.028-1.072.03-1.61.035-6.545-.003-13.09.13-19.635.065-3.336-.937-6.298-2.365-9.23-1.337-2.748-3.467-4.58-6.112-5.928-.678-.344-1.195-.256-1.69.397-.58.768-1.08 1.597-1.628 2.386-.793 1.138-1.59 2.275-2.413 3.392-.07.096-.496.083-.5.056-.317-1.193-1.244-2.31-.425-3.65.275-.45.444-.976.622-1.482.2-.576-.294-1.355-.95-1.423-.74-.077-1.497-.128-2.24-.075-1.354.095-1.844 1.036-1.19 2.18.16.28.345.547.54.803.784 1.035.505 1.98-.2 2.914-.29.378-.81.395-1.03-.032-1.03-1.992-2.055-3.99-3.044-6-.483-.982-.796-1.228-1.666-.934-.906.31-1.964.497-2.644 1.093-2.333 2.045-4.672 4.117-6.082 6.99-1.195 2.44-1.973 4.98-2.016 7.713-.04 2.574-.064 5.15-.064 7.723 0 3.756.015 7.51.048 11.266.008.747.034 1.513.197 2.236.297 1.353 1.555 2.206 2.86 2.05 1.204-.144 2.11-1.078 2.222-2.377.064-.747.026-1.5.02-2.25-.02-3.756-.066-7.512-.068-11.268-.002-3.355.658-6.603 1.72-9.766.193-.576.662-1.054 1.004-1.58.83.29.447 1.036.53 1.564.32 2.008.495 4.038.826 6.045.825 4.985 1.17 9.994 1.088 15.044-.06 3.54.075 7.083.025 10.624-.057 3.98.468 7.92.847 11.86.213 2.245.42 4.476.448 6.727.017 1.394.043 2.788.102 4.18.023.53.094 1.073.252 1.574.445 1.407 1.488 2.066 2.945 1.934 1.34-.12 2.37-1.125 2.484-2.517.07-.853.02-1.714.02-2.573-.028-5.902-.06-11.804-.086-17.704-.002-.752.01-1.503.035-2.252.02-.613.395-1.003.94-1.163.5-.15 1.037-.226 1.562-.25.488-.02.775.303.852.774.05.313.09.64.068.956-.39 5.694.523 11.34.632 17.02.035 1.9.245 3.86 1.116 5.635.552 1.124 1.608 1.586 2.976 1.356 1.154-.192 2.135-1.276 2.175-2.45.01-.424.02-.885-.12-1.272-.604-1.662-.46-3.383-.514-5.094-.05-1.492-.153-2.99-.27-4.483-.08-1.062-.316-2.12-.32-3.18-.033-6.114-.02-12.228-.02-18.343h-.14c0-3.112-.016-6.222.007-9.333.027-3.537.077-7.08.15-10.62.017-.86.217-1.696.82-2.375.98.323.926 1.263 1.203 2.01.825 2.236 1.21 4.524 1.147 6.924-.114 4.61-.11 9.226-.144 13.84-.006.75-.013 1.505.075 2.247.123 1.035.868 1.74 1.888 1.91 1.825.295 3.174-.737 3.333-2.576zm35.115-14.23c-.256-.512-1.2-.794-1.72-.54-.766.372-1.516.796-2.203 1.29-.606.435-1.11 1.01-1.677 1.5-.355.304-.79.398-1.116-.006-1.104-1.376-2.173-2.778-3.255-4.17-.478-.182-1.016-.29-1.408-.583-1.026-.773-2.23-.686-3.385-.834-.48-.06-1.053.467-1.088.988-.117 1.93-.016 3.84.402 5.745.656 2.994 2.126 5.6 3.75 8.13.842 1.312 1.317 3.008 3.227 3.317.31.05.28.272.01.443-.902.572-1.79 1.17-2.69 1.745-.307.194-.626.134-.753-.21-.223-.6-.333-1.25-.577-1.84-.612-1.483-1.22-2.965-1.935-4.4-.378-.754-.933-1.436-1.48-2.09-.772-.928-1.827-1.064-2.936-.823-1.013.22-1.265 1.027-1.37 1.933-.05.42-.16.84-.305 1.237-.806 2.225-.64 4.41.203 6.58.427 1.098.828 2.205 1.216 3.315 1.096 3.127 2.973 4.527 6.202 4.523 1.284-.002 2.595.008 3.85-.218 3.935-.713 6.99-2.632 8.44-6.57.55-1.494.096-2.446-1.347-3.094-1.423-.64-2.923-.59-4.42-.666-.205-.01-.41-.102-.61-.156.132-.09.26-.25.4-.267 1.467-.15 2.57-1.055 3.7-1.844 1.332-.936 2.413-2.163 2.95-3.733.696-2.048 1.075-4.17.812-6.33-.1-.815-.51-1.61-.89-2.365zm-10.752 2.47c-.093.225-.41.39-.66.496-.08.03-.353-.188-.402-.335-.092-.284-.13-.6-.105-.896.014-.13.245-.24.378-.36.42.05.95.707.79 1.09zm4.7 8.39c-.264.163-.57.332-.866.35-.275.02-.653-.074-.817-.266-.16-.188-.235-.623-.125-.83.124-.223.504-.308.775-.456.33.098.644.146.915.285.168.085.34.29.38.47.027.127-.126.364-.26.447zm2.813-2.657l-.144-.213.38-.02c-.113.112-.173.173-.236.234zm-8.657 18.882c-2.257-.91-4.615-.878-6.978-.672-.95.08-1.89.264-2.835.402-.764-.956-.176-2.066-.344-3.09-.14-.848-.092-1.727-.27-2.56-.224-1.04-.533-2.073-.922-3.062-.314-.804-1.482-1.127-2.196-.66-.718.468-1.403.99-2.064 1.535-2.113 1.744-3.16 3.996-3.2 6.737-.036 2.264.095 4.523.705 6.7.507 1.798 1.454 3.316 3.525 3.78.825.187 1.64.536 2.38.956 1.183.676 2.444.808 3.736.674 1.383-.143 2.775-.32 4.125-.64 1.47-.352 2.84-.964 3.837-2.205.62-.772.69-1.437-.192-2.145-.712-.572-.646-1.184-.565-1.865l-.074-.046c-.034-.075-.064-.153-.11-.22l-.16-.102c.05.027.12.04.15.08.005.006.006.015.01.02.068.044.132.086.198.127l-.016.14c.248.154.487.33.757.432 1.362.516 2.406-.19 2.38-1.578-.033-1.323-.662-2.242-1.876-2.734zm-13.58-.727c-.033.17-.24.304-.366.454-.08-.19-.173-.378-.24-.573-.032-.095-.018-.21-.04-.6.096-.343.26-.946.448-1.54.016-.053.196-.09.288-.07.084.017.22.128.214.18-.085.72-.17 1.44-.305 2.15zm3.03 8.215c-.065.01-.15-.112-.226-.174.17-.06.338-.116.508-.18l.227.183c-.17.06-.336.144-.51.17zm-74.3-18.15c.932.15 1.806.345 2.49 1.23.63.817 1.678.863 2.646.413.478-.224 1.01-.424 1.382-.78 1.696-1.623 3.424-3.23 4.988-4.977 1.312-1.46 2.08-3.296 2.096-5.264.013-1.795-.258-3.605-.52-5.39-.142-.946-1.465-1.485-2.332-.988-.64.367-1.232.847-1.756 1.37-1.662 1.666-3.275 3.377-4.917 5.065-.5.514-.81.542-1.376.14-1.214-.87-2.396-1.796-3.65-2.61-1.264-.826-2.66-1.354-4.36-1.396-.273.02-.705.013-1.123.09s-.823.222-1.227.366c-1.246.444-1.627 1.09-1.548 2.443.077 1.326.7 2.458 1.22 3.624 1.57 3.52 3.992 6.026 7.984 6.67zm10.12-10.47c.135-.01.402.22.415.358.117 1.316-.465 2.407-1.195 3.44-.055.082-.158.13-.24.196-.054-.087-.135-.165-.156-.258-.152-.704-.325-1.403-.427-2.115-.078-.555.93-1.574 1.604-1.624zM26.1 71.55c.015-.168.204-.358.364-.478.416-.316.495.11.63.34.103.175.112.41.225.577.686 1.022.275 1.363-.52 2.08-.154.132-.365.2-.548.297-.087-.235-.243-.465-.245-.7 0-.302.12-.605.157-.773-.035-.54-.098-.946-.064-1.344zm-8.628-2.16c.027-.095.132-.255.168-.244.196.05.44.093.558.23.188.216.44.538.398.763-.096.494-.338.97-.57 1.427-.06.122-.29.168-.452.22-.02.006-.128-.163-.145-.26-.068-.408-.114-.818-.166-1.228.07-.315.128-.615.208-.91zm-2.917-.707l-.408-.68c.245-.12.48-.27.738-.34.056-.014.192.26.333.465-.226.192-.446.373-.663.557zm42.517-40.317c1.105.484 1.46 1.453 1.78 2.492.444 1.444 1.187 2.74 2.122 3.923.974 1.234 2.253 1.943 3.804 2.154 1.475.2 2.723-.205 3.71-1.373 1.005-1.194 1.443-2.623 1.655-4.106.22-1.534.647-2.734 2.037-3.75 1.707-1.247 1.472-3.193-.196-4.586-.08-.067-.18-.114-.275-.163-.627-.33-.866-.853-.95-1.547-.13-1.05-.268-2.123-.59-3.125-.835-2.622-2.223-3.573-5.284-3.595-1.755-.24-3.28.695-4.326 2.313-.8 1.24-1.546 2.6-1.915 4.01-.322 1.234-.805 2.156-1.858 2.813-.09.055-.16.14-.237.215-1.37 1.42-1.175 2.127-.16 3.667.17.26.407.54.683.66zm8.587-8.347c.24-.345.46-.706.71-1.044.187-.245.33-.188.5.06.494.716.824 1.485.83 2.367.008 1.168 0 2.336 0 3.505.116 2.128.116 4.26-.737 6.27-.156.364-.45.688-.74.966-.115.11-.425.11-.592.038-.14-.062-.322-.348-.28-.456.266-.69.64-1.344.874-2.046.124-.378.218-1.035.02-1.205-.976-.838-.716-1.797-.54-2.822.065-.373-.104-.857-.315-1.197-.97-1.56-.734-3.014.266-4.44zM29.745 91.915c1.277-.208 2.416-.79 3.4-1.702 2.475-2.29 3.858-5.102 4.128-8.446.113-1.388.1-2.785.126-4.178.01-.427-.012-.86-.065-1.283-.136-1.087-.966-1.758-2-1.61-.42.062-.84.166-1.235.318-1.45.555-2.522 1.61-3.488 2.767-2.95 3.524-2.94 3.53-7.714 3.354-.535-.022-1.072-.004-1.607-.004v-.043c-.96 0-1.926-.004-2.89.002-1.127.007-2.078.48-2.92 1.175-.95.78-1.218 1.73-.74 2.85.287.68.61 1.396 1.102 1.93 3.756 4.096 8.406 5.766 13.91 4.866zm.723-6.432c.026-.14.32-.274.515-.325.88-.238 1.158-.835 1.13-1.686-.02-.64.006-1.284.057-1.924.06-.788.472-1.41 1.056-1.914.152-.13.383-.262.56-.24.12.017.247.288.293.466.05.2.01.424.01.25.066 2.516-.785 4.343-1.89 6.08-.377.592-1.102.677-1.622.134-.162-.17-.16-.57-.11-.843zm-4.577.07c-.192-.1-.437-.21-.658-.356-.053-.036-.07-.25-.032-.278.132-.093.368-.24.437-.19.23.16.4.402.594.612-.085.053-.17.107-.338.21zm-8.97-24.845c1.924.65 3.836 1.34 5.74 2.045.577.213 1.07.056 1.528-.21 4.833-2.832 8.108-6.645 8.05-12.66-.21-1.263-.376-2.53-.643-3.78-.17-.794-.872-1.213-1.69-1.17-.67.035-1.27.245-1.7.78-.74.916-1.457 1.853-2.193 2.777-1.337 1.675-2.66 3.363-4.03 5.013-1.233 1.49-1.573 1.525-2.666.096-1.907-2.49-4.204-4.564-6.606-6.544-.893-.736-1.884-.59-2.37.437-.317.663-.534 1.402-.638 2.13-.313 2.128.576 3.973 1.455 5.828 1.21 2.555 3.063 4.35 5.763 5.26zm5.717-2.886c.086-.284.327-.533.534-.766 1.47-1.662 2.944-3.316 4.43-4.96.107-.12.326-.154.5-.185.038-.008.11.162.25.384-.122.496-.165 1.15-.443 1.687-1.033 2.013-2.507 3.646-4.467 4.804-.226.135-.59.43-.76-.06-.097-.276-.127-.628-.042-.906zm17.546 44.064c1.788-.255 2.79-1.45 3.648-2.866 1.156-1.91 1.437-4.01 1.38-5.838.067-2.51.03-4.644-1.176-6.57-.456-.73-.78-1.596-1.8-1.646-1.205-.056-1.585.902-2.014 1.774-.85 1.73-1.703 3.462-2.562 5.19-.318.64-.837.918-1.563.884-1.933-.088-3.874-.192-5.714.57-1.58.65-3.168 1.29-4.704 2.033-1.26.61-1.408 1.312-.757 2.632 1.083 2.18 2.933 3.665 4.75 5.16.443.362 1.194.48 1.808.494 2.475.053 4.926-.1 7.193-1.283.47-.245.992-.46 1.51-.533zm1.97-10.835c.053.175.125.348.144.525.008.066-.114.145-.177.218-.053-.078-.164-.164-.154-.227.033-.177.12-.346.185-.516zm-3.47 7.02c.12-.246.348-.47.586-.618.085-.053.326.144.58.27-.17.243-.3.51-.506.69-.19.165-.755-.154-.66-.342zM50.64 95.55c-.596-.372-1.333-.34-1.733.18-1.64 2.135-3.164 4.325-3.264 7.164-.014.32-.064.64-.122.954-.174.936-.687 1.26-1.58 1.064-1.342-.288-2.692-.547-3.486-.706-1.34.09-2.1.06-2.827.207-1.254.256-2.507.57-3.492 1.483-1.138 1.052-1.3 2.165-.388 3.364.512.675 1.016 1.498 1.725 1.856 3.296 1.67 6.718 2.754 10.382 1.106.53-.24 1-.31 1.513-.04 1.323.693 2.376.07 3.056-.928 1.08-1.576 2.093-3.238 2.856-4.987 1.023-2.345.817-4.818.02-7.212-.48-1.446-1.33-2.67-2.66-3.506zm46.302 6.23c-1.024-.323-2.037-.627-3.14-.597-1.823.05-3.647.038-5.47.032-1.046-.004-1.2-.136-1.447-1.278-.75-3.462-1.683-6.867-3.098-10.12-.294-.68-.645-1.356-1.093-1.938-.62-.8-2.053-.463-2.315.534-.13.493-.067 1.035-.094 1.555-.035.626.09 1.32-.14 1.87-1.167 2.844-.71 5.71-.106 8.54.332 1.55.897 3.152 2.49 3.96.885.45 1.212 1.05 1.205 2.035-.005.966.646 1.58 1.59 1.743 1.58.276 3.17.488 4.754.726 2.684.015 5.06-.973 7.36-2.146 1.02-.518 1.67-1.45 1.504-2.624-.158-1.126-.86-1.937-2.005-2.296zm17.085-41.687c3.947-3.098 5.434-8.975 3.458-13.615-.288-.672-1.19-1.07-1.89-.747-.47.22-.987.498-1.287.897-.708.93-1.298 1.95-1.934 2.932-.358.554-.75.62-1.265.142-1.745-1.61-3.62-2.99-5.968-3.61-1.798-.478-3.454.92-3.253 2.81.07.632.364 1.245.39 1.873.092 2.138 1.093 3.885 2.293 5.54.72.995 1.53 1.923 2.304 2.88 1.372.5 2.912.484 4.198 1.23 1.112.643 2.048.377 2.95-.334zm1.602-9.657l-.028.17-.13-.106.158-.064zm-1.367 2.06c.147-.272.39-.492.593-.735.064.08.128.16.243.31-.12.235-.23.517-.4.76-.087.12-.28.165-.426.243-.01-.196-.09-.43-.01-.58zm-.783 2.435c.06-.25.297-.455.46-.68l.678.593c-.32.367-.56.658-.82.933-.04.043-.222.023-.225.015-.045-.287-.154-.594-.09-.86zm-6.6 4.264l-.04-.013.073.093.046.016c-.028-.03-.055-.064-.08-.096zm-86.794-10.55c.272.666.813 1.06 1.48 1.02.722-.043 1.54-.14 2.118-.512.974-.63 1.786-1.466 2.336-2.568 1.07-2.144 1.775-4.34 1.775-6.787-.216-1.58-.516-3.155-.627-4.74-.16-2.307-1.28-4.012-3.005-5.425-.747-.613-1.323-.708-1.98-.117-4.267 3.832-6.125 8.66-4.032 14.4.58 1.6 1.287 3.155 1.935 4.73zm3.478-9.192l.073.21-.2-.03.127-.18zm80.124 2.216c1.1 3.043 3.255 4.645 6.5 4.86 1.272.084 2.144-.302 2.384-1.473.213-1.042.25-2.118.365-3.18.31-4.507-3.637-11.436-8.085-13.374-.62-.266-1.243-.063-1.61.564-.564.956-.806 1.992-.73 3.083.185 2.56.383 5.122.636 7.677.064.627.32 1.244.538 1.845zm4.123-5.912c.085.06.21.105.244.186.19.445.683.81.398 1.387-.042.083-.142.186-.226.195-.158.018-.463-.01-.47-.048-.06-.496-.084-1-.098-1.5-.002-.075.1-.147.156-.22zm-1.864-2.792l.075.213-.185-.02.112-.195z"/></svg>