<svg xmlns="http://www.w3.org/2000/svg" width="128" height="128" viewBox="0 0 128 128"><path d="M116.8 62.656c-.082-4.917.045-9.837-.48-14.755-.336-3.14-1.58-5.712-3.38-8.163-1.708-2.325-4.074-3.392-6.846-3.676-1.17-.12-2.354-.08-3.53-.116-.857-.026-1.743.072-2.56-.113-1.29-.29-2.52-.323-3.803 0-.78.198-1.146-.146-1.22-1.026-.1-1.173-.204-2.35-.205-3.525 0-2.998.06-5.996.085-8.995.01-.962.09-1.937-.033-2.885-.21-1.676-1.355-2.64-3.044-2.685-.856-.023-1.713.038-2.57.043-2.998.02-5.997.043-8.995.036-.85-.002-1.19-.354-1.19-1.15 0-.64-.033-1.3.102-1.917.224-1.01-.092-1.917-.37-2.83-.343-1.133-1.137-1.743-2.346-1.867-1.163-.117-2.31-.367-3.475-.49-2.23-.236-4.465-.442-6.7-.627-3.12-.26-6.198.294-9.26.72-2.15.298-4.23.453-6.363-.02-.712-.157-1.495-.12-2.224-.02-.974.14-1.64 1.18-1.468 2.146.075.416.272.82.32 1.237.312 2.7.47 3.122-2.38 3.046-.528-.015-1.06.1-1.594.142-2.986.232-5.97.473-8.942-.228-.822-.192-1.704-.192-2.557-.184-1.244.01-2.275.907-2.45 2.112-.09.63-.08 1.28-.08 1.92-.01 2.357-.016 4.715-.005 7.07.018 3 .07 5.994.96 8.903.17.564-.195 1.027-.815 1.055-1.818.077-3.636.16-5.455.177-1.968.02-3.79.544-5.56 1.363-3.498 1.62-5.503 5.06-4.94 8.81.145.972.164 1.87.02 2.836-.155 1.05-.135 2.133-.135 3.204-.005 8.995.056 17.99-.02 26.987-.025 2.7.357 5.33.703 7.978.192 1.49 1.133 2.303 2.498 2.553.93.17 1.954.236 2.863.028 2.756-.632 5.536-.483 8.314-.472 1.23.004 1.54.34 1.564 1.493.033 1.5.005 3 .05 4.5.05 1.494.12 2.995.244 4.487.134 1.595.386 3.18.515 4.78.246 3.09.417 6.19.68 9.28.08.953.306 1.9.547 2.826.58 2.226 2.13 3.296 4.456 3.2 1.605-.064 3.213-.075 4.818-.094 4.176-.05 8.353-.1 12.53-.14 1.82-.017 3.636-.003 5.456-.003v-.006h3.855c4.39.01 8.78.024 13.17.033 1.605.003 3.214.04 4.818-.003 1.574-.04 3.227.24 4.567-.99.2-.184.606-.16.922-.202 3.485-.485 6.168-2.285 8.248-5.05.643-.857 1.173-1.8 1.85-2.623 1.253-1.515 1.61-3.257 1.324-5.12-.73-4.783-.374-9.62-.75-14.42-.044-.56.404-.974 1.02-1 .425-.018.854-.02 1.28.003 2.136.128 4.27.254 6.404.41.96.067 1.948.076 2.863.33 2.34.65 4.42.085 6.432-1.094.884-.518 1.394-1.213 1.7-2.206.547-1.78.53-3.597.54-5.408.044-6.54.14-13.074.033-19.602zM52.358 12.224c2.56.016 5.09-.358 7.63-.555 3.495-.27 7.028-.16 10.54-.05 1.576.047 3.15.45 4.702.785.32.07.585.533.814.86.11.154.096.41.1.62.047 2.938.226 2.948-2.622 2.927-1.173-.01-2.344 0-3.518 0-2.765-.114-5.52-.165-8.272-.623-2.62-.436-5.294-.545-7.94-.8-.532-.054-1.062-.105-1.586-.196-.742-.128-1.01-.474-1.1-1.326-.13-1.252.135-1.652 1.252-1.646zm-17.288 7.05l8.677-.003c2.25 0 4.504-.05 6.752.02 1.38.044 2.753.273 4.132.42.107.01.21.07.313.07 3.11.01 6.172.556 9.252.876 8.12.845 16.262.422 24.395.512.32.004.643 0 .96.037.483.06.78.354.77.845-.03 1.82.088 3.663-.16 5.455-.346 2.482-.14 4.907.2 7.35.11.788-.25 1.204-1.07 1.188-2.57-.046-5.14-.06-7.705-.23-5.028-.333-10.048-.378-15.075.014-.747.058-1.498.093-2.246.096-8.25.02-16.5.043-24.75.043-1.5 0-2.998-.096-4.496-.177-.522-.03-1.012-.543-1.034-1.058-.064-1.39-.112-2.784-.13-4.177-.047-3.322-.084-6.643-.097-9.965 0-1.07.28-1.316 1.31-1.316zM90.888 110.8c-1.035 1.54-2.34 2.76-4.1 3.445-.42.16-.944-.083-.956-.49-.027-.854-.013-1.708-.032-2.56-.053-2.212.49-1.878 2.067-1.57l.627.134c.638.035 1.28.063 1.917.116.45.037.717.573.48.923zm1.26-23.126c-.556 2.432-.362 4.896-.367 7.352-.006 2.89.05 5.78.055 8.67 0 1.377-.333 1.727-1.742 1.592-1.158-.113-2.304-.398-3.443-.672-.724-.17-1.41-.508-2.128-.693-1.74-.447-3.23.677-3.264 2.486-.03 1.602.043 3.21.04 4.813 0 .747-.02 1.5-.117 2.24-.17 1.312-.546 1.632-1.857 1.664-.964.02-1.927.004-2.89.004H62.95l-.003-.095c-4.92.094-9.84.178-14.76.288-3.1.07-6.196.206-9.293.256-1.32.02-1.643-.374-1.693-1.756-.014-.426 0-.857-.005-1.283-.02-1.605.053-3.22-.083-4.814-.27-3.192-.597-6.38-1-9.56-.517-4.057-.36-8.11-.137-12.17.066-1.17.256-2.336.395-3.503.19-1.616.43-1.89 1.91-2.017 4.684-.405 9.363-.923 14.057-1.155 4.27-.21 8.587-.45 12.832-.07 8.12.735 16.244.416 24.367.567.533.008 1.07-.002 1.6.06.46.052.904.37.835.81-.288 1.82-.216 3.602.216 5.393.122.5.074 1.083-.042 1.594zm19.93-7.602c-.005.642-.004 1.29-.1 1.923-.16 1.04-.102 2.29-.672 3.045-.722.954-1.988.11-3.02.072-.428-.015-.88-.107-1.283-.01-3.213.774-6.374-.412-9.572-.225-.77.046-1.122-.368-1.132-1.214-.023-2.232-.533-4.476.26-6.69.244-.678-.193-1.288-.764-1.62-.54-.31-1.173-.543-1.79-.62-.953-.12-1.923-.102-2.888-.102-5.25-.007-10.5-.003-15.75-.003v.062c-5.138 0-10.284-.074-15.42.022-4.065.074-8.163.077-12.174.635-4.16.578-8.31.62-12.48.71-.64.015-1.283.052-1.912.16-3.11.54-3.108.55-3.66 3.748-.074.42-.165.84-.257 1.26-.195.884-.362 1.055-1.27 1.13-.96.078-1.925.174-2.886.14-1.01-.034-2.027.833-3.022-.025.427-.965.843-1.934 1.278-2.896.352-.776.805-1.517 1.05-2.323.09-.296-.214-.804-.474-1.094-.326-.363-1.217-.373-1.49-.08-.647.703-1.255 1.445-1.91 2.145-.115.125-.407.19-.574.14-.16-.05-.338-.272-.373-.445-.21-.97-.13-1.853.512-2.725 1.333-1.806 2.573-3.68 3.816-5.555.287-.433.457-.957.62-1.46.2-.613-.407-1.258-1.084-1.26-.69-.004-1.254.267-1.733.715-.783.73-1.515 1.515-2.318 2.22-.152.134-.565.065-.808-.033-.14-.055-.267-.376-.24-.55.068-.41.17-.836.37-1.194 1.093-1.963 2.228-3.9 3.33-5.858.258-.46.497-.955.615-1.466.12-.53 0-1.07-.425-1.474-.47-.453-1.202-.548-1.785-.21-.367.213-.693.496-1.064.704-.405.228-.46 1.097-1.096.764-.23-.122-.247-.776-.248-1.188-.006-2.14.13-4.29.01-6.423-.12-2.112.656-3.966 1.292-5.88.395-1.193 1.207-2.003 2.306-2.546.48-.237.97-.476 1.483-.614 3.093-.835 6.165-1.766 9.395-2.005 1.593-.117 3.168-.527 4.763-.632 2.24-.15 4.496-.184 6.742-.18 6 .005 12 .06 17.998.093.322 0 .648.03.963-.015 4.37-.608 8.75-.155 13.124-.1 4.39.052 8.783.052 13.175.097s8.783.184 13.173.14c2.428-.03 4.625.732 6.837 1.518.35.127.697.518.86.874.72 1.564 1.21 3.197 1.24 4.943.047 2.57.083 5.14.18 7.71.087 2.35.343 4.693.355 7.042.03 5.566-.038 11.14-.075 16.71zm-76.36-24.128c-.16.01-.592.003-1.012.072-1.94.312-3.33 1.66-3.7 3.5-.257 1.27.362 2.29.89 3.327.684 1.332 2.32 2.147 3.753 1.825.82-.183 1.65-.467 2.39-.87 1.77-.96 2.53-2.948 1.997-4.943-.514-1.923-1.872-2.898-4.32-2.91zm-.23 4.886c-.123-.235-.246-.47-.366-.704.267-.09.526-.21.8-.245.064-.01.165.267.288.474l-.725.476zm42.86-1.607c-1.012.108-1.838.652-2.348 1.692-.466.954-.045 2.215.957 2.645.827.352 1.675.316 2.414-.192.847-.578 1.186-1.475 1.114-2.47-.064-.884-1.136-1.722-2.133-1.674zm-20.09.492c-.697.167-1.39.47-1.997.855-.83.528-.947 1.728-.32 2.5.26.324.58.61.91.865.637.488 1.41.46 2.04-.02.79-.61 1.287-1.375 1.27-2.378.08-1.344-.688-2.116-1.903-1.824zm8.847.444c-.34.364-.552.89-.702 1.38-.373 1.23.52 2.315 1.824 2.28 1.547-.04 2.645-1.78 1.94-3.175-.76-1.504-2.09-1.532-3.063-.485zM49.94 59.2c-1.665-.03-2.817 1.392-2.457 2.77.075.287.28.598.517.77.814.583 2.283.356 2.88-.396.555-.7.548-1.93-.094-2.626-.262-.285-.683-.42-.85-.518zm29.92 26.95c-.957-.044-1.916-.022-2.87.046-1.6.115-3.21.283-4.776-.165-2.487-.71-5.054-.815-7.593-.907-4.156-.153-8.312.027-12.4.992-.923.22-1.906.2-2.865.26-1.093.066-2.105-.086-2.938-.942-.843-.864-1.935-.868-2.99-.512-1.424.486-2.728 1.22-3.832 2.258-.226.213-.486.512-.512.79-.032.38.053.836.25 1.162.242.396.77.456 1.142.237.725-.427 1.372-.996 2.094-1.436.893-.542 1.236-.56 1.956.218 1.443 1.56 3.22 2.005 5.23 1.827.844-.073 1.687-.22 2.516-.4 2.825-.617 5.665-1.003 8.566-.832 1.173.068 2.35.053 3.524.018 2.58-.074 5.106.24 7.61.85 1.028.247 2.092.347 3.31.543 1.55-.286 3.227-.56 4.885-.914.585-.126 1.117-1.245 1.003-1.853-.103-.57-.698-1.21-1.31-1.237zm-8.233 9.38c-1.792.454-3.627.475-5.397.022-1.483-.376-2.953-.416-4.45-.416-2.246 0-4.505.08-6.73-.153-1.093-.113-2.11-.1-3.15.143-.83.197-1.637.482-2.46.704-1.148.31-2.26.54-3.38-.216-1.24-.832-2.663-.7-4.043-.427-1.22.242-2.12.964-2.717 2.064-.235.44-.16.877.144 1.183.277.28.71.6 1.052.578.495-.03 1.003-.3 1.45-.56.908-.528 1.71-.678 2.657.014 1.69 1.232 3.567 1.232 5.49.557.804-.283 1.618-.547 2.443-.76.507-.13 1.088-.31 1.553-.18 1.9.53 3.83.288 5.747.35 1.493.05 2.972.077 4.446.476 1.434.386 2.94.51 4.587.775 1.336-.23 2.81-.46 4.264-.763.392-.083.75-.387 1.09-.64.55-.405.603-1.123.182-1.698-.698-.96-1.583-1.354-2.78-1.05zm-3.222 10.73c-.31-.063-.635-.155-.944-.132-1.51.11-2.97-.126-4.417-.527-2.165-.6-4.355-.88-6.62-.673-.694.064-1.484-.17-2.13-.475-.926-.434-1.843-.486-2.8-.316-.625.112-1.25.26-1.857.46-1.105.358-2.053.308-2.88-.662-.89-1.04-2.013-1.072-3.19-.485-.666.332-1.36.62-1.994 1.004-.72.44-.996 1.4-.74 2.26.253.854 1.03 1.37 1.966 1.255.312-.038.62-.157.91-.278.437-.188.82-.125 1.186.157 1.617 1.25 3.403 1.132 5.157.483 1.09-.4 1.978-.375 3.02.182 1.235.658 2.623.877 4.034.474 1.28-.364 2.496-.19 3.757.23 1.1.367 2.29.472 3.197.647 2.2.12 3.79-.552 4.962-2.153.39-.528.074-1.31-.61-1.45z"/></svg>