<svg xmlns="http://www.w3.org/2000/svg" width="128" height="128" viewBox="0 0 128 128"><path d="M114.344 62.672c0-1.07-.083-2.142-.158-3.213-.128-1.81-.318-3.626-.412-5.44-.1-1.93-.032-3.87-.187-5.79-.275-3.416-.658-6.82-1-10.227-.272-2.705-1.048-5.248-2.518-7.544-1.197-1.86-2.754-3.24-4.997-3.777-2.4-.578-4.82-.96-7.285-1.067-.964-.043-1.946.028-2.892-.122-4.242-.67-8.518-.92-12.794-1.227-2.03-.146-4.05-.47-6.08-.516-4.4-.106-8.8-.092-13.2-.106-1.07 0-2.162-.023-3.206.17-2.022.37-4.056.36-6.09.387-4.83.065-9.66-.246-14.483.163-2.136.18-4.273.34-6.402.57-1.595.17-3.18.423-4.767.65-1.376.197-2.322.995-3.023 2.15-.384.635-.695 1.38-1.242 1.84-3.616 3.04-5.392 7.087-6.564 11.508-.885 3.348-1.167 6.75-1.165 10.19.004 3.866.002 7.73.002 12.25-.17 6.1-.3 12.853.66 19.58.513 3.6 1.092 7.19 1.89 10.745.172.773.547 1.362 1.06 1.933 1 1.108 2.06 2.19 2.907 3.41 1.014 1.467 2.337 2.492 3.877 3.295 1.46.76 2.947 1.06 4.645.697 1.444-.31 3.017-.435 4.467-.213 2.66.402 5.332.48 7.996.754 4.177.435 8.33.41 12.512.03 2.986-.272 5.977-.47 8.948-.91.95-.143 1.926-.095 2.89-.13.75-.02 1.503-.013 2.252-.06 2.565-.165 5.13-.473 7.696-.495 4.63-.04 9.19-.538 13.702-1.547.418-.092.837-.206 1.262-.234 3.876-.256 7.616-1.112 11.25-2.468.197-.073.417-.092.624-.15 4.7-1.298 7.264-4.607 8.645-9.434.948-3.31.974-6.784 1.09-10.2.176-5.144.085-10.3.082-15.45zm-7.693 15.672c-.04 2.558-.275 5.127-.61 7.67-.31 2.37-1.44 4.223-3.94 4.944-3.697 1.064-7.358 2.088-11.26 2.406-6.64.544-13.28.43-19.922.548-3.21.056-6.415.064-9.623.452-2.648.323-5.355.166-8.034.24-5.567.15-11.124.5-16.674.97-2.475.21-4.928.028-7.36-.4-.582-.103-1.187-.51-1.62-.94-1.275-1.255-1.863-2.866-1.996-4.62-.1-1.28-.07-2.57-.073-3.858-.006-5.685-.002-11.368-.002-17.052h.06c0-6.22-.04-12.44.016-18.66.034-3.54.628-7.034 1.32-10.498.36-1.792 1.143-3.456 2.2-4.966.51-.72 1.137-1.227 2.095-1.318 1.596-.155 3.18-.416 4.77-.62 6.618-.83 13.27-.568 19.914-.705 1.064-.02 2.122-.183 3.184-.273.742-.06 1.488-.146 2.235-.15 3-.03 6.004 0 9.007-.046 5.476-.09 10.9.57 16.348.953 3.733.266 7.424.933 11.182.958 1.478.01 2.965.39 4.43.687.767.155 1.36.683 1.628 1.43.322.9.62 1.828.8 2.77.243 1.26.427 2.535.53 3.814.273 3.412.516 6.834.718 10.253.17 2.884-.05 5.795.635 8.643.098.41.064.856.064 1.283.006 5.36.07 10.722-.02 16.086zm-44.996-1.698c.036-.527.032-1.093-.13-1.583-.538-1.62-1.152-3.217-1.742-4.82-.383-1.04-1.076-1.86-1.988-2.45-1.357-.874-2.813-1.564-4.475-1.584-1.82-.023-3.643-.07-5.457.02-2.597.13-5.046.77-7.1 2.503-1.306 1.102-2.658 2.15-3.922 3.3-1.157 1.053-1.745 2.386-1.663 4.005.058 1.063.006 2.14-.053 3.21-.292 5.198.065 5.14 4.958 5.506 2.987.224 5.988.206 8.983.3v-.11c2.25 0 4.496.016 6.742-.007 1.176-.014 2.357-.054 3.526-.182.497-.053 1.17-.238 1.408-.597 1.01-1.503 2.024-3.1 1.313-5.023-.31-.832-.452-1.616-.395-2.487zm38.152-28.384c-.843.018-1.68.264-2.526.318-.225.015-.614-.282-.684-.51-.186-.61-.168-1.282-.368-1.885-.124-.373-.43-.774-.766-.98-1.552-.953-3.46-.494-4.49.983-.61.866-1.238 1.736-1.935 2.53-.512.588-1.27.385-1.483-.33-.277-.917-.466-1.867-.81-2.757-.43-1.1-1.43-1.545-2.62-1.304-1.132.23-1.852.966-2.503 1.864-.492.682-1.02 1.488-1.726 1.823-1.02.48-1.255-.9-1.98-1.248-.096-.047-.173-.13-.264-.18-.812-.463-1.63-.534-2.41.03-.344.253-.608.607-.933.886-.667.57-.704.567-1.28.004-.306-.3-.562-.656-.9-.912-.85-.642-1.793-.675-2.724-.208-1.88.94-2.507 3.027-1.522 4.89.294.555.593 1.115.81 1.7.917 2.466 3.118 3.292 5.318 1.97.092-.06.18-.12.26-.19.956-.814 2.013-1.145 3.277-.833.506.128 1.07-.01 1.6.056 1.376.173 2.475-.514 3.614-1.093 1.14.727 2.09 1.803 3.53 2.008.632.093 1.3.29 1.9.176 1.247-.245 2.463-.933 3.69-.94 1.224 0 2.45.616 3.674.955.1.03.213.005.478.005 2.102-.18 3.937-1.02 5.008-3.175.544-1.09.42-2.088-.213-3.03-.205-.31-.675-.623-1.02-.617zm-28.11 22.024c-.234.84.076 1.46.664 1.998 1.3 1.184 2.414 1.112 3.583-.213.57-.644 1.067-1.315 1.213-2.214.117-.734.346-1.454.565-2.165.186-.59.667-.78 1.247-.79.578-.003 1.045.156 1.263.757.18.5.35 1.008.56 1.498.126.288.295.57.484.825.44.603 1.397.867 2.016.418 1.118-.81 2.157-1.728 3.236-2.598.41-.33.754-.262 1.047.208.168.27.274.584.448.853 1.015 1.568 2.69 1.813 4.053.567.55-.5 1.013-1.102 1.536-1.635.436-.445.78-.43 1.396-.016.523.35 1.022.78 1.6.994.74.275 1.493.11 2.053-.512 1.276-1.422.79-4.8-.833-5.73-.267-.155-.597-.213-.91-.27-1.444-.247-2.746.08-3.922.97-.555.418-1.192.56-1.745.026-1.6-1.552-3.273-1.165-4.956-.22-.65.368-1.248.83-1.858 1.264-.37.262-.755.446-1.123.053-1.323-1.41-3.016-1.444-4.757-1.317-.712.053-1.234-.136-1.476-.893-.162-.508-.386-1.004-.644-1.468-.74-1.336-2.1-1.698-3.337-2.176-.397.12-.7.21-1.003.305-1.91.578-2.916 2.08-3.71 3.74-.67 1.406.51 3.71 2.03 4.087.507.128 1.155.025 1.52.31.618.483-.036 1.162-.028 1.764.01.53-.074 1.076-.217 1.587zm-27.33-9.062c1.895 2.62 4.483 2.994 7.253 1.146 2.64-1.76 3.377-4.533 3.336-7.53-.02-1.487-.262-2.972-.437-4.453-.207-1.72-.746-3.314-1.836-4.7-.482-.61-1.062-1.088-1.81-1.24-2.24-.445-4.226-.028-5.77 1.822-1.773 2.123-2.75 4.525-2.792 7.34.265 1.68.438 3.38.83 5.032.212.91.673 1.82 1.226 2.584zM97.886 79.2c.734-1.05.137-2.507-1.117-2.752-1.4-.272-2.778-.122-4.105.355-.832.3-1.683.535-2.505.227-1.524-.576-2.956-.36-4.322.36-.764.406-1.35.253-2.09-.058-1.28-.537-2.623-.956-4.044-.386-.91.36-1.675.03-2.328-.63-1.122-1.13-2.432-1.215-3.85-.703-.8.29-1.646.498-2.39.892-1.368.723-2.344 1.84-2.864 3.32-.267.757.088 1.643.894 2.204.606.42 1.506.393 2.107-.037.68-.483 1.027-1.746 1.895-1.528 1.26.317.235 1.688.693 2.475.055.09.074.2.11.3.643 1.837 2.712 2.368 4.11 1.028.54-.514.98-1.13 1.516-1.656.405-.405.943-.51 1.48-.292.396.158.772.376 1.134.602 1.31.82 2.634.796 3.94.025 1.157-.677 2.358-1.016 3.132-.78 3.323.638 5.508-.82 7.755-2.026.352-.182.608-.593.85-.94zm.392 1.205c-.79.08-1.278.644-1.29 1.493-.01.638.48 1.052 1.268 1.075.94.03 1.406-.395 1.4-1.263-.007-.896-.53-1.39-1.376-1.306z"/></svg>