<svg xmlns="http://www.w3.org/2000/svg" width="128" height="128" viewBox="0 0 128 128"><path d="M116.055 72.49c-.1-.298-.068-.64-.13-.955-.524-2.594-1.75-4.815-3.59-6.704-1.485-1.523-3.203-2.48-5.42-2.29-.748.063-1.502.027-2.252.063-1.337.064-2.485.555-3.456 1.498-.77.748-1.576 1.45-1.977 2.497-.352.917-1.107 1.198-2.044 1.252-2.78.155-5.557.364-8.337.545-1.39.092-2.783.168-4.173.267-.843.06-1.21-.078-1.467-.852-1.18-3.555-3.208-6.776-4.13-10.438-.177-.71-.587-1.38-.99-2.008-.656-1.026-1.6-1.696-2.8-2.02-1.92-.516-3.74.288-4.44 2.11-.498 1.293-.832 2.65-1.27 3.967-1.745 5.286-3.33 10.615-4.48 16.07-.24 1.147-.546 2.285-.83 3.423-.022.085-.16.226-.17.22-.174-.11-.42-.203-.486-.37-.197-.49-.34-1.002-.47-1.516-1.074-4.256-2.14-8.505-4.093-12.48-.794-1.623-1.374-3.37-1.905-5.105-1.284-4.19-2.57-8.388-3.686-12.624-.98-3.723-1.75-7.5-2.58-11.26-.375-1.684-.84-3.316-1.9-4.724-.99-1.32-3.2-1.767-4.59-.808-1.237.86-2.38 1.838-2.696 3.454-.145.733-.423 1.44-.555 2.172-.487 2.675-1.54 5.133-2.94 7.424-1.296 2.12-2.238 4.386-3.118 6.688-.724 1.897-1.448 3.805-1.983 5.76-.487 1.787-1.31 3.395-2.117 5.02-.9 1.82-1.857 3.616-2.775 5.427-.323.64-.813.966-1.525.964H20.89v-.043c-1.5 0-3.003-.013-4.505.008-.75.01-1.512.007-2.242.15-1.35.272-2.338 1.377-2.485 2.625-.152 1.266.592 2.443 1.958 2.995 1.1.442 2.24.693 3.443.72 1.172.024 2.356.104 3.516.29 2.882.47 5.785.3 8.665.198 2.268-.08 4-1.15 4.897-3.5.683-1.783 1.68-3.473 2.707-5.096 1.273-2.006 2.252-4.137 3.097-6.337.69-1.797 1.34-3.614 1.956-5.44.688-2.037 1.568-3.984 2.618-5.856.125-.218.48-.347.757-.42.08-.022.308.274.37.458.27.813.52 1.63.746 2.456.85 3.098 1.685 6.196 2.528 9.293.983 3.616 2.288 7.11 3.725 10.57 1.313 3.17 2.222 6.47 2.755 9.873.835 5.316 2.508 10.39 4.636 15.317.705 1.632 2.01 2.485 3.756 2.55 1.84.063 3.404-.48 4.155-2.37.315-.794.713-1.58.863-2.413.576-3.16 1.51-6.228 2.406-9.302.63-2.163 1.1-4.352 1.59-6.543.442-1.986.875-3.977 1.337-5.96.12-.516.31-1.024.502-1.52.074-.19.24-.347.362-.515.145.128.34.23.422.39.427.863.832 1.738 1.227 2.618.586 1.294 1.43 2.38 2.54 3.275 1.12.904 2.32 1.414 3.837 1.287 3.096-.258 6.2-.395 9.305-.548 1.283-.066 2.573-.05 3.86-.075.8-.015 1.5.24 1.95.917 1.343 2.02 3.517 3.104 5.263 4.672.378.337.922.617 1.42.68 2.865.367 5.553-.004 7.758-2.112.387-.37.832-.683 1.2-1.067 1.845-1.93 3.232-4.018 2.277-6.886z"/></svg>