<svg xmlns="http://www.w3.org/2000/svg" width="128" height="128" viewBox="0 0 128 128"><path d="M110.88 61.46c-2.468-2.538-4.956-5.052-7.71-7.292-2.074-1.693-4.132-3.408-6.186-5.13-.33-.28-.27-.855.115-1.098 2.097-1.323 3.99-2.888 5.697-4.685 3.175-3.34 4.78-7.304 4.81-12.516.08-1.463-.377-3.465-.872-5.427-.36-1.433-.988-2.848-1.76-4.114-1.19-1.953-2.798-3.5-5.11-4.17-2.647-.768-5.362-.87-7.906.002-5.153 1.77-9.32 4.81-11.35 10.157-.154.4-.333.79-.51 1.18-.3.627-.7.713-1.24.24-1.452-1.27-2.82-2.647-4.36-3.807-2.14-1.615-4.342-3.138-6.174-5.126-.984-1.064-2.276-1.14-3.576-.787-.828.225-1.488.735-2.11 1.385-2.747 2.863-5.558 5.662-8.355 8.474-.452.452-.95.865-1.436 1.282-.333.28-.92.085-1.02-.328-.49-1.97-.9-3.965-1.48-5.91-.75-2.516-2.186-4.635-4.155-6.386-1.058-.944-2.272-1.548-3.642-1.957-2.706-.81-5.3-.466-7.86.518-3.958 1.525-6.92 4.227-9.05 7.853-2.213 3.768-3.41 7.856-3.494 12.22-.054 2.83.87 5.263 3.385 6.89.53.34 1.088.74 1.43 1.253 1.11 1.66 2.69 2.734 4.342 3.752 2.033 1.252 2.035 1.34.542 3.035-1.14 1.294-2.37 2.48-3.826 3.422-.448.29-.91.587-1.28.963-2.496 2.51-4.997 5.017-7.437 7.58-1.495 1.57-1.66 3.207-.46 4.94.91 1.314 1.922 2.58 3.033 3.728 2.61 2.7 5.313 5.31 7.96 7.968.632.636 1.27 1.14 2.246.964 1.163-.213 2.523-.277 3.088-1.426 1.017-2.072 2.71-3.578 4.053-5.368 2.397-3.19 5.634-4.062 9.403-3.568 1.123.15 1.96.725 2.573 1.715 2.33 3.76 2.58 7.557.608 11.594-1.42 2.913-3.213 5.57-5.13 8.14-.874 1.17-1.06 2.317-.76 3.607.29 1.266.895 2.368 1.903 3.272 4.16 3.732 7.888 7.892 11.563 12.084 2.92 3.33 2.865 2.05 5.842.57.37-.18.644-.56.956-.853 2.973-2.78 5.736-5.777 8.898-8.365.967-.793 1.753-1.89 2.392-2.984.917-1.57.98-3.252-.025-4.874-.563-.905-.97-1.913-1.857-2.597-.965-.748-1.444-1.836-1.926-2.92-.39-.87-.763-1.76-1.265-2.57-.993-1.593-1.11-3.24-.368-4.91.523-1.167 1.26-2.234 1.83-3.384 1.334-2.706 3.786-3.685 6.497-4.15 1.845-.31 3.75-.076 5.12 1.302 1.963 1.977 3.755 4.107 4.245 7.038.245 1.47.742 2.906 1.214 4.328.635 1.91 2.513 2.59 4.084 1.43 1.027-.754 2.016-1.62 2.833-2.59 4.563-5.414 8.78-11.094 12.9-16.85.368-.516.72-1.088.916-1.685.597-1.8.71-3.52-.793-5.063zm-6.234 7.826c-1.477 1.698-3.002 3.36-4.562 4.98-1.43 1.48-2.632 3.092-3.57 4.93-.43.847-1.027 1.614-1.583 2.393-.05.066-.474.01-.51-.077-.282-.688-.5-1.4-.757-2.1-.66-1.805-1.255-3.645-2.037-5.4-.47-1.055-1.163-2.047-1.892-2.952-1.502-1.85-3.47-2.783-5.893-2.757-5.524.06-10.287 1.937-14.052 6.016-2.544 2.753-3.312 6.096-2.94 9.81.326 3.26 1.763 5.933 3.94 8.245 1.02 1.084 2.236 1.987 3.368 2.968.256.22.47.48.208.78-1.817 2.104-3.517 4.322-5.717 6.063-.15.117-.443.203-.59.133-.152-.076-.268-.34-.29-.54-.094-.74-.03-1.525-.242-2.227-.208-.693-.58-1.402-1.075-1.916-.3-.31-.987-.397-1.473-.348-.555.057-.95.55-1 1.115-.108 1.173-.124 2.353-.183 3.53-.032.64-.066 1.28-.142 1.913-.01.063-.348.183-.45.127-.715-.384-1.1-1.02-1.13-1.82-.04-.962.015-1.93-.022-2.894-.028-.852-.064-1.714-.213-2.554-.156-.9-.875-1.246-1.928-1.05-.96.182-1.095.054-1.005-.865.136-1.492.27-2.986.38-4.48.03-.42 0-.86-.07-1.277-.203-1.168-1.44-1.675-2.46-1.022-.422.27-.828.563-1.24.847.005.03.004.058.013.087-.03.006-.054.02-.084.027-.272.993-.523 1.988-.843 2.966-.09.274-.34.594-.594.682-.155.053-.5-.256-.67-.476-.257-.338-.5-.776-.124-1.152.708-.712 1.152-1.73 2.23-2.02l.022-.084.047-.032c-.16-.794.38-1.373.72-1.977 2.41-4.295 2.37-8.8 1.228-13.407-1.293-5.22-7.403-9.47-13.218-8.008-2.443.613-4.634 1.623-6.638 3.102-.516.38-1.008.795-1.52 1.184-.074.056-.26.1-.273.078-.1-.18-.26-.384-.24-.562.096-.74.29-1.47.36-2.21.023-.285-.16-.603-.297-.885-.18-.38-.877-.49-1.086-.168-.582.89-1.13 1.805-1.724 2.688-.09.133-.425.25-.538.184-.245-.146-.584-.4-.597-.63-.037-.514.054-1.055.186-1.56.213-.83.53-1.63.736-2.46.128-.518-.388-1.388-.896-1.58-.537-.21-1.08-.13-1.5.252-.553.5-1.036 1.077-1.574 1.597-.238.227-.56.333-.79-.016-.17-.263-.378-.58-.364-.866.016-.27.26-.56.466-.782 3.42-3.7 6.84-7.403 10.283-11.085.875-.94 1.892-1.75 2.728-2.72 1.394-1.62 1.02-3.547-.91-4.51-2.737-1.362-3.006-1.172-2.1-4.64.16-.607.133-1.276.13-1.916-.003-.568-.253-1.038-.82-1.26-.576-.227-1.35-.01-1.657.61-.516 1.047-.914 2.154-1.37 3.23-.08.185-.276.506-.31.492-.29-.113-.6-.244-.82-.457-.48-.47-.688-1.006-.534-1.734.405-1.9 1.094-3.694 1.845-5.47.383-.906.665-1.797.46-2.8-.168-.82-1.407-1.33-2.045-.79-.242.205-.465.447-.638.708-.72 1.09-1.17 2.272-1.28 3.595-.045.512-.285 1.006-.46 1.502-.022.07-.17.12-.266.136-.07.01-.177-.03-.22-.084-.07-.075-.124-.184-.14-.285-.533-3.48.047-6.826 1.212-10.1.14-.39.405-.757.686-1.067 1.773-1.968 3.888-3.312 6.56-3.747 2.61-.424 4.636.454 5.967 2.704 1.457 2.463 1.883 5.204 2.215 7.98.18 1.487.363 2.977.667 4.44.17.826.507 1.645.914 2.39.6 1.098 1.703 1.626 2.86 1.896.806.19 1.4-.478 1.95-.956 2.584-2.253 5.19-4.49 7.683-6.843 1.318-1.243 2.427-2.71 3.627-4.078.423-.485.803-1.01 1.266-1.455 1.587-1.518 1.63-1.495 3.096-.115 2.42 2.276 4.868 4.492 7.63 6.392 1.926 1.327 3.63 3 5.618 4.277 1.137.73 2.005.473 2.603-.77.467-.97.885-1.975.823-3.076-.075-1.337.323-2.523.923-3.69.337-.662.563-1.386.817-2.09 1.61-4.435 6.123-7.038 10.74-6.165 1.32.25 2.372.874 3.022 2.143 1.727 3.373 2.17 6.968 1.6 10.63-.314 2.008-1.415 3.787-2.803 5.35-1.653 1.867-3.696 3.255-5.61 4.8-.417.336-.9.59-1.306.934-1.85 1.573-2.026 4.226-.41 6.016.286.316.606.605.946.866.59.455 1.264.82 1.807 1.324 3.213 2.997 6.502 5.922 9.565 9.07 3.658 3.748 3.387 3.137.144 6.866zM72.93 45.366c-.42.477-.896.948-1.156 1.51-1.163 2.52-1.975 5.15-2.216 8.35.094.443.166 1.302.467 2.073.387.996 2.1 1.155 2.684.277.344-.52.675-1.12.777-1.722.47-2.827.882-5.664 1.255-8.505.066-.497-.107-1.044-.253-1.546-.187-.624-1.16-.89-1.558-.437zm-1.414-6.042c-.073-.352-.463-.685-.787-.928-.4-.3-.823-.09-1.177.176-.896.678-1.355 1.664-1.704 2.673-.6 1.72-1.147 3.458-1.654 5.205-.205.71-.253 1.464-.366 2.167.115.574.19 1.092.332 1.593.1.373.826.59 1.08.324.362-.38.788-.765.972-1.23 1.1-2.79 2.15-5.597 3.17-8.417.18-.48.236-1.067.135-1.562z"/></svg>