<svg xmlns="http://www.w3.org/2000/svg" width="128" height="128" viewBox="0 0 128 128"><path d="M107.102 29.308c-.135-1.49-.328-2.98-.48-4.475-.357-3.536-1.792-6.645-4.195-9.182-1.978-2.086-4.15-3.994-6.54-5.67-2.64-1.857-5.302-3.26-8.1-2.668H86.28c-4.05.003-7.878.78-11.244 3.21-.954.69-1.98 1.277-2.933 1.97-4.608 3.338-8.97 6.996-13.11 10.886-4.842 4.555-9.517 9.296-14.138 14.08-1.638 1.696-3.296 3.36-5.007 4.984-1.397 1.333-2.76 2.704-4.066 4.123-1.038 1.125-1.744 2.45-1.762 4.04-.027 2.676-.258 5.354.284 8.018.206 1.025.52 2.088.053 3.145-1.188-.288-1.474-1.397-2.04-2.248-.178-.264-.26-.612-.48-.83-.367-.362-.785-.684-1.225-.954-.54-.33-1.152-.546-1.675-.894-.67-.45-1.298-.48-2.027.228-.683.67-1.358 1.402-1.803 2.234-1.544 2.86-2.426 5.986-2.674 9.188-.253 3.307-.082 6.645-.072 9.97.004.64.023 1.308.205 1.91 1.515 5.082 3.538 9.89 7.516 13.62.886.828.92 1.15.31 2.23-2.16 3.83-4.333 7.645-6.496 11.474-.315.555-.672 1.11-.87 1.71-.61 1.825-1.198 3.658-1.707 5.517-.252.924-.37 1.892-.444 2.847-.077.956.46 1.65 1.267 2.078 2.253 1.2 4.174.808 5.66-1.222.82-1.12 1.483-2.357 2.225-3.535 1.372-2.172 2.67-4.4 4.147-6.5 1.845-2.626 3.895-5.11 5.38-7.984.502-.964 1.12-1.51 2.68-.85 1.92.814 3.957 1.077 5.99.803 2.853-.385 5.687-.854 8.367-2.074 2.54-1.16 4.992-2.464 7.394-3.872 1.57-.918 3.2-1.755 4.693-2.787 1.76-1.216 3.355-2.667 5.1-3.91 2.633-1.87 4.345-4.44 5.6-7.31.98-2.252 1.748-4.598 2.522-6.93.26-.794.343-1.677.35-2.52.01-.98-.782-1.82-1.75-2.013-.31-.064-.648.015-.96-.043-.274-.05-.528-.2-.79-.304.194-.254.337-.573.587-.75 3.797-2.648 7.093-5.877 10.42-9.067.844-.81 1.628-1.71 2.273-2.678.765-1.14.708-2.485.212-3.71-.405-1.003-1.504-1.096-2.413-1.365-.306-.085-.647-.045-.958-.113-.18-.04-.335-.188-.5-.288.18-.105.354-.224.546-.306 2.343-1.045 4.722-2.018 7.024-3.15 1.53-.755 3.115-1.542 4.38-2.653 2.175-1.913 4.076-4.112 4.954-6.997.28-.922.704-1.797.98-2.718.548-1.86 1.02-3.733.842-5.692zm-7.157 2.544c-2.106 1.304-4.207 2.603-6.83 2.526-.877-.025-1.683.235-2.39.802-.605.485-.643 1.483.012 1.92.344.23.75.412 1.152.5 2.74.586 2.744.578 5.677-.038.31-.064.603-.22.91-.302.062-.015.18.102.232.184.05.08.095.21.063.284-.62 1.45-1.784 2.432-3.104 3.13-2.56 1.35-5.174 2.596-7.8 3.81-2.82 1.3-5.688 2.496-8.51 3.787-.668.31-1.303.762-1.84 1.264-1.484 1.39-.678 3.776.72 4.334.89.352 1.81.69 2.75.84 1.69.27 3.4.38 5.1.594.295.033.57.234.855.358-.188.252-.348.53-.57.752-3.79 3.8-7.953 7.157-12.314 10.267-1.437 1.024-2.434 2.387-3.43 3.787-.69.978-.046 2.524 1.075 2.895.91.298 1.875.426 2.82.602.42.08.88.007 1.266.154.217.08.48.49.445.706-.105.625-.367 1.222-.538 1.842-.843 3.057-3.232 4.195-6.016 4.405-2.452.186-4.884.516-7.33.736-.78.07-1.437.34-2 .907-.68.678-.554 1.813.335 2.095 1.013.32 2.067.55 3.117.736.736.133 1.5.097 2.242.2.363.05.704.254 1.054.387-.274.313-.502.69-.828.928-4.642 3.42-9.803 5.726-15.44 6.848-2.2.437-4.484.506-6.657-.397-.562-.23-.806-.737-.544-1.288.365-.773.757-1.536 1.187-2.277 1.184-2.036 2.456-4.026 2.72-6.463.05-.485.437-.955.73-1.392 3.89-5.784 7.54-11.716 11.126-17.694 2.203-3.675 4.5-7.293 6.788-10.92.455-.72 1.06-1.344 1.577-2.03.384-.513.77-1.03 1.096-1.58.91-1.534.192-2.57-1.515-3.096-.265-.082-.628.026-.908.136-.39.16-.846.323-1.106.625-1.608 1.864-3.548 3.394-5.163 5.263-3.167 3.67-5.84 7.67-8.37 11.788-1.567 2.552-3.265 5.03-5.007 7.47-1.618 2.266-3.282 4.51-5.088 6.626-2.24 2.624-4.267 5.365-5.89 8.41-.25.468-.585.897-.918 1.313-.43.546-1.174.644-1.697.142-.685-.662-1.39-1.347-1.903-2.143-2.558-3.968-3.806-8.34-3.844-13.06-.01-1.18-.003-2.36-.003-4.238.024-2.198-.12-5.104.74-7.924.09-.3.23-.36.455-.18.08.063.18.116.245.197 1.35 1.66 2.665 3.35 4.064 4.964.476.552 1.11 1.016 1.754 1.365 1.03.56 2.028.304 2.734-.773.38-.575.843-.872 1.397-1.21 1.496-.9 1.712-1.49 1.352-3.214-.725-3.47-1.045-6.98-1.138-10.525-.032-1.134.217-2.113.955-2.97.49-.57.932-1.18 1.47-1.698 1.235-1.18 2.448-2.404 3.798-3.442 1.132-.875 1.603-2.51 3.23-2.784.32 1.525-.42 2.923-.594 4.388-.213 1.81-.48 3.602-.48 5.43 0 .795.243 1.47.77 2.053.794.88 2.14 1.425 2.84 1.08 1.09-.54 2.013-1.29 2.19-2.58.623-4.56 1.21-9.126 1.803-13.69.042-.32.078-.652.035-.965-.312-2.234.65-3.867 2.245-5.342 5.51-5.1 11.11-10.09 17.062-14.67 1.965-1.51 4.19-2.524 6.495-3.385.392-.146.826-.24 1.248-.254 2.25-.085 4.506-.13 6.757-.203 1.003-.032 1.87.267 2.695.855 2.638 1.877 4.955 4.11 7.225 6.39 1.355 1.363 1.728 3.21 2.016 4.99.252 1.576.16 3.21.22 4.818.03.84-.404 1.422-1.083 1.84z"/></svg>