<svg xmlns="http://www.w3.org/2000/svg" width="128" height="128" viewBox="0 0 128 128"><path d="M120.987 76.754c0-.94.055-1.66-.017-2.37-.06-.59-.267-1.163-.4-1.745-1.686-7.313-4.713-14.015-9.11-20.1-2.457-3.4-3.433-3.657-7.08-1.325-4.324 2.77-8.56 5.68-12.83 8.533-.3.197-.56.447-.84.676-.89.74-1.253 1.688-1.232 2.845.026 1.626.76 2.983 1.483 4.366 2.223 4.23 4.407 8.483 6.64 12.706 1.12 2.112 2.098 4.31 3.693 6.13.077.09.19.212.175.303-.036.216-.08.493-.224.617-.26.226-.58.43-.91.512-3.843.943-7.776 1.195-11.707 1.435-.683.042-1.077-.385-1.097-1.12-.057-2.035-.06-4.068-.127-6.1-.037-1.077-.64-1.734-1.668-2.074-1.29-.43-2.29-.096-3.23.868-2.918 3-5.884 5.955-8.825 8.936-1.266 1.285-2.225 2.776-3.147 4.334-1.563 2.65-1.467 5.237-.11 7.838 1.107 2.112 2.19 4.274 3.585 6.2 2.453 3.38 5.135 6.603 7.73 9.888.145.187.3.384.493.512 1.84 1.242 4.487 1.2 5.21-1.436.473-1.728.91-3.465 1.393-5.188.373-1.323.69-1.596 1.956-1.635 2.152-.06 4.31-.026 6.46-.133 2.97-.15 5.56-1.227 7.692-3.363 2.35-2.35 5.065-4.376 6.54-7.49.15-.317.47-.544.68-.832 2.426-3.303 4.288-6.923 5.528-10.805.69-2.16 1.328-4.313 2.333-6.354.74-1.51 1.25-3.115.964-4.63zm-13.342 18.93c-1.026 2.222-2.656 3.948-4.466 5.544-1.21 1.07-2.51 1.63-4.205 1.613-3.94-.05-7.885.104-11.83.194-1.687.04-2.114.313-2.493 1.936-.32 1.37-1.062 2.64-.904 4.148.054.533-.335 1.122-.556 1.67-.2.52-.675.532-1.038.027-.34-.484-.675-.98-1.006-1.477-1.46-2.183-2.955-4.346-4.367-6.564-.564-.893-1.07-1.867-1.367-2.876-.424-1.414-.28-2.856.574-4.128.732-1.09 1.468-2.18 2.27-3.216 1.02-1.323 2.105-2.6 3.178-3.877.145-.17.39-.256.59-.382.074.077.204.155.204.235.03 1.87 1.443 3.215 1.82 4.995.472 2.264 1.886 3.104 4.224 2.837 2.25-.256 4.477-.677 6.722-.98.692-.1 1.468-.252 2.104-.05 2.466.787 4.715-.05 6.987-.753.68-.21 1.317-.564 1.96-.877 1.92-.944 2.785-1.23 2.792-.925.034 1.143-.758 1.95-1.196 2.906zm2.165-11.935c-.632.587-1.127.515-1.792-.27-.634-.74-.637-1.367.028-1.796.497-.325 1.067-.55 1.532-.914.363-.28.647-.68.903-1.072.35-.533.375-1.115.03-1.68-.365-.6-1.182-.94-1.862-.77-.344.09-.693.198-1.003.355-.427.22-.81.514-1.227.743-.665.367-1.333.29-1.552-.173-.32-.688.117-1.103.57-1.5.633-.55 1.268-1.092 1.904-1.634.365-.31.75-.594 1.1-.916.352-.325.7-.656 1.003-1.024.814-.99.957-1.968.437-2.58-.738-.867-1.722-.828-2.632-.547-.774.237-1.496.708-2.183 1.163-.794.53-1.474 1.23-2.293 1.707-.443.258-.94-.117-1.1-.604-.09-.27-.074-.775.095-.903 1.325-1.01 2.715-1.934 4.048-2.933.67-.5 1.265-1.097 1.888-1.65 1.17-1.03 1.914-2.28 2.03-3.845-.027-.033-.047-.067-.073-.1-.004-.048-.017-.09-.02-.14-2.19-1.084-4.197-.806-6.13.74-1.393 1.118-2.82 2.17-3.906 3.62-.125.168-.647.245-.832.13-.77-.49-1.09-1.33-.747-1.75.296-.367.594-.75.958-1.036 2.432-1.903 4.88-3.784 7.324-5.667.437-.337.99-.367 1.248.064.76 1.263 1.9 2.337 2.083 3.9.037.02.075.03.11.05 0 .063-.012.125-.016.19 3.05 3.96 4.21 7.61 4.165 12.04-.04 3.606-1.55 6.41-4.088 8.798zM55.244 85.41c-.947.114-1.92.192-2.82.47-2.337.722-4.724.66-7.122.75-1.902-.145-3.81-.226-5.702-.453-2.485-.304-4.947-.844-7.44-1.06-3.413-.287-2.976-.534-1.795-3.053.808-1.726 1.76-3.387 2.73-5.032.417-.713.99-1.35 1.564-1.946.997-1.043 1.676-1.128 2.805-.32.87.62 1.653 1.367 2.505 2.015.66.5 1.326 1.013 2.057 1.376 1.216.61 2.365.196 3.325-.602.89-.748 1.133-1.768.843-2.924-.38-1.502-.815-3.004-1.04-4.53-.572-3.912-1.54-7.71-2.8-11.454-.72-2.14-1.58-4.264-1.773-6.56-.04-.463-.237-.924-.41-1.365-.67-1.733-1.762-2.574-3.547-2.365-1.888.222-3.83.475-5.593 1.13-2.834 1.046-5.736 1.572-8.706 1.916-1.542.18-3.093.34-4.605.676-1.03.227-2.046.65-2.98 1.156-1.604.868-1.916 2.565-.72 3.904.71.797 1.596 1.434 2.4 2.146.8.712.842 1.333.133 2.14-1.736 1.973-3.442 3.972-5.22 5.91-2.46 2.673-2.813 5.66-1.54 8.97.597 1.557 1.184 3.133 1.623 4.74 1.756 6.4 5.03 12.11 8.06 17.93 1.233 2.37 2.9 4.367 5.215 5.787.607.37 1.23.8 1.66 1.347 1.68 2.14 4.064 2.82 6.55 3.328 2.22.46 4.483.742 6.65 1.38 4.08 1.198 8.284.88 12.43 1.29 1.484.146 2.89-.31 3.95-1.365 1.293-1.282 2.297-2.757 2.17-4.733-.06-.954-.044-1.912-.08-2.87-.1-2.986-.06-5.95.414-8.933.316-1.987.213-4.056.15-6.083-.068-2.04-1.283-2.965-3.34-2.714zm-33.896 3.883c-.055.183-.292.472-.38.45-.206-.048-.438-.22-.547-.41-2.18-3.72-3.795-7.678-4.91-11.845-.25-.942-.38-1.85-.04-2.798.837-2.354 1.64-4.72 2.504-7.064.157-.427.517-.797.834-1.147 1.43-1.587 2.89-3.15 4.31-4.745 1.123-1.26 1.437-2.19-.268-3.568-.763-.613-.652-.86.2-1.13 1.48-.473 2.968-.805 4.544-.856 1.662-.05 3.31-.327 4.407-.445.93 0 1.285-.01 1.643 0 1.094.032 1.66.35 1.877 1.28 1.015 4.31 2.69 8.386 4.23 12.512.066.18-.057.432-.09.653-.19-.09-.43-.13-.555-.27-.547-.625-1.04-1.3-1.593-1.917-.992-1.114-2.317-1.255-3.494-.296-1.952 1.587-3.62 3.437-5.073 5.506-3.456 4.934-5.853 10.354-7.595 16.09zm9.7 1.764c-2.286 2.044-2.463 4.74-2.367 7.52.026.816.19 1.625.235 2.447.004.088-.39.325-.533.284-.71-.22-1.336-.643-1.364-1.44-.062-1.657-.018-3.32-.018-4.98h-.162c.077-1.424.13-2.846.23-4.27.074-1.14.332-1.263 1.62-.887.68.198 1.39.31 2.044.57.188.076.395.692.32.758zm19.547 14.67c-.165-.003-.46-.243-.465-.385-.05-1.427-.053-2.856-.067-4.288-.01-.987-.267-1.905-.923-2.645-.2-.228-.64-.39-.935-.344-.294.047-.757.37-.78.607-.172 1.78-.255 3.567-.357 5.355-.026.465.08.964-.064 1.382-.078.228-.565.44-.856.427-.297-.01-.754-.25-.84-.493-.146-.427-.16-.955-.058-1.4.512-2.244.272-4.527.38-6.79.01-.24.017-.48.003-.72-.067-1.28-.85-2.476-1.632-2.506-.782-.035-1.936.934-2.232 2.056-.242.914-.37 1.874-.405 2.82-.072 1.906-.043 3.815-.064 5.726-.003.105-.133.306-.155.3-.227-.065-.512-.102-.645-.262-.807-.948-1.095-2.1-1.104-3.316-.01-1.437.056-2.87.05-4.305-.003-.834-.057-1.67-.143-2.5-.06-.543-.848-1.356-1.134-1.188-.383.224-.783.555-.978.94-.87 1.725-1.378 3.556-1.35 5.514.016 1.197.004 2.39-.013 3.586-.01.552-.374.835-.924.734-.706-.125-1.426-.22-2.1-.45-.218-.075-.45-.555-.428-.827.095-1.18.327-2.35.426-3.53.16-1.9-.043-3.838.59-5.69.11-.327.063-.71.06-1.07-.028-1.646.124-1.9 1.26-1.583 4.663 1.29 9.42 1.5 14.214 1.348.357-.013.72.007 1.073.06.52.08.884.406.893.933.026 1.91.01 3.826.01 5.74-.025 0-.055 0-.08.005.113 2.146.236 4.288.315 6.434.008.11-.356.323-.542.32zM83.49 47.62c.004-.018.004-.037.004-.056 2.272.045 4.544.14 6.812.117 2.87-.02 4.337-1.235 5.11-4.002.32-1.145.698-2.28 1.11-3.394.876-2.35 1.83-4.67 2.685-7.023.695-1.902 1.46-3.8 1.89-5.763.578-2.677.89-5.408 1.264-8.125.15-1.087-.517-2.122-1.573-2.55-1.005-.413-1.983-.617-3.124-.242-1.152.38-2.222.837-3.206 1.534-.977.688-1.957 1.37-2.956 2.03-.484.317-.92.11-1.232-.304-.288-.384-.525-.8-.772-1.207-2.06-3.417-4.976-5.735-8.81-6.9-.798-.24-1.6-.514-2.34-.885-2.832-1.423-5.856-1.99-8.987-2.144-1.07-.052-2.144-.14-3.21-.242-4.708-.465-9.324-.075-13.712 1.76-2.963 1.244-5.88 2.635-8.743 4.1-1.71.874-3.122 2.186-4.272 3.76-.633.864-1.33 1.69-2.033 2.5-2.524 2.892-4.65 6.063-6.585 9.364-.537.917-1.015 1.914-1.295 2.937-.277 1.017-.33 2.11-.348 3.17-.006.43.213 1.005.533 1.273 2.28 1.9 4.402 4.023 7.494 4.704 1.378.303 2.74.885 3.98 1.58 1.812 1.012 3.813 1.346 5.762 1.844 1.606.414 2.53-.05 3.177-1.576.794-1.877 1.716-3.68 2.847-5.363 2.532-3.768 4.928-7.615 7.17-11.562.294-.516.64-1.017 1.04-1.453.643-.704 1.313-1.387 2.042-1.995.2-.166.714-.15.975-.01.41.212.818.54 1.06.924 1.983 3.13 3.92 6.282 5.878 9.42.297.478.24.897-.13 1.275-.586.597-1.202 1.16-1.786 1.757-.755.768-1.536 1.517-2.22 2.344-1.316 1.597-1.362 2.753-.295 4.566.116.207.287.39.385.604.882 2.02 2.51 2.675 4.608 2.734 3.94.107 7.875.33 11.81.504zM54.664 23.413c-.595.893-1.285 1.72-1.915 2.584-2.67 3.66-5.757 7.03-7.766 11.147-.05.107-.117.205-.184.31-.566.925-1.107 1.187-2.076.806-1.664-.645-3.3-1.373-4.95-2.067-.765-.323-1.554-.604-2.277-1.003-.213-.12-.412-.674-.307-.867.2-.387.672-.98.928-.93 1.62.316 3.214.768 4.802 1.218.456.13.86.424 1.303.59.565.213 1.152.32 1.69-.094.467-.358.652-1.306.406-1.986-.394-1.068-1.13-1.828-2.133-2.307-.747-.355-1.534-.613-2.298-.933-.08-.035-.185-.242-.157-.288.107-.16.3-.42.398-.395 1.036.24 2.05.54 3.08.805.8.207 1.596.483 2.404.55.995.08 1.65-1.17 1.21-2.073-.607-1.246-1.68-1.973-2.804-2.667-.156-.096-.293-.418-.252-.592.037-.16.325-.39.495-.383.946.047 1.888.152 2.83.25.47.05.966.238 1.406.15.416-.084.84-.387 1.154-.703.392-.4.235-.95-.067-1.31-.53-.635-1.173-1.17-1.742-1.77-.15-.16-.325-.545-.267-.607.223-.22.52-.397.82-.5.213-.08.47-.02 1.096-.02 1.805-.146 3.49 1.02 5.155 2.19.15.106.154.68.01.897zm2.93-3.454c-.07-.21-.242-.46-.182-.62.06-.145.37-.254.566-.254.14 0 .273.216.47.386-.313.18-.585.334-.854.485zm6.732-5.466c-.117-.125-.165-.462-.083-.608.1-.178.355-.34.565-.37 1.55-.212 3.075.01 4.627.172 3.893.415 7.328 2.023 10.7 3.832.515.277 1.06.625 1.41 1.077 1.678 2.156 3.928 3.877 5.09 6.424.927 2.04 2.317 2.124 3.81 1.806 1.615-.335 3.15-1.042 4.725-1.576.174-.06.38-.024.575-.034.006.218.082.465.006.653-.53 1.334-.982 2.683-1.004 4.146-.01.467-.145.95-.32 1.39-1.152 2.88-2.347 5.745-3.505 8.622-.31.766-.84 1.096-1.647 1.09-2.51-.01-5.02 0-7.528 0 0 .037 0 .074.002.11-2.272 0-4.544.012-6.816-.015-.33-.002-.667-.192-1-.3.213-.38.367-.812.64-1.132.31-.36.734-.62 1.1-.924.27-.23.543-.466.797-.72 1.604-1.61 2.067-3.455.533-5.1-2.102-2.26-3.01-5.12-4.604-7.62-2.45-3.836-4.853-7.67-8.072-10.923z"/></svg>