<svg xmlns="http://www.w3.org/2000/svg" width="128" height="128" viewBox="0 0 128 128"><path d="M72.1 93.602c1.53.213 2.647-.39 2.937-1.493.128-.49.285-.97.395-1.46.912-3.99.805-8.04.368-12.054-.34-3.1-1.003-6.165-1.604-9.23-1.114-5.697-3.043-11.067-6.45-15.837-1.18-1.654-2.39-3.274-4.146-4.36-.968-.6-1.34-1.456-1.39-2.526-.018-.405-.038-.81-.064-1.213-.352-5.786-1.664-11.35-3.813-16.735-2.03-5.072-4.75-9.805-7.05-14.745-1.524-3.265-4.108-5.722-6.56-8.266-.637-.658-1.548-.683-2.16-.02-1.845 1.996-4.077 3.676-5.408 6.105-2.037 3.71-4.107 7.42-5.928 11.24-3.42 7.18-4.88 14.92-6.086 22.71.05 3.387-.03 2.856-2.712 6.11-.384.47-.87.848-1.263 1.306-2.368 2.776-4.576 5.658-5.81 9.15-1.804 5.09-2.813 10.306-2.61 15.748.245 3.214.465 6.432.743 9.646.192 2.21.433 4.417.73 6.612.074.576.375 1.144.67 1.66.388.67 1.04.913 1.812.844.778-.07 1.328-.452 1.603-1.182.213-.565.384-1.15.576-1.724 1.442-4.36 4.446-7.104 8.777-8.482.706-.226 1.33-.12 2.037.147 1.53.578 2.29 1.542 2.133 3.2-.055.6-.04 1.21-.05 1.813-.047 2.833-.49 5.617-1.03 8.39-.172.875-.13 1.81-.054 2.704.075.875.776 1.284 1.75 1.173.99-.117.996-.117 1.105.67.223 1.595.367 3.21.69 4.782.264 1.277.73 2.513 1.14 3.755.09.274.308.512.496.745.37.46 1.265.542 1.63.105.577-.695 1.087-1.445 1.652-2.155.04-.053.358.007.418.098.215.34.437.693.55 1.075.93 3.14 2.78 5.817 4.372 8.623.456.798 1.038 1.486 1.946 1.828 1.09.413 1.978-.014 2.304-1.15.11-.386.124-.814.3-1.163.964-1.935 1.282-4.02 1.47-6.14.052-.6.17-1.196.287-1.787.08-.398.64-.562.928-.293.585.555 1.15 1.133 1.755 1.666.365.32 1.05.28 1.387-.082.34-.36.704-.74.91-1.18.34-.727.62-1.492.82-2.27.225-.86.69-1.06 1.548-.995.72.055 1.154-.437 1.224-1.053.08-.687.08-1.392.21-2.068.562-3.008.612-3.016-.033-5.963-.255-1.173-.7-2.31-1.123-3.44-.564-1.505-1.334-2.956-1.726-4.5-.202-.8.225-1.76.364-2.647.016-.1.02-.21-.004-.303-.343-1.284-.154-2.337 1.096-3.1.394-.24.592-.805.876-1.22.32-.466.79-.6 1.315-.548.502.05 1.006.107 1.494.22 2.028.473 3.724 1.518 5.13 3.045 1.44 1.557 2.946 3.06 3.836 5.042.25.55.616 1.075 1.29 1.17zM22.24 65.58c.533-.227 1.074-.466 1.636-.59.123-.03.34.365.46.505-.025.52-.062.99-.582.95-.47-.035-.934-.238-1.38-.417-.097-.037-.155-.437-.135-.448zM18.816 79.1c-.343.47-.7.938-1.077 1.382-.077.088-.27.093-.407.09-.037 0-.096-.16-.107-.252-.035-.29-.053-.582-.094-1.052.075-.21.11-.663.355-.89.228-.212.687-.264 1.032-.238.332.025.505.67.295.957zm-.41-6.24c-.117.074-.392.063-.49-.026-.125-.113-.208-.346-.2-.523.06-1.59.32-1.976 1.756-2.355 1.252-.326 2.528-.557 3.795-.838.91-.2 1.178.043 1.205.883 0 .323.014.426-.002.522-.064.395-.128.832-.693.584-1.342-.584-2.526-.313-3.645.56-.552.428-1.137.818-1.728 1.194zm2.848 3.463c-.075.03-.187-.035-.283-.055-.083-.046-.227-.08-.24-.14-.03-.155-.07-.403.01-.468 1-.8 2.018-1.584 3.045-2.35.368-.274.818-.165.997.188.27.53.272 1.234-.03 1.365-1.16.5-2.326.98-3.495 1.46zm3.77 2.25c-.11.03-.287-.156-.434-.247l.768-.732c.072.164.14.33.25.6-.178.128-.363.314-.58.38zm20.932-59.23c.853-.205 1.703-.436 2.566-.578.188-.03.553.213.62.405.142.395-.276.512-.527.523-.885.034-1.773.006-2.66-.015-.185-.005-.37-.1-.554-.15.186-.065.367-.14.557-.182zm-7.118.126c.245-.1.498-.18.635-.226.323.058.517.07.693.137.087.036.213.223.196.246-.2.282-1.387.3-1.572.032-.025-.042.008-.177.047-.19zm18.806 84.996c.117.456-.222.753-.717.644-.42-.09-.82-.122-1.104.24-.803 1.026-1.657 2-1.72 3.438-.036.808-.45.94-1.267.57-.816-.367-1.666-.638-2.19-1.51-.398-.655-1.28-.61-1.697.24-.39.8-.685 1.678-.836 2.556-.307 1.784-.475 3.593-.734 5.387-.055.386-.23.767-.41 1.117-.054.102-.318.117-.486.122-.075 0-.173-.108-.224-.19-1.285-2.05-2.624-4.068-3.825-6.17-.693-1.215-1.167-2.56-1.73-3.85-.46-1.04-1.227-1.207-2.146-.427-.307.26-.56.58-.834.875-.328.36-.565.06-.683-.162-.18-.347-.303-.743-.363-1.133-.272-1.794-.51-3.59-.77-5.387-.152-1.06-.526-1.95-1.76-2.144-.48-.074-.66-.468-.612-.88.15-1.3.344-2.593.548-3.88.072-.467.43-.652.868-.667.606-.016 1.21-.002 1.525-.002 1.147.257 2.23-.426 2.85.436.436.61.526 1.5.68 2.282.483 2.51 1.734 4.72 2.76 7.013.284.627.77 1.187 1.26 1.682.928.946 2.387.784 3.125-.366.43-.672.706-1.444 1.02-2.183 1.142-2.688 2.298-5.373 3.398-8.08.28-.684.722-.88 1.387-.86.545.02 1.05.157 1.145.742.28 1.727 1.212 3.184 1.85 4.767.748 1.852 1.176 3.837 1.686 5.78zM42.646 94.174c-.103-.31.267-.843.603-.867.795-.06 1.592-.1 1.9-.117.987 0 1.487-.016 1.985 0 .608.023.766.318.54.98-.16.473-.308.952-.5 1.41-.636 1.514-.56 3.32-1.845 4.57-.72-1.53-1.445-3.052-2.154-4.588-.206-.448-.37-.92-.53-1.387zm8.28-7.654c.58.047 1.22-.11 1.514.66.336.894.395 1.587.023 1.65-.672.106-1.38.173-2.044.067-.23-.035-.43-.62-.535-.98-.35-1.21-.192-1.4 1.042-1.398zm6.65-23.32c-.093 1.002-.278 1.997-.32 3.002-.102 2.632-.534 5.218-.974 7.805-.302 1.79-.538 3.59-.873 5.373-.26 1.373-.58 1.636-2.065 1.664-2.423.043-4.85.01-7.277.01v.145h-6.975c-.614-.005-1.23-.023-1.43-.787-2.986-2.33-3.482-5.816-4.076-9.163-.758-4.27-1.11-8.596-1.455-12.927-.37-4.65-.288-9.293-.267-13.937.015-2.824.538-5.62 1.146-8.38.78-3.545 1.686-7.065 2.928-10.49.24-.65.664-1.01 1.278-1.14.587-.127 1.2-.19 1.803-.204 3.84-.075 7.68-.11 11.52-.21.84-.022 1.312.336 1.65 1.03 1.786 3.646 3.116 7.42 3.786 11.45.63 3.78 1.216 7.566 1.685 11.37.307 2.502.59 5.03.57 7.545-.02 2.615-.412 5.227-.653 7.84zm5.843-1.183c.49.177.975.352 1.795.65-.728.382-1.13.634-1.565.783-.074.026-.394-.384-.43-.62-.04-.255.122-.543.196-.813zm-.575 6.046c.146-.33.412-.838.65-.853 1.075-.062 1.833-.757 2.73-1.173.916-.427 1.49-.186 1.878.774.112.276.173.578.277.855.143.384-.104.602-.383.587-1.594-.09-2.88.71-4.224 1.37-.832.412-1.03.268-.996-.817.008-.15-.043-.48.068-.74zm2.26 9.59c-.295.18-.75.204-1.11.148-.587-.092-1.156-.31-1.733-.473-.636-.18-.815-.424-.736-1.543.146-.704.366-1.888.648-3.06.06-.248.316-.586.538-.636 2.08-.478 3.797-1.82 5.824-2.417.34-.1.745.225.75.71.003.255-.156.72-.29.737-1.764.235-3.193 1.088-4.51 2.23-.357.31-.916.378-1.358.607-.132.067-.29.387-.246.448.166.212.395.476.634.513.38.06.817.035 1.178-.096 1.412-.518 2.837-1.03 4.195-1.668 1.032-.49.99-.203 1.365.79.165.434.09.94-.368.91-1.478-.1-2.466.665-3.41 1.626-.42.432-.865.864-1.372 1.175zm5.354-.84c-.067.143-.14.287-.207.426-.06-.066-.18-.155-.166-.197.048-.157.142-.302.218-.448.053.07.105.143.156.216zm-2.77 3.19l-.212-.042-.6-.643-.027-.085c-.12-.042-.244-.08-.364-.122.085-.075.17-.155.256-.235.035.12.072.24.11.356l.082.027.634.61.122.136c.91.18 1.82.333 2.7-.19.468-.28.71-.05.83.405.125.485.27.966.364 1.456.147.785-.105 1.71-.376 1.596-.44-.182-.885-.432-1.218-.765-.797-.802-1.54-1.662-2.3-2.504zm24.64-57.567c.485-.328.878-.832 1.225-1.32.376-.53.718-.512 1.248-.227 2.352 1.28 3.28 1.176 5.126-.487.15-.136.272-.296.41-.444.39-.42.805-.52 1.326-.193 1.675 1.07 3.267.7 4.796-.34.25-.172.466-.39.707-.572.426-.32.735-.11 1 .248.475.653.904 1.342 1.433 1.952.39.448.87.846 1.37 1.173.908.594 2.012.312 2.643-.598.516-.75.552-1.508.034-2.257-1.32-1.912-2.523-3.886-3.547-5.978-.203-.414-.663-.736-1.062-1.013-.542-.384-1.142-.373-1.68.04-.32.248-.606.533-.882.825-.555.586-1.077 1.204-1.643 1.78-.742.76-1.16.683-1.51-.256-.174-.466-.287-.97-.527-1.4-.558-.997-2.084-1.174-2.863-.336-.337.363-.576.818-.853 1.237-.445.67-.88 1.345-1.332 2.006-.163.24-.316.19-.427-.094-.18-.466-.3-.976-.575-1.38-.79-1.17-2.22-1.14-3.006.043-.278.418-.43.914-.694 1.343-.26.43-.57.832-.898 1.207-.117.14-.357.235-.538.23-.088-.003-.254-.29-.24-.433.123-1.115.168-2.204-.4-3.234-.42-.765-1.51-.92-2.01-.203-.338.48-.652 1.04-.75 1.604-.158.886-.127 1.81-.155 2.354 0 1.172-.058 1.98.01 2.783.198 2.387 2.628 3.045 4.27 1.928zm22.625 81.405c-1.16-2.105-2.428-2.707-4.73-2.096-.76.2-1.472.63-2.157 1.04-.6.363-1.12.853-1.69 1.265-.3.217-.895 0-1.006-.35-.09-.284-.16-.575-.238-.863-.23-.873-.373-1.78-.715-2.603-.47-1.134-1.933-1.276-2.738-.323-.324.385-.558.84-.864 1.24-1.16 1.52-2.33 3.033-3.504 4.54-.177.23-.608.107-.702-.186-.125-.382-.335-.768-.333-1.155.002-.897.103-1.797.177-2.69.066-.8.207-1.596-.293-2.34-.352-.524-1.195-.66-1.547-.175-.235.32-.52.657-.597 1.03-.262 1.266-.443 2.554-.656 3.833l.195.026c0 .405-.034.81.005 1.21.085.798.122 1.618.336 2.383.577 2.037 2.86 3.373 4.993 1.62.387-.32.736-.688 1.06-1.073.322-.382.57-.83.893-1.214.285-.338.646-.463 1.027-.112.442.41.838.89 1.328 1.23 1.78 1.237 4.028 1.275 5.505-.33.475-.517.992-1.004 1.53-1.452.243-.206.576-.177.753.156.236.44.377.944.674 1.33.71.932 1.637 1.452 2.87 1.34 1.15-.108 2.457-1.603 1.71-2.887-.46-.785-.86-1.596-1.296-2.39zm-1.74-68.13c-.578.136-1.157.355-1.68.638-.617.333-1.187.762-1.75 1.18-.93.698-1.75.713-2.273-.73-.102-.284-.23-.564-.378-.822-.608-1.085-1.502-1.31-2.507-.603-1.07.75-2.11 1.55-3.18 2.302-.095.066-.413.002-.474-.096-.21-.338-.39-.705-.512-1.083-.215-.667-.31-1.442-1.16-1.597-1.02-.185-1.293.703-1.79 1.318-1.017 1.245-2.1 2.435-3.175 3.63-.33.363-.806.25-.894-.21-.11-.582-.223-1.18-.2-1.77.02-.59.267-1.174.31-1.766.06-.792-.558-1.47-1.435-1.7-.464-.123-1.182.09-1.33.468-.588 1.483-1.57 2.85-1.328 4.676 0 .297-.046.706.008 1.1.363 2.7 2.276 4.092 4.923 3.49.65-.146 1.302-.543 1.812-.99.597-.524 1.104-1.182 1.525-1.86.363-.587.742-.57 1.214-.274 1.602 1.005 3.064.68 4.456-.432.157-.126.3-.27.448-.405.47-.425.896-.323 1.3.096.628.66 1.258 1.34 2.226 1.455 1.633.188 3.252.224 4.534-1.06.645-.645 1.202-.763 2.118-.34 1.07.493 2.074-.35 1.954-1.487-.07-.683-.27-1.378-.54-2.016-.395-.938-1.243-1.35-2.22-1.114zm3.13 32.88c-.974-.29-1.52-.9-2.05-1.645-.234-.325-.517-.62-.812-.894-.77-.7-1.58-.782-2.48-.176-.58.387-1.11.86-1.632 1.33-.692.626-.68.623-1.44.046-1.67-1.27-2.772-.99-3.447.865-.346.95-.685 1.895-1.058 2.83-.105.263-.32.484-.484.724-.23-.307-.6-.59-.66-.925-.162-.992-.204-2.005-.28-2.86.03-.657.065-1.162.08-1.665.01-.3.034-.61-.03-.9-.035-.16-.223-.367-.375-.4-.15-.032-.44.078-.504.205-.583 1.19-.796 2.464-.9 3.782-.117 1.502-.386 2.994-.552 4.49-.26 2.33 2.47 3.297 4.02 2.366.823-.5 1.337-1.203 1.864-1.936.258-.363.608-.555 1.03-.402 1.804.646 3.1-.192 4.325-1.378.67-.648.77-.69 1.516-.14.97.724 2.018.88 3.147.766.893-.09 1.523-.797 1.724-1.847.213-1.126-.025-1.94-1.003-2.233zm-59.87-52.975c.395.267.923.45 1.397.46 1.61.03 3.224-.007 4.836-.074 1.403-.06 2.804-.255 4.21-.284 2.218-.05 4.438-.047 6.655 0 1.203.024 2.402.216 3.605.274 2.213.11 4.427.212 6.645.24.917.014 1.424-.672 1.393-1.62-.025-.8-.457-1.347-1.23-1.476-3.994-.66-8.022-.77-12.06-.823-2.822.1-5.654.077-8.463.335-2.293.21-4.558.753-6.833 1.154-.452.08-.763.4-.704.82.048.36.26.803.546.996zM81.98 36.32c-1.163-.306-2.363-.622-3.552-.647-3.33-.072-6.663-.04-9.992.037-1.42.032-2.784.453-4.043 1.134-.445.24-.923.597-.753 1.16.134.444.444.942.823 1.178.49.312 1.122.47 1.71.533.9.103 1.814.072 2.72.107 4.028.154 8.076-.23 12.497.512.288-.062.992-.146 1.647-.366 1.476-.496 1.696-1.717.485-2.74-.45-.383-.986-.756-1.544-.906zm.73 66.804c-1.29.186-2.588.33-3.872.55-3.46.604-7.04.073-10.462 1.075-.456.133-1.02-.034-1.316.49-.19.33.224 1.078.932 1.394.997.448 2.025.914 3.09 1.102 1.575.277 3.19.314 5.25.496 1.93-.25 4.36-.245 6.656-1.073.75-.27 1.49-.607 2.165-1.025.41-.248.712-.69 1.02-1.08.284-.364.102-1.103-.275-1.336-.986-.613-2.055-.758-3.186-.598zm9.056-35.19c-.41-.232-.97-.247-1.465-.258-1.406-.03-2.814-.013-4.222-.013-2.818-.032-5.62.088-8.388.683-.38.083-.857.132-.854.646.002.263.178.563.357.783.46.57 1.077.888 1.813.956.802.077 1.62.083 2.4.25 2.39.518 4.806.32 7.214.29 1.212-.017 2.402-.282 3.43-.97.404-.27.837-.703.62-1.243-.17-.433-.51-.896-.904-1.12zM43.27 53.278c-.748.043-1.334.384-1.9.826-1.584 1.26-2.336 2.984-2.776 4.885-.68 2.96 1.104 5.177 4.555 5.22.425-.055 1.24-.087 2.02-.266.99-.226 1.872-.69 2.583-1.467 1.515-1.655 1.933-4.224 1.013-6.19-.94-2.013-3.38-3.137-5.5-3.01zm2.08 5.88c-.236.48-.62.788-1.164.705-.533-.08-.834-.48-.958-.992-.046-.186-.035-.39-.056-.65.048-.224.09-.52.173-.8.117-.39.843-.646 1.248-.46.91.412 1.21 1.272.757 2.196zm.398-24.993c-1.635-.518-2.96.023-4.08 1.167-.554.57-1.034 1.233-1.44 1.92-.293.498-.532 1.09-.586 1.66-.29 3.136 1.845 5.378 5.15 5.342 1.48.037 2.84-.48 3.78-1.83 2.118-3.044.7-7.142-2.826-8.258zm.37 5.088c-.213 1.01-1.11 1.764-1.882 1.583-.843-.196-1.216-1.19-.832-2.26.066-.19.15-.4.293-.52.294-.246.612-.54.964-.623.538-.123.975.203 1.24.664.144.253.194.563.263.783-.02.173-.025.276-.046.372z"/></svg>