<svg xmlns="http://www.w3.org/2000/svg" width="128" height="128" viewBox="0 0 128 128"><path d="M95.69 81.106c0-.1-.012-.203-.028-.302-.555-3.48-1.01-6.98-1.685-10.432-1.05-5.355-2.55-10.57-5.593-15.202-1.55-2.357-3.02-4.785-5.557-6.264-.565-.333-.843-.796-.904-1.458-.164-1.806-.37-3.608-.562-5.408-.286-2.712-.845-5.368-1.622-7.98-1.474-4.948-3.573-9.63-5.954-14.2-.558-1.072-1.165-2.132-1.59-3.255-1.665-4.363-4.812-7.646-7.88-10.99-.57-.618-1.49-.575-2.16.1-1.42 1.428-2.815 2.89-4.2 4.362-.34.363-.634.785-.892 1.216-2.692 4.507-5.19 9.115-7.2 13.97-2.678 6.47-4.144 13.25-4.96 20.182-.258 2.242-.692 4.343-2.497 5.928-.6.523-1.088 1.182-1.62 1.78-2.166 2.42-4.13 4.99-5.375 8.005-2.065 4.992-2.927 10.24-3.112 15.248.17 2.588.29 4.802.47 7.013.255 3.11.517 6.222.85 9.33.106.993.365 1.983.703 2.924.256.715.926 1.003 1.71 1 .753 0 1.408-.157 1.76-.9.173-.364.31-.74.447-1.12.203-.566.37-1.15.592-1.71 1.665-4.166 4.86-6.558 9.06-7.772.182-.05.4-.053.59-.014 1.775.36 2.815 1.46 3.025 3.274.072.592.153 1.257-.04 1.79-.32.892-.237 1.79-.327 2.686-.144 1.4-.376 2.79-.52 4.192-.132 1.3-.245 2.608-.272 3.917-.008.466.178.99.433 1.393.302.48.874.365 1.38.316.623-.063.892.35 1.027.863.1.39.136.792.196 1.19.228 1.492.37 3.002.708 4.473.244 1.064.684 2.098 1.137 3.1.365.8 1.412.903 2.04.27.28-.283.517-.61.77-.928.3-.37.437-1.116 1.018-.897.336.128.51.79.683 1.242 1.117 2.942 2.675 5.647 4.304 8.32.477.783 1.012 1.486 1.878 1.912.917.456 2.023.26 2.272-.672.516-1.933 1.525-3.712 1.653-5.776.088-1.398.444-2.776.708-4.157.012-.064.364-.162.428-.102.53.468 1.01.987 1.53 1.458 1.018.915 2.076.725 2.687-.544.437-.908.794-1.855 1.105-2.814.23-.703.625-.848 1.338-.842.933.006 1.126-.245 1.23-.977.1-.692.106-1.41.29-2.08.515-1.9.41-3.76.02-5.676-.526-2.593-1.777-4.91-2.67-7.36-.174-.48-.398-.867-.21-1.4.134-.374.182-.788.197-1.185.035-1.007-.237-2.117.107-2.995.376-.962 1.306-1.707 1.992-2.546.064-.08.117-.192.2-.224.36-.14.753-.403 1.096-.356 2.778.39 5.213 1.46 7.044 3.698 1.34 1.635 2.882 3.117 3.725 5.12.103.243.39.472.65.58 1.473.6 2.945-.05 3.33-1.535.926-3.533 1.155-7.144 1.055-10.784zM41.228 65.864c.568-.4 1.145-.82 1.877-.736.22.02.553.288.582.48.032.213-.163.578-.363.685-.226.117-.565.028-.91.028-.34-.04-.733-.08-1.122-.13-.095-.01-.18-.076-.27-.11.07-.073.127-.157.208-.214zm-3.894 14.373c-.053.05-.407-.078-.47-.203-.41-.797-.13-1.76.62-2.03.23-.082.574.062.825.187.154.08.226.318.42.606-.448.47-.903.976-1.395 1.443zm.608-7.37c-.127.077-.404.055-.526-.037-.128-.102-.227-.344-.213-.514.038-.39.12-.785.244-1.157.197-.6.56-1.034 1.227-1.17 1.56-.32 3.108-.684 4.673-.976.2-.035.57.213.675.422.17.346.18.763.23.998-.033.363-.05.56-.073.755-.038.303-.165.356-.393.18-1.467-1.13-2.8-.58-4.107.33-.573.396-1.14.802-1.736 1.165zm5.92 2.075c-.86.506-1.754.964-2.663 1.372-.19.085-.615-.05-.735-.226-.098-.14.01-.584.17-.72 1.004-.842 2.043-1.642 3.084-2.43.11-.086.387-.137.443-.076.125.14.172.356.212.55.046.196.043.4.085.84-.123.148-.3.518-.594.692zm1.16 3.454c-.342.227-.98.046-.908-.22.064-.246.274-.538.497-.638.13-.06.413.22.617.338-.082.224-.094.448-.206.52zm20.11-59.168c1.075-.17 2.153-.337 3.235-.46.14-.017.355.2.435.357.053.098-.088.422-.146.422-1.198.02-2.398.01-3.595-.004-.096 0-.19-.068-.306-.115.14-.075.25-.18.376-.2zm-6.354-.086c.195.18.398.347.555.548.018.02-.202.316-.35.366-.337.115-.58-.064-.577-.413 0-.143.203-.284.373-.5zm18.315 85.014c.033.416-.124.793-.61.868-1.51.23-2.177 1.264-2.52 2.613-.123.487-.24.977-.385 1.46-.154.505-.433.654-.853.42-.86-.48-1.824-.748-2.496-1.616-.545-.704-1.65-.42-1.91.463-.39 1.344-.678 2.723-.925 4.107-.285 1.58-.478 3.18-.718 4.772-.014.094-.12.26-.135.254-.175-.06-.417-.1-.495-.23-1.933-3.294-4.344-6.317-5.707-9.937-.107-.283-.248-.55-.395-.813-.235-.416-.922-.584-1.312-.26-.532.442-1 .96-1.503 1.436-.068.066-.222.15-.26.12-.127-.093-.298-.222-.32-.36-.417-2.38-.826-4.758-1.2-7.145-.144-.897-.597-1.398-1.467-1.705-.923-.32-.885-.402-.77-1.27.127-1.002.237-2.002.354-3 .11-.958.478-1.3 1.323-1.222.693.115 1.38.283 2.078.33.582.04 1.288-.29 1.73-.056.755.402.736 1.358.904 2.14.583 2.682 1.687 5.162 2.97 7.567.28.528.63 1.038 1.038 1.47.848.9 2.46.787 3.198-.217.293-.4.496-.87.687-1.33 1.253-3.074 2.504-6.153 3.723-9.24.23-.576.63-.713 1.163-.72.85-.01 1.18.15 1.374.864.453 1.657 1.195 3.185 1.912 4.744.79 1.718 1.39 3.564 1.53 5.494zM66.81 93.092c.356.01.643.512.518.89-.614 1.898-1.234 3.796-1.872 5.686-.04.12-.283.272-.4.25-.174-.03-.403-.168-.472-.32-.82-1.82-1.62-3.648-2.41-5.483-.225-.525.082-.915.738-.962.7-.053 1.4-.072 2.1-.107v.043c.6 0 1.2-.015 1.797.002zm3.313-6.666c.396-.02.792-.03 1.182.01.587.056.83.45.873 1 .016.197.027.392.04.63.017.532-.264.89-.814 1.015-.586.14-1.2.24-1.604-.35-.216-.32-.352-.706-.467-1.08-.22-.722.084-1.18.79-1.226zm7.463-27.538c-.31 2.904-.75 5.8-.928 8.712-.21 3.435-.885 6.795-1.363 10.184-.07.5-.08 1.018-.227 1.496-.445 1.434-.61 1.647-2.088 1.666-.506.006-1.01.037-1.513.045-3.23.053-6.462-.08-9.68.32-1.096.135-2.22.025-3.33.037-.645.005-1.21-.075-1.334-.875-.032-.188-.117-.426-.26-.527-2.158-1.557-2.54-4.04-3.26-6.322-.363-1.14-.544-2.36-.69-3.555-.3-2.4-.44-4.82-.79-7.215-.79-5.424-.455-10.882-.575-16.326-.08-3.652.347-7.226 1.15-10.795.753-3.353 1.685-6.644 2.683-9.92.26-.854.77-1.33 1.73-1.394 2.813-.188 5.623-.448 8.436-.676.003.056.01.11.013.17.303 0 .607-.027.91 0 1.592.145 3.213-.278 4.78.253.65 1.358 1.313 2.707 1.953 4.072.95 2.02 1.572 4.155 1.963 6.34.64 3.57 1.35 7.136 1.757 10.733.51 4.507 1.152 9.024.665 13.582zm12.624 18.07c-.165.054-.328.13-.496.155-.052.01-.122-.12-.183-.184.17-.068.334-.15.51-.186.04-.008.113.14.17.216zm-6.49-14.815c.572.34.654.795.16 1.09-.316.19-.7.263-1.053.39-.11-.366-.213-.73-.256-.87.045-1.005.343-1.098 1.15-.61zM82.477 68.7v-.01c.053-1.285.07-1.253 1.296-1.726.835-.32 1.62-.757 2.438-1.127.48-.216.944-.02 1.22.526.18.352.378.725.43 1.107.025.2-.254.635-.4.637-1.477.023-2.676.79-3.94 1.382-.82.382-1.044.24-1.042-.657V68.7zm2.596 8.673c-.484.41-1.003.602-1.666.363-.65-.24-1.347-.36-2.012-.57-.147-.047-.363-.28-.34-.394.23-1.385.48-2.766.775-4.14.052-.25.317-.62.53-.653 2.033-.32 3.64-1.65 5.543-2.265.45-.146 1.09.454 1.037 1.006-.105.144-.206.41-.316.41-1.608.036-2.853.82-4.047 1.804-.523.434-1.22.655-1.81 1.016-.127.076-.226.368-.18.507.053.154.294.34.446.338.595-.027 1.22-.025 1.77-.21 1.33-.462 2.618-1.028 3.926-1.537.502-.197.9.107 1.022.742.08.44-.03.953-.46.942-1.366-.028-2.238.77-3.113 1.62-.36.35-.73.694-1.11 1.02zm5.822 5.525c-.035.1-.35.218-.42.166-1.087-.816-2.266-1.53-3.007-2.72-.043.005-.09.013-.134.017-.207-.21-.413-.43-.62-.642-.004-.05-.012-.1-.016-.15-.177-.13-.36-.254-.495-.42-.04-.048.15-.284.235-.432.064.06.173.11.186.18.038.22.055.447.075.67l.095.07c.208.213.416.43.627.643l.05.063c.45-.05.906-.135 1.35-.107.662.04 1.332-.956 1.87-.2.354.498.288 1.317.354 2 .03.283-.047.592-.15.86zM65.085 53.56c-1.82-.635-3.313-.27-4.668 1.065-1.692 1.662-2.336 3.693-2.26 6 .044 1.31.677 2.268 1.8 2.937 1.285.763 2.572.676 4.03.505 2.998-.355 4.88-2.734 4.708-5.59-.005-2.49-1.235-4.084-3.61-4.913zm-.37 5.822c-.15.217-.47.313-.64.42-1.132-.067-1.697-1.215-1.234-2.29.324-.75 1.13-.898 1.71-.31.586.598.677 1.425.17 2.18zm1.127-25.024c-2.136-.563-3.947-.38-5.2 1.8-.148.26-.348.49-.528.734-1.56 2.112-.98 3.973-.1 5.3 1.167 1.757 2.87 2.492 4.94 2.17 2.422-.372 4.16-2.575 4.17-5.15 0-.204.014-.406 0-.605-.154-2.005-1.426-3.76-3.28-4.248zm-.277 5.145c-.17.885-.914 1.453-1.703 1.306-.565-.11-.914-.525-.963-1.02-.094-.92.162-1.776 1.01-2.317.155-.096.377-.082.566-.117.83.14 1.295 1.063 1.088 2.147z"/></svg>