<svg xmlns="http://www.w3.org/2000/svg" width="128" height="128" viewBox="0 0 128 128"><path d="M94.662 39.366c-.252-2.34-.518-4.686-1.213-6.944-1.2-3.893-3.274-7.215-6.69-9.544-1.144-.782-2.4-1.42-3.645-2.03-4.576-2.258-9.387-3.573-14.53-3.488-1.18.02-2.358.003-3.538.003v.123c-2.037 0-4.08-.085-6.11.02-2.68.146-5.268.783-7.796 1.725-2.256.847-3.54 2.503-3.812 4.755-.428 3.495-1.124 6.976-.862 10.542.31 4.163.472 8.336.717 12.508.112 1.923.242 3.844.408 5.764.238 2.74.05 2.932-2.922 2.82-.858-.034-1.733-.13-2.57-.004-1.15.176-2.335.395-3.393.855-1.906.833-2.96 2.42-3.243 4.48-.576 4.185 2.133 7.33 6.392 7.423 1.5.032 3.003-.025 4.504-.002 1.614.03 1.933.324 2.005 1.82.085 1.824.153 3.644.195 5.465.03 1.216-.245 1.493-1.404 1.704-1.888.34-3.797.613-5.658 1.085-2.315.587-3.58 2.277-4.05 4.533-.51 2.432.243 4.452 2.315 5.9 1.47 1.025 3.1 1.394 4.883 1.123 1.27-.19 2.542-.364 3.82-.493.76-.077 1.13.302 1.192 1.14.26 3.526.487 7.052.768 10.576.11 1.383.235 2.78.52 4.133.632 3.004 2.89 4.765 5.88 4.964 3.377.223 5.93-2.166 6.57-4.566.488-1.822.368-3.623.244-5.426-.238-3.41-.66-6.812-.925-10.222-.252-3.264-.384-2.89 2.917-3.685.415-.1.857-.08 1.275-.16 1.888-.373 3.787-.72 5.66-1.16 1.407-.326 2.563-1.107 3.34-2.345 1.3-2.078 1.37-4.267.277-6.43-1.07-2.123-2.92-3.045-5.262-3.027-.538.002-1.07.064-1.606.08-2.155.065-4.24.557-6.31 1.092-.714.185-1.226-.095-1.316-.945-.156-1.483-.22-2.98-.255-4.472-.004-.22.34-.597.576-.64.624-.122 1.276-.107 1.916-.13 3.333-.142 6.587-.65 9.78-1.675 2.977-.955 5.733-2.313 8.428-3.883 3.138-1.826 5.656-4.233 7.35-7.43 1.352-2.55 2.672-5.13 3.807-7.776 1.106-2.58 1.68-5.32 1.373-8.158zm-13.23 5.658c-.88 1.46-1.558 3.04-2.324 4.572-.548 1.1-1.38 1.9-2.51 2.38-2.752 1.17-5.47 2.49-8.41 3.105-1.66.35-3.397.365-5.103.45-2.8.14-2.917.226-3.18-2.556-.314-3.403-.775-6.8-1.26-10.184-.44-3.068-.995-6.117-1.503-9.176-.156-.95-.333-1.895-.494-2.842-.285-1.675-.288-1.707 1.41-2.037.943-.178 1.903-.292 2.862-.334 1.282-.054 2.57-.013 4.434-.013 3.458-.384 7.3.427 11.04 1.884.3.116.594.244.898.337 3.272 1.003 4.82 3.41 5.237 6.627.35 2.677.382 5.325-1.103 7.79z"/></svg>