<svg xmlns="http://www.w3.org/2000/svg" width="128" height="128" viewBox="0 0 128 128"><path d="M73.64 100.593c-.123-1.074-.69-1.813-1.69-2.296-1.092-.533-2.134-.434-3.23-.053-.462.158-.9-.067-1.036-.56-.325-1.178-.617-2.358-.89-3.545-.892-3.897-1.774-7.8-2.656-11.698-.096-.427.352-.864.774-.772.864.193 1.728.598 2.58.566 3.096-.117 5.578-3.715 4.733-6.72-.69-2.458-2.79-3.58-5.182-2.673-.808.307-1.572.82-2.255 1.363-.507.405-.846 1.02-1.278 1.532-.493.58-.947.533-1.18-.164-.767-2.318-1.46-4.66-2.258-6.97-1.923-5.567-3.915-11.11-5.832-16.68-1.408-4.09-3.088-8.106-3.66-12.24-.168-.962-.298-1.73-.444-2.496-.126-.663.256-1.06.866-.968 1.518.235 2.692.98 3.53 2.27 1.087 1.68 1.372 3.505.93 5.434-.198.864-.564 1.688-.79 2.546-.196.75-.377 1.515-.427 2.28-.053.835.37 1.49 1.12 1.908.76.42 1.506.378 2.203-.096 1.34-.92 2.24-2.182 2.554-3.774.322-1.635.736-3.296.725-4.94-.014-2.225-.478-4.406-2.014-6.214-2.155-2.54-4.648-4.442-8.088-4.843-1.446-.17-1.872-.84-1.434-2.31.955-3.195 1.787-6.42 2.738-9.61.324-1.09.516-2.16.4-3.287-.11-1.095-.815-1.986-1.836-2.08-2.207-.2-4.43-.432-6.644-.416-3.03.02-4.07 1.19-3.544 4.205.704 4.024 1.003 8.195 3.375 11.756.06.09.08.21.116.31.207.508.025.874-.466 1.03-.736.236-1.504.385-2.242.62-2.533.813-5.11 1.504-7.317 3.136-1.792 1.327-2.99 3.047-3.36 5.19-.61 3.488-.305 6.886 1.756 9.93.997 1.473 1.93 2.998 3.616 3.845.543.27.638.89.48 1.467-.14.535-.343 1.056-.526 1.58-1.888 5.457-3.78 10.918-5.677 16.378-.146.42-.317.835-.5 1.237-.57 1.22-1.91 1.675-3.06 1-.57-.334-1.067-.793-1.636-1.13-.872-.512-1.792-.318-2.285.576-.748 1.362-1.374 2.79-2.073 4.18-.518 1.03.248 2.073 1.11 2.433.85.355 1.748.35 2.576-.11.484-.268.892-.676 1.388-.91.517-.248 1.155-.267 1.53.203.226.288.318.843.213 1.2-1.41 4.794-2.864 9.578-4.305 14.364-.163.53-.267 1.082-.47 1.596-.257.646-.596 1.032-1.488.902-1.064-.154-1.918.507-2.43 1.443-.37.676-.674 1.406-.896 2.144-.308 1.044-.127 2.156.794 2.703 1.58.94 1.715 2.082 1.073 3.616-.295.708-.45 1.493-.57 2.26-.155.983-.302 1.983-.267 2.975.017.49.332 1.088.703 1.43 1.173 1.076 3.367.73 4.027-.652.52-1.1.912-2.27 1.252-3.438 2.288-7.893 4.537-15.8 6.827-23.693.59-2.026 1.256-4.03 1.943-6.026.19-.54.667-.87 1.315-.776 2.748.39 5.504.75 8.245 1.184 1.155.183 1.77.793 1.713 2.065-.02.442 0 .89.032 1.336.07 1.01.626 1.62 1.6 1.877.323.084.63.25.953.305 2.286.392 4.208-.27 4.764-2.915.045-.216.085-.437.103-.66.155-1.96.962-2.183 2.648-2.142.555.014 1.114 0 1.668.026.9.046 1.41.582 1.643 1.406.152.532.26 1.08.377 1.623.804 3.688 1.585 7.38 2.41 11.064.854 3.79 1.77 7.57 2.608 11.362.327 1.483.81 2.766 2.4 3.325.677.24 1.003.843 1.2 1.51.188.64.288 1.32.585 1.905.288.58.728 1.112 1.186 1.58.504.516 1.756 0 1.835-.75.05-.427.016-.875-.074-1.296-.26-1.192-.602-2.368-.843-3.563-.192-.962.07-1.834 1.04-2.215 2.254-.885 2.852-2.618 2.652-4.827-.053-.55.008-1.115-.053-1.665zM46.137 18.57c.13-.097.42-.138.54-.06.138.092.17.348.247.53-.072.458-.272.807-.78.86-.063.01-.17-.095-.2-.17-.157-.422-.205-.853.193-1.16zm9.668 58.283c-.527.136-1.1.14-1.653.112-1.123-.06-1.538-.507-1.713-1.626-.17-1.09-.336-2.184-.6-3.253-.29-1.165-1.107-1.912-2.227-2.293-.73-.25-1.485-.478-2.248-.594-1.14-.17-2.176.924-1.875 2.092.378 1.455.345 2.86-.06 4.272-.164.576-.595.928-1.23.917-2.574-.02-5.07-.524-7.534-1.235-.926-.27-1.205-.805-.933-1.787.414-1.496.883-2.98 1.336-4.47 2.774-9.13 5.552-18.257 8.324-27.39.09-.307.1-.644.103-.97.005-.462-.85-.988-1.267-.795-1.155.536-1.972 1.434-2.527 2.554-.69 1.392-1.34 2.805-2 4.216-.283.602-.532 1.22-.825 1.82-.203.41-.862.495-1.125.16-1.4-1.79-2.353-3.82-2.584-6.052-.21-2.004.526-3.805 2.423-4.76 2.485-1.253 5.05-2.34 7.936-2.255.554.03 1.116.008 1.656.117.27.057.648.294.472.713-1.326 3.136-.83 6.32-.243 9.5.994 5.372 2.916 10.473 4.565 15.654 1.38 4.336 2.77 8.67 4.132 13.01.162.516.267 1.077.25 1.62-.007.256-.316.658-.56.72zm56.54 27.836c-.555-2.87-.403-5.77-.41-8.656-.016-11.584-.007-23.165-.007-34.748h-.086c0-10.468-.035-20.94.015-31.403.022-5.128-.195-10.235-.694-15.333-.096-.982-.354-1.96-.625-2.915-.202-.72-.86-.996-1.53-1.116-.48-.087-1.267.567-1.504 1.153-.085.208-.186.413-.216.632-.245 1.758-.493 3.518-.702 5.282-.078.66-.028 1.333-.075 2-.07 1.006-.375 1.304-1.486 1.41-2.325.214-4.65.394-6.976.61-.658.06-1.35.09-1.952.33-.867.342-1.43 1.05-1.51 2.032-.06.75.63 1.72 1.508 2.01.62.2 1.3.32 1.952.316 2.005-.004 4.008-.096 6.016-.132.427-.008.86.094 1.284.168.096.017.168.14.253.21-.075.08-.14.204-.224.228-1.067.275-2.144.513-3.206.812-.85.24-1.594 1.056-1.462 1.59.2.818.764 1.354 1.543 1.616.418.137.87.156 1.31.226.44.075.88.122 1.314.224.7.17 1.03.66 1.06 1.486.032.868-.187 1.255-.928 1.56-.512.21-1.05.37-1.557.587-.3.135-.59.315-.85.52-1.095.88-.868 2.82.43 3.35.705.29 1.486.4 2.22.64.17.06.42.37.386.48-.096.273-.282.63-.523.724-.508.192-1.07.25-1.61.344-.438.08-.89.092-1.313.21-.812.223-1.648 1.31-1.505 1.987.168.82.693 1.39 1.472 1.675.306.11.65.138.978.164.552.046 1.11.043 1.664.098.613.064 1.05.565 1.022 1.096-.035.625-.373 1.048-.928 1.254-.41.154-.864.192-1.295.277-1.2.237-2.41.425-3.596.73-1.126.287-1.71 1.194-1.572 2.23.126.91.793 1.53 1.84 1.613.775.058 1.558.038 2.337.038.67 0 1.336-.044 2.002-.04.632.007 1.093.39 1.182.933.16.94-.205 1.637-.988 1.845-.32.084-.655.132-.987.17-1.77.188-3.53.423-5.304.542-1.363.094-2.635.37-3.765 1.17-.72.506-1.083 1.298-.884 2 .242.86.91 1.25 1.71 1.372.656.1 1.334.096 2 .09.89-.012 1.778-.065 2.666-.13 1.06-.068 1.394 1.038 2.213 1.34.626.23 1.263.433 1.888.66.31.114.704.18.896.408.266.312.546.77.505 1.137-.036.354-.41.863-.736.957-.737.21-1.53.237-2.305.277-1.032.054-1.97.38-2.812.944-.593.395-.878.987-.766 1.722.1.665.63 1.215 1.34 1.28.774.076 1.554.07 2.333.108.668.027 1.338.008 1.993.107.61.09.943.543 1.007 1.157.066.6-.103 1.15-.695 1.37-.72.268-1.49.41-2.234.62-.633.184-1.283.34-1.883.608-.66.288-1.1 1.058-1 1.595.13.718.596 1.192 1.24 1.453.404.165.852.26 1.287.3.775.072 1.56.057 2.334.13.277.023.747.053.565.516-.102.255-.44.54-.713.59-.763.14-1.57.066-2.31.263-1.17.305-2.335.688-3.43 1.19-.61.276-.99.97-.897 1.67.102.784.427 1.556 1.308 1.768.967.23 1.956.396 2.944.505.88.096 1.787.002 2.653.154.318.052.715.532.802.884.27 1.124-.22 1.81-1.264 1.832-1.78.042-3.566-.007-5.344.045-.654.018-1.332.126-1.94.347-1.008.374-1.525 1.37-1.39 2.412.127 1.02.91 1.815 2.052 1.817 1.55.003 3.104-.145 4.647-.28.77-.068 1.525-.304 2.29-.36.268-.02.654.216.82.45.52.72.064 2.028-.732 2.174-1.528.283-3.078.464-4.59.814-.988.23-1.325 1.13-1.48 2.04-.11.65.477 1.525 1.147 1.877.814.425 1.664.615 2.58.46.654-.114 1.308-.26 1.967-.33.532-.06 1.075.39 1.236.933.288.97-.216 1.917-1.14 2.02-.773.09-1.553.083-2.334.113-1.22.05-2.453.022-3.666.165-.634.076-1.3.338-1.832.69-1.262.834-1.16 2.64.186 3.27.683.32 1.48.53 2.23.55 1.665.03 3.336-.08 5.002-.156 1.365-.064 1.7.134 2.21 1.465.16.412.21.87.407 1.262.546 1.102 1.45 1.632 2.697 1.59 1.283-.038 2.007-.752 2.502-1.868.383-.853.482-1.732.315-2.61zm-29.565 3.78c1.048.088 1.996-.405 2.416-1.42.29-.705.512-1.478.57-2.238.242-3.213.467-6.432.6-9.653.15-3.67.117-7.347.288-11.02.315-6.66.924-13.314 1.035-19.98.185-11.13.094-22.264.073-33.4 0-1.885-.283-3.766-.376-5.654-.096-1.888-.14-3.78-.16-5.67-.013-.786.442-1.217 1.237-1.26.78-.038 1.557-.034 2.34-.036 3.114-.003 6.233.024 9.347-.03.87-.01 1.788-.125 2.598-.418 1.343-.486 1.816-1.973 1.266-3.314-.434-1.06-1.218-1.58-2.31-1.59-2.34-.027-4.677-.01-7.014-.01v-.1c-2.224.08-4.453.11-6.674.252-.988.064-1.963.326-2.938.527-.706.147-1.23.54-1.352 1.295-.194 1.198-.446 2.398-.523 3.61-.125 1.996.064 4.034-.242 6-.38 2.44-.38 4.872-.423 7.317-.225 12.343.4 24.7-.62 37.04-.413 4.98-.27 10-.587 15.003-.427 6.77-.173 13.576-.904 20.336-.083.767-.044 1.563.05 2.333.13 1.07 1.204 1.99 2.3 2.082zm21.403.616c-1.496-.56-3.04-.557-4.6-.64-1.214.1-2.434.135-3.637.314-4.416.65-8.5 2.434-12.7 3.83-.767.255-1.31.788-1.68 1.52-.375.735-.483 1.454-.03 2.2.476.78 1.223.958 2.023.827 1.854-.306 3.695-.687 5.54-1.028 4.46-.833 8.88-1.936 13.472-1.857 1.092.02 2.2-.254 3.28-.47.63-.125 1.158-1.28.957-1.904-.436-1.347-1.266-2.29-2.63-2.796zm-71.436 1.435c-1.813-.2-3.35 1.644-2.875 3.45.195.745.945 1.256 1.76 1.2 1.552-.1 2.808-1.61 2.652-3.172-.07-.743-.74-1.39-1.536-1.477zm17.282.2c-.418-.11-.85-.16-1.186-.223-.533.05-.987.027-1.397.148-.288.088-.637.31-.757.565-.49 1.035-.602 2.1.012 3.14.325.555 1.272.808 1.71.38.777-.765 1.516-1.57 2.21-2.405.396-.472.007-1.446-.592-1.605zm-9.58.385c-.595-.178-1.343.31-1.44 1.005-.063.424-.108.912.05 1.284.15.355.523.693.882.86.448.205.843-.107 1.093-.49.235-.358.4-.756.497-.935.048-.845-.47-1.543-1.085-1.725zm16.445 1.586c-.8.408-1.227 1.097-.99 1.793.08.235.47.533.7.515.703-.064 1.143-.76 1.17-1.667.01-.426-.524-.82-.88-.64z"/></svg>