<svg xmlns="http://www.w3.org/2000/svg" width="128" height="128" viewBox="0 0 128 128"><path d="M111.262 8.973c-5.297-.06-10.59-.388-15.888-.457-6.627-.09-13.257-.015-19.886-.036-1.765-.008-3.56.083-5.293-.192-3.41-.54-6.824-.43-11.477-.437-1.416.04-4.075.01-6.715.205-3.296.248-6.576.68-9.862 1.035-2.63.287-5.265.54-7.887.882-5.458.71-10.8 2.15-16.3 2.645-2.495.22-3.937 1.87-4.214 4.37-.063.548-.068 1.108-.03 1.66.133 1.978.352 3.95.434 5.933.245 6.07.58 12.136.62 18.203.052 7.73.116 15.454-.217 23.185-.294 6.835-.205 13.68-.71 20.518-.364 4.947-.193 9.938-.132 14.91.043 3.41 2.178 5.472 5.62 5.672 1.324.08 2.65.08 3.973.15.675.034 1.064.375 1.04 1.017-.102 2.695.778 5.22 1.28 7.808.154.808.57 1.455 1.284 1.837.867.464 1.754.907 2.668 1.26 2.112.81 4.333.756 6.54.647 1.99-.096 3.2-1.127 3.25-3.04.078-2.863-.046-5.728-.158-8.592-.023-.557.058-.806.597-.832 4.962-.21 9.922-.523 14.887-.608 9.94-.174 19.883-.23 29.824-.324 1.243-.01 1.46.23 1.47 1.59.013 1.106.045 2.214-.013 3.316-.064 1.14.243 2.206.654 3.22.55 1.35 1.36 2.676 2.85 3.026 1.92.447 3.907.722 5.876.8 1.936.08 3.317-1.197 3.752-3.106.124-.533.14-1.093.143-1.646.01-1.987.076-3.98-.03-5.96-.134-2.635-.29-2.23 2.434-2.816.957-.205 1.984-.077 2.965-.22.82-.12 1.514-.107 2.093.578.206.245.5.446.79.584 2.047.942 4.154-.304 4.3-2.543.043-.658-.003-1.322-.008-1.986-.043-6.077-.08-12.15-.136-18.226-.01-1.332.02-2.59.85-3.78.404-.58.482-1.453.525-2.2.08-1.437.018-2.874.04-4.31.014-.907-.1-1.784-.646-2.517-.705-.95-.8-2.013-.797-3.136.02-6.187.005-12.373.013-18.563.002-.658-.05-1.36.14-1.972.705-2.267.63-4.57.51-6.89-.033-.645-.048-1.383.222-1.936.614-1.264.57-2.57.57-3.89 0-3.535-.028-7.072-.02-10.607.008-3.428.282-6.82 1.195-10.145.672-2.44-1.013-4.057-2.984-4.078zm-2.215 34.946c.344.853.368 1.722-.224 2.48-.186.24-.537.468-.82.48-1.108.044-2.132.385-3.183.69-1.18.342-2.42.244-3.555-.214-1.158-.465-2.357-.683-3.54-.5-1.87.29-3.64-.57-5.5-.308-.267.035-.795-.46-.888-.797-.203-.724-.256-1.503-.272-2.26-.037-1.68.197-2.18 2.06-1.867 3.734.35 7.436.715 11.14 1.04 1.088.096 2.192.043 3.28.13.694.058 1.235.46 1.5 1.122zm-3.466 22.464c-.006.803-.455 1.2-1.275 1.117-1.966-.195-3.93-.42-5.884-.686-.242-.032-.607-.41-.623-.642-.288-4.283-.54-8.565-.78-12.85-.03-.616.38-1.068.972-1.068 2.092-.003 4.183.002 6.275.053.924.02 1.31.464 1.323 1.517.032 2.094.01 4.19.01 6.28h-.01c0 2.093.017 4.184-.008 6.278zM23.46 17.02c1.64-.09 3.275-.427 4.896-.744 5.53-1.07 11.13-1.498 16.73-2.05 6.623-.652 13.233-.41 19.85-.358 2.86.02 5.714.52 8.576.57 6.955.11 13.916.082 20.873.116 2.205.01 4.42-.115 6.6.36 1.583.347 3.31-.44 4.808.598-.046 1.653.04 3.317-.166 4.95-.384 2.99.046 5.937.284 8.895.133 1.646.415 3.264.023 4.925-.175.738-.068 1.54-.11 2.312-.08 1.47-.483 1.91-1.774 1.584-2.28-.573-4.593-.547-6.905-.637-.907-.032-1.264-.293-1.365-1.12-.264-2.07-.48-4.154-.684-6.24-.192-1.974-.3-3.957-.52-5.93-.152-1.375-.976-2.2-2.32-2.404-.65-.1-1.32-.088-1.98-.088-4.09-.004-8.176.047-12.262-.006-3.11-.04-6.146.534-9.212.88-1.205.133-2.403.338-3.61.39-2.208.09-4.42.157-6.624.118-5.088-.088-10.133.28-15.164 1.035-1.3.198-2.645.093-3.968.107-2.432.02-4.86.03-7.29.043-.826.004-1.49.325-2.03.947-.8.917-.658 2.306.396 2.85.667.348 1.445.675 2.174.672 4.077-.002 8.154.302 12.232-.273 6.245-.88 12.54-.902 18.832-.693 3.096.1 6.178-.02 9.237-.576.864-.154 1.757-.18 2.64-.183 4.967-.015 9.937-.015 14.91.004 1.922.01 1.97.044 2.004 2.113.038 1.874 0 3.752-.036 5.632-.013.636.228 1.42-.395 1.84-.42.284-1.03.284-1.556.408-1.656.395-2.675 1.475-3.232 3.027-1.13 3.138-1.098 6.267.152 9.364.43 1.07 1.11 1.897 2.33 2.144.753.15 1.497.35 2.244.53.892.214 1.042.38 1.062 1.386.023 1.102.124 2.227-.043 3.31-.452 2.958-.47 5.936-.518 8.916-.01.61-.278 1.018-.934 1.13-.755.13-1.533.225-2.245.484-1.152.42-1.88 1.54-1.44 2.624.734 1.82.567 3.67.644 5.525.03.757.198 1.525.42 2.253.413 1.333 1.196 2.402 2.654 2.688 1.11.22 1.42.883 1.35 1.9-.037.548.002 1.104-.02 1.655-.03.57-.484 1.086-1.007 1.13-.547.047-1.1.06-1.65.065-6.405.072-12.81.12-19.22.235-1.977.033-3.952.29-5.933.385-2.756.14-5.515.294-8.274.31-2.555.018-5.043.495-7.55.85-.653.097-1.3.254-1.955.297-3.303.224-6.603.48-9.91.597-2.128.076-4.106.773-6.154 1.18-.89.18-1.216-.03-1.278-.955-.203-3.08-.373-6.16-.576-9.243-.134-2.09-.364-4.175-.438-6.27-.12-3.42-.147-6.843-.24-11.583.148-2.988.42-7.284.56-11.583.15-4.63.382-9.257-.26-13.888-.287-2.065-.126-4.193-.164-6.287-.018-1.064-.365-1.97-1.333-2.488-.203-.11-.678-.004-.832.17-.273.317-.512.748-.56 1.155-.118.982-.123 1.983-.166 2.974-.188 4.3-.37 8.594-.563 12.892-.023.496-.205.82-.787.525-1.096-.56-2.08-.355-3.115.28-1.158.714-1.253.62-1.307-.55-.005-.11.005-.224-.01-.333-.524-3.426.935-5.965 3.554-8.002.912-.712 1.242-1.465.88-1.835-.644-.662-1.438-.507-2.166-.286-.624.192-1.19.57-1.786.853-.468.222-.954.02-.988-.416-.062-.77-.09-1.54-.14-2.313-.045-.7.17-1.294.676-1.79.947-.93 1.91-1.838 2.813-2.804.574-.616.63-1.408.357-2.18-.282-.797-.904-1.232-1.732-1.34-.323-.043-.66-.006-.99.01-.33.01-.676.116-.98.042-.285-.075-.53-.318-.77-.515-.067-.054-.062-.204-.078-.315-.794-5.544-1.91-5.613 4.55-5.957zm1.346 46.142c-.125.5-.272 1.115-.63 1.422-.9.768-1.92 1.404-2.914 2.056-.11.073-.43-.032-.55-.155-.127-.13-.218-.395-.185-.576.075-.423.136-.905.38-1.23 1.05-1.375 2.157-2.703 3.253-4.045.06-.075.235-.15.284-.117.14.095.317.227.347.372.07.314.05.648.038.39 0 1.017.08 1.47-.02 1.88zm-1.188-7.488c-.766.203-1.365 1.016-2.06 1.53-.157.117-.48.23-.58.153-.223-.17-.432-.437-.51-.707-.084-.303-.018-.648-.018-.928-.18-1.414.195-2.64.94-3.77.48-.732.918-1.49 1.43-2.195.676-.937 1.165-2.078 2.432-2.425-.032 1.077-.048 2.157-.098 3.232-.05 1.09-.183 2.18-.186 3.27 0 .988-.245 1.546-1.35 1.84zM19.62 97.9v.068l-.078.077c-.038.285-.203.43-.463.47-.037.035-.07.074-.11.11-.07.037-.146.072-.212.114l-.118.2c.023-.06.028-.143.07-.176.014-.01.03-.017.047-.026l.116-.204c.075 0 .14-.01.203-.02l.464-.47c.008-.046.02-.08.02-.134l.06-.01c.01-.64.066-1.28-.002-1.91-.2-1.893.454-3.253 1.916-4.57 1.27-1.147 2.06-2.837 3.032-4.31.174-.266.256-.61.31-.93.118-.704-.1-1.312-.658-1.77-.495-.408-1.18-.4-1.837.05-.543.373-1.05.797-1.583 1.186-.247.183-.598-.085-.652-.44-.282-1.878.284-3.444 1.572-4.842.815-.883 1.515-1.883 2.187-2.882.373-.56.163-1.272-.352-1.8-.61-.626-1.216-.74-2.046-.377-.202.085-.376.262-.582.31-.14.027-.326-.08-.46-.172-.047-.032-.04-.245.02-.31 1.177-1.3 2.355-2.595 3.555-3.873.136-.145.39-.18.59-.267.08.203.176.397.245.6.033.103.03.22.04.33l.764 16.2c.03.66-.16 1.43.106 1.968 1.036 2.09-.08 3.23-1.582 4.387-1.222.938-2.277 2.09-3.46 3.085-.277.233-.736.242-1.125.337zm13.722 15.5c-.032.136-.305.314-.46.305-.165-.013-.43-.192-.46-.338-.11-.527-.14-1.07-.18-1.426.024-.512-.005-.85.063-1.17.226-1.04.853-2.053.142-3.135.277-.117.55-.29.837-.33.17-.02.54.244.527.276-.69 1.903-.012 3.91-.47 5.82zm59.445-5.866c-.15-.378-.166-.818-.166-1.227 0-.077.354-.15.646-.267.11.258.32.523.318.782-.005.463-.695.96-.796.712zm11.505-9.315c-2.25-.418-4.378.38-6.565.546-1.424.11-2.83.432-4.253.527-10.25.675-20.517.815-30.787.864-4.523.018-9.045.26-13.568.38-.653.02-1.31-.046-1.956-.128-.124-.02-.315-.306-.3-.457.026-.32.202-.624.252-.946.066-.424.164-.88.085-1.286-.36-1.844-2.114-2.455-3.476-1.21-.98.895-1.944 1.846-2.25 3.2-.178.787-.686 1.148-1.37 1.21-1.313.117-2.637.146-3.956.18-.417.016-.626-.572-.353-.99.475-.733 1.12-1.373 1.112-2.345-.01-.91-.09-1.792-.987-2.298-.856-.48-1.725-.367-2.49.188-1.63 1.18-3.04 2.58-3.813 4.472-.292.718-.695 1.077-1.45 1.074-1.545-.007-3.09-.005-4.637-.04-.165-.003-.433-.202-.456-.345-.03-.18.092-.445.235-.58 1.38-1.268 2.807-2.49 4.16-3.79.63-.6 1.18-1.306 1.67-2.03.478-.698 1.33-1.285 2.24-1.44 4.033-.688 8.08-1.008 12.18-1.046 2.634-.02 5.3-.3 7.89-.784 2.304-.43 4.606-.395 6.912-.544 2.42-.157 4.836-.416 7.258-.474 3.31-.086 6.624-.022 9.937-.022 2.65 0 5.303-.056 7.952.015 3.527.095 7.052.29 10.58.438.66.027 1.324.088 1.984.075 2.385-.046 3.684-1.69 2.96-3.996-.372-1.18-.64-2.326-.688-3.542-.084-2.163.042-2.357 2.09-2.31 5.704.125 5.08-1.007 5.14 5.05.038 3.644.178 7.287.272 10.93.043 1.6-.034 1.728-1.56 1.45zm6.212-24.54c-.123 1.677-.78 2.39-2.46 2.485-1.317.075-2.644.016-3.8.016-2.14.068-4.095.044-6.075.417-1.808.338-3.735.154-5.596.014-1.045-.08-1.75-.916-2.048-1.916-.183-.617-.19-1.306-.186-1.963.012-1.986.408-2.287 2.54-2.56 2.763-.36 5.478-.154 8.218.253 1.736.258 3.51.258 5.27.352.88.048 1.764.006 2.64.075.798.067 1.444.75 1.502 1.514.032.44.026.882-.006 1.318zm-72.728-2.946c3.147 3.555 7.195 4.95 11.824 5.024 2.773-.024 4.78-.658 6.48-2.038 2.815-2.285 4.315-5.288 4.54-8.867.322-5.12-1.69-9.224-5.732-12.354-.35-.27-.712-.526-1.063-.794-.516-.39-.555-.89-.333-1.458.203-.513.433-1.02.544-1.552.175-.832-.387-1.653-1.316-2.065-.634-.276-1.632-.01-2.03.67-.385.656-.623 1.395-.934 2.094-.245.55-.667.86-1.282.864-.555.01-1.105.02-1.657.016-3.5-.043-6.46 1.35-9.024 3.58-1.35 1.172-2.3 2.705-2.357 4.588-.064 2.205-.11 4.416-.058 6.624.05 2.182.955 4.035 2.4 5.668zM40.853 57.9c1.163-1.225 2.427-2.25 4.184-2.428.656-.064 1.317-.09 1.977-.136 4.222-.23 6.57 1.8 7.895 5.242 1.124 2.927.964 5.845-1.27 8.348-.925 1.035-2.1 1.7-3.474 1.667-2.68-.06-5.27-.544-7.33-2.475-1.574-1.478-2.648-3.228-2.718-5.465-.015-.443-.057-.88-.054-1.323.003-1.198-.165-2.43.786-3.43zm29.64-4.44c.087.065.174.152.276.178 1.89.493 2.15 1.856 1.946 3.53-.197 1.622.203 3.31-.6 4.876-.18.352-.075.864-.075 1.3.004 1.214.01 2.422.033 3.635.037 2.202-.053 4.417.175 6.6.19 1.863.586 3.624-.184 5.497-.5 1.22.672 2.68 2.005 2.906.433.075.88.068 1.29.1.58-.044 1.135-.044 1.677-.132.427-.07.832-.266 1.254-.383 3.005-.827 3.334-1.507 3.015-4.476-.21-1.966-.504-3.93-.683-5.9-.253-2.735-.448-5.484-.638-8.223-.075-1.06-.405-2.118-1.36-2.485-1.367-.526-1.413-1.525-1.443-2.65-.02-.77-.03-1.54-.063-2.31-.04-.94.253-1.576 1.067-2.214 2.496-1.95 3.132-5.366 1.528-7.953-.5-.813-1.23-1.683-2.067-2.056-2.517-1.125-5.44-1.416-8.064.776-.56.467-1.042 1.155-1.32 1.84-.793 1.96.527 6.246 2.228 7.544zm-22.01 13.734c2.24-.773 3.102-2.027 3.064-4.643-.014-.192-.028-.524-.064-.85-.184-1.604-1.072-2.35-2.674-2.254-1.634.1-3.25 1.297-3.78 2.8-.516 1.46.032 3.41 1.3 4.515.623.545 1.334.72 2.15.436z"/></svg>