<svg xmlns="http://www.w3.org/2000/svg" width="128" height="128" viewBox="0 0 128 128"><path d="M113.092 12.402c-.33-.932-1.45-1.385-2.357-1-.928.394-1.596 1.026-1.82 2.042-.433 1.968-.89 3.93-1.273 5.91-.292 1.514-.474 3.052-.75 4.57-.06.323-.283.61-.752.408-.32-.137-.693-.232-1.035-.22-.885.035-1.584.713-1.69 1.548-.087.723.274 1.38.965 1.754 1.973 1.072 1.973 1.072 1.877 2.928-.043.832-.075 1.666-.162 2.494-.384 3.665-.888 7.32-1.158 10.992-.4 5.457-.643 10.925-.95 16.388-.026.476-.024.953-.063 1.426-.043.53-.328.912-.87.928-.833.02-1.68.056-2.492-.08-2.485-.416-4.984-.37-7.483-.324-8.808.165-17.615.303-26.417.57-4.28.13-8.555.468-12.82.822-3.907.32-7.796.86-11.702 1.17-3.91.315-7.83.492-11.75.68-1.42.063-2.847-.01-4.268-.02-.922-1.364-.496-2.986-.843-4.455-.53-2.226-.494-4.49-.55-6.75-.076-2.975-.044-5.958-.23-8.927-.31-4.864-.703-9.722-1.17-14.573-.26-2.717-.662-5.426-1.136-8.114-.395-2.22-.992-4.404-1.493-6.608-.155-.695.278-1.135 1.004-1.02.348.056.693.165 1.042.227 3.04.55 6.06 1.264 9.12 1.6 4.136.447 8.3.762 12.46.852 6.426.14 12.858.035 19.287.035v-.194c6.43 0 12.864.02 19.292-.01 3.704-.018 7.36.327 10.96 1.21.348.085.686.218 1.038.265 1.434.193 2.773.17 4.107-.678.967-.612 2.198-.818 3.318-1.17.55-.17.71.06.563.702-.103.454-.265.917-.25 1.37.03.703.784 1.31 1.474 1.266.655-.043 1.125-.4 1.323-1.007.107-.32.14-.717.05-1.036-.2-.7-.534-1.355.644-1.455.556-.046.865-.557.77-1.015-.08-.405-.43-.86-.787-1.08-1.19-.72-2.703-.87-3.522-2.274-.232-.396-1.027-.596-1.584-.64-1.06-.084-2.176-.174-3.186.076-1.45.355-2.83.2-4.214-.107-4.558-1.004-9.166-1.393-13.822-1.213-1.664.066-3.324.203-4.98.306-4.75.3-9.494.736-14.246.87-6.31.18-12.624.155-18.936.15-2.496-.002-5-.152-7.493-.3-1.78-.108-3.548-.372-5.325-.49-2.133-.14-4.267-.024-6.392-.51-1.376-.314-2.84-.267-4.187.427-.933.48-1.506 1.196-1.47 2.247.05 1.426.157 2.853.293 4.275.547 5.68 1.007 11.366 1.46 17.056.467 5.94.48 11.89.706 17.832.114 3.09.288 6.187.672 9.25.242 1.95.325 4.095 2.284 5.394.254.168.373.587.488.915.373 1.077 1.148 1.363 2.223 1.307 2.968-.16 5.94-.296 8.91-.384 3.216-.093 6.433-.07 9.646-.188 4.043-.146 8.08-.386 12.12-.578.354-.016.715.002 1.063.058.526.085.827.437.864.96.043.594.048 1.19.056 1.784.067 6.43.16 12.86.18 19.287.014 2.737-.113 5.475-.2 8.213-.03.972-.304 1.424-1.615.926-4.012-1.518-7.964-.837-11.87.454-1.364.45-2.598 1.188-3.59 2.26-.234.255-.39.586-.575.886-.218.354.164.976.59 1.094.74.208 1.423.06 2.07-.27 1.72-.876 3.607-1.18 5.452-1.627 2.54-.615 4.968-.04 7.34.784 1.09.376 1.742 1.26 1.654 2.485-.043.576-.107 1.224-.395 1.69-.445.72-1.03.09-1.55-.063-.224-.07-.454-.17-.686-.18-3.7-.18-7.407-.14-10.98.91-3.65 1.066-6.51 3.39-8.854 6.335-.47.59-.5 1.33-.11 2.02.386.68 1.388 1.104 2.175.83.66-.23 1.31-.555 1.917-.914 3.582-2.12 7.454-3.063 11.602-2.906 1.31.05 2.617.146 3.924.17 1.248.027 2.36-.227 2.968-1.524.222-.48.683-.612 1.19-.32.562.325 1.106.357 1.64-.09.547-.462 1.11-.9 1.673-1.34.512-.4 1.067-.492 1.65-.156.31.18.624.352.904.57 1.04.804 2.036.947 3.274.272 1.7-.928 3.6-1.18 5.536-1.124 1.072.032 2.145.032 3.215.002 2.272-.064 4.166.802 5.845 2.263.896.78 1.792 1.557 2.74 2.27 1.065.793 1.275.816 2.023-.193 2.512-3.38 5.83-4.74 9.975-4.207.472.06.95.09 1.425.088.352-.002.715-.043 1.058-.128 1.15-.27 1.794-1.973 1.026-2.89-.44-.526-1.043-1.09-1.67-1.25-1.713-.442-3.44-.865-5.276-.46-1.516.333-3.003.7-4.454 1.247-.52.197-1.17.34-1.69.218-2.72-.653-5.432-.523-8.13.027-.8.16-1.403.03-1.908-.56-1.035-1.2-2.347-1.492-3.867-1.364-.81.068-1.13-.28-1.156-.98-.035-.952-.04-1.906-.043-2.86-.015-5 .016-10.003-.05-15.003-.07-5.233.137-10.48-.554-15.69-.062-.47-.047-.955-.043-1.43.01-.867.378-1.216 1.333-1.27.24-.014.477-.018.715-.018 9.887.032 19.77.02 29.654.14 2.063.025 3.803-.13 4.695-2.286 1.823-1.22 1.934-3.088 2.052-5.04.217-3.68.56-7.35.905-11.023.356-3.785.86-7.558 1.152-11.35.386-5.098.63-10.21.946-15.316.045-.707.188-1.412.23-2.122.145-2.258.278-4.515.367-6.772.018-.448-.127-.93-.287-1.37zM63.096 82.71c-.02-.305.02-.8.208-.9 1.01-.535 2.074-.98 3.125-1.444.207-.093.44-.13.663-.192.128.16.335.31.368.487.15.877-.16 1.51-.82 1.683-.997.26-2.002.504-3.016.7-.157.033-.52-.205-.53-.334zm4.335 7.882c.085.582.013 1.184.013 1.777v1.775c-.11 3.435-.216 7.22-.365 11.008-.01.31-.213.785-.446.88-.61.244-1.128-.182-1.516-.598-.166-.18-.13-.613-.08-.91.037-.21.25-.396.4-.58.644-.778.57-1.77-.075-2.25-1.632-1.216-1.333-2.863-1.457-4.5-.096-1.302.128-2.32 1.288-3.044.29-.177.494-.51.7-.795.59-.83.31-1.89-.667-2.377-.416-.21-.91-.26-1.346-.436-.418-.168-.467-.898-.107-1.188.18-.15.357-.314.564-.42.815-.425 1.51-1.554 2.44-1.18 1.255.505.524 1.86.66 2.838zm-.256-14.035c-.58.42-1.562.262-2.344.437-.57.125-1.11.382-1.67.555-.06.017-.235-.13-.25-.215-.032-.197-.08-.516.023-.587.67-.47 1.45-.812 2.06-1.347.687-.61 1.287-1.35 1.827-2.104.368-.514.04-1.498-.49-1.9-1.04-.788-2.132-.817-3.348-.412-.768.256-1.045.002-1.224-.772-.107-.46-.245-.93-.233-1.395.01-.483.264-.95.82-.988 1.29-.086 2.59-.144 3.884-.16.894-.007 1.31.396 1.33 1.26.033 1.18.01 2.36.01 3.54h.01c0 .47.043.95-.01 1.416-.103.91.44 2.058-.4 2.666zM63.04 33.4c-1.934-2.288-2.677-2.46-5.562-1.62-1.02.298-1.69.828-1.973 1.82-.262.91-.496 1.83-.688 2.757-.792 3.825-1.565 7.656-2.34 11.485-.284 1.39-.554 2.784-.735 3.696v.858c.008 1.293.614 2.176 1.662 2.42 1.297.3 2.365-.223 2.86-1.482.257-.656.564-1.365.554-2.043-.04-2.072 1.14-2.945 2.94-3.374.572-.136 1.11-.416 1.667-.617.885-.315 1.408-.127 1.713.65.302.77.544 1.57.856 2.334.176.435.382.88.675 1.237.46.554 1.043 1.084 1.81.94.823-.156 1.614-.576 1.856-1.47.213-.785.442-1.63.368-2.425-.474-5.056-2.434-9.62-4.806-14.032-.222-.41-.552-.768-.857-1.133zm-4.2 8.83c-.224-.153-.283-.548-.386-.778.123-.43.157-.796.32-1.088.3-.523-.114-1.365.736-1.63.576.732 1.085 1.49.968 2.49-.045.392-1.32 1.227-1.638 1.007zm-15.656 6.26c-.774.26-1.565.525-2.37.655-1.173.192-2.067-.22-2.55-1.412-.218-.54-.575-1.038-.953-1.485-.716-.843-2.174-.82-2.835.048-.9 1.184-1.346 2.49-.89 4 .958 3.195 3.918 4.666 6.534 4.48 2.797-.15 5.35-.912 7.437-2.92 1.214-1.166 1.643-2.568 1.46-4.202-.167-1.476-.87-2.686-1.823-3.787-2.22-2.575-4.864-4.478-8.143-5.52-1.556-.497-1.607-1.153-.424-2.185.794-.693 1.594-1.01 2.556-.33.29.202.6.383.924.525.84.363 1.61.14 2.182-.605.535-.693.535-1.58-.005-2.302-1.763-2.355-5.053-2.89-7.242-1.06-1.56 1.3-2.756 2.95-3.662 4.77-.928 1.863-.253 4.282 2.144 4.678 1.57.26 2.954.806 4.15 1.867.89.79 1.856 1.483 2.737 2.278.43.39.756.904 1.104 1.378.314.427.18.957-.33 1.128zm43.04-2.62c.075 1.052.245 2.133.605 3.12 1.184 3.268 3.804 3.537 6.03 2.69 1.753-.665 3.354-1.777 4.946-2.802.94-.605 1.188-2.027.693-2.852-.848-1.414-1.97-1.915-3.23-1.385-.766.32-1.497.725-2.247 1.08-.713.334-1.027.116-1.085-.737-.13-1.8-.018-1.915 1.703-2.398.91-.256 1.82-.55 2.664-.965.91-.45 1.387-1.51 1.216-2.386-.177-.913-.787-1.4-1.643-1.685-1.17-.388-2.314-.37-3.497-.066-.672.17-1.124-.195-1.33-.846-.11-.337-.307-.688-.276-1.017.02-.283.262-.71.494-.78.56-.16 1.185-.085 1.758-.217 1.035-.235 2.1-.444 3.055-.883.434-.203.847-.913.87-1.413.026-.498-.336-1.14-.733-1.494-.415-.373-1.05-.546-1.62-.69-1.575-.394-5.812.348-7.23 1.26-.756.488-1.196 1.112-.78 2.1.168.412.262.976.117 1.368-.808 2.195-.395 4.48-.512 6.717 0 1.43-.075 2.86.027 4.277zm-4.875 1.16c-.354.056-.695.167-1.034.267-1.013.293-2.03.594-3.043.89-.98-.94-.525-2.246-.81-3.366-.263-1.02-.193-2.125-.26-3.194-.13-2.044-.732-3.968-1.464-5.858-.314-.807-.82-1.453-1.63-1.8-.314-.134-.66-.192-.864-.248-.826.12-1.57.955-1.617 1.842-.08 1.544-.13 3.093-.1 4.64.09 3.922-.072 7.857.52 11.755.124.813.287 1.648.613 2.392.88 1.975 2.647 2.572 4.358 1.28 1.84-1.386 3.807-2.38 5.98-3.09.642-.207 1.243-.702 1.73-1.196.75-.76.82-2.074.3-2.976-.596-1.025-1.558-1.516-2.68-1.338z"/></svg>