<svg xmlns="http://www.w3.org/2000/svg" width="128" height="128" viewBox="0 0 128 128"><path d="M89.307 78.784C87.4 77.18 85.794 75.34 84.262 73.4c-.706-.897-.91-1.566-.02-2.447.572-.563.513-1.4.392-2.147-.155-.95-.43-1.88-.576-2.83-.504-3.278-.864-6.586-1.488-9.842-.637-3.304-.41-6.627-.544-9.94-.018-.47.272-.8.742-.876.422-.066.856-.05 1.283-.102 1.23-.14 2.287-.687 3.024-1.655 2.505-3.292 1.842-7.622-2.114-9.456-2.62-1.214-5.868-.832-7.286 2.482-.334.785-.576 1.61-.88 2.41-.203.526-.57.948-1.146 1.01-2.554.27-5.105.65-7.664.716-4.18.108-8.37-.05-12.553.022-1.086.02-1.822-.317-2.53-1.056-2-2.09-4.03-4.164-6.066-6.223-2.037-2.056-4.107-4.085-6.15-6.136-.8-.8-1.65-1.366-2.854-.957-.19.065-.445.062-.628-.014-1.796-.733-3.134.132-4.31 1.31-.828.827-1.65 1.723-2.234 2.73-1.455 2.495-2.865 5.03-4.12 7.633-1.264 2.617-2.088 5.414-2.343 8.313-.544 6.14-.036 12.18 1.792 18.114 1.295 4.213 2.787 8.326 4.82 12.243.534 1.03.562 1.13-.36 1.9-1.398 1.176-2.154 2.676-2.42 4.406-.242 1.584-.363 3.22.293 4.756.292.678.228 1.184-.192 1.77-.893 1.246-1.35 2.654-1.472 4.196-.06.735-.272 1.468-.448 2.193-.802 3.328-1.62 6.656-2.425 9.984-.247 1.03-.18 2.267-.747 3.056-.747 1.035-2.205.448-3.344.636-1.618.267-2.5 1.097-2.576 2.752-.075 1.605-.11 3.226-.002 4.826.096 1.438-.01 2.706-.936 3.93-.653.86-.075 2.317.94 2.665.8.27 1.665.518 2.498.512 4.18-.017 8.363-.14 12.54-.196 1.605-.02 3.212.008 4.816.03 1.5.028 3 .13 4.498.11 1.605-.02 3.208-.14 4.81-.227 2.676-.15 5.363-.188 8.022-.49 3.83-.438 7.63-1.148 11.51-.996.426.017.86.008 1.285-.035 2.357-.237 3.452-1.802 2.608-4.045-.39-1.045-.516-2.055-.57-3.122-.036-.747-.08-1.502-.21-2.236-.51-2.956-1.805-4.228-4.78-4.714-.635-.107-1.28-.13-1.926-.14-1.396-.02-2.79-.007-4.186-.007v.016c-1.717 0-3.435-.01-5.152.006-.82.006-1.423-.3-1.856-1.02-3.213-5.324-6.44-10.64-9.653-15.964-.16-.264-.237-.58-.326-.88-.025-.082.02-.24.082-.28.163-.105.39-.267.534-.224.402.126.786.324 1.16.523 3.04 1.643 6.217 2.848 9.675 3.293 1.8.235 3.564.73 5.357 1.013 2.965.47 5.948 1.004 8.957.628 5.43-.676 10.77-1.83 15.888-3.81 3.21-1.243 6.244-2.853 8.904-5.08.654-.54 1.254-1.163 1.81-1.806.475-.55.47-1.226-.032-1.755-1.328-1.395-2.61-2.853-4.08-4.09zm-65.693 40.293c-.763.546-2.138.09-2.29-.804-.176-1.04-.244-2.106-.303-3.166-.03-.576.414-.91 1.05-.904.88.01 1.425.325 1.508.875.032.208.053.422.06.634.008.424.002.853.002 1.36.077.448.2.97.244 1.498.015.164-.126.407-.27.51zm6.912-1.066c-.06.688-.5 1.05-1.3 1.165-.61.083-1.083-.245-1.108-.82-.028-.534-.008-1.065-.008-1.598h-.02c0-.32-.017-.64 0-.958.044-.76.41-1.065 1.264-1.065.877-.002 1.263.296 1.262 1.045-.002.74-.028 1.488-.09 2.232zm18.208-3.755c2.233-.11 4.467-.188 6.703-.275 0 .03 0 .063.002.095 2.02 0 4.046-.02 6.067.006 1.02.02 1.27.328 1.288 1.374.004.213.004.427-.008.64-.053.853-.34 1.195-1.1 1.277-2.11.225-4.227.434-6.337.676-1.58.18-3.156.422-4.738.604-.527.058-1.067.036-1.597 0-.45-.03-.843-.274-.896-.738-.11-.95-.16-1.907-.19-2.862-.017-.504.35-.77.8-.794zM81.798 39.4c.2-.26.654-.417 1.01-.438.175-.01.378.38.5.513.015.896-.727 1.454-1.443 1.205-.09-.028-.226-.13-.222-.195.02-.37-.043-.83.154-1.085zm-5.88 9.997c.116-.122.42-.174.578-.112.15.06.258.306.317.49.06.204.043.424.053.638.016.32.03.64.032.96.015 3.21.606 6.354 1.11 9.508.266 1.68.51 3.367.785 5.155-.01.098-.02.313-.06.518-.02.094-.083.235-.155.256-.08.02-.216-.047-.288-.115-.464-.437-.947-.86-1.368-1.335-2.468-2.8-4.93-5.6-7.364-8.432-.146-.167-.166-.674-.03-.82 2.106-2.262 4.24-4.492 6.385-6.71zm-16.72-3.8c.046-.08.17-.117.262-.175 3.598.687 7.24.334 10.863.455.198.008.46.085.565.224.072.098-.023.4-.132.54-1.05 1.348-2.14 2.667-3.175 4.03-.51.67-.926 1.407-1.385 2.117-1.207-.16-1.68-1.237-2.392-1.977-1.554-1.614-3.037-3.295-4.544-4.954-.057-.06-.097-.206-.06-.264zm-23.635 70.84c0 .428.016.854-.005 1.28-.01.206-.083.41-.128.614-.1-.16-.24-.305-.29-.48-.178-.607-.336-1.226-.48-1.844-.117-.5.254-1.154.485-.936.194.185.316.468.4.73.064.195.013.423.013.637h.006zm8.533.287h.003c0 .32.01.64-.005.958-.038.786-.343 1.06-1.227 1.092-.428.014-.856.018-1.28-.007-.766-.05-1.182-.416-1.262-1.175-.288-2.805-.335-2.947 2.517-2.923.85.006 1.203.325 1.248 1.09.02.32.004.643.004.964zm-.21-9.327c.38.632.05 1.242-.767 1.33-1.065.116-2.135.167-3.207.212-.856.03-1.715.004-2.573.004v.114c-.426 0-.86.032-1.285-.006-1.352-.127-2.768.45-4.056-.37.314-1.23.646-2.46.943-3.696.896-3.755 1.713-7.52 1.58-11.42-.012-.212-.067-.468.027-.633.14-.244.37-.568.595-.596.253-.034.55.213.816.36.087.046.144.16.186.258 2.2 5.02 4.928 9.75 7.74 14.443zM33.696 82.92c.118-.14.646-.163.784-.028.607.585 1.17 1.222 1.69 1.888.314.4.817.965.72 1.312-.203.728-1.024.51-1.796.578-.253-.043-.685-.064-1.074-.206-.277-.1-.635-.31-.72-.555-.36-1.047-.354-2.097.396-2.99zm48.865 1.436c-.48.235-.963.494-1.476.61-3.016.69-6.04 1.362-9.07 1.984-.83.174-1.7.195-2.555.21-1.395.028-2.788-.005-4.18-.02-1.31-.015-2.56-.032-3.298-1.472-.306-.605-1.08-.632-1.735-.376-.297.113-.55.35-.85.448-1.403.464-2.407-.13-2.474-1.525-.06-1.28-.012-2.57-.012-3.855h-.005c0-1.073.017-2.144-.006-3.217-.014-.53-.01-1.088-.17-1.58-.198-.61-.564-1.166-1.293-1.3-.685-.12-1.3.048-1.74.583-.97 1.178-1.65 2.5-1.828 4.043-.073.635-.123 1.276-.21 1.912-.057.41-.63.683-.984.516-1.385-.652-2.208-1.633-2.09-3.265.16-2.243.27-4.486.413-6.73.052-.854.172-1.708.202-2.563.015-.42-.044-.86-.172-1.26-.207-.633-.615-1.188-1.295-1.31-.7-.126-1.23.324-1.563.897-1.178 2.034-2.47 4.024-2.865 6.418-.03.17-.297.46-.373.44-.272-.086-.64-.225-.734-.447-.29-.674-.65-1.396-.658-2.1-.01-1.382.028-2.808.355-4.14.61-2.488 1.437-4.926 2.184-7.382.373-1.227.81-2.44 1.146-3.678.24-.877-.333-2.07-1.088-2.492-.89-.498-2.298-.248-2.853.712-.85 1.477-1.64 3.01-2.256 4.594-.657 1.692-1.06 3.48-1.62 5.205-.087.255-.436.423-.663.633-.067-.3-.26-.642-.18-.892.445-1.36.39-2.757.345-4.145-.165-5.077 1.17-9.744 3.73-14.09.22-.374.45-.737.624-1.13.49-1.11.235-2.328-.58-2.915-1.057-.754-2.652-.648-3.506.35-.62.725-1.144 1.547-1.632 2.373-.6 1.014-1.102 2.084-1.68 3.107-.096.163-.058.69-.494.38-.113-.08-.11-.41-.072-.608.783-4.208 1.465-8.444 2.987-12.47.413-1.09.956-2.138 1.47-3.19.04-.076.34-.055.516-.03.085.013.17.125.233.21 5.55 7.392 11.874 14.1 18.365 20.65 5.442 5.488 10.51 11.31 15.62 17.097 1.34 1.517 2.395 3.283 3.586 4.93 2.134 2.956 4.246 5.927 6.75 8.592.4.423.27 1.017-.27 1.28zm31.657-33.877c-.168-3.528-.587-7.028-1.265-10.498-1.556-7.986-4.89-15.026-11.055-20.533-.48-.43-.93-.89-1.41-1.318-5.45-4.882-11.47-8.954-17.857-12.482-1.396-.773-2.9-1.383-4.412-1.9-.883-.298-1.884-.345-2.83-.343-1.02 0-2.02.857-2.062 1.7-.043.858.606 1.27 1.277 1.678 3.02 1.824 6.093 3.577 9.01 5.56 5.584 3.797 10.917 7.91 15.632 12.79 3.344 3.468 5.696 7.478 7.136 12.036 1.357 4.293 2.186 8.704 2.83 13.15.37 2.544.767 5.077 1.72 7.484.156.395.313.91.796.837.352-.052.806-.372.953-.69 1.076-2.37 1.665-4.847 1.54-7.472zM97.412 32.862c-1.163-2.42-2.558-4.725-4.507-6.603-4.386-4.226-9.496-7.293-15.337-9.046-1.195-.36-2.533-.3-3.808-.34-.907-.028-1.624.447-2.208 1.138-.424.5-.335 1.37.227 1.67.37.198.777.34 1.167.5 4.067 1.692 7.955 3.71 11.544 6.275 3.815 2.723 6.91 6.072 8.805 10.42.984 2.26 1.852 4.56 2.347 6.982.448 2.193.915 4.39 1.326 6.597.234 1.248.858 2.197 1.988 2.74.33.157.87.157 1.195-.005 1.52-.768 2.08-2.078 2.044-3.765-.258-1.467-.475-2.948-.787-4.402-.9-4.197-2.14-8.288-4-12.164z"/></svg>