<svg xmlns="http://www.w3.org/2000/svg" width="128" height="128" viewBox="0 0 128 128"><path d="M122.39 74.577c-.23-.352-.477-.765-.822-.953-1.22-.656-1.67-1.797-2.202-2.97-2.18-4.838-4.398-9.662-6.673-14.457-2.502-5.273-5.037-10.53-7.65-15.75-.866-1.725-1.152-3.36-.405-5.172.544-1.325.452-2.722.114-4.077-.544-2.162-3.225-2.85-4.764-1.195-.925.992-2.016 1.885-2.42 3.294-.16.563-.7.766-1.264.782-.743.02-1.49.02-2.23.02-4.465.004-8.93.003-13.39.003v.082c-5.098 0-10.198.003-15.3 0-.833 0-1.203-.31-1.234-1.1-.115-2.866-.18-5.735-.314-8.6-.05-1.055.192-1.86 1.227-2.337.892-.415 1.68-1.06 1.948-2.01.608-2.157.397-4.22-1.17-5.972-.587-.657-1.323-1.045-2.227-1.088-2.405-.104-4.328.962-5.944 2.588-1.03 1.035-.98 3.02-.044 4.107.482.56 1.035 1.064 1.533 1.61.744.814 1.132 1.71 1.034 2.88-.256 3.066-.397 6.14-.595 9.21-.054.807-.374 1.164-1.164 1.225-2.86.227-5.714.52-8.576.623-6.898.255-13.793.018-20.684-.316-.978-.048-1.312-.267-1.314-1.373-.004-1.746-.855-2.762-2.372-3.396-.486-.203-.955-.453-1.423-.704-1.37-.732-2.7.576-2.822 1.647-.126 1.07-.122 2.12.427 3.098.277.496.25.994.078 1.53-1.14 3.53-2.25 7.07-3.394 10.598-.62 1.915-1.36 3.797-1.92 5.73-.744 2.56-1.824 4.977-2.953 7.382-1.126 2.4-2.203 4.824-3.325 7.227-1.44 3.075-2.845 6.165-4.38 9.192-.668 1.314-.588 2.416.242 3.552.69.938 1.367 1.89 2.057 2.83.954 1.298 2.024 2.494 3.51 3.18 1.695.778 3.22 2.128 5.33 1.668.372-.08.83.115 1.23.25 2.027.683 4.14.864 6.23 1.207 3.818.633 7.386-.076 10.884-1.48 2.167-.87 4.33-1.75 6.458-2.71 1.352-.61 2.656-1.333 3.94-2.08 2.072-1.197 3.627-2.915 4.787-5 1.246-2.23 1.163-2.57-1.145-3.98-.556-.34-.987-.69-1.294-1.312-1.98-3.99-4.05-7.938-6.03-11.93-2.884-5.804-6.088-11.43-9.41-16.993-.543-.905-.937-1.895-1.4-2.846 1.074-.726 2.256-.29 3.374-.25 1.586.055 3.16.426 4.742.46 4.992.116 9.986.17 14.982.177 1.475 0 2.955-.224 4.425-.395.524-.062.823.092.85.595.207 3.708.468 7.413.57 11.125.134 4.885.11 9.775.204 14.663.05 2.543.248 5.084.315 7.627.084 3.29.024 6.576-.443 9.842-.165 1.15-.306 2.3-.467 3.45-.25 1.785-.632 3.564.348 5.28.3.524-.09 1.068-.715 1.073-3.505.02-7.032.26-10.51-.055-3.95-.36-7.83.476-11.75.24-.104-.006-.21.038-.313.062-.84.18-1.44.95-1.447 1.852-.01.92.51 1.742 1.37 1.9 1.25.226 2.518.408 3.783.47 9.232.46 18.477.177 27.71.737 5.72.347 11.473.148 17.212.19.53.006 1.064.004 1.59-.06 1.006-.127 1.727-.874 1.87-1.878.207-1.45-.44-2.565-1.85-2.9-.812-.195-1.678-.195-2.518-.204-4.89-.047-9.776-.063-14.667-.116-1.005-.01-1.344-.337-1.296-1.358.16-3.215-.15-6.357-1.195-9.416-.133-.395-.128-.836-.18-1.26-.388-3.156-.72-6.32-1.18-9.466-.525-3.58-.782-7.172-.745-10.786.007-.743-.008-1.487-.02-2.23-.052-2.337.072-4.694-.2-7.01-.458-3.92-.275-7.85-.45-11.772-.05-1.173.24-1.547 1.324-1.837.71-.19 1.455-.334 2.184-.338 8.923-.047 17.845-.153 26.758.405.96.06 1.198.584.6 1.504-2.017 3.12-4.042 6.238-6.105 9.33-4.243 6.357-8.51 12.7-12.757 19.054-.292.44-.58.903-.76 1.395-.14.372-.243.86-.12 1.21.252.713.334 1.153-.602 1.358-1.11.245-1.427 1.118-1.477 2.17-.047 1.045.355 1.84 1.12 2.514 2.088 1.85 4.41 3.293 7.03 4.277 2.78 1.046 5.613 1.887 8.51 2.57 3.634.86 7.265 1.4 11.014 1.39 2.745-.008 5.25-.664 7.637-1.898 2.17-1.122 4.254-2.41 6.46-3.448 2.204-1.04 4.045-2.703 6.39-3.492.89-.302 1.14-1.656.61-2.475zM13.78 79.33c-.388.684-.73.86-1.22.58-.55-.315-1.082-.66-1.59-1.035-.128-.09-.164-.326-.197-.506-.01-.04.156-.15.25-.164.417-.06.836-.09 1.326-.14.45.065.972.112 1.476.227.1.02.21.307.198.46-.02.197-.14.392-.245.577zm4.5-.052c-.21.683-.413 1.37-.648 2.045-.123.356-.653.39-1.05.142-.466-.3-.77-.676-.7-1.257.037-.304.127-.604.194-.907.227-.982.416-1.123 1.483-1.113.86.005.994.194.72 1.09zm2.95 2.634c-.032.122-.22.2-.336.3-.047-.097-.126-.185-.14-.284-.08-.634-.148-1.267-.22-1.87 0-.453-.106-.92.033-1.29.132-.35.505-.628.818-.88.143-.113.416-.155.597-.107.11.03.25.32.218.455-.3 1.232-.63 2.458-.97 3.678zm22.87-4.25c-1.075.448-2.185.82-3.235 1.323-1.035.497-1.947.576-2.972-.088-.565-.37-1.188-.03-1.59.627-.268.446-.42.98-.75 1.372-.687.817-1.74.604-2.203-.395-.09-.19-.117-.41-.208-.595-.284-.6-.676-1.09-1.392-1.163-.464-.045-1.006.524-1.195 1.302-.173.713-.277 1.442-.424 2.16-.017.088-.13.154-.2.228-.076-.078-.17-.144-.214-.235-.283-.56-.475-1.19-.86-1.662-.206-.25-.748-.33-1.124-.296-.215.02-.51.383-.577.64-.133.506-.085 1.058-.203 1.57-.064.263-.284.61-.512.687-.516.168-.755-.288-.875-.678-.187-.604-.32-1.228-.398-1.85-.075-.63-.038-1.268-.088-1.9-.03-.372-.588-.735-.134-1.1.316-.252.755-.41 1.158-.472.838-.13 1.69-.228 2.534-.24 2.445-.03 4.89-.01 7.328-.01v.01c2.66 0 5.314-.007 7.968.018.218.002.434.238.648.365-.157.127-.297.3-.48.38zM34.346 53.53c.504.81.952 1.653 1.393 2.5 2.596 4.98 5.183 9.97 7.77 14.957.195.376.447.75.518 1.152.036.205-.222.64-.412.685-.506.117-1.047.098-1.577.1-2.44.006-4.88.002-7.32.002v-.015c-.53 0-1.06.01-1.592-.002-4.044-.09-8.057.214-12.02 1.008-3.264.65-6.545.443-9.824.44-.248 0-.725-.133-.448-.575 1.764-2.8 2.805-5.93 4.163-8.917 1.054-2.312 2.355-4.518 3.29-6.874 1.995-5.016 3.836-10.09 5.71-15.153.436-1.19.724-2.434 1.11-3.644.154-.484.983-.576 1.312-.14.316.415.63.85.837 1.326 2.01 4.572 4.447 8.91 7.082 13.148zM62.59 18.183c-.08.01-.198-.21-.3-.33.076-.063.164-.186.22-.173.184.045.352.14.526.216-.15.105-.288.26-.446.285zm22.445 59.265c-.213-.07-.368-.354-.497-.576-.015-.032.274-.346.387-.326.24.04.454.216.856.43-.36.242-.606.517-.745.472zm4.7 1.81c-.02.056-.48.044-.513-.03-.237-.55-.416-1.123-.497-1.354-.02-1.355.67-1.906 1.57-1.594.16.055.4.317.37.412-.275.866-.59 1.722-.93 2.565zm9.965-1.283c-.1.51-.064 1.045-.088 1.568-.017.368.256.942-.316.97-.31.017-.722-.404-.96-.724-.31-.42-.463-.95-.736-1.4-.683-1.124-1.892-1.13-2.485-.01-.197.373-.28.8-.46 1.184-.076.164-.285.405-.394.387-.17-.03-.344-.227-.465-.394-.6-.847-.482-1.824-.405-2.768.015-.214.397-.548.628-.564.95-.066 1.905-.027 2.86-.027v.067c.635.043 1.274.062 1.905.128.496.053 1.17-.117 1.358.48.09.292-.366.713-.44 1.1zm11.517-.47c-.44.283-.928.493-1.368.78-.913.6-1.72.716-2.398-.343-.096-.15-.39-.314-.528-.27-.26.082-.6.27-.672.49-.082.255.043.61.157.89.19.476.084.837-.37 1.03-.573.25-1.165.47-1.77.635-.542.15-1.056.03-1.35-.507-.3-.55-.53-1.14-.833-1.696-.954-1.742-.96-1.736 1.122-1.717 1.05.008 2.1 0 3.15 0v.143c1.577 0 3.15-.003 4.726.005.096 0 .27.093.267.128-.015.15-.038.367-.14.432zm3.883-3.75c-1.067.006-2.128 0-3.19 0-.003.04-.007.077-.014.115-2.11-.192-4.216-.46-6.333-.557-4.134-.19-8.27-.424-12.403.134-2.955.4-5.922.39-8.89-.02-1.362-.19-2.75-.204-4.126-.307-.815-.064-1.045-.563-.58-1.305.512-.808 1.073-1.584 1.6-2.38 3.832-5.738 7.7-11.455 11.467-17.236 1.504-2.31 2.783-4.765 4.15-7.16.997-1.756 1.96-3.528 2.964-5.277.314-.546 1.27-.462 1.593.117.206.372.366.767.544 1.153 3.276 7.02 6.55 14.04 9.82 21.062 1.3 2.79 2.59 5.584 3.88 8.38.22.48.428.972.62 1.466.677 1.717.62 1.805-1.1 1.815zm-17.38 26.65c-.814-.205-1.665-.355-2.5-.363-6.156-.05-12.305-.05-18.46-.08-6.152-.03-12.305-.092-18.46-.116-1.482-.005-3-.107-4.44.168-2.323.444-4.64.384-6.97.42-3.075.042-6.15.11-9.227.17-.85.017-1.698.053-2.546.05-1.593-.006-3.147-.2-4.712-.602-1.78-.46-3.517.945-3.47 2.702.053 1.915.037 3.794-.36 5.688-.307 1.458-.143 2.955.3 4.405.35 1.163.8 1.6 2.01 1.653 1.693.073 3.393.14 5.087.107 8.058-.15 16.11-.055 24.167-.465 8.68-.437 17.393-.176 26.095-.2 1.163-.004 2.33.105 3.494.168 2.22.12 4.434.256 6.655.363 2.656.124 4.13-1.186 4.832-3.648.478-1.694.448-3.343.314-4.976.054-1.01.16-1.968.145-2.918-.02-1.362-.666-2.202-1.958-2.528zm-62.186 7.473c-.14.648-.475.924-.768.68-.226-.19-.42-.446-.557-.71-.093-.17-.064-.41-.115-.84.117-.397.24-1.016.5-1.576.09-.2.527-.38.767-.335.215.038.54.405.527.606-.05.728-.204 1.456-.357 2.174zm4.138-1.638c-.3.66-.59 1.33-.925 1.973-.08.153-.324.292-.497.3-.123.004-.325-.204-.37-.353-.084-.293-.084-.613-.135-1.03.05-.415.096-.93.186-1.44.074-.4.866-.7 1.314-.465.384.2.648.53.43 1.016zm2.228.866c-.043-.093-.11-.183-.122-.277-.046-.42-.043-.83.45-1 .068-.02.174.06.424.156-.267.395-.51.757-.752 1.12zm3.58.544c-.026.153-.105.776-.25 1.387-.035.145-.29.314-.454.326-.14.008-.41-.183-.42-.302-.052-.62-.074-1.252-.042-1.875.043-.904.49-1.62.832-1.424.33.195.43.568.333 1.89zm49.434.316c-.043.245-.378.552-.634.62-.606.162-1.244.255-1.875.282-5.184.21-10.368.398-15.552.594 0-.02-.003-.037-.003-.056-2.334 0-4.67.01-7-.005-.886-.003-.972-.096-1.236-1.047-.056-.203 0-.467-.114-.613-.24-.316-.512-.705-.853-.822-.578-.2-.98.18-1.224.712-.173.388-.322.79-.537 1.152-.533.922-1.926.885-2.58-.062-.182-.258-.276-.59-.486-.81-.312-.32-.728-.468-1.13-.163-.334.254-.657.547-.9.883-.588.81-1.413.853-2.278.786-.46-.034-.792-.25-.816-.768-.01-.21-.006-.422-.025-.636-.03-.434-.144-.875-.612-.978-.62-.14-.965.3-1.216.787-.24.474-.417.98-.67 1.44-.276.517-.772.663-1.336.685-.837.032-1.182-.22-1.285-1.01-.013-.105-.004-.21-.004-.318 0-.858.04-1.98-.988-2.033-.736-.037-.86 1.045-1.01 1.786-.08.4-.203.87-.48 1.13-.264.25-.766.403-1.13.352-.344-.05-.886-.386-.926-.657-.525-3.52-1.172-3.616 2.764-3.515 2.756.07 5.513.07 8.27.056 1.585-.008 3.168-.02 4.72-.516.684-.216 1.464-.173 2.202-.168 1.8.008 3.602.043 5.403.1 7.2.243 14.398.502 21.606.396 1.472-.023 2.197.903 1.935 2.42z"/></svg>