<svg xmlns="http://www.w3.org/2000/svg" width="128" height="128" viewBox="0 0 128 128"><path d="M113.87 87.53c-.145-1.326-.467-2.662-.917-3.92-.78-2.178-1.732-4.288-3.68-5.744-1.155-.864-2.302-1.74-3.403-2.67-1.136-.956-2.426-1.62-3.865-1.823-3.325-.475-6.642-1.04-10.022-.228-3.027.73-5.927 1.594-7.883 4.27-.274.376-.924.324-1.263-.07-.31-.362-.608-.742-.885-1.132-1.508-2.112-3.005-4.237-4.515-6.347-.74-1.037-.728-1.155.21-1.835 1.635-1.18 3.34-2.285 4.88-3.584 2.348-1.986 4.758-3.947 6.822-6.213 2.974-3.266 5.91-6.627 8.414-10.26 2.766-4.022 5.182-8.313 6.827-12.963.353-.995.59-2.03.935-3.028 1.368-3.95 2.108-7.99 1.756-12.352 0-1.564.01-3.296-.002-5.03-.008-1.7-.96-2.866-2.245-3.818-.51-.373-1.155-.347-1.595.035-.288.253-.574.515-.826.804-1.77 2.03-3.573 4.03-4.808 6.46-.347.684-.773 1.33-1.22 1.955-4.156 5.792-8.747 11.232-13.543 16.498-1.034 1.136-2.065 2.29-2.956 3.537-2.912 4.074-5.995 8.012-9.272 11.794-1.073 1.237-2.155 2.46-3.24 3.683-.336.38-.928.363-1.26-.032-.247-.293-.473-.605-.692-.92-6.372-9.277-12.764-18.54-19.098-27.843-2.706-3.976-5.28-8.043-7.93-12.056-.53-.8-1.105-1.576-1.71-2.322-.48-.595-1.145-.633-1.793-.152-.38.288-.747.606-1.093.94-1.46 1.413-2.673 3.018-3.657 4.802-1.14 2.07-1.727 4.245-1.7 6.624.02 1.75.275 3.45.69 5.128.487 1.955.87 3.97 1.892 5.73 2.073 3.577 4.132 7.17 6.39 10.628 2.578 3.942 5.384 7.733 8.06 11.612 2.46 3.563 4.875 7.155 7.307 10.737.553.816.542 1.01-.19 1.71-1.184 1.13-2.42 2.21-3.266 3.642-.288.485-.708.6-1.227.475-1.49-.36-2.968-.8-4.475-1.064-3.034-.53-6.1-.697-9.177-.527-6.15.342-11.104 2.795-14.38 8.216-3.694 6.112-5.724 12.56-4.287 19.782.696 3.508 2.158 6.524 5.092 8.756 3.944 2.997 8.3 4.78 13.286 4.922 2.7.078 5.38-.025 8.02-.7 2.956-.754 5.59-2.03 7.614-4.397 1.25-1.46 2.58-2.86 3.802-4.347 2.52-3.072 4.064-6.507 3.666-10.6-.028-.288.015-.58-.005-.866-.105-1.442.218-2.62 1.634-3.38.746-.398 1.343-1.078 1.997-1.645 1.528-1.325 3.04-2.665 4.574-3.98.314-.268.72-.303 1.036.017.403.41.757.87 1.147 1.292 2.543 2.75 4.673 5.885 7.67 8.208.328.253.416.605.325 1.025-1.323 6.173.4 11.397 4.977 15.688 1.472 1.38 3.066 2.632 4.57 3.98 2.747 2.46 5.89 3.06 9.4 2.124 1.67-.444 3.334-.933 5.03-1.26 1.64-.313 3.147-.933 4.516-1.823 1.61-1.045 3.235-2.118 4.643-3.408 1.633-1.496 2.947-3.317 3.62-5.475.656-2.105 1.2-4.243 1.77-6.377.147-.555.303-1.14.264-1.7-.21-3.063-.42-6.13-.752-9.183zM70.613 60.14c.77-.856 1.532-1.74 2.406-2.48 2.66-2.247 4.91-4.88 7.027-7.61 2.41-3.112 4.626-6.375 6.98-9.535 2.87-3.854 5.824-7.64 8.672-11.51 1.766-2.394 3.405-4.884 5.114-7.325.096-.136.314-.188.474-.28.08.172.167.337.234.513.032.085.018.19.053.67-.238 1.137-.523 2.644-.867 4.138-.476 2.057-.992 4.1-1.496 6.15-.558 2.265-1.666 4.295-2.793 6.3-.8 1.423-1.724 2.778-2.67 4.104-2.568 3.597-5.18 7.165-7.774 10.74-.397.545-.755 1.132-1.23 1.598-3.147 3.105-6.173 6.34-9.688 9.048-.152.117-.308.235-.475.325-.462.256-.966.27-1.344-.08-1.216-1.123-2.037-2.542-2.795-3.99-.096-.186.006-.597.163-.774zM21.256 95.892c.05-.51.245-.924.7-1.156 1.86-.94 3.724-1.865 5.62-2.787.06-.03.335.15.337.24.004.275-.098.555-.117.836-.043.645.144 1.403-.137 1.91-.357.637-1.24.138-1.85.348-1.25.432-2.49.9-3.73 1.358-.5.183-.885-.18-.827-.75zm40.597-15.215c-1.3.516-2.192 1.534-3.13 2.496-1.34 1.38-2.653 2.787-4.016 4.145-.983.98-1.6 2.11-1.922 3.472-.46 1.958-1.052 3.887-1.573 5.835-.378 1.408-1.007 2.67-1.91 3.834-1.645 2.133-3.282 4.256-5.44 5.926-1.65 1.275-3.476 2.083-5.556 2.112-2.01.027-4.028-.104-6.04-.206-.524-.028-.784-.548-.612-1.07.18-.543.416-1.07.558-1.623.067-.26.036-.587-.07-.834-.1-.243-.32-.516-.552-.6-.213-.077-.616-.013-.757.15-.63.717-1.18 1.503-1.792 2.24-.173.21-.516.506-.685.452-.727-.225-1.487-.468-1.903-1.19-.066-.11 0-.404.108-.5.635-.576 1.372-1.024 1.788-1.84.442-.863-.043-1.846-1.024-1.855-.466-.004-.97.064-1.39.248-.612.27-1.153.69-1.735 1.028-.726.422-1.104.267-1.49-.686-.08-.203-.03-.66.096-.72 1.636-.8 3.29-1.567 4.96-2.29.197-.086.578.05.768.21.286.24.476.593.708.898 1.486 1.94 3.56 3 5.875 3.303 1.923.25 3.812-.4 5.4-1.596.844-.63 1.668-1.33 2.348-2.124 1.312-1.532 2.56-3.122 3.757-4.745 1.227-1.665 1.813-3.615 1.93-5.652.125-2.286-.927-4.067-2.76-5.39-.3-.212-.687-.347-1.053-.43-1.496-.335-2.99-.69-4.5-.94-1.81-.295-3.626-.317-5.42.238-1.337.414-2.454 1.118-3.22 2.287-1.007 1.523-1.973 3.073-2.917 4.633-.266.443-.532.53-.857.168-.567-.633-1.288-.8-2.083-.78-.94.023-1.883.055-2.827.087 0 .013.005.03.006.044-.037.008-.07.02-.108.026-.06.063-.117.13-.174.195.017-.06.02-.144.056-.167.032-.02.075-.02.117-.028.022-.022.04-.048.062-.07h.037c-.03-.27-.127-.562-.044-.793 1.024-2.85 2.552-5.365 4.898-7.345 1.436-1.212 3.086-1.963 4.913-2.245 1.407-.22 2.815-.515 4.283-.2.822.174 1.737.077 2.58-.065 2.403-.402 4.768-.363 7.145.205 1.304.31 2.652.43 3.98.642.82.132 1.498-.142 2.12-.668 1.403-1.19 2.612-2.54 3.52-4.156.223-.4.634-.42.938-.09 1.572 1.684 3.142 3.373 4.706 5.07.305.317.273.81-.1.957zM35.53 92.672c.063-1.05.106-2.1.202-3.147.107-1.205.81-1.852 1.98-2.117 1.33-.303 2.642-.34 3.963.01 1.8.48 3.06 2.363 2.573 4.158-.606 2.23-1.67 4.252-3.282 5.963-.952 1.01-2.06 1.444-3.344.9-1.227-.518-1.92-1.55-2.008-2.898-.062-.95-.014-1.91-.014-2.866l-.072-.002zm27.036-23.147c.142.373.122.808.143 1.227-.42-.46-.796-.988-1.296-1.327-1.877-1.272-3.05-3.177-4.504-4.832-.56-.643-.64-1.338-.375-2.144.333-1 .608-2.02.87-3.04.256-1-.02-1.903-.587-2.733-.508-.743-1.483-.917-2.304-.48-.83.44-1.188 1.22-1.58 1.992-.142.28-.364.41-.63.144-.132-.13-.328-.325-.31-.463.126-.842.298-1.68.466-2.52.17-.842.387-1.68.517-2.527.056-.368 0-.774-.1-1.136-.16-.587-.57-1.003-1.136-1.216-.623-.234-1.16.076-1.55.487-.45.482-.766 1.09-1.17 1.624-.085.118-.286.15-.44.22-.043-.175-.155-.37-.115-.525.437-1.765.9-3.527 1.362-5.288.154-.59.068-1.127-.248-1.653-.524-.864-1.57-.992-2.12-.158-.577.877-1.027 1.84-1.535 2.763-.196.353-.67.365-.937.02-.237-.305-.453-.62-.677-.933-.296-.412-.383-.832-.225-1.344.368-1.19.715-2.39 1.01-3.6.2-.83.35-1.684.413-2.535.02-.335-.224-.716-.416-1.03-.244-.39-.97-.47-1.282-.165-.27.267-.55.54-.74.86-.396.657-.718 1.36-1.11 2.02-.233.395-.544.747-.817 1.12-.48-.343-.263-.843-.214-1.248.272-2.286.586-4.568.906-6.848.107-.758.31-1.51.38-2.27.02-.22-.22-.553-.434-.68-.206-.124-.607-.16-.786-.038-.467.317-.925.694-1.27 1.14-.705.907-1.332 1.875-2 2.814-.276.392-.75.397-.91 0-1.49-3.67-2.732-7.38-2.37-11.44.098-1.106.513-2.034 1.174-2.883.377-.48 1.187-.483 1.486.018.64 1.073 1.2 2.19 1.867 3.244 1.642 2.597 3.33 5.165 4.985 7.753 2.02 3.154 3.95 6.368 6.056 9.464 4.32 6.354 8.748 12.64 13.465 18.71.703.91 1.546 1.71 2.27 2.605.865 1.07 1.937 2.027 2.148 3.494-.558-.276-1.1-.593-1.685-.79-1.58-.544-2.788.04-3.407 1.634-.304.79-.58 1.593-.24 2.487zm.26 1.43c.267.045.425.2.47.472-.274-.043-.4-.23-.47-.472zm46.712 25.27c-.282 3.52-1.46 6.744-3.784 9.474-2.023 2.374-4.294 4.37-7.43 5.22-1.436.39-2.85.48-4.276.29-2.944-.4-5.49-1.68-7.648-3.717-.697-.658-1.35-1.368-2.012-2.067-2.534-2.68-3.13-5.883-2.357-9.36.188-.833.13-1.492-.216-2.198-.814-1.66-1.794-3.073-3.558-3.99-1.14-.593-2.054-1.717-2.923-2.73-2.38-2.774-4.634-5.654-7.023-8.417-1.644-1.89-3.16-3.865-4.53-5.962-.252-.388-.49-.768-.41-1.25.33.11.676.19.98.348 1.87.946 4.524-.958 4.133-3.438-.11-.71-.304-1.408-.466-2.112.075 0 .15-.002.183.034 1.483 1.75 3.008 3.465 4.42 5.27 1.6 2.04 3.04 4.208 4.658 6.235 1.2 1.5 2.533 2.897 3.89 4.256.668.673 1.503 1.188 2.303 1.718.653.433 1.015.34 1.465-.267.454-.62.984-1.21 1.312-1.89.626-1.31 1.707-2.063 2.955-2.613 2.113-.928 4.25-1.774 6.59-1.97 1.05-.09 2.086-.347 3.134-.476 1.288-.16 2.478.13 3.54.91.54.397 1.078.806 1.667 1.117 1.51.802 2.523 2.027 3.288 3.52 1.25 2.428 2 5 2.126 7.717.096 2.112.162 4.242-.007 6.347zM99.373 84.052c-1.39-1.2-2.893-1.61-4.75-1.553-3.467.106-6.933 2.522-7.804 6.463-.32 1.44-.274 2.853-.326 4.28-.177 2.532.322 4.955 1.073 7.36.334 1.072.885 1.812 1.838 2.43 1.29.83 2.464 1.87 3.985 2.25 2.548.632 4.942.53 6.894-1.596 1.04-1.133 2.04-2.278 2.914-3.552.91-1.328 1.372-2.736 1.325-4.322-.08-2.72-.638-5.327-1.912-7.755-.813-1.553-1.907-2.857-3.236-4.007zm-1.107 14.742c-1.19 1.465-3.755 1.576-5.17.277-1.337-1.223-2.168-2.684-2.15-4.543.01-1.053-.015-2.115.084-3.164.16-1.624 1.043-2.915 2.307-3.845.562-.415 1.427-.42 2.155-.612 1.312-.05 2.23.533 3.045 1.46 1.14 1.3 1.6 2.89 1.653 4.518.068 2.15-.527 4.192-1.923 5.906z"/></svg>