<svg xmlns="http://www.w3.org/2000/svg" width="128" height="128" viewBox="0 0 128 128"><path d="M72.273 104.376c-.894.067-1.692.355-2.487.797-1.734.958-3.528 1.805-5.297 2.7-1.564.786-1.59.33-1.497-.865.023-.325-.008-.663-.078-.98-.196-.9-1.295-1.41-2.084-.902-.44.283-.847.72-1.09 1.182-.19.354-.08.86-.135 1.294-.07.533-.454.825-.853.64-1.203-.552-2.402-1.112-3.587-1.7-4.414-2.187-8.82-4.39-12.754-7.403l-.002-.04c-.026-.006-.05-.013-.076-.017l.08.083c-.763-.44-1.544-.847-2.286-1.323-3.35-2.144-6.505-4.548-9.54-7.112-.514-.434-.51-.54.04-.91.362-.242.778-.422 1.09-.72.508-.48.733-1.097.455-1.797-.3-.754-.75-1.342-1.666-1.376-.72-.025-1.327.192-1.668.834-.2.38-.228.844-.4 1.243-.053.128-.38.286-.466.235-2.42-1.446-4.465-3.235-5.312-6.062-.064-.21-.105-.43-.128-.648-.446-4.158-.885-8.317-1.33-12.476-.153-1.422-.35-2.84-.466-4.263-.274-3.403-.544-6.807-.75-10.215-.16-2.642-.204-5.29-.346-7.934-.088-1.646-.363-3.287-.386-4.932-.085-6.18-.085-12.358-.16-18.538-.02-1.54-.19-3.075-.32-4.61-.1-1.135.133-1.52 1.165-1.5 1.652.03 3.3.17 4.953.22 1.98.06 3.957.096 5.937.1.768 0 1.536-.176 2.304-.172 9.8.053 19.606-.152 29.41.288 4.187.188 8.4.006 12.564.38 3.972.36 7.93.297 11.893.347 3.31.04 6.622-.004 9.93-.004.553 0 1.105.005 1.654.055.49.046.8.348.815.853.015.66.02 1.325-.032 1.983-.13 1.647-.41 3.29-.414 4.933-.005 1.754.32 3.503.35 5.26.076 3.53.05 7.06.06 10.59 0 .55-.02 1.106-.108 1.646-.077.49-.4.326-.66.14-.36-.257-.668-.646-1.06-.763-.377-.112-.897-.067-1.243.117-.85.454-1.12 1.653-.69 2.62.426.964 1.4 1.278 2.477.8 1.187-.53 1.253-.526 1.195.542-.18 3.19-.416 6.373-.63 9.56-1.158 2.73-.29 5.434.166 8.127.1.59.6 1.17 1.044 1.632.7.73 2.123.49 2.552-.416.33-.688.648-1.425.752-2.17.32-2.29.657-4.59.763-6.893.26-5.617.44-11.237.56-16.86.13-6.177.165-12.357.236-18.538.01-.993-.023-1.985-.016-2.977.015-2.195-1.044-3.72-2.832-4.912-1.252-.834-2.554-1.14-4.038-1.162-9.152-.135-18.296.007-27.456-.41-14.55-.655-29.124-.365-43.69-.138-2.636.043-5.268.442-7.905.446-1.53.003-2.493.643-3.32 1.762-.62.837-.79 1.787-.83 2.8-.16 4.19-.387 8.37-.52 12.556-.22 6.842.088 13.67.59 20.494.017.22.033.44.054.66.384 3.943.75 7.89 1.163 11.828.252 2.41.54 4.818.89 7.214.48 3.27 1.023 6.53 1.038 9.845.013 2.57.226 5.07 2.115 7.077 1.782 3.5 4.396 6.333 7.335 8.84 5.806 4.95 12.197 9.078 18.737 12.982 4.547 2.716 9.507 4.623 14.072 7.296.654.384 1.423.625 2.226.357 2.512-.85 4.955-1.854 7.12-3.414 1.07-.77 2.118-1.576 3.106-2.447.736-.65 1.474-1.356 1.99-2.177.562-.893.404-1.91-.22-2.796-.51-.715-1.248-.853-2.06-.79zm-10.795 4.53c-.075.005-.158-.104-.238-.16.18-.048.354-.116.535-.13.075-.008.158.1.238.157-.178.05-.355.117-.535.134zM45.018 95.81L45 95.806l.027.06.043.004c-.018-.02-.036-.037-.053-.057zm11.44 7.11c.404.366.865.725 1.364.917 1.877.723 3.81 1.244 5.713.147 1.62-.932 3.16-2 4.755-2.976 1.472-.9 2.475-2.158 3.085-3.758.3-.785.21-1.497-.26-1.814-.513-.346-1.043-.245-1.57-.045-.103.04-.193.11-.293.158-1.758.828-3.15 2.42-5.26 2.52-.785.607-1.567 1.215-2.35 1.82-.81.622-1.234.66-2.073.04-2.49-1.828-5.06-3.52-7.693-5.143-2.797-1.728-5.62-3.485-7.808-6.044-.69-.805-.716-.74-.05-1.794.406-.645.78-1.33 1.04-2.048.134-.373.065-.875-.06-1.27-.085-.268-.4-.564-.67-.643-.252-.072-.643.05-.866.226-.825.644-1.05 1.648-1.442 2.555-.264.612-.69.646-1.28.154-.085-.073-.17-.14-.253-.214-.737-.687-.828-1.003-.406-1.685.467-.75.964-1.477 1.444-2.22.24-.367.494-.73.703-1.12.1-.186.188-.433.15-.632-.08-.405-.14-.902-.4-1.173-.332-.34-.847-.18-1.165.156-1.06 1.12-2.09 2.27-3.127 3.41-.55.606-.832.668-1.39.283-.956-.66-1.08-1.02-.523-1.856.98-1.468 2.012-2.9 2.983-4.37.3-.455.68-.997.657-1.48-.02-.45-.485-.93-.862-1.283-.155-.144-.687-.107-.878.053-.675.56-1.32 1.17-1.895 1.832-.72.83-1.355 1.732-2.054 2.583-.066.08-.446.056-.486-.023-.352-.667-.885-1.34-.377-2.14.95-1.485 1.954-2.935 2.893-4.43.402-.64.715-1.34 1.01-2.037.054-.124-.138-.418-.292-.547-.15-.124-.43-.24-.587-.18-.404.154-.826.34-1.142.626-.736.666-1.408 1.4-2.123 2.088-.144.136-.495.31-.527.272-.205-.24-.37-.525-.51-.81-.273-.56-.085-1.094.186-1.577.595-1.056 1.258-2.075 1.844-3.134.427-.77.82-1.56 1.14-2.377.175-.448-.073-.9-.534-1.04-.253-.075-.68 0-.86.18-.548.54-1 1.172-1.52 1.74-.11.122-.447.224-.508.163-.14-.14-.213-.38-.237-.59-.156-1.386.267-2.578 1.138-3.675.753-.942 1.44-1.95 2.048-2.99.18-.3.06-.83-.044-1.225-.102-.395-.552-.352-1.103.1-.423.353-.81.75-1.244 1.086-.134.103-.45.154-.548.068-.142-.122-.2-.38-.228-.59-.137-1.024.075-1.955.675-2.82 1.38-1.99 2.72-4.008 4.095-6.002.283-.41.41-.77-.006-1.14-.366-.323-.798-.383-1.21-.116-.367.236-.738.496-1.026.82-.66.74-1.256 1.534-1.903 2.287-.095.11-.323.13-.492.14-.05.003-.142-.167-.16-.268-.26-1.474-.085-2.854.857-4.08.54-.7 1.12-1.377 1.563-2.135.363-.622 1.24-1.33.654-2.03-.806-.957-1.598-.022-2.246.476-.75.577-1.247.334-1.31-.51-.178-2.53-.406-5.054-.59-7.583-.055-.768-.047-1.544-.032-2.315.01-.602.437-1.077 1.018-1.056 2.987.107 5.937-.384 8.905-.506 4.63-.185 9.268-.12 13.9-.255 5.288-.15 10.573-.403 15.857-.62.33-.012.656-.084.986-.11 1.646-.145 3.29-.376 4.94-.406 4.08-.07 8.165-.05 12.25-.063.436 0 .88.005 1.32.053.492.06.8.36.803.868.03 4.08.132 8.162.05 12.242-.076 3.855-.35 7.705-.537 11.558-.084 1.76.066 3.57-.29 5.274-.383 1.835.12 3.493.412 5.207.08.49.555.922.878 1.36.235.32.87.295 1.165 0 1.05-1.057 1.49-2.375 1.817-3.805.593-2.617.406-5.267.513-7.904.258-6.4.192-12.79-.4-19.174-.102-1.088.01-2.202.066-3.305.048-.99.185-1.975.22-2.964.077-2.16-.48-3.045-2.477-3.676-.824-.26-1.735-.346-2.604-.347-4.305-.008-8.608-.015-12.912.085-4.284.096-8.555.507-12.845.526-5.63.024-11.258.06-16.884.112-2.205.02-4.405.01-6.59.474-.846.18-1.755.077-2.634.096-1.544.032-3.09.005-4.626.105-1.976.13-3.947.354-5.918.55-.552.052-1.024.517-1.077 1.07-.05.548-.1 1.1-.077 1.65.274 6.165-.256 12.338.48 18.507.5 4.15.512 8.358.78 12.538.09 1.426.308 2.844.415 4.272.297 3.954 1.074 7.87.93 11.857-.02.552-.066 1.11-.02 1.653.22 2.496.865 4.858 3.188 6.19 2.223 1.274 4.035 3.05 6.06 4.565 2.89 2.163 5.656 4.496 7.964 7.31.9.387 1.883.655 2.684 1.19 2.928 1.955 6.128 3.514 8.762 5.91zm57.316-18.405c-.378-1.587.088-3.02.158-4.52.047-.98-.414-1.773-1.38-2.004-1.152-.276-1.952-.943-2.66-1.823-.343-.424-.754-.802-1.147-1.188-1.276-1.258-2.697-2.225-4.512-2.595-1.18-.242-2.34-.643-3.456-1.105-1.255-.52-2.528-.726-3.87-.667-.882.04-1.766.053-2.645.007-1.245-.062-2.382.19-3.494.774-1.47.772-3.03 1.26-4.723 1.376-.963.068-2.005.317-2.832.795-1.71.99-3.345 2.127-4.926 3.317-1.15.867-2.048 2.02-2.65 3.343-.96 2.1-1.866 4.23-2.794 6.347-.452 1.027-.584 2.1-.587 3.22-.01 4.065 1.312 7.793 2.884 11.446 1.195 2.776 3.075 5.077 5.333 7.072 1.167 1.035 2.466 1.81 3.953 2.336 3.038 1.08 6.14 1.712 10.264 1.754 1.897.064 4.597-.416 7.147-1.55 5.59-2.485 9.116-6.757 10.813-12.603.866-2.982 1.4-6 1.29-9.117-.052-1.544.18-3.147-.167-4.614zm-6.254 12.798c-1.93 4.79-5.173 7.923-10.315 9.37-4.113 1.16-7.8.68-11.454-1.197-1.604-.823-2.936-2.052-3.632-3.707-1.408-3.345-2.918-6.668-3.537-10.284-.15-.867-.274-1.734-.41-2.603 0-2.197.644-4.008 2.175-5.704 3.684-4.08 8.153-6.66 13.495-7.785 1.527-.322 3.056-.313 4.566.162 1.152.363 2.296.87 3.477 1 2.056.232 3.395 1.45 4.65 2.87.473.533.488.973.028 1.425-.706.696-1.39 1.43-2.17 2.034-2.8 2.174-5.206 4.757-7.64 7.307-.986 1.032-1.83 2.195-2.77 3.273-.074.088-.46.075-.526-.018-.384-.53-.732-1.088-1.064-1.656-.95-1.614-1.866-3.246-2.84-4.844-.28-.46-.673-.875-1.09-1.21-1.052-.842-2.884-.055-3.037 1.302-.062.54-.107 1.136.055 1.637 1.355 4.216 3.22 8.194 5.77 11.83.602.86 1.485 1.264 2.564 1.25.957-.012 1.7-.4 2.28-1.134.134-.17.276-.348.364-.548 1.786-4.206 5.118-7.112 8.44-10.02.995-.874 2.02-1.712 3.065-2.518.23-.174.706-.304.89-.183.208.14.317.59.29.89-.254 3.073-.446 6.15-1.62 9.06zm-83.947-72c.237-.474.32-1.024.453-1.472-.09-.532-.14-.967-.24-1.394-.124-.542-.914-1.168-1.472-1.13-.68.047-1.355.298-1.63.932-.456 1.045-.44 2.136.18 3.153.622 1.018 2.177.988 2.71-.086zm.86 49.675c.66-.18 1.207-.526 1.382-1.255.05-.21.072-.432.147-.898-.14-.395-.285-1.035-.587-1.59-.292-.546-1.23-.86-1.742-.554-.435.263-.892.7-1.05 1.16-.248.723-.183 1.516.235 2.226.326.56 1.114 1.053 1.614.913zM22.236 40.81c.934-.15 1.63-1.11 1.557-2.142-.067-.91-.827-1.71-1.626-1.707-.98.004-2.062 1.188-1.997 2.19.053.867 1.213 1.8 2.065 1.66zm.723 16.49c.9-.097 1.587-.857 1.61-1.914-.038-.184-.065-.515-.178-.816-.286-.757-1.06-1.2-1.82-1.088-.767.117-1.307.734-1.38 1.595-.02.217-.02.437 0 .655.107.942.92 1.657 1.767 1.568zm62.394-38.073c-.94.034-1.88 1.146-1.696 2.003.188.875 1.1 1.664 1.817 1.576 1.133-.137 2.046-1.23 1.875-2.24-.12-.697-1.123-1.37-1.995-1.34zm-40.228 76.87c-.03-.08-.066-.156-.1-.232-2.72-.245-3.15.245-2.638 2.98.013.08.013.17.017.255.186.038.37.09.555.096 2.453.06 2.995-.717 2.165-3.1zm-4.163-75.233c-.015.883.5 1.47 1.358 1.533 1.2.09 2.038-.548 2.075-1.58.032-.938-.636-1.69-1.577-1.774-1.06-.096-1.836.667-1.857 1.82zM61.04 19.18c-.89.016-1.57.8-1.55 1.783.017.904.59 1.444 1.46 1.384.9-.062 1.694-.885 1.655-1.712-.032-.672-.885-1.47-1.562-1.455zM46.58 87.24c-.053.6.47 1.248 1.106 1.368.62.117 1.288-.427 1.33-1.086.04-.608-.516-1.34-1.083-1.42-.553-.08-1.294.543-1.35 1.137z"/></svg>