<svg xmlns="http://www.w3.org/2000/svg" width="128" height="128" viewBox="0 0 128 128"><path d="M125.26 45.973c-.03-1.598-.23-3.196-.428-4.783-.067-.544-.325-1.073-.552-1.585-.422-.954-1.192-1.52-2.23-1.44-1.99.157-3.946-.262-5.92-.28-4.62-.044-9.236-.172-13.86.24-4.318.383-8.667.45-13.003.57-4.34.117-8.69.077-13.03.2-4.336.124-8.67.376-13.005.544-1.603.062-3.213.016-4.814.083-1.683.072-2.41.776-2.592 2.386-.03.28-.02.567-.028.85-.192 7.74-.23 15.482-.01 23.223.012.47.06.94.09 1.41.145 2.353.31 4.705.423 7.06.05 1.062-.172 1.234-1.36 1.22-3.684-.05-7.365-.11-10.89-.16-4.03.095-7.9.164-11.768.306-.93.033-1.857.28-2.775.49-.555.123-1.02.835-.875 1.28.15.47.46.826.968.937.273.06.56.09.84.107 3.107.16 6.212.4 9.323.45 4.815.083 9.633.027 14.446.056.73.005 1.625-.397 2.154.217.374.437.366 1.214.502 1.845.712 3.266 1.003 3.535 4.306 3.53 6.044-.01 12.085-.033 18.126-.098 1.978-.02 3.953-.245 5.933-.27 6.326-.08 12.65-.116 18.977-.16 1.408-.01 2.82-.123 4.18.47.495.213 1.118.123 1.68.19 3.392.413 6.77-.18 10.155-.153.523.006 1.166-.206 1.554-.546 1.365-1.195 2.464-2.59 2.468-4.542.006-2.36-.032-4.72.002-7.082.032-2.26.105-4.514.388-6.775.376-2.99.56-6.012.646-9.024.103-3.584.05-7.175-.016-10.763zm-64.03-2.788c.02.03.027.075.037.117l.08.056.01.026c.07-.026.14-.056.214-.06 6.687-.432 13.378-.57 20.077-.53 4.528.03 9.06-.008 13.59-.113 3.204-.075 6.402-.332 9.605-.48 1.507-.062 3.02-.03 4.528-.09 1.6-.057 3.2-.167 4.798-.26 1.888-.11 3.776-.143 5.618.358.3.082.627.43.747.732.17.422.156.918.212 1.384.102.834-.224 1.382-.947 1.87-6.89 4.626-13.824 9.18-20.998 13.37-2.517 1.473-4.85 3.26-7.266 4.902-.466.318-.935.638-1.415.934-.443.27-.897.24-1.324-.05-3.99-2.69-7.925-5.45-11.58-8.596-3.288-2.83-6.627-5.608-10.023-8.305-1.772-1.405-3.76-2.533-5.345-4.173-.226-.235-.33-.587-.486-.892l-.06.02c-.01-.034-.026-.066-.034-.104l-.22-.155c.063.01.152.002.183.038zm3.188 27.168c-.495-.515-1.003-.4-1.46.103-.633.693-1.236 1.408-1.86 2.11-.03.03-.16.018-.21-.02-.073-.05-.17-.15-.164-.22.047-.46.028-.96.198-1.375.64-1.566 1.344-3.105 2.027-4.652.382-.86.812-1.7 1.147-2.577.206-.537.17-1.133-.217-1.607-.163-.198-.462-.4-.695-.395-.21.004-.565.26-.597.45-.207 1.18-.9 2.05-1.685 2.87-.11.112-.318.126-.48.186-.06-.175-.145-.348-.177-.527-.113-.686.11-1.29.437-1.885 1.083-1.98 2.144-3.97 3.215-5.956.305-.563.256-1.126-.147-1.563-.423-.46-.945-.577-1.54-.43-.09.02-.18.05-.267.09-.17.08-.328.208-.507.245-.416.083-.712.79-1.193.322-.237-.23-.337-.672-.368-1.028-.107-1.22-.156-2.444-.224-3.622 0-.988-.01-1.93.01-2.87.002-.173.114-.48.202-.49.246-.025.566-.006.746.134.59.467 1.173.954 1.68 1.507 2.874 3.144 6.253 5.72 9.43 8.525 1.343 1.182 2.69 2.36 4.03 3.544.345.302.364.684.062.976-.675.654-1.376 1.288-2.107 1.883-2.634 2.135-5.292 4.24-7.92 6.382-.546.445-.856.42-1.362-.11zm51.35 8.078c-3.244 1.034-6.5 2-9.964 1.828-.38-.02-.757-.003-1.134-.003v-.06c-1.323 0-2.645.02-3.968-.007-.416-.01-.675-.275-.683-.728-.013-.377.017-.763-.048-1.13-.085-.496-.38-.925-.9-.942-.325-.008-.718.194-.972.42-.268.243-.443.61-.596.954-.555 1.216-1.51 1.574-2.78 1.437-.83-.09-.977-.256-.922-1.307.02-.454.066-.94-.053-1.365-.26-.937-1.138-1.263-2.013-.868-.627.284-1.157.653-1.45 1.284-.278.597-.497 1.22-.782 1.813-.064.125-.37.273-.453.223-.21-.124-.504-.365-.496-.542.032-.554.165-1.108.31-1.652.195-.757-.16-1.27-.69-1.723-.39-.334-.93-.288-1.23.135-.767 1.077-1.51 2.17-2.277 3.245-.16.224-.36.47-.6.567-.24.096-.598.11-.81-.005-.203-.107-.43-.467-.39-.66.157-.733.44-1.435.625-2.162.064-.258-.02-.557-.05-.834-.036-.348-.61-.638-.863-.413-.49.432-1.14.823-1.368 1.376-.535 1.31-1.646 1.423-2.752 1.62-.153.028-.477-.116-.475-.16.02-.24.085-.49.205-.697.085-.15.3-.22.43-.35.202-.208.4-.517.1-.71-.79-.512-.75-1.493-1.288-2.14-.277-.333-1.032-.306-1.23.075-.086.165-.172.34-.2.52-.097.574-.23 1.35-.835 1.304-.764-.062-1.76-.164-1.905-1.312-.02-.176-.107-.427-.237-.493-.314-.16-.694-.37-1.007-.316-.77.128-1.36.622-1.793 1.275-.595.9-1.44 1.484-2.393 1.93-.704.33-1.35-.046-1.137-.8.216-.787-.764-1.45-.105-2.14.518-.544 1.133-.99 1.704-1.483 3.005-2.588 6.012-5.178 9.02-7.762.43-.37.857-.745 1.3-1.093.424-.33.882-.288 1.31 0 .468.317.925.653 1.38.99 1.825 1.344 3.644 2.695 5.47 4.038.3.225.62.43.944.62.713.42 1.44.44 2.144-.008 2.547-1.618 5.085-3.253 7.634-4.866 1.756-1.11 3.52-2.205 5.297-3.282.63-.382.953-.33 1.505.203.683.65 1.365 1.31 1.984 2.02 3.348 3.852 6.577 7.798 9.38 12.073.156.238.324.465.47.706.384.632.253 1.152-.38 1.355zm4.695-17.982c-.064.75-.088 1.502-.126 2.254l-.56 10.98c-.005.094.003.207-.044.275-.09.123-.207.235-.334.313-.045.02-.188-.058-.237-.125-.384-.533-.757-1.075-1.13-1.618-2.943-4.274-6.145-8.324-10.092-11.733-.21-.18-.452-.38-.554-.623-.085-.21-.034-.514.046-.745.053-.15.25-.275.407-.367 3.83-2.22 7.402-4.825 11.02-7.363.152-.11.302-.222.46-.324.38-.24.82-.73 1.207-.39.27.24.262.857.282 1.31.04.94.012 1.883.012 2.82l.113.01c-.16 1.776-.325 3.55-.474 5.328zM29.837 68.85c4.432 0 8.862-.008 13.29.002 2.27.006 4.524-.126 6.742-.572.82-.164 1.61-.487 2.4-.776.137-.053.275-.28.297-.443.015-.124-.125-.355-.245-.4-1.058-.385-2.106-.833-3.197-1.085-3.036-.702-6.155-1.037-9.24-1.06-10.173-.077-20.356-.525-30.512.466-1.875.18-3.746.385-5.615.6-.27.03-.528.17-.785.276-.34.14-.395.627-.177.946.474.69 1.156.91 1.935.993 4.4.464 8.79 1.052 13.228 1.03 3.957-.018 7.92-.003 11.876-.003v.03zM17.944 56.724c.736.14 1.487.22 2.235.26 1.316.065 2.652-.022 3.96.138 4.496.54 9.014.772 13.534.966 1.416 0 2.83-.006 4.248 0 1.06.007 2.054-.29 3.01-.705.216-.092.383-.397.472-.64.036-.1-.162-.338-.304-.445-.773-.576-1.665-.845-2.605-1.022-3.53-.664-7.093-1.003-10.677-1.14-1.038-.044-2.1.033-3.108-.16-2.633-.5-5.275-.274-7.912-.24-1.013.014-2.033.348-3.024.626-.47.13-.717.59-.768 1.096-.05.515.378 1.156.934 1.263zm7.515-10.57c.59.264 1.24.463 1.882.536 2.42.284 4.826.722 7.28.68 2.63-.045 5.266.05 7.892-.06 2.184-.088 4.274-.626 6.01-2.08.128-.11.262-.324.242-.467-.023-.15-.208-.363-.355-.395-1.275-.27-2.56-.72-3.84-.708-3 .028-5.997.28-8.995.443l-.005-.078c-2.16 0-4.322.036-6.484-.014-1.243-.024-2.432.2-3.6.56-.295.09-.684.506-.686.77 0 .28.363.684.66.817zm36.553 41.52c-.5-.25-1.04-.43-1.58-.594-1.828-.557-3.727-.682-5.597-.475-2.44.267-4.86.512-7.302.1-.085-.016-.198.02-.27.07-.217.157-.525.294-.604.51-.074.2.027.57.185.732.252.258.592.52.933.587 2.863.528 5.696 1.257 8.635 1.214.754 0 1.53.11 2.256-.025 1.097-.2 2.172-.552 3.24-.896.222-.07.492-.366.516-.584.025-.203-.205-.533-.41-.637z"/></svg>