<svg xmlns="http://www.w3.org/2000/svg" width="128" height="128" viewBox="0 0 128 128"><path d="M109.28 18.978c-.1-.717-.322-1.508-.747-2.07-1.335-1.76-3-2.99-5.387-2.962-3.528.043-7.06.008-10.59-.014-3.85-.02-7.7-.036-11.55-.12-1.81-.04-3.618-.31-5.432-.345-6.95-.124-13.902-.195-20.853-.288v.1c-4.813 0-9.626.057-14.44-.018-4.923-.075-9.813.46-14.72.64-.512.02-1.117.107-1.506.395-1.412 1.042-2.51 2.36-2.7 4.19-.232 2.228-.468 4.463-.55 6.698-.103 2.778-.06 5.56-.06 8.34 0 1.072-.096 2.173.12 3.2.537 2.542.422 5.11.544 7.667.038.853.067 1.71.147 2.56.303 3.186.67 6.368.928 9.557.334 4.15.587 8.31.878 12.466.017.213.036.424.06.64.53 4.34 1.52 8.612 1.847 12.984.045.622.31 1.24.555 1.827 1.48 3.603 3.515 6.846 6.4 9.496 2.205 2.023 4.465 3.986 6.69 5.99 1.102.992 2.058 2.21 3.298 2.98 2.35 1.465 4.81 2.78 7.314 3.968 1.92.91 4.008 1.476 5.978 2.295 3.54 1.475 7.224 2.64 10.448 4.818.933.63 2.016.707 3.068.23 1.845-.842 3.76-1.57 5.496-2.6 5.148-3.052 10.22-6.224 15.322-9.356 5.858-3.595 10.365-8.548 14.112-14.23.878-1.334 1.515-2.823 2.278-4.232.526-.97.773-2.007.667-3.093-.116-1.194.132-2.316.38-3.473.6-2.817 1.208-5.64 1.28-8.54.212-8.87.135-17.744.577-26.613.33-6.62.216-13.26.284-19.89.012-1.067.02-2.147-.127-3.2zm-41.536 88.565c-.176-.027-.346-.105-.517-.162.18-.044.358-.11.54-.124.074-.005.156.105.232.16-.09.047-.18.14-.258.128zm31.23-22.118c-.916 1.038-1.928 2.005-2.75 3.112-2.256 3.044-5.036 5.52-8.182 7.566-4.2 2.734-8.448 5.393-12.73 7.994-1.54.94-3.228 1.643-4.87 2.406-1.312.608-1.326.576-1.477-1.056-.1-1.067-.45-1.554-1.177-1.63-.915-.095-1.77.39-2.032 1.202-.096.297-.058.634-.107.947-.153 1.006-.354 1.163-1.133.797-4.245-1.995-8.475-4.03-12.437-6.562-1.02-.647-1.986-1.376-2.972-2.075.24.018.477.037.715.028 1.995-.075 2.477-.764 1.93-2.76-.042-.155-.098-.303-.152-.454.76.274 1.59.444 2.236.886 2.812 1.924 5.94 3.38 8.49 5.696.315.288.684.51 1.01.79 1.47 1.265 5.524 1.21 6.92-.196 1.067-1.073 2.368-1.792 3.72-2.453.55-.27.983-.786 1.464-1.2 2.25-1.953 4.443-3.982 6.762-5.848 3.243-2.603 6.585-5.08 9.867-7.63 1.473-1.147 2.91-2.343 4.365-3.52.05.59.05 1.19.203 1.75.24.88.778 1.498 1.82 1.472.285-.007.57.133.856.205-.11.18-.2.376-.34.533zm-47.55-2.545c-.123-.53-.91-.7-1.306-.376-.694.567-1.006 1.344-1.337 2.142-.436 1.045-.782 1.082-1.607.323-.742-.685-.832-.968-.416-1.623.57-.903 1.215-1.763 1.748-2.688.256-.444.4-.99.452-1.5.026-.257-.2-.657-.43-.79-.222-.126-.673-.1-.883.05-.517.375-.976.836-1.413 1.303-.583.623-1.12 1.294-1.69 1.93-.395.438-.92.457-1.41.076-.51-.393-.75-.96-.51-1.366.494-.823 1.024-1.626 1.547-2.434.58-.895 1.19-1.77 1.744-2.682.364-.595.193-1.192-.387-1.685-.427-.363-1-.376-1.42.1-1.062 1.196-2.07 2.44-3.112 3.653-.202.237-.47.424-.703.636-.213-.36-.444-.708-.63-1.08-.268-.543-.077-1.04.225-1.502.82-1.25 1.66-2.49 2.47-3.75.403-.625.804-1.262 1.107-1.938.092-.203-.065-.658-.254-.81-.2-.157-.694-.225-.86-.09-.987.814-1.91 1.7-2.867 2.547-.143.124-.48.284-.513.243-.197-.23-.35-.512-.488-.79-.263-.54-.07-1.055.19-1.524.515-.937 1.09-1.84 1.616-2.77.417-.74.82-1.495 1.183-2.267.276-.58.063-1.126-.433-1.34-.51-.222-.788.093-1.07.427-.41.492-.805.998-1.24 1.47-.106.113-.434.208-.492.148-.132-.136-.203-.37-.226-.573-.15-1.344.25-2.51 1.11-3.56.675-.825 1.3-1.698 1.864-2.603.203-.33.18-.806.23-1.22.03-.245-.5-.612-.682-.475-.5.384-.97.815-1.49 1.176-.225.156-.536.184-.808.27-.077-.303-.192-.603-.226-.91-.09-.89.176-1.68.684-2.415 1.33-1.93 2.635-3.886 3.968-5.816.273-.398.4-.747-.003-1.106-.355-.316-.78-.384-1.17-.114-.435.3-.864.634-1.218 1.024-.575.634-1.07 1.333-1.625 1.984-.09.11-.31.132-.477.144-.046.005-.135-.16-.155-.256-.324-1.565.066-2.942 1.003-4.224.75-1.032 1.42-2.127 2.088-3.214.082-.133.032-.49-.083-.57-.23-.168-.607-.374-.814-.29-.584.232-1.112.604-1.664.918-.44.256-.928.096-.956-.328-.228-3.198-.472-6.394-.66-9.594-.063-1.05.275-1.33 1.307-1.376l16.325-.736c0 .036.003.073.005.11.32-.016.642-.057.962-.044 5.67.224 11.313-.493 16.978-.538 1.597-.01 3.19-.265 4.784-.405.532-.048 1.063-.13 1.6-.14 5.025-.046 10.053-.086 15.082-.112.842-.005 1.15.334 1.15 1.163 0 4.704.07 9.414-.033 14.117-.094 4.164-.288 8.333-.635 12.484-.192 2.34-.654 4.684-.378 7.017.378 3.216-.203 6.39-.126 9.584.016.64-.078 1.283-.127 1.923-.165 2.146-1.092 3.857-2.82 5.175-3.225 2.46-6.31 5.125-9.655 7.408-4.413 3.013-8.51 6.46-12.997 9.355-.484.317-.942.528-1.46.187-5.004-3.283-10-6.574-14.998-9.865-.358-.235-.704-.483-1.045-.743-.625-.473-.677-.686-.348-1.326.34-.66.778-1.294.995-1.995.144-.47.046-1.044-.07-1.54zm52.473-54.112c.144 2.56.29 5.122.337 7.683.043 2.46-.037 4.92-.08 7.38-.01.7-.185.745-.935.237-.178-.117-.316-.3-.5-.4-.94-.514-2.02-.07-2.254.96-.093.402-.1.86-.007 1.26.287 1.238 1.38 1.575 2.75.897.73-.357.926-.29.9.384-.068 1.813-.17 3.627-.268 5.44-.053.96-.165 1.916-.18 2.876-.052 3.526-.07 7.054-.11 10.58-.006.643-.027 1.284-.066 1.926-.176 2.877-.303 5.76-.565 8.632-.226 2.48-1.07 4.773-2.55 6.802-.057.08-.223.18-.257.156-.13-.09-.245-.213-.328-.35-.048-.082-.015-.21-.027-.317-.324-2.496-.54-2.61-3.02-1.638-.06.023-.128.028-.196.032.4-1.286.95-2.552 1.137-3.868.403-2.85.784-5.706.745-8.608-.043-2.987-.07-5.992.18-8.964.51-5.974.577-11.945.4-17.93-.125-4.258-.75-8.51-.12-12.778.028-.21.003-.427.025-.64.106-.98-.42-1.603-1.167-2.115-1.106-.755-2.347-.98-3.654-.975-4.17.024-8.338-.01-12.503.088-4.15.102-8.29.412-12.44.497-5.34.11-10.684.075-16.027.126-2.346.024-4.695-.033-7.018.484-.715.16-1.495.15-2.234.072-3.548-.373-7.01.555-10.528.658-.57.017-.932.505-.976 1.092-.053.744-.094 1.495-.064 2.24.242 5.864-.196 11.733.485 17.6.49 4.235.528 8.52.794 12.78.064 1.064.272 2.115.35 3.178.28 3.827 1.04 7.62.896 11.482-.02.533-.066 1.073-.02 1.6.214 2.417.838 4.702 3.088 5.995 2.15 1.238 3.915 2.945 5.864 4.425 2.765 2.1 5.488 4.283 7.64 7.06-2.595-.05-2.864.3-2.49 2.993.008.064-.004.126-.013.192-3.364-1.648-6.235-4.02-9.19-6.266-.85-.643-1.635-1.373-2.456-2.06-.237-.195-.235-.36.037-.51.373-.202.79-.348 1.115-.61.706-.576.914-1.28.627-1.984-.298-.733-.75-1.277-1.637-1.308-.858-.028-1.44.352-1.76 1.12-.123.286-.11.632-.235.92-.05.114-.37.247-.462.194-2.9-1.704-4.932-3.987-5.33-7.52-.487-4.35-1.03-8.69-1.33-13.056-.197-2.873-.644-5.725-.978-8.587-.024-.213-.064-.427-.055-.64.235-6.85-.973-13.643-.808-20.496.107-4.49-.034-8.986-.078-13.48-.012-.962.025-1.943-.145-2.88-.424-2.335-.275-2.452 2.28-2.373 1.068.032 2.135.115 3.203.17 1.597.084 3.213.35 4.79.207 4.7-.43 9.403-.202 14.103-.206 3.737-.003 7.486-.272 11.215.203 4.597-.42 9.17.38 13.763.28 2.56-.055 5.13-.053 7.676.405.83.15 1.707.067 2.56.068 5.456.004 10.912-.002 16.366.006.533 0 1.067.037 1.59.13.167.03.375.266.426.447.082.3.06.634.072.954.102 2.56-.507 5.083-.363 7.65zm-73.203-2.272c.235-.46.322-.992.453-1.42-.085-.52-.13-.943-.224-1.357-.125-.544-.853-1.143-1.408-1.12-.666.02-1.312.27-1.593.875-.467 1.01-.444 2.064.143 3.057.587.992 2.1.988 2.627-.037zM99.09 64.07c.452.927 1.285 1.41 2.33 1.354.976-.053 1.56-.65 1.61-1.917-.063-.243-.113-.787-.335-1.25-.445-.933-1.775-1.213-2.795-.66-.893.49-1.25 1.58-.81 2.472zm-68.22 6.36c-.607.14-1.09.683-1.18 1.355-.1.753-.14 1.54.427 2.115.343.35.843.64 1.318.745.495.11 1.282-.597 1.414-1.106.08-.306.11-.626.18-1.038-.088-.328-.16-.747-.32-1.136-.276-.685-1.133-1.097-1.84-.932zm.04-31.147c-.118-.875-.926-1.59-1.7-1.504-.978.112-1.915 1.3-1.76 2.236.128.757 1.04 1.515 1.792 1.493 1.024-.035 1.817-1.093 1.667-2.226zm.745 16.04c-.072-.16-.196-.568-.416-.914-.326-.51-1.173-.843-1.68-.565-.43.233-.793.655-1.07 1.07-.157.23-.113.62-.094.933.055.948.772 1.678 1.593 1.66.96-.022 1.74-.918 1.663-2.185zm58.54-34.656c-.706.252-1.277 1.02-1.226 1.658.06.8.87 1.68 1.587 1.72.97.053 2.046-1.01 2.023-1.998-.02-.93-1.4-1.728-2.386-1.378zM49.09 20.39c-1.003.073-1.624.92-1.5 2.048.083.76.732 1.262 1.587 1.227 1.123-.045 1.845-.82 1.713-1.843-.114-.89-.88-1.497-1.8-1.43zm18.11.136c-.798-.087-1.62.68-1.672 1.568-.053.86.486 1.493 1.272 1.5.917.006 1.685-.654 1.752-1.51.05-.65-.672-1.483-1.353-1.557zm18.1 71.76c-.57-.05-1.07.178-1.377.646-.288.44-.504.94-.693 1.437-.27.7.08 1.235.565 1.7.48.465 1.075.473 1.76.133.877-.433 1.216-1.144 1.197-2.197-.06-.195-.117-.512-.245-.798-.23-.52-.625-.87-1.205-.923zM56.69 58.654c.533.453.72 1.058.5 1.736-1.134 3.56-1.492 7.328-2.89 10.82-.22.552-.096 1.054.35 1.444.447.39.985.367 1.512.203.306-.093.617-.213.875-.395 2.016-1.4 4.23-2.526 5.94-4.34.74-.784 1.537-1.487 2.557-1.9.42-.172.804-.204 1.203.063 1.152.775 2.272 1.615 3.488 2.272 1.335.723 2.52 1.59 3.573 2.682.512.53 1.077 1.047 1.702 1.436.73.454 1.455.117 2.08-.34.462-.336.634-.794.504-1.398-.357-1.67-.752-3.308-1.488-4.886-.992-2.127-1.66-4.384-2.206-6.682-.213-.888.01-1.43.622-1.955.405-.35.77-.754 1.205-1.06 1.568-1.105 3.186-2.146 4.736-3.275 1.036-.752 2.028-1.568 2.958-2.443.795-.75.455-1.95-.653-2.24-1.024-.268-2.094-.446-3.147-.462-2.46-.034-4.92.056-7.38.09-.577.008-1.036-.2-1.28-.76-.82-1.85-1.516-3.765-2.945-5.285-.27-.288-.296-.792-.472-1.18-.31-.684-.614-1.37-.978-2.022-.504-.9-.83-2.252-2.11-2.07-1.027.142-1.15 1.42-1.497 2.294-.195.49-.288 1.024-.416 1.544-.435 1.762-.812 3.54-1.308 5.285-.79 2.8-.395 2.72-3.3 2.838-2.13.085-4.25.363-6.378.555l-.01-.14c-.96.048-1.925.03-2.867.183-.313.05-.737.515-.788.84-.188 1.22.043 2.325 1.212 3.067.992.63 1.978 1.284 2.9 2.008 1.427 1.12 2.808 2.3 4.193 3.474zm6.18-4.94c.126-.295.214-.627.406-.87.928-1.152 1.043-2.502 1.14-3.913.08-1.155.436-2.29.68-3.437.018-.096.11-.178.164-.267.113.11.29.2.328.328.463 1.643.873 3.3 1.362 4.937.35 1.17.675 1.407 1.845 1.268 2.437-.288 4.864-.648 7.296-.97.42-.054.843-.067 1.265-.076.088 0 .243.1.256.172.033.176.08.462-.013.538-.576.47-1.138 1.01-1.8 1.307-2.108.94-3.55 2.71-5.31 4.08-.463.36-.503.95-.295 1.47.585 1.49 1.222 2.96 1.814 4.446.245.626.228 1.284-.17 1.84-.156.212-.51.28-.77.415-.09-.19-.215-.367-.257-.564-.04-.203 0-.422.014-.634.006-.106.028-.21.073-.528 0-.11.02-.43-.004-.747-.05-.7-.714-1.024-1.407-.675-.285.142-.514.39-.797.53-.076.036-.387-.18-.377-.238.24-1.085-.252-1.83-1.016-2.526-.384-.35-.637-.843-.928-1.283-.623-.928-.61-.92-1.703-.245-.208.13-.306.62-.67.3-.07-.065.02-.4.118-.556.62-1 1.287-1.97 1.88-2.982.127-.213.11-.627-.017-.853-.252-.447-.762-.41-1.135-.22-.562.286-1.06.7-1.595 1.043-.08.05-.267.068-.307.022-.12-.15-.263-.334-.27-.51-.004-.196.12-.4.2-.596zm-3.83.16c.01-.007.025-.007.036-.014l.128-.163.096-.077c.04-.576.06-1.156.146-1.725.072-.474.693-.712 1.288-.452.2.09.433.63.384.672-.58.533-1.203 1.013-1.82 1.506l-.01.17c-.072.02-.147.042-.213.074-.043.056-.09.11-.13.17.03-.054.046-.13.093-.158zm-3.893-1.925c.096-.03.22-.03.312.01s.152.14.225.214c-.09.058-.178.114-.267.173-.178-.075-.357-.147-.533-.222.09-.06.166-.15.262-.177zm-1.093 33.493c-.604.1-1.133.798-1.028 1.36.107.586.79 1.132 1.348 1.076.615-.063 1.092-.72.984-1.36-.107-.644-.747-1.17-1.304-1.077z"/></svg>