<svg xmlns="http://www.w3.org/2000/svg" width="128" height="128" viewBox="0 0 128 128"><path d="M117.742 44.413c-.206-2.44-.448-4.904-1.402-7.22-.82-1.993-2.203-3.077-4.37-3.222-2.78-.182-5.557-.386-8.328-.674-2.544-.267-5.056-.358-7.635-.22-5.46.29-10.942.165-16.416.25-7.827.116-15.66-.115-23.486.418-5.34.365-10.728-.213-16.055.68-.566.093-1.046-.236-1.264-.792-.754-1.9-1.137-3.888-1.402-5.92-.36-2.754-.553-5.57-1.49-8.2-1.388-3.875-2.14-4.75-7.01-4.17-.83.1-1.65.46-2.42.816-1.362.63-2.686 1.346-4.015 2.037-1.52.796-3.046 1.532-4.76 1.877-1.037.208-2.07.627-2.975 1.17-2.472 1.478-3.067 4.4-1.538 7.003 1.45 2.468 4.07 3.21 6.656 1.9.893-.457 1.515-1.106 1.963-2.028.646-1.32.62-2.697.655-4.09.01-.45.204-.895.65-.99 1.616-.33 2.963-1.22 4.407-1.926.66-.322 1.4-.517 2.123-.683.735-.17 1.21.18 1.37.953.56 2.72 1.077 5.455 1.664 8.174C33.79 34.784 35 40 36.09 45.237c1.46 7.02 2.84 14.056 4.262 21.084.678 3.358 1.39 6.706 2.045 10.07.04.21-.224.644-.433.714-.81.267-1.662.416-2.49.634-.412.11-.862.183-1.2.416-1.586 1.092-3.212 2.15-4.696 3.38-1.79 1.484-3.088 3.286-2.645 5.83.036.207.026.432 0 .645-.197 1.86.922 3.02 2.253 3.967 1.504 1.074 3.237 1.693 5.1 1.737 2.573.06 5.172.224 7.716-.043 4.256-.442 8.49-1.11 12.665-2.1 2.187-.512 4.356-.942 6.648-.496 1.248.24 2.566.113 3.854.132 3.753.053 7.51.094 11.266.144.966.013 1.952-.068 2.894.095 2.668.456 5.35.316 8.028.338 1.61.015 3.22.004 4.83.004 0-.02 0-.04.003-.06 1.498.068 3 .188 4.496.2 2.36.016 4.725.022 7.078-.097 1.28-.066 2.243-1.137 2.355-2.272.116-1.19-.51-2.4-1.588-2.915-.47-.224-1-.38-1.52-.46-.525-.082-1.07-.033-1.606-.038-13.307-.06-26.613-.073-39.923-.2-3.783-.038-7.468.355-11.12 1.317-2.065.546-4.166 1.084-6.283 1.257-2.99.243-6.005.192-9.007.175-.712-.006-1.445-.328-2.127-.604-.72-.292-.88-1.044-.337-1.55 1.55-1.458 2.98-3.108 5.164-3.685.85-.224 1.612-.573 2.14-1.32.347-.49.836-.533 1.415-.485.863.07 1.652.14 2.356.797.82.766 1.877.882 3.008.79 2.35-.193 4.707-.273 7.063-.398 1.178-.063 2.36-.09 3.535-.188 3.95-.33 7.89-.775 11.844-1.006 3.424-.2 6.87-.33 10.298-.205 3.346.118 6.627-.257 9.912-.7 2.995-.4 5.963-.39 8.963-.04 2.015.23 4.066.24 6.097.178 1.365-.04 2.245-.912 2.323-2.23.088-1.525.34-2.947 1.088-4.31.286-.524.18-1.256.288-1.887.31-1.9.485-3.83.988-5.68.612-2.266 1.43-4.484 2.283-6.68 1.13-2.904 2.24-5.79 2.14-8.98 0-.104.063-.21.067-.317.072-1.93.32-3.872.16-5.778zm-56.09-5.48c2.253-.02 4.508-.004 6.762-.004v.02c2.464 0 4.933-.016 7.403.007.734.006 1.227.422 1.3 1.154.336 3.407.643 6.817.935 10.228.043.47-.258.842-.728.87-3.955.24-7.915.458-11.872.678-.32.015-.644.004-.965-.01-.82-.04-1.075-.214-1.336-1.094-1-3.388-1.993-6.776-2.944-10.176-.37-1.33-.068-1.66 1.45-1.677zM43.9 54.667c-.636-2.26-1.283-4.523-1.845-6.805-.637-2.59-1.193-5.2-1.776-7.808-.095-.414-.15-.836-.2-1.26-.055-.43.36-.823.787-.778 4.783.533 9.58.856 14.396.928.423.005.855.02 1.276.078.48.066.75.392.767.866.078 2.58.63 5.082 1.18 7.59.203.932.192 1.914.275 2.815-.037.593-.008 1.14-.128 1.653-.058.248-.37.58-.608.62-1.58.263-3.17.46-4.757.673-1.693.226-3.41.35-5.074.713-1.133.245-2.187.834-3.292 1.227-.456.16-.87-.042-1.005-.513zm34.94 20.45c-2.773.258-5.576.33-8.313.79-3.39.572-6.848.2-10.208 1-.925.218-1.92.157-2.887.17-2.58.032-5.13.235-7.59 1.115-.812.29-1.206-.002-1.388-.82-.62-2.822-1.266-5.638-1.85-8.466-.643-3.144-1.232-6.304-1.837-9.453-.106-.542.176-.88.655-.78 3.198.67 6.392.388 9.594.022 1.268-.15 2.56-.173 3.84-.133.313.008.74.442.88.78.2.473.228 1.04.243 1.57.06 1.93.156 3.863.098 5.79-.07 2.377.274 4.705.534 7.045.133 1.173 1.104 2.023 2.39 2.19.948.124 2.186-.563 2.518-1.628.38-1.218.548-2.496.806-3.748l-.304-.02c-.094-2.14-.16-4.28-.288-6.418-.043-.74-.26-1.47-.352-2.208-.132-1.06-.25-2.123-.316-3.19-.027-.458.288-.813.75-.884 3.927-.613 7.88-.875 11.85-.736.638.02.977.358 1.02.99.18 2.78.37 5.557.516 8.337.13 2.46.117 4.928.62 7.36.167.802-.212 1.248-.985 1.32zM93.277 64.3c-.38 2.762-.43 5.524-.472 8.298-.02 1.314-.354 1.692-1.683 1.832-2.332.242-4.667.467-7.002.627-.914.064-1.406-.413-1.456-1.316-.27-5-.514-10.01-.765-15.017-.013-.213.01-.427.025-.64.043-.59.405-.97 1.02-.976 1.6-.02 3.203-.008 4.805-.008v-.007c1.497 0 2.99-.014 4.486.01.838.012 1.227.353 1.22 1.123-.02 2.027.1 4.08-.178 6.077zm.765-14.335c-.017 1.024-.317 1.355-1.33 1.38-1.497.042-2.996.024-4.493.003-1.93-.028-3.858-.075-5.783-.13-.837-.02-1.106-.3-1.18-1.167-.145-1.7-.287-3.4-.428-5.1l-.143.01c-.094-1.28-.155-2.564-.284-3.843-.235-2.286-.132-2.507 1.93-2.542 3.53-.06 7.067-.252 10.576.32 1.104.18 1.236.328 1.23 1.44-.026 3.208-.05 6.418-.1 9.632zm17.406 4.24c-.032.314-.094.653-.248.92-1.472 2.52-2.112 5.38-3.292 8.017-.928 2.07-1.61 4.156-1.643 6.475-.02 1.373-.43 2.74-.704 4.107-.094.472-.51.69-.96.656-1.81-.14-3.62-.4-5.434-.46-2.808-.09-2.79-.103-2.283-3.022.15-.843.32-1.685.388-2.535.25-3.203.46-6.41.69-9.616.094-1.314.26-1.48 1.49-1.624 1.595-.19 3.2-.335 4.776-.625 1.04-.19 2.05-.573 3.053-.93.274-.1.7-.497.66-.62-.124-.354-.386-.763-.704-.933-1.835-.962-3.813-1.37-5.877-1.42-3.02-.067-2.9.018-2.894-3.138.01-3.22 0-6.435.025-9.653.007-1.005.423-1.4 1.405-1.227 3.288.584 6.622.478 9.936.693 1.206.078 1.57.395 1.7 1.496.24 2.016.43 4.04.627 5.906-.245 2.628-.467 5.083-.71 7.53zM58.25 94.732c-1.463-.27-2.973-.86-4.383-.68-2.514.323-5.03.894-7.264 2.277-2.716 1.67-3.992 5.06-2.906 8.02.293.796.414 1.552.446 2.422.053 1.724.827 3.238 2.165 4.437.922.827 1.94 1.242 3.176 1.296 1.414.066 2.73-.398 4.098-.58 4.573-.616 8.505-6.518 8.335-10.127.28-2.454-1-4.5-3.136-6.73-.143-.15-.34-.304-.53-.34zm-4.11 9.96c-.697.67-1.395.907-2.296.435-.848-.444-1.762-.773-2.586-1.254-1.572-.917-1.703-1.493-.427-3.02 1.46-1.743 4.695-2.397 6.77-1.417.416.196.66.736.813.912.018 2.083-1.103 3.22-2.274 4.343zm46.75-10.227c-2.16-.21-4.25.198-6.343.66-1.714.383-3.168 1.228-4.523 2.284-1.71 1.33-2.717 2.986-2.432 5.247.043.315.007.64.007.96h.02c0 .75-.05 1.504.02 2.244.05.515.158 1.094.445 1.5 1.493 2.11 3.392 3.534 6.16 3.332.64-.048 1.29-.002 1.92-.1 4.138-.66 7.466-2.39 9.012-6.628.725-1.995.917-3.92.134-5.925-.797-2.045-2.164-3.353-4.42-3.57zm-3.353 9.897c-.366.175-.83.296-1.224.245-.843-.115-1.68-.31-2.494-.563-.533-.162-.863-.604-.977-1.17-.128-.648.122-1.372.672-1.68 1.794-1.003 3.696-1.648 5.786-1.602l.32.032c.548.036.93.585.81 1.126-.363 1.686-1.356 2.88-2.892 3.613z"/></svg>