<svg xmlns="http://www.w3.org/2000/svg" width="128" height="128" viewBox="0 0 128 128"><path d="M119.296 90.157c-.527-.797-.747-1.55-.725-2.45.11-5.537-1.06-10.954-1.54-16.435-.333-3.83-.882-7.648-1.154-11.492-.233-3.294-.71-6.57-1.084-9.852-.16-1.426-.295-2.83 0-4.282.357-1.736-.797-3.477-2.457-3.66-1.52-.167-3.064-.038-4.602-.038-2.32 1.134-4.898 1.233-7.36 1.776-2.906.637-5.858 1.048-8.76 1.698-1.236.282-2.148-.062-3.02-.81-.42-.36-.8-.76-1.204-1.135-2.98-2.795-5.825-5.734-9.025-8.286-.687-.547-1.274-1.22-1.91-1.833-2.855-2.763-5.716-5.52-8.566-8.29-.79-.772-1.548-1.576-2.308-2.374-.573-.6-.822-1.28-.534-2.114.405-1.174.608-2.414.134-3.568-.794-1.948-1.8-3.807-3.447-5.19-.496-.418-1.09-.783-1.707-.974-3.357-1.045-8.316 2.067-7.834 5.835.156 1.23.29 2.396 1.006 3.434.312.454.587.933.875 1.405.262.43.163.842-.11 1.223-1.67 2.332-3.33 4.672-5.02 6.987-1.364 1.873-2.703 3.77-4.17 5.562-5.67 6.916-11.237 13.91-16.437 21.184-.698.975-1.47 1.595-2.592 1.84-2.257.498-4.54.91-6.773 1.5-2.655.706-5.3 1.467-7.89 2.377-2.328.817-3.24 2.43-3.058 4.898.04.545.192 1.083.313 1.622.302 1.397.648 2.787.92 4.194.643 3.35 1.29 6.7 1.872 10.06.49 2.82.89 5.66 1.333 8.483.19 1.195.334 2.402.593 3.578 1.045 4.734 2.24 9.44 3.136 14.198.38 2.016 1.426 3.656 2.17 5.466.364.88 1.085 1.38 2.015 1.55 1.62.302 3.245.585 4.516.812 3.13-.213 5.852-.572 8.507-1.39 2.528-.778 5.072-1.506 7.622-2.202 5.744-1.56 11.53-2.882 17.482-3.456 2.733-.262 5.437-.85 8.14-1.368 1.622-.31 3.222-.736 4.816-1.163 2.128-.57 4.26-1.13 6.35-1.817 1.888-.617 3.77-1.2 5.742-1.517 2.064-.332 4.115-.776 6.142-1.298 5.653-1.444 11.285-2.976 16.94-4.432 2.88-.74 5.78-1.397 8.67-2.095 1.188-.286 2.34-.642 3.286-1.475 1.557-1.376 1.882-2.907.71-4.683zM34.156 55.89c1.494-1.77 3.01-3.518 4.485-5.298 1.195-1.44 2.35-2.914 3.524-4.373.622-.774 1.212-1.574 1.877-2.306 2.964-3.264 5.61-6.768 8.154-10.357 1.847-2.608 3.723-5.197 5.675-7.723 1.27-1.65 2.68-1.62 4.14-.197 4.952 4.858 9.912 9.707 14.905 14.526 1.184 1.14 2.526 2.125 3.75 3.234.818.74 1.565 1.557 2.316 2.364.78.844.68 1.238-.495 1.514-2.782.65-5.58 1.26-8.378 1.845-5.16 1.087-10.318 2.2-15.492 3.2-4.318.83-8.666 1.51-12.995 2.28-2.927.52-5.843 1.086-8.765 1.63-.648.12-1.304.21-1.707.27-.366 0-.49.032-.582-.008-.184-.078-.36-.18-.512-.305-.028-.025.04-.218.105-.297zm76.353 30.783c-.49 2.272-.557 3.19-3.405 3.742-3.89.753-7.75 1.675-11.6 2.613-2.136.523-4.217 1.27-6.345 1.832-5.962 1.58-11.93 3.115-17.89 4.68-1.707.446-3.375 1.024-5.094 1.392-4.2.894-8.413 1.7-12.623 2.54-4.177-.185-7.963 1.58-11.934 2.412-.757.156-1.5.384-2.263.47-.504.058-1.09.56-1.522.01-.243-.313-.177-.85-.36-1.232-.18-.38-.47-.732-.77-1.04-.397-.416-1.132-.485-1.505-.117-.7.69-1.367 1.425-2.028 2.165-.656.74-1.248 1.547-1.947 2.244-.283.288-.76.402-1.173.523-.175.053-.448-.026-.593-.144-.1-.085-.14-.416-.057-.51.58-.66 1.235-1.258 1.8-1.934.774-.93 1.536-1.88 2.213-2.88.44-.653.512-1.44.312-2.23-.126-.5-.763-.992-1.244-.86-.523.147-1.083.28-1.518.585-1.18.808-2.304 1.7-3.445 2.574-1.05.802-2.09 1.62-3.14 2.42-.06.05-.25.06-.26.04-.066-.187-.222-.47-.147-.563 1.283-1.656 2.62-3.267 3.898-4.926 1.146-1.48 2.25-2.99 3.338-4.515.318-.444.488-.97.23-1.557-.456-1.04-1.43-1.44-2.395-.985-1.83.866-3.22 2.31-4.734 3.584-1.355 1.143-1.617 1.31-1.76.812-.213-.743.162-1.273.55-1.807 1.1-1.52 2.22-3.026 3.293-4.56.435-.633.843-1.302 1.13-2.006.332-.814-.11-1.507-.644-2.088-.455-.494-1.543-.534-2.14-.02-.925.784-1.76 1.667-2.666 2.473-.2.178-.547.29-.818.273-.37-.027-.672-1.044-.456-1.436.163-.286.335-.57.536-.828 1.022-1.3 2.08-2.576 3.08-3.893 1.204-1.58 2.395-3.175 3.124-5.05.21-.54.195-1.08-.196-1.555-.506-.623-1.465-.83-2.05-.32-1.158 1.012-2.26 2.09-3.356 3.178-.62.62-1.175 1.308-1.77 1.952-.057.064-.253.088-.303.045-.132-.124-.352-.358-.314-.437.877-1.775 1.805-3.525 2.676-5.306.48-.984.95-1.99 1.274-3.03.148-.474.057-1.11-.14-1.585-.552-1.325-2.087-1.803-3.317-1.11-.288.16-.517.42-.8.586-.42.245-.655 1.096-1.227.697-.377-.26-.456-.96-.638-1.474-.075-.202-.085-.43-.1-.65-.034-.552-.055-1.1-.083-1.653h.006c-.01-.22-.01-.443-.032-.66-.062-.627.168-1.054.787-1.245.42-.132.828-.318 1.26-.4 6.16-1.18 12.324-2.356 18.487-3.516 4.98-.938 9.958-1.855 14.934-2.778 4.437-.824 8.875-1.63 13.312-2.466 7.787-1.472 15.57-2.944 23.353-4.448 4.538-.875 9.054-1.87 13.6-2.7 2.76-.503 3.16-.58 3.22 2.713.047 2.633.466 5.258.764 7.878.35 3.067.745 6.123 1.107 9.184.43 3.61.82 7.223 1.29 10.826.116.855.453 1.698.785 2.506.48 1.154.707 2.366.448 3.558zm-55.934.26c-.65-.06-1.326-.012-1.97.1-.644.112-1.26.406-1.904.53-.405.08-.926.14-1.246-.047-.562-.333-.03-.782.14-1.105.647-1.27 1.364-2.51 2.058-3.765.587-1.06 1.184-2.114 1.747-3.186 1.558-2.98 1.878-6.115.818-9.285-.966-2.873-2.753-5.1-5.974-5.493-2.087-.255-4.24.07-6.1 1.03-2.243 1.16-4.307 2.68-5.974 4.63-2.496 2.917-1.845 6.77-.498 8.96.392.634 1.013 1.168 1.623 1.612.755.544 1.608.658 2.475.12.913-.574 1.362-1.46 1.137-2.52-.185-.86-.428-1.707-.698-2.546-.428-1.347-.007-2.347 1.132-3.136.814-.563 1.547-1.248 2.384-1.77.543-.34 1.19-.59 1.82-.7 2.632-.46 3.427.24 3.438 3.115.184 1.175-.282 2.398-.942 3.573-1.73 3.07-3.477 6.13-5.187 9.213-.912 1.635-1.77 3.304-2.644 4.956-.48.9-.636 1.866-.586 2.877.052 1.09.586 1.845 1.565 2.34.716.356 1.463.528 2.235.338.748-.18 1.516-.37 2.19-.722 2.556-1.333 5.302-2.136 8.03-2.994.733-.23 1.486-.45 2.15-.817 1.13-.63 1.64-1.94 1.33-3.083-.348-1.27-1.28-2.125-2.554-2.23zm48.29-10.997c-.65-.45-.91-.883-.79-1.597.097-.544.238-1.073.345-1.613.38-1.946.758-3.888 1.046-5.353.18-1.925-.316-3.1-1.51-3.915-.868-.596-1.886-.635-2.87-.42-3.114.677-6.27 1.19-9.284 2.27-.62.223-1.237.496-1.787.852-.653.424-1.13 1.027-1.272 1.847-.356 2.07 1.18 3.636 3.36 3.35.868-.12 1.724-.365 2.58-.57 4.162-1.023 3.7-1.31 3.242 2.896-.105.98-.376 1.945-.5 2.923-.097.78-.556 1.146-1.243 1.337-.53.143-1.064.277-1.594.42-.423.116-.86.207-1.262.37-.968.395-1.69 1.403-1.664 2.263.023.95 1.07 1.934 2.243 2.05.654.065 1.32.027 1.98.074.504.035.78.37.82.853.05.546.044 1.097.06 1.648s-.02 1.11.05 1.65c.204 1.582 1.618 2.942 3.056 2.99 1.423.054 2.547-.906 2.98-2.572.135-.533.26-1.075.29-1.617.055-.88.075-1.767.025-2.645-.064-1.13.41-1.77 1.414-2.33 2.83-1.573 2.92-3.34.284-5.164zm-33.27 9.034c-.035-1.983.03-3.967-.114-5.943-.174-2.293-.494-4.584-.82-6.867-.11-.75-.392-1.49-.684-2.197-.337-.82-1.534-1.212-2.23-.725-.34.237-.666.59-.837.96-.51 1.122-.556 2.338-.6 3.555-.046 1.42-.166 2.834-.294 4.248-.01.12-.32.298-.482.295-.164-.006-.445-.194-.46-.324-.294-2.39-.586-4.783-.806-7.185-.085-.902-.23-1.7-.937-2.373-.462-.444-.744-1.07-1.15-1.58-.65-.812-2.115-.72-2.51.206-.34.794-.645 1.653-.72 2.507-.225 2.74-.335 5.49-.493 8.25-.174 1.54.006 3.056.62 4.507.788 1.86 2.484 2.846 4.497 2.57.544-.076 1.065-.285 1.6-.398.435-.096.94.243.955.645.052 1.21.127 2.42.1 3.63-.04 1.567.307 3.06.704 4.55.358 1.352 1.792 2.27 3 2.015 1.445-.296 2.303-1.312 2.29-2.793-.004-.658-.013-1.34-.18-1.967-.486-1.837-.415-3.71-.447-5.58zM80.82 61.516c-.83.807-1.168 1.82-1.362 2.937-.622 3.576-1.305 7.14-1.938 10.717-.885 4.996-2.222 9.87-4.034 14.61-.354.926-.757 1.84-1.013 2.795-.224.837-.363 1.722-.373 2.59-.014 1.024.864 1.794 1.94 1.882 1.25.103 2.067-.367 2.545-1.643 1.387-3.712 2.688-7.45 3.598-11.317 1.515-6.457 2.035-13.04 2.624-20.163-.053-.34-.132-1.213-.334-2.056-.15-.62-1.198-.8-1.653-.354z"/></svg>