<svg xmlns="http://www.w3.org/2000/svg" width="128" height="128" viewBox="0 0 128 128"><path d="M96.15 48.43c-.147-4.603-.4-9.204-.595-13.807-.06-1.393.062-2.805-.14-4.174-.377-2.57-.367-5.117-.036-7.68.476-3.69-.823-6.67-3.56-9.154-1.76-1.603-3.79-2.355-6.1-2.466-1.286-.063-2.576-.08-3.86-.028-3.11.125-6.205.09-9.28-.49-.944-.177-1.926-.133-2.887-.217-1.598-.142-3.192-.348-4.794-.442-1.604-.098-3.265-.36-4.808-.064-2.453.472-4.902.28-7.347.46-3.41.252-6.816.573-10.237.71-2.298.09-4.406.952-6.014 2.695-1.837 1.992-3.063 4.348-3.875 6.925-.093.297-.06.64-.06.96-.02 4.927-.196 9.847-.55 14.77-.314 4.38-.26 8.79-.212 13.184.057 5.785.15 11.563.492 17.35.354 5.985.08 12.004.08 18.01h-.018c0 1.82-.018 3.643.004 5.466.05 4.288.075 8.576.192 12.864.128 4.902 2.315 8.604 6.703 10.89 1.516.79 3.1 1.445 4.673 2.116.484.206 1.024.333 1.55.378 2.666.216 5.337.4 8.007.584 1.178.08 2.38.002 3.528.22 2.447.475 4.907.477 7.368.37 1.816-.076 3.623-.357 5.44-.432 2.57-.1 5.15-.203 7.717-.103 2.194.085 4.27-.465 6.307-1.013 2.174-.59 4.117-1.787 5.606-3.59.954-1.154 1.93-2.29 2.955-3.38.77-.81 1.135-1.712 1.377-2.81.852-3.91.415-7.916 1.03-11.833-.186-10.19.672-20.35.883-30.53.02-.963-.02-1.94.102-2.89.56-4.275.496-8.56.36-12.848zM41.457 113.1c-.48.208-.504-.204-.565-.465-.11-.448.067-.787.63-.984.16.155.473.31.54.54.136.468-.205.738-.605.91zm25.688-3.942c-3.68 2.48-7.112 2.114-10.147-1.49-.926-1.098-.71-2.403-.765-3.668.002-3.28 1.39-5.163 4.57-6.03 1.004-.273 1.985-.658 3.13-.376 1.91.472 3.206 1.49 4.01 3.31.62 1.4.942 2.868 1.04 4.34.106 1.54-.56 3.05-1.84 3.914zm18.21-41.454c-.022 5.472-.113 10.946-.17 16.416-.028 3.013.27 2.54-2.128 5.04-.808.846-1.666 1.302-2.822 1.174-.107-.01-.213 0-.322 0-.213 0-.427.003-.644.003-3.54-.01-7.084-.09-10.625-.008-3.424.08-6.846.304-10.267.51-2.565.15-5.135.05-7.697.493-1.44.248-2.98.224-4.466-.208-1.426-.413-2.464-1.152-3.083-2.556-.567-1.295-1.044-2.578-1.05-4.01-.006-1.284-.064-2.574-.07-3.86-.006-1.603.015-3.18-.41-4.78-.53-1.994-.165-4.06.163-6.07.21-1.28.465-2.48-.092-3.77-.28-.642-.157-1.475-.16-2.22-.002-2.576.048-5.153.02-7.726-.024-2.675-.08-5.33-.48-8.008-.356-2.41-.19-4.928 0-7.38.23-2.988.686-5.957 1.12-8.922.373-2.544.847-5.07 1.294-7.598.105-.587.512-.928 1.102-.988 2.022-.21 4.046-.44 6.072-.598 2.03-.155 4.064-.096 6.085-.482 1.25-.238 2.568-.146 3.854-.152 3.22-.017 6.437-.006 9.657-.006v-.056c4.29 0 8.58-.02 12.873.015 1.27.01 1.43.166 1.7 1.46.216 1.036.397 2.11.403 3.166.035 5.152.032 10.3-.017 15.453-.01 1.17-.34 2.33-.38 3.5-.163 5.247-.41 10.493.29 15.74.282 2.113.255 4.28.248 6.424zm-21.823-7.768c-.5-2.144.658-3.11 2.32-3.922.662-.325 1.24-.84 1.825-1.312.47-.373.9-.407 1.47-.192.586.224 1.242.405 1.855.368.47-.032 1.13-.306 1.34-.683.854-1.493 1.43-3.11 1.398-4.87-.012-.697-.41-1.23-1.082-1.443-.398-.13-.856-.072-1.26-.192-.28-.078-.687-.274-.742-.493-.348-1.338-.61-2.696-.902-4.05.624-.722 1.26-1.437 1.86-2.178.198-.247.327-.557.443-.855.073-.19.143-.44.077-.615-.45-1.194-.847-2.425-1.437-3.554-.617-1.178-2.01-1.387-3.027-.565-.498.405-.936.88-1.394 1.335-.512.508-1.06.637-1.74.297-.378-.187-.82-.247-1.233-.36-1.105-.304-1.946-.8-1.954-2.155-.004-.51-.256-1.035-.47-1.52-.327-.718-1.4-1.29-2.15-1.074-1.024.294-2.04.652-3.013 1.09-1.077.48-1.35 1.1-1.21 2.346.037.316.132.633.24.932.165.462.058.83-.31 1.134-.907.752-1.816 1.502-2.724 2.25-.437.364-.893.472-1.476.293-2.464-.766-2.48-.753-3.648 1.443-.403.758-.81 1.522-1.094 2.326-.466 1.32-.046 2.145 1.44 2.663.687.24 1.173.463 1.163 1.254 0 .11-.01.217.007.323.167 1.157.54 2.333.456 3.474-.09 1.25-1.613 1.647-2.14 2.692-.226.448-.443 1.077-.3 1.502.442 1.336 1.25 2.48 2.37 3.368.47.37 1.382.373 1.8-.053.44-.457.79-.998 1.178-1.502.56-.73.75-.77 1.62-.422.994.395 2.018.725 2.975 1.19.322.157.55.615.698.984.11.276.023.633.023.73-.098.54-.2.852-.203 1.172-.018 1.414 1.274 2.376 2.62 1.93 1.017-.337 2.018-.72 3.01-1.12.88-.348 1.54-1.06 1.326-1.97zm-6.112-9.434c-.596-.213-1.188-.485-1.723-.825-1.467-.933-1.766-2.773-.725-4.177 1.85-2.496 4.405-3.1 7.025-1.758 1.104.565 1.568 1.378 1.49 2.384-.084 3.3-3.13 5.42-6.065 4.373zm23.56 15.823c1.277-.706 1.526-1.97.5-3.246-.398-.496-.853-.964-1.346-1.36-.548-.444-1.235-.48-1.803-.085-.695.483-1.31 1.088-1.955 1.65-.427.373-.898.547-1.472.414-.623-.145-1.248-.32-1.88-.38-.72-.063-1.183-.33-1.43-1.044-.208-.6-.444-1.22-.815-1.726-.216-.292-.736-.55-1.093-.515-1.09.094-2.054.576-2.748 1.45-.18.236-.283.598-.277.897.01.416.058.893.266 1.232.736 1.195.474 2.223-.34 3.25-.257.328-.41.754-.54 1.158-.18.56-.548.837-1.08 1.064-2.996 1.272-2.99 1.283-2.203 4.35.08.31.075.642.175.944.363 1.1 1.426 1.678 2.524 1.363.617-.18 1.21-.43 1.824-.623.43-.133 1.203.306 1.248.74.075.74.014 1.497.14 2.225.084.5.263 1.11.62 1.416.85.73 1.888.938 3.006.578 1.134-.363 1.803-1.105 1.958-2.288.068-.528.01-1.092.175-1.584.117-.352.51-.61.743-.873.457.066.79.064 1.08.168.5.188.962.47 1.462.653 1.218.453 2.447.107 3.055-.99.464-.83.79-1.755 1.07-2.67.202-.677-.158-1.305-.688-1.685-.41-.293-.986-.346-1.47-.552-.273-.117-.602-.27-.744-.507-.36-.613-.096-1.936.45-2.358.507-.387 1.038-.76 1.597-1.066zm-6.5 4.687c-.38.416-1.096.527-1.37.647-1.582.01-2.34-.54-2.454-1.52-.11-.925.47-1.94 1.393-2.304.256-.102.675-.08.896.07.43.293.864.66 1.13 1.102.364.6 1.054 1.296.403 2.002z"/></svg>