<svg xmlns="http://www.w3.org/2000/svg" width="128" height="128" viewBox="0 0 128 128"><path d="M95.973 36.233c-.017-.96-.15-1.92-.216-2.88-.186-2.56-.284-5.077.128-7.67.79-4.955-.5-9.35-4.56-12.653-.93-.752-1.928-1.25-3.135-1.52-2.125-.472-4.252-.452-6.396-.413-1.27.02-2.528.164-3.82.03-3.622-.378-7.258-.595-10.886-.89-.53-.044-1.054-.23-1.585-.25-1.82-.07-3.693-.383-5.45-.07-1.927.345-3.826.35-5.745.378-3.965.06-7.886.71-11.85.777-1.838.032-3.454.84-4.985 1.973-2.02 1.493-2.83 3.694-3.965 5.728-.48.862-.62 1.797-.654 2.782-.186 5.355-.273 10.72-.672 16.06-.285 3.86-.464 7.708-.373 11.564.137 6 .376 12 .603 17.996.058 1.603.245 3.202.338 4.804.036.637-.014 1.278-.06 1.916-.08 1.173-.254 2.344-.265 3.52-.043 4.504-.107 9.01-.02 13.515.08 4.497.372 8.99.49 13.485.072 2.823 1.2 5.12 3.075 7.157 1.566 1.705 3.505 2.815 5.576 3.713 1.27.552 2.58 1.152 3.93 1.337 2.54.354 5.12.435 7.683.608 1.282.085 2.574.088 3.853.203.376.033.73.32 1.093.49H68.41c.31-.594.89-.507 1.4-.514 3.003-.057 6.006-.106 9.01-.126 1.665-.012 3.2-.355 4.432-1.55.632-.61 1.34-1.124 2.208-1.243 2.016-.28 3.6-1.13 4.706-2.913.376-.608 1.096-1.01 1.683-1.477 1.333-1.06 2.08-2.462 2.22-4.13.244-2.88.72-5.73.75-8.642.076-5.89-.042-11.784.47-17.675.448-5.228.497-10.49.718-15.74.38-9.226.138-18.45-.04-27.673zm-60.52 66.688c-.018.16-.187.305-.287.458-.24-.184-.59-.32-.693-.562-.382-.93-.222-1.84.32-2.677.11-.17.275-.3.416-.45.09.143.246.274.27.423.056.41.06.83.076 1.17-.032.6-.038 1.122-.1 1.638zm6.16 10.22c-.288.133-.747-.457-.645-.82.117-.413.387-.735.856-.614.273.067.507.296.9.544-.528.44-.783.746-1.11.892zm8.472-12.01c-.33.525-.704 1.02-1.07 1.52-.06.08-.157.137-.234.204-.05-.093-.1-.18-.226-.422.322-.52.687-1.116 1.067-1.7.04-.055.25-.078.273-.045.094.14.242.366.192.448zm4.06 7.938c-.148.176-.426.613-.808.928-.433.358-1.104.25-1.427-.123-.337-.395-.39-1.05.027-1.43.366-.332.85-.59 1.326-.727.448-.128 1 .555.885 1.355zm.357-11.153c-.156.14-.288.352-.47.4-1.12.31-2.245.597-3.38.85-.16.036-.466-.108-.533-.25-.07-.14.02-.45.15-.566.375-.353.78-.86 1.22-.914.934-.124 1.9-.003 2.85.03.09.003.23.08.253.15.025.083-.056.197-.092.297zm13.21 10.816c-1.91 2.075-5.556 2.567-7.975 1.09-.452-.276-.89-.592-1.312-.922-1.403-1.102-2.42-2.406-2.15-4.344.015-.105.017-.216 0-.32-.426-2.607 1.057-3.993 3.196-4.907 1.18-.5 2.387-.95 3.615-1.318 1.854-.564 3.69.273 4.496 2.044.753 1.653 1.43 3.34 1.537 5.737.053.835-.51 1.967-1.406 2.94zm12.37-4.957c-.203.203-.587.39-.835.34-.472-.103-.527-.57-.514-1.004.03-1.04.454-1.827 1.402-2.31.348-.18.996.08 1.02.44.02 1.003-.38 1.845-1.072 2.534zm6.112-43.28c-.13.735-.26 1.482-.292 2.224-.32 6.74-.885 13.477-.69 20.235.02.646-.065 1.3.016 1.932.213 1.643-.44 2.816-1.598 3.973-1.08 1.08-2.187 1.562-3.68 1.472-1.496-.093-3.003.02-4.504-.044-5.685-.237-11.346.288-17.013.537-2.56.113-5.138-.028-7.688.497-1.03.213-2.15.156-3.206.02-2.14-.263-3.844-1.143-4.555-3.438-.542-1.756-.95-3.494-.96-5.345-.035-4.5-.133-9-.206-13.5l-.124-6.72c.07 0 .142 0 .213-.003 0-6.54.002-13.082 0-19.62 0-1.5-.067-3.002.527-4.438.16-.384.188-.837.21-1.263.175-2.986.32-5.978.498-8.965.075-1.175.16-2.354.33-3.517.118-.82.657-1.26 1.553-1.345 2.342-.228 4.688-.414 7.033-.624 1.598-.142 3.194-.314 4.79-.434 1.067-.083 2.14-.125 3.21-.142 5.148-.08 10.294-.176 15.44-.202 2.677-.014 5.358.082 8.037.17.86.028 1.423.534 1.514 1.364.12 1.062.185 2.136.19 3.206.01 3.753.02 7.506-.035 11.26-.07 4.726.405 9.4 1.082 14.068.413 2.877.42 5.77-.096 8.648zm-4.85 4.513c-.018-5.78-.028-11.563.018-17.346.013-1.814.213-3.624.328-5.437.032-.533.06-1.07.107-1.984-.077-.476-.173-1.325-.363-2.153-.092-.398-.27-.86-.562-1.12-1.736-1.544-3.667-2.597-6.12-2.16-.93.165-1.54.656-1.84 1.563-.475 1.432-.693 2.892-.688 4.41.032 8.136.013 16.274.04 24.41.002 1.174.15 2.348.248 3.52.107 1.274.34 2.548.316 3.818-.04 1.92-.256 3.836-.395 5.755-.113 1.55.87 2.68 2.43 2.79.213.014.43.02.64-.012 1.158-.17 2.323-.315 3.47-.544 1.787-.355 2.92-1.784 2.917-3.66 0-1.174.053-2.375-.15-3.523-.483-2.766-.387-5.544-.394-8.324zm-3.46-22.712c-.105 2.24-.302 4.482-.313 6.726-.04 8.25-.023 16.5-.04 24.75 0 .628-.06 1.263-.15 1.887-.02.134-.294.313-.46.32-.16.01-.46-.15-.483-.272-.125-.725-.242-1.46-.262-2.197-.06-2.03-.05-4.055-.48-6.067-.222-1.03-.143-2.13-.147-3.202-.015-3.857-.004-7.712-.004-11.57h-.102c0-4.07-.003-8.145 0-12.214 0-.533-.01-1.077.07-1.6.044-.29.236-.608.657-.47 1.27.407 1.716.895 1.755 1.983.025.64-.01 1.285-.04 1.926zM66.72 45.3c-1.272.146-2.534.35-3.8.536-2.357.344-3.123 1.135-3.377 3.51-.056.527-.03 1.066-.04 1.6l-.23 14.378c0 1.563-.002 4.344 0 7.125 0 2.243.03 4.49-.006 6.737-.026 1.877 1.232 2.864 2.64 3.168 1.68.363 3.334.256 4.85-.95 1.176-.94 1.85-1.846 1.807-3.44-.107-3.958-.046-7.918-.04-11.876 0-1.284 0-2.57.064-3.85.126-2.56.32-5.116.448-7.676.082-1.707-.007-3.42.504-5.088.153-.5.135-1.06.125-1.593-.032-1.696-1.255-2.78-2.944-2.584zm-2.504 27.927c-.186.21-.527.292-.78-.032-.594-.76-.015-1.723.71-1.94.106-.033.342.157.417.298.088.168.07.395.126.816-.098.184-.223.574-.474.856zm-7.314-4.256c-.077-2.14-.056-4.283-.17-6.42-.05-.95-.3-1.89-.495-2.83-.175-.844-.83-1.236-1.58-1.42-.506-.125-1.057-.144-1.582-.105-.956.068-1.9.213-2.85.333-.943.12-1.55.693-1.66 1.664-.092.852-.11 1.71-.117 2.566-.03 2.464.026 4.928-.066 7.39-.077 2.025-.317 4.046-.472 5.93-.037 1.627-.032 1.625.868 3.438.143.284.274.587.328.894.2 1.148 1.088 1.59 2.025 1.808.927.213 1.91.245 2.87.24 1.7-.006 2.86-.93 3.15-2.602.164-.936.137-1.917.104-2.875-.096-2.672-.256-5.34-.352-8.01zm-3.392 7.39c-.01.525-.096 1.066-.277 1.55-.07.19-.498.305-.773.33-.154.014-.378-.2-.482-.366-.107-.17-.17-.418-.14-.612.702-4.25.327-8.538.404-12.81.015-.85.064-1.703.117-2.555 0-.085.17-.245.187-.235.144.085.37.18.387.303.264 2.01.636 4.008.533 6.056-.056 1.173-.008 2.353-.008 3.53h.063c0 1.604.02 3.21-.013 4.81z"/></svg>