<svg xmlns="http://www.w3.org/2000/svg" width="128" height="128" viewBox="0 0 128 128"><path d="M96.002 40.962c-.142-3.748-.42-7.488-.538-11.235-.105-3.22-.032-6.44-.11-9.66-.087-3.71-3.503-7.667-7.146-8.527-2.233-.525-4.466-.475-6.718-.427-1.167.024-2.315.146-3.502.02-3.622-.38-7.26-.596-10.89-.892-.534-.04-1.057-.222-1.587-.243-1.82-.072-3.69-.382-5.45-.08-1.927.332-3.83.353-5.75.38-3.963.053-7.887.71-11.854.774-1.838.033-3.46.83-4.994 1.967-2.013 1.49-2.858 3.672-3.973 5.72-.473.866-.625 1.797-.66 2.784-.186 5.36-.274 10.727-.67 16.07-.28 3.753-.465 7.495-.378 11.248.14 6.002.4 12.004.58 18.005.102 3.413.433 6.808.094 10.25-.295 2.975-.064 6.004-.064 9.008h-.032c0 2.47-.075 4.94.015 7.406.145 4.068.384 8.133.603 12.198.03.527.068 1.11.304 1.56.837 1.594 1.508 3.265 2.89 4.562 1.6 1.5 3.406 2.606 5.383 3.448 1.368.58 2.688 1.325 4.245 1.408 3.213.17 6.42.41 9.63.626.746.05 1.505.05 2.24.186 3.308.612 6.63.358 9.95.192 1.925-.098 3.844-.323 5.77-.4 1.822-.07 3.648-.032 5.472-.03 1.668 0 3.157-.423 4.437-1.57.54-.485 1.22-.99 1.905-1.112 2.216-.398 3.98-1.362 5.216-3.296.33-.516.96-.847 1.457-1.254 1.318-1.075 2.04-2.48 2.19-4.15.264-2.988.702-5.95.74-8.97.08-5.678-.037-11.358.45-17.04.423-5.014.377-10.068.66-15.105.452-7.926.39-15.875.088-23.815zm-42.15 57.252c-.018.01-.207-.186-.19-.224.108-.22.252-.424.396-.646.25.2.384.31.52.416-.24.155-.477.317-.725.454zm10.825 12.155c-3.01.873-5.19-.338-7.19-2.295-1.05-1.03-1.527-2.304-1.174-3.795-.584-2.66.988-4 3.102-4.932 1.173-.514 2.39-.946 3.61-1.323 1.867-.572 3.723.242 4.51 2.005.523 1.166 1.008 2.37 1.314 3.608.83 3.35-.828 5.76-4.173 6.73zm14.396-6.24c-.06-.087-.192-.224-.17-.258.146-.218.323-.414.485-.61l.37.266c-.23.2-.458.4-.684.6zm6.672-54.38c-.565 5.346.027 10.687-.04 16.03-.035 3.1-.013 6.192-.335 9.3-.32 3.08-.144 6.21-.18 9.317-.034 3.136.305 2.415-2.17 4.998-.653.683-1.37.933-2.28.917-2.145-.032-4.29.053-6.433-.032-5.255-.21-10.482.323-15.72.538-2.672.11-5.354-.017-8.007.518-.928.184-1.93.11-2.888.02-2.304-.212-4.043-1.204-4.783-3.583-.55-1.752-.9-3.507-.913-5.355-.032-4.5-.14-9-.206-13.496-.033-2.24-.337-4.48.1-6.746V43.23c0-1.712-.133-3.432.56-5.074.16-.38.15-.843.175-1.267.177-3.098.328-6.196.516-9.29.065-1.067.156-2.14.355-3.185.12-.642.544-1.148 1.31-1.216 2.237-.2 4.47-.42 6.708-.62 1.81-.165 3.618-.333 5.43-.474.854-.068 1.71-.11 2.57-.12 5.464-.08 10.93-.175 16.397-.216 2.358-.016 4.716.057 7.073.143 1.636.06 2.023.453 2.15 2.148.087 1.175.082 2.357.082 3.536 0 3.968-.06 7.934-.006 11.898.023 1.92.26 3.84.37 5.76.09 1.496.318 3.017.16 4.493zm-10.523 8.94c-1.954-.89-4.015-1.46-6.1-1.963-3.78-.91-3.193-.306-3.308-4.13-.003-.216 0-.43 0-.646h-.016c0-.11.002-.212 0-.32-.06-4.534-.59-3.97 4.196-3.877.707.014 1.43.367 2.108.655.485.206.875.63 1.362.836.365.155.843.235 1.22.15 1.36-.307 2.078-1.638 1.718-2.954-.267-.968-.768-1.746-1.568-2.36-1.414-1.087-3.014-1.54-4.78-1.655-1.482-.1-2.954-.37-4.43-.562-.795-1.382-.33-2.933-.593-4.384-.19-1.045-.407-2.103-.796-3.083-.42-1.054-1.97-1.163-2.69-.29-.57.687-.854 1.472-.87 2.364-.03 1.716-.116 3.43-.104 5.146.01 1.205-.417 1.984-1.56 2.512-2.355 1.09-4.396 2.644-6.166 4.554-.968 1.04-1.712 2.206-2.163 3.54-.99 2.926.03 5.4 2.833 6.63 1.165.512 2.432.804 3.677 1.1 3.583.852 3.293.594 3.39 4.186.016.642.038 1.285.028 1.93-.013.734-.512 1.113-1.3.956-.63-.125-1.233-.36-1.857-.48-.734-.144-1.48-.288-2.22-.3-1.307-.022-2.25.635-2.78 1.82-.534 1.195-.27 2.73.72 3.54.64.526 1.42.987 2.21 1.218 1.434.416 2.916.645 4.384.93.904.176 1.61.47 1.7 1.574.06.74.28 1.472.477 2.193.228.82.45 1.66.78 2.443.467 1.107 1.87 1.856 2.856 1.626 1.438-.338 2.302-1.308 2.212-2.73-.075-1.17-.357-2.324-.557-3.48-.187-1.085.167-1.576 1.313-1.73.638-.083 1.285-.08 1.92-.177 2.677-.416 5.216-1.227 7.403-2.888 2.643-2.012 3.337-5.032 1.905-8.032-.94-1.97-2.676-3.017-4.547-3.867zm-15.2-4.47c-.065.21-.502.493-.713.45-.92-.19-1.83-.47-2.727-.768-.12-.04-.267-.412-.206-.523.732-1.334 1.74-2.39 3.185-2.948.1-.037.42.186.442.32.11.622.153 1.254.206 1.792-.06.626-.042 1.173-.188 1.675zm14.264 11.535c-.734.405-1.488.866-2.29 1.024-1.548.31-3.133.426-4.865.642-.216-.288-.624-.585-.65-.913-.113-1.26-.113-2.53-.13-3.798-.006-.418.475-.8.863-.678 2.014.626 4.03 1.242 6.016 1.944.462.16.86.6 1.186.997.115.144.023.698-.128.78z"/></svg>