<svg xmlns="http://www.w3.org/2000/svg" width="128" height="128" viewBox="0 0 128 128"><path d="M96.145 48.11c-.1-3.428-.32-6.85-.448-10.273-.098-2.68-.197-5.363-.175-8.043.015-1.813.17-3.635.4-5.434.124-.975.194-1.888-.096-2.846-.34-1.128-.525-2.298-.87-3.42-.215-.705-.47-1.47-.938-2.012-1.118-1.29-2.336-2.502-3.586-3.665-.453-.42-1.09-.796-1.69-.88-2.01-.276-4.078-.75-6.053-.522-2.69.31-5.28.027-7.917-.235-3.088-.305-6.183-.644-9.28-.715-4.286-.096-8.576.04-12.862.085-.426.003-.877-.03-1.28.085-2.1.6-4.25.478-6.39.47-1.62-.005-3.203.218-4.75.695-1.905.587-3.555 1.65-4.673 3.246-1.032 1.477-1.754 3.18-2.535 4.82-.267.558-.446 1.23-.427 1.844.218 6.872-.736 13.696-.764 20.555-.01 2.685-.08 5.365-.03 8.045.113 5.783.175 11.565.52 17.35.355 5.98.078 12 .078 18.005h-.036c0 1.822-.02 3.645.004 5.47.06 4.288.117 8.576.222 12.864.08 3.37 1.28 6.32 3.864 8.51 3.168 2.675 6.79 4.467 11.02 4.72 2.355.145 4.74.007 7.066.334 3.954.56 7.904.527 11.872.444 4.283-.09 8.54-.758 12.838-.54 1.19.063 2.467-.134 3.31-.997 1.284-1.31 2.892-1.75 4.543-2.203.495-.134 1.046-.324 1.398-.666 1.303-1.266 2.534-2.606 3.79-3.924.59-.62 1.22-1.217 1.364-2.124.207-1.27.51-2.528.6-3.805.245-3.522.587-7.057.555-10.585-.09-10.193.834-20.352.948-30.534.003-.212 0-.428.027-.64.597-4.48.51-8.984.38-13.484zm-61.02 54.59c-.03.177-.192.334-.29.5-.196-.22-.452-.41-.576-.665-.41-.843.08-1.615.25-2.406.018-.08.18-.207.223-.19.145.065.355.165.38.287.082.402.096.82.128 1.148-.04.5-.047.917-.116 1.326zm6.332 10.258c-.21-.017-.505-.288-.57-.504-.143-.48.16-.94.517-.85.26.068.483.29.648.395.117.523-.18.992-.595.96zm8.632-12.125c-.16.352-.37.683-.83.666.003.015.002.03.006.046-.02.002-.032.01-.05.014.03.486-.15.865-.545 1.132 0 .058 0 .114-.004.17-.075.018-.15.028-.218.054l-.14.173c.032-.055.05-.14.098-.164.013-.006.03-.005.043-.01l.123-.154c.038-.02.064-.05.098-.073-.01-.464-.16-.993.545-1.13 0-.023.003-.038 0-.06.018 0 .028-.005.045-.004-.092-.407.016-.75.364-1.003.072-.05.245-.085.282-.045.093.106.224.295.184.383zm3.816 8.154c-.248.683-.708 1.07-1.4 1.016-.37-.027-.79-.26-1.045-.53-.127-.142-.007-.61.125-.868.3-.592.78-.962 1.397-.95.786.056 1.156.7.924 1.33zM53.89 98.18c-1.125.286-2.255.548-3.393.77-.136.028-.412-.185-.466-.343-.054-.158.028-.43.146-.573.683-.81 1.608-.96 2.715-.91.2.047.524.082.814.204.173.072.346.26.408.432.038.11-.11.395-.22.42zm11.594 11.813c-1.346.535-2.712.608-4.102.48-.512-.05-1.024-.277-1.493-.51-.38-.184-.68-.526-1.047-.74-1.957-1.13-2.94-2.748-2.59-4.79 0-.48.03-.7-.004-.91-.316-1.888.58-3.1 2.214-3.825 1.562-.69 3.136-1.37 4.754-1.92 1.422-.48 3.39.462 4.047 1.845.69 1.45 1.216 2.95 1.483 4.555.457 2.735-.693 4.794-3.266 5.813zm15.04-7.177c-.437.89-1.363 1.42-1.696 1.032-.51-.587-.187-1.202-.036-1.806.166-.67.512-1.158 1.27-1.216.4-.062.844.366.77.772-.077.41-.128.848-.31 1.216zm5.1-3.406l-.07-.2.186.02-.115.178zm.87-42.506c-1.472 8.828-1.24 17.734-1.312 26.626-.003.643-.018 1.288 0 1.93.032 1.03-.363 1.878-1.077 2.593-.3.305-.626.595-.9.92-.81.97-1.812 1.46-3.092 1.42-1.285-.04-2.584.064-3.858-.06-3.32-.317-6.62-.24-9.946.022-3.527.277-7.077.235-10.61.384-2.566.11-5.126.32-7.69.45-.64.032-1.33.064-1.914-.14-1.33-.47-2.48-1.203-3.032-2.647-.496-1.31-.99-2.6-.992-4.03-.002-1.285-.053-2.573-.068-3.86-.028-2.345.245-4.7-.38-7.027-.19-.704-.076-1.493-.073-2.245.015-7.402.036-14.804.054-22.207.003-1.608.06-3.22-.016-4.827-.1-2.16.14-4.262.668-6.357.66-2.625.512-5.32.548-7.996.027-1.824-.016-3.646.576-5.412.373-1.11.606-1.38 1.794-1.47 3.203-.244 6.425-.333 9.61-.72 5.454-.662 10.928-.278 15.948-.543 4.3 0 8.16-.033 12.02.016 1.505.02 1.873.33 2.15 1.85.23 1.253.297 2.55.308 3.826.046 5.365.015 10.73.066 16.093.034 3.54.63 7.034 1.077 10.54.117.946.29 1.943.14 2.868z"/></svg>