<svg xmlns="http://www.w3.org/2000/svg" width="128" height="128" viewBox="0 0 128 128"><path d="M95.968 38.197c-.014-.427.02-.868-.062-1.284-.642-3.183-.288-6.417-.43-9.62 0-2.362.1-4.726-.02-7.078-.208-4.1-2.865-6.513-6.127-8.433-.264-.155-.625-.132-.935-.218-2.097-.58-4.24-.565-6.384-.485-1.063.04-2.14.25-3.19.156-4.478-.384-8.943-.892-13.42-1.275-2.23-.19-4.47-.44-6.703.195-.704.198-1.49.083-2.24.122-4.593.24-9.184.482-13.78.725-.214.01-.424.034-.64.06-2.472.28-4.513 1.508-6.057 3.32-1.085 1.273-1.693 2.95-2.522 4.444-.48.87-.59 1.807-.625 2.788-.19 5.355-.275 10.72-.672 16.06-.28 3.748-.457 7.487-.37 11.237.133 5.89.364 11.78.59 17.673.066 1.817.256 3.63.37 5.444.036.53.02 1.07-.014 1.602-.105 1.6-.32 3.194-.335 4.794-.05 5.15-.06 10.298-.016 15.445.015 1.71.27 3.41.363 5.12.046.85.025 1.71-.048 2.56-.156 1.83.042 3.692.53 5.386.42 1.46 1.14 2.942 2.275 4.168 1.714 1.86 3.746 3.198 6.033 4.16 1.37.576 2.688 1.327 4.245 1.412 3.205.175 6.41.412 9.618.625.748.05 1.51.038 2.244.18 3.196.64 6.432.514 9.617.188 2.996-.307 5.985-.447 8.98-.403 2.27.035 4.474-.206 6.68-.706 2.6-.59 4.78-1.83 6.54-3.825.925-1.042 1.817-2.123 2.824-3.077 1.082-1.025 1.632-2.278 1.76-3.686.26-2.877.728-5.728.765-8.638.074-5.89-.05-11.784.462-17.675.408-4.69.356-9.416.627-14.127.52-9.103.343-18.225.067-27.34zm-54.51 74.867c-.158.017-.56-.485-.512-.597.15-.326.437-.742.736-.797.215-.038.528.43.965.823-.535.277-.85.533-1.19.572zm26.138-4.238c-1.656 1.678-5.062 2.406-7.164 1.365-1.035-.51-2.005-1.24-2.844-2.04-1.263-1.21-1.348-1.724-1.344-4.08-.433-2.636 1.798-5.22 3.994-5.917 1.402-.448 2.813-1.184 4.336-.424.843.423 1.91.71 2.45 1.394 1.195 1.513 1.92 3.296 2.044 5.297.102 1.697-.254 3.176-1.472 4.406zm18.58-48.335c-.134.736-.26 1.48-.294 2.226C85.56 69.462 85 76.2 85.194 82.96c.018.644-.067 1.297.014 1.93.216 1.65-.433 2.836-1.62 3.962-.993.94-1.924 1.57-3.36 1.47-1.71-.12-3.436.017-5.15-.052-5.47-.22-10.918.282-16.375.527-2.67.117-5.355-.02-8.013.512-1.032.206-2.155.15-3.206.015-2.146-.275-3.823-1.195-4.535-3.47-.548-1.756-.937-3.502-.944-5.35-.02-4.61-.1-9.22-.155-13.52-.44-4.16.147-8.012-.024-11.86-.117-2.564-.293-5.128-.47-7.69-.306-4.506-.276-8.992.442-13.467.56-3.486.985-6.992 1.48-10.485.06-.42.148-.845.283-1.247.178-.527.513-.94 1.113-1.024 1.165-.17 2.328-.406 3.5-.48 4.594-.287 9.19-.588 13.788-.753 4.398-.16 8.796-.19 13.194-.21 2.784-.013 5.576.08 8.363.164.863.027 1.426.533 1.518 1.362.12 1.06.183 2.136.187 3.205.01 3.65.023 7.297-.034 10.943-.078 4.835.385 9.62 1.083 14.398.417 2.876.425 5.77-.095 8.65zm-6.71 5.91c.016-.534-.012-1.076-.087-1.605-.39-2.773-1.53-5.11-3.96-6.68-.9-.58-1.802-1.15-2.72-1.71-.543-.334-1.066-.154-1.447.26-.51.546-.97 1.146-1.392 1.764-.906 1.326-1.77 2.685-2.664 4.02-.156.235-.315.65-.702.352-.238-.183-.444-.47-.54-.756-.277-.832-.313-1.682.064-2.51.266-.587.56-1.16.804-1.755.237-.58-.02-1.383-.61-1.65-.566-.256-1.203-.5-1.812-.512-2-.032-3.19 1.067-1.97 3.032.892 1.44.873 2.81.33 4.284-.068.184-.26.322-.396.482-.14-.128-.33-.23-.412-.39-1.29-2.46-2.573-4.927-3.845-7.397-.302-.586-.705-.875-1.233-.74-1.78.45-3.506.994-4.752 2.485-.41.49-.9.92-1.37 1.358-.9.834-1.366 1.85-1.633 3.055-.606 2.75-.735 5.518-.716 8.313 0 1.396.056 2.794-.016 4.18-.08 1.545.366 2.978.777 4.416.254.88.925 1.517 1.786 1.72 3.548.844 7.126 1.534 10.798 1.45.402-.012.933-.142 1.17-.417 1.01-1.19 2.27-1.134 3.533-.736 1.713.544 3.36.487 5.044-.075.5-.167 1.052-.19 1.583-.265 1.375-.194 2.76-.348 4.13-.576 1.498-.254 2.485-1.068 2.955-2.593.395-1.282.395-2.513.11-3.797-.518-2.303-.866-4.63-.807-7.007zM55.602 45.27c1.507.607 1.753 1.998 2.322 3.237.533 1.154 1.163 2.283 1.893 3.317.48.678 1.156 1.266 1.856 1.726 2.335 1.536 5.235.804 6.585-1.624.307-.555.555-1.16.73-1.767.265-.92.556-1.858.635-2.804.075-.963.472-1.59 1.286-2.04.28-.152.53-.368.75-.593 1.174-1.187 1.093-3.63-.333-4.496-1.056-.644-1.547-1.357-1.506-2.55.018-.527-.052-1.066-.153-1.588-.433-2.323-1.97-4.863-5.913-4.56-1.567-.304-2.967.634-4.065 2.047-.646.834-1.26 1.767-1.597 2.754-.686 2.02-1.34 3.96-3.19 5.31-.725.528-.712 1.516-.203 2.348.277.45.495 1.116.902 1.28zm8.61-7.33c.33-.665.68-1.32 1.025-1.977.158-.295.5-.29.713-.035.702.856 1.027 1.856 1.075 2.94.04.954.008 1.91.008 2.618.274 2.41-.202 4.48-.795 6.528-.117.4-.293.818-.552 1.14-.17.212-.54.268-.818.393-.114-.267-.382-.573-.32-.79.165-.61.427-1.2.72-1.76.41-.767.38-1.39-.36-1.943-.366-.275-.483-.712-.297-1.14.41-.945.39-1.757-.27-2.657-.74-1.005-.69-2.19-.13-3.317z"/></svg>