<svg xmlns="http://www.w3.org/2000/svg" width="128" height="128" viewBox="0 0 128 128"><path d="M97.062 38.72c-.018-.536.04-1.088-.064-1.603-.622-3.187-.316-6.42-.43-9.62 0-2.254.002-4.507-.002-6.76-.005-4.296-2.688-6.8-5.99-8.864-.34-.213-.825-.192-1.237-.307-2.1-.587-4.244-.533-6.387-.46-1.062.036-2.135.207-3.187.116-4.477-.386-8.944-.88-13.42-1.27-1.6-.138-3.267-.366-4.81-.067-2.667.516-5.338.256-7.994.483-3.303.283-6.603.555-9.92.693-1.83.08-3.47.788-5.005 1.93-2.094 1.557-3.072 3.787-4.102 6-.35.75-.523 1.635-.562 2.466-.237 4.925-.403 9.85-.61 14.776-.15 3.532-.353 7.062-.48 10.593-.225 6.01.55 11.994.522 17.995-.02 3.733.84 7.456.128 11.2.128 7.82-.525 15.648.373 23.456.037.316.08.657.008.96-.44 1.826.11 3.614.19 5.42.023.522.156 1.058.33 1.554.762 2.18 2.14 3.952 3.905 5.38 1.412 1.143 3.002 2.06 4.735 2.672 1.205.424 2.397 1.035 3.64 1.18 2.866.337 5.763.444 8.647.64 1.07.068 2.163.006 3.208.206 3.31.636 6.643.544 9.94.196 2.996-.315 5.986-.398 8.985-.398 2.15 0 4.248-.17 6.362-.658 2.72-.627 4.986-1.875 6.808-3.968.843-.97 1.66-1.98 2.603-2.845 1.182-1.088 1.767-2.426 1.912-3.953.294-3.09.718-6.162.75-9.285.062-5.57-.042-11.138.438-16.71.422-4.903.378-9.844.654-14.77.49-8.783.336-17.58.064-26.374zm-54.385 74.432c-.29.13-.75-.46-.645-.82.117-.414.384-.737.858-.618.27.068.504.296.9.546-.53.437-.787.742-1.115.892zm25.995-4.304c-1.643 1.69-5.06 2.41-7.16 1.365-1.035-.512-1.988-1.255-2.848-2.037-1.173-1.08-1.58-2.5-1.312-3.936-.46-2.78 1.77-5.36 3.97-6.07 1.51-.484 2.96-1.04 4.657-.355 1.39.56 2.342 1.382 3.01 2.667.8 1.55 1.204 3.177 1.172 4.928-.028 1.368-.565 2.485-1.493 3.438zm18.003-39.98c-.46 3.53-.328 7.07-.384 10.606-.03 1.933-.105 3.872.02 5.794.09 1.444-.416 2.492-1.465 3.375-.245.207-.48.434-.683.687-.58.725-1.31 1.042-2.248.99-.747-.043-1.502-.002-2.254-.006-2.788-.006-5.582-.096-8.37-.013-5.677.175-11.355.418-17.027.674-1.6.072-3.193.322-4.794.388-.733.03-1.497-.11-2.207-.314-1.525-.435-2.58-1.348-3.12-2.94-.555-1.643-1.03-3.268-1.03-5.008v-3.54c0-.645.156-1.34-.03-1.924-.89-2.763-.29-5.504-.03-8.256.095-1.056.274-2.112-.227-3.164-.208-.44-.115-1.04-.1-1.568.033-1.07.143-2.14.157-3.21.05-3.86.062-7.71-.36-11.564-.515-4.712-.358-9.42.396-14.112.543-3.38.955-6.784 1.443-10.173.075-.526.167-1.08.405-1.537.173-.337.563-.71.915-.778 1.26-.253 2.54-.515 3.816-.533 5.36-.068 10.676-1.02 16.052-.773 2.036.09 4.077.014 6.116.014v-.133c3.648 0 7.296-.002 10.944.006.644 0 1.29.03 1.93.085 1.023.09 1.488.556 1.635 1.636.07.53.124 1.067.12 1.605-.06 7.617-.112 15.238-.213 22.855-.026 1.926-.4 3.857-.3 5.77.187 3.633.63 7.256.9 10.887.1 1.388.172 2.806-.007 4.178zm-15.32-34.025c-.85.038-1.736-.023-2.562-.21-2.55-.585-5.122-.417-7.693-.355-.635.017-1.272.156-1.9.286-1.552.324-2.46 1.27-2.56 2.87-.116 1.82-.18 3.64-.242 4.993.14 2.404.124 4.348.382 6.256.59 4.358 1.13 8.717 1.193 13.117.026 1.82.638 3.09 2.466 3.67.49.155.897.57 1.342.868.94.63 1.995.867 3.072.643 1.778-.37 3.547-.815 5.286-1.336.96-.288 1.667-1.013 1.932-2.01.69-2.58 1.413-5.16 1.963-7.776.657-3.14 1.308-6.297 1.664-9.483.27-2.44.267-4.95.035-7.392-.213-2.26-1.43-4.29-4.38-4.143zm-10.28 5.72c-.08-.673.193-1.222.668-1.236.853-.03 1.707-.01 3.15-.01.265.024 1.116.097 1.964.178.105.013.2.077.3.117-.13.15-.23.355-.393.434-1.54.752-3.125 1.368-4.885 1.312-.507-.015-.75-.317-.805-.797zm3.338 18.618c-.296.208-.826.188-1.216.107-.245-.05-.54-.376-.608-.632-.135-.508-.13-1.052-.19-1.683.027-.327-.04-.795.127-1.155.163-.34.565-.576.88-.835.066-.056.242-.07.305-.02.136.1.34.278.32.383-.066.307-.258.584-.348.885-.224.764-.114 1.45.41 2.1.175.212.993.394.32.854zm3.237-.67c-.08.03-.194.006-.28-.027-.04-.015-.042-.114-.065-.175.092-.026.19-.09.273-.072.302.06.33.174.073.274zm1.575-4.905c-.027.094-.077.217-.155.256-1.035.554-2.127.903-3.22.96l-.575-.32c.068-.083.124-.204.213-.234 1.178-.413 2.362-.813 3.55-1.202.036-.01.155.144.19.24.035.09.024.207-.003.3zm.768-3.936c-.058.394-.572.632-.96.34-1.403-1.056-2.848-.633-4.254-.14-.797.278-1.508.79-2.253 1.206-.324.178-.62.14-.667-.245-.035-.29-.007-.735.172-.87.5-.37 1.072-.687 1.662-.892 1.408-.49 2.862-.85 4.256-1.378.437-.165.81-.652 1.074-1.074.335-.535-.043-1-.378-1.425-.064-.08-.15-.17-.166-.265-.098-.52.26-.8.656-.898.373-.096.832-.107 1.178.037.197.082.24.54.32.753-.222 1.68-.427 3.266-.643 4.848zM65.65 70.915c-.977-.027-1.906.123-2.77.604-.742.42-1.487.835-2.244 1.22-1.263.648-1.845 1.76-1.984 3.084-.205 1.963.22 3.826 1.26 5.507.96 1.556 2.388 2.367 4.244 2.42 3.82.11 6.464-2.46 6.49-6.95-.114-.536-.252-1.71-.634-2.8-.74-2.113-2.133-3.02-4.36-3.08zm-1.324 7.734c-.096-.025-.24-.112-.245-.18-.01-.178-.02-.447.08-.524.394-.296.83-.533 1.25-.79l.233.577c-.103.793-.563 1.122-1.316.917z"/></svg>