<svg xmlns="http://www.w3.org/2000/svg" width="128" height="128" viewBox="0 0 128 128"><path d="M76.75 41.397c.076-1.17.615-2.05 1.413-2.787 1.184-1.088 2.385-2.165 3.656-3.147 1.88-1.455 3.512-3.144 5.037-4.953 1.385-1.637 2.637-3.45 4.26-4.81 3.54-2.957 5.81-6.85 8.366-10.548.465-.678.546-1.42.216-2.142-.307-.677-.68-1.34-1.128-1.93-.612-.808-1.698-1.11-2.6-.62-.928.5-1.792 1.156-2.59 1.854-1.047.917-1.973 1.97-3 2.912-2.21 2.03-4.45 4.028-6.674 6.043-.72.646-1.388 1.353-2.143 1.952-2.36 1.875-4.578 3.893-6.54 6.187-.532.626-1.103.91-1.962.72-1.43-.316-2.46.29-3.192 1.552-.59 1.018-1.27 1.988-1.94 2.958-.423.612-.88 1.205-1.36 1.775-.072.083-.48.046-.5-.015-.46-1.36-1.538-2.723.003-4.107.304-.272.46-.715.66-1.09.32-.596-.06-1.446-.703-1.466-1.067-.032-2.136.01-3.2.075-.523.032-.907.644-.77 1.205.15.62.395 1.214.576 1.824.322 1.114.062 2.12-.64 3.01-.082.104-.368.138-.504.077-.18-.08-.356-.262-.448-.443-1.006-2.01-1.995-4.027-2.99-6.042-.267-.545-.69-.79-1.297-.654-.523.117-1.045.352-1.565.34-.496-.007-1.148-.112-1.454-.436-1.688-1.797-3.386-3.6-4.904-5.538-3.266-4.16-7.28-7.57-11.032-11.25-.606-.597-1.314-1.104-2.016-1.598-1.507-1.065-3.28-.944-4.722.305-.235.203-.475.477-.558.763-.375 1.272-.505 2.556.475 3.642 2.443 2.705 4.58 5.7 7.394 8.053 1.91 1.598 3.472 3.482 4.995 5.43 2.51 3.203 5.083 6.36 7.634 9.53.486.603.82 1.25.834 2.043.008.86.048 1.718.043 2.576-.03 3.003-.074 6.008-.114 9.013-.013.895-.24 1.22-1.067 1.226-2.9.015-5.743.79-8.657.584-.528-.038-1.074.024-1.6.11-1.312.213-2.174 1.01-2.25 2.35-.088 1.49-.1 3.012.1 4.487.684 4.978 2.064 9.835 2.64 14.837.194 1.712 1.006 2.447 2.756 2.586 1.6.128 3.216.083 4.824.125.907.02 1.17.2 1.283 1.073.412 3.08.826 6.158 1.16 9.246.525 4.9.958 9.81 1.49 14.712.183 1.702.506 3.392.82 5.075.178.948.484 1.867.7 2.807.036.143-.078.46-.17.478-1.146.25-2.288.542-3.45.65-.725.073-1.477-.175-2.22-.227-1.422-.098-2.335.67-2.333 2.027.002 1.93.092 3.855.12 5.78.018 1.004.597 1.616 1.44 1.928.59.22 1.253.282 1.888.303 9.125.313 18.24.02 27.344-.578.533-.034 1.086-.066 1.59-.224 1.564-.487 3.167-.168 4.742-.228 1.977-.075 2.09.017 2.814-1.766.24-.595.576-1.185.647-1.804.165-1.383.334-2.75.75-4.098.133-.422-.092-1.088-.38-1.483-.425-.6-1.022-1.09-1.6-1.568-.52-.435-1.165-.53-1.822-.37-.305.076-.59.35-.885.353-1.478.02-2.955-.017-4.434-.032-.75-1.122.234-2.23.03-3.373-.15-.83-.04-1.712-.01-2.57.075-2.252.086-4.51.284-6.753.245-2.773.647-5.533.98-8.296.453-3.72.903-7.445 1.363-11.165.1-.806.38-1.144 1.28-1.082 1.9.134 3.52-.715 5.232-1.276.78-.255 1.276-.788 1.642-1.445.315-.557.54-1.17.743-1.778.923-2.74 1.824-5.49 2.73-8.238.6-1.835 1.263-3.648 1.78-5.504.406-1.467.665-2.976-.972-4.01-.24-.15-.32-.543-.48-.82-.6-1.035-1.507-1.423-2.687-1.402-2.147.038-4.294.01-6.438.01v.054H78.01c-2.14 0-2.144 0-1.982-2.003.245-2.987.525-5.976.717-8.968zm-19.378 75.337c-.184.203-.46.36-.72.434-.093.025-.32-.24-.393-.41-.08-.178-.07-.408-.06-.61.02-.473.436-.86.786-.694.227.11.37.398.49.538-.038.344.005.615-.106.742zm4.95.288c-.552.464-1.635.41-1.983-.117-.208-.31-.33-.864-.18-1.16.14-.29.66-.396.913-.532.475.075.85.032 1.084.192.22.154.384.51.416.79.027.273-.06.67-.252.83zm16.01-2.112c.1.02.256.128.25.178-.025.2-.044.466-.177.578-.942.81-2.114.946-3.283.99-1.387.05-2.778.014-3.987.014-1.563.117-2.944.25-4.328.31-.46.017-.808-.345-.85-.798-.025-.256.15-.576.325-.793.105-.133.38-.168.58-.177 3.518-.16 7.035-.314 10.553-.452.303-.014.615.08.917.15zm-.873-42.863c-1.108 5.78-1.837 11.62-2.656 17.448-.717 5.097-1.327 10.194-1.338 15.345-.004 1.61.08 3.215.107 4.823.008.595-.38 1.04-.946 1.064-.963.043-1.928.05-2.893.064-2.896.04-5.79.08-8.686.09-.294 0-.593-.192-.884-.293.112-.288.194-.6.348-.867.317-.556.712-1.065 1-1.633.446-.875-.138-1.672-1.204-1.66-.31.005-.62.15-.933.214-.08.02-.245-.01-.252-.04-.036-.18-.122-.44-.034-.542.91-1.052 1.87-2.063 2.77-3.125.48-.565.94-1.173 1.27-1.828.237-.472.185-1.045-.21-1.502-.4-.456-.9-.504-1.457-.39-.7.14-1.19.91-2.005.692 0 .016-.005.028 0 .045-.03.027-.057.055-.084.084-.04.267-.203.4-.437.45l-.132.133c-.213.22-.43.435-.648.654-.075.068-.155.133-.23.2.047-.096.095-.192.14-.29.216-.22.428-.442.64-.664.084-.004.158-.017.23-.032l.436-.45c.008-.048.025-.085.023-.143.02.008.04.006.06.01-.095-.702.38-1.164.767-1.64.88-1.08 1.82-2.11 2.686-3.203.46-.58.842-1.23 1.2-1.884.29-.54.12-1.33-.33-1.77-.425-.412-.94-.467-1.49-.29-1.27.41-2.207 1.286-3.114 2.21-.82.836-1.656 1.663-2.493 2.49-.032.03-.177-.003-.227-.05-.072-.067-.173-.197-.153-.263.128-.396.224-.83.456-1.16 1.05-1.49 2.15-2.942 3.22-4.415.565-.78 1.144-1.555 1.666-2.364.384-.593.282-1.253-.18-1.772-.536-.602-1.3-.72-2.023-.22-.608.423-1.188.91-1.736 1.413-.547.508-1.037 1.078-1.562 1.61-.07.07-.27.137-.286.113-.123-.16-.313-.354-.295-.518.064-.625.06-1.312.33-1.845.627-1.24 1.42-2.397 2.11-3.606.58-1.026 1.134-2.07 1.658-3.122.323-.658.032-1.543-.573-1.984-.562-.407-1.606-.445-2.105.03-.538.512-.964 1.14-1.486 1.672-.197.205-.52.285-.786.422-.12-.286-.323-.56-.352-.853-.32-3.1-.97-6.127-1.838-9.113-.23-.806.072-1.216.928-1.263 1.39-.077 2.786-.183 4.18-.16 4.726.075 9.412-.3 14.068-1.126 2.055-.367 4.036.244 6.027.586.176.03.42.517.384.757-.173 1.164-.43 2.31-.652 3.468zm5.782-15.314c2.035.008 4.073.11 6.107.192.95.04 1.295.584.955 1.523-.943 2.617-1.92 5.222-2.864 7.838-.51 1.408-1.007 2.82-1.453 4.248-.354 1.137-.91 1.755-2.254 1.817-2.496.12-2.552.226-2.51-2.353.03-1.88-.608-3.573-1.158-5.303-.245-.783-.84-1.288-1.614-1.412-2.527-.415-5.03-.842-7.645-.378-3.686.65-7.41 1.197-11.177.964-3.028-.187-5.96.595-8.956.727-.31.014-.625.14-.917.256-.832.34-1.403 1.21-1.155 2.063.523 1.78.5 3.6.533 5.42.013.82-.315 1.158-1.125 1.204-.427.025-.87.06-1.276-.043-.256-.066-.632-.357-.65-.576-.43-4.65-2.113-8.933-3.773-13.23-.267-.692-.408-1.437-.587-2.164-.107-.448.187-.792.685-.832.32-.024.64-.045.96-.045 7.61-.002 15.22-.002 22.828-.002v.08c5.683-.002 11.362-.02 17.043.01zM56.368 19.837c.587.363.86.917 1.084 1.538.33.902.685 1.8 1.094 2.67.553 1.18 1.336 2.23 2.38 2.998 2.803 2.05 5.67 1.584 7.225-1.552.47-.942.764-2.017.91-3.062.194-1.448.525-2.67 1.933-3.47.873-.493 1.19-1.48 1.195-2.82-.228-.4-.437-1.296-.987-1.608-1.19-.682-1.567-1.542-1.616-2.86-.037-1.04-.46-2.08-.813-3.086-.415-1.17-1.266-2.072-2.43-2.426-2.19-.665-4.705-.744-6.497 1.376-1.126 1.333-1.91 2.845-2.38 4.512-.325 1.152-.775 2.084-1.8 2.884-1.755 1.37-1.68 2.72-.063 4.323.227.224.498.41.77.58zm8.058-8.518c.338-.49.456-1.447 1.155-1.235.424.128.783 1.03.86 1.62.197 1.486.214 2.992.3 4.487-.047 2.046-.072 4.083-.86 6.016-.16.385-.335.794-.61 1.095-.18.2-.552.232-.84.336-.08-.274-.296-.593-.224-.815.205-.604.537-1.165.805-1.75.35-.756.33-1.442-.39-2-.38-.296-.437-.66-.25-1.118.34-.832.35-1.65-.145-2.46-.873-1.426-.74-2.823.203-4.18z"/></svg>