<svg xmlns="http://www.w3.org/2000/svg" width="128" height="128" viewBox="0 0 128 128"><path d="M46.26 48.49c.793.325 1.543.746 2.32 1.106 1.458.677 2.877 1.472 4.392 1.99 3.853 1.318 7.697 2.652 11.472 4.186.766.313 1.662.348 2.507.398.805.048 1.376-.523 1.538-1.348.18-.896.09-1.725-.654-2.35-.49-.412-.99-.82-1.532-1.163-2.804-1.773-5.65-3.48-8.44-5.284-3.6-2.332-7.242-4.61-10.7-7.136-2.27-1.66-4.694-2.992-7.13-4.346-2.044-1.14-4.12-1.054-6.173-.136-.655.29-1.35.79-1.71 1.383-1.39 2.293-2.684 4.638-2.975 7.39-.215 2.025-.48 4.047-.832 6.05-.83 4.753-1.3 9.544-1.652 14.35-.08 1.07-.14 2.143-.287 3.2-.252 1.804-.625 3.59-.825 5.4-.21 1.894.13 3.69 1.813 4.87.804.56 1.08 1.212 1.117 2.147.155 4.18.413 8.356.544 12.535.14 4.502.156 8.997.733 13.484.41 3.18.78 6.39.622 9.62-.015.32.024.644.06.964.2 1.837 1.43 2.888 3.245 2.773 2.406-.155 4-1.52 4.386-3.903.17-1.05.197-2.136.186-3.207-.033-2.894-.123-5.79-.19-8.69h.118c0-3.003 0-6.01.003-9.015.003-.535-.007-1.075.05-1.61.026-.263.185-.513.285-.772.094.187.227.363.277.56 1.104 4.028 2.23 8.044 3.275 12.086.86 3.313 1.658 6.644 2.404 9.988.292 1.308.87 2.42 1.74 3.39.267.292.693.554 1.083.61 1.06.148 2.142.186 3.165-.26.597-.262 1.086-.594 1.31-1.3.532-1.676.623-3.366.367-5.086-.157-1.06-.36-2.112-.59-3.16-.99-4.496-1.947-8.992-2.576-13.563-.395-2.854-1.12-5.664-1.755-8.485-.54-2.402-1.153-4.787-1.743-7.18-.254-1.03-.19-1.892.928-2.423.623-.292.972-.872.894-1.578-.296-2.658.012-5.353-.607-8.002-.437-1.87-.637-3.802-.84-5.717-.416-3.835-.76-7.674-1.13-11.514-.147-1.507.178-1.79 1.51-1.245zm58.306 4.897c-.197-1.603-.55-3.176-1.476-4.536-.715-1.043-1.598-1.55-3.01-1.225-1.583.36-3.12.7-4.475 1.653-2.144 1.5-4.646 2.16-7.09 2.952-.633.202-1.07-.028-1.27-.6-.177-.505-.33-1.017-.492-1.528-1.498-4.69-4.032-8.72-7.62-12.112-2.186-2.07-4.456-4.02-7.033-5.592-1.1-.672-2.158-1.402-3.253-2.075-.585-.356-.987-.79-1.07-1.498-.04-.315-.155-.627-.275-.92-.535-1.313-1.448-2.102-2.936-2.067-.64.015-1.288.004-1.928.068-2.81.277-5.112 2.877-5.038 5.7.045 1.73.74 3.14 2.315 3.955 2.115 1.1 4.292 1.396 6.368-.062.782-.55 1.34-.42 1.986.124 2.204 1.874 4.525 3.623 6.62 5.616 3.056 2.914 5.47 6.304 6.74 10.413.78 2.505.646 2.837-1.86 3.755-.303.112-.62.17-.926.27-4.282 1.368-8.736 2.125-12.964 3.68-3.1.117-5.67 1.867-8.507 2.795-1.12.364-1.725 1.656-1.483 2.884.373 1.888.774 3.773 1.216 5.646.46 1.94 1.653 2.685 3.56 2.266.73-.162 1.438-.41 2.165-.565.597-.13 1.1.247 1.12.79.015.428.004.86.004 1.29v18.66h-.13c0 5.365-.01 10.728.003 16.092.003 1.502.072 3 .107 4.5.036 1.63.885 2.835 2.03 3.875 2.352 2.138 4.808.356 5.088-1.723.09-.635.19-1.284.15-1.92-.117-1.806.743-3.072 2.13-4.073 1.128-.813 2.265-1.62 3.4-2.43.807-.576 1.364-1.333 1.72-2.27.31-.817.017-1.5-.448-2.09-.48-.614-1.165-.95-1.987-.744-.62.155-1.237.337-1.845.555-.605.214-1.184.49-1.78.726-.43.166-.79-.128-.846-.617-.162-1.38.102-2.54 1.442-3.28.558-.31 1.06-.734 1.536-1.165.39-.35.75-.76 1.045-1.198.55-.82.263-1.957-.613-2.507-.555-.35-1.125-.446-1.824-.282-1.132.262-1.384.01-1.273-.988.1-.957.18-1.926.4-2.86.115-.483.432-.986.797-1.33.62-.583 1.38-1.015 2.033-1.57.65-.55 1.294-1.125 1.838-1.775.243-.288.36-.802.31-1.187-.165-1.355-1.546-2.254-2.818-1.877-.512.155-.992.418-1.5.578-.124.038-.434-.115-.456-.224-.244-1.173-.408-2.336.7-3.227.916-.736 1.848-1.465 2.727-2.248.79-.7 1.05-1.808.714-2.63-.433-1.055-1.33-1.645-2.525-1.616-.317.006-.627.14-.94.183-.74.094-.904-.05-.92-.82-.013-.752-.02-1.502-.013-2.252.013-1.383.203-1.72 1.467-2.135 3.15-1.04 6.308-2.05 9.475-3.043 2.753-.864 5.634-1.333 8.212-2.725.18-.1.41-.12.615-.175.402-.107.883.3.817.707-.373 2.214-.78 4.422-1.123 6.642-.522 3.386-.882 6.8-1.522 10.16-.864 4.538-1.235 9.137-1.5 13.717-.31 5.344-.1 10.722-.03 16.085.017 1.272.288 2.555.58 3.8.27 1.144 1.12 1.792 2.282 1.99 1.05.176 1.926-.202 2.552-1.004.38-.49.65-1.105.827-1.707.42-1.443.59-2.923.616-4.437.114-7.5-.277-15.01.656-22.493.37-2.973.56-5.97.83-8.956.397-4.48.797-8.96 1.188-13.44.046-.53.017-1.073.073-1.606.215-2.142.497-2.466 2.574-3.044.31-.084.632-.124.936-.225 1.717-.57 2.787-2 2.86-3.84.022-.533.035-1.077-.03-1.608zm-20.592 7c-5.85 2.03-11.7 4.06-17.536 6.114-1.813.64-3.595 1.367-5.387 2.065-.41.16-.81.324-1.143-.11-.416-.54-.512-1.465-.155-1.766 1.134-.95 2.24-1.86 3.795-2.21 3.022-.677 5.918-1.766 8.728-3.106 1.246-.594 2.606-.946 3.92-1.397.302-.107.618-.207.93-.228.19-.014.396.13.744.266.153-.048.51-.056.692-.238 1.614-1.596 3.79-1.756 5.81-2.288.47-.124.782.26.836.733.17 1.49.01 1.734-1.232 2.165zM92.164 57c-.026.093-.118.165-.182.25-.048-.093-.128-.182-.14-.278-.04-.405-.092-.815-.074-1.22.005-.165.176-.326.27-.488.09.177.194.348.267.53.035.093.017.204.03.417-.044.197-.094.497-.172.793zm5.708-1.83c-.328.38-.8.636-1.18.925-.253-.186-.478-.27-.55-.427-.172-.38-.31-.785-.396-1.195-.12-.568.186-1.056.698-1.245.597-.218 1.038.075 1.368.49.346.438.446 1.007.06 1.452zm-66.47-27.46c.272 1.71 1.274 2.77 2.956 3.454 1.636.667 3.074.378 4.678.068 3.058-.587 5.024-2.414 6.094-5.145 1.134-2.898 1.743-5.937 1.55-9.104-.172-2.914-1.535-5.12-3.938-6.62-2.197-1.377-4.565-1.737-7.008-.462-1.21.63-1.94 1.666-2.557 2.8-1.672 3.09-2.466 6.377-2.315 9.908.17 1.702.272 3.416.54 5.1zm8.313-7.33c-.796-.478-.98-.947-.505-1.782.678-1.19 1.456-2.38.65-3.88-.106-.2.332-.74.583-1.073.35-.448 1.1-.373 1.323.13.17.38.352.783.384 1.187.064.74.018 1.486.018 2.368.17 2.17-.592 4.26-1.54 6.297-.172.367-.49.683-.793.964-.112.104-.416.104-.565.026-.16-.085-.368-.37-.328-.483.328-.887.768-1.736 1.042-2.635.1-.328-.03-.975-.27-1.118z"/></svg>