<svg xmlns="http://www.w3.org/2000/svg" width="128" height="128" viewBox="0 0 128 128"><path d="M112.69 32.358c-.052-.096-.095-.194-.145-.29-.743-1.366-1.78-2.478-3.12-3.26-2.55-1.487-4.82-3.332-7.024-5.28-.56-.497-1.184-1.02-1.875-1.254-2.773-.936-5.563-1.82-8.38-2.61-1.98-.557-4.042-.823-6.012-1.41-2.204-.658-4.416-1.1-6.717-1.152-.86-.02-1.713-.24-2.574-.346-2.47-.302-4.94-.754-7.423-.853-3.58-.14-7.158.07-10.74.275-4.656.264-9.306.638-13.965.853-5.224.25-10.042 1.88-14.243 4.946-5.933 4.33-10.788 9.74-14.784 15.898-.942 1.455-1.845 2.955-2.59 4.518-1.55 3.267-2.585 6.67-2.41 10.358.083 1.736.025 3.48.014 5.222-.028 4.235 1.02 8.136 3.44 11.665.852 1.246 1.36 2.752 2.314 3.902 1.028 1.243 2.4 2.196 3.6 3.297.64.587 1.27 1.195 1.846 1.845 1.746 1.973 3.81 3.552 6.03 4.94 2.475 1.548 4.893 3.242 7.965 3.4.21.01.412.138.62.195 3.17.866 6.388 1.257 9.67 1.11.543-.024 1.086 0 1.63 0v-.05c1.632 0 3.266-.063 4.893.016 1.515.07 3.022.283 4.53.445.59.064.982.363 1.167.956 1.008 3.252 2.667 6.156 4.853 8.748 1.822 2.16 3.733 4.245 5.554 6.405 1.68 1.99 3.787 3.57 5.303 5.728.904 1.287 2.382 1.377 3.85 1.178.918-.123 1.345-.547 1.377-1.483.145-4.228.65-8.418 1.376-12.585.206-1.175.318-2.37.57-3.535.387-1.79.527-3.652 1.524-5.282.27-.437.352-1.018.435-1.542.114-.756.58-1.06 1.25-1.302 1.465-.526 2.947-.66 4.49-.52 3.664.342 7.15-.324 10.4-2.055 2.584-1.377 5.117-2.85 7.69-4.25 1.09-.59 1.94-1.36 2.41-2.534.57-1.425 1.476-2.635 2.37-3.877.815-1.124 1.49-2.42 1.92-3.74 1.292-4.016 3.007-7.94 2.896-12.29.608-2.005.6-4.085.62-6.146.092-9.07.442-9.115-4.6-18.25zm-2.48 21.944c-.225 1.267-.13 2.6-.11 3.902.025 1.647-.177 3.243-.76 4.793-.268.706-.492 1.44-.667 2.176-.94 3.934-3.427 6.624-6.718 8.808-2.557 1.7-5.3 2.925-8.123 4.058-2.16.866-4.348 1.323-6.672 1.152-.755-.06-1.52-.012-2.283-.012-2.27.01-4.544-.263-6.813.296-1.024.253-1.507.775-1.692 1.693-.47 2.328-1.134 4.64-1.303 6.993-.26 3.573-1.184 7.026-1.623 10.56-.016.14-.245.272-.403.36-.06.035-.235-.037-.29-.11-.26-.344-.528-.69-.736-1.067-1.953-3.51-3.92-7.01-5.822-10.55-.562-1.044-.917-2.196-1.403-3.284-.352-.79-.677-1.616-1.163-2.32-.654-.953-1.613-1.55-2.8-1.143-.88.3-1.643.243-2.523.01-.93-.244-1.935-.253-2.91-.263-3.26-.032-6.517-.006-9.78-.023-.755-.003-1.516-.06-2.257-.195-.174-.03-.43-.527-.37-.725.12-.4.45-.73.66-1.108.316-.57.682-1.13.88-1.74.235-.716.36-1.487-.264-2.134-.45-.467-1.196-.44-2.098.056-1.376.752-2.293 1.968-3.26 3.14-.705.86-1.366 1.05-2.258.52-3.752-2.223-4.117-1.602-.826-4.962.904-.925 1.728-1.938 2.505-2.976.47-.626.644-1.397.11-2.118-.47-.632-1.534-.944-2.37-.57-.884.395-1.757.875-2.513 1.47-.847.666-1.56 1.503-2.33 2.268-.462.46-.886.96-1.395 1.355-.163.13-.668.087-.805-.065-.264-.296-.602-.808-.5-1.083.212-.59.63-1.134 1.068-1.605.89-.95 1.873-1.816 2.766-2.766.44-.467.837-1.006 1.123-1.58.25-.496.16-1.074-.227-1.52-.38-.432-.902-.666-1.46-.516-.622.17-1.264.378-1.8.718-1.183.766-2.32 1.604-3.19 2.753-.31.416-.763 1.052-1.28.647-.946-.738-1.232-1.766-.71-2.53 1.054-1.543 2.326-2.866 3.734-4.073.58-.49 1.254-.897 1.74-1.468.396-.47.673-1.1.824-1.707.192-.76-.464-1.532-1.21-1.643-1.607-.242-3.038.213-4.265 1.205-.927.75-1.74 1.632-2.61 2.45-.314.293-.604.65-.977.83-.162.08-.614-.15-.747-.356-.38-.597-.32-1.28.053-1.845 1.134-1.72 2.275-3.437 3.506-5.083.578-.775 1.372-1.39 2.06-2.083.455-.466.978-.895 1.315-1.436.263-.422.434-1.01.374-1.493-.08-.666-.976-1.25-1.74-1.21-.637.035-1.29.15-1.89.37-1.894.685-3.36 1.957-4.564 3.543-.062.082-.18.12-.272.18-.09-.19-.277-.387-.256-.56.08-.64.18-1.284.357-1.902 1.38-4.754 3.842-8.96 6.69-12.957.943-1.326 2.047-2.54 2.967-3.88 1.516-2.213 3.527-3.788 5.84-5.08 4.705-2.633 9.7-4.152 15.082-4.755 3.34-.375 6.717-.267 10.034-.914.926-.18 1.952-.01 2.904.158 1.494.268 3.004.545 4.432 1.038 1.69.584 3.378.683 5.13.64 3.145-.075 6.277-.128 9.425.32 4.46.633 8.66 1.973 12.728 3.823.98.447 1.895.963 3.038 1.072.818.078 1.633.565 2.37 1 4.355 2.556 7.1 6.385 8.323 11.207 1.152 4.53 1.84 9.14 1 13.855z"/></svg>