<svg xmlns="http://www.w3.org/2000/svg" width="128" height="128" viewBox="0 0 128 128"><path d="M121.742 16.832c-1.714-1.918-3.46-3.875-5.713-5.19-2.05-1.195-4.16-2.32-6.343-3.24-2.867-1.21-5.9-2.06-9.04-1.724-2.656.284-5.29.856-7.906 1.437-.874.195-1.73.708-2.463 1.252-1.155.864-2.272 1.808-3.28 2.835-2.512 2.56-3.852 5.525-3.252 9.25.294 1.824.213 3.71.3 5.568.244 3.54-.584 6.997-.84 10.498-.058.817-.29 1.62-.45 2.432-.165.843-.566 1.11-1.268.78-1.12-.532-2.22-1.106-3.335-1.646-1.867-.9-3.817-1.525-5.81-2.1-3.232-.94-6.033-.48-8.725 1.604-4.512 3.488-8.755 7.247-12.6 11.456-.346.382-.643.81-.94 1.233-1.613 2.28-2.34 4.798-2.098 7.595.174 2.03.83 3.8 2.415 5.193.763.672 1.368 1.522 2.04 2.3.47.55.88 1.16 1.4 1.654 3.435 3.286 6.692 6.755 10.365 9.797 3.683 3.05 7.644 5.653 12.036 7.556 2.656 1.152 5.36 2.227 8.273 2.48 2.053.18 4.13.124 6.2.178 1.783.044 3.462-.42 5.153-.935 1.764-.53 2.76-1.7 3.32-3.37.427-1.27.81-2.563 1.36-3.78 1.752-3.864 3.105-7.874 4.486-11.876.82-2.37 1.063-4.726.82-7.26-.294-3.02-1.59-5.28-3.853-7.13-.95-.78-1.888-1.576-2.827-2.363.495-1.358 1.918-1.724 2.83-2.64 1.392-1.39 2.96-2.538 4.822-3.303 1.03-.427 1.933-1.18 2.87-1.82 1.71-1.158 3.43-2.304 5.093-3.525 1.16-.856 2.362-1.718 3.317-2.774 3.776-4.157 5.547-9.11 5.628-14.704.034-2.165-.576-4.145-1.99-5.72zm-32.014 15.03c1.224.084 2.435.306 3.648.483.048.004.08.09.12.134-.082.062-.154.164-.243.185-1.102.26-2.206.516-3.314.747-.437.092-.86-.243-.85-.643.01-.44.19-.94.64-.91zm-.323 49.224c-.194.05-.41.008-.683.008-1.517.066-3.01-.31-4.43-.962-3.286-1.504-6.582-2.976-9.83-4.555-3.364-1.634-6.29-3.955-9.198-6.26-2.507-1.985-4.907-4.104-7.28-6.244-.913-.82-1.657-1.837-2.427-2.802-.405-.506.02-1.297.69-1.374 1.987-.227 3.9-.01 5.74.843 1.302.605 2.638 1.146 3.967 1.7 1.81.754 3.584 1.56 5.184 2.737 4.237 3.118 8.537 6.155 12.736 9.32 2.313 1.747 4.296 3.87 6.114 6.125.245.306.33.74.485 1.115-.352.12-.707.26-1.07.352zm10.23-22.547c.543.45.948 1.08 1.367 1.662.516.723.58 1.536.293 2.365-.4 1.17-.8 2.343-1.25 3.493-1.275 3.27-2.574 6.53-3.867 9.79-.154.382-.323.758-.504 1.132-.192.405-.72.535-1.01.267-.152-.14-.314-.27-.444-.43-2.403-2.875-5.32-5.187-8.264-7.464-3.183-2.464-6.39-4.902-9.656-7.253-1.92-1.385-3.982-2.576-5.973-3.86-.693-.45-1.39-.893-2.045-1.39-3.15-2.4-6.694-3.6-10.656-3.566-.31 0-.624.02-.928-.027-.188-.03-.432-.13-.516-.276-.075-.132-.032-.433.078-.55.835-.91 1.682-1.81 2.563-2.678.41-.4.94-.4 1.423-.096.523.33 1.024.7 1.53 1.052 1.454 1.017 3.052 1.71 4.753 2.203.77.222 1.44.067 2.044-.38.22-.157.32-.49.472-.74-.1-.335-.1-.705-.284-.908-.62-.678-1.216-1.45-1.984-1.9-1.057-.613-2.256-.982-3.41-1.418-.458-.173-1.154-.176-.993-.848.15-.617.757-1.08 1.404-1.022.8.073 1.63.28 2.36.62 1.12.516 2.14 1.25 3.252 1.79.823.4 1.71.71 2.603.916.706.16 1.48.053 1.97-.587.38-.498.157-1.67-.447-2.29-.575-.583-1.196-1.15-1.878-1.597-1.035-.678-2.142-1.24-3.207-1.875-.245-.15-.582-.37-.335-.72.164-.233.454-.484.715-.516.496-.06 1.038-.072 1.51.07 3.777 1.13 7.347 2.724 10.693 4.81 4.818 3.007 9.664 5.964 14.453 9.01 1.472.94 2.82 2.08 4.163 3.204zm17.138-33.95c-.24.673-.578 1.332-.97 1.934-1.484 2.238-2.934 4.5-4.53 6.66-2.812 3.797-6.422 6.65-10.598 8.875-2.462 1.31-4.69 3-6.55 5.13-.516.595-.98.66-1.636.27-1.596-.958-3.176-1.94-4.76-2.917-.48-.293-.676-.747-.485-.944.305-.318.572-.118.832-.005.896.395 1.816.452 2.71.077.69-.285 1.217-.76 1.27-1.604.05-.797-.255-1.393-.872-1.87-.608-.472-1.333-.492-2.048-.6-.815-.125-.98-.413-.91-1.28.077-1.03.39-1.318 1.69-1.18.24.045.845.213 1.457.277 1.23.124 2.464.24 3.698.267 1.165.025 1.984-.62 2.35-1.688.34-.992-.153-1.818-.86-2.487-.294-.278-.69-.447-1.004-.708-.074-.06-.04-.413.028-.443.376-.16.81-.203 1.163-.397 1.43-.79 1.62-2.035.71-3.364-.38-.553-1.46-.443-1.28-1.443.576-.187 1.152-.378 1.73-.56 1.065-.333 1.898-.994 2.03-2.108.128-1.068-.386-2.003-1.24-2.698-.594-.48-1.46-.552-1.912-1.256.714-.06 1.428-.116 2.143-.177.1-.01.206-.014.305-.043.896-.27 1.832-.528 2.128-1.576.3-1.052-.195-2.37-1.147-3.007-.957-.642-2.025-1.003-3.2-1.03-.62-.01-1.237-.076-1.853-.127-.094-.008-.18-.08-.273-.12.096-.043.188-.102.288-.12.203-.034.407-.05.61-.07 3.03-.32 5.973.21 8.885.946 1.298.33 2.557.81 3.836 1.216 2.793.89 5.393 2.1 7.31 4.435 1.69.89 1.453 2.3.952 3.728zM58.3 78.555c-4.345-3.125-9.276-4.467-14.508-4.722-6.597-.32-12.642 1.532-18.17 5.115-.78.502-1.52 1.152-2.38 1.434-3.182 1.037-5.164 3.37-6.662 6.14-2.123 3.935-3.044 8.092-1.69 12.528.12.39.138.815.19 1.22.46 3.383 1.41 6.648 2.415 9.895.336 1.077.796 2.136 1.35 3.118 2.072 3.674 5.017 6.268 9.27 7.09 1.607.31 3.246.477 4.87.714 1.78-.166 3.51-.278 5.24-.716 6.82-1.726 12.945-4.828 18.378-9.248 4.806-3.91 7.89-8.955 9.058-15.08.695-3.638.48-7.222-1.312-10.54-1.49-2.75-3.473-5.1-6.048-6.948zm1.793 15.08c-.568 5.62-3.49 9.844-7.765 13.215-4.5 3.548-9.568 6.023-15.136 7.467-2.343.608-4.717.646-7.064.32-2.94-.405-5.096-2.114-6.526-4.7-1.714-3.1-2.93-6.357-3.02-9.957-.02-.827-.077-1.65-.13-2.73l.23-4.38c1.025-1.148 2.022-2.325 3.078-3.445 2.488-2.64 5.14-5.06 8.494-6.603 3.13-1.443 6.35-2.376 9.837-2.29 2.27.057 4.517.074 6.765.554 3.78.808 6.933 2.58 9.333 5.61 1.608 2.026 2.17 4.334 1.906 6.94zM18.273 69.29c.657-2.09 2.09-3.77 2.885-5.778.328-.825.584-.907 1.436-.792.305.04.603.136 1.19.274.98-.028 2.168-.305 3.253-.96 1.43-.864 2.603-2 3.68-3.285 1.146-1.357 1.78-3.04 2.884-4.38 1.12-1.357 2.258-2.684 3.2-4.17.277-.438.565-.867.826-1.315.448-.774 1.038-1.272 2-1.152.203.025.414-.005.62.008 2.95.174 5.164-1.166 6.91-3.415.756-.978 1.487-1.984 2.14-3.034.78-1.244 1.76-1.793 3.3-1.834 3.156-.082 5.762-1.488 7.684-4.02 1.238-1.637 2.218-3.46 3.79-4.86.74-.658.784-1.667.324-2.59-.437-.897-1.138-1.435-2.17-1.52-1.558-.127-2.835.326-3.792 1.622-.792 1.082-1.615 2.143-2.482 3.167-1.184 1.397-2.59 2.366-4.558 2.167-1.285-.132-2.43.343-3.54.93-1.125.598-1.972 1.51-2.747 2.47-.843 1.045-1.606 2.155-2.38 3.248-.762 1.074-1.765 1.717-3.08 1.86-.515.052-1.033.074-1.545.133-1.39.17-2.573.757-3.475 1.838-.594.713-1.158 1.454-1.688 2.213-2.06 2.96-4.574 5.575-6.443 8.676-1.123 1.86-2.648 2.624-4.95 2.245-2.294-.378-3.722.675-4.46 2.925-.6 1.842-1.483 3.617-1.36 5.68.065 1.1-.804 1.883-1.772 2.335-.624.29-1.178-.176-1.7-.51-.348-.224-.693-.45-1.06-.64-1.124-.58-1.984-.373-2.628.7-.422.704-.768 1.458-1.126 2.202-.22.46-.032 1.067.434 1.33.356.2.836.54 1.12.432 1.216-.45 2.2.166 3.22.56 1.12.438 2.192.453 3.308 0 1.323-.532 2.332-1.426 2.752-2.762zm-8.86-16.23c.526-.3.99-.735 1.423-1.17.472-.47 1-.7 1.66-.657.413.026.826.03 1.236.046 2.33.073 4.206-.817 5.707-2.588 1.712-2.022 2.754-4.34 3.16-6.95.22-1.433.482-2.853 1.17-4.15.31-.587.76-.928 1.503-.753 2.987.692 5.248-.516 7.038-2.803 1.14-1.46 2.245-2.96 3.276-4.5.736-1.103 1.4-2.105 2.957-1.34.256.125.608.06 1.216.102 1.183-.184 2.51-.756 3.604-1.73 1.16-1.03 2.234-2.15 2.948-3.562.512-1.018 1.065-2.01 1.6-3.012.81-1.527 1.89-2.667 3.736-2.915.698-.097 1.386-.42 2.03-.735 1.268-.62 1.95-2.1 1.607-3.36-.358-1.333-1.54-2.17-3.065-2.075-2.02.124-3.82.88-5.382 2.144-1.29 1.04-2.38 2.264-3.328 3.648-1.104 1.615-2.35 3.138-3.563 4.678-.417.523-.924.62-1.638.412-2.447-.704-4.468.02-5.998 2.066-.43.576-.853 1.165-1.26 1.757-.82 1.192-1.614 2.4-2.446 3.584-.982 1.394-2.102 2.397-4.046 2.38-1.95-.024-3.566.96-4.61 2.687-.588.968-1.202 1.93-1.673 2.958-.645 1.405-1.14 2.88-1.756 4.297-.41.942-.882 1.86-1.392 2.752-.378.66-.978.98-1.775 1.065-1.126.116-2.26.287-3.344.603-2.144.63-3.835 3.34-3.587 5.575.165 1.492 1.662 2.297 2.987 1.54zM7.16 25.708c0 1.032-.06 2.067.016 3.093.077 1.048.46 2 1.267 2.74.568.522 1.443.505 1.917-.076.604-.738.96-1.568 1.006-2.54.035-.815.144-1.63.222-2.442.896-.404 1.44.52 2.22.58.718.053 1.435.126 2.154.166 1.32.075 2.364-.43 3.296-1.387 1.344-1.384 2.107-3.054 2.575-4.86.296-1.135.858-1.727 2.022-2.02 2.837-.71 5.323-2.194 7.707-3.848.867-.6 1.543-1.357 1.848-2.403.217-.735-.093-1.804-.764-2.18-.62-.35-1.3-.735-2.048-.425-.945.398-1.9.794-2.778 1.312-1.87 1.107-3.75 2.173-5.89 2.66-2.702.616-4.273 2.324-4.948 4.96-.15.593-.384 1.172-.64 1.732-.384.85-.98 1.117-1.72.57-1.634-1.21-3.426-1.313-5.31-1.007-1.203.196-2.063 1.05-2.18 2.28-.1 1.023-.022 2.06-.022 3.09h.05zM69.794 66.18c-.955.084-1.725 1.007-1.6 1.915.143 1.024.95 1.86 1.787 1.845 1.003-.015 2.07-1.102 1.98-2.01-.11-1.075-1.06-1.845-2.164-1.75zm-5.237-3.13c-.907.017-1.58.59-1.68 1.426-.112.968.563 1.773 1.558 1.853.936.073 1.86-.703 1.895-1.586.034-.9-.823-1.72-1.775-1.696zm13.058 8.335c-.585.037-1.07.558-1.126 1.202-.06.645.425 1.195 1.045 1.195.757-.005 1.408-.645 1.323-1.314-.07-.57-.702-1.118-1.245-1.082zM51.22 85.297c-.892-.693-1.836-1.333-2.813-1.9-1.083-.628-2.283-1.025-3.55-.83-1.93.295-3.86.6-5.75 1.066-1.085.267-2.11.814-3.113 1.326-.932.472-1.653 1.225-2.144 2.16-.197.374-.253.83.114 1.124.194.153.608.252.8.15 2.226-1.206 4.59-1.764 7.12-1.766.71 0 1.413-.295 2.13-.33.708-.033 1.492-.074 2.122.182 2.897 1.17 5.422 2.703 5.117 6.443-.008.103-.01.21.018.31.557 1.823-.03 3.458-.897 5.008-.654 1.164-1.444 2.25-2.197 3.357-.346.51-.772.964-1.115 1.48-.42.637-.283 1.477.27 1.962.51.45 1.485.56 2.02.202.254-.17.53-.358.688-.608 1.43-2.263 2.963-4.482 3.872-7.02.55-1.54 1.044-3.132.887-4.684.11-3.257-1.13-5.75-3.573-7.637zM40.764 106.7c-.4-.07-.83-.16-1.222-.1-2.44.385-4.696-.246-6.948-1.093-3.467-1.307-5.515-4.053-5.643-7.707-.053-1.557-.02-3.096.574-4.573.15-.373.28-.802.245-1.19-.018-.24-.314-.556-.56-.657-.23-.096-.643-.05-.83.107-.3.25-.533.617-.7.98-.756 1.638-.87 3.385-.77 5.503 0 .477-.05 1.307.01 2.13.296 4.132 2.048 7.304 6.03 8.96.38.16.758.332 1.13.513 2.148 1.06 4.43.936 6.687.627 1.126-.155 2.15-.704 2.752-1.803.362-.668 0-1.568-.758-1.698zm5.367-11.425c-.913-1.047-1.994-1.355-3.02-.81-.36.19-.665.488-1.01.706-1.155.738-1.155.73-1.673-.46-.205-.474-.402-.955-.653-1.402-.147-.262-.37-.498-.602-.693-1.887-1.576-5.03.094-5.37 1.704-.042.202-.058.406-.067.61-.056 1.233.697 1.76 1.98 1.393.195-.056.384-.14.576-.21.17.086.437.137.485.27.22.573.37 1.173.553 1.76.512 1.643 1.62 2.268 3.278 1.915 1.504-.32 3.032-.55 4.53-.9.465-.107.978-.395 1.28-.755.684-.817.502-2.225-.287-3.127z"/></svg>