<svg xmlns="http://www.w3.org/2000/svg" width="128" height="128" viewBox="0 0 128 128"><path d="M109.583 49.27c-1.393-.577-2.837-.44-4.27-.534-3.843-.254-7.715-.32-11.507-.907-2.51-.39-4.986-.69-7.52-.724-1.56-.02-3.112-.264-4.667-.414-.653-.064-1.11-.38-1.32-1.03-.146-.46-.37-.893-.503-1.355-2.944-10.037-8.495-18.842-13.222-28.04-.3-.59-.808-.87-1.465-.832-.842.053-1.68.115-2.52.21-.758.085-1.35.427-1.73 1.135-.845 1.59-1.795 3.133-2.565 4.756-2.272 4.774-4.587 9.523-6.136 14.61-.77 2.526-1.8 4.978-2.813 7.42-.688 1.66-1.554 3.244-2.34 4.86-1.96.546-3.924 1.09-5.887 1.632-.113.032-.238.043-.357.05-3.723.254-7.44.562-11.168.74-3.363.163-6.74.157-10.053.847-.818.17-1.632.412-2.4.73-.715.298-1.08.926-1.13 1.714-.118 1.886.607 3.25 2.397 4.022 1.534.664 2.963 1.453 4.32 2.53 2.66 2.117 4.98 4.523 7.16 7.107.54.642 1.13 1.254 1.772 1.79 1.845 1.545 3.697 3.08 5.604 4.54.974.75 1.348 1.645 1.205 2.82-.06.478-.027.97-.123 1.44-.98 4.705-1.79 9.457-3.02 14.097-1.087 4.098-1.874 8.194-1.983 12.43 0 1.322-.123 2.66.02 3.967.296 2.645 2.896 4.09 5.33 3.008.98-.437 1.933-.968 2.85-1.533 3.09-1.904 5.765-4.32 8.403-6.796 2.9-2.718 5.843-5.387 8.81-8.02.99-.878 2.047-1.72 3.19-2.367 4.062-2.293 3.06-2.21 6.04.51.533.486 1.024 1.023 1.576 1.488 2.206 1.86 4.456 3.678 6.645 5.562 2.182 1.877 4.24 3.918 7.04 4.91.106.04.185.152.287.214 2.677 1.61 5.353 3.217 8.032 4.82 1.265.765 2.62 1.188 4.113 1.16.873-.015 1.38-.43 1.38-1.265 0-1.808-.378-3.568-.64-5.348-.724-5-1.71-9.945-2.986-14.825-1.248-4.762-1.832-9.692-3.662-14.304-.1-.257.068-.737.274-.965.4-.437.906-.78 1.386-1.14 6.432-4.88 12.638-10.017 18.09-16.014 1.266-1.387 2.11-2.927 2.42-4.75.3-1.745-.708-3.285-2.365-3.966zm-7.85 7.875c-1.06 1.59-2.2 3.074-4.06 3.968-3.254 1.565-6.25 3.605-9.078 5.854-2.272 1.806-3.912 4.21-5.728 6.443-.256.315-.292.92-.23 1.363.766 5.355 1.746 10.675 2.938 15.95.286 1.275.956 2.463 1.442 3.692.573 1.455 1.19 2.894 1.68 4.377.257.785.334 1.643.385 2.472.02.277-.264.615-.497.835-.08.075-.48-.06-.627-.205-.508-.506-.867-1.265-1.465-1.555-3.07-1.49-5.37-4-8.092-5.95-2.734-1.96-5.306-4.157-7.926-6.276-1.038-.837-2.033-1.63-3.435-1.87-.775-.133-1.49-.72-2.18-1.18-1.21-.805-2.427-.896-3.77-.354-2.38.957-4.46 2.4-6.33 4.088-3.034 2.745-5.93 5.643-8.92 8.442-1.4 1.312-2.867 2.555-4.324 3.805-.13.11-.416.075-.62.05-.067-.007-.165-.197-.163-.303.02-.72-.02-1.454.117-2.155.255-1.296.558-2.588.952-3.847 1.436-4.623 2.046-9.383 2.477-14.18.167-1.915.412-3.823.585-5.738.18-1.947-.59-3.522-2.005-4.818-.173-.162-.343-.34-.538-.48-3.552-2.513-6.447-5.785-9.816-8.505-.733-.59-1.6-1.037-2.453-1.44-.787-.378-1.485-.785-1.83-1.634-.133-.333-.304-.653-.46-.978.42-.16.83-.44 1.255-.465 2.878-.165 5.756-.277 9.485-.445.062.018.677.14 1.297.19 1.917.156 3.834.354 5.752.382 2.417.034 4.14-1.067 4.965-3.43.192-.55.368-1.207.77-1.57 1.306-1.172 1.94-2.732 2.71-4.228 2.43-4.72 4.027-9.787 6.098-14.656.99-2.32 2.087-4.597 3.173-6.872.14-.288.526-.45.8-.672.155.294.334.58.46.89 1.235 3.006 2.383 6.046 3.695 9.015 1.803 4.074 3.634 8.138 4.688 12.48.49 2 1.53 3.11 3.62 3.423 1.76.267 3.25 1.523 5.133 1.547 1.067.016 2.13.3 3.2.346 3.125.136 6.257.014 9.36.656 1.155.24 2.4.033 3.604.065 1.08.028 2.163.075 3.243.166.607.054 1.137.64 1.082 1.228-.075.71-.056 1.537-.42 2.08z"/></svg>