<svg xmlns="http://www.w3.org/2000/svg" width="128" height="128" viewBox="0 0 128 128"><path d="M120.775 61.102c-.594-1.508-1.717-2.44-3.456-2.494-3.058-.093-6.057.045-8.79 1.675-.584.35-1.1.05-1.183-.698-.43-3.85-1.507-7.525-3.066-11.053-1.22-2.766-2.553-5.485-3.896-8.19-1.008-2.03-1.03-1.98.992-3.37 1.245-.855 2.44-1.79 3.613-2.746 1.197-.98 2.076-2.233 2.46-3.736.6-2.347-.928-5.02-4.096-4.46-1.115.195-2.208.74-3.2 1.318-1.714 1.007-3.157 2.36-4.352 3.977-.6.815-.847.783-1.664.034-.428-.397-.833-.816-1.263-1.21-4.962-4.532-10.717-7.316-17.457-7.984-1.948-.192-3.883-.56-5.82-.843-.825-1.96-.562-4.08-.936-6.1-.21-1.142-.437-2.297-.845-3.374-.707-1.86-2.444-2.61-4.27-1.917-2.087.79-4.21 3.168-4.054 5.58.105 1.582.49 2.932 1.45 4.193 1.262 1.645 1.217 1.696-.82 2.077-2.056.388-4.102.94-6.174 1.09-5.627.407-10.643 2.302-15.12 5.69-.185.14-.37.28-.563.41-.437.302-.97.22-1.193-.227-.46-.936-.828-1.92-1.333-2.833-.62-1.11-1.213-2.275-2.04-3.22-1.746-2-4.283-2.457-6.668-1.254-.914.46-1.794 1.106-2.49 1.857-1.727 1.86-1.814 4.35-.26 6.384.63.827 1.454 1.505 2.22 2.217 1.446 1.35 2.918 2.67 4.373 4.01.38.353.454.77.162 1.233-.37.595-.73 1.19-1.08 1.796-3.13 5.37-5.528 11.02-6.497 17.203-.16 1.035-.235 2.084-.403 3.115-.08.493-.466.82-.964.84-1.163.037-2.328.01-3.49.01v-.018c-1.05 0-2.106-.077-3.146.016-2.605.226-4.753 1.32-5.822 3.808-1.245 2.9-.473 5.358 2.478 6.61 1.094.467 2.225.637 3.4.69.923.036 1.86.074 2.76.266 1.357.29 2.7.672 4.02 1.112.362.12.775.532.88.895.364 1.225.465 2.54.908 3.725 1.38 3.7 2.318 7.57 4.113 11.117.245.486.164.84-.352 1.124-2.655 1.454-3.44 4.003-3.725 6.736-.398 3.797 2.972 6.336 6.654 5.195 1.42-.444 2.367-1.42 3.37-2.396.715-.69 1.03-.733 1.78-.08 4.25 3.682 9.21 5.858 14.68 6.882 1.823.344 3.717.286 5.545.604.994.175 2.13-.05 2.98.746-.116.907-.232 1.813-.354 2.723-.197 1.49-.507 2.957-.07 4.49.54 1.905 1.91 3.31 3.82 3.6 1.907.29 3.403-.38 4.51-1.986.62-.896 1.02-1.84.976-2.926-.062-1.622-.065-3.265-.29-4.87-.127-.894.16-1.075.874-1.473 1.234-.69 2.428-1.312 3.85-1.48.687-.08 1.354-.33 2.03-.5 5.1-1.29 9.998-3.106 14.602-5.668 1.317-.735 2.53-1.65 3.83-2.422.142-.085.705.174.764.37.34 1.106.533 2.26.885 3.36.393 1.23 1.046 2.335 1.966 3.263 1.8 1.825 4.587 2.24 6.747 1.017 2.192-1.237 3.99-5.83 3.272-8.286-.25-.838-.613-1.493-1.605-1.57-.776-.064-1.197-.64-1.635-1.197-.795-1-1.597-2-2.424-2.976-.887-1.047-.902-1.035-.074-2.35 2.69-4.266 4.775-8.788 5.763-13.762.362-1.824.664-3.654 1.025-5.48.197-1.003.452-1.248 1.394-1.01 2.25.558 4.42-.035 6.557-.492 1.57-.335 3.078-1.072 4.283-2.248 1.21-1.184 1.55-2.622.946-4.16zm-99.118 4.12c-.914.495-1.85.963-2.797 1.397-.994.457-2.02.395-3.04.04-.695-.24-1.005-1.006-.69-1.68.413-.883.913-1.613 2.076-1.47.454.06.924.013 1.58.013.735.062 1.667.072 2.573.25.382.075.7.493 1.047.753-.248.235-.46.537-.75.695zm75.847-31.33c1.458-2.017 3.438-3.382 5.653-4.438.17-.08.464-.027.63.075.084.05.09.425 0 .537-1.565 1.894-3.314 3.556-5.73 4.315-.16.05-.378-.1-.56-.155 0-.114-.048-.26.006-.336zM63.046 15.03c.072-.607.437-1.044 1.018-1.27.42-.164.957.32 1.08 1.045.25 1.467.468 2.94.652 4.12-.088.65-.126.992-.187 1.33-.02.08-.113.2-.173.203-.107 0-.27-.045-.31-.122-.7-1.306-1.422-2.6-2.044-3.942-.175-.384-.09-.912-.04-1.362zM30.15 29.075c-.46-.776-.723-1.67-1.026-2.53-.27-.77-.064-1.42.432-1.39.402.02.932.17 1.166.46 1.053 1.297 2.51 4.66 2.87 6.356.03.005.063.017.095.02.02.053.034.11.053.16.093.064.187.128.282.19-.075-.015-.18-.005-.215-.054-.032-.038-.05-.085-.066-.134l-.124-.082c-.005-.03-.018-.067-.023-.096-1.728-.26-2.645-1.544-3.442-2.896zm1.487 66.46c-.48.64-1.056 1.213-1.64 1.762-.365.344-.878.357-1.268.06-.258-.19-.514-.545-.535-.846-.1-1.337.31-2.506 1.402-3.354.166-.128.427-.136.644-.203 1.08.09 2.014 1.76 1.398 2.58zM33.67 74.8c-.715 1.433-1.523 2.82-2.304 4.225-.04.067-.2.15-.232.128-.09-.06-.17-.168-.2-.273-.373-1.334-.732-2.668-.06-4.02.61-1.23 1.2-2.47 1.83-3.69.088-.168.38-.228.577-.336.098.18.258.348.284.54.09.683.136 1.37.218 2.257-.02.264.076.787-.112 1.167zm2.567 6.004c-.37.836-.838 1.632-1.28 2.434-.05.096-.17.15-.258.228-.094-.175-.205-.34-.277-.523-.04-.098-.017-.227-.035-.585.214-.772.48-1.767.786-2.75.037-.122.35-.262.472-.22.192.07.41.258.476.448.107.304.226.706.113.965zm3.694 5.842c-.72 1.97-1.29 3.968-1.49 6.063-.01.11-.076.22-.116.33-.158-.145-.384-.26-.464-.437-.282-.63-.51-1.274-.726-1.826.386-2.315.78-4.474 1.707-6.496.017-.026.4.04.53.15.694.6.865 1.383.563 2.216zM59.426 45.84c.107 1.144.33 2.282.587 3.405.408 1.78.436 1.77-1.055 2.75-.484.317-1.018.587-1.426.983-2.033 1.968-2.315 2.072-3.546-.64-1.213-2.67-2.976-4.95-5.07-6.983-.83-.806-1.665-1.61-2.43-2.475-.146-.166-.107-.757.06-.9 2.302-1.935 4.572-3.912 7.71-4.436 1.477-.248 2.915-.728 4.38-1.07.44-.107.91-.107.82-.096 1.088-.008 1.403.413 1.158.958-1.22 2.725-1.46 5.583-1.188 8.504zm-10.15 4.53c.232.29.278.733.38 1.13.042.014.078.035.122.048.032.078.06.16.1.233.053.045.11.085.165.127-.052-.032-.123-.053-.155-.1-.006-.007-.008-.017-.01-.025l-.19-.14c-.015-.046-.024-.095-.036-.142-1.707-.584-2.54-2.14-3.635-3.383-.604-.687-1.027-1.536-1.518-2.318-.028-.044.053-.195.12-.246.072-.053.21-.094.28-.06.206.1.434.2.577.368 1.28 1.49 2.57 2.976 3.797 4.512zm-3.786 2.335c1.46 1.688 3.175 3.068 5.236 3.998.733.33 1.453.736 2.105 1.205.82.592 1.11 1.406.886 2.456-.4 1.862-.9 2.197-2.6 1.2-2.566-1.505-5.224-1.8-8.066-1.097-1.466.363-2.954.64-4.42.995-1.276.307-1.46.205-1.416-1.584.043-.307.155-1.227.3-2.146.343-2.18.75-4.352 1.044-6.54.21-1.57.814-2.895 1.952-3.988.367-.352.867-.347 1.163.096.514.773.97 1.59 1.506 2.347.736 1.043 1.47 2.097 2.306 3.06zm3.07 11.797c.014.048-.095.176-.17.198-2.014.58-4.032 1.163-6.176.94-.802-.078-1.61-.137-2.41-.254-.133-.02-.338-.318-.317-.454.03-.186.224-.457.388-.49 2.16-.425 4.3-1.09 6.533-.84.664.074 1.303.4 1.95.625.09.035.17.17.2.274zM44.936 91.11c-.39 1.56-.796 3.12-1.266 4.658-.066.222-.55.48-.793.437-.254-.046-.584-.397-.642-.668-.123-.555-.087-1.147-.14-2.13.185-1.09.423-2.565.69-4.036.09-.494.493-.525 1.082-.196.773.432 1.306.988 1.07 1.936zm-1.06-10.28c-.618.87-.996.888-1.514.094-2.307-3.528-3.895-7.362-4.873-11.458-.16-.678.195-1.088.964-1.05.284.03.64.026.975.11 3.366.8 6.677.372 9.98-.406 1.01-.235 2.044-.384 3.072-.555.798-.13 1.323.227 1.618.968.128.32.33.617.446.943.174.482.044.922-.372 1.216-.664.47-1.336.928-2.032 1.338-2.338 1.38-4.245 3.218-5.835 5.4-.817 1.126-1.613 2.267-2.42 3.4zm2.568 1.807c-.07-1.032.843-1.536 1.314-2.276 1.254-1.95 2.848-3.61 4.67-5.027.4-.313.964-.413 1.466-.597 0-.034-.003-.07-.002-.105.055-.004.11-.003.166-.006l.26-.26c-.032.08-.045.198-.103.225-.046.022-.1.03-.157.034l-.087.085-.076.026c.003.31.07.655-.066.883-1.29 2.196-2.92 4.124-4.86 5.78-1.503 1.285-2.49 1.74-2.524 1.24zm4.5 11.566c-.51 1.93-.45 3.885-.24 5.84.05.446.26.977-.367 1.075-.416.06-.934-.056-1.3-.277-1.25-.75-1.477-1.967-1.45-3.333.25-1.47.48-2.946.764-4.416.175-.895.846-1.236 1.83-.85.353.137.662.574.822.948.122.282.03.69-.058 1.016zm6.518 1.45c-.467 1.438-.79 2.888-.783 4.418.003.426-.163.904-.4 1.263-.11.162-.713.235-.852.1-.31-.297-.593-.734-.658-1.15-.145-.91-.145-1.84-.206-2.763.02 0 .044-.004.06-.004 0-.58-.016-1.158.004-1.734.053-1.513.336-1.742 1.937-1.61 1.17.093 1.296.258.9 1.48zm-.14-5.792c-1.575-.385-3.166-.736-4.702-1.25-1.088-.366-2.165-.87-3.11-1.51-.618-.418-1.692-.76-1.574-1.62.066-.48 1.035-.82 1.568-1.26 3.36-2.76 6.406-5.753 7.606-10.145.178-.647.727-.848 1.362-.608.866.33 1.74.644 2.575 1.045.26.12.4.492.56.702-1.11 3.136-.767 6.298-.802 9.424-.02 1.737-.017 3.488.664 5.15.194.47-.264.92-.747.817-1.133-.24-2.272-.463-3.396-.74zm7.783 22.237c-.213 1.373-1.37 2.587-2.155 2.286-.747-.29-1.26-1.44-1.084-2.707.174-1.26.435-2.51.71-3.75.07-.32.318-.604.505-.888.237-.365.982-.336 1.183.018.704 1.244.95 2.592.917 4.18-.015.17-.024.52-.08.863zm-.18-11.685c-.04.513-.435.78-.918.86-.785.133-1.585.193-2.357.37-.494.118-.697-.21-.71-.474-.056-1.144-.023-2.29-.023-3.438h-.06c0-.23.017-.46 0-.69-.065-.795-.14-1.588-.212-2.38.96-.593 2.013-.206 3.02-.28.333-.027.72-.008.997.145.257.14.575.49.568.74-.055 1.716-.173 3.43-.306 5.143zm.77-12.415c-.013.17-.348.49-.39.466-.27-.14-.668-.324-.717-.56-.168-.786-.27-1.6-.286-2.405-.033-1.97-.022-3.942.01-5.91.013-.692.067-1.4.22-2.072.127-.555.42-1.072.658-1.594.04-.093.177-.157.283-.19.045-.016.16.077.183.145.075.218.165.444.168.666.016 1.853.007 3.705.007 5.56l.233.004c-.116 1.963-.222 3.928-.366 5.888zm.518-16.768c-.914.102-1.85.02-2.775.022-2.946.002-4.64-1.792-5.875-4.17-.25-.48-.21-1.12-.26-1.69-.076-.805.03-1.656-.193-2.414-.584-1.988.248-3.477 1.7-4.555 2.24-1.66 4.623-3.146 7.644-2.756 1.04.085 2.09.11 3.114.275 2.144.338 3.847 2.058 3.964 4.204.08 1.483-.147 2.99-.303 4.478-.046.446-.224.93-.49 1.29-1.31 1.76-2.704 3.475-4.58 4.673-.56.363-1.277.56-1.945.64zm-.62-34.406c.1-.18.415-.408.54-.363.293.11.665.31.77.57.618 1.504.974 3.038.705 4.704-.35 2.165-.637 4.33-1.71 6.285-.217.394-.513.75-.824 1.073-.074.08-.447.03-.524-.08-1.013-1.4-.86-3.054-.965-4.308-.183-3.08.67-5.55 2.01-7.883zm5.31 3.42c-.052-1.037-.13-2.075-.15-3.114-.004-.17.245-.343.433-.587 2.22 1.078 4.8.542 7.05 1.392 1.462.555 2.69 1.747 3.998 2.69.406.293.34.873-.063 1.197-.18.146-.376.276-.565.406-3.028 2.063-5.21 4.91-7.225 7.893-.44.65-.687 1.457-.91 2.224-.402 1.372-.392 1.4-1.827.832-.107-.045-.22-.07-.33-.107-3.004-1.006-3.23-.798-1.735-3.978 1.31-2.79 1.48-5.808 1.328-8.847zm5.127 29.002c-.988-.437-.978-.462-.525-1.536.134-.32.22-.683.425-.94.203-.247.53-.386.648-.466 1.41.305 2.645.576 3.883.834 3.21.672 6.404.764 9.61-.064 1.2-.31 1.708.258 1.424 1.533-.354 1.58-.8 3.136-1.12 4.722-.168.824-.482 1.524-1.052 2.137-1.978 2.11-1.693 2.95-3.966.264-2.51-2.972-5.795-4.926-9.326-6.485zM83.71 80.66c-.175.23-.583.375-.9.394-.983.06-1.842-.418-2.542-.996-1.156-.957-2.317-1.963-3.243-3.134-1.218-1.54-2.213-3.26-3.296-4.903-.064-.09-.104-.23-.084-.332.02-.1.133-.183.213-.286.186.063.404.09.56.2 1.9 1.326 3.825 2.634 5.683 4.02 1.493 1.11 2.9 2.34 3.662 4.112.112.264.102.717-.06.928zm-4.887-17.387c.004-.072.1-.2.16-.207 1.96-.128 3.92-.245 5.52-.34 2.1 0 3.834-.012 5.57.013.19.002.374.2.56.307-.174.14-.332.32-.534.4-1.303.516-2.65.84-4.06.82-1.97-.028-3.937-.03-5.904-.118-.416-.02-.82-.344-1.216-.556-.07-.043-.1-.21-.097-.32zm12.61-4.107c-1.156.037-2.318-.008-3.47.075-3.11.237-6.214.518-10.07.84-.805.04-.906-.026-1.508-1.575-.165-.43-.384-.858-.454-1.306-.04-.284.135-.61.245-.905.034-.092.156-.17.253-.227 3.8-2.293 7.04-5.243 10.005-8.517.57-.625.978-.614 1.342.02 1.597 2.815 3.368 5.546 4.2 8.725.146.555.274 1.118.366 1.685.1.645-.3 1.166-.903 1.183zm-6.92-14.476c-1.243 1.61-2.513 3.188-4.4 4.1-.063.03-.148.012-.234-.007-.01.02-.02.035-.028.053-.032.002-.056.015-.088.02-.016.382-.235.556-.587.585-.01.04-.023.077-.028.12-.074.027-.15.055-.22.09l-.13.213c.02-.064.024-.156.07-.187.016-.013.04-.016.06-.026l.12-.193c.047 0 .083-.01.126-.016.067-.32.245-.53.587-.582.003-.032.015-.056.013-.092.032.002.07.01.107.02.9-2.036 2.688-3.227 4.354-4.532.026-.02.18.075.228.147.05.076.09.23.048.29zm-15.425 29c.413-.207.837-.395 1.248-.612.49-.254.83-.198 1.126.33.68 1.217 1.394 2.412 2.127 3.598 1.42 2.29 3.103 4.34 5.336 5.904.764.537.71.942-.143 1.502-2.634 1.744-5.524 2.944-8.495 3.972-.48.168-.988-.157-.995-.635-.016-1.51-.005-3.02-.005-4.528.05-2.677-.035-5.337-.806-7.936-.335-1.133-.29-1.144.607-1.594zm33.435 24.192c.128.186.006.624-.12.885-.07.142-.388.18-.605.228-.102.025-.23-.016-.335-.06-1.88-.77-2.546-2.51-3.31-4.167-.022-.045.132-.17.205-.26.096.012.213-.013.29.033 1.506.865 2.866 1.913 3.875 3.34zm1.676-30.027c-.46 3.21-.71 6.48-2.196 9.465-.25.504-.448 1.11-.43 1.66.065 2.41-1.215 4.244-2.612 5.944-1.86 2.266-4.17 4.062-6.86 5.278-.923.42-2.037.437-2.923.902-.79.416-1.334 1.26-2.07 1.803-.647.48-1.397.835-2.13 1.187-.464.224-.89.075-1.18-.38-.243-.39-.462-.804-.75-1.164-.127-.162-.426-.344-.586-.3-.988.273-1.973.564-2.912.954-.215.09-.377.61-.35.913.048.57.316 1.115.362 1.683.02.285-.16.733-.39.862-.7.398-1.45.733-2.218.992-1.077.358-1.935.424-2.016-1.362-.023-.56-.216-1.126-.41-1.664-.166-.447-1.068-.895-1.455-.676-.373.21-.853.594-.896.953-.145 1.148-.104 2.318-.145 3.48-.032.96-.238 1.23-1.146 1.462-.56.143-1.13.272-1.708.334-.15.018-.464-.232-.47-.37-.077-1.74-.14-3.476-.13-5.22 0-.27.32-.707.58-.79 2.774-.86 5.113-2.823 8.097-3.14.324-.033.654-.23.935-.426 1.245-.843 2.456-1.74 3.71-2.567 2.336-1.547 4.504-3.275 6.448-5.312 1.607-1.677 3.238-3.38 5.1-4.747 1.83-1.338 2.37-3.058 2.416-5.1.044-1.978.002-3.953.01-5.93.01-2.33-.003-4.657.056-6.98.05-2.004-.112-3.972-.816-5.846-1.43-3.804-2.705-7.66-4.963-11.115-2.667-4.073-6.43-6.636-10.8-8.48-.427-.18-.923-.253-1.288-.515-2.127-1.517-4.575-1.483-7.01-1.538-1.86-.043-3.73 0-5.576-.174-1.788-.165-3.484.004-5.108.753-1.184.546-2.405.747-3.714.792-4.443.15-8.465 1.565-11.792 4.557-2.432 2.187-5.184 3.92-7.742 5.92-.533.42-1.096.89-1.426 1.466-.992 1.718-1.714 3.596-1.992 5.55-.505 3.56-1.29 7.117-.707 10.41 0 1.974.003 3.606-.003 5.238-.002.613-.215 1.13-.78 1.45-.084.05-.212.112-.284.08-.094-.043-.228-.188-.213-.26.123-.552.283-1.096.42-1.648.174-.706.217-1.406-.43-1.907-.527-.41-1.074-.276-1.61.06-.55.347-.542-.22-.59-.455-.2-.95.008-1.847.48-2.688.566-1.018 1.137-2.03 1.7-3.047.352-.636.277-1.067-.302-1.443-.455-.295-1.223-.26-1.263-.984-.058-1.045-.09-2.13.805-2.915.522-.458 1.113-.842 1.628-1.307.555-.5.613-1.27-.045-1.812-.612-.507-.975-.9-.646-1.722.39-.968.735-1.958 1.04-2.96 1.375-4.572 4.43-7.82 8.195-10.54 1.385-1 3.16-1.58 3.844-3.41.097-.262.525-.437.834-.576 3.19-1.378 6.235-3.1 9.575-4.1 1.774-.536 3.6-.908 5.412-1.292.43-.093.975-.067 1.355.122 1.475.732 3.064.514 4.45.16 2.977-.766 5.793-.2 8.6.528 1.262.33 2.45.613 3.756.442 1.697-.224 3.24.28 4.594 1.288 1.212.902 2.456 1.79 3.533 2.833 2.76 2.674 5.57 5.313 8.11 8.186 3.912 4.427 6.603 9.538 7.763 15.396.475 2.402.934 4.795.697 7.266-.055.568-.102 1.245.146 1.714.817 1.557.65 3.197.427 4.784zm12.25-4.71c-1.456 1.163-3.205 1.12-5.05 1.173-.34-.02-.81-.003-1.26-.082-.608-.107-1.205-.286-1.806-.432.555-.11 1.112-.197 1.662-.33 1.56-.385 3.106-.827 4.675-1.158.536-.113 1.126.006 1.69.045.1.01.285.13.278.176-.032.21-.05.5-.19.608zm-48.76-4.332c-3.015-1.03-6.872 1.006-7.807 4.072-.412 1.342-.11 2.592.774 3.563 2.244 2.46 6.86 2.283 8.434-1.21.37-.812.358-1.793.463-2.366-.07-.928-.1-1.504-.157-2.076-.102-1.06-.79-1.67-1.707-1.984zm-3.33 5.416c-.598-.13-.854-.866-.4-1.284.314-.29.71-.518 1.108-.688.395-.168.85.27.85.756 0 .937-.62 1.416-1.558 1.213z"/></svg>