<svg xmlns="http://www.w3.org/2000/svg" width="128" height="128" viewBox="0 0 128 128"><path d="M107.83 34.524c-.91-.313-1.866-.485-2.803-.702-2.816-.654-5.664-1.19-8.44-1.984-2.17-.622-4.287-1.293-6.59-1.084-.737.066-1.49-.18-2.24-.205-.964-.034-1.942-.083-2.892.04-1.502.196-2.6 1.117-3.11 2.49-.544 1.467.04 2.75 1.235 3.704.58.465 1.22.88 1.884 1.205 1.25.62 2.54 1.146 3.802 1.735.14.064.317.3.288.416-.04.187-.205.413-.376.483-.392.16-.82.235-1.23.352-6.088 1.75-12.053 3.836-17.71 6.702-7.59 3.843-14.7 8.437-21.158 13.977-4.32 3.707-8.306 7.755-11.556 12.483-4.79 6.963-8.11 14.598-10.485 22.665-.48 1.632-.66 3.353-.98 5.03l.193.03c0 .644-.073 1.298.02 1.928.106.734.244 1.497.56 2.156 1.014 2.074 3.576 2.372 5.022.585.384-.473.69-1.115.773-1.715.515-3.755 1.968-7.22 3.202-10.76 3.595-10.3 9.787-18.77 18.163-25.68 5.39-4.445 11.1-8.416 17.248-11.765 6.25-3.407 12.84-5.903 19.696-7.743.248-.066.594.085.84.23.088.05.066.406-.006.582-.453 1.086-.95 2.155-1.405 3.243-.457 1.086-.88 2.187-1.327 3.275-.27.653-.113 1.258.16 1.857.766 1.675 2.52 2.475 4.267 1.926.94-.294 1.71-.836 2.43-1.516 1.576-1.483 2.816-3.232 4.098-4.95.512-.684.977-1.444 1.62-1.98 3.068-2.565 5.494-5.718 8.115-8.694 1.042-1.18 1.486-2.588 1.532-4.136.06-2.03-.924-3.525-2.84-4.186zm-78.66 6.073c.515-.87 1.22-1.44 2.075-1.93.832-.48 1.584-1.095 2.38-1.644 1.03-.715 1.212-.675 2.06.39 1 1.256 1.975 2.534 3.023 3.75.553.64 1.178 1.258 1.877 1.727 1.617 1.09 4.096 1.073 5.46.064 2.585-1.907 3.574-5.7 2.294-8.643-.648-1.49-1.634-2.752-2.59-4.04-.35-.474-.224-1.076.256-1.385 2.52-1.617 5.042-3.226 7.558-4.843.36-.23.715-.472 1.047-.738 1.256-1.006 2.137-2.944 1.217-4.917-.533-1.14-1.2-2.34-2.12-3.168-1.83-1.65-3.94-2.41-6.47-1.295-2.38 1.047-4.602 2.26-6.39 4.18-.436.47-.903.918-1.364 1.362-.885.85-.994.823-1.764.005-1.54-1.632-3.09-3.264-4.684-4.846-1.032-1.03-2.315-1.523-3.8-1.472-.634.085-1.32.043-1.886.284-1.095.465-2.14.885-3.38.622-.35-.072-.83.197-1.173.427-1.19.79-1.91 2.696-1.328 3.968.66 1.45 1.467 2.852 2.362 4.173.896 1.325 1.98 2.525 2.98 3.78 1.934 2.422 1.92 2.41-.46 4.16-1.552 1.14-3.087 2.307-4.592 3.51-.577.464-1.12 1.006-1.556 1.603-.813 1.11-1.02 2.315-.296 3.595.473.836.845 1.73 1.32 2.565 1.328 2.338 4.597 2.59 6.325.746.587-.623 1.184-1.263 1.617-1.99zm62.15 53.86c-.112-1.85-.688-3.594-1.664-5.146-3.7-5.893-10.472-8.262-16.734-6.886-5.9 1.296-11.83 6.336-12.453 14.96-.266 3.647.723 6.993 2.473 10.136.992 1.778 2.09 3.52 3.68 4.826 1.678 1.376 3.563 2.7 5.826 2 1.91-.59 3.786-.526 5.697-.58 2.654-.075 5.003-.933 7.125-2.552 2.662-2.03 4.33-4.7 5.263-7.85.608-2.06.955-4.172.796-6.46 0-.735.044-1.595-.01-2.448zm-7.914 7.16c-1.064 3.228-3.605 5.21-6.984 4.975-.53-.036-1.07-.036-1.596-.11-2.546-.348-4.328-1.665-5.237-4.12-.604-1.62-.948-3.26-.82-5.005.362-4.98 5.474-8.656 10.3-7.377 3.2.848 5.13 3.61 5.21 7.264-.28 1.46-.41 2.97-.873 4.373z"/></svg>