<svg xmlns="http://www.w3.org/2000/svg" width="128" height="128" viewBox="0 0 128 128"><path d="M115.49 84.945c-.04-.418-.26-.828-.434-1.224-1.056-2.413-2.3-4.76-3.14-7.24-1.2-3.54-3.37-6.427-5.835-9.07-3.763-4.04-8.195-7.277-12.955-10.096C85.71 52.924 77.717 49.88 69.655 47c-1.847-.657-3.826-.956-5.75-1.38-.637-.142-1.296-.17-1.945-.25-.038-.916.925-.994 1.326-1.565 1.106-1.572.953-3.22-.542-4.356-.96-.727-2.066-.733-3.147-.416-.84.245-1.603.832-2.446.96-3.036.448-5.51 2.1-8.076 3.568-1.048.6-2.07 1.248-3.115 1.856-3.308 1.92-3.31 1.916-5.158 5.204-.867 1.547-.73 2.862.45 4.235 1.023 1.192 2.324 1.99 3.76 2.595 1.423.597 2.72 1.363 3.926 2.365 1.685 1.402 3.54 2.596 5.288 3.925.99.754 2.105 1.19 3.275 1.483 1.553.39 3.736-1.09 3.936-2.68.155-1.207.147-2.45-.576-3.505-1.043-1.53-1.908-3.2-3.412-4.378-.117-.09-.192-.408-.12-.528.093-.16.356-.34.528-.323 4.046.44 7.99 1.33 11.85 2.638 4.596 1.554 8.886 3.785 13.26 5.827 6.246 2.923 11.666 6.997 16.286 12.133 3.174 3.524 6.06 7.25 8.267 11.472 2.29 4.376 4.737 8.675 6.615 13.255.203.5.31 1.04.463 1.562.29-.56.73-1.09.84-1.684.367-1.935.61-3.89.83-5.357-.285-3.247-.51-5.985-.78-8.716zM38.398 57.572c-3.627-1.924-7.375-3.467-11.637-2.272-.413.114-.866.124-1.304.134-1.682.05-3.204.667-4.757 1.227-2.803 1.02-4.52 2.99-5.48 5.747-.987 2.84-1.51 5.745-1.31 8.742.156 2.3.403 4.596.72 6.88.1.727.433 1.5.88 2.08.66.86 1.448 1.67 2.315 2.33 4.228 3.207 9.065 4.315 14.287 3.89 2.143-.17 3.993-.99 5.548-2.566 1.728-1.756 3.1-3.707 3.936-6.02.98-2.71 1.564-5.49 1.51-8.366.183-3.543-.716-6.782-2.692-9.692-.544-.798-1.195-1.678-2.016-2.112zm-2.872 18.656c-.083.448-.693.81-1.09 1.184-1.825 1.71-3.94 2.283-6.37 1.606-.42-.117-.86-.363-1.266-.32-1.934.21-3.012-1.07-4.146-2.267-.965-1.022-1.013-1.19-1.005-2.646-.03-1.008.036-2.02.745-2.8 2.428-2.666 4.825-5.367 8.09-7.095.718-.38 1.417-.55 2.205-.45.705.09 1.316.415 1.54 1.076.736 2.173 1.47 4.358 2.07 6.577.48 1.777-.455 3.43-.774 5.134zm45.69 3.547c-.626-.195-1.27-.363-1.918-.43-.42-.043-1.027-.047-1.26.2-.974 1.046-2.343 1.577-3.214 2.78-1.75 2.416-3.915 4.44-6.364 6.16-.708.494-1.356.635-2.102.108-1.254-.893-2.542-1.732-3.79-2.635-1.533-1.104-3.173-1.97-5.006-2.44-.315-.083-.655-.187-.965-.144-2.014.29-3.368 2.56-2.688 4.483.595 1.68 1.464 3.184 2.835 4.373 1.08.936 2.12 1.914 3.153 2.9.45.428.484 1.048.063 1.47-.775.776-1.585 1.516-2.406 2.245-1.608 1.427-2.73 3.14-3.165 5.275-.158.787.023 1.16.725 1.66.655.47 1.328.705 2.152.63 1.133-.105 2.146-.435 3.02-1.178 1.586-1.35 3.173-2.695 4.77-4.035.42-.35.874-.66 1.324-.97.39-.266.803-.317 1.21-.014 1.056.79 2.11 1.584 3.173 2.365 1.788 1.312 3.64 2.363 5.95 2.624 1.706.194 2.74-.58 3.63-1.74.86-1.123 1.063-2.4.293-3.703-.718-1.218-1.368-2.41-2.752-3.138-1.14-.597-2.06-1.632-3.068-2.48-.864-.72-.957-1.11-.26-1.902 1.74-1.983 3.458-3.994 5.32-5.858 1.387-1.393 2.315-2.917 2.396-4.347.192-1.4-.17-1.995-1.06-2.268zm-4.34-52.665c1.4 1.37 2.69 2.89 4.694 3.5.714.214 1.362.71 1.978 1.166 2.066 1.525 2.155 1.77.435 3.467-.467.463-.974.91-1.34 1.45-.67.995-1.346 2.01-1.83 3.102-.24.538-.295 1.387-.033 1.885 1.415 2.677 3.726 2.87 5.973 1.045.834-.683 1.456-1.632 2.146-2.48.83-1.02 1.617-2.07 2.445-3.092.367-.45.823-.693 1.436-.443.406.164.87.215 1.244.43 2.757 1.59 5.935 2.254 8.648 3.963 1.106.7 2.357 1.182 3.723 1.165 1.463.028 2.458-.7 3.344-2.237.72-1.25.41-2.36-.353-3.36-.517-.68-1.192-1.297-1.912-1.763-2.027-1.3-4.075-2.57-6.395-3.347-1.13-.38-2.175-1.027-3.22-1.62-.708-.398-.885-.962-.463-1.66.877-1.443 1.22-3.045 1.522-4.66.29-1.57-.637-2.475-2.317-2.347-1.22.096-2.293.604-3.083 1.667-.646.875-1.423 1.664-2.19 2.446-.584.597-1.282.79-2.08.343-1.72-.96-3.534-1.79-5.165-2.893-2.11-1.42-4.38-1.26-6.658-.945-1.515.207-2.334 1.88-1.744 3.28.294.694.666 1.42 1.192 1.937z"/></svg>