<svg xmlns="http://www.w3.org/2000/svg" width="128" height="128" viewBox="0 0 128 128"><path d="M109.53 24.917c0-1.826-.065-3.652-.148-5.476-.028-.595-.16-1.2-.33-1.776-.244-.83-.797-1.47-1.654-1.625-2.178-.396-4.267-1.2-6.528-1.22-3.944-.03-7.872-.027-11.827-.457-4.623-.5-9.318-.346-13.98.043-4.194.35-10.328.7-15.125-.157-.2-.037-.405-.033-.608-.04-4.252-.14-8.506-.305-12.76-.403-1.003-.024-2.012.164-3.02.256-.575.05-.936-.24-1.004-.86-.045-.4-.05-.81-.06-1.213-.02-1.114-.632-1.572-1.817-1.467-.304.027-.63.043-.893.17-1.632.8-3.325 1.487-4.747 2.682-2.79 2.35-5.62 4.65-8.835 6.425-.998.55-1.756 1.355-2.404 2.283-.475.69-.72 1.413-.75 2.264-.16 4.454-.384 8.907-.546 13.362-.317 8.713-.062 17.434-.542 26.153-.362 6.576-.223 13.18-.292 19.776-.048 4.554.1 9.1-.354 13.663-.48 4.832-.363 9.722-.69 14.574-.135 2.02.627 3.3 2.254 4.235.43.245.913.407 1.384.573 1.572.56 3.23.624 4.808.29 1.618-.34 3.216-.312 4.832-.34 3.246-.06 6.512.073 9.728-.256 2.837-.29 5.66-.35 8.496-.37 1.725-.015 3.45.027 5.173-.01 3.043-.067 6.105.02 9.12-.305 5.777-.62 11.55-.484 17.318-.186 2.424.124 4.85.293 7.275.39 1.216.05 2.46-.013 3.643.213 2.715.516 5.454.39 8.184.506 1.226.052 2.4-.134 3.577-.534 1.862-.632 2.146-.946 2.344-2.987.12-1.206.35-2.4.5-3.606.1-.802.198-1.61.2-2.42.023-5.677.023-11.356.025-17.036.002-8.724 0-17.446 0-26.17h.064c0-12.983.007-25.967-.004-38.953zM30.214 23.17c1.585-.863 3.234-1.6 4.648-2.77.737-.612 1.368-1.47 2.47-1.517.12.89.234 1.78.37 2.667.14.893.32 1.777.443 2.67.067.496.05 1.002.103 2.18 0-.374.004-.07 0 .228-.01.66-.357.98-.91.8-.762-.247-1.51-.537-2.267-.803-1.61-.567-3.227-1.103-4.816-1.717-.506-.195-1.195-.05-1.488-.704.482-.35.93-.753 1.446-1.035zm74.94 29.68c-.063 2.635-.304 5.264-.34 7.895-.05 3.545-.288 7.096.192 10.638.134 1 .143 2.027.14 3.04-.01 6.396-.013 12.79-.074 19.185-.022 2.53-.25 5.06-.276 7.59-.017 2.024.192 4.05.187 6.074-.002 1.21-.202 2.418-.347 3.622-.055.454-.4.704-.846.71-.91.014-1.837.084-2.73-.04-1.804-.253-3.587-.626-5.38-.937-.4-.07-.806-.14-1.208-.14-2.237-.017-4.442-.324-6.66-.545-3.93-.386-7.877-.668-11.824-.775-3.954-.107-7.917.038-11.875.1-5.682.082-11.304.752-16.91 1.652-2.294.366-4.63.49-6.95.713-.808.077-1.65-.006-2.42.197-2.408.636-4.848.345-7.275.345-.795 0-1.596-.238-2.386-.405-1.292-.277-1.34-.296-1.385-1.557-.087-2.435-.15-4.87-.17-7.307-.026-3.45-.004-6.9-.004-10.35h.1c0-.61.004-1.22 0-1.828-.015-8.218.295-16.43.46-24.644.17-8.625.026-17.26-.048-25.885-.02-2.637-.272-5.265-.403-7.895-.027-.507-.01-1.015.015-1.52.02-.403.437-.734.85-.652 2.783.54 5.57 1.056 8.074 2.534.95.56 2.037.883 3.058 1.323.864.37 1.632.118 2.226-.492.497-.512.976-.994 1.608-1.346.99-.555 1.372-1.488 1.3-2.57-.11-1.615-.284-3.222-.45-4.83-.054-.502-.24-.993-.26-1.49-.11-2.83-.395-2.855 2.69-2.822 3.855.043 7.713.083 11.535-.563.497-.082 1.013-.073 1.52-.068 5.08.046 10.12-.57 15.172-.935 3.447-.25 6.885-.31 10.332-.347 2.025-.022 4.043-.05 6.055.404 1.073.24 2.222.164 3.34.175 2.332.02 4.668.025 7.002 0 .932-.015 1.83.067 2.637.56.235.145.508.42.54.66.24 1.91.545 3.824.61 5.744.3 8.923.803 17.84.582 26.774zm-24.018 6.39c-.953-1.082-2.103-1.875-3.403-2.502-.933-.448-1.18-1.186-.917-2.315.18-.753.818-.773 1.44-.81.504-.033 1.01-.086 1.5-.198.998-.23 1.57-.88 1.67-1.906.06-.606.048-1.218.118-1.82.055-.47.402-.66.85-.65.2.002.398.07.597.09 2.097.23 2.8-.247 3.237-2.192.263-1.18.523-2.358.784-3.537.044-.193.076-.39.13-.583.02-.065.097-.108.15-.16.035.095.1.186.107.282.043.91.05 1.823.117 2.73.046.61.6 1.163 1.155 1.25.506.076 1.166-.38 1.4-.967.074-.19.19-.38.197-.573.06-1.715.163-3.43.112-5.144-.028-.886-1.18-1.526-2.033-1.356-2.078.416-4.186.688-6.267 1.088-.465.09-.918.405-1.298.715-.552.448-.39 1.508.254 1.806.358.164.757.26 1.144.334.395.077.808.058 1.195.156.14.035.34.303.32.43-.117.693-.253 1.395-.49 2.056-.07.2-.468.363-.733.39-.5.05-1.01-.02-1.518-.02-1.05 0-1.74.556-2.037 1.51-.24.766-.33 1.58-.474 2.368-.11.573-.448.873-1.022.92-.3.024-.606.04-.91.074-1.176.128-1.787.805-1.95 1.967-.122.884-.32 1.762-.48 2.644-.953.554-1.975.173-2.966.21-1.01.034-2.027.014-3.04-.013-5.6-.136-10.507 1.835-15.045 4.92-.335.228-.69.448-.967.734-.573.59-1.01 1.28-1.107 2.117-.07.624.056 1.212.59 1.635.522.42 1.115.518 1.698.21.625-.33 1.195-.763 1.803-1.122 1.392-.82 2.747-1.728 4.2-2.425 5.03-2.404 10.31-2.756 15.715-1.657 1.434.29 2.633 1.024 3.52 2.224.42.565.463 1.202-.02 1.643-.595.544-1.205 1.096-1.892 1.506-6.06 3.617-12.538 5.607-19.682 5.04-2.07-.165-3.968-.754-5.742-1.79-.88-.517-1.728-1.083-2.022-2.156-.275-1.008.37-1.723.784-2.523.107-.207.107-.623-.03-.764-.178-.18-.544-.264-.82-.252-1.334.06-2.424.648-2.788 1.954-.42 1.5-.352 3.012.79 4.29 1.948 2.187 4.324 3.605 7.2 4.235 1.994.436 3.997.637 6.024.55 2.144.09 4.25-.07 6.338-.573 4.98-1.2 9.632-3.122 13.765-6.172 2.843-2.097 3.093-5.246.747-7.91zm-7.467 40.6c.007-1.52-.046-3.04-.095-4.558-.032-1.037-.605-1.72-1.563-2.014-.664-.203-1.37-.29-2.066-.37-.89-.106-1.792-.15-2.688-.222-.277-1.06.448-1.854.738-2.763.122-.384.344-.74.442-1.13.117-.485.192-.99.22-1.49.03-.624-.42-1.138-1.078-1.254-.294-.053-.606.004-.907-.025-.717-.073-.897-.245-.912-.892-.046-1.924-.07-3.85-.133-5.774-.017-.497-.058-1.03-.256-1.473-.14-.32-.54-.69-.852-.718-.302-.028-.798.285-.928.573-.237.535-.326 1.156-.373 1.75-.217 2.725-.392 5.45-.597 8.175-.014.188-.093.42-.224.534-.075.064-.357-.025-.486-.124-.32-.245-.587-.565-.913-.797-.76-.532-1.538-.385-2.1.385-.31.422-.442.88-.228 1.42.347.874.86 1.578 1.692 2.068.604.36 1.165.808 1.692 1.276.19.17.252.507.304.78.01.046-.33.2-.52.236-1.092.194-2.194.34-3.28.56-.63.125-1.185.53-1.324 1.136-.267 1.175-.512 2.384-.523 3.58-.005 1.308.233 2.62.43 3.92.056.365.264.842.55 1.012.88.514 1.64 1.1 2.25 1.94.247.338.896.502 1.37.524 1.314.068 2.633.025 3.95.025v-.01c.91 0 1.835.068 2.735-.017 1.71-.163 3.424-.34 5.112-.655 1.36-.252 2.082-1.695 1.323-2.777-.644-.915-.76-1.81-.758-2.837zm-7.117 2.266c-.604.007-1.205.11-1.81.17l.008.08c-.703.073-1.413.237-2.11.195-.77-.04-1.64.85-2.223.023-.355-.507-.334-1.37-.277-2.055.09-1.086-.982-2.073-.23-3.187 1.096-.072 2.19-.17 3.288-.215 1.722-.077 3.445-.15 5.167-.163 1.314-.01 1.533.217 1.51 1.644-.058 3.584.704 3.456-3.324 3.514zm-23.045-34.86c-1.26-.343-2.565-.503-3.333-.647-1.152.05-1.762.05-2.366.115-.777.083-1.334.605-1.48 1.31-.155.746.12 1.315.86 1.738.43.248.88.465 1.317.693-.24.69-.952.6-1.43.736-1.454.416-2.956.66-4.43.996-1.352.305-1.85.94-1.835 2.356.03 2.947.475 5.845 1.11 8.715.262 1.184.538 2.365.78 3.552.17.843.07 1.59-.722 2.144-2.168 1.515-2.165 5.58-.848 7.516.335.49.736.994 1.22 1.317 2.556 1.71 4.966 1.176 6.99-.517 1.937-1.62 2.517-5.158 1.318-7.246-.704-1.22-1.705-1.98-3.125-2.138-.544-.063-.957-.283-1.118-.848-.78-2.722-1.617-5.427-2.328-8.165-.77-2.976-.716-2.97 2.314-3.708 1.175-.287 2.32-.69 3.484-1.036.384-.112.594.126.58.453-.02.397-.212.79-.216 1.184-.014.93.557 1.665 1.312 1.793.736.122 1.408-.162 1.72-.936.796-1.968 1.596-3.938 2.236-5.958.55-1.73-.18-2.917-2.013-3.42zM35.342 91.2c.91-.192 1.93-.358 2.533.47.65.892.384 1.925-.17 2.85-.378.628-.876 1.098-1.612 1.284-.996.252-1.867-.224-2.09-1.2-.113-.49-.158-.995-.193-1.23-.02-1.355.437-1.95 1.53-2.176zm53.902.075c-.667-.352-.853-.642-.632-1.376.258-.87.373-1.786.484-2.69.382-3.04.307-6.07-.412-9.053-.774-3.213-2.784-5.58-5.41-7.46-.476-.344-1.094-.512-1.67-.69-.63-.19-1.507.206-1.837.758-.336.562-.286 1.54.183 1.99.585.554 1.24 1.04 1.845 1.575 2.168 1.925 3.227 4.364 3.303 7.24.018.71.002 1.42.002 2.128l.048.003c-.048 1.01-.088 2.023-.162 3.03-.007.11-.213.225-.352.29-.055.028-.203-.05-.253-.12-.175-.245-.303-.523-.492-.755-.943-1.15-2.33-.944-2.82.42-.134.377-.22.78-.287 1.176-.367 2.194-.716 4.388-1.087 6.58-.168.997-.405 1.98-.552 2.978-.14.97.66 2.077 1.577 2.29 1.792.41 3.312.287 4.713-1.128 1.057-1.068 2.39-1.862 3.604-2.776.162-.123.338-.224.5-.347 2.038-1.555 1.97-2.876-.29-4.068zM54.2 39.723c1.97.845 4.05 1.252 5.59 1.22 5.098.05 8.84-1.86 12.258-4.51 1.528-1.183 1.827-3.183.984-4.956-.54-1.134-1.37-2.008-2.47-2.59-1.557-.82-3.26-1.22-4.98-1.017-2.407.284-4.783.828-7.07 1.647-.645.23-1.345.597-1.76 1.11-.65.812-1.492 1.348-2.233 2.023-.738.672-1.404 1.476-1.904 2.336-1.14 1.958-.496 3.846 1.582 4.734zm1.564-3.776c.622-.644 1.193-1.45 1.963-1.82 2.914-1.4 5.97-2.373 9.267-2.292.83.02 1.582.18 2.23.757.543.484.647 1.11.11 1.525-.716.547-1.456 1.077-2.235 1.532-2.125 1.24-4.37 2.062-6.477 1.803-1.822-.06-3.243.05-4.565-.61-.488-.246-.646-.537-.296-.897zM38.54 50.805c1.145.51 2.33.58 3.554.573.926-.005 2.47 1.248 2.725 2.12.047.173.006.4-.064.574-.15.37-.413.704-.515 1.084-.204.764.097 1.46.805 1.764 1.3.557 2.613 1.085 3.944 1.557.756.272 1.716-.187 2-.955.274-.747.42-1.54.55-2.035-.06-.82-.06-1.327-.144-1.82-.117-.718-.853-1.225-1.574-1.097-.288.053-.576.18-.837.324-.423.233-.773.156-1.073-.188-.66-.763-1.296-1.552-1.98-2.295-.462-.506-.596-1.052-.32-1.662.438-.955.526-1.96.41-2.973-.16-1.385-.79-2.478-2.134-3.08-3.633-1.62-7.695 1.664-7.44 5.03.11 1.418.73 2.477 2.09 3.08zm1.684-4.397c.358-.338.787-.634 1.233-.843 1.04-.482 1.74.08 1.655 1.29-.068 1.02-.414 1.466-1.362 1.76-.62.196-1.317-.02-1.604-.49-.275-.46-.286-1.374.08-1.717zm24.878 1.562c-.544.18-.715-.068-.773-.515-.156-1.2-.27-2.403-.447-3.597-.056-.384-.18-.82-.427-1.1-.23-.263-.653-.443-1.01-.477-.225-.02-.596.233-.703.458-.21.437-.367.94-.388 1.42-.064 1.41-.038 2.823-.066 4.236-.017.795-.19.894-.805.52-.427-.256-.838-.55-1.288-.757-.53-.245-1.14-.016-1.585.52-.425.512-.48 1.138-.06 1.658.757.94 1.5 1.905 2.354 2.752 1.645 1.63 3.744 1.52 5.28-.272.786-.912 1.46-1.928 2.123-2.935.202-.31.206-.755.335-1.28-.365-.302-.686-.758-1.09-.854-.445-.107-.985.068-1.452.224zM97.416 35c-.42-.3-.51-.588-.228-.978.527-.734 1.125-1.423 1.587-2.194.168-.28.163-.817-.002-1.096-.168-.288-.608-.483-.966-.58-.254-.065-.608.036-.853.175-.346.195-.66.466-.934.752-.558.574-.975 1.423-1.646 1.715-.82.363-1.257-.85-2.048-1.03-.096-.02-.187-.074-.28-.112-.545-.233-.976-.02-1.345.367-.37.393-.58.87-.254 1.36.44.66.943 1.288 1.445 1.905.29.354.31.668.113 1.083-.382.81-.96 1.564-.815 2.543.08.533.352.917.832 1.178.53.288 1.04.14 1.378-.224.54-.584.962-1.277 1.45-1.914.118-.157.295-.265.447-.393.192.05.397.068.573.15.544.257 1.058.59 1.62.787.51.178.993-.032 1.356-.437.395-.442.5-1.27.13-1.675-.464-.514-.992-.984-1.557-1.387z"/></svg>