<svg xmlns="http://www.w3.org/2000/svg" width="128" height="128" viewBox="0 0 128 128"><path d="M120.235 67.805c-1.15-4.75-3.378-8.917-6.69-12.48-.69-.74-1.646-1.303-2.572-1.755-2.155-1.05-4.453-1.31-6.82-.894-.8.143-1.592.34-2.4.46-.778.11-1.405-.313-1.47-1.12-.236-2.91-.995-5.723-1.558-8.573-.02-.115-.02-.233-.028-.35-.163-2.583-.925-5.037-1.766-7.45-1.2-3.457-3.003-6.572-5.754-9.053-1.123-1.01-2.32-1.945-3.44-2.958-4.036-3.648-9.056-5.152-14.13-6.532-.66-.18-1.39-.106-2.088-.112-6.092-.058-12.054.81-17.946 2.328-6.417 1.653-11.686 5.106-16.11 9.956-.625.687-1.198 1.43-1.725 2.197-4.23 6.146-6.468 13.12-8.34 20.233-.326 1.233-.424 2.52-.7 3.773-.222.995-.455 1.173-1.473.92-3.247-.806-5.958.26-8.422 2.27-.544.446-1.008.987-1.57 1.398-1.757 1.28-3.06 2.82-3.424 5.06-.13.79-.514 1.543-.837 2.292-1.604 3.716-2.146 7.597-1.812 11.616.29 3.5.878 6.926 2.413 10.13.655 1.365 1.245 2.76 1.9 4.123 1.1 2.296 2.75 4.053 5.163 4.97 2.088.792 4.272 1.24 6.502.912 1.367-.2 2.714-.632 4.03-1.077 1.275-.434 2.1-1.37 2.594-2.655.755-1.977 1.255-3.974 1.233-6.12-.064-5.95-.01-11.898-.064-17.845-.02-2.325-.08-4.644-.543-6.957-.245-1.23-.09-2.555-.002-3.83.128-1.855.323-3.71.547-5.556.334-2.767.604-5.55 1.102-8.288.786-4.338 3.008-8.07 5.454-11.626 1.588-2.312 3.65-4.136 6.33-5.33 4.5-1.998 9.076-3.537 13.99-4.148 2.518-.31 5.063-.565 7.5-1.534 1.104-.437 2.605-.398 3.773-.06 4.916 1.43 9.78 2.937 13.65 6.668 2.73 2.63 4.945 5.572 6.646 8.9 1.056 2.06 1.98 4.228 2.293 6.57.512 3.802.924 7.623 1.53 11.413.428 2.656.59 5.323.73 7.998.054 1.044.228 2.08.315 3.124.115 1.39.25 2.784.26 4.18 0 .377-.317.937-.646 1.11-1.75.928-3.54 1.778-5.35 2.592-.182.085-.594-.175-.805-.376-.133-.13-.114-.438-.128-.67-.25-4.532-.587-9.052-1.312-13.54-.085-.545.038-1.16.197-1.703.997-3.416 1.114-6.83.496-10.355-.655-3.736-1.836-7.24-3.884-10.392-.936-1.438-2.226-2.702-3.54-3.825-1.41-1.203-3.012-2.193-4.588-3.19-.88-.554-1.867-.94-2.816-1.38-.992-.46-2.123-.612-3.08-.26-2.2.814-4.33.452-6.53.126-1.36-.2-2.785-.026-4.177.04-.928.047-1.85.22-2.778.304-2.464.23-4.81.867-6.983 2.064-1.84 1.007-3.686 2.008-5.455 3.13-2.194 1.392-4.046 3.14-5.135 5.58-.282.63-.637 1.26-1.086 1.774-2.24 2.593-2.614 5.563-2.1 8.836.63 4.02 1.24 8.045.825 12.158-.362 3.587-.527 7.196-.78 10.795.05 0 .096.007.15.014 0 1.978-.033 3.964.003 5.947.096 5.31 1.675 10.303 3.36 15.265.11.33.282.644.47.94 1.874 2.954 3.882 5.81 6.277 8.383.74.79 1.565 1.34 2.63 1.61 1.575.397 3.16.812 4.677 1.386 2.547.96 5.164 1.296 7.865 1.368 2.63.07 5.085-.35 7.396-1.644 2.844-1.59 5.752-3.06 8.58-4.675 2.452-1.402 4.534-3.26 6.095-5.652.7-1.074 1.357-2.19 2.157-3.19 1.355-1.69 2.03-3.612 2.307-5.735.16-1.266.428-2.517.72-3.765.1-.424.313-1.003.64-1.155 1.998-.936 4.034-1.79 6.084-2.6.16-.064.69.326.74.57.144.672.144 1.38.164 2.074.046 1.514-.028 3.04.126 4.543.216 2.162 1.36 3.696 3.52 4.293.893.248 1.82.418 2.74.504 2.452.24 4.882-.01 7.3-.46 1.18-.215 2.213-.7 3.093-1.51 1.29-1.188 2.574-2.418 3.32-4.024 1.173-2.517 2.243-5.088 3.312-7.656.22-.525.307-1.126.348-1.704.27-3.737.192-7.448-.697-11.118zm-94.32 26.333c-.532.17-1.13.19-1.697.2-.128.004-.37-.316-.375-.49-.01-.335.07-.69.192-1.008.377-.973.808-1.928 1.18-2.907.163-.43.26-.896.33-1.355.084-.565-.46-1.54-.937-1.762-.544-.254-1.523-.105-1.938.405-.877 1.08-1.696 2.208-2.545 3.313-.208.274-.397.25-.533-.062-.043-.104-.117-.22-.096-.315.064-.336.1-.693.26-.984.607-1.124 1.28-2.22 1.884-3.344.658-1.232 1.312-2.466 1.872-3.742.162-.373.035-.9-.058-1.335-.08-.385-.875-.7-1.137-.477-1.246 1.04-2.464 2.118-3.725 3.136-.296.24-.693.35-1.06.505-.01.038-.02.08-.035.117-.032.012-.053.028-.08.04.032.502-.128.914-.555 1.193-.006.064-.013.128-.023.192-.087.03-.173.058-.25.107-.047.026-.077.082-.115.13l.265-.34c.05-.023.08-.06.123-.088.043-.464.03-.954.555-1.192 0-.037.004-.072 0-.11.038-.02.078-.033.117-.05.152-.498.247-1.034.512-1.468 1.135-1.867 2.34-3.694 3.5-5.552.49-.78 1.023-1.555 1.34-2.406.174-.47.09-1.163-.146-1.62-.307-.6-.913-.48-1.49-.2-.278.13-.63.1-.958.13.004.018 0 .03.003.046-.02-.002-.032.005-.05.005-.02.41-.268.564-.62.604-.003.04-.014.075-.015.117-.08.027-.16.048-.233.08l-.133.19c.03-.06.043-.145.09-.174.012-.007.03-.008.044-.015l.128-.185c.043-.002.078-.01.117-.016.036-.364.21-.598.624-.605 0-.018.01-.028.01-.048l.036-.004c-.14-.634.267-1.045.61-1.493.85-1.107 1.72-2.198 2.528-3.33.35-.492.414-1.097.08-1.648-.37-.603-1.523-1.144-2.128-.893-.85.35-1.676.792-2.444 1.3-.768.503-1.45 1.14-2.183 1.703-.05.04-.206-.01-.277-.064-.087-.068-.216-.204-.196-.268.82-2.403 2.28-4.356 4.53-5.53 1.5-.78 3.19-.58 4.728.07.46.193.894.796 1.045 1.298.292.993.46 2.038.533 3.075.122 1.74.096 3.49.192 5.234.128 2.434.357 4.867.463 7.305.09 2.09.084 4.19.084 6.283-.002 1.735-.22 3.45.07 5.2.306 1.87-.21 2.518-2.008 3.094zm49.588-51.915c.12-.286.347-.704.576-.736 1.657-.243 2.876.544 3.843 1.805.124.163.126.42.136.46-.18.95-.33 1.738-.488 2.525-.02.103-.115.197-.178.29-.11-.163-.273-.32-.323-.503-.27-.995-.443-2.025-.8-2.987-.13-.352-.64-.66-1.04-.78-.224-.063-.567.33-.875.475-.233.112-.437.71-.75.102-.098-.19-.177-.478-.102-.653zm-4.164-3.15c.08-.134.305-.2.48-.246.06-.016.2.128.235.22.075.203.19.448.14.634-.182.666.23 1.52-.618 1.97l-.42-1.7c.082-.45.07-.7.18-.874zM57.05 46.688c.06.093.15.186.17.288.037.218.037.446.052.67-.064.09-.126.18-.19.267-.107-.146-.31-.302-.3-.444.026-.27.172-.52.268-.783zm-9.163-3.034c.005-.178.244-.365.4-.52.243-.245.38-.16.51.15.26.623.816 1.223.82 1.832.007 2.197.2 4.355.735 6.49.056.227-.22.72-.433.78-.254.076-.78-.1-.88-.314-.34-.715-.65-1.474-.78-2.25-.166-1.017-.148-2.062-.21-3.097l-.18-.002c0-1.024-.022-2.048.016-3.07zm36.273 28.73c-.476 1.634-.285 3.472-.313 5.218-.022 1.467-.643 2.394-2.036 2.9-1.75.634-3.43 1.354-5.34 1.548-1.713.174-3.444.647-5.044 1.3-1.378.56-2.443.468-3.513-.476-.174-.153-.376-.28-.576-.398-4.03-2.44-9.615-.796-11.565 3.465-1.056 2.31-.743 4.6.667 6.645 1.286 1.862 3.188 3.075 5.234 3.95 1.824.774 5.636 0 7.008-1.978.93-1.347 1.852-2.675 2.022-4.39.032-.332.594-.857.926-.867 2.71-.097 5.257-.948 7.86-1.548 1.008-.233 2.077-.25 3.122-.274.2-.003.424.427.608.68.053.075.035.24-.008.338-1.55 3.526-3.28 6.88-6.313 9.477-3.364 2.88-7.23 4.595-11.392 5.862-1.736.53-3.453.41-5.195.315-.23-.01-.477-.036-.683-.134-1.893-.875-3.798-1.72-5.658-2.66-1.833-.935-3.025-2.53-4.038-4.26-3.04-5.184-4.94-10.773-5.87-16.698-.09-.574-.153-1.16-.143-1.742.077-4.672-.556-9.29-1.083-13.914-.04-.35-.05-.7-.05-1.048-.007-3.465-.495-3.31 3.042-4.226 6.196-1.606 11.693-4.587 16.4-8.947 1.107-1.022 2.04-2.23 3.08-3.33.37-.39.862-.386 1.225-.01.565.586 1.058 1.24 1.59 1.857 3.702 4.288 8.458 6.434 14.036 6.9.35.03.7 0 1.048.04.656.08 1.032.513 1.15 1.128.13.683.224 1.382.267 2.074.1 1.63.16 3.263.23 4.765-.07 2.91.116 5.677-.69 8.44zm29.782 11.01c-.42 1.58-1 3.105-2.334 4.193-.377.307-.756.46-1.245.178-1.04-.6-1.967-.49-2.805.437-.426.472-1.008.533-1.584.206-.376-.218-.95-.38-.587-.98.894-1.494 1.847-2.952 2.75-4.438.61-.996 1.15-2.018 1.02-3.26-.083-.814-.86-1.54-1.675-1.38-.82.16-1.624.41-2.432.634l-.088.14c-.043.025-.064.06-.102.087.005.47-.12.89-.527 1.18-.003.063-.01.127-.01.193-.103.002-.187.02-.264.05l-.4.378c-.035.083-.065.175-.087.273-.045.032-.092.06-.14.09-.052.268-.1.54-.218.774-.064.128-.35.15-.533.218.027-.174-.005-.41.094-.507.19-.19.428-.334.657-.485.013-.062.025-.125.04-.186l.186-.176c.083-.18.21-.31.4-.377l.16-.153c.047-.027.072-.063.112-.09.025-.46.13-.883.528-1.18 0-.058.007-.113.003-.173l.19-.053c.58-.92 1.156-1.845 1.748-2.757.813-1.254 1.64-2.496 2.458-3.75.67-1.026.35-2.39-1.275-2.975-.484-.176-1.035-.174-1.56-.235l-.044.075c-.073.034-.148.066-.214.11l-.117.185c.026-.058.035-.13.077-.165.01-.01.027-.014.04-.02l.124-.2c.044.007.09.01.133.015.623-1.062 1.25-2.13 1.87-3.194.292-.498.612-.99.854-1.515.453-.98-.462-2.268-1.55-2.112-.668.094-1.383.295-1.935.66-.86.574-1.585 1.35-2.4 1.996-.238.19-.585.24-.88.35-.1-.328-.235-.646-.29-.984-.196-1.11.068-2.03.99-2.79.616-.51 1.12-1.167 1.615-1.808.452-.584.117-1.74 1.275-1.816 1.283-.09 2.57-.142 3.635.79 1.058.932 2.008 1.935 2.406 3.343.157.56.396 1.1.515 1.662.617 2.95 1.222 5.902 1.803 8.86.7 3.585.568 7.16-.38 10.686z"/></svg>