<svg xmlns="http://www.w3.org/2000/svg" width="128" height="128" viewBox="0 0 128 128"><path d="M121.197 62.904c-.07-9.224-.157-18.447-.2-27.67-.012-2.19-.553-4.24-1.297-6.258-1.344-3.637-4.74-6.09-8.587-6.13-3.326-.034-6.65.035-9.977.05-7.723.032-15.45.235-23.168.043-11.05-.276-22.095.096-33.14-.013-1.177-.01-2.354.13-3.53.224-1.6.126-3.2.396-4.796.396-4.928-.008-9.867.176-14.778-.45-.32-.04-.65-.067-.962-.015-2.22.37-4.442.72-6.642 1.174-.595.12-1.227.475-1.66.907-1.312 1.315-2.27 2.847-2.38 4.78-.167 2.886-.343 5.77-.513 8.656-.056.962-.094 1.93-.17 2.89-.147 1.812-.462 3.622-.45 5.432.06 9.86-.225 19.728.442 29.584.353 5.237.476 10.492.69 15.74.06 1.498.123 3.002.095 4.503-.043 2.276.932 3.832 2.94 4.925 3.46 1.886 7.187 2.758 11.055 2.987 2.993.173 6.006.063 9.01.042 9.116-.06 18.233-.118 27.35-.214 2.033-.022 4.065-.244 6.098-.26 3.748-.03 7.488.144 11.232.328 6.852.335 13.728.156 20.59.296 4.406.09 8.716-.902 13.105-.956 1.376-.017 2.763-.363 4.11-.7.922-.232 1.795-.682 2.666-1.084.837-.384 1.293-1.056 1.438-1.988.587-3.81 1.26-7.614 1.246-11.488-.004-1.282-.18-2.565-.17-3.85.05-7.293.135-14.587.208-21.88h.146zm-16.48 26.454c-.02 1.6-.296 3.197-.52 4.786-.134.962-.795 1.49-1.768 1.536-.537.027-1.075-.03-1.61-.018-2.25.05-4.5 0-6.72.47-.524.11-1.068.173-1.6.167-5.58-.07-11.12.67-16.692.686-4.508.01-9.014.01-13.52.043-2.677.02-5.362-.14-8.02.367-.625.117-1.286.05-1.93.056-4.505.047-9.01.098-13.514.13-2.575.02-5.134-.108-7.7-.4-2.228-.255-4.5-.1-6.75-.16-.958-.025-1.942-.017-2.864-.234-1.995-.467-3.267-2.078-3.442-4.143-.036-.427-.004-.862-.038-1.288-.275-3.414-.064-6.85-.63-10.26-.316-1.89-.253-3.853-.243-5.783.052-8.904-.054-17.816.31-26.71.218-5.338.326-10.708 1.083-16.02.248-1.754.89-2.416 2.7-2.507.857-.04 1.716-.042 2.575-.042 10.082-.004 20.165-.003 30.248-.003v.114c10.406 0 20.816-.16 31.218.07 4.816.103 9.633.164 14.45.282 1.35.032 2.23.63 2.793 1.79.187.38.384.775.47 1.185.22 1.043.48 2.096.543 3.155.315 5.35.863 10.68.863 16.05 0 5.894.283 11.788.34 17.68.06 6.332.03 12.66-.037 18.99zm10.72-19.446c-.734.555-1.54.72-2.424.493-1.757-.448-3.074-1.517-3.922-3.077-.34-.625-.363-1.423-.41-1.63-.03-3.858 2.322-5.28 5.204-5.317 1.454-.017 3.21 1.61 3.612 3.248.5 2.046.405 4.427-2.06 6.287zM93.8 42.184c-1.415-.098-2.753.14-4.065.73-3.12 1.403-6.053 3.248-9.448 3.994-.1.02-.186.105-.28.157-.6.34-.955.84-.974 1.547-.02.832.325 1.485 1.07 1.828.884.408 1.82.64 2.802.3.213-.022.433-.076.64-.044.17.028.335.154.486.258.02.013-.054.21-.126.277-1.1 1.026-2.123 2.15-3.322 3.036-4.244 3.125-8.202 6.56-11.956 10.253-1.144 1.125-2.414 2.127-3.66 3.143-.197.158-.822.173-.84.113-.477-1.362-1.902-1.946-2.548-3.18-.643-1.23-1.422-2.394-2.172-3.567-1.502-2.348-3.685-2.767-6.048-1.25-3.52 2.256-7.102 4.415-10.586 6.725-5.627 3.733-11.2 7.552-16.783 11.353-1.26.856-1.743 2.125-1.7 3.62.03 1.138.802 2.122 1.932 2.207.597.046 1.305-.112 1.813-.424 1.917-1.176 3.778-2.444 5.653-3.69 4.373-2.91 8.725-5.852 13.12-8.727 2.423-1.582 4.914-3.06 7.38-4.576.43-.262.856-.128 1.127.25.437.608.78 1.285 1.216 1.89 1.008 1.385 1.95 2.837 3.1 4.096 2.243 2.447 3.715 2.244 5.81.51 2.56-2.118 5.198-4.155 7.643-6.398 4.43-4.066 9.307-7.584 13.864-11.492.16-.14.34-.26.518-.376.09-.056.267-.126.292-.096.122.147.256.316.288.494.036.203-.04.42-.062.634-.16 1.624.066 2.165 1.11 2.66.887.425 1.884.107 2.783-.996.882-1.08 1.677-2.224 2.09-3.588.773-2.56 1.57-5.116 2.33-7.68.12-.402.134-.85.126-1.273-.03-1.51-1.104-2.606-2.623-2.71zM86.225 61.83c-.064-.31-.163-.62-.288-.912-.243-.576-1.05-1.197-1.455-1.09-.665.172-1.117.65-1.342 1.264-.18.49-.25 1.035-.276 1.562-.206 4.043-.39 8.088-.58 12.134l.087.006c0 2.347-.002 4.693.004 7.043.002.533-.015 1.073.073 1.595.173 1.045 1.2 1.883 2.26 1.912 1.012.03 1.8-.51 2.13-1.583.244-.81.486-1.65.52-2.49.23-5.87-.097-11.72-.818-17.55-.076-.634-.19-1.264-.314-1.89zM55.202 73.86c-.027-.426-.077-.86-.2-1.266-.124-.403-.267-.864-.557-1.135-.366-.343-.864-.663-1.346-.736-.68-.103-1.27.313-1.55.93-.527 1.183-.735 2.45-.802 3.747-.135 2.564-.327 5.125-.48 7.69-.044.746-.027 1.5-.05 2.247-.03 1.02.382 1.87.998 2.645 1.05 1.325 2.392 1.35 3.52.043.644-.75 1.045-1.614 1.056-2.624.01-.643.003-1.285.003-2.024-.194-3.11-.388-6.315-.594-9.52zm21.43-1.055c-.037-.853-.01-1.71-.05-2.563-.02-.418-.085-.845-.198-1.248-.23-.834-1.48-1.107-2.098-.5-.57.554-.802 1.226-.877 1.997-.205 2.12-.418 4.245-.657 6.36-.158 1.377-.434 2.74-.544 4.118-.12 1.488-.17 2.987-.136 4.477.023 1.112.795 1.854 2.02 2.176.972.254 1.69-.255 2.21-.944.366-.483.633-1.13.703-1.732.117-.947.032-1.918.032-3.127-.13-2.837-.276-5.923-.408-9.01zM44.384 78.59c-.098-1.317-1.91-2.512-3.435-1.564-.683.422-1.12 1.016-1.133 1.813-.043 2.55-.045 5.103-.053 7.657 0 .21.038.424.085.63.234.98 1.343 1.987 2.225 2.036.853.045 1.998-.94 2.244-1.975.095-.41.133-.844.142-1.265.02-1.064.006-2.13.006-3.194h.003c0-.533.01-1.064 0-1.596-.018-.85-.026-1.7-.087-2.547zm21.85-1.74c-.543-1.14-1.738-1.302-2.57-.294-.203.245-.44.498-.53.79-.78 2.51-.954 5.04.01 7.547.24.624.768 1.05 1.475 1.077.707.03 1.187-.382 1.545-.964.717-1.163.668-2.45.634-3.505-.018-1.726.11-3.232-.566-4.65zm-33.53 5.855c-.748-.053-1.183.365-1.425 1.404-.124.52-.237 1.043-.307 1.574-.163 1.2.064 2.35.512 3.46.25.62 1.13 1.192 1.795 1.134.7-.062 1.206-.478 1.448-1.11.227-.59.33-1.224.472-1.77-.206-1.153-.352-2.214-.595-3.256-.2-.87-.933-1.372-1.9-1.438z"/></svg>