<svg xmlns="http://www.w3.org/2000/svg" width="128" height="128" viewBox="0 0 128 128"><path d="M108.3 57.728c0-4.29.03-8.58-.005-12.873-.04-4.384.218-8.768-.445-13.152-.466-3.067-.79-6.118-1.75-9.11-.503-1.57-1.14-2.954-2.11-4.24-.904-1.195-1.708-2.477-2.694-3.59-.96-1.09-1.886-2.302-3.627-2.305-.574 0-1.184-.412-1.71-.742-1.867-1.163-3.816-1.717-6.07-1.62-3.856.165-7.724.067-11.583.097-2.357.014-4.708-.036-7.057.35-1.47.242-2.993.2-4.492.206-2.25.01-4.506-.045-6.757-.087-1.16-.02-2.342.16-3.45-.475-.314-.18-.86-.13-1.23.003-2.32.807-4.65.57-6.986.176-2.13-.36-4.277-.475-6.41-.213-2.974.368-5.942.8-8.89 1.344-1.46.27-2.88.806-4.292 1.294-1.244.43-2.224 1.25-3.04 2.287-1.345 1.71-2.166 3.672-2.943 5.68-.524 1.354-.65 2.67-.35 4.08.453 2.124.34 4.263.028 6.397-.094.636-.203 1.275-.224 1.913-.21 6.323-.466 12.644-.572 18.965-.052 3.21.182 6.426.272 9.636.265 9.435.02 18.878.66 28.303.13 1.924-.037 3.868.108 5.79.147 1.915.5 3.814.786 5.716.384 2.54.816 5.07 1.18 7.61.11.8.45 1.424 1.053 1.916 3.93 3.21 8.39 5.133 13.5 5.148 4.088.01 8.134.448 12.16.992 2.68.36 5.346.667 8 .284 4.274-.617 8.56-.49 12.845-.573 1.18-.02 2.368.032 3.535-.098 5.324-.597 10.657-1.028 16.02-1.06 2.603-.016 4.992-1.12 7.48-1.713.387-.094.713-.46 1.057-.715 2.567-1.894 4.224-4.497 5.56-7.313.497-1.05 1.002-2.187 1.108-3.317.363-3.945.845-7.88.853-11.86.006-3.964.288-7.924.366-11.887.14-7.08.213-14.158.314-21.235-.067-.002-.132-.004-.2-.004zM26.854 39.445c-.068-.078-.192-.15-.2-.233-.04-.5-.085-1.006-.06-1.504.008-.164.215-.32.333-.48.11.17.235.333.328.512.043.085.027.203.06.48-.062.235-.157.63-.274 1.02-.025.08-.122.138-.186.204zm.426 48.69c.02.287.17.563.264.844l.36-.733c-.132-.248-.228-.42-.324-.597-.105.163-.31.334-.3.486zm.804 9.036c-.067-.272-.17-.547-.18-.83-.006-.094.22-.196.433-.374.04.356.11.64.087.914-.01.106-.222.197-.34.29zM98.3 16.01c.294.247.507.354.592.522.064.13.03.412-.073.5-.23.207-.514.374-.806.474-.112.038-.302-.14-.457-.218l.742-1.28zm.435 9.14c-.01.215-.02.64-.058 1.056-.006.096-.105.18-.16.272-.123-.09-.336-.164-.354-.27-.213-1.246-.41-2.492-.576-3.745-.014-.104.24-.355.314-.336.194.053.485.194.51.34.14.818.21 1.647.328 2.68zM87.552 14.58c.66-.266 1.34-.48 1.86-.656.375.208.655.282.675.398.028.17-.082.42-.213.56-.284.3-.597.587-.94.82-.527.37-1.224.08-1.482-.615-.053-.145.008-.47.1-.506zm-3.583.182c-.17.015-.334.093-.498.15l.206.195c.17-.062.34-.12.51-.18-.074-.058-.156-.175-.22-.164zm-34.993 4.334c.613-.715 1.2-1.438 2.35-1.106.69.2 1.43.224 2.142.36.183.032.34.203.51.306-.177.237-.31.533-.537.69-.245.165-.576.266-.877.285-.624.045-1.25.017-2.264.017-.133-.015-.65-.06-1.17-.11-.283-.033-.354-.206-.154-.438zm-2.878-.36c.146.162.342.284.336.395-.01.15-.155.368-.284.403-.155.043-.352-.075-.53-.126.156-.22.312-.435.476-.67zm-10.806 1.89c.832-.467 1.655-.955 2.52-1.35.133-.06.47.32.698.484-.093.238-.11.498-.235.562-.86.445-1.755.784-2.752.666-.096-.013-.2-.087-.272-.162-.026-.027.002-.173.043-.197zM29.95 39.053c.015-.277.26-.57.46-.804.1-.12.324-.15.5-.18.038 0 .15.17.15.26.014.838.01 1.68.01 3.007-.093.664-.234 1.803-.422 2.93-.026.156-.262.336-.437.385-.105.03-.403-.163-.4-.256.02-1.78.057-3.563.143-5.344zm.418 10.814l-.173-.252c-.075.176-.173.347-.213.528-.015.067.106.163.163.248l.224-.52zm-.03 58.29c-.027.074-.17.155-.25.148-.06-.007-.138-.147-.154-.235-.075-.49-.198-.992-.166-1.48.01-.184.386-.34.58-.497.244.17.556.32.54.384-.148.57-.346 1.124-.55 1.677zm1.16-22.413c.073-.145-.01-.363-.023-.55-.096.098-.24.177-.277.29-.045.15-.047.314-.053.474-.034.014-.067.027-.096.043-.004.068-.01.13-.01.196-.14.165-.287.33-.38.517-.038.078.14.26.22.395.045-.083.124-.162.132-.25.02-.22.022-.44.03-.66l.095-.118.008-.123c.142-.058.302-.11.355-.213zm-.04-7.816c.054-.192.112-.382.165-.572-.06-.197-.114-.396-.173-.592-.085.175-.247.35-.24.518.012.22.16.432.246.645zm.148-8.78c0 .42.017.842-.002 1.264-.02.466-.562 1.005-.744.782-.178-.22-.36-.523-.358-.787.006-1.047.07-2.096.154-3.144.01-.125.275-.328.416-.323.15.004.4.192.424.33.1.62.14 1.25.198 1.873l-.085.005zm.33-50.255c-.04.048-.206.043-.285 0-.083-.043-.21-.18-.192-.235.27-.805.514-1.636 1.376-2.034.083-.04.213-.017.304.02.093.042.16.138.324.285-.497.65-1.002 1.313-1.52 1.963zm9.14 85.088l.244-.254-.39.032.148.224zm16.39 8.39c-.3-.007-.593-.108-.89-.167.05-.067.086-.17.15-.192.192-.06.395-.09.592-.133.103.02.21.025.31.064.095.04.178.108.268.164-.145.094-.29.27-.433.264zm9.707-.55c-1.045.157-2.14.14-3.194.033-1.554-.16-2.468-1.294-2.477-2.86-.015-2.372 1.155-3.807 3.51-4.23.73-.128 1.48-.144 2.124-.203.885.548 1.877-.534 2.43.17.395.508.245 1.43.358 2.16.032.21.15.406.192.614.496 2.372-.54 3.957-2.946 4.316zm30.458-2.85c-.696.133-1.406.203-2.112.288-.107.17-.183.448-.325.49-1.02.278-2.043.566-3.086.73-.45.066-.946-.148-1.42-.234.45-.267.876-.695 1.356-.768 1.14-.165 2.308-.16 3.467-.228.287-.96.97-1.27 1.9-1.106.175.035.42.19.46.335.04.14-.12.475-.238.495zm.32-17.942c-.057 2.41-.574 4.665-1.886 6.706-.457.715-1.05 1.346-1.136 2.264-.045.498-.357.708-.88.47-.182-.086-.436-.158-.613-.1-2.086.688-4.24.498-6.38.523-3.86.054-7.722.11-11.583.143-2.036.015-4.06-.09-6.072-.512-1.248-.26-2.55-.366-3.826-.372-3.43-.017-6.865.105-10.296.085-2.235-.013-4.437.213-6.645.49-3.764.475-7.49.14-11.163-.748-.55-.133-1.117-.672-1.44-1.178-.7-1.088-1.073-2.33-1.115-3.643-.05-1.502-.157-3.006-.11-4.505.1-3.233-.31-6.405-.883-9.574-.172-.942-.236-1.92-.236-2.877-.008-8.8-.267-17.607.105-26.39.304-7.18.356-14.36.61-21.536.064-1.816.373-3.622.61-5.424.06-.45.405-.737.888-.753.427-.015.856-.01 1.284.015 1.836.102 3.66-.06 5.396-.63 1.365-.45 2.733-.484 4.128-.48 3.648.004 7.296 0 10.944 0 3.003 0 6.008.007 9.01 0 2.143-.01 4.292.092 6.388-.53.402-.118.853-.126 1.28-.103 3.203.17 6.424-.388 9.62.205.2.032.428.046.62-.013 2.424-.723 4.907-.296 7.363-.365 1.198-.035 2.743 1.568 2.98 2.763.533 2.65.418 5.317.45 7.988.034 2.573-.134 5.178.183 7.716.953 7.59.606 15.206.608 22.808.003 3.454.64 6.816.92 10.227.043.53.245 1.05.256 1.58.096 5.253.75 10.482.625 15.745zm.14-57.683h-.005c0-.952-.013-1.9.006-2.848.008-.397-.005-.853.505-.992.467-.126 1.243.67 1.178 1.224-.048.415-.208.82-.245 1.234-.047.52-.2 1.14.014 1.554.705 1.355.13 2.432-.57 3.502-.127.197-.453.266-.688.39-.064-.195-.18-.39-.183-.586-.02-1.16-.01-2.32-.01-3.48zm.84 65.93c-.022-.17-.07-.34-.063-.51.004-.073.122-.137.188-.204.064.17.125.338.188.51-.105.067-.207.14-.31.207zm.923-50.56c.647 1.49-.203 2.686-.624 3.967-.028.086-.165.134-.25.197-.054-.095-.146-.185-.154-.283-.238-2.98-.47-5.956-.687-8.935-.016-.197.04-.493.174-.593.326-.243.704-.473 1.088-.545.172-.032.425.33.618.538.06.065.043.204.05.314.03.427.057.855.118 1.767-.067.372-.256 1.2-.363 2.043-.064.51-.16 1.102.028 1.536zm3.08-13c.027.013.138-.12.21-.19-.06-.075-.148-.224-.177-.213-.283.1-.296.26-.032.402z"/></svg>