<svg xmlns="http://www.w3.org/2000/svg" width="128" height="128" viewBox="0 0 128 128"><path d="M121.028 35.253c-.01-2.064-.46-4.04-1.2-5.952-1.57-4.05-5.014-6.454-9.388-6.51-2.467-.03-4.94-.03-7.405.036-1.71.043-3.413.32-5.123.33-8.035.054-16.064.225-24.107-.32-5.117-.345-10.29-.3-15.43.234-1.488.154-3.025.21-4.5.014-5.167-.69-10.285.07-15.4.47-3.115.244-6.21.33-9.3.092-4.502-.345-8.966-.604-13.445.294-3.134.63-5.23 2.607-5.554 5.755-.256 2.45-.37 4.912-.517 7.37-.094 1.5.026 3.03-.234 4.496-.395 2.24-.47 4.477-.46 6.73.023 7.19.06 14.38.1 21.57.007 1.18.033 2.36.095 3.54.294 5.67.62 11.337.895 17.01.12 2.463.133 4.933.235 7.398.06 1.49.694 2.702 2.03 3.435 1.22.672 2.42 1.468 3.73 1.87 3.485 1.068 7.04 1.868 10.73 1.828 5.466-.06 10.928-.042 16.397-.28 6.642-.29 13.3-.19 19.954-.204 6.54-.01 13.074-.016 19.618.403 5.77.372 11.582.14 17.376.16 1.286.003 2.624.15 3.85-.145 2.945-.702 5.95-.728 8.918-1.123 1.684-.226 3.4-.447 4.96-1.24 1.123-.568 1.88-1.34 2.043-2.668.47-3.824 1.248-7.616 1.16-11.496-.025-1.072-.18-2.14-.17-3.21.058-7.402.143-14.807.218-22.21h.067c0-1.18.006-2.358 0-3.54-.043-8.046-.092-16.093-.136-24.14zm-16.266 53.963c-.015 1.6-.267 3.202-.49 4.79-.164 1.18-1.104 2-2.222 1.89-3.435-.332-6.805.206-10.187.642-1.168.153-2.357.144-3.534.15-3.328.02-6.655-.102-9.958.463-.836.145-1.713.066-2.57.07-10.627.075-21.254 0-31.875.267-6.66.166-13.3-.395-19.954-.224-1.14.032-2.4-.207-3.42-.7-1.385-.67-2.252-1.947-2.428-3.545-.083-.745-.064-1.5-.073-2.25-.053-3.647-.527-7.27-.672-10.904-.2-5.14-.048-10.3-.048-15.45H17.2c.07-4.615.08-9.232.23-13.846.142-4.39.404-8.78.668-13.166.104-1.708.34-3.41.542-5.108.147-1.27.808-1.924 2.1-1.952 2.467-.05 4.937-.053 7.404-.043 2.683.01 5.344-.106 8.024-.33 3.196-.267 6.448-.245 9.647.01 4.395.35 8.79.318 13.18.36 8.265.084 16.53.018 24.794.044 5.146.014 10.294.14 15.443.096 1.936-.02 3.05.95 3.66 2.548.414 1.08.583 2.285.684 3.45.627 7.268.962 14.55.888 21.852-.04 3.963.292 7.927.328 11.89.053 6.334.032 12.667-.032 18.998zm12.16-20.75c-1.355 2.236-4.064 2.713-6.06 1.024-1.233-1.047-2.378-2.204-2.14-3.79-.006-4.003 2.51-5.496 5.647-5.05 1.58.225 2.68 1.338 3.136 2.877.51 1.7.354 3.39-.584 4.94zM75.776 39.53c-3.093-2.335-6.397-4.287-10.478-4.244-5.664-1.048-10.81.435-15.69 3.216-.743.423-1.454.935-2.245 1.237-2.464.945-4.454 2.526-6.245 4.414-.66.698-1.27 1.508-2.064 2.01-3.04 1.924-4.398 4.84-5.184 8.176-.853 3.614-.873 7.31-.222 10.864 1.01 5.5 3.11 10.703 6.078 15.47 3.06 4.916 7.738 7.628 13.294 8.786 1.45.302 2.92.587 4.387.853 1.995.363 4.01.592 6.02.878 4.106-.147 5.63-.444 9.415-1.945 2.238-.888 4.166-2.227 5.726-4.037 1.54-1.79 2.91-3.707 3.912-5.87.768-1.65 1.632-3.252 2.414-4.897.783-1.657 1.29-3.393 1.393-5.243.107-1.924.283-3.844.386-5.77.144-2.69-.15-5.36-.754-7.97-1.498-6.497-4.807-11.887-10.146-15.923zm1.68 11.807c.146-1.047.38-2.086.606-3.12.017-.076.344-.165.476-.115.183.068.365.237.466.408 1.583 2.675 2.763 5.517 3.4 8.565.25 1.195-.075 1.58-1.22 1.666-.214.018-.428.016-.64.025l-1.526.078c-.39 0-1.03.027-1.666-.01-.504-.027-.78-.396-.73-.854.252-2.218.525-4.433.832-6.643zM64.352 39.755c.083-.557.338-.76.875-.563 1.1.4 2.25.74 3.253 1.318 2.222 1.28 4.373 2.688 6.54 4.06.496.314.65.772.497 1.377-1.04 4.147-2.067 8.297-2.72 12.53-.07.462-.39.746-.87.778-.426.027-.855.04-1.28.015-.646-.035-1.057-.384-1.044-.963.046-1.813.117-3.63.21-5.445.125-2.456.296-4.912.405-7.37.016-.4-.13-.85-.337-1.196-.096-.16-.665-.272-.76-.167-.348.376-.68.82-.846 1.3-1.4 4.057-2.432 8.19-2.628 12.505-.05 1.12-.434 1.42-1.658 1.35-.645-.036-.99-.35-.996-.98-.014-1.5-.003-2.998-.003-4.5.22-4.71.662-9.39 1.36-14.048zM54.99 51.99c1.195-.577 1.602-1.548 1.757-2.81.3-2.424.725-4.833 1.11-7.247.083-.52.135-1.067.342-1.54.154-.357.487-.795.827-.89.805-.223 1.66-.283 2.5-.354.143-.013.308.24.526.42-.056.263-.11.566-.184.865-.556 2.16-1.196 4.303-1.654 6.482-.418 1.973-.636 3.985-.957 5.978-.196 1.208.247 2.49-.45 3.632-.926-.86-1.86-1.714-2.774-2.587-.384-.365-.782-.735-1.077-1.17-.123-.18-.09-.724.03-.78zm-8.377-7.524c.593-.446 1.178-.928 1.835-1.263 1.325-.677 2.685-1.294 4.056-1.88.568-.243 1.2-.34 1.803-.506.68.712.072 1.382-.064 2.072-.322 1.667-.61 3.345-.943 5.014-.16.813-.38 1.616-.576 2.42h.043l.048.145.206.174c-.057-.02-.143-.023-.17-.066-.02-.033-.024-.07-.034-.108l-.105-.09.015-.052c-.198 0-.446.062-.563-.036-1.884-1.56-3.754-3.138-5.616-4.725-.337-.287-.303-.826.07-1.103zM70.336 85.78c-2.157 1.078-4.434 1.54-6.85 1.345-5.053-.205-9.99-1.088-14.66-3.05-3.278-1.377-5.537-3.958-7.233-7.037-1.826-3.313-2.875-6.898-3.67-10.57-.34-1.564-.808-3.116-.624-4.746.05-.456.173-.75.783-.544.478.164 1.045.21 1.544.134.67-.102 1.298-1.058 1.237-1.68-.08-.833-.94-1.595-1.766-1.524-.31.025-.61.17-.918.253-.702.19-.898.048-.928-.63-.075-1.75.288-3.318 1.21-4.88 1.114-1.89 2.478-3.475 4.17-4.817.4-.316.82-.262 1.155.053 3.12 2.933 6.234 5.874 9.338 8.825.544.516 1.088 1.046 1.53 1.648 2.662 3.614 5.34 7.22 7.922 10.895 1.355 1.927 2.327 4.08 3.302 6.23 1.405 3.114 2.687 6.303 4.774 9.066.31.41.173.782-.32 1.03zm12-14.702c-1.195 1.9-2.172 3.934-3.268 5.895-1.312 2.344-2.74 4.604-4.787 6.4-.457.403-.702.38-.96-.15-2.947-5.945-5.89-11.894-8.832-17.844-.238-.48-.466-.965-.672-1.458-.302-.725.043-1.187.91-1.216.75-.02 1.5-.008 2.252-.01h1.928l.01-.11c2.022.165 4.044.38 6.07.476 1.28.062 2.566-.043 3.847-.096.53-.023 1.08-.222 1.587-.14 3.154.517 3.163-.14 3.204 3.382.02 1.765-.328 3.342-1.287 4.868zm-23.378 1.05c.206-.478.264-1.017.39-1.545-.136-.523-.224-1.056-.416-1.54-.24-.585-1.173-.896-1.96-.728-.647.14-1.145.693-1.08 1.376.077.84.18 1.698.447 2.487.165.504.74.74 1.317.722.57-.02 1.075-.25 1.3-.77zM43.544 57.215c.186.048.42-.008.608-.08.853-.33 1.325-1.363 1.1-2.35-.265-1.148-.972-1.857-2.092-1.86-.252.173-.81.37-1.053.76-.826 1.337-.056 3.148 1.437 3.532zm14.683 19.65c-.563 0-1.022.283-1.277.793-.437.872-.243 1.997.42 2.634.405.388 1.352.528 1.758.107s.635-1.013.804-1.3c-.02-1.386-.75-2.233-1.707-2.234zM49.643 60.01c.937-.1 1.736-1.066 1.627-1.967-.085-.698-.83-1.286-1.58-1.246-.998.056-1.635.864-1.548 1.968.064.797.706 1.33 1.5 1.246zm6.042 2.085c-.237-.282-.693-.496-1.065-.516-.562-.034-1.01.374-1.138.9-.117.485-.1 1.036-.01 1.534.1.576.916 1.088 1.426 1.007.624-.1 1.413-.945 1.413-1.687-.155-.328-.302-.856-.625-1.24zm8.232 13.26c-.512-.55-1.525-.478-1.918.16-.478.772-.557 1.597-.05 2.367.205.314.616.495.863.683.34-.102.565-.117.728-.224 1.043-.683 1.21-2.086.377-2.985zm-15.144-10.49c.04.51.644 1.044 1.093.874.348-.133.75-.44.875-.767.27-.71.23-1.493-.204-2.14-.213-.313-.61-.607-.97-.687-.55-.12-.662.412-.755.814-.07.307-.047.635-.042.556 0 .715-.02 1.032.005 1.348zm-2.84 9.44c-.66-.102-1.41.584-1.497 1.364-.102.892.642 1.71 1.513 1.66.61-.034 1.102-.615 1.123-1.326.02-.85-.482-1.603-1.14-1.702zm4.53-2.774c.063-.606-.462-1.167-1.174-1.257-.877-.11-1.58.34-1.68 1.073-.11.794.396 1.513 1.15 1.643.88.156 1.6-.463 1.702-1.46zm.69 7.47c-.61-.003-1.34.885-1.285 1.568.066.838.683 1.488 1.374 1.45.73-.04 1.378-.778 1.323-1.505-.053-.687-.82-1.51-1.41-1.513zm-7.34-13.91c.433-.375.694-.946 1.09-1.514-.417-.462-.69-.92-1.094-1.178-.525-.335-.98.027-1.325.44-.507.61-.58 1.178-.264 1.705.33.544 1.18.91 1.594.548zm.014 2.196c-.096-.032-.205-.02-.476-.043-.23.337-.58.715-.762 1.157-.2.493.18 1.066.68 1.204.51.144 1.078-.09 1.324-.542.302-.56-.12-1.553-.762-1.778zM64.32 82.788c-.928.1-1.536 1.127-1.16 1.888.192.388.614.54 1.058.373.75-.283 1.07-1.03.704-1.75-.123-.238-.437-.377-.602-.513z"/></svg>