<svg xmlns="http://www.w3.org/2000/svg" width="128" height="128" viewBox="0 0 128 128"><path d="M110.155 30.415c-.007-3.67-.4-7.243-1.81-10.702-.447-1.09-.807-2.178-1.516-3.133-1.15-1.547-2.16-3.213-3.447-4.638-1.092-1.216-2.1-2.78-4.16-2.533-.678.08-1.155-.42-1.707-.76-1.75-1.066-3.58-1.876-5.74-1.42-.722.154-1.497.082-2.25.084-3.003.013-6.01-.004-9.013.017s-6.063-.263-8.998.21c-3.042.495-5.975.118-8.955-.02-.32-.017-.643-.02-.964.006-1.917.177-3.816.325-5.742-.11-.804-.185-1.728-.06-2.55.13-1.294.3-2.533.133-3.823.017-3.5-.31-7.004-.875-10.537-.18-1.68.325-3.41.38-5.088.714-2.41.482-4.855.847-7.125 1.883-1.198.547-2.196 1.292-3.04 2.31-1.398 1.68-2.18 3.665-2.958 5.666-.642 1.637-.84 3.264-.485 5.024.25 1.245.258 2.56.22 3.84-.042 1.278-.347 2.552-.404 3.83-.243 5.462-.53 10.93-.624 16.396-.12 6.756-.013 13.51.32 20.267.4 8.356.065 16.734.627 25.096.23 3.41.062 6.835.808 10.23.62 2.815.926 5.7 1.274 8.57.14 1.173.67 1.952 1.59 2.64 2.76 2.07 5.59 3.897 9.115 4.51 1.483.257 2.933.566 4.443.53.75-.015 1.505-.01 2.25.073 4.896.54 9.816.832 14.692 1.585 1.25.19 2.565.036 3.846-.05 1.813-.122 3.62-.396 5.434-.486 4.498-.218 9.003-.336 13.502-.56 3.96-.2 7.912-.68 11.872-.676 3.36.005 6.6-.4 9.795-1.372.207-.06.414-.12.622-.166 2.073-.472 3.712-1.646 4.994-3.28 1.12-1.426 2.29-2.866 3.1-4.47.715-1.398 1.553-2.798 1.696-4.468.32-3.74.715-7.465.697-11.227-.028-5.26.087-10.517.163-15.776.008-.606-.203-1.31.46-1.76V32.46c-.792-.5-.584-1.333-.586-2.04zM25.202 89.192c0-.11.224-.22.405-.384.17.27.484.56.43.736-.07.228-.434.366-.672.54-.06-.297-.16-.594-.164-.892zm1.01 9.764c-.037.05-.125.064-.192.093-.083-.173-.247-.354-.232-.514.03-.27.173-.53.27-.79.067.045.157.08.21.145.287.364.204.726-.056 1.068zm73.628-78.36c.014-.116.288-.298.422-.284.16.02.43.22.427.333-.008.304-.135.606-.218.917 0 .2.04.418-.006.613-.164.734.94 1.587-.22 2.214-.53-.68-.327-1.504-.43-2.263-.07-.5-.028-1.024.025-1.533zm-10.564-8.91c.57-.24 1.195-.35 1.842-.524.235.2.625.448.594.514-.352.832-1.003 1.408-1.886 1.52-.264.033-.672-.444-.87-.775-.085-.14.13-.652.32-.734zm-4.448.31c.17.03.33.11.5.164-.142.083-.28.216-.426.227-.09.004-.2-.166-.3-.258.076-.05.16-.145.225-.134zm-3.947.12l-.02.178-.184-.114.208-.064zM48.16 16.533c.806-.58 1.42-1.543 2.717-.988.642.275 1.444.16 2.165.27.125.016.304.285.29.422-.012.175-.17.456-.308.485-.91.183-1.835.31-2.368.395-1.035-.082-1.666-.124-2.295-.184-.098-.01-.215-.08-.27-.155-.03-.05.01-.206.065-.245zm-2.88-.144c.102 0 .198.225.293.352-.173.06-.35.17-.527.17-.125-.002-.25-.16-.416-.276.295-.12.475-.253.65-.248zM33.42 18.402c1.027-.5 2.055-1.013 3.11-1.456.11-.045.446.334.587.57.05.09-.122.444-.256.49-.59.2-1.2.332-1.807.487.005.015.01.03.01.043-.404.093-.81.215-1.22.267-.192.02-.402-.1-.6-.154.06-.082.097-.205.178-.246zm-4.396 48.43c.02-.17.19-.318.288-.473.096.187.267.377.27.563.013 1.483.006 2.965-.032 4.446-.003.094-.316.267-.47.252-.158-.015-.435-.224-.428-.33.055-.74.174-1.48.27-2.22l-.12-.01c.07-.748.126-1.49.224-2.23zm-.398-8.97c.046.075.094.15.142.224l-.15.49c-.05-.076-.142-.16-.133-.225.023-.165.092-.326.142-.49zm.377 51.83c-.043.19-.107.498-.192.8-.025.098-.1.183-.154.275-.087-.065-.208-.108-.25-.19-.224-.468-.46-.932-.63-1.42-.143-.41.236-.617.497-.625.24-.008.538.22.715.422.102.124.016.405.016.736zm.256-21.408c-.077-.296-.2-.59-.207-.885-.004-.178.177-.362.28-.543.076.188.154.38.234.565-.105.288-.21.576-.31.864zm.536-10.22c-.02.017-.055.02-.082.027l-.096.142c-.05.017-.106.028-.158.043l-.158.283c.01-.076-.013-.19.032-.223.034-.028.08-.045.128-.06.02-.042.047-.084.072-.127.06-.017.12-.036.18-.056.048-.072.095-.145.146-.22-.02.068-.02.164-.064.195zm1.854-63.51c-.468.677-.96 1.338-1.45 2-.06.082-.168.126-.25.184-.065-.08-.15-.15-.182-.24-.035-.09-.043-.202-.02-.292.167-.838.562-1.553 1.206-2.113.14-.12.36-.156.552-.198.277-.062.38.325.144.656zm8.327 91.27l-.037.085c-.032.018-.075.024-.12.03l-.146.374c-.31-.36-.05-.346.147-.373l.045-.105c.034-.004.075-.006.115-.008.06-.14.12-.28.183-.42.37.44.066.412-.184.42zm16.8 9.03c-.18-.002-.36-.188-.54-.288.193-.083.385-.245.572-.235.29.007.58.132 1.14.277-.577.13-.876.244-1.176.244zm13.005-1.53c-2.18 1.473-4.508 1.887-6.96.694-.603-.294-1.014-.797-1.09-1.49-.055-.533-.07-1.066-.1-1.495.054-.533.095-.962.137-1.387.08-.806.463-1.416 1.17-1.806 1.516-.835 3.09-1.515 4.857-1.077.573.142 1.013.02 1.525-.096.22-.053.706.164.74.33.278 1.35.502 2.713.692 4.076.128.924-.224 1.743-.973 2.25zm17.024-10.57c-3.213.08-6.427-.053-9.635.37-1.25.165-2.562-.014-3.827-.17-1.91-.238-3.804-.597-5.71-.892-.42-.064-.852-.096-1.28-.092-4.83.04-9.657.086-14.484.14-.61.005-1.23-.016-1.66.515h.007c.028.06.06.123.092.18.07.04.14.08.212.118-.06-.01-.146-.005-.175-.043-.017-.02-.023-.05-.037-.074-.058-.03-.115-.064-.174-.094.02-.032.048-.058.072-.088-2.14.05-4.28.125-6.42.144-2.465.02-4.897-.248-7.314-.798-.94-.213-1.575-.66-1.995-1.434-.62-1.137-1.036-2.352-1.078-3.667-.045-1.396-.17-2.793-.126-4.183.117-3.663-.224-7.27-.946-10.86-.186-.938-.196-1.922-.196-2.882-.002-9.338-.262-18.682.114-28.002.304-7.504.348-15.008.623-22.51.07-2.026.4-4.044.634-6.065.053-.497.42-.735.892-.735 1.178-.01 2.357.043 3.535.01.963-.026 1.988.044 2.87-.257 1.888-.65 3.803-.58 5.728-.584 7.083-.002 14.165 0 21.248 0 1.392-.002 2.77-.017 4.153-.363 1.023-.256 2.125-.288 3.194-.288 3.323-.01 6.642.05 9.965.075.426.005.89.053 1.274-.085 1.873-.693 3.81-.47 5.73-.474 2.414 0 2.42.008 4.05 1.84.202.223.418.513.453.793.206 1.69.463 3.38.516 5.078.088 2.788-.004 5.58.053 8.368.045 2.14-.014 4.282.54 6.398.237.91.148 1.92.155 2.883.05 6.115.16 12.234.086 18.346-.034 3.03.508 5.97.832 8.943.048.423.208.836.242 1.26.51 6.632 1.012 13.263.76 19.92-.08 2.05-.52 4.02-1.77 5.738-.43.595-.977 1.248-1.058 1.924-.135 1.115-.36 1.653-1.53 1.01-2.82.923-5.733.515-8.614.584zm13.188 8.278c-.056.09-.125.2-.21.238-2.18.884-4.416 1.548-6.64 1.73l-.74-.214c.192-.18.356-.405.576-.53.368-.214.784-.534 1.157-.507 1.564.116 2.926-.24 4.213-1.168.337-.245 1.024-.02 1.547.006.08.003.216.093.222.154.004.093-.066.203-.125.288zm.074-81.543c.018-.615.038-1.232.055-1.85.098.016.194.033.472.074.08.306.273.683.248 1.054-.015.247-.323.485-.52.712-.037.045-.168.01-.256.01zm.694 71.63c-.05-.08-.147-.16-.143-.236.012-.173.08-.337.122-.51.06.03.175.067.173.08-.043.225-.1.45-.154.67zM41.9 53.277c1.046.325 2.076.442 3.15.47 3.74.1 7.5-.315 11.207.532.512.116 1.07.015 1.504.015 1.62.12 3.09-.083 4.53-.587 1.235-.437 1.96-1.253 2.1-2.57.25-2.343.69-4.702.387-7.047-.29-2.285-.133-4.476.562-6.653.065-.203.11-.413.14-.625.345-2.52-1.186-4.067-3.737-4.014-.736.02-1.49.2-2.206.096-3.388-.483-6.752-1.14-10.148-1.54-2.113-.246-4.315-.377-6.14 1.162-.373.312-.768.178-1.195.15-1.892-.116-3.104.77-3.426 2.563-.15.83-.126 1.71-.08 2.56.19 3.85.414 7.7.632 11.55.022.32.02.654.108.958.403 1.392 1.067 2.502 2.613 2.98zm11.743-6.254l1.133-7.257c.032-.21.075-.42.128-.624.328-1.303 1.06-1.61 2.4-.952.22.107.5.53.443.69-1.045 2.864-1.175 5.832-1.127 8.83.008.555-.437.875-1.08.825-.32-.027-.642-.048-.95-.12-.727-.167-1.07-.672-.946-1.392zm-3.34-9.56c.142-.252.737-.335 1.12-.334.226 0 .45.322.637.47-.077.314-.09.537-.18.716-1.366 2.7-1.955 5.6-2.3 8.574-.15 1.3-1.356 1.866-2.57 1.23-.16-.083-.37-.365-.33-.49.977-3.472 1.844-6.988 3.626-10.17zm-6.346-.637c.06-.144.302-.293.465-.295 1.205-.01 1.643.607 1.21 1.684-.114.288-.263.565-.376.856-.614 1.56-.597 1.546-.846 1.315-.523-.476-.467-1.12-.527-1.728-.032-.31-.046-.623-.08-1.088.028-.153.036-.47.155-.745zm8.328 23.445c-2.453.05-4.91.32-7.352.58-.837.09-1.66.406-2.453.707-.655.245-1.107 1.234-.917 1.86.194.65.58 1.142 1.29 1.28.317.063.638.1.957.114 2.885.13 5.77.335 8.656.364 9.965.09 19.925.126 29.888.17.64.006 1.298 0 1.915-.135 1.607-.357 2.256-2.643 1.13-3.85-.53-.565-1.16-.97-1.94-1.028-.747-.055-1.498-.052-2.248-.052-5.035-.003-10.07-.003-15.102-.003v-.03c-4.61 0-9.215-.06-13.823.027zm34.853 27.71c-.832-.155-1.702-.125-2.556-.125-10.927.002-21.85.015-32.776.032-1.605.003-3.216.005-4.818.088-1.71.09-3.41.31-4.99 1.054-.45.212-.57.55-.408 1.034.252.753.693 1.3 1.416 1.653 1.093.538 2.256.614 3.442.627 6.533.064 13.065.13 19.598.198v-.052c6.21 0 12.424.005 18.635-.005.86 0 1.73.02 2.56-.14.47-.092 1.007-.444 1.284-.837.932-1.314.174-3.235-1.387-3.528zM80.61 70.424c-1.46-.354-2.928-.604-4.453-.565-5.46.13-10.93-.17-16.392.444-4.043.454-8.123.565-12.188.79-1.965.108-3.808.615-5.534 1.524-.313.162-.608.642-.638 1-.05.58.413 1.017.94 1.157.607.16 1.265.198 1.904.198 5.792.016 11.585.01 17.38.01v-.173c3.54 0 7.084-.02 10.623.006 2.575.02 5.152.114 7.725.14 1.51.01 2.346-.69 2.467-1.964.133-1.388-.444-2.228-1.84-2.568zM48.75 84.518c3.856.096 7.712.027 11.573.027v.072c4.284 0 8.57-.048 12.856.02 1.75.03 3.39-.43 5.043-.842 1.218-.304 1.837-1.54 1.616-2.78-.204-1.147-1.33-1.932-2.636-1.818-.32.03-.63.14-.95.173-.957.1-1.916.235-2.876.26-4.71.122-9.42.24-14.126.312-4.07.064-8.144.06-12.217.096-.962.008-1.94-.027-2.885.12-1.154.18-2.293.483-3.408.833-.525.164-.9.677-.81 1.25.058.367.334.813.65.998.54.32 1.163.592 1.78.67 2.12.262 4.25.557 6.384.61zm40.446-41.09c-3.52-.232-7.036-.486-10.492-.728-1.67 0-3.277-.018-4.88.008-1.29.02-2.207.686-2.868 1.76-.572.928-.112 2.114.928 2.22 2.23.22 4.465.39 6.7.57 2.236.177 4.468.365 6.708.5 1.173.068 2.354.09 3.528.017 1.297-.083 2.507-.512 3.547-1.336.477-.38.507-1.31.037-1.714-.923-.796-1.99-1.216-3.21-1.298zm-16.63-6.703c.272.277.756.36 1.164.48 4.642 1.376 9.397 2.03 13.98 2.246.988 0 1.753.098 2.48-.023.913-.153 1.492-.804 1.75-1.694.22-.768-.245-1.664-1.134-2.083-.576-.27-1.19-.52-1.808-.607-1.696-.238-3.4-.384-5.102-.558-1.277-.13-2.56-.21-3.83-.373-1.375-.184-2.747-.427-4.113-.674-1.102-.2-2.123.14-3.15.416-.47.124-1.127 1.053-.996 1.52.132.49.403.995.757 1.352zm15.138 15.653c-2.79-.883-5.742-.46-8.395-1.08-1.876.203-3.575.376-5.27.587-.305.036-.593.222-.878.363-.475.226-.58 1.018-.144 1.352.412.312.863.693 1.343.784 1.36.254 2.74.405 4.118.542 1.91.192 3.826.323 5.737.496 1.18.11 2.336.085 3.486-.288.73-.238 1.456-.425 1.768-1.21.198-.502-.608-1.18-1.765-1.548z"/></svg>