<svg xmlns="http://www.w3.org/2000/svg" width="128" height="128" viewBox="0 0 128 128"><path d="M120.606 83.133c.12-5.897.352-11.793.416-17.69.096-9.016.126-18.03.103-27.045-.008-3.22-.457-6.4-1.532-9.478-.593-1.7-1.61-3.047-3.055-4.032-1.97-1.34-4.053-2.3-6.577-2.19-5.35.236-10.71.444-16.066.447-6.428.002-12.87.45-19.28-.41-.845-.113-1.715-.056-2.574-.058-1.718 0-3.436-.023-5.15.027-3.11.09-6.214.256-9.32.338-1.61.043-3.22 0-4.827-.046-1.498-.043-3-.256-4.49-.195-3.32.143-6.646.293-9.948.656-3.432.375-6.834.31-10.26.037-4.278-.34-8.553-.49-12.808.427-2.187.472-3.723 1.634-4.592 3.622-.42.962-.766 2.044-.79 3.08-.108 4.396-.596 8.775-.748 13.162-.2 5.792-.05 11.59-.05 17.387 0 2.79-.026 5.58.006 8.37.043 3.757-.132 7.543.264 11.263.49 4.606.33 9.214.587 13.813.047.853.267 1.704.248 2.552-.053 2.36 1.184 3.803 3.196 4.747.87.41 1.71.95 2.624 1.197 3.516.958 7.046 1.857 10.74 1.772 5.254-.124 10.505.032 15.76-.27 5.137-.294 10.3-.114 15.452-.114 6.757 0 13.518.006 20.277.056 1.605.013 3.205.288 4.81.314 5.043.078 10.086.113 15.13.126 1.93.004 3.91.15 5.78-.213 2.75-.534 5.525-.7 8.288-1.027 1.488-.174 2.98-.418 4.42-.817 1.903-.53 3.097-1.695 3.276-3.86.248-2.983.72-5.95 1.07-8.927.074-.634.19-1.34-.003-1.915-.56-1.685-.41-3.4-.372-5.104zm-16.128 6.77c-.005 1.388-.107 2.792-.363 4.15-.267 1.422-1.124 1.97-2.595 1.707-1.192-.21-2.3-.17-3.486.085-1.137.245-2.38 0-3.523.233-3.827.78-7.696.442-11.55.587-1.283.047-2.567.165-3.852.253-1.175.08-2.347.224-3.523.235-10.624.088-21.252.037-31.874.267-6.124.134-12.23-.29-18.346-.21-1.512.022-2.987.01-4.427-.503-1.653-.587-2.72-2.056-2.85-3.856-.352-4.913-.747-9.83-1.092-14.744-.09-1.282-.092-2.573-.09-3.86.006-4.187-.032-8.374.07-12.558.157-6.432.38-12.864.648-19.29.117-2.782.41-5.558.622-8.334.032-.427.047-.86.122-1.28.34-1.93.974-2.48 3.024-2.517 2.147-.04 4.294-.037 6.44-.024 2.68.018 5.344-.096 8.02-.324 3.197-.273 6.45-.244 9.65.015 4.5.363 9.004.303 13.505.354 8.05.09 16.1.03 24.15.036 4.185.006 8.37.073 12.556.016 1.276-.016 2.5.42 3.815.146.986-.206 1.92.365 2.483 1.197.472.693.928 1.497 1.056 2.304.333 2.11.498 4.247.698 6.38.193 2.025.357 4.05.502 6.08.07.962.096 1.93.1 2.894.01 6.763.004 13.525.004 20.286h.125c.004 6.76.022 13.522-.013 20.283zm11.933-20.927c-1.794 2.112-4.24 1.594-5.71.437-.654-.512-1.21-1.222-1.637-1.945-1.832-3.09.783-6.91 3.573-6.965 1.8-.038 3.083.47 4.155 1.833.73.926.6 2.005.678 3.03-.053 1.31-.13 2.516-1.056 3.61zM95.03 39.504c-1.155-.258-2.333-.252-3.457.286-.765.365-1.554.68-2.34 1.006-1 .416-1.47 1.19-1.55 2.24-.11 1.52.09 2.973.735 4.384.5 1.103.444 1.272-.358 1.93-3.836 3.15-7.056 6.88-10.07 10.788-.99 1.282-1.98 2.123-3.732 1.84-.81-.127-1.724.044-2.522.296-.877.28-1.387-.032-1.97-.604-2.445-2.403-4.82-4.892-7.434-7.1-1.423-1.206-2.19-2.334-2.203-4.282-.027-3.78-1.937-5.376-5.73-5.214-.213.008-.427.01-.64.04-3.11.44-6.133 2.84-6.048 6.393.03 1.18-.113 2.382.435 3.477.47.94.13 1.643-.5 2.315-1.978 2.11-3.993 4.185-5.922 6.34-1.336 1.49-2.635 2.856-4.855 1.68-4.095-.332-6.373 2.278-6.447 5.503-.032 1.43.288 2.755.872 4.043 1.877 4.13 7.595 4.113 9.842 1.818 2.11-2.155 2.736-4.608 1.842-7.353-.386-1.174-.066-1.716.69-2.45 2.467-2.38 4.9-4.8 7.28-7.27.675-.7 1.3-.99 2.255-.765 1.635.38 3.175.096 4.565-.89 1.607-1.142 1.665-1.196 2.85-.084 2.186 2.055 4.308 4.178 6.444 6.287.55.542.944 1.192.83 2.005-.342 2.468.952 4.35 2.312 6.14 1.125 1.485 2.715 1.98 4.587 1.55 1.696-.386 2.895-1.35 3.64-2.884.722-1.49 1.1-3.065.55-4.673-.417-1.216-.012-1.995.86-2.81.856-.8 1.547-1.77 2.33-2.65 2.628-2.966 5.015-6.147 7.982-8.812.98-.882 1.858-1.712 3.328-1.638 1.393.068 2.392-.794 3.264-1.794 1.13-1.29 1.49-2.815 1.403-4.207-.01-2.816-1.056-4.422-3.115-4.883zM37.646 73.486c-.498.188-1.336-.046-1.696-.587-.35-.52-.628-1.103-.844-1.69-.228-.62.395-1.356 1.028-1.238.62.114 1.28.216 1.82.512.407.224.652.74.826.955.02 1.03-.48 1.802-1.134 2.045zm17.963-18.58c-.367.43-.94.547-1.414.225-.35-.233-.672-.51-1.02-.755-1.282-.904-1.087-2.206-.852-3.456.198-1.053 1.36-1.853 2.607-1.964.826-.072 1.514.395 1.64 1.146.07.415.095.837.064.542.122 2.03-.143 3.235-1.024 4.264zm19.64 14.16c-.192.377-.504.67-1.006.61-1.216-.134-1.75-.583-1.995-1.7-.025-.106-.03-.214-.053-.318-.282-1.437.41-2.112 2.07-1.86.343.052.76.436.91.772.212.464.206 1.026.278 1.453-.077.42-.068.768-.206 1.04zM93.64 46.57c-.086.06-.195.086-.342.15-.37-.312-.78-.612-1.14-.968-.528-.52-.605-1.103-.305-1.725.35-.725.898-1.246 1.714-1.202.347.017.832.34.98.66.53 1.117.118 2.35-.91 3.084z"/></svg>