<svg xmlns="http://www.w3.org/2000/svg" width="128" height="128" viewBox="0 0 128 128"><path d="M119.613 83.157c.105-5.788.337-11.573.4-17.36.1-9.014.1-18.026.134-27.04.003-.75 0-1.505-.082-2.25-.28-2.553-.48-5.124-1.448-7.544-1.408-3.52-4.936-6.005-8.707-6.044-3.22-.034-6.438.03-9.656.044-7.832.032-15.667.23-23.493.048-11.16-.26-22.313.08-33.47.004-1.067-.01-2.14.107-3.21.192-1.705.132-3.41.41-5.115.41-4.715.01-9.44.164-14.136-.447-.32-.04-.65-.06-.963-.012-2.114.335-4.22.733-6.34 1.026-1.152.16-2.02.72-2.697 1.585-1.136 1.455-1.996 3.034-2.017 4.963-.035 3.755-.424 7.49-.597 11.234-.288 6.21-.26 12.437-.363 18.66h.107c.085 5.9 0 11.81.303 17.7.296 5.78.56 11.557.683 17.343.017.854.264 1.697.338 2.548.125 1.408.873 2.38 2.037 3.09.186.11.358.24.544.347 1.582.914 3.2 1.632 5.045 1.978 2.202.41 4.333 1.16 6.62 1.144 12.122-.08 24.244-.13 36.37-.22 1.923-.016 3.85-.238 5.775-.257 3.642-.035 7.292-.186 10.912.402 8.58.025 17.163.056 25.745.07.64 0 1.324.006 1.903-.213 1.248-.474 2.526-.503 3.808-.448 2.286.102 4.466-.52 6.672-.917.922-.168 1.816-.643 2.645-1.11.878-.493 1.37-1.308 1.49-2.352.383-3.403.81-6.803 1.19-10.208.062-.523.103-1.12-.08-1.593-.604-1.572-.37-3.19-.34-4.782zM103.218 93.93c-.192 1.33-.885 1.875-2.208 1.83-3.008-.097-5.997.063-8.963.586-.21.036-.427.043-.642.04-6.542-.043-13.047.79-19.595.688-4.934-.078-9.888-.22-14.803.117-5.575.383-11.145.243-16.715.416-3.537.11-7.065.088-10.597-.366-2.112-.273-4.286-.094-6.43-.135-.852-.017-1.723.015-2.555-.142-2.283-.43-3.46-1.902-3.625-4.235-.333-4.7-.73-9.395-1.056-14.095-.11-1.496-.124-3.003-.12-4.506 0-4.077-.03-8.156.066-12.23.16-6.43.38-12.86.645-19.286.115-2.78.403-5.553.617-8.33.032-.428.064-.857.136-1.278.405-2.367.912-2.843 3.384-2.854 9.547-.04 19.095-.045 28.644-.064h3.54v.145c10.3 0 20.604-.144 30.9.06 4.924.098 9.85.22 14.774.293 1.21.02 2.06.548 2.65 1.52.332.545.684 1.14.776 1.75.305 2.008.572 4.03.707 6.054.143 2.138.056 4.284.5 6.405.176.83.112 1.712.113 2.57.05 13.627.1 27.253.123 40.88.002 1.39-.072 2.792-.27 4.17zm10.813-23.807c-.536.284-1.257.512-1.822.402-2.274-.433-3.89-1.77-4.587-4.01-.74-2.39.816-5.074 3.244-5.76 3.03-.857 5.39.777 5.574 3.865.02.32.002.643.002.917.106 2.04-.61 3.633-2.41 4.584zm-48.66-3.53c0-5.254 0-10.508-.002-15.76 0-.43.005-.865-.058-1.284-.163-1.104-1.057-1.97-2.172-2.023-.85-.043-1.713.01-2.565.085-1.703.15-3.403.512-5.102.485-3.137-.047-3.502 1.316-3.497 3.698.01 6.54-.067 13.08-.156 19.62-.02 1.707-.23 3.41-.328 5.12-.063 1.067-.188 2.155-.076 3.21.12 1.15.228 2.43 1.152 3.246.667.588 1.198 1.113 1.413 2.02.155.646.785.984 1.47 1.074.64.083 1.3.068 1.91.242 1.973.562 3.818.07 5.66-.555 1.484-.5 2.273-1.49 2.3-3.105.04-2.144.198-4.284.226-6.427.038-3.216.01-6.433.01-9.65h-.188zm-4.79 15.743c-.75.01-1.503-.013-2.252-.05-2.792-.145-2.756-.15-2.413-3.06.224-1.908.42-3.835.453-5.755.064-3.753.023-7.51-.014-11.264-.02-2.357-.008-4.715-.448-7.053-.156-.832-.123-1.71-.08-2.564.012-.218.383-.428.61-.615.067-.058.207-.04.314-.036 5.674.202 4.816-1.413 4.793 4.803-.013 3.11-.002 6.223-.002 9.333h.045c0 3.968-.02 7.94.016 11.908.01.956.178 1.915.315 2.867.17 1.203-.04 1.473-1.333 1.486zm24.567-4.284c-.49-2.118-.323-4.264-.357-6.4-.06-3.533-.038-7.067-.124-10.6-.027-1.165-.22-2.337-.446-3.487-.352-1.792-.994-2.304-2.814-2.426-.427-.03-.856-.006-1.94-.006-.414.036-1.53-.043-2.534.26-2.645.797-4.143 1.867-3.915 4.632.008.107-.005.213-.004.322.085 6.637.15 13.275.27 19.914.017.95.245 1.902.444 2.837.085.402.27.84.548 1.13 1.518 1.59 3.125 2.99 5.6 2.12.497-.177 1.06-.155 1.576-.29.617-.162 1.244-.335 1.815-.607 1.598-.766 2.182-1.87 1.83-3.63-.15-.75-.262-1.443-.06-2.2.132-.502.223-1.08.11-1.572zm-7.694-1.88c-.11-.11-.31-.223-.31-.34-.01-.39.57-1.112.835-1.086.067.006.12.15.29.37-.25.33-.533.692-.814 1.057zm-30.6-.298c-.07-2.466-.095-4.932-.232-7.392-.143-2.563-.4-5.122-.604-7.68-.01-.107-.014-.213-.03-.32-.244-1.75-1.208-2.642-3.023-2.693-.853-.025-1.74-.03-2.558.167-1.895.456-3.814.52-5.742.6-.633.027-1.28.13-1.885.313-1.045.317-1.555 1.156-1.403 2.223.14.95.416 1.888.473 2.84.302 5.024.64 10.048.783 15.077.065 2.214.46 4.198 1.724 6.05.928 1.358 1.365 1.69 2.827 1.515 1.59-.192 3.184-.347 4.78-.504.85-.083 1.723-.056 2.556-.222 1.408-.284 2.315-.848 2.29-2.58-.035-2.463-.01-4.927-.01-7.393h.057zM39.49 82.06c-.412.084-.85.065-1.277.07-.575.003-.965-.374-1.008-1.01-.05-.747-.064-1.496-.08-2.244-.095-4.498-.568-8.946-1.757-13.3-.14-.513-.18-1.054-.245-1.584-.078-.644.174-1.067.757-1.168 1.788-.315 3.575-.63 5.373-.87.43-.06.79.298.847.788.05.42.062.85.08 1.276.18 4.38.364 8.757.543 13.135.016.427 0 .856 0 1.283.008 3.846.314 2.89-3.232 3.624zm37.988-31.433c.848-.815 1.71-1.62 2.576-2.415 1.026-.942 2.1-1.833 3.09-2.814.524-.52.94-1.165 1.336-1.795.154-.245.12-.608.197-1.074-.333-.194-.672-.544-1.018-.55-.388-.01-.833.225-1.167.47-.513.38-.96.853-1.426 1.295-.39.37-.75.773-1.163 1.112-.223.18-.7.425-.773.35-.276-.275-.58-.656-.607-1.02-.127-1.496-.124-3.002-.23-4.5-.046-.63-.18-1.274-.4-1.862-.2-.527-.7-.8-1.286-.782-.58.02-1.04.31-1.263.84-.16.387-.234.82-.287 1.243-.192 1.486-.352 2.976-.53 4.465-.04.34-.396.54-.648.36-.175-.122-.33-.272-.49-.41-.16-.14-.31-.3-.49-.415-.477-.303-.983-.41-1.503-.096-.526.314-.828 1.036-.646 1.676.655 2.32 1.876 4.325 3.588 6.002.94.924 2.197.825 3.14-.083z"/></svg>