<svg xmlns="http://www.w3.org/2000/svg" width="128" height="128" viewBox="0 0 128 128"><path d="M109.65 52.76h-.018V36.346c0-.858.08-1.724-.017-2.57-.36-3.19-.763-6.373-1.18-9.554-.07-.522-.276-1.028-.438-1.535-.262-.816-.686-1.608-.783-2.44-.188-1.587-1.035-2.79-1.946-3.99-.912-1.192-1.947-2.31-2.712-3.588-.573-.96-1.414-1.586-2.12-2.374-.475-.528-.99-.79-1.675-.75-1.006.06-1.764-.36-2.627-.91-1.903-1.22-3.986-1.978-6.39-1.412-1.23.29-2.558.22-3.84.228-4.722.036-9.442.006-14.163.07-1.494.02-2.985.34-4.478.356-1.593.017-3.186-.228-4.78-.24-3.967-.03-7.935.057-11.898-.003-2.027-.032-4.06-.224-6.08-.444-1.715-.184-3.405-.356-5.114.053-.725.175-1.485.2-2.224.316-2.64.415-5.314.69-7.91 1.3-6.06 1.42-6.95 2.607-9.44 8.085-.757 1.662-1.05 3.433-.924 5.323.166 2.456.12 4.932.032 7.395-.128 3.53-.478 7.057-.555 10.592-.117 5.47-.11 10.944-.098 16.416.02 8.795.154 17.584.574 26.37.208 4.393.125 8.798.177 13.197.01.75-.102 1.542.098 2.245.913 3.214 1.168 6.534 1.62 9.81.767 5.514.855 4.814 4.61 7.39 3.28 2.245 6.986 3.196 10.88 3.29 4.08.096 8.11.625 12.156 1.027 3.165.312 6.336 1.21 9.552.322 4.708-.235 9.402-.734 14.132-.65 2.14.034 4.285-.15 6.424-.283 1.28-.08 2.552-.326 3.832-.38 2.682-.114 5.362-.203 8.043-.196 1.41.004 2.776-.16 4.13-.514 1.24-.33 2.462-.744 3.716-.997 2.236-.448 3.886-1.767 5.227-3.482 1.12-1.423 2.168-2.923 3.06-4.5.726-1.284 1.3-2.646 1.516-4.19.546-3.937.88-7.884 1.017-11.84.293-8.465.13-16.94.565-25.407.256-5.028.047-10.08.047-15.122zM24.496 90.226c-.064-.015-.18-.017-.186-.046-.078-.29-.16-.582-.18-.878-.006-.053.256-.128.395-.192.045.285.107.57.126.858.01.082-.094.173-.154.258zm.594 8.54c-.116-.102-.32-.196-.33-.306-.013-.16.11-.334.18-.502l.36.296c-.073.17-.143.34-.21.512zm73.506-78.7c.183.017.472.164.504.306.15.7.227 1.417.346 2.216-.032.544-.066 1.17-.117 1.792-.01.096-.1.184-.153.277-.064-.07-.173-.128-.186-.205-.25-1.33-.497-2.66-.71-3.998-.02-.117.22-.4.316-.39zM87.856 11.6c.503-.123 1.025-.168 1.432-.227.315.06.546.048.71.15.117.068.252.377.21.42-.427.44-.85.898-1.35 1.245-.174.123-.655.056-.812-.104-.267-.274-.424-.68-.55-1.056-.028-.098.206-.392.36-.427zm-4.252.602l.224.192c-.18.06-.36.136-.544.165-.064.01-.145-.113-.218-.173l.538-.188zm-3.802.057l.085.184-.206-.02.123-.165zm-32.63 4.103c.688-.688 1.37-1.235 2.51-.84.748.26 1.628.124 2.444.21.072.007.207.47.15.516-.396.323-.807.75-1.27.842-.718.14-1.48.035-2.222.035 0 .024 0 .05-.002.073-.525-.042-1.052-.082-1.58-.138-.095-.01-.27-.11-.266-.126.058-.197.096-.437.235-.572zm-2.897.26c.07.004.136.15.203.227-.18.08-.363.158-.54.238-.07-.13-.143-.26-.214-.39.184-.03.37-.084.55-.074zm-11.742 1.403c.742-.358 1.504-.683 2.257-1.03.465-.212.864-.09.93.255.1.545-.27.81-.634.918-.783.232-1.602.344-2.212.468-.312-.15-.482-.203-.48-.235.015-.13.048-.332.14-.376zm-5.007 92.213c-.085.187-.242.34-.367.51-.157-.194-.375-.366-.454-.59-.14-.387-.22-.804-.273-1.217-.04-.31.68-.79.975-.623.234.137.378.435.586.687-.165.444-.3.848-.47 1.234zm.523-22.28l-.015.157c-.053.006-.11.006-.163.01l-.21.268c.022-.08.022-.203.074-.233.038-.02.085-.032.137-.034l.078-.1c.044-.018.065-.047.1-.068.034-.466.067-.932.11-1.397.005-.047.11-.085.165-.126.06.084.164.167.175.26.052.496.044.98-.447 1.26zm.17-9.24c-.038-.278-.103-.556-.1-.835 0-.11.16-.213.25-.322.065.277.13.557.2.838-.14.126-.24.22-.35.32zm.23-7.286c-.017.132-.275.318-.43.323-.16.007-.47-.17-.475-.273-.037-1.344-.08-2.688-.004-4.028.02-.318.48-.608.737-.912.093.277.248.555.267.836.043.625.014 1.254.014 1.88l.084.005c-.06.722-.094 1.448-.194 2.168zm.696-55.04c-.22-.096-.31-.11-.36-.163-.066-.067-.146-.17-.144-.253.027-.896.433-1.55 1.275-1.9.066-.026.183.025.258.07.085.05.224.182.213.2-.41.694-.833 1.38-1.244 2.044zM38.6 106.4c-.068-.068-.208-.153-.196-.203.037-.192.128-.373.2-.557.066.07.14.144.208.22l-.213.54zm18.006 8.578c-.197.03-.4.043-.704.075l-.674-.29c.275-.077.553-.164.832-.228.09-.02.197.028.294.047.1.017.203.018.295.05.182.068.36.152.542.227-.195.04-.39.09-.587.12zm11.772-1.504c-2.008 1.376-4.206 1.385-6.425.776-.965-.264-1.623-1.045-1.685-2.114-.045-.736-.032-1.496.09-2.223.185-1.117.867-1.906 1.898-2.385 1.478-.688 2.997-1.084 4.646-.656.41-.053.834-.166 1.248-.135.256.02.69.237.715.41.2 1.47.355 2.948.466 4.428.06.79-.275 1.44-.95 1.902zm20.296-.43c-.077.032-.2-.016-.288-.06-.043-.02-.05-.112-.075-.172.098-.026.2-.09.287-.075.313.064.344.194.077.305zM84.3 102.88c-3 .084-6.007.1-9.012.153-2.362.04-4.704-.068-7.03-.573-1.663-.358-3.34-.422-5.076-.317-3.422.208-6.864.073-10.297.08-.75.003-1.54-.14-2.245.044-1.237.322-2.492.154-3.738.352-4.08.653-8.113.27-12.096-.83-.807-.224-1.32-.68-1.67-1.37-.735-1.45-1.162-2.998-1.23-4.624-.05-1.177-.113-2.363-.045-3.538.226-3.884-.35-7.697-.877-11.52-.146-1.057-.306-2.127-.31-3.19-.017-8.05-.293-16.11.097-24.14.335-6.862.378-13.716.586-20.575.092-2.997.365-5.99.56-8.987.02-.32.06-.64.115-.956.133-.74.57-1.125 1.306-1.137.645-.01 1.29.017 1.933.01 1.71-.014 3.4.012 5.087-.54 1.088-.355 2.334-.292 3.51-.303 3.647-.032 7.295-.013 10.943-.013 2.79 0 5.583-.08 8.372.02 3.02.107 6-.19 8.963-.64 1.606-.245 3.196-.288 4.804-.3 1.485-.01 2.972.278 4.47-.06.49-.113 1.096-.044 1.57.143.86.333 1.633.258 2.495-.01 1.99-.62 4.08.01 6.07-.32 1.932-.32 2.465 1.407 3.688 2.096.192.108.233.586.24.895.086 2.465.29 4.937.187 7.393-.21 5.062.585 10.054.85 15.083.067 1.282.247 2.56.257 3.843.043 5.47.043 10.943.06 16.417.007 1.716.163 3.404.453 5.11.45 2.635.672 5.316.837 7.987.235 3.85.39 7.712.454 11.57.028 1.812-.27 3.626-.38 5.443-.083 1.34-.757 2.432-1.365 3.568-.448.834-1.186 1.493-1.293 2.545-.063.643-.508 1.195-1.337.72-.092-.05-.22-.116-.302-.093-3.158.933-6.4.464-9.6.555zm14.2 8.28c-.704.768-1.653.757-2.51.794l-.384-.03c.023.058-.005.145-.102.275-.056.08-.128.18-.208.2-.928.22-1.845.49-2.784.617-.555.077-1.192.363-1.71-.168.45-.276.867-.658 1.356-.795.693-.194 1.44-.208 2.162-.3.004.033.01.067.017.097.443.023.73.037.93.046-.45-.038-.215-.03.022-.05.177-.017.283.002.32.06.074 0 .04-.004-.005-.01.016-.103 0-.23.055-.305.606-.862 1.573-1.163 2.728-.862.093.026.23.09.243.157.01.08-.064.195-.133.27zm.81-81.66c-.02.086-.116.156-.18.233-.062-.083-.168-.162-.178-.252-.043-.406-.096-.82-.075-1.23.013-.18.19-.35.29-.524.09.186.19.365.263.555.032.095.02.208.043.425-.04.195-.084.5-.16.797zm.274 71.63c-.032-.16.06-.347.096-.523.064.004.18-.004.186.015.037.177.123.378.073.533-.1.305-.29.29-.355-.027zm-4.318 10.77l.34.026c-.003-.002 0-.01 0-.013-.05 0-.157-.003-.34-.01zM70.23 67.43c1.996-.39 3.996-.74 5.98-1.156 3.03-.638 6.05-1.318 9.076-1.977.49-.107.65-.46.754-.89.602-2.55.387-5.09.03-7.653-.662-4.697-2.998-8.43-6.526-11.44-4.252-3.628-9.312-5.103-15.33-5.228-.784.07-2.073.107-3.334.313-4.88.792-9.13 2.997-12.935 6.06-3.352 2.7-5.536 6.14-6.492 10.41-.47 2.11-.523 4.24-.885 6.345-.46 2.673-.378 5.32.277 7.955 1.077 4.36 3.027 8.214 6.4 11.27.88.8 1.79 1.667 2.95 1.872 1.72.302 3.2 1.195 4.84 1.675 2.056.602 4.102 1.213 6.275 1.154.62-.015.958-.386 1.146-.93.068-.204.128-.41.162-.62.723-4.32 1.51-8.63 2.127-12.964.293-2.073 1.267-3.298 3.3-3.712.732-.15 1.456-.337 2.187-.48zm-4.982-4.966c-1.504.237-2.537.992-2.893 2.585-.835 3.753-1.933 7.454-2.25 11.313-.07.85-.387 1.688-.41 2.533-.082 3.192-.476 3.108-3.52 2.09-3.786-1.258-6.822-3.506-9.03-6.864-1.45-2.21-2.193-4.647-2.33-7.25-.168-3.215-.106-6.427.536-9.604.304-1.502.92-2.872 1.84-4.067 3.7-4.79 8.61-7.796 14.513-8.775 4.994-.83 9.824.123 14.07 3.15.175.124.35.246.518.38 3.36 2.68 5.384 6.01 5.34 10.464-.03 3.09.068 3.175-2.91 3.55-2.436.31-4.908.376-7.36.55-.005-.056-.007-.11-.01-.17-1.393 0-2.79-.01-4.182.005-.64.01-1.29.008-1.92.107zm20.593 6.813c-1.555.346-3.07.914-4.715.79-.413-.03-.84.144-1.26.217-2 .344-3.986.752-5.996 1.01-1.505.196-2.898.656-4.31 1.167-1.3.47-1.92 1.385-2.05 2.608-.135 1.27-.03 2.562-.03 3.844-.06.004-.12.007-.178.007.236 3.09.468 6.18.705 9.27.017.21.053.422.105.627.248.963 1.058 1.71 2.07 1.715 1.17.007 2.348-.043 3.506-.206 1.374-.192 2.716-.634 4.088-.78 1.534-.16 2.918-.662 4.238-1.38 1.596-.866 3.194-1.745 4.715-2.736.69-.45 1.35-1.094 1.755-1.803 2.26-3.938 2.535-8.103 1.14-12.382-.568-1.747-1.908-2.383-3.78-1.968zM72.235 85.85l-.144.59c-.054-.293-.112-.59-.157-.885-.017-.1-.006-.203-.004-.304 0-.1-.006-.2.013-.3.017-.096.064-.192.098-.285.065.11.166.213.18.33.034.197.01.403.01.857zm4.045.366c0 .085-.15.25-.188.24-.174-.053-.38-.117-.49-.25-.132-.157-.23-.38-.256-.585-.373-2.963-1.067-5.886-1.072-8.894 0-.196.07-.422.188-.576.112-.148.317-.293.49-.306.166-.01.39.11.507.245.127.142.22.363.24.56.223 2.337.43 4.68.59 6.477 0 1.392 0 2.24-.01 3.086zm3.942-1.546c-.084.053-.462-.15-.468-.253-.092-1.086-.144-2.174-.203-3.264-.032-.035-.06-.075-.094-.11l-.006-.174c-.177-.197-.402-.386-.42-.595-.085-.992-.096-1.984-.123-2.98-.034-.04-.07-.078-.1-.118l-.005-.128c-.53-.268-.466-.79-.448-1.278.002-.085.107-.184.188-.242.03-.02.188.06.192.1.03.47.048.945.068 1.42.032.015.062.034.1.05l.005.195c.17.194.382.384.4.59.09.992.106 1.988.142 2.984.03.03.062.064.09.1l.01.183c.732.836.902 1.933 1.25 2.936.044.116-.34.44-.58.58zm3.312-2.06c-.175-.027-.435-.074-.49-.194-.13-.273-.158-.593-.23-.912.09-.245.148-.51.295-.708.046-.064.717 1.338.65 1.615-.02.087-.158.215-.224.205zm2.935-5.076c-.178 1.315-.748 2.58-.995 2.344-.642-.626-.754-1.468-.88-2.304-.11-.725-.322-1.443-.38-2.172-.053-.646.168-1.222.776-1.616.48-.31 1.2-.196 1.294.302.14.72.216 1.448.277 1.888-.04.717-.037 1.14-.093 1.557zM50.24 31.147c.5.16 1.043.245 1.57.256 1.606.032 3.217.014 4.825.014.002.034.002.07.002.105 2.03-.11 4.073-.15 6.097-.34 3.408-.323 6.81-.716 10.21-1.127 1.054-.128 2.1-.367 3.136-.627.7-.178.99-.802 1.118-1.445.13-.648-.404-1.515-1.083-1.792-.39-.16-.827-.336-1.23-.307-2.137.144-4.274.28-6.397.552-4.78.614-9.556 1.232-14.393 1.14-.856-.016-1.72.003-2.57.097-.52.057-1.036.257-1.526.455-.592.24-.93.91-.85 1.575.077.695.424 1.233 1.09 1.448zm14.736 5.395c.953-.066 1.94-.102 2.837-.38.785-.246 1.49-.78 2.187-1.25.448-.3.274-1.106-.26-1.285-.5-.17-1.023-.378-1.535-.378-3.1.002-6.197.05-9.293.11-.983.02-1.893.356-2.656.977-.213.174-.384.557-.356.82s.288.625.53.716c.688.252 1.413.5 2.14.55 1.276.086 2.563.024 3.843.024v.107c.853 0 1.713.046 2.563-.013z"/></svg>