<svg xmlns="http://www.w3.org/2000/svg" width="128" height="128" viewBox="0 0 128 128"><path d="M121.856 29.754c-.486-.432-1.146-.747-1.78-.933-2.418-.72-4.89-1.185-7.407-1.43-1.69-.165-1.895-.444-1.67-2.22.36-2.837.79-5.667 1.123-8.506.105-.896.102-1.835-.045-2.722-.185-1.114-1.153-1.7-2.28-1.658-1.083.043-1.965.57-2.85 1.097-4.742 2.808-9.132 6.133-13.605 9.328-1.047.747-1.827 1.707-2.304 2.93-.496 1.28-1.05 2.542-1.638 3.784-.75 1.588-.936 1.64-2.6.773-.912-.476-1.79-1.024-2.677-1.555-2.453-1.474-4.858-3.044-7.37-4.416-4.026-2.197-8.112-4.29-12.733-5-.56-.085-1.1-.317-1.653-.456-6.543-1.645-12.94-1.08-19.22 1.266-1.074.4-2.116.95-3.223 1.175-4.382.897-8.143 2.986-11.563 5.78-1.685 1.376-3.35 2.782-5.07 4.112-3.864 2.984-7.115 6.493-9.365 10.848-1.686 3.26-3.45 6.49-4.87 9.864-2.275 5.416-3.91 11.013-3.71 17.02.397 3.642.736 7.292 1.21 10.92.35 2.643 1.26 5.07 2.914 7.246 2.91 3.832 5.685 7.76 8.542 11.63.475.645 1.058 1.206 1.597 1.804 2.027 2.248 4.648 3.665 7.155 5.283 3.988 2.57 8.326 4.326 12.688 6.062 1.06.42 2.178.7 3.28 1.01 1.65.464 3.318.852 4.954 1.36 2.312.714 4.68 1.11 7.083 1.247 1.013.06 2.065-.064 3.056-.288 1.894-.428 3.75-1.014 5.635-1.49 1.786-.45 3.438-1.22 5.11-1.98 5.874-2.682 11.007-6.565 16.44-9.963 1.76-1.1 3.205-2.63 4.38-4.336 2.992-4.35 5.77-8.82 7.58-13.823.352-.97.755-1.92 1.125-2.882 1.484-3.847 2.99-7.685 3.43-11.842.12-1.133.38-2.257.637-3.374 1.155-5.025.896-10.026-.443-14.954-.346-1.27-.303-2.096.647-3.04.738-.733 1.456-1.423 2.343-1.977 2.717-1.693 5.495-3.3 7.875-5.48.5-.46 1.077-.895 1.693-1.17 2.88-1.28 4.88-3.75 7.464-5.435 1.205-.784 1.22-2.638.114-3.612zM97.222 59.748c-.064 1.376-.15 2.72-.507 4.075-.434 1.653-.56 3.385-.922 5.06-.602 2.795-1.195 5.596-2.377 8.23-.657 1.46-1.263 2.95-1.824 4.45-1.696 4.56-4.38 8.55-7.147 12.492-1.42 2.022-3.474 3.332-5.576 4.504-2.007 1.12-3.9 2.38-5.75 3.74-3.108 2.272-6.63 3.65-10.42 4.19-3.396.484-6.827.725-10.24 1.077-.008-.06-.013-.117-.02-.176-.346 0-.693-.03-1.035.006-4.13.467-7.928-.782-11.677-2.277-2.235-.89-4.46-1.804-6.7-2.67-1.52-.59-2.823-1.464-4.045-2.547-6.677-5.92-11.19-13.23-14.332-21.53-1.733-4.577-1.78-9.164-1.04-13.857.804-5.106 2.198-10.094 4.04-14.888 2.023-5.27 5-9.985 9.665-13.53 3.034-2.303 6.174-4.34 9.594-5.983 2.376-1.14 4.747-2.296 7.072-3.538 3.107-1.665 6.45-2.302 9.912-2.412 3.456-.11 6.843.43 10.2 1.237 7.204 1.733 13.86 4.707 20.06 8.74.48.314.933.664 1.396 1.004.5.364.724.847.684 1.474-.043.685.025 1.387-.09 2.06-.073.404-.302.91-.622 1.132-2.642 1.82-5.323 3.586-7.992 5.367-.546.362-1.096.34-1.568-.097-.672-.622-1.298-1.295-1.955-1.934-4.31-4.193-9.646-6.084-15.482-6.654-3.296-.322-6.622-.44-9.896.544-3 .9-5.818 2.085-8.147 4.242-.252.235-.485.494-.766.69-6.496 4.49-9.82 11.05-11.774 18.402-.76 2.854-1.23 5.832-.254 8.82.39 1.19.444 2.48.763 3.698.526 1.992 1.096 3.96 2.27 5.717.758 1.136 1.298 2.42 1.95 3.63.89 1.642 2.047 2.996 3.724 3.935 1.397.778 2.693 1.74 4.004 2.664.95.67 1.956 1.185 3.097 1.426 2.574.547 5.127 1.2 7.778 1.297 4.245.157 8.477.028 12.65-.864 2.77-.596 5.062-2.095 7.19-3.867 1.582-1.318 3.13-2.683 4.637-4.088.66-.618 1.27-1.33 1.746-2.095 2.183-3.53 3.775-7.33 4.84-11.334.288-1.083.403-2.277.288-3.39-.296-2.84-.704-5.67-1.19-8.485-.276-1.567-.788-3.097-1.22-4.636-.285-1.02-.27-1.32.43-1.795 2.842-1.936 5.702-3.844 8.546-5.78.728-.494 1.434-.477 2.272-.272 1.586.386 2.515 1.255 3.142 2.8 1.566 3.86 2.813 7.747 2.617 11.98zm-46.997-.946c1.355-1.544 2.98-2 4.907-1.82.738.07 1.237.473 1.602 1.126.373.668.156 1.483-.533 1.62-.44.09-.89.13-1.34.157-.456.026-.924-.053-1.367.017-2.432.384-3.714 2.403-3.014 4.785.122.412.426.817.746 1.115 1.36 1.262 3.142 1.39 4.715.38.664-.428 1.297-.903 1.97-1.31.08-.048.5.208.493.31-.105 2.2-1.117 3.67-2.848 4.208-1.877.58-4.323-.272-5.458-1.952-.848-1.26-1.37-2.632-1.212-4.056-.078-1.77.18-3.25 1.344-4.58zm3.6-6.39c-8.292.932-10.648 8.77-9.393 14.1.533 2.26 1.515 4.305 3.102 6.054 2.202 2.43 4.82 3.26 8.043 2.507 2.09-.49 3.977-1.41 5.31-2.98 1.472-1.727 2.563-3.798 2.686-6.188.056-1.03.078-2.07-.006-3.093-.087-1.05.245-1.76 1.213-2.21.934-.436 1.864-.895 2.752-1.41 2.187-1.258 4.34-2.553 6.513-3.832.504-.297.955-.192 1.105.336.41 1.427.92 2.848 1.114 4.31.424 3.188.57 6.394-.43 9.53-.416 1.31-.81 2.625-1.26 3.924-1.89 5.475-5.508 9.088-11.22 10.533-3.242.82-6.495 1.368-9.844 1.34-.8 0-1.604-.03-2.405.008-3.175.155-5.822-1.086-8.125-3.132-2.155-1.916-3.965-4.157-5.496-6.58-1.496-2.367-1.91-5.125-2.275-7.852-.15-1.13-.12-2.288-.167-3.435-.157-3.815.995-7.26 3.23-10.29 1.696-2.304 3.605-4.453 5.44-6.656.816-.98 1.8-1.773 3.005-2.233 2.03-.78 4.06-1.562 6.12-2.242.74-.245 1.596-.337 2.373-.26 4.34.438 8.643 1.068 12.438 3.45.768.484 1.525 1.033 2.168 1.673 1.544 1.543 1.638 1.93-.162 3.11-1.724 1.133-3.42 2.314-5.137 3.454-.86.57-1.69 1.4-2.633 1.565-1.102.193-1.493-1.21-2.285-1.814-1.724-1.32-3.6-1.93-5.776-1.685zm59.046-18.44c-3.404 2.514-6.825 5.008-10.24 7.512-.48.352-.96.544-1.58.365-1.645-.47-3.304-.887-4.954-1.34-.33-.086-.643-.23-.96-.353-.508-.2-.65-.74-.25-1.05 1.45-1.117 2.917-2.21 4.38-3.313.64-.482 1.31-.93 1.906-1.458.828-.73.913-1.572.332-2.445-.608-.91-1.74-1.247-2.7-.703-.895.506-1.727 1.12-2.594 1.675-.675.43-1.355.856-2.048 1.254-.27.156-.653.425-.86-.02-.12-.257-.105-.655.003-.93.33-.852.747-1.67 1.112-2.508.41-.946.768-1.917 1.225-2.836.243-.495.573-1.024 1.006-1.337 3.155-2.27 6.347-4.49 9.533-6.722.277-.192.637.08.647.465.003.113.023.226.064.6-.102.652-.242 1.556-.38 2.46-.107.677-.174 1.36-.316 2.03-.497 2.315.96 3.883 2.15 5.52.3.41.94.625 1.466.81.97.343 1.98.563 2.95.907.282.1.636.422.667.676.025.228-.31.56-.56.746z"/></svg>