<svg xmlns="http://www.w3.org/2000/svg" width="128" height="128" viewBox="0 0 128 128"><path d="M75.548 50.57c-1.088-.554-1.9-.447-2.592.575-1.12 1.648-2.176 3.342-3.27 5.01-.212.33-.456.65-.727.933-.063.062-.386.008-.446-.085-.82-1.29-.885-2.51-.002-3.89 1.096-1.706.736-2.284-1.233-2.335-.795-.02-1.59.05-2.38.128-.493.05-.798.672-.613 1.15.07.185.117.404.25.535.66.67.714 1.36.21 2.15-.21.33-.29.74-.462 1.1-.112.237-.28.45-.422.676-.224-.184-.57-.326-.654-.56-.838-2.36-2.58-4.262-3.345-6.664-.085-.27-.678-.628-.926-.56-1.238.35-2.436.828-3.65 1.262-1.994 1.95-4.18 3.723-5.604 6.19-1.776 3.076-2.822 6.37-2.846 9.945-.035 5.79-.057 11.58-.066 17.37-.004 1.197.056 2.393.09 3.59.03 1.06.475 1.917 1.267 2.61 1.41 1.235 3.554.704 4.14-1.086.31-.942.47-1.906.33-2.942-.186-1.376-.235-2.78-.26-4.173-.042-2.196 0-4.39-.013-6.59-.023-2.805.418-5.557.975-8.29.257-1.263.628-2.51 1.05-3.73.185-.53.585-1.008.96-1.445.275-.32.342-.22.61 1.67.266 1.874.586 3.74.82 5.62.43 3.458 1.026 6.902 1.003 10.406-.01 1.5.05 2.998.028 4.49-.09 6.893.225 13.77.547 20.645.02.498.035 1 .1 1.493.553 4.15 1.035 8.304.987 12.506-.013 1.097.006 2.2.107 3.29.057.577.236 1.176.505 1.69.614 1.193 1.866 1.646 3.34 1.308 1.065-.244 1.964-1.172 2.073-2.292.09-.89.055-1.792.052-2.69-.026-6.486-.06-12.977-.085-19.462-.002-.8 0-1.6.075-2.394.023-.248.245-.565.47-.69.698-.398 1.45-.662 2.282-.572.434.048.79.242.82.695.06.894.054 1.792.083 2.688.123 3.784-.348 7.582.38 11.35.11.566-.074 1.187-.1 1.783-.074 1.89-.18 3.782-.2 5.672-.018 2.073 1.14 3.563 2.644 4.803.848.7 1.878.68 2.836.273.984-.416 1.584-1.21 1.616-2.32.017-.594.046-1.226-.128-1.78-.53-1.653-.43-3.35-.508-5.042-.094-1.983.082-3.986-.5-5.94-.19-.65-.095-1.39-.095-2.088-.004-6.586-.002-13.17-.002-19.755h-.014c0-6.39-.003-12.774 0-19.163 0-.798-.063-1.614.078-2.39.14-.76.5-1.48.766-2.218.965.266.908 1.183 1.162 1.884.72 1.97 1.438 3.968 1.412 6.083-.05 4.186.264 8.378-.224 12.56-.187 1.58-.107 3.19-.14 4.787-.007.3-.003.602.046.896.256 1.606 1.288 2.53 2.82 2.556 1.577.025 2.655-.826 2.93-2.418.118-.683.09-1.393.093-2.09.034-6.988.003-13.976.116-20.96.05-3.195-.865-6.076-2.164-8.918-1.376-3.01-3.437-5.333-6.402-6.84zm34.268 22.758c.06-2.613-.88-4.878-2.067-7.078-.67-1.24-1.68-2.2-2.948-2.897-1.45-.8-1.84-.77-2.717.5-.677.982-1.327 1.982-2.02 2.956-.077.105-.368.153-.51.1-.158-.06-.338-.25-.37-.413-.053-.28-.07-.606.023-.867.202-.56.5-1.085.727-1.635.12-.288-.206-.853-.535-.942-.286-.077-.584-.16-.873-.15-1.44.054-1.734.508-1.437 2.033.094.48.15.984.11 1.468-.024.322-.25.63-.386.94-.216-.193-.512-.347-.64-.59-.787-1.495-1.513-3.028-2.336-4.506-.144-.264-.696-.523-.975-.45-1.052.27-2.03.66-2.888 1.443-3.216 2.93-4.82 6.504-4.77 10.857.037 3.392-.013 6.784-.02 10.174 0 .9-.042 1.807.08 2.69.077.56.356 1.13.673 1.607.407.608 1.237.806 1.87.54.588-.248.977-.7 1.04-1.346.056-.592.064-1.194.06-1.79-.015-2.095.022-4.19-.084-6.282-.117-2.222.347-4.367.695-6.524.14-.866.56-1.688.896-2.514.06-.15.31-.222.472-.332.092.15.247.288.27.445.736 4.725 1.38 9.45 1.33 14.26-.05 4.78-.076 9.56.432 14.337.37 3.46.806 6.93.686 10.43-.005.196.016.397.045.596.127.82.754 1.448 1.573 1.58.94.146 1.74-.364 2.117-1.277.4-.967.367-1.97.24-2.953-.555-4.277-.136-8.565-.218-12.85-.02-1.08.606-1.54 1.775-1.5.447.018.802.254.846.68.075.792.064 1.594.068 2.39.02 3.79.067 7.578.044 11.366-.007 1.18.4 2.126 1.173 2.963.63.676 1.688.856 2.458.42.675-.387 1.062-1.222.97-2.017-.135-1.185-.272-2.366-.372-3.553-.083-.992-.102-1.99-.178-2.982-.096-1.286-.3-2.57-.314-3.856-.04-3.99-.015-7.98-.015-11.97h-.008c0-3.99-.032-7.976.02-11.967.013-1.146-.402-2.41.51-3.413.387-.426.937.654 1.505 3.25.15.672.262 1.376.254 2.063-.05 3.586-.152 7.173-.21 10.76-.007.484.043.99.184 1.45.256.85 1.04 1.393 1.77 1.332.742-.064 1.59-.704 1.734-1.444.132-.675.168-1.38.17-2.072.03-4.486-.03-8.978.073-13.46zM45.89 76.754c.06-3.122-.97-5.886-2.635-8.416-.696-1.056-1.643-2.02-2.656-2.78-1.418-1.056-2.043-.847-3.168.61-.304.392-.608.79-.893 1.197-.547.784-1.356 1.227-2.23 1.397-1.85.363-3.57.02-4.945-1.393-.485-.5-.89-1.08-1.397-1.556-.273-.256-.686-.512-1.036-.514-1.707-.004-3.395.3-4.65 1.534-2.683 2.64-3.89 5.968-4.1 9.664-.1 1.79-.016 3.587-.016 5.38h-.038c0 1.793.053 3.59-.016 5.38-.045 1.24.4 2.348.755 3.478.25.8.886 1.287 1.75 1.44.76.13 1.51-.288 1.55-1.01.097-1.59.214-3.19.14-4.774-.18-3.602.33-7.15.736-10.707.032-.283.192-.555.317-.82.22-.468.94-.562 1.248-.185.79.955 1.137 2.1 1.3 3.285.227 1.675.378 3.36.548 5.04.124 1.194.51 1.5 1.768 1.37.203-.022.41-.008.593-.067 2.04-.638 4.14-.48 6.228-.512.696-.013 1.393.05 2.09.06.908.01 1.232-.193 1.548-1.07.198-.555.343-1.138.437-1.72.197-1.177.312-2.367.527-3.54.083-.46.29-.917.546-1.312.203-.313.79.235 1.01 1.205.22.955.38 1.95.4 2.934.05 2.688.013 5.38.017 8.07 0 .596-.03 1.2.035 1.79.173 1.572.827 2.055 2.39 1.81.292-.047.575-.157.863-.24.534-.148.837-.486.88-1.048.233-2.972-.17-5.97.355-8.93-.512-1.664-.288-3.37-.254-5.05zm-2.78 24.025c-1.82-4.215-3.263-8.548-3.978-13.098-.064-.424-.245-.77-.7-.82-2.17-.24-4.337-.64-6.54-.44-1.483.14-2.962.314-4.446.46-.587.054-.872.378-.94.938-.023.202-.035.4-.072.596-.736 3.7-1.15 7.467-2.293 11.09-.54 1.706-.93 3.436-2.085 4.902-.715.912-.072 2.085 1.082 2.13.894.03 1.792-.065 2.688-.082.718-.015 1.15.33 1.205 1.016.202 2.478.39 4.958.56 7.44.08 1.192.015 2.4.168 3.58.22 1.667 2.062 2.366 3.43 1.382.528-.38.8-.894.807-1.52.017-1.892.007-3.788.007-5.68h-.062c0-1.694-.003-3.39.004-5.084 0-.296-.024-.62.082-.885.1-.245.323-.573.542-.614 1.7-.33 2.342-.175 2.318 1.56-.035 2.593.085 5.185.01 7.775-.045 1.532.54 2.693 1.566 3.718.65.65 1.69.823 2.482.434.92-.45 1.507-1.458 1.188-2.47-.432-1.368-.395-2.748-.443-4.14-.055-1.587-.004-3.178-.43-4.743-.173-.65-.063-1.387-.024-2.08.025-.448.368-.72.79-.736.793-.032 1.59.035 2.388.02 1.46-.03 2.072-.958 1.58-2.422-.257-.757-.57-1.49-.886-2.222zm14.584-61.71c1.08.373 1.437 1.29 1.74 2.25.61 1.925 1.533 3.665 2.977 5.104.87.867 1.85 1.43 3.098 1.645 2.212.384 3.695-.16 4.768-2.08.48-.86.832-1.807 1.117-2.75s.37-1.954.638-2.91c.126-.443.425-.865.735-1.223.252-.294.65-.456.955-.712 1.77-1.52 1.722-3.747-.254-4.964-.988-.607-1.358-1.29-1.36-2.385 0-.783-.133-1.587-.337-2.35-.71-2.623-2.533-4.48-5.65-4.218-2.258.02-3.798.794-4.934 2.744-.745 1.278-1.3 2.67-1.867 4.04-.446 1.07-.436 2.41-1.87 2.806-1.924 1.78-1.54 3.03-.205 4.63.123.146.273.32.45.38zm8.65-8.048c.214-.445.48-.866.716-1.3.205-.38.4-.762.6-1.142.293.395.68.75.863 1.19.258.627.472 1.306.523 1.978.085 1.082.025 2.176.025 3.264.177 2.293.055 4.558-.783 6.724-.175.448-.442.888-.764 1.243-.146.162-.55.197-.8.14-.303-.073-.405-.357-.25-.68.302-.622.56-1.27.897-1.872.45-.8.465-1.492-.327-2.083-.472-.352-.512-.837-.3-1.317.4-.9.28-1.645-.283-2.485-.76-1.137-.712-2.42-.114-3.657zM26.246 60.498c.198.02.398.046.597.048 1.152.01 2.088.373 2.864 1.315.42.51 1.096.848 1.717 1.135 1.515.7 2.94.337 3.99-.965.25-.305.503-.656.593-1.023.197-.8.61-.875 1.298-.608.36.134.783.11 1.133.153.544-.038 1.045-.043 1.536-.107 1.017-.14 1.6-.945 1.3-1.93-1.178-3.916-2.62-7.702-5.04-11.07-1.133-1.578-2.602-2.126-4.397-1.804-1.163.21-2.307.612-3.413 1.052-.62.25-1.214.68-1.694 1.155-2.544 2.52-3.56 5.706-3.705 9.172-.117 2.776.348 3.18 3.218 3.474zm7.064-11.002c.106-.14.31-.277.468-.277.156-.004.405.14.452.275.23.646.478 1.3.573 1.973.096.677.02 1.38.02 2.21.29 1.583-.163 3.217-.626 4.834-.124.432-.546.78-.85 1.154-.04.05-.196.04-.283.008-.087-.03-.23-.145-.22-.18.182-.554.353-1.113.594-1.642.267-.59.3-1.117-.09-1.67-.16-.227-.325-.547-.292-.8.126-.916-.075-1.7-.444-2.562-.508-1.173-.064-2.33.693-3.328zM95.276 59.89c1.766 2.294 4.946 1.68 5.893-1.052.19-.553.25-1.17.27-1.762.043-1.195.015-2.395.015-4.15.034-.64.07-1.834.18-3.022.177-1.915-.646-3.5-2.207-4.133-1.552-.633-3.532-.105-4.534 1.367-2.846 4.186-2.773 8.648.382 12.753zm3.82-3.31c.06-.02.172.017.214.067.06.066.074.17.164.422-.273.265-.594.587-.933.89-.03.03-.18-.04-.252-.094-.064-.047-.144-.16-.126-.213.167-.482.417-.898.937-1.073zM62.21 16.83c.93.987 2.744.626 3.25-.61.256-.628.416-1.328.47-2.01.078-.986.02-1.983.02-2.975h.053c0-1.092.058-2.19-.016-3.275-.1-1.498-.442-2.946-1.335-4.2-.623-.875-1.885-.975-2.574-.145-.437.52-.89 1.13-1.035 1.77-.71 3.134-.667 6.303-.038 9.44.145.724.676 1.444 1.203 2.003zm-13.016 4.308c.81.894 1.86 1.46 2.98 1.888.27.102.572.117.754.15 1.613-.16 2.74-2.092 2.008-3.35-.445-.763-.975-1.51-1.602-2.124-1.41-1.38-2.865-2.733-4.4-3.973-.662-.535-1.543-.88-2.382-1.096-1.003-.26-1.97.578-2.093 1.608-.1.83.067 1.58.622 2.213 1.362 1.566 2.717 3.14 4.11 4.678zm32.71 9.82c.438.69 1.006 1.254 1.82 1.42 1.248.256 2.51.43 3.77.637.01-.06.017-.122.026-.184.79 0 1.595.098 2.365-.025.76-.12 1.517-.398 2.22-.72.68-.31.993-.93.963-1.697-.027-.78-.432-1.338-1.118-1.6-.723-.28-1.496-.555-2.26-.59-1.674-.08-3.36-.073-5.034.04-.757.05-1.525.358-2.236.676-.738.333-.945 1.367-.517 2.046zm-37.91.48c1.327.4 2.692.66 3.79.916.677-.034 1.08-.018 1.47-.082.753-.124 1.215-.63 1.535-1.286.25-.514.024-1.376-.5-1.906-.14-.14-.297-.264-.448-.388-1.646-1.34-3.67-1.405-5.632-1.61-.43-.047-.942.283-1.356.537-.97.595-1.155 2.05-.335 2.846.414.407.93.804 1.474.968zM77.608 20.94c.743.132 1.387-.09 1.92-.596 1.074-1.035 2.16-2.06 3.172-3.157.384-.416.572-1.013.712-1.27.192-1.46-.953-2.34-2.155-1.962-2.61.82-4.02 2.795-4.892 5.237-.253.712.454 1.614 1.242 1.75z"/></svg>