<svg xmlns="http://www.w3.org/2000/svg" width="128" height="128" viewBox="0 0 128 128"><path d="M117.14 30.96c-1.455-6.01-4.234-11.372-7.852-16.342-1.856-2.546-3.915-4.885-6.458-6.773h-2.436c-.373 1.015-1.26 1.312-2.16 1.28-2.06-.078-3.745.78-5.34 1.9-3.003 2.108-6.237 3.8-9.57 5.302-4.252 1.914-8.54 3.753-12.79 5.666-2.126.956-4.24 1.952-6.3 3.03-1.616.844-3.113 1.905-4.716 2.77-7.317 3.952-14.504 8.15-22.012 11.744-.727.346-1.4.813-2.064 1.275-.52.358-.923.88-.853 1.53.14 1.307-.71 1.754-1.677 2.203-3.952 1.835-7.89 3.7-11.84 5.536-.78.365-1.387.88-1.664 1.68-.26.756-.485 1.543-.585 2.335-.105.8-.03 1.623-.058 2.435-.035 1.062-.165 1.223-1.09 1.55-.955.332-1.932.62-2.85 1.03-1.96.876-2.984 2.415-2.81 4.582.117 1.512.373 3.014.64 4.508.316 1.803 1.397 3.115 2.87 4.132 1.29.885 2.604 1.052 3.978.18 1.11-.707 2.24-1.388 3.356-2.086.98-.612 1.558-.57 2.435.25.293.276.5.64.804.91 1.057.936 2.474 1.093 3.626.23 2.54-1.9 5.504-3.023 8.175-4.67.4-.244.79-.186 1.1.14.485.515.896 1.11 1.42 1.584.895.814 1.876 1.118 3.03.4.508-.317 1.103-.513 1.68-.676 1.864-.53 3.61-1.3 5.318-2.22 1.057-.566 2.25-.887 3.39-1.292.317-.11.876.296.893.638.048.91.17 1.835.068 2.73-.288 2.513-.686 5.014-1.028 7.52-.163 1.206-.34 2.412-.442 3.622-.085.95.17 1.8 1.013 2.4 1.25.896.963 1.167.42 2.266-2.512 5.092-5.03 10.184-7.565 15.266-.405.815-.896 1.59-1.39 2.357-1.158 1.796-2.2 3.64-2.99 5.634-.33.835-.826 1.627-1.355 2.357-.915 1.26-1.434 2.664-1.806 4.15-.187.75-.017 1.378.387 2.016 1.296 2.04 4.054 1.778 5.366.608 1.278-1.137 2.43-2.364 3.205-3.993 2.134-4.485 4.408-8.91 6.708-13.314 2.158-4.135 4.418-8.216 6.64-12.317.19-.353.372-.77.682-.978.297-.2.796-.303 1.122-.2.304.097.674.507.715.818.215 1.604.366 3.218.486 4.834.442 6.07 1.415 12.066 2.607 18.027.437 2.18 1.093 4.317 1.606 6.485.238 1.016.73 1.882 1.35 2.695.846 1.108 1.994 1.31 3.267 1.034.782-.17 1.65-1.58 1.64-2.703-.005-.705-.086-1.42-.228-2.114-.865-4.264-1.796-8.514-2.587-12.796-.902-4.88-1.91-9.74-2.304-14.7-.108-1.3.322-1.88 1.578-2.067 1.81-.27 2.588.105 3.473 1.72 1.12 2.047 2.196 4.116 3.34 6.15 2.88 5.127 6.11 10.057 8.678 15.36.22.452.477.91.81 1.273.58.62 1.313.962 2.19.82 1.9-.314 3.205-2.287 2.587-4.08-.363-1.045-.912-2.037-1.48-2.992-1.61-2.7-3.254-5.382-4.913-8.053-1.874-3.014-3.778-6.01-5.67-9.015-.452-.72-.775-1.368.012-2.155 1.1-1.1 1.202-2.503.906-3.976-.458-2.283-.85-4.578-1.332-6.856-1.03-4.85-2.106-9.694-3.152-14.544-.117-.548.058-1.018.59-1.26 1.016-.452 2.037-.9 3.074-1.305 7.362-2.88 14.728-5.74 22.087-8.624.582-.227 1.16-.47 1.75-.178 1.855.91 3.78.522 5.69.362 2.755-.23 4.722-1.742 6.113-4.02.85-1.395 1.342-2.934 1.443-4.598.167-2.87-.29-5.653-.96-8.427zM18.358 67.967c-.552.28-1.227-.15-1.347-.83-.122-.693-.175-1.402-.236-1.903.037-.61.05-1.02.094-1.42.096-.852.893-1.583 1.884-1.652.243-.018.623.176.737.384.287.523.46 1.112.68 1.675 1.21 3.06.22 2.708-1.81 3.745zm10.96-1.213l-.14-.36c-.034-.01-.067-.017-.1-.026l-.017-.112c-.48-.208-.52-.627-.46-1.088.013-.083.085-.165.146-.23.018-.015.15.03.15.056.063.42.112.843.164 1.264.03.014.045.032.08.045l.035.094.343.09-.205.266zm6.636-3.35c-.794.577-1.208.467-1.58-.458-.186-.47-.302-.964-.498-1.427-.358-.85-1.205-1.008-1.965-.374-.15.123-.234.322-.35.484-.22.31-.477.294-.617-.03-.238-.556-.448-1.126-.59-1.712-.117-.486-.093-1.006-.18-1.502-.218-1.245-.775-2.037-1.234-1.794-.833.443-.937 1.252-.98 2.072-.023.4-.004.805-.004 1.885.06.332.245 1.32.41 2.31.03.186-.04.39-.064.587-.23-.072-.5-.09-.686-.222-.742-.54-1.34-.114-1.933.264-.447.287-.692.16-.9-.29-1.124-2.43-1.296-5.062-1.622-7.66-.095-.787.374-1.347 1.073-1.665.456-.21.955-.317 1.423-.5 2.733-1.068 5.36-2.35 7.92-3.788.554-.31 1.012-.117 1.157.445.126.486.323.99.3 1.472-.176 3.485.503 6.827 1.546 10.123.3.954.173 1.193-.624 1.773zm6.38-2.295c-.133-.076-.317-.118-.387-.23-.146-.24-.267-.513-.325-.787-.018-.09.18-.245.305-.33.058-.04.237-.007.264.044.136.243.235.506.33.722l-.186.58zm12.85-10.51c-.193-.255-.9-.165-1.083.14-.253.42-.58.873-.623 1.333-.092 1.003-.028 2.02-.028 3.032h.1c0 .804.016 1.61-.007 2.413-.014.434-.61.897-1.08.88-.454-.02-.773-.257-.87-.69-.22-.982-.396-1.976-.598-2.962-.162-.786-.277-1.59-.523-2.347-.22-.693-1.167-.904-1.79-.47-.592.41-1.106.9-1.292 1.627-.272 1.077-.572 2.142-.262 3.288.18.676.19 1.402.235 2.108.012.174-.143.356-.22.533-.252-.15-.622-.238-.736-.46-.813-1.64-1.376-3.36-1.533-5.204-.074-.9-.24-1.8-.447-2.68-.18-.738-1.124-.977-1.698-.422-.348.335-.71.77-.82 1.217-.234.98-.32 1.997-.46 2.997-.056.4-.06.81-.16 1.198-.04.16-.256.395-.397.395-.278.003-.62-.06-.822-.228-.214-.183-.36-.503-.43-.79-.8-3.348-1.55-6.695-1.312-10.188.06-.932.377-1.525 1.205-1.9.923-.415 1.826-.874 2.752-1.29 3.23-1.45 6.405-3.01 9.472-4.79 1.136-.657 2.33-1.23 3.544-1.732 3.473-1.436 4.417-1.663 4.46-1.3.175 1.496.256 3.002.405 4.5.238 2.416.408 4.844.79 7.238.287 1.798 1.006 3.495 1.907 5.096.298.53.625 1.05.83 1.615.065.176-.197.675-.364.702-1.478.24-3.008.668-4.242-.7-.192-.21-.542-.468-.763-.426-1.553.305-2.346-.68-3.14-1.73zm19.423 29.533c-2.813-.597-5.658-.41-8.494-.44-1.62-.018-3.243.113-4.864.126-1.57.01-2.22-.657-2.26-2.21-.006-.204 0-.406 0-.61.003-.1-.004-.205.02-.302.826-3.308.305-6.662.398-9.996.032-1.112.094-2.226.217-3.33.02-.2.39-.41.64-.517.107-.045.42.133.47.273.2.55.663 1.043.404 1.715-.516 1.33-.325 2.58.453 3.765.165.248.368.557.347.82-.11 1.53.956 1.84 2.082 2.095 2.197.5 4.24.017 6.13-1.1 1.52-.9 2.747-2.703 1.824-4.945-.384-.936-.747-1.882-1.08-2.837-.195-.567-.343-1.156-.45-1.75-.1-.58.204-1.142.61-1.24.54-.13 1.044.023 1.372.43.305.38.584.847.68 1.314.405 1.982.768 3.973 1.088 5.97.452 2.798.835 5.606 1.287 8.404.157.998.463 1.973.623 2.97.143.9-.563 1.595-1.5 1.398zm-9.487-14.18c.19-.89 1.005-1.84 1.632-1.825.144.004.402.238.41.373.037.903-.128 1.75-.91 2.338-.076.06-.187.07-.282.105-.4.08-.94-.55-.85-.99zm31.33-23.33c-1.152.206-2.22.15-3.044-.844-.126-.156-.29-.284-.45-.405-.69-.533-1.17-.597-1.64-.27-.567.398-.704.96-.65 1.596.025.3.052.616.155.895.318.837-.06 1.423-.74 1.764-1.476.744-1.92 1.103-3.017-.534-.28-.42-.562-.845-.883-1.232-.357-.432-1.203-.476-1.676-.126-.683.506-1.144 1.157-1.18 2.026-.023.605.01 1.216.05 1.82.045.693-.272 1.114-.87 1.438-1.61.878-2.378.57-2.826-1.25-.243-.982-.37-1.99-.555-2.984-.17-.9-.856-1.65-1.504-1.667-.926-.02-2.04.844-2.174 1.796-.11.797-.088 1.613-.107 2.42-.007.303.08.61.05.91-.035.358-.15.71-.226 1.065-.196-.34-.432-.665-.578-1.023-.267-.657-.46-1.34-.72-1.996-.15-.372-.345-.735-.575-1.064-.586-.848-2.054-.743-2.58.187-.402.715-.627 1.46-.48 2.32.245 1.4.535 2.773 1.11 4.087.19.448.285.96.3 1.447.004.137-.443.417-.663.4-.267-.022-.54-.26-.763-.46-2.865-2.507-4.594-5.657-5.006-9.43-.385-3.517-.585-7.056-.857-10.585-.024-.303-.026-.608-.02-.91.008-.758.275-1.366.98-1.75 1.42-.774 2.8-1.63 4.25-2.347 1.72-.853 3.477-1.647 5.25-2.384 4.776-1.983 9.365-4.333 13.84-6.913.79-.456 1.6-.877 2.41-1.295.488-.252.805-.075.813.432.005 1.115 0 2.227 0 2.627-.21 3.37.203 5.948.962 8.495.69 2.322 1.23 4.69 1.843 7.038.533 2.063 1.19 4.078 2.275 5.93.245.424.035.684-.5.78zm15.078-.536c-.654.646-1.555.702-2.128.008-.582-.697-1.13-1.436-1.57-2.224-3.087-5.52-5.34-11.342-6.307-17.62-.245-1.597-.525-3.193-.693-4.8-.083-.786.002-1.6.094-2.394.09-.784.533-1.06 1.248-.885.49.12.973.278 1.468.387.742.165 1.24.612 1.63 1.248 3.3 5.397 5.69 11.175 7.19 17.312.356 1.466.438 2.997.64 4.425-.102 1.722-.323 3.308-1.572 4.547z"/></svg>