<svg xmlns="http://www.w3.org/2000/svg" width="128" height="128" viewBox="0 0 128 128"><path d="M92.925 85.936c-1.146-3.57-2.25-7.15-3.356-10.733-1.51-4.91-2.953-9.845-4.517-14.737-1.76-5.507-3.654-10.97-5.102-16.576-1.1-4.264-2.77-8.33-4.38-12.416-.667-1.692-1.91-2.437-3.71-2.492-1.6-.047-3.197-.245-4.793-.392-1.28-.117-2.544-.23-3.844-.064-1.23.158-1.978.736-2.302 1.895-.375 1.34-.726 2.684-1.083 4.023-.083.313-.227.363-.465.156-.08-.07-.177-.118-.254-.19-.35-.322-.443-.726-.307-1.164.536-1.74 1.105-3.467 1.614-5.214.11-.385.05-.833.01-1.247-.035-.37-.763-.7-1.01-.467-.465.433-1.013.835-1.314 1.37-1.835 3.267-3.804 6.482-5.365 9.88-2.5 5.45-4.644 11.062-7.083 16.545-2.706 6.077-5.054 12.278-7.075 18.612-.684 2.142-1.563 4.222-2.23 6.368-.89 2.864-.05 3.934 3.03 4.062.428.017.863.04 1.287-.017 1.83-.245 3.227-1.08 3.85-2.925.137-.405.325-.802.41-1.218.733-3.472 2.012-6.773 3.164-10.11 1.432-4.15 2.954-8.264 4.14-12.5.722-2.572 1.638-5.107 2.7-7.558 1.357-3.147 2.917-6.206 3.85-9.527.05-.184.47-.267.715-.395.096.188.29.384.27.56-.098.846-.3 1.68-.384 2.525-.474 4.907-1.77 9.678-2.285 14.584-.392 3.724-1.14 7.407-1.598 11.124-.576 4.687-1.414 9.31-2.778 13.835-.434 1.432-.867 2.877-1.105 4.35-.465 2.85-.47 5.76-1.242 8.568-.056.204-.092.443-.043.64.57 2.16.825 4.444 2.673 6.055 1.05.917 2.037 1.906 3.023 2.894 1.06 1.06 2.155 2.1 3.112 3.252 2.74 3.295 5.417 6.644 8.125 9.97.34.415.7.814 1.082 1.19 1.685 1.673 2.814 1.955 5.114.412.437-.296.792-.72 1.182-1.086.782-.734 1.525-1.515 2.347-2.2 3.385-2.828 6.442-5.978 9.352-9.288.843-.96 1.845-1.788 2.798-2.645.718-.645 1.462-1.265 2.222-1.86.877-.69 1.397-1.59 1.77-2.622.635-1.735 1.046-3.49.814-5.105.483-2.976-.203-5.55-1.027-8.117zm-51.68-7.47c-.107.165-.3.298-.484.383-.164.076-.425.153-.544.076-.14-.093-.264-.36-.24-.53.237-1.7 1.053-3.148 2.04-4.513.057-.077.176-.11.265-.164l.236.444c-.376 1.352-.37 2.95-1.267 4.303zM63.1 54.812c.042 0 .068-.01.103-.01.02-.347.22-.507.544-.534.005-.038.017-.068.018-.108.072-.02.147-.043.215-.072l.134-.176c-.03.053-.043.133-.09.16-.014.008-.032.008-.045.015-.045.052-.087.11-.128.163-.04 0-.07.01-.107.015-.038.323-.21.512-.544.533-.002.036-.014.062-.012.1l-.2.213.11-.3zm24.182 41.44c-.2.98-.472 1.853-1.426 2.386-.354.2-.65.54-.91.867-2.513 3.217-5.174 6.288-8.438 8.787-.416.32-.736.78-1.047 1.214-.75 1.04-1.95 1.282-3.027 1.717-.21.083-.65-.096-.83-.293-1.853-2.08-3.68-4.186-5.507-6.288-.73-.84-1.195-1.682-.75-2.912.27-.747-.306-1.38-1.137-1.643-.3-.094-.645-.046-.94-.146-.666-.226-.95-.993-.58-1.55.29-.445.713-.816.95-1.284.18-.36.234-.822.225-1.233-.013-.808-.888-1.37-1.602-1.02-.47.23-.864.627-1.325.885-.107.06-.395-.112-.535-.248-.144-.135-.325-.4-.28-.53.137-.392.33-.784.588-1.105.808-1 1.697-1.934 2.47-2.956.376-.496.71-1.115.28-1.78-.542-.84-1.232-.607-1.97-.287-.24.103-.534.077-.815.083-.013.03-.03.057-.043.086-.066.043-.14.08-.202.128-.04.032-.06.083-.09.125.068-.113.14-.225.208-.336.043-.005.085-.004.128-.005.63-1.5 1.984-2.386 3.02-3.54.424-.475.913-.902 1.29-1.41.395-.532.23-1.592-.267-2.076-.49-.48-1.12-.73-1.756-.453-.776.336-1.486.825-2.23 1.235-.174.098-.424.254-.552.194-.146-.065-.275-.35-.267-.532.06-1.062.102-2.133.267-3.185.184-1.17.565-2.25 1.52-3.09.552-.485.998-1.117 1.392-1.744.475-.757.14-1.845-.768-2.03-.987-.203-1.138-.7-1.152-1.532-.018-1.138.373-2.09 1.138-2.897 1.4-1.47 2.843-2.9 4.21-4.4.564-.618 1.018-1.354 1.44-2.08.3-.515-.336-1.36-.96-1.34-.316.01-.673-.005-.932.138-.65.354-1.285.757-1.875 1.205-.677.512-1.3 1.094-1.946 1.646-.063-.086-.2-.218-.18-.25.437-.705.864-1.425 1.355-2.094.762-1.03 1.55-2.042 2.37-3.025 1.156-1.386 2.13-2.94 3.752-3.9.275-.163.463-.75.42-1.11-.065-.54-.488-.997-1.065-1.04-.82-.065-1.652-.01-2.478.002l-.013.042c-.02 0-.03.006-.046.008 0 .395-.22.548-.565.562-.007.035-.018.066-.02.102-.07.03-.14.056-.205.09l-.12.192c.02-.06.02-.14.064-.17.016-.01.036-.015.054-.02.037-.065.075-.125.112-.185.043.003.075-.005.112-.007.053-.312.207-.533.565-.562 0-.02.006-.03.005-.05h.053c.15-.483.274-.975.463-1.44.604-1.488 1.265-2.953 1.84-4.45.304-.79-.416-1.482-1.27-1.265-.41.104-.83.23-1.19.443-.55.324-1.046.742-1.58 1.103-.17.115-.384.17-.58.254-.095-.29-.266-.577-.27-.865-.008-.86.02-1.718.087-2.575.16-2.135.338-4.27.534-6.403.05-.527.133-1.07.317-1.56.23-.612.65-1.1 1.317-1.318 1.668-.55 3.377-.588 5.084-.307.327.053.77.49.846.824.72 3.126 1.458 6.255 2.025 9.41.68 3.8 1.426 7.57 2.7 11.23.486 1.403.766 2.892 1.02 4.365 1.798 10.486 4.93 20.61 8.34 30.654.347 1.012.673 2.032 1.01 3.05.38 1.144.415 2.296.175 3.49zM58.226 20.605c.504 1.65 1.293 3.18 2.366 4.533.315.397.776.826 1.24.93 1.652.37 3.338.815 5.01.804.952-.004 1.883.02 2.832.1 1.064.092 2.144.114 3.21.056 2.03-.113 3.66-.947 4.867-2.672 2.007-2.863 3.098-6.09 3.954-9.416.156-.608.107-1.28.077-1.92-.087-1.924-1.087-3.28-2.983-3.686-2.08-.443-4.14-1.11-6.328-.907-.85.077-1.715-.02-2.567-.096-1.808-.15-3.613-.34-5.42-.513-.003.053-.007.11-.014.162-.965 0-1.934-.065-2.89.015-.956.08-1.9.284-2.84.47-.91.18-1.5.796-1.893 1.594-.69 1.4-.813 2.862-.378 4.372.592 2.055 1.136 4.126 1.757 6.172zm10.067-7.588l.092.004c2.677.27 5.126.503 7.57.773.558.06.962.656.787 1.178-.512 1.516-1.054 3.02-1.66 4.5-.14.344-.524.66-1.028.3-.896-.636-1.766-.736-2.523.24-.222.29-.42.374-.553-.074-.245-.818-.462-1.65-.768-2.445-.095-.24-.445-.51-.684-.52-.195-.005-.528.335-.58.57-.11.517-.06 1.067-.117 1.597-.03.235.127.715-.356.58-.252-.07-.544-.415-.602-.682-.333-1.564-.64-3.136-.884-4.718-.145-.947.3-1.337 1.307-1.3zm-6.872.196c.12.12.327.245.317.34-.02.157-.18.297-.282.445-.068-.08-.198-.162-.192-.235.017-.178.096-.352.16-.55z"/></svg>