<svg xmlns="http://www.w3.org/2000/svg" width="128" height="128" viewBox="0 0 128 128"><path d="M114.448 80.382c-.088-1.045-.573-2.067-.97-3.06-.146-.37-.515-.807-.868-.908-2.2-.638-3.525-2.39-5.105-3.827-1.195-1.088-2.7-1.933-3.605-3.21-1.043-1.47-2.272-1.83-3.86-1.753-1.185.06-2.425-.115-3.547.17-2.453.63-4.923.428-7.394.487-1.17.03-2.374-.166-3.467.525-.183.117-.642-.03-.87-.194-.613-.434-1.17-.953-1.75-1.432-.82-.68-.743-.954.352-1.498.667-.332 1.39-.628 1.93-1.12 1.44-1.296 2.838-2.647 4.172-4.052 1.707-1.797 3.228-3.78 5.02-5.48 2.81-2.66 5.078-5.872 8.364-8.045 1.046-.693 1.607-1.733 1.356-3.067-.043-.21-.032-.437-.096-.64-.298-1 .21-1.604.95-2.184 1.52-1.195 3-2.447 4.487-3.686 1.784-1.49 2.27-3.027 1.472-5.165-.487-1.305-1.106-2.575-1.794-3.79-1.22-2.154-2.578-4.232-3.794-6.39-.765-1.357-1.845-2.34-3.075-3.25-2.062-1.53-4.27-1.53-6.347-.37-2.148 1.203-4.123 2.717-6.324 3.854-.28.146-.523.384-.75.612-1.356 1.346-2.593 2.904-4.814 2.717-1.402.793-2.834 1.536-3.858 2.86-.858 1.104-1.717 2.222-2.69 3.22-3.233 3.324-6.535 6.58-9.774 9.897-1.35 1.38-2.606 2.858-3.9 4.292-.31.34-.723.326-1.09-.072-.952-1.027-1.892-2.062-2.847-3.083-.467-.5-.69-1.073-.635-1.76.213-2.59.006-5.135-.43-7.712-.844-4.955-.748-4.974-4.044-8.83-.14-.163-.3-.312-.425-.487-1.773-2.43-3.98-4.538-5.325-7.29-.203-.417-.742-.767-1.205-.945-2.598-1.013-5.22-1.976-7.842-2.933-.293-.107-.638-.092-.958-.098-1.616-.034-3.232-.047-4.848-.088-1.444-.035-2.776.33-3.98 1.116-1.633 1.067-1.687 3.203-.06 4.232 1.088.69 2.254 1.262 3.41 1.838 1.897.942 3.4 2.323 4.31 4.215.975 2.032 1.797 4.142 2.612 6.245.123.316-.038.894-.277 1.17-1.472 1.72-2.947 3.442-4.53 5.056-2.02 2.064-4.416 3.373-7.413 3.452-1.382.035-2.555-.222-3.5-1.267-1.3-1.434-2.666-2.817-3.885-4.322-1.1-1.358-1.726-2.906-1.638-4.762.088-1.925-.262-2.14-2.277-2.15-.215 0-.43.01-.645.02-2.94.123-2.467-.227-3.348 2.796-.15.51-.13 1.07-.16 1.61-.21 3.68.064 7.32.88 10.91.31 1.37.678 2.657 2.053 3.49.69.41 1.148 1.258 1.63 1.966 2.13 3.144 4.697 5.892 7.472 8.467 1.242 1.15 2.564 1.835 4.315 1.87 2.477.045 4.944.244 7.43.066 2.366-.17 4.745-.094 7.112-.24 1.775-.104 2.758.96 3.694 2.18.303.39-.09.56-.288.774-4.322 4.672-9.363 8.61-13.608 13.36-1.29 1.445-2.635 2.844-3.972 4.246-.672.7-1.317 1.44-2.08 2.026-.902.693-1.49 1.504-1.728 2.624-.198.94-.578 1.835-.776 2.773-.803 3.797-1.907 7.5-3.3 11.125-1.002 2.608-1.997 5.225-2.474 8.006-.22 1.28-.733 2.46-1.522 3.528-.507.687-.93 1.45-1.282 2.226-.38.843-.03 2.033.66 2.652.497.448 1.71.537 2.454.13.375-.203.683-.53 1.056-.736.648-.363 1.29-.78 1.99-.992 6.198-1.865 12.2-4.216 18.03-7.016.865-.416 1.798-.74 2.735-.93 1.973-.405 3.59-1.387 4.996-2.78 1.836-1.822 3.69-3.627 5.49-5.487 3.37-3.484 6.412-7.28 10.12-10.445 1.12-.957 1.595-2.278 1.446-3.778-.043-.42-.072-.835-.107-1.252l-.02-.013-.01-.02c-.404-.086-.83-.125-1.204-.278-.696-.282-1.288-.082-1.803.34-.494.41-.955.876-1.365 1.37-1.932 2.335-4.15 4.383-6.484 6.297-3.427 2.81-6.492 5.974-9.367 9.324-.278.325-.564.645-.874.94-.357.34-1.255.135-1.367-.312-.42-1.698-.317-3.42-.028-5.11.078-.452.6-.87.992-1.22 4.976-4.46 9.967-8.9 14.944-13.355.638-.572 1.3-1.136 1.826-1.803.98-1.237.943-1.266 1.805-.274.847.98 1.724 1.934 2.527 2.945.235.294.273.75.395 1.136.01 0 .018.004.026.006l.003.03c1.75.885 2.433 2.547 3.097 4.24.888 2.263.877 4.642.885 7.004.01 2.17.224 4.293.84 6.375.15.514.31 1.045.33 1.573.03.936.455 1.624 1.092 2.257 1.84 1.82 3.663 3.656 5.478 5.498 1.054 1.07 2.187 2.09 3.085 3.283.693.924 1.454 1.49 2.562 1.766 2.292.57 4.564 1.23 6.85 1.845.618.168 1.253.284 1.876.453 2.113.574 3.798-.272 5.29-1.643.294-.27.626-.77.57-1.102-.246-1.448-.136-3.054-1.508-4.11-.512-.394-.93-.91-1.46-1.274-2.036-1.395-4.082-2.782-6.164-4.112-.8-.512-1.267-1.165-1.33-2.08-.075-1.072-.046-2.157-.14-3.228-.076-.857.285-1.46.908-1.948 2.37-1.856 4.81-3.632 6.794-5.933.273-.32.68-.533 1.056-.734.378-.194.798-.444 1.192-.435 1.395.038 2.8.093 4.177.293 1.274.184 2.13 1.038 2.51 2.256.353 1.122.56 2.292.868 3.44.474 1.76.95 3.523 1.49 5.265.157.516.6.928 1.183.98 2.164.202 4.312.26 6.305-.842.68-.373 1.26-.81 1.406-1.653.164-.948.48-1.885.55-2.84.356-4.96-.22-9.894-.64-14.828zm-77.017 21.91c-2.496 1.24-4.94 2.61-7.623 3.436-.32.096-.898-.094-1.134-.352-.934-1.027-1.745-2.165-2.674-3.2-.564-.63-1.257-1.14-1.89-1.707.222-1.037.403-2.084.675-3.1.747-2.804 1.53-5.595 2.31-8.388.13-.467.543-.64.993-.442.49.214.95.566 1.46.673 1.562.314 2.26 1.107 2.28 2.797.018 1.368.975 2.01 2.39 2.128.213.02.43.02.643.02 3.568-.047 3.32-.194 3.137 4.033.032.368.09 1.44.23 2.5.1.75-.185 1.298-.797 1.6zM59.65 74.07c-2.23.468-3.706 2.085-5.315 3.487-2.842 2.477-5.7 4.936-8.48 7.483-1.422 1.3-2.768 2.71-3.992 4.197-.697.85-1.4 1.267-2.468 1.133-.32-.04-.646-.006-1.032-.006-.476.02-1.013.064-1.553.066-.672.004-1.022-.267-1.096-.89-.088-.738.163-1.664-.493-2.118-.67-.465-1.553-.672-2.372-.873-1.038-.25-2.112-.35-3.157-.567-.502-.107-.67-.597-.383-.98.32-.43.623-.886 1.005-1.256 2.94-2.845 5.89-5.68 8.85-8.505.702-.67 1.43-1.312 2.162-1.947 3.088-2.677 6.045-5.487 8.875-8.437.607-.636 1.044-.66 1.642-.1.078.07.166.14.23.224.89 1.18 2.33 1.936 2.723 3.502-1.006.795-2.026 1.576-3.018 2.392-.66.544-1.3 1.118-1.918 1.712-2.71 2.61-5.353 5.285-8.278 7.67-1.745 1.42-3.324 3.056-4.907 4.665-.325.33-.427.96-.483 1.465-.075.704.75 1.248 1.296.875 1.42-.962 2.876-1.888 4.192-2.976 3.227-2.668 6.703-5.033 9.66-8.033 1.13-1.144 2.42-2.138 3.71-3.11.823-.624 1.317-1.698 2.486-1.852.744.76 1.488 1.517 2.232 2.28.21.217.18.436-.115.496zm3.232-19.974c-1.816 2.624-1.98 5.635-2.086 8.66-.003.108-.013.22-.047.32-.035.097-.1.26-.163.263-.176.015-.403.024-.526-.074-1.222-.974-1.924-2.13-2.083-3.804-.224-2.345-.82-4.655-1.297-6.976-.13-.624-.344-1.25-.623-1.826-.11-.22-.53-.445-.768-.41-.258.04-.62.352-.67.6-.17.84-.25 1.7-.315 2.555-.083 1.07-.107 2.147-.195 3.22-.01.097-.33.282-.426.24-1.47-.61-2.62-1.496-2.682-3.275-.026-.753-.064-1.508-.142-2.257-.045-.422-.094-.888-.3-1.24-.197-.342-.564-.727-.92-.8-.33-.065-.756.227-1.108.422-.174.093-.272.323-.412.487-.47.557-.096 1.723-1.032 1.824-.687.075-1.422-.363-2.144-.527-1.9-.43-3.794-.64-5.763-.345-2.236.338-4.496.392-6.75-.08-.94-.2-1.933-.14-2.9-.225-2.45-.208-4.48-1.055-6.122-3.088-2.19-2.71-4.232-5.442-5.104-8.88-.053-.21-.13-.42-.132-.63 0-.206.082-.41.13-.617.17.043.404.02.506.132.587.626 1.205 1.24 1.696 1.938 1.27 1.808 2.827 3.25 4.896 4.075.837.333 1.3 1.23 2.02 1.507.685.26 1.693-.402 2.43-.195 3.26.904 5.677-.578 7.872-2.62 2.92-2.713 5.81-5.473 7.787-9.01.204-.37.506-.704.824-.983.968-.847.907-1.85.587-2.957-.91-3.128-2.275-6.037-4.04-8.772-.455-.71-.306-1.106.454-1.573.184-.115.373-.222.565-.316.703-.354 1.28-.29 1.72.268.395.505.742 1.05 1.074 1.6 2.053 3.414 3.833 7 6.502 10.015.463.525.516 1.157.512 1.816-.005 1.725 0 3.45 0 5.176h-.08c0 1.618.03 3.234-.01 4.853-.034 1.465.473 2.585 1.978 2.91.94.2 1.508.76 2.05 1.436 1.69 2.1 3.38 4.197 5.042 6.317.165.217.305.677.192.84zM98.757 35.5c.926-.577.994-1.448.592-2.236-.436-.85-.313-1.362.422-1.877.437-.305.797-.72 1.205-1.067 1.056-.89 1.28-.964 2.914-.94.21.142.633.412 1.046.7.08.056.133.167.18.263 2.04 4.032 2.156 2.973-.945 5.7-.724.643-1.475 1.25-2.22 1.868-.87.727-1.176.743-1.91.05-.47-.44-.932-.892-1.362-1.37-.325-.36-.37-.81.076-1.09zm-15.443-2.37c.774-1.01 1.587-1.99 2.4-2.97.04-.042.197.01.3.016.186.1.402.166.55.305 1.174 1.105 2.345 2.21 3.503 3.33 1.922 1.867 3.602 3.987 5.928 5.408.177.11.334.28.46.448.8 1.106 2.115 1.84 2.405 3.312-.88 1.067-1.743 2.147-2.648 3.19-.336.385-.808.29-1.148-.016-1.12-.997-2.272-1.972-3.302-3.06-2.357-2.494-4.66-5.043-6.97-7.588-.5-.55-.945-1.163-1.38-1.77-.11-.155-.186-.49-.098-.603zM68.107 47.202c3.637-3.047 7.253-6.114 10.588-9.496.608-.62 1.016-.597 1.653-.008.16.143.316.29.463.45 3.357 3.65 6.71 7.3 10.057 10.956.467.512.482.91.055 1.43-1.09 1.332-2.154 2.682-3.302 3.956-2.597 2.894-4.915 5.992-7.074 9.216-.107.16-.355.226-.54.337-.167-.1-.372-.163-.5-.304-.43-.477-.81-1.007-1.255-1.47-2.424-2.555-2.272-1.805.156-4 .797-.723 1.574-1.426 2.278-2.253 1.117-1.306 2.41-2.46 3.612-3.695.37-.38.73-.785 1.02-1.23.416-.642-.192-1.62-.96-1.645-.907-.03-1.726.24-2.406.796-.833.678-1.612 1.43-2.37 2.192-1.67 1.68-3.314 3.39-4.974 5.077-.38.386-.78.307-1.116-.056-.585-.633-1.13-1.3-1.722-1.925-.38-.4-.333-.75.045-1.076 1.794-1.55 3.533-3.17 5.41-4.61 2.28-1.746 3.685-4.172 5.318-6.424.333-.45.258-1.106-.17-1.487-.374-.33-.92-.678-1.377-.66-.867.03-1.668.412-2.126 1.247-1.427 2.607-3.67 4.49-5.817 6.443-1.044.947-2.04 1.902-2.86 3.055-.456.643-.757.655-1.28.2-.325-.282-.676-.547-.955-.87-.632-.73-1.568-1.418-1.75-2.256-.242-1.136 1.217-1.31 1.9-1.885zm40.15 43.375c-.174-.126-.43-.213-.502-.38-.378-.887-.804-1.768-1.035-2.698-.57-2.284-2.034-3.74-4.092-4.684-.877-.4-1.803-.693-2.684-1.088-2.86-1.29-5.468-.668-7.902 1.06-1.138.807-2.194 1.738-3.296 2.595-1.53 1.188-3.016 2.443-4.62 3.523-1.89 1.274-2.657 3.076-2.683 5.22-.04 3.33-.077 6.68 1.3 9.835.06.136.004.32-.03.498.02.014.035.03.055.043.034.06.07.12.107.18l.23.115c-.063-.014-.148-.003-.186-.04-.023-.02-.03-.05-.048-.075-.062-.032-.124-.064-.186-.093.004-.044.014-.086.02-.13-1.966-1.297-3.452-3.123-5.15-4.716-.966-.902-1.553-2.104-1.735-3.395-.343-2.443-1.136-4.832-.952-7.34.015-.212.06-.455-.014-.643-.71-1.853-.117-3.556.56-5.26 1.023-2.566.952-5.265.92-7.956-.004-.52-.532-1.1-.99-1.12-.598-.03-1.025.287-1.258.815-.173.393-.32.804-.412 1.22-.235 1.047-.42 2.11-.653 3.16-.037.17-.202.436-.327.445-.18.012-.42-.127-.555-.272-.437-.474-.896-.945-1.233-1.49-.205-.332-.386-.85-.277-1.19.576-1.797.31-3.634.352-5.452.04-1.83.004-3.66.025-5.49.008-.78-.15-1.49-.615-2.126-.47-.645-1.517-.63-1.9.052-.686 1.237-1.18 2.534-1.258 3.966-.053.966-.094 1.937-.203 2.898-.03.254-.273.512-.48.698-.053.048-.405-.122-.51-.27-.75-1.04-1.668-2.044-1.087-3.503-.102-3.223-.207-6.448-.296-9.67-.01-.423.058-.85.11-1.27.01-.083.1-.206.165-.22.096-.012.222.044.3.108.238.215.47.437.687.674 3.18 3.505 6.35 7.022 9.54 10.522 1.23 1.35 2.486 2.68 3.75 4.007.59.624 1.21 1.227 1.834 1.82.936.88 1.94 1.296 3.196.555.447-.26 1.004-.367 1.53-.46 2.322-.412 4.653-.788 6.978-1.19 1.178-.204 2.344-.273 3.518.042.62.165 1.28.4 1.89.334 2.04-.22 3.463.672 4.736 2.16 1.257 1.47 2.7 2.778 4.003 4.213.416.457.87 1.06.925 1.633.288 3.103.457 6.218.648 9.33.013.157-.14.327-.218.49zm1.887 5.28c-.083.032-.186.06-.267.038-.08-.02-.144-.107-.213-.16.166-.016.335-.03.506-.045-.01.06 0 .156-.027.167z"/></svg>