<svg xmlns="http://www.w3.org/2000/svg" width="128" height="128" viewBox="0 0 128 128"><path d="M121.563 26.168c-.785-1.606-.81-1.685-2.29-1.53-1.91.208-3.81.5-5.708.804-.562.09-.917.54-1.09 1.073-.1.3-.195.645-.147.95.354 2.247-.832 3.886-2.114 5.5-.4.505-.846.998-1.106 1.57-.84 1.84-2.34 2.12-4.03 1.67-1.117-.3-2.236-.78-3.215-1.398-1.227-.78-1.944-1.982-1.917-3.516.02-.964.11-1.93.077-2.894-.06-1.623.73-2.613 2.176-3.195.795-.32 1.572-.682 2.36-1.016.69-.3 1.392-.555 2.063-.885.97-.48 1.402-1.295 1.28-2.374-.058-.53-.026-1.13-.267-1.568-.78-1.437-1.08-3.02-1.566-4.54-.215-.68-.626-1.096-1.382-1.1-1.824-.003-3.67.16-5.467-.07-2.19-.28-4.013.412-5.764 1.52-1.358.858-2.725 1.722-3.992 2.705-2.22 1.717-4.153 3.73-5.653 6.114-.396.627-.863 1.312-.944 2.013-.208 1.795-.496 3.615.18 5.407.714 1.9 1.297 3.848 2.05 5.728.47 1.173.29 2.05-.644 2.86-1.052.914-2.085 1.848-3.096 2.81-.69.658-1.406 1.314-1.978 2.075-1.742 2.32-3.506 4.61-5.672 6.558-1.515 1.362-3.027 2.727-4.53 4.1-.703.644-1.384 1.312-2.076 1.967-1.12-.317-1.594-1.355-2.306-2.114-.805-.857-1.458-1.852-2.258-2.72-.5-.54-1.088-1.054-1.736-1.387-1.13-.58-2.492.27-2.56 1.552-.027.512.06 1.093.3 1.536.348.654.83 1.254 1.343 1.796 2.29 2.417 4.355 5.02 6.358 7.677 1.16 1.536 2.37 3.05 3.66 4.485 4.163 4.627 8.06 9.467 11.816 14.427 3.11 4.112 6.42 8.043 10.225 11.552 1.81 1.672 3.52 3.46 5.215 5.254.787.835 1.74 1.587 2.035 2.79-.68.684-1.362 1.363-2.037 2.05-.45.46-.868.952-1.342 1.39-.386.362-.83.74-1.42.455-.574-.284-1.014.128-1.513.227-1.198.246-2.085-.197-2.78-1.157-.81-1.125-1.66-2.223-2.46-3.355-1.05-1.49-2.052-3.01-3.102-4.5-1.047-1.487-2.077-2.993-3.21-4.415-1.466-1.845-3.024-3.62-4.547-5.424-4.365-5.165-8.395-10.584-12.31-16.092-1.302-1.83-2.785-3.488-4.532-4.954-1.376-1.152-2.883-2.223-3.86-3.827-1.06-1.733-2.23-3.406-3.346-5.11-.533-.806-1.056-1.63-2.016-2-.607-.235-.567-.538-.138-.888 2.485-2.038 4.953-4.106 7.802-5.638.282-.148.555-.322.805-.522.99-.794 1.188-1.862.386-2.805-.83-.976-1.78-1.853-2.707-2.74-.704-.675-1.344-1.31-1.46-2.393-.116-1.093-.81-1.935-1.647-2.677-.797-.708-1.544-1.495-2.205-2.332-1.04-1.315-1.04-2.1.115-3.38.853-.946 1.818-1.83 2.863-2.553 3.106-2.146 6.505-3.723 10.08-4.917 2.174-.73 4.37-.965 6.643-.424.818.195 1.715.246 2.547.145 2.135-.265 3.248-3.232 1.817-4.732-.738-.776-1.52-1.51-2.274-2.272-2.62-2.64-5.756-4.013-9.508-3.96-1.93.03-3.915.26-5.778-.103-2.357-.457-4.474.03-6.59.798-1.3.47-2.573 1.073-3.76 1.784-2.756 1.645-5.36 3.574-8.2 5.057-4.022 2.106-7.59 4.823-11.092 7.637-1.743 1.404-2.976 3.16-1.856 5.606.085.192.072.422.126.627.267 1.042.027 1.895-.86 2.56-.428.32-.8.715-1.2 1.07-.08.07-.16.143-.244.21-.55.455-.893.492-1.36-.052-.864-1.017-1.803-1.773-3.224-1.88-1.397-.102-2.448.545-3.576 1.196-2.144 1.247-4.085 2.747-5.946 4.374-.924.808-1.525 1.768-1.934 2.9-.277.768-.24 1.476.187 2.155.342.54.72 1.055 1.093 1.58 2.675 3.73 5.43 7.41 7.75 11.393.587 1.002 1.427 1.876 2.24 2.722 1 1.045 2.272 1.205 3.558.632 2.06-.91 4.018-1.984 5.78-3.435 1.317-1.09 1.784-2.363 1.522-3.965-.085-.523-.277-1.035-.453-1.536-.447-1.286-.027-2.307.945-3.166.4-.354.782-.74 1.223-1.04 2.528-1.703 1.97-2.008 4.648-.038.518.38 1.055.747 1.625 1.04 1.56.79 2.835 1.905 3.928 3.26.47.58.98 1.146 1.53 1.653.782.717 1.52 1.615 2.454 2.01 1.304.545 1.282 1.9 2.1 2.703.763.75 1.426 1.602 2.086 2.448 1.12 1.437 2.23 2.884 3.296 4.36.814 1.133.782 1.314-.15 2.137-1.608 1.42-3.157 2.923-4.867 4.206-3.02 2.27-5.547 5.058-8.128 7.75-2.763 2.876-5.75 5.476-8.764 8.038-3.455 2.94-6.324 6.388-9.25 9.804-.465.54-.36 1.27.21 1.678.43.308.886.64 1.38.796.87.27 1.405.808 1.954 1.534 1.093 1.448 2.306 2.827 3.598 4.102 1.448 1.433 3.09 2.643 4.84 3.708.952.58 1.806.562 2.695-.032.355-.237.725-.466 1.035-.757 1.254-1.168 2.512-2.335 3.723-3.553 1.82-1.82 3.638-3.644 5.386-5.534 2.397-2.59 5.153-4.837 7.24-7.725.61-.84 1.607-1.386 2.39-2.104.94-.864 2.138-1.62 2.704-2.694 1.247-2.366 3.22-3.948 5.167-5.6.396-.33.78-.26 1.105.14 2.102 2.578 4.19 5.166 6.305 7.728.962 1.166 1.87 2.338 2.264 3.843.133.502.475.956.754 1.407 2.088 3.385 4.604 6.403 7.37 9.266 2.31 2.39 4.96 4.42 7.148 6.93.403.462 1.024.81 1.61 1.014.94.326 1.94.405 2.63-.533.428-.576.96-.78 1.638-.845.992-.1 1.784-.648 2.574-1.23 2.584-1.903 4.794-4.288 7.637-5.856.31-.174.536-.69.595-1.077.164-1.08.046-2.156-.627-3.07-.95-1.295-1.827-2.663-2.918-3.824-2.72-2.888-5.09-6.08-7.97-8.82-.85-.812-1.548-1.782-2.33-2.664-4.046-4.582-8.11-9.152-12.14-13.75-.523-.596-1.392-.96-1.448-1.92.6-.2 1.21-.383 1.803-.61.733-.282 1.2-.86 1.614-1.51 1.623-2.534 3.63-4.75 5.783-6.855 1.298-1.27 2.466-2.673 3.688-4.02.865-.955 1.71-1.93 2.585-2.872.475-.514 1.077-.712 1.744-.4 1.954.914 4.09 1.235 6.16 1.66 2.52.517 5.148.585 7.57-.57 3.74-1.78 7.053-4.085 8.903-7.997.367-.776.747-1.547 1.175-2.29.88-1.527 1.27-3.138 1.21-4.913-.074-2.25-.014-4.507 0-6.76 0-.432.063-.854.55-1.036v-5.8c-.146-.154-.336-.283-.423-.464zm-72.216 20.61c-.205.177-.49.26-.75.376l.012.114c-.074.03-.15.056-.215.096l-.113.156c.03-.053.046-.12.09-.147.007-.005.016-.006.024-.01l.128-.18.075-.03c-.004-.07-.01-.14-.017-.208-.273-2.496-1.133-2.965-3.332-1.82-.19.1-.357.235-.54.346-.513.308-.453-.17-.55-.41-.643-1.62-1.09-1.85-2.594-1.28-.2.074-.382.197-.563.31-.57.36-.604-.03-.77-.46-.593-1.5-1.358-1.898-2.674-1.106-1.39.843-2.71.923-4.268.667-1.465-.244-2.985.02-4.192 1.095-.96.853-1.95 1.68-2.85 2.596-1.294 1.313-2.273 2.814-2.643 4.676-.27 1.365-.648 2.704-1.003 4.046-.047.185-.248.48-.347.466-.282-.035-.648-.123-.802-.33-1.757-2.302-3.484-4.627-5.21-6.953-.513-.688-1.014-1.383-1.496-2.09-.29-.428-.14-.86.204-1.135.836-.67 1.7-1.31 2.59-1.9.88-.583 1.408-.51 2.31.172.425.322.83.678 1.278.96 1.49.932 3.113.774 4.41-.42 1.418-1.304 2.73-2.746 4.26-3.9 1.268-.958 1.624-2.2 1.793-3.6.064-.523.053-1.084-.06-1.596-.4-1.816.404-3.12 1.706-4.218.575-.483 1.18-.94 1.8-1.358 3.55-2.406 7.16-4.732 10.657-7.215 4.094-2.912 8.644-4.14 13.597-4.1 1.178.005 2.355.042 3.533.074.09 0 .18.08.27.122-.106.183-.165.46-.32.535-2.305 1.12-4.646 2.17-6.93 3.328-2.49 1.264-4.865 2.726-7.04 4.493-2.21 1.794-3.247 4.254-3.67 6.942-.156.99.075 2.223.576 3.083 1.173 2.028 2.496 3.998 3.987 5.8 1.692 2.046 1.942 2.022-.346 4.016zm-10.323 57.11c-.41.466-.87.89-1.317 1.34-.408-.178-.723-.257-.966-.434-1.47-1.064-2.926-2.15-4.382-3.235-.4-.303-.508-.685-.107-1.055.94-.87 1.89-1.728 2.863-2.566.1-.086.367-.005.544.04.09.02.167.134.227.22 1.013 1.504 2.035 3.005 3.032 4.523.224.344.462.768.11 1.17zm5.282-5.037c-.336.506-.866.883-1.323 1.327-.373-.14-.75-.162-.926-.363-1.114-1.27-2.187-2.575-3.26-3.877-.4-.485-.33-.956.128-1.368.237-.21.474-.423.727-.615.547-.412.964-.392 1.363.107.925 1.153 1.83 2.323 2.736 3.493.3.384.94.717.553 1.3zm3.7-3.81c-.246.11-.686.23-.808.11-1.36-1.345-2.688-2.715-3.98-4.12-.13-.143-.067-.603.063-.816.22-.352.53-.683.877-.902.205-.132.72-.157.816-.026 1.136 1.532 2.223 3.102 3.303 4.672.103.15.072.395.107.595-.122.172-.21.42-.376.492zm3.452-4.1c-.077.055-.192.055-.29.08-.192-.07-.463-.085-.558-.22-1.035-1.458-2.048-2.933-3.042-4.42-.083-.12-.04-.415.053-.556.356-.523.744-1.024 1.14-1.517.29-.365.81-.37 1.07-.013.247.34.45.715.703 1.05.507.677 1.035 1.335 1.547 2.008 1.172 1.54 1.02 2.438-.622 3.588zm7.11-7.67c-.49.556-.992 1.1-1.52 1.618-.592.576-1.103.576-1.63-.007-.707-.782-1.36-1.62-2.066-2.405-.486-.544-1.02-1.045-1.534-1.563.186-1.037 1.123-1.482 1.74-2.18.208-.235.44-.49.714-.617.23-.107.674-.165.792-.034 1.21 1.323 2.376 2.686 3.536 4.05.123.146.14.38.203.573-.075.192-.103.427-.233.57zm3.41-4.23c-.155.175-.33.44-.57.616-.12.088-.44.094-.535 0-.82-.81-1.628-1.64-2.41-2.49-.342-.37-.25-.765.1-1.1.507-.48 1.098-.596 1.386-.22.696.913 1.36 1.855 2.023 2.794.05.07.008.204.008.398zm44.657-37.256c-.828 1.59-.878 3.285-.858 5.01.008.896-.293 1.195-1.073 1.205-1.003.017-1.33-.306-1.358-1.33-.004-.214 0-.43 0-1.168.043-.225.155-.964.31-1.692.13-.608-.12-1.045-.57-1.38-.534-.397-1.273-.33-1.787.086-.613.49-1.007 1.12-1.143 1.882-.113.63-.16 1.273-.21 1.913-.047.604-.353.98-.916 1.173-.584.203-1.052.066-1.346-.487-.256-.483-.515-.956-1.116-1.042-1.085-.155-2.184-.15-3.068.576-.736.604-1.387 1.327-2.014 2.05-.487.562-.843 1.242-1.33 1.803-1.16 1.35-1.435 1.29-2.34-.363-.05-.096-.062-.21-.115-.3-.53-.89-1.27-1.284-2.11-1.132-.806.15-1.662 1.264-1.46 2.215.217 1.026.62 2.032 1.07 2.99.633 1.332.684 1.308-.37 2.426-.07.075-.15.147-.227.222-.293.297-.654.192-.813-.058-.398-.625-.7-1.31-1.054-1.963-.252-.462-.485-.945-.806-1.357-.347-.446-.864-.66-1.426-.483-.533.174-.917.572-1.02 1.14-.187 1.075-.104 2.138.303 3.157.2.497.465.965.67 1.46.243.575.703 1.197.624 1.738-.16 1.103-1.105 1.78-1.93 2.46-.096.078-.443.005-.55-.112-.362-.387-.62-.88-1.002-1.24-1.073-1.01-2.634-.564-2.988.89-.144.59-.142 1.3.05 1.866.34 1.006.888 1.944 1.323 2.923.075.166.027.387.035.587-.16-.025-.384.012-.47-.08-1.316-1.4-2.63-2.804-3.914-4.244-.292-.326-.363-.8.005-1.15.885-.834 1.34-1.86 1.666-3.022.194-.683.734-1.306 1.233-1.853 3.034-3.315 6.092-6.615 9.162-9.904.655-.706 1.34-1.397 2.084-2.002 1.784-1.457 2.848-3.464 4.155-5.284.477-.665.507-1.43.304-2.16-.43-1.543-.984-3.053-1.41-4.596-.37-1.333-.695-2.688-.93-4.047-.21-1.212.1-2.304.95-3.27.843-.965 1.692-1.968 2.317-3.076 1.017-1.806 2.73-2.72 4.438-3.523 1.53-.72 3.242-1.056 4.884-1.53.54-.16 1.096-.096 1.41.437.288.5.112 1.422-.304 1.797-.316.287-.66.547-1.013.786-.796.544-1.56 1.157-2.417 1.58-2.652 1.31-3.333 3.743-3.67 6.348-.125.95 0 1.927-.027 2.89-.093 3.34 2.937 8.004 7.747 9.15 1.224.292 2.557.13 3.84.18.76.036.927.23.575.91zm9.476-5.762h-.04c0 1.177.008 2.354 0 3.527-.004.707-.252 1.245-1.05 1.345-1.024.128-1.463.765-1.504 1.742-.014.322-.053.646-.01.96.276 1.992-.982 2.886-2.527 3.584-.486.217-1.11-.102-1.214-.683-.21-1.15-.39-2.31-.546-3.472-.09-.65-.21-1.263-.81-1.653-.087-.06-.154-.146-.23-.223.155-.13.288-.3.463-.38 2.256-1.03 3.644-2.9 4.804-4.98.416-.743.747-1.536 1.135-2.293.367-.712.544-1.563 1.38-1.937.05.74.118 1.482.143 2.22.025.747.006 1.493.006 2.243z"/></svg>