<svg xmlns="http://www.w3.org/2000/svg" width="128" height="128" viewBox="0 0 128 128"><path d="M75.778 45.534c-1.23-.923-2.574-1.434-4.117-1.395-1.265.03-2.532.062-3.8.083-.61.01-.803-.228-.47-.696 1.036-1.444.627-2.61-.25-4.036-1.675-2.722-4.203-4.72-5.883-7.444-1.047-1.696-2.912-1.997-4.69-.56-1.5 1.207-3.15 2.116-4.737 3.15-1.39.904-1.42.864-2.695-.253-.32-.277-.62-.578-.933-.86-.9-.795-1.9-.837-2.94-.325-.38.183-.752.398-1.08.658-3.148 2.49-6.3 4.974-9.413 7.507-.555.45-1.218 1.082-1.31 1.707-.18 1.193-.78 1.643-1.846 1.76-1.515.165-2.816.9-4.085 1.647-2.735 1.61-5.35 3.386-7.66 5.593-.83.79-1.31 1.637-1.218 2.773.27 3.36.59 6.714 1.46 9.984.08.303.21.61.386.866 1.112 1.616 1.356 3.53 1.834 5.355.452 1.737.818 3.492 1.222 5.238 1.1 4.725 2.278 9.43 3.282 14.176 1.57 7.426 3.032 14.877 4.512 22.32.156.766.48 1.388 1.008 1.93.885.906 1.7 1.9 2.68 2.693 1.055.856 2.188 1.704 3.427 2.225 1.54.648 3.2 1.08 4.85 1.387 1.965.362 3.978.484 5.967.722 2.09.25 4.178.51 6.268.767 2.448-.207 4.892-.043 7.22-.98 1.37-.553 2.758-1.01 4.23-1.268.914-.16 1.796-.61 2.644-1.03 1.984-.985 3.48-2.37 3.723-4.755.075-.73.338-1.437.46-2.162 1.027-6.365 1.4-12.794 1.91-19.21.27-3.367.47-6.74.748-10.11.203-2.417.494-4.827.736-7.242.37-3.67.776-7.343 1.07-11.02.14-1.786.093-3.568.42-5.358.233-1.312.126-2.748-.144-4.064-.16-.77-.992-1.428.4-1.76 1.092-1.21 1.24-2.312.517-3.756-.873-1.742-2.163-3.104-3.71-4.26zM64.38 47.797c.934.128 1.878.192 2.817.282.003.025.003.05.003.08.84 0 1.69-.09 2.514.02.923.127 1.856.342 2.72.686 1.147.453 1.828 1.264 1.594 1.64-.454.728-1.234.703-1.946.833-.804.145-1.538.513-2.443.174-.71-.267-1.424.256-1.98.736-.945.812-2.075 1.1-3.23.985-1.644-.165-3.105.22-4.54.95-.35.175-.808.144-1.22.19-.09.012-.242-.035-.276-.1-.075-.145-.186-.396-.123-.47 1.55-1.845 3.11-3.683 4.7-5.498.35-.402.828-.59 1.41-.512zM54.67 94.66c-.076-.073-.155-.147-.214-.233-.86-1.16-2.453-1.667-2.867-3.226.922-1.4 1.827-2.814 2.793-4.186.13-.188.646-.325.835-.22 1.375.768 2.72 1.596 4.055 2.432.136.083.16.35.235.53-.094.19-.174.385-.285.564-.832 1.345-1.645 2.704-2.517 4.024-.922 1.393-.95 1.376-2.037.314zm1.92 8.054c.004.07-.17.213-.173.21-.518-.408-1.03-.828-1.542-1.247.083-.056.165-.114.245-.17.576-.05 1.446.65 1.472 1.204zM40.4 59.572c1.415.098 1.784.875.938 2.11-1.124 1.648-2.31 3.257-3.482 4.873-.295.407-.68.46-1.06.11-2.834-2.594-2.91-1.583-1.19-5.034.232-.467.466-.94.687-1.417.253-.544.7-.738 1.266-.736.525.003 1.05 0 1.577 0v.09c.42 0 .843-.025 1.262.005zm17.738 8.516c.445.533.59 1.097.387 1.745-.158.497-.352.986-.523 1.48-1.254 3.645-1.254 3.645-4.027.89-.297-.295-.597-.59-.89-.89-1.583-1.622-1.573-1.62-.753-3.785.445-1.175.845-2.366 1.286-3.54.064-.177.252-.31.384-.46.188.058.446.06.553.186 1.205 1.448 2.377 2.925 3.58 4.373zm-1.604-7.878c1.253-.02 2.507-.037 3.76-.02.586.007.884.468.834.703-.323 1.28-.544 2.194-.79 3.104-.108.413-.717.574-.997.248-1.02-1.186-2.02-2.387-3.017-3.595-.192-.235-.09-.435.213-.44zm-6.586 18.083c-.632-.508-1.613-.853-1.584-1.81.032-1.06.646-1.962 1.387-2.723.096-.096.436-.115.528-.03 1.446 1.366 2.882 2.744 4.288 4.154.192.192.197.567.3.894-.19.38-.35.764-.56 1.12-.4.672-.995.853-1.575.448-.945-.66-1.884-1.33-2.78-2.052zm1.598 6.377c-.043.187-.04.307-.093.386-.764 1.126-1.517 2.258-2.315 3.36-.315.437-.896.422-1.38.005-.952-.82-1.91-1.633-2.818-2.5-1.933-1.847-1.888-1.585-.347-3.823 1.376-1.995 1.306-2.258 3.525-.43.97.796 2.005 1.512 2.983 2.3.223.177.32.5.446.703zm.226-23.584c-.54.9-1.117 1.788-1.583 2.727-1.418 2.86-1.433 2.287-3.157.14-.72-.897-1.303-1.907-1.904-2.892-.36-.585.04-1.276.73-1.353.21-.023.42-.023.774-.04.753-.065 1.493.258 2.15.858.398.363.728.16 1.056-.187.207-.22.494-.465.77-.497.383-.042.854-.003 1.18.188.48.28.202.693-.017 1.058zm-5.14 8.077c.286.47.438.933.11 1.457-.167.264-.256.576-.412.85-1.672 2.98-1.244 3.242-3.957.575-.883-.87-1.944-1.59-2.468-2.784.555-1.01 1.106-2.023 1.67-3.03.356-.643.72-1.282 1.112-1.9.096-.156.326-.225.494-.334.176.11.415.178.514.334.99 1.6 1.958 3.22 2.938 4.83zM35.606 75.21c1.9-2.774 2.12-3.327 4.736-.458.635.693 1.34 1.32 1.972 2.014.192.21.254.54.427.928-.68 1.013-1.357 2.055-2.095 3.054-.066.092-.608-.01-.774-.178-1.396-1.404-2.76-2.845-4.13-4.277-.07-.075-.17-.164-.174-.253-.01-.28-.094-.635.04-.83zm5.073 12.655c.09-.098.46-.105.545-.01 1.36 1.45 2.7 2.922 4.02 4.406.114.127.06.397.083.6-.17.925-1.498 1.438-2.187.823-.94-.837-1.866-1.69-2.772-2.564-.448-.434-.836-.93-1.25-1.395.514-.625 1.018-1.262 1.56-1.86zm.76 12.695c.6-.42 1.225-.813 1.81-1.254.48-.363.933-.424 1.426-.062 1.27.932 2.546 1.856 3.806 2.802.137.1.187.318.275.48-.043.098-.056.22-.126.286-.924.853-1.845 1.71-2.79 2.535-.355.31-.815.305-1.134-.032-1.15-1.22-2.268-2.472-3.392-3.716-.348-.386-.29-.747.128-1.04zm6.076-3.366c-.763-.578-.61-1.368.318-1.838l.284-.14c.093.037.21.052.282.116 1.337 1.177 2.674 2.357 3.988 3.558.096.088.1.43.013.53-.19.22-.46.474-.72.5-.272.022-.6-.156-.846-.33-1.12-.78-2.227-1.576-3.317-2.398zM58.032 84.02c-.49-.346-1.31-.587-1.17-1.3.135-.678.622-1.294 1-1.908.066-.107.416-.165.55-.09.818.455 1.58 1.026 2.425 1.424 2.114 1 1.7 1.43.64 3.38-.08.148-.352.19-.535.284-.19-.075-.395-.124-.562-.23-.79-.507-1.583-1.013-2.35-1.557zm4.284-4.59c-.728-.597-1.46-1.186-2.193-1.778-.427-.344-.723-.704-.482-1.323.533-1.365 1.01-2.748 1.538-4.114.05-.136.28-.206.42-.3.108.055.212.09.29.156.314.273.637.542.93.837.803.812 1.594 1.637 2.39 2.46-.323 1.195-.598 2.405-.977 3.582-.44 1.373-.753 1.426-1.913.477zm.485-11.526c-.176-.18-.233-.61-.164-.882.325-1.326.704-2.64 1.092-3.947.035-.117.3-.163.484-.256 1.196 1.04 2.4 2.057 3.558 3.13.192.176.316.612.245.865-.403 1.415-.866 2.816-1.337 4.21-.032.095-.41.206-.475.148-1.15-1.07-2.3-2.147-3.402-3.27zm-35.56-15.77c.834-.99 1.845-1.742 3.067-2.15.995-.336 2.07-.45 3.038-.844 1.203-.487 2.005-.3 2.563.917.17.365.478.73.82.932.33.19.82.31 1.17.21.413-.113.593-.596.486-1.04-.3-1.223-.672-2.43-.952-3.658-.112-.49-.11-1.016-.085-1.522.075-1.55.053-1.595.998-2.37 2.123-1.74 4.28-3.436 6.436-5.132.845-.66 1.24-.565 2.027.434.288.363.38.762-.03 1.1-.32.266-.673.504-1.03.724-1.526.94-1.366 2.833-.268 3.762.717.608 1.325 1.344 1.95 2.05.07.078-.01.412-.12.498-.78.608-1.68.776-2.66.835-.845.05-1.197.58-1.316 1.51-.1.78-.045 1.71.736 1.897 1.588.384 2.844 1.315 4.21 2.083.172.097.407.08.614.116.354.056.915-.37.883-.722-.045-.514-.056-1.067-.264-1.52-.273-.595-.162-1.004.313-1.356.678-.5 1.408-.94 2.06-1.472.993-.81 1.145-1.778.378-2.773-.576-.745-1.293-1.38-1.948-2.065-.765-.796-.738-1.43.224-2.07 1.843-1.22 3.688-2.444 5.61-3.532.777-.44 1.462-1.52 2.39-1.146.69.275 1.117 1.208 1.664 1.845.89 1.038 1.81 2.05 2.66 3.122.36.454.2.978-.098 1.47-.638 1.055-1.872 1.332-2.71 2.124-.394.375-.703.29-1.03-.09-.686-.794-1.356-1.602-2.1-2.34-.452-.45-1.4-.02-1.44.63-.033.516-.052 1.064.08 1.554.133.496.493.928.697 1.408.36.854 1.465 1.465 1.257 2.4-.166.746-.953 1.356-1.466 2.022-.828 1.086-1.82 2.048-2.38 3.34-.127.3-.64.52-1.01.598-.507.11-1.05.043-1.58.062-2.738.096-5.48.195-8.84.315-2.122-.12-4.858-.295-7.596-.428-1.475-.072-2.96-.01-4.432-.126-.933-.075-1.856-.344-2.77-.573-.43-.1-.512-.67-.207-1.03zm1.357 9.21c-.636-.44-.995-1.018-1.2-1.766-.288-1.035-.1-1.35.94-1.285 1.863.26 3.728.516 5.593.787.35.05.65.648.51 1-.233.58-.474 1.162-.74 1.73-1.205 2.57-1.404 2.88-3.616.688-.442-.437-.97-.795-1.486-1.152zm2.41 10.578c-.344-1.21-.625-2.437-.897-3.664-.02-.085.24-.233.368-.347.2.11.405.183.565.317 1.043.885 2.08 1.773 3.1 2.685.12.108.158.377.134.556-.077.59-.934 1.408-1.49 1.472-.782.088-1.58-.317-1.78-1.013zm4.74 15.102c-.417-.222-.82-.715-.96-1.17-.527-1.698-.965-3.426-1.38-5.155-.084-.358.078-.773.127-1.16.24.2.504.375.712.602 1.07 1.152 2.133 2.315 3.184 3.484.206.23.358.51.523.743-.066.23-.08.444-.183.6-.29.436-.58.88-.943 1.256-.314.328-.395 1.163-1.083.798zm2.224 24.398c-.264.12-.61.216-.875.146-.81-.22-1.278-1.37-.98-2.3.027-.085.14-.143.216-.216.18.025.447-.02.54.09.418.467.813.962 1.158 1.487.155.23.363.595-.058.79zm-.326-14.394c-.512-1.457-.776-3.004-1.133-4.512-.02-.075.09-.18.14-.27.08.003.19-.024.235.018 1.414 1.376 2.827 2.752 4.218 4.15.08.084.032.393-.06.528-.17.254-.405.47-.634.683-1.223 1.124-2.21.974-2.766-.597zm8.976 15.63c-1.84-.338-3.68-.67-5.5-1.095-.312-.073-.696-.52-.76-.853-.29-1.43-.508-2.873-.67-4.322-.085-.757-.533-1.51-.113-2.296.5.512.997 1.028 1.504 1.536 1.403 1.405 2.804 2.812 4.217 4.206.29.288.635.518.934.798.05.046-.033.213 0 .303.187.467.39.928.616 1.457-.038.045-.158.28-.23.267zm4.178-2.452c-.644-.082-1.233-.693-1.818-1.11-.34-.237-.64-.54-.925-.845-.352-.37-.267-.802.064-1.097.857-.766 1.78-1.46 2.64-2.22.763-.67 1.508-.584 2.29-.087.264.168.555.303.783.51.13.117.155.348.226.53-.09.182-.154.387-.274.545-.578.744-1.16 1.484-1.76 2.204-.44.525-.256 1.7-1.23 1.572zm8.992 2.573c-.026.465-.323.745-.766.825-.814.146-1.632.258-2.576.402-.82-.178-1.736-.35-2.632-.59-.275-.075-.6-.285-.725-.523-.272-.535.263-.657.576-.882 1.18-.85 2.36-1.696 3.522-2.566.768-.576 1.117-.552 1.87.15.48.447.796.932.75 1.623-.034.514.01 1.04-.018 1.556zm.847-5.696c-.413-.11-.702-.445-.578-.915.033-.136.305-.303.46-.294.545.028 1.033.582.897 1.082-.23.042-.533.19-.782.125zm3.243-15.11c-.934 1.77-1.847 3.552-2.825 5.297-.176.31-.62.467-.89.658-.527-.243-.926-.385-1.276-.605-.138-.085-.18-.34-.226-.53-.023-.084.03-.206.082-.29 1.047-1.708 2.09-3.414 3.16-5.108.354-.565.896-.597 1.65-.16.278.162.515.363.32.736zm4.074 19.81c.064.157.017.43-.085.566-.084.108-.335.118-.51.115-1.44-.028-1.85-1.147-2.273-2.214-.05-.115.128-.467.224-.48 1.55-.156 1.885-1.065 1.548-2.416-.026-.1-.033-.208-.033-.314-.008-.713.454-1.39.732-1.123.257.25.39.632.545.9-.146.864-.23 1.597-.4 2.307-.24.986-.204 1.547.25 2.658zm1.16-16.348c-.13 1.463-.303 2.923-.458 4.382-.072.684-.064.668-.802.447-.388-.114-.796-.16-.9-.18-.523.067-.734.127-.94.12-1.785-.073-1.978-.95-1.27-2.244.55-1.01.97-2.094 1.387-3.17.23-.586.324-1.48 1.015-1.39.643.08 1.248.7 1.8 1.166.177.153.194.58.17.87zm1.003-8.222c.01.206-.035.416-.055.625h.01c-.06.625-.114 1.25-.178 1.874-.048.452-.258.832-.732.86-.28.014-.595-.16-.848-.318-.472-.296-.658-.768-.725-1.317-.077-.598-.416-1.04-1.04-.69-.768.427-1.38.137-2.06-.158-.476-.207-.613-.49-.415-.956.367-.864.704-1.744 1.112-2.59.284-.593.933-.875 1.583-.736.51.108 1.023.234 1.505.422.672.262 1.445.456 1.947.922.643.594-.135 1.358-.103 2.063zm1.22-7.477c-.23 3.872-.772 3.733-3.892 2.237-1-.48-1-.49-.65-1.653.06-.2.08-.413.16-.602 1.16-2.886.42-2.83 3.59-1.458.665.286.902.815.79 1.476zm2.206-10.2c-.448 2.163-.907 4.325-1.382 6.48-.062.295-.27.556-.42.846-.2-.078-.423-.096-.522-.216-.734-.892-1.442-1.803-2.16-2.707l.79-3.343c.1-.41.18-.825.313-1.225.656-2.02.86-1.61 2.518-1.138.92.26 1.042.45.866 1.303zm.54-3.626c-.083.38-.69.614-1.033.413-.798-.47-1.728-.79-1.907-1.922-.08-.504-.363-.98-.585-1.453-.302-.64-.672-.704-1.43-.2-.357.238-.684.53-1.078.153-.757-.718-1.496-1.458-2.216-2.212-.05-.05.075-.414.16-.432 1.126-.23 2.258-.434 3.392-.63 1.995-.342 3.872-.938 5.397-2.365.134-.126.53-.22.557-.176.154.248.443.582.37.99-.462 2.524-1.05 5.18-1.628 7.84zm33-47.963c-1.762-.3-2.485-1.218-2.97-2.69-.785-2.4-2.143-4.59-2.544-7.133-.08-.505-.343-1.003-.61-1.45-.693-1.167-2.183-2.145-3.74-.953-1.17.9-2.263 1.894-3.374 2.868-1.13.99-1.134 1.03-2.432.355-2.18-1.13-4.597-1.485-6.916-2.155-.812-.235-1.76-.198-2.41.423-1.435 1.377-3.102 2.67-3.14 4.915-.02 1.115-.606 1.77-1.44 2.28-.896.546-1.85 1.006-2.773 1.51-1.114.605-1.78 1.437-1.553 2.812.245 1.496-.08 2.932-.594 4.34-.18.494-.368.987-.506 1.493-.42 1.54.512 3.118 2.083 3.232 1.216.085 2.243.503 3.25 1.086.497.286.784.726.737 1.294-.085 1.045-.22 2.088-.344 3.133-.135 1.12.117 2.17.997 2.85 1 .777 2.178.647 3.3.157.29-.125.558-.3.822-.472.266-.173.526-.356.77-.557.956-.78 1.947-.715 2.93-.096.618.394 1.2.844 1.778 1.292.5.383.94.852 1.465 1.19.58.366 1.225.31 1.786-.085.338-.24.675-.528.908-.867.294-.43.5-.927.715-1.407 1.012-2.292 1.217-1.962 3.396-1.543 1.24.234 2.496.376 3.232.484 1.163-.063 1.795-.093 2.428-.135 1.394-.092 2.39-.732 2.88-2.085.288-.79.608-1.573.893-2.366.97-2.674 1.923-5.355 2.894-8.027.775-2.142.348-3.31-1.923-3.695zm-1.59 3.954c-.835 2.39-1.7 4.77-2.592 7.14-.42 1.11-.787 1.31-2.252 1.237-1.003-.166-2.354-.387-3.707-.612-.575-.096-.58-.437-.436-.907.085-.294.1-.63.055-.934-.1-.658-.628-1.14-1.267-1.234-.563-.085-1.073.075-1.42.508-.324.41-.583.877-.82 1.344-.43.848-.815 1.717-1.24 2.57-.414.826-.637 1.78-1.493 2.322-.74-.378-1.477-.757-2.217-1.133-.188-.095-.38-.185-.567-.28-1.378-.7-2.786-.92-4.25-.27-.29.127-.57.28-.867.385-.48.17-.958-.192-.744-.604 1.12-2.182-.552-3.82-1.09-5.663-.12-.405-.755-.693-1.196-.96-.807-.486-1.665-.89-2.467-1.387-.242-.148-.525-.487-.523-.735.015-1.148.027-2.315.248-3.433.075-.382.728-.698 1.17-.955 1.198-.693 1.21-.678 2.316.325 1.115 1.01 2.437 1.648 3.832 2.15.284.102.642.1.94.028.287-.07.692-.238.767-.46.124-.355.15-.863-.02-1.177-.24-.444-.64-.855-1.068-1.128-.802-.505-1.67-.9-2.513-1.34-.853-.442-.795-.415-.328-1.538.36-.86.54-1.796.804-2.697.144-.498.25-1.02.466-1.488.34-.732 1.075-1.086 1.835-.89 1.427.37 2.844.78 4.265 1.18 1.7.482 1.74.646.81 2.293-.41.727-.75 1.504-1.028 2.29-.128.364-.21.963-.013 1.187.793.885.285 1.392-.296 2.1-1.21 1.462-2.297 3.025-3.41 4.564-.508.698-.494 1.227-.047 1.722.595.653 1.633.785 2.277.213.468-.414.892-.896 1.258-1.406.984-1.37 1.93-2.765 2.877-4.163.277-.406.59-.562 1.045-.33.563.288 1.114.6 1.69.864.464.213 1.055-.013 1.37-.47.31-.45.3-1.1-.138-1.435-.744-.577-1.543-1.083-2.33-1.6-.353-.23-.777-.37-1.07-.656-.164-.16-.253-.576-.164-.79 1.17-2.83 3.378-4.782 5.69-6.638.434-.348 1.01-.104 1.22.485.708 1.985 1.395 3.977 2.12 5.955.323.872.202 1.583-.383 2.342-.704.913-1.31 1.92-1.845 2.944-.477.91-.08 2.05.725 2.49.998.54 2.165.25 2.746-.74.423-.724.74-1.514 1.162-2.243.24-.413.632-.424 1.083-.228 1.176.51 1.4.817 1.023 1.89z"/></svg>