<svg xmlns="http://www.w3.org/2000/svg" width="128" height="128" viewBox="0 0 128 128"><path d="M122.144 46.453c-.54-.693-.795-1.604-1.21-2.4-3.617-6.923-8.64-12.527-15.388-16.552-4.85-2.89-10.03-5-15.418-6.61-2.464-.737-4.95-1.482-7.57-1.467-1.905.01-3.816.02-5.727.037-1.39.013-2.675.28-3.553 1.518-.288.402-.663.555-1.152.288-.875-.47-1.76-.923-2.642-1.382.156-.757.443-1.512.448-2.268.03-2.803.02-5.61-.082-8.41-.05-1.253-.562-2.39-1.557-3.256-.756-.66-1.83-.523-2.29.316-.55 1.005-.813 2.08-.866 3.22-.04.78.002 1.607-.245 2.326-.643 1.87-.453 3.78-.428 5.678.03 2.016.36 2.28 2.63 2.598.225.032.446.06.662.113.483.12.847.404.587.925-.485.976-.18 1.724.53 2.405.164.155.32.32.494.46 3.136 2.524 5.32 5.732 6.888 9.415.436 1.026.987 2.032 1.65 2.927 2.83 3.83 4.816 8.072 6.266 12.584 1.616 5.024 2.752 10.165 3.89 15.31.024.107.037.233.004.333-.066.2-.156.405-.27.59-.02.027-.218-.023-.31-.077-2.143-1.224-4.244-2.524-6.433-3.66-1.987-1.034-4.06-1.902-6.32-2.22-1.328-.19-2.677-.348-3.957-.73-1.322-.394-2.63-.517-3.983-.426-2.236.15-4.47.348-6.71.452-4.5.21-8.92.91-13.26 2.08-2.273.61-4.513 1.335-6.78 1.965-.258.07-.628-.107-.888-.264-.093-.055-.082-.426-.003-.6.9-2.052 1.82-4.1 2.753-6.14.292-.64.758-1.09 1.52-1.166 1.005-.1 2.01-.215 3.004-.37.437-.068.89-.188 1.262-.408.26-.155.525-.507.55-.79.026-.273-.188-.662-.416-.838-.346-.268-.784-.446-1.21-.566-.632-.18-1.61-.072-1.866-.462-.47-.72.407-1.36.747-2.014.305-.595.713-1.14 1.078-1.705.67-1.02 1.54-1.49 2.827-1.403 1.675.11 3.367.076 5.045-.024.63-.037 1.275-.367 1.84-.69.487-.276.865-.756.742-1.39-.117-.607-.587-.976-1.125-1.142-.526-.162-1.096-.22-1.653-.227-1.01-.01-2.02.064-3.027.064-.2 0-.512-.128-.57-.277-.064-.155.107-.41.187-.617.363-.95 1.22-1.3 2.07-1.573 1.708-.55 3.44-1.013 5.157-1.53 1.19-.355 2.328-.805 3.203-1.756.61-.666.462-1.528-.328-1.952-1.048-.563-2.178-.425-3.29-.5-.318-.024-.625-.182-.94-.278.133-.29.198-.643.406-.862 1.693-1.79 3.546-3.447 5.077-5.363.912-1.14 1.995-2.1 2.866-3.25.353-.477.225-1.078-.112-1.577-.3-.44-1.045-.668-1.493-.444-.5.25-1.04.474-1.46.83-3.26 2.742-6.604 5.403-9.384 8.67-1.593 1.873-2.84 4.043-4.872 5.536-.256.19-.384.546-.58.818-.722 1-1.396 2.04-2.18 2.987-2.525 3.043-4.532 6.41-6.35 9.9-.414.795-.79 1.62-1.295 2.357-.815 1.196-1.722 2.326-2.59 3.487-1.393-.644-1.67-2.244-2.725-3.186-.328-.293-.527-.732-.836-1.052-1.728-1.78-3.557-3.527-5.944-4.303-3.413-1.11-6.904-2.02-10.544-.962-.404.118-.833-.353-.72-.79.172-.643.372-1.283.603-1.91.387-1.042 1.06-1.607 2.28-1.59 1.68.027 3.37-.062 5.045-.204.762-.064 1.534-.3 2.242-.594.85-.356.962-1.773.154-2.237-.757-.437-1.615-.73-2.464-.962-.63-.173-1.32-.124-1.977-.224-.078-.01-.213-.4-.15-.483.948-1.273 2.143-2.286 3.548-3.022.23-.12.67-.087.886.062 2.484 1.73 5.164.976 7.783.584.78-.114 1.344-.88 1.397-1.722.058-.863-.512-1.512-1.242-1.846-.695-.316-1.498-.4-2.24-.63-.075-.024-.137-.48-.068-.524.754-.47 1.493-1.003 2.315-1.317 2.825-1.08 5.637-2.236 8.54-3.07 5.612-1.62 11.333-2.7 17.204-2.784.335-.005.674-.018 1.006-.067 1.08-.16 2.028-1.253 2.063-2.348.034-1.178-.8-2.208-2.02-2.296-1.456-.1-2.928-.192-4.373-.058-2.673.25-5.348.586-7.997 1.03-4.32.728-8.47 2.13-12.632 3.462-2.69.864-5.172 2.158-7.508 3.736-1.305.88-2.6 1.77-3.853 2.716-5.612 4.23-10.343 9.284-14.212 15.153-1.623 2.464-2.114 5.15-1.805 8.03.053.47.478.876.872.788 1.312-.285 2.61-.638 3.93-.873 1.985-.352 3.978-.666 5.977-.926 1.85-.24 3.597.245 5.15 1.195 2.887 1.763 5.66 3.693 7.414 6.707 1.015 1.742 2.087 3.467 2.9 5.303.758 1.718 1.95 2.364 3.71 2.213.67-.056 1.353-.078 2.006-.22 3.285-.71 6.595-1.374 9.668-2.79 1.974-.91 4.076-1.39 6.18-1.496 4.143-.207 8.303-.13 12.458-.157.623-.004.904.352.595.78-1.002 1.388-.91 2.966-.91 4.534.004 7.3.014 14.6.014 21.9 0 .897.026 1.804-.082 2.69-.046.388-.317.925-.636 1.072-1.158.533-1.2 1.458-1.184 2.525.07 3.82.048 7.64.15 11.455.063 2.443-.946 4.28-2.7 5.897-1.102 1.017-2.28 1.32-3.694 1.164-1.323-.146-2.312-.832-3.117-1.81-1.514-1.833-2.783-3.81-3.43-6.124-.696-2.48-1.385-4.96-2.034-7.45-.21-.814-.615-1.446-1.33-1.85-1.413-.79-3.314-.24-4.11 1.136-.528.91-.66 1.882-.68 2.912-.068 3.747.652 7.37 1.782 10.906.44 1.373 1.122 2.714 1.922 3.915 2.178 3.277 5.125 5.31 9.248 5.15 1.57-.056 3.162.023 4.704-.216 4.105-.638 7.078-3.162 9.732-6.14.22-.242.338-.58.463-.894 1.2-3.03 2.292-6.113 2.51-9.377.18-2.798.063-5.614.077-8.422.004-1.067-.282-2.027-1.24-2.607-.785-.475-.956-1.15-.95-1.988.017-4.494.005-8.987.005-13.478h-.047c0-2.246-.02-4.494.002-6.738.027-2.358.075-4.718.15-7.073.036-1.168.68-1.632 1.78-1.146 1.74.77 3.413 1.686 5.11 2.553 1.997 1.018 3.946 2.142 5.994 3.035 1.155.504 2.18 1.105 3.12 1.922.93.807 1.89 1.586 2.893 2.303.672.48 1.61.355 2.144-.284 1.79-2.157 3.662-4.254 5.272-6.535 2.29-3.243 4.967-6.072 8.08-8.512 2.232-1.752 4.734-2.993 7.465-3.755 3.02-.844 5.98-1.916 9.11-2.326.505-.067.89-.538.775-.94-.49-1.697-.395-3.562-1.574-5.076zm-5.52.2c-.1.053-.193.126-.297.158-4.923 1.51-9.093 4.403-13.08 7.48-3.92 3.028-7.372 6.58-9.575 11.14-.085.175-.34.26-.516.386-.107-.164-.254-.32-.3-.5-.054-.212-.04-.45-.025-.67.42-7.04-1.75-13.494-4.49-19.818-.76-1.75-1.49-3.51-2.31-5.232-2.174-4.582-4.87-8.84-8.22-12.668-.295-.338-.67-.637-.867-1.024-.535-1.042-2.005-1.436-1.958-2.864 1.103-.13 2.206-.26 3.563-.417 1.77.273 3.78.486 5.746.904 5.062 1.077 9.94 2.73 14.6 5.003.5.242.994.52 1.434.855.224.17.512.46.103.817-.842.734-1.682 1.472-2.46 2.272-.178.18-.236.696-.106.904.218.346.597.704.974.805.395.105.873-.07 1.308-.16 1.534-.316 3.06-.678 4.6-.956.537-.098 1.12-.075 1.66.026.286.053.57.35.758.608.322.447-.147.533-.402.674-.486.274-1.012.49-1.486.79-.963.605-1.742 1.396-2.306 2.4-.725 1.28-.22 2.335 1.197 2.27 1.22-.06 2.446-.255 3.635-.526.977-.222 1.912-.636 2.86-.98.995-.364 1.985.082 2.317 1.143.074.25-.068.66-.246.883-.49.6-1.117 1.092-1.58 1.71-.49.662.05 1.727.87 1.757.892.03 1.788-.046 2.682-.076 1.433-.048 2.013.368 2.41 1.79.135.478-.046.868-.49 1.117z"/></svg>