<svg xmlns="http://www.w3.org/2000/svg" width="128" height="128" viewBox="0 0 128 128"><path d="M95.56 102.002c-.052-1.528-.386-2.976-1.002-4.358-.655-1.468-1.306-2.944-2.064-4.36-1.965-3.668-5.07-6.007-8.923-7.428-2.806-1.038-5.615-2.08-8.42-3.12-1.205-.443-2.4-.927-3.624-1.31-1.67-.524-3.106-1.475-4.467-2.508-1.804-1.36-2.64-3.326-2.97-5.522-.29-1.93.325-3.515 1.596-5.006 1.67-1.958 3.078-4.128 4.126-6.49.737-1.66 1.306-3.394 1.92-5.102.374-1.027.76-1.944 2.038-2.223.563-.123 1.116-.645 1.507-1.123 1.39-1.694 2.4-3.546 2.205-5.867-.098-1.173-.077-2.357-.083-3.537-.01-1.454-.383-2.776-1.473-3.787-.602-.553-.848-1.203-.89-1.982-.043-.752-.077-1.502-.158-2.25-.47-4.402-1.468-8.645-3.708-12.53-1.096-1.9-2.528-3.585-4.433-4.54-7.99-4-15.545-1.91-21.1 3.902-1.84 1.923-3.285 4.202-4.366 6.71-1.104 2.574-2.204 5.11-2.564 7.914-.083.636-.235 1.275-.467 1.867-.138.354-.445.738-.778.887-1.083.485-2.19.896-2.87 1.956-1.68 2.606-1.907 5.43-1.09 8.33.406 1.436 1.06 2.806 1.633 4.193.555 1.333 1.46 2.364 2.797 2.972.39.177.78.354 1.173.523.53.228.83.628.988 1.18.27.924.587 1.83.864 2.75.678 2.255 1.413 4.5 1.997 6.777.538 2.098.392 4.254.146 6.387-.162 1.376-.832 2.325-2.214 2.84-3.314 1.235-6.588 2.57-9.875 3.872-3.998 1.58-7.87 3.415-11.447 5.81-1.333.89-2.72 1.807-3.765 2.99-2.443 2.77-4.075 5.976-4.734 9.686-.495 2.776-.41 5.555-.406 8.336.004.728.242 1.476.487 2.174.263.75.86 1.263 1.66 1.358 1.81.218 3.62.466 5.438.523 2.786.086 5.58.022 8.366.022.002-.02.002-.04.002-.06l27.665-.657c1.18-.032 2.365-.015 3.54-.092 5.455-.35 10.905-.717 16.357-1.096 1.496-.107 2.987-.28 4.477-.413 3.63-.323 7.26-.647 10.89-.942.854-.07 1.72.027 2.572-.032 3.13-.213 4.412-2.613 3.813-4.76-.257-.913-.325-1.897-.36-2.854zM75.07 45.035c.03-.117.338-.248.486-.22.173.035.358.213.454.378.1.173.1.405.135.57.094 1.028-.053 1.976-.645 2.782-.156.213-.597.427-.783.348-.213-.092-.44-.533-.395-.776.188-1.04.462-2.067.747-3.083zm-37.647 2.85c-.11.25-.34.445-.6.766-.25-.32-.48-.512-.575-.76-.163-.406-.15-.84.274-1.1.14-.085.432-.09.563.003.37.26.525.663.337 1.093zm52.326 55.88c-.39.14-.847.107-1.274.115-2.682.053-5.365.102-8.048.153v.072c-.858 0-1.716.015-2.576-.004-5.05-.1-10.07.33-15.078.898-1.062.12-2.144.048-3.217.102-3.532.18-7.062.444-10.597.564-5.786.2-11.53 1.077-17.338.95-1.598-.033-3.204.293-4.8.244-2.244-.062-4.483-.29-6.72-.512-.437-.047-.678-.512-.613-.99.697-5.11 2.68-9.682 5.876-13.713.517-.654 1.24-1.184 1.953-1.632 3.457-2.17 7.092-4 10.89-5.516 2.395-.958 4.69-2.08 6.607-3.888 2.527-2.38 3.51-5.338 3.368-8.686-.112-2.685-.76-5.286-1.624-7.84-1.282-3.778-1.91-7.668-1.972-11.67-.078-5.168.126-10.31 1.332-15.34.594-2.49 1.58-4.882 2.417-7.307.397-1.157 1.266-1.984 2.147-2.773 1.12-.997 2.245-1.995 3.413-2.933 3.6-2.89 8.693-2.54 11.992.707 1.674 1.65 2.623 3.654 3.13 5.877.48 2.09.857 4.205 1.18 6.32.146.946.105 1.927.06 2.887-.086 1.816-.353 3.63-.338 5.445.046 5.73-1.668 10.992-4.213 16.012-1.34 2.645-3.478 4.615-6.05 6.078-2.05 1.167-4.177 2.173-6.422 2.93-.863.292-.985 1.19-.234 1.74.5.37 1.1.725 1.693.81.717.104 1.492-.027 2.223-.153 1.017-.174 1.984-.66 3.06-.445.2.93.5 1.856.577 2.798.164 1.99.998 3.71 1.93 5.41.84 1.537 2.03 2.713 3.532 3.647 2.397 1.5 4.987 2.578 7.737 3.04 4.316.722 7.693 3.133 11.035 5.65 2.684 2.023 4.166 4.844 4.998 8.038.19.723.363 1.456.434 2.197.02.235-.25.642-.476.723zm27.03-46.602c-.535-.535-1.15-1.032-1.963-.955-.946.09-1.912.203-2.816.48-1.23.377-2.427.81-3.74.864-2.09.08-2.21.053-3.06-2.005-.45-1.085-.796-2.215-1.255-3.3-.542-1.276-1.045-2.593-1.773-3.764-.58-.928-.962-1.888-1.265-2.915-.153-.512-.286-1.04-.523-1.51-.13-.26-.475-.59-.702-.577-.38.023-.94.2-1.082.48-.474.948-.852 1.954-1.177 2.967-.843 2.648-1.59 5.328-2.468 7.966-.9 2.703-1.585 3.136-4.437 3.085-.32-.006-.636-.08-.955-.117-2.544-.317-4.846.51-7.12 1.49-.627.27-1.108.64-1.148 1.388-.048.873-.085 1.755.837 2.25 1.13.61 2.304 1.14 3.408 1.786 1.29.754 2.558 1.557 3.773 2.424.846.606 1.283 1.53.885 2.55-.37.935-.352 1.882-.36 2.836-.012 1.207-.35 2.285-.918 3.36-.59 1.126-.94 2.376-1.413 3.563-.338.843.028 1.46.608 1.997.637.587 1.693.754 2.39.367.367-.202.74-.456 1.02-.767 1.3-1.463 2.99-2.424 4.537-3.568.686-.51 1.39-1.003 2.01-1.58 1.907-1.782 1.91-1.83 4.265-.455 1.93 1.123 4.032 1.998 5.53 3.783.32.38.904.55 1.387.765.782.346 1.576.656 2.368.973 1.348.54 2.64-.393 2.562-1.873-.03-.526-.112-1.072-.3-1.564-.453-1.195-.98-2.365-1.482-3.54-1.053-2.462-2.123-4.913-3.15-7.384-.308-.74-.14-1.46.364-2.113.815-1.048 1.723-1.96 3.163-1.928 1.077.02 1.81-.517 2.48-1.258.505-.554 1.078-1.04 1.583-1.593.698-.767.672-1.875-.064-2.606zm-16.71.13c-.345-.045-.54-.308-.374-.647.064-.128.373-.258.49-.203.144.058.198.316.29.486-.137.13-.29.377-.406.36z"/></svg>