<svg xmlns="http://www.w3.org/2000/svg" width="128" height="128" viewBox="0 0 128 128"><path d="M85.637 85.227c-2.277-1.154-4.765-1.906-7.18-2.784-2.21-.808-4.466-1.493-6.662-2.336-1.192-.463-2.323-1.102-3.435-1.744-1.757-1.016-2.944-2.606-3.437-4.5-.57-2.183-.723-4.41.92-6.39 2.907-3.5 5.06-7.432 6.3-11.83.34-1.202.752-2.207 2.23-2.337.362-.032.748-.416 1.014-.732 1.344-1.58 2.414-3.28 2.344-5.472-.05-1.717-.08-3.437-.105-5.152-.013-.893-.256-1.755-.86-2.368-.895-.907-1.2-1.93-1.266-3.168-.07-1.385-.297-2.768-.545-4.134-.636-3.49-1.456-6.93-3.328-10.003-1.186-1.946-2.683-3.736-4.725-4.715-4.74-2.275-9.635-2.596-14.567-.437-4.642 2.033-7.823 5.583-10.063 9.98-1.7 3.34-3.104 6.832-3.42 10.644-.056.7-.4 1.21-1.11 1.402-2.83.768-3.796 2.9-4.035 5.544-.24 2.608.227 5.047 1.26 7.504.89 2.11 1.96 3.782 4.16 4.572.633.224 1.072.61 1.286 1.307.788 2.556 1.597 5.107 2.45 7.644.985 2.933.678 5.93.53 8.923-.048.933-.523 1.583-1.434 1.94-2.09.826-4.167 1.7-6.25 2.543-2.78 1.13-5.597 2.18-8.338 3.388-3.143 1.387-6.124 3.07-8.91 5.106-4.054 2.965-6.014 7.136-7.107 11.847-.037 3.11-.142 6.22-.085 9.33.03 1.55 1.113 2.43 2.767 2.544 1.067.073 2.144.056 3.21.164.378.04.723.337 1.084.518h.644c.233-.183.453-.504.704-.525.85-.08 1.713-.076 2.57-.07 13.52.11 27.03-.223 40.537-.836 3.637-.166 7.275-.433 10.912-.654.213-.014.427-.033.643-.054 3.516-.35 7.026-.803 10.554-1.01 2.674-.154 5.29-.882 8-.674.59.046 1.24-.29 1.816-.555 1.07-.493 1.596-1.368 1.606-2.56.037-5.41-1.427-10.366-4.51-14.82-1.565-2.268-3.786-3.83-6.17-5.035zM75.267 44.05c.058-.245.418-.42.64-.63.16.24.383.46.466.722.094.3.06.634.094 1.12-.083.474-.14 1.12-.33 1.724-.076.25-.42.536-.684.584-.227.043-.743-.262-.732-.367.13-1.06.305-2.115.546-3.154zm-37.744 3.214c-.064.096-.444.128-.487.064-.277-.416-.5-.868-.595-1.042-.044-.85.327-1.062.83-.817.763.37.848.886.255 1.794zm51.925 55.217c-4.07.226-8.134.437-12.203.653l-.007-.09c-2.253 0-4.508-.04-6.76.015-1.17.03-2.34.262-3.51.34-2.03.134-4.065.266-6.1.314-2.57.06-5.152-.138-7.685.476-.102.027-.213.02-.32.025-3.957.25-7.915.502-11.868.758s-7.902.556-11.872.61c-2.92.04-5.76-.457-8.645-.595-.454-.02-.776-.47-.672-.898.427-1.77.768-3.567 1.317-5.298.98-3.1 2.68-5.85 4.658-8.393.695-.894 1.794-1.513 2.78-2.14 3.456-2.183 7.18-3.854 10.958-5.38 2.118-.852 3.975-2.015 5.694-3.527 2.166-1.91 3.09-4.344 3.347-7.06.244-2.586-.225-5.12-1.036-7.598-.728-2.235-1.525-4.457-1.835-6.812-.554-4.248-1.223-8.47-.543-12.79.4-2.53.35-5.117.806-7.668.577-3.2 1.633-6.215 2.96-9.14 1.002-2.204 6.097-6.492 8.464-7.105 3.078-.793 5.938-.18 8.407 1.888 2.345 1.963 3.39 4.657 3.948 7.55.608 3.153 1.053 6.322.797 9.578-.217 2.77-.08 5.548-.556 8.325-.493 2.878-1.234 5.647-2.4 8.307-.643 1.465-1.28 2.95-2.1 4.32-1.29 2.16-3.208 3.723-5.375 4.965-2.05 1.175-4.166 2.2-6.43 2.91-.74.234-.86 1.354-.193 1.84.416.3.93.566 1.427.628 1.617.196 3.198-.05 4.747-.57.604-.202 1.086.147 1.09.782.01 2.52.643 4.864 1.85 7.072 1.06 1.94 2.496 3.432 4.454 4.494 2.57 1.397 5.283 2.396 8.125 2.948 1.94.38 3.676 1.084 5.33 2.118 2 1.257 4.03 2.475 5.726 4.135 2.462 2.413 3.87 5.36 4.274 8.78.096.794-.256 1.193-1.052 1.238zm29.315-51.02c-.027-1.02-.216-1.15-1.41-1.28-.53-.057-1.14.04-1.573-.19-1.31-.708-2.7-.606-4.083-.61-4.288-.004-8.58-.002-12.584-.002-2.54.085-4.787.207-7.038.233-2.357.02-4.725.036-7.077-.097-1.648-.094-2.894.53-4.048 1.58-.602.545-.853 1.172-.853 1.98.007 1.93-.062 3.86-.06 5.792 0 .853.032 1.72.166 2.562.242 1.498 1.11 2.26 2.59 2.373.958.07 1.96-.054 2.87.183 2.602.69 5.287.514 7.92.857 1.478.194 3.005-.032 4.502.056 2.062.123 4.06-.188 6.037-.683 2.812-.707 5.632-1.227 8.56-1.195 1.15.015 2.332-.277 3.458-.584 1.383-.377 2.735-2.17 2.735-3.573.006-2.465-.043-4.93-.114-7.396zm-34.08 5.48c-.05.075-.256.143-.274.126-.11-.142-.205-.3-.27-.465-.034-.09-.005-.207-.005-.42.168-.61.337-1.328.565-2.026.2-.594.72-.736 1.27-.683.3.03.723.21.53.56-.55 1-1.198 1.95-1.82 2.91zm4.467-2.65c-.535 1.615-1.07 3.23-1.627 4.835-.064.18-.245.355-.42.456-.163.1-.408.16-.583.113-.17-.046-.3-.252-.416-.356-.018-.162-.066-.282-.032-.37.693-1.774 1.387-3.545 2.116-5.302.043-.113.39-.197.55-.145.164.055.284.283.39.455.05.083.052.22.02.314zm3.01 3.94c-.206.34-.933.36-1.163.44-.71-.02-1.096-.472-.975-.866.348-1.117.69-2.242 1.104-3.336.28-.743.896-.988 1.856-.88.4.046.823.505.78.854-.176 1.41-.882 2.62-1.6 3.788zm3.353.198c-.08-.006-.227-.43-.2-.45.218-.146.468-.24.712-.35.075.186.153.373.273.667-.277.056-.533.15-.786.133zm3.57-2.735c-.127.195-.53.256-.817.274-.186.013-.387-.146-.576-.242-.926-.49-1.39-1.075-1.053-1.277.43-.256.933-.384 1.184-.48.48.032.717-.01.898.072.267.116.685.314.693.495.02.387-.11.835-.324 1.158zm3.922 2.042c-.275.213-.78.18-1.184.162-.143-.002-.37-.258-.4-.422-.1-.648.05-1.266.5-1.763.12-.132.357-.163.695-.308.25.403.635.797.747 1.26.08.32-.095.874-.355 1.074zm5.177-1.888c-.317.2-.956-.38-.964-.934-.006-.26.17-.624.38-.764.342-.225.924.35 1 1.04-.104.174-.196.513-.417.656zm6.475.075c-.452-.236-.888-.52-1.294-.83-.133-.103-.22-.37-.192-.54.027-.146.223-.327.38-.38.294-.095.61-.108.867-.148.736.038 1.09.484 1.064 1.274-.012.462-.45.82-.822.627z"/></svg>