<svg xmlns="http://www.w3.org/2000/svg" width="128" height="128" viewBox="0 0 128 128"><path d="M104.192 92.117c-1.8-3.194-4.49-5.504-7.832-6.874-4.155-1.704-8.45-3.055-12.642-4.67-1.585-.61-3.12-1.43-4.562-2.334-3.157-1.986-4.565-7.9-1.666-11.053 2.756-2.994 4.647-6.667 5.72-10.675.14-.515.367-1.007.524-1.52.203-.66.572-1.16 1.29-1.265.67-.1 1.223-.366 1.66-.883 1.333-1.587 2.42-3.277 2.35-5.472-.046-1.502-.08-3.004-.068-4.505.008-1.344-.284-2.577-1.275-3.523-.6-.573-.74-1.244-.816-2.016-.125-1.277-.34-2.545-.514-3.817-.48-3.517-1.287-6.926-2.96-10.11-2.09-3.97-5.26-6.354-9.698-7.12-2.13-.365-4.194-.44-6.34-.05-4.092.74-7.475 2.747-10.127 5.785-3.886 4.452-6.197 9.722-7.02 15.6-.127.932-.383 1.617-1.422 1.85-2.035.456-3.096 2.04-3.51 3.83-.532 2.29-.64 4.68.182 6.98.392 1.11.867 2.19 1.286 3.288.478 1.257 1.24 2.36 2.487 2.816 1.813.666 2.63 1.905 3.06 3.715.468 1.97 1.206 3.877 1.853 5.803.987 2.924.705 5.925.554 8.916-.053 1.085-.644 1.724-1.675 2.103-1.71.626-3.38 1.36-5.07 2.047-3.073 1.248-6.177 2.432-9.22 3.76-3.344 1.46-6.54 3.208-9.42 5.49-2.586 2.047-4.343 4.66-5.565 7.71-1.106 2.756-1.355 5.605-1.24 8.61 0 1.306-.054 2.702.015 4.093.1 1.965 1.046 2.82 3.048 2.965 2.77.2 5.54.075 8.313.09 13.408.064 26.807-.253 40.2-.86 3.64-.163 7.274-.432 10.914-.654.213-.012.427-.03.64-.052 3.516-.346 7.03-.802 10.552-1.007 2.673-.156 5.298-.666 7.992-.715 2.577-.048 3.502-1.61 3.454-3.714-.104-4.492-1.253-8.67-3.447-12.564zM86.57 44.29c.058-.244.418-.42.64-.626.157.24.38.46.464.72.094.297.06.634.094 1.117-.083.478-.14 1.124-.328 1.728-.08.254-.42.54-.683.587-.228.04-.745-.264-.736-.368.13-1.058.308-2.116.55-3.155zM48.9 47.45c-.117.283-.58.28-.747-.01-.16-.268-.352-.55-.392-.845-.036-.285.01-.687.19-.862.13-.126.58-.037.814.092.224.126.35.427.475.595-.14.433-.218.74-.338 1.032zm51.894 55.27c-4.066.224-8.133.437-12.2.655-.003-.038-.005-.077-.01-.117-2.036 0-4.078-.055-6.115.02-1.49.056-2.976.327-4.467.425-1.925.128-3.856.218-5.786.253-2.57.048-5.152-.144-7.688.47-.103.025-.214.017-.32.022-3.85.245-7.698.506-11.548.734-4.17.25-8.33.6-12.514.64-2.814.028-5.545-.494-8.325-.587-.46-.016-.813-.466-.715-.864.454-1.87.827-3.767 1.41-5.6.955-2.993 2.635-5.63 4.533-8.097.69-.9 1.78-1.528 2.767-2.155 3.54-2.257 7.38-3.936 11.25-5.513 2.02-.823 3.755-1.978 5.406-3.392 2.194-1.88 3.115-4.324 3.383-7.04.255-2.586-.22-5.12-1.02-7.6-.723-2.236-1.52-4.458-1.835-6.81-.562-4.245-1.217-8.465-.567-12.79.384-2.53.41-5.113.824-7.662.52-3.214 1.695-6.186 2.915-9.157.12-.296.282-.58.456-.85.8-1.226 5.697-5.364 7.1-5.955 3.415-1.44 6.522-.648 9.31 1.534 2.412 1.89 3.416 4.637 3.98 7.52.62 3.155 1.067 6.326.814 9.58-.22 2.77-.075 5.55-.552 8.325-.512 2.984-1.257 5.86-2.53 8.597-.724 1.547-1.217 3.19-2.284 4.59-1.39 1.824-3.05 3.296-5.024 4.43-2.048 1.174-4.164 2.2-6.427 2.917-.768.243-.928 1.326-.275 1.824.41.31.923.603 1.414.655 1.502.16 2.984.03 4.44-.477 1.028-.357 1.468-.055 1.464.965-.013 2.544.75 4.85 1.967 7.04 1.013 1.83 2.42 3.22 4.277 4.23 2.564 1.4 5.275 2.412 8.12 2.966 1.935.376 3.68 1.06 5.333 2.1 1.998 1.26 4.032 2.47 5.733 4.127 2.47 2.405 3.89 5.348 4.304 8.77.105.83-.226 1.236-1.003 1.28z"/></svg>