<svg xmlns="http://www.w3.org/2000/svg" width="128" height="128" viewBox="0 0 128 128"><path d="M84.56 85.955c-4.286-1.67-8.665-3.112-12.97-4.74-1.188-.45-2.297-1.155-3.38-1.844-1.796-1.14-3.042-2.793-3.394-4.877-.38-2.234-.186-4.296 1.472-6.288 2.605-3.133 4.666-6.677 5.664-10.722.13-.518.38-1.003.53-1.517.162-.55.46-.917 1.016-1.13 2.852-1.07 4.1-3.3 4.267-6.192.092-1.602-.053-3.217-.032-4.827.018-1.35-.303-2.517-1.297-3.504-.352-.348-.62-.877-.715-1.365-.243-1.26-.435-2.534-.535-3.813-.32-4.125-1.456-8.006-3.51-11.59-1.407-2.47-3.252-4.517-6.12-5.36-.718-.21-1.422-.484-2.147-.666-7.075-1.78-12.917.443-17.61 5.754-3.933 4.45-6.14 9.764-6.855 15.67-.087.735-.43 1.128-1.133 1.346-.926.283-1.865.62-2.447 1.457-.856 1.244-1.504 2.558-1.608 4.14-.173 2.62.267 5.05 1.304 7.5.89 2.1 1.982 3.797 4.147 4.597.82.307 1.15.81 1.34 1.608.168.725.526 1.402.795 2.105 1.656 4.352 2.688 8.796 2.22 13.508-.144 1.445-.746 2.36-2.127 2.885-3.307 1.255-6.57 2.622-9.873 3.888-4.42 1.696-8.65 3.758-12.53 6.49-3.355 2.362-5.6 5.538-6.885 9.44-1.312 3.982-.825 8.067-.796 12.124.01 1.26.97 2.187 2.25 2.357 1.7.226 3.41.43 5.12.48 2.684.077 5.367.02 8.048.02v-.07c9.44-.22 18.876-.445 28.314-.666 1.18-.03 2.36-.02 3.54-.094 5.667-.355 11.338-.73 17.002-1.114 1.177-.08 2.347-.23 3.522-.335 3.733-.342 7.47-.695 11.204-1.016.743-.064 1.504.05 2.25-.004 2.535-.184 3.798-1.67 3.78-4.207-.033-4.637-1.398-8.88-3.774-12.795-1.895-3.125-4.676-5.318-8.048-6.637zm-9.296-40.552c.055-.242.382-.42.587-.632.2.196.47.358.567.59.117.284.085.623.143 1.23-.118.44-.26 1.162-.517 1.834-.08.215-.51.45-.734.416-.215-.038-.54-.432-.52-.643.09-.94.254-1.877.473-2.795zM37.68 48.437c-.075.134-.256.228-.408.297-.06.02-.196-.064-.258-.136-.134-.15-.28-.31-.357-.493-.208-.49-.306-1.003.198-1.38.117-.084.47-.058.547.047.23.295.378.656.47.827-.094.44-.097.664-.19.84zm51.58 55.403c-2.788.072-5.58.113-8.366.168v.068c-.964 0-1.927.018-2.894-.005-4.832-.11-9.632.32-14.42.883-1.062.128-2.145.117-3.215.113-3.54-.008-7.06.186-10.592.533-4.58.453-9.19.653-13.788.94-2.99.185-5.98-.066-8.988.273-1.984.22-4.043-.248-6.067-.405-.96-.072-1.237-.484-.983-1.515.128-.52.325-1.026.405-1.55.587-3.798 2.336-7.09 4.388-10.264.95-1.473 2.165-2.597 3.67-3.52 3.484-2.145 7.202-3.788 10.94-5.406.59-.256 1.208-.448 1.78-.734 6.067-3.017 8.457-7.45 7.276-14.15-.297-1.682-.71-3.367-1.286-4.972-1.508-4.192-2.03-8.558-2.13-12.94-.11-4.817.32-9.644 1.393-14.352.565-2.487 1.598-4.87 2.437-7.298.102-.3.267-.604.477-.832 2.112-2.285 4.23-4.555 7.004-6.072.965-.525 1.988-.768 3.09-.74 5.21.12 8.2 2.516 9.654 7.01 1.116 3.45 1.83 7.045 1.597 10.75-.1 1.603-.074 3.216-.097 4.826-.058 4.773-1.107 9.338-3.01 13.698-.64 1.465-1.185 2.965-2.126 4.306-1.195 1.704-2.635 3.127-4.402 4.166-2.025 1.19-4.046 2.424-6.35 3.06-.405.113-.785.327-1.16.53-.38.208-.516 1.154-.16 1.43.498.378 1.042.845 1.62.938.82.134 1.704.03 2.54-.09.95-.135 1.883-.42 2.828-.596.128-.02.41.183.433.315.085.523.117 1.06.136 1.596.108 2.896 1.334 5.387 2.88 7.73.71 1.076 1.745 1.842 2.886 2.506 3.006 1.745 6.288 2.705 9.637 3.454 1.064.24 2.06.515 2.976 1.116 1.88 1.23 3.835 2.362 5.667 3.66 3.35 2.38 4.907 5.852 5.627 9.762.224 1.207-.112 1.582-1.3 1.61zm-2.547-30.856c.47.242.986.5 1.496.544 2.45.213 4.902.507 7.356.49 4.17-.025 8.344-.284 12.516-.39 1.6-.042 3.202-.052 4.785.392 1.394.39 2.787.077 4.07-.5.537-.242 1.045-.756 1.35-1.28 1.002-1.727.272-3.668-1.562-4.53-1.024-.48-2.09-.625-3.13-.304-1.27.39-2.542.325-3.82.333-3.11.02-6.215.006-9.32.006v-.06c-.54 0-1.074-.01-1.61.003-3.215.06-6.427.145-9.643.172-1.387.013-2.5.477-3.324 1.604-.93 1.272-.588 2.787.83 3.517zM89.77 49.7c1.132.307 2.31.502 3.478.572 2.566.155 5.14.198 7.71.288l.003-.21c2.468 0 4.938.09 7.397-.022s4.88-.572 7.237-1.3c.78-.243 1.277-.805 1.355-1.622.074-.738.135-1.5.042-2.23-.127-1.017-.916-1.77-1.962-1.812-1.28-.05-2.603-.128-3.838.133-3.38.717-6.837.442-10.234.93-1.353.195-2.795.07-4.155-.16-2.39-.406-4.698.11-7.012.474-.56.09-1.21.557-1.535 1.04-.904 1.346-.075 3.49 1.52 3.924zm27.37 28.375c-.703-.237-1.446-.48-2.172-.484-4.168-.024-8.348-.166-12.5.098-2.764.18-5.523.296-8.29.33-1.28.014-2.568.014-3.84.134-.726.067-1.494.25-2.124.598-.52.285-.963.834-1.262 1.365-.512.914-.117 2.005.765 2.477.868.463 1.796.636 2.78.632 4.17-.02 8.335-.007 12.503-.007v.142c3.847 0 7.696.003 11.543-.003.642 0 1.287.025 1.92-.046 1.393-.154 2.315-1.157 2.42-2.547.102-1.397-.41-2.238-1.744-2.686zm-2.454-21.416c-.806-.24-1.653-.437-2.49-.47-1.923-.067-3.847-.02-5.773-.02v.206c-2.245 0-4.514-.21-6.728.06-2.347.285-4.683.334-7.027.4-.32.007-.644.03-.958.09-1.41.244-2.374 1.32-2.362 2.607.01 1.167.82 2.206 2.118 2.466 1.25.25 2.528.394 3.804.474 1.6.096 3.206.113 4.808.11.848-.004 1.712-.046 2.542-.21 2.128-.42 4.245-.32 6.38-.092 1.27.136 2.553.242 3.828.248.62.005 1.266-.19 1.856-.415.945-.355 1.995-1.91 1.89-2.736-.156-1.224-.582-2.323-1.892-2.72z"/></svg>