<svg xmlns="http://www.w3.org/2000/svg" width="128" height="128" viewBox="0 0 128 128"><path d="M83.525 85.157c-2.413-1.135-4.994-1.92-7.51-2.83-2.11-.765-4.276-1.404-6.35-2.262-1.274-.527-2.482-1.277-3.614-2.075-1.633-1.156-2.74-2.778-3.004-4.768-.286-2.13-.144-4.088 1.436-5.993 2.676-3.223 4.788-6.856 5.8-11.014.126-.516.303-1.04.556-1.504.19-.348.486-.747.83-.88 2.955-1.155 4.242-3.443 4.376-6.462.07-1.603-.06-3.216-.053-4.826.005-1.237-.316-2.306-1.214-3.21-.352-.36-.683-.857-.775-1.34-.26-1.364-.456-2.746-.56-4.133-.33-4.243-1.636-8.177-3.74-11.852-.974-1.7-2.333-3.157-4.01-4.078-2.063-1.132-4.34-1.855-6.733-2.02-6.244-.427-11.3 1.92-15.236 6.702-3.623 4.416-5.805 9.477-6.49 15.154-.11.896-.53 1.304-1.357 1.51-2.018.496-3.016 2.08-3.51 3.86-.613 2.18-.615 4.465.02 6.67.356 1.23.94 2.39 1.404 3.588.53 1.355 1.39 2.553 2.727 3.02 1.643.58 2.278 1.67 2.69 3.222.494 1.856 1.222 3.65 1.845 5.472 1.034 3.016.863 6.128.74 9.237-.055 1.344-.756 2.157-1.986 2.635-3.397 1.316-6.782 2.662-10.172 3.996-4.304 1.694-8.426 3.723-12.244 6.357-4.21 2.903-6.458 7.04-7.648 11.876-.058 3.213-.163 6.43-.14 9.646.01 1.3.924 2.277 2.154 2.443 1.805.24 3.623.433 5.44.492 2.57.083 5.147.02 7.925.02 5.162-.16 10.52-.45 15.877-.468 8.59-.032 17.154-.552 25.725-.922 3-.13 5.99-.414 8.984-.632.427-.03.85-.11 1.277-.154 3.732-.36 7.466-.732 11.2-1.073.746-.068 1.5-.004 2.25-.027 2.944-.088 4.23-1.53 4.203-4.42-.046-4.53-1.444-8.64-3.698-12.492-1.733-2.976-4.365-5.035-7.408-6.464zm-9.923-41.02c.046-.195.46-.34.725-.42.066-.02.29.29.34.48.086.3.086.624.165 1.34-.144.434-.36 1.23-.686 1.98-.066.162-.523.22-.794.203-.113-.003-.32-.336-.296-.497.142-1.032.304-2.07.544-3.085zm-37.8 3.423c-.043.075-.38.096-.47.016-.498-.44-.71-1.003-.475-1.646.053-.146.304-.217.465-.32.177.08.413.115.518.25.446.563.277 1.153-.038 1.7zm51.774 55.213c-2.787.07-5.576.115-8.365.17 0 .022 0 .04.004.065-1.073 0-2.146.02-3.22-.003-4.724-.102-9.41.34-14.1.87-1.17.13-2.357.068-3.53.13-3.427.178-6.85.355-10.27.563-4.812.29-9.62.625-14.43.914-2.777.168-5.57-.208-8.346.284-.8.142-1.698-.133-2.528-.317-1.532-.336-3.215.482-4.63-.63.33-1.558.666-3.12 1-4.673.76-3.548 2.715-6.498 4.763-9.387.686-.97 1.694-1.604 2.706-2.24 3.556-2.228 7.394-3.88 11.23-5.543.59-.254 1.21-.444 1.776-.736 5.877-3.064 8.176-7.347 7.043-13.99-.29-1.68-.7-3.364-1.276-4.97-1.547-4.292-2.087-8.767-2.155-13.26-.076-4.704.426-9.404 1.34-14.037.5-2.54 1.55-4.896 2.47-7.292.117-.3.256-.61.47-.836 2.205-2.334 4.3-4.813 7.286-6.204.757-.353 1.632-.598 2.46-.615 5.33-.11 8.51 2.342 10.01 6.917 1.13 3.45 1.853 7.045 1.612 10.746-.057.853-.097 1.715-.07 2.57.19 6.223-1.155 12.086-3.77 17.735-1.307 2.825-3.12 5.117-5.75 6.717-2.007 1.22-4.044 2.42-6.34 3.072-.308.085-.66.16-.883.36-.288.26-.638.64-.644.974-.01.354.268.815.56 1.056.898.73 1.99.754 3.07.584.845-.13 1.67-.382 2.51-.56 1.444-.308 1.532-.298 1.53 1.028-.01 2.67.944 5.024 2.192 7.3.898 1.647 2.197 2.843 3.844 3.766 2.938 1.64 6.112 2.592 9.353 3.31 1.18.26 2.255.612 3.252 1.267 1.885 1.233 3.843 2.36 5.656 3.685 3.316 2.427 4.818 5.923 5.435 9.864.145.968-.213 1.317-1.27 1.344zM117.26 60.46c-1.556-1.31-3.14-2.572-4.722-3.84-1.416-1.14-3.023-2.098-4.238-3.417-2.745-2.987-6.08-5.42-8.347-8.864-.44-.668-1.24-.828-2.03-.64-.41.094-.814.26-1.194.446-1.325.643-1.776 1.82-1.23 3.205.112.3.275.58.452.85.51.76.677 1.535.323 2.426-.456 1.135-.3 2.32-.165 3.49.074.635.197 1.266.246 1.903.043.567-.387 1.047-.94 1.084-3.302.217-6.606.463-9.915.614-1.513.067-2.987.253-4.4.78-1.206.45-1.98 1.28-2 2.624-.028 1.713-.095 3.435.034 5.136.07.933.448 1.862.79 2.752.553 1.438 1.622 2.225 3.2 2.227 2.032.003 4.063 0 6.1 0v.012c2.034 0 4.067-.016 6.1.01.71.01 1.245.584 1.083 1.29-.467 2.023.25 4.033-.02 6.05-.073.51.095 1.066.22 1.585.48 1.97 2.297 2.873 4.197 2.155 1.027-.384 1.886-.984 2.66-1.74 3.217-3.145 6.475-6.246 9.648-9.432 1.356-1.36 2.56-2.876 3.8-4.35.77-.913 1.246-1.994 1.436-3.178.2-1.244-.107-2.357-1.088-3.185zm-32.453 3.01c-.203.06-.42.066-.632.094-.203-.043-.446-.035-.597-.153-.117-.09-.147-.33-.16-.51-.005-.066.14-.22.21-.215.4.02.81.046 1.197.14.175.042.31.252.465.387-.16.085-.312.205-.485.256zm16.96-7.75c.032-.082.402-.143.45-.082.45.555.88 1.135 1.272 1.74.092.138.015.385.015.665-.24.1-.59.38-.76.295-.97-.48-1.383-1.643-.977-2.62zm4.523 12.98c-.43.477-.844.988-1.36 1.353-.805.57-1.09 1.89-2.42 1.717-.597-.987-.282-2.07-.304-3.115-.017-.82.93-1.75 1.58-1.65.85.408 1.706.804 2.542 1.233.055.032.05.37-.038.465z"/></svg>