<svg xmlns="http://www.w3.org/2000/svg" width="128" height="128" viewBox="0 0 128 128"><path d="M82.592 104.718c-.757-1.886-1.53-3.79-2.55-5.536-1.607-2.766-4.03-4.766-6.97-5.952-3.67-1.478-7.455-2.683-11.16-4.075-1.298-.49-2.556-1.12-3.753-1.818-2.797-1.634-3.806-4.237-3.725-7.34.015-.508.235-1.04.465-1.505.238-.472.604-.88.92-1.312 2.31-3.108 4.433-6.313 5.4-10.138.107-.416.245-.82.398-1.222.235-.62.64-1.047 1.277-1.348 2.47-1.167 3.635-3.2 3.67-5.895.013-1.285-.068-2.575-.046-3.86.02-1.235-.247-2.38-1.11-3.26-.66-.673-.79-1.444-.92-2.316-.37-2.537-.804-5.07-1.275-7.593-.44-2.352-1.467-4.518-2.773-6.464-1.252-1.864-2.983-3.243-5.257-4.023-5.506-1.89-10.502-1.21-15.196 2.25-2.49 1.84-4.23 4.245-5.663 6.9-1.685 3.133-2.907 6.442-3.292 10.015-.064.587-.354.96-.94 1.147-2.644.843-3.487 2.88-3.722 5.43-.237 2.554.493 4.848 1.426 7.163.554 1.376 1.396 2.383 2.623 3.132.363.22.803.328 1.145.576.33.24.705.544.836.903 1.118 3.013 2.318 6.02 2.832 9.195.288 1.775.173 3.63.08 5.44-.066 1.376-.813 2.313-2.21 2.825-3.217 1.184-6.396 2.475-9.58 3.755-3.988 1.607-7.812 3.52-11.288 6.092-2.22 1.643-3.755 3.85-4.892 6.283-1.98 4.243-1.56 8.8-1.36 13.295.035.806.606 1.397 1.365 1.64.705.217 1.456.387 2.188.394 3.646.04 7.292.02 10.938.02.002.052.002.108.002.16 7.076-.195 14.15-.394 21.224-.58 2.898-.08 5.8-.056 8.688-.224 4.917-.29 9.83-.69 14.743-1.06 3.31-.25 6.632-.45 9.927-.844 1.707-.205 3.385-.528 5.112-.422.313.02.642-.06.953-.135 1.568-.404 2.492-1.714 2.365-3.355-.092-1.173-.155-2.352-.31-3.52-.127-.953-.234-1.94-.588-2.816zM64.006 56.864c.117-.798.787-1.68.923-1.44.243.433.347.942.51 1.425-.168.64-.3 1.24-.5 1.82-.047.143-.377.336-.47.29-.23-.11-.542-.34-.56-.54-.05-.514.02-1.043.097-1.557zM30.2 58.342c-.1.248-.352.435-.494.604-.537-.123-.843-.78-.624-1.316.077-.186.538-.392.723-.323.444.16.567.608.395 1.035zm46.93 50.987c-4.064.174-8.128.34-12.192.497-.644.025-1.288.002-1.93.002-.007-.06-.012-.118-.016-.18-2.987.26-5.97.54-8.956.77-1.175.09-2.357.1-3.535.1-3.11-.007-6.212.03-9.296.532-.422.066-.855.053-1.284.077-6.203.314-12.385 1.063-18.61.852-1.07-.038-2.166.096-3.206-.09-1.43-.26-3.002.49-4.302-.61.275-1.457.498-2.926.832-4.37.718-3.09 2.41-5.704 4.19-8.258.74-1.067 1.838-1.755 2.948-2.443 3.202-1.98 6.648-3.447 10.094-4.933 1.075-.46 2.152-.97 3.132-1.606 4.15-2.69 5.606-6.595 4.843-11.37-.25-1.58-.66-3.154-1.2-4.66-1.31-3.676-1.866-7.45-1.912-11.34-.048-4.294.087-8.57.843-12.807.498-2.758 1.537-5.344 2.577-7.925 2.187-2.82 4.562-5.417 8.015-6.703.488-.184 1.057-.256 1.58-.22 4.205.307 6.915 1.64 8.466 5.7 1.227 3.212 1.944 6.565 1.877 10.043-.034 1.606-.096 3.213-.122 4.82-.1 5.462-1.595 10.563-4.036 15.397-1.186 2.347-3.076 4.114-5.363 5.402-1.863 1.05-3.768 2.026-5.828 2.674-.306.1-.672.615-.67.934.003.352.324.83.645 1.01.44.25 1.004.342 1.526.388 1.3.12 2.55-.195 3.787-.582.41-.128.91.196.956.58.05.425.08.854.106 1.28.113 2.205.957 4.17 2.06 6.022.77 1.305 1.848 2.32 3.175 3.12 2.515 1.508 5.243 2.437 8.08 3.018 1.72.352 3.266.992 4.706 1.952 1.425.954 2.918 1.82 4.252 2.886 2.805 2.24 4.354 5.226 4.8 8.782.1.827-.227 1.225-1.024 1.26zm45.92-84.688c-1.36-2.948-2.974-5.707-5.86-7.475-.45-.275-.795-.717-1.22-1.04-2.828-2.144-5.73-4.18-9.296-4.902-2.302-.465-4.62-.928-6.953-1.125-2.337-.202-4.675-.027-7.014.52-4.894 1.15-9.156 3.52-13.205 6.364-.522.367-.983.832-1.44 1.285-3.54 3.546-6.175 7.6-7.51 12.514-.85 3.13-.754 6.144.208 9.152 1.013 3.155 1.933 6.366 3.952 9.09.19.254.295.57.458.848.356.606.325 1.195.043 1.835-1.38 3.16-1.857 6.575-2.753 9.876-.14.506-.135 1.06-.133 1.597.002 1.006.832 1.852 1.858 1.803.85-.04 1.708-.168 2.534-.37 2.82-.69 5.483-1.803 8.066-3.117 1.333-.678 2.694-1.31 4.036-1.98.597-.3 1.173-.395 1.85-.224 2.41.615 4.88.61 8.213.544 2.49.175 5.737-.306 8.93-1.388 4.39-1.486 7.98-3.94 10.827-7.67 1.794-2.346 3.12-4.866 4.053-7.6.72-2.112 1.554-4.224 1.583-6.517.025-2.144.03-4.288.05-6.432.023-1.966-.453-3.824-1.27-5.59zm-6.288 21.544c-.525.81-1.04 1.62-1.59 2.417-.922 1.34-2.074 2.464-3.447 3.325-1.178.735-2.397 1.418-3.627 2.064-2.923 1.525-6.078 1.97-9.586 1.885-2.02.116-4.216-.332-6.38-.99-.51-.158-1.042-.246-1.54-.433-.867-.323-1.69-.22-2.48.188-2.187 1.13-4.373 2.264-6.544 3.424-1.225.655-2.417 1.375-3.627 2.058-.42.238-.82.164-1.154-.175-.337-.344-.363-.758-.153-1.18 1.013-2.004 2.022-4.012 3.056-6.004.195-.38.51-.693.727-1.06.49-.82.45-1.64-.11-2.402-.633-.866-1.31-1.698-1.955-2.55-1.83-2.42-3.148-5.09-3.96-8.01-.432-1.55-.534-3.087-.27-4.72.315-1.925.97-3.73 1.57-5.547.513-1.535 1.57-2.796 2.694-3.958 1.346-1.385 2.706-2.75 4.048-4.14 3.168-3.27 7.042-5.136 11.52-5.845 1.91-.303 3.81-.547 5.747-.533 3.257.02 6.32.7 9.277 2.157 2.74 1.35 5.115 3.07 7.18 5.31 2.644 2.867 4.055 6.24 4.415 10.09.5 5.334-.927 10.168-3.807 14.623zM98.848 40.07c1.127.21 2.22-.428 2.357-1.58.466-3.82.845-7.643 1.26-11.467-.044-.003-.086-.005-.127-.01 0-.428.04-.863-.006-1.283-.15-1.384-.284-2.767-.5-4.14-.327-2.02-1.78-2.958-3.752-2.308-1.312.433-2.537 1.13-3.79 1.728-.657.31-.912.907-.878 1.582.046.96.144 1.922.273 2.872.156 1.163.384 2.317.55 3.48.37 2.532.672 5.08 1.084 7.607.482 2.964.52 2.96 3.526 3.52zm-.864-17.033c.54-.002.693.39.73.82.06.734.074 1.47.113 2.286-.053.764-.102 1.603-.177 2.44-.02.2-.142.385-.216.577-.12-.16-.305-.307-.352-.49-.256-1.018-.48-2.045-.712-3.068-.117-.514-.248-1.024-.333-1.54-.082-.48.434-1.025.95-1.025zm.2 19.7c-1.407.524-2.392 1.343-2.945 2.7-.12.288-.23.63-.185.922.333 2.172 2.368 3.87 4.164 3.664 2.033-.072 3.346-1.49 3.28-3.525-.033-.995-.353-1.89-.934-2.67-.753-1.007-2.212-1.53-3.385-1.09z"/></svg>