<svg xmlns="http://www.w3.org/2000/svg" width="128" height="128" viewBox="0 0 128 128"><path d="M70.592 90.763c-3.502-1.33-7.05-2.54-10.535-3.912-1.18-.46-2.304-1.152-3.323-1.915-1.325-.992-2.208-2.36-2.36-4.055-.154-1.718-.08-3.3 1.145-4.828 1.464-1.824 2.63-3.915 3.73-5.992.694-1.31 1.057-2.798 1.523-4.22.217-.662.58-1.116 1.23-1.37 2.002-.778 3.004-2.452 3.286-4.394.255-1.78.052-3.637-.008-5.457-.015-.407-.156-.914-.427-1.19-1.304-1.343-1.365-3.015-1.568-4.733-.248-2.118-.63-4.256-1.278-6.283-.585-1.818-1.446-3.6-2.476-5.21-1.523-2.376-3.92-3.488-6.652-4.107-5.83-1.318-10.6.555-14.46 4.817-3.165 3.494-4.914 7.78-5.736 12.392-.235 1.33-.597 2.184-1.995 2.496-.465.102-.944.55-1.226.968-.78 1.164-1.274 2.422-1.408 3.876-.2 2.138.637 3.973 1.303 5.89.594 1.718 1.56 3.052 3.287 3.715.78.298 1.195.764 1.342 1.6.11.624.47 1.197.69 1.8 1.246 3.446 2.12 6.947 1.822 10.678-.11 1.443-.555 2.42-1.963 2.955-2.708 1.024-5.388 2.115-8.068 3.197-3.486 1.405-6.877 2.996-10.02 5.08-3.562 2.362-5.91 5.583-6.8 9.758-.35 1.662-.343 3.4-.5 5.105.078.002.156.006.232.01 0 1.393-.066 2.79.024 4.176.052.804.635 1.417 1.44 1.53 1.582.22 3.182.41 4.778.434 1.707.028 3.413-.2 5.122-.22 6.763-.08 13.523-.114 20.286-.18 1.502-.016 3.006-.045 4.505-.135 5.67-.34 11.34-.69 17.005-1.074 3.42-.23 6.848-.448 10.254-.828 1.703-.19 3.387-.43 5.11-.46 2.08-.032 3.03-1.225 3.05-3.296.03-3.52-.905-6.76-2.524-9.862-1.734-3.315-4.427-5.466-7.85-6.763zm-7.746-32.15c.158-.72.36-1.43.59-2.13.047-.134.3-.208.47-.28.024-.01.154.15.176.245.077.304.128.613.2.966-.078.49-.108 1.03-.27 1.525-.08.243-.38.473-.636.592-.28.13-.636-.435-.53-.92zm-31.18.23c-.118.242-.366.42-.52.59-.478-.14-.65-.826-.376-1.31.068-.124.34-.24.477-.202.48.127.63.493.42.926zm44.052 47.094c-.258.14-.625.09-.95.09-2.68.007-5.36.004-8.044.004v.188c-1.824 0-3.65-.053-5.472.017-1.605.062-3.2.3-4.797.39-2.144.12-4.288.188-6.432.245-1.71.044-3.437-.097-5.118.387-.203.06-.423.066-.64.073-5.894.177-11.752 1.067-17.664.914-.533-.01-1.09-.09-1.606.02-2.575.564-5.102-.282-7.66-.212-.468.01-.867-.427-.8-.8.647-3.738 1.88-7.243 4.093-10.368.454-.64 1.024-1.06 1.692-1.426 1.595-.877 3.22-1.717 4.735-2.72 2.333-1.54 4.72-2.92 7.312-4.005 3.104-1.3 5.163-3.605 6.25-6.912.972-2.945 1.188-5.826.582-8.84-.53-2.62-.957-5.265-1.38-7.905-.12-.736-.104-1.495-.11-2.245-.012-2.47.057-4.94-.024-7.407-.09-2.598.378-5.135.754-7.67.48-3.217 2.393-5.684 4.778-7.792.64-.563 1.363-1.04 2.06-1.542 1.044-.763 2.083-1.456 3.513-1.307 1.64.176 3.15.577 4.424 1.69 1.508 1.315 2.512 2.966 2.973 4.87.53 2.183.878 4.414 1.237 6.633.1.62-.008 1.28-.05 1.92-.078 1.173-.272 2.347-.253 3.52.08 4.597-1.034 8.882-2.945 13.053-1.36 2.97-3.403 5.165-6.223 6.677-1.313.706-2.724 1.237-4.09 1.85-.388.177-.824.31-1.136.58-.158.14-.184.566-.11.812.167.546.603.965 1.168.96 1.167-.013 2.35-.05 3.495-.245 1.695-.29 1.77-.353 1.84 1.47.07 1.893.745 3.55 1.6 5.172.82 1.562 1.99 2.745 3.58 3.57 2.11 1.1 4.31 1.918 6.63 2.386 3.95.8 7.046 3.112 9.9 5.713 2.13 1.943 2.99 4.655 3.38 7.473.036.224-.254.597-.493.725zm43.04-69.677c0-1.542-.032-2.402.008-3.258.085-1.757-.367-3.388-1.035-4.988-1.18-2.825-2.854-5.265-5.353-7.093-1.037-.76-2.034-1.572-3.076-2.323-2.465-1.78-5.164-3.03-8.19-3.527-1.687-.278-3.36-.677-5.055-.868-1.163-.133-2.368-.125-3.53.027-5.772.745-10.86 3.16-15.43 6.673-1.18.904-2.188 2.06-3.155 3.2-2.316 2.735-3.905 5.84-4.863 9.323-.677 2.464-.78 4.92-.15 7.296.822 3.09 1.76 6.187 3.594 8.896.3.44.535.927.793 1.396.27.484.373.96.128 1.518-1.364 3.054-1.806 6.37-2.67 9.568-.11.405-.114.85-.116 1.274-.004.702.683 1.52 1.387 1.547.74.03 1.52.047 2.223-.15 1.547-.42 3.093-.89 4.565-1.513 1.87-.795 3.695-1.712 5.487-2.674 1.493-.8 3.023-1.024 4.654-.693 4.83.978 9.567.54 14.266-.862 5.688-1.693 9.733-5.45 12.44-10.492 2.132-3.965 3.543-8.288 3.082-12.277zm-6.852 11.158c-1.008 1.662-2.005 3.323-3.537 4.55-3.22 2.577-7.808 4.853-13.254 4.597-2.075.132-4.293-.245-6.424-1.013-1.64-.587-3.15-.46-4.64.38-1.68.943-3.363 1.885-5.05 2.815-1.036.57-2.064 1.14-3.124 1.658-.39.192-.886.165-1.128-.277-.13-.24-.188-.645-.075-.875.835-1.74 1.712-3.456 2.603-5.168.245-.472.635-.873.87-1.348.414-.824.4-1.664-.17-2.43-.832-1.118-1.717-2.197-2.517-3.336-1.11-1.587-1.86-3.347-2.52-5.177-.912-2.54-.726-4.966-.1-7.533.717-2.927 2.045-5.374 4.29-7.365.72-.638 1.32-1.408 1.96-2.13 3.11-3.496 6.94-5.607 11.59-6.353 3.43-.55 6.83-.82 10.203.12 5.248 1.462 9.51 4.353 12.395 9.068.962 1.568 1.465 3.302 1.803 5.12.995 5.36-.417 10.158-3.176 14.702zM96.888 36.122c-1.054-.178-1.483-.73-1.61-1.655-.1-.736-.147-1.487-.172-2.23-.015-.496.31-.786.78-.842.525-.064 1.063-.06 1.594-.085 0 .02 0 .046.002.068.53 0 1.088.098 1.584-.032.356-.096.77-.444.904-.78.128-.332.064-.874-.135-1.178-.763-1.156-1.973-1.746-3.28-1.707-1.654.055-2.28-.747-2.536-2.187-.094-.516-.317-1.02-.55-1.498-.135-.27-.4-.48-.625-.7-.288-.284-1.003-.085-1.058.306-.067.524-.122 1.055-.12 1.584.008 1.69-.42 3.11-1.93 4.147-.77.534-1.386 1.336-1.964 2.097-.648.857-1.085 1.832-1.168 2.942-.158 2.03.555 3.252 2.446 4.02.69.282 1.428.46 2.108.76.25.11.543.436.57.69.106.95.157 1.913.134 2.87-.01.46-.397.76-.878.733-.53-.027-1.052-.18-1.58-.205-1.063-.056-2.14-.15-3.193-.05-.456.044-.985.438-1.282.827-.67.864-.413 2.244.435 2.86.97.698 2.03 1.192 3.246 1.258.96.053 1.926.053 2.886.103.953.05 1.35.363 1.475 1.344.15 1.174.3 2.335.955 3.36.356.558.832.97 1.54 1.002.684.032 1.44-.467 1.725-1.216.15-.392.287-.83.26-1.237-.074-1.058-.543-2.186-.29-3.138.327-1.224 1.927-1.08 2.863-1.76 2.688-1.96 3.097-6.037.8-8.467-1.088-1.15-2.453-1.747-3.934-2zm-5.814-.99c-.02.02-.424-.213-.41-.277.053-.245.206-.474.33-.725.23.163.52.328.507.363-.1.235-.25.456-.425.64zm8.176 6.617c-.284.297-.597.585-.942.81-1.096.72-2.067.65-2.112-.897-.005-.208-.043-.416-.072-.624h-.01c-.036-.31-.126-.63-.082-.93.023-.145.288-.323.466-.362.84-.182 1.656-.11 2.41.347.505.304.72 1.25.342 1.653z"/></svg>