<svg xmlns="http://www.w3.org/2000/svg" width="128" height="128" viewBox="0 0 128 128"><path d="M76.862 85.237c-4.15-1.707-8.44-3.076-12.644-4.66-1.296-.488-2.52-1.174-3.752-1.822-1.8-.95-3-2.494-3.59-4.373-.714-2.3-.846-4.608.852-6.677 2.888-3.517 5.045-7.442 6.28-11.838.345-1.23.8-2.17 2.247-2.32.363-.037.74-.426 1.01-.74 1.34-1.58 2.403-3.29 2.325-5.48-.02-.643 0-1.29 0-1.932h-.093c0-.965-.008-1.928.002-2.895.01-1.003-.194-1.987-.89-2.686-.904-.91-1.184-1.944-1.25-3.17-.07-1.278-.303-2.55-.51-3.817-.605-3.608-1.42-7.17-3.383-10.308-1.557-2.49-3.53-4.58-6.48-5.485-2.99-.91-5.965-1.422-9.13-.795-4.073.807-7.46 2.782-10.105 5.825-3.875 4.464-6.187 9.73-6.987 15.614-.132.953-.46 1.566-1.474 1.81-2.013.483-3.03 2.067-3.482 3.87-.517 2.08-.543 4.28.012 6.374.38 1.44 1.09 2.79 1.643 4.18.416 1.043 1.083 2.014 2.097 2.333 2.148.675 2.875 2.29 3.413 4.21.464 1.645 1.067 3.25 1.608 4.875 1.01 3.02.867 6.123.718 9.23-.056 1.19-.584 1.946-1.766 2.39-3.31 1.243-6.584 2.578-9.86 3.9-3.883 1.565-7.677 3.295-11.235 5.524-2.582 1.618-4.79 3.59-6.435 6.172-1.702 2.672-2.688 5.597-2.873 8.746-.13 2.246-.118 4.504-.07 6.752.05 2.66.844 3.418 3.444 3.557 2.34.128 4.678.136 7.024.096 10.937-.18 21.88.174 32.805-.62 1.707-.127 3.435-.023 5.145-.13 5.56-.35 11.12-.73 16.672-1.13 3.313-.24 6.62-.545 9.933-.803 2.238-.173 4.442-.584 6.71-.594 2.314-.01 3.402-1.465 3.373-3.787-.056-4.373-1.202-8.448-3.298-12.277-1.827-3.327-4.565-5.713-8.008-7.126zm-9.688-41.072c.053-.217.475-.337.728-.505.1.184.21.365.3.555.044.096.065.207.068.314.01.21.004.425.004 1.296-.056.192-.254 1.006-.565 1.777-.064.154-.557.187-.85.17-.11-.004-.31-.32-.283-.466.162-1.054.335-2.11.597-3.144zm-37.67 3.2c-.12.328-.575.43-.724.164-.205-.36-.424-.744-.484-1.138-.037-.242.142-.625.346-.77.293-.21 1.13.436 1.135.83-.088.303-.157.615-.27.91zm51.745 55.37c-1.495.113-2.99.274-4.484.336-2.573.11-5.148.15-7.78.22-2.193 0-4.447-.04-6.698.02-1.174.026-2.337.266-3.508.347-1.923.133-3.85.258-5.777.302-2.677.063-5.365-.15-8.005.48-.102.024-.213.016-.32.02-3.955.253-7.92.41-11.864.782-4.38.417-8.765.492-13.156.588-2.59.058-5.1-.497-7.648-.715-.088-.01-.25-.16-.24-.18.09-.185.167-.45.324-.516.48-.214.99-.37 1.496-.517 1.646-.468 3.312-.872 4.94-1.405.577-.19 1.093-.632 1.58-1.027.36-.29.332-1.11.038-1.485-.646-.815-1.5-1.23-2.528-1.13-.848.084-1.68.3-2.523.426-.195.03-.41-.074-.613-.116.104-.097.192-.25.312-.283 2.05-.596 4.1-1.2 6.244-1.403.843-.08 1.672-.306 2.494-.527.558-.15.92-.56.912-1.163-.01-.58-.354-.994-.843-1.277-1.466-.847-3.044-.954-4.674-.704-.95.145-1.894.31-2.85.427-.1.013-.25-.208-.345-.342-.018-.027.1-.21.185-.24 1.917-.67 3.823-1.38 5.762-1.982 2.347-.733 4.73-1.363 7.093-2.048.2-.058.45-.134.56-.288.245-.327.587-.726.558-1.068-.027-.34-.4-.84-.723-.936-.698-.208-1.46-.26-2.2-.275-1.067-.016-2.138.06-3.206.078-.09.003-.207-.093-.26-.172-.023-.043.044-.2.108-.235.75-.407 1.49-.843 2.27-1.188 2.25-1.006 4.487-2.044 6.78-2.942 2.17-.848 3.9-2.334 5.383-3.983 1.51-1.675 2.29-3.847 2.398-6.18.117-2.604-.317-5.11-1.1-7.59-.675-2.14-1.442-4.25-1.753-6.5-.597-4.35-1.267-8.673-.58-13.1.38-2.426.374-4.9.77-7.345.516-3.217 1.668-6.192 2.873-9.167.198-.49.452-1.003.817-1.376 1.875-1.913 3.802-3.804 6.09-5.193 3.054-1.853 7.457-1.206 10.156 1.2 2.284 2.04 3.276 4.712 3.9 7.583 1.344 6.166.91 14.465-.05 19.486-.42 2.19-1.307 4.294-2.027 6.42-.24.71-.684 1.344-.94 2.046-1.18 3.296-3.516 5.58-6.43 7.328-2.024 1.217-4.144 2.245-6.4 2.975-.343.11-.743.5-.83.84-.15.545.21 1.046.685 1.33.35.21.79.35 1.204.38 1.396.106 2.767-.01 4.127-.423 1.42-.433 1.635-.27 1.68 1.33.063 2.316.764 4.412 1.844 6.42 1.046 1.946 2.51 3.42 4.476 4.47 2.574 1.38 5.28 2.37 8.13 2.932 1.823.356 3.476.983 5.04 1.972 2 1.255 4.038 2.45 5.76 4.082 2.592 2.453 4.075 5.472 4.472 9.016.085.757-.292 1.127-1.11 1.187zm43.64-8.03c-.205-1.167-.355-2.325-.87-3.4-.463-.97-.93-1.935-1.42-2.89-2.257-4.438-5.43-7.886-10.157-9.83-2.562-1.055-4.894-2.61-7.496-3.65-1.9-.756-3.14-2.476-3.005-4.557.11-1.666.224-3.405.975-5.018.627-1.35 1.027-2.805 1.504-4.22.32-.935.66-1.713 1.778-2.06 2.292-.715 3.434-2.54 3.75-4.795.22-1.58.175-3.21.116-4.81-.048-1.34-.565-2.52-1.798-3.233-.623-.357-.832-.875-.962-1.553-.288-1.47-.555-2.96-1.056-4.365-3.537-9.96-14.99-10.61-20.358-6.253-1.536 1.246-2.677 2.754-3.65 4.43-1.195 2.07-1.852 4.344-2.315 6.653-.264 1.316-.658 2.385-1.704 3.31-1.787 1.584-1.932 3.78-1.67 5.955.228 1.883 1.087 3.455 2.913 4.35.352.17.688.51.875.86 1.064 1.973 2.056 3.987 3.127 5.956.638 1.17.898 2.4.883 3.71-.008.75-.085 1.502-.064 2.25.05 1.526-.66 2.67-1.745 3.644-1.22 1.1-2.658 1.798-4.254 2.155-.623.143-1.348.038-1.89.314-1.238.63-2.843.27-3.845 1.44-.173.2-.23.557-.22.84.005.16.23.352.4.463s.396.183.6.198c3.577.29 7.028-.244 10.447-1.34 2.598-.838 3.865-3.024 5.283-4.974.972-1.333.518-3.13.315-4.713-.117-.94-.483-1.867-.856-2.75-.54-1.283-1.136-2.546-1.797-3.773-1.71-3.18-2.69-6.53-2.528-9.866-.176-3.117.464-5.854.885-8.602.177-1.136.7-2.25 1.213-3.307 1.873-3.857 4.004-4.954 8.296-4.434 1.67.205 3.15.837 4.186 2.146 1.602 2.016 3.112 4.117 3.602 6.737.96 5.152 1.136 10.16-1.894 14.87-1.294 2.006-2.586 3.93-4.454 5.428-.416.334-.806.705-1.16 1.103-.48.542-.146 1.694.58 1.845.6.126 1.25.032 1.878.055.478.017.832.277.9.736.147.953.132 1.937.347 2.87.24 1.03.443 2.18 1.05 2.992 1.204 1.618 2.516 3.203 4.497 4.022 1.184.49 2.32 1.115 3.462 1.707 2.573 1.33 5.117 2.7 7.47 4.41 1.16.844 2.095 1.86 2.755 3.097.933 1.747 1.37 3.608.68 5.562-.13.372-.386.852-.707.98-1.287.51-2.594 1.082-3.947 1.305-2.645.44-5.248 1.035-7.843 1.694-2.073.526-4.166.965-6.32 1.085-1.6.09-3.205.254-4.786.518-1.045.176-2.06.557-3.058.928-.23.084-.513.52-.473.748.158.96.41 1.955 1.49 2.29 1.94.597 3.887 1.184 5.97.933 4.78-.575 9.51-1.52 14.33-1.883 2.227-.168 4.43-.747 6.624-1.23 3.31-.735 5.69-3.828 5.116-7.09z"/></svg>