<svg xmlns="http://www.w3.org/2000/svg" width="128" height="128" viewBox="0 0 128 128"><path d="M95.296 101.06c-.04-1.42-.354-2.77-.875-4.064-.595-1.49-1.275-2.95-1.937-4.412-.627-1.387-1.557-2.566-2.658-3.602-2.127-1.997-4.413-3.737-7.317-4.482-.826-.213-1.616-.565-2.418-.87-2.6-.984-5.17-2.063-7.807-2.933-1.65-.544-3.147-1.325-4.625-2.194-1.864-1.088-3.003-2.73-3.547-4.77-.563-2.134-.725-4.24 1.054-5.982.154-.147.272-.33.397-.505 2.454-3.4 4.684-6.92 5.77-11.036.11-.417.24-.826.393-1.225.277-.723.655-1.254 1.55-1.427.57-.11 1.15-.565 1.558-1.02 1.473-1.633 2.47-3.49 2.37-5.793-.052-1.176-.067-2.357-.067-3.536 0-1.45-.36-2.774-1.383-3.83-.726-.75-.97-1.637-1.017-2.63-.032-.644-.046-1.29-.133-1.924-.565-4.04-1.318-8.013-3.27-11.677-1.636-3.073-3.936-5.284-7.332-6.284-2.68-.79-5.312-1.2-8.18-.75-4.138.652-7.494 2.59-10.257 5.51-3.763 3.978-5.926 8.858-7.022 14.21-.13.63-.363 1.245-.422 1.878-.096.96-.423 1.552-1.474 1.775-1.616.342-2.508 1.567-3.08 3.022-.27.694-.503 1.422-.625 2.156-.627 3.723.912 6.933 2.58 10.06.422.785 1.377 1.31 2.14 1.887.327.245.793.302 1.187.47.52.22.86.596.98 1.172.134.624.292 1.243.484 1.85.794 2.556 1.75 5.068 2.365 7.664.547 2.29.54 4.653 0 7-.24 1.03-.652 1.745-1.693 2.126-1.506.555-2.965 1.23-4.46 1.813-4.886 1.913-9.843 3.673-14.393 6.34-1.75 1.023-3.484 2.12-5.077 3.37-2.5 1.96-4.245 4.555-5.323 7.523-1.45 3.996-1.49 8.183-1.304 12.376.015.314.128.626.213.935.393 1.477 1.173 2.162 2.714 2.272 1.5.107 3 .213 4.5.203 4.5-.033 9.002-.122 13.505-.19 0 .074.004.15.006.225l30.85-.98c.43-.015.86-.022 1.29-.054 4.803-.36 9.607-.717 14.414-1.097 3.094-.245 6.196-.456 9.277-.823 1.49-.176 2.956-.52 4.468-.374.21.02.43.01.642-.02 1.948-.315 4.096-1.806 3.342-4.496-.26-.91-.315-1.895-.34-2.854zM74.15 45.956c.153-.723.384-1.43.623-2.127.037-.11.306-.155.475-.18.075-.012.208.084.245.16.175.37.328.753.454 1.053-.072.54-.103.962-.192 1.373-.192.917-.97 1.77-1.33 1.477-.604-.49-.4-1.158-.274-1.758zm-37.16 1.436c-.117.295-.59.346-.736.077-.145-.26-.344-.55-.33-.82.02-.366.14-.786.366-1.066.184-.235.898.47.933 1.07-.053.17-.124.462-.235.737zm52.128 55.26c-4.174.227-8.347.446-12.52.665 0-.032-.004-.064-.006-.096-2.25 0-4.51-.04-6.758.02-1.28.035-2.55.28-3.832.37-1.813.126-3.635.246-5.456.29-2.784.06-5.58-.16-8.33.49-.104.023-.214.02-.323.02-4.06.26-8.144.35-12.18.82-4.174.48-8.35.47-12.524.47-2.455 0-4.906-.33-7.354-.563-.446-.045-.698-.517-.597-.976.76-3.444 1.32-6.96 3.444-9.937.434-.608.733-1.312 1.133-1.944.87-1.373 1.933-2.523 3.344-3.406 3.105-1.94 6.38-3.52 9.718-5 1.27-.563 2.554-1.11 3.836-1.65 1.926-.814 3.488-2.15 4.803-3.7 1.802-2.123 2.534-4.7 2.388-7.467-.15-2.788-.71-5.515-1.637-8.16-1.29-3.672-1.85-7.463-1.938-11.35-.117-5.162.22-10.274 1.246-15.348.533-2.646 1.477-5.137 2.58-7.583.13-.29.25-.612.458-.843 1.856-2.086 3.864-4.003 6.197-5.566 3.847-2.578 9.868-.55 11.98 2.795.87 1.38 1.54 2.848 1.888 4.413.537 2.404.945 4.835 1.337 7.264.113.732.018 1.5-.023 2.247-.11 1.925-.354 3.845-.354 5.77.004 4.375-1.123 8.476-2.8 12.455-.578 1.376-1.243 2.724-1.97 4.03-1.348 2.425-3.475 4.05-5.856 5.355-1.975 1.083-3.987 2.082-6.15 2.763-.757.237-.806 1.36-.08 1.81.436.272.967.554 1.456.554 1.277-.004 2.556-.146 3.834-.267.313-.03.604-.23.917-.286.48-.083.82.13.913.627.17.946.367 1.893.47 2.852.238 2.205 1.305 4.067 2.446 5.88.692 1.1 1.71 1.896 2.83 2.578 2.5 1.525 5.196 2.658 8.04 3.144 3.53.605 6.367 2.43 9.22 4.336.178.117.33.28.513.39 3.93 2.467 5.638 6.3 6.54 10.63.122.59-.24 1.072-.84 1.105zm30.567-48.525c-.043-1.318-.363-1.587-1.824-1.627-2.89-.078-5.776-.132-8.67-.18-1.83-.037-2.35.095-2.29-2.05.014-.532.003-1.09-.134-1.6-.7-2.542-.57-5.055-.06-7.62.417-2.083-1.274-4.01-3.387-4.136-2.35-.14-4.7-.286-7.045-.467-.725-.053-1.252.267-1.694.736-.836.896-1.245 2-1.28 3.218-.042 1.608-.05 3.217-.057 4.823-.006 1.82.046 3.643-.002 5.466-.034 1.43-.37 1.71-1.682 1.786-2.56.15-5.12.315-7.68.477-.32.02-.645.04-.96.105-1.224.242-1.822.912-1.867 2.217-.07 1.82-.09 3.644-.1 5.467 0 .963.005 1.934.117 2.89.198 1.684 1.003 2.59 2.667 2.685 1.698.094 3.413-.07 5.12-.162.856-.048 1.696-.22 2.552-.277.835-.056 1.22.282 1.227 1.082.02 2.466.08 4.933-.004 7.398-.05 1.376.28 2.525 1.236 3.506.22.227.384.516.548.79.475.807 1.18 1.253 2.105 1.26 2.57.02 5.14.064 7.71-.02 1.444-.05 1.937-.588 1.985-1.99.064-1.927.015-3.858.015-5.788h.063c0-1.93-.016-3.86.005-5.788.008-.78.37-1.117 1.222-1.123 2.682-.025 5.36.02 8.04-.032 2.44-.048 4.188-1.804 4.23-4.287.037-2.248-.033-4.5-.102-6.752zm-19.368-8.777c.15-.384.068-.853.158-1.267.064-.286.18-.63.62-.442.097.045.195.09.287.138 1.55.782 2.818 1.724 2.245 3.14-.085 1.158-.123 1.69-.166 2.22-.025.312-.186.39-.446.218-.53-.36-1.035-.757-1.58-1.09-1.133-.69-1.65-1.57-1.116-2.914zm-.242 8.123c.405.597.736 1.243 1.11 1.874-.297.79-.52 1.49-.812 2.16-.508 1.163-.838 1.254-1.877.602-.18-.114-.376-.21-.54-.343-.324-.27-.626-.546-.415-1.052.447-1.07.85-2.16 1.31-3.227.25-.577.837-.595 1.227-.016zm-2.17-11.55c.16-.212.517-.272.833-.424.16.34.405.617.4.892-.018 1.195-.593 2.202-1.236 3.168-.043.063-.198.07-.3.065-.074-.004-.202-.053-.215-.102-.305-1.27-.314-2.507.52-3.6zM85.22 59.733c-.05-.094-.118-.184-.136-.284-.203-1.09.123-2.124.69-2.98.287-.437 1.063-.557 1.628-.798.07-.03.2.026.285.075.075.047.19.176.175.197-.784 1.235-1.58 2.464-2.384 3.683-.043.067-.17.075-.258.107zm3.088 1.882c-.032.085-.136.17-.228.203-.18.078-.454.226-.555.154-.213-.153-.525-.487-.472-.644.288-.89.717-1.74 1.02-2.63.298-.89.468-1.823.782-2.708.066-.195.518-.38.763-.344.22.03.395.363.62.594-.66 1.845-1.287 3.613-1.93 5.378zm6.79-5.267c-.805 1.965-1.608 3.932-2.442 5.886-.224.53-1.544.683-1.988.25-.12-.117-.238-.363-.198-.507.507-1.84 1.024-3.682 1.576-5.51.24-.805.452-.93 1.416-.954.422-.01.85.014 1.264.097.155.032.264.275.38.405 0 .125.033.243-.005.335zm1.972 9.024c-.15-.067-.346-.178-.384-.31-.174-.6.082-1.343-.482-1.804-1.18-.97-.3-1.933-.017-2.886.04-.133.34-.19.52-.28.888.283 1.893 1.67 1.664 2.476-.26.91-.68 1.777-1.04 2.654-.033.08-.204.18-.26.153zm2.18 9.563c-.21.035-.406.125-.615.16-.64.105-.936-.146-.96-.856-.026-.74-.007-1.484-.007-2.224h.02c0-.636-.037-1.275.022-1.902.023-.235.285-.446.437-.667.14.153.305.286.412.46.6.99 1.184 2 1.79 2.996 1.167 1.932.61 1.73-1.1 2.033zm3.624-8.367c-.454 1.06-.313 2.03-.048 3.05.02.08-.06.264-.1.264-.16.008-.402.02-.472-.07-.623-.837-1.184-1.72-1.827-2.54-.728-.93-.238-1.788.064-2.662.05-.146.28-.235.42-.348 1.08.072 2.343 1.436 1.965 2.306zm.727-4.824c-.06.136-.333.227-.514.238-.48.027-1.342-.817-1.205-1.233.31-.974.295-2.084 1.086-2.866.098-.1.454-.117.516-.043.368.478.684.99 1.08 1.586-.33.814-.62 1.577-.96 2.318zm5.438-3.35c-.337-.2-.747-.508-.84-.845-.128-.47.008-1.01.05-1.52.006-.095.11-.178.164-.268.18.08.432.112.517.252.22.35.413.728.525 1.122.177.61-.15 1.423-.416 1.26zm6.94.03c-1.212-.256-2.144-.89-2.632-2.074-.224-.546.37-1.387 1.08-1.355.182.06.543.083.77.27.89.714 1.23 1.697 1.17 2.812-.004.13-.284.373-.39.348z"/></svg>