<svg xmlns="http://www.w3.org/2000/svg" width="128" height="128" viewBox="0 0 128 128"><path d="M82.64 108.627c-.132-.946-.28-1.917-.61-2.805-.557-1.504-1.228-2.97-1.914-4.424-1.75-3.69-4.784-6.014-8.46-7.485-3.87-1.55-7.86-2.81-11.74-4.34-1.475-.585-2.883-1.452-4.152-2.412-1.604-1.21-2.38-2.997-2.638-4.982-.235-1.792.302-3.293 1.472-4.725 2.528-3.1 4.427-6.57 5.515-10.447.357-1.28.768-2.427 2.342-2.667.36-.054.688-.484.98-.788 1.396-1.446 2.244-3.205 2.27-5.188.024-1.915-.246-3.84-.484-5.75-.057-.485-.385-1.04-.763-1.37-.91-.794-.994-1.81-1.1-2.896-.18-1.81-.383-3.624-.746-5.406-.53-2.627-1.27-5.213-2.657-7.54-1.17-1.957-2.642-3.783-4.715-4.703-5.796-2.58-11.416-2.325-16.732 1.49-2.696 1.934-4.61 4.464-6.114 7.327-1.647 3.14-3.028 6.395-3.304 10.003-.064.82-.475 1.358-1.33 1.592-1.716.467-2.618 1.773-3.188 3.352-.752 2.084-.725 4.2-.12 6.3.267.924.722 1.79 1.028 2.7.69 2.048 1.91 3.592 4.015 4.288.728.24.967.725 1.087 1.41.09.52.323 1.014.483 1.522.76 2.453 1.696 4.868 2.213 7.373.365 1.75.264 3.62.18 5.425-.076 1.587-.724 2.86-2.543 3.248-.925.197-1.788.704-2.682 1.067-4.462 1.816-9.034 3.387-13.262 5.74-1.683.94-3.375 1.892-4.928 3.022-2.94 2.145-4.896 5.026-6.034 8.504-1.02 3.115-1.08 6.306-1.11 9.528-.025 3.29 1.12 4.585 4.337 4.557 3.537-.03 7.075-.007 10.613-.007 0 .057.003.112.005.17 5.89-.184 11.788-.372 17.678-.553 5.144-.155 10.283-.162 15.424-.544 4.698-.348 9.418-.435 14.118-.856 2.987-.27 5.984-.43 8.958-.81 1.704-.217 3.38-.505 5.11-.458.614.016 1.268-.167 1.85-.4 1.624-.652 2.214-1.778 2.002-3.553-.14-1.17-.183-2.348-.35-3.51zm-19.306-52.98c.064-.246.146-.713.614-.41.166.11.33.29.395.47.11.29.134.62.218 1.045-.233.608-.455 1.323-.792 1.977-.094.18-.516.233-.798.254-.067.002-.257-.37-.228-.542.166-.94.363-1.877.593-2.797zM27.75 58.834c-.055.08-.38.09-.48.008-.437-.35-.608-.832-.512-1.392.018-.09.066-.212.14-.252.165-.094.353-.144.53-.213.64.248.81 1.127.32 1.85zm48.756 51.987c-2.896.084-5.796.14-8.69.21v.02c-.858 0-1.716-.003-2.576 0-2.89.01-5.79-.107-8.667.386-.946.16-1.925.206-2.888.196-4.832-.046-9.637.487-14.453.723-3.85.19-7.682.645-11.522.984-.43.036-.857.095-1.283.1-3.113.04-6.225.09-9.338.087-1.07-.002-2.154-.068-3.207-.235-2.562-.397-2.96.028-2.28-3.035.787-3.535 2.22-6.686 4.144-9.683.765-1.192 1.742-2.144 2.96-2.89 3.488-2.134 7.125-3.964 10.93-5.446 2.243-.874 4.178-2.136 5.857-3.857 1.744-1.78 2.525-3.953 2.7-6.364.17-2.385-.353-4.683-1.057-6.953-.565-1.842-1.035-3.712-1.504-5.58-.875-3.474-.8-7.022-.77-10.56.027-3.326.282-6.64.875-9.92.52-2.87 1.578-5.56 2.747-8.208.173-.39.416-.755.667-1.1.642-.893 4.817-4.39 5.875-4.95 2.815-1.493 6.934-1.003 9.306 1.114 1.56 1.397 2.686 3.1 3.163 5.13.81 3.44 1.61 6.875 1.33 10.48-.213 2.77-.067 5.556-.54 8.33-.382 2.237-.926 4.403-1.695 6.52-.51 1.406-1.05 2.82-1.75 4.14-1.057 2.006-2.465 3.76-4.382 5.055-1.965 1.326-4.05 2.41-6.27 3.243-.593.223-1.18.486-1.706.83-.153.097-.196.623-.075.824.21.34.54.704.9.847.797.313 1.633.47 2.515.25.932-.235 1.888-.39 2.834-.56.51-.096.812.19.91.654.09.42.157.853.15 1.275-.03 2.36.993 4.38 2.126 6.33.82 1.406 2.025 2.46 3.477 3.257 2.56 1.408 5.28 2.396 8.124 2.955 1.62.322 3.093.87 4.437 1.78 1.777 1.2 3.62 2.334 5.254 3.705 2.667 2.236 3.957 5.267 4.41 8.672.112.82-.228 1.22-1.04 1.243zm48.537-78.44c0-.96.027-1.93-.004-2.894-.146-4.727-2-8.757-5.364-11.99-1.917-1.844-4.117-3.418-6.31-4.945-2.86-1.99-6.055-3.153-9.562-3.402-.634-.046-1.26-.23-1.888-.353-2.877-.563-5.78-.56-8.62.058-5.194 1.133-9.892 3.407-14.124 6.633-.68.516-1.402 1.008-1.98 1.63-3.318 3.56-6.07 7.437-7.384 12.247-.814 2.983-.956 5.893-.16 8.86.974 3.626 2.076 7.203 4.292 10.318.245.347.47.733.594 1.13.114.386.23.88.085 1.207-1.244 2.755-1.728 5.727-2.514 8.61-.333 1.225-.424 2.532-.485 3.805-.055 1.165.956 1.99 2.113 1.87.422-.042.84-.155 1.26-.244 3.265-.698 6.343-1.908 9.3-3.45 1.326-.69 2.688-1.323 4.03-1.992.698-.346 1.383-.325 2.158-.203 3.068.486 6.14.843 9.268.635 5.34-.356 10.335-1.75 14.774-4.79 3.163-2.166 5.158-5.38 7.28-8.468 1.872-4.576 3.666-9.168 3.24-14.267zm-6.64 11.4c-.82 1.615-1.975 3.05-2.948 4.59-.882 1.396-2.09 2.423-3.46 3.298-4.062 2.578-8.357 4.36-13.032 3.935-2.754.082-5.184-.228-7.52-1.114-1.72-.65-3.363-.47-4.95.42-2.614 1.47-5.223 2.94-7.846 4.39-.555.307-1.14.585-1.745.758-.24.068-.647-.097-.832-.293-.176-.188-.305-.617-.21-.837.73-1.664 1.492-3.312 2.3-4.942.334-.667.805-1.263 1.206-1.9 1.124-1.773 1.144-2.34-.216-4-1.23-1.492-2.344-3.047-3.328-4.717-1.323-2.246-2.084-4.688-2.632-7.2-.155-.704-.083-1.5.06-2.22.304-1.57.727-3.114 1.096-4.675.53-2.256 1.707-4.136 3.323-5.766 1.583-1.6 3.163-3.205 4.74-4.81 3.372-3.43 7.522-5.187 12.244-5.728.853-.096 1.694-.253 2.55-.334 4.13-.39 8.066.17 11.848 2.04 2.733 1.347 5.12 3.043 7.253 5.215 3.003 3.055 4.44 6.736 4.924 10.897.54 4.655-.76 8.922-2.828 12.987zM99.945 18.17c-.73.125-1.886.33-3.047.51-4.53.71-7.507 3.38-9.357 7.446-.693 1.525-.363 3.132.74 4.13.95.86 2.345.81 3.12-.218.44-.585.746-1.295.997-1.988.416-1.155 1.08-2.106 2.106-2.76 1.444-.92 2.953-1.687 4.625-2.18 1.175-.343 2.083.117 3.064.49.338.13.54.817.318 1.132-.87 1.216-1.75 2.427-2.67 3.605-.99 1.263-2.043 2.477-3.055 3.722-1.755 2.156-1.29 4.383-.162 6.612.254.5 1.093.78 1.702.625.928-.24 1.488-.87 1.643-1.777.11-.625.072-1.28.038-1.923-.058-1.013.197-1.888.89-2.656.934-1.03 1.8-2.124 2.734-3.156 1.02-1.12 1.88-2.336 2.472-3.733.61-1.44.842-3.01.047-4.346-1.26-2.112-3.134-3.497-6.2-3.534zm.85 23.593c-.97-.57-1.852-.284-2.706.27-.845.54-1.4 1.328-1.738 2.247-.608 1.665.44 3.3 2.22 3.51 1.423.167 2.536-.423 3.096-1.752.244-.578.33-1.224.404-1.525.01-1.472-.388-2.223-1.278-2.748zm-.438 2.6c-.128.34-.47.7-.806.852-.457.2-1.112-.316-1.166-.803-.053-.467.465-1.01.98-1.027.492-.02 1.15.558.993.977z"/></svg>