<svg xmlns="http://www.w3.org/2000/svg" width="128" height="128" viewBox="0 0 128 128"><path d="M123.328 71.612c-.35-2.016-1.487-3.68-2.17-5.543-.512-1.404-1.265-2.69-2.23-3.863-1.898-2.32-3.485-4.843-4.56-7.663-.108-.277-.23-.553-.36-.82-.604-1.268-1.338-2.42-2.51-3.28-.623-.463-1.082-1.147-1.61-1.737-.464-.516-.863-1.114-1.395-1.547-2.33-1.89-4.773-3.574-7.776-4.266-1.06-.245-1.29-.59-1.323-1.66-.048-1.49-.025-2.988-.112-4.477-.06-.988-.23-1.973-.41-2.947-.64-3.48-2.115-6.642-3.95-9.615-2.73-4.424-6.43-7.822-11.212-9.976-.538-.243-1.12-.565-1.675-.555-1.643.032-3.136-.494-4.633-1.027-3.814-1.362-7.738-1.758-11.755-1.382-.497.05-.995.035-1.493.09-.51.053-1.283-.203-1.11.83.003.032-.69.264-1.05.25-1.39-.053-2.804-.32-4.156.124-2.074.687-4.165 1.365-6.144 2.276-4.277 1.968-8.004 4.817-11.67 7.726-.854.68-1.603 1.495-2.352 2.297-.402.43-.913.926-1.003 1.454-.3 1.75-1.394 3.05-2.214 4.512-.338.608-.64 1.253-.82 1.92-.668 2.394-1.253 4.794-1.438 7.3-.197 2.678-.487 5.348-.422 8.042.026 1.023-.346 1.326-1.483 1.435-.597.056-1.2.028-1.79.117-1.79.264-3.504.79-4.98 1.872-1.768 1.298-3.488 2.66-4.853 4.4-.99 1.262-2.108 2.37-3.37 3.37-3.09 2.455-5.41 5.535-7.045 9.132-.996 2.192-1.555 4.485-1.807 6.888-.188 1.798.18 3.55.186 5.323.008 2.686.08 5.348.485 8.027.533 3.56 1.304 7.036 2.76 10.334 2.112 4.797 5.445 8.512 10.042 11.074.867.483 1.696 1.04 2.514 1.6 2.652 1.822 5.465 3.264 8.68 3.787 1.37.223 2.77.305 4.12.613 2.36.53 4.747.504 7.133.512.686 0 1.42-.043 2.053-.277 1.7-.625 3.46-.85 5.244-1.062 1.577-.192 3.136-.527 4.693-.847 4.428-.908 8.572-2.566 12.382-4.982 1.207-.768 2.14-.698 3.26.096 1.8 1.274 3.858 2.046 5.937 2.75 1.127.386 2.266.74 3.37 1.19 3.274 1.33 6.66 2.004 10.32 1.84 2.592.184 5.222-.226 7.82-1.01 1.807-.545 3.642-1.014 5.49-1.39 1.91-.387 3.557-1.202 5.03-2.46 1.59-1.358 3.183-2.714 4.838-3.986 3.996-3.08 6.606-7.076 8.16-11.845.682-2.096.983-4.253 1.396-6.396.843-4.403 1.412-8.836 1.36-13.337-.01-1.093-.21-2.154-.4-3.235zm-85.232-30.25c-.233-3.396.685-6.495 2.423-9.38.82-1.36 1.63-2.732 2.52-4.05 1.01-1.496 2.27-2.778 3.756-3.81 5.06-3.532 10.7-5.676 16.736-6.762 1.75-.316 3.57-.27 5.36-.292 3.387-.043 6.764.01 10.113.672 1 .198 1.893.54 2.77 1.02 5.505 3.015 9.025 7.652 11.2 13.456 1.046 2.786 1.113 5.632.96 8.525-.04.7-.493 1.056-1.242.877-1.763-.422-3.547-.39-5.337-.465-2.51-.102-4.96.292-7.413.673-1.267.2-2.48.704-3.81.58-.356-.033-.74.228-1.117.356-3.923 1.333-7.366 3.46-10.37 6.31-.364.34-.72.69-1.072 1.04-.315.315-.663.386-1.07.19-1.254-.61-2.53-1.17-3.76-1.824-1.885-1.013-3.885-1.52-6.017-1.467-4.574.11-9.15.24-13.722.383-.507.014-.745-.224-.772-.655-.087-1.49-.14-2.98-.203-4.47.022-.003.047-.003.068-.003 0-.3.02-.6 0-.898zm29.93 13.66c-.514-.69-.465-1.054.156-1.49 3.493-2.464 7.075-4.75 11.2-6.078 1.725-.555 3.435-.943 5.245-.892.992.03 1.984.005 2.976.005v-.015c1.192 0 2.385-.02 3.576 0 2.12.048 2.21.117 1.432 2.248-.677 1.86-1.415 3.712-2.334 5.46-2.225 4.246-4.988 8.114-8.556 11.358-.66.6-1.32 1.222-2.064 1.704-3.653 2.362-2.73 2.52-4.667-1.227-2.004-3.895-4.335-7.577-6.964-11.075zm.385 16.51c-1.09.03-2.185.01-3.28.01-1.792.058-3.582.05-5.32-.5-.444-.142-.653-.47-.58-.885.08-.486.28-.95.427-1.424 1.003-3.233 2.343-6.328 3.93-9.316.196-.367.756-.407.988-.062.717 1.074 1.427 2.15 2.105 3.253.203.325.388.728.4 1.103.09 2.448 1.102 4.614 1.976 6.826.224.57-.02.98-.645.997zm-9.777-15.538C56.925 58.45 55.396 61 54.235 63.76c-.578 1.37-1.052 2.78-1.59 4.167-.22.576-.58.69-1.17.373-3.867-2.067-6.867-5.05-9.096-8.795-.864-1.446-1.587-2.98-2.306-4.508-.747-1.587-.644-1.712 1.195-1.95 2.655-.333 5.31-.665 7.967-.993.198-.025.395-.028.747-.053.243.058.634.127 1.013.235 2.385.675 4.774 1.33 7.147 2.05 1.107.34 1.2.683.486 1.71zM60.46 105.7c-3.753 1.314-7.55 2.477-11.436 3.333-.765.168-1.566.203-2.353.238-.895.04-1.79.01-2.687.01-3.392-.035-6.763-.26-10.062-1.076-4.23-1.05-7.96-3.05-11.105-6.09-.288-.282-.512-.662-.85-.833-2.305-1.17-3.395-3.37-4.39-5.503-1.6-3.415-2.856-6.98-3.888-10.627-.672-2.37-.626-4.74-.348-7.105.47-3.982 1.85-7.726 3.58-11.322.506-1.047 1.27-2.048 2.125-2.844 2.037-1.9 4.237-3.618 6.3-5.49 1.99-1.808 4.477-2.514 6.926-3.328.438-.146.755.187.93.557.165.355.255.75.38 1.13 1.484 4.516 4.01 8.43 7.084 12 1.97 2.283 4.452 3.957 7.048 5.455.43.25.854.55 1.32.693 1.63.498 1.987 1.572 1.913 3.196-.195 4.296.29 8.54 1.595 12.655 1.58 4.986 3.88 9.58 7.6 13.357.21.21.395.446.587.672.292.357.17.764-.267.92zm8.18-12.697c-.52 2.216-1.234 4.39-1.887 6.575-.11.373-.288.757-.54 1.043-.143.166-.603.277-.74.17-.473-.35-.958-.74-1.27-1.225-2.477-3.856-4.638-7.87-5.835-12.335-.075-.29-.235-.57-.238-.854-.024-2.483-.033-4.965-.015-7.445.002-.435.34-.74.772-.734.892.018 1.797.032 2.67.192 2.47.45 4.933.433 7.41.088.733-.107 1.108.216 1.122.975.025 1.193.005 2.385.005 4.118.258 2.893-.683 6.158-1.457 9.435zm49.345-11.542c-.105.786-.24 1.58-.216 2.37.065 2.748-.638 5.296-1.814 7.758-1.075 2.253-2.313 4.397-3.845 6.372-.852 1.098-1.727 2.183-2.522 3.327-1.817 2.63-4.16 4.42-7.283 5.35-2.59.774-5.18 1.365-7.867 1.54-1.98.134-3.962.283-5.948.366-3.342.14-6.53-.6-9.535-2.007-.923-.433-1.81-.7-2.805-.843-1.27-.192-2.51-.563-3.755-.883-.395-.105-.567-.605-.376-.944.684-1.21 1.49-2.366 2.04-3.634 1.584-3.677 2.57-7.514 2.584-11.554.008-3.578.213-7.165-.504-10.707-.122-.604.19-.917.67-1.15.624-.302 1.25-.61 1.884-.9 4.657-2.095 8.37-5.37 11.36-9.427 3.98-5.405 7.102-11.26 8.635-17.87.04-.185.09-.426.222-.527.21-.16.5-.314.753-.31.277.006.587.15.818.32 1.677 1.238 3.355 2.478 4.994 3.766.853.668 1.49 1.61 2.635 1.89.26.06.53.298.69.53 1.634 2.346 3.696 4.383 4.664 7.214.96 2.816 2.268 5.51 3.347 8.288 1.01 2.61 1.61 5.32 1.704 8.163-.18 1.168-.37 2.336-.53 3.51z"/></svg>