<svg xmlns="http://www.w3.org/2000/svg" width="128" height="128" viewBox="0 0 128 128"><path d="M118.272 66.848c-.405-2.16-1.408-3.855-3.792-4.313-.602-.115-1.192-.337-1.797-.39-1.41-.123-1.67-.377-1.66-1.98.002-.41-.026-.824-.018-1.233.06-2.685-.277-5.338-.736-7.972-.373-2.13-1.007-4.195-1.96-6.144-.226-.453-.476-1.067-.87-1.23-1.774-.742-3.35-2.006-5.445-1.948-1.845.053-3.7-.102-5.55-.184-.506-.023-1.07.004-1.495-.213-.738-.37-.132-1.12-.295-1.676-.34-1.178-.544-2.38-1.205-3.474-2.61-4.308-5.157-8.655-7.736-12.984-.572-.958-1.277-1.81-1.448-3.006-.124-.887-.917-1.283-1.827-1.37-1.175-.11-2.253.16-3.255.74-2.22 1.295-4.43 2.6-6.645 3.902-2.484 1.453-4.91 3.02-7.466 4.328-2.833 1.446-5.788 2.656-8.693 3.954-.41.186-.86.1-1.08-.302-1.144-2.088-3.132-2.507-5.232-2.64-1.23-.08-2.468-.017-3.705-.015-5.552.02-11.093-.028-16.573-1.167-2.017-.42-4.065-.31-6.055.544-1.21.52-2.566.698-3.856 1.035-.59.15-1.25.195-1.75.496-1.763 1.06-3.42 2.266-4.89 3.733-1.368 1.364-1.576 3.09-1.488 4.8.192 3.792.7 7.567.853 11.36.186 4.52.13 9.053.192 13.582.02 1.44-.04 2.89.14 4.315.5 4.005.36 8.023.15 12.02-.16 3.084-.292 6.166-.21 9.246.143 5.286 2.23 9.746 6.08 13.376.684.644 1.438 1.133 2.373 1.37 1.89.48 3.766 1 5.644 1.533 5.237 1.488 10.677 1.993 15.953 3.288.288.07.613-.016.92-.014 7.406.082 14.82.008 22.22.31 5.346.22 10.687.284 16.034.392 2.47 0 4.946-.094 7.41.02 4.555.21 9.006-.52 13.47-1.237 2.044-.325 3.697-1.172 4.682-3.084.234-.46.56-.866.796-1.32 1.538-2.944 2.66-5.973 2.432-9.404-.15-2.255-.038-4.527-.013-6.79.01-.918.337-1.434 1.222-1.488 1.354-.082 2.237-.766 3.16-1.666.84-.823 1.41-1.72 1.817-2.795.806-2.133 1.328-4.29 1.227-6.607-.077-1.746.075-3.495.092-5.248.007-.82.03-1.662-.123-2.46zM77.764 28.786c.382-.44.975-.695 1.483-1.027.166-.113.346-.21.528-.3 2.355-1.166 2.39-.97 3.418.79.304.516.772.94 1.12 1.436.082.117.048.488-.034.53-1.215.554-1.52 1.836-2.274 2.757-.174.213-.494.314-.846.53-.827-.24-1.7-.47-2.557-.753-.147-.05-.29-.308-.317-.488-.096-.602-.16-1.21-.196-1.817-.037-.58-.84-1.073-.328-1.66zm-57.642 9.782c-.41 0-.848.037-1.224-.09-.352-.12-.782-.372-.915-.678-.132-.302-.023-.794.142-1.12.18-.35.5-.672.84-.878 1.757-1.075 3.598-2.02 5.68-2.208 3.694-.34 7.38-.288 11.053.34 1.21.206 2.446.263 3.675.31 2.658.1 5.325-.155 7.98.42 1.055.23 2.223-.048 3.338-.075.077-.005.183.105.22.185.035.09.047.242-.004.302-.533.613-1.11 1.195-1.617 1.828-.396.494-.046 1.41.562 1.46.812.065 1.673.173 2.44-.017 4.974-1.256 9.95-2.563 14.576-4.836 2.214-1.088 4.638-1.632 6.79-2.84.172-.096.387-.12.586-.178.37-.107.88.22.88.587-.005.824-.036 1.646-.05 2.467-.012.79.394 1.364 1.005 1.807 1.02.736 2.167 1.152 3.412 1.3.51.06 1.03.04 1.538.1 1.77.21 3.24-.25 4.277-1.796.224-.333.533-.618.843-.878.1-.085.437-.072.48 0 .548.98 1.052 1.984 1.596 2.968.594 1.07 1.21 2.133 1.824 3.195.356.613.038 1.213-.73 1.233-1.542.036-3.086.01-4.628.01-4.512-.13-9.01-.426-13.5-.96-3.97-.473-7.94-.99-11.97-.86-2.454.08-4.918-.247-7.38-.35-1.744-.073-3.492-.08-5.24-.113-2.875-.056-5.77.07-8.625-.203-5.947-.573-11.9-.432-17.853-.432zm82.794 55.978c-.048 1.133-.013 2.27-.105 3.395-.057.706-.224 1.413-.442 2.088-.275.853-.888 1.348-1.822 1.413-4.613.316-9.198 1.09-13.85.937-2.973-.203-5.947-.41-8.924-.61-.41-.03-.82-.07-1.23-.05-3.893.228-7.79.463-11.685.7-.715.044-1.45.246-2.14.14-3.268-.53-6.567-.38-9.85-.525-.916-.04-1.828-.202-2.734-.354-.682-.115-1.087-.464-.99-1.263.047-.386-.055-.808-.17-1.192-.128-.423-.917-.805-1.276-.603-.715.398-1.483.762-2.07 1.312-.903.847-1.906 1.108-3.098 1.034-1.025-.066-2.057-.01-3.086-.043-.298-.01-.59-.127-.887-.197.117-.337.166-.72.363-1.007.64-.93 1.36-1.808 1.992-2.746.282-.415.448-.923.615-1.407.245-.707-.05-1.493-.658-1.888-.62-.398-1.448-.32-1.98.223-1.288 1.325-2.56 2.666-3.84 4.003-.355.373-.704.753-1.06 1.122-.377.387-.784.614-1.366.41-.48-.167-.995-.244-1.493-.358-.86-.203-.933-.317-.52-.944.85-1.287 1.744-2.547 2.563-3.854.543-.865 1.036-1.774 1.468-2.703.38-.815-.253-1.94-1.174-2.15-.262-.06-.656.004-.847.174-.61.544-1.17 1.152-1.726 1.757-1.25 1.363-2.476 2.75-3.743 4.103-1.17 1.248-1.714 1.123-2.295-.41-.626-1.65-.573-3.146.534-4.64 2.077-2.81 4.06-5.692 6.08-8.546.412-.587.805-1.188 1.2-1.788.39-.59.317-1.168-.093-1.713-.613-.818-1.374-.956-2.112-.34-2.053 1.724-3.922 3.634-5.613 5.716-.324.402-.616.826-.958 1.21-.1.108-.32.13-.49.147-.052.002-.143-.147-.17-.24-.16-.595-.325-1.19-.464-1.792-.192-.845-.046-1.616.464-2.34 2.365-3.364 4.71-6.742 7.06-10.11.767-1.098 1.58-2.158 2.29-3.286.558-.885-.277-2.237-1.357-2.16-.69.052-1.443.246-2.027.6-1.315.804-2.507 1.785-3.493 3.003-.907 1.116-1.877 2.18-2.84 3.248-.12.136-.384.235-.55.2-.11-.025-.202-.31-.228-.49-.2-1.294.17-2.443.916-3.49 1.677-2.34 3.36-4.676 5.01-7.035.53-.75 1.004-1.54 1.426-2.353.277-.538-.314-1.267-.936-1.275-.755-.01-1.43.203-1.98.715-1.204 1.11-2.382 2.255-3.585 3.368-.13.12-.402.208-.556.156-.142-.05-.265-.296-.3-.474-.06-.3-.048-.613-.05-.922-.006-1.03-.01-2.06-.002-3.088.014-2.778.01-5.557.06-8.337.017-.916.166-1.836.29-2.75.077-.57.413-.932 1.023-.927 4.83.04 9.665-.395 14.48.388 1.212.2 2.465.168 3.697.18 5.867.06 11.733.048 17.597.16 3.487.07 6.96.45 10.43.898 3.866.497 7.717 1.146 11.66.993 2.56-.095 5.13.2 7.7.246 1.64.027 3.282-.068 4.924-.14 2.053-.09 4.106-.23 6.16-.307.612-.02 1.24.03 1.842.146 1.227.242 1.643.785 1.8 2.084.3 2.446.626 4.89.94 7.33.036.306.074.614.084.922.135 3.915.74 4.114-3.605 4.555-3.287.333-6.565.37-9.852.433-1.954.04-3.915-.043-5.86.08-2.358.15-4.72.358-7.046.73-1.934.31-3.736 1.1-5.404 2.164-.734.466-1.26 1.064-1.43 1.918-.792 3.933-1.478 7.887-1.38 11.915.064 2.62 1.1 4.736 3.46 6.155 1.972 1.187 4.052 2.082 6.318 2.296 2.964.28 5.92.663 8.916.644 4.24-.02 8.39-.597 12.53-1.406.3-.062.596-.157.9-.207.555-.09.998.327.97.892-.108 2.053-.223 4.103-.317 6.157zm10.478-18.883c-.064 1.443-.344 2.832-1.018 4.125-1.35.46-2.683.976-4.055 1.344-.425.115-.955-.162-1.44-.262.2-.357.388-.718.597-1.07.437-.738.547-1.533.416-2.373-.122-.803-1.085-1.48-1.842-1.175-.642.26-1.334.608-1.785 1.114-.883.994-1.664 2.086-2.39 3.202-.59.907-1.38 1.16-2.37 1.05-.193-.02-.51-.09-.54-.2-.063-.247-.077-.593.054-.788.506-.768 1.122-1.466 1.612-2.24.5-.8.36-1.544-.284-2.248-.528-.58-1.534-.802-2.256-.35-.686.427-1.365.936-1.88 1.547-.918 1.1-1.727 2.29-2.55 3.47-.453.644-1.02.945-1.814.947-1.54.004-3.083.053-4.623.096-.924.026-1.884-.064-2.765.15-2.592.628-5.105.03-7.64-.29-.297-.037-.59-.173-.868-.29-.51-.21-.862-.576-.867-1.152-.018-1.434-.007-2.873-.007-4.31l-.16-.003c.064-1.436.134-2.87.184-4.307.034-.983.482-1.738 1.13-2.452 1.74-1.923 3.926-2.67 6.4-2.168 2.06.42 4.044.333 6.097.077 1.724-.218 3.487-.134 5.234-.16 3.39-.048 6.78-.064 10.17-.132.812-.016 1.716.027 2.404-.315 1.554-.77 2.97-.474 4.427.134.286.117.576.218.862.33 1.504.59 1.52.598 1.538 2.23.023 2.053.023 4.11.034 6.163 0 .1.002.206-.003.31zm-32.2-5.316c-.484.165-1.004.23-1.484.407-1.71.63-2.677 1.882-2.802 3.69-.062.915.034 1.846.12 2.764.027.28.195.617.408.795 1.335 1.13 2.648 2.336 4.608 2.005 1.337.328 2.44-.277 3.475-.936.873-.56 1.57-1.376 1.797-2.415.604-2.773-2.075-7.696-6.123-6.31zm2.74 4.797c-.557.224-1.14.39-1.444.49-.81.033-1.423-.47-1.28-.887.12-.337.405-.752.717-.866.683-.25 1.412-.21 2.016.3.147.13.32.33.32.494s-.173.41-.33.472z"/></svg>