<svg xmlns="http://www.w3.org/2000/svg" width="128" height="128" viewBox="0 0 128 128"><path d="M114.142 39.127c-.622-3.13-1.173-6.277-1.816-9.405-.123-.595-.442-1.195-.818-1.68-.622-.802-2.33-1.012-2.87.428-1.447 3.866-4.52 6.368-7.54 8.894-.64.533-1.42.934-2.33.965-2.606.08-5.073-.3-7.395-1.626-1.496-.856-2.458-1.938-2.69-3.68-.125-.945-.445-1.863-.634-2.802-.317-1.563.083-2.734 1.336-3.934 2.7-2.58 5.346-5.185 8.507-7.215.712-.46 1.372-1.018 1.978-1.61.806-.787.784-2.04-.01-2.862-.29-.3-.65-.54-1.007-.764-.843-.54-1.803-.672-2.768-.657-2.667.032-5.335.09-8 .18-1.442.046-2.673.678-3.78 1.57-2.74 2.2-5.463 4.43-8.23 6.6-2.53 1.982-4.057 4.624-5.157 7.557-.223.587-.403 1.26-.348 1.872.352 3.924-.338 7.91.695 11.794.18.67-.06 1.254-.555 1.74-.227.225-.43.474-.66.696-3.663 3.567-7.25 7.217-11.014 10.67-4.875 4.476-9.456 9.228-13.803 14.206-1.973 2.26-1.933 2.302-4.82 1.36-.507-.164-1-.372-1.508-.532-.606-.19-1.22-.49-1.835-.497-3.083-.032-6.19-.317-9.222.518-2.93.806-5.512 2.05-7.237 4.806-2.502 3.996-4.586 8.18-6.305 12.557-.262.674-.5 1.463-.393 2.146.14.885.043 1.675-.17 2.51-.105.404-.092.85-.08 1.268.027.98.644 1.61 1.58 1.665 1.554.093 2.945-.296 4.155-1.318 1.14-.962 2.292-1.92 3.487-2.816.97-.727 1.984-1.076 3.266-.54 1.365.575 2.825.977 4.28 1.274 1.232.256 2.136.86 2.88 1.824.587.762 1.195 1.504 1.82 2.235.79.924 1.117 2.062 1.428 3.185.234.843.144 1.683-.348 2.466-1.355 2.155-2.56 4.405-4.546 6.1-.804.69-1.468 1.545-2.155 2.36-.368.437-.37.946-.123 1.493.483 1.067 1.244 1.722 2.435 1.787.747.043 1.493.047 2.24.05 1.816.012 3.63.007 5.446.018.426 0 .85.05 1.044.53h3.203c.16-.136.3-.362.482-.4 2.898-.614 4.944-2.447 6.573-4.76 1.348-1.917 2.542-3.943 3.744-5.956.43-.725.75-1.53 1.01-2.336.555-1.717 1.053-3.46 1.55-5.2.684-2.397.86-4.836.477-7.292-.724-4.637-.82-4.205 2.756-7.333 3.05-2.67 6.015-5.434 9.002-8.178.466-.427.834-.965 1.26-1.444.497-.56.94-1.187 1.518-1.644 2.773-2.193 5.2-4.743 7.67-7.26 1.32-1.346 3.12-2.263 3.718-4.26.082-.268.472-.423.666-.677.992-1.29 2.106-2.1 3.805-1.2.358.188.825.224 1.244.238 2.56.084 5.122.2 7.683.188 2.276-.008 4.334-.72 6.32-1.92 3.352-2.022 5.885-4.9 8.51-7.682 2.183-2.312 3.027-5.088 2.395-8.27zm-3.638 2.938c-.03.4-.22.856-.478 1.158-2.153 2.5-4.267 5.05-7.182 6.735-.275.16-.56.314-.864.41-.523.17-1.02.176-1.478-.244-.38-.35-.808-.65-1.248-.92-.26-.164-.988.24-1.005.544-.034.526-.013 1.058-.017 1.584-.006.82-.277 1.094-1.13 1.12-.425.014-.88.09-1.273-.03-.48-.138-1.087-.335-1.33-.708-.92-1.426-1.73-2.925-2.55-4.418-.202-.367-.25-.813-.42-1.2-.28-.626-.908-.943-1.563-.85-.656.1-1.222.597-1.312 1.224-.203 1.39-.12 2.763.382 4.096.037.1-.18.32-.313.445-.045.047-.243.005-.296-.06-.272-.32-.555-.64-.768-.994-.6-1.006-1.16-2.037-1.757-3.04-.16-.27-.384-.507-.604-.736-.53-.554-1.57-.327-1.853.426-.144.382-.292.836-.224 1.218.197 1.045.51 2.065.768 3.096.1.416-.237.81-.703.82-.427.007-.856-.028-1.28-.003-.704.043-1.234-.203-1.61-.81-.17-.27-.358-.534-.575-.767-.624-.67-1.152-.832-1.656-.544-.843.484-1.233 1.317-.896 2.152.317.79.67 1.586 1.156 2.27.617.87.462 1.584-.16 2.304-.416.482-.825.986-1.312 1.397-.178.15-.643.192-.835.062-.533-.343-.975-.824-1.476-1.218-.544-.427-1.14-.54-1.78-.187-.673.377-1.033 1.114-.81 1.91.172.603.402 1.22.737 1.746.886 1.382.263 1.807-.71 2.653-.393.344-.785.28-1.107-.056-.437-.463-.804-.99-1.235-1.465-.285-.313-.59-.64-.95-.846-.68-.384-1.443-.49-2.12-.04-.615.404-.673 1.137-.484 1.733.288.898.715 1.76 1.165 2.594.79 1.472.783 1.643-.5 2.607-.71.533-1.12.512-1.586-.21-.7-1.074-1.387-2.154-2.448-2.922-.452-.33-1.016-.523-1.45-.085-.342.352-.762.91-.705 1.314.25 1.81.946 3.47 2.03 4.97.436.6.246 1.126-.4 1.643-.61.49-1.215.533-1.716.01-.587-.607-1.09-1.295-1.65-1.935-.558-.643-1.11-1.294-1.72-1.887-.397-.386-.926-.546-1.472-.325-.64.26-1.103 1.202-.9 1.873.184.61.38 1.235.7 1.778.696 1.197 1.483 2.34 2.208 3.52.377.606.263.974-.37 1.685-.34.385-.717.47-1.09.13-.635-.565-1.212-1.196-1.848-1.76-.635-.56-1.288-1.11-1.984-1.594-.416-.288-.928-.642-1.437-.144-.465.46-.834 1.008-.684 1.7.324 1.488 1.067 2.778 1.997 3.965.617.793.71 1.554-.078 2.25-.712.635-.866 1.415-.85 2.307.017.954-.02 1.907-.053 2.86 0 .082-.097.215-.168.227-.09.018-.227-.04-.29-.11-.42-.48-.787-1.006-1.246-1.442-.533-.508-1.122-.96-1.725-1.377-.484-.34-1.074-.337-1.443.123-.305.387-.57.93-.568 1.405 0 .496.3 1.01.532 1.486.8 1.635 1.766 3.16 2.987 4.527.636.718 1.23 1.48 1.767 2.273.444.655.512 1.415.06 2.105-.125.192-.627.387-.736.3-.494-.383-.94-.847-1.345-1.328-.825-.977-1.602-1.995-2.42-2.976-.51-.61-1.194-.87-1.983-.875-.845-.005-1.695.954-1.41 1.73.366.994.785 1.987 1.344 2.88 1.298 2.074 2.7 4.085 4.03 6.14.07.105-.094.37-.17.553-.006.014-.193-.005-.253-.062-.39-.35-.778-.714-1.156-1.083-.832-.82-1.632-1.675-2.492-2.464-.493-.456-1.39-.085-1.472.576-.053.415-.096.863.008 1.26.134.504.378.994.65 1.45.662 1.09 1.375 2.155 2.06 3.235.48.763.43 1.137-.22 2.01-.31.41-.815.502-1.084.163-.462-.583-.87-1.202-1.333-1.782-.64-.793-1.376-1.054-1.9-.725-.684.428-.848.98-.564 1.95.145.5.312 1 .47 1.5l.41.294-.28.277-.27-.43c-.964-.16-1.894-.3-2.6.666-.398.544-1.01.768-1.703.64-.096-.016-.235-.062-.267-.133-.075-.156-.187-.416-.12-.496 1.28-1.57 2.557-3.14 3.893-4.66.683-.78.893-1.628.892-2.64 0-2.563-.913-4.818-2.315-6.866-1.2-1.756-2.57-3.402-3.93-5.044-.313-.373-.86-.605-1.342-.768-2.72-.932-5.455-1.785-8.313-2.24-1.355-.212-2.515-.18-3.595.738-.725.62-1.504 1.177-2.278 1.74-.108.077-.443.06-.457.017-.06-.18-.11-.42-.036-.585 1.633-3.723 3.516-7.294 6.1-10.472.93-1.14 1.99-1.805 3.426-2.126 3.217-.722 6.336-.565 9.42.61 1.388.53 2.812.902 4.052 1.817.862.633 2.165.37 2.944-.406 1.058-1.052 2.067-2.154 3.077-3.252 2.952-3.212 5.79-6.538 8.865-9.626 3.985-4.005 8.117-7.87 12.896-10.962.264-.17.54-.352.834-.46 2.338-.823 3.825-2.674 5.306-4.486 1.636-2.005 1.86-5.02.413-7.18-.826-1.234-1.17-2.473-1.173-3.888-.005-1.175.03-2.353-.047-3.522-.19-2.837.516-5.49 1.55-8.088.324-.81.748-1.497 1.48-2.027 1.468-1.06 2.895-2.18 4.332-3.288.928-.715 1.9-1.39 2.752-2.187 1.78-1.66 3.955-1.903 6.223-1.867.088.004.258.295.237.423-.032.19-.176.385-.323.527-1.91 1.86-3.784 3.757-5.756 5.55-1.767 1.605-2.178 3.612-1.86 5.797.304 2.104.817 4.18 1.24 6.265.313 1.55 1.167 2.722 2.508 3.54 1.274.774 2.56 1.53 3.855 2.272.37.208.77.423 1.177.476 2.005.27 4.016.485 6.022.72 1.215.142 2.303-.196 3.362-.782 2.47-1.367 4.524-3.185 6.13-5.507.364-.525.684-1.08 1.06-1.6.095-.13.317-.188.493-.23.047-.014.168.132.203.227.914 2.35.95 4.795.75 7.255z"/></svg>