<svg xmlns="http://www.w3.org/2000/svg" width="128" height="128" viewBox="0 0 128 128"><path d="M94.842 19.848c-2.227-3.73-7.87-3.834-10.242-.192-.82 1.256-1.576 2.55-2.398 3.797-2.71 4.107-5.404 8.222-8.166 12.292-1.26 1.856-2.688 3.593-4 5.413-2.624 3.654-5.216 7.33-7.826 10.994-.31.435-.64.86-.98 1.27-.295.356-.86.377-1.125.063-.206-.245-.41-.496-.594-.757-3.803-5.45-7.657-10.862-11.385-16.357-2.17-3.2-4.773-6.03-7.257-8.964-.843-.995-1.93-1.696-3.166-2.136-2.452-.878-4.27-.07-5.177 2.288-.323.837-.34 1.694-.04 2.517.257.7.574 1.393.96 2.032 1.388 2.29 2.65 4.683 4.257 6.81 3.234 4.28 5.877 8.936 8.885 13.356 3.255 4.783 6.49 9.58 9.728 14.37.117.174.273.368.284.56.01.172-.135.484-.25.51-.73.128-1.467.224-2.2.282-1.173.093-2.35.11-3.52.23-1.056.11-2.11.32-3.16.487-1.267.203-2.556.323-3.794.645-.806.208-1.635.587-2.275 1.11-1.576 1.298-1.372 3.27.433 4.21.93.487 1.97.89 3.002 1.038 3.49.508 6.944 1.333 10.5 1.393 1.106.02 1.46.52 1.483 1.656.008.213.004.43-.003.643-.043 1.117-.238 1.406-1.222 1.53-1.806.224-3.62.365-5.425.602-1.267.166-2.53.41-3.785.67-1.205.25-2.13.977-2.904 1.902-1.494 1.784-1.01 4.296 1.03 5.412 2.135 1.17 4.38 1.712 6.84 1.11.826 0 1.68-.006 2.54 0 .32.004.646.015.963.054 1.613.202 2.052.732 1.882 2.324-.15 1.385-.402 2.76-.49 4.143-.084 1.29-.19 2.535-.628 3.78-.46 1.304-.796 2.68-.66 4.097.15 1.623.61 3.032 1.98 4.174 1.535 1.28 3.172 1.596 5.07 1.472 1.25-.078 2.298-.46 3.19-1.297.93-.874 1.785-1.697 2.066-3.12.933-4.733 2.013-9.424 1.806-14.3-.05-1.245.3-1.533 1.49-1.58 3.85-.15 7.707-.284 11.556-.463.62-.03 1.323-.118 1.82-.442 1.098-.71 1.883-1.746 2.292-3.016.827-2.57-.83-5.59-3.424-6.32-2.747-.767-5.515-.503-8.294-.303-1.702.123-3.408.213-5.115.277-.452.017-.837-.248-.88-.75-.052-.64-.067-1.284-.052-1.924.01-.642.34-.96.974-1.03 2.552-.27 5.104-.546 7.66-.81 2.113-.216 3.9-1.056 5.308-2.674.512-.588.808-1.24.896-2.017.203-1.777-.492-3.1-1.89-4.164-1.86-1.412-3.946-1.536-6.125-1.21-2.005.305-4.006.662-6.016.982-.2.032-.42-.035-.63-.06-.5-.052-.98-.694-.84-1.17.116-.405.232-.84.47-1.173.867-1.217 1.797-2.388 2.69-3.585 2.362-3.186 4.75-6.353 7.066-9.572 2.875-3.998 5.717-8.02 8.525-12.07 2.013-2.896 3.967-5.838 5.906-8.783.883-1.34 1.75-2.702 2.483-4.125 1.044-2.03 1.105-4.128-.097-6.14z"/></svg>