<svg xmlns="http://www.w3.org/2000/svg" width="128" height="128" viewBox="0 0 128 128"><path d="M113.74 57.17c-.11-3.243-.908-6.34-1.83-9.416-2.16-7.203-5.9-13.51-10.984-19.02-3.362-3.64-7.172-6.732-11.584-9.055-5.56-2.925-11.418-4.697-17.7-5.27-4.076-.374-8.076-.47-12.13.22-7.135 1.22-13.906 3.385-20.116 7.16-6.646 4.047-12.676 8.76-16.936 15.437-2.147 3.37-3.71 6.96-4.707 10.827-1.212 4.696-1.248 9.525-1.694 14.304-.28 3.027.535 5.95 1.2 8.86 1.796 7.795 4.854 15.04 9.468 21.613 4.48 6.385 10.292 11.117 17.377 14.315 4.494 2.025 9.133 3.652 13.9 4.896 3.21.833 6.43 1.67 9.814 1.516 2.982-.252 5.973-.437 8.946-.78 1.685-.196 3.38-.534 5.01-1.012 3.72-1.085 7.174-2.837 10.392-4.94 4.785-3.13 8.76-7.13 12-11.878 1.82-2.67 3.283-5.52 4.655-8.416 3.488-7.358 5.05-15.188 5.3-23.286.063-2.02-.32-4.048-.386-6.072zM41.17 45.946c1.248-.81 2.517-1.553 3.957-2.042 2.923-.98 5.443-.377 7.74 1.56 1.253 1.05 2.205 2.276 2.652 3.896.46 1.675.17 3.154-.82 4.54-1.298 1.82-3.093 3.01-5.2 3.507-2.368.555-4.78.995-7.268.367-1.774-.445-3.036-1.42-4-2.917-.562-.88-.444-1.84-.48-3.43.15-1.958 1.213-4.05 3.42-5.482zm64.493 32.576c-1.887 2.748-3.386 5.702-4.916 8.643-.85 1.624-1.9 3.08-3.293 4.31-2.324 2.05-4.48 4.308-6.906 6.234-2.757 2.187-5.68 4.17-9.1 5.29-1.827.594-3.617 1.32-5.382 2.083-2.49 1.08-5.005 1.91-7.16 1.43-4.175.036-7.622-.56-10.982-1.79-3.613-1.313-7.32-2.324-10.874-3.855-4.164-1.798-7.477-4.462-9.9-8.278-.278-.433-.69-.796-1.074-1.15-.55-.507-1.154-.956-1.7-1.47-1.645-1.54-3.106-3.182-4.085-5.29-1.31-2.805-2.883-5.49-4.322-8.237-1.1-2.107-1.637-4.405-2.187-6.69-.17-.715-.123-1.485-.13-2.23 0-.158.187-.33.317-.467.02-.025.222.053.274.128 1.7 2.377 3.91 4.21 6.194 5.995 4.704 3.68 9.952 5.76 15.964 5.77.643 0 1.285-.022 1.928 0 4.465.19 8.338-1.47 12.048-3.754 2.155-1.33 3.82-3.1 5.11-5.227 1.444-2.374 2.947-4.734 4.14-7.237 2.027-4.254 5.126-7.298 9.39-9.22 2.566-1.157 5.278-1.97 8.037-2.07 5.166-.19 9.987 1.038 13.91 4.7.78.732 1.515 1.516 2.248 2.294 2.848 3.038 4.096 6.688 4.114 10.808.003 1.07-.08 2.148.016 3.21.213 2.254-.437 4.275-1.67 6.068zm-19.658-14.63c-2.438 1.73-3.865 4.225-4.528 7.135-.277 1.22-.02 2.328.902 3.243.684.675 1.396 1.33 1.997 2.076 1.528 1.893 3.528 2.236 5.764 1.89 1.96-.3 3.604-1.21 5.087-2.516 1.72-1.515 2.606-3.345 2.55-5.66-.133-.838-.135-1.724-.42-2.51-1.65-4.637-7.334-6.5-11.35-3.656z"/></svg>