<?xml version="1.0" encoding="UTF-8" standalone="no"?>
<svg width="136px" height="128px" viewBox="0 0 136 128" version="1.1" xmlns="http://www.w3.org/2000/svg" xmlns:xlink="http://www.w3.org/1999/xlink">
    <!-- Generator: Sketch 41 (35326) - http://www.bohemiancoding.com/sketch -->
    <title>puzzle12</title>
    <desc>Created with Sketch.</desc>
    <defs></defs>
    <g id="Symbols" stroke="none" stroke-width="1" fill="none" fill-rule="evenodd">
        <g id="puzzle12" fill="#777777">
            <path d="M132.08,77.77 C129.609,74.566 126.146,72.962 121.693,72.962 C119.357,72.962 117.103,73.37 114.931,74.184 C112.756,74.999 111.004,75.909 109.674,76.914 C108.345,77.918 106.905,78.829 105.357,79.643 C103.81,80.458 102.437,80.867 101.244,80.867 C98.799,80.867 96.383,79.617 93.992,77.119 C92.091,75.109 91.14,71.932 91.14,67.587 C91.14,62.427 91.791,55.773 93.094,47.626 C93.15,47.463 93.244,46.879 93.379,45.874 C93.517,44.87 93.65,43.946 93.787,43.104 C93.922,42.262 94.016,41.787 94.071,41.678 L94.071,41.515 C91.52,41.624 87.092,42.085 80.791,42.9 C74.49,43.715 69.603,44.122 66.126,44.122 C62.813,44.122 60.015,43.403 57.734,41.963 C55.453,40.524 54.312,38.256 54.312,35.16 C54.312,33.15 54.788,31.222 55.738,29.375 C56.688,27.528 57.72,25.993 58.834,24.771 C59.948,23.548 60.98,21.946 61.93,19.964 C62.881,17.983 63.356,15.877 63.356,13.651 C63.356,9.36 61.89,6.005 58.957,3.589 C56.024,1.173 52.385,-0.036 48.04,-0.036 C43.423,-0.036 39.513,1.2 36.308,3.671 C33.104,6.142 31.501,9.605 31.501,14.059 C31.501,16.394 31.908,18.648 32.723,20.821 C33.537,22.993 34.447,24.745 35.452,26.076 C36.457,27.407 37.367,28.846 38.181,30.394 C38.996,31.943 39.403,33.314 39.403,34.509 C39.403,36.953 38.154,39.37 35.655,41.76 C33.645,43.661 30.468,44.613 26.123,44.613 C20.963,44.613 14.309,43.961 6.162,42.657 C6,42.6 5.416,42.505 4.411,42.369 C3.406,42.233 2.483,42.098 1.641,41.962 C0.799,41.826 0.323,41.732 0.215,41.677 L0.215,125.106 C0.215,125.161 0.269,125.188 0.378,125.188 C0.486,125.242 0.568,125.268 0.622,125.268 L1.681,125.432 C2.171,125.539 2.917,125.65 3.922,125.757 C4.927,125.865 5.674,125.975 6.163,126.082 C14.31,127.387 20.964,128.038 26.124,128.038 C30.469,128.038 33.646,127.087 35.656,125.185 C38.155,122.795 39.404,120.377 39.404,117.935 C39.404,116.74 38.997,115.369 38.182,113.82 C37.368,112.273 36.457,110.834 35.453,109.503 C34.449,108.172 33.539,106.42 32.724,104.248 C31.909,102.075 31.502,99.821 31.502,97.485 C31.502,93.031 33.105,89.568 36.309,87.097 C39.513,84.625 43.397,83.39 47.959,83.39 C52.359,83.39 56.025,84.599 58.958,87.015 C61.891,89.431 63.357,92.786 63.357,97.077 C63.357,99.303 62.882,101.409 61.931,103.39 C60.981,105.373 59.948,106.974 58.835,108.198 C57.721,109.421 56.69,110.954 55.739,112.802 C54.788,114.648 54.313,116.576 54.313,118.585 C54.313,121.683 55.453,123.95 57.735,125.39 C60.017,126.828 62.814,127.547 66.127,127.547 C68.626,127.547 71.287,127.412 74.111,127.14 C76.935,126.869 80.072,126.502 83.521,126.04 C86.97,125.578 89.617,125.265 91.464,125.102 C92.062,125.047 92.959,125.02 94.152,125.02 L94.152,124.614 C94.207,122.496 93.8,119.373 92.931,115.244 C92.062,111.117 91.626,107.994 91.626,105.875 C91.626,99.14 94.614,95.772 100.589,95.772 C102.599,95.772 104.527,96.248 106.374,97.198 C108.22,98.149 109.755,99.182 110.976,100.295 C112.2,101.409 113.804,102.441 115.786,103.392 C117.767,104.341 119.871,104.818 122.098,104.818 C126.389,104.818 129.744,103.351 132.16,100.418 C134.578,97.484 135.785,93.819 135.785,89.42 C135.785,84.857 134.551,80.975 132.08,77.77 L132.08,77.77 Z" id="Shape"></path>
        </g>
    </g>
</svg>