<?xml version="1.0" encoding="UTF-8" standalone="no"?>
<svg width="136px" height="130px" viewBox="0 0 136 130" version="1.1" xmlns="http://www.w3.org/2000/svg" xmlns:xlink="http://www.w3.org/1999/xlink">
    <!-- Generator: Sketch 40 (33762) - http://www.bohemiancoding.com/sketch -->
    <title>Shape</title>
    <desc>Created with Sketch.</desc>
    <defs></defs>
    <g id="Symbols" stroke="none" stroke-width="1" fill="none" fill-rule="evenodd">
        <g id="star61" fill="#777777">
            <path d="M135.785,50.457 C135.785,48.447 134.265,47.198 131.221,46.709 L90.324,40.762 L71.993,3.692 C70.962,1.465 69.63,0.352 68.001,0.352 C66.372,0.352 65.041,1.465 64.009,3.692 L45.677,40.762 L4.778,46.709 C1.737,47.198 0.216,48.447 0.216,50.457 C0.216,51.598 0.895,52.902 2.253,54.368 L31.909,83.209 L24.903,123.945 C24.794,124.706 24.74,125.25 24.74,125.575 C24.74,126.716 25.025,127.679 25.595,128.468 C26.165,129.256 27.02,129.649 28.161,129.649 C29.139,129.649 30.225,129.325 31.42,128.672 L68,109.443 L104.582,128.671 C105.723,129.323 106.809,129.649 107.84,129.649 C110.069,129.649 111.182,128.293 111.182,125.577 C111.182,124.871 111.155,124.328 111.1,123.946 L104.094,83.211 L133.668,54.37 C135.08,52.956 135.785,51.652 135.785,50.457 L135.785,50.457 Z M92.85,79.543 L98.715,113.844 L68,97.63 L37.203,113.844 L43.151,79.543 L18.22,55.345 L52.602,50.294 L68,19.171 L83.398,50.294 L117.782,55.345 L92.85,79.543 L92.85,79.543 Z" id="Shape"></path>
        </g>
    </g>
</svg>