<?xml version="1.0" encoding="UTF-8" standalone="no"?>
<svg width="136px" height="126px" viewBox="0 0 136 126" version="1.1" xmlns="http://www.w3.org/2000/svg" xmlns:xlink="http://www.w3.org/1999/xlink">
    <!-- Generator: Sketch 39.1 (31720) - http://www.bohemiancoding.com/sketch -->
    <title>archive15</title>
    <desc>Created with Sketch.</desc>
    <defs></defs>
    <g id="Symbols" stroke="none" stroke-width="1" fill="none" fill-rule="evenodd">
        <g id="archive15" fill="#e3e3e3">
            <g id="Group">
                <path d="M125.357,36.929 L10.644,36.929 C9.231,36.929 8.009,37.445 6.977,38.477 C5.945,39.509 5.429,40.731 5.429,42.143 L5.429,120.357 C5.429,121.769 5.945,122.992 6.977,124.023 C8.009,125.055 9.231,125.572 10.644,125.572 L125.357,125.572 C126.769,125.572 127.991,125.055 129.023,124.023 C130.054,122.992 130.57,121.769 130.57,120.357 L130.57,42.143 C130.57,40.73 130.056,39.509 129.023,38.477 C127.992,37.445 126.77,36.929 125.357,36.929 L125.357,36.929 Z M82.094,61.452 C81.062,62.484 79.84,63 78.428,63 L57.571,63 C56.159,63 54.937,62.484 53.905,61.452 C52.873,60.42 52.357,59.198 52.357,57.785 C52.357,56.373 52.873,55.151 53.905,54.119 C54.937,53.087 56.159,52.571 57.571,52.571 L78.43,52.571 C79.841,52.571 81.063,53.087 82.096,54.119 C83.127,55.151 83.643,56.373 83.643,57.785 C83.643,59.198 83.126,60.42 82.094,61.452 L82.094,61.452 Z" id="Shape"></path>
                <path d="M134.238,1.977 C133.206,0.945 131.984,0.429 130.572,0.429 L5.429,0.429 C4.017,0.429 2.795,0.945 1.763,1.977 C0.731,3.009 0.215,4.231 0.215,5.643 L0.215,26.5 C0.215,27.912 0.731,29.134 1.763,30.166 C2.795,31.198 4.017,31.714 5.429,31.714 L130.57,31.714 C131.982,31.714 133.205,31.198 134.238,30.166 C135.269,29.134 135.785,27.912 135.785,26.5 L135.785,5.643 C135.785,4.23 135.27,3.009 134.238,1.977 L134.238,1.977 Z" id="Shape"></path>
            </g>
        </g>
    </g>
</svg>